<?xml version="1.0" encoding="UTF-8" standalone="no"?>
<svg xmlns:ffdec="https://www.free-decompiler.com/flash" xmlns:xlink="http://www.w3.org/1999/xlink" ffdec:objectType="shape" height="72.15px" width="35.8px" xmlns="http://www.w3.org/2000/svg">
  <g transform="matrix(1.0, 0.0, 0.0, 1.0, 14.0, 36.8)">
    <path d="M14.75 -21.75 L11.0 -17.85 11.8 -13.5 17.9 -14.75 21.8 -16.75 21.05 -15.35 14.4 -10.75 6.7 -8.05 1.45 -10.65 0.55 -16.85 6.1 -22.7 13.2 -25.4 17.05 -24.2 16.3 -23.4 14.75 -21.75 M7.7 -16.95 L6.75 -18.85 3.15 -14.25 7.7 -16.95" fill="#b98046" fill-rule="evenodd" stroke="none"/>
    <path d="M21.05 -15.35 L19.5 -12.2 16.4 -8.3 9.45 -5.4 7.15 -3.7 0.55 -5.8 -0.95 -10.4 0.55 -16.85 1.45 -10.65 6.7 -8.05 14.4 -10.75 21.05 -15.35 M16.3 -23.4 L18.4 -18.7 14.75 -21.75 16.3 -23.4" fill="#412f18" fill-rule="evenodd" stroke="none"/>
    <path d="M7.7 -16.95 L3.15 -14.25 6.75 -18.85 7.7 -16.95" fill="#fad463" fill-rule="evenodd" stroke="none"/>
    <path d="M14.75 -21.75 L11.0 -17.85 11.8 -13.5 17.9 -14.75 21.8 -16.75 21.05 -15.35 19.5 -12.2 16.4 -8.3 9.45 -5.4 7.15 -3.7 0.55 -5.8 -0.95 -10.4 0.55 -16.85 6.1 -22.7 13.2 -25.4 17.05 -24.2 16.3 -23.4 18.4 -18.7 14.75 -21.75 16.3 -23.4 M0.55 -16.85 L1.45 -10.65 6.7 -8.05 14.4 -10.75 21.05 -15.35 M7.7 -16.95 L3.15 -14.25 6.75 -18.85 7.7 -16.95 Z" ffdec:has-small-stroke="true" ffdec:original-stroke-width="0.05" fill="none" stroke="#000000" stroke-linecap="round" stroke-linejoin="round" stroke-opacity="0.2509804" stroke-width="1.0"/>
    <path d="M5.8 -30.35 Q6.25 -28.5 7.7 -27.5 9.15 -26.5 10.75 -27.05 12.35 -27.5 13.15 -29.2 14.0 -30.9 13.55 -32.75 13.15 -34.6 11.7 -35.6 10.3 -36.55 8.7 -36.05 7.1 -35.55 6.25 -33.9 5.4 -32.2 5.8 -30.35" fill="#003c00" fill-rule="evenodd" stroke="none"/>
    <path d="M7.15 -33.9 L6.9 -33.45 6.6 -32.7 6.5 -32.15 Q6.4 -31.4 6.6 -30.6 6.85 -29.55 7.45 -28.85 L8.05 -28.4 Q9.15 -27.65 10.35 -28.05 L10.45 -28.05 10.5 -28.1 Q10.75 -28.15 11.0 -28.3 L11.65 -28.8 11.7 -30.55 11.4 -31.45 11.2 -32.05 10.55 -33.15 Q10.15 -33.65 9.2 -33.95 L7.15 -33.9 M9.85 -28.8 Q9.6 -28.75 9.1 -29.2 L9.05 -29.35 9.15 -29.8 Q9.95 -30.45 10.5 -29.5 L10.5 -29.05 Q10.25 -28.7 9.85 -28.8 M7.9 -30.75 Q7.55 -31.35 7.6 -32.2 7.7 -33.5 8.85 -33.45 9.6 -33.4 9.75 -32.75 9.6 -32.55 9.35 -32.6 L8.8 -32.65 8.6 -32.4 Q8.55 -31.65 9.1 -31.3 L9.2 -31.3 Q8.95 -30.45 8.2 -30.7 L7.95 -30.75 7.9 -30.75 8.2 -30.45 7.7 -30.85 7.9 -30.75" fill="url(#gradient0)" fill-rule="evenodd" stroke="none"/>
    <path d="M11.65 -28.8 L11.9 -29.0 12.35 -29.75 Q12.75 -30.55 12.75 -31.5 L12.7 -32.5 12.1 -33.9 11.6 -34.5 11.35 -34.7 11.2 -34.8 10.65 -35.05 10.55 -35.1 9.8 -35.3 9.7 -35.3 9.4 -35.25 8.85 -35.15 8.8 -35.1 Q7.75 -34.8 7.15 -33.9 L9.2 -33.95 Q10.15 -33.65 10.55 -33.15 L11.2 -32.05 11.4 -31.45 11.7 -30.55 11.65 -28.8" fill="#159971" fill-rule="evenodd" stroke="none"/>
    <path d="M9.85 -28.8 Q10.25 -28.7 10.5 -29.05 L10.5 -29.5 Q9.95 -30.45 9.15 -29.8 L9.05 -29.35 9.1 -29.2 Q9.6 -28.75 9.85 -28.8 M7.9 -30.75 L7.95 -30.75 8.2 -30.7 Q8.95 -30.45 9.2 -31.3 L9.1 -31.3 Q8.55 -31.65 8.6 -32.4 L8.8 -32.65 9.35 -32.6 Q9.6 -32.55 9.75 -32.75 9.6 -33.4 8.85 -33.45 7.7 -33.5 7.6 -32.2 7.55 -31.35 7.9 -30.75" fill="#ffffff" fill-rule="evenodd" stroke="none"/>
    <path d="M7.9 -30.75 L7.7 -30.85 8.2 -30.45 7.9 -30.75" fill="#7ceb8c" fill-rule="evenodd" stroke="none"/>
    <path d="M7.15 -33.9 L6.9 -33.45 6.6 -32.7 6.5 -32.15 Q6.4 -31.4 6.6 -30.6 6.85 -29.55 7.45 -28.85 L8.05 -28.4 Q9.15 -27.65 10.35 -28.05 L10.45 -28.05 10.5 -28.1 Q10.75 -28.15 11.0 -28.3 L11.65 -28.8 11.9 -29.0 12.35 -29.75 Q12.75 -30.55 12.75 -31.5 L12.7 -32.5 12.1 -33.9 11.6 -34.5 11.35 -34.7 11.2 -34.8 10.65 -35.05 10.55 -35.1 9.8 -35.3 9.7 -35.3 9.4 -35.25 8.85 -35.15 8.8 -35.1 Q7.75 -34.8 7.15 -33.9 Z" ffdec:has-small-stroke="true" ffdec:original-stroke-width="0.05" fill="none" stroke="#000000" stroke-linecap="round" stroke-linejoin="round" stroke-opacity="0.24313726" stroke-width="1.0"/>
    <path d="M9.65 -27.65 L9.9 -26.9 9.3 -24.3 8.25 -23.9 8.1 -21.45 5.3 -20.5 0.35 -25.85 -0.1 -28.55 0.3 -31.55 1.15 -33.95 4.25 -35.9 5.15 -35.6 4.65 -33.55 5.55 -33.25 8.65 -30.55 8.9 -29.65 9.65 -27.65 M3.55 -33.9 L4.65 -33.55 3.55 -33.9 M0.55 -16.95 L4.65 -17.7 9.35 -20.3 11.3 -22.35 13.1 -30.0 14.4 -25.15 14.0 -22.6 12.75 -20.05 9.65 -17.35 3.8 -15.85 3.1 -15.95 0.55 -16.95 M10.95 -14.8 L13.0 -11.3 12.2 -9.65 8.7 -7.4 0.8 -5.05 -4.55 -6.75 0.6 -7.7 8.6 -10.8 9.3 -13.9 10.5 -14.4 10.95 -14.8 M7.4 -23.65 L6.6 -23.35 2.6 -25.55 5.85 -21.95 7.3 -22.5 7.4 -23.65 8.25 -23.9 7.4 -23.65 M-12.0 29.05 L-10.8 26.45 -8.75 24.95 -0.85 22.15 -0.45 21.35 0.65 20.5 1.65 22.45 -0.6 25.2 -7.55 26.95 -12.0 29.05" fill="#c57e4b" fill-rule="evenodd" stroke="none"/>
    <path d="M9.3 -13.9 L4.75 -11.95 -0.95 -12.15 -2.0 -14.8 -2.05 -17.25 -1.0 -19.15 0.45 -20.85 1.6 -21.15 0.5 -16.95 0.55 -16.95 3.1 -15.95 3.45 -15.75 3.8 -15.85 9.65 -17.35 12.75 -20.05 14.0 -22.6 14.4 -25.15 14.6 -24.65 14.85 -20.75 14.15 -18.05 10.95 -14.8 10.5 -14.4 9.3 -13.9 M13.0 -11.3 L13.55 -10.35 13.8 -8.2 12.85 -5.4 11.95 -3.9 10.05 -2.35 1.1 -2.15 -2.0 -0.75 -4.1 1.4 -4.2 1.8 -5.95 0.45 -6.1 0.25 -6.8 -1.5 -6.3 -3.75 -4.55 -6.75 0.8 -5.05 8.7 -7.4 12.2 -9.65 13.0 -11.3 M-11.7 30.5 L-12.0 29.05 -7.55 26.95 -0.6 25.2 1.65 22.45 0.65 20.5 2.7 15.6 4.25 19.6 4.95 19.8 4.95 22.5 3.6 25.65 0.85 27.35 -2.75 28.6 -2.8 28.6 -3.2 28.85 -3.15 28.75 -3.1 28.7 -7.9 30.3 -8.2 31.6 -11.7 30.5 M-3.1 28.7 L-2.8 28.6 -3.1 28.7" fill="#5b371e" fill-rule="evenodd" stroke="none"/>
    <path d="M8.9 -29.65 L9.7 -28.85 9.65 -27.65 8.9 -29.65" fill="#f2c35d" fill-rule="evenodd" stroke="none"/>
    <path d="M7.4 -23.65 L7.3 -22.5 5.85 -21.95 2.6 -25.55 6.6 -23.35 7.4 -23.65" fill="#002b00" fill-rule="evenodd" stroke="none"/>
    <path d="M3.1 -15.95 L3.8 -15.85 3.45 -15.75 3.1 -15.95" fill="#744e26" fill-rule="evenodd" stroke="none"/>
    <path d="M6.15 0.65 L7.45 1.75 8.2 3.5 8.4 4.8 8.15 5.9 7.4 4.55 5.15 4.85 6.15 0.65" fill="#322010" fill-rule="evenodd" stroke="none"/>
    <path d="M9.65 -27.65 L9.9 -26.9 9.3 -24.3 8.25 -23.9 8.1 -21.45 5.3 -20.5 0.35 -25.85 -0.1 -28.55 0.3 -31.55 1.15 -33.95 4.25 -35.9 5.15 -35.6 4.65 -33.55 5.55 -33.25 8.65 -30.55 8.9 -29.65 9.7 -28.85 9.65 -27.65 8.9 -29.65 M4.65 -33.55 L3.55 -33.9 M9.3 -13.9 L4.75 -11.95 -0.95 -12.15 -2.0 -14.8 -2.05 -17.25 -1.0 -19.15 0.45 -20.85 1.6 -21.15 0.5 -16.95 0.55 -16.95 4.65 -17.7 9.35 -20.3 11.3 -22.35 13.1 -30.0 14.4 -25.15 14.6 -24.65 14.85 -20.75 14.15 -18.05 10.95 -14.8 13.0 -11.3 13.55 -10.35 13.8 -8.2 12.85 -5.4 11.95 -3.9 10.05 -2.35 1.1 -2.15 -2.0 -0.75 -4.1 1.4 -4.2 1.8 -5.95 0.45 -6.1 0.25 -6.8 -1.5 -6.3 -3.75 -4.55 -6.75 0.6 -7.7 8.6 -10.8 9.3 -13.9 10.5 -14.4 10.95 -14.8 M7.4 -23.65 L6.6 -23.35 2.6 -25.55 5.85 -21.95 7.3 -22.5 7.4 -23.65 8.25 -23.9 M-11.7 30.5 L-12.0 29.05 -10.8 26.45 -8.75 24.95 -0.85 22.15 -0.45 21.35 0.65 20.5 2.7 15.6 4.25 19.6 4.95 19.8 4.95 22.5 3.6 25.65 0.85 27.35 -2.75 28.6 M-3.2 28.85 L-3.15 28.75 -3.1 28.7 -7.9 30.3 -8.2 31.6 M-2.8 28.6 L-3.1 28.7" ffdec:has-small-stroke="true" ffdec:original-stroke-width="0.05" fill="none" stroke="#000000" stroke-linecap="round" stroke-linejoin="round" stroke-opacity="0.2509804" stroke-width="1.0"/>
    <path d="M6.15 0.65 L7.45 1.75 8.2 3.5 8.4 4.8 8.15 5.9 7.4 4.55 5.15 4.85 6.15 0.65 Z" ffdec:has-small-stroke="true" ffdec:original-stroke-width="0.05" fill="none" stroke="#000000" stroke-linecap="round" stroke-linejoin="round" stroke-width="1.0"/>
    <path d="M3.25 -15.75 L3.2 -15.7 Q2.95 -15.6 2.9 -15.8 L3.0 -16.1 3.2 -16.1 3.35 -16.0 3.25 -15.75" fill="#c8915b" fill-rule="evenodd" stroke="none"/>
    <path d="M3.2 -16.1 L3.45 -16.35 Q3.85 -16.45 4.05 -16.05 4.2 -15.7 3.75 -15.5 3.35 -15.4 3.25 -15.75 L3.35 -16.0 3.2 -16.1 M5.95 -17.2 Q6.2 -17.3 6.3 -16.9 6.45 -16.55 6.1 -16.45 5.7 -16.35 5.65 -16.65 5.65 -17.0 5.95 -17.2 M5.0 -15.85 Q4.55 -15.85 4.5 -16.2 4.35 -16.55 4.8 -16.65 5.25 -16.7 5.3 -16.25 5.3 -15.85 5.0 -15.85 M11.85 -20.55 Q12.2 -20.65 12.3 -20.2 12.45 -19.7 12.05 -19.55 11.65 -19.45 11.6 -19.9 11.55 -20.35 11.85 -20.55 M11.4 -19.3 Q11.55 -18.8 11.2 -18.75 10.75 -18.8 10.7 -19.15 10.55 -19.55 10.9 -19.65 L11.4 -19.3 M10.3 -18.5 Q10.65 -18.7 10.75 -18.35 10.9 -18.0 10.55 -17.75 10.05 -17.55 10.05 -17.95 9.9 -18.35 10.3 -18.5 M9.1 -18.15 L9.45 -17.9 9.2 -17.55 8.9 -17.8 Q8.8 -18.1 9.1 -18.15 M6.5 -17.05 Q6.45 -17.4 6.7 -17.55 L7.1 -17.2 Q7.15 -16.85 6.9 -16.8 L6.5 -17.05 M8.1 -17.05 Q7.65 -16.85 7.55 -17.4 7.4 -17.9 7.8 -17.95 8.2 -18.05 8.35 -17.6 8.45 -17.2 8.1 -17.05 M13.35 -22.85 Q13.05 -22.8 13.05 -23.1 13.0 -23.45 13.25 -23.6 L13.55 -23.3 Q13.65 -23.0 13.35 -22.85 M13.85 -22.05 Q14.05 -21.55 13.65 -21.5 13.2 -21.35 13.05 -21.8 12.9 -22.25 13.3 -22.35 13.7 -22.5 13.85 -22.05 M12.35 -20.65 Q12.2 -21.05 12.6 -21.2 13.0 -21.35 13.15 -20.95 13.2 -20.6 12.9 -20.4 12.5 -20.25 12.35 -20.65 M12.4 -10.75 Q12.0 -10.65 11.9 -11.05 11.7 -11.45 12.1 -11.6 12.55 -11.8 12.65 -11.35 12.75 -10.9 12.4 -10.75 M11.95 -9.4 Q11.85 -9.7 12.1 -9.8 12.3 -9.95 12.4 -9.65 12.5 -9.35 12.25 -9.25 12.05 -9.15 11.95 -9.4 M11.0 -8.05 Q10.6 -7.8 10.5 -8.35 10.35 -8.9 10.8 -9.0 11.3 -9.15 11.4 -8.7 11.45 -8.25 11.0 -8.05 M10.15 -8.35 L9.95 -7.9 Q9.7 -7.8 9.6 -8.15 9.55 -8.5 9.8 -8.55 10.05 -8.65 10.15 -8.35 M9.4 -7.3 L9.15 -7.45 9.3 -7.8 Q9.5 -7.9 9.55 -7.65 L9.4 -7.3 M8.25 -7.6 Q8.6 -7.75 8.75 -7.3 8.9 -6.9 8.55 -6.75 8.1 -6.6 8.0 -7.0 7.85 -7.55 8.25 -7.6 M1.85 -5.45 Q2.0 -5.05 1.6 -4.9 1.25 -4.75 1.2 -5.15 1.1 -5.7 1.45 -5.8 1.75 -5.9 1.85 -5.45 M3.25 -6.5 Q3.6 -6.6 3.8 -6.2 3.9 -5.75 3.55 -5.55 3.15 -5.4 3.05 -5.9 2.85 -6.35 3.25 -6.5 M2.65 -5.4 Q2.45 -5.3 2.4 -5.55 L2.6 -5.8 2.8 -5.7 2.65 -5.4 M1.05 -5.65 Q1.15 -5.2 0.8 -5.05 0.4 -4.95 0.25 -5.35 0.15 -5.7 0.55 -5.9 0.95 -6.05 1.05 -5.65 M-1.45 -4.85 Q-1.75 -4.7 -1.9 -5.15 -1.95 -5.6 -1.6 -5.75 -1.2 -5.85 -1.15 -5.4 -1.05 -5.05 -1.45 -4.85 M-0.65 -5.2 Q-0.8 -5.8 -0.4 -5.95 0.05 -6.05 0.2 -5.5 0.4 -5.1 -0.05 -4.85 -0.5 -4.7 -0.65 -5.2 M7.25 -6.45 Q6.95 -6.3 6.9 -6.65 6.8 -7.0 7.1 -7.05 7.4 -7.15 7.45 -6.85 L7.25 -6.45 M4.15 -6.6 L4.35 -6.85 4.55 -6.75 4.45 -6.45 Q4.2 -6.35 4.15 -6.6 M6.0 -7.1 Q6.4 -7.25 6.55 -6.7 6.7 -6.2 6.2 -6.0 5.8 -5.8 5.7 -6.4 5.65 -6.95 6.0 -7.1 M-9.2 26.85 Q-8.85 26.65 -8.7 27.05 -8.2 26.9 -8.0 27.4 -7.8 27.8 -8.25 28.05 -8.7 28.3 -9.0 27.75 L-9.0 27.7 Q-9.35 27.9 -9.45 27.45 -9.55 27.0 -9.2 26.85 M-4.3 25.85 Q-4.15 26.35 -4.5 26.5 -4.85 26.65 -5.0 26.25 -5.15 25.8 -4.8 25.65 -4.45 25.45 -4.3 25.85 M-4.05 25.5 Q-3.55 25.45 -3.45 25.75 -3.3 26.1 -3.6 26.35 -4.0 26.5 -4.2 26.05 -4.5 25.65 -4.05 25.5 M1.7 22.9 Q1.4 23.0 1.25 22.55 1.1 22.1 1.5 21.95 1.95 21.75 2.0 22.25 2.05 22.75 1.7 22.9 M1.15 23.5 Q0.75 23.55 0.75 23.2 0.7 22.85 0.95 22.7 1.2 22.55 1.35 22.95 1.5 23.45 1.15 23.5 M-2.4 26.1 Q-2.2 26.8 -2.75 26.9 -3.3 27.0 -3.4 26.4 -3.45 25.85 -3.05 25.65 -2.65 25.35 -2.4 26.1 M-2.15 25.75 Q-2.25 25.25 -1.9 25.05 -1.45 24.9 -1.4 25.45 -1.3 25.95 -1.7 26.05 L-2.15 25.75 M-0.65 24.25 Q-0.25 24.05 -0.1 24.55 0.05 25.0 -0.35 25.15 -0.7 25.35 -0.9 24.95 -1.0 24.45 -0.65 24.25 M0.0 24.4 Q-0.15 24.15 0.1 24.0 0.4 23.95 0.5 24.2 L0.35 24.6 Q0.15 24.7 0.0 24.4 M-5.9 26.9 L-6.1 27.4 -6.5 27.15 -6.3 26.7 Q-6.0 26.55 -5.9 26.9 M-7.2 26.3 Q-6.95 26.05 -6.75 26.6 -6.6 27.1 -7.05 27.2 L-7.5 26.85 Q-7.55 26.45 -7.2 26.3" fill="#dbb997" fill-rule="evenodd" stroke="none"/>
    <path d="M6.5 -27.4 L6.8 -25.65 4.4 -26.4 3.05 -27.85 3.0 -29.55 6.5 -27.4" fill="#f2c35d" fill-rule="evenodd" stroke="none"/>
  </g>
  <defs>
    <radialGradient cx="0" cy="0" gradientTransform="matrix(0.0074, -0.0023, -0.002, -0.0086, 7.4, -34.0)" gradientUnits="userSpaceOnUse" id="gradient0" r="819.2" spreadMethod="pad">
      <stop offset="0.0" stop-color="#159971"/>
      <stop offset="0.6039215686274509" stop-color="#93fe92"/>
      <stop offset="0.9882352941176471" stop-color="#f2fff2"/>
    </radialGradient>
  </defs>
</svg>
