<?xml version="1.0" encoding="UTF-8" standalone="no"?>
<svg xmlns:ffdec="https://www.free-decompiler.com/flash" xmlns:xlink="http://www.w3.org/1999/xlink" ffdec:objectType="frame" height="23.15px" width="21.75px" xmlns="http://www.w3.org/2000/svg">
  <g transform="matrix(1.0, 0.0, 0.0, 1.0, 10.45, 10.85)">
    <use ffdec:characterId="187" height="55.55" transform="matrix(0.4, 0.0, 0.0, 0.4, 0.0, 0.0)" width="53.35" xlink:href="#sprite0"/>
    <use ffdec:characterId="238" height="122.5" transform="matrix(0.0473, -0.0746, 0.0745, 0.0474, -3.0, -3.35)" width="122.95" xlink:href="#shape2"/>
    <use ffdec:characterId="238" height="122.5" transform="matrix(0.1054, 0.0403, -0.0403, 0.1056, 1.7, 3.35)" width="122.95" xlink:href="#shape3"/>
  </g>
  <defs>
    <g id="sprite0">
      <use ffdec:characterId="100" height="49.7" transform="matrix(1.0, 0.0, 0.0, 1.0, 1.0, 2.5)" width="49.7" xlink:href="#sprite1"/>
      <use ffdec:characterId="186" height="50.0" transform="matrix(1.0, 0.0, 0.0, 1.0, 0.0, 0.0)" width="50.0" xlink:href="#shape1"/>
    </g>
    <g id="sprite1">
      <use ffdec:characterId="99" height="49.7" transform="matrix(1.0, 0.0, 0.0, 1.0, 0.0, 0.0)" width="49.7" xlink:href="#shape0"/>
    </g>
    <g id="shape0">
      <path d="M20.05 -14.4 Q27.35 -7.1 27.35 3.2 27.35 13.5 20.05 20.75 12.8 28.05 2.5 28.05 -7.8 28.05 -15.1 20.75 -22.35 13.5 -22.35 3.2 -22.35 -7.1 -15.1 -14.4 -7.8 -21.65 2.5 -21.65 12.8 -21.65 20.05 -14.4" fill="#443c42" fill-opacity="0.7019608" fill-rule="evenodd" stroke="none"/>
    </g>
    <g id="shape1">
      <path d="M-0.05 0.0 L0.0 -0.05 0.0 0.0 -0.05 0.0" fill="#ff3300" fill-rule="evenodd" stroke="none"/>
      <path d="M0.0 0.0 L0.0 0.05 -0.05 0.0 0.0 0.0" fill="url(#gradient0)" fill-rule="evenodd" stroke="none"/>
      <path d="M13.2 -13.25 L13.25 -13.2 Q18.7 -7.75 18.7 0.0 18.7 7.75 13.25 13.25 L13.2 13.25 Q7.75 18.7 0.0 18.7 -7.8 18.7 -13.25 13.25 -18.7 7.75 -18.7 0.0 -18.7 -7.75 -13.25 -13.2 -7.8 -18.7 0.0 -18.7 7.75 -18.7 13.2 -13.25 M-0.05 0.0 L0.0 0.05 0.0 0.0 0.0 -0.05 -0.05 0.0" fill="url(#gradient1)" fill-rule="evenodd" stroke="none"/>
      <path d="M17.65 -17.7 L13.2 -13.25 Q7.75 -18.7 0.0 -18.7 L0.0 -25.0 Q10.35 -25.0 17.65 -17.7 M18.7 0.0 L25.0 0.0 Q25.0 10.35 17.7 17.7 L17.65 17.7 13.2 13.25 13.25 13.25 Q18.7 7.75 18.7 0.0 M0.0 25.0 Q-10.4 25.0 -17.7 17.7 L-13.25 13.25 Q-7.8 18.7 0.0 18.7 L0.0 25.0 M-25.0 0.0 Q-25.0 -10.35 -17.7 -17.65 L-13.25 -13.2 Q-18.7 -7.75 -18.7 0.0 L-25.0 0.0" fill="#ff4e12" fill-rule="evenodd" stroke="none"/>
      <path d="M17.65 -17.7 L17.7 -17.65 Q25.0 -10.35 25.0 0.0 L18.7 0.0 Q18.7 -7.75 13.25 -13.2 L13.2 -13.25 17.65 -17.7 M17.65 17.7 Q10.35 25.0 0.0 25.0 L0.0 18.7 Q7.75 18.7 13.2 13.25 L17.65 17.7 M-17.7 17.7 Q-25.0 10.35 -25.0 0.0 L-18.7 0.0 Q-18.7 7.75 -13.25 13.25 L-17.7 17.7 M-17.7 -17.65 Q-10.4 -25.0 0.0 -25.0 L0.0 -18.7 Q-7.8 -18.7 -13.25 -13.2 L-17.7 -17.65" fill="#ec3102" fill-rule="evenodd" stroke="none"/>
      <path d="M0.0 0.0 L-0.05 0.0" ffdec:has-small-stroke="true" ffdec:original-stroke-width="0.05" fill="none" stroke="#ff9900" stroke-linecap="round" stroke-linejoin="round" stroke-opacity="0.0" stroke-width="2.5000381475547417"/>
      <path d="M0.0 0.0 L0.0 0.05 -0.05 0.0 0.0 -0.05 0.0 0.0" ffdec:has-small-stroke="true" ffdec:original-stroke-width="0.05" fill="none" stroke="#541101" stroke-linecap="round" stroke-linejoin="round" stroke-width="2.5000381475547417"/>
      <path d="M25.0 0.0 Q25.0 -10.35 17.7 -17.65 L17.65 -17.7 13.2 -13.25 13.25 -13.2 Q18.7 -7.75 18.7 0.0 L25.0 0.0 Q25.0 10.35 17.7 17.7 L17.65 17.7 Q10.35 25.0 0.0 25.0 -10.4 25.0 -17.7 17.7 -25.0 10.35 -25.0 0.0 -25.0 -10.35 -17.7 -17.65 -10.4 -25.0 0.0 -25.0 10.35 -25.0 17.65 -17.7 M0.0 -18.7 Q7.75 -18.7 13.2 -13.25 M0.0 -25.0 L0.0 -18.7 Q-7.8 -18.7 -13.25 -13.2 -18.7 -7.75 -18.7 0.0 -18.7 7.75 -13.25 13.25 -7.8 18.7 0.0 18.7 7.75 18.7 13.2 13.25 L13.25 13.25 Q18.7 7.75 18.7 0.0 M13.2 13.25 L17.65 17.7 M0.0 25.0 L0.0 18.7 M-17.7 -17.65 L-13.25 -13.2 M-25.0 0.0 L-18.7 0.0 M-13.25 13.25 L-17.7 17.7" ffdec:has-small-stroke="true" ffdec:original-stroke-width="0.05" fill="none" stroke="#fcdc94" stroke-linecap="round" stroke-linejoin="round" stroke-opacity="0.972549" stroke-width="2.5000381475547417"/>
    </g>
    <radialGradient cx="0" cy="0" gradientTransform="matrix(1.0E-4, 0.0, 0.0, 1.0E-4, 0.0, 0.0)" gradientUnits="userSpaceOnUse" id="gradient0" r="819.2" spreadMethod="pad">
      <stop offset="0.0" stop-color="#ff0000"/>
      <stop offset="1.0" stop-color="#000000"/>
    </radialGradient>
    <radialGradient cx="0" cy="0" gradientTransform="matrix(0.0248, 0.0, 0.0, 0.0248, -0.7, 0.0)" gradientUnits="userSpaceOnUse" id="gradient1" r="819.2" spreadMethod="pad">
      <stop offset="0.5686274509803921" stop-color="#ffcc66"/>
      <stop offset="1.0" stop-color="#ff3300"/>
    </radialGradient>
    <g id="shape2">
      <path d="M-60.75 -13.7 L-60.8 -13.75 -60.75 -13.75 -60.75 -13.7" fill="#fffbee" fill-rule="evenodd" stroke="none"/>
      <path d="M44.9 -44.7 L54.4 -54.0 Q59.1 -47.9 60.8 -39.35 L60.8 21.15 Q61.5 25.1 60.8 28.85 59.55 35.7 53.7 41.75 L44.0 51.25 43.75 51.1 Q35.65 56.15 34.3 44.25 L34.3 -8.65 34.3 -9.55 Q37.3 -32.7 44.9 -44.7" fill="#dcb87c" fill-rule="evenodd" stroke="none"/>
      <path d="M10.25 60.35 L9.7 60.75 -43.25 60.75 Q-60.45 59.5 -60.75 44.05 L-60.75 -13.7 -60.75 -13.75 Q-59.85 -34.0 -36.75 -33.9 L-37.2 -34.3 11.65 -34.3 12.1 -34.1 Q28.45 -26.9 34.3 -9.55 L34.3 -8.65 34.3 44.25 33.4 43.6 Q27.4 57.8 10.25 60.35" fill="#eed8aa" fill-rule="evenodd" stroke="none"/>
      <path d="M43.75 51.1 Q31.9 58.75 10.25 60.35 27.4 57.8 33.4 43.6 L34.3 44.25 Q35.65 56.15 43.75 51.1" fill="#be9756" fill-rule="evenodd" stroke="none"/>
      <path d="M-60.8 -13.75 Q-60.95 -34.85 -50.2 -44.95 L-49.65 -45.6 -40.15 -55.25 Q-34.75 -60.4 -16.7 -60.75 L36.8 -60.75 37.75 -60.75 Q52.2 -60.3 53.6 -53.9 L44.6 -44.75 34.3 -34.3 44.9 -44.7 Q37.3 -32.7 34.3 -9.55 28.45 -26.9 12.1 -34.1 L11.65 -34.3 -37.2 -34.3 -36.75 -33.9 Q-59.85 -34.0 -60.75 -13.75 L-60.8 -13.75" fill="#fcf5ed" fill-rule="evenodd" stroke="none"/>
      <path d="M44.6 -44.75 L44.9 -44.7" ffdec:has-small-stroke="true" ffdec:original-stroke-width="0.25" fill="none" stroke="#66ff00" stroke-linecap="round" stroke-linejoin="round" stroke-width="11.318881439904494"/>
      <path d="M-60.8 -13.75 Q-60.95 -34.85 -50.2 -44.95 L-49.65 -45.6 -40.15 -55.25 Q-34.75 -60.4 -16.7 -60.75 L36.8 -60.75 37.75 -60.75 Q52.2 -60.3 53.6 -53.9 M54.4 -54.0 Q59.1 -47.9 60.8 -39.35 L60.8 21.15 Q61.5 25.1 60.8 28.85 59.55 35.7 53.7 41.75 L44.0 51.25 43.75 51.1 Q31.9 58.75 10.25 60.35 L9.7 60.75 -43.25 60.75 Q-60.45 59.5 -60.75 44.05 L-60.75 -13.7 -60.75 -13.75 -60.8 -13.75" ffdec:has-small-stroke="true" ffdec:original-stroke-width="1.0" fill="none" stroke="#94723a" stroke-linecap="round" stroke-linejoin="round" stroke-width="11.318881439904494"/>
      <path d="M-40.2 41.65 Q-42.95 38.9 -42.95 34.95 -42.95 31.0 -40.2 28.2 -37.4 25.45 -33.45 25.45 -29.5 25.45 -26.75 28.2 -23.95 31.0 -23.95 34.95 -23.95 38.9 -26.75 41.65 -29.5 44.45 -33.45 44.45 -37.4 44.45 -40.2 41.65" fill="#000000" fill-rule="evenodd" stroke="none"/>
      <path d="M-5.8 -0.3 Q-3.0 2.5 -3.0 6.45 -3.0 10.4 -5.8 13.15 -8.55 15.95 -12.5 15.95 -16.45 15.95 -19.25 13.15 -22.0 10.4 -22.0 6.45 -22.0 2.5 -19.25 -0.3 -16.45 -3.05 -12.5 -3.05 -8.55 -3.05 -5.8 -0.3" fill="#000000" fill-rule="evenodd" stroke="none"/>
      <path d="M3.75 -7.85 Q1.0 -10.6 1.0 -14.55 1.0 -18.5 3.75 -21.3 6.55 -24.05 10.5 -24.05 14.45 -24.05 17.2 -21.3 20.0 -18.5 20.0 -14.55 20.0 -10.6 17.2 -7.85 14.45 -5.05 10.5 -5.05 6.55 -5.05 3.75 -7.85" fill="#000000" fill-rule="evenodd" stroke="none"/>
      <path d="M8.0 -50.05 Q8.0 -48.0 5.2 -46.55 2.45 -45.05 -1.5 -45.05 -5.45 -45.05 -8.25 -46.55 -11.0 -48.0 -11.0 -50.05 -11.0 -52.15 -8.25 -53.6 -5.45 -55.05 -1.5 -55.05 2.45 -55.05 5.2 -53.6 8.0 -52.15 8.0 -50.05" fill="#000000" fill-rule="evenodd" stroke="none"/>
      <path d="M40.65 28.35 Q39.55 25.6 39.55 21.65 39.55 17.7 40.65 14.9 41.8 12.15 43.35 12.15 44.95 12.15 46.05 14.9 47.15 17.7 47.15 21.65 47.15 25.6 46.05 28.35 44.95 31.15 43.35 31.15 41.8 31.15 40.65 28.35" fill="#000000" fill-rule="evenodd" stroke="none"/>
      <path d="M49.0 -13.6 Q50.15 -16.35 51.7 -16.35 53.3 -16.35 54.4 -13.6 55.5 -10.8 55.5 -6.85 55.5 -2.9 54.4 -0.15 53.3 2.65 51.7 2.65 50.15 2.65 49.0 -0.15 47.9 -2.9 47.9 -6.85 47.9 -10.8 49.0 -13.6" fill="#000000" fill-rule="evenodd" stroke="none"/>
    </g>
    <g id="shape3">
      <path d="M-60.75 -13.7 L-60.8 -13.75 -60.75 -13.75 -60.75 -13.7" fill="#fffbee" fill-rule="evenodd" stroke="none"/>
      <path d="M44.9 -44.7 L54.4 -54.0 Q59.1 -47.9 60.8 -39.35 L60.8 21.15 Q61.5 25.1 60.8 28.85 59.55 35.7 53.7 41.75 L44.0 51.25 43.75 51.1 Q35.65 56.15 34.3 44.25 L34.3 -8.65 34.3 -9.55 Q37.3 -32.7 44.9 -44.7" fill="#dcb87c" fill-rule="evenodd" stroke="none"/>
      <path d="M10.25 60.35 L9.7 60.75 -43.25 60.75 Q-60.45 59.5 -60.75 44.05 L-60.75 -13.7 -60.75 -13.75 Q-59.85 -34.0 -36.75 -33.9 L-37.2 -34.3 11.65 -34.3 12.1 -34.1 Q28.45 -26.9 34.3 -9.55 L34.3 -8.65 34.3 44.25 33.4 43.6 Q27.4 57.8 10.25 60.35" fill="#eed8aa" fill-rule="evenodd" stroke="none"/>
      <path d="M43.75 51.1 Q31.9 58.75 10.25 60.35 27.4 57.8 33.4 43.6 L34.3 44.25 Q35.65 56.15 43.75 51.1" fill="#be9756" fill-rule="evenodd" stroke="none"/>
      <path d="M-60.8 -13.75 Q-60.95 -34.85 -50.2 -44.95 L-49.65 -45.6 -40.15 -55.25 Q-34.75 -60.4 -16.7 -60.75 L36.8 -60.75 37.75 -60.75 Q52.2 -60.3 53.6 -53.9 L44.6 -44.75 34.3 -34.3 44.9 -44.7 Q37.3 -32.7 34.3 -9.55 28.45 -26.9 12.1 -34.1 L11.65 -34.3 -37.2 -34.3 -36.75 -33.9 Q-59.85 -34.0 -60.75 -13.75 L-60.8 -13.75" fill="#fcf5ed" fill-rule="evenodd" stroke="none"/>
      <path d="M44.6 -44.75 L44.9 -44.7" ffdec:has-small-stroke="true" ffdec:original-stroke-width="0.25" fill="none" stroke="#66ff00" stroke-linecap="round" stroke-linejoin="round" stroke-width="8.8559919082319"/>
      <path d="M-60.8 -13.75 Q-60.95 -34.85 -50.2 -44.95 L-49.65 -45.6 -40.15 -55.25 Q-34.75 -60.4 -16.7 -60.75 L36.8 -60.75 37.75 -60.75 Q52.2 -60.3 53.6 -53.9 M54.4 -54.0 Q59.1 -47.9 60.8 -39.35 L60.8 21.15 Q61.5 25.1 60.8 28.85 59.55 35.7 53.7 41.75 L44.0 51.25 43.75 51.1 Q31.9 58.75 10.25 60.35 L9.7 60.75 -43.25 60.75 Q-60.45 59.5 -60.75 44.05 L-60.75 -13.7 -60.75 -13.75 -60.8 -13.75" ffdec:has-small-stroke="true" ffdec:original-stroke-width="1.0" fill="none" stroke="#94723a" stroke-linecap="round" stroke-linejoin="round" stroke-width="8.8559919082319"/>
      <path d="M-40.2 41.65 Q-42.95 38.9 -42.95 34.95 -42.95 31.0 -40.2 28.2 -37.4 25.45 -33.45 25.45 -29.5 25.45 -26.75 28.2 -23.95 31.0 -23.95 34.95 -23.95 38.9 -26.75 41.65 -29.5 44.45 -33.45 44.45 -37.4 44.45 -40.2 41.65" fill="#000000" fill-rule="evenodd" stroke="none"/>
      <path d="M-5.8 -0.3 Q-3.0 2.5 -3.0 6.45 -3.0 10.4 -5.8 13.15 -8.55 15.95 -12.5 15.95 -16.45 15.95 -19.25 13.15 -22.0 10.4 -22.0 6.45 -22.0 2.5 -19.25 -0.3 -16.45 -3.05 -12.5 -3.05 -8.55 -3.05 -5.8 -0.3" fill="#000000" fill-rule="evenodd" stroke="none"/>
      <path d="M3.75 -7.85 Q1.0 -10.6 1.0 -14.55 1.0 -18.5 3.75 -21.3 6.55 -24.05 10.5 -24.05 14.45 -24.05 17.2 -21.3 20.0 -18.5 20.0 -14.55 20.0 -10.6 17.2 -7.85 14.45 -5.05 10.5 -5.05 6.55 -5.05 3.75 -7.85" fill="#000000" fill-rule="evenodd" stroke="none"/>
      <path d="M8.0 -50.05 Q8.0 -48.0 5.2 -46.55 2.45 -45.05 -1.5 -45.05 -5.45 -45.05 -8.25 -46.55 -11.0 -48.0 -11.0 -50.05 -11.0 -52.15 -8.25 -53.6 -5.45 -55.05 -1.5 -55.05 2.45 -55.05 5.2 -53.6 8.0 -52.15 8.0 -50.05" fill="#000000" fill-rule="evenodd" stroke="none"/>
      <path d="M40.65 28.35 Q39.55 25.6 39.55 21.65 39.55 17.7 40.65 14.9 41.8 12.15 43.35 12.15 44.95 12.15 46.05 14.9 47.15 17.7 47.15 21.65 47.15 25.6 46.05 28.35 44.95 31.15 43.35 31.15 41.8 31.15 40.65 28.35" fill="#000000" fill-rule="evenodd" stroke="none"/>
      <path d="M49.0 -13.6 Q50.15 -16.35 51.7 -16.35 53.3 -16.35 54.4 -13.6 55.5 -10.8 55.5 -6.85 55.5 -2.9 54.4 -0.15 53.3 2.65 51.7 2.65 50.15 2.65 49.0 -0.15 47.9 -2.9 47.9 -6.85 47.9 -10.8 49.0 -13.6" fill="#000000" fill-rule="evenodd" stroke="none"/>
    </g>
  </defs>
</svg>
