<?xml version="1.0" encoding="UTF-8" standalone="no"?>
<svg xmlns:ffdec="https://www.free-decompiler.com/flash" xmlns:xlink="http://www.w3.org/1999/xlink" ffdec:objectType="frame" height="22.45px" width="21.25px" xmlns="http://www.w3.org/2000/svg">
  <g transform="matrix(1.0, 0.0, 0.0, 1.0, 9.95, 10.25)">
    <use ffdec:characterId="187" height="55.55" transform="matrix(0.4, 0.0, 0.0, 0.4, 0.0, 0.0)" width="53.35" xlink:href="#sprite0"/>
    <use ffdec:characterId="231" height="40.35" transform="matrix(0.5258, 0.0, 0.0, -0.5257, -26.8, 26.95)" width="36.2" xlink:href="#shape2"/>
  </g>
  <defs>
    <g id="sprite0">
      <use ffdec:characterId="100" height="49.7" transform="matrix(1.0, 0.0, 0.0, 1.0, 1.0, 2.5)" width="49.7" xlink:href="#sprite1"/>
      <use ffdec:characterId="186" height="50.0" transform="matrix(1.0, 0.0, 0.0, 1.0, 0.0, 0.0)" width="50.0" xlink:href="#shape1"/>
    </g>
    <g id="sprite1">
      <use ffdec:characterId="99" height="49.7" transform="matrix(1.0, 0.0, 0.0, 1.0, 0.0, 0.0)" width="49.7" xlink:href="#shape0"/>
    </g>
    <g id="shape0">
      <path d="M20.05 -14.4 Q27.35 -7.1 27.35 3.2 27.35 13.5 20.05 20.75 12.8 28.05 2.5 28.05 -7.8 28.05 -15.1 20.75 -22.35 13.5 -22.35 3.2 -22.35 -7.1 -15.1 -14.4 -7.8 -21.65 2.5 -21.65 12.8 -21.65 20.05 -14.4" fill="#443c42" fill-opacity="0.7019608" fill-rule="evenodd" stroke="none"/>
    </g>
    <g id="shape1">
      <path d="M-0.05 0.0 L0.0 -0.05 0.0 0.0 -0.05 0.0" fill="#ff3300" fill-rule="evenodd" stroke="none"/>
      <path d="M0.0 0.0 L0.0 0.05 -0.05 0.0 0.0 0.0" fill="url(#gradient0)" fill-rule="evenodd" stroke="none"/>
      <path d="M13.2 -13.25 L13.25 -13.2 Q18.7 -7.75 18.7 0.0 18.7 7.75 13.25 13.25 L13.2 13.25 Q7.75 18.7 0.0 18.7 -7.8 18.7 -13.25 13.25 -18.7 7.75 -18.7 0.0 -18.7 -7.75 -13.25 -13.2 -7.8 -18.7 0.0 -18.7 7.75 -18.7 13.2 -13.25 M-0.05 0.0 L0.0 0.05 0.0 0.0 0.0 -0.05 -0.05 0.0" fill="url(#gradient1)" fill-rule="evenodd" stroke="none"/>
      <path d="M17.65 -17.7 L13.2 -13.25 Q7.75 -18.7 0.0 -18.7 L0.0 -25.0 Q10.35 -25.0 17.65 -17.7 M18.7 0.0 L25.0 0.0 Q25.0 10.35 17.7 17.7 L17.65 17.7 13.2 13.25 13.25 13.25 Q18.7 7.75 18.7 0.0 M0.0 25.0 Q-10.4 25.0 -17.7 17.7 L-13.25 13.25 Q-7.8 18.7 0.0 18.7 L0.0 25.0 M-25.0 0.0 Q-25.0 -10.35 -17.7 -17.65 L-13.25 -13.2 Q-18.7 -7.75 -18.7 0.0 L-25.0 0.0" fill="#ff4e12" fill-rule="evenodd" stroke="none"/>
      <path d="M17.65 -17.7 L17.7 -17.65 Q25.0 -10.35 25.0 0.0 L18.7 0.0 Q18.7 -7.75 13.25 -13.2 L13.2 -13.25 17.65 -17.7 M17.65 17.7 Q10.35 25.0 0.0 25.0 L0.0 18.7 Q7.75 18.7 13.2 13.25 L17.65 17.7 M-17.7 17.7 Q-25.0 10.35 -25.0 0.0 L-18.7 0.0 Q-18.7 7.75 -13.25 13.25 L-17.7 17.7 M-17.7 -17.65 Q-10.4 -25.0 0.0 -25.0 L0.0 -18.7 Q-7.8 -18.7 -13.25 -13.2 L-17.7 -17.65" fill="#ec3102" fill-rule="evenodd" stroke="none"/>
      <path d="M0.0 0.0 L-0.05 0.0" ffdec:has-small-stroke="true" ffdec:original-stroke-width="0.05" fill="none" stroke="#ff9900" stroke-linecap="round" stroke-linejoin="round" stroke-opacity="0.0" stroke-width="2.5000381475547417"/>
      <path d="M0.0 0.0 L0.0 0.05 -0.05 0.0 0.0 -0.05 0.0 0.0" ffdec:has-small-stroke="true" ffdec:original-stroke-width="0.05" fill="none" stroke="#541101" stroke-linecap="round" stroke-linejoin="round" stroke-width="2.5000381475547417"/>
      <path d="M25.0 0.0 Q25.0 -10.35 17.7 -17.65 L17.65 -17.7 13.2 -13.25 13.25 -13.2 Q18.7 -7.75 18.7 0.0 L25.0 0.0 Q25.0 10.35 17.7 17.7 L17.65 17.7 Q10.35 25.0 0.0 25.0 -10.4 25.0 -17.7 17.7 -25.0 10.35 -25.0 0.0 -25.0 -10.35 -17.7 -17.65 -10.4 -25.0 0.0 -25.0 10.35 -25.0 17.65 -17.7 M0.0 -18.7 Q7.75 -18.7 13.2 -13.25 M0.0 -25.0 L0.0 -18.7 Q-7.8 -18.7 -13.25 -13.2 -18.7 -7.75 -18.7 0.0 -18.7 7.75 -13.25 13.25 -7.8 18.7 0.0 18.7 7.75 18.7 13.2 13.25 L13.25 13.25 Q18.7 7.75 18.7 0.0 M13.2 13.25 L17.65 17.7 M0.0 25.0 L0.0 18.7 M-17.7 -17.65 L-13.25 -13.2 M-25.0 0.0 L-18.7 0.0 M-13.25 13.25 L-17.7 17.7" ffdec:has-small-stroke="true" ffdec:original-stroke-width="0.05" fill="none" stroke="#fcdc94" stroke-linecap="round" stroke-linejoin="round" stroke-opacity="0.972549" stroke-width="2.5000381475547417"/>
    </g>
    <radialGradient cx="0" cy="0" gradientTransform="matrix(1.0E-4, 0.0, 0.0, 1.0E-4, 0.0, 0.0)" gradientUnits="userSpaceOnUse" id="gradient0" r="819.2" spreadMethod="pad">
      <stop offset="0.0" stop-color="#ff0000"/>
      <stop offset="1.0" stop-color="#000000"/>
    </radialGradient>
    <radialGradient cx="0" cy="0" gradientTransform="matrix(0.0248, 0.0, 0.0, 0.0248, -0.7, 0.0)" gradientUnits="userSpaceOnUse" id="gradient1" r="819.2" spreadMethod="pad">
      <stop offset="0.5686274509803921" stop-color="#ffcc66"/>
      <stop offset="1.0" stop-color="#ff3300"/>
    </radialGradient>
    <g id="shape2">
      <path d="M43.55 46.25 L40.55 48.25 35.25 46.6 39.75 38.35 47.85 32.75 63.15 41.05 59.65 41.75 49.8 40.95 43.55 46.25" fill="#000000" fill-opacity="0.21176471" fill-rule="evenodd" stroke="none"/>
      <path d="M53.1 48.45 L62.2 49.9 51.95 58.4 40.7 56.6 42.15 55.35 50.95 48.1 53.1 48.45" fill="#985f01" fill-rule="evenodd" stroke="none"/>
      <path d="M50.95 44.05 L50.95 48.05 50.95 48.1 42.15 55.35 40.65 56.55 40.65 52.85 50.95 44.05" fill="#4f3100" fill-rule="evenodd" stroke="none"/>
      <path d="M50.95 39.65 L50.95 44.05 40.65 52.85 40.65 48.15 50.95 39.65" fill="#644300" fill-rule="evenodd" stroke="none"/>
      <path d="M50.95 39.65 L62.2 41.45 62.2 49.9 53.1 48.45 50.95 48.05 50.95 44.05 50.95 39.65" fill="#835201" fill-rule="evenodd" stroke="none"/>
      <path d="M62.2 49.9 L62.2 41.45 50.95 39.65 50.95 44.05 50.95 48.05 50.95 48.1 42.15 55.35 40.65 56.55 40.65 52.85 40.65 48.15 50.95 39.65 M62.2 49.9 L51.95 58.4 40.7 56.6 42.15 55.35" ffdec:has-small-stroke="true" ffdec:original-stroke-width="1.0" fill="none" stroke="#382301" stroke-linecap="round" stroke-linejoin="round" stroke-width="1.901909578280154"/>
      <path d="M49.3 47.75 L49.3 47.7 50.55 47.95 51.3 48.05 62.05 50.05 62.4 50.05 63.45 59.35 63.4 59.4 61.05 61.95 Q58.65 63.0 56.5 62.25 56.45 61.15 51.45 57.35 L51.4 57.3 51.35 57.3 Q52.2 52.3 49.3 47.75 L50.55 47.95 49.3 47.75 M53.35 52.35 Q54.05 54.85 53.9 57.45 57.7 63.45 61.95 58.7 L62.05 53.45 62.05 50.05 62.05 53.45 Q60.85 64.25 53.35 52.35 L52.5 50.2 51.55 48.45 52.5 50.2 53.35 52.35" fill="#835201" fill-rule="evenodd" stroke="none"/>
      <path d="M49.3 47.75 L49.25 47.7 49.3 47.7 49.3 47.75" fill="#644300" fill-rule="evenodd" stroke="none"/>
      <path d="M49.25 47.7 L49.3 47.75 Q52.2 52.3 51.35 57.3 L51.45 57.35 Q56.45 61.15 56.5 62.25 48.2 65.2 44.65 68.7 47.1 65.45 49.5 59.95 45.55 60.25 42.05 65.0 L40.35 66.35 40.3 66.35 38.9 63.3 38.0 57.45 37.5 56.95 37.45 56.9 49.25 47.7 M51.45 57.35 Q53.75 61.25 56.5 62.25 53.75 61.25 51.45 57.35 M43.55 69.65 L43.5 69.75 Q42.85 70.4 42.9 69.45 43.7 69.3 44.4 68.7 L43.55 69.65 M43.5 69.75 Q43.3 69.9 42.9 69.45 43.3 69.9 43.5 69.75" fill="#784b01" fill-rule="evenodd" stroke="none"/>
      <path d="M62.05 53.45 L61.95 58.7 Q57.7 63.45 53.9 57.45 54.05 54.85 53.35 52.35 60.85 64.25 62.05 53.45" fill="#3f2701" fill-rule="evenodd" stroke="none"/>
      <path d="M42.05 65.0 Q45.55 60.25 49.5 59.95 47.1 65.45 44.65 68.7 48.2 65.2 56.5 62.25 58.65 63.0 61.05 61.95 55.3 64.65 51.6 68.45 47.65 71.45 43.55 69.65 L44.4 68.7 Q43.7 69.3 42.9 69.45 41.6 68.35 40.35 66.4 L42.05 65.0 M51.45 57.35 L51.35 57.3 51.4 57.3 51.45 57.35" fill="#985f01" fill-rule="evenodd" stroke="none"/>
      <path d="M49.25 47.7 L49.3 47.75 49.3 47.7 49.25 47.7 37.45 56.9 37.5 56.95 38.0 57.45 38.9 63.3 40.3 66.35 40.35 66.35 M56.5 62.25 Q53.75 61.25 51.45 57.35 L51.4 57.3 51.35 57.3 Q52.2 52.3 49.3 47.75 L50.55 47.95 51.3 48.05 M62.05 53.45 L61.95 58.7 Q57.7 63.45 53.9 57.45 54.05 54.85 53.35 52.35 L52.5 50.2 51.55 48.45 M61.05 61.95 L63.4 59.4 63.45 59.35 62.4 50.05 M62.05 50.05 L62.05 53.45 M56.5 62.25 Q58.65 63.0 61.05 61.95 55.3 64.65 51.6 68.45 47.65 71.45 43.55 69.65 L43.5 69.75 Q43.3 69.9 42.9 69.45 41.6 68.35 40.35 66.4" ffdec:has-small-stroke="true" ffdec:original-stroke-width="1.0" fill="none" stroke="#382301" stroke-linecap="round" stroke-linejoin="round" stroke-width="1.901909578280154"/>
      <path d="M44.1 49.35 L45.8 47.95 47.35 51.9 45.65 53.25 45.4 52.6 45.35 52.55 44.1 49.35" fill="#fedc76" fill-rule="evenodd" stroke="none"/>
      <path d="M44.1 49.35 L45.8 47.95 47.35 51.9" ffdec:has-small-stroke="true" ffdec:original-stroke-width="1.5" fill="none" stroke="#2f2300" stroke-linecap="round" stroke-linejoin="round" stroke-width="1.901909578280154"/>
      <path d="M47.35 51.9 L45.65 53.25 45.4 52.6 45.35 52.55 44.1 49.35" ffdec:has-small-stroke="true" ffdec:original-stroke-width="1.0" fill="none" stroke="#ffffcc" stroke-linecap="round" stroke-linejoin="round" stroke-width="1.901909578280154"/>
      <path d="M42.25 55.65 L40.55 57.0 40.3 56.35 40.25 56.3 39.0 53.1 40.7 51.7 42.25 55.65" fill="#fedc76" fill-rule="evenodd" stroke="none"/>
      <path d="M42.25 55.65 L40.55 57.0 40.3 56.35 40.25 56.3 39.0 53.1" ffdec:has-small-stroke="true" ffdec:original-stroke-width="1.0" fill="none" stroke="#ffffcc" stroke-linecap="round" stroke-linejoin="round" stroke-width="1.901909578280154"/>
      <path d="M39.0 53.1 L40.7 51.7 42.25 55.65" ffdec:has-small-stroke="true" ffdec:original-stroke-width="1.5" fill="none" stroke="#2f2300" stroke-linecap="round" stroke-linejoin="round" stroke-width="1.901909578280154"/>
      <path d="M57.45 48.45 Q57.4 46.85 58.25 44.8 59.1 42.75 55.3 40.2 51.5 37.7 51.45 36.2 51.45 34.7 54.0 32.95 56.5 31.25 63.2 32.45 M69.95 39.8 L69.65 39.9 Q65.35 40.8 65.15 41.55 L62.1 48.95" fill="none" stroke="#5d3e00" stroke-linecap="round" stroke-linejoin="round" stroke-width="3.0"/>
      <path d="M59.4 48.45 L59.0 52.9 55.8 52.3 56.15 47.85 59.4 48.45" fill="#333333" fill-rule="evenodd" stroke="none"/>
      <path d="M59.4 48.45 L59.0 52.9 55.8 52.3 56.15 47.85 59.4 48.45 Z" fill="none" stroke="#333333" stroke-linecap="round" stroke-linejoin="round" stroke-width="2.0"/>
      <path d="M60.0 49.45 L59.6 53.9 56.35 53.25 56.8 48.85 60.0 49.45" fill="#835201" fill-rule="evenodd" stroke="none"/>
      <path d="M60.0 49.45 L59.6 53.9 56.35 53.25 56.8 48.85 60.0 49.45 Z" fill="none" stroke="#835201" stroke-linecap="round" stroke-linejoin="round" stroke-width="2.0"/>
      <path d="M56.5 48.05 Q56.45 46.4 57.3 44.35 58.15 42.3 54.35 39.75 50.5 37.25 50.5 35.75 50.45 34.25 53.05 32.5 55.55 30.8 62.25 32.0 M69.55 39.1 L69.3 39.15 Q64.95 40.05 64.75 40.8 L61.7 48.2" ffdec:has-small-stroke="true" ffdec:original-stroke-width="1.0" fill="none" stroke="#382301" stroke-linecap="round" stroke-linejoin="round" stroke-width="1.901909578280154"/>
    </g>
  </defs>
</svg>
