<?xml version="1.0" encoding="UTF-8" standalone="no"?>
<svg xmlns:ffdec="https://www.free-decompiler.com/flash" xmlns:xlink="http://www.w3.org/1999/xlink" ffdec:objectType="frame" height="24.35px" width="21.25px" xmlns="http://www.w3.org/2000/svg">
  <g transform="matrix(1.0, 0.0, 0.0, 1.0, 9.95, 12.15)">
    <use ffdec:characterId="187" height="55.55" transform="matrix(0.4, 0.0, 0.0, 0.4, 0.0, 0.0)" width="53.35" xlink:href="#sprite0"/>
    <use ffdec:characterId="224" height="21.85" transform="matrix(1.0, 0.0, 0.0, 1.0, 0.0, 0.0)" width="20.25" xlink:href="#shape2"/>
  </g>
  <defs>
    <g id="sprite0">
      <use ffdec:characterId="100" height="49.7" transform="matrix(1.0, 0.0, 0.0, 1.0, 1.0, 2.5)" width="49.7" xlink:href="#sprite1"/>
      <use ffdec:characterId="186" height="50.0" transform="matrix(1.0, 0.0, 0.0, 1.0, 0.0, 0.0)" width="50.0" xlink:href="#shape1"/>
    </g>
    <g id="sprite1">
      <use ffdec:characterId="99" height="49.7" transform="matrix(1.0, 0.0, 0.0, 1.0, 0.0, 0.0)" width="49.7" xlink:href="#shape0"/>
    </g>
    <g id="shape0">
      <path d="M20.05 -14.4 Q27.35 -7.1 27.35 3.2 27.35 13.5 20.05 20.75 12.8 28.05 2.5 28.05 -7.8 28.05 -15.1 20.75 -22.35 13.5 -22.35 3.2 -22.35 -7.1 -15.1 -14.4 -7.8 -21.65 2.5 -21.65 12.8 -21.65 20.05 -14.4" fill="#443c42" fill-opacity="0.7019608" fill-rule="evenodd" stroke="none"/>
    </g>
    <g id="shape1">
      <path d="M-0.05 0.0 L0.0 -0.05 0.0 0.0 -0.05 0.0" fill="#ff3300" fill-rule="evenodd" stroke="none"/>
      <path d="M0.0 0.0 L0.0 0.05 -0.05 0.0 0.0 0.0" fill="url(#gradient0)" fill-rule="evenodd" stroke="none"/>
      <path d="M13.2 -13.25 L13.25 -13.2 Q18.7 -7.75 18.7 0.0 18.7 7.75 13.25 13.25 L13.2 13.25 Q7.75 18.7 0.0 18.7 -7.8 18.7 -13.25 13.25 -18.7 7.75 -18.7 0.0 -18.7 -7.75 -13.25 -13.2 -7.8 -18.7 0.0 -18.7 7.75 -18.7 13.2 -13.25 M-0.05 0.0 L0.0 0.05 0.0 0.0 0.0 -0.05 -0.05 0.0" fill="url(#gradient1)" fill-rule="evenodd" stroke="none"/>
      <path d="M17.65 -17.7 L13.2 -13.25 Q7.75 -18.7 0.0 -18.7 L0.0 -25.0 Q10.35 -25.0 17.65 -17.7 M18.7 0.0 L25.0 0.0 Q25.0 10.35 17.7 17.7 L17.65 17.7 13.2 13.25 13.25 13.25 Q18.7 7.75 18.7 0.0 M0.0 25.0 Q-10.4 25.0 -17.7 17.7 L-13.25 13.25 Q-7.8 18.7 0.0 18.7 L0.0 25.0 M-25.0 0.0 Q-25.0 -10.35 -17.7 -17.65 L-13.25 -13.2 Q-18.7 -7.75 -18.7 0.0 L-25.0 0.0" fill="#ff4e12" fill-rule="evenodd" stroke="none"/>
      <path d="M17.65 -17.7 L17.7 -17.65 Q25.0 -10.35 25.0 0.0 L18.7 0.0 Q18.7 -7.75 13.25 -13.2 L13.2 -13.25 17.65 -17.7 M17.65 17.7 Q10.35 25.0 0.0 25.0 L0.0 18.7 Q7.75 18.7 13.2 13.25 L17.65 17.7 M-17.7 17.7 Q-25.0 10.35 -25.0 0.0 L-18.7 0.0 Q-18.7 7.75 -13.25 13.25 L-17.7 17.7 M-17.7 -17.65 Q-10.4 -25.0 0.0 -25.0 L0.0 -18.7 Q-7.8 -18.7 -13.25 -13.2 L-17.7 -17.65" fill="#ec3102" fill-rule="evenodd" stroke="none"/>
      <path d="M0.0 0.0 L-0.05 0.0" ffdec:has-small-stroke="true" ffdec:original-stroke-width="0.05" fill="none" stroke="#ff9900" stroke-linecap="round" stroke-linejoin="round" stroke-opacity="0.0" stroke-width="2.5000381475547417"/>
      <path d="M0.0 0.0 L0.0 0.05 -0.05 0.0 0.0 -0.05 0.0 0.0" ffdec:has-small-stroke="true" ffdec:original-stroke-width="0.05" fill="none" stroke="#541101" stroke-linecap="round" stroke-linejoin="round" stroke-width="2.5000381475547417"/>
      <path d="M25.0 0.0 Q25.0 -10.35 17.7 -17.65 L17.65 -17.7 13.2 -13.25 13.25 -13.2 Q18.7 -7.75 18.7 0.0 L25.0 0.0 Q25.0 10.35 17.7 17.7 L17.65 17.7 Q10.35 25.0 0.0 25.0 -10.4 25.0 -17.7 17.7 -25.0 10.35 -25.0 0.0 -25.0 -10.35 -17.7 -17.65 -10.4 -25.0 0.0 -25.0 10.35 -25.0 17.65 -17.7 M0.0 -18.7 Q7.75 -18.7 13.2 -13.25 M0.0 -25.0 L0.0 -18.7 Q-7.8 -18.7 -13.25 -13.2 -18.7 -7.75 -18.7 0.0 -18.7 7.75 -13.25 13.25 -7.8 18.7 0.0 18.7 7.75 18.7 13.2 13.25 L13.25 13.25 Q18.7 7.75 18.7 0.0 M13.2 13.25 L17.65 17.7 M0.0 25.0 L0.0 18.7 M-17.7 -17.65 L-13.25 -13.2 M-25.0 0.0 L-18.7 0.0 M-13.25 13.25 L-17.7 17.7" ffdec:has-small-stroke="true" ffdec:original-stroke-width="0.05" fill="none" stroke="#fcdc94" stroke-linecap="round" stroke-linejoin="round" stroke-opacity="0.972549" stroke-width="2.5000381475547417"/>
    </g>
    <radialGradient cx="0" cy="0" gradientTransform="matrix(1.0E-4, 0.0, 0.0, 1.0E-4, 0.0, 0.0)" gradientUnits="userSpaceOnUse" id="gradient0" r="819.2" spreadMethod="pad">
      <stop offset="0.0" stop-color="#ff0000"/>
      <stop offset="1.0" stop-color="#000000"/>
    </radialGradient>
    <radialGradient cx="0" cy="0" gradientTransform="matrix(0.0248, 0.0, 0.0, 0.0248, -0.7, 0.0)" gradientUnits="userSpaceOnUse" id="gradient1" r="819.2" spreadMethod="pad">
      <stop offset="0.5686274509803921" stop-color="#ffcc66"/>
      <stop offset="1.0" stop-color="#ff3300"/>
    </radialGradient>
    <g id="shape2">
      <path d="M10.3 -8.85 L10.3 -5.45 9.35 -4.6 8.55 -5.1 8.8 -4.05 8.45 -3.75 8.1 -4.0 8.1 -3.5 2.45 1.65 1.65 2.1 1.6 2.1 1.65 2.35 -0.3 4.15 -0.35 5.45 -1.75 4.0 0.55 0.95 -2.25 3.55 -2.65 3.15 10.3 -8.85" fill="#8996ab" fill-rule="evenodd" stroke="none"/>
      <path d="M10.35 -11.85 L10.35 -11.65 10.3 -8.85 -2.65 3.15 -3.05 2.75 0.2 -0.35 Q-1.5 1.15 -3.55 2.25 L-4.3 1.45 -2.85 0.75 10.35 -11.85" fill="#c9cccf" fill-rule="evenodd" stroke="none"/>
      <path d="M-4.65 1.05 L-3.35 0.8 10.35 -12.15 10.35 -12.1 10.35 -11.85 -2.85 0.75 -4.3 1.45 -4.65 1.05" fill="#ffffff" fill-rule="evenodd" stroke="none"/>
      <path d="M-0.35 5.45 L0.5 6.4 -0.1 7.05 -2.35 4.7 -4.35 2.5 -6.35 0.55 -5.75 0.0 -4.65 1.05 -4.3 1.45 -3.55 2.25 Q-1.5 1.15 0.2 -0.35 L-3.05 2.75 -2.65 3.15 -2.25 3.55 0.55 0.95 -1.75 4.0 -0.35 5.45 M-3.2 5.0 L-3.55 5.3 -3.6 5.35 -3.6 5.3 -3.55 5.3 -3.65 5.25 -3.7 5.2 -4.15 4.75 -4.2 4.7 -4.85 4.05 -5.0 3.85 -4.65 3.5 -3.2 5.0 M-9.3 9.5 L-9.7 9.15 Q-10.05 8.75 -9.7 7.95 L-8.8 7.1 -8.5 7.5 -7.7 8.4 -7.7 8.45 -8.55 9.25 -9.3 9.5" fill="#495e76" fill-rule="evenodd" stroke="none"/>
      <path d="M-8.2 7.2 L-7.65 6.65 -7.65 6.7 -7.25 7.75 -7.8 8.25 -8.2 7.2 -7.65 6.7 -8.2 7.2 M-7.15 6.2 L-6.6 5.7 -6.6 5.75 -6.25 6.7 -6.75 7.2 -7.15 6.2 -6.6 5.75 -7.15 6.2 M-6.1 5.15 L-5.55 4.7 -5.15 5.7 -5.65 6.25 -6.1 5.2 -6.1 5.15 M-5.0 4.25 L-4.85 4.05 -4.2 4.7 -4.2 4.75 -4.65 5.25 -5.0 4.25 M-6.1 5.2 L-5.55 4.7 -6.1 5.2" fill="#6b5a38" fill-rule="evenodd" stroke="none"/>
      <path d="M-4.2 4.7 L-4.15 4.75 -4.2 4.75 -4.2 4.7" fill="#b69f74" fill-rule="evenodd" stroke="none"/>
      <path d="M-3.7 5.2 L-3.9 5.4 -4.2 4.75 -4.15 4.75 -3.7 5.2 M-4.45 5.85 L-4.7 6.15 -4.9 6.3 -5.15 5.7 -4.65 5.25 -4.45 5.85 M-5.45 6.8 L-6.05 7.3 -6.25 6.7 -5.65 6.25 -5.45 6.8 M-6.5 7.75 L-6.8 8.0 -7.05 8.2 -7.25 7.75 -6.75 7.2 -6.5 7.75" fill="#856a3f" fill-rule="evenodd" stroke="none"/>
      <path d="M-3.9 5.4 L-4.45 5.85 -4.65 5.25 -4.2 4.75 -3.9 5.4 M-5.05 6.45 L-5.45 6.8 -5.65 6.25 -5.15 5.7 -4.9 6.3 -5.05 6.45 M-6.05 7.3 L-6.5 7.75 -6.75 7.2 -6.25 6.7 -6.05 7.3 M-7.25 8.45 L-7.55 8.65 -7.7 8.45 -7.7 8.4 -7.8 8.25 -7.25 7.75 -7.05 8.2 -7.25 8.45" fill="#3a301f" fill-rule="evenodd" stroke="none"/>
      <path d="M-8.5 7.5 L-8.2 7.2 -7.8 8.25 -7.7 8.4 -8.5 7.5 M-7.65 6.65 L-7.15 6.2 -6.75 7.2 -7.25 7.75 -7.65 6.7 -7.65 6.65 M-6.6 5.7 L-6.1 5.15 -6.1 5.2 -6.6 5.75 -6.1 5.2 -5.65 6.25 -6.25 6.7 -6.6 5.75 -6.6 5.7 M-5.55 4.7 L-5.35 4.5 -5.15 4.35 -5.0 4.25 -4.65 5.25 -5.15 5.7 -5.55 4.7 M-5.1 4.35 L-5.1 4.4 -5.05 4.4 -5.1 4.35 M-6.3 6.1 L-6.3 6.15 -6.25 6.1 -6.3 6.1 M-7.15 6.2 L-7.65 6.7 -7.15 6.2" fill="#daac50" fill-rule="evenodd" stroke="none"/>
      <path d="M-2.35 4.7 L-3.2 5.0 -4.65 3.5 -4.35 2.5 -2.35 4.7 M-7.55 8.65 L-7.3 8.9 -8.1 9.7 -9.3 9.5 -8.55 9.25 -7.7 8.45 -7.55 8.65" fill="#293541" fill-rule="evenodd" stroke="none"/>
      <path d="M-5.1 4.35 L-5.05 4.4 -5.1 4.4 -5.1 4.35 M-6.3 6.1 L-6.25 6.1 -6.3 6.15 -6.3 6.1" fill="#a85830" fill-rule="evenodd" stroke="none"/>
      <path d="M-4.3 6.5 L-4.3 6.6 -4.35 6.5 -4.3 6.5" fill="#3a3673" fill-rule="evenodd" stroke="none"/>
      <path d="M-3.95 6.25 L-4.0 6.25 -3.95 6.2 -3.95 6.25" fill="#bababa" fill-rule="evenodd" stroke="none"/>
      <path d="M10.3 -8.85 L10.3 -5.45 9.35 -4.6 8.55 -5.1 M8.8 -4.05 L8.45 -3.75 M8.1 -3.5 L2.45 1.65 M1.6 2.1 L1.65 2.35 -0.3 4.15 -0.35 5.45 M-2.35 4.7 L-3.2 5.0 -3.55 5.3 -3.65 5.25 -3.7 5.2 -4.15 4.75 -4.2 4.7 -4.85 4.05 -5.0 3.85 -4.65 3.5 -4.35 2.5 -6.35 0.55 -5.75 0.0 -4.65 1.05 -3.35 0.8 10.35 -12.15 10.35 -12.1 M-3.6 5.3 L-3.65 5.25 M-3.9 5.4 L-4.45 5.85 -4.7 6.15 -5.05 6.45 -5.45 6.8 -6.05 7.3 -6.5 7.75 -6.8 8.0 -7.25 8.45 -7.55 8.65 -7.3 8.9 -8.1 9.7 -9.3 9.5 -9.7 9.15 Q-10.05 8.75 -9.7 7.95 L-8.8 7.1 -8.5 7.5 -8.2 7.2 -7.65 6.7 -7.15 6.2 -6.6 5.75 -6.1 5.2 -5.55 4.7 -5.35 4.5 -5.15 4.35 -4.85 4.05 M10.35 -11.65 L10.3 -8.85 M-4.65 3.5 L-3.2 5.0 M-4.35 2.5 L-2.35 4.7" ffdec:has-small-stroke="true" ffdec:original-stroke-width="0.05" fill="none" stroke="#505050" stroke-linecap="round" stroke-linejoin="round" stroke-width="1.0"/>
      <path d="M10.3 -8.85 L-2.65 3.15" ffdec:has-small-stroke="true" ffdec:original-stroke-width="0.05" fill="none" stroke="#929292" stroke-linecap="round" stroke-linejoin="round" stroke-width="1.0"/>
    </g>
  </defs>
</svg>
