<?xml version="1.0" encoding="UTF-8" standalone="no"?>
<svg xmlns:ffdec="https://www.free-decompiler.com/flash" xmlns:xlink="http://www.w3.org/1999/xlink" ffdec:objectType="frame" height="27.85px" width="21.25px" xmlns="http://www.w3.org/2000/svg">
  <g transform="matrix(1.0, 0.0, 0.0, 1.0, 9.95, 15.65)">
    <use ffdec:characterId="187" height="55.55" transform="matrix(0.4, 0.0, 0.0, 0.4, 0.0, 0.0)" width="53.35" xlink:href="#sprite0"/>
    <use ffdec:characterId="222" height="225.55" transform="matrix(0.1034, 0.0, 0.0, 0.1034, 0.05, -2.05)" width="75.3" xlink:href="#shape2"/>
    <use ffdec:characterId="222" height="225.55" transform="matrix(-0.1034, 0.0, 0.0, 0.1034, 0.05, -2.05)" width="75.3" xlink:href="#shape3"/>
  </g>
  <defs>
    <g id="sprite0">
      <use ffdec:characterId="100" height="49.7" transform="matrix(1.0, 0.0, 0.0, 1.0, 1.0, 2.5)" width="49.7" xlink:href="#sprite1"/>
      <use ffdec:characterId="186" height="50.0" transform="matrix(1.0, 0.0, 0.0, 1.0, 0.0, 0.0)" width="50.0" xlink:href="#shape1"/>
    </g>
    <g id="sprite1">
      <use ffdec:characterId="99" height="49.7" transform="matrix(1.0, 0.0, 0.0, 1.0, 0.0, 0.0)" width="49.7" xlink:href="#shape0"/>
    </g>
    <g id="shape0">
      <path d="M20.05 -14.4 Q27.35 -7.1 27.35 3.2 27.35 13.5 20.05 20.75 12.8 28.05 2.5 28.05 -7.8 28.05 -15.1 20.75 -22.35 13.5 -22.35 3.2 -22.35 -7.1 -15.1 -14.4 -7.8 -21.65 2.5 -21.65 12.8 -21.65 20.05 -14.4" fill="#443c42" fill-opacity="0.7019608" fill-rule="evenodd" stroke="none"/>
    </g>
    <g id="shape1">
      <path d="M-0.05 0.0 L0.0 -0.05 0.0 0.0 -0.05 0.0" fill="#ff3300" fill-rule="evenodd" stroke="none"/>
      <path d="M0.0 0.0 L0.0 0.05 -0.05 0.0 0.0 0.0" fill="url(#gradient0)" fill-rule="evenodd" stroke="none"/>
      <path d="M13.2 -13.25 L13.25 -13.2 Q18.7 -7.75 18.7 0.0 18.7 7.75 13.25 13.25 L13.2 13.25 Q7.75 18.7 0.0 18.7 -7.8 18.7 -13.25 13.25 -18.7 7.75 -18.7 0.0 -18.7 -7.75 -13.25 -13.2 -7.8 -18.7 0.0 -18.7 7.75 -18.7 13.2 -13.25 M-0.05 0.0 L0.0 0.05 0.0 0.0 0.0 -0.05 -0.05 0.0" fill="url(#gradient1)" fill-rule="evenodd" stroke="none"/>
      <path d="M17.65 -17.7 L13.2 -13.25 Q7.75 -18.7 0.0 -18.7 L0.0 -25.0 Q10.35 -25.0 17.65 -17.7 M18.7 0.0 L25.0 0.0 Q25.0 10.35 17.7 17.7 L17.65 17.7 13.2 13.25 13.25 13.25 Q18.7 7.75 18.7 0.0 M0.0 25.0 Q-10.4 25.0 -17.7 17.7 L-13.25 13.25 Q-7.8 18.7 0.0 18.7 L0.0 25.0 M-25.0 0.0 Q-25.0 -10.35 -17.7 -17.65 L-13.25 -13.2 Q-18.7 -7.75 -18.7 0.0 L-25.0 0.0" fill="#ff4e12" fill-rule="evenodd" stroke="none"/>
      <path d="M17.65 -17.7 L17.7 -17.65 Q25.0 -10.35 25.0 0.0 L18.7 0.0 Q18.7 -7.75 13.25 -13.2 L13.2 -13.25 17.65 -17.7 M17.65 17.7 Q10.35 25.0 0.0 25.0 L0.0 18.7 Q7.75 18.7 13.2 13.25 L17.65 17.7 M-17.7 17.7 Q-25.0 10.35 -25.0 0.0 L-18.7 0.0 Q-18.7 7.75 -13.25 13.25 L-17.7 17.7 M-17.7 -17.65 Q-10.4 -25.0 0.0 -25.0 L0.0 -18.7 Q-7.8 -18.7 -13.25 -13.2 L-17.7 -17.65" fill="#ec3102" fill-rule="evenodd" stroke="none"/>
      <path d="M0.0 0.0 L-0.05 0.0" ffdec:has-small-stroke="true" ffdec:original-stroke-width="0.05" fill="none" stroke="#ff9900" stroke-linecap="round" stroke-linejoin="round" stroke-opacity="0.0" stroke-width="2.5000381475547417"/>
      <path d="M0.0 0.0 L0.0 0.05 -0.05 0.0 0.0 -0.05 0.0 0.0" ffdec:has-small-stroke="true" ffdec:original-stroke-width="0.05" fill="none" stroke="#541101" stroke-linecap="round" stroke-linejoin="round" stroke-width="2.5000381475547417"/>
      <path d="M25.0 0.0 Q25.0 -10.35 17.7 -17.65 L17.65 -17.7 13.2 -13.25 13.25 -13.2 Q18.7 -7.75 18.7 0.0 L25.0 0.0 Q25.0 10.35 17.7 17.7 L17.65 17.7 Q10.35 25.0 0.0 25.0 -10.4 25.0 -17.7 17.7 -25.0 10.35 -25.0 0.0 -25.0 -10.35 -17.7 -17.65 -10.4 -25.0 0.0 -25.0 10.35 -25.0 17.65 -17.7 M0.0 -18.7 Q7.75 -18.7 13.2 -13.25 M0.0 -25.0 L0.0 -18.7 Q-7.8 -18.7 -13.25 -13.2 -18.7 -7.75 -18.7 0.0 -18.7 7.75 -13.25 13.25 -7.8 18.7 0.0 18.7 7.75 18.7 13.2 13.25 L13.25 13.25 Q18.7 7.75 18.7 0.0 M13.2 13.25 L17.65 17.7 M0.0 25.0 L0.0 18.7 M-17.7 -17.65 L-13.25 -13.2 M-25.0 0.0 L-18.7 0.0 M-13.25 13.25 L-17.7 17.7" ffdec:has-small-stroke="true" ffdec:original-stroke-width="0.05" fill="none" stroke="#fcdc94" stroke-linecap="round" stroke-linejoin="round" stroke-opacity="0.972549" stroke-width="2.5000381475547417"/>
    </g>
    <radialGradient cx="0" cy="0" gradientTransform="matrix(1.0E-4, 0.0, 0.0, 1.0E-4, 0.0, 0.0)" gradientUnits="userSpaceOnUse" id="gradient0" r="819.2" spreadMethod="pad">
      <stop offset="0.0" stop-color="#ff0000"/>
      <stop offset="1.0" stop-color="#000000"/>
    </radialGradient>
    <radialGradient cx="0" cy="0" gradientTransform="matrix(0.0248, 0.0, 0.0, 0.0248, -0.7, 0.0)" gradientUnits="userSpaceOnUse" id="gradient1" r="819.2" spreadMethod="pad">
      <stop offset="0.5686274509803921" stop-color="#ffcc66"/>
      <stop offset="1.0" stop-color="#ff3300"/>
    </radialGradient>
    <g id="shape2">
      <path d="M-12.3 -54.45 Q1.7 -55.0 2.1 -57.1 L2.1 84.05 0.1 84.05 Q-29.25 84.05 -52.15 63.1 -75.1 42.15 -73.0 13.05 -70.9 -16.1 -49.0 -34.95 -27.15 -53.85 -12.3 -54.45" fill="#000000" fill-rule="evenodd" stroke="none"/>
      <path d="M-48.05 -48.55 Q-46.85 -49.95 -46.1 -51.4 -44.4 -51.25 -43.4 -50.2 -42.65 -49.35 -42.55 -48.2 L-42.7 -47.0 -43.2 -45.55 -43.25 -45.45 Q-44.65 -42.5 -48.1 -39.95 -51.6 -37.4 -55.15 -36.8 L-58.0 -36.7 -58.95 -36.9 -60.3 -37.85 Q-61.9 -39.55 -60.55 -42.55 L-60.45 -42.75 -57.9 -42.9 Q-54.7 -43.45 -51.55 -45.6 L-50.85 -46.05 -50.65 -46.2 Q-49.35 -47.2 -48.35 -48.25 L-48.05 -48.55 M-50.8 -30.1 Q-47.0 -31.3 -43.65 -34.8 -40.2 -38.4 -39.2 -42.3 L-38.9 -44.2 Q-37.2 -44.1 -36.05 -43.0 -34.0 -41.1 -35.0 -37.2 -35.95 -33.3 -39.4 -29.65 -42.85 -26.1 -46.75 -24.95 -50.65 -23.75 -52.75 -25.7 -54.25 -27.1 -54.15 -29.55 L-51.2 -29.95 -50.95 -30.05 -50.8 -30.1 M-70.2 86.5 Q-70.55 81.85 -64.9 76.85 -58.35 70.95 -47.65 68.0 L-45.0 67.3 Q-38.6 72.05 -35.75 76.8 -60.55 97.6 -70.2 86.5" fill="#ffcc00" fill-rule="evenodd" stroke="none"/>
      <path d="M-23.5 42.35 Q-30.45 42.35 -35.4 37.4 -40.35 32.45 -40.35 25.5 -40.35 18.55 -35.4 13.6 L-34.05 12.4 -7.05 21.7 Q-6.65 23.5 -6.65 25.5 -6.65 32.45 -11.6 37.4 -16.55 42.35 -23.5 42.35 M-20.2 69.4 L-22.25 65.7 -26.1 56.0 Q-19.8 60.35 -13.5 59.55 L-15.65 71.05 -16.1 72.15 -20.2 69.4" fill="#ffffcc" fill-rule="evenodd" stroke="none"/>
      <path d="M0.0 -131.1 L0.45 -130.95 0.0 -103.45 1.95 -103.7 1.95 -36.3 -4.8 -36.3 Q-3.25 -53.05 -3.05 -69.55 L-3.2 -69.55 Q-3.6 -82.1 -4.8 -94.5 L-21.65 -85.55 0.0 -131.1 M-51.55 -45.6 Q-54.1 -43.95 -56.6 -43.5 L-58.75 -43.4 -59.05 -43.45 -59.8 -43.65 -61.0 -44.4 Q-62.3 -45.85 -61.6 -50.55 -60.9 -55.3 -58.3 -59.4 -55.75 -63.5 -51.9 -59.9 L-46.65 -54.85 Q-45.7 -53.85 -46.05 -52.15 L-46.5 -50.95 -46.55 -50.85 -46.6 -50.75 Q-47.15 -49.6 -48.05 -48.55 L-48.35 -48.25 Q-49.35 -47.2 -50.65 -46.2 L-50.85 -46.05 -51.55 -45.6 M-42.55 -48.2 Q-41.7 -47.95 -41.0 -47.3 -39.55 -45.95 -39.65 -43.55 L-39.95 -41.7 Q-40.9 -38.0 -44.2 -34.5 -47.3 -31.3 -50.8 -30.1 L-50.95 -30.05 -51.2 -29.95 -54.15 -29.55 -54.25 -29.55 Q-55.85 -29.7 -56.95 -30.7 -58.95 -32.6 -58.0 -36.3 L-58.0 -36.4 -56.95 -36.2 -53.9 -36.6 Q-50.85 -37.5 -48.1 -39.95 -44.65 -42.5 -43.25 -45.45 L-43.2 -45.55 -42.7 -47.0 -42.55 -48.2 M-45.0 67.3 Q-35.8 65.2 -28.25 66.6 L-27.4 66.8 -22.5 70.1 -22.0 68.8 -20.95 69.5 -20.65 70.05 -19.7 70.7 Q-18.6 71.95 -18.15 73.55 -16.7 78.85 -23.65 82.2 L-33.85 86.9 -41.1 90.05 Q-51.6 94.5 -60.05 93.9 -68.5 93.25 -69.95 88.0 L-70.2 86.5 Q-60.55 97.6 -35.75 76.8 -38.6 72.05 -45.0 67.3" fill="#000000" fill-rule="evenodd" stroke="none"/>
      <path d="M-3.05 -69.55 L-3.2 -69.55 M-21.65 -85.55 L0.0 -131.1" ffdec:has-small-stroke="true" ffdec:original-stroke-width="1.0" fill="none" stroke="#cecce1" stroke-linecap="round" stroke-linejoin="round" stroke-width="9.668215708237554"/>
      <path d="M-25.15 23.0 Q-25.15 19.35 -22.55 16.75 -19.95 14.15 -16.3 14.15 -12.65 14.15 -10.05 16.75 -7.45 19.35 -7.45 23.0 -7.45 26.65 -10.05 29.25 -12.65 31.85 -16.3 31.85 -19.95 31.85 -22.55 29.25 -25.15 26.65 -25.15 23.0" fill="#000000" fill-rule="evenodd" stroke="none"/>
    </g>
    <g id="shape3">
      <path d="M-12.3 -54.45 Q1.7 -55.0 2.1 -57.1 L2.1 84.05 0.1 84.05 Q-29.25 84.05 -52.15 63.1 -75.1 42.15 -73.0 13.05 -70.9 -16.1 -49.0 -34.95 -27.15 -53.85 -12.3 -54.45" fill="#000000" fill-rule="evenodd" stroke="none"/>
      <path d="M-48.05 -48.55 Q-46.85 -49.95 -46.1 -51.4 -44.4 -51.25 -43.4 -50.2 -42.65 -49.35 -42.55 -48.2 L-42.7 -47.0 -43.2 -45.55 -43.25 -45.45 Q-44.65 -42.5 -48.1 -39.95 -51.6 -37.4 -55.15 -36.8 L-58.0 -36.7 -58.95 -36.9 -60.3 -37.85 Q-61.9 -39.55 -60.55 -42.55 L-60.45 -42.75 -57.9 -42.9 Q-54.7 -43.45 -51.55 -45.6 L-50.85 -46.05 -50.65 -46.2 Q-49.35 -47.2 -48.35 -48.25 L-48.05 -48.55 M-50.8 -30.1 Q-47.0 -31.3 -43.65 -34.8 -40.2 -38.4 -39.2 -42.3 L-38.9 -44.2 Q-37.2 -44.1 -36.05 -43.0 -34.0 -41.1 -35.0 -37.2 -35.95 -33.3 -39.4 -29.65 -42.85 -26.1 -46.75 -24.95 -50.65 -23.75 -52.75 -25.7 -54.25 -27.1 -54.15 -29.55 L-51.2 -29.95 -50.95 -30.05 -50.8 -30.1 M-70.2 86.5 Q-70.55 81.85 -64.9 76.85 -58.35 70.95 -47.65 68.0 L-45.0 67.3 Q-38.6 72.05 -35.75 76.8 -60.55 97.6 -70.2 86.5" fill="#ffcc00" fill-rule="evenodd" stroke="none"/>
      <path d="M-23.5 42.35 Q-30.45 42.35 -35.4 37.4 -40.35 32.45 -40.35 25.5 -40.35 18.55 -35.4 13.6 L-34.05 12.4 -7.05 21.7 Q-6.65 23.5 -6.65 25.5 -6.65 32.45 -11.6 37.4 -16.55 42.35 -23.5 42.35 M-20.2 69.4 L-22.25 65.7 -26.1 56.0 Q-19.8 60.35 -13.5 59.55 L-15.65 71.05 -16.1 72.15 -20.2 69.4" fill="#ffffcc" fill-rule="evenodd" stroke="none"/>
      <path d="M0.0 -131.1 L0.45 -130.95 0.0 -103.45 1.95 -103.7 1.95 -36.3 -4.8 -36.3 Q-3.25 -53.05 -3.05 -69.55 L-3.2 -69.55 Q-3.6 -82.1 -4.8 -94.5 L-21.65 -85.55 0.0 -131.1 M-51.55 -45.6 Q-54.1 -43.95 -56.6 -43.5 L-58.75 -43.4 -59.05 -43.45 -59.8 -43.65 -61.0 -44.4 Q-62.3 -45.85 -61.6 -50.55 -60.9 -55.3 -58.3 -59.4 -55.75 -63.5 -51.9 -59.9 L-46.65 -54.85 Q-45.7 -53.85 -46.05 -52.15 L-46.5 -50.95 -46.55 -50.85 -46.6 -50.75 Q-47.15 -49.6 -48.05 -48.55 L-48.35 -48.25 Q-49.35 -47.2 -50.65 -46.2 L-50.85 -46.05 -51.55 -45.6 M-42.55 -48.2 Q-41.7 -47.95 -41.0 -47.3 -39.55 -45.95 -39.65 -43.55 L-39.95 -41.7 Q-40.9 -38.0 -44.2 -34.5 -47.3 -31.3 -50.8 -30.1 L-50.95 -30.05 -51.2 -29.95 -54.15 -29.55 -54.25 -29.55 Q-55.85 -29.7 -56.95 -30.7 -58.95 -32.6 -58.0 -36.3 L-58.0 -36.4 -56.95 -36.2 -53.9 -36.6 Q-50.85 -37.5 -48.1 -39.95 -44.65 -42.5 -43.25 -45.45 L-43.2 -45.55 -42.7 -47.0 -42.55 -48.2 M-45.0 67.3 Q-35.8 65.2 -28.25 66.6 L-27.4 66.8 -22.5 70.1 -22.0 68.8 -20.95 69.5 -20.65 70.05 -19.7 70.7 Q-18.6 71.95 -18.15 73.55 -16.7 78.85 -23.65 82.2 L-33.85 86.9 -41.1 90.05 Q-51.6 94.5 -60.05 93.9 -68.5 93.25 -69.95 88.0 L-70.2 86.5 Q-60.55 97.6 -35.75 76.8 -38.6 72.05 -45.0 67.3" fill="#000000" fill-rule="evenodd" stroke="none"/>
      <path d="M-3.05 -69.55 L-3.2 -69.55 M-21.65 -85.55 L0.0 -131.1" ffdec:has-small-stroke="true" ffdec:original-stroke-width="1.0" fill="none" stroke="#cecce1" stroke-linecap="round" stroke-linejoin="round" stroke-width="9.668215708237554"/>
      <path d="M-25.15 23.0 Q-25.15 19.35 -22.55 16.75 -19.95 14.15 -16.3 14.15 -12.65 14.15 -10.05 16.75 -7.45 19.35 -7.45 23.0 -7.45 26.65 -10.05 29.25 -12.65 31.85 -16.3 31.85 -19.95 31.85 -22.55 29.25 -25.15 26.65 -25.15 23.0" fill="#000000" fill-rule="evenodd" stroke="none"/>
    </g>
  </defs>
</svg>
