<?xml version="1.0" encoding="UTF-8" standalone="no"?>
<svg xmlns:ffdec="https://www.free-decompiler.com/flash" xmlns:xlink="http://www.w3.org/1999/xlink" ffdec:objectType="frame" height="24.4px" width="24.1px" xmlns="http://www.w3.org/2000/svg">
  <g transform="matrix(1.0, 0.0, 0.0, 1.0, 12.35, 12.2)">
    <use ffdec:characterId="187" height="55.55" transform="matrix(0.4, 0.0, 0.0, 0.4, 0.0, 0.0)" width="53.35" xlink:href="#sprite0"/>
    <use ffdec:characterId="193" height="6.9" transform="matrix(0.3655, 0.0, 0.0, -0.3772, -6.9, 10.2)" width="21.15" xlink:href="#shape2"/>
    <use ffdec:characterId="195" height="47.3" id="nate" transform="matrix(-0.1114, -0.0031, 0.0193, 0.0894, 1.45, 4.25)" width="27.4" xlink:href="#sprite2"/>
    <use ffdec:characterId="193" height="6.9" transform="matrix(0.5258, 0.0, 0.0, -0.5257, -10.4, 10.1)" width="21.15" xlink:href="#shape2"/>
    <use ffdec:characterId="195" height="47.3" id="nate" transform="matrix(-0.1016, -0.0453, -0.0161, 0.09, 0.0, 5.6)" width="27.4" xlink:href="#sprite3"/>
    <use ffdec:characterId="198" height="45.9" transform="matrix(0.3058, 0.0, -0.0077, 0.2472, 5.4, -5.15)" width="46.05" xlink:href="#sprite4"/>
    <use ffdec:characterId="198" height="45.9" transform="matrix(0.2608, 0.0, -0.0066, 0.2109, 6.0, -4.25)" width="46.05" xlink:href="#sprite5"/>
    <use ffdec:characterId="198" height="45.9" transform="matrix(0.1918, 0.0, -0.0048, 0.155, 6.4, -3.5)" width="46.05" xlink:href="#sprite6"/>
    <use ffdec:characterId="199" height="21.35" transform="matrix(0.3058, 0.0, -0.0077, 0.2472, 6.45, -3.9)" width="21.4" xlink:href="#shape8"/>
    <use ffdec:characterId="201" height="19.1" id="nate" transform="matrix(-0.0928, -0.2392, 0.1575, -0.0379, 2.0, 1.55)" width="13.65" xlink:href="#sprite7"/>
    <use ffdec:characterId="202" height="38.75" transform="matrix(-0.3058, 0.0, 0.0, 0.2472, 0.75, 2.1)" width="23.75" xlink:href="#shape10"/>
    <use ffdec:characterId="203" height="30.7" transform="matrix(-0.3999, 0.0, 0.0, 0.3998, 0.3, -4.4)" width="39.9" xlink:href="#shape11"/>
    <use ffdec:characterId="204" height="5.3" transform="matrix(0.5258, 0.0, 0.0, -0.5257, -10.4, 10.1)" width="13.4" xlink:href="#shape12"/>
    <use ffdec:characterId="205" height="25.95" transform="matrix(-0.0947, 0.0871, 0.1332, 0.0631, 5.1, -5.1)" width="25.95" xlink:href="#shape13"/>
    <use ffdec:characterId="205" height="25.95" transform="matrix(-0.0947, 0.0871, 0.1332, 0.0631, -0.9, -4.45)" width="25.95" xlink:href="#shape13"/>
    <use ffdec:characterId="205" height="25.95" transform="matrix(-0.0947, 0.0871, 0.1332, 0.0631, 5.2, -4.4)" width="25.95" xlink:href="#shape13"/>
    <use ffdec:characterId="205" height="25.95" transform="matrix(-0.0947, 0.0871, 0.1332, 0.0631, -0.8, -3.8)" width="25.95" xlink:href="#shape13"/>
    <use ffdec:characterId="205" height="25.95" transform="matrix(-0.0947, 0.0871, 0.1332, 0.0631, 5.15, -4.75)" width="25.95" xlink:href="#shape13"/>
    <use ffdec:characterId="205" height="25.95" transform="matrix(-0.0947, 0.0871, 0.1332, 0.0631, -0.9, -4.2)" width="25.95" xlink:href="#shape13"/>
    <use ffdec:characterId="198" height="45.9" transform="matrix(-0.3058, 0.0, 0.0077, 0.2472, -6.0, -2.35)" width="46.05" xlink:href="#sprite8"/>
    <use ffdec:characterId="198" height="45.9" transform="matrix(-0.2608, 0.0, 0.0066, 0.2109, -6.6, -1.45)" width="46.05" xlink:href="#sprite9"/>
    <use ffdec:characterId="198" height="45.9" transform="matrix(-0.1918, 0.0, 0.0048, 0.155, -7.0, -0.7)" width="46.05" xlink:href="#sprite10"/>
    <use ffdec:characterId="199" height="21.35" transform="matrix(-0.3058, 0.0, 0.0077, 0.2472, -7.05, -1.1)" width="21.4" xlink:href="#shape17"/>
    <use ffdec:characterId="201" height="19.1" id="nate" transform="matrix(0.2276, -0.1705, 0.1106, 0.0977, -1.8, 1.55)" width="13.65" xlink:href="#sprite11"/>
    <use ffdec:characterId="206" height="34.2" transform="matrix(0.5258, 0.0, 0.0, -0.5257, -10.4, 10.1)" width="33.15" xlink:href="#shape19"/>
  </g>
  <defs>
    <g id="sprite0">
      <use ffdec:characterId="100" height="49.7" transform="matrix(1.0, 0.0, 0.0, 1.0, 1.0, 2.5)" width="49.7" xlink:href="#sprite1"/>
      <use ffdec:characterId="186" height="50.0" transform="matrix(1.0, 0.0, 0.0, 1.0, 0.0, 0.0)" width="50.0" xlink:href="#shape1"/>
    </g>
    <g id="sprite1">
      <use ffdec:characterId="99" height="49.7" transform="matrix(1.0, 0.0, 0.0, 1.0, 0.0, 0.0)" width="49.7" xlink:href="#shape0"/>
    </g>
    <g id="shape0">
      <path d="M20.05 -14.4 Q27.35 -7.1 27.35 3.2 27.35 13.5 20.05 20.75 12.8 28.05 2.5 28.05 -7.8 28.05 -15.1 20.75 -22.35 13.5 -22.35 3.2 -22.35 -7.1 -15.1 -14.4 -7.8 -21.65 2.5 -21.65 12.8 -21.65 20.05 -14.4" fill="#443c42" fill-opacity="0.7019608" fill-rule="evenodd" stroke="none"/>
    </g>
    <g id="shape1">
      <path d="M-0.05 0.0 L0.0 -0.05 0.0 0.0 -0.05 0.0" fill="#ff3300" fill-rule="evenodd" stroke="none"/>
      <path d="M0.0 0.0 L0.0 0.05 -0.05 0.0 0.0 0.0" fill="url(#gradient0)" fill-rule="evenodd" stroke="none"/>
      <path d="M13.2 -13.25 L13.25 -13.2 Q18.7 -7.75 18.7 0.0 18.7 7.75 13.25 13.25 L13.2 13.25 Q7.75 18.7 0.0 18.7 -7.8 18.7 -13.25 13.25 -18.7 7.75 -18.7 0.0 -18.7 -7.75 -13.25 -13.2 -7.8 -18.7 0.0 -18.7 7.75 -18.7 13.2 -13.25 M-0.05 0.0 L0.0 0.05 0.0 0.0 0.0 -0.05 -0.05 0.0" fill="url(#gradient1)" fill-rule="evenodd" stroke="none"/>
      <path d="M17.65 -17.7 L13.2 -13.25 Q7.75 -18.7 0.0 -18.7 L0.0 -25.0 Q10.35 -25.0 17.65 -17.7 M18.7 0.0 L25.0 0.0 Q25.0 10.35 17.7 17.7 L17.65 17.7 13.2 13.25 13.25 13.25 Q18.7 7.75 18.7 0.0 M0.0 25.0 Q-10.4 25.0 -17.7 17.7 L-13.25 13.25 Q-7.8 18.7 0.0 18.7 L0.0 25.0 M-25.0 0.0 Q-25.0 -10.35 -17.7 -17.65 L-13.25 -13.2 Q-18.7 -7.75 -18.7 0.0 L-25.0 0.0" fill="#ff4e12" fill-rule="evenodd" stroke="none"/>
      <path d="M17.65 -17.7 L17.7 -17.65 Q25.0 -10.35 25.0 0.0 L18.7 0.0 Q18.7 -7.75 13.25 -13.2 L13.2 -13.25 17.65 -17.7 M17.65 17.7 Q10.35 25.0 0.0 25.0 L0.0 18.7 Q7.75 18.7 13.2 13.25 L17.65 17.7 M-17.7 17.7 Q-25.0 10.35 -25.0 0.0 L-18.7 0.0 Q-18.7 7.75 -13.25 13.25 L-17.7 17.7 M-17.7 -17.65 Q-10.4 -25.0 0.0 -25.0 L0.0 -18.7 Q-7.8 -18.7 -13.25 -13.2 L-17.7 -17.65" fill="#ec3102" fill-rule="evenodd" stroke="none"/>
      <path d="M0.0 0.0 L-0.05 0.0" ffdec:has-small-stroke="true" ffdec:original-stroke-width="0.05" fill="none" stroke="#ff9900" stroke-linecap="round" stroke-linejoin="round" stroke-opacity="0.0" stroke-width="2.5000381475547417"/>
      <path d="M0.0 0.0 L0.0 0.05 -0.05 0.0 0.0 -0.05 0.0 0.0" ffdec:has-small-stroke="true" ffdec:original-stroke-width="0.05" fill="none" stroke="#541101" stroke-linecap="round" stroke-linejoin="round" stroke-width="2.5000381475547417"/>
      <path d="M25.0 0.0 Q25.0 -10.35 17.7 -17.65 L17.65 -17.7 13.2 -13.25 13.25 -13.2 Q18.7 -7.75 18.7 0.0 L25.0 0.0 Q25.0 10.35 17.7 17.7 L17.65 17.7 Q10.35 25.0 0.0 25.0 -10.4 25.0 -17.7 17.7 -25.0 10.35 -25.0 0.0 -25.0 -10.35 -17.7 -17.65 -10.4 -25.0 0.0 -25.0 10.35 -25.0 17.65 -17.7 M0.0 -18.7 Q7.75 -18.7 13.2 -13.25 M0.0 -25.0 L0.0 -18.7 Q-7.8 -18.7 -13.25 -13.2 -18.7 -7.75 -18.7 0.0 -18.7 7.75 -13.25 13.25 -7.8 18.7 0.0 18.7 7.75 18.7 13.2 13.25 L13.25 13.25 Q18.7 7.75 18.7 0.0 M13.2 13.25 L17.65 17.7 M0.0 25.0 L0.0 18.7 M-17.7 -17.65 L-13.25 -13.2 M-25.0 0.0 L-18.7 0.0 M-13.25 13.25 L-17.7 17.7" ffdec:has-small-stroke="true" ffdec:original-stroke-width="0.05" fill="none" stroke="#fcdc94" stroke-linecap="round" stroke-linejoin="round" stroke-opacity="0.972549" stroke-width="2.5000381475547417"/>
    </g>
    <radialGradient cx="0" cy="0" gradientTransform="matrix(1.0E-4, 0.0, 0.0, 1.0E-4, 0.0, 0.0)" gradientUnits="userSpaceOnUse" id="gradient0" r="819.2" spreadMethod="pad">
      <stop offset="0.0" stop-color="#ff0000"/>
      <stop offset="1.0" stop-color="#000000"/>
    </radialGradient>
    <radialGradient cx="0" cy="0" gradientTransform="matrix(0.0248, 0.0, 0.0, 0.0248, -0.7, 0.0)" gradientUnits="userSpaceOnUse" id="gradient1" r="819.2" spreadMethod="pad">
      <stop offset="0.5686274509803921" stop-color="#ffcc66"/>
      <stop offset="1.0" stop-color="#ff3300"/>
    </radialGradient>
    <g id="shape2">
      <path d="M32.35 4.1 Q32.35 5.5 29.3 6.55 26.15 7.55 21.8 7.55 17.4 7.55 14.35 6.55 11.2 5.5 11.2 4.1 11.2 2.65 14.35 1.65 17.4 0.65 21.8 0.65 26.15 0.65 29.3 1.65 32.35 2.65 32.35 4.1" fill="#000000" fill-opacity="0.24313726" fill-rule="evenodd" stroke="none"/>
    </g>
    <g id="sprite2">
      <use ffdec:characterId="194" height="47.3" transform="matrix(1.0, 0.0, 0.0, 1.0, 0.0, 0.0)" width="27.4" xlink:href="#shape3"/>
    </g>
    <g id="shape3">
      <path d="M-6.5 5.0 Q-2.65 -1.75 2.85 -1.75 8.3 -1.75 12.2 5.0 16.05 11.8 16.05 21.4 16.05 30.95 12.2 37.75 8.3 44.55 2.85 44.55 -2.65 44.55 -6.5 37.75 -10.4 30.95 -10.35 21.4 -10.4 11.8 -6.5 5.0" fill="#7a5e30" fill-rule="evenodd" stroke="none"/>
      <path d="M-6.5 5.0 Q-2.65 -1.75 2.85 -1.75 8.3 -1.75 12.2 5.0 16.05 11.8 16.05 21.4 16.05 30.95 12.2 37.75 8.3 44.55 2.85 44.55 -2.65 44.55 -6.5 37.75 -10.4 30.95 -10.35 21.4 -10.4 11.8 -6.5 5.0 Z" ffdec:has-small-stroke="true" ffdec:original-stroke-width="1.0" fill="none" stroke="#000000" stroke-linecap="round" stroke-linejoin="round" stroke-width="10.047615949165259"/>
      <path d="M3.8 4.45 Q4.9 1.7 5.55 20.15 6.15 38.55 -7.7 31.15 -8.25 16.4 -5.05 9.7 -1.05 1.45 0.8 4.3 2.7 7.15 3.8 4.45" fill="#bcbc9c" fill-rule="evenodd" stroke="none"/>
    </g>
    <g id="sprite3">
      <use ffdec:characterId="194" height="47.3" transform="matrix(1.0, 0.0, 0.0, 1.0, 0.0, 0.0)" width="27.4" xlink:href="#shape4"/>
    </g>
    <g id="shape4">
      <path d="M-6.5 5.0 Q-2.65 -1.75 2.85 -1.75 8.3 -1.75 12.2 5.0 16.05 11.8 16.05 21.4 16.05 30.95 12.2 37.75 8.3 44.55 2.85 44.55 -2.65 44.55 -6.5 37.75 -10.4 30.95 -10.35 21.4 -10.4 11.8 -6.5 5.0" fill="#7a5e30" fill-rule="evenodd" stroke="none"/>
      <path d="M-6.5 5.0 Q-2.65 -1.75 2.85 -1.75 8.3 -1.75 12.2 5.0 16.05 11.8 16.05 21.4 16.05 30.95 12.2 37.75 8.3 44.55 2.85 44.55 -2.65 44.55 -6.5 37.75 -10.4 30.95 -10.35 21.4 -10.4 11.8 -6.5 5.0 Z" ffdec:has-small-stroke="true" ffdec:original-stroke-width="1.0" fill="none" stroke="#000000" stroke-linecap="round" stroke-linejoin="round" stroke-width="10.061350800712908"/>
      <path d="M3.8 4.45 Q4.9 1.7 5.55 20.15 6.15 38.55 -7.7 31.15 -8.25 16.4 -5.05 9.7 -1.05 1.45 0.8 4.3 2.7 7.15 3.8 4.45" fill="#bcbc9c" fill-rule="evenodd" stroke="none"/>
    </g>
    <g id="sprite4">
      <use ffdec:characterId="196" height="14.8" transform="matrix(1.0, 0.0, 0.0, 1.0, 0.0, 0.0)" width="6.7" xlink:href="#shape5"/>
    </g>
    <g id="shape5">
      <path d="M-3.2 -2.35 L-2.4 -5.25 Q-1.4 -7.4 0.0 -7.4 1.4 -7.4 2.35 -5.25 3.1 -3.65 3.3 -1.6 L3.35 0.0 Q3.35 3.05 2.35 5.2 1.4 7.4 0.0 7.4 -1.4 7.4 -2.4 5.2 -3.35 3.05 -3.35 0.0 L-3.2 -2.35" fill="#cc617d" fill-rule="evenodd" stroke="none"/>
      <path d="M3.3 -1.6 L3.35 0.0 Q3.35 3.05 2.35 5.2 1.4 7.4 0.0 7.4 -1.4 7.4 -2.4 5.2 -3.35 3.05 -3.35 0.0 L-3.2 -2.35" ffdec:has-small-stroke="true" ffdec:original-stroke-width="0.05" fill="none" stroke="#000000" stroke-linecap="round" stroke-linejoin="round" stroke-width="3.6372534522470112"/>
    </g>
    <g id="sprite5">
      <use ffdec:characterId="196" height="14.8" transform="matrix(1.0, 0.0, 0.0, 1.0, 0.0, 0.0)" width="6.7" xlink:href="#shape6"/>
    </g>
    <g id="shape6">
      <path d="M-3.2 -2.35 L-2.4 -5.25 Q-1.4 -7.4 0.0 -7.4 1.4 -7.4 2.35 -5.25 3.1 -3.65 3.3 -1.6 L3.35 0.0 Q3.35 3.05 2.35 5.2 1.4 7.4 0.0 7.4 -1.4 7.4 -2.4 5.2 -3.35 3.05 -3.35 0.0 L-3.2 -2.35" fill="#cc617d" fill-rule="evenodd" stroke="none"/>
      <path d="M3.3 -1.6 L3.35 0.0 Q3.35 3.05 2.35 5.2 1.4 7.4 0.0 7.4 -1.4 7.4 -2.4 5.2 -3.35 3.05 -3.35 0.0 L-3.2 -2.35" ffdec:has-small-stroke="true" ffdec:original-stroke-width="0.05" fill="none" stroke="#000000" stroke-linecap="round" stroke-linejoin="round" stroke-width="4.263900578141144"/>
    </g>
    <g id="sprite6">
      <use ffdec:characterId="196" height="14.8" transform="matrix(1.0, 0.0, 0.0, 1.0, 0.0, 0.0)" width="6.7" xlink:href="#shape7"/>
    </g>
    <g id="shape7">
      <path d="M-3.2 -2.35 L-2.4 -5.25 Q-1.4 -7.4 0.0 -7.4 1.4 -7.4 2.35 -5.25 3.1 -3.65 3.3 -1.6 L3.35 0.0 Q3.35 3.05 2.35 5.2 1.4 7.4 0.0 7.4 -1.4 7.4 -2.4 5.2 -3.35 3.05 -3.35 0.0 L-3.2 -2.35" fill="#cc617d" fill-rule="evenodd" stroke="none"/>
      <path d="M3.3 -1.6 L3.35 0.0 Q3.35 3.05 2.35 5.2 1.4 7.4 0.0 7.4 -1.4 7.4 -2.4 5.2 -3.35 3.05 -3.35 0.0 L-3.2 -2.35" ffdec:has-small-stroke="true" ffdec:original-stroke-width="0.05" fill="none" stroke="#000000" stroke-linecap="round" stroke-linejoin="round" stroke-width="5.799109934769554"/>
    </g>
    <g id="shape8">
      <path d="M-0.4 2.75 L-0.05 1.4 Q0.4 0.4 1.05 0.4 1.7 0.4 2.15 1.4 L2.6 3.1 2.65 3.85 2.45 5.45 Q2.0 5.45 1.65 5.85 L1.6 5.85 1.4 5.9 1.2 6.0 0.9 5.85 Q0.75 5.85 0.65 6.0 L0.3 5.85 0.15 5.8 -0.25 5.7 -0.5 3.85 -0.4 2.75" fill="#cc9400" fill-rule="evenodd" stroke="none"/>
      <path d="M2.45 5.45 L2.55 5.45 Q3.9 5.95 4.55 7.45 5.45 9.4 6.9 11.15 L7.4 11.7 Q8.8 12.95 9.25 14.55 9.65 14.9 9.65 15.45 L9.55 15.9 Q9.9 16.55 10.55 17.05 L10.7 17.25 9.6 16.45 9.5 16.4 9.45 16.3 9.35 16.2 Q8.7 16.15 8.25 15.6 L8.15 15.5 Q6.85 14.95 5.85 13.85 L7.25 16.95 7.95 18.6 7.8 18.7 Q6.8 19.55 6.85 20.35 L6.6 20.25 Q5.95 20.3 5.5 20.65 L5.45 20.5 2.65 14.35 2.7 15.95 Q2.8 18.45 1.95 20.8 L1.45 21.5 1.45 21.6 1.4 21.65 1.3 21.75 1.3 21.6 1.3 21.5 1.3 21.4 0.95 21.1 0.7 20.9 0.7 20.8 0.7 20.6 0.7 20.45 Q-0.15 16.8 0.0 12.95 L-0.15 11.15 Q-0.6 11.85 -1.45 12.05 L-1.7 12.45 -1.85 12.7 -2.0 12.75 -1.75 12.15 -1.6 11.95 -1.55 11.15 -1.4 10.95 -1.35 10.65 -4.8 12.75 -6.45 13.3 -6.9 13.25 Q-7.85 14.0 -8.85 13.75 L-10.7 14.4 -9.1 13.35 -9.05 13.25 -9.0 13.15 -9.0 13.0 Q-8.4 12.45 -7.6 12.15 -6.95 11.05 -5.8 10.35 L-4.85 9.75 Q-3.1 8.75 -1.8 7.35 L-1.75 6.55 -1.45 6.1 Q-0.95 5.7 -0.45 5.65 L-0.25 5.7 0.15 5.8 0.3 5.85 0.65 6.0 Q0.75 5.85 0.9 5.85 L1.2 6.0 1.4 5.9 1.6 5.85 1.65 5.85 Q2.0 5.45 2.45 5.45" fill="#427000" fill-rule="evenodd" stroke="none"/>
      <path d="M2.6 3.1 L2.65 3.85 2.45 5.45 M-0.25 5.7 L-0.5 3.85 -0.4 2.75" ffdec:has-small-stroke="true" ffdec:original-stroke-width="0.05" fill="none" stroke="#000000" stroke-linecap="round" stroke-linejoin="round" stroke-width="3.6372534522470112"/>
    </g>
    <g id="sprite7">
      <use ffdec:characterId="200" height="19.1" transform="matrix(1.0, 0.0, 0.0, 1.0, 0.0, 0.0)" width="13.65" xlink:href="#shape9"/>
    </g>
    <g id="shape9">
      <path d="M0.6 8.35 Q-0.8 12.1 -3.3 14.5 -5.85 16.95 -8.05 16.65 -10.35 16.35 -10.95 13.5 -11.6 10.65 -10.25 6.95 -8.9 3.2 -6.35 0.8 -3.85 -1.65 -1.6 -1.35 0.65 -1.05 1.3 1.8 1.9 4.65 0.6 8.35" fill="#7a5e30" fill-rule="evenodd" stroke="none"/>
      <path d="M0.6 8.35 Q-0.8 12.1 -3.3 14.5 -5.85 16.95 -8.05 16.65 -10.35 16.35 -10.95 13.5 -11.6 10.65 -10.25 6.95 -8.9 3.2 -6.35 0.8 -3.85 -1.65 -1.6 -1.35 0.65 -1.05 1.3 1.8 1.9 4.65 0.6 8.35 Z" ffdec:has-small-stroke="true" ffdec:original-stroke-width="1.0" fill="none" stroke="#000000" stroke-linecap="round" stroke-linejoin="round" stroke-width="4.925875910257889"/>
      <path d="M-0.6 4.55 Q-2.3 10.6 -4.45 12.95 -7.15 15.75 -7.5 14.4 -7.95 12.95 -8.7 13.95 -9.5 14.9 -7.55 12.35 -5.65 9.8 -0.6 4.55" fill="#bcbc9c" fill-rule="evenodd" stroke="none"/>
    </g>
    <g id="shape10">
      <path d="M8.55 -13.6 L10.9 -0.4 11.35 3.1 Q11.7 8.8 9.55 13.2 6.7 18.8 0.4 18.85 -5.9 18.85 -9.45 13.55 -12.55 8.95 -10.6 3.1 L-9.9 1.4 Q-6.85 -5.45 -5.9 -12.2 -4.95 -18.9 1.35 -18.9 7.65 -18.9 8.55 -13.6" fill="#736f66" fill-rule="evenodd" stroke="none"/>
      <path d="M8.55 -13.6 L10.9 -0.4 11.35 3.1 Q11.7 8.8 9.55 13.2 6.7 18.8 0.4 18.85 -5.9 18.85 -9.45 13.55 -12.55 8.95 -10.6 3.1 L-9.9 1.4 Q-6.85 -5.45 -5.9 -12.2 -4.95 -18.9 1.35 -18.9 7.65 -18.9 8.55 -13.6 Z" ffdec:has-small-stroke="true" ffdec:original-stroke-width="1.0" fill="none" stroke="#000000" stroke-linecap="round" stroke-linejoin="round" stroke-width="3.6372534522470112"/>
      <path d="M0.85 10.8 Q-1.0 15.45 -4.05 15.0 -7.15 14.5 -8.25 13.05 -9.4 11.55 -9.65 8.8 -9.95 6.0 -8.8 2.55 L-8.35 1.3 Q-3.05 7.15 3.3 4.5 L0.85 10.8" fill="#986d56" fill-rule="evenodd" stroke="none"/>
      <path d="M10.65 -0.25 L11.1 3.25 Q11.45 8.95 9.3 13.35 7.05 17.8 0.2 19.0 5.9 16.65 5.85 0.95 -0.4 5.05 -7.85 -2.2 -7.1 -5.65 -6.2 -11.85 -5.2 -18.75 1.1 -18.75 7.4 -18.75 8.3 -13.45 L10.65 -0.25" fill="#543430" fill-rule="evenodd" stroke="none"/>
    </g>
    <g id="shape11">
      <path d="M12.35 -11.45 L13.75 -10.5 Q19.45 -6.15 19.45 0.0 19.45 6.15 13.75 10.5 8.05 14.85 0.0 14.85 -8.05 14.85 -13.75 10.5 -18.25 7.05 -19.2 2.5 L-16.9 4.8 Q-11.65 9.2 -4.25 9.2 3.15 9.2 8.4 4.8 13.65 0.45 13.65 -5.75 13.65 -8.85 12.35 -11.45" fill="#8b7f6a" fill-rule="evenodd" stroke="none"/>
      <path d="M-19.2 2.5 L-19.45 0.0 Q-19.45 -6.15 -13.75 -10.5 -8.05 -14.85 0.0 -14.85 7.1 -14.85 12.35 -11.45 13.65 -8.85 13.65 -5.75 13.65 0.45 8.4 4.8 3.15 9.2 -4.25 9.2 -11.65 9.2 -16.9 4.8 L-19.2 2.5" fill="#b0a084" fill-rule="evenodd" stroke="none"/>
      <path d="M-19.2 2.5 L-19.45 0.0 Q-19.45 -6.15 -13.75 -10.5 -8.05 -14.85 0.0 -14.85 7.1 -14.85 12.35 -11.45 L13.75 -10.5 Q19.45 -6.15 19.45 0.0 19.45 6.15 13.75 10.5 8.05 14.85 0.0 14.85 -8.05 14.85 -13.75 10.5 -18.25 7.05 -19.2 2.5 Z" ffdec:has-small-stroke="true" ffdec:original-stroke-width="1.0" fill="none" stroke="#261c2f" stroke-linecap="round" stroke-linejoin="round" stroke-width="2.500992222213643"/>
    </g>
    <g id="shape12">
      <path d="M18.2 27.55 Q15.4 27.55 13.45 26.8 11.5 26.0 11.5 24.9 11.5 23.8 13.45 23.05 15.4 22.25 18.2 22.25 21.0 22.25 22.95 23.05 24.9 23.8 24.9 24.9 24.9 26.0 22.95 26.8 21.0 27.55 18.2 27.55" fill="#bcbc9c" fill-rule="evenodd" stroke="none"/>
    </g>
    <g id="shape13">
      <path d="M4.85 -4.8 L9.0 -4.8 Q10.65 -4.8 11.85 -3.65 13.0 -2.45 13.0 -0.8 L13.0 0.85 Q13.0 2.5 11.85 3.65 10.65 4.85 9.0 4.85 L4.85 4.85 4.85 9.0 Q4.85 10.65 3.65 11.8 2.5 13.0 0.85 13.0 L-0.8 13.0 Q-2.45 13.0 -3.65 11.8 -4.8 10.65 -4.8 9.0 L-4.8 4.85 -8.95 4.85 Q-10.6 4.85 -11.75 3.65 -12.95 2.5 -12.95 0.85 L-12.95 -0.8 Q-12.95 -2.45 -11.75 -3.65 -10.6 -4.8 -8.95 -4.8 L-4.8 -4.8 -4.8 -8.95 Q-4.8 -10.6 -3.65 -11.8 -2.45 -12.95 -0.8 -12.95 L0.85 -12.95 Q2.5 -12.95 3.65 -11.8 4.85 -10.6 4.85 -8.95 L4.85 -4.8" fill="#684b24" fill-rule="evenodd" stroke="none"/>
    </g>
    <g id="sprite8">
      <use ffdec:characterId="196" height="14.8" transform="matrix(1.0, 0.0, 0.0, 1.0, 0.0, 0.0)" width="6.7" xlink:href="#shape14"/>
    </g>
    <g id="shape14">
      <path d="M-3.2 -2.35 L-2.4 -5.25 Q-1.4 -7.4 0.0 -7.4 1.4 -7.4 2.35 -5.25 3.1 -3.65 3.3 -1.6 L3.35 0.0 Q3.35 3.05 2.35 5.2 1.4 7.4 0.0 7.4 -1.4 7.4 -2.4 5.2 -3.35 3.05 -3.35 0.0 L-3.2 -2.35" fill="#cc617d" fill-rule="evenodd" stroke="none"/>
      <path d="M3.3 -1.6 L3.35 0.0 Q3.35 3.05 2.35 5.2 1.4 7.4 0.0 7.4 -1.4 7.4 -2.4 5.2 -3.35 3.05 -3.35 0.0 L-3.2 -2.35" ffdec:has-small-stroke="true" ffdec:original-stroke-width="0.05" fill="none" stroke="#000000" stroke-linecap="round" stroke-linejoin="round" stroke-width="3.6372534522470112"/>
    </g>
    <g id="sprite9">
      <use ffdec:characterId="196" height="14.8" transform="matrix(1.0, 0.0, 0.0, 1.0, 0.0, 0.0)" width="6.7" xlink:href="#shape15"/>
    </g>
    <g id="shape15">
      <path d="M-3.2 -2.35 L-2.4 -5.25 Q-1.4 -7.4 0.0 -7.4 1.4 -7.4 2.35 -5.25 3.1 -3.65 3.3 -1.6 L3.35 0.0 Q3.35 3.05 2.35 5.2 1.4 7.4 0.0 7.4 -1.4 7.4 -2.4 5.2 -3.35 3.05 -3.35 0.0 L-3.2 -2.35" fill="#cc617d" fill-rule="evenodd" stroke="none"/>
      <path d="M3.3 -1.6 L3.35 0.0 Q3.35 3.05 2.35 5.2 1.4 7.4 0.0 7.4 -1.4 7.4 -2.4 5.2 -3.35 3.05 -3.35 0.0 L-3.2 -2.35" ffdec:has-small-stroke="true" ffdec:original-stroke-width="0.05" fill="none" stroke="#000000" stroke-linecap="round" stroke-linejoin="round" stroke-width="4.263900578141144"/>
    </g>
    <g id="sprite10">
      <use ffdec:characterId="196" height="14.8" transform="matrix(1.0, 0.0, 0.0, 1.0, 0.0, 0.0)" width="6.7" xlink:href="#shape16"/>
    </g>
    <g id="shape16">
      <path d="M-3.2 -2.35 L-2.4 -5.25 Q-1.4 -7.4 0.0 -7.4 1.4 -7.4 2.35 -5.25 3.1 -3.65 3.3 -1.6 L3.35 0.0 Q3.35 3.05 2.35 5.2 1.4 7.4 0.0 7.4 -1.4 7.4 -2.4 5.2 -3.35 3.05 -3.35 0.0 L-3.2 -2.35" fill="#cc617d" fill-rule="evenodd" stroke="none"/>
      <path d="M3.3 -1.6 L3.35 0.0 Q3.35 3.05 2.35 5.2 1.4 7.4 0.0 7.4 -1.4 7.4 -2.4 5.2 -3.35 3.05 -3.35 0.0 L-3.2 -2.35" ffdec:has-small-stroke="true" ffdec:original-stroke-width="0.05" fill="none" stroke="#000000" stroke-linecap="round" stroke-linejoin="round" stroke-width="5.799109934769554"/>
    </g>
    <g id="shape17">
      <path d="M-0.4 2.75 L-0.05 1.4 Q0.4 0.4 1.05 0.4 1.7 0.4 2.15 1.4 L2.6 3.1 2.65 3.85 2.45 5.45 Q2.0 5.45 1.65 5.85 L1.6 5.85 1.4 5.9 1.2 6.0 0.9 5.85 Q0.75 5.85 0.65 6.0 L0.3 5.85 0.15 5.8 -0.25 5.7 -0.5 3.85 -0.4 2.75" fill="#cc9400" fill-rule="evenodd" stroke="none"/>
      <path d="M2.45 5.45 L2.55 5.45 Q3.9 5.95 4.55 7.45 5.45 9.4 6.9 11.15 L7.4 11.7 Q8.8 12.95 9.25 14.55 9.65 14.9 9.65 15.45 L9.55 15.9 Q9.9 16.55 10.55 17.05 L10.7 17.25 9.6 16.45 9.5 16.4 9.45 16.3 9.35 16.2 Q8.7 16.15 8.25 15.6 L8.15 15.5 Q6.85 14.95 5.85 13.85 L7.25 16.95 7.95 18.6 7.8 18.7 Q6.8 19.55 6.85 20.35 L6.6 20.25 Q5.95 20.3 5.5 20.65 L5.45 20.5 2.65 14.35 2.7 15.95 Q2.8 18.45 1.95 20.8 L1.45 21.5 1.45 21.6 1.4 21.65 1.3 21.75 1.3 21.6 1.3 21.5 1.3 21.4 0.95 21.1 0.7 20.9 0.7 20.8 0.7 20.6 0.7 20.45 Q-0.15 16.8 0.0 12.95 L-0.15 11.15 Q-0.6 11.85 -1.45 12.05 L-1.7 12.45 -1.85 12.7 -2.0 12.75 -1.75 12.15 -1.6 11.95 -1.55 11.15 -1.4 10.95 -1.35 10.65 -4.8 12.75 -6.45 13.3 -6.9 13.25 Q-7.85 14.0 -8.85 13.75 L-10.7 14.4 -9.1 13.35 -9.05 13.25 -9.0 13.15 -9.0 13.0 Q-8.4 12.45 -7.6 12.15 -6.95 11.05 -5.8 10.35 L-4.85 9.75 Q-3.1 8.75 -1.8 7.35 L-1.75 6.55 -1.45 6.1 Q-0.95 5.7 -0.45 5.65 L-0.25 5.7 0.15 5.8 0.3 5.85 0.65 6.0 Q0.75 5.85 0.9 5.85 L1.2 6.0 1.4 5.9 1.6 5.85 1.65 5.85 Q2.0 5.45 2.45 5.45" fill="#427000" fill-rule="evenodd" stroke="none"/>
      <path d="M2.6 3.1 L2.65 3.85 2.45 5.45 M-0.25 5.7 L-0.5 3.85 -0.4 2.75" ffdec:has-small-stroke="true" ffdec:original-stroke-width="0.05" fill="none" stroke="#000000" stroke-linecap="round" stroke-linejoin="round" stroke-width="3.6372534522470112"/>
    </g>
    <g id="sprite11">
      <use ffdec:characterId="200" height="19.1" transform="matrix(1.0, 0.0, 0.0, 1.0, 0.0, 0.0)" width="13.65" xlink:href="#shape18"/>
    </g>
    <g id="shape18">
      <path d="M0.6 8.35 Q-0.8 12.1 -3.3 14.5 -5.85 16.95 -8.05 16.65 -10.35 16.35 -10.95 13.5 -11.6 10.65 -10.25 6.95 -8.9 3.2 -6.35 0.8 -3.85 -1.65 -1.6 -1.35 0.65 -1.05 1.3 1.8 1.9 4.65 0.6 8.35" fill="#7a5e30" fill-rule="evenodd" stroke="none"/>
      <path d="M0.6 8.35 Q-0.8 12.1 -3.3 14.5 -5.85 16.95 -8.05 16.65 -10.35 16.35 -10.95 13.5 -11.6 10.65 -10.25 6.95 -8.9 3.2 -6.35 0.8 -3.85 -1.65 -1.6 -1.35 0.65 -1.05 1.3 1.8 1.9 4.65 0.6 8.35 Z" ffdec:has-small-stroke="true" ffdec:original-stroke-width="1.0" fill="none" stroke="#000000" stroke-linecap="round" stroke-linejoin="round" stroke-width="4.9325828779619"/>
      <path d="M-0.6 4.55 Q-2.3 10.6 -4.45 12.95 -7.15 15.75 -7.5 14.4 -7.95 12.95 -8.7 13.95 -9.5 14.9 -7.55 12.35 -5.65 9.8 -0.6 4.55" fill="#bcbc9c" fill-rule="evenodd" stroke="none"/>
    </g>
    <g id="shape19">
      <path d="M16.45 29.7 L19.95 27.35 14.65 27.1 M33.0 27.3 L30.95 28.75 32.8 28.95 M27.65 31.15 L30.95 28.75 26.0 28.2 M22.0 26.0 L19.95 27.35 22.3 27.5" ffdec:has-small-stroke="true" ffdec:original-stroke-width="1.0" fill="none" stroke="#b0a084" stroke-linecap="round" stroke-linejoin="round" stroke-width="1.901909578280154"/>
      <path d="M31.5 22.55 Q23.2 23.4 16.05 19.55" ffdec:has-small-stroke="true" ffdec:original-stroke-width="1.0" fill="none" stroke="#543430" stroke-linecap="round" stroke-linejoin="round" stroke-width="1.901909578280154"/>
      <path d="M8.2 42.45 L6.6 40.4 7.8 39.6 8.05 40.0 13.75 36.2 14.65 36.2 8.95 41.3 9.15 41.55 8.2 42.45" fill="#543430" fill-rule="evenodd" stroke="none"/>
      <path d="M34.0 8.25 L34.65 10.8 33.2 11.05 33.1 10.5 26.4 11.55 25.6 11.15 32.85 9.0 32.85 8.7 34.0 8.25" fill="#543430" fill-rule="evenodd" stroke="none"/>
      <path d="M1.5 29.8 L2.2 27.2 3.55 27.75 3.35 28.2 9.8 30.45 10.35 31.15 2.9 29.65 2.8 29.95 1.5 29.8" fill="#543430" fill-rule="evenodd" stroke="none"/>
    </g>
  </defs>
</svg>
