<?xml version="1.0" encoding="UTF-8" standalone="no"?>
<svg xmlns:ffdec="https://www.free-decompiler.com/flash" xmlns:xlink="http://www.w3.org/1999/xlink" ffdec:objectType="frame" height="27.8px" width="24.15px" xmlns="http://www.w3.org/2000/svg">
  <g transform="matrix(1.0, 0.0, 0.0, 1.0, 11.85, 13.95)">
    <use ffdec:characterId="187" height="55.55" transform="matrix(0.4, 0.0, 0.0, 0.4, 0.0, 0.0)" width="53.35" xlink:href="#sprite0"/>
    <use ffdec:characterId="188" height="82.5" transform="matrix(0.3378, 0.0, 0.0, 0.3377, 0.85, -0.1)" width="33.1" xlink:href="#shape2"/>
    <use ffdec:characterId="189" height="98.0" transform="matrix(0.1532, 0.1032, -0.1032, 0.1532, -0.2, 0.05)" width="91.75" xlink:href="#shape3"/>
  </g>
  <defs>
    <g id="sprite0">
      <use ffdec:characterId="100" height="49.7" transform="matrix(1.0, 0.0, 0.0, 1.0, 1.0, 2.5)" width="49.7" xlink:href="#sprite1"/>
      <use ffdec:characterId="186" height="50.0" transform="matrix(1.0, 0.0, 0.0, 1.0, 0.0, 0.0)" width="50.0" xlink:href="#shape1"/>
    </g>
    <g id="sprite1">
      <use ffdec:characterId="99" height="49.7" transform="matrix(1.0, 0.0, 0.0, 1.0, 0.0, 0.0)" width="49.7" xlink:href="#shape0"/>
    </g>
    <g id="shape0">
      <path d="M20.05 -14.4 Q27.35 -7.1 27.35 3.2 27.35 13.5 20.05 20.75 12.8 28.05 2.5 28.05 -7.8 28.05 -15.1 20.75 -22.35 13.5 -22.35 3.2 -22.35 -7.1 -15.1 -14.4 -7.8 -21.65 2.5 -21.65 12.8 -21.65 20.05 -14.4" fill="#443c42" fill-opacity="0.7019608" fill-rule="evenodd" stroke="none"/>
    </g>
    <g id="shape1">
      <path d="M-0.05 0.0 L0.0 -0.05 0.0 0.0 -0.05 0.0" fill="#ff3300" fill-rule="evenodd" stroke="none"/>
      <path d="M0.0 0.0 L0.0 0.05 -0.05 0.0 0.0 0.0" fill="url(#gradient0)" fill-rule="evenodd" stroke="none"/>
      <path d="M13.2 -13.25 L13.25 -13.2 Q18.7 -7.75 18.7 0.0 18.7 7.75 13.25 13.25 L13.2 13.25 Q7.75 18.7 0.0 18.7 -7.8 18.7 -13.25 13.25 -18.7 7.75 -18.7 0.0 -18.7 -7.75 -13.25 -13.2 -7.8 -18.7 0.0 -18.7 7.75 -18.7 13.2 -13.25 M-0.05 0.0 L0.0 0.05 0.0 0.0 0.0 -0.05 -0.05 0.0" fill="url(#gradient1)" fill-rule="evenodd" stroke="none"/>
      <path d="M17.65 -17.7 L13.2 -13.25 Q7.75 -18.7 0.0 -18.7 L0.0 -25.0 Q10.35 -25.0 17.65 -17.7 M18.7 0.0 L25.0 0.0 Q25.0 10.35 17.7 17.7 L17.65 17.7 13.2 13.25 13.25 13.25 Q18.7 7.75 18.7 0.0 M0.0 25.0 Q-10.4 25.0 -17.7 17.7 L-13.25 13.25 Q-7.8 18.7 0.0 18.7 L0.0 25.0 M-25.0 0.0 Q-25.0 -10.35 -17.7 -17.65 L-13.25 -13.2 Q-18.7 -7.75 -18.7 0.0 L-25.0 0.0" fill="#ff4e12" fill-rule="evenodd" stroke="none"/>
      <path d="M17.65 -17.7 L17.7 -17.65 Q25.0 -10.35 25.0 0.0 L18.7 0.0 Q18.7 -7.75 13.25 -13.2 L13.2 -13.25 17.65 -17.7 M17.65 17.7 Q10.35 25.0 0.0 25.0 L0.0 18.7 Q7.75 18.7 13.2 13.25 L17.65 17.7 M-17.7 17.7 Q-25.0 10.35 -25.0 0.0 L-18.7 0.0 Q-18.7 7.75 -13.25 13.25 L-17.7 17.7 M-17.7 -17.65 Q-10.4 -25.0 0.0 -25.0 L0.0 -18.7 Q-7.8 -18.7 -13.25 -13.2 L-17.7 -17.65" fill="#ec3102" fill-rule="evenodd" stroke="none"/>
      <path d="M0.0 0.0 L-0.05 0.0" ffdec:has-small-stroke="true" ffdec:original-stroke-width="0.05" fill="none" stroke="#ff9900" stroke-linecap="round" stroke-linejoin="round" stroke-opacity="0.0" stroke-width="2.5000381475547417"/>
      <path d="M0.0 0.0 L0.0 0.05 -0.05 0.0 0.0 -0.05 0.0 0.0" ffdec:has-small-stroke="true" ffdec:original-stroke-width="0.05" fill="none" stroke="#541101" stroke-linecap="round" stroke-linejoin="round" stroke-width="2.5000381475547417"/>
      <path d="M25.0 0.0 Q25.0 -10.35 17.7 -17.65 L17.65 -17.7 13.2 -13.25 13.25 -13.2 Q18.7 -7.75 18.7 0.0 L25.0 0.0 Q25.0 10.35 17.7 17.7 L17.65 17.7 Q10.35 25.0 0.0 25.0 -10.4 25.0 -17.7 17.7 -25.0 10.35 -25.0 0.0 -25.0 -10.35 -17.7 -17.65 -10.4 -25.0 0.0 -25.0 10.35 -25.0 17.65 -17.7 M0.0 -18.7 Q7.75 -18.7 13.2 -13.25 M0.0 -25.0 L0.0 -18.7 Q-7.8 -18.7 -13.25 -13.2 -18.7 -7.75 -18.7 0.0 -18.7 7.75 -13.25 13.25 -7.8 18.7 0.0 18.7 7.75 18.7 13.2 13.25 L13.25 13.25 Q18.7 7.75 18.7 0.0 M13.2 13.25 L17.65 17.7 M0.0 25.0 L0.0 18.7 M-17.7 -17.65 L-13.25 -13.2 M-25.0 0.0 L-18.7 0.0 M-13.25 13.25 L-17.7 17.7" ffdec:has-small-stroke="true" ffdec:original-stroke-width="0.05" fill="none" stroke="#fcdc94" stroke-linecap="round" stroke-linejoin="round" stroke-opacity="0.972549" stroke-width="2.5000381475547417"/>
    </g>
    <radialGradient cx="0" cy="0" gradientTransform="matrix(1.0E-4, 0.0, 0.0, 1.0E-4, 0.0, 0.0)" gradientUnits="userSpaceOnUse" id="gradient0" r="819.2" spreadMethod="pad">
      <stop offset="0.0" stop-color="#ff0000"/>
      <stop offset="1.0" stop-color="#000000"/>
    </radialGradient>
    <radialGradient cx="0" cy="0" gradientTransform="matrix(0.0248, 0.0, 0.0, 0.0248, -0.7, 0.0)" gradientUnits="userSpaceOnUse" id="gradient1" r="819.2" spreadMethod="pad">
      <stop offset="0.5686274509803921" stop-color="#ffcc66"/>
      <stop offset="1.0" stop-color="#ff3300"/>
    </radialGradient>
    <g id="shape2">
      <path d="M-5.25 20.15 L-4.9 20.15 -4.35 20.7 -4.6 35.2 -5.25 35.35 -5.25 20.15 M-3.75 17.65 L-3.1 16.75 -2.15 16.95 -2.15 39.9 -3.1 40.1 -3.45 39.85 -3.75 17.65 M-8.75 10.9 L-8.65 10.85 -8.1 11.4 -8.35 24.7 -8.75 24.8 -8.75 10.9 M-17.25 -2.35 L-16.65 -2.2 -16.65 36.45 -16.9 36.6 -17.8 36.0 -17.9 -1.45 -17.25 -2.35 M-3.45 -37.4 L-2.5 -36.8 -2.5 15.0 -3.45 15.6 -3.65 15.5 -3.65 -37.3 -3.45 -37.4 M-8.05 -37.85 L-6.95 -38.05 -6.4 -37.5 -6.65 -23.0 -7.7 -22.75 -8.05 -23.0 -8.05 -37.85 M-14.8 -39.85 L-13.9 -40.5 -12.95 -39.85 -13.2 -16.75 -14.25 -16.5 -14.6 -16.75 -14.8 -39.85 M1.3 30.25 L2.35 30.45 2.6 30.8 2.35 41.1 1.3 41.35 0.95 41.1 0.65 31.15 1.3 30.25 M1.9 8.8 L2.55 7.9 3.6 8.1 3.85 8.45 3.6 25.1 2.55 25.35 2.2 25.1 1.9 8.8 M0.5 -31.0 L0.25 -6.3 -0.8 -6.05 -1.15 -6.3 -1.15 -31.35 -0.05 -31.55 0.5 -31.0 M11.35 -1.35 L11.5 -1.45 12.2 -1.15 12.45 -0.8 12.45 29.0 11.5 29.6 11.35 29.5 11.35 -1.35 M4.1 -16.65 L4.4 -16.8 5.35 -16.15 5.1 -4.9 4.1 -4.65 4.1 -16.65 M1.65 -25.8 L2.55 -26.4 3.1 -26.2 3.1 2.25 3.45 2.25 3.25 7.25 2.2 7.5 1.65 6.95 1.65 -25.8 M5.1 -41.05 L6.15 -41.15 6.75 -40.7 6.5 -22.5 5.45 -22.25 5.1 -22.5 5.1 -41.05 M14.35 -32.9 L14.95 -32.65 15.2 -32.3 15.2 -2.5 14.25 -1.9 14.1 -2.0 14.35 -2.0 14.35 -32.9" fill="#8e7e60" fill-opacity="0.3529412" fill-rule="evenodd" stroke="none"/>
    </g>
    <g id="shape3">
      <path d="M-11.1 -14.0 L-10.25 -13.4 Q-8.45 -12.05 -7.1 -10.25 L-7.3 -9.75 0.3 -9.25 0.3 -8.5 Q4.7 -8.3 8.5 -10.5 10.65 -11.8 12.3 -13.8 L9.05 -11.65 10.15 -12.7 11.25 -14.0 12.15 -14.6 13.2 -15.15 14.35 -14.6 Q10.35 -6.05 0.85 -6.6 L-0.95 -6.6 Q-3.85 -6.5 -6.3 -7.25 -10.4 -8.5 -13.4 -12.1 L-14.7 -13.85 -14.3 -14.8 Q-12.7 -14.9 -11.1 -14.0 M-15.6 21.75 L-12.35 17.3 Q-6.4 10.0 -0.7 12.85 -0.4 14.0 -0.05 14.0 0.35 14.0 0.65 12.75 5.7 10.4 10.4 14.25 11.8 15.4 13.2 17.1 L16.5 21.75 Q-0.9 33.0 -15.6 21.75" fill="#ffcc00" fill-rule="evenodd" stroke="none"/>
      <path d="M11.25 -14.0 L10.15 -12.7 9.05 -11.65 12.3 -13.8 Q10.65 -11.8 8.5 -10.5 4.7 -8.3 0.3 -8.5 L0.3 -9.25 -7.3 -9.75 -7.1 -10.25 Q-8.45 -12.05 -10.25 -13.4 L-11.1 -14.0 Q0.55 -10.5 11.25 -14.0 M-0.7 12.85 L-1.15 10.65 -1.45 7.15 1.25 8.75 1.05 10.65 0.65 12.75 Q0.35 14.0 -0.05 14.0 -0.4 14.0 -0.7 12.85" fill="#ffcf00" fill-rule="evenodd" stroke="none"/>
      <path d="M-0.95 -6.6 L0.85 -6.6 1.05 -5.5 Q1.5 -2.15 1.5 2.55 L1.25 8.75 -1.45 7.15 -1.6 2.55 Q-1.6 -2.15 -1.15 -5.5 L-0.95 -6.6 M-17.55 26.45 Q-17.45 24.65 -15.6 21.75 -0.9 33.0 16.5 21.75 18.75 25.55 18.05 27.45 16.95 30.3 9.5 29.6 L-9.2 29.6 Q-16.65 30.35 -17.45 27.45 L-17.55 26.45" fill="#c4950b" fill-rule="evenodd" stroke="none"/>
      <path d="M22.55 -22.5 Q20.8 -16.8 16.9 -12.15 11.15 -5.25 3.45 -3.95 L3.6 -0.2 3.4 4.0 Q6.15 4.4 8.7 5.6 16.7 13.0 10.4 14.25 5.7 10.4 0.65 12.75 L1.05 10.65 1.25 8.75 1.5 2.55 Q1.5 -2.15 1.05 -5.5 L0.85 -6.6 Q10.35 -6.05 14.35 -14.6 L13.2 -15.15 12.15 -14.6 11.25 -14.0 Q0.55 -10.5 -11.1 -14.0 -12.7 -14.9 -14.3 -14.8 L-14.7 -13.85 -13.4 -12.1 Q-10.4 -8.5 -6.3 -7.25 -3.85 -6.5 -0.95 -6.6 L-1.15 -5.5 Q-1.6 -2.15 -1.6 2.55 L-1.45 7.15 -1.15 10.65 -0.7 12.85 Q-6.4 10.0 -12.35 17.3 L-15.6 21.75 Q-17.45 24.65 -17.55 26.45 -20.35 32.65 -23.85 27.8 -22.75 18.85 -17.1 12.15 -11.35 5.25 -3.6 4.0 L-3.75 -0.2 -3.6 -3.95 Q-8.0 -4.7 -11.8 -7.25 -14.65 -9.2 -17.1 -12.15 -21.0 -16.8 -22.75 -22.5 -0.5 -30.25 22.55 -22.5" fill="#a8e1c4" fill-rule="evenodd" stroke="none"/>
      <path d="M-23.85 27.8 Q-20.35 32.65 -17.55 26.45 L-17.45 27.45 Q-16.65 30.35 -9.2 29.6 L9.5 29.6 Q16.95 30.3 18.05 27.45 18.75 25.55 16.5 21.75 L13.2 17.1 Q11.8 15.4 10.4 14.25 16.7 13.0 8.7 5.6 13.2 7.7 16.95 12.15 23.95 20.55 24.0 32.45 L24.0 32.95 -24.15 32.95 -24.15 32.45 -23.85 27.8" fill="#61c98c" fill-rule="evenodd" stroke="none"/>
      <path d="M-22.75 -22.5 Q-24.15 -27.1 -24.15 -32.45 L-24.15 -32.95 24.0 -32.95 24.0 -32.45 Q23.95 -27.1 22.55 -22.5 -0.5 -30.25 -22.75 -22.5" fill="#39a667" fill-rule="evenodd" stroke="none"/>
      <path d="M-22.75 -22.5 Q-24.15 -27.1 -24.15 -32.45 L-24.15 -32.95 24.0 -32.95 24.0 -32.45 Q23.95 -27.1 22.55 -22.5 20.8 -16.8 16.9 -12.15 11.15 -5.25 3.45 -3.95 L3.6 -0.2 3.4 4.0 Q6.15 4.4 8.7 5.6 L8.6 5.25 M-22.75 -22.5 Q-21.0 -16.8 -17.1 -12.15 -14.65 -9.2 -11.8 -7.25 -8.0 -4.7 -3.6 -3.95 L-3.75 -0.2 -3.6 4.0 Q-11.35 5.25 -17.1 12.15 -22.75 18.85 -23.85 27.8 L-24.7 27.95 M-23.85 27.8 L-24.15 32.45 -24.15 32.95 24.0 32.95 24.0 32.45 Q23.95 20.55 16.95 12.15 13.2 7.7 8.7 5.6" ffdec:has-small-stroke="true" ffdec:original-stroke-width="3.0" fill="none" stroke="#408e5c" stroke-linecap="round" stroke-linejoin="round" stroke-width="5.414174446882002"/>
      <path d="M30.0 -31.8 L30.2 -30.3 30.2 30.1 30.0 31.6 29.5 32.25 27.75 32.25 Q27.45 32.25 27.2 31.6 L27.0 30.1 27.0 -30.3 27.2 -31.8 Q27.45 -32.45 27.75 -32.45 L29.5 -32.45 30.0 -31.8" fill="#845918" fill-rule="evenodd" stroke="none"/>
      <path d="M-29.95 -31.75 L-29.45 -32.4 -27.7 -32.4 Q-27.4 -32.4 -27.2 -31.75 L-27.0 -30.25 -27.0 30.15 -27.2 31.65 Q-27.4 32.25 -27.7 32.3 L-29.45 32.3 -29.95 31.65 -30.2 30.15 -30.2 -30.25 -29.95 -31.75" fill="#845918" fill-rule="evenodd" stroke="none"/>
      <path d="M27.2 -22.0 L27.2 -35.45 -26.75 -35.45 -26.75 -22.0 -34.1 -22.0 -34.1 -35.5 34.5 -35.5 34.5 -22.0 27.2 -22.0" fill="#39240b" fill-rule="evenodd" stroke="none"/>
      <path d="M27.2 -22.0 L34.5 -22.0 34.5 33.0 27.2 33.0 27.2 -22.0 M34.5 -35.5 L-34.1 -35.5 -37.55 -35.5 Q-45.6 -43.1 -35.5 -45.75 L46.75 -45.75 46.75 -35.5 34.5 -35.5 M-34.1 -22.0 L-26.75 -22.0 -26.75 33.0 -34.1 33.0 -34.1 -22.0 M46.75 37.25 L46.75 46.75 -43.0 46.75 -43.0 37.25 46.75 37.25" fill="#845918" fill-rule="evenodd" stroke="none"/>
      <path d="M-37.55 -35.5 L-43.0 -35.5 -43.0 -49.25 46.75 -49.25 46.75 -45.75 -35.5 -45.75 Q-45.6 -43.1 -37.55 -35.5" fill="#d98c31" fill-rule="evenodd" stroke="none"/>
      <path d="M-26.75 33.0 L27.2 33.0 34.5 33.0 46.75 33.0 46.75 37.25 -43.0 37.25 -43.0 33.0 -34.1 33.0 -26.75 33.0" fill="#b77322" fill-rule="evenodd" stroke="none"/>
      <path d="M-26.75 -22.0 L-26.75 -35.45 27.2 -35.45 27.2 -22.0 27.2 33.0 -26.75 33.0 -34.1 33.0 -34.1 -22.0 -34.1 -35.5 -37.55 -35.5 -43.0 -35.5 -43.0 -49.25 46.75 -49.25 46.75 -45.75 46.75 -35.5 34.5 -35.5 -34.1 -35.5 M34.5 -22.0 L34.5 -35.5 M-26.75 -22.0 L-26.75 33.0 M46.75 37.25 L46.75 33.0 34.5 33.0 27.2 33.0 M46.75 37.25 L46.75 46.75 -43.0 46.75 -43.0 37.25 -43.0 33.0 -34.1 33.0 M34.5 -22.0 L34.5 33.0" ffdec:has-small-stroke="true" ffdec:original-stroke-width="2.0" fill="none" stroke="#333333" stroke-linecap="round" stroke-linejoin="round" stroke-width="5.414174446882002"/>
      <path d="M-35.5 -47.05 Q-35.35 -47.85 -34.7 -48.3 L-33.25 -48.55 Q-32.45 -48.4 -32.05 -47.75 -31.6 -47.1 -31.75 -46.3 -31.9 -45.5 -32.55 -45.1 -33.2 -44.65 -34.0 -44.8 -34.8 -44.95 -35.25 -45.6 -35.65 -46.25 -35.5 -47.05" fill="#ffaf2b" fill-rule="evenodd" stroke="none"/>
      <path d="M-39.55 35.85 Q-39.4 35.05 -38.75 34.6 -38.1 34.2 -37.3 34.35 -36.5 34.5 -36.1 35.15 -35.65 35.8 -35.8 36.6 -35.95 37.4 -36.6 37.8 -37.25 38.25 -38.05 38.1 -38.85 37.95 -39.3 37.3 -39.7 36.65 -39.55 35.85" fill="#ffaf2b" fill-rule="evenodd" stroke="none"/>
      <path d="M-12.9 -22.15 Q-13.75 -21.25 -15.0 -21.25 -16.25 -21.25 -17.15 -22.15 -18.0 -23.0 -18.0 -24.25 -18.0 -25.5 -17.15 -26.4 -16.25 -27.25 -15.0 -27.25 -13.75 -27.25 -12.9 -26.4 -12.0 -25.5 -12.0 -24.25 -12.0 -23.0 -12.9 -22.15 M-4.7 15.75 Q-5.05 17.75 -6.7 18.85 -8.35 20.0 -10.35 19.6 -12.35 19.2 -13.45 17.55 -14.55 15.95 -14.2 13.95 -13.8 11.95 -12.15 10.8 -10.5 9.7 -8.5 10.1 -6.5 10.5 -5.4 12.1 -4.3 13.75 -4.7 15.75" fill="#ffffff" fill-rule="evenodd" stroke="none"/>
    </g>
  </defs>
</svg>
