<?xml version="1.0" encoding="UTF-8" standalone="no"?>
<svg xmlns:ffdec="https://www.free-decompiler.com/flash" xmlns:xlink="http://www.w3.org/1999/xlink" ffdec:objectType="shape" height="199.15px" width="144.5px" xmlns="http://www.w3.org/2000/svg">
  <g transform="matrix(1.0, 0.0, 0.0, 1.0, -185.3, -109.3)">
    <path d="M226.05 123.15 L214.6 116.9 213.8 116.5 202.75 116.5 198.65 116.95 193.3 120.05 191.5 126.95 195.5 131.3 203.9 139.55 207.45 129.85 213.75 124.65 225.35 123.85 226.05 123.15 M264.65 303.45 L263.05 308.45 Q302.2 273.8 307.1 223.8 L297.7 226.05 298.7 232.15 280.5 283.95 264.65 303.45 M318.65 199.05 Q327.1 195.8 328.75 186.4 330.45 180.7 329.45 174.85 329.7 167.3 327.25 160.55 L297.3 166.85 296.2 154.65 314.5 142.45 Q305.15 133.95 289.9 127.3 287.6 126.05 279.6 127.4 L273.55 128.7 263.95 136.5 288.2 164.4 293.75 200.1 294.5 199.35 318.65 199.05" fill="#ccad88" fill-rule="evenodd" stroke="none"/>
    <path d="M247.35 134.75 L226.05 123.15 225.35 123.85 213.75 124.65 207.45 129.85 203.9 139.55 207.05 142.45 209.4 144.4 Q221.2 154.25 232.95 161.6 L232.95 172.1 Q245.3 164.5 246.95 173.4 248.7 182.2 257.3 204.15 265.5 224.95 269.95 223.7 L270.4 223.45 293.75 200.1 288.2 164.4 263.95 136.5 258.65 140.8 232.95 161.6 247.35 134.75 M270.3 224.05 L270.05 223.8 270.05 224.05 Q275.9 267.85 264.65 303.45 L280.5 283.95 298.7 232.15 297.7 226.05 297.0 226.2 Q279.35 229.4 270.3 224.05" fill="#ffe5c7" fill-rule="evenodd" stroke="none"/>
    <path d="M258.65 140.8 L247.35 134.75 232.95 161.6 258.65 140.8" fill="#863428" fill-rule="evenodd" stroke="none"/>
    <path d="M214.6 116.9 L214.1 115.15 214.0 115.15 211.0 111.8 205.15 109.3 195.85 110.6 187.3 115.45 185.3 120.6 186.2 124.1 187.75 126.95 Q190.25 127.75 190.95 126.75 L191.1 126.55 191.0 126.5 188.65 123.7 Q188.1 121.85 188.35 120.25 188.8 118.3 190.5 116.7 193.75 114.1 198.5 113.4 L198.7 113.35 Q206.45 111.05 211.1 115.0 L213.8 116.5 214.6 116.9" fill="#55281e" fill-rule="evenodd" stroke="none"/>
    <path d="M191.1 126.55 L191.5 126.95 193.3 120.05 198.65 116.95 202.75 116.5 213.8 116.5 211.1 115.0 Q206.45 111.05 198.7 113.35 L198.5 113.4 Q193.75 114.1 190.5 116.7 188.8 118.3 188.35 120.25 188.1 121.85 188.65 123.7 L191.0 126.5 191.1 126.55" fill="#ad7b4b" fill-rule="evenodd" stroke="none"/>
    <path d="M270.4 223.45 L270.45 223.7 291.3 216.2 294.5 199.35 293.75 200.1 270.4 223.45" fill="#79402b" fill-rule="evenodd" stroke="none"/>
    <path d="M270.45 223.7 L270.3 224.05 Q279.35 229.4 297.0 226.2 L291.1 217.4 291.3 216.2 270.45 223.7" fill="#c47e4e" fill-rule="evenodd" stroke="none"/>
    <path d="M327.25 160.55 Q323.75 150.6 314.5 142.45 L296.2 154.65 297.3 166.85 327.25 160.55" fill="#c49d77" fill-rule="evenodd" stroke="none"/>
    <path d="M307.1 223.8 L313.4 223.8 314.8 207.75 291.3 216.2 291.1 217.4 297.0 226.2 297.7 226.05 307.1 223.8" fill="#995735" fill-rule="evenodd" stroke="none"/>
    <path d="M314.8 207.75 L318.65 199.05 294.5 199.35 291.3 216.2 314.8 207.75" fill="#5f2d21" fill-rule="evenodd" stroke="none"/>
    <path d="M247.35 134.75 L226.05 123.15 214.6 116.9 214.1 115.15 214.0 115.15 211.0 111.8 205.15 109.3 195.85 110.6 187.3 115.45 185.3 120.6 186.2 124.1 187.75 126.95 Q190.25 127.75 190.95 126.75 L191.1 126.55 191.5 126.95 195.5 131.3 203.9 139.55 207.05 142.45 209.4 144.4 Q221.2 154.25 232.95 161.6 L232.95 172.1 Q245.3 164.5 246.95 173.4 248.7 182.2 257.3 204.15 265.5 224.95 269.95 223.7 L270.4 223.45 293.75 200.1 294.5 199.35 318.65 199.05 Q327.1 195.8 328.75 186.4 330.45 180.7 329.45 174.85 329.7 167.3 327.25 160.55 323.75 150.6 314.5 142.45 305.15 133.95 289.9 127.3 287.6 126.05 279.6 127.4 L273.55 128.7 263.95 136.5 258.65 140.8 247.35 134.75 232.95 161.6 258.65 140.8 M270.3 224.05 L270.05 223.8 270.05 224.05 Q275.9 267.85 264.65 303.45 L263.05 308.45 Q302.2 273.8 307.1 223.8 L313.4 223.8 314.8 207.75 318.65 199.05 M213.8 116.5 L211.1 115.0 Q206.45 111.05 198.7 113.35 L198.5 113.4 Q193.75 114.1 190.5 116.7 188.8 118.3 188.35 120.25 188.1 121.85 188.65 123.7 L191.0 126.5 191.1 126.55 M213.8 116.5 L214.6 116.9 M297.0 226.2 Q279.35 229.4 270.3 224.05 M297.0 226.2 L297.7 226.05 307.1 223.8 M314.8 207.75 L291.3 216.2 270.45 223.7" ffdec:has-small-stroke="true" ffdec:original-stroke-width="0.05" fill="none" stroke="#55281e" stroke-linecap="round" stroke-linejoin="round" stroke-opacity="0.4" stroke-width="1.0"/>
  </g>
</svg>
