<?xml version="1.0" encoding="UTF-8" standalone="no"?>
<svg xmlns:ffdec="https://www.free-decompiler.com/flash" xmlns:xlink="http://www.w3.org/1999/xlink" ffdec:objectType="shape" height="109.9px" width="100.75px" xmlns="http://www.w3.org/2000/svg">
  <g transform="matrix(1.0, 0.0, 0.0, 1.0, -245.75, -133.0)">
    <path d="M328.45 206.95 Q328.75 207.5 328.55 207.9 L328.5 207.9 328.45 206.95 M254.2 235.65 L245.85 231.05 245.85 194.95 249.85 189.05 255.3 177.65 250.1 169.55 262.8 147.5 265.85 133.0 291.4 133.0 289.45 154.15 289.45 154.55 286.8 162.4 281.45 176.45 281.1 177.4 280.6 178.6 Q280.65 179.25 279.55 179.25 L279.3 179.25 278.1 183.85 278.1 179.95 277.7 183.85 277.7 185.3 278.2 186.15 278.9 186.75 Q279.5 187.25 279.55 187.6 280.95 187.2 282.55 186.15 L286.45 183.85 Q287.5 184.9 287.9 186.0 289.65 184.9 291.75 184.7 293.0 184.5 294.65 185.3 297.05 186.35 300.0 186.75 300.7 186.9 301.45 187.6 L303.0 186.0 303.25 187.1 303.25 187.2 303.75 189.75 304.45 186.85 305.45 191.1 Q306.6 196.05 308.1 200.2 308.3 200.5 308.1 201.4 307.2 204.3 306.65 207.2 L305.9 209.5 305.2 201.15 Q304.45 206.95 303.0 212.4 302.5 214.05 301.45 215.55 298.15 220.25 292.5 222.1 L290.05 222.8 287.9 223.3 Q282.8 223.85 280.6 220.65 279.5 218.95 278.9 217.15 278.35 215.5 278.2 214.1 278.0 213.35 278.2 212.65 L278.9 208.75 Q279.1 208.05 278.8 207.2 L279.05 206.45 278.8 206.25 Q277.85 206.3 278.1 204.8 L277.0 203.95 274.8 202.85 272.0 202.95 Q270.35 203.35 269.1 203.95 267.35 204.65 265.95 205.75 260.65 209.35 259.9 215.55 L259.05 221.1 Q257.75 226.95 255.45 232.5 254.7 234.05 254.2 235.65 M329.55 188.3 L329.4 188.3 329.55 187.6 329.55 188.3" fill="#fdf9f4" fill-rule="evenodd" stroke="none"/>
    <path d="M335.0 133.0 L327.0 176.7 333.55 186.85 346.5 202.95 346.5 221.95 346.35 222.1 328.95 228.85 Q329.15 219.4 328.7 211.7 L328.7 210.95 328.5 207.9 328.55 207.9 Q328.75 207.5 328.45 206.95 L328.45 206.45 328.3 206.0 327.85 206.35 302.55 173.65 Q305.8 153.45 308.35 133.0 L335.0 133.0 M329.55 188.3 L329.55 187.6 329.4 188.3 329.55 188.3 M327.7 200.55 L327.35 198.5 327.7 200.55" fill="#885e5e" fill-rule="evenodd" stroke="none"/>
    <path d="M327.85 206.35 L328.3 206.0 328.45 206.45 328.1 206.6 327.85 206.35" fill="#aa8080" fill-rule="evenodd" stroke="none"/>
    <path d="M308.35 133.0 Q305.8 153.45 302.55 173.65 L327.85 206.35 328.1 206.6 328.45 206.95 Q323.3 233.65 298.8 242.9 L285.45 242.9 Q280.1 238.65 277.1 230.2 L255.9 236.5 255.8 236.5 254.2 235.65 Q254.7 234.05 255.45 232.5 257.75 226.95 259.05 221.1 L259.9 215.55 Q260.65 209.35 265.95 205.75 267.35 204.65 269.1 203.95 270.35 203.35 272.0 202.95 L274.8 202.85 277.0 203.95 278.1 204.8 Q277.85 206.3 278.8 206.25 L279.05 206.45 278.8 207.2 Q279.1 208.05 278.9 208.75 L278.2 212.65 Q278.0 213.35 278.2 214.1 278.35 215.5 278.9 217.15 279.5 218.95 280.6 220.65 282.8 223.85 287.9 223.3 L290.05 222.8 292.5 222.1 Q298.15 220.25 301.45 215.55 302.5 214.05 303.0 212.4 304.45 206.95 305.2 201.15 L305.9 209.5 306.65 207.2 Q307.2 204.3 308.1 201.4 308.3 200.5 308.1 200.2 306.6 196.05 305.45 191.1 L304.45 186.85 303.25 187.1 303.0 186.0 301.45 187.6 Q300.7 186.9 300.0 186.75 297.05 186.35 294.65 185.3 293.0 184.5 291.75 184.7 289.65 184.9 287.9 186.0 287.5 184.9 286.45 183.85 L282.55 186.15 Q280.95 187.2 279.55 187.6 279.5 187.25 278.9 186.75 L278.2 186.15 277.7 185.3 277.7 183.85 278.1 183.85 279.3 179.25 279.55 179.25 Q280.65 179.25 280.6 178.6 L281.1 177.4 281.45 176.45 286.8 162.4 289.45 154.55 289.45 154.15 291.4 133.0 308.35 133.0 M273.1 206.25 Q273.35 212.25 274.1 217.35 274.65 221.95 275.65 225.85 276.3 228.15 277.1 230.2 276.3 228.15 275.65 225.85 274.65 221.95 274.1 217.35 273.35 212.25 273.1 206.25" fill="#d5bdb5" fill-rule="evenodd" stroke="none"/>
    <path d="M328.45 206.45 L328.45 206.95 328.1 206.6 328.45 206.45 M328.5 207.9 L328.7 210.95 328.7 211.7 Q329.15 219.4 328.95 228.85 L328.7 236.0 312.0 242.9 298.8 242.9 Q323.3 233.65 328.45 206.95 L328.5 207.9" fill="#bb958c" fill-rule="evenodd" stroke="none"/>
    <path d="M277.7 183.85 L278.1 179.95 278.1 183.85 277.7 183.85" fill="#e1bfae" fill-rule="evenodd" stroke="none"/>
    <path d="M303.25 187.1 L304.45 186.85 303.25 187.2 303.25 187.1" fill="#d6a38f" fill-rule="evenodd" stroke="none"/>
    <path d="M304.45 186.85 L303.75 189.75 303.25 187.2 304.45 186.85" fill="#daae98" fill-rule="evenodd" stroke="none"/>
    <path d="M328.95 228.85 L346.35 222.1 346.5 221.95 346.5 202.95 333.55 186.85 327.0 176.7 335.0 133.0 M328.5 207.9 L328.7 210.95 328.7 211.7 Q329.15 219.4 328.95 228.85 L328.7 236.0 312.0 242.9 298.8 242.9 285.45 242.9 Q280.1 238.65 277.1 230.2 L255.9 236.5 255.8 236.5 254.2 235.65 245.85 231.05 245.85 194.95 249.85 189.05 255.3 177.65 250.1 169.55 262.8 147.5 265.85 133.0 M327.35 198.5 L327.7 200.55 M328.45 206.95 L328.5 207.9 M277.1 230.2 Q276.3 228.15 275.65 225.85 274.65 221.95 274.1 217.35 273.35 212.25 273.1 206.25" ffdec:has-small-stroke="true" ffdec:original-stroke-width="0.05" fill="none" stroke="#000000" stroke-linecap="round" stroke-linejoin="round" stroke-opacity="0.3019608" stroke-width="1.0"/>
    <path d="M335.0 133.0 L308.35 133.0 291.4 133.0 265.85 133.0" ffdec:has-small-stroke="true" ffdec:original-stroke-width="0.05" fill="none" stroke="#000000" stroke-linecap="round" stroke-linejoin="round" stroke-opacity="0.3019608" stroke-width="1.0"/>
    <path d="M247.9 240.85 L245.75 240.0 246.75 228.05 250.5 224.7 254.5 226.3 247.9 240.85" fill="#ffdf62" fill-rule="evenodd" stroke="none"/>
    <path d="M254.5 226.3 L256.2 227.0 256.95 233.25 248.65 241.2 247.9 240.85 254.5 226.3" fill="#ffcc00" fill-rule="evenodd" stroke="none"/>
    <path d="M254.5 226.3 L256.2 227.0 256.95 233.25 248.65 241.2 247.9 240.85 245.75 240.0 246.75 228.05 250.5 224.7 254.5 226.3 Z" ffdec:has-small-stroke="true" ffdec:original-stroke-width="0.05" fill="none" stroke="#000000" stroke-linecap="round" stroke-linejoin="round" stroke-opacity="0.3019608" stroke-width="1.0"/>
  </g>
</svg>
