<?xml version="1.0" encoding="UTF-8" standalone="no"?>
<svg xmlns:ffdec="https://www.free-decompiler.com/flash" xmlns:xlink="http://www.w3.org/1999/xlink" ffdec:objectType="shape" height="86.75px" width="82.85px" xmlns="http://www.w3.org/2000/svg">
  <g transform="matrix(1.0, 0.0, 0.0, 1.0, -243.15, -146.95)">
    <path d="M324.2 206.4 L325.9 208.25 Q326.25 219.05 318.15 222.75 L317.75 222.7 319.55 210.25 308.6 206.2 308.1 206.5 306.05 208.05 301.95 215.9 304.95 223.35 Q301.95 224.0 298.4 222.15 L296.65 218.25 Q291.65 210.2 285.3 206.2 L277.4 207.6 274.65 219.1 265.35 221.65 268.5 215.5 263.9 208.0 263.0 208.15 250.7 210.5 248.15 218.35 243.25 212.55 246.2 206.5 264.3 204.15 269.95 206.9 270.55 205.85 274.35 199.0 275.85 196.35 272.8 188.25 261.75 187.85 Q269.15 184.65 276.5 183.05 280.95 169.15 280.5 154.9 L275.65 147.05 294.4 147.05 301.05 173.45 300.95 173.45 301.25 176.2 Q305.85 183.2 310.85 189.8 L301.85 188.15 290.3 193.7 289.7 201.15 293.5 203.5 299.0 207.0 303.7 203.7 305.65 203.0 324.2 206.4 M275.65 199.55 L274.35 199.0 275.65 199.55 M278.85 200.95 L277.4 207.6 278.85 200.95 M287.35 205.85 L285.3 206.2 287.35 205.85 M296.65 218.25 L294.0 212.0 296.65 218.25" fill="#4d2615" fill-rule="evenodd" stroke="none"/>
    <path d="M252.65 193.1 L253.25 192.05 Q257.5 189.65 261.75 187.85 L272.8 188.25 275.85 196.35 274.35 199.0 260.1 191.45 252.65 193.1 M262.15 190.95 L260.1 191.45 262.15 190.95" fill="#603d1a" fill-rule="evenodd" stroke="none"/>
    <path d="M248.95 200.85 L252.65 193.1 260.1 191.45 274.35 199.0 270.55 205.85 258.9 198.5 248.95 200.85 M310.85 189.8 L311.6 190.85 315.25 195.55 307.3 192.35 296.75 195.95 296.65 196.35 293.5 203.5 289.7 201.15 290.3 193.7 301.85 188.15 310.85 189.8" fill="#774b20" fill-rule="evenodd" stroke="none"/>
    <path d="M318.15 222.75 L317.75 222.75 317.75 222.7 318.15 222.75 M301.05 173.45 L301.05 173.55 300.95 173.45 301.05 173.45 M305.65 203.0 L303.7 203.7 304.85 202.8 305.65 203.0" fill="#3e1e11" fill-rule="evenodd" stroke="none"/>
    <path d="M246.2 206.5 L248.95 200.85 258.9 198.5 270.55 205.85 269.95 206.9 264.3 204.15 246.2 206.5 M315.25 195.55 L319.45 200.75 324.2 206.4 305.65 203.0 304.85 202.8 303.7 203.7 299.0 207.0 293.5 203.5 296.65 196.35 296.75 195.95 307.3 192.35 315.25 195.55 M319.45 200.75 L313.0 199.2 305.65 203.0 313.0 199.2 319.45 200.75" fill="#6d441d" fill-rule="evenodd" stroke="none"/>
    <path d="M311.8 231.65 L308.95 233.6 304.95 223.35 301.95 215.9 306.05 208.05 308.1 206.5 305.55 219.7 311.8 231.65 M265.35 221.65 L259.0 229.0 255.4 230.65 262.15 218.05 263.0 208.15 263.9 208.0 268.5 215.5 265.35 221.65" fill="#c79625" fill-rule="evenodd" stroke="none"/>
    <path d="M317.75 222.75 L316.8 227.9 311.8 231.65 305.55 219.7 308.1 206.5 308.6 206.2 319.55 210.25 317.75 222.7 317.75 222.75 M255.4 230.65 L254.1 231.25 252.25 232.1 248.25 221.25 248.15 218.35 250.7 210.5 263.0 208.15 262.15 218.05 255.4 230.65" fill="#e3c764" fill-rule="evenodd" stroke="none"/>
    <path d="M324.2 206.4 L325.9 208.25 Q326.25 219.05 318.15 222.75 L317.75 222.75 316.8 227.9 311.8 231.65 308.95 233.6 304.95 223.35 Q301.95 224.0 298.4 222.15 L296.65 218.25 Q291.65 210.2 285.3 206.2 L277.4 207.6 274.65 219.1 265.35 221.65 259.0 229.0 255.4 230.65 M254.1 231.25 L252.25 232.1 248.25 221.25 248.15 218.35 243.25 212.55 246.2 206.5 248.95 200.85 252.65 193.1 253.25 192.05 Q257.5 189.65 261.75 187.85 269.15 184.65 276.5 183.05 280.95 169.15 280.5 154.9 L275.65 147.05 M294.4 147.05 L301.05 173.45 301.05 173.55 M300.95 173.45 L301.25 176.2 Q305.85 183.2 310.85 189.8 M311.6 190.85 L315.25 195.55 319.45 200.75 324.2 206.4 M308.1 206.5 L308.6 206.2 319.55 210.25 317.75 222.7 317.75 222.75 M304.95 223.35 L301.95 215.9 306.05 208.05 308.1 206.5 M294.0 212.0 L296.65 218.25 M285.3 206.2 L287.35 205.85 M277.4 207.6 L278.85 200.95 M263.0 208.15 L263.9 208.0 268.5 215.5 265.35 221.65 M248.15 218.35 L250.7 210.5 263.0 208.15" ffdec:has-small-stroke="true" ffdec:original-stroke-width="0.25" fill="none" stroke="#000000" stroke-linecap="round" stroke-linejoin="round" stroke-opacity="0.32156864" stroke-width="1.0"/>
    <path d="M305.65 203.0 L303.7 203.7 M274.35 199.0 L275.65 199.55 M260.1 191.45 L262.15 190.95 M252.65 193.1 L260.1 191.45 274.35 199.0 M293.5 203.5 L296.65 196.35 296.75 195.95 307.3 192.35 315.25 195.55 M305.65 203.0 L313.0 199.2 319.45 200.75 M270.55 205.85 L258.9 198.5 248.95 200.85" ffdec:has-small-stroke="true" ffdec:original-stroke-width="0.25" fill="none" stroke="#3e1e11" stroke-linecap="round" stroke-linejoin="round" stroke-width="1.0"/>
  </g>
</svg>
