<?xml version="1.0" encoding="UTF-8" standalone="no"?>
<svg xmlns:ffdec="https://www.free-decompiler.com/flash" xmlns:xlink="http://www.w3.org/1999/xlink" ffdec:objectType="shape" height="72.7px" width="91.2px" xmlns="http://www.w3.org/2000/svg">
  <g transform="matrix(1.0, 0.0, 0.0, 1.0, 0.4, 0.4)">
    <path d="M90.2 31.8 L90.4 43.15 69.0 66.6 68.15 56.7 87.2 35.2 90.2 31.8 M25.75 65.55 L12.1 60.55 12.0 52.55 16.8 52.9 27.3 56.55 25.75 65.55 M52.75 60.0 Q54.8 60.15 55.95 59.15 L55.6 67.1 52.75 60.0" fill="#8a1e00" fill-rule="evenodd" stroke="none"/>
    <path d="M59.1 3.05 L74.15 7.0 90.15 30.85 90.2 31.8 87.2 35.2 74.5 36.05 76.9 29.75 68.85 16.45 65.7 14.7 65.65 14.5 65.0 14.35 57.7 12.7 59.1 3.05" fill="#f24f00" fill-rule="evenodd" stroke="none"/>
    <path d="M65.7 14.7 L68.85 16.45 76.9 29.75 74.5 36.05 68.35 48.6 52.65 51.0 44.6 51.6 22.2 43.9 45.4 49.4 45.45 49.45 64.75 45.0 65.25 44.9 74.1 28.5 74.15 28.35 65.7 14.7" fill="#942201" fill-rule="evenodd" stroke="none"/>
    <path d="M65.7 14.7 L74.15 28.35 74.1 28.5 43.85 15.35 43.85 15.3 65.0 14.35 65.65 14.5 65.7 14.7" fill="#46c8c5" fill-rule="evenodd" stroke="none"/>
    <path d="M8.6 17.45 L16.9 6.0 47.25 0.0 59.1 3.05 57.7 12.7 41.2 9.05 41.15 9.0 21.3 14.65 21.2 14.85 16.9 23.2 8.6 17.45" fill="#ff9b6a" fill-rule="evenodd" stroke="none"/>
    <path d="M21.2 14.85 L21.3 14.65 41.15 9.0 41.2 9.05 43.75 15.25 21.2 14.85" fill="#e3f9f9" fill-rule="evenodd" stroke="none"/>
    <path d="M43.85 15.3 L43.85 15.35 43.7 15.3 43.85 15.3 M15.7 26.15 L43.35 15.55 22.1 43.7 20.1 38.3 15.7 26.15" fill="#92dedc" fill-rule="evenodd" stroke="none"/>
    <path d="M43.8 15.5 L43.7 15.3 43.85 15.35 43.8 15.5" fill="#5bcecb" fill-rule="evenodd" stroke="none"/>
    <path d="M65.0 14.35 L43.85 15.3 43.7 15.3 43.8 15.5 43.7 15.35 43.65 15.35 43.35 15.55 15.7 26.15 15.5 25.85 16.9 23.2 21.2 14.85 43.75 15.25 41.2 9.05 57.7 12.7 65.0 14.35" fill="#b0eeee" fill-rule="evenodd" stroke="none"/>
    <path d="M45.4 49.4 L22.2 43.9 22.1 43.7 43.35 15.55 43.65 15.35 43.7 15.35 43.75 15.55 45.4 49.4" fill="#78d6d3" fill-rule="evenodd" stroke="none"/>
    <path d="M74.1 28.5 L65.25 44.9 64.75 45.0 43.8 15.5 43.85 15.35 74.1 28.5" fill="#30a39f" fill-rule="evenodd" stroke="none"/>
    <path d="M64.75 45.0 L45.45 49.45 45.4 49.4 43.75 15.55 43.7 15.35 43.8 15.5 64.75 45.0" fill="#38bcb9" fill-rule="evenodd" stroke="none"/>
    <path d="M87.2 35.2 L68.15 56.7 56.0 59.15 56.0 59.1 52.65 51.0 68.35 48.6 74.5 36.05 87.2 35.2" fill="#ca4d00" fill-rule="evenodd" stroke="none"/>
    <path d="M2.15 26.3 L2.45 24.6 8.6 17.45 16.9 23.2 15.5 25.85 15.7 26.15 20.1 38.3 3.1 45.5 2.15 26.3" fill="#ffb093" fill-rule="evenodd" stroke="none"/>
    <path d="M38.05 71.9 L25.75 65.55 27.3 56.55 37.75 62.5 38.05 71.9 M12.1 60.55 L1.6 56.7 1.6 56.45 0.0 38.6 2.15 26.3 3.1 45.5 3.2 48.2 12.0 52.55 12.1 60.55" fill="#ca4200" fill-rule="evenodd" stroke="none"/>
    <path d="M22.2 43.9 L44.6 51.6 52.65 51.0 56.0 59.1 55.95 59.15 Q54.8 60.15 52.75 60.0 L38.15 62.7 37.75 62.5 27.3 56.55 16.8 52.9 12.0 52.55 3.2 48.2 3.1 45.5 20.1 38.3 22.1 43.7 22.2 43.9" fill="#ff6a22" fill-rule="evenodd" stroke="none"/>
    <path d="M69.0 66.6 L38.05 71.9 37.75 62.5 38.15 62.7 52.75 60.0 55.6 67.1 55.95 59.15 56.0 59.15 68.15 56.7 69.0 66.6" fill="#a62d00" fill-rule="evenodd" stroke="none"/>
    <path d="M55.95 59.15 L56.0 59.1 56.0 59.15 55.95 59.15" fill="#fdca00" fill-rule="evenodd" stroke="none"/>
    <path d="M90.2 31.8 L90.4 43.15 69.0 66.6 38.05 71.9 25.75 65.55 12.1 60.55 1.6 56.7 1.55 56.7 1.6 56.45 0.0 38.6 2.15 26.3 2.45 24.6 8.6 17.45 16.9 6.0 47.25 0.0 59.1 3.05 74.15 7.0 90.15 30.85 90.2 31.8 M1.6 56.45 L1.6 56.7" ffdec:has-small-stroke="true" ffdec:original-stroke-width="0.8" fill="none" stroke="#000000" stroke-linecap="round" stroke-linejoin="round" stroke-opacity="0.6" stroke-width="1.0"/>
  </g>
</svg>
