<?xml version="1.0" encoding="UTF-8" standalone="no"?>
<svg xmlns:ffdec="https://www.free-decompiler.com/flash" xmlns:xlink="http://www.w3.org/1999/xlink" ffdec:objectType="shape" height="60.55px" width="83.4px" xmlns="http://www.w3.org/2000/svg">
  <g transform="matrix(1.0, 0.0, 0.0, 1.0, 0.35, 4.95)">
    <path d="M81.05 17.0 L82.2 32.15 79.2 42.2 78.1 24.85 78.1 24.55 81.05 17.0" fill="#484b5b" fill-rule="evenodd" stroke="none"/>
    <path d="M75.7 11.15 L76.8 11.1 80.95 16.2 81.05 17.0 78.1 24.55 78.0 24.85 77.6 24.85 68.8 23.6 77.6 24.85 68.25 38.7 68.1 38.75 59.75 40.4 56.0 35.0 55.9 34.9 41.4 34.45 66.4 27.9 68.8 23.6 75.7 11.15" fill="#c5c8cf" fill-rule="evenodd" stroke="none"/>
    <path d="M70.1 54.15 L57.25 55.25 59.75 40.4 68.1 38.75 70.1 54.15 M18.9 43.5 L3.95 41.0 4.1 26.05 18.5 27.5 18.9 43.5 M64.5 8.9 L64.7 8.9 65.6 11.65 62.8 11.8 64.5 8.9 65.6 11.65 64.5 8.9" fill="#757b93" fill-rule="evenodd" stroke="none"/>
    <path d="M1.6 24.95 L1.65 24.8 30.9 25.7 57.0 17.0 64.25 8.9 64.5 8.9 62.8 11.8 65.6 11.65 75.7 11.15 68.8 23.6 66.4 27.9 41.4 34.45 33.65 34.2 30.3 33.65 30.35 33.4 18.5 27.5 4.1 26.05 1.6 24.95 M60.2 22.4 L68.8 23.6 60.2 22.4" fill="#d5d7dd" fill-rule="evenodd" stroke="none"/>
    <path d="M57.25 55.25 L53.35 50.8 56.0 35.0 59.75 40.4 57.25 55.25 M27.2 47.95 L18.9 43.5 18.5 27.5 30.35 33.4 30.3 33.65 27.2 47.95 M3.95 41.0 L0.0 39.0 1.6 24.95 4.1 26.05 3.95 41.0" fill="#9da2b3" fill-rule="evenodd" stroke="none"/>
    <path d="M79.2 42.2 L70.1 54.15 68.1 38.75 68.25 38.7 77.6 24.85 78.0 24.85 78.1 24.85 79.2 42.2 M53.35 50.8 L33.0 51.05 33.65 34.2 41.4 34.45 55.9 34.9 56.0 35.0 53.35 50.8" fill="#61667c" fill-rule="evenodd" stroke="none"/>
    <path d="M1.65 24.8 L3.6 18.1 26.15 9.55 30.7 12.2 36.6 9.35 64.25 8.9 57.0 17.0 30.9 25.7 1.65 24.8 M25.65 14.6 L30.7 12.2 25.65 14.6" fill="#e9eaed" fill-rule="evenodd" stroke="none"/>
    <path d="M33.0 51.05 L27.2 47.95 30.3 33.65 33.65 34.2 33.0 51.05" fill="#8c92a6" fill-rule="evenodd" stroke="none"/>
    <path d="M80.95 16.2 L81.2 16.5 81.05 17.0 80.95 16.2 M64.5 8.9 L62.8 11.8 65.6 11.65 M68.8 23.6 L77.6 24.85 78.0 24.85 78.1 24.55 81.05 17.0 M41.4 34.45 L55.9 34.9 56.0 35.0 59.75 40.4 68.1 38.75 68.25 38.7 77.6 24.85 M78.1 24.85 L78.1 24.55 M68.8 23.6 L60.2 22.4 M30.7 12.2 L25.65 14.6 M1.6 24.95 L4.1 26.05 18.5 27.5 30.35 33.4 30.3 33.65 33.65 34.2 41.4 34.45" ffdec:has-small-stroke="true" ffdec:original-stroke-width="0.4" fill="none" stroke="#000000" stroke-linecap="round" stroke-linejoin="round" stroke-opacity="0.6" stroke-width="1.0"/>
    <path d="M81.05 17.0 L82.2 32.15 79.2 42.2 70.1 54.15 57.25 55.25 53.35 50.8 33.0 51.05 27.2 47.95 18.9 43.5 3.95 41.0 0.0 39.0 1.6 24.95 1.65 24.8 3.6 18.1 26.15 9.55 30.7 12.2 36.6 9.35 64.25 8.9 64.5 8.9 65.6 11.65 75.7 11.15 76.8 11.1 80.95 16.2" ffdec:has-small-stroke="true" ffdec:original-stroke-width="0.7" fill="none" stroke="#000000" stroke-linecap="round" stroke-linejoin="round" stroke-opacity="0.6" stroke-width="1.0"/>
    <path d="M2.6 33.75 L12.25 30.85 21.65 32.7 10.9 38.35 2.6 33.75" fill="#94db94" fill-rule="evenodd" stroke="none"/>
    <path d="M10.9 38.35 L21.65 32.7 23.0 46.45 11.6 49.55 10.9 38.35" fill="#46954f" fill-rule="evenodd" stroke="none"/>
    <path d="M2.6 33.75 L10.9 38.35 11.6 49.55 1.7 45.75 2.6 33.75" fill="#68cd73" fill-rule="evenodd" stroke="none"/>
    <path d="M21.65 32.7 L12.25 30.85 2.6 33.75 1.7 45.75 11.6 49.55 23.0 46.45 21.65 32.7 Z" ffdec:has-small-stroke="true" ffdec:original-stroke-width="0.7" fill="none" stroke="#000000" stroke-linecap="round" stroke-linejoin="round" stroke-opacity="0.6" stroke-width="1.0"/>
    <path d="M73.15 9.55 L67.45 6.35 68.2 -1.8 73.7 1.9 73.15 9.55" fill="#68cd73" fill-rule="evenodd" stroke="none"/>
    <path d="M68.2 -1.8 L77.25 -4.6 82.65 -1.35 73.7 1.9 68.2 -1.8" fill="#94db94" fill-rule="evenodd" stroke="none"/>
    <path d="M82.65 -1.35 L82.7 7.8 73.15 9.55 73.7 1.9 82.65 -1.35" fill="#46954f" fill-rule="evenodd" stroke="none"/>
    <path d="M68.2 -1.8 L77.25 -4.6 82.65 -1.35 82.7 7.8 73.15 9.55 67.45 6.35 68.2 -1.8 Z" ffdec:has-small-stroke="true" ffdec:original-stroke-width="0.7" fill="none" stroke="#000000" stroke-linecap="round" stroke-linejoin="round" stroke-opacity="0.6" stroke-width="1.0"/>
  </g>
</svg>
