<?xml version="1.0" encoding="UTF-8" standalone="no"?>
<svg xmlns:ffdec="https://www.free-decompiler.com/flash" xmlns:xlink="http://www.w3.org/1999/xlink" ffdec:objectType="shape" height="91.1px" width="101.2px" xmlns="http://www.w3.org/2000/svg">
  <g transform="matrix(1.0, 0.0, 0.0, 1.0, 50.6, 45.55)">
    <path d="M50.6 -2.75 L48.3 21.85 46.05 32.0 31.0 39.5 24.95 38.85 24.6 43.4 24.35 43.5 Q8.1 48.35 -5.05 41.8 L-5.25 41.7 -4.4 35.9 -11.25 41.05 -14.75 42.1 Q-27.35 36.75 -32.8 29.15 L-33.2 28.4 -31.05 13.75 -39.3 23.15 -39.4 23.05 -50.6 8.8 -48.3 1.3 -48.45 1.05 -47.4 -6.7 -40.0 -11.55 -39.5 -18.75 -36.9 -25.55 -36.55 -26.9 -32.05 -36.3 -8.65 -45.55 17.45 -44.55 42.1 -30.8 42.1 -30.75 50.6 -2.75" fill="#fedbc0" fill-opacity="0.2509804" fill-rule="evenodd" stroke="none"/>
    <path d="M38.45 -28.55 L46.05 -3.4 44.0 18.65 42.0 27.75 28.5 34.45 23.05 33.9 22.75 37.95 22.5 38.1 Q7.9 42.45 -3.85 36.55 L-4.05 36.45 -3.25 31.25 -9.4 35.9 -12.55 36.8 Q-23.85 32.0 -28.75 25.2 L-29.1 24.55 -27.15 11.35 -34.6 19.8 -34.65 19.75 -44.7 6.95 -42.65 0.2 -42.75 0.0 -41.85 -6.95 -35.2 -11.35 -34.75 -17.8 -32.45 -23.85 -32.1 -25.1 -28.05 -33.55 -7.05 -41.85 16.35 -40.9 38.45 -28.6 38.45 -28.55" fill="#fedbc0" fill-opacity="0.4509804" fill-rule="evenodd" stroke="none"/>
    <path d="M35.75 -25.15 L35.8 -25.1 42.8 -3.55 42.8 -3.1 42.75 -3.1 32.65 -3.2 32.2 -21.95 29.75 -23.15 Q25.9 -25.05 22.0 -27.0 L21.95 -27.0 22.8 -31.85 35.75 -25.15 M-23.05 -19.7 L-20.65 -17.1 -15.4 -11.45 -22.2 -1.8 -22.35 -1.75 -27.3 -10.7 -30.3 -10.45 -30.45 -10.8 -30.35 -11.8 -30.0 -16.15 -23.1 -19.85 -23.05 -19.7" fill="#3b5546" fill-rule="evenodd" stroke="none"/>
    <path d="M21.95 -27.0 L22.0 -27.0 21.95 -26.95 21.95 -27.0 M7.95 -18.5 L7.55 -18.25 7.55 -18.5 7.95 -18.5 M24.45 4.35 L24.8 4.45 24.8 4.5 24.45 4.35 M-23.0 -25.95 L-23.0 -25.9 -23.0 -25.85 -23.1 -25.85 -23.0 -25.95 M21.6 17.85 L21.55 17.9 21.45 17.9 21.6 17.85 M-22.2 -1.7 L-22.3 -1.65 -22.2 -1.8 -22.2 -1.7 M-21.95 -1.15 L-22.1 -0.9 -22.15 -0.9 -21.95 -1.15" fill="#5b6f91" fill-rule="evenodd" stroke="none"/>
    <path d="M22.8 -31.85 L21.95 -27.0 21.95 -26.95 7.95 -18.5 7.55 -18.5 4.35 -18.5 6.9 -30.45 14.8 -35.75 15.4 -35.7 22.35 -32.1 22.8 -31.85" fill="#90ceaa" fill-rule="evenodd" stroke="none"/>
    <path d="M22.0 -27.0 Q25.9 -25.05 29.75 -23.15 L32.2 -21.95 32.65 -3.2 32.6 -3.1 32.65 -3.1 32.65 -3.0 24.8 4.45 24.45 4.35 13.9 1.15 5.8 -4.95 5.25 -5.35 7.55 -18.25 7.95 -18.5 21.95 -26.95 22.0 -27.0 M18.6 -12.15 L23.0 -9.3 32.6 -3.1 23.0 -9.3 18.6 -12.15 M-5.6 -31.9 L6.9 -30.5 6.9 -30.45 4.35 -18.5 4.35 -18.35 -5.35 -13.95 -15.35 -11.4 -15.4 -11.45 -20.65 -17.1 -23.05 -19.7 -23.05 -19.85 -23.0 -25.85 -23.0 -25.9 -23.0 -25.95 -6.25 -31.95 -5.6 -31.9 M-4.1 -23.7 L-12.85 -24.7 -23.0 -25.9 -12.85 -24.7 -4.1 -23.7 M23.0 -9.3 L29.75 -23.15 23.0 -9.3 M-12.85 -24.7 L-20.65 -17.1 -12.85 -24.7" fill="#cdfad8" fill-rule="evenodd" stroke="none"/>
    <path d="M-5.7 -36.5 L14.8 -35.75 6.9 -30.45 6.9 -30.5 -5.6 -31.9 -5.7 -36.5" fill="#354b3c" fill-rule="evenodd" stroke="none"/>
    <path d="M7.55 -18.25 L5.25 -5.35 5.8 -4.95 -11.15 3.9 -16.7 2.6 -17.25 2.5 -22.1 -0.9 -21.95 -1.15 -22.15 -1.4 -22.2 -1.7 -22.2 -1.8 -15.4 -11.45 -15.35 -11.4 -5.35 -13.95 4.35 -18.35 4.35 -18.5 7.55 -18.5 7.55 -18.25" fill="#8ac7a4" fill-rule="evenodd" stroke="none"/>
    <path d="M32.65 -3.2 L42.75 -3.1 42.75 -2.8 39.5 11.65 24.8 4.5 24.8 4.45 32.65 -3.0 32.65 -3.1 32.65 -3.2 M-26.05 15.25 L-25.0 10.75 -25.15 10.7 -24.75 9.1 -24.65 9.0 -23.9 5.35 -23.6 4.0 -22.05 3.7 -16.75 2.8 -16.7 2.6 -11.15 3.9 -11.7 4.2 -4.15 7.25 -4.0 7.65 0.0 15.9 3.1 9.7 3.15 9.6 17.9 11.05 18.0 11.3 18.05 11.25 18.5 10.8 21.6 17.8 21.45 17.9 21.4 17.9 21.45 18.05 21.85 22.3 21.8 22.3 21.8 22.35 21.75 22.35 21.6 22.4 Q10.1 27.1 -0.5 20.85 L-0.6 20.85 -0.05 16.2 -0.05 16.15 -0.1 16.15 -0.1 16.2 -9.3 26.3 -9.5 26.15 Q-19.3 25.35 -26.05 15.25 M-41.3 -0.5 L-41.45 -0.65 -38.3 -6.6 -32.2 -10.35 -30.75 -10.45 -30.3 -10.45 -27.3 -10.7 -22.35 -1.75 -22.3 -1.65 -22.2 -1.7 -22.15 -1.4 -22.2 -1.5 -22.3 -0.65 -24.1 2.05 -24.05 2.05 -33.0 9.5 -33.2 9.45 -41.3 -0.5" fill="#90ceab" fill-rule="evenodd" stroke="none"/>
    <path d="M32.65 -3.1 L32.6 -3.1 32.65 -3.2 32.65 -3.1" fill="#aee1df" fill-rule="evenodd" stroke="none"/>
    <path d="M42.75 -3.1 L42.8 -3.1 42.75 -2.8 42.75 -3.1 M-25.0 10.75 L-26.2 15.0 -25.15 10.7 -25.0 10.75 M21.6 17.8 L21.6 17.85 21.45 17.9 21.6 17.8 M-9.35 26.3 L-9.5 26.15 -9.3 26.3 -9.35 26.3 M-16.7 2.6 L-16.75 2.8 -17.25 2.5 -16.7 2.6" fill="#7b8dac" fill-rule="evenodd" stroke="none"/>
    <path d="M39.5 11.65 L39.45 11.8 28.45 19.45 21.55 17.9 21.6 17.85 21.6 17.8 18.5 10.8 24.8 4.5 39.5 11.65 M3.1 9.7 L0.0 15.9 -4.0 7.65 3.1 9.7 M-16.75 2.8 L-22.05 3.7 -22.3 -0.65 -22.15 -0.9 -22.1 -0.9 -17.25 2.5 -16.75 2.8" fill="#6d9d82" fill-rule="evenodd" stroke="none"/>
    <path d="M42.75 -2.8 L40.9 15.4 38.95 25.65 26.25 31.4 28.45 19.45 39.45 11.8 39.5 11.65 42.75 -2.8 M5.8 -4.95 L13.9 1.15 24.45 4.35 24.8 4.5 18.5 10.8 18.05 11.25 17.9 11.05 3.15 9.6 3.1 9.7 -4.0 7.65 -4.15 7.25 -11.7 4.2 -11.15 3.9 5.8 -4.95" fill="#567c66" fill-rule="evenodd" stroke="none"/>
    <path d="M-2.75 33.55 L-2.8 33.55 -2.9 33.45 -2.75 33.55 M-32.2 -10.35 L-31.8 -15.85 -29.65 -21.1 -30.0 -16.15 -30.35 -11.8 -30.75 -10.45 -32.2 -10.35 M21.45 18.05 L21.45 17.9 21.55 17.9 21.45 18.05 M21.85 22.3 L21.8 22.35 21.8 22.3 21.85 22.3" fill="#313d4f" fill-rule="evenodd" stroke="none"/>
    <path d="M26.25 31.4 L26.0 31.55 21.6 28.5 21.5 34.75 21.3 34.85 Q8.05 38.55 -2.75 33.55 L-2.9 33.45 -2.7 26.2 -9.85 33.15 -12.75 33.9 Q-22.6 30.0 -27.5 23.65 L-27.8 23.1 -26.05 15.25 Q-19.3 25.35 -9.5 26.15 L-9.35 26.3 -9.2 26.5 -9.3 26.3 -0.1 16.2 -0.05 16.2 -0.6 20.85 -0.6 21.15 -0.5 20.85 Q10.1 27.1 21.6 22.4 L21.75 22.35 21.8 22.35 21.85 22.3 21.45 18.05 21.55 17.9 28.45 19.45 26.25 31.4 M-26.2 15.0 L-33.45 16.5 -33.5 16.4 -42.4 7.35 -41.3 -0.5 -33.2 9.45 -33.0 9.7 -33.0 9.5 -24.05 2.05 -24.1 2.05 -22.3 -0.65 -22.05 3.7 -23.6 4.0 -23.65 4.0 -23.9 5.35 -24.65 9.0 -24.75 9.1 -25.15 10.7 -26.2 15.0" fill="#344b3e" fill-rule="evenodd" stroke="none"/>
    <path d="M18.05 11.25 L18.0 11.3 17.9 11.05 18.05 11.25" fill="#39475e" fill-rule="evenodd" stroke="none"/>
    <path d="M-26.3 -28.05 L-25.6 -29.4 -6.2 -36.5 -5.7 -36.5 -5.6 -31.9 -6.25 -31.95 -23.0 -25.95 -23.1 -25.85 -26.3 -28.05" fill="#3b5541" fill-rule="evenodd" stroke="none"/>
    <path d="M-29.65 -21.1 L-29.3 -22.15 -26.3 -28.05 -23.1 -25.85 -23.0 -25.85 -23.05 -19.85 -23.1 -19.85 -30.0 -16.15 -29.65 -21.1" fill="#7eb495" fill-rule="evenodd" stroke="none"/>
    <path d="M-23.1 -19.85 L-23.05 -19.85 -23.05 -19.7 -23.1 -19.85 M-22.35 -1.75 L-22.2 -1.8 -22.3 -1.65 -22.35 -1.75" fill="#2c3749" fill-rule="evenodd" stroke="none"/>
    <path d="M42.8 -3.1 L42.8 -3.55 35.8 -25.1 35.75 -25.15 M42.75 -2.8 L40.9 15.4 38.95 25.65 26.25 31.4 26.0 31.55 21.6 28.5 21.5 34.75 21.3 34.85 Q8.05 38.55 -2.75 33.55 L-2.8 33.55 -2.9 33.45 -2.7 26.2 -9.85 33.15 -12.75 33.9 Q-22.6 30.0 -27.5 23.65 L-27.8 23.1 -26.05 15.25 -25.0 10.75 -26.2 15.0 -33.45 16.5 -33.5 16.4 -42.4 7.35 -41.3 -0.5 -41.45 -0.65 -38.3 -6.6 -32.2 -10.35 -31.8 -15.85 -29.65 -21.1 -29.3 -22.15 -26.3 -28.05 -25.6 -29.4 -6.2 -36.5 -5.7 -36.5 14.8 -35.75 15.4 -35.7 22.35 -32.1" fill="none" stroke="#000000" stroke-linecap="round" stroke-linejoin="round" stroke-opacity="0.6" stroke-width="1.0"/>
    <path d="M32.65 -3.1 L32.6 -3.1 23.0 -9.3 18.6 -12.15 M-23.0 -25.9 L-12.85 -24.7 -4.1 -23.7 M29.75 -23.15 L23.0 -9.3 M-20.65 -17.1 L-12.85 -24.7" ffdec:has-small-stroke="true" ffdec:original-stroke-width="0.05" fill="none" stroke="#5ec4be" stroke-linecap="round" stroke-linejoin="round" stroke-width="1.0"/>
    <path d="M24.1 -13.5 Q24.1 -11.45 22.5 -10.0 20.9 -8.5 18.6 -8.5 16.3 -8.5 14.7 -10.0 13.1 -11.45 13.1 -13.5 13.1 -15.55 14.7 -17.05 16.3 -18.5 18.6 -18.5 20.9 -18.5 22.5 -17.05 24.1 -15.55 24.1 -13.5" fill="#8ac6c2" fill-rule="evenodd" stroke="none"/>
    <path d="M1.3 -23.9 Q1.3 -22.25 0.05 -21.05 -1.25 -19.85 -3.1 -19.85 -4.95 -19.85 -6.25 -21.05 -7.55 -22.25 -7.55 -23.9 -7.55 -25.55 -6.25 -26.75 -4.95 -27.9 -3.1 -27.9 -1.25 -27.9 0.05 -26.75 1.3 -25.55 1.3 -23.9" fill="#8ac6c2" fill-rule="evenodd" stroke="none"/>
  </g>
</svg>
