<?xml version="1.0" encoding="UTF-8" standalone="no"?>
<svg xmlns:ffdec="https://www.free-decompiler.com/flash" xmlns:xlink="http://www.w3.org/1999/xlink" ffdec:objectType="shape" height="56.1px" width="51.6px" xmlns="http://www.w3.org/2000/svg">
  <g transform="matrix(1.0, 0.0, 0.0, 1.0, -436.3, -304.15)">
    <path d="M471.6 316.4 Q476.25 319.05 477.85 323.15 L487.4 325.2 482.9 330.8 480.9 332.95 Q479.65 334.4 478.3 335.15 L478.25 336.65 Q478.05 338.85 477.15 341.1 L476.6 342.3 475.7 343.95 475.15 345.0 Q473.05 348.5 472.85 348.15 472.6 354.05 468.8 358.65 L468.25 359.75 465.75 356.2 464.75 351.85 461.3 352.25 460.7 352.2 459.75 351.95 457.2 351.45 456.15 352.95 Q454.35 355.1 452.6 355.65 449.9 356.7 447.7 356.15 L447.75 353.0 448.2 348.75 447.55 348.2 447.4 348.1 445.9 346.55 Q444.6 344.9 443.85 342.7 L443.75 342.45 441.65 341.75 441.55 341.7 Q438.75 340.1 436.8 337.75 L441.65 334.5 442.75 334.35 442.8 333.85 Q442.9 332.25 443.25 330.7 L443.25 330.6 444.2 327.15 444.55 326.15 445.1 324.95 445.5 324.15 445.5 324.1 Q445.0 321.8 444.85 318.9 444.8 317.6 445.2 316.25 L445.2 316.0 445.4 315.65 446.5 313.45 Q449.3 314.45 451.2 316.5 L452.05 315.85 Q453.8 314.6 455.7 313.85 457.55 313.2 459.25 313.1 462.9 306.55 465.75 304.65 471.35 310.4 471.6 316.4 M456.6 330.3 Q455.3 333.8 455.5 337.6 455.55 338.95 455.85 340.15 456.45 343.1 458.15 345.05 461.05 343.8 463.2 340.9 L466.25 334.8 466.25 334.75 Q467.15 331.7 467.0 328.4 466.9 326.1 466.25 324.3 465.6 322.4 464.3 320.9 460.55 322.65 458.0 327.15 L456.6 330.3 M456.9 345.55 L456.7 345.4 456.55 345.65 456.75 345.6 456.9 345.55 Z" fill="none" stroke="#000000" stroke-linecap="round" stroke-linejoin="round" stroke-opacity="0.29803923" stroke-width="1.0"/>
    <path d="M451.55 320.0 Q449.05 322.25 447.05 325.8 L446.4 327.15 Q445.1 324.0 444.85 318.95 444.7 316.25 446.5 313.5 450.75 315.0 452.95 318.9 L451.55 320.0" fill="#564918" fill-rule="evenodd" stroke="none"/>
    <path d="M451.55 320.0 Q449.05 322.25 447.05 325.8 L446.4 327.15 Q445.1 324.0 444.85 318.95 444.7 316.25 446.5 313.5 450.75 315.0 452.95 318.9 L451.55 320.0 Z" ffdec:has-small-stroke="true" ffdec:original-stroke-width="0.1" fill="none" stroke="#000000" stroke-linecap="round" stroke-linejoin="round" stroke-opacity="0.4" stroke-width="1.0" vector-effect="non-scaling-stroke"/>
    <path d="M445.8 333.9 Q445.65 335.45 445.75 337.0 445.9 340.25 446.85 342.75 443.95 342.8 441.65 341.8 L441.55 341.75 Q438.75 340.15 436.8 337.8 L441.65 334.55 445.8 333.9" fill="#564918" fill-rule="evenodd" stroke="none"/>
    <path d="M445.8 333.9 L441.65 334.55 436.8 337.8 Q438.75 340.15 441.55 341.75 L441.65 341.8 Q443.95 342.8 446.85 342.75" ffdec:has-small-stroke="true" ffdec:original-stroke-width="0.1" fill="none" stroke="#000000" stroke-linecap="round" stroke-linejoin="round" stroke-opacity="0.4" stroke-width="1.0" vector-effect="non-scaling-stroke"/>
    <path d="M452.5 348.5 L457.15 350.15 457.9 350.5 456.15 353.0 Q454.35 355.15 452.6 355.7 449.9 356.75 447.7 356.2 L451.85 353.85 453.65 349.75 452.5 348.5" fill="#564918" fill-rule="evenodd" stroke="none"/>
    <path d="M452.5 348.5 L453.65 349.75 451.85 353.85 447.7 356.2 447.75 353.05 Q447.9 349.9 448.55 346.55 449.75 347.45 450.9 347.9 L451.2 348.0 452.5 348.5" fill="#7e7e14" fill-rule="evenodd" stroke="none"/>
    <path d="M447.7 356.2 Q449.9 356.75 452.6 355.7 454.35 355.15 456.15 353.0 L457.9 350.5 457.15 350.15 452.5 348.5 451.2 348.0 450.9 347.9 Q449.75 347.45 448.55 346.55 447.9 349.9 447.75 353.05 L447.7 356.2 Z" ffdec:has-small-stroke="true" ffdec:original-stroke-width="0.1" fill="none" stroke="#000000" stroke-linecap="round" stroke-linejoin="round" stroke-opacity="0.4" stroke-width="1.0" vector-effect="non-scaling-stroke"/>
    <path d="M450.85 351.85 L450.3 353.25 449.85 353.95 Q449.55 354.3 449.05 353.95 448.55 353.65 448.35 352.95 448.2 352.35 448.35 351.8 L448.8 350.85 449.05 350.45 449.15 349.9 449.55 349.3 Q449.85 349.1 450.2 349.3 L450.85 349.8 451.15 350.7 450.85 351.85" fill="#d4d348" fill-opacity="0.5686275" fill-rule="evenodd" stroke="none"/>
    <path d="M468.15 317.05 L466.8 316.45 465.85 315.65 465.3 315.1 Q463.65 313.95 461.9 313.45 L461.05 313.3 459.25 313.15 Q462.9 306.6 465.75 304.7 469.3 310.65 468.15 317.05 M472.6 327.7 Q474.6 325.75 476.2 325.55 L479.25 325.6 Q480.55 325.8 481.0 327.85 481.7 330.35 480.9 333.0 479.65 334.45 478.3 335.2 476.05 336.5 472.75 331.5 472.35 330.15 472.3 329.2 472.3 328.35 472.55 327.8 L472.6 327.7 M472.85 331.8 L472.95 332.1 472.9 332.05 472.85 331.8 M468.8 358.7 L468.25 359.8 465.75 356.25 464.75 351.9 464.15 348.9 467.8 347.85 469.9 353.0 468.8 358.7" fill="#7e7e14" fill-rule="evenodd" stroke="none"/>
    <path d="M466.8 316.45 L467.9 317.9 468.15 318.3 468.5 318.9 468.65 319.15 468.85 319.5 469.0 319.75 469.4 320.75 469.45 321.0 469.6 321.35 469.7 321.5 469.75 321.8 469.9 322.3 470.35 324.4 470.4 324.7 470.45 325.15 470.45 325.25 470.55 326.85 470.1 331.95 469.95 333.15 469.95 333.2 469.95 333.35 469.9 333.5 469.9 333.65 469.85 333.8 469.0 337.2 468.9 337.4 465.4 343.85 Q464.0 345.75 462.4 347.15 462.15 347.3 462.05 347.4 L461.65 347.8 461.0 348.15 459.5 349.1 459.05 349.3 458.55 349.55 458.4 349.6 457.6 349.9 456.95 350.2 456.85 350.2 456.35 350.3 456.35 350.35 455.75 350.5 453.8 350.65 452.95 350.65 452.6 350.65 452.45 350.6 452.1 350.55 Q450.65 350.3 449.25 349.55 L447.55 348.25 447.4 348.15 450.2 344.3 Q451.75 345.55 453.4 345.9 L453.7 345.9 456.55 345.7 456.75 345.65 456.9 345.6 457.5 345.4 458.15 345.1 Q461.05 343.85 463.2 340.95 L466.25 334.85 466.25 334.8 Q467.15 331.75 467.0 328.45 466.9 326.15 466.25 324.35 465.6 322.45 464.3 320.95 L463.55 320.2 463.35 320.05 463.1 319.85 461.55 318.9 460.9 318.7 460.65 318.6 460.05 318.5 458.4 318.45 456.5 318.85 456.15 319.0 455.75 319.05 455.45 319.2 454.85 319.55 454.0 320.05 453.55 320.4 453.4 320.45 455.2 316.5 452.0 318.35 450.65 317.0 452.05 315.9 Q453.8 314.65 455.7 313.9 457.55 313.25 459.25 313.15 L461.9 313.45 Q463.65 313.95 465.3 315.1 L465.85 315.65 466.8 316.45 M459.1 314.15 L459.05 314.55 459.1 314.15 M459.25 313.15 L459.2 313.8 459.25 313.15 M459.0 314.8 L458.9 315.45 459.0 314.8 M458.6 317.45 L458.4 318.45 458.6 317.45 M458.7 316.65 L458.7 316.95 458.7 316.65 M458.85 315.8 L458.75 316.2 458.85 315.8 M467.05 323.95 L466.25 324.35 467.05 323.95 M456.75 346.5 L456.95 350.2 456.75 346.5 M456.75 346.25 L456.75 345.65 456.75 346.25 M463.2 340.95 L463.9 341.85 463.2 340.95 M464.85 343.1 L465.4 343.85 464.85 343.1 M467.8 323.5 L468.0 323.35 467.8 323.5 M469.65 322.45 L469.9 322.3 469.65 322.45 M468.35 323.15 L469.35 322.65 468.35 323.15 M466.25 334.85 L468.9 337.4 466.25 334.85" fill="#930f06" fill-rule="evenodd" stroke="none"/>
    <path d="M470.1 331.95 L470.55 326.85 470.45 325.25 470.45 325.15 470.4 324.7 470.35 324.4 469.9 322.3 469.75 321.8 469.7 321.5 469.6 321.35 469.45 321.0 469.4 320.75 469.0 319.75 468.85 319.5 468.65 319.15 468.5 318.9 468.15 318.3 467.9 317.9 466.8 316.45 468.15 317.05 Q470.75 317.6 471.6 316.45 476.25 319.1 477.85 323.2 475.3 322.3 472.6 327.7 L472.55 327.8 Q472.3 328.35 472.3 329.2 472.35 330.15 472.75 331.5 476.05 336.5 478.3 335.2 L478.25 336.7 469.35 336.25 477.15 341.15 476.6 342.35 469.2 339.7 475.15 345.05 Q473.05 348.55 472.85 348.2 L472.9 347.3 472.9 347.25 472.9 347.3 472.85 347.3 472.9 347.25 Q472.85 346.65 470.7 344.95 L464.6 346.4 464.15 348.9 464.75 351.9 461.3 352.3 460.7 352.25 459.75 352.0 452.95 350.65 453.8 350.65 455.75 350.5 456.35 350.35 456.35 350.3 456.85 350.2 456.95 350.2 457.6 349.9 458.4 349.6 458.55 349.55 459.05 349.3 459.5 349.1 461.0 348.15 461.65 347.8 462.05 347.4 Q462.15 347.3 462.4 347.15 464.0 345.75 465.4 343.85 L468.9 337.4 469.2 337.7 469.0 337.2 469.85 333.8 469.9 333.65 469.9 333.5 469.95 333.35 469.95 333.2 470.05 332.4 470.1 331.95 470.05 332.4 469.95 333.2 469.95 333.15 470.05 332.4 469.95 333.15 470.1 331.95 M470.75 334.3 L469.85 333.8 470.75 334.3 M472.75 331.6 L472.85 331.8 472.75 331.6 472.7 331.45 472.75 331.6 472.75 331.5 472.7 331.45 472.75 331.5 472.75 331.6 M472.85 331.8 L472.9 332.05 472.95 332.1 472.85 331.8 M469.0 337.2 L469.25 337.75 469.2 337.7 469.25 337.75 469.0 337.2 M456.9 350.7 L461.3 352.3 456.9 350.7" fill="#5e0000" fill-rule="evenodd" stroke="none"/>
    <path d="M468.15 317.05 Q469.3 310.65 465.75 304.7 471.35 310.45 471.6 316.45 470.75 317.6 468.15 317.05 M480.9 333.0 Q481.7 330.35 481.0 327.85 480.55 325.8 479.25 325.6 L476.2 325.55 Q474.6 325.75 472.6 327.7 475.3 322.3 477.85 323.2 L487.4 325.25 482.9 330.85 480.9 333.0 M472.85 348.2 Q472.6 354.1 468.8 358.7 L469.9 353.0 467.8 347.85 464.15 348.9 464.6 346.4 470.7 344.95 Q472.85 346.65 472.9 347.25 L472.85 347.3 472.9 347.3 472.85 348.2" fill="#564918" fill-rule="evenodd" stroke="none"/>
    <path d="M450.65 317.0 L452.0 318.35 455.2 316.5 453.4 320.45 453.25 320.55 452.2 321.45 451.6 322.0 451.15 322.5 450.85 322.85 449.95 324.1 449.9 324.2 449.65 324.65 449.1 325.45 Q448.3 327.05 447.65 328.6 L447.35 329.55 Q447.05 330.45 446.9 331.4 L446.8 332.15 446.8 332.25 446.65 333.1 446.6 333.65 446.6 334.3 446.55 335.0 446.6 335.65 446.65 335.9 Q446.7 337.55 447.05 339.0 447.45 340.9 448.45 342.35 449.1 343.35 450.1 344.2 L450.2 344.3 447.4 348.15 445.9 346.6 Q444.6 344.95 443.85 342.75 442.9 340.25 442.75 337.0 442.65 335.45 442.8 333.9 442.9 332.3 443.25 330.75 L443.25 330.65 446.8 332.25 444.2 327.2 444.55 326.2 446.8 326.8 445.1 325.0 445.5 324.15 445.8 323.5 446.15 322.8 Q448.15 319.25 450.65 317.0 M444.65 327.4 L444.2 327.2 444.65 327.4 M446.9 328.3 L447.65 328.6 446.9 328.3 M446.45 345.7 L445.9 346.6 446.45 345.7 M446.15 327.95 L445.8 327.9 446.15 327.95 M447.75 343.45 L448.45 342.35 447.75 343.45 M447.0 344.8 L446.7 345.3 447.0 344.8" fill="#b1180e" fill-rule="evenodd" stroke="none"/>
    <path d="M447.65 328.6 Q448.3 327.05 449.1 325.45 L449.65 324.65 449.9 324.2 449.95 324.1 450.85 322.85 451.15 322.5 451.6 322.0 452.2 321.45 453.25 320.55 453.4 320.45 453.55 320.4 454.0 320.05 454.85 319.55 455.45 319.2 455.75 319.05 456.15 319.0 456.5 318.85 458.4 318.45 460.05 318.5 460.65 318.6 460.9 318.7 461.55 318.9 463.1 319.85 463.35 320.05 463.55 320.2 464.3 320.95 Q460.55 322.7 458.0 327.2 L456.6 330.35 447.65 328.6 M455.85 340.2 Q456.45 343.15 458.15 345.1 L457.5 345.4 456.9 345.6 456.7 345.45 456.55 345.7 453.7 345.9 453.4 345.9 Q451.75 345.55 450.2 344.3 L450.1 344.2 Q449.1 343.35 448.45 342.35 447.45 340.9 447.05 339.0 L455.85 340.2" fill="#430303" fill-rule="evenodd" stroke="none"/>
    <path d="M459.25 313.15 L461.05 313.3 461.9 313.45 459.25 313.15 M469.0 337.2 L469.2 337.7 468.9 337.4 469.0 337.2" fill="#7e0101" fill-rule="evenodd" stroke="none"/>
    <path d="M456.6 330.35 Q455.3 333.85 455.5 337.65 455.55 339.0 455.85 340.2 L447.05 339.0 Q446.7 337.55 446.65 335.9 L446.6 335.65 446.55 335.0 446.6 334.3 446.6 333.65 446.65 333.1 446.8 332.25 446.8 332.15 446.9 331.4 Q447.05 330.45 447.35 329.55 L447.65 328.6 456.6 330.35" fill="#510909" fill-rule="evenodd" stroke="none"/>
    <path d="M476.6 342.35 L475.7 344.0 475.15 345.05 469.2 339.7 476.6 342.35 M478.25 336.7 Q478.05 338.9 477.15 341.15 L469.35 336.25 478.25 336.7" fill="#6a5a1e" fill-rule="evenodd" stroke="none"/>
    <path d="M445.1 325.0 L446.8 326.8 444.55 326.2 445.1 325.0 M446.8 332.25 L443.25 330.65 444.2 327.2 446.8 332.25" fill="#91911b" fill-rule="evenodd" stroke="none"/>
    <path d="M466.8 316.45 L467.9 317.9 468.15 318.3 468.5 318.9 468.65 319.15 468.85 319.5 469.0 319.75 469.4 320.75 469.45 321.0 469.6 321.35 469.7 321.5 469.75 321.8 469.9 322.3 470.35 324.4 470.4 324.7 470.45 325.15 470.45 325.25 470.55 326.85 470.1 331.95 470.05 332.4 469.95 333.2 469.95 333.35 469.9 333.5 469.9 333.65 469.85 333.8 470.75 334.3 M466.8 316.45 L468.15 317.05 Q470.75 317.6 471.6 316.45 471.35 310.45 465.75 304.7 462.9 306.6 459.25 313.15 L461.05 313.3 461.9 313.45 Q463.65 313.95 465.3 315.1 L465.85 315.65 466.8 316.45 M450.65 317.0 L452.05 315.9 Q453.8 314.65 455.7 313.9 457.55 313.25 459.25 313.15 L461.9 313.45 M445.5 324.15 L445.1 325.0 444.55 326.2 444.2 327.2 444.65 327.4 M447.65 328.6 Q448.3 327.05 449.1 325.45 L449.65 324.65 449.9 324.2 449.95 324.1 450.85 322.85 451.15 322.5 451.6 322.0 452.2 321.45 453.25 320.55 453.4 320.45 453.55 320.4 454.0 320.05 454.85 319.55 455.45 319.2 455.75 319.05 456.15 319.0 456.5 318.85 458.4 318.45 458.6 317.45 M458.9 315.45 L459.0 314.8 M459.2 313.8 L459.25 313.15 M459.05 314.55 L459.1 314.15 M458.4 318.45 L460.05 318.5 460.65 318.6 460.9 318.7 461.55 318.9 463.1 319.85 463.35 320.05 463.55 320.2 464.3 320.95 Q465.6 322.45 466.25 324.35 L467.05 323.95 M458.75 316.2 L458.85 315.8 M458.7 316.95 L458.7 316.65 M464.3 320.95 Q460.55 322.7 458.0 327.2 L456.6 330.35 Q455.3 333.85 455.5 337.65 455.55 339.0 455.85 340.2 456.45 343.15 458.15 345.1 461.05 343.85 463.2 340.95 L466.25 334.85 466.25 334.8 Q467.15 331.75 467.0 328.45 466.9 326.15 466.25 324.35 M446.8 332.25 L446.8 332.15 446.9 331.4 Q447.05 330.45 447.35 329.55 L447.65 328.6 446.9 328.3 M447.05 339.0 Q446.7 337.55 446.65 335.9 L446.6 335.65 446.55 335.0 446.6 334.3 446.6 333.65 446.65 333.1 446.8 332.25 M443.25 330.65 L443.25 330.75 Q442.9 332.3 442.8 333.9 442.65 335.45 442.75 337.0 442.9 340.25 443.85 342.75 444.6 344.95 445.9 346.6 L446.45 345.7 M450.2 344.3 L450.1 344.2 Q449.1 343.35 448.45 342.35 L447.75 343.45 M456.55 345.7 L453.7 345.9 453.4 345.9 Q451.75 345.55 450.2 344.3 M447.4 348.15 L447.55 348.25 449.25 349.55 M452.6 350.65 L452.95 350.65 453.8 350.65 455.75 350.5 456.35 350.35 456.35 350.3 M456.95 350.2 L456.75 346.5 M448.45 342.35 Q447.45 340.9 447.05 339.0 M456.9 345.6 L456.7 345.45 456.75 345.65 456.9 345.6 457.5 345.4 458.15 345.1 M456.75 345.65 L456.75 346.25 M456.7 345.45 L456.55 345.7 456.75 345.65 M465.4 343.85 L464.85 343.1 M463.9 341.85 L463.2 340.95 M447.65 328.6 L456.6 330.35 M480.9 333.0 L482.9 330.85 487.4 325.25 477.85 323.2 Q475.3 322.3 472.6 327.7 L472.55 327.8 Q472.3 328.35 472.3 329.2 472.35 330.15 472.75 331.5 476.05 336.5 478.3 335.2 479.65 334.45 480.9 333.0 M469.35 322.65 L468.35 323.15 M469.9 322.3 L469.65 322.45 M468.0 323.35 L467.8 323.5 M469.95 333.15 L469.95 333.2 M470.05 332.4 L469.95 333.15 470.1 331.95 M472.7 331.45 L472.75 331.6 472.75 331.5 472.7 331.45 M472.85 331.8 L472.75 331.6 M472.85 331.8 L472.95 332.1 472.9 332.05 472.85 331.8 M469.2 337.7 L469.25 337.75 469.0 337.2 469.2 337.7 468.9 337.4 465.4 343.85 Q464.0 345.75 462.4 347.15 462.15 347.3 462.05 347.4 M461.65 347.8 L461.0 348.15 459.5 349.1 459.05 349.3 M458.55 349.55 L458.4 349.6 M469.0 337.2 L468.9 337.4 466.25 334.85 M476.6 342.35 L475.7 344.0 475.15 345.05 Q473.05 348.55 472.85 348.2 472.6 354.1 468.8 358.7 L468.25 359.8 465.75 356.25 464.75 351.9 461.3 352.3 460.7 352.25 M478.3 335.2 L478.25 336.7 Q478.05 338.9 477.15 341.15 L476.6 342.35 M469.85 333.8 L469.0 337.2 M477.85 323.2 Q476.25 319.1 471.6 316.45 M464.15 348.9 L464.6 346.4 470.7 344.95 Q472.85 346.65 472.9 347.25 L472.9 347.3 472.85 348.2 M443.25 330.65 L444.2 327.2 M464.15 348.9 L464.75 351.9 M472.85 347.3 L472.9 347.3 M461.3 352.3 L456.9 350.7 M447.4 348.15 L445.9 346.6" ffdec:has-small-stroke="true" ffdec:original-stroke-width="0.1" fill="none" stroke="#000000" stroke-linecap="round" stroke-linejoin="round" stroke-opacity="0.4" stroke-width="1.0" vector-effect="non-scaling-stroke"/>
    <path d="M450.65 317.0 Q448.15 319.25 446.15 322.8 L445.8 323.5 445.5 324.15" ffdec:has-small-stroke="true" ffdec:original-stroke-width="0.1" fill="none" stroke="#000000" stroke-linecap="butt" stroke-linejoin="round" stroke-opacity="0.4" stroke-width="1.0" vector-effect="non-scaling-stroke"/>
    <path d="M445.8 327.9 L446.15 327.95 M446.7 345.3 L447.0 344.8" ffdec:has-small-stroke="true" ffdec:original-stroke-width="0.25" fill="none" stroke="#774b20" stroke-linecap="round" stroke-linejoin="round" stroke-width="1.0"/>
    <path d="M460.7 352.25 L459.75 352.0 452.95 350.65" ffdec:has-small-stroke="true" ffdec:original-stroke-width="0.1" fill="none" stroke="#000000" stroke-linecap="butt" stroke-linejoin="miter-clip" stroke-miterlimit="3.0" stroke-opacity="0.4" stroke-width="1.0" vector-effect="non-scaling-stroke"/>
    <path d="M467.85 351.4 L467.85 356.55 467.35 356.65 467.3 356.65 Q466.85 356.5 466.75 356.1 L466.5 355.05 465.55 353.0 465.45 352.7 Q465.3 352.2 465.4 351.55 465.5 351.05 465.75 350.7 L466.5 350.25 466.65 350.2 Q467.1 350.3 467.4 350.6 L467.6 350.85 467.85 351.4" fill="#d4d348" fill-opacity="0.5686275" fill-rule="evenodd" stroke="none"/>
    <path d="M474.85 330.05 Q474.35 329.45 474.5 328.55 474.8 327.65 475.7 327.25 L477.45 326.75 478.65 326.75 479.85 327.6 Q478.35 328.1 474.85 330.05" fill="#d4d348" fill-opacity="0.5686275" fill-rule="evenodd" stroke="none"/>
    <path d="M466.4 309.75 L466.55 310.55 Q466.45 311.5 465.55 311.75 L464.6 311.65 463.9 310.95 Q463.4 310.15 463.85 309.05 L464.15 308.6 Q464.6 308.15 465.3 308.45 466.05 308.8 466.4 309.75" fill="#d4d348" fill-opacity="0.5686275" fill-rule="evenodd" stroke="none"/>
    <path d="M445.65 317.35 Q445.05 316.9 445.2 316.05 445.35 315.55 445.85 315.3 L446.85 315.2 447.3 315.4 Q447.9 315.95 447.75 316.65 447.65 317.35 446.9 317.6 446.25 317.85 445.65 317.35" fill="#d4d348" fill-opacity="0.5686275" fill-rule="evenodd" stroke="none"/>
  </g>
</svg>
