<?xml version="1.0" encoding="UTF-8" standalone="no"?>
<svg xmlns:ffdec="https://www.free-decompiler.com/flash" xmlns:xlink="http://www.w3.org/1999/xlink" ffdec:objectType="shape" height="70.25px" width="181.6px" xmlns="http://www.w3.org/2000/svg">
  <g transform="matrix(1.0, 0.0, 0.0, 1.0, -146.85, -134.7)">
    <path d="M313.85 147.5 L318.1 151.05 321.15 154.0 Q323.7 156.7 326.0 159.85 L326.0 159.9 326.05 159.95 326.1 159.95 Q327.6 161.95 328.45 162.55 L326.4 162.85 326.4 162.95 293.65 168.9 292.6 167.6 Q291.1 166.2 288.65 165.75 L290.45 167.45 291.3 169.25 291.3 169.3 291.25 169.3 Q274.85 171.95 258.3 175.85 L249.95 177.85 249.2 176.3 248.9 175.8 247.4 173.3 Q247.0 174.2 246.75 175.25 246.3 176.75 246.2 178.5 L246.2 178.8 241.8 179.95 Q229.9 183.15 217.95 186.95 219.2 182.3 216.3 185.35 L216.15 185.55 Q215.3 186.55 215.1 187.85 L213.15 188.5 213.15 188.45 210.5 184.1 210.45 186.5 210.5 189.35 208.45 190.05 204.95 186.95 Q202.3 184.45 201.35 181.3 L201.05 179.95 Q200.75 178.4 200.8 176.75 200.9 174.65 201.35 172.7 202.2 169.05 204.35 165.85 L205.25 164.6 Q207.8 161.3 211.25 159.05 L211.7 158.9 213.2 158.5 218.6 156.9 Q222.6 155.65 226.75 154.9 L227.25 154.8 239.6 153.35 Q237.05 155.0 236.05 157.6 L235.85 158.1 Q234.2 160.5 231.8 162.2 L230.75 162.85 Q228.85 164.0 226.75 164.8 L223.6 165.75 215.9 166.25 Q213.95 166.0 215.4 164.2 215.85 163.75 216.4 163.8 L215.6 163.65 214.6 163.75 Q213.05 164.1 211.8 165.9 209.75 168.9 211.95 171.6 212.95 172.85 214.75 173.4 220.0 175.1 226.0 174.6 L226.75 174.55 Q230.4 174.15 233.75 172.8 236.65 171.6 238.6 169.7 L241.25 166.95 Q242.95 167.65 244.95 167.85 L248.9 168.2 258.3 168.35 269.15 167.2 Q273.2 166.65 276.75 165.1 L280.25 163.2 Q283.7 160.95 283.7 157.45 L283.25 154.7 Q282.8 153.2 281.65 152.25 277.4 148.7 272.1 150.35 269.5 151.2 268.85 153.85 268.75 154.3 268.95 154.65 269.95 156.8 272.65 156.85 L271.55 154.9 Q273.5 153.35 275.9 153.6 278.15 153.95 278.2 156.3 L278.0 157.95 Q277.35 159.95 274.9 160.8 L273.15 161.15 265.2 161.65 265.15 161.9 Q266.25 165.75 262.2 166.55 L258.3 167.0 254.8 166.8 Q251.7 166.35 251.35 163.7 251.1 161.45 252.3 160.3 253.3 159.35 255.35 159.2 L253.2 158.1 Q249.55 156.15 249.0 152.75 L248.9 152.2 248.9 152.05 Q248.8 151.1 248.95 150.1 L255.8 149.25 266.25 147.95 274.55 147.55 285.35 147.55 294.25 147.55 302.85 147.55 313.35 147.5 313.85 147.5 M216.95 163.95 L216.4 163.8 216.95 163.95" fill="#fdf3d7" fill-rule="evenodd" stroke="none"/>
    <path d="M214.75 143.75 L214.8 143.9 215.75 144.95 218.3 142.95 218.45 142.85 218.85 142.75 223.7 141.75 226.75 141.25 230.05 140.8 231.0 140.65 234.65 140.2 234.75 140.9 231.3 141.85 226.75 143.2 221.45 144.8 217.45 146.05 206.9 149.15 203.75 150.05 Q202.5 150.45 201.35 151.1 L199.75 152.05 199.6 152.15 198.75 152.75 197.25 153.85 Q195.65 155.0 194.2 156.3 191.5 158.55 189.1 161.2 L188.95 161.25 187.3 161.8 Q181.9 163.7 177.45 167.15 L177.25 167.3 Q172.75 170.75 171.9 176.55 171.65 178.25 171.7 179.95 171.75 183.8 173.2 187.5 174.35 190.4 174.75 193.55 L175.3 198.1 Q167.8 197.9 161.25 199.35 L160.8 197.8 160.55 195.95 Q158.25 197.35 157.8 199.85 L157.75 200.25 Q151.9 201.9 146.85 204.95 L148.0 201.55 Q151.8 191.2 158.1 182.2 L159.75 179.95 Q164.75 173.3 170.6 167.8 L172.45 166.1 175.4 163.5 180.45 159.6 Q185.05 156.25 190.05 153.55 L191.5 152.75 192.85 152.05 Q197.0 149.85 201.35 148.1 205.45 146.45 209.65 145.15 L214.75 143.75 M289.55 136.0 L289.2 136.05 287.0 136.4 282.55 137.25 272.35 139.15 261.1 141.1 260.85 141.15 250.7 142.55 246.35 142.95 Q243.15 142.5 243.1 139.55 L244.15 138.95 252.75 137.8 252.85 137.8 258.15 137.2 Q257.95 141.05 253.05 139.95 256.25 141.45 260.85 140.85 L261.05 140.8 Q265.7 140.15 263.8 136.5 L264.55 136.4 267.15 136.05 275.9 134.95 281.55 134.75 282.95 134.9 289.55 136.0" fill="#edc585" fill-rule="evenodd" stroke="none"/>
    <path d="M218.45 142.85 L218.3 142.95 215.75 144.95 214.8 143.9 214.75 143.75 218.45 142.85 M189.1 161.2 Q191.5 158.55 194.2 156.3 195.65 155.0 197.25 153.85 L198.75 152.75 199.6 152.15 199.75 152.05 201.35 151.1 Q202.5 150.45 203.75 150.05 L206.9 149.15 217.45 146.05 221.45 144.8 226.75 143.2 231.3 141.85 234.75 140.9 234.65 140.2 244.15 138.95 243.1 139.55 Q243.15 142.5 246.35 142.95 L189.1 161.2 M263.8 136.5 Q265.7 140.15 261.05 140.8 L260.85 140.85 Q256.25 141.45 253.05 139.95 257.95 141.05 258.15 137.2 L263.75 136.5 263.8 136.5" fill="#5c302e" fill-rule="evenodd" stroke="none"/>
    <path d="M313.35 147.5 L302.85 147.55 294.25 147.55 285.35 147.55 274.55 147.55 266.25 147.95 255.8 149.25 248.95 150.1 273.75 142.85 246.35 142.95 250.7 142.55 260.85 141.15 261.1 141.1 272.35 139.15 282.55 137.25 287.0 136.4 289.2 136.05 289.55 136.0 289.8 136.05 291.2 136.4 Q296.15 137.7 300.9 139.85 307.75 142.95 313.55 147.25 L313.35 147.5 M175.3 198.1 L174.75 193.55 Q174.35 190.4 173.2 187.5 171.75 183.8 171.7 179.95 171.65 178.25 171.9 176.55 172.75 170.75 177.25 167.3 L177.45 167.15 Q181.9 163.7 187.3 161.8 L187.95 162.35 179.1 172.7 211.25 159.05 Q207.8 161.3 205.25 164.6 L204.35 165.85 Q202.2 169.05 201.35 172.7 200.9 174.65 200.8 176.75 200.75 178.4 201.05 179.95 L201.35 181.3 Q202.3 184.45 204.95 186.95 L208.45 190.05 201.35 190.55 Q187.7 192.15 175.3 198.1" fill="#fbe8a8" fill-rule="evenodd" stroke="none"/>
    <path d="M187.3 161.8 L188.95 161.25 187.95 162.35 187.3 161.8" fill="#b0c4c8" fill-rule="evenodd" stroke="none"/>
    <path d="M188.95 161.25 L189.1 161.2 246.35 142.95 273.75 142.85 248.95 150.1 227.0 153.4 226.95 153.4 213.05 157.95 211.25 159.05 179.1 172.7 187.95 162.35 188.95 161.25" fill="#923030" fill-rule="evenodd" stroke="none"/>
    <path d="M313.85 147.5 L313.35 147.5 313.55 147.25 313.85 147.5 M226.95 153.4 L227.0 153.4 227.25 154.8 226.95 153.4" fill="#cddadc" fill-rule="evenodd" stroke="none"/>
    <path d="M248.95 150.1 Q248.8 151.1 248.9 152.05 L248.9 152.2 249.0 152.75 Q249.55 156.15 253.2 158.1 L255.35 159.2 Q253.3 159.35 252.3 160.3 251.1 161.45 251.35 163.7 251.7 166.35 254.8 166.8 L258.3 167.0 262.2 166.55 Q266.25 165.75 265.15 161.9 L265.2 161.65 273.15 161.15 274.9 160.8 Q277.35 159.95 278.0 157.95 L278.2 156.3 Q278.15 153.95 275.9 153.6 273.5 153.35 271.55 154.9 L272.65 156.85 Q269.95 156.8 268.95 154.65 268.75 154.3 268.85 153.85 269.5 151.2 272.1 150.35 277.4 148.7 281.65 152.25 282.8 153.2 283.25 154.7 L283.7 157.45 Q283.7 160.95 280.25 163.2 L276.75 165.1 Q273.2 166.65 269.15 167.2 L258.3 168.35 248.9 168.2 244.95 167.85 Q242.95 167.65 241.25 166.95 L238.6 169.7 Q236.65 171.6 233.75 172.8 230.4 174.15 226.75 174.55 L226.0 174.6 Q220.0 175.1 214.75 173.4 212.95 172.85 211.95 171.6 209.75 168.9 211.8 165.9 213.05 164.1 214.6 163.75 L215.6 163.65 216.4 163.8 Q215.85 163.75 215.4 164.2 213.95 166.0 215.9 166.25 L223.6 165.75 226.75 164.8 Q228.85 164.0 230.75 162.85 L231.8 162.2 Q234.2 160.5 235.85 158.1 L236.05 157.6 Q237.05 155.0 239.6 153.35 L227.25 154.8 226.75 154.9 Q222.6 155.65 218.6 156.9 L213.2 158.5 213.05 157.95 226.95 153.4 227.25 154.8 227.0 153.4 248.95 150.1" fill="#c11717" fill-rule="evenodd" stroke="none"/>
    <path d="M213.2 158.5 L211.7 158.9 211.25 159.05 213.05 157.95 213.2 158.5" fill="#74989c" fill-rule="evenodd" stroke="none"/>
    <path d="M157.8 199.85 Q158.25 197.35 160.55 195.95 L160.8 197.8 160.4 197.9 Q158.8 198.45 157.8 199.85 M210.45 186.5 L210.5 184.1 213.15 188.45 211.6 187.25 210.45 186.5 M216.3 185.35 Q219.2 182.3 217.95 186.95 217.5 186.05 216.7 185.65 L216.3 185.55 216.3 185.35 M246.75 175.25 Q247.0 174.2 247.4 173.3 L248.9 175.8 249.2 176.3 249.95 177.85 248.9 176.85 248.6 176.6 247.15 175.4 246.75 175.25 M290.45 167.45 L288.65 165.75 Q291.1 166.2 292.6 167.6 L293.65 168.9 292.15 168.0 291.75 167.8 290.45 167.45" fill="#ad761b" fill-rule="evenodd" stroke="none"/>
    <path d="M293.65 168.9 L326.4 162.95 326.4 162.85 328.45 162.55 Q327.6 161.95 326.1 159.95 L326.05 159.95 326.0 159.9 326.0 159.85 Q323.7 156.7 321.15 154.0 L318.1 151.05 313.85 147.5 313.35 147.5 302.85 147.55 294.25 147.55 285.35 147.55 274.55 147.55 266.25 147.95 255.8 149.25 248.95 150.1 Q248.8 151.1 248.9 152.05 L248.9 152.2 249.0 152.75 Q249.55 156.15 253.2 158.1 L255.35 159.2 Q253.3 159.35 252.3 160.3 251.1 161.45 251.35 163.7 251.7 166.35 254.8 166.8 L258.3 167.0 262.2 166.55 Q266.25 165.75 265.15 161.9 M265.2 161.65 L273.15 161.15 274.9 160.8 Q277.35 159.95 278.0 157.95 L278.2 156.3 Q278.15 153.95 275.9 153.6 273.5 153.35 271.55 154.9 L272.65 156.85 Q269.95 156.8 268.95 154.65 268.75 154.3 268.85 153.85 269.5 151.2 272.1 150.35 277.4 148.7 281.65 152.25 282.8 153.2 283.25 154.7 L283.7 157.45 Q283.7 160.95 280.25 163.2 L276.75 165.1 Q273.2 166.65 269.15 167.2 L258.3 168.35 248.9 168.2 244.95 167.85 Q242.95 167.65 241.25 166.95 L238.6 169.7 Q236.65 171.6 233.75 172.8 230.4 174.15 226.75 174.55 L226.0 174.6 Q220.0 175.1 214.75 173.4 212.95 172.85 211.95 171.6 209.75 168.9 211.8 165.9 213.05 164.1 214.6 163.75 L215.6 163.65 216.4 163.8 216.95 163.95 M326.05 159.95 L326.05 159.85 326.1 159.95 M218.45 142.85 L218.3 142.95 215.75 144.95 214.8 143.9 214.75 143.75 209.65 145.15 Q205.45 146.45 201.35 148.1 197.0 149.85 192.85 152.05 L191.5 152.75 190.05 153.55 Q185.05 156.25 180.45 159.6 L175.4 163.5 172.45 166.1 170.6 167.8 Q164.75 173.3 159.75 179.95 L158.1 182.2 Q151.8 191.2 148.0 201.55 L146.85 204.95 Q151.9 201.9 157.75 200.25 L157.8 199.85 Q158.25 197.35 160.55 195.95 L160.8 197.8 161.25 199.35 Q167.8 197.9 175.3 198.1 187.7 192.15 201.35 190.55 L208.45 190.05 210.5 189.35 210.45 186.5 210.5 184.1 213.15 188.45 213.15 188.5 215.1 187.85 Q215.3 186.55 216.15 185.55 L216.3 185.35 Q219.2 182.3 217.95 186.95 229.9 183.15 241.8 179.95 L246.2 178.8 246.2 178.5 Q246.3 176.75 246.75 175.25 247.0 174.2 247.4 173.3 L248.9 175.8 249.2 176.3 249.95 177.85 258.3 175.85 Q274.85 171.95 291.25 169.3 L291.3 169.3 291.3 169.25 290.45 167.45 288.65 165.75 Q291.1 166.2 292.6 167.6 L293.65 168.9 292.15 168.0 291.75 167.8 290.45 167.45 M234.65 140.2 L231.0 140.65 230.05 140.8 226.75 141.25 223.7 141.75 218.85 142.75 218.45 142.85 214.75 143.75 M211.25 159.05 Q207.8 161.3 205.25 164.6 L204.35 165.85 Q202.2 169.05 201.35 172.7 200.9 174.65 200.8 176.75 200.75 178.4 201.05 179.95 L201.35 181.3 Q202.3 184.45 204.95 186.95 L208.45 190.05 M216.4 163.8 Q215.85 163.75 215.4 164.2 213.95 166.0 215.9 166.25 L223.6 165.75 226.75 164.8 Q228.85 164.0 230.75 162.85 L231.8 162.2 Q234.2 160.5 235.85 158.1 L236.05 157.6 Q237.05 155.0 239.6 153.35 L227.25 154.8 226.75 154.9 Q222.6 155.65 218.6 156.9 L213.2 158.5 211.7 158.9 211.25 159.05 M216.3 185.55 L216.15 185.55 M213.15 188.45 L211.6 187.25 210.45 186.5 M217.95 186.95 Q217.5 186.05 216.7 185.65 L216.3 185.55 M313.55 147.25 Q307.75 142.95 300.9 139.85 296.15 137.7 291.2 136.4 L289.8 136.05 289.55 136.0 282.95 134.9 281.55 134.75 275.9 134.95 267.15 136.05 264.55 136.4 263.8 136.5 263.75 136.5 258.15 137.2 252.85 137.8 252.75 137.8 244.15 138.95 234.65 140.2 M313.55 147.25 L313.85 147.5 M249.95 177.85 L248.9 176.85 248.6 176.6 247.15 175.4 246.75 175.25 M160.4 197.9 Q158.8 198.45 157.8 199.85" ffdec:has-small-stroke="true" ffdec:original-stroke-width="0.05" fill="none" stroke="#cc9900" stroke-linecap="round" stroke-linejoin="round" stroke-width="1.0"/>
    <path d="M263.8 136.5 Q265.7 140.15 261.05 140.8 L260.85 140.85 Q256.25 141.45 253.05 139.95 257.95 141.05 258.15 137.2" ffdec:has-small-stroke="true" ffdec:original-stroke-width="0.05" fill="none" stroke="#333333" stroke-linecap="round" stroke-linejoin="round" stroke-width="1.0"/>
  </g>
</svg>
