<?xml version="1.0" encoding="UTF-8" standalone="no"?>
<svg xmlns:ffdec="https://www.free-decompiler.com/flash" xmlns:xlink="http://www.w3.org/1999/xlink" ffdec:objectType="shape" height="28.15px" width="29.6px" xmlns="http://www.w3.org/2000/svg">
  <g transform="matrix(1.0, 0.0, 0.0, 1.0, 0.5, 0.5)">
    <path d="M15.45 0.05 Q20.65 0.3 24.4 3.35 28.6 6.7 28.6 11.45 28.6 16.2 24.4 19.55 L23.75 20.05 Q3.6 18.55 2.5 12.3 2.35 11.55 2.5 10.75 2.75 9.1 4.1 7.2 6.45 4.2 11.65 0.2 L10.0 1.6 Q12.8 2.3 11.9 2.5 L11.2 2.55 Q9.8 2.8 9.8 3.1 L9.85 3.15 Q8.6 3.75 8.6 4.25 8.6 4.8 10.45 5.25 L10.65 5.3 Q8.6 7.7 8.6 9.35 8.55 11.25 10.75 12.6 12.95 13.9 16.05 13.9 19.15 13.9 22.5 12.8 25.8 11.65 26.25 9.75 26.7 7.85 25.5 5.7 24.25 3.5 19.35 2.35 L16.7 2.0 Q15.65 2.0 15.0 0.25 L15.45 0.05" fill="#b5501a" fill-rule="evenodd" stroke="none"/>
    <path d="M16.7 2.0 L19.35 2.35 Q24.25 3.5 25.5 5.7 26.7 7.85 26.25 9.75 25.8 11.65 22.5 12.8 19.15 13.9 16.05 13.9 12.95 13.9 10.75 12.6 8.55 11.25 8.6 9.35 8.6 7.7 10.65 5.3 L14.9 5.65 19.35 5.25 Q21.15 4.8 21.2 4.25 21.15 3.65 19.35 3.15 L19.3 3.15 19.3 3.1 Q19.3 2.8 17.9 2.55 17.3 2.45 16.7 2.0" fill="#8a3d13" fill-rule="evenodd" stroke="none"/>
    <path d="M21.3 21.5 L25.0 21.4 Q25.0 22.25 23.1 22.95 L24.6 23.15 Q28.25 23.85 28.25 24.85 28.25 25.8 24.6 26.5 L15.9 27.15 7.15 26.5 Q3.5 25.8 3.55 24.85 3.5 23.85 7.15 23.15 L7.95 23.05 Q6.05 22.45 5.15 20.8 L5.25 20.75 5.7 21.4 5.65 20.85 Q7.2 22.0 9.25 22.5 L14.3 22.95 Q18.2 22.9 21.3 21.5 M7.95 23.05 L8.55 23.2 Q11.35 23.95 15.35 23.95 L22.15 23.2 23.1 22.95 22.15 23.2 15.35 23.95 Q11.35 23.95 8.55 23.2 L7.95 23.05" fill="#727107" fill-rule="evenodd" stroke="none"/>
    <path d="M23.75 20.05 L21.3 21.5 Q18.2 22.9 14.3 22.95 8.35 22.9 4.15 19.55 L2.5 17.95 Q0.0 15.1 0.0 11.45 0.0 7.8 2.5 4.95 L4.15 3.35 Q7.4 0.75 11.65 0.2 6.45 4.2 4.1 7.2 2.75 9.1 2.5 10.75 2.35 11.55 2.5 12.3 3.6 18.55 23.75 20.05 M11.95 0.15 L14.3 0.0 14.6 0.0 14.85 0.0 14.9 0.0 15.45 0.05 15.0 0.25 14.95 0.15 14.85 0.0 14.8 0.35 11.95 0.15" fill="#793511" fill-rule="evenodd" stroke="none"/>
    <path d="M10.65 5.3 L10.45 5.25 Q8.6 4.8 8.6 4.25 8.6 3.75 9.85 3.15 9.95 3.4 11.2 3.6 L14.55 3.85 17.9 3.6 19.3 3.15 19.35 3.15 Q21.15 3.65 21.2 4.25 21.15 4.8 19.35 5.25 L14.9 5.65 10.65 5.3" fill="#e2753a" fill-rule="evenodd" stroke="none"/>
    <path d="M11.65 0.2 L11.75 0.1 11.95 0.15 10.0 1.6 11.65 0.2 M15.0 0.25 L14.8 0.35 14.85 0.0 14.95 0.15 15.0 0.25" fill="#eda985" fill-rule="evenodd" stroke="none"/>
    <path d="M15.0 0.25 Q15.65 2.0 16.7 2.0 17.3 2.45 17.9 2.55 19.3 2.8 19.3 3.1 L19.3 3.15 17.9 3.6 14.55 3.85 11.2 3.6 Q9.95 3.4 9.85 3.15 L9.8 3.1 Q9.8 2.8 11.2 2.55 L11.9 2.5 Q12.8 2.3 10.0 1.6 L11.95 0.15 14.8 0.35 15.0 0.25" fill="#f5d1be" fill-rule="evenodd" stroke="none"/>
    <path d="M15.45 0.05 Q20.65 0.3 24.4 3.35 28.6 6.7 28.6 11.45 28.6 16.2 24.4 19.55 L23.75 20.05 21.3 21.5 25.0 21.4 Q25.0 22.25 23.1 22.95 L24.6 23.15 Q28.25 23.85 28.25 24.85 28.25 25.8 24.6 26.5 L15.9 27.15 7.15 26.5 Q3.5 25.8 3.55 24.85 3.5 23.85 7.15 23.15 L7.95 23.05 Q6.05 22.45 5.15 20.8 L5.1 20.85 Q4.8 21.1 4.9 20.25 L5.45 20.7 5.65 20.85 Q7.2 22.0 9.25 22.5 L14.3 22.95 Q8.35 22.9 4.15 19.55 L2.5 17.95 Q0.0 15.1 0.0 11.45 0.0 7.8 2.5 4.95 L4.15 3.35 Q7.4 0.75 11.65 0.2 L11.75 0.1 11.95 0.15 14.3 0.0 14.6 0.0 14.85 0.0 14.9 0.0 15.45 0.05 15.0 0.25 14.8 0.35 11.95 0.15 10.0 1.6 11.65 0.2 Q6.45 4.2 4.1 7.2 2.75 9.1 2.5 10.75 2.35 11.55 2.5 12.3 3.6 18.55 23.75 20.05 M23.1 22.95 L22.15 23.2 15.35 23.95 Q11.35 23.95 8.55 23.2 L7.95 23.05 M5.65 20.85 L5.7 21.4 5.25 20.75 5.15 20.8 4.9 20.25 5.25 20.75 5.45 20.7 M21.3 21.5 Q18.2 22.9 14.3 22.95" fill="none" stroke="#000000" stroke-linecap="round" stroke-linejoin="round" stroke-opacity="0.3019608" stroke-width="1.0"/>
  </g>
</svg>
