<?xml version="1.0" encoding="UTF-8" standalone="no"?>
<svg xmlns:ffdec="https://www.free-decompiler.com/flash" xmlns:xlink="http://www.w3.org/1999/xlink" ffdec:objectType="shape" height="123.55px" width="113.25px" xmlns="http://www.w3.org/2000/svg">
  <g transform="matrix(1.0, 0.0, 0.0, 1.0, 56.6, 61.75)">
    <path d="M-2.25 61.55 Q19.95 53.25 24.95 29.85 L25.15 28.75 Q31.5 -4.15 10.75 -33.75 L9.95 -34.65 8.3 -36.1 Q-13.25 -57.05 -38.85 -45.4 -34.9 -48.75 -30.15 -50.8 -13.8 -58.1 -4.8 -60.5 12.55 -65.2 29.25 -52.2 45.9 -39.25 53.05 -15.9 60.2 7.4 53.15 25.8 46.1 44.15 34.0 49.25 21.9 54.3 10.75 58.6 10.2 58.6 3.0 60.55 L-2.25 61.55" fill="url(#gradient0)" fill-rule="evenodd" stroke="none"/>
    <path d="M9.95 44.0 Q4.85 50.65 -2.9 52.75 -15.8 56.2 -28.55 45.1 -41.3 33.95 -46.45 14.85 -51.55 -4.3 -46.05 -20.3 -40.6 -36.3 -27.7 -39.75 -22.15 -41.25 -16.6 -40.0 -19.95 -35.65 -22.1 -29.3 -27.6 -13.3 -22.5 5.85 -17.35 24.95 -4.6 36.1 2.65 42.4 9.95 44.0" fill="url(#gradient1)" fill-rule="evenodd" stroke="none"/>
    <path d="M-38.85 -45.4 Q-13.25 -57.05 8.3 -36.1 L9.95 -34.65 10.75 -33.75 Q31.5 -4.15 25.15 28.75 L24.95 29.85 Q19.95 53.25 -2.25 61.55 -16.8 63.35 -31.05 52.25 -47.75 39.25 -53.9 16.3 -60.1 -6.7 -52.1 -26.3 -47.15 -38.55 -38.85 -45.4 M9.95 44.0 Q13.25 39.65 15.45 33.3 20.9 17.3 15.8 -1.85 10.65 -21.0 -2.1 -32.1 -9.35 -38.4 -16.6 -40.0 -22.15 -41.25 -27.7 -39.75 -40.6 -36.3 -46.05 -20.3 -51.55 -4.3 -46.45 14.85 -41.3 33.95 -28.55 45.1 -15.8 56.2 -2.9 52.75 4.85 50.65 9.95 44.0" fill="url(#gradient2)" fill-rule="evenodd" stroke="none"/>
    <path d="M10.75 58.6 Q21.9 54.3 34.0 49.25 46.1 44.15 53.15 25.8 60.2 7.4 53.05 -15.9 45.9 -39.25 29.25 -52.2 12.55 -65.2 -4.8 -60.5 -13.8 -58.1 -30.15 -50.8 M-16.6 -40.0 Q-19.95 -35.65 -22.1 -29.3 -27.6 -13.3 -22.5 5.85 -17.35 24.95 -4.6 36.1 2.65 42.4 9.95 44.0" ffdec:has-small-stroke="true" ffdec:original-stroke-width="0.05" fill="none" stroke="#000000" stroke-linecap="round" stroke-linejoin="round" stroke-opacity="0.5294118" stroke-width="1.0"/>
    <path d="M-2.25 61.55 L3.0 60.55 Q10.2 58.6 10.75 58.6 M-30.15 -50.8 Q-34.9 -48.75 -38.85 -45.4 -47.15 -38.55 -52.1 -26.3 -60.1 -6.7 -53.9 16.3 -47.75 39.25 -31.05 52.25 -16.8 63.35 -2.25 61.55 M-16.6 -40.0 Q-9.35 -38.4 -2.1 -32.1 10.65 -21.0 15.8 -1.85 20.9 17.3 15.45 33.3 13.25 39.65 9.95 44.0" ffdec:has-small-stroke="true" ffdec:original-stroke-width="0.05" fill="none" stroke="#000000" stroke-linecap="round" stroke-linejoin="round" stroke-opacity="0.5294118" stroke-width="1.0"/>
  </g>
  <defs>
    <linearGradient gradientTransform="matrix(-0.0193, -0.0531, 0.0451, -0.0164, 13.75, -9.3)" gradientUnits="userSpaceOnUse" id="gradient0" spreadMethod="pad" x1="-819.2" x2="819.2">
      <stop offset="0.0" stop-color="#ffcc00"/>
      <stop offset="0.3058823529411765" stop-color="#d7ac00"/>
      <stop offset="0.6823529411764706" stop-color="#feeeb4"/>
      <stop offset="1.0" stop-color="#ffcc00"/>
    </linearGradient>
    <linearGradient gradientTransform="matrix(0.0102, 0.0384, -0.0278, 0.0073, -24.75, 5.0)" gradientUnits="userSpaceOnUse" id="gradient1" spreadMethod="pad" x1="-819.2" x2="819.2">
      <stop offset="0.0" stop-color="#6d5701"/>
      <stop offset="0.3058823529411765" stop-color="#d7ac00"/>
      <stop offset="0.6823529411764706" stop-color="#feeeb4"/>
      <stop offset="1.0" stop-color="#7d6402"/>
    </linearGradient>
    <linearGradient gradientTransform="matrix(0.0221, 0.0607, -0.0467, 0.017, -14.8, 5.6)" gradientUnits="userSpaceOnUse" id="gradient2" spreadMethod="pad" x1="-819.2" x2="819.2">
      <stop offset="0.0" stop-color="#f6e5a9"/>
      <stop offset="0.3058823529411765" stop-color="#d7ac00"/>
      <stop offset="0.6823529411764706" stop-color="#feeeb4"/>
      <stop offset="1.0" stop-color="#f4e3a6"/>
    </linearGradient>
  </defs>
</svg>
