<?xml version="1.0" encoding="UTF-8" standalone="no"?>
<svg xmlns:ffdec="https://www.free-decompiler.com/flash" xmlns:xlink="http://www.w3.org/1999/xlink" ffdec:objectType="shape" height="71.0px" width="68.9px" xmlns="http://www.w3.org/2000/svg">
  <g transform="matrix(1.0, 0.0, 0.0, 1.0, 36.4, 33.75)">
    <path d="M-36.4 -1.25 Q-21.4 -3.5 -3.1 -3.5 16.65 -3.5 32.5 -0.9 L32.5 34.65 Q16.65 37.25 -3.1 37.25 -21.4 37.25 -36.4 35.0 L-36.4 -1.25" fill="url(#gradient0)" fill-rule="evenodd" stroke="none"/>
    <path d="M16.85 -1.45 L18.6 -1.6 18.8 -2.75 19.45 -1.75 20.95 -2.1 20.2 -1.0 21.45 0.4 19.35 -0.35 17.7 0.85 18.25 -0.75 16.85 -1.45 M11.4 8.45 L12.05 11.4 16.15 11.75 13.4 13.85 15.2 18.3 10.75 14.75 5.6 16.3 8.4 12.85 5.6 9.95 9.95 10.95 11.4 8.45 M17.45 10.6 L17.7 12.9 16.1 10.65 13.5 10.75 15.25 9.5 14.3 7.75 16.2 8.8 17.2 7.8 17.15 9.25 19.0 9.95 17.45 10.6 M6.6 3.1 L9.1 5.7 5.0 4.5 1.9 7.0 2.85 3.8 0.1 2.6 3.4 2.1 3.7 -0.05 5.0 1.8 7.9 0.9 6.6 3.1" fill="#effc94" fill-rule="evenodd" stroke="none"/>
    <path d="M17.3 18.75 L17.8 18.8 17.75 18.85 17.3 18.75 M25.75 15.8 L25.7 15.6 25.95 15.8 25.75 15.8" fill="#d6aa16" fill-rule="evenodd" stroke="none"/>
    <path d="M15.25 18.35 L15.3 18.3 15.55 18.35 15.2 18.35 15.25 18.35" fill="#893414" fill-rule="evenodd" stroke="none"/>
    <path d="M-1.1 -33.6 L-0.95 -33.65 -1.0 -33.75 7.45 -32.45 Q0.7 -29.0 -3.5 -23.8 0.55 -18.0 7.95 -16.2 2.75 -11.4 -4.25 -12.0 -2.9 -13.7 -2.3 -15.2 -0.9 -18.35 -8.5 -23.55 -1.95 -26.3 2.65 -31.2 1.7 -32.85 -1.1 -33.6" fill="#c8d8ce" fill-rule="evenodd" stroke="none"/>
    <path d="M-18.05 -26.75 L-17.6 -26.7 -9.3 -19.55 Q-10.2 -17.55 -16.15 -11.35 -14.75 -8.6 -11.35 -7.45 -16.95 -6.2 -18.25 -10.6 -14.25 -14.5 -11.75 -19.25 -14.35 -23.15 -18.05 -26.75" fill="#c9d9cf" fill-opacity="0.6627451" fill-rule="evenodd" stroke="none"/>
    <path d="M-15.45 3.65 L-15.45 3.7 -15.45 3.65 M-17.75 2.9 L-17.85 2.85 -17.75 2.9 M-21.15 1.7 L-21.2 1.7 -21.25 1.65 -21.15 1.7 M-22.7 1.2 L-24.8 0.5 -24.75 0.4 -22.1 1.35 -22.7 1.2" fill="#f1d978" fill-rule="evenodd" stroke="none"/>
    <path d="M-6.7 28.85 L-6.6 28.7 -6.55 28.7 -6.7 28.85" fill="#554035" fill-rule="evenodd" stroke="none"/>
    <path d="M-15.45 3.7 L-15.4 5.3 -15.4 7.2 -15.4 8.2 -15.3 13.25 -15.3 14.4 -15.25 17.55 -15.15 21.1 -15.15 22.0 -15.1 23.45 -15.05 26.6 -15.0 28.25 -14.9 32.1 -15.05 33.8 Q-20.05 31.75 -25.0 29.75 L-26.05 27.0 -26.05 21.55 -24.35 19.0 -26.05 17.0 -26.05 9.95 -25.4 9.15 -26.05 8.35 -26.05 2.55 -24.8 0.5 -22.7 1.2 -22.5 3.35 -21.2 1.7 -21.15 1.7 -19.65 2.2 -19.4 2.3 -18.8 5.45 -17.75 2.9 -17.25 3.05 -15.45 3.65 -15.45 3.7" fill="#ef6252" fill-rule="evenodd" stroke="none"/>
    <path d="M8.45 -4.6 L8.6 -5.75 11.1 -5.4 11.4 -5.5 13.9 -6.4 14.1 -7.15 14.95 -6.9 15.15 -6.8 15.35 -6.85 16.55 -7.25 16.7 -7.3 16.85 -7.5 17.8 -8.55 19.25 -8.2 19.4 -8.2 19.9 -8.35 24.2 -9.75 24.25 -8.6 23.7 -8.05 24.25 -7.8 24.35 -5.0 22.95 -2.95 24.55 0.65 24.7 5.0 23.7 6.05 24.75 6.6 24.75 7.65 23.55 8.1 24.8 9.0 24.9 12.0 24.2 14.3 25.0 15.25 25.05 15.2 25.7 15.6 25.75 15.8 26.1 16.9 19.0 19.2 17.8 18.8 17.3 18.75 15.15 18.35 15.2 18.35 15.55 18.35 15.3 18.3 15.25 18.35 10.8 18.85 2.3 24.4 2.35 24.45 1.15 25.55 -6.35 28.15 -6.6 28.7 -6.7 28.85 -8.75 31.2 -15.05 33.8 -14.9 32.1 -15.0 28.25 -15.05 26.6 -15.1 23.45 -15.15 22.0 -15.15 21.1 -15.25 17.55 -15.3 14.4 -15.3 13.25 -15.4 8.2 -15.4 7.2 -15.4 5.3 -15.45 3.7 -15.45 3.65 -15.45 3.25 -14.85 3.0 -14.8 3.0 -14.8 2.95 -14.9 2.05 -12.25 2.2 -9.95 1.45 -9.8 0.4 -7.45 0.6 -4.1 -0.5 -4.45 -1.0 -3.25 -0.8 -2.9 -0.85 -0.65 -1.6 -0.65 -1.7 -0.65 -1.85 1.75 -3.7 6.9 -4.1 7.25 -4.2 8.45 -4.6 M16.85 -1.45 L18.25 -0.75 17.7 0.85 19.35 -0.35 21.45 0.4 20.2 -1.0 20.95 -2.1 19.45 -1.75 18.8 -2.75 18.6 -1.6 16.85 -1.45 M-5.05 10.65 L-4.95 10.0 -4.95 9.3 Q-4.95 6.35 -6.4 4.25 -7.8 2.2 -9.8 2.2 -11.8 2.2 -13.2 4.25 L-13.25 4.35 Q-14.65 6.4 -14.65 9.3 L-14.45 11.3 -13.85 13.1 -13.45 13.95 -13.2 14.3 -12.5 15.15 Q-11.35 16.35 -9.8 16.35 L-8.45 16.1 -8.4 16.1 -7.85 17.2 -7.75 15.7 -7.5 15.55 -6.4 14.3 -6.0 13.7 -5.7 13.05 -5.0 13.1 -5.5 12.55 -5.4 12.35 -5.25 11.75 -5.2 11.65 -5.15 11.45 -5.15 11.35 -3.45 10.8 -5.05 10.65 M-5.7 23.7 L-0.1 18.4 1.0 12.15 -0.1 18.4 -5.7 23.7 M16.5 2.35 L16.65 0.05 16.15 -1.7 16.65 0.05 16.5 2.35 M11.4 8.45 L9.95 10.95 5.6 9.95 8.4 12.85 5.6 16.3 10.75 14.75 15.2 18.3 13.4 13.85 16.15 11.75 12.05 11.4 11.4 8.45 M17.45 10.6 L19.0 9.95 17.15 9.25 17.2 7.8 16.2 8.8 14.3 7.75 15.25 9.5 13.5 10.75 16.1 10.65 17.7 12.9 17.45 10.6 M6.6 3.1 L7.9 0.9 5.0 1.8 3.7 -0.05 3.4 2.1 0.1 2.6 2.85 3.8 1.9 7.0 5.0 4.5 9.1 5.7 6.6 3.1 M9.9 10.0 L9.55 6.05 9.9 10.0" fill="#c02312" fill-rule="evenodd" stroke="none"/>
    <path d="M-5.05 10.65 L-3.45 10.8 -5.15 11.35 -5.15 11.45 -5.2 11.65 -5.25 11.75 -5.4 12.35 -5.5 12.55 -5.0 13.1 -5.7 13.05 -6.0 13.7 -6.4 14.3 -7.5 15.55 -7.75 15.7 -7.85 17.2 -8.4 16.1 -8.45 16.1 -9.8 16.35 Q-11.35 16.35 -12.5 15.15 L-13.2 14.3 -13.45 13.95 -13.85 13.1 -14.45 11.3 -14.65 9.3 Q-14.65 6.4 -13.25 4.35 -7.0 1.9 -5.05 10.55 L-5.05 10.65" fill="#78160c" fill-rule="evenodd" stroke="none"/>
    <path d="M-13.25 4.35 L-13.2 4.25 Q-11.8 2.2 -9.8 2.2 -7.8 2.2 -6.4 4.25 -4.95 6.35 -4.95 9.3 L-4.95 10.0 -5.05 10.65 -5.05 10.55 Q-7.0 1.9 -13.25 4.35" fill="#470e07" fill-rule="evenodd" stroke="none"/>
    <path d="M11.4 -5.5 L11.1 -5.4 8.6 -5.75 8.45 -4.6 7.25 -4.2 6.9 -4.1 1.75 -3.7 -0.65 -1.85 -0.65 -1.7 -0.65 -1.6 -2.9 -0.85 -3.25 -0.8 -4.45 -1.0 -4.1 -0.5 -7.45 0.6 -9.8 0.4 -9.95 1.45 -12.25 2.2 -14.9 2.05 -14.8 2.95 -14.8 3.0 -14.85 3.0 -15.45 3.25 -15.45 3.65 -17.25 3.05 -17.75 2.9 -18.8 5.45 -19.4 2.3 -19.65 2.2 -21.15 1.7 -21.25 1.65 -21.2 1.7 -22.5 3.35 -22.7 1.2 -22.1 1.35 -24.75 0.4 -24.05 -0.8 8.2 -10.75 9.8 -10.2 10.55 -11.45 13.95 -12.55 19.3 -11.1 19.65 -10.35 20.35 -10.8 24.2 -9.75 19.9 -8.35 19.4 -8.2 19.25 -8.2 17.8 -8.55 16.85 -7.5 16.7 -7.3 16.55 -7.25 15.35 -6.85 15.15 -6.8 14.95 -6.9 14.1 -7.15 13.9 -6.4 11.4 -5.5 M-17.85 2.85 L-17.75 2.9 -17.85 2.85" fill="#f8ba92" fill-rule="evenodd" stroke="none"/>
    <path d="M8.45 -4.6 L7.25 -4.2 M-0.65 -1.7 L-0.65 -1.6 -2.9 -0.85 M-4.1 -0.5 L-7.45 0.6 M-9.95 1.45 L-12.25 2.2 M-14.8 2.95 L-14.8 3.0 -14.85 3.0 -15.45 3.25 -15.45 3.65 -15.45 3.7 -15.4 5.3 M-15.4 7.2 L-15.4 8.2 M-15.3 13.25 L-15.3 14.4 M-15.25 17.55 L-15.15 21.1 M-15.15 22.0 L-15.1 23.45 M-15.05 26.6 L-15.0 28.25 M16.85 -7.5 L16.7 -7.3 16.55 -7.25 15.35 -6.85 15.15 -6.8 14.95 -6.9 M13.9 -6.4 L11.4 -5.5 M-5.25 11.75 L-5.4 12.35 M-5.7 13.05 L-6.0 13.7 -6.4 14.3 -7.5 15.55 M-8.45 16.1 L-9.8 16.35 Q-11.35 16.35 -12.5 15.15 M-17.85 2.85 L-17.75 2.9 -17.25 3.05 M-19.65 2.2 L-21.15 1.7 -21.25 1.65 M-15.45 3.7 L-15.45 3.65 M1.0 12.15 L-0.1 18.4 -5.7 23.7 M16.15 -1.7 L16.65 0.05 16.5 2.35 M9.55 6.05 L9.9 10.0" ffdec:has-small-stroke="true" ffdec:original-stroke-width="0.05" fill="none" stroke="#4b3e07" stroke-linecap="round" stroke-linejoin="round" stroke-width="1.0"/>
    <path d="M-14.9 32.1 L-15.05 33.8 -8.75 31.2 -6.7 28.85 -6.55 28.7 M-6.35 28.15 L1.15 25.55 2.35 24.45 M2.3 24.4 L10.8 18.85 15.25 18.35 M17.3 18.75 L17.8 18.8 19.0 19.2 26.1 16.9 25.75 15.8 25.7 15.6 M24.2 14.3 L24.9 12.0 24.8 9.0 23.55 8.1 24.75 7.65 24.75 6.6 23.7 6.05 24.7 5.0 24.55 0.65 22.95 -2.95 24.35 -5.0 24.25 -7.8 23.7 -8.05 24.25 -8.6 24.2 -9.75 19.9 -8.35 19.4 -8.2 19.25 -8.2 M-24.75 0.4 L-24.05 -0.8 8.2 -10.75 9.8 -10.2 10.55 -11.45 13.95 -12.55 19.3 -11.1 19.65 -10.35 20.35 -10.8 24.2 -9.75 M-22.7 1.2 L-24.8 0.5 -26.05 2.55 -26.05 8.35 -25.4 9.15 -26.05 9.95 -26.05 17.0 -24.35 19.0 -26.05 21.55 -26.05 27.0 -25.0 29.75 Q-20.05 31.75 -15.05 33.8 M-24.8 0.5 L-24.75 0.4 M17.8 18.8 L17.75 18.85" ffdec:has-small-stroke="true" ffdec:original-stroke-width="0.05" fill="none" stroke="#5c3d0a" stroke-linecap="round" stroke-linejoin="round" stroke-width="1.0"/>
    <path d="M-6.7 28.85 L-6.6 28.7 -6.35 28.15 M25.7 15.6 L25.05 15.2" ffdec:has-small-stroke="true" ffdec:original-stroke-width="0.05" fill="none" stroke="#1c2020" stroke-linecap="round" stroke-linejoin="round" stroke-width="1.0"/>
  </g>
  <defs>
    <radialGradient cx="0" cy="0" gradientTransform="matrix(0.0878, 0.0, 0.0, 0.0669, -3.1, 16.85)" gradientUnits="userSpaceOnUse" id="gradient0" r="819.2" spreadMethod="pad">
      <stop offset="0.07058823529411765" stop-color="#a76b6b"/>
      <stop offset="0.36470588235294116" stop-color="#ffffff" stop-opacity="0.0"/>
    </radialGradient>
  </defs>
</svg>
