<?xml version="1.0" encoding="UTF-8" standalone="no"?>
<svg xmlns:ffdec="https://www.free-decompiler.com/flash" xmlns:xlink="http://www.w3.org/1999/xlink" ffdec:objectType="shape" height="59.4px" width="54.1px" xmlns="http://www.w3.org/2000/svg">
  <g transform="matrix(1.0, 0.0, 0.0, 1.0, 0.0, 25.5)">
    <path d="M54.1 7.8 L54.1 32.1 Q42.8 33.9 28.75 33.9 15.7 33.9 5.0 32.35 L5.0 7.55 Q15.7 6.0 28.75 6.0 42.8 6.0 54.1 7.8" fill="url(#gradient0)" fill-rule="evenodd" stroke="none"/>
    <path d="M28.9 -25.35 L29.0 -25.4 28.95 -25.5 37.4 -24.2 Q30.65 -20.75 26.45 -15.55 30.5 -9.75 37.9 -7.95 32.7 -3.15 25.7 -3.75 27.05 -5.45 27.65 -6.95 29.05 -10.1 21.45 -15.3 28.0 -18.05 32.6 -22.95 31.65 -24.6 28.9 -25.35" fill="#c8d8ce" fill-rule="evenodd" stroke="none"/>
    <path d="M11.9 -18.5 L12.35 -18.45 20.65 -11.3 Q19.75 -9.3 13.8 -3.1 15.2 -0.35 18.6 0.8 13.0 2.05 11.7 -2.35 15.7 -6.25 18.2 -11.0 15.6 -14.9 11.9 -18.5" fill="#c9d9cf" fill-opacity="0.6627451" fill-rule="evenodd" stroke="none"/>
    <path d="M27.1 6.55 L26.85 6.65 27.1 6.55 27.25 6.65 26.85 6.65 27.1 6.55" fill="#ff9900" fill-rule="evenodd" stroke="none"/>
    <path d="M7.1 7.55 L7.1 7.6 6.5 7.65 7.1 7.55" fill="#ffcc33" fill-rule="evenodd" stroke="none"/>
    <path d="M6.05 16.75 L6.95 16.6 Q8.65 17.35 6.95 19.4 7.4 17.55 6.05 16.75" fill="#9f9c55" fill-rule="evenodd" stroke="none"/>
    <path d="M22.65 17.5 L22.9 19.7 22.9 19.8 21.3 17.55 18.7 17.65 20.45 16.4 19.5 14.65 21.4 15.7 22.4 14.7 22.35 16.15 24.2 16.85 22.65 17.5 M16.05 9.7 L13.3 8.5 16.6 8.0 16.9 5.85 18.2 7.7 21.1 6.8 19.8 9.0 22.3 11.6 18.2 10.4 15.1 12.9 16.05 9.7" fill="#fbebd2" fill-rule="evenodd" stroke="none"/>
    <path d="M37.3 1.95 L44.05 0.65 Q45.25 0.0 46.6 0.0 L47.2 0.05 47.4 0.1 Q49.85 0.45 51.7 3.25 L52.8 5.35 53.3 6.7 53.3 6.85 Q54.25 11.85 53.65 15.1 L53.1 17.1 52.5 17.2 Q41.65 15.95 30.9 18.7 L30.85 18.7 Q22.8 20.7 14.8 24.95 L13.85 23.45 14.15 22.05 14.2 21.85 14.25 21.6 14.25 21.45 14.35 20.9 14.5 18.5 Q14.5 13.95 12.4 10.8 10.6 8.1 7.1 7.6 L7.1 7.55 24.1 4.5 31.0 3.25 31.1 3.2 32.35 3.0 32.35 2.9 37.1 2.0 37.3 1.95 M51.15 19.35 L50.1 20.5 48.8 21.4 38.2 23.5 9.5 28.95 Q11.0 28.2 12.3 26.4 L13.1 27.45 Q26.65 22.3 36.85 20.15 L40.45 19.7 51.15 19.35 M34.0 4.85 L32.2 5.35 34.0 4.85 M27.1 6.55 L26.85 6.65 27.25 6.65 27.1 6.55 29.55 5.75 27.1 6.55 M22.65 17.5 L24.2 16.85 22.35 16.15 22.4 14.7 21.4 15.7 19.5 14.65 20.45 16.4 18.7 17.65 21.3 17.55 22.9 19.8 22.9 19.7 22.65 17.5 M16.05 9.7 L15.1 12.9 18.2 10.4 22.3 11.6 19.8 9.0 21.1 6.8 18.2 7.7 16.9 5.85 16.6 8.0 13.3 8.5 16.05 9.7 M6.05 16.75 Q5.2 17.15 4.85 18.5 4.05 20.65 5.8 22.2 6.55 23.05 7.4 23.3 8.15 23.1 8.95 22.4 10.9 19.0 8.75 14.3 7.6 13.05 6.5 12.8 5.15 13.1 3.8 14.8 2.4 17.3 3.2 21.3 4.75 25.7 7.5 26.15 3.85 26.65 2.0 21.3 1.2 17.3 2.6 14.8 4.55 12.3 6.5 12.8 8.2 12.35 9.95 14.3 12.1 19.0 10.15 22.4 8.7 23.65 7.4 23.3 5.9 23.65 4.6 22.2 2.85 20.65 3.65 18.5 4.2 16.5 5.75 16.6 L6.05 16.75 M15.45 23.65 L16.15 19.8 15.45 23.65 M41.3 9.05 L23.85 13.45 41.3 9.05 M28.05 14.0 L44.3 9.85 28.05 14.0" fill="#777d46" fill-rule="evenodd" stroke="none"/>
    <path d="M7.1 7.6 Q10.6 8.1 12.4 10.8 14.5 13.95 14.5 18.5 L14.35 20.9 14.25 21.45 14.25 21.6 14.2 21.85 14.15 22.05 13.75 23.45 Q13.25 24.95 12.4 26.25 L12.3 26.4 Q11.0 28.2 9.5 28.95 L7.25 29.45 6.95 29.45 6.85 29.45 Q5.4 29.2 4.5 28.55 L3.05 27.5 2.85 27.25 2.15 26.25 Q0.0 23.05 0.0 18.5 0.0 13.95 2.15 10.8 4.0 8.0 6.5 7.65 L7.1 7.6 M6.05 16.75 L5.75 16.6 Q4.2 16.5 3.65 18.5 2.85 20.65 4.6 22.2 5.9 23.65 7.4 23.3 8.7 23.65 10.15 22.4 12.1 19.0 9.95 14.3 8.2 12.35 6.5 12.8 4.55 12.3 2.6 14.8 1.2 17.3 2.0 21.3 3.85 26.65 7.5 26.15 4.75 25.7 3.2 21.3 2.4 17.3 3.8 14.8 5.15 13.1 6.5 12.8 7.6 13.05 8.75 14.3 10.9 19.0 8.95 22.4 8.15 23.1 7.4 23.3 6.55 23.05 5.8 22.2 4.05 20.65 4.85 18.5 5.2 17.15 6.05 16.75 7.4 17.55 6.95 19.4 8.65 17.35 6.95 16.6 L6.05 16.75" fill="#9ea660" fill-rule="evenodd" stroke="none"/>
    <path d="M13.85 23.45 L14.8 24.95 Q22.8 20.7 30.85 18.7 L30.9 18.8 30.9 18.7 Q41.65 15.95 52.5 17.2 L52.15 17.85 51.7 18.65 51.15 19.35 40.45 19.7 36.85 20.15 Q26.65 22.3 13.1 27.45 L12.3 26.4 12.4 26.25 Q13.25 24.95 13.75 23.45 L13.85 23.45" fill="#585c34" fill-rule="evenodd" stroke="none"/>
    <path d="M53.65 15.1 Q54.25 11.85 53.3 6.85 L53.3 6.7 52.8 5.35 51.7 3.25 Q49.85 0.45 47.4 0.1 L47.2 0.05 46.6 0.0 Q45.25 0.0 44.05 0.65 L37.3 1.95 M37.1 2.0 L32.35 2.9 32.35 3.0 M24.1 4.5 L7.1 7.55 6.5 7.65 7.1 7.6 Q10.6 8.1 12.4 10.8 14.5 13.95 14.5 18.5 L14.35 20.9 14.25 21.45 14.25 21.6 14.2 21.85 14.15 22.05 13.85 23.45 14.8 24.95 Q22.8 20.7 30.85 18.7 M30.9 18.7 Q41.65 15.95 52.5 17.2 M38.2 23.5 L48.8 21.4 50.1 20.5 51.15 19.35 51.7 18.65 52.15 17.85 M12.3 26.4 Q11.0 28.2 9.5 28.95 L38.2 23.5 M2.85 27.25 L2.15 26.25 Q0.0 23.05 0.0 18.5 0.0 13.95 2.15 10.8 4.0 8.0 6.5 7.65 M13.75 23.45 Q13.25 24.95 12.4 26.25 L12.3 26.4 M13.75 23.45 L14.15 22.05 M16.15 19.8 L15.45 23.65" ffdec:has-small-stroke="true" ffdec:original-stroke-width="0.05" fill="none" stroke="#000000" stroke-linecap="round" stroke-linejoin="round" stroke-opacity="0.4117647" stroke-width="1.0"/>
    <path d="M32.35 3.0 L31.1 3.2 31.0 3.25 24.1 4.5" ffdec:has-small-stroke="true" ffdec:original-stroke-width="0.05" fill="none" stroke="#000000" stroke-linecap="round" stroke-linejoin="round" stroke-opacity="0.42352942" stroke-width="1.0"/>
    <path d="M9.5 28.95 L7.25 29.45 6.95 29.45 6.85 29.45 Q5.4 29.2 4.5 28.55 L3.05 27.5" ffdec:has-small-stroke="true" ffdec:original-stroke-width="0.05" fill="none" stroke="#000000" stroke-linecap="round" stroke-linejoin="round" stroke-opacity="0.5019608" stroke-width="1.0"/>
    <path d="M3.05 27.5 L2.85 27.25" ffdec:has-small-stroke="true" ffdec:original-stroke-width="0.05" fill="none" stroke="#000000" stroke-linecap="round" stroke-linejoin="round" stroke-opacity="0.4627451" stroke-width="1.0"/>
    <path d="M44.3 9.85 L28.05 14.0 M23.85 13.45 L41.3 9.05" fill="none" stroke="#ca2800" stroke-linecap="round" stroke-linejoin="round" stroke-opacity="0.6901961" stroke-width="1.0"/>
    <path d="M32.2 5.35 L34.0 4.85" fill="none" stroke="#000000" stroke-linecap="round" stroke-linejoin="round" stroke-opacity="0.6117647" stroke-width="1.0"/>
    <path d="M26.85 6.65 L27.1 6.55 29.55 5.75" fill="none" stroke="#000000" stroke-linecap="round" stroke-linejoin="round" stroke-opacity="0.6117647" stroke-width="1.0"/>
  </g>
  <defs>
    <radialGradient cx="0" cy="0" gradientTransform="matrix(0.0626, 0.0, 0.0, 0.0458, 28.7, 19.95)" gradientUnits="userSpaceOnUse" id="gradient0" r="819.2" spreadMethod="pad">
      <stop offset="0.0" stop-color="#699675"/>
      <stop offset="0.1803921568627451" stop-color="#a9c2b5"/>
      <stop offset="0.4" stop-color="#ffffff" stop-opacity="0.0"/>
    </radialGradient>
  </defs>
</svg>
