<?xml version="1.0" encoding="UTF-8" standalone="no"?>
<svg xmlns:ffdec="https://www.free-decompiler.com/flash" xmlns:xlink="http://www.w3.org/1999/xlink" ffdec:objectType="shape" height="40.85px" width="45.35px" xmlns="http://www.w3.org/2000/svg">
  <g transform="matrix(1.0, 0.0, 0.0, 1.0, 0.0, 0.0)">
    <path d="M1.85 31.0 L1.65 31.0 1.7 30.95 1.85 31.0" fill="#a98c49" fill-rule="evenodd" stroke="none"/>
    <path d="M11.8 21.75 L11.8 21.8 11.75 21.8 11.8 21.75" fill="#7c7c3f" fill-rule="evenodd" stroke="none"/>
    <path d="M26.2 4.4 L27.2 1.45 Q27.8 0.2 28.35 0.9 L28.15 1.6 26.2 4.4" fill="#deb698" fill-rule="evenodd" stroke="none"/>
    <path d="M8.55 39.0 L8.5 39.05 8.5 39.0 8.55 39.0 M11.8 21.8 L11.25 22.2 11.75 21.8 11.8 21.8" fill="#517d46" fill-rule="evenodd" stroke="none"/>
    <path d="M12.6 39.45 Q11.85 39.6 11.5 39.25 L11.2 38.9 Q10.5 38.0 10.7 37.05 10.9 35.95 12.05 34.8 13.0 33.8 14.3 33.2 9.75 37.0 12.6 39.45" fill="#494925" fill-rule="evenodd" stroke="none"/>
    <path d="M23.6 35.25 L21.85 36.85 18.0 38.45 Q14.45 39.8 12.6 39.45 9.75 37.0 14.3 33.2 L14.85 32.95 Q15.75 32.5 16.85 32.3 L20.9 32.15 Q22.5 32.55 23.25 33.55 L23.6 34.4 23.6 35.25" fill="#686835" fill-rule="evenodd" stroke="none"/>
    <path d="M41.5 12.6 L41.9 12.15 42.35 11.65 43.4 10.15 Q46.0 5.6 41.45 2.55 40.15 1.65 38.8 1.3 40.1 1.05 42.45 1.75 47.05 4.5 44.4 10.15 L44.25 10.75 43.55 12.15 41.5 12.6 M40.1 16.2 Q38.85 17.7 38.0 19.4 L36.85 21.45 37.85 21.75 35.25 22.75 35.85 23.85 34.05 23.95 33.95 26.0 32.6 25.45 32.7 27.35 31.0 27.35 38.75 16.9 40.1 16.2 M30.55 27.95 L31.25 29.25 31.25 29.65 Q31.35 30.45 32.0 31.2 34.7 29.15 34.75 30.9 35.0 32.3 33.0 32.95 L35.9 33.5 Q36.7 35.35 36.15 36.35 35.55 37.2 34.35 37.25 33.15 37.3 31.6 35.8 30.9 35.1 30.55 33.8 L30.55 33.75 Q30.35 33.15 29.75 32.9 25.4 34.35 23.6 35.25 L23.6 34.4 Q25.4 33.15 24.95 30.45 L26.1 31.75 29.35 29.55 30.55 27.95 M11.5 39.25 L8.85 39.3 8.55 39.0 8.5 39.0 8.5 38.0 Q9.6 37.9 10.7 37.05 10.5 38.0 11.2 38.9 L11.5 39.25 M10.6 17.8 Q9.95 16.5 10.55 15.5 11.1 14.5 12.1 14.45 13.25 14.4 12.9 15.05 12.15 16.3 12.25 16.75 11.7 17.05 11.2 17.4 L10.6 17.8 M29.05 4.25 Q28.7 5.8 26.2 7.1 27.0 5.05 29.05 4.25 M25.35 14.9 L25.8 14.85 Q28.1 14.7 30.0 15.6 21.05 15.6 11.8 21.8 L11.8 21.75 Q19.8 15.5 25.35 14.9 M1.35 34.4 L5.1 34.75 5.85 36.85 5.75 36.6 5.55 38.75 3.55 37.75 1.05 37.95 3.25 36.4 2.7 35.6 1.5 34.9 1.5 34.85 1.35 34.4 M5.65 33.1 L8.05 33.5 8.1 36.9 7.25 34.3 5.65 33.1 M17.7 28.8 Q25.5 24.75 24.15 30.1 23.35 27.4 17.7 28.8" fill="#81601b" fill-rule="evenodd" stroke="none"/>
    <path d="M38.8 1.3 L37.8 1.05 Q33.9 0.5 29.85 4.05 30.65 5.05 33.75 3.85 34.75 5.1 25.8 7.95 L24.35 8.4 25.4 6.8 26.2 4.4 28.15 1.6 Q27.85 2.75 28.8 3.2 34.1 -1.75 40.8 0.95 L42.45 1.75 Q40.1 1.05 38.8 1.3 M43.55 12.15 L42.45 13.7 42.35 13.8 40.1 16.2 38.75 16.9 31.0 27.35 30.25 27.3 30.55 27.95 29.35 29.55 26.1 31.75 24.95 30.45 Q25.4 33.15 23.6 34.4 L23.25 33.55 Q22.5 32.55 20.9 32.15 L16.85 32.3 Q15.75 32.5 14.85 32.95 L14.3 33.2 Q13.0 33.8 12.05 34.8 10.9 35.95 10.7 37.05 9.6 37.9 8.5 38.0 L8.5 39.0 8.5 39.05 7.75 38.85 7.1 40.05 Q6.7 40.95 4.75 40.85 L0.55 39.3 Q-0.05 38.8 0.1 37.95 L1.8 36.0 1.45 34.85 1.05 34.35 1.0 34.35 0.45 34.25 Q-0.5 33.4 0.55 32.55 L1.6 32.35 1.85 31.0 1.7 30.95 1.85 30.35 Q2.2 29.1 2.7 27.95 4.15 24.3 6.65 21.45 L7.3 20.75 7.45 20.6 9.0 20.6 9.35 18.8 9.7 18.55 Q10.1 18.15 10.6 17.8 L11.2 17.4 Q11.7 17.05 12.25 16.75 19.65 12.25 30.4 13.9 L35.45 14.9 38.35 14.4 Q40.05 14.05 41.5 12.6 L43.55 12.15 M29.05 4.25 Q27.0 5.05 26.2 7.1 28.7 5.8 29.05 4.25 M27.05 24.75 L27.05 26.15 28.45 25.7 28.15 24.55 27.05 24.75 M25.9 24.7 L28.45 24.2 29.2 25.15 31.15 25.35 32.15 23.45 31.1 20.95 27.6 21.65 24.85 24.0 25.9 24.7 M11.8 21.8 Q21.05 15.6 30.0 15.6 28.1 14.7 25.8 14.85 L25.35 14.9 18.8 15.45 17.5 17.05 16.7 16.55 9.35 23.15 11.75 21.8 11.25 22.2 11.8 21.8 M33.85 20.5 L34.25 20.15 33.45 19.65 33.35 20.4 33.85 20.5 M13.85 22.7 L10.75 25.3 13.15 25.85 16.6 24.75 15.35 22.75 13.85 22.7 M15.75 26.25 L15.4 26.75 16.55 27.5 16.8 26.45 15.75 26.25 M1.35 34.4 L1.5 34.85 1.5 34.9 2.7 35.6 3.25 36.4 1.05 37.95 3.55 37.75 5.55 38.75 5.75 36.6 5.85 36.85 5.1 34.75 1.35 34.4 M5.65 33.1 L7.25 34.3 8.1 36.9 8.05 33.5 5.65 33.1 M17.7 28.8 Q23.35 27.4 24.15 30.1 25.5 24.75 17.7 28.8" fill="#b78b51" fill-rule="evenodd" stroke="none"/>
    <path d="M25.9 24.7 L24.85 24.0 27.6 21.65 31.1 20.95 32.15 23.45 31.15 25.35 29.2 25.15 28.45 24.2 25.9 24.7" fill="#d5a033" fill-rule="evenodd" stroke="none"/>
    <path d="M7.45 20.6 L9.35 18.8 9.0 20.6 7.45 20.6 M27.05 24.75 L28.15 24.55 28.45 25.7 27.05 26.15 27.05 24.75 M33.85 20.5 L33.35 20.4 33.45 19.65 34.25 20.15 33.85 20.5 M13.85 22.7 L15.35 22.75 16.6 24.75 13.15 25.85 10.75 25.3 13.85 22.7 M15.75 26.25 L16.8 26.45 16.55 27.5 15.4 26.75 15.75 26.25" fill="#dfb866" fill-rule="evenodd" stroke="none"/>
    <path d="M11.75 21.8 L9.35 23.15 16.7 16.55 17.5 17.05 18.8 15.45 25.35 14.9 Q19.8 15.5 11.8 21.75 L11.75 21.8" fill="#e6c786" fill-rule="evenodd" stroke="none"/>
    <path d="M41.5 12.6 L41.9 12.15 42.35 11.65 43.4 10.15 Q46.0 5.6 41.45 2.55 40.15 1.65 38.8 1.3 M37.8 1.05 Q33.9 0.5 29.85 4.05 30.65 5.05 33.75 3.85 34.75 5.1 25.8 7.95 L24.35 8.4 25.4 6.8 26.2 4.4 27.2 1.45 Q27.8 0.2 28.35 0.9 L28.15 1.6 Q27.85 2.75 28.8 3.2 34.1 -1.75 40.8 0.95 L42.45 1.75 Q47.05 4.5 44.4 10.15 L44.25 10.75 43.55 12.15 42.45 13.7 42.35 13.8 40.1 16.2 Q38.85 17.7 38.0 19.4 L36.85 21.45 M31.25 29.65 Q31.35 30.45 32.0 31.2 34.7 29.15 34.75 30.9 35.0 32.3 33.0 32.95 L35.9 33.5 Q36.7 35.35 36.15 36.35 35.55 37.2 34.35 37.25 33.15 37.3 31.6 35.8 30.9 35.1 30.55 33.8 L30.55 33.75 Q30.35 33.15 29.75 32.9 25.4 34.35 23.6 35.25 L23.6 34.4 23.25 33.55 Q22.5 32.55 20.9 32.15 L16.85 32.3 Q15.75 32.5 14.85 32.95 L14.3 33.2 Q13.0 33.8 12.05 34.8 10.9 35.95 10.7 37.05 10.5 38.0 11.2 38.9 L11.5 39.25 Q11.85 39.6 12.6 39.45 M1.65 31.0 L1.7 30.95 1.85 30.35 Q2.2 29.1 2.7 27.95 4.15 24.3 6.65 21.45 L7.3 20.75 M7.45 20.6 L9.35 18.8 M9.7 18.55 Q10.1 18.15 10.6 17.8 9.95 16.5 10.55 15.5 11.1 14.5 12.1 14.45 13.25 14.4 12.9 15.05 12.15 16.3 12.25 16.75 19.65 12.25 30.4 13.9 L35.45 14.9 38.35 14.4 Q40.05 14.05 41.5 12.6 M10.6 17.8 L11.2 17.4 Q11.7 17.05 12.25 16.75" ffdec:has-small-stroke="true" ffdec:original-stroke-width="0.05" fill="none" stroke="#7f6262" stroke-linecap="round" stroke-linejoin="round" stroke-opacity="0.7411765" stroke-width="1.0"/>
    <path d="M8.5 39.05 L7.75 38.85 7.1 40.05 Q6.7 40.95 4.75 40.85 L0.55 39.3 Q-0.05 38.8 0.1 37.95 L1.8 36.0 1.45 34.85 1.05 34.35 1.0 34.35 0.45 34.25 Q-0.5 33.4 0.55 32.55 L1.6 32.35 1.85 31.0 1.65 31.0" ffdec:has-small-stroke="true" ffdec:original-stroke-width="0.05" fill="none" stroke="#7f6262" stroke-linecap="round" stroke-linejoin="round" stroke-opacity="0.7411765" stroke-width="1.0"/>
    <path d="M18.45 20.35 L19.3 19.9 19.05 20.8 20.25 21.55 18.55 21.45 17.7 22.85 17.85 21.55 16.6 21.6 17.65 20.85 17.4 19.4 18.45 20.35 M20.7 18.7 L21.8 19.15 22.3 18.6 22.35 19.3 23.55 19.6 22.15 20.0 21.85 21.35 21.65 20.3 20.65 20.6 21.3 19.75 20.7 18.7" fill="#e7dca0" fill-rule="evenodd" stroke="none"/>
    <path d="M17.9 1.65 Q17.35 0.65 15.65 0.2 L15.75 0.2 15.7 0.1 20.85 0.9 Q16.7 3.0 14.2 6.15 16.65 9.7 21.15 10.8 18.0 13.7 13.75 13.35 L14.9 11.4 Q15.75 9.5 11.15 6.35 15.1 4.65 17.9 1.65" fill="#c8d8ce" fill-rule="evenodd" stroke="none"/>
    <path d="M5.3 4.4 L5.6 4.4 10.65 8.75 Q10.1 10.0 6.5 13.75 7.3 15.45 9.4 16.15 6.0 16.9 5.2 14.2 7.65 11.8 9.15 8.95 7.55 6.55 5.3 4.4" fill="#c9d9cf" fill-opacity="0.6627451" fill-rule="evenodd" stroke="none"/>
  </g>
</svg>
