<?xml version="1.0" encoding="UTF-8" standalone="no"?>
<svg xmlns:ffdec="https://www.free-decompiler.com/flash" xmlns:xlink="http://www.w3.org/1999/xlink" ffdec:objectType="shape" height="39.95px" width="30.85px" xmlns="http://www.w3.org/2000/svg">
  <g transform="matrix(1.0, 0.0, 0.0, 1.0, -1.75, 0.0)">
    <path d="M29.5 1.55 L29.5 1.6 29.5 1.55" fill="#edc2c0" fill-rule="evenodd" stroke="none"/>
    <path d="M14.7 27.55 L14.7 27.45 14.7 27.25 14.75 27.25 14.7 27.55" fill="#96382c" fill-rule="evenodd" stroke="none"/>
    <path d="M29.1 39.5 L28.4 38.5 27.95 37.8 28.2 37.3 28.2 37.25 29.2 38.8 29.1 39.5 M16.0 27.25 L16.05 27.25 16.05 27.3 16.0 27.25 M30.05 33.45 L30.05 33.5 30.0 33.45 30.05 33.45" fill="#702421" fill-rule="evenodd" stroke="none"/>
    <path d="M17.25 27.2 L17.25 27.1 17.25 27.0 17.3 27.2 17.25 27.2 M22.85 27.8 L22.9 27.75 22.9 27.8 22.9 27.85 22.85 27.8 M30.0 33.5 L30.0 33.45 30.05 33.5 30.0 33.5 M28.2 37.3 L28.2 37.25 28.2 37.3" fill="#e3a89f" fill-rule="evenodd" stroke="none"/>
    <path d="M17.75 31.0 L17.8 31.15 17.7 31.15 17.75 31.0" fill="#cf6c5a" fill-rule="evenodd" stroke="none"/>
    <path d="M22.9 27.8 L22.9 27.85 22.9 27.8" fill="#b7ffff" fill-rule="evenodd" stroke="none"/>
    <path d="M30.75 15.9 L26.75 26.45 27.45 28.7 27.05 28.9 26.85 27.75 25.7 26.8 25.65 24.25 26.3 22.65 28.65 21.0 27.85 19.1 28.4 17.8 28.85 18.15 30.75 15.9 M30.25 3.9 L30.6 5.05 Q29.6 5.4 29.05 6.4 L28.5 4.05 29.1 3.55 30.25 3.9" fill="#7d5a33" fill-rule="evenodd" stroke="none"/>
    <path d="M31.35 38.2 Q31.85 39.3 30.8 39.8 29.75 40.25 29.1 39.5 L29.2 38.8 Q29.55 37.55 31.35 38.2 M3.2 34.1 L2.95 34.2 Q2.3 34.4 1.75 33.9 L2.0 33.2 2.2 33.0 Q3.45 33.55 3.2 34.1 M12.8 25.35 L12.7 24.8 14.55 23.6 15.9 12.4 Q17.7 7.55 20.7 4.5 24.95 0.5 27.65 0.1 L28.4 0.0 Q28.75 -0.05 29.15 0.7 L28.1 0.45 Q26.35 0.45 24.6 1.85 21.25 3.8 18.6 7.7 16.55 11.15 16.85 15.65 L18.25 15.65 Q18.8 11.45 20.55 7.55 22.95 4.5 25.8 2.6 27.85 1.55 29.5 1.6 L29.55 1.8 30.25 3.9 29.1 3.55 28.5 4.05 29.05 6.4 Q28.6 7.05 28.45 8.1 25.8 4.35 23.55 6.65 L24.05 14.85 26.75 16.3 26.8 16.35 28.4 17.8 27.85 19.1 27.65 18.65 25.9 18.25 24.2 19.85 25.55 23.2 26.3 22.65 25.65 24.25 25.7 26.8 25.5 26.65 Q24.4 25.95 23.1 25.4 L22.9 25.35 Q20.8 24.6 18.15 24.5 L18.05 24.5 Q15.45 24.4 12.8 25.35 M22.65 7.25 Q21.4 8.05 20.45 9.65 19.8 10.7 20.6 11.6 L22.95 13.85 22.65 7.25 M20.9 15.75 L21.0 14.55 20.2 15.5 19.15 15.2 19.8 15.95 18.9 16.5 20.25 16.4 21.1 17.55 20.95 16.35 21.65 16.05 20.9 15.75 M22.45 17.75 L23.15 17.7 23.75 17.1 22.3 15.65 21.65 16.55 22.45 17.75 M22.2 19.1 L21.4 18.85 21.45 17.35 20.6 18.6 19.45 18.4 20.2 19.25 19.95 19.4 Q19.3 19.85 19.2 20.05 L20.65 19.7 21.6 20.95 21.4 19.55 22.2 19.1 M16.75 16.3 L16.85 17.8 18.15 17.75 18.3 16.25 16.75 16.3" fill="#996d3e" fill-rule="evenodd" stroke="none"/>
    <path d="M29.85 32.05 L31.9 32.25 32.25 32.5 32.45 32.6 32.6 33.75 30.05 33.45 30.0 33.45 29.85 32.05 M30.0 36.9 Q30.5 37.65 31.35 38.2 29.55 37.55 29.2 38.8 L28.2 37.25 Q28.65 36.55 29.4 36.7 L30.0 36.9 M14.7 27.25 L14.0 26.85 13.0 26.25 12.8 25.35 Q15.45 24.4 18.05 24.5 L18.15 24.5 Q20.8 24.6 22.9 25.35 L23.1 25.4 Q24.4 25.95 25.5 26.65 L24.65 27.35 24.25 27.2 24.2 27.15 Q22.0 26.3 19.95 26.1 L19.2 26.05 15.75 26.3 14.95 26.5 14.75 27.25 14.7 27.25 M22.65 7.25 L22.95 13.85 20.6 11.6 Q19.8 10.7 20.45 9.65 21.4 8.05 22.65 7.25 M22.45 17.75 L21.65 16.55 22.3 15.65 23.75 17.1 23.15 17.7 22.45 17.75 M26.3 22.65 L25.55 23.2 24.2 19.85 25.9 18.25 27.65 18.65 27.85 19.1 26.3 22.65 M14.95 26.5 L14.0 26.85 14.95 26.5 M9.8 33.5 Q9.95 34.25 9.55 34.55 L8.4 33.75 8.4 33.65 8.4 32.7 9.8 33.5" fill="#6b4e2c" fill-rule="evenodd" stroke="none"/>
    <path d="M27.05 28.9 L25.95 29.4 25.5 28.85 25.65 27.8 24.65 27.35 25.5 26.65 25.7 26.8 26.85 27.75 27.05 28.9 M29.05 6.4 L29.85 9.9 29.3 15.8 28.4 17.8 26.8 16.35 26.75 16.3 24.05 14.85 23.55 6.65 Q25.8 4.35 28.45 8.1 28.6 7.05 29.05 6.4 M26.15 28.0 L25.65 27.8 26.15 28.0" fill="#5a4325" fill-rule="evenodd" stroke="none"/>
    <path d="M30.6 5.05 Q31.25 7.75 31.4 10.3 L31.4 11.25 31.05 15.05 30.75 15.9 28.85 18.15 28.4 17.8 29.3 15.8 29.85 9.9 29.05 6.4 Q29.6 5.4 30.6 5.05 M32.6 33.75 L32.6 33.8 32.25 35.05 31.1 35.05 30.95 35.05 Q30.3 34.35 30.05 33.5 L30.05 33.45 32.6 33.75 M8.95 34.75 L7.9 34.25 8.4 33.75 9.55 34.55 8.95 34.75 M27.85 19.1 L28.65 21.0 26.3 22.65 27.85 19.1" fill="#48361e" fill-rule="evenodd" stroke="none"/>
    <path d="M25.95 29.4 Q26.7 31.45 28.55 32.35 L29.85 32.05 30.0 33.45 30.0 33.5 26.8 33.35 27.5 33.8 29.35 35.3 Q29.5 36.2 30.0 36.9 L29.4 36.7 Q28.65 36.55 28.2 37.25 L27.85 36.3 22.5 34.45 18.2 34.35 12.85 36.4 9.55 34.55 Q9.95 34.25 9.8 33.5 L12.3 34.95 9.8 33.5 8.4 32.7 7.55 32.2 8.4 32.7 8.4 33.65 5.45 32.85 4.4 33.55 3.2 34.1 Q3.45 33.55 2.2 33.0 L3.7 30.95 5.55 31.3 Q5.05 30.65 4.8 29.8 L4.8 29.7 Q4.4 27.75 4.8 26.1 L6.0 25.55 Q7.35 25.6 7.8 26.4 7.45 28.0 8.05 29.8 9.2 32.15 11.55 32.2 13.15 31.7 13.75 30.8 L14.3 30.8 15.25 30.5 15.85 29.1 Q15.15 29.8 14.2 30.0 L14.1 30.0 Q13.8 29.95 14.0 29.65 L14.6 28.5 14.7 27.55 16.0 27.25 16.05 27.3 15.85 28.2 Q16.9 28.15 17.2 27.65 L17.25 27.2 17.3 27.2 Q20.4 26.65 22.85 27.8 L22.9 27.85 Q22.85 28.15 22.95 28.35 L23.15 28.65 24.15 28.95 23.8 28.35 23.85 28.3 23.95 28.25 23.95 28.2 25.5 28.85 25.95 29.4 M15.05 32.45 Q14.9 32.3 14.9 32.05 14.95 31.25 15.25 30.5 14.95 31.25 14.9 32.05 14.9 32.3 15.05 32.45 L15.0 32.9 Q15.05 33.5 15.7 33.35 17.0 32.65 17.7 31.15 L17.8 31.15 17.75 31.0 17.75 30.95 17.7 30.1 Q17.0 31.75 15.6 32.5 L15.05 32.45 M23.2 31.8 L22.75 32.6 21.55 32.7 20.6 31.6 20.5 30.75 Q20.3 31.8 19.2 32.5 18.5 32.9 18.15 32.2 L17.8 31.15 Q17.8 32.2 18.25 33.05 18.6 33.7 19.3 33.3 20.4 32.6 20.6 31.6 20.45 32.7 21.65 33.55 L22.85 33.45 23.1 33.05 Q23.55 32.3 23.2 31.8 L23.25 31.7 23.2 31.8 M25.5 31.0 L24.95 31.2 Q23.5 31.15 22.9 30.7 23.35 31.1 23.25 31.7 L25.05 32.05 Q25.75 31.95 25.65 31.5 L25.5 31.0 25.55 30.65 Q25.45 29.85 24.75 29.5 25.45 29.85 25.55 30.65 L25.5 31.0 M12.3 34.95 L13.0 35.25 14.5 33.85 12.3 34.95 M7.55 32.2 L7.55 31.95 7.4 30.9 6.75 30.05 Q6.35 29.75 6.1 29.9 5.75 30.0 5.75 30.5 5.65 30.95 5.85 31.45 L5.55 31.3 5.85 31.45 7.4 32.1 7.55 32.2 M6.35 26.8 Q6.1 26.35 5.7 26.35 5.3 26.35 5.05 26.8 4.75 27.2 4.75 27.8 4.75 28.4 5.05 28.85 5.3 29.3 5.7 29.3 6.1 29.3 6.35 28.85 L6.65 27.8 6.35 26.8 M26.8 33.35 L26.65 33.3 23.1 33.05 26.65 33.3 26.8 33.35" fill="#e2d794" fill-rule="evenodd" stroke="none"/>
    <path d="M29.15 0.7 L29.5 1.55 29.5 1.6 Q27.85 1.55 25.8 2.6 22.95 4.5 20.55 7.55 18.8 11.45 18.25 15.65 L16.85 15.65 Q16.55 11.15 18.6 7.7 21.25 3.8 24.6 1.85 26.35 0.45 28.1 0.45 L29.15 0.7 M16.75 16.3 L18.3 16.25 18.15 17.75 16.85 17.8 16.75 16.3 M6.35 26.8 L6.65 27.8 6.35 28.85 Q6.1 29.3 5.7 29.3 5.3 29.3 5.05 28.85 4.75 28.4 4.75 27.8 4.75 27.2 5.05 26.8 5.3 26.35 5.7 26.35 6.1 26.35 6.35 26.8 M5.85 31.45 Q5.65 30.95 5.75 30.5 5.75 30.0 6.1 29.9 6.35 29.75 6.75 30.05 L7.4 30.9 7.55 31.95 7.55 32.2 7.4 32.1 5.85 31.45" fill="#efe9c2" fill-rule="evenodd" stroke="none"/>
    <path d="M11.9 14.5 Q10.4 17.1 9.4 20.0 10.35 23.5 11.95 26.35 11.45 29.6 9.25 28.7 10.6 27.85 11.15 25.85 8.75 21.25 8.4 19.8 L11.7 14.5 11.9 14.5" fill="#c9d9cf" fill-opacity="0.6627451" fill-rule="evenodd" stroke="none"/>
    <path d="M6.8 8.25 L6.8 8.35 6.85 8.4 Q5.75 8.9 5.4 10.15 7.2 13.75 9.8 15.8 6.8 19.6 7.35 21.95 7.55 23.05 8.1 24.3 5.3 24.7 3.25 21.2 6.2 19.85 7.8 15.6 6.15 11.75 3.5 9.25 L6.8 8.25" fill="#c8d8ce" fill-rule="evenodd" stroke="none"/>
    <path d="M20.9 15.75 L21.65 16.05 20.95 16.35 21.1 17.55 20.25 16.4 18.9 16.5 19.8 15.95 19.15 15.2 20.2 15.5 21.0 14.55 20.9 15.75 M22.2 19.1 L21.4 19.55 21.6 20.95 20.65 19.7 19.2 20.05 Q19.3 19.85 19.95 19.4 L20.2 19.25 19.45 18.4 20.6 18.6 21.45 17.35 21.4 18.85 22.2 19.1" fill="#c1f0c4" fill-rule="evenodd" stroke="none"/>
    <path d="M30.95 35.05 L29.35 35.3 27.5 33.8 26.8 33.35 30.0 33.5 30.05 33.5 Q30.3 34.35 30.95 35.05 M27.95 37.8 L27.7 37.35 Q23.85 34.8 18.4 35.0 15.35 35.75 12.7 37.4 11.5 36.2 10.05 35.35 L8.95 34.75 9.55 34.55 12.85 36.4 18.2 34.35 22.5 34.45 27.85 36.3 28.2 37.25 28.2 37.3 27.95 37.8 M7.9 34.25 L4.8 33.4 4.4 33.55 5.45 32.85 8.4 33.65 8.4 33.75 7.9 34.25 M13.75 30.8 L14.1 30.0 14.2 30.0 Q15.15 29.8 15.85 29.1 L15.25 30.5 14.3 30.8 13.75 30.8 M14.75 27.25 L14.95 26.5 15.75 26.3 19.2 26.05 19.95 26.1 Q22.0 26.3 24.2 27.15 L24.25 27.2 24.65 27.35 25.65 27.8 25.5 28.85 23.95 28.2 23.95 28.25 23.85 28.3 23.8 28.35 24.15 28.95 23.15 28.65 22.95 28.35 Q22.85 28.15 22.9 27.85 L22.9 27.8 22.9 27.75 22.85 27.8 Q20.4 26.65 17.3 27.2 L17.25 27.0 17.25 27.1 17.25 27.2 17.2 27.65 Q16.9 28.15 15.85 28.2 L16.05 27.3 16.05 27.25 16.0 27.25 14.7 27.55 14.75 27.25 M15.05 32.45 L15.6 32.5 Q17.0 31.75 17.7 30.1 L17.75 30.95 17.75 31.0 17.7 31.15 Q17.0 32.65 15.7 33.35 15.05 33.5 15.0 32.9 L15.05 32.45 M17.8 31.15 L18.15 32.2 Q18.5 32.9 19.2 32.5 20.3 31.8 20.5 30.75 L20.6 31.6 21.55 32.7 22.75 32.6 23.2 31.8 Q23.55 32.3 23.1 33.05 L22.85 33.45 21.65 33.55 Q20.45 32.7 20.6 31.6 20.4 32.6 19.3 33.3 18.6 33.7 18.25 33.05 17.8 32.2 17.8 31.15 M23.25 31.7 Q23.35 31.1 22.9 30.7 23.5 31.15 24.95 31.2 L25.5 31.0 25.65 31.5 Q25.75 31.95 25.05 32.05 L23.25 31.7" fill="#887d31" fill-rule="evenodd" stroke="none"/>
    <path d="M30.6 5.05 Q31.25 7.75 31.4 10.3 L31.4 11.25 31.05 15.05 30.75 15.9 26.75 26.45 27.45 28.7 27.05 28.9 25.95 29.4 Q26.7 31.45 28.55 32.35 L29.85 32.05 31.9 32.25 32.25 32.5 32.45 32.6 32.6 33.75 32.6 33.8 32.25 35.05 31.1 35.05 30.95 35.05 29.35 35.3 Q29.5 36.2 30.0 36.9 30.5 37.65 31.35 38.2 29.55 37.55 29.2 38.8 L29.1 39.5 28.4 38.5 M10.05 35.35 L8.95 34.75 7.9 34.25 4.8 33.4 4.4 33.55 3.2 34.1 2.95 34.2 M2.0 33.2 L2.2 33.0 3.7 30.95 5.55 31.3 Q5.05 30.65 4.8 29.8 L4.8 29.7 Q4.4 27.75 4.8 26.1 M7.8 26.4 Q7.45 28.0 8.05 29.8 9.2 32.15 11.55 32.2 13.15 31.7 13.75 30.8 L14.1 30.0 Q13.8 29.95 14.0 29.65 L14.6 28.5 14.7 27.55 14.7 27.45 14.7 27.25 14.0 26.85 13.0 26.25 12.8 25.35 12.7 24.8 14.55 23.6 15.9 12.4 Q17.7 7.55 20.7 4.5 24.95 0.5 27.65 0.1 L28.4 0.0 Q28.75 -0.05 29.15 0.7 L29.5 1.55 29.5 1.6 29.55 1.8 30.25 3.9 30.6 5.05 M26.75 16.3 L26.8 16.35 M24.65 27.35 L24.25 27.2 24.2 27.15 Q22.0 26.3 19.95 26.1 L19.2 26.05 15.75 26.3 14.95 26.5 14.75 27.25 14.7 27.55 M15.85 28.2 Q16.9 28.15 17.2 27.65 L17.25 27.2 17.25 27.1 17.25 27.0 17.3 27.2 M22.85 27.8 L22.9 27.75 22.9 27.8 22.9 27.85 Q22.85 28.15 22.95 28.35 L23.15 28.65 24.15 28.95 M23.8 28.35 L23.85 28.3 23.95 28.25 23.95 28.2 M25.5 28.85 L25.65 27.8 24.65 27.35 M14.1 30.0 L14.2 30.0 Q15.15 29.8 15.85 29.1 L15.25 30.5 Q14.95 31.25 14.9 32.05 14.9 32.3 15.05 32.45 L15.6 32.5 Q17.0 31.75 17.7 30.1 L17.75 30.95 17.75 31.0 17.8 31.15 18.15 32.2 Q18.5 32.9 19.2 32.5 20.3 31.8 20.5 30.75 L20.6 31.6 21.55 32.7 22.75 32.6 23.2 31.8 23.25 31.7 Q23.35 31.1 22.9 30.7 23.5 31.15 24.95 31.2 L25.5 31.0 25.55 30.65 Q25.45 29.85 24.75 29.5 M14.0 26.85 L14.95 26.5 M12.3 34.95 L14.5 33.85 13.0 35.25 12.3 34.95 9.8 33.5 Q9.95 34.25 9.55 34.55 L8.95 34.75 M28.2 37.25 Q28.65 36.55 29.4 36.7 L30.0 36.9 M6.35 26.8 L6.65 27.8 6.35 28.85 Q6.1 29.3 5.7 29.3 5.3 29.3 5.05 28.85 4.75 28.4 4.75 27.8 4.75 27.2 5.05 26.8 5.3 26.35 5.7 26.35 6.1 26.35 6.35 26.8 M5.85 31.45 Q5.65 30.95 5.75 30.5 5.75 30.0 6.1 29.9 6.35 29.75 6.75 30.05 L7.4 30.9 7.55 31.95 7.55 32.2 8.4 32.7 9.8 33.5 M8.4 32.7 L8.4 33.65 8.4 33.75 7.9 34.25 M5.85 31.45 L5.55 31.3 M7.55 32.2 L7.4 32.1 5.85 31.45 M25.95 29.4 L25.5 28.85 M25.65 27.8 L26.15 28.0 M23.1 33.05 L26.65 33.3 26.8 33.35 27.5 33.8 29.35 35.3 M30.0 33.45 L29.85 32.05 M30.05 33.5 Q30.3 34.35 30.95 35.05 M30.05 33.5 L30.0 33.45 M28.2 37.3 L27.95 37.8 M28.2 37.25 L28.2 37.3" ffdec:has-small-stroke="true" ffdec:original-stroke-width="0.05" fill="none" stroke="#481715" stroke-linecap="round" stroke-linejoin="round" stroke-opacity="0.48235294" stroke-width="1.0"/>
    <path d="M31.35 38.2 Q31.85 39.3 30.8 39.8 29.75 40.25 29.1 39.5 M2.95 34.2 Q2.3 34.4 1.75 33.9 L2.0 33.2 M4.8 26.1 L6.0 25.55 Q7.35 25.6 7.8 26.4 M2.2 33.0 Q3.45 33.55 3.2 34.1" ffdec:has-small-stroke="true" ffdec:original-stroke-width="0.05" fill="none" stroke="#702421" stroke-linecap="round" stroke-linejoin="round" stroke-opacity="0.49019608" stroke-width="1.0"/>
  </g>
</svg>
