<?xml version="1.0" encoding="UTF-8" standalone="no"?>
<svg xmlns:ffdec="https://www.free-decompiler.com/flash" xmlns:xlink="http://www.w3.org/1999/xlink" ffdec:objectType="shape" height="44.3px" width="44.25px" xmlns="http://www.w3.org/2000/svg">
  <g transform="matrix(1.0, 0.0, 0.0, 1.0, -0.4, 7.25)">
    <path d="M39.6 5.85 L39.55 5.8 39.6 5.75 39.6 5.85" fill="#b03624" fill-rule="evenodd" stroke="none"/>
    <path d="M9.0 17.25 L9.75 17.35 9.65 18.15 8.9 17.5 8.85 17.45 9.0 17.25 M14.75 30.9 L14.75 30.95 14.7 30.9 14.75 30.9" fill="#eef2ce" fill-rule="evenodd" stroke="none"/>
    <path d="M34.15 14.75 L34.5 15.95 34.25 16.95 32.65 16.9 32.65 16.8 32.5 15.5 31.7 15.2 32.25 14.6 34.1 14.6 34.15 14.75 M12.4 14.3 L14.15 14.7 14.3 16.05 13.45 15.8 10.3 16.0 10.2 15.45 10.25 15.4 12.4 14.3" fill="#bcd369" fill-rule="evenodd" stroke="none"/>
    <path d="M29.5 15.45 L29.3 15.05 30.15 14.75 30.25 15.25 29.5 15.45 M12.4 17.55 L12.35 17.5 12.85 16.95 13.9 16.95 14.1 18.2 13.05 18.3 12.4 17.55" fill="#dde49a" fill-rule="evenodd" stroke="none"/>
    <path d="M13.15 23.45 L13.2 23.5 Q13.55 26.5 11.1 26.3 L11.05 26.15 Q11.95 26.15 12.55 25.4 13.0 24.85 13.15 23.7 L13.15 23.45 M9.05 24.35 L7.7 22.45 9.4 22.25 Q9.1 22.65 9.05 23.7 L9.2 24.55 9.0 23.7 9.05 24.35 M9.0 23.4 L9.05 23.7 9.0 23.4" fill="#576932" fill-rule="evenodd" stroke="none"/>
    <path d="M23.15 11.4 L23.4 11.6 23.65 11.65 Q26.2 11.5 28.65 12.4 L28.1 11.9 Q30.25 13.05 32.45 13.15 L32.85 13.1 Q35.5 12.9 36.75 10.95 38.05 12.2 37.75 13.25 35.7 17.8 32.85 22.55 31.35 25.05 27.95 27.05 24.9 28.65 20.85 29.55 L20.7 29.45 Q19.2 29.4 18.25 27.45 L17.85 26.9 Q16.75 25.3 16.5 22.15 15.65 20.3 12.4 19.0 10.15 18.45 5.6 19.9 6.1 15.55 10.75 13.85 L12.2 13.4 12.4 13.5 Q15.0 12.2 18.9 12.55 L18.9 12.25 18.8 12.1 Q20.7 11.2 23.15 11.4 M29.5 15.45 L30.25 15.25 30.15 14.75 29.3 15.05 29.5 15.45 M29.5 24.3 Q31.0 21.75 31.1 18.55 30.1 16.4 27.1 15.1 28.8 16.5 29.25 18.6 29.85 22.15 29.5 24.3 M24.45 19.35 Q25.15 23.75 24.7 26.35 26.55 23.2 26.65 19.35 25.45 16.7 21.7 15.1 23.85 16.8 24.45 19.35 M34.15 14.75 L34.1 14.6 32.25 14.6 31.7 15.2 32.5 15.5 32.65 16.8 32.65 16.9 34.25 16.95 34.5 15.95 34.15 14.75 M9.0 17.25 L8.85 17.45 8.9 17.5 9.65 18.15 9.75 17.35 9.0 17.25 M12.4 14.3 L10.25 15.4 10.2 15.45 10.3 16.0 13.45 15.8 14.3 16.05 14.15 14.7 12.4 14.3 M12.4 17.55 L13.05 18.3 14.1 18.2 13.9 16.95 12.85 16.95 12.35 17.5 12.4 17.55 M19.3 20.65 Q20.45 25.6 20.2 28.65 22.05 24.85 21.85 20.4 20.3 17.5 15.85 15.95 18.45 17.75 19.3 20.65 M3.85 24.3 Q6.6 24.8 7.3 26.3 L7.3 26.4 Q7.6 27.45 7.0 28.95 6.8 29.65 5.55 30.0 L2.35 29.65 1.75 29.6 Q1.95 26.2 3.85 24.3" fill="#c2673a" fill-rule="evenodd" stroke="none"/>
    <path d="M24.45 19.35 Q23.85 16.8 21.7 15.1 25.45 16.7 26.65 19.35 26.55 23.2 24.7 26.35 25.15 23.75 24.45 19.35 M29.5 24.3 Q29.85 22.15 29.25 18.6 28.8 16.5 27.1 15.1 30.1 16.4 31.1 18.55 31.0 21.75 29.5 24.3 M19.3 20.65 Q18.45 17.75 15.85 15.95 20.3 17.5 21.85 20.4 22.05 24.85 20.2 28.65 20.45 25.6 19.3 20.65" fill="#8d4a29" fill-rule="evenodd" stroke="none"/>
    <path d="M0.45 30.3 Q0.55 28.2 1.2 26.15 L1.75 24.55 Q2.75 23.7 3.15 24.2 L3.85 24.3 Q1.95 26.2 1.75 29.6 L1.5 29.65 Q0.75 29.75 0.45 30.3 M3.25 21.6 Q3.5 19.2 4.65 17.0 5.85 14.7 7.35 13.9 L9.85 12.8 9.8 13.15 9.95 13.1 10.6 13.1 12.2 13.4 10.75 13.85 Q6.1 15.55 5.6 19.9 L5.15 20.05 4.35 20.3 3.25 21.6 M17.6 10.4 L23.0 10.1 22.2 10.9 22.5 10.9 23.15 11.4 Q20.7 11.2 18.8 12.1 18.5 11.6 17.4 11.4 L17.6 10.4 M28.5 10.8 L31.0 11.8 Q33.75 11.6 35.55 10.0 L36.75 10.95 Q35.5 12.9 32.85 13.1 L32.45 13.15 Q30.25 13.05 28.1 11.9 L27.8 11.6 28.5 10.8" fill="#d3a950" fill-rule="evenodd" stroke="none"/>
    <path d="M22.5 10.9 L23.15 10.9 25.15 11.05 26.0 11.2 26.65 11.3 27.4 11.5 27.8 11.6 28.1 11.9 28.65 12.4 Q26.2 11.5 23.65 11.65 L23.4 11.6 23.15 11.4 22.5 10.9 M18.8 12.1 L18.9 12.25 18.9 12.55 Q15.0 12.2 12.4 13.5 L12.2 13.4 10.6 13.1 9.95 13.1 10.55 12.75 Q12.75 11.7 14.8 11.45 L15.5 11.4 15.6 11.4 15.95 11.35 16.95 11.4 17.0 11.4 17.35 11.45 17.4 11.4 Q18.5 11.6 18.8 12.1" fill="#a98029" fill-rule="evenodd" stroke="none"/>
    <path d="M40.5 10.35 Q42.1 9.9 42.45 8.05 39.95 7.35 39.35 10.55 L37.75 10.8 37.15 9.65 36.95 9.15 Q38.4 6.15 35.65 3.95 34.1 7.65 36.5 8.95 L36.05 9.45 36.0 9.5 Q34.3 8.6 33.4 5.6 L33.4 5.25 Q33.35 1.9 35.0 0.2 L36.1 0.0 Q37.8 0.3 38.7 1.65 L39.1 2.3 Q39.65 4.8 38.9 6.8 L39.55 5.8 39.6 5.85 43.3 6.05 43.65 6.35 Q44.3 7.05 44.55 7.9 L44.65 8.5 43.2 10.0 42.95 10.25 Q41.7 11.15 40.15 11.2 L40.5 10.35 M37.0 18.55 L37.2 18.35 38.1 17.55 38.3 17.4 40.6 17.4 Q41.4 18.4 40.3 20.0 L39.85 20.55 38.3 21.05 35.4 21.25 35.1 21.05 35.95 20.5 35.4 20.3 35.65 20.05 37.0 18.55 M21.75 35.6 L21.8 33.45 21.7 32.9 21.45 31.4 22.35 32.0 22.65 30.85 23.7 31.45 23.85 31.0 Q25.7 33.55 26.2 36.15 24.35 36.65 21.75 35.6 M17.9 7.95 L18.3 8.75 17.6 10.4 17.4 11.4 17.35 11.45 17.0 11.4 16.95 11.4 16.8 9.7 15.95 11.35 15.6 11.4 15.5 11.4 15.2 10.5 14.8 11.45 Q12.75 11.7 10.55 12.75 L10.35 11.15 Q12.45 11.6 14.1 10.5 L14.25 10.45 Q15.8 8.1 17.9 7.95 M28.95 10.25 L28.5 10.8 27.8 11.6 27.4 11.5 27.5 10.65 26.65 11.3 26.0 11.2 25.95 10.15 25.15 11.05 23.15 10.9 24.7 9.35 Q27.75 9.15 28.95 10.25 M39.9 18.65 Q38.3 20.35 36.35 20.7 L38.65 20.5 38.8 20.5 Q39.9 19.8 39.9 18.65 M9.15 24.6 L9.05 24.35 9.0 23.7 9.2 24.55 9.15 24.6 M9.05 23.7 L9.0 23.4 9.05 23.7 M23.25 33.7 L23.3 33.6 22.5 33.05 22.85 34.75 23.25 33.7" fill="#70541b" fill-rule="evenodd" stroke="none"/>
    <path d="M39.35 10.55 Q39.95 7.35 42.45 8.05 42.1 9.9 40.5 10.35 L40.4 10.4 39.75 10.5 39.35 10.55 M40.15 11.2 Q41.7 11.15 42.95 10.25 L43.2 10.0 44.65 8.5 Q44.65 9.55 43.5 10.4 42.05 11.4 39.9 11.7 L40.15 11.2 M36.5 8.95 Q34.1 7.65 35.65 3.95 38.4 6.15 36.95 9.15 L36.7 8.7 36.5 8.95 M39.85 20.55 Q38.3 22.05 36.5 21.8 L36.2 21.75 36.15 21.75 35.9 21.6 35.85 21.55 35.4 21.25 38.3 21.05 39.85 20.55 M25.3 32.25 L27.65 34.45 Q27.25 35.9 26.4 36.55 24.85 37.75 21.75 36.15 L21.75 35.6 Q24.35 36.65 26.2 36.15 25.7 33.55 23.85 31.0 L24.0 30.5 24.25 30.85 25.3 32.25 M27.4 11.5 L26.65 11.3 27.5 10.65 27.4 11.5 M26.0 11.2 L25.15 11.05 25.95 10.15 26.0 11.2 M39.9 18.65 Q39.9 19.8 38.8 20.5 L38.65 20.5 36.35 20.7 Q38.3 20.35 39.9 18.65 M14.8 11.45 L15.2 10.5 15.5 11.4 14.8 11.45 M15.95 11.35 L16.8 9.7 16.95 11.4 15.95 11.35 M9.4 22.25 L9.4 22.2 12.5 21.9 12.55 21.95 13.1 23.15 13.15 23.45 13.15 23.7 Q13.0 24.85 12.55 25.4 11.95 26.15 11.05 26.15 L10.7 26.15 10.0 25.85 10.0 25.8 9.7 25.55 9.6 25.4 9.15 24.6 9.2 24.55 9.05 23.7 Q9.1 22.65 9.4 22.25" fill="#564114" fill-rule="evenodd" stroke="none"/>
    <path d="M43.3 6.05 L39.6 5.85 39.65 5.8 Q40.95 4.6 42.55 5.55 L43.3 6.05 M39.55 5.8 L38.9 6.8 Q39.65 4.8 39.1 2.3 L39.25 2.75 39.45 3.4 Q39.75 4.5 39.6 5.75 L39.55 5.8 M35.0 0.2 Q33.35 1.9 33.4 5.25 L33.4 5.6 Q34.3 8.6 36.0 9.5 L35.75 9.8 Q34.7 9.55 33.75 8.1 32.8 6.6 32.55 4.95 L32.5 3.4 Q32.7 1.9 33.95 0.85 34.5 0.4 35.0 0.2 M38.3 17.4 Q39.25 16.85 40.25 17.05 L40.6 17.4 38.3 17.4 M9.85 12.8 L9.5 10.7 10.3 10.75 Q13.4 10.75 14.7 9.0 17.0 7.05 17.9 7.95 15.8 8.1 14.25 10.45 L14.1 10.5 Q12.45 11.6 10.35 11.15 L10.55 12.75 9.95 13.1 9.8 13.15 9.85 12.8 M23.0 10.1 L24.1 8.95 Q28.65 8.75 29.2 9.95 L29.1 10.1 28.95 10.25 Q27.75 9.15 24.7 9.35 L23.15 10.9 22.5 10.9 22.2 10.9 23.0 10.1 M23.25 33.7 L22.85 34.75 22.5 33.05 23.3 33.6 23.25 33.7" fill="#cf9b30" fill-rule="evenodd" stroke="none"/>
    <path d="M36.0 9.5 L36.05 9.45 36.5 8.95 36.7 8.7 36.95 9.15 37.15 9.65 37.75 10.8 39.35 10.55 39.75 10.5 Q37.0 15.25 35.65 20.05 L35.4 20.3 35.95 20.5 35.1 21.05 35.4 21.25 35.85 21.55 33.85 24.3 Q33.3 25.0 32.5 25.3 L31.0 27.55 30.1 27.95 29.2 28.05 29.15 28.8 28.3 29.6 27.85 30.15 27.35 30.15 25.9 29.3 25.6 31.25 Q25.15 31.3 24.25 30.85 L24.0 30.5 23.85 31.0 23.7 31.45 22.65 30.85 22.35 32.0 21.45 31.4 21.7 32.9 Q17.75 35.05 13.6 35.5 L13.35 35.45 13.3 35.45 Q7.3 35.0 5.35 35.4 L5.0 34.6 Q5.1 33.35 6.0 33.05 8.8 31.05 11.45 29.4 11.5 29.3 11.6 29.3 L11.75 29.35 15.1 27.35 15.15 27.4 16.0 27.05 16.2 26.9 17.2 26.85 Q16.95 26.4 16.1 26.35 L15.5 26.6 14.55 27.0 Q12.7 27.95 11.2 28.85 L11.0 28.95 5.2 32.65 Q4.9 32.75 4.65 33.0 3.9 33.75 0.7 34.75 0.3 32.6 0.45 30.45 L0.45 30.3 Q0.75 29.75 1.5 29.65 L1.75 29.6 2.35 29.65 5.55 30.0 Q6.8 29.65 7.0 28.95 7.6 27.45 7.3 26.4 L7.3 26.3 Q6.6 24.8 3.85 24.3 L3.15 24.2 Q2.75 23.7 1.75 24.55 L2.05 23.85 2.9 22.25 3.15 21.85 3.2 21.75 3.25 21.6 4.35 20.3 5.15 20.05 5.6 19.9 Q10.15 18.45 12.4 19.0 15.65 20.3 16.5 22.15 16.75 25.3 17.85 26.9 L18.25 27.45 Q19.2 29.4 20.7 29.45 L20.85 29.55 Q24.9 28.65 27.95 27.05 31.35 25.05 32.85 22.55 35.7 17.8 37.75 13.25 38.05 12.2 36.75 10.95 L35.55 10.0 35.75 9.8 36.0 9.5 M9.4 22.2 L9.4 22.25 7.7 22.45 9.05 24.35 9.15 24.6 9.6 25.4 9.7 25.55 10.0 25.8 10.0 25.85 10.7 26.15 11.05 26.15 11.1 26.3 Q13.55 26.5 13.2 23.5 L13.15 23.45 13.1 23.15 12.55 21.95 12.5 21.9 9.4 22.2 M14.75 30.9 L14.7 30.9 14.75 30.95 14.75 30.9" fill="#c1c79a" fill-rule="evenodd" stroke="none"/>
    <path d="M40.5 10.35 L40.15 11.2 39.9 11.7 39.7 11.8 37.75 16.35 Q37.4 17.1 37.0 18.55 L35.65 20.05 Q37.0 15.25 39.75 10.5 L40.4 10.4 40.5 10.35 M36.15 21.75 L35.95 22.7 35.9 22.7 34.9 24.55 34.6 25.0 34.05 25.75 32.5 25.3 33.3 26.75 Q33.05 27.05 32.85 26.95 L32.15 26.6 31.85 27.5 30.95 27.9 30.8 28.25 30.1 27.95 31.0 27.55 32.5 25.3 Q33.3 25.0 33.85 24.3 L35.85 21.55 35.9 21.6 36.15 21.75 M29.15 28.8 L29.3 29.3 28.65 29.8 28.6 30.85 28.55 30.85 27.85 30.15 28.3 29.6 29.15 28.8 M25.6 31.25 L26.2 31.95 25.3 32.25 24.25 30.85 Q25.15 31.3 25.6 31.25 M21.8 33.45 Q19.4 35.8 13.6 35.5 17.75 35.05 21.7 32.9 L21.8 33.45 M5.35 35.4 L4.8 35.55 Q4.15 35.8 4.15 34.8 L4.15 34.15 4.2 34.05 Q4.3 33.45 4.65 33.0 4.9 32.75 5.2 32.65 L11.0 28.95 11.2 28.85 Q12.7 27.95 14.55 27.0 L15.5 26.6 16.1 26.35 Q16.95 26.4 17.2 26.85 L16.2 26.9 16.0 27.05 15.15 27.4 15.1 27.35 11.75 29.35 11.6 29.3 Q11.5 29.3 11.45 29.4 8.8 31.05 6.0 33.05 5.1 33.35 5.0 34.6 L5.35 35.4" fill="#a5ad6b" fill-rule="evenodd" stroke="none"/>
    <path d="M13.75 -7.15 L13.85 -7.15 Q12.1 -6.7 11.55 -5.7 14.35 -2.7 18.35 -1.0 13.7 2.15 14.55 4.05 14.9 5.0 15.75 6.0 11.45 6.35 8.3 3.45 12.8 2.35 15.3 -1.2 12.75 -4.35 8.65 -6.45 L13.75 -7.25 13.75 -7.15" fill="#c8d8ce" fill-rule="evenodd" stroke="none"/>
    <path d="M24.15 -2.95 Q21.9 -0.8 20.3 1.6 21.8 4.45 24.25 6.85 23.45 9.55 20.05 8.8 22.15 8.1 23.0 6.4 19.35 2.65 18.8 1.4 L23.9 -2.95 24.15 -2.95" fill="#c9d9cf" fill-opacity="0.6627451" fill-rule="evenodd" stroke="none"/>
    <path d="M40.5 10.35 L40.15 11.2 39.9 11.7 39.7 11.8 37.75 16.35 Q37.4 17.1 37.0 18.55 L37.2 18.35 38.1 17.55 M44.65 8.5 L44.55 7.9 Q44.3 7.05 43.65 6.35 M38.7 1.65 Q37.8 0.3 36.1 0.0 L35.0 0.2 Q34.5 0.4 33.95 0.85 32.7 1.9 32.5 3.4 L32.55 4.95 Q32.8 6.6 33.75 8.1 34.7 9.55 35.75 9.8 L36.0 9.5 36.05 9.45 36.5 8.95 36.7 8.7 36.95 9.15 M37.15 9.65 L37.75 10.8 39.35 10.55 39.75 10.5 40.4 10.4 M44.65 8.5 Q44.65 9.55 43.5 10.4 42.05 11.4 39.9 11.7 M38.3 17.4 Q39.25 16.85 40.25 17.05 L40.6 17.4 Q41.4 18.4 40.3 20.0 L39.85 20.55 Q38.3 22.05 36.5 21.8 L36.2 21.75 36.15 21.75 35.95 22.7 35.9 22.7 34.9 24.55 34.6 25.0 34.05 25.75 M26.2 31.95 L25.3 32.25 27.65 34.45 Q27.25 35.9 26.4 36.55 24.85 37.75 21.75 36.15 L21.75 35.6 21.8 33.45 Q19.4 35.8 13.6 35.5 L13.35 35.45 13.3 35.45 Q7.3 35.0 5.35 35.4 L4.8 35.55 Q4.15 35.8 4.15 34.8 L4.15 34.15 M4.2 34.05 Q4.3 33.45 4.65 33.0 3.9 33.75 0.7 34.75 0.3 32.6 0.45 30.45 M0.45 30.3 Q0.55 28.2 1.2 26.15 L1.75 24.55 2.05 23.85 2.9 22.25 3.15 21.85 3.2 21.75 3.25 21.6 Q3.5 19.2 4.65 17.0 5.85 14.7 7.35 13.9 L9.85 12.8 9.5 10.7 10.3 10.75 Q13.4 10.75 14.7 9.0 17.0 7.05 17.9 7.95 L18.3 8.75 17.6 10.4 23.0 10.1 24.1 8.95 Q28.65 8.75 29.2 9.95 L29.1 10.1 M28.95 10.25 L28.5 10.8 31.0 11.8 Q33.75 11.6 35.55 10.0 L35.75 9.8 M39.6 5.85 L39.65 5.8 Q40.95 4.6 42.55 5.55 L43.3 6.05 M39.1 2.3 L39.25 2.75 39.45 3.4 Q39.75 4.5 39.6 5.75 L39.6 5.85 M23.0 10.1 L22.2 10.9 22.5 10.9 23.15 10.9 25.15 11.05 26.0 11.2 26.65 11.3 27.4 11.5 27.8 11.6 28.5 10.8 M35.65 20.05 L35.4 20.3 35.95 20.5 35.1 21.05 M37.0 18.55 L35.65 20.05 M15.6 11.4 L15.95 11.35 16.95 11.4 M17.0 11.4 L17.35 11.45 17.4 11.4 17.6 10.4 M14.8 11.45 L15.5 11.4 M9.85 12.8 L9.8 13.15 9.95 13.1 10.55 12.75 Q12.75 11.7 14.8 11.45 M9.4 22.25 L9.4 22.2 M12.5 21.9 L12.55 21.95 13.1 23.15 13.15 23.45 13.15 23.7 Q13.0 24.85 12.55 25.4 11.95 26.15 11.05 26.15 L10.7 26.15 M9.7 25.55 L9.6 25.4 9.15 24.6 9.05 24.35 9.0 23.7 9.2 24.55 9.05 23.7 9.0 23.4 M9.4 22.25 Q9.1 22.65 9.05 23.7 M5.2 32.65 Q4.9 32.75 4.65 33.0 M23.85 31.0 L24.0 30.5 24.25 30.85 25.3 32.25 M21.7 32.9 L21.45 31.4 22.35 32.0 22.65 30.85 23.7 31.45 23.85 31.0 M21.7 32.9 L21.8 33.45" ffdec:has-small-stroke="true" ffdec:original-stroke-width="0.05" fill="none" stroke="#544225" stroke-linecap="round" stroke-linejoin="round" stroke-opacity="0.4117647" stroke-width="1.0"/>
    <path d="M9.4 22.2 L12.5 21.9" ffdec:has-small-stroke="true" ffdec:original-stroke-width="0.05" fill="none" stroke="#576932" stroke-linecap="round" stroke-linejoin="round" stroke-opacity="0.36078432" stroke-width="1.0"/>
    <path d="M17.2 26.85 Q16.95 26.4 16.1 26.35 L15.5 26.6 14.55 27.0 Q12.7 27.95 11.2 28.85 M11.0 28.95 L5.2 32.65" ffdec:has-small-stroke="true" ffdec:original-stroke-width="0.05" fill="none" stroke="#544225" stroke-linecap="round" stroke-linejoin="round" stroke-opacity="0.4" stroke-width="1.0"/>
    <path d="M34.05 25.75 L32.5 25.3 33.3 26.75 Q33.05 27.05 32.85 26.95 L32.15 26.6 31.85 27.5 30.95 27.9 30.8 28.25 30.1 27.95 29.2 28.05 29.15 28.8 29.3 29.3 28.65 29.8 28.6 30.85 28.55 30.85 27.85 30.15 27.35 30.15 25.9 29.3 25.6 31.25 26.2 31.95" ffdec:has-small-stroke="true" ffdec:original-stroke-width="0.05" fill="none" stroke="#576932" stroke-linecap="round" stroke-linejoin="round" stroke-opacity="0.43137255" stroke-width="1.0"/>
    <path d="M20.0 13.95 L21.1 13.95 20.4 14.75 21.25 16.15 19.55 15.15 17.95 16.1 Q17.95 15.8 18.75 14.85 L17.45 14.25 18.95 14.05 19.4 12.4 20.0 13.95 M23.15 13.4 L24.1 14.45 24.9 14.15 24.55 14.95 25.65 15.85 24.0 15.55 23.0 16.7 23.3 15.5 22.15 15.4 23.25 14.85 23.15 13.4" fill="#e7dca0" fill-rule="evenodd" stroke="none"/>
  </g>
</svg>
