<?xml version="1.0" encoding="UTF-8" standalone="no"?>
<svg xmlns:ffdec="https://www.free-decompiler.com/flash" xmlns:xlink="http://www.w3.org/1999/xlink" ffdec:objectType="shape" height="30.55px" width="49.65px" xmlns="http://www.w3.org/2000/svg">
  <g transform="matrix(1.0, 0.0, 0.0, 1.0, 24.8, 15.25)">
    <path d="M3.15 -13.15 L3.85 -13.65 3.9 -13.6 5.45 -10.35 3.15 -13.15 M5.85 -11.4 L6.2 -11.05 6.4 -11.35 6.6 -9.65 5.85 -11.4 M-9.7 -8.8 L-9.3 -9.25 -7.55 -8.75 -9.7 -8.8 M-8.65 -9.85 L-8.3 -10.2 -6.3 -9.25 -8.65 -9.85 M-7.15 -10.4 L-6.2 -10.6 -4.3 -9.5 -7.15 -10.4 M-5.5 -10.7 L-4.55 -10.9 -4.4 -10.9 -2.85 -9.6 -5.5 -10.7 M-0.5 -11.05 L0.45 -11.1 1.6 -9.8 -0.5 -11.05 M2.55 -11.4 L2.15 -12.35 2.6 -12.7 4.6 -10.05 2.55 -11.4" fill="#7c537d" fill-rule="evenodd" stroke="none"/>
    <path d="M2.6 -12.7 L3.15 -13.15 5.45 -10.35 3.9 -13.6 5.85 -11.4 6.6 -9.65 6.4 -11.35 6.6 -11.7 8.2 -9.0 8.2 -8.95 3.5 -9.4 2.55 -11.4 4.6 -10.05 2.6 -12.7 M-9.75 -7.55 L-9.75 -8.75 -9.7 -8.8 -7.55 -8.75 -9.3 -9.25 -8.65 -9.85 -6.3 -9.25 -8.3 -10.2 -7.15 -10.4 -4.3 -9.5 -6.2 -10.6 -5.5 -10.7 -2.85 -9.6 -4.4 -10.9 -0.5 -11.05 1.6 -9.8 0.45 -11.1 1.35 -11.1 2.95 -9.4 -4.2 -8.95 -9.3 -7.65 -9.4 -7.55 -9.75 -7.55" fill="#5f3938" fill-rule="evenodd" stroke="none"/>
    <path d="M8.2 -8.95 L8.2 -9.0 8.25 -8.95 8.2 -8.95" fill="#6a7965" fill-rule="evenodd" stroke="none"/>
    <path d="M8.2 -9.0 L8.25 -9.0 8.25 -8.95 13.25 -5.85 16.55 -1.85 17.6 0.35 17.2 0.45 17.85 0.85 20.0 2.75 21.75 4.45 22.65 6.25 22.55 6.45 21.6 5.95 22.8 7.4 23.55 7.9 24.25 8.9 24.15 9.4 21.45 9.45 24.1 9.75 24.8 10.35 24.85 11.4 24.4 11.5 22.6 10.8 22.85 11.45 19.05 11.9 18.55 11.9 12.75 10.85 12.55 11.45 8.5 11.0 7.25 10.7 6.7 11.45 5.3 13.35 5.25 13.15 6.2 11.45 5.15 12.7 5.1 12.45 6.25 10.4 5.0 12.0 4.95 11.7 6.3 9.6 4.75 10.9 4.7 10.5 6.95 8.5 4.4 9.7 0.45 7.95 0.2 7.1 -4.7 4.1 -4.7 4.25 -5.7 5.3 -5.75 5.05 -8.8 4.0 -12.15 1.4 -14.35 -1.45 -15.75 -2.35 -23.55 -1.25 -24.8 -2.75 -24.0 -4.4 -21.6 -4.6 -23.6 -5.35 -22.8 -7.2 -21.0 -7.15 -22.4 -8.3 -20.8 -8.9 -18.45 -8.35 -20.1 -11.05 -19.4 -12.3 -17.95 -11.8 -18.6 -13.6 -16.85 -12.7 -17.55 -14.2 -17.45 -15.25 -15.6 -14.95 -12.6 -8.3 -10.9 -7.5 -9.75 -7.55 -9.4 -7.55 -9.3 -7.65 -4.2 -8.95 2.95 -9.4 3.5 -9.4 8.2 -8.95 8.25 -8.95 8.2 -9.0 M16.05 -0.25 L13.05 -1.15 10.05 0.65 8.9 4.25 11.4 9.25 10.1 5.25 10.9 1.6 13.6 -0.55 16.05 -0.25 M18.85 3.7 Q18.35 3.75 18.1 4.15 17.85 4.55 18.0 5.1 18.1 5.55 18.55 5.85 L19.45 6.1 20.2 5.6 Q20.45 5.15 20.3 4.7 20.2 4.15 19.75 3.9 L18.85 3.7 M15.65 8.95 L15.3 6.4 15.7 4.05 16.5 3.0 15.1 3.7 14.4 6.45 15.65 8.95" fill="url(#gradient0)" fill-rule="evenodd" stroke="none"/>
    <path d="M8.25 -9.0 L13.6 -6.2 17.3 -1.8 18.1 0.7 20.0 2.75 17.85 0.85 17.2 0.45 17.6 0.35 16.55 -1.85 13.25 -5.85 8.25 -8.95 8.25 -9.0" fill="#4d3e13" fill-rule="evenodd" stroke="none"/>
    <path d="M22.65 6.25 L23.2 7.45 23.55 7.9 22.8 7.4 21.6 5.95 22.55 6.45 22.65 6.25 M24.15 9.4 L24.1 9.75 21.45 9.45 24.15 9.4 M24.4 11.5 L23.2 11.7 19.05 11.9 22.85 11.45 22.6 10.8 24.4 11.5 M18.55 11.9 L12.35 11.85 12.55 12.55 12.2 13.15 11.65 12.3 11.75 13.45 11.45 13.6 10.7 12.35 10.8 13.9 10.3 14.15 9.8 12.25 9.2 14.8 8.55 15.3 8.25 14.45 9.35 11.85 8.3 11.85 6.85 11.5 6.7 11.45 7.25 10.7 8.5 11.0 12.55 11.45 12.75 10.85 18.55 11.9 M4.75 10.95 L1.0 9.95 -1.6 8.6 -0.4 8.8 0.6 8.4 0.45 7.95 4.4 9.7 6.95 8.5 4.7 10.5 4.75 10.9 4.75 10.95 M-4.8 6.85 L-5.7 6.35 -9.15 5.35 -10.9 3.7 -13.6 1.0 -14.35 -1.45 -12.15 1.4 -8.8 4.0 -5.75 5.05 -5.7 5.3 -4.7 4.25 -4.9 4.9 -5.05 5.65 -5.05 5.75 -5.1 5.8 -4.8 6.85 M11.4 9.25 L8.9 4.25 10.05 0.65 13.05 -1.15 16.05 -0.25 13.6 -0.55 10.9 1.6 10.1 5.25 11.4 9.25 M16.5 3.0 L15.7 4.05 15.3 6.4 15.65 8.95 14.4 6.45 15.1 3.7 16.5 3.0 M9.35 11.85 L12.35 11.85 9.35 11.85" fill="#7a5178" fill-rule="evenodd" stroke="none"/>
    <path d="M19.15 4.15 L19.2 3.95 Q19.2 3.65 18.9 3.7 L18.8 3.75 18.55 3.85 18.2 4.25 18.1 4.45 18.15 4.7 18.25 4.75 19.15 4.15 M18.85 3.7 L19.75 3.9 Q20.2 4.15 20.3 4.7 20.45 5.15 20.2 5.6 L19.45 6.1 18.55 5.85 Q18.1 5.55 18.0 5.1 17.85 4.55 18.1 4.15 18.35 3.75 18.85 3.7" fill="#999999" fill-rule="evenodd" stroke="none"/>
    <path d="M5.25 13.15 L5.15 12.7 6.2 11.45 5.25 13.15 M5.1 12.45 L5.0 12.0 6.25 10.4 5.1 12.45 M4.95 11.7 L4.8 10.95 4.75 10.9 6.3 9.6 4.95 11.7 M19.15 4.15 L18.25 4.75 18.15 4.7 18.1 4.45 18.2 4.25 18.55 3.85 18.8 3.75 18.9 3.7 Q19.2 3.65 19.2 3.95 L19.15 4.15" fill="#ffffff" fill-rule="evenodd" stroke="none"/>
    <path d="M-1.6 8.6 L-4.5 8.15 -4.55 7.95 -4.3 7.85 -2.15 7.95 -4.75 7.1 -4.8 6.95 -1.85 7.4 -5.05 5.75 -5.05 5.65 -2.15 6.45 -4.9 4.9 -4.7 4.25 -4.7 4.1 0.2 7.1 0.45 7.95 0.6 8.4 -0.4 8.8 -1.6 8.6 M-10.9 3.7 L-13.6 5.85 -14.65 5.9 -15.25 5.0 -13.1 4.25 -15.5 4.5 -14.85 3.3 -12.75 3.35 -14.7 3.0 -14.15 2.05 -12.4 2.6 -13.95 1.65 -13.6 1.0 -10.9 3.7" fill="#8a5f9e" fill-rule="evenodd" stroke="none"/>
    <path d="M4.8 10.95 L4.75 10.95 4.75 10.9 4.8 10.95" fill="url(#gradient1)" fill-rule="evenodd" stroke="none"/>
    <path d="M12.2 13.15 L12.15 13.3 11.75 13.45 11.65 12.3 12.2 13.15 M11.45 13.6 L10.8 13.9 10.7 12.35 11.45 13.6 M10.3 14.15 L9.85 14.3 9.2 14.8 9.8 12.25 10.3 14.15 M-4.55 7.95 L-4.75 7.1 -2.15 7.95 -4.3 7.85 -4.55 7.95 M-4.8 6.95 L-4.8 6.85 -5.1 5.8 -5.05 5.75 -1.85 7.4 -4.8 6.95 M-15.25 5.0 L-15.5 4.55 -15.5 4.5 -13.1 4.25 -15.25 5.0 M-14.85 3.3 L-14.7 3.0 -12.75 3.35 -14.85 3.3 M-14.15 2.05 L-13.95 1.65 -12.4 2.6 -14.15 2.05 M-5.05 5.65 L-4.9 4.9 -2.15 6.45 -5.05 5.65" fill="#bd96d6" fill-rule="evenodd" stroke="none"/>
    <path d="M2.6 -12.7 L3.15 -13.15 3.85 -13.65 3.9 -13.6 5.85 -11.4 6.2 -11.05 6.4 -11.35 6.6 -11.7 8.2 -9.0 8.25 -9.0 13.6 -6.2 17.3 -1.8 18.1 0.7 20.0 2.75 21.75 4.45 22.65 6.25 23.2 7.45 23.55 7.9 24.25 8.9 24.15 9.4 24.1 9.75 24.8 10.35 24.85 11.4 24.4 11.5 23.2 11.7 19.05 11.9 18.55 11.9 12.35 11.85 12.55 12.55 12.2 13.15 12.15 13.3 11.75 13.45 11.45 13.6 10.8 13.9 10.3 14.15 9.85 14.3 9.2 14.8 8.55 15.3 8.25 14.45 9.35 11.85 8.3 11.85 6.85 11.5 6.7 11.45 5.3 13.35 5.25 13.15 5.15 12.7 5.1 12.45 5.0 12.0 4.95 11.7 4.8 10.95 4.75 10.95 1.0 9.95 -1.6 8.6 -4.5 8.15 -4.55 7.95 -4.75 7.1 -4.8 6.95 -4.8 6.85 -5.7 6.35 -9.15 5.35 -10.9 3.7 -13.6 5.85 -14.65 5.9 -15.25 5.0 -15.5 4.55 -15.5 4.5 -14.85 3.3 -14.7 3.0 -14.15 2.05 -13.95 1.65 -13.6 1.0 -14.35 -1.45 -15.75 -2.35 -23.55 -1.25 -24.8 -2.75 -24.0 -4.4 -21.6 -4.6 -23.6 -5.35 -22.8 -7.2 -21.0 -7.15 -22.4 -8.3 -20.8 -8.9 -18.45 -8.35 -20.1 -11.05 -19.4 -12.3 -17.95 -11.8 -18.6 -13.6 -16.85 -12.7 -17.55 -14.2 -17.45 -15.25 -15.6 -14.95 -12.6 -8.3 -10.9 -7.5 M-9.75 -7.55 L-9.75 -8.75 -9.7 -8.8 -9.3 -9.25 -8.65 -9.85 -8.3 -10.2 -7.15 -10.4 -6.2 -10.6 -5.5 -10.7 -4.55 -10.9 -4.4 -10.9 -0.5 -11.05 0.45 -11.1 1.35 -11.1 2.95 -9.4 3.5 -9.4 2.55 -11.4 2.15 -12.35 2.6 -12.7 M8.2 -8.95 L8.25 -8.95 8.2 -9.0 M8.2 -8.95 L3.5 -9.4 M11.4 9.25 L10.1 5.25 10.9 1.6 13.6 -0.55 16.05 -0.25 M21.6 5.95 L22.8 7.4 23.55 7.9 M21.45 9.45 L24.1 9.75 M15.65 8.95 L15.3 6.4 15.7 4.05 16.5 3.0 M7.25 10.7 L6.7 11.45 6.85 11.5 M6.95 8.5 L4.7 10.5 4.75 10.9 4.8 10.95 M-4.7 4.25 L-4.7 4.1 0.2 7.1 0.45 7.95 0.6 8.4 -0.4 8.8 -1.6 8.6 M12.35 11.85 L9.35 11.85 M2.95 -9.4 L-4.2 -8.95 -9.3 -7.65 -9.4 -7.55 M-4.9 4.9 L-4.7 4.25 M-12.15 1.4 L-14.35 -1.45 M-4.8 6.85 L-5.1 5.8 -5.05 5.75 -5.05 5.65 -4.9 4.9 M-13.6 1.0 L-10.9 3.7" ffdec:has-small-stroke="true" ffdec:original-stroke-width="0.05" fill="none" stroke="#000000" stroke-linecap="round" stroke-linejoin="round" stroke-opacity="0.3019608" stroke-width="1.0"/>
    <path d="M18.85 3.7 L19.75 3.9 Q20.2 4.15 20.3 4.7 20.45 5.15 20.2 5.6 L19.45 6.1 18.55 5.85 Q18.1 5.55 18.0 5.1 17.85 4.55 18.1 4.15 18.35 3.75 18.85 3.7 Z" ffdec:has-small-stroke="true" ffdec:original-stroke-width="0.05" fill="none" stroke="#000000" stroke-linecap="round" stroke-linejoin="round" stroke-opacity="0.5529412" stroke-width="1.0"/>
  </g>
  <defs>
    <linearGradient gradientTransform="matrix(-0.0015, 0.0064, -0.0307, -0.007, 0.8, 0.9)" gradientUnits="userSpaceOnUse" id="gradient0" spreadMethod="pad" x1="-819.2" x2="819.2">
      <stop offset="0.0" stop-color="#5f3938"/>
      <stop offset="0.3686274509803922" stop-color="#9f72cf"/>
      <stop offset="0.9137254901960784" stop-color="#ebcfe3"/>
    </linearGradient>
    <linearGradient gradientTransform="matrix(0.0115, 0.004, -0.004, 0.0128, -0.25, -0.25)" gradientUnits="userSpaceOnUse" id="gradient1" spreadMethod="pad" x1="-819.2" x2="819.2">
      <stop offset="0.0" stop-color="#3e465b"/>
      <stop offset="1.0" stop-color="#bad678"/>
    </linearGradient>
  </defs>
</svg>
