<?xml version="1.0" encoding="UTF-8" standalone="no"?>
<svg xmlns:ffdec="https://www.free-decompiler.com/flash" xmlns:xlink="http://www.w3.org/1999/xlink" ffdec:objectType="shape" height="33.15px" width="38.3px" xmlns="http://www.w3.org/2000/svg">
  <g transform="matrix(1.0, 0.0, 0.0, 1.0, 19.15, 16.55)">
    <path d="M-7.15 -15.5 L-6.7 -15.3 -6.85 -15.1 -6.65 -14.75 -6.55 -14.75 -6.45 -14.75 -6.3 -14.9 -6.25 -15.0 -6.25 -15.05 -1.9 -12.8 -2.0 -12.6 -1.8 -12.25 -1.7 -12.25 -1.6 -12.3 -1.4 -12.4 -1.4 -12.5 -1.4 -12.55 -1.35 -12.5 -1.05 -13.05 -0.65 -11.6 -0.75 -11.6 -1.0 -11.5 Q-1.3 -11.0 -0.9 -10.65 L-0.75 -10.65 -0.55 -10.7 -0.5 -10.8 -0.45 -10.8 -0.4 -10.7 -0.05 -9.25 -0.05 -9.2 -0.25 -9.3 -1.15 -7.25 -1.35 -7.45 -1.45 -7.45 -1.7 -7.2 -1.55 -6.9 -1.4 -6.85 -1.35 -6.85 -1.85 -5.7 -2.2 -6.15 -2.5 -6.25 -2.95 -5.85 -3.15 -5.8 -7.55 -7.75 -5.3 -6.8 -7.65 -7.9 -10.1 -11.45 -10.1 -11.7 -10.05 -11.8 -10.05 -11.9 -10.1 -12.0 -5.85 -9.55 -5.85 -9.5 -5.75 -9.3 -5.6 -9.4 -5.65 -9.55 -5.7 -9.55 -5.75 -9.55 -5.8 -9.55 Q-9.75 -12.25 -9.3 -12.65 L-9.25 -12.75 -6.35 -12.35 -5.5 -12.2 -5.45 -12.2 -5.45 -12.3 -5.45 -12.4 -5.7 -12.85 -5.85 -12.85 -5.95 -12.85 -6.15 -12.75 -6.25 -12.65 Q-9.0 -13.45 -9.25 -13.75 L-9.2 -13.8 -7.9 -13.65 -7.15 -13.6 -7.1 -13.65 -7.1 -13.75 -7.1 -13.9 -7.1 -13.95 -7.05 -13.9 -7.0 -13.8 -6.9 -13.85 -6.85 -13.9 -6.85 -13.95 -6.9 -14.0 -6.95 -14.0 -7.0 -14.05 -7.05 -14.0 -7.1 -14.0 -7.1 -14.05 -7.35 -14.3 -7.35 -14.25 -7.5 -14.3 -7.6 -14.3 -7.75 -14.2 -8.9 -14.6 -9.05 -14.6 -9.1 -14.65 -9.3 -14.55 -12.95 -13.1 -13.05 -13.2 -13.15 -13.2 -13.45 -12.95 -13.45 -12.9 -13.85 -12.75 -13.45 -13.35 -11.4 -14.05 Q-11.2 -13.95 -10.9 -14.25 L-10.85 -14.3 -7.2 -15.6 -7.15 -15.5 M4.2 15.45 L1.4 15.55 1.35 15.4 1.4 15.35 Q1.4 15.1 1.2 15.0 L1.1 15.0 0.8 15.25 0.95 15.55 -2.0 15.65 -8.1 12.95 -8.1 12.85 -8.05 12.8 Q-8.1 12.55 -8.25 12.45 L-8.35 12.45 -8.65 12.7 -9.65 12.25 -10.7 10.95 Q-10.65 10.65 -11.05 10.3 L-11.2 10.3 -12.05 9.2 -12.0 9.2 -11.9 9.15 -11.75 9.0 -11.7 8.95 -11.9 8.6 -12.0 8.6 -12.3 8.85 -12.35 8.85 -13.4 7.5 -13.35 7.4 -13.55 7.1 -13.65 7.1 -13.75 7.1 -14.55 6.05 -15.3 -1.8 Q-15.2 -1.85 -15.05 -1.95 L-15.0 -2.05 Q-14.95 -2.4 -15.2 -2.55 L-15.2 -2.6 -14.95 -5.2 -14.55 -5.1 -13.95 -5.55 -13.05 -3.55 -13.2 -3.6 -13.45 -3.6 -13.6 -3.35 Q-13.55 -2.95 -13.1 -2.95 L-12.9 -3.05 -12.85 -3.1 -12.15 -1.55 -12.25 -1.25 -11.85 -0.9 -11.2 0.65 -11.95 1.4 -14.1 0.75 -13.0 2.55 -14.6 4.2 -12.25 4.0 -10.8 5.8 -10.65 3.45 -8.6 2.8 -10.45 1.95 -10.55 0.0 -11.0 0.45 -11.5 -0.95 -11.35 -1.1 -11.35 -1.2 Q-11.3 -1.55 -11.6 -1.75 L-11.65 -1.75 -11.8 -1.75 -12.1 -2.65 -12.0 -2.7 -12.05 -2.85 -12.1 -2.85 -12.15 -2.85 -13.65 -7.25 -13.35 -7.25 -7.45 1.75 -11.95 -6.85 -11.8 -6.9 Q-10.75 -7.2 -11.55 -7.95 L-11.6 -7.95 -10.9 -8.15 -10.9 -8.05 -10.7 -8.15 -10.65 -8.15 -10.1 -7.85 -10.1 -7.95 -8.25 -7.55 -8.15 -7.4 -8.0 -7.5 -5.9 -6.8 -6.1 -6.55 -5.9 -6.25 -5.8 -6.2 -5.7 -6.25 -5.55 -6.35 -5.5 -6.45 -5.6 -6.65 -3.15 -5.8 -3.25 -5.6 -3.05 -5.25 -2.95 -5.25 -2.9 -5.25 -2.4 -5.15 Q-2.2 -5.2 -2.05 -5.3 L-4.75 0.75 -2.85 8.55 -2.9 8.55 -3.05 8.55 -3.3 8.8 -3.1 9.1 -3.0 9.15 -2.9 9.1 -2.75 9.0 0.45 11.4 0.45 11.65 Q0.55 12.1 1.0 12.0 L1.15 11.95 1.3 12.05 1.4 12.05 4.15 12.5 4.55 13.45 5.3 15.05 5.25 15.1 4.95 14.7 4.65 14.65 4.55 14.65 4.45 14.55 4.35 14.55 4.05 14.8 4.15 15.1 4.2 15.4 4.2 15.45 M-14.6 6.0 L-15.3 5.1 -16.4 1.6 -16.3 1.6 -16.25 1.65 -16.05 1.9 -15.95 1.9 -15.85 1.85 -15.7 1.75 -15.7 1.65 -15.75 1.4 -15.9 1.15 -16.05 1.15 -16.35 1.4 -16.45 1.45 -16.7 0.6 -16.6 0.6 -16.9 -7.8 -16.5 -7.9 -16.4 -7.75 -16.5 -7.7 -16.25 -4.9 -16.35 -4.9 -16.45 -4.9 Q-16.7 -4.95 -16.75 -4.65 L-16.55 -4.35 -16.4 -4.3 -16.3 -4.35 -16.2 -4.45 -16.0 -2.15 -14.6 6.0 M-5.25 -13.45 L-5.25 -13.5 -5.3 -13.55 -5.4 -13.55 -5.5 -13.5 -5.5 -13.45 -5.4 -13.3 -5.2 -13.4 -4.05 -13.05 -5.25 -13.45 M-10.55 -10.95 L-10.6 -10.9 -10.8 -10.5 Q-10.45 -9.85 -9.9 -10.3 L-9.9 -10.4 -9.9 -10.55 -7.65 -7.9 -9.9 -8.95 -10.15 -9.0 -10.2 -9.0 -11.25 -9.55 -11.4 -10.05 -11.45 -10.7 -11.4 -10.7 -11.4 -10.8 -11.45 -11.1 -11.5 -11.1 -11.45 -11.85 -10.55 -10.95 M-14.75 -7.3 L-14.15 -5.95 -14.3 -6.15 -14.6 -6.2 -14.9 -6.05 -14.75 -7.25 -14.75 -7.3 M-10.35 -6.4 L-10.5 -6.4 -10.75 -6.15 Q-10.8 -5.9 -10.55 -5.8 L-10.45 -5.8 -10.35 -5.85 -10.2 -5.95 -10.2 -6.05 -10.35 -6.4 M-14.1 -1.5 L-14.2 -1.5 -14.1 -1.3 -13.9 -1.4 -13.95 -1.5 -14.0 -1.5 -14.1 -1.5 M-2.3 -9.45 L-2.5 -9.8 -2.65 -9.8 -2.9 -9.55 -2.7 -9.2 -2.6 -9.2 -2.5 -9.25 -2.35 -9.35 -2.3 -9.45 M-0.7 -9.65 L-0.9 -10.0 -1.0 -10.0 -1.3 -9.75 -1.1 -9.4 -0.95 -9.4 -0.9 -9.45 -0.7 -9.6 -0.7 -9.65 M-5.55 -11.15 L-5.75 -11.05 -5.95 -10.7 Q-5.65 -10.0 -5.1 -10.5 L-5.05 -10.6 Q-5.0 -11.0 -5.3 -11.15 L-5.5 -11.15 -5.55 -11.15 M-7.4 -11.55 L-7.4 -11.65 Q-7.3 -12.0 -7.65 -12.2 L-7.8 -12.2 -7.85 -12.2 -8.05 -12.1 -8.3 -11.7 Q-7.95 -11.05 -7.4 -11.55 M-9.1 -11.05 L-9.2 -11.05 Q-9.5 -11.05 -9.5 -10.8 L-9.3 -10.5 -9.2 -10.5 -9.1 -10.5 -8.95 -10.65 -8.9 -10.7 -9.1 -11.05 M-8.1 -10.0 L-8.2 -10.0 -8.4 -9.9 -8.6 -9.55 Q-8.25 -8.85 -7.7 -9.35 L-7.7 -9.45 Q-7.65 -9.8 -7.95 -10.0 L-8.1 -10.0 M-4.1 5.4 Q-4.1 5.15 -4.25 5.05 L-4.4 5.05 Q-4.65 5.05 -4.7 5.3 L-4.5 5.65 -4.35 5.65 -4.25 5.6 -4.1 5.5 -4.1 5.4 M-4.9 2.75 L-4.85 2.65 -5.05 2.35 -5.15 2.35 Q-5.4 2.3 -5.45 2.55 L-5.25 2.9 -5.1 2.9 -5.05 2.85 -4.9 2.75 M-9.85 6.95 L-10.05 6.95 -10.3 6.65 -10.45 6.6 -10.5 6.6 -10.7 6.7 -10.9 7.0 -11.45 7.0 -10.3 8.0 -11.0 9.5 -9.4 8.8 -8.05 9.7 -8.45 8.05 -7.2 7.1 -8.6 7.0 -8.7 7.0 -9.2 5.65 -9.85 6.95 M-9.1 10.65 L-9.35 10.85 -9.2 11.2 -9.05 11.2 -8.95 11.15 -8.8 11.05 -8.8 10.95 Q-8.8 10.75 -8.95 10.65 L-9.1 10.65 M-5.5 10.3 L-5.5 10.25 -5.4 9.4 -6.25 10.2 -7.3 9.75 -6.9 10.8 -7.75 11.75 -6.55 11.6 -6.1 12.8 -5.65 11.55 -4.4 11.3 -5.55 10.65 -5.5 10.3 M-2.8 11.75 L-2.65 11.75 -2.8 11.65 -2.85 11.7 -2.85 11.75 -3.2 12.5 -4.1 12.55 -3.4 13.15 -3.8 14.05 -2.9 13.6 -2.05 14.15 -2.35 13.15 -2.05 12.95 -2.0 12.9 -1.6 12.55 -2.5 12.5 -2.8 11.75 M-4.1 12.55 L-4.15 12.55 -4.1 12.55 M-13.4 2.8 Q-13.3 2.45 -13.65 2.25 L-13.8 2.25 -13.85 2.25 -14.05 2.35 -14.25 2.75 Q-13.95 3.4 -13.4 2.9 L-13.4 2.8 M-12.25 4.9 L-12.15 5.1 -11.95 5.0 -12.0 4.9 -12.05 4.9 -12.15 4.85 -12.25 4.9 M-12.8 5.85 L-12.7 5.85 -12.6 5.85 -12.45 5.7 -12.45 5.6 -12.6 5.3 -12.7 5.3 Q-12.95 5.25 -13.0 5.5 L-12.8 5.85 M-13.95 4.85 L-14.0 4.9 -13.95 5.1 -13.75 5.0 -13.8 4.9 -13.85 4.85 -13.95 4.85 M-11.4 8.35 L-11.5 8.4 -11.4 8.6 -11.2 8.5 -11.3 8.4 -11.35 8.4 -11.4 8.35 M-11.95 6.35 L-12.05 6.4 -11.95 6.6 -11.75 6.5 -11.8 6.4 -11.85 6.4 -11.95 6.35 M-11.25 6.45 L-11.25 6.35 -11.3 6.3 -11.4 6.3 -11.5 6.35 -11.4 6.55 -11.25 6.45 M0.4 12.1 L0.45 12.1 0.4 12.1 M2.8 13.8 L2.7 13.8 2.4 14.05 2.6 14.4 2.75 14.4 2.8 14.35 3.0 14.25 3.0 14.15 2.8 13.8 M4.5 13.8 L4.35 13.8 Q4.1 13.8 4.1 14.05 4.05 14.25 4.3 14.35 L4.4 14.4 4.5 14.35 4.65 14.25 4.65 14.15 4.5 13.8 M4.0 13.1 L3.95 13.1 3.8 12.95 3.75 12.95 3.5 12.9 Q2.9 13.05 3.05 13.7 3.15 14.1 3.55 14.0 L4.15 13.6 4.2 13.55 4.2 13.45 Q4.2 13.2 4.0 13.1 M3.55 14.45 L3.45 14.5 3.5 14.65 3.7 14.6 3.65 14.45 3.6 14.45 3.55 14.45 M2.2 12.95 L2.35 12.85 2.35 12.75 2.2 12.45 2.1 12.4 Q1.8 12.4 1.8 12.65 L2.0 13.0 2.1 13.0 2.2 12.95 M2.4 15.0 L2.35 15.0 2.3 15.0 2.2 15.05 2.3 15.25 2.45 15.15 2.4 15.0 M1.65 14.1 L1.6 14.15 1.5 14.15 1.6 14.35 1.75 14.25 1.75 14.15 1.65 14.1" fill="#fede98" fill-rule="evenodd" stroke="none"/>
    <path d="M-7.2 -15.6 L-7.15 -15.6 -7.15 -15.5 -7.2 -15.6 M1.4 15.55 L1.25 15.55 1.35 15.4 1.4 15.55 M-8.1 12.95 L-8.15 12.9 -8.1 12.85 -8.1 12.95 M-12.05 9.2 L-12.1 9.2 -12.0 9.2 -12.05 9.2 M-12.3 8.9 L-12.35 8.85 -12.3 8.85 -12.3 8.9 M-16.4 1.6 L-16.45 1.45 -16.35 1.4 -16.3 1.6 -16.4 1.6 M-0.45 -10.8 L-0.5 -10.8 -0.45 -10.9 -0.45 -10.8 M-0.75 -11.6 L-0.65 -11.6 -0.75 -11.6 M-6.25 -15.0 L-6.25 -15.05 -6.25 -15.0 M-10.6 -10.9 L-10.55 -10.95 -10.5 -10.9 -10.6 -10.9 M-15.2 -2.6 L-15.2 -2.55 -15.25 -2.6 -15.2 -2.6 M-14.8 -7.35 L-14.75 -7.35 -14.8 -7.35 M-16.5 -7.7 L-16.4 -7.75 -16.4 -7.7 -16.5 -7.7 M-16.35 -4.9 L-16.25 -4.9 -16.2 -4.8 -16.35 -4.9 M-2.85 8.55 L-2.85 8.6 -2.9 8.55 -2.85 8.55 M5.3 15.05 L5.4 15.4 5.45 15.5 5.4 15.4 5.3 15.4 5.25 15.1 5.3 15.05 M4.2 15.45 L4.2 15.4 4.2 15.45" fill="#cc9900" fill-rule="evenodd" stroke="none"/>
    <path d="M-7.15 -15.5 L-7.15 -15.6 -7.2 -15.6 -10.85 -14.3 -10.85 -14.35 Q-10.8 -14.75 -11.1 -14.9 L-11.15 -14.9 -11.25 -14.9 -11.35 -14.9 -11.55 -14.8 -11.75 -14.45 -11.4 -14.05 -13.45 -13.35 -13.85 -12.75 -14.45 -11.9 -14.6 -12.1 -14.75 -12.1 -15.0 -11.85 -15.05 -11.85 -15.4 -12.2 -15.95 -10.6 -16.95 -8.6 -16.95 -8.35 -16.9 -7.95 -17.6 -7.55 -16.9 -7.8 -16.6 0.6 -16.7 0.6 -16.45 1.45 -16.4 1.6 -15.3 5.1 -14.6 6.0 -14.55 6.3 -14.55 6.05 -13.75 7.1 -13.95 7.3 -13.75 7.65 -13.65 7.65 -13.55 7.6 -13.4 7.5 -12.35 8.85 -12.3 8.9 -12.1 9.2 -12.05 9.2 -11.2 10.3 -11.3 10.25 Q-11.95 10.4 -11.8 11.0 -11.7 11.45 -11.25 11.35 -10.75 11.2 -10.7 10.95 L-9.65 12.25 -8.65 12.7 -8.45 13.0 -8.35 13.0 -8.2 13.0 -8.15 12.9 -8.1 12.95 -2.0 15.65 0.95 15.55 1.0 15.6 1.15 15.6 1.2 15.55 1.25 15.55 1.4 15.55 4.2 15.45 4.35 15.65 -1.9 16.6 -7.15 14.6 -7.15 14.55 -7.0 14.45 -7.0 14.35 Q-7.0 14.15 -7.15 14.0 L-7.3 14.0 -7.55 14.25 -7.55 14.45 -9.6 13.65 -12.6 10.95 -17.35 4.95 -19.15 -1.6 -19.05 -1.35 -19.15 -1.6 -18.5 -8.25 -17.6 -10.6 -12.75 -15.75 -6.0 -16.55 -4.7 -15.6 -4.8 -15.45 -4.6 -15.15 -4.45 -15.1 -4.35 -15.15 -4.2 -15.3 -1.05 -13.05 -1.35 -12.5 -1.4 -12.55 -1.6 -12.85 -1.7 -12.85 -1.9 -12.8 -6.25 -15.05 -6.45 -15.3 -6.6 -15.3 -6.7 -15.3 -7.15 -15.5 M-1.85 -5.7 L-1.35 -6.85 -1.3 -6.9 -1.3 -6.95 -1.15 -7.05 -1.15 -7.1 -1.15 -7.25 -0.25 -9.3 -0.05 -9.2 -3.55 -0.05 -2.9 3.9 -2.45 4.7 -2.5 4.7 Q-3.15 4.85 -3.0 5.45 -2.9 5.9 -2.45 5.8 L-1.95 5.55 -1.2 6.9 -1.25 6.9 -1.35 6.85 -1.65 7.1 -1.45 7.45 -1.3 7.45 -1.2 7.4 -1.05 7.3 -1.05 7.2 0.0 9.0 0.85 10.1 Q0.75 10.45 1.05 10.7 L1.2 10.7 1.3 10.65 2.0 11.6 2.45 11.9 4.15 12.45 4.15 12.5 1.4 12.05 1.3 12.05 1.15 11.95 Q1.95 11.65 1.2 10.95 L0.95 10.9 Q0.45 11.0 0.45 11.4 L-2.75 9.0 -2.75 8.95 -2.7 8.9 -2.85 8.6 -2.85 8.55 -4.75 0.75 -2.05 -5.3 Q-1.8 -5.45 -1.85 -5.7 M-9.15 -15.2 L-9.25 -15.2 -9.15 -15.0 -8.95 -15.05 -9.0 -15.2 -9.05 -15.2 -9.15 -15.2 M-12.85 -14.55 L-12.65 -14.2 -12.55 -14.2 -12.45 -14.2 -12.3 -14.35 -12.25 -14.45 -12.45 -14.75 -12.55 -14.75 Q-12.85 -14.8 -12.85 -14.55 M-17.05 -9.3 L-17.1 -9.3 -17.2 -9.35 -17.5 -9.1 -17.5 -9.0 -17.3 -8.75 -17.2 -8.75 -17.1 -8.8 -16.95 -8.9 -16.9 -9.0 -17.05 -9.3 M-17.65 -5.25 L-17.55 -5.05 -17.35 -5.15 -17.4 -5.25 -17.45 -5.3 -17.55 -5.3 -17.65 -5.25 M-18.15 -0.85 Q-18.2 -0.65 -17.95 -0.55 L-17.85 -0.5 Q-17.55 -0.5 -17.35 -0.7 L-17.35 -0.8 -17.5 -1.1 -17.65 -1.1 Q-18.05 -1.2 -18.15 -0.85 M-18.35 -6.0 L-18.6 -5.8 -18.45 -5.45 -18.3 -5.45 -18.2 -5.5 -18.05 -5.6 -18.05 -5.7 -18.2 -6.0 -18.35 -6.0 M-17.25 -1.95 L-17.35 -1.95 -17.3 -1.75 -17.1 -1.8 -17.15 -1.95 -17.2 -1.95 -17.25 -1.95 M-2.35 6.65 L-2.35 6.6 -2.55 6.25 -2.65 6.25 Q-2.95 6.2 -2.95 6.45 L-2.75 6.8 -2.65 6.85 -2.5 6.8 -2.35 6.65 M-1.35 7.95 L-1.45 7.9 -1.55 7.95 -1.45 8.15 -1.25 8.05 -1.3 7.95 -1.35 7.95 M-0.8 9.1 L-0.9 9.1 -1.2 9.35 -1.0 9.65 -0.9 9.7 -0.8 9.65 -0.6 9.5 -0.6 9.45 -0.8 9.1 M-1.5 8.2 L-1.75 7.9 -2.0 7.85 Q-2.65 8.0 -2.5 8.6 -2.4 9.05 -1.95 8.95 -1.15 8.7 -1.5 8.2 M-16.9 2.1 L-17.15 2.1 -17.35 2.3 -16.8 2.75 -16.6 2.65 -16.55 2.55 -16.5 2.5 Q-16.55 2.15 -16.9 2.1 M-16.0 4.15 L-15.75 4.15 -15.75 4.05 -15.9 3.7 -15.95 3.7 -16.15 3.7 -16.15 3.8 -16.0 4.15 M-15.65 5.65 L-15.95 5.9 -15.75 6.25 -15.65 6.25 -15.55 6.25 -15.4 6.1 -15.35 6.0 -15.55 5.65 -15.65 5.65 M-16.65 3.15 L-16.7 3.15 -16.95 3.1 Q-17.6 3.25 -17.45 3.85 -17.35 4.3 -16.9 4.15 -15.85 3.85 -16.65 3.15 M-12.6 9.0 L-12.55 8.95 -12.95 8.55 -13.05 8.55 -13.15 8.65 -12.6 9.0 M-14.55 7.0 L-14.5 7.2 -14.3 7.1 -14.35 7.0 -14.4 6.95 -14.45 6.95 -14.55 7.0 M-12.6 9.95 L-12.4 9.9 -12.45 9.75 -12.5 9.75 -12.6 9.75 -12.65 9.75 -12.6 9.95 M-4.55 14.75 L-4.75 14.95 Q-4.7 15.35 -4.2 15.35 L-4.0 15.25 -3.95 15.2 -3.95 15.1 Q-4.0 14.75 -4.35 14.7 L-4.55 14.75" fill="#d7b646" fill-rule="evenodd" stroke="none"/>
    <path d="M-16.9 -7.95 L-16.95 -8.35 -16.5 -8.15 -16.9 -7.95 M-15.95 -10.6 L-15.4 -12.2 -15.05 -11.85 -15.0 -11.8 -15.0 -11.7 -15.95 -10.6 M-7.9 -14.1 L-7.95 -14.05 -8.6 -14.15 -7.9 -14.1 M-7.1 -14.05 L-7.1 -14.0 -7.1 -14.05 M-1.35 -6.85 L-1.4 -6.85 -1.3 -6.9 -1.35 -6.85 M-12.6 -10.45 L-12.6 -10.35 -12.55 -10.35 -12.45 -10.2 -13.25 -10.65 -13.1 -10.75 -13.05 -10.85 -12.6 -10.45 M-14.8 -7.35 L-14.75 -7.35 -14.75 -7.3 -14.75 -7.25 -14.8 -7.35 M-10.7 -8.2 L-10.65 -8.15 -10.7 -8.15 -10.7 -8.2 M-11.6 -7.9 L-11.65 -7.95 -11.6 -7.95 -11.6 -7.9 M-7.55 -7.75 L-8.5 -8.15 -7.55 -7.8 -7.55 -7.75" fill="#ffc820" fill-rule="evenodd" stroke="none"/>
    <path d="M-14.55 6.05 L-14.55 6.3 -14.6 6.0 -16.0 -2.15 -16.2 -4.45 -16.3 -4.35 -16.4 -4.3 -16.55 -4.35 -16.75 -4.65 Q-16.7 -4.95 -16.45 -4.9 L-16.35 -4.9 -16.2 -4.8 -16.25 -4.9 -16.5 -7.7 -16.4 -7.7 -16.4 -7.75 -16.5 -7.9 -16.9 -7.8 -17.6 -7.55 -16.9 -7.95 -16.5 -8.15 -16.95 -8.35 -16.95 -8.6 -15.95 -10.6 -15.0 -11.7 -14.85 -11.55 -14.75 -11.55 -14.7 -11.55 -14.6 -11.55 -14.45 -11.7 -14.45 -11.8 -14.45 -11.9 -13.85 -12.75 -13.45 -12.9 -13.25 -12.65 -13.15 -12.6 -13.05 -12.65 -12.9 -12.75 -12.85 -12.85 -12.95 -13.1 -9.3 -14.55 -9.1 -14.65 -9.05 -14.6 -8.9 -14.6 -7.75 -14.2 -7.6 -14.3 -7.5 -14.3 -7.35 -14.25 -7.35 -14.3 -7.1 -14.05 -7.1 -14.0 -7.1 -13.95 -7.1 -13.9 -7.1 -13.75 -7.1 -13.65 -7.15 -13.6 -7.9 -13.65 -9.2 -13.8 -9.25 -13.75 Q-9.0 -13.45 -6.25 -12.65 L-6.35 -12.4 -6.35 -12.35 -9.25 -12.75 -9.3 -12.65 Q-9.75 -12.25 -5.8 -9.55 L-5.6 -9.4 -5.85 -9.55 -10.1 -12.0 -10.05 -11.9 -10.05 -11.8 -10.1 -11.7 -10.1 -11.45 -7.65 -7.9 -5.3 -6.8 -7.55 -7.75 -3.15 -5.8 -5.6 -6.65 -5.7 -6.8 -5.85 -6.8 -5.9 -6.8 -8.0 -7.5 -8.05 -7.6 -8.1 -7.6 -8.15 -7.65 -8.25 -7.6 -8.25 -7.55 -10.1 -7.95 -10.1 -7.85 -10.65 -8.15 -10.7 -8.2 -10.75 -8.25 -10.8 -8.3 -10.9 -8.3 -10.95 -8.25 -10.9 -8.15 -11.6 -7.95 -11.65 -7.95 -11.6 -7.9 -11.55 -7.95 Q-10.75 -7.2 -11.8 -6.9 L-11.95 -6.85 -7.45 1.75 -13.35 -7.25 -13.65 -7.25 -12.15 -2.85 -12.25 -2.8 -12.2 -2.65 -12.1 -2.65 -11.8 -1.75 -11.65 -1.75 -11.6 -1.75 Q-11.3 -1.55 -11.35 -1.2 L-11.35 -1.1 -11.5 -0.95 -11.0 0.45 -10.55 0.0 -10.45 1.95 -8.6 2.8 -10.65 3.45 -10.8 5.8 -12.25 4.0 -14.6 4.2 -13.0 2.55 -14.1 0.75 -11.95 1.4 -11.2 0.65 -11.85 -0.9 -12.25 -1.25 -12.15 -1.55 -12.85 -3.1 -12.9 -3.05 -13.1 -2.95 Q-13.55 -2.95 -13.6 -3.35 L-13.45 -3.6 -13.2 -3.6 -13.05 -3.55 -13.95 -5.55 -14.55 -5.1 -14.95 -5.2 -15.2 -2.6 -15.25 -2.6 -15.2 -2.55 Q-14.95 -2.4 -15.0 -2.05 L-15.05 -1.95 Q-15.2 -1.85 -15.3 -1.8 L-14.55 6.05 M-11.4 -14.05 L-11.75 -14.45 -11.55 -14.8 -11.35 -14.9 -11.25 -14.9 -11.15 -14.9 -11.1 -14.9 Q-10.8 -14.75 -10.85 -14.35 L-10.9 -14.25 Q-11.2 -13.95 -11.4 -14.05 M-7.9 -14.1 L-8.6 -14.15 -7.95 -14.05 -7.9 -14.1 M-5.25 -13.45 L-4.05 -13.05 -5.2 -13.4 -5.25 -13.45 M-12.85 -14.55 Q-12.85 -14.8 -12.55 -14.75 L-12.45 -14.75 -12.25 -14.45 -12.3 -14.35 -12.45 -14.2 -12.55 -14.2 -12.65 -14.2 -12.85 -14.55 M-10.55 -10.95 L-11.45 -11.85 -11.5 -11.1 -11.7 -11.05 -11.7 -11.0 -11.65 -10.65 -11.45 -10.7 -11.4 -10.05 -11.25 -9.55 -10.2 -9.0 -10.15 -9.0 -9.9 -8.95 -7.65 -7.9 -9.9 -10.55 -9.9 -10.4 -9.9 -10.3 Q-10.45 -9.85 -10.8 -10.5 L-10.6 -10.9 -10.5 -10.9 -10.55 -10.95 M-12.6 -10.45 L-13.05 -10.85 -13.1 -10.75 -13.25 -10.65 -12.45 -10.2 -12.55 -10.35 -12.4 -10.45 -12.45 -10.55 -12.5 -10.6 -12.55 -10.6 -12.65 -10.55 -12.65 -10.5 -12.6 -10.45 M-14.75 -7.35 L-14.8 -7.35 -14.75 -7.25 -14.9 -6.05 -14.6 -6.2 -14.3 -6.15 -14.15 -5.95 -14.75 -7.3 -14.75 -7.35 M-13.1 -4.75 L-13.2 -4.7 -13.15 -4.55 -12.95 -4.6 -13.0 -4.75 -13.05 -4.75 -13.1 -4.75 M-7.4 -11.55 Q-7.95 -11.05 -8.3 -11.7 L-8.05 -12.1 -7.85 -12.2 -7.8 -12.2 -7.65 -12.2 Q-7.3 -12.0 -7.4 -11.65 L-7.4 -11.55 M-8.1 -10.0 L-7.95 -10.0 Q-7.65 -9.8 -7.7 -9.45 L-7.7 -9.35 Q-8.25 -8.85 -8.6 -9.55 L-8.4 -9.9 -8.2 -10.0 -8.1 -10.0 M-7.55 -7.75 L-7.55 -7.8 -8.5 -8.15 -7.55 -7.75 M-9.85 6.95 L-9.2 5.65 -8.7 7.0 -8.6 7.0 -7.2 7.1 -8.45 8.05 -8.05 9.7 -9.4 8.8 -11.0 9.5 -10.3 8.0 -11.45 7.0 -10.9 7.0 -10.7 6.7 -10.5 6.6 -10.45 6.6 -10.3 6.65 -10.05 6.95 -9.85 6.95 M-5.5 10.25 L-5.5 10.3 -5.55 10.65 -4.4 11.3 -5.65 11.55 -6.1 12.8 -6.55 11.6 -7.75 11.75 -6.9 10.8 -7.3 9.75 -6.25 10.2 -5.4 9.4 -5.5 10.25 M-2.8 11.75 L-2.5 12.5 -1.6 12.55 -2.0 12.9 -2.05 12.95 -2.35 13.15 -2.05 14.15 -2.9 13.6 -3.8 14.05 -3.4 13.15 -4.1 12.55 -3.2 12.5 -2.85 11.75 -2.8 11.75 M-13.4 2.8 L-13.4 2.9 Q-13.95 3.4 -14.25 2.75 L-14.05 2.35 -13.85 2.25 -13.8 2.25 -13.65 2.25 Q-13.3 2.45 -13.4 2.8" fill="#ffffff" fill-rule="evenodd" stroke="none"/>
    <path d="M-6.7 -15.3 L-6.6 -15.3 -6.45 -15.3 -6.25 -15.05 -6.25 -15.0 -6.3 -14.9 -6.45 -14.75 -6.55 -14.75 -6.65 -14.75 -6.85 -15.1 -6.7 -15.3 M-15.0 -11.85 L-14.75 -12.1 -14.6 -12.1 -14.45 -11.9 -14.45 -11.8 -14.45 -11.7 -14.6 -11.55 -14.7 -11.55 -14.75 -11.55 -14.85 -11.55 -15.0 -11.7 -15.0 -11.8 -15.0 -11.85 M-7.1 -14.0 L-7.05 -14.0 -7.0 -14.05 -6.95 -14.0 -6.9 -14.0 -6.85 -13.95 -6.85 -13.9 -6.9 -13.85 -7.0 -13.8 -7.05 -13.9 -7.1 -13.95 -7.1 -14.0 M-6.25 -12.65 L-6.15 -12.75 -5.95 -12.85 -5.85 -12.85 -5.7 -12.85 -5.45 -12.4 -5.45 -12.3 -5.45 -12.2 -5.5 -12.2 -6.35 -12.35 -6.35 -12.4 -6.25 -12.65 M-5.8 -9.55 L-5.75 -9.55 -5.7 -9.55 -5.65 -9.55 -5.6 -9.4 -5.75 -9.3 -5.85 -9.5 -5.85 -9.55 -5.6 -9.4 -5.8 -9.55 M-9.15 -15.2 L-9.05 -15.2 -9.0 -15.2 -8.95 -15.05 -9.15 -15.0 -9.25 -15.2 -9.15 -15.2 M-5.2 -13.4 L-5.4 -13.3 -5.5 -13.45 -5.5 -13.5 -5.4 -13.55 -5.3 -13.55 -5.25 -13.5 -5.25 -13.45 -5.2 -13.4 M-13.45 -12.9 L-13.45 -12.95 -13.15 -13.2 -13.05 -13.2 -12.95 -13.1 -12.85 -12.85 -12.9 -12.75 -13.05 -12.65 -13.15 -12.6 -13.25 -12.65 -13.45 -12.9 M-11.5 -11.1 L-11.45 -11.1 -11.4 -10.8 -11.4 -10.7 -11.45 -10.7 -11.65 -10.65 -11.7 -11.0 -11.7 -11.05 -11.5 -11.1 M-12.55 -10.35 L-12.6 -10.35 -12.6 -10.45 -12.65 -10.5 -12.65 -10.55 -12.55 -10.6 -12.5 -10.6 -12.45 -10.55 -12.4 -10.45 -12.55 -10.35 M-12.15 -2.85 L-12.1 -2.85 -12.05 -2.85 -12.0 -2.7 -12.1 -2.65 -12.2 -2.65 -12.25 -2.8 -12.15 -2.85 M-10.9 -8.15 L-10.95 -8.25 -10.9 -8.3 -10.8 -8.3 -10.75 -8.25 -10.7 -8.2 -10.7 -8.15 -10.9 -8.05 -10.9 -8.15 M-8.25 -7.55 L-8.25 -7.6 -8.15 -7.65 -8.1 -7.6 -8.05 -7.6 -8.0 -7.5 -8.15 -7.4 -8.25 -7.55 M-5.9 -6.8 L-5.85 -6.8 -5.7 -6.8 -5.6 -6.65 -5.5 -6.45 -5.55 -6.35 -5.7 -6.25 -5.8 -6.2 -5.9 -6.25 -6.1 -6.55 -5.9 -6.8 M-11.6 -7.95 L-11.55 -7.95 -11.6 -7.9 -11.6 -7.95 M-10.35 -6.4 L-10.2 -6.05 -10.2 -5.95 -10.35 -5.85 -10.45 -5.8 -10.55 -5.8 Q-10.8 -5.9 -10.75 -6.15 L-10.5 -6.4 -10.35 -6.4 M-17.65 -5.25 L-17.55 -5.3 -17.45 -5.3 -17.4 -5.25 -17.35 -5.15 -17.55 -5.05 -17.65 -5.25 M-17.25 -1.95 L-17.2 -1.95 -17.15 -1.95 -17.1 -1.8 -17.3 -1.75 -17.35 -1.95 -17.25 -1.95 M-13.1 -4.75 L-13.05 -4.75 -13.0 -4.75 -12.95 -4.6 -13.15 -4.55 -13.2 -4.7 -13.1 -4.75 M-14.1 -1.5 L-14.0 -1.5 -13.95 -1.5 -13.9 -1.4 -14.1 -1.3 -14.2 -1.5 -14.1 -1.5 M-2.3 -9.45 L-2.35 -9.35 -2.5 -9.25 -2.6 -9.2 -2.7 -9.2 -2.9 -9.55 -2.65 -9.8 -2.5 -9.8 -2.3 -9.45 M-5.55 -11.15 L-5.5 -11.15 -5.3 -11.15 Q-5.0 -11.0 -5.05 -10.6 L-5.1 -10.5 Q-5.65 -10.0 -5.95 -10.7 L-5.75 -11.05 -5.55 -11.15 M-9.1 -11.05 L-8.9 -10.7 -8.95 -10.65 -9.1 -10.5 -9.2 -10.5 -9.3 -10.5 -9.5 -10.8 Q-9.5 -11.05 -9.2 -11.05 L-9.1 -11.05 M-9.1 10.65 L-8.95 10.65 Q-8.8 10.75 -8.8 10.95 L-8.8 11.05 -8.95 11.15 -9.05 11.2 -9.2 11.2 -9.35 10.85 -9.1 10.65 M-1.35 7.95 L-1.3 7.95 -1.25 8.05 -1.45 8.15 -1.55 7.95 -1.45 7.9 -1.35 7.95 M-13.95 4.85 L-13.85 4.85 -13.8 4.9 -13.75 5.0 -13.95 5.1 -14.0 4.9 -13.95 4.85 M-12.8 5.85 L-13.0 5.5 Q-12.95 5.25 -12.7 5.3 L-12.6 5.3 -12.45 5.6 -12.45 5.7 -12.6 5.85 -12.7 5.85 -12.8 5.85 M-12.25 4.9 L-12.15 4.85 -12.05 4.9 -12.0 4.9 -11.95 5.0 -12.15 5.1 -12.25 4.9 M-15.75 1.4 L-15.85 1.3 -16.0 1.3 -16.25 1.55 -16.25 1.65 -16.3 1.6 -16.35 1.4 -16.05 1.15 -15.9 1.15 -15.75 1.4 M-16.0 4.15 L-16.15 3.8 -16.15 3.7 -15.95 3.7 -15.9 3.7 -15.75 4.05 -15.75 4.15 -16.0 4.15 M-11.25 6.45 L-11.4 6.55 -11.5 6.35 -11.4 6.3 -11.3 6.3 -11.25 6.35 -11.25 6.45 M-11.95 6.35 L-11.85 6.4 -11.8 6.4 -11.75 6.5 -11.95 6.6 -12.05 6.4 -11.95 6.35 M-11.4 8.35 L-11.35 8.4 -11.3 8.4 -11.2 8.5 -11.4 8.6 -11.5 8.4 -11.4 8.35 M-12.6 9.0 L-13.15 8.65 -13.05 8.55 -12.95 8.55 -12.55 8.95 -12.6 9.0 M-14.55 7.0 L-14.45 6.95 -14.4 6.95 -14.35 7.0 -14.3 7.1 -14.5 7.2 -14.55 7.0 M-12.6 9.95 L-12.65 9.75 -12.6 9.75 -12.5 9.75 -12.45 9.75 -12.4 9.9 -12.6 9.95 M3.55 14.45 L3.6 14.45 3.65 14.45 3.7 14.6 3.5 14.65 3.45 14.5 3.55 14.45 M1.65 14.1 L1.75 14.15 1.75 14.25 1.6 14.35 1.5 14.15 1.6 14.15 1.65 14.1 M2.4 15.0 L2.45 15.15 2.3 15.25 2.2 15.05 2.3 15.0 2.35 15.0 2.4 15.0" fill="#ffebae" fill-rule="evenodd" stroke="none"/>
    <path d="M-1.9 -12.8 L-1.7 -12.85 -1.6 -12.85 -1.4 -12.55 -1.4 -12.5 -1.4 -12.4 -1.6 -12.3 -1.7 -12.25 -1.8 -12.25 -2.0 -12.6 -1.9 -12.8 M-4.2 -15.3 L-4.35 -15.15 -4.45 -15.1 -4.6 -15.15 -4.8 -15.45 -4.7 -15.6 -4.5 -15.7 -4.35 -15.7 -4.2 -15.35 -4.2 -15.3 M-7.55 14.45 L-7.55 14.25 -7.3 14.0 -7.15 14.0 Q-7.0 14.15 -7.0 14.35 L-7.0 14.45 -7.15 14.55 -7.2 14.6 -7.25 14.6 -7.4 14.55 -7.55 14.45 M4.35 15.65 L4.2 15.45 4.2 15.4 4.15 15.1 4.05 14.8 4.35 14.55 4.45 14.55 4.55 14.65 4.65 14.65 4.95 14.7 5.25 15.1 5.3 15.4 5.15 15.55 4.7 15.75 Q4.45 15.8 4.35 15.65 M1.25 15.55 L1.2 15.55 1.15 15.6 1.0 15.6 0.95 15.55 0.8 15.25 1.1 15.0 1.2 15.0 Q1.4 15.1 1.4 15.35 L1.35 15.4 1.25 15.55 M-8.15 12.9 L-8.2 13.0 -8.35 13.0 -8.45 13.0 -8.65 12.7 -8.35 12.45 -8.25 12.45 Q-8.1 12.55 -8.05 12.8 L-8.1 12.85 -8.15 12.9 M-10.7 10.95 Q-10.75 11.2 -11.25 11.35 -11.7 11.45 -11.8 11.0 -11.95 10.4 -11.3 10.25 L-11.2 10.3 -11.05 10.3 Q-10.65 10.65 -10.7 10.95 M-12.1 9.2 L-12.3 8.9 -12.3 8.85 -12.0 8.6 -11.9 8.6 -11.7 8.95 -11.75 9.0 -11.9 9.15 -12.0 9.2 -12.1 9.2 M-13.4 7.5 L-13.55 7.6 -13.65 7.65 -13.75 7.65 -13.95 7.3 -13.75 7.1 -13.65 7.1 -13.55 7.1 -13.35 7.4 -13.4 7.5 M-3.15 -5.8 L-2.95 -5.85 -2.5 -6.25 -2.2 -6.15 -1.85 -5.7 Q-1.8 -5.45 -2.05 -5.3 -2.2 -5.2 -2.4 -5.15 L-2.9 -5.25 -2.95 -5.25 -3.05 -5.25 -3.25 -5.6 -3.15 -5.8 M-1.4 -6.85 L-1.55 -6.9 -1.7 -7.2 -1.45 -7.45 -1.35 -7.45 -1.15 -7.25 -1.15 -7.1 -1.15 -7.05 -1.3 -6.95 -1.3 -6.9 -1.4 -6.85 M-0.5 -10.8 L-0.55 -10.7 -0.75 -10.65 -0.9 -10.65 Q-1.3 -11.0 -1.0 -11.5 L-0.75 -11.6 -0.65 -11.6 Q-0.4 -11.3 -0.45 -10.9 L-0.5 -10.8 M-17.05 -9.3 L-16.9 -9.0 -16.95 -8.9 -17.1 -8.8 -17.2 -8.75 -17.3 -8.75 -17.5 -9.0 -17.5 -9.1 -17.2 -9.35 -17.1 -9.3 -17.05 -9.3 M-18.35 -6.0 L-18.2 -6.0 -18.05 -5.7 -18.05 -5.6 -18.2 -5.5 -18.3 -5.45 -18.45 -5.45 -18.6 -5.8 -18.35 -6.0 M-18.15 -0.85 Q-18.05 -1.2 -17.65 -1.1 L-17.5 -1.1 -17.35 -0.8 -17.35 -0.7 Q-17.55 -0.5 -17.85 -0.5 L-17.95 -0.55 Q-18.2 -0.65 -18.15 -0.85 M-0.7 -9.65 L-0.7 -9.6 -0.9 -9.45 -0.95 -9.4 -1.1 -9.4 -1.3 -9.75 -1.0 -10.0 -0.9 -10.0 -0.7 -9.65 M-2.85 8.6 L-2.7 8.9 -2.75 8.95 -2.75 9.0 -2.9 9.1 -3.0 9.15 -3.1 9.1 -3.3 8.8 -3.05 8.55 -2.9 8.55 -2.85 8.6 M0.45 11.4 Q0.45 11.0 0.95 10.9 L1.2 10.95 Q1.95 11.65 1.15 11.95 L1.0 12.0 Q0.55 12.1 0.45 11.65 L0.45 11.4 M1.3 10.65 L1.2 10.7 1.05 10.7 Q0.75 10.45 0.85 10.1 L0.85 10.0 0.95 9.9 1.05 9.85 1.25 9.9 1.25 9.85 1.45 10.4 1.45 10.5 1.3 10.65 M-1.05 7.2 L-1.05 7.3 -1.2 7.4 -1.3 7.45 -1.45 7.45 -1.65 7.1 -1.35 6.85 -1.25 6.9 -1.2 6.9 -1.15 7.05 -1.05 7.2 M-1.95 5.55 L-2.45 5.8 Q-2.9 5.9 -3.0 5.45 -3.15 4.85 -2.5 4.7 L-2.45 4.75 -2.25 4.75 Q-1.7 5.25 -1.95 5.55 M-4.9 2.75 L-5.05 2.85 -5.1 2.9 -5.25 2.9 -5.45 2.55 Q-5.4 2.3 -5.15 2.35 L-5.05 2.35 -4.85 2.65 -4.9 2.75 M-4.1 5.4 L-4.1 5.5 -4.25 5.6 -4.35 5.65 -4.5 5.65 -4.7 5.3 Q-4.65 5.05 -4.4 5.05 L-4.25 5.05 Q-4.1 5.15 -4.1 5.4 M-2.35 6.65 L-2.5 6.8 -2.65 6.85 -2.75 6.8 -2.95 6.45 Q-2.95 6.2 -2.65 6.25 L-2.55 6.25 -2.35 6.6 -2.35 6.65 M-1.5 8.2 Q-1.15 8.7 -1.95 8.95 -2.4 9.05 -2.5 8.6 -2.65 8.0 -2.0 7.85 L-1.75 7.9 -1.5 8.2 M-0.8 9.1 L-0.6 9.45 -0.6 9.5 -0.8 9.65 -0.9 9.7 -1.0 9.65 -1.2 9.35 -0.9 9.1 -0.8 9.1 M-16.25 1.65 L-16.25 1.55 -16.0 1.3 -15.85 1.3 -15.75 1.4 -15.7 1.65 -15.7 1.75 -15.85 1.85 -15.95 1.9 -16.05 1.9 -16.25 1.65 M-16.9 2.1 Q-16.55 2.15 -16.5 2.5 L-16.55 2.55 -16.6 2.65 -16.8 2.75 -17.35 2.3 -17.15 2.1 -16.9 2.1 M-16.65 3.15 Q-15.85 3.85 -16.9 4.15 -17.35 4.3 -17.45 3.85 -17.6 3.25 -16.95 3.1 L-16.7 3.15 -16.65 3.15 M-15.65 5.65 L-15.55 5.65 -15.35 6.0 -15.4 6.1 -15.55 6.25 -15.65 6.25 -15.75 6.25 -15.95 5.9 -15.65 5.65 M-4.55 14.75 L-4.35 14.7 Q-4.0 14.75 -3.95 15.1 L-3.95 15.2 -4.0 15.25 -4.2 15.35 Q-4.7 15.35 -4.75 14.95 L-4.55 14.75 M4.0 13.1 Q4.2 13.2 4.2 13.45 L4.2 13.55 4.15 13.6 3.55 14.0 Q3.15 14.1 3.05 13.7 2.9 13.05 3.5 12.9 L3.75 12.95 3.8 12.95 3.95 13.1 4.0 13.1 M4.5 13.8 L4.65 14.15 4.65 14.25 4.5 14.35 4.4 14.4 4.3 14.35 Q4.05 14.25 4.1 14.05 4.1 13.8 4.35 13.8 L4.5 13.8 M2.8 13.8 L3.0 14.15 3.0 14.25 2.8 14.35 2.75 14.4 2.6 14.4 2.4 14.05 2.7 13.8 2.8 13.8 M2.2 12.95 L2.1 13.0 2.0 13.0 1.8 12.65 Q1.8 12.4 2.1 12.4 L2.2 12.45 2.35 12.75 2.35 12.85 2.2 12.95" fill="#5e4600" fill-rule="evenodd" stroke="none"/>
    <path d="M-7.15 14.55 L-7.15 14.6 -7.2 14.6 -7.15 14.55 M-10.85 -14.35 L-10.85 -14.3 -10.9 -14.25 -10.85 -14.35 M-2.75 8.95 L-2.75 9.0 -2.75 8.95 M4.15 12.5 L4.15 12.45 4.15 12.5 M-2.5 4.7 L-2.45 4.7 -2.45 4.75 -2.5 4.7 M5.45 15.5 L5.15 15.55 5.3 15.4 5.4 15.4 5.45 15.5" fill="#916c00" fill-rule="evenodd" stroke="none"/>
    <path d="M-15.05 -11.85 L-15.0 -11.85 -15.0 -11.8 -15.05 -11.85" fill="#b08500" fill-rule="evenodd" stroke="none"/>
    <path d="M-4.1 12.55 L-4.15 12.55 -4.1 12.55 M-2.85 11.75 L-2.85 11.7 -2.8 11.75 -2.85 11.75" fill="#ffffcc" fill-rule="evenodd" stroke="none"/>
    <path d="M6.4 9.05 L8.55 5.65 12.2 4.5 13.45 3.55 19.15 6.4 17.85 8.8 17.9 8.9 17.35 10.0 8.55 13.85 14.85 10.5 15.15 10.35 15.5 10.15 15.15 10.35 14.95 10.05 16.3 8.3 12.4 9.9 14.4 6.6 12.85 7.45 13.1 5.1 6.3 11.35 5.75 12.05 5.55 11.85 8.2 8.3 8.0 8.2 9.05 6.25 5.8 9.95 6.4 9.05 M15.5 10.15 L17.9 8.9 15.5 10.15 M12.2 4.5 L6.3 11.35 12.2 4.5" fill="#385bad" fill-rule="evenodd" stroke="none"/>
    <path d="M8.55 13.85 L5.45 15.5 5.4 15.4 5.3 15.05 4.55 13.45 5.75 12.05 4.55 13.45 4.15 12.5 4.15 12.45 5.2 10.9 5.8 9.95 9.05 6.25 8.0 8.2 8.2 8.3 5.55 11.85 5.75 12.05 6.3 11.35 13.1 5.1 12.85 7.45 14.4 6.6 12.4 9.9 16.3 8.3 14.95 10.05 15.15 10.35 14.85 10.5 8.55 13.85" fill="#80c0d9" fill-rule="evenodd" stroke="none"/>
    <path d="M17.85 8.8 L17.9 8.9 17.85 8.8 M14.85 10.5 L15.15 10.35 14.85 10.5" fill="#ff9999" fill-rule="evenodd" stroke="none"/>
    <path d="M15.5 10.15 L15.15 10.35 15.5 10.15" fill="#8c312f" fill-rule="evenodd" stroke="none"/>
    <path d="M0.4 12.1 L0.45 12.1 0.4 12.1" fill="#ff99cc" fill-rule="evenodd" stroke="none"/>
    <path d="M-1.05 -13.05 L-4.2 -15.3 M-4.7 -15.6 L-6.0 -16.55 -12.75 -15.75 -17.6 -10.6 -18.5 -8.25 -19.15 -1.6 -19.05 -1.35 -19.15 -1.6 -17.35 4.95 -12.6 10.95 -9.6 13.65 -7.55 14.45 M-7.15 14.6 L-1.9 16.6 4.35 15.65 M-0.05 -9.2 L-0.05 -9.25 -0.4 -10.7 M-0.65 -11.6 L-1.05 -13.05 M4.15 12.5 L4.15 12.45 2.45 11.9 2.0 11.6 1.3 10.65 M0.85 10.1 L0.0 9.0 -1.05 7.2 -1.15 7.05 -1.2 6.9 -1.95 5.55 M-2.45 4.7 L-2.9 3.9 -3.55 -0.05 -0.05 -9.2 M6.4 9.05 L8.55 5.65 12.2 4.5 13.45 3.55 19.15 6.4 17.85 8.8 17.9 8.9 17.35 10.0 8.55 13.85 5.45 15.5 5.15 15.55 M15.15 10.35 L14.85 10.5 8.55 13.85 M15.5 10.15 L15.15 10.35 M6.3 11.35 L5.75 12.05 4.55 13.45 5.3 15.05 M5.4 15.4 L5.45 15.5 M17.9 8.9 L15.5 10.15 M5.2 10.9 L4.15 12.45 4.15 12.5 4.55 13.45 M6.4 9.05 L5.2 10.9 M6.3 11.35 L12.2 4.5" ffdec:has-small-stroke="true" ffdec:original-stroke-width="0.05" fill="none" stroke="#000000" stroke-linecap="round" stroke-linejoin="round" stroke-opacity="0.3019608" stroke-width="1.0"/>
  </g>
</svg>
