<?xml version="1.0" encoding="UTF-8" standalone="no"?>
<svg xmlns:ffdec="https://www.free-decompiler.com/flash" xmlns:xlink="http://www.w3.org/1999/xlink" ffdec:objectType="shape" height="37.35px" width="35.3px" xmlns="http://www.w3.org/2000/svg">
  <g transform="matrix(1.0, 0.0, 0.0, 1.0, 17.65, 18.65)">
    <path d="M-8.15 -12.15 L-7.8 -14.2 -4.1 -18.65 Q0.65 -17.0 4.95 -14.5 4.05 -13.45 3.7 -12.15 L1.6 -12.45 3.6 -11.8 3.45 -10.45 Q3.45 -9.7 3.6 -9.0 L1.6 -9.05 1.5 -8.95 1.5 -8.9 3.9 -7.9 Q4.25 -7.0 4.95 -6.2 4.45 -6.9 4.3 -7.7 L6.4 -6.75 6.45 -6.7 8.7 -5.55 10.8 -4.3 9.9 -4.15 9.6 -4.2 Q4.5 -5.45 1.3 -4.65 L1.2 -4.45 1.25 -4.45 Q7.25 -3.35 13.3 -0.15 5.3 -1.8 -0.95 -1.3 L-1.0 -1.2 Q8.3 0.2 15.25 4.85 L15.2 4.95 Q6.9 2.6 -0.25 3.8 8.45 5.2 14.85 9.2 7.75 6.55 -0.5 6.55 L-0.5 6.7 Q6.55 9.4 10.25 13.6 5.3 9.95 -1.35 10.5 4.0 12.05 7.0 16.75 L6.95 16.8 Q2.3 13.9 -2.85 14.6 L-2.9 14.8 Q2.15 15.9 5.7 18.7 -5.75 18.6 -13.4 17.25 L-13.25 16.3 -13.25 16.2 -10.2 15.65 -13.15 15.75 -11.35 5.8 -11.35 5.75 -7.75 4.4 -5.8 6.8 -5.25 6.55 -7.25 4.2 -7.2 4.2 -7.3 4.2 -8.35 2.95 -8.5 2.9 -8.6 2.8 -10.45 0.8 -9.45 -4.75 -8.5 -5.75 -7.25 -5.25 -6.95 -4.8 -6.95 -4.75 -8.15 -3.65 -8.65 -1.6 -6.6 0.6 -5.8 1.25 -3.75 -2.0 -3.8 -2.25 -4.5 -4.2 -3.5 -4.5 -4.5 -4.45 -4.8 -4.5 -6.7 -4.9 -6.85 -4.85 -7.0 -5.4 -7.15 -5.4 -8.25 -6.05 -8.3 -6.05 -8.55 -6.2 -9.35 -5.35 -8.5 -10.25 -6.45 -11.7 -6.4 -11.85 -8.15 -12.15 M-11.15 4.7 L-10.55 1.25 -8.9 3.0 -8.9 3.05 -7.9 4.25 -11.15 4.7 M4.85 -11.95 Q5.3 -12.95 6.15 -13.8 L6.45 -13.6 5.9 -12.8 5.45 -11.8 4.85 -11.95 M6.45 -8.7 Q6.35 -9.3 6.4 -9.95 L6.5 -10.45 Q7.65 -9.9 8.8 -9.15 L8.9 -9.05 Q9.45 -8.5 10.1 -8.3 L11.7 -7.2 Q9.15 -8.25 6.45 -8.7 M6.8 -11.4 L6.95 -11.75 7.7 -12.8 8.25 -12.4 Q8.0 -11.85 8.0 -11.15 L8.0 -11.05 6.8 -11.4 M4.15 -9.0 L4.15 -9.55 4.6 -11.4 5.25 -11.1 5.1 -10.3 5.2 -8.9 4.15 -9.0" fill="#f8e0f1" fill-rule="evenodd" stroke="none"/>
    <path d="M7.65 18.7 L5.7 18.7 Q2.15 15.9 -2.9 14.8 L-2.85 14.6 Q2.3 13.9 6.95 16.8 L7.0 16.75 Q4.0 12.05 -1.35 10.5 5.3 9.95 10.25 13.6 6.55 9.4 -0.5 6.7 L-0.5 6.55 Q7.75 6.55 14.85 9.2 8.45 5.2 -0.25 3.8 6.9 2.6 15.2 4.95 L15.25 4.95 15.25 4.85 Q8.3 0.2 -1.0 -1.2 L-0.95 -1.3 Q5.3 -1.8 13.3 -0.15 7.25 -3.35 1.25 -4.45 L1.2 -4.45 1.3 -4.65 Q4.5 -5.45 9.6 -4.2 L9.6 -4.1 8.25 -4.15 9.6 -3.95 9.95 -3.95 10.45 -4.0 11.8 -3.6 11.15 -4.1 Q12.2 -4.3 13.15 -4.8 L15.25 1.25 16.6 8.1 14.8 10.7 14.1 11.2 13.7 11.55 13.6 11.65 13.75 11.6 11.4 14.35 9.4 16.15 8.55 17.8 7.65 18.7 M-13.25 16.2 L-13.15 15.75 -10.2 15.65 -13.25 16.2 M-11.35 5.75 L-11.15 4.7 -7.9 4.25 -7.75 4.4 -11.35 5.75 M-8.5 -10.25 L-8.15 -12.15 -6.4 -11.85 -6.45 -11.7 -8.5 -10.25 M3.6 -11.8 L1.6 -12.45 3.7 -12.15 3.6 -11.8 M4.85 -11.95 L5.45 -11.8 5.25 -11.1 4.6 -11.4 4.85 -11.95 M12.95 -5.35 Q11.95 -4.65 10.8 -4.3 L8.7 -5.55 9.9 -5.5 Q11.25 -5.6 12.4 -6.3 L12.55 -6.35 12.55 -5.95 12.75 -5.95 12.95 -5.35 M12.5 -6.95 L12.05 -6.65 Q11.2 -6.2 10.25 -6.1 8.45 -5.95 7.35 -7.05 6.65 -7.75 6.45 -8.7 9.15 -8.25 11.7 -7.2 L10.1 -8.3 11.05 -8.15 11.7 -8.2 12.4 -8.45 12.5 -6.95 M6.5 -10.45 L6.8 -11.4 8.0 -11.05 Q8.05 -9.95 8.8 -9.15 7.65 -9.9 6.5 -10.45 M12.35 -9.3 L12.3 -9.25 12.5 -9.15 12.35 -9.15 12.4 -8.45 11.65 -8.4 11.1 -8.45 Q10.4 -8.6 9.85 -9.15 9.2 -9.8 9.1 -10.65 L9.1 -10.95 9.2 -11.75 12.35 -9.3 M4.15 -9.0 L5.2 -8.9 Q5.45 -7.7 6.4 -6.75 L4.3 -7.7 4.15 -9.0 M3.9 -7.9 L1.5 -8.9 1.5 -8.95 1.6 -9.05 3.6 -9.0 3.9 -7.9" fill="#eba5d8" fill-rule="evenodd" stroke="none"/>
    <path d="M-10.55 1.25 L-11.5 0.25 -11.45 -0.1 -11.05 -3.65 -10.9 -3.65 -9.35 -5.35 -8.55 -6.2 -8.3 -6.05 -8.25 -6.05 -7.15 -5.4 -7.0 -5.4 -6.85 -4.85 -6.95 -4.8 -7.25 -5.25 -8.5 -5.75 -9.45 -4.75 -10.55 -3.65 -11.1 0.15 -10.45 0.8 -8.6 2.8 -8.85 3.0 -8.55 2.9 -8.5 2.9 -8.35 2.95 -7.3 4.2 -7.25 4.2 -5.25 6.55 -5.8 6.8 -7.75 4.4 -7.9 4.25 -8.9 3.05 -8.85 3.0 -8.9 3.0 -10.55 1.25 M-6.7 -4.9 L-4.8 -4.5 -4.5 -4.45 -4.5 -4.3 -4.5 -4.2 -3.8 -2.25 -3.75 -2.0 -5.8 1.25 -6.6 0.6 -8.65 -1.6 -8.15 -3.65 -6.95 -4.75 -6.85 -4.85 -6.75 -4.85 -6.7 -4.9 M-14.3 -0.7 L-14.85 -0.35 -16.15 0.85 -16.9 2.2 -16.85 2.25 -16.15 3.4 -17.65 2.35 -17.3 1.35 -16.9 0.2 -15.2 -0.5 -14.2 -1.2 -11.5 -0.1 -11.6 0.1 -14.3 -0.7 M-4.8 -4.5 L-5.95 -4.4 -5.95 -4.45 -6.75 -4.85 -5.95 -4.45 -5.95 -4.4 -4.8 -4.5 M-17.3 1.35 L-16.55 0.55 -15.2 -0.5 -16.55 0.55 -17.3 1.35 M-5.8 -0.4 L-5.55 -1.75 -5.65 -1.85 -6.3 -1.45 -5.65 -1.85 -5.55 -1.75 -5.5 -1.85 -5.8 -3.4 -6.0 -3.55 -7.8 -1.9 -6.0 -3.55 -5.8 -3.4 -5.5 -1.85 -5.55 -1.75 -5.8 -0.4 M-3.8 -2.25 L-5.8 -3.4 -5.95 -4.4 -6.0 -4.4 -5.95 -4.45 -6.0 -4.4 -5.95 -4.4 -5.8 -3.4 -3.8 -2.25 M-7.15 -3.8 L-6.0 -4.4 -7.15 -3.8" fill="#006600" fill-rule="evenodd" stroke="none"/>
    <path d="M-6.85 -4.85 L-6.7 -4.9 -6.85 -4.85 M-8.6 2.8 L-8.5 2.9 -8.55 2.9 -8.6 2.8" fill="#f4d2ec" fill-rule="evenodd" stroke="none"/>
    <path d="M-6.95 -4.75 L-6.95 -4.8 -6.85 -4.85 -6.95 -4.75 M-6.85 -4.85 L-6.7 -4.9 -6.75 -4.85 -6.85 -4.85 M-8.6 2.8 L-8.55 2.9 -8.85 3.0 -8.6 2.8 M-8.9 3.0 L-8.85 3.0 -8.9 3.05 -8.9 3.0 M10.45 -4.0 L11.15 -4.1 11.8 -3.6 10.45 -4.0 M12.5 -9.15 L12.3 -9.25 12.35 -9.3 12.5 -9.15 M15.25 4.85 L15.25 4.95 15.2 4.95 15.25 4.85" fill="#d2f0f0" fill-rule="evenodd" stroke="none"/>
    <path d="M-4.5 -4.45 L-3.5 -4.5 -4.5 -4.2 -4.5 -4.3 -4.5 -4.45 M-7.3 4.2 L-7.2 4.2 -7.25 4.2 -7.3 4.2" fill="#72cfcf" fill-rule="evenodd" stroke="none"/>
    <path d="M4.95 -14.5 L5.55 -15.15 Q7.5 -17.15 10.25 -17.2 13.0 -17.25 14.9 -15.35 16.75 -13.5 16.7 -10.75 16.65 -8.0 14.7 -6.0 L14.1 -5.45 13.15 -4.8 Q12.2 -4.3 11.15 -4.1 L10.45 -4.0 9.95 -3.95 9.9 -4.15 10.8 -4.3 Q11.95 -4.65 12.95 -5.35 L13.85 -6.05 14.0 -6.25 Q15.9 -8.15 16.15 -10.65 16.35 -13.15 14.75 -14.7 13.15 -16.35 10.7 -16.1 8.2 -15.9 6.3 -13.95 L6.15 -13.8 Q5.3 -12.95 4.85 -11.95 L4.6 -11.4 4.15 -9.55 4.15 -9.0 4.3 -7.7 Q4.45 -6.9 4.95 -6.2 4.25 -7.0 3.9 -7.9 L3.6 -9.0 Q3.45 -9.7 3.45 -10.45 L3.6 -11.8 3.7 -12.15 Q4.05 -13.45 4.95 -14.5 M5.45 -11.8 L5.9 -12.8 6.45 -13.6 6.9 -14.05 Q8.5 -15.65 10.6 -15.8 12.7 -15.95 14.15 -14.5 15.55 -13.1 15.4 -11.0 15.25 -8.9 13.65 -7.25 L13.45 -7.05 12.55 -6.35 12.4 -6.3 Q11.25 -5.6 9.9 -5.5 L8.7 -5.55 6.45 -6.7 6.4 -6.75 Q5.45 -7.7 5.2 -8.9 L5.1 -10.3 5.25 -11.1 5.45 -11.8 M13.25 -7.5 L13.35 -7.65 Q14.7 -9.0 14.9 -10.75 15.05 -12.5 13.95 -13.6 12.8 -14.75 11.05 -14.6 9.3 -14.4 7.95 -13.05 L7.7 -12.8 6.95 -11.75 6.8 -11.4 6.5 -10.45 6.4 -9.95 Q6.35 -9.3 6.45 -8.7 6.65 -7.75 7.35 -7.05 8.45 -5.95 10.25 -6.1 11.2 -6.2 12.05 -6.65 L12.5 -6.95 13.25 -7.5 M8.25 -12.4 L8.9 -13.3 Q9.75 -14.2 11.0 -14.2 12.25 -14.2 13.15 -13.3 L13.05 -13.15 11.65 -13.55 Q10.6 -13.55 9.85 -12.8 9.35 -12.35 9.2 -11.75 L9.1 -10.95 9.1 -10.65 Q9.2 -9.8 9.85 -9.15 10.4 -8.6 11.1 -8.45 L11.65 -8.4 12.4 -8.45 11.7 -8.2 11.05 -8.15 10.1 -8.3 Q9.45 -8.5 8.9 -9.05 L8.8 -9.15 Q8.05 -9.95 8.0 -11.05 L8.0 -11.15 Q8.0 -11.85 8.25 -12.4 M11.05 -13.0 Q11.35 -13.35 11.9 -13.3 12.4 -13.3 12.8 -12.9 L13.2 -12.05 Q13.2 -11.55 12.85 -11.2 12.5 -10.85 12.0 -10.85 11.5 -10.9 11.1 -11.25 10.7 -11.65 10.7 -12.15 10.7 -12.65 11.05 -13.0 M12.45 -12.15 L12.35 -12.45 12.0 -12.6 11.7 -12.5 11.55 -12.2 11.7 -11.85 12.05 -11.7 Q12.2 -11.7 12.35 -11.85 L12.45 -12.15 12.35 -11.85 Q12.2 -11.7 12.05 -11.7 L11.7 -11.85 11.55 -12.2 11.7 -12.5 12.0 -12.6 12.35 -12.45 12.45 -12.15" fill="#ffffff" fill-rule="evenodd" stroke="none"/>
    <path d="M14.1 -5.45 L16.15 0.7 Q17.25 4.75 17.65 8.7 13.8 14.6 8.45 18.2 L7.65 18.7 8.55 17.8 9.4 16.15 11.4 14.35 13.75 11.6 13.7 11.55 14.1 11.2 14.8 10.7 16.6 8.1 15.25 1.25 13.15 -4.8 14.1 -5.45 M13.85 -6.05 L12.95 -5.35 12.75 -5.95 12.55 -5.95 12.55 -6.35 13.45 -7.05 13.85 -6.05 M13.25 -7.5 L12.5 -6.95 12.4 -8.45 12.35 -9.15 12.5 -9.15 12.7 -8.65 12.5 -8.5 12.4 -8.45 12.5 -8.5 12.75 -8.6 13.25 -7.5" fill="#992270" fill-rule="evenodd" stroke="none"/>
    <path d="M12.7 -8.65 L12.75 -8.6 12.5 -8.5 12.4 -8.45 12.5 -8.5 12.7 -8.65 M13.75 11.6 L13.6 11.65 13.7 11.55 13.75 11.6" fill="#3db1b0" fill-rule="evenodd" stroke="none"/>
    <path d="M9.9 -4.15 L9.95 -3.95 9.6 -3.95 8.25 -4.15 9.6 -4.1 9.6 -4.2 9.9 -4.15 9.6 -4.1 9.9 -4.15 M6.4 -6.75 L6.45 -6.7 6.4 -6.75 M1.2 -4.45 L1.25 -4.45 1.2 -4.45" fill="#a4dfdf" fill-rule="evenodd" stroke="none"/>
    <path d="M-8.15 -12.15 L-7.8 -14.2 -4.1 -18.65 Q0.65 -17.0 4.95 -14.5 M14.1 -5.45 L16.15 0.7 Q17.25 4.75 17.65 8.7 13.8 14.6 8.45 18.2 L7.65 18.7 5.7 18.7 Q-5.75 18.6 -13.4 17.25 L-13.25 16.3 M-13.25 16.2 L-13.15 15.75 -11.35 5.8 M-11.35 5.75 L-11.15 4.7 -10.55 1.25 M-9.35 -5.35 L-8.5 -10.25 -8.15 -12.15 M-9.45 -4.75 L-10.45 0.8 M6.45 -13.6 L6.15 -13.8 M7.7 -12.8 L8.25 -12.4 M12.75 -8.6 L13.25 -7.5 M13.45 -7.05 L13.85 -6.05 M12.7 -8.65 L12.75 -8.6 M12.5 -9.15 L12.35 -9.3 9.2 -11.75 M12.5 -9.15 L12.7 -8.65" ffdec:has-small-stroke="true" ffdec:original-stroke-width="0.05" fill="none" stroke="#000000" stroke-linecap="round" stroke-linejoin="round" stroke-opacity="0.3019608" stroke-width="1.0"/>
    <path d="M-6.75 -4.85 L-5.95 -4.45 -5.95 -4.4 -4.8 -4.5 M-15.2 -0.5 L-16.55 0.55 -17.3 1.35 M-5.95 -4.45 L-6.0 -4.4 -5.95 -4.4 -5.8 -3.4 -3.8 -2.25 M-6.3 -1.45 L-5.65 -1.85 -5.55 -1.75 -5.5 -1.85 -5.8 -3.4 -6.0 -3.55 -7.8 -1.9 M-5.55 -1.75 L-5.8 -0.4 M-6.0 -4.4 L-7.15 -3.8" ffdec:has-small-stroke="true" ffdec:original-stroke-width="0.05" fill="none" stroke="#009900" stroke-linecap="round" stroke-linejoin="round" stroke-width="1.0"/>
    <path d="M4.95 -14.5 L5.55 -15.15 Q7.5 -17.15 10.25 -17.2 13.0 -17.25 14.9 -15.35 16.75 -13.5 16.7 -10.75 16.65 -8.0 14.7 -6.0 L14.1 -5.45 13.15 -4.8 Q12.2 -4.3 11.15 -4.1 L10.45 -4.0 9.95 -3.95 9.6 -3.95 8.25 -4.15 9.6 -4.1 9.9 -4.15 10.8 -4.3 Q11.95 -4.65 12.95 -5.35 L13.85 -6.05 14.0 -6.25 Q15.9 -8.15 16.15 -10.65 16.35 -13.15 14.75 -14.7 13.15 -16.35 10.7 -16.1 8.2 -15.9 6.3 -13.95 L6.15 -13.8 Q5.3 -12.95 4.85 -11.95 L4.6 -11.4 4.15 -9.55 4.15 -9.0 4.3 -7.7 Q4.45 -6.9 4.95 -6.2 4.25 -7.0 3.9 -7.9 L3.6 -9.0 Q3.45 -9.7 3.45 -10.45 L3.6 -11.8 3.7 -12.15 Q4.05 -13.45 4.95 -14.5 M5.45 -11.8 L5.9 -12.8 6.45 -13.6 6.9 -14.05 Q8.5 -15.65 10.6 -15.8 12.7 -15.95 14.15 -14.5 15.55 -13.1 15.4 -11.0 15.25 -8.9 13.65 -7.25 L13.45 -7.05 12.55 -6.35 12.4 -6.3 Q11.25 -5.6 9.9 -5.5 L8.7 -5.55 6.45 -6.7 6.4 -6.75 Q5.45 -7.7 5.2 -8.9 L5.1 -10.3 5.25 -11.1 5.45 -11.8 M7.7 -12.8 L7.95 -13.05 Q9.3 -14.4 11.05 -14.6 12.8 -14.75 13.95 -13.6 15.05 -12.5 14.9 -10.75 14.7 -9.0 13.35 -7.65 L13.25 -7.5 12.5 -6.95 12.05 -6.65 Q11.2 -6.2 10.25 -6.1 8.45 -5.95 7.35 -7.05 6.65 -7.75 6.45 -8.7 6.35 -9.3 6.4 -9.95 L6.5 -10.45 6.8 -11.4 6.95 -11.75 7.7 -12.8 M8.25 -12.4 L8.9 -13.3 Q9.75 -14.2 11.0 -14.2 12.25 -14.2 13.15 -13.3 L13.7 -12.55 Q14.25 -11.85 14.25 -10.95 14.25 -9.9 13.5 -9.15 L12.75 -8.6 12.5 -8.5 12.4 -8.45 11.7 -8.2 11.05 -8.15 10.1 -8.3 Q9.45 -8.5 8.9 -9.05 L8.8 -9.15 Q8.05 -9.95 8.0 -11.05 L8.0 -11.15 Q8.0 -11.85 8.25 -12.4 M11.05 -13.0 Q11.35 -13.35 11.9 -13.3 12.4 -13.3 12.8 -12.9 L13.2 -12.05 Q13.2 -11.55 12.85 -11.2 12.5 -10.85 12.0 -10.85 11.5 -10.9 11.1 -11.25 10.7 -11.65 10.7 -12.15 10.7 -12.65 11.05 -13.0 M12.45 -12.15 L12.35 -11.85 Q12.2 -11.7 12.05 -11.7 L11.7 -11.85 11.55 -12.2 11.7 -12.5 12.0 -12.6 12.35 -12.45 12.45 -12.15 M13.05 -13.15 L13.5 -12.8 13.7 -12.55 Q14.05 -11.95 14.05 -11.15 14.05 -9.95 13.15 -9.05 L12.7 -8.65 12.5 -8.5 12.4 -8.45 11.65 -8.4 11.1 -8.45 Q10.4 -8.6 9.85 -9.15 9.2 -9.8 9.1 -10.65 L9.1 -10.95 9.2 -11.75 Q9.35 -12.35 9.85 -12.8 10.6 -13.55 11.65 -13.55 L13.05 -13.15 Z" ffdec:has-small-stroke="true" ffdec:original-stroke-width="0.05" fill="none" stroke="#996600" stroke-linecap="round" stroke-linejoin="round" stroke-opacity="0.5137255" stroke-width="1.0"/>
  </g>
</svg>
