<?xml version="1.0" encoding="UTF-8" standalone="no"?>
<svg xmlns:ffdec="https://www.free-decompiler.com/flash" xmlns:xlink="http://www.w3.org/1999/xlink" ffdec:objectType="shape" height="43.6px" width="46.95px" xmlns="http://www.w3.org/2000/svg">
  <g transform="matrix(1.0, 0.0, 0.0, 1.0, 0.0, 0.55)">
    <path d="M22.4 14.85 L22.3 14.8 22.55 14.7 22.4 14.85 M26.1 38.05 L25.95 37.7 25.9 37.0 26.1 38.05" fill="#5e7188" fill-rule="evenodd" stroke="none"/>
    <path d="M45.65 11.45 L45.7 11.65 45.7 11.7 45.65 11.45" fill="#455465" fill-rule="evenodd" stroke="none"/>
    <path d="M32.5 20.15 L31.4 24.05 28.35 27.45 28.4 27.45 27.85 28.05 27.8 28.05 27.4 28.45 27.4 28.5 22.5 35.7 22.05 39.4 22.0 36.2 22.0 36.05 21.95 36.05 21.9 35.55 24.05 32.25 24.0 32.25 24.45 31.55 24.5 31.5 26.8 27.95 29.05 25.8 29.8 25.1 29.85 25.1 30.9 24.05 32.5 20.15" fill="#b85445" fill-rule="evenodd" stroke="none"/>
    <path d="M39.85 4.7 Q41.75 5.7 43.1 7.15 L43.55 7.65 45.65 11.15 45.65 11.45 45.7 11.7 45.8 14.55 Q45.65 17.05 42.5 23.35 L41.75 24.7 38.45 29.7 Q39.15 26.4 37.7 21.85 L37.65 21.7 Q38.6 20.2 38.4 17.4 38.2 13.95 36.15 11.45 33.45 9.4 29.85 10.95 29.65 9.75 28.6 8.7 28.05 8.15 27.35 7.65 L27.75 7.0 27.35 7.65 Q22.1 8.75 23.15 13.95 L22.5 14.65 22.45 14.7 22.3 14.8 22.0 15.0 Q21.0 15.55 20.75 13.8 21.0 15.55 22.0 15.0 L22.3 14.8 22.4 14.85 Q20.0 18.1 12.9 21.2 L15.15 22.4 Q13.95 21.9 12.1 22.65 10.6 23.65 10.4 25.4 L10.4 26.05 Q5.2 26.9 0.05 21.45 -0.2 20.0 1.0 18.9 L1.25 18.6 7.1 20.15 7.9 18.85 8.1 18.95 8.25 18.65 10.15 18.35 Q16.35 10.9 22.8 6.05 L23.15 5.8 Q28.45 3.25 32.8 2.9 L33.05 3.05 33.65 3.4 32.95 4.2 32.5 4.9 34.65 3.8 36.75 5.2 35.75 3.35 36.0 3.15 38.2 3.9 37.15 3.9 37.35 4.0 37.7 4.25 37.85 4.35 38.25 4.65 37.7 5.2 Q37.35 5.5 37.35 5.7 L38.95 5.0 40.4 6.15 39.8 4.75 39.85 4.7 M36.75 31.3 L35.15 32.95 31.7 36.2 Q30.1 37.9 29.25 40.1 L28.95 40.05 Q26.65 38.95 26.1 38.05 L25.9 37.0 Q26.1 35.8 27.6 33.7 30.0 30.3 33.1 27.55 35.35 28.6 36.75 31.3 M11.55 20.5 L12.9 21.2 11.55 20.5 M38.65 14.55 Q40.9 15.1 41.95 13.95 L38.65 14.55 M38.45 15.2 Q39.75 16.25 41.0 15.85 L38.45 15.2 M38.55 13.8 Q41.35 13.1 41.65 11.25 L38.55 13.8" fill="#81601b" fill-rule="evenodd" stroke="none"/>
    <path d="M45.7 11.65 L45.7 11.7 45.7 11.65 M16.1 22.9 L16.25 23.0 Q17.05 23.75 16.8 25.35 16.45 27.15 15.0 28.05 12.85 29.2 11.95 28.75 L11.75 28.8 Q8.45 29.25 5.4 27.6 2.95 26.25 0.45 22.65 L0.05 21.45 Q5.2 26.9 10.4 26.05 L10.4 25.4 Q10.6 23.65 12.1 22.65 13.95 21.9 15.15 22.4 L15.2 22.4 15.9 22.8 16.1 22.9 M11.95 28.75 Q10.55 28.05 10.4 26.05 10.55 28.05 11.95 28.75" fill="#735517" fill-rule="evenodd" stroke="none"/>
    <path d="M45.7 11.7 Q46.9 16.7 46.95 20.0 46.95 23.35 46.05 29.9 L44.25 28.1 Q44.8 27.8 45.3 27.55 45.3 25.8 44.5 24.6 43.65 23.35 42.5 23.35 45.65 17.05 45.8 14.55 L45.7 11.7 M24.85 27.45 L20.3 27.35 Q25.95 22.85 26.95 23.1 L27.15 23.25 26.9 23.75 25.55 26.2 24.85 27.45 M27.35 7.65 Q28.05 8.15 28.6 8.7 29.65 9.75 29.85 10.95 L29.7 12.55 Q27.7 15.75 22.55 14.7 L22.5 14.65 23.15 13.95 Q22.1 8.75 27.35 7.65 M41.95 13.95 Q40.9 15.1 38.65 14.55 L41.95 13.95 M41.0 15.85 Q39.75 16.25 38.45 15.2 L41.0 15.85 M41.65 11.25 Q41.35 13.1 38.55 13.8 L41.65 11.25" fill="#5e4513" fill-rule="evenodd" stroke="none"/>
    <path d="M45.65 11.15 L43.55 7.65 43.1 7.15 Q41.75 5.7 39.85 4.7 L40.6 4.15 39.55 4.0 39.25 2.45 39.2 2.55 38.55 3.9 38.2 3.9 36.0 3.15 36.8 2.45 35.35 2.35 34.75 0.4 Q37.8 1.0 40.4 2.95 42.85 4.85 44.2 7.25 45.5 9.6 45.65 11.15 M1.25 18.6 Q2.45 17.3 4.15 17.8 L7.9 18.85 7.1 20.15 1.25 18.6 M8.25 18.65 Q14.0 10.25 21.85 2.6 27.3 -0.7 33.65 0.2 L34.7 0.4 33.95 2.35 32.05 2.5 32.3 2.65 32.8 2.9 Q28.45 3.25 23.15 5.8 L22.8 6.05 Q16.35 10.9 10.15 18.35 L8.25 18.65" fill="#a77c23" fill-rule="evenodd" stroke="none"/>
    <path d="M38.45 29.7 L37.8 33.65 36.75 31.3 Q35.35 28.6 33.1 27.55 30.0 30.3 27.6 33.7 26.1 35.8 25.9 37.0 L25.95 37.7 26.1 38.05 Q25.65 41.05 26.9 42.8 L24.1 42.35 Q21.0 41.35 19.85 40.5 19.5 38.7 20.3 37.05 L20.55 36.5 20.75 36.2 21.1 35.6 21.7 34.6 21.9 34.3 23.5 31.9 24.85 30.0 26.3 28.25 26.4 28.1 26.6 27.6 Q27.2 25.9 26.9 23.75 L27.15 23.25 Q28.35 20.8 28.15 20.1 L28.95 19.75 28.0 18.45 19.45 21.65 16.1 22.9 15.9 22.8 15.2 22.4 15.15 22.4 12.9 21.2 Q20.0 18.1 22.4 14.85 L22.55 14.7 Q27.7 15.75 29.7 12.55 L29.85 10.95 Q33.45 9.4 36.15 11.45 38.2 13.95 38.4 17.4 38.6 20.2 37.65 21.7 L37.7 21.85 Q39.15 26.4 38.45 29.7 M33.2 17.5 L33.9 17.15 34.8 18.25 34.85 16.6 35.25 16.4 35.9 17.65 35.95 15.95 36.05 15.9 35.9 14.15 35.75 15.9 34.4 14.4 34.35 16.7 32.95 15.45 30.75 16.8 30.2 19.15 32.1 18.15 32.35 18.0 33.2 17.5 M32.5 20.15 L30.9 24.05 29.85 25.1 29.8 25.1 29.05 25.8 26.8 27.95 24.5 31.5 24.45 31.55 24.0 32.25 24.05 32.25 21.9 35.55 21.95 36.05 22.0 36.05 22.0 36.2 22.05 39.4 22.5 35.7 27.4 28.5 27.4 28.45 27.8 28.05 27.85 28.05 28.4 27.45 28.35 27.45 31.4 24.05 32.5 20.15 M28.5 27.95 L28.45 27.95 28.5 28.0 28.5 27.95" fill="#d7a671" fill-rule="evenodd" stroke="none"/>
    <path d="M19.85 40.5 L19.15 39.8 Q18.8 39.1 19.3 37.6 L19.95 36.0 20.35 35.15 20.4 35.05 21.1 33.7 24.85 27.45 25.55 26.2 26.9 23.75 Q27.2 25.9 26.6 27.6 L26.4 28.1 26.3 28.25 24.85 30.0 23.5 31.9 21.9 34.3 21.7 34.6 21.1 35.6 20.75 36.2 20.55 36.5 20.3 37.05 Q19.5 38.7 19.85 40.5" fill="#dfb98e" fill-rule="evenodd" stroke="none"/>
    <path d="M29.25 40.1 L30.35 40.55 33.95 41.55 Q35.0 41.6 36.3 40.55 35.05 39.45 35.7 37.65 36.15 36.35 37.15 36.0 36.75 37.6 38.05 38.65 L42.35 38.85 Q41.75 40.35 40.45 41.05 38.8 41.95 37.5 41.45 36.6 42.3 36.1 42.5 L33.35 42.95 Q30.25 43.2 26.9 42.8 25.65 41.05 26.1 38.05 26.65 38.95 28.95 40.05 L29.2 40.15 29.25 40.1 M28.15 20.1 Q24.2 21.75 19.85 22.55 L19.45 21.65 28.0 18.45 28.95 19.75 28.15 20.1 M35.9 14.15 L36.05 15.9 35.95 15.95 35.9 17.65 35.25 16.4 34.85 16.6 34.8 18.25 33.9 17.15 33.2 17.5 32.35 18.0 32.1 18.15 30.2 19.15 30.75 16.8 32.95 15.45 34.35 16.7 34.4 14.4 35.75 15.9 35.9 14.15" fill="#cd914e" fill-rule="evenodd" stroke="none"/>
    <path d="M22.5 14.65 L22.55 14.7 22.45 14.7 22.5 14.65" fill="#e8d082" fill-rule="evenodd" stroke="none"/>
    <path d="M0.4 9.1 Q4.35 7.4 7.15 4.4 6.6 3.4 4.9 2.95 L5.0 2.95 4.95 2.85 10.1 3.65 Q5.95 5.75 3.45 8.9 5.9 12.45 10.4 13.55 7.25 16.45 3.0 16.1 L4.15 14.15 Q5.0 12.25 0.4 9.1" fill="#c8d8ce" fill-rule="evenodd" stroke="none"/>
    <path d="M11.45 -0.55 L11.65 -0.5 15.15 2.5 12.25 5.95 Q12.85 7.1 14.3 7.55 11.95 8.1 11.4 6.25 13.05 4.6 14.1 2.6 13.0 0.95 11.45 -0.55" fill="#c9d9cf" fill-opacity="0.6627451" fill-rule="evenodd" stroke="none"/>
    <path d="M34.75 0.4 L35.35 2.35 36.8 2.45 36.0 3.15 35.75 3.35 36.75 5.2 34.65 3.8 32.5 4.9 32.95 4.2 33.65 3.4 33.05 3.05 32.8 2.9 32.3 2.65 32.05 2.5 33.95 2.35 34.7 0.4 34.75 0.3 34.75 0.4 M38.2 3.9 L38.55 3.9 39.2 2.55 39.25 2.45 39.55 4.0 40.6 4.15 39.85 4.7 39.8 4.75 40.4 6.15 38.95 5.0 37.35 5.7 Q37.35 5.5 37.7 5.2 L38.25 4.65 37.85 4.35 37.7 4.25 37.35 4.0 37.15 3.9 38.2 3.9" fill="#d9ad5b" fill-rule="evenodd" stroke="none"/>
    <path d="M45.65 11.15 Q45.5 9.6 44.2 7.25 42.85 4.85 40.4 2.95 37.8 1.0 34.75 0.4 M45.65 11.15 L45.65 11.45 45.7 11.65 45.7 11.7 Q46.9 16.7 46.95 20.0 46.95 23.35 46.05 29.9 L44.25 28.1 Q44.8 27.8 45.3 27.55 45.3 25.8 44.5 24.6 43.65 23.35 42.5 23.35 L41.75 24.7 38.45 29.7 37.8 33.65 36.75 31.3 35.15 32.95 31.7 36.2 Q30.1 37.9 29.25 40.1 L30.35 40.55 33.95 41.55 Q35.0 41.6 36.3 40.55 35.05 39.45 35.7 37.65 36.15 36.35 37.15 36.0 36.75 37.6 38.05 38.65 L42.35 38.85 Q41.75 40.35 40.45 41.05 38.8 41.95 37.5 41.45 36.6 42.3 36.1 42.5 L33.35 42.95 Q30.25 43.2 26.9 42.8 L24.1 42.35 Q21.0 41.35 19.85 40.5 L19.15 39.8 Q18.8 39.1 19.3 37.6 L19.95 36.0 20.35 35.15 20.4 35.05 21.1 33.7 24.85 27.45 20.3 27.35 Q25.95 22.85 26.95 23.1 L27.15 23.25 Q28.35 20.8 28.15 20.1 24.2 21.75 19.85 22.55 L19.45 21.65 16.1 22.9 16.25 23.0 Q17.05 23.75 16.8 25.35 16.45 27.15 15.0 28.05 12.85 29.2 11.95 28.75 L11.75 28.8 Q8.45 29.25 5.4 27.6 2.95 26.25 0.45 22.65 L0.05 21.45 Q-0.2 20.0 1.0 18.9 L1.25 18.6 Q2.45 17.3 4.15 17.8 L7.9 18.85 8.1 18.95 8.25 18.65 Q14.0 10.25 21.85 2.6 27.3 -0.7 33.65 0.2 L34.7 0.4 M45.65 11.45 L45.7 11.7 45.8 14.55 Q45.65 17.05 42.5 23.35 M27.35 7.65 Q28.05 8.15 28.6 8.7 29.65 9.75 29.85 10.95 33.45 9.4 36.15 11.45 38.2 13.95 38.4 17.4 38.6 20.2 37.65 21.7 L37.7 21.85 Q39.15 26.4 38.45 29.7 M27.75 7.0 L27.35 7.65 Q22.1 8.75 23.15 13.95 L22.5 14.65 22.45 14.7 22.3 14.8 22.0 15.0 Q21.0 15.55 20.75 13.8 M22.55 14.7 Q27.7 15.75 29.7 12.55 L29.85 10.95 M22.55 14.7 L22.4 14.85 Q20.0 18.1 12.9 21.2 L15.15 22.4 15.2 22.4 15.9 22.8 16.1 22.9 M22.3 14.8 L22.55 14.7 M27.15 23.25 L26.9 23.75 25.55 26.2 24.85 27.45 M19.45 21.65 L28.0 18.45 28.95 19.75 28.15 20.1 M35.9 14.15 L35.75 15.9 34.4 14.4 34.35 16.7 32.95 15.45 M30.75 16.8 L30.2 19.15 32.1 18.15 32.35 18.0 33.2 17.5 M12.9 21.2 L11.55 20.5 M15.15 22.4 Q13.95 21.9 12.1 22.65 10.6 23.65 10.4 25.4 L10.4 26.05 Q10.55 28.05 11.95 28.75 M25.9 37.0 Q26.1 35.8 27.6 33.7 30.0 30.3 33.1 27.55 35.35 28.6 36.75 31.3 M29.25 40.1 L29.2 40.15 28.95 40.05 Q26.65 38.95 26.1 38.05 L25.95 37.7 25.9 37.0 M28.95 40.05 L29.25 40.1 M38.65 14.55 Q40.9 15.1 41.95 13.95 M41.0 15.85 Q39.75 16.25 38.45 15.2 M41.65 11.25 Q41.35 13.1 38.55 13.8" ffdec:has-small-stroke="true" ffdec:original-stroke-width="0.05" fill="none" stroke="#660000" stroke-linecap="round" stroke-linejoin="round" stroke-opacity="0.39215687" stroke-width="1.0"/>
  </g>
</svg>
