<?xml version="1.0" encoding="UTF-8" standalone="no"?>
<svg xmlns:ffdec="https://www.free-decompiler.com/flash" xmlns:xlink="http://www.w3.org/1999/xlink" ffdec:objectType="shape" height="95.15px" width="110.0px" xmlns="http://www.w3.org/2000/svg">
  <g transform="matrix(1.0, 0.0, 0.0, 1.0, 55.0, 47.55)">
    <path d="M-41.55 -34.25 L-42.0 -34.8 -42.35 -34.85 -42.4 -34.85 Q-43.05 -34.8 -43.15 -34.1 L-43.15 -34.0 -43.15 -33.85 -44.2 -35.1 -45.85 -30.45 -48.65 -24.7 -48.65 -24.0 -48.6 -22.8 -50.55 -21.7 -48.55 -22.35 -47.75 1.65 -48.0 1.75 -47.3 4.1 -47.1 4.65 -44.0 14.7 -41.95 17.25 -41.8 18.05 -41.85 17.35 -39.45 20.35 Q-40.0 20.4 -40.05 21.0 -40.15 21.65 -39.5 21.95 L-39.15 21.95 -38.9 21.85 -38.5 21.55 -35.45 25.4 -35.4 25.45 Q-35.4 26.0 -34.85 26.35 L-34.7 26.35 -34.6 26.45 -32.2 29.5 -32.5 29.4 Q-34.25 29.85 -33.85 31.55 -33.6 32.85 -32.3 32.55 -30.85 32.1 -30.7 31.35 L-27.65 35.2 -24.9 36.4 Q-24.95 37.0 -24.35 37.3 L-23.95 37.35 -23.65 37.25 -23.4 37.1 -23.3 37.15 -5.75 44.95 2.7 44.6 2.85 44.7 3.2 44.75 3.45 44.65 3.5 44.6 3.95 44.6 12.0 44.3 12.05 44.3 Q12.15 44.7 12.4 44.95 L-5.4 47.6 -20.6 41.85 -20.55 41.75 -20.1 41.45 -20.05 41.2 Q-20.1 40.55 -20.6 40.2 L-20.95 40.2 Q-21.65 40.2 -21.75 40.85 L-21.7 41.45 -27.65 39.15 -36.15 31.45 -49.85 14.2 -55.0 -4.6 -54.7 -3.95 -54.95 -4.65 -53.1 -23.65 -50.55 -30.45 -36.65 -45.2 -17.25 -47.55 -13.5 -44.9 -13.75 -44.4 Q-13.8 -43.8 -13.2 -43.45 L-12.8 -43.4 -12.55 -43.55 -12.1 -43.9 -3.0 -37.55 -3.85 -35.95 -4.1 -36.05 Q-4.2 -36.55 -4.6 -36.85 L-4.95 -36.9 -5.45 -36.75 -17.95 -43.25 -18.05 -43.3 -18.55 -43.95 -18.9 -44.0 -19.3 -43.9 -20.55 -44.6 -20.6 -44.85 -20.65 -44.85 -31.1 -41.05 -31.2 -41.2 Q-30.95 -42.3 -31.95 -42.8 L-32.0 -42.8 -32.35 -42.85 -32.55 -42.85 -33.15 -42.5 Q-33.7 -42.15 -33.75 -41.5 -33.35 -40.65 -32.8 -40.45 L-38.6 -38.3 -39.8 -36.65 -41.55 -34.25 M-49.05 -26.75 L-49.1 -26.8 -49.45 -26.85 Q-50.15 -26.85 -50.25 -26.1 L-50.25 -25.9 Q-50.25 -25.45 -49.7 -25.15 L-49.35 -25.15 -49.1 -25.25 -48.65 -25.6 -48.55 -25.85 Q-48.6 -26.45 -49.05 -26.75 M-49.85 -14.8 L-50.0 -15.15 -50.2 -15.2 -50.4 -15.2 -50.65 -15.1 -50.45 -14.55 -49.85 -14.8 M-52.15 -2.5 Q-52.25 -1.85 -51.6 -1.55 L-51.25 -1.5 Q-50.35 -1.45 -49.8 -2.0 L-49.8 -2.25 Q-49.85 -2.9 -50.35 -3.25 L-50.65 -3.25 Q-51.8 -3.45 -52.15 -2.5 M-52.95 -15.7 L-52.6 -15.65 -52.3 -15.8 -51.9 -16.1 -51.85 -16.35 Q-51.8 -17.0 -52.35 -17.3 L-52.7 -17.3 Q-53.4 -17.35 -53.5 -16.65 -53.6 -16.0 -52.95 -15.7 M-49.6 -5.65 L-49.85 -5.55 -49.65 -5.0 -49.05 -5.25 -49.2 -5.55 -49.4 -5.65 -49.6 -5.65 M-5.35 -16.4 L-3.8 -19.85 -3.75 -19.9 -3.4 -20.2 -3.3 -20.45 -3.35 -20.85 -0.75 -26.7 -0.15 -26.45 -10.2 -0.15 -8.35 11.25 -7.1 13.45 -7.2 13.55 Q-9.05 13.9 -8.6 15.7 -8.35 16.95 -7.05 16.6 -6.1 16.35 -5.7 15.95 L-3.75 19.4 -3.55 19.75 -3.9 19.7 Q-4.65 19.7 -4.7 20.35 -4.85 21.0 -4.2 21.3 L-3.8 21.35 -3.5 21.25 -3.05 20.95 -3.05 20.65 -3.0 20.65 -0.05 25.9 2.35 29.0 Q2.1 30.0 3.0 30.7 L3.45 30.7 3.65 30.6 5.7 33.3 6.95 34.2 11.85 35.8 11.85 35.95 4.05 34.65 3.75 34.55 3.35 34.25 Q5.55 33.4 3.45 31.45 L3.4 31.45 2.65 31.3 Q1.35 31.6 1.2 32.65 L-7.9 25.9 -7.9 25.75 -7.85 25.45 Q-7.85 24.95 -8.2 24.65 L-8.25 24.5 -13.7 2.15 -5.9 -15.2 Q-5.15 -15.7 -5.35 -16.4 M-25.9 -43.6 L-26.05 -43.7 -26.25 -43.7 -26.55 -43.6 -26.3 -43.1 -25.75 -43.3 -25.9 -43.6 M-35.8 -42.4 L-36.1 -42.45 Q-36.85 -42.45 -36.95 -41.75 -37.05 -41.15 -36.4 -40.8 L-36.05 -40.75 -35.75 -40.85 -35.3 -41.2 -35.25 -41.45 Q-35.3 -42.05 -35.8 -42.4 M-7.65 17.9 Q-8.4 17.9 -8.5 18.55 -8.6 19.2 -7.95 19.55 L-7.6 19.6 -7.25 19.45 -6.85 19.15 -6.8 18.9 Q-6.8 18.25 -7.35 17.95 L-7.65 17.9 M-5.05 22.7 L-5.85 22.55 Q-7.65 23.0 -7.2 24.7 -6.95 26.0 -5.7 25.65 -3.35 25.0 -4.3 23.5 L-5.05 22.65 -5.05 22.7 M-4.2 23.4 L-3.65 23.1 -3.8 22.75 -3.95 22.75 -4.2 22.7 -4.5 22.8 -4.2 23.4 M-37.2 24.5 L-37.2 24.55 -37.45 24.6 -37.8 24.85 Q-37.3 26.0 -36.2 25.8 L-36.1 25.6 Q-36.45 24.85 -37.2 24.5 M-35.95 27.95 L-36.15 27.95 -36.4 28.05 -36.2 28.6 -35.6 28.35 -35.75 28.0 -35.95 27.95 M-1.8 27.1 Q-1.8 26.45 -2.25 26.1 L-2.65 26.05 Q-3.35 26.1 -3.5 26.75 -3.6 27.4 -2.9 27.75 L-2.55 27.75 -2.3 27.65 -1.8 27.3 -1.8 27.1 M-11.35 43.4 Q-11.45 42.35 -12.5 42.2 L-13.1 42.25 Q-13.65 42.35 -13.65 42.85 -13.5 44.05 -12.1 44.1 L-11.55 43.8 -11.35 43.65 -11.35 43.4 M-48.6 5.95 L-49.2 6.0 Q-49.75 6.1 -49.8 6.6 -49.6 7.8 -48.2 7.85 L-47.65 7.55 -47.5 7.35 -47.45 7.1 Q-47.55 6.1 -48.6 5.95 M-47.9 8.95 L-47.95 9.0 -48.7 8.85 Q-50.5 9.25 -50.1 11.05 -49.75 12.25 -48.55 11.95 -45.55 11.1 -47.9 8.95 M-45.75 10.55 L-45.9 10.55 -46.45 10.65 -46.4 10.9 -45.95 11.95 -45.2 11.85 -45.25 11.6 -45.75 10.55 M-45.3 17.9 L-44.95 17.95 -44.65 17.85 -44.2 17.5 -44.15 17.25 Q-44.2 16.6 -44.7 16.25 L-45.0 16.25 Q-45.7 16.25 -45.85 16.95 -45.95 17.55 -45.3 17.9 M-41.2 20.0 L-41.4 19.95 -41.6 19.9 -41.85 20.05 -41.65 20.6 -41.05 20.35 -41.2 20.0" fill="#b08500" fill-rule="evenodd" stroke="none"/>
    <path d="M-43.15 -33.85 L-43.15 -34.0 -43.15 -34.1 Q-43.05 -34.8 -42.4 -34.85 L-42.35 -34.85 -42.0 -34.8 -41.55 -34.25 -41.5 -33.85 -41.55 -33.6 -42.0 -33.25 -42.25 -33.15 -42.4 -33.15 -42.6 -33.2 -43.05 -33.55 -43.15 -33.85 M-19.3 -43.9 L-18.9 -44.0 -18.55 -43.95 -18.05 -43.3 -18.05 -43.05 -18.1 -42.8 -18.55 -42.45 -18.8 -42.3 -19.1 -42.4 Q-19.75 -42.7 -19.7 -43.35 L-19.3 -43.9 M-41.15 -17.65 L-41.15 -17.7 -41.1 -17.65 -41.15 -17.65 M-49.85 -14.8 L-50.45 -14.55 -50.65 -15.1 -50.4 -15.2 -50.2 -15.2 -50.0 -15.15 -49.85 -14.8 M-49.6 -5.65 L-49.4 -5.65 -49.2 -5.55 -49.05 -5.25 -49.65 -5.0 -49.85 -5.55 -49.6 -5.65 M-40.75 -4.3 L-40.5 -4.4 -40.25 -4.35 -40.1 -4.3 -39.9 -4.0 -40.5 -3.7 -40.75 -4.3 M-20.4 -40.2 L-20.3 -40.25 -20.15 -40.3 -19.9 -40.3 -19.8 -40.25 -19.75 -40.1 -19.65 -39.9 -19.8 -39.8 -20.15 -39.65 -20.35 -39.95 -20.35 -40.0 -20.4 -40.15 -20.4 -40.2 M-18.0 -36.3 L-17.65 -36.65 -17.1 -36.95 -16.9 -36.95 -16.45 -36.9 -16.4 -36.9 Q-15.6 -36.5 -15.65 -35.65 L-15.7 -35.3 -15.75 -35.05 -18.2 -35.45 -18.25 -35.6 -18.0 -36.3 M-16.7 -27.45 L-16.6 -27.5 -16.35 -27.45 -16.2 -27.4 -16.05 -27.05 -16.1 -27.05 -16.6 -26.75 -16.85 -27.35 -16.75 -27.4 -16.1 -27.05 -16.7 -27.45 M-15.0 -38.5 L-15.0 -38.45 -15.55 -38.25 -15.75 -38.7 -15.8 -38.8 -15.75 -38.8 -15.55 -38.9 -15.3 -38.9 -15.15 -38.85 -15.05 -38.6 -15.0 -38.5 M-15.3 -32.05 Q-14.35 -31.55 -14.6 -30.45 L-14.65 -30.2 Q-16.15 -28.8 -17.1 -30.75 -17.1 -31.45 -16.55 -31.8 L-15.95 -32.1 -15.8 -32.1 -15.3 -32.0 -15.3 -32.05 M-7.55 -28.15 L-7.2 -28.1 Q-6.7 -27.8 -6.7 -27.2 L-6.75 -26.95 -7.2 -26.6 -7.45 -26.45 -7.8 -26.5 Q-8.45 -26.85 -8.35 -27.45 -8.25 -28.2 -7.55 -28.15 M-25.9 -43.6 L-25.75 -43.3 -26.3 -43.1 -26.55 -43.6 -26.25 -43.7 -26.05 -43.7 -25.9 -43.6 M-38.65 -37.05 L-38.65 -37.2 Q-38.55 -37.95 -37.8 -37.9 L-37.5 -37.9 -37.2 -37.6 -36.95 -36.95 -37.0 -36.65 -37.45 -36.3 -37.75 -36.25 -38.1 -36.3 Q-38.7 -36.6 -38.65 -37.05 M-32.95 -30.7 L-33.5 -30.65 -33.65 -31.55 -33.65 -31.8 -33.1 -31.95 -33.05 -31.95 -32.95 -31.9 -32.7 -31.0 -32.75 -30.75 -32.95 -30.7 M-28.4 -25.75 L-28.45 -25.75 -28.45 -25.8 -28.4 -25.75 M-36.1 -29.8 L-36.15 -29.8 -36.25 -30.0 -36.3 -30.1 -36.4 -30.35 -36.1 -30.45 -35.9 -30.45 -35.7 -30.4 -35.6 -30.05 -36.1 -29.8 M-26.2 -31.75 Q-25.7 -31.4 -25.65 -30.75 L-25.65 -30.55 -26.1 -30.2 -26.45 -30.1 -26.8 -30.15 Q-27.45 -30.45 -27.35 -31.1 -27.25 -31.75 -26.5 -31.7 L-26.2 -31.75 M-23.7 -21.75 L-23.75 -21.85 -23.45 -21.95 -23.2 -21.9 -23.1 -21.9 -22.95 -21.55 -23.0 -21.55 -23.45 -21.25 -23.7 -21.75 M-17.0 -19.5 L-16.75 -19.55 -16.4 -19.5 -16.05 -19.2 -15.85 -18.55 -15.95 -18.3 -16.35 -18.0 -16.65 -17.9 -17.0 -17.9 Q-17.65 -18.2 -17.55 -18.85 -17.5 -19.45 -17.0 -19.5 M-30.8 -23.55 L-30.75 -23.4 -31.25 -23.1 -31.4 -23.4 -31.55 -23.7 -31.25 -23.85 -31.0 -23.8 -30.85 -23.7 -30.8 -23.6 -30.8 -23.55 M-33.25 -22.75 L-33.25 -22.8 -33.25 -22.75 M-34.95 -8.25 L-34.75 -8.2 -34.55 -8.15 -34.4 -7.8 -34.75 -7.65 -35.0 -7.55 -35.2 -8.1 -34.95 -8.25 M-30.05 -16.65 L-30.4 -16.7 Q-31.05 -17.0 -30.95 -17.65 -30.85 -18.4 -30.15 -18.35 L-29.8 -18.35 Q-29.3 -18.0 -29.3 -17.4 L-29.3 -17.15 -29.75 -16.8 -30.05 -16.65 M-37.15 -13.3 L-37.75 -13.05 -37.95 -13.55 -37.7 -13.7 -37.45 -13.7 -37.3 -13.6 -37.15 -13.3 M-4.2 23.4 L-4.5 22.8 -4.2 22.7 -3.95 22.75 -3.8 22.75 -3.65 23.1 -4.2 23.4 M-34.95 14.65 L-35.15 14.1 -34.9 13.95 -34.7 14.0 -34.5 14.05 -34.35 14.4 -34.95 14.65 M-34.1 18.3 L-33.95 18.35 -33.8 18.65 -34.35 18.95 -34.6 18.35 -34.35 18.25 -34.1 18.3 M-32.4 18.15 L-32.25 18.55 -32.8 18.8 -33.05 18.25 -32.8 18.15 -32.55 18.15 -32.4 18.15 M-36.2 15.2 Q-35.75 15.5 -35.7 16.1 L-35.75 16.35 -36.2 16.75 -36.5 16.85 -36.8 16.8 Q-37.5 16.45 -37.4 15.85 -37.25 15.15 -36.55 15.15 L-36.2 15.2 M-40.05 13.85 L-39.85 13.9 -39.65 14.0 -39.5 14.3 -40.1 14.55 -40.3 14.0 -40.05 13.85 M-37.2 24.5 Q-36.45 24.85 -36.1 25.6 L-36.2 25.8 Q-37.3 26.0 -37.8 24.85 L-37.45 24.6 -37.2 24.55 -37.2 24.5 M-32.25 24.4 L-32.8 24.7 -33.1 24.1 -32.8 24.0 -32.6 24.05 -32.45 24.1 -32.25 24.4 M-25.8 30.5 Q-25.3 30.85 -25.3 31.45 L-25.35 31.7 -25.8 32.05 -26.05 32.2 -26.4 32.1 Q-27.05 31.8 -26.95 31.2 -26.85 30.45 -26.15 30.5 L-25.8 30.5 M-35.95 27.95 L-35.75 28.0 -35.6 28.35 -36.2 28.6 -36.4 28.05 -36.15 27.95 -35.95 27.95 M-46.7 4.75 L-46.85 4.55 -46.95 4.0 Q-46.8 3.3 -46.1 3.3 L-45.75 3.3 -45.3 4.0 -45.55 3.75 -45.9 3.75 Q-46.6 3.75 -46.7 4.4 L-46.7 4.75 M-45.75 10.55 L-45.25 11.6 -45.2 11.85 -45.95 11.95 -46.4 10.9 -46.45 10.65 -45.9 10.55 -45.75 10.55 M-41.2 20.0 L-41.05 20.35 -41.65 20.6 -41.85 20.05 -41.6 19.9 -41.4 19.95 -41.2 20.0 M6.9 43.1 L7.05 43.45 6.55 43.7 6.25 43.15 6.55 43.0 6.8 43.05 6.9 43.1 M10.1 41.45 L10.35 41.45 10.5 41.55 10.65 41.85 10.05 42.1 9.9 41.55 Q9.95 41.4 10.1 41.45 M4.55 40.55 L4.75 40.5 4.95 40.6 5.05 40.95 4.5 41.15 4.25 40.65 4.55 40.55" fill="#ffebae" fill-rule="evenodd" stroke="none"/>
    <path d="M-39.8 -36.65 L-38.6 -38.3 -32.8 -40.45 Q-32.1 -40.15 -31.25 -40.95 L-31.25 -41.0 -31.1 -41.05 -20.65 -44.85 -20.55 -44.6 -19.3 -43.9 -19.7 -43.35 Q-19.75 -42.7 -19.1 -42.4 L-18.8 -42.3 -18.55 -42.45 -18.1 -42.8 -18.05 -43.05 -17.95 -43.25 -5.45 -36.75 -5.8 -36.2 Q-5.85 -35.6 -5.25 -35.25 L-4.9 -35.2 -4.55 -35.3 -4.1 -35.65 -4.05 -35.95 -4.1 -36.05 -3.85 -35.95 -3.0 -37.55 -1.95 -33.35 -2.25 -33.25 -2.9 -33.05 Q-3.7 -31.6 -2.6 -30.55 L-2.2 -30.55 -1.65 -30.8 -1.5 -31.0 -1.3 -31.05 -1.25 -30.75 -0.15 -26.55 -0.15 -26.45 -0.75 -26.7 -3.35 -20.85 -3.85 -21.4 -4.2 -21.4 Q-4.9 -21.45 -4.95 -20.75 -5.05 -20.1 -4.4 -19.8 L-4.05 -19.75 Q-3.95 -19.8 -3.8 -19.9 L-3.8 -19.85 -5.35 -16.4 Q-5.5 -17.0 -6.3 -17.75 L-6.35 -17.7 -7.15 -17.9 Q-8.25 -17.65 -8.5 -16.8 L-9.05 -16.65 -24.4 -23.5 -21.7 -22.35 -15.2 -19.6 -21.95 -22.65 -29.05 -32.85 Q-28.85 -33.15 -29.0 -33.65 L-28.95 -33.9 -28.85 -34.2 -28.95 -34.4 -16.75 -27.4 -16.85 -27.35 -16.6 -26.75 -16.1 -27.05 -16.05 -27.05 -16.2 -27.4 -16.35 -27.45 -16.6 -27.5 -16.7 -27.45 Q-27.95 -35.1 -26.7 -36.4 L-26.6 -36.65 -18.2 -35.45 -15.75 -35.05 -15.7 -35.3 -15.65 -35.65 Q-15.6 -36.5 -16.4 -36.9 L-16.45 -36.9 -16.9 -36.95 -17.1 -36.95 -17.65 -36.65 -18.0 -36.3 Q-25.85 -38.65 -26.55 -39.5 L-26.45 -39.6 -22.7 -39.25 -20.5 -39.15 -20.45 -39.15 -20.4 -39.45 -20.35 -39.95 -20.35 -40.0 -20.35 -39.95 -20.15 -39.65 -19.8 -39.8 -19.65 -39.9 -19.75 -40.1 -19.8 -40.25 -19.9 -40.3 -20.15 -40.3 -20.3 -40.25 -20.4 -40.2 -20.45 -40.3 -21.15 -41.05 -21.15 -41.0 -21.6 -41.1 -21.8 -41.05 -22.2 -40.85 -25.6 -41.95 -26.0 -42.0 -26.05 -42.0 -26.2 -42.05 -26.75 -41.75 -37.2 -37.6 -37.5 -37.9 -37.8 -37.9 Q-38.55 -37.95 -38.65 -37.2 L-38.65 -37.05 -39.8 -36.65 M12.0 44.3 L3.95 44.6 3.9 44.25 3.95 44.05 Q3.95 43.4 3.45 43.05 L3.1 43.05 Q2.4 43.05 2.3 43.75 2.2 44.3 2.7 44.6 L-5.75 44.95 -23.3 37.15 -23.2 36.9 -23.2 36.7 Q-23.2 36.05 -23.7 35.7 L-24.05 35.7 Q-24.8 35.7 -24.85 36.4 L-24.9 36.4 -27.65 35.2 -30.7 31.35 Q-30.5 30.6 -31.7 29.5 L-31.75 29.55 -32.2 29.5 -34.6 26.45 -34.5 26.35 -34.15 26.25 -33.7 25.9 -33.7 25.65 Q-33.75 25.05 -34.2 24.7 L-34.55 24.7 Q-35.25 24.65 -35.4 25.35 L-35.45 25.4 -38.5 21.55 -38.45 21.55 -38.4 21.3 Q-38.4 20.65 -38.9 20.35 L-39.25 20.3 -39.45 20.35 -41.85 17.35 -43.9 -5.15 -43.2 -5.7 -43.1 -5.95 Q-42.95 -6.9 -43.7 -7.35 L-43.7 -7.4 -43.65 -7.45 -43.0 -14.95 Q-42.6 -14.45 -41.75 -14.7 -40.15 -15.15 -40.1 -15.95 L-37.5 -10.2 -38.0 -10.35 -38.65 -10.35 Q-39.15 -10.2 -39.15 -9.7 -39.0 -8.5 -37.6 -8.45 L-37.05 -8.75 -36.9 -8.9 -34.9 -4.45 -35.2 -3.65 Q-34.7 -2.7 -34.05 -2.55 L-29.55 7.5 -33.1 -2.8 -32.65 -3.15 -32.6 -3.45 Q-32.4 -4.5 -33.35 -5.0 L-33.4 -5.0 -33.85 -5.0 -34.75 -7.65 -34.4 -7.8 -34.55 -8.15 -34.75 -8.2 -34.95 -8.25 -39.25 -20.8 Q-38.8 -20.6 -38.35 -20.8 L-21.45 5.0 -34.3 -19.75 -33.85 -19.85 Q-30.9 -20.7 -33.25 -22.8 L-33.25 -22.75 -33.4 -22.8 -31.4 -23.4 -31.25 -23.1 -30.75 -23.4 -30.8 -23.55 -29.05 -22.6 -29.05 -22.8 Q-28.1 -23.1 -23.7 -21.75 L-23.45 -21.25 -23.0 -21.55 -17.0 -19.5 Q-17.5 -19.45 -17.55 -18.85 -17.65 -18.2 -17.0 -17.9 L-16.65 -17.9 -16.35 -18.0 -15.95 -18.3 -15.85 -18.55 -16.05 -19.2 -9.1 -16.65 -9.35 -16.15 Q-9.45 -15.5 -8.8 -15.15 L-8.45 -15.15 -8.3 -15.15 Q-7.9 -14.5 -6.9 -14.75 L-5.9 -15.2 -13.7 2.15 -8.25 24.5 -8.35 24.55 -8.7 24.5 Q-9.4 24.5 -9.5 25.2 -9.65 25.85 -9.0 26.15 L-8.6 26.2 -8.35 26.1 -7.95 25.8 -7.9 25.9 1.2 32.65 1.3 33.5 Q1.6 34.75 2.8 34.4 L3.35 34.25 3.75 34.55 4.05 34.65 11.85 35.95 11.9 35.9 12.5 37.25 13.1 38.55 13.7 40.0 13.05 38.55 13.1 38.55 13.05 38.55 13.7 40.0 14.7 42.15 15.15 43.25 15.05 43.3 14.15 42.15 13.35 42.05 13.1 42.1 12.8 41.8 12.45 41.8 Q11.75 41.8 11.65 42.5 11.55 43.0 11.95 43.3 L12.0 44.2 12.0 44.3 M-41.95 17.25 L-44.0 14.7 -47.1 4.65 -46.85 4.55 -46.7 4.75 -46.15 5.35 -45.8 5.4 -45.5 5.25 -45.1 4.95 -45.05 4.7 Q-45.05 4.25 -45.3 4.0 L-45.75 3.3 -46.1 3.3 Q-46.8 3.3 -46.95 4.0 L-47.3 4.1 -48.0 1.75 -47.75 1.65 -48.55 -22.35 -47.45 -22.75 -47.4 -22.65 -47.2 -22.2 -47.35 -22.15 -46.65 -14.15 -46.9 -14.1 -47.25 -14.15 Q-48.0 -14.15 -48.1 -13.45 -48.2 -12.85 -47.55 -12.55 L-47.2 -12.45 -46.9 -12.55 -46.5 -12.8 -45.95 -6.15 -41.95 17.25 M-48.6 -22.8 L-48.65 -24.0 -47.45 -23.4 -48.6 -22.8 M-45.85 -30.45 L-44.2 -35.1 -43.15 -33.85 -43.05 -33.55 -45.85 -30.45 M-41.15 -17.65 L-41.9 -17.75 -42.75 -17.45 -42.45 -20.8 -42.4 -20.85 -42.45 -20.9 -42.55 -21.1 -42.4 -21.15 -40.6 -17.15 -41.1 -17.65 -41.15 -17.7 -41.15 -17.65 M-40.75 -4.3 L-40.5 -3.7 -39.9 -4.0 -40.1 -4.3 -40.25 -4.35 -40.5 -4.4 -40.75 -4.3 M-15.05 -38.6 L-15.15 -38.85 -15.3 -38.9 -15.55 -38.9 -15.75 -38.8 -15.8 -38.8 -15.75 -38.7 -15.55 -38.25 -15.0 -38.45 -15.0 -38.5 -11.6 -37.5 -15.05 -38.6 M-15.3 -32.05 L-15.3 -32.0 -15.8 -32.1 -15.95 -32.1 -16.55 -31.8 Q-17.1 -31.45 -17.1 -30.75 -16.15 -28.8 -14.65 -30.2 L-14.6 -30.45 Q-14.35 -31.55 -15.3 -32.05 M-7.55 -28.15 Q-8.25 -28.2 -8.35 -27.45 -8.45 -26.85 -7.8 -26.5 L-7.45 -26.45 -7.2 -26.6 -6.75 -26.95 -6.7 -27.2 Q-6.7 -27.8 -7.2 -28.1 L-7.55 -28.15 M-2.55 -28.7 L-2.9 -28.75 Q-3.6 -28.7 -3.7 -28.05 -3.8 -27.4 -3.15 -27.05 L-2.8 -27.05 -2.55 -27.15 -2.05 -27.55 -2.0 -27.7 Q-2.05 -28.35 -2.55 -28.7 M-22.8 -40.35 L-24.8 -40.6 -22.7 -40.5 -22.8 -40.35 M-33.05 -31.95 Q-33.2 -33.8 -32.85 -34.0 L-30.3 -31.4 -30.45 -31.25 Q-31.0 -30.9 -31.0 -30.2 -30.05 -28.25 -28.5 -29.65 L-28.45 -29.9 -28.4 -30.3 -22.0 -22.7 Q-28.15 -25.5 -28.4 -25.75 L-28.45 -25.8 -28.45 -25.75 -29.2 -25.9 -29.35 -25.85 -32.35 -27.5 Q-32.1 -28.05 -32.7 -28.85 L-32.95 -30.7 -32.75 -30.75 -32.7 -31.0 -32.95 -31.9 -33.05 -31.95 M-36.1 -29.8 L-35.75 -29.3 -38.0 -30.6 -37.65 -30.95 -37.55 -31.2 Q-37.5 -31.7 -36.25 -30.0 L-36.15 -29.8 -36.1 -29.8 M-22.55 -35.1 L-23.15 -34.8 Q-23.75 -34.4 -23.8 -33.7 -22.75 -31.75 -21.25 -33.2 L-21.2 -33.45 Q-21.0 -34.5 -21.95 -35.0 L-22.0 -35.0 -22.4 -35.1 -22.55 -35.1 M-26.2 -31.75 L-26.5 -31.7 Q-27.25 -31.75 -27.35 -31.1 -27.45 -30.45 -26.8 -30.15 L-26.45 -30.1 -26.1 -30.2 -25.65 -30.55 -25.65 -30.75 Q-25.7 -31.4 -26.2 -31.75 M-22.9 -28.7 L-23.3 -28.75 -23.5 -28.75 -24.1 -28.5 Q-24.65 -28.1 -24.7 -27.4 -23.7 -25.45 -22.2 -26.9 L-22.1 -27.15 Q-21.9 -28.25 -22.9 -28.75 L-22.9 -28.7 M-30.05 -16.65 L-29.75 -16.8 -29.3 -17.15 -29.3 -17.4 Q-29.3 -18.0 -29.8 -18.35 L-30.15 -18.35 Q-30.85 -18.4 -30.95 -17.65 -31.05 -17.0 -30.4 -16.7 L-30.05 -16.65 M-12.3 14.55 L-12.65 14.5 Q-13.35 14.5 -13.5 15.2 -13.55 15.8 -12.9 16.2 L-12.55 16.2 -12.3 16.1 -11.85 15.7 -11.8 15.45 Q-11.85 14.85 -12.3 14.55 M-14.5 8.2 L-14.05 7.9 -14.0 7.65 Q-14.0 7.0 -14.5 6.7 L-14.85 6.7 Q-15.6 6.65 -15.65 7.3 -15.75 7.95 -15.1 8.3 L-14.75 8.35 -14.5 8.2 M-39.2 6.45 L-39.2 6.5 -39.65 6.45 -39.85 6.45 Q-40.15 6.5 -40.4 6.7 -41.0 7.1 -41.0 7.8 -40.05 9.75 -38.5 8.35 L-38.45 8.05 Q-38.25 6.95 -39.2 6.45 M-40.05 13.85 L-40.3 14.0 -40.1 14.55 -39.5 14.3 -39.65 14.0 -39.85 13.9 -40.05 13.85 M-36.2 15.2 L-36.55 15.15 Q-37.25 15.15 -37.4 15.85 -37.5 16.45 -36.8 16.8 L-36.5 16.85 -36.2 16.75 -35.75 16.35 -35.7 16.1 Q-35.75 15.5 -36.2 15.2 M-32.4 18.15 L-32.55 18.15 -32.8 18.15 -33.05 18.25 -32.8 18.8 -32.25 18.55 -32.4 18.15 M-34.1 18.3 L-34.35 18.25 -34.6 18.35 -34.35 18.95 -33.8 18.65 -33.95 18.35 -34.1 18.3 M-34.95 14.65 L-34.35 14.4 -34.5 14.05 -34.7 14.0 -34.9 13.95 -35.15 14.1 -34.95 14.65 M-30.75 19.25 Q-31.35 19.65 -31.35 20.35 -30.4 22.3 -28.85 20.85 L-28.8 20.6 Q-28.6 19.5 -29.55 19.0 L-29.55 19.05 -30.0 19.0 -30.15 18.95 -30.75 19.25 M-25.8 30.5 L-26.15 30.5 Q-26.85 30.45 -26.95 31.2 -27.05 31.8 -26.4 32.1 L-26.05 32.2 -25.8 32.05 -25.35 31.7 -25.3 31.45 Q-25.3 30.85 -25.8 30.5 M-32.25 24.4 L-32.45 24.1 -32.6 24.05 -32.8 24.0 -33.1 24.1 -32.8 24.7 -32.25 24.4 M1.15 34.7 L1.1 34.8 1.3 34.8 1.15 34.7 M8.1 39.65 L7.7 39.6 Q7.0 39.65 6.9 40.3 6.8 40.95 7.45 41.3 L7.8 41.3 8.1 41.2 8.55 40.85 8.6 40.6 Q8.55 40.0 8.1 39.65 M5.95 35.6 Q5.25 35.6 5.15 36.35 5.05 36.95 5.65 37.3 L6.05 37.3 6.3 37.2 6.75 36.85 6.8 36.6 Q6.8 36.0 6.3 35.65 L5.95 35.6 M4.55 40.55 L4.25 40.65 4.5 41.15 5.05 40.95 4.95 40.6 4.75 40.5 4.55 40.55 M10.1 41.45 Q9.95 41.4 9.9 41.55 L10.05 42.1 10.65 41.85 10.5 41.55 10.35 41.45 10.1 41.45 M6.9 43.1 L6.8 43.05 6.55 43.0 6.25 43.15 6.55 43.7 7.05 43.45 6.9 43.1 M11.75 40.3 Q11.6 40.95 12.25 41.25 L12.65 41.3 12.9 41.15 13.35 40.85 13.4 40.6 Q13.4 39.95 12.9 39.65 L12.5 39.65 Q11.8 39.65 11.75 40.3 M12.05 38.6 Q12.0 38.0 11.5 37.65 L11.3 37.65 10.85 37.15 10.8 37.2 10.05 37.1 Q8.3 37.55 8.7 39.25 9.0 40.55 10.2 40.2 11.75 39.75 11.85 38.95 L12.0 38.85 12.05 38.6 M12.5 37.25 L13.05 38.55 12.5 37.25" fill="#ffc820" fill-rule="evenodd" stroke="none"/>
    <path d="M-41.55 -34.25 L-39.8 -36.65 -38.65 -37.05 Q-38.7 -36.6 -38.1 -36.3 L-37.75 -36.25 -37.45 -36.3 -37.0 -36.65 -36.95 -36.95 -37.2 -37.6 -26.75 -41.75 -26.2 -42.05 -26.05 -42.0 -26.0 -42.0 -25.6 -41.95 -22.2 -40.85 -21.8 -41.05 -21.6 -41.1 -21.15 -41.0 -21.15 -41.05 -20.45 -40.3 -20.4 -40.2 -20.4 -40.15 -20.35 -40.0 -20.35 -39.95 -20.4 -39.45 -20.45 -39.15 -20.5 -39.15 -22.7 -39.25 -26.45 -39.6 -26.55 -39.5 Q-25.85 -38.65 -18.0 -36.3 L-18.25 -35.6 -18.2 -35.45 -26.6 -36.65 -26.7 -36.4 Q-27.95 -35.1 -16.7 -27.45 L-16.1 -27.05 -16.75 -27.4 -28.95 -34.4 -28.85 -34.2 -28.95 -33.9 -29.0 -33.65 Q-28.85 -33.15 -29.05 -32.85 L-21.95 -22.65 -15.2 -19.6 -21.7 -22.35 -24.4 -23.5 -9.05 -16.65 -8.8 -16.55 -9.1 -16.65 -16.05 -19.2 -16.4 -19.5 -16.75 -19.55 -17.0 -19.5 -23.0 -21.55 -22.95 -21.55 -23.1 -21.9 -23.2 -21.9 -23.45 -21.95 -23.75 -21.85 -23.7 -21.75 Q-28.1 -23.1 -29.05 -22.8 L-29.05 -22.6 -30.8 -23.55 -30.8 -23.6 -30.85 -23.7 -31.0 -23.8 -31.25 -23.85 -31.55 -23.7 -31.4 -23.4 -33.4 -22.8 -33.25 -22.75 -33.25 -22.8 Q-30.9 -20.7 -33.85 -19.85 L-34.3 -19.75 -21.45 5.0 -38.35 -20.8 Q-38.8 -20.6 -39.25 -20.8 L-34.95 -8.25 -35.2 -8.1 -35.0 -7.55 -34.75 -7.65 -33.85 -5.0 -33.4 -5.0 -33.35 -5.0 Q-32.4 -4.5 -32.6 -3.45 L-32.65 -3.15 -33.1 -2.8 -29.55 7.5 -34.05 -2.55 Q-34.7 -2.7 -35.2 -3.65 L-34.9 -4.45 -36.9 -8.9 -37.05 -8.75 -37.6 -8.45 Q-39.0 -8.5 -39.15 -9.7 -39.15 -10.2 -38.65 -10.35 L-38.0 -10.35 -37.5 -10.2 -40.1 -15.95 Q-40.15 -15.15 -41.75 -14.7 -42.6 -14.45 -43.0 -14.95 L-43.65 -7.45 -43.85 -7.5 -43.7 -7.4 -43.7 -7.35 Q-42.95 -6.9 -43.1 -5.95 L-43.2 -5.7 -43.9 -5.15 -41.85 17.35 -41.8 18.05 -41.95 17.25 -45.95 -6.15 -46.5 -12.8 -46.9 -12.55 -47.2 -12.45 -47.55 -12.55 Q-48.2 -12.85 -48.1 -13.45 -48.0 -14.15 -47.25 -14.15 L-46.9 -14.1 -46.6 -13.85 -46.65 -14.15 -47.35 -22.15 -47.15 -22.15 -47.2 -22.2 -47.4 -22.65 -47.45 -22.75 -48.55 -22.35 -50.55 -21.7 -48.6 -22.8 -47.45 -23.4 -48.65 -24.0 -48.65 -24.7 -45.85 -30.45 -43.05 -33.55 -42.6 -33.2 -42.4 -33.15 -42.25 -33.15 -42.0 -33.25 -41.55 -33.6 -41.5 -33.85 -41.55 -34.25 M-32.8 -40.45 Q-33.35 -40.65 -33.75 -41.5 -33.7 -42.15 -33.15 -42.5 L-32.55 -42.85 -32.35 -42.85 -32.0 -42.8 -31.95 -42.8 Q-30.95 -42.3 -31.2 -41.2 L-31.25 -41.0 -31.25 -40.95 Q-32.1 -40.15 -32.8 -40.45 M-42.55 -21.1 L-42.45 -20.9 -42.4 -20.85 -42.45 -20.8 -42.75 -17.45 -41.9 -17.75 -41.15 -17.65 -41.1 -17.65 -40.6 -17.15 -42.4 -21.15 -42.6 -21.2 -42.55 -21.1 M-15.05 -38.6 L-11.6 -37.5 -15.0 -38.5 -15.05 -38.6 M-22.8 -40.35 L-22.7 -40.5 -24.8 -40.6 -22.8 -40.35 M-35.8 -42.4 Q-35.3 -42.05 -35.25 -41.45 L-35.3 -41.2 -35.75 -40.85 -36.05 -40.75 -36.4 -40.8 Q-37.05 -41.15 -36.95 -41.75 -36.85 -42.45 -36.1 -42.45 L-35.8 -42.4 M-33.05 -31.95 L-33.1 -31.95 -33.65 -31.8 -33.65 -31.55 -33.5 -30.65 -32.95 -30.7 -32.7 -28.85 Q-32.1 -28.05 -32.35 -27.5 L-29.35 -25.85 -29.2 -25.9 -28.45 -25.75 -28.4 -25.75 Q-28.15 -25.5 -22.0 -22.7 L-28.4 -30.3 -28.45 -29.9 -28.5 -29.65 Q-30.05 -28.25 -31.0 -30.2 -31.0 -30.9 -30.45 -31.25 L-30.25 -31.35 -30.3 -31.4 -32.85 -34.0 Q-33.2 -33.8 -33.05 -31.95 M-36.25 -30.0 Q-37.5 -31.7 -37.55 -31.2 L-37.65 -30.95 -38.0 -30.6 -35.75 -29.3 -36.1 -29.8 -35.6 -30.05 -35.7 -30.4 -35.9 -30.45 -36.1 -30.45 -36.4 -30.35 -36.3 -30.1 -36.25 -30.0 M-22.55 -35.1 L-22.4 -35.1 -22.0 -35.0 -21.95 -35.0 Q-21.0 -34.5 -21.2 -33.45 L-21.25 -33.2 Q-22.75 -31.75 -23.8 -33.7 -23.75 -34.4 -23.15 -34.8 L-22.55 -35.1 M-29.2 -31.5 L-29.45 -31.55 -29.45 -31.5 -29.4 -31.5 -29.2 -31.5 M-22.9 -28.7 L-22.9 -28.75 Q-21.9 -28.25 -22.1 -27.15 L-22.2 -26.9 Q-23.7 -25.45 -24.7 -27.4 -24.65 -28.1 -24.1 -28.5 L-23.5 -28.75 -23.3 -28.75 -22.9 -28.7 M-37.15 -13.3 L-37.3 -13.6 -37.45 -13.7 -37.7 -13.7 -37.95 -13.55 -37.75 -13.05 -37.15 -13.3 M-39.2 6.45 Q-38.25 6.95 -38.45 8.05 L-38.5 8.35 Q-40.05 9.75 -41.0 7.8 -41.0 7.1 -40.4 6.7 -40.15 6.5 -39.85 6.45 L-39.65 6.45 -39.2 6.5 -39.2 6.45 M-30.75 19.25 L-30.15 18.95 -30.0 19.0 -29.55 19.05 -29.55 19.0 Q-28.6 19.5 -28.8 20.6 L-28.85 20.85 Q-30.4 22.3 -31.35 20.35 -31.35 19.65 -30.75 19.25" fill="#ffffff" fill-rule="evenodd" stroke="none"/>
    <path d="M-5.45 -36.75 L-4.95 -36.9 -4.6 -36.85 Q-4.2 -36.55 -4.1 -36.05 L-4.05 -35.95 -4.1 -35.65 -4.55 -35.3 -4.9 -35.2 -5.25 -35.25 Q-5.85 -35.6 -5.8 -36.2 L-5.45 -36.75 M-12.1 -43.9 L-12.55 -43.55 -12.8 -43.4 -13.2 -43.45 Q-13.8 -43.8 -13.75 -44.4 L-13.5 -44.9 -12.95 -45.1 -12.55 -45.05 Q-12.05 -44.75 -12.05 -44.15 L-12.1 -43.9 M-21.7 41.45 L-21.75 40.85 Q-21.65 40.2 -20.95 40.2 L-20.6 40.2 Q-20.1 40.55 -20.05 41.2 L-20.1 41.45 -20.55 41.75 -20.65 41.85 -20.85 41.9 -21.2 41.8 -21.7 41.45 M12.4 44.95 Q12.15 44.7 12.05 44.3 L12.0 44.2 11.95 43.3 Q11.55 43.0 11.65 42.5 11.75 41.8 12.45 41.8 L12.8 41.8 13.1 42.1 13.35 42.05 14.15 42.15 15.05 43.3 Q15.3 43.75 15.15 44.2 L14.75 44.6 13.5 45.15 Q12.8 45.35 12.4 44.95 M3.5 44.6 L3.45 44.65 3.2 44.75 2.85 44.7 2.7 44.6 Q2.2 44.3 2.3 43.75 2.4 43.05 3.1 43.05 L3.45 43.05 Q3.95 43.4 3.95 44.05 L3.9 44.25 3.5 44.6 M-23.4 37.1 L-23.65 37.25 -23.95 37.35 -24.35 37.3 Q-24.95 37.0 -24.9 36.4 L-24.85 36.4 Q-24.8 35.7 -24.05 35.7 L-23.7 35.7 Q-23.2 36.05 -23.2 36.7 L-23.2 36.9 -23.4 37.1 M-30.7 31.35 Q-30.85 32.1 -32.3 32.55 -33.6 32.85 -33.85 31.55 -34.25 29.85 -32.5 29.4 L-32.2 29.5 -31.75 29.55 -31.7 29.5 Q-30.5 30.6 -30.7 31.35 M-34.7 26.35 L-34.85 26.35 Q-35.4 26.0 -35.4 25.45 L-35.4 25.35 Q-35.25 24.65 -34.55 24.7 L-34.2 24.7 Q-33.75 25.05 -33.7 25.65 L-33.7 25.9 -34.15 26.25 -34.5 26.35 -34.7 26.35 M-38.5 21.55 L-38.9 21.85 -39.15 21.95 -39.5 21.95 Q-40.15 21.65 -40.05 21.0 -40.0 20.4 -39.45 20.35 L-39.25 20.3 -38.9 20.35 Q-38.4 20.65 -38.4 21.3 L-38.45 21.55 -38.5 21.55 M-49.05 -26.75 Q-48.6 -26.45 -48.55 -25.85 L-48.65 -25.6 -49.1 -25.25 -49.35 -25.15 -49.7 -25.15 Q-50.25 -25.45 -50.25 -25.9 L-50.25 -26.1 Q-50.15 -26.85 -49.45 -26.85 L-49.1 -26.8 -49.05 -26.75 M-52.95 -15.7 Q-53.6 -16.0 -53.5 -16.65 -53.4 -17.35 -52.7 -17.3 L-52.35 -17.3 Q-51.8 -17.0 -51.85 -16.35 L-51.9 -16.1 -52.3 -15.8 -52.6 -15.65 -52.95 -15.7 M-52.15 -2.5 Q-51.8 -3.45 -50.65 -3.25 L-50.35 -3.25 Q-49.85 -2.9 -49.8 -2.25 L-49.8 -2.0 Q-50.35 -1.45 -51.25 -1.5 L-51.6 -1.55 Q-52.25 -1.85 -52.15 -2.5 M-9.05 -16.65 L-8.5 -16.8 Q-8.25 -17.65 -7.15 -17.9 L-6.35 -17.7 -6.3 -17.75 Q-5.5 -17.0 -5.35 -16.4 -5.15 -15.7 -5.9 -15.2 L-6.9 -14.75 Q-7.9 -14.5 -8.3 -15.15 L-8.45 -15.15 -8.8 -15.15 Q-9.45 -15.5 -9.35 -16.15 L-9.1 -16.65 -8.8 -16.55 -9.05 -16.65 M-3.8 -19.9 Q-3.95 -19.8 -4.05 -19.75 L-4.4 -19.8 Q-5.05 -20.1 -4.95 -20.75 -4.9 -21.45 -4.2 -21.4 L-3.85 -21.4 -3.35 -20.85 -3.3 -20.45 -3.4 -20.2 -3.75 -19.9 -3.8 -19.9 M-1.5 -31.0 L-1.65 -30.8 -2.2 -30.55 -2.6 -30.55 Q-3.7 -31.6 -2.9 -33.05 L-2.25 -33.25 -1.9 -33.3 -1.9 -33.25 Q-1.15 -32.45 -1.4 -31.35 L-1.5 -31.0 M-2.55 -28.7 Q-2.05 -28.35 -2.0 -27.7 L-2.05 -27.55 -2.55 -27.15 -2.8 -27.05 -3.15 -27.05 Q-3.8 -27.4 -3.7 -28.05 -3.6 -28.7 -2.9 -28.75 L-2.55 -28.7 M-8.2 24.65 Q-7.85 24.95 -7.85 25.45 L-7.9 25.75 -7.95 25.75 -7.95 25.8 -8.35 26.1 -8.6 26.2 -9.0 26.15 Q-9.65 25.85 -9.5 25.2 -9.4 24.5 -8.7 24.5 L-8.35 24.55 -8.2 24.65 M1.2 32.65 Q1.35 31.6 2.65 31.3 L3.4 31.45 3.45 31.45 Q5.55 33.4 3.35 34.25 L2.8 34.4 Q1.6 34.75 1.3 33.5 L1.2 32.65 M3.65 30.6 L3.45 30.7 3.0 30.7 Q2.1 30.0 2.35 29.0 L2.5 28.65 2.65 28.45 3.0 28.3 3.5 28.35 3.55 28.3 Q4.25 28.9 4.2 29.85 L4.1 30.1 3.65 30.6 M-3.05 20.65 L-3.05 20.95 -3.5 21.25 -3.8 21.35 -4.2 21.3 Q-4.85 21.0 -4.7 20.35 -4.65 19.7 -3.9 19.7 L-3.55 19.75 -3.3 20.2 -3.05 20.6 -3.05 20.65 M-5.7 15.95 Q-6.1 16.35 -7.05 16.6 -8.35 16.95 -8.6 15.7 -9.05 13.9 -7.2 13.55 L-7.05 13.55 -6.45 13.65 Q-4.8 15.1 -5.7 15.95 M-14.5 8.2 L-14.75 8.35 -15.1 8.3 Q-15.75 7.95 -15.65 7.3 -15.6 6.65 -14.85 6.7 L-14.5 6.7 Q-14.0 7.0 -14.0 7.65 L-14.05 7.9 -14.5 8.2 M-12.3 14.55 Q-11.85 14.85 -11.8 15.45 L-11.85 15.7 -12.3 16.1 -12.55 16.2 -12.9 16.2 Q-13.55 15.8 -13.5 15.2 -13.35 14.5 -12.65 14.5 L-12.3 14.55 M-7.65 17.9 L-7.35 17.95 Q-6.8 18.25 -6.8 18.9 L-6.85 19.15 -7.25 19.45 -7.6 19.6 -7.95 19.55 Q-8.6 19.2 -8.5 18.55 -8.4 17.9 -7.65 17.9 M-5.05 22.7 L-5.05 22.65 -4.3 23.5 Q-3.35 25.0 -5.7 25.65 -6.95 26.0 -7.2 24.7 -7.65 23.0 -5.85 22.55 L-5.05 22.7 M-1.8 27.1 L-1.8 27.3 -2.3 27.65 -2.55 27.75 -2.9 27.75 Q-3.6 27.4 -3.5 26.75 -3.35 26.1 -2.65 26.05 L-2.25 26.1 Q-1.8 26.45 -1.8 27.1 M-11.35 43.4 L-11.35 43.65 -11.55 43.8 -12.1 44.1 Q-13.5 44.05 -13.65 42.85 -13.65 42.35 -13.1 42.25 L-12.5 42.2 Q-11.45 42.35 -11.35 43.4 M-45.3 4.0 Q-45.05 4.25 -45.05 4.7 L-45.1 4.95 -45.5 5.25 -45.8 5.4 -46.15 5.35 -46.7 4.75 -46.7 4.4 Q-46.6 3.75 -45.9 3.75 L-45.55 3.75 -45.3 4.0 M-48.6 5.95 Q-47.55 6.1 -47.45 7.1 L-47.5 7.35 -47.65 7.55 -48.2 7.85 Q-49.6 7.8 -49.8 6.6 -49.75 6.1 -49.2 6.0 L-48.6 5.95 M-47.9 8.95 Q-45.55 11.1 -48.55 11.95 -49.75 12.25 -50.1 11.05 -50.5 9.25 -48.7 8.85 L-47.95 9.0 -47.9 8.95 M-45.3 17.9 Q-45.95 17.55 -45.85 16.95 -45.7 16.25 -45.0 16.25 L-44.7 16.25 Q-44.2 16.6 -44.15 17.25 L-44.2 17.5 -44.65 17.85 -44.95 17.95 -45.3 17.9 M5.95 35.6 L6.3 35.65 Q6.8 36.0 6.8 36.6 L6.75 36.85 6.3 37.2 6.05 37.3 5.65 37.3 Q5.05 36.95 5.15 36.35 5.25 35.6 5.95 35.6 M8.1 39.65 Q8.55 40.0 8.6 40.6 L8.55 40.85 8.1 41.2 7.8 41.3 7.45 41.3 Q6.8 40.95 6.9 40.3 7.0 39.65 7.7 39.6 L8.1 39.65 M12.05 38.6 L12.0 38.85 11.85 38.95 Q11.75 39.75 10.2 40.2 9.0 40.55 8.7 39.25 8.3 37.55 10.05 37.1 L10.8 37.2 10.85 37.15 11.3 37.65 11.5 37.65 Q12.0 38.0 12.05 38.6 M11.75 40.3 Q11.8 39.65 12.5 39.65 L12.9 39.65 Q13.4 39.95 13.4 40.6 L13.35 40.85 12.9 41.15 12.65 41.3 12.25 41.25 Q11.6 40.95 11.75 40.3" fill="#5e4600" fill-rule="evenodd" stroke="none"/>
    <path d="M-20.65 -44.85 L-20.6 -44.85 -20.55 -44.6 -20.65 -44.85 M-18.05 -43.3 L-17.95 -43.25 -18.05 -43.05 -18.05 -43.3 M12.05 44.3 L12.0 44.3 12.0 44.2 12.05 44.3 M3.95 44.6 L3.5 44.6 3.9 44.25 3.95 44.6 M-23.3 37.15 L-23.4 37.1 -23.2 36.9 -23.3 37.15 M-34.6 26.45 L-34.7 26.35 -34.5 26.35 -34.6 26.45 M-35.4 25.45 L-35.45 25.4 -35.4 25.35 -35.4 25.45 M-47.1 4.65 L-47.3 4.1 -46.95 4.0 -46.85 4.55 -47.1 4.65 M-42.4 -21.15 L-42.55 -21.1 -42.6 -21.2 -42.4 -21.15 M-47.2 -22.2 L-47.15 -22.15 -47.35 -22.15 -47.2 -22.2 M-46.65 -14.15 L-46.6 -13.85 -46.9 -14.1 -46.65 -14.15 M-43.65 -7.45 L-43.7 -7.4 -43.85 -7.5 -43.65 -7.45 M-3.8 -19.85 L-3.8 -19.9 -3.75 -19.9 -3.8 -19.85 M-1.3 -31.05 L-1.5 -31.0 -1.4 -31.35 -1.3 -31.05 M-2.25 -33.25 L-1.95 -33.35 -1.9 -33.3 -2.25 -33.25 M-30.3 -31.4 L-30.25 -31.35 -30.45 -31.25 -30.3 -31.4 M-29.2 -31.5 L-29.4 -31.5 -29.45 -31.5 -29.45 -31.55 -29.2 -31.5 M-8.25 24.5 L-8.2 24.65 -8.35 24.55 -8.25 24.5 M-7.95 25.8 L-7.95 25.75 -7.9 25.9 -7.95 25.8 M15.05 43.3 L15.15 43.25 15.55 44.15 15.7 44.45 15.65 44.45 15.55 44.5 15.55 44.15 15.15 44.2 Q15.3 43.75 15.05 43.3" fill="#cc9900" fill-rule="evenodd" stroke="none"/>
    <path d="M-31.2 -41.2 L-31.1 -41.05 -31.25 -41.0 -31.2 -41.2 M-20.55 41.75 L-20.6 41.85 -20.65 41.85 -20.55 41.75 M-7.9 25.75 L-7.9 25.9 -7.95 25.75 -7.9 25.75 M11.85 35.95 L11.85 35.8 11.9 35.9 11.85 35.95 M-3.0 20.65 L-3.05 20.65 -3.05 20.6 -3.0 20.65 M-7.2 13.55 L-7.1 13.45 -7.05 13.55 -7.2 13.55 M14.75 44.6 L15.15 44.2 15.55 44.15 15.55 44.5 14.75 44.6" fill="#916c00" fill-rule="evenodd" stroke="none"/>
    <path d="M51.35 25.5 L51.4 25.45 49.75 28.75 24.5 39.7 42.55 30.2 43.45 29.7 44.45 29.2 51.35 25.5" fill="#8c211e" fill-rule="evenodd" stroke="none"/>
    <path d="M51.4 25.45 L51.35 25.5 51.2 25.2 51.4 25.45 M43.45 29.7 L42.55 30.2 24.5 39.7 15.7 44.45 14.7 42.15 15.7 44.45 15.55 44.15 15.15 43.25 14.7 42.15 13.7 40.0 13.1 38.55 12.5 37.25 11.9 35.9 11.85 35.8 11.9 35.8 11.85 35.75 14.85 31.25 16.7 28.6 25.9 17.9 23.0 23.45 23.55 23.85 17.45 32.05 15.95 34.05 16.5 34.5 18.15 32.6 37.55 14.6 36.8 21.35 41.3 18.9 35.5 28.45 46.8 23.85 42.95 28.85 43.45 29.7 42.55 30.2 43.45 29.7 M16.5 34.5 L13.1 38.55 16.5 34.5" fill="#ff9999" fill-rule="evenodd" stroke="none"/>
    <path d="M51.35 25.5 L44.45 29.2 43.45 29.7 44.45 29.2 43.45 29.7 42.95 28.85 46.8 23.85 35.5 28.45 41.3 18.9 36.8 21.35 37.55 14.6 18.15 32.6 35.0 12.85 18.15 32.6 17.45 32.05 23.55 23.85 24.6 22.45 23.0 23.45 25.9 17.9 16.7 28.6 18.85 25.1 24.55 16.25 35.0 12.85 38.55 10.25 55.0 18.4 51.2 25.2 51.35 25.5" fill="#8c312f" fill-rule="evenodd" stroke="none"/>
    <path d="M23.55 23.85 L23.0 23.45 24.6 22.45 23.55 23.85" fill="#c96d6d" fill-rule="evenodd" stroke="none"/>
    <path d="M17.45 32.05 L18.15 32.6 16.5 34.5 15.95 34.05 17.45 32.05" fill="#d66969" fill-rule="evenodd" stroke="none"/>
    <path d="M1.15 34.7 L1.3 34.8 1.1 34.8 1.15 34.7" fill="#ff99cc" fill-rule="evenodd" stroke="none"/>
    <path d="M-3.0 -37.55 L-12.1 -43.9 M-13.5 -44.9 L-17.25 -47.55 -36.65 -45.2 -50.55 -30.45 -53.1 -23.65 -54.95 -4.65 -54.7 -3.95 -55.0 -4.6 -49.85 14.2 -36.15 31.45 -27.65 39.15 -21.7 41.45 M-20.6 41.85 L-5.4 47.6 12.4 44.95 M-0.15 -26.45 L-0.15 -26.55 -1.25 -30.75 M-1.95 -33.35 L-3.0 -37.55 M-1.9 -33.3 L-1.95 -33.35 M11.85 35.8 L6.95 34.2 5.7 33.3 3.65 30.6 M2.35 29.0 L-0.05 25.9 -3.0 20.65 -3.05 20.6 -3.3 20.2 -3.75 19.4 -5.7 15.95 M-7.1 13.45 L-8.35 11.25 -10.2 -0.15 -0.15 -26.45 M51.4 25.45 L51.35 25.5 44.45 29.2 43.45 29.7 42.55 30.2 24.5 39.7 49.75 28.75 51.4 25.45 51.2 25.2 55.0 18.4 38.55 10.25 35.0 12.85 18.15 32.6 16.5 34.5 13.1 38.55 13.05 38.55 13.7 40.0 14.7 42.15 15.7 44.45 24.5 39.7 M18.85 25.1 L24.55 16.25 35.0 12.85 M14.85 31.25 L11.85 35.75 11.9 35.8 11.85 35.8 11.9 35.9 12.5 37.25 13.05 38.55 M18.85 25.1 L14.85 31.25 M11.85 35.8 L11.85 35.75 M14.75 44.6 L15.55 44.5 15.65 44.45 15.7 44.45" ffdec:has-small-stroke="true" ffdec:original-stroke-width="0.05" fill="none" stroke="#000000" stroke-linecap="round" stroke-linejoin="round" stroke-opacity="0.3019608" stroke-width="1.0"/>
  </g>
</svg>
