<?xml version="1.0" encoding="UTF-8" standalone="no"?>
<svg xmlns:ffdec="https://www.free-decompiler.com/flash" xmlns:xlink="http://www.w3.org/1999/xlink" ffdec:objectType="shape" height="52.65px" width="105.65px" xmlns="http://www.w3.org/2000/svg">
  <g transform="matrix(1.0, 0.0, 0.0, 1.0, -18.0, -6.75)">
    <path d="M80.1 33.75 L80.15 33.7 82.35 30.55 Q82.55 30.3 82.95 30.15 L84.9 29.15 Q86.05 28.6 87.6 28.7 L88.35 28.75 88.45 28.75 Q90.1 27.85 92.5 28.25 L93.25 28.5 99.2 31.55 100.2 31.9 103.25 32.3 107.05 32.7 Q107.5 32.75 107.7 33.15 L108.85 34.4 Q113.8 36.55 119.3 38.3 L119.35 38.3 121.65 39.1 Q122.4 39.35 122.55 39.95 L122.65 40.1 Q122.45 40.45 122.85 42.15 L123.45 42.85 123.5 42.95 123.5 44.15 123.5 44.4 123.45 44.85 123.3 45.25 123.25 45.35 123.3 44.75 123.1 44.5 121.0 45.35 114.5 45.15 107.9 44.75 Q104.5 44.45 101.3 43.6 97.95 42.7 95.75 40.7 L93.05 38.3 88.85 33.95 88.05 32.95 87.65 34.45 86.15 33.35 Q84.3 32.5 81.7 33.4 L80.1 33.75 M63.1 39.7 L63.1 39.65 64.5 36.7 64.9 36.25 66.25 35.35 Q67.05 34.8 68.2 34.95 L68.8 35.0 68.85 35.0 Q70.0 34.15 71.8 34.5 72.15 34.55 72.4 34.75 L77.1 37.6 77.85 37.9 78.95 38.2 80.15 38.35 83.0 38.65 Q83.35 38.7 83.55 39.1 L84.4 40.2 85.25 39.8 85.7 40.9 Q89.0 42.55 92.6 43.95 L92.65 43.95 94.35 44.7 Q94.95 44.9 95.15 45.45 L95.2 45.65 Q95.1 46.0 95.55 47.55 L96.05 48.2 96.1 48.3 96.2 49.4 96.2 49.65 96.2 50.1 96.15 50.5 96.1 50.55 96.1 50.0 95.9 49.75 94.45 50.55 92.55 50.45 89.6 50.4 84.65 50.0 79.65 48.9 Q77.1 48.05 75.3 46.2 L73.1 43.95 69.6 39.85 68.9 38.9 68.75 40.3 67.5 39.25 Q67.35 38.3 67.45 37.25 L67.5 37.15 67.75 36.25 Q68.2 35.45 68.8 35.0 68.2 35.45 67.75 36.25 L67.5 37.15 67.45 37.25 Q67.35 38.3 67.5 39.25 66.1 38.5 64.25 39.3 L63.1 39.7 M90.25 28.8 L88.45 28.75 88.4 28.8 Q87.5 29.25 86.8 30.15 L86.3 31.1 86.3 31.15 Q86.05 32.3 86.15 33.35 86.05 32.3 86.3 31.15 L86.3 31.1 86.8 30.15 Q87.5 29.25 88.4 28.8 L88.45 28.75 90.25 28.8 M122.15 46.4 L120.8 47.1 120.7 47.15 121.15 46.55 122.15 46.4 M101.1 34.1 L101.1 35.2 96.5 34.75 Q100.2 36.3 104.05 35.05 L104.35 34.7 104.25 34.2 103.8 33.9 101.15 33.95 101.1 34.1 M82.2 39.05 L84.4 40.2 84.45 40.25 84.4 40.2 84.45 40.25 85.7 40.9 84.45 40.25 84.4 40.2 82.2 39.05 M100.3 40.75 L100.25 40.7 98.3 39.3 Q98.7 41.3 101.0 41.6 L103.05 42.25 112.8 43.35 119.95 42.65 120.05 40.9 119.9 40.75 119.1 39.85 119.1 40.3 118.25 41.75 116.4 41.9 111.35 41.9 109.65 41.15 109.6 41.2 Q109.4 41.4 109.5 41.75 L109.4 42.0 103.2 41.35 102.75 41.15 101.55 40.35 101.4 41.15 100.3 40.75 M85.6 46.65 L85.6 47.2 85.55 47.45 80.85 46.8 80.55 46.6 79.55 45.9 79.5 46.65 78.7 46.25 78.6 46.2 Q77.9 45.35 77.05 44.9 77.5 46.75 79.25 47.0 L80.85 47.65 85.3 48.45 88.15 48.65 Q91.05 48.9 93.45 48.05 L93.35 46.4 93.2 46.25 92.55 45.4 92.6 45.8 92.1 47.2 90.75 47.35 Q88.8 47.2 86.95 47.35 L85.65 46.65 85.6 46.65 M81.15 40.55 L81.05 40.1 80.65 39.8 78.75 39.85 78.7 40.0 78.8 41.0 75.35 40.65 Q77.4 41.65 79.4 41.35 L81.0 40.85 81.15 40.55 M105.95 33.1 L108.85 34.4 105.95 33.1 M95.4 51.55 L94.45 52.2 94.35 52.25 94.65 51.7 95.4 51.55 M59.2 7.6 L59.3 7.6 60.2 7.5 Q62.0 7.35 63.35 8.1 L65.6 9.45 66.3 10.05 68.9 14.35 68.95 14.45 67.1 13.9 Q64.0 12.7 61.9 13.85 L61.7 10.85 61.7 10.75 61.1 9.45 Q60.3 8.25 59.25 7.6 L59.2 7.6 59.25 7.6 Q60.3 8.25 61.1 9.45 L61.7 10.75 61.7 10.85 61.9 13.85 Q60.9 14.35 60.15 15.35 L59.7 13.3 58.7 14.65 53.8 20.6 50.65 23.9 Q48.05 26.65 44.15 27.85 40.4 29.05 36.45 29.45 L28.7 30.0 21.1 30.25 18.65 29.1 Q18.4 29.2 18.4 29.45 L18.45 30.25 18.4 30.15 18.25 29.6 18.15 28.95 18.15 28.6 18.15 27.0 18.25 26.85 18.9 25.85 Q19.35 23.6 19.2 23.1 L19.25 22.85 Q19.45 22.05 20.35 21.7 L23.0 20.65 23.1 20.65 Q29.5 18.25 35.35 15.3 L36.65 13.6 Q36.9 13.05 37.4 12.95 L41.85 12.45 45.45 11.85 46.6 11.4 53.55 7.25 Q53.95 7.0 54.45 6.9 57.25 6.35 59.2 7.6 L57.1 7.65 59.2 7.6 M62.95 22.65 Q63.45 22.95 63.95 23.2 64.05 26.25 62.2 28.6 59.65 31.85 56.0 32.4 57.35 30.65 58.95 29.15 61.85 26.5 62.95 22.65 M44.4 14.9 L44.3 14.7 41.25 14.6 40.7 15.05 40.6 15.7 40.9 16.15 Q45.4 17.9 49.75 15.8 L44.4 16.35 44.4 14.9 M45.3 24.0 Q44.7 24.3 44.05 24.55 L43.85 23.45 42.45 24.5 41.95 24.8 34.65 25.7 34.55 25.35 34.45 24.6 34.4 24.55 32.4 25.55 Q29.5 25.4 26.45 25.55 L24.3 25.35 23.3 23.35 23.3 22.75 22.4 24.0 22.2 24.2 22.3 26.6 Q26.2 27.85 30.7 27.5 36.4 27.3 42.1 26.05 L44.5 25.1 Q47.2 24.7 47.65 22.0 46.35 22.7 45.4 23.9 L45.3 24.0 M70.2 35.05 L68.85 35.0 70.2 35.05 M66.8 45.7 L67.4 45.35 Q68.35 47.95 70.35 49.8 L72.4 52.05 Q70.05 51.65 68.25 49.4 66.9 47.8 66.8 45.7 M38.7 13.5 L35.35 15.3 38.7 13.5 M19.75 31.7 L20.9 31.9 21.45 32.7 21.3 32.65 19.75 31.7" fill="#b4643a" fill-rule="evenodd" stroke="none"/>
    <path d="M123.5 45.25 L123.45 46.9 123.15 47.55 Q122.25 48.85 121.8 50.5 121.05 52.9 118.15 54.0 L117.85 54.05 Q118.15 52.4 118.8 50.8 119.55 48.9 120.5 47.5 L120.7 47.15 120.8 47.1 122.15 46.4 122.5 46.2 123.25 45.35 123.3 45.25 123.5 45.25 M107.2 53.5 L105.95 53.35 100.6 52.7 99.85 52.5 96.35 51.5 96.35 52.0 96.25 52.6 Q95.65 53.85 95.45 55.4 95.1 57.6 93.05 58.65 L92.85 58.75 Q92.9 57.2 93.25 55.65 L94.25 52.6 94.35 52.25 94.45 52.2 95.4 51.55 95.6 51.4 95.7 51.3 96.1 50.55 96.15 50.5 96.2 50.1 96.2 49.65 96.2 49.4 96.25 49.4 96.25 48.7 96.1 48.3 96.05 48.2 95.55 47.55 Q95.1 46.0 95.2 45.65 L95.15 45.45 Q94.95 44.9 94.35 44.7 L92.65 43.95 92.6 43.95 Q89.0 42.55 85.7 40.9 L85.25 39.8 84.4 40.2 83.55 39.1 Q83.35 38.7 83.0 38.65 L80.15 38.35 78.95 38.2 Q78.9 35.75 80.1 33.75 L81.7 33.4 Q84.3 32.5 86.15 33.35 86.3 35.7 88.0 37.65 L91.75 41.6 94.95 44.15 95.55 44.5 96.75 44.95 100.25 45.75 102.0 46.0 103.2 46.8 105.5 48.1 106.0 50.85 106.5 52.95 107.2 53.5 M84.9 58.2 L83.95 58.1 79.9 57.45 79.35 57.25 Q74.1 55.35 68.8 53.8 L68.2 53.45 Q65.65 51.4 64.0 48.6 63.35 47.4 63.05 46.4 L62.8 45.2 Q62.15 42.1 63.1 39.7 L64.25 39.3 Q66.1 38.5 67.5 39.25 67.8 41.5 69.3 43.35 L72.4 47.05 75.0 49.4 75.45 49.75 76.4 50.2 79.1 50.95 80.35 51.15 81.3 51.95 83.15 53.15 83.75 55.7 84.3 57.7 84.9 58.2 M96.35 51.5 L96.3 50.5 96.25 50.1 96.2 49.65 96.25 49.4 96.2 49.65 96.25 50.1 96.3 50.5 96.35 51.5 M61.9 13.85 Q64.0 12.7 67.1 13.9 L68.95 14.45 Q70.75 17.95 70.2 22.45 L69.95 24.2 68.75 27.4 Q66.55 31.55 62.85 34.5 L61.95 34.95 Q53.8 37.25 45.85 40.0 L44.95 40.3 Q41.9 41.05 38.7 41.2 L37.25 41.4 38.05 40.65 38.65 37.75 39.25 34.05 41.95 32.25 43.35 31.15 45.35 30.8 49.45 29.7 50.9 29.1 51.6 28.6 Q53.7 27.05 55.3 25.15 L59.7 19.75 Q61.7 17.1 61.9 13.85 M24.8 42.15 L24.4 42.05 Q21.0 40.55 20.15 37.3 19.6 35.05 18.55 33.25 L18.25 32.35 18.2 30.15 18.4 30.15 18.45 30.25 Q18.65 31.0 19.35 31.45 L19.75 31.7 21.3 32.65 21.45 32.7 21.7 33.2 23.65 37.7 Q24.45 39.95 24.8 42.15 M62.95 22.65 Q61.85 26.5 58.95 29.15 57.35 30.65 56.0 32.4 59.65 31.85 62.2 28.6 64.05 26.25 63.95 23.2 63.45 22.95 62.95 22.65 M66.8 45.7 Q66.9 47.8 68.25 49.4 70.05 51.65 72.4 52.05 L70.35 49.8 Q68.35 47.95 67.4 45.35 L66.8 45.7" fill="#682e1f" fill-rule="evenodd" stroke="none"/>
    <path d="M117.85 54.05 L117.45 54.1 112.45 54.65 110.55 54.55 108.2 53.7 107.2 53.5 106.5 52.95 106.0 50.85 105.5 48.1 103.2 46.8 102.0 46.0 100.25 45.75 96.75 44.95 95.55 44.5 94.95 44.15 91.75 41.6 88.0 37.65 Q86.3 35.7 86.15 33.35 L87.65 34.45 88.05 32.95 88.85 33.95 93.05 38.3 95.75 40.7 Q97.95 42.7 101.3 43.6 104.5 44.45 107.9 44.75 L114.5 45.15 121.0 45.35 123.1 44.5 123.3 44.75 123.25 45.35 122.5 46.2 122.15 46.4 123.25 45.35 122.15 46.4 121.15 46.55 120.7 47.15 120.5 47.5 Q119.55 48.9 118.8 50.8 118.15 52.4 117.85 54.05 M92.85 58.75 L92.55 58.75 Q90.6 58.7 88.85 59.3 L87.45 59.15 Q86.5 58.65 85.6 58.4 L84.9 58.2 84.3 57.7 83.75 55.7 83.15 53.15 81.3 51.95 80.35 51.15 80.45 51.15 83.05 51.75 83.65 51.85 88.8 51.95 93.95 52.25 94.35 52.25 93.95 52.25 88.8 51.95 83.65 51.85 83.05 51.75 80.45 51.15 80.35 51.15 79.1 50.95 76.4 50.2 75.45 49.75 75.0 49.4 72.4 47.05 69.3 43.35 Q67.8 41.5 67.5 39.25 L68.75 40.3 68.9 38.9 69.6 39.85 73.1 43.95 75.3 46.2 Q77.1 48.05 79.65 48.9 L84.65 50.0 89.6 50.4 92.55 50.45 94.45 50.55 95.9 49.75 96.1 50.0 96.1 50.55 95.65 51.3 95.4 51.55 94.65 51.7 94.35 52.25 94.25 52.6 93.25 55.65 Q92.9 57.2 92.85 58.75 M101.1 34.1 L101.15 33.95 103.8 33.9 104.25 34.2 104.35 34.7 104.05 35.05 Q100.2 36.3 96.5 34.75 L101.1 35.2 101.1 34.1 M81.15 40.55 L81.0 40.85 79.4 41.35 Q77.4 41.65 75.35 40.65 L78.8 41.0 78.7 40.0 78.75 39.85 80.65 39.8 81.05 40.1 81.15 40.55 M85.6 46.65 L85.65 46.65 86.95 47.35 Q88.8 47.2 90.75 47.35 L92.1 47.2 92.6 45.8 92.55 45.4 93.2 46.25 93.35 46.4 93.45 48.05 Q91.05 48.9 88.15 48.65 L85.3 48.45 80.85 47.65 79.25 47.0 Q77.5 46.75 77.05 44.9 77.9 45.35 78.6 46.2 L78.7 46.25 79.5 46.65 79.55 45.9 80.55 46.6 80.85 46.8 85.55 47.45 85.6 47.2 85.6 46.65 M100.3 40.75 L101.4 41.15 101.55 40.35 102.75 41.15 103.2 41.35 109.4 42.0 109.5 41.75 Q109.4 41.4 109.6 41.2 L109.65 41.15 111.35 41.9 116.4 41.9 118.25 41.75 119.1 40.3 119.1 39.85 119.9 40.75 120.05 40.9 119.95 42.65 112.8 43.35 103.05 42.25 101.0 41.6 Q98.7 41.3 98.3 39.3 L100.25 40.7 100.3 40.75 M102.0 46.0 L102.1 46.0 105.55 46.6 106.35 46.75 113.2 46.8 120.15 47.15 120.7 47.15 120.15 47.15 113.2 46.8 106.35 46.75 105.55 46.6 102.1 46.0 102.0 46.0 M95.4 51.55 L95.65 51.3 96.1 50.55 95.7 51.3 95.6 51.4 95.4 51.55 M37.25 41.4 L36.1 41.7 Q34.7 42.1 33.35 42.8 L31.1 42.95 Q28.25 42.1 25.25 42.2 L24.8 42.15 Q24.45 39.95 23.65 37.7 L21.7 33.2 21.45 32.7 22.1 32.75 30.2 32.25 38.25 32.15 39.2 32.0 43.2 31.15 43.35 31.15 41.95 32.25 39.25 34.05 38.65 37.75 38.05 40.65 37.25 41.4 M45.3 24.0 L45.4 23.9 Q46.35 22.7 47.65 22.0 47.2 24.7 44.5 25.1 L42.1 26.05 Q36.4 27.3 30.7 27.5 26.2 27.85 22.3 26.6 L22.2 24.2 22.4 24.0 23.3 22.75 23.3 23.35 24.3 25.35 26.45 25.55 Q29.5 25.4 32.4 25.55 L34.4 24.55 34.45 24.6 34.55 25.35 34.65 25.7 41.95 24.8 42.45 24.5 43.85 23.45 44.05 24.55 Q44.7 24.3 45.3 24.0 M44.4 14.9 L44.4 16.35 49.75 15.8 Q45.4 17.9 40.9 16.15 L40.6 15.7 40.7 15.05 41.25 14.6 44.3 14.7 44.4 14.9 M18.45 30.25 L18.4 29.45 Q18.4 29.2 18.65 29.1 L21.1 30.25 28.7 30.0 36.45 29.45 Q40.4 29.05 44.15 27.85 48.05 26.65 50.65 23.9 L53.8 20.6 58.7 14.65 59.7 13.3 60.15 15.35 Q60.9 14.35 61.9 13.85 61.7 17.1 59.7 19.75 L55.3 25.15 Q53.7 27.05 51.6 28.6 L50.9 29.1 49.45 29.7 45.35 30.8 43.35 31.15 43.2 31.15 39.2 32.0 38.25 32.15 30.2 32.25 22.1 32.75 21.45 32.7 20.9 31.9 19.75 31.7 19.35 31.45 Q18.65 31.0 18.45 30.25 18.95 31.05 19.75 31.7 18.95 31.05 18.45 30.25" fill="#da9e5d" fill-rule="evenodd" stroke="none"/>
    <path d="M123.5 42.95 L123.65 43.4 123.55 44.15 123.5 44.15 123.5 42.95 M96.1 48.3 L96.25 48.7 96.25 49.4 96.2 49.4 96.1 48.3 M18.1 28.6 L18.0 27.6 18.15 27.0 18.15 28.6 18.1 28.6" fill="#ff0000" fill-rule="evenodd" stroke="none"/>
    <path d="M80.1 33.75 L80.15 33.7 82.35 30.55 Q82.55 30.3 82.95 30.15 L84.9 29.15 Q86.05 28.6 87.6 28.7 L88.35 28.75 88.45 28.75 Q90.1 27.85 92.5 28.25 L93.25 28.5 99.2 31.55 100.2 31.9 103.25 32.3 107.05 32.7 Q107.5 32.75 107.7 33.15 L108.85 34.4 Q113.8 36.55 119.3 38.3 L119.35 38.3 121.65 39.1 Q122.4 39.35 122.55 39.95 L122.65 40.1 M123.65 43.4 L123.55 44.15 123.5 44.4 123.5 44.85 123.5 45.25 123.45 46.9 123.15 47.55 Q122.25 48.85 121.8 50.5 121.05 52.9 118.15 54.0 L117.85 54.05 117.45 54.1 112.45 54.65 110.55 54.55 108.2 53.7 107.2 53.5 105.95 53.35 100.6 52.7 99.85 52.5 96.35 51.5 96.35 52.0 96.25 52.6 Q95.65 53.85 95.45 55.4 95.1 57.6 93.05 58.65 L92.85 58.75 92.55 58.75 Q90.6 58.7 88.85 59.3 L87.45 59.15 Q86.5 58.65 85.6 58.4 L84.9 58.2 83.95 58.1 79.9 57.45 79.35 57.25 Q74.1 55.35 68.8 53.8 L68.2 53.45 Q65.65 51.4 64.0 48.6 63.35 47.4 63.05 46.4 L62.8 45.2 Q62.15 42.1 63.1 39.7 L63.1 39.65 64.5 36.7 64.9 36.25 66.25 35.35 Q67.05 34.8 68.2 34.95 L68.8 35.0 68.85 35.0 Q70.0 34.15 71.8 34.5 72.15 34.55 72.4 34.75 L77.1 37.6 77.85 37.9 78.95 38.2 Q78.9 35.75 80.1 33.75 M86.15 33.35 Q86.05 32.3 86.3 31.15 L86.3 31.1 86.8 30.15 Q87.5 29.25 88.4 28.8 L88.45 28.75 90.25 28.8 M123.3 45.25 L123.45 44.85 123.5 44.4 123.5 44.15 123.5 42.95 M123.25 45.35 L123.3 45.25 M123.25 45.35 L122.15 46.4 120.8 47.1 120.7 47.15 120.15 47.15 113.2 46.8 106.35 46.75 105.55 46.6 102.1 46.0 102.0 46.0 100.25 45.75 96.75 44.95 95.55 44.5 94.95 44.15 91.75 41.6 88.0 37.65 Q86.3 35.7 86.15 33.35 M85.7 40.9 Q89.0 42.55 92.6 43.95 L92.65 43.95 94.35 44.7 Q94.95 44.9 95.15 45.45 L95.2 45.65 M96.25 48.7 L96.25 49.4 96.2 49.65 96.25 50.1 96.3 50.5 96.35 51.5 M78.95 38.2 L80.15 38.35 83.0 38.65 Q83.35 38.7 83.55 39.1 L84.4 40.2 84.45 40.25 85.7 40.9 M84.45 40.25 L84.4 40.2 82.2 39.05 M96.1 48.3 L96.2 49.4 96.2 49.65 96.2 50.1 96.15 50.5 96.1 50.55 95.65 51.3 95.4 51.55 94.45 52.2 94.35 52.25 93.95 52.25 88.8 51.95 83.65 51.85 83.05 51.75 80.45 51.15 80.35 51.15 79.1 50.95 76.4 50.2 75.45 49.75 75.0 49.4 72.4 47.05 69.3 43.35 Q67.8 41.5 67.5 39.25 67.35 38.3 67.45 37.25 L67.5 37.15 67.75 36.25 Q68.2 35.45 68.8 35.0 M108.85 34.4 L105.95 33.1 M68.95 14.45 L68.9 14.35 66.3 10.05 65.6 9.45 63.35 8.1 Q62.0 7.35 60.2 7.5 L59.3 7.6 59.2 7.6 59.25 7.6 Q60.3 8.25 61.1 9.45 L61.7 10.75 61.7 10.85 61.9 13.85 Q61.7 17.1 59.7 19.75 L55.3 25.15 Q53.7 27.05 51.6 28.6 L50.9 29.1 49.45 29.7 45.35 30.8 43.35 31.15 43.2 31.15 39.2 32.0 38.25 32.15 30.2 32.25 22.1 32.75 21.45 32.7 21.3 32.65 19.75 31.7 Q18.95 31.05 18.45 30.25 L18.4 30.15 18.25 29.6 18.15 28.95 18.1 28.6 18.0 27.6 M68.95 14.45 Q70.75 17.95 70.2 22.45 L69.95 24.2 68.75 27.4 Q66.55 31.55 62.85 34.5 L61.95 34.95 Q53.8 37.25 45.85 40.0 L44.95 40.3 Q41.9 41.05 38.7 41.2 L37.25 41.4 36.1 41.7 Q34.7 42.1 33.35 42.8 L31.1 42.95 Q28.25 42.1 25.25 42.2 L24.8 42.15 24.4 42.05 Q21.0 40.55 20.15 37.3 19.6 35.05 18.55 33.25 L18.25 32.35 18.2 30.15 18.15 29.6 18.15 28.95 18.15 28.6 18.15 27.0 M19.2 23.1 L19.25 22.85 Q19.45 22.05 20.35 21.7 L23.0 20.65 23.1 20.65 Q29.5 18.25 35.35 15.3 L36.65 13.6 Q36.9 13.05 37.4 12.95 L41.85 12.45 45.45 11.85 46.6 11.4 53.55 7.25 Q53.95 7.0 54.45 6.9 57.25 6.35 59.2 7.6 L57.1 7.65 M68.85 35.0 L70.2 35.05 M35.35 15.3 L38.7 13.5" ffdec:has-small-stroke="true" ffdec:original-stroke-width="0.05" fill="none" stroke="#666666" stroke-linecap="round" stroke-linejoin="round" stroke-opacity="0.5019608" stroke-width="1.0"/>
  </g>
</svg>
