<?xml version="1.0" encoding="UTF-8" standalone="no"?>
<svg xmlns:ffdec="https://www.free-decompiler.com/flash" xmlns:xlink="http://www.w3.org/1999/xlink" ffdec:objectType="shape" height="34.15px" width="84.4px" xmlns="http://www.w3.org/2000/svg">
  <g transform="matrix(1.0, 0.0, 0.0, 1.0, -232.75, -182.9)">
    <path d="M290.35 187.3 L290.45 187.4 290.2 187.55 290.35 187.3" fill="#ffffff" fill-rule="evenodd" stroke="none"/>
    <path d="M257.65 199.1 L257.75 198.65 Q260.95 199.95 261.0 201.8 L260.85 202.6 Q260.25 204.05 257.3 205.15 253.65 206.5 248.45 206.5 243.25 206.5 239.6 205.15 235.9 203.75 235.95 201.8 L235.95 201.45 236.4 201.65 Q240.05 203.0 245.25 203.0 250.45 203.0 254.1 201.65 256.8 200.6 257.55 199.3 L257.65 199.1 M311.6 186.65 Q314.45 187.1 314.9 188.75 L314.95 189.5 Q314.75 191.05 312.2 192.9 309.2 195.0 304.65 196.35 303.95 194.95 301.15 193.9 L299.5 193.35 300.8 193.0 Q305.8 191.65 309.0 189.4 311.05 187.9 311.6 186.65 M304.8 197.55 Q308.0 198.85 308.05 200.7 L307.9 201.5 307.8 201.65 Q305.65 200.65 303.0 199.95 L302.65 199.9 299.05 199.15 304.4 198.05 304.7 198.0 304.8 197.55 M313.9 206.75 L314.4 207.1 Q317.55 209.35 317.1 211.25 L316.75 211.95 Q315.75 213.2 312.65 213.5 308.75 213.85 303.75 212.55 300.15 211.55 297.45 210.1 L294.7 209.35 Q291.85 208.3 291.85 206.8 L292.05 206.05 291.5 205.85 289.6 204.85 Q288.0 204.55 286.65 204.05 282.95 202.65 283.0 200.7 L283.0 200.35 283.45 200.55 Q286.05 201.5 289.45 201.8 L289.6 201.65 Q289.5 203.3 292.1 205.25 L292.35 205.4 292.45 205.5 292.85 205.75 294.25 206.6 Q296.95 208.05 300.55 209.05 305.55 210.35 309.45 210.0 312.4 209.7 313.4 208.6 L313.55 208.45 313.9 207.75 313.9 206.75 M280.5 195.6 L277.75 194.9 Q274.9 193.8 274.9 192.3 274.9 191.9 275.05 191.55 277.75 192.45 281.45 192.45 284.9 192.45 287.5 191.65 L287.5 191.7 Q287.65 192.3 288.15 192.75 285.55 193.1 283.45 193.9 282.35 194.3 281.6 194.75 L280.5 195.6 M260.45 212.0 L260.85 212.2 Q264.55 213.55 269.75 213.55 274.9 213.55 278.6 212.2 281.3 211.15 282.0 209.85 L282.1 209.65 282.25 209.2 Q285.45 210.5 285.45 212.35 L285.3 213.15 Q284.7 214.6 281.8 215.7 278.1 217.05 272.95 217.05 267.75 217.05 264.05 215.7 260.4 214.3 260.4 212.35 L260.45 212.0 M297.45 210.1 L295.55 208.9 Q293.65 207.55 293.05 206.35 293.65 207.55 295.55 208.9 L297.45 210.1" fill="#ccb266" fill-rule="evenodd" stroke="none"/>
    <path d="M234.6 195.85 L234.55 196.05 234.45 195.9 234.6 195.85 M257.35 199.15 L257.65 199.1 257.55 199.3 257.35 199.15 M273.0 186.95 L273.1 186.9 273.1 187.05 273.0 186.95 M259.05 206.6 L258.95 206.45 259.05 206.4 259.05 206.6 M282.0 209.85 L281.85 209.7 282.1 209.65 282.0 209.85 M288.7 189.05 L288.55 188.95 288.65 188.85 288.65 188.95 288.7 189.05 M292.1 199.35 L292.1 199.25 292.4 199.3 292.1 199.35 292.05 199.55 291.95 199.4 292.1 199.35 M313.25 208.45 L313.55 208.45 313.4 208.6 313.25 208.45" fill="#eec846" fill-rule="evenodd" stroke="none"/>
    <path d="M234.55 196.05 L234.6 195.85 Q235.3 195.4 236.4 195.0 240.05 193.6 245.25 193.6 250.45 193.6 254.1 195.0 257.75 196.35 257.8 198.3 L257.75 198.65 257.65 199.1 257.35 199.15 Q253.45 200.45 247.9 200.45 242.35 200.45 238.45 199.15 L238.25 199.1 Q234.55 197.8 234.55 196.05 M273.1 186.9 Q273.7 186.5 274.55 186.2 277.4 185.15 281.45 185.15 285.45 185.15 288.3 186.2 289.65 186.7 290.35 187.3 L290.2 187.55 290.45 187.4 Q293.55 185.2 298.4 183.95 303.4 182.6 307.3 183.0 311.2 183.35 311.7 185.25 L311.75 186.0 311.55 186.15 310.95 186.55 Q307.65 188.55 302.75 189.85 297.45 191.25 293.4 191.05 L293.25 191.05 290.1 190.45 289.2 189.9 Q288.8 189.55 288.7 189.05 L288.65 188.95 288.65 188.85 288.55 188.95 Q287.95 189.6 287.7 190.2 L283.5 190.45 277.45 189.85 276.15 189.45 Q273.1 188.45 273.1 187.05 L273.1 186.9 M304.65 196.35 L304.85 197.2 304.8 197.55 304.7 198.0 304.4 198.05 299.05 199.15 302.65 199.9 303.0 199.95 Q305.65 200.65 307.8 201.65 L311.2 203.6 Q313.55 205.25 313.9 206.75 L313.9 207.75 313.55 208.45 313.25 208.45 Q309.15 208.7 303.8 207.25 L301.85 206.7 Q299.2 205.85 297.1 204.8 L295.0 203.55 294.4 203.15 Q292.4 201.7 292.05 200.5 291.9 200.0 292.05 199.55 L292.1 199.35 292.4 199.3 292.1 199.25 Q288.35 199.0 285.5 198.05 L285.3 198.0 Q282.5 197.05 281.85 195.8 L281.6 194.95 281.6 194.75 Q282.35 194.3 283.45 193.9 285.55 193.1 288.15 192.75 289.0 193.5 290.8 193.85 L291.9 194.0 299.5 193.35 301.15 193.9 Q303.95 194.95 304.65 196.35 M281.85 209.7 Q277.9 211.0 272.4 211.0 266.85 211.0 262.95 209.7 L262.7 209.65 Q259.0 208.35 259.05 206.6 L259.05 206.4 Q259.8 205.95 260.85 205.55 264.55 204.15 269.75 204.15 274.9 204.15 278.6 205.55 282.25 206.9 282.25 208.85 L282.25 209.2 282.1 209.65 281.85 209.7 M290.2 187.55 L288.65 188.85 290.2 187.55 M299.05 199.15 L294.05 199.0 292.4 199.3 294.05 199.0 299.05 199.15" fill="#a62626" fill-rule="evenodd" stroke="none"/>
    <path d="M234.45 195.9 L234.55 196.05 Q234.55 197.8 238.25 199.1 L238.45 199.15 Q242.35 200.45 247.9 200.45 253.45 200.45 257.35 199.15 L257.55 199.3 Q256.8 200.6 254.1 201.65 250.45 203.0 245.25 203.0 240.05 203.0 236.4 201.65 L235.95 201.45 Q232.7 200.1 232.75 198.3 232.75 196.95 234.45 195.9 M275.05 191.55 L274.55 191.4 Q271.7 190.3 271.7 188.8 271.7 187.75 273.0 186.95 L273.1 187.05 Q273.1 188.45 276.15 189.45 L277.45 189.85 283.5 190.45 287.7 190.2 Q287.3 190.95 287.5 191.65 287.3 190.95 287.7 190.2 287.95 189.6 288.55 188.95 L288.7 189.05 Q288.8 189.55 289.2 189.9 L290.1 190.45 293.25 191.05 293.4 191.05 Q297.45 191.25 302.75 189.85 307.65 188.55 310.95 186.55 L311.55 186.15 311.75 186.0 311.6 186.65 Q311.05 187.9 309.0 189.4 305.8 191.65 300.8 193.0 L299.5 193.35 291.9 194.0 290.8 193.85 Q289.0 193.5 288.15 192.75 287.65 192.3 287.5 191.7 L287.5 191.65 Q284.9 192.45 281.45 192.45 277.75 192.45 275.05 191.55 M283.0 200.35 Q279.75 199.05 279.8 197.2 279.75 196.35 280.5 195.6 L281.6 194.75 281.6 194.95 281.85 195.8 Q282.5 197.05 285.3 198.0 L285.5 198.05 Q288.35 199.0 292.1 199.25 L292.1 199.35 291.95 199.4 292.05 199.55 Q291.9 200.0 292.05 200.5 292.4 201.7 294.4 203.15 L295.0 203.55 297.1 204.8 Q299.2 205.85 301.85 206.7 L303.8 207.25 Q309.15 208.7 313.25 208.45 L313.4 208.6 Q312.4 209.7 309.45 210.0 305.55 210.35 300.55 209.05 296.95 208.05 294.25 206.6 L292.85 205.75 292.45 205.5 292.35 205.4 292.1 205.25 Q289.5 203.3 289.6 201.65 L289.45 201.8 Q286.05 201.5 283.45 200.55 L283.0 200.35 M258.95 206.45 L259.05 206.6 Q259.0 208.35 262.7 209.65 L262.95 209.7 Q266.85 211.0 272.4 211.0 277.9 211.0 281.85 209.7 L282.0 209.85 Q281.3 211.15 278.6 212.2 274.9 213.55 269.75 213.55 264.55 213.55 260.85 212.2 L260.45 212.0 Q257.2 210.7 257.2 208.85 257.2 207.5 258.95 206.45 M291.95 199.4 Q290.0 200.0 289.7 201.25 L289.6 201.65 289.7 201.25 Q290.0 200.0 291.95 199.4" fill="#d85050" fill-rule="evenodd" stroke="none"/>
    <path d="M234.6 195.85 L234.45 195.9 Q232.75 196.95 232.75 198.3 232.7 200.1 235.95 201.45 L236.4 201.65 Q240.05 203.0 245.25 203.0 250.45 203.0 254.1 201.65 256.8 200.6 257.55 199.3 L257.65 199.1 257.75 198.65 257.8 198.3 Q257.75 196.35 254.1 195.0 250.45 193.6 245.25 193.6 240.05 193.6 236.4 195.0 235.3 195.4 234.6 195.85 M275.05 191.55 L274.55 191.4 Q271.7 190.3 271.7 188.8 271.7 187.75 273.0 186.95 L273.1 186.9 Q273.7 186.5 274.55 186.2 277.4 185.15 281.45 185.15 285.45 185.15 288.3 186.2 289.65 186.7 290.35 187.3 L290.45 187.4 Q293.55 185.2 298.4 183.95 303.4 182.6 307.3 183.0 311.2 183.35 311.7 185.25 L311.75 186.0 311.6 186.65 Q311.05 187.9 309.0 189.4 305.8 191.65 300.8 193.0 L299.5 193.35 301.15 193.9 Q303.95 194.95 304.65 196.35 L304.85 197.2 304.8 197.55 304.7 198.0 M307.8 201.65 L311.2 203.6 Q313.55 205.25 313.9 206.75 L313.9 207.75 313.55 208.45 313.4 208.6 Q312.4 209.7 309.45 210.0 305.55 210.35 300.55 209.05 296.95 208.05 294.25 206.6 L292.85 205.75 292.45 205.5 292.35 205.4 292.1 205.25 Q289.5 203.3 289.6 201.65 L289.45 201.8 Q286.05 201.5 283.45 200.55 L283.0 200.35 Q279.75 199.05 279.8 197.2 279.75 196.35 280.5 195.6 L281.6 194.75 Q282.35 194.3 283.45 193.9 285.55 193.1 288.15 192.75 287.65 192.3 287.5 191.7 L287.5 191.65 Q287.3 190.95 287.7 190.2 287.95 189.6 288.55 188.95 L288.65 188.85 290.2 187.55 290.45 187.4 M275.05 191.55 Q277.75 192.45 281.45 192.45 284.9 192.45 287.5 191.65 M258.95 206.45 Q257.2 207.5 257.2 208.85 257.2 210.7 260.45 212.0 L260.85 212.2 Q264.55 213.55 269.75 213.55 274.9 213.55 278.6 212.2 281.3 211.15 282.0 209.85 L282.1 209.65 282.25 209.2 282.25 208.85 Q282.25 206.9 278.6 205.55 274.9 204.15 269.75 204.15 264.55 204.15 260.85 205.55 259.8 205.95 259.05 206.4 L258.95 206.45 M299.05 199.15 L302.65 199.9 303.0 199.95 Q305.65 200.65 307.8 201.65 M299.5 193.35 L291.9 194.0 290.8 193.85 Q289.0 193.5 288.15 192.75 M292.4 199.3 L294.05 199.0 299.05 199.15 M292.1 199.35 L291.95 199.4 Q290.0 200.0 289.7 201.25 L289.6 201.65 M292.1 199.35 L292.4 199.3" ffdec:has-small-stroke="true" ffdec:original-stroke-width="0.05" fill="none" stroke="#a62626" stroke-linecap="round" stroke-linejoin="round" stroke-width="1.0"/>
    <path d="M257.75 198.65 Q260.95 199.95 261.0 201.8 L260.85 202.6 Q260.25 204.05 257.3 205.15 253.65 206.5 248.45 206.5 243.25 206.5 239.6 205.15 235.9 203.75 235.95 201.8 L235.95 201.45 M311.6 186.65 Q314.45 187.1 314.9 188.75 L314.95 189.5 Q314.75 191.05 312.2 192.9 309.2 195.0 304.65 196.35 M304.8 197.55 Q308.0 198.85 308.05 200.7 L307.9 201.5 307.8 201.65 M313.9 206.75 L314.4 207.1 Q317.55 209.35 317.1 211.25 L316.75 211.95 Q315.75 213.2 312.65 213.5 308.75 213.85 303.75 212.55 300.15 211.55 297.45 210.1 L294.7 209.35 Q291.85 208.3 291.85 206.8 L292.05 206.05 M289.6 204.85 Q288.0 204.55 286.65 204.05 282.95 202.65 283.0 200.7 L283.0 200.35 M280.5 195.6 L277.75 194.9 Q274.9 193.8 274.9 192.3 274.9 191.9 275.05 191.55 M282.25 209.2 Q285.45 210.5 285.45 212.35 L285.3 213.15 Q284.7 214.6 281.8 215.7 278.1 217.05 272.95 217.05 267.75 217.05 264.05 215.7 260.4 214.3 260.4 212.35 L260.45 212.0 M293.05 206.35 Q293.65 207.55 295.55 208.9 L297.45 210.1" ffdec:has-small-stroke="true" ffdec:original-stroke-width="0.05" fill="none" stroke="#ccb266" stroke-linecap="round" stroke-linejoin="round" stroke-width="1.0"/>
  </g>
</svg>
