<?xml version="1.0" encoding="UTF-8" standalone="no"?>
<svg xmlns:ffdec="https://www.free-decompiler.com/flash" xmlns:xlink="http://www.w3.org/1999/xlink" ffdec:objectType="shape" height="167.95px" width="221.1px" xmlns="http://www.w3.org/2000/svg">
  <g transform="matrix(1.0, 0.0, 0.0, 1.0, -91.05, -168.9)">
    <path d="M227.5 174.85 L215.85 174.85 Q245.1 168.05 260.7 170.6 264.0 177.35 253.5 181.05 L253.6 180.1 Q253.6 176.85 249.2 174.55 244.8 172.25 238.6 172.25 232.4 172.25 228.0 174.55 L227.5 174.85 M173.5 219.5 L175.0 219.5 176.5 219.5 179.5 226.25 178.7 232.55 Q174.65 245.0 157.75 259.0 L160.25 265.55 Q174.15 244.95 195.35 231.65 187.0 243.95 185.6 244.9 182.3 247.05 182.3 249.35 182.3 251.65 185.6 253.25 188.9 254.85 193.55 254.85 198.2 254.85 201.5 253.25 204.8 251.65 204.8 249.35 204.8 247.05 201.5 241.1 L201.05 240.3 Q229.4 230.55 245.85 213.7 248.35 215.2 251.45 215.2 256.0 215.2 259.2 211.95 262.45 208.75 262.45 204.2 262.45 199.65 259.2 196.4 257.75 194.95 256.0 194.15 L256.75 196.2 Q257.55 199.15 257.55 203.3 257.55 207.45 256.75 210.4 256.0 213.35 254.9 213.35 253.8 213.35 253.0 210.4 252.25 207.45 252.25 203.3 252.25 199.15 253.0 196.2 253.55 194.15 254.25 193.55 L251.45 193.2 Q248.95 193.2 246.8 194.2 245.65 190.6 243.55 187.55 246.65 186.95 249.2 185.65 L251.2 184.4 269.75 173.45 Q274.75 176.05 276.9 180.65 L278.1 183.3 Q287.45 203.65 296.3 213.15 305.1 222.6 306.15 254.55 L311.15 274.4 Q301.25 278.45 298.3 291.7 L292.55 300.55 261.0 311.9 254.6 319.75 245.55 320.3 250.05 317.6 Q253.3 315.6 254.85 309.45 256.35 303.3 254.95 298.6 253.5 293.9 247.85 295.85 242.15 297.8 240.7 301.15 239.25 304.5 238.65 309.2 238.0 313.85 238.5 316.65 L239.25 320.7 Q235.8 316.0 235.8 309.45 235.8 306.05 236.75 303.15 229.85 305.3 220.55 305.55 218.6 306.55 216.35 306.55 213.9 306.55 211.8 305.3 L207.9 305.0 Q196.15 314.35 170.55 318.25 L180.0 320.95 212.35 320.95 192.2 333.9 Q167.0 329.65 142.8 322.8 141.85 318.65 132.9 316.7 105.55 311.35 95.65 304.1 94.05 302.95 93.2 301.05 L129.1 298.75 Q129.9 300.55 131.45 302.1 134.75 305.4 139.45 305.4 144.15 305.4 147.45 302.1 149.55 300.0 150.3 297.4 L156.0 297.0 Q202.7 290.95 200.8 265.55 L192.7 265.55 Q192.1 267.8 189.05 269.55 185.3 271.7 180.0 271.7 176.4 271.7 173.45 270.7 L170.9 269.55 Q167.9 267.8 167.3 265.55 L160.25 265.55 140.95 265.55 Q142.85 260.7 120.35 264.3 136.15 254.15 145.75 253.35 L164.25 236.5 169.75 225.0 162.0 228.0 173.5 219.5 M300.8 269.45 L305.05 263.65 Q281.15 233.05 277.95 199.2 276.1 264.7 253.55 259.8 259.0 281.95 251.0 293.35 254.65 294.25 257.4 297.85 261.1 302.65 261.1 309.45 L261.0 311.9 279.7 297.9 286.25 289.1 Q284.25 288.15 282.6 286.5 279.0 282.9 279.0 277.75 279.0 272.6 282.6 268.95 L284.05 267.7 283.5 267.75 Q281.0 267.75 279.25 264.45 277.5 261.15 277.5 256.45 277.5 251.75 279.25 248.45 281.0 245.15 283.5 245.15 286.0 245.15 287.75 248.45 289.5 251.75 289.5 256.45 289.5 261.15 287.75 264.45 L286.5 266.3 Q288.75 265.35 291.4 265.35 296.55 265.35 300.15 268.95 L300.7 269.55 300.8 269.45 M253.75 253.0 Q251.6 238.7 267.5 227.5 243.7 231.35 253.75 253.0 M225.65 237.55 L225.2 237.55 Q221.55 237.55 218.95 240.1 217.3 241.8 216.7 243.95 L216.6 244.45 Q214.4 246.9 214.4 250.3 L214.4 250.35 Q214.4 253.45 216.25 255.75 L216.95 256.5 218.45 257.75 218.55 257.85 219.65 259.1 Q221.55 261.0 223.8 261.95 224.75 263.65 226.9 262.85 L227.05 262.8 228.75 262.9 Q234.05 262.9 237.8 259.1 241.6 255.35 241.6 250.05 241.6 244.75 237.8 240.95 234.05 237.2 228.75 237.2 L225.65 237.55 Q229.0 237.7 231.4 240.1 233.85 242.55 234.0 246.0 235.85 248.3 235.85 251.4 235.85 255.05 233.05 258.35 230.25 261.55 227.05 262.8 L227.0 262.75 Q219.2 254.85 225.65 246.95 L225.65 237.55 M221.4 203.15 L230.05 207.65 Q229.25 220.1 217.0 222.65 L202.75 226.75 200.85 222.55 Q226.5 211.8 221.4 203.15 M188.2 267.3 Q189.3 264.35 189.3 263.5 189.3 262.65 186.05 262.05 L178.3 261.45 170.5 262.05 Q167.3 262.65 167.2 263.6 167.05 264.5 169.75 267.9 171.05 269.6 173.55 270.35 L179.75 270.8 Q187.05 270.25 188.2 267.3 M190.5 301.2 Q189.85 298.65 186.65 296.7 182.7 294.3 177.1 294.3 171.5 294.3 167.5 296.7 164.65 298.45 158.55 307.35 168.1 300.05 173.75 300.05 L185.95 300.65 190.5 301.2 Q189.05 302.6 184.45 303.25 179.85 303.9 174.35 305.35 168.85 306.75 165.0 306.25 L167.5 308.3 Q170.55 310.15 177.0 311.2 176.65 309.2 178.2 308.75 184.85 306.8 187.7 306.2 190.55 305.55 190.5 301.2 M228.75 275.55 L226.6 274.3 Q225.2 273.3 223.7 272.6 L223.6 272.55 225.1 274.55 Q228.75 280.05 225.6 288.55 L221.15 299.65 Q219.9 302.3 225.0 301.25 L225.2 301.1 228.85 299.1 238.95 293.45 238.95 281.5 228.75 275.55 M217.2 301.5 Q213.9 296.95 211.55 289.15 209.2 281.3 216.85 270.55 206.7 267.6 204.0 274.15 201.3 280.65 201.3 287.25 201.3 293.85 206.3 298.85 L217.2 301.5" fill="#51aaae" fill-rule="evenodd" stroke="none"/>
    <path d="M215.85 174.85 L227.5 174.85 208.8 194.4 175.0 219.5 173.5 219.5 160.0 219.5 135.6 246.4 114.8 258.8 92.1 293.7 Q92.6 284.0 100.5 266.55 L102.25 262.85 119.95 244.25 Q138.95 236.5 152.65 220.05 156.1 215.9 160.55 213.8 165.0 211.7 172.55 208.35 197.9 194.35 202.2 185.75 L215.85 174.85" fill="#f2f9f8" fill-rule="evenodd" stroke="none"/>
    <path d="M227.5 174.85 L228.0 174.55 Q232.4 172.25 238.6 172.25 244.8 172.25 249.2 174.55 253.6 176.85 253.6 180.1 L253.5 181.05 Q253.1 182.85 251.2 184.4 L249.2 185.65 Q246.65 186.95 243.55 187.55 245.65 190.6 246.8 194.2 245.1 194.95 243.65 196.4 240.45 199.65 240.45 204.2 240.45 208.75 243.65 211.95 244.7 213.0 245.85 213.7 229.4 230.55 201.05 240.3 L201.5 241.1 Q204.8 247.05 204.8 249.35 204.8 251.65 201.5 253.25 198.2 254.85 193.55 254.85 188.9 254.85 185.6 253.25 182.3 251.65 182.3 249.35 182.3 247.05 185.6 244.9 187.0 243.95 195.35 231.65 186.2 229.45 178.7 232.55 L179.5 226.25 176.5 219.5 175.0 219.5 208.8 194.4 227.5 174.85 M92.1 293.7 L114.8 258.8 135.6 246.4 160.0 219.5 173.5 219.5 162.0 228.0 169.75 225.0 164.25 236.5 145.75 253.35 Q136.15 254.15 120.35 264.3 142.85 260.7 140.95 265.55 L160.25 265.55 167.3 265.55 Q167.9 267.8 170.9 269.55 L173.45 270.7 Q176.4 271.7 180.0 271.7 185.3 271.7 189.05 269.55 192.1 267.8 192.7 265.55 L200.8 265.55 Q202.7 290.95 156.0 297.0 L150.3 297.4 Q149.55 300.0 147.45 302.1 144.15 305.4 139.45 305.4 134.75 305.4 131.45 302.1 129.9 300.55 129.1 298.75 L93.2 301.05 Q91.85 298.2 92.1 293.7 M122.0 286.0 Q163.45 287.1 139.6 276.4 163.45 287.1 122.0 286.0 109.25 280.05 132.8 276.8 109.25 280.05 122.0 286.0 M225.65 237.55 L228.75 237.2 Q234.05 237.2 237.8 240.95 241.6 244.75 241.6 250.05 241.6 255.35 237.8 259.1 234.05 262.9 228.75 262.9 L227.05 262.8 Q230.25 261.55 233.05 258.35 235.85 255.05 235.85 251.4 235.85 248.3 234.0 246.0 233.85 242.55 231.4 240.1 229.0 237.7 225.65 237.55 M218.55 257.85 L218.45 257.75 218.5 257.75 218.45 257.75 218.5 257.8 218.6 257.85 218.55 257.85 M200.85 222.55 L202.75 226.75 217.0 222.65 Q229.25 220.1 230.05 207.65 L221.4 203.15 Q226.5 211.8 200.85 222.55 205.2 212.65 219.9 203.05 209.4 205.25 200.85 212.8 193.45 222.0 200.85 222.55 M188.2 267.3 Q187.05 270.25 179.75 270.8 L173.55 270.35 Q171.05 269.6 169.75 267.9 167.05 264.5 167.2 263.6 167.3 262.65 170.5 262.05 L178.3 261.45 186.05 262.05 Q189.3 262.65 189.3 263.5 189.3 264.35 188.2 267.3 M226.6 274.3 L228.5 275.95 Q233.2 280.65 233.2 287.25 233.2 293.85 228.5 298.5 226.95 300.05 225.2 301.1 L225.0 301.25 Q219.9 302.3 221.15 299.65 L225.6 288.55 Q228.75 280.05 225.1 274.55 L223.6 272.55 223.7 272.6 Q225.2 273.3 226.6 274.3" fill="#d1e9e8" fill-rule="evenodd" stroke="none"/>
    <path d="M245.85 213.7 Q244.7 213.0 243.65 211.95 240.45 208.75 240.45 204.2 240.45 199.65 243.65 196.4 245.1 194.95 246.8 194.2 248.95 193.2 251.45 193.2 L254.25 193.55 Q253.55 194.15 253.0 196.2 252.25 199.15 252.25 203.3 252.25 207.45 253.0 210.4 253.8 213.35 254.9 213.35 256.0 213.35 256.75 210.4 257.55 207.45 257.55 203.3 257.55 199.15 256.75 196.2 L256.0 194.15 Q257.75 194.95 259.2 196.4 262.45 199.65 262.45 204.2 262.45 208.75 259.2 211.95 256.0 215.2 251.45 215.2 248.35 215.2 245.85 213.7 M192.2 333.9 L212.35 320.95 180.0 320.95 170.55 318.25 Q196.15 314.35 207.9 305.0 L211.8 305.3 Q213.9 306.55 216.35 306.55 218.6 306.55 220.55 305.55 229.85 305.3 236.75 303.15 235.8 306.05 235.8 309.45 235.8 316.0 239.25 320.7 L238.5 316.65 Q238.0 313.85 238.65 309.2 239.25 304.5 240.7 301.15 242.15 297.8 247.85 295.85 253.5 293.9 254.95 298.6 256.35 303.3 254.85 309.45 253.3 315.6 250.05 317.6 L245.55 320.3 254.6 319.75 248.2 327.6 204.8 335.85 192.2 333.9 M261.0 311.9 L261.1 309.45 Q261.1 302.65 257.4 297.85 254.65 294.25 251.0 293.35 259.0 281.95 253.55 259.8 276.1 264.7 277.95 199.2 281.15 233.05 305.05 263.65 L300.8 269.45 300.15 268.95 Q296.55 265.35 291.4 265.35 288.75 265.35 286.5 266.3 L287.75 264.45 Q289.5 261.15 289.5 256.45 289.5 251.75 287.75 248.45 286.0 245.15 283.5 245.15 281.0 245.15 279.25 248.45 277.5 251.75 277.5 256.45 277.5 261.15 279.25 264.45 281.0 267.75 283.5 267.75 L284.05 267.7 282.6 268.95 Q279.0 272.6 279.0 277.75 279.0 282.9 282.6 286.5 284.25 288.15 286.25 289.1 L279.7 297.9 261.0 311.9 M267.5 227.5 Q251.6 238.7 253.75 253.0 243.7 231.35 267.5 227.5 M216.7 243.95 Q217.3 241.8 218.95 240.1 221.55 237.55 225.2 237.55 L225.65 237.55 225.65 246.95 Q219.2 254.85 227.0 262.75 L226.9 262.85 Q224.75 263.65 223.8 261.95 221.55 261.0 219.65 259.1 L219.95 258.5 222.5 259.1 218.5 257.8 218.45 257.75 218.5 257.75 218.45 257.75 216.95 256.5 216.25 255.75 Q214.4 253.45 214.4 250.35 L214.4 250.3 Q214.4 246.9 216.6 244.45 L216.95 244.05 216.7 243.95 M228.5 275.95 L228.75 275.55 238.95 281.5 238.95 293.45 228.85 299.1 228.5 298.5 Q233.2 293.85 233.2 287.25 233.2 280.65 228.5 275.95" fill="#264d4d" fill-rule="evenodd" stroke="none"/>
    <path d="M253.5 181.05 Q264.0 177.35 260.7 170.6 266.0 171.45 269.75 173.45 L251.2 184.4 Q253.1 182.85 253.5 181.05 M195.35 231.65 Q174.15 244.95 160.25 265.55 L157.75 259.0 Q174.65 245.0 178.7 232.55 186.2 229.45 195.35 231.65 M300.8 269.45 L300.7 269.55 300.15 268.95 300.8 269.45 M227.05 262.8 L226.9 262.85 227.0 262.75 227.05 262.8 M219.65 259.1 L218.55 257.85 218.6 257.85 219.95 258.5 219.65 259.1 M200.85 222.55 Q193.45 222.0 200.85 212.8 209.4 205.25 219.9 203.05 205.2 212.65 200.85 222.55 M190.5 301.2 L185.95 300.65 173.75 300.05 Q168.1 300.05 158.55 307.35 164.65 298.45 167.5 296.7 171.5 294.3 177.1 294.3 182.7 294.3 186.65 296.7 189.85 298.65 190.5 301.2 M228.5 275.95 L226.6 274.3 228.75 275.55 228.5 275.95 M225.2 301.1 Q226.95 300.05 228.5 298.5 L228.85 299.1 225.2 301.1 M206.3 298.85 Q201.3 293.85 201.3 287.25 201.3 280.65 204.0 274.15 206.7 267.6 216.85 270.55 209.2 281.3 211.55 289.15 213.9 296.95 217.2 301.5 L206.3 298.85" fill="#316666" fill-rule="evenodd" stroke="none"/>
    <path d="M190.5 301.2 Q190.55 305.55 187.7 306.2 184.85 306.8 178.2 308.75 176.65 309.2 177.0 311.2 170.55 310.15 167.5 308.3 L165.0 306.25 Q168.85 306.75 174.35 305.35 179.85 303.9 184.45 303.25 189.05 302.6 190.5 301.2" fill="#a0d1cd" fill-rule="evenodd" stroke="none"/>
    <path d="M260.7 170.6 Q245.1 168.05 215.85 174.85 L202.2 185.75 Q197.9 194.35 172.55 208.35 165.0 211.7 160.55 213.8 156.1 215.9 152.65 220.05 138.95 236.5 119.95 244.25 L102.25 262.85 100.5 266.55 Q92.6 284.0 92.1 293.7 91.85 298.2 93.2 301.05 94.05 302.95 95.65 304.1 105.55 311.35 132.9 316.7 141.85 318.65 142.8 322.8 167.0 329.65 192.2 333.9 L204.8 335.85 248.2 327.6 254.6 319.75 261.0 311.9 292.55 300.55 298.3 291.7 Q301.25 278.45 311.15 274.4 L306.15 254.55 Q305.1 222.6 296.3 213.15 287.45 203.65 278.1 183.3 L276.9 180.65 Q274.75 176.05 269.75 173.45 266.0 171.45 260.7 170.6" fill="none" stroke="#000000" stroke-linecap="round" stroke-linejoin="round" stroke-width="2.0"/>
    <path d="M251.2 184.4 Q253.1 182.85 253.5 181.05 M245.85 213.7 Q244.7 213.0 243.65 211.95 240.45 208.75 240.45 204.2 240.45 199.65 243.65 196.4 245.1 194.95 246.8 194.2 M201.05 240.3 L201.5 241.1 Q204.8 247.05 204.8 249.35 204.8 251.65 201.5 253.25 198.2 254.85 193.55 254.85 188.9 254.85 185.6 253.25 182.3 251.65 182.3 249.35 182.3 247.05 185.6 244.9 187.0 243.95 195.35 231.65 186.2 229.45 178.7 232.55 L179.5 226.25 176.5 219.5 175.0 219.5 M192.7 265.55 L200.8 265.55 Q202.7 290.95 156.0 297.0 L150.3 297.4 Q149.55 300.0 147.45 302.1 144.15 305.4 139.45 305.4 134.75 305.4 131.45 302.1 129.9 300.55 129.1 298.75 M192.2 333.9 L212.35 320.95 M180.0 320.95 L170.55 318.25 M207.9 305.0 L211.8 305.3 M239.25 320.7 L238.5 316.65 Q238.0 313.85 238.65 309.2 239.25 304.5 240.7 301.15 242.15 297.8 247.85 295.85 253.5 293.9 254.95 298.6 256.35 303.3 254.85 309.45 253.3 315.6 250.05 317.6 L245.55 320.3 M286.25 289.1 L279.7 297.9 M267.5 227.5 Q243.7 231.35 253.75 253.0 M225.65 237.55 L228.75 237.2 Q234.05 237.2 237.8 240.95 241.6 244.75 241.6 250.05 241.6 255.35 237.8 259.1 234.05 262.9 228.75 262.9 L227.05 262.8 M218.45 257.75 L216.95 256.5 216.25 255.75 Q214.4 253.45 214.4 250.35 L214.4 250.3 Q214.4 246.9 216.6 244.45 M200.85 222.55 Q193.45 222.0 200.85 212.8 209.4 205.25 219.9 203.05 205.2 212.65 200.85 222.55 226.5 211.8 221.4 203.15 M145.75 253.35 L164.25 236.5 169.75 225.0 162.0 228.0 M188.2 267.3 Q187.05 270.25 179.75 270.8 L173.55 270.35 Q171.05 269.6 169.75 267.9 167.05 264.5 167.2 263.6 167.3 262.65 170.5 262.05 L178.3 261.45 186.05 262.05 Q189.3 262.65 189.3 263.5 189.3 264.35 188.2 267.3 M228.5 298.5 Q233.2 293.85 233.2 287.25 233.2 280.65 228.5 275.95 M217.2 301.5 L206.3 298.85" fill="none" stroke="#9ccfce" stroke-linecap="round" stroke-linejoin="round" stroke-width="2.0"/>
    <path d="M160.25 265.55 L167.3 265.55 M145.75 253.35 Q136.15 254.15 120.35 264.3 M162.0 228.0 L173.5 219.5" fill="none" stroke="#ffffff" stroke-linecap="round" stroke-linejoin="round" stroke-width="2.0"/>
    <path d="M139.6 276.4 Q163.45 287.1 122.0 286.0" fill="none" stroke="#51aaae" stroke-linecap="round" stroke-linejoin="round" stroke-width="2.0"/>
    <path d="M122.0 286.0 Q109.25 280.05 132.8 276.8" fill="none" stroke="#a0d1d0" stroke-linecap="round" stroke-linejoin="round" stroke-width="2.0"/>
  </g>
</svg>
