<?xml version="1.0" encoding="UTF-8" standalone="no"?>
<svg xmlns:ffdec="https://www.free-decompiler.com/flash" xmlns:xlink="http://www.w3.org/1999/xlink" ffdec:objectType="shape" height="278.95px" width="280.95px" xmlns="http://www.w3.org/2000/svg">
  <g transform="matrix(1.0, 0.0, 0.0, 1.0, -84.0, -109.0)">
    <path d="M339.9 375.8 L349.1 362.45 342.45 350.45 326.45 345.15 325.95 344.05 324.65 344.6 290.5 323.8 263.85 317.15 224.25 335.25 218.55 334.45 218.55 343.8 177.2 343.8 183.9 321.15 155.9 313.15 144.5 370.0 143.45 369.9 114.8 314.55 126.65 308.65 136.3 304.55 140.0 302.95 140.75 303.2 156.5 308.45 166.0 298.95 195.45 312.1 204.35 316.1 211.3 319.2 216.95 321.75 232.95 310.95 275.95 303.95 279.35 307.35 289.95 317.95 291.55 306.25 314.95 317.95 314.95 333.95 349.95 337.95 350.95 348.95 359.8 342.75 364.95 360.95 359.95 376.95 339.9 375.8 M158.0 308.95 L156.5 308.45 158.0 308.95 M126.65 308.65 L127.0 309.95 126.65 308.65" fill="#0c6d65" fill-rule="evenodd" stroke="none"/>
    <path d="M161.95 109.1 L162.0 109.0 163.2 109.75 161.95 109.1 M136.3 304.55 L122.2 227.8 122.95 225.7 130.9 226.9 148.1 229.45 192.0 236.0 192.65 250.1 Q176.6 249.85 133.3 242.35 L140.75 303.2 140.0 302.95 136.3 304.55" fill="#0f9f89" fill-rule="evenodd" stroke="none"/>
    <path d="M177.15 135.05 Q274.05 204.6 202.5 223.05 L177.15 135.05 M163.2 109.75 L167.4 128.2 189.65 225.75 180.65 227.05 173.6 184.0 Q160.8 85.65 149.15 166.1 L130.9 226.9 122.95 225.7 122.2 227.8 136.3 304.55 126.65 308.65 104.1 223.25 105.0 223.0 122.95 225.7 105.0 223.0 104.2 222.6 161.95 109.1 163.2 109.75" fill="#0b6f57" fill-rule="evenodd" stroke="none"/>
    <path d="M204.35 316.1 L195.45 312.1 192.65 250.1 192.0 236.0 189.65 225.75 202.45 223.1 205.0 231.85 205.3 232.85 208.2 242.9 205.75 289.55 204.35 316.1 M163.2 109.75 L170.95 114.6 176.25 132.85 176.8 134.8 167.4 128.2 163.2 109.75 M205.0 231.85 L192.0 236.0 205.0 231.85" fill="#e8fdf8" fill-rule="evenodd" stroke="none"/>
    <path d="M192.0 236.0 L148.1 229.45 Q166.3 228.85 180.65 227.05 L189.65 225.75 192.0 236.0" fill="#0f9576" fill-rule="evenodd" stroke="none"/>
    <path d="M279.35 307.35 L275.95 303.95 232.95 310.95 216.95 321.75 211.3 319.2 244.4 242.9 289.65 217.25 291.15 217.45 279.35 307.35 M195.45 312.1 L166.0 298.95 156.5 308.45 140.75 303.2 133.3 242.35 Q176.6 249.85 192.65 250.1 L195.45 312.1 M205.0 231.85 L227.05 224.75 221.95 236.25 223.3 236.85 205.75 289.55 208.2 242.9 205.3 232.85 205.0 231.85 205.3 232.85 205.0 231.85" fill="#0e896c" fill-rule="evenodd" stroke="none"/>
    <path d="M291.55 306.25 L289.95 317.95 279.35 307.35 291.15 217.45 289.65 217.25 244.4 242.9 211.3 319.2 204.35 316.1 205.75 289.55 223.3 236.85 221.95 236.25 227.05 224.75 205.0 231.85 202.5 223.05 205.0 231.85 202.45 223.1 202.5 223.05 Q274.05 204.6 177.15 135.05 L176.25 132.85 177.15 135.05 176.8 134.8 176.25 132.85 170.95 114.6 305.95 199.0 305.9 199.35 227.05 224.75 305.9 199.35 291.55 306.25 290.95 305.95 291.55 306.25" fill="#12b691" fill-rule="evenodd" stroke="none"/>
    <path d="M167.4 128.2 L176.8 134.8 177.15 135.05 202.5 223.05 202.45 223.1 189.65 225.75 167.4 128.2" fill="#a0f5db" fill-rule="evenodd" stroke="none"/>
    <path d="M148.1 229.45 L130.9 226.9 149.15 166.1 Q160.8 85.65 173.6 184.0 L180.65 227.05 Q166.3 228.85 148.1 229.45" fill="#0b6247" fill-rule="evenodd" stroke="none"/>
    <path d="M324.65 344.6 L325.95 344.05 326.45 345.15 342.45 350.45 349.1 362.45 339.9 375.8 254.95 370.95 186.0 387.95 173.0 371.95 144.5 370.0 155.9 313.15 183.9 321.15 177.2 343.8 218.55 343.8 218.55 334.45 224.25 335.25 257.2 339.8 266.5 319.8 290.5 359.8 324.65 344.6 M114.8 314.55 L143.45 369.9 87.0 365.95 84.0 348.95 103.0 334.95 108.0 317.95 114.8 314.55" fill="#053022" fill-rule="evenodd" stroke="none"/>
    <path d="M224.25 335.25 L263.85 317.15 290.5 323.8 324.65 344.6 290.5 359.8 266.5 319.8 257.2 339.8 224.25 335.25" fill="#13a892" fill-rule="evenodd" stroke="none"/>
    <path d="M339.9 375.8 L359.95 376.95 364.95 360.95 359.8 342.75 350.95 348.95 349.95 337.95 314.95 333.95 314.95 317.95 291.55 306.25 289.95 317.95 279.35 307.35 275.95 303.95 232.95 310.95 216.95 321.75 211.3 319.2 204.35 316.1 195.45 312.1 166.0 298.95 156.5 308.45 158.0 308.95 M359.8 342.75 L360.95 341.95 M161.95 109.1 L162.0 109.0 163.2 109.75 170.95 114.6 305.95 199.0 305.9 199.35 306.95 199.0 M205.0 231.85 L227.05 224.75 305.9 199.35 291.55 306.25 290.95 305.95 M163.2 109.75 L167.4 128.2 189.65 225.75 192.0 236.0 205.0 231.85 M136.3 304.55 L140.0 302.95 140.75 303.2 156.5 308.45 M192.65 250.1 L192.0 236.0 148.1 229.45 130.9 226.9 122.95 225.7 105.0 223.0 M104.1 223.25 L126.65 308.65 136.3 304.55 M104.1 223.25 L104.0 223.0 104.2 222.6 161.95 109.1 M127.0 309.95 L126.65 308.65 114.8 314.55 108.0 317.95 103.0 334.95 84.0 348.95 87.0 365.95 143.45 369.9 144.5 370.0 173.0 371.95 186.0 387.95 254.95 370.95 339.9 375.8 M192.65 250.1 L195.45 312.1" ffdec:has-small-stroke="true" ffdec:original-stroke-width="0.05" fill="none" stroke="#660000" stroke-linecap="round" stroke-linejoin="round" stroke-width="1.0"/>
    <path d="M176.25 132.85 L177.15 135.05 202.5 223.05 205.0 231.85 205.3 232.85 208.2 242.9" ffdec:has-small-stroke="true" ffdec:original-stroke-width="0.05" fill="none" stroke="#66ff00" stroke-linecap="round" stroke-linejoin="round" stroke-width="1.0"/>
  </g>
</svg>
