<?xml version="1.0" encoding="UTF-8" standalone="no"?>
<svg xmlns:ffdec="https://www.free-decompiler.com/flash" xmlns:xlink="http://www.w3.org/1999/xlink" ffdec:objectType="shape" height="33.6px" width="28.85px" xmlns="http://www.w3.org/2000/svg">
  <g transform="matrix(1.0, 0.0, 0.0, 1.0, -317.95, -129.1)">
    <path d="M332.55 145.3 L332.9 145.0 333.25 144.7 Q338.8 139.9 343.15 134.3 L339.25 142.8 337.65 143.15 337.7 145.35 326.25 157.95 Q322.6 160.55 318.5 162.7 L318.15 154.65 321.85 152.5 323.9 151.2 324.3 151.0 327.9 152.05 331.35 149.75 332.55 145.3 M324.85 156.55 L325.4 154.55 321.8 153.75 320.95 157.7 324.85 156.55" fill="#f2ebc1" fill-rule="evenodd" stroke="none"/>
    <path d="M343.15 134.3 Q338.8 139.9 333.25 144.7 L332.9 145.0 332.55 145.3 332.6 145.0 329.3 145.0 325.5 147.7 324.85 150.65 324.3 151.0 323.9 151.2 321.85 152.5 318.15 154.65 317.95 150.45 Q326.95 144.6 332.9 136.6 340.05 135.05 344.5 131.4 L346.8 129.1 343.15 134.3" fill="#e6e0b8" fill-rule="evenodd" stroke="none"/>
    <path d="M332.55 145.3 L331.35 149.75 327.9 152.05 324.3 151.0 324.85 150.65 325.5 147.7 329.3 145.0 332.6 145.0 332.55 145.3 M324.85 156.55 L320.95 157.7 321.8 153.75 325.4 154.55 324.85 156.55" fill="#728145" fill-rule="evenodd" stroke="none"/>
    <path d="M326.25 157.95 L337.7 145.35 337.75 146.85 Q332.85 153.2 326.25 157.95 M339.25 142.8 L343.15 134.3 346.8 129.1 345.35 133.9 Q343.35 138.4 340.85 142.45 L339.25 142.8" fill="#fbf9ec" fill-rule="evenodd" stroke="none"/>
    <path d="M318.5 162.7 Q322.6 160.55 326.25 157.95 332.85 153.2 337.75 146.85 M340.85 142.45 Q343.35 138.4 345.35 133.9" ffdec:has-small-stroke="true" ffdec:original-stroke-width="0.05" fill="none" stroke="#8a856e" stroke-linecap="round" stroke-linejoin="round" stroke-opacity="0.5019608" stroke-width="1.0"/>
    <path d="M332.9 136.6 Q326.95 144.6 317.95 150.45 M345.35 133.9 L346.8 129.1" ffdec:has-small-stroke="true" ffdec:original-stroke-width="0.05" fill="none" stroke="#e6e0c8" stroke-linecap="round" stroke-linejoin="round" stroke-opacity="0.5019608" stroke-width="1.0"/>
  </g>
</svg>
