<?xml version="1.0" encoding="UTF-8" standalone="no"?>
<svg xmlns:ffdec="https://www.free-decompiler.com/flash" xmlns:xlink="http://www.w3.org/1999/xlink" ffdec:objectType="shape" height="154.8px" width="275.15px" xmlns="http://www.w3.org/2000/svg">
  <g transform="matrix(1.0, 0.0, 0.0, 1.0, -162.6, -98.95)">
    <path d="M278.9 111.4 L278.95 111.3 292.2 113.8 292.25 113.8 292.25 113.75 295.7 111.1 307.5 112.55 322.6 119.05 333.1 128.1 333.6 128.55 334.95 128.05 338.7 126.65 350.0 127.2 357.25 130.9 358.1 134.65 358.5 136.35 358.45 136.4 358.5 136.4 365.05 138.95 372.45 141.85 372.4 142.05 371.95 141.95 371.45 141.8 361.75 143.7 344.1 146.95 355.95 156.55 367.75 166.15 355.6 167.7 347.55 162.15 337.75 162.6 343.15 165.35 344.35 170.75 344.3 170.85 351.95 173.8 358.25 176.3 358.2 176.5 357.25 176.25 340.05 179.5 329.95 181.4 341.8 190.95 353.6 200.6 341.45 202.15 333.4 196.6 316.85 197.35 323.75 203.75 322.05 206.55 319.7 205.25 299.25 188.7 293.0 176.3 299.25 188.7 286.95 178.75 293.0 176.3 300.0 173.4 292.65 175.6 288.9 168.05 290.8 166.5 288.9 168.05 288.65 167.6 288.35 166.95 Q288.7 165.65 291.15 165.2 L290.8 166.5 303.9 173.3 316.15 176.6 310.85 168.85 308.4 165.25 310.25 166.4 311.3 166.05 309.85 164.85 308.4 163.75 297.8 141.6 293.05 137.75 292.9 138.3 287.6 138.15 288.95 133.1 303.0 132.65 291.1 124.95 292.4 120.15 292.3 120.05 279.75 111.65 278.9 111.4 M359.75 165.6 L359.7 165.65 359.75 165.6 M335.85 161.65 L337.75 162.6 335.85 161.65 M345.55 200.1 L345.6 200.05 345.5 200.1 345.55 200.1 M343.4 212.2 L343.65 212.4 343.4 212.25 343.4 212.2 M341.15 222.2 L346.9 224.4 341.45 227.15 326.45 223.9 326.7 225.8 333.65 229.05 334.9 230.6 312.8 223.45 309.85 222.45 301.5 222.35 307.2 216.55 277.7 208.15 277.35 207.4 269.65 205.1 270.85 200.55 266.05 199.55 268.55 198.6 271.35 198.8 271.0 200.15 273.7 200.85 274.2 201.4 274.35 201.05 Q275.1 199.6 278.8 199.4 282.85 199.15 288.2 200.6 L322.2 212.8 309.7 213.8 341.15 222.2 M349.05 225.2 L349.6 225.4 346.95 226.45 349.05 225.2 M282.6 156.45 L282.7 156.45 283.95 151.7 286.25 152.15 282.9 158.9 282.15 158.45 282.15 158.5 281.35 161.35 280.1 166.05 276.9 166.15 265.6 158.2 282.6 156.45 M291.8 142.4 L291.3 144.35 289.05 143.25 286.25 143.15 291.8 142.4 M277.15 137.95 L275.6 137.9 274.65 137.65 274.7 137.5 277.15 137.95 M292.5 135.9 Q293.05 135.85 292.55 135.8 L292.05 135.7 292.5 135.9 M286.05 125.95 L290.95 125.65 288.95 133.0 281.3 133.0 271.5 126.75 286.05 125.95 M304.9 132.0 L296.8 138.75 293.05 137.75 296.8 138.75 304.9 132.0 318.05 138.85 330.25 142.15 322.5 130.8 319.2 128.8 319.1 127.5 307.0 124.25 304.9 132.0 M333.1 128.1 L322.5 130.8 333.1 128.1 M278.65 129.85 L278.65 129.9 278.7 129.9 278.65 129.85 M273.9 162.05 L273.9 162.15 273.95 162.1 273.9 162.05 M281.05 172.8 L280.35 172.6 281.05 172.8 282.65 173.25 286.0 177.55 285.6 177.65 278.9 172.25 280.35 172.6 278.85 170.8 279.4 170.8 281.05 172.8 M253.25 184.1 L254.05 184.2 255.4 186.95 253.25 184.1 M256.95 184.7 L264.85 185.95 274.1 188.45 272.4 194.85 261.05 191.2 256.95 184.7 M321.6 162.2 L322.7 161.8 322.5 161.65 321.6 162.2 M268.85 208.05 L276.05 209.1 273.5 210.5 268.5 209.35 268.85 208.05 M324.6 161.1 L322.5 161.65 324.6 161.1" fill="#ffffff" fill-rule="evenodd" stroke="none"/>
    <path d="M423.75 155.85 L421.15 166.25 421.15 166.2 409.1 161.5 423.75 155.85 M419.95 169.3 L415.95 179.35 396.75 166.85 399.45 165.2 410.95 169.15 Q417.65 171.55 419.95 169.3 M413.15 180.85 L412.75 181.05 410.5 182.25 410.2 182.05 409.75 182.15 392.05 168.05 393.8 167.4 413.15 180.85 M402.15 181.2 L403.65 187.9 403.95 188.75 377.2 181.6 380.2 177.95 372.2 180.25 358.2 176.5 358.25 176.3 351.95 173.8 352.8 172.35 355.65 172.05 394.35 174.7 402.15 181.2 M431.25 202.1 L431.65 202.4 437.75 206.9 421.25 215.65 415.95 214.85 409.95 213.75 406.95 211.1 408.85 210.15 406.95 211.1 404.25 212.55 402.5 213.5 401.8 213.8 382.6 201.3 385.35 199.65 396.85 203.6 400.4 204.65 Q404.6 205.4 406.15 203.35 406.75 202.5 406.95 201.2 L407.05 200.65 394.95 195.9 409.6 190.3 411.95 193.2 413.6 192.4 423.05 197.8 420.1 198.95 414.45 196.3 411.95 193.2 414.45 196.3 417.05 199.6 420.55 204.0 408.85 210.15 433.2 205.35 431.25 202.1 M398.95 215.3 L398.7 215.45 398.65 215.45 396.35 216.7 396.05 216.5 395.6 216.6 377.95 202.5 379.65 201.85 398.95 215.3 M388.0 215.65 L389.55 222.3 366.05 212.4 376.9 230.4 Q376.45 232.05 372.2 232.15 367.95 232.25 362.35 230.75 L358.0 229.05 355.7 228.0 353.85 227.15 349.6 225.4 349.05 225.2 350.75 224.15 346.9 224.4 341.15 222.2 352.15 222.55 349.5 218.05 335.9 211.2 338.75 206.8 341.5 206.5 380.2 209.15 388.0 215.65 M417.45 236.75 L417.5 236.85 423.55 241.4 407.15 250.05 401.8 249.25 395.85 248.2 392.25 245.05 419.1 239.8 417.15 236.55 417.45 236.75 M175.2 176.25 L168.8 173.65 162.6 155.0 166.95 154.75 167.95 154.7 173.4 154.4 174.15 154.35 168.7 156.2 189.95 177.9 182.7 179.05 175.2 176.25 M214.55 157.3 L221.6 152.45 234.1 151.2 255.0 157.4 257.0 157.95 257.3 157.95 265.6 158.2 276.9 166.15 279.4 168.75 280.1 166.05 281.35 161.35 283.55 161.65 288.35 166.95 288.65 167.6 279.4 170.8 278.85 170.8 279.1 169.75 277.05 171.0 274.1 177.6 258.65 176.55 252.6 179.4 264.85 185.95 256.95 184.7 252.95 182.05 254.05 184.2 253.25 184.1 247.35 183.25 244.75 183.0 241.4 182.7 235.3 181.75 Q228.0 179.85 223.6 177.0 219.15 174.25 220.2 172.35 L212.2 158.7 214.55 157.3 M213.6 149.15 L213.25 148.85 212.8 148.8 211.7 146.65 211.6 146.55 211.5 146.35 239.85 145.65 241.0 147.1 213.6 149.15 M210.1 143.65 L209.75 143.0 208.95 141.4 207.7 138.95 206.8 137.3 207.7 138.95 202.7 139.45 196.35 137.2 190.9 135.15 184.5 121.25 193.45 121.1 194.05 121.1 189.6 122.35 206.8 137.3 201.6 127.3 208.1 126.05 212.85 125.1 205.95 124.2 204.4 122.1 216.45 122.95 217.25 124.2 212.85 125.1 217.25 124.2 221.4 123.4 230.1 133.85 215.95 131.4 215.6 131.8 Q212.55 135.35 218.8 137.45 L222.75 138.45 236.1 141.2 237.5 143.8 210.1 143.65 M228.05 124.55 L233.85 121.1 244.4 120.5 279.25 135.8 281.5 137.3 281.7 138.75 277.15 137.95 274.7 137.5 274.65 137.65 268.7 136.05 260.15 133.75 254.5 128.7 254.95 132.4 227.25 124.95 228.05 124.55 M226.9 118.4 L226.6 118.15 226.25 118.1 225.15 116.45 225.0 116.2 249.1 116.55 250.15 117.65 226.9 118.4 M223.7 114.1 L215.6 101.45 232.35 98.95 240.3 107.3 228.1 105.0 Q224.3 108.5 234.25 110.55 L245.75 113.0 247.05 115.05 223.7 114.1 M408.9 232.25 L406.0 233.4 395.8 228.65 399.5 226.85 408.9 232.25 M343.65 212.4 L349.85 215.35 350.3 213.75 343.7 212.1 343.4 212.2 343.4 212.25 343.65 212.4 M357.8 214.75 Q357.25 216.0 357.05 217.35 L357.0 218.95 356.8 220.05 357.95 222.65 358.1 222.45 360.2 219.65 366.05 212.4 357.8 214.75 M186.45 155.25 L200.85 155.75 202.7 159.45 188.15 157.95 186.45 155.25 M252.2 168.45 L245.55 161.65 Q245.5 161.45 245.1 161.25 L245.5 161.6 245.55 161.65 Q246.15 168.85 246.35 176.05 L249.45 174.2 250.1 172.95 Q251.7 170.9 252.2 168.45 M268.5 174.45 L268.9 174.45 268.65 174.15 260.7 171.9 260.05 173.7 268.5 174.45" fill="#ffffff" fill-opacity="0.9019608" fill-rule="evenodd" stroke="none"/>
    <path d="M373.3 142.3 L423.75 155.85 409.1 161.5 373.3 142.3 M409.75 182.15 L402.15 181.2 394.35 174.7 375.9 170.35 374.25 169.85 374.3 169.9 374.15 169.9 373.9 169.75 367.75 166.15 355.95 156.55 393.8 167.4 392.05 168.05 409.75 182.15 M395.6 216.6 L388.0 215.65 380.2 209.15 361.75 204.8 359.85 204.2 353.6 200.6 341.8 190.95 379.65 201.85 377.95 202.5 395.6 216.6 M221.6 152.45 L213.6 149.15 241.0 147.1 239.85 145.65 282.6 156.45 265.6 158.2 257.3 157.95 255.0 157.4 234.1 151.2 221.6 152.45 M233.85 121.1 L226.9 118.4 250.15 117.65 249.1 116.55 286.05 125.95 271.5 126.75 264.4 126.3 262.4 125.85 244.4 120.5 233.85 121.1 M232.35 98.95 L278.9 111.4 279.75 111.65 292.3 120.05 283.75 118.9 240.3 107.3 232.35 98.95 M371.95 141.95 L361.75 143.7 371.45 141.8 371.95 141.95 M340.05 179.5 L357.25 176.25 358.2 176.5 372.2 180.25 377.2 181.6 403.95 188.75 409.6 190.3 394.95 195.9 348.5 183.4 340.05 179.5 M373.9 169.75 L374.25 169.85 373.9 169.75 M230.1 133.85 L221.4 123.4 227.25 124.95 254.95 132.4 260.15 133.75 268.7 136.05 230.1 133.85 M287.7 150.3 L300.85 160.85 292.85 158.7 291.15 165.2 Q288.7 165.65 288.35 166.95 L283.55 161.65 281.35 161.35 282.15 158.5 282.15 158.45 282.9 158.9 282.25 160.2 283.55 161.65 282.25 160.2 282.9 158.9 286.25 152.15 287.05 150.55 287.7 150.3 M302.8 161.35 L290.0 149.4 308.4 163.75 309.85 164.85 311.3 166.05 310.25 166.4 308.4 165.25 305.1 163.25 305.0 161.95 302.85 161.35 302.8 161.35 M278.85 170.8 L280.35 172.6 278.9 172.25 300.95 199.2 278.6 182.2 275.9 183.3 275.8 183.75 275.3 184.0 275.8 183.8 299.2 202.1 288.2 200.6 Q282.85 199.15 278.8 199.4 275.1 199.6 274.35 201.05 L274.2 201.4 273.7 200.85 271.45 198.35 272.4 194.85 274.1 188.45 274.7 186.3 272.55 182.9 272.1 182.15 274.1 177.6 277.05 171.0 279.1 169.75 278.85 170.8 M309.85 164.85 L308.4 165.25 309.85 164.85" fill="#a4a4c5" fill-opacity="0.7019608" fill-rule="evenodd" stroke="none"/>
    <path d="M365.9 245.9 L371.55 245.95 363.05 246.25 365.9 245.9 M317.7 248.55 L301.5 241.1 297.95 237.15 274.7 233.8 265.9 227.2 263.9 226.45 263.9 226.5 256.65 223.4 251.65 215.35 240.35 210.25 245.6 197.35 250.4 197.45 268.9 207.8 268.85 208.05 268.5 209.35 267.15 214.45 271.15 216.25 270.65 212.0 273.5 210.5 276.05 209.1 277.7 208.15 307.2 216.55 301.5 222.35 309.85 222.45 312.8 223.45 317.7 248.55 M359.85 204.2 L361.75 204.8 360.05 204.3 359.85 204.2 M357.45 233.25 L357.05 233.4 357.15 233.25 357.45 233.25 M257.3 157.95 L257.0 157.95 255.0 157.4 257.3 157.95 M272.4 227.65 L283.25 229.7 289.0 227.45 297.95 237.15 289.0 227.45 283.25 229.7 272.4 227.65" fill="#a4a4c5" fill-opacity="0.8" fill-rule="evenodd" stroke="none"/>
    <path d="M343.4 212.2 L343.7 212.1 350.3 213.75 349.85 215.35 343.65 212.4 343.4 212.2 M268.5 174.45 L260.05 173.7 260.7 171.9 268.65 174.15 268.9 174.45 268.5 174.45" fill="#a4a4c5" fill-opacity="0.3019608" fill-rule="evenodd" stroke="none"/>
    <path d="M415.95 214.85 L415.95 214.9 402.5 213.5 404.25 212.55 409.95 213.75 415.95 214.85 M401.8 249.25 L401.85 249.3 374.0 246.4 373.5 246.15 371.55 245.95 362.1 244.05 346.6 245.7 348.75 236.6 345.6 235.0 335.2 230.95 334.95 230.65 334.9 230.6 333.65 229.05 326.7 225.8 326.45 223.9 341.45 227.15 346.9 224.4 350.75 224.15 349.05 225.2 346.95 226.45 346.45 227.3 350.6 228.9 Q352.2 228.0 353.85 227.15 L355.7 228.0 353.65 230.25 358.0 229.05 362.35 230.75 357.45 233.25 357.15 233.25 357.05 233.4 364.05 241.4 395.85 248.2 401.8 249.25 M240.35 210.25 L223.85 197.05 209.0 191.6 208.2 191.6 175.2 176.3 175.2 176.25 182.7 179.05 224.15 192.55 238.85 188.0 238.9 187.8 238.65 187.6 235.3 181.75 241.4 182.7 245.15 186.7 244.75 183.0 247.35 183.25 249.6 187.25 255.4 188.1 255.4 186.95 254.05 184.2 252.95 182.05 256.95 184.7 261.05 191.2 272.4 194.85 271.45 198.35 273.7 200.85 271.0 200.15 271.35 198.8 268.55 198.6 266.05 199.55 265.45 199.75 250.4 197.45 245.6 197.35 240.35 210.25 M209.75 143.0 L196.35 137.25 196.35 137.2 202.7 139.45 208.95 141.4 209.75 143.0 M358.1 134.65 L365.65 136.65 365.05 138.95 358.5 136.4 358.45 136.4 358.5 136.35 358.1 134.65 M359.75 165.6 L359.7 165.65 359.75 165.6 M355.6 167.7 L349.45 169.8 352.8 172.35 351.95 173.8 344.3 170.85 344.35 170.75 343.15 165.35 337.75 162.6 347.55 162.15 355.6 167.7 M377.2 181.6 L372.2 180.25 380.2 177.95 377.2 181.6 M357.8 214.75 L366.05 212.4 360.2 219.65 358.1 222.45 357.95 222.65 356.8 220.05 357.0 218.95 357.05 217.35 Q357.25 216.0 357.8 214.75 M341.45 202.15 L335.3 204.2 338.75 206.8 335.9 211.2 334.8 213.65 341.15 222.2 309.7 213.8 322.2 212.8 288.2 200.6 299.2 202.1 275.8 183.8 275.8 183.75 275.9 183.3 278.6 182.2 300.95 199.2 278.9 172.25 285.6 177.65 286.85 178.65 286.95 178.75 299.25 188.7 308.05 206.25 286.85 178.65 308.05 206.25 299.25 188.7 319.7 205.25 322.05 206.55 323.75 203.75 316.85 197.35 333.4 196.6 341.45 202.15 M283.95 151.7 L287.7 150.3 287.05 150.55 286.25 152.15 283.95 151.7 M297.8 141.6 L291.8 142.4 292.9 138.3 293.05 137.75 297.8 141.6 M287.6 138.15 L287.15 139.7 281.7 138.75 281.5 137.3 285.8 137.15 281.3 133.0 288.95 133.0 288.95 133.1 287.6 138.15 M254.95 132.4 L254.5 128.7 260.15 133.75 254.95 132.4 M304.9 132.0 L307.0 124.25 319.1 127.5 319.2 128.8 322.5 130.8 330.25 142.15 318.05 138.85 304.9 132.0 M280.1 166.05 L279.4 168.75 276.9 166.15 280.1 166.05 M252.2 168.45 Q251.7 170.9 250.1 172.95 L249.45 174.2 246.35 176.05 Q246.15 168.85 245.55 161.65 L245.5 161.6 245.1 161.25 Q245.5 161.45 245.55 161.65 L252.2 168.45 M272.55 182.9 L274.7 186.3 274.1 188.45 264.85 185.95 272.55 182.9 M308.4 165.25 L310.85 168.85 316.15 176.6 303.9 173.3 290.8 166.5 291.15 165.2 292.85 158.7 300.85 160.85 310.85 168.85 302.8 161.35 302.85 161.35 305.0 161.95 305.1 163.25 308.4 165.25 M321.6 162.2 L322.5 161.65 322.7 161.8 321.6 162.2 M277.35 207.4 L277.7 208.15 276.05 209.1 268.85 208.05 268.9 207.8 269.65 205.1 277.35 207.4 M275.9 183.3 L300.95 199.2 275.9 183.3" fill="#a4a4c5" fill-opacity="0.6" fill-rule="evenodd" stroke="none"/>
    <path d="M355.7 228.0 L358.0 229.05 353.65 230.25 355.7 228.0 M244.75 183.0 L245.15 186.7 241.4 182.7 244.75 183.0" fill="#212234" fill-opacity="0.7019608" fill-rule="evenodd" stroke="none"/>
    <path d="M372.4 142.05 L373.3 142.3 409.1 161.5 421.15 166.2 421.15 166.25 419.95 169.3 Q417.65 171.55 410.95 169.15 L399.45 165.2 396.75 166.85 415.95 179.35 413.15 180.85 393.8 167.4 355.95 156.55 344.1 146.95 361.75 143.7 371.95 141.95 372.4 142.05 M403.65 187.9 L416.45 191.0 413.6 192.4 411.95 193.2 409.6 190.3 403.95 188.75 403.65 187.9 M401.8 213.8 L398.95 215.3 379.65 201.85 341.8 190.95 329.95 181.4 340.05 179.5 348.5 183.4 394.95 195.9 407.05 200.65 406.95 201.2 Q406.75 202.5 406.15 203.35 404.6 205.4 400.4 204.65 L396.85 203.6 385.35 199.65 382.6 201.3 401.8 213.8 M389.55 222.3 L402.3 225.45 399.5 226.85 395.8 228.65 387.5 232.75 398.1 235.0 384.0 236.7 385.35 237.15 387.55 242.0 392.25 245.05 395.85 248.2 364.05 241.4 357.05 233.4 357.45 233.25 362.35 230.75 Q367.95 232.25 372.2 232.15 376.45 232.05 376.9 230.4 L366.05 212.4 389.55 222.3 M346.6 245.7 L365.9 245.9 363.05 246.25 332.15 247.3 325.4 246.4 317.75 248.55 317.7 248.55 312.8 223.45 334.9 230.6 334.95 230.65 335.2 230.95 345.6 235.0 348.75 236.6 346.6 245.7 M199.35 152.95 L214.55 157.3 212.2 158.7 220.2 172.35 Q219.15 174.25 223.6 177.0 228.0 179.85 235.3 181.75 L238.65 187.6 238.85 188.0 224.15 192.55 182.7 179.05 189.95 177.9 198.1 177.65 205.2 173.95 207.05 174.3 194.3 164.05 207.2 168.2 202.7 159.45 200.85 155.75 199.35 152.95 M211.5 146.35 L210.1 143.65 237.5 143.8 236.1 141.2 222.75 138.45 218.8 137.45 Q212.55 135.35 215.6 131.8 L215.95 131.4 230.1 133.85 268.7 136.05 274.65 137.65 275.6 137.9 277.15 137.95 281.7 138.75 287.15 139.7 287.6 138.15 292.9 138.3 291.8 142.4 297.8 141.6 308.4 163.75 290.0 149.4 302.8 161.35 300.85 160.85 287.7 150.3 283.95 151.7 282.7 156.45 282.6 156.45 239.85 145.65 211.5 146.35 M215.1 120.8 L228.05 124.55 227.25 124.95 221.4 123.4 217.25 124.2 216.45 122.95 215.1 120.8 M225.0 116.2 L223.7 114.1 247.05 115.05 245.75 113.0 234.25 110.55 Q224.3 108.5 228.1 105.0 L240.3 107.3 283.75 118.9 292.3 120.05 292.4 120.15 291.1 124.95 303.0 132.65 288.95 133.1 288.95 133.0 290.95 125.65 286.05 125.95 249.1 116.55 225.0 116.2 M352.8 172.35 L349.45 169.8 355.6 167.7 367.75 166.15 373.9 169.75 374.15 169.9 374.3 169.9 375.9 170.35 394.35 174.7 355.65 172.05 352.8 172.35 M406.95 211.1 L409.95 213.75 404.25 212.55 406.95 211.1 M371.55 198.8 L371.2 198.95 371.35 198.8 371.55 198.8 371.35 198.8 371.2 198.95 371.55 198.8 M353.6 200.6 L359.85 204.2 360.05 204.3 361.75 204.8 380.2 209.15 341.5 206.5 338.75 206.8 335.3 204.2 341.45 202.15 353.6 200.6 M345.55 200.1 L345.5 200.1 345.6 200.05 345.55 200.1 M335.9 211.2 L349.5 218.05 352.15 222.55 341.15 222.2 334.8 213.65 335.9 211.2 M349.6 225.4 L353.85 227.15 Q352.2 228.0 350.6 228.9 L346.45 227.3 346.95 226.45 349.6 225.4 M207.7 138.95 L208.95 141.4 202.7 139.45 207.7 138.95 M291.8 142.4 L286.25 143.15 289.05 143.25 291.3 144.35 291.8 142.4 M281.3 133.0 L285.8 137.15 281.5 137.3 279.25 135.8 244.4 120.5 262.4 125.85 264.4 126.3 271.5 126.75 281.3 133.0 M249.75 147.55 L249.5 147.45 249.7 147.75 249.75 147.55 249.7 147.75 249.5 147.45 249.75 147.55 M273.9 162.05 L273.95 162.1 273.9 162.15 273.9 162.05 M281.05 172.8 L279.4 170.8 288.65 167.6 288.9 168.05 292.65 175.6 286.0 177.55 282.65 173.25 281.05 172.8 M253.25 184.1 L255.4 186.95 255.4 188.1 249.6 187.25 247.35 183.25 253.25 184.1 M264.85 185.95 L252.6 179.4 258.65 176.55 274.1 177.6 272.1 182.15 272.55 182.9 264.85 185.95 M275.8 183.8 L275.3 184.0 275.8 183.75 275.8 183.8 M269.65 205.1 L268.9 207.8 250.4 197.45 265.45 199.75 266.05 199.55 270.85 200.55 269.65 205.1 M268.5 209.35 L273.5 210.5 270.65 212.0 271.15 216.25 267.15 214.45 268.5 209.35" fill="#434667" fill-opacity="0.7019608" fill-rule="evenodd" stroke="none"/>
    <path d="M416.45 191.0 L426.85 198.75 423.05 197.8 413.6 192.4 416.45 191.0 M402.3 225.45 L412.45 233.05 412.7 233.2 412.65 233.2 408.9 232.25 399.5 226.85 402.3 225.45 M417.15 236.5 L417.45 236.75 417.15 236.55 417.15 236.5 M181.85 153.9 L199.35 152.95 200.85 155.75 186.45 155.25 181.85 153.9 M200.5 121.0 L200.85 121.05 215.1 120.8 216.45 122.95 204.4 122.1 200.5 121.0 M414.45 196.3 L420.1 198.95 417.05 199.6 414.45 196.3 M406.0 233.4 L398.1 235.0 387.5 232.75 395.8 228.65 406.0 233.4 M412.45 233.05 L412.65 233.2 412.45 233.05 M212.85 125.1 L208.1 126.05 205.95 124.2 212.85 125.1 M188.15 157.95 L202.7 159.45 207.2 168.2 194.3 164.05 188.15 157.95" fill="#dadde7" fill-opacity="0.7019608" fill-rule="evenodd" stroke="none"/>
    <path d="M426.85 198.75 L431.25 202.1 433.2 205.35 408.85 210.15 420.55 204.0 417.05 199.6 420.1 198.95 423.05 197.8 426.85 198.75 M412.7 233.2 L417.15 236.5 417.15 236.55 419.1 239.8 392.25 245.05 387.55 242.0 385.35 237.15 384.0 236.7 398.1 235.0 406.0 233.4 408.9 232.25 412.65 233.2 417.15 236.55 412.65 233.2 412.7 233.2 M174.15 154.35 L181.85 153.9 186.45 155.25 188.15 157.95 194.3 164.05 207.05 174.3 205.2 173.95 198.1 177.65 189.95 177.9 168.7 156.2 174.15 154.35 M194.05 121.1 L200.5 121.0 204.4 122.1 205.95 124.2 208.1 126.05 201.6 127.3 206.8 137.3 189.6 122.35 194.05 121.1" fill="#71728f" fill-opacity="0.8" fill-rule="evenodd" stroke="none"/>
    <path d="M372.4 142.05 L373.3 142.3 423.75 155.85 421.15 166.25 419.95 169.3 415.95 179.35 413.15 180.85 412.75 181.05 410.5 182.25 410.2 182.05 409.75 182.15 402.15 181.2 403.65 187.9 416.45 191.0 426.85 198.75 431.25 202.1 431.65 202.4 437.75 206.9 421.25 215.65 415.95 214.85 415.95 214.9 402.5 213.5 401.8 213.8 398.95 215.3 398.7 215.45 398.65 215.45 396.35 216.7 396.05 216.5 395.6 216.6 388.0 215.65 389.55 222.3 402.3 225.45 412.45 233.05 412.65 233.2 417.15 236.55 417.45 236.75 417.5 236.85 423.55 241.4 407.15 250.05 401.8 249.25 401.85 249.3 374.0 246.4 373.5 246.15 371.55 245.95 362.1 244.05 346.6 245.7 365.9 245.9 371.55 245.95 363.05 246.25 332.15 247.3 325.4 246.4 317.75 248.55 M317.7 248.55 L301.5 241.1 297.95 237.15 274.7 233.8 265.9 227.2 263.9 226.45 M263.9 226.5 L256.65 223.4 251.65 215.35 240.35 210.25 223.85 197.05 209.0 191.6 208.2 191.6 175.2 176.3 175.2 176.25 168.8 173.65 162.6 155.0 166.95 154.75 167.95 154.7 173.4 154.4 174.15 154.35 181.85 153.9 199.35 152.95 214.55 157.3 221.6 152.45 213.6 149.15 213.25 148.85 212.8 148.8 211.7 146.65 211.6 146.55 211.5 146.35 210.1 143.65 209.75 143.0 196.35 137.25 196.35 137.2 190.9 135.15 184.5 121.25 193.45 121.1 194.05 121.1 200.5 121.0 200.85 121.05 215.1 120.8 228.05 124.55 233.85 121.1 226.9 118.4 226.6 118.15 226.25 118.1 225.15 116.45 225.0 116.2 223.7 114.1 215.6 101.45 232.35 98.95 278.9 111.4 278.95 111.3 292.2 113.8 292.25 113.8 292.25 113.75 295.7 111.1 307.5 112.55 322.6 119.05 334.55 127.7 338.7 126.65 350.0 127.2 357.25 130.9 358.1 134.65 365.65 136.65 365.05 138.95 372.45 141.85 372.4 142.05 M334.95 128.05 L334.55 127.7 333.1 128.1 322.5 130.8 319.2 128.8 319.1 127.5 307.0 124.25 304.9 132.0 296.8 138.75 293.05 137.75 M365.05 138.95 L358.5 136.4 358.45 136.4 358.5 136.35 358.1 134.65 M359.75 165.6 L359.7 165.65 359.75 165.6 M337.75 162.6 L343.15 165.35 344.35 170.75 344.3 170.85 351.95 173.8 358.25 176.3 358.2 176.5 372.2 180.25 377.2 181.6 403.95 188.75 409.6 190.3 411.95 193.2 414.45 196.3 417.05 199.6 420.55 204.0 408.85 210.15 406.95 211.1 404.25 212.55 402.5 213.5 M375.9 170.35 L374.3 169.9 374.15 169.9 373.9 169.75 374.25 169.85 375.9 170.35 M337.75 162.6 L335.85 161.65 M374.3 169.9 L374.25 169.85 M371.55 198.8 L371.35 198.8 371.2 198.95 371.55 198.8 M359.85 204.2 L361.75 204.8 360.05 204.3 359.85 204.2 M345.55 200.1 L345.5 200.1 345.6 200.05 345.55 200.1 M357.45 233.25 L357.05 233.4 357.15 233.25 357.45 233.25 M217.25 124.2 L212.85 125.1 208.1 126.05 201.6 127.3 206.8 137.3 207.7 138.95 208.95 141.4 209.75 143.0 M221.4 123.4 L217.25 124.2 M300.85 160.85 L302.8 161.35 302.85 161.35 305.0 161.95 305.1 163.25 308.4 165.25 309.85 164.85 M287.15 139.7 L281.7 138.75 277.15 137.95 274.7 137.5 274.65 137.65 268.7 136.05 260.15 133.75 254.95 132.4 227.25 124.95 221.4 123.4 M238.85 188.0 L238.65 187.6 238.9 187.8 238.85 188.0 M318.05 138.85 L304.9 132.0 M249.75 147.55 L249.7 147.75 249.5 147.45 249.75 147.55 M278.65 129.85 L278.65 129.9 278.7 129.9 278.65 129.85 M264.4 126.3 L262.4 125.85 M283.55 161.65 L282.25 160.2 282.9 158.9 286.25 152.15 283.95 151.7 M257.3 157.95 L257.0 157.95 255.0 157.4 257.3 157.95 M273.9 162.05 L273.9 162.15 273.95 162.1 273.9 162.05 M280.35 172.6 L281.05 172.8 282.65 173.25 286.0 177.55 286.85 178.65 308.05 206.25 299.25 188.7 293.0 176.3 292.65 175.6 288.9 168.05 288.65 167.6 288.35 166.95 283.55 161.65 M280.35 172.6 L278.9 172.25 M274.1 177.6 L277.05 171.0 279.1 169.75 M274.1 177.6 L272.1 182.15 272.55 182.9 274.7 186.3 M271.45 198.35 L273.7 200.85 274.2 201.4 M275.8 183.8 L275.3 184.0 M275.8 183.75 L275.9 183.3 300.95 199.2 M275.8 183.75 L275.8 183.8 M303.9 173.3 L290.8 166.5 288.9 168.05 M286.25 152.15 L287.05 150.55 M290.8 166.5 L291.15 165.2 292.85 158.7 300.85 160.85 M297.95 237.15 L289.0 227.45 283.25 229.7 272.4 227.65 M277.7 208.15 L277.35 207.4 M276.05 209.1 L277.7 208.15 M273.5 210.5 L276.05 209.1 M271.15 216.25 L270.65 212.0 273.5 210.5 M322.5 161.65 L324.6 161.1" ffdec:has-small-stroke="true" ffdec:original-stroke-width="0.05" fill="none" stroke="#000000" stroke-linecap="round" stroke-linejoin="round" stroke-opacity="0.3019608" stroke-width="1.0"/>
    <path d="M229.15 116.35 L232.9 120.7 220.5 117.35 235.7 123.7 227.05 122.85 234.05 124.75 225.45 128.0 234.9 127.0 234.85 126.85 239.15 126.05 238.1 126.7 241.8 126.3 247.9 127.0 Q248.15 126.35 249.3 127.2 L250.55 127.35 250.15 126.25 251.55 127.45 252.75 127.6 252.3 126.9 243.45 123.95 247.3 118.95 239.7 122.85 239.35 117.75 236.1 121.8 229.15 116.35" fill="#ffffff" fill-rule="evenodd" stroke="none"/>
    <path d="M303.7 161.75 L307.45 166.1 295.05 162.75 310.25 169.1 301.6 168.25 308.6 170.15 300.0 173.4 309.45 172.4 309.4 172.25 313.7 171.45 312.65 172.1 316.35 171.7 322.45 172.4 Q322.7 171.75 323.85 172.6 L325.1 172.75 Q324.7 172.15 324.7 171.65 L326.1 172.85 327.3 173.0 326.85 172.3 318.0 169.35 321.85 164.35 314.25 168.25 313.9 163.15 310.65 167.2 303.7 161.75" fill="#ffffff" fill-rule="evenodd" stroke="none"/>
    <path d="M226.4 153.8 L230.15 158.15 217.75 154.8 232.95 161.15 224.3 160.3 231.3 162.2 222.7 165.45 232.15 164.45 232.1 164.3 236.4 163.5 235.35 164.15 239.05 163.75 245.15 164.45 Q245.4 163.8 246.55 164.65 L247.8 164.8 247.4 163.7 248.8 164.9 250.0 165.05 249.55 164.35 240.7 161.4 244.55 156.4 236.95 160.3 236.6 155.2 233.35 159.25 226.4 153.8" fill="#ffffff" fill-rule="evenodd" stroke="none"/>
    <path d="M300.9 199.2 L304.65 203.55 292.25 200.2 307.45 206.55 298.8 205.7 305.8 207.6 297.2 210.85 306.65 209.85 306.6 209.7 310.9 208.9 309.85 209.55 313.55 209.15 319.65 209.85 Q319.9 209.2 321.05 210.05 L322.3 210.2 Q321.9 209.6 321.9 209.1 L323.3 210.3 324.5 210.45 324.05 209.75 315.2 206.8 319.05 201.8 311.45 205.7 311.1 200.6 307.85 204.65 300.9 199.2" fill="#ffffff" fill-rule="evenodd" stroke="none"/>
    <path d="M291.1 222.4 L294.85 226.75 282.45 223.4 297.65 229.75 289.0 228.9 296.0 230.8 287.4 234.05 296.85 233.05 296.8 232.9 301.1 232.1 300.05 232.75 303.75 232.35 309.85 233.05 Q310.1 232.4 311.25 233.25 L312.5 233.4 Q312.1 232.8 312.1 232.3 L313.5 233.5 314.7 233.65 314.25 232.95 305.4 230.0 309.25 225.0 301.65 228.9 301.3 223.8 298.05 227.85 291.1 222.4" fill="#ffffff" fill-rule="evenodd" stroke="none"/>
    <path d="M411.3 203.05 L405.9 206.2 417.35 209.25 402.05 208.2 409.2 212.1 402.7 210.4 407.5 219.3 400.8 212.7 400.9 212.45 398.0 209.1 398.45 210.4 395.85 207.85 390.8 205.25 Q391.0 204.3 389.6 204.65 L388.55 204.15 389.5 203.1 387.75 203.75 386.7 203.2 387.45 202.55 395.9 204.05 395.8 195.9 399.45 204.95 402.65 198.95 402.75 205.7 411.3 203.05" fill="#ffffff" fill-rule="evenodd" stroke="none"/>
    <path d="M392.65 163.45 L388.7 165.7 397.1 167.95 385.85 167.2 391.15 170.1 386.4 168.8 389.9 175.35 384.9 170.45 385.0 170.35 382.95 167.85 383.2 168.85 381.3 166.95 377.6 165.05 Q377.75 164.35 376.75 164.65 L376.0 164.2 376.7 163.45 375.4 163.9 374.6 163.5 375.1 163.1 381.35 164.15 381.3 158.15 384.0 164.8 386.35 160.4 386.45 165.35 392.65 163.45" fill="#ffffff" fill-rule="evenodd" stroke="none"/>
    <path d="M352.0 223.15 L349.15 216.75 360.6 219.8 347.0 212.35 355.25 212.1 348.75 210.4 357.8 203.5 348.4 206.85 348.4 207.1 344.0 209.25 345.15 208.0 341.45 209.35 335.75 209.3 334.4 209.25 333.25 209.3 333.45 210.95 332.35 209.25 331.15 209.25 331.4 210.35 339.45 213.45 334.8 222.25 342.95 214.5 342.35 222.75 Q344.2 219.1 346.2 215.5 L352.0 223.15" fill="#ffffff" fill-rule="evenodd" stroke="none"/>
    <path d="M397.15 237.5 L391.75 240.65 403.2 243.7 387.9 242.65 395.05 246.55 388.55 244.85 393.35 253.75 386.65 247.15 386.75 246.9 383.85 243.55 384.3 244.85 381.7 242.3 376.65 239.7 Q376.85 238.75 375.45 239.1 L374.4 238.6 375.35 237.55 373.6 238.2 372.55 237.65 373.3 237.0 381.75 238.5 381.65 230.35 385.3 239.4 388.5 233.4 388.6 240.15 397.15 237.5" fill="#ffffff" fill-rule="evenodd" stroke="none"/>
    <path d="M378.5 197.9 L374.55 200.15 382.95 202.4 371.7 201.65 377.0 204.55 372.25 203.25 375.75 209.8 370.75 204.9 370.85 204.8 368.8 202.3 369.05 203.3 367.15 201.4 363.45 199.5 Q363.6 198.8 362.6 199.1 L361.85 198.65 362.55 197.9 361.25 198.35 360.45 197.95 360.95 197.55 367.2 198.6 367.15 192.6 369.85 199.25 372.2 194.85 372.3 199.8 378.5 197.9" fill="#ffffff" fill-rule="evenodd" stroke="none"/>
    <path d="M313.1 231.6 L309.15 233.85 317.55 236.1 306.3 235.35 311.6 238.25 306.85 236.95 310.35 243.5 305.35 238.6 305.45 238.5 303.4 236.0 303.65 237.0 301.75 235.1 298.05 233.2 Q298.2 232.5 297.2 232.8 L296.45 232.35 297.15 231.6 295.85 232.05 295.05 231.65 295.55 231.25 301.8 232.3 301.75 226.3 304.45 232.95 306.8 228.55 306.9 233.5 313.1 231.6" fill="#ffffff" fill-rule="evenodd" stroke="none"/>
  </g>
</svg>
