<?xml version="1.0" encoding="UTF-8" standalone="no"?>
<svg xmlns:ffdec="https://www.free-decompiler.com/flash" xmlns:xlink="http://www.w3.org/1999/xlink" ffdec:objectType="shape" height="31.7px" width="29.8px" xmlns="http://www.w3.org/2000/svg">
  <g transform="matrix(1.0, 0.0, 0.0, 1.0, -269.25, -401.3)">
    <path d="M293.0 403.85 L293.4 403.85 296.75 402.05 297.25 403.75 298.8 403.1 297.65 406.2 298.1 406.0 297.75 407.25 297.25 408.15 296.95 408.4 298.2 409.55 295.85 410.25 295.1 412.5 295.65 412.8 294.3 413.45 292.85 413.8 291.2 413.35 291.4 413.65 291.25 413.95 291.6 414.15 292.3 415.5 293.7 415.75 292.0 416.9 292.2 417.1 290.2 416.9 Q292.25 417.65 293.65 418.75 L293.75 418.8 294.25 419.1 292.9 419.3 294.0 421.25 294.15 422.85 292.9 422.85 291.6 422.55 289.95 423.6 289.0 425.25 288.45 424.25 287.2 425.0 286.65 423.2 284.7 423.35 284.2 424.15 284.85 423.9 284.3 424.85 283.6 425.6 282.55 425.6 281.2 426.3 280.0 426.4 279.45 427.15 279.35 427.15 279.55 429.85 278.8 431.1 278.65 430.35 277.95 431.55 Q276.85 432.55 275.65 432.75 276.5 431.8 276.9 430.6 L275.6 431.0 276.0 429.35 275.05 429.55 Q275.65 428.4 276.8 427.75 L276.7 426.75 276.8 426.75 277.3 426.35 277.1 426.35 276.9 425.75 277.4 425.4 277.65 425.4 277.7 425.25 277.85 425.3 277.8 425.1 277.8 425.05 277.7 424.85 277.7 424.8 277.45 424.8 276.85 424.45 276.4 423.7 275.65 421.55 274.15 420.65 274.0 420.6 273.7 420.4 274.1 419.65 274.55 417.75 273.45 418.35 273.45 416.95 274.7 414.8 273.1 415.3 273.8 414.05 275.4 412.7 274.5 412.15 274.45 412.1 274.1 411.95 Q275.3 411.35 276.5 410.85 L277.0 410.4 277.75 409.6 278.65 409.5 278.35 410.0 280.6 408.7 278.95 407.7 277.9 406.3 278.4 406.6 281.85 407.85 281.7 407.25 282.45 407.65 284.65 407.75 286.95 409.05 287.2 408.65 286.0 406.65 287.45 406.55 287.25 405.2 288.4 404.05 289.3 402.45 289.8 404.05 291.35 403.65 293.05 402.3 292.8 403.9 292.85 403.95 Q292.95 403.85 293.0 403.85 M279.35 425.55 L278.35 425.55 277.65 425.4 278.35 425.55 279.35 425.55 277.85 425.3 279.35 425.55 280.05 425.25 278.75 424.75 Q278.25 424.85 277.8 425.05 278.25 424.85 278.75 424.75 L280.05 425.25 279.35 425.55 M276.8 427.75 L277.05 428.0 277.1 428.1 277.45 428.05 278.25 427.8 278.8 427.55 279.35 427.15 278.8 427.55 278.25 427.8 277.45 428.05 277.1 428.1 277.05 428.0 276.8 427.75 M274.55 417.75 L275.2 416.95 274.55 417.75 M275.35 414.1 L274.7 414.8 275.35 414.1 M280.0 426.4 L280.05 426.2 277.65 427.15 277.25 426.95 277.65 427.15 280.05 426.2 280.0 426.4 M280.05 425.25 L280.55 425.1 280.8 425.15 280.7 424.5 280.5 424.4 280.15 424.2 280.95 423.5 282.0 423.05 280.95 423.5 280.15 424.2 280.5 424.4 281.2 424.05 282.65 424.1 281.2 424.05 280.5 424.4 280.7 424.5 280.8 425.15 280.55 425.1 280.0 425.8 280.15 425.75 280.05 426.2 277.3 426.35 280.05 426.2 280.15 425.75 280.0 425.8 280.55 425.1 280.05 425.25 M279.0 424.1 L278.55 424.1 278.25 424.1 277.6 424.7 277.7 424.8 277.6 424.7 278.25 424.1 278.55 424.1 278.35 423.7 277.35 422.1 278.35 423.7 278.55 424.1 279.0 424.1 279.05 422.9 279.0 424.1 279.8 424.0 280.15 424.2 279.8 424.0 279.0 424.1 M288.2 407.4 L287.45 406.55 288.2 407.4 M291.6 416.7 L292.0 416.9 291.6 416.7 M291.25 413.95 L289.65 411.4 286.95 409.05 289.65 411.4 291.25 413.95 M290.55 411.85 L290.8 411.4 290.55 411.85 291.2 413.35 290.55 411.85 290.15 411.05 288.45 409.4 287.2 408.65 288.45 409.4 290.15 411.05 290.55 411.85 M292.8 403.9 L292.15 405.0 292.8 403.9 M285.15 411.65 L285.2 411.65 285.3 411.7 285.35 411.75 285.45 411.85 285.4 411.95 285.45 412.15 285.2 412.65 285.15 412.9 285.05 413.1 285.0 413.1 284.95 413.15 284.9 413.25 284.65 413.15 284.65 413.05 284.55 412.7 284.6 412.6 284.7 412.35 284.9 412.1 285.1 411.65 285.15 411.65 285.1 411.65 284.9 412.1 284.7 412.35 284.6 412.6 284.55 412.7 284.65 413.05 284.65 413.15 284.9 413.25 284.95 413.15 285.0 413.1 285.05 413.1 285.15 412.9 285.2 412.65 285.45 412.15 285.4 411.95 285.45 411.85 285.35 411.75 285.3 411.7 285.2 411.65 285.15 411.65 M282.25 411.35 L282.25 411.3 282.45 410.95 282.5 411.0 Q282.65 410.95 282.8 411.15 L282.8 411.45 282.75 411.55 282.6 411.8 282.55 411.9 282.45 412.05 282.25 412.2 282.05 412.0 282.1 411.95 282.05 411.8 282.15 411.65 282.15 411.5 282.25 411.35 282.15 411.5 282.15 411.65 282.05 411.8 282.1 411.95 282.05 412.0 282.25 412.2 282.45 412.05 282.55 411.9 282.6 411.8 282.75 411.55 282.8 411.45 282.8 411.15 Q282.65 410.95 282.5 411.0 L282.45 410.95 282.25 411.3 282.25 411.35 M297.1 405.05 L297.25 403.75 297.1 405.05" fill="#000000" fill-opacity="0.23137255" fill-rule="evenodd" stroke="none"/>
    <path d="M293.0 403.85 L293.4 403.85 296.75 402.05 297.25 403.75 298.8 403.1 297.65 406.2 298.1 406.0 297.75 407.25 297.25 408.15 M296.95 408.4 L298.2 409.55 295.85 410.25 295.1 412.5 295.65 412.8 294.3 413.45 292.85 413.8 291.2 413.35 290.55 411.85 290.15 411.05 288.45 409.4 287.2 408.65 286.0 406.65 287.45 406.55 287.25 405.2 288.4 404.05 289.3 402.45 289.8 404.05 291.35 403.65 293.05 402.3 292.8 403.9 292.85 403.95 M291.25 413.95 L291.6 414.15 292.3 415.5 293.7 415.75 292.0 416.9 292.2 417.1 M293.65 418.75 L293.75 418.8 M294.25 419.1 L292.9 419.3 294.0 421.25 294.15 422.85 292.9 422.85 291.6 422.55 289.95 423.6 289.0 425.25 288.45 424.25 287.2 425.0 286.65 423.2 284.7 423.35 284.2 424.15 284.85 423.9 284.3 424.85 283.6 425.6 282.55 425.6 281.2 426.3 280.0 426.4 279.45 427.15 279.35 427.15 279.55 429.85 278.8 431.1 278.65 430.35 277.95 431.55 Q276.85 432.55 275.65 432.75 276.5 431.8 276.9 430.6 L275.6 431.0 276.0 429.35 275.05 429.55 Q275.65 428.4 276.8 427.75 L276.7 426.75 276.8 426.75 277.3 426.35 277.1 426.35 276.9 425.75 277.4 425.4 277.65 425.4 277.7 425.25 277.85 425.3 277.8 425.1 277.8 425.05 277.7 424.85 277.7 424.8 277.45 424.8 276.85 424.45 276.4 423.7 275.65 421.55 274.15 420.65 M274.0 420.6 L273.7 420.4 274.1 419.65 274.55 417.75 273.45 418.35 273.45 416.95 274.7 414.8 273.1 415.3 273.8 414.05 275.4 412.7 274.5 412.15 M274.45 412.1 L274.1 411.95 Q275.3 411.35 276.5 410.85 L277.0 410.4 277.75 409.6 M280.6 408.7 L278.95 407.7 277.9 406.3 278.4 406.6 281.85 407.85 281.7 407.25 282.45 407.65 284.65 407.75 286.95 409.05 289.65 411.4 291.25 413.95 M297.25 403.75 L297.1 405.05 M282.25 411.35 L282.15 411.5 282.15 411.65 282.05 411.8 282.1 411.95 282.05 412.0 282.25 412.2 282.45 412.05 282.55 411.9 282.6 411.8 282.75 411.55 282.8 411.45 282.8 411.15 Q282.65 410.95 282.5 411.0 L282.45 410.95 282.25 411.3 282.25 411.35 M285.15 411.65 L285.1 411.65 284.9 412.1 284.7 412.35 284.6 412.6 284.55 412.7 284.65 413.05 284.65 413.15 284.9 413.25 284.95 413.15 285.0 413.1 285.05 413.1 285.15 412.9 285.2 412.65 285.45 412.15 285.4 411.95 285.45 411.85 285.35 411.75 285.3 411.7 285.2 411.65 285.15 411.65 M292.15 405.0 L292.8 403.9 M290.8 411.4 L290.55 411.85 M292.0 416.9 L291.6 416.7 M287.45 406.55 L288.2 407.4 M282.0 423.05 L280.95 423.5 280.15 424.2 280.5 424.4 281.2 424.05 282.65 424.1 M279.05 422.9 L279.0 424.1 279.8 424.0 280.15 424.2 M280.5 424.4 L280.7 424.5 280.8 425.15 280.55 425.1 280.0 425.8 280.15 425.75 280.05 426.2 277.3 426.35 M277.7 424.8 L277.6 424.7 278.25 424.1 278.55 424.1 278.35 423.7 277.35 422.1 M277.85 425.3 L279.35 425.55 280.05 425.25 278.75 424.75 Q278.25 424.85 277.8 425.05 M278.55 424.1 L279.0 424.1 M280.55 425.1 L280.05 425.25 M277.25 426.95 L277.65 427.15 280.05 426.2 280.0 426.4 M274.7 414.8 L275.35 414.1 M275.2 416.95 L274.55 417.75 M279.35 427.15 L278.8 427.55 278.25 427.8 277.45 428.05 277.1 428.1 277.05 428.0 276.8 427.75 M277.65 425.4 L278.35 425.55 279.35 425.55" ffdec:has-small-stroke="true" ffdec:original-stroke-width="0.5" fill="none" stroke="#010101" stroke-linecap="round" stroke-linejoin="round" stroke-opacity="0.0" stroke-width="1.0"/>
    <path d="M289.4 403.45 L289.75 403.3 293.15 401.55 293.6 403.2 295.15 402.55 294.0 405.7 294.45 405.5 294.15 406.75 293.95 407.1 293.3 405.5 292.75 406.05 291.75 403.2 288.9 403.9 289.15 403.5 286.8 405.05 287.0 404.15 285.1 404.35 284.9 403.3 285.7 401.95 286.2 403.55 287.75 403.1 289.4 401.8 289.2 403.45 289.4 403.45 M287.6 413.45 L288.0 413.7 288.65 415.0 290.05 415.25 289.05 415.9 Q288.4 415.35 286.8 415.3 286.3 413.65 284.75 412.65 L284.7 413.15 283.75 411.4 282.85 411.4 282.85 411.45 282.8 411.4 282.65 411.4 Q281.65 410.65 280.75 411.55 280.4 410.8 280.6 409.65 L278.15 410.35 278.1 410.4 277.65 410.5 277.6 410.5 277.1 409.85 275.9 410.7 275.7 409.8 Q274.05 410.4 273.25 411.6 L272.5 411.3 270.85 411.65 270.8 411.65 270.5 411.45 272.9 410.4 273.35 409.9 274.1 409.15 275.0 409.0 274.75 409.5 277.0 408.15 275.35 407.2 274.2 405.8 274.7 406.1 278.2 407.35 278.1 406.7 278.8 407.1 281.05 407.25 283.3 408.6 286.0 410.9 287.6 413.45 M289.2 403.45 L289.15 403.5 289.2 403.45 M293.5 404.55 L293.6 403.2 293.5 404.55" fill="#a5be00" fill-rule="evenodd" stroke="none"/>
    <path d="M293.95 407.1 L293.65 407.7 293.35 407.85 294.6 409.1 292.2 409.75 291.45 412.0 292.0 412.3 290.7 412.95 289.2 413.35 287.6 412.9 286.55 410.6 284.85 408.85 283.55 408.15 282.35 406.15 283.85 406.1 283.65 404.75 284.8 403.5 284.9 403.3 285.1 404.35 287.0 404.15 286.8 405.05 289.15 403.5 288.9 403.9 291.75 403.2 292.75 406.05 293.3 405.5 293.95 407.1 M289.05 415.9 L288.35 416.4 288.55 416.6 287.9 416.55 286.55 416.4 290.05 418.2 290.15 418.25 290.6 418.55 289.25 418.8 290.3 420.75 290.35 421.15 Q289.2 420.25 287.75 419.9 287.15 420.6 288.15 421.3 286.6 421.0 284.95 419.45 L286.3 421.5 Q283.2 419.4 284.6 422.8 283.25 422.0 283.05 420.85 L282.15 421.4 279.95 420.15 279.9 419.95 279.9 419.9 279.5 421.25 277.95 419.85 276.45 420.85 275.95 419.4 275.05 420.2 274.55 420.2 274.75 418.0 272.1 417.3 272.45 415.0 269.85 416.35 271.05 414.3 269.5 414.75 270.2 413.5 271.75 412.2 270.85 411.65 272.5 411.3 273.25 411.6 Q274.05 410.4 275.7 409.8 L275.9 410.7 277.1 409.85 277.6 410.5 277.65 410.5 278.1 410.4 278.15 410.35 280.6 409.65 Q280.4 410.8 280.75 411.55 281.65 410.65 282.65 411.4 L282.8 411.4 282.85 411.45 282.85 411.4 283.75 411.4 284.7 413.15 284.75 412.65 Q286.3 413.65 286.8 415.3 288.4 415.35 289.05 415.9 M284.55 406.85 L283.85 406.1 284.55 406.85 M288.9 403.9 L288.55 404.55 288.9 403.9 M287.9 416.55 L288.35 416.4 287.9 416.55 M279.15 410.65 L279.2 410.7 279.15 410.65 M276.1 415.85 L276.1 415.95 276.1 415.85 276.1 415.8 276.1 415.6 276.1 415.45 276.15 415.5 Q276.0 415.25 275.85 415.3 L275.8 415.3 275.6 415.65 275.6 415.7 275.5 415.85 275.4 415.95 275.45 416.05 275.4 416.05 275.45 416.1 275.4 416.05 275.45 416.05 275.45 416.1 275.4 416.1 275.4 416.2 275.45 416.25 275.55 416.5 275.6 416.5 275.75 416.4 275.85 416.25 275.9 416.1 276.05 415.85 276.1 415.85 M276.1 415.95 L276.05 415.95 275.9 416.2 275.85 416.35 275.75 416.5 275.6 416.6 275.55 416.6 275.45 416.35 275.4 416.3 275.4 416.2 274.0 417.3 276.75 417.75 276.2 418.25 277.65 418.4 278.95 420.3 279.0 418.75 280.05 419.35 279.45 417.75 279.4 417.8 279.0 416.55 278.55 417.3 278.5 417.3 278.5 417.35 278.4 417.45 278.3 417.55 278.2 417.65 Q278.0 417.7 277.95 417.55 L277.95 417.5 277.9 417.05 277.95 417.0 278.0 417.2 278.0 417.25 Q278.05 417.4 278.25 417.35 L278.35 417.25 278.45 417.15 278.55 417.05 278.55 417.0 278.65 416.75 278.8 416.25 278.8 416.1 278.8 416.0 278.7 415.8 278.65 415.8 278.6 415.75 278.5 415.75 278.25 416.2 278.15 416.45 278.0 416.65 278.0 416.7 277.95 416.75 277.95 416.95 277.15 416.5 277.1 415.65 276.1 415.95 M271.75 413.65 L271.05 414.3 271.75 413.65" fill="#647201" fill-rule="evenodd" stroke="none"/>
    <path d="M287.6 412.9 L287.75 413.15 287.6 413.45 286.0 410.9 283.3 408.6 283.55 408.15 284.85 408.85 286.55 410.6 287.6 412.9" fill="#ef7908" fill-rule="evenodd" stroke="none"/>
    <path d="M276.1 415.85 L276.05 415.85 275.9 416.1 275.85 416.25 275.75 416.4 275.6 416.5 275.55 416.5 275.45 416.25 275.4 416.2 275.4 416.1 275.45 416.1 275.45 416.05 275.4 415.95 275.5 415.85 275.6 415.7 275.6 415.65 275.8 415.3 275.85 415.3 Q276.0 415.25 276.15 415.5 L276.1 415.45 276.1 415.6 276.1 415.8 276.1 415.85 M277.95 416.95 L277.95 416.75 278.0 416.7 278.0 416.65 278.15 416.45 278.25 416.2 278.5 415.75 278.6 415.75 278.65 415.8 278.7 415.8 278.8 416.0 278.8 416.1 278.8 416.25 278.65 416.75 278.55 417.0 278.55 417.05 278.45 417.15 278.35 417.25 278.25 417.35 Q278.05 417.4 278.0 417.25 L278.0 417.2 277.95 417.0 277.95 416.95" fill="#000000" fill-rule="evenodd" stroke="none"/>
    <path d="M290.35 421.15 L290.55 422.3 289.25 422.3 287.95 422.05 286.35 423.1 285.4 424.75 284.8 423.75 283.6 424.5 283.0 422.7 281.05 422.85 280.55 423.7 281.15 423.45 280.65 424.35 279.95 425.05 278.9 425.15 277.55 425.75 276.35 425.85 274.85 425.45 275.05 425.05 274.6 424.75 274.85 424.3 273.85 424.35 273.25 424.0 272.8 423.25 272.0 421.0 270.45 420.15 270.35 420.05 270.0 419.85 270.45 419.1 270.9 417.25 269.85 417.9 269.8 416.45 269.85 416.35 272.45 415.0 272.1 417.3 274.75 418.0 274.55 420.2 275.05 420.2 275.95 419.4 276.45 420.85 277.95 419.85 279.5 421.25 279.9 419.9 279.9 419.95 279.95 420.15 282.15 421.4 283.05 420.85 Q283.25 422.0 284.6 422.8 283.2 419.4 286.3 421.5 L284.95 419.45 Q286.6 421.0 288.15 421.3 287.15 420.6 287.75 419.9 289.2 420.25 290.35 421.15 M275.4 416.2 L275.4 416.3 275.45 416.35 275.55 416.6 275.6 416.6 275.75 416.5 275.85 416.35 275.9 416.2 276.05 415.95 276.1 415.95 277.1 415.65 277.15 416.5 277.95 416.95 277.95 417.0 277.9 417.05 277.95 417.5 277.95 417.55 Q278.0 417.7 278.2 417.65 L278.3 417.55 278.4 417.45 278.5 417.35 278.5 417.3 278.55 417.3 279.0 416.55 279.4 417.8 279.45 417.75 280.05 419.35 279.0 418.75 278.95 420.3 277.65 418.4 276.2 418.25 276.75 417.75 274.0 417.3 275.4 416.2 M275.4 422.45 L275.4 423.6 274.75 423.25 273.7 421.65 274.75 423.25 275.4 423.6 275.4 422.45 M278.35 422.55 L277.35 423.0 276.6 423.7 279.1 423.6 276.6 423.7 277.35 423.0 278.35 422.55 M270.9 417.25 L271.6 416.5 270.9 417.25" fill="#545801" fill-rule="evenodd" stroke="none"/>
    <path d="M289.4 403.45 L289.75 403.3 293.15 401.55 293.6 403.2 295.15 402.55 294.0 405.7 294.45 405.5 294.15 406.75 293.95 407.1 293.65 407.7 M293.35 407.85 L294.6 409.1 292.2 409.75 291.45 412.0 292.0 412.3 290.7 412.95 289.2 413.35 287.6 412.9 286.55 410.6 284.85 408.85 283.55 408.15 282.35 406.15 283.85 406.1 283.65 404.75 284.8 403.5 284.9 403.3 285.7 401.95 286.2 403.55 287.75 403.1 289.4 401.8 289.2 403.45 289.15 403.5 288.9 403.9 288.55 404.55 M287.6 413.45 L288.0 413.7 288.65 415.0 290.05 415.25 289.05 415.9 288.35 416.4 288.55 416.6 M290.05 418.2 L290.15 418.25 M290.6 418.55 L289.25 418.8 290.3 420.75 290.35 421.15 290.55 422.3 289.25 422.3 287.95 422.05 286.35 423.1 285.4 424.75 284.8 423.75 283.6 424.5 283.0 422.7 281.05 422.85 280.55 423.7 281.15 423.45 280.65 424.35 279.95 425.05 278.9 425.15 277.55 425.75 276.35 425.85 274.85 425.45 275.05 425.05 274.6 424.75 274.85 424.3 273.85 424.35 273.25 424.0 272.8 423.25 272.0 421.0 270.45 420.15 M270.35 420.05 L270.0 419.85 270.45 419.1 270.9 417.25 269.85 417.9 269.8 416.45 269.85 416.35 271.05 414.3 269.5 414.75 270.2 413.5 271.75 412.2 270.85 411.65 M270.8 411.65 L270.5 411.45 272.9 410.4 273.35 409.9 274.1 409.15 M277.0 408.15 L275.35 407.2 274.2 405.8 274.7 406.1 278.2 407.35 278.1 406.7 278.8 407.1 281.05 407.25 283.3 408.6 286.0 410.9 287.6 413.45 M293.6 403.2 L293.5 404.55 M283.85 406.1 L284.55 406.85 M288.35 416.4 L287.9 416.55 M276.1 415.95 L276.1 415.85 M275.4 416.2 L275.4 416.3 275.45 416.35 275.55 416.6 275.6 416.6 275.75 416.5 275.85 416.35 275.9 416.2 276.05 415.95 276.1 415.95 M277.95 416.95 L277.95 416.75 278.0 416.7 278.0 416.65 278.15 416.45 278.25 416.2 278.5 415.75 278.6 415.75 278.65 415.8 278.7 415.8 278.8 416.0 278.8 416.1 278.8 416.25 278.65 416.75 278.55 417.0 278.55 417.05 278.45 417.15 278.35 417.25 278.25 417.35 Q278.05 417.4 278.0 417.25 L278.0 417.2 277.95 417.0 M275.45 416.1 L275.4 416.05 275.45 416.05 M276.1 415.6 L276.1 415.8 M271.05 414.3 L271.75 413.65 M271.6 416.5 L270.9 417.25 M279.1 423.6 L276.6 423.7 277.35 423.0 278.35 422.55 M273.7 421.65 L274.75 423.25 275.4 423.6 275.4 422.45" ffdec:has-small-stroke="true" ffdec:original-stroke-width="0.5" fill="none" stroke="#312617" stroke-linecap="round" stroke-linejoin="round" stroke-opacity="0.5137255" stroke-width="1.0"/>
    <path d="M275.95 423.55 L276.25 423.55 277.1 424.0 277.25 424.6 277.0 424.65 276.5 425.35 276.55 425.3 276.45 425.7 274.75 425.8 275.75 425.2 275.85 425.05 275.9 425.05 275.85 425.05 275.85 425.0 276.5 424.7 275.65 424.45 276.25 424.2 275.95 423.55 M276.5 425.75 L275.85 426.6 275.85 426.65 275.15 427.05 274.65 427.3 273.9 427.6 273.55 427.6 273.4 427.55 273.25 427.3 273.2 426.65 274.0 427.0 274.5 426.8 274.55 426.45 275.35 426.25 276.5 425.75 M277.0 424.65 L276.5 424.7 277.0 424.65 M276.4 425.45 L276.5 425.35 276.4 425.45 M276.1 425.05 L275.9 425.05 276.1 425.05" fill="#ab8538" fill-rule="evenodd" stroke="none"/>
    <path d="M273.7 425.85 L273.5 425.9 273.35 425.3 273.8 424.9 274.05 424.95 274.75 425.1 275.7 425.05 275.85 425.05 275.75 425.2 274.75 425.8 273.7 425.85 M274.1 424.4 L274.05 424.2 274.65 423.6 275.95 423.55 276.25 424.2 275.65 424.45 275.15 424.3 274.3 424.5 274.1 424.4" fill="#cdac6b" fill-rule="evenodd" stroke="none"/>
    <path d="M274.25 424.8 L274.2 424.6 274.2 424.5 274.1 424.4 274.3 424.5 275.15 424.3 275.65 424.45 276.5 424.7 275.85 425.0 275.7 425.05 274.25 424.8" fill="#947136" fill-rule="evenodd" stroke="none"/>
    <path d="M274.05 424.95 L274.15 424.8 274.25 424.8 275.7 425.05 274.75 425.1 274.05 424.95" fill="#604d2f" fill-rule="evenodd" stroke="none"/>
    <path d="M273.2 426.65 L273.15 426.3 273.25 426.2 273.5 426.35 273.55 426.45 273.65 426.4 274.05 426.6 274.55 426.45 274.5 426.8 274.0 427.0 273.2 426.65" fill="#b79a6c" fill-rule="evenodd" stroke="none"/>
    <path d="M276.45 425.7 L276.5 425.75 275.35 426.25 274.55 426.45 274.05 426.6 273.65 426.4 273.55 426.45 273.5 426.35 273.25 426.2 273.7 425.85 274.75 425.8 276.45 425.7 M273.5 426.35 L273.65 426.4 273.5 426.35" fill="#785927" fill-rule="evenodd" stroke="none"/>
    <path d="M275.85 426.65 L276.0 429.35 275.2 430.65 275.05 429.9 274.35 431.1 Q273.3 432.1 272.05 432.25 272.95 431.3 273.35 430.05 L272.1 430.55 272.4 428.85 271.5 429.0 Q272.05 427.9 273.25 427.3 L273.4 427.55 273.55 427.6 273.9 427.6 274.65 427.3 275.15 427.05 275.85 426.65 M272.6 428.8 L272.4 428.85 272.6 428.8 M273.6 430.0 L273.35 430.05 273.6 430.0" fill="#525900" fill-rule="evenodd" stroke="none"/>
    <path d="M275.95 423.55 L276.25 423.55 277.1 424.0 277.25 424.6 277.0 424.65 276.5 425.35 276.55 425.3 276.45 425.7 274.75 425.8 273.7 425.85 273.5 425.9 273.35 425.3 273.8 424.9 274.05 424.95 274.15 424.8 274.25 424.8 274.2 424.6 274.2 424.5 274.1 424.4 274.05 424.2 274.65 423.6 275.95 423.55 M276.5 425.75 L275.85 426.6 275.85 426.65 276.0 429.35 275.2 430.65 275.05 429.9 274.35 431.1 Q273.3 432.1 272.05 432.25 272.95 431.3 273.35 430.05 L272.1 430.55 272.4 428.85 271.5 429.0 Q272.05 427.9 273.25 427.3 L273.2 426.65 273.15 426.3 273.25 426.2 273.7 425.85 M275.65 424.45 L276.5 424.7 277.0 424.65 M275.7 425.05 L275.85 425.05 275.9 425.05 275.85 425.05 M275.85 425.0 L275.7 425.05 274.75 425.1 274.05 424.95 M275.9 425.05 L276.1 425.05 M276.5 425.35 L276.4 425.45 M276.5 424.7 L275.85 425.0 M275.65 424.45 L275.15 424.3 274.3 424.5 M274.55 426.45 L274.05 426.6 273.65 426.4 273.5 426.35 M275.85 426.65 L275.15 427.05 274.65 427.3 273.9 427.6 273.55 427.6 273.4 427.55 273.25 427.3 M276.5 425.75 L275.35 426.25 274.55 426.45 M275.7 425.05 L274.25 424.8 M273.35 430.05 L273.6 430.0 M272.4 428.85 L272.6 428.8" ffdec:has-small-stroke="true" ffdec:original-stroke-width="0.5" fill="none" stroke="#312617" stroke-linecap="round" stroke-linejoin="round" stroke-opacity="0.5137255" stroke-width="1.0"/>
  </g>
</svg>
