<?xml version="1.0" encoding="UTF-8" standalone="no"?>
<svg xmlns:ffdec="https://www.free-decompiler.com/flash" xmlns:xlink="http://www.w3.org/1999/xlink" ffdec:objectType="shape" height="109.75px" width="53.0px" xmlns="http://www.w3.org/2000/svg">
  <g transform="matrix(1.0, 0.0, 0.0, 1.0, -381.85, -226.3)">
    <path d="M410.5 331.6 L410.5 331.5 410.65 331.6 410.5 331.6 M411.55 331.5 L411.55 331.6 411.5 331.6 411.55 331.5 M409.4 311.1 L409.3 311.1 409.4 311.0 409.4 311.1 M410.05 318.4 L410.1 318.35 410.1 318.5 410.05 318.4" fill="#ffa41c" fill-rule="evenodd" stroke="none"/>
    <path d="M411.55 229.6 L412.05 229.45 412.7 229.7 413.0 230.4 412.7 231.05 412.2 231.35 Q411.85 231.1 411.55 229.6 M412.7 230.35 L412.75 230.1 Q412.75 229.65 412.4 229.8 412.05 229.9 412.05 230.1 L412.1 230.35 412.4 230.45 412.7 230.35 M414.9 240.4 L414.95 240.65 415.1 240.85 Q414.95 241.0 414.95 241.3 414.95 242.0 415.7 242.0 416.4 242.0 416.4 241.3 416.4 240.7 415.9 240.65 L415.95 240.4 Q415.95 239.95 415.45 239.9 414.9 239.85 414.9 240.4 M413.35 238.7 L413.6 238.4 Q414.35 237.65 415.45 237.65 416.55 237.65 417.3 238.4 L417.65 238.8 Q418.05 239.45 418.05 240.25 L417.6 241.8 416.55 242.65 415.6 242.85 415.45 242.85 415.05 242.85 Q413.8 242.25 413.35 238.7 M416.4 239.8 Q416.9 239.8 416.9 239.3 416.9 238.85 416.45 238.85 415.95 238.8 415.95 239.3 415.95 239.8 416.4 239.8 M411.3 253.75 L411.5 253.6 Q411.7 253.45 412.0 253.45 L412.5 253.6 Q411.95 253.4 411.95 253.95 L411.95 254.15 412.3 254.3 Q412.7 254.3 412.7 253.9 L412.7 253.75 413.0 254.45 412.7 255.15 412.25 255.45 Q410.75 254.35 411.3 253.75 M408.9 258.8 Q408.9 258.55 409.05 258.4 L409.6 258.2 410.1 258.4 410.35 258.95 410.3 259.2 Q409.6 260.1 408.9 258.8 M406.35 264.95 L406.45 264.85 Q406.9 264.4 407.5 264.4 408.1 264.4 408.55 264.85 409.0 265.3 409.0 265.9 L408.55 266.95 407.95 267.35 Q406.25 266.15 406.35 264.95 M407.25 265.4 L407.35 265.7 Q407.5 265.95 407.85 265.95 408.35 265.95 408.35 265.4 408.35 264.95 407.8 264.9 407.25 264.85 407.25 265.4 M384.95 325.45 Q384.9 324.7 385.25 323.85 385.65 322.9 386.6 321.85 388.25 320.0 390.65 318.85 L397.45 315.9 Q402.4 313.2 404.15 309.1 405.95 304.8 406.6 294.5 407.05 286.95 406.75 280.1 L406.1 275.65 Q408.35 274.65 411.2 275.75 410.3 286.5 410.45 291.45 410.55 296.4 411.2 301.75 411.85 307.1 414.0 311.5 415.5 314.6 418.4 315.8 L425.0 318.45 Q429.25 320.7 430.5 322.1 L431.3 323.4 431.45 324.0 429.3 325.6 428.4 326.2 427.15 327.0 Q424.4 328.7 422.1 329.6 L417.6 330.8 411.55 331.6 411.55 331.5 411.8 331.0 411.55 330.45 411.05 330.25 410.5 330.45 410.3 331.0 410.5 331.5 410.5 331.6 407.85 331.5 Q405.95 331.35 403.75 329.6 L404.0 328.65 Q404.0 327.9 403.45 327.35 L402.95 327.0 403.15 326.4 402.85 325.7 402.2 325.45 Q401.8 325.45 401.5 325.7 L401.25 326.4 401.45 327.0 401.2 327.15 399.6 325.3 397.75 323.2 398.05 322.6 397.75 321.95 397.15 321.7 Q396.8 321.7 396.5 321.95 L396.45 322.05 395.95 321.65 Q393.7 319.95 391.85 320.15 388.0 320.55 385.95 323.4 L385.65 323.9 384.95 325.45 M402.15 236.05 Q402.55 235.7 403.1 235.7 403.7 235.7 404.15 236.15 404.6 236.6 404.6 237.2 L404.35 238.05 403.8 238.55 403.2 238.7 Q402.35 238.55 402.15 236.05 M403.9 237.0 L403.85 236.75 Q403.15 236.4 403.15 237.05 L403.15 237.25 403.5 237.4 Q403.9 237.4 403.9 237.0 M398.5 254.35 Q398.65 254.15 398.9 254.15 L399.35 254.35 399.55 254.8 399.35 255.25 399.1 255.45 398.5 254.35 M401.5 320.85 L402.35 321.2 Q402.85 321.2 403.2 320.85 403.55 320.5 403.55 320.0 403.55 319.5 403.2 319.15 402.85 318.8 402.35 318.8 401.85 318.8 401.5 319.15 401.15 319.5 401.15 320.0 401.15 320.5 401.5 320.85 M403.8 316.3 Q403.3 316.8 403.3 317.5 403.3 318.2 403.8 318.7 404.3 319.2 405.0 319.2 405.7 319.2 406.2 318.7 406.7 318.2 406.7 317.5 406.7 316.85 406.3 316.4 L406.55 316.45 407.0 316.25 407.2 315.8 407.0 315.35 406.55 315.15 406.1 315.35 405.9 315.8 406.0 316.15 Q405.55 315.8 405.0 315.8 404.3 315.8 403.8 316.3 M395.9 321.4 L396.0 321.65 396.3 321.8 396.55 321.65 396.7 321.4 396.55 321.1 396.3 321.0 396.0 321.1 395.9 321.4 M409.4 311.1 L409.35 311.25 409.55 311.75 410.1 312.0 410.6 311.75 410.8 311.5 410.95 311.65 411.6 311.95 412.2 311.65 412.5 311.05 412.2 310.4 Q411.95 310.15 411.6 310.15 411.25 310.15 410.95 310.4 L410.75 310.85 410.6 310.7 410.1 310.5 Q409.8 310.5 409.55 310.7 L409.6 310.4 409.3 309.7 Q409.0 309.4 408.6 309.4 408.2 309.4 407.9 309.7 407.6 310.0 407.6 310.4 407.6 310.8 407.9 311.1 L408.6 311.4 Q409.0 311.4 409.3 311.1 L409.4 311.1 M413.3 312.25 L412.9 312.1 Q412.65 312.1 412.45 312.25 412.3 312.45 412.3 312.7 L412.45 313.1 412.9 313.3 413.3 313.1 413.5 312.7 413.3 312.25 M409.05 308.2 Q409.45 308.6 410.0 308.6 410.55 308.6 410.95 308.2 411.35 307.8 411.35 307.25 411.35 306.7 410.95 306.3 410.55 305.9 410.0 305.9 409.45 305.9 409.05 306.3 408.65 306.7 408.65 307.25 408.65 307.8 409.05 308.2 M408.55 307.5 L408.05 307.3 407.55 307.5 407.35 308.0 407.55 308.5 Q407.75 308.7 408.05 308.7 L408.55 308.5 408.75 308.0 408.55 307.5 M406.3 309.35 L406.2 309.15 406.05 309.1 405.85 309.15 405.8 309.35 405.85 309.5 406.05 309.6 406.2 309.5 406.3 309.35 M408.6 304.25 L408.85 304.15 408.95 303.9 408.85 303.65 408.6 303.55 408.35 303.65 408.25 303.9 408.35 304.15 408.6 304.25 M409.1 301.1 L409.25 301.5 409.65 301.65 410.05 301.5 410.2 301.1 410.05 300.7 Q409.9 300.55 409.65 300.55 409.4 300.55 409.25 300.7 409.1 300.85 409.1 301.1 M409.45 298.4 L409.35 298.2 409.15 298.1 408.95 298.2 408.85 298.4 408.95 298.6 409.15 298.7 409.35 298.6 409.45 298.4 M410.05 318.4 L409.95 318.3 Q409.65 318.0 409.15 318.0 408.65 318.0 408.3 318.3 408.0 318.65 408.0 319.15 L408.1 319.65 407.6 319.95 Q407.25 320.3 407.25 320.8 407.25 321.3 407.6 321.65 407.95 322.0 408.45 322.0 L409.3 321.65 409.65 320.8 409.55 320.25 409.95 319.95 Q410.3 319.65 410.3 319.2 L410.5 319.45 410.3 319.6 Q409.65 320.25 409.65 321.2 409.65 322.15 410.3 322.8 L411.15 323.35 Q411.0 323.55 411.0 323.8 410.6 323.45 410.1 323.45 409.55 323.45 409.15 323.85 L408.9 324.2 Q408.35 323.8 407.65 323.8 L407.1 323.9 407.4 322.95 Q407.4 322.35 407.0 321.95 406.6 321.55 406.0 321.55 405.4 321.55 405.0 321.95 404.6 322.35 404.6 322.95 404.6 323.55 405.0 323.95 405.4 324.35 406.0 324.35 L406.25 324.35 406.1 324.45 Q405.45 325.1 405.45 326.0 405.45 326.9 406.1 327.55 406.75 328.2 407.65 328.2 408.55 328.2 409.2 327.55 L409.4 327.35 409.8 327.9 Q410.4 328.5 411.25 328.5 L411.85 328.45 411.75 328.85 Q411.75 329.4 412.15 329.8 412.55 330.2 413.1 330.2 413.65 330.2 414.05 329.8 414.45 329.4 414.45 328.85 L414.3 328.2 Q414.95 328.15 415.35 327.7 415.85 327.25 415.85 326.55 415.85 325.85 415.35 325.35 414.9 324.9 414.2 324.9 413.5 324.9 413.0 325.35 L412.8 325.15 413.05 324.9 Q413.45 324.55 413.45 324.05 413.45 323.55 413.05 323.15 L413.45 322.85 413.35 323.3 Q413.35 323.75 413.65 324.05 413.95 324.35 414.4 324.35 L415.15 324.05 415.45 323.3 415.15 322.55 Q414.85 322.25 414.4 322.25 414.05 322.25 413.8 322.45 L414.15 321.2 Q414.15 320.4 413.7 319.85 L414.35 319.45 Q414.75 319.1 414.75 318.55 414.75 318.0 414.35 317.6 414.0 317.25 413.45 317.25 L413.35 317.25 413.15 317.05 Q412.65 316.55 411.9 316.55 411.15 316.55 410.6 317.05 410.1 317.6 410.1 318.35 L410.05 318.4 M408.35 315.1 Q407.9 315.1 407.55 315.4 407.25 315.75 407.25 316.2 407.25 316.65 407.55 316.95 407.9 317.3 408.35 317.3 408.8 317.3 409.1 316.95 L409.45 316.2 409.1 315.4 Q408.8 315.1 408.35 315.1 M406.65 313.85 L406.45 313.4 Q406.3 313.25 406.05 313.25 405.8 313.25 405.6 313.4 405.45 313.6 405.45 313.85 L405.6 314.25 406.05 314.45 Q406.3 314.45 406.45 314.25 L406.65 313.85 M407.5 311.8 Q407.15 311.8 406.9 312.0 L406.7 312.6 406.9 313.15 407.5 313.4 408.05 313.15 408.3 312.6 408.05 312.0 407.5 311.8 M410.1 314.65 L410.45 314.8 410.75 314.65 410.9 314.45 411.25 314.2 411.55 313.45 411.25 312.7 Q410.95 312.4 410.5 312.4 410.05 312.4 409.75 312.7 L409.45 313.35 409.2 313.3 Q408.85 313.3 408.6 313.55 408.35 313.8 408.35 314.15 L408.6 314.75 409.2 315.0 409.8 314.75 410.0 314.45 410.1 314.65 M412.05 314.65 Q411.8 314.95 411.8 315.3 L412.05 315.9 412.7 316.2 413.3 315.9 413.6 315.3 413.3 314.65 Q413.05 314.4 412.7 314.4 412.35 314.4 412.05 314.65 M408.4 328.9 L408.2 328.45 407.8 328.3 Q407.55 328.3 407.35 328.45 407.2 328.65 407.2 328.9 L407.35 329.3 Q407.55 329.5 407.8 329.5 L408.2 329.3 408.4 328.9 M409.35 323.15 L409.15 322.7 408.75 322.55 Q408.5 322.55 408.3 322.7 408.15 322.9 408.15 323.15 L408.3 323.55 Q408.5 323.75 408.75 323.75 409.0 323.75 409.15 323.55 L409.35 323.15 M415.8 329.6 L415.6 330.1 415.8 330.6 416.3 330.8 Q416.6 330.8 416.8 330.6 L417.0 330.1 416.8 329.6 416.3 329.4 415.8 329.6 M417.2 324.3 Q416.7 324.3 416.35 324.65 416.0 325.0 416.0 325.5 416.0 326.0 416.35 326.35 416.7 326.7 417.2 326.7 L418.05 326.35 418.4 325.5 Q418.4 325.0 418.05 324.65 417.7 324.3 417.2 324.3 M418.65 322.35 L418.45 321.9 418.0 321.7 Q417.75 321.7 417.55 321.9 L417.35 322.35 417.55 322.8 Q417.75 323.0 418.0 323.0 L418.45 322.8 418.65 322.35 M420.8 324.6 L420.5 323.95 Q420.25 323.7 419.85 323.7 419.45 323.7 419.15 323.95 418.9 324.25 418.9 324.65 418.9 325.05 419.15 325.3 L419.8 325.6 420.05 326.05 420.15 326.15 419.75 326.45 Q419.25 326.95 419.25 327.65 419.25 328.35 419.75 328.85 420.25 329.35 420.95 329.35 421.65 329.35 422.15 328.85 422.65 328.35 422.65 327.65 422.65 326.95 422.15 326.45 421.8 326.1 421.3 326.0 L421.5 325.45 421.25 324.85 420.8 324.6 M423.6 324.0 L423.15 323.8 422.7 324.0 422.5 324.45 422.7 324.9 Q422.9 325.1 423.15 325.1 L423.6 324.9 423.8 324.45 423.6 324.0 M416.35 319.7 Q416.0 319.7 415.75 319.95 415.5 320.2 415.5 320.55 L415.75 321.15 416.35 321.4 416.95 321.15 417.2 320.55 416.95 319.95 416.35 319.7 M406.8 319.4 L406.3 319.2 405.8 319.4 405.6 319.9 405.8 320.4 406.3 320.6 Q406.6 320.6 406.8 320.4 L407.0 319.9 406.8 319.4" fill="#ba8346" fill-rule="evenodd" stroke="none"/>
    <path d="M412.2 231.35 L412.05 231.35 411.35 231.05 411.1 230.4 Q411.1 230.0 411.35 229.7 L411.55 229.6 Q411.85 231.1 412.2 231.35 M415.05 242.85 Q414.2 242.7 413.6 242.1 412.85 241.35 412.85 240.25 412.85 239.35 413.35 238.7 413.8 242.25 415.05 242.85 M417.6 241.8 L417.3 242.1 416.55 242.65 417.6 241.8 M412.25 255.45 L412.0 255.45 411.3 255.15 Q411.0 254.85 411.0 254.45 411.0 254.05 411.3 253.75 410.75 254.35 412.25 255.45 M410.3 259.2 L410.1 259.45 409.6 259.7 409.05 259.45 408.85 258.95 408.9 258.8 Q409.6 260.1 410.3 259.2 M407.95 267.35 L407.5 267.4 Q406.9 267.4 406.45 266.95 406.0 266.5 406.0 265.9 406.0 265.35 406.35 264.95 406.25 266.15 407.95 267.35 M431.45 324.0 Q431.65 325.0 431.5 326.2 431.15 328.55 426.7 331.15 422.7 333.45 420.75 333.45 L395.3 333.45 Q392.3 332.8 388.8 330.25 385.3 327.7 385.0 325.9 L384.95 325.45 385.65 323.9 385.95 323.4 Q388.0 320.55 391.85 320.15 393.7 319.95 395.95 321.65 L396.45 322.05 396.25 322.6 396.5 323.2 Q396.8 323.5 397.15 323.5 397.5 323.5 397.75 323.2 L399.6 325.3 401.2 327.15 400.9 327.35 Q400.4 327.9 400.4 328.65 400.4 329.4 400.9 329.9 401.45 330.45 402.2 330.45 402.95 330.45 403.45 329.9 L403.75 329.6 Q405.95 331.35 407.85 331.5 L410.5 331.6 410.65 331.6 411.05 331.75 411.5 331.6 411.55 331.6 417.6 330.8 422.1 329.6 Q424.4 328.7 427.15 327.0 L428.4 326.2 429.3 325.6 431.45 324.0 M404.35 238.05 L404.15 238.25 403.8 238.55 404.35 238.05 M403.2 238.7 L403.1 238.7 Q402.5 238.7 402.05 238.25 401.6 237.8 401.6 237.2 401.6 236.6 402.05 236.15 L402.15 236.05 Q402.35 238.55 403.2 238.7 M399.1 255.45 L398.9 255.45 398.45 255.25 398.25 254.8 398.45 254.35 398.5 254.35 399.1 255.45 M391.35 322.65 L391.55 322.2 391.35 321.75 390.9 321.55 390.45 321.75 390.25 322.2 390.45 322.65 390.9 322.85 391.35 322.65 M390.3 326.15 L390.0 325.5 389.4 325.25 Q389.05 325.25 388.75 325.5 388.5 325.8 388.5 326.15 L388.5 326.2 388.75 326.75 389.4 327.05 389.75 327.0 390.0 326.75 390.3 326.15 M396.05 326.2 L395.75 326.3 395.65 326.6 395.75 326.85 396.05 327.0 396.3 326.85 396.45 326.6 396.3 326.3 396.05 326.2" fill="#755e26" fill-rule="evenodd" stroke="none"/>
    <path d="M415.95 226.6 L415.7 226.75 415.45 226.7 415.35 226.45 Q415.35 226.3 415.85 226.3 L415.95 226.6 M407.85 229.9 L407.6 230.0 Q407.35 230.0 407.35 229.6 L407.6 229.25 407.9 229.65 407.85 229.9 M412.7 230.35 L412.4 230.45 412.1 230.35 412.05 230.1 Q412.05 229.9 412.4 229.8 412.75 229.65 412.75 230.1 L412.7 230.35 M414.4 236.7 Q414.4 236.0 415.25 235.95 416.1 235.85 416.1 236.7 L415.9 237.25 415.2 237.55 Q414.75 237.55 414.55 237.15 L414.4 236.7 M414.9 240.4 Q414.9 239.85 415.45 239.9 415.95 239.95 415.95 240.4 L415.9 240.65 Q416.4 240.7 416.4 241.3 416.4 242.0 415.7 242.0 414.95 242.0 414.95 241.3 414.95 241.0 415.1 240.85 L414.95 240.65 414.9 240.4 M410.1 240.8 L409.8 240.95 409.5 240.6 Q409.5 240.05 410.1 240.4 L410.15 240.6 410.1 240.8 M408.3 247.05 Q408.3 246.7 408.7 246.7 409.1 246.7 409.1 247.1 409.1 247.5 408.75 247.5 L408.35 247.4 408.3 247.05 M410.6 245.8 Q409.8 245.8 409.8 245.0 409.8 244.2 410.6 244.2 411.4 244.2 411.4 245.0 411.4 245.8 410.6 245.8 M416.4 239.8 Q415.95 239.8 415.95 239.3 415.95 238.8 416.45 238.85 416.9 238.85 416.9 239.3 416.9 239.8 416.4 239.8 M423.2 250.65 L422.9 250.75 422.6 250.65 422.55 250.4 Q422.55 250.2 422.9 250.1 423.25 249.95 423.25 250.4 L423.2 250.65 M412.5 253.6 L412.65 253.65 412.7 253.75 412.7 253.9 Q412.7 254.3 412.3 254.3 L411.95 254.15 411.95 253.95 Q411.95 253.4 412.5 253.6 M409.35 253.5 L409.3 253.15 Q409.3 252.8 409.7 252.8 410.1 252.8 410.1 253.2 410.1 253.6 409.75 253.6 L409.35 253.5 M411.85 259.25 L411.75 259.05 Q411.75 258.55 412.2 258.55 412.65 258.55 412.65 259.0 412.65 259.45 412.25 259.45 411.95 259.45 411.85 259.25 M407.25 265.4 Q407.25 264.85 407.8 264.9 408.35 264.95 408.35 265.4 408.35 265.95 407.85 265.95 407.5 265.95 407.35 265.7 L407.25 265.4 M396.45 322.05 L396.5 321.95 Q396.8 321.7 397.15 321.7 L397.75 321.95 398.05 322.6 397.75 323.2 Q397.5 323.5 397.15 323.5 396.8 323.5 396.5 323.2 L396.25 322.6 396.45 322.05 M401.2 327.15 L401.45 327.0 401.25 326.4 401.5 325.7 Q401.8 325.45 402.2 325.45 L402.85 325.7 403.15 326.4 402.95 327.0 403.45 327.35 Q404.0 327.9 404.0 328.65 L403.75 329.6 403.45 329.9 Q402.95 330.45 402.2 330.45 401.45 330.45 400.9 329.9 400.4 329.4 400.4 328.65 400.4 327.9 400.9 327.35 L401.2 327.15 M410.5 331.5 L410.3 331.0 410.5 330.45 411.05 330.25 411.55 330.45 411.8 331.0 411.55 331.5 411.5 331.6 411.05 331.75 410.65 331.6 410.5 331.5 M403.9 237.0 Q403.9 237.4 403.5 237.4 L403.15 237.25 403.15 237.05 Q403.15 236.4 403.85 236.75 L403.9 237.0 M399.2 244.15 L399.15 244.4 398.95 244.5 398.65 244.45 398.6 244.2 398.7 244.0 399.15 243.95 399.2 244.15 M402.2 250.0 L402.15 249.8 Q402.15 249.35 402.6 249.35 403.05 249.3 403.05 249.8 L402.65 250.25 402.2 250.0 M401.9 258.0 L401.25 258.3 Q400.7 258.3 400.5 257.85 L400.4 257.35 Q400.4 256.65 401.25 256.7 402.1 256.75 402.1 257.45 L401.9 258.0 M395.9 321.4 L396.0 321.1 396.3 321.0 396.55 321.1 396.7 321.4 396.55 321.65 396.3 321.8 396.0 321.65 395.9 321.4 M403.8 316.3 Q404.3 315.8 405.0 315.8 405.55 315.8 406.0 316.15 L405.9 315.8 406.1 315.35 406.55 315.15 407.0 315.35 407.2 315.8 407.0 316.25 406.55 316.45 406.3 316.4 Q406.7 316.85 406.7 317.5 406.7 318.2 406.2 318.7 405.7 319.2 405.0 319.2 404.3 319.2 403.8 318.7 403.3 318.2 403.3 317.5 403.3 316.8 403.8 316.3 M401.5 320.85 Q401.15 320.5 401.15 320.0 401.15 319.5 401.5 319.15 401.85 318.8 402.35 318.8 402.85 318.8 403.2 319.15 403.55 319.5 403.55 320.0 403.55 320.5 403.2 320.85 402.85 321.2 402.35 321.2 L401.5 320.85 M396.05 326.2 L396.3 326.3 396.45 326.6 396.3 326.85 396.05 327.0 395.75 326.85 395.65 326.6 395.75 326.3 396.05 326.2 M390.3 326.15 L390.0 326.75 389.75 327.0 389.4 327.05 388.75 326.75 388.5 326.2 388.5 326.15 Q388.5 325.8 388.75 325.5 389.05 325.25 389.4 325.25 L390.0 325.5 390.3 326.15 M391.35 322.65 L390.9 322.85 390.45 322.65 390.25 322.2 390.45 321.75 390.9 321.55 391.35 321.75 391.55 322.2 391.35 322.65 M409.45 298.4 L409.35 298.6 409.15 298.7 408.95 298.6 408.85 298.4 408.95 298.2 409.15 298.1 409.35 298.2 409.45 298.4 M409.1 301.1 Q409.1 300.85 409.25 300.7 409.4 300.55 409.65 300.55 409.9 300.55 410.05 300.7 L410.2 301.1 410.05 301.5 409.65 301.65 409.25 301.5 409.1 301.1 M408.6 304.25 L408.35 304.15 408.25 303.9 408.35 303.65 408.6 303.55 408.85 303.65 408.95 303.9 408.85 304.15 408.6 304.25 M406.3 309.35 L406.2 309.5 406.05 309.6 405.85 309.5 405.8 309.35 405.85 309.15 406.05 309.1 406.2 309.15 406.3 309.35 M408.55 307.5 L408.75 308.0 408.55 308.5 408.05 308.7 Q407.75 308.7 407.55 308.5 L407.35 308.0 407.55 307.5 408.05 307.3 408.55 307.5 M409.05 308.2 Q408.65 307.8 408.65 307.25 408.65 306.7 409.05 306.3 409.45 305.9 410.0 305.9 410.55 305.9 410.95 306.3 411.35 306.7 411.35 307.25 411.35 307.8 410.95 308.2 410.55 308.6 410.0 308.6 409.45 308.6 409.05 308.2 M413.3 312.25 L413.5 312.7 413.3 313.1 412.9 313.3 412.45 313.1 412.3 312.7 Q412.3 312.45 412.45 312.25 412.65 312.1 412.9 312.1 L413.3 312.25 M409.3 311.1 Q409.0 311.4 408.6 311.4 L407.9 311.1 Q407.6 310.8 407.6 310.4 407.6 310.0 407.9 309.7 408.2 309.4 408.6 309.4 409.0 309.4 409.3 309.7 L409.6 310.4 409.55 310.7 Q409.8 310.5 410.1 310.5 L410.6 310.7 410.75 310.85 410.95 310.4 Q411.25 310.15 411.6 310.15 411.95 310.15 412.2 310.4 L412.5 311.05 412.2 311.65 411.6 311.95 410.95 311.65 410.8 311.5 410.6 311.75 410.1 312.0 409.55 311.75 409.35 311.25 409.4 311.1 409.4 311.0 409.3 311.1 M412.05 314.65 Q412.35 314.4 412.7 314.4 413.05 314.4 413.3 314.65 L413.6 315.3 413.3 315.9 412.7 316.2 412.05 315.9 411.8 315.3 Q411.8 314.95 412.05 314.65 M410.1 314.65 L410.0 314.45 409.8 314.75 409.2 315.0 408.6 314.75 408.35 314.15 Q408.35 313.8 408.6 313.55 408.85 313.3 409.2 313.3 L409.45 313.35 409.75 312.7 Q410.05 312.4 410.5 312.4 410.95 312.4 411.25 312.7 L411.55 313.45 411.25 314.2 410.9 314.45 410.75 314.65 410.45 314.8 410.1 314.65 M407.5 311.8 L408.05 312.0 408.3 312.6 408.05 313.15 407.5 313.4 406.9 313.15 406.7 312.6 406.9 312.0 Q407.15 311.8 407.5 311.8 M406.65 313.85 L406.45 314.25 Q406.3 314.45 406.05 314.45 L405.6 314.25 405.45 313.85 Q405.45 313.6 405.6 313.4 405.8 313.25 406.05 313.25 406.3 313.25 406.45 313.4 L406.65 313.85 M408.35 315.1 Q408.8 315.1 409.1 315.4 L409.45 316.2 409.1 316.95 Q408.8 317.3 408.35 317.3 407.9 317.3 407.55 316.95 407.25 316.65 407.25 316.2 407.25 315.75 407.55 315.4 407.9 315.1 408.35 315.1 M410.1 318.35 Q410.1 317.6 410.6 317.05 411.15 316.55 411.9 316.55 412.65 316.55 413.15 317.05 L413.35 317.25 413.45 317.25 Q414.0 317.25 414.35 317.6 414.75 318.0 414.75 318.55 414.75 319.1 414.35 319.45 L413.7 319.85 Q414.15 320.4 414.15 321.2 L413.8 322.45 Q414.05 322.25 414.4 322.25 414.85 322.25 415.15 322.55 L415.45 323.3 415.15 324.05 414.4 324.35 Q413.95 324.35 413.65 324.05 413.35 323.75 413.35 323.3 L413.45 322.85 413.05 323.15 Q413.45 323.55 413.45 324.05 413.45 324.55 413.05 324.9 L412.8 325.15 413.0 325.35 Q413.5 324.9 414.2 324.9 414.9 324.9 415.35 325.35 415.85 325.85 415.85 326.55 415.85 327.25 415.35 327.7 414.95 328.15 414.3 328.2 L414.45 328.85 Q414.45 329.4 414.05 329.8 413.65 330.2 413.1 330.2 412.55 330.2 412.15 329.8 411.75 329.4 411.75 328.85 L411.85 328.45 411.25 328.5 Q410.4 328.5 409.8 327.9 L409.4 327.35 409.2 327.55 Q408.55 328.2 407.65 328.2 406.75 328.2 406.1 327.55 405.45 326.9 405.45 326.0 405.45 325.1 406.1 324.45 L406.25 324.35 406.0 324.35 Q405.4 324.35 405.0 323.95 404.6 323.55 404.6 322.95 404.6 322.35 405.0 321.95 405.4 321.55 406.0 321.55 406.6 321.55 407.0 321.95 407.4 322.35 407.4 322.95 L407.1 323.9 407.65 323.8 Q408.35 323.8 408.9 324.2 L409.15 323.85 Q409.55 323.45 410.1 323.45 410.6 323.45 411.0 323.8 411.0 323.55 411.15 323.35 L410.3 322.8 Q409.65 322.15 409.65 321.2 409.65 320.25 410.3 319.6 L410.5 319.45 410.3 319.2 Q410.3 319.65 409.95 319.95 L409.55 320.25 409.65 320.8 409.3 321.65 408.45 322.0 Q407.95 322.0 407.6 321.65 407.25 321.3 407.25 320.8 407.25 320.3 407.6 319.95 L408.1 319.65 408.0 319.15 Q408.0 318.65 408.3 318.3 408.65 318.0 409.15 318.0 409.65 318.0 409.95 318.3 L410.05 318.4 410.1 318.5 410.1 318.35 M406.8 319.4 L407.0 319.9 406.8 320.4 Q406.6 320.6 406.3 320.6 L405.8 320.4 405.6 319.9 405.8 319.4 406.3 319.2 406.8 319.4 M416.35 319.7 L416.95 319.95 417.2 320.55 416.95 321.15 416.35 321.4 415.75 321.15 415.5 320.55 Q415.5 320.2 415.75 319.95 416.0 319.7 416.35 319.7 M423.6 324.0 L423.8 324.45 423.6 324.9 423.15 325.1 Q422.9 325.1 422.7 324.9 L422.5 324.45 422.7 324.0 423.15 323.8 423.6 324.0 M420.8 324.6 L421.25 324.85 421.5 325.45 421.3 326.0 Q421.8 326.1 422.15 326.45 422.65 326.95 422.65 327.65 422.65 328.35 422.15 328.85 421.65 329.35 420.95 329.35 420.25 329.35 419.75 328.85 419.25 328.35 419.25 327.65 419.25 326.95 419.75 326.45 L420.15 326.15 420.05 326.05 419.8 325.6 419.15 325.3 Q418.9 325.05 418.9 324.65 418.9 324.25 419.15 323.95 419.45 323.7 419.85 323.7 420.25 323.7 420.5 323.95 L420.8 324.6 M418.65 322.35 L418.45 322.8 418.0 323.0 Q417.75 323.0 417.55 322.8 L417.35 322.35 417.55 321.9 Q417.75 321.7 418.0 321.7 L418.45 321.9 418.65 322.35 M417.2 324.3 Q417.7 324.3 418.05 324.65 418.4 325.0 418.4 325.5 L418.05 326.35 417.2 326.7 Q416.7 326.7 416.35 326.35 416.0 326.0 416.0 325.5 416.0 325.0 416.35 324.65 416.7 324.3 417.2 324.3 M415.8 329.6 L416.3 329.4 416.8 329.6 417.0 330.1 416.8 330.6 Q416.6 330.8 416.3 330.8 L415.8 330.6 415.6 330.1 415.8 329.6 M409.35 323.15 L409.15 323.55 Q409.0 323.75 408.75 323.75 408.5 323.75 408.3 323.55 L408.15 323.15 Q408.15 322.9 408.3 322.7 408.5 322.55 408.75 322.55 L409.15 322.7 409.35 323.15 M408.4 328.9 L408.2 329.3 407.8 329.5 Q407.55 329.5 407.35 329.3 L407.2 328.9 Q407.2 328.65 407.35 328.45 407.55 328.3 407.8 328.3 L408.2 328.45 408.4 328.9" fill="#e8b67a" fill-rule="evenodd" stroke="none"/>
    <path d="M407.2 262.5 L407.2 262.4 407.2 262.5 M401.4 268.25 L401.4 268.2 401.4 268.25" fill="#0099ff" fill-opacity="0.15294118" fill-rule="evenodd" stroke="none"/>
    <path d="M407.2 262.5 L407.2 262.6 407.3 262.55 407.4 262.4 407.65 262.4 407.55 262.35 407.45 262.3 407.45 262.25 407.45 262.15 Q403.6 260.8 400.6 263.55 L399.15 265.1 398.65 265.9 399.05 266.05 399.1 266.05 399.15 266.0 399.55 265.3 399.95 264.8 400.0 264.85 400.05 264.85 Q400.55 264.35 401.25 264.05 403.55 262.95 406.1 262.55 L407.2 262.4 407.2 262.5 M408.2 268.35 L408.2 268.15 408.15 268.15 404.1 267.75 403.25 267.5 402.85 267.3 402.75 267.25 402.45 267.15 401.1 266.95 401.05 266.8 400.7 266.75 401.4 268.2 401.4 268.25 401.25 268.15 399.4 267.4 398.6 267.1 Q397.8 266.8 397.85 266.5 L397.85 266.35 Q397.9 264.15 400.85 262.55 403.8 260.9 408.05 260.9 412.15 260.9 415.1 262.45 L415.3 262.55 415.7 262.75 Q417.5 263.75 418.2 264.95 418.7 265.75 418.7 266.7 L417.05 267.8 415.4 268.55 415.0 268.8 414.2 271.4 Q412.2 278.6 412.2 288.75 412.2 296.55 413.35 302.6 L414.2 306.1 414.8 308.1 Q416.2 310.5 419.05 312.55 L421.0 313.8 421.65 314.15 422.8 314.65 424.6 315.35 426.65 316.3 428.85 317.45 Q434.6 320.75 434.6 325.1 434.6 330.7 425.0 334.7 422.3 335.75 417.4 335.7 409.95 335.6 408.35 335.75 L405.6 335.75 404.75 335.75 404.75 335.55 404.35 335.55 404.35 334.75 403.55 333.45 403.4 333.25 404.45 333.3 404.65 333.15 404.65 333.1 404.6 333.05 403.4 332.95 403.15 332.9 403.15 333.25 Q397.9 333.0 392.95 331.7 391.55 331.3 390.3 330.7 L388.0 329.35 387.8 329.2 387.7 329.2 387.45 329.1 386.5 328.35 Q385.75 327.9 385.4 327.1 L384.8 326.3 384.55 325.6 Q384.3 325.1 384.35 324.6 384.4 323.85 384.75 323.25 L384.85 323.15 Q384.85 322.8 385.15 322.6 L385.2 322.5 385.25 322.45 385.5 322.2 385.6 322.1 Q386.85 320.9 388.4 319.95 389.1 319.55 389.85 319.3 392.55 318.4 395.35 318.1 L403.45 315.4 409.3 306.6 408.2 268.35 M398.3 318.3 L398.35 318.3 397.9 318.3 398.3 318.3" fill="#997539" fill-opacity="0.3019608" fill-rule="evenodd" stroke="none"/>
    <path d="M407.45 262.25 L407.45 262.3 407.55 262.35 407.65 262.4 407.4 262.4 407.3 262.55 407.2 262.6 407.2 262.5 407.2 262.4 406.1 262.55 Q403.55 262.95 401.25 264.05 400.55 264.35 400.05 264.85 L400.0 264.85 399.95 264.8 399.55 265.3 399.15 266.0 399.1 266.05 399.05 266.05 398.65 265.9 399.15 265.1 400.6 263.55 Q403.6 260.8 407.45 262.15 L407.45 262.25 M403.25 267.5 L404.5 267.95 408.2 268.35 409.3 306.6 403.45 315.4 395.35 318.1 Q392.55 318.4 389.85 319.3 389.1 319.55 388.4 319.95 386.85 320.9 385.6 322.1 L385.5 322.2 385.25 322.45 385.2 322.5 385.15 322.6 Q384.85 322.8 384.85 323.15 L384.75 323.25 Q384.4 323.85 384.35 324.6 384.3 325.1 384.55 325.6 L384.8 326.3 385.4 327.1 Q385.75 327.9 386.5 328.35 L387.45 329.1 387.7 329.2 387.85 329.3 388.0 329.35 390.3 330.7 393.35 331.9 Q398.3 333.2 403.55 333.45 L404.35 334.75 404.35 335.55 404.75 335.55 404.75 335.75 399.55 335.8 Q394.65 335.85 391.85 334.7 382.1 330.75 382.1 325.15 382.1 319.55 391.85 315.6 L393.7 314.9 Q395.95 313.95 397.9 312.6 400.75 310.55 402.2 308.15 L402.8 306.15 403.65 302.65 Q404.8 296.6 404.8 288.8 404.8 278.65 402.8 271.45 L401.8 268.45 401.1 266.95 402.45 267.15 402.75 267.25 402.85 267.35 403.25 267.5" fill="#997539" fill-opacity="0.5019608" fill-rule="evenodd" stroke="none"/>
    <path d="M404.75 335.75 L405.6 335.75 408.35 335.75 Q409.95 335.6 417.4 335.7 422.3 335.75 425.0 334.7 434.6 330.7 434.6 325.1 434.6 320.75 428.85 317.45 L426.65 316.3 424.6 315.35 422.8 314.65 421.65 314.15 421.0 313.8 419.05 312.55 Q416.2 310.5 414.8 308.1 L414.2 306.1 413.35 302.6 Q412.2 296.55 412.2 288.75 412.2 278.6 414.2 271.4 L415.0 268.8 415.4 268.55 417.05 267.8 418.7 266.7 Q418.7 265.75 418.2 264.95 417.5 263.75 415.7 262.75 L415.3 262.55 415.1 262.45 Q412.15 260.9 408.05 260.9 403.8 260.9 400.85 262.55 397.9 264.15 397.85 266.35 L397.85 266.5 Q397.8 266.8 398.6 267.1 L399.8 267.6 401.25 268.15 M401.05 266.8 L401.1 266.95 401.8 268.45 402.8 271.45 Q404.8 278.65 404.8 288.8 404.8 296.6 403.65 302.65 L402.8 306.15 402.2 308.15 Q400.75 310.55 397.9 312.6 395.95 313.95 393.7 314.9 L391.85 315.6 Q382.1 319.55 382.1 325.15 382.1 330.75 391.85 334.7 394.65 335.85 399.55 335.8 L404.75 335.75 M401.8 268.45 L401.4 268.2" ffdec:has-small-stroke="true" ffdec:original-stroke-width="0.5" fill="none" stroke="#000000" stroke-linecap="round" stroke-linejoin="round" stroke-opacity="0.3019608" stroke-width="1.0"/>
  </g>
</svg>
