<?xml version="1.0" encoding="UTF-8" standalone="no"?>
<svg xmlns:ffdec="https://www.free-decompiler.com/flash" xmlns:xlink="http://www.w3.org/1999/xlink" ffdec:objectType="shape" height="75.7px" width="53.5px" xmlns="http://www.w3.org/2000/svg">
  <g transform="matrix(1.0, 0.0, 0.0, 1.0, -316.6, -170.85)">
    <path d="M336.1 177.2 L337.55 177.4 337.85 177.6 338.25 177.75 339.5 178.2 343.55 178.6 343.6 178.6 344.7 217.05 338.85 225.85 Q336.2 227.1 333.6 228.4 L333.2 228.35 332.75 228.4 Q328.9 228.55 325.25 229.75 324.5 230.0 323.8 230.4 322.25 231.35 321.0 232.55 L320.9 232.65 320.65 232.9 320.6 232.95 320.55 233.05 Q320.25 233.25 320.25 233.6 L320.15 233.7 Q319.8 234.3 319.75 235.05 319.7 235.55 319.95 236.05 L320.2 236.75 320.8 237.55 Q321.15 238.35 321.9 238.8 L322.85 239.55 323.0 239.6 323.2 239.65 Q325.5 241.35 328.35 242.15 333.3 243.45 338.55 243.7 L338.8 243.7 339.75 245.2 339.75 246.0 334.55 246.05 Q329.65 246.1 326.85 244.95 317.1 241.0 317.1 235.4 317.1 229.8 326.85 225.85 L328.7 225.15 Q330.95 224.2 332.9 222.85 335.75 220.8 337.2 218.4 L337.8 216.4 338.65 212.9 Q339.8 206.85 339.8 199.05 339.8 188.9 337.8 181.7 L336.8 178.7 336.1 177.2" fill="#0099ff" fill-opacity="0.42352942" fill-rule="evenodd" stroke="none"/>
    <path d="M342.85 172.75 L342.85 172.65 342.85 172.6 Q339.0 171.25 336.0 174.0 L334.55 175.55 334.05 176.35 334.45 176.5 334.6 176.45 Q335.2 175.1 336.65 174.5 338.95 173.4 341.5 173.0 L342.6 172.85 342.6 172.95 342.6 173.05 342.7 173.0 342.8 172.85 343.05 172.85 342.95 172.8 342.85 172.75 M333.6 228.4 Q336.2 227.1 338.85 225.85 L344.7 217.05 343.6 178.6 343.55 178.6 339.5 178.2 338.25 177.75 337.85 177.6 337.55 177.4 336.1 177.2 336.8 178.7 Q336.5 178.4 334.8 177.85 333.2 177.35 333.25 176.95 L333.25 176.8 Q333.3 174.6 336.25 173.0 339.2 171.35 343.45 171.35 347.7 171.35 350.7 173.0 352.5 174.0 353.2 175.2 353.7 176.0 353.7 176.95 353.7 177.35 352.05 178.05 350.25 178.8 350.0 179.05 L349.2 181.65 Q347.2 188.85 347.2 199.0 347.2 206.8 348.35 212.85 348.7 214.6 349.2 216.35 L349.8 218.35 Q351.2 220.75 354.05 222.8 356.0 224.2 358.2 225.1 L360.0 225.8 Q369.6 229.75 369.6 235.35 369.6 240.95 360.0 244.95 357.3 246.0 352.4 245.95 344.95 245.85 343.35 246.0 L340.6 246.0 339.75 246.0 339.75 245.2 338.8 243.7 339.85 243.75 340.05 243.6 340.05 243.55 340.0 243.5 338.8 243.4 338.55 243.35 338.55 243.7 Q333.3 243.45 328.35 242.15 325.5 241.35 323.2 239.65 L322.85 239.55 321.9 238.8 Q321.15 238.35 320.8 237.55 L320.2 236.75 319.95 236.05 Q319.7 235.55 319.75 235.05 319.8 234.3 320.15 233.7 L320.25 233.6 Q320.25 233.25 320.55 233.05 L320.6 232.95 320.65 232.9 320.9 232.65 321.0 232.55 Q322.25 231.35 323.8 230.4 324.5 230.0 325.25 229.75 328.9 228.55 332.75 228.4 L332.75 228.8 333.7 228.75 333.8 228.6 333.8 228.5 333.75 228.5 333.6 228.4 M335.5 176.2 L336.1 177.2 335.5 176.2 M351.45 176.15 Q350.7 177.25 350.0 179.05 350.7 177.25 351.45 176.15" fill="#0099ff" fill-opacity="0.22352941" fill-rule="evenodd" stroke="none"/>
    <path d="M342.85 172.75 L342.95 172.8 343.05 172.85 342.8 172.85 342.7 173.0 342.6 173.05 342.6 172.95 342.6 172.85 341.5 173.0 Q338.95 173.4 336.65 174.5 335.2 175.1 334.6 176.45 L334.45 176.5 334.05 176.35 334.55 175.55 336.0 174.0 Q339.0 171.25 342.85 172.6 L342.85 172.65 342.85 172.75" fill="#0099ff" fill-opacity="0.37254903" fill-rule="evenodd" stroke="none"/>
    <path d="M336.8 178.7 L337.8 181.7 Q339.8 188.9 339.8 199.05 339.8 206.85 338.65 212.9 L337.8 216.4 337.2 218.4 Q335.75 220.8 332.9 222.85 330.95 224.2 328.7 225.15 L326.85 225.85 Q317.1 229.8 317.1 235.4 317.1 241.0 326.85 244.95 329.65 246.1 334.55 246.05 L339.75 246.0 340.6 246.0 343.35 246.0 Q344.95 245.85 352.4 245.95 357.3 246.0 360.0 244.95 369.6 240.95 369.6 235.35 369.6 229.75 360.0 225.8 L358.2 225.1 Q356.0 224.2 354.05 222.8 351.2 220.75 349.8 218.35 L349.2 216.35 Q348.7 214.6 348.35 212.85 347.2 206.8 347.2 199.0 347.2 188.85 349.2 181.65 L350.0 179.05 Q350.25 178.8 352.05 178.05 353.7 177.35 353.7 176.95 353.7 176.0 353.2 175.2 352.5 174.0 350.7 173.0 347.7 171.35 343.45 171.35 339.2 171.35 336.25 173.0 333.3 174.6 333.25 176.8 L333.25 176.95 Q333.2 177.35 334.8 177.85 336.5 178.4 336.8 178.7" fill="none" stroke="#0099ff" stroke-linecap="round" stroke-linejoin="round" stroke-width="1.0"/>
    <path d="M336.1 177.2 L336.8 178.7 M336.1 177.2 L335.5 176.2 M350.0 179.05 Q350.7 177.25 351.45 176.15" ffdec:has-small-stroke="true" ffdec:original-stroke-width="0.05" fill="none" stroke="#50c1fe" stroke-linecap="round" stroke-linejoin="round" stroke-width="1.0"/>
    <path d="M346.05 173.7 L345.7 174.1 344.95 174.3 344.15 174.1 343.85 173.7 344.15 173.25 344.95 173.1 345.7 173.25 Q346.05 173.45 346.05 173.7 M351.65 175.35 Q352.1 176.2 351.75 176.85 351.35 177.5 350.95 176.45 350.5 175.35 349.25 175.4 L347.25 175.15 Q346.55 174.9 346.9 174.25 347.25 173.55 348.2 173.5 349.15 173.4 350.2 173.95 351.2 174.45 351.65 175.35 M345.5 208.85 Q345.8 208.85 346.0 210.4 346.2 211.95 347.15 215.65 348.05 219.3 347.65 220.55 L346.25 220.6 Q345.25 219.4 345.05 217.85 L344.85 214.15 345.05 210.4 Q345.25 208.85 345.5 208.85 M346.35 223.2 Q347.4 222.55 348.85 222.55 350.3 222.55 351.35 223.2 352.35 223.85 352.4 224.75 352.35 225.65 351.35 226.3 350.3 226.95 348.85 226.95 347.4 226.95 346.35 226.3 345.35 225.65 345.35 224.75 345.35 223.85 346.35 223.2 M354.6 226.35 Q356.2 225.4 358.2 227.0 360.2 228.55 362.45 229.15 364.7 229.7 365.4 230.55 366.1 231.45 366.0 232.8 365.9 234.2 365.45 234.7 L363.9 235.55 361.25 235.75 Q360.15 235.6 361.4 235.05 362.65 234.5 364.25 232.75 365.85 230.95 357.25 228.05 L353.85 227.65 Q352.95 227.3 354.6 226.35" fill="#ffffff" fill-rule="evenodd" stroke="none"/>
    <path d="M337.2 179.4 Q338.0 179.2 339.05 181.9 340.15 184.55 340.95 188.5 341.65 192.45 341.65 195.3 341.6 198.2 340.85 198.35 340.05 198.5 339.9 195.75 L339.6 189.05 Q339.35 185.1 337.9 182.3 336.45 179.5 337.2 179.4 M339.85 216.15 Q340.4 216.35 340.35 217.65 340.3 218.9 339.65 220.45 338.95 221.95 338.1 222.9 337.2 223.85 336.65 223.6 336.1 223.35 336.15 222.1 336.25 220.85 336.9 219.3 337.55 217.75 338.4 216.8 339.3 215.9 339.85 216.15 M340.6 222.9 L341.35 222.1 Q341.75 223.05 341.8 224.1 L341.35 226.05 339.05 227.15 334.8 227.8 330.25 228.0 Q327.85 228.15 326.35 229.1 L325.75 228.75 327.05 227.6 Q328.6 226.1 330.45 225.05 L333.0 223.75 333.4 223.55 Q334.75 224.35 336.5 224.35 338.9 224.35 340.6 222.9 M325.35 235.0 Q327.1 237.1 329.85 238.05 332.6 239.0 335.5 239.3 339.2 239.65 337.2 242.9 335.65 245.45 332.35 245.25 329.25 245.05 326.4 244.2 323.55 243.35 321.0 241.75 318.5 240.1 317.65 237.3 316.65 233.85 319.05 232.05 321.4 230.2 324.25 230.45 322.9 232.2 325.35 235.0" fill="#0099ff" fill-opacity="0.5921569" fill-rule="evenodd" stroke="none"/>
    <path d="M334.9 222.1 Q334.45 222.25 334.1 222.65" ffdec:has-small-stroke="true" ffdec:original-stroke-width="0.05" fill="none" stroke="#ffffff" stroke-linecap="round" stroke-linejoin="round" stroke-width="1.0"/>
  </g>
</svg>
