<?xml version="1.0" encoding="UTF-8" standalone="no"?>
<svg xmlns:ffdec="https://www.free-decompiler.com/flash" xmlns:xlink="http://www.w3.org/1999/xlink" ffdec:objectType="frame" height="84.55px" width="80.60px" xmlns="http://www.w3.org/2000/svg" viewBox="212.45 153.85 80.60 84.55">
  <g transform="matrix(1.0, 0.0, 0.0, 1.0, 0.0, 0.0)">
    <use ffdec:characterId="1" height="81.05" transform="matrix(1.0, 0.0, 0.0, 1.0, 215.65, 157.35)" width="71.2" xlink:href="#shape0"/>
    <use ffdec:characterId="3" height="4.3" transform="matrix(0.3861, 0.0, 0.0, 0.3861, 268.75, 220.1)" width="4.8" xlink:href="#sprite0"/>
    <use ffdec:characterId="3" height="4.3" transform="matrix(0.3861, 0.0, 0.0, 0.3861, 254.5, 220.1)" width="4.8" xlink:href="#sprite1"/>
    <use ffdec:characterId="3" height="4.3" transform="matrix(0.3861, 0.0, 0.0, 0.3861, 253.3, 217.05)" width="4.8" xlink:href="#sprite2"/>
    <use ffdec:characterId="3" height="4.3" transform="matrix(0.3861, 0.0, 0.0, 0.3861, 250.65, 218.45)" width="4.8" xlink:href="#sprite3"/>
    <use ffdec:characterId="3" height="4.3" transform="matrix(0.3861, 0.0, 0.0, 0.3861, 247.15, 220.8)" width="4.8" xlink:href="#sprite4"/>
    <use ffdec:characterId="3" height="4.3" transform="matrix(0.3861, 0.0, 0.0, 0.3861, 251.05, 223.6)" width="4.8" xlink:href="#sprite5"/>
    <use ffdec:characterId="3" height="4.3" transform="matrix(0.3861, 0.0, 0.0, 0.3861, 263.7, 216.3)" width="4.8" xlink:href="#sprite6"/>
    <use ffdec:characterId="3" height="4.3" transform="matrix(0.3861, 0.0, 0.0, 0.3861, 243.4, 215.75)" width="4.8" xlink:href="#sprite7"/>
    <use ffdec:characterId="3" height="4.3" transform="matrix(0.3861, 0.0, 0.0, 0.3861, 235.3, 217.95)" width="4.8" xlink:href="#sprite8"/>
    <use ffdec:characterId="4" height="75.7" transform="matrix(1.0, 0.0, 0.0, 1.0, 225.85, 153.85)" width="52.95" xlink:href="#shape10"/>
    <use ffdec:characterId="5" height="24.0" transform="matrix(1.0, 0.0, 0.0, 1.0, 212.45, 177.4)" width="35.95" xlink:href="#shape11"/>
    <use ffdec:characterId="5" height="24.0" transform="matrix(-1.0, 0.0, 0.0, 1.0, 293.05, 177.4)" width="35.95" xlink:href="#shape11"/>
  </g>
  <defs>
    <g id="shape0" transform="matrix(1.0, 0.0, 0.0, 1.0, -215.65, -157.35)">
      <path d="M286.85 235.4 Q272.0 238.35 252.7 238.4 231.5 238.4 215.65 234.8 L215.65 208.55 Q231.5 205.05 252.7 205.05 272.0 205.05 286.85 208.0 L286.85 235.4" fill="url(#gradient0)" fill-rule="evenodd" stroke="none"/>
      <path d="M272.0 213.1 L271.85 213.3 271.7 212.95 272.0 213.1 M233.4 213.3 L233.25 213.1 233.65 212.9 233.4 213.3" fill="#0033ff" fill-rule="evenodd" stroke="none"/>
      <path d="M271.85 213.3 L272.0 213.1 Q276.95 215.35 276.95 218.3 276.95 221.8 269.85 224.3 262.7 226.8 252.6 226.8 242.45 226.8 235.35 224.3 228.2 221.8 228.2 218.3 228.2 215.3 233.25 213.1 L233.4 213.3 Q233.35 213.5 233.6 213.7 234.45 214.45 239.0 215.0 L239.05 215.0 245.95 215.55 252.6 215.75 253.35 215.75 263.4 215.35 266.2 215.0 Q270.8 214.45 271.65 213.65 L271.85 213.3" fill="#ff3300" fill-rule="evenodd" stroke="none"/>
      <path d="M271.7 212.95 L271.85 213.3 271.65 213.65 Q270.8 214.45 266.2 215.0 L263.4 215.35 253.35 215.75 252.6 215.75 245.95 215.55 239.05 215.0 239.0 215.0 Q234.45 214.45 233.6 213.7 233.35 213.5 233.4 213.3 L233.65 212.9 Q234.1 212.5 235.5 212.2 L239.0 211.6 245.95 211.05 252.6 210.9 253.35 210.9 263.4 211.3 266.2 211.6 269.45 212.15 Q271.2 212.5 271.7 212.95" fill="#f0946c" fill-rule="evenodd" stroke="none"/>
      <path d="M252.85 161.4 L248.2 160.8 Q246.3 160.2 246.3 159.35 246.3 158.5 248.2 157.95 L252.85 157.35 257.45 157.95 Q259.35 158.5 259.35 159.35 259.35 160.2 257.45 160.8 L252.85 161.4 Z" ffdec:has-small-stroke="true" ffdec:original-stroke-width="0.05" fill="none" stroke="#ff3300" stroke-linecap="round" stroke-linejoin="round" stroke-width="1.0"/>
    </g>
    <radialGradient cx="0" cy="0" gradientTransform="matrix(0.0729, 0.0, 0.0, 0.0547, 252.7, 221.7)" gradientUnits="userSpaceOnUse" id="gradient0" r="819.2" spreadMethod="pad">
      <stop offset="0.0" stop-color="#91756f"/>
      <stop offset="0.1803921568627451" stop-color="#c2b2af"/>
      <stop offset="0.4" stop-color="#ffffff" stop-opacity="0.0"/>
    </radialGradient>
    <g id="sprite0" transform="matrix(1.0, 0.0, 0.0, 1.0, 0.0, 0.0)">
      <use ffdec:characterId="2" height="4.3" transform="matrix(1.0, 0.0, 0.0, 1.0, 0.0, 0.0)" width="4.8" xlink:href="#shape1"/>
    </g>
    <g id="shape1" transform="matrix(1.0, 0.0, 0.0, 1.0, 0.0, 0.0)">
      <path d="M0.7 3.65 Q0.0 3.05 0.0 2.15 0.0 1.25 0.7 0.6 1.4 0.0 2.4 0.0 3.4 0.0 4.1 0.6 4.8 1.25 4.8 2.15 4.8 3.05 4.1 3.65 3.4 4.3 2.4 4.3 1.4 4.3 0.7 3.65" fill="#f0946c" fill-rule="evenodd" stroke="none"/>
    </g>
    <g id="sprite1" transform="matrix(1.0, 0.0, 0.0, 1.0, 0.0, 0.0)">
      <use ffdec:characterId="2" height="4.3" transform="matrix(1.0, 0.0, 0.0, 1.0, 0.0, 0.0)" width="4.8" xlink:href="#shape2"/>
    </g>
    <g id="shape2" transform="matrix(1.0, 0.0, 0.0, 1.0, 0.0, 0.0)">
      <path d="M0.7 3.65 Q0.0 3.05 0.0 2.15 0.0 1.25 0.7 0.6 1.4 0.0 2.4 0.0 3.4 0.0 4.1 0.6 4.8 1.25 4.8 2.15 4.8 3.05 4.1 3.65 3.4 4.3 2.4 4.3 1.4 4.3 0.7 3.65" fill="#f0946c" fill-rule="evenodd" stroke="none"/>
    </g>
    <g id="sprite2" transform="matrix(1.0, 0.0, 0.0, 1.0, 0.0, 0.0)">
      <use ffdec:characterId="2" height="4.3" transform="matrix(1.0, 0.0, 0.0, 1.0, 0.0, 0.0)" width="4.8" xlink:href="#shape3"/>
    </g>
    <g id="shape3" transform="matrix(1.0, 0.0, 0.0, 1.0, 0.0, 0.0)">
      <path d="M0.7 3.65 Q0.0 3.05 0.0 2.15 0.0 1.25 0.7 0.6 1.4 0.0 2.4 0.0 3.4 0.0 4.1 0.6 4.8 1.25 4.8 2.15 4.8 3.05 4.1 3.65 3.4 4.3 2.4 4.3 1.4 4.3 0.7 3.65" fill="#f0946c" fill-rule="evenodd" stroke="none"/>
    </g>
    <g id="sprite3" transform="matrix(1.0, 0.0, 0.0, 1.0, 0.0, 0.0)">
      <use ffdec:characterId="2" height="4.3" transform="matrix(1.0, 0.0, 0.0, 1.0, 0.0, 0.0)" width="4.8" xlink:href="#shape4"/>
    </g>
    <g id="shape4" transform="matrix(1.0, 0.0, 0.0, 1.0, 0.0, 0.0)">
      <path d="M0.7 3.65 Q0.0 3.05 0.0 2.15 0.0 1.25 0.7 0.6 1.4 0.0 2.4 0.0 3.4 0.0 4.1 0.6 4.8 1.25 4.8 2.15 4.8 3.05 4.1 3.65 3.4 4.3 2.4 4.3 1.4 4.3 0.7 3.65" fill="#f0946c" fill-rule="evenodd" stroke="none"/>
    </g>
    <g id="sprite4" transform="matrix(1.0, 0.0, 0.0, 1.0, 0.0, 0.0)">
      <use ffdec:characterId="2" height="4.3" transform="matrix(1.0, 0.0, 0.0, 1.0, 0.0, 0.0)" width="4.8" xlink:href="#shape5"/>
    </g>
    <g id="shape5" transform="matrix(1.0, 0.0, 0.0, 1.0, 0.0, 0.0)">
      <path d="M0.7 3.65 Q0.0 3.05 0.0 2.15 0.0 1.25 0.7 0.6 1.4 0.0 2.4 0.0 3.4 0.0 4.1 0.6 4.8 1.25 4.8 2.15 4.8 3.05 4.1 3.65 3.4 4.3 2.4 4.3 1.4 4.3 0.7 3.65" fill="#f0946c" fill-rule="evenodd" stroke="none"/>
    </g>
    <g id="sprite5" transform="matrix(1.0, 0.0, 0.0, 1.0, 0.0, 0.0)">
      <use ffdec:characterId="2" height="4.3" transform="matrix(1.0, 0.0, 0.0, 1.0, 0.0, 0.0)" width="4.8" xlink:href="#shape6"/>
    </g>
    <g id="shape6" transform="matrix(1.0, 0.0, 0.0, 1.0, 0.0, 0.0)">
      <path d="M0.7 3.65 Q0.0 3.05 0.0 2.15 0.0 1.25 0.7 0.6 1.4 0.0 2.4 0.0 3.4 0.0 4.1 0.6 4.8 1.25 4.8 2.15 4.8 3.05 4.1 3.65 3.4 4.3 2.4 4.3 1.4 4.3 0.7 3.65" fill="#f0946c" fill-rule="evenodd" stroke="none"/>
    </g>
    <g id="sprite6" transform="matrix(1.0, 0.0, 0.0, 1.0, 0.0, 0.0)">
      <use ffdec:characterId="2" height="4.3" transform="matrix(1.0, 0.0, 0.0, 1.0, 0.0, 0.0)" width="4.8" xlink:href="#shape7"/>
    </g>
    <g id="shape7" transform="matrix(1.0, 0.0, 0.0, 1.0, 0.0, 0.0)">
      <path d="M0.7 3.65 Q0.0 3.05 0.0 2.15 0.0 1.25 0.7 0.6 1.4 0.0 2.4 0.0 3.4 0.0 4.1 0.6 4.8 1.25 4.8 2.15 4.8 3.05 4.1 3.65 3.4 4.3 2.4 4.3 1.4 4.3 0.7 3.65" fill="#f0946c" fill-rule="evenodd" stroke="none"/>
    </g>
    <g id="sprite7" transform="matrix(1.0, 0.0, 0.0, 1.0, 0.0, 0.0)">
      <use ffdec:characterId="2" height="4.3" transform="matrix(1.0, 0.0, 0.0, 1.0, 0.0, 0.0)" width="4.8" xlink:href="#shape8"/>
    </g>
    <g id="shape8" transform="matrix(1.0, 0.0, 0.0, 1.0, 0.0, 0.0)">
      <path d="M0.7 3.65 Q0.0 3.05 0.0 2.15 0.0 1.25 0.7 0.6 1.4 0.0 2.4 0.0 3.4 0.0 4.1 0.6 4.8 1.25 4.8 2.15 4.8 3.05 4.1 3.65 3.4 4.3 2.4 4.3 1.4 4.3 0.7 3.65" fill="#f0946c" fill-rule="evenodd" stroke="none"/>
    </g>
    <g id="sprite8" transform="matrix(1.0, 0.0, 0.0, 1.0, 0.0, 0.0)">
      <use ffdec:characterId="2" height="4.3" transform="matrix(1.0, 0.0, 0.0, 1.0, 0.0, 0.0)" width="4.8" xlink:href="#shape9"/>
    </g>
    <g id="shape9" transform="matrix(1.0, 0.0, 0.0, 1.0, 0.0, 0.0)">
      <path d="M0.7 3.65 Q0.0 3.05 0.0 2.15 0.0 1.25 0.7 0.6 1.4 0.0 2.4 0.0 3.4 0.0 4.1 0.6 4.8 1.25 4.8 2.15 4.8 3.05 4.1 3.65 3.4 4.3 2.4 4.3 1.4 4.3 0.7 3.65" fill="#f0946c" fill-rule="evenodd" stroke="none"/>
    </g>
    <g id="shape10" transform="matrix(1.0, 0.0, 0.0, 1.0, -225.85, -153.85)">
      <path d="M245.8 161.1 L245.45 160.95 245.15 160.75 243.7 160.55 244.25 161.75 244.4 162.05 Q244.1 161.75 242.4 161.2 240.8 160.7 240.85 160.3 L240.85 160.15 Q240.9 157.95 243.85 156.35 246.8 154.7 251.05 154.7 L251.45 154.7 Q255.45 154.8 258.3 156.35 260.1 157.35 260.8 158.55 261.3 159.35 261.3 160.3 261.3 160.7 259.65 161.4 257.85 162.15 257.6 162.4 L256.8 165.0 Q254.8 172.2 254.8 182.35 254.8 190.15 255.95 196.2 L256.8 199.7 257.4 201.7 Q258.8 204.1 261.65 206.15 263.6 207.55 265.8 208.45 L267.6 209.15 Q271.1 210.6 273.35 212.3 L275.45 214.25 Q277.2 217.65 277.05 220.1 276.85 222.8 274.3 224.4 L271.9 226.1 Q270.05 227.25 267.6 228.3 L266.5 228.65 262.6 229.25 260.4 229.3 260.0 229.3 255.6 229.3 252.0 229.3 251.1 229.35 250.95 229.35 248.6 229.35 248.2 229.35 247.75 229.35 247.35 229.35 247.35 229.0 247.35 228.55 246.4 227.05 246.8 227.1 247.45 227.1 247.65 226.95 247.65 226.9 247.6 226.85 246.4 226.75 246.15 226.7 246.15 227.05 239.85 226.35 239.55 226.3 235.95 225.5 Q233.1 224.7 230.8 223.0 L230.45 222.9 229.5 222.15 Q228.75 221.7 228.4 220.9 L227.8 220.1 227.55 219.4 Q227.3 218.9 227.35 218.4 227.4 217.65 227.75 217.05 L227.85 216.95 Q227.85 216.6 228.15 216.4 L228.2 216.3 228.25 216.25 228.5 216.0 228.6 215.9 Q229.85 214.7 231.4 213.75 232.1 213.35 232.85 213.1 L234.7 212.55 Q237.45 211.85 240.35 211.75 L240.35 212.15 241.0 212.1 241.3 212.1 241.4 211.95 241.4 211.85 241.35 211.85 241.2 211.75 241.9 211.4 246.45 209.2 252.3 200.4 251.2 161.95 251.15 161.95 247.1 161.55 245.85 161.1 245.8 161.1 M278.3 219.75 Q278.45 217.3 274.35 211.95 L274.5 212.1 Q278.45 216.0 278.45 218.35 L278.3 219.75 M247.35 155.55 Q245.3 155.75 243.6 157.35 L242.15 158.9 241.65 159.7 242.05 159.85 242.2 159.8 242.25 159.75 Q242.8 158.5 244.2 157.85 L244.25 157.85 246.75 156.9 249.1 156.35 250.0 156.2 250.0 156.25 250.2 156.2 250.2 156.3 250.2 156.4 250.3 156.35 250.4 156.2 250.65 156.2 250.55 156.15 250.45 156.1 250.45 156.0 250.45 155.95 248.2 155.5 248.0 155.5 247.35 155.55" fill="#fced96" fill-opacity="0.4" fill-rule="evenodd" stroke="none"/>
      <path d="M247.35 155.55 L248.0 155.5 248.2 155.5 250.45 155.95 250.15 156.0 246.75 156.9 244.25 157.85 244.2 157.85 245.05 157.0 Q246.1 156.0 247.35 155.55 M245.8 161.1 L245.85 161.1 247.1 161.55 251.15 161.95 251.2 161.95 252.3 200.4 246.45 209.2 241.9 211.4 241.6 211.4 Q238.05 211.55 234.7 212.55 L232.85 213.1 Q232.1 213.35 231.4 213.75 229.85 214.7 228.6 215.9 L228.5 216.0 228.25 216.25 228.2 216.3 228.15 216.4 Q227.85 216.6 227.85 216.95 L227.75 217.05 Q227.4 217.65 227.35 218.4 227.3 218.9 227.55 219.4 L227.8 220.1 228.4 220.9 Q228.75 221.7 229.5 222.15 L230.45 222.9 230.8 223.0 Q233.1 224.7 235.95 225.5 L239.55 226.3 239.85 226.35 246.15 227.05 246.15 226.7 246.4 226.75 247.6 226.85 247.65 226.9 247.65 226.95 247.45 227.1 246.8 227.1 246.4 227.05 247.35 228.55 247.35 229.0 243.8 229.05 Q238.9 229.1 236.1 227.95 226.35 224.0 226.35 218.4 226.35 212.8 236.1 208.85 L237.95 208.15 Q240.2 207.2 242.15 205.85 245.0 203.8 246.45 201.4 L247.05 199.4 247.9 195.9 Q249.05 189.85 249.05 182.05 249.05 171.9 247.05 164.7 L246.05 161.7 245.8 161.1" fill="#ffa86f" fill-rule="evenodd" stroke="none"/>
      <path d="M245.8 161.1 L246.05 161.7" ffdec:has-small-stroke="true" ffdec:original-stroke-width="0.05" fill="none" stroke="#50c1fe" stroke-linecap="round" stroke-linejoin="round" stroke-width="1.0"/>
      <path d="M274.35 211.95 Q272.45 210.15 269.25 208.8 L267.45 208.1 Q265.25 207.2 263.3 205.8 260.45 203.75 259.05 201.35 L258.45 199.35 257.6 195.85 Q256.45 189.8 256.45 182.0 256.45 171.85 258.45 164.65 L259.25 162.05 Q259.5 161.8 261.3 161.05 L262.95 159.95 Q262.95 159.0 262.45 158.2 261.75 157.0 259.95 156.0 256.95 154.35 252.7 154.35 L252.3 154.35 M246.05 161.7 L247.05 164.7 Q249.05 171.9 249.05 182.05 249.05 189.85 247.9 195.9 L247.05 199.4 246.45 201.4 Q245.0 203.8 242.15 205.85 240.2 207.2 237.95 208.15 L236.1 208.85 Q226.35 212.8 226.35 218.4 226.35 224.0 236.1 227.95 238.9 229.1 243.8 229.05 L247.35 229.0 M246.05 161.7 L245.5 161.4 M274.35 211.95 L274.5 212.1" fill="none" stroke="#ff6600" stroke-linecap="round" stroke-linejoin="round" stroke-opacity="0.6901961" stroke-width="1.0"/>
      <path d="M273.15 225.75 Q278.1 222.45 278.3 219.75 278.45 217.3 274.35 211.95" fill="none" stroke="#ff954f" stroke-linecap="round" stroke-linejoin="round" stroke-width="1.0"/>
      <path d="M266.5 228.65 L269.25 227.95 Q271.5 227.0 273.15 225.75" fill="none" stroke="#ff954f" stroke-linecap="round" stroke-linejoin="round" stroke-width="1.0"/>
      <path d="M257.25 156.5 Q258.2 156.4 259.25 156.95 260.25 157.45 260.7 158.35 261.15 159.2 260.8 159.85 260.4 160.5 260.0 159.45 259.55 158.35 258.3 158.4 L256.3 158.15 Q255.6 157.9 255.95 157.25 256.3 156.55 257.25 156.5 M254.2 156.1 Q254.5 156.1 254.7 156.25 L254.75 156.25 255.1 156.7 254.75 157.1 254.7 157.15 254.2 157.3 254.0 157.3 253.2 157.1 252.9 156.7 Q252.85 156.45 253.2 156.25 L254.0 156.1 254.2 156.1 M255.05 193.4 Q255.25 194.95 256.2 198.65 257.1 202.3 256.7 203.55 L255.3 203.6 254.7 202.75 254.2 201.5 254.1 200.85 253.9 197.15 254.1 193.4 254.2 192.6 Q254.35 191.85 254.55 191.85 L254.7 191.95 255.05 193.4 M267.25 210.0 Q269.25 211.55 271.5 212.15 273.75 212.7 274.45 213.55 275.15 214.45 275.05 215.8 274.95 217.2 274.5 217.7 L272.95 218.55 270.3 218.75 Q269.2 218.6 270.45 218.05 271.7 217.5 273.3 215.75 274.9 213.95 266.3 211.05 L262.9 210.65 Q262.0 210.3 263.65 209.35 265.25 208.4 267.25 210.0 M254.4 207.75 Q254.4 207.25 254.7 206.8 L255.4 206.2 Q256.45 205.55 257.9 205.55 259.35 205.55 260.4 206.2 261.4 206.85 261.45 207.75 261.4 208.65 260.4 209.3 259.35 209.95 257.9 209.95 256.45 209.95 255.4 209.3 L254.7 208.7 Q254.4 208.25 254.4 207.75" fill="#ffffff" fill-rule="evenodd" stroke="none"/>
      <path d="M250.0 171.5 Q250.7 175.45 250.7 178.3 250.65 181.2 249.9 181.35 249.1 181.5 248.95 178.75 L248.65 172.05 Q248.4 168.1 246.95 165.3 245.5 162.5 246.25 162.4 247.05 162.2 248.1 164.9 249.2 167.55 250.0 171.5 M249.4 200.65 Q249.35 201.9 248.7 203.45 248.0 204.95 247.15 205.9 246.25 206.85 245.7 206.6 245.15 206.35 245.2 205.1 245.3 203.85 245.95 202.3 246.6 200.75 247.45 199.8 248.35 198.9 248.9 199.15 249.45 199.35 249.4 200.65 M244.9 207.3 L245.55 207.35 Q247.95 207.35 249.65 205.9 L250.4 205.1 Q250.8 206.05 250.85 207.1 L250.4 209.05 Q249.4 209.75 248.1 210.15 L244.9 210.75 243.85 210.8 239.3 211.0 Q236.9 211.15 235.4 212.1 L234.8 211.75 236.1 210.6 Q237.65 209.1 239.5 208.05 240.8 207.3 242.05 206.75 L242.45 206.55 Q243.55 207.2 244.9 207.3 M246.25 225.9 Q244.7 228.45 241.4 228.25 L235.45 227.2 Q232.6 226.35 230.05 224.75 228.15 223.55 227.25 221.65 L226.7 220.3 Q225.7 216.85 228.1 215.05 230.45 213.2 233.3 213.45 231.95 215.2 234.4 218.0 236.15 220.1 238.9 221.05 L240.9 221.65 244.55 222.3 Q248.25 222.65 246.25 225.9" fill="#f5c79c" fill-rule="evenodd" stroke="none"/>
      <path d="M243.95 205.1 L243.15 205.65" ffdec:has-small-stroke="true" ffdec:original-stroke-width="0.05" fill="none" stroke="#f5c79c" stroke-linecap="round" stroke-linejoin="round" stroke-opacity="0.73333335" stroke-width="1.0"/>
    </g>
    <g id="shape11" transform="matrix(1.0, 0.0, 0.0, 1.0, 0.5, 0.5)">
      <path d="M25.15 14.1 L24.6 15.3 25.15 14.1 M25.5 18.7 L27.45 18.85 26.55 16.15 25.5 18.7 M29.95 21.0 Q28.45 23.1 27.0 23.0 25.75 22.95 23.9 21.15 22.7 20.05 24.6 15.3 22.9 18.6 19.4 20.05 L19.25 20.1 Q12.15 22.25 11.95 15.5 13.7 12.4 21.05 10.7 L13.5 10.75 Q8.45 10.35 5.25 7.75 0.9 4.85 0.4 3.2 L0.2 3.05 Q-1.15 0.9 7.7 0.0 16.15 1.05 20.0 2.85 23.85 4.65 27.35 6.75 30.95 8.9 34.95 15.85 L34.35 21.2 31.0 16.55 Q31.9 18.3 29.95 21.0 M9.7 5.9 L25.2 7.85 16.3 3.25 5.85 2.4 9.7 5.9 M14.85 16.65 L19.0 17.75 21.2 12.25 14.85 16.65" fill="#f5b87c" fill-rule="evenodd" stroke="none"/>
      <path d="M25.5 18.7 L26.55 16.15 27.45 18.85 25.5 18.7 M9.7 5.9 L5.85 2.4 16.3 3.25 25.2 7.85 9.7 5.9 M14.85 16.65 L21.2 12.25 19.0 17.75 14.85 16.65" fill="#fefbea" fill-rule="evenodd" stroke="none"/>
      <path d="M24.6 15.3 L25.15 14.1 M29.95 21.0 Q28.45 23.1 27.0 23.0 25.75 22.95 23.9 21.15 22.7 20.05 24.6 15.3 22.9 18.6 19.4 20.05 L19.25 20.1 Q12.15 22.25 11.95 15.5 13.7 12.4 21.05 10.7 M5.25 7.75 Q0.9 4.85 0.4 3.2 M0.2 3.05 Q-1.15 0.9 7.7 0.0 16.15 1.05 20.0 2.85 23.85 4.65 27.35 6.75 30.95 8.9 34.95 15.85 L34.35 21.2 31.0 16.55" fill="none" stroke="#fe7d3c" stroke-linecap="round" stroke-linejoin="round" stroke-width="1.0"/>
      <path d="M21.05 10.7 L13.5 10.75 Q8.45 10.35 5.25 7.75 M31.0 16.55 Q31.9 18.3 29.95 21.0" fill="none" stroke="#fe7d3c" stroke-linecap="round" stroke-linejoin="round" stroke-width="1.0"/>
    </g>
  </defs>
</svg>
