<?xml version="1.0" encoding="UTF-8" standalone="no"?>
<svg xmlns:ffdec="https://www.free-decompiler.com/flash" xmlns:xlink="http://www.w3.org/1999/xlink" ffdec:objectType="frame" height="121.35px" width="123.11px" xmlns="http://www.w3.org/2000/svg" viewBox="213.70 137.10 123.11 121.35">
  <g transform="matrix(1.0, 0.0, 0.0, 1.0, 0.0, 0.0)">
    <use ffdec:characterId="1" height="117.0" transform="matrix(1.0, 0.0, 0.0, 1.0, 216.75, 141.45)" width="116.75" xlink:href="#shape0"/>
    <filter id="filter0">
      <feConvolveMatrix divisor="9.0" in="SourceGraphic" kernelMatrix="1 1 1 1 1 1 1 1 1" order="3 3" result="filterResult0"/>
    </filter>
    <use ffdec:characterId="3" filter="url(#filter0)" height="21.65" style="mix-blend-mode: hard-light" transform="matrix(0.5275, 0.5275, -0.4639, 0.4639, 314.0, 137.1)" width="43.25" xlink:href="#sprite0"/>
    <use ffdec:characterId="4" height="104.8" transform="matrix(1.0, 0.0, 0.0, 1.0, 219.6, 148.6)" width="107.0" xlink:href="#shape2"/>
    <filter id="filter1">
      <feConvolveMatrix divisor="9.0" in="SourceGraphic" kernelMatrix="1 1 1 1 1 1 1 1 1" order="3 3" result="filterResult1"/>
    </filter>
    <use ffdec:characterId="6" filter="url(#filter1)" height="116.35" style="mix-blend-mode: overlay" transform="matrix(0.7071, 0.7071, -0.7066, 0.7066, 295.9138, 157.2761)" width="14.0" xlink:href="#sprite1"/>
  </g>
  <defs>
    <g id="shape0" transform="matrix(1.0, 0.0, 0.0, 1.0, -216.75, -141.45)">
      <path d="M296.75 154.75 Q299.25 157.45 297.85 156.35 L217.55 236.65 217.3 234.4 217.3 234.2 296.75 154.75 M317.65 177.85 L319.4 179.6 241.6 257.4 Q238.5 258.5 236.0 257.4 L317.65 177.85" fill="#ad6922" fill-opacity="0.5019608" fill-rule="evenodd" stroke="none"/>
      <path d="M297.85 156.35 L317.65 177.85 236.0 257.4 Q229.55 255.05 226.25 252.05 222.95 248.95 220.65 245.65 218.35 242.25 217.55 236.65 L297.85 156.35" fill="#643d02" fill-opacity="0.5019608" fill-rule="evenodd" stroke="none"/>
      <path d="M296.75 154.75 Q299.25 157.45 297.85 156.35 L317.65 177.85 319.4 179.6 241.6 257.4" fill="none" stroke="#70543a" stroke-linecap="round" stroke-linejoin="round" stroke-opacity="0.7529412" stroke-width="1.0"/>
      <path d="M241.6 257.4 Q238.5 258.5 236.0 257.4 229.55 255.05 226.25 252.05 222.95 248.95 220.65 245.65 218.35 242.25 217.55 236.65 L217.3 234.4 217.3 234.2 296.75 154.75" fill="none" stroke="#70543a" stroke-linecap="round" stroke-linejoin="round" stroke-opacity="0.7529412" stroke-width="1.0"/>
      <path d="M331.4 167.4 L315.85 178.45 315.4 178.7 Q314.9 179.0 314.55 179.25 L314.1 179.7 310.85 179.85 310.2 179.7 326.5 167.9 326.35 167.75 326.6 167.8 327.25 167.95 Q329.85 168.45 331.4 167.4 M296.4 167.0 L296.05 166.05 295.55 164.45 Q295.0 162.3 295.75 161.05 L295.8 161.0 295.9 160.7 305.95 146.15 306.4 145.3 307.55 143.65 307.05 144.75 Q306.7 146.2 307.2 148.4 L307.5 149.3 307.6 149.6 Q306.95 150.55 306.8 153.2 306.7 155.9 308.8 157.0 L308.9 157.0 300.25 168.25 300.2 168.2 Q299.2 167.3 298.1 167.0 297.15 166.75 296.4 167.0 M328.85 154.05 Q329.6 155.8 329.55 157.35 329.55 158.85 331.2 160.6 332.85 162.25 332.95 162.85 331.25 162.15 329.75 160.65 327.95 158.85 327.35 157.05 326.65 155.35 327.5 154.5 328.0 154.0 328.85 154.05" fill="#8a5702" fill-rule="evenodd" stroke="none"/>
      <path d="M332.3 166.8 L331.4 167.4 Q329.85 168.45 327.25 167.95 L326.6 167.8 326.35 167.75 325.25 167.35 324.7 167.2 321.7 165.8 Q318.7 164.0 315.65 161.15 L315.2 160.8 314.7 160.3 312.75 158.15 312.7 158.1 313.35 158.45 313.45 158.45 313.55 158.45 313.6 158.5 Q315.65 159.05 316.55 158.15 317.55 157.15 316.9 155.2 316.35 153.15 314.5 151.4 312.75 149.55 310.7 149.0 308.75 148.35 307.75 149.35 L307.6 149.6 307.5 149.3 307.2 148.4 Q306.7 146.2 307.05 144.75 L307.55 143.65 308.3 142.6 Q310.2 141.5 313.3 142.3 L315.25 142.95 Q320.25 144.85 325.2 149.8 327.35 151.95 328.85 154.05 328.0 154.0 327.5 154.5 326.65 155.35 327.35 157.05 327.95 158.85 329.75 160.65 331.25 162.15 332.95 162.85 333.2 165.1 332.3 166.8" fill="#de961e" fill-rule="evenodd" stroke="none"/>
      <path d="M312.75 158.15 L314.7 160.3 315.2 160.8 315.65 161.15 302.4 174.4 Q302.5 172.1 301.3 169.9 L300.25 168.25 308.9 157.0 312.75 158.15 M319.85 170.55 Q320.85 170.85 320.25 171.65 L319.05 172.95 317.5 174.2 Q316.5 174.7 316.25 173.95 L315.85 171.95 Q315.75 170.85 316.9 170.2 317.85 169.45 318.4 169.9 L319.85 170.55" fill="#774b02" fill-rule="evenodd" stroke="none"/>
      <path d="M310.2 179.7 L309.5 179.5 Q306.8 178.4 304.15 176.25 L303.65 175.85 302.85 175.15 302.55 174.95 302.2 174.6 301.75 174.15 301.55 173.95 298.5 170.4 296.4 167.0 Q297.15 166.75 298.1 167.0 299.2 167.3 300.2 168.2 L300.25 168.25 301.3 169.9 Q302.5 172.1 302.4 174.4 L315.65 161.15 Q318.7 164.0 321.7 165.8 L324.7 167.2 325.25 167.35 326.35 167.75 326.5 167.9 310.2 179.7 M312.75 158.15 L308.9 157.0 308.8 157.0 Q306.7 155.9 306.8 153.2 306.95 150.55 307.6 149.6 L307.75 149.35 Q308.75 148.35 310.7 149.0 312.75 149.55 314.5 151.4 316.35 153.15 316.9 155.2 317.55 157.15 316.55 158.15 315.65 159.05 313.6 158.5 L313.55 158.45 313.45 158.45 313.35 158.45 312.7 158.1 312.75 158.15 M319.85 170.55 L318.4 169.9 Q317.85 169.45 316.9 170.2 315.75 170.85 315.85 171.95 L316.25 173.95 Q316.5 174.7 317.5 174.2 L319.05 172.95 320.25 171.65 Q320.85 170.85 319.85 170.55" fill="#6a4302" fill-rule="evenodd" stroke="none"/>
      <path d="M315.85 178.45 L315.4 178.7 M314.1 179.7 L310.85 179.85 310.2 179.7 309.5 179.5 Q306.8 178.4 304.15 176.25 L303.65 175.85 302.55 174.95 302.2 174.6 301.75 174.15 301.55 173.95 298.5 170.4 296.4 167.0 296.05 166.05 295.55 164.45 Q295.0 162.3 295.75 161.05 M308.3 142.6 Q310.2 141.5 313.3 142.3 L315.25 142.95 Q320.25 144.85 325.2 149.8 327.35 151.95 328.85 154.05 329.6 155.8 329.55 157.35 329.55 158.85 331.2 160.6 332.85 162.25 332.95 162.85 333.2 165.1 332.3 166.8" fill="none" stroke="#000000" stroke-linecap="round" stroke-linejoin="round" stroke-opacity="0.3019608" stroke-width="1.0"/>
      <path d="M332.3 166.8 L331.4 167.4 315.85 178.45 M315.4 178.7 Q314.9 179.0 314.55 179.25 L314.1 179.7 M295.75 161.05 L295.8 161.0 M295.9 160.7 L305.95 146.15 M306.4 145.3 L307.55 143.65 308.3 142.6" fill="none" stroke="#000000" stroke-linecap="round" stroke-linejoin="round" stroke-opacity="0.3019608" stroke-width="1.0"/>
      <path d="M332.95 162.85 Q331.25 162.15 329.75 160.65 327.95 158.85 327.35 157.05 326.65 155.35 327.5 154.5 328.0 154.0 328.85 154.05 M315.2 160.8 L314.7 160.3 312.75 158.15 312.7 158.1 M325.25 167.35 L324.7 167.2 321.7 165.8 M307.55 143.65 L307.05 144.75 M307.5 149.3 L307.6 149.6 M331.4 167.4 Q329.85 168.45 327.25 167.95" ffdec:has-small-stroke="true" ffdec:original-stroke-width="0.5" fill="none" stroke="#000000" stroke-linecap="round" stroke-linejoin="round" stroke-opacity="0.3019608" stroke-width="1.0"/>
    </g>
    <g id="sprite0" transform="matrix(1.0, 0.0, 0.0, 1.0, 0.0, 0.0)">
      <use ffdec:characterId="2" height="21.65" transform="matrix(1.0, 0.0, 0.0, 1.0, 0.0, 0.0)" width="43.25" xlink:href="#shape1"/>
    </g>
    <g id="shape1" transform="matrix(1.0, 0.0, 0.0, 1.0, 0.0, 0.0)">
      <path d="M36.9 3.15 Q43.25 6.35 43.25 10.8 43.25 15.3 36.9 18.45 30.6 21.65 21.65 21.65 12.7 21.65 6.35 18.45 0.0 15.3 0.0 10.8 0.0 6.35 6.35 3.15 12.7 0.0 21.65 0.0 30.6 0.0 36.9 3.15" fill="#ffffff" fill-rule="evenodd" stroke="none"/>
    </g>
    <g id="shape2" transform="matrix(1.0, 0.0, 0.0, 1.0, -219.6, -148.6)">
      <path d="M319.2 178.2 L317.55 177.45 314.4 175.7 314.35 175.65 Q311.85 174.05 309.35 171.85 L306.15 168.95 Q302.95 165.75 300.65 162.55 L300.35 162.15 298.35 158.95 298.3 158.8 297.65 157.55 Q296.85 155.95 296.4 154.6 295.55 151.35 296.95 149.95 298.8 148.1 303.55 150.15 L301.8 153.6 301.6 153.8 301.15 154.45 Q300.55 155.95 302.0 159.0 303.9 162.8 307.95 166.85 L311.5 170.0 Q313.65 171.65 315.75 172.75 319.2 174.3 320.7 173.4 L320.9 173.3 324.6 170.8 Q327.15 176.15 325.15 178.15 324.4 178.9 323.0 179.0 L322.8 179.0 319.4 178.3 319.2 178.2" fill="#813a26" fill-opacity="0.3019608" fill-rule="evenodd" stroke="none"/>
      <path d="M322.8 179.0 L322.3 179.6 Q321.7 180.2 320.6 180.0 L318.35 179.35 319.2 178.2 319.4 178.3 322.8 179.0 M314.35 175.65 Q313.9 177.3 312.3 176.0 L308.65 173.05 308.25 172.75 305.45 170.25 301.95 166.65 300.25 164.35 Q300.05 164.05 300.4 163.4 L300.65 162.55 Q302.95 165.75 306.15 168.95 L309.35 171.85 Q311.85 174.05 314.35 175.65 M298.35 158.95 Q297.75 159.65 297.15 159.65 L295.9 156.9 Q295.4 155.6 295.95 155.05 L296.4 154.6 Q296.85 155.95 297.65 157.55 L298.3 158.8 298.35 158.95" fill="#813925" fill-opacity="0.5019608" fill-rule="evenodd" stroke="none"/>
      <path d="M303.65 150.25 L301.8 153.8 301.4 154.5 301.2 155.5 Q301.2 156.1 301.5 156.9 L301.75 157.75 302.3 158.9 303.6 161.2 Q305.4 163.9 308.2 166.9 311.0 169.7 313.7 171.4 L316.1 172.7 317.35 173.35 318.3 173.5 320.3 173.8 Q320.5 173.6 320.8 173.5 L321.3 173.3 321.55 172.75 324.65 170.85 Q327.0 175.7 325.5 177.8 L325.3 178.0 Q323.25 180.05 317.75 177.45 L316.45 176.75 315.6 176.2 Q312.25 174.25 308.85 171.25 L306.4 169.0 305.55 168.15 Q302.05 164.45 299.7 160.9 L298.5 159.0 298.15 158.25 297.8 157.5 296.9 155.4 Q295.65 151.85 296.95 150.25 297.05 149.95 297.25 149.95 299.05 148.15 303.65 150.25" fill="#c7bb92" fill-opacity="0.5019608" fill-rule="evenodd" stroke="none"/>
      <path d="M325.5 177.8 Q325.3 178.8 324.7 179.4 322.7 181.4 317.05 178.65 L314.5 177.3 Q310.05 174.55 305.45 169.95 300.45 164.95 297.7 160.1 L297.45 159.85 296.85 158.45 Q294.15 152.85 296.15 150.85 296.4 150.3 296.95 150.25 295.65 151.85 296.9 155.4 L297.8 157.5 298.15 158.25 298.5 159.0 299.7 160.9 Q302.05 164.45 305.55 168.15 L306.4 169.0 308.85 171.25 Q312.25 174.25 315.6 176.2 L316.45 176.75 317.75 177.45 Q323.25 180.05 325.3 178.0 L325.5 177.8" fill="#c7bb92" fill-opacity="0.8" fill-rule="evenodd" stroke="none"/>
      <path d="M314.5 177.3 L311.75 177.25 311.3 177.2 310.6 176.8 Q307.8 175.4 304.4 172.4 L304.1 172.1 303.7 171.7 303.55 171.55 300.7 168.3 298.55 165.15 298.2 164.4 297.55 163.05 Q297.0 161.1 297.7 160.1 300.45 164.95 305.45 169.95 310.05 174.55 314.5 177.3" fill="#c4b58f" fill-opacity="0.3019608" fill-rule="evenodd" stroke="none"/>
      <path d="M325.5 177.8 Q325.3 178.8 324.7 179.4 322.7 181.4 317.05 178.65 L314.5 177.3 Q310.05 174.55 305.45 169.95 300.45 164.95 297.7 160.1 L297.45 159.85 296.85 158.45 Q294.15 152.85 296.15 150.85 296.4 150.3 296.95 150.25" ffdec:has-small-stroke="true" ffdec:original-stroke-width="0.5" fill="none" stroke="#000000" stroke-linecap="round" stroke-linejoin="round" stroke-opacity="0.3019608" stroke-width="1.0"/>
      <path d="M324.65 170.85 Q327.0 175.7 325.5 177.8 M296.95 150.25 Q297.05 149.95 297.25 149.95 299.05 148.15 303.65 150.25" fill="none" stroke="#000000" stroke-linecap="round" stroke-linejoin="round" stroke-opacity="0.3019608" stroke-width="1.0"/>
      <path d="M273.05 214.15 L272.9 214.05 271.25 213.4 Q266.6 211.9 260.75 214.1 256.65 215.65 253.55 216.4 L249.35 216.95 247.25 216.8 Q245.0 216.3 244.3 214.6 L244.4 213.25 244.55 210.85 Q244.6 209.65 245.35 208.65 246.05 207.6 250.05 205.75 255.75 203.05 257.95 203.4 260.15 203.75 262.8 203.5 265.4 203.2 271.55 205.15 277.7 207.15 279.45 209.35 281.15 211.55 280.55 215.4 L280.4 215.55 280.0 215.95 276.5 215.8 276.15 215.7 275.8 215.55 273.6 214.4 273.1 214.15 273.1 214.1 273.05 214.15" fill="#00cc33" fill-rule="evenodd" stroke="none"/>
      <path d="M244.4 213.25 L244.3 214.6 Q245.0 216.3 247.25 216.8 L249.35 216.95 253.55 216.4 Q256.65 215.65 260.75 214.1 266.6 211.9 271.25 213.4 L272.9 214.05 273.05 214.15 273.1 214.15 232.75 252.65 Q225.3 249.05 219.6 238.05 L244.4 213.25" fill="#009525" fill-rule="evenodd" stroke="none"/>
      <path d="M276.5 215.8 L280.0 215.95 280.4 215.55 280.55 215.4 280.4 215.6 280.2 215.8 246.6 249.5 Q242.05 252.15 238.15 253.1 L276.45 215.8 276.5 215.8 M245.35 208.65 Q244.6 209.65 244.55 210.85 L244.4 213.25 219.6 238.05 220.1 233.85 245.35 208.65" fill="#00661a" fill-rule="evenodd" stroke="none"/>
      <path d="M273.05 214.15 L273.1 214.1 273.1 214.15 273.6 214.4 275.8 215.55 276.45 215.8 238.15 253.1 237.9 253.15 Q234.7 253.85 232.75 252.65 L273.1 214.15 273.05 214.15" fill="#004211" fill-rule="evenodd" stroke="none"/>
      <path d="M263.95 216.65 Q263.95 217.45 263.45 217.95 262.9 218.4 262.85 218.05 L262.35 216.95 Q261.85 216.25 261.2 216.1 260.5 215.9 261.0 215.5 261.45 214.95 262.2 214.9 262.95 214.95 263.4 215.5 263.95 215.95 263.95 216.65" fill="#7a8141" fill-rule="evenodd" stroke="none"/>
      <path d="M255.25 223.85 Q254.75 223.35 254.8 222.7 254.8 222.0 255.25 221.55 255.75 221.05 256.45 221.05 257.1 221.0 257.55 221.55 258.05 221.95 258.1 222.7 258.1 223.4 257.6 223.9 257.15 224.35 256.45 224.35 255.7 224.3 255.25 223.85 M244.8 217.1 Q245.6 217.1 246.15 217.65 L246.5 218.2 Q246.95 217.75 247.6 217.7 248.3 217.7 248.8 218.2 249.25 218.65 249.25 219.35 L248.8 220.5 Q248.3 221.0 247.65 220.95 L246.5 220.5 246.15 220.35 246.05 220.45 246.1 220.5 246.4 221.4 Q246.45 221.85 246.1 222.2 L245.25 222.55 Q244.7 222.5 244.4 222.2 244.05 221.85 244.05 221.35 L244.2 220.8 243.45 220.35 Q242.9 219.8 242.9 219.0 242.85 218.25 243.45 217.65 244.0 217.1 244.8 217.1 M227.45 234.95 Q227.45 234.25 227.95 233.75 228.45 233.25 229.1 233.3 229.75 233.35 230.2 233.8 230.7 234.3 230.7 234.9 230.75 235.55 230.25 236.05 229.75 236.55 229.05 236.55 228.45 236.55 227.95 236.05 227.5 235.6 227.45 234.95" fill="#00e138" fill-rule="evenodd" stroke="none"/>
      <path d="M284.8 176.9 Q286.55 178.65 280.95 186.65 L266.35 206.55 Q257.25 218.45 243.6 228.6 229.85 238.75 229.25 232.35 228.65 225.85 238.1 215.7 247.5 205.5 257.3 195.9 267.05 186.25 275.05 180.75 283.05 175.15 284.8 176.9" fill="#000000" fill-opacity="0.3019608" fill-rule="evenodd" stroke="none"/>
      <path d="M250.15 233.75 Q248.95 233.75 248.15 232.95 247.35 232.15 247.35 230.95 247.35 229.75 248.15 228.95 249.0 228.1 250.15 228.15 251.35 228.15 252.15 228.95 252.95 229.75 252.95 230.95 253.0 232.1 252.15 232.95 251.35 233.75 250.15 233.75" fill="#00e138" fill-rule="evenodd" stroke="none"/>
      <path d="M288.65 205.65 Q284.05 212.35 276.1 220.3 268.15 228.25 261.4 232.9 254.7 237.4 253.25 235.95 251.75 234.45 256.3 227.8 260.95 221.05 268.9 213.1 276.85 205.15 283.55 200.55 290.2 196.0 291.7 197.5 293.15 198.95 288.65 205.65" fill="#ffffff" fill-opacity="0.2" fill-rule="evenodd" stroke="none"/>
      <path d="M288.75 204.45 Q287.0 206.2 285.25 206.95 283.5 207.7 282.75 206.95 282.05 206.25 282.8 204.5 283.55 202.75 285.3 201.0 287.1 199.2 288.8 198.5 L291.25 198.45 Q292.0 199.2 291.25 200.95 290.55 202.65 288.75 204.45" fill="#ffffff" fill-opacity="0.6" fill-rule="evenodd" stroke="none"/>
    </g>
    <g id="sprite1" transform="matrix(1.0, 0.0, 0.0, 1.0, -0.7, -9.95)">
      <use ffdec:characterId="5" height="116.35" transform="matrix(1.0, 0.0, 0.0, 1.0, 0.7, 9.95)" width="14.0" xlink:href="#shape3"/>
    </g>
    <g id="shape3" transform="matrix(1.0, 0.0, 0.0, 1.0, -0.7, -9.95)">
      <path d="M1.15 36.95 Q1.9 22.2 1.0 9.95 7.4 14.7 14.3 14.55 L14.7 14.7 14.7 51.55 Q8.7 54.2 5.15 48.05 4.45 46.8 1.15 36.95 M12.5 112.35 L12.9 112.5 12.9 126.3 Q7.4 126.4 0.7 121.25 L0.7 108.15 Q1.95 109.05 4.1 109.85 7.7 111.8 8.25 111.75 L9.95 112.15 12.5 112.35" fill="#ffffff" fill-rule="evenodd" stroke="none"/>
    </g>
  </defs>
</svg>
