<?xml version="1.0" encoding="UTF-8" standalone="no"?>
<svg xmlns:ffdec="https://www.free-decompiler.com/flash" xmlns:xlink="http://www.w3.org/1999/xlink" ffdec:objectType="frame" height="126.35px" width="149.10px" xmlns="http://www.w3.org/2000/svg" viewBox="186.70 128.10 149.10 126.35">
  <g transform="matrix(1.0, 0.0, 0.0, 1.0, 0.0, 0.0)">
    <use ffdec:characterId="7" height="121.35" transform="matrix(1.0, 0.0, 0.0, 1.0, 212.7, 133.1)" width="123.1" xlink:href="#sprite0"/>
    <use ffdec:characterId="7" height="121.35" transform="matrix(1.0, 0.0, 0.0, 1.0, 186.7, 128.1)" width="123.1" xlink:href="#sprite3"/>
    <use ffdec:characterId="9" height="32.85" transform="matrix(0.787, 0.0728, -0.092, 0.9946, 236.8243, 170.1776)" width="83.2" xlink:href="#sprite6"/>
    <use ffdec:characterId="9" height="32.85" transform="matrix(0.7406, 0.1984, -0.2586, 0.9651, 221.1983, 183.6526)" width="83.2" xlink:href="#sprite7"/>
  </g>
  <defs>
    <g id="sprite0" transform="matrix(1.0, 0.0, 0.0, 1.0, 0.0, 0.0)">
      <use ffdec:characterId="1" height="117.0" transform="matrix(1.0, 0.0, 0.0, 1.0, 3.05, 4.35)" width="116.75" xlink:href="#shape0"/>
      <filter id="filter0">
        <feConvolveMatrix divisor="9.0" in="SourceGraphic" kernelMatrix="1 1 1 1 1 1 1 1 1" order="3 3" result="filterResult0"/>
      </filter>
      <use ffdec:characterId="3" filter="url(#filter0)" height="21.65" style="mix-blend-mode: hard-light" transform="matrix(0.5275, 0.5275, -0.4639, 0.4639, 100.3, 0.0)" width="43.25" xlink:href="#sprite1"/>
      <use ffdec:characterId="4" height="104.8" transform="matrix(1.0, 0.0, 0.0, 1.0, 5.9, 11.5)" width="107.0" xlink:href="#shape2"/>
      <filter id="filter1">
        <feConvolveMatrix divisor="9.0" in="SourceGraphic" kernelMatrix="1 1 1 1 1 1 1 1 1" order="3 3" result="filterResult1"/>
      </filter>
      <use ffdec:characterId="6" filter="url(#filter1)" height="116.35" style="mix-blend-mode: overlay" transform="matrix(0.7071, 0.7071, -0.7066, 0.7066, 82.2138, 20.1761)" width="14.0" xlink:href="#sprite2"/>
    </g>
    <g id="shape0" transform="matrix(1.0, 0.0, 0.0, 1.0, -3.05, -4.35)">
      <path d="M83.05 17.65 Q85.55 20.35 84.15 19.25 L3.85 99.55 3.6 97.3 3.6 97.1 83.05 17.65 M103.95 40.75 L105.7 42.5 27.9 120.3 Q24.8 121.4 22.3 120.3 L103.95 40.75" fill="#7c4b18" fill-opacity="0.5019608" fill-rule="evenodd" stroke="none"/>
      <path d="M84.15 19.25 L103.95 40.75 22.3 120.3 Q15.85 117.95 12.55 114.95 9.25 111.85 6.95 108.55 4.65 105.15 3.85 99.55 L84.15 19.25" fill="#472b01" fill-opacity="0.5019608" fill-rule="evenodd" stroke="none"/>
      <path d="M83.05 17.65 Q85.55 20.35 84.15 19.25 L103.95 40.75 105.7 42.5 27.9 120.3" fill="none" stroke="#503c29" stroke-linecap="round" stroke-linejoin="round" stroke-opacity="0.7529412" stroke-width="1.0"/>
      <path d="M27.9 120.3 Q24.8 121.4 22.3 120.3 15.85 117.95 12.55 114.95 9.25 111.85 6.95 108.55 4.65 105.15 3.85 99.55 L3.6 97.3 3.6 97.1 83.05 17.65" fill="none" stroke="#503c29" stroke-linecap="round" stroke-linejoin="round" stroke-opacity="0.7529412" stroke-width="1.0"/>
      <path d="M117.7 30.3 L102.15 41.35 101.7 41.6 Q101.2 41.9 100.85 42.15 L100.4 42.6 97.15 42.75 96.5 42.6 112.8 30.8 112.65 30.65 112.9 30.7 113.55 30.85 Q116.15 31.35 117.7 30.3 M82.7 29.9 L82.35 28.95 81.85 27.35 Q81.3 25.2 82.05 23.95 L82.1 23.9 82.2 23.6 92.25 9.05 92.7 8.2 93.85 6.55 93.35 7.65 Q93.0 9.1 93.5 11.3 L93.8 12.2 93.9 12.5 Q93.25 13.45 93.1 16.1 93.0 18.8 95.1 19.9 L95.2 19.9 86.55 31.15 86.5 31.1 Q85.5 30.2 84.4 29.9 83.45 29.65 82.7 29.9 M115.15 16.95 Q115.9 18.7 115.85 20.25 115.85 21.75 117.5 23.5 119.15 25.15 119.25 25.75 117.55 25.05 116.05 23.55 114.25 21.75 113.65 19.95 112.95 18.25 113.8 17.4 114.3 16.9 115.15 16.95" fill="#633e01" fill-rule="evenodd" stroke="none"/>
      <path d="M118.6 29.7 L117.7 30.3 Q116.15 31.35 113.55 30.85 L112.9 30.7 112.65 30.65 111.55 30.25 111.0 30.1 108.0 28.7 Q105.0 26.9 101.95 24.05 L101.5 23.7 101.0 23.2 99.05 21.05 99.0 21.0 99.65 21.35 99.75 21.35 99.85 21.35 99.9 21.4 Q101.95 21.95 102.85 21.05 103.85 20.05 103.2 18.1 102.65 16.05 100.8 14.3 99.05 12.45 97.0 11.9 95.05 11.25 94.05 12.25 L93.9 12.5 93.8 12.2 93.5 11.3 Q93.0 9.1 93.35 7.65 L93.85 6.55 94.6 5.5 Q96.5 4.4 99.6 5.2 100.45 5.35 101.55 5.85 106.55 7.75 111.5 12.7 L115.15 16.95 Q114.3 16.9 113.8 17.4 112.95 18.25 113.65 19.95 114.25 21.75 116.05 23.55 117.55 25.05 119.25 25.75 119.5 28.0 118.6 29.7" fill="#9f6b15" fill-rule="evenodd" stroke="none"/>
      <path d="M99.05 21.05 L101.0 23.2 101.5 23.7 101.95 24.05 88.7 37.3 Q88.8 35.0 87.6 32.8 L86.55 31.15 95.2 19.9 99.05 21.05 M106.15 33.45 Q107.15 33.75 106.55 34.55 L105.35 35.85 103.8 37.1 Q102.8 37.6 102.55 36.85 L102.15 34.85 Q102.05 33.75 103.2 33.1 104.15 32.35 104.7 32.8 L106.15 33.45" fill="#553501" fill-rule="evenodd" stroke="none"/>
      <path d="M96.5 42.6 L95.8 42.4 Q93.1 41.3 90.45 39.15 L89.95 38.75 89.15 38.05 88.85 37.85 88.5 37.5 88.05 37.05 87.85 36.85 84.8 33.3 82.7 29.9 Q83.45 29.65 84.4 29.9 85.5 30.2 86.5 31.1 L86.55 31.15 87.6 32.8 Q88.8 35.0 88.7 37.3 L101.95 24.05 Q105.0 26.9 108.0 28.7 L111.0 30.1 111.55 30.25 112.65 30.65 112.8 30.8 96.5 42.6 M99.05 21.05 L95.2 19.9 95.1 19.9 Q93.0 18.8 93.1 16.1 93.25 13.45 93.9 12.5 L94.05 12.25 Q95.05 11.25 97.0 11.9 99.05 12.45 100.8 14.3 102.65 16.05 103.2 18.1 103.85 20.05 102.85 21.05 101.95 21.95 99.9 21.4 L99.85 21.35 99.75 21.35 99.65 21.35 99.0 21.0 99.05 21.05 M106.15 33.45 L104.7 32.8 Q104.15 32.35 103.2 33.1 102.05 33.75 102.15 34.85 L102.55 36.85 Q102.8 37.6 103.8 37.1 L105.35 35.85 106.55 34.55 Q107.15 33.75 106.15 33.45" fill="#4c3001" fill-rule="evenodd" stroke="none"/>
      <path d="M102.15 41.35 L101.7 41.6 M100.4 42.6 L97.15 42.75 96.5 42.6 95.8 42.4 Q93.1 41.3 90.45 39.15 L89.95 38.75 88.85 37.85 88.5 37.5 88.05 37.05 87.85 36.85 84.8 33.3 82.7 29.9 82.35 28.95 81.85 27.35 Q81.3 25.2 82.05 23.95 M94.6 5.5 Q96.5 4.4 99.6 5.2 100.45 5.35 101.55 5.85 106.55 7.75 111.5 12.7 L115.15 16.95 Q115.9 18.7 115.85 20.25 115.85 21.75 117.5 23.5 119.15 25.15 119.25 25.75 119.5 28.0 118.6 29.7" fill="none" stroke="#000000" stroke-linecap="round" stroke-linejoin="round" stroke-opacity="0.3019608" stroke-width="1.0"/>
      <path d="M118.6 29.7 L117.7 30.3 102.15 41.35 M101.7 41.6 Q101.2 41.9 100.85 42.15 L100.4 42.6 M82.05 23.95 L82.1 23.9 M82.2 23.6 L92.25 9.05 M92.7 8.2 L93.85 6.55 94.6 5.5" fill="none" stroke="#000000" stroke-linecap="round" stroke-linejoin="round" stroke-opacity="0.3019608" stroke-width="1.0"/>
      <path d="M119.25 25.75 Q117.55 25.05 116.05 23.55 114.25 21.75 113.65 19.95 112.95 18.25 113.8 17.4 114.3 16.9 115.15 16.95 M101.5 23.7 L101.0 23.2 99.05 21.05 99.0 21.0 M111.55 30.25 L111.0 30.1 108.0 28.7 M93.85 6.55 L93.35 7.65 M93.8 12.2 L93.9 12.5 M117.7 30.3 Q116.15 31.35 113.55 30.85" ffdec:has-small-stroke="true" ffdec:original-stroke-width="0.5" fill="none" stroke="#000000" stroke-linecap="round" stroke-linejoin="round" stroke-opacity="0.3019608" stroke-width="1.0"/>
    </g>
    <g id="sprite1" transform="matrix(1.0, 0.0, 0.0, 1.0, 0.0, 0.0)">
      <use ffdec:characterId="2" height="21.65" transform="matrix(1.0, 0.0, 0.0, 1.0, 0.0, 0.0)" width="43.25" xlink:href="#shape1"/>
    </g>
    <g id="shape1" transform="matrix(1.0, 0.0, 0.0, 1.0, 0.0, 0.0)">
      <path d="M36.9 3.15 Q43.25 6.35 43.25 10.8 43.25 15.3 36.9 18.45 30.6 21.65 21.65 21.65 12.7 21.65 6.35 18.45 0.0 15.3 0.0 10.8 0.0 6.35 6.35 3.15 12.7 0.0 21.65 0.0 30.6 0.0 36.9 3.15" fill="#b7b7b7" fill-rule="evenodd" stroke="none"/>
    </g>
    <g id="shape2" transform="matrix(1.0, 0.0, 0.0, 1.0, -5.9, -11.5)">
      <path d="M105.5 41.1 L103.85 40.35 100.7 38.6 100.65 38.55 Q98.15 36.95 95.65 34.75 L92.45 31.85 Q89.25 28.65 86.95 25.45 L86.65 25.05 84.65 21.85 84.6 21.7 83.95 20.45 82.7 17.5 Q81.85 14.25 83.25 12.85 85.1 11.0 89.85 13.05 L88.1 16.5 87.9 16.7 87.45 17.35 Q86.85 18.85 88.3 21.9 90.2 25.7 94.25 29.75 L97.8 32.9 Q99.95 34.55 102.05 35.65 105.5 37.2 107.0 36.3 L107.2 36.2 Q109.0 34.9 110.9 33.7 113.45 39.05 111.45 41.05 110.7 41.8 109.3 41.9 L109.1 41.9 105.7 41.2 105.5 41.1" fill="#5c291b" fill-opacity="0.3019608" fill-rule="evenodd" stroke="none"/>
      <path d="M109.1 41.9 L108.6 42.5 Q108.0 43.1 106.9 42.9 L104.65 42.25 105.5 41.1 105.7 41.2 109.1 41.9 M100.65 38.55 Q100.2 40.2 98.6 38.9 L94.95 35.95 94.55 35.65 91.75 33.15 88.25 29.55 86.55 27.25 Q86.35 26.95 86.7 26.3 L86.95 25.45 Q89.25 28.65 92.45 31.85 L95.65 34.75 Q98.15 36.95 100.65 38.55 M84.65 21.85 Q84.05 22.55 83.45 22.55 L82.2 19.8 Q81.7 18.5 82.25 17.95 L82.7 17.5 83.95 20.45 84.6 21.7 84.65 21.85" fill="#5c281a" fill-opacity="0.5019608" fill-rule="evenodd" stroke="none"/>
      <path d="M89.95 13.15 L88.1 16.7 87.7 17.4 87.5 18.4 Q87.5 19.0 87.8 19.8 L88.05 20.65 88.6 21.8 89.9 24.1 Q91.7 26.8 94.5 29.8 97.3 32.6 100.0 34.3 L102.4 35.6 103.65 36.25 104.6 36.4 106.6 36.7 Q106.8 36.5 107.1 36.4 107.3 36.2 107.6 36.2 L107.85 35.65 110.95 33.75 Q113.3 38.6 111.8 40.7 L111.6 40.9 Q109.55 42.95 104.05 40.35 103.3 40.0 102.75 39.65 L101.9 39.1 Q98.55 37.15 95.15 34.15 L92.7 31.9 91.85 31.05 Q88.35 27.35 86.0 23.8 L84.8 21.9 84.45 21.15 84.1 20.4 83.2 18.3 Q81.95 14.75 83.25 13.15 83.35 12.85 83.55 12.85 85.35 11.05 89.95 13.15" fill="#8f8668" fill-opacity="0.5019608" fill-rule="evenodd" stroke="none"/>
      <path d="M111.8 40.7 Q111.6 41.7 111.0 42.3 109.0 44.3 103.35 41.55 L100.8 40.2 Q96.35 37.45 91.75 32.85 86.75 27.85 84.0 23.0 L83.75 22.75 83.15 21.35 Q80.45 15.75 82.45 13.75 82.7 13.2 83.25 13.15 81.95 14.75 83.2 18.3 L84.1 20.4 84.45 21.15 84.8 21.9 86.0 23.8 Q88.35 27.35 91.85 31.05 L92.7 31.9 95.15 34.15 Q98.55 37.15 101.9 39.1 L102.75 39.65 Q103.3 40.0 104.05 40.35 109.55 42.95 111.6 40.9 L111.8 40.7" fill="#8f8668" fill-opacity="0.8" fill-rule="evenodd" stroke="none"/>
      <path d="M100.8 40.2 L98.05 40.15 97.6 40.1 Q97.25 39.85 96.9 39.7 94.1 38.3 90.7 35.3 L90.4 35.0 90.0 34.6 89.85 34.45 87.0 31.2 84.85 28.05 84.5 27.3 83.85 25.95 Q83.3 24.0 84.0 23.0 86.75 27.85 91.75 32.85 96.35 37.45 100.8 40.2" fill="#8c8266" fill-opacity="0.3019608" fill-rule="evenodd" stroke="none"/>
      <path d="M111.8 40.7 Q111.6 41.7 111.0 42.3 109.0 44.3 103.35 41.55 L100.8 40.2 Q96.35 37.45 91.75 32.85 86.75 27.85 84.0 23.0 L83.75 22.75 83.15 21.35 Q80.45 15.75 82.45 13.75 82.7 13.2 83.25 13.15" ffdec:has-small-stroke="true" ffdec:original-stroke-width="0.5" fill="none" stroke="#000000" stroke-linecap="round" stroke-linejoin="round" stroke-opacity="0.3019608" stroke-width="1.0"/>
      <path d="M110.95 33.75 Q113.3 38.6 111.8 40.7 M83.25 13.15 Q83.35 12.85 83.55 12.85 85.35 11.05 89.95 13.15" fill="none" stroke="#000000" stroke-linecap="round" stroke-linejoin="round" stroke-opacity="0.3019608" stroke-width="1.0"/>
      <path d="M59.4 77.05 L59.4 77.0 59.35 77.05 59.2 76.95 Q58.4 76.55 57.55 76.3 52.9 74.8 47.05 77.0 L39.85 79.3 35.65 79.85 33.55 79.7 Q31.3 79.2 30.6 77.5 L30.7 76.15 30.85 73.75 Q30.9 72.55 31.65 71.55 32.35 70.5 36.35 68.65 42.05 65.95 44.25 66.3 46.45 66.65 49.1 66.4 51.7 66.1 57.85 68.05 64.0 70.05 65.75 72.25 67.45 74.45 66.85 78.3 L66.7 78.45 66.3 78.85 62.8 78.7 62.45 78.6 62.1 78.45 59.9 77.3 59.4 77.05" fill="#009224" fill-rule="evenodd" stroke="none"/>
      <path d="M59.35 77.05 L59.4 77.05 19.05 115.55 Q11.6 111.95 5.9 100.95 L30.7 76.15 30.6 77.5 Q31.3 79.2 33.55 79.7 L35.65 79.85 39.85 79.3 47.05 77.0 Q52.9 74.8 57.55 76.3 58.4 76.55 59.2 76.95 L59.35 77.05" fill="#006b1a" fill-rule="evenodd" stroke="none"/>
      <path d="M62.8 78.7 L66.3 78.85 66.7 78.45 66.85 78.3 66.7 78.5 66.5 78.7 32.9 112.4 Q28.35 115.05 24.45 116.0 L62.75 78.7 62.8 78.7 M31.65 71.55 Q30.9 72.55 30.85 73.75 L30.7 76.15 5.9 100.95 6.4 96.75 31.65 71.55" fill="#004912" fill-rule="evenodd" stroke="none"/>
      <path d="M59.35 77.05 L59.4 77.0 59.4 77.05 59.35 77.05 M59.4 77.05 L59.9 77.3 62.1 78.45 62.75 78.7 24.45 116.0 24.2 116.05 Q21.0 116.75 19.05 115.55 L59.4 77.05" fill="#002f0c" fill-rule="evenodd" stroke="none"/>
      <path d="M50.25 79.55 Q50.25 80.35 49.75 80.85 49.2 81.3 49.15 80.95 L48.65 79.85 Q48.15 79.15 47.5 79.0 46.8 78.8 47.3 78.4 47.75 77.85 48.5 77.8 49.25 77.85 49.7 78.4 50.25 78.85 50.25 79.55" fill="#575c2e" fill-rule="evenodd" stroke="none"/>
      <path d="M41.55 86.75 Q41.05 86.25 41.1 85.6 41.1 84.9 41.55 84.45 42.05 83.95 42.75 83.95 43.4 83.9 43.85 84.45 44.35 84.85 44.4 85.6 44.4 86.3 43.9 86.8 L42.75 87.25 Q42.0 87.2 41.55 86.75 M31.1 80.0 Q31.9 80.0 32.45 80.55 L32.8 81.1 Q33.25 80.65 33.9 80.6 34.6 80.6 35.1 81.1 35.55 81.55 35.55 82.25 L35.1 83.4 Q34.6 83.9 33.95 83.85 33.25 83.85 32.8 83.4 L32.45 83.25 32.35 83.35 32.4 83.4 Q32.7 83.7 32.7 84.3 32.75 84.75 32.4 85.1 32.05 85.45 31.55 85.45 L30.7 85.1 Q30.35 84.75 30.35 84.25 30.3 84.0 30.5 83.7 L29.75 83.25 Q29.2 82.7 29.2 81.9 29.15 81.15 29.75 80.55 30.3 80.0 31.1 80.0 M13.75 97.85 Q13.75 97.15 14.25 96.65 14.75 96.15 15.4 96.2 16.05 96.25 16.5 96.7 17.0 97.2 17.0 97.8 17.05 98.45 16.55 98.95 16.05 99.45 15.35 99.45 14.75 99.45 14.25 98.95 13.8 98.5 13.75 97.85" fill="#00a128" fill-rule="evenodd" stroke="none"/>
      <path d="M71.1 39.8 Q72.85 41.55 67.25 49.55 61.75 57.45 52.65 69.45 43.55 81.35 29.9 91.5 16.15 101.65 15.55 95.25 14.95 88.75 24.4 78.6 33.8 68.4 43.6 58.8 53.35 49.15 61.35 43.65 69.35 38.05 71.1 39.8" fill="#000000" fill-opacity="0.3019608" fill-rule="evenodd" stroke="none"/>
      <path d="M36.45 96.65 Q35.25 96.65 34.45 95.85 33.65 95.05 33.65 93.85 33.65 92.65 34.45 91.85 35.3 91.0 36.45 91.05 37.65 91.05 38.45 91.85 39.25 92.65 39.25 93.85 39.3 95.0 38.45 95.85 37.65 96.65 36.45 96.65" fill="#00a128" fill-rule="evenodd" stroke="none"/>
      <path d="M74.95 68.55 Q70.35 75.25 62.4 83.2 54.45 91.15 47.7 95.8 41.0 100.3 39.55 98.85 38.05 97.35 42.6 90.7 47.25 83.95 55.2 76.0 63.15 68.05 69.85 63.45 76.5 58.9 78.0 60.4 79.45 61.85 74.95 68.55" fill="#b7b7b7" fill-opacity="0.2" fill-rule="evenodd" stroke="none"/>
      <path d="M75.05 67.35 Q73.3 69.1 71.55 69.85 69.8 70.6 69.05 69.85 68.35 69.15 69.1 67.4 69.85 65.65 71.6 63.9 73.4 62.1 75.1 61.4 L77.55 61.35 Q78.3 62.1 77.55 63.85 76.85 65.55 75.05 67.35" fill="#b7b7b7" fill-opacity="0.6" fill-rule="evenodd" stroke="none"/>
    </g>
    <g id="sprite2" transform="matrix(1.0, 0.0, 0.0, 1.0, -0.7, -9.95)">
      <use ffdec:characterId="5" height="116.35" transform="matrix(1.0, 0.0, 0.0, 1.0, 0.7, 9.95)" width="14.0" xlink:href="#shape3"/>
    </g>
    <g id="shape3" transform="matrix(1.0, 0.0, 0.0, 1.0, -0.7, -9.95)">
      <path d="M1.15 36.95 Q1.9 22.2 1.0 9.95 7.4 14.7 14.3 14.55 L14.7 14.7 14.7 51.55 Q8.7 54.2 5.15 48.05 4.45 46.8 1.15 36.95 M12.5 112.35 L12.9 112.5 12.9 126.3 Q7.4 126.4 0.7 121.25 L0.7 108.15 Q1.95 109.05 4.1 109.85 7.7 111.8 8.25 111.75 L9.95 112.15 12.5 112.35" fill="#b7b7b7" fill-rule="evenodd" stroke="none"/>
    </g>
    <g id="sprite3" transform="matrix(1.0, 0.0, 0.0, 1.0, 0.0, 0.0)">
      <use ffdec:characterId="1" height="117.0" transform="matrix(1.0, 0.0, 0.0, 1.0, 3.05, 4.35)" width="116.75" xlink:href="#shape4"/>
      <filter id="filter2">
        <feConvolveMatrix divisor="9.0" in="SourceGraphic" kernelMatrix="1 1 1 1 1 1 1 1 1" order="3 3" result="filterResult2"/>
      </filter>
      <use ffdec:characterId="3" filter="url(#filter2)" height="21.65" style="mix-blend-mode: hard-light" transform="matrix(0.5275, 0.5275, -0.4639, 0.4639, 100.3, 0.0)" width="43.25" xlink:href="#sprite4"/>
      <use ffdec:characterId="4" height="104.8" transform="matrix(1.0, 0.0, 0.0, 1.0, 5.9, 11.5)" width="107.0" xlink:href="#shape6"/>
      <filter id="filter3">
        <feConvolveMatrix divisor="9.0" in="SourceGraphic" kernelMatrix="1 1 1 1 1 1 1 1 1" order="3 3" result="filterResult3"/>
      </filter>
      <use ffdec:characterId="6" filter="url(#filter3)" height="116.35" style="mix-blend-mode: overlay" transform="matrix(0.7071, 0.7071, -0.7066, 0.7066, 82.2138, 20.1761)" width="14.0" xlink:href="#sprite5"/>
    </g>
    <g id="shape4" transform="matrix(1.0, 0.0, 0.0, 1.0, -3.05, -4.35)">
      <path d="M83.05 17.65 Q85.55 20.35 84.15 19.25 L3.85 99.55 3.6 97.3 3.6 97.1 83.05 17.65 M103.95 40.75 L105.7 42.5 27.9 120.3 Q24.8 121.4 22.3 120.3 L103.95 40.75" fill="#ad6922" fill-opacity="0.5019608" fill-rule="evenodd" stroke="none"/>
      <path d="M84.15 19.25 L103.95 40.75 22.3 120.3 Q15.85 117.95 12.55 114.95 9.25 111.85 6.95 108.55 4.65 105.15 3.85 99.55 L84.15 19.25" fill="#643d02" fill-opacity="0.5019608" fill-rule="evenodd" stroke="none"/>
      <path d="M83.05 17.65 Q85.55 20.35 84.15 19.25 L103.95 40.75 105.7 42.5 27.9 120.3" fill="none" stroke="#70543a" stroke-linecap="round" stroke-linejoin="round" stroke-opacity="0.7529412" stroke-width="1.0"/>
      <path d="M27.9 120.3 Q24.8 121.4 22.3 120.3 15.85 117.95 12.55 114.95 9.25 111.85 6.95 108.55 4.65 105.15 3.85 99.55 L3.6 97.3 3.6 97.1 83.05 17.65" fill="none" stroke="#70543a" stroke-linecap="round" stroke-linejoin="round" stroke-opacity="0.7529412" stroke-width="1.0"/>
      <path d="M117.7 30.3 L102.15 41.35 101.7 41.6 Q101.2 41.9 100.85 42.15 L100.4 42.6 97.15 42.75 96.5 42.6 112.8 30.8 112.65 30.65 112.9 30.7 113.55 30.85 Q116.15 31.35 117.7 30.3 M82.7 29.9 L82.35 28.95 81.85 27.35 Q81.3 25.2 82.05 23.95 L82.1 23.9 82.2 23.6 92.25 9.05 92.7 8.2 93.85 6.55 93.35 7.65 Q93.0 9.1 93.5 11.3 L93.8 12.2 93.9 12.5 Q93.25 13.45 93.1 16.1 93.0 18.8 95.1 19.9 L95.2 19.9 86.55 31.15 86.5 31.1 Q85.5 30.2 84.4 29.9 83.45 29.65 82.7 29.9 M115.15 16.95 Q115.9 18.7 115.85 20.25 115.85 21.75 117.5 23.5 119.15 25.15 119.25 25.75 117.55 25.05 116.05 23.55 114.25 21.75 113.65 19.95 112.95 18.25 113.8 17.4 114.3 16.9 115.15 16.95" fill="#8a5702" fill-rule="evenodd" stroke="none"/>
      <path d="M118.6 29.7 L117.7 30.3 Q116.15 31.35 113.55 30.85 L112.9 30.7 112.65 30.65 111.55 30.25 111.0 30.1 108.0 28.7 Q105.0 26.9 101.95 24.05 L101.5 23.7 101.0 23.2 99.05 21.05 99.0 21.0 99.65 21.35 99.75 21.35 99.85 21.35 99.9 21.4 Q101.95 21.95 102.85 21.05 103.85 20.05 103.2 18.1 102.65 16.05 100.8 14.3 99.05 12.45 97.0 11.9 95.05 11.25 94.05 12.25 L93.9 12.5 93.8 12.2 93.5 11.3 Q93.0 9.1 93.35 7.65 L93.85 6.55 94.6 5.5 Q96.5 4.4 99.6 5.2 100.45 5.35 101.55 5.85 106.55 7.75 111.5 12.7 L115.15 16.95 Q114.3 16.9 113.8 17.4 112.95 18.25 113.65 19.95 114.25 21.75 116.05 23.55 117.55 25.05 119.25 25.75 119.5 28.0 118.6 29.7" fill="#de961e" fill-rule="evenodd" stroke="none"/>
      <path d="M99.05 21.05 L101.0 23.2 101.5 23.7 101.95 24.05 88.7 37.3 Q88.8 35.0 87.6 32.8 L86.55 31.15 95.2 19.9 99.05 21.05 M106.15 33.45 Q107.15 33.75 106.55 34.55 L105.35 35.85 103.8 37.1 Q102.8 37.6 102.55 36.85 L102.15 34.85 Q102.05 33.75 103.2 33.1 104.15 32.35 104.7 32.8 L106.15 33.45" fill="#774b02" fill-rule="evenodd" stroke="none"/>
      <path d="M96.5 42.6 L95.8 42.4 Q93.1 41.3 90.45 39.15 L89.95 38.75 89.15 38.05 88.85 37.85 88.5 37.5 88.05 37.05 87.85 36.85 84.8 33.3 82.7 29.9 Q83.45 29.65 84.4 29.9 85.5 30.2 86.5 31.1 L86.55 31.15 87.6 32.8 Q88.8 35.0 88.7 37.3 L101.95 24.05 Q105.0 26.9 108.0 28.7 L111.0 30.1 111.55 30.25 112.65 30.65 112.8 30.8 96.5 42.6 M99.05 21.05 L95.2 19.9 95.1 19.9 Q93.0 18.8 93.1 16.1 93.25 13.45 93.9 12.5 L94.05 12.25 Q95.05 11.25 97.0 11.9 99.05 12.45 100.8 14.3 102.65 16.05 103.2 18.1 103.85 20.05 102.85 21.05 101.95 21.95 99.9 21.4 L99.85 21.35 99.75 21.35 99.65 21.35 99.0 21.0 99.05 21.05 M106.15 33.45 L104.7 32.8 Q104.15 32.35 103.2 33.1 102.05 33.75 102.15 34.85 L102.55 36.85 Q102.8 37.6 103.8 37.1 L105.35 35.85 106.55 34.55 Q107.15 33.75 106.15 33.45" fill="#6a4302" fill-rule="evenodd" stroke="none"/>
      <path d="M102.15 41.35 L101.7 41.6 M100.4 42.6 L97.15 42.75 96.5 42.6 95.8 42.4 Q93.1 41.3 90.45 39.15 L89.95 38.75 88.85 37.85 88.5 37.5 88.05 37.05 87.85 36.85 84.8 33.3 82.7 29.9 82.35 28.95 81.85 27.35 Q81.3 25.2 82.05 23.95 M94.6 5.5 Q96.5 4.4 99.6 5.2 100.45 5.35 101.55 5.85 106.55 7.75 111.5 12.7 L115.15 16.95 Q115.9 18.7 115.85 20.25 115.85 21.75 117.5 23.5 119.15 25.15 119.25 25.75 119.5 28.0 118.6 29.7" fill="none" stroke="#000000" stroke-linecap="round" stroke-linejoin="round" stroke-opacity="0.3019608" stroke-width="1.0"/>
      <path d="M118.6 29.7 L117.7 30.3 102.15 41.35 M101.7 41.6 Q101.2 41.9 100.85 42.15 L100.4 42.6 M82.05 23.95 L82.1 23.9 M82.2 23.6 L92.25 9.05 M92.7 8.2 L93.85 6.55 94.6 5.5" fill="none" stroke="#000000" stroke-linecap="round" stroke-linejoin="round" stroke-opacity="0.3019608" stroke-width="1.0"/>
      <path d="M119.25 25.75 Q117.55 25.05 116.05 23.55 114.25 21.75 113.65 19.95 112.95 18.25 113.8 17.4 114.3 16.9 115.15 16.95 M101.5 23.7 L101.0 23.2 99.05 21.05 99.0 21.0 M111.55 30.25 L111.0 30.1 108.0 28.7 M93.85 6.55 L93.35 7.65 M93.8 12.2 L93.9 12.5 M117.7 30.3 Q116.15 31.35 113.55 30.85" ffdec:has-small-stroke="true" ffdec:original-stroke-width="0.5" fill="none" stroke="#000000" stroke-linecap="round" stroke-linejoin="round" stroke-opacity="0.3019608" stroke-width="1.0"/>
    </g>
    <g id="sprite4" transform="matrix(1.0, 0.0, 0.0, 1.0, 0.0, 0.0)">
      <use ffdec:characterId="2" height="21.65" transform="matrix(1.0, 0.0, 0.0, 1.0, 0.0, 0.0)" width="43.25" xlink:href="#shape5"/>
    </g>
    <g id="shape5" transform="matrix(1.0, 0.0, 0.0, 1.0, 0.0, 0.0)">
      <path d="M36.9 3.15 Q43.25 6.35 43.25 10.8 43.25 15.3 36.9 18.45 30.6 21.65 21.65 21.65 12.7 21.65 6.35 18.45 0.0 15.3 0.0 10.8 0.0 6.35 6.35 3.15 12.7 0.0 21.65 0.0 30.6 0.0 36.9 3.15" fill="#ffffff" fill-rule="evenodd" stroke="none"/>
    </g>
    <g id="shape6" transform="matrix(1.0, 0.0, 0.0, 1.0, -5.9, -11.5)">
      <path d="M105.5 41.1 L103.85 40.35 100.7 38.6 100.65 38.55 Q98.15 36.95 95.65 34.75 L92.45 31.85 Q89.25 28.65 86.95 25.45 L86.65 25.05 84.65 21.85 84.6 21.7 83.95 20.45 82.7 17.5 Q81.85 14.25 83.25 12.85 85.1 11.0 89.85 13.05 L88.1 16.5 87.9 16.7 87.45 17.35 Q86.85 18.85 88.3 21.9 90.2 25.7 94.25 29.75 L97.8 32.9 Q99.95 34.55 102.05 35.65 105.5 37.2 107.0 36.3 L107.2 36.2 Q109.0 34.9 110.9 33.7 113.45 39.05 111.45 41.05 110.7 41.8 109.3 41.9 L109.1 41.9 105.7 41.2 105.5 41.1" fill="#813a26" fill-opacity="0.3019608" fill-rule="evenodd" stroke="none"/>
      <path d="M109.1 41.9 L108.6 42.5 Q108.0 43.1 106.9 42.9 L104.65 42.25 105.5 41.1 105.7 41.2 109.1 41.9 M100.65 38.55 Q100.2 40.2 98.6 38.9 L94.95 35.95 94.55 35.65 91.75 33.15 88.25 29.55 86.55 27.25 Q86.35 26.95 86.7 26.3 L86.95 25.45 Q89.25 28.65 92.45 31.85 L95.65 34.75 Q98.15 36.95 100.65 38.55 M84.65 21.85 Q84.05 22.55 83.45 22.55 L82.2 19.8 Q81.7 18.5 82.25 17.95 L82.7 17.5 83.95 20.45 84.6 21.7 84.65 21.85" fill="#813925" fill-opacity="0.5019608" fill-rule="evenodd" stroke="none"/>
      <path d="M89.95 13.15 L88.1 16.7 87.7 17.4 87.5 18.4 Q87.5 19.0 87.8 19.8 L88.05 20.65 88.6 21.8 89.9 24.1 Q91.7 26.8 94.5 29.8 97.3 32.6 100.0 34.3 L102.4 35.6 103.65 36.25 104.6 36.4 106.6 36.7 Q106.8 36.5 107.1 36.4 107.3 36.2 107.6 36.2 L107.85 35.65 110.95 33.75 Q113.3 38.6 111.8 40.7 L111.6 40.9 Q109.55 42.95 104.05 40.35 103.3 40.0 102.75 39.65 L101.9 39.1 Q98.55 37.15 95.15 34.15 L92.7 31.9 91.85 31.05 Q88.35 27.35 86.0 23.8 L84.8 21.9 84.45 21.15 84.1 20.4 83.2 18.3 Q81.95 14.75 83.25 13.15 83.35 12.85 83.55 12.85 85.35 11.05 89.95 13.15" fill="#c7bb92" fill-opacity="0.5019608" fill-rule="evenodd" stroke="none"/>
      <path d="M111.8 40.7 Q111.6 41.7 111.0 42.3 109.0 44.3 103.35 41.55 L100.8 40.2 Q96.35 37.45 91.75 32.85 86.75 27.85 84.0 23.0 L83.75 22.75 83.15 21.35 Q80.45 15.75 82.45 13.75 82.7 13.2 83.25 13.15 81.95 14.75 83.2 18.3 L84.1 20.4 84.45 21.15 84.8 21.9 86.0 23.8 Q88.35 27.35 91.85 31.05 L92.7 31.9 95.15 34.15 Q98.55 37.15 101.9 39.1 L102.75 39.65 Q103.3 40.0 104.05 40.35 109.55 42.95 111.6 40.9 L111.8 40.7" fill="#c7bb92" fill-opacity="0.8" fill-rule="evenodd" stroke="none"/>
      <path d="M100.8 40.2 L98.05 40.15 97.6 40.1 Q97.25 39.85 96.9 39.7 94.1 38.3 90.7 35.3 L90.4 35.0 90.0 34.6 89.85 34.45 87.0 31.2 84.85 28.05 84.5 27.3 83.85 25.95 Q83.3 24.0 84.0 23.0 86.75 27.85 91.75 32.85 96.35 37.45 100.8 40.2" fill="#c4b58f" fill-opacity="0.3019608" fill-rule="evenodd" stroke="none"/>
      <path d="M111.8 40.7 Q111.6 41.7 111.0 42.3 109.0 44.3 103.35 41.55 L100.8 40.2 Q96.35 37.45 91.75 32.85 86.75 27.85 84.0 23.0 L83.75 22.75 83.15 21.35 Q80.45 15.75 82.45 13.75 82.7 13.2 83.25 13.15" ffdec:has-small-stroke="true" ffdec:original-stroke-width="0.5" fill="none" stroke="#000000" stroke-linecap="round" stroke-linejoin="round" stroke-opacity="0.3019608" stroke-width="1.0"/>
      <path d="M110.95 33.75 Q113.3 38.6 111.8 40.7 M83.25 13.15 Q83.35 12.85 83.55 12.85 85.35 11.05 89.95 13.15" fill="none" stroke="#000000" stroke-linecap="round" stroke-linejoin="round" stroke-opacity="0.3019608" stroke-width="1.0"/>
      <path d="M59.4 77.05 L59.4 77.0 59.35 77.05 59.2 76.95 Q58.4 76.55 57.55 76.3 52.9 74.8 47.05 77.0 L39.85 79.3 35.65 79.85 33.55 79.7 Q31.3 79.2 30.6 77.5 L30.7 76.15 30.85 73.75 Q30.9 72.55 31.65 71.55 32.35 70.5 36.35 68.65 42.05 65.95 44.25 66.3 46.45 66.65 49.1 66.4 51.7 66.1 57.85 68.05 64.0 70.05 65.75 72.25 67.45 74.45 66.85 78.3 L66.7 78.45 66.3 78.85 62.8 78.7 62.45 78.6 62.1 78.45 59.9 77.3 59.4 77.05" fill="#00cc33" fill-rule="evenodd" stroke="none"/>
      <path d="M59.35 77.05 L59.4 77.05 19.05 115.55 Q11.6 111.95 5.9 100.95 L30.7 76.15 30.6 77.5 Q31.3 79.2 33.55 79.7 L35.65 79.85 39.85 79.3 47.05 77.0 Q52.9 74.8 57.55 76.3 58.4 76.55 59.2 76.95 L59.35 77.05" fill="#009525" fill-rule="evenodd" stroke="none"/>
      <path d="M62.8 78.7 L66.3 78.85 66.7 78.45 66.85 78.3 66.7 78.5 66.5 78.7 32.9 112.4 Q28.35 115.05 24.45 116.0 L62.75 78.7 62.8 78.7 M31.65 71.55 Q30.9 72.55 30.85 73.75 L30.7 76.15 5.9 100.95 6.4 96.75 31.65 71.55" fill="#00661a" fill-rule="evenodd" stroke="none"/>
      <path d="M59.35 77.05 L59.4 77.0 59.4 77.05 59.35 77.05 M59.4 77.05 L59.9 77.3 62.1 78.45 62.75 78.7 24.45 116.0 24.2 116.05 Q21.0 116.75 19.05 115.55 L59.4 77.05" fill="#004211" fill-rule="evenodd" stroke="none"/>
      <path d="M50.25 79.55 Q50.25 80.35 49.75 80.85 49.2 81.3 49.15 80.95 L48.65 79.85 Q48.15 79.15 47.5 79.0 46.8 78.8 47.3 78.4 47.75 77.85 48.5 77.8 49.25 77.85 49.7 78.4 50.25 78.85 50.25 79.55" fill="#7a8141" fill-rule="evenodd" stroke="none"/>
      <path d="M41.55 86.75 Q41.05 86.25 41.1 85.6 41.1 84.9 41.55 84.45 42.05 83.95 42.75 83.95 43.4 83.9 43.85 84.45 44.35 84.85 44.4 85.6 44.4 86.3 43.9 86.8 L42.75 87.25 Q42.0 87.2 41.55 86.75 M31.1 80.0 Q31.9 80.0 32.45 80.55 L32.8 81.1 Q33.25 80.65 33.9 80.6 34.6 80.6 35.1 81.1 35.55 81.55 35.55 82.25 L35.1 83.4 Q34.6 83.9 33.95 83.85 33.25 83.85 32.8 83.4 L32.45 83.25 32.35 83.35 32.4 83.4 Q32.7 83.7 32.7 84.3 32.75 84.75 32.4 85.1 32.05 85.45 31.55 85.45 L30.7 85.1 Q30.35 84.75 30.35 84.25 30.3 84.0 30.5 83.7 L29.75 83.25 Q29.2 82.7 29.2 81.9 29.15 81.15 29.75 80.55 30.3 80.0 31.1 80.0 M13.75 97.85 Q13.75 97.15 14.25 96.65 14.75 96.15 15.4 96.2 16.05 96.25 16.5 96.7 17.0 97.2 17.0 97.8 17.05 98.45 16.55 98.95 16.05 99.45 15.35 99.45 14.75 99.45 14.25 98.95 13.8 98.5 13.75 97.85" fill="#00e138" fill-rule="evenodd" stroke="none"/>
      <path d="M71.1 39.8 Q72.85 41.55 67.25 49.55 61.75 57.45 52.65 69.45 43.55 81.35 29.9 91.5 16.15 101.65 15.55 95.25 14.95 88.75 24.4 78.6 33.8 68.4 43.6 58.8 53.35 49.15 61.35 43.65 69.35 38.05 71.1 39.8" fill="#000000" fill-opacity="0.3019608" fill-rule="evenodd" stroke="none"/>
      <path d="M36.45 96.65 Q35.25 96.65 34.45 95.85 33.65 95.05 33.65 93.85 33.65 92.65 34.45 91.85 35.3 91.0 36.45 91.05 37.65 91.05 38.45 91.85 39.25 92.65 39.25 93.85 39.3 95.0 38.45 95.85 37.65 96.65 36.45 96.65" fill="#00e138" fill-rule="evenodd" stroke="none"/>
      <path d="M74.95 68.55 Q70.35 75.25 62.4 83.2 54.45 91.15 47.7 95.8 41.0 100.3 39.55 98.85 38.05 97.35 42.6 90.7 47.25 83.95 55.2 76.0 63.15 68.05 69.85 63.45 76.5 58.9 78.0 60.4 79.45 61.85 74.95 68.55" fill="#ffffff" fill-opacity="0.2" fill-rule="evenodd" stroke="none"/>
      <path d="M75.05 67.35 Q73.3 69.1 71.55 69.85 69.8 70.6 69.05 69.85 68.35 69.15 69.1 67.4 69.85 65.65 71.6 63.9 73.4 62.1 75.1 61.4 L77.55 61.35 Q78.3 62.1 77.55 63.85 76.85 65.55 75.05 67.35" fill="#ffffff" fill-opacity="0.6" fill-rule="evenodd" stroke="none"/>
    </g>
    <g id="sprite5" transform="matrix(1.0, 0.0, 0.0, 1.0, -0.7, -9.95)">
      <use ffdec:characterId="5" height="116.35" transform="matrix(1.0, 0.0, 0.0, 1.0, 0.7, 9.95)" width="14.0" xlink:href="#shape7"/>
    </g>
    <g id="shape7" transform="matrix(1.0, 0.0, 0.0, 1.0, -0.7, -9.95)">
      <path d="M1.15 36.95 Q1.9 22.2 1.0 9.95 7.4 14.7 14.3 14.55 L14.7 14.7 14.7 51.55 Q8.7 54.2 5.15 48.05 4.45 46.8 1.15 36.95 M12.5 112.35 L12.9 112.5 12.9 126.3 Q7.4 126.4 0.7 121.25 L0.7 108.15 Q1.95 109.05 4.1 109.85 7.7 111.8 8.25 111.75 L9.95 112.15 12.5 112.35" fill="#ffffff" fill-rule="evenodd" stroke="none"/>
    </g>
    <g id="sprite6" transform="matrix(1.0, 0.0, 0.0, 1.0, -1.1, -0.45)">
      <use ffdec:characterId="8" height="32.85" transform="matrix(1.0, 0.0, 0.0, 1.0, 1.1, 0.45)" width="83.2" xlink:href="#shape8"/>
    </g>
    <g id="shape8" transform="matrix(1.0, 0.0, 0.0, 1.0, -1.1, -0.45)">
      <path d="M62.75 23.85 L79.6 20.9 Q88.55 19.3 80.4 30.05 L63.05 29.2 Q62.0 27.1 62.75 23.85 M8.85 2.3 L12.3 4.9 Q14.25 6.45 17.1 10.05 17.2 15.85 19.25 21.15 L9.95 14.85 7.15 12.2 Q6.5 7.2 8.85 2.3 M29.65 17.25 Q38.35 17.4 44.4 21.75 44.55 25.65 46.7 28.4 L41.25 28.4 33.55 27.2 Q30.2 22.75 29.65 17.25" fill="#b0923b" fill-rule="evenodd" stroke="none"/>
      <path d="M1.1 6.45 L1.1 5.95 Q1.35 -2.4 8.55 1.9 L8.85 2.3 Q6.5 7.2 7.15 12.2 L1.1 6.45 M17.1 10.05 Q23.6 11.95 29.65 17.25 30.2 22.75 33.55 27.2 L24.55 24.75 19.25 21.15 Q17.2 15.85 17.1 10.05 M44.4 21.75 Q54.55 21.25 62.75 23.85 62.0 27.1 63.05 29.2 L46.7 28.4 Q44.55 25.65 44.4 21.75" fill="#866f2c" fill-rule="evenodd" stroke="none"/>
      <path d="M68.3 32.55 L56.4 33.0 51.85 32.2 Q48.55 30.7 46.7 28.4 L63.05 29.2 Q64.3 31.75 68.3 32.55 M35.85 29.85 Q27.85 29.7 24.45 27.5 21.0 25.3 20.95 24.9 L19.25 21.15 24.55 24.75 33.55 27.2 35.85 29.85 M8.7 17.55 Q4.7 14.4 1.35 10.7 1.05 8.25 1.1 6.45 L7.15 12.2 Q7.45 14.85 8.7 17.55" fill="#725f25" fill-rule="evenodd" stroke="none"/>
      <path d="M80.4 30.05 Q79.15 30.95 75.45 31.8 L68.3 32.55 Q64.3 31.75 63.05 29.2 L80.4 30.05 M51.85 32.2 Q44.2 33.45 35.85 29.85 L33.55 27.2 41.25 28.4 46.7 28.4 Q48.55 30.7 51.85 32.2 M20.95 24.9 Q12.95 23.45 8.7 17.55 7.45 14.85 7.15 12.2 L9.95 14.85 19.25 21.15 20.95 24.9" fill="#9b8133" fill-rule="evenodd" stroke="none"/>
      <path d="M62.75 23.85 L79.6 20.9 Q88.55 19.3 80.4 30.05 79.15 30.95 75.45 31.8 L68.3 32.55 56.4 33.0 51.85 32.2 Q44.2 33.45 35.85 29.85 27.85 29.7 24.45 27.5 21.0 25.3 20.95 24.9 12.95 23.45 8.7 17.55 4.7 14.4 1.35 10.7 1.05 8.25 1.1 6.45 L1.1 5.95 Q1.35 -2.4 8.55 1.9 L8.85 2.3 12.3 4.9 Q14.25 6.45 17.1 10.05 23.6 11.95 29.65 17.25 38.35 17.4 44.4 21.75 54.55 21.25 62.75 23.85 62.0 27.1 63.05 29.2 64.3 31.75 68.3 32.55 M46.7 28.4 Q44.55 25.65 44.4 21.75 M51.85 32.2 Q48.55 30.7 46.7 28.4 M7.15 12.2 Q6.5 7.2 8.85 2.3 M19.25 21.15 Q17.2 15.85 17.1 10.05 M8.7 17.55 Q7.45 14.85 7.15 12.2 M33.55 27.2 Q30.2 22.75 29.65 17.25 M35.85 29.85 L33.55 27.2 M20.95 24.9 L19.25 21.15" ffdec:has-small-stroke="true" ffdec:original-stroke-width="0.05" fill="none" stroke="#5e2f00" stroke-linecap="round" stroke-linejoin="round" stroke-opacity="0.5411765" stroke-width="1.1102834209226697"/>
    </g>
    <g id="sprite7" transform="matrix(1.0, 0.0, 0.0, 1.0, -1.1, -0.45)">
      <use ffdec:characterId="8" height="32.85" transform="matrix(1.0, 0.0, 0.0, 1.0, 1.1, 0.45)" width="83.2" xlink:href="#shape9"/>
    </g>
    <g id="shape9" transform="matrix(1.0, 0.0, 0.0, 1.0, -1.1, -0.45)">
      <path d="M62.75 23.85 L79.6 20.9 Q88.55 19.3 80.4 30.05 L63.05 29.2 Q62.0 27.1 62.75 23.85 M8.85 2.3 L12.3 4.9 Q14.25 6.45 17.1 10.05 17.2 15.85 19.25 21.15 L9.95 14.85 7.15 12.2 Q6.5 7.2 8.85 2.3 M29.65 17.25 Q38.35 17.4 44.4 21.75 44.55 25.65 46.7 28.4 L41.25 28.4 33.55 27.2 Q30.2 22.75 29.65 17.25" fill="#a78b38" fill-rule="evenodd" stroke="none"/>
      <path d="M1.1 6.45 L1.1 5.95 Q1.35 -2.4 8.55 1.9 L8.85 2.3 Q6.5 7.2 7.15 12.2 L1.1 6.45 M17.1 10.05 Q23.6 11.95 29.65 17.25 30.2 22.75 33.55 27.2 L24.55 24.75 19.25 21.15 Q17.2 15.85 17.1 10.05 M44.4 21.75 Q54.55 21.25 62.75 23.85 62.0 27.1 63.05 29.2 L46.7 28.4 Q44.55 25.65 44.4 21.75" fill="#806a2a" fill-rule="evenodd" stroke="none"/>
      <path d="M68.3 32.55 L56.4 33.0 51.85 32.2 Q48.55 30.7 46.7 28.4 L63.05 29.2 Q64.3 31.75 68.3 32.55 M35.85 29.85 Q27.85 29.7 24.45 27.5 21.0 25.3 20.95 24.9 L19.25 21.15 24.55 24.75 33.55 27.2 35.85 29.85 M8.7 17.55 Q4.7 14.4 1.35 10.7 1.05 8.25 1.1 6.45 L7.15 12.2 Q7.45 14.85 8.7 17.55" fill="#6c5b24" fill-rule="evenodd" stroke="none"/>
      <path d="M80.4 30.05 Q79.15 30.95 75.45 31.8 L68.3 32.55 Q64.3 31.75 63.05 29.2 L80.4 30.05 M51.85 32.2 Q44.2 33.45 35.85 29.85 L33.55 27.2 41.25 28.4 46.7 28.4 Q48.55 30.7 51.85 32.2 M20.95 24.9 Q12.95 23.45 8.7 17.55 7.45 14.85 7.15 12.2 L9.95 14.85 19.25 21.15 20.95 24.9" fill="#947b31" fill-rule="evenodd" stroke="none"/>
      <path d="M62.75 23.85 L79.6 20.9 Q88.55 19.3 80.4 30.05 79.15 30.95 75.45 31.8 L68.3 32.55 56.4 33.0 51.85 32.2 Q44.2 33.45 35.85 29.85 27.85 29.7 24.45 27.5 21.0 25.3 20.95 24.9 12.95 23.45 8.7 17.55 4.7 14.4 1.35 10.7 1.05 8.25 1.1 6.45 L1.1 5.95 Q1.35 -2.4 8.55 1.9 L8.85 2.3 12.3 4.9 Q14.25 6.45 17.1 10.05 23.6 11.95 29.65 17.25 38.35 17.4 44.4 21.75 54.55 21.25 62.75 23.85 62.0 27.1 63.05 29.2 64.3 31.75 68.3 32.55 M46.7 28.4 Q44.55 25.65 44.4 21.75 M51.85 32.2 Q48.55 30.7 46.7 28.4 M7.15 12.2 Q6.5 7.2 8.85 2.3 M19.25 21.15 Q17.2 15.85 17.1 10.05 M8.7 17.55 Q7.45 14.85 7.15 12.2 M33.55 27.2 Q30.2 22.75 29.65 17.25 M35.85 29.85 L33.55 27.2 M20.95 24.9 L19.25 21.15" ffdec:has-small-stroke="true" ffdec:original-stroke-width="0.05" fill="none" stroke="#592c00" stroke-linecap="round" stroke-linejoin="round" stroke-opacity="0.5411765" stroke-width="1.1228984374999753"/>
    </g>
  </defs>
</svg>
