<?xml version="1.0" encoding="UTF-8" standalone="no"?>
<svg xmlns:ffdec="https://www.free-decompiler.com/flash" xmlns:xlink="http://www.w3.org/1999/xlink" ffdec:objectType="frame" height="98.75px" width="78.55px" xmlns="http://www.w3.org/2000/svg" viewBox="193.00 134.05 78.55 98.75">
  <g transform="matrix(1.0, 0.0, 0.0, 1.0, 0.0, 0.0)">
    <use ffdec:characterId="1" height="62.2" transform="matrix(1.0, 0.0, 0.0, 1.0, 198.0, 160.5)" width="68.85" xlink:href="#shape0"/>
    <filter id="filter0">
      <feConvolveMatrix divisor="25.0" in="SourceGraphic" kernelMatrix="1 1 1 1 1 1 1 1 1 1 1 1 1 1 1 1 1 1 1 1 1 1 1 1 1" order="5 5" result="filterResult0"/>
    </filter>
    <use ffdec:characterId="3" filter="url(#filter0)" height="26.45" transform="matrix(1.0, 0.0, 0.0, 1.0, 211.05, 206.35)" width="52.9" xlink:href="#sprite0"/>
    <use ffdec:characterId="4" height="91.4" transform="matrix(1.0, 0.0, 0.0, 1.0, 193.0, 134.5)" width="78.55" xlink:href="#shape2"/>
    <use ffdec:characterId="6" height="177.0" transform="matrix(0.1231, 0.0, 0.0, 0.1826, 221.3072, 165.037)" width="354.0" xlink:href="#sprite1"/>
    <use ffdec:characterId="6" height="177.0" transform="matrix(0.0643, 0.0, 0.0, 0.0763, 221.9134, 134.0466)" width="354.0" xlink:href="#sprite1"/>
    <use ffdec:characterId="6" height="177.0" transform="matrix(0.0214, 0.0, 0.0, 0.0536, 245.6608, 176.0047)" width="354.0" xlink:href="#sprite1"/>
    <use ffdec:characterId="12" height="36.35" style="mix-blend-mode: hard-light" transform="matrix(1.2766, 0.0, 0.0, 1.2982, 204.8, 166.5009)" width="45.1" xlink:href="#sprite2"/>
  </g>
  <defs>
    <g id="shape0" transform="matrix(1.0, 0.0, 0.0, 1.0, -198.0, -160.5)">
      <path d="M263.7 173.55 Q266.7 180.25 266.85 188.25 266.7 202.45 256.65 212.5 246.65 222.5 232.45 222.7 218.05 222.5 208.05 212.5 198.0 202.45 198.0 188.25 198.0 180.25 201.2 173.55 200.7 174.7 200.85 176.05 200.85 182.6 210.05 187.1 219.4 191.6 232.45 191.6 245.5 191.6 254.65 187.1 264.05 182.6 264.05 176.05 264.05 174.7 263.7 173.55 M222.1 207.8 Q221.4 208.8 221.4 210.3 221.4 212.5 222.9 214.0 224.4 215.5 226.6 215.5 228.75 215.5 230.25 214.0 231.75 212.5 231.75 210.3 L231.75 210.15 Q231.75 208.15 230.25 206.65 228.75 205.15 226.6 205.15 224.4 205.15 222.9 206.65 222.4 207.15 222.25 207.65 L222.1 207.5 222.1 207.8 M240.45 212.0 Q240.3 210.8 239.65 210.0 238.95 209.3 237.95 209.3 237.8 209.15 237.6 209.3 236.45 209.15 235.6 210.0 234.8 210.8 234.8 212.0 L234.95 212.65 Q234.95 213.35 235.6 214.0 236.45 214.65 237.6 214.85 238.8 214.65 239.65 214.0 240.3 213.15 240.45 212.0 M232.95 216.0 Q232.45 216.5 232.45 217.15 232.45 217.65 232.95 218.15 233.45 218.7 234.1 218.7 234.8 218.7 235.1 218.15 L235.8 217.15 235.1 216.0 Q234.8 215.5 234.1 215.5 233.45 215.5 232.95 216.0" fill="#476f75" fill-rule="evenodd" stroke="none"/>
      <path d="M245.3 173.2 Q245.5 174.7 246.65 175.2 L247.65 175.55 250.3 175.9 Q252.5 175.9 254.15 175.2 255.85 174.55 255.85 172.2 255.85 170.05 254.35 168.35 252.65 166.85 250.5 166.85 248.3 166.85 246.65 168.35 245.15 170.05 245.15 172.2 L245.3 173.2 M201.2 173.55 Q202.0 171.7 203.05 170.2 205.35 167.35 210.05 165.05 219.4 160.5 232.45 160.5 245.5 160.5 254.65 165.05 259.35 167.35 261.7 170.05 L263.7 173.55 Q264.05 174.7 264.05 176.05 264.05 182.6 254.65 187.1 245.5 191.6 232.45 191.6 219.4 191.6 210.05 187.1 200.85 182.6 200.85 176.05 200.7 174.7 201.2 173.55 M215.4 168.55 Q212.2 168.35 210.05 170.55 207.85 172.9 207.85 176.05 207.85 179.05 209.9 180.25 211.9 181.05 215.05 181.05 218.25 181.05 220.55 180.25 L221.4 179.75 Q222.9 178.4 222.9 176.05 222.9 173.9 222.1 172.4 L220.75 170.55 Q218.55 168.35 215.4 168.55 M222.1 207.8 Q222.1 207.65 222.25 207.65 222.4 207.15 222.9 206.65 224.4 205.15 226.6 205.15 228.75 205.15 230.25 206.65 231.75 208.15 231.75 210.15 L231.75 210.3 Q231.75 212.5 230.25 214.0 228.75 215.5 226.6 215.5 224.4 215.5 222.9 214.0 221.4 212.5 221.4 210.3 221.4 208.8 222.1 207.8 M232.95 216.0 Q233.45 215.5 234.1 215.5 234.8 215.5 235.1 216.0 L235.8 217.15 235.1 218.15 Q234.8 218.7 234.1 218.7 233.45 218.7 232.95 218.15 232.45 217.65 232.45 217.15 232.45 216.5 232.95 216.0 M240.45 212.0 Q240.3 213.15 239.65 214.0 238.8 214.65 237.6 214.85 236.45 214.65 235.6 214.0 234.95 213.35 234.95 212.65 L234.8 212.0 Q234.8 210.8 235.6 210.0 236.45 209.15 237.6 209.3 237.8 209.15 237.95 209.3 238.95 209.3 239.65 210.0 240.3 210.8 240.45 212.0" fill="#63a6ba" fill-rule="evenodd" stroke="none"/>
      <path d="M245.3 173.2 L245.15 172.2 Q245.15 170.05 246.65 168.35 248.3 166.85 250.5 166.85 252.65 166.85 254.35 168.35 255.85 170.05 255.85 172.2 255.85 174.55 254.15 175.2 252.5 175.9 250.3 175.9 L247.65 175.55 246.65 175.2 Q245.5 174.7 245.3 173.2 M215.4 168.55 Q218.55 168.35 220.75 170.55 L222.1 172.4 Q222.9 173.9 222.9 176.05 222.9 178.4 221.4 179.75 L220.55 180.25 Q218.25 181.05 215.05 181.05 211.9 181.05 209.9 180.25 207.85 179.05 207.85 176.05 207.85 172.9 210.05 170.55 212.2 168.35 215.4 168.55" fill="#79b3c4" fill-rule="evenodd" stroke="none"/>
    </g>
    <g id="sprite0" transform="matrix(1.0, 0.0, 0.0, 1.0, 0.0, 0.0)">
      <use ffdec:characterId="2" height="26.45" transform="matrix(1.0, 0.0, 0.0, 1.0, 0.0, 0.0)" width="52.9" xlink:href="#shape1"/>
    </g>
    <g id="shape1" transform="matrix(1.0, 0.0, 0.0, 1.0, 0.0, 0.0)">
      <path d="M52.9 13.25 Q52.9 18.7 45.15 22.55 37.4 26.45 26.45 26.45 15.5 26.45 7.75 22.55 -0.05 18.7 0.0 13.25 -0.05 7.75 7.75 3.9 15.5 0.0 26.45 0.0 37.4 0.0 45.15 3.9 52.9 7.75 52.9 13.25" fill="#000000" fill-opacity="0.3019608" fill-rule="evenodd" stroke="none"/>
    </g>
    <g id="shape2" transform="matrix(1.0, 0.0, 0.0, 1.0, -193.0, -134.5)">
      <path d="M200.3 164.3 Q202.15 161.45 204.65 158.95 216.15 147.6 232.4 147.6 248.4 147.6 259.95 158.95 262.8 161.8 263.15 162.8 266.65 167.5 267.8 170.15 270.0 174.85 270.8 180.0 271.3 183.05 271.3 186.2 L271.3 186.7 Q271.3 202.75 259.95 214.3 248.4 225.65 232.4 225.65 216.15 225.65 204.65 214.3 193.6 203.1 193.25 187.55 L193.25 186.7 193.45 182.05 Q193.95 176.7 195.95 172.15 197.6 168.0 200.3 164.3 M255.55 161.35 L253.95 160.05 244.2 154.55 Q238.85 152.6 232.8 152.6 218.6 152.6 208.55 162.8 198.35 172.8 198.55 187.0 198.35 201.05 208.55 211.25 L210.25 212.85 211.7 214.1 221.5 219.5 Q226.85 221.45 233.05 221.45 247.1 221.45 257.3 211.45 267.3 201.25 267.3 187.2 267.3 173.0 257.3 163.0 L255.55 161.35" fill="#997539" fill-opacity="0.5019608" fill-rule="evenodd" stroke="none"/>
      <path d="M221.5 219.5 L211.7 214.1 210.25 212.85 208.55 211.25 Q198.35 201.05 198.55 187.0 198.35 172.8 208.55 162.8 218.6 152.6 232.8 152.6 238.85 152.6 244.2 154.55 L253.95 160.05 255.55 161.35 257.05 162.8 Q267.05 172.8 267.05 187.0 267.05 201.05 257.05 211.25 246.85 221.25 232.8 221.25 226.8 221.25 221.5 219.5" fill="#997539" fill-opacity="0.3019608" fill-rule="evenodd" stroke="none"/>
      <path d="M200.3 164.3 Q197.6 168.0 195.95 172.15 193.95 176.7 193.45 182.05 L193.25 186.7 193.25 187.55 Q193.6 203.1 204.65 214.3 216.15 225.65 232.4 225.65 248.4 225.65 259.95 214.3 271.3 202.75 271.3 186.7 L271.3 186.2 Q271.3 183.05 270.8 180.0 270.0 174.85 267.8 170.15 266.65 167.5 263.15 162.8 262.8 161.8 259.95 158.95 248.4 147.6 232.4 147.6 216.15 147.6 204.65 158.95 202.15 161.45 200.3 164.3 Z" ffdec:has-small-stroke="true" ffdec:original-stroke-width="0.5" fill="none" stroke="#000000" stroke-linecap="round" stroke-linejoin="round" stroke-opacity="0.3019608" stroke-width="1.0"/>
      <path d="M243.8 138.4 Q242.5 139.0 240.8 139.0 238.8 139.0 237.5 138.3 236.1 137.65 236.1 136.6 236.1 135.95 236.65 135.4 238.0 136.05 238.85 137.05 239.7 138.0 241.6 138.1 L243.8 138.4 M242.9 145.65 L243.05 145.55 243.5 145.2 Q245.2 143.9 245.5 142.25 L242.95 159.1 242.9 159.6 242.7 160.45 242.7 161.0 Q242.45 162.2 241.0 163.2 L240.55 163.5 243.05 145.65 242.9 145.65 M222.3 146.05 Q222.45 147.1 223.9 148.85 225.3 150.65 227.1 150.0 L227.15 149.9 228.6 162.5 228.55 162.5 Q227.5 162.6 226.7 163.1 226.05 163.55 225.8 164.15 L225.05 163.85 223.9 163.1 Q222.4 162.05 222.05 160.8 L222.05 160.75 222.0 160.5 219.45 144.95 219.25 144.1 219.05 142.55 219.3 143.3 Q219.9 144.5 221.4 145.55 L222.05 145.9 222.3 146.05" fill="#8a5702" fill-rule="evenodd" stroke="none"/>
      <path d="M236.65 135.4 Q236.1 135.95 236.1 136.6 236.1 137.65 237.5 138.3 238.8 139.0 240.8 139.0 242.5 139.0 243.8 138.4 245.2 139.65 245.65 141.3 L245.5 142.25 Q245.2 143.9 243.5 145.2 L243.05 145.55 242.9 145.65 242.05 146.1 241.65 146.4 240.85 146.75 238.1 142.25 Q235.95 138.85 232.4 138.65 L227.1 137.9 Q224.95 137.3 223.95 136.45 227.45 135.0 232.25 135.0 L236.65 135.4 M220.05 138.95 L222.95 140.8 226.3 142.9 Q224.85 143.0 223.7 143.7 222.25 144.55 222.25 145.8 L222.3 146.05 222.05 145.9 221.4 145.55 Q219.9 144.5 219.3 143.3 L219.05 142.55 219.0 142.35 218.8 141.15 Q219.1 139.95 220.05 138.95 M231.45 147.25 L232.35 148.35 232.25 148.35 229.95 148.2 229.9 148.2 230.4 148.0 230.5 147.95 230.55 147.9 230.6 147.9 231.45 147.25" fill="#de961e" fill-rule="evenodd" stroke="none"/>
      <path d="M232.35 148.35 L232.75 148.35 233.25 148.3 233.25 149.75 232.9 149.2 232.35 148.35 232.9 149.2 233.25 149.75 233.25 165.05 Q232.0 163.55 230.1 162.9 L228.6 162.5 227.15 149.9 229.95 148.2 232.25 148.35 232.35 148.35 M239.0 153.25 Q239.1 152.15 239.65 152.05 L240.8 151.55 Q241.55 151.15 241.65 152.0 L241.7 153.55 241.55 155.4 Q241.25 156.3 240.7 156.0 L239.35 155.0 Q238.7 154.35 239.0 153.25" fill="#774b02" fill-rule="evenodd" stroke="none"/>
      <path d="M240.85 146.75 L241.65 146.4 242.05 146.1 242.9 145.65 243.05 145.65 240.55 163.5 240.05 163.85 Q237.95 164.8 235.25 165.15 L234.75 165.2 234.5 165.25 233.9 165.25 233.6 165.35 233.25 165.35 232.7 165.35 232.5 165.35 228.85 165.0 225.8 164.15 Q226.05 163.55 226.7 163.1 227.5 162.6 228.55 162.5 L228.6 162.5 230.1 162.9 Q232.0 163.55 233.25 165.05 L233.25 149.75 233.25 148.3 239.2 147.35 240.85 146.75 M226.3 142.9 L227.15 142.85 Q229.2 142.8 230.6 143.7 232.05 144.55 232.05 145.8 232.05 146.55 231.45 147.25 L230.6 147.9 230.55 147.9 230.5 147.95 230.4 148.0 229.9 148.2 229.95 148.2 227.15 149.9 227.1 150.0 Q225.3 150.65 223.9 148.85 222.45 147.1 222.3 146.05 L222.25 145.8 Q222.25 144.55 223.7 143.7 224.85 143.0 226.3 142.9 M239.0 153.25 Q238.7 154.35 239.35 155.0 L240.7 156.0 Q241.25 156.3 241.55 155.4 L241.7 153.55 241.65 152.0 Q241.55 151.15 240.8 151.55 L239.65 152.05 Q239.1 152.15 239.0 153.25 M233.8 150.55 L233.25 149.75 233.8 150.55" fill="#6a4302" fill-rule="evenodd" stroke="none"/>
      <path d="M223.95 136.45 Q224.95 137.3 227.1 137.9 L232.4 138.65 Q235.95 138.85 238.1 142.25 L240.85 146.75 239.2 147.35 233.25 148.3 232.75 148.35 232.35 148.35 231.45 147.25 Q232.05 146.55 232.05 145.8 232.05 144.55 230.6 143.7 229.2 142.8 227.15 142.85 L226.3 142.9 222.95 140.8 220.05 138.95 221.4 137.8 Q222.0 137.35 222.85 136.95 L223.95 136.45" fill="#bb7e1a" fill-rule="evenodd" stroke="none"/>
      <path d="M236.65 135.4 L232.25 135.0 Q227.45 135.0 223.95 136.45 L222.85 136.95 Q222.0 137.35 221.4 137.8 L220.05 138.95 Q219.1 139.95 218.8 141.15 M245.65 141.3 Q245.2 139.65 243.8 138.4 L241.6 138.1 Q239.7 138.0 238.85 137.05 238.0 136.05 236.65 135.4 M222.05 160.8 Q222.4 162.05 223.9 163.1 L225.05 163.85 225.8 164.15 228.85 165.0 232.5 165.35 232.7 165.35 233.25 165.35 233.6 165.35 234.5 165.25 234.75 165.2 235.25 165.15 Q237.95 164.8 240.05 163.85 L240.55 163.5 241.0 163.2 Q242.45 162.2 242.7 161.0 M242.95 159.1 L242.9 159.6" fill="none" stroke="#000000" stroke-linecap="round" stroke-linejoin="round" stroke-opacity="0.3019608" stroke-width="1.0"/>
      <path d="M245.5 142.25 L245.65 141.3 M219.05 142.55 L219.25 144.1 M219.45 144.95 L222.0 160.5 M222.05 160.75 L222.05 160.8 M219.0 142.35 L218.8 141.15 M242.9 159.6 L242.7 160.45 242.7 161.0 M245.5 142.25 L242.95 159.1" fill="none" stroke="#000000" stroke-linecap="round" stroke-linejoin="round" stroke-opacity="0.3019608" stroke-width="1.0"/>
      <path d="M243.8 138.4 Q242.5 139.0 240.8 139.0 238.8 139.0 237.5 138.3 236.1 137.65 236.1 136.6 236.1 135.95 236.65 135.4 M223.95 136.45 Q224.95 137.3 227.1 137.9 L232.4 138.65 Q235.95 138.85 238.1 142.25 L240.85 146.75 241.65 146.4 242.05 146.1 M243.5 145.2 Q245.2 143.9 245.5 142.25 M220.05 138.95 L219.5 138.65 M220.05 138.95 L222.95 140.8 226.3 142.9 M231.45 147.25 L232.35 148.35 232.75 148.35 M239.2 147.35 L240.85 146.75 M229.95 148.2 L229.9 148.2 M222.3 146.05 L222.05 145.9 M219.3 143.3 L219.05 142.55 219.0 142.35 M232.35 148.35 L232.9 149.2 233.25 149.75 233.8 150.55 M232.35 148.35 L232.25 148.35 229.95 148.2" ffdec:has-small-stroke="true" ffdec:original-stroke-width="0.5" fill="none" stroke="#000000" stroke-linecap="round" stroke-linejoin="round" stroke-opacity="0.3019608" stroke-width="1.0"/>
      <path d="M201.6 184.05 Q200.9 178.55 204.1 173.2 207.25 167.7 212.25 165.35 217.3 163.0 221.15 165.35 225.15 167.5 225.65 173.2 226.15 178.85 223.8 185.05 221.45 191.25 215.95 192.9 210.6 194.4 206.4 192.05 202.1 189.55 201.6 184.05" fill="#ffffff" fill-opacity="0.2509804" fill-rule="evenodd" stroke="none"/>
      <path d="M245.65 160.7 Q250.15 157.85 255.65 160.5 261.2 163.35 264.55 170.05 267.7 176.7 266.85 183.4 266.05 190.1 261.2 193.1 256.35 196.1 250.3 194.25 244.15 192.25 241.8 184.75 239.3 177.05 240.15 170.2 240.95 163.35 245.65 160.7" fill="#000000" fill-opacity="0.15294118" fill-rule="evenodd" stroke="none"/>
      <path d="M246.05 157.5 L244.6 158.3 241.65 159.45 241.6 159.5 236.3 160.55 232.65 160.75 Q228.8 160.75 225.5 159.95 L225.05 159.9 222.0 158.85 221.85 158.8 220.7 158.3 218.2 156.75 Q215.7 154.75 215.7 152.25 215.7 149.05 219.85 146.75 L220.8 151.3 220.8 151.6 220.95 152.6 Q221.45 154.35 224.2 155.75 227.6 157.45 232.45 157.45 L236.5 157.1 Q238.8 156.65 240.7 155.75 243.7 154.15 244.0 152.05 L244.1 151.8 244.8 146.4 Q249.55 148.8 249.55 152.25 249.55 153.65 248.8 154.95 L248.65 155.05 Q247.8 156.3 246.15 157.45 L246.05 157.5" fill="#813a26" fill-opacity="0.3019608" fill-rule="evenodd" stroke="none"/>
      <path d="M248.65 155.05 L248.7 156.05 Q248.7 157.1 247.95 157.9 L246.15 159.25 246.05 157.5 246.15 157.45 Q247.8 156.3 248.65 155.05 M241.6 159.5 Q242.3 161.35 240.55 161.6 L236.65 162.2 236.15 162.25 233.05 162.5 228.7 162.45 226.35 161.95 Q226.05 161.85 225.85 160.95 L225.5 159.95 Q228.8 160.75 232.65 160.75 L236.3 160.55 241.6 159.5 M222.0 158.85 Q222.05 160.05 221.65 160.55 L219.25 159.25 Q218.2 158.55 218.2 157.55 L218.2 156.75 220.7 158.3 221.85 158.8 222.0 158.85" fill="#813925" fill-opacity="0.5019608" fill-rule="evenodd" stroke="none"/>
      <path d="M219.9 146.8 L220.9 151.5 221.1 152.5 221.6 153.5 222.6 154.5 223.25 155.0 224.25 155.5 226.4 156.35 232.6 157.35 Q235.95 157.35 238.6 156.5 L240.8 155.5 241.95 155.0 242.65 154.35 243.95 152.85 244.15 152.15 Q244.15 151.8 244.3 151.5 L244.15 150.8 244.8 146.5 Q249.15 148.65 249.5 151.8 L249.5 152.15 Q249.5 155.65 244.65 158.15 L243.45 158.65 242.65 159.0 Q239.45 160.2 235.6 160.5 L232.75 160.7 231.75 160.7 Q227.45 160.5 223.9 159.5 L222.1 158.85 221.4 158.5 220.75 158.15 218.9 157.15 Q216.05 155.15 215.9 152.65 215.75 152.3 215.9 152.15 215.9 149.0 219.9 146.8" fill="#c7bb92" fill-opacity="0.5019608" fill-rule="evenodd" stroke="none"/>
      <path d="M249.5 151.8 Q250.0 152.85 250.0 153.85 250.0 157.35 244.95 159.85 L242.65 160.85 Q238.3 162.35 232.75 162.35 226.75 162.35 222.25 160.5 L221.9 160.5 220.75 159.85 Q215.75 157.35 215.75 153.85 215.55 153.15 215.9 152.65 216.05 155.15 218.9 157.15 L220.75 158.15 221.4 158.5 222.1 158.85 223.9 159.5 Q227.45 160.5 231.75 160.7 L232.75 160.7 235.6 160.5 Q239.45 160.2 242.65 159.0 L243.45 158.65 244.65 158.15 Q249.5 155.65 249.5 152.15 L249.5 151.8" fill="#c7bb92" fill-opacity="0.8" fill-rule="evenodd" stroke="none"/>
      <path d="M242.65 160.85 Q242.45 162.2 240.95 163.2 L240.65 163.5 239.95 163.85 Q237.45 165.05 233.6 165.35 L233.3 165.35 Q232.95 165.2 232.75 165.35 L232.6 165.35 228.95 165.05 225.75 164.2 225.1 163.85 223.9 163.2 Q222.4 162.0 222.25 160.5 226.75 162.35 232.75 162.35 238.3 162.35 242.65 160.85" fill="#c4b58f" fill-opacity="0.3019608" fill-rule="evenodd" stroke="none"/>
      <path d="M249.5 151.8 Q250.0 152.85 250.0 153.85 250.0 157.35 244.95 159.85 L242.65 160.85 Q238.3 162.35 232.75 162.35 226.75 162.35 222.25 160.5 L221.9 160.5 220.75 159.85 Q215.75 157.35 215.75 153.85 215.55 153.15 215.9 152.65" ffdec:has-small-stroke="true" ffdec:original-stroke-width="0.5" fill="none" stroke="#000000" stroke-linecap="round" stroke-linejoin="round" stroke-opacity="0.3019608" stroke-width="1.0"/>
      <path d="M244.8 146.5 Q249.15 148.65 249.5 151.8 M215.9 152.65 Q215.75 152.3 215.9 152.15 215.9 149.0 219.9 146.8" fill="none" stroke="#000000" stroke-linecap="round" stroke-linejoin="round" stroke-opacity="0.3019608" stroke-width="1.0"/>
      <path d="M252.35 212.55 Q252.35 214.0 246.45 215.05 L232.2 216.1 217.95 215.05 Q212.0 214.0 212.05 212.55 212.0 211.1 217.95 210.05 L232.2 209.0 246.45 210.05 Q252.35 211.1 252.35 212.55" fill="#000000" fill-opacity="0.3019608" fill-rule="evenodd" stroke="none"/>
      <path d="M223.8 196.85 Q222.75 188.25 227.7 179.9 232.65 171.3 240.45 167.65 248.3 164.0 254.3 167.65 260.55 171.05 261.3 179.9 262.1 188.75 258.45 198.4 254.8 208.05 246.2 210.65 237.85 213.0 231.35 209.35 224.55 205.45 223.8 196.85" fill="#ffffff" fill-opacity="0.2509804" fill-rule="evenodd" stroke="none"/>
    </g>
    <g id="sprite1" transform="matrix(1.0, 0.0, 0.0, 1.0, 177.0, 88.5)">
      <use ffdec:characterId="5" height="177.0" transform="matrix(1.0, 0.0, 0.0, 1.0, -177.0, -88.5)" width="354.0" xlink:href="#shape3"/>
    </g>
    <g id="shape3" transform="matrix(1.0, 0.0, 0.0, 1.0, 177.0, 88.5)">
      <path d="M125.15 -62.6 Q177.0 -36.65 177.0 0.0 177.0 36.65 125.15 62.55 73.3 88.5 0.0 88.5 -73.3 88.5 -125.15 62.55 -177.0 36.65 -177.0 0.0 -177.0 -36.65 -125.15 -62.6 -73.3 -88.5 0.0 -88.5 73.3 -88.5 125.15 -62.6" fill="url(#gradient0)" fill-rule="evenodd" stroke="none"/>
    </g>
    <radialGradient cx="0" cy="0" gradientTransform="matrix(0.2191, 0.0, 0.0, 0.1096, 0.0, 0.0)" gradientUnits="userSpaceOnUse" id="gradient0" r="819.2" spreadMethod="pad">
      <stop offset="0.40784313725490196" stop-color="#ffff50" stop-opacity="0.9647059"/>
      <stop offset="1.0" stop-color="#fff1ba" stop-opacity="0.0"/>
    </radialGradient>
    <g id="sprite2" transform="matrix(1.0, 0.0, 0.0, 1.0, 0.0, 0.5)">
      <use ffdec:characterId="7" height="36.35" transform="matrix(1.0, 0.0, 0.0, 1.0, 0.0, -0.5)" width="45.1" xlink:href="#shape4"/>
      <use ffdec:characterId="9" height="14.7" transform="matrix(0.4729, 0.0, 0.0, 0.4471, 6.6802, 15.9135)" width="9.55" xlink:href="#sprite3"/>
      <use ffdec:characterId="10" height="22.1" transform="matrix(1.0, 0.0, 0.0, 1.0, 9.95, 3.55)" width="24.45" xlink:href="#shape6"/>
      <use ffdec:characterId="9" height="14.7" transform="matrix(0.4568, -0.1224, 0.1157, 0.4319, 18.007, 22.2629)" width="9.55" xlink:href="#sprite4"/>
      <use ffdec:characterId="11" height="12.35" transform="matrix(1.0, 0.0, 0.0, 1.0, 21.55, 18.65)" width="10.45" xlink:href="#shape8"/>
    </g>
    <g id="shape4" transform="matrix(1.0, 0.0, 0.0, 1.0, 0.0, 0.5)">
      <path d="M20.3 35.35 L20.25 35.35 20.25 35.3 20.3 35.35" fill="#cecbb3" fill-rule="evenodd" stroke="none"/>
      <path d="M20.3 35.35 L20.25 35.3 20.3 35.3 20.3 35.35" fill="#c5c1a5" fill-rule="evenodd" stroke="none"/>
      <path d="M29.35 34.75 L25.65 35.2 20.3 35.35 20.3 35.3 24.65 33.6 20.3 35.3 20.25 35.3 20.25 35.35 20.2 35.35 14.85 35.15 9.4 34.0 3.65 32.5 Q-1.9 20.0 1.0 9.45 2.3 4.55 4.2 0.05 L9.35 0.3 8.1 3.5 8.1 5.1 Q8.15 4.4 9.05 2.85 9.9 1.4 11.2 0.4 L24.0 1.0 23.85 1.7 Q23.6 1.85 23.6 2.15 L22.95 9.2 22.85 12.95 22.8 17.55 22.8 20.55 29.65 22.25 Q30.45 22.6 30.45 24.75 L30.05 32.0 30.45 33.65 Q30.45 34.1 29.95 34.4 L29.35 34.75 M23.75 2.15 L23.6 2.15 Q23.6 1.85 23.85 1.7 L23.75 2.15" fill="#e6ddc1" fill-rule="evenodd" stroke="none"/>
      <path d="M39.65 0.0 Q40.6 1.25 43.6 9.15 46.55 17.1 41.0 32.75 L37.8 33.3 37.65 29.8 Q36.45 30.35 34.75 33.85 L34.6 33.9 29.95 34.65 29.35 34.75 29.95 34.4 Q30.45 34.1 30.45 33.65 L30.05 32.0 30.45 24.75 Q30.45 22.6 29.65 22.25 L22.8 20.55 22.8 17.55 22.85 12.95 22.95 9.2 23.6 2.15 23.75 2.15 23.85 1.7 24.0 1.0 25.75 0.9 39.65 0.0" fill="#dacea5" fill-rule="evenodd" stroke="none"/>
      <path d="M39.65 0.0 Q40.6 1.25 43.6 9.15 46.55 17.1 41.0 32.75 L37.8 33.3 M34.6 33.9 L29.95 34.65 29.35 34.75 25.65 35.2 20.3 35.35 20.25 35.35" fill="none" stroke="#8e885b" stroke-linecap="round" stroke-linejoin="round" stroke-width="1.0"/>
      <path d="M37.8 33.3 L37.65 29.8 Q36.45 30.35 34.75 33.85 L34.6 33.9 M20.25 35.35 L20.2 35.35 14.85 35.15 9.4 34.0 3.65 32.5 Q-1.9 20.0 1.0 9.45 2.3 4.55 4.2 0.05 L9.35 0.3 8.1 3.5 8.1 5.1 Q8.15 4.4 9.05 2.85 9.9 1.4 11.2 0.4 L24.0 1.0 25.75 0.9 39.65 0.0 M30.45 33.65 Q30.45 34.1 29.95 34.4 L29.35 34.75 M23.85 1.7 Q23.6 1.85 23.6 2.15 M23.85 1.7 L24.0 1.0 M23.75 2.15 L23.85 1.7 M20.25 35.3 L20.25 35.35 M24.65 33.6 L20.3 35.3 20.25 35.3" ffdec:has-small-stroke="true" ffdec:original-stroke-width="0.05" fill="none" stroke="#000000" stroke-linecap="round" stroke-linejoin="round" stroke-opacity="0.34901962" stroke-width="0.7767326711173972"/>
    </g>
    <g id="sprite3" transform="matrix(1.0, 0.0, 0.0, 1.0, 4.8, 7.35)">
      <use ffdec:characterId="8" height="14.7" transform="matrix(1.0, 0.0, 0.0, 1.0, -4.8, -7.35)" width="9.55" xlink:href="#shape5"/>
    </g>
    <g id="shape5" transform="matrix(1.0, 0.0, 0.0, 1.0, 4.8, 7.35)">
      <path d="M-1.45 -4.8 Q-1.55 -7.6 -0.35 -7.3 0.8 -7.05 2.2 -4.85 3.6 -2.7 4.4 -0.15 5.15 2.4 4.4 5.15 3.6 7.85 3.15 7.2 L1.45 4.8 Q0.2 3.1 -0.6 0.55 -1.35 -2.0 -1.45 -4.8" fill="#4a7025" fill-rule="evenodd" stroke="none"/>
      <path d="M-1.45 -4.8 Q-1.55 -7.6 -0.35 -7.3 0.8 -7.05 2.2 -4.85 3.6 -2.7 4.4 -0.15 5.15 2.4 4.4 5.15 3.6 7.85 3.15 7.2 L1.45 4.8 Q0.2 3.1 -0.6 0.55 -1.35 -2.0 -1.45 -4.8 Z" ffdec:has-small-stroke="true" ffdec:original-stroke-width="0.05" fill="none" stroke="#93c936" stroke-linecap="round" stroke-linejoin="round" stroke-width="1.6886252066235892"/>
      <path d="M-2.4 -0.7 Q-1.0 0.15 0.5 1.85 L3.0 5.15 Q4.0 6.8 3.2 7.2 2.4 7.6 1.05 6.55 L-2.0 3.85 Q-3.65 2.2 -4.4 0.75 -5.15 -0.7 -4.5 -1.1 -3.9 -1.6 -2.4 -0.7" fill="#4a7025" fill-rule="evenodd" stroke="none"/>
      <path d="M-2.4 -0.7 Q-1.0 0.15 0.5 1.85 L3.0 5.15 Q4.0 6.8 3.2 7.2 2.4 7.6 1.05 6.55 L-2.0 3.85 Q-3.65 2.2 -4.4 0.75 -5.15 -0.7 -4.5 -1.1 -3.9 -1.6 -2.4 -0.7 Z" ffdec:has-small-stroke="true" ffdec:original-stroke-width="0.05" fill="none" stroke="#93c936" stroke-linecap="round" stroke-linejoin="round" stroke-width="1.6886252066235892"/>
    </g>
    <g id="shape6" transform="matrix(1.0, 0.0, 0.0, 1.0, -9.95, -3.55)">
      <path d="M34.3 18.2 L34.4 18.15 34.4 18.3 34.3 18.2" fill="#e3e3ea" fill-rule="evenodd" stroke="none"/>
      <path d="M32.2 20.65 L32.25 20.65 32.2 20.65" fill="#ffffff" fill-rule="evenodd" stroke="none"/>
      <path d="M28.5 23.05 L28.45 23.05 28.5 23.0 28.5 23.05" fill="#d1d1dc" fill-rule="evenodd" stroke="none"/>
      <path d="M15.1 25.5 L20.95 20.7 21.75 19.95 21.75 21.4 22.9 21.4 23.65 17.8 24.35 18.85 26.2 15.25 26.2 8.95 28.5 15.85 28.5 15.95 28.6 17.75 28.45 18.85 27.95 18.65 27.05 19.2 24.5 21.55 22.5 24.7 22.4 24.85 17.8 24.85 15.1 25.5 M31.7 17.95 L32.25 17.85 34.1 20.6 34.4 21.4 34.3 23.7 33.4 24.0 32.25 24.1 32.3 23.9 32.95 21.6 31.5 22.4 32.25 20.65 32.2 20.65 32.2 20.45 32.25 20.35 32.25 19.3 31.7 17.95" fill="#8c8368" fill-rule="evenodd" stroke="none"/>
      <path d="M26.0 4.8 L22.35 8.35 22.35 6.5 Q21.75 9.4 21.75 12.3 L19.8 17.45 13.45 25.65 13.3 25.65 12.3 24.9 14.05 19.8 11.45 24.2 11.25 24.1 9.95 21.9 10.05 20.0 10.15 19.6 Q10.15 20.5 10.9 20.75 L11.15 20.6 Q11.3 20.45 11.8 20.3 L13.1 18.6 14.45 16.35 15.1 15.1 15.25 14.45 15.25 14.25 14.75 13.9 Q14.05 13.85 13.6 14.45 L14.25 12.6 14.15 11.35 13.75 10.7 13.5 10.65 13.35 10.7 14.35 9.0 20.15 3.55 24.0 3.55 26.0 4.8 M16.45 8.05 L15.8 9.1 15.55 10.1 15.6 10.45 15.95 10.75 16.35 10.7 17.35 9.85 17.9 9.1 18.05 8.75 18.1 8.45 17.8 8.0 17.45 7.9 16.85 8.0 16.6 8.0 16.45 8.05 M17.05 16.8 L18.3 12.8 15.7 16.3 17.05 16.8" fill="#e2dccb" fill-rule="evenodd" stroke="none"/>
      <path d="M28.5 15.85 L26.2 8.95 26.2 15.25 24.35 18.85 23.65 17.8 22.9 21.4 21.75 21.4 21.75 19.95 20.95 20.7 15.1 25.5 14.55 25.6 13.45 25.65 19.8 17.45 21.75 12.3 Q21.75 9.4 22.35 6.5 L22.35 8.35 26.0 4.8 28.5 15.85 M31.7 17.95 L32.25 19.3 32.25 20.35 32.2 20.45 32.2 20.65 32.25 20.65 31.5 22.4 32.95 21.6 32.3 23.9 32.25 24.1 31.55 24.05 30.4 21.9 30.4 20.95 30.85 19.3 31.7 17.95 M11.45 24.2 L14.05 19.8 12.3 24.9 11.45 24.2 M17.05 16.8 L15.7 16.3 18.3 12.8 17.05 16.8" fill="#b9ae9a" fill-rule="evenodd" stroke="none"/>
      <path d="M13.35 10.7 L13.5 10.65 13.75 10.7 14.15 11.35 14.25 12.6 13.6 14.45 Q14.05 13.85 14.75 13.9 L15.25 14.25 15.25 14.45 15.1 15.1 14.45 16.35 13.1 18.6 11.8 20.3 Q11.3 20.45 11.15 20.6 L10.9 20.75 Q10.15 20.5 10.15 19.6 10.6 17.05 11.5 14.6 12.25 12.6 13.35 10.7" fill="#bcda63" fill-rule="evenodd" stroke="none"/>
      <path d="M16.45 8.05 L16.6 8.0 16.85 8.0 17.45 7.9 17.8 8.0 18.1 8.45 18.05 8.75 17.9 9.1 17.35 9.85 16.35 10.7 15.95 10.75 15.6 10.45 15.55 10.1 15.8 9.1 16.45 8.05" fill="#b3c435" fill-rule="evenodd" stroke="none"/>
      <path d="M34.4 21.4 L34.1 20.6 32.25 17.85 31.7 17.95 30.85 19.3 30.4 20.95 30.4 21.9" ffdec:has-small-stroke="true" ffdec:original-stroke-width="0.05" fill="none" stroke="#524a3d" stroke-linecap="round" stroke-linejoin="round" stroke-width="0.7767326711173972"/>
      <path d="M28.6 17.75 L28.5 15.95 28.5 15.85 26.0 4.8 24.0 3.55 20.15 3.55 14.35 9.0 13.35 10.7 Q12.25 12.6 11.5 14.6 10.6 17.05 10.15 19.6 L10.05 20.0 9.95 21.9" ffdec:has-small-stroke="true" ffdec:original-stroke-width="0.05" fill="none" stroke="#5e5446" stroke-linecap="round" stroke-linejoin="round" stroke-width="0.7767326711173972"/>
      <path d="M17.8 24.85 L22.4 24.85 22.5 24.7 24.5 21.55 27.05 19.2 27.95 18.65 28.45 18.85 28.6 17.75 M13.45 25.65 L14.55 25.6 M32.25 24.1 L33.4 24.0 34.3 23.7 34.4 21.4 M31.55 24.05 L32.25 24.1 M9.95 21.9 L11.25 24.1 11.45 24.2 12.3 24.9 13.3 25.65 13.45 25.65" ffdec:has-small-stroke="true" ffdec:original-stroke-width="0.05" fill="none" stroke="#65613a" stroke-linecap="round" stroke-linejoin="round" stroke-width="0.7767326711173972"/>
    </g>
    <g id="sprite4" transform="matrix(1.0, 0.0, 0.0, 1.0, 4.8, 7.35)">
      <use ffdec:characterId="8" height="14.7" transform="matrix(1.0, 0.0, 0.0, 1.0, -4.8, -7.35)" width="9.55" xlink:href="#shape7"/>
    </g>
    <g id="shape7" transform="matrix(1.0, 0.0, 0.0, 1.0, 4.8, 7.35)">
      <path d="M-1.45 -4.8 Q-1.55 -7.6 -0.35 -7.3 0.8 -7.05 2.2 -4.85 3.6 -2.7 4.4 -0.15 5.15 2.4 4.4 5.15 3.6 7.85 3.15 7.2 L1.45 4.8 Q0.2 3.1 -0.6 0.55 -1.35 -2.0 -1.45 -4.8" fill="#4a7025" fill-rule="evenodd" stroke="none"/>
      <path d="M-1.45 -4.8 Q-1.55 -7.6 -0.35 -7.3 0.8 -7.05 2.2 -4.85 3.6 -2.7 4.4 -0.15 5.15 2.4 4.4 5.15 3.6 7.85 3.15 7.2 L1.45 4.8 Q0.2 3.1 -0.6 0.55 -1.35 -2.0 -1.45 -4.8 Z" ffdec:has-small-stroke="true" ffdec:original-stroke-width="0.05" fill="none" stroke="#93c936" stroke-linecap="round" stroke-linejoin="round" stroke-width="1.6956515658210787"/>
      <path d="M-2.4 -0.7 Q-1.0 0.15 0.5 1.85 L3.0 5.15 Q4.0 6.8 3.2 7.2 2.4 7.6 1.05 6.55 L-2.0 3.85 Q-3.65 2.2 -4.4 0.75 -5.15 -0.7 -4.5 -1.1 -3.9 -1.6 -2.4 -0.7" fill="#4a7025" fill-rule="evenodd" stroke="none"/>
      <path d="M-2.4 -0.7 Q-1.0 0.15 0.5 1.85 L3.0 5.15 Q4.0 6.8 3.2 7.2 2.4 7.6 1.05 6.55 L-2.0 3.85 Q-3.65 2.2 -4.4 0.75 -5.15 -0.7 -4.5 -1.1 -3.9 -1.6 -2.4 -0.7 Z" ffdec:has-small-stroke="true" ffdec:original-stroke-width="0.05" fill="none" stroke="#93c936" stroke-linecap="round" stroke-linejoin="round" stroke-width="1.6956515658210787"/>
    </g>
    <g id="shape8" transform="matrix(1.0, 0.0, 0.0, 1.0, -21.55, -18.65)">
      <path d="M32.0 25.0 L31.45 28.05 30.8 28.6 30.25 29.1 29.9 29.3 29.0 29.8 28.3 30.25 27.3 30.65 29.95 28.05 30.2 26.65 32.0 25.0" fill="#8c8368" fill-rule="evenodd" stroke="none"/>
      <path d="M21.55 29.0 L21.85 25.95 22.5 24.7 24.5 21.55 27.05 19.2 27.9 19.5 27.95 19.5 27.1 22.8 28.45 23.05 28.5 23.05 27.4 23.4 27.7 27.65 27.05 29.25 25.8 29.8 21.55 29.0" fill="#e2dccb" fill-rule="evenodd" stroke="none"/>
      <path d="M27.05 19.2 L27.95 18.65 28.45 18.85 28.5 18.85 28.8 19.0 30.35 21.75 30.4 21.9 32.0 25.0 30.2 26.65 29.95 28.05 27.3 30.65 26.4 31.0 24.95 30.7 24.5 30.65 24.05 30.45 23.4 30.15 22.65 29.8 21.55 29.0 25.8 29.8 27.05 29.25 27.7 27.65 27.4 23.4 28.5 23.05 28.5 23.0 28.45 23.05 27.1 22.8 27.95 19.5 27.9 19.5 27.05 19.2" fill="#b9ae9a" fill-rule="evenodd" stroke="none"/>
      <path d="M27.05 19.2 L27.95 18.65 28.45 18.85 28.5 18.85 28.8 19.0 30.35 21.75 30.4 21.9 32.0 25.0 31.45 28.05 30.8 28.6" ffdec:has-small-stroke="true" ffdec:original-stroke-width="0.05" fill="none" stroke="#524a3d" stroke-linecap="round" stroke-linejoin="round" stroke-width="0.7767326711173972"/>
      <path d="M29.9 29.3 L29.0 29.8 M24.95 30.7 L24.5 30.65 24.05 30.45 M23.4 30.15 L22.65 29.8 21.55 29.0 21.85 25.95 22.5 24.7 24.5 21.55 27.05 19.2 M27.9 19.5 L27.95 19.5 M28.5 23.05 L28.45 23.05" ffdec:has-small-stroke="true" ffdec:original-stroke-width="0.05" fill="none" stroke="#65613a" stroke-linecap="round" stroke-linejoin="round" stroke-width="0.7767326711173972"/>
    </g>
  </defs>
</svg>
