<?xml version="1.0" encoding="UTF-8" standalone="no"?>
<svg xmlns:ffdec="https://www.free-decompiler.com/flash" xmlns:xlink="http://www.w3.org/1999/xlink" ffdec:objectType="frame" height="98.75px" width="78.55px" xmlns="http://www.w3.org/2000/svg" viewBox="193.00 134.05 78.55 98.75">
  <g transform="matrix(1.0, 0.0, 0.0, 1.0, 0.0, 0.0)">
    <use ffdec:characterId="1" height="62.2" transform="matrix(1.0, 0.0, 0.0, 1.0, 198.0, 160.5)" width="68.85" xlink:href="#shape0"/>
    <filter id="filter0">
      <feConvolveMatrix divisor="25.0" in="SourceGraphic" kernelMatrix="1 1 1 1 1 1 1 1 1 1 1 1 1 1 1 1 1 1 1 1 1 1 1 1 1" order="5 5" result="filterResult0"/>
    </filter>
    <use ffdec:characterId="3" filter="url(#filter0)" height="26.45" transform="matrix(1.0, 0.0, 0.0, 1.0, 211.05, 206.35)" width="52.9" xlink:href="#sprite0"/>
    <use ffdec:characterId="4" height="91.4" transform="matrix(1.0, 0.0, 0.0, 1.0, 193.0, 134.5)" width="78.55" xlink:href="#shape2"/>
    <use ffdec:characterId="6" height="177.0" transform="matrix(0.1231, 0.0, 0.0, 0.1826, 221.3072, 165.037)" width="354.0" xlink:href="#sprite1"/>
    <use ffdec:characterId="6" height="177.0" transform="matrix(0.0643, 0.0, 0.0, 0.0763, 221.9134, 134.0466)" width="354.0" xlink:href="#sprite1"/>
    <use ffdec:characterId="6" height="177.0" transform="matrix(0.0214, 0.0, 0.0, 0.0536, 245.6608, 176.0047)" width="354.0" xlink:href="#sprite1"/>
    <use ffdec:characterId="10" height="36.35" style="mix-blend-mode: hard-light" transform="matrix(1.2766, 0.0, 0.0, 1.2982, 204.8, 166.5009)" width="45.1" xlink:href="#sprite2"/>
  </g>
  <defs>
    <g id="shape0" transform="matrix(1.0, 0.0, 0.0, 1.0, -198.0, -160.5)">
      <path d="M200.25 175.8 L201.2 173.55 Q200.7 174.7 200.85 176.05 L200.25 175.8 M263.7 173.55 L264.65 175.85 264.05 176.05 Q264.05 174.7 263.7 173.55" fill="#476f75" fill-rule="evenodd" stroke="none"/>
      <path d="M201.2 173.55 Q202.0 171.7 203.05 170.2 205.35 167.35 210.05 165.05 219.4 160.5 232.45 160.5 245.5 160.5 254.65 165.05 259.35 167.35 261.7 170.05 L263.7 173.55 Q264.05 174.7 264.05 176.05 264.05 182.6 254.65 187.1 245.5 191.6 232.45 191.6 219.4 191.6 210.05 187.1 200.85 182.6 200.85 176.05 200.7 174.7 201.2 173.55 M250.5 166.85 Q248.3 166.85 246.65 168.35 245.15 170.05 245.15 172.2 L245.3 173.2 Q245.5 174.7 246.65 175.2 L247.65 175.55 250.3 175.9 Q252.5 175.9 254.15 175.2 255.85 174.55 255.85 172.2 255.85 170.05 254.35 168.35 252.65 166.85 250.5 166.85 M215.4 168.55 Q212.2 168.35 210.05 170.55 207.85 172.9 207.85 176.05 207.85 179.05 209.9 180.25 211.9 181.05 215.05 181.05 218.25 181.05 220.55 180.25 L221.4 179.75 Q222.9 178.4 222.9 176.05 222.9 173.9 222.1 172.4 L220.75 170.55 Q218.55 168.35 215.4 168.55" fill="#88d555" fill-rule="evenodd" stroke="none"/>
      <path d="M264.65 175.85 Q266.75 181.6 266.85 188.25 266.7 202.45 256.65 212.5 246.65 222.5 232.45 222.7 218.05 222.5 208.05 212.5 198.0 202.45 198.0 188.25 198.0 181.55 200.25 175.8 L200.85 176.05 Q200.85 182.6 210.05 187.1 219.4 191.6 232.45 191.6 245.5 191.6 254.65 187.1 264.05 182.6 264.05 176.05 L264.65 175.85 M239.65 210.0 Q238.95 209.3 237.95 209.3 237.8 209.15 237.6 209.3 236.45 209.15 235.6 210.0 234.8 210.8 234.8 212.0 L234.95 212.65 Q234.95 213.35 235.6 214.0 236.45 214.65 237.6 214.85 238.8 214.65 239.65 214.0 240.3 213.15 240.45 212.0 240.3 210.8 239.65 210.0 M222.1 207.8 Q221.4 208.8 221.4 210.3 221.4 212.5 222.9 214.0 224.4 215.5 226.6 215.5 228.75 215.5 230.25 214.0 231.75 212.5 231.75 210.3 L231.75 210.15 Q231.75 208.15 230.25 206.65 228.75 205.15 226.6 205.15 224.4 205.15 222.9 206.65 222.4 207.15 222.25 207.65 L222.1 207.5 222.1 207.8 M235.1 216.0 Q234.8 215.5 234.1 215.5 233.45 215.5 232.95 216.0 232.45 216.5 232.45 217.15 232.45 217.65 232.95 218.15 233.45 218.7 234.1 218.7 234.8 218.7 235.1 218.15 L235.8 217.15 235.1 216.0" fill="#478220" fill-rule="evenodd" stroke="none"/>
      <path d="M215.4 168.55 Q218.55 168.35 220.75 170.55 L222.1 172.4 Q222.9 173.9 222.9 176.05 222.9 178.4 221.4 179.75 L220.55 180.25 Q218.25 181.05 215.05 181.05 211.9 181.05 209.9 180.25 207.85 179.05 207.85 176.05 207.85 172.9 210.05 170.55 212.2 168.35 215.4 168.55 M250.5 166.85 Q252.65 166.85 254.35 168.35 255.85 170.05 255.85 172.2 255.85 174.55 254.15 175.2 252.5 175.9 250.3 175.9 L247.65 175.55 246.65 175.2 Q245.5 174.7 245.3 173.2 L245.15 172.2 Q245.15 170.05 246.65 168.35 248.3 166.85 250.5 166.85 M239.65 210.0 Q240.3 210.8 240.45 212.0 240.3 213.15 239.65 214.0 238.8 214.65 237.6 214.85 236.45 214.65 235.6 214.0 234.95 213.35 234.95 212.65 L234.8 212.0 Q234.8 210.8 235.6 210.0 236.45 209.15 237.6 209.3 237.8 209.15 237.95 209.3 238.95 209.3 239.65 210.0 M222.25 207.65 Q222.4 207.15 222.9 206.65 224.4 205.15 226.6 205.15 228.75 205.15 230.25 206.65 231.75 208.15 231.75 210.15 L231.75 210.3 Q231.75 212.5 230.25 214.0 228.75 215.5 226.6 215.5 224.4 215.5 222.9 214.0 221.4 212.5 221.4 210.3 221.4 208.8 222.1 207.8 222.1 207.65 222.25 207.65 M235.1 216.0 L235.8 217.15 235.1 218.15 Q234.8 218.7 234.1 218.7 233.45 218.7 232.95 218.15 232.45 217.65 232.45 217.15 232.45 216.5 232.95 216.0 233.45 215.5 234.1 215.5 234.8 215.5 235.1 216.0" fill="#a5df7d" fill-rule="evenodd" stroke="none"/>
    </g>
    <g id="sprite0" transform="matrix(1.0, 0.0, 0.0, 1.0, 0.0, 0.0)">
      <use ffdec:characterId="2" height="26.45" transform="matrix(1.0, 0.0, 0.0, 1.0, 0.0, 0.0)" width="52.9" xlink:href="#shape1"/>
    </g>
    <g id="shape1" transform="matrix(1.0, 0.0, 0.0, 1.0, 0.0, 0.0)">
      <path d="M52.9 13.25 Q52.9 18.7 45.15 22.55 37.4 26.45 26.45 26.45 15.5 26.45 7.75 22.55 -0.05 18.7 0.0 13.25 -0.05 7.75 7.75 3.9 15.5 0.0 26.45 0.0 37.4 0.0 45.15 3.9 52.9 7.75 52.9 13.25" fill="#000000" fill-opacity="0.3019608" fill-rule="evenodd" stroke="none"/>
    </g>
    <g id="shape2" transform="matrix(1.0, 0.0, 0.0, 1.0, -193.0, -134.5)">
      <path d="M195.95 172.15 Q197.6 168.0 200.3 164.3 202.15 161.45 204.65 158.95 216.15 147.6 232.4 147.6 248.4 147.6 259.95 158.95 262.8 161.8 263.15 162.8 266.65 167.5 267.8 170.15 270.0 174.85 270.8 180.0 271.3 183.05 271.3 186.2 L271.3 186.7 Q271.3 202.75 259.95 214.3 248.4 225.65 232.4 225.65 216.15 225.65 204.65 214.3 193.6 203.1 193.25 187.55 L193.25 186.7 193.45 182.05 Q193.95 176.7 195.95 172.15 M201.05 200.2 L208.55 211.25 208.7 211.4 209.65 212.3 210.4 213.0 211.85 214.25 221.65 219.65 225.15 220.6 229.6 221.3 233.05 221.45 Q247.1 221.45 257.3 211.45 267.3 201.25 267.3 187.2 267.3 173.0 257.3 163.0 L255.55 161.35 253.95 160.05 244.2 154.55 Q238.85 152.6 232.8 152.6 218.6 152.6 208.55 162.8 198.35 172.8 198.55 187.0 198.45 194.1 201.05 200.2" fill="#997539" fill-opacity="0.5019608" fill-rule="evenodd" stroke="none"/>
      <path d="M201.05 200.2 Q198.6 194.1 198.7 187.15 198.5 172.95 208.7 162.95 218.75 152.75 232.95 152.75 239.0 152.75 244.35 154.7 L254.1 160.2 255.7 161.5 257.2 162.95 Q267.2 172.95 267.2 187.15 267.2 201.2 257.2 211.4 247.0 221.4 232.95 221.4 L229.6 221.3 225.15 220.6 221.65 219.65 211.85 214.25 210.4 213.0 209.65 212.3 208.7 211.4 208.55 211.25 201.05 200.2" fill="#997539" fill-opacity="0.3019608" fill-rule="evenodd" stroke="none"/>
      <path d="M195.95 172.15 Q193.95 176.7 193.45 182.05 L193.25 186.7 193.25 187.55 Q193.6 203.1 204.65 214.3 216.15 225.65 232.4 225.65 248.4 225.65 259.95 214.3 271.3 202.75 271.3 186.7 L271.3 186.2 Q271.3 183.05 270.8 180.0 270.0 174.85 267.8 170.15 266.65 167.5 263.15 162.8 262.8 161.8 259.95 158.95 248.4 147.6 232.4 147.6 216.15 147.6 204.65 158.95 202.15 161.45 200.3 164.3 197.6 168.0 195.95 172.15 Z" ffdec:has-small-stroke="true" ffdec:original-stroke-width="0.5" fill="none" stroke="#000000" stroke-linecap="round" stroke-linejoin="round" stroke-opacity="0.3019608" stroke-width="1.0"/>
      <path d="M236.65 135.4 Q238.0 136.05 238.85 137.05 239.7 138.0 241.6 138.1 L243.8 138.4 Q242.5 139.0 240.8 139.0 238.8 139.0 237.5 138.3 236.1 137.65 236.1 136.6 236.1 135.95 236.65 135.4 M245.5 142.25 L242.95 159.1 242.9 159.6 242.7 160.45 242.7 161.0 Q242.45 162.2 241.0 163.2 L240.55 163.5 243.05 145.65 242.9 145.65 243.05 145.55 243.5 145.2 Q245.2 143.9 245.5 142.25 M225.8 164.15 L225.05 163.85 223.9 163.1 Q222.4 162.05 222.05 160.8 L222.05 160.75 222.0 160.5 219.45 144.95 219.25 144.1 219.05 142.55 219.3 143.3 Q219.9 144.5 221.4 145.55 L222.05 145.9 222.3 146.05 Q222.45 147.1 223.9 148.85 225.3 150.65 227.1 150.0 L227.15 149.9 228.6 162.5 228.55 162.5 Q227.5 162.6 226.7 163.1 226.05 163.55 225.8 164.15" fill="#8a5702" fill-rule="evenodd" stroke="none"/>
      <path d="M243.8 138.4 Q245.2 139.65 245.65 141.3 L245.5 142.25 Q245.2 143.9 243.5 145.2 L243.05 145.55 242.9 145.65 242.05 146.1 241.65 146.4 240.85 146.75 238.1 142.25 Q235.95 138.85 232.4 138.65 L227.1 137.9 Q224.95 137.3 223.95 136.45 227.45 135.0 232.25 135.0 L236.65 135.4 Q236.1 135.95 236.1 136.6 236.1 137.65 237.5 138.3 238.8 139.0 240.8 139.0 242.5 139.0 243.8 138.4 M219.05 142.55 L219.0 142.35 218.8 141.15 Q219.1 139.95 220.05 138.95 L222.95 140.8 226.3 142.9 Q224.85 143.0 223.7 143.7 222.25 144.55 222.25 145.8 L222.3 146.05 222.05 145.9 221.4 145.55 Q219.9 144.5 219.3 143.3 L219.05 142.55 M231.45 147.25 L232.35 148.35 232.25 148.35 229.95 148.2 229.9 148.2 230.4 148.0 230.5 147.95 230.55 147.9 230.6 147.9 231.45 147.25" fill="#de961e" fill-rule="evenodd" stroke="none"/>
      <path d="M232.35 148.35 L232.75 148.35 233.25 148.3 233.25 149.75 232.9 149.2 232.35 148.35 232.9 149.2 233.25 149.75 233.25 165.05 Q232.0 163.55 230.1 162.9 L228.6 162.5 227.15 149.9 229.95 148.2 232.25 148.35 232.35 148.35 M239.0 153.25 Q239.1 152.15 239.65 152.05 L240.8 151.55 Q241.55 151.15 241.65 152.0 L241.7 153.55 241.55 155.4 Q241.25 156.3 240.7 156.0 L239.35 155.0 Q238.7 154.35 239.0 153.25" fill="#774b02" fill-rule="evenodd" stroke="none"/>
      <path d="M240.55 163.5 L240.05 163.85 Q237.95 164.8 235.25 165.15 L234.75 165.2 234.5 165.25 233.9 165.25 233.6 165.35 233.25 165.35 232.7 165.35 232.5 165.35 228.85 165.0 225.8 164.15 Q226.05 163.55 226.7 163.1 227.5 162.6 228.55 162.5 L228.6 162.5 230.1 162.9 Q232.0 163.55 233.25 165.05 L233.25 149.75 233.25 148.3 239.2 147.35 240.85 146.75 241.65 146.4 242.05 146.1 242.9 145.65 243.05 145.65 240.55 163.5 M226.3 142.9 L227.15 142.85 Q229.2 142.8 230.6 143.7 232.05 144.55 232.05 145.8 232.05 146.55 231.45 147.25 L230.6 147.9 230.55 147.9 230.5 147.95 230.4 148.0 229.9 148.2 229.95 148.2 227.15 149.9 227.1 150.0 Q225.3 150.65 223.9 148.85 222.45 147.1 222.3 146.05 L222.25 145.8 Q222.25 144.55 223.7 143.7 224.85 143.0 226.3 142.9 M233.8 150.55 L233.25 149.75 233.8 150.55 M239.0 153.25 Q238.7 154.35 239.35 155.0 L240.7 156.0 Q241.25 156.3 241.55 155.4 L241.7 153.55 241.65 152.0 Q241.55 151.15 240.8 151.55 L239.65 152.05 Q239.1 152.15 239.0 153.25" fill="#6a4302" fill-rule="evenodd" stroke="none"/>
      <path d="M223.95 136.45 Q224.95 137.3 227.1 137.9 L232.4 138.65 Q235.95 138.85 238.1 142.25 L240.85 146.75 239.2 147.35 233.25 148.3 232.75 148.35 232.35 148.35 231.45 147.25 Q232.05 146.55 232.05 145.8 232.05 144.55 230.6 143.7 229.2 142.8 227.15 142.85 L226.3 142.9 222.95 140.8 220.05 138.95 221.4 137.8 Q222.0 137.35 222.85 136.95 L223.95 136.45" fill="#bb7e1a" fill-rule="evenodd" stroke="none"/>
      <path d="M236.65 135.4 Q238.0 136.05 238.85 137.05 239.7 138.0 241.6 138.1 L243.8 138.4 Q245.2 139.65 245.65 141.3 M242.95 159.1 L242.9 159.6 M242.7 161.0 Q242.45 162.2 241.0 163.2 L240.55 163.5 240.05 163.85 Q237.95 164.8 235.25 165.15 L234.75 165.2 234.5 165.25 233.6 165.35 233.25 165.35 232.7 165.35 232.5 165.35 228.85 165.0 225.8 164.15 225.05 163.85 223.9 163.1 Q222.4 162.05 222.05 160.8 M218.8 141.15 Q219.1 139.95 220.05 138.95 L221.4 137.8 Q222.0 137.35 222.85 136.95 L223.95 136.45 Q227.45 135.0 232.25 135.0 L236.65 135.4" fill="none" stroke="#000000" stroke-linecap="round" stroke-linejoin="round" stroke-opacity="0.3019608" stroke-width="1.0"/>
      <path d="M245.65 141.3 L245.5 142.25 242.95 159.1 M242.9 159.6 L242.7 160.45 242.7 161.0 M222.05 160.8 L222.05 160.75 M222.0 160.5 L219.45 144.95 M219.25 144.1 L219.05 142.55 M219.0 142.35 L218.8 141.15" fill="none" stroke="#000000" stroke-linecap="round" stroke-linejoin="round" stroke-opacity="0.3019608" stroke-width="1.0"/>
      <path d="M219.05 142.55 L219.0 142.35 M220.05 138.95 L219.5 138.65 M223.95 136.45 Q224.95 137.3 227.1 137.9 L232.4 138.65 Q235.95 138.85 238.1 142.25 L240.85 146.75 241.65 146.4 242.05 146.1 M243.5 145.2 Q245.2 143.9 245.5 142.25 M220.05 138.95 L222.95 140.8 226.3 142.9 M231.45 147.25 L232.35 148.35 232.75 148.35 M239.2 147.35 L240.85 146.75 M243.8 138.4 Q242.5 139.0 240.8 139.0 238.8 139.0 237.5 138.3 236.1 137.65 236.1 136.6 236.1 135.95 236.65 135.4 M229.95 148.2 L229.9 148.2 M219.3 143.3 L219.05 142.55 M222.3 146.05 L222.05 145.9 M232.35 148.35 L232.25 148.35 229.95 148.2 M232.35 148.35 L232.9 149.2 233.25 149.75 233.8 150.55" ffdec:has-small-stroke="true" ffdec:original-stroke-width="0.5" fill="none" stroke="#000000" stroke-linecap="round" stroke-linejoin="round" stroke-opacity="0.3019608" stroke-width="1.0"/>
      <path d="M201.6 184.05 Q200.9 178.55 204.1 173.2 207.25 167.7 212.25 165.35 217.3 163.0 221.15 165.35 225.15 167.5 225.65 173.2 226.15 178.85 223.8 185.05 221.45 191.25 215.95 192.9 210.6 194.4 206.4 192.05 202.1 189.55 201.6 184.05" fill="#ffffff" fill-opacity="0.2509804" fill-rule="evenodd" stroke="none"/>
      <path d="M245.65 160.7 Q250.15 157.85 255.65 160.5 261.2 163.35 264.55 170.05 267.7 176.7 266.85 183.4 266.05 190.1 261.2 193.1 256.35 196.1 250.3 194.25 244.15 192.25 241.8 184.75 239.3 177.05 240.15 170.2 240.95 163.35 245.65 160.7" fill="#000000" fill-opacity="0.15294118" fill-rule="evenodd" stroke="none"/>
      <path d="M246.05 157.5 L244.6 158.3 241.65 159.45 241.6 159.5 236.3 160.55 232.65 160.75 Q228.8 160.75 225.5 159.95 L225.05 159.9 222.0 158.85 221.85 158.8 220.7 158.3 218.2 156.75 Q215.7 154.75 215.7 152.25 215.7 149.05 219.85 146.75 L220.8 151.3 220.8 151.6 220.95 152.6 Q221.45 154.35 224.2 155.75 227.6 157.45 232.45 157.45 L236.5 157.1 Q238.8 156.65 240.7 155.75 243.7 154.15 244.0 152.05 L244.1 151.8 244.8 146.4 Q249.55 148.8 249.55 152.25 249.55 153.65 248.8 154.95 L248.65 155.05 Q247.8 156.3 246.15 157.45 L246.05 157.5" fill="#813a26" fill-opacity="0.3019608" fill-rule="evenodd" stroke="none"/>
      <path d="M248.65 155.05 L248.7 156.05 Q248.7 157.1 247.95 157.9 L246.15 159.25 246.05 157.5 246.15 157.45 Q247.8 156.3 248.65 155.05 M241.6 159.5 Q242.3 161.35 240.55 161.6 L236.65 162.2 236.15 162.25 233.05 162.5 228.7 162.45 226.35 161.95 Q226.05 161.85 225.85 160.95 L225.5 159.95 Q228.8 160.75 232.65 160.75 L236.3 160.55 241.6 159.5 M222.0 158.85 Q222.05 160.05 221.65 160.55 L219.25 159.25 Q218.2 158.55 218.2 157.55 L218.2 156.75 220.7 158.3 221.85 158.8 222.0 158.85" fill="#813925" fill-opacity="0.5019608" fill-rule="evenodd" stroke="none"/>
      <path d="M219.9 146.8 L220.9 151.5 221.1 152.5 221.6 153.5 222.6 154.5 223.25 155.0 224.25 155.5 226.4 156.35 232.6 157.35 Q235.95 157.35 238.6 156.5 L240.8 155.5 241.95 155.0 242.65 154.35 243.95 152.85 244.15 152.15 Q244.15 151.8 244.3 151.5 L244.15 150.8 244.8 146.5 Q249.15 148.65 249.5 151.8 L249.5 152.15 Q249.5 155.65 244.65 158.15 L243.45 158.65 242.65 159.0 Q239.45 160.2 235.6 160.5 L232.75 160.7 231.75 160.7 Q227.45 160.5 223.9 159.5 L222.1 158.85 221.4 158.5 220.75 158.15 218.9 157.15 Q216.05 155.15 215.9 152.65 215.75 152.3 215.9 152.15 215.9 149.0 219.9 146.8" fill="#c7bb92" fill-opacity="0.5019608" fill-rule="evenodd" stroke="none"/>
      <path d="M249.5 151.8 Q250.0 152.85 250.0 153.85 250.0 157.35 244.95 159.85 L242.65 160.85 Q238.3 162.35 232.75 162.35 226.75 162.35 222.25 160.5 L221.9 160.5 220.75 159.85 Q215.75 157.35 215.75 153.85 215.55 153.15 215.9 152.65 216.05 155.15 218.9 157.15 L220.75 158.15 221.4 158.5 222.1 158.85 223.9 159.5 Q227.45 160.5 231.75 160.7 L232.75 160.7 235.6 160.5 Q239.45 160.2 242.65 159.0 L243.45 158.65 244.65 158.15 Q249.5 155.65 249.5 152.15 L249.5 151.8" fill="#c7bb92" fill-opacity="0.8" fill-rule="evenodd" stroke="none"/>
      <path d="M242.65 160.85 Q242.45 162.2 240.95 163.2 L240.65 163.5 239.95 163.85 Q237.45 165.05 233.6 165.35 L233.3 165.35 Q232.95 165.2 232.75 165.35 L232.6 165.35 228.95 165.05 225.75 164.2 225.1 163.85 223.9 163.2 Q222.4 162.0 222.25 160.5 226.75 162.35 232.75 162.35 238.3 162.35 242.65 160.85" fill="#c4b58f" fill-opacity="0.3019608" fill-rule="evenodd" stroke="none"/>
      <path d="M249.5 151.8 Q250.0 152.85 250.0 153.85 250.0 157.35 244.95 159.85 L242.65 160.85 Q238.3 162.35 232.75 162.35 226.75 162.35 222.25 160.5 L221.9 160.5 220.75 159.85 Q215.75 157.35 215.75 153.85 215.55 153.15 215.9 152.65" ffdec:has-small-stroke="true" ffdec:original-stroke-width="0.5" fill="none" stroke="#000000" stroke-linecap="round" stroke-linejoin="round" stroke-opacity="0.3019608" stroke-width="1.0"/>
      <path d="M244.8 146.5 Q249.15 148.65 249.5 151.8 M215.9 152.65 Q215.75 152.3 215.9 152.15 215.9 149.0 219.9 146.8" fill="none" stroke="#000000" stroke-linecap="round" stroke-linejoin="round" stroke-opacity="0.3019608" stroke-width="1.0"/>
      <path d="M252.35 212.55 Q252.35 214.0 246.45 215.05 L232.2 216.1 217.95 215.05 Q212.0 214.0 212.05 212.55 212.0 211.1 217.95 210.05 L232.2 209.0 246.45 210.05 Q252.35 211.1 252.35 212.55" fill="#000000" fill-opacity="0.3019608" fill-rule="evenodd" stroke="none"/>
      <path d="M223.8 196.85 Q222.75 188.25 227.7 179.9 232.65 171.3 240.45 167.65 248.3 164.0 254.3 167.65 260.55 171.05 261.3 179.9 262.1 188.75 258.45 198.4 254.8 208.05 246.2 210.65 237.85 213.0 231.35 209.35 224.55 205.45 223.8 196.85" fill="#ffffff" fill-opacity="0.2509804" fill-rule="evenodd" stroke="none"/>
    </g>
    <g id="sprite1" transform="matrix(1.0, 0.0, 0.0, 1.0, 177.0, 88.5)">
      <use ffdec:characterId="5" height="177.0" transform="matrix(1.0, 0.0, 0.0, 1.0, -177.0, -88.5)" width="354.0" xlink:href="#shape3"/>
    </g>
    <g id="shape3" transform="matrix(1.0, 0.0, 0.0, 1.0, 177.0, 88.5)">
      <path d="M125.15 -62.6 Q177.0 -36.65 177.0 0.0 177.0 36.65 125.15 62.55 73.3 88.5 0.0 88.5 -73.3 88.5 -125.15 62.55 -177.0 36.65 -177.0 0.0 -177.0 -36.65 -125.15 -62.6 -73.3 -88.5 0.0 -88.5 73.3 -88.5 125.15 -62.6" fill="url(#gradient0)" fill-rule="evenodd" stroke="none"/>
    </g>
    <radialGradient cx="0" cy="0" gradientTransform="matrix(0.2191, 0.0, 0.0, 0.1096, 0.0, 0.0)" gradientUnits="userSpaceOnUse" id="gradient0" r="819.2" spreadMethod="pad">
      <stop offset="0.40784313725490196" stop-color="#ffff50" stop-opacity="0.9647059"/>
      <stop offset="1.0" stop-color="#fff1ba" stop-opacity="0.0"/>
    </radialGradient>
    <g id="sprite2" transform="matrix(1.0, 0.0, 0.0, 1.0, 0.0, 0.5)">
      <use ffdec:characterId="7" height="36.35" transform="matrix(1.0, 0.0, 0.0, 1.0, 0.0, -0.5)" width="45.1" xlink:href="#shape4"/>
      <use ffdec:characterId="9" height="17.3" transform="matrix(1.4709, 0.0, 0.0, 1.3517, 10.9, 4.95)" width="14.6" xlink:href="#sprite3"/>
    </g>
    <g id="shape4" transform="matrix(1.0, 0.0, 0.0, 1.0, 0.0, 0.5)">
      <path d="M20.3 35.35 L20.25 35.35 20.25 35.3 20.3 35.35" fill="#cecbb3" fill-rule="evenodd" stroke="none"/>
      <path d="M20.3 35.35 L20.25 35.3 20.3 35.3 20.3 35.35" fill="#c5c1a5" fill-rule="evenodd" stroke="none"/>
      <path d="M29.35 34.75 L25.65 35.2 20.3 35.35 20.3 35.3 20.25 35.3 20.25 35.35 20.2 35.35 14.85 35.15 9.4 34.0 3.65 32.5 Q-1.9 20.0 1.0 9.45 2.3 4.55 4.2 0.05 L9.35 0.3 8.1 3.5 8.1 5.1 Q8.15 4.4 9.05 2.85 9.9 1.4 11.2 0.4 L24.0 1.0 23.85 1.7 Q23.6 1.85 23.6 2.15 L23.35 5.45 Q24.1 6.35 24.1 7.6 24.1 8.25 23.5 9.1 L31.35 13.65 Q30.65 14.35 29.4 16.35 L31.5 16.3 Q32.35 16.6 32.35 17.8 32.35 18.5 30.95 19.4 29.65 20.2 29.0 20.2 L29.75 22.2 29.65 22.25 29.8 22.35 Q30.35 22.7 30.45 24.2 L30.45 24.75 30.6 24.65 31.75 28.1 32.45 27.65 Q33.0 27.3 33.25 27.3 33.95 27.3 34.6 27.7 35.4 28.2 35.4 28.95 35.4 30.8 34.0 30.7 L30.1 31.0 30.05 32.0 30.45 33.65 Q30.45 34.1 29.95 34.4 L29.35 34.75 M23.75 2.15 L23.6 2.15 Q23.6 1.85 23.85 1.7 L23.75 2.15 M22.85 12.3 L23.65 12.55 22.85 12.05 22.85 12.3 M29.4 16.35 L29.15 16.4 29.35 16.4 29.4 16.35 M23.65 12.55 L26.65 16.95 28.0 15.25 Q28.25 14.0 28.75 14.05 25.4 12.95 23.65 12.55 M24.65 33.6 L20.3 35.3 24.65 33.6" fill="#e6ddc1" fill-rule="evenodd" stroke="none"/>
      <path d="M39.65 0.0 Q40.6 1.25 43.6 9.15 46.55 17.1 41.0 32.75 L37.8 33.3 37.65 29.8 Q36.45 30.35 34.75 33.85 L34.6 33.9 29.95 34.65 29.35 34.75 29.95 34.4 Q30.45 34.1 30.45 33.65 L30.05 32.0 30.1 31.0 34.0 30.7 Q35.4 30.8 35.4 28.95 35.4 28.2 34.6 27.7 33.95 27.3 33.25 27.3 33.0 27.3 32.45 27.65 L31.75 28.1 30.6 24.65 30.45 24.2 30.6 24.65 30.45 24.75 30.45 24.2 Q30.35 22.7 29.8 22.35 L29.75 22.2 29.8 22.35 29.65 22.25 29.75 22.2 29.0 20.2 Q29.65 20.2 30.95 19.4 32.35 18.5 32.35 17.8 32.35 16.6 31.5 16.3 L29.4 16.35 Q30.65 14.35 31.35 13.65 L23.5 9.1 Q24.1 8.25 24.1 7.6 24.1 6.35 23.35 5.45 L23.6 2.15 23.75 2.15 23.85 1.7 24.0 1.0 25.75 0.9 39.65 0.0 M22.85 12.3 L22.85 12.05 23.65 12.55 22.85 12.3 M23.65 12.55 Q25.4 12.95 28.75 14.05 28.25 14.0 28.0 15.25 L26.65 16.95 23.65 12.55 M29.4 16.35 L29.35 16.4 29.15 16.4 29.4 16.35" fill="#dacea5" fill-rule="evenodd" stroke="none"/>
      <path d="M39.65 0.0 Q40.6 1.25 43.6 9.15 46.55 17.1 41.0 32.75 L37.8 33.3 M34.6 33.9 L29.95 34.65 29.35 34.75 25.65 35.2 20.3 35.35 20.25 35.35" fill="none" stroke="#8e885b" stroke-linecap="round" stroke-linejoin="round" stroke-width="1.0"/>
      <path d="M37.8 33.3 L37.65 29.8 Q36.45 30.35 34.75 33.85 L34.6 33.9 M20.25 35.35 L20.2 35.35 14.85 35.15 9.4 34.0 3.65 32.5 Q-1.9 20.0 1.0 9.45 2.3 4.55 4.2 0.05 L9.35 0.3 8.1 3.5 8.1 5.1 Q8.15 4.4 9.05 2.85 9.9 1.4 11.2 0.4 L24.0 1.0 25.75 0.9 39.65 0.0 M29.75 22.2 L29.8 22.35 M30.45 24.2 L30.6 24.65 M30.45 33.65 Q30.45 34.1 29.95 34.4 L29.35 34.75 M23.85 1.7 L24.0 1.0 M23.85 1.7 Q23.6 1.85 23.6 2.15 M23.75 2.15 L23.85 1.7 M20.25 35.3 L20.25 35.35 M20.25 35.3 L20.3 35.3 24.65 33.6" ffdec:has-small-stroke="true" ffdec:original-stroke-width="0.05" fill="none" stroke="#000000" stroke-linecap="round" stroke-linejoin="round" stroke-opacity="0.34901962" stroke-width="0.7767326711173972"/>
    </g>
    <g id="sprite3" transform="matrix(1.0, 0.0, 0.0, 1.0, 0.0, 0.0)">
      <use ffdec:characterId="8" height="17.3" transform="matrix(1.0, 0.0, 0.0, 1.0, 0.0, 0.0)" width="14.6" xlink:href="#shape5"/>
    </g>
    <g id="shape5" transform="matrix(1.0, 0.0, 0.0, 1.0, 0.0, 0.0)">
      <path d="M8.7 4.3 L7.7 3.75 Q5.55 2.65 4.3 2.65 2.75 2.65 1.2 3.8 L0.0 4.9 Q0.1 1.85 3.45 0.95 6.5 0.15 7.85 2.15 L8.35 3.15 7.85 2.15 Q13.45 -2.95 14.6 4.15 13.25 11.0 9.2 15.9 L9.95 14.2 10.7 12.1 Q10.9 11.2 11.85 9.05 L12.7 6.95 Q12.9 5.1 12.6 4.2 12.1 2.8 10.2 2.8 L8.65 3.05 8.35 3.15 8.7 4.3" fill="#b52450" fill-rule="evenodd" stroke="none"/>
      <path d="M0.0 4.9 L1.2 3.8 Q2.75 2.65 4.3 2.65 5.55 2.65 7.7 3.75 L8.7 4.3 8.35 3.15 8.65 3.05 10.2 2.8 Q12.1 2.8 12.6 4.2 12.9 5.1 12.7 6.95 L11.85 9.05 Q10.9 11.2 10.7 12.1 L9.95 14.2 9.2 15.9 7.95 17.3 Q3.4 14.65 0.7 8.5 -0.05 6.4 0.0 4.9 M8.9 6.0 L8.7 4.3 8.9 6.0" fill="#ff4f7b" fill-rule="evenodd" stroke="none"/>
      <path d="M8.7 4.3 L8.35 3.15 7.85 2.15 Q6.5 0.15 3.45 0.95 0.1 1.85 0.0 4.9 -0.05 6.4 0.7 8.5 3.4 14.65 7.95 17.3 L9.2 15.9 Q13.25 11.0 14.6 4.15 13.45 -2.95 7.85 2.15 M8.7 4.3 L8.9 6.0" ffdec:has-small-stroke="true" ffdec:original-stroke-width="0.05" fill="none" stroke="#242424" stroke-linecap="round" stroke-linejoin="round" stroke-opacity="0.34901962" stroke-width="0.5502641961909648"/>
    </g>
  </defs>
</svg>
