<?xml version="1.0" encoding="UTF-8" standalone="no"?>
<svg xmlns:ffdec="https://www.free-decompiler.com/flash" xmlns:xlink="http://www.w3.org/1999/xlink" ffdec:objectType="shape" height="55.25px" width="38.15px" xmlns="http://www.w3.org/2000/svg">
  <g transform="matrix(1.0, 0.0, 0.0, 1.0, -208.0, -121.55)">
    <path d="M208.5 133.25 L209.5 134.15 212.2 137.85 Q228.15 155.35 240.9 176.3 252.8 160.95 234.8 122.15 L228.5 122.35 225.4 122.9 223.25 123.5 Q215.4 126.1 208.5 133.25 Z" fill="none" stroke="#000000" stroke-linecap="round" stroke-linejoin="round" stroke-opacity="0.29803923" stroke-width="1.0"/>
    <path d="M225.4 122.9 L228.5 122.35 230.15 125.8 225.4 122.9 M212.2 137.85 L209.5 134.15 208.5 133.25 Q215.4 126.1 223.25 123.5 L227.25 131.5 221.8 127.25 222.0 129.5 219.55 128.55 222.25 138.0 212.75 132.85 212.2 137.85 M226.55 149.9 L235.2 162.15 225.55 152.55 219.0 141.7 226.55 149.9" fill="#c8af95" fill-rule="evenodd" stroke="none"/>
    <path d="M225.4 122.9 L230.15 125.8 228.5 122.35 234.8 122.15 Q252.8 160.95 240.9 176.3 228.15 155.35 212.2 137.85 L212.75 132.85 222.25 138.0 219.55 128.55 222.0 129.5 221.8 127.25 227.25 131.5 223.25 123.5 225.4 122.9 M239.6 136.75 L237.5 132.2 232.95 132.4 243.45 152.35 242.15 143.65 Q241.05 140.1 239.6 136.75 M226.55 149.9 L219.0 141.7 225.55 152.55 235.2 162.15 226.55 149.9" fill="#eeede3" fill-rule="evenodd" stroke="none"/>
    <path d="M239.6 136.75 Q241.05 140.1 242.15 143.65 L243.45 152.35 232.95 132.4 237.5 132.2 239.6 136.75" fill="#ffffff" fill-rule="evenodd" stroke="none"/>
    <path d="M228.5 122.35 L225.4 122.9 223.25 123.5 Q215.4 126.1 208.5 133.25 L209.5 134.15 212.2 137.85 Q228.15 155.35 240.9 176.3 252.8 160.95 234.8 122.15 L228.5 122.35 Z" ffdec:has-small-stroke="true" ffdec:original-stroke-width="0.1" fill="none" stroke="#000000" stroke-linecap="round" stroke-linejoin="round" stroke-opacity="0.4" stroke-width="1.0"/>
  </g>
</svg>
