<?xml version="1.0" encoding="UTF-8" standalone="no"?>
<svg xmlns:ffdec="https://www.free-decompiler.com/flash" xmlns:xlink="http://www.w3.org/1999/xlink" ffdec:objectType="shape" height="47.0px" width="56.5px" xmlns="http://www.w3.org/2000/svg">
  <g transform="matrix(1.0, 0.0, 0.0, 1.0, -47.35, -310.2)">
    <path d="M66.3 318.05 L66.0 315.35 61.75 310.7 56.0 311.7 55.2 314.25 53.7 315.05 51.0 318.7 47.85 327.4 49.95 334.0 49.75 336.25 50.55 340.35 52.9 344.0 57.7 349.8 60.9 351.1 61.5 352.8 67.75 355.8 77.65 356.7 85.65 353.95 92.9 347.25 93.8 347.15 96.7 341.65 96.6 339.7 98.2 339.0 100.35 333.7 102.5 330.6 101.95 328.6 103.35 323.3 103.25 321.95 Q102.85 317.0 101.4 313.3 L100.15 310.7 Q100.7 315.85 98.95 320.95 L95.55 326.8 90.7 330.6 89.2 333.2 87.65 334.35 82.9 337.85 82.55 337.85 81.35 337.7 80.15 339.0 79.0 340.2 72.35 341.3 Q70.35 341.05 68.9 339.75 L67.0 337.25 63.8 331.4 67.8 323.7 67.2 318.65 66.3 318.05 Z" fill="none" stroke="#000000" stroke-linecap="round" stroke-linejoin="round" stroke-opacity="0.29803923" stroke-width="1.0"/>
    <path d="M66.0 315.35 L66.3 318.05 58.35 312.5 55.2 314.25 56.0 311.7 61.75 310.7 66.0 315.35" fill="#6a5a1e" fill-rule="evenodd" stroke="none"/>
    <path d="M55.2 314.25 L58.35 312.5 66.3 318.05 67.2 318.65 67.8 323.7 64.5 330.2 64.7 328.75 64.3 324.8 Q63.35 323.4 62.55 320.35 L53.0 319.05 49.1 323.3 51.0 318.7 53.7 315.05 55.2 314.25" fill="#7e3811" fill-rule="evenodd" stroke="none"/>
    <path d="M64.5 330.2 L63.8 331.4 62.95 329.85 57.85 326.5 51.8 328.95 50.1 331.9 49.95 334.0 47.85 327.4 49.1 323.3 53.0 319.05 62.55 320.35 Q63.35 323.4 64.3 324.8 L64.7 328.75 64.5 330.2" fill="#9d1300" fill-rule="evenodd" stroke="none"/>
    <path d="M63.8 331.4 L67.0 337.25 61.85 334.75 55.25 335.85 53.0 339.75 52.9 344.0 50.55 340.35 49.75 336.25 49.95 334.0 50.1 331.9 51.8 328.95 57.85 326.5 62.95 329.85 63.8 331.4" fill="#a12300" fill-rule="evenodd" stroke="none"/>
    <path d="M67.0 337.25 L68.9 339.75 62.05 340.55 59.3 346.0 60.9 351.1 57.7 349.8 52.9 344.0 53.0 339.75 55.25 335.85 61.85 334.75 67.0 337.25" fill="#a22b00" fill-rule="evenodd" stroke="none"/>
    <path d="M68.9 339.75 Q70.35 341.05 72.35 341.3 L79.0 340.2 75.0 342.3 71.7 344.05 70.45 351.2 77.65 356.7 67.75 355.8 61.5 352.8 60.9 351.1 59.3 346.0 62.05 340.55 68.9 339.75" fill="#a53600" fill-rule="evenodd" stroke="none"/>
    <path d="M79.0 340.2 L81.3 337.8 82.9 337.85 81.85 338.6 80.8 342.25 84.55 348.0 92.9 347.25 85.65 353.95 77.65 356.7 70.45 351.2 71.7 344.05 75.0 342.3 79.0 340.2" fill="#a73e00" fill-rule="evenodd" stroke="none"/>
    <path d="M95.55 326.8 L98.95 320.95 Q100.7 315.85 100.15 310.7 L101.4 313.3 Q102.85 317.0 103.25 321.95 L103.35 323.3 101.95 328.6 Q101.7 329.35 100.45 330.55 L99.45 331.05 95.2 329.75 95.55 326.8" fill="#ae5e00" fill-rule="evenodd" stroke="none"/>
    <path d="M89.2 333.2 L90.7 330.6 95.55 326.8 95.2 329.75 99.45 331.05 100.45 330.55 Q101.7 329.35 101.95 328.6 L102.5 330.6 100.35 333.7 98.2 339.0 96.6 339.7 94.4 340.35 89.4 338.5 89.2 333.2" fill="#ab5000" fill-rule="evenodd" stroke="none"/>
    <path d="M82.9 337.85 L89.2 333.2 89.4 338.5 94.4 340.35 96.6 339.7 96.7 341.65 93.8 347.15 92.9 347.25 84.55 348.0 80.8 342.25 81.85 338.6 82.9 337.85" fill="#a94700" fill-rule="evenodd" stroke="none"/>
    <path d="M66.3 318.05 L66.0 315.35 M61.75 310.7 L56.0 311.7 55.2 314.25 58.35 312.5 66.3 318.05 67.2 318.65 67.8 323.7 64.5 330.2 63.8 331.4 67.0 337.25 68.9 339.75 Q70.35 341.05 72.35 341.3 L79.0 340.2 81.3 337.8 82.9 337.85 89.2 333.2 90.7 330.6 95.55 326.8 98.95 320.95 Q100.7 315.85 100.15 310.7 L101.4 313.3 Q102.85 317.0 103.25 321.95 L103.35 323.3 101.95 328.6 102.5 330.6 100.35 333.7 98.2 339.0 96.6 339.7 96.7 341.65 93.8 347.15 92.9 347.25 85.65 353.95 77.65 356.7 67.75 355.8 61.5 352.8 60.9 351.1 57.7 349.8 52.9 344.0 50.55 340.35 49.75 336.25 49.95 334.0 47.85 327.4 49.1 323.3 51.0 318.7 53.7 315.05 55.2 314.25 M49.95 334.0 L50.1 331.9 51.8 328.95 57.85 326.5 62.95 329.85 63.8 331.4 M68.9 339.75 L62.05 340.55 59.3 346.0 60.9 351.1 M75.0 342.3 L79.0 340.2 M82.9 337.85 L81.85 338.6 80.8 342.25 84.55 348.0 92.9 347.25 M89.2 333.2 L89.4 338.5 94.4 340.35 96.6 339.7" ffdec:has-small-stroke="true" ffdec:original-stroke-width="0.2" fill="none" stroke="#000000" stroke-linecap="butt" stroke-linejoin="miter-clip" stroke-miterlimit="3.0" stroke-opacity="0.4" stroke-width="1.0"/>
    <path d="M61.3 314.55 L59.55 313.35 62.55 320.35 59.1 320.15 57.55 327.2 63.9 340.35 62.05 340.55 61.65 341.4 71.7 344.05 79.0 340.2 81.35 337.7 83.05 337.9 89.2 333.2 90.7 330.6 95.55 326.8 98.95 320.95 Q100.7 315.85 100.15 310.7 L101.4 313.3 100.3 326.2 93.0 338.35 84.55 348.0 74.4 354.25 69.8 355.85 67.75 355.8 61.5 352.8 60.9 351.1 57.7 349.8 52.9 344.0 50.55 340.35 49.75 336.25 49.95 334.0 47.85 327.4 49.1 323.3 50.8 321.35 51.0 318.7 53.7 315.05 55.2 314.25 56.0 311.7 61.75 310.7 61.3 314.55" fill="#000000" fill-opacity="0.23137255" fill-rule="evenodd" stroke="none"/>
  </g>
</svg>
