<?xml version="1.0" encoding="UTF-8" standalone="no"?>
<svg xmlns:ffdec="https://www.free-decompiler.com/flash" xmlns:xlink="http://www.w3.org/1999/xlink" ffdec:objectType="shape" height="15.2px" width="24.75px" xmlns="http://www.w3.org/2000/svg">
  <g transform="matrix(1.0, 0.0, 0.0, 1.0, 12.35, 7.6)">
    <path d="M-8.25 -3.4 L-6.25 -4.75 -5.45 -1.4 -8.8 1.05 -8.5 -1.4 -8.25 -3.4" fill="#c88331" fill-rule="evenodd" stroke="none"/>
    <path d="M-8.25 -3.4 L-8.5 -1.4 -11.05 -0.2 -10.65 7.35 -10.9 7.15 -12.35 -1.85 -11.4 -1.3 -8.25 -3.4 M-5.45 -1.4 L-6.25 -4.75 -3.65 -6.55 -3.3 -7.6 -3.25 -5.85 -4.9 -4.0 -4.4 2.45 -4.5 2.45 -5.4 -1.3 -5.45 -1.4 M-1.7 2.9 L-1.7 2.85 7.6 -2.4 12.4 1.75 9.4 2.45 7.5 -0.4 -1.7 2.9" fill="#d3c5a5" fill-rule="evenodd" stroke="none"/>
    <path d="M-8.5 -1.4 L-8.8 1.05 -9.55 6.75 -10.3 7.6 -10.65 7.35 -11.05 -0.2 -8.5 -1.4 M-3.25 -5.85 L-3.0 0.65 -3.55 2.65 -4.4 2.45 -4.9 -4.0 -3.25 -5.85 M-1.7 2.9 L7.5 -0.4 9.4 2.45 -1.25 4.5 -1.7 2.9" fill="#efebde" fill-rule="evenodd" stroke="none"/>
    <path d="M-6.25 -4.75 L-8.25 -3.4 -8.5 -1.4 -8.8 1.05 -9.55 6.75 -10.3 7.6 -10.65 7.35 -10.9 7.15 -12.35 -1.85 -11.4 -1.3 -8.25 -3.4 M-5.45 -1.4 L-6.25 -4.75 -3.65 -6.55 -3.3 -7.6 -3.25 -5.85 -3.0 0.65 -3.55 2.65 -4.4 2.45 -4.5 2.45 -5.4 -1.3 M9.4 2.45 L12.4 1.75 7.6 -2.4 -1.7 2.85 -1.7 2.9 -1.25 4.5 9.4 2.45 Z" ffdec:has-small-stroke="true" ffdec:original-stroke-width="0.05" fill="none" stroke="#4f3517" stroke-linecap="round" stroke-linejoin="round" stroke-width="1.0"/>
  </g>
</svg>
