<?xml version="1.0" encoding="UTF-8" standalone="no"?>
<svg xmlns:ffdec="https://www.free-decompiler.com/flash" xmlns:xlink="http://www.w3.org/1999/xlink" ffdec:objectType="shape" height="151.9px" width="231.55px" xmlns="http://www.w3.org/2000/svg">
  <g transform="matrix(1.0, 0.0, 0.0, 1.0, -149.65, -161.05)">
    <path d="M336.3 182.75 L276.7 216.1 268.75 215.35 336.3 182.75 M267.5 210.15 L198.4 253.2 195.5 249.75 186.55 248.45 294.7 179.25 267.5 210.15 M184.3 244.45 Q181.75 257.75 174.65 256.85 160.75 254.8 155.15 239.4 160.9 231.9 169.65 231.5 178.35 231.05 184.3 244.45 M174.15 284.75 Q174.3 283.65 175.55 280.55 176.4 275.95 180.15 274.85 185.5 272.7 189.15 276.4 191.9 284.2 187.6 289.15 182.7 293.6 177.85 290.9 174.1 288.7 174.15 284.75" fill="#fff4e1" fill-rule="evenodd" stroke="none"/>
    <path d="M149.9 254.2 Q156.55 270.6 172.3 273.6 161.9 275.5 153.5 268.75 148.6 262.5 149.9 254.2 M163.65 299.3 L174.95 305.6 Q185.5 301.0 196.1 296.45 L197.35 278.5 Q208.05 295.85 201.95 301.35 189.85 313.6 173.85 312.9 166.2 310.1 163.65 299.3 M197.4 274.85 L198.85 267.65 358.2 172.15 381.2 161.05 197.4 274.85" fill="#d1ab5a" fill-rule="evenodd" stroke="none"/>
    <path d="M336.3 182.75 L340.95 180.5 Q349.55 176.3 358.2 172.15 L198.85 267.65 197.4 274.85 196.7 275.3 197.35 278.5 196.1 296.45 Q185.5 301.0 174.95 305.6 L163.65 299.3 Q161.3 293.8 165.2 285.2 L172.5 273.65 172.3 273.6 Q156.55 270.6 149.9 254.2 150.2 246.25 155.15 239.4 160.75 254.8 174.65 256.85 181.75 257.75 184.3 244.45 185.55 247.25 184.15 250.0 L186.55 248.45 195.5 249.75 198.4 253.2 267.5 210.15 268.05 215.7 268.75 215.35 276.7 216.1 336.3 182.75 M174.15 284.75 Q174.1 288.7 177.85 290.9 182.7 293.6 187.6 289.15 191.9 284.2 189.15 276.4 185.5 272.7 180.15 274.85 176.4 275.95 175.55 280.55 174.3 283.65 174.15 284.75" fill="#ddc084" fill-rule="evenodd" stroke="none"/>
    <path d="M268.75 215.35 L268.05 215.7 267.5 210.15 294.7 179.25 186.55 248.45 184.15 250.0 Q185.55 247.25 184.3 244.45 178.35 231.05 169.65 231.5 160.9 231.9 155.15 239.4 150.2 246.25 149.9 254.2 148.6 262.5 153.5 268.75 161.9 275.5 172.3 273.6 L172.5 273.65 165.2 285.2 Q161.3 293.8 163.65 299.3 166.2 310.1 173.85 312.9 189.85 313.6 201.95 301.35 208.05 295.85 197.35 278.5 L196.7 275.3 197.4 274.85 381.2 161.05 358.2 172.15 Q349.55 176.3 340.95 180.5 M268.75 215.35 L336.3 182.75" ffdec:has-small-stroke="true" ffdec:original-stroke-width="0.05" fill="none" stroke="#000000" stroke-linecap="round" stroke-linejoin="round" stroke-opacity="0.2509804" stroke-width="1.0"/>
  </g>
</svg>
