<?xml version="1.0" encoding="UTF-8" standalone="no"?>
<svg xmlns:ffdec="https://www.free-decompiler.com/flash" xmlns:xlink="http://www.w3.org/1999/xlink" ffdec:objectType="shape" height="359.45px" width="426.25px" xmlns="http://www.w3.org/2000/svg">
  <g transform="matrix(1.0, 0.0, 0.0, 1.0, -43.4, -17.75)">
    <path d="M318.2 133.65 L331.95 134.05 357.65 133.15 Q382.25 130.8 404.55 122.75 432.5 112.7 456.75 93.55 L469.4 106.4 Q463.15 147.05 451.55 187.2 446.85 203.45 441.25 219.7 L433.05 242.05 427.0 257.35 Q420.3 273.55 412.75 289.75 L405.6 304.35 399.9 308.4 399.9 268.95 358.95 268.95 265.45 317.55 237.85 321.7 228.05 222.25 302.2 134.45 310.25 136.25 318.2 133.65 318.7 136.25 318.2 133.65 M324.35 186.65 L264.5 211.95 Q248.4 226.65 268.3 230.6 L333.35 199.15 Q337.25 186.15 324.35 186.65" fill="#5f829a" fill-rule="evenodd" stroke="none"/>
    <path d="M237.85 321.7 L265.45 317.55 358.95 268.95 399.9 268.95 399.9 308.4 324.7 361.85 324.55 361.9 239.25 336.3 237.85 321.7 239.25 336.3 324.55 361.9 Q258.8 382.7 195.5 374.8 178.0 372.6 160.7 368.25 L159.3 367.55 Q152.2 364.1 145.3 360.35 L143.45 359.3 111.5 302.6 143.45 359.3 Q125.0 349.15 107.8 337.0 98.75 330.65 83.95 309.8 67.3 286.35 61.35 280.65 58.9 278.3 55.35 268.05 L50.05 251.3 46.45 209.45 Q49.7 217.4 53.6 225.2 73.8 265.85 111.5 302.6 L157.9 333.5 237.85 321.7" fill="#485869" fill-rule="evenodd" stroke="none"/>
    <path d="M324.35 186.65 Q337.25 186.15 333.35 199.15 L268.3 230.6 Q248.4 226.65 264.5 211.95 L324.35 186.65 M100.85 85.7 L123.3 85.7 123.3 109.1 130.8 142.3 Q125.95 157.05 119.0 165.35 113.1 172.25 105.8 174.7 91.7 157.55 85.9 137.65 83.0 127.45 82.2 116.6 L100.85 85.7 M137.75 172.75 L142.95 196.0 210.3 221.25 Q229.9 228.0 210.3 241.85 L198.15 241.85 122.6 216.25 115.45 198.65 Q128.3 173.55 137.75 172.75" fill="#cad5df" fill-rule="evenodd" stroke="none"/>
    <path d="M46.45 209.45 L43.65 148.9 Q53.9 102.05 92.7 55.25 127.75 27.3 200.5 18.0 249.5 29.6 271.45 44.6 L292.25 95.75 Q293.25 107.0 302.4 118.0 304.6 120.65 318.2 133.65 L310.25 136.25 302.2 134.45 243.75 127.6 139.25 142.75 83.15 252.15 111.5 302.6 Q73.8 265.85 53.6 225.2 49.7 217.4 46.45 209.45 M100.85 85.7 L82.2 116.6 Q83.0 127.45 85.9 137.65 91.7 157.55 105.8 174.7 113.1 172.25 119.0 165.35 125.95 157.05 130.8 142.3 L123.3 109.1 123.3 85.7 100.85 85.7" fill="#567889" fill-rule="evenodd" stroke="none"/>
    <path d="M302.2 134.45 L228.05 222.25 237.85 321.7 157.9 333.5 111.5 302.6 83.15 252.15 139.25 142.75 243.75 127.6 302.2 134.45 M137.75 172.75 Q128.3 173.55 115.45 198.65 L122.6 216.25 198.15 241.85 210.3 241.85 Q229.9 228.0 210.3 221.25 L142.95 196.0 137.75 172.75" fill="#6d91a3" fill-rule="evenodd" stroke="none"/>
    <path d="M399.9 308.4 L405.6 304.35 412.75 289.75 Q420.3 273.55 427.0 257.35 L433.05 242.05 441.25 219.7 Q446.85 203.45 451.55 187.2 463.15 147.05 469.4 106.4 L456.75 93.55 Q432.5 112.7 404.55 122.75 382.25 130.8 357.65 133.15 L331.95 134.05 318.2 133.65 318.7 136.25 M324.55 361.9 L324.7 361.85 399.9 308.4 M46.45 209.45 L43.65 148.9 Q53.9 102.05 92.7 55.25 127.75 27.3 200.5 18.0 249.5 29.6 271.45 44.6 L292.25 95.75 Q293.25 107.0 302.4 118.0 304.6 120.65 318.2 133.65 L310.25 136.25 302.2 134.45 243.75 127.6 M145.3 360.35 Q152.2 364.1 159.3 367.55 L160.7 368.25 Q178.0 372.6 195.5 374.8 258.8 382.7 324.55 361.9 M46.45 209.45 L50.05 251.3 55.35 268.05 Q58.9 278.3 61.35 280.65 67.3 286.35 83.95 309.8 98.75 330.65 107.8 337.0 125.0 349.15 143.45 359.3" ffdec:has-small-stroke="true" ffdec:original-stroke-width="0.5" fill="none" stroke="#423213" stroke-linecap="round" stroke-linejoin="round" stroke-opacity="0.5019608" stroke-width="1.0"/>
    <path d="M237.85 321.7 L239.25 336.3 324.55 361.9 M302.2 134.45 L228.05 222.25 237.85 321.7 M111.5 302.6 L143.45 359.3 145.3 360.35 M243.75 127.6 L139.25 142.75 83.15 252.15 111.5 302.6" ffdec:has-small-stroke="true" ffdec:original-stroke-width="0.5" fill="none" stroke="#423113" stroke-linecap="round" stroke-linejoin="round" stroke-opacity="0.2509804" stroke-width="1.0"/>
  </g>
</svg>
