<?xml version="1.0" encoding="UTF-8" standalone="no"?>
<svg xmlns:ffdec="https://www.free-decompiler.com/flash" xmlns:xlink="http://www.w3.org/1999/xlink" ffdec:objectType="shape" height="417.45px" width="401.2px" xmlns="http://www.w3.org/2000/svg">
  <g transform="matrix(1.0, 0.0, 0.0, 1.0, -62.2, 37.6)">
    <path d="M202.2 65.15 L233.25 35.25 269.2 50.55 122.8 179.1 160.15 112.95 Q180.1 87.55 202.2 65.15" fill="#ffffff" fill-rule="evenodd" stroke="none"/>
    <path d="M359.0 -2.35 Q366.9 3.1 374.35 9.2 L317.4 61.05 374.85 43.45 366.55 61.1 388.65 61.1 337.95 129.1 430.35 116.6 419.0 158.85 Q236.7 250.25 69.75 379.85 21.0 219.7 286.05 -37.6 312.6 -29.45 336.1 -16.55 L312.55 6.55 359.0 -2.35 M202.2 65.15 Q180.1 87.55 160.15 112.95 L122.8 179.1 269.2 50.55 233.25 35.25 202.2 65.15 M266.6 211.15 L159.15 283.45 266.35 235.95 352.65 168.7 266.6 211.15" fill="#eeede3" fill-rule="evenodd" stroke="none"/>
    <path d="M336.1 -16.55 Q347.95 -10.05 359.0 -2.35 L312.55 6.55 336.1 -16.55 M374.35 9.2 Q430.05 54.45 463.4 133.25 L452.6 137.6 419.0 158.85 430.35 116.6 337.95 129.1 388.65 61.1 366.55 61.1 374.85 43.45 317.4 61.05 374.35 9.2 M266.6 211.15 L352.65 168.7 266.35 235.95 159.15 283.45 266.6 211.15" fill="#c8af95" fill-rule="evenodd" stroke="none"/>
    <path d="M336.1 -16.55 Q347.95 -10.05 359.0 -2.35 366.9 3.1 374.35 9.2 430.05 54.45 463.4 133.25 L452.6 137.6 419.0 158.85 Q236.7 250.25 69.75 379.85 21.0 219.7 286.05 -37.6 312.6 -29.45 336.1 -16.55 Z" ffdec:has-small-stroke="true" ffdec:original-stroke-width="0.05" fill="none" stroke="#404040" stroke-linecap="round" stroke-linejoin="round" stroke-width="1.0"/>
  </g>
</svg>
