<?xml version="1.0" encoding="UTF-8" standalone="no"?>
<svg xmlns:ffdec="https://www.free-decompiler.com/flash" xmlns:xlink="http://www.w3.org/1999/xlink" ffdec:objectType="shape" height="50.65px" width="71.3px" xmlns="http://www.w3.org/2000/svg">
  <g transform="matrix(1.0, 0.0, 0.0, 1.0, 0.5, 0.5)">
    <path d="M51.7 29.45 L51.75 29.3 52.2 29.7 51.7 29.45 M52.4 22.6 L50.9 23.65 50.2 22.65 52.1 22.6 52.4 22.6 M3.55 29.65 L3.75 29.55 4.35 29.35 4.45 29.65 4.75 29.75 3.75 29.55 3.7 29.6 3.55 29.65 M11.4 28.55 L11.45 28.55 12.4 28.6 12.4 28.8 11.45 28.65 11.4 28.55 M16.9 35.25 L17.45 34.65 17.95 35.0 16.9 35.25 M34.35 26.35 L34.25 26.3 34.35 26.3 34.35 26.35 M20.95 33.55 L20.95 33.5 21.0 33.4 20.95 33.55" fill="#ff0000" fill-rule="evenodd" stroke="none"/>
    <path d="M48.0 36.25 L48.0 36.35 46.6 35.7 47.45 36.0 48.0 36.25 M67.35 27.45 L67.8 28.0 67.55 28.05 67.35 27.45 M39.35 44.65 L39.4 44.55 39.9 44.5 39.35 44.65" fill="#ff5555" fill-rule="evenodd" stroke="none"/>
    <path d="M53.4 30.8 L53.45 30.7 53.5 30.75 53.4 30.8 M49.7 28.75 L49.35 30.2 49.3 30.2 49.4 29.05 49.6 28.75 49.7 28.75 M2.85 29.9 L3.1 29.7 3.2 29.7 3.55 29.65 3.1 29.8 2.85 29.9" fill="#9c0101" fill-rule="evenodd" stroke="none"/>
    <path d="M62.8 25.75 L62.9 25.55 63.05 25.45 63.25 25.4 Q65.1 25.5 66.6 26.55 L66.8 26.7 67.0 27.0 67.1 27.15 67.25 27.35 67.35 27.45 67.55 28.05 Q67.85 28.65 67.5 29.15 L67.15 29.25 66.85 29.2 66.7 29.05 Q65.8 26.5 62.8 26.0 L62.7 25.85 62.8 25.75 M49.45 41.3 L50.4 40.5 50.65 40.3 Q51.4 40.2 51.5 40.9 L51.5 41.05 51.25 41.25 50.95 41.4 50.9 41.55 50.8 41.7 50.75 41.8 Q45.25 44.65 39.4 44.8 L39.35 44.65 39.9 44.5 Q44.45 42.85 49.3 41.4 L49.45 41.3" fill="#ffffff" fill-rule="evenodd" stroke="none"/>
    <path d="M40.85 24.3 L41.0 23.9 41.45 24.4 44.0 26.95 44.65 27.35 49.3 30.2 49.35 30.2 49.7 28.75 50.2 26.65 47.35 22.85 44.6 19.2 41.15 17.3 38.4 17.3 38.1 14.6 40.55 13.3 46.1 16.45 50.2 22.65 50.9 23.65 52.4 22.6 52.45 22.6 52.45 18.3 45.75 8.05 39.65 5.05 34.9 6.85 34.9 2.6 38.8 0.0 46.55 4.5 55.3 17.2 56.15 22.25 55.7 22.75 53.5 25.4 54.5 29.3 53.45 30.7 53.4 30.8 52.2 29.7 51.75 29.3 51.7 29.45 51.05 32.25 50.9 32.8 52.0 35.6 50.75 37.9 50.35 38.6 49.75 39.7 46.55 39.85 43.35 39.25 44.05 37.05 47.95 37.5 48.0 36.35 48.0 36.25 48.2 32.8 46.0 30.85 44.85 29.8 42.7 28.5 40.65 26.65 40.2 26.25 40.85 24.3 M4.35 29.35 L2.45 24.65 9.45 9.65 20.45 2.65 29.45 3.65 32.45 7.65 22.45 7.65 13.45 12.65 8.45 24.65 11.4 28.55 11.45 28.65 12.4 28.8 15.05 29.1 17.9 22.65 18.75 20.6 26.65 15.7 32.1 16.0 33.45 18.65 28.45 19.65 26.6 20.75 23.45 22.65 21.75 25.8 20.95 27.15 18.45 31.65 20.95 33.5 20.95 33.55 21.55 34.0 22.45 34.65 30.0 29.7 32.9 26.35 33.35 25.75 34.25 26.3 34.35 26.35 36.45 27.65 33.45 30.65 30.45 32.65 26.45 36.65 30.25 40.95 36.1 39.4 36.25 42.1 34.45 42.65 28.45 43.65 21.45 40.65 21.45 37.65 21.15 37.4 17.95 35.0 17.45 34.65 16.9 35.25 15.45 36.65 12.45 35.65 11.45 31.65 4.75 29.75 4.45 29.65 4.35 29.35" fill="#feead3" fill-rule="evenodd" stroke="none"/>
    <path d="M8.65 41.65 L8.55 41.8 Q11.95 44.7 16.75 44.75 17.15 44.75 17.2 45.25 L16.95 46.05 16.55 46.45 Q9.45 47.75 6.2 42.25 5.95 41.8 6.1 41.25 6.75 39.25 8.25 37.8 L8.9 37.65 Q11.35 39.25 8.65 41.65" fill="#620e7b" fill-rule="evenodd" stroke="none"/>
    <path d="M41.45 24.4 L41.0 23.9 40.85 24.3 33.9 23.85 Q28.5 23.85 24.7 24.7 22.65 25.2 21.75 25.8 L23.45 22.65 26.6 20.75 32.15 20.5 Q40.4 20.5 46.25 22.55 L47.15 22.9 47.35 22.85 50.2 26.65 49.7 28.75 49.6 28.75 49.4 29.05 49.3 30.2 44.65 27.35 46.2 27.85 Q46.9 27.4 46.9 26.85 46.9 25.6 43.1 24.7 L41.45 24.4 M40.65 26.65 L42.7 28.5 44.85 29.8 46.0 30.85 43.85 31.4 43.2 31.55 46.35 33.75 46.5 34.85 46.45 35.65 46.6 35.7 48.0 36.35 47.95 37.5 44.05 37.05 43.35 39.25 46.55 39.85 49.75 39.7 50.35 38.6 50.45 39.3 Q50.45 40.4 49.45 41.3 L49.3 41.4 Q44.45 42.85 39.9 44.5 L39.4 44.55 35.35 44.7 Q29.1 44.7 24.65 43.1 20.85 41.75 20.35 39.9 L20.25 39.3 Q20.25 38.3 21.15 37.4 L21.45 37.65 21.45 40.65 28.45 43.65 34.45 42.65 36.25 42.1 36.1 39.4 30.25 40.95 26.45 36.65 30.45 32.65 33.45 30.65 36.45 27.65 34.35 26.35 34.35 26.3 40.65 26.65 M50.75 37.9 L52.0 35.6 50.9 32.8 51.05 32.25 53.1 32.4 53.5 32.0 53.8 31.2 53.65 30.95 53.5 30.75 53.45 30.7 54.5 29.3 53.5 25.4 55.7 22.75 Q60.95 23.2 64.95 24.95 70.3 27.35 70.3 30.75 70.3 34.15 64.95 36.5 60.25 38.6 53.85 38.9 55.25 40.15 55.25 41.6 55.25 44.95 47.8 47.3 40.4 49.65 29.9 49.65 19.4 49.65 11.95 47.3 4.55 44.95 4.55 41.6 4.55 39.0 9.0 37.0 5.65 36.8 3.1 35.8 0.0 34.55 0.0 32.8 0.0 31.1 2.85 29.9 L2.5 30.45 Q2.35 30.9 2.7 31.05 6.8 33.0 11.25 34.2 L11.3 35.15 11.35 35.95 11.35 36.1 12.15 36.85 Q14.8 39.6 18.15 37.35 L18.55 37.75 19.6 38.25 19.7 38.3 Q19.1 40.4 20.5 41.75 21.3 43.65 24.9 45.1 29.6 47.0 36.2 47.0 42.8 47.0 47.45 45.1 52.15 43.2 52.15 40.55 52.15 39.1 50.75 37.9 M62.8 25.75 L61.8 25.7 Q59.25 25.7 57.4 26.6 55.6 27.55 55.6 28.9 L55.65 29.3 55.85 29.2 Q57.6 28.55 60.05 28.55 62.5 28.55 64.2 29.2 65.95 29.9 65.95 30.85 L65.85 31.3 66.15 31.15 Q68.0 30.25 68.0 28.9 L67.8 28.0 67.35 27.45 67.25 27.35 67.1 27.15 67.0 27.0 66.8 26.7 66.6 26.55 Q65.1 25.5 63.25 25.4 L63.05 25.45 62.9 25.55 62.8 25.75 M12.4 28.6 L12.2 27.55 Q12.2 24.7 17.9 22.65 L15.05 29.1 12.4 28.8 12.4 28.6 M32.9 26.35 L30.0 29.7 22.45 34.65 21.55 34.0 23.05 33.85 21.0 33.4 20.95 33.5 18.45 31.65 20.95 27.15 22.0 28.1 Q23.0 27.6 24.85 27.15 L32.9 26.35 M8.65 41.65 Q11.35 39.25 8.9 37.65 L8.25 37.8 Q6.75 39.25 6.1 41.25 5.95 41.8 6.2 42.25 9.45 47.75 16.55 46.45 L16.95 46.05 17.2 45.25 Q17.15 44.75 16.75 44.75 11.95 44.7 8.55 41.8 L8.65 41.65" fill="#9a1ac0" fill-rule="evenodd" stroke="none"/>
    <path d="M40.85 24.3 L40.2 26.25 40.65 26.65 34.35 26.3 34.25 26.3 33.35 25.75 32.9 26.35 24.85 27.15 Q23.0 27.6 22.0 28.1 L20.95 27.15 21.75 25.8 Q22.65 25.2 24.7 24.7 28.5 23.85 33.9 23.85 L40.85 24.3 M50.35 38.6 L50.75 37.9 Q52.15 39.1 52.15 40.55 52.15 43.2 47.45 45.1 42.8 47.0 36.2 47.0 29.6 47.0 24.9 45.1 21.3 43.65 20.5 41.75 20.25 41.15 20.25 40.55 L20.35 39.9 Q20.85 41.75 24.65 43.1 29.1 44.7 35.35 44.7 L39.4 44.55 39.35 44.65 39.4 44.8 Q45.25 44.65 50.75 41.8 L50.8 41.7 50.9 41.55 50.95 41.4 51.25 41.25 51.5 41.05 51.5 40.9 Q51.4 40.2 50.65 40.3 L50.4 40.5 49.45 41.3 Q50.45 40.4 50.45 39.3 L50.35 38.6 M44.65 27.35 L44.0 26.95 41.45 24.4 43.1 24.7 Q46.9 25.6 46.9 26.85 46.9 27.4 46.2 27.85 L44.65 27.35 M67.8 28.0 L68.0 28.9 Q68.0 30.25 66.15 31.15 L65.85 31.3 65.95 30.85 Q65.95 29.9 64.2 29.2 62.5 28.55 60.05 28.55 57.6 28.55 55.85 29.2 L55.65 29.3 55.6 28.9 Q55.6 27.55 57.4 26.6 59.25 25.7 61.8 25.7 L62.8 25.75 62.7 25.85 62.8 26.0 Q65.8 26.5 66.7 29.05 L66.85 29.2 67.15 29.25 67.5 29.15 Q67.85 28.65 67.55 28.05 L67.8 28.0" fill="#d582ee" fill-rule="evenodd" stroke="none"/>
    <path d="M46.0 30.85 L48.2 32.8 48.0 36.25 47.45 36.0 46.6 35.7 46.45 35.65 46.5 34.85 46.35 33.75 43.2 31.55 43.85 31.4 46.0 30.85 M51.05 32.25 L51.7 29.45 52.2 29.7 53.4 30.8 53.5 30.75 53.65 30.95 53.8 31.2 53.5 32.0 53.1 32.4 51.05 32.25 M20.35 39.9 L20.25 40.55 Q20.25 41.15 20.5 41.75 19.1 40.4 19.7 38.3 L19.6 38.25 18.55 37.75 18.15 37.35 Q14.8 39.6 12.15 36.85 L11.35 36.1 11.35 35.95 11.3 35.15 11.25 34.2 Q6.8 33.0 2.7 31.05 2.35 30.9 2.5 30.45 L2.85 29.9 3.1 29.8 3.55 29.65 3.7 29.6 3.75 29.55 4.75 29.75 11.45 31.65 12.45 35.65 15.45 36.65 16.9 35.25 17.95 35.0 21.15 37.4 Q20.25 38.3 20.25 39.3 L20.35 39.9" fill="#4e0364" fill-rule="evenodd" stroke="none"/>
    <path d="M50.2 22.65 L52.1 22.6 52.4 22.6" fill="none" stroke="#9c0101" stroke-linecap="round" stroke-linejoin="round" stroke-width="1.0"/>
    <path d="M26.6 20.75 L32.15 20.5 Q40.4 20.5 46.25 22.55 L47.15 22.9 47.35 22.85 M55.7 22.75 Q60.95 23.2 64.95 24.95 70.3 27.35 70.3 30.75 70.3 34.15 64.95 36.5 60.25 38.6 53.85 38.9 55.25 40.15 55.25 41.6 55.25 44.95 47.8 47.3 40.4 49.65 29.9 49.65 19.4 49.65 11.95 47.3 4.55 44.95 4.55 41.6 4.55 39.0 9.0 37.0 5.65 36.8 3.1 35.8 0.0 34.55 0.0 32.8 0.0 31.1 2.85 29.9 L3.1 29.8 3.55 29.65 3.75 29.55 4.35 29.35 M11.4 28.55 L11.45 28.55 12.4 28.6 12.2 27.55 Q12.2 24.7 17.9 22.65" fill="none" stroke="#4e0364" stroke-linecap="round" stroke-linejoin="round" stroke-width="1.0"/>
    <path d="M41.45 24.4 L41.0 23.9 40.85 24.3 40.2 26.25 40.65 26.65 42.7 28.5 44.85 29.8 46.0 30.85 48.2 32.8 48.0 36.25 48.0 36.35 47.95 37.5 44.05 37.05 43.35 39.25 46.55 39.85 49.75 39.7 50.35 38.6 50.75 37.9 52.0 35.6 50.9 32.8 51.05 32.25 51.7 29.45 51.75 29.3 52.2 29.7 53.4 30.8 53.45 30.7 54.5 29.3 53.5 25.4 55.7 22.75 56.15 22.25 55.3 17.2 46.55 4.5 38.8 0.0 34.9 2.6 34.9 6.85 39.65 5.05 45.75 8.05 52.45 18.3 52.45 22.6 52.4 22.6 50.9 23.65 50.2 22.65 46.1 16.45 40.55 13.3 38.1 14.6 38.4 17.3 41.15 17.3 44.6 19.2 47.35 22.85 50.2 26.65 49.7 28.75 49.35 30.2 49.3 30.2 44.65 27.35 44.0 26.95 41.45 24.4 M4.35 29.35 L2.45 24.65 9.45 9.65 20.45 2.65 29.45 3.65 32.45 7.65 22.45 7.65 13.45 12.65 8.45 24.65 11.4 28.55 11.45 28.65 12.4 28.8 15.05 29.1 17.9 22.65 18.75 20.6 26.65 15.7 32.1 16.0 33.45 18.65 28.45 19.65 26.6 20.75 23.45 22.65 21.75 25.8 20.95 27.15 18.45 31.65 20.95 33.5 20.95 33.55 21.55 34.0 22.45 34.65 30.0 29.7 32.9 26.35 33.35 25.75 34.25 26.3 34.35 26.35 36.45 27.65 33.45 30.65 30.45 32.65 26.45 36.65 30.25 40.95 36.1 39.4 36.25 42.1 34.45 42.65 28.45 43.65 21.45 40.65 21.45 37.65 21.15 37.4 17.95 35.0 17.45 34.65 16.9 35.25 15.45 36.65 12.45 35.65 11.45 31.65 4.75 29.75 4.45 29.65 4.35 29.35 Z" fill="none" stroke="#9e8a70" stroke-linecap="round" stroke-linejoin="round" stroke-width="1.0"/>
  </g>
</svg>
