<?xml version="1.0" encoding="UTF-8" standalone="no"?>
<svg xmlns:ffdec="https://www.free-decompiler.com/flash" xmlns:xlink="http://www.w3.org/1999/xlink" ffdec:objectType="shape" height="53.0px" width="25.0px" xmlns="http://www.w3.org/2000/svg">
  <g transform="matrix(1.0, 0.0, 0.0, 1.0, 1.0, 0.0)">
    <path d="M0.0 5.2 L2.6 0.0 5.0 2.05 5.05 2.05 8.6 0.0 9.55 1.1 10.55 1.9 15.5 2.05 15.85 3.3 16.65 3.0 16.7 3.25 16.45 3.35 16.35 3.4 17.45 7.35 15.75 9.45 13.85 9.5 14.6 8.5 Q10.75 8.7 7.15 7.55 L6.65 8.1 5.85 8.75 5.05 9.2 2.95 9.15 2.7 9.1 0.65 7.05 1.45 5.35 0.0 5.2" fill="#bf8b57" fill-rule="evenodd" stroke="none"/>
    <path d="M15.75 9.45 L13.75 11.95 13.75 12.0 13.45 12.35 Q18.3 44.35 21.45 44.35 24.4 44.35 21.8 48.8 L21.85 48.8 21.75 48.95 16.75 49.95 12.95 53.0 13.05 51.05 10.6 53.0 9.1 52.0 Q12.05 50.35 12.45 47.35 12.9 44.0 8.45 15.35 L7.7 14.6 7.6 14.0 2.7 9.1 2.95 9.15 5.05 9.2 5.85 8.75 6.65 8.1 7.15 7.55 Q10.75 8.7 14.6 8.5 L13.85 9.5 15.75 9.45" fill="#feefc5" fill-rule="evenodd" stroke="none"/>
    <path d="M16.7 3.25 L16.45 3.35 16.35 3.4 17.45 7.35 M13.75 12.0 L13.45 12.35 Q18.3 44.35 21.45 44.35 24.4 44.35 21.8 48.8 L21.85 48.8 M9.1 52.0 Q12.05 50.35 12.45 47.35 12.9 44.0 8.45 15.35 L7.7 14.6 M0.65 7.05 L1.45 5.35 0.0 5.2" fill="none" stroke="#352720" stroke-linecap="round" stroke-linejoin="round" stroke-width="2.0"/>
    <path d="M15.85 3.3 L16.65 3.0 16.7 3.25 M17.45 7.35 L15.75 9.45 13.75 11.95 13.75 12.0 M21.85 48.8 L21.75 48.95 16.75 49.95 12.95 53.0" ffdec:has-small-stroke="true" ffdec:original-stroke-width="0.05" fill="none" stroke="#755347" stroke-linecap="round" stroke-linejoin="round" stroke-opacity="0.34117648" stroke-width="1.0"/>
  </g>
</svg>
