<?xml version="1.0" encoding="UTF-8" standalone="no"?>
<svg xmlns:ffdec="https://www.free-decompiler.com/flash" xmlns:xlink="http://www.w3.org/1999/xlink" ffdec:objectType="shape" height="81.35px" width="86.6px" xmlns="http://www.w3.org/2000/svg">
  <g transform="matrix(1.0, 0.0, 0.0, 1.0, -231.65, -159.8)">
    <path d="M298.75 183.35 L301.0 187.1 294.6 195.9 292.3 199.2 290.85 201.05 287.35 196.25 287.45 195.75 289.75 193.4 Q293.8 187.85 298.75 183.35 M296.0 196.35 Q296.55 197.0 296.3 198.5 L293.5 198.9 296.0 196.35 M288.2 182.0 Q295.25 177.45 303.9 172.75 L306.15 174.35 Q298.0 177.9 292.05 182.9 288.85 185.5 284.15 192.15 L283.85 192.4 281.85 193.1 279.95 193.7 277.45 193.1 277.05 192.75 279.9 189.4 Q283.8 184.9 284.4 184.45 L288.2 182.0 M269.15 212.3 L268.05 210.3 Q266.7 206.3 268.35 203.05 268.95 201.8 269.9 201.35 L270.55 201.05 270.45 201.65 Q270.1 208.45 272.25 212.0 274.45 215.45 279.2 215.75 276.35 217.25 273.25 215.85 270.6 214.65 269.15 212.3" fill="#625735" fill-rule="evenodd" stroke="none"/>
    <path d="M306.15 174.35 L308.6 176.0 Q303.25 179.2 298.75 183.35 293.8 187.85 289.75 193.4 L287.45 195.75 287.35 193.85 287.05 192.7 287.05 192.6 287.0 192.35 287.05 192.05 286.9 192.25 286.85 192.0 286.55 191.4 286.4 191.05 286.35 191.15 285.3 191.75 285.15 191.8 284.15 192.15 Q288.85 185.5 292.05 182.9 298.0 177.9 306.15 174.35 M317.45 193.75 L318.0 196.05 Q312.95 197.8 308.15 199.95 L309.15 200.4 310.55 208.05 Q302.05 207.0 294.25 209.6 L294.2 209.6 294.2 209.65 294.25 209.7 Q294.1 216.4 293.25 217.75 L288.35 204.25 292.45 200.05 292.65 201.2 292.5 201.2 292.65 201.35 292.8 203.35 293.05 203.4 294.7 203.25 Q299.15 200.7 303.8 198.65 310.4 195.7 317.45 193.75 M251.85 203.1 L251.25 203.3 249.8 201.8 Q248.35 199.1 252.3 196.1 L252.25 196.0 252.5 195.95 252.55 196.05 252.4 196.6 252.6 197.8 252.7 198.3 252.9 199.6 253.3 200.15 Q254.5 201.6 257.3 202.75 L256.25 204.35 254.8 203.7 253.85 203.35 253.6 203.3 253.55 203.15 251.9 203.1 251.85 203.1 M276.25 177.15 L278.3 177.3 273.85 187.35 270.85 194.1 270.8 194.25 269.0 195.95 268.45 196.85 268.4 196.1 266.85 196.25 276.25 177.15 M289.4 160.15 L291.35 160.25 Q284.95 172.45 280.45 186.75 L285.1 181.3 288.2 182.0 284.4 184.45 Q283.8 184.9 279.9 189.4 279.85 188.45 280.1 187.7 L280.45 186.75 280.1 187.7 Q279.85 188.45 279.9 189.4 L277.05 192.75 277.45 193.1 275.9 192.8 275.8 192.7 275.5 193.1 274.5 194.25 275.25 191.55 Q281.5 172.75 289.4 160.15 M286.4 208.0 L287.0 207.85 290.05 211.15 Q283.85 218.55 267.75 219.25 263.35 213.8 269.15 212.3 270.6 214.65 273.25 215.85 276.35 217.25 279.2 215.75 L280.3 215.1 Q283.65 212.55 285.6 209.5 L286.4 208.0 M304.25 201.7 L308.15 199.95 304.25 201.7" fill="#88794a" fill-rule="evenodd" stroke="none"/>
    <path d="M294.6 195.9 Q295.5 195.9 296.0 196.35 L293.5 198.9 292.3 199.2 292.45 200.05 288.35 204.25 293.25 217.75 291.5 220.85 286.5 221.25 289.15 225.05 Q286.5 226.3 279.55 226.35 L279.5 226.35 279.25 226.35 270.05 227.0 270.25 226.65 263.75 229.55 262.5 230.15 262.55 230.2 Q260.75 231.1 259.1 232.05 L258.85 232.3 253.8 235.3 241.8 235.65 241.05 221.95 243.95 218.25 246.4 216.95 249.3 216.85 252.35 216.4 252.65 216.6 Q253.75 217.1 255.1 216.2 256.6 215.15 257.55 213.25 L258.0 212.05 Q258.4 210.85 258.3 209.75 L258.25 208.9 264.9 196.6 263.9 196.7 263.9 196.65 268.75 187.35 274.1 177.1 276.25 177.15 266.85 196.25 268.4 196.1 268.45 196.85 Q267.75 198.35 268.55 199.8 L269.9 201.35 Q268.95 201.8 268.35 203.05 266.7 206.3 268.05 210.3 L269.15 212.3 Q263.35 213.8 267.75 219.25 283.85 218.55 290.05 211.15 L287.0 207.85 286.4 208.0 Q287.45 205.7 287.35 202.95 287.25 200.6 285.4 200.55 287.05 198.5 287.35 196.25 L290.85 201.05 292.3 199.2 294.6 195.9 M298.45 198.25 L299.7 197.7 Q308.4 193.7 316.85 192.1 L317.45 193.75 Q310.4 195.7 303.8 198.65 299.15 200.7 294.7 203.25 L293.05 203.4 292.8 203.35 292.65 201.35 292.65 201.25 295.85 199.55 298.45 198.25 M252.55 196.05 Q257.05 196.85 261.85 195.5 L257.3 202.75 Q254.5 201.6 253.3 200.15 L252.9 199.6 252.7 198.3 252.6 197.8 252.4 196.6 252.55 196.05 M273.6 190.0 L275.0 186.8 Q280.0 173.55 287.65 160.05 L289.4 160.15 Q281.5 172.75 275.25 191.55 L274.5 194.25 274.35 194.3 273.95 194.2 273.35 194.2 273.15 194.15 272.9 194.1 272.1 194.05 272.35 193.6 273.6 190.0 M266.7 222.45 L274.3 222.8 279.25 226.35 274.3 222.8 266.7 222.45 266.65 222.45 266.7 222.4 266.7 222.45 266.7 222.4 266.65 222.45 265.95 224.25 266.65 222.45 266.7 222.45 M265.15 220.45 L266.7 222.4 265.15 220.45 265.95 224.25 263.75 229.55 265.95 224.25 265.15 220.45 Q264.25 219.65 263.1 219.15 261.4 216.6 262.25 215.9 L261.45 214.85 261.6 212.55 261.45 214.85 262.25 215.9 Q261.4 216.6 263.1 219.15 264.25 219.65 265.15 220.45 M245.5 223.0 L249.8 222.15 245.25 219.65 245.5 223.0" fill="#c5b994" fill-rule="evenodd" stroke="none"/>
    <path d="M259.1 232.05 L259.1 232.15 258.85 232.3 259.1 232.05 M285.15 191.8 L285.3 191.75 286.35 191.15 286.4 191.05 286.55 191.4 286.85 192.0 286.9 192.25 287.0 192.35 287.05 192.6 287.05 192.7 287.35 193.85 287.45 195.75 287.35 196.25 Q287.05 198.5 285.4 200.55 284.2 200.5 282.4 201.35 L280.65 202.05 Q272.4 200.0 271.4 196.5 271.05 195.25 271.5 193.9 L272.1 194.05 272.55 194.2 272.9 194.1 273.15 194.15 273.35 194.2 273.45 194.3 273.6 194.25 274.35 194.3 273.6 194.25 273.35 194.2 273.95 194.2 274.35 194.3 274.4 194.35 274.5 194.25 279.6 193.8 279.95 193.7 279.6 193.8 274.5 194.25 275.5 193.1 275.9 192.85 275.9 192.8 277.45 193.1 279.95 193.7 281.85 193.1 283.85 192.4 285.15 191.8" fill="#a39550" fill-rule="evenodd" stroke="none"/>
    <path d="M296.3 198.5 L298.45 198.25 295.85 199.55 292.65 201.25 292.65 201.2 292.45 200.05 292.3 199.2 293.5 198.9 296.3 198.5 M273.85 187.35 L273.6 190.0 272.35 193.6 271.25 193.95 271.5 193.9 Q271.05 195.25 271.4 196.5 272.4 200.0 280.65 202.05 276.8 203.2 273.75 201.7 271.85 200.75 270.55 201.05 L269.9 201.35 268.55 199.8 Q267.75 198.35 268.45 196.85 L269.0 195.95 270.8 194.25 270.95 194.1 270.85 194.1 273.85 187.35 M284.15 192.15 L285.15 191.8 283.85 192.4 284.15 192.15 M286.9 192.25 L287.05 192.05 287.0 192.35 286.9 192.25 M275.5 193.1 L275.8 192.7 275.9 192.8 275.5 193.1 M294.2 209.65 L294.2 209.6 294.25 209.6 294.2 209.65" fill="#7a6d3b" fill-rule="evenodd" stroke="none"/>
    <path d="M253.25 209.25 Q250.45 207.2 251.85 203.1 L251.9 203.1 253.55 203.15 253.6 203.3 253.85 203.35 254.8 203.7 256.25 204.35 254.35 207.4 254.4 207.75 253.65 208.8 253.25 209.25 M280.65 202.05 L282.4 201.35 Q284.2 200.5 285.4 200.55 287.25 200.6 287.35 202.95 287.45 205.7 286.4 208.0 L285.6 209.5 Q283.65 212.55 280.3 215.1 L279.2 215.75 Q274.45 215.45 272.25 212.0 270.1 208.45 270.45 201.65 L270.55 201.05 Q271.85 200.75 273.75 201.7 276.8 203.2 280.65 202.05" fill="#3d3621" fill-rule="evenodd" stroke="none"/>
    <path d="M274.5 194.25 L274.4 194.35 274.35 194.3 274.5 194.25 M273.6 194.25 L273.45 194.3 273.35 194.2 273.6 194.25 M272.9 194.1 L272.55 194.2 272.1 194.05 272.9 194.1 M292.65 201.35 L292.5 201.2 292.65 201.2 292.65 201.25 292.65 201.35 M263.9 196.65 L263.9 196.7 263.85 196.7 263.9 196.65" fill="#ab9544" fill-rule="evenodd" stroke="none"/>
    <path d="M241.8 235.65 L239.1 236.15 233.25 238.35 232.45 239.0 232.0 239.25 Q231.35 228.6 235.9 218.25 238.4 215.2 243.25 214.15 L245.3 216.0 246.15 213.65 249.55 212.45 Q251.1 211.65 252.3 210.55 L253.4 209.15 253.45 209.05 253.6 208.85 253.65 208.8 254.4 207.75 254.35 207.4 256.25 204.35 257.3 202.75 261.85 195.5 268.6 185.05 268.75 187.35 263.9 196.65 263.85 196.7 263.9 196.7 264.9 196.6 258.25 208.9 258.3 209.75 Q258.4 210.85 258.0 212.05 L257.55 213.25 Q256.6 215.15 255.1 216.2 253.75 217.1 252.65 216.6 L252.35 216.4 249.3 216.85 246.4 216.95 243.95 218.25 241.05 221.95 241.8 235.65 M239.7 223.65 L240.1 219.6 236.9 224.25 239.7 223.65" fill="#dcd5be" fill-rule="evenodd" stroke="none"/>
    <path d="M294.25 209.6 L294.25 209.7 294.2 209.65 294.25 209.6 M272.1 194.05 L271.5 193.9 271.25 193.95 272.35 193.6 272.1 194.05 M270.85 194.1 L270.95 194.1 270.8 194.25 270.85 194.1 M275.9 192.8 L275.9 192.85 275.5 193.1 275.9 192.8" fill="#8f8146" fill-rule="evenodd" stroke="none"/>
    <path d="M239.7 223.65 L236.9 224.25 240.1 219.6 239.7 223.65 M245.5 223.0 L245.25 219.65 249.8 222.15 245.5 223.0" fill="#635730" fill-rule="evenodd" stroke="none"/>
    <path d="M306.15 174.35 L308.6 176.0 Q303.25 179.2 298.75 183.35 L301.0 187.1 294.6 195.9 Q295.5 195.9 296.0 196.35 296.55 197.0 296.3 198.5 L298.45 198.25 299.7 197.7 Q308.4 193.7 316.85 192.1 L317.45 193.75 318.0 196.05 Q312.95 197.8 308.15 199.95 L309.15 200.4 310.55 208.05 Q302.05 207.0 294.25 209.6 M294.25 209.7 Q294.1 216.4 293.25 217.75 L291.5 220.85 M289.15 225.05 Q286.5 226.3 279.55 226.35 L279.5 226.35 M279.25 226.35 L270.05 227.0 270.25 226.65 263.75 229.55 262.5 230.15 262.55 230.2 Q260.75 231.1 259.1 232.05 M258.85 232.3 L253.8 235.3 241.8 235.65 239.1 236.15 233.25 238.35 232.45 239.0 232.0 239.25 Q231.35 228.6 235.9 218.25 238.4 215.2 243.25 214.15 M246.15 213.65 L249.55 212.45 M251.25 203.3 L249.8 201.8 Q248.35 199.1 252.3 196.1 L252.25 196.0 252.5 195.95 252.55 196.05 Q257.05 196.85 261.85 195.5 L268.6 185.05 268.75 187.35 274.1 177.1 276.25 177.15 278.3 177.3 273.85 187.35 273.6 190.0 275.0 186.8 Q280.0 173.55 287.65 160.05 L289.4 160.15 291.35 160.25 Q284.95 172.45 280.45 186.75 L285.1 181.3 288.2 182.0 Q295.25 177.45 303.9 172.75 L306.15 174.35" ffdec:has-small-stroke="true" ffdec:original-stroke-width="0.5" fill="none" stroke="#000000" stroke-linecap="round" stroke-linejoin="round" stroke-opacity="0.6" stroke-width="1.0"/>
    <path d="M259.1 232.15 L258.85 232.3 259.1 232.05 M285.15 191.8 L285.3 191.75 286.35 191.15 286.4 191.05 286.55 191.4 286.85 192.0 286.9 192.25 287.0 192.35 287.05 192.6 287.05 192.7 287.35 193.85 287.45 195.75 289.75 193.4 Q293.8 187.85 298.75 183.35 M283.85 192.4 L281.85 193.1 279.95 193.7 279.6 193.8 274.5 194.25 274.35 194.3 273.6 194.25 273.35 194.2 273.15 194.15 272.9 194.1 272.1 194.05 271.5 193.9 M285.4 200.55 Q287.05 198.5 287.35 196.25 L287.45 195.75 M283.85 192.4 L285.15 191.8 M268.45 196.85 L268.4 196.1 M292.65 201.25 L292.65 201.2 292.5 201.2 M280.45 186.75 L280.1 187.7 Q279.85 188.45 279.9 189.4 283.8 184.9 284.4 184.45 L288.2 182.0 M270.85 194.1 L270.8 194.25 M272.1 194.05 L272.35 193.6 273.6 190.0 M277.05 192.75 L279.9 189.4 M273.85 187.35 L270.85 194.1 M263.9 196.65 L263.85 196.7 M268.75 187.35 L263.9 196.65 M308.15 199.95 L304.25 201.7 M257.3 202.75 L261.85 195.5 M257.3 202.75 L256.25 204.35" ffdec:has-small-stroke="true" ffdec:original-stroke-width="0.05" fill="none" stroke="#000000" stroke-linecap="round" stroke-linejoin="round" stroke-opacity="0.3019608" stroke-width="1.0"/>
    <path d="M279.5 226.35 L279.25 226.35 274.3 222.8 266.7 222.45 266.7 222.4 266.65 222.45 265.95 224.25 265.15 220.45 Q264.25 219.65 263.1 219.15 261.4 216.6 262.25 215.9 L261.45 214.85 261.6 212.55 M263.75 229.55 L265.95 224.25 M266.65 222.45 L266.7 222.45 M266.7 222.4 L265.15 220.45" ffdec:has-small-stroke="true" ffdec:original-stroke-width="0.5" fill="none" stroke="#aa9862" stroke-linecap="round" stroke-linejoin="round" stroke-width="1.0"/>
    <path d="M294.25 209.6 L294.25 209.7" ffdec:has-small-stroke="true" ffdec:original-stroke-width="0.05" fill="none" stroke="#000000" stroke-linecap="round" stroke-linejoin="round" stroke-opacity="0.3019608" stroke-width="1.0"/>
    <path d="M291.5 220.85 L286.5 221.25 289.15 225.05 M243.25 214.15 L245.3 216.0 246.15 213.65 M249.55 212.45 Q251.1 211.65 252.3 210.55 L253.4 209.15 253.25 209.25 Q250.45 207.2 251.85 203.1 L251.25 203.3 M256.25 204.35 L254.8 203.7 253.85 203.35 253.6 203.3 253.55 203.15 251.9 203.1 251.85 203.1 M256.25 204.35 L254.35 207.4 M254.4 207.75 L253.65 208.8 253.6 208.85 253.45 209.05 253.4 209.15 M253.25 209.25 L253.65 208.8" ffdec:has-small-stroke="true" ffdec:original-stroke-width="0.5" fill="none" stroke="#000000" stroke-linecap="round" stroke-linejoin="round" stroke-opacity="0.6" stroke-width="1.0"/>
    <path d="M267.85 240.9 Q264.75 239.85 261.45 237.1 263.15 234.2 266.6 234.25 269.5 237.75 267.85 240.9" fill="#f7f5df" fill-rule="evenodd" stroke="none"/>
    <path d="M267.85 240.9 Q264.75 239.85 261.45 237.1 263.15 234.2 266.6 234.25 269.5 237.75 267.85 240.9 Z" ffdec:has-small-stroke="true" ffdec:original-stroke-width="0.5" fill="none" stroke="#000000" stroke-linecap="round" stroke-linejoin="round" stroke-opacity="0.6" stroke-width="1.0"/>
  </g>
</svg>
