<?xml version="1.0" encoding="UTF-8" standalone="no"?>
<svg xmlns:ffdec="https://www.free-decompiler.com/flash" xmlns:xlink="http://www.w3.org/1999/xlink" ffdec:objectType="shape" height="76.8px" width="78.05px" xmlns="http://www.w3.org/2000/svg">
  <g transform="matrix(1.0, 0.0, 0.0, 1.0, -239.0, -135.65)">
    <path d="M301.4 136.45 L300.8 137.1 299.5 136.9 299.25 138.25 299.25 138.3 298.05 141.45 297.35 141.25 298.55 138.5 298.6 138.3 Q298.95 137.0 298.7 136.05 L301.4 136.45 M296.5 142.6 L297.3 143.0 294.15 147.4 291.25 150.25 290.8 150.0 286.45 154.4 286.9 154.5 280.95 160.35 280.5 160.25 277.3 163.65 278.0 163.85 274.6 167.2 274.45 167.2 273.45 166.95 Q282.7 157.3 292.15 147.95 L292.5 147.65 292.55 147.5 Q295.0 144.8 296.45 142.6 L296.5 142.6 M272.7 167.75 L274.75 168.15 271.6 171.6 270.6 171.15 263.25 179.25 264.55 179.35 258.6 185.85 257.35 185.6 252.55 191.15 250.95 191.2 Q261.55 179.35 272.5 167.9 L272.7 167.75 M241.35 197.2 L242.5 196.85 240.55 199.95 240.8 201.95 239.85 201.75 239.4 200.0 241.35 197.2 M303.75 143.5 L304.1 144.95 301.6 145.9 300.55 145.3 300.1 143.95 303.85 139.95 306.85 139.8 307.0 141.65 303.35 141.95 301.45 143.8 301.75 144.55 303.25 144.25 303.1 143.7 303.75 143.5 M309.55 142.55 L308.2 141.8 309.2 140.75 310.7 141.4 309.55 142.55 M280.6 161.35 L281.0 160.85 281.7 161.3 280.05 162.9 279.15 162.6 280.6 161.35 M264.25 181.05 L264.35 181.1 265.15 181.55 263.7 183.2 263.05 182.6 264.25 181.05 M256.05 202.5 L253.0 203.05 250.8 201.65 249.15 199.35 251.85 197.2 251.9 197.15 254.1 199.1 253.45 199.95 252.5 199.25 252.15 199.7 253.35 200.8 255.5 198.6 257.7 200.3 256.05 202.5 M245.95 193.55 L246.8 191.5 249.65 193.15 249.65 193.2 251.5 192.4 249.9 194.3 248.3 194.8 245.95 193.55" fill="#f0e3d0" fill-rule="evenodd" stroke="none"/>
    <path d="M301.75 137.85 L300.25 137.9 298.55 142.6 295.95 146.65 291.8 150.9 291.75 151.75 295.2 148.9 297.9 147.4 300.4 149.25 305.1 148.6 307.1 146.2 305.5 144.05 304.75 144.45 305.0 146.15 304.15 147.05 303.65 147.5 300.85 147.35 299.0 146.0 298.85 145.9 298.55 145.7 298.85 144.15 299.15 143.8 302.0 141.1 304.85 138.3 314.0 141.4 316.65 146.0 315.6 149.35 311.1 152.25 Q306.05 151.6 303.5 153.25 L303.5 152.35 306.95 151.15 311.35 151.2 311.8 150.85 313.1 149.95 313.15 149.9 314.9 148.65 315.2 147.4 315.7 145.4 314.25 142.9 313.45 142.3 312.15 142.6 313.4 143.0 314.35 145.0 313.1 146.75 310.25 149.0 307.4 148.95 307.1 149.15 304.3 150.25 301.85 152.25 288.9 167.8 288.95 168.05 289.1 168.5 287.65 168.1 296.45 156.9 296.35 156.95 297.85 155.15 299.0 153.75 299.45 151.6 296.7 151.9 293.0 153.8 293.4 154.4 288.55 158.55 288.9 159.55 281.9 166.5 281.2 165.6 272.75 174.3 272.8 174.45 273.05 174.9 262.05 187.2 262.85 187.6 262.95 187.65 264.35 186.15 265.35 186.35 261.45 191.05 257.7 194.4 255.25 194.9 256.5 192.05 259.3 188.25 257.0 190.85 251.95 194.3 248.75 195.6 250.15 196.55 249.4 197.3 250.15 196.55 251.7 195.05 254.9 197.5 256.1 198.5 255.0 195.15 254.65 195.0 255.25 194.9 255.1 195.2 257.55 196.3 257.8 196.4 258.8 197.0 260.45 197.9 272.6 185.05 274.05 185.25 261.25 198.55 259.9 203.45 251.1 206.55 247.8 202.3 247.8 201.05 246.65 201.3 246.35 202.45 246.9 205.65 245.65 202.95 245.55 202.75 245.6 201.1 247.85 198.85 249.4 197.3 245.45 194.85 243.1 197.7 241.95 200.25 243.2 201.5 243.3 201.55 241.9 202.15 240.8 201.95 240.55 199.95 242.5 196.85 241.35 197.2 246.15 190.35 250.1 192.15 250.65 191.55 250.95 191.2 252.55 191.15 257.35 185.6 258.6 185.85 264.55 179.35 263.25 179.25 270.6 171.15 271.6 171.6 274.75 168.15 272.7 167.75 273.45 166.95 274.45 167.2 274.6 167.2 278.0 163.85 277.3 163.65 280.5 160.25 280.95 160.35 286.9 154.5 286.45 154.4 290.8 150.0 291.25 150.25 294.15 147.4 297.3 143.0 296.5 142.6 297.3 141.35 297.35 141.25 298.05 141.45 299.25 138.3 299.25 138.25 299.5 136.9 300.8 137.1 301.4 136.45 301.65 136.5 301.75 137.85 M303.75 143.5 L303.1 143.7 303.25 144.25 301.75 144.55 301.45 143.8 303.35 141.95 307.0 141.65 306.85 139.8 303.85 139.95 300.1 143.95 300.55 145.3 301.6 145.9 304.1 144.95 303.75 143.5 M309.55 142.55 L310.7 141.4 309.2 140.75 308.2 141.8 309.55 142.55 M286.1 158.65 L281.9 162.4 282.7 162.85 282.75 162.8 286.95 159.05 286.1 158.65 M280.6 161.35 L279.15 162.6 280.05 162.9 281.7 161.3 281.0 160.85 280.6 161.35 M268.4 178.9 L271.7 175.25 271.05 174.3 267.95 178.2 268.4 178.9 M264.25 181.05 L263.05 182.6 263.7 183.2 265.15 181.55 264.35 181.1 264.25 181.05 M256.05 202.5 L257.7 200.3 255.5 198.6 253.35 200.8 252.15 199.7 252.5 199.25 253.45 199.95 254.1 199.1 251.9 197.15 251.85 197.2 249.15 199.35 250.8 201.65 253.0 203.05 256.05 202.5 M245.95 193.55 L248.3 194.8 249.9 194.3 251.5 192.4 249.65 193.2 249.65 193.15 246.8 191.5 245.95 193.55" fill="#e8d7bf" fill-rule="evenodd" stroke="none"/>
    <path d="M304.15 147.05 L305.0 146.15 304.75 144.45 305.5 144.05 307.1 146.2 305.1 148.6 300.4 149.25 297.9 147.4 295.2 148.9 291.75 151.75 291.8 150.9 295.95 146.65 298.55 142.6 300.25 137.9 301.75 137.85 301.95 140.35 301.95 140.4 299.85 141.1 299.15 143.8 298.85 144.15 298.55 145.7 298.85 145.9 299.0 146.0 298.95 146.95 301.1 148.35 304.4 148.25 304.15 147.05" fill="#c8b680" fill-rule="evenodd" stroke="none"/>
    <path d="M304.15 147.05 L304.4 148.25 301.1 148.35 298.95 146.95 299.0 146.0 300.85 147.35 303.65 147.5 304.15 147.05 M299.15 143.8 L299.85 141.1 301.95 140.4 302.0 141.1 299.15 143.8" fill="#b89c72" fill-rule="evenodd" stroke="none"/>
    <path d="M243.3 201.55 L243.2 201.5 241.95 200.25 243.1 197.7 245.45 194.85 249.4 197.3 247.85 198.85 247.45 198.35 247.4 198.25 243.8 199.85 243.5 201.6 243.3 201.55 M250.15 196.55 L248.75 195.6 251.95 194.3 257.0 190.85 259.3 188.25 256.5 192.05 255.25 194.9 254.65 195.0 255.0 195.15 256.1 198.5 254.9 197.5 251.7 195.05 250.15 196.55 M288.95 168.05 L288.9 167.8 301.85 152.25 304.3 150.25 307.1 149.15 307.4 148.95 310.25 149.0 313.1 146.75 314.35 145.0 313.4 143.0 312.15 142.6 313.45 142.3 314.25 142.9 315.7 145.4 315.2 147.4 314.3 147.15 312.6 148.8 312.65 148.95 313.15 149.9 313.1 149.95 311.8 150.85 311.25 149.6 307.0 149.95 303.2 151.8 288.95 168.05 M286.1 158.65 L286.95 159.05 282.75 162.8 282.7 162.85 281.9 162.4 286.1 158.65 M274.05 185.25 L275.15 185.35 262.55 198.95 262.3 201.55 261.55 200.4 260.45 204.65 252.55 208.15 252.75 211.55 251.9 211.95 251.35 208.4 250.45 208.5 250.35 208.5 249.8 211.65 249.7 211.65 246.9 205.65 246.35 202.45 246.65 201.3 247.8 201.05 247.8 202.3 251.1 206.55 259.9 203.45 261.25 198.55 274.05 185.25" fill="#decca9" fill-rule="evenodd" stroke="none"/>
    <path d="M241.9 202.15 L243.3 201.55 243.5 201.6 243.8 199.85 247.4 198.25 247.45 198.35 247.85 198.85 245.6 201.1 245.55 202.75 245.65 202.95 241.9 202.15 M297.85 155.15 L296.35 156.95 Q290.7 161.25 285.35 166.2 L285.15 164.9 291.35 159.45 291.05 158.6 291.05 158.55 295.9 155.4 297.85 155.15 M289.1 168.5 L288.95 168.05 303.2 151.8 307.0 149.95 311.25 149.6 311.8 150.85 311.35 151.2 306.95 151.15 303.5 152.35 303.5 153.25 Q302.55 153.85 301.95 154.75 L289.65 168.65 289.1 168.5 M315.2 147.4 L314.9 148.65 313.15 149.9 312.65 148.95 312.6 148.8 314.3 147.15 315.2 147.4 M273.3 178.5 L272.75 177.55 274.4 176.05 274.25 175.45 280.8 168.2 281.0 168.75 282.45 167.6 282.6 168.75 Q278.5 172.7 274.6 177.0 L273.3 178.5 M271.15 180.2 L266.8 184.75 266.6 183.85 271.0 179.15 271.15 180.2 M262.3 201.55 L261.75 207.5 252.75 211.55 252.55 208.15 260.45 204.65 261.55 200.4 262.3 201.55 M251.9 211.95 L251.8 212.0 251.65 212.05 249.8 211.65 250.35 208.5 250.45 208.5 251.35 208.4 251.9 211.95" fill="#bba779" fill-rule="evenodd" stroke="none"/>
    <path d="M255.25 194.9 L257.7 194.4 261.45 191.05 265.35 186.35 264.35 186.15 262.95 187.65 262.85 187.6 262.05 187.2 273.05 174.9 272.8 174.45 272.75 174.3 281.2 165.6 281.9 166.5 288.9 159.55 288.55 158.55 293.4 154.4 293.0 153.8 296.7 151.9 299.45 151.6 299.0 153.75 297.85 155.15 295.9 155.4 291.05 158.55 291.05 158.6 291.35 159.45 285.15 164.9 285.35 166.2 282.6 168.75 282.45 167.6 281.0 168.75 280.8 168.2 274.25 175.45 274.4 176.05 272.75 177.55 273.3 178.5 273.25 178.55 Q265.7 187.05 258.8 197.0 L257.8 196.4 257.55 196.3 255.1 195.2 255.25 194.9 M271.15 180.2 L271.0 179.15 266.6 183.85 266.8 184.75 271.15 180.2" fill="#dac59e" fill-rule="evenodd" stroke="none"/>
    <path d="M268.4 178.9 L267.95 178.2 271.05 174.3 271.7 175.25 268.4 178.9" fill="#dec4a9" fill-rule="evenodd" stroke="none"/>
    <path d="M301.95 140.35 L301.75 137.85 301.65 136.5 M297.3 141.35 L296.5 142.6 M273.45 166.95 L272.7 167.75 M250.65 191.55 L250.1 192.15 246.15 190.35 241.35 197.2 239.4 200.0 239.85 201.75 240.8 201.95 241.9 202.15 245.65 202.95 246.9 205.65 249.7 211.65 249.8 211.65 251.65 212.05 251.8 212.0 M296.35 156.95 L296.45 156.9 287.65 168.1 289.1 168.5 289.65 168.65 301.95 154.75 Q302.55 153.85 303.5 153.25 306.05 151.6 311.1 152.25 L315.6 149.35 316.65 146.0 314.0 141.4 304.85 138.3 302.0 141.1 M301.4 136.45 L298.7 136.05 Q298.95 137.0 298.6 138.3 M298.55 138.5 L297.35 141.25 M285.35 166.2 Q290.7 161.25 296.35 156.95 M273.45 166.95 Q282.7 157.3 292.15 147.95 L292.5 147.65 292.55 147.5 Q295.0 144.8 296.45 142.6 M282.6 168.75 L285.35 166.2 M282.6 168.75 Q278.5 172.7 274.6 177.0 L273.3 178.5 M273.25 178.55 Q265.7 187.05 258.8 197.0 L260.45 197.9 272.6 185.05 274.05 185.25 275.15 185.35 262.55 198.95 262.3 201.55 261.75 207.5 252.75 211.55 251.9 211.95 M250.95 191.2 Q261.55 179.35 272.5 167.9" ffdec:has-small-stroke="true" ffdec:original-stroke-width="0.8" fill="none" stroke="#000000" stroke-linecap="round" stroke-linejoin="round" stroke-opacity="0.3019608" stroke-width="1.0"/>
    <path d="M298.85 145.9 L298.55 145.7 298.85 144.15 299.15 143.8 302.0 141.1 301.95 140.4 M249.4 197.3 L250.15 196.55 248.75 195.6 M303.65 147.5 L300.85 147.35 299.0 146.0 M257.55 196.3 L257.8 196.4 258.8 197.0 M247.85 198.85 L249.4 197.3 M247.85 198.85 L245.6 201.1 245.55 202.75 245.65 202.95 M250.15 196.55 L251.7 195.05 254.9 197.5" ffdec:has-small-stroke="true" ffdec:original-stroke-width="0.3" fill="none" stroke="#000000" stroke-linecap="round" stroke-linejoin="round" stroke-opacity="0.15294118" stroke-width="1.0"/>
  </g>
</svg>
