<?xml version="1.0" encoding="UTF-8" standalone="no"?>
<svg xmlns:ffdec="https://www.free-decompiler.com/flash" xmlns:xlink="http://www.w3.org/1999/xlink" ffdec:objectType="shape" height="51.45px" width="67.95px" xmlns="http://www.w3.org/2000/svg">
  <g transform="matrix(1.0, 0.0, 0.0, 1.0, -241.15, -170.1)">
    <path d="M260.45 171.1 Q261.3 173.0 259.35 182.25 L259.35 182.35 259.25 182.9 258.4 186.65 258.35 186.75 Q257.8 189.1 256.05 194.45 L256.1 194.45 260.55 196.75 262.2 197.6 262.75 197.9 Q267.65 200.15 269.45 200.4 269.6 200.95 269.75 200.55 L269.75 200.35 Q277.4 198.2 283.85 195.45 284.8 195.05 285.7 194.7 L289.35 193.3 289.4 193.3 291.25 192.6 291.3 192.6 Q297.95 190.15 300.85 191.1 305.1 192.5 307.2 197.45 308.85 201.35 308.55 204.65 282.45 215.4 275.8 214.4 268.55 213.25 259.45 206.85 250.95 200.85 249.3 196.75 246.8 190.5 250.05 183.1 251.65 179.5 254.35 176.05 L254.0 175.7 Q257.85 171.65 259.05 170.9 L260.45 171.1 M256.1 197.0 Q255.75 195.85 256.05 194.55 L256.05 194.45 256.05 194.55 Q255.75 195.85 256.1 197.0 M296.5 197.8 Q295.35 197.3 293.75 197.3 L291.0 197.8 290.3 198.2 Q289.85 198.55 289.85 199.0 289.85 199.7 291.0 200.2 L293.75 200.7 293.85 200.7 296.5 200.2 Q297.65 199.7 297.65 199.0 297.65 198.3 296.5 197.8 M300.7 201.25 L301.2 200.85 300.7 200.45 299.55 200.3 298.35 200.45 Q297.9 200.6 297.9 200.85 L298.35 201.25 299.55 201.4 300.7 201.25" fill="#505140" fill-rule="evenodd" stroke="none"/>
    <path d="M259.05 170.9 Q259.9 170.3 260.35 170.9 L260.45 171.1 259.05 170.9 M269.45 200.4 L269.55 200.4 269.75 200.35 269.75 200.55 Q269.6 200.95 269.45 200.4" fill="#ece9d8" fill-rule="evenodd" stroke="none"/>
    <path d="M308.55 204.65 Q307.6 214.5 298.75 217.65 285.9 222.3 275.85 220.6 269.7 219.75 260.9 215.95 247.35 210.05 243.15 201.65 240.25 195.85 242.9 189.7 244.45 186.05 248.9 181.1 L248.95 181.0 250.75 179.05 252.0 177.75 252.1 177.65 253.9 175.75 254.0 175.7 254.35 176.05 Q251.65 179.5 250.05 183.1 246.8 190.5 249.3 196.75 250.95 200.85 259.45 206.85 268.55 213.25 275.8 214.4 282.45 215.4 308.55 204.65" fill="#3c3c30" fill-rule="evenodd" stroke="none"/>
    <path d="M300.7 201.25 L299.55 201.4 298.35 201.25 297.9 200.85 Q297.9 200.6 298.35 200.45 L299.55 200.3 300.7 200.45 301.2 200.85 300.7 201.25" fill="#8c8d70" fill-rule="evenodd" stroke="none"/>
    <path d="M296.5 197.8 Q297.65 198.3 297.65 199.0 297.65 199.7 296.5 200.2 L293.85 200.7 293.75 200.7 291.0 200.2 Q289.85 199.7 289.85 199.0 289.85 198.55 290.3 198.2 L291.0 197.8 293.75 197.3 Q295.35 197.3 296.5 197.8" fill="#86876b" fill-rule="evenodd" stroke="none"/>
    <path d="M256.05 194.45 L256.05 194.55 Q255.75 195.85 256.1 197.0" fill="none" stroke="#383021" stroke-linecap="round" stroke-linejoin="round" stroke-width="1.0"/>
    <path d="M262.2 197.6 L262.75 197.9" fill="none" stroke="#383021" stroke-linecap="round" stroke-linejoin="round" stroke-width="1.0"/>
    <path d="M269.75 200.35 L269.75 200.55" ffdec:has-small-stroke="true" ffdec:original-stroke-width="0.25" fill="none" stroke="#383021" stroke-linecap="round" stroke-linejoin="round" stroke-width="1.0"/>
    <path d="M259.05 170.9 Q259.9 170.3 260.35 170.9 L260.45 171.1 Q261.3 173.0 259.35 182.25 L259.35 182.35 259.25 182.9 258.4 186.65 258.35 186.75 Q257.8 189.1 256.05 194.45 M269.45 200.4 L269.55 200.4 269.75 200.35 Q277.4 198.2 283.85 195.45 284.8 195.05 285.7 194.7 L289.35 193.3 289.4 193.3 291.25 192.6 291.3 192.6 Q297.95 190.15 300.85 191.1 305.1 192.5 307.2 197.45 308.85 201.35 308.55 204.65 307.6 214.5 298.75 217.65 285.9 222.3 275.85 220.6 269.7 219.75 260.9 215.95 247.35 210.05 243.15 201.65 240.25 195.85 242.9 189.7 244.45 186.05 248.9 181.1 L248.95 181.0 250.75 179.05 252.0 177.75 252.1 177.65 253.9 175.75 254.0 175.7 Q257.85 171.65 259.05 170.9" fill="none" stroke="#383021" stroke-linecap="round" stroke-linejoin="round" stroke-width="1.0"/>
    <path d="M256.05 194.45 L256.1 194.45 260.55 196.75 262.2 197.6" fill="none" stroke="#383021" stroke-linecap="round" stroke-linejoin="round" stroke-width="1.0"/>
    <path d="M262.75 197.9 Q267.65 200.15 269.45 200.4" fill="none" stroke="#383021" stroke-linecap="round" stroke-linejoin="round" stroke-width="1.0"/>
  </g>
</svg>
