<?xml version="1.0" encoding="UTF-8" standalone="no"?>
<svg xmlns:ffdec="https://www.free-decompiler.com/flash" xmlns:xlink="http://www.w3.org/1999/xlink" ffdec:objectType="shape" height="60.3px" width="67.9px" xmlns="http://www.w3.org/2000/svg">
  <g transform="matrix(1.0, 0.0, 0.0, 1.0, -241.45, -170.1)">
    <path d="M269.4 200.4 L269.5 200.4 269.7 200.35 269.7 200.55 269.65 201.05 269.4 200.4 M244.65 206.5 L244.6 206.4 244.85 206.7 244.8 206.7 244.65 206.5 244.8 206.7 244.7 206.7 244.7 206.65 244.65 206.5" fill="#f8f7e6" fill-rule="evenodd" stroke="none"/>
    <path d="M242.0 191.5 L242.3 191.15 242.1 191.0 242.15 190.85 Q242.8 188.35 246.45 183.9 247.5 182.55 248.85 181.1 L248.9 181.0 250.05 179.8 250.7 179.05 251.95 177.75 252.05 177.65 253.2 176.4 253.85 175.75 253.95 175.7 Q257.8 171.65 259.0 170.9 259.85 170.3 260.3 170.9 L260.4 171.1 Q256.75 174.1 254.25 176.9 255.2 178.95 257.55 181.0 L257.3 181.3 Q254.2 178.25 253.85 177.35 L253.2 176.4 253.85 177.35 252.8 178.6 Q254.55 180.35 257.3 181.3 L257.9 181.3 258.55 181.8 255.5 180.85 252.55 179.2 249.95 182.4 248.85 181.1 249.95 182.4 Q253.25 185.95 258.3 186.75 252.9 186.3 249.65 182.85 L249.55 182.7 249.65 182.85 Q249.3 183.25 249.55 182.7 L246.45 183.9 249.55 182.7 Q246.05 189.2 245.9 193.5 250.0 195.5 254.6 194.8 248.75 196.05 245.95 194.4 L242.0 194.4 245.95 194.4 Q245.9 195.3 246.0 195.95 247.85 201.05 251.0 204.7 255.85 203.3 260.35 199.85 259.5 204.3 255.95 207.25 L254.75 208.2 Q257.6 210.3 261.15 211.6 L266.4 213.0 Q269.8 209.75 269.45 201.1 L269.65 201.05 Q270.2 209.2 267.5 213.25 L275.65 214.1 Q273.95 207.55 269.9 200.95 273.55 207.2 275.35 211.25 L276.25 214.1 284.4 213.5 Q287.8 205.4 280.45 196.95 L280.45 196.9 280.7 196.7 Q287.35 201.55 286.25 213.1 292.4 211.8 298.4 208.8 296.95 199.75 290.2 194.05 297.55 200.0 299.3 208.35 L304.15 205.45 Q304.2 201.8 302.4 198.75 300.75 195.95 297.65 193.7 L291.25 192.6 296.9 193.2 297.8 193.45 297.85 193.45 298.25 193.7 298.3 193.55 300.75 194.45 Q304.95 196.2 308.65 199.75 L308.5 199.95 Q303.4 195.9 298.25 193.7 L300.75 195.85 Q301.85 197.05 302.75 198.5 304.4 201.15 305.25 204.7 L308.8 201.4 308.85 201.3 Q309.1 207.7 306.2 211.95 L306.2 212.05 306.2 226.5 Q304.9 226.55 304.85 224.5 L304.3 226.45 303.3 225.15 Q303.55 225.5 303.1 226.7 L302.75 225.95 Q302.35 225.35 302.2 226.05 L302.1 227.1 302.15 230.3 301.55 227.55 300.95 228.55 300.95 227.85 300.95 227.7 299.85 228.8 299.75 215.8 292.9 217.7 284.7 219.65 282.55 220.05 282.5 220.05 278.6 220.7 275.8 220.6 Q271.55 220.0 262.9 217.2 L262.75 216.6 261.8 216.85 249.0 211.4 248.9 211.35 248.85 211.35 Q246.25 209.8 244.75 206.85 L244.9 206.8 244.75 206.8 244.7 206.75 244.7 206.7 244.8 206.7 244.85 206.7 244.6 206.4 244.0 204.8 243.1 201.65 Q242.15 197.5 242.0 194.4 L242.0 191.5 M242.3 191.15 Q244.05 192.6 245.9 193.5 244.05 192.6 242.3 191.15 M253.85 175.75 L254.25 176.9 253.85 175.75 M252.8 178.6 L251.95 177.75 252.8 178.6 M250.05 179.8 L252.55 179.2 250.05 179.8 M284.4 214.7 L284.4 213.5 284.4 214.7 M284.7 219.65 Q285.8 216.15 286.25 213.1 285.8 216.15 284.7 219.65 M299.75 215.8 Q300.0 211.85 299.3 208.35 300.0 211.85 299.75 215.8 M306.2 211.95 Q306.05 207.95 305.25 204.7 306.05 207.95 306.2 211.95 M275.8 220.6 Q276.7 217.1 276.25 214.1 276.7 217.1 275.8 220.6 M254.2 207.75 Q259.1 204.25 260.35 199.85 256.35 203.45 251.5 205.25 252.75 206.6 254.2 207.75 M251.5 205.25 Q248.35 206.35 244.9 206.8 248.35 206.35 251.5 205.25 M267.5 213.25 Q265.75 215.75 262.75 216.6 265.75 215.75 267.5 213.25 M249.0 211.4 Q252.45 209.75 254.75 208.2 252.45 209.75 249.0 211.4" fill="#bab9ac" fill-rule="evenodd" stroke="none"/>
    <path d="M245.95 194.4 Q248.75 196.05 254.6 194.8 250.0 195.5 245.9 193.5 246.05 189.2 249.55 182.7 249.3 183.25 249.65 182.85 252.9 186.3 258.3 186.75 253.25 185.95 249.95 182.4 L252.55 179.2 255.5 180.85 258.55 181.8 257.9 181.3 257.3 181.3 257.55 181.0 Q255.2 178.95 254.25 176.9 256.75 174.1 260.4 171.1 261.25 173.0 259.3 182.25 L259.25 182.35 258.55 181.8 259.25 182.35 259.3 182.35 259.2 182.9 258.35 186.65 258.3 186.75 256.0 194.45 256.0 194.55 254.6 194.8 256.0 194.55 256.05 194.45 260.5 196.75 262.15 197.6 262.7 197.9 Q267.6 200.15 269.4 200.4 L269.65 201.05 269.9 200.95 269.75 200.65 269.7 200.55 269.7 200.35 Q274.65 198.95 280.35 196.8 L280.7 196.7 280.75 196.65 283.8 195.45 285.65 194.7 289.3 193.3 289.35 193.3 Q290.3 192.9 291.2 192.6 L291.25 192.6 Q296.95 190.5 298.45 190.55 299.6 190.6 300.8 191.1 302.95 191.95 305.15 194.15 308.05 197.0 308.7 199.75 L308.65 199.75 Q304.95 196.2 300.75 194.45 L298.3 193.55 297.85 193.45 298.3 193.55 298.25 193.7 Q303.4 195.9 308.5 199.95 L308.65 199.75 308.7 200.1 308.85 201.3 308.8 201.4 308.7 200.1 308.5 199.95 308.7 200.1 308.8 201.4 305.25 204.7 Q304.4 201.15 302.75 198.5 301.85 197.05 300.75 195.85 L298.25 193.7 297.85 193.45 297.8 193.45 296.9 193.2 291.25 192.6 297.65 193.7 Q300.75 195.95 302.4 198.75 304.2 201.8 304.15 205.45 L299.3 208.35 Q297.55 200.0 290.2 194.05 L289.3 193.35 290.2 194.05 Q296.95 199.75 298.4 208.8 292.4 211.8 286.25 213.1 287.35 201.55 280.7 196.7 L280.45 196.9 280.45 196.95 Q287.8 205.4 284.4 213.5 L276.25 214.1 275.35 211.25 Q273.55 207.2 269.9 200.95 273.95 207.55 275.65 214.1 L267.5 213.25 Q270.2 209.2 269.65 201.05 L269.45 201.1 Q269.8 209.75 266.4 213.0 L261.15 211.6 Q257.6 210.3 254.75 208.2 L255.95 207.25 Q259.5 204.3 260.35 199.85 259.1 204.25 254.2 207.75 252.75 206.6 251.5 205.25 256.35 203.45 260.35 199.85 255.85 203.3 251.0 204.7 247.85 201.05 246.0 195.95 245.9 195.3 245.95 194.4 M253.85 177.35 Q254.2 178.25 257.3 181.3 254.55 180.35 252.8 178.6 L253.85 177.35 M257.55 181.0 L257.9 181.3 257.55 181.0 M256.05 197.0 Q255.8 196.15 256.0 194.55 255.8 196.15 256.05 197.0 M280.45 196.9 L280.35 196.8 280.45 196.9 M289.3 193.3 L289.3 193.35 289.3 193.3 290.2 194.05 289.3 193.3 M269.45 201.1 L269.4 200.4 269.45 201.1 M260.5 196.75 L260.35 199.85 260.5 196.75" fill="#fffddf" fill-rule="evenodd" stroke="none"/>
    <path d="M242.3 191.15 L242.1 191.0 M254.6 194.8 Q250.0 195.5 245.9 193.5 244.05 192.6 242.3 191.15 M306.2 211.95 L306.2 212.05 M257.55 181.0 Q255.2 178.95 254.25 176.9 L253.85 175.75 M257.3 181.3 L257.9 181.3 257.55 181.0 M252.8 178.6 Q254.55 180.35 257.3 181.3 M251.95 177.75 L252.8 178.6 M248.85 181.1 L249.95 182.4 Q253.25 185.95 258.3 186.75 M291.2 192.6 L291.25 192.6 296.9 193.2 297.8 193.45 297.85 193.45 298.3 193.55 300.75 194.45 Q304.95 196.2 308.65 199.75 L308.7 200.1 308.8 201.4 M289.3 193.3 L289.3 193.35 290.2 194.05 Q297.55 200.0 299.3 208.35 300.0 211.85 299.75 215.8 M286.25 213.1 Q285.8 216.15 284.7 219.65 M305.25 204.7 Q304.4 201.15 302.75 198.5 301.85 197.05 300.75 195.85 L298.25 193.7 M305.25 204.7 Q306.05 207.95 306.2 211.95 M269.7 200.55 L269.75 200.65 269.9 200.95 Q273.55 207.2 275.35 211.25 L276.25 214.1 Q276.7 217.1 275.8 220.6 M269.65 201.05 Q270.2 209.2 267.5 213.25 265.75 215.75 262.75 216.6 L261.8 216.85 M260.35 199.85 Q259.5 204.3 255.95 207.25 L254.75 208.2 Q252.45 209.75 249.0 211.4 M260.35 199.85 Q256.35 203.45 251.5 205.25 248.35 206.35 244.9 206.8 L244.75 206.8 M260.35 199.85 L260.5 196.75 M280.7 196.7 Q287.35 201.55 286.25 213.1" ffdec:has-small-stroke="true" ffdec:original-stroke-width="0.25" fill="none" stroke="#9c9b98" stroke-linecap="round" stroke-linejoin="round" stroke-width="1.0"/>
    <path d="M259.25 182.35 L259.3 182.35 M258.55 181.8 L259.25 182.35 M258.55 181.8 L257.9 181.3 M269.7 200.35 L269.7 200.55 269.65 201.05 269.4 200.4 M244.8 206.7 L244.85 206.7 M244.7 206.7 L244.8 206.7" ffdec:has-small-stroke="true" ffdec:original-stroke-width="0.25" fill="none" stroke="#9c9b98" stroke-linecap="round" stroke-linejoin="round" stroke-width="1.0"/>
    <path d="M256.0 194.55 Q255.8 196.15 256.05 197.0 M256.0 194.55 L256.0 194.45" fill="none" stroke="#666666" stroke-linecap="round" stroke-linejoin="round" stroke-width="1.0"/>
    <path d="M262.15 197.6 L262.7 197.9 M282.55 220.05 L282.5 220.05" fill="none" stroke="#666666" stroke-linecap="round" stroke-linejoin="round" stroke-width="1.0"/>
    <path d="M299.85 228.8 L299.75 215.8" ffdec:has-small-stroke="true" ffdec:original-stroke-width="0.5" fill="none" stroke="#666666" stroke-linecap="round" stroke-linejoin="round" stroke-width="1.0"/>
    <path d="M306.2 212.05 L306.2 226.5" ffdec:has-small-stroke="true" ffdec:original-stroke-width="0.5" fill="none" stroke="#666666" stroke-linecap="round" stroke-linejoin="round" stroke-width="1.0"/>
    <path d="M306.2 226.5 Q304.9 226.55 304.85 224.5 L304.3 226.45 303.3 225.15 Q303.55 225.5 303.1 226.7 L302.75 225.95 Q302.35 225.35 302.2 226.05 L302.1 227.1 302.15 230.3 301.55 227.55 300.95 228.55 300.95 227.85 300.95 227.7" ffdec:has-small-stroke="true" ffdec:original-stroke-width="0.25" fill="none" stroke="#666666" stroke-linecap="round" stroke-linejoin="round" stroke-width="1.0"/>
    <path d="M300.95 227.85 Q300.3 228.8 299.85 228.8" ffdec:has-small-stroke="true" ffdec:original-stroke-width="0.25" fill="none" stroke="#666666" stroke-linecap="round" stroke-linejoin="round" stroke-width="1.0"/>
    <path d="M242.0 194.4 L245.95 194.4 Q248.75 196.05 254.6 194.8 L256.0 194.55 M253.2 176.4 L253.85 177.35 M252.55 179.2 L250.05 179.8 M249.65 182.85 L249.55 182.7 246.45 183.9 M249.65 182.85 Q252.9 186.3 258.3 186.75 M284.4 213.5 L284.4 214.7 M289.3 193.3 L290.2 194.05 Q296.95 199.75 298.4 208.8 M308.5 199.95 L308.7 200.1 M269.9 200.95 L269.75 200.65 M269.4 200.4 L269.45 201.1 Q269.8 209.75 266.4 213.0 M254.2 207.75 Q259.1 204.25 260.35 199.85 255.85 203.3 251.0 204.7" ffdec:has-small-stroke="true" ffdec:original-stroke-width="0.25" fill="none" stroke="#bab9ac" stroke-linecap="round" stroke-linejoin="round" stroke-width="1.0"/>
    <path d="M242.1 191.0 L242.0 191.5 242.0 194.4 Q242.15 197.5 243.1 201.65 L244.0 204.8 244.6 206.4 M242.1 191.0 L242.15 190.85 Q242.8 188.35 246.45 183.9 247.5 182.55 248.85 181.1 L248.9 181.0 250.05 179.8 250.7 179.05 251.95 177.75 252.05 177.65 253.2 176.4 253.85 175.75 253.95 175.7 Q257.8 171.65 259.0 170.9 259.85 170.3 260.3 170.9 L260.4 171.1 M259.3 182.25 L259.3 182.35 259.2 182.9 258.35 186.65 258.3 186.75 256.0 194.45 M256.05 194.45 L260.5 196.75 M269.7 200.35 Q274.65 198.95 280.35 196.8 L280.7 196.7 280.75 196.65 283.8 195.45 285.65 194.7 289.3 193.3 289.35 193.3 Q290.3 192.9 291.2 192.6 L291.25 192.6 Q296.95 190.5 298.45 190.55 299.6 190.6 300.8 191.1 302.95 191.95 305.15 194.15 308.05 197.0 308.7 199.75 M275.8 220.6 Q271.55 220.0 262.9 217.2" fill="none" stroke="#666666" stroke-linecap="round" stroke-linejoin="round" stroke-width="1.0"/>
    <path d="M260.5 196.75 L262.15 197.6 M284.7 219.65 L282.55 220.05" fill="none" stroke="#666666" stroke-linecap="round" stroke-linejoin="round" stroke-width="1.0"/>
    <path d="M308.85 201.3 Q309.1 207.7 306.2 211.95" fill="none" stroke="#666666" stroke-linecap="round" stroke-linejoin="round" stroke-width="1.0"/>
    <path d="M244.7 206.7 L244.0 204.8 M244.65 206.5 L244.8 206.7" ffdec:has-small-stroke="true" ffdec:original-stroke-width="0.4" fill="none" stroke="#666666" stroke-linecap="round" stroke-linejoin="round" stroke-width="1.0"/>
    <path d="M260.4 171.1 Q261.25 173.0 259.3 182.25 M256.0 194.45 L256.05 194.45 M262.7 197.9 Q267.6 200.15 269.4 200.4 L269.5 200.4 269.7 200.35 M299.75 215.8 L292.9 217.7 284.7 219.65 M282.5 220.05 L278.6 220.7 275.8 220.6 M262.9 217.2 L261.8 216.85" fill="none" stroke="#666666" stroke-linecap="round" stroke-linejoin="round" stroke-width="1.0"/>
    <path d="M308.7 199.75 L308.7 200.1 308.8 201.4" fill="none" stroke="#666666" stroke-linecap="round" stroke-linejoin="round" stroke-width="1.0"/>
    <path d="M261.8 216.85 L249.0 211.4" fill="none" stroke="#666666" stroke-linecap="round" stroke-linejoin="round" stroke-width="1.0"/>
    <path d="M249.0 211.4 L248.9 211.35 248.85 211.35 Q246.25 209.8 244.75 206.85 L244.75 206.8 244.7 206.75 244.7 206.7" fill="none" stroke="#666666" stroke-linecap="round" stroke-linejoin="round" stroke-width="1.0"/>
    <path d="M280.35 196.8 L280.45 196.9" ffdec:has-small-stroke="true" ffdec:original-stroke-width="0.25" fill="none" stroke="#bab9ac" stroke-linecap="round" stroke-linejoin="round" stroke-width="1.0"/>
    <path d="M244.85 206.7 L244.6 206.4" ffdec:has-small-stroke="true" ffdec:original-stroke-width="0.4" fill="none" stroke="#666666" stroke-linecap="round" stroke-linejoin="round" stroke-width="1.0"/>
  </g>
</svg>
