<?xml version="1.0" encoding="UTF-8" standalone="no"?>
<svg xmlns:ffdec="https://www.free-decompiler.com/flash" xmlns:xlink="http://www.w3.org/1999/xlink" ffdec:objectType="shape" height="93.6px" width="71.35px" xmlns="http://www.w3.org/2000/svg">
  <g transform="matrix(1.0, 0.0, 0.0, 1.0, -239.8, -153.15)">
    <path d="M279.55 178.0 L285.45 173.2 282.8 178.2 Q280.7 181.8 278.85 185.5 L271.5 199.05 265.6 210.45 Q262.9 215.5 260.75 221.05 L260.15 222.55 Q257.75 229.15 260.2 236.4 262.5 243.95 269.75 243.35 L266.75 246.25 Q259.4 244.95 254.65 240.6 246.45 234.45 242.85 224.95 241.25 221.0 240.65 216.9 240.0 214.3 240.65 211.0 L244.45 206.65 245.55 205.75 246.25 205.2 247.95 203.8 Q248.5 203.3 249.1 202.85 L278.7 178.7 279.5 178.05 279.55 178.0 M244.65 214.9 L265.8 195.9 279.5 178.05 265.8 195.9 244.65 214.9 M252.8 229.6 L260.75 221.05 252.8 229.6" fill="#484848" fill-rule="evenodd" stroke="none"/>
    <path d="M278.7 178.7 L279.5 178.0 279.5 178.05 278.7 178.7" fill="#a88e2d" fill-rule="evenodd" stroke="none"/>
    <path d="M286.0 172.75 L309.45 153.65 Q310.2 155.75 310.45 158.4 311.35 165.95 308.4 177.5 304.45 193.05 296.55 208.6 293.65 214.45 282.15 228.7 272.6 240.5 269.75 243.35 262.5 243.95 260.2 236.4 257.75 229.15 260.15 222.55 L260.75 221.05 Q262.9 215.5 265.6 210.45 L271.5 199.05 278.85 185.5 Q280.7 181.8 282.8 178.2 L285.45 173.2 286.0 172.75 M282.05 197.3 L265.55 214.8 265.1 216.3 260.75 221.05 265.1 216.3 265.55 214.8 282.05 197.3 M308.95 163.8 Q309.0 162.05 308.6 161.3 L308.2 160.35 285.45 204.35 297.05 191.25 294.85 198.25 292.7 204.9 289.75 213.95 Q291.0 214.05 296.9 202.8 302.8 191.6 306.4 177.7 308.85 167.9 308.95 163.8 L310.45 158.4 308.95 163.8 M279.0 226.75 L292.7 204.9 279.0 226.75 M278.05 206.55 Q272.35 214.35 265.1 216.3 272.35 214.35 278.05 206.55 M290.9 202.75 L294.85 198.25 290.9 202.75" fill="#626262" fill-rule="evenodd" stroke="none"/>
    <path d="M294.85 198.25 L297.05 191.25 285.45 204.35 308.2 160.35 308.6 161.3 Q309.0 162.05 308.95 163.8 306.0 173.95 302.8 180.6 298.65 188.9 300.4 191.9 L294.85 198.25 300.4 191.9 Q298.65 188.9 302.8 180.6 306.0 173.95 308.95 163.8 308.85 167.9 306.4 177.7 302.8 191.6 296.9 202.8 291.0 214.05 289.75 213.95 L292.7 204.9 294.85 198.25 M300.4 191.9 L292.7 204.9 300.4 191.9" fill="#b3b3b3" fill-rule="evenodd" stroke="none"/>
    <path d="M246.15 205.25 L247.9 203.8 247.95 203.8 246.25 205.2 246.15 205.25" fill="#fed370" fill-rule="evenodd" stroke="none"/>
    <path d="M270.45 244.05 L270.9 243.25 270.95 243.25 270.45 244.05" fill="#000000" fill-opacity="0.2" fill-rule="evenodd" stroke="none"/>
    <path d="M279.5 178.05 L279.5 178.0 M260.75 221.05 L265.1 216.3 265.55 214.8 282.05 197.3 M279.5 178.05 L265.8 195.9 244.65 214.9 M308.95 163.8 L310.45 158.4 M294.85 198.25 L300.4 191.9 Q298.65 188.9 302.8 180.6 306.0 173.95 308.95 163.8 M292.7 204.9 L279.0 226.75 M294.85 198.25 L290.9 202.75 M265.1 216.3 Q272.35 214.35 278.05 206.55 M260.75 221.05 L252.8 229.6 M292.7 204.9 L300.4 191.9" ffdec:has-small-stroke="true" ffdec:original-stroke-width="0.05" fill="none" stroke="#000000" stroke-linecap="round" stroke-linejoin="round" stroke-opacity="0.3019608" stroke-width="1.0"/>
    <path d="M279.5 178.0 L279.55 178.0 285.45 173.2 286.0 172.75 309.45 153.65 Q310.2 155.75 310.45 158.4 311.35 165.95 308.4 177.5 304.45 193.05 296.55 208.6 293.65 214.45 282.15 228.7 272.6 240.5 269.75 243.35 L266.75 246.25 Q259.4 244.95 254.65 240.6 246.45 234.45 242.85 224.95 241.25 221.0 240.65 216.9 240.0 214.3 240.65 211.0 L244.45 206.65 245.55 205.75 246.15 205.25 247.9 203.8 249.1 202.85 278.7 178.7 279.5 178.05 279.55 178.0 M247.95 203.8 L247.9 203.8 M246.15 205.25 L246.25 205.2" fill="none" stroke="#484848" stroke-linecap="round" stroke-linejoin="round" stroke-width="1.0"/>
  </g>
</svg>
