<?xml version="1.0" encoding="UTF-8" standalone="no"?>
<svg xmlns:ffdec="https://www.free-decompiler.com/flash" xmlns:xlink="http://www.w3.org/1999/xlink" ffdec:objectType="shape" height="98.0px" width="89.0px" xmlns="http://www.w3.org/2000/svg">
  <g transform="matrix(1.0, 0.0, 0.0, 1.0, -226.0, -145.8)">
    <path d="M232.0 159.0 L232.2 158.4 233.3 155.25 240.7 158.05 231.65 152.4 231.75 151.7 230.0 146.05 Q242.9 150.45 254.85 158.15 L263.35 164.15 266.35 166.5 277.4 187.45 312.3 224.1 Q310.75 228.5 308.45 231.6 L307.8 232.4 Q303.4 231.1 299.35 229.0 291.9 225.2 285.35 218.9 280.2 213.95 274.9 206.7 L268.7 198.15 Q264.95 193.95 260.25 187.2 L257.35 183.05 256.25 181.45 252.6 176.45 Q246.8 169.05 238.85 163.0 L236.0 160.9 232.0 159.0 M239.45 162.55 L236.0 160.9 239.45 162.55 M260.6 182.2 L257.35 183.05 260.6 182.2 M284.2 209.6 L299.05 226.6 299.35 229.0 299.05 226.6 284.2 209.6 M266.6 171.8 L254.85 158.15 266.6 171.8 M285.2 201.8 L298.2 219.8 299.05 226.6 298.2 219.8 285.2 201.8 M239.7 162.65 L252.2 169.4 239.7 162.65 M263.8 180.2 L256.25 181.45 263.8 180.2" fill="#ffc647" fill-rule="evenodd" stroke="none"/>
    <path d="M230.0 146.05 L231.75 151.7 231.65 152.4 240.7 158.05 233.3 155.25 232.2 158.4 232.0 159.0 231.1 161.6 230.3 163.95 230.0 164.15 229.95 164.15 228.9 161.6 226.55 160.4 227.5 158.35 226.25 155.4 226.35 155.05 227.9 149.65 228.95 149.4 230.0 146.05 M232.2 158.4 Q229.5 156.7 226.35 155.05 229.5 156.7 232.2 158.4" fill="#c39632" fill-rule="evenodd" stroke="none"/>
    <path d="M232.0 159.0 L236.0 160.9 238.85 163.0 235.4 164.4 231.1 161.6 235.4 164.4 238.85 163.0 Q246.8 169.05 252.6 176.45 L256.25 181.45 257.35 183.05 260.25 187.2 Q264.95 193.95 268.7 198.15 L274.9 206.7 Q280.2 213.95 285.35 218.9 291.9 225.2 299.35 229.0 L300.4 238.0 299.35 229.0 Q303.4 231.1 307.8 232.4 302.35 238.9 290.3 243.55 L287.8 236.25 286.9 233.75 Q284.2 226.75 279.35 219.2 270.25 205.15 250.8 184.8 L248.75 182.7 Q240.3 173.95 230.0 164.15 L230.3 163.95 231.1 161.6 232.0 159.0 M256.25 181.45 L248.75 182.7 256.25 181.45 M257.35 183.05 L250.8 184.8 257.35 183.05 M287.4 225.0 L287.8 236.25 287.4 225.0" fill="#cca03c" fill-rule="evenodd" stroke="none"/>
    <path d="M266.35 166.5 Q282.7 179.75 314.75 212.1 314.2 217.4 313.05 221.65 L312.3 224.1 277.4 187.45 266.35 166.5 M281.4 189.0 L313.05 221.65 281.4 189.0" fill="#fad788" fill-rule="evenodd" stroke="none"/>
    <path d="M230.0 146.05 L231.75 151.7 231.65 152.4 240.7 158.05 233.3 155.25 232.2 158.4 232.0 159.0 231.1 161.6 230.3 163.95 230.0 164.15 230.0 164.2 229.95 164.15 M226.25 155.4 L226.35 155.05" ffdec:has-small-stroke="true" ffdec:original-stroke-width="0.1" fill="none" stroke="#4a2d02" stroke-linecap="round" stroke-linejoin="round" stroke-width="1.0"/>
    <path d="M226.35 155.05 L227.9 149.65 228.95 149.4 230.0 146.05 Q242.9 150.45 254.85 158.15 L263.35 164.15 266.35 166.5 Q282.7 179.75 314.75 212.1 314.2 217.4 313.05 221.65 L312.3 224.1 Q310.75 228.5 308.45 231.6 L307.8 232.4 Q302.35 238.9 290.3 243.55 L287.8 236.25 286.9 233.75 Q284.2 226.75 279.35 219.2 270.25 205.15 250.8 184.8 L248.75 182.7 Q240.3 173.95 230.0 164.15 M229.95 164.15 L228.9 161.6 226.55 160.4 227.5 158.35 226.25 155.4" ffdec:has-small-stroke="true" ffdec:original-stroke-width="0.5" fill="none" stroke="#4a2d02" stroke-linecap="round" stroke-linejoin="round" stroke-width="1.0"/>
    <path d="M232.0 159.0 L236.0 160.9 239.45 162.55 M226.35 155.05 Q229.5 156.7 232.2 158.4 M231.1 161.6 L235.4 164.4 238.85 163.0 M248.75 182.7 L256.25 181.45 263.8 180.2 M257.35 183.05 L260.6 182.2 M299.35 229.0 L299.05 226.6 284.2 209.6 M250.8 184.8 L257.35 183.05 M254.85 158.15 L266.6 171.8 M252.2 169.4 L239.7 162.65 M299.05 226.6 L298.2 219.8 285.2 201.8 M287.8 236.25 L287.4 225.0 M300.4 238.0 L299.35 229.0 M313.05 221.65 L281.4 189.0" ffdec:has-small-stroke="true" ffdec:original-stroke-width="0.1" fill="none" stroke="#4a2d02" stroke-linecap="round" stroke-linejoin="round" stroke-opacity="0.3529412" stroke-width="1.0"/>
  </g>
</svg>
