<?xml version="1.0" encoding="UTF-8" standalone="no"?>
<svg xmlns:ffdec="https://www.free-decompiler.com/flash" xmlns:xlink="http://www.w3.org/1999/xlink" ffdec:objectType="shape" height="44.7px" width="42.6px" xmlns="http://www.w3.org/2000/svg">
  <g transform="matrix(1.0, 0.0, 0.0, 1.0, -248.95, -176.4)">
    <path d="M287.25 220.9 L286.6 221.0 Q281.4 221.0 274.45 216.9 268.45 213.3 262.25 207.3 256.65 201.9 252.8 196.55 249.0 191.25 249.05 188.9 249.0 187.95 250.7 185.8 L252.5 183.75 Q256.1 180.65 263.5 178.65 264.15 198.4 287.25 220.9" fill="url(#gradient0)" fill-rule="evenodd" stroke="none"/>
    <path d="M279.15 192.55 Q278.9 188.6 281.1 184.05 L283.35 180.3 Q280.85 191.0 285.35 203.25 283.85 202.15 282.35 200.3 279.35 196.5 279.15 192.55" fill="#ffffff" fill-rule="evenodd" stroke="none"/>
    <path d="M263.5 178.65 L266.65 177.85 275.9 176.55 281.05 176.8 Q284.3 177.3 285.4 178.5 284.7 182.0 285.4 190.6 286.1 199.1 287.5 203.75 289.0 208.85 290.6 211.8 291.45 213.4 291.45 215.05 291.45 216.65 289.7 218.85 288.3 220.5 287.25 220.9 264.15 198.4 263.5 178.65 M279.15 192.55 Q279.35 196.5 282.35 200.3 283.85 202.15 285.35 203.25 280.85 191.0 283.35 180.3 L281.1 184.05 Q278.9 188.6 279.15 192.55" fill="url(#gradient1)" fill-rule="evenodd" stroke="none"/>
    <path d="M287.25 220.9 L286.6 221.0 Q281.4 221.0 274.45 216.9 268.45 213.3 262.25 207.3 256.65 201.9 252.8 196.55 249.0 191.25 249.05 188.9 249.0 187.95 250.7 185.8 L252.5 183.75 Q256.1 180.65 263.5 178.65 L266.65 177.85 275.9 176.55 281.05 176.8 Q284.3 177.3 285.4 178.5 284.7 182.0 285.4 190.6 286.1 199.1 287.5 203.75 289.0 208.85 290.6 211.8 291.45 213.4 291.45 215.05 291.45 216.65 289.7 218.85 288.3 220.5 287.25 220.9 Z" ffdec:has-small-stroke="true" ffdec:original-stroke-width="0.2" fill="none" stroke="#351d06" stroke-linecap="round" stroke-linejoin="round" stroke-width="1.0"/>
  </g>
  <defs>
    <linearGradient gradientTransform="matrix(-0.0165, 0.0044, -0.007, -0.0261, 258.55, 167.65)" gradientUnits="userSpaceOnUse" id="gradient0" spreadMethod="pad" x1="-819.2" x2="819.2">
      <stop offset="0.4117647058823529" stop-color="#f7d9b0"/>
      <stop offset="1.0" stop-color="#c19d68"/>
    </linearGradient>
    <linearGradient gradientTransform="matrix(-0.0096, -0.0248, 0.0253, -0.0098, 270.25, 198.75)" gradientUnits="userSpaceOnUse" id="gradient1" spreadMethod="pad" x1="-819.2" x2="819.2">
      <stop offset="0.0" stop-color="#f8d6b0"/>
      <stop offset="1.0" stop-color="#f3edb6"/>
    </linearGradient>
  </defs>
</svg>
