<?xml version="1.0" encoding="UTF-8" standalone="no"?>
<svg xmlns:ffdec="https://www.free-decompiler.com/flash" xmlns:xlink="http://www.w3.org/1999/xlink" ffdec:objectType="shape" height="30.4px" width="45.3px" xmlns="http://www.w3.org/2000/svg">
  <g transform="matrix(1.0, 0.0, 0.0, 1.0, -253.85, -187.65)">
    <path d="M261.35 190.1 L261.6 189.4 Q270.05 187.9 278.15 187.75 L282.25 187.65 292.0 188.2 292.45 189.4 292.1 188.55 288.3 189.7 279.4 191.05 279.35 191.05 275.9 191.3 269.35 191.15 265.4 190.65 Q263.2 190.15 261.75 189.4 L261.35 190.1" fill="url(#gradient0)" fill-rule="evenodd" stroke="none"/>
    <path d="M261.35 190.1 L261.75 189.4 Q263.2 190.15 265.4 190.65 262.05 198.45 260.6 205.1 259.05 211.5 259.6 216.1 256.4 214.95 254.45 213.3 253.9 212.8 253.85 211.5 253.8 209.25 255.15 204.75 L255.35 203.9 256.1 201.6 Q258.6 194.45 261.35 190.1" fill="#7c7391" fill-rule="evenodd" stroke="none"/>
    <path d="M279.35 191.05 L279.4 191.05 288.3 189.7 292.1 188.55 292.45 189.4 Q296.8 199.0 298.4 205.4 299.05 208.2 299.15 210.1 L298.85 212.45 Q298.3 213.65 296.05 215.05 L294.65 215.75 289.9 206.15 289.05 210.35 287.5 217.1 280.55 217.8 Q281.7 212.65 281.55 206.45 281.4 199.1 279.35 191.05" fill="#4f485b" fill-rule="evenodd" stroke="none"/>
    <path d="M265.4 190.65 L269.35 191.15 275.9 191.3 279.35 191.05 Q281.4 199.1 281.55 206.45 281.7 212.65 280.55 217.8 L278.55 217.9 273.95 218.05 265.35 217.5 259.6 216.1 Q259.05 211.5 260.6 205.1 262.05 198.45 265.4 190.65 M294.65 215.75 Q292.2 214.9 291.05 215.35 L289.05 210.35 289.9 206.15 294.65 215.75 M265.35 217.5 Q265.15 212.75 266.2 206.2 267.2 199.35 269.35 191.15 267.2 199.35 266.2 206.2 265.15 212.75 265.35 217.5" fill="#2c2732" fill-rule="evenodd" stroke="none"/>
    <path d="M261.35 190.1 L261.75 189.4 Q263.2 190.15 265.4 190.65 L269.35 191.15 275.9 191.3 279.35 191.05 M279.4 191.05 L288.3 189.7 292.1 188.55 292.45 189.4 Q296.8 199.0 298.4 205.4 299.05 208.2 299.15 210.1 L298.85 212.45 Q298.3 213.65 296.05 215.05 L294.65 215.75 Q292.2 214.9 291.05 215.35 L289.05 210.35 287.5 217.1 280.55 217.8 278.55 217.9 273.95 218.05 265.35 217.5 259.6 216.1 Q256.4 214.95 254.45 213.3 253.9 212.8 253.85 211.5 253.8 209.25 255.15 204.75 L255.35 203.9 256.1 201.6 Q258.6 194.45 261.35 190.1 M289.05 210.35 L289.9 206.15 294.65 215.75" ffdec:has-small-stroke="true" ffdec:original-stroke-width="0.05" fill="none" stroke="#231e2b" stroke-linecap="round" stroke-linejoin="round" stroke-width="1.0"/>
    <path d="M269.35 191.15 Q267.2 199.35 266.2 206.2 265.15 212.75 265.35 217.5" ffdec:has-small-stroke="true" ffdec:original-stroke-width="0.05" fill="none" stroke="#968ea6" stroke-linecap="round" stroke-linejoin="round" stroke-width="1.0"/>
  </g>
  <defs>
    <linearGradient gradientTransform="matrix(0.0, 0.0094, -0.0158, 0.0, 277.9, 185.85)" gradientUnits="userSpaceOnUse" id="gradient0" spreadMethod="pad" x1="-819.2" x2="819.2">
      <stop offset="0.0" stop-color="#2c2732"/>
      <stop offset="1.0" stop-color="#7c7391"/>
    </linearGradient>
  </defs>
</svg>
