<?xml version="1.0" encoding="UTF-8" standalone="no"?>
<svg xmlns:ffdec="https://www.free-decompiler.com/flash" xmlns:xlink="http://www.w3.org/1999/xlink" ffdec:objectType="shape" height="34.7px" width="56.55px" xmlns="http://www.w3.org/2000/svg">
  <g transform="matrix(1.0, 0.0, 0.0, 1.0, -259.55, -178.3)">
    <path d="M279.8 197.8 L279.8 197.75 279.8 197.8 291.95 192.05 292.0 192.0 291.95 192.0 292.0 192.0 296.05 190.2 298.8 187.8 Q304.05 183.0 307.55 180.75 L307.7 180.6 Q308.9 179.8 310.2 179.7 L314.55 179.6 Q314.9 179.75 315.2 180.05 L314.15 181.75 308.4 184.4 301.15 190.2 293.8 194.1 292.75 195.5 276.3 204.05 275.4 205.1 275.0 203.8 276.95 202.05 274.7 200.6 274.05 200.05 269.45 199.15 269.3 198.35 Q272.1 199.5 273.5 199.65 L275.85 199.5 278.75 198.2 278.75 198.25 278.8 198.2 279.8 197.8" fill="#f0e3a5" fill-rule="evenodd" stroke="none"/>
    <path d="M315.2 180.05 L315.85 180.75 315.8 182.2 311.9 184.4 309.0 187.35 308.1 187.65 308.2 187.55 292.75 195.5 293.8 194.1 301.15 190.2 308.4 184.4 314.15 181.75 315.2 180.05" fill="url(#gradient0)" fill-rule="evenodd" stroke="none"/>
    <path d="M315.8 182.2 L315.7 182.7 314.8 184.2 314.8 186.7 313.7 189.25 313.75 189.35 Q313.6 189.65 309.25 191.2 307.1 190.55 306.65 189.25 L304.55 191.35 276.8 204.7 275.0 207.65 Q276.05 209.25 273.0 211.65 272.0 212.35 270.55 212.75 L267.1 211.5 268.7 211.75 269.6 211.8 271.5 211.35 273.05 210.55 273.7 210.0 274.3 209.4 271.7 209.35 275.4 205.1 276.3 204.05 292.75 195.5 308.2 187.55 308.1 187.65 309.0 187.35 311.9 184.4 315.8 182.2 M309.3 189.0 L308.65 188.85 306.65 189.25 308.65 188.85 309.3 189.0" fill="url(#gradient1)" fill-rule="evenodd" stroke="none"/>
    <path d="M307.55 180.75 Q307.1 179.35 310.05 178.75 L311.6 178.6 312.85 178.75 Q313.5 178.9 314.55 179.6 L310.2 179.7 Q308.9 179.8 307.7 180.6 L307.55 180.75" fill="url(#gradient2)" fill-rule="evenodd" stroke="none"/>
    <path d="M278.75 198.2 L278.8 198.2 278.75 198.25 278.75 198.2" fill="#a6996a" fill-rule="evenodd" stroke="none"/>
    <path d="M270.55 212.75 L265.95 211.9 264.35 209.15 Q265.1 209.75 266.15 210.15 L267.4 210.6 268.8 210.6 269.5 210.4 269.75 206.8 269.1 207.1 267.75 207.6 266.45 207.85 264.6 207.65 264.15 207.2 263.05 205.75 262.15 204.2 262.65 203.95 264.25 204.3 266.05 204.25 267.4 203.7 269.45 202.45 270.4 201.25 270.3 200.8 Q270.2 199.85 269.45 199.15 L274.05 200.05 274.7 200.6 276.95 202.05 275.0 203.8 275.4 205.1 271.7 209.35 274.3 209.4 273.7 210.0 273.05 210.55 271.5 211.35 269.6 211.8 268.7 211.75 267.1 211.5 270.55 212.75" fill="url(#gradient3)" fill-rule="evenodd" stroke="none"/>
    <path d="M264.25 207.65 Q259.8 204.8 259.8 202.15 L260.0 201.2 Q260.6 198.1 265.65 197.8 L269.3 198.35 269.45 199.15 Q270.2 199.85 270.3 200.8 L270.4 201.25 269.45 202.45 267.4 203.7 266.05 204.25 264.25 204.3 262.65 203.95 262.15 204.2 263.05 205.75 264.15 207.2 264.6 207.65 264.25 207.65" fill="url(#gradient4)" fill-rule="evenodd" stroke="none"/>
    <path d="M264.35 209.15 L264.35 208.9 264.35 208.55 264.5 207.8 264.25 207.65 264.6 207.65 266.45 207.85 267.75 207.6 269.1 207.1 269.75 206.8 269.5 210.4 268.8 210.6 267.4 210.6 266.15 210.15 Q265.1 209.75 264.35 209.15" fill="url(#gradient5)" fill-rule="evenodd" stroke="none"/>
    <path d="M279.8 197.8 L291.95 192.05 292.0 192.0 296.05 190.2 298.8 187.8 Q304.05 183.0 307.55 180.75 307.1 179.35 310.05 178.75 L311.6 178.6 312.85 178.75 Q313.5 178.9 314.55 179.6 314.9 179.75 315.2 180.05 L315.85 180.75 315.8 182.2 315.7 182.7 314.8 184.2 314.8 186.7 313.7 189.25 313.75 189.35 Q313.6 189.65 309.25 191.2 307.1 190.55 306.65 189.25 L304.55 191.35 276.8 204.7 275.0 207.65 Q276.05 209.25 273.0 211.65 272.0 212.35 270.55 212.75 L265.95 211.9 264.35 209.15 264.35 208.9 M264.35 208.55 L264.5 207.8 264.25 207.65 Q259.8 204.8 259.8 202.15 L260.0 201.2 Q260.6 198.1 265.65 197.8 L269.3 198.35 Q272.1 199.5 273.5 199.65 L275.85 199.5 278.75 198.2 M278.8 198.2 L279.8 197.8 M307.55 180.75 L307.7 180.6 M306.65 189.25 L308.65 188.85 309.3 189.0 M278.75 198.25 L278.8 198.2 M264.6 207.65 L266.45 207.85 267.75 207.6 269.1 207.1 269.75 206.8 M264.6 207.65 L264.25 207.65" ffdec:has-small-stroke="true" ffdec:original-stroke-width="0.5" fill="none" stroke="#665b33" stroke-linecap="round" stroke-linejoin="round" stroke-width="1.0"/>
  </g>
  <defs>
    <linearGradient gradientTransform="matrix(0.0023, 0.0039, -0.0082, 0.0047, 305.0, 186.8)" gradientUnits="userSpaceOnUse" id="gradient0" spreadMethod="pad" x1="-819.2" x2="819.2">
      <stop offset="0.0" stop-color="#f0e3a5"/>
      <stop offset="1.0" stop-color="#c5b87c"/>
    </linearGradient>
    <linearGradient gradientTransform="matrix(0.0027, 0.006, -0.017, 0.0077, 291.2, 198.9)" gradientUnits="userSpaceOnUse" id="gradient1" spreadMethod="pad" x1="-819.2" x2="819.2">
      <stop offset="0.0" stop-color="#c9bc7e"/>
      <stop offset="1.0" stop-color="#a6996a"/>
    </linearGradient>
    <linearGradient gradientTransform="matrix(0.0, 0.0043, -0.0013, 0.0, 311.0, 179.65)" gradientUnits="userSpaceOnUse" id="gradient2" spreadMethod="pad" x1="-819.2" x2="819.2">
      <stop offset="0.0" stop-color="#ffffdf"/>
      <stop offset="1.0" stop-color="#f0e3a5"/>
    </linearGradient>
    <linearGradient gradientTransform="matrix(0.0052, 0.0, 0.0, 0.0083, 272.25, 193.45)" gradientUnits="userSpaceOnUse" id="gradient3" spreadMethod="pad" x1="-819.2" x2="819.2">
      <stop offset="0.0" stop-color="#d2c78e"/>
      <stop offset="1.0" stop-color="#f0e3a5"/>
    </linearGradient>
    <linearGradient gradientTransform="matrix(0.0032, 0.0032, -0.0042, 0.0043, 264.5, 201.0)" gradientUnits="userSpaceOnUse" id="gradient4" spreadMethod="pad" x1="-819.2" x2="819.2">
      <stop offset="0.0" stop-color="#ffffdf"/>
      <stop offset="1.0" stop-color="#d2c78e"/>
    </linearGradient>
    <linearGradient gradientTransform="matrix(-0.0029, 0.0017, -0.0012, -0.002, 269.55, 208.35)" gradientUnits="userSpaceOnUse" id="gradient5" spreadMethod="pad" x1="-819.2" x2="819.2">
      <stop offset="0.0" stop-color="#f0e3a5"/>
      <stop offset="1.0" stop-color="#b2a570"/>
    </linearGradient>
  </defs>
</svg>
