<?xml version="1.0" encoding="UTF-8" standalone="no"?>
<svg xmlns:ffdec="https://www.free-decompiler.com/flash" xmlns:xlink="http://www.w3.org/1999/xlink" ffdec:objectType="shape" height="60.05px" width="80.2px" xmlns="http://www.w3.org/2000/svg">
  <g transform="matrix(1.0, 0.0, 0.0, 1.0, -83.3, -70.05)">
    <path d="M162.6 119.6 L163.35 119.6 163.45 122.95 163.05 123.05 162.95 123.05 162.6 123.1 162.6 119.6 M156.45 114.35 L157.05 114.3 156.45 114.8 156.45 114.35 M95.4 92.6 L95.65 92.3 94.25 89.25 95.7 80.5 103.25 81.3 104.15 83.55 107.5 82.55 110.25 84.1 108.8 79.7 105.15 79.75 104.2 78.35 104.25 74.95 113.4 75.1 114.75 76.6 117.1 76.6 117.95 79.55 119.75 81.0 120.1 80.9 122.9 81.7 123.75 79.05 122.8 76.9 118.7 74.65 116.55 70.1 122.35 70.1 Q124.15 73.05 125.55 76.4 127.0 80.0 125.25 84.0 124.25 86.3 122.95 88.1 120.75 88.25 118.95 87.25 L118.2 86.75 118.15 88.7 115.75 88.55 Q112.9 87.65 109.9 87.25 L109.6 87.25 Q109.35 89.4 108.45 91.65 106.4 92.5 104.35 93.85 L104.2 93.95 101.7 92.5 100.45 94.75 100.2 95.0 Q99.4 94.7 98.75 94.2 L98.5 94.05 Q96.95 93.35 95.4 92.6" fill="#ddc3bf" fill-rule="evenodd" stroke="none"/>
    <path d="M157.3 126.95 L157.3 127.05 156.65 127.45 157.3 126.95 M97.15 107.3 L96.2 106.55 Q96.6 105.75 97.25 105.05 L97.15 107.3" fill="#f9ece1" fill-rule="evenodd" stroke="none"/>
    <path d="M120.55 98.2 L120.8 98.5 122.85 102.5 119.35 102.5 119.45 98.2 120.55 98.2 M137.75 106.55 L137.95 106.35 138.9 106.35 138.95 109.9 136.0 109.9 137.75 106.55" fill="#d2afaa" fill-rule="evenodd" stroke="none"/>
    <path d="M148.75 128.0 L148.8 127.9 148.95 127.6 149.0 127.6 149.2 127.5 149.2 127.55 149.5 127.6 149.55 127.8 Q149.65 128.2 149.35 128.45 L149.0 128.45 148.9 128.3 148.75 128.0 M105.3 122.7 L104.8 122.7 Q104.2 122.25 104.45 121.55 L104.5 121.35 104.8 121.2 Q105.95 121.55 105.4 122.6 L105.3 122.7 M106.95 124.85 Q106.55 124.55 106.7 124.05 L106.8 123.85 107.15 123.75 107.15 123.7 107.35 123.8 107.45 123.85 107.6 124.15 107.65 124.3 107.5 124.65 107.35 124.85 106.95 124.85" fill="#eec8a8" fill-rule="evenodd" stroke="none"/>
    <path d="M156.6 117.85 L157.15 117.25 157.15 119.65 156.15 119.6 Q155.95 118.55 156.6 117.85 M121.9 116.5 L121.55 116.85 120.7 116.85 120.5 116.6 120.3 117.6 Q120.0 119.15 118.55 119.9 L117.2 120.15 Q115.95 118.9 115.95 116.95 115.8 114.35 117.35 112.25 L118.95 112.2 119.65 112.55 120.1 113.05 120.5 114.95 120.55 114.9 121.1 114.65 121.15 114.6 121.5 114.75 121.8 114.9 122.05 115.45 122.15 115.8 121.9 116.5 M132.65 118.95 L132.65 119.0 133.2 119.2 133.35 119.5 Q133.65 120.3 133.0 120.85 L132.25 120.85 132.0 120.5 131.75 119.95 131.85 119.65 132.1 119.2 132.3 119.05 132.65 118.95 M133.05 116.75 L133.55 116.95 133.75 117.3 Q134.0 118.05 133.35 118.6 L132.65 118.6 132.35 118.3 132.15 117.7 132.25 117.45 132.5 116.95 132.7 116.85 133.05 116.75 M136.6 120.95 L136.7 120.65 136.9 120.2 137.15 120.05 137.45 119.95 137.45 120.0 137.95 120.2 138.0 120.25 138.25 118.65 138.7 118.25 139.3 117.95 140.65 118.0 Q141.9 119.75 141.8 121.9 141.75 123.5 140.75 124.55 L139.6 124.35 Q138.35 123.7 138.1 122.45 L138.0 121.6 137.8 121.85 137.1 121.85 136.8 121.5 136.6 120.95" fill="#fdf8f2" fill-rule="evenodd" stroke="none"/>
    <path d="M153.15 108.55 L153.8 112.4 156.3 112.4 156.45 114.35 156.45 114.8 157.05 114.3 157.1 114.3 162.6 119.6 162.6 123.1 162.6 123.7 157.3 126.95 156.65 127.45 Q152.55 129.7 147.7 130.0 140.0 130.4 133.4 126.25 L130.0 123.1 128.65 120.25 128.55 120.0 Q127.5 117.85 126.9 115.65 L126.5 113.6 126.35 113.0 126.2 110.85 126.15 109.65 127.65 111.75 Q127.2 109.6 127.35 107.45 L127.6 101.5 127.7 99.35 125.2 101.55 Q124.8 107.2 125.45 112.8 L125.95 114.4 Q125.8 115.05 126.3 115.55 127.1 117.85 128.25 120.25 L125.95 122.2 Q118.1 127.2 109.0 126.7 99.85 126.1 93.1 119.8 L90.95 117.95 88.75 115.9 88.15 114.9 89.1 114.75 89.35 114.4 93.15 118.25 Q95.8 120.65 95.95 120.4 95.05 119.45 95.25 118.25 L95.3 115.85 94.9 114.4 98.85 114.15 Q99.05 112.9 98.35 112.05 97.4 110.9 96.25 110.25 L95.4 109.6 95.7 107.9 96.2 106.55 97.15 107.3 98.5 108.4 98.7 105.5 101.6 105.5 102.75 99.15 106.0 97.85 107.85 95.35 110.7 95.35 111.9 88.6 116.85 90.85 119.7 96.55 119.75 92.7 126.75 91.15 126.75 85.0 128.8 82.4 128.85 79.2 126.9 73.4 128.7 76.35 Q130.85 79.9 131.85 83.95 132.85 88.15 132.85 92.4 132.85 93.8 132.4 95.0 L132.7 95.4 132.8 100.45 138.65 101.8 138.65 104.95 140.35 101.7 141.1 100.25 145.2 98.35 146.2 103.95 148.65 103.95 150.15 106.05 152.9 107.1 153.15 108.55 M120.55 98.2 L119.45 98.2 119.35 102.5 122.85 102.5 120.8 98.5 120.55 98.2 M144.6 122.75 L144.25 123.05 143.75 124.6 143.7 124.8 143.4 124.45 143.3 124.45 143.25 124.45 143.1 124.45 Q142.0 125.45 143.1 126.2 L143.2 126.2 143.7 125.9 Q143.8 126.7 144.45 127.4 148.75 128.6 149.65 125.0 150.0 123.55 149.35 122.3 L148.9 122.15 148.8 122.05 147.65 122.15 147.3 121.5 146.9 121.05 146.65 120.95 Q145.15 121.15 145.4 122.3 L144.9 122.6 144.6 122.75 M156.6 117.85 Q155.95 118.55 156.15 119.6 L157.15 119.65 157.15 117.25 156.6 117.85 M137.75 106.55 L136.0 109.9 138.95 109.9 138.9 106.35 137.95 106.35 137.75 106.55 M124.0 116.65 Q123.8 116.65 123.7 116.75 122.35 117.65 123.25 118.9 125.4 118.6 124.35 116.7 L124.2 116.65 124.0 116.65 M121.9 116.5 L122.15 115.8 122.05 115.45 121.8 114.9 121.5 114.75 121.15 114.6 121.1 114.65 120.55 114.9 120.5 114.95 120.1 113.05 119.65 112.55 118.95 112.2 117.35 112.25 Q115.8 114.35 115.95 116.95 115.95 118.9 117.2 120.15 L118.55 119.9 Q120.0 119.15 120.3 117.6 L120.5 116.6 120.7 116.85 121.55 116.85 121.9 116.5 M133.05 116.75 L132.7 116.85 132.5 116.95 132.25 117.45 132.15 117.7 132.35 118.3 132.65 118.6 133.35 118.6 Q134.0 118.05 133.75 117.3 L133.55 116.95 133.05 116.75 M132.65 118.95 L132.3 119.05 132.1 119.2 131.85 119.65 131.75 119.95 132.0 120.5 132.25 120.85 133.0 120.85 Q133.65 120.3 133.35 119.5 L133.2 119.2 132.65 119.0 132.65 118.95 M135.1 121.65 L134.9 121.65 134.7 121.7 Q133.85 123.25 135.65 123.5 136.4 122.45 135.3 121.75 L135.1 121.65 M136.6 120.95 L136.8 121.5 137.1 121.85 137.8 121.85 138.0 121.6 138.1 122.45 Q138.35 123.7 139.6 124.35 L140.75 124.55 Q141.75 123.5 141.8 121.9 141.9 119.75 140.65 118.0 L139.3 117.95 138.7 118.25 138.25 118.65 138.0 120.25 137.95 120.2 137.45 120.0 137.45 119.95 137.15 120.05 136.9 120.2 136.7 120.65 136.6 120.95 M151.4 125.55 L151.15 125.45 Q150.2 125.7 150.65 126.6 L150.7 126.7 151.15 126.7 Q151.65 126.3 151.5 125.75 L151.4 125.55 M148.75 128.0 L148.9 128.3 149.0 128.45 149.35 128.45 Q149.65 128.2 149.55 127.8 L149.5 127.6 149.2 127.55 149.2 127.5 149.0 127.6 148.95 127.6 148.8 127.9 148.75 128.0 M107.6 117.15 L107.5 117.2 106.95 117.45 Q106.15 118.95 106.6 120.65 107.65 125.05 112.75 123.55 113.55 122.8 113.75 121.8 L114.3 122.15 114.45 122.1 Q115.7 121.25 114.45 120.05 L114.25 120.0 114.15 120.0 114.05 120.05 113.7 120.45 113.65 120.2 113.05 118.35 112.6 118.0 112.3 117.8 111.7 117.4 Q111.95 116.1 110.15 115.8 L109.95 115.9 109.85 115.95 109.4 116.45 Q109.0 116.85 109.0 117.25 L107.6 117.15 M105.3 122.7 L105.4 122.6 Q105.95 121.55 104.8 121.2 L104.5 121.35 104.45 121.55 Q104.2 122.25 104.8 122.7 L105.3 122.7 M106.95 124.85 L107.35 124.85 107.5 124.65 107.65 124.3 107.6 124.15 107.45 123.85 107.35 123.8 107.15 123.7 107.15 123.75 106.8 123.85 106.7 124.05 Q106.55 124.55 106.95 124.85 M127.7 99.35 L132.4 95.0 127.7 99.35" fill="#66ccff" fill-rule="evenodd" stroke="none"/>
    <path d="M163.35 119.6 L162.6 119.6 157.1 114.3 157.05 114.3 156.45 114.35 156.3 112.4 153.8 112.4 153.15 108.55 155.25 108.5 155.25 109.95 160.3 109.95 161.5 114.35 163.25 114.35 163.35 119.6 M130.0 123.1 L129.35 122.2 128.25 120.25 Q127.1 117.85 126.3 115.55 125.8 115.05 125.95 114.4 L125.45 112.8 Q124.8 107.2 125.2 101.55 L127.7 99.35 127.6 101.5 127.35 107.45 Q127.2 109.6 127.65 111.75 L126.15 109.65 126.2 110.85 126.35 113.0 126.5 113.6 126.9 115.65 Q127.5 117.85 128.55 120.0 L128.65 120.25 130.0 123.1 M88.15 114.9 Q85.1 109.4 83.6 103.45 83.05 98.9 83.7 94.85 L84.45 94.85 86.9 101.0 87.05 98.7 87.15 98.2 87.45 98.2 89.15 98.5 93.4 99.3 97.25 104.65 97.25 105.05 Q96.6 105.75 96.2 106.55 L95.7 107.9 95.4 109.6 96.25 110.25 Q97.4 110.9 98.35 112.05 99.05 112.9 98.85 114.15 L94.9 114.4 95.3 115.85 95.25 118.25 Q95.05 119.45 95.95 120.4 95.8 120.65 93.15 118.25 L89.35 114.4 89.1 114.75 88.15 114.9 M126.05 70.8 Q129.55 74.95 132.3 79.65 134.6 85.7 135.65 92.0 L135.85 95.2 132.4 95.0 Q132.85 93.8 132.85 92.4 132.85 88.15 131.85 83.95 130.85 79.9 128.7 76.35 L126.9 73.4 126.05 70.8 M144.6 122.75 L144.9 122.6 145.4 122.3 Q145.15 121.15 146.65 120.95 L146.9 121.05 147.3 121.5 147.65 122.15 148.8 122.05 148.9 122.15 149.35 122.3 Q150.0 123.55 149.65 125.0 148.75 128.6 144.45 127.4 143.8 126.7 143.7 125.9 L143.2 126.2 143.1 126.2 Q142.0 125.45 143.1 124.45 L143.25 124.45 143.3 124.45 143.4 124.45 143.7 124.8 143.75 124.6 144.25 123.05 144.6 122.75 M124.0 116.65 L124.2 116.65 124.35 116.7 Q125.4 118.6 123.25 118.9 122.35 117.65 123.7 116.75 123.8 116.65 124.0 116.65 M135.1 121.65 L135.3 121.75 Q136.4 122.45 135.65 123.5 133.85 123.25 134.7 121.7 L134.9 121.65 135.1 121.65 M151.4 125.55 L151.5 125.75 Q151.65 126.3 151.15 126.7 L150.7 126.7 150.65 126.6 Q150.2 125.7 151.15 125.45 L151.4 125.55 M107.6 117.15 L109.0 117.25 Q109.0 116.85 109.4 116.45 L109.85 115.95 109.95 115.9 110.15 115.8 Q111.95 116.1 111.7 117.4 L112.3 117.8 112.6 118.0 113.05 118.35 113.65 120.2 113.7 120.45 114.05 120.05 114.15 120.0 114.25 120.0 114.45 120.05 Q115.7 121.25 114.45 122.1 L114.3 122.15 113.75 121.8 Q113.55 122.8 112.75 123.55 107.65 125.05 106.6 120.65 106.15 118.95 106.95 117.45 L107.5 117.2 107.6 117.15 M87.45 102.4 L86.9 101.0 87.45 102.4" fill="#003399" fill-rule="evenodd" stroke="none"/>
    <path d="M89.15 98.5 L93.05 97.85 95.0 99.5 95.1 93.0 95.4 92.6 Q96.95 93.35 98.5 94.05 L98.75 94.2 Q99.4 94.7 100.2 95.0 L100.45 94.75 101.7 92.5 104.2 93.95 104.35 93.85 Q106.4 92.5 108.45 91.65 109.35 89.4 109.6 87.25 L109.9 87.25 Q112.9 87.65 115.75 88.55 L118.15 88.7 118.2 86.75 118.95 87.25 Q120.75 88.25 122.95 88.1 124.25 86.3 125.25 84.0 127.0 80.0 125.55 76.4 124.15 73.05 122.35 70.1 L125.55 70.1 126.05 70.8 126.9 73.4 128.85 79.2 128.8 82.4 126.75 85.0 126.75 91.15 119.75 92.7 119.7 96.55 116.85 90.85 111.9 88.6 110.7 95.35 107.85 95.35 106.0 97.85 102.75 99.15 101.6 105.5 98.7 105.5 98.5 108.4 97.15 107.3 97.25 105.05 97.25 104.65 93.4 99.3 89.15 98.5 M135.85 95.2 L136.85 95.2 136.9 98.8 138.6 98.8 138.8 99.75 140.35 101.7 138.65 104.95 138.65 101.8 132.8 100.45 132.7 95.4 132.4 95.0 135.85 95.2" fill="#000066" fill-rule="evenodd" stroke="none"/>
    <path d="M163.35 119.6 L163.25 114.35 161.5 114.35 160.3 109.95 155.25 109.95 155.25 108.5 153.15 108.55 153.8 112.4 156.3 112.4 156.45 114.35 156.45 114.8 157.05 114.3 157.1 114.3 162.6 119.6 162.6 123.1 162.95 123.05 163.05 123.05 163.45 122.95 163.35 119.6 M162.6 123.1 L162.6 123.7 157.3 126.95 156.65 127.45 Q152.55 129.7 147.7 130.0 140.0 130.4 133.4 126.25 L130.0 123.1 129.35 122.2 128.25 120.25 125.95 122.2 Q118.1 127.2 109.0 126.7 99.85 126.1 93.1 119.8 L90.95 117.95 88.75 115.9 88.15 114.9 Q85.1 109.4 83.6 103.45 83.05 98.9 83.7 94.85 L84.45 94.85 86.9 101.0 87.05 98.7 87.15 98.2 87.45 98.2 89.15 98.5 93.05 97.85 95.0 99.5 95.1 93.0 95.4 92.6 95.65 92.3 94.25 89.25 95.7 80.5 103.25 81.3 104.15 83.55 107.5 82.55 110.25 84.1 108.8 79.7 105.15 79.75 104.2 78.35 104.25 74.95 113.4 75.1 114.75 76.6 117.1 76.6 117.95 79.55 119.75 81.0 120.1 80.9 122.9 81.7 123.75 79.05 122.8 76.9 118.7 74.65 116.55 70.1 122.35 70.1 125.55 70.1 126.05 70.8 Q129.55 74.95 132.3 79.65 134.6 85.7 135.65 92.0 L135.85 95.2 136.85 95.2 136.9 98.8 138.6 98.8 138.8 99.75 140.35 101.7 141.1 100.25 145.2 98.35 146.2 103.95 148.65 103.95 150.15 106.05 152.9 107.1 153.15 108.55 M157.3 127.05 L156.65 127.45 M162.6 123.1 L162.8 123.1 163.05 123.05 M126.9 73.4 L128.85 79.2 128.8 82.4 126.75 85.0 126.75 91.15 119.75 92.7 119.7 96.55 116.85 90.85 111.9 88.6 110.7 95.35 107.85 95.35 106.0 97.85 102.75 99.15 101.6 105.5 98.7 105.5 98.5 108.4 97.15 107.3 96.2 106.55 M120.55 98.2 L120.8 98.5 122.85 102.5 119.35 102.5 119.45 98.2 120.55 98.2 M126.05 70.8 L126.9 73.4 M132.4 95.0 L135.85 95.2 M132.4 95.0 L132.7 95.4 132.8 100.45 138.65 101.8 138.65 104.95 140.35 101.7 M137.75 106.55 L136.0 109.9 138.95 109.9 138.9 106.35 137.95 106.35 137.75 106.55 M127.7 99.35 L125.2 101.55 Q124.8 107.2 125.45 112.8 L125.95 114.4 Q125.8 115.05 126.3 115.55 127.1 117.85 128.25 120.25 M89.15 98.5 L93.4 99.3 97.25 104.65 97.25 105.05 97.15 107.3 M86.9 101.0 L87.45 102.4 M132.4 95.0 L127.7 99.35" ffdec:has-small-stroke="true" ffdec:original-stroke-width="0.1" fill="none" stroke="#000000" stroke-linecap="round" stroke-linejoin="round" stroke-opacity="0.5019608" stroke-width="1.0"/>
  </g>
</svg>
