<?xml version="1.0" encoding="UTF-8" standalone="no"?>
<svg xmlns:ffdec="https://www.free-decompiler.com/flash" xmlns:xlink="http://www.w3.org/1999/xlink" ffdec:objectType="shape" height="24.3px" width="40.1px" xmlns="http://www.w3.org/2000/svg">
  <g transform="matrix(1.0, 0.0, 0.0, 1.0, -250.55, -190.9)">
    <path d="M252.7 210.3 L252.75 210.7 252.3 211.55 Q251.55 210.05 251.15 207.9 250.85 206.45 250.85 204.9 L250.85 203.75 250.85 202.95 Q250.95 201.15 251.3 199.8 251.9 197.0 253.4 195.8 254.35 195.05 256.65 194.4 252.45 196.2 253.4 201.85 254.35 207.6 257.05 209.75 L256.7 209.8 255.5 209.4 255.3 207.9 Q254.95 206.8 254.2 206.15 253.5 205.5 252.85 205.75 252.2 206.0 252.0 207.0 L251.95 208.25 252.0 208.55 252.15 209.1 Q252.35 209.8 252.7 210.3 M267.6 195.3 L268.3 194.3 268.55 193.85 269.0 193.35 269.05 193.4 269.05 193.35 Q270.05 192.5 271.5 191.4 L273.45 191.15 274.2 191.8 274.1 191.9 273.65 191.5 271.8 191.75 269.6 193.45 271.7 193.75 271.7 193.9 272.0 193.95 272.65 196.45 272.1 197.7 271.95 197.8 271.95 197.85 271.85 198.0 272.35 196.45 271.7 193.9 272.35 196.45 271.85 198.0 Q270.7 200.45 270.6 203.2 270.4 207.15 272.85 210.35 275.25 213.5 279.15 214.05 L281.05 214.1 281.35 214.65 278.85 214.95 Q272.1 214.95 267.45 210.65 267.85 210.25 267.85 209.6 267.8 208.8 267.2 208.05 L266.9 207.75 267.75 206.65 Q269.65 204.0 269.65 201.65 L269.3 199.45 269.45 198.9 269.45 198.75 269.6 198.15 269.15 197.4 269.0 197.35 268.65 197.25 267.55 196.95 268.95 196.95 268.2 195.55 267.6 195.3 M287.8 197.95 L290.4 201.1 290.35 201.2 288.4 203.4 283.55 203.0 283.2 206.05 283.1 204.0 283.3 202.75 284.05 202.7 287.85 203.05 289.75 200.9 287.4 198.1 287.5 197.8 287.8 197.95 M272.95 197.4 L273.1 197.35 275.05 199.7 281.0 200.55 281.2 200.75 281.2 200.8 274.85 199.85 272.95 197.4 M269.6 193.45 L269.05 193.4 269.6 193.45 M268.65 197.25 L268.95 196.95 268.65 197.25" fill="#e6c780" fill-rule="evenodd" stroke="none"/>
    <path d="M257.05 209.75 Q254.35 207.6 253.4 201.85 252.45 196.2 256.65 194.4 259.0 193.7 261.3 193.9 L262.25 193.95 262.75 194.0 264.05 194.15 266.55 194.85 267.6 195.3 268.2 195.55 268.95 196.95 267.55 196.95 268.65 197.25 269.0 197.35 269.15 197.4 269.6 198.15 269.45 198.75 269.45 198.9 268.35 197.95 Q267.45 197.3 266.55 197.1 L265.25 196.95 Q263.6 196.95 262.8 198.0 262.0 199.05 262.5 200.55 L263.05 201.6 263.25 201.95 263.4 202.1 264.3 202.9 263.85 204.5 261.75 207.35 261.15 207.1 260.25 206.75 261.4 207.7 261.5 207.7 260.8 209.15 257.05 209.75 M290.4 201.1 L290.4 201.35 Q290.1 203.4 289.3 205.55 L289.3 205.6 Q288.35 208.55 287.0 210.6 L286.75 210.4 Q288.15 208.05 288.95 205.6 L289.6 202.65 285.5 209.5 284.6 209.15 281.5 209.35 Q280.3 210.1 280.4 211.8 280.4 212.95 281.05 214.1 L279.15 214.05 Q275.25 213.5 272.85 210.35 270.4 207.15 270.6 203.2 270.7 200.45 271.85 198.0 L271.95 197.85 272.95 197.4 274.85 199.85 281.2 200.8 281.25 200.8 281.3 200.85 281.5 201.15 281.6 201.3 283.05 202.8 283.1 204.0 283.2 206.05 283.55 203.0 288.4 203.4 290.35 201.2 290.4 201.1 290.4 201.2 290.4 201.25 290.4 201.35 290.4 201.25 290.4 201.2 290.4 201.1 M256.65 197.15 Q255.4 197.3 254.55 197.9 253.7 198.5 253.75 199.15 253.8 199.8 254.7 200.15 L256.85 200.4 Q258.05 200.2 258.9 199.65 259.75 199.05 259.75 198.4 259.7 197.75 258.8 197.35 L256.65 197.15 M281.5 201.15 L281.4 201.05 281.2 200.8 281.4 201.05 281.5 201.15 M277.9 201.8 Q276.8 201.15 275.3 201.45 273.75 201.7 272.7 202.65 271.65 203.65 271.7 204.8 271.7 205.9 272.85 206.5 273.95 207.1 275.5 206.9 277.0 206.6 278.05 205.6 279.1 204.65 279.05 203.55 279.0 202.45 277.9 201.8" fill="#fff3cc" fill-rule="evenodd" stroke="none"/>
    <path d="M252.7 210.3 Q252.35 209.8 252.15 209.1 L252.0 208.55 252.5 208.9 251.95 208.25 252.0 207.0 Q252.2 206.0 252.85 205.75 253.5 205.5 254.2 206.15 254.95 206.8 255.3 207.9 L255.5 209.4 254.3 209.0 253.0 210.45 252.7 209.95 252.65 209.85 252.7 210.3 M287.0 210.6 Q285.05 213.75 281.35 214.65 L281.05 214.1 Q280.4 212.95 280.4 211.8 280.3 210.1 281.5 209.35 L284.6 209.15 285.5 209.5 286.75 210.4 287.0 210.6 M267.45 210.65 Q265.1 208.8 264.8 206.95 L265.75 207.05 266.9 207.75 267.2 208.05 Q267.8 208.8 267.85 209.6 267.85 210.25 267.45 210.65 M264.4 202.9 L264.3 202.85 263.65 202.15 263.05 201.6 262.5 200.55 Q262.0 199.05 262.8 198.0 263.6 196.95 265.25 196.95 L266.55 197.1 Q267.45 197.3 268.35 197.95 L269.45 198.9 269.3 199.45 269.15 200.15 267.1 203.25 264.4 202.9 M256.65 197.15 L258.8 197.35 Q259.7 197.75 259.75 198.4 259.75 199.05 258.9 199.65 258.05 200.2 256.85 200.4 L254.7 200.15 Q253.8 199.8 253.75 199.15 253.7 198.5 254.55 197.9 255.4 197.3 256.65 197.15 M277.9 201.8 Q279.0 202.45 279.05 203.55 279.1 204.65 278.05 205.6 277.0 206.6 275.5 206.9 273.95 207.1 272.85 206.5 271.7 205.9 271.7 204.8 271.65 203.65 272.7 202.65 273.75 201.7 275.3 201.45 276.8 201.15 277.9 201.8 M252.5 208.9 L252.65 209.85 252.5 208.9" fill="#666666" fill-rule="evenodd" stroke="none"/>
    <path d="M274.2 191.8 L274.85 192.35 276.15 192.95 279.85 193.15 284.8 196.55 285.85 197.0 286.05 197.35 286.3 197.5 286.5 197.35 287.8 197.95 287.5 197.8 287.4 198.1 289.75 200.9 287.85 203.05 284.05 202.7 283.3 202.75 283.1 204.0 283.05 202.8 281.6 201.3 281.5 201.15 281.3 200.85 281.25 200.8 281.2 200.8 281.2 200.75 281.0 200.55 275.05 199.7 273.1 197.35 272.95 197.4 272.9 197.35 272.3 197.65 272.3 197.6 272.1 197.7 272.65 196.45 272.0 193.95 271.7 193.9 271.7 193.75 269.6 193.45 271.8 191.75 273.65 191.5 274.1 191.9 274.2 191.8" fill="#cb9b56" fill-rule="evenodd" stroke="none"/>
    <path d="M285.5 209.5 L289.6 202.65 288.95 205.6 Q288.15 208.05 286.75 210.4 L285.5 209.5" fill="#ffffff" fill-opacity="0.6" fill-rule="evenodd" stroke="none"/>
    <path d="M264.8 206.95 Q264.1 205.1 264.4 202.9 L267.1 203.25 269.15 200.15 269.3 199.45 269.65 201.65 Q269.65 204.0 267.75 206.65 L266.9 207.75 265.75 207.05 264.8 206.95" fill="#d0a76a" fill-rule="evenodd" stroke="none"/>
    <path d="M252.0 208.55 L251.95 208.25 252.5 208.9 252.0 208.55" fill="#cccc66" fill-rule="evenodd" stroke="none"/>
    <path d="M256.65 194.4 Q254.35 195.05 253.4 195.8 251.9 197.0 251.3 199.8 250.95 201.15 250.85 202.95 L250.85 203.75 250.85 204.9 Q250.85 206.45 251.15 207.9 251.55 210.05 252.3 211.55 L252.75 210.7 252.7 210.3 252.65 209.85 M255.5 209.4 L256.7 209.8 257.05 209.75 260.8 209.15 261.5 207.7 M256.65 194.4 Q259.0 193.7 261.3 193.9 L262.25 193.95 262.75 194.0 264.05 194.15 266.55 194.85 267.6 195.3 M268.3 194.3 L268.55 193.85 269.0 193.35 M269.05 193.35 Q270.05 192.5 271.5 191.4 L273.45 191.15 274.2 191.8 274.85 192.35 276.15 192.95 279.85 193.15 284.8 196.55 285.85 197.0 286.05 197.35 286.3 197.5 286.5 197.35 287.8 197.95 290.4 201.1 M287.0 210.6 Q285.05 213.75 281.35 214.65 M267.45 210.65 Q265.1 208.8 264.8 206.95 M264.3 202.9 L263.85 204.5 261.75 207.35 261.15 207.1 261.4 207.7 M255.5 209.4 L254.3 209.0 253.0 210.45 252.7 209.95" ffdec:has-small-stroke="true" ffdec:original-stroke-width="0.5" fill="none" stroke="#555555" stroke-linecap="round" stroke-linejoin="round" stroke-width="1.0"/>
    <path d="M269.0 193.35 L269.05 193.35 M264.4 202.9 L264.3 202.85 264.3 202.9 M261.4 207.7 L261.5 207.7 M269.45 198.75 L269.6 198.15 269.15 197.4 269.0 197.35 268.65 197.25 267.55 196.95 268.95 196.95 268.2 195.55 267.6 195.3 M272.3 197.65 L272.9 197.35 272.95 197.4 274.85 199.85 281.2 200.8 281.4 201.05 281.5 201.15 281.6 201.3 283.05 202.8 283.1 204.0 283.2 206.05 283.55 203.0 288.4 203.4 290.35 201.2 290.4 201.1 M269.6 193.45 L271.7 193.75 271.7 193.9 272.35 196.45 271.85 198.0 M269.05 193.4 L269.6 193.45 M269.0 193.35 L269.05 193.4 M268.95 196.95 L268.65 197.25 M271.95 197.8 L272.3 197.65 M269.45 198.9 L269.3 199.45 269.15 200.15 267.1 203.25 264.4 202.9 M263.4 202.1 L263.25 201.95 M263.05 201.6 L263.65 202.15 264.3 202.85 M263.4 202.1 L263.65 202.15 M252.7 209.95 L252.65 209.85 252.5 208.9 252.0 208.55 M261.15 207.1 L260.25 206.75 261.4 207.7 M252.5 208.9 L251.95 208.25" ffdec:has-small-stroke="true" ffdec:original-stroke-width="0.05" fill="none" stroke="#000000" stroke-linecap="round" stroke-linejoin="round" stroke-opacity="0.3019608" stroke-width="1.0"/>
    <path d="M267.6 195.3 L268.3 194.3 M290.4 201.35 Q290.1 203.4 289.3 205.55 M289.3 205.6 Q288.35 208.55 287.0 210.6 M281.35 214.65 L278.85 214.95 Q272.1 214.95 267.45 210.65 M264.8 206.95 Q264.1 205.1 264.4 202.9" ffdec:has-small-stroke="true" ffdec:original-stroke-width="0.5" fill="none" stroke="#555555" stroke-linecap="round" stroke-linejoin="round" stroke-width="1.0"/>
    <path d="M289.3 205.55 L289.3 205.6 M290.4 201.1 L290.4 201.2 290.4 201.25 290.4 201.35" ffdec:has-small-stroke="true" ffdec:original-stroke-width="0.05" fill="none" stroke="#000000" stroke-linecap="round" stroke-linejoin="round" stroke-opacity="0.3019608" stroke-width="1.0"/>
  </g>
</svg>
