<?xml version="1.0" encoding="UTF-8" standalone="no"?>
<svg xmlns:ffdec="https://www.free-decompiler.com/flash" xmlns:xlink="http://www.w3.org/1999/xlink" ffdec:objectType="shape" height="24.3px" width="40.1px" xmlns="http://www.w3.org/2000/svg">
  <g transform="matrix(1.0, 0.0, 0.0, 1.0, -255.4, -187.8)">
    <path d="M258.6 196.05 Q258.65 196.7 259.55 197.05 L261.7 197.3 Q262.9 197.1 263.75 196.55 264.6 195.95 264.6 195.3 264.55 194.65 263.65 194.25 L261.5 194.05 Q260.25 194.2 259.4 194.8 258.55 195.4 258.6 196.05 M261.9 206.65 Q259.2 204.5 258.25 198.75 257.3 193.1 261.5 191.3 263.85 190.6 266.15 190.8 L267.1 190.85 267.6 190.9 268.9 191.05 271.4 191.75 272.45 192.2 273.05 192.45 273.8 193.85 272.4 193.85 273.5 194.15 273.85 194.25 274.0 194.3 274.45 195.05 274.3 195.65 274.3 195.8 273.2 194.85 Q272.3 194.2 271.4 194.0 L270.1 193.85 Q268.45 193.85 267.65 194.9 266.85 195.95 267.35 197.45 L267.9 198.5 268.1 198.85 268.25 199.0 269.15 199.8 268.7 201.4 266.6 204.25 266.0 204.0 265.1 203.65 266.25 204.6 266.35 204.6 265.65 206.05 261.9 206.65 M295.25 198.0 L295.25 198.25 Q294.95 200.3 294.15 202.45 L294.15 202.5 Q293.2 205.45 291.85 207.5 L291.6 207.3 Q293.0 204.95 293.8 202.5 L294.45 199.55 290.35 206.4 289.45 206.05 286.35 206.25 Q285.15 207.0 285.25 208.7 285.25 209.85 285.9 211.0 L284.0 210.95 Q280.1 210.4 277.7 207.25 275.25 204.05 275.45 200.1 275.55 197.35 276.7 194.9 L276.8 194.75 277.8 194.3 279.7 196.75 286.05 197.7 286.1 197.7 286.15 197.75 286.35 198.05 286.45 198.2 287.9 199.7 287.95 200.9 288.05 202.95 288.4 199.9 293.25 200.3 295.2 198.1 295.25 198.0 295.25 198.1 295.25 198.15 295.25 198.25 295.25 198.15 295.25 198.1 295.25 198.0 M286.35 198.05 L286.25 197.95 286.05 197.7 286.25 197.95 286.35 198.05 M280.15 198.35 Q278.6 198.6 277.55 199.55 276.5 200.55 276.55 201.7 276.55 202.8 277.7 203.4 278.8 204.0 280.35 203.8 281.85 203.5 282.9 202.5 283.95 201.55 283.9 200.45 283.85 199.35 282.75 198.7 281.65 198.05 280.15 198.35" fill="#fff3cc" fill-rule="evenodd" stroke="none"/>
    <path d="M257.55 207.2 L257.6 207.6 257.15 208.45 Q256.4 206.95 256.0 204.8 255.7 203.35 255.7 201.8 L255.7 200.65 255.7 199.85 Q255.8 198.05 256.15 196.7 256.75 193.9 258.25 192.7 259.2 191.95 261.5 191.3 257.3 193.1 258.25 198.75 259.2 204.5 261.9 206.65 L261.55 206.7 260.35 206.3 260.15 204.8 Q259.8 203.7 259.05 203.05 258.35 202.4 257.7 202.65 257.05 202.9 256.85 203.9 256.7 204.5 256.8 205.15 L256.85 205.45 257.0 206.0 Q257.2 206.7 257.55 207.2 M272.45 192.2 L273.15 191.2 273.4 190.75 273.85 190.25 273.9 190.3 273.9 190.25 Q274.9 189.4 276.35 188.3 L278.3 188.05 279.05 188.7 278.95 188.8 278.5 188.4 276.65 188.65 274.45 190.35 273.9 190.3 274.45 190.35 276.55 190.65 276.55 190.8 276.85 190.85 277.5 193.35 276.95 194.6 276.8 194.7 276.8 194.75 276.7 194.9 Q275.55 197.35 275.45 200.1 275.25 204.05 277.7 207.25 280.1 210.4 284.0 210.95 L285.9 211.0 286.2 211.55 283.7 211.85 Q276.95 211.85 272.3 207.55 272.7 207.15 272.7 206.5 272.65 205.7 272.05 204.95 L271.75 204.65 272.6 203.55 Q274.5 200.9 274.5 198.55 L274.15 196.35 274.3 195.8 274.3 195.65 274.45 195.05 274.0 194.3 273.85 194.25 273.5 194.15 272.4 193.85 273.8 193.85 273.05 192.45 272.45 192.2 M292.65 194.85 L295.25 198.0 295.2 198.1 293.25 200.3 288.4 199.9 288.05 202.95 287.95 200.9 288.15 199.65 288.9 199.6 292.7 199.95 294.6 197.8 292.25 195.0 292.35 194.7 292.65 194.85 M277.8 194.3 L277.95 194.25 279.9 196.6 285.85 197.45 286.05 197.65 286.05 197.7 279.7 196.75 277.8 194.3 M276.7 194.9 L277.2 193.35 276.55 190.8 277.2 193.35 276.7 194.9 M273.5 194.15 L273.8 193.85 273.5 194.15" fill="#e6c780" fill-rule="evenodd" stroke="none"/>
    <path d="M279.05 188.7 L279.7 189.25 281.0 189.85 284.7 190.05 289.65 193.45 290.7 193.9 290.9 194.25 291.15 194.4 291.35 194.25 292.65 194.85 292.35 194.7 292.25 195.0 294.6 197.8 292.7 199.95 288.9 199.6 288.15 199.65 287.95 200.9 287.9 199.7 286.45 198.2 286.35 198.05 286.15 197.75 286.1 197.7 286.05 197.7 286.05 197.65 285.85 197.45 279.9 196.6 277.95 194.25 277.8 194.3 277.75 194.25 277.15 194.55 277.15 194.5 276.95 194.6 277.5 193.35 276.85 190.85 276.55 190.8 276.55 190.65 274.45 190.35 276.65 188.65 278.5 188.4 278.95 188.8 279.05 188.7" fill="#cb9b56" fill-rule="evenodd" stroke="none"/>
    <path d="M269.65 203.85 Q268.95 202.0 269.25 199.8 L271.95 200.15 274.0 197.05 274.15 196.35 274.5 198.55 Q274.5 200.9 272.6 203.55 L271.75 204.65 Q271.25 204.15 270.6 203.95 L269.65 203.85" fill="#d0a76a" fill-rule="evenodd" stroke="none"/>
    <path d="M290.35 206.4 L294.45 199.55 293.8 202.5 Q293.0 204.95 291.6 207.3 L290.35 206.4" fill="#ffffff" fill-opacity="0.6" fill-rule="evenodd" stroke="none"/>
    <path d="M256.85 205.45 L256.8 205.15 257.35 205.8 256.85 205.45" fill="#cccc66" fill-rule="evenodd" stroke="none"/>
    <path d="M261.5 191.3 Q259.2 191.95 258.25 192.7 256.75 193.9 256.15 196.7 255.8 198.05 255.7 199.85 L255.7 200.65 255.7 201.8 Q255.7 203.35 256.0 204.8 256.4 206.95 257.15 208.45 L257.6 207.6 257.55 207.2 257.5 206.75 M260.35 206.3 L261.55 206.7 261.9 206.65 265.65 206.05 266.35 204.6 M261.5 191.3 Q263.85 190.6 266.15 190.8 L267.1 190.85 267.6 190.9 268.9 191.05 271.4 191.75 272.45 192.2 M273.15 191.2 L273.4 190.75 273.85 190.25 M273.9 190.25 Q274.9 189.4 276.35 188.3 L278.3 188.05 279.05 188.7 279.7 189.25 281.0 189.85 284.7 190.05 289.65 193.45 290.7 193.9 290.9 194.25 291.15 194.4 291.35 194.25 292.65 194.85 295.25 198.0 M291.85 207.5 Q289.9 210.65 286.2 211.55 M272.3 207.55 Q269.95 205.7 269.65 203.85 M269.15 199.8 L268.7 201.4 266.6 204.25 266.0 204.0 266.25 204.6 M260.35 206.3 L259.15 205.9 257.85 207.35 257.55 206.85" ffdec:has-small-stroke="true" ffdec:original-stroke-width="0.5" fill="none" stroke="#555555" stroke-linecap="round" stroke-linejoin="round" stroke-width="1.0"/>
    <path d="M273.85 190.25 L273.9 190.25 M294.15 202.45 L294.15 202.5 M269.25 199.8 L269.15 199.75 269.15 199.8 M266.25 204.6 L266.35 204.6 M274.3 195.65 L274.45 195.05 274.0 194.3 273.85 194.25 273.5 194.15 272.4 193.85 273.8 193.85 273.05 192.45 272.45 192.2 M273.9 190.3 L274.45 190.35 276.55 190.65 276.55 190.8 277.2 193.35 276.7 194.9 M277.15 194.55 L277.75 194.25 277.8 194.3 279.7 196.75 286.05 197.7 286.25 197.95 286.35 198.05 286.45 198.2 287.9 199.7 287.95 200.9 288.05 202.95 288.4 199.9 293.25 200.3 295.2 198.1 295.25 198.0 295.25 198.1 295.25 198.15 295.25 198.25 M273.85 190.25 L273.9 190.3 M276.8 194.7 L277.15 194.55 M273.8 193.85 L273.5 194.15 M274.15 196.35 L274.0 197.05 271.95 200.15 269.25 199.8 M274.3 195.8 L274.15 196.35 M269.15 199.75 L268.5 199.05 268.25 199.0 268.1 198.85 M266.0 204.0 L265.1 203.65 266.25 204.6 M268.5 199.05 L267.9 198.5 M257.55 206.85 L257.5 206.75 257.35 205.8 256.85 205.45 M257.35 205.8 L256.8 205.15" ffdec:has-small-stroke="true" ffdec:original-stroke-width="0.05" fill="none" stroke="#000000" stroke-linecap="round" stroke-linejoin="round" stroke-opacity="0.3019608" stroke-width="1.0"/>
    <path d="M272.45 192.2 L273.15 191.2 M295.25 198.25 Q294.95 200.3 294.15 202.45 M294.15 202.5 Q293.2 205.45 291.85 207.5 M286.2 211.55 L283.7 211.85 Q276.95 211.85 272.3 207.55 M269.65 203.85 Q268.95 202.0 269.25 199.8" ffdec:has-small-stroke="true" ffdec:original-stroke-width="0.5" fill="none" stroke="#555555" stroke-linecap="round" stroke-linejoin="round" stroke-width="1.0"/>
    <path d="M258.6 196.05 Q258.55 195.4 259.4 194.8 260.25 194.2 261.5 194.05 L263.65 194.25 Q264.55 194.65 264.6 195.3 264.6 195.95 263.75 196.55 262.9 197.1 261.7 197.3 L259.55 197.05 Q258.65 196.7 258.6 196.05 M274.3 195.8 L274.0 197.05 271.95 200.15 269.25 199.8 269.15 199.75 267.9 198.5 267.35 197.45 Q266.85 195.95 267.65 194.9 268.45 193.85 270.1 193.85 L271.4 194.0 Q272.3 194.2 273.2 194.85 L274.3 195.8 M286.35 206.25 L289.45 206.05 290.35 206.4 291.6 207.3 291.85 207.5 Q289.9 210.65 286.2 211.55 L285.9 211.0 Q285.25 209.85 285.25 208.7 285.15 207.0 286.35 206.25 M280.15 198.35 Q281.65 198.05 282.75 198.7 283.85 199.35 283.9 200.45 283.95 201.55 282.9 202.5 281.85 203.5 280.35 203.8 278.8 204.0 277.7 203.4 276.55 202.8 276.55 201.7 276.5 200.55 277.55 199.55 278.6 198.6 280.15 198.35 M270.6 203.95 Q271.25 204.15 271.75 204.65 L272.05 204.95 Q272.65 205.7 272.7 206.5 272.7 207.15 272.3 207.55 269.95 205.7 269.65 203.85 L270.6 203.95 M257.7 202.65 Q258.35 202.4 259.05 203.05 259.8 203.7 260.15 204.8 L260.35 206.3 259.15 205.9 257.85 207.35 257.55 206.85 257.5 206.75 257.55 207.2 Q257.2 206.7 257.0 206.0 L256.85 205.45 257.35 205.8 256.8 205.15 Q256.7 204.5 256.85 203.9 257.05 202.9 257.7 202.65" fill="#cccc66" fill-rule="evenodd" stroke="none"/>
  </g>
</svg>
