<?xml version="1.0" encoding="UTF-8" standalone="no"?>
<svg xmlns:ffdec="https://www.free-decompiler.com/flash" xmlns:xlink="http://www.w3.org/1999/xlink" ffdec:objectType="shape" height="51.7px" width="51.65px" xmlns="http://www.w3.org/2000/svg">
  <g transform="matrix(1.0, 0.0, 0.0, 1.0, -249.15, -174.1)">
    <path d="M288.75 185.4 L286.55 180.95 Q285.8 181.4 285.2 181.85 L287.7 187.4 287.4 187.35 283.2 183.35 Q279.8 185.85 276.6 189.0 275.7 189.6 274.85 190.4 L272.25 195.45 268.25 201.9 Q265.35 206.25 262.4 209.75 L258.0 200.3 258.95 209.7 253.25 206.75 258.35 214.65 253.2 216.8 249.65 217.65 250.4 219.3 259.4 216.6 262.35 225.3 263.0 216.65 268.7 222.6 264.75 215.25 271.7 213.2 269.6 210.95 274.05 212.25 Q284.85 208.35 294.05 199.55 L295.05 198.6 296.15 196.1 Q298.2 191.3 299.25 187.2 L296.9 186.6 296.9 186.5 299.55 186.0 300.2 181.65 Q300.6 177.65 299.7 174.6 294.3 176.25 288.5 179.7 L288.75 185.4 Z" fill="none" stroke="#000000" stroke-linecap="round" stroke-linejoin="round" stroke-opacity="0.29803923" stroke-width="1.0"/>
    <path d="M286.25 184.25 L285.15 181.85 286.5 180.95 287.7 183.5 286.25 184.25 M288.6 183.05 L288.45 179.7 Q294.2 176.25 299.6 174.6 300.5 177.65 300.15 181.65 L298.4 186.15 296.85 186.5 297.2 181.65 292.65 192.75 287.0 198.45 278.75 195.5 280.4 190.2 Q285.2 187.05 287.3 187.35 L287.9 187.95 287.6 187.4 288.05 187.55 287.7 192.6 286.35 188.55 282.65 191.9 280.65 194.75 286.35 195.2 290.9 191.9 294.3 180.3 288.6 183.05 M296.85 186.6 L298.1 186.95 296.55 190.05 296.85 186.6 M276.5 189.0 Q279.75 185.85 283.1 183.35 L284.85 184.85 276.5 189.0" fill="#96dbf7" fill-rule="evenodd" stroke="none"/>
    <path d="M286.25 184.25 L287.7 183.5 288.65 185.4 288.6 183.05 294.3 180.3 290.9 191.9 286.35 195.2 280.65 194.75 282.65 191.9 286.35 188.55 287.7 192.6 288.05 187.55 287.6 187.4 286.25 184.25 M272.15 195.45 L274.8 190.4 276.5 189.0 284.85 184.85 287.3 187.35 Q285.2 187.05 280.4 190.2 L278.75 195.5 287.0 198.45 292.65 192.75 297.2 181.65 296.85 186.5 296.45 186.5 296.85 186.6 296.55 190.05 294.15 194.25 Q289.25 199.55 283.85 202.8 279.75 204.95 276.75 205.65 L274.2 205.65 281.1 197.75 272.75 205.05 272.15 195.45" fill="#fbf9f1" fill-rule="evenodd" stroke="none"/>
    <path d="M287.3 187.35 L287.6 187.4 287.9 187.95 287.3 187.35" fill="#46a3ca" fill-rule="evenodd" stroke="none"/>
    <path d="M296.85 186.5 L296.85 186.6 296.45 186.5 296.85 186.5" fill="#24637d" fill-rule="evenodd" stroke="none"/>
    <path d="M300.15 181.65 L299.45 186.0 298.4 186.15 300.15 181.65 M298.1 186.95 L299.15 187.2 Q298.1 191.3 296.1 196.1 L296.55 190.05 298.1 186.95" fill="#68cef7" fill-rule="evenodd" stroke="none"/>
    <path d="M296.1 196.1 L294.95 198.6 294.0 199.55 Q284.45 204.8 278.0 205.55 L276.8 205.65 276.75 205.65 Q279.75 204.95 283.85 202.8 289.25 199.55 294.15 194.25 L296.55 190.05 296.1 196.1 M259.35 216.6 L250.35 219.3 249.6 217.65 253.1 216.8 258.3 214.65 259.95 213.65 261.75 212.55 263.6 211.4 268.65 208.4 271.85 205.7 Q269.3 204.95 268.2 201.9 L272.15 195.45 272.75 205.05 271.85 205.7 272.75 205.05 281.1 197.75 274.2 205.65 270.15 209.45 263.7 213.75 261.45 215.15 259.35 216.6" fill="#eff2f8" fill-rule="evenodd" stroke="none"/>
    <path d="M294.0 199.55 Q284.75 208.35 273.95 212.25 L269.55 210.95 271.65 213.2 264.65 215.25 263.7 213.75 270.15 209.45 274.2 205.65 276.75 205.65 276.8 205.65 278.0 205.55 Q284.45 204.8 294.0 199.55 M262.35 209.75 L268.2 201.9 Q269.3 204.95 271.85 205.7 L268.65 208.4 263.6 211.4 262.35 209.75" fill="#d8dfef" fill-rule="evenodd" stroke="none"/>
    <path d="M264.65 215.25 L268.65 222.6 262.95 216.65 262.25 225.3 261.45 215.15 263.7 213.75 264.65 215.25 M253.2 206.75 L258.9 209.7 261.75 212.55 259.95 213.65 253.2 206.75 M257.9 200.3 L262.35 209.75 263.6 211.4 261.75 212.55 257.9 200.3" fill="#f0f0f0" fill-rule="evenodd" stroke="none"/>
    <path d="M262.25 225.3 L259.35 216.6 261.45 215.15 262.25 225.3 M258.3 214.65 L253.2 206.75 259.95 213.65 258.3 214.65 M258.9 209.7 L257.9 200.3 261.75 212.55 258.9 209.7" fill="#cdcbcb" fill-rule="evenodd" stroke="none"/>
    <path d="M287.7 183.5 L286.5 180.95 285.15 181.85 286.25 184.25 287.6 187.4 287.9 187.95 287.3 187.35 284.85 184.85 283.1 183.35 Q279.75 185.85 276.5 189.0 L274.8 190.4 272.15 195.45 268.2 201.9 262.35 209.75 257.9 200.3 258.9 209.7 253.2 206.75 258.3 214.65 253.1 216.8 249.6 217.65 250.35 219.3 259.35 216.6 262.25 225.3 262.95 216.65 268.65 222.6 264.65 215.25 271.65 213.2 269.55 210.95 273.95 212.25 Q284.75 208.35 294.0 199.55 L294.95 198.6 296.1 196.1 Q298.1 191.3 299.15 187.2 L298.1 186.95 296.85 186.6 296.45 186.5 296.85 186.5 298.4 186.15 299.45 186.0 300.15 181.65 Q300.5 177.65 299.6 174.6 294.2 176.25 288.45 179.7 L288.6 183.05 288.65 185.4 287.7 183.5" ffdec:has-small-stroke="true" ffdec:original-stroke-width="0.3" fill="none" stroke="#000000" stroke-linecap="round" stroke-linejoin="round" stroke-opacity="0.3019608" stroke-width="1.0"/>
    <path d="M271.85 205.7 L272.75 205.05 M261.45 215.15 L263.7 213.75 270.15 209.45 274.2 205.65 M259.35 216.6 L261.45 215.15 M261.75 212.55 L263.6 211.4 268.65 208.4 271.85 205.7 M259.95 213.65 L261.75 212.55 M258.3 214.65 L259.95 213.65" ffdec:has-small-stroke="true" ffdec:original-stroke-width="0.1" fill="none" stroke="#000000" stroke-linecap="round" stroke-linejoin="round" stroke-opacity="0.3019608" stroke-width="1.0"/>
    <path d="M274.2 205.65 L281.1 197.75 272.75 205.05" ffdec:has-small-stroke="true" ffdec:original-stroke-width="0.1" fill="none" stroke="#000000" stroke-linecap="round" stroke-linejoin="round" stroke-opacity="0.24705882" stroke-width="1.0"/>
  </g>
</svg>
