<?xml version="1.0" encoding="UTF-8" standalone="no"?>
<svg xmlns:ffdec="https://www.free-decompiler.com/flash" xmlns:xlink="http://www.w3.org/1999/xlink" ffdec:objectType="shape" height="65.3px" width="40.65px" xmlns="http://www.w3.org/2000/svg">
  <g transform="matrix(1.0, 0.0, 0.0, 1.0, -268.45, -251.7)">
    <path d="M283.95 262.3 L283.2 255.05 283.3 252.7 287.0 252.5 289.35 251.95 289.4 251.7 291.85 252.05 292.45 252.25 295.1 260.95 295.6 261.2 300.95 280.05 299.95 280.3 298.7 293.6 298.25 297.0 Q297.0 306.45 295.15 314.25 291.5 316.3 287.7 316.85 289.25 307.25 290.2 297.3 L290.45 295.9 290.85 292.6 Q291.2 289.15 291.05 286.2 L291.15 284.25 291.0 284.9 Q290.2 287.35 288.5 289.65 L282.35 298.35 Q283.0 295.05 282.15 291.55 281.75 292.45 281.8 293.35 281.9 294.8 281.55 295.75 L281.2 295.65 280.15 295.55 Q279.5 295.4 279.15 294.95 L278.95 292.15 277.55 291.55 277.15 290.95 276.55 290.75 Q273.55 289.55 271.15 288.15 L271.95 285.35 272.95 283.55 272.7 283.4 Q270.75 281.7 268.65 280.45 L268.45 279.75 273.1 276.45 273.65 275.95 275.45 273.3 275.85 272.65 275.35 271.65 275.35 271.35 275.4 271.35 275.35 271.3 275.1 268.45 284.0 267.1 290.45 271.1 290.15 266.7 289.85 266.5 283.95 262.3 M291.7 267.8 L290.15 266.7 291.7 267.8 M277.7 271.8 L275.4 271.35 277.7 271.8 279.2 271.3 278.85 270.95 278.8 271.0 278.2 271.55 277.9 271.7 277.7 271.8 M280.15 269.6 L278.85 270.95 280.15 269.6 M284.7 282.3 L282.95 275.05 279.2 271.3 282.95 275.05 284.7 282.3 M280.45 269.1 Q286.35 271.35 289.0 276.95 L290.15 280.15 Q290.75 282.35 291.0 284.9 290.75 282.35 290.15 280.15 L289.0 276.95 Q286.35 271.35 280.45 269.1 M297.2 277.75 L296.05 274.45 293.4 267.35 293.35 267.2 293.35 267.15 292.55 265.05 291.6 262.7 Q289.05 256.35 287.0 252.5 289.05 256.35 291.6 262.7 L292.55 265.05 293.35 267.15 293.35 267.2 293.4 267.35 296.05 274.45 297.2 277.75 M275.25 305.55 Q276.7 302.35 279.35 300.15 L279.5 300.95 279.45 302.7 276.95 306.45 275.25 305.55" fill="#873a30" fill-rule="evenodd" stroke="none"/>
    <path d="M275.1 268.45 L274.95 266.55 283.95 262.3 289.85 266.5 290.15 266.7 290.45 271.1 284.0 267.1 275.1 268.45" fill="#6d3027" fill-rule="evenodd" stroke="none"/>
    <path d="M275.35 271.35 L275.35 271.3 275.4 271.35 275.35 271.35 M289.4 251.7 L289.35 251.95 289.35 251.7 289.4 251.7" fill="#937544" fill-rule="evenodd" stroke="none"/>
    <path d="M282.35 298.35 L288.5 289.65 Q290.2 287.35 291.0 284.9 L291.05 286.2 Q291.2 289.15 290.85 292.6 L290.45 295.9 290.2 297.3 Q289.45 301.85 287.95 307.1 L287.95 307.2 286.9 310.7 286.8 310.95 284.8 317.0 280.6 316.5 280.6 316.2 Q280.85 313.2 279.8 309.85 L279.8 309.75 279.6 308.15 279.65 308.0 279.6 307.95 279.55 307.95 276.95 306.45 279.45 302.7 279.15 305.15 279.8 304.25 Q281.7 301.4 282.35 298.35 M292.45 252.25 L293.1 252.45 294.35 252.7 295.05 253.05 296.1 253.2 297.95 255.35 Q301.05 258.55 302.45 262.55 L305.6 270.95 307.1 272.45 Q307.3 276.0 306.95 279.25 306.0 288.0 301.85 295.45 L309.1 293.95 305.6 302.5 Q303.6 307.45 299.85 310.8 297.55 312.9 295.15 314.25 297.0 306.45 298.25 297.0 L298.7 293.6 299.95 280.3 300.95 280.05 295.6 261.2 295.1 260.95 292.45 252.25 M301.7 282.8 L300.95 280.05 301.7 282.8 M286.2 295.05 Q285.45 302.65 284.45 306.15 283.9 307.95 283.35 308.7 282.8 309.35 282.2 309.05 L279.85 308.1 279.65 308.0 279.85 308.1 282.2 309.05 Q282.8 309.35 283.35 308.7 283.9 307.95 284.45 306.15 285.45 302.65 286.2 295.05" fill="#592720" fill-rule="evenodd" stroke="none"/>
    <path d="M291.05 286.2 L291.0 284.9 291.15 284.25 291.05 286.2 M279.6 308.15 L279.55 308.0 279.55 307.95 279.6 307.95 279.65 308.0 279.6 308.15 M279.6 307.95 L279.55 307.95 279.6 307.95" fill="#4b3d23" fill-rule="evenodd" stroke="none"/>
    <path d="M290.2 297.3 Q289.25 307.25 287.7 316.85 L284.8 317.0 286.8 310.95 286.9 310.7 287.95 307.2 287.95 307.1 Q289.45 301.85 290.2 297.3" fill="#6a241a" fill-rule="evenodd" stroke="none"/>
    <path d="M283.3 252.7 L283.1 255.05 283.85 262.3 274.85 266.55 275.25 271.3 275.25 271.35 275.25 271.65 275.75 272.65 275.35 273.3 273.55 275.95 273.0 276.45 268.45 279.75 M278.8 271.0 L279.1 271.3 277.9 271.7 M275.25 305.55 L276.95 306.5 279.45 307.95 279.5 307.95 279.45 307.95 279.45 308.0 279.5 308.15 279.7 309.75 279.7 309.85 Q280.75 313.2 280.6 316.2" ffdec:has-small-stroke="true" ffdec:original-stroke-width="0.05" fill="none" stroke="#634527" stroke-linecap="round" stroke-linejoin="round" stroke-width="1.0"/>
    <path d="M283.95 262.3 L283.2 255.05 283.3 252.7 M268.45 279.75 L273.1 276.45 273.65 275.95 275.45 273.3 M275.85 272.65 L275.35 271.65 275.35 271.35 275.35 271.3 275.1 268.45 274.95 266.55 283.95 262.3 289.85 266.5 M290.15 266.7 L291.7 267.8 M275.4 271.35 L277.7 271.8 M278.2 271.55 L278.8 271.0 278.85 270.95 280.15 269.6 M275.35 271.35 L275.4 271.35 M291.0 284.9 Q290.75 282.35 290.15 280.15 L289.0 276.95 Q286.35 271.35 280.45 269.1 M279.2 271.3 L282.95 275.05 284.7 282.3 M292.45 252.25 L295.1 260.95 295.6 261.2 300.95 280.05 301.7 282.8 M287.0 252.5 Q289.05 256.35 291.6 262.7 L292.55 265.05 293.35 267.15 293.35 267.2 293.4 267.35 296.05 274.45 297.2 277.75 M291.05 286.2 Q291.2 289.15 290.85 292.6 L290.45 295.9 290.2 297.3 Q289.45 301.85 287.95 307.1 L287.95 307.2 286.9 310.7 286.8 310.95 284.8 317.0 M295.15 314.25 Q297.0 306.45 298.25 297.0 L298.7 293.6 299.95 280.3 M291.0 284.9 L291.05 286.2 M275.25 305.55 L276.95 306.45 279.55 307.95 279.6 307.95 279.65 308.0 279.85 308.1 282.2 309.05 Q282.8 309.35 283.35 308.7 283.9 307.95 284.45 306.15 285.45 302.65 286.2 295.05 M280.6 316.2 Q280.85 313.2 279.8 309.85 L279.8 309.75 279.6 308.15 279.55 308.0 279.55 307.95 M280.6 316.5 L280.6 316.2" ffdec:has-small-stroke="true" ffdec:original-stroke-width="0.05" fill="none" stroke="#2b0000" stroke-linecap="round" stroke-linejoin="round" stroke-opacity="0.38039216" stroke-width="1.0"/>
  </g>
</svg>
