<?xml version="1.0" encoding="UTF-8" standalone="no"?>
<svg xmlns:ffdec="https://www.free-decompiler.com/flash" xmlns:xlink="http://www.w3.org/1999/xlink" ffdec:objectType="shape" height="92.55px" width="117.65px" xmlns="http://www.w3.org/2000/svg">
  <g transform="matrix(1.0, 0.0, 0.0, 1.0, -216.15, -154.1)">
    <path d="M277.8 168.15 Q277.55 167.55 277.75 166.7 278.2 165.65 278.75 166.25 278.35 163.0 279.0 162.8 279.6 162.65 280.2 164.45 279.8 159.15 281.6 163.25 282.3 160.8 283.15 162.15 L284.25 164.2 284.55 165.0 284.65 164.6 Q284.2 160.4 286.15 162.7 286.5 157.2 287.65 161.8 288.55 159.8 288.85 160.3 L289.25 161.2 289.45 164.25 Q290.7 162.7 291.15 163.65 291.6 164.55 291.25 167.75 292.1 166.35 292.4 167.5 291.9 167.65 291.25 168.1 L290.45 167.25 Q289.55 165.65 288.65 164.75 L287.6 163.95 Q286.05 163.7 285.7 166.0 285.5 167.1 285.55 168.7 285.1 168.0 284.7 168.1 L282.95 165.85 Q281.35 163.5 281.1 167.1 L279.85 167.2 Q279.25 167.1 278.75 168.6 L277.8 168.15 M293.25 162.75 Q293.0 162.15 293.2 161.35 293.65 160.3 294.2 160.9 293.8 157.65 294.45 157.45 295.05 157.3 295.65 159.1 295.25 153.8 297.05 157.9 297.75 155.45 298.6 156.8 L299.7 158.85 300.0 159.65 300.1 159.25 Q299.65 155.05 301.6 157.35 301.95 151.85 303.1 156.45 304.0 154.45 304.3 154.95 L304.7 155.85 304.9 158.9 Q307.35 155.9 306.7 162.4 307.55 161.0 307.85 162.15 307.35 162.3 306.7 162.75 L305.9 161.9 Q304.55 159.45 303.05 158.6 300.95 158.25 301.0 162.75 L301.0 163.35 Q300.55 162.65 300.15 162.75 L298.4 160.5 Q296.8 158.15 296.55 161.75 L295.3 161.85 294.8 162.1 Q294.45 162.4 294.2 163.25 L293.25 162.8 293.25 162.75 M308.55 163.55 Q309.4 163.5 309.55 164.0 L308.4 163.85 308.55 163.55 M277.2 169.7 L277.2 169.4 277.35 169.65 277.5 169.9 277.25 170.05 277.2 169.7 M292.7 164.7 L292.65 164.05 292.95 164.55 292.7 164.7 M293.1 168.9 Q293.95 168.85 294.1 169.35 L292.95 169.2 293.1 168.9 M293.65 170.9 L293.5 171.15 293.35 171.0 293.65 170.9 M308.95 165.8 L308.8 165.65 309.1 165.55 308.95 165.8" fill="#bdf850" fill-rule="evenodd" stroke="none"/>
    <path d="M279.85 167.2 L281.1 167.1 Q281.35 163.5 282.95 165.85 L284.7 168.1 Q284.2 168.15 283.85 169.35 283.1 168.95 282.65 168.85 281.45 168.6 282.7 170.55 L282.45 170.65 282.0 170.8 282.05 170.85 Q280.75 171.65 282.95 172.2 L282.8 172.55 Q281.8 172.1 281.0 172.05 281.25 173.25 280.75 173.95 280.25 173.8 279.5 172.9 L278.2 173.45 Q278.15 172.8 278.6 172.15 L279.35 171.3 279.4 171.25 279.35 171.25 277.7 170.9 Q277.6 170.6 278.85 170.25 L278.1 169.35 278.05 169.15 278.35 169.2 279.45 169.6 280.2 170.15 Q279.45 169.1 279.95 168.5 L280.0 168.45 280.05 168.5 Q280.95 168.8 281.35 169.95 281.55 168.3 282.95 167.75 L282.95 167.7 282.65 167.35 Q282.15 167.25 280.8 168.1 280.3 167.25 279.85 167.2 M285.55 168.7 Q285.5 167.1 285.7 166.0 286.05 163.7 287.6 163.95 L288.65 164.75 Q289.55 165.65 290.45 167.25 289.75 167.0 289.2 168.6 287.45 167.65 287.3 168.2 286.85 168.15 285.7 168.9 L285.55 168.7 M308.85 162.4 L308.55 163.55 308.4 163.85 309.55 164.0 310.3 164.25 309.4 164.85 308.55 165.25 307.9 165.45 308.65 166.3 309.05 167.4 Q307.85 166.75 306.9 166.7 307.15 167.9 306.65 168.6 306.15 168.45 305.4 167.55 L304.1 168.1 Q304.0 167.3 304.7 166.5 L305.3 165.9 304.0 165.8 Q304.95 165.3 304.5 165.0 L304.75 164.9 Q304.05 164.45 303.95 163.8 305.0 163.9 306.1 164.8 L305.7 164.05 Q305.55 163.5 305.9 163.1 306.35 163.25 306.7 163.65 L307.2 164.45 307.25 164.6 307.25 164.55 Q307.4 163.55 307.95 163.0 308.3 162.6 308.85 162.4 M287.6 168.55 L287.55 169.15 287.25 169.9 287.8 170.0 287.25 169.9 287.55 169.15 287.95 169.9 287.8 170.0 288.95 170.25 288.75 170.45 288.15 170.8 287.05 171.25 286.8 171.35 287.25 171.9 287.8 172.95 287.8 173.15 287.8 173.1 Q286.7 172.55 285.85 172.5 286.05 173.6 285.6 174.2 L284.5 173.3 283.3 173.75 283.35 173.35 Q283.4 172.85 283.85 172.35 L284.2 172.0 284.4 171.8 283.45 171.7 282.85 171.45 Q282.8 171.3 283.05 171.2 283.3 171.0 283.9 170.85 L283.7 170.7 283.35 170.3 283.2 169.85 283.85 170.0 284.45 170.3 285.1 170.75 Q284.4 169.8 284.95 169.25 285.8 169.5 286.2 170.6 286.3 169.25 287.35 168.7 L287.6 168.55 M287.85 171.9 L287.6 171.55 287.6 171.5 288.25 171.7 288.15 171.9 287.85 171.9 M288.55 171.15 Q289.5 170.65 289.05 170.35 L289.3 170.25 Q288.6 169.8 288.5 169.15 289.55 169.25 290.65 170.15 289.85 169.1 290.45 168.45 L291.25 169.0 291.75 169.8 291.8 169.95 291.8 169.9 Q291.95 168.9 292.5 168.35 L292.9 168.0 293.4 167.75 293.35 168.15 293.1 168.9 292.95 169.2 294.1 169.35 294.85 169.6 293.95 170.2 292.45 170.8 293.2 171.65 293.6 172.75 Q292.4 172.1 291.45 172.05 291.7 173.25 291.2 173.95 L289.95 172.9 288.65 173.45 Q288.55 172.65 289.25 171.85 L289.85 171.25 288.55 171.15 M282.95 167.75 L282.65 168.85 282.95 167.75 M302.75 162.85 L302.15 163.0 Q301.7 163.15 301.15 163.55 L301.0 163.35 301.0 162.75 Q300.95 158.25 303.05 158.6 304.55 159.45 305.9 161.9 305.2 161.65 304.65 163.25 302.9 162.3 302.75 162.85 M300.15 162.75 Q299.65 162.8 299.3 164.0 L298.1 163.5 Q296.9 163.25 298.15 165.2 L297.9 165.3 297.45 165.45 297.5 165.5 Q296.2 166.3 298.4 166.85 L298.25 167.2 296.45 166.7 Q296.7 167.9 296.2 168.6 L294.95 167.55 293.65 168.1 Q293.6 167.45 294.05 166.8 L294.8 165.95 294.85 165.9 294.8 165.9 293.15 165.55 Q293.05 165.25 294.3 164.9 293.6 164.45 293.5 163.8 294.2 163.85 294.9 164.25 L295.65 164.8 Q294.85 163.75 295.45 163.1 296.4 163.45 296.8 164.6 297.0 162.95 298.4 162.4 L298.4 162.35 298.35 162.25 297.45 162.1 296.25 162.75 Q295.75 161.9 295.3 161.85 L296.55 161.75 Q296.8 158.15 298.4 160.5 L300.15 162.75 M298.75 168.4 L298.8 168.0 299.3 167.0 299.65 166.65 299.85 166.45 298.9 166.35 298.3 166.1 298.5 165.85 299.35 165.5 299.15 165.35 298.8 164.95 298.65 164.5 299.3 164.65 299.9 164.95 300.55 165.4 Q299.85 164.45 300.4 163.9 301.25 164.15 301.65 165.25 301.75 163.9 302.8 163.35 L303.05 163.25 303.05 163.2 303.05 163.25 303.0 163.8 302.7 164.55 303.25 164.65 302.7 164.55 303.0 163.8 303.4 164.55 303.25 164.65 304.4 164.9 304.2 165.1 Q303.65 165.3 303.6 165.45 L302.5 165.9 302.25 166.0 302.7 166.55 303.25 167.6 303.25 167.8 303.25 167.75 Q302.15 167.2 301.3 167.15 301.5 168.25 301.05 168.85 L299.95 167.95 298.75 168.4 M303.3 166.55 L303.05 166.2 303.05 166.15 303.7 166.35 303.6 166.55 303.3 166.55 M298.1 163.5 L298.4 162.4 298.1 163.5" fill="#8ed807" fill-rule="evenodd" stroke="none"/>
    <path d="M277.8 168.15 L278.75 168.6 Q279.25 167.1 279.85 167.2 280.3 167.25 280.8 168.1 282.15 167.25 282.65 167.35 L282.95 167.7 282.95 167.75 Q281.55 168.3 281.35 169.95 280.95 168.8 280.05 168.5 L280.0 168.45 279.95 168.5 Q279.45 169.1 280.2 170.15 L279.45 169.6 278.35 169.2 278.05 169.15 278.1 169.35 278.85 170.25 Q277.6 170.6 277.7 170.9 L279.35 171.25 279.4 171.25 279.35 171.3 278.6 172.15 Q278.15 172.8 278.2 173.45 276.7 173.8 277.8 171.7 275.1 171.05 277.25 170.05 L277.5 169.9 277.35 169.65 277.2 169.4 Q276.2 167.55 277.8 168.15 M284.7 168.1 Q285.1 168.0 285.55 168.7 L285.7 168.9 Q286.85 168.15 287.3 168.2 L287.6 168.55 287.3 168.2 Q287.45 167.65 289.2 168.6 289.75 167.0 290.45 167.25 L291.25 168.1 Q291.9 167.65 292.4 167.5 L292.85 167.35 Q293.35 167.25 293.4 167.7 L293.4 167.75 293.4 167.7 Q293.35 167.25 292.85 167.35 L293.25 166.35 Q290.55 165.7 292.7 164.7 L292.95 164.55 292.65 164.05 292.3 163.15 Q292.15 162.4 293.2 162.8 L293.25 162.8 294.2 163.25 Q294.45 162.4 294.8 162.1 L295.3 161.85 Q295.75 161.9 296.25 162.75 L297.45 162.1 298.35 162.25 298.4 162.35 298.4 162.4 Q297.0 162.95 296.8 164.6 296.4 163.45 295.45 163.1 294.85 163.75 295.65 164.8 L294.9 164.25 Q294.2 163.85 293.5 163.8 293.6 164.45 294.3 164.9 293.05 165.25 293.15 165.55 L294.8 165.9 294.85 165.9 294.8 165.95 294.05 166.8 Q293.6 167.45 293.65 168.1 L293.35 168.15 293.4 167.75 292.9 168.0 292.5 168.35 Q291.95 168.9 291.8 169.9 L291.8 169.95 291.75 169.8 291.25 169.0 290.45 168.45 Q289.85 169.1 290.65 170.15 289.55 169.25 288.5 169.15 288.6 169.8 289.3 170.25 L289.05 170.35 288.95 170.25 287.8 170.0 287.95 169.9 287.55 169.15 287.6 168.55 287.35 168.7 Q286.3 169.25 286.2 170.6 285.8 169.5 284.95 169.25 284.4 169.8 285.1 170.75 L284.45 170.3 283.85 170.0 283.2 169.85 283.35 170.3 283.7 170.7 283.9 170.85 Q283.3 171.0 283.05 171.2 282.8 171.3 282.85 171.45 L283.45 171.7 284.4 171.8 284.2 172.0 283.85 172.35 Q283.4 172.85 283.35 173.35 L283.3 173.75 Q282.4 173.95 282.55 173.2 L282.8 172.55 282.95 172.2 Q280.75 171.65 282.05 170.85 L282.45 170.65 282.7 170.55 Q281.45 168.6 282.65 168.85 283.1 168.95 283.85 169.35 284.2 168.15 284.7 168.1 M307.85 162.15 Q308.75 161.75 308.85 162.35 L308.85 162.4 Q308.3 162.6 307.95 163.0 307.4 163.55 307.25 164.55 L307.25 164.6 307.2 164.45 306.7 163.65 Q306.35 163.25 305.9 163.1 305.55 163.5 305.7 164.05 L306.1 164.8 Q305.0 163.9 303.95 163.8 304.05 164.45 304.75 164.9 L304.5 165.0 304.4 164.9 303.25 164.65 303.4 164.55 303.0 163.8 303.05 163.25 303.05 163.2 303.05 163.25 302.8 163.35 Q301.75 163.9 301.65 165.25 301.25 164.15 300.4 163.9 299.85 164.45 300.55 165.4 L299.9 164.95 299.3 164.65 298.65 164.5 298.8 164.95 299.15 165.35 299.35 165.5 298.5 165.85 298.3 166.1 298.9 166.35 299.85 166.45 299.65 166.65 299.3 167.0 298.8 168.0 298.75 168.4 Q297.85 168.6 298.0 167.85 L298.25 167.2 298.4 166.85 Q296.2 166.3 297.5 165.5 L297.9 165.3 298.15 165.2 Q296.9 163.25 298.1 163.5 L299.3 164.0 Q299.65 162.8 300.15 162.75 300.55 162.65 301.0 163.35 L301.15 163.55 Q301.7 163.15 302.15 163.0 L302.75 162.85 Q303.0 162.9 303.05 163.2 303.0 162.9 302.75 162.85 302.9 162.3 304.65 163.25 305.2 161.65 305.9 161.9 L306.7 162.75 Q307.35 162.3 307.85 162.15 M287.6 171.5 L288.55 171.15 289.85 171.25 289.25 171.85 Q288.55 172.65 288.65 173.45 L288.6 173.45 Q288.7 173.05 288.05 172.15 L288.15 171.9 288.25 171.7 287.6 171.5 M303.05 166.15 L304.0 165.8 305.3 165.9 304.7 166.5 Q304.0 167.3 304.1 168.1 L304.05 168.1 Q304.15 167.7 303.5 166.8 L303.6 166.55 303.7 166.35 303.05 166.15" fill="#bbfa47" fill-rule="evenodd" stroke="none"/>
    <path d="M292.4 167.5 Q292.1 166.35 291.25 167.75 291.6 164.55 291.15 163.65 L292.3 163.15 292.65 164.05 292.7 164.7 Q290.55 165.7 293.25 166.35 L292.85 167.35 292.4 167.5 M293.2 162.8 L293.25 162.75 293.25 162.8 293.2 162.8 M309.15 165.55 Q313.6 167.8 316.2 171.45 L293.95 180.55 Q288.25 182.85 282.6 185.2 280.7 181.9 277.6 180.2 273.7 178.05 267.85 178.3 270.8 180.1 272.55 182.15 275.75 185.75 275.05 190.0 L245.2 204.05 Q241.5 198.7 236.75 196.05 233.5 194.2 229.75 193.55 226.35 193.0 222.6 193.4 L277.2 169.7 277.25 170.05 Q275.1 171.05 277.8 171.7 276.7 173.8 278.2 173.45 L279.5 172.9 Q280.25 173.8 280.75 173.95 L280.8 173.95 Q281.45 174.15 281.5 172.85 L282.55 173.2 Q282.4 173.95 283.3 173.75 L284.5 173.3 285.6 174.2 285.65 174.25 Q286.25 174.4 286.3 173.25 L288.6 173.45 288.65 173.45 289.95 172.9 291.2 173.95 291.25 173.95 Q291.9 174.15 291.95 172.85 296.1 174.4 293.5 171.15 L293.65 170.9 Q295.8 170.0 294.85 169.6 L294.1 169.35 Q293.95 168.85 293.1 168.9 L293.35 168.15 293.65 168.1 294.95 167.55 296.2 168.6 296.25 168.6 Q296.9 168.8 296.95 167.5 L298.0 167.85 Q297.85 168.6 298.75 168.4 L299.95 167.95 301.05 168.85 301.1 168.9 Q301.7 169.05 301.75 167.9 303.85 168.65 304.05 168.1 L304.1 168.1 305.4 167.55 Q306.15 168.45 306.65 168.6 L306.7 168.6 Q307.35 168.8 307.4 167.5 311.55 169.05 308.95 165.8 L309.1 165.55 309.15 165.55 M316.75 192.9 L332.7 183.1 Q332.15 197.65 324.8 207.15 L263.75 245.55 Q272.75 234.55 268.9 225.65 L298.05 207.15 292.4 223.75 Q304.3 210.3 307.15 197.85 L316.75 192.9 M288.05 172.15 L287.85 171.9 288.15 171.9 288.05 172.15 M303.3 166.55 L303.6 166.55 303.5 166.8 303.3 166.55" fill="#e0c734" fill-rule="evenodd" stroke="none"/>
    <path d="M310.3 164.25 Q311.25 164.65 309.15 165.55 L309.1 165.55 308.8 165.65 308.95 165.8 Q311.55 169.05 307.4 167.5 307.35 168.8 306.7 168.6 L306.65 168.6 Q307.15 167.9 306.9 166.7 307.85 166.75 309.05 167.4 L308.65 166.3 307.9 165.45 308.55 165.25 309.4 164.85 310.3 164.25 M285.6 174.2 Q286.05 173.6 285.85 172.5 286.7 172.55 287.8 173.1 L287.8 173.15 287.8 172.95 287.25 171.9 286.8 171.35 287.05 171.25 288.15 170.8 288.75 170.45 288.95 170.25 289.05 170.35 Q289.5 170.65 288.55 171.15 L287.6 171.5 287.6 171.55 287.85 171.9 288.05 172.15 Q288.7 173.05 288.6 173.45 L286.3 173.25 Q286.25 174.4 285.65 174.25 L285.6 174.2 M282.45 170.65 L282.05 170.85 282.0 170.8 282.45 170.65 M282.8 172.55 L282.55 173.2 281.5 172.85 Q281.45 174.15 280.8 173.95 L280.75 173.95 Q281.25 173.25 281.0 172.05 281.8 172.1 282.8 172.55 M297.9 165.3 L297.5 165.5 297.45 165.45 297.9 165.3 M298.25 167.2 L298.0 167.85 296.95 167.5 Q296.9 168.8 296.25 168.6 L296.2 168.6 Q296.7 167.9 296.45 166.7 L298.25 167.2 M301.05 168.85 Q301.5 168.25 301.3 167.15 302.15 167.2 303.25 167.75 L303.25 167.8 303.25 167.6 302.7 166.55 302.25 166.0 302.5 165.9 303.6 165.45 Q303.65 165.3 304.2 165.1 L304.4 164.9 304.5 165.0 Q304.95 165.3 304.0 165.8 L303.05 166.15 303.05 166.2 303.3 166.55 303.5 166.8 Q304.15 167.7 304.05 168.1 303.85 168.65 301.75 167.9 301.7 169.05 301.1 168.9 L301.05 168.85 M294.85 169.6 Q295.8 170.0 293.65 170.9 L293.35 171.0 293.5 171.15 Q296.1 174.4 291.95 172.85 291.9 174.15 291.25 173.95 L291.2 173.95 Q291.7 173.25 291.45 172.05 292.4 172.1 293.6 172.75 L293.2 171.65 292.45 170.8 293.95 170.2 294.85 169.6" fill="#7ab906" fill-rule="evenodd" stroke="none"/>
    <path d="M293.95 180.55 Q296.2 183.9 299.4 186.4 L222.6 221.95 218.15 218.1 Q216.75 209.35 217.55 203.5 L236.75 196.05 Q241.5 198.7 245.2 204.05 L275.05 190.0 Q275.75 185.75 272.55 182.15 L277.6 180.2 Q280.7 181.9 282.6 185.2 288.25 182.85 293.95 180.55 M305.25 189.8 L307.3 190.65 238.8 233.85 230.85 228.45 305.25 189.8" fill="#4f450d" fill-rule="evenodd" stroke="none"/>
    <path d="M299.4 186.4 Q302.0 188.35 305.25 189.8 L230.85 228.45 229.75 227.65 222.6 221.95 299.4 186.4 M307.3 190.65 Q311.55 192.2 316.75 192.9 L307.15 197.85 Q304.3 210.3 292.4 223.75 L298.05 207.15 268.9 225.65 Q272.75 234.55 263.75 245.55 251.4 241.85 238.8 233.85 L307.3 190.65 M217.55 203.5 Q218.45 196.25 222.6 193.4 226.35 193.0 229.75 193.55 233.5 194.2 236.75 196.05 L217.55 203.5 M277.6 180.2 L272.55 182.15 Q270.8 180.1 267.85 178.3 273.7 178.05 277.6 180.2" fill="#6c5f11" fill-rule="evenodd" stroke="none"/>
    <path d="M291.15 163.65 Q290.7 162.7 289.45 164.25 L289.25 161.2 288.85 160.3 Q288.55 159.8 287.65 161.8 286.5 157.2 286.15 162.7 284.2 160.4 284.65 164.6 L284.55 165.0 284.25 164.2 283.15 162.15 Q282.3 160.8 281.6 163.25 279.8 159.15 280.2 164.45 279.6 162.65 279.0 162.8 278.35 163.0 278.75 166.25 278.2 165.65 277.75 166.7 277.55 167.55 277.8 168.15 M292.4 167.5 Q292.1 166.35 291.25 167.75 291.6 164.55 291.15 163.65 M293.25 162.75 Q293.0 162.15 293.2 161.35 293.65 160.3 294.2 160.9 293.8 157.65 294.45 157.45 295.05 157.3 295.65 159.1 295.25 153.8 297.05 157.9 297.75 155.45 298.6 156.8 L299.7 158.85 300.0 159.65 300.1 159.25 Q299.65 155.05 301.6 157.35 301.95 151.85 303.1 156.45 304.0 154.45 304.3 154.95 L304.7 155.85 304.9 158.9 Q307.35 155.9 306.7 162.4 307.55 161.0 307.85 162.15 M308.55 163.55 Q309.4 163.5 309.55 164.0 M277.2 169.7 L277.2 169.4 M277.2 169.7 L277.25 170.05 M292.65 164.05 L292.7 164.7 M293.25 162.75 L293.25 162.8 M294.1 169.35 Q293.95 168.85 293.1 168.9 M293.65 170.9 L293.5 171.15 M308.95 165.8 L309.1 165.55" ffdec:has-small-stroke="true" ffdec:original-stroke-width="0.5" fill="none" stroke="#89ce09" stroke-linecap="round" stroke-linejoin="round" stroke-width="1.0"/>
    <path d="M277.8 168.15 L278.75 168.6 Q279.25 167.1 279.85 167.2 280.3 167.25 280.8 168.1 282.15 167.25 282.65 167.35 L282.95 167.7 282.95 167.75 282.65 168.85 Q281.45 168.6 282.7 170.55 L282.45 170.65 282.05 170.85 Q280.75 171.65 282.95 172.2 L282.8 172.55 282.55 173.2 Q282.4 173.95 283.3 173.75 L284.5 173.3 285.6 174.2 M284.7 168.1 Q285.1 168.0 285.55 168.7 L285.7 168.9 Q286.85 168.15 287.3 168.2 L287.6 168.55 287.55 169.15 287.95 169.9 287.8 170.0 287.25 169.9 287.55 169.15 M290.45 167.25 L291.25 168.1 Q291.9 167.65 292.4 167.5 L292.85 167.35 Q293.35 167.25 293.4 167.7 L293.4 167.75 293.35 168.15 293.65 168.1 294.95 167.55 296.2 168.6 M292.3 163.15 Q292.15 162.4 293.2 162.8 L293.25 162.8 294.2 163.25 Q294.45 162.4 294.8 162.1 L295.3 161.85 Q295.75 161.9 296.25 162.75 L297.45 162.1 298.35 162.25 298.4 162.35 298.4 162.4 298.1 163.5 Q296.9 163.25 298.15 165.2 L297.9 165.3 297.5 165.5 Q296.2 166.3 298.4 166.85 L298.25 167.2 298.0 167.85 Q297.85 168.6 298.75 168.4 L299.95 167.95 301.05 168.85 M307.85 162.15 Q308.75 161.75 308.85 162.35 L308.85 162.4 308.55 163.55 308.4 163.85 309.55 164.0 310.3 164.25 Q311.25 164.65 309.15 165.55 L309.1 165.55 308.8 165.65 308.95 165.8 Q311.55 169.05 307.4 167.5 307.35 168.8 306.7 168.6 M277.2 169.4 Q276.2 167.55 277.8 168.15 M277.25 170.05 L277.5 169.9 277.35 169.65 277.2 169.4 M277.25 170.05 Q275.1 171.05 277.8 171.7 276.7 173.8 278.2 173.45 L279.5 172.9 Q280.25 173.8 280.75 173.95 M288.95 170.25 L287.8 170.0 M284.7 168.1 Q284.2 168.15 283.85 169.35 283.1 168.95 282.65 168.85 M287.85 171.9 L287.6 171.55 287.6 171.5 288.55 171.15 Q289.5 170.65 289.05 170.35 L288.95 170.25 M280.8 173.95 Q281.45 174.15 281.5 172.85 L282.55 173.2 M285.65 174.25 Q286.25 174.4 286.3 173.25 L288.6 173.45 Q288.7 173.05 288.05 172.15 L287.85 171.9 M288.15 171.9 L288.25 171.7 287.6 171.5 M302.75 162.85 L302.15 163.0 Q301.7 163.15 301.15 163.55 L301.0 163.35 Q300.55 162.65 300.15 162.75 299.65 162.8 299.3 164.0 L298.1 163.5 M303.05 163.2 Q303.0 162.9 302.75 162.85 302.9 162.3 304.65 163.25 305.2 161.65 305.9 161.9 L306.7 162.75 Q307.35 162.3 307.85 162.15 M303.25 164.65 L302.7 164.55 303.0 163.8 303.05 163.25 303.05 163.2 M304.4 164.9 L303.25 164.65 303.4 164.55 303.0 163.8 M303.3 166.55 L303.05 166.2 303.05 166.15 304.0 165.8 Q304.95 165.3 304.5 165.0 L304.4 164.9 M304.1 168.1 L305.4 167.55 Q306.15 168.45 306.65 168.6 M292.7 164.7 L292.95 164.55 292.65 164.05 292.3 163.15 M296.25 168.6 Q296.9 168.8 296.95 167.5 L298.0 167.85 M293.1 168.9 L292.95 169.2 294.1 169.35 294.85 169.6 Q295.8 170.0 293.65 170.9 L293.35 171.0 293.5 171.15 Q296.1 174.4 291.95 172.85 291.9 174.15 291.25 173.95 M291.2 173.95 L289.95 172.9 288.65 173.45 288.6 173.45 M293.1 168.9 L293.35 168.15 M290.45 167.25 Q289.75 167.0 289.2 168.6 287.45 167.65 287.3 168.2 M288.15 171.9 L288.05 172.15 M292.7 164.7 Q290.55 165.7 293.25 166.35 L292.85 167.35 M303.3 166.55 L303.5 166.8 303.6 166.55 303.7 166.35 303.05 166.15 M304.05 168.1 L304.1 168.1 M303.5 166.8 Q304.15 167.7 304.05 168.1 303.85 168.65 301.75 167.9 301.7 169.05 301.1 168.9" ffdec:has-small-stroke="true" ffdec:original-stroke-width="0.5" fill="none" stroke="#6aa005" stroke-linecap="round" stroke-linejoin="round" stroke-width="1.0"/>
    <path d="M291.15 163.65 L292.3 163.15 M293.2 162.8 L293.25 162.75 M309.15 165.55 Q313.6 167.8 316.2 171.45 L293.95 180.55 Q296.2 183.9 299.4 186.4 302.0 188.35 305.25 189.8 L307.3 190.65 Q311.55 192.2 316.75 192.9 L332.7 183.1 Q332.15 197.65 324.8 207.15 L263.75 245.55 Q251.4 241.85 238.8 233.85 L230.85 228.45 229.75 227.65 222.6 221.95 218.15 218.1 Q216.75 209.35 217.55 203.5 218.45 196.25 222.6 193.4 L277.2 169.7 M277.6 180.2 Q273.7 178.05 267.85 178.3 270.8 180.1 272.55 182.15 275.75 185.75 275.05 190.0 L245.2 204.05 Q241.5 198.7 236.75 196.05 233.5 194.2 229.75 193.55 226.35 193.0 222.6 193.4 M277.6 180.2 Q280.7 181.9 282.6 185.2 288.25 182.85 293.95 180.55 M263.75 245.55 Q272.75 234.55 268.9 225.65 L298.05 207.15 292.4 223.75 Q304.3 210.3 307.15 197.85 L316.75 192.9" fill="none" stroke="#af991b" stroke-linecap="round" stroke-linejoin="round" stroke-width="2.25"/>
    <path d="M287.85 171.9 L288.15 171.9 M303.6 166.55 L303.3 166.55" ffdec:has-small-stroke="true" ffdec:original-stroke-width="0.5" fill="none" stroke="#8ed807" stroke-linecap="round" stroke-linejoin="round" stroke-width="1.0"/>
  </g>
</svg>
