<?xml version="1.0" encoding="UTF-8" standalone="no"?>
<svg xmlns:ffdec="https://www.free-decompiler.com/flash" xmlns:xlink="http://www.w3.org/1999/xlink" ffdec:objectType="shape" height="47.8px" width="31.15px" xmlns="http://www.w3.org/2000/svg">
  <g transform="matrix(1.0, 0.0, 0.0, 1.0, -1.6, -20.95)">
    <path d="M11.1 28.35 L12.5 26.25 12.1 25.5 12.3 25.35 13.15 27.3 13.0 27.35 11.95 29.7 11.1 28.35 M15.8 36.0 L15.95 36.1 17.95 36.05 17.6 38.2 16.2 38.25 15.8 36.0 M30.95 27.55 L30.2 35.9 30.15 36.35 28.0 36.95 27.7 37.05 27.85 36.85 Q28.1 36.35 27.25 35.6 L26.6 34.1 Q25.85 33.45 24.85 34.7 24.2 35.35 23.5 36.75 L23.2 37.4 23.0 36.9 23.0 36.85 23.6 34.25 23.45 32.3 23.6 31.8 28.0 28.65 28.6 28.95 28.6 29.0 28.75 28.7 29.4 27.95 30.95 27.55" fill="#a68a63" fill-rule="evenodd" stroke="none"/>
    <path d="M17.95 36.05 L20.25 36.35 21.2 35.85 21.2 35.4 22.25 29.05 23.6 31.8 23.45 32.3 21.6 38.8 21.5 37.5 20.55 38.0 17.6 38.2 17.95 36.05 M26.6 26.0 L28.0 27.45 28.3 25.45 29.4 27.95 28.75 28.7 28.6 28.95 28.0 28.65 26.6 26.0" fill="#856e4f" fill-rule="evenodd" stroke="none"/>
    <path d="M9.9 20.95 L7.45 24.25 6.15 23.8 6.4 25.65 6.15 23.8 7.45 24.25 8.95 24.75 9.1 28.7 6.6 27.7 6.4 25.7 6.4 25.65 6.35 25.7 5.4 24.1 7.25 21.0 9.9 20.95 M1.6 25.65 L1.7 22.1 4.9 23.25 5.3 27.2 1.6 25.65 M22.25 29.05 L26.5 26.2 26.6 26.0 28.0 28.65 23.6 31.8 22.25 29.05 M28.3 25.45 L29.9 25.3 30.95 27.55 29.4 27.95 28.3 25.45" fill="#dbba83" fill-rule="evenodd" stroke="none"/>
    <path d="M30.2 35.9 L32.65 62.25 31.15 61.35 Q32.1 53.5 30.3 51.5 29.4 50.3 29.35 52.2 24.05 44.55 29.15 63.45 L26.5 65.9 26.2 66.7 24.65 68.75 23.9 64.95 24.6 57.95 24.45 53.65 23.35 51.0 22.2 48.5 21.6 42.3 Q22.55 42.6 23.5 41.85 27.8 50.8 28.75 37.75 L28.0 36.95 30.15 36.35 30.2 35.9" fill="#a6865b" fill-rule="evenodd" stroke="none"/>
    <path d="M21.6 42.3 L21.75 38.75 21.6 38.8 23.45 32.3 23.6 34.25 23.0 36.85 23.0 36.9 23.2 37.4 23.5 36.75 Q24.2 35.35 24.85 34.7 25.85 33.45 26.6 34.1 L27.25 35.6 Q28.1 36.35 27.85 36.85 L27.7 37.05 28.0 36.95 28.75 37.75 Q27.8 50.8 23.5 41.85 22.55 42.6 21.6 42.3" fill="#a89d0b" fill-rule="evenodd" stroke="none"/>
    <path d="M32.65 62.25 L32.75 63.45 26.2 66.7 26.5 65.9 29.15 63.45 Q24.05 44.55 29.35 52.2 29.4 50.3 30.3 51.5 32.1 53.5 31.15 61.35 L32.65 62.25" fill="#a8a532" fill-rule="evenodd" stroke="none"/>
    <path d="M23.35 51.0 L24.45 53.65 24.6 57.95 23.9 64.95 23.35 51.0" fill="#948258" fill-rule="evenodd" stroke="none"/>
    <path d="M18.9 67.25 L17.85 68.3 16.05 51.9 17.45 55.0 18.9 67.25" fill="#b39039" fill-rule="evenodd" stroke="none"/>
    <path d="M7.45 24.25 L9.9 20.95 12.1 25.5 12.5 26.25 11.1 28.35 8.95 24.75 7.45 24.25 M6.35 25.7 L6.4 25.65 6.4 25.7 6.35 25.7" fill="#82684e" fill-rule="evenodd" stroke="none"/>
    <path d="M28.75 28.7 L28.6 29.0 28.6 28.95 28.75 28.7" fill="#774f26" fill-rule="evenodd" stroke="none"/>
    <path d="M5.4 24.1 L6.35 25.7 6.4 25.7 6.6 27.7 6.55 27.7 8.2 30.1 5.3 27.2 4.9 23.25 4.95 23.25 5.4 24.1 M8.95 24.75 L11.1 28.35 11.95 29.7 15.75 35.9 15.8 36.0 16.2 38.25 16.6 39.85 10.85 31.4 9.1 28.7 8.95 24.75" fill="#b8956e" fill-rule="evenodd" stroke="none"/>
    <path d="M1.6 25.65 L5.3 27.2 8.2 30.1 6.55 27.7 6.6 27.7 9.1 28.7 10.85 31.4 9.55 31.3 9.25 31.2 9.0 31.15 7.1 31.3 Q6.8 31.65 8.2 33.15 L9.2 35.35 8.05 34.65 7.35 34.2 1.6 25.65" fill="#c4a475" fill-rule="evenodd" stroke="none"/>
    <path d="M17.85 68.3 L11.95 62.65 10.85 52.4 9.8 45.75 8.05 34.65 9.2 35.35 9.65 35.65 10.15 41.9 11.2 44.15 11.35 47.85 Q14.85 50.2 13.4 43.95 14.45 46.9 14.75 41.15 L16.05 51.9 17.85 68.3 M9.8 45.75 L10.15 41.9 9.8 45.75 M13.1 54.75 L11.35 47.85 13.1 54.75" fill="url(#gradient0)" fill-rule="evenodd" stroke="none"/>
    <path d="M24.65 68.75 L18.9 67.25 17.45 55.0 16.05 51.9 14.75 41.15 15.0 38.9 16.6 39.85 16.2 38.25 17.6 38.2 18.2 40.5 20.3 41.25 21.1 47.7 22.2 48.5 23.35 51.0 23.9 64.95 24.65 68.75" fill="url(#gradient1)" fill-rule="evenodd" stroke="none"/>
    <path d="M9.2 35.35 L8.2 33.15 Q6.8 31.65 7.1 31.3 L9.0 31.15 9.25 31.2 9.55 31.3 10.85 31.4 16.6 39.85 15.0 38.9 14.75 41.15 Q14.45 46.9 13.4 43.95 14.85 50.2 11.35 47.85 L11.2 44.15 10.15 41.9 9.65 35.65 9.2 35.35" fill="url(#gradient2)" fill-rule="evenodd" stroke="none"/>
    <path d="M22.2 48.5 L21.1 47.7 20.3 41.25 18.2 40.5 17.6 38.2 20.55 38.0 21.5 37.5 21.6 38.8 21.75 38.75 21.6 42.3 22.2 48.5" fill="url(#gradient3)" fill-rule="evenodd" stroke="none"/>
    <path d="M9.9 20.95 L7.25 21.0 5.4 24.1 6.35 25.7 6.4 25.7 6.4 25.65 6.15 23.8 7.45 24.25 8.95 24.75 M12.5 26.25 L12.1 25.5 9.9 20.95 M4.9 23.25 L1.7 22.1 1.6 25.65 7.35 34.2 M4.9 23.25 L4.95 23.25 5.4 24.1 M12.1 25.5 L12.3 25.35 M22.25 29.05 L26.5 26.2 26.6 26.0 28.0 28.65 M28.0 27.45 L28.3 25.45 29.9 25.3 30.95 27.55 30.2 35.9 30.15 36.35 M17.85 68.3 L11.95 62.65 M10.85 52.4 L9.8 45.75 8.05 34.65 M8.2 30.1 L5.3 27.2 M14.75 41.15 L15.0 38.9 M28.6 29.0 L28.6 28.95 28.75 28.7 M23.35 51.0 L23.9 64.95 M16.05 51.9 L14.75 41.15 M22.2 48.5 L23.35 51.0" ffdec:has-small-stroke="true" ffdec:original-stroke-width="0.05" fill="none" stroke="#52341b" stroke-linecap="round" stroke-linejoin="round" stroke-opacity="0.6" stroke-width="1.0"/>
    <path d="M9.65 35.65 L10.15 41.9 11.2 44.15 11.35 47.85 13.1 54.75 M10.15 41.9 L9.8 45.75" ffdec:has-small-stroke="true" ffdec:original-stroke-width="0.05" fill="none" stroke="#b37f39" stroke-linecap="round" stroke-linejoin="round" stroke-width="1.0"/>
    <path d="M30.2 35.9 L32.65 62.25 M26.2 66.7 L24.65 68.75 M28.0 36.95 L28.75 37.75" ffdec:has-small-stroke="true" ffdec:original-stroke-width="0.05" fill="none" stroke="#775f26" stroke-linecap="round" stroke-linejoin="round" stroke-width="1.0"/>
    <path d="M32.65 62.25 L32.75 63.45 26.2 66.7 M24.65 68.75 L18.9 67.25 17.85 68.3" ffdec:has-small-stroke="true" ffdec:original-stroke-width="0.05" fill="none" stroke="#4f3619" stroke-linecap="round" stroke-linejoin="round" stroke-width="1.0"/>
    <path d="M28.1 29.0 Q28.45 29.55 28.6 31.9 30.05 29.55 30.8 29.1 M28.6 31.9 L28.3 32.45" ffdec:has-small-stroke="true" ffdec:original-stroke-width="0.25" fill="none" stroke="#665631" stroke-linecap="round" stroke-linejoin="round" stroke-width="1.0"/>
  </g>
  <defs>
    <linearGradient gradientTransform="matrix(-0.0025, 0.0177, -0.0166, -0.0023, 12.95, 55.8)" gradientUnits="userSpaceOnUse" id="gradient0" spreadMethod="pad" x1="-819.2" x2="819.2">
      <stop offset="0.0" stop-color="#c4a475"/>
      <stop offset="1.0" stop-color="#dbba83"/>
      <stop offset="1.0" stop-color="#836753"/>
    </linearGradient>
    <linearGradient gradientTransform="matrix(0.0014, -0.022, 0.0186, 0.0012, 19.7, 53.45)" gradientUnits="userSpaceOnUse" id="gradient1" spreadMethod="pad" x1="-819.2" x2="819.2">
      <stop offset="0.0" stop-color="#a6865b"/>
      <stop offset="1.0" stop-color="#dbba83"/>
      <stop offset="1.0" stop-color="#836753"/>
    </linearGradient>
    <radialGradient cx="0" cy="0" gradientTransform="matrix(0.0167, 0.0, 0.0, 0.0167, 11.8, 39.75)" gradientUnits="userSpaceOnUse" id="gradient2" r="819.2" spreadMethod="pad">
      <stop offset="0.0" stop-color="#a89d0b"/>
      <stop offset="1.0" stop-color="#dbba83"/>
      <stop offset="1.0" stop-color="#836753"/>
    </radialGradient>
    <radialGradient cx="0" cy="0" gradientTransform="matrix(0.012, 0.0, 0.0, 0.012, 21.1, 40.4)" gradientUnits="userSpaceOnUse" id="gradient3" r="819.2" spreadMethod="pad">
      <stop offset="0.0" stop-color="#877a0a"/>
      <stop offset="1.0" stop-color="#dbba83"/>
      <stop offset="1.0" stop-color="#836753"/>
    </radialGradient>
  </defs>
</svg>
