<?xml version="1.0" encoding="UTF-8" standalone="no"?>
<svg xmlns:ffdec="https://www.free-decompiler.com/flash" xmlns:xlink="http://www.w3.org/1999/xlink" ffdec:objectType="shape" height="11.25px" width="11.1px" xmlns="http://www.w3.org/2000/svg">
  <g transform="matrix(1.0, 0.0, 0.0, 1.0, 0.0, 0.0)">
    <path d="M6.55 0.0 L6.6 0.0 Q7.1 1.1 6.95 2.55 L6.1 2.6 6.45 0.05 6.55 0.0" fill="#173335" fill-rule="evenodd" stroke="none"/>
    <path d="M6.45 0.05 L6.1 2.6 5.3 2.35 5.95 0.8 6.45 0.05" fill="#122928" fill-rule="evenodd" stroke="none"/>
    <path d="M6.95 2.55 Q7.1 1.1 6.6 0.0 L6.55 0.0 M6.45 0.05 L5.95 0.8 5.3 2.35" ffdec:has-small-stroke="true" ffdec:original-stroke-width="0.05" fill="none" stroke="#000000" stroke-linecap="round" stroke-linejoin="round" stroke-opacity="0.4509804" stroke-width="1.0"/>
    <path d="M2.25 2.55 L2.3 2.5 Q3.7 1.6 5.55 1.6 L6.75 1.7 Q5.35 1.7 4.35 2.3 3.25 2.9 3.25 3.8 3.25 4.7 4.35 5.3 5.45 5.95 6.95 5.95 8.5 5.95 9.6 5.35 L10.6 4.35 10.7 4.55 11.0 5.5 11.1 6.45 11.1 6.7 10.9 7.85 Q7.05 12.65 0.2 7.75 L0.0 6.7 0.0 6.45 0.1 5.5 0.4 4.55 0.8 3.9 0.95 3.7 1.25 3.35 1.4 3.2 Q1.5 3.1 1.55 3.1 L2.25 2.55 1.65 3.0 1.55 3.1 1.65 3.0 2.25 2.55" fill="#0d1b1e" fill-rule="evenodd" stroke="none"/>
    <path d="M9.45 3.0 L9.5 3.0 9.7 3.25 9.45 3.0" fill="#265059" fill-rule="evenodd" stroke="none"/>
    <path d="M0.2 7.75 Q7.05 12.65 10.9 7.85 10.5 8.95 9.5 9.85 7.85 11.25 5.55 11.25 3.25 11.25 1.65 9.85 0.55 8.95 0.2 7.75" fill="#050b0c" fill-rule="evenodd" stroke="none"/>
    <path d="M10.6 4.35 L9.6 5.35 Q8.5 5.95 6.95 5.95 5.45 5.95 4.35 5.3 3.25 4.7 3.25 3.8 3.25 2.9 4.35 2.3 5.35 1.7 6.75 1.7 7.9 1.9 8.9 2.55 L9.45 3.0 9.7 3.25 9.75 3.3 9.95 3.5 10.15 3.75 10.6 4.35" fill="#173335" fill-rule="evenodd" stroke="none"/>
    <path d="M6.75 1.7 L5.55 1.6 Q3.7 1.6 2.3 2.5 L2.25 2.55 1.65 3.0 1.55 3.1 Q1.5 3.1 1.4 3.2 L1.25 3.35 0.95 3.7 0.8 3.9 0.4 4.55 0.1 5.5 0.0 6.45 0.0 6.7 0.2 7.75 Q0.55 8.95 1.65 9.85 3.25 11.25 5.55 11.25 7.85 11.25 9.5 9.85 10.5 8.95 10.9 7.85 L11.1 6.7 11.1 6.45 11.0 5.5 10.7 4.55 10.6 4.35 10.15 3.75 9.95 3.5 9.75 3.3 9.7 3.25 9.5 3.0 9.45 3.0 8.9 2.55 Q7.9 1.9 6.75 1.7 Z" ffdec:has-small-stroke="true" ffdec:original-stroke-width="0.05" fill="none" stroke="#000000" stroke-linecap="round" stroke-linejoin="round" stroke-opacity="0.4509804" stroke-width="1.0"/>
    <path d="M1.6 1.7 L1.55 1.55 Q1.85 1.35 3.65 3.5 L3.4 3.8 2.9 4.05 1.6 1.7" fill="#173335" fill-rule="evenodd" stroke="none"/>
    <path d="M2.9 4.05 L2.2 4.15 Q1.95 3.65 1.85 3.15 L1.6 1.7 2.9 4.05" fill="#122928" fill-rule="evenodd" stroke="none"/>
    <path d="M1.55 1.55 Q1.85 1.35 3.65 3.5 M2.2 4.15 Q1.95 3.65 1.85 3.15 L1.6 1.7" ffdec:has-small-stroke="true" ffdec:original-stroke-width="0.05" fill="none" stroke="#000000" stroke-linecap="round" stroke-linejoin="round" stroke-opacity="0.4509804" stroke-width="1.0"/>
  </g>
</svg>
