<?xml version="1.0" encoding="UTF-8" standalone="no"?>
<svg xmlns:ffdec="https://www.free-decompiler.com/flash" xmlns:xlink="http://www.w3.org/1999/xlink" ffdec:objectType="shape" height="120.55px" width="117.35px" xmlns="http://www.w3.org/2000/svg">
  <g transform="matrix(1.0, 0.0, 0.0, 1.0, -214.8, -124.35)">
    <path d="M314.85 179.7 L314.65 179.7 315.65 180.3 Q318.35 181.75 320.15 184.6 L320.4 185.0 313.4 185.0 Q316.9 189.95 316.5 194.65 310.1 199.4 303.95 200.0 L305.0 206.55 298.2 203.7 297.2 217.05 286.3 211.5 Q286.75 219.1 283.65 221.55 L276.25 211.5 275.85 210.85 Q270.3 217.85 264.35 217.65 L263.35 210.45 Q257.0 212.7 250.2 211.5 248.55 205.35 251.25 201.65 241.6 201.25 230.7 194.45 L232.15 192.4 Q235.65 188.5 239.95 185.65 L238.5 185.2 Q241.0 183.15 243.85 181.55 235.85 179.7 233.2 177.2 L239.35 177.0 237.7 174.75 243.25 174.55 Q236.05 166.75 233.8 159.35 242.4 156.5 250.4 158.35 245.9 154.05 246.95 149.1 252.05 150.35 255.35 154.05 257.4 146.85 261.9 141.1 268.65 144.4 273.0 150.75 273.6 145.85 277.7 142.95 281.2 145.4 280.55 148.9 288.35 144.2 296.8 143.55 300.25 149.1 298.4 155.45 301.7 153.2 305.6 154.45 308.05 158.15 306.85 162.25 311.75 163.25 317.9 168.6 315.45 174.75 310.1 176.8 312.4 177.65 314.85 179.7 M320.4 185.0 L320.15 184.6 320.4 185.0" fill="#65613d" fill-rule="evenodd" stroke="none"/>
    <path d="M320.4 185.0 Q321.4 187.05 322.2 189.55 L318.35 189.95 Q322.2 196.1 321.6 202.05 314.65 208.0 307.65 208.6 L308.7 216.8 301.1 213.35 300.05 229.95 287.75 223.0 Q288.15 232.6 284.7 235.7 L276.45 223.0 276.05 222.35 Q269.9 231.0 263.15 230.75 L261.9 221.75 Q254.7 224.6 247.15 223.0 245.3 215.4 248.35 210.85 237.5 210.25 225.4 201.85 228.25 196.5 232.15 192.4 L230.7 194.45 Q241.6 201.25 251.25 201.65 248.55 205.35 250.2 211.5 257.0 212.7 263.35 210.45 L264.35 217.65 Q270.3 217.85 275.85 210.85 L276.25 211.5 283.65 221.55 Q286.75 219.1 286.3 211.5 L297.2 217.05 298.2 203.7 305.0 206.55 303.95 200.0 Q310.1 199.4 316.5 194.65 316.9 189.95 313.4 185.0 L320.4 185.0 M238.5 185.2 Q230.5 182.95 227.65 179.9 230.3 178.05 233.2 177.2 235.85 179.7 243.85 181.55 241.0 183.15 238.5 185.2 M276.45 223.0 Q277.7 224.6 278.75 223.4 277.7 224.6 276.45 223.0" fill="#403d26" fill-rule="evenodd" stroke="none"/>
    <path d="M237.7 174.75 Q231.15 166.15 228.65 157.95 238.5 154.25 247.55 156.7 242.4 151.15 243.45 145.2 249.4 146.65 252.9 151.35 255.35 142.35 260.25 135.15 268.05 139.25 272.8 147.05 273.6 140.9 278.1 137.4 282.0 140.5 281.4 144.8 290.0 138.85 299.45 138.25 303.35 145.0 301.5 153.0 305.0 150.15 309.5 151.8 312.15 156.5 310.75 161.65 316.5 162.85 323.25 169.45 320.6 177.0 314.85 179.7 312.4 177.65 310.1 176.8 315.45 174.75 317.9 168.6 311.75 163.25 306.85 162.25 308.05 158.15 305.6 154.45 301.7 153.2 298.4 155.45 300.25 149.1 296.8 143.55 288.35 144.2 280.55 148.9 281.2 145.4 277.7 142.95 273.6 145.85 273.0 150.75 268.65 144.4 261.9 141.1 257.4 146.85 255.35 154.05 252.05 150.35 246.95 149.1 245.9 154.05 250.4 158.35 242.4 156.5 233.8 159.35 236.05 166.75 243.25 174.55 L237.7 174.75" fill="#757046" fill-rule="evenodd" stroke="none"/>
    <path d="M237.7 174.75 Q231.15 166.15 228.65 157.95 238.5 154.25 247.55 156.7 242.4 151.15 243.45 145.2 249.4 146.65 252.9 151.35 255.35 142.35 260.25 135.15 268.05 139.25 272.8 147.05 273.6 140.9 278.1 137.4 282.0 140.5 281.4 144.8 290.0 138.85 299.45 138.25 303.35 145.0 301.5 153.0 305.0 150.15 309.5 151.8 312.15 156.5 310.75 161.65 316.5 162.85 323.25 169.45 320.6 177.0 314.85 179.7 L314.65 179.7 315.65 180.3 Q318.35 181.75 320.15 184.6 L320.4 185.0 Q321.4 187.05 322.2 189.55 L318.35 189.95 Q322.2 196.1 321.6 202.05 314.65 208.0 307.65 208.6 L308.7 216.8 301.1 213.35 300.05 229.95 287.75 223.0 Q288.15 232.6 284.7 235.7 L276.45 223.0 276.05 222.35 Q269.9 231.0 263.15 230.75 L261.9 221.75 Q254.7 224.6 247.15 223.0 245.3 215.4 248.35 210.85 237.5 210.25 225.4 201.85 228.25 196.5 232.15 192.4 235.65 188.5 239.95 185.65 L238.5 185.2 Q230.5 182.95 227.65 179.9 230.3 178.05 233.2 177.2 L239.35 177.0 237.7 174.75 M278.75 223.4 Q277.7 224.6 276.45 223.0" ffdec:has-small-stroke="true" ffdec:original-stroke-width="0.05" fill="none" stroke="#b0ac98" stroke-linecap="butt" stroke-linejoin="miter-clip" stroke-miterlimit="3.0" stroke-opacity="0.3019608" stroke-width="1.0"/>
    <path d="M263.95 168.8 Q266.35 166.45 267.35 163.7 268.4 161.0 267.0 159.6 265.65 158.25 262.95 158.95 260.2 159.95 257.85 162.7 255.45 165.05 254.45 167.45 253.75 170.5 254.75 171.9 256.15 172.9 258.85 171.9 261.6 171.2 263.95 168.8" fill="#c6c19f" fill-rule="evenodd" stroke="none"/>
    <path d="M278.0 169.35 Q287.05 170.7 291.35 183.4 L291.35 183.85 Q294.8 195.0 295.0 200.4 L295.0 200.65 Q294.3 202.0 292.3 203.35 L291.6 204.05 Q286.6 206.55 280.7 208.35 274.8 210.65 267.55 209.25 260.95 206.75 259.4 198.4 257.8 189.55 262.55 178.2 264.85 173.85 268.25 171.4 272.75 168.2 278.0 169.35" fill="url(#gradient0)" fill-rule="evenodd" stroke="none"/>
    <path d="M302.05 160.95 Q303.65 160.95 305.45 163.45 309.3 170.0 310.9 177.75 312.25 185.45 310.65 190.45 308.6 195.2 306.35 196.55 L301.6 198.4 301.15 198.15 Q300.2 197.9 299.55 197.0 L299.3 196.8 Q298.4 192.7 297.05 182.05 L297.05 181.6 Q295.45 169.35 298.4 164.1 299.75 160.7 302.05 160.95" fill="url(#gradient1)" fill-rule="evenodd" stroke="none"/>
    <path d="M301.7 179.2 Q302.9 178.6 304.7 180.35 306.15 182.15 306.45 184.8 307.05 187.45 306.45 190.1 305.25 192.5 303.8 192.8 302.0 193.65 301.15 192.5 299.95 190.7 299.35 188.05 299.05 185.4 299.35 182.75 299.95 180.05 301.7 179.2" fill="#000000" fill-rule="evenodd" stroke="none"/>
    <path d="M300.3 178.4 Q301.15 179.0 301.45 180.45 301.75 181.95 301.15 183.4 300.85 184.6 300.0 184.9 299.1 185.5 298.2 184.9 297.3 184.0 297.05 182.55 296.75 181.05 297.3 179.6 297.6 178.7 298.5 178.1 299.4 177.8 300.3 178.4" fill="#ffffff" fill-rule="evenodd" stroke="none"/>
    <path d="M292.0 191.35 Q292.4 194.05 291.55 197.15 290.65 199.35 288.9 200.25 287.1 201.1 285.35 199.8 283.55 198.0 283.1 195.35 282.65 192.25 283.55 189.6 284.45 187.4 286.2 186.5 288.0 185.6 289.75 186.95 291.55 188.25 292.0 191.35" fill="#000000" fill-rule="evenodd" stroke="none"/>
    <path d="M284.5 184.55 Q285.35 185.15 285.65 186.6 285.95 188.1 285.35 189.55 285.05 190.75 284.2 191.05 283.3 191.65 282.4 191.05 281.5 190.15 281.25 188.7 280.95 187.2 281.5 185.75 281.8 184.85 282.7 184.25 283.6 183.95 284.5 184.55" fill="#ffffff" fill-rule="evenodd" stroke="none"/>
    <path d="M293.05 209.6 L289.25 220.0 286.75 219.25 283.85 211.65 293.05 209.6 M303.65 201.75 L304.35 212.65 301.9 214.0 296.15 209.25 303.65 201.75" fill="#faf9e3" fill-rule="evenodd" stroke="none"/>
    <path d="M290.65 167.35 Q291.85 161.85 297.2 160.0 293.3 163.5 293.9 180.1 287.35 165.95 270.5 164.1 281.2 161.4 290.65 167.35" fill="#403d26" fill-rule="evenodd" stroke="none"/>
    <path d="M317.15 156.1 Q324.05 157.55 332.15 165.45 328.95 174.55 322.05 177.75 L321.8 177.75 323.05 178.5 Q326.25 180.2 328.45 183.65 L328.7 184.15 Q329.95 186.6 330.9 189.55 L326.25 190.05 Q330.9 197.4 330.2 204.55 321.8 211.7 313.45 212.45 L314.7 222.25 305.55 218.1 304.35 238.0 289.6 229.65 Q290.05 241.2 285.9 244.9 L276.05 229.65 275.55 228.9 Q268.2 239.25 260.05 239.0 L258.6 228.2 Q249.95 231.6 240.85 229.65 238.65 220.55 242.35 215.15 229.3 214.4 214.8 204.3 218.25 197.9 222.9 193.0 227.1 188.3 232.25 184.9 L230.55 184.4 Q220.95 181.7 217.5 178.0 220.7 175.75 224.15 174.8 L231.5 174.55 229.55 171.85 Q221.7 161.5 218.75 151.65 230.55 147.25 241.35 150.2 235.2 143.55 236.45 136.4 243.55 138.15 247.75 143.8 250.7 132.95 256.6 124.35 265.95 129.25 271.6 138.6 272.6 131.25 278.0 127.05 282.7 130.75 281.95 135.9 292.3 128.8 303.6 128.05 308.3 136.15 306.05 145.75 310.25 142.3 315.65 144.3 318.85 149.95 317.15 156.1 M276.05 229.65 Q277.55 231.6 278.75 230.15 277.55 231.6 276.05 229.65" fill="#78f5f5" fill-opacity="0.2" fill-rule="evenodd" stroke="none"/>
    <path d="M317.15 156.1 Q324.05 157.55 332.15 165.45 328.95 174.55 322.05 177.75 L321.8 177.75 323.05 178.5 Q326.25 180.2 328.45 183.65 L328.7 184.15 Q329.95 186.6 330.9 189.55 L326.25 190.05 Q330.9 197.4 330.2 204.55 321.8 211.7 313.45 212.45 L314.7 222.25 305.55 218.1 304.35 238.0 289.6 229.65 Q290.05 241.2 285.9 244.9 L276.05 229.65 275.55 228.9 Q268.2 239.25 260.05 239.0 L258.6 228.2 Q249.95 231.6 240.85 229.65 238.65 220.55 242.35 215.15 229.3 214.4 214.8 204.3 218.25 197.9 222.9 193.0 227.1 188.3 232.25 184.9 L230.55 184.4 Q220.95 181.7 217.5 178.0 220.7 175.75 224.15 174.8 L231.5 174.55 229.55 171.85 Q221.7 161.5 218.75 151.65 230.55 147.25 241.35 150.2 235.2 143.55 236.45 136.4 243.55 138.15 247.75 143.8 250.7 132.95 256.6 124.35 265.95 129.25 271.6 138.6 272.6 131.25 278.0 127.05 282.7 130.75 281.95 135.9 292.3 128.8 303.6 128.05 308.3 136.15 306.05 145.75 310.25 142.3 315.65 144.3 318.85 149.95 317.15 156.1 M278.75 230.15 Q277.55 231.6 276.05 229.65" ffdec:has-small-stroke="true" ffdec:original-stroke-width="0.05" fill="none" stroke="#e4fdfd" stroke-linecap="round" stroke-linejoin="round" stroke-opacity="0.2" stroke-width="1.0"/>
  </g>
  <defs>
    <radialGradient cx="0" cy="0" gradientTransform="matrix(-0.0327, 0.0118, 0.0116, 0.0406, 280.05, 198.85)" gradientUnits="userSpaceOnUse" id="gradient0" r="819.2" spreadMethod="pad">
      <stop offset="0.6941176470588235" stop-color="#ffffff"/>
      <stop offset="0.7450980392156863" stop-color="#d1b579"/>
    </radialGradient>
    <radialGradient cx="0" cy="0" gradientTransform="matrix(0.0134, -0.0067, 0.0051, 0.0381, 304.1, 188.4)" gradientUnits="userSpaceOnUse" id="gradient1" r="819.2" spreadMethod="pad">
      <stop offset="0.6941176470588235" stop-color="#ffffff"/>
      <stop offset="0.7450980392156863" stop-color="#d1b579"/>
    </radialGradient>
  </defs>
</svg>
