<?xml version="1.0" encoding="UTF-8" standalone="no"?>
<svg xmlns:ffdec="https://www.free-decompiler.com/flash" xmlns:xlink="http://www.w3.org/1999/xlink" ffdec:objectType="shape" height="14.8px" width="17.6px" xmlns="http://www.w3.org/2000/svg">
  <g transform="matrix(1.0, 0.0, 0.0, 1.0, 11.25, 8.35)">
    <path d="M4.25 -7.0 L4.35 -7.0 Q3.8 -6.95 3.45 -6.2 3.8 -6.95 4.25 -7.0 M1.25 -3.0 L1.4 -2.85 2.4 -0.7 1.25 -3.0 2.4 -0.7 2.45 -0.4 2.5 -0.35 2.5 -0.3 2.6 1.5 2.6 1.9 2.5 2.25 2.45 2.45 2.45 2.55 1.7 4.3 1.55 4.4 Q-2.75 5.7 -5.6 3.95 L-5.7 3.9 Q-7.55 2.15 -6.85 -0.45 -6.55 -1.65 -5.7 -2.95 -4.2 -4.15 -2.0 -4.45 L-0.05 -4.05 1.25 -3.0 M0.2 0.2 L0.25 0.2 0.5 0.4 0.6 0.7 0.5 1.05 0.25 1.2 Q0.05 1.2 -0.05 1.05 L-0.1 0.95 -0.25 1.8 Q-0.25 2.6 0.1 3.2 0.5 3.9 0.95 3.9 L1.85 3.2 2.15 1.8 1.85 0.3 Q1.45 -0.3 0.95 -0.25 L0.2 0.2" fill="#ffffff" fill-rule="evenodd" stroke="none"/>
    <path d="M1.15 -3.2 L1.25 -3.0 -0.05 -4.05 -2.0 -4.45 Q-4.2 -4.15 -5.7 -2.95 L-6.7 -2.0 -7.25 -1.3 -7.3 -1.2 -8.15 0.35 -8.3 0.9 -8.3 0.95 -8.35 2.8 Q-8.25 3.8 -7.75 4.55 -8.45 3.7 -8.6 2.45 L-8.55 0.6 Q-8.3 -0.6 -7.5 -1.65 L-6.95 -2.35 -5.95 -3.3 Q-4.45 -4.5 -2.25 -4.8 L-0.3 -4.4 Q0.4 -4.15 1.15 -3.2 M0.2 0.2 L0.95 -0.25 Q1.45 -0.3 1.85 0.3 L2.15 1.8 1.85 3.2 0.95 3.9 Q0.5 3.9 0.1 3.2 -0.25 2.6 -0.25 1.8 L-0.1 0.95 -0.05 1.05 Q0.05 1.2 0.25 1.2 L0.5 1.05 0.6 0.7 0.5 0.4 0.25 0.2 0.2 0.2" fill="#252016" fill-rule="evenodd" stroke="none"/>
    <path d="M-7.75 4.55 Q-8.25 3.8 -8.35 2.8 L-8.3 0.95 -8.3 0.9 -8.15 0.35 -7.3 -1.2 -7.25 -1.3 -6.7 -2.0 -5.7 -2.95 Q-6.55 -1.65 -6.85 -0.45 -7.55 2.15 -5.7 3.9 L-5.6 3.95 Q-2.75 5.7 1.55 4.4 L1.0 4.95 Q-0.55 6.4 -2.5 6.45 L-5.65 6.15 -6.0 6.05 Q-7.15 5.5 -7.75 4.55 M-8.3 0.95 L-8.15 0.35 -8.3 0.95" fill="#e7e2d3" fill-rule="evenodd" stroke="none"/>
    <path d="M1.25 -3.0 L2.4 -0.7 1.4 -2.85 M2.5 -0.3 L2.5 -0.35 2.45 -0.4 2.4 -0.7 M2.65 -2.35 L2.65 -2.0 2.7 -0.95 M1.25 -3.0 L1.15 -3.2 M-7.5 -1.65 Q-8.3 -0.6 -8.55 0.6 L-8.6 2.45 Q-8.45 3.7 -7.75 4.55 -8.25 3.8 -8.35 2.8 L-8.3 0.95 -8.15 0.35 -7.3 -1.2 -7.25 -1.3 M-7.75 4.55 Q-7.15 5.5 -6.0 6.05 L-5.65 6.15" ffdec:has-small-stroke="true" ffdec:original-stroke-width="0.05" fill="none" stroke="#876a00" stroke-linecap="round" stroke-linejoin="round" stroke-opacity="0.4" stroke-width="1.0"/>
    <path d="M1.4 -2.85 L1.25 -3.0 -0.05 -4.05 -2.0 -4.45 Q-4.2 -4.15 -5.7 -2.95 L-6.7 -2.0 -7.25 -1.3 M1.15 -3.2 Q0.4 -4.15 -0.3 -4.4 L-2.25 -4.8 Q-4.45 -4.5 -5.95 -3.3 L-6.95 -2.35 -7.5 -1.65" ffdec:has-small-stroke="true" ffdec:original-stroke-width="0.05" fill="none" stroke="#876700" stroke-linecap="round" stroke-linejoin="round" stroke-opacity="0.5411765" stroke-width="1.0"/>
    <path d="M-8.5 1.45 Q-9.9 0.8 -11.25 -0.4 L-8.15 -0.7 -8.5 1.45" fill="#000000" fill-rule="evenodd" stroke="none"/>
    <path d="M-9.9 2.2 L-8.45 1.75 -8.4 2.8 -9.9 2.2" fill="#000000" fill-rule="evenodd" stroke="none"/>
    <path d="M5.35 -5.3 L6.3 -8.35 Q5.6 -7.45 4.55 -7.3 L5.35 -5.3" fill="#000000" fill-rule="evenodd" stroke="none"/>
    <path d="M6.35 -5.15 L5.4 -4.95 5.7 -3.85 6.35 -5.15" fill="#000000" fill-rule="evenodd" stroke="none"/>
    <path d="M4.1 -7.3 Q4.65 -7.45 5.05 -6.75 L5.3 -6.15 4.9 -6.75 4.35 -7.0 4.25 -7.0 Q3.8 -6.95 3.45 -6.2 L3.25 -5.65 3.2 -5.6 Q2.9 -4.75 2.75 -3.6 L2.65 -2.35 Q2.45 -3.4 2.6 -4.25 2.7 -5.15 3.1 -6.15 3.5 -7.15 4.1 -7.3 M3.5 -1.55 Q3.75 -2.1 4.05 -2.05 L4.65 -1.5 4.85 0.0 4.65 1.45 4.05 2.1 Q3.65 2.1 3.5 1.45 3.2 0.85 3.25 0.0 L3.3 -0.8 3.3 -0.7 Q3.35 -0.6 3.55 -0.6 L3.75 -0.7 3.8 -1.1 3.75 -1.4 3.55 -1.55 3.5 -1.55" fill="#252016" fill-rule="evenodd" stroke="none"/>
    <path d="M2.65 -2.35 L2.75 -3.6 Q2.9 -4.75 3.2 -5.6 L3.25 -5.65 3.45 -6.2 Q3.8 -6.95 4.35 -7.0 L4.9 -6.75 5.3 -6.15 5.55 -5.6 Q6.0 -4.1 6.0 -2.0 L5.9 -0.2 5.85 0.2 5.55 1.55 Q5.05 3.0 4.35 3.0 3.65 3.0 3.25 1.75 L3.2 1.55 3.05 1.4 2.85 0.0 2.7 -0.95 2.7 -2.25 2.65 -2.35 M3.5 -1.55 L3.55 -1.55 3.75 -1.4 3.8 -1.1 3.75 -0.7 3.55 -0.6 Q3.35 -0.6 3.3 -0.7 L3.3 -0.8 3.25 0.0 Q3.2 0.85 3.5 1.45 3.65 2.1 4.05 2.1 L4.65 1.45 4.85 0.0 4.65 -1.5 4.05 -2.05 Q3.75 -2.1 3.5 -1.55" fill="#ffffff" fill-rule="evenodd" stroke="none"/>
    <path d="M5.3 -6.15 L5.05 -6.75 Q4.65 -7.45 4.1 -7.3 M2.6 -4.25 Q2.45 -3.4 2.65 -2.35 L2.75 -3.6 M4.25 -7.0 L4.35 -7.0 4.9 -6.75 5.3 -6.15 5.55 -5.6 Q6.0 -4.1 6.0 -2.0 L5.9 -0.2 5.85 0.2 M2.85 0.0 L2.7 -0.95" ffdec:has-small-stroke="true" ffdec:original-stroke-width="0.05" fill="none" stroke="#876a00" stroke-linecap="round" stroke-linejoin="round" stroke-opacity="0.4" stroke-width="1.0"/>
    <path d="M4.1 -7.3 Q3.5 -7.15 3.1 -6.15 2.7 -5.15 2.6 -4.25 M2.75 -3.6 Q2.9 -4.75 3.2 -5.6 L3.25 -5.65 3.45 -6.2 Q3.8 -6.95 4.35 -7.0" ffdec:has-small-stroke="true" ffdec:original-stroke-width="0.05" fill="none" stroke="#876700" stroke-linecap="round" stroke-linejoin="round" stroke-opacity="0.57254905" stroke-width="1.0"/>
  </g>
</svg>
