<?xml version="1.0" encoding="UTF-8" standalone="no"?>
<svg xmlns:ffdec="https://www.free-decompiler.com/flash" xmlns:xlink="http://www.w3.org/1999/xlink" ffdec:objectType="shape" height="28.9px" width="31.45px" xmlns="http://www.w3.org/2000/svg">
  <g transform="matrix(1.0, 0.0, 0.0, 1.0, 15.7, 14.45)">
    <path d="M-5.95 2.3 Q-3.05 6.3 -6.65 7.1 -9.2 6.35 -10.6 5.3 -13.85 2.85 -13.5 0.35 -12.4 0.7 -10.85 1.5 L-5.95 2.3" fill="#704628" fill-rule="evenodd" stroke="none"/>
    <path d="M-6.65 7.1 Q-9.2 6.35 -10.6 5.3 -13.85 2.85 -13.5 0.35 -12.4 0.7 -10.85 1.5 L-5.95 2.3" fill="none" stroke="#000000" stroke-linecap="round" stroke-linejoin="round" stroke-opacity="0.39607844" stroke-width="1.0" vector-effect="non-scaling-stroke"/>
    <path d="M-10.0 5.5 Q-11.5 3.45 -11.65 0.35 L-11.7 -0.5 -11.7 -0.65 Q-10.1 1.0 -7.9 1.65 -1.9 6.3 13.55 5.0 12.7 6.95 11.05 7.8 9.15 8.95 7.0 9.55 L1.55 10.15 0.5 10.15 Q-4.3 9.85 -7.8 7.55 -9.1 6.7 -10.0 5.5" fill="#704628" fill-rule="evenodd" stroke="none"/>
    <path d="M-11.7 -0.65 Q-11.7 -4.2 -10.05 -7.1 -9.2 -8.65 -7.9 -10.0 -4.1 -13.95 1.5 -13.95 7.05 -13.95 10.8 -9.95 14.55 -5.95 14.45 0.1 14.4 3.05 13.55 5.0 -1.9 6.3 -7.9 1.65 -10.1 1.0 -11.7 -0.65" fill="#b8863e" fill-rule="evenodd" stroke="none"/>
    <path d="M-10.05 -7.1 Q-9.2 -8.65 -7.9 -10.0 -4.1 -13.95 1.5 -13.95 7.05 -13.95 10.8 -9.95 14.55 -5.95 14.45 0.1 14.4 3.05 13.55 5.0 12.7 6.95 11.05 7.8 9.15 8.95 7.0 9.55 L1.55 10.15 0.5 10.15 Q-4.3 9.85 -7.8 7.55 -9.1 6.7 -10.0 5.5" fill="none" stroke="#000000" stroke-linecap="round" stroke-linejoin="round" stroke-opacity="0.29803923" stroke-width="1.0" vector-effect="non-scaling-stroke"/>
    <path d="M-15.1 -6.8 L-14.8 -7.65 -15.1 -6.8 -14.8 -7.65 -14.5 -8.0 -14.35 -8.1 -11.1 -7.7 Q-9.4 -8.35 -8.25 -9.65 -1.15 -5.7 -4.75 1.05 L-10.3 0.65 Q-15.15 -3.45 -15.1 -6.8" fill="#b8863e" fill-rule="evenodd" stroke="none"/>
    <path d="M-14.8 -7.65 L-14.65 -7.9 -14.5 -8.0 -14.8 -7.65 M-4.75 1.05 L-6.1 3.2 Q-10.05 3.25 -11.55 1.6 -12.9 0.55 -14.25 -1.85 -15.4 -4.35 -15.15 -6.5 L-15.1 -6.8 Q-15.15 -3.45 -10.3 0.65 L-4.75 1.05" fill="#704628" fill-rule="evenodd" stroke="none"/>
    <path d="M-15.1 -6.8 L-14.8 -7.65 -14.65 -7.9 -14.5 -8.0 -14.35 -8.1 -11.1 -7.7 Q-9.4 -8.35 -8.25 -9.65 M-11.55 1.6 Q-12.9 0.55 -14.25 -1.85 -15.4 -4.35 -15.15 -6.5 L-15.1 -6.8" fill="none" stroke="#000000" stroke-linecap="round" stroke-linejoin="round" stroke-opacity="0.29803923" stroke-width="1.0" vector-effect="non-scaling-stroke"/>
    <path d="M1.05 10.65 Q-1.0 9.35 -3.7 9.25 -5.3 7.55 -2.1 5.6 -0.4 4.8 1.55 4.55 7.75 4.45 7.2 9.0 6.95 11.1 4.55 13.1 2.55 12.3 1.05 10.65" fill="#b9825b" fill-rule="evenodd" stroke="none"/>
    <path d="M1.05 10.65 Q-1.0 9.35 -3.7 9.25 -5.3 7.55 -2.1 5.6 -0.4 4.8 1.55 4.55 7.75 4.45 7.2 9.0" fill="none" stroke="#000000" stroke-linecap="round" stroke-linejoin="round" stroke-opacity="0.39607844" stroke-width="1.0" vector-effect="non-scaling-stroke"/>
    <path d="M11.15 -9.55 Q14.5 -5.65 14.4 0.1 14.3 4.3 12.65 6.4 12.15 4.1 12.1 2.0 L12.5 -3.5 Q12.7 -7.1 11.15 -9.55" fill="#f0d5a8" fill-rule="evenodd" stroke="none"/>
    <path d="M11.15 -9.55 Q14.5 -5.65 14.4 0.1 14.3 4.3 12.65 6.4 12.15 4.1 12.1 2.0 L12.5 -3.5 Q12.7 -7.1 11.15 -9.55 Z" ffdec:has-small-stroke="true" ffdec:original-stroke-width="0.05" fill="none" stroke="#000000" stroke-linecap="round" stroke-linejoin="round" stroke-opacity="0.29803923" stroke-width="1.0"/>
    <path d="M2.95 9.35 L3.0 9.05 Q3.75 6.35 8.6 4.4 10.7 2.4 12.35 3.85 L12.7 4.8 13.95 6.0 Q14.45 7.0 14.3 7.6 14.15 8.5 13.4 9.45 11.95 11.25 9.0 11.45 L3.6 11.0 Q2.9 10.1 2.95 9.35" fill="#f0d5a8" fill-rule="evenodd" stroke="none"/>
    <path d="M2.95 9.35 Q2.9 10.1 3.6 11.0 L9.0 11.45 Q11.95 11.25 13.4 9.45 11.35 12.6 5.6 12.15 L3.3 11.85 2.9 10.5 2.95 9.35" fill="#c6985a" fill-rule="evenodd" stroke="none"/>
    <path d="M13.4 9.45 Q14.15 8.5 14.3 7.6 14.45 7.0 13.95 6.0 L12.7 4.8 12.35 3.85 Q10.7 2.4 8.6 4.4 M5.6 12.15 Q11.35 12.6 13.4 9.45" fill="none" stroke="#000000" stroke-linecap="round" stroke-linejoin="round" stroke-opacity="0.29803923" stroke-width="1.0" vector-effect="non-scaling-stroke"/>
    <path d="M7.0 11.45 Q4.5 12.5 1.4 11.4 L1.1 11.3 -1.45 10.05 Q-3.75 9.0 -5.25 6.6 L-5.35 6.35 Q-2.0 8.9 -4.2 4.75 3.3 11.85 7.0 11.45" fill="#c6985a" fill-rule="evenodd" stroke="none"/>
    <path d="M-5.35 6.35 Q-6.3 3.2 -5.7 0.65 -4.1 -2.15 -1.35 -2.75 1.4 -3.3 2.75 -2.8 4.85 -2.05 6.95 0.15 7.9 1.8 9.0 5.05 8.7 10.05 7.0 11.45 3.3 11.85 -4.2 4.75 -2.0 8.9 -5.35 6.35" fill="#f0d5a8" fill-rule="evenodd" stroke="none"/>
    <path d="M12.25 9.3 L12.05 9.85 12.2 10.2 M10.25 10.45 L11.45 10.45 12.05 9.85" fill="none" stroke="#000000" stroke-linecap="round" stroke-linejoin="round" stroke-opacity="0.29803923" stroke-width="1.0" vector-effect="non-scaling-stroke"/>
    <path d="M7.85 6.7 L7.85 6.55 7.9 6.6 7.85 6.7 M7.1 4.1 Q5.65 3.2 1.7 2.8 -0.25 3.0 -1.35 3.75 -1.8 4.65 -1.6 5.55 L-2.0 3.15 Q1.15 0.75 4.4 1.5 6.2 2.5 7.1 4.1" fill="#c4b890" fill-rule="evenodd" stroke="none"/>
    <path d="M7.85 6.55 L7.85 6.7 Q8.0 7.2 7.1 7.6 6.4 8.3 5.35 8.75 L1.85 8.95 Q-0.35 8.2 -1.3 6.3 L-1.6 5.55 Q-1.8 4.65 -1.35 3.75 -0.25 3.0 1.7 2.8 5.65 3.2 7.1 4.1 7.7 5.2 7.85 6.55" fill="#fcffd4" fill-rule="evenodd" stroke="none"/>
    <path d="M7.9 6.6 L7.85 6.55 Q7.7 5.2 7.1 4.1 6.2 2.5 4.4 1.5 1.15 0.75 -2.0 3.15" fill="none" stroke="#000000" stroke-linecap="round" stroke-linejoin="round" stroke-opacity="0.39607844" stroke-width="1.0" vector-effect="non-scaling-stroke"/>
    <path d="M-3.25 9.3 Q-1.9 6.15 0.95 10.2 3.8 14.2 2.0 12.65 0.85 12.75 1.05 13.95 -0.8 12.4 -3.5 12.2 -8.75 10.9 -10.65 8.35 -8.3 7.85 -3.25 9.3" fill="#f5e7ba" fill-rule="evenodd" stroke="none"/>
    <path d="M1.05 13.95 Q-0.8 12.4 -3.5 12.2 -8.75 10.9 -10.65 8.35 -8.3 7.85 -3.25 9.3" fill="none" stroke="#000000" stroke-linecap="round" stroke-linejoin="round" stroke-opacity="0.29803923" stroke-width="1.0" vector-effect="non-scaling-stroke"/>
    <path d="M-7.3 8.55 Q-10.15 5.8 -9.7 3.35 -8.55 3.25 -7.05 3.8 -5.45 4.05 -4.1 4.75 L-1.75 8.05 Q-1.25 9.4 -1.75 9.8 -4.45 9.7 -7.3 8.55" fill="#f5e7ba" fill-rule="evenodd" stroke="none"/>
    <path d="M-7.3 8.55 Q-10.15 5.8 -9.7 3.35 -8.55 3.25 -7.05 3.8 -5.45 4.05 -4.1 4.75" fill="none" stroke="#000000" stroke-linecap="round" stroke-linejoin="round" stroke-opacity="0.29803923" stroke-width="1.0" vector-effect="non-scaling-stroke"/>
    <path d="M-2.55 8.1 Q-1.95 9.25 -2.2 10.35 L-3.8 10.3 Q-5.1 9.25 -5.35 7.35 -4.2 7.15 -2.6 8.05 L-2.55 8.1" fill="#f5e7ba" fill-rule="evenodd" stroke="none"/>
    <path d="M-3.8 10.3 L-3.65 10.4 M-2.55 8.1 L-2.6 8.05 Q-4.2 7.15 -5.35 7.35 -5.1 9.25 -3.8 10.3" fill="none" stroke="#000000" stroke-linecap="round" stroke-linejoin="round" stroke-opacity="0.29803923" stroke-width="1.0" vector-effect="non-scaling-stroke"/>
    <path d="M14.0 -1.7 Q14.45 -1.5 14.15 -5.1 15.45 -1.0 15.2 1.6 14.9 4.2 13.6 6.25 L12.85 5.95 13.45 3.35 Q14.15 1.4 14.0 -1.7" fill="#f0d5a8" fill-rule="evenodd" stroke="none"/>
    <path d="M14.0 -1.7 Q14.45 -1.5 14.15 -5.1 15.45 -1.0 15.2 1.6 14.9 4.2 13.6 6.25 L14.0 6.4 13.4 6.6 13.6 6.25 12.85 5.95" fill="none" stroke="#000000" stroke-linecap="round" stroke-linejoin="round" stroke-opacity="0.29803923" stroke-width="1.0" vector-effect="non-scaling-stroke"/>
    <path d="M12.25 -2.1 Q11.9 1.45 12.55 4.7 13.05 5.4 13.6 4.85 14.1 4.1 14.45 2.55 14.8 0.35 14.6 -1.85 L14.05 -5.1 Q12.75 -5.0 12.25 -2.1" fill="#fcffd4" fill-rule="evenodd" stroke="none"/>
    <path d="M12.25 -2.1 Q11.9 1.45 12.55 4.7 13.05 5.4 13.6 4.85 14.1 4.1 14.45 2.55 14.8 0.35 14.6 -1.85 L14.05 -5.1 Q12.75 -5.0 12.25 -2.1 Z" fill="none" stroke="#000000" stroke-linecap="round" stroke-linejoin="round" stroke-opacity="0.39607844" stroke-width="1.0" vector-effect="non-scaling-stroke"/>
    <path d="M12.1 -1.5 Q11.75 -0.65 11.75 0.6 11.7 1.85 11.95 2.75 12.2 3.6 12.6 3.6 13.0 3.6 13.3 2.75 L13.65 0.6 13.45 -1.5 Q13.2 -2.4 12.8 -2.4 12.4 -2.4 12.1 -1.5 M11.95 -2.0 Q12.35 -3.05 12.9 -3.05 13.4 -3.05 13.75 -2.0 14.05 -0.9 14.0 0.6 13.95 2.15 13.55 3.2 13.1 4.3 12.6 4.3 12.05 4.3 11.75 3.2 11.4 2.15 11.45 0.6 11.5 -0.9 11.95 -2.0" fill="#09a07d" fill-rule="evenodd" stroke="none"/>
    <path d="M12.6 -0.05 L12.75 -0.35 12.9 -0.05 12.95 0.7 12.85 1.45 12.7 1.75 12.55 1.45 12.5 0.7 12.6 -0.05" fill="#0070fa" fill-rule="evenodd" stroke="none"/>
    <path d="M12.1 -1.5 Q12.4 -2.4 12.8 -2.4 13.2 -2.4 13.45 -1.5 L13.65 0.6 13.3 2.75 Q13.0 3.6 12.6 3.6 12.2 3.6 11.95 2.75 11.7 1.85 11.75 0.6 11.75 -0.65 12.1 -1.5 M12.6 -0.05 L12.5 0.7 12.55 1.45 12.7 1.75 12.85 1.45 12.95 0.7 12.9 -0.05 12.75 -0.35 12.6 -0.05" fill="#02ffc8" fill-rule="evenodd" stroke="none"/>
    <path d="M12.6 -0.05 L12.5 0.7 12.55 1.45 12.7 1.75 12.85 1.45 12.95 0.7 12.9 -0.05 12.75 -0.35 12.6 -0.05 M11.95 -2.0 Q11.5 -0.9 11.45 0.6 11.4 2.15 11.75 3.2 12.05 4.3 12.6 4.3 13.1 4.3 13.55 3.2 13.95 2.15 14.0 0.6 14.05 -0.9 13.75 -2.0 13.4 -3.05 12.9 -3.05 12.35 -3.05 11.95 -2.0 Z" fill="none" stroke="#000000" stroke-linecap="round" stroke-linejoin="round" stroke-opacity="0.39607844" stroke-width="1.0" vector-effect="non-scaling-stroke"/>
    <path d="M12.2 1.75 Q12.3 1.35 12.5 1.65 12.7 2.0 12.9 1.65 13.15 1.3 13.3 1.3 L13.35 2.0 13.1 2.95 12.65 3.2 12.25 2.7 12.2 1.75" fill="#b7faeb" fill-rule="evenodd" stroke="none"/>
    <path d="M12.45 4.7 Q13.2 4.6 13.45 4.3 L14.1 3.2 14.55 1.65 14.65 0.75 14.65 1.6 14.65 1.9 Q14.3 3.65 13.65 4.75 L12.45 4.7" fill="#4a3116" fill-rule="evenodd" stroke="none"/>
    <path d="M5.5 5.8 Q4.65 6.9 3.4 6.9 2.2 6.9 1.25 5.8 0.35 4.75 0.3 3.2 0.25 1.7 1.1 0.65 1.95 -0.45 3.15 -0.45 4.4 -0.45 5.3 0.65 6.25 1.7 6.3 3.2 6.35 4.75 5.5 5.8 M5.1 5.35 Q5.8 4.5 5.75 3.2 5.7 1.95 4.95 1.05 4.2 0.2 3.2 0.2 2.15 0.2 1.45 1.05 L1.35 1.25 Q0.85 2.1 0.9 3.2 0.95 4.25 1.35 5.05 L1.6 5.35 Q2.35 6.25 3.4 6.25 4.4 6.25 5.1 5.35" fill="#09a07d" fill-rule="evenodd" stroke="none"/>
    <path d="M5.1 5.35 Q4.4 6.25 3.4 6.25 2.35 6.25 1.6 5.35 L1.35 5.05 Q0.95 4.25 0.9 3.2 0.85 2.1 1.35 1.25 L1.45 1.05 Q2.15 0.2 3.2 0.2 4.2 0.2 4.95 1.05 5.7 1.95 5.75 3.2 5.8 4.5 5.1 5.35 M3.25 2.25 L2.9 2.55 Q2.75 2.85 2.75 3.3 L2.95 4.05 Q3.1 4.35 3.3 4.35 L3.7 4.05 3.8 3.3 3.65 2.55 3.25 2.25" fill="#02ffc8" fill-rule="evenodd" stroke="none"/>
    <path d="M3.25 2.25 L3.65 2.55 3.8 3.3 3.7 4.05 3.3 4.35 Q3.1 4.35 2.95 4.05 L2.75 3.3 Q2.75 2.85 2.9 2.55 L3.25 2.25" fill="#0070fa" fill-rule="evenodd" stroke="none"/>
    <path d="M5.5 5.8 Q4.65 6.9 3.4 6.9 2.2 6.9 1.25 5.8 0.35 4.75 0.3 3.2 0.25 1.7 1.1 0.65 1.95 -0.45 3.15 -0.45 4.4 -0.45 5.3 0.65 6.25 1.7 6.3 3.2 6.35 4.75 5.5 5.8 Z" fill="none" stroke="#000000" stroke-linecap="round" stroke-linejoin="round" stroke-opacity="0.39607844" stroke-width="1.0" vector-effect="non-scaling-stroke"/>
    <path d="M4.7 10.3 L5.05 10.85 4.5 11.25 3.4 11.2 Q2.8 11.1 2.4 10.8 L2.1 10.25 Q2.15 9.95 2.6 9.85 L3.7 9.85 Q4.35 10.0 4.7 10.3" fill="#f1a49a" fill-rule="evenodd" stroke="none"/>
    <path d="M3.7 -0.35 Q6.0 0.0 6.5 2.7 L3.65 1.1 -1.25 1.65 1.6 -0.35 3.7 -0.35" fill="#f0d5a8" fill-rule="evenodd" stroke="none"/>
    <path d="M-1.3 6.3 Q-2.4 4.8 -2.4 3.55 -3.05 3.1 -3.1 2.65 L-2.0 2.3 Q1.25 0.15 4.3 0.85 7.45 2.6 7.85 6.1 7.2 3.2 4.5 1.85 1.55 0.95 -1.85 3.45 -1.85 5.05 -1.3 6.3" fill="#332012" fill-rule="evenodd" stroke="none"/>
    <path d="M7.85 6.1 L7.85 6.15 7.95 6.8 M6.9 8.1 L5.4 8.95 1.9 9.15 0.8 8.65 M-1.25 6.45 L-1.25 6.4 -1.3 6.3 Q-2.4 4.8 -2.4 3.55 -3.05 3.1 -3.1 2.65 L-2.0 2.3 Q1.25 0.15 4.3 0.85 7.45 2.6 7.85 6.1 7.2 3.2 4.5 1.85 1.55 0.95 -1.85 3.45 -1.85 5.05 -1.3 6.3" fill="none" stroke="#000000" stroke-linecap="round" stroke-linejoin="round" stroke-opacity="0.39607844" stroke-width="1.0" vector-effect="non-scaling-stroke"/>
    <path d="M3.25 -0.7 Q4.4 -0.25 5.05 0.6 L3.0 0.0 1.1 0.15 Q1.95 -0.5 3.25 -0.7" fill="#b9825b" fill-opacity="0.5019608" fill-rule="evenodd" stroke="none"/>
    <path d="M13.05 -5.3 L14.15 -6.55 Q14.6 -5.7 14.1 -3.0 L13.8 -4.15 12.35 -1.95 Q12.0 0.7 12.2 3.25 L12.15 3.25 Q11.9 0.35 12.3 -2.9 12.6 -4.55 13.05 -5.3" fill="#332012" fill-rule="evenodd" stroke="none"/>
    <path d="M1.85 4.75 L2.2 5.05 1.85 5.35 1.0 5.5 0.2 5.35 -0.15 5.05 0.2 4.75 1.0 4.6 1.85 4.75" fill="#fffff0" fill-rule="evenodd" stroke="none"/>
    <path d="M4.55 4.7 Q4.65 5.1 4.35 5.6 4.05 6.05 3.4 6.05 L2.4 5.85 Q2.1 5.6 2.05 4.95 1.95 4.25 2.25 4.25 2.55 4.25 3.0 4.6 3.45 4.9 3.95 4.6 4.4 4.3 4.55 4.7" fill="#b7faeb" fill-rule="evenodd" stroke="none"/>
    <path d="M11.2 -9.45 Q12.65 -7.05 12.5 -3.5 L12.1 2.0 Q12.15 4.0 12.6 6.2 L8.55 0.5 11.2 -9.45" fill="#b8863e" fill-rule="evenodd" stroke="none"/>
    <path d="M12.1 2.0 L12.5 -3.5 Q12.65 -7.05 11.2 -9.45" ffdec:has-small-stroke="true" ffdec:original-stroke-width="0.05" fill="none" stroke="#000000" stroke-linecap="round" stroke-linejoin="round" stroke-opacity="0.29803923" stroke-width="1.0"/>
    <path d="M12.6 6.2 Q12.15 4.0 12.1 2.0" fill="none" stroke="#000000" stroke-linecap="round" stroke-linejoin="round" stroke-opacity="0.29803923" stroke-width="1.0"/>
    <path d="M14.15 6.4 Q14.65 7.35 12.6 7.5 10.55 6.65 9.1 5.3 8.65 4.55 8.65 3.85 10.8 0.75 12.15 2.6 12.55 4.55 13.0 5.2 L14.15 6.4" fill="#905c19" fill-rule="evenodd" stroke="none"/>
    <path d="M14.15 5.85 Q14.85 6.45 14.4 7.75 14.1 8.0 13.75 7.75 L13.25 7.45 Q12.45 8.0 12.4 7.45 12.4 6.9 12.95 6.15 13.65 5.55 14.15 5.85" fill="#2a1a07" fill-rule="evenodd" stroke="none"/>
    <path d="M14.15 5.85 Q14.85 6.45 14.4 7.75 14.1 8.0 13.75 7.75 L13.25 7.45 Q12.45 8.0 12.4 7.45 12.4 6.9 12.95 6.15 13.65 5.55 14.15 5.85 Z" fill="none" stroke="#000000" stroke-linecap="round" stroke-linejoin="round" stroke-opacity="0.39607844" stroke-width="1.0" vector-effect="non-scaling-stroke"/>
    <path d="M9.15 -8.35 Q12.0 -5.9 10.35 -2.9 8.45 -1.55 5.25 -2.55 3.65 -4.0 3.85 -5.05 L6.0 -4.4 Q7.4 -4.7 8.4 -5.3 9.1 -5.95 9.25 -6.8 L9.15 -8.35" fill="#08fbc3" fill-rule="evenodd" stroke="none"/>
    <path d="M9.15 -8.35 Q12.0 -5.9 10.35 -2.9 8.45 -1.55 5.25 -2.55 3.65 -4.0 3.85 -5.05 L6.0 -4.4 Q7.4 -4.7 8.4 -5.3 9.1 -5.95 9.25 -6.8 L9.15 -8.35 Z" fill="none" stroke="#000000" stroke-linecap="round" stroke-linejoin="round" stroke-opacity="0.29803923" stroke-width="1.0" vector-effect="non-scaling-stroke"/>
  </g>
</svg>
