<?xml version="1.0" encoding="UTF-8" standalone="no"?>
<svg xmlns:ffdec="https://www.free-decompiler.com/flash" xmlns:xlink="http://www.w3.org/1999/xlink" ffdec:objectType="shape" height="8.7px" width="13.55px" xmlns="http://www.w3.org/2000/svg">
  <g transform="matrix(1.0, 0.0, 0.0, 1.0, 7.45, 10.75)">
    <path d="M-3.2 -3.2 Q-8.55 -2.75 -6.95 -5.3 -6.85 -3.95 -3.2 -3.2" fill="#fcfcfc" fill-rule="evenodd" stroke="none"/>
    <path d="M-6.4 -6.25 L-5.8 -7.3 -1.6 -9.55 0.9 -9.05 1.65 -7.55 1.6 -7.5 Q0.8 -6.05 -1.8 -5.1 -4.55 -4.1 -5.6 -4.65 -6.7 -5.2 -6.4 -6.25" fill="#77c8a8" fill-rule="evenodd" stroke="none"/>
    <path d="M-6.4 -6.25 Q-6.7 -5.2 -5.6 -4.65 -4.55 -4.1 -1.8 -5.1 L-3.2 -3.2 Q-6.85 -3.95 -6.95 -5.3 L-6.4 -6.25" fill="#bae3d3" fill-rule="evenodd" stroke="none"/>
    <path d="M-1.8 -5.1 Q0.8 -6.05 1.6 -7.5 L1.65 -7.55 2.55 -5.7 0.25 -4.25 Q-0.5 -3.75 -3.2 -3.2 L-1.8 -5.1" fill="#f7fbf9" fill-rule="evenodd" stroke="none"/>
    <path d="M1.65 -7.55 L0.9 -9.05 -1.6 -9.55 -5.8 -7.3 -6.4 -6.25 Q-6.7 -5.2 -5.6 -4.65 -4.55 -4.1 -1.8 -5.1 0.8 -6.05 1.6 -7.5 M1.65 -7.55 L2.55 -5.7 0.25 -4.25 Q-0.5 -3.75 -3.2 -3.2 -8.55 -2.75 -6.95 -5.3 L-6.4 -6.25" ffdec:has-small-stroke="true" ffdec:original-stroke-width="0.3" fill="none" stroke="#000000" stroke-linecap="round" stroke-linejoin="round" stroke-opacity="0.4" stroke-width="1.0"/>
    <path d="M-2.25 -6.95 Q-0.6 -8.35 -1.45 -9.4 L-1.5 -9.45 Q-1.9 -10.0 -2.45 -9.95 L-1.45 -10.05 -0.7 -9.65 -0.4 -9.0 -0.4 -8.65 -0.4 -8.35 -0.45 -8.2 -0.65 -7.75 -1.05 -7.4 Q-1.55 -6.9 -2.25 -6.95" fill="#fefefe" fill-rule="evenodd" stroke="none"/>
    <path d="M-0.65 -7.75 L-0.45 -8.2 -0.4 -8.35 -0.3 -7.85 Q-0.25 -7.6 -0.35 -7.45 L-0.45 -7.1 Q-0.8 -6.25 -1.7 -5.6 -2.65 -5.0 -4.5 -4.6 -6.3 -4.3 -6.2 -5.15 L-5.55 -7.1 Q-5.9 -6.1 -5.5 -5.55 -5.15 -5.0 -4.2 -5.2 L-2.9 -5.6 -1.65 -6.45 Q-0.8 -7.1 -0.65 -7.75" fill="#333333" fill-opacity="0.3019608" fill-rule="evenodd" stroke="none"/>
    <path d="M-2.25 -6.95 Q-1.55 -6.9 -1.05 -7.4 L-0.65 -7.75 Q-0.8 -7.1 -1.65 -6.45 L-2.9 -5.6 -4.2 -5.2 Q-5.15 -5.0 -5.5 -5.55 -5.9 -6.1 -5.55 -7.1 L-5.4 -6.6 -5.05 -6.25 -3.05 -6.4 -2.25 -6.95" fill="#959693" fill-rule="evenodd" stroke="none"/>
    <path d="M-2.45 -9.95 Q-1.9 -10.0 -1.5 -9.45 L-1.45 -9.4 Q-0.6 -8.35 -2.25 -6.95 -3.0 -6.9 -3.6 -7.55 -4.0 -8.1 -4.0 -8.8 L-4.0 -9.05 -3.8 -9.75 -2.45 -9.95" fill="#c9e9dc" fill-rule="evenodd" stroke="none"/>
    <path d="M-3.8 -9.75 L-4.0 -9.05 -4.0 -8.8 Q-4.0 -8.1 -3.6 -7.55 -3.0 -6.9 -2.25 -6.95 L-3.05 -6.4 -5.05 -6.25 -5.4 -6.6 -5.55 -7.1 -5.5 -7.95 Q-5.45 -8.45 -4.8 -9.0 L-3.8 -9.75" fill="#8dc7b5" fill-rule="evenodd" stroke="none"/>
    <path d="M-2.25 -6.95 Q-0.6 -8.35 -1.45 -9.4 L-1.5 -9.45 Q-1.9 -10.0 -2.45 -9.95 L-3.8 -9.75 -4.8 -9.0 Q-5.45 -8.45 -5.5 -7.95 L-5.55 -7.1 -5.4 -6.6 -5.05 -6.25 -3.05 -6.4 -2.25 -6.95 M-0.65 -7.75 L-0.45 -8.2 -0.4 -8.35 -0.4 -8.65 -0.4 -9.0 -0.7 -9.65 -1.45 -10.05 -2.45 -9.95 M-0.65 -7.75 Q-0.8 -7.1 -1.65 -6.45 L-2.9 -5.6 -4.2 -5.2 Q-5.15 -5.0 -5.5 -5.55 -5.9 -6.1 -5.55 -7.1" ffdec:has-small-stroke="true" ffdec:original-stroke-width="0.3" fill="none" stroke="#000000" stroke-linecap="round" stroke-linejoin="round" stroke-opacity="0.4" stroke-width="1.0"/>
    <path d="M-1.85 -9.3 Q-1.7 -9.0 -1.9 -8.65 -2.0 -8.25 -2.4 -8.05 L-3.25 -8.0 -3.75 -8.35 -3.75 -9.0 -3.15 -9.5 -2.4 -9.65 Q-2.0 -9.6 -1.85 -9.3" fill="#ffffff" fill-rule="evenodd" stroke="none"/>
    <path d="M5.35 -8.3 L5.55 -8.55 5.55 -8.45 5.35 -8.3" fill="#a2b88f" fill-rule="evenodd" stroke="none"/>
    <path d="M5.35 -8.3 L5.55 -8.45 5.95 -7.1 Q6.05 -5.5 5.0 -4.3 4.0 -3.15 2.4 -3.0 0.8 -2.9 -0.35 -3.9 L-1.3 -5.0 -0.4 -5.25 0.05 -4.55 Q0.45 -4.1 1.1 -4.05 1.75 -4.1 2.2 -4.55 2.65 -5.0 2.65 -5.6 L2.45 -6.35 3.7 -7.05 5.35 -8.3" fill="#efefef" fill-rule="evenodd" stroke="none"/>
    <path d="M2.9 -8.4 L2.55 -7.1 Q-0.45 -5.85 -1.75 -5.75 L-1.7 -6.6 0.55 -7.2 2.9 -8.4" fill="#fcfcfc" fill-rule="evenodd" stroke="none"/>
    <path d="M-0.4 -5.25 Q1.15 -5.75 2.45 -6.35 L2.65 -5.6 Q2.65 -5.0 2.2 -4.55 1.75 -4.1 1.1 -4.05 0.45 -4.1 0.05 -4.55 L-0.4 -5.25" fill="#000000" fill-rule="evenodd" stroke="none"/>
    <path d="M2.95 -8.45 L2.9 -8.4 0.55 -7.2 -1.7 -6.6 Q-1.8 -7.95 -1.0 -9.05 L-0.8 -9.3 Q-0.05 -10.2 1.05 -10.45 2.15 -10.05 2.6 -9.5 L3.0 -8.6 2.95 -8.45 M1.8 -8.65 L1.8 -8.85 1.65 -9.2 1.25 -9.4 0.85 -9.2 0.7 -8.85 0.85 -8.45 1.25 -8.3 Q1.45 -8.3 1.65 -8.45 L1.8 -8.65" fill="#c9e9dc" fill-rule="evenodd" stroke="none"/>
    <path d="M4.55 -9.75 L2.95 -8.45 3.0 -8.6 2.6 -9.5 Q2.15 -10.05 1.05 -10.45 L1.8 -10.6 Q3.35 -10.75 4.55 -9.75" fill="#77c8a8" fill-rule="evenodd" stroke="none"/>
    <path d="M1.8 -8.65 L1.65 -8.45 Q1.45 -8.3 1.25 -8.3 L0.85 -8.45 0.7 -8.85 0.85 -9.2 1.25 -9.4 1.65 -9.2 1.8 -8.85 1.8 -8.65" fill="#ffffff" fill-rule="evenodd" stroke="none"/>
    <path d="M5.55 -8.55 L5.35 -8.3 3.7 -7.05 2.45 -6.35 Q1.15 -5.75 -0.4 -5.25 L-1.3 -5.0 Q-1.7 -5.3 -1.75 -5.75 -0.45 -5.85 2.55 -7.1 L2.9 -8.4 2.95 -8.45 4.55 -9.75 Q5.5 -9.4 5.55 -8.55" fill="#bae3d3" fill-rule="evenodd" stroke="none"/>
    <path d="M5.55 -8.55 L5.35 -8.3 3.7 -7.05 2.45 -6.35 Q1.15 -5.75 -0.4 -5.25 L-1.3 -5.0 -0.35 -3.9 Q0.8 -2.9 2.4 -3.0 4.0 -3.15 5.0 -4.3 6.05 -5.5 5.95 -7.1 L5.55 -8.45 M5.55 -8.55 Q5.5 -9.4 4.55 -9.75 L2.95 -8.45 2.9 -8.4 0.55 -7.2 -1.7 -6.6 -1.75 -5.75 Q-1.7 -5.3 -1.3 -5.0 M1.05 -10.45 L1.8 -10.6 Q3.35 -10.75 4.55 -9.75 M-1.7 -6.6 Q-1.8 -7.95 -1.0 -9.05 L-0.8 -9.3 Q-0.05 -10.2 1.05 -10.45" ffdec:has-small-stroke="true" ffdec:original-stroke-width="0.3" fill="none" stroke="#000000" stroke-linecap="round" stroke-linejoin="round" stroke-opacity="0.4" stroke-width="1.0"/>
    <path d="M5.35 -8.3 L5.55 -8.45 5.55 -8.55" ffdec:has-small-stroke="true" ffdec:original-stroke-width="0.05" fill="none" stroke="#000000" stroke-linecap="round" stroke-linejoin="round" stroke-opacity="0.4" stroke-width="1.0"/>
    <path d="M2.75 -4.4 L2.05 -4.55 Q1.8 -4.7 1.8 -4.95 L2.05 -5.3 2.75 -5.5 3.4 -5.3 3.7 -4.95 3.4 -4.55 2.75 -4.4" fill="#ffffff" fill-rule="evenodd" stroke="none"/>
    <path d="M4.85 -3.8 Q1.45 -0.9 -0.3 -3.3 L4.85 -3.8" fill="#f7fbf9" fill-rule="evenodd" stroke="none"/>
    <path d="M4.85 -3.8 L-0.3 -3.3 Q1.45 -0.9 4.85 -3.8 Z" ffdec:has-small-stroke="true" ffdec:original-stroke-width="0.3" fill="none" stroke="#000000" stroke-linecap="round" stroke-linejoin="round" stroke-opacity="0.4" stroke-width="1.0"/>
  </g>
</svg>
