<?xml version="1.0" encoding="UTF-8" standalone="no"?>
<svg xmlns:ffdec="https://www.free-decompiler.com/flash" xmlns:xlink="http://www.w3.org/1999/xlink" ffdec:objectType="shape" height="309.8px" width="263.0px" xmlns="http://www.w3.org/2000/svg">
  <g transform="matrix(1.0, 0.0, 0.0, 1.0, 186.55, 177.9)">
    <path d="M-18.5 -78.25 L-18.55 -78.3 -15.4 -78.2 -15.45 -73.3 -18.5 -78.25" fill="url(#gradient0)" fill-rule="evenodd" stroke="none"/>
    <path d="M-19.45 -76.55 L-20.15 -78.4 -20.45 -79.0 Q-23.55 -84.9 -26.45 -91.7 L-18.5 -78.35 -18.55 -78.3 -18.5 -78.25 -19.45 -76.55" fill="url(#gradient1)" fill-rule="evenodd" stroke="none"/>
    <path d="M-52.75 -124.65 Q-53.5 -129.85 -50.75 -133.7 -48.1 -137.6 -43.55 -137.65 -39.0 -137.75 -35.25 -134.0 -31.45 -130.25 -30.15 -124.45 L-30.2 -124.4 -26.5 -103.65 Q-25.6 -99.0 -26.0 -97.0 -27.0 -92.7 -34.05 -100.65 L-34.85 -101.5 -39.05 -106.05 -48.15 -115.6 Q-51.95 -119.35 -52.75 -124.65" fill="#a5dac6" fill-rule="evenodd" stroke="none"/>
    <path d="M-28.65 -56.45 L-29.5 -57.65 -32.55 -62.05 -35.35 -66.2 -42.15 -76.65 -44.75 -80.9 -48.3 -86.75 Q-58.25 -103.55 -67.85 -122.85 L-68.6 -124.25 Q-76.45 -169.2 -68.3 -177.6 -54.75 -180.9 -17.8 -148.35 -9.0 -140.05 -7.3 -132.85 -5.6 -125.55 -6.05 -118.55 L-11.3 -83.55 0.3 -114.8 2.95 -107.45 Q6.65 -95.9 10.25 -77.65 L6.1 -77.75 7.15 -73.2 8.2 -68.25 10.25 -57.25 Q12.25 -46.15 13.85 -33.45 11.95 -31.95 3.7 -43.55 L-0.6 -49.8 -11.2 -66.3 Q-9.6 -72.8 -8.65 -78.35 L6.1 -77.75 Q2.15 -88.5 -1.6 -97.0 -3.15 -96.65 -7.15 -83.4 L-8.65 -78.35 -15.4 -78.35 Q-7.6 -126.6 -14.1 -137.8 L-14.25 -137.95 -14.2 -138.0 Q-33.35 -155.55 -48.1 -162.0 -56.5 -165.75 -62.8 -165.45 -67.9 -142.35 -65.65 -127.45 L-64.4 -121.85 Q-55.85 -104.6 -47.0 -89.45 L-43.5 -83.6 -37.1 -73.45 -29.25 -61.85 -29.2 -61.75 -28.25 -60.45 -28.2 -61.0 Q-26.35 -72.25 -20.15 -78.4 L-19.45 -76.55 Q-11.55 -57.35 -7.7 -46.4 L-5.5 -39.65 Q-2.9 -31.0 -4.95 -31.95 L-7.8 -34.95 Q-17.7 -45.9 -27.35 -59.2 L-28.65 -56.45" fill="#b6e2d4" fill-rule="evenodd" stroke="none"/>
    <path d="M-20.15 -78.4 Q-26.35 -72.25 -28.2 -61.0 L-28.25 -60.45 -29.2 -61.75 -29.25 -61.85 -37.1 -73.45 -43.5 -83.6 -47.0 -89.45 Q-55.85 -104.6 -64.4 -121.85 L-65.65 -127.45 Q-67.9 -142.35 -62.8 -165.45 -56.5 -165.75 -48.1 -162.0 -33.35 -155.55 -14.2 -138.0 L-14.25 -137.95 -14.1 -137.8 Q-7.6 -126.6 -15.4 -78.35 L-15.4 -78.2 -18.55 -78.3 -18.5 -78.35 -26.45 -91.7 Q-23.55 -84.9 -20.45 -79.0 L-20.15 -78.4 M-8.65 -78.35 L-7.15 -83.4 Q-3.15 -96.65 -1.6 -97.0 2.15 -88.5 6.1 -77.75 L-8.65 -78.35 M-52.75 -124.65 Q-51.95 -119.35 -48.15 -115.6 L-39.05 -106.05 -34.85 -101.5 -34.05 -100.65 Q-27.0 -92.7 -26.0 -97.0 -25.6 -99.0 -26.5 -103.65 L-30.2 -124.4 -30.15 -124.45 Q-31.45 -130.25 -35.25 -134.0 -39.0 -137.75 -43.55 -137.65 -48.1 -137.6 -50.75 -133.7 -53.5 -129.85 -52.75 -124.65" fill="#fcfff1" fill-rule="evenodd" stroke="none"/>
    <path d="M-28.65 -56.45 L-27.35 -59.2 Q-17.7 -45.9 -7.8 -34.95 L-4.95 -31.95 Q-2.9 -31.0 -5.5 -39.65 L-7.7 -46.4 Q-11.55 -57.35 -19.45 -76.55 L-18.5 -78.25 -15.45 -73.3 -15.4 -78.2 -15.4 -78.35 -8.65 -78.35 Q-9.6 -72.8 -11.2 -66.3 L-0.6 -49.8 3.7 -43.55 Q11.95 -31.95 13.85 -33.45 12.25 -46.15 10.25 -57.25 L8.2 -68.25 7.15 -73.2 6.1 -77.75 10.25 -77.65 10.35 -77.1 13.0 -62.85 Q15.65 -47.65 18.25 -28.75 L18.6 -26.25 16.3 -24.7 Q7.55 -19.65 -2.6 -24.7 L-9.25 -31.95 Q-19.1 -43.1 -28.65 -56.45" fill="#92d3be" fill-rule="evenodd" stroke="none"/>
    <path d="M10.25 -77.65 Q6.65 -95.9 2.95 -107.45 L0.3 -114.8 -11.3 -83.55 -6.05 -118.55 Q-5.6 -125.55 -7.3 -132.85 -9.0 -140.05 -17.8 -148.35 -54.75 -180.9 -68.3 -177.6 -76.45 -169.2 -68.6 -124.25 L-67.85 -122.85 Q-58.25 -103.55 -48.3 -86.75 L-44.75 -80.9 -42.15 -76.65 -35.35 -66.2 -32.55 -62.05 -29.5 -57.65 -28.65 -56.45 Q-19.1 -43.1 -9.25 -31.95 L-2.6 -24.7 Q7.55 -19.65 16.3 -24.7 L18.6 -26.25 18.25 -28.75 Q15.65 -47.65 13.0 -62.85 L10.35 -77.1 10.25 -77.65 Z" ffdec:has-small-stroke="true" ffdec:original-stroke-width="0.05" fill="none" stroke="#000000" stroke-linecap="round" stroke-linejoin="round" stroke-opacity="0.29803923" stroke-width="1.0"/>
    <path d="M-113.9 -43.05 L-111.7 -46.15 -108.8 -40.75 -113.9 -43.05" fill="url(#gradient2)" fill-rule="evenodd" stroke="none"/>
    <path d="M-110.55 -47.8 L-109.2 -46.15 -111.75 -46.2 -119.6 -60.4 Q-114.75 -54.25 -110.95 -48.4 L-110.55 -47.8" fill="url(#gradient3)" fill-rule="evenodd" stroke="none"/>
    <path d="M-134.05 -102.1 Q-129.15 -98.75 -128.15 -93.2 -127.4 -89.1 -125.05 -79.7 L-123.45 -73.4 -123.15 -72.2 Q-120.25 -61.45 -125.4 -62.6 -127.8 -63.15 -131.95 -66.25 L-150.65 -80.0 -150.7 -80.05 Q-155.75 -84.15 -156.75 -89.65 -157.85 -95.15 -154.35 -99.55 -150.9 -103.9 -144.9 -104.65 -138.9 -105.4 -134.05 -102.1" fill="#a5dac6" fill-rule="evenodd" stroke="none"/>
    <path d="M-110.55 -47.8 Q-99.55 -50.85 -86.6 -47.1 L-85.95 -46.9 -86.6 -48.45 -86.65 -48.55 Q-89.45 -55.15 -92.75 -61.85 -95.45 -67.45 -98.5 -73.05 L-101.95 -79.35 Q-110.95 -95.35 -122.45 -112.1 -124.75 -114.35 -127.3 -116.05 -141.0 -125.55 -168.75 -131.85 -173.75 -125.85 -176.2 -115.85 -180.55 -98.3 -176.65 -71.15 L-176.65 -71.1 -176.6 -71.1 -176.6 -71.0 -176.55 -70.95 Q-169.85 -59.1 -114.05 -43.1 L-119.15 -36.55 Q-112.65 -34.8 -104.75 -33.15 -99.25 -22.65 -95.6 -14.8 L-92.35 -7.5 Q-86.6 6.2 -89.5 7.3 -101.45 -0.45 -111.45 -7.8 L-121.25 -15.2 -125.6 -18.65 -129.5 -21.9 -119.15 -36.55 -125.5 -37.55 Q-142.2 -40.15 -143.65 -38.8 -137.7 -31.0 -129.5 -21.9 L-132.5 -17.8 Q-148.7 -30.25 -157.9 -39.45 L-163.55 -45.65 -122.5 -41.7 -162.6 -53.7 Q-170.25 -56.65 -176.5 -61.85 -182.75 -67.05 -184.7 -79.7 -190.7 -131.6 -177.2 -143.1 -162.45 -146.95 -121.85 -117.35 L-120.9 -115.95 Q-108.1 -97.2 -98.15 -79.3 L-94.75 -73.0 -92.3 -68.35 -86.55 -56.6 -84.35 -51.85 -82.1 -46.7 -81.5 -45.3 -85.3 -45.4 Q-78.75 -29.55 -74.9 -14.5 L-73.9 -10.3 Q-74.45 -7.8 -81.45 -14.6 L-86.75 -20.05 Q-95.2 -29.15 -109.2 -46.15 L-110.55 -47.8" fill="#b6e2d4" fill-rule="evenodd" stroke="none"/>
    <path d="M-176.6 -71.1 L-176.65 -71.1 -176.65 -71.15 Q-180.55 -98.3 -176.2 -115.85 -173.75 -125.85 -168.75 -131.85 -141.0 -125.55 -127.3 -116.05 -124.75 -114.35 -122.45 -112.1 -110.95 -95.35 -101.95 -79.35 L-98.5 -73.05 Q-95.45 -67.45 -92.75 -61.85 -89.45 -55.15 -86.65 -48.55 L-86.6 -48.45 -85.95 -46.9 -86.6 -47.1 Q-99.55 -50.85 -110.55 -47.8 L-110.95 -48.4 Q-114.75 -54.25 -119.6 -60.4 L-111.75 -46.2 -111.7 -46.15 -113.9 -43.05 -114.05 -43.1 Q-169.85 -59.1 -176.55 -70.95 L-176.6 -71.1 M-129.5 -21.9 Q-137.7 -31.0 -143.65 -38.8 -142.2 -40.15 -125.5 -37.55 L-119.15 -36.55 -129.5 -21.9 M-134.05 -102.1 Q-138.9 -105.4 -144.9 -104.65 -150.9 -103.9 -154.35 -99.55 -157.85 -95.15 -156.75 -89.65 -155.75 -84.15 -150.7 -80.05 L-150.65 -80.0 -131.95 -66.25 Q-127.8 -63.15 -125.4 -62.6 -120.25 -61.45 -123.15 -72.2 L-123.45 -73.4 -125.05 -79.7 Q-127.4 -89.1 -128.15 -93.2 -129.15 -98.75 -134.05 -102.1" fill="#fcfff1" fill-rule="evenodd" stroke="none"/>
    <path d="M-109.2 -46.15 Q-95.2 -29.15 -86.75 -20.05 L-81.45 -14.6 Q-74.45 -7.8 -73.9 -10.3 L-74.9 -14.5 Q-78.75 -29.55 -85.3 -45.4 L-81.5 -45.3 Q-74.9 -29.5 -70.7 -14.45 L-68.15 -4.45 Q-70.5 7.9 -82.25 13.95 L-85.55 15.45 -87.9 13.9 Q-105.5 2.1 -119.25 -7.9 L-132.05 -17.45 -132.5 -17.8 -129.5 -21.9 -125.6 -18.65 -121.25 -15.2 -111.45 -7.8 Q-101.45 -0.45 -89.5 7.3 -86.6 6.2 -92.35 -7.5 L-95.6 -14.8 Q-99.25 -22.65 -104.75 -33.15 -112.65 -34.8 -119.15 -36.55 L-114.05 -43.1 -113.9 -43.05 -108.8 -40.75 -111.7 -46.15 -111.75 -46.2 -109.2 -46.15" fill="#92d3be" fill-rule="evenodd" stroke="none"/>
    <path d="M-81.5 -45.3 L-82.1 -46.7 -84.35 -51.85 -86.55 -56.6 -92.3 -68.35 -94.75 -73.0 -98.15 -79.3 Q-108.1 -97.2 -120.9 -115.95 L-121.85 -117.35 Q-162.45 -146.95 -177.2 -143.1 -190.7 -131.6 -184.7 -79.7 -182.75 -67.05 -176.5 -61.85 -170.25 -56.65 -162.6 -53.7 L-122.5 -41.7 -163.55 -45.65 -157.9 -39.45 Q-148.7 -30.25 -132.5 -17.8 L-132.05 -17.45 -119.25 -7.9 Q-105.5 2.1 -87.9 13.9 L-85.55 15.45 -82.25 13.95 Q-70.5 7.9 -68.15 -4.45 L-70.7 -14.45 Q-74.9 -29.5 -81.5 -45.3 Z" ffdec:has-small-stroke="true" ffdec:original-stroke-width="0.05" fill="none" stroke="#000000" stroke-linecap="round" stroke-linejoin="round" stroke-opacity="0.29803923" stroke-width="1.0"/>
    <path d="M-27.35 -5.95 L-26.95 -5.45 -26.95 -5.0 -27.35 -5.95" fill="url(#gradient4)" fill-rule="evenodd" stroke="none"/>
    <path d="M47.35 -12.45 Q40.75 -28.45 33.25 -37.3 L28.85 -41.7 28.7 -41.85 28.55 -41.95 Q15.8 -52.25 -1.2 -42.35 L-1.3 -42.35 Q-11.05 -43.6 -9.15 -47.85 -8.3 -49.85 -4.8 -52.55 26.65 -76.85 46.65 -33.1 L47.4 -31.4 48.05 -29.9 48.4 -28.95 Q49.65 -25.45 50.9 -20.4 50.25 -16.35 47.35 -12.45 M-25.85 -2.1 Q-35.7 -22.55 -51.8 -25.8 -72.3 -24.2 -94.0 -1.4 -113.45 19.05 -120.5 41.05 L-120.85 42.2 Q-133.6 83.9 -108.25 95.3 -122.15 90.25 -130.3 79.2 -139.9 66.2 -135.8 46.0 -132.4 29.45 -120.35 14.2 -115.85 8.4 -110.1 2.85 -89.3 -17.45 -72.6 -23.85 -77.45 -22.25 -82.65 -19.45 -123.5 0.55 -101.8 -19.1 L-99.6 -21.1 Q-50.8 -59.7 -27.35 -5.95 L-26.95 -5.0 -26.0 -2.65 -25.85 -2.1 M-72.6 -23.85 Q-61.15 -27.75 -51.8 -25.8 -61.15 -27.75 -72.6 -23.85 M-51.8 -25.8 L-51.35 -26.15 -51.8 -25.8" fill="#c6e8db" fill-rule="evenodd" stroke="none"/>
    <path d="M-1.3 -42.35 L-1.2 -42.35 Q15.8 -52.25 28.55 -41.95 L28.7 -41.85 28.85 -41.7 33.25 -37.3 Q40.75 -28.45 47.35 -12.45 48.6 -7.95 49.15 -3.3 53.55 34.5 17.5 64.2 L16.0 65.4 Q-1.05 81.9 -23.0 89.15 -78.65 105.95 -108.25 95.3 -78.65 105.95 -23.0 89.15 -1.05 81.9 16.0 65.4 L17.5 64.2 Q53.55 34.5 49.15 -3.3 48.6 -7.95 47.35 -12.45 50.25 -16.35 50.9 -20.4 49.65 -25.45 48.4 -28.95 52.1 -19.45 52.95 -9.45 53.55 -2.65 53.0 4.65 L52.95 5.35 Q49.8 37.9 21.75 64.25 L14.55 70.55 Q-4.55 89.55 -28.6 97.75 -69.95 110.25 -97.5 108.3 -129.35 106.1 -143.0 84.45 -150.0 73.35 -148.7 58.7 -146.5 33.8 -120.25 -1.75 L-119.45 -2.85 Q-110.25 -12.3 -101.8 -19.1 -123.5 0.55 -82.65 -19.45 -77.45 -22.25 -72.6 -23.85 -89.3 -17.45 -110.1 2.85 -115.85 8.4 -120.35 14.2 -132.4 29.45 -135.8 46.0 -139.9 66.2 -130.3 79.2 -122.15 90.25 -108.25 95.3 -133.6 83.9 -120.85 42.2 L-120.5 41.05 Q-113.45 19.05 -94.0 -1.4 -72.3 -24.2 -51.8 -25.8 -35.7 -22.55 -25.85 -2.1 L-25.85 -2.05 Q-23.6 -14.9 -13.95 -29.2 -8.15 -37.85 -1.3 -42.35 -8.15 -37.85 -13.95 -29.2 -23.6 -14.9 -25.85 -2.05 L-25.85 -2.1 -26.0 -2.65 -26.95 -5.0 -26.95 -5.45 Q-25.75 -24.05 -15.3 -39.7 -12.35 -44.3 -9.15 -47.85 -11.05 -43.6 -1.3 -42.35" fill="#a5dac6" fill-rule="evenodd" stroke="none"/>
    <path d="M47.35 -12.45 Q40.75 -28.45 33.25 -37.3 L28.85 -41.7 28.7 -41.85 28.55 -41.95 Q15.8 -52.25 -1.2 -42.35 L-1.3 -42.35 Q-8.15 -37.85 -13.95 -29.2 -23.6 -14.9 -25.85 -2.05 L-25.85 -2.1 Q-35.7 -22.55 -51.8 -25.8 -61.15 -27.75 -72.6 -23.85 -89.3 -17.45 -110.1 2.85 -115.85 8.4 -120.35 14.2 -132.4 29.45 -135.8 46.0 -139.9 66.2 -130.3 79.2 -122.15 90.25 -108.25 95.3 -78.65 105.95 -23.0 89.15 -1.05 81.9 16.0 65.4 L17.5 64.2 Q53.55 34.5 49.15 -3.3 48.6 -7.95 47.35 -12.45 M-51.35 -26.15 L-51.8 -25.8" ffdec:has-small-stroke="true" ffdec:original-stroke-width="0.05" fill="none" stroke="#000000" stroke-linecap="round" stroke-linejoin="round" stroke-opacity="0.14901961" stroke-width="1.0"/>
    <path d="M48.4 -28.95 L48.05 -29.9 47.4 -31.4 M-101.8 -19.1 Q-110.25 -12.3 -119.45 -2.85 L-120.25 -1.75 Q-146.5 33.8 -148.7 58.7 -150.0 73.35 -143.0 84.45 -129.35 106.1 -97.5 108.3 -69.95 110.25 -28.6 97.75 -4.55 89.55 14.55 70.55 L21.75 64.25 Q49.8 37.9 52.95 5.35 L53.0 4.65 Q53.55 -2.65 52.95 -9.45 52.1 -19.45 48.4 -28.95 M-26.95 -5.45 Q-25.75 -24.05 -15.3 -39.7 -12.35 -44.3 -9.15 -47.85 M-26.95 -5.0 L-26.95 -5.45" ffdec:has-small-stroke="true" ffdec:original-stroke-width="0.1" fill="none" stroke="#000000" stroke-linecap="round" stroke-linejoin="round" stroke-opacity="0.29803923" stroke-width="1.0"/>
    <path d="M47.4 -31.4 L46.65 -33.1 Q26.65 -76.85 -4.8 -52.55 -8.3 -49.85 -9.15 -47.85 M-101.8 -19.1 L-99.6 -21.1 Q-50.8 -59.7 -27.35 -5.95" ffdec:has-small-stroke="true" ffdec:original-stroke-width="0.8" fill="none" stroke="#000000" stroke-linecap="round" stroke-linejoin="round" stroke-opacity="0.29803923" stroke-width="1.0"/>
    <path d="M-29.8 44.25 Q-30.7 49.45 -32.4 54.2 -33.35 56.95 -34.6 59.45 -40.25 71.35 -51.65 80.65 L-52.55 81.45 Q-65.85 92.7 -81.3 95.6 L-91.3 96.6 -96.25 96.5 -103.2 95.4 Q-116.6 92.3 -125.75 81.25 -138.4 66.6 -135.1 45.45 -131.35 24.2 -113.5 8.3 -95.65 -6.95 -73.85 -7.3 -52.05 -7.25 -39.05 7.75 -26.5 23.4 -29.8 44.25" fill="#386154" fill-rule="evenodd" stroke="none"/>
    <path d="M-119.6 53.05 Q-115.1 61.25 -119.1 68.1 -106.45 70.45 -106.65 78.65 -98.0 79.45 -96.4 88.75 -111.45 125.6 -136.5 131.9 -139.95 113.15 -129.9 97.25 -147.95 106.7 -166.5 105.2 -163.55 86.7 -144.4 76.05 -164.6 77.15 -174.95 65.0 -159.35 49.2 -140.4 48.35 -161.15 41.3 -172.15 25.95 -148.95 11.9 -117.05 20.9 -109.65 48.3 -118.65 53.15 L-119.6 53.05" fill="#a5dac6" fill-rule="evenodd" stroke="none"/>
    <path d="M-96.4 88.75 Q-111.45 125.6 -136.5 131.9 -139.95 113.15 -129.9 97.25 -147.95 106.7 -166.5 105.2 -163.55 86.7 -144.4 76.05 -164.6 77.15 -174.95 65.0 -159.35 49.2 -140.4 48.35 -161.15 41.3 -172.15 25.95 -148.95 11.9 -117.05 20.9 M-118.65 53.15 L-119.6 53.05" ffdec:has-small-stroke="true" ffdec:original-stroke-width="0.05" fill="none" stroke="#000000" stroke-linecap="round" stroke-linejoin="round" stroke-opacity="0.3019608" stroke-width="1.0"/>
    <path d="M-56.3 22.95 Q-64.05 13.85 -76.75 13.9 -89.75 14.15 -100.1 23.0 -110.8 32.4 -112.55 45.05 -114.95 57.7 -107.15 66.5 -100.0 75.5 -87.0 75.25 -74.3 75.2 -63.6 66.1 -52.95 57.0 -50.6 44.4 -48.8 31.75 -56.3 22.95 M-50.8 18.55 Q-41.9 29.25 -44.55 44.35 -47.15 59.5 -59.6 70.35 -72.25 81.25 -87.85 81.4 -103.4 81.55 -112.3 70.9 -121.5 60.15 -118.9 45.05 -116.6 29.95 -103.85 19.1 -91.15 8.2 -75.55 7.7 -60.05 7.9 -50.8 18.55" fill="#1c1c1c" fill-rule="evenodd" stroke="none"/>
    <path d="M-55.4 44.45 Q-54.0 34.7 -59.8 27.95 -65.75 20.9 -75.55 20.95 -85.55 21.15 -93.55 27.95 -101.8 35.2 -103.15 44.95 -105.0 54.7 -98.95 61.5 -93.45 68.4 -83.45 68.25 -73.65 68.2 -65.4 61.2 -57.2 54.15 -55.4 44.45 M-56.3 22.95 Q-48.8 31.75 -50.6 44.4 -52.95 57.0 -63.6 66.1 -74.3 75.2 -87.0 75.25 -100.0 75.5 -107.15 66.5 -114.95 57.7 -112.55 45.05 -110.8 32.4 -100.1 23.0 -89.75 14.15 -76.75 13.9 -64.05 13.85 -56.3 22.95" fill="#386154" fill-rule="evenodd" stroke="none"/>
    <path d="M-55.4 44.45 Q-57.2 54.15 -65.4 61.2 -73.65 68.2 -83.45 68.25 -93.45 68.4 -98.95 61.5 -105.0 54.7 -103.15 44.95 -101.8 35.2 -93.55 27.95 -85.55 21.15 -75.55 20.95 -65.75 20.9 -59.8 27.95 -54.0 34.7 -55.4 44.45" fill="#a5dac6" fill-rule="evenodd" stroke="none"/>
    <path d="M-50.8 18.55 Q-60.05 7.9 -75.55 7.7 -91.15 8.2 -103.85 19.1 -116.6 29.95 -118.9 45.05 -121.5 60.15 -112.3 70.9 -103.4 81.55 -87.85 81.4 -72.25 81.25 -59.6 70.35 -47.15 59.5 -44.55 44.35 -41.9 29.25 -50.8 18.55 M-37.3 53.05 L-39.25 57.7 Q-44.3 68.25 -54.4 76.5 -70.25 90.35 -89.6 90.65 L-94.0 90.55 -100.15 89.6 Q-112.05 86.85 -120.15 77.05 -131.4 64.05 -128.45 45.25 -125.15 26.4 -109.3 12.3 -93.45 -1.25 -74.1 -1.55 -54.75 -1.5 -43.2 11.8 -32.1 25.7 -35.0 44.2 -35.8 48.8 -37.3 53.05" fill="#fcfff1" fill-rule="evenodd" stroke="none"/>
    <path d="M-56.3 22.95 Q-48.8 31.75 -50.6 44.4 -52.95 57.0 -63.6 66.1 -74.3 75.2 -87.0 75.25 -100.0 75.5 -107.15 66.5 -114.95 57.7 -112.55 45.05 -110.8 32.4 -100.1 23.0 -89.75 14.15 -76.75 13.9 -64.05 13.85 -56.3 22.95 M-50.8 18.55 Q-41.9 29.25 -44.55 44.35 -47.15 59.5 -59.6 70.35 -72.25 81.25 -87.85 81.4 -103.4 81.55 -112.3 70.9 -121.5 60.15 -118.9 45.05 -116.6 29.95 -103.85 19.1 -91.15 8.2 -75.55 7.7 -60.05 7.9 -50.8 18.55" fill="none" stroke="#000000" stroke-linecap="round" stroke-linejoin="round" stroke-opacity="0.29803923" stroke-width="1.0"/>
    <path d="M-37.3 53.05 L-39.25 57.7" ffdec:has-small-stroke="true" ffdec:original-stroke-width="0.8" fill="none" stroke="#000000" stroke-linecap="round" stroke-linejoin="round" stroke-opacity="0.2" stroke-width="1.0"/>
    <path d="M-39.25 57.7 Q-44.3 68.25 -54.4 76.5 -70.25 90.35 -89.6 90.65 L-94.0 90.55 -100.15 89.6 Q-112.05 86.85 -120.15 77.05 -131.4 64.05 -128.45 45.25 -125.15 26.4 -109.3 12.3 -93.45 -1.25 -74.1 -1.55 -54.75 -1.5 -43.2 11.8 -32.1 25.7 -35.0 44.2 -35.8 48.8 -37.3 53.05" ffdec:has-small-stroke="true" ffdec:original-stroke-width="0.05" fill="none" stroke="#000000" stroke-linecap="round" stroke-linejoin="round" stroke-opacity="0.2" stroke-width="1.0"/>
    <path d="M-59.6 33.2 Q-55.5 38.2 -56.2 45.5 -56.8 52.75 -61.75 57.6 -66.65 62.45 -73.25 62.35 -79.8 62.3 -83.9 57.3 -87.9 52.3 -87.3 45.0 -86.65 37.75 -81.75 32.9 -76.75 28.05 -70.2 28.1 -63.65 28.2 -59.6 33.2" fill="#252424" fill-rule="evenodd" stroke="none"/>
    <path d="M-80.55 45.45 Q-83.35 47.05 -87.35 47.0 -91.35 47.0 -94.15 45.35 -96.9 43.7 -96.9 41.3 -96.85 38.95 -94.05 37.35 -91.3 35.8 -87.3 35.8 -83.3 35.85 -80.55 37.5 -77.75 39.2 -77.75 41.55 -77.75 43.9 -80.55 45.45" fill="#ffffff" fill-rule="evenodd" stroke="none"/>
    <path d="M44.95 -25.35 Q52.85 -10.35 50.8 9.65 50.2 14.6 49.15 19.2 L47.75 24.2 Q44.2 35.6 37.05 44.55 L36.5 45.3 Q28.15 56.1 18.45 58.9 15.35 59.75 12.15 59.85 L9.05 59.75 4.65 58.7 Q-3.75 55.7 -9.5 45.1 -17.45 31.05 -15.35 10.8 -13.0 -9.6 -1.8 -24.85 9.4 -39.45 23.1 -39.8 36.8 -39.75 44.95 -25.35" fill="#386154" fill-rule="evenodd" stroke="none"/>
    <path d="M23.5 21.9 Q22.3 13.8 28.5 8.45 26.6 1.85 35.0 -7.35 30.9 -11.3 32.65 -20.2 32.25 -19.65 31.65 -19.35 24.2 -18.15 27.25 -34.5 45.0 -69.4 64.45 -70.9 59.6 -52.2 47.0 -35.4 60.25 -44.95 74.45 -40.25 69.6 -24.95 54.7 -14.45 70.7 -15.9 76.45 -2.25 63.35 8.95 48.9 11.35 59.35 18.7 60.65 36.15 41.45 44.55 23.5 21.9" fill="#8ab7a6" fill-rule="evenodd" stroke="none"/>
    <path d="M23.5 21.9 Q41.45 44.55 60.65 36.15 59.35 18.7 48.9 11.35 63.35 8.95 76.45 -2.25 70.7 -15.9 54.7 -14.45 69.6 -24.95 74.45 -40.25 60.25 -44.95 47.0 -35.4 59.6 -52.2 64.45 -70.9 45.0 -69.4 27.25 -34.5 M31.65 -19.35 Q32.25 -19.65 32.65 -20.2" ffdec:has-small-stroke="true" ffdec:original-stroke-width="0.05" fill="none" stroke="#000000" stroke-linecap="round" stroke-linejoin="round" stroke-opacity="0.3019608" stroke-width="1.0"/>
    <path d="M21.3 -19.45 Q13.1 -19.25 6.6 -10.75 -0.1 -1.75 -1.2 10.4 -2.7 22.55 2.2 30.95 6.7 39.6 14.85 39.35 22.8 39.3 29.55 30.6 36.25 21.85 37.7 9.8 38.85 -2.35 34.15 -10.8 29.25 -19.5 21.3 -19.45 M22.05 -25.4 Q31.8 -25.2 37.6 -15.0 43.2 -4.75 41.5 9.75 39.9 24.25 32.05 34.65 24.1 45.1 14.3 45.25 4.55 45.4 -1.05 35.2 -6.85 24.9 -5.2 10.4 -3.75 -4.1 4.25 -14.5 12.25 -24.95 22.05 -25.4" fill="#1c1c1c" fill-rule="evenodd" stroke="none"/>
    <path d="M22.05 -25.4 Q12.25 -24.95 4.25 -14.5 -3.75 -4.1 -5.2 10.4 -6.85 24.9 -1.05 35.2 4.55 45.4 14.3 45.25 24.1 45.1 32.05 34.65 39.9 24.25 41.5 9.75 43.2 -4.75 37.6 -15.0 31.8 -25.2 22.05 -25.4 M44.85 22.55 Q41.65 32.65 35.3 40.55 25.35 53.85 13.2 54.15 L10.45 54.05 Q8.45 53.8 6.6 53.1 -0.9 50.5 -6.0 41.1 -13.05 28.6 -11.2 10.6 -9.1 -7.5 0.85 -21.0 10.8 -34.0 22.95 -34.3 35.1 -34.25 42.35 -21.5 49.35 -8.15 47.5 9.6 47.0 14.0 46.05 18.05 L44.85 22.55" fill="#fcfff1" fill-rule="evenodd" stroke="none"/>
    <path d="M21.75 -11.5 Q27.6 -11.55 31.15 -5.2 34.6 1.0 33.75 9.85 32.7 18.65 27.8 25.05 22.85 31.4 17.05 31.45 11.1 31.65 7.8 25.3 4.2 19.2 5.3 10.3 6.1 1.4 11.0 -5.15 15.75 -11.35 21.75 -11.5" fill="#c6e8db" fill-rule="evenodd" stroke="none"/>
    <path d="M21.75 -11.5 Q15.75 -11.35 11.0 -5.15 6.1 1.4 5.3 10.3 4.2 19.2 7.8 25.3 11.1 31.65 17.05 31.45 22.85 31.4 27.8 25.05 32.7 18.65 33.75 9.85 34.6 1.0 31.15 -5.2 27.6 -11.55 21.75 -11.5 M21.3 -19.45 Q29.25 -19.5 34.15 -10.8 38.85 -2.35 37.7 9.8 36.25 21.85 29.55 30.6 22.8 39.3 14.85 39.35 6.7 39.6 2.2 30.95 -2.7 22.55 -1.2 10.4 -0.1 -1.75 6.6 -10.75 13.1 -19.25 21.3 -19.45" fill="#386154" fill-rule="evenodd" stroke="none"/>
    <path d="M44.85 22.55 Q41.65 32.65 35.3 40.55 25.35 53.85 13.2 54.15 L10.45 54.05 Q8.45 53.8 6.6 53.1 -0.9 50.5 -6.0 41.1 -13.05 28.6 -11.2 10.6 -9.1 -7.5 0.85 -21.0 10.8 -34.0 22.95 -34.3 35.1 -34.25 42.35 -21.5 49.35 -8.15 47.5 9.6 47.0 14.0 46.05 18.05" ffdec:has-small-stroke="true" ffdec:original-stroke-width="0.05" fill="none" stroke="#000000" stroke-linecap="round" stroke-linejoin="round" stroke-opacity="0.2" stroke-width="1.0"/>
    <path d="M21.3 -19.45 Q29.25 -19.5 34.15 -10.8 38.85 -2.35 37.7 9.8 36.25 21.85 29.55 30.6 22.8 39.3 14.85 39.35 6.7 39.6 2.2 30.95 -2.7 22.55 -1.2 10.4 -0.1 -1.75 6.6 -10.75 13.1 -19.25 21.3 -19.45" fill="none" stroke="#000000" stroke-linecap="round" stroke-linejoin="round" stroke-opacity="0.29803923" stroke-width="1.0"/>
    <path d="M46.05 18.05 L44.85 22.55" ffdec:has-small-stroke="true" ffdec:original-stroke-width="0.8" fill="none" stroke="#000000" stroke-linecap="round" stroke-linejoin="round" stroke-opacity="0.2" stroke-width="1.0"/>
    <path d="M19.35 29.6 Q16.3 34.25 12.15 34.15 8.0 34.1 5.45 29.3 2.95 24.5 3.3 17.5 3.7 10.55 6.8 5.9 9.95 1.25 14.05 1.3 18.15 1.4 20.7 6.2 23.3 11.0 22.85 18.0 22.45 24.95 19.35 29.6" fill="#252424" fill-rule="evenodd" stroke="none"/>
    <path d="M7.55 17.95 Q5.8 19.45 3.3 19.4 0.75 19.4 -1.0 17.85 -2.7 16.25 -2.7 13.95 -2.7 11.7 -0.95 10.15 0.8 8.7 3.3 8.7 5.8 8.75 7.55 10.3 9.3 11.95 9.3 14.2 9.3 16.45 7.55 17.95" fill="#ffffff" fill-rule="evenodd" stroke="none"/>
    <path d="M-20.1 47.2 L-20.0 47.1 -24.25 51.15 Q-31.25 58.0 -31.95 61.2 -30.1 46.7 -17.65 36.45 L-17.25 36.3 Q-13.0 36.8 -7.75 41.15 -2.5 45.5 -0.75 53.6 1.0 61.7 -3.8 75.45 L-4.25 75.7 Q-2.7 49.9 -6.9 44.6 -12.9 41.35 -20.1 47.2" fill="#9c5e00" fill-rule="evenodd" stroke="none"/>
    <path d="M-20.1 47.2 Q-12.9 41.35 -6.9 44.6 -2.7 49.9 -4.25 75.7 -4.9 70.35 -6.7 65.55 -10.65 55.15 -20.1 47.2" fill="#fcd880" fill-rule="evenodd" stroke="none"/>
    <path d="M-31.95 61.2 Q-31.25 58.0 -24.25 51.15 L-20.0 47.1 -20.1 47.2 Q-10.65 55.15 -6.7 65.55 -4.9 70.35 -4.25 75.7 -8.35 75.05 -12.1 73.85 -23.0 70.4 -31.3 62.4 L-31.6 62.15 -32.0 61.75 -31.95 61.2" fill="#dd9f00" fill-rule="evenodd" stroke="none"/>
    <path d="M-31.3 62.4 Q-23.0 70.4 -12.1 73.85 -14.6 81.55 -21.1 79.0 -27.65 76.45 -31.3 62.4" fill="#a59168" fill-rule="evenodd" stroke="none"/>
    <path d="M-3.8 75.45 Q1.0 61.7 -0.75 53.6 -2.5 45.5 -7.75 41.15 -13.0 36.8 -17.25 36.3 L-17.65 36.45 Q-30.1 46.7 -31.95 61.2 L-32.0 61.75 -31.6 62.15 -31.3 62.4 Q-23.0 70.4 -12.1 73.85 -8.35 75.05 -4.25 75.7 M-17.25 36.3 L-15.7 35.8" ffdec:has-small-stroke="true" ffdec:original-stroke-width="0.05" fill="none" stroke="#000000" stroke-linecap="round" stroke-linejoin="round" stroke-opacity="0.2" stroke-width="1.0"/>
    <path d="M-4.25 75.7 L-3.8 75.45" ffdec:has-small-stroke="true" ffdec:original-stroke-width="0.8" fill="none" stroke="#000000" stroke-linecap="round" stroke-linejoin="round" stroke-opacity="0.29803923" stroke-width="1.0"/>
    <path d="M-19.7 47.1 Q-19.55 45.1 -18.0 44.7 -16.4 44.3 -14.9 45.1 -13.5 46.3 -12.55 47.95 -12.15 49.95 -12.3 51.95 -12.85 53.55 -13.95 53.95 -15.45 54.35 -16.95 53.55 -18.45 52.35 -19.4 50.35 -20.3 48.75 -19.7 47.1" fill="#ffffff" fill-rule="evenodd" stroke="none"/>
  </g>
  <defs>
    <radialGradient cx="0" cy="0" fx="25.6" fy="0" gradientTransform="matrix(-0.0655, 0.0327, 0.0741, 0.129, 11.35, -30.9)" gradientUnits="userSpaceOnUse" id="gradient0" r="819.2" spreadMethod="pad">
      <stop offset="0.0" stop-color="#d4ba7c"/>
      <stop offset="1.0" stop-color="#fcf5e3"/>
    </radialGradient>
    <linearGradient gradientTransform="matrix(-0.027, -0.0613, -0.0652, 0.0202, -32.9, -125.95)" gradientUnits="userSpaceOnUse" id="gradient1" spreadMethod="pad" x1="-819.2" x2="819.2">
      <stop offset="0.0" stop-color="#cbb58a"/>
      <stop offset="1.0" stop-color="#feeaac"/>
    </linearGradient>
    <radialGradient cx="0" cy="0" fx="25.6" fy="0" gradientTransform="matrix(0.0828, -0.0478, 0.078, 0.1352, -85.05, 6.1)" gradientUnits="userSpaceOnUse" id="gradient2" r="819.2" spreadMethod="pad">
      <stop offset="0.0" stop-color="#d4ba7c"/>
      <stop offset="1.0" stop-color="#fcf5e3"/>
    </radialGradient>
    <linearGradient gradientTransform="matrix(-0.0433, -0.0562, 0.0696, -0.0536, -150.25, -83.5)" gradientUnits="userSpaceOnUse" id="gradient3" spreadMethod="pad" x1="-819.2" x2="819.2">
      <stop offset="0.0" stop-color="#cbb58a"/>
      <stop offset="1.0" stop-color="#feeaac"/>
    </linearGradient>
    <radialGradient cx="0" cy="0" gradientTransform="matrix(0.0855, -0.009, -0.0224, 0.0882, -77.4, 35.6)" gradientUnits="userSpaceOnUse" id="gradient4" r="819.2" spreadMethod="pad">
      <stop offset="0.4392156862745098" stop-color="#5a5225"/>
      <stop offset="0.7254901960784313" stop-color="#362f16" stop-opacity="0.0"/>
    </radialGradient>
  </defs>
</svg>
