<?xml version="1.0" encoding="UTF-8" standalone="no"?>
<svg xmlns:ffdec="https://www.free-decompiler.com/flash" xmlns:xlink="http://www.w3.org/1999/xlink" ffdec:objectType="shape" height="23.9px" width="19.25px" xmlns="http://www.w3.org/2000/svg">
  <g transform="matrix(1.0, 0.0, 0.0, 1.0, 10.8, 21.65)">
    <path d="M1.25 -19.0 Q1.55 -18.3 0.75 -17.85 L0.8 -17.4 0.8 -17.1 0.8 -16.95 0.75 -16.85 0.8 -16.8 1.35 -16.45 2.5 -15.15 3.4 -14.05 3.95 -13.2 4.0 -13.15 4.1 -12.85 4.15 -12.75 4.4 -12.7 4.55 -12.65 5.05 -12.8 5.55 -13.35 6.0 -12.05 5.75 -11.95 5.7 -11.85 5.75 -11.95 6.0 -11.85 6.15 -11.75 6.3 -11.45 6.5 -11.2 6.5 -11.15 6.9 -9.6 Q7.2 -9.3 7.35 -10.85 L7.45 -10.0 7.4 -9.4 7.35 -9.2 7.35 -9.15 7.25 -8.9 6.85 -8.25 Q6.6 -7.95 6.3 -8.0 5.7 -7.35 4.6 -7.4 2.5 -6.0 -1.45 -6.0 -3.7 -5.15 -6.55 -5.5 -7.0 -5.15 -7.55 -5.1 L-8.8 -5.25 -9.1 -5.3 -9.15 -5.4 -9.5 -5.75 -9.55 -5.95 Q-9.95 -6.7 -9.9 -7.4 L-9.45 -8.7 -9.55 -9.45 -9.6 -10.25 -10.45 -11.65 -10.7 -13.15 Q-10.4 -13.1 -9.95 -12.3 L-9.5 -11.65 -9.3 -11.45 -9.4 -12.3 -9.3 -12.35 -9.25 -12.85 -8.85 -13.7 -8.65 -14.1 Q-8.3 -14.6 -7.75 -14.7 L-6.75 -14.75 Q-8.3 -14.65 -8.8 -12.8 L-8.8 -12.75 -8.85 -12.5 -8.95 -12.1 -8.95 -11.8 -8.85 -11.4 -8.7 -11.05 -8.45 -10.7 -8.4 -10.7 -8.4 -10.65 -7.6 -10.2 -6.75 -11.3 -5.9 -12.1 -5.0 -12.95 Q-4.5 -14.0 -4.7 -14.9 L-5.05 -15.45 -5.05 -15.5 -4.55 -16.0 -4.15 -16.4 -4.3 -16.55 -4.35 -16.9 -4.3 -17.2 Q-5.4 -18.05 -5.25 -18.65 -4.9 -17.7 -3.85 -17.4 L-3.8 -17.1 -3.8 -16.95 -3.65 -16.8 -3.1 -16.9 -2.95 -16.85 -2.1 -16.55 -1.85 -16.65 -1.8 -16.7 -1.75 -16.75 -1.65 -16.85 -1.45 -17.1 Q-1.05 -16.9 -0.9 -17.2 L-0.9 -17.25 -0.8 -17.7 Q0.7 -17.4 0.25 -18.55 0.6 -18.55 1.25 -19.0 M1.45 -16.85 Q1.65 -17.7 1.95 -18.15 L1.95 -18.1 2.05 -16.55 1.85 -16.7 1.45 -16.85 M5.35 -15.45 L5.35 -15.0 5.3 -13.75 5.05 -14.1 5.2 -15.75 5.35 -15.45 M3.0 -17.15 Q3.7 -17.0 4.25 -16.05 L4.55 -14.8 4.4 -15.0 Q3.9 -16.7 3.0 -17.15 M3.9 -12.5 L3.8 -12.75 3.4 -13.55 3.1 -14.0 1.45 -15.85 1.1 -16.05 0.5 -16.55 0.75 -16.85 0.5 -16.55 Q0.2 -16.4 -0.4 -16.75 -0.1 -15.45 -1.2 -16.3 L-1.3 -16.1 -1.6 -15.95 -0.5 -11.1 0.8 -10.85 -0.95 -10.25 Q-1.35 -10.05 -1.85 -9.8 L-1.7 -9.45 -1.35 -8.95 -1.25 -8.75 Q-1.05 -8.25 -1.0 -7.55 0.5 -8.25 0.7 -7.55 3.8 -9.4 3.4 -8.9 2.85 -8.25 3.3 -8.25 3.7 -8.3 4.75 -9.0 L4.6 -9.6 4.35 -10.3 3.9 -10.95 3.8 -11.0 4.05 -11.3 4.25 -11.1 4.55 -10.7 4.6 -10.65 5.05 -9.1 Q5.2 -8.4 5.6 -9.1 L6.2 -9.85 Q6.05 -8.5 6.6 -9.45 L6.6 -9.6 6.6 -10.0 6.25 -11.0 6.05 -11.35 5.8 -11.65 5.7 -11.85 5.55 -11.95 5.05 -12.0 Q4.75 -11.95 4.35 -11.55 L4.15 -11.9 3.9 -12.5 4.15 -11.9 4.35 -11.55 4.05 -11.3 3.8 -11.0 2.15 -11.05 3.6 -12.05 3.9 -12.5 M6.3 -8.0 L6.5 -8.5 6.5 -8.65 6.6 -9.45 6.5 -8.65 6.5 -8.5 6.3 -8.0 M4.6 -7.4 L4.65 -7.9 4.65 -8.0 4.75 -8.95 4.75 -9.0 4.75 -8.95 4.65 -8.0 4.65 -7.9 4.6 -7.4 M-1.95 -15.75 Q-2.2 -15.6 -2.45 -15.6 -3.0 -15.65 -3.6 -16.25 L-3.75 -16.0 -4.35 -15.2 -4.6 -15.05 -4.65 -15.0 -3.75 -13.25 -3.7 -13.0 -3.65 -13.0 Q-4.65 -10.85 -6.15 -9.8 L-5.4 -9.65 -6.5 -9.2 -6.7 -9.1 -6.95 -8.5 -6.95 -8.45 -7.0 -7.85 -6.9 -6.7 -5.1 -6.65 Q-2.2 -7.85 -2.25 -7.4 -2.4 -6.95 -2.2 -7.1 L-1.4 -7.55 -1.4 -7.65 -1.45 -8.1 -1.6 -8.45 -1.7 -8.85 -1.85 -9.25 -1.95 -9.4 -2.05 -9.7 -1.85 -9.8 -2.05 -9.7 -2.85 -9.85 Q-2.15 -10.05 -1.6 -10.4 L-1.8 -12.55 -1.95 -15.3 -1.95 -15.75 -1.75 -15.85 -1.6 -15.95 -1.75 -15.85 -1.95 -15.75 M-4.15 -16.4 L-3.7 -16.45 -3.6 -16.25 -3.7 -16.45 -4.15 -16.4 M-4.65 -15.0 L-5.0 -15.45 -5.05 -15.5 -5.0 -15.45 -4.65 -15.0 M-1.75 -15.85 L-1.7 -15.35 -1.35 -12.65 -1.15 -11.1 -1.05 -10.95 -0.95 -10.25 -1.05 -10.95 -1.15 -11.1 -1.35 -12.65 -1.7 -15.35 -1.75 -15.85 M-1.45 -6.0 L-1.4 -6.45 -1.4 -6.65 -1.4 -7.55 -1.4 -6.65 -1.4 -6.45 -1.45 -6.0 M-7.6 -9.25 L-8.45 -9.45 -9.15 -9.95 -9.6 -10.25 -9.15 -9.95 -8.45 -9.45 -7.6 -9.25 -8.7 -9.15 -9.15 -8.85 -9.25 -8.45 -9.3 -7.85 -8.8 -6.45 Q-8.0 -6.2 -7.55 -6.65 L-7.45 -7.75 -7.45 -7.95 -7.35 -8.35 -7.2 -8.4 -7.1 -8.95 -7.0 -9.2 -7.1 -9.2 -7.2 -9.25 -7.1 -9.3 Q-6.65 -9.45 -6.15 -9.8 -6.65 -9.45 -7.1 -9.3 L-7.2 -9.25 -7.5 -9.25 -7.6 -9.25 M-7.1 -9.3 L-7.1 -9.2 -7.1 -9.3 M-9.15 -8.85 L-9.3 -8.85 -9.45 -8.7 -9.3 -8.85 -9.15 -8.85 M-6.55 -5.5 L-6.65 -5.85 -6.7 -5.95 -6.7 -6.05 -6.7 -6.1 -6.75 -6.2 -6.9 -6.7 -6.75 -6.2 -6.7 -6.1 -6.7 -6.05 -6.7 -5.95 -6.65 -5.85 -6.55 -5.5 M-6.7 -9.1 L-7.0 -9.2 -6.7 -9.1" fill="#000000" fill-opacity="0.29803923" fill-rule="evenodd" stroke="none"/>
    <path d="M-8.8 -12.75 Q-7.45 -13.9 -6.65 -13.35 L-6.15 -12.85 Q-7.15 -12.2 -7.8 -10.75 L-8.4 -10.7 -8.45 -10.7 -8.7 -11.05 -8.85 -11.4 -8.95 -11.8 -8.95 -12.1 -8.85 -12.5 -8.8 -12.75" fill="#667854" fill-rule="evenodd" stroke="none"/>
    <path d="M2.85 -16.1 L2.7 -16.2 2.7 -16.25 2.25 -16.45 Q2.5 -17.2 3.0 -17.15 3.9 -16.7 4.4 -15.0 L4.05 -15.3 3.15 -15.95 2.9 -16.05 2.85 -16.1 M-8.8 -12.75 L-8.8 -12.8 Q-8.3 -14.65 -6.75 -14.75 L-5.95 -14.5 -5.45 -13.85 -5.0 -12.95 -5.9 -12.1 -6.75 -11.3 -7.6 -10.2 -8.4 -10.65 -8.4 -10.7 -7.8 -10.75 Q-7.15 -12.2 -6.15 -12.85 L-6.65 -13.35 Q-7.45 -13.9 -8.8 -12.75" fill="#414d35" fill-rule="evenodd" stroke="none"/>
    <path d="M-5.25 -18.65 L-5.25 -18.7 Q-5.05 -19.2 -4.15 -19.55 -4.55 -20.05 -3.75 -19.7 -4.25 -21.25 -2.6 -20.95 L-2.65 -21.1 Q-2.65 -21.6 -2.2 -21.1 L-2.15 -21.0 -2.15 -21.1 Q-1.85 -21.65 -1.2 -21.6 -0.8 -21.6 -0.45 -21.1 L-0.1 -20.1 Q1.05 -20.55 0.5 -19.7 L0.75 -19.65 0.95 -19.55 1.25 -19.0 Q1.55 -18.3 0.75 -17.85 L0.8 -17.4 0.8 -17.1 1.45 -16.85 1.85 -16.7 2.05 -16.55 2.25 -16.45 2.7 -16.25 2.7 -16.2 M5.3 -13.75 L5.55 -13.35 6.0 -12.05 6.15 -12.05 6.95 -11.3 M7.2 -11.1 L7.35 -10.85 7.45 -10.0 7.4 -9.4 M7.35 -9.2 L7.35 -9.15 7.25 -8.9 6.85 -8.25 Q6.6 -7.95 6.3 -8.0 5.7 -7.35 4.6 -7.4 2.5 -6.0 -1.45 -6.0 -3.7 -5.15 -6.55 -5.5 -7.0 -5.15 -7.55 -5.1 M-8.8 -5.25 L-9.1 -5.3 -9.15 -5.4 -9.5 -5.75 -9.55 -5.95 Q-9.95 -6.7 -9.9 -7.4 L-9.45 -8.7 -9.55 -9.45 -9.6 -10.25 M-5.9 -16.2 L-4.35 -16.9 -4.3 -17.2 Q-5.4 -18.05 -5.25 -18.65 M4.55 -14.8 L4.9 -14.3 5.0 -14.2 5.05 -14.1 5.3 -13.75 M2.85 -16.1 L2.9 -16.05 3.15 -15.95 4.05 -15.3 4.4 -15.0 4.55 -14.8 M0.8 -17.1 L0.8 -16.95 0.75 -16.85 0.5 -16.55 Q0.2 -16.4 -0.4 -16.75 -0.1 -15.45 -1.2 -16.3 L-1.3 -16.1 -1.6 -15.95 -1.75 -15.85 -1.95 -15.75 Q-2.2 -15.6 -2.45 -15.6 -3.0 -15.65 -3.6 -16.25 L-3.75 -16.0 -4.35 -15.2 -4.6 -15.05 -4.65 -15.0 M0.5 -16.55 L1.1 -16.05 1.45 -15.85 3.1 -14.0 3.4 -13.55 3.8 -12.75 3.9 -12.5 4.15 -11.9 4.35 -11.55 Q4.75 -11.95 5.05 -12.0 M5.55 -11.95 L5.7 -11.85 5.75 -11.95 6.0 -12.05 M0.8 -10.85 L2.15 -11.05 3.8 -11.0 4.05 -11.3 4.35 -11.55 M-5.4 -9.65 L-2.85 -9.85 -2.05 -9.7 -1.85 -9.8 Q-1.35 -10.05 -0.95 -10.25 L0.8 -10.85 M-4.15 -16.4 L-4.3 -16.55 -4.35 -16.9 M-3.6 -16.25 L-3.7 -16.45 -4.15 -16.4 M-0.95 -10.25 L-1.05 -10.95 -1.15 -11.1 -1.35 -12.65 -1.7 -15.35 -1.75 -15.85 M-7.2 -9.25 L-7.1 -9.2 -7.1 -9.3 M-9.15 -8.85 L-8.7 -9.15 -7.6 -9.25 M-7.0 -9.2 L-7.1 -9.2 M-9.45 -8.7 L-9.3 -8.85 -9.15 -8.85 M-6.7 -9.1 L-6.5 -9.2 -5.4 -9.65 M-7.0 -9.2 L-6.7 -9.1" ffdec:has-small-stroke="true" ffdec:original-stroke-width="0.1" fill="none" stroke="#000000" stroke-linecap="round" stroke-linejoin="round" stroke-opacity="0.29803923" stroke-width="1.0"/>
    <path d="M1.45 -16.85 Q1.65 -17.7 1.95 -18.15 L1.95 -18.2 Q2.9 -19.65 4.8 -17.0 L5.3 -15.85 5.35 -15.45 5.35 -15.0 5.3 -13.75 M-9.6 -10.25 L-10.45 -11.65 -10.7 -13.15 -10.6 -14.05 -9.7 -15.35 Q-7.55 -17.1 -5.9 -16.2" ffdec:has-small-stroke="true" ffdec:original-stroke-width="0.25" fill="none" stroke="#000000" stroke-linecap="butt" stroke-linejoin="miter-clip" stroke-miterlimit="3.0" stroke-opacity="0.3019608" stroke-width="1.0"/>
    <path d="M1.95 -18.15 L1.95 -18.1" ffdec:has-small-stroke="true" ffdec:original-stroke-width="0.05" fill="none" stroke="#000000" stroke-linecap="round" stroke-linejoin="round" stroke-opacity="0.34901962" stroke-width="1.0"/>
    <path d="M6.95 -11.3 L7.2 -11.1 M7.4 -9.4 L7.35 -9.2 M4.4 -15.0 Q3.9 -16.7 3.0 -17.15 2.5 -17.2 2.25 -16.45 M5.7 -11.85 L5.8 -11.65 6.05 -11.35 6.25 -11.0 6.6 -10.0 6.6 -9.6 6.6 -9.45 6.5 -8.65 6.5 -8.5 6.3 -8.0 M3.8 -11.0 L3.9 -10.95 4.35 -10.3 4.6 -9.6 4.75 -9.0 4.75 -8.95 4.65 -8.0 4.65 -7.9 4.6 -7.4 M-6.75 -14.75 Q-8.3 -14.65 -8.8 -12.8 L-8.8 -12.75 -8.85 -12.5 M-8.4 -10.65 L-7.6 -10.2 -6.75 -11.3 -5.9 -12.1 -5.0 -12.95 -5.45 -13.85 -5.95 -14.5 -6.75 -14.75 M-8.95 -12.1 L-8.95 -11.8 -8.85 -11.4 -8.7 -11.05 -8.45 -10.7 -8.4 -10.7 M-4.65 -15.0 L-3.75 -13.25 -3.7 -13.0 -3.65 -13.0 Q-4.65 -10.85 -6.15 -9.8 -6.65 -9.45 -7.1 -9.3 L-7.2 -9.25 -7.5 -9.25 -7.6 -9.25 -8.45 -9.45 -9.15 -9.95 -9.6 -10.25 M-5.05 -15.5 L-5.05 -15.55 -5.9 -16.2 M-5.05 -15.5 L-5.0 -15.45 -4.65 -15.0 M-2.05 -9.7 L-1.95 -9.4 -1.85 -9.25 -1.7 -8.85 -1.6 -8.45 -1.45 -8.1 -1.4 -7.65 -1.4 -7.55 -1.4 -6.65 -1.4 -6.45 -1.45 -6.0 M-6.7 -9.1 L-6.95 -8.5 -6.95 -8.45 -7.0 -7.85 -6.9 -6.7 -6.75 -6.2 -6.7 -6.1 -6.7 -6.05 -6.7 -5.95 -6.65 -5.85 -6.55 -5.5" ffdec:has-small-stroke="true" ffdec:original-stroke-width="0.05" fill="none" stroke="#000000" stroke-linecap="round" stroke-linejoin="round" stroke-opacity="0.29803923" stroke-width="1.0"/>
    <path d="M-8.4 -10.7 L-8.4 -10.65 M-8.85 -12.5 L-8.95 -12.1" ffdec:has-small-stroke="true" ffdec:original-stroke-width="0.05" fill="none" stroke="#4b2b15" stroke-linecap="round" stroke-linejoin="round" stroke-opacity="0.34901962" stroke-width="1.0"/>
    <path d="M3.4 -4.1 Q4.0 -5.3 5.05 -4.9 L5.25 -4.8 7.35 -4.2 Q8.65 -3.8 8.3 -2.0 L7.05 0.5 7.05 0.55 7.0 0.65 7.0 0.7 6.85 0.75 6.85 0.8 5.65 1.25 3.45 1.55 Q2.5 1.35 2.25 1.0 L1.75 -0.35 Q1.4 -1.4 2.05 -3.2 L3.4 -4.1" fill="#c6e8db" fill-rule="evenodd" stroke="none"/>
    <path d="M5.05 -4.9 Q4.0 -5.3 3.4 -4.1 L3.4 -4.15 3.6 -4.75 3.75 -5.3 4.05 -5.65 Q4.25 -5.75 4.45 -5.45 L4.85 -5.0 5.05 -4.9 M2.05 -3.2 Q1.4 -1.4 1.75 -0.35 L2.25 1.0 Q2.5 1.35 3.45 1.55 L5.65 1.25 6.85 0.8 Q6.35 1.3 5.65 1.65 L5.5 1.75 4.25 2.1 2.4 2.2 Q1.85 2.1 1.4 1.8 0.95 1.45 1.1 -0.4 1.25 -2.25 2.05 -3.2" fill="#a5dac6" fill-rule="evenodd" stroke="none"/>
    <path d="M6.85 0.8 L6.85 0.75 7.0 0.7 7.0 0.65 7.05 0.55 7.05 0.5 8.3 -2.0 Q8.65 -3.8 7.35 -4.2 L5.25 -4.8 5.05 -4.9" ffdec:has-small-stroke="true" ffdec:original-stroke-width="0.25" fill="none" stroke="#000000" stroke-linecap="butt" stroke-linejoin="miter-clip" stroke-miterlimit="3.0" stroke-opacity="0.3019608" stroke-width="1.0"/>
    <path d="M4.95 -2.8 L4.85 -2.85 5.15 -3.3 5.95 -3.65 6.9 -3.75 7.35 -3.45 7.1 -2.9 6.9 -2.7 6.35 -2.35 4.95 -2.8 M6.95 -3.5 L6.7 -3.6 6.4 -3.5 6.2 -3.4 6.4 -3.3 Q6.5 -3.2 6.7 -3.2 L6.95 -3.3 7.1 -3.4 6.95 -3.5" fill="#000000" fill-rule="evenodd" stroke="none"/>
    <path d="M6.95 -3.5 L7.1 -3.4 6.95 -3.3 6.7 -3.2 Q6.5 -3.2 6.4 -3.3 L6.2 -3.4 6.4 -3.5 6.7 -3.6 6.95 -3.5" fill="#ffffff" fill-rule="evenodd" stroke="none"/>
    <path d="M3.95 0.35 L3.65 0.9 Q3.45 0.65 3.55 0.15 L3.95 0.35" fill="#ffffff" fill-rule="evenodd" stroke="none"/>
    <path d="M3.95 0.35 L3.65 0.9 Q3.45 0.65 3.55 0.15 L3.95 0.35 6.45 0.2 6.25 -0.1" ffdec:has-small-stroke="true" ffdec:original-stroke-width="0.05" fill="none" stroke="#1a1900" stroke-linecap="round" stroke-linejoin="round" stroke-opacity="0.3019608" stroke-width="1.0"/>
  </g>
</svg>
