<?xml version="1.0" encoding="UTF-8" standalone="no"?>
<svg xmlns:ffdec="https://www.free-decompiler.com/flash" xmlns:xlink="http://www.w3.org/1999/xlink" ffdec:objectType="shape" height="23.25px" width="35.3px" xmlns="http://www.w3.org/2000/svg">
  <g transform="matrix(1.0, 0.0, 0.0, 1.0, 18.0, 12.05)">
    <path d="M-16.75 -10.15 L-18.0 -12.05 Q-6.05 -4.45 5.65 2.15 5.0 2.4 4.75 2.8 L2.65 2.0 0.95 0.35 -2.05 -0.8 -4.5 -2.85 -7.5 -4.1 -8.9 -5.6 -12.25 -6.95 -12.65 -7.9 -16.75 -10.15" fill="#9cd6bb" fill-rule="evenodd" stroke="none"/>
    <path d="M4.75 2.8 Q4.4 3.25 4.6 3.95 -5.6 -1.75 -12.75 -6.6 -15.35 -8.35 -16.75 -10.15 L-12.65 -7.9 -12.25 -6.95 -8.9 -5.6 -7.5 -4.1 -4.5 -2.85 -2.05 -0.8 0.95 0.35 2.65 2.0 4.75 2.8" fill="#fcfff1" fill-rule="evenodd" stroke="none"/>
    <path d="M-18.0 -12.05 Q-7.45 -6.5 6.65 1.9 L5.65 2.15 Q-6.05 -4.45 -18.0 -12.05" fill="#437c6b" fill-rule="evenodd" stroke="none"/>
    <path d="M4.75 2.8 Q4.4 3.25 4.6 3.95 -5.6 -1.75 -12.75 -6.6 -15.35 -8.35 -16.75 -10.15 L-18.0 -12.05 Q-7.45 -6.5 6.65 1.9 L5.65 2.15 Q5.0 2.4 4.75 2.8 Z" ffdec:has-small-stroke="true" ffdec:original-stroke-width="0.05" fill="none" stroke="#000000" stroke-linecap="round" stroke-linejoin="round" stroke-opacity="0.3019608" stroke-width="1.0"/>
    <path d="M2.4 3.05 L7.65 -1.6 8.4 -1.35 3.25 3.4 2.4 3.05" fill="#fcfff1" fill-rule="evenodd" stroke="none"/>
    <path d="M8.4 -1.35 L8.4 2.8 3.25 7.55 3.25 3.4 8.4 -1.35" fill="#c6e8db" fill-rule="evenodd" stroke="none"/>
    <path d="M3.25 7.55 L2.45 7.1 2.4 3.05 3.25 3.4 3.25 7.55" fill="#437c6b" fill-rule="evenodd" stroke="none"/>
    <path d="M2.4 3.05 L7.65 -1.6 8.4 -1.35 8.4 2.8 3.25 7.55 2.45 7.1 2.4 3.05 Z" ffdec:has-small-stroke="true" ffdec:original-stroke-width="0.05" fill="none" stroke="#000000" stroke-linecap="round" stroke-linejoin="round" stroke-opacity="0.29803923" stroke-width="1.0"/>
    <path d="M11.4 3.9 Q12.1 4.95 11.75 6.2 11.4 7.45 9.45 5.6 10.05 4.15 11.4 3.9" fill="#b6e2d4" fill-rule="evenodd" stroke="none"/>
    <path d="M11.4 3.9 Q12.1 4.95 11.75 6.2 11.4 7.45 9.45 5.6" ffdec:has-small-stroke="true" ffdec:original-stroke-width="0.05" fill="none" stroke="#000000" stroke-linecap="round" stroke-linejoin="round" stroke-opacity="0.3019608" stroke-width="1.0"/>
    <path d="M17.3 8.9 L17.3 9.8 15.75 11.2 15.75 10.2 17.3 8.9" fill="#fcfff1" fill-rule="evenodd" stroke="none"/>
    <path d="M8.15 5.75 L8.5 4.4 8.55 3.55 17.3 8.9 15.75 10.2 8.15 5.75" fill="#c6e8db" fill-rule="evenodd" stroke="none"/>
    <path d="M15.75 11.2 L7.95 6.65 8.15 5.75 15.75 10.2 15.75 11.2" fill="#437c6b" fill-rule="evenodd" stroke="none"/>
    <path d="M17.3 8.9 L17.3 9.8 15.75 11.2 7.95 6.65 8.15 5.75 8.5 4.4 8.55 3.55 17.3 8.9 Z" ffdec:has-small-stroke="true" ffdec:original-stroke-width="0.05" fill="none" stroke="#000000" stroke-linecap="round" stroke-linejoin="round" stroke-opacity="0.29803923" stroke-width="1.0"/>
    <path d="M8.8 2.25 Q10.3 2.85 11.4 3.9 10.8 4.65 11.05 5.05 9.9 5.35 8.75 6.45 L8.5 7.25 6.1 7.45 5.25 6.3 5.25 5.8 3.6 4.75 Q3.45 3.75 3.95 2.85 5.0 1.65 6.35 1.35 7.35 1.3 8.8 2.25 M8.4 6.8 L8.75 6.45 8.4 6.8 M5.25 5.4 L5.25 5.8 5.25 5.4" fill="#b6e2d4" fill-rule="evenodd" stroke="none"/>
    <path d="M11.05 5.05 Q9.9 5.35 8.75 6.45 L8.5 7.25 6.1 7.45 5.25 6.3 5.25 5.8 3.6 4.75 Q3.45 3.75 3.95 2.85 5.0 1.65 6.35 1.35 7.35 1.3 8.8 2.25 M5.25 5.8 L5.25 5.4 M8.75 6.45 L8.4 6.8" ffdec:has-small-stroke="true" ffdec:original-stroke-width="0.05" fill="none" stroke="#000000" stroke-linecap="round" stroke-linejoin="round" stroke-opacity="0.3019608" stroke-width="1.0"/>
  </g>
</svg>
