<?xml version="1.0" encoding="UTF-8" standalone="no"?>
<svg xmlns:ffdec="https://www.free-decompiler.com/flash" xmlns:xlink="http://www.w3.org/1999/xlink" ffdec:objectType="shape" height="20.0px" width="19.65px" xmlns="http://www.w3.org/2000/svg">
  <g transform="matrix(1.0, 0.0, 0.0, 1.0, 8.65, 10.35)">
    <path d="M10.95 -2.5 L10.05 -3.45 Q8.0 -5.2 4.35 -5.65 L-1.3 -5.35 -3.55 -7.0 -2.7 -7.4 Q0.25 -8.45 3.75 -7.95 7.35 -7.45 9.45 -5.75 L10.7 -4.25 10.7 -4.2 10.8 -4.1 10.95 -2.5" fill="#7ba394" fill-rule="evenodd" stroke="none"/>
    <path d="M10.95 -2.5 L10.05 -3.45 Q8.0 -5.2 4.35 -5.65 L-1.3 -5.35 -3.55 -7.0 -2.7 -7.4 Q0.25 -8.45 3.75 -7.95 7.35 -7.45 9.45 -5.75 L10.7 -4.25 10.8 -4.1 10.7 -4.2 10.7 -4.25" ffdec:has-small-stroke="true" ffdec:original-stroke-width="0.05" fill="none" stroke="#000000" stroke-linecap="round" stroke-linejoin="round" stroke-opacity="0.29803923" stroke-width="1.0"/>
    <path d="M-5.6 -4.2 L-3.6 -5.1 -1.65 -5.1 -3.7 -3.25 -4.65 -3.65 -5.6 -4.2" fill="#ebffff" fill-rule="evenodd" stroke="none"/>
    <path d="M7.35 -6.55 Q6.95 -7.5 5.4 -8.2 3.35 -9.15 0.4 -9.15 -2.55 -9.15 -4.65 -8.2 -6.2 -7.5 -6.55 -6.55 L-6.7 -5.95 -6.65 -5.4 -6.55 -5.2 -6.1 -4.6 -5.6 -4.2 -4.65 -3.65 -3.7 -3.25 -2.3 -2.9 0.4 -2.7 Q3.35 -2.7 5.4 -3.65 L6.7 -4.45 7.35 -5.2 7.4 -5.4 7.5 -5.95 7.35 -6.55 M9.25 -5.7 L9.15 -5.15 9.05 -4.9 Q8.6 -3.95 7.35 -3.15 L6.6 -2.75 Q4.0 -1.4 0.3 -1.4 -3.4 -1.4 -6.05 -2.75 L-6.9 -3.25 Q-8.05 -4.0 -8.45 -4.9 L-8.55 -5.15 -8.65 -5.7 -8.65 -5.9 -8.65 -5.95 Q-8.6 -7.75 -6.05 -9.05 -3.4 -10.35 0.3 -10.35 4.0 -10.35 6.6 -9.05 9.2 -7.75 9.25 -5.95 L9.25 -5.9 9.25 -5.7" fill="#a5dac6" fill-rule="evenodd" stroke="none"/>
    <path d="M-8.65 -5.7 L-8.55 -5.15 -8.45 -4.9 Q-8.05 -4.0 -6.9 -3.25 L-6.05 -2.75 Q-3.4 -1.4 0.3 -1.4 4.0 -1.4 6.6 -2.75 L7.35 -3.15 Q8.6 -3.95 9.05 -4.9 L9.15 -5.15 9.25 -5.7 9.15 -3.0 9.05 -2.75 8.15 -1.6 Q7.55 -1.05 6.6 -0.6 4.0 0.75 0.3 0.75 -3.4 0.75 -6.05 -0.6 L-7.4 -1.45 Q-8.15 -2.05 -8.45 -2.75 L-8.55 -3.0 -8.65 -5.7 M-7.15 0.55 L-7.1 0.6 -6.05 1.2 Q-3.4 2.55 0.3 2.55 L3.4 2.3 3.75 5.5 1.35 9.65 0.3 9.65 Q-2.45 9.65 -4.45 8.65 -6.2 7.8 -6.35 6.6 L-7.15 0.55" fill="#6fc4a0" fill-rule="evenodd" stroke="none"/>
    <path d="M-6.55 -6.55 Q-6.2 -7.5 -4.65 -8.2 -2.55 -9.15 0.4 -9.15 3.35 -9.15 5.4 -8.2 6.95 -7.5 7.35 -6.55 L7.5 -5.95 7.4 -5.4 7.35 -5.2 6.7 -4.45 5.2 -5.4 Q3.4 -6.25 0.9 -6.3 L0.2 -6.35 Q-2.75 -6.35 -4.85 -5.4 L-6.1 -4.6 -6.55 -5.2 -6.65 -5.4 -6.7 -5.95 -6.55 -6.55 M-7.4 -1.45 L-6.05 -0.6 Q-3.4 0.75 0.3 0.75 4.0 0.75 6.6 -0.6 7.55 -1.05 8.15 -1.6 L7.95 0.2 7.9 0.5 7.05 6.6 Q6.85 7.8 5.05 8.65 3.5 9.45 1.35 9.65 L3.75 5.5 3.4 2.3 0.3 2.55 Q-3.4 2.55 -6.05 1.2 L-7.1 0.6 -7.15 0.55 -7.15 0.35 -7.4 -1.45" fill="#7ba394" fill-rule="evenodd" stroke="none"/>
    <path d="M0.9 -6.3 Q3.4 -6.25 5.2 -5.4 L6.7 -4.45 5.4 -3.65 Q3.35 -2.7 0.4 -2.7 L-2.3 -2.9 Q2.0 -3.65 0.9 -6.3" fill="#254b43" fill-rule="evenodd" stroke="none"/>
    <path d="M-6.1 -4.6 L-4.85 -5.4 Q-2.75 -6.35 0.2 -6.35 L0.9 -6.3 Q2.0 -3.65 -2.3 -2.9 L-3.7 -3.25 -1.65 -5.1 -3.6 -5.1 -5.6 -4.2 -6.1 -4.6" fill="#46665f" fill-rule="evenodd" stroke="none"/>
    <path d="M-6.55 -6.55 L-6.7 -5.95 -6.65 -5.4 -6.55 -5.2 -6.1 -4.6 -5.6 -4.2 -4.65 -3.65 -3.7 -3.25 -2.3 -2.9 0.4 -2.7 Q3.35 -2.7 5.4 -3.65 L6.7 -4.45 7.35 -5.2 7.4 -5.4 7.5 -5.95 7.35 -6.55 M9.25 -5.7 L9.25 -5.9 9.25 -5.95 Q9.2 -7.75 6.6 -9.05 4.0 -10.35 0.3 -10.35 -3.4 -10.35 -6.05 -9.05 -8.6 -7.75 -8.65 -5.95 L-8.65 -5.9 -8.65 -5.7 -8.55 -3.0 -8.45 -2.75 Q-8.15 -2.05 -7.4 -1.45 L-6.05 -0.6 Q-3.4 0.75 0.3 0.75 4.0 0.75 6.6 -0.6 7.55 -1.05 8.15 -1.6 L9.05 -2.75 9.15 -3.0 9.25 -5.7 M7.95 0.2 L8.15 -1.6 M1.35 9.65 Q3.5 9.45 5.05 8.65 6.85 7.8 7.05 6.6 L7.9 0.5 M-7.15 0.55 L-6.35 6.6 Q-6.2 7.8 -4.45 8.65 -2.45 9.65 0.3 9.65 L1.35 9.65 M-7.15 0.35 L-7.4 -1.45" ffdec:has-small-stroke="true" ffdec:original-stroke-width="0.05" fill="none" stroke="#000000" stroke-linecap="round" stroke-linejoin="round" stroke-opacity="0.29803923" stroke-width="1.0"/>
    <path d="M0.9 3.15 L1.0 3.95 0.95 4.65 0.1 6.0 Q-0.75 6.9 -1.95 6.9 -3.15 6.9 -4.05 6.0 L-4.35 5.7 -4.45 4.85 -4.35 4.15 Q-4.2 3.4 -3.6 2.75 -2.7 1.9 -1.5 1.9 -0.3 1.9 0.55 2.75 L0.9 3.15" fill="#ffffff" fill-rule="evenodd" stroke="none"/>
    <path d="M0.9 3.15 L1.4 4.15 1.45 4.85 Q1.45 6.05 0.55 6.9 -0.3 7.8 -1.5 7.8 -2.7 7.8 -3.6 6.9 L-4.35 5.7 -4.05 6.0 Q-3.15 6.9 -1.95 6.9 -0.75 6.9 0.1 6.0 L0.95 4.65 1.0 3.95 0.9 3.15" fill="#c2b7bb" fill-rule="evenodd" stroke="none"/>
    <path d="M-4.35 5.7 L-3.6 6.9 Q-2.7 7.8 -1.5 7.8 -0.3 7.8 0.55 6.9 1.45 6.05 1.45 4.85 L1.4 4.15 0.9 3.15 0.55 2.75 Q-0.3 1.9 -1.5 1.9 -2.7 1.9 -3.6 2.75 -4.2 3.4 -4.35 4.15 L-4.45 4.85 -4.35 5.7 Z" ffdec:has-small-stroke="true" ffdec:original-stroke-width="0.05" fill="none" stroke="#000000" stroke-linecap="round" stroke-linejoin="round" stroke-opacity="0.29803923" stroke-width="1.0"/>
    <path d="M-2.5 5.85 Q-2.7 6.15 -3.05 6.15 -3.4 6.15 -3.65 5.85 L-3.8 5.15 -3.65 4.45 Q-3.4 4.2 -3.05 4.2 -2.7 4.2 -2.5 4.45 L-2.25 5.15 Q-2.25 5.6 -2.5 5.85" fill="#7ba394" fill-rule="evenodd" stroke="none"/>
    <path d="M-2.5 5.85 Q-2.25 5.6 -2.25 5.15 L-2.5 4.45 Q-2.7 4.2 -3.05 4.2 -3.4 4.2 -3.65 4.45 L-3.8 5.15 -3.65 5.85 Q-3.4 6.15 -3.05 6.15 -2.7 6.15 -2.5 5.85 Z" ffdec:has-small-stroke="true" ffdec:original-stroke-width="0.5" fill="none" stroke="#000000" stroke-linecap="round" stroke-linejoin="round" stroke-opacity="0.2" stroke-width="1.0"/>
    <path d="M-7.85 1.0 L-7.75 0.65 Q-7.4 -0.15 -6.8 0.0 -6.25 0.1 -5.75 1.0 L-5.25 2.5 -5.15 3.25 -5.15 4.1 -5.25 4.35 Q-5.6 5.2 -6.15 5.05 -6.75 4.95 -7.25 4.0 L-7.75 2.55 -7.85 1.8 -7.85 1.0" fill="#ffffff" fill-rule="evenodd" stroke="none"/>
    <path d="M-5.15 4.1 L-5.35 5.2 Q-5.75 6.05 -6.3 5.95 -6.9 5.8 -7.35 4.85 -7.9 3.9 -8.0 2.7 L-8.0 1.95 -7.85 1.0 -7.85 1.8 -7.75 2.55 -7.25 4.0 Q-6.75 4.95 -6.15 5.05 -5.6 5.2 -5.25 4.35 L-5.15 4.1" fill="#c2b7bb" fill-rule="evenodd" stroke="none"/>
    <path d="M-7.85 1.0 L-7.75 0.65 Q-7.4 -0.15 -6.8 0.0 -6.25 0.1 -5.75 1.0 L-5.25 2.5 -5.15 3.25 -5.15 4.1 -5.35 5.2 Q-5.75 6.05 -6.3 5.95 -6.9 5.8 -7.35 4.85 -7.9 3.9 -8.0 2.7 L-8.0 1.95 -7.85 1.0 Z" ffdec:has-small-stroke="true" ffdec:original-stroke-width="0.05" fill="none" stroke="#000000" stroke-linecap="round" stroke-linejoin="round" stroke-opacity="0.29803923" stroke-width="1.0"/>
    <path d="M-6.5 2.85 Q-6.4 2.55 -6.15 2.65 L-5.85 3.05 -5.75 3.75 -5.85 4.45 Q-6.05 4.7 -6.2 4.65 L-6.5 4.25 -6.65 3.5 -6.5 2.85" fill="#7ba394" fill-rule="evenodd" stroke="none"/>
    <path d="M-6.5 2.85 Q-6.4 2.55 -6.15 2.65 L-5.85 3.05 -5.75 3.75 -5.85 4.45 Q-6.05 4.7 -6.2 4.65 L-6.5 4.25 -6.65 3.5 -6.5 2.85 Z" ffdec:has-small-stroke="true" ffdec:original-stroke-width="0.5" fill="none" stroke="#000000" stroke-linecap="round" stroke-linejoin="round" stroke-opacity="0.2" stroke-width="1.0"/>
    <path d="M3.5 -0.45 L5.45 -1.15 5.65 -1.15 Q8.7 -0.75 10.1 -2.3 L10.2 -2.3 10.45 -2.55 Q10.95 -3.25 10.85 -4.15 11.3 -1.7 9.95 -0.3 L9.65 0.0 Q8.25 1.5 5.15 1.2 L3.5 -0.45" fill="#6fc4a0" fill-rule="evenodd" stroke="none"/>
    <path d="M3.5 -0.45 L5.15 1.2 Q8.25 1.5 9.65 0.0 L9.95 -0.3 Q11.3 -1.7 10.85 -4.15 10.95 -3.25 10.45 -2.55 L10.2 -2.3 10.1 -2.3 Q8.7 -0.75 5.65 -1.15 L5.45 -1.15 3.5 -0.45 Z" ffdec:has-small-stroke="true" ffdec:original-stroke-width="0.05" fill="none" stroke="#000000" stroke-linecap="round" stroke-linejoin="round" stroke-opacity="0.29803923" stroke-width="1.0"/>
  </g>
</svg>
