<?xml version="1.0" encoding="UTF-8" standalone="no"?>
<svg xmlns:ffdec="https://www.free-decompiler.com/flash" xmlns:xlink="http://www.w3.org/1999/xlink" ffdec:objectType="shape" height="37.85px" width="30.35px" xmlns="http://www.w3.org/2000/svg">
  <g transform="matrix(1.0, 0.0, 0.0, 1.0, 12.25, 29.3)">
    <path d="M-4.15 6.5 L-4.15 4.05 Q0.05 4.85 3.45 2.9 L3.45 6.65 -0.05 7.05 -1.1 7.05 -4.15 6.5" fill="#b6e2d4" fill-rule="evenodd" stroke="none"/>
    <path d="M1.4 -8.5 Q3.7 -8.1 5.5 -6.3 7.8 -4.0 7.8 -0.8 L7.8 2.7 7.85 3.05 7.85 3.15 Q7.8 4.8 5.55 5.95 L3.45 6.65 3.45 2.9 Q0.05 4.85 -4.15 4.05 L-4.15 6.5 -5.55 5.95 -6.6 5.3 Q-7.9 4.3 -7.9 3.15 L-7.9 3.05 -7.8 2.7 -7.75 -1.95 -7.4 -3.3 -7.4 -3.35 Q-6.85 -5.0 -5.55 -6.3 L-4.5 -7.2 Q-2.55 -8.6 -0.05 -8.6 L1.4 -8.5" fill="#7f9e95" fill-rule="evenodd" stroke="none"/>
    <path d="M3.45 6.65 L5.55 5.95 Q7.8 4.8 7.85 3.15 L7.85 3.05 7.8 2.7 7.8 -0.8 Q7.8 -4.0 5.5 -6.3 3.7 -8.1 1.4 -8.5" ffdec:has-small-stroke="true" ffdec:original-stroke-width="0.5" fill="none" stroke="#000000" stroke-linecap="round" stroke-linejoin="round" stroke-opacity="0.4509804" stroke-width="1.0"/>
    <path d="M1.4 -8.5 L-0.05 -8.6 Q-2.55 -8.6 -4.5 -7.2 L-5.55 -6.3 Q-6.85 -5.0 -7.4 -3.35 L-7.4 -3.3 -7.75 -1.95 -7.8 2.7 -7.9 3.05 -7.9 3.15 Q-7.9 4.3 -6.6 5.3 L-5.55 5.95 -4.15 6.5" ffdec:has-small-stroke="true" ffdec:original-stroke-width="0.05" fill="none" stroke="#000000" stroke-linecap="round" stroke-linejoin="round" stroke-opacity="0.29803923" stroke-width="1.0"/>
    <path d="M-7.15 2.7 L-7.15 -0.35 -7.05 -1.55 -2.25 0.75 -2.25 5.05 -7.15 2.7" fill="#000000" fill-rule="evenodd" stroke="none"/>
    <path d="M-7.15 2.7 L-2.25 5.05 -2.25 0.75 -7.05 -1.55" ffdec:has-small-stroke="true" ffdec:original-stroke-width="0.5" fill="none" stroke="#000000" stroke-linecap="round" stroke-linejoin="round" stroke-opacity="0.4509804" stroke-width="1.0"/>
    <path d="M13.35 -18.2 Q13.05 -18.15 12.75 -18.4 12.35 -18.55 12.2 -19.05 11.85 -21.05 14.5 -21.2 L15.7 -21.0 Q20.65 -18.95 15.4 -11.25 14.7 -11.5 13.75 -10.6 14.7 -11.5 15.4 -11.25 16.35 -10.95 16.7 -8.25 16.4 -4.25 12.45 -2.2 L8.3 -3.75 Q-0.55 1.1 -6.1 -0.15 -9.1 -5.85 -9.7 -14.95 -10.05 -19.3 -6.65 -22.4 -3.25 -25.55 2.3 -25.2 4.7 -24.75 5.4 -22.95 L8.3 -23.1 Q10.5 -22.5 10.3 -19.95 10.0 -18.45 10.7 -17.6 12.3 -16.0 13.35 -18.2 13.95 -18.3 14.5 -19.15 13.95 -18.3 13.35 -18.2 M1.65 -18.8 Q1.45 -16.95 3.05 -17.1 5.15 -18.3 5.65 -20.55 5.75 -21.9 5.4 -22.95 5.75 -21.9 5.65 -20.55 5.15 -18.3 3.05 -17.1 1.45 -16.95 1.65 -18.8" fill="#fcfff1" fill-opacity="0.8" fill-rule="evenodd" stroke="none"/>
    <path d="M15.4 -11.25 Q20.65 -18.95 15.7 -21.0 L14.5 -21.2 Q11.85 -21.05 12.2 -19.05 12.35 -18.55 12.75 -18.4 13.05 -18.15 13.35 -18.2 13.95 -18.3 14.5 -19.15 M13.35 -18.2 Q12.3 -16.0 10.7 -17.6 10.0 -18.45 10.3 -19.95 10.5 -22.5 8.3 -23.1 L5.4 -22.95 Q5.75 -21.9 5.65 -20.55 5.15 -18.3 3.05 -17.1 1.45 -16.95 1.65 -18.8 M15.4 -11.25 Q14.7 -11.5 13.75 -10.6 M5.4 -22.95 Q4.7 -24.75 2.3 -25.2 -3.25 -25.55 -6.65 -22.4 -10.05 -19.3 -9.7 -14.95 -9.1 -5.85 -6.1 -0.15 -0.55 1.1 8.3 -3.75 L12.45 -2.2 Q16.4 -4.25 16.7 -8.25 16.35 -10.95 15.4 -11.25" ffdec:has-small-stroke="true" ffdec:original-stroke-width="0.05" fill="none" stroke="#000000" stroke-linecap="round" stroke-linejoin="round" stroke-opacity="0.29803923" stroke-width="1.0"/>
    <path d="M4.05 -3.45 L4.75 -3.85 6.7 -6.2 8.25 -8.4 9.45 -10.3 Q10.35 -7.25 9.7 -5.0 L12.55 -5.4 12.85 -5.35 Q13.4 -5.2 13.25 -4.7 L12.85 -3.6 12.05 -1.6 Q11.9 -2.5 10.8 -3.55 9.9 -4.15 4.05 -3.45" fill="#fcfff1" fill-rule="evenodd" stroke="none"/>
    <path d="M4.05 -3.45 Q9.9 -4.15 10.8 -3.55 11.9 -2.5 12.05 -1.6 L11.3 0.05 10.3 1.95 10.05 1.9 9.0 1.3 7.05 1.2 5.55 1.4 5.5 1.35 5.5 -2.25 Q0.9 0.4 -2.9 1.2 L-3.1 1.5 -3.65 2.1 -3.65 8.55 -6.3 7.2 -6.3 1.45 -6.65 0.95 -7.3 -0.7 Q-9.05 -3.4 -9.3 -7.05 L-8.2 -7.2 Q-8.15 -5.15 -7.3 -3.05 L-7.25 -3.0 -6.65 -4.4 Q-5.9 -5.4 -4.85 -5.2 -3.8 -5.05 -3.1 -3.85 -2.35 -2.6 -2.35 -1.05 L-2.35 -0.75 Q0.6 -1.4 4.05 -3.45" fill="#9cd6bb" fill-rule="evenodd" stroke="none"/>
    <path d="M10.3 1.95 Q8.8 4.6 7.1 6.6 L5.9 7.0 5.35 7.05 2.8 6.85 2.0 6.65 1.85 6.6 2.25 3.65 3.4 3.7 3.65 3.65 5.2 3.15 5.45 1.8 5.5 1.35 5.55 1.4 7.05 1.2 9.0 1.3 10.05 1.9 10.3 1.95 M-9.3 -7.05 L-9.35 -10.85 -7.55 -14.3 -8.15 -10.9 Q-7.95 -10.55 -8.15 -8.7 L-8.2 -7.2 -9.3 -7.05" fill="#4fb785" fill-rule="evenodd" stroke="none"/>
    <path d="M12.05 -1.6 L12.85 -3.6 13.25 -4.7 Q13.4 -5.2 12.85 -5.35 L12.55 -5.4 9.7 -5.0 Q10.35 -7.25 9.45 -10.3 L8.25 -8.4 6.7 -6.2 4.75 -3.85 4.05 -3.45 Q0.6 -1.4 -2.35 -0.75 L-2.35 -1.05 Q-2.35 -2.6 -3.1 -3.85 -3.8 -5.05 -4.85 -5.2 -5.9 -5.4 -6.65 -4.4 L-7.25 -3.0 -7.3 -3.05 Q-8.15 -5.15 -8.2 -7.2 L-8.15 -8.7 Q-7.95 -10.55 -8.15 -10.9 L-7.55 -14.3 -9.35 -10.85 -9.3 -7.05 Q-9.05 -3.4 -7.3 -0.7 L-6.65 0.95 -6.3 1.45 M12.05 -1.6 L11.3 0.05 10.3 1.95 Q8.8 4.6 7.1 6.6 L5.9 7.0 5.35 7.05 2.8 6.85 2.0 6.65 1.85 6.6 2.25 3.65 3.4 3.7 3.65 3.65 5.2 3.15 5.45 1.8 5.5 1.35 5.5 -2.25 Q0.9 0.4 -2.9 1.2 L-3.1 1.5 -3.65 2.1 -3.65 8.55 -6.3 7.2" ffdec:has-small-stroke="true" ffdec:original-stroke-width="0.05" fill="none" stroke="#000000" stroke-linecap="round" stroke-linejoin="round" stroke-opacity="0.29803923" stroke-width="1.0"/>
    <path d="M-6.85 -1.6 L-6.85 -1.65 Q-6.75 -2.7 -6.2 -3.3 L-5.85 -3.55 -5.0 -3.7 Q-4.3 -3.6 -3.9 -2.75 -3.55 -2.15 -3.55 -1.4 -4.35 -2.8 -5.15 -2.9 L-5.05 -2.4 -5.05 -2.25 -5.05 -2.15 -5.1 -1.9 -5.15 -1.75 -5.25 -1.65 Q-5.5 -1.4 -5.7 -1.45 L-5.75 -1.5 -6.15 -1.85 -6.3 -2.2 -6.3 -2.4 -6.85 -1.6" fill="#ffffeb" fill-rule="evenodd" stroke="none"/>
    <path d="M-3.55 -1.4 L-3.55 -0.95 -3.55 -0.7 -3.65 -0.35 -3.7 -0.5 Q-4.0 -1.0 -4.6 -1.15 L-4.9 -1.2 -5.4 -1.15 -5.8 -1.1 -6.55 -0.35 -6.55 -0.15 -6.75 -0.75 -6.85 -1.6 -6.3 -2.4 -6.3 -2.2 -6.15 -1.85 -5.75 -1.5 -5.7 -1.45 Q-5.5 -1.4 -5.25 -1.65 L-5.15 -1.75 -5.1 -1.9 -5.05 -2.15 -5.05 -2.25 -5.05 -2.4 -5.15 -2.9 Q-4.35 -2.8 -3.55 -1.4" fill="#4d645c" fill-rule="evenodd" stroke="none"/>
    <path d="M-3.65 -0.35 L-3.65 -0.15 -3.85 0.2 -4.15 0.6 Q-4.7 1.15 -5.3 1.1 L-5.35 1.1 Q-6.05 0.95 -6.5 0.1 L-6.55 -0.15 -6.55 -0.35 -5.8 -1.1 -5.4 -1.15 -4.9 -1.2 -4.6 -1.15 Q-4.0 -1.0 -3.7 -0.5 L-3.65 -0.35" fill="#394a44" fill-rule="evenodd" stroke="none"/>
    <path d="M-6.85 -1.6 L-6.85 -1.65 Q-6.75 -2.7 -6.2 -3.3 L-5.85 -3.55 -5.0 -3.7 Q-4.3 -3.6 -3.9 -2.75 -3.55 -2.15 -3.55 -1.4 L-3.55 -0.95 -3.55 -0.7 -3.65 -0.35 -3.65 -0.15 -3.85 0.2 -4.15 0.6 Q-4.7 1.15 -5.3 1.1 L-5.35 1.1 Q-6.05 0.95 -6.5 0.1 L-6.55 -0.15 -6.75 -0.75 -6.85 -1.6 Z" ffdec:has-small-stroke="true" ffdec:original-stroke-width="0.05" fill="none" stroke="#000000" stroke-linecap="round" stroke-linejoin="round" stroke-opacity="0.29803923" stroke-width="1.0"/>
    <path d="M3.2 -13.05 L7.35 -20.25 8.6 -22.3 9.7 -24.0 Q9.35 -20.0 8.6 -16.4 L8.25 -14.8 8.1 -14.2 7.1 -10.8 7.1 -18.0 3.3 -13.15 3.45 -13.45 3.2 -13.05" fill="#fcfff1" fill-rule="evenodd" stroke="none"/>
    <path d="M7.1 -10.8 L6.15 -8.2 Q0.55 -2.55 1.1 -9.0 L3.3 -13.15 7.1 -18.0 7.1 -10.8" fill="#9cd6bb" fill-rule="evenodd" stroke="none"/>
    <path d="M6.15 -8.2 L6.2 -8.25 6.05 -7.9 6.0 -7.85 5.85 -7.45 5.2 -6.0 3.75 -4.6 Q3.85 -3.8 3.15 -3.45 2.3 -2.95 1.4 -3.2 L0.7 -3.65 Q0.5 -3.95 0.7 -5.45 0.3 -6.9 0.9 -8.65 L1.1 -9.0 Q0.55 -2.55 6.15 -8.2 L6.05 -7.9 6.15 -8.2 M2.5 -4.15 Q3.15 -4.2 3.75 -4.6 3.15 -4.2 2.5 -4.15" fill="#4fb785" fill-rule="evenodd" stroke="none"/>
    <path d="M3.2 -13.05 L7.35 -20.25 8.6 -22.3 9.7 -24.0 Q9.35 -20.0 8.6 -16.4 L8.25 -14.8 8.1 -14.2 7.1 -10.8 6.15 -8.2 6.05 -7.9 6.0 -7.85 5.85 -7.45 5.2 -6.0 3.75 -4.6 Q3.85 -3.8 3.15 -3.45 2.3 -2.95 1.4 -3.2 L0.7 -3.65 Q0.5 -3.95 0.7 -5.45 0.3 -6.9 0.9 -8.65 L1.1 -9.0 3.3 -13.15 3.45 -13.45 M3.75 -4.6 Q3.15 -4.2 2.5 -4.15" ffdec:has-small-stroke="true" ffdec:original-stroke-width="0.05" fill="none" stroke="#000000" stroke-linecap="round" stroke-linejoin="round" stroke-opacity="0.29803923" stroke-width="1.0"/>
    <path d="M-5.95 -18.9 L-4.8 -24.7 Q-8.15 -21.95 -11.55 -15.45 -10.75 -18.15 -9.05 -21.0 -5.15 -27.5 -0.2 -29.1 L0.55 -29.3 -0.2 -28.55 Q-3.95 -24.65 -5.95 -18.9" fill="#fcfff1" fill-rule="evenodd" stroke="none"/>
    <path d="M-11.55 -15.45 Q-8.15 -21.95 -4.8 -24.7 L-5.95 -18.9 Q-7.15 -15.4 -7.7 -11.2 -7.75 -10.7 -7.5 -10.55 -5.95 -10.45 -5.9 -9.9 -5.85 -9.1 -6.15 -8.5 -6.9 -9.55 -8.15 -9.35 -10.55 -8.85 -10.9 -9.35 L-11.55 -15.45" fill="#9cd6bb" fill-rule="evenodd" stroke="none"/>
    <path d="M-11.55 -15.45 L-10.9 -9.35 Q-10.55 -8.85 -8.15 -9.35 -6.9 -9.55 -6.15 -8.5 -6.5 -7.85 -7.2 -7.35 -7.65 -7.3 -7.85 -8.0 L-8.25 -8.35 Q-9.7 -8.65 -10.65 -8.0 -11.5 -7.3 -11.9 -8.0 -12.25 -9.45 -12.25 -11.0 -12.25 -13.15 -11.55 -15.45" fill="#4fb785" fill-rule="evenodd" stroke="none"/>
    <path d="M-6.15 -8.5 Q-5.85 -9.1 -5.9 -9.9 -5.95 -10.45 -7.5 -10.55 -7.75 -10.7 -7.7 -11.2 -7.15 -15.4 -5.95 -18.9 -3.95 -24.65 -0.2 -28.55 L0.55 -29.3 -0.2 -29.1 Q-5.15 -27.5 -9.05 -21.0 -10.75 -18.15 -11.55 -15.45 -12.25 -13.15 -12.25 -11.0 -12.25 -9.45 -11.9 -8.0 -11.5 -7.3 -10.65 -8.0 -9.7 -8.65 -8.25 -8.35 L-7.85 -8.0 Q-7.65 -7.3 -7.2 -7.35 -6.5 -7.85 -6.15 -8.5 Z" ffdec:has-small-stroke="true" ffdec:original-stroke-width="0.05" fill="none" stroke="#000000" stroke-linecap="round" stroke-linejoin="round" stroke-opacity="0.29803923" stroke-width="1.0"/>
  </g>
</svg>
