<?xml version="1.0" encoding="UTF-8" standalone="no"?>
<svg xmlns:ffdec="https://www.free-decompiler.com/flash" xmlns:xlink="http://www.w3.org/1999/xlink" ffdec:objectType="shape" height="43.4px" width="39.1px" xmlns="http://www.w3.org/2000/svg">
  <g transform="matrix(1.0, 0.0, 0.0, 1.0, 12.25, 34.85)">
    <path d="M-4.15 6.5 L-4.15 4.05 Q0.05 4.85 3.45 2.9 L3.45 6.65 -0.05 7.05 -1.1 7.05 -4.15 6.5" fill="#b6e2d4" fill-rule="evenodd" stroke="none"/>
    <path d="M1.4 -8.5 Q3.7 -8.1 5.5 -6.3 7.8 -4.0 7.8 -0.8 L7.8 2.7 7.85 3.05 7.85 3.15 Q7.8 4.8 5.55 5.95 L3.45 6.65 3.45 2.9 Q0.05 4.85 -4.15 4.05 L-4.15 6.5 -5.55 5.95 -6.6 5.3 Q-7.9 4.3 -7.9 3.15 L-7.9 3.05 -7.8 2.7 -7.75 -1.95 -7.4 -3.3 -7.4 -3.35 Q-6.85 -5.0 -5.55 -6.3 L-4.5 -7.2 Q-2.55 -8.6 -0.05 -8.6 L1.4 -8.5" fill="#7f9e95" fill-rule="evenodd" stroke="none"/>
    <path d="M3.45 6.65 L5.55 5.95 Q7.8 4.8 7.85 3.15 L7.85 3.05 7.8 2.7 7.8 -0.8 Q7.8 -4.0 5.5 -6.3 3.7 -8.1 1.4 -8.5" ffdec:has-small-stroke="true" ffdec:original-stroke-width="0.5" fill="none" stroke="#000000" stroke-linecap="round" stroke-linejoin="round" stroke-opacity="0.4509804" stroke-width="1.0"/>
    <path d="M1.4 -8.5 L-0.05 -8.6 Q-2.55 -8.6 -4.5 -7.2 L-5.55 -6.3 Q-6.85 -5.0 -7.4 -3.35 L-7.4 -3.3 -7.75 -1.95 -7.8 2.7 -7.9 3.05 -7.9 3.15 Q-7.9 4.3 -6.6 5.3 L-5.55 5.95 -4.15 6.5" ffdec:has-small-stroke="true" ffdec:original-stroke-width="0.05" fill="none" stroke="#000000" stroke-linecap="round" stroke-linejoin="round" stroke-opacity="0.29803923" stroke-width="1.0"/>
    <path d="M-7.15 2.7 L-7.15 -0.35 -7.05 -1.55 -2.25 0.75 -2.25 5.05 -7.15 2.7" fill="#000000" fill-rule="evenodd" stroke="none"/>
    <path d="M-7.15 2.7 L-2.25 5.05 -2.25 0.75 -7.05 -1.55" ffdec:has-small-stroke="true" ffdec:original-stroke-width="0.5" fill="none" stroke="#000000" stroke-linecap="round" stroke-linejoin="round" stroke-opacity="0.4509804" stroke-width="1.0"/>
    <path d="M-3.7 -24.45 L-3.65 -24.45 9.7 -27.15 13.4 -34.85 10.4 -24.4 Q7.55 -23.0 5.85 -22.35 L2.75 -22.0 2.2 -21.95 1.8 -21.85 -0.4 -21.0 -1.6 -17.3 -0.25 -14.55 -4.6 -4.75 0.2 -9.45 11.15 -13.9 10.95 -14.85 10.85 -15.75 15.9 -18.95 Q18.1 -24.0 19.25 -29.0 18.85 -24.15 17.2 -18.25 L13.75 -15.2 Q15.05 -13.5 15.25 -10.9 14.2 -8.2 13.65 -7.65 5.85 -0.3 -3.55 -0.05 -6.95 -0.25 -7.75 -2.65 L-8.0 -3.85 -6.45 -8.4 -4.65 -13.7 -3.95 -21.25 -3.7 -24.45 M10.85 -7.5 L11.8 -9.95 11.15 -13.9 11.8 -9.95 10.85 -7.5" fill="#b6e2d4" fill-rule="evenodd" stroke="none"/>
    <path d="M5.85 -22.35 L5.2 -15.05 10.95 -14.85 11.15 -13.9 0.2 -9.45 -4.6 -4.75 -0.25 -14.55 1.1 -11.85 2.6 -12.8 1.8 -21.85 2.2 -21.95 2.75 -22.0 5.85 -22.35 M-8.0 -3.85 L-8.5 -7.25 Q-8.75 -10.7 -8.25 -14.85 L-5.25 -21.05 -3.7 -24.45 -3.95 -21.25 -4.65 -13.7 -6.45 -8.4 -8.0 -3.85 M5.2 -15.05 L2.6 -12.8 5.2 -15.05 M-3.95 -21.25 L-5.25 -21.05 -3.95 -21.25" fill="#7f9e95" fill-rule="evenodd" stroke="none"/>
    <path d="M-3.7 -24.45 L-3.65 -24.45 9.7 -27.15 13.4 -34.85 10.4 -24.4 Q7.55 -23.0 5.85 -22.35 L5.2 -15.05 10.95 -14.85 10.85 -15.75 15.9 -18.95 Q18.1 -24.0 19.25 -29.0 18.85 -24.15 17.2 -18.25 L13.75 -15.2 Q15.05 -13.5 15.25 -10.9 14.2 -8.2 13.65 -7.65 5.85 -0.3 -3.55 -0.05 -6.95 -0.25 -7.75 -2.65 L-8.0 -3.85 -8.5 -7.25 Q-8.75 -10.7 -8.25 -14.85 L-5.25 -21.05 -3.95 -21.25 M-4.65 -13.7 L-6.45 -8.4 M10.95 -14.85 L11.15 -13.9 11.8 -9.95 10.85 -7.5 M2.75 -22.0 L2.2 -21.95 1.8 -21.85 2.6 -12.8 5.2 -15.05 M-0.25 -14.55 L1.1 -11.85 2.6 -12.8 M11.15 -13.9 L0.2 -9.45 M-0.25 -14.55 L-1.6 -17.3 -0.4 -21.0 1.8 -21.85" ffdec:has-small-stroke="true" ffdec:original-stroke-width="0.05" fill="none" stroke="#000000" stroke-linecap="round" stroke-linejoin="round" stroke-opacity="0.29803923" stroke-width="1.0"/>
    <path d="M21.25 -19.3 Q27.0 -19.45 26.7 -16.95 26.2 -14.7 21.5 -14.95 17.25 -15.95 15.55 -17.85 18.05 -19.0 21.25 -19.3" fill="#fcfff1" fill-rule="evenodd" stroke="none"/>
    <path d="M21.25 -19.3 Q27.0 -19.45 26.7 -16.95 26.2 -14.7 21.5 -14.95 17.25 -15.95 15.55 -17.85 18.05 -19.0 21.25 -19.3 Z" ffdec:has-small-stroke="true" ffdec:original-stroke-width="0.05" fill="none" stroke="#000000" stroke-linecap="round" stroke-linejoin="round" stroke-opacity="0.29803923" stroke-width="1.0"/>
    <path d="M21.0 -26.85 Q24.9 -30.9 26.45 -28.95 27.8 -26.95 24.35 -23.85 20.65 -21.65 18.1 -21.85 19.0 -24.45 21.0 -26.85" fill="#fcfff1" fill-rule="evenodd" stroke="none"/>
    <path d="M21.0 -26.85 Q24.9 -30.9 26.45 -28.95 27.8 -26.95 24.35 -23.85 20.65 -21.65 18.1 -21.85 19.0 -24.45 21.0 -26.85 Z" ffdec:has-small-stroke="true" ffdec:original-stroke-width="0.05" fill="none" stroke="#000000" stroke-linecap="round" stroke-linejoin="round" stroke-opacity="0.29803923" stroke-width="1.0"/>
    <path d="M4.05 -3.45 L4.75 -3.85 6.7 -6.2 8.25 -8.4 9.45 -10.3 Q10.35 -7.25 9.7 -5.0 L12.55 -5.4 12.85 -5.35 Q13.4 -5.2 13.25 -4.7 L12.85 -3.6 12.05 -1.6 Q11.9 -2.5 10.8 -3.55 9.9 -4.15 4.05 -3.45" fill="#fcfff1" fill-rule="evenodd" stroke="none"/>
    <path d="M4.05 -3.45 Q9.9 -4.15 10.8 -3.55 11.9 -2.5 12.05 -1.6 L11.3 0.05 10.3 1.95 10.05 1.9 9.0 1.3 7.05 1.2 5.55 1.4 5.5 1.35 5.5 -2.25 Q0.9 0.4 -2.9 1.2 L-3.1 1.5 -3.65 2.1 -3.65 8.55 -6.3 7.2 -6.3 1.45 -6.65 0.95 -7.3 -0.7 Q-9.05 -3.4 -9.3 -7.05 L-8.2 -7.2 Q-8.15 -5.15 -7.3 -3.05 L-7.25 -3.0 -6.65 -4.4 Q-5.9 -5.4 -4.85 -5.2 -3.8 -5.05 -3.1 -3.85 -2.35 -2.6 -2.35 -1.05 L-2.35 -0.75 Q0.6 -1.4 4.05 -3.45" fill="#9cd6bb" fill-rule="evenodd" stroke="none"/>
    <path d="M10.3 1.95 Q8.8 4.6 7.1 6.6 L5.9 7.0 5.35 7.05 2.8 6.85 2.0 6.65 1.85 6.6 2.25 3.65 3.4 3.7 3.65 3.65 5.2 3.15 5.45 1.8 5.5 1.35 5.55 1.4 7.05 1.2 9.0 1.3 10.05 1.9 10.3 1.95 M-9.3 -7.05 L-9.35 -10.85 -7.55 -14.3 -8.15 -10.9 Q-7.95 -10.55 -8.15 -8.7 L-8.2 -7.2 -9.3 -7.05" fill="#4fb785" fill-rule="evenodd" stroke="none"/>
    <path d="M12.05 -1.6 L12.85 -3.6 13.25 -4.7 Q13.4 -5.2 12.85 -5.35 L12.55 -5.4 9.7 -5.0 Q10.35 -7.25 9.45 -10.3 L8.25 -8.4 6.7 -6.2 4.75 -3.85 4.05 -3.45 Q0.6 -1.4 -2.35 -0.75 L-2.35 -1.05 Q-2.35 -2.6 -3.1 -3.85 -3.8 -5.05 -4.85 -5.2 -5.9 -5.4 -6.65 -4.4 L-7.25 -3.0 -7.3 -3.05 Q-8.15 -5.15 -8.2 -7.2 L-8.15 -8.7 Q-7.95 -10.55 -8.15 -10.9 L-7.55 -14.3 -9.35 -10.85 -9.3 -7.05 Q-9.05 -3.4 -7.3 -0.7 L-6.65 0.95 -6.3 1.45 M12.05 -1.6 L11.3 0.05 10.3 1.95 Q8.8 4.6 7.1 6.6 L5.9 7.0 5.35 7.05 2.8 6.85 2.0 6.65 1.85 6.6 2.25 3.65 3.4 3.7 3.65 3.65 5.2 3.15 5.45 1.8 5.5 1.35 5.5 -2.25 Q0.9 0.4 -2.9 1.2 L-3.1 1.5 -3.65 2.1 -3.65 8.55 -6.3 7.2" ffdec:has-small-stroke="true" ffdec:original-stroke-width="0.05" fill="none" stroke="#000000" stroke-linecap="round" stroke-linejoin="round" stroke-opacity="0.29803923" stroke-width="1.0"/>
    <path d="M-6.85 -1.6 L-6.85 -1.65 Q-6.75 -2.7 -6.2 -3.3 L-5.85 -3.55 -5.0 -3.7 Q-4.3 -3.6 -3.9 -2.75 -3.55 -2.15 -3.55 -1.4 -4.35 -2.8 -5.15 -2.9 L-5.05 -2.4 -5.05 -2.25 -5.05 -2.15 -5.1 -1.9 -5.15 -1.75 -5.25 -1.65 Q-5.5 -1.4 -5.7 -1.45 L-5.75 -1.5 -6.15 -1.85 -6.3 -2.2 -6.3 -2.4 -6.85 -1.6" fill="#fcfff1" fill-rule="evenodd" stroke="none"/>
    <path d="M-3.55 -1.4 L-3.55 -0.95 -3.55 -0.7 -3.65 -0.35 -3.7 -0.5 Q-4.0 -1.0 -4.6 -1.15 L-4.9 -1.2 -5.4 -1.15 -5.8 -1.1 -6.55 -0.35 -6.55 -0.15 -6.75 -0.75 -6.85 -1.6 -6.3 -2.4 -6.3 -2.2 -6.15 -1.85 -5.75 -1.5 -5.7 -1.45 Q-5.5 -1.4 -5.25 -1.65 L-5.15 -1.75 -5.1 -1.9 -5.05 -2.15 -5.05 -2.25 -5.05 -2.4 -5.15 -2.9 Q-4.35 -2.8 -3.55 -1.4" fill="#47c7aa" fill-rule="evenodd" stroke="none"/>
    <path d="M-3.65 -0.35 L-3.65 -0.15 -3.85 0.2 -4.15 0.6 Q-4.7 1.15 -5.3 1.1 L-5.35 1.1 Q-6.05 0.95 -6.5 0.1 L-6.55 -0.15 -6.55 -0.35 -5.8 -1.1 -5.4 -1.15 -4.9 -1.2 -4.6 -1.15 Q-4.0 -1.0 -3.7 -0.5 L-3.65 -0.35" fill="#247562" fill-rule="evenodd" stroke="none"/>
    <path d="M-6.85 -1.6 L-6.85 -1.65 Q-6.75 -2.7 -6.2 -3.3 L-5.85 -3.55 -5.0 -3.7 Q-4.3 -3.6 -3.9 -2.75 -3.55 -2.15 -3.55 -1.4 L-3.55 -0.95 -3.55 -0.7 -3.65 -0.35 -3.65 -0.15 -3.85 0.2 -4.15 0.6 Q-4.7 1.15 -5.3 1.1 L-5.35 1.1 Q-6.05 0.95 -6.5 0.1 L-6.55 -0.15 -6.75 -0.75 -6.85 -1.6 Z" ffdec:has-small-stroke="true" ffdec:original-stroke-width="0.05" fill="none" stroke="#000000" stroke-linecap="round" stroke-linejoin="round" stroke-opacity="0.29803923" stroke-width="1.0"/>
    <path d="M3.2 -13.05 L7.35 -20.25 8.6 -22.3 9.7 -24.0 Q9.35 -20.0 8.6 -16.4 L8.25 -14.8 8.1 -14.2 7.1 -10.8 7.1 -18.0 3.3 -13.15 3.45 -13.45 3.2 -13.05" fill="#fcfff1" fill-rule="evenodd" stroke="none"/>
    <path d="M7.1 -10.8 L6.15 -8.2 Q0.55 -2.55 1.1 -9.0 L3.3 -13.15 7.1 -18.0 7.1 -10.8" fill="#9cd6bb" fill-rule="evenodd" stroke="none"/>
    <path d="M6.15 -8.2 L6.2 -8.25 6.05 -7.9 6.0 -7.85 5.85 -7.45 5.2 -6.0 3.75 -4.6 Q3.85 -3.8 3.15 -3.45 2.3 -2.95 1.4 -3.2 L0.7 -3.65 Q0.5 -3.95 0.7 -5.45 0.3 -6.9 0.9 -8.65 L1.1 -9.0 Q0.55 -2.55 6.15 -8.2 L6.05 -7.9 6.15 -8.2 M2.5 -4.15 Q3.15 -4.2 3.75 -4.6 3.15 -4.2 2.5 -4.15" fill="#4fb785" fill-rule="evenodd" stroke="none"/>
    <path d="M3.2 -13.05 L7.35 -20.25 8.6 -22.3 9.7 -24.0 Q9.35 -20.0 8.6 -16.4 L8.25 -14.8 8.1 -14.2 7.1 -10.8 6.15 -8.2 6.05 -7.9 6.0 -7.85 5.85 -7.45 5.2 -6.0 3.75 -4.6 Q3.85 -3.8 3.15 -3.45 2.3 -2.95 1.4 -3.2 L0.7 -3.65 Q0.5 -3.95 0.7 -5.45 0.3 -6.9 0.9 -8.65 L1.1 -9.0 3.3 -13.15 3.45 -13.45 M3.75 -4.6 Q3.15 -4.2 2.5 -4.15" ffdec:has-small-stroke="true" ffdec:original-stroke-width="0.05" fill="none" stroke="#000000" stroke-linecap="round" stroke-linejoin="round" stroke-opacity="0.29803923" stroke-width="1.0"/>
    <path d="M-5.95 -18.9 L-4.8 -24.7 Q-8.15 -21.95 -11.55 -15.45 -10.75 -18.15 -9.05 -21.0 -5.15 -27.5 -0.2 -29.1 L0.55 -29.3 -0.2 -28.55 Q-3.95 -24.65 -5.95 -18.9" fill="#fcfff1" fill-rule="evenodd" stroke="none"/>
    <path d="M-11.55 -15.45 Q-8.15 -21.95 -4.8 -24.7 L-5.95 -18.9 Q-7.15 -15.4 -7.7 -11.2 -7.75 -10.7 -7.5 -10.55 -5.95 -10.45 -5.9 -9.9 -5.85 -9.1 -6.15 -8.5 -6.9 -9.55 -8.15 -9.35 -10.55 -8.85 -10.9 -9.35 L-11.55 -15.45" fill="#9cd6bb" fill-rule="evenodd" stroke="none"/>
    <path d="M-11.55 -15.45 L-10.9 -9.35 Q-10.55 -8.85 -8.15 -9.35 -6.9 -9.55 -6.15 -8.5 -6.5 -7.85 -7.2 -7.35 -7.65 -7.3 -7.85 -8.0 L-8.25 -8.35 Q-9.7 -8.65 -10.65 -8.0 -11.5 -7.3 -11.9 -8.0 -12.25 -9.45 -12.25 -11.0 -12.25 -13.15 -11.55 -15.45" fill="#4fb785" fill-rule="evenodd" stroke="none"/>
    <path d="M-6.15 -8.5 Q-5.85 -9.1 -5.9 -9.9 -5.95 -10.45 -7.5 -10.55 -7.75 -10.7 -7.7 -11.2 -7.15 -15.4 -5.95 -18.9 -3.95 -24.65 -0.2 -28.55 L0.55 -29.3 -0.2 -29.1 Q-5.15 -27.5 -9.05 -21.0 -10.75 -18.15 -11.55 -15.45 -12.25 -13.15 -12.25 -11.0 -12.25 -9.45 -11.9 -8.0 -11.5 -7.3 -10.65 -8.0 -9.7 -8.65 -8.25 -8.35 L-7.85 -8.0 Q-7.65 -7.3 -7.2 -7.35 -6.5 -7.85 -6.15 -8.5 Z" ffdec:has-small-stroke="true" ffdec:original-stroke-width="0.05" fill="none" stroke="#000000" stroke-linecap="round" stroke-linejoin="round" stroke-opacity="0.29803923" stroke-width="1.0"/>
    <path d="M4.35 -25.15 Q1.0 -21.25 -2.0 -20.65 -2.0 -24.05 -0.65 -27.65 2.25 -33.85 4.75 -31.95 7.1 -30.05 4.35 -25.15" fill="#fcfff1" fill-rule="evenodd" stroke="none"/>
    <path d="M4.35 -25.15 Q1.0 -21.25 -2.0 -20.65 -2.0 -24.05 -0.65 -27.65 2.25 -33.85 4.75 -31.95 7.1 -30.05 4.35 -25.15 Z" ffdec:has-small-stroke="true" ffdec:original-stroke-width="0.05" fill="none" stroke="#000000" stroke-linecap="round" stroke-linejoin="round" stroke-opacity="0.29803923" stroke-width="1.0"/>
    <path d="M-8.75 -26.25 Q-7.05 -29.45 -2.7 -25.25 -0.5 -22.65 0.5 -19.45 -2.35 -18.3 -6.45 -20.1 -10.3 -23.15 -8.75 -26.25" fill="#fcfff1" fill-rule="evenodd" stroke="none"/>
    <path d="M-8.75 -26.25 Q-10.3 -23.15 -6.45 -20.1 -2.35 -18.3 0.5 -19.45 -0.5 -22.65 -2.7 -25.25 -7.05 -29.45 -8.75 -26.25 Z" ffdec:has-small-stroke="true" ffdec:original-stroke-width="0.05" fill="none" stroke="#000000" stroke-linecap="round" stroke-linejoin="round" stroke-opacity="0.29803923" stroke-width="1.0"/>
  </g>
</svg>
