<?xml version="1.0" encoding="UTF-8" standalone="no"?>
<svg xmlns:ffdec="https://www.free-decompiler.com/flash" xmlns:xlink="http://www.w3.org/1999/xlink" ffdec:objectType="shape" height="10.1px" width="10.05px" xmlns="http://www.w3.org/2000/svg">
  <g transform="matrix(1.0, 0.0, 0.0, 1.0, 3.95, 6.1)">
    <path d="M-3.3 1.45 Q-3.95 0.35 -3.95 -1.05 -3.95 -3.15 -2.5 -4.6 -1.05 -6.1 1.05 -6.1 2.55 -6.1 3.7 -5.35 4.35 -4.25 4.35 -2.85 4.35 -0.75 2.9 0.7 1.4 2.15 -0.7 2.2 -2.15 2.15 -3.3 1.45" fill="#fcfff1" fill-rule="evenodd" stroke="none"/>
    <path d="M3.7 -5.35 L4.65 -4.6 Q6.1 -3.15 6.1 -1.05 6.1 1.05 4.65 2.5 3.15 3.95 1.05 4.0 -1.05 3.95 -2.5 2.5 L-3.3 1.45 Q-2.15 2.15 -0.7 2.2 1.4 2.15 2.9 0.7 4.35 -0.75 4.35 -2.85 4.35 -4.25 3.7 -5.35" fill="#e3f3ed" fill-rule="evenodd" stroke="none"/>
    <path d="M3.7 -5.35 L4.65 -4.6 Q6.1 -3.15 6.1 -1.05 6.1 1.05 4.65 2.5 3.15 3.95 1.05 4.0 -1.05 3.95 -2.5 2.5 L-3.3 1.45 Q-3.95 0.35 -3.95 -1.05 -3.95 -3.15 -2.5 -4.6 -1.05 -6.1 1.05 -6.1 2.55 -6.1 3.7 -5.35 Z" ffdec:has-small-stroke="true" ffdec:original-stroke-width="0.05" fill="none" stroke="#6b5b40" stroke-linecap="round" stroke-linejoin="round" stroke-opacity="0.37254903" stroke-width="1.0"/>
    <path d="M5.0 -0.4 L4.6 0.75 Q4.2 1.25 3.65 1.25 3.05 1.25 2.7 0.75 2.3 0.3 2.3 -0.4 2.3 -1.1 2.7 -1.6 3.05 -2.05 3.65 -2.05 4.2 -2.05 4.6 -1.6 L5.0 -0.4" fill="#366d61" fill-rule="evenodd" stroke="none"/>
  </g>
</svg>
