<?xml version="1.0" encoding="UTF-8" standalone="no"?>
<svg xmlns:ffdec="https://www.free-decompiler.com/flash" xmlns:xlink="http://www.w3.org/1999/xlink" ffdec:objectType="shape" height="19.6px" width="16.75px" xmlns="http://www.w3.org/2000/svg">
  <g transform="matrix(1.0, 0.0, 0.0, 1.0, 15.9, 1.05)">
    <path d="M-12.45 6.65 Q-11.9 6.6 -11.45 7.05 -11.05 7.45 -11.05 8.0 L-11.05 9.3 Q-11.05 9.85 -11.45 10.3 -11.9 10.7 -12.45 10.7 -13.0 10.7 -13.4 10.3 -13.85 9.85 -13.8 9.3 L-13.8 8.0 Q-13.85 7.45 -13.4 7.05 -13.0 6.6 -12.45 6.65 M-10.05 10.05 Q-10.0 9.45 -9.55 9.1 -9.15 8.75 -8.55 8.8 -8.0 8.85 -7.65 9.3 -7.3 9.7 -7.3 10.3 L-7.4 11.5 Q-7.5 12.05 -7.9 12.4 L-8.9 12.75 -9.85 12.25 Q-10.2 11.8 -10.15 11.25 L-10.05 10.05" fill="#366d61" fill-rule="evenodd" stroke="none"/>
    <path d="M-11.85 -0.7 Q-10.75 1.0 -10.35 2.8 -10.15 5.4 -8.1 4.95 -4.65 1.6 -0.25 4.8 1.1 7.95 0.8 10.95 0.3 9.2 -1.05 7.85 -3.1 5.85 -5.8 5.9 -8.35 5.85 -10.1 7.55 L-10.65 10.1 -9.15 13.7 -10.8 12.45 -11.7 11.6 -12.2 11.65 Q-13.45 11.7 -14.65 11.15 -16.05 6.2 -15.45 2.75 -15.25 1.3 -14.7 0.15 L-14.7 0.05 Q-13.35 -1.65 -11.85 -0.7 M-5.1 17.3 L-6.0 18.5 -6.2 18.55 -6.95 16.95 -8.45 16.9 -8.65 15.55 -5.1 17.3" fill="#6e6a5d" fill-opacity="0.3019608" fill-rule="evenodd" stroke="none"/>
    <path d="M-13.45 16.3 Q-14.6 16.25 -15.45 15.15 L-15.9 12.0 -13.1 13.35 Q-13.7 14.65 -13.45 16.3" fill="#6e6a5d" fill-opacity="0.3019608" fill-rule="evenodd" stroke="none"/>
  </g>
</svg>
