<?xml version="1.0" encoding="UTF-8" standalone="no"?>
<svg xmlns:ffdec="https://www.free-decompiler.com/flash" xmlns:xlink="http://www.w3.org/1999/xlink" ffdec:objectType="shape" height="15.95px" width="16.5px" xmlns="http://www.w3.org/2000/svg">
  <g transform="matrix(1.0, 0.0, 0.0, 1.0, 9.4, 12.9)">
    <path d="M-1.9 -3.0 Q0.05 -4.15 2.65 -4.55 L4.15 -4.65 Q5.85 -4.7 6.9 -4.05 L7.0 -3.8 Q7.5 -0.1 5.5 1.6 L3.95 2.5 -1.75 2.9 Q-3.25 0.25 -1.9 -3.0" fill="#fcfff1" fill-rule="evenodd" stroke="none"/>
    <path d="M4.15 -4.65 Q5.0 -10.6 0.55 -12.9 4.35 -12.45 5.4 -10.5 5.5 -9.2 6.9 -4.05 5.85 -4.7 4.15 -4.65 M-3.3 -2.0 L-2.15 -2.85 -1.9 -3.0 Q-3.25 0.25 -1.75 2.9 L-3.1 2.4 Q-5.55 0.0 -3.3 -2.0" fill="#e3f3ed" fill-rule="evenodd" stroke="none"/>
    <path d="M0.55 -12.9 Q5.0 -10.6 4.15 -4.65 L2.65 -4.55 Q0.05 -4.15 -1.9 -3.0 L-2.15 -2.85 -3.3 -2.0 Q-5.7 -8.05 -2.45 -12.4 L-0.65 -12.85 0.55 -12.9" fill="#c9e9dc" fill-rule="evenodd" stroke="none"/>
    <path d="M-2.45 -12.4 Q-5.7 -8.05 -3.3 -2.0 -5.55 0.0 -3.1 2.4 -4.8 1.8 -5.65 0.4 -6.85 -1.55 -7.35 -4.4 -8.0 -7.4 -6.25 -9.75 -3.9 -11.95 -2.45 -12.4" fill="#8dc7b5" fill-rule="evenodd" stroke="none"/>
    <path d="M0.55 -12.9 L-0.65 -12.85 -2.45 -12.4 Q-3.9 -11.95 -6.25 -9.75 -8.0 -7.4 -7.35 -4.4 -6.85 -1.55 -5.65 0.4 -4.8 1.8 -3.1 2.4 M6.9 -4.05 Q5.5 -9.2 5.4 -10.5 4.35 -12.45 0.55 -12.9" ffdec:has-small-stroke="true" ffdec:original-stroke-width="0.05" fill="none" stroke="#366d61" stroke-linecap="round" stroke-linejoin="round" stroke-width="1.0"/>
    <path d="M6.9 -4.05 L7.0 -3.8 Q7.5 -0.1 5.5 1.6 L3.95 2.5 -1.75 2.9 -3.1 2.4" ffdec:has-small-stroke="true" ffdec:original-stroke-width="0.05" fill="none" stroke="#8dc7b5" stroke-linecap="round" stroke-linejoin="round" stroke-width="1.0"/>
    <path d="M-8.85 -4.7 L-8.75 -4.85 Q-8.05 -5.55 -7.1 -5.55 L-7.05 -5.55 -6.3 -2.3 -7.0 -2.1 Q-7.45 -2.1 -7.8 -2.4 -8.15 -2.7 -8.15 -3.15 L-7.85 -3.9 -8.85 -4.7" fill="#8dc7b5" fill-rule="evenodd" stroke="none"/>
    <path d="M-6.3 -2.3 L-6.05 -1.25 -7.1 -1.0 Q-8.05 -1.0 -8.75 -1.65 -9.4 -2.3 -9.4 -3.2 -9.4 -4.05 -8.85 -4.7 L-7.85 -3.9 -8.15 -3.15 Q-8.15 -2.7 -7.8 -2.4 -7.45 -2.1 -7.0 -2.1 L-6.3 -2.3" fill="#c9e9dc" fill-rule="evenodd" stroke="none"/>
    <path d="M-8.85 -4.7 L-8.75 -4.85 Q-8.05 -5.55 -7.1 -5.55 L-7.05 -5.55 M-6.05 -1.25 L-7.1 -1.0 Q-8.05 -1.0 -8.75 -1.65 -9.4 -2.3 -9.4 -3.2 -9.4 -4.05 -8.85 -4.7" ffdec:has-small-stroke="true" ffdec:original-stroke-width="0.05" fill="none" stroke="#366d61" stroke-linecap="round" stroke-linejoin="round" stroke-width="1.0"/>
    <path d="M6.25 -7.1 Q6.7 -6.25 6.45 -5.15 5.9 -3.0 3.95 -3.65 2.85 -4.85 3.95 -6.75 5.6 -8.0 6.25 -7.1 M3.3 -4.05 L3.3 -4.1 2.9 -3.45 Q-0.35 -1.55 -2.45 -3.9 L-3.0 -4.95 Q0.0 -7.3 2.7 -6.3 L2.9 -5.85 2.9 -6.1 2.9 -6.3 3.3 -4.05" fill="#ffffff" fill-rule="evenodd" stroke="none"/>
    <path d="M2.9 -6.3 L2.9 -6.65 Q4.5 -9.0 5.65 -7.85 L6.25 -7.1 Q5.6 -8.0 3.95 -6.75 2.85 -4.85 3.95 -3.65 L3.45 -3.9 3.3 -4.05 2.9 -6.3 M-3.0 -4.95 Q-3.25 -6.0 -2.35 -6.95 -1.0 -8.45 2.65 -6.45 L2.7 -6.3 Q0.0 -7.3 -3.0 -4.95" fill="#e3f3ed" fill-rule="evenodd" stroke="none"/>
    <path d="M1.85 -5.45 L2.1 -4.95 1.95 -4.4 1.7 -4.15 1.35 -4.35 Q1.2 -4.55 1.2 -4.85 L1.25 -5.35 1.55 -5.6 1.85 -5.45" fill="#366d61" fill-rule="evenodd" stroke="none"/>
    <path d="M5.25 -6.1 L5.5 -5.6 5.35 -5.05 5.1 -4.8 4.75 -5.0 Q4.6 -5.2 4.6 -5.5 L4.65 -6.0 4.95 -6.25 5.25 -6.1" fill="#366d61" fill-rule="evenodd" stroke="none"/>
    <path d="M5.05 -3.3 Q4.75 -3.05 4.3 -2.9 L3.4 -2.9 Q3.0 -2.95 3.0 -3.1 2.95 -3.3 3.25 -3.55 L4.05 -3.85 4.9 -3.95 Q5.3 -3.85 5.35 -3.65 L5.05 -3.3" fill="#366d61" fill-rule="evenodd" stroke="none"/>
    <path d="M6.4 -7.4 L6.0 -7.45 Q4.85 -8.2 4.05 -7.7 L2.95 -6.5 2.5 -8.75 Q3.25 -10.0 3.7 -10.15 L5.5 -10.0 Q6.25 -9.7 6.45 -8.35 L6.4 -7.4" fill="#c9e9dc" fill-rule="evenodd" stroke="none"/>
    <path d="M2.5 -8.75 Q3.25 -10.0 3.7 -10.15 L5.5 -10.0 Q6.25 -9.7 6.45 -8.35 L6.4 -7.4" ffdec:has-small-stroke="true" ffdec:original-stroke-width="0.05" fill="none" stroke="#8dc7b5" stroke-linecap="round" stroke-linejoin="round" stroke-width="1.0"/>
    <path d="M2.65 -9.0 L2.9 -6.25 Q2.25 -6.9 0.5 -7.2 -1.0 -7.35 -2.45 -6.05 L-3.25 -5.95 -3.6 -6.8 Q-3.95 -8.2 -2.95 -8.85 -1.4 -9.8 -0.1 -9.8 0.9 -9.85 2.65 -9.0" fill="#c9e9dc" fill-rule="evenodd" stroke="none"/>
    <path d="M2.65 -9.0 Q0.9 -9.85 -0.1 -9.8 -1.4 -9.8 -2.95 -8.85 -3.95 -8.2 -3.6 -6.8 L-3.25 -5.95" ffdec:has-small-stroke="true" ffdec:original-stroke-width="0.05" fill="none" stroke="#8dc7b5" stroke-linecap="round" stroke-linejoin="round" stroke-width="1.0"/>
    <path d="M0.45 -1.4 L-0.5 -1.1 -1.5 -1.25 Q-1.9 -1.4 -1.9 -1.7 L-1.5 -2.25 -0.5 -2.45 0.45 -2.35 0.9 -1.85 0.45 -1.4 M7.05 -3.2 L6.9 -2.75 Q6.7 -2.5 6.3 -2.4 L5.6 -2.45 Q5.25 -2.55 5.2 -2.85 5.1 -3.15 5.3 -3.4 5.55 -3.6 5.95 -3.65 L6.6 -3.65 7.05 -3.2" fill="#8dc7b5" fill-rule="evenodd" stroke="none"/>
  </g>
</svg>
