<?xml version="1.0" encoding="UTF-8" standalone="no"?>
<svg xmlns:ffdec="https://www.free-decompiler.com/flash" xmlns:xlink="http://www.w3.org/1999/xlink" ffdec:objectType="shape" height="5.35px" width="5.25px" xmlns="http://www.w3.org/2000/svg">
  <g transform="matrix(1.0, 0.0, 0.0, 1.0, 2.6, 2.65)">
    <path d="M0.6 -1.3 L0.85 -0.4 0.9 0.2 0.85 -0.4 0.6 -1.3 M1.75 -0.1 L2.15 0.0 1.75 1.7 0.1 2.7 -0.45 2.35 -0.8 1.5 -1.35 1.95 -2.5 2.0 Q-2.75 0.6 -2.35 -0.3 L-1.65 -1.25 -1.45 -1.55 -0.5 -2.3 0.05 -2.6 0.1 -2.6 2.0 -2.35 Q2.8 -1.85 2.6 -1.0 L1.75 -0.1 0.9 0.2 1.75 -0.1 M-0.8 1.5 L-0.45 1.25 0.9 0.2 -0.45 1.25 -0.8 1.5" fill="#366d61" fill-rule="evenodd" stroke="none"/>
    <path d="M2.15 0.0 L1.75 1.7 0.1 2.7 -0.45 2.35 -0.8 1.5" ffdec:has-small-stroke="true" ffdec:original-stroke-width="0.05" fill="none" stroke="#1f1f1f" stroke-linecap="round" stroke-linejoin="round" stroke-opacity="0.3019608" stroke-width="1.0"/>
    <path d="M0.9 0.2 L0.85 -0.4 0.6 -1.3 M0.1 -2.6 L2.0 -2.35 Q2.8 -1.85 2.6 -1.0 L1.75 -0.1 0.9 0.2" ffdec:has-small-stroke="true" ffdec:original-stroke-width="0.05" fill="none" stroke="#86532c" stroke-linecap="round" stroke-linejoin="round" stroke-opacity="0.4" stroke-width="1.0"/>
    <path d="M-0.8 1.5 L-1.35 1.95 -2.5 2.0 Q-2.75 0.6 -2.35 -0.3 L-1.65 -1.25 -1.45 -1.55 -0.5 -2.3 0.05 -2.6 M0.9 0.2 L-0.45 1.25 -0.8 1.5" ffdec:has-small-stroke="true" ffdec:original-stroke-width="0.05" fill="none" stroke="#86532c" stroke-linecap="round" stroke-linejoin="round" stroke-opacity="0.4" stroke-width="1.0"/>
  </g>
</svg>
