<?xml version="1.0" encoding="UTF-8" standalone="no"?>
<svg xmlns:ffdec="https://www.free-decompiler.com/flash" xmlns:xlink="http://www.w3.org/1999/xlink" ffdec:objectType="shape" height="39.05px" width="42.4px" xmlns="http://www.w3.org/2000/svg">
  <g transform="matrix(1.0, 0.0, 0.0, 1.0, -2.15, -1.85)">
    <path d="M17.6 36.05 Q20.05 33.7 22.05 36.05 21.5 42.4 19.8 40.45 18.1 38.5 17.6 36.05" fill="#83c188" fill-rule="evenodd" stroke="none"/>
    <path d="M17.3 34.4 Q16.75 40.75 15.05 38.8 13.35 36.85 12.85 34.4 15.3 32.05 17.3 34.4" fill="#83c188" fill-rule="evenodd" stroke="none"/>
    <path d="M6.4 17.6 Q5.1 20.3 4.65 23.15 3.4 29.95 3.45 30.9 L2.4 30.5 Q1.8 23.5 4.7 17.25 L6.4 17.6" fill="#bbc18c" fill-rule="evenodd" stroke="none"/>
    <path d="M9.2 10.25 L10.75 10.8 Q7.95 14.1 6.4 17.6 L4.7 17.25 Q6.35 13.6 9.2 10.25" fill="#ffffff" fill-rule="evenodd" stroke="none"/>
    <path d="M10.75 10.8 L11.3 10.2 17.7 3.25 17.25 5.05 16.85 7.65 Q15.85 16.1 19.25 23.9 L19.25 23.95 Q16.7 28.75 16.85 33.8 9.6 32.75 5.4 31.55 L4.25 31.2 4.2 31.2 3.9 31.05 3.45 30.9 Q3.4 29.95 4.65 23.15 5.1 20.3 6.4 17.6 7.95 14.1 10.75 10.8" fill="#83c188" fill-rule="evenodd" stroke="none"/>
    <path d="M17.7 3.25 L11.3 10.2 10.75 10.8 9.2 10.25 Q12.7 6.0 18.0 2.1 L17.7 3.25" fill="#ffffed" fill-rule="evenodd" stroke="none"/>
    <path d="M17.7 3.25 L18.0 2.1 M3.45 30.9 L3.9 31.05 4.2 31.2 M4.25 31.2 L5.4 31.55 Q9.6 32.75 16.85 33.8 16.7 28.75 19.25 23.95 L19.25 23.9 Q15.85 16.1 16.85 7.65 L17.25 5.05 17.7 3.25 M2.4 30.5 L3.45 30.9" ffdec:has-small-stroke="true" ffdec:original-stroke-width="0.5" fill="none" stroke="#768f5d" stroke-linecap="round" stroke-linejoin="round" stroke-opacity="0.7019608" stroke-width="1.0"/>
    <path d="M20.25 10.3 L22.45 11.15 22.7 14.25 26.0 13.1 28.75 15.2 30.25 12.4 33.85 12.25 32.65 9.5 32.7 9.5 35.5 11.8 32.45 13.8 32.85 17.45 29.25 16.65 26.95 19.45 25.0 16.45 21.4 16.8 22.1 13.2 19.3 10.95 20.25 10.3" fill="#83c188" fill-rule="evenodd" stroke="none"/>
    <path d="M32.7 9.5 L32.65 9.5 33.85 12.25 30.25 12.4 28.75 15.2 26.0 13.1 22.7 14.25 22.45 11.15 20.25 10.3 22.35 8.95 22.0 5.35 25.55 6.1 27.8 3.3 29.8 6.3 33.45 5.95 32.7 9.5" fill="#ffffed" fill-rule="evenodd" stroke="none"/>
    <path d="M32.7 9.5 L33.45 5.95 29.8 6.3 27.8 3.3 25.55 6.1 22.0 5.35 22.35 8.95 20.25 10.3 19.3 10.95 22.1 13.2 21.4 16.8 25.0 16.45 26.95 19.45 29.25 16.65 32.85 17.45 32.45 13.8 35.5 11.8 32.7 9.5 Z" ffdec:has-small-stroke="true" ffdec:original-stroke-width="0.5" fill="none" stroke="#768f5d" stroke-linecap="round" stroke-linejoin="round" stroke-opacity="0.7019608" stroke-width="1.0"/>
    <path d="M12.8 27.85 Q12.85 26.45 13.3 26.25 14.15 25.25 16.5 24.8 L17.7 24.95 Q19.55 25.35 21.25 26.95 L22.0 28.0 Q22.5 28.7 22.65 30.65 L22.7 32.05 22.7 32.15 19.65 33.55 16.85 33.55 15.35 32.9 12.8 31.9 12.8 28.1 12.8 27.85 15.35 31.7 15.35 31.65 19.25 31.65 15.35 31.65 15.35 31.7 12.8 27.85 M15.35 31.7 L15.35 32.9 15.35 31.7" fill="#83c188" fill-rule="evenodd" stroke="none"/>
    <path d="M12.8 31.9 L15.35 32.9 16.85 33.55 19.65 33.55 22.7 32.15 22.65 33.3 22.6 33.55 22.55 33.85 21.6 35.9 Q21.05 36.6 18.8 37.15 L17.15 37.0 Q14.65 36.05 14.0 35.35 13.3 34.55 13.05 33.8 L12.8 32.45 12.8 31.9 M15.35 34.05 L15.35 32.9 15.35 34.05" fill="#b6c7a7" fill-rule="evenodd" stroke="none"/>
    <path d="M22.7 32.15 L22.7 32.05 22.65 30.65 Q22.5 28.7 22.0 28.0 L21.25 26.95 Q19.55 25.35 17.7 24.95 L16.5 24.8 Q14.15 25.25 13.3 26.25 12.85 26.45 12.8 27.85 L15.35 31.7 15.35 31.65 19.25 31.65 M12.8 27.85 L12.8 28.1 12.8 31.9 15.35 32.9 15.35 31.7 M12.8 31.9 L12.8 32.45 13.05 33.8 Q13.3 34.55 14.0 35.35 14.65 36.05 17.15 37.0 L18.8 37.15 Q21.05 36.6 21.6 35.9 L22.55 33.85 22.6 33.55 22.65 33.3 22.7 32.15 19.65 33.55 16.85 33.55 15.35 32.9 15.35 34.05" ffdec:has-small-stroke="true" ffdec:original-stroke-width="0.5" fill="none" stroke="#768f5d" stroke-linecap="round" stroke-linejoin="round" stroke-opacity="0.7019608" stroke-width="1.0"/>
    <path d="M14.55 36.8 L14.55 34.35 Q15.95 35.3 18.25 36.0 L18.25 38.15 16.65 39.2 14.55 36.8" fill="#d2d9b7" fill-rule="evenodd" stroke="none"/>
    <path d="M14.55 36.8 L14.55 34.35 Q15.95 35.3 18.25 36.0 L18.25 38.15 16.65 39.2 14.55 36.8 Z" ffdec:has-small-stroke="true" ffdec:original-stroke-width="0.5" fill="none" stroke="#768f5d" stroke-linecap="round" stroke-linejoin="round" stroke-opacity="0.7019608" stroke-width="1.0"/>
    <path d="M43.5 24.0 L43.4 23.85 44.55 23.15 43.5 24.0" fill="#000000" fill-rule="evenodd" stroke="none"/>
    <path d="M43.4 23.85 L43.5 24.0 Q40.85 26.45 41.65 28.4 L36.45 27.6 36.15 27.8 Q29.65 31.1 23.45 32.9 L22.9 31.6 Q30.0 30.0 36.15 26.95 L33.4 24.5 38.35 24.5 43.4 23.85" fill="#83c188" fill-rule="evenodd" stroke="none"/>
    <path d="M19.3 11.85 Q22.15 12.35 24.35 14.5 27.1 17.3 27.1 21.25 L27.15 25.5 27.2 25.9 27.2 26.05 Q27.15 28.05 24.35 29.45 L21.8 30.35 21.8 19.7 21.8 19.05 19.3 11.85" fill="#656d4e" fill-rule="evenodd" stroke="none"/>
    <path d="M19.3 11.85 L21.8 19.05 21.8 19.7 Q15.2 22.2 8.6 18.1 L8.55 18.1 Q9.2 16.1 10.85 14.5 13.65 11.7 17.55 11.7 L19.3 11.85" fill="#afbd8f" fill-rule="evenodd" stroke="none"/>
    <path d="M8.55 18.2 L8.55 18.1 8.6 18.1 8.55 18.2" fill="#788761" fill-rule="evenodd" stroke="none"/>
    <path d="M21.8 19.7 L21.8 30.35 17.55 30.85 Q13.75 30.85 10.85 29.45 7.95 28.0 7.95 26.05 L7.95 25.9 8.05 25.5 8.15 19.85 14.45 28.25 14.45 23.05 8.15 19.85 8.55 18.2 8.6 18.1 Q15.2 22.2 21.8 19.7" fill="#b6c7a7" fill-rule="evenodd" stroke="none"/>
    <path d="M21.8 30.35 L24.35 29.45 Q27.15 28.05 27.2 26.05 L27.2 25.9 27.15 25.5 27.1 21.25 Q27.1 17.3 24.35 14.5 22.15 12.35 19.3 11.85" ffdec:has-small-stroke="true" ffdec:original-stroke-width="0.5" fill="none" stroke="#768f5d" stroke-linecap="round" stroke-linejoin="round" stroke-opacity="0.7019608" stroke-width="1.0"/>
    <path d="M8.85 25.5 L8.85 21.75 8.95 20.3 14.85 23.15 14.85 28.35 8.85 25.5" fill="#83c188" fill-rule="evenodd" stroke="none"/>
    <path d="M8.85 25.5 L14.85 28.35 14.85 23.15 8.95 20.3" ffdec:has-small-stroke="true" ffdec:original-stroke-width="0.5" fill="none" stroke="#768f5d" stroke-linecap="round" stroke-linejoin="round" stroke-opacity="0.7019608" stroke-width="1.0"/>
    <path d="M24.8 14.75 L24.95 14.6 25.95 15.75 24.8 14.75" fill="#dce8bc" fill-rule="evenodd" stroke="none"/>
    <path d="M12.8 13.75 L16.35 15.5 Q14.15 17.25 13.45 20.3 L10.3 19.0 Q11.1 15.55 12.8 13.75" fill="#ffffff" fill-rule="evenodd" stroke="none"/>
    <path d="M13.45 20.3 Q13.15 21.35 13.1 22.6 L13.1 32.65 9.9 31.0 9.9 20.9 10.3 19.0 13.45 20.3" fill="#d2d9b7" fill-rule="evenodd" stroke="none"/>
    <path d="M24.95 14.6 L24.8 14.75 Q23.05 13.5 21.4 13.5 24.75 15.35 25.55 17.6 L21.7 18.9 Q20.65 16.05 17.3 14.85 L16.35 15.5 12.8 13.75 Q13.65 12.9 14.7 12.4 L15.35 12.2 18.15 11.75 Q22.1 11.75 24.95 14.6" fill="#ffffed" fill-rule="evenodd" stroke="none"/>
    <path d="M24.8 14.75 L25.95 15.75 M16.35 15.5 L17.3 14.85 Q20.65 16.05 21.7 18.9 L25.55 17.6 Q24.75 15.35 21.4 13.5 23.05 13.5 24.8 14.75 M13.45 20.3 Q13.15 21.35 13.1 22.6 L13.1 32.65 9.9 31.0 M13.45 20.3 Q14.15 17.25 16.35 15.5" ffdec:has-small-stroke="true" ffdec:original-stroke-width="0.5" fill="none" stroke="#768f5d" stroke-linecap="round" stroke-linejoin="round" stroke-opacity="0.7019608" stroke-width="1.0"/>
    <path d="M16.2 18.3 Q16.2 17.75 16.5 17.45 16.85 17.1 17.4 17.1 17.9 17.1 18.25 17.45 L18.55 18.3 18.25 19.15 17.4 19.45 16.5 19.15 Q16.2 18.8 16.2 18.3" fill="#ffffcc" fill-rule="evenodd" stroke="none"/>
    <path d="M22.2 35.8 Q22.2 34.55 23.15 33.65 24.05 32.7 25.3 32.7 26.55 32.7 27.5 33.65 28.4 34.55 28.4 35.8 28.4 37.05 27.5 38.0 26.55 38.9 25.3 38.9 24.05 38.9 23.15 38.0 22.2 37.05 22.2 35.8" fill="#83c188" fill-rule="evenodd" stroke="none"/>
    <path d="M22.2 35.8 Q22.2 37.05 23.15 38.0 24.05 38.9 25.3 38.9 26.55 38.9 27.5 38.0 28.4 37.05 28.4 35.8 28.4 34.55 27.5 33.65 26.55 32.7 25.3 32.7 24.05 32.7 23.15 33.65 22.2 34.55 22.2 35.8 Z" ffdec:has-small-stroke="true" ffdec:original-stroke-width="0.5" fill="none" stroke="#768f5d" stroke-linecap="round" stroke-linejoin="round" stroke-opacity="0.7019608" stroke-width="1.0"/>
    <path d="M22.2 22.45 L25.25 21.3 25.25 24.6 22.2 27.35 22.2 22.45" fill="#eaefd1" fill-rule="evenodd" stroke="none"/>
    <path d="M25.25 21.3 L22.2 22.45 22.2 19.0 Q23.35 16.45 25.25 13.65 L25.25 21.1 25.25 21.3 M22.7 36.95 L19.6 35.5 19.6 33.3 22.7 34.85 22.7 36.95" fill="#d2d9b7" fill-rule="evenodd" stroke="none"/>
    <path d="M27.8 29.3 L30.85 30.8 Q26.8 32.8 22.7 34.85 L19.6 33.3 22.3 31.95 Q22.8 32.35 22.9 33.3 L23.0 33.25 27.45 30.7 27.5 30.7 27.8 29.3" fill="#b6c087" fill-rule="evenodd" stroke="none"/>
    <path d="M25.25 27.25 L27.45 30.7 23.0 33.25 25.25 27.25" fill="#83c188" fill-rule="evenodd" stroke="none"/>
    <path d="M22.2 27.35 L25.25 24.6 25.25 21.3 25.25 21.1 25.25 13.65 Q27.05 14.35 28.2 15.55 L28.2 25.6 28.9 25.4 Q30.2 25.0 31.15 25.85 29.9 26.35 29.2 27.1 28.2 28.1 27.8 29.3 L27.5 30.7 27.45 30.7 25.25 27.25 23.0 33.25 22.9 33.3 Q22.8 32.35 22.3 31.95 21.9 31.6 21.2 31.7 20.45 31.75 19.25 32.55 20.2 30.65 21.5 29.55 L22.2 29.05 22.2 27.35 M30.85 30.8 L30.85 33.0 22.7 36.95 22.7 34.85 Q26.8 32.8 30.85 30.8 M25.25 24.6 L25.25 27.25 25.25 24.6" fill="#b6c7a7" fill-rule="evenodd" stroke="none"/>
    <path d="M22.2 22.45 L22.2 27.35 25.25 24.6 25.25 21.3 M25.25 21.1 L25.25 13.65 Q23.35 16.45 22.2 19.0 L22.2 22.45 M25.25 13.65 Q27.05 14.35 28.2 15.55 L28.2 25.6 28.9 25.4 Q30.2 25.0 31.15 25.85 29.9 26.35 29.2 27.1 28.2 28.1 27.8 29.3 L30.85 30.8 30.85 33.0 22.7 36.95 19.6 35.5 19.6 33.3 22.3 31.95 Q21.9 31.6 21.2 31.7 20.45 31.75 19.25 32.55 20.2 30.65 21.5 29.55 L22.2 29.05 22.2 27.35 M27.45 30.7 L27.5 30.7 27.8 29.3 M23.0 33.25 L22.9 33.3 Q22.8 32.35 22.3 31.95 M27.45 30.7 L23.0 33.25 M25.25 27.25 L25.25 24.6" ffdec:has-small-stroke="true" ffdec:original-stroke-width="0.5" fill="none" stroke="#768f5d" stroke-linecap="round" stroke-linejoin="round" stroke-opacity="0.7019608" stroke-width="1.0"/>
  </g>
</svg>
