<?xml version="1.0" encoding="UTF-8" standalone="no"?>
<svg xmlns:ffdec="https://www.free-decompiler.com/flash" xmlns:xlink="http://www.w3.org/1999/xlink" ffdec:objectType="shape" height="204.95px" width="231.35px" xmlns="http://www.w3.org/2000/svg">
  <g transform="matrix(1.0, 0.0, 0.0, 1.0, 18.3, -21.3)">
    <path d="M76.5 62.15 Q88.8 38.35 101.4 27.85 105.9 24.15 110.55 22.15 125.05 17.95 126.6 34.1 132.15 60.55 124.65 85.55 131.0 56.9 121.6 35.75 L118.55 40.1 116.65 43.35 Q106.15 61.25 106.4 78.75 L104.2 77.35 Q96.05 73.2 76.5 62.15" fill="#8dc7b5" fill-rule="evenodd" stroke="none"/>
    <path d="M106.4 78.75 Q106.15 61.25 116.65 43.35 L119.95 84.2 Q113.65 82.35 107.5 79.3 L106.4 78.75" fill="#122521" fill-rule="evenodd" stroke="none"/>
    <path d="M116.65 43.35 L118.55 40.1 121.6 35.75 Q131.0 56.9 124.65 85.55 L121.05 84.45 119.95 84.2 116.65 43.35" fill="#21433c" fill-rule="evenodd" stroke="none"/>
    <path d="M124.65 85.55 Q132.15 60.55 126.6 34.1 125.05 17.95 110.55 22.15 105.9 24.15 101.4 27.85 88.8 38.35 76.5 62.15" ffdec:has-small-stroke="true" ffdec:original-stroke-width="0.05" fill="none" stroke="#000000" stroke-linecap="round" stroke-linejoin="round" stroke-opacity="0.3019608" stroke-width="1.0"/>
    <path d="M151.55 165.25 L151.25 164.45 151.25 164.15 151.55 164.45 151.55 165.25" fill="#f17901" fill-rule="evenodd" stroke="none"/>
    <path d="M151.25 164.15 L151.55 164.2 151.55 164.45 151.25 164.15" fill="#ff9601" fill-rule="evenodd" stroke="none"/>
    <path d="M86.15 185.25 Q81.1 182.15 77.05 178.05 87.75 157.9 101.95 154.35 L102.5 134.75 112.75 130.15 116.65 130.15 128.8 147.0 146.0 146.75 151.25 164.15 151.25 164.45 151.55 165.25 151.55 166.35 146.0 183.75 118.05 194.1 Q98.9 193.05 86.15 185.25" fill="#e3f3ed" fill-rule="evenodd" stroke="none"/>
    <path d="M86.15 185.25 Q98.9 193.05 118.05 194.1 L146.0 183.75 140.75 191.9 139.6 191.9 Q131.0 196.1 122.45 200.35 L104.75 200.1 86.15 185.25" fill="#c9e9dc" fill-rule="evenodd" stroke="none"/>
    <path d="M85.6 202.55 L64.1 190.05 64.65 188.1 Q65.6 183.8 63.95 182.55 62.15 181.9 59.3 184.1 L57.15 186.0 45.75 179.4 67.35 166.35 50.2 146.75 83.15 114.35 101.7 119.55 112.75 114.9 118.3 103.2 124.05 106.95 Q126.4 109.95 129.4 111.4 131.25 112.45 132.7 112.6 L154.55 126.85 154.3 150.3 Q153.4 152.45 152.9 154.9 151.7 159.15 151.55 164.2 L151.25 164.15 146.0 146.75 128.8 147.0 116.65 130.15 112.75 130.15 102.5 134.75 101.95 154.35 Q87.75 157.9 77.05 178.05 81.1 182.15 86.15 185.25 L104.75 200.1 98.1 199.8 Q91.55 201.0 85.6 202.55" fill="#a5dac6" fill-rule="evenodd" stroke="none"/>
    <path d="M91.4 97.35 Q95.3 94.25 96.3 90.55 97.45 86.75 94.9 85.0 92.25 83.8 88.2 85.0 83.75 86.2 79.55 89.4 76.4 92.75 75.5 96.45 74.25 100.25 76.05 101.75 78.7 103.45 83.0 102.3 87.25 101.05 91.4 97.35 M105.65 73.9 Q107.0 72.05 105.5 69.0 103.85 65.95 99.95 62.95 96.7 60.1 93.15 59.35 89.45 58.5 88.1 60.3 87.25 62.15 88.8 65.05 90.4 68.2 93.75 71.25 97.2 73.5 100.75 74.25 104.45 75.15 105.65 73.9 M124.1 79.55 Q127.85 82.95 131.3 86.6 L154.0 99.65 145.7 110.0 167.85 127.95 Q158.65 140.85 154.3 150.3 L154.55 126.85 132.7 112.6 Q133.9 112.65 134.8 112.05 137.1 109.85 136.9 105.5 136.55 101.15 133.8 96.35 131.65 91.95 128.2 90.2 124.65 88.25 122.35 90.3 120.55 92.55 120.85 96.75 121.1 101.25 123.3 105.95 L124.05 106.95 118.3 103.2 112.75 114.9 101.7 119.55 83.15 114.35 50.2 146.75 67.35 166.35 45.75 179.4 57.15 186.0 Q55.15 187.95 53.2 190.75 50.9 195.0 50.1 199.1 49.05 203.4 50.25 204.55 52.0 205.75 55.0 203.5 57.95 201.15 61.0 196.3 63.1 193.15 64.1 190.05 L85.6 202.55 Q63.75 207.55 50.2 215.05 L44.35 194.65 30.8 209.35 6.15 194.35 18.35 178.6 -4.35 187.85 -12.65 170.95 -6.0 146.45 44.35 72.2 Q55.0 62.8 79.25 56.1 L97.0 57.5 Q111.9 67.9 124.1 79.55 M13.95 135.85 Q10.65 140.35 9.05 146.55 8.6 152.1 10.6 156.35 12.35 160.9 15.25 161.0 19.15 160.65 22.35 156.35 25.45 151.95 26.55 145.3 27.95 139.45 26.05 135.15 24.2 130.65 20.4 130.85 16.95 131.65 13.95 135.85 M56.75 68.2 Q53.9 68.85 51.45 72.3 48.75 76.0 47.5 81.0 47.1 85.55 48.75 89.0 50.2 92.7 52.55 92.8 55.7 92.55 58.35 89.05 60.85 85.45 61.75 80.0 62.9 75.2 61.35 71.75 59.85 68.05 56.75 68.2" fill="#8dc7b5" fill-rule="evenodd" stroke="none"/>
    <path d="M105.65 73.9 Q104.45 75.15 100.75 74.25 97.2 73.5 93.75 71.25 90.4 68.2 88.8 65.05 87.25 62.15 88.1 60.3 89.45 58.5 93.15 59.35 96.7 60.1 99.95 62.95 103.85 65.95 105.5 69.0 107.0 72.05 105.65 73.9 M91.4 97.35 Q87.25 101.05 83.0 102.3 78.7 103.45 76.05 101.75 74.25 100.25 75.5 96.45 76.4 92.75 79.55 89.4 83.75 86.2 88.2 85.0 92.25 83.8 94.9 85.0 97.45 86.75 96.3 90.55 95.3 94.25 91.4 97.35 M64.1 190.05 Q63.1 193.15 61.0 196.3 57.95 201.15 55.0 203.5 52.0 205.75 50.25 204.55 49.05 203.4 50.1 199.1 50.9 195.0 53.2 190.75 55.15 187.95 57.15 186.0 L59.3 184.1 Q62.15 181.9 63.95 182.55 65.6 183.8 64.65 188.1 L64.1 190.05 M124.05 106.95 L123.3 105.95 Q121.1 101.25 120.85 96.75 120.55 92.55 122.35 90.3 124.65 88.25 128.2 90.2 131.65 91.95 133.8 96.35 136.55 101.15 136.9 105.5 137.1 109.85 134.8 112.05 133.9 112.65 132.7 112.6 131.25 112.45 129.4 111.4 126.4 109.95 124.05 106.95 M56.75 68.2 Q59.85 68.05 61.35 71.75 62.9 75.2 61.75 80.0 60.85 85.45 58.35 89.05 55.7 92.55 52.55 92.8 50.2 92.7 48.75 89.0 47.1 85.55 47.5 81.0 48.75 76.0 51.45 72.3 53.9 68.85 56.75 68.2 M13.95 135.85 Q16.95 131.65 20.4 130.85 24.2 130.65 26.05 135.15 27.95 139.45 26.55 145.3 25.45 151.95 22.35 156.35 19.15 160.65 15.25 161.0 12.35 160.9 10.6 156.35 8.6 152.1 9.05 146.55 10.65 140.35 13.95 135.85" fill="#366d61" fill-rule="evenodd" stroke="none"/>
    <path d="M124.1 79.55 Q111.9 67.9 97.0 57.5 L79.25 56.1 Q55.0 62.8 44.35 72.2 L-6.0 146.45 -12.65 170.95 -4.35 187.85 M6.15 194.35 L30.8 209.35 M50.2 215.05 Q63.75 207.55 85.6 202.55 91.55 201.0 98.1 199.8 L104.75 200.1 122.45 200.35 Q131.0 196.1 139.6 191.9 L140.75 191.9 146.0 183.75 151.55 166.35 151.55 165.25 151.55 164.45 151.55 164.2 Q151.7 159.15 152.9 154.9 M154.3 150.3 Q158.65 140.85 167.85 127.95 L145.7 110.0" ffdec:has-small-stroke="true" ffdec:original-stroke-width="0.05" fill="none" stroke="#000000" stroke-linecap="round" stroke-linejoin="round" stroke-opacity="0.3019608" stroke-width="1.0"/>
    <path d="M-4.35 187.85 L18.35 178.6 6.15 194.35 M30.8 209.35 L44.35 194.65 50.2 215.05" ffdec:has-small-stroke="true" ffdec:original-stroke-width="0.05" fill="none" stroke="#000000" stroke-linecap="round" stroke-linejoin="round" stroke-opacity="0.3019608" stroke-width="1.0"/>
    <path d="M145.7 110.0 L154.0 99.65 131.3 86.6 Q127.85 82.95 124.1 79.55" ffdec:has-small-stroke="true" ffdec:original-stroke-width="0.05" fill="none" stroke="#000000" stroke-linecap="round" stroke-linejoin="round" stroke-opacity="0.3019608" stroke-width="1.0"/>
    <path d="M119.45 158.25 Q129.35 154.75 140.0 151.25 L131.5 169.35 Q125.1 163.8 119.45 158.25" fill="#000000" fill-rule="evenodd" stroke="none"/>
    <path d="M49.95 135.4 Q51.35 131.95 54.9 130.55 57.75 128.45 61.3 130.55 65.55 132.65 67.65 136.8 69.1 141.0 68.4 145.15 66.95 149.35 64.15 150.75 60.6 152.15 56.35 150.05 53.5 147.95 51.35 143.75 49.25 139.6 49.95 135.4" fill="#513904" fill-rule="evenodd" stroke="none"/>
    <path d="M153.9 115.85 L155.8 130.8 136.1 142.9 115.3 134.4 128.95 130.8 153.9 115.85" fill="#366d61" fill-rule="evenodd" stroke="none"/>
    <path d="M112.8 93.0 Q113.8 83.7 116.6 78.5" ffdec:has-small-stroke="true" ffdec:original-stroke-width="0.05" fill="none" stroke="#000000" stroke-linecap="round" stroke-linejoin="round" stroke-opacity="0.5019608" stroke-width="1.0"/>
    <path d="M119.45 96.55 Q151.6 108.7 129.65 136.85 126.15 136.5 122.45 133.65 116.7 129.05 114.15 120.75 111.6 112.55 113.75 105.4 115.25 99.8 118.7 97.35 L119.45 96.55" fill="#122521" fill-rule="evenodd" stroke="none"/>
    <path d="M119.45 96.55 L120.95 96.15 Q123.55 95.2 126.25 96.15 127.55 96.0 128.9 96.55 130.6 97.1 132.3 98.55 138.2 103.15 141.0 111.45 143.5 120.0 141.4 127.6 139.8 132.8 136.45 135.65 L133.45 136.45 131.15 136.85 129.65 136.85 Q151.6 108.7 119.45 96.55" fill="#e3f3ed" fill-rule="evenodd" stroke="none"/>
    <path d="M117.1 101.0 Q118.4 98.75 120.9 98.25 123.35 97.8 125.7 99.3 128.05 100.9 128.7 103.35 129.4 105.95 128.0 108.2 126.65 110.5 124.2 110.9 121.75 111.45 119.4 109.85 117.0 108.35 116.4 105.8 115.75 103.3 117.1 101.0" fill="#ffffff" fill-rule="evenodd" stroke="none"/>
    <path d="M55.15 164.25 L13.6 152.25 43.35 150.85 102.75 136.1 100.7 154.1 55.15 164.25" fill="#366d61" fill-rule="evenodd" stroke="none"/>
    <path d="M98.7 94.55 Q76.05 78.05 55.65 85.35" ffdec:has-small-stroke="true" ffdec:original-stroke-width="0.05" fill="none" stroke="#000000" stroke-linecap="round" stroke-linejoin="round" stroke-opacity="0.5019608" stroke-width="1.0"/>
    <path d="M76.65 155.95 L76.15 155.95 76.3 155.7 76.65 155.95" fill="#ffee1d" fill-rule="evenodd" stroke="none"/>
    <path d="M76.15 155.95 L72.05 155.95 Q60.65 155.55 52.55 148.1 44.1 141.2 43.85 131.5 44.1 121.05 52.55 113.5 59.2 108.1 67.95 107.5 L72.05 107.5 Q74.45 107.35 76.65 107.5 40.2 129.25 76.3 155.7 L76.15 155.95" fill="#e3f3ed" fill-rule="evenodd" stroke="none"/>
    <path d="M76.65 107.5 L80.25 107.95 Q86.65 109.5 91.5 113.5 99.7 121.05 99.7 131.5 99.7 141.2 91.5 148.1 88.75 150.75 85.35 152.7 81.4 154.85 76.65 155.95 L76.3 155.7 Q40.2 129.25 76.65 107.5" fill="#122521" fill-rule="evenodd" stroke="none"/>
    <path d="M58.15 112.8 Q60.05 110.05 64.05 109.7 68.0 109.4 72.0 111.5 76.0 113.8 77.4 117.05 78.7 120.3 76.8 123.0 74.85 125.75 70.85 126.0 66.9 126.4 62.9 124.15 58.9 121.95 57.55 118.75 56.2 115.5 58.15 112.8" fill="#ffffff" fill-rule="evenodd" stroke="none"/>
    <path d="M46.85 74.65 Q45.05 81.5 42.7 87.7 27.65 80.95 15.0 80.65 0.65 80.05 -10.75 87.45 -10.35 101.9 -4.9 114.65 -0.25 125.35 8.1 134.8 -9.8 117.15 -16.8 90.15 -22.4 74.35 -7.15 68.4 L-2.4 67.3 Q25.85 61.7 46.85 74.65" fill="#8dc7b5" fill-rule="evenodd" stroke="none"/>
    <path d="M29.4 103.5 L8.1 134.8 Q-0.25 125.35 -4.9 114.65 6.35 97.85 29.4 103.5" fill="#21433c" fill-rule="evenodd" stroke="none"/>
    <path d="M42.7 87.7 Q40.0 89.85 38.0 92.6 36.0 95.45 29.4 103.5 6.35 97.85 -4.9 114.65 -10.35 101.9 -10.75 87.45 0.65 80.05 15.0 80.65 27.65 80.95 42.7 87.7" fill="#122521" fill-rule="evenodd" stroke="none"/>
    <path d="M8.1 134.8 Q-9.8 117.15 -16.8 90.15 -22.4 74.35 -7.15 68.4 L-2.4 67.3 Q25.85 61.7 46.85 74.65" ffdec:has-small-stroke="true" ffdec:original-stroke-width="0.05" fill="none" stroke="#000000" stroke-linecap="round" stroke-linejoin="round" stroke-opacity="0.3019608" stroke-width="1.0"/>
    <path d="M103.55 173.85 Q49.45 172.55 -2.15 193.65" ffdec:has-small-stroke="true" ffdec:original-stroke-width="0.05" fill="none" stroke="#ffffff" stroke-linecap="round" stroke-linejoin="round" stroke-opacity="0.3019608" stroke-width="1.0"/>
    <path d="M108.2 178.2 Q44.5 201.3 14.6 225.6" ffdec:has-small-stroke="true" ffdec:original-stroke-width="0.05" fill="none" stroke="#ffffff" stroke-linecap="round" stroke-linejoin="round" stroke-opacity="0.3019608" stroke-width="1.0"/>
    <path d="M111.0 179.6 Q54.05 204.9 41.6 226.25" ffdec:has-small-stroke="true" ffdec:original-stroke-width="0.05" fill="none" stroke="#ffffff" stroke-linecap="round" stroke-linejoin="round" stroke-opacity="0.3019608" stroke-width="1.0"/>
    <path d="M142.0 158.5 Q169.15 126.65 205.85 112.25" ffdec:has-small-stroke="true" ffdec:original-stroke-width="0.05" fill="none" stroke="#ffffff" stroke-linecap="round" stroke-linejoin="round" stroke-opacity="0.3019608" stroke-width="1.0"/>
    <path d="M142.0 163.9 Q185.9 144.0 213.05 144.3" ffdec:has-small-stroke="true" ffdec:original-stroke-width="0.05" fill="none" stroke="#ffffff" stroke-linecap="round" stroke-linejoin="round" stroke-opacity="0.3019608" stroke-width="1.0"/>
    <path d="M142.0 167.2 Q183.5 152.75 200.25 160.85" ffdec:has-small-stroke="true" ffdec:original-stroke-width="0.05" fill="none" stroke="#ffffff" stroke-linecap="round" stroke-linejoin="round" stroke-opacity="0.3019608" stroke-width="1.0"/>
  </g>
</svg>
