<?xml version="1.0" encoding="UTF-8" standalone="no"?>
<svg xmlns:ffdec="https://www.free-decompiler.com/flash" xmlns:xlink="http://www.w3.org/1999/xlink" ffdec:objectType="shape" height="62.65px" width="90.75px" xmlns="http://www.w3.org/2000/svg">
  <g transform="matrix(1.0, 0.0, 0.0, 1.0, 44.85, 50.45)">
    <path d="M-22.0 -34.55 L-22.25 -34.65 -21.7 -35.35 -22.0 -34.55" fill="#bdbfc4" fill-rule="evenodd" stroke="none"/>
    <path d="M20.4 -32.2 L20.9 -31.05 22.3 -27.55 26.15 -13.2 Q28.25 -5.2 23.1 0.75 L22.75 1.15 21.05 2.75 21.9 -0.15 19.15 -4.6 Q3.95 -6.95 -8.1 -5.65 -20.1 -4.4 -20.25 -3.55 L-23.15 1.7 -22.15 4.75 -23.0 4.15 -24.0 3.35 -26.85 0.75 Q-31.95 -5.2 -29.8 -13.2 L-25.8 -27.55 -24.4 -31.05 -23.85 -32.2 -23.4 -33.0 -23.0 -33.5 -22.25 -34.65 -22.0 -34.55 -24.25 -28.25 -18.3 -23.0 Q-12.15 -21.25 -2.7 -21.25 10.25 -21.4 15.5 -23.2 L20.35 -27.75 20.4 -32.2" fill="#a5dac6" fill-rule="evenodd" stroke="none"/>
    <path d="M20.4 -32.2 L20.35 -27.75 15.5 -23.2 Q10.25 -21.4 -2.7 -21.25 -12.15 -21.25 -18.3 -23.0 L-24.25 -28.25 -22.0 -34.55 -21.7 -35.35 -20.2 -37.0 -18.8 -38.3 Q-14.3 -42.1 -7.6 -43.4 L-5.0 -43.85 -3.8 -43.95 -1.75 -44.0 -1.6 -44.0 0.45 -43.95 1.65 -43.85 4.25 -43.4 Q10.9 -42.1 15.4 -38.3 17.3 -36.75 18.8 -34.65 L19.55 -33.5 19.9 -33.0 20.4 -32.2 M-22.15 4.75 L-23.15 1.7 -20.25 -3.55 Q-20.1 -4.4 -8.1 -5.65 3.95 -6.95 19.15 -4.6 L21.9 -0.15 21.05 2.75 19.2 4.15 Q15.55 6.75 11.8 8.45 6.0 11.05 0.0 11.5 L-0.05 11.5 -1.95 11.6 -7.15 11.35 -9.0 11.05 Q-12.1 10.5 -15.3 9.4 -17.9 8.0 -20.0 6.25 L-19.95 6.15 -22.15 4.75" fill="#c9e9dc" fill-rule="evenodd" stroke="none"/>
    <path d="M21.05 2.75 L22.75 1.15 23.1 0.75 Q28.25 -5.2 26.15 -13.2 L22.3 -27.55 20.9 -31.05 20.4 -32.2 19.9 -33.0 19.55 -33.5 18.8 -34.65 Q17.3 -36.75 15.4 -38.3 10.9 -42.1 4.25 -43.4 L1.65 -43.85 0.45 -43.95 -1.6 -44.0 -1.75 -44.0 -3.8 -43.95 -5.0 -43.85 -7.6 -43.4 Q-14.3 -42.1 -18.8 -38.3 L-20.2 -37.0 -21.7 -35.35 -22.25 -34.65 -23.0 -33.5 -23.4 -33.0 -23.85 -32.2 -24.4 -31.05 -25.8 -27.55 -29.8 -13.2 Q-31.95 -5.2 -26.85 0.75 L-24.0 3.35 -23.0 4.15 -22.15 4.75 -19.95 6.15 -20.0 6.25 Q-17.9 8.0 -15.3 9.4 -12.1 10.5 -9.0 11.05 L-7.15 11.35 -1.95 11.6 -0.05 11.5 0.0 11.5 Q6.0 11.05 11.8 8.45 15.55 6.75 19.2 4.15 L21.05 2.75 Z" fill="none" stroke="#000000" stroke-linecap="round" stroke-linejoin="round" stroke-opacity="0.3019608" stroke-width="1.0"/>
    <path d="M2.15 -49.95 Q2.2 -48.75 0.3 -43.75 2.05 -43.9 4.05 -49.0 L7.5 -49.25 2.95 -41.8 Q6.8 -40.7 9.9 -38.7 6.5 -33.85 2.55 -33.85 -1.5 -33.85 -5.15 -36.1 L-6.8 -37.3 -6.8 -43.05 -6.4 -43.1 -3.9 -44.8 -2.75 -45.9 Q-1.2 -47.55 -0.55 -49.65 L2.15 -49.95 M1.9 -39.8 L2.95 -41.8 1.9 -39.8" fill="#c9e9dc" fill-rule="evenodd" stroke="none"/>
    <path d="M2.95 -41.8 L7.5 -49.25 4.05 -49.0 Q2.05 -43.9 0.3 -43.75 2.2 -48.75 2.15 -49.95 M2.95 -41.8 L1.9 -39.8" fill="none" stroke="#000000" stroke-linecap="round" stroke-linejoin="round" stroke-opacity="0.3019608" stroke-width="1.0"/>
    <path d="M2.15 -49.95 L-0.55 -49.65 Q-1.2 -47.55 -2.75 -45.9 M-3.9 -44.8 L-6.4 -43.1 -6.8 -43.05" fill="none" stroke="#000000" stroke-linecap="round" stroke-linejoin="round" stroke-opacity="0.3019608" stroke-width="1.0"/>
    <path d="M-20.2 -24.85 L-22.45 -24.15 -26.3 -22.5 -26.35 -22.55 Q-27.65 -25.35 -28.0 -29.85 L-28.3 -35.15 Q-28.85 -48.85 -28.25 -49.45 L-27.0 -49.05 Q-27.75 -44.4 -25.85 -35.1 L-25.4 -33.55 -25.25 -32.6 -25.05 -32.5 -23.3 -28.95 Q-21.85 -26.25 -20.2 -24.85" fill="#a5dac6" fill-rule="evenodd" stroke="none"/>
    <path d="M-11.45 -40.65 Q-12.1 -37.75 -11.7 -35.75 L-11.4 -35.15 Q-12.7 -29.4 -17.7 -26.3 -20.2 -25.15 -20.2 -24.85 -21.85 -26.25 -23.3 -28.95 L-25.05 -32.5 Q-18.6 -30.95 -16.35 -35.65 -20.75 -43.5 -25.4 -45.15 -26.65 -45.6 -26.75 -44.4 L-26.65 -43.35 -25.4 -33.55 -25.85 -35.1 Q-27.75 -44.4 -27.0 -49.05 -22.0 -47.3 -11.45 -40.65" fill="#c9e9dc" fill-rule="evenodd" stroke="none"/>
    <path d="M-26.65 -43.35 L-26.75 -44.4 Q-26.65 -45.6 -25.4 -45.15 -20.75 -43.5 -16.35 -35.65 -18.6 -30.95 -25.05 -32.5 L-25.25 -32.6 -25.4 -33.55 -26.65 -43.35" fill="#edf8f3" fill-rule="evenodd" stroke="none"/>
    <path d="M-26.3 -22.5 L-26.35 -22.55 Q-27.65 -25.35 -28.0 -29.85 L-28.3 -35.15 Q-28.85 -48.85 -28.25 -49.45 L-27.0 -49.05 Q-22.0 -47.3 -11.45 -40.65 M-26.65 -43.35 L-26.75 -44.4 Q-26.65 -45.6 -25.4 -45.15 -20.75 -43.5 -16.35 -35.65" fill="none" stroke="#000000" stroke-linecap="round" stroke-linejoin="round" stroke-opacity="0.3019608" stroke-width="1.0"/>
    <path d="M-14.4 -30.0 Q-11.8 -30.4 -9.05 -28.8 -5.05 -27.3 -1.8 -21.85 -0.95 -19.1 -1.8 -15.35 -2.5 -12.6 -6.2 -9.15 -12.8 -7.15 -19.1 -9.5 -22.5 -11.25 -23.0 -19.55 -20.75 -28.05 -14.4 -30.0" fill="#fcfff1" fill-rule="evenodd" stroke="none"/>
    <path d="M-14.4 -30.0 Q-11.8 -30.4 -9.05 -28.8 -5.05 -27.3 -1.8 -21.85 -0.95 -19.1 -1.8 -15.35 -2.5 -12.6 -6.2 -9.15 -12.8 -7.15 -19.1 -9.5 -22.5 -11.25 -23.0 -19.55 -20.75 -28.05 -14.4 -30.0 Z" ffdec:has-small-stroke="true" ffdec:original-stroke-width="0.25" fill="none" stroke="#000000" stroke-linecap="round" stroke-linejoin="round" stroke-opacity="0.3019608" stroke-width="1.0"/>
    <path d="M-11.65 -26.6 L-10.15 -26.5 Q-8.2 -26.0 -6.8 -24.7 L-5.75 -23.5 -5.4 -22.85 Q-4.7 -21.5 -4.45 -20.05 L-4.45 -19.95 Q-4.3 -18.5 -4.7 -16.95 -5.35 -14.3 -7.5 -12.6 -16.4 -15.05 -14.65 -21.95 -13.75 -25.6 -11.65 -26.6" fill="#366d61" fill-rule="evenodd" stroke="none"/>
    <path d="M-7.5 -12.6 L-8.35 -12.1 Q-11.0 -10.25 -13.95 -10.95 -17.05 -11.75 -18.8 -14.65 -20.3 -17.5 -19.5 -20.65 -18.75 -23.8 -16.05 -25.55 -13.9 -26.8 -11.65 -26.6 -13.75 -25.6 -14.65 -21.95 -16.4 -15.05 -7.5 -12.6" fill="#244a42" fill-rule="evenodd" stroke="none"/>
    <path d="M-7.05 -22.25 L-8.7 -22.1 Q-9.7 -22.3 -10.0 -23.15 -10.35 -23.85 -10.0 -24.45 -10.0 -25.1 -9.35 -25.55 -8.7 -26.2 -7.7 -25.9 -7.05 -25.7 -6.4 -24.8 -6.1 -24.15 -6.1 -23.3 -6.4 -22.65 -7.05 -22.25" fill="#ffffff" fill-rule="evenodd" stroke="none"/>
    <path d="M-6.7 0.3 Q-9.85 -3.2 -22.35 -3.35 -34.7 -3.75 -44.75 0.4" ffdec:has-small-stroke="true" ffdec:original-stroke-width="0.25" fill="none" stroke="#000000" stroke-linecap="round" stroke-linejoin="round" stroke-opacity="0.3019608" stroke-width="1.0"/>
    <path d="M-6.8 -0.1 Q-12.2 -2.1 -23.1 1.75 -34.0 5.3 -39.35 12.1" ffdec:has-small-stroke="true" ffdec:original-stroke-width="0.25" fill="none" stroke="#000000" stroke-linecap="round" stroke-linejoin="round" stroke-opacity="0.3019608" stroke-width="1.0"/>
    <path d="M23.35 -49.05 Q24.1 -44.4 22.25 -35.1 L21.8 -33.55 23.05 -43.35 23.15 -44.4 Q23.0 -45.6 21.75 -45.15 17.1 -43.5 12.7 -35.65 14.95 -30.95 21.4 -32.5 L19.7 -28.95 Q18.2 -26.25 16.55 -24.85 L14.1 -26.3 Q9.05 -29.4 7.75 -35.15 L8.05 -35.75 Q8.45 -37.75 7.85 -40.65 18.4 -47.3 23.35 -49.05" fill="#c9e9dc" fill-rule="evenodd" stroke="none"/>
    <path d="M23.35 -49.05 L24.6 -49.45 Q25.2 -48.85 24.65 -35.15 L24.4 -29.85 Q24.0 -25.35 22.75 -22.55 L22.7 -22.5 Q21.75 -22.85 18.85 -24.15 L16.55 -24.85 Q18.2 -26.25 19.7 -28.95 L21.4 -32.5 21.65 -32.6 21.8 -33.55 22.25 -35.1 Q24.1 -44.4 23.35 -49.05" fill="#a5dac6" fill-rule="evenodd" stroke="none"/>
    <path d="M21.8 -33.55 L21.65 -32.6 21.4 -32.5 Q14.95 -30.95 12.7 -35.65 17.1 -43.5 21.75 -45.15 23.0 -45.6 23.15 -44.4 L23.05 -43.35 21.8 -33.55" fill="#edf8f3" fill-rule="evenodd" stroke="none"/>
    <path d="M22.7 -22.5 L22.75 -22.55 Q24.0 -25.35 24.4 -29.85 L24.65 -35.15 Q25.2 -48.85 24.6 -49.45 L23.35 -49.05 Q18.4 -47.3 7.85 -40.65 M23.05 -43.35 L23.15 -44.4 Q23.0 -45.6 21.75 -45.15 17.1 -43.5 12.7 -35.65" fill="none" stroke="#000000" stroke-linecap="round" stroke-linejoin="round" stroke-opacity="0.3019608" stroke-width="1.0"/>
    <path d="M8.9 -30.0 Q11.5 -30.4 14.25 -28.8 18.25 -27.3 21.5 -21.85 22.35 -19.1 21.5 -15.35 20.8 -12.6 17.1 -9.15 10.5 -7.15 4.2 -9.5 0.8 -11.25 0.3 -19.55 2.55 -28.05 8.9 -30.0" fill="#fcfff1" fill-rule="evenodd" stroke="none"/>
    <path d="M8.9 -30.0 Q11.5 -30.4 14.25 -28.8 18.25 -27.3 21.5 -21.85 22.35 -19.1 21.5 -15.35 20.8 -12.6 17.1 -9.15 10.5 -7.15 4.2 -9.5 0.8 -11.25 0.3 -19.55 2.55 -28.05 8.9 -30.0 Z" ffdec:has-small-stroke="true" ffdec:original-stroke-width="0.25" fill="none" stroke="#000000" stroke-linecap="round" stroke-linejoin="round" stroke-opacity="0.3019608" stroke-width="1.0"/>
    <path d="M11.65 -26.6 L13.15 -26.5 Q15.1 -26.0 16.5 -24.7 L17.55 -23.5 17.9 -22.85 18.85 -20.05 18.85 -19.95 Q19.0 -18.5 18.6 -16.95 17.95 -14.3 15.8 -12.6 6.9 -15.05 8.65 -21.95 9.55 -25.6 11.65 -26.6" fill="#366d61" fill-rule="evenodd" stroke="none"/>
    <path d="M15.8 -12.6 L14.95 -12.1 Q12.3 -10.25 9.35 -10.95 6.25 -11.75 4.5 -14.65 3.0 -17.5 3.8 -20.65 4.55 -23.8 7.25 -25.55 9.4 -26.8 11.65 -26.6 9.55 -25.6 8.65 -21.95 6.9 -15.05 15.8 -12.6" fill="#244a42" fill-rule="evenodd" stroke="none"/>
    <path d="M17.15 -23.3 Q16.85 -22.65 16.2 -22.25 L14.55 -22.1 Q13.55 -22.3 13.25 -23.15 12.9 -23.85 13.25 -24.45 13.25 -25.1 13.9 -25.55 14.55 -26.2 15.55 -25.9 16.2 -25.7 16.85 -24.8 L17.15 -23.3" fill="#ffffff" fill-rule="evenodd" stroke="none"/>
    <path d="M7.75 0.3 Q10.9 -3.2 23.4 -3.35 35.75 -3.75 45.8 0.4" ffdec:has-small-stroke="true" ffdec:original-stroke-width="0.25" fill="none" stroke="#000000" stroke-linecap="round" stroke-linejoin="round" stroke-opacity="0.3019608" stroke-width="1.0"/>
    <path d="M7.85 -0.1 Q13.25 -2.1 24.15 1.75 35.05 5.3 40.4 12.1" ffdec:has-small-stroke="true" ffdec:original-stroke-width="0.25" fill="none" stroke="#000000" stroke-linecap="round" stroke-linejoin="round" stroke-opacity="0.3019608" stroke-width="1.0"/>
    <path d="M5.8 -6.55 L6.1 -6.25 Q8.7 -3.6 8.7 0.1 8.7 3.8 6.1 6.4 3.5 9.0 -0.2 9.0 L-1.4 8.95 -1.65 6.75 Q-1.65 1.1 2.2 -1.15 3.9 -2.25 5.0 -3.9 5.65 -5.1 5.65 -6.25 L5.8 -6.55" fill="#fcfff1" fill-rule="evenodd" stroke="none"/>
    <path d="M-1.4 8.95 Q-4.35 8.55 -6.55 6.4 -9.1 3.8 -9.1 0.1 -9.1 -3.6 -6.55 -6.25 -3.9 -8.8 -0.2 -8.8 3.3 -8.8 5.8 -6.55 L5.65 -6.25 Q5.65 -5.1 5.0 -3.9 3.9 -2.25 2.2 -1.15 -1.65 1.1 -1.65 6.75 L-1.4 8.95" fill="#edf8f3" fill-rule="evenodd" stroke="none"/>
    <path d="M-1.4 8.95 Q-4.35 8.55 -6.55 6.4 -9.1 3.8 -9.1 0.1 -9.1 -3.6 -6.55 -6.25 -3.9 -8.8 -0.2 -8.8 3.3 -8.8 5.8 -6.55 L6.1 -6.25 Q8.7 -3.6 8.7 0.1 8.7 3.8 6.1 6.4 3.5 9.0 -0.2 9.0 L-1.4 8.95 Z" fill="none" stroke="#000000" stroke-linecap="round" stroke-linejoin="round" stroke-opacity="0.3019608" stroke-width="1.0"/>
    <path d="M-0.2 -0.8 L-4.4 -5.3 4.45 -5.3 0.15 -0.55 -0.2 -0.8" fill="#366d61" fill-rule="evenodd" stroke="none"/>
    <path d="M-0.2 -0.8 L-4.4 -5.3 4.45 -5.3 0.15 -0.55 -0.2 -0.8 0.0 -0.6 2.55 1.95 M0.0 -0.6 L-2.55 1.85" ffdec:has-small-stroke="true" ffdec:original-stroke-width="0.25" fill="none" stroke="#000000" stroke-linecap="round" stroke-linejoin="round" stroke-opacity="0.3019608" stroke-width="1.0"/>
  </g>
</svg>
