<?xml version="1.0" encoding="UTF-8" standalone="no"?>
<svg xmlns:ffdec="https://www.free-decompiler.com/flash" xmlns:xlink="http://www.w3.org/1999/xlink" ffdec:objectType="shape" height="85.0px" width="134.85px" xmlns="http://www.w3.org/2000/svg">
  <g transform="matrix(1.0, 0.0, 0.0, 1.0, 69.3, 43.1)">
    <path d="M-40.8 -2.85 L-43.95 -4.65 Q-40.25 -3.8 -40.35 -3.3 L-40.8 -2.85 M-5.35 -4.0 L-7.35 -4.55 Q3.6 -9.6 11.3 -7.7 0.4 -7.8 -5.35 -4.0" fill="#000000" fill-rule="evenodd" stroke="none"/>
    <path d="M13.35 -35.7 Q12.8 -44.1 15.55 -40.45 17.95 -35.9 17.2 -32.15 16.85 -27.3 12.1 -24.7 3.8 -21.65 10.0 -27.45 3.7 -22.9 6.45 -29.8 -0.55 -21.75 2.0 -29.85 L1.2 -29.85 Q-4.15 -28.5 -5.55 -28.95 -7.15 -29.45 -3.4 -32.35 -12.2 -35.95 -1.2 -33.95 -14.15 -42.3 4.7 -37.0 1.55 -47.85 8.75 -38.4 10.35 -45.85 13.35 -35.7 L13.4 -34.65 13.35 -35.7" fill="#ffecbf" fill-rule="evenodd" stroke="none"/>
    <path d="M-22.4 13.75 L-8.35 15.25 4.0 17.25 Q11.1 18.55 17.95 20.3 L15.2 22.9 Q11.9 19.25 3.95 20.1 L3.95 19.4 3.55 20.55 Q-1.8 17.6 -8.05 18.4 L-8.35 15.3 -10.35 18.2 Q-14.75 14.95 -22.5 16.5 L-23.8 14.8 -23.85 14.2 -23.8 14.8 -26.15 16.9 Q-31.9 16.25 -40.45 17.65 L-41.4 15.95 Q-32.65 16.8 -23.85 14.2 L-22.4 13.75 M-57.2 17.9 Q-50.05 16.05 -42.4 15.4 L-41.95 15.65 -42.6 17.7 Q-48.65 17.05 -55.6 20.15 L-57.2 17.9 M3.95 19.4 L4.0 17.25 3.95 19.4 M-8.35 15.25 L-8.35 15.3 -8.35 15.25" fill="#c9bca1" fill-rule="evenodd" stroke="none"/>
    <path d="M13.85 24.2 L8.55 28.95 Q7.2 30.25 7.05 28.0 L5.4 23.0 3.95 20.1 Q11.9 19.25 15.2 22.9 L13.85 24.2 M1.2 22.75 L-2.8 27.75 Q-4.3 30.05 -6.25 24.35 L-7.6 20.15 -8.05 18.4 Q-1.8 17.6 3.55 20.55 L1.2 22.75 M-11.65 20.25 L-16.05 26.6 Q-17.3 28.2 -20.4 20.95 L-21.75 18.6 -22.5 16.5 Q-14.75 14.95 -10.35 18.2 L-11.65 20.25 M-28.05 19.25 L-32.6 26.05 Q-33.15 28.0 -37.6 22.5 L-39.25 19.3 -40.45 17.65 Q-31.9 16.25 -26.15 16.9 L-28.05 19.25 M-43.05 20.05 L-43.8 25.7 Q-44.9 26.55 -50.9 22.85 L-54.2 20.35 -55.6 20.15 Q-48.65 17.05 -42.6 17.7 L-43.05 20.05" fill="#eae8d6" fill-rule="evenodd" stroke="none"/>
    <path d="M-5.55 -28.95 Q-4.15 -28.5 1.2 -29.85 L2.0 -29.85 Q-0.55 -21.75 6.45 -29.8 3.7 -22.9 10.0 -27.45 3.8 -21.65 12.1 -24.7 L14.95 -26.0 Q17.45 -19.75 12.5 -22.25 9.85 -18.6 4.8 -23.1 3.3 -19.2 1.8 -23.1 -3.55 -24.2 -1.8 -26.5 -6.1 -23.1 -8.2 -26.5 -12.25 -28.4 -5.55 -28.95 M-7.45 11.0 Q-9.5 12.9 -12.95 13.85 L-14.55 13.85 Q-14.85 12.7 -20.4 13.05 L-22.4 13.75 -23.85 14.2 Q-32.65 16.8 -41.4 15.95 L-40.45 17.65 -39.25 19.3 -43.05 20.05 -42.6 17.7 -41.95 15.65 -41.4 15.95 -41.95 15.65 -42.4 15.4 Q-47.9 12.25 -49.1 9.45 -41.1 11.55 -30.65 8.65 L-27.5 7.55 Q-11.9 2.3 -7.65 7.1 -6.25 9.35 -7.45 11.0 M17.95 20.3 L22.0 21.4 Q20.55 23.8 17.4 25.45 L13.85 24.2 15.2 22.9 17.95 20.3 M5.4 23.0 L1.2 22.75 3.55 20.55 3.95 19.4 3.95 20.1 5.4 23.0 M-7.6 20.15 L-11.65 20.25 -10.35 18.2 -8.35 15.3 -8.05 18.4 -7.6 20.15 M-21.75 18.6 L-28.05 19.25 -26.15 16.9 -23.8 14.8 -22.5 16.5 -21.75 18.6 M-54.2 20.35 L-56.45 21.75 -59.0 18.4 -57.2 17.9 -55.6 20.15 -54.2 20.35" fill="#254b43" fill-rule="evenodd" stroke="none"/>
    <path d="M-46.0 -6.6 Q-47.15 -7.15 -48.0 -7.85 -49.45 -16.1 -44.6 -20.3 -34.6 -29.15 -22.55 -30.6 -15.05 -28.95 -18.45 -24.8 -34.15 -16.25 -46.0 -6.6 M21.5 -12.85 Q21.9 -17.05 25.4 -19.15 42.75 -29.9 54.8 -21.55 62.85 -13.45 59.9 -4.5 54.65 4.65 34.05 3.65 28.3 -5.4 21.5 -12.85 M16.7 1.65 Q10.55 2.9 -6.8 0.65 L-6.0 2.55 Q-5.25 4.7 -4.9 6.8 -5.65 9.25 -7.45 11.0 -6.25 9.35 -7.65 7.1 -11.9 2.3 -27.5 7.55 -13.9 0.35 -15.55 -12.1 L-17.5 -14.15 Q-18.6 -16.1 -21.95 -15.2 -31.7 -10.5 -40.35 -3.3 -40.25 -3.8 -43.95 -4.65 L-40.8 -2.85 -43.85 0.5 Q-46.35 0.65 -47.15 -0.15 -48.45 -1.4 -45.75 -4.9 -26.8 -20.95 -19.45 -21.35 -18.1 -21.15 -18.2 -18.1 -13.5 -23.85 -4.6 -22.2 14.9 -12.7 19.8 -1.85 20.95 0.75 16.7 1.65 M-6.8 0.65 Q-9.5 -5.45 -15.55 -12.1 -9.5 -5.45 -6.8 0.65 M-5.35 -4.0 Q0.4 -7.8 11.3 -7.7 3.6 -9.6 -7.35 -4.55 L-5.35 -4.0" fill="#366d61" fill-rule="evenodd" stroke="none"/>
    <path d="M-3.4 -32.35 Q-7.15 -29.45 -5.55 -28.95 -12.25 -28.4 -8.2 -26.5 -6.1 -23.1 -1.8 -26.5 -3.55 -24.2 1.8 -23.1 3.3 -19.2 4.8 -23.1 9.85 -18.6 12.5 -22.25 17.45 -19.75 14.95 -26.0 34.1 -34.5 55.4 -37.2 64.55 -41.5 59.95 -34.9 67.55 -30.25 59.2 -30.6 66.25 -21.1 65.45 -10.1 64.15 -2.85 58.25 0.55 46.7 9.5 35.15 5.5 L38.5 11.35 37.2 11.1 Q31.9 5.9 16.7 1.65 20.95 0.75 19.8 -1.85 14.9 -12.7 -4.6 -22.2 -13.5 -23.85 -18.2 -18.1 -18.1 -21.15 -19.45 -21.35 -26.8 -20.95 -45.75 -4.9 -48.45 -1.4 -47.15 -0.15 -53.6 0.75 -60.05 6.75 -53.85 -0.2 -46.0 -6.6 -34.15 -16.25 -18.45 -24.8 -15.05 -28.95 -22.55 -30.6 -34.6 -29.15 -44.6 -20.3 -49.45 -16.1 -48.0 -7.85 -52.1 -11.0 -51.35 -17.05 -57.7 -18.15 -51.35 -20.25 -41.75 -29.3 -28.05 -35.85 -30.15 -39.7 -24.7 -39.1 -22.15 -47.1 -18.95 -39.1 -10.05 -34.15 -10.1 -29.15 L-3.4 -32.35 M20.6 29.9 L17.05 31.7 9.7 34.75 8.95 35.05 Q8.1 35.35 6.95 35.95 4.85 39.55 0.25 40.3 L-1.4 40.6 -8.05 41.5 -17.6 41.8 -19.9 41.65 Q-25.4 41.65 -26.1 39.8 -34.1 38.85 -41.1 36.45 -46.35 34.7 -51.0 32.1 L-51.3 31.8 -55.45 28.2 Q-61.0 23.05 -61.8 20.05 -69.25 22.0 -61.8 15.8 -67.95 15.95 -62.9 12.9 -55.65 6.25 -46.1 3.5 -48.0 6.4 -49.1 9.45 -48.0 6.4 -46.1 3.5 L-43.85 0.5 -40.8 -2.85 -40.35 -3.3 Q-31.7 -10.5 -21.95 -15.2 -18.6 -16.1 -17.5 -14.15 L-15.55 -12.1 Q-13.9 0.35 -27.5 7.55 L-30.65 8.65 Q-41.1 11.55 -49.1 9.45 -47.9 12.25 -42.4 15.4 -50.05 16.05 -57.2 17.9 L-59.0 18.4 -56.45 21.75 -54.2 20.35 -50.9 22.85 Q-44.9 26.55 -43.8 25.7 L-43.05 20.05 -39.25 19.3 -37.6 22.5 Q-33.15 28.0 -32.6 26.05 L-28.05 19.25 -21.75 18.6 -20.4 20.95 Q-17.3 28.2 -16.05 26.6 L-11.65 20.25 -7.6 20.15 -6.25 24.35 Q-4.3 30.05 -2.8 27.75 L1.2 22.75 5.4 23.0 7.05 28.0 Q7.2 30.25 8.55 28.95 L13.85 24.2 17.4 25.45 Q20.55 23.8 22.0 21.4 L17.95 20.3 Q11.1 18.55 4.0 17.25 L-8.35 15.25 -22.4 13.75 -20.4 13.05 Q-14.85 12.7 -14.55 13.85 L-12.95 13.85 Q-9.5 12.9 -7.45 11.0 -5.65 9.25 -4.9 6.8 -5.25 4.7 -6.0 2.55 19.9 6.1 33.4 13.5 38.7 13.05 34.15 15.45 39.55 18.25 32.0 18.55 27.6 24.55 20.6 29.9 M34.05 3.65 Q54.65 4.65 59.9 -4.5 62.85 -13.45 54.8 -21.55 42.75 -29.9 25.4 -19.15 21.9 -17.05 21.5 -12.85 28.3 -5.4 34.05 3.65 L35.15 5.5 34.05 3.65 M-10.1 -29.15 L-18.45 -24.8 -10.1 -29.15" fill="#61af97" fill-rule="evenodd" stroke="none"/>
    <path d="M38.5 11.35 Q47.35 13.3 37.2 15.95 43.8 19.25 33.5 20.2 28.35 25.65 20.6 29.9 27.6 24.55 32.0 18.55 39.55 18.25 34.15 15.45 38.7 13.05 33.4 13.5 19.9 6.1 -6.0 2.55 L-6.8 0.65 Q10.55 2.9 16.7 1.65 31.9 5.9 37.2 11.1 L38.5 11.35 M-55.45 28.2 L-57.25 28.15 Q-61.0 25.35 -64.35 22.0 -71.5 25.15 -66.5 17.45 -72.75 16.45 -65.0 12.8 -62.7 9.7 -60.05 6.75 -53.6 0.75 -47.15 -0.15 -46.35 0.65 -43.85 0.5 L-46.1 3.5 Q-55.65 6.25 -62.9 12.9 -67.95 15.95 -61.8 15.8 -69.25 22.0 -61.8 20.05 -61.0 23.05 -55.45 28.2" fill="#a5dac6" fill-rule="evenodd" stroke="none"/>
    <path d="M13.35 -35.7 L13.4 -34.65 M-3.4 -32.35 Q-7.15 -29.45 -5.55 -28.95 -4.15 -28.5 1.2 -29.85 L2.0 -29.85 Q-0.55 -21.75 6.45 -29.8 3.7 -22.9 10.0 -27.45 3.8 -21.65 12.1 -24.7 M21.5 -12.85 Q28.3 -5.4 34.05 3.65 L35.15 5.5 M38.5 11.35 L37.2 11.1 M-18.45 -24.8 L-10.1 -29.15 M-5.35 -4.0 Q0.4 -7.8 11.3 -7.7 3.6 -9.6 -7.35 -4.55 L-5.35 -4.0 M-18.45 -24.8 Q-34.15 -16.25 -46.0 -6.6" ffdec:has-small-stroke="true" ffdec:original-stroke-width="0.5" fill="none" stroke="#000000" stroke-linecap="round" stroke-linejoin="round" stroke-opacity="0.4117647" stroke-width="1.0"/>
    <path d="M16.7 1.65 Q10.55 2.9 -6.8 0.65 M16.7 1.65 Q20.95 0.75 19.8 -1.85 14.9 -12.7 -4.6 -22.2 -13.5 -23.85 -18.2 -18.1 -18.1 -21.15 -19.45 -21.35 -26.8 -20.95 -45.75 -4.9 -48.45 -1.4 -47.15 -0.15 -46.35 0.65 -43.85 0.5" fill="none" stroke="#f97f50" stroke-linecap="round" stroke-linejoin="round" stroke-opacity="0.25882354" stroke-width="1.0"/>
    <path d="M12.1 -24.7 Q16.85 -27.3 17.2 -32.15 17.95 -35.9 15.55 -40.45 12.8 -44.1 13.35 -35.7 10.35 -45.85 8.75 -38.4 1.55 -47.85 4.7 -37.0 -14.15 -42.3 -1.2 -33.95 -12.2 -35.95 -3.4 -32.35 L-10.1 -29.15 Q-10.05 -34.15 -18.95 -39.1 -22.15 -47.1 -24.7 -39.1 -30.15 -39.7 -28.05 -35.85 -41.75 -29.3 -51.35 -20.25 -57.7 -18.15 -51.35 -17.05 -52.1 -11.0 -48.0 -7.85 -47.15 -7.15 -46.0 -6.6 -53.85 -0.2 -60.05 6.75 -62.7 9.7 -65.0 12.8 -72.75 16.45 -66.5 17.45 -71.5 25.15 -64.35 22.0 -61.0 25.35 -57.25 28.15 M12.1 -24.7 L14.95 -26.0 Q34.1 -34.5 55.4 -37.2 64.55 -41.5 59.95 -34.9 67.55 -30.25 59.2 -30.6 66.25 -21.1 65.45 -10.1 64.15 -2.85 58.25 0.55 46.7 9.5 35.15 5.5 L38.5 11.35 Q47.35 13.3 37.2 15.95 43.8 19.25 33.5 20.2 28.35 25.65 20.6 29.9 L17.05 31.7 9.7 34.75 8.95 35.05 M-41.1 36.45 Q-46.35 34.7 -51.0 32.1" ffdec:has-small-stroke="true" ffdec:original-stroke-width="0.05" fill="none" stroke="#000000" stroke-linecap="round" stroke-linejoin="round" stroke-opacity="0.6313726" stroke-width="1.0"/>
    <path d="M6.95 35.95 Q4.85 39.55 0.25 40.3 L-1.4 40.6 -8.05 41.5 -17.6 41.8 -19.9 41.65 Q-25.4 41.65 -26.1 39.8 -34.1 38.85 -41.1 36.45 M-51.0 32.1 L-51.3 31.8 -55.45 28.2 -57.25 28.15" ffdec:has-small-stroke="true" ffdec:original-stroke-width="0.05" fill="none" stroke="#000000" stroke-linecap="round" stroke-linejoin="round" stroke-opacity="0.49803922" stroke-width="1.0"/>
    <path d="M8.95 35.05 Q8.1 35.35 6.95 35.95 M-6.8 0.65 L-6.0 2.55 Q-5.25 4.7 -4.9 6.8 -5.65 9.25 -7.45 11.0 -9.5 12.9 -12.95 13.85 L-14.55 13.85 Q-14.85 12.7 -20.4 13.05 L-22.4 13.75 M-59.0 18.4 L-57.2 17.9 M-42.4 15.4 Q-47.9 12.25 -49.1 9.45 -48.0 6.4 -46.1 3.5 L-43.85 0.5 -40.8 -2.85 -43.95 -4.65 Q-40.25 -3.8 -40.35 -3.3 -31.7 -10.5 -21.95 -15.2 -18.6 -16.1 -17.5 -14.15 L-15.55 -12.1 Q-9.5 -5.45 -6.8 0.65 M-40.8 -2.85 L-40.35 -3.3" ffdec:has-small-stroke="true" ffdec:original-stroke-width="0.05" fill="none" stroke="#000000" stroke-linecap="round" stroke-linejoin="round" stroke-opacity="0.4117647" stroke-width="1.0"/>
    <path d="M-22.4 13.75 L-8.35 15.25 4.0 17.25 Q11.1 18.55 17.95 20.3 L22.0 21.4 Q20.55 23.8 17.4 25.45 M13.85 24.2 L8.55 28.95 Q7.2 30.25 7.05 28.0 L5.4 23.0 3.95 20.1 3.95 19.4 3.55 20.55 1.2 22.75 -2.8 27.75 Q-4.3 30.05 -6.25 24.35 L-7.6 20.15 -8.05 18.4 -8.35 15.3 -10.35 18.2 -11.65 20.25 -16.05 26.6 Q-17.3 28.2 -20.4 20.95 L-21.75 18.6 -22.5 16.5 -23.8 14.8 -26.15 16.9 -28.05 19.25 -32.6 26.05 Q-33.15 28.0 -37.6 22.5 L-39.25 19.3 -40.45 17.65 -41.4 15.95 -41.95 15.65 -42.6 17.7 -43.05 20.05 -43.8 25.7 Q-44.9 26.55 -50.9 22.85 L-54.2 20.35 -55.6 20.15 -57.2 17.9 Q-50.05 16.05 -42.4 15.4 L-41.95 15.65 M-56.45 21.75 L-59.0 18.4 M15.2 22.9 L17.95 20.3 M4.0 17.25 L3.95 19.4 M13.85 24.2 L15.2 22.9 M-8.35 15.3 L-8.35 15.25 M-23.85 14.2 L-23.8 14.8 M-41.4 15.95 Q-32.65 16.8 -23.85 14.2 L-22.4 13.75" ffdec:has-small-stroke="true" ffdec:original-stroke-width="0.05" fill="none" stroke="#000000" stroke-linecap="round" stroke-linejoin="round" stroke-opacity="0.4117647" stroke-width="1.0"/>
  </g>
</svg>
