<?xml version="1.0" encoding="UTF-8" standalone="no"?>
<svg xmlns:ffdec="https://www.free-decompiler.com/flash" xmlns:xlink="http://www.w3.org/1999/xlink" ffdec:objectType="shape" height="17.15px" width="16.1px" xmlns="http://www.w3.org/2000/svg">
  <g transform="matrix(1.0, 0.0, 0.0, 1.0, 0.0, 0.0)">
    <path d="M10.05 9.2 L10.0 9.0 10.05 8.95 Q10.45 7.75 11.45 7.75 12.35 7.7 12.9 8.45 L12.9 8.5 13.05 8.85 10.05 9.2 M11.5 8.85 Q11.35 8.25 10.9 8.6 11.35 8.25 11.5 8.85 M12.35 8.55 Q12.05 8.4 12.05 8.8 12.05 8.4 12.35 8.55 M13.15 12.5 L12.35 11.4 11.8 11.05 11.25 10.95 12.1 10.35 Q13.45 10.85 14.55 12.5 14.1 12.75 13.15 12.5 M9.45 10.8 Q9.3 12.0 8.8 12.9 L8.3 13.4 8.2 13.55 Q7.5 14.3 6.65 14.6 L5.9 14.8 Q6.25 15.55 7.1 15.95 L9.05 16.35 Q8.75 16.95 7.75 17.15 6.2 17.2 5.25 16.2 4.85 15.55 5.25 15.05 L5.9 14.75 5.8 14.7 5.6 14.1 5.6 13.85 Q4.55 14.4 4.0 14.15 5.05 12.05 6.35 11.15 L6.55 11.05 6.45 11.0 6.75 10.5 9.45 10.8 M11.55 15.8 L12.55 15.25 13.1 14.6 13.3 13.95 13.75 14.3 Q14.25 15.45 13.4 16.05 12.5 16.45 11.55 15.8 M7.75 11.9 L5.6 13.85 7.75 11.9 M5.9 14.75 L5.9 14.8 5.9 14.75" fill="#a5dac6" fill-rule="evenodd" stroke="none"/>
    <path d="M11.25 10.95 L11.8 11.05 12.35 11.4 13.15 12.5 13.4 13.4 13.3 13.95 13.1 14.6 12.55 15.25 11.55 15.8 10.25 16.25 9.05 16.35 7.1 15.95 Q6.25 15.55 5.9 14.8 L6.65 14.6 Q7.5 14.3 8.2 13.55 L8.3 13.4 8.8 12.9 Q9.3 12.0 9.45 10.8 L11.25 10.95" fill="#366d61" fill-rule="evenodd" stroke="none"/>
    <path d="M14.55 12.5 Q13.45 10.85 12.1 10.35 L12.6 10.05 Q13.85 10.4 15.0 11.9 L14.55 12.5 M6.45 11.0 L6.55 11.05 6.35 11.15 Q5.05 12.05 4.0 14.15 L3.5 13.5 Q4.65 11.45 5.95 10.75 L6.45 11.0" fill="#8dc7b5" fill-rule="evenodd" stroke="none"/>
    <path d="M5.35 8.6 L5.3 8.65 5.25 8.5 5.35 8.6" fill="#ad9c38" fill-rule="evenodd" stroke="none"/>
    <path d="M8.9 4.6 L9.05 4.25 M10.05 9.2 L10.0 9.0 10.05 8.95 Q10.45 7.75 11.45 7.75 12.35 7.7 12.9 8.45 L12.9 8.5 13.05 8.85 M12.05 8.8 Q12.05 8.4 12.35 8.55 M10.9 8.6 Q11.35 8.25 11.5 8.85 M11.25 10.95 L11.8 11.05 12.35 11.4 13.15 12.5 Q14.1 12.75 14.55 12.5 L15.0 11.9 Q13.85 10.4 12.6 10.05 M11.25 10.95 L9.45 10.8 Q9.3 12.0 8.8 12.9 L8.3 13.4 8.2 13.55 Q7.5 14.3 6.65 14.6 L5.9 14.8 Q6.25 15.55 7.1 15.95 L9.05 16.35 10.25 16.25 11.55 15.8 12.55 15.25 13.1 14.6 13.3 13.95 13.4 13.4 13.15 12.5 M13.3 13.95 L13.75 14.3 Q14.25 15.45 13.4 16.05 12.5 16.45 11.55 15.8 M5.95 10.75 Q4.65 11.45 3.5 13.5 L4.0 14.15 Q4.55 14.4 5.6 13.85 L7.75 11.9 M6.45 11.0 L6.75 10.5 9.45 10.8 M9.05 16.35 Q8.75 16.95 7.75 17.15 6.2 17.2 5.25 16.2 4.85 15.55 5.25 15.05 L5.9 14.75 5.8 14.7 5.6 14.1 5.6 13.85 M5.9 14.8 L5.9 14.75" ffdec:has-small-stroke="true" ffdec:original-stroke-width="0.05" fill="none" stroke="#000000" stroke-linecap="round" stroke-linejoin="round" stroke-opacity="0.3019608" stroke-width="1.0"/>
    <path d="M5.9 12.2 L6.7 10.45 11.75 11.0 12.3 11.4 13.15 12.5 Q11.65 13.95 8.85 13.65 L8.35 13.55 Q6.6 13.2 5.9 12.2" fill="#000000" fill-opacity="0.3019608" fill-rule="evenodd" stroke="none"/>
    <path d="M13.2 8.2 Q13.45 7.05 13.85 6.1 L14.4 5.1 14.4 5.75 14.85 6.45 14.95 7.15 14.6 7.9 13.7 8.6 13.2 8.2 M14.65 7.1 Q14.65 6.35 13.85 6.1 14.65 6.35 14.65 7.1" fill="#8dc7b5" fill-rule="evenodd" stroke="none"/>
    <path d="M13.2 8.2 Q12.5 7.4 13.05 6.05 14.65 3.55 15.9 3.0 L15.85 5.0 15.15 5.2 Q16.2 6.15 16.1 7.05 15.85 7.95 15.25 8.3 L13.9 8.7 13.7 8.6 14.6 7.9 14.95 7.15 14.85 6.45 14.4 5.75 14.4 5.1 13.85 6.1 Q13.45 7.05 13.2 8.2" fill="#a5dac6" fill-rule="evenodd" stroke="none"/>
    <path d="M13.7 8.6 L13.9 8.7 15.25 8.3 Q15.85 7.95 16.1 7.05 16.2 6.15 15.15 5.2 L15.85 5.0 15.9 3.0 Q14.65 3.55 13.05 6.05 12.5 7.4 13.2 8.2 13.45 7.05 13.85 6.1 L14.4 5.1 M13.7 8.6 L13.2 8.2 M13.85 6.1 Q14.65 6.35 14.65 7.1" ffdec:has-small-stroke="true" ffdec:original-stroke-width="0.05" fill="none" stroke="#000000" stroke-linecap="round" stroke-linejoin="round" stroke-opacity="0.3019608" stroke-width="1.0"/>
    <path d="M8.2 5.0 Q9.45 4.6 11.0 5.0 12.4 5.55 13.2 7.55 L13.15 8.0 Q14.6 8.35 14.55 10.25 13.25 12.6 10.3 12.7 L8.65 12.7 Q9.2 11.8 8.9 9.9 L8.3 9.1 Q8.0 7.4 8.2 5.0" fill="#a5dac6" fill-rule="evenodd" stroke="none"/>
    <path d="M8.65 12.7 L6.4 12.35 Q4.25 11.3 4.1 9.9 4.35 8.3 5.7 8.0 5.4 7.25 5.8 6.5 6.3 5.25 7.85 5.1 L8.2 5.0 Q8.0 7.4 8.3 9.1 L8.9 9.9 Q9.2 11.8 8.65 12.7" fill="#8dc7b5" fill-rule="evenodd" stroke="none"/>
    <path d="M8.2 5.0 Q9.45 4.6 11.0 5.0 12.4 5.55 13.2 7.55 L13.15 8.0 Q14.6 8.35 14.55 10.25 13.25 12.6 10.3 12.7 L8.65 12.7 6.4 12.35 Q4.25 11.3 4.1 9.9 4.35 8.3 5.7 8.0 5.4 7.25 5.8 6.5 6.3 5.25 7.85 5.1 L8.2 5.0 Z" ffdec:has-small-stroke="true" ffdec:original-stroke-width="0.05" fill="none" stroke="#000000" stroke-linecap="round" stroke-linejoin="round" stroke-opacity="0.3019608" stroke-width="1.0"/>
    <path d="M5.6 9.05 L3.95 8.9 Q3.15 8.7 2.8 7.9 L2.8 7.2 2.6 6.55 4.55 7.25 5.7 8.35 5.6 9.05 M3.6 7.75 Q3.65 7.15 4.55 7.25 3.65 7.15 3.6 7.75" fill="#8dc7b5" fill-rule="evenodd" stroke="none"/>
    <path d="M2.6 6.55 L2.8 7.2 2.8 7.9 Q3.15 8.7 3.95 8.9 L5.6 9.05 5.5 9.65 3.25 9.65 Q2.35 9.5 1.9 8.55 L2.2 7.45 1.35 7.9 1.3 7.9 Q0.3 6.85 0.0 5.7 3.5 5.05 5.95 6.95 L5.7 8.35 4.55 7.25 2.6 6.55" fill="#a5dac6" fill-rule="evenodd" stroke="none"/>
    <path d="M2.6 6.55 L4.55 7.25 5.7 8.35 M5.95 6.95 Q3.5 5.05 0.0 5.7 0.3 6.85 1.3 7.9 L1.35 7.9 2.2 7.45 1.9 8.55 Q2.35 9.5 3.25 9.65 L5.5 9.65 M4.55 7.25 Q3.65 7.15 3.6 7.75" ffdec:has-small-stroke="true" ffdec:original-stroke-width="0.05" fill="none" stroke="#000000" stroke-linecap="round" stroke-linejoin="round" stroke-opacity="0.3019608" stroke-width="1.0"/>
    <path d="M12.9 9.6 L13.35 7.85 Q13.8 8.45 14.0 9.65 L12.9 9.6" fill="#ffffff" fill-rule="evenodd" stroke="none"/>
    <path d="M14.0 9.65 L14.05 9.65 14.15 9.75 14.0 9.65" fill="#000000" fill-opacity="0.49803922" fill-rule="evenodd" stroke="none"/>
    <path d="M6.6 10.95 L6.5 10.9 Q6.45 10.55 6.75 10.25 L12.9 9.6 13.35 7.85 Q13.8 8.45 14.0 9.65 L14.05 9.65 M14.15 9.75 L14.3 10.1 M14.0 9.65 L14.15 9.75 M12.9 9.6 L14.0 9.65" ffdec:has-small-stroke="true" ffdec:original-stroke-width="0.05" fill="none" stroke="#000000" stroke-linecap="round" stroke-linejoin="round" stroke-opacity="0.3019608" stroke-width="1.0"/>
    <path d="M12.5 0.05 L12.5 0.0 12.55 0.05 12.5 0.05" fill="#f2f2f4" fill-rule="evenodd" stroke="none"/>
    <path d="M12.5 0.05 L12.55 0.05 13.2 3.2 13.35 5.8 11.8 5.85 Q10.65 4.9 10.25 3.4 L10.2 3.4 Q10.85 2.75 11.85 2.8 L12.25 2.85 Q12.7 1.8 12.5 0.05 M12.6 3.05 L12.25 2.85 12.6 3.05" fill="#c9e9dc" fill-rule="evenodd" stroke="none"/>
    <path d="M12.55 0.05 L14.8 4.05 Q14.9 4.85 14.25 5.4 L13.35 5.8 13.2 3.2 12.55 0.05" fill="#e3f3ed" fill-rule="evenodd" stroke="none"/>
    <path d="M12.55 0.05 L12.5 0.0 12.5 0.05 Q12.7 1.8 12.25 2.85 L12.6 3.05 M12.55 0.05 L14.8 4.05 Q14.9 4.85 14.25 5.4 L13.35 5.8 11.8 5.85 Q10.65 4.9 10.25 3.4 L10.2 3.4 Q10.85 2.75 11.85 2.8 L12.25 2.85" ffdec:has-small-stroke="true" ffdec:original-stroke-width="0.05" fill="none" stroke="#000000" stroke-linecap="round" stroke-linejoin="round" stroke-opacity="0.3019608" stroke-width="1.0"/>
    <path d="M5.1 5.6 L5.1 5.8 5.05 5.6 5.1 5.6" fill="#f7e3a2" fill-rule="evenodd" stroke="none"/>
    <path d="M5.05 5.6 L5.1 5.6 5.05 5.6" fill="#696679" fill-rule="evenodd" stroke="none"/>
    <path d="M8.65 6.8 L8.55 6.35 Q8.4 5.05 9.2 2.9 L10.9 3.15 Q12.45 3.85 13.5 5.75 L13.5 6.15 12.15 6.65 9.2 6.85 8.65 6.8" fill="#366d61" fill-rule="evenodd" stroke="none"/>
    <path d="M5.05 5.6 L5.05 4.75 Q5.85 3.85 7.2 3.25 L9.2 2.9 Q8.4 5.05 8.55 6.35 L8.65 6.8 8.55 6.8 5.15 5.95 5.1 5.8 5.1 5.6 5.05 5.6" fill="#254b43" fill-rule="evenodd" stroke="none"/>
    <path d="M8.55 6.8 L8.65 6.8 9.2 6.85 12.15 6.65 13.5 6.15 13.5 5.75 13.5 5.6 13.85 5.65 14.3 7.0 14.05 7.55 Q13.15 8.3 11.35 8.6 L8.5 8.6 Q8.3 8.1 8.55 6.8" fill="#e3f3ed" fill-rule="evenodd" stroke="none"/>
    <path d="M5.1 5.8 L5.15 5.95 8.55 6.8 Q8.3 8.1 8.5 8.6 L8.4 8.6 5.8 8.2 4.65 7.7 4.55 7.0 4.65 5.7 5.05 5.6 5.1 5.8 M5.15 5.95 L4.85 5.9 5.15 5.95" fill="#c9e9dc" fill-rule="evenodd" stroke="none"/>
    <path d="M5.1 5.6 L5.1 5.8 5.15 5.95 8.55 6.8 8.65 6.8 9.2 6.85 12.15 6.65 13.5 6.15 13.5 5.75 13.5 5.6 13.85 5.65 14.3 7.0 14.05 7.55 Q13.15 8.3 11.35 8.6 L8.5 8.6 8.4 8.6 5.8 8.2 4.65 7.7 4.55 7.0 4.65 5.7 5.05 5.6 5.1 5.6 M4.85 5.9 L5.15 5.95" ffdec:has-small-stroke="true" ffdec:original-stroke-width="0.05" fill="none" stroke="#000000" stroke-linecap="round" stroke-linejoin="round" stroke-opacity="0.3019608" stroke-width="1.0"/>
    <path d="M9.2 2.9 L7.2 3.25 Q5.85 3.85 5.05 4.75 L5.05 5.6 5.1 5.8 M9.2 2.9 L10.9 3.15 Q12.45 3.85 13.5 5.75" ffdec:has-small-stroke="true" ffdec:original-stroke-width="0.05" fill="none" stroke="#000000" stroke-linecap="round" stroke-linejoin="round" stroke-opacity="0.3019608" stroke-width="1.0"/>
    <path d="M10.4 1.5 L10.95 1.9 Q11.5 2.4 11.5 3.15 11.5 3.85 10.95 4.4 10.5 4.8 9.9 4.9 L10.25 4.55 Q10.85 3.9 10.85 2.95 10.85 2.1 10.4 1.5" fill="#e3f3ed" fill-rule="evenodd" stroke="none"/>
    <path d="M9.9 4.9 L9.7 4.9 Q8.95 4.9 8.4 4.4 7.85 3.85 7.85 3.15 7.85 2.4 8.4 1.9 8.95 1.35 9.7 1.35 L10.4 1.5 Q10.85 2.1 10.85 2.95 10.85 3.9 10.25 4.55 L9.9 4.9" fill="#c9e9dc" fill-rule="evenodd" stroke="none"/>
    <path d="M9.9 4.9 L9.7 4.9 Q8.95 4.9 8.4 4.4 7.85 3.85 7.85 3.15 7.85 2.4 8.4 1.9 8.95 1.35 9.7 1.35 L10.4 1.5 10.95 1.9 Q11.5 2.4 11.5 3.15 11.5 3.85 10.95 4.4 10.5 4.8 9.9 4.9 Z" ffdec:has-small-stroke="true" ffdec:original-stroke-width="0.05" fill="none" stroke="#000000" stroke-linecap="round" stroke-linejoin="round" stroke-opacity="0.3019608" stroke-width="1.0"/>
    <path d="M4.0 0.75 L3.7 3.85 Q3.6 4.45 4.2 5.05 L6.8 5.25 6.15 6.2 3.55 6.0 Q2.75 5.55 2.7 4.75 3.2 2.3 4.0 0.5 L4.0 0.75" fill="#c9e9dc" fill-rule="evenodd" stroke="none"/>
    <path d="M4.95 3.3 L5.35 3.2 Q6.35 3.05 7.15 3.6 L7.15 3.65 6.8 5.25 4.2 5.05 Q3.6 4.45 3.7 3.85 L4.0 0.75 Q4.25 2.35 4.95 3.3 L4.65 3.5 4.95 3.3" fill="#e3f3ed" fill-rule="evenodd" stroke="none"/>
    <path d="M6.8 5.25 L7.15 3.65 7.15 3.6 Q6.35 3.05 5.35 3.2 L4.95 3.3 4.65 3.5 M4.95 3.3 Q4.25 2.35 4.0 0.75 L4.0 0.5 Q3.2 2.3 2.7 4.75 2.75 5.55 3.55 6.0 L6.15 6.2 6.8 5.25" ffdec:has-small-stroke="true" ffdec:original-stroke-width="0.05" fill="none" stroke="#000000" stroke-linecap="round" stroke-linejoin="round" stroke-opacity="0.3019608" stroke-width="1.0"/>
  </g>
</svg>
