<?xml version="1.0" encoding="UTF-8" standalone="no"?>
<svg xmlns:ffdec="https://www.free-decompiler.com/flash" xmlns:xlink="http://www.w3.org/1999/xlink" ffdec:objectType="shape" height="19.3px" width="21.25px" xmlns="http://www.w3.org/2000/svg">
  <g transform="matrix(1.0, 0.0, 0.0, 1.0, 0.0, 0.0)">
    <path d="M3.1 8.55 L1.65 8.25 0.25 10.2 0.0 10.35 0.9 7.9 4.75 7.5 6.05 7.4 6.2 7.7 3.8 8.15 2.45 9.75 3.05 11.85 1.65 10.05 2.1 9.15 3.1 8.55 M17.15 2.2 Q16.85 3.5 16.8 4.85 L17.45 5.55 Q16.75 5.1 15.05 5.85 L14.4 6.95 14.35 7.0 13.35 6.2 Q10.7 5.1 9.35 6.25 L9.9 6.35 9.95 6.35 9.9 6.4 9.9 6.45 9.85 6.5 9.45 9.3 9.85 9.95 10.05 10.15 9.35 11.45 8.65 5.3 7.35 7.55 7.2 4.7 7.35 4.4 8.05 3.15 8.15 3.2 12.0 3.5 14.05 3.4 15.45 3.15 16.0 2.95 16.05 2.95 Q17.0 2.6 17.15 2.2 M16.75 7.25 L20.45 7.6 21.25 9.8 21.05 9.65 19.75 7.9 18.4 8.15 19.35 8.7 19.75 9.55 18.5 11.2 19.05 9.3 17.8 7.8 16.75 7.65 16.75 7.55 16.75 7.25 M16.8 8.8 L17.05 10.95 Q15.7 11.8 14.1 12.05 L11.6 12.1 11.35 12.05 10.45 10.45 11.8 10.75 12.95 10.35 13.8 9.65 13.85 9.55 14.1 7.1 14.25 7.1 14.4 7.05 14.4 7.0 14.45 7.05 14.55 7.0 14.7 7.7 14.75 8.2 14.75 8.4 14.8 9.4 Q16.0 12.0 16.75 8.8 L16.8 8.8" fill="#c6e8db" fill-rule="evenodd" stroke="none"/>
    <path d="M0.25 10.2 L1.65 8.25 3.1 8.55 2.1 9.15 1.1 9.55 0.25 10.2 M4.75 7.5 Q4.9 4.65 4.45 1.65 L4.45 1.6 4.65 1.9 6.2 2.7 6.4 2.65 6.9 5.2 7.2 4.7 7.35 7.55 8.65 5.3 9.35 11.45 10.05 10.15 9.85 9.95 9.45 9.3 9.85 6.5 9.9 6.45 9.9 6.4 9.95 6.35 9.9 6.35 9.35 6.25 Q10.7 5.1 13.35 6.2 L14.35 7.0 14.4 7.0 14.4 6.95 15.05 5.85 Q16.75 5.1 17.45 5.55 L17.6 5.7 16.75 6.1 16.75 6.55 16.75 7.15 16.75 7.25 16.75 7.55 16.75 7.65 16.75 8.8 Q16.0 12.0 14.8 9.4 15.8 9.3 16.45 8.7 L16.45 6.2 15.65 6.55 15.1 6.75 14.55 7.0 14.45 7.05 14.4 7.0 14.4 7.05 14.25 7.1 14.1 7.1 13.55 7.0 12.25 6.75 9.95 6.35 10.3 8.85 10.55 8.95 11.0 9.15 13.2 9.6 13.8 9.65 12.95 10.35 11.8 10.75 10.45 10.45 11.35 12.05 11.6 12.1 14.1 12.05 Q15.7 11.8 17.05 10.95 L17.1 11.15 17.1 11.3 Q17.0 11.75 16.0 12.1 L15.95 12.1 15.4 12.3 14.5 12.5 14.4 12.5 11.95 12.65 11.5 12.65 9.45 12.55 8.85 11.4 8.45 10.65 8.15 12.2 8.1 12.3 8.1 12.35 7.9 12.3 7.1 12.1 6.65 12.0 Q4.9 11.5 4.5 10.9 L4.35 10.6 4.35 10.55 4.4 10.45 4.65 8.8 4.0 9.0 3.1 10.15 3.15 11.95 3.05 11.85 2.45 9.75 3.8 8.15 6.2 7.7 6.05 7.4 4.75 7.5 M21.05 9.65 L20.25 9.1 19.35 8.7 18.4 8.15 19.75 7.9 21.05 9.65 M18.5 11.2 L18.45 11.3 18.45 9.65 17.6 8.6 16.8 8.4 16.75 7.65 17.8 7.8 19.05 9.3 18.5 11.2 M15.45 12.95 L17.45 13.35 19.55 15.45 16.9 14.7 17.9 16.95 12.8 15.0 Q12.9 13.85 15.45 12.95 M9.15 14.7 Q10.75 16.45 11.4 18.45 L8.5 17.2 7.6 19.3 6.55 17.6 Q5.65 15.15 9.15 14.7 M4.65 8.8 L6.45 8.3 4.65 8.8" fill="#8cd0b5" fill-rule="evenodd" stroke="none"/>
    <path d="M4.45 1.6 L4.4 1.5 4.4 1.4 Q4.45 0.9 5.45 0.5 6.6 0.1 8.4 0.05 L8.9 0.45 6.3 0.8 Q5.4 1.1 5.45 1.55 L5.55 1.75 Q5.8 2.15 6.85 2.45 L6.8 2.45 6.4 2.65 6.2 2.7 4.65 1.9 4.45 1.6 M9.5 0.05 L9.5 0.0 9.55 0.0 14.3 0.5 15.3 0.8 14.55 1.05 14.5 1.0 13.7 0.8 9.75 0.4 9.7 0.4 9.5 0.05 M15.3 1.15 L15.9 1.0 17.05 1.75 17.15 2.1 17.15 2.2 Q17.0 2.6 16.05 2.95 L16.0 2.95 15.45 3.15 14.05 3.4 12.0 3.5 8.15 3.2 8.15 3.0 8.15 2.75 11.8 3.1 14.65 2.8 15.1 2.65 15.15 2.65 16.05 2.1 16.1 2.05 16.0 1.75 Q15.75 1.45 15.05 1.2 L15.3 1.15" fill="#fcfff1" fill-rule="evenodd" stroke="none"/>
    <path d="M9.0 0.85 L9.3 0.4 9.5 0.05 9.7 0.4 9.65 0.4 9.2 1.6 9.0 0.85 M15.3 0.8 L15.35 0.8 15.3 1.15 15.05 1.2 14.45 2.35 14.5 1.0 14.55 1.05 15.3 0.8 M7.2 4.7 L6.9 5.2 6.4 2.65 6.8 2.45 7.35 4.4 7.2 4.7" fill="#d0f5e6" fill-rule="evenodd" stroke="none"/>
    <path d="M8.9 0.45 L9.0 0.85 9.2 1.6 9.65 0.4 9.7 0.4 9.75 0.4 13.7 0.8 14.5 1.0 14.45 2.35 15.05 1.2 Q15.75 1.45 16.0 1.75 L16.1 2.05 16.05 2.1 15.15 2.65 15.1 2.65 14.65 2.8 11.8 3.1 8.15 2.75 8.15 3.0 8.05 3.15 7.35 4.4 6.8 2.45 6.85 2.45 Q5.8 2.15 5.55 1.75 L5.45 1.55 Q5.4 1.1 6.3 0.8 L8.9 0.45 M14.4 12.5 L14.6 12.8 15.45 12.95 Q12.9 13.85 12.8 15.0 L11.2 14.4 11.5 12.65 11.95 12.65 14.4 12.5 M8.85 11.4 L8.7 11.85 9.05 14.6 9.15 14.7 Q5.65 15.15 6.55 17.6 L5.5 15.85 6.65 12.0 7.1 12.1 7.9 12.3 8.1 12.35 8.1 12.3 8.15 12.2 8.7 11.85 8.15 12.2 8.45 10.65 8.85 11.4" fill="#386154" fill-rule="evenodd" stroke="none"/>
    <path d="M12.25 6.75 L12.15 7.1 12.35 7.6 Q12.55 7.8 12.85 7.8 L13.35 7.6 13.55 7.1 13.55 7.0 14.1 7.1 13.85 9.55 13.2 9.6 11.0 9.15 10.55 8.95 10.3 8.85 9.95 6.35 12.25 6.75 M14.55 7.0 L15.1 6.75 15.05 6.95 15.15 7.35 15.4 7.55 15.55 7.5 15.6 7.45 15.65 7.35 15.75 7.15 15.75 6.95 15.65 6.55 16.45 6.2 16.45 8.7 Q15.8 9.3 14.8 9.4 L14.75 8.4 14.75 8.2 14.7 7.7 14.55 7.0" fill="#ffffff" fill-rule="evenodd" stroke="none"/>
    <path d="M13.55 7.0 L13.55 7.1 13.35 7.6 12.85 7.8 Q12.55 7.8 12.35 7.6 L12.15 7.1 12.25 6.75 13.55 7.0 M15.1 6.75 L15.65 6.55 15.75 6.95 15.75 7.15 15.65 7.35 15.6 7.45 15.55 7.5 15.4 7.55 15.15 7.35 15.05 6.95 15.1 6.75" fill="#000000" fill-rule="evenodd" stroke="none"/>
    <path d="M16.8 8.4 L16.8 8.8 16.75 8.8 16.75 7.65 16.75 7.55 16.75 7.65 16.8 8.4 M14.4 6.95 L14.4 7.0 14.35 7.0 14.4 6.95" fill="#b57e2d" fill-rule="evenodd" stroke="none"/>
    <path d="M4.45 1.65 L4.45 1.6 4.45 1.65 M9.75 0.4 L9.7 0.4 9.75 0.4" fill="#e0bc74" fill-rule="evenodd" stroke="none"/>
    <path d="M0.25 10.2 L1.1 9.55 2.1 9.15 3.1 8.55 M3.05 11.85 L1.65 10.05 2.1 9.15 M0.25 10.2 L0.0 10.35 0.9 7.9 4.75 7.5 Q4.9 4.65 4.45 1.65 L4.45 1.6 4.4 1.5 4.4 1.4 Q4.45 0.9 5.45 0.5 6.6 0.1 8.4 0.05 L8.9 0.45 M9.0 0.85 L9.3 0.4 9.5 0.05 9.5 0.0 9.55 0.0 14.3 0.5 15.3 0.8 15.35 0.8 15.3 1.15 15.9 1.0 17.05 1.75 17.15 2.1 17.15 2.2 Q16.85 3.5 16.8 4.85 L17.45 5.55 17.6 5.7 16.75 6.1 16.75 6.55 16.75 7.15 16.75 7.25 20.45 7.6 21.25 9.8 21.05 9.65 M19.35 8.7 L19.75 9.55 18.5 11.2 18.45 11.3 18.45 9.65 17.6 8.6 16.8 8.4 16.8 8.8 17.05 10.95 17.1 11.15 17.1 11.3 Q17.0 11.75 16.0 12.1 L15.95 12.1 15.4 12.3 14.5 12.5 14.4 12.5 14.6 12.8 15.45 12.95 17.45 13.35 19.55 15.45 16.9 14.7 17.9 16.95 12.8 15.0 11.2 14.4 11.5 12.65 9.45 12.55 8.85 11.4 8.7 11.85 9.05 14.6 9.15 14.7 Q10.75 16.45 11.4 18.45 L8.5 17.2 7.6 19.3 6.55 17.6 5.5 15.85 6.65 12.0 Q4.9 11.5 4.5 10.9 L4.35 10.6 4.35 10.55 4.4 10.45 4.65 8.8 4.0 9.0 3.1 10.15 3.15 11.95 3.05 11.85 M6.05 7.4 L4.75 7.5 M16.75 7.55 L16.75 7.25 M16.75 7.55 L16.75 7.65 16.8 8.4 M8.15 12.2 L8.1 12.3 8.1 12.35 7.9 12.3 7.1 12.1 6.65 12.0 M8.7 11.85 L8.15 12.2 M14.4 12.5 L11.95 12.65 11.5 12.65 M6.45 8.3 L4.65 8.8" ffdec:has-small-stroke="true" ffdec:original-stroke-width="0.05" fill="none" stroke="#000000" stroke-linecap="round" stroke-linejoin="round" stroke-opacity="0.3019608" stroke-width="1.0"/>
  </g>
</svg>
