<?xml version="1.0" encoding="UTF-8" standalone="no"?>
<svg xmlns:ffdec="https://www.free-decompiler.com/flash" xmlns:xlink="http://www.w3.org/1999/xlink" ffdec:objectType="shape" height="24.3px" width="28.6px" xmlns="http://www.w3.org/2000/svg">
  <g transform="matrix(1.0, 0.0, 0.0, 1.0, 13.35, 12.15)">
    <path d="M-2.7 -5.6 L-2.7 -5.55 -2.75 -5.6 -2.7 -5.6" fill="#ffff99" fill-rule="evenodd" stroke="none"/>
    <path d="M-2.95 1.5 L-3.05 1.5 -1.45 0.65 -1.45 0.75 -2.95 1.5" fill="#e09714" fill-rule="evenodd" stroke="none"/>
    <path d="M13.35 -4.1 L14.55 0.8 Q15.35 2.6 13.25 6.1 8.75 10.6 4.3 11.15 L2.55 11.45 -0.1 6.6 0.7 -0.7 4.75 -3.75 8.6 -4.65 13.35 -4.1" fill="#8dc7b5" fill-rule="evenodd" stroke="none"/>
    <path d="M-11.3 -3.05 L-10.7 -4.8 -6.9 -9.3 -2.05 -11.5 1.9 -11.65 7.75 -9.6 11.1 -6.45 6.9 -8.15 3.1 -6.25 2.55 -5.4 -1.65 -1.35 Q-3.05 2.15 -7.35 -0.1 L-10.0 -1.45 -11.3 -3.05 M-2.7 -5.55 L0.15 -4.25 1.25 -5.65 1.3 -5.7 -0.3 -7.5 -2.25 -7.0 -2.7 -5.6 -2.75 -5.6 -2.7 -5.55" fill="#c6e8db" fill-rule="evenodd" stroke="none"/>
    <path d="M-2.7 -5.6 L-2.25 -7.0 -0.3 -7.5 1.3 -5.7 1.25 -5.65 0.15 -4.25 -2.7 -5.55 -2.7 -5.6" fill="#fcfff1" fill-rule="evenodd" stroke="none"/>
    <path d="M-11.3 -3.05 L-10.0 -1.45 -7.35 -0.1 Q-3.05 2.15 -1.65 -1.35 L2.55 -5.4 3.1 -6.25 6.9 -8.15 11.1 -6.45 11.6 -6.05 13.35 -4.1 8.6 -4.65 4.75 -3.75 0.7 -0.7 -0.1 6.6 2.55 11.45 -4.15 11.65 -3.5 11.55 -4.05 11.4 Q-1.6 10.5 -2.0 5.5 L-3.5 3.35 Q-6.1 0.85 -7.55 0.95 L-9.25 0.35 -11.1 0.6 -11.2 0.75 -12.7 2.25 -12.85 1.2 -11.3 -3.05 M-2.95 1.5 L-1.45 0.75 -1.45 0.65 -3.05 1.5 -2.95 1.5" fill="#366d61" fill-rule="evenodd" stroke="none"/>
    <path d="M-4.05 11.4 L-4.45 11.3 -6.7 5.85 -8.95 4.45 -10.95 3.8 -12.85 5.7 -12.7 2.25 -11.2 0.75 -11.1 0.6 -9.25 0.35 -7.55 0.95 Q-6.1 0.85 -3.5 3.35 L-2.0 5.5 Q-1.6 10.5 -4.05 11.4" fill="#a5dac6" fill-rule="evenodd" stroke="none"/>
    <path d="M-4.45 11.3 Q-9.45 9.85 -12.65 7.1 L-12.85 5.7 -10.95 3.8 -8.95 4.45 -6.7 5.85 -4.45 11.3" fill="#21433c" fill-rule="evenodd" stroke="none"/>
    <path d="M11.1 -6.45 L7.75 -9.6 1.9 -11.65 -2.05 -11.5 -6.9 -9.3 -10.7 -4.8 -11.3 -3.05 -12.85 1.2 -12.7 2.25 -12.85 5.7 -12.65 7.1 Q-9.45 9.85 -4.45 11.3 L-4.05 11.4 -3.5 11.55 -4.15 11.65 2.55 11.45 4.3 11.15 Q8.75 10.6 13.25 6.1 15.35 2.6 14.55 0.8 L13.35 -4.1 11.6 -6.05 11.1 -6.45 11.3 -6.35 11.6 -6.05" fill="none" stroke="#000000" stroke-linecap="round" stroke-linejoin="round" stroke-opacity="0.4" stroke-width="1.0"/>
  </g>
</svg>
