<?xml version="1.0" encoding="UTF-8" standalone="no"?>
<svg xmlns:ffdec="https://www.free-decompiler.com/flash" xmlns:xlink="http://www.w3.org/1999/xlink" ffdec:objectType="shape" height="37.75px" width="37.35px" xmlns="http://www.w3.org/2000/svg">
  <g transform="matrix(1.0, 0.0, 0.0, 1.0, 26.7, 17.45)">
    <path d="M-6.6 6.95 L-6.55 6.9 -6.55 6.95 -6.6 6.95 M-16.6 3.2 L-16.55 3.15 -16.6 3.2" fill="#fbf8ea" fill-rule="evenodd" stroke="none"/>
    <path d="M2.7 -4.85 L2.6 -4.85 2.65 -4.85 2.7 -4.85" fill="#000000" fill-rule="evenodd" stroke="none"/>
    <path d="M6.0 3.25 L5.95 3.35 5.95 3.3 6.0 3.25" fill="#c9b87e" fill-rule="evenodd" stroke="none"/>
    <path d="M-5.55 16.25 L-5.55 16.45 -8.1 16.35 -8.1 16.3 -5.55 16.25" fill="#273538" fill-rule="evenodd" stroke="none"/>
    <path d="M7.75 -15.25 L7.7 -13.9 Q7.7 -12.95 6.3 -10.1 4.65 -6.85 2.7 -4.85 L2.65 -4.85 Q3.55 -5.95 4.0 -8.7 L4.2 -9.7 7.75 -15.25 M1.5 -8.1 Q0.8 -5.45 -3.2 -3.3 L-1.35 -5.9 -0.65 -7.1 1.5 -8.1 M-10.0 -5.4 L-8.3 -4.35 -8.7 -4.25 Q-9.4 -4.25 -10.75 -4.95 L-10.0 -5.4 M-11.7 -4.25 Q-11.1 -3.7 -9.9 -3.1 -8.2 -2.25 -6.9 -1.95 L-8.9 -2.1 -12.55 -4.15 -12.0 -4.05 -11.7 -4.25 M-19.3 -3.65 Q-17.8 -2.65 -16.25 -1.95 -17.0 -2.1 -20.0 -3.45 L-19.3 -3.65 M-16.55 3.15 Q-16.5 2.85 -16.1 2.85 L-11.8 1.65 -10.8 2.0 Q-12.5 2.0 -15.9 4.6 L-16.9 5.45 -18.25 6.7 -19.65 5.75 -19.25 5.05 -18.75 4.55 Q-18.9 4.35 -18.5 4.35 L-16.6 3.2 -16.55 3.15 M1.7 3.25 Q-1.1 0.85 -4.8 -0.75 L-4.75 -0.9 -2.7 -0.45 Q-1.1 -0.45 2.0 1.45 L2.5 1.75 Q4.65 3.1 5.55 4.2 5.15 5.25 5.0 6.9 3.55 4.9 1.7 3.25 M6.55 0.9 L6.45 1.0 Q6.6 2.25 6.0 3.25 L5.95 3.3 Q4.8 1.05 3.2 -1.1 3.3 -1.25 3.45 -1.2 L6.5 0.85 6.55 0.9 M7.5 12.75 L4.35 14.95 2.15 13.7 3.05 13.1 4.85 13.2 7.5 12.75 M-18.65 13.4 L-21.0 11.5 -21.3 10.45 -19.7 10.65 -18.0 11.6 -15.4 12.45 -15.3 12.6 Q-15.75 12.75 -16.15 13.05 L-18.65 13.4" fill="#366d61" fill-rule="evenodd" stroke="none"/>
    <path d="M7.75 -15.25 L9.15 -17.45 9.2 -14.4 6.85 -4.75 2.15 -2.05 2.55 -1.65 2.0 1.45 Q-1.1 -0.45 -2.7 -0.45 L-4.75 -0.9 -4.8 -0.75 Q-1.1 0.85 1.7 3.25 L1.5 4.2 0.8 3.4 Q-4.15 2.1 -5.9 6.55 L-6.55 6.9 -5.9 6.55 Q-4.15 2.1 0.8 3.4 L1.5 4.2 Q3.2 6.25 3.9 8.65 2.4 6.75 0.1 6.2 L-1.2 6.0 Q-3.95 6.05 -5.7 8.15 L-6.25 8.9 -6.3 9.55 Q-7.15 7.6 -9.2 6.7 -12.1 5.5 -14.7 7.25 L-16.35 8.55 -16.7 8.85 -16.5 8.15 -16.6 7.75 -18.25 6.7 -16.9 5.45 -15.9 4.6 Q-12.5 2.0 -10.8 2.0 L-11.8 1.65 -16.1 2.85 Q-16.5 2.85 -16.55 3.15 L-15.5 0.9 -16.2 1.15 -16.75 -0.9 -24.05 -1.15 -24.15 -1.0 -25.55 0.6 Q-26.6 -0.75 -26.7 -1.9 L-20.0 -3.45 Q-17.0 -2.1 -16.25 -1.95 -17.8 -2.65 -19.3 -3.65 L-14.8 -4.7 -12.55 -4.15 -8.9 -2.1 -6.9 -1.95 Q-8.2 -2.25 -9.9 -3.1 -11.1 -3.7 -11.7 -4.25 L-10.75 -4.95 Q-9.4 -4.25 -8.7 -4.25 L-8.3 -4.35 -10.0 -5.4 -9.7 -5.55 -8.25 -4.3 -5.55 -4.2 -10.15 -10.85 -3.35 -7.15 -2.2 -6.95 -1.45 -6.7 -0.65 -7.1 -1.35 -5.9 -3.2 -3.3 Q0.8 -5.45 1.5 -8.1 L3.85 -9.2 4.2 -9.7 4.0 -8.7 Q3.55 -5.95 2.65 -4.85 L2.6 -4.85 2.7 -4.85 Q4.65 -6.85 6.3 -10.1 7.7 -12.95 7.7 -13.9 L7.75 -15.25 M-6.6 6.95 L-6.9 6.75 Q-8.7 2.3 -13.6 3.6 -15.65 5.7 -16.5 8.15 -15.65 5.7 -13.6 3.6 -8.7 2.3 -6.9 6.75 L-6.6 6.95 -6.55 6.95 -6.55 6.9 -6.6 6.95 M1.7 15.95 L-0.1 18.9 -2.3 18.6 Q-2.0 17.35 -2.35 16.1 L1.7 15.95 M-8.95 16.35 L-9.05 17.85 -10.55 18.0 -11.15 19.6 -11.4 19.6 -13.9 16.15 -8.95 16.35 M-21.0 11.5 L-22.4 10.15 -21.3 10.45 -21.0 11.5" fill="#e3f3ed" fill-rule="evenodd" stroke="none"/>
    <path d="M-10.15 -10.85 L-5.55 -4.2 -8.25 -4.3 -9.7 -5.55 -8.35 -6.25 -10.6 -11.1 -10.15 -10.85 M-25.55 0.6 L-24.15 -1.0 -24.05 -1.15 -16.75 -0.9 -16.2 1.15 -15.5 0.9 -16.55 3.15 -16.6 3.2 -18.5 4.35 Q-18.9 4.35 -18.75 4.55 L-19.25 5.05 -19.65 5.75 -19.85 5.65 -20.85 4.95 Q-24.15 2.55 -25.55 0.6 M1.5 4.2 L1.7 3.25 Q3.55 4.9 5.0 6.9 4.85 7.75 4.85 8.85 L4.7 10.05 10.65 9.9 7.5 12.75 4.85 13.2 3.05 13.1 2.15 13.7 4.35 14.95 2.8 15.9 1.7 15.95 -2.35 16.1 -5.1 16.2 -5.55 16.25 -8.1 16.3 -8.1 16.35 -8.95 16.35 -13.9 16.15 -14.5 16.15 -18.65 13.4 -16.15 13.05 Q-15.75 12.75 -15.3 12.6 L-13.2 14.45 -11.4 15.5 -10.95 15.5 -10.35 15.45 -9.7 15.15 Q-7.8 14.65 -1.8 15.25 L-1.45 15.3 Q-0.6 15.0 0.15 14.5 L1.25 13.7 1.65 13.35 2.1 12.9 2.65 12.25 Q3.7 11.05 4.1 9.5 L3.9 8.65 Q3.2 6.25 1.5 4.2 M2.0 1.45 L2.55 -1.65 2.15 -2.05 6.85 -4.75 9.2 -14.4 9.45 -1.25 6.55 0.9 6.5 0.85 3.45 -1.2 Q3.3 -1.25 3.2 -1.1 4.8 1.05 5.95 3.3 L5.95 3.35 5.55 4.2 Q4.65 3.1 2.5 1.75 L2.0 1.45 M-19.7 10.65 L-16.7 10.35 -15.4 12.45 -18.0 11.6 -19.7 10.65" fill="#a5dac6" fill-rule="evenodd" stroke="none"/>
    <path d="M-0.1 18.9 L-0.7 19.85 Q-1.95 20.55 -2.95 20.15 L-2.3 18.6 -0.1 18.9 M-9.05 17.85 L-8.65 19.9 -10.35 19.8 -11.15 19.6 -10.55 18.0 -9.05 17.85 M-16.7 10.35 L-16.95 9.7 -16.7 8.85 -16.35 8.55 -14.7 7.25 Q-12.1 5.5 -9.2 6.7 -7.15 7.6 -6.3 9.55 L-6.25 8.9 -5.7 8.15 Q-3.95 6.05 -1.2 6.0 L0.1 6.2 Q2.4 6.75 3.9 8.65 L4.1 9.5 Q3.7 11.05 2.65 12.25 L2.1 12.9 1.65 13.35 1.25 13.7 0.15 14.5 Q-0.6 15.0 -1.45 15.3 L-1.8 15.25 Q-7.8 14.65 -9.7 15.15 L-10.35 15.45 -10.95 15.5 -11.4 15.5 -13.2 14.45 -15.3 12.6 -15.4 12.45 -16.7 10.35" fill="#fcfff1" fill-rule="evenodd" stroke="none"/>
    <path d="M-16.5 8.15 Q-15.65 5.7 -13.6 3.6 -8.7 2.3 -6.9 6.75 L-6.6 6.95 -6.55 6.95 -6.55 6.9 -5.9 6.55 Q-4.15 2.1 0.8 3.4 L1.5 4.2 Q3.2 6.25 3.9 8.65 M-16.7 8.85 L-16.5 8.15" ffdec:has-small-stroke="true" ffdec:original-stroke-width="0.05" fill="none" stroke="#000000" stroke-linecap="round" stroke-linejoin="round" stroke-opacity="0.3019608" stroke-width="1.0"/>
    <path d="M-16.7 10.35 L-16.95 9.7 -16.7 8.85 M3.9 8.65 L4.1 9.5 Q3.7 11.05 2.65 12.25 L2.1 12.9 1.65 13.35 1.25 13.7 0.15 14.5 Q-0.6 15.0 -1.45 15.3 L-1.8 15.25 Q-7.8 14.65 -9.7 15.15 L-10.35 15.45 -10.95 15.5 -11.4 15.5 -13.2 14.45 -15.3 12.6 -15.4 12.45 -16.7 10.35 M-6.3 9.55 L-6.25 8.9" ffdec:has-small-stroke="true" ffdec:original-stroke-width="0.05" fill="none" stroke="#000000" stroke-linecap="round" stroke-linejoin="round" stroke-opacity="0.3019608" stroke-width="1.0"/>
    <path d="M0.3 4.55 L1.3 4.5 2.05 5.15 2.6 6.2 Q2.9 6.7 2.75 7.25 2.6 7.75 2.15 8.05 L1.15 8.1 0.4 7.45 -0.2 6.4 Q-0.45 5.85 -0.3 5.35 L0.3 4.55" fill="#162c27" fill-rule="evenodd" stroke="none"/>
    <path d="M-8.05 5.85 Q-7.6 6.15 -7.45 6.7 L-7.2 7.85 Q-7.1 8.4 -7.35 8.9 -7.65 9.35 -8.15 9.5 L-9.1 9.3 Q-9.6 8.95 -9.7 8.4 L-9.95 7.25 Q-10.1 6.7 -9.8 6.25 L-9.05 5.65 Q-8.55 5.5 -8.05 5.85" fill="#162c27" fill-rule="evenodd" stroke="none"/>
  </g>
</svg>
