<?xml version="1.0" encoding="UTF-8" standalone="no"?>
<svg xmlns:ffdec="https://www.free-decompiler.com/flash" xmlns:xlink="http://www.w3.org/1999/xlink" ffdec:objectType="shape" height="11.65px" width="12.0px" xmlns="http://www.w3.org/2000/svg">
  <g transform="matrix(1.0, 0.0, 0.0, 1.0, 5.2, 6.45)">
    <path d="M-4.7 -0.3 L-4.7 -0.45 -4.7 -0.65 Q-4.7 -2.85 -3.05 -4.4 -1.45 -5.95 0.8 -5.95 3.05 -5.95 4.7 -4.4 L4.8 -4.25 4.9 -4.15 4.8 -4.1 Q6.3 -1.9 4.4 -0.1 2.5 1.65 1.25 2.0 L-1.55 1.9 Q-3.15 1.45 -4.55 -0.35 L-4.7 -0.3" fill="#ffffff" fill-rule="evenodd" stroke="none"/>
    <path d="M4.9 -4.15 Q6.3 -2.7 6.3 -0.65 6.3 1.55 4.7 3.1 3.05 4.65 0.8 4.7 -1.45 4.65 -3.05 3.1 -4.55 1.65 -4.7 -0.3 L-4.55 -0.35 Q-3.15 1.45 -1.55 1.9 L1.25 2.0 Q2.5 1.65 4.4 -0.1 6.3 -1.9 4.8 -4.1 L4.9 -4.15" fill="#b9ab8e" fill-rule="evenodd" stroke="none"/>
    <path d="M4.9 -4.15 Q6.3 -2.7 6.3 -0.65 6.3 1.55 4.7 3.1 3.05 4.65 0.8 4.7 -1.45 4.65 -3.05 3.1 -4.55 1.65 -4.7 -0.3 L-4.7 -0.45 -4.7 -0.65 Q-4.7 -2.85 -3.05 -4.4 -1.45 -5.95 0.8 -5.95 3.05 -5.95 4.7 -4.4 L4.8 -4.25 4.9 -4.15 Z" fill="none" stroke="#223437" stroke-linecap="round" stroke-linejoin="round" stroke-opacity="0.34117648" stroke-width="1.0"/>
    <path d="M4.8 -0.2 L4.75 0.95 Q4.5 1.7 3.9 2.0 L2.65 1.95 Q2.0 1.6 1.7 0.85 1.5 0.25 1.6 -0.3 L1.65 -0.7 Q1.9 -1.45 2.55 -1.75 L3.75 -1.7 Q4.4 -1.35 4.7 -0.6 L4.8 -0.2" fill="#000000" fill-rule="evenodd" stroke="none"/>
  </g>
</svg>
