<?xml version="1.0" encoding="UTF-8" standalone="no"?>
<svg xmlns:ffdec="https://www.free-decompiler.com/flash" xmlns:xlink="http://www.w3.org/1999/xlink" ffdec:objectType="shape" height="88.75px" width="117.35px" xmlns="http://www.w3.org/2000/svg">
  <g transform="matrix(1.0, 0.0, 0.0, 1.0, 57.7, 69.65)">
    <path d="M14.1 -62.45 L14.15 -62.4 14.1 -62.4 14.1 -62.45 M34.7 -19.95 L33.5 -17.25 33.35 -16.45 32.95 -14.15 32.6 -13.4 32.55 -13.3 32.6 -13.45 32.95 -14.55 32.85 -15.85 32.8 -16.55 32.8 -16.7 32.75 -17.2 32.75 -16.7 32.65 -15.25 32.5 -14.75 32.55 -14.65 32.55 -14.3 32.55 -14.2 32.5 -13.4 32.5 -13.3 32.5 -13.0 32.25 -13.05 32.3 -13.4 32.35 -14.9 32.25 -17.45 32.75 -17.2 34.7 -19.95 M34.0 -2.9 L34.0 -3.05 34.05 -2.85 34.05 -3.15 34.1 -2.75 Q34.05 -2.55 34.15 -2.55 L34.15 -2.5 34.65 -1.15 34.65 -1.1 34.0 -2.75 34.0 -2.85 34.0 -2.9 M-22.25 -3.3 L-22.45 -3.75 Q-21.65 -2.9 -19.55 -3.55 L-19.5 -3.3 -21.8 -2.8 -22.0 -3.0 -22.05 -3.05 -22.05 -3.15 -22.25 -3.3 M18.0 -20.45 L18.05 -20.45 18.0 -20.4 18.0 -20.45 M32.45 -27.75 L32.9 -28.15 33.0 -28.0 32.45 -27.75 M8.0 -33.65 L7.8 -33.4 7.6 -33.85 8.0 -33.65 M16.65 -13.95 L16.95 -13.65 17.0 -13.25 16.75 -13.25 16.65 -13.95 M-2.2 -26.9 L-1.7 -27.6 -1.15 -27.2 -2.2 -26.9 M32.6 -13.4 L32.6 -13.45 32.6 -13.4 M32.5 -14.75 L32.55 -14.3 32.5 -14.75 M32.75 2.4 L32.75 2.45 32.65 2.5 32.75 2.4 M3.2 1.45 L3.45 1.55 3.45 1.6 3.2 1.45" fill="#615941" fill-rule="evenodd" stroke="none"/>
    <path d="M11.95 -63.8 L13.9 -63.3 14.1 -62.45 14.1 -62.4 14.15 -62.4 Q14.9 -56.0 18.95 -51.65 L19.85 -56.7 22.8 -51.5 28.15 -37.7 28.3 -37.65 26.4 -35.8 18.65 -44.2 19.35 -33.65 11.8 -59.25 11.95 -63.8 M34.65 -1.15 L35.95 -1.45 46.4 -4.25 46.45 -4.25 46.85 -4.4 47.25 -4.5 47.2 -4.45 47.3 -4.5 47.45 -4.55 47.2 -4.45 38.55 -0.25 38.55 -0.15 37.95 -0.5 35.15 -0.7 34.45 -1.05 34.65 -1.1 34.65 -1.15 M-32.15 -4.7 L-39.2 -9.7 -22.25 -3.3 -22.05 -3.15 -22.05 -3.05 -22.0 -3.0 -21.8 -2.8 -19.5 -3.3 -16.15 -4.0 -16.0 -4.5 -13.3 -2.55 -16.05 0.8 -27.1 -4.15 Q-35.95 -7.85 -32.15 -4.7 M-19.45 -50.75 L-18.55 -50.45 -11.7 -50.5 -8.05 -61.5 -6.8 -48.6 -11.3 -50.85 -14.25 -44.15 -19.45 -50.75" fill="#e8e4ca" fill-rule="evenodd" stroke="none"/>
    <path d="M32.9 -28.15 L33.0 -28.05 Q34.0 -25.25 34.4 -22.75 L34.65 -20.75 33.0 -28.0 32.9 -28.15" fill="#b7a76a" fill-rule="evenodd" stroke="none"/>
    <path d="M31.15 -32.3 L32.95 -28.2 32.9 -28.15 32.45 -27.75 30.7 -25.9 25.35 -20.35 27.35 -23.55 27.6 -23.95 Q29.6 -27.45 30.6 -30.5 L31.15 -32.3 M0.7 -39.35 L6.1 -37.1 8.65 -35.9 Q8.85 -36.9 14.75 -31.85 L18.3 -23.65 18.25 -23.5 11.0 -31.2 9.45 -32.6 8.0 -33.65 7.6 -33.85 Q0.1 -39.0 0.7 -39.35" fill="#ededc5" fill-rule="evenodd" stroke="none"/>
    <path d="M38.95 4.15 L38.9 4.45 34.7 4.55 34.6 4.4 32.75 2.45 32.75 2.4 35.9 2.8 36.1 3.25 38.95 4.15 M-8.05 -61.5 L-8.0 -61.65 -7.95 -61.6 -8.05 -61.5 M18.3 -23.65 L18.3 -23.5 18.25 -23.5 18.3 -23.65 M18.05 -20.45 L18.05 -20.4 18.0 -20.4 18.05 -20.45 M3.0 1.35 Q3.6 1.25 3.5 1.5 L3.45 1.55 3.2 1.45 3.0 1.4 3.0 1.35 M27.1 2.35 L27.05 2.5 27.0 2.35 27.1 2.35 M31.7 -8.35 L31.7 -7.7 31.7 -7.35 31.45 -7.45 31.55 -7.7 31.7 -8.35 M24.4 -14.55 L24.6 -14.6 24.35 -14.15 24.4 -14.55" fill="#2f2926" fill-rule="evenodd" stroke="none"/>
    <path d="M32.75 -17.2 L32.8 -16.7 32.75 -16.7 32.75 -17.2 M23.85 -12.25 L23.6 -11.4 24.05 -13.5 24.2 -13.9 24.4 -14.55 24.35 -14.15 23.85 -12.25" fill="#ffffff" fill-rule="evenodd" stroke="none"/>
    <path d="M32.6 -13.45 L32.55 -14.2 32.55 -14.3 32.55 -14.65 32.5 -14.75 32.65 -15.25 32.6 -13.45" fill="#a4986c" fill-rule="evenodd" stroke="none"/>
    <path d="M18.75 -15.25 L18.85 -15.15 18.85 -15.1 18.75 -15.25 M3.5 1.5 L3.5 1.6 3.45 1.6 3.45 1.55 3.5 1.5 M24.05 -13.5 L24.0 -13.55 24.2 -13.9 24.05 -13.5 M24.6 -14.6 L23.85 -12.25 24.35 -14.15 24.6 -14.6" fill="#b1844e" fill-rule="evenodd" stroke="none"/>
    <path d="M18.05 -16.7 L18.1 -16.5 17.85 -15.85 18.0 -16.65 18.05 -16.7 M17.05 -13.55 L17.0 -13.25 16.8 -12.5 16.75 -13.25 17.0 -13.25 16.95 -13.65 17.05 -13.55 M27.4 3.75 L27.35 3.4 27.2 2.9 Q27.1 2.7 27.1 2.9 L27.1 2.7 27.1 2.75 27.15 2.75 27.4 3.7 27.4 3.75" fill="#eed7a2" fill-rule="evenodd" stroke="none"/>
    <path d="M22.95 4.7 L24.45 6.8 17.85 6.45 Q15.0 6.8 12.2 7.8 13.8 6.35 16.2 5.75 L22.45 5.3 Q21.35 2.75 22.0 2.65 L22.95 4.7" fill="#000000" fill-rule="evenodd" stroke="none"/>
    <path d="M27.45 6.3 L27.45 6.75 27.4 6.75 27.45 6.3 M2.0 6.0 L2.0 6.05 1.8 6.1 2.0 6.0" fill="#bb9962" fill-rule="evenodd" stroke="none"/>
    <path d="M19.9 17.25 L19.6 17.4 18.0 16.85 19.9 17.25" fill="#e6c577" fill-rule="evenodd" stroke="none"/>
    <path d="M32.25 -13.05 L32.5 -13.0 32.25 -13.0 32.25 -13.05 M34.0 -2.75 L34.0 -2.9 34.0 -2.85 34.0 -2.75" fill="#967549" fill-rule="evenodd" stroke="none"/>
    <path d="M34.6 4.4 L29.7 7.25 32.65 2.5 32.75 2.45 34.6 4.4 M17.95 -16.8 L18.05 -16.7 18.0 -16.65 17.95 -16.8" fill="#83663f" fill-rule="evenodd" stroke="none"/>
    <path d="M26.6 0.45 L26.55 0.35 26.7 0.4 26.6 0.45" fill="#5f492e" fill-rule="evenodd" stroke="none"/>
    <path d="M27.45 8.55 L18.75 13.25 19.3 11.0 17.05 8.9 Q19.85 9.45 22.8 8.95 25.05 8.45 27.4 7.35 L27.4 6.75 27.45 6.75 27.45 8.55 M19.95 17.2 L19.9 17.25 18.0 16.85 17.4 16.65 12.95 15.1 9.7 13.1 Q6.55 12.25 1.3 10.15 L1.75 7.6 9.1 11.05 14.35 10.65 14.6 14.1 Q20.25 16.9 19.95 17.2 M18.1 -16.5 L18.75 -15.25 18.85 -15.1 19.85 -14.0 21.15 -16.1 21.15 -14.3 Q21.15 -13.45 21.5 -13.15 L23.6 -14.95 23.7 -14.55 23.5 -12.8 24.0 -13.55 24.05 -13.5 Q22.7 -9.05 23.3 -3.9 L25.8 0.1 26.55 0.35 26.6 0.45 27.0 2.35 27.05 2.5 27.1 2.35 27.15 2.75 27.1 2.75 27.1 2.7 27.1 2.9 Q27.1 2.7 27.2 2.9 L27.35 3.4 27.4 3.75 27.45 3.9 27.5 3.95 27.5 4.05 27.5 4.95 Q25.55 1.85 23.85 1.7 L13.65 0.7 13.3 0.65 13.25 0.65 13.0 0.65 12.2 0.7 Q10.4 1.75 8.55 2.0 L3.5 1.6 3.5 1.5 Q3.6 1.25 3.0 1.35 L4.1 0.6 4.55 0.1 5.05 -0.55 Q12.8 0.95 14.55 -2.5 16.5 -6.7 16.75 -11.15 L16.8 -12.5 17.0 -13.25 17.05 -13.55 17.85 -12.7 Q17.65 -13.8 17.85 -15.85 L18.1 -16.5 M22.45 -1.15 Q23.2 -2.7 21.05 -2.8 L16.8 -1.55 Q14.75 -0.6 20.85 -0.5 L22.45 -1.15" fill="#c9e9dc" fill-rule="evenodd" stroke="none"/>
    <path d="M18.75 13.25 L20.25 15.65 22.85 15.75 19.95 17.2 Q20.25 16.9 14.6 14.1 L14.35 10.65 9.1 11.05 1.75 7.6 1.7 7.45 2.0 6.05 2.0 6.0 2.0 5.95 2.3 4.7 2.75 3.05 3.45 1.6 3.5 1.6 8.55 2.0 Q10.4 1.75 12.2 0.7 L13.0 0.65 13.25 0.65 13.3 0.65 13.65 0.7 23.85 1.7 Q25.55 1.85 27.5 4.95 L27.45 6.1 27.45 6.3 27.4 6.75 27.4 7.35 Q25.05 8.45 22.8 8.95 19.85 9.45 17.05 8.9 L19.3 11.0 18.75 13.25 M22.45 -1.15 L20.85 -0.5 Q14.75 -0.6 16.8 -1.55 L21.05 -2.8 Q23.2 -2.7 22.45 -1.15 M22.95 4.7 L22.0 2.65 Q21.35 2.75 22.45 5.3 L16.2 5.75 Q13.8 6.35 12.2 7.8 15.0 6.8 17.85 6.45 L24.45 6.8 22.95 4.7" fill="#fcfff1" fill-rule="evenodd" stroke="none"/>
    <path d="M32.5 -13.0 Q32.45 -9.5 32.65 -7.45 32.75 -6.25 33.0 -5.6 L34.0 -2.9 34.0 -2.75 34.65 -1.1 34.45 -1.05 35.15 -0.7 37.95 -0.5 38.55 -0.15 38.55 -0.25 47.2 -4.45 38.95 4.15 36.1 3.25 35.9 2.8 32.75 2.4 32.65 2.5 29.7 7.25 27.45 8.55 27.45 6.75 27.45 6.3 27.45 6.1 27.5 4.95 27.5 4.05 27.5 3.95 27.45 3.9 27.4 3.75 27.4 3.7 27.15 2.75 27.1 2.35 27.5 2.0 Q31.5 -2.05 31.7 -7.35 L31.7 -7.7 31.7 -8.35 32.05 -10.8 32.25 -13.0 32.5 -13.0 M-21.55 2.35 L-22.55 1.85 -26.2 -0.55 -32.15 -4.7 Q-35.95 -7.85 -27.1 -4.15 L-16.05 0.8 -13.3 -2.55 -16.0 -4.5 -16.15 -4.0 -19.5 -3.3 -19.55 -3.55 -16.4 -4.55 -19.55 -7.5 -17.4 -9.05 -15.85 -9.75 -12.45 -11.95 Q-10.55 -8.65 -8.2 -6.1 -5.35 -2.85 -1.9 -0.75 0.55 0.55 2.15 1.15 L3.0 1.4 3.2 1.45 3.45 1.6 2.75 3.05 2.3 4.7 2.0 5.95 2.0 6.0 1.8 6.1 2.0 6.05 1.7 7.45 -9.05 -3.7 -8.15 1.8 -16.05 3.9 -21.55 2.35" fill="#a5dac6" fill-rule="evenodd" stroke="none"/>
    <path d="M28.3 -37.65 L32.1 -41.25 30.65 -31.8 31.15 -32.3 30.6 -30.5 Q29.6 -27.45 27.6 -23.95 L27.35 -23.55 25.35 -20.35 30.7 -25.9 28.8 -23.35 27.65 -21.85 27.15 -21.2 24.3 -17.3 Q23.2 -16.9 23.6 -14.95 L21.5 -13.15 Q21.15 -13.45 21.15 -14.3 L21.15 -16.1 19.85 -14.0 18.85 -15.1 18.85 -15.15 18.75 -15.25 18.1 -16.5 18.05 -16.7 17.95 -16.8 18.05 -20.4 18.05 -20.45 18.0 -20.45 18.1 -20.9 17.95 -20.8 18.05 -20.9 18.1 -21.0 18.1 -21.1 18.25 -21.4 18.1 -21.4 18.25 -22.85 18.25 -23.1 18.3 -23.1 18.3 -23.5 18.3 -23.65 14.75 -31.85 Q8.85 -36.9 8.65 -35.9 L6.1 -37.1 0.7 -39.35 -1.5 -45.85 -1.7 -46.25 Q-2.75 -48.7 2.4 -46.8 4.3 -46.15 7.0 -44.75 L6.55 -61.4 8.15 -64.7 11.95 -63.8 11.8 -59.25 19.35 -33.65 18.65 -44.2 26.4 -35.8 28.3 -37.65 M1.3 10.15 Q-3.0 9.0 -9.65 5.7 L-15.0 6.2 -21.55 2.35 -16.05 3.9 -8.15 1.8 -9.05 -3.7 1.7 7.45 1.75 7.6 1.3 10.15" fill="#8dc7b5" fill-rule="evenodd" stroke="none"/>
    <path d="M34.65 -20.75 L34.7 -19.95 32.75 -17.2 32.25 -17.45 31.8 -19.5 Q31.05 -21.95 29.0 -21.35 27.0 -20.85 25.0 -15.85 L24.6 -14.6 24.4 -14.55 24.2 -13.9 24.0 -13.55 23.5 -12.8 23.7 -14.55 23.6 -14.95 Q23.2 -16.9 24.3 -17.3 L27.15 -21.2 27.65 -21.85 28.8 -23.35 30.7 -25.9 32.45 -27.75 33.0 -28.0 34.65 -20.75 M-22.45 -3.75 Q-22.8 -4.1 -22.85 -4.8 L-27.4 -8.6 Q-29.0 -12.45 -29.8 -15.5 L-18.5 -12.75 -23.25 -18.8 -16.7 -17.05 Q-15.45 -19.25 -17.55 -21.75 L-19.5 -22.9 -18.35 -23.85 Q-18.05 -24.65 -16.3 -25.5 L-15.15 -26.4 -19.05 -26.8 -19.7 -29.75 -31.1 -31.2 -24.8 -40.3 -20.1 -50.95 -19.45 -50.75 -14.25 -44.15 -11.3 -50.85 -6.8 -48.6 -8.05 -61.5 -7.95 -61.6 -0.65 -57.0 2.1 -63.3 4.45 -65.6 8.15 -64.7 6.55 -61.4 7.0 -44.75 Q4.3 -46.15 2.4 -46.8 -2.75 -48.7 -1.7 -46.25 L-1.5 -45.85 0.7 -39.35 Q0.1 -39.0 7.6 -33.85 L7.8 -33.4 8.0 -33.65 9.45 -32.6 11.0 -31.2 18.25 -23.5 18.3 -23.5 18.3 -23.1 18.25 -23.1 18.25 -22.85 18.1 -21.4 18.25 -21.4 18.1 -21.1 18.1 -21.0 18.05 -20.9 17.95 -20.8 18.1 -20.9 18.0 -20.45 18.0 -20.4 18.05 -20.4 17.95 -16.8 18.0 -16.65 17.85 -15.85 Q17.65 -13.8 17.85 -12.7 L17.05 -13.55 16.95 -13.65 16.65 -13.95 16.65 -14.1 Q16.25 -16.9 14.85 -19.55 12.7 -23.6 7.15 -26.0 2.9 -28.05 -1.15 -27.2 L-1.7 -27.6 -2.2 -26.9 -3.5 -26.5 Q-8.6 -24.45 -12.45 -14.0 L-11.7 -12.05 Q-10.55 -9.75 -7.95 -7.0 -6.6 -5.65 -4.9 -4.45 -2.15 -2.6 1.5 -1.4 L1.8 -1.3 5.05 -0.55 4.55 0.1 4.1 0.6 3.0 1.35 3.0 1.4 2.15 1.15 Q0.55 0.55 -1.9 -0.75 -5.35 -2.85 -8.2 -6.1 -10.55 -8.65 -12.45 -11.95 L-15.85 -9.75 -17.4 -9.05 -19.55 -7.5 -16.4 -4.55 -19.55 -3.55 Q-21.65 -2.9 -22.45 -3.75 M27.0 2.35 L26.6 0.45 26.7 0.4 Q29.7 -2.65 31.45 -7.45 L31.7 -7.35 Q31.5 -2.05 27.5 2.0 L27.1 2.35 27.0 2.35" fill="#366d61" fill-rule="evenodd" stroke="none"/>
    <path d="M13.9 -63.3 L14.1 -62.45 M14.15 -62.4 Q14.9 -56.0 18.95 -51.65 L19.85 -56.7 22.8 -51.5 28.15 -37.7 28.3 -37.65 32.1 -41.25 M31.15 -32.3 L32.95 -28.2 M-19.45 -50.75 L-18.55 -50.45 -11.7 -50.5 -8.05 -61.5" ffdec:has-small-stroke="true" ffdec:original-stroke-width="0.5" fill="none" stroke="#c1b69d" stroke-linecap="round" stroke-linejoin="round" stroke-width="1.0"/>
    <path d="M32.9 -28.15 L33.0 -28.05 Q34.0 -25.25 34.4 -22.75 M33.35 -16.45 L32.95 -14.15 32.6 -13.4 32.55 -13.3 32.6 -13.45 32.95 -14.55 32.85 -15.85" ffdec:has-small-stroke="true" ffdec:original-stroke-width="0.5" fill="none" stroke="#000000" stroke-linecap="round" stroke-linejoin="round" stroke-opacity="0.37254903" stroke-width="1.0"/>
    <path d="M24.05 -13.5 L24.2 -13.9 24.4 -14.55" fill="none" stroke="#2b2b2b" stroke-linecap="round" stroke-linejoin="round" stroke-opacity="0.6901961" stroke-width="1.0"/>
    <path d="M32.6 -13.45 L32.55 -14.2 32.5 -13.4 32.5 -13.3 32.5 -13.0 Q32.45 -9.5 32.65 -7.45 32.75 -6.25 33.0 -5.6 L34.0 -2.9 34.0 -2.85 34.0 -2.75 34.65 -1.1 M34.65 -1.15 L35.95 -1.45 46.4 -4.25 46.45 -4.25 46.85 -4.4 47.25 -4.5 M47.2 -4.45 L47.3 -4.5 M47.2 -4.45 L38.95 4.15 38.9 4.45 34.7 4.55 34.6 4.4 29.7 7.25 27.45 8.55 18.75 13.25 20.25 15.65 22.85 15.75 19.95 17.2 19.9 17.25 19.6 17.4 18.0 16.85 17.4 16.65 12.95 15.1 9.7 13.1 Q6.55 12.25 1.3 10.15 -3.0 9.0 -9.65 5.7 L-15.0 6.2 -21.55 2.35 -22.55 1.85 -26.2 -0.55 -32.15 -4.7 -39.2 -9.7 -22.25 -3.3 -22.45 -3.75 M32.6 -13.45 L32.6 -13.4 M32.75 -16.7 L32.75 -17.2 M32.75 -16.7 L32.65 -15.25 32.6 -13.45 M32.55 -14.3 L32.5 -14.75 32.65 -15.25 M32.5 -14.75 L32.55 -14.65 32.55 -14.3 32.55 -14.2 M32.75 2.4 L32.75 2.45 34.6 4.4 M32.75 2.4 L32.65 2.5 M19.3 11.0 L18.75 13.25 M-22.25 -3.3 L-22.05 -3.15 -22.05 -3.05 -22.0 -3.0" ffdec:has-small-stroke="true" ffdec:original-stroke-width="0.5" fill="none" stroke="#000000" stroke-linecap="round" stroke-linejoin="round" stroke-opacity="0.3019608" stroke-width="1.0"/>
    <path d="M32.5 -13.25 L32.5 -13.4 32.55 -14.3 32.55 -13.45 32.75 -16.7 32.8 -16.7 32.8 -16.55 32.95 -14.55 32.55 -13.3 32.5 -13.25" fill="#a4986c" fill-rule="evenodd" stroke="none"/>
    <path d="M32.55 -13.3 L32.95 -14.15 33.35 -16.45 Q39.0 -14.3 44.8 -14.75 L51.6 -15.4 Q56.0 -16.4 57.9 -15.5 L57.5 -14.75 Q54.05 -10.2 48.6 -9.05 L32.65 -7.45 Q32.45 -9.55 32.5 -13.25 L32.55 -13.3" fill="#29544a" fill-rule="evenodd" stroke="none"/>
    <path d="M33.35 -16.45 L33.5 -17.25 34.7 -19.95 34.65 -20.75 34.4 -22.75 44.95 -21.75 Q47.75 -21.45 50.3 -22.7 53.0 -23.7 55.05 -25.75 56.15 -27.0 56.4 -27.8 57.45 -28.7 58.4 -27.5 59.4 -24.95 59.4 -22.35 L59.35 -21.0 Q59.1 -18.2 57.9 -15.5 56.0 -16.4 51.6 -15.4 L44.8 -14.75 Q39.0 -14.3 33.35 -16.45" fill="#366d61" fill-rule="evenodd" stroke="none"/>
    <path d="M33.35 -16.45 L33.5 -17.25 34.7 -19.95 34.65 -20.75 34.4 -22.75" ffdec:has-small-stroke="true" ffdec:original-stroke-width="0.5" fill="none" stroke="#000000" stroke-linecap="round" stroke-linejoin="round" stroke-opacity="0.37254903" stroke-width="1.0"/>
    <path d="M34.4 -22.75 L44.95 -21.75 Q47.75 -21.45 50.3 -22.7 53.0 -23.7 55.05 -25.75 56.15 -27.0 56.4 -27.8 57.45 -28.7 58.4 -27.5 59.4 -24.95 59.4 -22.35 L59.35 -21.0 Q59.1 -18.2 57.9 -15.5 L57.5 -14.75" ffdec:has-small-stroke="true" ffdec:original-stroke-width="0.5" fill="none" stroke="#afa57a" stroke-linecap="round" stroke-linejoin="round" stroke-width="1.0"/>
    <path d="M57.5 -14.75 Q54.05 -10.2 48.6 -9.05 L32.65 -7.45" ffdec:has-small-stroke="true" ffdec:original-stroke-width="0.5" fill="none" stroke="#4f4531" stroke-linecap="round" stroke-linejoin="round" stroke-width="1.0"/>
    <path d="M30.0 11.15 Q30.9 10.7 33.25 3.65 37.7 -9.6 36.9 -18.8 36.1 -28.05 24.95 -37.35 L33.75 -30.7 Q41.15 -24.7 41.65 -17.7 42.1 -10.7 37.05 -1.15 34.85 2.9 33.4 7.0 32.3 10.0 31.6 12.95 31.0 15.05 30.65 17.35 L30.0 11.15" fill="#ffffff" fill-rule="evenodd" stroke="none"/>
    <path d="M28.8 -0.55 L29.6 6.95 30.0 11.15 Q29.5 11.4 29.5 9.75 L29.6 6.95 Q29.3 6.65 29.15 5.7 28.8 3.85 28.8 -0.55" fill="#c3b3a3" fill-rule="evenodd" stroke="none"/>
    <path d="M24.95 -37.35 Q36.1 -28.05 36.9 -18.8 37.7 -9.6 33.25 3.65 30.9 10.7 30.0 11.15 L29.6 6.95 28.8 -0.55 27.25 -15.6 Q22.3 -31.6 13.2 -41.8 L17.55 -42.35 24.25 -37.8 Q24.65 -37.5 24.95 -37.35" fill="#8dc7b5" fill-rule="evenodd" stroke="none"/>
    <path d="M24.25 -37.8 L17.55 -42.35 13.2 -41.8 Q22.3 -31.6 27.25 -15.6 L28.8 -0.55 29.6 6.95 30.0 11.15 30.65 17.35 Q31.0 15.05 31.6 12.95 M33.4 7.0 Q34.85 2.9 37.05 -1.15 42.1 -10.7 41.65 -17.7 41.15 -24.7 33.75 -30.7 L24.95 -37.35" ffdec:has-small-stroke="true" ffdec:original-stroke-width="0.05" fill="none" stroke="#000000" stroke-linecap="round" stroke-linejoin="round" stroke-opacity="0.4" stroke-width="1.0"/>
    <path d="M23.6 -11.4 L24.6 -14.6 25.0 -15.85 Q27.0 -20.85 29.0 -21.35 31.05 -21.95 31.8 -19.5 L32.25 -17.45 Q32.45 -15.55 32.25 -13.05 L32.05 -10.8 Q30.0 -19.35 26.65 -16.2 25.2 -14.9 23.6 -11.4" fill="#cecab0" fill-rule="evenodd" stroke="none"/>
    <path d="M23.6 -11.4 Q25.2 -14.9 26.65 -16.2 30.0 -19.35 32.05 -10.8 L31.7 -8.35 31.55 -7.7 Q29.8 -2.75 26.7 0.4 L25.8 0.1 23.3 -3.9 Q22.7 -9.05 24.05 -13.5 L23.6 -11.4" fill="#ffffff" fill-rule="evenodd" stroke="none"/>
    <path d="M32.05 -10.8 L32.25 -13.05 Q32.45 -15.55 32.25 -17.45 L31.8 -19.5 Q31.05 -21.95 29.0 -21.35 27.0 -20.85 25.0 -15.85 L24.6 -14.6 23.6 -11.4 24.05 -13.5 Q22.7 -9.05 23.3 -3.9 L25.8 0.1 26.7 0.4 Q29.8 -2.75 31.55 -7.7 L31.7 -8.35 32.05 -10.8 Z" fill="none" stroke="#2b2b2b" stroke-linecap="round" stroke-linejoin="round" stroke-opacity="0.6901961" stroke-width="1.0"/>
    <path d="M26.15 -11.0 L26.1 -11.35 26.35 -11.15 26.15 -11.0" fill="#530202" fill-rule="evenodd" stroke="none"/>
    <path d="M30.5 -12.85 L30.5 -12.35 Q30.55 -10.9 30.05 -9.85 29.65 -8.8 28.65 -8.7 27.7 -8.55 27.0 -9.35 L26.95 -9.4 Q26.4 -10.05 26.15 -11.0 L26.35 -11.15 Q29.55 -14.65 30.5 -12.85" fill="#8dc7b5" fill-rule="evenodd" stroke="none"/>
    <path d="M26.1 -11.35 Q25.8 -14.75 28.2 -15.4 28.9 -15.55 29.5 -15.0 L29.7 -14.75 29.75 -14.7 30.25 -13.75 30.5 -12.85 Q29.55 -14.65 26.35 -11.15 L26.1 -11.35" fill="#366d61" fill-rule="evenodd" stroke="none"/>
    <path d="M-30.85 -34.9 L-29.05 -32.65 -28.1 -31.55 -32.05 -27.95 Q-36.25 -16.6 -32.5 -10.1 -15.4 13.15 -13.35 5.5 -12.55 12.15 -10.5 19.1 -13.25 15.3 -24.95 6.05 L-26.5 4.75 -30.8 1.2 Q-37.95 -5.45 -39.55 -10.45 -42.85 -21.2 -31.35 -34.25 L-30.85 -34.9 M-13.8 -4.8 L-13.8 -4.05 -13.9 -4.5 -13.8 -4.8" fill="#ffffff" fill-rule="evenodd" stroke="none"/>
    <path d="M-13.8 -4.05 Q-12.6 2.75 -13.35 5.5 -13.95 0.6 -13.8 -4.05" fill="#c3b3a3" fill-rule="evenodd" stroke="none"/>
    <path d="M-28.1 -31.55 Q-25.9 -29.15 -23.55 -27.4 -20.25 -24.95 -14.5 -22.1 L-10.8 -20.3 -12.8 -14.95 Q-13.7 -10.0 -13.8 -4.8 L-13.9 -4.5 -13.8 -4.05 Q-13.95 0.6 -13.35 5.5 -15.4 13.15 -32.5 -10.1 -36.25 -16.6 -32.05 -27.95 L-28.1 -31.55" fill="#c9e9dc" fill-rule="evenodd" stroke="none"/>
    <path d="M-30.85 -34.9 Q-28.1 -38.2 -20.75 -42.05 L-20.3 -42.25 Q-12.2 -46.7 -8.9 -51.95 -6.4 -53.1 -3.95 -54.3 -3.75 -47.65 -4.5 -43.4 L-4.6 -42.75 Q-5.4 -38.45 -6.6 -33.9 L-7.75 -29.55 -10.8 -20.3 -14.5 -22.1 Q-20.25 -24.95 -23.55 -27.4 -25.9 -29.15 -28.1 -31.55 L-29.05 -32.65 -30.85 -34.9" fill="#8dc7b5" fill-rule="evenodd" stroke="none"/>
    <path d="M-4.5 -43.4 Q-3.75 -47.65 -3.95 -54.3 -6.4 -53.1 -8.9 -51.95 -12.2 -46.7 -20.3 -42.25 L-20.75 -42.05 Q-28.1 -38.2 -30.85 -34.9 L-31.35 -34.25 Q-42.85 -21.2 -39.55 -10.45 -37.95 -5.45 -30.8 1.2 L-26.5 4.75 -24.95 6.05 Q-13.25 15.3 -10.5 19.1 -12.55 12.15 -13.35 5.5 -13.95 0.6 -13.8 -4.05 L-13.8 -4.8 Q-13.7 -10.0 -12.8 -14.95 L-10.8 -20.3 -7.75 -29.55 M-6.6 -33.9 Q-5.4 -38.45 -4.6 -42.75" ffdec:has-small-stroke="true" ffdec:original-stroke-width="0.05" fill="none" stroke="#000000" stroke-linecap="round" stroke-linejoin="round" stroke-opacity="0.4" stroke-width="1.0"/>
    <path d="M-57.25 -32.4 L-57.35 -33.0 -57.45 -33.35 -57.25 -33.0 -57.0 -32.5 -57.25 -32.4" fill="#ada37c" fill-rule="evenodd" stroke="none"/>
    <path d="M-57.45 -33.35 L-57.4 -34.55 -57.3 -36.0 Q-56.95 -38.65 -55.2 -41.05 -54.0 -42.1 -52.9 -40.9 L-51.6 -38.45 Q-49.5 -35.9 -46.5 -34.25 -43.7 -32.3 -40.35 -31.9 L-26.9 -30.75 -22.95 -26.65 -24.75 -26.35 Q-19.65 -23.25 -30.4 -23.8 L-41.25 -24.7 -49.15 -26.9 Q-54.7 -27.85 -57.0 -32.5 L-57.25 -33.0 -57.45 -33.35" fill="#366d61" fill-rule="evenodd" stroke="none"/>
    <path d="M-26.9 -30.75 L-19.7 -29.75 -19.05 -26.8 -15.15 -26.4 -16.3 -25.5 Q-18.05 -24.65 -18.35 -23.85 L-19.5 -22.9 -17.55 -21.75 Q-15.45 -19.25 -16.7 -17.05 L-23.25 -18.8 -18.5 -12.75 -46.7 -19.7 Q-56.45 -23.1 -57.25 -32.4 L-57.0 -32.5 Q-54.7 -27.85 -49.15 -26.9 L-41.25 -24.7 -30.4 -23.8 Q-19.65 -23.25 -24.75 -26.35 L-22.95 -26.65 -26.9 -30.75" fill="#29544a" fill-rule="evenodd" stroke="none"/>
    <path d="M-57.45 -33.35 L-57.4 -34.55 -57.3 -36.0 Q-56.95 -38.65 -55.2 -41.05 -54.0 -42.1 -52.9 -40.9 L-51.6 -38.45 Q-49.5 -35.9 -46.5 -34.25 -43.7 -32.3 -40.35 -31.9 L-26.9 -30.75" ffdec:has-small-stroke="true" ffdec:original-stroke-width="0.5" fill="none" stroke="#d1cbb5" stroke-linecap="round" stroke-linejoin="round" stroke-width="1.0"/>
    <path d="M-18.5 -12.75 L-46.7 -19.7 Q-56.45 -23.1 -57.25 -32.4" ffdec:has-small-stroke="true" ffdec:original-stroke-width="0.5" fill="none" stroke="#4f4531" stroke-linecap="round" stroke-linejoin="round" stroke-width="1.0"/>
    <path d="M-57.25 -32.4 L-57.35 -33.0" ffdec:has-small-stroke="true" ffdec:original-stroke-width="0.5" fill="none" stroke="#756646" stroke-linecap="round" stroke-linejoin="round" stroke-width="1.0"/>
    <path d="M-11.7 -12.05 L-12.45 -14.0 Q-8.6 -24.45 -3.5 -26.5 L-2.2 -26.9 -1.15 -27.2 Q2.9 -28.05 7.15 -26.0 12.7 -23.6 14.85 -19.55 16.25 -16.9 16.65 -14.1 L15.9 -14.6 Q-3.65 -28.3 -11.55 -12.4 L-11.7 -12.05" fill="#cecab0" fill-rule="evenodd" stroke="none"/>
    <path d="M16.65 -14.1 L16.65 -13.95 16.75 -13.25 16.8 -12.5 16.75 -11.15 Q16.5 -6.7 14.55 -2.5 12.8 0.95 5.05 -0.55 L1.8 -1.3 Q-4.25 -3.15 -7.95 -7.0 -10.55 -9.75 -11.7 -12.05 L-11.55 -12.4 Q-3.65 -28.3 15.9 -14.6 L16.65 -14.1" fill="#ffffff" fill-rule="evenodd" stroke="none"/>
    <path d="M-11.7 -12.05 L-12.45 -14.0 Q-8.6 -24.45 -3.5 -26.5 L-2.2 -26.9 -1.15 -27.2 Q2.9 -28.05 7.15 -26.0 12.7 -23.6 14.85 -19.55 16.25 -16.9 16.65 -14.1 L16.65 -13.95 16.75 -13.25 16.8 -12.5 16.75 -11.15 Q16.5 -6.7 14.55 -2.5 12.8 0.95 5.05 -0.55 L1.8 -1.3 Q-4.25 -3.15 -7.95 -7.0 -10.55 -9.75 -11.7 -12.05 Z" fill="none" stroke="#2b2b2b" stroke-linecap="round" stroke-linejoin="round" stroke-opacity="0.6901961" stroke-width="1.0"/>
    <path d="M6.55 -12.7 L6.85 -14.0 7.35 -15.0 Q10.35 -18.3 13.6 -15.1 L14.15 -14.1 14.45 -13.4 Q9.7 -14.8 6.55 -12.7" fill="#366d61" fill-rule="evenodd" stroke="none"/>
    <path d="M6.55 -12.7 Q9.7 -14.8 14.45 -13.4 14.7 -12.4 14.4 -11.3 L14.25 -10.9 Q13.7 -9.45 12.2 -8.75 L9.15 -8.7 Q7.65 -9.35 7.0 -10.8 L6.9 -10.9 Q6.5 -11.85 6.55 -12.7" fill="#8dc7b5" fill-rule="evenodd" stroke="none"/>
    <path d="M27.5 -57.9 L33.7 -49.3 35.55 -32.4 Q28.2 -25.05 14.6 -21.75 L17.6 -35.5 27.75 -44.2 27.5 -57.9" fill="#ffffff" fill-rule="evenodd" stroke="none"/>
    <path d="M14.4 -21.75 Q-2.4 -23.55 -13.65 -29.75 L-23.55 -41.95 -21.0 -57.25 -1.0 -69.65 26.35 -59.6 27.5 -57.9 27.75 -44.2 17.6 -35.5 14.6 -21.75 14.4 -21.75" fill="#c9e9dc" fill-rule="evenodd" stroke="none"/>
    <path d="M14.4 -21.75 Q-2.4 -23.55 -13.65 -29.75 L-23.55 -41.95 -21.0 -57.25 -1.0 -69.65 26.35 -59.6 27.5 -57.9 33.7 -49.3 35.55 -32.4 Q28.2 -25.05 14.6 -21.75" ffdec:has-small-stroke="true" ffdec:original-stroke-width="0.05" fill="none" stroke="#000000" stroke-linecap="round" stroke-linejoin="round" stroke-opacity="0.4" stroke-width="1.0"/>
    <path d="M30.35 -41.8 L29.45 -42.0 29.55 -42.2 30.35 -41.8" fill="#dfaf0b" fill-rule="evenodd" stroke="none"/>
    <path d="M31.3 -60.0 L32.0 -59.85 32.0 -59.1 31.3 -60.0 M33.35 -41.3 L33.15 -41.2 33.15 -41.35 33.35 -41.3 M32.8 -41.1 L32.75 -41.1 32.6 -41.1 32.5 -41.1 32.8 -41.1 M24.2 -51.95 L24.4 -52.0 24.4 -51.9 24.2 -51.95" fill="#ffcf2b" fill-rule="evenodd" stroke="none"/>
    <path d="M38.25 -54.65 L39.1 -53.6 39.65 -52.75 38.55 -52.55 38.25 -54.65 M26.3 -27.2 L27.45 -23.25 24.55 -17.05 22.05 -16.65 24.3 -19.65 25.65 -24.2 25.6 -27.5 26.3 -27.2" fill="#ffffd7" fill-rule="evenodd" stroke="none"/>
    <path d="M33.15 -41.2 L32.8 -41.1 33.15 -41.35 33.15 -41.2" fill="#d1a100" fill-rule="evenodd" stroke="none"/>
    <path d="M31.3 -55.95 L31.25 -56.1 31.35 -56.1 31.3 -55.95" fill="#ffe541" fill-rule="evenodd" stroke="none"/>
    <path d="M24.55 -60.55 Q24.7 -61.25 24.45 -61.85 24.25 -63.4 21.95 -64.75 25.55 -64.35 27.3 -61.25 27.0 -62.4 26.95 -63.9 L27.05 -65.35 27.0 -66.85 31.1 -60.25 31.3 -60.0 32.0 -59.1 32.0 -59.85 Q32.05 -63.55 34.85 -65.35 37.2 -67.2 41.55 -67.8 35.2 -65.3 35.3 -60.1 L35.5 -59.1 Q35.4 -58.75 35.55 -58.35 35.7 -57.45 36.15 -56.2 L36.8 -55.7 37.15 -55.6 38.25 -54.65 38.55 -52.55 39.65 -52.75 Q41.4 -49.6 40.0 -46.4 L38.45 -44.3 37.0 -43.25 Q38.65 -44.5 39.15 -47.65 L39.25 -48.0 Q38.55 -51.8 35.15 -51.45 34.6 -56.75 32.0 -59.1 L31.35 -56.1 31.25 -56.1 Q29.4 -62.6 27.3 -58.65 25.45 -62.2 24.55 -60.55 M20.0 -52.25 L21.2 -52.4 24.2 -51.95 24.4 -51.9 Q26.1 -51.35 27.05 -50.6 L27.3 -50.35 Q27.75 -49.75 27.5 -49.4 27.05 -48.95 25.55 -48.9 L22.4 -49.4 22.0 -49.55 20.7 -50.15 19.7 -50.7 Q18.75 -51.45 19.2 -51.9 19.3 -52.25 20.0 -52.25 M27.3 -61.25 L27.45 -61.2 Q27.55 -59.9 27.3 -58.65 27.55 -59.9 27.45 -61.2 L27.3 -61.25 M35.15 -51.45 Q36.1 -52.55 38.55 -52.55 36.1 -52.55 35.15 -51.45" fill="#f0f8f5" fill-rule="evenodd" stroke="none"/>
    <path d="M18.45 -56.85 L19.85 -57.5 19.65 -58.1 Q16.55 -61.7 14.8 -60.6 17.05 -62.3 21.85 -59.85 L22.35 -59.5 23.95 -59.4 24.2 -59.7 24.55 -60.55 Q25.45 -62.2 27.3 -58.65 29.4 -62.6 31.25 -56.1 L31.3 -55.95 31.35 -56.1 32.0 -59.1 Q34.6 -56.75 35.15 -51.45 38.55 -51.8 39.25 -48.0 L39.15 -47.65 Q38.65 -44.5 37.0 -43.25 L36.9 -43.2 36.65 -43.0 36.05 -42.65 Q34.0 -41.55 33.35 -41.3 L33.15 -41.35 32.8 -41.1 32.5 -41.1 30.35 -41.8 29.55 -42.2 Q23.05 -45.6 21.0 -49.15 L20.7 -50.15 22.0 -49.55 22.4 -49.4 25.55 -48.9 Q27.05 -48.95 27.5 -49.4 27.75 -49.75 27.3 -50.35 L27.05 -50.6 Q26.1 -51.35 24.4 -51.9 L24.4 -52.0 24.2 -51.95 21.2 -52.4 20.0 -52.25 Q18.6 -53.55 18.45 -55.6 L18.45 -56.85 M22.05 -16.65 L20.35 -16.5 19.7 -17.0 22.45 -19.55 23.1 -24.35 22.85 -24.8 21.3 -30.65 25.6 -27.5 25.65 -24.2 24.3 -19.65 22.05 -16.65 M30.85 -50.3 Q27.8 -53.65 24.4 -52.0 27.8 -53.65 30.85 -50.3" fill="#c5e2d9" fill-rule="evenodd" stroke="none"/>
    <path d="M25.8 -35.2 Q24.9 -33.55 24.9 -31.75 L26.3 -27.2 25.6 -27.5 21.3 -30.65 14.85 -42.7 Q14.8 -44.0 15.4 -45.25 L14.75 -45.65 16.75 -46.4 19.35 -45.4 18.7 -45.2 19.7 -44.95 19.95 -44.9 22.1 -41.15 22.05 -41.15 25.8 -35.2 M17.1 -24.0 L17.2 -24.35 21.05 -24.25 21.05 -22.55 20.0 -21.7 17.1 -24.0" fill="#648461" fill-rule="evenodd" stroke="none"/>
    <path d="M32.6 -41.1 L32.4 -41.05 Q27.5 -38.3 25.8 -35.2 L22.05 -41.15 22.1 -41.15 19.95 -44.9 20.45 -44.65 29.45 -42.0 30.35 -41.8 32.5 -41.1 32.6 -41.1" fill="#516a4f" fill-rule="evenodd" stroke="none"/>
    <path d="M19.7 -17.0 L15.95 -20.95 17.1 -24.0 20.0 -21.7 21.05 -22.55 21.05 -24.25 20.0 -29.65 Q19.75 -31.9 12.05 -40.75 10.6 -43.4 11.65 -48.35 L13.05 -50.55 Q13.4 -51.95 14.85 -53.75 15.95 -55.55 18.45 -56.85 L18.45 -55.6 Q18.6 -53.55 20.0 -52.25 19.3 -52.25 19.2 -51.9 18.75 -51.45 19.7 -50.7 L20.7 -50.15 21.0 -49.15 Q23.05 -45.6 29.55 -42.2 L29.45 -42.0 20.45 -44.65 19.95 -44.9 19.7 -44.95 18.7 -45.2 19.35 -45.4 16.75 -46.4 14.75 -45.65 15.4 -45.25 Q14.8 -44.0 14.85 -42.7 L21.3 -30.65 22.85 -24.8 23.1 -24.35 22.45 -19.55 19.7 -17.0 M13.05 -50.55 L12.95 -49.4 13.05 -50.55" fill="#8dc7b5" fill-rule="evenodd" stroke="none"/>
    <path d="M18.45 -56.85 L19.85 -57.5 19.65 -58.1 Q16.55 -61.7 14.8 -60.6 17.05 -62.3 21.85 -59.85 L22.35 -59.5 23.95 -59.4 24.2 -59.7 24.55 -60.55 Q24.7 -61.25 24.45 -61.85 24.25 -63.4 21.95 -64.75 25.55 -64.35 27.3 -61.25 27.0 -62.4 26.95 -63.9 M27.05 -65.35 L27.0 -66.85 31.1 -60.25 31.3 -60.0 32.0 -59.85 Q32.05 -63.55 34.85 -65.35 37.2 -67.2 41.55 -67.8 35.2 -65.3 35.3 -60.1 M35.5 -59.1 Q35.4 -58.75 35.55 -58.35 35.7 -57.45 36.15 -56.2 L36.8 -55.7 37.15 -55.6 38.25 -54.65 39.1 -53.6 39.65 -52.75 Q41.4 -49.6 40.0 -46.4 L38.45 -44.3 37.0 -43.25 36.9 -43.2 36.65 -43.0 36.05 -42.65 Q34.0 -41.55 33.35 -41.3 L33.15 -41.35 32.8 -41.1 32.75 -41.1 32.6 -41.1 32.5 -41.1 30.35 -41.8 29.45 -42.0 20.45 -44.65 19.95 -44.9 19.7 -44.95 18.7 -45.2 M32.4 -41.05 Q27.5 -38.3 25.8 -35.2 24.9 -33.55 24.9 -31.75 L26.3 -27.2 27.45 -23.25 24.55 -17.05 22.05 -16.65 20.35 -16.5 19.7 -17.0 15.95 -20.95 17.1 -24.0 17.2 -24.35 21.05 -24.25 20.0 -29.65 Q19.75 -31.9 12.05 -40.75 10.6 -43.4 11.65 -48.35 L13.05 -50.55 Q13.4 -51.95 14.85 -53.75 15.95 -55.55 18.45 -56.85 M24.2 -51.95 L24.4 -52.0 Q27.8 -53.65 30.85 -50.3 M27.3 -58.65 Q27.55 -59.9 27.45 -61.2 L27.3 -61.25 M31.35 -56.1 L32.0 -59.1 31.3 -60.0 M31.35 -56.1 L31.3 -55.95 M32.0 -59.1 L32.0 -59.85 M38.55 -52.55 L39.65 -52.75 M38.55 -52.55 Q36.1 -52.55 35.15 -51.45 M21.05 -22.55 L21.05 -24.25 M12.95 -49.4 L13.05 -50.55" ffdec:has-small-stroke="true" ffdec:original-stroke-width="0.05" fill="none" stroke="#000000" stroke-linecap="round" stroke-linejoin="round" stroke-opacity="0.3019608" stroke-width="1.0"/>
    <path d="M28.1 -28.1 L27.9 -28.05 27.85 -28.2 28.1 -28.1" fill="#ffcf2b" fill-rule="evenodd" stroke="none"/>
    <path d="M25.6 -27.85 L25.4 -27.8 25.4 -27.95 25.6 -27.85" fill="#ffffd7" fill-rule="evenodd" stroke="none"/>
    <path d="M-0.65 -32.4 L2.1 -31.7 3.6 -31.15 10.9 -19.5 7.1 -20.3 -0.65 -32.4 M1.15 -22.15 Q-20.3 -30.7 -25.8 -38.6 L-23.35 -46.2 Q-16.2 -38.85 -5.5 -34.4 L1.15 -22.15" fill="#648461" fill-rule="evenodd" stroke="none"/>
    <path d="M28.1 -28.1 L28.15 -28.35 31.8 -29.3 32.45 -21.15 28.7 -19.9 27.9 -28.05 28.1 -28.1 M25.4 -27.95 L25.4 -27.8 26.25 -19.4 23.7 -18.9 13.25 -19.25 10.9 -19.5 3.6 -31.15 Q16.25 -27.2 25.4 -27.95 M7.1 -20.3 L4.6 -20.9 1.15 -22.15 -5.5 -34.4 -0.65 -32.4 7.1 -20.3" fill="#c5e2d9" fill-rule="evenodd" stroke="none"/>
    <path d="M27.9 -28.05 L28.7 -19.9 26.25 -19.4 25.4 -27.8 25.6 -27.85 27.85 -28.2 27.9 -28.05 M32.45 -21.15 L31.8 -29.3 32.6 -29.55 Q34.4 -30.35 35.25 -31.75 L36.4 -23.65 Q34.75 -22.25 32.45 -21.15" fill="#f0f8f5" fill-rule="evenodd" stroke="none"/>
    <path d="M1.15 -22.15 Q-20.3 -30.7 -25.8 -38.6 L-23.35 -46.2 Q-16.2 -38.85 -5.5 -34.4" ffdec:has-small-stroke="true" ffdec:original-stroke-width="0.05" fill="none" stroke="#000000" stroke-linecap="round" stroke-linejoin="round" stroke-opacity="0.4" stroke-width="1.0"/>
    <path d="M28.15 -28.35 L28.1 -28.1 M25.6 -27.85 L27.85 -28.2 M-0.65 -32.4 L2.1 -31.7 3.6 -31.15 Q16.25 -27.2 25.4 -27.95 M7.1 -20.3 L4.6 -20.9 1.15 -22.15 M-5.5 -34.4 L-0.65 -32.4 M7.1 -20.3 L10.9 -19.5 13.25 -19.25 23.7 -18.9 26.25 -19.4" ffdec:has-small-stroke="true" ffdec:original-stroke-width="0.05" fill="none" stroke="#000000" stroke-linecap="round" stroke-linejoin="round" stroke-opacity="0.4" stroke-width="1.0"/>
    <path d="M28.7 -19.9 L32.45 -21.15 Q34.75 -22.25 36.4 -23.65 L35.25 -31.75 Q34.4 -30.35 32.6 -29.55 M31.8 -29.3 L28.15 -28.35 M26.25 -19.4 L28.7 -19.9" ffdec:has-small-stroke="true" ffdec:original-stroke-width="0.05" fill="none" stroke="#000000" stroke-linecap="round" stroke-linejoin="round" stroke-opacity="0.4" stroke-width="1.0"/>
  </g>
</svg>
