<?xml version="1.0" encoding="UTF-8" standalone="no"?>
<svg xmlns:ffdec="https://www.free-decompiler.com/flash" xmlns:xlink="http://www.w3.org/1999/xlink" ffdec:objectType="shape" height="46.9px" width="28.0px" xmlns="http://www.w3.org/2000/svg">
  <g transform="matrix(1.0, 0.0, 0.0, 1.0, 17.0, 42.65)">
    <path d="M-5.5 -8.75 L-7.45 -6.75 -10.6 -9.15 -13.95 -6.95 -14.25 -7.4 -14.05 -7.65 Q-12.8 -9.3 -9.1 -10.9 -7.95 -9.65 -5.5 -8.75" fill="#ffffed" fill-rule="evenodd" stroke="none"/>
    <path d="M-13.95 -6.95 L-10.6 -9.15 -7.45 -6.75 -5.5 -8.75 -2.35 -7.9 -1.25 -4.5 -2.3 -1.5 -6.2 -2.25 -10.0 -6.45 -13.1 -5.55 -13.95 -6.95 M-10.75 -7.45 L-10.0 -6.45 -10.75 -7.45" fill="#a2bb86" fill-rule="evenodd" stroke="none"/>
    <path d="M-13.95 -6.95 L-13.1 -5.55 -10.0 -6.45 -10.75 -7.45 M-14.25 -7.4 L-13.95 -6.95 M-10.0 -6.45 L-6.2 -2.25 -2.3 -1.5 -1.25 -4.5 -2.35 -7.9 -5.5 -8.75" ffdec:has-small-stroke="true" ffdec:original-stroke-width="0.5" fill="none" stroke="#768f5d" stroke-linecap="round" stroke-linejoin="round" stroke-opacity="0.7019608" stroke-width="1.0"/>
    <path d="M-5.5 -8.75 Q-7.95 -9.65 -9.1 -10.9 -12.8 -9.3 -14.05 -7.65 L-14.25 -7.4" ffdec:has-small-stroke="true" ffdec:original-stroke-width="0.5" fill="none" stroke="#768f5d" stroke-linecap="round" stroke-linejoin="round" stroke-opacity="0.7019608" stroke-width="1.0"/>
    <path d="M-7.6 -7.8 Q-8.05 -7.65 -8.45 -7.45 L-8.4 -7.8 Q-7.95 -9.9 -5.95 -11.45 -5.25 -9.6 -2.65 -7.85 -4.95 -8.8 -7.6 -7.8" fill="#aba28e" fill-rule="evenodd" stroke="none"/>
    <path d="M7.35 -2.2 L7.05 -3.5 7.9 -2.8 7.35 -2.2" fill="#511531" fill-rule="evenodd" stroke="none"/>
    <path d="M6.55 -1.4 L6.95 -0.55 5.45 0.0 4.25 -0.2 1.15 -1.65 -0.2 -3.55 4.1 -6.0 7.05 -3.5 7.35 -2.2 7.55 -1.8 6.55 -1.4 6.15 -2.6 6.55 -1.4" fill="#b6c7a7" fill-rule="evenodd" stroke="none"/>
    <path d="M7.05 -3.5 L4.1 -6.0 -0.2 -3.55 1.15 -1.65 4.25 -0.2 5.45 0.0 6.95 -0.55 6.55 -1.4 6.15 -2.6 M7.35 -2.2 L7.05 -3.5 7.9 -2.8 7.35 -2.2 7.55 -1.8 6.55 -1.4" ffdec:has-small-stroke="true" ffdec:original-stroke-width="0.5" fill="none" stroke="#768f5d" stroke-linecap="round" stroke-linejoin="round" stroke-opacity="0.7019608" stroke-width="1.0"/>
    <path d="M5.35 -7.45 L6.5 -6.75 7.2 -5.6 Q7.65 -4.35 6.8 -3.5 5.95 -2.65 4.95 -2.4 L2.65 -2.65 Q2.55 -2.65 2.55 -2.7 1.4 -3.2 1.15 -3.95 L1.05 -4.5 Q0.95 -4.95 1.4 -5.8 1.9 -6.65 2.9 -7.35 L5.35 -7.45" fill="#b6c7a7" fill-rule="evenodd" stroke="none"/>
    <path d="M5.35 -7.45 L2.9 -7.35 Q1.9 -6.65 1.4 -5.8 0.95 -4.95 1.05 -4.5 L1.15 -3.95 Q1.4 -3.2 2.55 -2.7 2.55 -2.65 2.65 -2.65 L4.95 -2.4 Q5.95 -2.65 6.8 -3.5 7.65 -4.35 7.2 -5.6 L6.5 -6.75 5.35 -7.45 Z" ffdec:has-small-stroke="true" ffdec:original-stroke-width="0.5" fill="none" stroke="#768f5d" stroke-linecap="round" stroke-linejoin="round" stroke-opacity="0.7019608" stroke-width="1.0"/>
    <path d="M4.35 -2.1 L4.15 -1.8 4.1 -1.75 4.1 -1.8 4.25 -2.1 4.3 -2.1 4.35 -2.1" fill="#cfd1b8" fill-rule="evenodd" stroke="none"/>
    <path d="M4.1 -1.75 L4.0 -1.6 3.55 -1.1 Q2.1 0.3 0.15 0.3 L-0.75 0.25 0.1 -0.1 Q0.45 -0.55 0.3 -1.4 L0.25 -1.65 0.25 -1.85 0.2 -2.75 0.35 -4.0 Q1.2 -6.75 2.55 -6.55 3.2 -6.5 3.95 -5.75 L4.35 -4.95 4.35 -4.9 4.4 -4.8 4.65 -4.05 Q4.8 -3.2 4.3 -2.1 L4.25 -2.1 4.1 -1.8 4.1 -1.75 M0.2 -2.75 L2.15 -3.2 Q3.7 -3.8 4.4 -4.8 3.7 -3.8 2.15 -3.2 L0.2 -2.75" fill="#aba28e" fill-rule="evenodd" stroke="none"/>
    <path d="M-0.75 0.25 L-0.85 0.25 Q-2.25 -0.05 -3.25 -1.1 -4.7 -2.5 -4.7 -4.5 -4.7 -6.15 -3.75 -7.35 L-3.25 -7.9 -1.95 -8.85 0.15 -9.3 1.4 -9.15 2.45 -8.75 3.5 -7.95 3.55 -7.9 Q4.65 -6.75 4.9 -5.2 L4.95 -4.5 Q4.95 -3.2 4.35 -2.1 L4.3 -2.1 Q4.8 -3.2 4.65 -4.05 L4.4 -4.8 4.35 -4.9 4.35 -4.95 3.95 -5.75 Q3.2 -6.5 2.55 -6.55 1.2 -6.75 0.35 -4.0 L0.2 -2.75 0.25 -1.85 0.25 -1.65 0.3 -1.4 Q0.45 -0.55 0.1 -0.1 L-0.75 0.25" fill="#a2bb86" fill-rule="evenodd" stroke="none"/>
    <path d="M-0.75 0.25 L-0.85 0.25 Q-2.25 -0.05 -3.25 -1.1 -4.7 -2.5 -4.7 -4.5 -4.7 -6.15 -3.75 -7.35 L-3.25 -7.9 -1.95 -8.85 0.15 -9.3 1.4 -9.15 2.45 -8.75 3.5 -7.95 3.55 -7.9 Q4.65 -6.75 4.9 -5.2 L4.95 -4.5 Q4.95 -3.2 4.35 -2.1 L4.15 -1.8 4.1 -1.75 4.0 -1.6 3.55 -1.1 Q2.1 0.3 0.15 0.3 L-0.75 0.25 0.1 -0.1 Q0.45 -0.55 0.3 -1.4 L0.25 -1.65 0.25 -1.85 0.2 -2.75 0.35 -4.0 Q1.2 -6.75 2.55 -6.55 3.2 -6.5 3.95 -5.75 L4.35 -4.95 4.35 -4.9 4.4 -4.8 4.65 -4.05 Q4.8 -3.2 4.3 -2.1 L4.25 -2.1 4.1 -1.8 4.1 -1.75" ffdec:has-small-stroke="true" ffdec:original-stroke-width="0.5" fill="none" stroke="#768f5d" stroke-linecap="round" stroke-linejoin="round" stroke-opacity="0.7019608" stroke-width="1.0"/>
    <path d="M4.4 -4.8 Q3.7 -3.8 2.15 -3.2 L0.2 -2.75" ffdec:has-small-stroke="true" ffdec:original-stroke-width="0.5" fill="none" stroke="#768f5d" stroke-linecap="round" stroke-linejoin="round" stroke-opacity="0.7019608" stroke-width="1.0"/>
    <path d="M3.6 -7.85 Q1.95 -6.85 0.1 -7.0 L-1.35 -7.35 Q-2.05 -7.6 -2.8 -8.0 -2.55 -8.15 -2.05 -9.0 -1.35 -10.1 -2.0 -13.05 -1.7 -14.45 -0.25 -13.05 L3.6 -7.85" fill="#a2bb86" fill-rule="evenodd" stroke="none"/>
    <path d="M-2.8 -8.0 Q-2.55 -8.15 -2.05 -9.0 -1.35 -10.1 -2.0 -13.05 -1.7 -14.45 -0.25 -13.05 L3.6 -7.85" ffdec:has-small-stroke="true" ffdec:original-stroke-width="0.5" fill="none" stroke="#768f5d" stroke-linecap="round" stroke-linejoin="round" stroke-opacity="0.7019608" stroke-width="1.0"/>
    <path d="M4.5 -6.5 L3.5 -5.0 3.7 -4.5 3.0 -4.65 2.3 -6.05 2.9 -5.95 2.7 -8.2 4.5 -6.5" fill="#f4ffdb" fill-rule="evenodd" stroke="none"/>
    <path d="M3.0 -4.65 L3.7 -4.5 3.5 -5.0 4.5 -6.5" ffdec:has-small-stroke="true" ffdec:original-stroke-width="0.5" fill="none" stroke="#768f5d" stroke-linecap="round" stroke-linejoin="round" stroke-opacity="0.7019608" stroke-width="1.0"/>
    <path d="M2.7 -8.2 L2.9 -5.95 2.3 -6.05 3.0 -4.65" ffdec:has-small-stroke="true" ffdec:original-stroke-width="0.5" fill="none" stroke="#768f5d" stroke-linecap="round" stroke-linejoin="round" stroke-opacity="0.7019608" stroke-width="1.0"/>
    <path d="M1.65 -3.1 L0.2 -3.05 0.2 -3.95 -2.2 -5.25 -0.65 -6.8 1.15 -4.1 1.65 -4.1 1.65 -3.1" fill="#f4ffdb" fill-rule="evenodd" stroke="none"/>
    <path d="M-2.2 -5.25 L0.2 -3.95 0.2 -3.05 1.65 -3.1" ffdec:has-small-stroke="true" ffdec:original-stroke-width="0.5" fill="none" stroke="#768f5d" stroke-linecap="round" stroke-linejoin="round" stroke-opacity="0.7019608" stroke-width="1.0"/>
    <path d="M1.65 -3.1 L1.65 -4.1 1.15 -4.1 -0.65 -6.8" ffdec:has-small-stroke="true" ffdec:original-stroke-width="0.5" fill="none" stroke="#768f5d" stroke-linecap="round" stroke-linejoin="round" stroke-opacity="0.7019608" stroke-width="1.0"/>
    <path d="M-1.7 1.25 L-1.6 1.35 -1.9 3.1 -3.75 3.6 -4.3 3.05 -5.25 3.8 -5.9 3.6 -7.1 4.0 -8.35 3.35 -8.3 1.7 -5.65 1.25 Q-3.45 1.0 -1.7 1.25 M-5.65 1.25 L-5.9 3.6 -5.65 1.25 M-3.7 1.7 L-4.3 3.05 -3.7 1.7" fill="#ffffed" fill-rule="evenodd" stroke="none"/>
    <path d="M-8.3 1.7 L-8.25 1.45 -7.2 -0.4 -3.35 -1.3 -1.7 1.25 Q-3.45 1.0 -5.65 1.25 L-8.3 1.7" fill="#b6c7a7" fill-rule="evenodd" stroke="none"/>
    <path d="M-8.3 1.7 L-8.25 1.45 -7.2 -0.4 -3.35 -1.3 -1.7 1.25 -1.6 1.35 -1.9 3.1 -3.75 3.6 -4.3 3.05 -5.25 3.8 -5.9 3.6 -7.1 4.0 -8.35 3.35 -8.3 1.7" ffdec:has-small-stroke="true" ffdec:original-stroke-width="0.5" fill="none" stroke="#768f5d" stroke-linecap="round" stroke-linejoin="round" stroke-opacity="0.7019608" stroke-width="1.0"/>
    <path d="M-4.3 3.05 L-3.7 1.7 M-5.9 3.6 L-5.65 1.25" ffdec:has-small-stroke="true" ffdec:original-stroke-width="0.5" fill="none" stroke="#768f5d" stroke-linecap="round" stroke-linejoin="round" stroke-opacity="0.7019608" stroke-width="1.0"/>
    <path d="M-7.95 -2.1 L-7.2 -3.35 Q-6.4 -4.25 -4.7 -4.25 L-3.15 -4.0 -1.95 -3.25 Q-1.15 -2.55 -1.25 -1.85 -2.45 -0.55 -4.9 -0.45 -6.15 -0.65 -7.95 -2.1" fill="#ffffed" fill-rule="evenodd" stroke="none"/>
    <path d="M-1.25 -1.85 L-1.45 -1.25 Q-2.1 -0.25 -3.0 0.35 -3.9 0.95 -4.45 1.0 L-5.15 1.05 Q-6.2 1.05 -7.05 0.3 L-7.15 0.25 -7.15 0.2 Q-8.05 -0.65 -8.0 -1.55 L-7.95 -2.1 Q-6.15 -0.65 -4.9 -0.45 -2.45 -0.55 -1.25 -1.85" fill="#b6c7a7" fill-rule="evenodd" stroke="none"/>
    <path d="M-7.95 -2.1 L-7.2 -3.35 Q-6.4 -4.25 -4.7 -4.25 L-3.15 -4.0 -1.95 -3.25 Q-1.15 -2.55 -1.25 -1.85" ffdec:has-small-stroke="true" ffdec:original-stroke-width="0.5" fill="none" stroke="#768f5d" stroke-linecap="round" stroke-linejoin="round" stroke-opacity="0.7019608" stroke-width="1.0"/>
    <path d="M-1.25 -1.85 L-1.45 -1.25 Q-2.1 -0.25 -3.0 0.35 -3.9 0.95 -4.45 1.0 L-5.15 1.05 Q-6.2 1.05 -7.05 0.3 L-7.15 0.25 -7.15 0.2 Q-8.05 -0.65 -8.0 -1.55 L-7.95 -2.1" ffdec:has-small-stroke="true" ffdec:original-stroke-width="0.5" fill="none" stroke="#768f5d" stroke-linecap="round" stroke-linejoin="round" stroke-opacity="0.7019608" stroke-width="1.0"/>
    <path d="M9.05 -19.75 L6.45 -23.25 Q8.05 -24.5 10.6 -24.55 11.2 -22.45 9.05 -19.75" fill="#cac4b1" fill-rule="evenodd" stroke="none"/>
    <path d="M6.45 -23.25 Q8.05 -24.5 10.6 -24.55 11.2 -22.45 9.05 -19.75" ffdec:has-small-stroke="true" ffdec:original-stroke-width="0.5" fill="none" stroke="#768f5d" stroke-linecap="round" stroke-linejoin="round" stroke-opacity="0.7019608" stroke-width="1.0"/>
    <path d="M-16.1 -27.45 L-15.3 -28.4 -13.9 -27.7 -13.5 -26.6 -13.85 -26.4 -16.1 -27.45 M-14.2 -28.7 L-14.5 -29.45 -13.35 -30.15 -12.25 -29.55 -12.05 -28.7 -13.2 -28.2 -14.2 -28.7" fill="#eaece1" fill-rule="evenodd" stroke="none"/>
    <path d="M-11.5 -26.5 L-8.55 -24.75 -9.05 -22.5 -16.75 -26.75 -16.1 -27.45 -13.85 -26.4 -13.5 -26.6 -13.9 -27.7 -14.2 -28.7 -13.2 -28.2 -12.05 -28.7 -11.5 -26.5 -11.25 -25.5 -11.5 -26.5 M-12.35 -25.25 L-13.3 -25.95 -13.5 -26.6 -13.3 -25.95 -12.35 -25.25" fill="#83c188" fill-rule="evenodd" stroke="none"/>
    <path d="M-16.1 -27.45 L-16.75 -26.75 -9.05 -22.5 -8.55 -24.75 -11.5 -26.5 -11.25 -25.5 M-16.1 -27.45 L-15.3 -28.4 -13.9 -27.7 -14.2 -28.7 -14.5 -29.45 -13.35 -30.15 -12.25 -29.55 -12.05 -28.7 -11.5 -26.5 M-13.5 -26.6 L-13.3 -25.95 -12.35 -25.25 M-13.9 -27.7 L-13.5 -26.6" ffdec:has-small-stroke="true" ffdec:original-stroke-width="0.5" fill="none" stroke="#768f5d" stroke-linecap="round" stroke-linejoin="round" stroke-opacity="0.7019608" stroke-width="1.0"/>
    <path d="M-3.7 -32.3 L-4.95 -32.25 -5.7 -33.1 -5.7 -33.95 -4.4 -34.15 -3.6 -33.2 -3.7 -32.3 M-5.8 -32.05 L-5.85 -30.9 -6.25 -30.85 -7.95 -32.65 -6.85 -33.25 -5.8 -32.05" fill="#eaece1" fill-rule="evenodd" stroke="none"/>
    <path d="M-5.7 -33.1 L-4.95 -32.25 -3.7 -32.3 -4.0 -30.1 -1.85 -27.4 -3.15 -25.45 -8.8 -32.25 -7.95 -32.65 -6.25 -30.85 -5.85 -30.9 -5.8 -32.05 -5.7 -33.1 M-5.25 -29.2 L-5.85 -30.2 -5.85 -30.9 -5.85 -30.2 -5.25 -29.2 M-4.0 -30.1 L-4.1 -29.05 -4.0 -30.1" fill="#83c188" fill-rule="evenodd" stroke="none"/>
    <path d="M-5.7 -33.1 L-5.8 -32.05 -5.85 -30.9 -5.85 -30.2 -5.25 -29.2 M-5.7 -33.1 L-5.7 -33.95 -4.4 -34.15 -3.6 -33.2 -3.7 -32.3 -4.0 -30.1 -1.85 -27.4 -3.15 -25.45 -8.8 -32.25 -7.95 -32.65 -6.85 -33.25 -5.8 -32.05 M-4.1 -29.05 L-4.0 -30.1" ffdec:has-small-stroke="true" ffdec:original-stroke-width="0.5" fill="none" stroke="#768f5d" stroke-linecap="round" stroke-linejoin="round" stroke-opacity="0.7019608" stroke-width="1.0"/>
    <path d="M7.95 -14.05 L9.5 -13.9 9.9 -10.7 9.0 -12.45 7.95 -14.05" fill="#aeaf85" fill-rule="evenodd" stroke="none"/>
    <path d="M9.9 -10.7 L10.75 -8.05 10.2 -7.6 Q9.4 -9.7 7.8 -11.7 7.9 -12.8 9.0 -12.45 L9.9 -10.7 M9.6 -7.0 Q9.85 -5.0 9.2 -2.05 L6.65 -6.4 5.95 -9.5 9.6 -7.0" fill="#eaece1" fill-rule="evenodd" stroke="none"/>
    <path d="M1.65 -10.2 L1.9 -11.7 2.35 -14.65 6.4 -14.2 7.95 -14.05 9.0 -12.45 Q7.9 -12.8 7.8 -11.7 9.4 -9.7 10.2 -7.6 L10.15 -7.6 9.25 -8.55 9.6 -7.0 5.95 -9.5 6.65 -6.4 Q4.35 -9.45 1.65 -10.2 M6.4 -14.2 L6.2 -10.9 1.9 -11.7 6.2 -10.9 6.4 -14.2 M8.4 -9.45 L9.25 -8.55 8.4 -9.45" fill="#a2bb86" fill-rule="evenodd" stroke="none"/>
    <path d="M9.5 -13.9 L9.9 -10.7 10.75 -8.05 10.2 -7.6 10.15 -7.6 9.25 -8.55 9.6 -7.0 Q9.85 -5.0 9.2 -2.05 L6.65 -6.4 Q4.35 -9.45 1.65 -10.2 M7.95 -14.05 L9.0 -12.45 9.9 -10.7 M9.25 -8.55 L8.4 -9.45 M1.9 -11.7 L6.2 -10.9 6.4 -14.2" ffdec:has-small-stroke="true" ffdec:original-stroke-width="0.5" fill="none" stroke="#768f5d" stroke-linecap="round" stroke-linejoin="round" stroke-opacity="0.7019608" stroke-width="1.0"/>
    <path d="M0.2 -18.95 L0.25 -18.85 0.15 -18.95 0.2 -18.95" fill="#cfd1b8" fill-rule="evenodd" stroke="none"/>
    <path d="M0.85 -10.7 L0.6 -10.85 0.6 -11.35 0.85 -10.7" fill="#eaece1" fill-rule="evenodd" stroke="none"/>
    <path d="M1.45 -9.15 L1.4 -9.2 1.45 -9.15" fill="#686742" fill-rule="evenodd" stroke="none"/>
    <path d="M-9.7 -23.4 L-9.45 -23.85 -0.75 -28.3 1.3 -26.9 1.4 -26.85 Q4.7 -24.7 8.7 -22.8 L9.1 -22.25 8.2 -20.75 3.0 -18.95 2.5 -18.95 1.4 -19.3 0.0 -19.6 Q-1.65 -19.25 -1.6 -19.8 L-1.9 -19.1 -4.0 -19.95 -9.7 -23.4 M9.85 -15.8 L9.8 -15.55 10.65 -13.3 Q6.95 -13.75 2.8 -10.35 L2.8 -12.6 Q6.3 -14.85 9.85 -15.8 M3.15 -20.05 L1.4 -20.65 -0.95 -20.8 -1.15 -20.55 -1.6 -19.8 -1.15 -20.55 -0.95 -20.8 1.4 -20.65 3.15 -20.05" fill="#ffffed" fill-rule="evenodd" stroke="none"/>
    <path d="M0.6 -10.85 Q-1.85 -12.1 -3.7 -12.2 L-6.75 -12.6 Q-8.95 -14.7 -9.0 -17.3 L-9.05 -17.4 -9.25 -19.2 Q-9.35 -21.35 -8.65 -21.35 -6.4 -20.8 -5.4 -14.15 L-3.65 -17.0 Q-1.15 -15.55 0.35 -12.05 L0.45 -11.7 0.6 -11.35 0.6 -10.85" fill="#a2bb86" fill-rule="evenodd" stroke="none"/>
    <path d="M9.1 -22.25 L10.25 -20.65 9.85 -15.8 Q6.3 -14.85 2.8 -12.6 L2.8 -10.35 1.45 -9.15 1.4 -9.2 Q0.75 -10.7 0.85 -10.7 L0.6 -11.35 0.45 -11.7 0.35 -12.05 Q-1.15 -15.55 -3.65 -17.0 L-5.4 -14.15 Q-6.4 -20.8 -8.65 -21.35 -9.35 -21.35 -9.25 -19.2 L-9.05 -17.4 -9.0 -17.3 Q-8.95 -14.7 -6.75 -12.6 -8.4 -13.3 -9.45 -14.95 -10.35 -17.4 -10.35 -19.95 -10.35 -22.15 -9.7 -23.4 L-4.0 -19.95 -1.9 -19.1 -1.6 -19.8 Q-1.65 -19.25 0.0 -19.6 L1.4 -19.3 2.5 -18.95 3.0 -18.95 8.2 -20.75 9.1 -22.25 M0.4 -18.6 L0.25 -18.85 0.4 -18.6 -0.8 -17.5 -0.1 -16.55 1.15 -17.35 0.4 -18.6 M1.4 -16.9 L1.15 -17.35 1.4 -16.9 M0.25 -18.85 L0.2 -18.95 0.15 -18.95 0.25 -18.85 M-2.1 -17.6 L-1.9 -19.1 -2.1 -17.6" fill="#b6c7a7" fill-rule="evenodd" stroke="none"/>
    <path d="M0.4 -18.6 L1.15 -17.35 -0.1 -16.55 -0.8 -17.5 0.4 -18.6" fill="#556a51" fill-rule="evenodd" stroke="none"/>
    <path d="M-9.7 -23.4 L-9.45 -23.85 -0.75 -28.3 1.3 -26.9 1.4 -26.85 Q4.7 -24.7 8.7 -22.8 L9.1 -22.25 10.25 -20.65 9.85 -15.8 9.8 -15.55 M10.65 -13.3 Q6.95 -13.75 2.8 -10.35 L1.45 -9.15 1.4 -9.2 Q0.75 -10.7 0.85 -10.7 L0.6 -10.85 Q-1.85 -12.1 -3.7 -12.2 L-6.75 -12.6 Q-8.4 -13.3 -9.45 -14.95 -10.35 -17.4 -10.35 -19.95 -10.35 -22.15 -9.7 -23.4 M-1.9 -19.1 L-1.6 -19.8 -1.15 -20.55 -0.95 -20.8 1.4 -20.65 3.15 -20.05 M0.25 -18.85 L0.4 -18.6 1.15 -17.35 1.4 -16.9 M0.2 -18.95 L0.25 -18.85 M0.6 -11.35 L0.85 -10.7 M-9.05 -17.4 L-9.25 -19.2 Q-9.35 -21.35 -8.65 -21.35 -6.4 -20.8 -5.4 -14.15 L-3.65 -17.0 Q-1.15 -15.55 0.35 -12.05 L0.45 -11.7 0.6 -11.35 M-1.9 -19.1 L-2.1 -17.6 M0.4 -18.6 L-0.8 -17.5" ffdec:has-small-stroke="true" ffdec:original-stroke-width="0.5" fill="none" stroke="#768f5d" stroke-linecap="round" stroke-linejoin="round" stroke-opacity="0.7019608" stroke-width="1.0"/>
    <path d="M5.1 -29.85 L5.8 -28.6 Q6.25 -27.1 5.5 -25.7 4.75 -24.3 3.3 -23.8 L1.35 -23.7 0.35 -24.05 -0.75 -24.9 -0.55 -25.05 0.55 -24.9 1.35 -25.0 Q1.85 -25.15 2.3 -25.4 L2.6 -25.1 Q3.15 -24.65 3.75 -24.8 4.3 -24.95 4.55 -25.65 L4.7 -26.2 Q4.85 -26.2 4.95 -26.35 L5.0 -26.7 4.95 -27.1 4.7 -27.25 4.6 -27.25 4.4 -27.7 4.8 -28.4 5.1 -29.85" fill="#dddcc6" fill-rule="evenodd" stroke="none"/>
    <path d="M-0.75 -24.9 L-0.8 -24.95 -0.55 -25.05 -0.75 -24.9" fill="#a2b88f" fill-rule="evenodd" stroke="none"/>
    <path d="M4.6 -27.25 L4.7 -27.25 4.95 -27.1 5.0 -26.7 4.95 -26.35 Q4.85 -26.2 4.7 -26.2 L4.45 -26.35 4.35 -26.7 4.45 -27.1 4.6 -27.25" fill="#ffffff" fill-rule="evenodd" stroke="none"/>
    <path d="M2.5 -31.25 L3.8 -30.85 3.95 -30.75 4.1 -30.7 4.9 -30.75 5.05 -29.95 5.1 -29.85 4.8 -28.4 4.4 -27.7 3.1 -26.05 2.3 -25.4 Q1.85 -25.15 1.35 -25.0 L0.55 -24.9 Q0.3 -25.9 0.35 -26.85 0.55 -29.0 2.3 -31.0 L2.5 -31.25" fill="#ffffed" fill-rule="evenodd" stroke="none"/>
    <path d="M-0.8 -24.95 L-1.35 -24.85 -1.4 -25.9 -1.5 -26.3 -1.65 -26.85 Q-1.85 -28.05 -1.25 -29.2 -0.55 -30.65 0.95 -31.1 L2.3 -31.25 2.5 -31.25 2.3 -31.0 Q0.55 -29.0 0.35 -26.85 0.3 -25.9 0.55 -24.9 L-0.55 -25.05 -0.8 -24.95" fill="#cac4b1" fill-rule="evenodd" stroke="none"/>
    <path d="M4.6 -27.25 L4.45 -27.1 4.35 -26.7 4.45 -26.35 4.7 -26.2 4.55 -25.65 Q4.3 -24.95 3.75 -24.8 3.15 -24.65 2.6 -25.1 L2.3 -25.4 3.1 -26.05 4.4 -27.7 4.6 -27.25" fill="#556a51" fill-rule="evenodd" stroke="none"/>
    <path d="M-0.8 -24.95 L-1.35 -24.85 -1.4 -25.9 -1.5 -26.3 -1.65 -26.85 Q-1.85 -28.05 -1.25 -29.2 -0.55 -30.65 0.95 -31.1 L2.3 -31.25 2.5 -31.25 3.8 -30.85 3.95 -30.75 4.1 -30.7 4.9 -30.75 5.05 -29.95 5.1 -29.85 4.8 -28.4 4.4 -27.7 3.1 -26.05 2.3 -25.4 Q1.85 -25.15 1.35 -25.0 L0.55 -24.9 -0.55 -25.05 -0.75 -24.9 -0.8 -24.95 -0.55 -25.05" ffdec:has-small-stroke="true" ffdec:original-stroke-width="0.5" fill="none" stroke="#768f5d" stroke-linecap="round" stroke-linejoin="round" stroke-opacity="0.7019608" stroke-width="1.0"/>
    <path d="M5.1 -29.85 L5.8 -28.6 Q6.25 -27.1 5.5 -25.7 4.75 -24.3 3.3 -23.8 L1.35 -23.7 0.35 -24.05 -0.75 -24.9" ffdec:has-small-stroke="true" ffdec:original-stroke-width="0.5" fill="none" stroke="#768f5d" stroke-linecap="round" stroke-linejoin="round" stroke-opacity="0.7019608" stroke-width="1.0"/>
    <path d="M4.5 -22.9 L1.05 -21.65 -4.85 -25.95 -4.1 -27.45 -1.65 -27.95 Q0.45 -26.85 2.6 -25.7 L4.4 -23.45 4.5 -22.9" fill="#ffffed" fill-rule="evenodd" stroke="none"/>
    <path d="M-4.85 -25.95 L1.05 -21.65 -2.95 -21.65 -5.75 -24.1 -4.85 -25.95" fill="#b9af9b" fill-rule="evenodd" stroke="none"/>
    <path d="M4.5 -22.9 L4.4 -23.45 2.6 -25.7 Q0.45 -26.85 -1.65 -27.95 L-4.1 -27.45 -4.85 -25.95 -5.75 -24.1" ffdec:has-small-stroke="true" ffdec:original-stroke-width="0.5" fill="none" stroke="#768f5d" stroke-linecap="round" stroke-linejoin="round" stroke-opacity="0.7019608" stroke-width="1.0"/>
    <path d="M-1.95 -23.4 L-2.85 -22.3 Q-4.05 -21.3 -5.65 -21.4 -7.25 -21.55 -8.25 -22.7 -9.3 -23.9 -9.15 -25.5 L-8.8 -26.85 -8.6 -26.7 -6.9 -25.45 -5.65 -24.75 -5.85 -24.0 Q-5.9 -23.4 -5.4 -22.95 -5.0 -22.5 -4.35 -22.45 -3.7 -22.5 -3.25 -22.95 L-2.85 -23.65 -1.95 -23.4" fill="#dddcc6" fill-rule="evenodd" stroke="none"/>
    <path d="M-8.8 -26.85 L-8.75 -26.95 -8.6 -26.7 -8.8 -26.85" fill="#a2b88f" fill-rule="evenodd" stroke="none"/>
    <path d="M-4.25 -28.85 Q-3.2 -28.6 -2.4 -27.7 L-2.25 -27.45 Q-1.45 -26.35 -1.55 -25.0 L-1.55 -24.8 -1.55 -24.65 -1.25 -23.9 -1.9 -23.5 -1.95 -23.4 -2.85 -23.65 Q-4.4 -24.15 -5.65 -24.75 L-6.9 -25.45 Q-7.15 -26.6 -6.5 -27.45 -5.85 -28.3 -4.25 -28.85" fill="#ffffed" fill-rule="evenodd" stroke="none"/>
    <path d="M-8.75 -26.95 L-9.1 -27.4 -8.1 -27.85 -7.85 -28.1 Q-6.65 -29.15 -5.05 -29.0 L-4.25 -28.85 Q-5.85 -28.3 -6.5 -27.45 -7.15 -26.6 -6.9 -25.45 L-8.6 -26.7 -8.75 -26.95" fill="#cac4b1" fill-rule="evenodd" stroke="none"/>
    <path d="M-2.85 -23.65 L-3.25 -22.95 Q-3.7 -22.5 -4.35 -22.45 -5.0 -22.5 -5.4 -22.95 -5.9 -23.4 -5.85 -24.0 L-5.65 -24.75 Q-4.4 -24.15 -2.85 -23.65" fill="#556a51" fill-rule="evenodd" stroke="none"/>
    <path d="M-8.75 -26.95 L-9.1 -27.4 -8.1 -27.85 -7.85 -28.1 Q-6.65 -29.15 -5.05 -29.0 L-4.25 -28.85 Q-3.2 -28.6 -2.4 -27.7 L-2.25 -27.45 Q-1.45 -26.35 -1.55 -25.0 L-1.55 -24.8 -1.55 -24.65 -1.25 -23.9 -1.9 -23.5 -1.95 -23.4 -2.85 -23.65 Q-4.4 -24.15 -5.65 -24.75 L-6.9 -25.45 -8.6 -26.7 -8.8 -26.85 -8.75 -26.95 -8.6 -26.7" ffdec:has-small-stroke="true" ffdec:original-stroke-width="0.5" fill="none" stroke="#768f5d" stroke-linecap="round" stroke-linejoin="round" stroke-opacity="0.7019608" stroke-width="1.0"/>
    <path d="M-1.95 -23.4 L-2.85 -22.3 Q-4.05 -21.3 -5.65 -21.4 -7.25 -21.55 -8.25 -22.7 -9.3 -23.9 -9.15 -25.5 L-8.8 -26.85" ffdec:has-small-stroke="true" ffdec:original-stroke-width="0.5" fill="none" stroke="#768f5d" stroke-linecap="round" stroke-linejoin="round" stroke-opacity="0.7019608" stroke-width="1.0"/>
    <path d="M-5.0 -23.3 L-5.3 -22.95 -5.95 -22.8 -6.65 -22.95 -6.9 -23.3 -6.65 -23.7 -5.95 -23.85 -5.3 -23.7 -5.0 -23.3" fill="#ffffff" fill-rule="evenodd" stroke="none"/>
    <path d="M-2.95 -21.7 Q-4.7 -19.3 -8.05 -22.2 L-2.95 -21.7" fill="#b9af9b" fill-rule="evenodd" stroke="none"/>
    <path d="M-8.05 -22.2 L-2.95 -21.7" ffdec:has-small-stroke="true" ffdec:original-stroke-width="0.5" fill="none" stroke="#768f5d" stroke-linecap="round" stroke-linejoin="round" stroke-opacity="0.7019608" stroke-width="1.0"/>
    <path d="M10.3 -35.3 Q10.25 -30.7 9.85 -26.15 L9.45 -21.2" ffdec:has-small-stroke="true" ffdec:original-stroke-width="0.5" fill="none" stroke="#511531" stroke-linecap="round" stroke-linejoin="round" stroke-width="1.0"/>
    <path d="M7.75 -42.35 Q9.0 -42.75 9.65 -40.7 10.3 -38.45 10.3 -36.05 L10.3 -35.3" ffdec:has-small-stroke="true" ffdec:original-stroke-width="0.5" fill="none" stroke="#52152f" stroke-linecap="round" stroke-linejoin="round" stroke-opacity="0.6" stroke-width="1.0"/>
    <path d="M2.55 -39.75 Q3.7 -39.6 5.1 -40.4 L6.35 -41.35 Q7.1 -42.15 7.75 -42.35" ffdec:has-small-stroke="true" ffdec:original-stroke-width="0.5" fill="none" stroke="#52152c" stroke-linecap="round" stroke-linejoin="round" stroke-opacity="0.4" stroke-width="1.0"/>
    <path d="M-0.45 -41.95 Q0.9 -40.0 2.55 -39.75" ffdec:has-small-stroke="true" ffdec:original-stroke-width="0.5" fill="none" stroke="#521529" stroke-linecap="round" stroke-linejoin="round" stroke-opacity="0.2" stroke-width="1.0"/>
    <path d="M-14.9 -37.0 Q-13.15 -35.05 -11.45 -34.8" ffdec:has-small-stroke="true" ffdec:original-stroke-width="0.5" fill="none" stroke="#521529" stroke-linecap="round" stroke-linejoin="round" stroke-opacity="0.2" stroke-width="1.0"/>
    <path d="M-11.45 -34.8 Q-10.2 -34.65 -9.0 -35.45 L-7.95 -36.4 Q-7.35 -37.2 -6.75 -37.4" ffdec:has-small-stroke="true" ffdec:original-stroke-width="0.5" fill="none" stroke="#52152c" stroke-linecap="round" stroke-linejoin="round" stroke-opacity="0.4" stroke-width="1.0"/>
    <path d="M-6.75 -37.4 Q-5.55 -37.8 -4.5 -35.75 -3.35 -33.5 -2.85 -31.1 L-2.65 -30.35" ffdec:has-small-stroke="true" ffdec:original-stroke-width="0.5" fill="none" stroke="#52152f" stroke-linecap="round" stroke-linejoin="round" stroke-opacity="0.6" stroke-width="1.0"/>
    <path d="M-2.65 -30.35 Q-1.75 -25.75 -1.2 -21.2 L-0.5 -16.25" ffdec:has-small-stroke="true" ffdec:original-stroke-width="0.5" fill="none" stroke="#511531" stroke-linecap="round" stroke-linejoin="round" stroke-width="1.0"/>
  </g>
</svg>
