<?xml version="1.0" encoding="UTF-8" standalone="no"?>
<svg xmlns:ffdec="https://www.free-decompiler.com/flash" xmlns:xlink="http://www.w3.org/1999/xlink" ffdec:objectType="shape" height="8.9px" width="8.65px" xmlns="http://www.w3.org/2000/svg">
  <g transform="matrix(1.0, 0.0, 0.0, 1.0, 0.0, 0.0)">
    <path d="M6.25 5.65 L6.55 5.35 6.7 5.35 6.65 5.3 6.85 5.15 7.2 5.05 6.5 5.65 6.25 5.65 M7.3 5.15 L7.45 5.15 7.0 5.4 7.05 5.3 7.3 5.15 M6.6 5.95 L6.65 5.85 6.75 5.85 6.8 5.8 6.85 5.95 6.6 5.95 M7.05 5.5 L7.1 5.5 7.1 5.55 6.9 5.6 6.95 5.55 7.05 5.5 M7.35 5.75 L7.4 5.75 7.35 5.8 7.3 5.8 7.35 5.75 M7.55 6.45 L7.6 6.4 7.6 6.5 7.4 6.5 7.5 6.5 7.55 6.45 M5.55 6.9 L5.85 6.75 5.95 6.75 5.95 6.7 6.15 6.6 6.3 6.65 5.7 6.9 5.55 6.9 M1.45 7.0 L1.9 6.95 2.0 6.95 2.05 6.9 2.3 6.9 2.55 7.05 1.95 7.1 1.6 7.1 1.45 7.0 M2.55 7.15 L2.7 7.2 2.35 7.2 2.05 7.15 1.95 7.1 2.2 7.15 2.55 7.15 M1.4 7.35 L1.5 7.3 1.6 7.4 1.7 7.35 1.6 7.5 1.4 7.35 M2.0 7.25 L2.05 7.3 1.9 7.3 2.0 7.25 M2.0 7.7 L1.95 7.65 2.0 7.65 2.1 7.65 2.0 7.7 M1.5 8.25 L1.6 8.25 1.55 8.3 1.4 8.3 1.5 8.25 M5.7 7.1 L5.8 7.0 5.85 7.0 5.8 7.1 5.7 7.1 M4.0 7.3 L4.35 7.25 4.45 7.25 4.45 7.2 4.6 7.2 4.8 7.25 4.15 7.35 4.0 7.3 M3.9 7.5 L4.0 7.5 4.1 7.45 4.15 7.5 4.05 7.55 3.9 7.5 M4.0 7.95 L4.05 8.0 4.0 8.0 3.9 7.95 4.0 7.95" fill="#e2dfc7" fill-rule="evenodd" stroke="none"/>
    <path d="M6.95 5.55 L6.9 5.55 6.8 5.5 6.9 5.4 6.95 5.4 7.05 5.5 6.95 5.55 M7.1 5.55 L7.35 5.75 7.3 5.8 7.35 5.8 7.5 5.85 7.5 5.95 7.55 5.95 7.4 6.0 7.05 5.75 7.1 5.7 7.05 5.7 6.9 5.6 7.1 5.55 M5.65 7.1 L5.55 6.9 5.7 6.9 5.8 7.0 5.7 7.1 5.65 7.1 M1.9 7.3 L2.05 7.3 2.0 7.25 1.95 7.25 1.95 7.1 2.05 7.15 2.05 7.3 2.1 7.3 2.0 7.65 1.95 7.65 2.0 7.7 2.0 7.85 1.95 7.85 2.05 7.95 1.85 7.85 1.85 7.5 1.95 7.5 1.95 7.45 1.9 7.3 M4.0 7.3 L4.15 7.35 4.1 7.45 4.0 7.5 3.95 7.45 3.9 7.45 4.0 7.3" fill="#cbc09a" fill-rule="evenodd" stroke="none"/>
    <path d="M1.95 7.1 L2.55 7.05 2.55 7.15 2.2 7.15 1.95 7.1 M1.5 8.9 L1.3 8.75 1.35 7.9 1.4 7.85 1.35 7.8 1.4 7.35 1.6 7.5 1.55 7.95 1.6 8.1 1.5 8.25 1.4 8.3 1.55 8.3 1.5 8.5 1.45 8.65 1.55 8.65 1.5 8.75 1.55 8.75 1.5 8.9" fill="#888844" fill-rule="evenodd" stroke="none"/>
    <path d="M6.5 5.65 L7.2 5.05 7.3 5.15 7.05 5.3 7.0 5.4 7.45 5.15 8.0 5.6 7.95 5.65 7.95 5.7 8.6 6.2 8.65 6.4 8.55 6.5 8.05 6.85 8.0 6.75 7.95 6.75 7.9 6.7 7.85 6.7 7.6 6.5 7.6 6.4 7.55 6.45 7.35 6.3 7.25 6.25 6.85 5.95 6.8 5.8 6.75 5.85 6.5 5.65 M7.05 5.5 L6.95 5.4 6.9 5.4 6.8 5.5 6.9 5.55 6.95 5.55 6.9 5.6 7.05 5.7 7.1 5.7 7.05 5.75 7.4 6.0 7.55 5.95 7.5 5.95 7.5 5.85 7.35 5.8 7.4 5.75 7.35 5.75 7.1 5.55 7.1 5.5 7.05 5.5 M5.95 7.45 L5.95 7.5 6.0 7.65 6.05 7.75 6.0 7.75 6.1 7.8 5.9 7.8 5.75 7.4 5.75 7.3 5.7 7.35 5.65 7.1 5.7 7.1 5.8 7.1 5.85 7.3 5.95 7.45 M1.6 7.1 L1.95 7.1 1.95 7.25 2.0 7.25 1.9 7.3 1.95 7.45 1.95 7.5 1.85 7.5 1.85 7.85 2.05 7.95 1.95 7.85 2.0 7.85 2.0 7.7 2.1 7.65 2.0 7.65 2.1 7.3 2.05 7.3 2.05 7.15 2.35 7.2 2.7 7.2 2.65 7.9 2.55 7.9 2.5 7.95 2.5 8.35 Q1.8 8.9 1.5 8.5 L1.55 8.3 1.6 8.25 1.5 8.25 1.6 8.1 1.55 7.95 1.6 7.5 1.7 7.35 1.6 7.4 1.6 7.1 M3.95 8.3 L3.75 8.25 3.85 7.8 3.9 7.75 3.85 7.7 3.9 7.5 4.05 7.55 4.0 7.8 4.0 7.95 3.9 7.95 4.0 8.0 4.0 8.1 3.95 8.15 3.9 8.15 3.9 8.2 3.95 8.3" fill="#615b30" fill-rule="evenodd" stroke="none"/>
    <path d="M1.45 7.0 L1.6 7.1 1.6 7.4 1.5 7.3 1.35 7.25 1.45 7.0" fill="#524e29" fill-rule="evenodd" stroke="none"/>
    <path d="M6.25 5.65 L6.5 5.65 6.75 5.85 6.65 5.85 6.5 5.9 6.25 5.65 M8.05 6.85 L7.8 6.9 7.05 6.3 7.05 6.25 6.95 6.25 6.6 5.95 6.85 5.95 7.25 6.25 7.35 6.3 7.55 6.45 7.5 6.5 7.4 6.5 7.6 6.5 7.85 6.7 7.9 6.7 7.95 6.75 8.0 6.75 8.05 6.85" fill="#837b41" fill-rule="evenodd" stroke="none"/>
    <path d="M6.5 7.15 L5.95 7.45 5.85 7.3 5.8 7.1 5.85 7.0 5.8 7.0 5.7 6.9 6.3 6.65 6.5 7.15 M4.15 7.35 L4.8 7.25 4.65 8.0 4.0 8.1 4.0 8.0 4.05 8.0 4.0 7.95 4.0 7.8 4.05 7.55 4.15 7.5 4.1 7.45 4.15 7.35" fill="#433f23" fill-rule="evenodd" stroke="none"/>
    <path d="M4.65 8.0 L4.6 8.15 4.5 8.25 3.95 8.3 3.9 8.2 3.9 8.15 3.95 8.15 4.0 8.1 4.65 8.0" fill="#ffcc00" fill-rule="evenodd" stroke="none"/>
    <path d="M6.5 7.15 L6.65 7.45 6.5 7.6 6.1 7.8 6.0 7.75 6.05 7.75 6.0 7.65 5.95 7.5 5.95 7.45 6.5 7.15 M2.5 8.35 L2.45 8.7 2.25 8.85 2.15 8.9 1.5 8.9 1.55 8.75 1.5 8.75 1.55 8.65 1.45 8.65 1.5 8.5 Q1.8 8.9 2.5 8.35" fill="#ec7702" fill-rule="evenodd" stroke="none"/>
    <path d="M4.05 4.0 L4.1 5.0 3.55 5.4 3.55 5.7 3.3 5.85 3.1 5.65 3.0 5.75 3.05 5.9 3.1 6.05 2.5 6.45 2.45 6.45 2.45 6.5 1.95 6.45 1.9 6.45 1.85 6.4 1.95 6.45 2.45 6.45 1.65 5.1 1.65 5.0 1.15 4.2 1.1 4.2 2.25 2.3 2.25 2.25 2.3 2.3 2.85 2.65 2.95 2.7 2.95 2.75 3.65 3.15 3.05 4.45 3.5 4.55 4.05 4.0 M2.35 4.1 L2.1 3.55 2.1 3.5 2.15 3.3 1.65 3.8 1.95 3.5 1.95 3.65 1.7 4.25 2.25 4.55 3.0 4.6 2.3 4.25 2.35 4.1 M0.7 4.05 L0.8 3.75 0.8 3.8 0.7 4.05" fill="#888844" fill-rule="evenodd" stroke="none"/>
    <path d="M1.5 2.25 L1.65 2.25 1.7 2.3 2.1 2.3 2.25 2.3 1.1 4.2 0.0 4.2 0.35 3.65 0.3 3.6 1.1 2.25 1.5 2.25 M0.8 3.8 L0.8 3.75 0.7 4.05 0.8 3.8" fill="#e2dfc7" fill-rule="evenodd" stroke="none"/>
    <path d="M2.1 2.3 L2.45 1.5 4.05 2.55 4.05 4.0 3.5 4.55 3.05 4.45 3.65 3.15 2.95 2.75 2.95 2.7 2.85 2.65 2.3 2.3 2.25 2.25 2.25 2.3 2.1 2.3 M3.3 5.85 L3.05 5.9 3.0 5.75 3.1 5.65 3.3 5.85 M1.95 3.65 L1.95 3.5 1.65 3.8 2.15 3.3 2.1 3.5 2.1 3.55 2.35 4.1 1.95 3.65 2.35 4.1 2.3 4.25 3.0 4.6 2.25 4.55 1.7 4.25 1.95 3.65" fill="#616030" fill-rule="evenodd" stroke="none"/>
    <path d="M1.5 2.25 L1.9 1.5 2.45 1.5 2.1 2.3 1.7 2.3 1.65 2.25 1.5 2.25" fill="#b49e6d" fill-rule="evenodd" stroke="none"/>
    <path d="M1.9 6.45 L1.25 6.3 0.9 5.8 0.65 5.3 0.5 5.15 0.0 4.2 1.1 4.2 1.15 4.2 1.65 5.0 1.65 5.1 2.45 6.45 1.95 6.45 1.85 6.4 1.9 6.45" fill="#38381d" fill-rule="evenodd" stroke="none"/>
    <path d="M2.25 4.55 L1.7 4.25 1.95 3.65" ffdec:has-small-stroke="true" ffdec:original-stroke-width="0.05" fill="none" stroke="#3c3c3c" stroke-linecap="round" stroke-linejoin="round" stroke-width="1.0"/>
    <path d="M2.95 2.75 L2.95 2.7 2.85 2.65 M1.95 3.65 L2.35 4.1" ffdec:has-small-stroke="true" ffdec:original-stroke-width="0.05" fill="none" stroke="#3d3d3d" stroke-linecap="round" stroke-linejoin="round" stroke-opacity="0.5019608" stroke-width="1.0"/>
    <path d="M0.7 4.05 L0.8 3.8" ffdec:has-small-stroke="true" ffdec:original-stroke-width="0.05" fill="none" stroke="#c0c0be" stroke-linecap="round" stroke-linejoin="round" stroke-opacity="0.32941177" stroke-width="1.0"/>
    <path d="M5.85 1.6 L6.5 0.8 6.55 0.65 6.6 0.75 7.55 1.75 7.05 2.35 6.95 2.55 7.9 2.4 7.95 2.55 8.2 3.0 8.1 3.55 8.05 3.55 6.45 4.15 6.35 4.2 6.1 4.25 5.4 2.1 5.5 2.05 5.5 2.0 5.7 1.8 5.8 2.2 5.85 1.6 M8.1 1.65 L8.1 1.75 8.0 1.8 8.1 1.65 M6.95 2.55 L6.8 2.75 6.3 2.35 6.7 1.75 6.3 2.35 6.8 2.75 6.95 2.55" fill="#888844" fill-rule="evenodd" stroke="none"/>
    <path d="M5.1 1.4 L5.85 0.5 6.15 0.6 6.3 0.6 6.55 0.65 6.5 0.8 5.85 1.6 5.55 1.5 5.1 1.4 M4.95 2.05 L5.3 1.65 5.4 1.7 5.4 1.75 5.55 1.75 5.7 1.8 5.5 2.0 5.5 2.05 5.4 2.1 5.1 2.05 5.05 2.05 5.1 2.1 5.05 2.1 5.05 2.05 4.95 2.05" fill="#e2dfc7" fill-rule="evenodd" stroke="none"/>
    <path d="M5.1 1.4 L5.55 1.5 5.55 1.75 5.4 1.75 5.4 1.7 5.3 1.65 5.1 1.55 5.1 1.4" fill="#cbc09a" fill-rule="evenodd" stroke="none"/>
    <path d="M5.55 1.5 L5.85 1.6 5.8 2.2 5.7 1.8 5.55 1.75 5.55 1.5" fill="#ccc09b" fill-rule="evenodd" stroke="none"/>
    <path d="M7.05 2.35 L7.55 2.3 7.9 2.4 6.95 2.55 7.05 2.35" fill="#494825" fill-rule="evenodd" stroke="none"/>
    <path d="M6.55 0.65 L6.3 0.6 6.15 0.6 6.6 0.0 7.05 0.1 6.6 0.75 6.55 0.65" fill="#b49e6d" fill-rule="evenodd" stroke="none"/>
    <path d="M7.05 0.1 L7.25 0.35 7.25 0.55 7.4 0.55 8.15 1.35 8.1 1.65 8.0 1.8 8.1 1.9 7.95 2.55 7.9 2.4 7.55 2.3 7.05 2.35 7.55 1.75 6.6 0.75 7.05 0.1" fill="#615b30" fill-rule="evenodd" stroke="none"/>
    <path d="M5.05 2.05 L5.1 2.05 5.1 2.1 5.05 2.05" fill="#a38a54" fill-rule="evenodd" stroke="none"/>
    <path d="M6.45 4.15 L6.45 4.35 5.85 4.4 5.55 4.15 5.5 4.05 5.45 4.05 5.35 3.5 5.3 3.5 5.3 3.45 4.95 2.05 5.05 2.05 5.05 2.1 5.1 2.1 5.1 2.05 5.4 2.1 6.1 4.25 6.35 4.2 6.45 4.15" fill="#38381d" fill-rule="evenodd" stroke="none"/>
    <path d="M6.35 4.2 L6.45 4.15 M8.0 1.8 L8.1 1.65" ffdec:has-small-stroke="true" ffdec:original-stroke-width="0.05" fill="none" stroke="#3d3d3d" stroke-linecap="round" stroke-linejoin="round" stroke-opacity="0.5019608" stroke-width="1.0"/>
    <path d="M6.6 0.75 L7.55 1.75 7.05 2.35 6.95 2.55 6.8 2.75 6.3 2.35 6.7 1.75" ffdec:has-small-stroke="true" ffdec:original-stroke-width="0.05" fill="none" stroke="#5f5e39" stroke-linecap="round" stroke-linejoin="round" stroke-width="1.0"/>
  </g>
</svg>
