<?xml version="1.0" encoding="UTF-8"?>
<svg version="1.1" viewBox="0 0 219.7 84.9" xmlns="http://www.w3.org/2000/svg" xmlns:cc="http://creativecommons.org/ns#" xmlns:dc="http://purl.org/dc/elements/1.1/" xmlns:rdf="http://www.w3.org/1999/02/22-rdf-syntax-ns#" xmlns:xlink="http://www.w3.org/1999/xlink">
<metadata>
<rdf:RDF>
<cc:Work rdf:about="">
<dc:format>image/svg+xml</dc:format>
<dc:type rdf:resource="http://purl.org/dc/dcmitype/StillImage"/>
</cc:Work>
</rdf:RDF>
</metadata>
<g transform="translate(-62.65,-47.3)">
<use transform="translate(62.65,47.3)" width="219.7" height="84.900002" xlink:href="#a"/>
</g>
<defs>
<g id="a" transform="translate(-62.65,-47.3)">
<path d="m243.75 63.25 0.5-0.35 0.3-0.3 0.1-0.35v-0.7l-1.45-2.2-2.15-0.35-0.15 0.05-3.9-6.75 0.4-0.35 15.1 6.65q0.85 3.6 3.2 7.35l1.25 1.9 1.25 1.65-5.6-0.7h-0.35l8 3.2 0.45 0.5-8.75 0.3q-4.4-4.3-8.2-9.55m10.75 2.45 1.2 0.25-1.2-0.25m3.9 12.65-5.3-4.45 7.45 0.55 2.15 0.1q5.95 6 15.25 12.45l0.55 0.6-20.4-9 0.45-0.05-0.15-0.2m0.75-0.4 18.8 9.05-18.8-9.05" fill="#a67a33" fill-rule="evenodd"/>
<path d="m252.5 58.6 0.15-0.3 7.55 3.45-1.45 4.85-3.05-0.65q-2.35-3.75-3.2-7.35m5.45 20.05 0.15-0.05 20.4 9-0.55-0.6 2.9 1.35-0.15 2.65q-3.45-1.85-6.8-3.1l-0.35 0.1-2.45 2.3-12.35-7.05-9.3 1.2q-0.95-0.65-2.05-1.2l-1.05 1.6-6.95 0.9-4.1-1.1-0.5 1.7-3.85 0.5-6.75 5.2-0.5 0.05 0.1 0.25-9.5 7.25-4.1 0.4 1.05 1.95-19.8 15.15-1.55-3.5 40.85-30.85 0.6-0.6 6.65-0.9 19.95-2.6m-86.9 34.4 0.05 0.05-3.65 3.1-11.35-7.25-8.7-5.55v-0.15l-0.4-0.9q-0.45-1.4-1.45-2.35l-0.35-0.5-0.15-0.25-0.9-0.15-1.35 1.35-2.85-1.8-2.05-0.5-1.9-0.45-22.25-5.35-0.95 0.9-2.6-0.2-0.3 2.75-1.8 1.6-5.15-0.15q-3.65 2.45-7.15 7.65h-2.5l2.45-7.5h0.05l15.85-9.75 29.3 6 0.35 0.05 7.75 4.55 21.15 13.25 0.85 1.55m-13.9-5.7-1.05 1.6 1.05-1.6" fill="#6d4b23" fill-rule="evenodd"/>
<path d="m240.9 59.05-2.4 0.3-5.45-0.7 0.35 1.3-0.1-0.05 5.8 8.75v2.05q1.3 0.75 2.85 0.3l0.5-0.3q1-3.6-2.5-8.3l-4-1.5 7.6 2.45 0.2-0.1q3.8 5.25 8.2 9.55l-5.7 0.55-2.3-0.2q-1.85 0.05-3.3 1.05l5.6-0.85 6.85 0.55 5.3 4.45-0.3 0.25-0.15 0.05-19.95 2.6-7.35 0.85 7.35-0.85-6.65 0.9-0.3 0.3-0.4-0.35-0.35-0.15q-6.4-3.3-11.35-7.4-7.1-5.9-11.15-13.55l-0.2-0.7 0.55-0.2 0.3-0.1q5.45 6.1 10.9 4.15l1.1-0.45 0.6-0.35q4.25-2.5 8.5-9.9l6.65-2.1 0.25 0.25 0.55 0.7 3.9 6.75m-11.35-5.6 6.9-1.85-6.9 1.85m-9.25 11.1-0.95-0.4 0.95 0.4m6.85 4.75 0.75 0.15q2.3-0.7 2.5-3.3-0.1-2-2.1-2.9l-1.25 2.05-0.3 0.95h-4.9l-0.7 0.35-6.9 1.8q5.45 2.4 11.2 4.35h0.4q0.75-1.45 1.3-3.45m-19.45-8.65 0.45-0.55-0.45 0.55m-96.05 27-15.85 9.75h-0.05l-2.45 7.5h-0.85l2.8-7.45-3.4 7.45-0.9 11-0.35 4.1-0.35 4.3-1.95-2.85-3.45-5.05q-0.05-13.25-1.15-26.6l-0.4 1.35q-1.95 8.6 1.55-18.3-8.95 12.6-12.5 19.25l-0.1-2.4q2.15-5.75 3.55-12h-0.45l-2-0.5 1-4.2-0.05 0.05-1.55 4-2.95-0.85 0.4-5.05-2.35 4.4-5.2-1.8 6.45-8.65-0.05 0.4 0.8 0.05q19.8-11.9 15.1-4.2 9.2 8.55 20.1 19.6-2.75 1-5.1 2.7l-0.4 0.35 5.75 1.8q0.95 0.1 1.65-0.5l1.2-1.25 3.5 3.6-16.4 9.8 16.4-9.8m-41.2 8.4-0.55-0.8 2.3-5.5-0.25 3.1-1 3.85-0.5-0.65" fill="#cfac5f" fill-rule="evenodd"/>
<path d="m233.4 59.95 0.05 0.15 2.5 0.8 4 1.5q3.5 4.7 2.5 8.3l-0.5 0.3q-1.55 0.45-2.85-0.3v-2.05l-5.8-8.75 0.1 0.05m-36.15 23.65 3.6 4.75q3.6-2.55 8.25-3.35l2.25-0.3h1.1l1.8-1.45v-2.5l3.25-4q-8.7 3.9-19.1 6.4-0.6 0.1-1.15 0.45m-18.5 13.85 8.85-11.15 2.75-3.5 9.45-11.9 8-9.9q4.05 7.65 11.15 13.55 4.95 4.1 11.35 7.4l0.35 0.15 0.4 0.35-0.3 0.3-40.85 30.85-0.4-0.75 40-30.7-40 30.7 0.4 0.75-3.25 2.4-12.7-12.7 4.8-5.85-4.65 6 4.65-6m48-31.2 0.3-0.95 1.25-2.05q2 0.9 2.1 2.9-0.2 2.6-2.5 3.3l-0.75-0.15 0.65-3 0.2-0.05h-1.25m-22.65 10.85q2.1 2.05 5.1 1.45 1.5-0.95 0.35-3.25-0.8-1.45-2.55-1.8l-2.9 1.45v2.15m-14.6 35.75-3.4 2.6 3.4-2.6m-19.3-1.35-21.15-13.25-8.05-5q-7.9-5.35-11.9-12l4.8 0.2-1.45-2.9-0.95-0.8-0.1-0.3v-0.35h-4.35q-1.7-4.15-2-8.75l-0.05-0.05-22.3-12.45 37.35 12.35 11.95 21.5 8.65 7 12.55 15.8 1.35 1.7-4.35-2.7-0.4-1 3.4 2-3.4-2 0.4 1m-0.4-1-20.75-12.25 20.75 12.25" fill="#b08235" fill-rule="evenodd"/>
<path d="m140.95 93.65-29.3-6-3.5-3.6 1.15-1.85q0.55-2.85-0.9-5.35-0.2-0.3-0.55-0.45l0.35 3.6q-1.65 0.35-3.15 0.95-10.9-11.05-20.1-19.6 4.7-7.7-15.1 4.2l16.8-12.05 2.45-1.7-2.45 1.7 2.35-1.75 0.1 0.05 10.5-3 3.1 7.05 22.3 12.45 0.05 0.05q0.3 4.6 2 8.75h-0.75q-5.2-1.85-9.5-5.25l-0.25-0.15 0.35 9.05 12.2 0.5q4 6.65 11.9 12l-0.05 0.35v0.05m-34.9-23.4 0.5-0.5 0.65-2.85-6.6-1v0.35q0 2.25 2.3 2.9l3.15 1.1m1.15-3.35 0.65 0.05-0.7-1.05 0.05 1m33.75 26.7-29.3-5.95 29.3 5.95" fill="#d9b780" fill-rule="evenodd"/>
<path d="m141.3 93.7-0.35-0.05v-0.05l0.05-0.35 0.3 0.4v0.05l-0.05-0.05-0.3-0.05 0.3 0.05 0.05 0.05m0-0.05h-0.05 0.05" fill="#cb9d52" fill-rule="evenodd"/>
<path d="m252.65 58.3-15.25-6.95-0.15 0.05-0.8 0.2-6.9 1.85-8.5 9.9-0.6 0.35m39.75-1.95-7.55-3.45m25.3 28.7 2.9 1.35m-89.4 28.75 3.05 6.8m83.45-36.9-18.8-9.05m-80.4 19.5 8.85-11.15 2.75-3.5 9.45-11.9 7.9-10.25m0.45-0.55 0.3-0.1m10.9 4.15-10.35-4.35m10.35 4.35 0.95 0.4m-12.15-4.45-0.45 0.55m22.6 21.3 0.35 0.15 7.35-0.85 19.95-2.6m-68.05 34.95 1.55 3.5m38.05-34.95-40 30.7 0.4 0.75m-3.8 1.85v0.05l-0.7 0.5m-11.3-12.55 12 12 3.4-2.6m-15.4-9.4 4.65-6m-4.65 6-1.4 1.95 2.35 0.3m-4 7.35-0.85-1.55m-21.15-13.25-7.75-4.55-0.05-0.05-0.3-0.05m15.15 15.35 1.05-1.6m16.05 5.15 1.9 1.1m-1.9-1.1-3.4-2 0.4 1m1.1-2.45 8.95 0.55m-9.15 3.5 4 7.2m-6.7-15.45 4.3 0.55m1.5 9.85h11.7m-83.2-59.4-3.1-7.05m-10.5 3-2.45 1.7-16.8 12.05m41.8 22.1 29.3 5.95m-50.35 26.4 0.35-4.1m4.3-18.45 16.4-9.8m29.6 6h0.05m-38.6-37.8 37.35 12.35 11.95 21.5 8.65 7 12.55 15.8m-24.15-14.25 20.75 12.25m-13.7-1.55-4.35 6.3m-61.15 4.75v10.7m1.85-25.8 2.8-7.45" fill="none" stroke="#65451f" stroke-linecap="round" stroke-linejoin="round" stroke-width="3"/>
<path d="m255.7 65.95-1.2-0.25m1.2 0.25 3.05 0.65 1.45-4.85m20.65 26.6-0.15 2.65m-9.6-0.7-12.35-7.05-9.3 1.2m-3.1 0.4-6.95 0.9m-4.6 0.6-3.85 0.5-6.75 5.2m-0.4 0.3-9.5 7.25m-3.05 2.35-19.8 15.15-0.45 0.3m-34.9-8.45 11.35 7.25 3.65-3.1-0.05-0.05m-75.25-8.15q3.5-5.2 7.15-7.65l5.15 0.15 1.8-1.6m2.9-2.55 0.95-0.9 22.25 5.35m1.9 0.45 2.05 0.5 2.85 1.8m4.6 2.95 8.7 5.55" fill="none" stroke="#65451f" stroke-linecap="round" stroke-linejoin="round" stroke-width=".05"/>
</g>
</defs>
</svg>
