<?xml version="1.0" encoding="UTF-8"?>
<svg version="1.1" viewBox="0 0 52.5 76.7" xmlns="http://www.w3.org/2000/svg" xmlns:cc="http://creativecommons.org/ns#" xmlns:dc="http://purl.org/dc/elements/1.1/" xmlns:rdf="http://www.w3.org/1999/02/22-rdf-syntax-ns#" xmlns:xlink="http://www.w3.org/1999/xlink">
<metadata>
<rdf:RDF>
<cc:Work rdf:about="">
<dc:format>image/svg+xml</dc:format>
<dc:type rdf:resource="http://purl.org/dc/dcmitype/StillImage"/>
</cc:Work>
</rdf:RDF>
</metadata>
<g transform="translate(-21.75,-10.7)">
<use transform="translate(21.75,10.7)" width="52.5" height="76.699997" xlink:href="#a"/>
</g>
<defs>
<g id="a" transform="translate(-21.75,-10.7)">
<path d="m37.05 37.85 0.2-0.1 0.6-0.45 1.7-1.1 0.55-0.35 0.25-0.15 1.45-0.25 0.45-0.1 1-0.2 0.3-0.05 0.75-0.1 0.85-0.15 4.4-0.35 1.45-0.1h0.55l2.15 0.1-2.45 2.05-0.4-0.1-0.45-0.05h-0.15l-0.7-0.1-3.2-0.25-2.55 0.15h-0.25l-1.85 0.25-1.8 0.45-1.9 0.6q-0.4 0.1-0.75 0.35h-0.2" fill="#fae75f" fill-rule="evenodd"/>
<path d="m23.2 53.35q0.45-1.55 1.15-2.85 0.4-0.95 0.95-1.8l0.35-0.7q1.45-2.4 3.5-4.5l0.45-0.5q3.45-3.45 7.45-5.15h0.2q0.35-0.25 0.75-0.35l1.9-0.6 1.8-0.45 1.85-0.25h0.25l2.55-0.15 3.2 0.25 0.7 0.1h0.15l0.45 0.05-0.1 0.2v0.05l-0.7 1.5-0.25 0.4-2.15 2.25q-0.25 0.15-0.4 0.35-2.95-0.8-8.65 0.75-3.85 1.65-7.65 5.45-2.4 2.85-3.85 6.6l-2.05 0.1q-0.95-0.15-1.85-0.75" fill="#fdf5bd" fill-rule="evenodd"/>
<path d="m74 59.95q-0.45 5.5-2.7 11.45l-0.6 1.45q-1.55 3.2-5.85 7l-5.4 3.35 4.1-3.55q2.5-2.65 4.15-5.65l3.6-2.6-3.6 2.6q2.85-5.35 2.95-11.8 2.05-0.7 3.35-2.25m-42.85-4.15-2.4 2.7-0.95 3.45v0.25l8.65 1.55 10.15 3.5 9.75 5.8 3.85 3.15-0.6 0.6-0.05 0.2-0.6-0.55q-14.15-11.5-31.1-13.4h-0.15l-1.05-0.1 1.05 0.1h0.15q0.3 3.95 1.15 7.55l0.25 1.3 0.35 1.45-0.7-1.2 0.35-0.25-0.35 0.25q-2.15-4.1-2.25-9.2v-0.5q0-2.25 0.35-4.2 0.5-2.7 1.65-4.9l0.1-0.1q1.25-2.7 3.35-4.9l0.35 0.7 1.1 2.15-1.1-2.15-0.35-0.7 0.25-0.25q1.7-1.9 3.8-3.1 1.2-0.9 2.45-1.4 1.15-0.5 2.45-0.85l2.15-0.45h0.65l2-0.15h0.1q3 0 5.75 0.85l2.75 1.1 0.5 0.35 2.15 1.4-0.25 0.95 0.25-0.95 2.5 2.25 1.15 1.25 0.35 0.35 0.3 0.55-0.75 0.5-3.35-1.9-0.35 1.2-2.15 3-2.15 1.4h-4.2l-6.55-2.05-0.85-2.45q0.6 0.8 1.55 1.3 3.5 1.65 7.9 2.25 4.05 0.5 6.35-6.65l0.2 0.2-0.2-0.25-2.65-2-1.05 2.35-8.5 0.25 0.35 0.75-0.7-0.35-0.35-0.15q-1.65-1.1-1.05-4.15h-0.05l-2.1 0.35v-0.05l0.3-1.05-0.3 1.05v0.05q-0.85 3.55 0 5.5l-2.65 0.6-0.1-0.25-0.15-0.4-1.3-3.35h-0.1l-0.3-0.95 0.3 0.95h0.1l1.3 3.35q-0.25 0.5-1.3 1h-0.1l-0.25 0.2-0.7 0.15v0.1l-1.2 0.5-0.3-0.6-0.45 0.55q-1.55 1.85-2.4 4.6m33.3 0.55-3.05 2.65v-0.15l-0.85-2.1 0.45 0.8 2.85-3 0.6 1.8m-16.3 7.9-1.6 0.35-0.25-0.6 2.65-0.95-0.7 1.1-0.1 0.1m-7.8-8.35 2.85 4.85-2.15 1.8-0.9-0.35 2-1.55v-0.1l-0.1-0.15-1.7-4.5m13.85-11.1 0.25-0.7-0.25 0.7m-11-2.5-0.3 1.2 0.3-1.2" fill="#c79603" fill-rule="evenodd"/>
<path d="m46.3 64-0.2 0.1-0.75-2.45 1.35 0.1 13.7-8.25-0.8-2.15 0.95-0.5 0.1-0.1 0.75-0.5 2 3.25 0.15 0.45 0.3 0.6-2.85 3-0.45-0.8-11.6 6.3-2.65 0.95m-5.25-14.05-0.3-0.6q-0.85-1.95 0-5.5l2.1-0.35h0.05q-0.6 3.05 1.05 4.15l0.35 0.15 0.7 0.35-0.35-0.75 8.5-0.25 1.05-2.35 2.65 2v0.05q-2.3 7.15-6.35 6.65-4.4-0.6-7.9-2.25-0.95-0.5-1.55-1.3m-0.9 12.25v0.05l-0.5-0.3 0.25-0.35-5.6-10.35 1.2-0.5 5 9.65h1.55l0.1 0.15v0.1l-2 1.55m8.55-12.5q0.5-0.4 1-0.35 2 0.3 3.45-2.2-1.45 2.5-3.45 2.2-0.5-0.05-1 0.35l-4.75-1.3-1.35-0.25 0.5 1.65 4.75 1.3 1.45-1.2-0.6-0.2m12.3 7.85q-0.25-0.8-0.1-0.95l-0.35 0.15 0.35-0.15q-0.15 0.15 0.1 0.95" fill="#fcdc7a" fill-rule="evenodd"/>
<path d="m59.45 83.2-2.85 1.8q-4.2 2.05-10.25 2.15-3.75 0-7.15-1.05-5.65-1.8-10.05-6.45-2.4-2.6-3.95-5.4l-0.45-0.7q-2.75-5.35-2.75-11.9v-0.05l0.1-2.4v-0.1q0.1-1.2 0.35-2.35 0.1-1 0.35-1.95l0.4-1.45q0.9 0.6 1.85 0.75l2.05-0.1q1.45-3.75 3.85-6.6 3.8-3.8 7.65-5.45 5.7-1.55 8.65-0.75 0.15-0.2 0.4-0.35l2.15-2.25 0.25-0.4 0.7-1.5v-0.05l0.1-0.2 0.4 0.1 0.6 0.1 0.95 0.25 0.3 0.1 0.3 0.05q2.6 0.8 5 2.35 2.75 1.6 5.15 4.1l1.55 1.85q2.1 2.45 3.4 5.4v0.1q2.15 4.9 2.15 10.75v0.6q-0.1 6.45-2.95 11.8l-4.55-2.1 4.55 2.1q-1.65 3-4.15 5.65l-4.1 3.55m-35.3-25.85 2.85 0.9-2.85-0.9m7.95-9q-2.1 2.2-3.35 4.9l-0.1 0.1q-1.15 2.2-1.65 4.9-0.35 1.95-0.35 4.2v0.5q0.1 5.1 2.25 9.2l-3.7 2.1 3.7-2.1 0.7 1.2q1.1 1.85 2.75 3.45 3.45 3.65 7.8 5.1l0.6 0.15 2.8-0.85 0.3 1.45 2.1 0.1q4.65 0 8.5-2.05 1.65-0.8 3.1-2l2-1.7 0.05-0.2 0.6-0.6q1.75-2.05 2.95-4.3 2.15-4.2 2.15-9.45 0-3.25-0.85-6.1l-0.6-1.8-0.3-0.6-0.15-0.45-2-3.25-0.3-0.55-0.35-0.35-1.15-1.25-2.5-2.25-2.15-1.4-0.5-0.35-2.75-1.1 0.75-3.35-0.75 3.35q-2.75-0.85-5.75-0.85h-0.1l-2 0.15h-0.65l-2.15 0.45q-1.3 0.35-2.45 0.85-1.25 0.5-2.45 1.4-2.1 1.2-3.8 3.1l-0.25 0.25m21-11.35v0.05-0.05 0.05-0.05m11.15 16.05-0.85 0.45 0.85-0.45m-7.65 31.95-2.15-4.3 2.15 4.3m-17.4 1.1 0.95-4.2-0.95 4.2" fill="#fbcd44" fill-rule="evenodd"/>
<path d="m60.2 76.2-3.85-3.15-9.75-5.8-10.15-3.5-8.65-1.55v-0.25l0.95-3.45 2.4-2.7 0.6 0.6 6.6 6.65q1.4 0 1.3-1.1l0.5 0.3v-0.05l0.9 0.35 2.15-1.8-2.85-4.85-2.25-5.95 2.65-0.6 0.3 0.6 0.85 2.45 6.55 2.05h4.2l2.15-1.4 2.15-3 0.35-1.2 3.35 1.9-0.1 0.1-0.95 0.5v0.1l-14.6 9.2 0.15 0.5 0.2 0.5 0.75 2.45 0.2-0.1 0.25 0.6 1.6-0.35q0 1.05 1.25 1.3l12.2-1.8q0.5-2.4-0.2-4.75l3.05-2.65q0.85 2.85 0.85 6.1 0 5.25-2.15 9.45-1.2 2.25-2.95 4.3m-32.35-13.15q16.95 1.9 31.1 13.4l0.6 0.55-2 1.7q-1.45 1.2-3.1 2-3.85 2.05-8.5 2.05l-2.1-0.1-0.3-1.45-2.8 0.85-0.6-0.15q-4.35-1.45-7.8-5.1-1.65-1.6-2.75-3.45l-0.35-1.45-0.25-1.3q-0.85-3.6-1.15-7.55m1.55 4.3q13.6 1.7 23.6 7.85l2.4 0.05q-12.15-7.75-26.05-11-0.8 1.4 0.05 3.1m27.45-20.5v-0.05l0.2 0.25-0.2-0.2" fill="#fcd661" fill-rule="evenodd"/>
<path d="m45.35 61.65-0.2-0.5-0.15-0.5 14.6-9.2v-0.1l0.8 2.15-13.7 8.25-1.35-0.1m-7.25-11.7 2.25 5.95 1.7 4.5h-1.55l-5-9.65v-0.1l0.7-0.15 0.25-0.2h0.1q1.05-0.5 1.3-1l0.15 0.4 0.1 0.25m10.6-0.25 0.6 0.2-1.45 1.2-4.75-1.3-0.5-1.65 1.35 0.25 4.75 1.3" fill="#fdeab0" fill-rule="evenodd"/>
<path d="m31.15 55.8q0.85-2.75 2.4-4.6l0.45-0.55 0.3 0.6 5.6 10.35-0.25 0.35-5.5-9.25q-1.1-0.15-2.4 3.7l-0.6-0.6m17.1 8.35 0.7-1.1 11.6-6.3 0.85 2.1q-5.4 1.95-13.15 5.3" fill="#f38c01" fill-rule="evenodd"/>
<path d="m53.7 34.5v-0.1l0.6 0.15 1.85 0.6q6.55 2.35 9.3 5.1l0.6 0.6-0.95 2.15 2.45-0.6 0.95 1.05q-0.2-0.2-0.2-0.1-0.5 2.05-3.2 2l-1.55-1.85q-2.4-2.5-5.15-4.1-2.4-1.55-5-2.35l-0.3-0.05-0.3-0.1-0.95-0.25-0.6-0.1 2.45-2.05m7.7 24.5q0.7 2.35 0.2 4.75l-12.2 1.8q-1.25-0.25-1.25-1.3l0.1-0.1q7.75-3.35 13.15-5.3v0.15m-21.75 2.95q0.1 1.1-1.3 1.1l-6.6-6.65q1.3-3.85 2.4-3.7l5.5 9.25m16.5-26.8-3.05 1.85 3.05-1.85" fill="#ffbf09" fill-rule="evenodd"/>
<path d="m68.3 43.35q1.7 2.75 3 6 1.9 4.85 2.7 10.6-1.3 1.55-3.35 2.25v-0.6q0-5.85-2.15-10.75v-0.1l2.8-1.4-2.8 1.4q-1.3-2.95-3.4-5.4 2.7 0.05 3.2-2" fill="#f0b500" fill-rule="evenodd"/>
<path d="m29.4 67.35q-0.85-1.7-0.05-3.1 13.9 3.25 26.05 11l-2.4-0.05q-10-6.15-23.6-7.85" fill="#fbeb7d" fill-rule="evenodd"/>
<path d="m54.3 34.55 1.85 0.6q6.55 2.35 9.3 5.1m3.05 3.2q-0.2-0.2-0.2-0.1 1.7 2.75 3 6 1.9 4.85 2.7 10.6-0.45 5.5-2.7 11.45l-0.6 1.45q-1.55 3.2-5.85 7m-31.3-28.65-1.1-2.15-0.35-0.7m-5.45 14.6 1.05 0.1h0.15q16.95 1.9 31.1 13.4l0.6 0.55m1.85-18q0.7 2.35 0.2 4.75l-12.2 1.8q-1.25-0.25-1.25-1.3l0.1-0.1 0.7-1.1 11.6-6.3 0.35-0.15q-0.15 0.15 0.1 0.95l2.85-3m-17.55 9.45-0.2 0.1-0.75-2.45-0.2-0.5m14.45-9.7v-0.1l0.95-0.5 0.1-0.1m-20.5 11.45v0.05l-0.5-0.3m-3.5-16.95 0.3 0.95h0.1l1.3 3.35 0.15 0.4m10.95 13.35-2.65 0.95m-4.15-3.35-2 1.55m21.25-11.95-0.75 0.5m-0.1 6 0.45 0.8m0.4 1.45v-0.15l-0.85-2.1" fill="none" stroke="#000" stroke-linecap="round" stroke-linejoin="round" stroke-opacity=".30196" stroke-width=".5"/>
<path d="m64.85 79.85-5.4 3.35-2.85 1.8q-4.2 2.05-10.25 2.15-3.75 0-7.15-1.05-5.65-1.8-10.05-6.45-2.4-2.6-3.95-5.4l-0.45-0.7m-2.75-11.9v-0.05l0.1-2.4m9.05-3.4q0.85-2.75 2.4-4.6m-1.45-2.85q-2.1 2.2-3.35 4.9m-0.1 0.1q-1.15 2.2-1.65 4.9-0.35 1.95-0.35 4.2v0.5m32.9 14.05 0.05-0.2 0.6-0.6q1.75-2.05 2.95-4.3 2.15-4.2 2.15-9.45 0-3.25-0.85-6.1m-23.4-6.4-0.3-0.6q-0.85-1.95 0-5.5v-0.05l0.3-1.05q-1.3 0.35-2.45 0.85-1.25 0.5-2.45 1.4-2.1 1.2-3.8 3.1l-0.25 0.25m7.55 13.6q0.1 1.1-1.3 1.1l-6.6-6.65-0.6-0.6m-1.55 17.55q1.1 1.85 2.75 3.45 3.45 3.65 7.8 5.1l0.6 0.15m3.1 0.6 2.1 0.1q4.65 0 8.5-2.05 1.65-0.8 3.1-2l2-1.7m-30.65-4.85 0.7 1.2m-0.7-1.2q-2.15-4.1-2.25-9.2m41.85-12.2v0.1q2.15 4.9 2.15 10.75v0.6m-12.25-22.8q2.75 1.6 5.15 4.1l1.55 1.85q2.1 2.45 3.4 5.4m-11.65-3.9v-0.05l0.25-0.95-2.15-1.4-0.5-0.35-0.25 0.7-1.05 2.35q-1.45 2.5-3.45 2.2-0.5-0.05-1 0.35m8.15-2.85q-2.3 7.15-6.35 6.65-4.4-0.6-7.9-2.25-0.95-0.5-1.55-1.3m10.65-6.95 2.75 1.1m6.3 5.25-1.15-1.25-2.5-2.25m-16.05-3.1 2.15-0.45h0.65l2-0.15h0.1q3 0 5.75 0.85m-8.8 0.5q-0.6 3.05 1.05 4.15m-1.05-4.15 0.3-1.2m-8.9 8.95-0.3-0.6-0.45 0.55m6.1 10.75 0.25-0.35-5.6-10.35m29.55 3.3-0.3-0.6-0.15-0.45-2-3.25-0.3-0.55m2.75 4.85 0.6 1.8m3.25 17.65q-1.65 3-4.15 5.65l-4.1 3.55m8.25-9.2q2.85-5.35 2.95-11.8" fill="none" stroke="#000" stroke-linecap="round" stroke-linejoin="round" stroke-opacity=".30196" stroke-width=".5"/>
<path d="m65.45 40.25 0.6 0.6-0.95 2.15m-38.1 15.25-2.85-0.9m16.6 24.7 2.8-0.85m-14.65-9.05-3.7 2.1m4.05-2.35-0.35 0.25m39.6-21.4 2.8-1.4m-18.2-12.35v0.05-0.05l3.05-1.85m-4.45 7.85 0.75-3.35m10.95 13.85 0.85-0.45m-9.8 27.65 2.15 4.3m-16.45-3.1-0.95 4.2m28.5-12.1 3.6-2.6m-8.15 0.5 4.55 2.1" fill="none" stroke="#000" stroke-linecap="round" stroke-linejoin="round" stroke-opacity=".30196" stroke-width=".5"/>
<path d="m30.2 49.25 4-10.25-12.1-7.05 11.2 4-0.05-2.45 2.3 2.55 12.5-25.35-10.3 26.55 16.95 9.45-18.25-7.15-6.25 9.7" fill="#fffcf2" fill-rule="evenodd"/>
</g>
</defs>
</svg>
