<?xml version="1.0" encoding="UTF-8"?>
<svg version="1.1" viewBox="0 0 80.3 79.1" xmlns="http://www.w3.org/2000/svg" xmlns:cc="http://creativecommons.org/ns#" xmlns:dc="http://purl.org/dc/elements/1.1/" xmlns:rdf="http://www.w3.org/1999/02/22-rdf-syntax-ns#" xmlns:xlink="http://www.w3.org/1999/xlink">
<metadata>
<rdf:RDF>
<cc:Work rdf:about="">
<dc:format>image/svg+xml</dc:format>
<dc:type rdf:resource="http://purl.org/dc/dcmitype/StillImage"/>
</cc:Work>
</rdf:RDF>
</metadata>
<g transform="translate(-257.92 -196.38)">
<use transform="translate(257.95,196.4)" width="80.25" height="79.050003" xlink:href="#a"/>
</g>
<defs>
<g id="a" transform="translate(-257.95,-196.4)">
<path d="m312.9 222.65q-2.3-3.55-6.45-3.4-0.45 0.05-0.75 0.4-1.8 1.9 0.1 3.65l3.85 3.55q0.5 0.5 0.7 1.15 1.05 2.8 3.6 4l1.9-1.35 0.4-0.35q0.15-1.95-0.85-3.65l-2.5-4m17.95 8.95q-3.05 0.75-5.85 2.2l-0.15 0.2-0.15 0.15q-2.15 0.7-4 1.85l-0.05 0.55 0.05 1.4-0.1 0.1-0.1 0.2v0.35l0.15 0.2 0.1 0.1q2.55-0.55 4.8-1.95l0.55-0.35q2.4-1.1 4.25-2.7l0.15-0.05q2.1-0.75 2.7-2.45l-0.1-0.1-0.55-0.15q-0.95 0.05-1.7 0.45m-21.65-14.5q2.3 1.4 4.35 3.45 3.25 3.25 4.95 7.15l19.7 3.15-18.25 10.35q-1.25 6.8-6.4 11.9l-0.3 0.3 5.4 21.75 0.05 0.3-0.2-0.15 0.15-0.15-11.1-17.6-0.4-0.65 1.25-1.3q1.35-1.9 2.3-3.95l0.8-0.9q0.85-1.75-0.9-2.65-2.9-1.5-6.35-0.9l-0.8 0.25q-0.35 0.15-0.6 0.4l-0.1 0.1-3.75 0.15-1.6-1.2q3.25-0.05 5.6-2.45 2.45-2.4 2.45-5.8t-2.45-5.85q-2.25-2.25-5.65-2.3 3.4 0.05 5.65 2.3 2.45 2.45 2.45 5.85t-2.45 5.8q-2.35 2.4-5.6 2.45h-0.2l0.1-0.1-3.3-2.2-0.9-7.35 4.25-6.75-0.15-0.1q-3.4 0-5.85 2.4-2.4 2.45-2.4 5.85l0.2 0.1-0.2 0.3v-0.4 0.4l-5 8.25-5.65 2.55q-1-1.35-1.7-2.8l-18.65-1.55 5.25-3.75 15.25-3.85-0.5-3-0.7-3.75 4.55-7.3 9.45-5.5 17.95-1.25m-19.8 41.45 1.2 2-8.35 4.95v-0.1 0.1l-0.05 0.05 0.05-0.15-0.35-1.35-1.15-0.75 0.05-0.25 4-2.55 1.35-0.8-2.85-5.3-10.85 6-0.05 0.05-2.15-1.15v-0.25l0.15-0.1 0.25-0.2 10.3-5.75 3.9-2.15 4.55 7.7m-5.3-58.3-0.3-3.85 14.05 17.05-0.55 0.4q-4.8 0-8.85 1.7l-4.35-15.3m-7.5 46.8h2.2q4.85-8-0.85-12.15 5.7 4.15 0.85 12.15h-2.2m14.5-40.45-0.4-0.05-0.7-0.1q-0.4 0.05-0.4 0.4 0.1 2.9 1.85 5.45l2.05 1 0.55-0.1 0.45-0.35 0.1-0.5q-1.1-3.25-3.5-5.75m10.05 26.3h-0.2l-0.25 0.25v0.5q0.25 1.5 1.05 2.75l0.55 0.1 0.15-0.2 0.5-0.55v-0.05q0.05-2.1-1.8-2.8m12.1 20.5q-2.65 2.55-5.7 4.15 3.05-1.6 5.7-4.15m-10.65-14.5v0.55l-0.25 0.85-0.15 0.15-0.1 0.5-0.05 0.45-0.4 0.35q-0.65 0.85-0.6 1.9l0.1 0.05 0.8 0.1q1.7-1.15 2.7-2.95l0.15-0.3q0.85-2.1-0.6-3.6l-0.2-0.05h-0.25l-0.35 0.25-0.8 1.75m14.65-4.4-0.1-0.05-0.05-0.1-0.05-0.2-0.2-0.2q-1.1-0.85-2.55-0.8l-0.75 0.2-0.1 0.05-0.1 0.2-0.35 1.05q-0.65 2.9 1.65 4.75l0.85-0.1q3.15-0.75 2.05-3.85v-0.1l0.05-0.15v-0.1l-0.05-0.1-0.3-0.5m-4.8 7.45q-0.1 0.55-0.55 0.9l-0.3 0.4v0.3l-0.05 0.05v0.1l-0.1 0.1-0.1 0.2q0 0.7 0.3 1.4 0.55 1.2 1.5 2.15v0.1l0.05 0.1v0.1l0.05 0.1q1.8 1.1 3.05-0.3l-0.1-0.25-0.1-0.2v-0.1l1-1.2q1.65-1.9 0.7-4.2l-0.05-0.1q-1.1-1.3-2.8-1.35l-0.75 0.3q-1 0.6-1.75 1.4m7.5-0.75q0.35-2.1 0.35-4.35 0-4.95-1.8-9.15 1.8 4.2 1.8 9.15 0 2.25-0.35 4.35m-50 0.65-3.35 0.5-0.3 0.5v0.55l0.05 0.15q5.45 1.85 11.3 1.6l2.1-1.55 0.1-0.15 0.1-0.5-0.1-0.7-0.05-0.2q-0.25-0.4-0.75-0.45l-5.6-0.2-3.5 0.45" fill="#666" fill-rule="evenodd"/>
<path d="m330.85 231.6q0.75-0.4 1.7-0.45l0.55 0.15 0.1 0.1q-0.6 1.7-2.7 2.45l-0.15 0.05q-1.85 1.6-4.25 2.7l-0.55 0.35q-2.25 1.4-4.8 1.95l-0.1-0.1-0.15-0.2v-0.35l0.1-0.2 0.1-0.1-0.05-1.4 0.05-0.55q1.85-1.15 4-1.85l0.15-0.15 0.15-0.2q2.8-1.45 5.85-2.2m-17.95-8.95 2.5 4q1 1.7 0.85 3.65l-0.4 0.35-1.9 1.35q-2.55-1.2-3.6-4-0.2-0.65-0.7-1.15l-3.85-3.55q-1.9-1.75-0.1-3.65 0.3-0.35 0.75-0.4 4.15-0.15 6.45 3.4m-21.8-16.05q2.4 2.5 3.5 5.75l-0.1 0.5-0.45 0.35-0.55 0.1-2.05-1q-1.75-2.55-1.85-5.45 0-0.35 0.4-0.4l0.7 0.1 0.4 0.05m10.05 26.3q1.85 0.7 1.8 2.8v0.05l-0.5 0.55-0.15 0.2-0.55-0.1q-0.8-1.25-1.05-2.75v-0.5l0.25-0.25h0.2m1.45 6 0.8-1.75 0.35-0.25h0.25l0.2 0.05q1.45 1.5 0.6 3.6l-0.15 0.3q-1 1.8-2.7 2.95l-0.8-0.1-0.1-0.05q-0.05-1.05 0.6-1.9l0.4-0.35 0.05-0.45 0.1-0.5 0.15-0.15 0.25-0.85v-0.55m14.65-4.4 0.3 0.5 0.05 0.1v0.1l-0.05 0.15v0.1q1.1 3.1-2.05 3.85l-0.85 0.1q-2.3-1.85-1.65-4.75l0.35-1.05 0.1-0.2 0.1-0.05 0.75-0.2q1.45-0.05 2.55 0.8l0.2 0.2 0.05 0.2 0.05 0.1 0.1 0.05m-47.3 7.35 3.5-0.45 5.6 0.2q0.5 0.05 0.75 0.45l0.05 0.2 0.1 0.7-0.1 0.5-0.1 0.15-2.1 1.55q-5.85 0.25-11.3-1.6l-0.05-0.15v-0.55l0.3-0.5 3.35-0.5" fill="#8e8e8e" fill-rule="evenodd"/>
<path d="m318.5 275.3-18-15.65-3.2 0.2q-4.2 0-7.9-1.3l-4.55-7.7-3.9 2.15q-1.5-1.5-2.65-3.15l5.65-2.55 5-8.25 0.2-0.3-0.2-0.1q0-3.4 2.4-5.85 2.45-2.4 5.85-2.4l0.15 0.1-4.25 6.75 0.9 7.35 3.3 2.2-0.1 0.1h0.2l1.6 1.2 3.75-0.15 0.1-0.1q0.25-0.25 0.6-0.4l0.8-0.25q3.45-0.6 6.35 0.9 1.75 0.9 0.9 2.65l-0.8 0.9q-0.95 2.05-2.3 3.95l-1.25 1.3 0.4 0.65 11.1 17.6-0.15 0.15m-55.3-33.55 11.35-8.2 0.35-0.3q1.75 0.75 3.05 1.65l0.5 3-15.25 3.85m11.4-8.55q1-7.25 6.4-12.65 2.05-2.05 4.4-3.45l-1.3-16.85 4.35 15.3q-1.6 0.65-3.05 1.55 1.45-0.9 3.05-1.55 4.05-1.7 8.85-1.7l0.9 0.05q6.1 0.15 11 3.2l-17.95 1.25-9.45 5.5-4.55 7.3 0.7 3.75q-1.3-0.9-3.05-1.65l-0.3-0.05m22.6 13.7q-3.4 0-5.85-2.45-2.25-2.25-2.4-5.4 0.15 3.15 2.4 5.4 2.45 2.45 5.85 2.45m15.25-4.95q0.75-0.8 1.75-1.4l0.75-0.3q1.7 0.05 2.8 1.35l0.05 0.1q0.95 2.3-0.7 4.2l-1 1.2v0.1l0.1 0.2 0.1 0.25q-1.25 1.4-3.05 0.3l-0.05-0.1v-0.1l-0.05-0.1v-0.1q-0.95-0.95-1.5-2.15-0.3-0.7-0.3-1.4l0.1-0.2 0.1-0.1v-0.1l0.05-0.05v-0.3l0.3-0.4q0.45-0.35 0.55-0.9m-11.95 17.7q3.75-0.5 7.05-2.1-3.3 1.6-7.05 2.1" fill="#4b4b4b" fill-rule="evenodd"/>
<path d="m290.6 260.55-3.05 4-5.9 3.45-0.05-0.05-0.75-0.35-0.7-1.65 0.6-2.65 1.15 0.75 0.35 1.35-0.05 0.15-0.6 2.4 0.6-2.4 0.05-0.05 8.35-4.95m-5.8-0.05-2.5-3.55-9.35 5.25h-0.05l-1-0.45-0.25-0.9-1.45-0.65 0.05-0.9 2.15 1.15 0.05-0.05 0.75 0.45-0.25 1.35 0.25-1.35-0.75-0.45 10.85-6 2.85 5.3-1.35 0.8m-12.95 11.65h-0.05v-0.1l0.05 0.1" fill="#424242" fill-rule="evenodd"/>
<path d="m309.2 217.1q2.3 1.4 4.35 3.45 3.25 3.25 4.95 7.15l19.7 3.15-18.25 10.35q-1.25 6.8-6.4 11.9l-0.3 0.3 5.4 21.75 0.05 0.3-0.2-0.15-18-15.65-3.2 0.2q-4.2 0-7.9-1.3m1.2 2-3.05 4-5.9 3.45-0.05-0.05-0.75-0.35-0.7-1.65 0.6-2.65 0.05-0.25m4-2.55-2.5-3.55-9.35 5.25h-0.05m-1.25-1.35-1.45-0.65 0.05-0.9v-0.25l0.15-0.1m10.55-5.95q-1.5-1.5-2.65-3.15-1-1.35-1.7-2.8l-18.65-1.55 5.25-3.75 11.35-8.2 0.05-0.35q1-7.25 6.4-12.65 2.05-2.05 4.4-3.45l-1.3-16.85-0.3-3.85 14.05 17.05 0.35 0.45q6.1 0.15 11 3.2m-11.9-3.25 0.9 0.05m-9.25 25.15v-0.4m8.45 8.25h-0.2m-22.3-13.65-0.35 0.3m-2.1 26.85 0.75 0.45-0.25 1.35m-0.55-1.75-2.15-1.15m10.5 4 1.15 0.75 0.35 1.35v0.1m-0.05 0.05 0.05-0.15m-0.65 2.55 0.6-2.4" fill="none" stroke="#000" stroke-linecap="round" stroke-linejoin="round" stroke-opacity=".4" stroke-width=".05"/>
<path d="m277.95 234.9q5.7 4.15 0.85 12.15h-2.2m8.8-29.95q1.45-0.9 3.05-1.55m8.85-1.7q-4.8 0-8.85 1.7m19.1 42q3.05-1.6 5.7-4.15m-24.3-14.35q0.15 3.15 2.4 5.4 2.45 2.45 5.85 2.45m-8.25-8.25q0-3.4 2.4-5.85 2.45-2.4 5.85-2.4m21.3-2.7q1.8 4.2 1.8 9.15 0 2.25-0.35 4.35m-45.05-7.95q1.75 0.75 3.05 1.65m29.6 22.65q-3.3 1.6-7.05 2.1" fill="none" stroke="#4b4b4b" stroke-linecap="round" stroke-linejoin="round"/>
<path d="m297.35 230.5q3.4 0.05 5.65 2.3 2.45 2.45 2.45 5.85t-2.45 5.8q-2.35 2.4-5.6 2.45" fill="none" stroke="#4b4b4b" stroke-linecap="round" stroke-linejoin="round" stroke-width=".05"/>
<path d="m289.4 258.55 1.2 2m-9.8 2.5 4-2.55 1.35-0.8-2.85-5.3-10.85 6-0.05 0.05m-2-1.5 0.25-0.2 10.3-5.75 3.9-2.15m-2.6 14.65 8.35-4.95m-8.4 5 0.05-0.05" fill="none" stroke="#666" stroke-linecap="round" stroke-linejoin="round" stroke-width=".05"/>
<path d="m284.85 250.85 4.55 7.7" fill="none" stroke="#666" stroke-linecap="round" stroke-linejoin="round"/>
</g>
</defs>
</svg>
