<?xml version="1.0" encoding="UTF-8"?>
<svg version="1.1" viewBox="0 0 147.1 179.95" xmlns="http://www.w3.org/2000/svg" xmlns:cc="http://creativecommons.org/ns#" xmlns:dc="http://purl.org/dc/elements/1.1/" xmlns:rdf="http://www.w3.org/1999/02/22-rdf-syntax-ns#" xmlns:xlink="http://www.w3.org/1999/xlink">
<metadata>
<rdf:RDF>
<cc:Work rdf:about="">
<dc:format>image/svg+xml</dc:format>
<dc:type rdf:resource="http://purl.org/dc/dcmitype/StillImage"/>
</cc:Work>
</rdf:RDF>
</metadata>
<g transform="translate(-201.43 -110.48)">
<use transform="translate(201.45,110.5)" width="147.05" height="179.89999" xlink:href="#a"/>
</g>
<defs>
<g id="a" transform="translate(-201.45,-110.5)">
<path d="m343.1 165-7.3-17.3v-0.05l-14.4 4.85-14.4 4.9-1.3-1.35 35.15-16.5 7.65 29.05-5.4-3.6m-84.5-14.8-2.35-1.75-5.6-10.85-5.55-10.85-5-9.7-29.65 4.7-9-2.25 41.85-9 18.6 38.1-2 0.35-1.3 1.25m14.6 14.45 4.1 9.2 3.3 5.15q-4.25 2.05-8.8 0.35h-0.05l2.5-3.35-4.4-9.65q1.35-1.05 3.35-1.7m31.95 13.75q0.6 1.45 0.5 2.8l-0.45 1.65-0.3 0.6q-0.7 0.7-3 1.35 1.35-0.75 1.55-1.45t-1-0.5-1.8 0.75q-0.6 0.5-0.65 1.1-1.05-0.35-1.75-1l-1.2-1.7 8.1-3.6m-12.3 7.45 0.95 0.65q3.1 1.55 6.65 1.5 1.9 0.15 3.75-1.35 2.65-1.85 3.35-4.55l0.1-0.65q0.45-2.3 0.2-4.2l0.95-0.45q0.65 2.15 0.3 4.9l-0.3 1.4q-0.75 2.7-3.7 4.55-2.05 1.5-4.05 1.35-3.95 0.05-7.35-1.55l-0.4-0.55-0.7-0.85 0.25-0.2m-6.3 9.95 2.1-6.7 0.95-0.4v5.65l-3.05 1.45m7-0.75h-0.95v-6.75l1.65 2.1 0.55 0.15 0.1 1.25-0.15 0.05-0.6 2.55-0.6 0.65m0.05-2.9 1.15-0.3-1.15 0.3m1.3-0.35-0.65-1.4 0.65 1.4" fill-rule="evenodd"/>
<path d="m307 157.4 14.4-4.9 14.4-4.85v0.05l7.3 17.3-5.35-3.65-4.15 8.65-4.15-9-4.85 10.05-4.85-7.3-10.1-3.05-2.65-3.3m14.4-4.9-1.65 11.25 1.65-11.25m-65.15-4.05-7.75-5.75-10.05 4.15 4.85-10.05-21.8 4.85 9.35-14.9-20.4-5 29.65-4.7 5 9.7 5.55 10.85 5.6 10.85m73.2 12.55 6.35-13.3-6.35 13.3m-98.6-34.25 9.25-9.7-9.25 9.7m17.65 15.95 2.15-5.1-2.15 5.1m-5.2-5.9 1.8-10.05-1.8 10.05" fill="#9b3370" fill-rule="evenodd"/>
<path d="m316 176q12.5 8.6 11.45 15.05l-0.1 0.6-0.05 0.15q-0.55 1.8-2.15 3.2-2.1-4.4-9.25-9.5l0.35-5.05-0.25-4.45m-46.7 39.35-23.95 75.05-5.2-2.25 24.4-74.25 4.75 1.45m-42.4-51.45 0.45-2.3q2.4-6.3 17.85-6.65 3.6-0.1 7.45 0.15v0.05q-4.05 3.85-6.55 8.25h-0.15l-2.25 0.05q-11.7 0.25-15.95 3.9-0.85-1.8-0.85-3.45" fill="#850c6d" fill-rule="evenodd"/>
<path d="m327.3 191.8-1.3 7.65-0.1 0.3-0.1 0.55q-2.05 6.7-18.1 7.05h-4.2l-6.4-0.4-5.2-0.65-0.55-0.05-7.5-1.35-12.1-3.1-0.85-0.25-2.3-0.65-0.25-0.1-5.45-1.8-0.4-0.15-1.95-0.7-1.2-0.45-2.85-1.15-2.8-1.15-1.4-0.6-2.05-0.95-3.15-1.55-4.1-2.15-6.1-3.85q-11.5-7.9-11.5-14l1.5-8.4q0 1.65 0.85 3.45 2.3 4.75 10.65 10.5l3.05 2 0.25 0.15 2.8 1.65q5.1 2.9 11.15 5.5 5.85 2.5 12.6 4.65l1.5 0.5 2.65 0.8q13.9 4.15 25.7 5.35l3.05 0.25 4.3 0.2h3.75l1.8-0.05 2.75-0.2 4.2-0.65q4.8-0.95 7.2-3 1.6-1.4 2.15-3.2" fill="url(#b)" fill-rule="evenodd"/>
<path d="m257.55 151.15 1.05-0.95 1.3-1.25 2-0.35h0.1l15.6-2.8 0.45 0.1 5.9 12.3v11.1q-3.35 2.25-6.65 4.55l-4.1-9.2-1.9-4.75-6.55-4.4 0.95 3.45q-2.05 0.15-4.1 0.95-4.05 2.1-6.5 5.8-1.5 2.15-2.35 4.9-1.05 3.8-0.3 8.15l0.3 1.5 1.1 0.7 10.4 6.9 2.5 1.65 3 2.8-1.5-0.5-11.6-5.6-1 0.95q-6.05-2.6-11.15-5.5l-1.5-3.55-0.1-3 0.05-0.15-0.05-0.15-0.1-3.95-0.05-1.3 1-1.55 6.15-9.6 7.65-7.25m40.9 27.3 0.25-5.05 2.2-7.25q1.45 5.75-2.45 12.3m-11.9 17.35 3.05-1.45v-5.65l1-0.35 1 6.5-2.25 0.95h-2.8m7-0.75 0.6-0.65 0.6-2.55 0.15-0.05-0.1-1.25-0.55-0.15-1.65-2.1 1.35 0.3 2.25 2.25h3.4l-2.95 1.25-0.85 2.25-1.3 0.7h-0.95" fill="#eee9a8" fill-rule="evenodd"/>
<path d="m305.7 156.05 1.3 1.35 2.65 3.3 1 1.45-9.3-8.9-1.85-0.95 0.3 0.2 0.1 0.1-0.1-0.05h-0.05q-0.6-0.35-3.35-1.5l-2.05-0.85 0.1-0.5-2.7-1.35v0.05l-3.75-0.9v-0.05l-2.9-0.5-0.05-0.05 0.05 0.1-1.5 0.05-5.55-1.15-0.45-0.1-15.6 2.8q7.55-3.7 16.7-3.7 15.4 0 26.35 10.5l0.65 0.65m-60.5 40.55q-1.55-3-2.45-6.2l4.25 2.25q-0.6 1.95-1.8 3.95m7.45-41.45q2.35-2.25 4.9-4l-7.65 7.25-6.15 9.6q0.85-2.25 2.05-4.35l0.15-0.25h0.15q2.5-4.4 6.55-8.25m-9.85 15.7 0.1 3.95 0.05 0.15-0.05 0.15 0.1 3 1.5 3.55-2.8-1.65-0.25-0.15q0.1-4.75 1.35-9m23.95 18.65-2.5-1.65 7.1-0.5 5.55-1.2 1.9-1.25q2.55-1.7 3.75-3.2l1.8 2.5v3.05h-2.3l-2.25-0.65-1.9 1.15-3.9 1-7.25 0.75m-12.9-8.55-1.1-0.7-0.3-1.5q-0.75-4.35 0.3-8.15 0.85-2.75 2.35-4.9 2.45-3.7 6.5-5.8 2.05-0.8 4.1-0.95l-0.95-3.45 6.55 4.4 1.9 4.75q-2 0.65-3.35 1.7l-1.9-5.4-0.9 0.05q-2 0.1-4.1 0.95-3 1.55-5.05 4-2.55 2.8-3.8 6.75-0.85 3.05-0.5 6.5l0.25 1.75m59.95 6.3 0.4-0.35v-0.15q-0.25-1.8-0.05-4.15l0.05-0.05v-2.5l-1.15-0.05-0.05 0.05h-1.65l0.1-0.05 3.35-2.3-0.1-0.6-0.3 0.3 0.3-0.4q-0.1-0.8 0.1-1l0.25-0.25v-1.5l-2.45-6.55 0.3 0.6-0.25-0.6q-0.65-1.3-0.45-1.65l-1.35-3.6 2.1 3.95q2.1 4.6 2.75 9.85l0.25 4.45-0.3 5.05-0.7 3.45-0.15-0.3-0.3-0.85-0.2 0.1 0.15-0.3-0.15-0.7-0.5 0.1m-19.65-16.05-0.4-14.25 2.95 7.4-2.55 6.85" fill="#fefac9" fill-rule="evenodd"/>
<path d="m255.65 187.15 1-0.95 11.6 5.6q-6.75-2.15-12.6-4.65m14.1 5.15-3-2.8 7.25-0.75 3.9-1 1.9-1.15 2.25 0.65h2.3v-3.05l4.4-3.25 4-4.7-4 4.7-4.4 3.25 0.7 1-0.7-1-1.8-2.5-1.95-2.7-3.3-5.15q3.3-2.3 6.65-4.55v-11.1l-5.9-12.3 5.55 1.15 1.5-0.05v-0.05l2.9 0.5v0.05l3.75 0.9v-0.05l2.7 1.35-0.1 0.5 2.05 0.85q2.75 1.15 3.35 1.5h0.05l0.1 0.05-0.1-0.1-0.3-0.2 1.85 0.95 9.3 8.9 0.15 0.1 0.05 0.2 1.35 3.6q-0.2 0.35 0.45 1.65h-0.05l2.45 6.55v1.5l-0.25 0.25q-0.2 0.2-0.1 1l-0.3 0.4 0.3-0.3 0.1 0.6-3.35 2.3-0.1 0.05h1.65l0.05-0.05 1.15 0.05v2.5l-0.05 0.05q-0.2 2.35 0.05 4.15v0.15l-0.4 0.35-3 2.4h0.1l-6.45 5.2-0.5 0.4-5.85 3.2q-11.8-1.2-25.7-5.35l-2.65-0.8m-9.2 5.85-0.95-0.3-0.25-0.15 1.2 0.45m34.85-46.8 1-0.3-1 0.3m-1.25 19.85 2.55-6.85-2.95-7.4 0.4 14.25m11 7.2-8.1 3.6-1.8 0.85-3.35 2.35h-1.05l0.35 1.75 2.1-0.05 0.4 0.55q3.4 1.6 7.35 1.55 2 0.15 4.05-1.35 2.95-1.85 3.7-4.55l0.3-1.4q0.35-2.75-0.3-4.9l-0.95 0.45-2.7 1.15m-6.7-5.4v7.5l-3.2 2.35 3.2-2.35v-7.5m0 5.45q3.9-6.55 2.45-12.3l-2.2 7.25-0.25 5.05m-8.85 10.25-0.95 0.4-2.1 6.7h2.8l2.25-0.95-1-6.5-1 0.35m3-0.4v6.75h1.9l1.3-0.7 0.85-2.25 2.95-1.25h-3.4l-2.25-2.25-1.35-0.3m19.05-12.75-2.85 1.25 2.85-1.25" fill="#e2d072" fill-rule="evenodd"/>
<path d="m285.1 146.95v0.05l-0.05-0.1 0.05 0.05m27.5 20.75h0.05l0.25 0.6-0.3-0.6" fill="#c97d47" fill-rule="evenodd"/>
<path d="m264.25 187.85-10.4-6.9-0.25-1.75q-0.35-3.45 0.5-6.5 1.25-3.95 3.8-6.75 2.05-2.45 5.05-4 2.1-0.85 4.1-0.95l0.9-0.05 1.9 5.4-0.25 0.2q-1.5 1.2-2.15 3.05 1.35 0.1 2.4 0.9 1.25 0.95 1.25 2.3 0 1.25-1.25 2.2-0.9 0.65-2 0.9 0.8 1.55 2.45 2.8l1.45 0.65h0.05l-7.55 8.5" fill="#fff" fill-rule="evenodd"/>
<path d="m271.75 179.35-1.45-0.65q-1.65-1.25-2.45-2.8 1.1-0.25 2-0.9 1.25-0.95 1.25-2.2 0-1.35-1.25-2.3-1.05-0.8-2.4-0.9 0.65-1.85 2.15-3.05l0.25-0.2 4.4 9.65-2.5 3.35" fill="#999" fill-rule="evenodd"/>
<path d="m243.1 199.4 0.8-0.9 1.3-1.9q1.2-2 1.8-3.95l0.1-0.35 3.15 1.55-1 1.75-6.15 3.8m55-0.95 5.85-3.2 0.5-0.4 2.55-0.15q0.1 2.2 0.45 4.2h-2l-0.95-1-0.25-0.05-1.8 0.15h-0.15q-0.65 0.3-1.15 0.7l-3.05-0.25m-1 8.5-0.05 3.15-5.15-3.5v-0.3l5.2 0.65m-18.4 7.95-0.2 0.1-9.9-6.2v-4.45q4.2-0.05 7.15 3.05t2.95 7.5" fill="#ccc" fill-rule="evenodd"/>
<path d="m304.75 207.35-0.5 1.85-3.45 3.45-2.3-1.6-1.45-0.95 0.05-3.15 6.4 0.4h1.25m-49.1 1.45-3.15 1.05 1.4-2.45 4.3-7.4-4.7-3.65-0.35 1.75-3.75 1.45-1.25 0.3-0.85 0.2-2.1 0.65-0.45 0.05q-0.65-0.1-1.05-0.5l-0.1-0.2-0.4-0.45-0.15-0.15 0.05-0.05 6.15-3.8 1-1.75 2.05 0.95 0.05 0.4 0.05 1.9v0.1l1.15-1.5 0.15-0.3 2.8 1.15 1.05 0.8 3.2 2.4q0.45 0.35 1.5-0.65l0.25-0.25 0.4 0.15 0.65 0.55q-1 1.9 1.75 1.85l0.5 1.45-3.7 2.85q-3 1.8-6.45 3.1m59.7-18.75 2.6 5.85v2.1l-4.2 0.65-1.25-2.65-0.5-0.85 0.2-2.8 0.65-0.75q0.95-0.75 1.95-1.45l0.55-0.1m-14.2 8.65q0.5-0.4 1.15-0.7h0.15l1.8-0.15 0.25 0.05 0.95 1-4.3-0.2m-17.3 6.2 0.05 0.3q1.25 1.25 2.7 3.4-3.45 4.35-7.9 6.3 0-4.4-2.95-7.5t-7.15-3.05v-1.9l0.9-0.25 1.35-0.3 0.3-0.05 0.6-0.05 12.1 3.1m-15.8-3.85h0.05l-0.1 0.05 0.05-0.05" fill="#fff3d9" fill-rule="evenodd"/>
<path d="m253.7 195.4-0.15 0.3-1.15 1.5v-0.1l-0.05-1.9-0.05-0.4 1.4 0.6m38.2 10.9v0.3l-0.55-0.35 0.55 0.05m-23.3-3.85v-1.55l2.3 0.65 0.85 0.25-0.6 0.05-0.3 0.05-1.35 0.3-0.9 0.25m-0.5-1.4h-0.05l-0.05 0.05-2.2 2.05v-0.3l-0.5-1.45-0.3-0.35-1.45-1.5-0.65-0.55 5.45 1.8-0.25 0.25" fill="#c95010" fill-rule="evenodd"/>
<path d="m243.2 199.6-0.2-0.1 0.05-0.05 0.15 0.15m39.35-17.9q-1.2 1.5-3.75 3.2l-1.9 1.25-5.55 1.2-7.1 0.5 7.55-8.5q4.55 1.7 8.8-0.35l1.95 2.7m14.5 0.3 1.2 1.7q0.7 0.65 1.75 1 0.05-0.6 0.65-1.1 0.6-0.55 1.8-0.75t1 0.5-1.55 1.45q2.3-0.65 3-1.35l0.3-0.6 0.45-1.65q0.1-1.35-0.5-2.8l2.7-1.15q0.25 1.9-0.2 4.2l-0.1 0.65q-0.7 2.7-3.35 4.55-1.85 1.5-3.75 1.35-3.55 0.05-6.65-1.5l-1.9-1.3 3.35-2.35 1.8-0.85" fill="#dadada" fill-rule="evenodd"/>
<path d="m293.3 186.9-2.1 0.05-0.35-1.75h1.05l-0.05 0.85h0.75l0.7 0.85" fill="#733925" fill-rule="evenodd"/>
<path d="m291.9 185.2 0.95 0.65-0.25 0.2h-0.75l0.05-0.85" fill="#cba682" fill-rule="evenodd"/>
<path d="m314.95 189.2 0.4 0.85-0.55 0.1q-1 0.7-1.95 1.45l-0.65 0.75-0.2 2.8 0.5 0.85 1.25 2.65-2.75 0.2-1.8 0.05h-1.75q-0.35-2-0.45-4.2l0.45 1.4 0.15 2.1 1.4-5.8q1.2-1.65 2.55-2.45l0.2-0.15 0.2 0.05-0.5 0.65 1.2-1.15 0.9-0.3 1.25-0.15 0.15 0.3" fill="#b9b9b9" fill-rule="evenodd"/>
<path d="m304.45 194.85 6.45-5.2h-0.1l3-2.4 0.5-0.1 0.15 0.7-0.15 0.3 0.2-0.1 0.3 0.85-1.25 0.15-0.9 0.3-1.2 1.15 0.5-0.65-0.2-0.05-0.2 0.15q-1.35 0.8-2.55 2.45l-1.4 5.8-0.15-2.1-0.45-1.4-2.55 0.15" fill="#a2400d" fill-rule="evenodd"/>
<path d="m298.5 211.05q-8.75 5.4-19.8 5.4-4.95 0-9.4-1.1l-4.75-1.45q-2.25-0.9-4.4-2.1l-2.95-1.85-1.55-1.15q3.45-1.3 6.45-3.1l3.7-2.85v0.3l2.2-2.05 0.1-0.05h-0.05 0.05l0.5 0.15v7.6l9.9 6.2 0.2-0.1q4.45-1.95 7.9-6.3-1.45-2.15-2.7-3.4l-0.05-0.3 7.5 1.35 0.55 0.35 5.15 3.5 1.45 0.95m-44.6-3.65-1.55-1.45q-2.95-2.8-5.05-5.9l0.85-0.2 1.25-0.3 3.75-1.45 0.35-1.75 4.7 3.65-4.3 7.4m3.65-10.05 4.7 1.75q-1.05 1-1.5 0.65l-3.2-2.4m6 2.2 1.45 1.5 0.3 0.35q-2.75 0.05-1.75-1.85m-6.35 10.4 0.15-0.45-0.15 0.45" fill="#ac9722" fill-rule="evenodd"/>
<path d="m240.15 288.15-5.25-2.2 25.25-74.15q2.15 1.2 4.4 2.1l-24.4 74.25" fill="#b30f93" fill-rule="evenodd"/>
<path d="m343.1 165 5.4 3.6-7.65-29.05-35.15 16.5 1.3 1.35 2.65 3.3 10.1 3.05 1.65-11.25m21.7 12.5-5.35-3.65-4.15 8.65-4.15-9-4.85 10.05-4.85-7.3m-3.75 12.25q12.5 8.6 11.45 15.05l-0.1 0.6m-0.05 0.15-1.3 7.65-0.1 0.3-0.1 0.55q-2.05 6.7-18.1 7.05h-2.95l-0.5 1.85-3.45 3.45-2.3-1.6q-8.75 5.4-19.8 5.4-4.95 0-9.4-1.1l-23.95 75.05-5.2-2.25-5.25-2.2 25.25-74.15-2.95-1.85-1.55-1.15-3.15 1.05 1.4-2.45-1.55-1.45q-2.95-2.8-5.05-5.9l-2.1 0.65-0.45 0.05q-0.65-0.1-1.05-0.5l-0.1-0.2-0.4-0.45m-0.1-0.2 0.8-0.9 1.3-1.9q-1.55-3-2.45-6.2m4.35 1.9-4.1-2.15-6.1-3.85q-11.5-7.9-11.5-14l1.5-8.4 0.45-2.3q2.4-6.3 17.85-6.65 3.6-0.1 7.45 0.15m0 0.05q2.35-2.25 4.9-4l1.05-0.95-2.35-1.75-7.75-5.75-10.05 4.15 4.85-10.05-21.8 4.85 9.35-14.9-20.4-5-9-2.25 41.85-9 18.6 38.1m0.1 0q7.55-3.7 16.7-3.7 15.4 0 26.35 10.5l0.65 0.65m19.45 38.95q1.6-1.4 2.15-3.2m8.5-44.1-6.35 13.3m-89.35-43.95-9.25 9.7m12.9 41.25-1 1.55 0.05 1.3m1.7 10.8q5.1 2.9 11.15 5.5 5.85 2.5 12.6 4.65l1.5 0.5 2.65 0.8q13.9 4.15 25.7 5.35l3.05 0.25 4.3 0.2h3.75l1.8-0.05 2.75-0.2 4.2-0.65q4.8-0.95 7.2-3-2.1-4.4-9.25-9.5m-88.15-18.15q-0.85-1.8-0.85-3.45m0.85 3.45q2.3 4.75 10.65 10.5l3.05 2q0.1-4.75 1.35-9m-1.35 9 0.25 0.15 2.8 1.65m0.6-54.9-1.8 10.05m7.35 0.8-2.15 5.1m-2.55 20.7-0.15 0.25q-1.2 2.1-2.05 4.35m2.2-4.6-2.25 0.05q-11.7 0.25-15.95 3.9m24.9-12.2q-4.05 3.85-6.55 8.25h-0.15m7.75 32-1.4-0.6-2.05-0.95-3.15-1.55m12.25 5.4-2.85-1.15-2.8-1.15m8.8 3.45-1.95-0.7m-1.2-0.45 1.2 0.45m50.3-35.7 2.1 3.95q2.1 4.6 2.75 9.85l0.25 4.45-0.3 5.05-0.7 3.45m0.4 0.85 2.6 5.85v2.1m-8.3-37.3 1 1.45m-5.9 45.2h-1.25l-6.4-0.4-5.2-0.65-0.55-0.05-7.5-1.35-12.1-3.1-0.85-0.25-2.3-0.65-0.25-0.1-5.45-1.8-0.4-0.15m6.8 16.5-4.75-1.45q-2.25-0.9-4.4-2.1m-2.8-2.3-0.15 0.45" fill="none" stroke="#600" stroke-linecap="round" stroke-linejoin="round" stroke-width=".05"/>
<path d="m255.65 187.15 1-0.95 11.6 5.6m1.5 0.5-3-2.8m-14.3-10.75q-0.75-4.35 0.3-8.15 0.85-2.75 2.35-4.9 2.45-3.7 6.5-5.8m11.6 4.75 4.1 9.2q3.3-2.3 6.65-4.55v-11.1l-5.9-12.3" fill="none" stroke="#0a1e36" stroke-linecap="round" stroke-linejoin="round" stroke-opacity=".50196" stroke-width=".1"/>
<path d="m282.55 181.7-1.95-2.7m-3.3-5.15 3.3 5.15m3.75 5.2v3.05h-2.3l-2.25-0.65-1.9 1.15-3.9 1-7.25 0.75m38.4-11.1-8.1 3.6-1.8 0.85-3.35 2.35h-1.05l0.35 1.75 2.1-0.05-0.7-0.85h-0.75m16-8.8-2.7 1.15m-9.9 4.45 3.2-2.35v-7.5m-14.1 11.2 4.4-3.25 4-4.7m-7.7 8.95-0.7-1-1.8-2.5m7.05 7-0.95 0.4-2.1 6.7m8.2-3.95-1.15 0.3m1.2-1.6-0.55-0.15 0.65 1.4m-0.15 0.05 0.15-0.05m-1.6-4.9 0.4 0.55q3.4 1.6 7.35 1.55 2 0.15 4.05-1.35 2.95-1.85 3.7-4.55l0.3-1.4q0.35-2.75-0.3-4.9l-0.95 0.45m0.95-0.45 2.85-1.25" fill="none" stroke="#000" stroke-linecap="round" stroke-linejoin="round" stroke-opacity=".30196" stroke-width=".1"/>
<path d="m296.4 151.05-1 0.3" fill="none" stroke="#e9a228" stroke-linecap="round" stroke-linejoin="round" stroke-width=".1"/>
<path d="m264.55 213.9-24.4 74.25" fill="none" stroke="#fbf2c6" stroke-linecap="round" stroke-linejoin="round" stroke-width=".05"/>
</g>
<radialGradient id="b" cx="0" cy="0" r="819.2" gradientTransform="matrix(.0659 0 0 .0659 276.35 185.65)" gradientUnits="userSpaceOnUse">
<stop stop-color="#f8e612" offset="0"/>
<stop stop-color="#9a2ba4" offset=".91373"/>
<stop stop-color="#c78b01" offset="1"/>
</radialGradient>
</defs>
</svg>
