<?xml version="1.0" encoding="UTF-8" standalone="no"?>
<svg xmlns:ffdec="https://www.free-decompiler.com/flash" xmlns:xlink="http://www.w3.org/1999/xlink" ffdec:objectType="frame" height="339.15px" width="331.35px" xmlns="http://www.w3.org/2000/svg">
  <g transform="matrix(3.0, 0.0, 0.0, 3.0, 165.6, 169.5)">
    <use ffdec:characterId="1" height="113.05" transform="matrix(1.0, 0.0, 0.0, 1.0, 0.0, 0.0)" width="110.45" xlink:href="#shape0"/>
  </g>
  <defs>
    <g id="shape0">
      <path d="M44.15 -47.9 Q44.9 -46.75 45.75 -46.25 45.1 -37.85 41.8 -32.8 44.15 -35.3 46.85 -40.3 L45.15 -33.2 45.6 -30.25 40.15 -30.55 44.15 -47.9 M52.85 -2.35 Q50.3 3.6 50.95 5.65 42.75 16.35 31.1 20.6 L33.4 21.15 38.75 22.0 30.95 25.0 Q16.35 21.6 3.55 13.55 16.1 10.9 28.8 -4.5 44.65 1.2 52.85 -2.35 M37.1 41.45 L38.15 39.55 Q35.35 50.1 34.25 52.3 29.25 60.4 10.9 53.0 13.35 53.3 13.3 50.15 L19.35 52.6 Q25.45 54.65 31.75 51.3 L37.1 41.45 M0.4 48.15 L-1.95 38.1 1.4 45.3 0.4 48.15 M-7.8 41.7 L-9.35 44.5 -21.9 35.0 -20.4 32.2 -7.8 41.7 M-18.9 29.4 L-27.0 29.45 -33.55 23.15 -31.1 22.45 -24.85 27.85 -18.9 29.4 M30.75 -55.45 Q32.1 -54.6 33.15 -52.9 29.65 -39.4 31.15 -37.05 27.75 -41.3 28.95 -43.5 L31.25 -49.15 30.75 -55.45 M5.45 -16.1 L6.4 -15.1 Q4.85 -10.25 1.55 -3.45 L5.45 -16.1" fill="#d7dbc8" fill-rule="evenodd" stroke="none"/>
      <path d="M46.85 -40.3 L48.6 -43.7 Q46.95 -35.85 47.2 -30.4 L45.6 -30.25 45.15 -33.2 46.85 -40.3 M50.95 5.65 L52.8 5.7 Q47.0 19.2 33.4 21.15 L31.1 20.6 Q42.75 16.35 50.95 5.65 M38.75 22.0 Q41.2 22.65 41.65 23.65 38.05 23.55 34.4 25.75 L30.95 25.0 38.75 22.0 M10.9 53.0 Q6.1 51.1 0.4 48.15 L1.4 45.3 13.3 50.15 Q13.35 53.3 10.9 53.0 M-33.55 23.15 Q-44.85 11.6 -51.0 -0.7 -56.8 -12.65 -54.6 -18.6 -49.25 4.55 -31.1 22.45 L-33.55 23.15 M-21.4 -18.95 Q-14.95 -22.35 -8.1 -27.2 -14.8 -18.55 -10.6 -19.2 -5.7 -21.35 -1.4 -25.7 1.35 -20.25 5.45 -16.1 L1.55 -3.45 Q5.6 -9.75 7.65 -14.35 19.5 -7.85 28.8 -4.5 16.1 10.9 3.55 13.55 -4.6 8.4 -11.5 2.35 -24.3 -7.35 -21.4 -18.95 M19.4 -42.35 Q22.6 -45.85 26.4 -48.9 27.7 -55.8 20.05 -54.25 26.8 -58.05 30.75 -55.45 L31.25 -49.15 28.95 -43.5 Q27.75 -41.3 31.15 -37.05 32.15 -35.45 35.6 -39.1 L41.4 -54.85 Q42.65 -50.1 44.15 -47.9 L40.15 -30.55 Q30.25 -32.35 19.4 -42.35" fill="#ffffff" fill-rule="evenodd" stroke="none"/>
      <path d="M47.2 -30.4 Q47.45 -25.35 49.35 -22.3 44.7 -26.65 45.6 -30.25 L47.2 -30.4 M34.4 25.75 Q29.9 28.45 25.35 34.55 28.8 37.2 31.25 38.45 L23.4 36.2 22.85 36.65 30.95 25.05 30.95 25.0 34.4 25.75 M-54.6 -18.6 L-53.45 -20.7 Q-47.95 -24.35 -37.2 -12.65 -29.6 -14.65 -21.4 -18.95 -24.3 -7.35 -11.5 2.35 -4.6 8.4 3.55 13.55 -11.0 16.6 -26.25 11.9 -23.2 22.35 -31.1 22.45 -49.25 4.55 -54.6 -18.6 M-1.4 -25.7 Q3.65 -30.85 7.9 -39.05 4.3 -30.15 8.1 -32.0 L9.3 -32.65 11.1 -33.8 9.85 -27.75 Q8.7 -22.7 6.4 -15.1 L5.45 -16.1 Q1.35 -20.25 -1.4 -25.7 M13.75 -29.7 L16.6 -39.05 19.4 -42.35 Q30.25 -32.35 40.15 -30.55 35.85 -14.6 28.8 -4.5 19.5 -7.85 7.65 -14.35 11.55 -23.2 13.75 -29.7 M-37.2 -12.65 L-41.1 -11.8 Q-44.25 -9.1 -26.25 11.9 -44.25 -9.1 -41.1 -11.8 L-37.2 -12.65 M25.35 34.55 L23.4 36.2 25.35 34.55" fill="#cc0000" fill-rule="evenodd" stroke="none"/>
      <path d="M49.35 -22.3 Q50.15 -21.1 51.25 -20.2 57.7 -3.8 53.7 -4.15 L52.85 -2.35 Q44.65 1.2 28.8 -4.5 35.85 -14.6 40.15 -30.55 L45.6 -30.25 Q44.7 -26.65 49.35 -22.3 M31.25 38.45 L34.9 39.45 Q34.95 44.8 37.1 41.45 L31.75 51.3 Q25.45 54.65 19.35 52.6 L13.3 50.15 1.4 45.3 -1.95 38.1 -7.6 33.85 -7.8 41.7 -20.4 32.2 -18.9 29.4 -24.85 27.85 -31.1 22.45 Q-23.2 22.35 -26.25 11.9 -11.0 16.6 3.55 13.55 16.35 21.6 30.95 25.0 L30.95 25.05 22.85 36.65 23.4 36.2 31.25 38.45 Q33.5 39.55 34.9 39.45 33.5 39.55 31.25 38.45 M9.85 -27.75 Q10.8 -24.9 13.75 -29.7 11.55 -23.2 7.65 -14.35 5.6 -9.75 1.55 -3.45 4.85 -10.25 6.4 -15.1 8.7 -22.7 9.85 -27.75 M3.5 33.55 Q16.15 41.35 22.85 36.65 16.15 41.35 3.5 33.55" fill="#710000" fill-rule="evenodd" stroke="none"/>
      <path d="M44.15 -47.9 Q44.9 -46.75 45.75 -46.25 45.1 -37.85 41.8 -32.8 44.15 -35.3 46.85 -40.3 L48.6 -43.7 Q46.95 -35.85 47.2 -30.4 47.45 -25.35 49.35 -22.3 50.15 -21.1 51.25 -20.2 57.7 -3.8 53.7 -4.15 L52.85 -2.35 Q50.3 3.6 50.95 5.65 L52.8 5.7 Q47.0 19.2 33.4 21.15 L38.75 22.0 Q41.2 22.65 41.65 23.65 38.05 23.55 34.4 25.75 29.9 28.45 25.35 34.55 28.8 37.2 31.25 38.45 33.5 39.55 34.9 39.45 34.95 44.8 37.1 41.45 L38.15 39.55 Q35.35 50.1 34.25 52.3 29.25 60.4 10.9 53.0 6.1 51.1 0.4 48.15 L-1.95 38.1 -7.6 33.85 -7.8 41.7 -9.35 44.5 -21.9 35.0 -20.4 32.2 -18.9 29.4 -27.0 29.45 -33.55 23.15 Q-44.85 11.6 -51.0 -0.7 -56.8 -12.65 -54.6 -18.6 L-53.45 -20.7 Q-47.95 -24.35 -37.2 -12.65 -29.6 -14.65 -21.4 -18.95 -14.95 -22.35 -8.1 -27.2 -14.8 -18.55 -10.6 -19.2 -5.7 -21.35 -1.4 -25.7 3.65 -30.85 7.9 -39.05 4.3 -30.15 8.1 -32.0 L9.3 -32.65 11.1 -33.8 9.85 -27.75 Q10.8 -24.9 13.75 -29.7 L16.6 -39.05 19.4 -42.35 Q22.6 -45.85 26.4 -48.9 27.7 -55.8 20.05 -54.25 26.8 -58.05 30.75 -55.45 32.1 -54.6 33.15 -52.9 29.65 -39.4 31.15 -37.05 32.15 -35.45 35.6 -39.1 L41.4 -54.85 Q42.65 -50.1 44.15 -47.9 M-26.25 11.9 Q-44.25 -9.1 -41.1 -11.8 L-37.2 -12.65 M13.75 -29.7 Q11.55 -23.2 7.65 -14.35 5.6 -9.75 1.55 -3.45 4.85 -10.25 6.4 -15.1 8.7 -22.7 9.85 -27.75 M22.85 36.65 L23.4 36.2 25.35 34.55 M22.85 36.65 Q16.15 41.35 3.5 33.55 M-31.1 22.45 L-24.85 27.85 -18.9 29.4 M-31.1 22.45 Q-49.25 4.55 -54.6 -18.6 M37.1 41.45 L31.75 51.3 Q25.45 54.65 19.35 52.6 L13.3 50.15 1.4 45.3 -1.95 38.1 M-7.8 41.7 L-20.4 32.2" ffdec:has-small-stroke="true" ffdec:original-stroke-width="0.15" fill="none" stroke="#000000" stroke-linecap="round" stroke-linejoin="round" stroke-opacity="0.56078434" stroke-width="0.33333333333333337"/>
    </g>
  </defs>
</svg>
