<?xml version="1.0" encoding="UTF-8"?>
<svg version="1.1" viewBox="0 0 69.949 62.127" xmlns="http://www.w3.org/2000/svg" xmlns:cc="http://creativecommons.org/ns#" xmlns:dc="http://purl.org/dc/elements/1.1/" xmlns:rdf="http://www.w3.org/1999/02/22-rdf-syntax-ns#" xmlns:xlink="http://www.w3.org/1999/xlink">
<metadata>
<rdf:RDF>
<cc:Work rdf:about="">
<dc:format>image/svg+xml</dc:format>
<dc:type rdf:resource="http://purl.org/dc/dcmitype/StillImage"/>
</cc:Work>
</rdf:RDF>
</metadata>
<g transform="translate(-240 -168.95)">
<use transform="translate(240,168.85)" width="69.949997" height="62.25" xlink:href="#a"/>
</g>
<defs>
<g id="a" transform="translate(-240,-168.85)">
<path d="m289.35 176.3-1.7-4.55 5.05-0.8 0.6 4.4-3.95 0.95m8.95-2.2-0.6-3.85 3.8-0.5 0.55 3.45-3.75 0.9m-57.55 50.05 0.7-2.85 4.15 1.7-0.85 2.65-4-1.5m2.85-10.45 1.7-5 3.8 3.05-1.35 4.3-4.15-2.35" fill="#cccc9d" fill-rule="evenodd"/>
<path d="m289.35 176.3 3.95-0.95 0.45 3.5-3.05 1.15-1.35-3.7m9.4 0.65-0.45-2.85 3.75-0.9 0.35 2.4-3.65 1.35m-45.2 38.3-1.65 3.15-4.15-2.35 1.35-4.3 4.45 3.5m-4.7 9.05-1.25 2.4-2.85-1.05 0.85-2.65 3.25 1.3" fill="#b2b26a" fill-rule="evenodd"/>
<path d="m287.65 171.75 1.7 4.55-26.1 6.35-2.3-1.45 1.85-2.05q10.2-4.7 21.75-6.9l3.1-0.5m5.65 3.6-0.6-4.4 5-0.7 0.6 3.85-5 1.25m8.2-5.6 2.55-0.3 3.95-0.1-2.55 3.05-3.4 0.8-0.55-3.45m-56.3 59.85q-5.25 3.5-4.75-4.35l0.3-1.1 4 1.5-0.55 1.8 1 2.15m-3.75-8.3q1-3.9 2.15-7.6l4.15 2.35-2.15 6.95-4.15-1.7m3.85-12.6q4.35-12.1 10.6-21.95l1.6-1.75-8.4 26.75-3.8-3.05" fill="#9c3" fill-rule="evenodd"/>
<path d="m260.95 181.2 2.3 1.45 26.1-6.35 1.35 3.7-18 6.65-10 11-9.15 17.6-4.45-3.5 8.4-26.75 3.45-3.8m32.35-5.85 5-1.25 0.45 2.85-5 1.9-0.45-3.5m9.1 0.25-0.35-2.4 3.4-0.8 2.55-3.05q1.6 0.3 1.55 1.45-0.2 2.05-6.25 4.5l-0.9 0.3m-50.5 42.8-3.05 5.9-3.25-1.3 2.15-6.95 4.15 2.35m-4.3 8.3-0.9 1.75-1.5 1.15-1-2.15 0.55-1.8 2.85 1.05" fill="#678822" fill-rule="evenodd"/>
<path d="m287.65 171.75-3.1 0.5q-11.55 2.2-21.75 6.9l-1.85 2.05m31.75-10.25-5.05 0.8m10.05-1.5-5 0.7m6.05 6 3.65-1.35m5.6-6.25q1.6 0.3 1.55 1.45-0.2 2.05-6.25 4.5l-0.9 0.3m-0.9-5.85 2.55-0.3 3.95-0.1m-6.5 0.4-3.8 0.5m-3.95 8.6-3.05 1.15-18 6.65-10 11-9.15 17.6-1.65 3.15-3.05 5.9-1.25 2.4-0.9 1.75-1.5 1.15q-5.25 3.5-4.75-4.35l0.3-1.1 0.7-2.85q1-3.9 2.15-7.6l1.7-5q4.35-12.1 10.6-21.95l1.6-1.75 3.45-3.8m32.8-2.35 5-1.9" fill="none" stroke="#000" stroke-linecap="round" stroke-linejoin="round" stroke-opacity=".30196" stroke-width=".8"/>
</g>
</defs>
</svg>
