<?xml version="1.0" encoding="UTF-8" standalone="no"?>
<svg xmlns:ffdec="https://www.free-decompiler.com/flash" xmlns:xlink="http://www.w3.org/1999/xlink" ffdec:objectType="frame" height="231.0px" width="231.0px" xmlns="http://www.w3.org/2000/svg">
  <g transform="matrix(3.0, 0.0, 0.0, 3.0, 0.0, 0.0)">
    <use ffdec:characterId="1" height="53.1" transform="matrix(1.0, 0.0, 0.0, 1.0, -21.75, -10.7)" width="52.5" xlink:href="#shape0"/>
    <use ffdec:characterId="3" height="43.9" transform="matrix(0.7695, 0.0, 0.0, 0.7695, 24.75, 52.55)" width="27.7" xlink:href="#sprite0"/>
    <use ffdec:characterId="3" height="43.9" transform="matrix(0.7695, 0.0, 0.0, 0.7695, 24.25, 52.05)" width="27.7" xlink:href="#sprite1"/>
    <use ffdec:characterId="4" height="61.45" transform="matrix(1.0, 0.0, 0.0, 1.0, -21.75, -10.7)" width="39.85" xlink:href="#shape3"/>
  </g>
  <defs>
    <g id="shape0">
      <path d="M28.75 53.25 Q30.0 50.55 32.1 48.35 L32.35 48.1 Q34.05 46.2 36.15 45.0 37.35 44.1 38.6 43.6 39.75 43.1 41.05 42.75 L43.2 42.3 43.85 42.3 45.85 42.15 45.95 42.15 Q48.95 42.15 51.7 43.0 L54.45 44.1 54.95 44.45 57.1 45.85 59.6 48.1 60.75 49.35 61.1 49.7 61.4 50.25 61.95 51.0 62.0 51.05 63.4 53.5 63.55 53.95 63.85 54.55 64.45 56.35 Q65.3 59.2 65.3 62.45 65.3 67.7 63.15 71.9 61.95 74.15 60.2 76.2 L59.6 76.8 59.55 77.0 57.55 78.7 Q56.1 79.9 54.45 80.7 50.6 82.75 45.95 82.75 L43.85 82.65 43.55 81.2 40.75 82.05 40.15 81.9 Q35.8 80.45 32.35 76.8 30.7 75.2 29.6 73.35 L29.25 71.9 29.05 72.05 28.9 72.15 Q26.75 68.05 26.65 62.95 L26.65 62.45 Q26.65 60.2 27.0 58.25 27.5 55.55 28.65 53.35 L28.75 53.25" fill="#aeaeae" fill-rule="evenodd" stroke="none"/>
      <path d="M53.7 34.5 L53.7 34.4 54.3 34.55 56.15 35.15 Q62.7 37.5 65.45 40.25 L66.05 40.85 65.1 43.0 67.55 42.4 68.5 43.45 Q68.3 43.25 68.3 43.35 67.8 45.4 65.1 45.35 L63.55 43.5 Q61.15 41.0 58.4 39.4 56.0 37.85 53.4 37.05 L53.1 37.0 52.8 36.9 51.85 36.65 51.25 36.55 53.7 34.5 M56.15 35.15 L53.1 37.0 56.15 35.15" fill="#838383" fill-rule="evenodd" stroke="none"/>
      <path d="M59.45 83.2 L56.6 85.0 Q52.4 87.05 46.35 87.15 42.6 87.15 39.2 86.1 33.55 84.3 29.15 79.65 26.75 77.05 25.2 74.25 L24.75 73.55 Q22.0 68.2 22.0 61.65 L22.0 61.6 22.1 59.2 22.1 59.1 Q22.2 57.9 22.45 56.75 22.55 55.75 22.8 54.8 L23.2 53.35 Q24.1 53.95 25.05 54.1 L27.1 54.0 Q28.55 50.25 30.95 47.4 34.75 43.6 38.6 41.95 44.3 40.4 47.25 41.2 47.4 41.0 47.65 40.85 L49.8 38.6 50.05 38.2 50.75 36.7 50.75 36.65 50.85 36.45 51.25 36.55 51.85 36.65 52.8 36.9 53.1 37.0 53.4 37.05 Q56.0 37.85 58.4 39.4 61.15 41.0 63.55 43.5 L65.1 45.35 Q67.2 47.8 68.5 50.75 L68.5 50.85 Q70.65 55.75 70.65 61.6 L70.65 62.2 Q70.55 68.65 67.7 74.0 L63.15 71.9 67.7 74.0 Q66.05 77.0 63.55 79.65 L59.45 83.2 M51.7 43.0 Q48.95 42.15 45.95 42.15 L45.85 42.15 43.85 42.3 43.2 42.3 41.05 42.75 Q39.75 43.1 38.6 43.6 37.35 44.1 36.15 45.0 34.05 46.2 32.35 48.1 L32.1 48.35 Q30.0 50.55 28.75 53.25 L28.65 53.35 Q27.5 55.55 27.0 58.25 26.65 60.2 26.65 62.45 L26.65 62.95 Q26.75 68.05 28.9 72.15 L29.25 72.7 29.45 73.05 29.6 73.35 Q30.7 75.2 32.35 76.8 35.8 80.45 40.15 81.9 L40.75 82.05 43.55 81.2 43.85 82.65 45.95 82.75 Q50.6 82.75 54.45 80.7 56.1 79.9 57.55 78.7 L59.55 77.0 59.6 76.8 60.2 76.2 Q61.95 74.15 63.15 71.9 65.3 67.7 65.3 62.45 65.3 59.2 64.45 56.35 L63.85 54.55 63.55 53.95 63.4 53.5 62.0 51.05 61.95 51.0 61.4 50.25 61.1 49.7 60.75 49.35 59.6 48.1 57.1 45.85 54.95 44.45 54.45 44.1 51.7 43.0 52.45 39.65 51.7 43.0 M24.15 57.35 L27.0 58.25 24.15 57.35 M25.2 74.25 L28.9 72.15 25.2 74.25 M39.2 86.1 L40.15 81.9 39.2 86.1 M64.25 53.05 L63.4 53.5 64.25 53.05 M56.6 85.0 L54.45 80.7 56.6 85.0" fill="#9f9f9f" fill-rule="evenodd" stroke="none"/>
      <path d="M68.3 43.35 Q70.0 46.1 71.3 49.35 73.2 54.2 74.0 59.95 72.7 61.5 70.65 62.2 L70.65 61.6 Q70.65 55.75 68.5 50.85 L68.5 50.75 71.3 49.35 68.5 50.75 Q67.2 47.8 65.1 45.35 67.8 45.4 68.3 43.35" fill="#787878" fill-rule="evenodd" stroke="none"/>
      <path d="M23.2 53.35 Q23.65 51.8 24.35 50.5 24.75 49.55 25.3 48.7 L25.65 48.0 Q27.1 45.6 29.15 43.5 L29.6 43.0 Q33.05 39.55 37.05 37.85 L37.25 37.85 Q37.6 37.6 38.0 37.5 L39.9 36.9 41.3 36.55 41.7 36.45 43.55 36.2 43.8 36.2 46.35 36.05 49.55 36.3 50.25 36.4 50.4 36.4 50.85 36.45 50.75 36.65 50.75 36.7 50.05 38.2 49.8 38.6 47.65 40.85 Q47.4 41.0 47.25 41.2 44.3 40.4 38.6 41.95 34.75 43.6 30.95 47.4 28.55 50.25 27.1 54.0 L25.05 54.1 Q24.1 53.95 23.2 53.35" fill="#dddddd" fill-rule="evenodd" stroke="none"/>
      <path d="M37.05 37.85 L37.25 37.75 37.85 37.3 39.55 36.2 40.1 35.85 40.35 35.7 41.8 35.45 42.25 35.35 43.25 35.15 43.55 35.1 44.3 35.0 45.15 34.85 49.55 34.5 51.0 34.4 51.55 34.4 53.7 34.5 51.25 36.55 50.85 36.45 50.4 36.4 50.25 36.4 49.55 36.3 46.35 36.05 43.8 36.2 43.55 36.2 41.7 36.45 41.3 36.55 39.9 36.9 38.0 37.5 Q37.6 37.6 37.25 37.85 L37.05 37.85" fill="#acacac" fill-rule="evenodd" stroke="none"/>
      <path d="M74.0 59.95 Q73.55 65.45 71.3 71.4 L70.7 72.85 Q69.15 76.05 64.85 79.85 L59.45 83.2 63.55 79.65 Q66.05 77.0 67.7 74.0 70.55 68.65 70.65 62.2 72.7 61.5 74.0 59.95 M28.9 72.15 L29.05 72.05 29.25 71.9 29.6 73.35 29.45 73.05 29.25 72.7 28.9 72.15 M29.05 72.05 L29.25 72.7 29.05 72.05 M71.3 71.4 L67.7 74.0 71.3 71.4" fill="#7a7a7a" fill-rule="evenodd" stroke="none"/>
      <path d="M54.3 34.55 L56.15 35.15 Q62.7 37.5 65.45 40.25 M68.5 43.45 Q68.3 43.25 68.3 43.35 70.0 46.1 71.3 49.35 73.2 54.2 74.0 59.95 73.55 65.45 71.3 71.4 L70.7 72.85 Q69.15 76.05 64.85 79.85 M29.25 72.7 L29.05 72.05 M29.25 72.7 L29.45 73.05" fill="none" stroke="#000000" stroke-linecap="round" stroke-linejoin="round" stroke-opacity="0.3019608" stroke-width="0.5"/>
      <path d="M64.85 79.85 L59.45 83.2 56.6 85.0 Q52.4 87.05 46.35 87.15 42.6 87.15 39.2 86.1 33.55 84.3 29.15 79.65 26.75 77.05 25.2 74.25 L24.75 73.55 M22.0 61.65 L22.0 61.6 22.1 59.2 M58.4 39.4 Q61.15 41.0 63.55 43.5 L65.1 45.35 Q67.2 47.8 68.5 50.75 L68.5 50.85 Q70.65 55.75 70.65 61.6 L70.65 62.2 Q70.55 68.65 67.7 74.0 66.05 77.0 63.55 79.65 L59.45 83.2 M28.75 53.25 Q30.0 50.55 32.1 48.35 L32.35 48.1 Q34.05 46.2 36.15 45.0 37.35 44.1 38.6 43.6 39.75 43.1 41.05 42.75 L43.2 42.3 43.85 42.3 45.85 42.15 45.95 42.15 Q48.95 42.15 51.7 43.0 L54.45 44.1 54.95 44.45 57.1 45.85 59.6 48.1 60.75 49.35 M28.65 53.35 Q27.5 55.55 27.0 58.25 26.65 60.2 26.65 62.45 L26.65 62.95 Q26.75 68.05 28.9 72.15 L29.25 72.7 M29.6 73.35 Q30.7 75.2 32.35 76.8 35.8 80.45 40.15 81.9 L40.75 82.05 M43.85 82.65 L45.95 82.75 Q50.6 82.75 54.45 80.7 56.1 79.9 57.55 78.7 L59.55 77.0 59.6 76.8 60.2 76.2 Q61.95 74.15 63.15 71.9 65.3 67.7 65.3 62.45 65.3 59.2 64.45 56.35 L63.85 54.55 63.55 53.95 63.4 53.5 62.0 51.05 61.95 51.0 61.4 50.25 61.1 49.7 M29.45 73.05 L29.6 73.35" fill="none" stroke="#000000" stroke-linecap="round" stroke-linejoin="round" stroke-opacity="0.3019608" stroke-width="0.5"/>
      <path d="M65.45 40.25 L66.05 40.85 65.1 43.0 M53.1 37.0 L56.15 35.15 M51.7 43.0 L52.45 39.65 M28.9 72.15 L29.05 72.05 29.25 71.9 M40.75 82.05 L43.55 81.2 M27.0 58.25 L24.15 57.35 M40.15 81.9 L39.2 86.1 M28.9 72.15 L25.2 74.25 M63.4 53.5 L64.25 53.05 M63.15 71.9 L67.7 74.0 71.3 71.4 M54.45 80.7 L56.6 85.0 M68.5 50.75 L71.3 49.35" fill="none" stroke="#000000" stroke-linecap="round" stroke-linejoin="round" stroke-opacity="0.3019608" stroke-width="0.5"/>
    </g>
    <g id="sprite0">
      <use ffdec:characterId="2" height="43.9" transform="matrix(1.0, 0.0, 0.0, 1.0, 0.0, 0.0)" width="27.7" xlink:href="#shape1"/>
    </g>
    <g id="shape1">
      <path d="M2.9 8.75 L3.3 9.0 3.85 9.4 3.9 9.35 3.85 9.45 2.85 8.8 2.4 8.55 2.25 8.45 1.85 8.15 2.45 8.5 2.9 8.75 2.85 8.8 2.9 8.75 M2.4 8.55 L2.45 8.5 2.4 8.55" fill="#555555" fill-rule="evenodd" stroke="none"/>
      <path d="M4.0 9.3 L3.9 9.35 4.0 9.3 M2.25 8.45 L1.75 8.1 1.85 8.15 2.25 8.45" fill="#555555" fill-rule="evenodd" stroke="none"/>
      <path d="M-1.8 10.85 L-2.0 11.2 -2.2 11.55 -1.8 10.85" fill="#555555" fill-rule="evenodd" stroke="none"/>
      <path d="M-8.8 10.25 L-8.5 9.75 -8.35 9.65 -8.8 10.25" fill="#555555" fill-rule="evenodd" stroke="none"/>
      <path d="M-10.5 14.9 L-9.45 15.1 -8.95 15.5 -8.8 15.9 Q-8.6 16.4 -8.85 16.8 L-9.6 17.3 -10.65 17.1 -11.3 16.3 -11.4 16.0 -11.3 15.4 -10.5 14.9" fill="#555555" fill-rule="evenodd" stroke="none"/>
      <path d="M13.3 -21.65 L13.3 -21.6 -0.55 2.15 Q-1.2 1.75 -2.05 1.75 -3.25 1.75 -4.1 2.6 L-4.85 3.95 -5.15 3.8 -4.85 3.95 -4.85 4.0 -5.15 3.8 -7.25 2.5 Q-3.95 -4.75 -1.05 -9.5 L-0.35 -8.9 Q0.6 -9.05 2.2 -10.15 3.8 -11.3 5.65 -13.3 7.45 -15.35 8.55 -17.7 L9.3 -20.0 11.05 -20.8 12.75 -21.45 13.15 -21.6 13.3 -21.65 M-12.2 1.85 L-11.75 0.65 -10.35 -2.5 Q-9.5 -4.2 -8.05 -5.8 L-7.65 -4.9 Q-8.65 -4.25 -9.65 -1.4 L-10.85 1.6 -11.3 1.85 -12.2 1.85" fill="#555555" fill-rule="evenodd" stroke="none"/>
      <path d="M9.3 -20.0 L8.55 -17.7 Q7.45 -15.35 5.65 -13.3 3.8 -11.3 2.2 -10.15 0.6 -9.05 -0.35 -8.9 L-1.05 -9.5 2.0 -13.85 Q5.05 -17.75 9.3 -20.0" fill="#555555" fill-rule="evenodd" stroke="none"/>
      <path d="M-0.1 6.95 Q0.5 7.1 0.6 6.45 0.75 5.2 2.6 1.15 4.45 -2.95 6.3 -5.2 L9.75 -10.05 10.2 -10.85 13.45 -15.4 13.15 -12.95 11.6 -7.2 Q8.4 1.35 2.9 8.75 L2.45 8.5 1.85 8.15 1.75 8.1 -0.1 6.95 M-5.5 16.9 L-5.3 17.25 Q-4.8 18.8 -5.55 20.1 -6.3 21.4 -7.95 21.65 -9.65 21.95 -11.2 21.05 -12.75 20.1 -13.35 18.55 -13.9 16.95 -13.15 15.65 -12.4 14.35 -10.7 14.05 L-10.65 14.05 -10.5 13.85 -10.15 13.05 -10.2 13.05 -10.15 12.95 -9.05 10.7 -8.8 10.25 -8.35 9.65 -7.15 7.35 -4.55 8.95 -4.75 10.85 Q-4.85 12.5 -6.4 13.0 L-8.25 12.15 -7.45 14.1 -7.95 14.4 -9.65 14.45 -5.5 16.9 M-10.5 13.85 L-10.5 13.9 -9.75 14.4 -10.5 13.85 M-10.5 14.9 L-11.3 15.4 -11.4 16.0 -11.3 16.3 -10.65 17.1 -9.6 17.3 -8.85 16.8 Q-8.6 16.4 -8.8 15.9 L-8.95 15.5 -9.45 15.1 -10.5 14.9 M-11.7 16.7 L-11.75 16.25 -11.9 16.5 Q-12.45 17.4 -12.05 18.5 -11.7 19.55 -10.6 20.2 -9.5 20.8 -8.35 20.6 -7.25 20.4 -6.7 19.5 -6.2 18.6 -6.55 17.55 L-7.05 16.65 -8.3 15.85 -8.2 16.15 Q-7.95 16.8 -8.25 17.4 -8.6 17.95 -9.3 18.05 L-10.75 17.8 -11.7 16.7" fill="#555555" fill-rule="evenodd" stroke="none"/>
      <path d="M-7.25 2.5 L-5.15 3.8 -4.85 4.0 -4.85 3.95 -3.35 4.9 -1.7 6.15 -2.15 5.65 -0.2 6.9 -0.1 6.95 1.75 8.1 2.25 8.45 2.4 8.55 2.85 8.8 3.85 9.45 3.9 9.35 4.0 9.3 4.55 10.6 4.0 9.3 3.95 9.25 Q5.75 9.1 7.2 4.9 L9.9 5.3 4.85 10.55 4.55 10.6 3.55 10.65 0.0 8.7 -4.85 5.9 Q-7.3 4.45 -9.75 2.8 L-11.2 2.65 Q-11.75 2.3 -12.25 2.0 L-12.2 1.85 -11.3 1.85 -10.85 1.6 -9.65 -1.4 Q-8.65 -4.25 -7.65 -4.9 L-6.65 -2.55 -6.55 -2.5 Q-7.45 -1.3 -8.35 1.8 L-7.25 2.5 M-8.35 1.8 L-11.3 1.85 -8.35 1.8 M-11.7 16.7 L-10.75 17.8 -9.3 18.05 Q-8.6 17.95 -8.25 17.4 -7.95 16.8 -8.2 16.15 L-8.3 15.85 -7.05 16.65 -6.55 17.55 Q-6.2 18.6 -6.7 19.5 -7.25 20.4 -8.35 20.6 -9.5 20.8 -10.6 20.2 -11.7 19.55 -12.05 18.5 -12.45 17.4 -11.9 16.5 L-11.75 16.25 -11.7 16.7" fill="#555555" fill-rule="evenodd" stroke="none"/>
      <path d="M-0.55 2.15 L13.3 -21.6 13.3 -21.65 13.5 -21.7 13.5 -21.6 13.6 -17.7 13.5 -15.65 13.45 -15.4 10.2 -10.85 9.75 -10.05 6.3 -5.2 Q4.45 -2.95 2.6 1.15 0.75 5.2 0.6 6.45 0.5 7.1 -0.1 6.95 L-0.2 6.9 0.0 6.7 Q0.85 5.85 0.85 4.65 0.85 3.45 0.0 2.6 L-0.55 2.15 M-0.8 9.1 L-1.8 10.85 -2.2 11.55 -2.65 12.3 -2.2 11.6 -4.85 16.15 -4.9 16.15 -5.5 16.9 -9.65 14.45 -7.95 14.4 -7.45 14.1 -8.25 12.15 -6.4 13.0 Q-4.85 12.5 -4.75 10.85 L-4.55 8.95 -7.15 7.35 -6.2 5.75 -6.0 5.9 -1.65 8.6 -1.1 8.9 -0.8 9.1" fill="#555555" fill-rule="evenodd" stroke="none"/>
      <path d="M9.9 5.3 L11.1 5.5 9.5 8.2 Q7.8 10.65 5.7 12.85 L5.55 13.05 -0.8 9.1 -1.1 8.9 -1.65 8.6 -6.0 5.9 -6.2 5.75 -11.2 2.65 -9.75 2.8 Q-7.3 4.45 -4.85 5.9 L0.0 8.7 3.55 10.65 4.55 10.6 4.85 10.55 9.9 5.3 M-2.15 5.65 L-1.7 6.15 -3.35 4.9 -2.15 5.65 M5.6 12.95 L5.7 12.85 5.6 12.95 5.55 13.05 5.6 12.95 5.6 12.9 4.55 10.6 5.6 12.9 5.6 12.95" fill="#555555" fill-rule="evenodd" stroke="none"/>
      <path d="M-4.85 3.95 L-4.1 2.6 Q-3.25 1.75 -2.05 1.75 -1.2 1.75 -0.55 2.15 L0.0 2.6 Q0.85 3.45 0.85 4.65 0.85 5.85 0.0 6.7 L-0.2 6.9 -2.15 5.65 -3.35 4.9 -4.85 3.95" fill="#555555" fill-rule="evenodd" stroke="none"/>
      <path d="M-0.55 2.15 L13.3 -21.6 13.3 -21.65 13.15 -21.6 12.75 -21.45 11.05 -20.8 9.3 -20.0 Q5.05 -17.75 2.0 -13.85 L-1.05 -9.5 Q-3.95 -4.75 -7.25 2.5 L-5.15 3.8 -4.85 3.95 -4.1 2.6 Q-3.25 1.75 -2.05 1.75 -1.2 1.75 -0.55 2.15 L0.0 2.6 Q0.85 3.45 0.85 4.65 0.85 5.85 0.0 6.7 L-0.2 6.9 -0.1 6.95 1.75 8.1 2.25 8.45 2.4 8.55 2.85 8.8 2.9 8.75 Q8.4 1.35 11.6 -7.2 L13.15 -12.95 13.45 -15.4 13.5 -15.65 13.6 -17.7 13.5 -21.6 13.5 -21.7 13.3 -21.65 M3.9 9.35 L3.95 9.25 Q5.75 9.1 7.2 4.9 L9.9 5.3 11.1 5.5 9.5 8.2 Q7.8 10.65 5.7 12.85 L5.6 12.95 5.6 12.9 4.55 10.6 4.0 9.3 M5.55 13.05 L-0.8 9.1 -1.8 10.85 -2.2 11.55 -2.65 12.3 M-2.0 11.2 L-2.2 11.55 M-2.2 11.6 L-4.85 16.15 M-4.9 16.15 L-5.5 16.9 -5.3 17.25 Q-4.8 18.8 -5.55 20.1 -6.3 21.4 -7.95 21.65 -9.65 21.95 -11.2 21.05 -12.75 20.1 -13.35 18.55 -13.9 16.95 -13.15 15.65 -12.4 14.35 -10.7 14.05 L-10.65 14.05 -10.5 13.85 -10.15 13.05 M-10.2 13.05 L-10.15 12.95 -9.05 10.7 -8.8 10.25 -8.5 9.75 M-8.35 9.65 L-7.15 7.35 -6.2 5.75 -11.2 2.65 Q-11.75 2.3 -12.25 2.0 L-12.2 1.85 -11.75 0.65 -10.35 -2.5 Q-9.5 -4.2 -8.05 -5.8 L-7.65 -4.9 -6.65 -2.55 -6.55 -2.5 Q-7.45 -1.3 -8.35 1.8 L-7.25 2.5 M-11.3 1.85 L-8.35 1.8 M-3.35 4.9 L-4.85 3.95 -4.85 4.0 -5.15 3.8 M-3.35 4.9 L-2.15 5.65 -0.2 6.9 M-6.2 5.75 L-6.0 5.9 M-1.65 8.6 L-1.1 8.9 M-8.35 9.65 L-8.8 10.25 M3.9 9.35 L3.85 9.45 2.85 8.8 M-11.3 1.85 L-12.2 1.85 M2.45 8.5 L2.4 8.55 M5.55 13.05 L5.6 12.95" fill="none" stroke="#555555" stroke-linecap="round" stroke-linejoin="round" stroke-opacity="0.3019608" stroke-width="0.5"/>
    </g>
    <g id="sprite1">
      <use ffdec:characterId="2" height="43.9" transform="matrix(1.0, 0.0, 0.0, 1.0, 0.0, 0.0)" width="27.7" xlink:href="#shape2"/>
    </g>
    <g id="shape2">
      <path d="M2.9 8.75 L3.3 9.0 3.85 9.4 3.9 9.35 3.85 9.45 2.85 8.8 2.4 8.55 2.25 8.45 1.85 8.15 2.45 8.5 2.9 8.75 2.85 8.8 2.9 8.75 M2.4 8.55 L2.45 8.5 2.4 8.55" fill="#f1f16c" fill-rule="evenodd" stroke="none"/>
      <path d="M4.0 9.3 L3.9 9.35 4.0 9.3 M2.25 8.45 L1.75 8.1 1.85 8.15 2.25 8.45" fill="#78783b" fill-rule="evenodd" stroke="none"/>
      <path d="M-1.8 10.85 L-2.0 11.2 -2.2 11.55 -1.8 10.85" fill="#58382b" fill-rule="evenodd" stroke="none"/>
      <path d="M-8.8 10.25 L-8.5 9.75 -8.35 9.65 -8.8 10.25" fill="#a1664c" fill-rule="evenodd" stroke="none"/>
      <path d="M-10.5 14.9 L-9.45 15.1 -8.95 15.5 -8.8 15.9 Q-8.6 16.4 -8.85 16.8 L-9.6 17.3 -10.65 17.1 -11.3 16.3 -11.4 16.0 -11.3 15.4 -10.5 14.9" fill="#cae0e3" fill-rule="evenodd" stroke="none"/>
      <path d="M13.3 -21.65 L13.3 -21.6 -0.55 2.15 Q-1.2 1.75 -2.05 1.75 -3.25 1.75 -4.1 2.6 L-4.85 3.95 -5.15 3.8 -4.85 3.95 -4.85 4.0 -5.15 3.8 -7.25 2.5 Q-3.95 -4.75 -1.05 -9.5 L-0.35 -8.9 Q0.6 -9.05 2.2 -10.15 3.8 -11.3 5.65 -13.3 7.45 -15.35 8.55 -17.7 L9.3 -20.0 11.05 -20.8 12.75 -21.45 13.15 -21.6 13.3 -21.65 M-12.2 1.85 L-11.75 0.65 -10.35 -2.5 Q-9.5 -4.2 -8.05 -5.8 L-7.65 -4.9 Q-8.65 -4.25 -9.65 -1.4 L-10.85 1.6 -11.3 1.85 -12.2 1.85" fill="#aeaeae" fill-rule="evenodd" stroke="none"/>
      <path d="M9.3 -20.0 L8.55 -17.7 Q7.45 -15.35 5.65 -13.3 3.8 -11.3 2.2 -10.15 0.6 -9.05 -0.35 -8.9 L-1.05 -9.5 2.0 -13.85 Q5.05 -17.75 9.3 -20.0" fill="#d6d6d6" fill-rule="evenodd" stroke="none"/>
      <path d="M-0.1 6.95 Q0.5 7.1 0.6 6.45 0.75 5.2 2.6 1.15 4.45 -2.95 6.3 -5.2 L9.75 -10.05 10.2 -10.85 13.45 -15.4 13.15 -12.95 11.6 -7.2 Q8.4 1.35 2.9 8.75 L2.45 8.5 1.85 8.15 1.75 8.1 -0.1 6.95 M-5.5 16.9 L-5.3 17.25 Q-4.8 18.8 -5.55 20.1 -6.3 21.4 -7.95 21.65 -9.65 21.95 -11.2 21.05 -12.75 20.1 -13.35 18.55 -13.9 16.95 -13.15 15.65 -12.4 14.35 -10.7 14.05 L-10.65 14.05 -10.5 13.85 -10.15 13.05 -10.2 13.05 -10.15 12.95 -9.05 10.7 -8.8 10.25 -8.35 9.65 -7.15 7.35 -4.55 8.95 -4.75 10.85 Q-4.85 12.5 -6.4 13.0 L-8.25 12.15 -7.45 14.1 -7.95 14.4 -9.65 14.45 -5.5 16.9 M-10.5 13.85 L-10.5 13.9 -9.75 14.4 -10.5 13.85 M-10.5 14.9 L-11.3 15.4 -11.4 16.0 -11.3 16.3 -10.65 17.1 -9.6 17.3 -8.85 16.8 Q-8.6 16.4 -8.8 15.9 L-8.95 15.5 -9.45 15.1 -10.5 14.9 M-11.7 16.7 L-11.75 16.25 -11.9 16.5 Q-12.45 17.4 -12.05 18.5 -11.7 19.55 -10.6 20.2 -9.5 20.8 -8.35 20.6 -7.25 20.4 -6.7 19.5 -6.2 18.6 -6.55 17.55 L-7.05 16.65 -8.3 15.85 -8.2 16.15 Q-7.95 16.8 -8.25 17.4 -8.6 17.95 -9.3 18.05 L-10.75 17.8 -11.7 16.7" fill="#838383" fill-rule="evenodd" stroke="none"/>
      <path d="M-7.25 2.5 L-5.15 3.8 -4.85 4.0 -4.85 3.95 -3.35 4.9 -1.7 6.15 -2.15 5.65 -0.2 6.9 -0.1 6.95 1.75 8.1 2.25 8.45 2.4 8.55 2.85 8.8 3.85 9.45 3.9 9.35 4.0 9.3 4.55 10.6 4.0 9.3 3.95 9.25 Q5.75 9.1 7.2 4.9 L9.9 5.3 4.85 10.55 4.55 10.6 3.55 10.65 0.0 8.7 -4.85 5.9 Q-7.3 4.45 -9.75 2.8 L-11.2 2.65 Q-11.75 2.3 -12.25 2.0 L-12.2 1.85 -11.3 1.85 -10.85 1.6 -9.65 -1.4 Q-8.65 -4.25 -7.65 -4.9 L-6.65 -2.55 -6.55 -2.5 Q-7.45 -1.3 -8.35 1.8 L-7.25 2.5 M-8.35 1.8 L-11.3 1.85 -8.35 1.8 M-11.7 16.7 L-10.75 17.8 -9.3 18.05 Q-8.6 17.95 -8.25 17.4 -7.95 16.8 -8.2 16.15 L-8.3 15.85 -7.05 16.65 -6.55 17.55 Q-6.2 18.6 -6.7 19.5 -7.25 20.4 -8.35 20.6 -9.5 20.8 -10.6 20.2 -11.7 19.55 -12.05 18.5 -12.45 17.4 -11.9 16.5 L-11.75 16.25 -11.7 16.7" fill="#646464" fill-rule="evenodd" stroke="none"/>
      <path d="M-0.55 2.15 L13.3 -21.6 13.3 -21.65 13.5 -21.7 13.5 -21.6 13.6 -17.7 13.5 -15.65 13.45 -15.4 10.2 -10.85 9.75 -10.05 6.3 -5.2 Q4.45 -2.95 2.6 1.15 0.75 5.2 0.6 6.45 0.5 7.1 -0.1 6.95 L-0.2 6.9 0.0 6.7 Q0.85 5.85 0.85 4.65 0.85 3.45 0.0 2.6 L-0.55 2.15 M-0.8 9.1 L-1.8 10.85 -2.2 11.55 -2.65 12.3 -2.2 11.6 -4.85 16.15 -4.9 16.15 -5.5 16.9 -9.65 14.45 -7.95 14.4 -7.45 14.1 -8.25 12.15 -6.4 13.0 Q-4.85 12.5 -4.75 10.85 L-4.55 8.95 -7.15 7.35 -6.2 5.75 -6.0 5.9 -1.65 8.6 -1.1 8.9 -0.8 9.1" fill="#7a7a7a" fill-rule="evenodd" stroke="none"/>
      <path d="M9.9 5.3 L11.1 5.5 9.5 8.2 Q7.8 10.65 5.7 12.85 L5.55 13.05 -0.8 9.1 -1.1 8.9 -1.65 8.6 -6.0 5.9 -6.2 5.75 -11.2 2.65 -9.75 2.8 Q-7.3 4.45 -4.85 5.9 L0.0 8.7 3.55 10.65 4.55 10.6 4.85 10.55 9.9 5.3 M-2.15 5.65 L-1.7 6.15 -3.35 4.9 -2.15 5.65 M5.6 12.95 L5.7 12.85 5.6 12.95 5.55 13.05 5.6 12.95 5.6 12.9 4.55 10.6 5.6 12.9 5.6 12.95" fill="#555555" fill-rule="evenodd" stroke="none"/>
      <path d="M-4.85 3.95 L-4.1 2.6 Q-3.25 1.75 -2.05 1.75 -1.2 1.75 -0.55 2.15 L0.0 2.6 Q0.85 3.45 0.85 4.65 0.85 5.85 0.0 6.7 L-0.2 6.9 -2.15 5.65 -3.35 4.9 -4.85 3.95" fill="#dddddd" fill-rule="evenodd" stroke="none"/>
      <path d="M-0.55 2.15 L13.3 -21.6 13.3 -21.65 13.15 -21.6 12.75 -21.45 11.05 -20.8 9.3 -20.0 Q5.05 -17.75 2.0 -13.85 L-1.05 -9.5 Q-3.95 -4.75 -7.25 2.5 L-5.15 3.8 -4.85 3.95 -4.1 2.6 Q-3.25 1.75 -2.05 1.75 -1.2 1.75 -0.55 2.15 L0.0 2.6 Q0.85 3.45 0.85 4.65 0.85 5.85 0.0 6.7 L-0.2 6.9 -0.1 6.95 1.75 8.1 2.25 8.45 2.4 8.55 2.85 8.8 2.9 8.75 Q8.4 1.35 11.6 -7.2 L13.15 -12.95 13.45 -15.4 13.5 -15.65 13.6 -17.7 13.5 -21.6 13.5 -21.7 13.3 -21.65 M3.9 9.35 L3.95 9.25 Q5.75 9.1 7.2 4.9 L9.9 5.3 11.1 5.5 9.5 8.2 Q7.8 10.65 5.7 12.85 L5.6 12.95 5.6 12.9 4.55 10.6 4.0 9.3 M5.55 13.05 L-0.8 9.1 -1.8 10.85 -2.2 11.55 -2.65 12.3 M-2.0 11.2 L-2.2 11.55 M-2.2 11.6 L-4.85 16.15 M-4.9 16.15 L-5.5 16.9 -5.3 17.25 Q-4.8 18.8 -5.55 20.1 -6.3 21.4 -7.95 21.65 -9.65 21.95 -11.2 21.05 -12.75 20.1 -13.35 18.55 -13.9 16.95 -13.15 15.65 -12.4 14.35 -10.7 14.05 L-10.65 14.05 -10.5 13.85 -10.15 13.05 M-10.2 13.05 L-10.15 12.95 -9.05 10.7 -8.8 10.25 -8.5 9.75 M-8.35 9.65 L-7.15 7.35 -6.2 5.75 -11.2 2.65 Q-11.75 2.3 -12.25 2.0 L-12.2 1.85 -11.75 0.65 -10.35 -2.5 Q-9.5 -4.2 -8.05 -5.8 L-7.65 -4.9 -6.65 -2.55 -6.55 -2.5 Q-7.45 -1.3 -8.35 1.8 L-7.25 2.5 M-11.3 1.85 L-8.35 1.8 M-3.35 4.9 L-4.85 3.95 -4.85 4.0 -5.15 3.8 M-3.35 4.9 L-2.15 5.65 -0.2 6.9 M-6.2 5.75 L-6.0 5.9 M-1.65 8.6 L-1.1 8.9 M-8.35 9.65 L-8.8 10.25 M3.9 9.35 L3.85 9.45 2.85 8.8 M-11.3 1.85 L-12.2 1.85 M2.45 8.5 L2.4 8.55 M5.55 13.05 L5.6 12.95" fill="none" stroke="#000000" stroke-linecap="round" stroke-linejoin="round" stroke-opacity="0.3019608" stroke-width="0.5"/>
    </g>
    <g id="shape3">
      <path d="M34.2 39.0 L22.1 31.95 33.3 35.95 33.25 33.5 35.55 36.05 48.05 10.7 37.75 37.25 54.7 46.7 36.45 39.55 30.2 49.25 34.2 39.0" fill="#f8f8f8" fill-rule="evenodd" stroke="none"/>
      <path d="M45.95 42.15 Q48.95 42.15 51.7 43.0 L54.45 44.1 54.95 44.45 57.1 45.85 59.6 48.1 60.75 49.35 61.1 49.7 61.4 50.25 61.95 51.0 Q54.0 45.75 44.5 47.3 31.7 51.1 28.75 58.4 28.0 60.6 27.85 63.05 27.55 67.25 29.05 72.05 L28.9 72.15 Q26.75 68.05 26.65 62.95 L26.65 62.45 Q26.65 60.2 27.0 58.25 27.5 55.55 28.65 53.35 L28.75 53.25 Q30.0 50.55 32.1 48.35 L32.35 48.1 Q34.05 46.2 36.15 45.0 37.35 44.1 38.6 43.6 39.75 43.1 41.05 42.75 L43.2 42.3 43.85 42.3 45.85 42.15 45.95 42.15" fill="#1f1f1f" fill-opacity="0.49803922" fill-rule="evenodd" stroke="none"/>
    </g>
  </defs>
</svg>
