<?xml version="1.0" encoding="UTF-8" standalone="no"?>
<!DOCTYPE svg PUBLIC "-//W3C//DTD SVG 1.1//EN" "http://www.w3.org/Graphics/SVG/1.1/DTD/svg11.dtd">
<svg width="100%" height="100%" viewBox="0 0 540 915" version="1.1" xmlns="http://www.w3.org/2000/svg" xmlns:xlink="http://www.w3.org/1999/xlink" xml:space="preserve" xmlns:serif="http://www.serif.com/" style="fill-rule:evenodd;clip-rule:evenodd;stroke-linecap:round;stroke-linejoin:round;">
    <g transform="matrix(1,0,0,1,-569.75,-534.25)">
        <g transform="matrix(10,0,0,10,570,534.5)">
            <g id="sprite0">
                <g id="shape0">
                    <path d="M41.1,30.6L41.9,32.65L42.4,34.55L42.7,36.3C42.867,37.633 43.2,38.783 43.7,39.75L40.5,38.05L40,37.75C39.667,38.317 39.417,39.133 39.25,40.2L39.15,37.6L38.6,33.85L38.3,31.9L37.9,30.05L37.9,30L40.6,30.45L41.1,30.6M30.25,30.2L32.35,30.45L33.7,30.3L33.75,31.05L34.25,34.75L34.9,38.45C35.1,39.683 35.183,40.9 35.15,42.1C34.583,41.167 33.667,40.317 32.4,39.55C31.533,40.317 30.833,41.133 30.3,42L30,39.45C29.733,38.15 29.667,36.883 29.8,35.65L30.05,31.75L30.25,30.2" style="fill:#a9cdfa;"/>
                    <path d="M42.9,31.6L43.4,32.95C44.133,35.117 44.733,37.45 45.2,39.95L45.6,44.15L45.2,43.7C44.067,42.5 42.733,41.5 41.2,40.7L41,40.55C40.3,41.683 39.833,42.95 39.6,44.35C38.567,42.55 37.833,40.367 37.4,37.8L36.7,31.65L36.7,31.2L36.65,30.55L36.6,30L37.9,30L37.9,30.05L38.3,31.9L38.6,33.85L39.15,37.6L39.25,40.2C39.417,39.133 39.667,38.317 40,37.75L40.5,38.05L43.7,39.75C43.2,38.783 42.867,37.633 42.7,36.3L42.4,34.55L41.9,32.65L41.1,30.6C41.767,30.833 42.367,31.167 42.9,31.6M35.35,30.25L35.45,30.75L35.7,31.8L36.05,34.65L36.3,38.55L36.4,42.35C36.433,43.617 36.333,44.75 36.1,45.75L35.9,45.75L35.4,44.75L33.1,41.85L31.9,42.75L29,45.05L28.9,42.95L28.75,39.05L28.55,35.45L28.55,31.65L28.7,30.5L29.1,29.05C29.367,29.583 29.75,29.967 30.25,30.2L30.05,31.75L29.8,35.65C29.667,36.883 29.733,38.15 30,39.45L30.3,42C30.833,41.133 31.533,40.317 32.4,39.55C33.667,40.317 34.583,41.167 35.15,42.1C35.183,40.9 35.1,39.683 34.9,38.45L34.25,34.75L33.75,31.05L33.7,30.3L35.35,30.25" style="fill:#0d6fe6;"/>
                    <path d="M36.6,30L36.4,29.1C36.2,28.533 35.783,28.017 35.15,27.55C35.083,28.45 35.15,29.35 35.35,30.25L33.7,30.3C33.633,29.3 33.683,28.3 33.85,27.3L34.1,25.55C34.267,24.217 34.183,22.933 33.85,21.7L33.75,21.1L33,21.25C33.2,22.583 33.017,23.833 32.45,25L30.9,28.2C30.6,28.833 30.383,29.5 30.25,30.2C29.75,29.967 29.367,29.583 29.1,29.05L29.6,27.95L31.45,24.75C32.117,23.617 32.4,22.5 32.3,21.4L32.25,21.4L32.25,21.15L33.15,21.1L33.7,20.95L34,20.8L34.45,20.9C34.95,21.333 35.25,21.883 35.35,22.55L37.6,24.6L40.05,27.1L40.35,27.4L42.1,29.9L42.9,31.6C42.367,31.167 41.767,30.833 41.1,30.6L40.25,29.25L39.15,27.7L38.15,26.25C37.45,25.283 36.533,24.45 35.4,23.75L35.35,25.45L36.5,26.6L37.3,28.2L37.9,30L36.6,30" style="fill:#0c5fc2;"/>
                    <path d="M30.25,30.2C30.383,29.5 30.6,28.833 30.9,28.2L32.45,25C33.017,23.833 33.2,22.583 33,21.25L33.75,21.1L33.85,21.7C34.183,22.933 34.267,24.217 34.1,25.55L33.85,27.3C33.683,28.3 33.633,29.3 33.7,30.3L32.35,30.45L30.25,30.2" style="fill:#7ab3f8;"/>
                    <path d="M32.25,21.4L32.25,21.15L33.15,21.1L33.7,20.95L34,20.8L34.45,20.9" style="fill:none;fill-rule:nonzero;stroke:#0a4b8d;stroke-width:0.05px;"/>
                    <path d="M32.3,21.4L32.25,21.4L32.3,21.4Z" style="fill:none;fill-rule:nonzero;stroke:#5797d7;stroke-width:0.05px;"/>
                </g>
                <g id="sprite1" transform="matrix(1,0,0,1,13.35,40.6)">
                    <g id="shape1">
                        <path d="M22.15,2.75L22.8,3.5L22.3,3.45L22.1,3.45C21,3.383 20.75,3.733 21.35,4.5L21.35,4.75C21.617,5.75 22.067,5.883 22.7,5.15C23.033,4.683 23.15,4.35 23.05,4.15L23.15,4.1C23.35,4.767 23.017,5.433 22.15,6.1C20.617,7.067 19.483,6.85 18.75,5.45C18.283,4.583 18.467,3.883 19.3,3.35C20.1,3.017 20.85,2.733 21.55,2.5L21.85,2.5L22.15,2.75M15.15,6.1L15.8,6.2C16.733,6.5 16.8,7.15 16,8.15L15.8,8.5C15.433,8.933 14.983,9.1 14.45,9C12.883,8.7 12.533,8.15 13.4,7.35L14.85,6.1L15.15,6.1M15.6,7.45L15.75,7.45L16.05,7.35C16.65,7.05 16.533,6.717 15.7,6.35L15.3,6.4C14.767,6.5 14.35,6.783 14.05,7.25L15.6,7.45M20.2,33.4C21.067,33.4 21.25,33.133 20.75,32.6L20.85,32.55C21.45,32.883 21.233,33.467 20.2,34.3L20,34.15C19.833,33.583 19.967,33 20.4,32.4L20.75,32.55C20.383,32.683 20.2,32.95 20.2,33.35L20.2,33.4M2.1,36.65C2.233,36.217 2.183,35.867 1.95,35.6C2.383,36 2.4,36.733 2,37.8L2,38.4C2.067,39.433 1.633,39.717 0.7,39.25C-0.5,38.583 -1.233,37.7 -1.5,36.6L-1.2,35.9C-1.033,35.567 -0.867,35.417 -0.7,35.45L-0.45,35.4L0.4,35.45C0.2,35.45 -0.05,35.567 -0.35,35.8C-0.65,35.933 -0.783,36.117 -0.75,36.35L-0.25,36.55L1,36.5L1.9,36.7L2.1,36.65M27.75,38.9L27.85,39.2C27.517,39.1 27.233,39.183 27,39.45L26.95,39.5C27.683,40.033 28.033,39.95 28,39.25L28.05,39.3C28.317,39.967 27.783,40.283 26.45,40.25C26.283,40.183 26.25,40.083 26.35,39.95C26.617,39.417 27.083,39.067 27.75,38.9" style="fill:#61daf8;"/>
                        <path d="M21.6,10.4C21.567,10.267 21.683,10.2 21.95,10.2L23.8,10.25L25.75,10.4L29.45,11L33.95,12L33.95,13.55L32.6,13.4L31.6,14C30.9,14.233 31.15,14.65 32.35,15.25L33.85,15.4L33.95,18.05L34.15,19.3L34.4,21.55L32,21.2C31.367,20.933 31.15,20.617 31.35,20.25C31.517,19.883 31.917,19.733 32.55,19.8C33.15,19.833 33.25,19.467 32.85,18.7L31.95,17.2L31.8,17.15C31.8,16.65 31.4,16.3 30.6,16.1C29.567,15.833 29.183,16.133 29.45,17L30,17.65C30.2,17.85 29.833,18.267 28.9,18.9C27.933,19.533 28.05,19.983 29.25,20.25C30.45,20.517 31.05,20.8 31.05,21.1C30.25,20.933 29.767,21.167 29.6,21.8C29.4,22.233 29.617,22.6 30.25,22.9C31.283,23.267 31.883,24 32.05,25.1L32.2,26.7L32.4,26.85L32.5,26.8L34.9,26.5L34.95,29.45C32.35,29.017 30.783,29.233 30.25,30.1C29.617,30.967 29.7,31.95 30.5,33.05C31.267,34.15 31.3,34.75 30.6,34.85L29.4,35.1L28.95,35.4C27.95,36.067 26.717,36.4 25.25,36.4L24.85,36.35L24.8,36.7C25.433,37.367 25,38.033 23.5,38.7C22.033,39.3 21.333,40.117 21.4,41.15C21.567,42.25 20.833,42.867 19.2,43C17.667,43.233 16.4,42.9 15.4,42L15.35,41.95C14.783,42.35 14.15,42.567 13.45,42.6L12.8,42.6C11.033,42.467 10.367,41.65 10.8,40.15L10.85,40.1L10.9,39.65C13.533,38.783 14.533,37.75 13.9,36.55L12.7,37.1L12.3,37.1L11.8,37.45L11.55,37.55L10.9,37.9C10.867,37.867 10.817,37.883 10.75,37.95C9.95,38.25 9.4,38.117 9.1,37.55L8.85,36.95L11.2,35.2L11.35,34.75L11.8,33.9L7.95,36.35L6.65,36.65C5.35,36.95 4.317,36.567 3.55,35.5C3.283,34.767 3.25,34.05 3.45,33.35C5.283,32.05 6.733,30.95 7.8,30.05L9,28.95L9.5,28.4L9.65,28.15C10.083,27.517 9.217,26.3 7.05,24.5C4.85,22.7 2.467,21.783 -0.1,21.75C-2.7,21.683 -3.65,23.267 -2.95,26.5C-2.25,29.7 -2.267,31.267 -3,31.2L-3.4,31.05L-3.7,30.75C-4.867,30.083 -5.65,29.017 -6.05,27.55C-6.517,26.183 -6.55,24.783 -6.15,23.35L-5.95,22.5C-4.75,20.233 -2.783,18.267 -0.05,16.6C2.65,14.9 2.967,14.117 0.9,14.25L-2.3,14.2L-2.15,13.8L-0.65,12.65L0.9,11.6L4.25,9.7C5.083,9.333 5.9,9.017 6.7,8.75L6.9,8.8C7.6,8.733 7.983,8.9 8.05,9.3C8.15,9.633 8.033,10.083 7.7,10.65C7.3,11.283 7.75,11.467 9.05,11.2L11.2,10.7L11.95,10.55C13.083,10.35 14.167,10.633 15.2,11.4C11.7,14.1 11.333,14.95 14.1,13.95L14.85,13.7L18.05,12.95L20.45,13.15L20.95,13.6L21.8,13.7C24.967,14.067 25.717,13.65 24.05,12.45L21.6,10.4M22.2,22.75L22.65,19.7L22.8,19C22.433,19.6 21.933,20.133 21.3,20.6L19.2,21.5C17.5,22.067 16.717,22.9 16.85,24C16.883,24.6 17.1,25.083 17.5,25.45L18.8,26.15C20.133,26.517 20.55,26.95 20.05,27.45L19.3,28.4L19.15,28.95L19.1,29.15C18.7,30.217 17.967,31.183 16.9,32.05L18.3,31.05L20.15,29.1C22.483,28.967 23.233,28.5 22.4,27.7L21.3,26.75L21.4,26.6C21.967,25.7 22.233,24.783 22.2,23.85L22.2,22.75M30.6,13.65C31.267,13.083 31.3,12.617 30.7,12.25L28.15,12.15C27.083,12.483 27.1,12.817 28.2,13.15L30.6,13.65M4.55,12.15L6.8,11.05C6.933,10.183 6.633,9.783 5.9,9.85C5.2,9.917 4.533,10.45 3.9,11.45C3.267,12.317 3.483,12.55 4.55,12.15M8.25,13C7.317,13.433 7.217,13.883 7.95,14.35L8.75,14.4C9.283,14.3 9.667,14.583 9.9,15.25C10.033,15.783 10.383,16.067 10.95,16.1C11.15,16.133 11.35,16.217 11.55,16.35L11.8,16.55C11.067,16.883 10.817,17.35 11.05,17.95C11.25,18.45 11.667,18.6 12.3,18.4C13.333,18.067 14.25,18.3 15.05,19.1L16.2,20.15L16.4,20.1L16.5,20.05L16.5,20C17.067,19.367 17.117,18.65 16.65,17.85L16.2,17L16.15,16.8C15.783,15.867 15.167,15.483 14.3,15.65L12.55,16L11.75,16.1C11.383,16.1 11.05,16 10.75,15.8C10.15,15.367 10.05,14.967 10.45,14.6C10.85,14.233 10.933,13.867 10.7,13.5C10.533,13.167 10.317,13 10.05,13L9.85,13C9.517,12.567 8.983,12.567 8.25,13M15.8,27.6L15.85,27.4C16.05,25.733 15.583,25.483 14.45,26.65C14.283,26.817 14.267,27.083 14.4,27.45C14.633,28.083 14.333,28.7 13.5,29.3L12.9,29.95L12.9,30.3L13.15,30.95C13.517,31.317 14.05,31.317 14.75,30.95L16.05,29.7L16.25,29.1C16.283,28.633 16.133,28.133 15.8,27.6M14.45,35.9C14.45,36.067 14.617,36.1 14.95,36L15.85,35.45L16.15,35.15L16.25,35.1L16.5,34.5L16.6,34.25L17,33.15L17,33.1C16.2,33.233 15.583,33.5 15.15,33.9C14.617,34.4 14.383,35.067 14.45,35.9M20.2,33.4L20.2,33.35C20.2,32.95 20.383,32.683 20.75,32.55L20.4,32.4C19.967,33 19.833,33.583 20,34.15L20.2,34.3C21.233,33.467 21.45,32.883 20.85,32.55L20.75,32.6C21.25,33.133 21.067,33.4 20.2,33.4M17,37.15L16.8,37.05L16.4,36.9C16.4,37.333 16.533,37.717 16.8,38.05L16.95,38.2L17.4,39C19,39.333 19.883,38.983 20.05,37.95L18.85,37.65L18.8,37.6L18.45,37.4L17.95,37.35C17.817,37.317 17.733,37.283 17.7,37.25L17,37.15M16.9,35.2L18.8,35.25L19.25,35L20.15,34.65L17.3,34.35L17,34.95L16.9,35.2M15.45,38.9C14.617,39.167 14.183,39.767 14.15,40.7C14.117,41.433 14.383,41.683 14.95,41.45L15.8,40.85C15.933,40.717 16.083,40.633 16.25,40.6L16.55,40.2C17.05,39.567 17.233,39.15 17.1,38.95L16.45,38.75L15.45,38.9M19.4,42.6L19.9,42.45C21.467,42.117 21.417,41.583 19.75,40.85C19.017,40.483 18.333,40.65 17.7,41.35C17,42.183 17.367,42.567 18.8,42.5L19.4,42.6M32.55,26.85L32.55,26.8L32.4,26.85L32.55,26.85M23.05,33.1C23.083,33.667 23.517,34 24.35,34.1L26.1,34C26.767,33.7 27.15,33.117 27.25,32.25L27.35,32.1C28.583,30.933 28.383,30.45 26.75,30.65C26.55,30.65 26.383,30.85 26.25,31.25C26.05,31.883 25.433,32.167 24.4,32.1C23.567,32 23.117,32.333 23.05,33.1M22.8,38.35L23.35,38.1L24.6,37.3L24.65,37.3C23.05,36.367 21.817,36.567 20.95,37.9C20.85,38.033 20.933,38.15 21.2,38.25L22.6,38.35L22.8,38.35" style="fill:#afe7f3;"/>
                        <path d="M33.95,13.55L33.85,15.4L32.35,15.25C31.15,14.65 30.9,14.233 31.6,14L32.6,13.4L33.95,13.55M34.95,29.45L35.1,34.6L32.2,34.95L30.9,35.55C29.867,36.217 28.55,36.533 26.95,36.5L25.25,36.4C26.717,36.4 27.95,36.067 28.95,35.4L29.4,35.1L30.6,34.85C31.3,34.75 31.267,34.15 30.5,33.05C29.7,31.95 29.617,30.967 30.25,30.1C30.783,29.233 32.35,29.017 34.95,29.45M3.55,35.5C3.417,35.267 3.05,35.133 2.45,35.1L-0.3,34.65C-1.6,34.283 -2.5,33.133 -3,31.2C-2.267,31.267 -2.25,29.7 -2.95,26.5C-3.65,23.267 -2.7,21.683 -0.1,21.75C2.467,21.783 4.85,22.7 7.05,24.5C9.217,26.3 10.083,27.517 9.65,28.15L9.5,28.4L9,28.95L7.8,30.05C6.733,30.95 5.283,32.05 3.45,33.35C3.25,34.05 3.283,34.767 3.55,35.5M-5.95,22.5L-6.05,22.6L-5,19.55L-3.95,16.6L-3.1,14.85L-2.3,14.2L0.9,14.25C2.967,14.117 2.65,14.9 -0.05,16.6C-2.783,18.267 -4.75,20.233 -5.95,22.5M6.9,8.8C8.333,8.367 9.533,8.667 10.5,9.7C10.833,10.033 11.15,10.267 11.45,10.4L11.2,10.7L9.05,11.2C7.75,11.467 7.3,11.283 7.7,10.65C8.033,10.083 8.15,9.633 8.05,9.3C7.983,8.9 7.6,8.733 6.9,8.8M15.2,11.4L15.25,11.45C15.85,11.783 16.533,11.983 17.3,12.05L17.45,12.1L18.75,11.25C19.583,10.717 20.2,10.45 20.6,10.45L21.6,10.4L24.05,12.45C25.717,13.65 24.967,14.067 21.8,13.7L20.95,13.6L20.45,13.15L18.05,12.95L14.85,13.7L14.1,13.95C11.333,14.95 11.7,14.1 15.2,11.4M22.2,22.75L22.2,23.85C22.233,24.783 21.967,25.7 21.4,26.6L21.3,26.75L22.4,27.7C23.233,28.5 22.483,28.967 20.15,29.1L18.3,31.05L16.9,32.05C17.967,31.183 18.7,30.217 19.1,29.15L19.15,28.95L19.3,28.4L20.05,27.45C20.55,26.95 20.133,26.517 18.8,26.15L17.5,25.45C17.1,25.083 16.883,24.6 16.85,24C16.717,22.9 17.5,22.067 19.2,21.5L21.3,20.6C21.933,20.133 22.433,19.6 22.8,19L22.65,19.7L22.2,22.75" style="fill:#4eb6dc;"/>
                        <path d="M23.8,10.25L25.75,10.35L25.75,10.4L23.8,10.25M-0.65,12.65C-0.083,12.15 0.433,11.783 0.9,11.55L0.9,11.6L-0.65,12.65" style="fill:#0cbbe7;"/>
                        <path d="M34.4,21.55L34.9,26.5L32.5,26.8L32.4,26.85L32.2,26.7L32.05,25.1C31.883,24 31.283,23.267 30.25,22.9C29.617,22.6 29.4,22.233 29.6,21.8C29.767,21.167 30.25,20.933 31.05,21.1C31.05,20.8 30.45,20.517 29.25,20.25C28.05,19.983 27.933,19.533 28.9,18.9C29.833,18.267 30.2,17.85 30,17.65L29.45,17C29.183,16.133 29.567,15.833 30.6,16.1C31.4,16.3 31.8,16.65 31.8,17.15L31.95,17.2L32.85,18.7C33.25,19.467 33.15,19.833 32.55,19.8C31.917,19.733 31.517,19.883 31.35,20.25C31.15,20.617 31.367,20.933 32,21.2L34.4,21.55M30.6,13.65L28.2,13.15C27.1,12.817 27.083,12.483 28.15,12.15L30.7,12.25C31.3,12.617 31.267,13.083 30.6,13.65M4.55,12.15C3.483,12.55 3.267,12.317 3.9,11.45C4.533,10.45 5.2,9.917 5.9,9.85C6.633,9.783 6.933,10.183 6.8,11.05L4.55,12.15M15.8,27.6C16.133,28.133 16.283,28.633 16.25,29.1L16.05,29.7L14.75,30.95C14.05,31.317 13.517,31.317 13.15,30.95L12.9,30.3L12.9,29.95L13.5,29.3C14.333,28.7 14.633,28.083 14.4,27.45C14.267,27.083 14.283,26.817 14.45,26.65C15.583,25.483 16.05,25.733 15.85,27.4L15.8,27.6M8.25,13C8.983,12.567 9.517,12.567 9.85,13L10.05,13C10.317,13 10.533,13.167 10.7,13.5C10.933,13.867 10.85,14.233 10.45,14.6C10.05,14.967 10.15,15.367 10.75,15.8C11.05,16 11.383,16.1 11.75,16.1L12.55,16L14.3,15.65C15.167,15.483 15.783,15.867 16.15,16.8L16.2,17L16.65,17.85C17.117,18.65 17.067,19.367 16.5,20L16.5,20.05L16.4,20.1L16.2,20.15L15.05,19.1C14.25,18.3 13.333,18.067 12.3,18.4C11.667,18.6 11.25,18.45 11.05,17.95C10.817,17.35 11.067,16.883 11.8,16.55L11.55,16.35C11.35,16.217 11.15,16.133 10.95,16.1C10.383,16.067 10.033,15.783 9.9,15.25C9.667,14.583 9.283,14.3 8.75,14.4L7.95,14.35C7.217,13.883 7.317,13.433 8.25,13M14.45,35.9C14.383,35.067 14.617,34.4 15.15,33.9C15.583,33.5 16.2,33.233 17,33.1L17,33.15L16.6,34.25L16.5,34.5L16.25,35.1L16.15,35.15L15.85,35.45L14.95,36C14.617,36.1 14.45,36.067 14.45,35.9M19.4,42.6L18.8,42.5C17.367,42.567 17,42.183 17.7,41.35C18.333,40.65 19.017,40.483 19.75,40.85C21.417,41.583 21.467,42.117 19.9,42.45L19.4,42.6M15.45,38.9L16.45,38.75L17.1,38.95C17.233,39.15 17.05,39.567 16.55,40.2L16.25,40.6C16.083,40.633 15.933,40.717 15.8,40.85L14.95,41.45C14.383,41.683 14.117,41.433 14.15,40.7C14.183,39.767 14.617,39.167 15.45,38.9M32.55,26.85L32.4,26.85L32.55,26.8L32.55,26.85M23.05,33.1C23.117,32.333 23.567,32 24.4,32.1C25.433,32.167 26.05,31.883 26.25,31.25C26.383,30.85 26.55,30.65 26.75,30.65C28.383,30.45 28.583,30.933 27.35,32.1L27.25,32.25C27.15,33.117 26.767,33.7 26.1,34L24.35,34.1C23.517,34 23.083,33.667 23.05,33.1M22.8,38.35L22.6,38.35L21.2,38.25C20.933,38.15 20.85,38.033 20.95,37.9C21.817,36.567 23.05,36.367 24.65,37.3L24.6,37.3L23.35,38.1L22.8,38.35" style="fill:#fff;"/>
                        <path d="M10.9,39.65L11.4,38.55C11.733,37.883 11.567,37.667 10.9,37.9L11.55,37.55L11.8,37.45L12.3,37.1L12.7,37.1L13.9,36.55C14.533,37.75 13.533,38.783 10.9,39.65M8.85,36.95L8.7,36.4C8.833,36.233 8.733,36.2 8.4,36.3L7.95,36.35L11.8,33.9L11.35,34.75L11.2,35.2L8.85,36.95M16.8,38.05L16.9,38C17.6,37.633 17.633,37.35 17,37.15L17.7,37.25C17.733,37.283 17.817,37.317 17.95,37.35L18.45,37.4L18.8,37.6L18.85,37.65L20.05,37.95C19.883,38.983 19,39.333 17.4,39L16.95,38.2L16.8,38.05M16.9,35.2L17,34.95L17.3,34.35L20.15,34.65L19.25,35L18.8,35.25L16.9,35.2" style="fill:#30b4d3;"/>
                        <path d="M13.9,36.55L12.7,37.1L12.65,37.1M18.8,37.6L18.85,37.65L20.05,37.95" style="fill:none;fill-rule:nonzero;stroke:#39f;stroke-width:0.05px;"/>
                        <path d="M0.95,8.55L1.35,8.5L2.75,7.65L0.85,7.5C0.217,8.167 0.25,8.517 0.95,8.55M0.75,7.4L1.55,6.9L3.35,7.5C4.45,7.9 4.35,8.55 3.05,9.45L1.6,9.5C0.2,8.8 -0.083,8.1 0.75,7.4M6.3,33.65L6.4,33.65C6.167,34.317 6.45,34.483 7.25,34.15L7.25,34.1C7.083,33.733 6.817,33.55 6.45,33.55L6.7,33.3C7.3,33.7 7.65,34.183 7.75,34.75L7.6,35C6.333,34.633 5.9,34.183 6.3,33.65" style="fill:#61daf8;"/>
                        <path d="M20.5,7.65L21.45,8L22.95,9.25L25.05,11.6L27.2,13.95L27.05,13.9C25.083,12.267 22.517,11.217 19.35,10.75C16.217,10.25 15.617,9.65 17.55,8.95L20.5,7.65M27.75,23.1C28.05,25.067 27.683,26.45 26.65,27.25L24.3,28.8C23.733,29.067 23.433,29.333 23.4,29.6C23.367,28.8 23.117,28.133 22.65,27.6C15.883,26.133 13.3,24.95 14.9,24.05C16.433,23.117 18.25,22.867 20.35,23.3L25.15,23.75L27.75,23.1M9.8,31.6L8.1,31.25C6.567,30.817 5.383,30.133 4.55,29.2L3.5,28.35C2.633,27.75 2.033,27.017 1.7,26.15C1.167,24.85 0.483,23.633 -0.35,22.5L-0.75,21.9C0.317,22.7 1.75,23.017 3.55,22.85C5.317,22.683 6.367,23.133 6.7,24.2C7.067,25.2 6.733,26.117 5.7,26.95C4.633,27.783 4.417,28.35 5.05,28.65L6.15,29.2L6.5,29.65C7.3,30.583 8.4,31.233 9.8,31.6M-0.85,15.6C-0.35,14.633 0.467,13.9 1.6,13.4L3.25,12L3.25,11.95C7.55,13.083 8.233,13.717 5.3,13.85C2.333,13.983 0.283,14.567 -0.85,15.6M6.7,9.75L6.3,9.55L6.95,8.55C7.45,7.217 8.433,6.467 9.9,6.3C9.267,6.533 8.983,6.85 9.05,7.25C9.083,7.583 9.367,7.95 9.9,8.35C10.5,8.783 10.15,9.117 8.85,9.35L6.7,9.75M24.65,42.6L25.9,42.85C27.367,43.35 27.433,43.783 26.1,44.15L21.7,44.8L18.4,45L15,45.15L10.35,44.7L6.7,44.05C5.7,43.783 5.567,43.4 6.3,42.9C7.033,42.3 8.433,41.983 10.5,41.95C9.633,42.417 9.583,43.033 10.35,43.8L10.55,43.8C10.55,43 10.9,42.7 11.6,42.9C13.233,43.4 14.5,43.1 15.4,42C16.233,40.933 16.017,40.683 14.75,41.25L14.15,41.5C15.117,40.233 16.2,40.033 17.4,40.9C18.467,41.6 19.8,41.967 21.4,42L22.6,42.1L22.15,42.1L21.2,42.15C21.033,43.683 21.933,44.267 23.9,43.9C25.667,43.533 25.917,43.1 24.65,42.6" style="fill:#4eb6dc;"/>
                        <path d="M20.5,7.65L17.55,8.95C15.617,9.65 16.217,10.25 19.35,10.75C22.517,11.217 25.083,12.267 27.05,13.9L27.8,15.2C28.2,15.967 28.317,17.1 28.15,18.6C27.983,20.067 27.933,21.1 28,21.7L28.05,22.75L27.75,23.1L25.15,23.75L20.35,23.3C18.25,22.867 16.433,23.117 14.9,24.05C13.3,24.95 15.883,26.133 22.65,27.6C23.117,28.133 23.367,28.8 23.4,29.6C23.133,30.867 22.333,31.617 21,31.85L19.7,32.1L15.2,31.35L15.95,31.95L16.25,32.35L19.1,33L19.1,33.65C19.033,34.283 18.567,34.617 17.7,34.65L17.55,34.65L16.85,34.6L16.6,34.6L16,34.5L15.65,34.6L15.6,34.65L14.3,34.6C14.2,35.933 15.517,36.5 18.25,36.3L18.5,36.65L18.55,36.7C19.517,37.9 19.217,38.917 17.65,39.75C16.483,40.35 15.183,40.333 13.75,39.7C12.25,39.067 11.7,38.267 12.1,37.3C12.5,36.333 12.083,35.35 10.85,34.35C9.583,33.283 9.333,32.517 10.1,32.05L10.15,31.7L9.8,31.6C8.4,31.233 7.3,30.583 6.5,29.65L6.15,29.2L5.05,28.65C4.417,28.35 4.633,27.783 5.7,26.95C6.733,26.117 7.067,25.2 6.7,24.2C6.367,23.133 5.317,22.683 3.55,22.85C1.75,23.017 0.317,22.7 -0.75,21.9L-1.25,20.65C-1.617,19.217 -1.6,17.85 -1.2,16.55L-1.2,16.45L-0.85,15.6C0.283,14.567 2.333,13.983 5.3,13.85C8.233,13.717 7.55,13.083 3.25,11.95C3.917,10.85 4.817,10.167 5.95,9.9L6.7,9.75L8.85,9.35C10.15,9.117 10.5,8.783 9.9,8.35C9.367,7.95 9.083,7.583 9.05,7.25C8.983,6.85 9.267,6.533 9.9,6.3L10.05,6.2L12.75,6.1L16.55,6.55L18.35,6.9L20.2,7.4L20.5,7.65M10.9,8.3L13.4,8.5C14.533,8.467 14.633,8.15 13.7,7.55C12.733,6.917 11.917,6.7 11.25,6.9C10.517,7.133 10.4,7.6 10.9,8.3M10.4,12.2L11.1,11.85C11.6,11.117 11.333,10.733 10.3,10.7C9.467,10.6 8.967,10.817 8.8,11.35L8.65,11.4C8.383,11.533 8.233,11.767 8.2,12.1C8.167,12.567 8.4,12.883 8.9,13.05C9.433,13.217 9.5,13.617 9.1,14.25C8.7,14.783 8.167,15.083 7.5,15.15L5.8,15.5C4.9,15.7 4.467,16.3 4.5,17.3L4.5,17.5L4.45,18.5C4.35,19.433 4.7,20.067 5.5,20.4L5.55,20.45L5.45,20.4L5.45,20.45L5.55,20.45L5.8,20.4L6.4,18.95C6.867,17.917 7.633,17.35 8.7,17.25C9.367,17.183 9.683,16.883 9.65,16.35C9.65,15.717 9.25,15.383 8.45,15.35L9.05,14.65C9.55,14.383 9.767,13.983 9.7,13.45C9.633,12.717 9.867,12.3 10.4,12.2M11.1,33.75L11.6,34.2L11.8,34.25L13.1,34.5C13.467,34.467 13.617,34.383 13.55,34.25C13.05,32.75 11.9,32.217 10.1,32.65L10.1,32.7L11.1,33.75M11.8,27.75C10.833,27.55 10.333,27.1 10.3,26.4C10.267,26 10.133,25.767 9.9,25.7C8.433,25.033 8.117,25.45 8.95,26.95L9.05,27.1C8.917,27.967 9.117,28.633 9.65,29.1L11.3,29.75C12.1,29.85 12.6,29.633 12.8,29.1C12.967,28.333 12.633,27.883 11.8,27.75M24.65,42.6C25.917,43.1 25.667,43.533 23.9,43.9C21.933,44.267 21.033,43.683 21.2,42.15L22.15,42.1L22.6,42.1C23,42.1 23.383,42.283 23.75,42.65C23.817,42.383 23.867,42.283 23.9,42.35L24.65,42.6M14.15,41.5L14.75,41.25C16.017,40.683 16.233,40.933 15.4,42C14.5,43.1 13.233,43.4 11.6,42.9C10.9,42.7 10.55,43 10.55,43.8L10.35,43.8C9.583,43.033 9.633,42.417 10.5,41.95L10.6,41.95L14.15,41.5M13.7,39.25L14.25,39.3C15.65,39.767 16.117,39.5 15.65,38.5C15.283,37.667 14.667,37.3 13.8,37.4C12,37.667 11.817,38.2 13.25,39C13.383,39.033 13.533,39.117 13.7,39.25" style="fill:#afe7f3;"/>
                        <path d="M10.4,12.2C9.867,12.3 9.633,12.717 9.7,13.45C9.767,13.983 9.55,14.383 9.05,14.65L8.45,15.35C9.25,15.383 9.65,15.717 9.65,16.35C9.683,16.883 9.367,17.183 8.7,17.25C7.633,17.35 6.867,17.917 6.4,18.95L5.8,20.4L5.55,20.45L5.45,20.45L5.45,20.4L5.55,20.45L5.5,20.4C4.7,20.067 4.35,19.433 4.45,18.5L4.5,17.5L4.5,17.3C4.467,16.3 4.9,15.7 5.8,15.5L7.5,15.15C8.167,15.083 8.7,14.783 9.1,14.25C9.5,13.617 9.433,13.217 8.9,13.05C8.4,12.883 8.167,12.567 8.2,12.1C8.233,11.767 8.383,11.533 8.65,11.4L8.8,11.35C8.967,10.817 9.467,10.6 10.3,10.7C11.333,10.733 11.6,11.117 11.1,11.85L10.4,12.2M10.9,8.3C10.4,7.6 10.517,7.133 11.25,6.9C11.917,6.7 12.733,6.917 13.7,7.55C14.633,8.15 14.533,8.467 13.4,8.5L10.9,8.3M11.8,27.75C12.633,27.883 12.967,28.333 12.8,29.1C12.6,29.633 12.1,29.85 11.3,29.75L9.65,29.1C9.117,28.633 8.917,27.967 9.05,27.1L8.95,26.95C8.117,25.45 8.433,25.033 9.9,25.7C10.133,25.767 10.267,26 10.3,26.4C10.333,27.1 10.833,27.55 11.8,27.75M11.1,33.75L10.1,32.7L10.1,32.65C11.9,32.217 13.05,32.75 13.55,34.25C13.617,34.383 13.467,34.467 13.1,34.5L11.8,34.25L11.6,34.2L11.1,33.75M13.7,39.25C13.533,39.117 13.383,39.033 13.25,39C11.817,38.2 12,37.667 13.8,37.4C14.667,37.3 15.283,37.667 15.65,38.5C16.117,39.5 15.65,39.767 14.25,39.3L13.7,39.25" style="fill:#fff;"/>
                        <path d="M16.55,6.55L16.55,6.5L18.35,6.9L16.55,6.55" style="fill:#0cbbe7;"/>
                        <path d="M19.7,32.1L19.25,32.2C18.917,32.233 18.833,32.317 19,32.45L19.1,33L16.25,32.35L15.95,31.95L15.2,31.35L19.7,32.1M17.55,34.65C16.883,34.683 16.833,34.967 17.4,35.5L18.25,36.3C15.517,36.5 14.2,35.933 14.3,34.6L15.6,34.65L15.65,34.6L16,34.5L16.6,34.6L16.85,34.6L17.55,34.65" style="fill:#30b4d3;"/>
                        <path d="M14.3,34.6L15.6,34.65L15.65,34.6" style="fill:none;fill-rule:nonzero;stroke:#39f;stroke-width:0.05px;"/>
                        <path d="M14.75,41.25C16.017,40.683 16.233,40.933 15.4,42C14.5,43.1 13.233,43.4 11.6,42.9C10.9,42.7 10.55,43 10.55,43.8L10.35,43.8C9.583,43.033 9.633,42.417 10.5,41.95L10.6,41.95" style="fill:none;fill-rule:nonzero;stroke:#0cbbe7;stroke-width:0.05px;"/>
                    </g>
                </g>
                <g id="shape2">
                    <path d="M42.1,29.9L43.2,29.15L43.5,28.8L43.8,29C45.133,30.967 46.417,34.533 47.65,39.7C47.783,42.267 47.75,44.883 47.55,47.55L47.2,54.55C47.133,57.117 47.3,59.65 47.7,62.15C48.1,64.717 48.283,67.317 48.25,69.95C48.217,72.417 48.317,74.883 48.55,77.35C48.717,79.417 48.267,81.033 47.2,82.2C45.467,84.133 43.4,85.433 41,86.1C38.467,86.767 36.017,87.617 33.65,88.65C31.383,89.617 28.617,90.55 25.35,91.45L21.7,91.25L18.1,91C14.233,90.6 10.75,89.917 7.65,88.95C2.683,87.417 0.133,85.583 0,83.45L0.1,82.55C3.1,52.217 6.433,34.333 10.1,28.9L10.15,28.85C13.717,26.25 16.367,23.3 18.1,20L18.3,19.6L18.3,19.65L19.25,20.05L19.3,20.75L23.05,21.75L23.1,21.75L24.35,22L24.9,22.1C26.1,22.267 27.5,22.25 29.1,22.05L30,21.9L32.25,21.4L32.3,21.4C32.4,22.5 32.117,23.617 31.45,24.75L29.6,27.95L29.1,29.05L28.7,30.5L24.6,31.15L20.8,31.35L17.35,31.2L17.5,31.25L18.6,31.55L25.8,32.5L27.8,32.55L28.5,32.45L28.55,32.45L28.55,35.45L28.75,39.05L28.9,42.95L29,45.05L31.9,42.75L33.1,41.85L35.4,44.75L35.9,45.75L36.1,45.75C36.333,44.75 36.433,43.617 36.4,42.35L36.3,38.55L36.05,34.65L35.7,31.8L36.7,31.65L37.4,37.8C37.833,40.367 38.567,42.55 39.6,44.35C39.833,42.95 40.3,41.683 41,40.55L41.2,40.7C42.733,41.5 44.067,42.5 45.2,43.7L45.6,44.15L45.2,39.95C44.733,37.45 44.133,35.117 43.4,32.95L42.9,31.6L42.1,29.9M13.8,28.55C13.8,28.883 13.85,29.067 13.95,29.1C16.317,29.833 18.333,29.2 20,27.2C20.9,26.1 21.067,24.883 20.5,23.55C20.3,23.15 19.983,23.15 19.55,23.55C17.483,25.383 15.617,26.767 13.95,27.7C13.85,27.967 13.8,28.25 13.8,28.55M12.85,78.9L11.85,77.25C11.017,75.95 10.533,74.45 10.4,72.75C10.2,70.55 10.233,68.35 10.5,66.15L10.9,60.35C11,57.583 10.9,54.983 10.6,52.55L9.75,55.85L7.55,63.15C6.783,65.583 6.183,68.05 5.75,70.55C5.317,72.917 5.25,75.317 5.55,77.75L5.55,78.35C5.55,79.25 5.667,80.15 5.9,81.05L5.65,81C5.617,81.533 5.433,81.833 5.1,81.9C4.867,81.933 4.65,82.033 4.45,82.2C3.517,83.133 3.65,83.917 4.85,84.55L8.15,86.25L11.65,87.5L15.2,88.1C13.067,87.167 11.883,86.117 11.65,84.95L17.4,86.2L23.4,85.95L22.3,85L16.4,81.6C18.467,80.1 20.867,79.25 23.6,79.05L31.4,78.85L38,79.15C37.467,78.817 36.917,78.583 36.35,78.45C33.883,77.883 31.367,77.6 28.8,77.6L21.2,77.65C18.533,77.683 15.75,78.1 12.85,78.9" style="fill:#5a94cc;fill-opacity:0.08;"/>
                    <path d="M40.6,30.45L37.9,30L37.3,28.2L36.5,26.6L35.35,25.45L35.4,23.75C36.533,24.45 37.45,25.283 38.15,26.25L39.15,27.7L40.25,29.25L41.1,30.6L40.6,30.45" style="fill:#7ab3f8;"/>
                    <path d="M43.5,28.8L43.2,29.15L42.1,29.9L40.35,27.4L40.05,27.1L37.6,24.6C37.7,23.767 37.583,23.05 37.25,22.45C38.85,24.75 40.933,26.867 43.5,28.8M36.7,31.65L35.7,31.8L35.45,30.75L35.35,30.25C35.15,29.35 35.083,28.45 35.15,27.55C35.783,28.017 36.2,28.533 36.4,29.1L36.6,30L36.65,30.55L36.7,31.2L36.7,31.65M28.55,32.45L28.5,32.45L27.8,32.55L25.8,32.5L18.6,31.55L17.5,31.25L17.35,31.2L20.8,31.35L24.6,31.15L28.7,30.5L28.55,31.65L28.55,32.45M25.35,91.45C28.617,90.55 31.383,89.617 33.65,88.65C36.017,87.617 38.467,86.767 41,86.1C43.4,85.433 45.467,84.133 47.2,82.2C48.267,81.033 48.717,79.417 48.55,77.35C48.317,74.883 48.217,72.417 48.25,69.95C48.283,67.317 48.1,64.717 47.7,62.15C47.3,59.65 47.133,57.117 47.2,54.55L47.55,47.55C47.75,44.883 47.783,42.267 47.65,39.7C49.85,48.9 51.917,63.217 53.85,82.65L53.9,83.55C53.767,85.683 51.217,87.517 46.25,89.05C41.15,90.65 35,91.45 27.8,91.45L25.35,91.45M12.85,78.9C15.75,78.1 18.533,77.683 21.2,77.65L28.8,77.6C31.367,77.6 33.883,77.883 36.35,78.45C36.917,78.583 37.467,78.817 38,79.15L31.4,78.85L23.6,79.05C20.867,79.25 18.467,80.1 16.4,81.6L15.85,81.25L12.85,78.9M11.65,84.95C11.883,86.117 13.067,87.167 15.2,88.1L11.65,87.5L8.15,86.25L4.85,84.55C3.65,83.917 3.517,83.133 4.45,82.2C4.65,82.033 4.867,81.933 5.1,81.9C5.433,81.833 5.617,81.533 5.65,81L5.75,81.15L5.9,81.4L6.3,82.05L7.9,83.35C8.833,84.017 9.883,84.5 11.05,84.8L11.65,84.95" style="fill:#5a94cc;fill-opacity:0.6;"/>
                    <path d="M38.1,1.2L38.1,1.25L33.9,1.65L33.65,1.65L32.15,1.15L28.65,0.7L23.1,0.8L22.25,0.9L22.25,1.05L22.2,1.1L20.65,1.25C20.35,1.35 19.983,1.567 19.55,1.9L19.5,1.9L19.05,1.85L15.6,1.25L15.7,1.05L19.8,0.45L26.4,0L27.25,0L33.5,0.3C36.233,0.567 37.767,0.867 38.1,1.2M31.1,2.05C30.933,1.883 30.933,1.9 31.1,2.1L30.65,2.15L30.6,2.15L30.3,1.8L30.5,1.4L30.6,1.35C30.9,1.25 31.133,1.3 31.3,1.5L31.3,1.55L31.35,1.6L31.3,1.75L31.25,1.75L31.1,2.05M22.2,2.25L22.45,1.95L22.15,2.25L22.2,1.65L22.35,1.5L22.45,1.45L22.7,1.7L22.2,2.25" style="fill:#be6710;"/>
                    <path d="M33.65,1.65L33.9,1.65C34.133,2.017 34.383,3.75 34.65,6.85C34.75,7.55 34.733,8.183 34.6,8.75L34.35,10.5L34.2,12.45L34.1,12.9C33.9,12.367 33.35,11.967 32.45,11.7C31.883,11.767 31.45,12.033 31.15,12.5C30.883,12.933 30.75,13.783 30.75,15.05L20.85,14.65C20.85,13.65 20.533,13 19.9,12.7L19.55,11.9C19.25,11.333 19.117,10.717 19.15,10.05L19.15,8.25L18.9,6.85L18.85,6.05L18.9,5.8L19.05,1.85L19.5,1.9L19.55,1.9L22.15,2.25L22.45,1.95L22.2,2.25L26.55,2.3L30.6,2.15L30.65,2.15L31.1,2.1C30.933,1.9 30.933,1.883 31.1,2.05L33.65,1.65M33.8,8.4L33.55,8.3L33.55,8.35L33.15,8.5L32.95,8.75C32.883,8.917 32.9,9.083 33,9.25C33.233,9.617 33.55,9.667 33.95,9.4L34.1,9.15L34.15,8.95L34.1,8.65L33.95,8.5L33.8,8.4M28.95,6.3L28.65,6.6C28.55,6.933 28.6,7.133 28.8,7.2L29.2,7.2L29.4,6.9L29.55,6.6C29.483,6.4 29.333,6.3 29.1,6.3L28.95,6.3M22.6,7.9C22.867,8.267 23.167,8.333 23.5,8.1C24.867,7.233 24.8,6.483 23.3,5.85C22.033,6.217 21.8,6.9 22.6,7.9M21.4,12.05L21.2,12.35L21.25,12.8C21.483,13.2 21.8,13.267 22.2,13L22.35,12.75L22.4,12.55L22.35,12.25L22.2,12.05L22.05,12L21.8,11.9L21.8,11.95L21.4,12.05" style="fill:#f9dba4;"/>
                    <path d="M33.65,1.65L31.1,2.05L31.25,1.75L31.3,1.75L31.35,1.6L31.3,1.55L31.3,1.5C31.133,1.3 30.9,1.25 30.6,1.35L30.5,1.4L30.3,1.8L30.6,2.15L26.55,2.3L22.2,2.25L22.7,1.7L22.45,1.45L22.35,1.5L22.2,1.65L22.15,2.25L19.55,1.9C19.983,1.567 20.35,1.35 20.65,1.25L22.2,1.1L22.25,1.05L22.25,0.9L23.1,0.8L28.65,0.7L32.15,1.15L33.65,1.65" style="fill:#f1a850;"/>
                    <path d="M38.1,1.25L35.35,14.65L35.9,14.6L35.6,14.65L35.7,14.65L35.3,14.75L35.3,14.8L35.2,14.8C30.233,15.733 25.433,15.817 20.8,15.05L18.4,14.75L18.4,14.7L18.25,14.75L18.1,14.65L18.45,14.7C17.617,12.333 16.983,9.983 16.55,7.65C16.117,5.283 15.8,3.15 15.6,1.25L19.05,1.85L18.9,5.8L18.85,6.05L18.9,6.85L19.15,8.25L19.15,10.05C19.117,10.717 19.25,11.333 19.55,11.9L19.9,12.7C20.533,13 20.85,13.65 20.85,14.65L30.75,15.05C30.75,13.783 30.883,12.933 31.15,12.5C31.45,12.033 31.883,11.767 32.45,11.7C33.35,11.967 33.9,12.367 34.1,12.9L34.2,12.45L34.35,10.5L34.6,8.75C34.733,8.183 34.75,7.55 34.65,6.85C34.383,3.75 34.133,2.017 33.9,1.65L38.1,1.25M33.8,8.4L33.95,8.5L34.1,8.65L34.15,8.95L34.1,9.15L33.95,9.4C33.55,9.667 33.233,9.617 33,9.25C32.9,9.083 32.883,8.917 32.95,8.75L33.15,8.5L33.55,8.35L33.55,8.3L33.8,8.4M21.4,12.05L21.8,11.95L21.8,11.9L22.05,12L22.2,12.05L22.35,12.25L22.4,12.55L22.35,12.75L22.2,13C21.8,13.267 21.483,13.2 21.25,12.8L21.2,12.35L21.4,12.05M22.6,7.9C21.8,6.9 22.033,6.217 23.3,5.85C24.8,6.483 24.867,7.233 23.5,8.1C23.167,8.333 22.867,8.267 22.6,7.9M28.95,6.3L29.1,6.3C29.333,6.3 29.483,6.4 29.55,6.6L29.4,6.9L29.2,7.2L28.8,7.2C28.6,7.133 28.55,6.933 28.65,6.6L28.95,6.3" style="fill:#f5c77c;"/>
                    <path d="M32.25,21.4L30,21.9L30,21.8L29.95,21.7L29.5,21.35L29.35,21.4L29.05,21.7L29.1,22.05C27.5,22.25 26.1,22.267 24.9,22.1L24.9,22L24.75,21.65L24.6,21.6L23.5,21.5C23.333,21.5 23.217,21.567 23.15,21.7L23.1,21.75L23.05,21.75L19.3,20.75L19.25,20.05C22.983,21.25 27.25,21.45 32.05,20.65L32.05,21L32.1,21.15L32.25,21.15L32.25,21.4M34.2,20.25L35.05,19.95L35.1,20.7L34.45,20.9L34,20.8L34.2,20.25" style="fill:#dcdbba;"/>
                    <path d="M30,21.9L29.1,22.05L29.05,21.7L29.35,21.4L29.5,21.35L29.95,21.7L30,21.8L30,21.9M24.9,22.1L24.35,22L23.1,21.75L23.15,21.7C23.217,21.567 23.333,21.5 23.5,21.5L24.6,21.6L24.75,21.65L24.9,22L24.9,22.1" style="fill:#cc9;"/>
                    <path d="M35.9,14.6L35.9,14.55L35.95,14.6C37.183,15.033 37.3,16.033 36.3,17.6L35.9,17.7L35.2,17.75L35.3,14.8L35.3,14.75L35.7,14.65L35.6,14.65L35.9,14.6L35.7,14.65L35.9,14.6L35.95,14.6L35.9,14.6M18.4,14.75L18.9,17.75L18.3,17.75L17.65,17.65C16.483,16.883 16.4,15.95 17.4,14.85L18.25,14.75L18.4,14.7L18.4,14.75" style="fill:#0265c6;fill-opacity:0.4;"/>
                    <path d="M18.4,14.75L20.8,15.05C25.433,15.817 30.233,15.733 35.2,14.8L35.3,14.8L35.2,17.75L33.6,18.05L33.45,17.9L32.65,17.8C32.317,17.867 32,17.983 31.7,18.15L31.55,18.35L31.05,18.45C27.483,18.883 24.1,18.8 20.9,18.2L18.9,17.75L18.4,14.75" style="fill:#99c1e8;"/>
                    <path d="M19.25,20.05L18.3,19.65L18.3,17.75L18.9,17.75L20.9,18.2C24.1,18.8 27.483,18.883 31.05,18.45L31.55,18.35L31.7,18.15C32,17.983 32.317,17.867 32.65,17.8L33.45,17.9L33.6,18.05L35.2,17.75L35.9,17.7L35.9,19.7L35.7,19.8L35.05,19.95L34.2,20.25L34.1,19.45L33.95,18.75L33.95,18.7L33.6,18.05L33.95,18.7L33.95,18.75L34.1,19.45L34.2,20.25L34,20.8L33.7,20.95L33.15,21.1L33.5,20.4L33.95,18.7L33.5,20.4L33.15,21.1L32.25,21.15L32.1,21.15L32.05,21L32.05,20.65C27.25,21.45 22.983,21.25 19.25,20.05M31.55,18.35L31.75,19.15L32.05,20.65L31.75,19.15L31.55,18.35" style="fill:#0c5fc2;"/>
                    <path d="M37.25,22.45C37.583,23.05 37.7,23.767 37.6,24.6L35.35,22.55C35.25,21.883 34.95,21.333 34.45,20.9L35.1,20.7L35.05,19.95L35.7,19.8L35.85,20.1L36.9,21.9L37.25,22.45" style="fill:#5a94cc;fill-opacity:0.16;"/>
                    <path d="M35.9,19.55L35.95,19.7L35.9,19.7L35.9,19.55" style="fill:#c60909;"/>
                    <path d="M14.2,22.6C14.433,22.333 14.7,22.267 15,22.4L14.75,22.45L14.2,22.6M3.4,30.25L3.45,32.8L3.4,32.9L3.4,30.25" style="fill:#09f;fill-opacity:0.1;"/>
                    <path d="M5.9,81.05C5.667,80.15 5.55,79.25 5.55,78.35L5.55,77.75C5.25,75.317 5.317,72.917 5.75,70.55C6.183,68.05 6.783,65.583 7.55,63.15L9.75,55.85L10.6,52.55C10.9,54.983 11,57.583 10.9,60.35L10.5,66.15C10.233,68.35 10.2,70.55 10.4,72.75C10.533,74.45 11.017,75.95 11.85,77.25L12.85,78.9L15.85,81.25L16.4,81.6L22.3,85L23.4,85.95L17.4,86.2L11.65,84.95L11.05,84.8C9.883,84.5 8.833,84.017 7.9,83.35L6.3,82.05L5.9,81.4L5.95,81.3L5.95,81.05L5.9,81.05" style="fill:#fafdfe;"/>
                    <path d="M0.1,82.55L0,83.45L0,83.25L0.1,82.55" style="fill:#e5f5ff;"/>
                    <path d="M42.1,29.9L43.2,29.15L43.5,28.8C40.933,26.867 38.85,24.75 37.25,22.45C37.583,23.05 37.7,23.767 37.6,24.6M36.7,31.65L35.7,31.8M28.55,32.45L28.5,32.45L27.8,32.55L25.8,32.5L18.6,31.55L17.5,31.25M17.35,31.2L20.8,31.35L24.6,31.15L28.7,30.5M18.3,19.6L18.1,20C16.367,23.3 13.717,26.25 10.15,28.85L10.1,28.9C6.433,34.333 3.1,52.217 0.1,82.55L0,83.45C0.133,85.583 2.683,87.417 7.65,88.95C10.75,89.917 14.233,90.6 18.1,91L21.7,91.25L25.35,91.45C28.617,90.55 31.383,89.617 33.65,88.65C36.017,87.617 38.467,86.767 41,86.1C43.4,85.433 45.467,84.133 47.2,82.2C48.267,81.033 48.717,79.417 48.55,77.35C48.317,74.883 48.217,72.417 48.25,69.95C48.283,67.317 48.1,64.717 47.7,62.15C47.3,59.65 47.133,57.117 47.2,54.55L47.55,47.55C47.75,44.883 47.783,42.267 47.65,39.7C46.417,34.533 45.133,30.967 43.8,29L43.5,28.8M35.7,19.8L35.85,20.1L36.9,21.9L37.25,22.45M0,83.45L0,83.25L0.1,82.55M47.65,39.7C49.85,48.9 51.917,63.217 53.85,82.65L53.9,83.55C53.767,85.683 51.217,87.517 46.25,89.05C41.15,90.65 35,91.45 27.8,91.45L25.35,91.45" style="fill:none;fill-rule:nonzero;stroke:#87b5e3;stroke-width:0.05px;"/>
                    <path d="M38.1,1.2L38.1,1.25L35.35,14.65M35.6,14.65L35.7,14.65L35.3,14.75L35.3,14.8L35.2,14.8C30.233,15.733 25.433,15.817 20.8,15.05L18.4,14.75" style="fill:none;fill-rule:nonzero;stroke:#c08944;stroke-width:0.05px;"/>
                    <path d="M15.7,1.05L19.8,0.45L26.4,0L27.25,0L33.5,0.3C36.233,0.567 37.767,0.867 38.1,1.2M15.6,1.25C15.8,3.15 16.117,5.283 16.55,7.65C16.983,9.983 17.617,12.333 18.45,14.7" style="fill:none;fill-rule:nonzero;stroke:#8b4b0c;stroke-width:0.05px;"/>
                    <path d="M32.25,21.4L30,21.9L29.1,22.05C27.5,22.25 26.1,22.267 24.9,22.1L24.35,22L23.1,21.75L23.05,21.75L19.3,20.75L19.25,20.05M34.45,20.9L35.1,20.7L35.05,19.95" style="fill:none;fill-rule:nonzero;stroke:#5797d7;stroke-width:0.05px;"/>
                    <path d="M35.9,14.6L35.9,14.55M35.9,14.6L35.6,14.65M35.7,14.65L35.9,14.6L35.95,14.6M18.4,14.75L18.9,17.75M35.2,17.75L35.3,14.8M18.4,14.7L18.4,14.75" style="fill:none;fill-rule:nonzero;stroke:#3f89d1;stroke-width:0.05px;"/>
                    <path d="M35.95,14.6C37.183,15.033 37.3,16.033 36.3,17.6L35.9,17.7L35.2,17.75L33.6,18.05M18.9,17.75L20.9,18.2C24.1,18.8 27.483,18.883 31.05,18.45L31.55,18.35M18.25,14.75L18.4,14.7M18.9,17.75L18.3,17.75M17.65,17.65C16.483,16.883 16.4,15.95 17.4,14.85L18.25,14.75" style="fill:none;fill-rule:nonzero;stroke:#76aade;stroke-width:0.05px;"/>
                    <path d="M31.55,18.35L31.7,18.15C32,17.983 32.317,17.867 32.65,17.8L33.45,17.9L33.6,18.05L33.95,18.7L33.95,18.75L34.1,19.45L34.2,20.25L34,20.8M32.05,20.65L31.75,19.15L31.55,18.35M33.95,18.7L33.5,20.4L33.15,21.1M32.25,21.15L32.1,21.15L32.05,21L32.05,20.65" style="fill:none;fill-rule:nonzero;stroke:#0a4b8d;stroke-width:0.05px;"/>
                    <path d="M19.25,20.05L18.3,19.65L18.3,17.75L17.65,17.65M35.9,17.7L35.9,19.55L35.95,19.7L35.9,19.7L35.7,19.8L35.05,19.95M15.6,1.25L15.7,1.05" style="fill:none;fill-rule:nonzero;stroke:#2b74bb;stroke-width:0.05px;"/>
                    <path d="M17.5,31.25L17.35,31.2" style="fill:none;fill-rule:nonzero;stroke:#3985d0;stroke-opacity:0.75;stroke-width:0.05px;"/>
                </g>
            </g>
        </g>
    </g>
</svg>
