<?xml version="1.0" encoding="UTF-8" standalone="no"?>
<svg xmlns:ffdec="https://www.free-decompiler.com/flash" xmlns:xlink="http://www.w3.org/1999/xlink" ffdec:objectType="frame" height="40.315000000000005px" width="95.59px" xmlns="http://www.w3.org/2000/svg">
  <g transform="matrix(1.1, 0.0, 0.0, 1.1, 0.0, 0.0)">
    <use ffdec:characterId="1" height="36.65" transform="matrix(1.0, 0.0, 0.0, 1.0, 0.0, 0.0)" width="86.9" xlink:href="#shape0"/>
  </g>
  <defs>
    <g id="shape0">
      <path d="M80.1 5.0 Q82.95 5.45 83.4 7.1 L83.45 7.85 Q83.25 9.4 80.7 11.25 77.7 13.35 73.15 14.7 72.45 13.3 69.65 12.25 L68.0 11.7 69.3 11.35 Q74.3 10.0 77.5 7.75 79.55 6.25 80.1 5.0 M73.3 15.9 Q76.5 17.2 76.55 19.05 L76.4 19.85 76.3 20.0 Q74.15 19.0 71.5 18.3 L71.15 18.25 Q72.75 17.35 73.2 16.35 L73.3 15.9 M82.4 25.1 L82.9 25.45 Q86.05 27.7 85.6 29.6 L85.25 30.3 Q84.25 31.55 81.15 31.85 77.25 32.2 72.25 30.9 68.65 29.9 65.95 28.45 L63.2 27.7 Q60.35 26.65 60.35 25.15 L60.55 24.4 61.55 24.7 62.75 24.95 Q65.45 26.4 69.05 27.4 74.05 28.7 77.95 28.35 81.05 28.05 82.05 26.8 L82.4 26.1 82.4 25.1 M58.1 23.2 L55.15 22.4 Q51.45 21.0 51.5 19.05 L51.5 18.7 51.95 18.9 Q54.55 19.85 57.95 20.15 57.15 20.8 57.15 21.65 57.15 22.5 58.1 23.2 M49.0 13.95 L46.25 13.25 Q43.4 12.15 43.4 10.65 43.4 10.25 43.55 9.9 46.25 10.8 49.95 10.8 53.4 10.8 56.0 10.0 L56.0 10.05 Q56.15 10.65 56.65 11.1 54.05 11.45 51.95 12.25 50.85 12.65 50.1 13.1 L49.0 13.95 M65.95 28.45 L64.05 27.25 Q62.15 25.9 61.55 24.7 62.15 25.9 64.05 27.25 L65.95 28.45 M50.75 27.55 Q53.95 28.85 53.95 30.7 L53.8 31.5 Q53.2 32.95 50.3 34.05 46.6 35.4 41.45 35.4 36.25 35.4 32.55 34.05 28.9 32.65 28.9 30.7 L28.95 30.35 29.35 30.55 Q33.05 31.9 38.25 31.9 43.4 31.9 47.1 30.55 50.0 29.45 50.6 28.0 L50.75 27.55 M26.25 17.0 Q29.45 18.3 29.5 20.15 L29.35 20.95 Q28.75 22.4 25.8 23.5 22.15 24.85 16.95 24.85 11.75 24.85 8.1 23.5 4.4 22.1 4.45 20.15 L4.45 19.8 4.9 20.0 Q8.55 21.35 13.75 21.35 18.95 21.35 22.6 20.0 25.55 18.9 26.15 17.45 L26.25 17.0" fill="#ccb266" fill-rule="evenodd" stroke="none"/>
      <path d="M73.15 14.7 L73.35 15.55 73.3 15.9 73.2 16.35 72.9 16.4 67.55 17.5 71.15 18.25 71.5 18.3 Q74.15 19.0 76.3 20.0 L79.7 21.95 Q82.05 23.6 82.4 25.1 L82.4 26.1 82.05 26.8 81.75 26.8 Q77.65 27.05 72.3 25.6 L70.35 25.05 Q67.7 24.2 65.6 23.15 L63.5 21.9 62.9 21.5 Q60.9 20.05 60.55 18.85 60.4 18.35 60.55 17.9 L60.6 17.7 60.9 17.65 Q56.95 17.4 54.0 16.4 L53.8 16.35 Q51.0 15.4 50.35 14.15 L50.1 13.3 50.1 13.1 Q50.85 12.65 51.95 12.25 54.05 11.45 56.65 11.1 57.5 11.85 59.3 12.2 L60.4 12.35 68.0 11.7 69.65 12.25 Q72.45 13.3 73.15 14.7 M41.6 5.25 Q42.2 4.85 43.05 4.55 45.9 3.5 49.95 3.5 53.95 3.5 56.8 4.55 L58.95 5.75 Q62.05 3.55 66.9 2.3 71.9 0.95 75.8 1.35 79.7 1.7 80.2 3.6 L80.25 4.35 80.05 4.5 79.45 4.9 Q76.15 6.9 71.25 8.2 65.95 9.6 61.9 9.4 L61.75 9.4 Q59.75 9.3 58.6 8.8 L57.7 8.25 Q57.3 7.9 57.2 7.4 L57.15 7.3 57.15 7.2 57.05 7.3 Q56.45 7.9 56.2 8.55 L52.0 8.8 45.95 8.2 44.65 7.8 Q41.6 6.8 41.6 5.4 L41.6 5.25 M27.55 24.75 Q28.3 24.3 29.35 23.9 33.05 22.5 38.25 22.5 43.4 22.5 47.1 23.9 50.75 25.25 50.75 27.2 L50.75 27.55 50.6 28.0 50.35 28.05 Q46.4 29.35 40.9 29.35 35.35 29.35 31.45 28.05 L31.2 28.0 Q27.5 26.7 27.55 24.95 L27.55 24.75 M3.1 14.2 L4.9 13.35 Q8.55 11.95 13.75 11.95 18.95 11.95 22.6 13.35 26.25 14.7 26.3 16.65 L26.25 17.0 26.15 17.45 25.85 17.5 Q21.95 18.8 16.4 18.8 10.85 18.8 6.95 17.5 L6.75 17.45 Q3.05 16.15 3.05 14.4 L3.1 14.2" fill="#ff3300" fill-rule="evenodd" stroke="none"/>
      <path d="M60.55 24.4 L60.0 24.2 Q58.75 23.75 58.1 23.2 57.15 22.5 57.15 21.65 57.15 20.8 57.95 20.15 54.55 19.85 51.95 18.9 L51.5 18.7 Q48.25 17.4 48.3 15.55 48.25 14.7 49.0 13.95 L50.1 13.1 50.1 13.3 50.35 14.15 Q51.0 15.4 53.8 16.35 L54.0 16.4 Q56.95 17.4 60.9 17.65 L60.6 17.7 60.55 17.9 Q60.4 18.35 60.55 18.85 60.9 20.05 62.9 21.5 L63.5 21.9 65.6 23.15 Q67.7 24.2 70.35 25.05 L72.3 25.6 Q77.65 27.05 81.75 26.8 L82.05 26.8 Q81.05 28.05 77.95 28.35 74.05 28.7 69.05 27.4 65.45 26.4 62.75 24.95 L61.55 24.7 60.55 24.4 M43.55 9.9 L43.05 9.75 Q40.2 8.65 40.2 7.15 40.2 6.05 41.6 5.25 L41.6 5.4 Q41.6 6.8 44.65 7.8 L45.95 8.2 52.0 8.8 56.2 8.55 Q56.45 7.9 57.05 7.3 L57.15 7.2 57.15 7.3 57.2 7.4 Q57.3 7.9 57.7 8.25 L58.6 8.8 Q59.75 9.3 61.75 9.4 L61.9 9.4 Q65.95 9.6 71.25 8.2 76.15 6.9 79.45 4.9 L80.05 4.5 80.25 4.35 80.1 5.0 Q79.55 6.25 77.5 7.75 74.3 10.0 69.3 11.35 L68.0 11.7 60.4 12.35 59.3 12.2 Q57.5 11.85 56.65 11.1 56.15 10.65 56.0 10.05 L56.0 10.0 Q53.4 10.8 49.95 10.8 46.25 10.8 43.55 9.9 M73.2 16.35 Q72.75 17.35 71.15 18.25 L67.55 17.5 72.9 16.4 73.2 16.35 M28.95 30.35 Q25.7 29.05 25.7 27.2 25.7 25.8 27.55 24.75 L27.55 24.95 Q27.5 26.7 31.2 28.0 L31.45 28.05 Q35.35 29.35 40.9 29.35 46.4 29.35 50.35 28.05 L50.6 28.0 Q50.0 29.45 47.1 30.55 43.4 31.9 38.25 31.9 33.05 31.9 29.35 30.55 L28.95 30.35 M4.45 19.8 Q1.2 18.45 1.25 16.65 1.25 15.25 3.1 14.2 L3.05 14.4 Q3.05 16.15 6.75 17.45 L6.95 17.5 Q10.85 18.8 16.4 18.8 21.95 18.8 25.85 17.5 L26.15 17.45 Q25.55 18.9 22.6 20.0 18.95 21.35 13.75 21.35 8.55 21.35 4.9 20.0 L4.45 19.8" fill="#cc0000" fill-rule="evenodd" stroke="none"/>
      <path d="M80.1 5.0 Q82.95 5.45 83.4 7.1 L83.45 7.85 Q83.25 9.4 80.7 11.25 77.7 13.35 73.15 14.7 M73.3 15.9 Q76.5 17.2 76.55 19.05 L76.4 19.85 76.3 20.0 M82.4 25.1 L82.9 25.45 Q86.05 27.7 85.6 29.6 L85.25 30.3 Q84.25 31.55 81.15 31.85 77.25 32.2 72.25 30.9 68.65 29.9 65.95 28.45 L63.2 27.7 Q60.35 26.65 60.35 25.15 L60.55 24.4 M58.1 23.2 L55.15 22.4 Q51.45 21.0 51.5 19.05 L51.5 18.7 M49.0 13.95 L46.25 13.25 Q43.4 12.15 43.4 10.65 43.4 10.25 43.55 9.9 M61.55 24.7 Q62.15 25.9 64.05 27.25 L65.95 28.45 M50.75 27.55 Q53.95 28.85 53.95 30.7 L53.8 31.5 Q53.2 32.95 50.3 34.05 46.6 35.4 41.45 35.4 36.25 35.4 32.55 34.05 28.9 32.65 28.9 30.7 L28.95 30.35 M26.25 17.0 Q29.45 18.3 29.5 20.15 L29.35 20.95 Q28.75 22.4 25.8 23.5 22.15 24.85 16.95 24.85 11.75 24.85 8.1 23.5 4.4 22.1 4.45 20.15 L4.45 19.8" fill="none" stroke="#ccb266" stroke-linecap="round" stroke-linejoin="round" stroke-width="2.5"/>
      <path d="M26.3 16.65 L26.25 17.0 26.15 17.45 Q25.55 18.9 22.6 20.0 18.95 21.35 13.75 21.35 8.55 21.35 4.9 20.0 L4.45 19.8 Q1.2 18.45 1.25 16.65 1.25 15.25 3.1 14.2 L4.9 13.35 Q8.55 11.95 13.75 11.95 18.95 11.95 22.6 13.35 26.25 14.7 26.3 16.65 Z" fill="none" stroke="#990000" stroke-linecap="round" stroke-linejoin="round" stroke-width="2.5"/>
      <path d="M50.75 27.55 L50.6 28.0 Q50.0 29.45 47.1 30.55 43.4 31.9 38.25 31.9 33.05 31.9 29.35 30.55 L28.95 30.35 Q25.7 29.05 25.7 27.2 25.7 25.8 27.55 24.75 28.3 24.3 29.35 23.9 33.05 22.5 38.25 22.5 43.4 22.5 47.1 23.9 50.75 25.25 50.75 27.2 L50.75 27.55 Z" fill="none" stroke="#990000" stroke-linecap="round" stroke-linejoin="round" stroke-width="2.5"/>
      <path d="M82.4 26.1 L82.05 26.8 Q81.05 28.05 77.95 28.35 74.05 28.7 69.05 27.4 65.45 26.4 62.75 24.95 L61.55 24.7 60.55 24.4 60.0 24.2 Q58.75 23.75 58.1 23.2 57.15 22.5 57.15 21.65 57.15 20.8 57.95 20.15 54.55 19.85 51.95 18.9 L51.5 18.7 Q48.25 17.4 48.3 15.55 48.25 14.7 49.0 13.95 L50.1 13.1 Q50.85 12.65 51.95 12.25 54.05 11.45 56.65 11.1 56.15 10.65 56.0 10.05 L56.0 10.0 Q53.4 10.8 49.95 10.8 46.25 10.8 43.55 9.9 L43.05 9.75 Q40.2 8.65 40.2 7.15 40.2 6.05 41.6 5.25 42.2 4.85 43.05 4.55 45.9 3.5 49.95 3.5 53.95 3.5 56.8 4.55 L58.95 5.75 Q62.05 3.55 66.9 2.3 71.9 0.95 75.8 1.35 79.7 1.7 80.2 3.6 L80.25 4.35 80.1 5.0 Q79.55 6.25 77.5 7.75 74.3 10.0 69.3 11.35 L68.0 11.7 69.65 12.25 Q72.45 13.3 73.15 14.7 L73.35 15.55 73.3 15.9 73.2 16.35 Q72.75 17.35 71.15 18.25 L71.5 18.3 Q74.15 19.0 76.3 20.0 L79.7 21.95 Q82.05 23.6 82.4 25.1 L82.4 26.1 M57.95 20.15 L58.1 20.0 58.2 19.6 Q58.55 18.3 60.6 17.7 L60.9 17.65 62.55 17.35 67.55 17.5 71.15 18.25 M58.1 20.0 Q58.0 21.65 60.6 23.6 L60.85 23.75 60.95 23.85 61.35 24.1 62.75 24.95 M56.0 10.0 Q55.8 9.3 56.2 8.55 56.45 7.9 57.05 7.3 L57.15 7.2 58.7 5.9 58.95 5.75 M68.0 11.7 L60.4 12.35 59.3 12.2 Q57.5 11.85 56.65 11.1" fill="none" stroke="#990000" stroke-linecap="round" stroke-linejoin="round" stroke-width="2.5"/>
    </g>
  </defs>
</svg>
