<?xml version="1.0" encoding="UTF-8"?>
<svg version="1.1" viewBox="0 0 224.25 128.65" xmlns="http://www.w3.org/2000/svg" xmlns:cc="http://creativecommons.org/ns#" xmlns:dc="http://purl.org/dc/elements/1.1/" xmlns:rdf="http://www.w3.org/1999/02/22-rdf-syntax-ns#" xmlns:xlink="http://www.w3.org/1999/xlink">
<metadata>
<rdf:RDF>
<cc:Work rdf:about="">
<dc:format>image/svg+xml</dc:format>
<dc:type rdf:resource="http://purl.org/dc/dcmitype/StillImage"/>
</cc:Work>
</rdf:RDF>
</metadata>
<g transform="translate(-162.82 -135.62)">
<use transform="translate(162.85,135.65)" width="224.2" height="128.60001" xlink:href="#a"/>
</g>
<defs>
<g id="a" transform="translate(-162.85,-135.65)">
<path d="m220.35 263.25-56.5-45.75-0.55-8.85 55.6 46.5 0.3-0.05 1.15 8.15-1.15-8.15h0.05q91.65-21.1 164.85-79.15l2.95 8.65q-83 52.95-166.7 78.65" fill="#f8df8b" fill-rule="evenodd"/>
<path d="m218.9 255.15-55.6-46.5-0.45-0.4 0.45-0.1q90.1-21.45 148.95-72.5l71.4 39.1 1.2 0.6-0.75 0.6q-73.2 58.05-164.85 79.15h-0.05l-0.3 0.05m-55.6-47v0.5-0.5m186.8-36.55q-42.45 35.95-96.15 57.4 53.7-21.45 96.15-57.4m-50.05 11.3q-44.15 23.2-90.05 32.65 45.9-9.45 90.05-32.65m-2.15-18.25q-29.65 23.55-66.15 35.2 36.5-11.65 66.15-35.2m-80.5 63.5q23.95-3.05 42.2-14.8-18.25 11.75-42.2 14.8m166.25-53.4 0.45 1.2-0.45-1.2" fill="#ffc" fill-rule="evenodd"/>
<path d="m163.3 208.65 0.55 8.85 56.5 45.75-1.15-8.15h0.05q91.65-21.1 164.85-79.15l-0.45-1.2 1.2 0.6-0.75 0.6 2.95 8.65q-83 52.95-166.7 78.65l0.1 1m-1.55-9.1-55.6-46.5-0.45-0.4 0.45-0.1q90.1-21.45 148.95-72.5l71.4 39.1m-220.35 33.9v-0.5m55.6 47 0.3-0.05m40.4-41.75q-18.25 11.75-42.2 14.8m14.35-28.3q36.5-11.65 66.15-35.2m-87.9 50.9q45.9-9.45 90.05-32.65m-46.1 46.1q53.7-21.45 96.15-57.4" fill="none" stroke="#000" stroke-linecap="round" stroke-linejoin="round" stroke-opacity=".58039" stroke-width=".05"/>
</g>
</defs>
</svg>
