<?xml version="1.0" encoding="UTF-8"?>
<svg version="1.1" viewBox="0 0 153.01 122.62" xmlns="http://www.w3.org/2000/svg" xmlns:cc="http://creativecommons.org/ns#" xmlns:dc="http://purl.org/dc/elements/1.1/" xmlns:rdf="http://www.w3.org/1999/02/22-rdf-syntax-ns#" xmlns:xlink="http://www.w3.org/1999/xlink">
<metadata>
<rdf:RDF>
<cc:Work rdf:about="">
<dc:format>image/svg+xml</dc:format>
<dc:type rdf:resource="http://purl.org/dc/dcmitype/StillImage"/>
</cc:Work>
</rdf:RDF>
</metadata>
<g transform="translate(-217.2 -154.73)">
<use transform="translate(217.2,154.75)" width="153" height="122.6" xlink:href="#a"/>
</g>
<defs>
<g id="a" transform="translate(-217.2,-154.75)">
<path d="m328.9 183q-0.15-0.5-0.5-0.7l-2.95-0.2q5.45 10.5 7.05 5.7l-0.05-0.8-0.4-0.85q-1.35-2.1-3.15-3.15m-92.7 8.55q10.85-13.4 19.45-27.7 1.5-2.55 4.95-4.05l12.15-4.3 0.95-0.35q56.45-5.05 82.4 54l0.35 0.95q1.5 4.2 3.45 8.2h0.15q1 1.75 1.65 3.6l0.35 0.95 4.35 12.15 0.3 0.95 0.35 0.95q5.95 18.4 0.6 31.4l0.1 0.9q-0.15 2.95-2.15 5.1l-0.35-0.95-0.65-1.85 1.8-3.05v-0.75l-0.5 0.1q-1.95-4.7 0.95-7.65l-0.35-0.95q-1.4-3.05-1.35-6.9-0.2-0.45-0.1-0.9l-4.3 0.35q-0.5 0.15-0.55 0.45-1.25 5.35 0.2 13.4l0.3 0.95q1.3 1.35 2.25 3.4l0.35 0.95-0.9 0.3-5.65 2-0.45-0.75q-0.5-0.5-1.15-0.8l0.95-0.3-0.45-0.85-1.5-1.65q2.15-3.25-1-9.1l-0.45-0.9-0.3-0.95-1-2.8 0.45-0.2q-3.95-15.2-8.8-23.2l-0.3-0.95 0.45-0.3q0.15-6.15-3.45-8.1l0.5-0.4q0.35-2.15-1.15-1.5l-0.25 0.1-0.25 0.05-0.25-0.55q-3.35-7.1-7.05-12.6l0.45-0.35q0.05-1.55-1.75-0.25l-0.45-0.85q-4.05-4.8-2.55-7.6h-0.6q-11.65-12.6-26.15-18.95l-0.5-0.65q-3.25-2.1-7.7-1.7l-0.25-0.45q-7.75 0.9-12.7-3.35l-0.45 0.2q0.75 2.85-5.45 4l-0.95 0.15q-4.55-0.05-10.6 2.9l-0.95 0.35q-5.6 2.7-9.9 7.7l-0.15-0.45q-2.65 2.2-3.6 1.8l-0.65 0.5q-2.2 3.95-7.35 6.55l-0.4-0.5q-1.65-0.15-1.9-2.9l-0.3-0.95-0.35-0.95 0.1-0.15m15.1-10.5-0.2-0.45q-6.2 2.35-10.3 9.45 3.1 1.4 4.6 0.35 7.95-5.7 5.9-9.35" fill="#f8d95e" fill-rule="evenodd"/>
<path d="m332.45 187 0.05 0.8q-1.6 4.8-7.05-5.7l2.95 0.2q0.35 0.2 0.5 0.7l-0.9 0.3q1.15 3.2 3.6 3.8l0.85-0.1" fill="#caa142" fill-rule="evenodd"/>
<path d="m332.45 187-0.85 0.1q-2.45-0.6-3.6-3.8l0.9-0.3q1.8 1.05 3.15 3.15l0.4 0.85" fill="#926211" fill-rule="evenodd"/>
<path d="m300.25 179.45q14.5 6.35 26.15 18.95h0.6q-1.5 2.8 2.55 7.6l0.45 0.85-0.55 0.05q-11.4-16.75-29.2-27.45m31.05 28q3.7 5.5 7.05 12.6-4.85-4.85-8.95-11.95l0.95-0.35 0.95-0.3m7.55 13.1 0.25-0.1 0.15 0.5-0.4-0.4" fill="#e8b22d" fill-rule="evenodd"/>
<path d="m239.05 197q5.15-2.6 7.35-6.55l0.65-0.5q0.95 0.4 3.6-1.8l0.15 0.45q4.3-5 9.9-7.7l0.95-0.35q5.8-0.85 11.7-2.6l-0.15-0.45q6.2-1.15 5.45-4l0.45-0.2q4.95 4.25 12.7 3.35l0.25 0.45q3.4 1.85 7.3 2.45l0.9-0.1q17.8 10.7 29.2 27.45l0.55-0.05q1.8-1.3 1.75 0.25l-0.45 0.35-0.95 0.3-0.95 0.35q4.1 7.1 8.95 11.95l0.25 0.55 0.25-0.05 0.4 0.4-0.15-0.5q1.5-0.65 1.15 1.5l-0.5 0.4-0.95 0.35-0.95 0.3q2.65 2.65 4.4 7.95l0.5-0.2 0.3 0.95 0.4 0.9q5.6 11.65 5.05 20.35l2.35 1.45 0.55 0.7 1 2.8 0.3 0.95-0.45 0.2q1.2 5.2 0.65 9.2l0.5 0.65 0.75-0.05 1.5 1.65 0.45 0.85-0.95 0.3q0.65 0.3 1.15 0.8l0.45 0.75-0.9 0.35 0.95 2.8 0.35 0.95h-0.6q-17.2-15.8-27.9-44.7l-0.45-0.85q-7.25-10.75-14.75-21.15l-0.5-0.75q-14.4-13.7-34.1-16.45l-0.9 0.1q-8.65-0.5-17.95 0.25l-0.9 0.2q-4.8 0.25-10.65 2.85l0.05 0.6q-3.95 3-7.15 6.15l-0.45-0.85q-1.35-1.9-2.45-4.45l-0.1-0.25-0.25-0.65 0.95-0.35m35.2-13.6 0.5 0.6q9.25 3.2 14.65 3.5l-0.45-0.75q-5.05-5.5-14.7-3.35" fill="#d0911a" fill-rule="evenodd"/>
<path d="m339.75 222.35q3.6 1.95 3.45 8.1l-0.45 0.3-0.5 0.2q-1.75-5.3-4.4-7.95l0.95-0.3 0.95-0.35" fill="#e7b42f" fill-rule="evenodd"/>
<path d="m343.05 231.7q4.85 8 8.8 23.2l-0.45 0.2-0.55-0.7-2.35-1.45q0.55-8.7-5.05-20.35l-0.4-0.9" fill="#e8b32d" fill-rule="evenodd"/>
<path d="m352.7 258.85 0.45 0.9q3.15 5.85 1 9.1l-0.75 0.05-0.5-0.65q0.55-4-0.65-9.2l0.45-0.2" fill="#e5b02b" fill-rule="evenodd"/>
<path d="m363.3 270.9-0.35-0.95q-0.95-2.05-2.25-3.4l-0.3-0.95q-1.45-8.05-0.2-13.4 0.05-0.3 0.55-0.45l4.3-0.35q-0.1 0.45 0.1 0.9-0.05 3.85 1.35 6.9l0.35 0.95q-2.9 2.95-0.95 7.65l0.5-0.1v0.75l-1.8 3.05h-0.8l-0.5-0.6" fill="#e9bc30" fill-rule="evenodd"/>
<path d="m356.75 273.2 5.65-2 0.9-0.3 0.5 0.6h0.8l0.65 1.85 0.35 0.95-0.95 0.35q-0.45 0.1-0.35 0.45l-6.25 2.25-0.1-0.1-0.8 0.05-0.35-0.95-0.95-2.8 0.9-0.35" fill="#51370d" fill-rule="evenodd"/>
<path d="m226.9 213.25-3.95-0.8-3.1-4.75-2.35-3.45-0.3-0.55 0.1-0.45 0.35-0.65 0.35-0.35 0.6-0.55 4.4 4.25h-0.05l0.95 1.7h-0.05l0.35 0.55 2.7 5.05" fill="#bda469" fill-rule="evenodd"/>
<path d="m223.9 207.65 0.3 0.55-0.35-0.55h0.05" fill="#856a3b" fill-rule="evenodd"/>
<path d="m226.75 195.6 0.15-0.1 0.05 0.05-0.2 0.05" fill="#d8bd81" fill-rule="evenodd"/>
<path d="m236.2 191.55-0.1 0.15 0.35 0.95 0.3 0.95q0.25 2.75 1.9 2.9l0.4 0.5-0.95 0.35 0.25 0.65 0.1 0.25-0.95 0.35-0.55 0.1-13.95 7.25-4.4-4.25q3.75-3.35 8.15-6.1l0.2-0.05 9.25-4" fill="#f4dcaa" fill-rule="evenodd"/>
<path d="m241.35 203.55v0.65l-2.6 2.25-0.45 0.3-0.05-0.1-11.3 6.75-0.05-0.15-2.7-5.05-0.3-0.55-0.95-1.7h0.05l13.95-7.25 0.55-0.1 0.95-0.35q1.1 2.55 2.45 4.45l0.45 0.85" fill="#7c5c27" fill-rule="evenodd"/>
<path d="m251.3 181.05q2.05 3.65-5.9 9.35-1.5 1.05-4.6-0.35 4.1-7.1 10.3-9.45l0.2 0.45" fill="#dda72c" fill-rule="evenodd"/>
<path d="m261.65 180.55q6.05-2.95 10.6-2.9l0.95-0.15 0.15 0.45q-5.9 1.75-11.7 2.6" fill="#e9b32f" fill-rule="evenodd"/>
<path d="m274.25 183.4q9.65-2.15 14.7 3.35l0.45 0.75q-5.4-0.3-14.65-3.5l-0.5-0.6" fill="#8e4801" fill-rule="evenodd"/>
<path d="m292.05 177.1q4.45-0.4 7.7 1.7l0.5 0.65-0.9 0.1q-3.9-0.6-7.3-2.45" fill="#e9b22c" fill-rule="evenodd"/>
<path d="m365.6 274.3q2-2.15 2.15-5.1l-0.1-0.9q5.35-13-0.6-31.4l-0.35-0.95-0.3-0.95-4.35-12.15-0.35-0.95q-0.65-1.85-1.65-3.6h-0.15q-1.95-4-3.45-8.2l-0.35-0.95q-25.95-59.05-82.4-54l-0.95 0.35-12.15 4.3q-3.45 1.5-4.95 4.05-8.6 14.3-19.45 27.7m120.95 85.75h-0.6q-17.2-15.8-27.9-44.7l-0.45-0.85q-7.25-10.75-14.75-21.15l-0.5-0.75q-14.4-13.7-34.1-16.45l-0.9 0.1q-8.65-0.5-17.95 0.25l-0.9 0.2q-4.8 0.25-10.65 2.85l0.05 0.6q-3.95 3-7.15 6.15m-22.75-1.85q3.75-3.35 8.15-6.1m0.2-0.05 9.25-4" fill="none" stroke="#000" stroke-linecap="round" stroke-linejoin="round" stroke-opacity=".25098" stroke-width=".05"/>
</g>
</defs>
</svg>
