<?xml version="1.0" encoding="UTF-8"?>
<svg version="1.1" viewBox="0 0 217.35 283.83" xmlns="http://www.w3.org/2000/svg" xmlns:cc="http://creativecommons.org/ns#" xmlns:dc="http://purl.org/dc/elements/1.1/" xmlns:rdf="http://www.w3.org/1999/02/22-rdf-syntax-ns#" xmlns:xlink="http://www.w3.org/1999/xlink">
<metadata>
<rdf:RDF>
<cc:Work rdf:about="">
<dc:format>image/svg+xml</dc:format>
<dc:type rdf:resource="http://purl.org/dc/dcmitype/StillImage"/>
</cc:Work>
</rdf:RDF>
</metadata>
<g transform="translate(-140.5 -56.7)">
<use transform="translate(140.5,56.7)" width="217.3" height="283.79999" xlink:href="#a"/>
</g>
<defs>
<g id="a" transform="translate(-140.5,-56.7)">
<path d="m320.6 98.7 16.25 28.2 10.6 49.85-20.65 71.9-78.6 73.65-59.6 15.2q-8.95-2.3-17.35-6.25l-0.65-0.3-4.4-2.3-1.95-1.1-1.35-1.2q-40.5-38.05-7.7-82.8 9.05-8.65 18.95-15.3 8.15-3.55 17.25-3.65 12.05-0.15 25.8 5.65 18.65 4.85 22 19.05l45.6-31.7 20-43.5 0.65-19.05-24.4-4.3-4.3 1.55-3.75 1.4 0.05-1.5q0.05-7.75 0.85-14.25l0.8-5.15q1.3-6.9 3.55-17.6l18.85-10.6 22.7 17.25 0.3-0.4-12.35-18.45 3.1-7.7q5 0.6 9.75 3.4m-150.5 227.35 10.1-6.7 22.2 5.8 0.4-0.6-17.45-11.6 6.15-20.55-14.25 13.65-13.2-16 3.7 18.75 2.35 17.25" fill="#530029" fill-rule="evenodd"/>
<path d="m188.6 337.5 59.6-15.2 78.6-73.65 20.65-71.9-10.6-49.85-16.25-28.2q7.75 4.6 14.75 15.1 13.85 22.45 20.3 38.55 6.4 16.1-6.05 68.7-22.25 66.05-94.45 111.25l-2.65 1.6q-34.55 11.05-63.9 3.6m88.15-185.2 4.3-1.55 24.4 4.3-0.65 19.05-20 43.5-45.6 31.7q-3.35-14.2-22-19.05-13.75-5.8-25.8-5.65l18.7-9.05 34.1-10.2 25.4-21.5 8-27.05-0.85-4.5" fill="#840042" fill-rule="evenodd"/>
<path d="m310.85 95.3-3.1 7.7 12.35 18.45-0.3 0.4-22.7-17.25-18.85 10.6 1.1-5.25q4-3.9 7.85-6.75-3.85 2.85-7.85 6.75l-1.1 5.25-17.45 9.85-11.5-15.3 11.4 6.5 26.5-13.05 3.15-2.2 0.5-0.3 2.55-1.5-18.1-30.9 15.2-9.75 9.9 35 25.65-36.85-15.2 38.6m-140.75 230.75-2.35-17.25-3.7-18.75 13.2 16 14.25-13.65-6.15 20.55 17.45 11.6-0.4 0.6-22.2-5.8-10.1 6.7" fill="#2b3a23" fill-rule="evenodd"/>
<path d="m273 153.7 3.75-1.4 0.85 4.5-8 27.05-25.4 21.5-34.1 10.2-18.7 9.05q-9.1 0.1-17.25 3.65 23.5-15.85 51.8-20.4 32.3-15 36.9-28.3 9.45-15.35 10.15-25.85" fill="#b9005c" fill-rule="evenodd"/>
<path d="m320.6 98.7q-4.75-2.8-9.75-3.4m-32.6 19.9q-2.25 10.7-3.55 17.6l-0.8 5.15q-0.8 6.5-0.85 14.25l-0.05 1.5m-98.85 74.55q-9.9 6.65-18.95 15.3-32.8 44.75 7.7 82.8l1.35 1.2 1.95 1.1 4.4 2.3 0.65 0.3q8.4 3.95 17.35 6.25 29.35 7.45 63.9-3.6l2.65-1.6q72.2-45.2 94.45-111.25 12.45-52.6 6.05-68.7-6.45-16.1-20.3-38.55-7-10.5-14.75-15.1m-27.2 0.5-2.55 1.5-0.5 0.3-3.15 2.2q-3.85 2.85-7.85 6.75l-1.1 5.25m-104.1 113.05q23.5-15.85 51.8-20.4 32.3-15 36.9-28.3 9.45-15.35 10.15-25.85" fill="none" stroke="#000" stroke-linecap="round" stroke-linejoin="round" stroke-opacity=".25098" stroke-width=".05"/>
</g>
</defs>
</svg>
