<?xml version="1.0" encoding="UTF-8"?>
<svg version="1.1" viewBox="0 0 157.37 121.16" xmlns="http://www.w3.org/2000/svg" xmlns:cc="http://creativecommons.org/ns#" xmlns:dc="http://purl.org/dc/elements/1.1/" xmlns:rdf="http://www.w3.org/1999/02/22-rdf-syntax-ns#" xmlns:xlink="http://www.w3.org/1999/xlink">
<metadata>
<rdf:RDF>
<cc:Work rdf:about="">
<dc:format>image/svg+xml</dc:format>
<dc:type rdf:resource="http://purl.org/dc/dcmitype/StillImage"/>
</cc:Work>
</rdf:RDF>
</metadata>
<g transform="translate(-180.85 -138.6)">
<use transform="matrix(1.7883 0 0 1.7883 180.85 138.6)" width="88" height="67.75" xlink:href="#a"/>
</g>
<defs>
<g id="a" transform="translate(.25 .25)">
<use transform="translate(-.25 -.25)" width="88" height="67.75" xlink:href="#b"/>
</g>
<g id="b" transform="translate(.25 .25)">
<path d="m37 64.3-1.95-2.35q-2.2-2.7-2.2-4.35 0-3.65 4.25-5.2 3.85-1.4 12.35-1.4 11.85 0 25.9 2.4 8.4 1.45 11.9 2.45l0.5 0.15-0.15 0.15-0.35 0.15-1.35 0.45-3.65 0.5v0.25q0.2 0.35 1.9 0.55 1.85 0.25 2.45 0.7l-1 0.55q-0.95 0.05-1.5 0.6-0.5 0.5-2.25 0.5l-2.25 0.25q0.9 0 2.05 0.65 1.2 0.65 1.2 1.25 0 0.75-6.6 1.05-8.05 0.3-11 1.15 0.3 0.45 1 0.55l1 0.1q-5.7 2.1-8.65 2.1l-9.65-1.05-11.95-2.15" fill-opacity=".2902" fill-rule="evenodd"/>
<path d="m3.25 9.4-0.75 0.45 0.75-0.45m-2.85 4.85q-0.3-0.3-0.3-0.75 0-2 2.4-3.65l-1 0.15-0.75-0.1q-0.75-0.2-0.75-0.9 0-1.1 4.1-3.55l3.3-1.75q1.05-1.65 1.85-2 1.65-0.7 5.4-0.7 2.85 0 5.3 0.8 1.5 0.5 2.3 1.05l0.1 0.05-0.1-0.15-0.25-0.65-0.25-1 0.1-0.6q0.25-0.5 1-0.5 1.1 0 4.25 3.75 1.8 2.1 2.75 3.75l-0.3 0.25-1.55 0.4q-0.95 0-2.3-0.85l-2.2-1.6-0.1-0.2h-0.15l0.25 0.2 0.25 0.9q0 0.55-0.65 0.55-1.35 0-3.35-0.8-1.05-0.45-1.8-0.9l0.05-0.2-0.5-0.1-0.25-0.15 0.7 0.45q-0.5 0.95-2.65 0.95l-1.85-0.25-0.2-0.75q-0.4-0.05-0.7 0.3l-1.8 1.2q-1.4 0.75-3.15 1l-1.6 0.1q-3.6 5.4-5.6 6.25m8.85-11.35-1.85 0.8 1.85-0.8m43.25 6.8 0.4 0.55-0.4-0.55q0.95-0.55 2.55-1l4.25-0.65q1.6 0 2.45 0.5-0.35 0.75-1.4 1.15-1.15 0.4-1.6 1.1l1.8-0.4q2.5 0 3.65 0.55l0.9 0.7q-0.3 0.4-1.35 0.4 0.7 0.2 2.35 1.35 1.9 1.35 2.65 2.5v1.15h-0.75l-1.05-0.2-0.95-0.2h-0.5q1.75 0.7 2.05 1.25l-0.05 0.6 0.1 0.25-1.7-0.1-4.05-0.05q-1.85-0.05-1.85-1.1 0-0.45 0.85-0.95l1.05-0.65-1.25-0.3-1-0.55 0.05-0.3h0.15l1.05-0.5 0.2-0.05 0.15-0.2q-0.9-0.15-1.35 0.4l-0.2 0.35h-1.1q-2.7 0-2.7-1.85v-0.15l0.6-0.35 0.15-0.9v-0.25q-0.65 0.65-0.75 1.5h-0.65l-2.25-0.6 0.45 0.25q0.3 0.25 0.3 0.8l-2.9-0.15q-1.3-0.5-2.1-1.1 1.15 1.25 1.5 2.7v1.35h-1q-1.55-0.3-3.35-2-1.55-1.4-1.75-2 0.2 0.75-0.15 0.95l-0.65 0.05-0.95-0.25 0.75 1.75-0.15 0.5-1.2 0.25-1.9-0.25 1.5 0.65 1.6 0.75q1 0.55 1 1.25l-2.65 0.55-1.45-0.05 0.25 0.4-0.15 0.35-1.95 0.1-3.4-0.35q1.55 0.1 2.8 0.7 1.3 0.65 1.3 1.35l-4.1 0.8-1.9-0.1-0.6 0.8-1.1 0.05-2.5-0.2-0.05-0.05h-0.25l0.3 0.05 0.45 0.65q0 0.3-1.35 0.85l-4.9 2.2 0.95-0.15 2.6-0.2 1.6 0.1-0.75 0.15h0.1q0.6 0.45 1.75 0.55 0.75 0.1 0.75 0.65 0.15 1.05-1.85 1.4l-2.35 0.4q-1.15 0.2-1.65 0.5l0.75 0.25q-0.25 1.7-3.6 2.65l-3.1 0.6-1.9 0.1-1-0.1-0.05-0.25q0-0.65 0.55-1.4l-0.9 0.1-1.25 0.05h-1.15v-0.6q0.5-1.5 2.1-3.2-0.45-0.35-0.45-0.95 0-0.65 0.85-1.85 1.15-1.6 3.5-3.4-0.55-0.05-1.3-0.75-0.85-0.75-0.85-1.25 0-1.1 1.5-1.1l3.25 0.85 2.9 1-0.55-0.45q-0.6-0.25-0.6-0.75 0-0.35 0.4-0.6l2-0.2-0.25-0.55-0.25-0.8h0.5l-1-0.9-0.65-0.9q0-0.3 0.65-0.7l1.5-0.45 0.5-0.05h0.3l2.5 0.45q-2.6-1.6 1.8-2.25l2.65-0.4 2.95-0.45-0.85-0.4q-0.85-0.45-0.85-0.85t0.75-0.85q1.25-0.75 3.8-0.75l2.3 0.25q-0.65-0.25-1.15-1-0.45-0.7-0.45-1.35 2.15-0.95 7.05 0.65 4.1 1.35 5.7 3.1m-12.55 1.45-2.3-0.35-1.45 0.1 1.45-0.1 2.3 0.35m26.6 13.95q2.05 0.25 4.15 2.85l1.45 2.05-3-0.1q-2.4-0.3-4.2-1.1t-1.8-1.5q0-0.55 0.6-1.05 0.85-0.7 2.6-1.1l0.2-0.05m-58.85 30.25q0.2-0.45 0.7-0.7l1.4-0.65-1.3 0.15-1.1-0.1q0.15-1.6 2.45-2.85 1.6-0.9 2.65-1l-1.4-0.05q-1.1-0.1-1.1-0.8 0-0.8 1-1.55l1.65-1 1.1 0.7 0.5 0.75q0.2 0.85-0.9 0.8l1 0.25q1.15 0.45 1.15 1.05 0 0.9-1.7 1.4l-2.65 0.5h-0.15l0.75 1.25q0 1.15-4.05 1.85m5.4-10.95 0.7-2.75 0.95-0.75h-0.85v-0.85q-0.05-0.5 0.15-0.95l0.55-1.05 0.5-0.65 0.25-0.1 0.8-0.4 0.35 0.25 0.15 0.35-0.2 0.5-0.3 0.5v0.15l0.75-0.25q0.15 1.25-1.5 3.75v0.1l0.95 0.45 0.65 0.45v1.5l-1.45 0.1-1.75-0.2-0.7-0.15m-0.65-5.65-0.05-0.2q0-1.3 1.75-2.7l0.75 0.75-1.05 1-1.4 1.15m-1.6-3.8q0.1-1.05 1-2l0.05-0.05h0.75q0.6 0.05 0.6 0.65 0 0.4-1.1 0.85l-1.3 0.55m50.75 0.7-1.35-1-2.3-1.3q-1.55-0.95-1.55-1.55t0.3-0.65l1.45 0.1q-1.25-0.15-3.05-1.3-1.95-1.25-1.95-2.35l0.1-0.45q0.25-0.4 1.05-0.4t2.05 0.65l1.75 0.95q1.55 0.9 2.7 2.05 1.7 1.8 1.7 3.65l-0.4 0.1-0.65-0.2-0.7-0.65q0.9 1 0.85 2v0.35m-32.8-21.65 2.7 0.65-2.7-0.65m-6.55-5.45q1.55 0.5 2.15 1.2v0.75h-3q-1.1-0.25-2.35-1.05l-1.05-0.75 0.55-0.35 1.2-0.2 2.5 0.4m-3.6 15.6q-2 0.9-3.95 2.8l-0.35 0.4 0.35-0.4q1.95-1.9 3.95-2.8m-3.9 16.75 1.1-0.85-1.1 0.85m7.5-7.65q0-0.25 0.75-0.6 0.9-0.4 2.1-0.4l1.9 0.5q1.65 0.65 1.5 1 0 1.65-2.35 1.65l-2.15-0.65q-1.75-0.75-1.75-1.5m-6.7-2.25 1.45-1.55q1.75-1.55 2.75-1.65-1 0.1-2.75 1.65l-1.45 1.55m23.95-3.9q-0.9 0.1 0 0.45l1.4 0.85q-0.85 1.25-2.9 1.25l-2.75-0.4q-2.35-0.65-2.35-2l0.6-0.75q0.75-0.5 1.75-0.5l2.75 0.35q1.15 0.35 1.5 0.75m4.3-5.7 0.6 0.6q0 0.65-1 1.4-1.45 1.1-4.15 1.1-1.75-0.75-1.1-2 0.7-1.35 3.95-1.35l1.05 0.05 0.65 0.2m-6.05 30.1 3.1-0.1 4.8 0.25-0.15-0.15-1.6-1.2 0.1-0.45q0.5-0.45 2.5-0.45 1.35 0 2.45 0.6 1.05 0.35 1.05 0.8l-0.6 0.45 1 0.65v0.6h-1.25l1.25 1.5q0 1-1.2 1l-1.1-0.25-0.2-0.1 0.2 0.15 0.15 0.85q0 1.25-1.6 1.25-1.55 0-2.65-1.05l-1.35-1.85-1.65 0.4-3.6-0.65q-2-0.65-2-1.35l0.1-0.4h1.9l0.5 0.15q-0.15-0.25-0.15-0.65" fill="#878601" fill-rule="evenodd"/>
<path d="m0.4 14.25q2-0.85 5.6-6.25l1.6-0.1q1.75-0.25 3.15-1l1.8-1.2q0.3-0.35 0.7-0.3l0.2 0.75 1.85 0.25q2.15 0 2.65-0.95l-0.7-0.45 0.25 0.15 0.5 0.1-0.05 0.2q0.75 0.45 1.8 0.9 2 0.8 3.35 0.8 0.65 0 0.65-0.55l-0.25-0.9-0.25-0.2h0.15l0.1 0.2 2.2 1.6q1.35 0.85 2.3 0.85l1.55-0.4 0.3-0.25 0.9 2.3-1.65 0.25-3.1 3.5-0.5 0.05q-2.9-1.8-5.35-2.25l-2.8-0.2-0.3 0.05-4 0.2q-0.35 0-0.45-0.25v-0.25l0.25-0.3 0.9-0.45-1.55-0.25q-1.55 0-3.55 0.95l-2.35 0.9q-0.95 0-1.3-0.4v-0.05l-1.4 1.85q-1.35 1.6-2.2 1.6l-0.65-0.25-0.35-0.25m6.85-5.25q-0.65 0.25-1.6 1.1l-0.8 0.8 0.15 0.4-0.15-0.4 0.8-0.8q0.95-0.85 1.6-1.1m60.35 9.75 0.05 0.15 0.45 1.5v0.75h-0.75l-0.75-0.25-0.75-0.1-0.6 0.1 1.1 3.65v0.5l0.2 0.05-0.2 0.05q-1.75 0.4-2.6 1.1-0.6 0.5-0.6 1.05 0 0.7 1.8 1.5t4.2 1.1l3 0.1 0.1 0.15q0.7 1.35 1 2.65l-3.3-0.85q-2.15-0.75-2.6-1.05 0 0.5 1 0.9 1.2 0.5 1.75 1.75l0.55 2.3 0.1 1.45-0.05 0.6h-0.35l0.75 1.2q0.65 1.35 0.75 3.3l-1.95-0.5-1.55-1.1 1.5 1.75q1.5 1.5 1.5 5.05l-0.25 1.45-0.25 0.25q-0.5 0-1.75-1.2l-1.25-1.3 0.65 1.95 0.35 2.25 1.1 0.95q1.1 1.15 2.05 3.45v2l-0.5 0.15-0.3-0.2 0.3 0.95q0 0.65-0.4 1l-0.6 0.25q-0.4 0-1.15-0.7l-0.85-0.8v0.25q0 2.5-1.2 3.75-1.05 1.05-2.05 0.6-0.05-0.8-0.8-1.8l-1.2-1.2-1.1 3.4-2.4-2.15-0.2 1.45-0.15 1.8h-0.65l-3.2-0.95 0.2 0.85-0.25 0.6-1.5 0.25-3.2-0.7-3.3-1.05q1.5 1.05 1.5 1.7l-0.25 0.45q-1.8 0-4.6-2.3l-2.45-2.3-0.35 1.35h-1.4l-0.85 1.8h-1.3l0.3-0.95-1-1.85-2.4 0.1-0.45 0.8-2.85 0.15 0.3-0.7-1.75-1.6-2.5 0.75-0.4 0.45h-1.35l-1.8-0.95 0.2-0.4-1.75-1.35h-2l-0.9 0.85-1.5-0.6-0.9-0.65 0.3-1.6h-1.75l-0.35-0.15-1.4-0.75-0.75 0.65-0.4 0.55-0.85 1.25-1.3-0.1q-1.15-0.05-1.15-1l0.05-0.3q0.05-0.15 0.55-0.3l-2.5-0.1 0.2-0.7q4.05-0.7 4.05-1.85l-0.75-1.25h0.15l2.65-0.5q1.7-0.5 1.7-1.4 0-0.6-1.15-1.05l-1-0.25q1.1 0.05 0.9-0.8l-0.5-0.75-1.1-0.7 1.75-0.7-1.45-1.3 0.15-0.4 0.7 0.15 1.75 0.2 1.45-0.1v-1.5l-0.65-0.45-0.95-0.45v-0.1q1.65-2.5 1.5-3.75l-0.75 0.25v-0.15l0.3-0.5 0.2-0.5-0.15-0.35-0.35-0.25-0.8 0.4-0.25 0.1-0.5 0.65-0.55 1.05q-1.5 0.55-1.6-0.35l1.4-1.15 1.05-1-0.75-0.75 0.25-0.2-3.2 0.9q-0.35-0.7-0.35-1.4v-0.2l1.3-0.55q1.1-0.45 1.1-0.85 0-0.6-0.6-0.65h-0.75q1.1-1.05 2.75-1.8l0.9-0.1q-0.55 0.75-0.55 1.4l0.05 0.25 1 0.1 1.9-0.1 3.1-0.6q3.35-0.95 3.6-2.65l-0.75-0.25q0.5-0.3 1.65-0.5l2.35-0.4q2-0.35 1.85-1.4 0-0.55-0.75-0.65-1.15-0.1-1.75-0.55h-0.1l0.75-0.15-1.6-0.1-2.6 0.2-0.95 0.15 4.9-2.2q1.35-0.55 1.35-0.85l-0.45-0.65-0.3-0.05h0.25l0.05 0.05 2.5 0.2 1.1-0.05 0.6-0.8 1.9 0.1 4.1-0.8q0-0.7-1.3-1.35-1.25-0.6-2.8-0.7l3.4 0.35 1.95-0.1 0.15-0.35-0.25-0.4 1.45 0.05 2.65-0.55q0-0.7-1-1.25l-1.6-0.75-1.5-0.65 1.9 0.25 1.2-0.25 0.15-0.5-0.75-1.75 0.95 0.25 0.65-0.05q0.35-0.2 0.15-0.95 0.2 0.6 1.75 2 1.8 1.7 3.35 2h1v-1.35q-0.35-1.45-1.5-2.7 0.8 0.6 2.1 1.1l2.9 0.15q0-0.55-0.3-0.8l-0.45-0.25 2.25 0.6h0.65q0.1-0.85 0.75-1.5v0.25l-0.15 0.9-0.6 0.35v0.15q0 1.85 2.7 1.85h1.1l0.2-0.35q0.45-0.55 1.35-0.4l-0.15 0.2-0.2 0.05-1.05 0.5h-0.15l-0.05 0.3 1 0.55 1.25 0.3-1.05 0.65q-0.85 0.5-0.85 0.95 0 1.05 1.85 1.1l4.05 0.05 1.7 0.1m-1.25 6.3h-0.1l0.1 0.05v-0.05m-8.25 3.3-1.75-0.95q-1.25-0.65-2.05-0.65t-1.05 0.4l-0.1 0.45q0 1.1 1.95 2.35 1.8 1.15 3.05 1.3l-1.45-0.1q-0.3 0.05-0.3 0.65t1.55 1.55l2.3 1.3 1.35 1v-0.35q0.05-1-0.85-2l0.7 0.65 0.65 0.2 0.4-0.1q0-1.85-1.7-3.65-1.15-1.15-2.7-2.05m0.15 8.05q1.3 1.5 2.1 1.5l1.25-0.1v-2.15 0.25l2.6 2.45q2.05 2 2.05 4.05 0 0.65-0.65 0.65-0.25 0-0.55-0.2l0.3 0.5 0.15 0.85q0 0.85-0.5 1.05l-1-0.1 1 0.1q0.5-0.2 0.5-1.05l-0.15-0.85-0.3-0.5q0.3 0.2 0.55 0.2 0.65 0 0.65-0.65 0-2.05-2.05-4.05l-2.6-2.45v1.9l-1.25 0.1q-0.8 0-2.1-1.5m-43.5-26.75-1 0.5 1-0.5m7.5-1.1-2.5-0.4-1.2 0.2-0.55 0.35 1.05 0.75q1.25 0.8 2.35 1.05h3v-0.75q-0.6-0.7-2.15-1.2m-4.3 24.1-1.3 0.8h-0.45l-1.1-0.05-0.05-0.75 0.05 0.75 1.1 0.05h0.45l1.3-0.8m4.3 0.6q0 0.75 1.75 1.5l2.15 0.65q2.35 0 2.35-1.65 0.15-0.35-1.5-1l-1.9-0.5q-1.2 0-2.1 0.4-0.75 0.35-0.75 0.6m1.15 5.2q-0.3-1.3-0.95-2.3-1.1-1.75-2.15-2t-1.95 1.6q-0.95 1.9-0.95 4.6l0.15 2q0.3 1.55 0.8 2.5 0.9 1.9 2.25 1.9 1.3 0 2.25-1.9 0.95-1.85 0.85-4.4l-0.2-1.55v-0.1l-0.1-0.35m-5.9-2.9q-1.4 0.3-1.4-0.65 0-0.75 0.55-1.45-0.55 0.7-0.55 1.45 0 0.95 1.4 0.65m26.3-14.15-0.65-0.2-1.05-0.05q-3.25 0-3.95 1.35-0.65 1.25 1.1 2 2.7 0 4.15-1.1 1-0.75 1-1.4l-0.6-0.6m-4.3 5.7q-0.35-0.4-1.5-0.75l-2.75-0.35q-1 0-1.75 0.5l-0.6 0.75q0 1.35 2.35 2l2.75 0.4q2.05 0 2.9-1.25l-1.4-0.85q-0.9-0.35 0-0.45m1.35 8.15-1.85-0.1q-2.25 0.5-4 2.2-1.8 1.65-1.8 5.05 0 2.7 0.85 4.4l0.5 0.75 0.75 0.9q0.9 0.95 1.7 1.25l2.4 0.15q1.05-0.25 2.1-1.4l0.5-0.75q1.6-2.4 2.05-5.55 0.4-2.7-0.75-4.65l-0.4-0.65q-0.95-1.2-2.05-1.6m-3.1 16.25q0 0.4 0.15 0.65l-0.5-0.15h-1.9l-0.1 0.4q0 0.7 2 1.35l3.6 0.65 1.65-0.4 1.35 1.85q1.1 1.05 2.65 1.05 1.6 0 1.6-1.25l-0.15-0.85-0.2-0.15 0.2 0.1 1.1 0.25q1.2 0 1.2-1l-1.25-1.5h1.25v-0.6l-1-0.65 0.6-0.45q0-0.45-1.05-0.8-1.1-0.6-2.45-0.6-2 0-2.5 0.45l-0.1 0.45 1.6 1.2 0.15 0.15-4.8-0.25-3.1 0.1m16.7 7.05-1.35 1.55-1.4 1.55-3.6 0.4-1.25-1.75-2.65-1.15-2.25 0.5-0.25 1.05 0.25-1.05 2.25-0.5 2.65 1.15 1.25 1.75 3.6-0.4 1.4-1.55 1.35-1.55m-26.7-4.65-0.4-1.45-2.75-6.4-1.15 0.5-2.35 3.85 0.1 2.15 0.9-1.25 1.45-1.4 4.2 4m-11.9-6.5-1.45-1.3 1.45 1.3m-3.15 9.2-0.05-0.45-0.2-2 2.5-1.1 1.75-2.65-1.75 2.65-2.5 1.1 0.2 2 0.05 0.45m-0.05-0.45h-2.65 2.65m41.35-7.5-2.2 1.9 0.8 3.15 3.6 3.1-0.6 2.85-2.5 0.45 2.5-0.45 0.6-2.85-3.6-3.1-0.8-3.15 2.2-1.9m11.05-5.8-0.35-0.2-0.95-1 0.95 1 0.35 0.2m5.3 13.7 0.85 0.8-0.85-0.8m-2.85-1.25 0.65 0.4q0.35 0.6 0.35 2.35 0-1.75-0.35-2.35l-0.65-0.4m-0.25-2.9 0.95 0.1q0.65-0.1 0.65-1.25v-0.25 0.25q0 1.15-0.65 1.25l-0.95-0.1m-19.85 10.65h-0.15l0.25 0.1-0.1-0.1m8 0.1 0.15 0.05-0.05-0.05h-0.1" fill="#660" fill-rule="evenodd"/>
<path d="m37.8 63.85-0.35 0.95-2.35 0.75 2-4.5 1 1.85-0.3 0.95m-6.75-0.95-0.95 1.9h-1l-0.85-0.75-0.9 0.35-0.85-0.3 3.45-4.3 1.75 1.6-0.3 0.7-0.35 0.8m-8.1-1-0.35 0.65h-1.65l-0.5-0.65 1.9-3.6 1.75 1.35-0.2 0.4-0.95 1.85m-6.6-1.9-0.5 1.15h-1l-0.8-0.9-0.45 0.3v1l-2.1-0.9 2.4-1.9 1.35-2.6 0.35 0.15h1.75l-0.3 1.6-0.1 0.5-0.6 1.6m9.65-46.45 3.1-3.5 1.65-0.25 0.85-0.15 1.65 1.7-2.65 0.4q-4.4 0.65-1.8 2.25l-2.5-0.45h-0.3m3.2 50.1-0.95 0.4 0.95-0.4m-14-4.25-1.15 0.85 1.15-0.85" fill="#b0af68" fill-rule="evenodd"/>
<path d="m23.5 38.8v0.1l0.2 1.55q0.1 2.55-0.85 4.4-0.95 1.9-2.25 1.9-1.35 0-2.25-1.9-0.5-0.95-0.8-2.5l-0.15-2q0-2.7 0.95-4.6 0.9-1.85 1.95-1.6t2.15 2q0.65 1 0.95 2.3l0.1 0.35m17.35-3.55q1.1 0.4 2.05 1.6l0.4 0.65q1.15 1.95 0.75 4.65-0.45 3.15-2.05 5.55l-0.5 0.75q-1.05 1.15-2.1 1.4l-2.4-0.15q-0.8-0.3-1.7-1.25l-0.75-0.9-0.5-0.75q-0.85-1.7-0.85-4.4 0-3.4 1.8-5.05 1.75-1.7 4-2.2l1.85 0.1m-13.1 18.65-4.2-4-1.45 1.4-0.9 1.25-0.1-2.15 2.35-3.85 1.15-0.5 2.75 6.4 0.4 1.45" fill="#3c3c00" fill-rule="evenodd"/>
<path d="m33.7 63.15-2.65-0.25 0.35-0.8 2.85-0.15-0.45 0.8-0.1 0.4m-7.95-0.7-0.4-0.05-2.4-0.5 0.95-1.85 1.8 0.95h1.35l-1.1 1.3-0.2 0.15m-7.25-1.8-2.15-0.65 0.6-1.6 0.1-0.5 0.9 0.65 1.5 0.6-0.95 1.5" fill-opacity=".2902" fill-rule="evenodd"/>
<path d="m35.1 65.55-1.9-0.75 0.5-1.65 0.1-0.4 0.9-1.6 2.4-0.1-2 4.5m-8.6-1.45-0.8-0.3-0.75-0.9 0.8-0.45 0.2-0.15 1.1-1.3 0.4-0.45 2.5-0.75-3.45 4.3m-6.05-2.2h-1.35l-1.15-0.5 0.55-0.75 0.95-1.5 0.9-0.85h2l-1.9 3.6m-8.95-1.25-1.15-0.5v-1.25l1.35-0.85 0.15-0.2 0.85-1.25 0.4-0.55 0.75-0.65 1.4 0.75-1.35 2.6-2.4 1.9" fill="#cc9" fill-rule="evenodd"/>
<path d="m2.5 9.85 0.75-0.45m4.15-5.7-3.3 1.75q-4.1 2.45-4.1 3.55 0 0.7 0.75 0.9l0.75 0.1 1-0.15q-2.4 1.65-2.4 3.65 0 0.45 0.3 0.75l0.35 0.25 0.65 0.25q0.85 0 2.2-1.6l1.4-1.85-0.15-0.4 0.8-0.8q0.95-0.85 1.6-1.1m22.6-1.5q-0.95-1.65-2.75-3.75-3.15-3.75-4.25-3.75-0.75 0-1 0.5l-0.1 0.6 0.25 1 0.25 0.65 0.1 0.15-0.1-0.05q-0.8-0.55-2.3-1.05-2.45-0.8-5.3-0.8-3.75 0-5.4 0.7-0.8 0.35-1.85 2l1.85-0.8m16.25 10.7q-2.9-1.8-5.35-2.25l-2.8-0.2-0.3 0.05-4 0.2q-0.35 0-0.45-0.25v-0.25l0.25-0.3 0.9-0.45-1.55-0.25q-1.55 0-3.55 0.95l-2.35 0.9q-0.95 0-1.3-0.4v-0.05m47.9-1.05-0.4-0.55q-1.6-1.75-5.7-3.1-4.9-1.6-7.05-0.65 0 0.65 0.45 1.35 0.5 0.75 1.15 1l-2.3-0.25q-2.55 0-3.8 0.75-0.75 0.45-0.75 0.85t0.85 0.85l0.85 0.4 1.45-0.1 2.3 0.35m12.55-1.45q0.95-0.55 2.55-1l4.25-0.65q1.6 0 2.45 0.5-0.35 0.75-1.4 1.15-1.15 0.4-1.6 1.1l1.8-0.4q2.5 0 3.65 0.55l0.9 0.7q-0.3 0.4-1.35 0.4 0.7 0.2 2.35 1.35 1.9 1.35 2.65 2.5v1.15h-0.75l-1.05-0.2-0.95-0.2h-0.5q1.75 0.7 2.05 1.25l-0.05 0.6 0.1 0.25m0.05 0.15 0.45 1.5v0.75h-0.75l-0.75-0.25-0.75-0.1-0.6 0.1 1.1 3.65v0.5l0.2 0.05q2.05 0.25 4.15 2.85l1.45 2.05m0.1 0.15q0.7 1.35 1 2.65l-3.3-0.85q-2.15-0.75-2.6-1.05 0 0.5 1 0.9 1.2 0.5 1.75 1.75l0.55 2.3 0.1 1.45-0.05 0.6h-0.35l0.75 1.2q0.65 1.35 0.75 3.3l-1.95-0.5-1.55-1.1 1.5 1.75q1.5 1.5 1.5 5.05l-0.25 1.45-0.25 0.25q-0.5 0-1.75-1.2l-1.25-1.3 0.65 1.95 0.35 2.25 1.1 0.95q1.1 1.15 2.05 3.45v2l-0.5 0.15-0.3-0.2 0.3 0.95q0 0.65-0.4 1l-0.6 0.25q-0.4 0-1.15-0.7l-0.85-0.8v0.25q0 2.5-1.2 3.75-1.05 1.05-2.05 0.6-0.05-0.8-0.8-1.8l-1.2-1.2-1.1 3.4-2.4-2.15-0.2 1.45-0.15 1.8h-0.65l-3.2-0.95 0.2 0.85-0.25 0.6-1.5 0.25-3.2-0.7-3.3-1.05q1.5 1.05 1.5 1.7l-0.25 0.45q-1.8 0-4.6-2.3l-2.45-2.3-0.35 1.35h-1.4l-0.85 1.8h-1.3l-0.35 0.95-2.35 0.75-1.9-0.75 0.5-1.65m-2.65-0.25-0.95 1.9h-1l-0.85-0.75-0.9 0.35-0.85-0.3-0.8-0.3-0.75-0.9 0.8-0.45m-2.8-0.55-0.35 0.65h-1.65l-0.5-0.65h-1.35l-1.15-0.5 0.55-0.75 0.95-1.5 0.9-0.85h2l1.75 1.35-0.2 0.4 1.8 0.95h1.35l-1.1 1.3-0.2 0.15m-9.4-2.45-0.5 1.15h-1l-0.8-0.9-0.45 0.3v1l-2.1-0.9-1.15-0.5v-1.25l1.35-0.85 0.15-0.2-1.3-0.1q-1.15-0.05-1.15-1l0.05-0.3q0.05-0.15 0.55-0.3l-2.5-0.1 0.2-0.7q0.2-0.45 0.7-0.7l1.4-0.65-1.3 0.15-1.1-0.1q0.15-1.6 2.45-2.85 1.6-0.9 2.65-1l-1.4-0.05q-1.1-0.1-1.1-0.8 0-0.8 1-1.55l1.65-1 1.75-0.7-1.45-1.3 0.15-0.4 0.7-2.75 0.95-0.75h-0.85v-0.85q-0.05-0.5 0.15-0.95-1.5 0.55-1.6-0.35l-0.05-0.2q0-1.3 1.75-2.7l0.25-0.2-3.2 0.9q-0.35-0.7-0.35-1.4m0-0.2q0.1-1.05 1-2l0.05-0.05q1.1-1.05 2.75-1.8l-1.25 0.05h-1.15v-0.6q0.5-1.5 2.1-3.2-0.45-0.35-0.45-0.95 0-0.65 0.85-1.85 1.15-1.6 3.5-3.4-0.55-0.05-1.3-0.75-0.85-0.75-0.85-1.25 0-1.1 1.5-1.1l3.25 0.85 2.9 1-0.55-0.45q-0.6-0.25-0.6-0.75 0-0.35 0.4-0.6l2-0.2-0.25-0.55-0.25-0.8h0.5l-1-0.9-0.65-0.9q0-0.3 0.65-0.7l1.5-0.45 0.5-0.05 3.1-3.5 1.65-0.25-0.9-2.3m36.5 17.55v0.05l-0.1-0.05h0.1m-4.75 10.6v-0.35q0.05-1-0.85-2l0.7 0.65 0.65 0.2 0.4-0.1q0-1.85-1.7-3.65-1.15-1.15-2.7-2.05m3.5 7.3v0.25l2.6 2.45q2.05 2 2.05 4.05 0 0.65-0.65 0.65-0.25 0-0.55-0.2l0.3 0.5 0.15 0.85q0 0.85-0.5 1.05l-1-0.1m-2.4-9.25v1.9l-1.25 0.1q-0.8 0-2.1-1.5m-25-25.05-1.65-1.7-0.85 0.15m0.75 4.85-2.7-0.65-2.5-0.45h-0.3m2.8 0.45q-2.6-1.6 1.8-2.25l2.65-0.4 2.95-0.45m-22.45-0.75 1-0.5m-0.4 17.7 0.35-0.4q1.95-1.9 3.95-2.8m-3.6 8.5-0.05-0.25q0-0.65 0.55-1.4l-0.9 0.1m0.4 1.55 0.05 0.75 1.1 0.05h0.45l1.3-0.8m-3.9 6.45 0.55-1.05 0.5-0.65 0.25-0.1m0.5 2.75-1.1 0.85m8.75-2.1v0.1l0.2 1.55q0.1 2.55-0.85 4.4-0.95 1.9-2.25 1.9-1.35 0-2.25-1.9-0.5-0.95-0.8-2.5l-0.15-2q0-2.7 0.95-4.6 0.9-1.85 1.95-1.6t2.15 2q0.65 1 0.95 2.3m-6.75-5q-0.55 0.7-0.55 1.45 0 0.95 1.4 0.65m2.25-7.75q-1 0.1-2.75 1.65l-1.45 1.55m25.3 4.25q1.1 0.4 2.05 1.6l0.4 0.65q1.15 1.95 0.75 4.65-0.45 3.15-2.05 5.55l-0.5 0.75q-1.05 1.15-2.1 1.4l-2.4-0.15q-0.8-0.3-1.7-1.25l-0.75-0.9-0.5-0.75q-0.85-1.7-0.85-4.4 0-3.4 1.8-5.05 1.75-1.7 4-2.2l1.85 0.1m-9.8 27.65 0.35-0.8 0.3-0.7-1.75-1.6m-1.7 4.25 0.95-0.4m-2.15-2.65 0.4-0.45 2.5-0.75m4.3 2.15-0.45 0.8-0.1 0.4m0.55-1.2 0.45-0.8 2.4-0.1 1 1.85-0.3 0.95m-6.4-1.75 2.85-0.15m7.45-1.25 0.25-1.05 2.25-0.5 2.65 1.15 1.25 1.75 3.6-0.4 1.4-1.55 1.35-1.55m-26.7-4.65-4.2-4-1.45 1.4-0.9 1.25-0.1-2.15 2.35-3.85 1.15-0.5 2.75 6.4 0.4 1.45m-13.35-7.8 1.45 1.3m-0.6 8.75 0.35 0.15h1.75l-0.3 1.6 0.9 0.65 1.5 0.6m-2.75-8.75-1.75 2.65-2.5 1.1 0.2 2 0.05 0.45 0.4-0.55 0.75-0.65 1.4 0.75m-2.55 0.45-0.85 1.25m-1.85-1.7h2.65m1.4 4.1 1.15-0.85m1.85-1.5-0.1 0.5-0.6 1.6m7.55 0.05-0.95 1.85m45.9-10.9v0.25q0 1.15-0.65 1.25l-0.95-0.1m1.25 5.65q0-1.75-0.35-2.35l-0.65-0.4m3.7 2.05-0.85-0.8m-6.6-14.9 0.95 1 0.35 0.2m-11.95 17.25 2.5-0.45 0.6-2.85-3.6-3.1-0.8-3.15 2.2-1.9m-6.6 14.4h-0.15l0.25 0.1-0.1-0.1m8 0.1 0.15 0.05-0.05-0.05h-0.1" fill="none" stroke="#000" stroke-linecap="round" stroke-linejoin="round" stroke-opacity=".4" stroke-width=".5"/>
<path d="m23.4 38.45 0.1 0.35" fill="none" stroke="#f39" stroke-linecap="round" stroke-linejoin="round" stroke-width=".05"/>
</g>
</defs>
</svg>
