<?xml version="1.0" encoding="UTF-8"?>
<svg version="1.1" viewBox="0 0 189.49 159.07" xmlns="http://www.w3.org/2000/svg" xmlns:cc="http://creativecommons.org/ns#" xmlns:dc="http://purl.org/dc/elements/1.1/" xmlns:rdf="http://www.w3.org/1999/02/22-rdf-syntax-ns#" xmlns:xlink="http://www.w3.org/1999/xlink">
<metadata>
<rdf:RDF>
<cc:Work rdf:about="">
<dc:format>image/svg+xml</dc:format>
<dc:type rdf:resource="http://purl.org/dc/dcmitype/StillImage"/>
</cc:Work>
</rdf:RDF>
</metadata>
<g transform="translate(-180.23 -120.95)">
<use transform="matrix(1.7883 0 0 1.7883 180.25 120.95)" width="105.95" height="88.949997" xlink:href="#a"/>
</g>
<defs>
<g id="a" transform="translate(.25 .25)">
<use transform="translate(-.25 -.25)" width="105.95" height="88.949997" xlink:href="#b"/>
</g>
<g id="b" transform="translate(.25 .25)">
<path d="m67.45 38.6q-3.9-3.55-4.75-4.8v-0.15q-0.65-0.2 0.35-0.55 0.65-0.2 0.75 0 8-26.3 19.75-26.3 4.4 0 4.4 6 0 5.5-2.75 10.75 6.05-4 11.6-4 4.95 0 7.15 2.5 1.5 1.7 1.5 4.25 0 7.9-14.3 14.9-5.25 2.55-11 4.2-5.15 1.5-7.45 1.4h-2q0-0.6-0.8-3.1l-0.05-0.15-0.65-1.85-0.15-0.35 0.4-0.95-2-1.8 3.25-10.55 2.5-8.25-2.5 8.25-3.25 10.55m18.75-10.05-2.8 4.3-5.25 8.1-8.3 2.6 8.3-2.6 5.25-8.1 2.8-4.3m12 1.25-14.8 3.05 14.8-3.05m-14.75-8.75-12.75 7 12.75-7m3 17.25-8.3 2.65 8.3-2.65m-1.25-14.75q-3.55 2.35-7.3 6.1-3.65 3.6-6.4 7.5l-2.05 3.25 2.05-3.25q2.75-3.9 6.4-7.5 3.75-3.75 7.3-6.1" fill="#d1f1e8" fill-rule="evenodd"/>
<path d="m67.45 38.6q-3.9-3.55-4.75-4.8v-0.15q-0.65-0.2 0.35-0.55 0.65-0.2 0.75 0 8-26.3 19.75-26.3 4.4 0 4.4 6 0 5.5-2.75 10.75 6.05-4 11.6-4 4.95 0 7.15 2.5 1.5 1.7 1.5 4.25 0 7.9-14.3 14.9-5.25 2.55-11 4.2-5.15 1.5-7.45 1.4h-2q0-0.6-0.8-3.1l-0.05-0.15-0.65-1.85-0.15-0.35-0.6-1.05m1.4 3.25 8.3-2.6 5.25-8.1 2.8-4.3m-17.15 12.8 0.4-0.95-2-1.8-0.2 0.6m2.2 1.2 2.05-3.25q2.75-3.9 6.4-7.5 3.75-3.75 7.3-6.1m-7.05 17.4 8.3-2.65m-19 0.3 3.25-10.55 2.5-8.25m-2.5 8.25 12.75-7m-0.05 11.8 14.8-3.05" fill="none" stroke="#000" stroke-linecap="round" stroke-linejoin="round" stroke-opacity=".4" stroke-width=".5"/>
<path d="m41 4q-0.65 0.6-1.5 0.6-0.95 0-1.65-0.7-0.65-0.65-0.65-1.6t0.65-1.65q0.7-0.65 1.65-0.65t1.6 0.65q0.7 0.7 0.7 1.65v0.3l-0.05 0.25-0.55 1-0.1 0.05-0.1 0.1m-36.55 10.1q-0.3 0.85-1 1.25l-1.8 0.25q-0.85-0.25-1.35-1.1-0.45-0.8-0.25-1.7 0.25-0.9 1.1-1.4l1.7-0.25q0.95 0.25 1.4 1.05l0.15 0.3 0.15 0.25v1.1l-0.1 0.1v0.15" fill="#79e9f4" fill-rule="evenodd"/>
<path d="m41.75 2.85q14.5 7.55 16.65 22.55l0.15 1.35 0.15 2.3q-0.7 2.35-2.35 1.25 0.15-2.5-0.1-4.85l-0.1-1.05q-1.8-12.55-15.15-20.4l0.1-0.1 0.1-0.05 0.55-1" fill="#92dcc5" fill-rule="evenodd"/>
<path d="m58.4 25.4 3.6 1.65 8.4 2.75-4.65-0.25-0.5 1.9h-3.75l-2.6-4.5-0.35-0.2 0.35 0.2 2.6 4.5-4.25 1.35-4.5 3.9-1.5 3.65-4.65 4.85-10.95 3.6-6-1.85-5.85 1.85 1.45 1.25 2.15 0.25 4.1 4.3 1.5 1.6 0.8 2.95-1.75 0.65-3.75-4.75-0.45-0.25-2.55-1.5-2.25 2.1-2.4-2.45-0.9-6.75 0.5-2.65 9.5-16.75 0.55-0.5 1.05-0.95 0.9-0.9 7.5-1.9 13.4 1.1 1.75 0.15 1.25 0.6 0.1 1.05-3.1-1.8 3.1 1.8q0.25 2.35 0.1 4.85 1.65 1.1 2.35-1.25l-0.15-2.3-0.15-1.35m-17.9 62.7-1-0.4 0.5-1.65 0.1-0.4 0.9-1.6 1.9-0.05-2.4 4.1m-8.2-1.3-0.3-0.1-0.75-0.9 0.8-0.45 0.2-0.15 1.1-1.3 0.4-0.45 2.5-0.75-1 1.85-2.95 2.25m-6.9-2-1.15-0.5 0.55-0.75 0.95-1.5 0.9-0.85h2l-3.25 3.6m-7.5-1.2-1.25-0.55v-1.25l1.35-0.85 1-1.45 0.4-0.55 0.75-0.65 1.75 0.9-4 4.4m29-32.05h2.85l4.15 0.75-4.5 4.35-2.45-1.15-4.15 0.8-4.15 3.75-3-1.15v-2.1h1.6l1.6-1.25 4.05-3.35 4-0.65m5.35 12.4 0.65 5.35-1.9 4.5-4.75 2.4h-3l-2.05-2.85-0.85-3.65 0.5 0.75 0.75 0.9 1.7 1.25 2.4 0.15q1.05-0.25 2.1-1.4l0.5-0.75q1.6-2.4 2.05-5.55 0.4-2.7-0.75-4.65l2.65 3.55m-17.25 5 1.4 2.1-1.5 1.4-3.15-1.6-0.85-1.9h4.1m-5.2-7.15 0.9 4 0.05 0.25-1 3.4-0.5 0.9-2.6 0.45-0.7-0.4-1.8-0.95-0.2-3.8q0.2 1.15 0.7 2.1 0.9 1.9 2.25 1.9 1.3 0 2.25-1.9 0.95-1.85 0.85-4.4l-0.2-1.55" fill="#d9d9b7" fill-rule="evenodd"/>
<path d="m70.4 29.8 2.65 6.95 1.35 3.65-0.75 2.15-1.9 2.9 1.75 4.6-3.1 4.9-3.5 1.6-2-1.2-1.9-1.15-1.6-2.65-2.65-0.85 1.4 3v2.6l-0.9 2.65 0.75 2.6 1.5 1.65h2.15l2.1-1.5 2.25 0.75 0.8 1.05h2.6l3-2.05 1.35 0.25 0.5 2-4.6 3.75-1.9-1.15h-4.5l-1.1 2.15h-2.15l-3.6 3.35v3.25l-1.75 2.25-3.4 0.9-3.1-0.65-3.25 1.15-2.85-0.8-1.25-1.95 0.45 0.25h3l4.75-2.4 1.9-4.5-0.65-5.35-0.6-4.9-2.25-2.4 4.5-4.35-4.15-0.75h-2.85l-3.75-1.1-5.15 2.85h-4.5l-3.85-3.6-4.4 0.35-1.45-1.25 5.85-1.85 6 1.85 10.95-3.6 4.65-4.85 1.5-3.65 4.5-3.9 4.25-1.35h3.75l0.5-1.9 4.65 0.25m-51.25 47.1 2.1-0.95 1.75-2.65 2 3.4v-3.5l0.95-2.8 0.7 0.4 2.6-0.45-1.85 2.95 0.1 2.15 0.9-1.25 1.45-1.4 0.35 0.35 0.7 2.3 2.2 2.85-1.85 2.75-3.35-0.75-0.65-1.1-3-0.65-2.25-1.1-0.95 0.45-1.9-1m-0.4-11.1 1-3.1 1.5-0.65 1.4-2.35-2-6.75 2.4 2.45v4.15l-0.65 3.5 0.65 3.5 0.85 2.25-1.65-1.25-3.5-1.75m42.75-34.35v7.6l1.5 5-0.5 3.9 1.25 1.75 1.15 5.5v0.15-0.15l-1.15-5.5-1.25-1.75 0.5-3.9-1.5-5v-7.6m5.4 21.4-2 2.35 2-2.35-3.15-3.15 3.15 3.15 2-2.4 0.6-5.15 3.5-4.5 0.05-4.05-0.05 4.05-3.5 4.5-0.6 5.15-2 2.4m-39.05 1.95 0.45 0.25 3.75 4.75 1.75-0.65-0.8-2.95-1.5-1.6 3.75 1.45 3.6-0.5-1.6 1.25h-1.6v2.1l3 1.15-3.35 3.75-0.3 5.15h-4.1l-1.15 0.5 1-3.4-0.05-0.25 0.35-3-0.65-3.9-2.55-4.1m8.55 16.25 1 4.35-1 2.15-2.5-1.2-0.25-1-1.9-4.5 3.15 1.6 1.5-1.4" fill="#cc9" fill-rule="evenodd"/>
<path d="m74.4 40.4 3.6 9.55v5l1 4.75-1 1.5v2.25l-3.6 4.1v1.65l-0.4 2.1-0.1 0.5-1.75 3.75-2.75 1.15-0.75-1.9-2.75-1.35-1.75 0.75-2.15 0.5-1.1 1.75 0.6-2.75 1.15-2.15h1.6l0.65-0.55 0.15-0.2 1-0.95 2.45-0.8-2.45 0.8-1 0.95-0.15 0.2-0.65 0.55h-1.6l-1.15 2.15-0.6 2.75 1.6 3.25-0.6 2.85-2.5 0.45-1.4 1.55-3.6 0.4-1.25-1.75-2.65-1.15-2.25 0.5-0.6 2.4h-1.4l-0.7 1.5-0.15 0.3h-1.3l-0.35 0.95-2.35 0.75-0.9-0.35 2.4-4.1-1.9 0.05-0.45 0.8-2.85 0.15 0.3-0.7-1.75-1.6 1.75 1.6-0.3 0.7-0.35 0.8-0.95 1.9h-1l-0.85-0.75-0.9 0.35-1.35-0.5 2.95-2.25 1-1.85-2.5 0.75-0.4 0.45h-1.35l-1.8-0.95 0.2-0.4-1.75-1.35 1.75 1.35-0.2 0.4-0.95 1.85-0.35 0.65h-1.65l-0.5-0.65h-1.35l3.25-3.6h-2l-0.9 0.85-1.5-0.6-0.9-0.65 0.3-1.6h-1.75 1.75l-0.3 1.6-0.1 0.5-0.65 1.6-0.45 1.15h-1l-0.8-0.9-0.45 0.3v1l-2-0.85 4-4.4-1.75-0.9-0.75 0.65-0.4 0.55-0.25-2.45 0.4-0.15 1.9 1 0.95-0.45 2.25 1.1 3 0.65 0.65 1.1 3.35 0.75 1.85-2.75-2.2-2.85-0.7-2.3 3.85 3.65-0.15-0.45 2.5 1.2 1-2.15-1-4.35-1.4-2.1 0.3-5.15 3.35-3.75 4.15-3.75 4.15-0.8 2.45 1.15 2.25 2.4 0.6 4.9-2.65-3.55-0.4-0.65q-0.95-1.2-2.05-1.6l-1.85-0.1q-2.25 0.5-4 2.2-1.8 1.65-1.8 5.05 0 2.7 0.85 4.4l0.85 3.65 2.05 2.85-0.45-0.25 1.25 1.95 2.85 0.8 3.25-1.15 3.1 0.65 3.4-0.9 1.75-2.25v-3.25l3.6-3.35h2.15l1.1-2.15h4.5l1.9 1.15 4.6-3.75-0.5-2-1.35-0.25-3 2.05h-2.6l-0.8-1.05-2.25-0.75-2.1 1.5h-2.15l-1.5-1.65-0.75-2.6 0.9-2.65v-2.6l-1.4-3 2.65 0.85 1.6 2.65 1.9 1.15 2 1.2 3.5-1.6 3.1-4.9-1.75-4.6 1.9-2.9 0.75-2.15m-51.4 32.9-0.85-3-3.4-4.5 3.5 1.75 1.65 1.25-0.85-2.25-0.65-3.5 0.65-3.5v-4.15l2.25-2.1 2.55 1.5 2.55 4.1 0.65 3.9-0.35 3-0.9-4v-0.1l-0.1-0.35q-0.3-1.3-0.95-2.3-1.1-1.75-2.15-2t-1.95 1.6q-0.95 1.9-0.95 4.6 0 1.05 0.15 2l0.1 0.4 0.2 3.8 1.8 0.95-0.95 2.8v3.5l-2-3.4m2.25-23.25 4.4-0.35 3.85 3.6h4.5l5.15-2.85 3.75 1.1-4 0.65-4.05 3.35-3.6 0.5-3.75-1.45-4.1-4.3-2.15-0.25m18.85 36.7 0.3-0.95-1-1.85-0.5 0.05 0.5-0.05 1 1.85-0.3 0.95m-22.6-4.45-1.15 0.85 1.15-0.85m39.25-0.85-1.35 1.55 1.35-1.55m-25.25 5.1-0.95 0.4 0.95-0.4m29.4-31.2-0.75 4.7-2.15 3.15 2.15-3.15 0.75-4.7" fill="#b0af68" fill-rule="evenodd"/>
<path d="m30.3 26.3q-6.85-12-25.85-12.2v-0.15l0.1-0.1v-1.1q18.7-0.15 26.8 12.6l-1.05 0.95" fill="#33a280" fill-rule="evenodd"/>
<path d="m40.35 69.7q-0.85-1.7-0.85-4.4 0-3.4 1.8-5.05 1.75-1.7 4-2.2l1.85 0.1q1.1 0.4 2.05 1.6l0.4 0.65q1.15 1.95 0.75 4.65-0.45 3.15-2.05 5.55l-0.5 0.75q-1.05 1.15-2.1 1.4l-2.4-0.15-1.7-1.25-0.75-0.9-0.5-0.75m-6.45 6.65 0.15 0.45-3.85-3.65-0.35-0.35-1.45 1.4-0.9 1.25-0.1-2.15 1.85-2.95 0.5-0.9 1.15-0.5 0.85 1.9 1.9 4.5 0.25 1m-10.05-11.1q-0.15-0.95-0.15-2 0-2.7 0.95-4.6 0.9-1.85 1.95-1.6t2.15 2q0.65 1 0.95 2.3l0.1 0.35v0.1l0.2 1.55q0.1 2.55-0.85 4.4-0.95 1.9-2.25 1.9-1.35 0-2.25-1.9-0.5-0.95-0.7-2.1l-0.1-0.4" fill="#663" fill-rule="evenodd"/>
<path d="m74 71.3q6.15 0.65 10.6 2.05 5.35 1.7 5.8 3.45-1.35 1.35-9 2.35l-12 1.4-0.75 0.25 1.7 1q1.35 0.75 1.8 0.75-0.55 1.3-7.8 2.3l-9.45 0.7h-0.25l0.15 0.15 0.6 0.35v0.05l-5.4 0.45-4.45-0.1 0.7-1.5h1.4l0.6-2.4 2.25-0.5 2.65 1.15 1.25 1.75 3.6-0.4 1.4-1.55 2.5-0.45 0.6-2.85-1.6-3.25 1.1-1.75 2.15-0.5 1.75-0.75 2.75 1.35 0.75 1.9 2.75-1.15 1.75-3.75 0.1-0.5m-34 14.75-2.65-0.25 0.35-0.8 2.85-0.15-0.45 0.8-0.1 0.4m-7.95-0.7-0.4-0.05-2.4-0.5 0.95-1.85 1.8 0.95h1.35l-1.1 1.3-0.2 0.15m-7.25-1.8-2.2-0.65 0.65-1.6 0.1-0.5 0.9 0.65 1.5 0.6-0.95 1.5" fill-opacity=".2902" fill-rule="evenodd"/>
<path d="m41 4q-0.65 0.6-1.5 0.6-0.95 0-1.65-0.7-0.65-0.65-0.65-1.6t0.65-1.65q0.7-0.65 1.65-0.65t1.6 0.65q0.7 0.7 0.7 1.65v0.3l-0.05 0.25q14.5 7.55 16.65 22.55l3.6 1.65 8.4 2.75 2.65 6.95 1.35 3.65 3.6 9.55v5l1 4.75-1 1.5v2.25l-3.6 4.1v1.65l-0.4 2.1m-28.45 15.15-0.15 0.3h-1.3l-0.35 0.95-2.35 0.75-0.9-0.35-1-0.4 0.5-1.65m-2.65-0.25-0.95 1.9h-1l-0.85-0.75-0.9 0.35-1.35-0.5-0.3-0.1-0.75-0.9 0.8-0.45m-2.8-0.55-0.35 0.65h-1.65l-0.5-0.65h-1.35l-1.15-0.5 0.55-0.75 0.95-1.5 0.9-0.85h2l1.75 1.35-0.2 0.4 1.8 0.95h1.35l0.4-0.45 2.5-0.75 1.75 1.6-0.3 0.7 2.85-0.15 0.45-0.8 1.9-0.05 0.5-0.05 1 1.85-0.3 0.95m-21.5-3.85-0.45 1.15h-1l-0.8-0.9-0.45 0.3v1l-2-0.85-1.25-0.55v-1.25l1.35-0.85 1-1.45-0.25-2.45 0.4-0.15 2.1-0.95 1.75-2.65-0.85-3-3.4-4.5 1-3.1 1.5-0.65 1.4-2.35-2-6.75-0.9-6.75 0.5-2.65 9.5-16.75 0.55-0.5q-6.85-12-25.85-12.2-0.3 0.85-1 1.25l-1.8 0.25q-0.85-0.25-1.35-1.1-0.45-0.8-0.25-1.7 0.25-0.9 1.1-1.4l1.7-0.25q0.95 0.25 1.4 1.05l0.15 0.3 0.15 0.25q18.7-0.15 26.8 12.6l0.9-0.9 7.5-1.9 13.4 1.1 1.75 0.15 1.25 0.6q-1.8-12.55-15.15-20.4l0.1-0.1 0.1-0.05 0.55-1m16.65 22.55 0.15 1.35 0.35 0.2 2.6 4.5m-5.25-6-3.1-1.8m3.1 1.8-0.1-1.05m2.4 2.35 0.15 2.3m-2.35 1.25q0.15-2.5-0.1-4.85m8.65 29.9v-0.15l-1.15-5.5-1.25-1.75 0.5-3.9-1.5-5v-7.6m7.65 32.05h-0.35l-0.8-1.05-2.25-0.75-2.1 1.5h-2.15l-1.5-1.65-0.75-2.6 0.9-2.65v-2.6l-1.4-3m5-1 3.15 3.15 2-2.4 0.6-5.15 3.5-4.5 0.05-4.05m-8.15 18.45 2-2.35m-33.9 3.35-1.5-1.6-4.1-4.3-2.15-0.25m13.6 5.5 4.05-3.35 4-0.65m-15.55-26.2-1.05 0.95m10.05 43.4q-0.85-1.7-0.85-4.4 0-3.4 1.8-5.05 1.75-1.7 4-2.2l1.85 0.1q1.1 0.4 2.05 1.6l0.4 0.65q1.15 1.95 0.75 4.65-0.45 3.15-2.05 5.55l-0.5 0.75q-1.05 1.15-2.1 1.4l-2.4-0.15-1.7-1.25-0.75-0.9-0.5-0.75m-1.5-14.15-3.6 0.5-3.75-1.45m5.75 2.2 1.6-1.25m-4.95 20.8 0.15 0.45-3.85-3.65-0.35-0.35-1.45 1.4-0.9 1.25-0.1-2.15 1.85-2.95 0.5-0.9 1.15-0.5 0.85 1.9 1.9 4.5 0.25 1m-10.05-11.1q-0.15-0.95-0.15-2 0-2.7 0.95-4.6 0.9-1.85 1.95-1.6t2.15 2q0.65 1 0.95 2.3m0.1 0.35v0.1l0.2 1.55q0.1 2.55-0.85 4.4-0.95 1.9-2.25 1.9-1.35 0-2.25-1.9-0.5-0.95-0.7-2.1m-4.95 13.85 0.4-0.55 0.75-0.65 1.75 0.9h1.75l-0.3 1.6 0.9 0.65 1.5 0.6m4.45 0.9-0.95 1.85m-5.9-4-0.1 0.5-0.65 1.6m-2.25 0.25 1.15-0.85m24.05 4.15 0.7-1.5h1.4l0.6-2.4 2.25-0.5 2.65 1.15 1.25 1.75 3.6-0.4 1.4-1.55 1.35-1.55m-23.4 4.35 0.35-0.8m2.85-0.15-0.45 0.8-0.1 0.4m-6.65-2.15-1.1 1.3-0.2 0.15m2.5 1.6 0.95-0.4m25.4-10.1 1.1-1.75 2.15-0.5 1.75-0.75 2.75 1.35 0.75 1.9 2.75-1.15 1.75-3.75 0.1-0.5m-12-8.1 2.15-3.15 0.75-4.7m-4 21.1 0.6-2.75 1.15-2.15h1.6l0.65-0.55 0.15-0.2 1-0.95 2.45-0.8m-9.1 13.95 2.5-0.45 0.6-2.85-1.6-3.25m-56.35-63.7v1.1l-0.1 0.1v0.15" fill="none" stroke="#000" stroke-linecap="round" stroke-linejoin="round" stroke-opacity=".4" stroke-width=".5"/>
<path d="m29.7 61.35 0.1 0.35" fill="none" stroke="#f39" stroke-linecap="round" stroke-linejoin="round" stroke-width=".05"/>
<path d="m31.25 45q2.35-0.4 4.45-1.8 4.65-3.1 6.9-8.3 0.9-2.15 0.65-3.8 1.9 1.9 0.6 6.4-2.35 6.95-10.4 9.8l-2.2-2.3" fill="#900" fill-rule="evenodd"/>
<path d="m43.25 31.1q0.25 1.65-0.65 3.8-2.25 5.2-6.9 8.3-2.1 1.4-4.45 1.8-2.55-3.45-2.9-8.65 0.85-5.9 4.85-6.85 2.15-0.65 4.2 2.45 2.45-2.15 4.7-1.65l1.15 0.8" fill="#c00" fill-rule="evenodd"/>
<path d="m31.25 45 2.2 2.3q8.05-2.85 10.4-9.8 1.3-4.5-0.6-6.4l-1.15-0.8q-2.25-0.5-4.7 1.65-2.05-3.1-4.2-2.45-4 0.95-4.85 6.85 0.35 5.2 2.9 8.65z" fill="none" stroke="#000" stroke-linecap="round" stroke-linejoin="round" stroke-opacity=".4" stroke-width=".5"/>
</g>
</defs>
</svg>
