<?xml version="1.0" encoding="UTF-8"?>
<svg version="1.1" viewBox="0 0 132.33 120.98" xmlns="http://www.w3.org/2000/svg" xmlns:cc="http://creativecommons.org/ns#" xmlns:dc="http://purl.org/dc/elements/1.1/" xmlns:rdf="http://www.w3.org/1999/02/22-rdf-syntax-ns#" xmlns:xlink="http://www.w3.org/1999/xlink">
<metadata>
<rdf:RDF>
<cc:Work rdf:about="">
<dc:format>image/svg+xml</dc:format>
<dc:type rdf:resource="http://purl.org/dc/dcmitype/StillImage"/>
</cc:Work>
</rdf:RDF>
</metadata>
<g transform="translate(-208.55 -139.95)">
<use transform="matrix(1.7883 0 0 1.7883 208.55 139.95)" width="74" height="67.650002" xlink:href="#a"/>
</g>
<defs>
<g id="a" transform="translate(.25 .25)">
<use transform="translate(-.25 -.25)" width="74" height="67.650002" xlink:href="#b"/>
</g>
<g id="b" transform="translate(.25 .25)">
<path d="m62.25 12.8 0.7 1.55v4.5l-2 2.4-2.05 0.95 2.45 6.45v5l1 4.75-1 1.5v2.25l-3.6 4.1v1.65l-0.4 2.1-0.1 0.5-1.75 3.75-2.75 1.15-0.75-1.9-2.75-1.35-1.75 0.75-2.15 0.5-1.1 1.75 0.6-2.75 1.15-2.15h1.6l0.65-0.6 0.15-0.15 1-0.95 2.45-0.8-2.45 0.8-1 0.95-0.15 0.15-0.65 0.6h-1.6l-1.15 2.15-0.6 2.75 1.6 3.25-0.6 2.85-2.5 0.45-1.4 1.55-3.6 0.4-1.25-1.75-2.65-1.15-2.25 0.5-0.6 2.4h-1.4l-0.7 1.5-0.15 0.3h-1.3l-0.35 0.95-2.35 0.75-0.9-0.35 2.4-4.1 0.5-0.05 1 1.85-0.3 0.95 0.3-0.95-1-1.85-0.5 0.05-1.9 0.05-0.45 0.8-2.85 0.15-0.35 0.8-0.95 1.9h-1l-0.85-0.75-0.9 0.35-1.35-0.5 2.95-2.25 1-1.85 1.75 1.6-0.3 0.7 0.3-0.7-1.75-1.6-2.5 0.75-0.4 0.45h-1.35l-1.8-0.95 0.2-0.4-1.75-1.35 1.75 1.35-0.2 0.4-0.95 1.85-0.35 0.65h-1.65l-0.5-0.65h-1.35l3.25-3.6h-2l-0.9 0.85-1.5-0.6-0.9-0.65 0.3-1.6h-1.75 1.75l-0.3 1.6-0.1 0.5-0.6 1.6-0.5 1.15h-1l-0.8-0.9-0.45 0.3v1l-2-0.85 4-4.4-1.75-0.9-0.75 0.65-0.4 0.55-0.25-2.45 0.4-0.15 1.9 1 0.95-0.45 2.25 1.1 3 0.65 0.65 1.1 3.35 0.75 1.85-2.75-2.2-2.85-0.7-2.3 3.85 3.65-0.15-0.45 2.5 1.2 1-2.15-1-4.35-1.4-2.1 0.3-5.15 0.9-0.95 0.3 6.3 3.75 5.75 2.8 1 0.2 0.3-0.45-0.25 1.25 1.95 2.85 0.8 3.25-1.15 3.1 0.65 3.4-0.9 1.75-2.25v-3.25l3.6-3.35h2.15l1.1-2.15h4.5l1.9 1.15 4.6-3.75-0.5-2-1.35-0.25-3 2.05h-2.6l-0.8-1.05-2.25-0.75-2.1 1.5h-2.15l-1.5-1.65-0.75-2.6 0.9-2.65v-2.6l-1.4-3 2.65 0.85 1.6 2.65 1.9 1.15 2 1.2 3.5-1.6 3.1-4.9-1.75-4.6 0.25-0.35 0.5-2.2 4-3 2.4-5.8m-55.9 39.2-0.85-3-3.4-4.5 5.75 5.35 1.25-0.2-0.75 2.25v3.5l-2-3.4m49.55-42.3 1.05 0.3-0.1 1.6h-3.25l-1.9 1.4v-2.65l3-1 1.2 0.35v1.9-1.9m-0.55 14.1 3.55-1.6-3.55 1.6m-10 18.1 2.15-3.15 0.75-4.7-0.75 4.7-2.15 3.15m-23.8-10-1.15 2.6-1.8 0.25-3.75-1.45-0.6-0.6-0.6-3.7 3.2 3h4.5l0.2-0.1m22.55 28.25-1.35 1.55 1.35-1.55m-39.25 0.85-1.15 0.85 1.15-0.85m14 4.25-0.95 0.4 0.95-0.4" fill="#b0af68" fill-rule="evenodd"/>
<path d="m61.2 10.4 1.05 2.4-2.4 5.8-4 3-0.5 2.2-0.25 0.35 1.75 4.6-3.1 4.9-3.5 1.6-2-1.2v-0.15l2-2.35 2-2.4 0.6-5.15v-3.85l1.6-2.15 1.95-0.2 0.85-0.1-0.85 0.1-1.95 0.2-1.6 2.15v3.85l-0.6 5.15-2 2.4-2 2.35v0.15l-1.9-1.15-1.6-2.65-2.65-0.85 1.4 3v2.6l-0.9 2.65 0.75 2.6 1.5 1.65h2.15l2.1-1.5 2.25 0.75 0.8 1.05h2.6l3-2.05 1.35 0.25 0.5 2-4.6 3.75-1.9-1.15h-4.5l-1.1 2.15h-2.15l-3.6 3.35v3.25l-1.75 2.25-3.4 0.9-3.1-0.65-3.25 1.15-2.85-0.8-1.25-1.95 0.45 0.25h0.6l1.25 0.45 5.9-1.75 5.35-6 1.4-8.6v-8l-3.4-8.25-5.45-1.25 2.35-2.45 1.5-3.65 4.5-3.9 4.25-1.35h3.75l0.5-1.9 4.65 0.25v0.05l2 0.2 0.15 0.25-0.15-0.25h2.2l3.25 1.65m-58.7 45.2 2.1-0.95 1.75-2.65 2 3.4v-3.5l0.75-2.25 2.05-0.35 1.45-0.25-1.85 2.95 0.1 2.15 0.9-1.25 1.45-1.4 0.35 0.35 0.7 2.3 2.2 2.85-1.85 2.75-3.35-0.75-0.65-1.1-3-0.65-2.25-1.1-0.95 0.45-1.9-1m4.45-39.25-1.35-0.6-2.75-3h2.35l1.15-2v-2.9l1.55-2.95 1.55-0.7 2.25-1.1 2.65 1.25-1.25 1.15-0.35 0.65-1.05-0.3-1.2 0.75-1.05-2.25v-0.15 0.15l1.05 2.25-1.15 0.75-0.75 3.15 1 1.25-2.65 4.6m48.95-6.65v-0.7l0.15-0.25-0.15 0.25v0.7l-1.2-0.35-3 1v2.65l1.9-1.4h1.35l1.45 3.85 0.85 2.25 1.35-1.45v-1.65l-1.75-3 0.1-1.6-1.05-0.3m-5.65 21.85-3.15-3.15-1.25-1.75 0.5-3.9-1.5-5v-7.6 7.6l1.5 5-0.5 3.9 1.25 1.75 3.15 3.15m6.15-13.75v-2.35 2.35m-36.85 23.75-0.9 0.95-0.3 5.15h-4.1l-1.15 0.5 0.4-1.25 0.7-0.8 2-6.5-0.25-1.3 1.2-0.45-0.8-2.95-1.5-1.6 3.75 1.45 3.6-0.5-1.6 1.25h-1.6v2.1l1 0.4-0.55 2.1 0.1 1.45m0.2 8.2 1 4.35-1 2.15-2.5-1.2-0.25-1-1.9-4.5 3.15 1.6 1.5-1.4m27.35-21.35 1.15 5.5-1.15-5.5m-21.4-3.1-2.75 3.45-1.4 3.15-0.2 0.1h-4.5l-3.2-3-0.3-1.75-1.1-1.35 0.75-0.25 6 1.85 6.7-2.2" fill="#cc9" fill-rule="evenodd"/>
<path d="m23.85 66.8-1-0.4 0.5-1.65 0.1-0.4 0.9-1.6 1.9-0.05-2.4 4.1m-8.2-1.3-0.3-0.1-0.75-0.9 0.8-0.45 0.2-0.15 1.1-1.3 0.4-0.45 2.5-0.75-1 1.85-2.95 2.25m-6.9-2-1.15-0.5 0.55-0.75 0.95-1.5 0.9-0.85h2l-3.25 3.6m-7.5-1.2-1.25-0.55v-1.25l1.35-0.85 1-1.45 0.4-0.55 0.75-0.65 1.75 0.9-4 4.4m2.1-35.55-0.25-1.85 0.5-2.65 3.35-5.9 2.65-4.6 3.15-5.6 0.35-0.65 1.25-1.15-2.65-1.25-2.25 1.1-0.1-3.15 0.1 3.15-1.55 0.7-1.55 2.95v2.9l-1.15 2h-2.35l-0.15-0.15v-4.1l2.9-5 3.75-2.45 1.6-1.05 3.9 0.75 2.75 1.9 5.5-1.4 13.4 1.1 1.75 0.15 7.1 3.25 4.05 1.35 2.05-1.5h4.25l4.4 2.4 1.1 2.4-3.25-1.65h-2.2l-2-0.2v-0.05l-4.65-0.25-0.5 1.9h-3.75l-2.6-4.5-5.75-3.3 5.75 3.3 2.6 4.5-4.25 1.35-4.5 3.9-1.5 3.65-2.35 2.45-5.4 2.35-1.15 1.45-6.7 2.2-6-1.85-0.75 0.25-2.3-2.9-4.25-1.15-2.35 4.9m50.2-21.15 2.2 3.15-2.2-3.15m3.8 0.9-1.3 2.25 1.3-2.25m-7.95 0.6-2.2 1.5 2.2-1.5m-22.8 47.8-0.2-0.3 0.8 0.3h-0.6m-8.25-7.25 1.4 2.1-1.5 1.4-3.15-1.6-0.85-1.9h4.1m-4-43.3 1.25-1.2 2-0.5-2 0.5-1.25 1.2m0.5 28.95 1.5 1.6 0.8 2.95-1.2 0.45-1.1-5m-1.35 13.6-0.4 1.25-0.5 0.9-1.45 0.25 2.35-2.4m6.5-8.9-1-0.4v-2.1h1.6l-0.6 2.5" fill="#d9d9b7" fill-rule="evenodd"/>
<path d="m2.1 44.5 1-3.1 1.5-0.65 1.4-2.35-2-6.75 2.4 2.45 2.25-2.1 3 1.75 3.75 4.75 0.55-0.2 0.25 1.3-2 6.5-0.7 0.8 0.6-2.15-0.95-4.25v-0.1l-0.1-0.35q-0.3-1.3-0.95-2.3-1.1-1.75-2.15-2t-1.95 1.6q-0.95 1.9-0.95 4.6l0.25 2.4 0.2 3.8 1.8 0.95-0.2 0.55-1.25 0.2-5.75-5.35m24.3 10.1-2.8-1-3.75-5.75-0.3-6.3-0.1-1.45 0.55-2.1 2 0.75 4.15-3.75 4.15-0.8 2.45 1.15 4.5-4.35-4.15-0.75h-2.85l-4 0.65-4.05 3.35-1.8 0.25 1.15-2.6 1.4-3.15 2.75-3.45 4.25-1.4 2.3-2.4 5.45 1.25 3.4 8.25v8l-1.4 8.6-5.35 6-5.9 1.75-1.25-0.45h2.4l4.75-2.4 1.9-4.5-0.65-5.35-2.65-3.55-0.4-0.65q-0.95-1.2-2.05-1.6l-1.85-0.1q-2.25 0.5-4 2.2-1.8 1.65-1.8 5.05 0 2.7 0.85 4.4l0.85 3.65 1.85 2.55m-14.15-28.7 1.1 1.35 0.3 1.75 0.6 3.7-3.5-3.7-2.15-0.25-1.45-1.25 5.1-1.6" fill-rule="evenodd"/>
<path d="m4 31.65-0.65-4.9 2.35-4.9 4.25 1.15 2.3 2.9-5.1 1.6 1.45 1.25 2.15 0.25 3.5 3.7 0.6 0.6 1.1 5-0.55 0.2-3.75-4.75-3-1.75-2.25 2.1-2.4-2.45m28.25-10.15-2.3 2.4-4.25 1.4 1.15-1.45 5.4-2.35m-10.05 12.75 4.05-3.35 4-0.65h2.85l4.15 0.75-4.5 4.35-2.45-1.15-4.15 0.8-4.15 3.75-2-0.75 0.6-2.5 1.6-1.25m-9.05 6.25 0.95 4.25-0.6 2.15-2.35 2.4-2.05 0.35 0.2-0.55-1.8-0.95-0.2-3.8q0.2 1.15 0.7 2.1 0.9 1.9 2.25 1.9 1.3 0 2.25-1.9 0.95-1.85 0.85-4.4l-0.2-1.55m10.55 7.9 0.5 0.75 0.75 0.9 1.7 1.25 2.4 0.15q1.05-0.25 2.1-1.4l0.5-0.75q1.6-2.4 2.05-5.55 0.4-2.7-0.75-4.65l2.65 3.55 0.65 5.35-1.9 4.5-4.75 2.4h-2.4l-0.8-0.3-1.85-2.55-0.85-3.65" fill="#333" fill-rule="evenodd"/>
<path d="m7.3 44.35-0.25-2.4q0-2.7 0.95-4.6 0.9-1.85 1.95-1.6t2.15 2q0.65 1 0.95 2.3l0.1 0.35v0.1l0.2 1.55q0.1 2.55-0.85 4.4-0.95 1.9-2.25 1.9-1.35 0-2.25-1.9-0.5-0.95-0.7-2.1m25.65-5.25q1.15 1.95 0.75 4.65-0.45 3.15-2.05 5.55l-0.5 0.75q-1.05 1.15-2.1 1.4l-2.4-0.15-1.7-1.25-0.75-0.9-0.5-0.75q-0.85-1.7-0.85-4.4 0-3.4 1.8-5.05 1.75-1.7 4-2.2l1.85 0.1q1.1 0.4 2.05 1.6l0.4 0.65" fill="#ccc" fill-rule="evenodd"/>
<path d="m17.25 55.05 0.15 0.45-3.85-3.65-0.35-0.35-1.45 1.4-0.9 1.25-0.1-2.15 1.85-2.95 0.5-0.9 1.15-0.5 0.85 1.9 1.9 4.5 0.25 1" fill="#663" fill-rule="evenodd"/>
<path d="m57.35 50q6.15 0.65 10.6 2.05 5.35 1.7 5.8 3.45-1.35 1.35-9 2.35l-12 1.4-0.75 0.25 1.7 1q1.35 0.75 1.8 0.75-0.55 1.3-7.8 2.3l-9.45 0.7h-0.25l0.75 0.5v0.05l-5.4 0.45-4.45-0.1 0.7-1.5h1.4l0.6-2.4 2.25-0.5 2.65 1.15 1.25 1.75 3.6-0.4 1.4-1.55 2.5-0.45 0.6-2.85-1.6-3.25 1.1-1.75 2.15-0.5 1.75-0.75 2.75 1.35 0.75 1.9 2.75-1.15 1.75-3.75 0.1-0.5m-34 14.75-2.65-0.25 0.35-0.8 2.85-0.15-0.45 0.8-0.1 0.4m-7.95-0.7-0.4-0.05-2.4-0.5 0.95-1.85 1.8 0.95h1.35l-1.1 1.3-0.2 0.15m-7.25-1.8-2.15-0.65 0.6-1.6 0.1-0.5 0.9 0.65 1.5 0.6-0.95 1.5" fill-opacity=".2902" fill-rule="evenodd"/>
<path d="m61.2 10.4 1.05 2.4 0.7 1.55v4.5l-2 2.4-2.05 0.95 2.45 6.45v5l1 4.75-1 1.5v2.25l-3.6 4.1v1.65l-0.4 2.1m-28.45 15.15-0.15 0.3h-1.3l-0.35 0.95-2.35 0.75-0.9-0.35-1-0.4 0.5-1.65m-2.65-0.25-0.95 1.9h-1l-0.85-0.75-0.9 0.35-1.35-0.5-0.3-0.1-0.75-0.9 0.8-0.45m-2.8-0.55-0.35 0.65h-1.65l-0.5-0.65h-1.35l-1.15-0.5 0.55-0.75 0.95-1.5 0.9-0.85h2l1.75 1.35-0.2 0.4 1.8 0.95h1.35l0.4-0.45 2.5-0.75m-13.6 0.2-0.5 1.15h-1l-0.8-0.9-0.45 0.3v1l-2-0.85-1.25-0.55v-1.25l1.35-0.85 1-1.45-0.25-2.45 0.4-0.15 2.1-0.95 1.75-2.65-0.85-3-3.4-4.5 1-3.1 1.5-0.65 1.4-2.35-2-6.75-0.65-4.9-0.25-1.85 0.5-2.65 3.35-5.9-1.35-0.6-2.75-3-0.15-0.15v-4.1l2.9-5 3.75-2.45 1.6-1.05 3.9 0.75 2.75 1.9 5.5-1.4 13.4 1.1 1.75 0.15 7.1 3.25 4.05 1.35 2.05-1.5h4.25l4.4 2.4 1.1 2.4m-5.15-1.65-0.15 0.25v0.7m0.95 1.9 1.75 3v1.65l-1.35 1.45-0.85 0.1-1.95 0.2-1.6 2.15v3.85l-0.6 5.15-2 2.4-2 2.35v0.15l-0.75 4.7-2.15 3.15h1.65l2.1-1.5 2.25 0.75 0.8 1.05h0.35m-0.8-29.2 1.9-1.4h2.3v-1.9m-0.15-0.95-2.2-3.15m2.35 3.4-0.15-0.25m0.3 0 1.3-2.25m-1.45 5.1h0.95m-9.65-3 2.2-1.5m-4.55 3.05-2.6-4.5-5.75-3.3m8.35 7.8v7.6l1.5 5-0.5 3.9 1.25 1.75 3.15 3.15m7-13.85-0.85-2.25v2.35m2.5 4.4-3.55 1.6m1.05-8.35-1.45-3.85m-37.7 43.45 0.15 0.45-3.85-3.65-0.35-0.35-1.45 1.4-0.9 1.25-0.1-2.15 1.85-2.95 0.5-0.9 1.15-0.5 0.85 1.9 1.9 4.5 0.25 1m28.1-13.15h-0.5l-1.5-1.65-0.75-2.6 0.9-2.65v-2.6l-1.4-3m6.15 4.5-1.15-5.5m-2.85 26.75 0.6-2.75 1.15-2.15h1.6l0.65-0.6 0.15-0.15 1-0.95 2.45-0.8m-31.45-13.25 1.8-0.25 4.05-3.35 4-0.65m-12.65-27.6-2 0.5-1.25 1.2-1.25 1.15-0.35 0.65-3.15 5.6-2.65 4.6m3.55-9.75 1.2-0.75 1.05 0.3m-3.4-5.1 0.1 3.15v0.15l1.05 2.25-1.15 0.75-0.75 3.15 1 1.25m-1 17 2.15 0.25 3.5 3.7m0.6 0.6-0.6-0.6m6.15 1.8-1.8 0.25-3.75-1.45 1.5 1.6m-9.05 9.45-0.25-2.4q0-2.7 0.95-4.6 0.9-1.85 1.95-1.6t2.15 2q0.65 1 0.95 2.3l0.1 0.35v0.1l0.2 1.55q0.1 2.55-0.85 4.4-0.95 1.9-2.25 1.9-1.35 0-2.25-1.9-0.5-0.95-0.7-2.1m13.3-8.85 1.6-1.25m10.75 4.85q1.15 1.95 0.75 4.65-0.45 3.15-2.05 5.55l-0.5 0.75q-1.05 1.15-2.1 1.4l-2.4-0.15-1.7-1.25-0.75-0.9-0.5-0.75m9.25-9.3-0.4-0.65q-0.95-1.2-2.05-1.6l-1.85-0.1q-2.25 0.5-4 2.2-1.8 1.65-1.8 5.05 0 2.7 0.85 4.4m5.2 16.75 0.7-1.5h1.4l0.6-2.4 2.25-0.5 2.65 1.15 1.25 1.75 3.6-0.4 1.4-1.55 1.35-1.55m-17.85 2.55 0.5-0.05 1 1.85-0.3 0.95m-3.55-1.9-0.45 0.8-0.1 0.4m0.55-1.2 0.45-0.8 1.9-0.05m-5.55 1.8 0.35-0.8 0.3-0.7-1.75-1.6m1.45 2.3 2.85-0.15m-21.55-5.35 0.4-0.55 0.75-0.65 1.75 0.9h1.75l-0.3 1.6 0.9 0.65 1.5 0.6m-5.4 1.1 1.15-0.85m1.85-1.5-0.1 0.5-0.6 1.6m10.7 1-1.1 1.3-0.2 0.15m2.5 1.6 0.95-0.4m-5.3-3.6-0.95 1.85m31.65-8.35 1.1-1.75 2.15-0.5 1.75-0.75 2.75 1.35 0.75 1.9 2.75-1.15 1.75-3.75 0.1-0.5m-14.6 11.7 2.5-0.45 0.6-2.85-1.6-3.25" fill="none" stroke="#000" stroke-linecap="round" stroke-linejoin="round" stroke-opacity=".4" stroke-width=".5"/>
<path d="m18.8 50.25q0.1 1.45-5.25 1.6l-3.2-1-1.4-1.7 3-1.65 3.75 0.65 3.1 2.1" fill="#333" fill-rule="evenodd"/>
<path d="m8.95 49.15 1.4 1.7 3.2 1q5.35-0.15 5.25-1.6l0.4 2.75q-1.8 0.85-3.65 1.65l-5.5-0.75-1.5-2 0.4-2.75" fill-rule="evenodd"/>
<path d="m18.8 50.25-3.1-2.1-3.75-0.65-3 1.65-0.4 2.75 1.5 2 5.5 0.75q1.85-0.8 3.65-1.65z" fill="none" stroke="#000" stroke-linecap="round" stroke-linejoin="round" stroke-opacity=".4" stroke-width=".5"/>
</g>
</defs>
</svg>
