<?xml version="1.0" encoding="UTF-8"?>
<svg version="1.1" viewBox="0 0 132.33 122.95" xmlns="http://www.w3.org/2000/svg" xmlns:cc="http://creativecommons.org/ns#" xmlns:dc="http://purl.org/dc/elements/1.1/" xmlns:rdf="http://www.w3.org/1999/02/22-rdf-syntax-ns#" xmlns:xlink="http://www.w3.org/1999/xlink">
<metadata>
<rdf:RDF>
<cc:Work rdf:about="">
<dc:format>image/svg+xml</dc:format>
<dc:type rdf:resource="http://purl.org/dc/dcmitype/StillImage"/>
</cc:Work>
</rdf:RDF>
</metadata>
<g transform="translate(-208.55 -138.75)">
<use transform="matrix(1.7883 0 0 1.7883 208.55 138.75)" width="74" height="68.75" xlink:href="#a"/>
</g>
<defs>
<g id="a" transform="translate(.25 .25)">
<use transform="translate(-.25 -.25)" width="74" height="68.75" xlink:href="#b"/>
</g>
<g id="b" transform="translate(.25 .25)">
<path d="m53.75 8.35-4.65-0.25-0.5 1.9h-3.75l-2.6-4.5-5.75-3.3 5.75 3.3 2.6 4.5-4.25 1.35-4.5 3.9-1.5 3.65-4.65 4.85-10.95 3.6-6-1.85-5.85 1.85 1.45 1.25 2.15 0.25 4.1 4.3 1.5 1.6 0.8 2.95-1.75 0.65-3.75-4.75-0.45-0.25-2.55-1.5-2.25 2.1-2.4-2.45-0.9-6.75 0.5-2.65 9.5-16.75 2.5-2.35 7.5-1.9 13.4 1.1 1.75 0.15 7.1 3.25 8.4 2.75m-29.9 58.3-1-0.4 0.45-1.65 0.15-0.4 0.9-1.6 1.9-0.05-2.4 4.1m-8.2-1.3-0.3-0.1-0.75-0.9 0.8-0.45 0.2-0.15 1.1-1.3 0.4-0.45 2.5-0.75-1 1.85-2.95 2.25m-6.9-2-1.15-0.5 0.55-0.75 0.95-1.5 0.9-0.85h2l-3.25 3.6m-7.5-1.2-1.25-0.55v-1.25l1.35-0.85 1-1.45 0.4-0.55 0.75-0.65 1.75 0.9-4 4.4m29-32.05h2.85l4.15 0.75-4.5 4.35-2.45-1.15-4.15 0.8-4.15 3.75-3-1.15v-2.1h1.6l1.6-1.25 4.05-3.35 4-0.65m5.35 12.4 0.65 5.35-0.75 1.8h-3.05l2.55 1.15-0.65 1.55-2.1 1.1-5.65-1.45 3.15 2.7-0.15 0.05h-3l-2.05-2.85-0.85-3.65 0.5 0.75 0.75 0.9 1.7 1.25 2.4 0.15q1.05-0.25 2.05-1.4l0.55-0.75q1.6-2.4 2.05-5.55 0.4-2.7-0.75-4.65l2.65 3.55m-21.55 1.85 0.05 0.25-1 3.4-0.5 0.9-2.6 0.45-0.7-0.4-1.8-0.95-0.2-3.8q0.2 1.15 0.7 2.1 0.9 1.9 2.25 1.9 1.3 0 2.25-1.9 0.95-1.85 0.85-4.4l-0.2-1.55 0.9 4m0.2 3.15h4.1l1.4 2.1-1.5 1.4-3.15-1.6-0.85-1.9" fill="#d9d9b7" fill-rule="evenodd"/>
<path d="m44.85 10h3.75l0.5-1.9 4.65 0.25 2.65 6.95-0.05 4.05-3.5 4.5-0.6 5.15-2 2.4-3.15-3.15-1.25-1.75 0.5-3.9-1.5-5v-7.6 7.6l1.5 5-0.5 3.9 1.25 1.75 3.15 3.15 2-2.4 0.6-5.15 3.5-4.5 0.05-4.05 1.35 3.65-0.75 2.15-1.9 2.9 1.75 4.6-3.1 4.9-3.5 1.6-2-1.2-1.9-1.15-1.6-2.65-2.65-0.85 1.4 3v2.6l-0.9 2.65 0.75 2.6 1.5 1.65h2.15l2.1-1.5 2.25 0.75 0.8 1.05h2.6l3-2.05 1.35 0.25 0.5 2-4.6 3.75-1.9-1.15h-4.5l-1.1 2.15h-2.15l-3.6 3.35v0.15l-2.8-0.85h-3.45l0.75-1.8-0.65-5.35-0.6-4.9-2.25-2.4 4.5-4.35-4.15-0.75h-2.85l-3.75-1.1-5.15 2.85h-4.5l-3.85-3.6-4.4 0.35-1.45-1.25 5.85-1.85 6 1.85 10.95-3.6 4.65-4.85 1.5-3.65 4.5-3.9 4.25-1.35m-42.35 45.45 2.1-0.95 1.75-2.65 2 3.4v-3.5l0.95-2.8 0.7 0.4 2.6-0.45-1.85 2.95 0.1 2.15 0.9-1.25 1.45-1.4 0.35 0.35 0.7 2.3 2.2 2.85-1.85 2.75-3.35-0.75-0.65-1.1-3-0.65-2.25-1.1-0.95 0.45-1.9-1m-0.4-11.1 1-3.1 1.5-0.65 1.4-2.35-2-6.75 2.4 2.45v4.15l-0.65 3.5 0.65 3.5 0.85 2.25-1.65-1.25-1.15-0.55 0.5-0.4 1.45-0.05-1.55-1.1-2.75 0.35m45-16.1 1.15 5.5v0.15-0.15l-1.15-5.5m1.15 5.5 2-2.35-2 2.35m-33.4-0.6 3.75 1.45 3.6-0.5-1.6 1.25h-1.6v2.1l3 1.15-3.35 3.75-0.3 5.15h-4.1l-1.15 0.5 1-3.4-0.05-0.25 0.35-3-0.65-3.9-2.55-4.1 0.45 0.25 3.75 4.75 1.75-0.65-0.8-2.95-1.5-1.6m0.25 16.25 3.15 1.6 1.5-1.4 1 4.35-1 2.15-2.5-1.2-0.25-1-1.9-4.5m11.5 5.35h3l0.15-0.05 1.1 0.95 0.45 1.25-1.05 0.35-2.85-0.8-1.25-1.95 0.45 0.25m5.65-1.3 2.1-1.1 0.65-1.55 3.2 1.45 2.35 2.95-0.55 0.65-3.1 0.85-0.3-0.55-3.5-2.5-0.85-0.2" fill="#cc9" fill-rule="evenodd"/>
<path d="m48.25 33.9 2 1.2 3.5-1.6 3.1-4.9-1.75-4.6 1.9-2.9 0.75-2.15 3.6 9.55v5l1 4.75-1 1.5v2.25l-3.6 4.1v1.65l-0.4 2.1-0.1 0.5-1.75 3.75-2.75 1.15-0.75-1.9-2.75-1.35-1.75 0.75-2.15 0.5-1.1 1.75 0.6-2.75 1.15-2.15h1.6l1.8-1.7 2.45-0.8-2.45 0.8-1.8 1.7h-1.6l-1.15 2.15-1.65-1.35-1.45-0.4v-0.15l3.6-3.35h2.15l1.1-2.15h4.5l1.9 1.15 4.6-3.75-0.5-2-1.35-0.25-3 2.05h-2.6l-0.8-1.05-2.25-0.75-2.1 1.5h-2.15l-1.5-1.65-0.75-2.6 0.9-2.65v-2.6l-1.4-3 2.65 0.85 1.6 2.65 1.9 1.15-0.75 4.7-2.15 3.15 2.15-3.15 0.75-4.7m-19.35 31.1-0.15 0.3h-1.3l-0.35 0.95-2.35 0.75-0.9-0.35 2.4-4.1-1.9 0.05-0.45 0.8-2.85 0.15 0.3-0.7-1.75-1.6 1.75 1.6-0.3 0.7-0.4 0.8-0.9 1.9h-1l-0.85-0.75-0.9 0.35-1.35-0.5 2.95-2.25 1-1.85-2.5 0.75-0.4 0.45h-1.35l-1.8-0.95 0.2-0.4-1.75-1.35 1.75 1.35-0.2 0.4-0.95 1.85-0.35 0.65h-1.65l-0.5-0.65h-1.35l3.25-3.6h-2l-0.9 0.85-1.5-0.6-0.9-0.65 0.3-1.6h-1.75 1.75l-0.3 1.6-0.1 0.5-0.65 1.6-0.45 1.15h-1l-0.8-0.9-0.45 0.3v1l-2-0.85 4-4.4-1.75-0.9-0.75 0.65-0.4 0.55-0.25-2.45 0.4-0.15 1.9 1 0.95-0.45 2.25 1.1 3 0.65 0.65 1.1 3.35 0.75 1.85-2.75-2.2-2.85-0.7-2.3 3.55 3.35 0.3 0.3-0.15-0.45 2.5 1.2 1-2.15-1-4.35-1.4-2.1 0.3-5.15 3.35-3.75 4.15-3.75 4.15-0.8 2.45 1.15 2.25 2.4 0.6 4.9-2.65-3.55-0.4-0.65q-0.95-1.2-2.05-1.6l-1.85-0.1q-2.25 0.5-4 2.2-1.8 1.65-1.8 5.05 0 2.7 0.85 4.4l0.85 3.65 2.05 2.85-0.45-0.25 1.25 1.95 2.85 0.8 1.05-0.35 1.4 3.95-1.1 0.25-0.6 2.4h-1.4l-0.7 1.5m-23.2-15.55-0.2-0.6-1.95-2.6 0.9-0.7 1.15 0.55 1.65 1.25-0.85-2.25-0.65-3.5 0.65-3.5v-4.15l2.25-2.1 2.55 1.5 2.55 4.1 0.65 3.9-0.35 3-0.9-4v-0.1l-0.1-0.35q-0.3-1.3-0.95-2.3-1.1-1.75-2.15-2t-1.95 1.6q-0.95 1.9-0.95 4.6 0 1.05 0.15 2l0.1 0.4 0.2 3.8 1.8 0.95-0.95 2.8v3.5l-2-3.4 2.65-2.05-3.3-0.35m2.9-20.85 4.4-0.35 3.85 3.6h4.5l5.15-2.85 3.75 1.1-4 0.65-4.05 3.35-3.6 0.5-3.75-1.45-4.1-4.3-2.15-0.25m28.3 28.1 3.1-0.85 0.55-0.65 0.65 0.8 2.2 4.8-0.65 0.75-1.4 1.55-0.65 0.1h-0.1l-3.7-6.5m-10.65 5.85 0.5-0.05 1 1.85-0.3 0.95 0.3-0.95-1-1.85-0.5 0.05m-21.4-1.7-1.15 0.85 1.15-0.85m14 4.25-0.95 0.4 0.95-0.4" fill="#b0af68" fill-rule="evenodd"/>
<path d="m17.1 55.05 0.15-0.15 0.15 0.45-0.3-0.3" fill="#663" fill-rule="evenodd"/>
<path d="m35.5 49.65h3.45l2.8 0.85v3.1l-1.2 1.6-2.35-2.95-3.2-1.45-2.55-1.15h3.05m-31.05-4.1-2.35-1.2 2.75-0.35 1.55 1.1-1.45 0.05-0.5 0.4m25.3 9.15-3.15-2.7 5.65 1.45 0.85 0.2 3.5 2.5 0.3 0.55-0.3 0.05-3.1-0.65-2.2 0.8-0.45-1.25-1.1-0.95" fill="#900" fill-rule="evenodd"/>
<path d="m23.3 64.6-2.65-0.25 0.4-0.8 2.85-0.15-0.45 0.8-0.15 0.4m-7.9-0.7-0.4-0.05-2.4-0.5 0.95-1.85 1.8 0.95h1.35l-1.1 1.3-0.2 0.15m-7.25-1.8-2.2-0.65 0.65-1.6 0.1-0.5 0.9 0.65 1.5 0.6-0.95 1.5m-1.8-10.25-0.65-2.4 3.3 0.35-2.65 2.05m-2.8-5.6-1.45-1.9 2.35 1.2-0.9 0.7m38.2 4.25 1.45 0.4 1.65 1.35-0.6 2.75 1.6 3.25-0.6 2.85-2.5 0.45 0.65-0.75 0.7-0.8-0.7 0.8-2.2-4.8-0.65-0.8 1.2-1.6v-3.1m-10.45 6.4 2.2-0.8 3.1 0.65 0.3-0.05 3.7 6.5-2.85 0.3-1.25-1.75-2.65-1.15-1.15 0.25-1.4-3.95m31.45 10.3q0 0.7-3.9 1.05l-5.4 0.25h-3.7q-1.3-0.1-1.75-0.5 0.2-0.75 1.15-0.95l1.1-0.15h0.15l0.1-0.15q-6.05-0.6-6.65-1.25l3.4-0.85 0.95 0.1 0.6 0.15 0.2 0.1 7.05-0.25q3.05 0 3.05 0.95l-0.35 0.7 3.85 0.5 0.15 0.3m7.5-5.2q-1.4 1.4-5.45 1.4-5.3 0-5.3-1.5l4.65-0.5 6.1 0.6" fill="#600" fill-rule="evenodd"/>
<path d="m57.35 49.85q6.15 0.65 10.6 2.05 5.35 1.7 5.8 3.45-1.35 1.35-9 2.35l-12 1.4-0.75 0.25 1.7 1q1.35 0.75 1.8 0.75-0.55 1.3-7.8 2.3l-9.45 0.7h-0.25l0.75 0.5v0.05l-5.4 0.45-4.45-0.1 0.7-1.5h1.4l0.6-2.4 1.1-0.25 1.15-0.25 2.65 1.15 1.25 1.75 2.85-0.3h0.1l0.65-0.1 1.4-1.55 2.5-0.45 0.6-2.85-1.6-3.25 1.1-1.75 2.15-0.5 1.75-0.75 2.75 1.35 0.75 1.9 2.75-1.15 1.75-3.75 0.1-0.5m-44.25-1.85 1.15-0.5 0.85 1.9 1.9 4.5 0.25 1-0.15 0.15-3.55-3.35-0.35-0.35-1.45 1.4-0.9 1.25-0.1-2.15 1.85-2.95 0.5-0.9m-5.9-4.2q-0.15-0.95-0.15-2 0-2.7 0.95-4.6 0.9-1.85 1.95-1.6t2.15 2q0.65 1 0.95 2.3l0.1 0.35v0.1l0.2 1.55q0.1 2.55-0.85 4.4-0.95 1.9-2.25 1.9-1.35 0-2.25-1.9-0.5-0.95-0.7-2.1l-0.1-0.4m16.5 4.45q-0.85-1.7-0.85-4.4 0-3.4 1.8-5.05 1.75-1.7 4-2.2l1.85 0.1q1.1 0.4 2.05 1.6l0.4 0.65q1.15 1.95 0.75 4.65-0.45 3.15-2.05 5.55l-0.55 0.75q-1 1.15-2.05 1.4l-2.4-0.15-1.7-1.25-0.75-0.9-0.5-0.75" fill="#4b0101" fill-rule="evenodd"/>
<path d="m53.75 8.35-8.4-2.75-7.1-3.25-1.75-0.15 5.75 3.3 2.6 4.5v7.6l1.5 5-0.5 3.9 1.25 1.75 3.15 3.15 2-2.4 0.6-5.15 3.5-4.5 0.05-4.05-2.65-6.95m4 10.6-1.35-3.65m1.35 3.65 3.6 9.55v5l1 4.75-1 1.5v2.25l-3.6 4.1v1.65l-0.4 2.1m-28.45 15.15-0.15 0.3h-1.3l-0.35 0.95-2.35 0.75-0.9-0.35-1-0.4 0.45-1.65m-2.65-0.25-0.9 1.9h-1l-0.85-0.75-0.9 0.35-1.35-0.5-0.3-0.1-0.75-0.9 0.8-0.45 0.2-0.15 1.1-1.3 0.4-0.45 2.5-0.75 1.75 1.6-0.3 0.7 2.85-0.15-0.45 0.8-0.15 0.4m-10.7-1.25-0.35 0.65h-1.65l-0.5-0.65h-1.35l-1.15-0.5 0.55-0.75 0.95-1.5 0.9-0.85h2l1.75 1.35-0.2 0.4 1.8 0.95h1.35m-10.75-1-0.45 1.15h-1l-0.8-0.9-0.45 0.3v1l-2-0.85-1.25-0.55v-1.25l1.35-0.85 1-1.45-0.25-2.45 0.4-0.15 2.1-0.95 1.75-2.65-0.65-2.4-0.2-0.6-1.95-2.6-1.45-1.9 1-3.1 1.5-0.65 1.4-2.35-2-6.75-0.9-6.75 0.5-2.65 9.5-16.75 2.5-2.35 7.5-1.9 13.4 1.1m11.75 31.7v-0.15l-1.15-5.5m5.4 13.8h-0.35l-0.8-1.05-2.25-0.75-2.1 1.5h-2.15l-1.5-1.65-0.75-2.6 0.9-2.65v-2.6l-1.4-3m8.15 2.15-2 2.35m-2.9 8 2.15-3.15 0.75-4.7m-3.4 18.35 1.15-2.15h1.6l1.8-1.7 2.45-0.8m-7 4.65-0.6 2.75 1.1-1.75 2.15-0.5 1.75-0.75 2.75 1.35 0.75 1.9 2.75-1.15 1.75-3.75 0.1-0.5m-35.15-15.75-3.6 0.5-3.75-1.45 1.5 1.6m-3.25 13.25 1.15-0.5 0.85 1.9m5.5-14.05 1.6-1.25 4.05-3.35 4-0.65m-15.4 3.05-4.1-4.3-2.15-0.25m-1.4 15.2q-0.15-0.95-0.15-2 0-2.7 0.95-4.6 0.9-1.85 1.95-1.6t2.15 2q0.65 1 0.95 2.3m0.1 0.35v0.1l0.2 1.55q0.1 2.55-0.85 4.4-0.95 1.9-2.25 1.9-1.35 0-2.25-1.9-0.5-0.95-0.7-2.1m5.3 4.7 0.5-0.9m10.6 0.25q-0.85-1.7-0.85-4.4 0-3.4 1.8-5.05 1.75-1.7 4-2.2l1.85 0.1q1.1 0.4 2.05 1.6l0.4 0.65q1.15 1.95 0.75 4.65-0.45 3.15-2.05 5.55l-0.55 0.75q-1 1.15-2.05 1.4l-2.4-0.15-1.7-1.25-0.75-0.9-0.5-0.75m9 12.6 1.15-0.25 2.65 1.15 1.25 1.75 2.85-0.3m-11.7 1.8 0.7-1.5h1.4l0.6-2.4 1.1-0.25m-5.25 4.45 0.3-0.95-1-1.85-0.5 0.05m-2.35 0.85 0.45-0.8 1.9-0.05m-5.6 1.8 0.4-0.8m-3.8-8.65-0.25-1-1.9-4.5m2.15 5.5 0.15 0.45-0.3-0.3-3.55-3.35-0.35-0.35-1.45 1.4-0.9 1.25-0.1-2.15 1.85-2.95m-10.25 9.15 0.4-0.55 0.75-0.65 1.75 0.9h1.75l-0.3 1.6 0.9 0.65 1.5 0.6m-5.4 1.1 1.15-0.85m1.85-1.5-0.1 0.5-0.65 1.6m11.95 4.05 0.95-0.4m-5.3-3.6-0.95 1.85m30.15-1.8 2.5-0.45 0.6-2.85-1.6-3.25m-0.85 5.8 0.7-0.8m-1.35 1.55 0.65-0.75m-2.7 2.4 0.65-0.1 1.4-1.55" fill="none" stroke="#000" stroke-linecap="round" stroke-linejoin="round" stroke-opacity=".4" stroke-width=".5"/>
<path d="m13.05 39.9 0.1 0.35" fill="none" stroke="#f39" stroke-linecap="round" stroke-linejoin="round" stroke-width=".05"/>
<path d="m23.55 0-1.6 4.05-1.85 0.3 0.7-2.15 0.65-2.2h2.1m-13.45 28 1.6-1.65 0.95 1-3.4 4.55-1.65-1.4 2.5-2.5m12.3-0.55 2.35-1.9 2.35 2.25 1.65 1.8-2.8 2.25-3.55-4.4m7.25-6.65 0.55-1.8 2.9 0.95 2 0.65v1.75l-5.45-1.55m-0.55-11.6-0.5-0.95 2.15-1.9 0.7-0.6h2.4l0.8 1.15-5.55 2.3m-20.7-0.9 1.6-2.2 0.95 0.65 2.15 1.35-1.8 2.95-2.9-2.75m-1.1 8.65 4.7 1.4-0.7 2.1-6.05 1.3v-0.9l0.4-2.3v-1.05l1.65-0.55" fill="#979700" fill-rule="evenodd"/>
<path d="m21.95 4.05 1.6-4.05h2.15l-0.95 1.9-0.9 1.85-1.9 0.3m-9.3 23.3 0.95 1-0.9 1.25-2.45 3.15-1-0.85 3.4-4.55m10.5 2.8-1.3-2.3 0.55-0.4 3.55 4.4-1.25 1-1.55-2.7m8.6-7.4-2.4-1 0.3-0.95 5.45 1.55v1.75l-3.35-1.35m0.75-13.7-2.9 1.05-0.5-0.9 5.55-2.3 0.8 1.1-2.95 1.05m-23.5 1.25-1.25-1.2 0.65-0.8 2.9 2.75-0.6 0.95-1.7-1.7m2.3 10.15-0.3 0.9-3.1 1.25h-2.65v-0.85l6.05-1.3" fill="#660" fill-rule="evenodd"/>
<path d="m20.8 2.2-0.7 2.15 1.85-0.3 1.9-0.3 0.9-1.85 1.85 0.95 0.5 7.8-3 7-10 6.05-5.95 0.8-0.55-1.9h0.3l3.1-1.25 1-3-4.7-1.4 1.7-6.65 1.7 1.7 0.6-0.95 1.8-2.95-2.15-1.35 0.95-1.65 4.15-2.25 4.75-0.65" fill="#ffc" fill-rule="evenodd"/>
<path d="m26.6 2.85 1.85 0.9 2.3 2.6-2.15 1.9 0.5 0.95 0.5 0.9 2.9-1.05 1.7 5.8-1.1 5.1-2.9-0.95-0.55 1.8-0.3 0.95 2.4 1-1.8 2.75-2.85 2.3-2.35-2.25-2.35 1.9-0.55 0.4 1.3 2.3-5.7 0.7-4.75-1.25 0.9-1.25-1.9-2-1.6 1.65-1.75-2.65-0.2-0.85 5.95-0.8 10-6.05 3-7-0.5-7.8" fill="#efefb1" fill-rule="evenodd"/>
<path d="m23.55 0h-2.1l-0.65 2.2-0.7 2.15 1.85-0.3 1.9-0.3 0.9-1.85 0.95-1.9h-2.15m3.05 2.85-1.85-0.95m6 4.45-2.3-2.6-1.85-0.9m-18.45 21.65 0.2 0.85 1.75 2.65 1.6-1.65 1.9 2-0.9 1.25 4.75 1.25 5.7-0.7-1.3-2.3 0.55-0.4 2.35-1.9 2.35 2.25 2.85-2.3 1.8-2.75-2.4-1 0.3-0.95 0.55-1.8 2.9 0.95 1.1-5.1-1.7-5.8-2.9 1.05-0.5-0.9-0.5-0.95 2.15-1.9 0.7-0.6h2.4l0.8 1.15 0.8 1.1-2.95 1.05m-23.5 1.25-1.25-1.2 0.65-0.8 1.6-2.2 0.95 0.65 0.95-1.65 4.15-2.25 4.75-0.65m-11.8 8.1-1.7 6.65 4.7 1.4-1 3-3.1 1.25h-0.3l0.55 1.9m2.8-17.75 2.15 1.35-1.8 2.95-0.6 0.95-1.7-1.7m-1.4 12.3h-2.35v-1.75l0.4-2.3v-1.05l1.65-0.55m2.8 11.05-2.5 2.5 1.65 1.4 1 0.85 2.45-3.15m22.4-7.25v1.75l-3.35-1.35m3.35-0.4v-1.75l-2-0.65m-9.95 10.2 1.55 2.7 1.25-1 2.8-2.25-1.65-1.8" fill="none" stroke="#000" stroke-linecap="round" stroke-linejoin="round" stroke-opacity=".4" stroke-width=".5"/>
</g>
</defs>
</svg>
