<?xml version="1.0" encoding="UTF-8"?>
<svg version="1.1" viewBox="0 0 142.17 123.75" xmlns="http://www.w3.org/2000/svg" xmlns:cc="http://creativecommons.org/ns#" xmlns:dc="http://purl.org/dc/elements/1.1/" xmlns:rdf="http://www.w3.org/1999/02/22-rdf-syntax-ns#" xmlns:xlink="http://www.w3.org/1999/xlink">
<metadata>
<rdf:RDF>
<cc:Work rdf:about="">
<dc:format>image/svg+xml</dc:format>
<dc:type rdf:resource="http://purl.org/dc/dcmitype/StillImage"/>
</cc:Work>
</rdf:RDF>
</metadata>
<g transform="translate(-203.65 -138.6)">
<use transform="matrix(1.7883 0 0 1.7883 203.65 138.6)" width="79.5" height="69.199997" xlink:href="#a"/>
</g>
<defs>
<g id="a" transform="translate(.25 .25)">
<use transform="translate(-.25 -.25)" width="79.5" height="69.199997" xlink:href="#b"/>
</g>
<g id="b" transform="translate(.25 .25)">
<path d="m63.1 3.35 0.4-0.45 3.85 2.25 4.5 10.5-1.6 8-4.6 3.3-0.65 0.45-2.75 0.3-3 0.3-1.2 0.1-3.2-3.35-1.45-4.2h7.45q2.85-1 5.65-2.05l1.25-3.6-1-6.4-3.65-5.15m-54.1 21-6.5-2.2-2.5-7.65 3 0.4 2.6-2.5 0.4-4.65 4.35-6.35v0.85l-1.25 6 2.15 3.65-2.9 1.35 0.75 2 3.95 1.65-1.85 3.2-2.1 3.7-0.1 0.55" fill="#303" fill-rule="evenodd"/>
<path d="m8.75 27.5-0.15 0.3 0.1-0.75 0.3-2.7 0.1-0.55 2.1-3.7q3.35-4.15 4.35-4.55l-1-1.25q4.7-3.7 8-4.8-3.55 4.1-6.95 15v-6.6q-2.7 2.5-6.85 9.6l-0.05-0.45 0.05 0.45m43.1-19.85 3.9 1.25 1.1 1.05-2.25-0.15-0.15 0.7-2.6-2.85m-14.45 15.8q-1.6-6.75-6.3-13.55 6.35 2 12 5.8l-1.5 1.25-1.5 3.65-2.7 2.85" fill="#333" fill-rule="evenodd"/>
<path d="m59.25 28 3-0.3-0.15 2q-0.2 1.1-0.75 2.2l-1.15 1.85q-2 2.35-4.65 2.95l-2 0.15 0.2-1.25v-0.15l-0.45-2.3 0.45 2.3 1.95-2.25q3.1-0.6 3.55-5.2m-4.8-17.5 0.15-0.7 2.25 0.15q2.2 2.25 3 4.55h-3.1q-0.75-2-2.3-4m-11.35 5.2 3.15 2.3-3.05 1q3.55 2.8 4.7 7.45 0.8 3.55 2.4 5.3l1.05 0.9 1.95 0.5 2.4 0.05-1.95 2.25v0.15l-0.2 1.25q-2.1-0.1-4.55-1.1-2.7-1.75-3.65-6.1-1.05-4.65-4.75-7.75l-2.75 4.1-0.45-2.55 2.7-2.85 1.5-3.65 1.5-1.25m4.5 15.25 1.4 3v1.8-1.8l-1.4-3" fill-rule="evenodd"/>
<path d="m29.35 68.35-1-0.4 0.5-1.65 0.1-0.4 0.9-1.6 1.9-0.05-2.4 4.1m-8.2-1.3-0.3-0.1-0.75-0.9 0.8-0.45 0.2-0.15 1.1-1.3 0.4-0.45 2.5-0.75-1 1.85-2.95 2.25m-6.9-2-1.15-0.5 0.55-0.75 0.95-1.5 0.9-0.85h2l-3.25 3.6m-7.5-1.2-1.25-0.55v-1.25l1.35-0.85 1-1.45 0.4-0.55 0.75-0.65 1.75 0.9-4 4.4m2.75-30.65-0.75-5.7q4.15-7.1 6.85-9.6v6.6q3.4-10.9 6.95-15-3.3 1.1-8 4.8l1 1.25q-1 0.4-4.35 4.55l1.85-3.2 2.45-4.3 3.1-5.55 2.5-2.35 7.5-1.9 13.4 1.1 1.75 0.15 7.1 3.25 1 0.35 2.6 2.85-0.35 1.2h-3.75l-4.25 1.35-3 2.65q-5.65-3.8-12-5.8 4.7 6.8 6.3 13.55l-1.95 2-10.95 3.6-6-1.85-5.85 1.85 1.45 1.25 2.15 0.25 4.1 4.3 1.5 1.6 0.8 2.95-1.75 0.65-3.75-4.75-0.45-0.25-2.55-1.5-2.25 2.1-2.4-2.45m46.25-24.3 3.5 1.15-2.4-0.1-1.1-1.05m-13.75-5 5.75 3.3 2.6 4.5-2.6-4.5-5.75-3.3m-9.9 52.55-2.05-2.85-0.85-3.65 0.5 0.75 0.75 0.9q0.9 0.95 1.7 1.25l2.4 0.15q1.05-0.25 2.1-1.4l0.5-0.75q1.6-2.4 2.05-5.55 0.4-2.7-0.75-4.65l2.65 3.55 0.65 5.35-1.9 4.5-4.75 2.4h-3m6.15-19.55-2.45-1.15-4.15 0.8-4.15 3.75-3-1.15v-2.1h1.6l1.6-1.25 4.05-3.35 4-0.65h2.85l4.15 0.75-4.5 4.35m-14.4 12.3 1.4 2.1-1.5 1.4-3.15-1.6-0.85-1.9h4.1m-4.3-3.15 0.05 0.25-1 3.4-0.5 0.9-2.6 0.45-0.7-0.4-1.8-0.95-0.2-3.8q0.2 1.15 0.7 2.1 0.9 1.9 2.25 1.9 1.3 0 2.25-1.9 0.95-1.85 0.85-4.4l-0.2-1.55 0.9 4" fill="#d9d9b7" fill-rule="evenodd"/>
<path d="m8 57.15 2.1-0.95 1.75-2.65 2 3.4v-3.5l0.95-2.8 0.7 0.4 2.6-0.45-1.85 2.95 0.1 2.15 0.9-1.25 1.45-1.4 0.35 0.35 0.7 2.3 2.2 2.85-1.85 2.75-3.35-0.75-0.65-1.1-3-0.65-2.25-1.1-0.95 0.45-1.9-1m-0.4-11.1 1-3.1q0.75-0.3 1.5-0.65l1.4-2.35-2-6.75 2.4 2.45v4.15l-0.65 3.5 0.65 3.5 0.85 2.25-1.65-1.25-3.5-1.75m51.65-36 1.7 4.45h-1.1q-0.8-2.3-3-4.55l2.4 0.1m-5.85 10.5 1.45 4.2 3.2 3.35 1.2-0.1q-0.45 4.6-3.55 5.2l0.05-0.1 2-2.4 0.3-2.6-0.3 2.6-2 2.4-0.05 0.1-2.4-0.05-1.95-0.5-1.05-0.9q-1.6-1.75-2.4-5.3-1.15-4.65-4.7-7.45l3.05-1-3.15-2.3 3-2.65 4.25-1.35v7.6l1.5 5-0.5 3.9 1.25 1.75 0.7 3.2-0.7-3.2-1.25-1.75 0.5-3.9-1.5-5v-7.6h3.75l0.35-1.2q1.55 2 2.3 4h-1l-1.5 2.15-1 3.5 0.15 0.4m8.7 9.15 0.25 0.6-1 1.6q0.55-1.1 0.75-2.2m-1.9 4.05-0.95 1.45-3.5 1.6-0.2-0.1q2.65-0.6 4.65-2.95m-9.35 9.7h1.65l2.1-1.5 2.25 0.75 0.8 1.05h2.6l3-2.05 1.35 0.25 0.5 2-4.6 3.75-1.9-1.15h-4.5l-1.1 2.15h-2.15l-3.6 3.35v3.25l-1.75 2.25-3.4 0.9h-4.35l-2 0.5-2.85-0.8-1.25-1.95 0.45 0.25h3l4.75-2.4 1.9-4.5-0.65-5.35-0.6-4.9-2.25-2.4 4.5-4.35-4.15-0.75h-2.85l-3.75-1.1-5.15 2.85h-4.5l-3.85-3.6-4.4 0.35-1.45-1.25 5.85-1.85 6 1.85 10.95-3.6 1.95-2 0.45 2.55 2.75-4.1q3.7 3.1 4.75 7.75 0.95 4.35 3.65 6.1v0.8l-0.9 2.65 0.75 2.6 1.5 1.65h0.5m-23.35-3.15-3.35 3.75-0.3 5.15h-4.1l-1.15 0.5 1-3.4-0.05-0.25 0.35-3-0.65-3.9-2.55-4.1 0.45 0.25 3.75 4.75 1.75-0.65-0.8-2.95-1.5-1.6 3.75 1.45 3.6-0.5-1.6 1.25h-1.6v2.1l3 1.15m-2.25 11 1 4.35-1 2.15-2.5-1.2-0.25-1-1.9-4.5 3.15 1.6 1.5-1.4m30.5-18.2-3.15-3.15 3.15 3.15" fill="#cc9" fill-rule="evenodd"/>
<path d="m0 14.5 3.85-9.85 5-4.65 1.5 1.4-4.35 6.35-0.4 4.65-2.6 2.5-3-0.4m11.25-2.6 4.25 0.7-2.45 4.3-3.95-1.65-0.75-2 2.9-1.35m49.7 2.6 2.15-0.5 1.15-2.6-0.65-4.4-1.5-2.6 1-1.05 3.65 5.15 1 6.4-1.25 3.6q-2.8 1.05-5.65 2.05h-7.45l-0.15-0.4 1-3.5 1.5-2.15h5.2" fill="#400080" fill-rule="evenodd"/>
<path d="m65.65 26.95 1.2 3.25v5l1 4.75-1 1.5v2.25l-3.6 4.1v1.65l-0.4 2.1-0.1 0.5-1.75 3.75-2.75 1.15-0.75-1.9-2.75-1.35-1.75 0.75-2.15 0.5-1.1 1.75 0.6-2.75 1.15-2.15h1.6l0.65-0.55 0.15-0.2 1-0.95 2.45-0.8-2.45 0.8-1 0.95-0.15 0.2-0.65 0.55h-1.6l-1.15 2.15-0.6 2.75 1.6 3.25-0.6 2.85-2.5 0.45-1.4 1.55-3.6 0.4-1.25-1.75-2.65-1.15-2.25 0.5-0.6 2.4h-1.4l-0.7 1.5-0.15 0.3h-1.3l-0.35 0.95-2.35 0.75-0.9-0.35 2.4-4.1-1.9 0.05-0.45 0.8-2.85 0.15 0.3-0.7-1.75-1.6 1.75 1.6-0.3 0.7-0.35 0.8-0.95 1.9h-1l-0.85-0.75-0.9 0.35-1.35-0.5 2.95-2.25 1-1.85-2.5 0.75-0.4 0.45h-1.35l-1.8-0.95 0.2-0.4-1.75-1.35 1.75 1.35-0.2 0.4-0.95 1.85-0.35 0.65h-1.65l-0.5-0.65h-1.35l3.25-3.6h-2l-0.9 0.85-1.5-0.6-0.9-0.65 0.3-1.6h-1.75 1.75l-0.3 1.6-0.1 0.5-0.65 1.6-0.45 1.15h-1l-0.8-0.9-0.45 0.3v1l-2-0.85 4-4.4-1.75-0.9-0.75 0.65-0.4 0.55-0.25-2.45 0.4-0.15 1.9 1 0.95-0.45 2.25 1.1 3 0.65 0.65 1.1 3.35 0.75 1.85-2.75-2.2-2.85-0.7-2.3 3.85 3.65-0.15-0.45 2.5 1.2 1-2.15-1-4.35-1.4-2.1 0.3-5.15 3.35-3.75 4.15-3.75 4.15-0.8 2.45 1.15 2.25 2.4 0.6 4.9-2.65-3.55-0.4-0.65q-0.95-1.2-2.05-1.6l-1.85-0.1q-2.25 0.5-4 2.2-1.8 1.65-1.8 5.05 0 2.7 0.85 4.4l0.85 3.65 2.05 2.85-0.45-0.25 1.25 1.95 2.85 0.8 2-0.5h4.35l3.4-0.9 1.75-2.25v-3.25l3.6-3.35h2.15l1.1-2.15h4.5l1.9 1.15 4.6-3.75-0.5-2-1.35-0.25-3 2.05h-2.6l-0.8-1.05-2.25-0.75-2.1 1.5h-1.65l2.15-3.15 0.55-3.45-0.55 3.45-2.15 3.15h-0.5l-1.5-1.65-0.75-2.6 0.9-2.65v-0.8q2.45 1 4.55 1.1l2-0.15 0.2 0.1 3.5-1.6 0.95-1.45 1.15-1.85 1-1.6-0.25-0.6 0.15-2 2.75-0.3 0.65-0.45m-53.8 26.6-0.85-3-3.4-4.5 3.5 1.75 1.65 1.25-0.85-2.25-0.65-3.5 0.65-3.5v-4.15l2.25-2.1 2.55 1.5 2.55 4.1 0.65 3.9-0.35 3-0.9-4v-0.1l-0.1-0.35q-0.3-1.3-0.95-2.3-1.1-1.75-2.15-2t-1.95 1.6q-0.95 1.9-0.95 4.6 0 1.05 0.15 2l0.1 0.4 0.2 3.8 1.8 0.95-0.95 2.8v3.5l-2-3.4m2.25-23.25 4.4-0.35 3.85 3.6h4.5l5.15-2.85 3.75 1.1-4 0.65-4.05 3.35-3.6 0.5-3.75-1.45-4.1-4.3-2.15-0.25m18.85 36.7 0.3-0.95-1-1.85-0.5 0.05 0.5-0.05 1 1.85-0.3 0.95m-22.6-4.45-1.15 0.85 1.15-0.85m39.25-0.85-1.35 1.55 1.35-1.55m-25.25 5.1-0.95 0.4 0.95-0.4" fill="#b0af68" fill-rule="evenodd"/>
<path d="m29.2 49.95q-0.85-1.7-0.85-4.4 0-3.4 1.8-5.05 1.75-1.7 4-2.2l1.85 0.1q1.1 0.4 2.05 1.6l0.4 0.65q1.15 1.95 0.75 4.65-0.45 3.15-2.05 5.55l-0.5 0.75q-1.05 1.15-2.1 1.4l-2.4-0.15q-0.8-0.3-1.7-1.25l-0.75-0.9-0.5-0.75m-6.45 6.65 0.15 0.45-3.85-3.65-0.35-0.35-1.45 1.4-0.9 1.25-0.1-2.15 1.85-2.95 0.5-0.9 1.15-0.5 0.85 1.9 1.9 4.5 0.25 1m-10.05-11.1q-0.15-0.95-0.15-2 0-2.7 0.95-4.6 0.9-1.85 1.95-1.6t2.15 2q0.65 1 0.95 2.3l0.1 0.35v0.1l0.2 1.55q0.1 2.55-0.85 4.4-0.95 1.9-2.25 1.9-1.35 0-2.25-1.9-0.5-0.95-0.7-2.1l-0.1-0.4" fill="#663" fill-rule="evenodd"/>
<path d="m62.85 51.55q6.15 0.65 10.6 2.05 5.35 1.7 5.8 3.45-1.35 1.35-9 2.35l-12 1.4q0 0.25-0.75 0.25l1.7 1 1.8 0.75q-0.55 1.3-7.8 2.3l-9.45 0.7h-0.25l0.75 0.5v0.05l-5.4 0.45-4.45-0.1 0.7-1.5h1.4l0.6-2.4 2.25-0.5 2.65 1.15 1.25 1.75 3.6-0.4 1.4-1.55 2.5-0.45 0.6-2.85-1.6-3.25 1.1-1.75 2.15-0.5 1.75-0.75 2.75 1.35 0.75 1.9 2.75-1.15 1.75-3.75 0.1-0.5m-34 14.75-2.65-0.25 0.35-0.8 2.85-0.15-0.45 0.8-0.1 0.4m-7.95-0.7-0.4-0.05-2.4-0.5 0.95-1.85 1.8 0.95h1.35l-1.1 1.3-0.2 0.15m-7.25-1.8-2.2-0.65 0.65-1.6 0.1-0.5 0.9 0.65 1.5 0.6-0.95 1.5" fill-opacity=".2902" fill-rule="evenodd"/>
<path d="m63.1 3.35 0.4-0.45 3.85 2.25 4.5 10.5-1.6 8-4.6 3.3 1.2 3.25v5l1 4.75-1 1.5v2.25l-3.6 4.1v1.65l-0.4 2.1m-28.45 15.15-0.15 0.3h-1.3l-0.35 0.95-2.35 0.75-0.9-0.35-1-0.4 0.5-1.65m-2.65-0.25-0.95 1.9h-1l-0.85-0.75-0.9 0.35-1.35-0.5-0.3-0.1-0.75-0.9 0.8-0.45m-2.8-0.55-0.35 0.65h-1.65l-0.5-0.65h-1.35l-1.15-0.5 0.55-0.75m-2.2-0.65-0.45 1.15h-1l-0.8-0.9-0.45 0.3v1l-2-0.85-1.25-0.55v-1.25l1.35-0.85 1-1.45-0.25-2.45 0.4-0.15 2.1-0.95 1.75-2.65-0.85-3-3.4-4.5 1-3.1q0.75-0.3 1.5-0.65l1.4-2.35-2-6.75-0.75-5.7-0.05-0.45-0.1 0.75v-1.35l0.1 0.6 0.3-2.7-6.5-2.2-2.5-7.65 3.85-9.85 5-4.65 1.5 1.4v0.85l-1.25 6 2.15 3.65 4.25 0.7 3.1-5.55 2.5-2.35 7.5-1.9 13.4 1.1 1.75 0.15 7.1 3.25 1 0.35 3.9 1.25 3.5 1.15 1.7 4.45 2.15-0.5 1.15-2.6-0.65-4.4-1.5-2.6 1-1.05m-9.7 17.2 1.45 4.2 3.2 3.35 1.2-0.1 3-0.3 2.75-0.3 0.65-0.45m-12.25-6.4-0.15-0.4 1-3.5 1.5-2.15h5.2m-7.65 18.65-0.7-3.2-1.25-1.75 0.5-3.9-1.5-5v-7.6l-2.6-4.5-5.75-3.3m11.55 32.95-0.55 3.45-2.15 3.15h1.65l2.1-1.5 2.25 0.75 0.8 1.05h0.35m-28.8 6.2q-0.85-1.7-0.85-4.4 0-3.4 1.8-5.05 1.75-1.7 4-2.2l1.85 0.1q1.1 0.4 2.05 1.6l0.4 0.65q1.15 1.95 0.75 4.65-0.45 3.15-2.05 5.55l-0.5 0.75q-1.05 1.15-2.1 1.4l-2.4-0.15q-0.8-0.3-1.7-1.25l-0.75-0.9-0.5-0.75m-6.45 6.65 0.15 0.45-3.85-3.65-0.35-0.35-1.45 1.4-0.9 1.25-0.1-2.15 1.85-2.95 0.5-0.9 1.15-0.5 0.85 1.9 1.9 4.5 0.25 1m35.3-28.5-0.3 2.6-2 2.4-0.05 0.1m-40.2-20.6-2.45 4.3-1.85 3.2-2.1 3.7-0.1 0.55m40 11.4v-1.8l-1.4-3m-27.25 3.9-4.1-4.3-2.15-0.25m13.6 5.5 4.05-3.35 4-0.65m-8.05 4-3.6 0.5-3.75-1.45 1.5 1.6m4.25 0.6 1.6-1.25m-15 9.7q-0.15-0.95-0.15-2 0-2.7 0.95-4.6 0.9-1.85 1.95-1.6t2.15 2q0.65 1 0.95 2.3m0.1 0.35v0.1l0.2 1.55q0.1 2.55-0.85 4.4-0.95 1.9-2.25 1.9-1.35 0-2.25-1.9-0.5-0.95-0.7-2.1m4.7 15.55 1.75 1.35-0.2 0.4 1.8 0.95h1.35l0.4-0.45 2.5-0.75 1.75 1.6-0.3 0.7 2.85-0.15 0.45-0.8 1.9-0.05 0.5-0.05 1 1.85-0.3 0.95m-18.35-4.7 0.9-0.85h2m-5.3-0.4 0.9 0.65 1.5 0.6-0.95 1.5m-2.9-4.35h1.75l-0.3 1.6-0.1 0.5-0.65 1.6m10.75 1-1.1 1.3-0.2 0.15m-1.85-2.4-0.95 1.85m-10.25-5.3 0.4-0.55 0.75-0.65 1.75 0.9m-1.55 3.95 1.15-0.85m24.05 4.15 0.7-1.5h1.4l0.6-2.4 2.25-0.5 2.65 1.15 1.25 1.75 3.6-0.4 1.4-1.55 1.35-1.55m-23.4 4.35 0.35-0.8m-3.15 1.95 0.95-0.4m5.05-1.7-0.45 0.8-0.1 0.4m20.9-9.6 1.1-1.75 2.15-0.5 1.75-0.75 2.75 1.35 0.75 1.9 2.75-1.15 1.75-3.75 0.1-0.5m-9.55-18.4 0.45 2.3 1.95-2.25m-1.95 2.25v0.15l-0.2 1.25m-4.55-1.1v0.8l-0.9 2.65 0.75 2.6 1.5 1.65h0.5m-1.1 13.25 0.6-2.75 1.15-2.15h1.6l0.65-0.55 0.15-0.2 1-0.95 2.45-0.8m-9.1 13.95 2.5-0.45 0.6-2.85-1.6-3.25m2.85-26.75 3.15 3.15" fill="none" stroke="#000" stroke-linecap="round" stroke-linejoin="round" stroke-opacity=".4" stroke-width=".5"/>
<path d="m18.55 41.6 0.1 0.35" fill="none" stroke="#f39" stroke-linecap="round" stroke-linejoin="round" stroke-width=".05"/>
</g>
</defs>
</svg>
