<?xml version="1.0" encoding="UTF-8"?>
<svg version="1.1" viewBox="0 0 164.08 137.16" xmlns="http://www.w3.org/2000/svg" xmlns:cc="http://creativecommons.org/ns#" xmlns:dc="http://purl.org/dc/elements/1.1/" xmlns:rdf="http://www.w3.org/1999/02/22-rdf-syntax-ns#" xmlns:xlink="http://www.w3.org/1999/xlink">
<metadata>
<rdf:RDF>
<cc:Work rdf:about="">
<dc:format>image/svg+xml</dc:format>
<dc:type rdf:resource="http://purl.org/dc/dcmitype/StillImage"/>
</cc:Work>
</rdf:RDF>
</metadata>
<g transform="translate(-192.7 -131.9)">
<use transform="matrix(1.7883 0 0 1.7883 192.7 131.9)" width="91.75" height="76.699997" xlink:href="#a"/>
</g>
<defs>
<g id="a" transform="translate(.25 .25)">
<use transform="translate(-.25 -.25)" width="91.75" height="76.699997" xlink:href="#b"/>
</g>
<g id="b" transform="translate(.25 .25)">
<path d="m62.6 8.9h3.75l0.5-1.9 4.65 0.25 2.65 6.95-0.05 4.05-3.5 4.5-0.6 5.15-2 2.4-3.15-3.15-1.25-1.75 0.5-3.9-1.5-5v-7.6 7.6l1.5 5-0.5 3.9 1.25 1.75 3.15 3.15 2-2.4 0.6-5.15 3.5-4.5 0.05-4.05 1.35 3.65-0.75 2.15-1.9 2.9 1.75 4.6-3.1 4.9-3.5 1.6-2-1.2-1.9-1.15-0.55-0.95 0.35-0.15-0.45 0.05 0.45-0.05-0.35 0.15-0.1-0.1-0.95-1.6-2.65-0.85 1.25 2.65-7.25 0.7 2.6-2-1.45 0.2-0.15 0.05 0.15-0.05v0.05h-0.15l-4-0.75h-2.85l-3.75-1.1-5.15 2.85h-4.5l-3.85-3.6-4.4 0.35-1.45-1.25 5.85-1.85 6 1.85 10.95-3.6 4.65-4.85 1.5-3.65 4.5-3.9 4.25-1.35m2.25 18.25 1.15 5.5v0.15-0.15l-1.15-5.5m5.4 13.8h2.25l3-2.05 1.35 0.25 0.5 2-4.6 3.75-1.9-1.15h-4.5l-1.1 2.15h-2.15l-3.6 3.35v3.25l-1.5 1.95q-5.2-1.1-10.75 0l3.2-2.35 0.3-0.15 1.35-0.7 1.9-4.5-0.65-5.35-0.6-4.9-1.85-1.95 1.55 0.3-1.5-1.2 0.5-0.45 7.9 1.9-2.15-1.6 2.35-1.05 1.7-0.75v2.05l-0.9 2.65 0.75 2.6 1.5 1.65h2.15l2.1-1.5 2.25 0.75 0.8 1.05h0.35m-46.35 10.1 0.2-0.3 0.3 0.55-0.5-0.25m-4.05-7.8 1-3.1 1.5-0.65 1.4-2.35-1.4-4.8 1.25-0.05 0.55 0.55v4.15l-0.65 3.5 0.65 3.5 0.85 2.25-1.65-1.25-3.5-1.75m46.15-10.6 2-2.35-2 2.35m-32.4 24-1.25 1.85-3.35-0.75-0.65-1.1 1.5-1.3 2.5 3.15 0.4-2.15 0.85 0.3m6.15-19.15-3.35 3.75-0.3 5.15h-4.1l-1.15 0.5 1-3.4-0.05-0.25 0.35-3-0.65-3.9-2.3-3.7 0.4 0.1-0.4-0.1-0.25-0.4 0.45 0.25 0.2 0.25 3.55 4.5 1.75-0.65-0.8-2.95-1.5-1.6 3.75 1.45 3.6-0.5-1.6 1.25h-1.6v2.1l3 1.15m-2.25 11 1 4.35-0.35 0.85-1.3 0.15-1.85-0.05-0.25-1-1.9-4.5 3.15 1.6 1.5-1.4m-10.45-0.65 0.7 0.4 2.6-0.45-1.85 2.95 0.1 1.35h-2.5 0.05-0.05v-1.45l0.95-2.8m4.85 4.65-1.15 0.7-1.25-1.55 1.45-1.4 0.35 0.35 0.6 1.9m-6.25 3.55-0.3-0.05-1.5-0.75h3l-1.2 0.8m-3.3-0.8-0.2 0.1-0.2-0.1h0.4" fill="#cc9" fill-rule="evenodd"/>
<path d="m71.5 7.25-4.65-0.25-0.5 1.9h-3.75l-2.6-4.5-5.75-3.3 5.75 3.3 2.6 4.5-4.25 1.35-4.5 3.9-1.5 3.65-4.65 4.85-10.95 3.6-6-1.85-5.85 1.85 1.45 1.25 2.15 0.25 4.1 4.3 1.5 1.6 0.8 2.95-1.75 0.65-3.55-4.5 1.6 0.35-0.95-1.05-1.8-2.05-5-3 1 2.5-2.95-0.9-0.65-4.95 0.5-2.65 9.5-16.75 2.5-2.35 7.5-1.9 13.4 1.1 1.75 0.15 7.1 3.25 8.4 2.75m-23.5 21.75h2.85l4 0.75-5.65 0.75-5.85 2.35-2.5 1.4 1.95-0.3 1.75-0.3-0.65 0.1-4.15 3.75-3-1.15v-2.1h1.6l1.6-1.25 4.05-3.35 4-0.65m3.45 4.2-0.5 0.45-1-0.8 1.5 0.35m1.9 8.2 0.65 5.35-1.9 4.5-1.35 0.7-0.3 0.15v-0.1l0.3-0.05-0.3 0.05-6.65 0.9-1.5-2.1-0.85-3.65 0.5 0.75 0.75 0.9 1.7 1.25 2.4 0.15q1.05-0.25 2.1-1.4l0.5-0.75q1.6-2.4 2.05-5.55 0.4-2.7-0.75-4.65l2.65 3.55m-26.5 18.1 0.9-0.85h2l-3.25 3.6-1.15-0.5 1.5-2.25m7.6 1.85 0.4-0.45 2.5-0.75-1 1.85-2.95 2.25-0.3-0.1-0.75-0.9 0.8-0.45 0.2-0.15 1.1-1.3m7.2 0.95 0.45-0.8 1.9-0.05-2.4 4.1-1-0.4 0.6-2.05 0.45-0.8m-5.55-15.9 1.4 2.1-1.5 1.4-3.15-1.6-0.85-1.9h4.1m-4.3-3.15 0.05 0.25-1 3.4-0.5 0.9-2.6 0.45-0.7-0.4-1.8-0.95-0.2-3.8q0.2 1.15 0.7 2.1 0.9 1.9 2.25 1.9 1.3 0 2.25-1.9 0.95-1.85 0.85-4.4l-0.2-1.55 0.9 4m-8.2-10.95 1.25-0.1-0.7 0.65-0.55-0.55m-3.5 24.65 0.4-0.55 0.75-0.65 1.75 0.9-4 4.4h-0.05l-1.2-0.55v-1.25l1.35-0.85 1-1.45" fill="#d9d9b7" fill-rule="evenodd"/>
<path d="m26.35 27.5 4.4-0.35 3.85 3.6h4.5l5.15-2.85 3.75 1.1-4 0.65-4.05 3.35-3.6 0.5-3.75-1.45-4.1-4.3-2.15-0.25m34.75 3.3-1.25-2.65 2.65 0.85 0.95 1.6-2.35 0.2m2.45-0.1 0.55 0.95 1.9 1.15 2 1.2 3.5-1.6 3.1-4.9-1.75-4.6 1.9-2.9 0.75-2.15 3.6 9.55v5l1 4.75-1 1.5v2.25l-3.6 4.1v1.65l-0.4 2.1-0.1 0.5-1.75 3.75-2.75 1.15-0.75-1.9-2.75-1.35-1.75 0.75-2.15 0.5-1.1 1.75 0.6-2.75 1.15-2.15h1.6l0.65-0.55 0.15-0.2 1-0.95 2.45-0.8-2.45 0.8-1 0.95-0.15 0.2-0.65 0.55h-1.6l-1.15 2.15-0.6 2.75 1.6 3.25-0.6 2.85-2.5 0.45-0.15 0.2-2.25-1.45-4-2.6 6.1-1.65-2.2-0.5 1.5-1.95v-3.25l3.6-3.35h2.15l1.1-2.15h4.5l1.9 1.15 4.6-3.75-0.5-2-1.35-0.25-3 2.05h-2.6l-0.8-1.05-2.25-0.75-2.1 1.5h-2.15l-1.5-1.65-0.75-2.6 0.9-2.65v-2.05l2.3-1m-12.65 3.85 1.85 1.95 0.6 4.9-2.65-3.55-0.4-0.65q-0.95-1.2-2.05-1.6l-1.85-0.1q-2.25 0.5-4 2.2-1.8 1.65-1.8 5.05 0 2.7 0.85 4.4l0.85 3.65 1.5 2.1-5.65 0.8 0.35-0.85-1-4.35-1.4-2.1 0.3-5.15 3.35-3.75 4.15-3.75 0.65-0.1 1.35-0.25 5 1.15m10.95 24.35-1.35 1.55 1.35-1.55m4.15-26.1-0.75 4.7-2.15 3.15 2.15-3.15 0.75-4.7m-46 23.25-0.05-0.8h2l0.2 0.1 0.2-0.1h1.5-1.5l0.75-0.35 0.75 0.35 1.5 0.75 0.3 0.05-0.45 0.3 3.15 0.3-3.15-0.3-0.45 0.3-0.3 1.6 0.3-1.6 0.9-0.6 2.7 0.6 0.65 1.1 3.35 0.75 1.25-1.85 6.5 3.7-1.1-2.25q5.3-0.55 10.1 0.65l10.65 2.55-0.65 0.7-3.6 0.4-1.25-1.75-2.65-1.15-1.15 0.25-1.1 0.25-0.6 2.4h-1.4l-0.85 1.8h-1.3l0.3-0.95-1-1.85-0.5 0.05 0.5-0.05 1 1.85-0.3 0.95-0.35 0.95-2.35 0.75-0.9-0.35 2.4-4.1-1.9 0.05-0.45 0.8-2.85 0.15 0.3-0.7-1.75-1.6 1.75 1.6-0.3 0.7-1.3 2.7h-1l-0.85-0.75-0.9 0.35-1.35-0.5 2.95-2.25 1-1.85-2.5 0.75-0.4 0.45h-1.35l-1.8-0.95 0.2-0.4-1.75-1.35 1.75 1.35-0.2 0.4-1.3 2.5h-1.65l-0.5-0.65h-1.35l3.25-3.6h-2l-0.9 0.85-1.5-0.6-0.9-0.65-0.1 0.5-1.1 2.75h-1l-0.8-0.9-0.45 0.3v1l-2-0.85 4-4.4-1.75-0.9-0.75 0.65-0.4 0.55-0.1-0.9m4.1-5.3-0.85-3-3.4-4.5 3.5 1.75 1.65 1.25-0.85-2.25-0.65-3.5 0.65-3.5v-4.15l0.7-0.65 1.85-0.1 2.5 0.55 2.3 3.7 0.65 3.9-0.35 3-0.9-4v-0.1l-0.1-0.35q-0.3-1.3-0.95-2.3-1.1-1.75-2.15-2t-1.95 1.6q-0.95 1.9-0.95 4.6l0.15 2 0.1 0.4 0.2 3.8 1.8 0.95-0.95 2.8v1.45l-1.7-0.8-0.3-0.55m7.8 1.75-0.6-1.9 1.45 1.35-0.85 0.55m4.7 11.5-0.95 0.4 0.95-0.4m-11.85-7.35h-1.75 1.75m-2.15 3.1-1.15 0.85 1.15-0.85" fill="#b0af68" fill-rule="evenodd"/>
<path d="m55 29.7 1.45-0.2-2.6 2 7.25-0.7 2.35-0.2 0.1 0.1-2.3 1-1.7 0.75-4.95 0.3-5.9-1-5.9 2.2-1.95 0.3 2.5-1.4 5.85-2.35 5.65-0.75h0.15v-0.05m-4.55 22.4-3.2 2.35q5.55-1.1 10.75 0l2.2 0.5-6.1 1.65 4 2.6-9.5-3.15 3.25-0.55-10.15 0.5 2.75-1.15-9.6 0.75-5.45-2.05-1.2 0.55-7.85-3.5 3.6 2.4-7.5-1.25-13.3 0.1-3.15-0.75h13.85l-9.55-2.95-2.45-1.2q8.3 0.4 15.65 2.65l-2.75-2.9 9.15 4.35 0.5 0.25 1.7 0.8h0.05l1.6 0.75-1.6-0.75h2.45v0.8l0.9-1.25 1.25 1.55 1.15-0.7 0.85-0.55 2.4 2.3-0.15-0.45 1.85 0.05 1.3-0.15 5.65-0.8 6.65-0.9v0.1m-20.85 24.1 1.9-4.6h-0.4l7.7-3.5-9.2 8.1m-16.75-2.6-1 0.25 6.55-4.35 2.8-1.25-10.35-1-4.3 1.45-1.7 0.3 6.8-4.9-10.15 1.25 1.2-0.55 12.15-3.45-4.3-0.35-10.05-0.4q9.4-3.05 19.5-4.55l0.1 0.9-1 1.45-1.35 0.85v1.25l1.2 0.55q-1.4 0.7-2.75 1.45l5.5 2.35-4.75 1.15 14.25 1.5-4.25 0.85-14.1 5.25m-0.7-44.65-0.2-0.05-4.85-1.8 8.35 0.9-2.85-2.25 8.9 2.85 2.95 0.9-1-2.5 5 3 1.8 2.05-3.3-2v1.05l-6.75-1.75 2.15 1.75-10.2-2.15" fill="#d9e6d5" fill-rule="evenodd"/>
<path d="m59.55 32.45-2.35 1.05 2.15 1.6-7.9-1.9-1.5-0.35 2.5 2-1.55-0.3-5-1.15-1.35 0.25-1.75 0.3 5.9-2.2 5.9 1 4.95-0.3m-1.45 26.75 2.25 1.45 3 1.9-3.6-1.25-10.65-2.55q-4.8-1.2-10.1-0.65l1.1 2.25-6.5-3.7-0.85-0.3-0.4 2.15-2.5-3.15-1.5 1.3-2.7-0.6 1.2-0.8h-3l-0.75-0.35-0.75 0.35h-2.4l-11.35 0.35 4.05-1.6-9.5-2.15 13.3-0.1 7.5 1.25-3.6-2.4 7.85 3.5 1.2-0.55 5.45 2.05 9.6-0.75-2.75 1.15 10.15-0.5-3.25 0.55 9.5 3.15m-5.5 4.75 4.75 4.75-6.25-1.75 8.75 7.75-11.2-2.6 2.45 3.1-12.25-4.05-0.1-0.05-9.15 5.1 9.2-8.1-7.7 3.5q-9.1-0.1-18.25 2l14.1-5.25 4.25-0.85-14.25-1.5 4.75-1.15-5.5-2.35q1.35-0.75 2.75-1.45h0.05l2 0.85v-1l0.45-0.3 0.8 0.9h1l1.1-2.75 0.1-0.5 0.9 0.65 1.5 0.6-1.5 2.25 1.15 0.5h1.35l0.5 0.65h1.65l1.3-2.5 1.8 0.95h1.35l-1.1 1.3-0.2 0.15-0.8 0.45 0.75 0.9 0.3 0.1 1.35 0.5 0.9-0.35 0.85 0.75h1l1.3-2.7 2.85-0.15-0.45 0.8-0.6 2.05 1 0.4 0.9 0.35 2.35-0.75 0.35-0.95h1.3l0.85-1.8h1.4l0.6-2.4 1.1-0.25 0.55 2.6 1.6 1.6m-34.2 5.55q-4.65-2-11.85-0.8l4.3-1.45 10.35 1-2.8 1.25m-15.7-4.7 7.85-3.8 4.3 0.35-12.15 3.45m7.9-13.7-6.3-2.95 9.55 2.95h-3.25m11.75-18.75-7.75 0.4 4.5-1.25-6.95-2.55 10.2 2.15-2.15-1.75 6.75 1.75v-1.05l3.3 2 0.95 1.05-1.6-0.35-0.2-0.25-0.45-0.25 0.25 0.4-2.5-0.55-1.85 0.1-1.25 0.1-1.25 0.05m25.9 39.25 0.4 0.5-0.4-0.5" fill="#b9d1b1" fill-rule="evenodd"/>
<path d="m60.35 60.65 0.15-0.2 2.5-0.45 0.6-2.85-1.6-3.25 1.1-1.75 2.15-0.5 1.75-0.75 2.75 1.35 0.75 1.9 2.75-1.15 1.75-3.75 0.1-0.5q6.15 0.65 10.6 2.05 5.35 1.7 5.8 3.45-1.35 1.35-9 2.35l-12 1.4-0.75 0.25 1.7 1 1.8 0.75q-0.55 1.3-7.8 2.3l-2.1 0.25-7.35 0.45h-0.25l0.75 0.5v0.05l-3.9 0.4-1.6-1.6-0.55-2.6 1.15-0.25 2.65 1.15 1.25 1.75 3.6-0.4 0.65-0.7 3.6 1.25-3-1.9" fill-opacity=".2902" fill-rule="evenodd"/>
<path d="m41.45 47.15q-0.85-1.7-0.85-4.4 0-3.4 1.8-5.05 1.75-1.7 4-2.2l1.85 0.1q1.1 0.4 2.05 1.6l0.4 0.65q1.15 1.95 0.75 4.65-0.45 3.15-2.05 5.55l-0.5 0.75q-1.05 1.15-2.1 1.4l-2.4-0.15-1.7-1.25-0.75-0.9-0.5-0.75m-10.6-0.25 1.15-0.5 0.85 1.9 1.9 4.5 0.25 1 0.15 0.45-2.4-2.3-1.45-1.35-0.35-0.35-1.45 1.4-0.9 1.25v-0.8l-0.1-1.35 1.85-2.95 0.5-0.9m-5.9-4.2-0.15-2q0-2.7 0.95-4.6 0.9-1.85 1.95-1.6t2.15 2q0.65 1 0.95 2.3l0.1 0.35v0.1l0.2 1.55q0.1 2.55-0.85 4.4-0.95 1.9-2.25 1.9-1.35 0-2.25-1.9-0.5-0.95-0.7-2.1l-0.1-0.4" fill="#663" fill-rule="evenodd"/>
<path d="m62.6 8.9v7.6l1.5 5-0.5 3.9 1.25 1.75 3.15 3.15 2-2.4 0.6-5.15 3.5-4.5 0.05-4.05-2.65-6.95-8.4-2.75-7.1-3.25-1.75-0.15 5.75 3.3 2.6 4.5m-7.75 20.85 0.15-0.05 1.45-0.2-2.6 2 7.25-0.7-1.25-2.65m3.6 2.45 0.45-0.05-0.35 0.15-2.3 1-1.7 0.75-2.35 1.05 2.15 1.6-7.9-1.9-1.5-0.35 2.5 2-1.55-0.3-5-1.15-1.35 0.25-1.75 0.3m23.2-1.15v-0.15l-1.15-5.5m10.65-9.3-1.35-3.65m0.95 34.55 0.4-2.1v-1.65l3.6-4.1v-2.25l1-1.5-1-4.75v-5l-3.6-9.55m-5.25 23.1h-0.35l-0.8-1.05-2.25-0.75-2.1 1.5h-2.15l-1.5-1.65-0.75-2.6 0.9-2.65v-2.05m-10.5 20.25-0.3 0.15-3.2 2.35q5.55-1.1 10.75 0l2.2 0.5-6.1 1.65 4 2.6 2.25 1.45 0.15-0.2 1.35-1.55m1.25-18.25 2.15-3.15 0.75-4.7m-4.9-2 2.35-0.2m-1.45 23.3 0.6-2.75 1.15-2.15h1.6l0.65-0.55 0.15-0.2 1-0.95 2.45-0.8m-7.6 7.4 1.1-1.75 2.15-0.5 1.75-0.75 2.75 1.35 0.75 1.9 2.75-1.15 1.75-3.75 0.1-0.5m-22.5 15.2 4.75 4.75-6.25-1.75 8.75 7.75-11.2-2.6 2.45 3.1-12.25-4.05-0.1-0.05-9.15 5.1 1.9-4.6h-0.4q-9.1-0.1-18.25 2l-1 0.25 6.55-4.35q-4.65-2-11.85-0.8l-1.7 0.3 6.8-4.9-10.15 1.25 1.2-0.55 7.85-3.8-10.05-0.4q9.4-3.05 19.5-4.55l-0.05-0.8-11.35 0.35 4.05-1.6-9.5-2.15-3.15-0.75h10.6l-6.3-2.95-2.45-1.2q8.3 0.4 15.65 2.65l-2.75-2.9 9.15 4.35 0.2-0.3-0.85-3-3.4-4.5 1-3.1 1.5-0.65 1.4-2.35-1.4-4.8-7.75 0.4 4.5-1.25-6.95-2.55m-0.2-0.05-4.85-1.8 8.35 0.9-2.85-2.25 8.9 2.85-0.65-4.95 0.5-2.65 9.5-16.75 2.5-2.35 7.5-1.9 13.4 1.1m13.75 29.2-2 2.35m-5.5 27.8 2.5-0.45 0.6-2.85-1.6-3.25m-11.55 5.85 1.15-0.25 2.65 1.15 1.25 1.75 3.6-0.4 0.65-0.7-10.65-2.55q-4.8-1.2-10.1-0.65l1.1 2.25-6.5-3.7m-5.25 0-3.15-0.3-0.45 0.3-0.3 1.6 0.9 0.65 1.5 0.6 0.9-0.85h2l1.75 1.35-0.2 0.4 1.8 0.95h1.35l0.4-0.45 2.5-0.75 1.75 1.6-0.3 0.7 2.85-0.15 0.45-0.8 1.9-0.05 0.5-0.05 1 1.85-0.3 0.95h1.3l0.85-1.8h1.4l0.6-2.4 1.1-0.25 0.55 2.6 1.6 1.6m7.15-2.65 3.6 1.25-3-1.9m-27.75-28.6-4.1-4.3-2.15-0.25m28.5 2.25-5.65 0.75-5.85 2.35-2.5 1.4 1.95-0.3m-1.35 13.2q-0.85-1.7-0.85-4.4 0-3.4 1.8-5.05 1.75-1.7 4-2.2l1.85 0.1q1.1 0.4 2.05 1.6l0.4 0.65m-12.55 15.85 5.65-0.8m-2.35-5.75 0.5 0.75 0.75 0.9 1.7 1.25 2.4 0.15q1.05-0.25 2.1-1.4l0.5-0.75q1.6-2.4 2.05-5.55 0.4-2.7-0.75-4.65m-12.35-3.6 1.6-1.25-3.6 0.5-3.75-1.45 1.5 1.6m-4.5-0.9-0.4-0.1m1.65 14.25 1.15-0.5 0.85 1.9 1.9 4.5 0.25 1 1.85 0.05 1.3-0.15m1.8-20.7 4.05-3.35 4-0.65m2.75 22.95-0.3 0.05-6.65 0.9m-18.95-20.7 1.85-0.1 2.5 0.55m0.4 0.1 1.6 0.35-0.95-1.05-1.8-2.05-5-3 1 2.5-2.95-0.9m3.45 14.1-0.15-2q0-2.7 0.95-4.6 0.9-1.85 1.95-1.6t2.15 2q0.65 1 0.95 2.3m0.1 0.35v0.1l0.2 1.55q0.1 2.55-0.85 4.4-0.95 1.9-2.25 1.9-1.35 0-2.25-1.9-0.5-0.95-0.7-2.1m5.3 4.7 0.5-0.9m-7.25-14.6 1.25-0.1m-2.5 0.15 1.25-0.05m0.8 19 1.7 0.8h0.05-0.05m-1.7-0.8-0.5-0.25m3.85 1.8-1.6-0.75h2.45l-0.1-1.35 1.85-2.95m-0.85 3.85-0.9 1.25v-0.8m0.9-0.45 1.25 1.55 1.15-0.7 0.85-0.55 2.4 2.3-0.15-0.45m-3.7-3.2-0.35-0.35-1.45 1.4m3.25 0.3-1.45-1.35m-2.95 6.05 1.5-1.3 2.5 3.15 0.4-2.15 0.85 0.3m-2.3 3.75-1.3 2.5h-1.65l-0.5-0.65h-1.35l-1.15-0.5 1.5-2.25m7.6 1.85-1.1 1.3-0.2 0.15-0.8 0.45 0.75 0.9 0.3 0.1 1.35 0.5 0.9-0.35 0.95-0.4m-12.75-8.75h-1.5m-0.4 0h-2m5.7 0.8-0.45 0.3m-5.1 0.6 0.4-0.55 0.75-0.65 1.75 0.9h1.75m-2.8-1.4h0.4m1.5 0h3l-1.2 0.8m-1.2 2.2-0.1 0.5-1.1 2.75h-1l-0.8-0.9-0.45 0.3v1l-2-0.85h-0.05l-1.2-0.55v-1.25l1.35-0.85 1-1.45-0.1-0.9m1.45 4.55 1.15-0.85m13.05 4.65 0.85 0.75h1l1.3-2.7m2.85-0.15-0.45 0.8-0.6 2.05 1 0.4 0.9 0.35 2.35-0.75 0.35-0.95m3.45 7.9-0.4-0.5" fill="none" stroke="#000" stroke-linecap="round" stroke-linejoin="round" stroke-opacity=".4" stroke-width=".5"/>
<path d="m30.8 38.8 0.1 0.35" fill="none" stroke="#f39" stroke-linecap="round" stroke-linejoin="round" stroke-width=".05"/>
</g>
</defs>
</svg>
