<?xml version="1.0" encoding="UTF-8"?>
<svg version="1.1" viewBox="0 0 132.33 112.31" xmlns="http://www.w3.org/2000/svg" xmlns:cc="http://creativecommons.org/ns#" xmlns:dc="http://purl.org/dc/elements/1.1/" xmlns:rdf="http://www.w3.org/1999/02/22-rdf-syntax-ns#" xmlns:xlink="http://www.w3.org/1999/xlink">
<metadata>
<rdf:RDF>
<cc:Work rdf:about="">
<dc:format>image/svg+xml</dc:format>
<dc:type rdf:resource="http://purl.org/dc/dcmitype/StillImage"/>
</cc:Work>
</rdf:RDF>
</metadata>
<g transform="translate(-208.55 -144.3)">
<use transform="matrix(1.7883 0 0 1.7883 208.55 144.3)" width="74" height="62.799999" xlink:href="#a"/>
</g>
<defs>
<g id="a" transform="translate(.25 .25)">
<use transform="translate(-.25 -.25)" width="74" height="62.799999" xlink:href="#b"/>
</g>
<g id="b" transform="translate(.25 .25)">
<path d="m53.75 3.65 2.65 6.95-0.05 4.05-3.5 4.5-0.6 5.15-2 2.4-3.15-3.15-1.25-1.75 0.5-3.9-1.5-5 1.3-5-1.3 5 1.5 5-0.5 3.9 1.25 1.75 3.15 3.15 2-2.4 0.6-5.15 3.5-4.5 0.05-4.05 1.35 3.65-0.75 2.15-1.9 2.9 1.75 4.6-3.1 4.9-3.5 1.6-2-1.2-1.9-1.15-1.6-2.65-2.65-0.85 1.4 3v2.6l-0.9 2.65 0.75 2.6 1.5 1.65h2.15l2.1-1.5 2.25 0.75 0.8 1.05h2.6l3-2.05 1.35 0.25 0.5 2-4.6 3.75-1.9-1.15h-4.5l-1.1 2.15h-2.15l-3.6 3.35v3.25l-1.75 2.25-3.4 0.9-3.1-0.65-3.25 1.15-2.85-0.8-1.25-1.95 0.45 0.25h3l3.35-1.65 0.6 1 2.5 1.25q1.45-0.35 2.6-1.9v-2.1l-1.1-1.65-1.5 0.4h-0.75l0.95-2.25-0.65-5.35-0.6-4.9-2.25-2.4 4.5-4.35-4.15-0.75h-2.85l-3.75-1.1-5.15 2.85h-4.5l-3.85-3.6-4.4 0.35-1.45-1.25 5.85-1.85 6 1.85 10.95-3.6 4.65-4.85 0.3-0.7 0.75-0.2 1.3-0.35 0.6-0.2 3.6-1.1 5-3.75 0.75-2.6h1.7l0.5-1.9 4.65 0.25m-51.25 47.1 2.1-0.95 1.75-2.65 2 3.4v-3.5l0.95-2.8 0.7 0.4 2.6-0.45-1.85 2.95 0.1 2.15 0.9-1.25 1.45-1.4 0.35 0.35 0.7 2.3 2.2 2.85-1.85 2.75-3.35-0.75-0.65-1.1-3-0.65-2.25-1.1-0.95 0.45-1.9-1m-0.4-11.1 1-3.1 1.5-0.65 1.4-2.35-2-6.75 2.4 2.45v4.15l-0.65 3.5 0.65 3.5 0.85 2.25-1.65-1.25-3.5-1.75m40.45-33.6 2.3-0.75h1.15l-1.1 2.35-2.55 0.8 0.55-1.8-0.35-0.6m-0.55 0.2-0.1 0.9-2.85 2.25-1.4 0.6-0.1 0.05-0.2-0.55 3.25-2.85 1.4-0.4m8.25 20.45-2 2.35v0.15-0.15l-1.15-5.5 1.15 5.5 2-2.35m-39.05 1.95 0.45 0.25 3.75 4.75 1.75-0.65-0.8-2.95-1.5-1.6 3.75 1.45 3.6-0.5-1.6 1.25h-1.6v2.1l3 1.15-3.35 3.75-0.3 5.15h-4.1l-1.15 0.5 1-3.4-0.05-0.25 0.35-3-0.65-3.9-2.55-4.1m8.55 16.25 1 4.35-1 2.15-2.5-1.2-0.25-1-1.9-4.5 3.15 1.6 1.5-1.4" fill="#cc9" fill-rule="evenodd"/>
<path d="m53.75 3.65-4.65-0.25-0.5 1.9h-1.7l-0.4-1.15 0.4 1.15h-2.05l-2.3 0.75-0.5-0.8 0.5 0.8-0.55 0.2-1.4 0.4-3.25 2.85-0.7-1.5-1.15-0.8 3.25-2.3v-2l2.4-2.7h0.05l2.15-0.2 2 0.9 8.4 2.75m-29.9 58.3-1-0.4 0.5-1.65 0.1-0.4 0.9-1.6 1.9-0.05-2.4 4.1m-8.2-1.3-0.3-0.1-0.75-0.9 0.8-0.45 0.2-0.15 1.1-1.3 0.4-0.45 2.5-0.75-1 1.85-2.95 2.25m-6.9-2-1.15-0.5 0.55-0.75 0.95-1.5 0.9-0.85h2l-3.25 3.6m-7.5-1.2-1.25-0.55v-1.25l1.35-0.85 1-1.45 0.4-0.55 0.75-0.65 1.75 0.9-4 4.4m2.75-30.65-0.9-6.75 0.5-2.65 1.55-2.7 5.85-3.55h11.9l3.5 0.5 3.75-1.3 3.25 0.15 1.3 0.75-3.05 1.25h-9.6l-4.1 1.95 4.8-0.7 9.9 0.4 2.25-0.65-0.3 0.7-4.65 4.85-10.95 3.6-6-1.85-5.85 1.85 1.45 1.25 2.15 0.25 4.1 4.3 1.5 1.6 0.8 2.95-1.75 0.65-3.75-4.75-0.45-0.25-2.55-1.5-2.25 2.1-2.4-2.45m8.25-9.8 2.5-2.1 3.2-0.45-3.2 0.45-2.5 2.1m18 8.4h2.85l4.15 0.75-4.5 4.35-2.45-1.15-4.15 0.8-4.15 3.75-3-1.15v-2.1h1.6l1.6-1.25 4.05-3.35 4-0.65m5.35 12.4 0.65 5.35-0.95 2.25h-1.5l-0.75-1.15v-2.6l0.65-2.75q0.4-2.7-0.75-4.65l2.65 3.55m-2.65 10.6-3.35 1.65h-3l-2.05-2.85-0.85-3.65 0.5 0.75 0.4 0.5 0.35 0.4 1.7 1.25 2.4 0.15 1.25-0.6 1.6 0.75 1.05 1.65m-19.8-12.75 0.9 4 0.05 0.25-1 3.4-0.5 0.9-2.6 0.45-0.7-0.4-1.8-0.95-0.2-3.8q0.2 1.15 0.7 2.1 0.9 1.9 2.25 1.9 1.3 0 2.25-1.9 0.95-1.85 0.85-4.4l-0.2-1.55m1.1 7.15h4.1l1.4 2.1-1.5 1.4-3.15-1.6-0.85-1.9" fill="#d9d9b7" fill-rule="evenodd"/>
<path d="m46.9 5.3-0.75 2.6-5 3.75-3.6 1.1 4.6-3.75 0.2-0.55-0.2 0.55-4.6 3.75-0.6 0.2 0.05-0.3-0.25-2.3-0.85-1.6-1.15-1 0.75-0.55 1.15 0.8 0.7 1.5 0.2 0.55 0.1-0.05 1.4-0.6 2.85-2.25 0.1-0.9 0.55-0.2 0.35 0.6-0.55 1.8 2.55-0.8 1.1-2.35h0.9m10.85 8.95 3.6 9.55v5l1 4.75-1 1.5v2.25l-3.6 4.1v1.65l-0.4 2.1-0.1 0.5-1.75 3.75-2.75 1.15-0.75-1.9-2.75-1.35-1.75 0.75-2.15 0.5-1.1 1.75 0.6-2.75 1.15-2.15h1.6l0.65-0.6 0.15-0.15 1-0.95 2.45-0.8-2.45 0.8-1 0.95-0.15 0.15-0.65 0.6h-1.6l-1.15 2.15-0.6 2.75 1.6 3.25-0.6 2.85-2.5 0.45-1.4 1.55-3.6 0.4-1.25-1.75-2.65-1.15-2.25 0.5-0.6 2.4h-1.4l-0.7 1.5-0.15 0.3h-1.3l-0.35 0.95-2.35 0.75-0.9-0.35 2.4-4.1-1.9 0.05-0.45 0.8-2.85 0.15-0.35 0.8-0.95 1.9h-1l-0.85-0.75-0.9 0.35-1.35-0.5 2.95-2.25 1-1.85 1.75 1.6-0.3 0.7 0.3-0.7-1.75-1.6-2.5 0.75-0.4 0.45h-1.35l-1.8-0.95-0.95 1.85-0.35 0.65h-1.65l-0.5-0.65h-1.35l3.25-3.6 1.75 1.35-0.2 0.4 0.2-0.4-1.75-1.35h-2l-0.9 0.85-1.5-0.6-0.9-0.65-0.1 0.5-0.65 1.6-0.45 1.15h-1l-0.8-0.9-0.45 0.3v1l-2-0.85 4-4.4h1.75l-0.3 1.6 0.3-1.6h-1.75l-1.75-0.9-0.75 0.65-0.4 0.55-0.25-2.45 0.4-0.15 1.9 1 0.95-0.45 2.25 1.1 3 0.65 0.65 1.1 3.35 0.75 1.85-2.75-2.2-2.85-0.7-2.3 3.85 3.65-0.15-0.45 2.5 1.2 1-2.15-1-4.35-1.4-2.1 0.3-5.15 3.35-3.75 4.15-3.75 4.15-0.8 2.45 1.15 2.25 2.4 0.6 4.9-2.65-3.55-0.4-0.65q-0.95-1.2-2.05-1.6l-1.85-0.1q-2.25 0.5-4 2.2-1.8 1.65-1.8 5.05 0 2.7 0.85 4.4l0.85 3.65 2.05 2.85-0.45-0.25 1.25 1.95 2.85 0.8 3.25-1.15 3.1 0.65 3.4-0.9 1.75-2.25v-3.25l3.6-3.35h2.15l1.1-2.15h4.5l1.9 1.15 4.6-3.75-0.5-2-1.35-0.25-3 2.05h-2.6l-0.8-1.05-2.25-0.75-2.1 1.5h-2.15l-1.5-1.65-0.75-2.6 0.9-2.65v-2.6l-1.4-3 2.65 0.85 1.6 2.65 1.9 1.15-0.75 4.7-2.15 3.15 2.15-3.15 0.75-4.7 2 1.2 3.5-1.6 3.1-4.9-1.75-4.6 1.9-2.9 0.75-2.15m-51.4 32.9-0.85-3-3.4-4.5 3.5 1.75 1.65 1.25-0.85-2.25-0.65-3.5 0.65-3.5v-4.15l2.25-2.1 2.55 1.5 2.55 4.1 0.65 3.9-0.35 3-0.9-4v-0.1l-0.1-0.35q-0.3-1.3-0.95-2.3-1.1-1.75-2.15-2t-1.95 1.6q-0.95 1.9-0.95 4.6 0 1.05 0.15 2l0.1 0.4 0.2 3.8 1.8 0.95-0.95 2.8v3.5l-2-3.4m28.35-35.9 0.7 0.5 0.25 1.55-0.75 0.2-2.25 0.65-9.9-0.4-4.8 0.7 4.1-1.95h9.6l3.05-1.25m-26.1 12.65 4.4-0.35 3.85 3.6h4.5l5.15-2.85 3.75 1.1-4 0.65-4.05 3.35-3.6 0.5-3.75-1.45-4.1-4.3-2.15-0.25m29.05-13.9-0.65 2.65 0.65-2.65m6.45 45.3-1.35 1.55 1.35-1.55m-16.65 5.3 0.3-0.95-1-1.85-0.5 0.05 0.5-0.05 1 1.85-0.3 0.95m-8.6-0.2-0.95 0.4 0.95-0.4m-14-4.25-1.15 0.85 1.15-0.85" fill="#b0af68" fill-rule="evenodd"/>
<path d="m57.35 45.15q6.15 0.65 10.6 2.05 5.35 1.7 5.8 3.45-1.35 1.35-9 2.35l-12 1.4-0.75 0.25 1.7 1q1.35 0.75 1.8 0.75-0.55 1.3-7.8 2.3l-9.45 0.7h-0.25l0.75 0.5v0.05l-5.4 0.45-4.45-0.1 0.7-1.5h1.4l0.6-2.4 2.25-0.5 2.65 1.15 1.25 1.75 3.6-0.4 1.4-1.55 2.5-0.45 0.6-2.85-1.6-3.25 1.1-1.75 2.15-0.5 1.75-0.75 2.75 1.35 0.75 1.9 2.75-1.15 1.75-3.75 0.1-0.5m-34 14.75-2.65-0.25 0.35-0.8 2.85-0.15-0.45 0.8-0.1 0.4m-7.95-0.7-0.4-0.05-2.4-0.5 0.95-1.85 1.8 0.95h1.35l-1.1 1.3-0.2 0.15m-7.25-1.8-2.2-0.65 0.65-1.6 0.1-0.5 0.9 0.65 1.5 0.6-0.95 1.5" fill-opacity=".2902" fill-rule="evenodd"/>
<path d="m23.7 43.55q-0.85-1.7-0.85-4.4 0-3.4 1.8-5.05 1.75-1.7 4-2.2l1.85 0.1q1.1 0.4 2.05 1.6l0.4 0.65q1.15 1.95 0.75 4.65l-0.65 2.75q-0.25 1.45-1 1.5-0.75 0-1.45 0.75l-0.8 0.6-1.85 0.7q-1.4 0.55-3.35-0.4l-0.4-0.5-0.5-0.75m-16.5-4.45q-0.15-0.95-0.15-2 0-2.7 0.95-4.6 0.9-1.85 1.95-1.6t2.15 2q0.65 1 0.95 2.3l0.1 0.35v0.1l0.2 1.55q0.1 2.55-0.85 4.4-0.95 1.9-2.25 1.9-1.35 0-2.25-1.9-0.5-0.95-0.7-2.1l-0.1-0.4m5.4 5.1 0.5-0.9 1.15-0.5 0.85 1.9 1.9 4.5 0.25 1 0.15 0.45-3.85-3.65-0.35-0.35-1.45 1.4-0.9 1.25-0.1-2.15 1.85-2.95" fill="#663" fill-rule="evenodd"/>
<path d="m32.95 48.4-1.05-1.65-1.6-0.75-1.25 0.6-2.4-0.15-1.7-1.25-0.35-0.4q1.95 0.95 3.35 0.4l1.85-0.7 0.8-0.6q0.7-0.75 1.45-0.75 0.75-0.05 1-1.5v2.6l0.75 1.15h1.5l-0.95 2.25-1.4 0.75" fill="#8cd9d9" fill-rule="evenodd"/>
<path d="m35.3 45.4h0.75l1.5-0.4 1.1 1.65v2.1q-1.15 1.55-2.6 1.9l-2.5-1.25-0.6-1 1.4-0.75 0.95-2.25" fill="#6cc" fill-rule="evenodd"/>
<path d="m56.4 10.6-2.65-6.95m-6.85 1.65-0.75 2.6-1.3 5 1.5 5-0.5 3.9 1.25 1.75 3.15 3.15 2-2.4 0.6-5.15 3.5-4.5 0.05-4.05 1.35 3.65 3.6 9.55v5l1 4.75-1 1.5v2.25l-3.6 4.1v1.65l-0.4 2.1m-28.45 15.15-0.15 0.3h-1.3l-0.35 0.95-2.35 0.75-0.9-0.35-1-0.4 0.5-1.65m-2.65-0.25-0.95 1.9h-1l-0.85-0.75-0.9 0.35-1.35-0.5-0.3-0.1-0.75-0.9 0.8-0.45 0.2-0.15 1.1-1.3h-1.35l-1.8-0.95-0.95 1.85-0.35 0.65h-1.65l-0.5-0.65h-1.35l-1.15-0.5 0.55-0.75 0.95-1.5 0.9-0.85h2l1.75 1.35-0.2 0.4m-7.6-0.05-0.45 1.15h-1l-0.8-0.9-0.45 0.3v1l-2-0.85-1.25-0.55v-1.25l1.35-0.85 1-1.45-0.25-2.45 0.4-0.15 2.1-0.95 1.75-2.65-0.85-3-3.4-4.5 1-3.1 1.5-0.65 1.4-2.35-2-6.75-0.9-6.75 0.5-2.65 1.55-2.7 5.85-3.55h11.9l3.5 0.5 3.75-1.3 3.25 0.15 1.3 0.75 0.7 0.5 0.25 1.55 1.3-0.35 0.05-0.3-0.25-2.3-0.85-1.6-1.15-1 0.75-0.55 3.25-2.3v-2l2.4-2.7h0.05l2.15-0.2 2 0.9 8.4 2.75m-6.85 1.65-0.4-1.15m-4.15 4.3-0.2 0.55-4.6 3.75 3.6-1.1 5-3.75m-3.6-1.85-0.5-0.8m-4.7 4.25 0.2 0.55m4.8-1.6 0.55-1.8-0.35-0.6m9.95 31.3h-0.35l-0.8-1.05-2.25-0.75-2.1 1.5h-2.15l-1.5-1.65-0.75-2.6 0.9-2.65v-2.6l-1.4-3m6.15 4.65v-0.15l-1.15-5.5m1.15 5.5 2-2.35m-4.9 10.35 2.15-3.15 0.75-4.7m-4 21.1 0.6-2.75 1.15-2.15h1.6l0.65-0.6 0.15-0.15 1-0.95 2.45-0.8m-7.6 7.4 1.1-1.75 2.15-0.5 1.75-0.75 2.75 1.35 0.75 1.9 2.75-1.15 1.75-3.75 0.1-0.5m-21.85-37.95 1.15 0.8 0.7 1.5m-2.45 4-2.25 0.65-9.9-0.4-4.8 0.7-3.2 0.45-2.5 2.1m23.05 28.4h0.75l1.5-0.4 1.1 1.65v2.1q-1.15 1.55-2.6 1.9l-2.5-1.25-0.6-1-1.05-1.65-1.6-0.75-1.25 0.6-2.4-0.15-1.7-1.25-0.35-0.4q1.95 0.95 3.35 0.4l1.85-0.7 0.8-0.6q0.7-0.75 1.45-0.75 0.75-0.05 1-1.5l0.65-2.75q0.4-2.7-0.75-4.65m-9.25 9.3q-0.85-1.7-0.85-4.4 0-3.4 1.8-5.05 1.75-1.7 4-2.2l1.85 0.1q1.1 0.4 2.05 1.6l0.4 0.65m2.7-20.95-0.75 0.2m2.65-0.75-0.6 0.2m0.05-0.3 0.65-2.65m-22.8 18.45-4.1-4.3-2.15-0.25m7.75 6.15-1.5-1.6 3.75 1.45 3.6-0.5 4.05-3.35 4-0.65m-23.05 13.7q-0.15-0.95-0.15-2 0-2.7 0.95-4.6 0.9-1.85 1.95-1.6t2.15 2q0.65 1 0.95 2.3m0.1 0.35v0.1l0.2 1.55q0.1 2.55-0.85 4.4-0.95 1.9-2.25 1.9-1.35 0-2.25-1.9-0.5-0.95-0.7-2.1m5.3 4.7 0.5-0.9 1.15-0.5 0.85 1.9 1.9 4.5 0.25 1 0.15 0.45-3.85-3.65-0.35-0.35-1.45 1.4-0.9 1.25-0.1-2.15 1.85-2.95m8-13.55 1.6-1.25m2.4 15.4-0.4-0.5-0.5-0.75m11.6 1.85h-1.5l-0.75-1.15v-2.6m-4.15 18.65 0.7-1.5h1.4l0.6-2.4 2.25-0.5 2.65 1.15 1.25 1.75 3.6-0.4 1.4-1.55 1.35-1.55m-23.05 3.55 0.3-0.7-1.75-1.6m1.1 3.1 0.35-0.8 2.85-0.15 0.45-0.8 1.9-0.05 0.5-0.05 1 1.85-0.3 0.95m-3.55-1.9-0.45 0.8-0.1 0.4m-6.65-2.15 0.4-0.45 2.5-0.75m-1.7 4.25 0.95-0.4m-13.6-7.35h1.75l-0.3 1.6 0.9 0.65 1.5 0.6m-2.4-1.25-0.1 0.5-0.65 1.6m-3.6-3.4 0.4-0.55 0.75-0.65 1.75 0.9m-1.55 3.95 1.15-0.85m37.9 0.7 2.5-0.45 0.6-2.85-1.6-3.25" fill="none" stroke="#000" stroke-linecap="round" stroke-linejoin="round" stroke-opacity=".4" stroke-width=".5"/>
<path d="m13.05 35.2 0.1 0.35" fill="none" stroke="#f39" stroke-linecap="round" stroke-linejoin="round" stroke-width=".05"/>
</g>
</defs>
</svg>
