<?xml version="1.0" encoding="UTF-8" standalone="no"?>
<svg xmlns:ffdec="https://www.free-decompiler.com/flash" xmlns:xlink="http://www.w3.org/1999/xlink" ffdec:objectType="shape" height="184.8px" width="264.15px" xmlns="http://www.w3.org/2000/svg">
  <g transform="matrix(3.0, 0.0, 0.0, 3.0, -365.85, -264.75)">
    <path d="M201.7 125.75 L209.8 128.3 186.75 139.1 194.75 133.3 201.7 125.75" fill="#cccccc" fill-rule="evenodd" stroke="none"/>
    <path d="M175.1 147.65 L175.15 147.7 174.15 148.35 175.1 147.65 M171.75 149.75 L171.6 149.85 160.55 144.75 Q147.15 140.6 129.0 132.2 L129.2 132.25 130.9 132.5 Q141.75 134.3 157.3 142.05 167.05 143.2 170.3 146.15 L170.75 146.6 171.15 147.15 171.4 147.55 171.8 149.0 171.8 149.15 171.75 149.75" fill="#293d3d" fill-rule="evenodd" stroke="none"/>
    <path d="M203.85 117.95 Q206.6 117.55 210.0 121.05 206.45 119.95 203.85 123.15 L203.85 117.95" fill="#9b7c4a" fill-rule="evenodd" stroke="none"/>
    <path d="M143.75 109.75 L143.4 110.1 142.85 110.25 143.75 109.75" fill="#c0ab7a" fill-rule="evenodd" stroke="none"/>
    <path d="M192.75 120.35 Q192.5 118.85 191.55 117.75 L190.95 117.05 190.25 116.25 Q197.75 118.85 203.85 117.95 L203.85 123.15 201.7 125.75 194.75 133.3 194.8 133.2 186.3 137.3 Q180.75 139.85 175.7 142.8 L171.8 145.15 170.3 146.15 Q167.05 143.2 157.3 142.05 L163.4 140.25 185.05 133.7 Q187.55 132.85 185.85 133.3 L185.6 133.35 183.05 133.95 187.75 131.75 Q200.6 124.65 192.75 120.35" fill="#cdc16d" fill-rule="evenodd" stroke="none"/>
    <path d="M143.4 110.1 L136.8 117.75 Q136.25 118.3 135.95 119.0 133.8 119.5 135.7 125.7 137.55 131.85 156.25 135.35 171.6 138.25 183.05 133.95 L185.6 133.35 185.85 133.3 Q187.55 132.85 185.05 133.7 L163.4 140.25 157.3 142.05 Q141.75 134.3 130.9 132.5 L130.05 131.25 129.1 129.5 Q126.2 123.1 130.9 116.75 136.0 118.25 142.85 110.25 L143.4 110.1" fill="#999346" fill-rule="evenodd" stroke="none"/>
    <path d="M135.95 119.0 Q135.9 120.6 136.2 122.1 L136.35 122.65 Q136.75 124.4 137.75 125.95 L138.05 126.35 Q140.6 130.0 146.35 132.15 159.3 136.95 171.55 134.6 180.15 132.9 188.45 127.7 192.85 124.95 192.75 120.35 200.6 124.65 187.75 131.75 L183.05 133.95 Q171.6 138.25 156.25 135.35 137.55 131.85 135.7 125.7 133.8 119.5 135.95 119.0" fill="#94854b" fill-rule="evenodd" stroke="none"/>
    <path d="M129.0 132.2 L128.9 132.2 Q117.45 122.05 124.85 110.45 127.5 115.75 130.9 116.75 126.2 123.1 129.1 129.5 L130.05 131.25 130.9 132.5 129.2 132.25 129.0 132.2" fill="#74683a" fill-rule="evenodd" stroke="none"/>
    <path d="M186.75 139.1 L175.1 147.65 174.15 148.35 172.4 149.6 172.1 149.7 171.75 149.85 171.75 149.75 171.8 149.15 171.8 149.0 171.4 147.55 171.15 147.15 170.75 146.6 170.3 146.15 171.8 145.15 175.7 142.8 Q180.75 139.85 186.3 137.3 L194.8 133.2 194.75 133.3 186.75 139.1" fill="#dcd39a" fill-rule="evenodd" stroke="none"/>
    <path d="M164.15 98.9 L164.25 99.35 164.3 99.85 164.2 100.15 164.05 100.5 162.3 100.4 162.05 99.6 162.1 99.1 Q162.45 98.5 163.15 98.4 163.65 98.45 164.0 98.8 L164.15 98.9 M172.4 105.6 Q168.55 106.75 167.25 103.15 165.65 98.7 170.0 97.1 175.8 98.1 174.65 103.3 174.2 105.1 172.4 105.6 M164.9 110.05 Q164.2 110.55 163.75 109.85 161.9 107.25 164.55 105.95 168.65 107.55 164.9 110.05" fill="#ffffff" fill-rule="evenodd" stroke="none"/>
    <path d="M190.95 117.05 L189.45 120.3 Q180.65 128.15 169.15 129.7 152.3 132.0 146.45 117.75 147.6 111.6 151.95 106.8 L154.1 104.15 154.75 103.15 155.0 102.75 Q159.95 94.65 168.6 92.7 L169.55 92.4 169.3 92.1 190.25 116.25 190.95 117.05 M164.15 98.9 L164.0 98.8 Q163.65 98.45 163.15 98.4 162.45 98.5 162.1 99.1 L162.05 99.6 162.3 100.4 164.05 100.5 164.2 100.15 164.3 99.85 164.25 99.35 164.15 98.9 M164.9 110.05 Q168.65 107.55 164.55 105.95 161.9 107.25 163.75 109.85 164.2 110.55 164.9 110.05 M172.4 105.6 Q174.2 105.1 174.65 103.3 175.8 98.1 170.0 97.1 165.65 98.7 167.25 103.15 168.55 106.75 172.4 105.6" fill="url(#gradient0)" fill-rule="evenodd" stroke="none"/>
    <path d="M143.75 109.75 L161.05 89.8 Q162.35 88.3 164.2 88.25 166.0 88.3 167.3 89.8 L169.3 92.1 169.55 92.4 168.6 92.7 Q159.95 94.65 155.0 102.75 L154.75 103.15 154.1 104.15 151.95 106.8 Q147.6 111.6 146.45 117.75 152.3 132.0 169.15 129.7 180.65 128.15 189.45 120.3 L190.95 117.05 191.55 117.75 Q192.5 118.85 192.75 120.35 192.85 124.95 188.45 127.7 180.15 132.9 171.55 134.6 159.3 136.95 146.35 132.15 140.6 130.0 138.05 126.35 L137.75 125.95 Q136.75 124.4 136.35 122.65 L136.2 122.1 Q135.9 120.6 135.95 119.0 136.25 118.3 136.8 117.75 L143.4 110.1 143.75 109.75" fill="#7f7f7f" fill-rule="evenodd" stroke="none"/>
  </g>
  <defs>
    <linearGradient gradientTransform="matrix(0.0272, 0.0, 0.0, 0.0231, 168.7, 111.05)" gradientUnits="userSpaceOnUse" id="gradient0" spreadMethod="pad" x1="-819.2" x2="819.2">
      <stop offset="0.0" stop-color="#808080"/>
      <stop offset="1.0" stop-color="#ffffff"/>
    </linearGradient>
  </defs>
</svg>
