<?xml version="1.0" encoding="UTF-8"?>
<svg version="1.1" viewBox="0 0 94.6 77.4" xmlns="http://www.w3.org/2000/svg" xmlns:cc="http://creativecommons.org/ns#" xmlns:dc="http://purl.org/dc/elements/1.1/" xmlns:rdf="http://www.w3.org/1999/02/22-rdf-syntax-ns#" xmlns:xlink="http://www.w3.org/1999/xlink">
<metadata>
<rdf:RDF>
<cc:Work rdf:about="">
<dc:format>image/svg+xml</dc:format>
<dc:type rdf:resource="http://purl.org/dc/dcmitype/StillImage"/>
</cc:Work>
</rdf:RDF>
</metadata>
<g transform="translate(-227.65,-161.75)">
<use transform="translate(227.65,161.75)" width="94.599998" height="77.400002" xlink:href="#a"/>
</g>
<defs>
<g id="a" transform="translate(-227.65,-161.75)">
<path d="m303.1 173.55 2.1 0.75-0.35 0.3q-0.75 0.5-1.4 1.05-5.05 4.15-5.9 8.1-0.55 2.05 0.25 4.15l-1.75-3.9q3.1-7.4 7.05-10.45m-15 10.05q7.8 3.75 7.7 8.05h-0.15q-0.4 8.35-4.7 12.95 6.85-1.3 12.75-1.15l0.2-0.05 4.2-6.15q0.6 0.3 1.35 0.6l0.05 0.05-4.55 6.85h-0.15q-20.35-1.2-22.5 12.1-0.9-1.85 0.75-7.7l-0.45 0.15q-23.8 3.6-27.8-8.6 0.9 1.7 2.75 3.1 5.1 4 15.2 4.6 10.05 0.55 15.55-5.55 5.5-6.15 5.5-9.6t-4.55-8.45l-0.25-0.35-0.9-0.85m-35.75 35.45q6.8-7.7 16.2-4.45v0.1q-5.2-1.2-13.9 6.25l-2.3-1.9" fill="#891414" fill-rule="evenodd"/>
<path d="m303.1 173.55-1.15-0.4h-0.05l-15.4-5.15q-0.65 0.45-1 0.8l-0.6 0.5-0.15 0.15-0.15 0.3-1.45 1.45-1.6-0.3-18.85 6-1.75-0.4h-0.15l-0.25-0.15-2.7-0.85h-0.05l-0.45-0.1-0.65-0.15h-0.1l-8.15 6.05 0.15 0.2 0.2 0.45 0.35 0.8 0.3 0.8 0.6 2.1-5.2 3.45-14.05 24.1-2.95-17.1 19.65-23.25 39.1-10.9 28.8 9.55 2.85 7.4-14.8-3.25q0.65-0.55 1.4-1.05l0.35-0.3-2.1-0.75" fill="#dee1d9" fill-rule="evenodd"/>
<path d="m283.15 171.2 1.45-1.45 0.15-0.3 0.15-0.15 0.6-0.5q0.35-0.35 1-0.8l15.4 5.15h0.05l1.15 0.4q-3.95 3.05-7.05 10.45l1.75 3.9 0.35 1 0.5 0.8q1.15 1.9 3.45 3.75 2.35 1.9 6 3.8l-4.2 6.15-0.2 0.05q-5.9-0.15-12.75 1.15 4.3-4.6 4.7-12.95h0.15q0.1-4.3-7.7-8.05-1.35-1.15-3.05-1.9l-1.7-0.6-1-0.3-6.45-0.45-4.75 0.5q-5.65 0.9-9.85 3.05-3.6 1.85-5.6 5.05-1.2 1.9-1.75 4.35-0.45 1.8-0.3 3.45l0.05 0.75q0.25 1.6 0.95 3l0.15 0.2q4 12.2 27.8 8.6l0.45-0.15q-1.65 5.85-0.75 7.7l-0.2 1.45-0.05 1.55-7.5 1.75h-0.05q-1.7-5.3-4.95-6.6l-0.3-0.15-0.7-0.15v-0.1q-9.4-3.25-16.2 4.45l-0.2-0.15-3.45-2.8v-0.05q6.35-10.1-8.95-13.7l0.1-0.3 2.15-4.8 0.65-0.2q3.9-1.45 5.8-3.8l1.25-2.1 0.5-1.75q0.25-1.75-0.15-3.75l-0.6-2.1-0.3-0.8-0.35-0.8-0.2-0.45-0.15-0.2 8.15-6.05h0.1l0.65 0.15 0.45 0.1h0.05l2.7 0.85 0.25 0.15h0.15l1.75 0.4 3.25 0.55 3.4 0.1 0.8-0.1 1.95-0.3 1.1-0.25 0.45-0.1 0.45-0.2 0.4-0.1 0.6-0.25q4.85-1.95 8.05-5.05" fill="#b41b1b" fill-rule="evenodd"/>
<path d="m282.35 180.8 1 0.3 1.7 0.6q1.7 0.75 3.05 1.9l0.9 0.85 0.25 0.35q4.55 5 4.55 8.45t-5.5 9.6q-5.5 6.1-15.55 5.55-10.1-0.6-15.2-4.6-1.85-1.4-2.75-3.1l-0.15-0.2q-0.7-1.4-0.95-3l-0.05-0.75 9.25-0.65q10.45-1.35 14.7-6.45 4.05-3.9 4.75-8.85" fill="#de2525" fill-rule="evenodd"/>
<path d="m303.45 175.65 14.8 3.25 2.15 5.7-2 8.05-16.3 0.8q-2.3-1.85-3.45-3.75l-0.5-0.8-0.35-1q-0.8-2.1-0.25-4.15 0.85-3.95 5.9-8.1m-72.65 37.55 14.05-24.1 5.2-3.45q0.4 2 0.15 3.75l-0.5 1.75-1.25 2.1q-1.9 2.35-5.8 3.8l-0.65 0.2-2.15 4.8-0.1 0.3q15.3 3.6 8.95 13.7v0.05l3.45 2.8 0.2 0.15 2.3 1.9q8.7-7.45 13.9-6.25l-7.8 12.4-4 0.5-11.95-7.75-8.9-1.85 0.05-0.55-4.85-2.4-0.3-1.85m31.9-36.3 18.85-6 1.6 0.3q-3.2 3.1-8.05 5.05l-0.6 0.25-0.4 0.1-0.45 0.2-0.45 0.1-1.1 0.25-1.95 0.3-0.8 0.1-3.4-0.1-3.25-0.55" fill="#cdd1c5" fill-rule="evenodd"/>
<path d="m317.9 194.6 0.5-1.95 2-8.05 1.65 14.05-1.6 6.4-2.55-10.45m-54.4 32.2 2.6-3.95 1.65 3.4 2.95 9.5-3.7 3.2-3.5-12.15m37.85-8.05-7.3-7.15v-0.05l10.2 7.15 1.75 6.1-4.65-6.05" fill="#646d54" fill-rule="evenodd"/>
<path d="m308.1 197.25q-3.65-1.9-6-3.8l16.3-0.8-0.5 1.95-3 12.95-7.35 6.7-13.5-2.7v0.05l7.3 7.15-9.55 4.45-4.95 0.7-4 0.5-15.1 1.85-1.65-3.4-2.6 3.95-2.75 0.3 7.8-12.4 0.7 0.15 0.3 0.15q3.25 1.3 4.95 6.6h0.05l7.5-1.75 0.05-1.55 0.2-1.45q2.15-13.3 22.5-12.1h0.15l4.55-6.85-0.05-0.05q-0.75-0.3-1.35-0.6" fill="#afb7a2" fill-rule="evenodd"/>
<path d="m253.65 196.75q-0.15-1.65 0.3-3.45 0.55-2.45 1.75-4.35 10.65 2.85 15.45-8.1l4.75-0.5 6.45 0.45q-0.7 4.95-4.75 8.85-4.25 5.1-14.7 6.45l-9.25 0.65" fill="#e96969" fill-rule="evenodd"/>
<path d="m255.7 188.95q2-3.2 5.6-5.05 4.2-2.15 9.85-3.05-4.8 10.95-15.45 8.1" fill="#f3abab" fill-rule="evenodd"/>
<path d="m282.85 224.4 4-0.5 2.1 9.45-4.85 0.7-1.25-9.65m-22.1 2.7 2.75-0.3 3.5 12.15-8.6-1.55-1.65-9.8 4-0.5m-24.85-9.1 0.45 8.85-3.55-1.75-1.7-10.05 4.85 2.4-0.05 0.55" fill="#b1b9a4" fill-rule="evenodd"/>
<path d="m267.75 226.25 15.1-1.85 1.25 9.65-13.4 1.7-2.95-9.5m19.1-2.35 4.95-0.7 9.55-4.45 4.65 6.05 0.15 0.2 1.4-10.75 7.35-6.7 1.8 11.35-17.25 13.05-10.5 1.4-2.1-9.45m-50.5 2.95-0.45-8.85 8.9 1.85 0.1 11.05-0.3 0.05-7.75-0.9-0.5-3.2" fill="#949e81" fill-rule="evenodd"/>
<path d="m256.75 227.6 1.65 9.8-13.5-6.5-0.1-11.05 11.95 7.75" fill="#bdc4b3" fill-rule="evenodd"/>
<path d="m317.9 194.6 2.55 10.45-3.75 13.85-1.8-11.35 3-12.95m-23.85 16.95 13.5 2.7-1.4 10.75-0.15-0.2-1.75-6.1-10.2-7.15" fill="#778264" fill-rule="evenodd"/>
<path d="m304.85 174.6q-0.75 0.5-1.4 1.05m-53.4 10-0.6-2.1m32.85 33.3q2.15-13.3 22.5-12.1h0.15l4.55-6.85-0.05-0.05m-11.9-14.1q0.85-3.95 5.9-8.1m18.6 23-1.65-14.05m-70.2 4.8q0.25-1.75-0.15-3.75m18.5 29.05 0.7 0.15m0.3 0.15q3.25 1.3 4.95 6.6h0.05l7.5-1.75 0.05-1.55m-42.25-16.25-0.1 0.3q15.3 3.6 8.95 13.7v0.05l3.45 2.8m0.2 0.15 2.3 1.9q8.7-7.45 13.9-6.25m-32.2 12.15 0.5 3.2 7.75 0.9" fill="none" stroke="#000" stroke-linecap="round" stroke-linejoin="round" stroke-opacity=".6" stroke-width=".4"/>
<path d="m318.25 178.9-2.85-7.4-28.8-9.55-39.1 10.9-19.65 23.25 2.95 17.1m54.25-31.5q1.7 0.75 3.05 1.9l0.9 0.85 0.25 0.35q4.55 5 4.55 8.45t-5.5 9.6q-5.5 6.1-15.55 5.55-10.1-0.6-15.2-4.6-1.85-1.4-2.75-3.1m65.65 4.35 1.6-6.4m-3.8-19.75 2.15 5.7m-65.75 15.9 0.15 0.2m12.2 38.25 3.7-3.2m-12.3 1.65 8.6 1.55m-35.9-23.9 1.7 10.05 3.55 1.75m8.25 4.1 0.3-0.05m-13.8-15.85-0.3-1.85m27.6 24.2-13.5-6.5m71.8-12 3.75-13.85m-31.5 28.3-4.85 0.7-13.4 1.7m46-16.85-17.25 13.05-10.5 1.4" fill="none" stroke="#000" stroke-linecap="round" stroke-linejoin="round" stroke-opacity=".6" stroke-width=".4"/>
<path d="m267.55 187.65 0.1 0.1q0.9-3.45 7.45-4.5 0.45 0.2 0.9 0.55 1.45 1.2 1.25 2.7-0.15 1.45-1.65 1.65l-4.05 0.45q-2.45 0.15-3.9-0.85l-0.1-0.1" fill="#b41b1b" fill-rule="evenodd"/>
<path d="m275.1 183.25q-6.55 1.05-7.45 4.5l-0.1-0.1q-1.5-1.1-1.35-2.5 0.2-1.5 2.05-1.9l4.1-0.55q1.55-0.15 2.75 0.55" fill="#891414" fill-rule="evenodd"/>
<path d="m289 188.45v0.05q1.05 1.55-0.25 2.95l-3.55 3.7q-2.2 2.3-4.6 2.45l-2.35-0.4q0.85-7.7 10.75-8.75" fill="#b41b1b" fill-rule="evenodd"/>
<path d="m278.25 197.2-1.05-1q-0.95-1.55 0.5-3.45 1.4-1.95 3.45-3.85 1.95-1.95 4.4-1.9 2.4-0.05 3.45 1.45-9.9 1.05-10.75 8.75" fill="#891414" fill-rule="evenodd"/>
<path d="m262.95 196.4q1.3 1.25 3.35 2.45 2.15 1.2 4.95 2 3.3 2.7 8.1 4.3-5.9 1.5-10.85 0.25-3.8-0.95-6.05-2.1-7.55-9.8 0.5-6.9" fill="#b41b1b" fill-rule="evenodd"/>
<path d="m262.45 203.3-1.2-0.7q-2.3-1.65-3.7-4-1.4-2.4 0.05-7.55 1.3-2.65 2.85-0.75 0.25 3.3 1.7 5.15l0.8 0.95q-8.05-2.9-0.5 6.9m8.8-2.45 1.55 0.45 7.1 1.7q3.35 0.9-0.55 2.15-4.8-1.6-8.1-4.3" fill="#891414" fill-rule="evenodd"/>
<path d="m303 181.4q0.35 0.7 1.55 1.15l3.4 0.2q1.65-0.6 4.3-0.8 1.8-0.1 2.4-0.65l0.25 0.9q0 1.15-2.65 1.35t-4.3 0.8l-3.4-0.2q-1.8-0.8-1.8-1.95l0.25-0.8" fill="#891414" fill-rule="evenodd"/>
<path d="m314.65 181.3q-0.6 0.55-2.4 0.65-2.65 0.2-4.3 0.8l-3.4-0.2q-1.2-0.45-1.55-1.15 0.4-0.85 1.85-1.85 2-1.5 4.4-1.3 2.4 0.25 4.05 1.55l1.35 1.5" fill="#b41b1b" fill-rule="evenodd"/>
<path d="m264.95 169.55q0.3-1.35 1.65-2.35 1.8-1.3 4.25-1.3t4.2 1.3q1.4 1 1.7 2.35-0.3 1.4-2.2 1.8l-4.15 0.9q-2.3 0.45-3.7-0.45-1.45-0.9-1.75-2.25" fill="#b41b1b" fill-rule="evenodd"/>
<path d="m276.75 169.55 0.1 0.8q0 1.8-1.8 3.1-1.75 1.3-4.2 1.3t-4.25-1.3q-1.75-1.3-1.75-3.1l0.1-0.8q0.3 1.35 1.75 2.25 1.4 0.9 3.7 0.45l4.15-0.9q1.9-0.4 2.2-1.8" fill="#891414" fill-rule="evenodd"/>
<path d="m246.95 207.3 0.15 1.7q0.05 1.2-2.25 2.25l-6.05 2.55q-3.65 1.5-6.25 0.55-2.55-0.9-2.6-2.9l0.2-1q0.45 1.25 2.75 1.85 2.2 0.65 5.85-0.9t5.7-2.1q2-0.55 2.5-2" fill="#891414" fill-rule="evenodd"/>
<path d="m230.15 210.45q0.4-1.45 2.85-2.45 2.4-1 5.55-1.2l5.45-0.35q2.35-0.2 2.95 0.85-0.5 1.45-2.5 2-2.05 0.55-5.7 2.1t-5.85 0.9q-2.3-0.6-2.75-1.85" fill="#b41b1b" fill-rule="evenodd"/>
<path d="m295.8 217.8 0.3 1.05q0.2 1.45-2.2 1.95t-3.85 1.4l-3.2 0.1q-1.7-0.75-1.9-2.2l0.1-0.95q0.45 0.75 1.55 1.2l3.25-0.1q1.4-0.9 3.85-1.4 1.6-0.35 2.1-1.05" fill="#891414" fill-rule="evenodd"/>
<path d="m285.05 219.15q0.3-1.1 1.45-2.45 1.65-2.1 3.9-2.05 2.3 0.05 3.95 1.5l1.45 1.65q-0.5 0.7-2.1 1.05-2.45 0.5-3.85 1.4l-3.25 0.1q-1.1-0.45-1.55-1.2" fill="#b41b1b" fill-rule="evenodd"/>
</g>
</defs>
</svg>
