<?xml version="1.0" encoding="UTF-8" standalone="no"?>
<svg xmlns:ffdec="https://www.free-decompiler.com/flash" xmlns:xlink="http://www.w3.org/1999/xlink" ffdec:objectType="frame" height="143.125px" width="133.125px" xmlns="http://www.w3.org/2000/svg">
  <g transform="matrix(2.5, 0.0, 0.0, 2.5, 0.0, 0.0)">
    <use ffdec:characterId="2" height="57.25" transform="matrix(1.0, 0.0, 0.0, 1.0, 26.6, 28.6)" width="53.25" xlink:href="#sprite0"/>
  </g>
  <defs>
    <g id="sprite0">
      <use ffdec:characterId="1" height="57.25" transform="matrix(1.0, 0.0, 0.0, 1.0, 0.0, 0.0)" width="53.25" xlink:href="#shape0"/>
    </g>
    <g id="shape0">
      <path d="M16.95 4.15 L16.5 3.95 16.05 4.15 15.85 4.75 16.05 5.3 16.5 5.55 16.95 5.3 17.15 4.75 16.95 4.15 M20.0 -0.85 L19.3 -0.55 19.05 0.15 19.3 0.85 20.0 1.15 20.65 0.85 20.95 0.15 20.65 -0.55 20.0 -0.85 M1.2 24.55 L5.65 24.05 5.75 24.05 11.45 22.05 17.05 18.05 Q20.9 13.35 21.65 10.25 L22.05 9.05 Q19.8 6.8 17.65 6.85 L15.05 8.05 11.85 10.65 9.05 12.05 8.2 12.35 9.05 10.55 9.55 7.35 9.05 4.75 9.65 4.75 Q12.1 4.75 13.8 3.05 15.55 1.4 15.55 -0.95 15.55 -3.3 13.8 -5.0 12.1 -6.65 9.65 -6.65 L7.9 -6.4 8.1 -7.5 Q7.85 -11.4 7.05 -13.75 L6.35 -15.25 Q6.65 -11.9 5.9 -9.1 4.85 -5.8 3.15 -3.65 L2.7 -5.45 1.5 -9.6 2.2 -12.05 1.4 -17.9 0.25 -20.5 6.35 -20.85 4.15 -26.65 -1.85 -26.35 Q-7.75 -25.95 -12.8 -22.6 -17.6 -19.35 -20.3 -14.2 -22.85 -9.3 -23.4 -3.65 -23.95 1.75 -23.2 7.25 L-22.75 6.9 -21.85 5.85 -19.55 2.4 Q-16.6 -1.55 -12.25 -4.65 -14.4 -5.85 -14.6 -9.9 -14.4 -11.5 -13.8 -12.75 L-11.35 -15.05 -10.0 -16.25 -9.3 -16.5 -9.5 -16.6 -5.0 -19.0 Q-3.0 -17.0 -2.5 -15.2 L-2.45 -14.85 -2.35 -13.5 -2.9 -9.25 -2.95 -8.9 -3.2 -8.4 -3.25 -8.35 Q-3.8 -7.35 -4.85 -6.35 L-8.1 -3.85 -13.8 -0.4 -18.6 4.4 -20.6 7.9 -21.85 11.25 -17.45 4.75 -13.6 1.35 -9.95 -0.45 -8.2 -0.85 -5.85 -1.5 -5.7 -1.55 -6.4 1.75 -7.35 2.05 -9.5 2.35 -11.45 3.0 -15.6 5.3 -17.25 7.15 -20.15 12.35 -22.4 14.25 -22.55 14.35 Q-26.15 7.95 -26.1 0.0 L-25.95 -3.3 Q-25.0 -12.85 -18.45 -19.9 -10.8 -28.15 0.0 -28.1 L5.5 -27.55 7.85 -26.9 7.75 -26.55 9.35 -19.75 13.75 -16.35 12.95 -23.85 13.25 -24.3 Q16.0 -22.55 18.5 -19.9 26.1 -11.65 26.15 0.0 26.1 11.65 18.5 19.9 10.8 28.15 0.0 28.15 -10.8 28.15 -18.45 19.9 -20.7 17.5 -22.25 14.85 L-20.95 14.1 -18.9 12.1 -17.2 9.5 -15.25 7.9 -14.2 7.15 Q-13.25 6.65 -11.7 6.45 L-6.9 6.2 -6.35 6.15 -5.6 10.45 -6.0 10.35 -6.95 10.05 -10.95 10.05 -13.95 11.05 -16.15 13.05 -17.95 15.65 -14.95 19.05 -10.75 22.25 -6.3 23.8 -0.25 24.65 0.05 24.65 1.2 24.55 M-9.15 7.15 L-9.35 7.6 -9.15 8.05 -8.65 8.25 Q-8.35 8.25 -8.15 8.05 L-7.95 7.6 -8.15 7.15 -8.65 6.95 -9.15 7.15 M-8.85 -12.3 Q-11.1 -13.4 -12.4 -9.7 -12.3 -6.65 -9.7 -5.85 -7.9 -6.1 -7.4 -8.2 -7.35 -10.95 -8.85 -12.3 M10.95 6.35 L11.05 6.7 11.4 6.85 11.7 6.7 11.85 6.35 11.7 6.0 Q11.6 5.85 11.4 5.85 11.2 5.85 11.05 6.0 L10.95 6.35" fill="#5a4d00" fill-rule="evenodd" stroke="none"/>
      <path d="M20.0 -0.85 L20.65 -0.55 20.95 0.15 20.65 0.85 20.0 1.15 19.3 0.85 19.05 0.15 19.3 -0.55 20.0 -0.85 M16.95 4.15 L17.15 4.75 16.95 5.3 16.5 5.55 16.05 5.3 15.85 4.75 16.05 4.15 16.5 3.95 16.95 4.15 M14.7 12.05 L14.5 11.85 14.25 11.25 14.5 10.6 Q14.75 10.35 15.1 10.35 L15.5 10.45 Q15.2 10.45 14.9 10.8 14.65 11.15 14.65 11.65 L14.7 12.05 M-8.85 -12.3 Q-7.35 -10.95 -7.4 -8.2 -7.9 -6.1 -9.7 -5.85 -12.3 -6.65 -12.4 -9.7 -11.1 -13.4 -8.85 -12.3 M-9.15 7.15 L-8.65 6.95 -8.15 7.15 -7.95 7.6 -8.15 8.05 Q-8.35 8.25 -8.65 8.25 L-9.15 8.05 -9.35 7.6 -9.15 7.15 M3.35 8.35 L3.9 8.55 4.15 9.15 4.15 9.4 3.9 9.7 3.35 9.95 2.95 9.85 2.75 9.7 2.55 9.15 2.75 8.55 3.35 8.35 M10.95 6.35 L11.05 6.0 Q11.2 5.85 11.4 5.85 11.6 5.85 11.7 6.0 L11.85 6.35 11.7 6.7 11.4 6.85 11.05 6.7 10.95 6.35" fill="#8e4d00" fill-rule="evenodd" stroke="none"/>
      <path d="M8.2 12.35 L9.05 12.05 11.85 10.65 15.05 8.05 17.65 6.85 Q19.8 6.8 22.05 9.05 L21.65 10.25 Q20.9 13.35 17.05 18.05 L11.45 22.05 5.75 24.05 5.65 24.05 1.2 24.55 -0.25 24.65 -6.3 23.8 -10.75 22.25 -14.95 19.05 -17.95 15.65 -16.15 13.05 -13.95 11.05 -10.95 10.05 -6.95 10.05 -6.0 10.35 -4.7 13.35 Q-5.5 13.35 -6.1 13.9 -6.65 14.5 -6.65 15.35 -6.65 16.2 -6.1 16.75 L-5.55 17.15 -5.55 17.2 -5.25 18.1 -5.4 18.2 -5.8 17.55 Q-6.2 17.15 -6.8 17.15 -7.4 17.15 -7.85 17.55 -8.25 17.95 -8.25 18.5 -8.25 19.05 -7.85 19.45 L-7.8 19.5 -7.45 20.05 Q-7.05 20.45 -6.45 20.45 L-5.75 20.3 -5.85 20.6 -5.3 21.35 -4.0 21.65 -2.7 21.35 -1.7 21.15 -1.55 21.6 Q-1.3 21.95 -0.95 21.95 L-0.4 21.6 -0.2 21.3 -0.15 20.75 Q-0.15 20.35 -0.3 20.05 L-0.1 20.05 0.05 20.05 0.25 20.05 1.3 19.75 1.35 19.9 1.95 20.35 2.5 19.9 2.55 19.85 2.65 19.8 2.9 20.05 3.65 20.35 3.65 20.45 3.7 20.8 3.65 21.3 3.9 22.25 Q4.2 22.65 4.6 22.65 L4.85 22.6 5.25 22.25 5.55 21.3 5.25 20.35 5.05 20.1 5.15 20.05 5.45 19.85 6.1 19.7 6.25 19.8 Q6.8 20.15 7.55 20.15 L8.8 19.8 Q9.35 19.5 9.35 19.0 9.35 18.5 8.8 18.15 L8.5 18.0 8.55 17.6 Q8.55 17.05 8.0 16.65 7.5 16.25 6.75 16.25 L6.6 16.25 6.1 14.75 7.85 13.05 8.2 12.35 M15.5 10.45 L15.1 10.35 Q14.75 10.35 14.5 10.6 L14.25 11.25 14.5 11.85 14.7 12.05 14.9 12.5 15.55 12.85 16.15 12.5 16.45 11.65 Q16.45 11.15 16.15 10.8 L15.55 10.45 15.5 10.45 M-10.95 15.25 L-10.15 15.45 Q-9.5 15.45 -9.05 15.0 -8.55 14.55 -8.55 13.95 -8.55 13.35 -9.05 12.9 -9.5 12.45 -10.15 12.45 -10.8 12.45 -11.3 12.9 -11.75 13.35 -11.75 13.95 L-11.75 14.0 -12.0 13.95 -12.4 14.05 -12.95 13.85 -13.6 14.1 -13.85 14.8 -13.6 15.45 -12.95 15.75 -12.8 15.75 -12.75 15.8 -12.1 16.15 -11.95 16.5 -11.4 16.75 -10.9 16.5 -10.65 15.95 Q-10.65 15.6 -10.9 15.35 L-10.95 15.3 -10.95 15.25 M-9.15 18.9 Q-9.2 18.45 -9.5 18.15 -9.85 17.85 -10.35 17.85 L-10.95 18.0 -11.2 18.15 Q-11.55 18.5 -11.55 19.0 -11.55 19.5 -11.2 19.8 -10.85 20.15 -10.35 20.15 -9.85 20.15 -9.5 19.8 -9.15 19.5 -9.15 19.0 L-9.15 18.9 M12.4 13.55 Q11.75 13.55 11.3 14.1 10.85 14.65 10.85 15.4 10.85 16.15 11.3 16.7 11.75 17.25 12.35 17.25 L12.4 17.25 Q13.05 17.25 13.5 16.7 13.95 16.15 13.95 15.4 13.95 14.65 13.5 14.1 13.05 13.55 12.4 13.55 M12.25 17.9 L12.1 17.75 12.1 17.8 12.25 17.9 M1.25 22.05 L1.95 21.85 2.25 21.4 1.95 20.95 1.25 20.75 0.55 20.95 0.25 21.4 0.55 21.85 1.25 22.05" fill="#8da100" fill-rule="evenodd" stroke="none"/>
      <path d="M8.5 18.0 L8.8 18.15 Q9.35 18.5 9.35 19.0 9.35 19.5 8.8 19.8 L7.55 20.15 Q6.8 20.15 6.25 19.8 L6.1 19.7 6.35 19.45 6.7 18.95 6.75 18.95 Q7.5 18.95 8.0 18.55 L8.5 18.0 M5.05 20.1 L5.25 20.35 5.55 21.3 5.25 22.25 4.85 22.6 4.6 22.65 Q4.2 22.65 3.9 22.25 L3.65 21.3 3.7 20.8 3.65 20.45 3.65 20.35 4.05 20.35 5.05 20.1 M0.25 20.05 L0.05 20.05 -0.1 20.05 -2.4 17.35 -2.35 17.1 Q-2.0 17.45 -1.45 17.45 L-1.0 17.4 -0.8 17.3 -0.55 17.05 Q-0.15 16.7 -0.15 16.2 -0.15 15.7 -0.55 15.3 L-0.55 15.2 0.05 15.15 0.6 15.2 Q0.35 15.6 0.35 16.15 0.35 16.75 0.65 17.2 L0.9 17.5 1.4 17.65 Q1.85 17.65 2.15 17.2 L2.3 16.95 2.5 17.0 3.15 17.2 0.95 19.35 0.25 20.05 M-5.75 20.3 L-6.45 20.45 Q-7.05 20.45 -7.45 20.05 L-7.8 19.5 -6.8 19.85 -5.85 19.55 -5.55 20.0 -5.75 20.3 M-5.55 17.15 L-6.1 16.75 Q-6.65 16.2 -6.65 15.35 -6.65 14.5 -6.1 13.9 -5.5 13.35 -4.7 13.35 L-3.6 15.9 -4.2 15.75 Q-4.75 15.75 -5.15 16.15 -5.55 16.6 -5.55 17.15 M15.5 10.45 L15.55 10.45 16.15 10.8 Q16.45 11.15 16.45 11.65 L16.15 12.5 15.55 12.85 14.9 12.5 14.7 12.05 14.65 11.65 Q14.65 11.15 14.9 10.8 15.2 10.45 15.5 10.45 M-11.75 14.0 L-11.75 13.95 Q-11.75 13.35 -11.3 12.9 -10.8 12.45 -10.15 12.45 -9.5 12.45 -9.05 12.9 -8.55 13.35 -8.55 13.95 -8.55 14.55 -9.05 15.0 -9.5 15.45 -10.15 15.45 L-10.95 15.25 -10.95 15.05 Q-10.95 14.6 -11.25 14.25 -11.45 14.05 -11.75 14.0 M-10.95 15.3 L-10.9 15.35 Q-10.65 15.6 -10.65 15.95 L-10.9 16.5 -11.4 16.75 -11.95 16.5 -12.1 16.15 -12.0 16.15 Q-11.55 16.15 -11.25 15.8 L-10.95 15.3 M-12.8 15.75 L-12.95 15.75 -13.6 15.45 -13.85 14.8 -13.6 14.1 -12.95 13.85 -12.4 14.05 -12.75 14.25 -13.05 15.05 -12.8 15.75 M-1.95 19.3 L-1.7 19.35 -1.3 19.65 -1.55 19.9 -1.65 20.1 -1.75 20.0 -1.95 19.4 -1.95 19.3 M0.95 19.35 Q0.55 18.95 0.55 18.4 0.55 17.9 0.9 17.5 0.55 17.9 0.55 18.4 0.55 18.95 0.95 19.35 M12.4 13.55 Q13.05 13.55 13.5 14.1 13.95 14.65 13.95 15.4 13.95 16.15 13.5 16.7 13.05 17.25 12.4 17.25 L12.35 17.25 Q11.75 17.25 11.3 16.7 10.85 16.15 10.85 15.4 10.85 14.65 11.3 14.1 11.75 13.55 12.4 13.55 M1.25 22.05 L0.55 21.85 0.25 21.4 0.55 20.95 1.25 20.75 1.95 20.95 2.25 21.4 1.95 21.85 1.25 22.05" fill="#b2ff00" fill-rule="evenodd" stroke="none"/>
      <path d="M13.25 -24.3 L12.95 -23.85 7.75 -26.55 7.85 -26.9 Q10.7 -26.0 13.25 -24.3" fill="#004d00" fill-rule="evenodd" stroke="none"/>
      <path d="M12.95 -23.85 L13.75 -16.35 9.35 -19.75 7.75 -26.55 12.95 -23.85 M-5.0 -19.0 L-9.5 -16.6 -10.0 -16.25 -11.35 -15.05 -13.8 -12.75 Q-16.6 -7.85 -19.05 -2.7 -21.4 2.2 -23.2 7.25 -23.95 1.75 -23.4 -3.65 -22.85 -9.3 -20.3 -14.2 -17.6 -19.35 -12.8 -22.6 -7.75 -25.95 -1.85 -26.35 L4.15 -26.65 6.35 -20.85 0.25 -20.5 -5.0 -19.0 M-1.95 15.05 L-3.05 12.45 -3.55 5.75 -2.05 0.25 -1.15 15.0 -1.45 14.95 -1.95 15.05" fill="#b2ffb2" fill-rule="evenodd" stroke="none"/>
      <path d="M-6.35 6.15 L-6.9 6.2 -11.7 6.45 Q-13.25 6.65 -14.2 7.15 L-15.25 7.9 -17.2 9.5 -18.9 12.1 -20.95 14.1 -22.25 14.85 -22.75 15.15 -23.0 14.65 -22.55 14.35 -22.4 14.25 -20.15 12.35 -17.25 7.15 -15.6 5.3 -11.45 3.0 -9.5 2.35 -7.35 2.05 -6.4 1.75 -6.35 6.15 M-5.7 -1.55 L-5.85 -1.5 -8.2 -0.85 -9.95 -0.45 -13.6 1.35 -17.45 4.75 -21.85 11.25 -20.6 7.9 -18.6 4.4 -13.8 -0.4 -8.1 -3.85 -4.85 -6.35 Q-3.8 -7.35 -3.25 -8.35 L-3.2 -8.4 -5.7 -1.55 M-2.5 -15.2 Q-3.0 -17.0 -5.0 -19.0 L0.25 -20.5 1.4 -17.9 2.2 -12.05 1.5 -9.6 Q-0.2 -13.3 -2.65 -16.4 L-2.5 -15.2 M3.15 -3.65 Q4.85 -5.8 5.9 -9.1 6.65 -11.9 6.35 -15.25 L7.05 -13.75 Q7.85 -11.4 8.1 -7.5 L7.9 -6.4 Q6.55 -6.05 5.45 -5.0 3.75 -3.3 3.75 -0.95 3.75 -0.05 4.0 0.8 L3.7 1.1 3.15 -3.65" fill="#b24d23" fill-rule="evenodd" stroke="none"/>
      <path d="M-6.0 10.35 L-5.6 10.45 -6.35 6.15 -6.4 1.75 -5.7 -1.55 -3.2 -8.4 -2.95 -8.9 -2.9 -9.25 -2.35 -13.5 -2.45 -14.85 -2.5 -15.2 -2.65 -16.4 Q-0.2 -13.3 1.5 -9.6 L2.7 -5.45 3.15 -3.65 3.7 1.1 3.85 3.35 3.75 3.35 3.8 3.4 3.85 3.5 3.9 3.55 3.75 4.4 3.35 8.35 2.75 8.55 2.55 9.15 2.75 9.7 2.95 9.85 1.7 13.0 3.9 9.7 4.15 9.4 5.35 7.55 6.15 2.95 5.55 -3.05 8.65 2.85 9.05 4.75 9.55 7.35 9.05 10.55 8.2 12.35 7.85 13.05 6.1 14.75 6.6 16.25 Q5.95 16.3 5.45 16.65 L5.1 17.1 Q4.65 17.15 4.35 17.45 4.0 17.8 3.95 18.35 L3.85 18.35 Q3.85 17.8 3.35 17.35 L3.15 17.2 2.5 17.0 2.4 16.7 2.4 16.65 2.45 16.15 2.15 15.1 Q1.85 14.65 1.4 14.65 0.95 14.65 0.65 15.1 L0.6 15.2 0.65 15.1 Q0.95 14.65 1.4 14.65 1.85 14.65 2.15 15.1 L2.45 16.15 2.4 16.65 2.4 16.7 2.3 16.95 2.15 17.2 Q1.85 17.65 1.4 17.65 L0.9 17.5 0.65 17.2 Q0.35 16.75 0.35 16.15 0.35 15.6 0.6 15.2 L0.05 15.15 -0.55 15.2 -0.6 15.25 -1.15 15.0 -0.6 15.25 -0.55 15.3 Q-0.15 15.7 -0.15 16.2 -0.15 16.7 -0.55 17.05 L-0.8 17.3 -1.0 17.4 -1.45 17.45 Q-2.0 17.45 -2.35 17.1 L-2.4 17.35 -2.9 16.8 -2.4 17.35 Q-2.75 17.7 -2.75 18.15 L-2.4 19.0 -1.95 19.3 -1.95 19.4 -1.75 20.0 -1.65 20.1 -1.75 20.75 -1.7 21.15 -2.7 21.35 Q-2.15 21.05 -2.15 20.6 -2.15 20.15 -2.7 19.85 L-3.25 19.65 -3.15 19.15 Q-3.15 18.7 -3.45 18.4 L-3.25 18.2 Q-2.85 17.8 -2.85 17.2 L-2.9 16.8 -3.05 16.45 -3.25 16.15 -3.5 15.95 -3.6 15.9 -4.7 13.35 -6.0 10.35 M-1.15 15.0 L-2.05 0.25 -3.55 5.75 -3.05 12.45 -1.95 15.05 -1.45 14.95 -1.15 15.0 M-1.95 15.05 L-2.35 15.25 -2.4 15.3 Q-2.75 15.7 -2.75 16.2 L-2.4 17.05 -2.35 17.1 -2.4 17.05 -2.75 16.2 Q-2.75 15.7 -2.4 15.3 L-2.35 15.25 -1.95 15.05" fill="#b2b700" fill-rule="evenodd" stroke="none"/>
      <path d="M7.9 -6.4 L9.65 -6.65 Q12.1 -6.65 13.8 -5.0 15.55 -3.3 15.55 -0.95 15.55 1.4 13.8 3.05 12.1 4.75 9.65 4.75 L9.05 4.75 8.65 2.85 5.55 -3.05 6.15 2.95 5.35 7.55 4.15 9.4 4.15 9.15 3.9 8.55 3.35 8.35 3.75 4.4 3.95 3.9 3.9 3.55 3.85 3.5 3.8 3.4 3.85 3.35 3.7 1.1 4.0 0.8 Q3.75 -0.05 3.75 -0.95 3.75 -3.3 5.45 -5.0 6.55 -6.05 7.9 -6.4 M6.6 16.25 L6.75 16.25 Q7.5 16.25 8.0 16.65 8.55 17.05 8.55 17.6 L8.5 18.0 8.0 18.55 Q7.5 18.95 6.75 18.95 L6.7 18.95 6.75 18.45 Q6.75 17.85 6.35 17.45 5.95 17.05 5.35 17.05 L5.1 17.1 5.35 17.05 Q5.95 17.05 6.35 17.45 6.75 17.85 6.75 18.45 L6.7 18.95 6.35 19.45 6.1 19.7 5.45 19.85 5.15 20.05 5.05 20.1 4.05 20.35 3.65 20.35 2.9 20.05 2.65 19.8 2.55 19.85 2.5 19.9 1.95 20.35 1.35 19.9 1.3 19.75 0.25 20.05 0.95 19.35 3.15 17.2 3.35 17.35 Q3.85 17.8 3.85 18.35 L3.95 18.35 Q4.0 17.8 4.35 17.45 4.65 17.15 5.1 17.1 L5.45 16.65 Q5.95 16.3 6.6 16.25 M-0.1 20.05 L-0.3 20.05 Q-0.15 20.35 -0.15 20.75 L-0.2 21.3 -0.4 21.6 -0.95 21.95 Q-1.3 21.95 -1.55 21.6 L-1.7 21.15 -1.75 20.75 -1.65 20.1 -1.55 19.9 -1.3 19.65 -1.7 19.35 -1.95 19.3 -2.4 19.0 -2.75 18.15 Q-2.75 17.7 -2.4 17.35 L-2.45 17.6 Q-2.45 18.6 -1.75 19.3 L-1.7 19.35 -1.75 19.3 Q-2.45 18.6 -2.45 17.6 L-2.4 17.35 -0.1 20.05 M-2.7 21.35 L-4.0 21.65 -5.3 21.35 -5.85 20.6 -5.75 20.3 -5.55 20.0 -5.85 19.55 -6.8 19.85 -7.8 19.5 -7.85 19.45 Q-8.25 19.05 -8.25 18.5 -8.25 17.95 -7.85 17.55 -7.4 17.15 -6.8 17.15 -6.2 17.15 -5.8 17.55 L-5.4 18.2 -5.25 18.1 -5.55 17.2 -5.55 17.15 Q-5.55 16.6 -5.15 16.15 -4.75 15.75 -4.2 15.75 L-3.6 15.9 -3.5 15.95 -3.25 16.15 -3.05 16.45 -2.9 16.8 -2.85 17.2 Q-2.85 17.8 -3.25 18.2 L-3.45 18.4 Q-3.15 18.7 -3.15 19.15 L-3.25 19.65 -2.7 19.85 Q-2.15 20.15 -2.15 20.6 -2.15 21.05 -2.7 21.35 M-10.95 15.25 L-10.95 15.3 -11.25 15.8 Q-11.55 16.15 -12.0 16.15 L-12.1 16.15 -12.75 15.8 -12.8 15.75 -13.05 15.05 -12.75 14.25 -12.4 14.05 -12.0 13.95 -11.75 14.0 Q-11.45 14.05 -11.25 14.25 -10.95 14.6 -10.95 15.05 L-10.95 15.25 M-9.15 18.9 L-9.15 19.0 Q-9.15 19.5 -9.5 19.8 -9.85 20.15 -10.35 20.15 -10.85 20.15 -11.2 19.8 -11.55 19.5 -11.55 19.0 -11.55 18.5 -11.2 18.15 L-10.95 18.0 -10.35 17.85 Q-9.85 17.85 -9.5 18.15 -9.2 18.45 -9.15 18.9 M3.9 9.7 L1.7 13.0 2.95 9.85 3.35 9.95 3.9 9.7 M-0.6 15.25 L-0.55 15.2 -0.55 15.3 -0.6 15.25 M2.4 16.7 L2.5 17.0 2.3 16.95 2.4 16.7 M-2.9 16.8 L-3.5 15.95 -2.9 16.8 M-0.3 20.05 L-1.3 19.65 -0.3 20.05 M-3.45 18.4 L-3.55 18.3 Q-3.95 17.95 -4.55 17.95 L-5.25 18.1 -4.55 17.95 Q-3.95 17.95 -3.55 18.3 L-3.45 18.4 M-3.25 19.65 L-4.0 19.55 Q-4.75 19.55 -5.3 19.85 L-5.55 20.0 -5.3 19.85 Q-4.75 19.55 -4.0 19.55 L-3.25 19.65 M-5.4 18.2 L-5.55 18.3 Q-5.95 18.65 -5.95 19.15 L-5.85 19.55 -5.95 19.15 Q-5.95 18.65 -5.55 18.3 L-5.4 18.2 M2.65 19.8 Q3.05 19.7 3.35 19.4 3.85 19.0 3.85 18.4 L3.85 18.35 3.85 18.4 Q3.85 19.0 3.35 19.4 3.05 19.7 2.65 19.8 M1.4 19.65 L2.2 19.85 2.55 19.85 2.2 19.85 1.4 19.65 1.3 19.75 1.4 19.65 1.0 19.4 0.95 19.35 1.0 19.4 1.4 19.65 M3.95 18.35 L3.95 18.45 Q3.95 19.05 4.35 19.45 4.75 19.85 5.35 19.85 L5.45 19.85 5.35 19.85 Q4.75 19.85 4.35 19.45 3.95 19.05 3.95 18.45 L3.95 18.35" fill="#b24d00" fill-rule="evenodd" stroke="none"/>
      <path d="M-9.5 -16.6 L-9.3 -16.5 -10.0 -16.25 -9.5 -16.6" fill="#a5f6af" fill-rule="evenodd" stroke="none"/>
      <path d="M3.9 3.55 L3.95 3.9 3.75 4.4 3.9 3.55 M12.25 17.9 L12.1 17.8 12.1 17.75 12.25 17.9" fill="#168e6c" fill-rule="evenodd" stroke="none"/>
      <path d="M1.2 24.55 L0.05 24.65 -0.25 24.65 1.2 24.55" fill="#4fc09e" fill-rule="evenodd" stroke="none"/>
      <path d="M-22.25 14.85 Q-20.7 17.5 -18.45 19.9 -10.8 28.15 0.0 28.15 10.8 28.15 18.5 19.9 26.1 11.65 26.15 0.0 26.1 -11.65 18.5 -19.9 16.0 -22.55 13.25 -24.3 10.7 -26.0 7.85 -26.9 L5.5 -27.55 0.0 -28.1 Q-10.8 -28.15 -18.45 -19.9 -25.0 -12.85 -25.95 -3.3 L-26.1 0.0 Q-26.15 7.95 -22.55 14.35" fill="none" stroke="#9e6316" stroke-linecap="round" stroke-linejoin="round" stroke-width="1.0"/>
      <path d="M6.6 16.25 L6.75 16.25 Q7.5 16.25 8.0 16.65 8.55 17.05 8.55 17.6 L8.5 18.0 8.0 18.55 Q7.5 18.95 6.75 18.95 L6.7 18.95 6.35 19.45 6.1 19.7 5.45 19.85 5.15 20.05 5.05 20.1 4.05 20.35 3.65 20.35 2.9 20.05 2.65 19.8 2.55 19.85 2.5 19.9 1.95 20.35 1.35 19.9 1.3 19.75 0.25 20.05 0.05 20.05 -0.1 20.05 -0.3 20.05 Q-0.15 20.35 -0.15 20.75 L-0.2 21.3 -0.4 21.6 -0.95 21.95 Q-1.3 21.95 -1.55 21.6 L-1.7 21.15 -1.75 20.75 -1.65 20.1 -1.55 19.9 -1.3 19.65 -0.3 20.05 M-2.7 21.35 L-4.0 21.65 -5.3 21.35 -5.85 20.6 -5.75 20.3 -5.55 20.0 -5.85 19.55 -6.8 19.85 -7.8 19.5 -7.85 19.45 Q-8.25 19.05 -8.25 18.5 -8.25 17.95 -7.85 17.55 -7.4 17.15 -6.8 17.15 -6.2 17.15 -5.8 17.55 L-5.4 18.2 -5.25 18.1 -5.55 17.2 -5.55 17.15 Q-5.55 16.6 -5.15 16.15 -4.75 15.75 -4.2 15.75 L-3.6 15.9 -4.7 13.35 M-10.95 15.25 L-10.95 15.3 -11.25 15.8 Q-11.55 16.15 -12.0 16.15 L-12.1 16.15 -12.75 15.8 -12.8 15.75 -13.05 15.05 -12.75 14.25 -12.4 14.05 -12.0 13.95 -11.75 14.0 Q-11.45 14.05 -11.25 14.25 -10.95 14.6 -10.95 15.05 L-10.95 15.25 M-9.15 18.9 L-9.15 19.0 Q-9.15 19.5 -9.5 19.8 -9.85 20.15 -10.35 20.15 -10.85 20.15 -11.2 19.8 -11.55 19.5 -11.55 19.0 -11.55 18.5 -11.2 18.15 L-10.95 18.0 -10.35 17.85 Q-9.85 17.85 -9.5 18.15 -9.2 18.45 -9.15 18.9 M-1.95 15.05 L-1.45 14.95 -1.15 15.0 -0.6 15.25 -0.55 15.2 0.05 15.15 0.6 15.2 0.65 15.1 Q0.95 14.65 1.4 14.65 1.85 14.65 2.15 15.1 L2.45 16.15 2.4 16.65 2.4 16.7 2.5 17.0 3.15 17.2 3.35 17.35 Q3.85 17.8 3.85 18.35 L3.95 18.35 Q4.0 17.8 4.35 17.45 4.65 17.15 5.1 17.1 L5.45 16.65 Q5.95 16.3 6.6 16.25 M-2.35 17.1 L-2.4 17.05 -2.75 16.2 Q-2.75 15.7 -2.4 15.3 L-2.35 15.25 -1.95 15.05 M-3.6 15.9 L-3.5 15.95 -3.25 16.15 -3.05 16.45 -2.9 16.8 -2.4 17.35 -2.35 17.1 Q-2.0 17.45 -1.45 17.45 L-1.0 17.4 -0.8 17.3 -0.55 17.05 Q-0.15 16.7 -0.15 16.2 -0.15 15.7 -0.55 15.3 L-0.6 15.25 M-2.9 16.8 L-2.85 17.2 Q-2.85 17.8 -3.25 18.2 L-3.45 18.4 Q-3.15 18.7 -3.15 19.15 L-3.25 19.65 -2.7 19.85 Q-2.15 20.15 -2.15 20.6 -2.15 21.05 -2.7 21.35 M-1.7 19.35 L-1.75 19.3 Q-2.45 18.6 -2.45 17.6 L-2.4 17.35 Q-2.75 17.7 -2.75 18.15 L-2.4 19.0 -1.95 19.3 -1.7 19.35 -1.3 19.65 M-3.5 15.95 L-2.9 16.8 M-5.85 19.55 L-5.95 19.15 Q-5.95 18.65 -5.55 18.3 L-5.4 18.2 M-5.55 20.0 L-5.3 19.85 Q-4.75 19.55 -4.0 19.55 L-3.25 19.65 M-5.25 18.1 L-4.55 17.95 Q-3.95 17.95 -3.55 18.3 L-3.45 18.4 M2.3 16.95 L2.15 17.2 Q1.85 17.65 1.4 17.65 L0.9 17.5 Q0.55 17.9 0.55 18.4 0.55 18.95 0.95 19.35 L3.15 17.2 M2.4 16.7 L2.3 16.95 2.5 17.0 M0.9 17.5 L0.65 17.2 Q0.35 16.75 0.35 16.15 0.35 15.6 0.6 15.2 M0.95 19.35 L0.25 20.05 M1.3 19.75 L1.4 19.65 1.0 19.4 0.95 19.35 M2.55 19.85 L2.2 19.85 1.4 19.65 M3.85 18.35 L3.85 18.4 Q3.85 19.0 3.35 19.4 3.05 19.7 2.65 19.8 M-2.4 17.35 L-0.1 20.05 M5.1 17.1 L5.35 17.05 Q5.95 17.05 6.35 17.45 6.75 17.85 6.75 18.45 L6.7 18.95 M5.45 19.85 L5.35 19.85 Q4.75 19.85 4.35 19.45 3.95 19.05 3.95 18.45 L3.95 18.35" fill="none" stroke="#b2ff00" stroke-linecap="round" stroke-linejoin="round" stroke-width="1.0"/>
    </g>
  </defs>
</svg>
