<?xml version='1.0' encoding='utf-8'?>
<svg xmlns="http://www.w3.org/2000/svg" xmlns:ns1="https://www.free-decompiler.com/flash" xmlns:ns2="http://www.w3.org/1999/xlink" ns1:objectType="frame" height="387px" width="342px" viewBox="51.00 29.00 114.00 129.00" preserveAspectRatio="xMinYMin meet">
  <g transform="matrix(1.0, 0.0, 0.0, 1.0, 0.0, 0.0)">
    <use ns1:characterId="2" height="89.2" transform="matrix(0.7551, 0.2834, -0.3006, 0.9638, 140.7, 121.75)" width="37.2" ns2:href="#sprite0" />
    <use ns1:characterId="2" height="89.2" transform="matrix(-0.999, 0.0348, -0.0148, 1.0008, 87.05, 97.65)" width="37.2" ns2:href="#sprite1" />
    <use ns1:characterId="3" height="39.9" transform="matrix(1.0777, 0.0, 0.0, 0.7495, 83.0, 66.2)" width="48.15" ns2:href="#shape2" />
    <use ns1:characterId="4" height="75.7" transform="matrix(1.0, 0.0, 0.0, 1.0, 0.0, 0.0)" width="74.85" ns2:href="#shape3" />
    <use ns1:characterId="2" height="89.2" transform="matrix(1.0, 0.0, 0.1751, 1.0, 79.15, 127.65)" width="37.2" ns2:href="#sprite2" />
    <use ns1:characterId="2" height="89.2" transform="matrix(-0.6315, -0.2052, -0.2214, 0.567, 140.9, 141.0)" width="37.2" ns2:href="#sprite3" />
    <use ns1:characterId="2" height="89.2" transform="matrix(-0.4685, 0.1758, 0.0901, 0.4446, 130.15, 148.75)" width="37.2" ns2:href="#sprite4" />
    <use ns1:characterId="2" height="89.2" transform="matrix(-0.4685, 0.1758, 0.2317, 0.3915, 70.75, 140.25)" width="37.2" ns2:href="#sprite5" />
    <use ns1:characterId="6" height="61.0" transform="matrix(1.0, 0.0, 0.0, 1.0, 106.75, 102.45)" width="74.35" ns2:href="#sprite6" />
  </g>
  <defs>
    <g id="sprite0">
      <use ns1:characterId="1" height="89.2" transform="matrix(1.0, 0.0, 0.0, 1.0, 0.0, 0.0)" width="37.2" ns2:href="#shape0" />
    </g>
    <g id="shape0">
      <path d="M-4.0 -14.15 Q-4.75 -32.7 -7.9 -50.8 L-5.65 -55.35 Q-7.65 -51.75 -8.6 -57.35 L-9.0 -61.3 -9.75 -67.85 -11.05 -67.85 -10.85 -64.45 -10.45 -56.9 -9.65 -59.3 -7.35 -33.25 Q-8.55 -23.7 -5.55 -14.15 L-4.0 -14.15" fill="#764c17" fill-rule="evenodd" stroke="none" />
      <path d="M-3.1 -49.55 Q0.25 -49.9 3.45 -51.0 L3.45 -51.25 Q3.35 -52.25 2.7 -52.8 L1.85 -53.6 Q-0.3 -55.15 -2.75 -55.05 L-3.55 -54.95 -6.05 -53.95 -5.95 -53.65 -4.8 -51.85 -3.55 -50.15 -3.1 -49.55 M10.3 -15.5 L10.3 -15.7 7.8 -16.2 6.95 -16.15 Q4.55 -15.8 2.65 -14.1 L1.9 -13.35 Q1.35 -12.75 1.35 -11.85 L1.45 -11.65 Q4.8 -11.25 8.15 -11.55 L8.55 -12.05 9.5 -13.75 10.3 -15.5 M-20.85 -38.25 L-20.1 -35.85 -19.25 -33.4 -18.9 -32.7 -11.0 -32.3 -10.95 -32.5 Q-10.75 -33.75 -11.25 -34.65 L-12.05 -35.8 Q-14.0 -38.3 -16.8 -38.95 L-17.8 -39.05 -20.75 -38.6 -20.85 -38.25" fill="#b6a859" fill-rule="evenodd" stroke="none" />
      <path d="M-4.55 -45.45 L0.5 -45.25 0.5 -45.4 Q0.65 -46.15 0.3 -46.7 L-0.2 -47.4 Q-1.45 -49.05 -3.25 -49.45 L-3.8 -49.55 -3.9 -49.5 -5.8 -49.3 -5.85 -49.1 -5.35 -47.45 -4.8 -46.0 -4.6 -45.6 -4.55 -45.45 M9.6 -38.0 L8.8 -37.5 Q8.2 -37.15 8.0 -36.4 L8.0 -36.2 Q10.65 -35.2 13.5 -34.8 L13.9 -35.25 15.15 -36.4 16.3 -37.7 16.35 -37.9 14.35 -38.75 13.65 -38.85 Q11.6 -39.05 9.6 -38.0" fill="#ac9c63" fill-rule="evenodd" stroke="none" />
      <path d="M-10.45 -56.9 L-10.85 -64.45 -10.4 -50.25 -10.45 -56.9 M3.6 -26.0 L4.9 -36.0 4.3 -32.55 2.95 -21.5 3.6 -26.0" fill="#004d00" fill-rule="evenodd" stroke="none" />
      <path d="M-7.35 -33.25 L-9.65 -59.3 -10.45 -56.9 -10.4 -50.25 -10.1 -40.3 -10.05 -37.0 -9.95 -33.7 Q-9.0 -35.9 -8.7 -38.1 L-7.35 -33.25 M6.5 -44.55 L7.6 -50.4 7.1 -50.4 5.65 -43.5 6.5 -44.55 M-3.75 11.6 L-5.15 0.55 -5.45 2.65 -5.15 4.1 -5.05 4.6 -4.9 5.45 -3.75 11.6" fill="#a47c1d" fill-rule="evenodd" stroke="none" />
      <path d="M7.1 -50.4 L6.75 -50.45 4.8 -42.5 1.2 -39.45 3.0 -35.4 4.8 -42.5 5.55 -39.45 4.95 -34.95 6.5 -44.55 5.65 -43.5 7.1 -50.4" fill="#846318" fill-rule="evenodd" stroke="none" />
      <path d="M3.0 -35.4 L-2.7 -10.95 -0.95 -14.15 -0.55 -14.15 4.3 -32.55 4.9 -36.0 3.6 -26.0 4.95 -34.95 5.55 -39.45 4.8 -42.5 3.0 -35.4" fill="#ac9616" fill-rule="evenodd" stroke="none" />
      <path d="M-4.0 -14.15 L-5.55 -14.15 -5.6 -13.4 -5.65 -12.25 -5.75 -12.25 -6.5 -12.2 -6.25 -9.8 -6.25 -9.75 -5.3 -9.8 -5.25 -9.85 -3.45 -9.95 -3.3 -9.95 -3.45 -9.5 -4.0 -7.95 -3.85 -7.95 -2.4 -7.8 -2.4 -7.75 -1.65 -7.7 -1.25 -9.3 -1.85 -9.4 -1.9 -9.4 -0.55 -14.15 -0.95 -14.15 -2.7 -10.95 -3.25 -10.0 -3.75 -12.25 -4.0 -14.15 M13.95 -7.2 L12.95 -7.2 11.75 9.55 12.8 9.7 14.4 13.65 13.95 -7.2 M-6.45 -9.75 L-6.35 -9.8 -6.6 -12.2 -6.75 -12.15 -6.45 -9.75 M-4.75 -8.8 L-4.7 -8.0 -4.3 -8.0 -4.75 -8.8 M-2.4 0.55 L-1.9 -7.2 -2.05 -7.2 -2.35 -4.6 -2.15 -7.2 -5.3 -7.2 -5.15 -7.95 -5.7 -7.2 -6.2 -7.2 Q-5.45 -3.9 -5.4 0.55 L-5.15 0.55 -3.75 11.6 -2.4 0.55 M-1.15 -9.3 L-1.55 -7.7 -1.45 -7.65 -1.05 -9.3 -1.15 -9.3" fill="#6c4b14" fill-rule="evenodd" stroke="none" />
      <path d="M0.0 -32.05 L0.15 -32.3 0.75 -33.3 1.25 -34.35 1.25 -34.5 -0.3 -34.75 -0.35 -34.75 -0.8 -34.75 Q-2.25 -34.55 -3.4 -33.5 L-3.85 -33.05 -4.15 -32.15 -4.15 -32.05 -0.05 -31.95 0.0 -32.05" fill="#a78331" fill-rule="evenodd" stroke="none" />
      <path d="M-5.15 0.55 L-5.4 0.55 -5.45 2.65 -5.15 0.55" fill="#035d3c" fill-rule="evenodd" stroke="none" />
      <path d="M-2.4 0.55 L-3.75 11.6 -4.9 5.45 Q-3.75 13.15 -6.85 17.25 L-5.8 17.4 -4.2 21.35 Q-3.5 18.35 -3.35 15.4 L-3.2 13.3 -2.4 0.55" fill="#8b6819" fill-rule="evenodd" stroke="none" />
      <path d="M-4.6 -45.6 L-4.55 -45.45 M0.0 -32.05 L-0.05 -31.95" ns1:has-small-stroke="true" ns1:original-stroke-width="0.05" fill="none" stroke="#26c200" stroke-linecap="round" stroke-linejoin="round" stroke-width="1.109109075359103" />
    </g>
    <g id="sprite1">
      <use ns1:characterId="1" height="89.2" transform="matrix(1.0, 0.0, 0.0, 1.0, 0.0, 0.0)" width="37.2" ns2:href="#shape1" />
    </g>
    <g id="shape1">
      <path d="M-4.0 -14.15 Q-4.75 -32.7 -7.9 -50.8 L-5.65 -55.35 Q-7.65 -51.75 -8.6 -57.35 L-9.0 -61.3 -9.75 -67.85 -11.05 -67.85 -10.85 -64.45 -10.45 -56.9 -9.65 -59.3 -7.35 -33.25 Q-8.55 -23.7 -5.55 -14.15 L-4.0 -14.15" fill="#704716" fill-rule="evenodd" stroke="none" />
      <path d="M-3.1 -49.55 Q0.25 -49.9 3.45 -51.0 L3.45 -51.25 Q3.35 -52.25 2.7 -52.8 L1.85 -53.6 Q-0.3 -55.15 -2.75 -55.05 L-3.55 -54.95 -6.05 -53.95 -5.95 -53.65 -4.8 -51.85 -3.55 -50.15 -3.1 -49.55 M10.3 -15.5 L10.3 -15.7 7.8 -16.2 6.95 -16.15 Q4.55 -15.8 2.65 -14.1 L1.9 -13.35 Q1.35 -12.75 1.35 -11.85 L1.45 -11.65 Q4.8 -11.25 8.15 -11.55 L8.55 -12.05 9.5 -13.75 10.3 -15.5 M-20.85 -38.25 L-20.1 -35.85 -19.25 -33.4 -18.9 -32.7 -11.0 -32.3 -10.95 -32.5 Q-10.75 -33.75 -11.25 -34.65 L-12.05 -35.8 Q-14.0 -38.3 -16.8 -38.95 L-17.8 -39.05 -20.75 -38.6 -20.85 -38.25" fill="#ab9e54" fill-rule="evenodd" stroke="none" />
      <path d="M-4.55 -45.45 L0.5 -45.25 0.5 -45.4 Q0.65 -46.15 0.3 -46.7 L-0.2 -47.4 Q-1.45 -49.05 -3.25 -49.45 L-3.8 -49.55 -3.9 -49.5 -5.8 -49.3 -5.85 -49.1 -5.35 -47.45 -4.8 -46.0 -4.6 -45.6 -4.55 -45.45 M9.6 -38.0 L8.8 -37.5 Q8.2 -37.15 8.0 -36.4 L8.0 -36.2 Q10.65 -35.2 13.5 -34.8 L13.9 -35.25 15.15 -36.4 16.3 -37.7 16.35 -37.9 14.35 -38.75 13.65 -38.85 Q11.6 -39.05 9.6 -38.0" fill="#a3935d" fill-rule="evenodd" stroke="none" />
      <path d="M-10.45 -56.9 L-10.85 -64.45 -10.4 -50.25 -10.45 -56.9 M3.6 -26.0 L4.9 -36.0 4.3 -32.55 2.95 -21.5 3.6 -26.0" fill="#004900" fill-rule="evenodd" stroke="none" />
      <path d="M-7.35 -33.25 L-9.65 -59.3 -10.45 -56.9 -10.4 -50.25 -10.1 -40.3 -10.05 -37.0 -9.95 -33.7 Q-9.0 -35.9 -8.7 -38.1 L-7.35 -33.25 M6.5 -44.55 L7.6 -50.4 7.1 -50.4 5.65 -43.5 6.5 -44.55 M-3.75 11.6 L-5.15 0.55 -5.45 2.65 -5.15 4.1 -5.05 4.6 -4.9 5.45 -3.75 11.6" fill="#9b751c" fill-rule="evenodd" stroke="none" />
      <path d="M7.1 -50.4 L6.75 -50.45 4.8 -42.5 1.2 -39.45 3.0 -35.4 4.8 -42.5 5.55 -39.45 4.95 -34.95 6.5 -44.55 5.65 -43.5 7.1 -50.4" fill="#7d5e17" fill-rule="evenodd" stroke="none" />
      <path d="M3.0 -35.4 L-2.7 -10.95 -0.95 -14.15 -0.55 -14.15 4.3 -32.55 4.9 -36.0 3.6 -26.0 4.95 -34.95 5.55 -39.45 4.8 -42.5 3.0 -35.4" fill="#a28d14" fill-rule="evenodd" stroke="none" />
      <path d="M-4.0 -14.15 L-5.55 -14.15 -5.6 -13.4 -5.65 -12.25 -5.75 -12.25 -6.5 -12.2 -6.25 -9.8 -6.25 -9.75 -5.3 -9.8 -5.25 -9.85 -3.45 -9.95 -3.3 -9.95 -3.45 -9.5 -4.0 -7.95 -3.85 -7.95 -2.4 -7.8 -2.4 -7.75 -1.65 -7.7 -1.25 -9.3 -1.85 -9.4 -1.9 -9.4 -0.55 -14.15 -0.95 -14.15 -2.7 -10.95 -3.25 -10.0 -3.75 -12.25 -4.0 -14.15 M13.95 -7.2 L12.95 -7.2 11.75 9.55 12.8 9.7 14.4 13.65 13.95 -7.2 M-6.45 -9.75 L-6.35 -9.8 -6.6 -12.2 -6.75 -12.15 -6.45 -9.75 M-4.75 -8.8 L-4.7 -8.0 -4.3 -8.0 -4.75 -8.8 M-2.4 0.55 L-1.9 -7.2 -2.05 -7.2 -2.35 -4.6 -2.15 -7.2 -5.3 -7.2 -5.15 -7.95 -5.7 -7.2 -6.2 -7.2 Q-5.45 -3.9 -5.4 0.55 L-5.15 0.55 -3.75 11.6 -2.4 0.55 M-1.15 -9.3 L-1.55 -7.7 -1.45 -7.65 -1.05 -9.3 -1.15 -9.3" fill="#664713" fill-rule="evenodd" stroke="none" />
      <path d="M0.0 -32.05 L0.15 -32.3 0.75 -33.3 1.25 -34.35 1.25 -34.5 -0.3 -34.75 -0.35 -34.75 -0.8 -34.75 Q-2.25 -34.55 -3.4 -33.5 L-3.85 -33.05 -4.15 -32.15 -4.15 -32.05 -0.05 -31.95 0.0 -32.05" fill="#9e7c2e" fill-rule="evenodd" stroke="none" />
      <path d="M-5.15 0.55 L-5.4 0.55 -5.45 2.65 -5.15 0.55" fill="#025838" fill-rule="evenodd" stroke="none" />
      <path d="M-2.4 0.55 L-3.75 11.6 -4.9 5.45 Q-3.75 13.15 -6.85 17.25 L-5.8 17.4 -4.2 21.35 Q-3.5 18.35 -3.35 15.4 L-3.2 13.3 -2.4 0.55" fill="#836218" fill-rule="evenodd" stroke="none" />
      <path d="M-4.6 -45.6 L-4.55 -45.45 M0.0 -32.05 L-0.05 -31.95" ns1:has-small-stroke="true" ns1:original-stroke-width="0.05" fill="none" stroke="#24b700" stroke-linecap="round" stroke-linejoin="round" stroke-width="1.000356447220387" />
    </g>
    <g id="shape2">
      <path d="M27.2 2.05 L27.55 2.4 Q28.7 2.75 28.45 3.5 L46.6 24.4 45.35 27.15 Q41.15 32.85 29.95 34.25 18.75 35.6 8.9 25.0 9.5 21.9 11.0 19.25 12.05 17.35 13.55 15.7 L15.15 13.85 15.85 12.3 Q16.05 11.65 19.0 6.2 22.0 0.65 24.4 0.95 26.3 1.2 27.2 2.05" fill="url(#gradient0)" fill-rule="evenodd" stroke="none" />
      <path d="M6.6 18.2 L21.25 1.3 Q22.35 0.05 23.95 0.0 25.45 0.05 26.55 1.3 L27.2 2.05 Q26.3 1.2 24.4 0.95 22.0 0.65 19.0 6.2 16.05 11.65 15.85 12.3 L15.15 13.85 13.55 15.7 Q12.05 17.35 11.0 19.25 9.5 21.9 8.9 25.0 18.75 35.6 29.95 34.25 41.15 32.85 45.35 27.15 L46.6 24.4 47.1 25.0 Q47.9 25.9 48.15 27.2 48.2 31.1 44.5 33.4 37.45 37.85 30.15 39.25 19.8 41.25 8.8 37.2 3.95 35.35 1.8 32.3 L1.55 31.95 Q0.7 30.65 0.35 29.15 L0.2 28.7 Q-0.05 27.45 0.0 26.05 L0.7 25.0 6.3 18.5 6.6 18.2" fill="#d5c8a9" fill-rule="evenodd" stroke="none" />
      <path d="M6.3 18.5 L5.85 18.65 6.6 18.2 6.3 18.5" fill="#b69c66" fill-rule="evenodd" stroke="none" />
    </g>
    <linearGradient gradientTransform="matrix(-0.0147, -9.0E-4, 0.0012, -0.0197, 20.95, 19.05)" gradientUnits="userSpaceOnUse" id="gradient0" spreadMethod="pad" x1="-819.2" x2="819.2">
      <stop offset="0.0" stop-color="#e9e0d1" />
      <stop offset="1.0" stop-color="#d5c8a9" />
    </linearGradient>
    <g id="shape3">
      <path d="M83.0 81.8 L83.3 82.3 83.0 81.8 85.55 81.05 85.75 81.6 85.55 81.05 87.05 80.6 87.05 80.55 87.85 80.25 81.3 87.8 Q80.75 88.35 80.45 89.05 L80.55 91.05 78.05 88.55 78.05 87.15 75.1 84.1 76.8 83.6 78.15 83.2 83.0 81.8 M78.4 83.7 L78.15 83.2 78.4 83.7 M136.65 88.7 L136.05 87.8 135.05 86.6 131.65 82.7 132.6 82.8 134.05 82.95 136.5 83.55 136.1 84.05 136.5 83.55 138.3 84.0 138.85 84.15 138.8 84.45 138.6 85.8 137.05 88.1 136.65 88.7 M138.3 84.0 L138.8 84.45 138.3 84.0" fill="#403020" fill-rule="evenodd" stroke="none" />
      <path d="M80.55 91.05 Q81.55 91.95 82.25 92.3 L87.1 94.55 91.25 95.55 Q106.8 99.05 117.85 98.4 L120.65 98.15 122.4 97.9 Q114.95 104.7 101.8 104.8 L100.65 104.8 92.75 104.75 89.05 104.65 88.55 106.85 Q87.2 113.8 89.15 120.5 91.25 127.8 91.05 135.4 91.3 136.85 98.55 140.6 105.8 144.35 118.55 143.0 131.3 141.65 131.85 143.05 L129.8 144.35 126.7 145.4 Q108.8 150.75 87.35 144.35 L87.1 144.2 86.7 144.35 81.05 144.6 Q81.8 144.4 83.5 142.2 85.2 139.95 83.5 138.65 L82.7 137.95 Q81.5 136.8 80.85 135.3 L80.65 134.85 Q74.7 121.3 77.5 111.8 L77.35 111.15 78.05 111.15 76.85 100.5 75.55 89.45 75.2 86.15 75.05 85.1 78.05 88.55 80.55 91.05" fill="#866f48" fill-rule="evenodd" stroke="none" />
      <path d="M122.4 97.9 Q126.45 97.25 129.8 95.95 L130.1 96.05 130.15 95.75 131.15 95.05 130.15 95.75 130.15 95.7 131.15 95.05 134.05 93.15 134.05 93.1 134.45 92.4 134.5 92.3 136.65 88.7 137.05 88.1 137.7 87.1 138.5 86.35 139.7 85.6 139.3 87.3 139.15 87.9 Q137.15 95.15 140.1 101.65 L134.05 97.2 134.05 97.15 131.9 96.55 Q128.85 99.75 124.95 101.95 120.25 104.55 114.3 105.65 104.1 107.6 94.65 105.9 L93.95 105.55 95.0 106.1 96.7 107.1 102.85 108.95 103.3 109.1 Q106.45 110.05 109.75 110.05 L110.85 110.0 116.35 110.55 Q117.2 110.65 117.95 110.15 L118.15 110.1 117.6 110.55 117.05 111.05 118.0 111.2 117.5 111.1 118.95 110.7 122.25 109.55 122.55 109.5 Q129.05 108.55 135.15 106.45 L135.8 106.2 140.15 104.45 140.05 108.65 Q137.75 109.9 135.15 110.8 L132.2 111.7 127.8 112.65 122.2 113.35 119.85 113.5 Q118.7 114.7 117.1 115.2 L112.55 115.45 107.8 115.0 104.0 114.7 104.5 115.2 107.3 115.25 Q107.8 115.25 108.3 115.65 L105.05 115.85 Q110.65 122.15 112.9 131.85 L113.05 132.15 118.3 133.1 119.8 133.3 Q122.95 130.6 125.2 127.2 L126.1 125.75 Q128.7 121.25 129.8 115.7 135.7 129.8 132.1 137.2 134.05 136.6 135.95 136.75 135.6 138.2 139.85 140.6 L134.05 141.55 134.05 141.6 134.05 141.65 131.85 143.05 Q131.3 141.65 118.55 143.0 105.8 144.35 98.55 140.6 91.3 136.85 91.05 135.4 91.25 127.8 89.15 120.5 87.2 113.8 88.55 106.85 L89.05 104.65 92.75 104.75 100.65 104.8 101.8 104.8 Q114.95 104.7 122.4 97.9 M80.65 134.85 L80.85 135.3 Q80.2 135.05 80.65 134.85 M122.6 109.25 L121.05 109.35 119.45 109.35 118.05 109.3 116.55 109.4 Q126.5 106.15 135.55 100.9 132.7 107.85 124.05 109.1 L122.6 109.25 M123.55 114.7 L130.05 113.15 134.2 113.95 134.55 114.4 123.4 116.3 121.95 116.45 119.7 116.65 118.05 116.8 116.45 116.85 107.55 116.9 118.5 115.65 122.05 115.0 123.55 114.7 M127.3 138.45 L124.3 138.4 119.7 138.9 125.7 138.75 127.3 138.45" fill="#a78e58" fill-rule="evenodd" stroke="none" />
      <path d="M135.95 136.75 Q134.05 136.6 132.1 137.2 135.7 129.8 129.8 115.7 128.7 121.25 126.1 125.75 L125.2 127.2 Q122.95 130.6 119.8 133.3 L118.3 133.1 113.05 132.15 112.9 131.85 Q110.65 122.15 105.05 115.85 L108.3 115.65 Q107.8 115.25 107.3 115.25 L104.5 115.2 104.0 114.7 107.8 115.0 112.55 115.45 117.1 115.2 Q118.7 114.7 119.85 113.5 L122.2 113.35 127.8 112.65 132.2 111.7 135.15 110.8 Q137.75 109.9 140.05 108.65 L140.15 104.45 135.8 106.2 135.15 106.45 Q129.05 108.55 122.55 109.5 L122.25 109.55 118.95 110.7 117.5 111.1 118.0 111.2 117.05 111.05 117.6 110.55 118.15 110.1 117.95 110.15 Q117.2 110.65 116.35 110.55 L110.85 110.0 109.75 110.05 Q106.45 110.05 103.3 109.1 L102.85 108.95 96.7 107.1 95.0 106.1 93.95 105.55 94.65 105.9 Q104.1 107.6 114.3 105.65 120.25 104.55 124.95 101.95 128.85 99.75 131.9 96.55 L134.05 97.15 134.05 97.2 140.1 101.65 140.15 102.35 140.95 116.1 Q141.75 129.8 135.95 136.75 M127.3 138.45 L125.7 138.75 119.7 138.9 124.3 138.4 127.3 138.45 M123.55 114.7 L122.05 115.0 118.5 115.65 107.55 116.9 116.45 116.85 118.05 116.8 119.7 116.65 121.95 116.45 123.4 116.3 134.55 114.4 134.2 113.95 130.05 113.15 123.55 114.7 M122.6 109.25 L124.05 109.1 Q132.7 107.85 135.55 100.9 126.5 106.15 116.55 109.4 L118.05 109.3 119.45 109.35 121.05 109.35 122.6 109.25" fill="#c2b68b" fill-rule="evenodd" stroke="none" />
      <path d="M82.7 137.95 L83.5 138.65 Q85.2 139.95 83.5 142.2 81.8 144.4 81.05 144.6 L86.7 144.35 87.05 144.35 87.1 144.35 87.35 144.35 Q108.8 150.75 126.7 145.4 L129.8 144.35 Q132.15 144.35 133.95 143.55 L134.05 144.15 Q134.05 147.45 124.8 149.8 115.6 152.15 102.55 152.15 89.5 152.15 80.25 149.8 71.05 147.45 71.05 144.15 71.05 140.85 80.25 138.5 L82.7 137.95" fill="#666666" fill-opacity="0.3529412" fill-rule="evenodd" stroke="none" />
      <path d="M129.8 95.95 L130.15 95.75 130.1 96.05 129.8 95.95 M139.7 85.6 L138.5 86.35 137.7 87.1 137.05 88.1 138.6 85.8 Q139.9 84.05 139.7 85.6 M86.7 144.35 L87.1 144.2 87.35 144.35 87.1 144.35 87.05 144.35 86.7 144.35 M129.8 144.35 L131.85 143.05 134.05 141.65 134.05 141.6 134.05 141.55 139.85 140.6 Q135.15 141.65 134.35 143.0 L134.05 143.45 134.05 143.5 133.95 143.55 Q132.15 144.35 129.8 144.35" fill="#e6e1ce" fill-rule="evenodd" stroke="none" />
      <path d="M117.85 98.4 Q121.4 97.7 124.85 96.45 L120.65 98.15 117.85 98.4" fill="url(#gradient1)" fill-rule="evenodd" stroke="none" />
      <path d="M87.85 80.25 L95.15 76.45 Q91.05 79.05 89.1 80.85 L88.55 81.3 Q87.05 84.2 86.15 87.2 86.0 87.6 86.0 88.05 89.35 90.7 93.2 92.1 97.3 93.1 101.6 93.5 112.55 94.5 123.2 91.7 129.65 90.0 135.05 86.6 L136.05 87.8 136.65 88.7 134.5 92.3 134.45 92.4 134.05 93.1 134.05 93.15 131.15 95.05 130.15 95.7 130.15 95.75 129.8 95.95 Q126.45 97.25 122.4 97.9 L120.65 98.15 124.85 96.45 Q121.4 97.7 117.85 98.4 106.8 99.05 91.25 95.55 L87.1 94.55 82.25 92.3 Q81.55 91.95 80.55 91.05 L80.45 89.05 Q80.75 88.35 81.3 87.8 L87.85 80.25" fill="#bfb398" fill-rule="evenodd" stroke="none" />
      <path d="M80.55 91.05 Q81.55 91.95 82.25 92.3 L87.1 94.55 91.25 95.55 Q106.8 99.05 117.85 98.4 L120.65 98.15 122.4 97.9 Q126.45 97.25 129.8 95.95 L130.15 95.75 131.15 95.05 134.05 93.15 M134.05 93.1 L134.45 92.4 134.5 92.3 136.65 88.7 137.05 88.1 138.6 85.8 Q139.9 84.05 139.7 85.6 L139.3 87.3 139.15 87.9 Q137.15 95.15 140.1 101.65 L140.15 102.35 140.95 116.1 Q141.75 129.8 135.95 136.75 135.6 138.2 139.85 140.6 135.15 141.65 134.35 143.0 L134.05 143.45 M78.05 88.55 L75.05 85.1 75.2 86.15 75.55 89.45 76.85 100.5 78.05 111.15 77.35 111.15 77.5 111.8 Q74.7 121.3 80.65 134.85 L80.85 135.3 Q81.5 136.8 82.7 137.95 L83.5 138.65 Q85.2 139.95 83.5 142.2 81.8 144.4 81.05 144.6 L86.7 144.35 87.05 144.35 87.1 144.35 87.35 144.35 Q108.8 150.75 126.7 145.4 L129.8 144.35 Q132.15 144.35 133.95 143.55 L134.05 143.5 M80.55 91.05 L78.05 88.55" fill="none" stroke="#5a4530" stroke-linecap="round" stroke-linejoin="round" stroke-width="2.0" />
      <path d="M83.0 81.8 L82.25 80.55 M85.55 81.05 L84.7 78.8 M132.6 82.8 L134.0 79.15 M136.5 83.55 L137.85 81.6 M141.8 78.55 L138.85 84.05 138.85 84.15 M135.4 81.95 L136.1 80.2 M130.55 80.9 L131.25 78.45 M140.3 86.5 L144.5 87.2 M138.8 84.45 L144.15 84.75 M76.8 83.6 L72.8 81.95 M79.1 82.65 L78.4 79.5 M78.15 83.2 L76.3 79.5 M74.9 88.25 L73.15 90.0 M75.2 86.15 L69.65 86.85" ns1:has-small-stroke="true" ns1:original-stroke-width="0.05" fill="none" stroke="#5a4530" stroke-linecap="round" stroke-linejoin="round" stroke-width="1.0" />
      <path d="M85.55 81.05 L85.75 81.6 M83.3 82.3 L83.0 81.8 M78.15 83.2 L78.4 83.7 M131.65 82.7 L132.6 82.8 134.05 82.95 136.5 83.55 136.1 84.05 M87.05 80.55 L87.85 80.25 M139.15 87.9 L141.0 88.95 M138.6 85.8 L138.8 84.45 138.3 84.0 136.5 83.55 M138.8 84.45 L138.85 84.15 138.3 84.0 M75.55 89.45 L74.2 89.65" ns1:has-small-stroke="true" ns1:original-stroke-width="0.05" fill="none" stroke="#435555" stroke-linecap="round" stroke-linejoin="round" stroke-width="1.0" />
      <path d="M115.95 117.0 L116.55 115.55 Q100.55 114.35 87.4 108.65 81.2 105.95 75.7 102.3 L74.55 101.55 M139.55 103.55 L139.0 104.15 Q136.7 106.55 134.0 108.25 128.6 111.55 121.35 112.25 L120.55 120.55 M121.55 119.55 L126.55 138.5 M121.35 112.25 L118.55 113.55 M116.55 115.55 L118.5 110.75 M115.5 118.2 L114.55 120.55 M118.55 118.45 L116.55 141.5 M121.55 109.55 L121.35 112.25" fill="none" stroke="#8f6b19" stroke-linecap="round" stroke-linejoin="round" stroke-width="2.0" />
      <path d="M117.1 115.2 L117.7 113.75 Q101.7 112.55 88.55 106.85 82.35 104.15 76.85 100.5 L75.7 99.75 M122.7 117.75 L127.7 136.7 M122.7 107.75 L122.5 110.45 Q129.75 109.75 135.15 106.45 137.85 104.75 140.15 102.35 L140.7 101.75 M122.5 110.45 L121.7 118.75 M119.7 116.65 L117.7 139.7 M116.65 116.4 L115.7 118.75 M117.7 113.75 L119.65 108.95 M122.5 110.45 L119.7 111.75" fill="none" stroke="#e3aa28" stroke-linecap="round" stroke-linejoin="round" stroke-width="2.0" />
    </g>
    <linearGradient gradientTransform="matrix(-0.0116, 3.0E-4, -6.0E-4, -0.023, 112.65, 81.1)" gradientUnits="userSpaceOnUse" id="gradient1" spreadMethod="pad" x1="-819.2" x2="819.2">
      <stop offset="0.0" stop-color="#e2e1c7" />
      <stop offset="1.0" stop-color="#c8ab91" />
    </linearGradient>
    <g id="sprite2">
      <use ns1:characterId="1" height="89.2" transform="matrix(1.0, 0.0, 0.0, 1.0, 0.0, 0.0)" width="37.2" ns2:href="#shape4" />
    </g>
    <g id="shape4">
      <path d="M-4.0 -14.15 Q-4.75 -32.7 -7.9 -50.8 L-5.65 -55.35 Q-7.65 -51.75 -8.6 -57.35 L-9.0 -61.3 -9.75 -67.85 -11.05 -67.85 -10.85 -64.45 -10.45 -56.9 -9.65 -59.3 -7.35 -33.25 Q-8.55 -23.7 -5.55 -14.15 L-4.0 -14.15" fill="#9c641f" fill-rule="evenodd" stroke="none" />
      <path d="M-3.1 -49.55 Q0.25 -49.9 3.45 -51.0 L3.45 -51.25 Q3.35 -52.25 2.7 -52.8 L1.85 -53.6 Q-0.3 -55.15 -2.75 -55.05 L-3.55 -54.95 -6.05 -53.95 -5.95 -53.65 -4.8 -51.85 -3.55 -50.15 -3.1 -49.55 M10.3 -15.5 L10.3 -15.7 7.8 -16.2 6.95 -16.15 Q4.55 -15.8 2.65 -14.1 L1.9 -13.35 Q1.35 -12.75 1.35 -11.85 L1.45 -11.65 Q4.8 -11.25 8.15 -11.55 L8.55 -12.05 9.5 -13.75 10.3 -15.5 M-20.85 -38.25 L-20.1 -35.85 -19.25 -33.4 -18.9 -32.7 -11.0 -32.3 -10.95 -32.5 Q-10.75 -33.75 -11.25 -34.65 L-12.05 -35.8 Q-14.0 -38.3 -16.8 -38.95 L-17.8 -39.05 -20.75 -38.6 -20.85 -38.25" fill="#efdd76" fill-rule="evenodd" stroke="none" />
      <path d="M-4.55 -45.45 L0.5 -45.25 0.5 -45.4 Q0.65 -46.15 0.3 -46.7 L-0.2 -47.4 Q-1.45 -49.05 -3.25 -49.45 L-3.8 -49.55 -3.9 -49.5 -5.8 -49.3 -5.85 -49.1 -5.35 -47.45 -4.8 -46.0 -4.6 -45.6 -4.55 -45.45 M9.6 -38.0 L8.8 -37.5 Q8.2 -37.15 8.0 -36.4 L8.0 -36.2 Q10.65 -35.2 13.5 -34.8 L13.9 -35.25 15.15 -36.4 16.3 -37.7 16.35 -37.9 14.35 -38.75 13.65 -38.85 Q11.6 -39.05 9.6 -38.0" fill="#e3cd82" fill-rule="evenodd" stroke="none" />
      <path d="M-10.45 -56.9 L-10.85 -64.45 -10.4 -50.25 -10.45 -56.9 M3.6 -26.0 L4.9 -36.0 4.3 -32.55 2.95 -21.5 3.6 -26.0" fill="#006600" fill-rule="evenodd" stroke="none" />
      <path d="M-7.35 -33.25 L-9.65 -59.3 -10.45 -56.9 -10.4 -50.25 -10.1 -40.3 -10.05 -37.0 -9.95 -33.7 Q-9.0 -35.9 -8.7 -38.1 L-7.35 -33.25 M6.5 -44.55 L7.6 -50.4 7.1 -50.4 5.65 -43.5 6.5 -44.55 M-3.75 11.6 L-5.15 0.55 -5.45 2.65 -5.15 4.1 -5.05 4.6 -4.9 5.45 -3.75 11.6" fill="#d8a327" fill-rule="evenodd" stroke="none" />
      <path d="M7.1 -50.4 L6.75 -50.45 4.8 -42.5 1.2 -39.45 3.0 -35.4 4.8 -42.5 5.55 -39.45 4.95 -34.95 6.5 -44.55 5.65 -43.5 7.1 -50.4" fill="#ae8320" fill-rule="evenodd" stroke="none" />
      <path d="M3.0 -35.4 L-2.7 -10.95 -0.95 -14.15 -0.55 -14.15 4.3 -32.55 4.9 -36.0 3.6 -26.0 4.95 -34.95 5.55 -39.45 4.8 -42.5 3.0 -35.4" fill="#e2c51d" fill-rule="evenodd" stroke="none" />
      <path d="M-4.0 -14.15 L-5.55 -14.15 -5.6 -13.4 -5.65 -12.25 -5.75 -12.25 -6.5 -12.2 -6.25 -9.8 -6.25 -9.75 -5.3 -9.8 -5.25 -9.85 -3.45 -9.95 -3.3 -9.95 -3.45 -9.5 -4.0 -7.95 -3.85 -7.95 -2.4 -7.8 -2.4 -7.75 -1.65 -7.7 -1.25 -9.3 -1.85 -9.4 -1.9 -9.4 -0.55 -14.15 -0.95 -14.15 -2.7 -10.95 -3.25 -10.0 -3.75 -12.25 -4.0 -14.15 M13.95 -7.2 L12.95 -7.2 11.75 9.55 12.8 9.7 14.4 13.65 13.95 -7.2 M-6.45 -9.75 L-6.35 -9.8 -6.6 -12.2 -6.75 -12.15 -6.45 -9.75 M-4.75 -8.8 L-4.7 -8.0 -4.3 -8.0 -4.75 -8.8 M-2.4 0.55 L-1.9 -7.2 -2.05 -7.2 -2.35 -4.6 -2.15 -7.2 -5.3 -7.2 -5.15 -7.95 -5.7 -7.2 -6.2 -7.2 Q-5.45 -3.9 -5.4 0.55 L-5.15 0.55 -3.75 11.6 -2.4 0.55 M-1.15 -9.3 L-1.55 -7.7 -1.45 -7.65 -1.05 -9.3 -1.15 -9.3" fill="#8f631b" fill-rule="evenodd" stroke="none" />
      <path d="M0.0 -32.05 L0.15 -32.3 0.75 -33.3 1.25 -34.35 1.25 -34.5 -0.3 -34.75 -0.35 -34.75 -0.8 -34.75 Q-2.25 -34.55 -3.4 -33.5 L-3.85 -33.05 -4.15 -32.15 -4.15 -32.05 -0.05 -31.95 0.0 -32.05" fill="#dcad41" fill-rule="evenodd" stroke="none" />
      <path d="M-5.15 0.55 L-5.4 0.55 -5.45 2.65 -5.15 0.55" fill="#047b4f" fill-rule="evenodd" stroke="none" />
      <path d="M-2.4 0.55 L-3.75 11.6 -4.9 5.45 Q-3.75 13.15 -6.85 17.25 L-5.8 17.4 -4.2 21.35 Q-3.5 18.35 -3.35 15.4 L-3.2 13.3 -2.4 0.55" fill="#b78922" fill-rule="evenodd" stroke="none" />
      <path d="M-4.6 -45.6 L-4.55 -45.45 M0.0 -32.05 L-0.05 -31.95" ns1:has-small-stroke="true" ns1:original-stroke-width="0.05" fill="none" stroke="#33ff00" stroke-linecap="round" stroke-linejoin="round" stroke-width="1.0" />
    </g>
    <g id="sprite3">
      <use ns1:characterId="1" height="89.2" transform="matrix(1.0, 0.0, 0.0, 1.0, 0.0, 0.0)" width="37.2" ns2:href="#shape5" />
    </g>
    <g id="shape5">
      <path d="M-4.0 -14.15 Q-4.75 -32.7 -7.9 -50.8 L-5.65 -55.35 Q-7.65 -51.75 -8.6 -57.35 L-9.0 -61.3 -9.75 -67.85 -11.05 -67.85 -10.85 -64.45 -10.45 -56.9 -9.65 -59.3 -7.35 -33.25 Q-8.55 -23.7 -5.55 -14.15 L-4.0 -14.15" fill="#87571b" fill-rule="evenodd" stroke="none" />
      <path d="M-3.1 -49.55 Q0.25 -49.9 3.45 -51.0 L3.45 -51.25 Q3.35 -52.25 2.7 -52.8 L1.85 -53.6 Q-0.3 -55.15 -2.75 -55.05 L-3.55 -54.95 -6.05 -53.95 -5.95 -53.65 -4.8 -51.85 -3.55 -50.15 -3.1 -49.55 M10.3 -15.5 L10.3 -15.7 7.8 -16.2 6.95 -16.15 Q4.55 -15.8 2.65 -14.1 L1.9 -13.35 Q1.35 -12.75 1.35 -11.85 L1.45 -11.65 Q4.8 -11.25 8.15 -11.55 L8.55 -12.05 9.5 -13.75 10.3 -15.5 M-20.85 -38.25 L-20.1 -35.85 -19.25 -33.4 -18.9 -32.7 -11.0 -32.3 -10.95 -32.5 Q-10.75 -33.75 -11.25 -34.65 L-12.05 -35.8 Q-14.0 -38.3 -16.8 -38.95 L-17.8 -39.05 -20.75 -38.6 -20.85 -38.25" fill="#d0c066" fill-rule="evenodd" stroke="none" />
      <path d="M-4.55 -45.45 L0.5 -45.25 0.5 -45.4 Q0.65 -46.15 0.3 -46.7 L-0.2 -47.4 Q-1.45 -49.05 -3.25 -49.45 L-3.8 -49.55 -3.9 -49.5 -5.8 -49.3 -5.85 -49.1 -5.35 -47.45 -4.8 -46.0 -4.6 -45.6 -4.55 -45.45 M9.6 -38.0 L8.8 -37.5 Q8.2 -37.15 8.0 -36.4 L8.0 -36.2 Q10.65 -35.2 13.5 -34.8 L13.9 -35.25 15.15 -36.4 16.3 -37.7 16.35 -37.9 14.35 -38.75 13.65 -38.85 Q11.6 -39.05 9.6 -38.0" fill="#c5b271" fill-rule="evenodd" stroke="none" />
      <path d="M-10.45 -56.9 L-10.85 -64.45 -10.4 -50.25 -10.45 -56.9 M3.6 -26.0 L4.9 -36.0 4.3 -32.55 2.95 -21.5 3.6 -26.0" fill="#005800" fill-rule="evenodd" stroke="none" />
      <path d="M-7.35 -33.25 L-9.65 -59.3 -10.45 -56.9 -10.4 -50.25 -10.1 -40.3 -10.05 -37.0 -9.95 -33.7 Q-9.0 -35.9 -8.7 -38.1 L-7.35 -33.25 M6.5 -44.55 L7.6 -50.4 7.1 -50.4 5.65 -43.5 6.5 -44.55 M-3.75 11.6 L-5.15 0.55 -5.45 2.65 -5.15 4.1 -5.05 4.6 -4.9 5.45 -3.75 11.6" fill="#bc8d21" fill-rule="evenodd" stroke="none" />
      <path d="M7.1 -50.4 L6.75 -50.45 4.8 -42.5 1.2 -39.45 3.0 -35.4 4.8 -42.5 5.55 -39.45 4.95 -34.95 6.5 -44.55 5.65 -43.5 7.1 -50.4" fill="#97721b" fill-rule="evenodd" stroke="none" />
      <path d="M3.0 -35.4 L-2.7 -10.95 -0.95 -14.15 -0.55 -14.15 4.3 -32.55 4.9 -36.0 3.6 -26.0 4.95 -34.95 5.55 -39.45 4.8 -42.5 3.0 -35.4" fill="#c4ab19" fill-rule="evenodd" stroke="none" />
      <path d="M-4.0 -14.15 L-5.55 -14.15 -5.6 -13.4 -5.65 -12.25 -5.75 -12.25 -6.5 -12.2 -6.25 -9.8 -6.25 -9.75 -5.3 -9.8 -5.25 -9.85 -3.45 -9.95 -3.3 -9.95 -3.45 -9.5 -4.0 -7.95 -3.85 -7.95 -2.4 -7.8 -2.4 -7.75 -1.65 -7.7 -1.25 -9.3 -1.85 -9.4 -1.9 -9.4 -0.55 -14.15 -0.95 -14.15 -2.7 -10.95 -3.25 -10.0 -3.75 -12.25 -4.0 -14.15 M13.95 -7.2 L12.95 -7.2 11.75 9.55 12.8 9.7 14.4 13.65 13.95 -7.2 M-6.45 -9.75 L-6.35 -9.8 -6.6 -12.2 -6.75 -12.15 -6.45 -9.75 M-4.75 -8.8 L-4.7 -8.0 -4.3 -8.0 -4.75 -8.8 M-2.4 0.55 L-1.9 -7.2 -2.05 -7.2 -2.35 -4.6 -2.15 -7.2 -5.3 -7.2 -5.15 -7.95 -5.7 -7.2 -6.2 -7.2 Q-5.45 -3.9 -5.4 0.55 L-5.15 0.55 -3.75 11.6 -2.4 0.55 M-1.15 -9.3 L-1.55 -7.7 -1.45 -7.65 -1.05 -9.3 -1.15 -9.3" fill="#7c5617" fill-rule="evenodd" stroke="none" />
      <path d="M0.0 -32.05 L0.15 -32.3 0.75 -33.3 1.25 -34.35 1.25 -34.5 -0.3 -34.75 -0.35 -34.75 -0.8 -34.75 Q-2.25 -34.55 -3.4 -33.5 L-3.85 -33.05 -4.15 -32.15 -4.15 -32.05 -0.05 -31.95 0.0 -32.05" fill="#bf9638" fill-rule="evenodd" stroke="none" />
      <path d="M-5.15 0.55 L-5.4 0.55 -5.45 2.65 -5.15 0.55" fill="#036b44" fill-rule="evenodd" stroke="none" />
      <path d="M-2.4 0.55 L-3.75 11.6 -4.9 5.45 Q-3.75 13.15 -6.85 17.25 L-5.8 17.4 -4.2 21.35 Q-3.5 18.35 -3.35 15.4 L-3.2 13.3 -2.4 0.55" fill="#9f771d" fill-rule="evenodd" stroke="none" />
      <path d="M-4.6 -45.6 L-4.55 -45.45 M0.0 -32.05 L-0.05 -31.95" ns1:has-small-stroke="true" ns1:original-stroke-width="0.05" fill="none" stroke="#2cde00" stroke-linecap="round" stroke-linejoin="round" stroke-width="1.5742024012694396" />
    </g>
    <g id="sprite4">
      <use ns1:characterId="1" height="89.2" transform="matrix(1.0, 0.0, 0.0, 1.0, 0.0, 0.0)" width="37.2" ns2:href="#shape6" />
    </g>
    <g id="shape6">
      <path d="M-4.0 -14.15 Q-4.75 -32.7 -7.9 -50.8 L-5.65 -55.35 Q-7.65 -51.75 -8.6 -57.35 L-9.0 -61.3 -9.75 -67.85 -11.05 -67.85 -10.85 -64.45 -10.45 -56.9 -9.65 -59.3 -7.35 -33.25 Q-8.55 -23.7 -5.55 -14.15 L-4.0 -14.15" fill="#9c641f" fill-rule="evenodd" stroke="none" />
      <path d="M-3.1 -49.55 Q0.25 -49.9 3.45 -51.0 L3.45 -51.25 Q3.35 -52.25 2.7 -52.8 L1.85 -53.6 Q-0.3 -55.15 -2.75 -55.05 L-3.55 -54.95 -6.05 -53.95 -5.95 -53.65 -4.8 -51.85 -3.55 -50.15 -3.1 -49.55 M10.3 -15.5 L10.3 -15.7 7.8 -16.2 6.95 -16.15 Q4.55 -15.8 2.65 -14.1 L1.9 -13.35 Q1.35 -12.75 1.35 -11.85 L1.45 -11.65 Q4.8 -11.25 8.15 -11.55 L8.55 -12.05 9.5 -13.75 10.3 -15.5 M-20.85 -38.25 L-20.1 -35.85 -19.25 -33.4 -18.9 -32.7 -11.0 -32.3 -10.95 -32.5 Q-10.75 -33.75 -11.25 -34.65 L-12.05 -35.8 Q-14.0 -38.3 -16.8 -38.95 L-17.8 -39.05 -20.75 -38.6 -20.85 -38.25" fill="#efdd76" fill-rule="evenodd" stroke="none" />
      <path d="M-4.55 -45.45 L0.5 -45.25 0.5 -45.4 Q0.65 -46.15 0.3 -46.7 L-0.2 -47.4 Q-1.45 -49.05 -3.25 -49.45 L-3.8 -49.55 -3.9 -49.5 -5.8 -49.3 -5.85 -49.1 -5.35 -47.45 -4.8 -46.0 -4.6 -45.6 -4.55 -45.45 M9.6 -38.0 L8.8 -37.5 Q8.2 -37.15 8.0 -36.4 L8.0 -36.2 Q10.65 -35.2 13.5 -34.8 L13.9 -35.25 15.15 -36.4 16.3 -37.7 16.35 -37.9 14.35 -38.75 13.65 -38.85 Q11.6 -39.05 9.6 -38.0" fill="#e3cd82" fill-rule="evenodd" stroke="none" />
      <path d="M-10.45 -56.9 L-10.85 -64.45 -10.4 -50.25 -10.45 -56.9 M3.6 -26.0 L4.9 -36.0 4.3 -32.55 2.95 -21.5 3.6 -26.0" fill="#006600" fill-rule="evenodd" stroke="none" />
      <path d="M-7.35 -33.25 L-9.65 -59.3 -10.45 -56.9 -10.4 -50.25 -10.1 -40.3 -10.05 -37.0 -9.95 -33.7 Q-9.0 -35.9 -8.7 -38.1 L-7.35 -33.25 M6.5 -44.55 L7.6 -50.4 7.1 -50.4 5.65 -43.5 6.5 -44.55 M-3.75 11.6 L-5.15 0.55 -5.45 2.65 -5.15 4.1 -5.05 4.6 -4.9 5.45 -3.75 11.6" fill="#d8a327" fill-rule="evenodd" stroke="none" />
      <path d="M7.1 -50.4 L6.75 -50.45 4.8 -42.5 1.2 -39.45 3.0 -35.4 4.8 -42.5 5.55 -39.45 4.95 -34.95 6.5 -44.55 5.65 -43.5 7.1 -50.4" fill="#ae8320" fill-rule="evenodd" stroke="none" />
      <path d="M3.0 -35.4 L-2.7 -10.95 -0.95 -14.15 -0.55 -14.15 4.3 -32.55 4.9 -36.0 3.6 -26.0 4.95 -34.95 5.55 -39.45 4.8 -42.5 3.0 -35.4" fill="#e2c51d" fill-rule="evenodd" stroke="none" />
      <path d="M-4.0 -14.15 L-5.55 -14.15 -5.6 -13.4 -5.65 -12.25 -5.75 -12.25 -6.5 -12.2 -6.25 -9.8 -6.25 -9.75 -5.3 -9.8 -5.25 -9.85 -3.45 -9.95 -3.3 -9.95 -3.45 -9.5 -4.0 -7.95 -3.85 -7.95 -2.4 -7.8 -2.4 -7.75 -1.65 -7.7 -1.25 -9.3 -1.85 -9.4 -1.9 -9.4 -0.55 -14.15 -0.95 -14.15 -2.7 -10.95 -3.25 -10.0 -3.75 -12.25 -4.0 -14.15 M13.95 -7.2 L12.95 -7.2 11.75 9.55 12.8 9.7 14.4 13.65 13.95 -7.2 M-6.45 -9.75 L-6.35 -9.8 -6.6 -12.2 -6.75 -12.15 -6.45 -9.75 M-4.75 -8.8 L-4.7 -8.0 -4.3 -8.0 -4.75 -8.8 M-2.4 0.55 L-1.9 -7.2 -2.05 -7.2 -2.35 -4.6 -2.15 -7.2 -5.3 -7.2 -5.15 -7.95 -5.7 -7.2 -6.2 -7.2 Q-5.45 -3.9 -5.4 0.55 L-5.15 0.55 -3.75 11.6 -2.4 0.55 M-1.15 -9.3 L-1.55 -7.7 -1.45 -7.65 -1.05 -9.3 -1.15 -9.3" fill="#8f631b" fill-rule="evenodd" stroke="none" />
      <path d="M0.0 -32.05 L0.15 -32.3 0.75 -33.3 1.25 -34.35 1.25 -34.5 -0.3 -34.75 -0.35 -34.75 -0.8 -34.75 Q-2.25 -34.55 -3.4 -33.5 L-3.85 -33.05 -4.15 -32.15 -4.15 -32.05 -0.05 -31.95 0.0 -32.05" fill="#dcad41" fill-rule="evenodd" stroke="none" />
      <path d="M-5.15 0.55 L-5.4 0.55 -5.45 2.65 -5.15 0.55" fill="#047b4f" fill-rule="evenodd" stroke="none" />
      <path d="M-2.4 0.55 L-3.75 11.6 -4.9 5.45 Q-3.75 13.15 -6.85 17.25 L-5.8 17.4 -4.2 21.35 Q-3.5 18.35 -3.35 15.4 L-3.2 13.3 -2.4 0.55" fill="#b78922" fill-rule="evenodd" stroke="none" />
      <path d="M-4.6 -45.6 L-4.55 -45.45 M0.0 -32.05 L-0.05 -31.95" ns1:has-small-stroke="true" ns1:original-stroke-width="0.05" fill="none" stroke="#33ff00" stroke-linecap="round" stroke-linejoin="round" stroke-width="2.11210186778719" />
    </g>
    <g id="sprite5">
      <use ns1:characterId="1" height="89.2" transform="matrix(1.0, 0.0, 0.0, 1.0, 0.0, 0.0)" width="37.2" ns2:href="#shape7" />
    </g>
    <g id="shape7">
      <path d="M-4.0 -14.15 Q-4.75 -32.7 -7.9 -50.8 L-5.65 -55.35 Q-7.65 -51.75 -8.6 -57.35 L-9.0 -61.3 -9.75 -67.85 -11.05 -67.85 -10.85 -64.45 -10.45 -56.9 -9.65 -59.3 -7.35 -33.25 Q-8.55 -23.7 -5.55 -14.15 L-4.0 -14.15" fill="#704716" fill-rule="evenodd" stroke="none" />
      <path d="M-3.1 -49.55 Q0.25 -49.9 3.45 -51.0 L3.45 -51.25 Q3.35 -52.25 2.7 -52.8 L1.85 -53.6 Q-0.3 -55.15 -2.75 -55.05 L-3.55 -54.95 -6.05 -53.95 -5.95 -53.65 -4.8 -51.85 -3.55 -50.15 -3.1 -49.55 M10.3 -15.5 L10.3 -15.7 7.8 -16.2 6.95 -16.15 Q4.55 -15.8 2.65 -14.1 L1.9 -13.35 Q1.35 -12.75 1.35 -11.85 L1.45 -11.65 Q4.8 -11.25 8.15 -11.55 L8.55 -12.05 9.5 -13.75 10.3 -15.5 M-20.85 -38.25 L-20.1 -35.85 -19.25 -33.4 -18.9 -32.7 -11.0 -32.3 -10.95 -32.5 Q-10.75 -33.75 -11.25 -34.65 L-12.05 -35.8 Q-14.0 -38.3 -16.8 -38.95 L-17.8 -39.05 -20.75 -38.6 -20.85 -38.25" fill="#ab9e54" fill-rule="evenodd" stroke="none" />
      <path d="M-4.55 -45.45 L0.5 -45.25 0.5 -45.4 Q0.65 -46.15 0.3 -46.7 L-0.2 -47.4 Q-1.45 -49.05 -3.25 -49.45 L-3.8 -49.55 -3.9 -49.5 -5.8 -49.3 -5.85 -49.1 -5.35 -47.45 -4.8 -46.0 -4.6 -45.6 -4.55 -45.45 M9.6 -38.0 L8.8 -37.5 Q8.2 -37.15 8.0 -36.4 L8.0 -36.2 Q10.65 -35.2 13.5 -34.8 L13.9 -35.25 15.15 -36.4 16.3 -37.7 16.35 -37.9 14.35 -38.75 13.65 -38.85 Q11.6 -39.05 9.6 -38.0" fill="#a3935d" fill-rule="evenodd" stroke="none" />
      <path d="M-10.45 -56.9 L-10.85 -64.45 -10.4 -50.25 -10.45 -56.9 M3.6 -26.0 L4.9 -36.0 4.3 -32.55 2.95 -21.5 3.6 -26.0" fill="#004900" fill-rule="evenodd" stroke="none" />
      <path d="M-7.35 -33.25 L-9.65 -59.3 -10.45 -56.9 -10.4 -50.25 -10.1 -40.3 -10.05 -37.0 -9.95 -33.7 Q-9.0 -35.9 -8.7 -38.1 L-7.35 -33.25 M6.5 -44.55 L7.6 -50.4 7.1 -50.4 5.65 -43.5 6.5 -44.55 M-3.75 11.6 L-5.15 0.55 -5.45 2.65 -5.15 4.1 -5.05 4.6 -4.9 5.45 -3.75 11.6" fill="#9b751c" fill-rule="evenodd" stroke="none" />
      <path d="M7.1 -50.4 L6.75 -50.45 4.8 -42.5 1.2 -39.45 3.0 -35.4 4.8 -42.5 5.55 -39.45 4.95 -34.95 6.5 -44.55 5.65 -43.5 7.1 -50.4" fill="#7d5e17" fill-rule="evenodd" stroke="none" />
      <path d="M3.0 -35.4 L-2.7 -10.95 -0.95 -14.15 -0.55 -14.15 4.3 -32.55 4.9 -36.0 3.6 -26.0 4.95 -34.95 5.55 -39.45 4.8 -42.5 3.0 -35.4" fill="#a28d14" fill-rule="evenodd" stroke="none" />
      <path d="M-4.0 -14.15 L-5.55 -14.15 -5.6 -13.4 -5.65 -12.25 -5.75 -12.25 -6.5 -12.2 -6.25 -9.8 -6.25 -9.75 -5.3 -9.8 -5.25 -9.85 -3.45 -9.95 -3.3 -9.95 -3.45 -9.5 -4.0 -7.95 -3.85 -7.95 -2.4 -7.8 -2.4 -7.75 -1.65 -7.7 -1.25 -9.3 -1.85 -9.4 -1.9 -9.4 -0.55 -14.15 -0.95 -14.15 -2.7 -10.95 -3.25 -10.0 -3.75 -12.25 -4.0 -14.15 M13.95 -7.2 L12.95 -7.2 11.75 9.55 12.8 9.7 14.4 13.65 13.95 -7.2 M-6.45 -9.75 L-6.35 -9.8 -6.6 -12.2 -6.75 -12.15 -6.45 -9.75 M-4.75 -8.8 L-4.7 -8.0 -4.3 -8.0 -4.75 -8.8 M-2.4 0.55 L-1.9 -7.2 -2.05 -7.2 -2.35 -4.6 -2.15 -7.2 -5.3 -7.2 -5.15 -7.95 -5.7 -7.2 -6.2 -7.2 Q-5.45 -3.9 -5.4 0.55 L-5.15 0.55 -3.75 11.6 -2.4 0.55 M-1.15 -9.3 L-1.55 -7.7 -1.45 -7.65 -1.05 -9.3 -1.15 -9.3" fill="#664713" fill-rule="evenodd" stroke="none" />
      <path d="M0.0 -32.05 L0.15 -32.3 0.75 -33.3 1.25 -34.35 1.25 -34.5 -0.3 -34.75 -0.35 -34.75 -0.8 -34.75 Q-2.25 -34.55 -3.4 -33.5 L-3.85 -33.05 -4.15 -32.15 -4.15 -32.05 -0.05 -31.95 0.0 -32.05" fill="#9e7c2e" fill-rule="evenodd" stroke="none" />
      <path d="M-5.15 0.55 L-5.4 0.55 -5.45 2.65 -5.15 0.55" fill="#025838" fill-rule="evenodd" stroke="none" />
      <path d="M-2.4 0.55 L-3.75 11.6 -4.9 5.45 Q-3.75 13.15 -6.85 17.25 L-5.8 17.4 -4.2 21.35 Q-3.5 18.35 -3.35 15.4 L-3.2 13.3 -2.4 0.55" fill="#836218" fill-rule="evenodd" stroke="none" />
      <path d="M-4.6 -45.6 L-4.55 -45.45 M0.0 -32.05 L-0.05 -31.95" ns1:has-small-stroke="true" ns1:original-stroke-width="0.05" fill="none" stroke="#24b700" stroke-linecap="round" stroke-linejoin="round" stroke-width="2.1120927155725338" />
    </g>
    <g id="sprite6">
      <use ns1:characterId="5" height="61.0" transform="matrix(1.0, 0.0, 0.0, 1.0, 0.0, 0.0)" width="74.35" ns2:href="#shape8" />
    </g>
    <g id="shape8">
      <path d="M11.3 -9.95 L21.1 -8.05 26.35 -16.5 27.55 -6.6 37.2 -4.2 28.2 0.0 28.9 9.95 22.1 2.65 12.85 6.35 17.7 -2.35 11.3 -9.95 M-0.75 -28.85 L-3.4 -23.4 0.75 -18.9 -5.3 -19.8 -8.25 -14.45 -9.3 -20.45 -15.25 -21.65 -9.9 -24.45 -10.6 -30.5 -6.25 -26.25 -0.75 -28.85 M-23.6 -12.6 L-18.6 -2.5 -7.35 -3.6 -15.4 4.3 -10.9 14.65 -20.9 9.4 -29.35 16.85 -27.45 5.75 -37.15 0.05 -26.0 -1.6 -23.6 -12.6 M-12.3 26.0 L-10.6 24.4 -10.9 26.7 -8.85 27.8 -11.15 28.2 -11.55 30.5 -12.65 28.45 -14.95 28.75 -13.35 27.05 -14.35 25.0 -12.3 26.0" fill="#ffffff" fill-opacity="0.6" fill-rule="evenodd" stroke="none" />
    </g>
  </defs>
</svg>