<?xml version="1.0" encoding="UTF-8" standalone="no"?>
<svg xmlns:ffdec="https://www.free-decompiler.com/flash" xmlns:xlink="http://www.w3.org/1999/xlink" ffdec:objectType="frame" height="282.0px" width="309.0px" xmlns="http://www.w3.org/2000/svg">
  <g transform="matrix(3.0, 0.0, 0.0, 3.0, 0.0, 0.0)">
    <use ffdec:characterId="1" height="91.55" transform="matrix(1.0, 0.0, 0.0, 1.0, 1.7, 2.1)" width="101.1" xlink:href="#shape0"/>
    <use ffdec:characterId="3" height="76.9" transform="matrix(1.0, 0.0, 0.0, 1.0, 51.15, 39.05)" width="101.1" xlink:href="#sprite0"/>
  </g>
  <defs>
    <g id="shape0">
      <path d="M88.25 41.0 Q90.9 38.2 93.4 34.45 L94.0 33.5 94.1 33.6 Q95.45 35.35 95.7 37.85 95.95 40.35 94.9 42.1 93.85 43.85 92.1 43.85 91.05 43.85 90.2 43.25 L89.85 43.0 89.5 42.65 89.45 42.6 89.4 42.6 89.05 42.15 89.0 42.1 88.45 41.35 88.25 41.0 M87.7 41.6 L88.7 44.75 88.8 45.85 Q89.15 49.6 87.6 52.2 86.0 54.85 83.4 54.85 81.45 54.85 79.8 53.4 L78.8 52.3 78.7 52.2 78.35 51.75 77.75 50.8 77.15 49.55 76.85 48.65 Q79.25 47.9 81.6 46.5 84.75 44.6 87.7 41.6" fill="#613c10" fill-rule="evenodd" stroke="none"/>
      <path d="M94.0 33.5 L93.4 34.45 Q90.9 38.2 88.25 41.0 L87.7 41.6 Q84.75 44.6 81.6 46.5 79.25 47.9 76.85 48.65 L77.15 49.55 77.75 50.8 78.35 51.75 78.7 52.2 78.8 52.3 Q78.55 54.5 77.55 56.2 75.95 58.85 73.35 58.85 71.1 58.85 69.2 56.85 67.65 58.85 65.35 58.85 L64.85 58.85 Q64.7 63.6 62.55 67.15 59.75 71.85 55.1 71.85 51.05 71.85 47.75 68.3 L47.3 69.05 Q45.65 71.85 42.95 71.85 L41.7 71.7 41.7 71.8 42.05 74.0 42.15 74.85 Q42.8 81.5 40.0 86.15 37.2 90.85 32.6 90.85 27.95 90.85 24.2 86.15 22.9 84.5 21.95 82.55 L19.95 82.85 Q16.2 82.85 13.2 79.05 L11.7 76.85 Q7.75 76.65 4.5 72.6 1.15 68.35 0.55 62.35 L0.5 61.8 0.5 61.75 0.45 60.7 0.45 59.75 Q0.55 56.5 1.65 53.85 L2.15 52.85 2.3 52.5 0.85 51.55 0.85 45.05 1.15 44.9 2.25 43.65 1.35 43.1 1.65 42.3 4.55 41.1 4.7 40.65 4.2 39.9 3.25 39.55 3.2 38.9 5.05 35.4 7.95 34.2 7.6 33.15 6.55 33.0 7.65 31.5 Q16.5 19.95 29.7 24.6 L29.25 24.3 40.45 23.95 42.15 23.55 45.5 24.6 46.25 24.1 44.8 22.65 46.15 22.05 47.4 21.4 Q49.65 20.1 51.6 18.35 L54.1 15.8 57.6 17.25 58.35 16.65 55.55 13.85 58.1 9.55 Q59.9 5.85 61.15 1.3 L64.65 1.3 98.95 24.3 Q96.55 29.4 94.0 33.5 M67.25 49.8 Q52.55 44.85 44.55 53.3 L44.1 53.8 Q41.2 57.05 39.3 62.1 L38.5 64.4 Q37.6 67.1 36.95 70.25 L36.95 70.3 36.15 75.2 2.3 52.5 36.15 75.2 36.95 70.3 36.95 70.25 Q37.6 67.1 38.5 64.4 L39.3 62.1 Q41.2 57.05 44.1 53.8 L44.55 53.3 Q52.55 44.85 67.25 49.8 M67.35 49.4 Q70.75 49.9 73.95 49.35 L76.85 48.65 73.95 49.35 Q70.75 49.9 67.35 49.4 M47.75 68.3 Q48.6 66.5 48.7 64.25 L48.7 64.15 48.65 62.35 48.4 60.75 47.0 57.0 46.9 56.85 46.8 56.7 46.75 56.6 46.35 56.0 46.3 55.95 46.2 55.85 46.15 55.75 46.1 55.7 46.0 55.6 45.2 54.7 44.35 54.0 44.1 53.8 44.35 54.0 45.2 54.7 46.0 55.6 46.1 55.7 46.15 55.75 46.2 55.85 46.3 55.95 46.35 56.0 46.75 56.6 46.8 56.7 46.9 56.85 47.0 57.0 48.4 60.75 48.65 62.35 48.7 64.15 48.7 64.25 Q48.6 66.5 47.75 68.3 M41.7 71.7 L41.35 70.55 41.3 70.35 41.1 69.65 40.15 67.2 40.1 67.1 40.0 67.0 39.95 66.9 39.95 66.8 39.85 66.7 39.8 66.55 38.5 64.4 39.8 66.55 39.85 66.7 39.95 66.8 39.95 66.9 40.0 67.0 40.1 67.1 40.15 67.2 41.1 69.65 41.3 70.35 41.35 70.55 41.7 71.7" fill="#333333" fill-rule="evenodd" stroke="none"/>
      <path d="M88.25 41.0 L88.45 41.35 89.0 42.1 89.05 42.15 89.4 42.6 89.45 42.6 89.5 42.65 89.85 43.0 M90.2 43.25 Q91.05 43.85 92.1 43.85 93.85 43.85 94.9 42.1 95.95 40.35 95.7 37.85 95.45 35.35 94.1 33.6 L94.0 33.5 M0.5 61.75 L0.45 60.7 0.45 59.75 Q0.55 56.5 1.65 53.85 L2.15 52.85 2.3 52.5" fill="none" stroke="#613c10" stroke-linecap="round" stroke-linejoin="round" stroke-width="1.0"/>
      <path d="M94.0 33.5 L93.4 34.45 Q90.9 38.2 88.25 41.0 L87.7 41.6 Q84.75 44.6 81.6 46.5 79.25 47.9 76.85 48.65 L73.95 49.35 Q70.75 49.9 67.35 49.4 M94.0 33.5 Q96.55 29.4 98.95 24.3 L64.65 1.3 M0.85 51.55 L2.3 52.5 36.15 75.2 36.95 70.3 36.95 70.25 Q37.6 67.1 38.5 64.4 L39.3 62.1 Q41.2 57.05 44.1 53.8 L44.55 53.3 Q52.55 44.85 67.25 49.8" fill="none" stroke="#613c10" stroke-linecap="round" stroke-linejoin="round" stroke-width="3.0"/>
      <path d="M87.7 41.6 L88.7 44.75 88.8 45.85 Q89.15 49.6 87.6 52.2 86.0 54.85 83.4 54.85 81.45 54.85 79.8 53.4 L78.8 52.3 Q78.55 54.5 77.55 56.2 75.95 58.85 73.35 58.85 71.1 58.85 69.2 56.85 67.65 58.85 65.35 58.85 L64.85 58.85 Q64.7 63.6 62.55 67.15 59.75 71.85 55.1 71.85 51.05 71.85 47.75 68.3 L47.3 69.05 Q45.65 71.85 42.95 71.85 L41.7 71.7 41.7 71.8 42.05 74.0 42.15 74.85 Q42.8 81.5 40.0 86.15 37.2 90.85 32.6 90.85 27.95 90.85 24.2 86.15 22.9 84.5 21.95 82.55 L19.95 82.85 Q16.2 82.85 13.2 79.05 L11.7 76.85 Q7.75 76.65 4.5 72.6 1.15 68.35 0.55 62.35 L0.5 61.8 M76.85 48.65 L77.15 49.55 77.75 50.8 78.35 51.75 78.7 52.2 78.8 52.3 M38.5 64.4 L39.8 66.55 39.85 66.7 39.95 66.8 39.95 66.9 40.0 67.0 40.1 67.1 40.15 67.2 41.1 69.65 41.3 70.35 41.35 70.55 41.7 71.7 M44.1 53.8 L44.35 54.0 45.2 54.7 46.0 55.6 46.1 55.7 46.15 55.75 46.2 55.85 46.3 55.95 46.35 56.0 46.75 56.6 46.8 56.7 46.9 56.85 47.0 57.0 48.4 60.75 48.65 62.35 48.7 64.15 48.7 64.25 Q48.6 66.5 47.75 68.3" fill="none" stroke="#424242" stroke-linecap="round" stroke-linejoin="round" stroke-width="1.0"/>
      <path d="M73.5 48.05 L76.4 47.35 76.7 48.25 73.5 48.05" fill="#e3b058" fill-rule="evenodd" stroke="none"/>
      <path d="M66.85 48.5 L66.9 48.1 68.1 48.9 66.85 48.5" fill="#c18448" fill-rule="evenodd" stroke="none"/>
      <path d="M66.8 48.5 L66.9 48.1 66.85 48.5 66.8 48.5" fill="#a86f37" fill-rule="evenodd" stroke="none"/>
      <path d="M93.55 32.2 L93.65 32.3 Q95.0 34.05 95.25 36.55 95.5 39.05 94.45 40.8 93.4 42.55 91.65 42.55 90.6 42.55 89.75 41.95 L92.25 39.85 Q95.8 36.0 93.7 32.6 91.65 36.55 88.0 40.05 L87.8 39.7 Q90.45 36.9 92.95 33.15 L93.55 32.2 M88.25 43.45 L88.35 44.55 Q88.7 48.3 87.15 50.9 85.55 53.55 82.95 53.55 81.0 53.55 79.35 52.1 85.05 50.6 88.25 43.45 M78.35 51.0 Q78.1 53.2 77.1 54.9 75.5 57.55 72.9 57.55 70.65 57.55 68.75 55.55 67.2 57.55 64.9 57.55 L64.4 57.55 Q64.25 62.3 62.1 65.85 59.3 70.55 54.65 70.55 50.6 70.55 47.3 67.0 L46.85 67.75 Q45.2 70.55 42.5 70.55 L41.25 70.4 40.9 69.25 40.85 69.05 40.65 68.35 41.0 66.3 Q41.7 65.55 42.8 66.65 43.85 67.7 47.45 64.85 L48.25 62.85 48.25 62.95 48.5 62.75 Q50.05 61.75 51.75 60.85 L57.25 57.4 59.7 55.4 77.9 50.45 78.25 50.9 78.35 51.0 M41.6 72.7 L41.7 73.55 Q42.35 80.2 39.55 84.85 36.75 89.55 32.15 89.55 27.5 89.55 23.75 84.85 22.45 83.2 21.5 81.25 L19.5 81.55 Q15.75 81.55 12.75 77.75 L11.25 75.55 Q7.3 75.35 4.05 71.3 0.7 67.05 0.1 61.05 L0.05 60.5 Q1.8 63.25 4.75 65.55 9.0 68.25 13.35 70.1 L17.0 71.45 17.1 71.5 18.6 72.05 Q21.4 77.8 24.5 80.45 L24.0 80.55 23.8 80.55 23.05 80.6 Q16.15 80.95 12.95 74.25 L12.95 74.0 12.75 73.05 13.3 72.95 12.7 73.0 11.8 72.05 11.45 72.35 11.2 72.85 Q9.1 72.5 7.35 71.1 L7.25 70.9 5.05 66.9 4.8 67.2 Q3.95 73.8 10.75 73.65 L11.05 73.5 Q10.95 74.15 11.3 74.9 L11.65 75.45 Q14.65 82.15 21.5 81.25 L22.85 81.0 24.1 80.7 24.6 80.55 Q30.95 85.85 38.5 77.8 39.0 76.4 39.0 74.75 L39.55 74.45 41.6 72.7 M47.3 67.0 Q48.15 65.2 48.25 62.95 48.15 65.2 47.3 67.0" fill="#606060" fill-rule="evenodd" stroke="none"/>
      <path d="M41.25 70.4 L41.25 70.5 41.6 72.7 39.55 74.45 39.0 74.75 Q39.0 76.4 38.5 77.8 30.95 85.85 24.6 80.55 L24.55 80.55 24.5 80.45 Q21.4 77.8 18.6 72.05 L17.1 71.5 17.0 71.45 13.35 70.1 Q9.0 68.25 4.75 65.55 1.8 63.25 0.05 60.5 L0.05 60.45 0.0 59.4 Q1.25 60.6 8.65 63.15 16.0 65.7 23.0 69.8 30.0 73.9 37.4 75.05 38.6 74.2 39.4 73.0 40.6 71.35 40.65 69.3 L40.65 69.15 40.85 69.05 40.9 69.25 41.25 70.4 M77.3 49.5 L77.9 50.45 59.7 55.4 57.25 57.4 51.75 60.85 Q50.05 61.75 48.5 62.75 L48.25 62.95 48.25 62.85 48.2 61.05 47.95 59.45 48.1 60.2 48.2 60.1 Q49.9 58.65 50.05 55.85 55.0 59.15 60.35 52.5 65.1 54.35 71.65 51.55 L77.3 49.5" fill="#424242" fill-rule="evenodd" stroke="none"/>
      <path d="M88.0 40.05 Q91.65 36.55 93.7 32.6 95.8 36.0 92.25 39.85 L89.75 41.95 89.4 41.7 89.1 41.4 89.05 41.35 89.0 41.3 88.95 41.3 88.6 40.85 88.55 40.8 88.0 40.05 M79.35 52.1 L78.35 51.0 78.25 50.9 77.9 50.45 77.3 49.5 76.7 48.25 77.3 49.5 71.65 51.55 Q65.1 54.35 60.35 52.5 55.0 59.15 50.05 55.85 49.9 58.65 48.2 60.1 L48.1 60.2 47.95 59.45 48.2 61.05 48.25 62.85 47.45 64.85 Q43.85 67.7 42.8 66.65 41.7 65.55 41.0 66.3 L40.65 68.35 39.7 65.9 39.65 65.8 39.55 65.7 39.5 65.6 39.5 65.5 39.4 65.4 39.35 65.25 38.05 63.1 39.35 65.25 39.4 65.4 39.5 65.5 39.5 65.6 39.55 65.7 39.65 65.8 39.7 65.9 40.65 68.35 40.85 69.05 40.65 69.15 40.65 69.3 Q40.6 71.35 39.4 73.0 38.6 74.2 37.4 75.05 30.0 73.9 23.0 69.8 16.0 65.7 8.65 63.15 1.25 60.6 0.0 59.4 L0.0 58.45 Q0.1 55.2 1.2 52.55 L1.7 51.55 1.85 51.2 35.7 73.9 36.5 69.0 36.5 68.95 Q37.15 65.8 38.05 63.1 L38.85 60.8 Q40.75 55.75 43.65 52.5 L44.1 52.0 Q52.1 43.55 66.8 48.5 L66.85 48.5 68.1 48.9 66.9 48.1 Q70.3 48.6 73.5 48.05 L76.7 48.25 76.4 47.35 Q78.8 46.6 81.15 45.2 84.3 43.3 87.25 40.3 L88.25 43.45 Q85.05 50.6 79.35 52.1 M43.65 52.5 L43.9 52.7 44.75 53.4 45.55 54.3 45.65 54.4 45.7 54.45 45.75 54.55 45.85 54.65 45.9 54.7 46.3 55.3 46.35 55.4 46.45 55.55 46.55 55.7 47.95 59.45 46.55 55.7 46.45 55.55 46.35 55.4 46.3 55.3 45.9 54.7 45.85 54.65 45.75 54.55 45.7 54.45 45.65 54.4 45.55 54.3 44.75 53.4 43.9 52.7 43.65 52.5 M21.5 81.25 Q14.65 82.15 11.65 75.45 L11.3 74.9 Q10.95 74.15 11.05 73.5 L10.75 73.65 Q3.95 73.8 4.8 67.2 L5.05 66.9 7.25 70.9 7.35 71.1 Q9.1 72.5 11.2 72.85 L11.45 72.35 11.8 72.05 12.7 73.0 13.3 72.95 12.75 73.05 12.95 74.0 12.95 74.25 Q16.15 80.95 23.05 80.6 L23.8 80.55 24.0 80.55 24.5 80.45 24.55 80.55 24.6 80.55 24.1 80.7 22.85 81.0 21.5 81.25" fill="#333333" fill-rule="evenodd" stroke="none"/>
      <path d="M87.8 39.7 L88.0 40.05" fill="none" stroke="#996600" stroke-linecap="round" stroke-linejoin="round" stroke-width="1.0"/>
      <path d="M89.75 41.95 Q90.6 42.55 91.65 42.55 93.4 42.55 94.45 40.8 95.5 39.05 95.25 36.55 95.0 34.05 93.65 32.3 L93.55 32.2 M89.4 41.7 L89.1 41.4 89.05 41.35 89.0 41.3 88.95 41.3 88.6 40.85 88.55 40.8 88.0 40.05 M88.25 43.45 L88.35 44.55 Q88.7 48.3 87.15 50.9 85.55 53.55 82.95 53.55 81.0 53.55 79.35 52.1 L78.35 51.0 Q78.1 53.2 77.1 54.9 75.5 57.55 72.9 57.55 70.65 57.55 68.75 55.55 67.2 57.55 64.9 57.55 L64.4 57.55 Q64.25 62.3 62.1 65.85 59.3 70.55 54.65 70.55 50.6 70.55 47.3 67.0 L46.85 67.75 Q45.2 70.55 42.5 70.55 L41.25 70.4 41.25 70.5 41.6 72.7 41.7 73.55 Q42.35 80.2 39.55 84.85 36.75 89.55 32.15 89.55 27.5 89.55 23.75 84.85 22.45 83.2 21.5 81.25 L19.5 81.55 Q15.75 81.55 12.75 77.75 L11.25 75.55 Q7.3 75.35 4.05 71.3 0.7 67.05 0.1 61.05 L0.05 60.5 M0.05 60.45 L0.0 59.4 0.0 58.45 Q0.1 55.2 1.2 52.55 L1.7 51.55 1.85 51.2 M87.25 40.3 L88.25 43.45 M76.7 48.25 L76.4 47.35 M76.7 48.25 L77.3 49.5 77.9 50.45 78.25 50.9 78.35 51.0 M38.05 63.1 L39.35 65.25 39.4 65.4 39.5 65.5 39.5 65.6 39.55 65.7 39.65 65.8 39.7 65.9 40.65 68.35 40.85 69.05 40.9 69.25 41.25 70.4 M48.25 62.85 L48.2 61.05 47.95 59.45 46.55 55.7 46.45 55.55 46.35 55.4 46.3 55.3 45.9 54.7 45.85 54.65 45.75 54.55 45.7 54.45 45.65 54.4 45.55 54.3 44.75 53.4 43.9 52.7 43.65 52.5 M48.25 62.95 Q48.15 65.2 47.3 67.0 M48.25 62.85 L48.25 62.95" fill="none" stroke="#424242" stroke-linecap="round" stroke-linejoin="round" stroke-width="1.0"/>
    </g>
    <g id="sprite0">
      <use ffdec:characterId="2" height="76.9" transform="matrix(1.0, 0.0, 0.0, 1.0, 0.0, 0.0)" width="101.1" xlink:href="#shape1"/>
    </g>
    <g id="shape1">
      <path d="M8.2 -28.7 Q10.0 -32.4 11.25 -36.95 L14.75 -36.95 49.05 -13.95 Q46.65 -8.85 44.1 -4.75 L43.5 -3.8 8.2 -28.7 M31.7 8.25 Q29.35 9.65 26.95 10.4 L24.05 11.1 Q20.85 11.65 17.45 11.15 L-18.6 -13.05 -20.2 -13.65 -20.65 -13.95 -9.45 -14.3 -7.75 -14.7 -4.4 -13.65 -3.65 -14.15 -5.1 -15.6 -3.75 -16.2 -2.5 -16.85 31.7 8.25 M-10.6 23.85 L-11.4 26.15 -12.95 32.0 -12.95 32.05 -13.75 36.95 -49.05 13.3 -49.05 6.8 -48.75 6.65 -47.65 5.4 -48.55 4.85 -48.25 4.05 -45.35 2.85 -45.2 2.4 -45.7 1.65 -46.65 1.3 -46.7 0.65 -45.8 -1.15 -10.6 23.85" fill="#654321" fill-rule="evenodd" stroke="none"/>
      <path d="M-2.5 -16.85 Q-0.25 -18.15 1.7 -19.9 L4.2 -22.45 7.7 -21.0 8.45 -21.6 5.65 -24.4 8.2 -28.7 43.5 -3.8 Q41.0 -0.05 38.35 2.75 L37.8 3.35 Q34.85 6.35 31.7 8.25 L-2.5 -16.85" fill="#603f1f" fill-rule="evenodd" stroke="none"/>
      <path d="M17.45 11.15 L17.35 11.55 Q2.65 6.6 -5.35 15.05 L-5.8 15.55 Q-8.7 18.8 -10.6 23.85 L-45.8 -1.15 -44.85 -2.85 -41.95 -4.05 -42.3 -5.1 -43.35 -5.25 -42.25 -6.75 Q-33.4 -18.3 -20.2 -13.65 L-18.6 -13.05 17.45 11.15" fill="url(#gradient0)" fill-rule="evenodd" stroke="none"/>
      <path d="M49.05 -13.95 Q46.65 -8.85 44.1 -4.75 L43.5 -3.8 Q41.0 -0.05 38.35 2.75 L37.8 3.35 Q34.85 6.35 31.7 8.25 29.35 9.65 26.95 10.4 L24.05 11.1 Q20.85 11.65 17.45 11.15 M17.35 11.55 Q2.65 6.6 -5.35 15.05 L-5.8 15.55 Q-8.7 18.8 -10.6 23.85 L-11.4 26.15 -12.95 32.0 -12.95 32.05 -13.75 36.95 -49.05 13.3" fill="none" stroke="#40270a" stroke-linecap="round" stroke-linejoin="round" stroke-width="3.0"/>
      <path d="M14.75 -36.95 L49.05 -13.95" fill="none" stroke="#654300" stroke-linecap="round" stroke-linejoin="round" stroke-width="3.0"/>
    </g>
    <linearGradient gradientTransform="matrix(0.011, -0.0152, 0.0292, 0.0211, -6.7, -5.65)" gradientUnits="userSpaceOnUse" id="gradient0" spreadMethod="pad" x1="-819.2" x2="819.2">
      <stop offset="0.0" stop-color="#654321"/>
      <stop offset="0.30196078431372547" stop-color="#a88643"/>
      <stop offset="0.9294117647058824" stop-color="#654321"/>
    </linearGradient>
  </defs>
</svg>
