<?xml version="1.0" encoding="UTF-8" standalone="no"?>
<svg xmlns:ffdec="https://www.free-decompiler.com/flash" xmlns:xlink="http://www.w3.org/1999/xlink" ffdec:objectType="frame" height="282.0px" width="309.0px" xmlns="http://www.w3.org/2000/svg">
  <g transform="matrix(3.0, 0.0, 0.0, 3.0, 0.0, 0.0)">
    <use ffdec:characterId="1" height="92.85" transform="matrix(1.0, 0.0, 0.0, 1.0, 1.7, 2.1)" width="101.55" xlink:href="#shape0"/>
    <use ffdec:characterId="2" height="58.35" transform="matrix(1.0, 0.0, 0.0, 1.0, -204.85, -173.25)" width="96.3" xlink:href="#shape1"/>
  </g>
  <defs>
    <g id="shape0">
      <path d="M0.85 51.55 L0.85 45.05 1.15 44.9 2.25 43.65 1.35 43.1 1.65 42.3 4.55 41.1 4.7 40.65 4.2 39.9 3.25 39.55 3.2 38.9 5.05 35.4 7.95 34.2 7.6 33.15 6.55 33.0 7.65 31.5 Q16.5 19.95 29.7 24.6 L29.25 24.3 40.45 23.95 42.15 23.55 45.5 24.6 46.25 24.1 44.8 22.65 46.15 22.05 47.4 21.4 Q49.65 20.1 51.6 18.35 L54.1 15.8 57.6 17.25 58.35 16.65 55.55 13.85 58.1 9.55 Q59.9 5.85 61.15 1.3 L64.65 1.3 98.95 24.3 Q96.55 29.4 94.0 33.5 L94.1 33.6 Q95.45 35.35 95.7 37.85 95.95 40.35 94.9 42.1 93.85 43.85 92.1 43.85 91.05 43.85 90.2 43.25 L89.85 43.0 89.55 42.7 89.5 42.65 89.45 42.6 89.4 42.6 89.05 42.15 89.0 42.1 88.45 41.35 88.25 41.0 87.7 41.6 88.7 44.75 88.8 45.85 Q89.15 49.6 87.6 52.2 86.0 54.85 83.4 54.85 81.45 54.85 79.8 53.4 L78.8 52.3 Q78.55 54.5 77.55 56.2 75.95 58.85 73.35 58.85 71.1 58.85 69.2 56.85 67.65 58.85 65.35 58.85 L64.85 58.85 Q64.7 63.6 62.55 67.15 59.75 71.85 55.1 71.85 51.05 71.85 47.75 68.3 L47.3 69.05 Q45.65 71.85 42.95 71.85 L41.7 71.7 41.7 71.8 42.05 74.0 42.15 74.85 Q42.8 81.5 40.0 86.15 37.2 90.85 32.6 90.85 27.95 90.85 24.2 86.15 22.9 84.5 21.95 82.55 L19.95 82.85 Q16.2 82.85 13.2 79.05 L11.7 76.85 Q7.75 76.65 4.5 72.6 1.15 68.35 0.55 62.35 L0.5 61.8 0.5 61.75 0.45 60.7 0.45 59.75 Q0.55 56.5 1.65 53.85 L2.15 52.85 2.3 52.5 0.85 51.55 M47.75 68.3 Q48.6 66.5 48.7 64.25 L48.7 64.15 48.65 62.35 48.4 60.75 47.0 57.0 46.9 56.85 46.8 56.7 46.75 56.6 46.35 56.0 46.3 55.95 46.2 55.85 46.15 55.75 46.1 55.7 46.0 55.6 45.2 54.7 44.35 54.0 44.1 53.8 44.35 54.0 45.2 54.7 46.0 55.6 46.1 55.7 46.15 55.75 46.2 55.85 46.3 55.95 46.35 56.0 46.75 56.6 46.8 56.7 46.9 56.85 47.0 57.0 48.4 60.75 48.65 62.35 48.7 64.15 48.7 64.25 Q48.6 66.5 47.75 68.3 M38.5 64.4 L39.3 62.1 Q41.2 57.05 44.1 53.8 L44.55 53.3 Q52.55 44.85 67.25 49.8 52.55 44.85 44.55 53.3 L44.1 53.8 Q41.2 57.05 39.3 62.1 L38.5 64.4 39.8 66.55 39.85 66.7 39.95 66.8 39.95 66.9 40.0 67.0 40.1 67.1 40.15 67.2 41.1 69.65 41.3 70.35 41.35 70.55 41.7 71.7 41.35 70.55 41.3 70.35 41.1 69.65 40.15 67.2 40.1 67.1 40.0 67.0 39.95 66.9 39.95 66.8 39.85 66.7 39.8 66.55 38.5 64.4 Q37.6 67.1 36.95 70.25 L36.95 70.3 36.15 75.2 2.3 52.5 36.15 75.2 36.95 70.3 36.95 70.25 Q37.6 67.1 38.5 64.4 M88.25 41.0 Q90.9 38.2 93.4 34.45 L94.0 33.5 93.4 34.45 Q90.9 38.2 88.25 41.0 M78.8 52.3 L78.7 52.2 78.35 51.75 77.75 50.8 77.15 49.55 76.85 48.65 77.15 49.55 77.75 50.8 78.35 51.75 78.7 52.2 78.8 52.3 M76.85 48.65 Q79.25 47.9 81.6 46.5 84.75 44.6 87.7 41.6 84.75 44.6 81.6 46.5 79.25 47.9 76.85 48.65 L73.95 49.35 Q70.75 49.9 67.35 49.4 70.75 49.9 73.95 49.35 L76.85 48.65" fill="#4d300c" fill-rule="evenodd" stroke="none"/>
      <path d="M94.0 33.5 L94.1 33.6 Q95.45 35.35 95.7 37.85 95.95 40.35 94.9 42.1 93.85 43.85 92.1 43.85 91.05 43.85 90.2 43.25 M89.85 43.0 L89.55 42.7 89.5 42.65 89.45 42.6 89.4 42.6 89.05 42.15 89.0 42.1 88.45 41.35 88.25 41.0 M87.7 41.6 L88.7 44.75 88.8 45.85 Q89.15 49.6 87.6 52.2 86.0 54.85 83.4 54.85 81.45 54.85 79.8 53.4 L78.8 52.3 Q78.55 54.5 77.55 56.2 75.95 58.85 73.35 58.85 71.1 58.85 69.2 56.85 67.65 58.85 65.35 58.85 L64.85 58.85 Q64.7 63.6 62.55 67.15 59.75 71.85 55.1 71.85 51.05 71.85 47.75 68.3 L47.3 69.05 Q45.65 71.85 42.95 71.85 L41.7 71.7 41.7 71.8 42.05 74.0 42.15 74.85 Q42.8 81.5 40.0 86.15 37.2 90.85 32.6 90.85 27.95 90.85 24.2 86.15 22.9 84.5 21.95 82.55 L19.95 82.85 Q16.2 82.85 13.2 79.05 L11.7 76.85 Q7.75 76.65 4.5 72.6 1.15 68.35 0.55 62.35 L0.5 61.8 M0.5 61.75 L0.45 60.7 0.45 59.75 Q0.55 56.5 1.65 53.85 L2.15 52.85 2.3 52.5 M44.1 53.8 L44.35 54.0 45.2 54.7 46.0 55.6 46.1 55.7 46.15 55.75 46.2 55.85 46.3 55.95 46.35 56.0 46.75 56.6 46.8 56.7 46.9 56.85 47.0 57.0 48.4 60.75 48.65 62.35 48.7 64.15 48.7 64.25 Q48.6 66.5 47.75 68.3 M38.5 64.4 L39.8 66.55 39.85 66.7 39.95 66.8 39.95 66.9 40.0 67.0 40.1 67.1 40.15 67.2 41.1 69.65 41.3 70.35 41.35 70.55 41.7 71.7 M76.85 48.65 L77.15 49.55 77.75 50.8 78.35 51.75 78.7 52.2 78.8 52.3" fill="none" stroke="#4d300c" stroke-linecap="round" stroke-linejoin="round" stroke-width="1.0"/>
      <path d="M98.95 24.3 Q96.55 29.4 94.0 33.5 L93.4 34.45 Q90.9 38.2 88.25 41.0 L87.7 41.6 Q84.75 44.6 81.6 46.5 79.25 47.9 76.85 48.65 L73.95 49.35 Q70.75 49.9 67.35 49.4 M2.3 52.5 L0.85 51.55 M67.25 49.8 Q52.55 44.85 44.55 53.3 L44.1 53.8 Q41.2 57.05 39.3 62.1 L38.5 64.4 Q37.6 67.1 36.95 70.25 L36.95 70.3 36.15 75.2 2.3 52.5" fill="none" stroke="#4d300c" stroke-linecap="round" stroke-linejoin="round" stroke-width="3.0"/>
      <path d="M64.65 1.3 L98.95 24.3" fill="none" stroke="#4d300c" stroke-linecap="round" stroke-linejoin="round" stroke-width="3.0"/>
      <path d="M76.4 47.35 L76.7 48.25 73.5 48.05 76.4 47.35" fill="#b58c46" fill-rule="evenodd" stroke="none"/>
      <path d="M98.5 23.0 Q96.1 28.1 93.55 32.2 L92.95 33.15 57.65 8.25 Q59.35 4.8 60.55 0.55 L60.7 0.0 64.2 0.0 98.5 23.0 M81.15 45.2 Q78.8 46.6 76.4 47.35 L73.5 48.05 Q70.3 48.6 66.9 48.1 L30.85 23.9 29.25 23.3 28.8 23.0 40.0 22.65 41.7 22.25 45.05 23.3 45.8 22.8 44.35 21.35 45.7 20.75 46.95 20.1 81.15 45.2 M38.85 60.8 L38.05 63.1 Q37.15 65.8 36.5 68.95 L36.5 69.0 35.7 73.9 1.85 51.2 0.4 50.25 0.4 43.75 0.7 43.6 1.8 42.35 0.9 41.8 1.2 41.0 4.1 39.8 4.25 39.35 3.75 38.6 2.8 38.25 2.75 37.6 3.65 35.8 38.85 60.8" fill="#7a5128" fill-rule="evenodd" stroke="none"/>
      <path d="M92.95 33.15 Q90.45 36.9 87.8 39.7 L87.25 40.3 Q84.3 43.3 81.15 45.2 L46.95 20.1 51.15 17.05 53.65 14.5 57.15 15.95 57.9 15.35 55.1 12.55 57.65 8.25 92.95 33.15" fill="#744c26" fill-rule="evenodd" stroke="none"/>
      <path d="M66.9 48.1 L68.1 48.9 66.85 48.5 66.9 48.1" fill="#9a6939" fill-rule="evenodd" stroke="none"/>
      <path d="M66.85 48.5 L66.8 48.5 66.9 48.1 66.85 48.5" fill="#86582c" fill-rule="evenodd" stroke="none"/>
      <path d="M66.8 48.5 Q52.1 43.55 44.1 52.0 L43.65 52.5 Q40.75 55.75 38.85 60.8 L3.65 35.8 4.6 34.1 7.5 32.9 7.15 31.85 6.1 31.7 7.2 30.2 Q16.05 18.65 29.25 23.3 L30.85 23.9 66.9 48.1 66.8 48.5" fill="url(#gradient0)" fill-rule="evenodd" stroke="none"/>
      <path d="M1.85 51.2 L1.7 51.55 1.2 52.55 Q0.1 55.2 0.0 58.45 L0.0 59.4" fill="none" stroke="#7a5100" stroke-linecap="round" stroke-linejoin="round" stroke-width="1.0"/>
      <path d="M98.5 23.0 Q96.1 28.1 93.55 32.2 L92.95 33.15 Q90.45 36.9 87.8 39.7 L87.25 40.3 Q84.3 43.3 81.15 45.2 78.8 46.6 76.4 47.35 L73.5 48.05 Q70.3 48.6 66.9 48.1 M66.85 48.5 L66.8 48.5 Q52.1 43.55 44.1 52.0 L43.65 52.5 Q40.75 55.75 38.85 60.8 L38.05 63.1 Q37.15 65.8 36.5 68.95 L36.5 69.0 35.7 73.9 1.85 51.2 0.4 50.25" fill="none" stroke="#4d300c" stroke-linecap="round" stroke-linejoin="round" stroke-width="3.0"/>
      <path d="M64.2 0.0 L98.5 23.0" fill="none" stroke="#7a5100" stroke-linecap="round" stroke-linejoin="round" stroke-width="3.0"/>
      <path d="M9.15 40.25 L19.0 37.1 22.4 27.35 25.55 37.2 35.35 40.65 25.45 43.75 22.05 53.55 18.9 43.65 9.15 40.25" fill="#4d300c" fill-rule="evenodd" stroke="none"/>
      <path d="M13.45 40.45 L20.25 38.3 22.6 31.55 24.75 38.35 31.55 40.75 24.7 42.9 22.35 49.65 20.2 42.8 13.45 40.45" fill="#654421" fill-rule="evenodd" stroke="none"/>
    </g>
    <linearGradient gradientTransform="matrix(0.011, -0.0152, 0.0292, 0.0211, 42.75, 31.3)" gradientUnits="userSpaceOnUse" id="gradient0" spreadMethod="pad" x1="-819.2" x2="819.2">
      <stop offset="0.0" stop-color="#7a5128"/>
      <stop offset="0.30196078431372547" stop-color="#cca351"/>
      <stop offset="0.9294117647058824" stop-color="#7a5128"/>
    </linearGradient>
    <g id="shape1">
      <path d="M300.1 208.55 L300.2 208.65 Q301.55 210.4 301.8 212.9 302.05 215.4 301.0 217.15 299.95 218.9 298.2 218.9 297.15 218.9 296.3 218.3 L298.8 216.2 Q302.35 212.35 300.25 208.95 298.2 212.9 294.55 216.4 L294.35 216.05 Q297.0 213.25 299.5 209.5 L300.1 208.55 M294.8 219.8 L294.9 220.9 Q295.25 224.65 293.7 227.25 292.1 229.9 289.5 229.9 287.55 229.9 285.9 228.45 291.6 226.95 294.8 219.8 M284.9 227.35 Q284.65 229.55 283.65 231.25 282.05 233.9 279.45 233.9 277.2 233.9 275.3 231.9 273.75 233.9 271.45 233.9 L270.95 233.9 Q270.8 238.65 268.65 242.2 265.85 246.9 261.2 246.9 257.15 246.9 253.85 243.35 L253.4 244.1 Q251.75 246.9 249.05 246.9 L247.8 246.75 247.45 245.6 247.4 245.4 247.2 244.7 247.55 242.65 Q248.25 241.9 249.35 243.0 250.4 244.05 254.0 241.2 L254.8 239.2 254.8 239.3 255.05 239.1 Q256.6 238.1 258.3 237.2 261.2 235.7 263.8 233.75 L266.25 231.75 284.45 226.8 284.8 227.25 284.9 227.35 M248.15 249.05 L248.25 249.9 Q248.9 256.55 246.1 261.2 243.3 265.9 238.7 265.9 234.05 265.9 230.3 261.2 229.0 259.55 228.05 257.6 L226.05 257.9 Q222.3 257.9 219.3 254.1 L217.8 251.9 Q213.85 251.7 210.6 247.65 207.25 243.4 206.65 237.4 L206.6 236.85 Q208.35 239.6 211.3 241.9 215.55 244.6 219.9 246.45 L223.55 247.8 223.65 247.85 225.15 248.4 Q227.95 254.15 231.05 256.8 L230.55 256.9 230.35 256.9 229.6 256.95 Q222.7 257.3 219.5 250.6 L219.5 250.35 219.3 249.4 219.85 249.3 219.25 249.35 218.35 248.4 218.0 248.7 217.75 249.2 Q215.65 248.85 213.9 247.45 L213.8 247.25 211.6 243.25 211.35 243.55 Q210.5 250.15 217.3 250.0 L217.6 249.85 Q217.5 250.5 217.85 251.25 L218.2 251.8 Q221.2 258.5 228.05 257.6 L229.4 257.35 230.65 257.05 231.15 256.9 Q237.5 262.2 245.05 254.15 245.55 252.75 245.55 251.1 L246.1 250.8 248.15 249.05 M253.85 243.35 Q254.7 241.55 254.8 239.3 254.7 241.55 253.85 243.35" fill="#fcefdc" fill-rule="evenodd" stroke="none"/>
      <path d="M294.55 216.4 Q298.2 212.9 300.25 208.95 302.35 212.35 298.8 216.2 L296.3 218.3 295.95 218.05 295.65 217.75 295.6 217.7 295.55 217.65 295.5 217.65 295.15 217.2 295.1 217.15 294.55 216.4 M285.9 228.45 L284.9 227.35 284.8 227.25 284.45 226.8 283.85 225.85 278.2 227.9 Q271.65 230.7 266.9 228.85 261.55 235.5 256.6 232.2 256.45 235.0 254.75 236.45 L254.65 236.55 254.5 235.8 253.1 232.05 253.0 231.9 252.9 231.75 252.85 231.65 252.45 231.05 252.4 231.0 252.3 230.9 252.25 230.8 252.2 230.75 252.1 230.65 251.3 229.75 250.45 229.05 250.2 228.85 250.65 228.35 Q258.65 219.9 273.35 224.85 L273.4 224.85 274.65 225.25 273.45 224.45 Q276.85 224.95 280.05 224.4 L283.25 224.6 282.95 223.7 Q285.35 222.95 287.7 221.55 290.85 219.65 293.8 216.65 L294.8 219.8 Q291.6 226.95 285.9 228.45 M206.55 235.75 L206.55 234.8 Q206.65 231.55 207.75 228.9 L208.25 227.9 208.4 227.55 242.25 250.25 243.05 245.35 243.05 245.3 Q243.7 242.15 244.6 239.45 L245.4 237.15 Q247.3 232.1 250.2 228.85 L250.45 229.05 251.3 229.75 252.1 230.65 252.2 230.75 252.25 230.8 252.3 230.9 252.4 231.0 252.45 231.05 252.85 231.65 252.9 231.75 253.0 231.9 253.1 232.05 254.5 235.8 254.75 237.4 254.8 239.2 254.0 241.2 Q250.4 244.05 249.35 243.0 248.25 241.9 247.55 242.65 L247.2 244.7 246.25 242.25 246.2 242.15 246.1 242.05 246.05 241.95 246.05 241.85 245.95 241.75 245.9 241.6 244.6 239.45 245.9 241.6 245.95 241.75 246.05 241.85 246.05 241.95 246.1 242.05 246.2 242.15 246.25 242.25 247.2 244.7 247.4 245.4 247.2 245.5 247.2 245.65 Q247.15 247.7 245.95 249.35 245.15 250.55 243.95 251.4 236.55 250.25 229.55 246.15 222.55 242.05 215.2 239.5 207.8 236.95 206.55 235.75 M283.25 224.6 L283.85 225.85 283.25 224.6 M228.05 257.6 Q221.2 258.5 218.2 251.8 L217.85 251.25 Q217.5 250.5 217.6 249.85 L217.3 250.0 Q210.5 250.15 211.35 243.55 L211.6 243.25 213.8 247.25 213.9 247.45 Q215.65 248.85 217.75 249.2 L218.0 248.7 218.35 248.4 219.25 249.35 219.85 249.3 219.3 249.4 219.5 250.35 219.5 250.6 Q222.7 257.3 229.6 256.95 L230.35 256.9 230.55 256.9 231.05 256.8 231.1 256.9 231.15 256.9 230.65 257.05 229.4 257.35 228.05 257.6" fill="#b6711f" fill-rule="evenodd" stroke="none"/>
      <path d="M247.8 246.75 L247.8 246.85 248.15 249.05 246.1 250.8 245.55 251.1 Q245.55 252.75 245.05 254.15 237.5 262.2 231.15 256.9 L231.1 256.9 231.05 256.8 Q227.95 254.15 225.15 248.4 L223.65 247.85 223.55 247.8 219.9 246.45 Q215.55 244.6 211.3 241.9 208.35 239.6 206.6 236.85 L206.6 236.8 206.55 235.75 Q207.8 236.95 215.2 239.5 222.55 242.05 229.55 246.15 236.55 250.25 243.95 251.4 245.15 250.55 245.95 249.35 247.15 247.7 247.2 245.65 L247.2 245.5 247.4 245.4 247.45 245.6 247.8 246.75 M283.85 225.85 L284.45 226.8 266.25 231.75 263.8 233.75 Q261.2 235.7 258.3 237.2 256.6 238.1 255.05 239.1 L254.8 239.3 254.8 239.2 254.75 237.4 254.5 235.8 254.65 236.55 254.75 236.45 Q256.45 235.0 256.6 232.2 261.55 235.5 266.9 228.85 271.65 230.7 278.2 227.9 L283.85 225.85" fill="#e3b058" fill-rule="evenodd" stroke="none"/>
      <path d="M296.3 218.3 Q297.15 218.9 298.2 218.9 299.95 218.9 301.0 217.15 302.05 215.4 301.8 212.9 301.55 210.4 300.2 208.65 L300.1 208.55 M294.35 216.05 L294.55 216.4 295.1 217.15 295.15 217.2 295.5 217.65 295.55 217.65 295.6 217.7 295.65 217.75 295.95 218.05 M294.8 219.8 L294.9 220.9 Q295.25 224.65 293.7 227.25 292.1 229.9 289.5 229.9 287.55 229.9 285.9 228.45 L284.9 227.35 Q284.65 229.55 283.65 231.25 282.05 233.9 279.45 233.9 277.2 233.9 275.3 231.9 273.75 233.9 271.45 233.9 L270.95 233.9 Q270.8 238.65 268.65 242.2 265.85 246.9 261.2 246.9 257.15 246.9 253.85 243.35 L253.4 244.1 Q251.75 246.9 249.05 246.9 L247.8 246.75 247.8 246.85 248.15 249.05 248.25 249.9 Q248.9 256.55 246.1 261.2 243.3 265.9 238.7 265.9 234.05 265.9 230.3 261.2 229.0 259.55 228.05 257.6 L226.05 257.9 Q222.3 257.9 219.3 254.1 L217.8 251.9 Q213.85 251.7 210.6 247.65 207.25 243.4 206.65 237.4 L206.6 236.85 M206.6 236.8 L206.55 235.75 M283.25 224.6 L282.95 223.7 M293.8 216.65 L294.8 219.8 M283.85 225.85 L283.25 224.6 M284.45 226.8 L284.8 227.25 284.9 227.35 M283.85 225.85 L284.45 226.8 M254.8 239.3 Q254.7 241.55 253.85 243.35 M254.5 235.8 L253.1 232.05 253.0 231.9 252.9 231.75 252.85 231.65 252.45 231.05 252.4 231.0 252.3 230.9 252.25 230.8 252.2 230.75 252.1 230.65 251.3 229.75 250.45 229.05 250.2 228.85 M254.8 239.2 L254.8 239.3 M254.8 239.2 L254.75 237.4 254.5 235.8 M244.6 239.45 L245.9 241.6 245.95 241.75 246.05 241.85 246.05 241.95 246.1 242.05 246.2 242.15 246.25 242.25 247.2 244.7 247.4 245.4 247.45 245.6 247.8 246.75" fill="none" stroke="#996600" stroke-linecap="round" stroke-linejoin="round" stroke-width="1.0"/>
    </g>
  </defs>
</svg>
