<?xml version="1.0" encoding="UTF-8"?>
<svg version="1.1" viewBox="0 0 131.6 168.85" xmlns="http://www.w3.org/2000/svg" xmlns:cc="http://creativecommons.org/ns#" xmlns:dc="http://purl.org/dc/elements/1.1/" xmlns:rdf="http://www.w3.org/1999/02/22-rdf-syntax-ns#" xmlns:xlink="http://www.w3.org/1999/xlink">
<metadata>
<rdf:RDF>
<cc:Work rdf:about="">
<dc:format>image/svg+xml</dc:format>
<dc:type rdf:resource="http://purl.org/dc/dcmitype/StillImage"/>
</cc:Work>
</rdf:RDF>
</metadata>
<g transform="translate(-150.78 -139.58)">
<use transform="translate(150.8,139.6)" width="131.55" height="168.8" xlink:href="#a"/>
</g>
<defs>
<g id="a" transform="translate(-150.8,-139.6)">
<path d="m225.9 237.35 5.95 6.65 1.35-4.1-1.35 4.1-5.95-6.65m11.7-13.35-1 19.95 10.1 5.4-10.05 2.35 0.25 17.95-4.8-16.5-12.35 8.3 7.9-15-6.3-15.6 10 10.05 6.25-16.9m-14 33.1 5.55-8.75-5.55 8.75" fill="#ffed11" fill-rule="evenodd"/>
<path d="m217.05 190.7h-0.1 0.1" fill="#564361" fill-rule="evenodd"/>
<path d="m277.2 178.45h0.2l-0.25 0.2 0.05-0.2m-14.3 113.9v-0.05h0.1l-0.1 0.05" fill="#9176a0" fill-rule="evenodd"/>
<path d="m272.95 205.45 0.2 0.05-0.2-0.05m-0.35 0.1 0.1 0.2-0.2 0.1 0.1-0.3m0.55-0.05 0.1 0.05-0.1-0.05m-0.4 0.35-0.2 0.1-0.05-0.1 0.2-0.1 0.05 0.1" fill="#9e8fa7" fill-rule="evenodd"/>
<path d="m279.6 201.45 0.05-0.05 0.1 0.45-0.15-0.4m-7 4 0.05 0.05-0.05 0.05v-0.1m6.4-4.25-0.3-0.1 0.35-0.05-0.05 0.15" fill="#b0a5b8" fill-rule="evenodd"/>
<path d="m278.7 201.05h0.35l-0.35 0.05v-0.05m0.45 0.4 0.1 0.35-0.1 0.1v-0.45" fill="#c2bac9" fill-rule="evenodd"/>
<path d="m272.65 205.5v-0.05h0.3l0.2 0.05-0.4 0.35-0.15-0.3 0.05-0.05m6.5-3.45v-0.15l0.1-0.1 0.05 0.15-0.15 0.1m-6 3.45-0.45 0.25 0.45-0.25" fill="#3f878b" fill-rule="evenodd"/>
<path d="m172.45 175.4 8.55 2.1 5.65 1-0.7 9.85q-8.3-1.45-15.45-3.7-16.35-5.1-19.1-11.6v-10l-0.15-0.3q-0.35-1-0.45-2.3v-0.3q0-8.45 19.3-14.55 19.2-6 46.5-6 27.25 0 46.5 6 16.25 5.1 18.8 12l0.45 2.55-0.45 2.55-0.7 1.5q-3.85-5.65-17.8-10.1-19.25-6-46.5-6-27.35 0-46.55 6-8.4 2.65-13.15 5.8l-2.7 2.05q-1.5 1.35-2.25 2.7 3.85 5.65 17.85 10l2.35 0.75m-20.2-10.75q-0.6-0.9-0.85-1.6 0.25 0.7 0.85 1.6" fill="#9d5f00" fill-rule="evenodd"/>
<path d="m185.95 188.35 3.35 0.5-8.4 106.3q-5.75-1.2-10.9-2.85-15.7-4.85-18.6-11.45 2.9 6.6 18.6 11.45 5.15 1.65 10.9 2.85l3.85 0.75-2.2 9.6q-6.65-1.3-12.55-3.15-8.35-2.6-14.3-9.6-4.85-5.75-4.3-7.95v-111.75q2.75 6.5 19.1 11.6 7.15 2.25 15.45 3.7m61.6-10q4.25-34.55-90.35-18.45 4.75-3.15 13.15-5.8 19.2-6 46.55-6 27.25 0 46.5 6 13.95 4.45 17.8 10.1-0.95 1.55-2.65 3.05l-0.15 0.1q-3.55 2.95-10.2 5.55l-5.1 1.75q-7.2 2.25-15.55 3.7" fill="#6f4200" fill-rule="evenodd"/>
<path d="m180.35 171.15q-11.65-2.9-22.45-7.35 8.3 5.9 18.8 9.3l-4.25 2.3-2.35-0.75q-14-4.35-17.85-10 0.75-1.35 2.25-2.7l2.7-2.05q94.6-16.1 90.35 18.45-13 2.2-28.85 2.35h-2.1l-12.1-0.3 1.45-2.6q11.9 0.35 25.6-1.35l-24.3-0.85 5.05-8.75 5.5 0.25q6.85 0 11.75-1.35 4.85-1.35 4.85-3.25t-4.85-3.25q-2.9-0.8-6.45-1.1l-5.3-0.25q-6.9 0-11.75 1.35t-4.85 3.25 4.85 3.25l-11.85-2.05-13.85 7.45m18 8.8 6.1 0.45-1.7 9.85-13.45-1.4 13.45 1.4 4.15 0.25-11.4 106.85 3.6 0.35-2.6 9.8-13.95-2 2.2-9.6-3.85-0.75 8.4-106.3-3.35-0.5 0.7-9.85 11.7 1.45m-13.6 115.95 10.75 1.45-10.75-1.45" fill="#d98200" fill-rule="evenodd"/>
<path d="m180.35 171.15-3.65 1.95q-10.5-3.4-18.8-9.3 10.8 4.45 22.45 7.35m25.6 6.65 1.3-2.2 24.3 0.85q-13.7 1.7-25.6 1.35m6.35-10.95-5.75-0.95-0.5-0.15q-4.85-1.35-4.85-3.25t4.85-3.25 11.75-1.35l5.3 0.25q3.55 0.3 6.45 1.1 4.85 1.35 4.85 3.25t-4.85 3.25q-4.9 1.35-11.75 1.35l-5.5-0.25-6.25-1.1 6.25 1.1m6.4 13.85q15.85-0.15 28.85-2.35 8.35-1.45 15.55-3.7l5.1-1.75-1 10.55-3.65 1.2q-17.85 5.65-42.8 6.05 24.95-0.4 42.8-6.05l3.65-1.2 3.3-1.3 2.1 23.3v0.1l-0.1 0.3 0.05 0.1q-6.3 3.35-11.8 4.85l-5 1.35-8.65 1.65-10.1 0.8-4.7 0.4-0.3 0.05-14.55 0.45 3.3-24.8h-3.8l1.75-10m-4.9 61.8v39.9h3.25q21.8 0 38.45-3.85l-2.5 16.4 6.55-1.6-2.2 10.6-9.8 2.1q-13.95 2.35-31.05 2.35l-10.9-0.25 2.55-9.95-1.85-0.05 7.5-55.65m-5.65 55.7 8.35 0.15q18.45 0 33.2-2.75l3.3-0.65-3.3 0.65q-14.75 2.75-33.2 2.75l-8.35-0.15" fill="#ff9b04" fill-rule="evenodd"/>
<path d="m204.45 180.4h0.05l12.1 0.3h2.1l-1.75 10-10.05-0.2 10.05 0.2h3.8l-3.3 24.8h-3.65v27l-7.5 55.65 1.85 0.05-2.55 9.95-9.1-0.65 2.6-9.8-3.6-0.35 11.4-106.85-4.15-0.25 1.7-9.85h0.05-0.05m-5.35 117.3 7.2 0.45-7.2-0.45" fill="#b36b00" fill-rule="evenodd"/>
<path d="m267.2 183.45 1-10.55q6.65-2.6 10.2-5.55l-1.2 11.1-0.05 0.2 0.25-0.2q2.45-1.7 3.8-3.5l-2.5 26.1v0.05l0.3 0.1-0.05 0.15 0.2 0.1v0.6l-6 3.45-0.2-0.05h-0.3v0.05l-0.05-0.05-2.1-23.3-3.3 1.3m3.3-1.3q4-1.7 6.65-3.5-2.65 1.8-6.65 3.5m-15 96.4 8.05-2.2 1.95-0.6-2.6 16.55v0.05l-3.35 1-6.55 1.6 2.5-16.4" fill="#ffc875" fill-rule="evenodd"/>
<path d="m281.2 164.2 0.7-1.5v35.85q-0.8 1.45-2.25 2.85l-0.4 0.4-0.1-0.35-0.1-0.4h-0.35l2.5-26.1q-1.35 1.8-3.8 3.5h-0.2l1.2-11.1 0.15-0.1q1.7-1.5 2.65-3.05m-15.7 111.55q13.35-4.55 16.4-10.3v24.7q-2.25 7-18.9 12.2l-5.65 1.6 2.2-10.6 3.35-1 0.1-0.05h-0.1l2.6-16.55m-2.5 16.55q16.65-5.2 18.9-12.2-2.25 7-18.9 12.2" fill="#ffdfb0" fill-rule="evenodd"/>
<path d="m281.9 222.8v12.45l-3.5-4.45q2.9-4.25 3.5-8" fill="#f96" fill-rule="evenodd"/>
<path d="m265.55 241.3q-7.8 3.35-15.2 0.6-4.6-2.7-5.15-8.45 8.05 9.95 20.3 7.75l0.05 0.1m-18.55-16.9q2.4-3.6 7.85-3.1 8.3 0.85 10.85 6.85-7.8-6.05-18.7-3.75m17.85-8.5q5.55-8.65 13.05-5.2 3.45 1.15 4 5.1v3.25q-5.05-7.85-17.05-3.15m17.05 19.35v6.75l-6.7-7.2 3.2-4 3.5 4.45" fill="#f1e4d8" fill-rule="evenodd"/>
<path d="m265.7 241.2-0.05 0.05-0.1 0.05-0.05-0.1q-12.25 2.2-20.3-7.75l-0.1-2.65q0.3-4.05 1.9-6.4 10.9-2.3 18.7 3.75l1.85-2q-5.85-3.45-2.7-10.25 12-4.7 17.05 3.15v3.75q-0.6 3.75-3.5 8l-3.2 4 6.7 7.2v12.1l-14.15-13.9-1.75 0.9-0.35 0.05-0.15 0.05 0.15-0.05 0.35-0.05-0.3 0.1-0.05-0.05 0.05 0.05" fill="#fbf8f4" fill-rule="evenodd"/>
<path d="m279.25 201.8 0.35-0.35 0.15 0.4-0.1-0.45q1.45-1.4 2.25-2.85v17.25q-0.55-3.95-4-5.1-7.5-3.45-13.05 5.2-3.15 6.8 2.7 10.25l-1.85 2q-2.55-6-10.85-6.85-5.45-0.5-7.85 3.1-1.6 2.35-1.9 6.4l0.1 2.65q0.55 5.75 5.15 8.45 7.4 2.75 15.2-0.6l0.1-0.05 0.05-0.05 16.2 17.45v6.8q-3.05 5.75-16.4 10.3l-1.95 0.6-8.05 2.2q-16.65 3.85-38.45 3.85h-3.25v-66.9h3.65l14.55-0.45 0.3-0.05 4.7-0.4 10.1-0.8 8.65-1.65 5-1.35q5.5-1.5 11.8-4.85l0.2-0.1 0.4-0.35 6-3.45 0.15-0.1-0.05-0.15m-6.1 3.7 0.1 0.05-0.1-0.05m-35.55 18.5-6.25 16.9-10-10.05 6.3 15.6-7.9 15 12.35-8.3 4.8 16.5-0.25-17.95 10.05-2.35-10.1-5.4 1-19.95" fill="#f66" fill-rule="evenodd"/>
<path d="m176.7 173.1 3.65-1.95 13.85-7.45 11.85 2.05v0.1l0.5 0.05 5.75 0.95-5.05 8.75-1.3 2.2-1.45 2.6h-0.05l-6.1-0.45 1.15-2.7 1-2.35 2.6-4.6-8.5-1.55-10.35 6.65-3.25 2.1-8.55-2.1 4.25-2.3" fill="#ccc" fill-rule="evenodd"/>
<path d="m184.25 175.4 10.35-6.65 8.5 1.55-2.6 4.6-1 2.35q-0.75-8.6-15.25-1.85" fill="#e9e9e9" fill-rule="evenodd"/>
<path d="m281.9 258.65-16.2-17.45 0.3-0.1 1.75-0.9 14.15 13.9v4.55" fill="#ff2f2f" fill-rule="evenodd"/>
<path d="m181 177.5 3.25-2.1q14.5-6.75 15.25 1.85l-1.15 2.7-11.7-1.45-5.65-1" fill="#999" fill-rule="evenodd"/>
<path d="m176.7 173.1 3.65-1.95m-3.65 1.95-4.25 2.3 8.55 2.1 3.25-2.1 10.35-6.65 8.5 1.55-2.6 4.6-1 2.35-1.15 2.7 6.1 0.45h0.05l1.45-2.6 1.3-2.2 5.05-8.75m-6.25-1.1-11.85-2.05-13.85 7.45m-23.15-11.25-2.7 2.05q-1.5 1.35-2.25 2.7 3.85 5.65 17.85 10l2.35 0.75m16.85 13.45-3.35-0.5q-8.3-1.45-15.45-3.7-16.35-5.1-19.1-11.6v107.8q2.9 6.6 18.6 11.45 5.15 1.65 10.9 2.85m8.4-106.3 13.45 1.4 4.15 0.25 10.05 0.2h3.8q24.95-0.4 42.8-6.05l3.65-1.2m-80.55-4.95 11.7 1.45m-14.1-4.55q14.5-6.75 15.25 1.85m-18.5 0.25 5.65 1m19.4-12.75 6.25 1.1m-7.8 13.55 12.1 0.3h2.1q15.85-0.15 28.85-2.35m-90.35-18.45q4.75-3.15 13.15-5.8 19.2-6 46.55-6 27.25 0 46.5 6 13.95 4.45 17.8 10.1l0.7-1.5 0.45-2.55-0.45-2.55q-2.55-6.9-18.8-12-19.25-6-46.5-6-27.3 0-46.5 6-19.3 6.1-19.3 14.55v0.3q0.1 1.3 0.45 2.3l0.15 0.3q0.25 0.7 0.85 1.6m52.25 15.75h-0.05m63.75-7.5-5.1 1.75q-7.2 2.25-15.55 3.7m31-11.1q1.7-1.5 2.65-3.05m-13 8.7q6.65-2.6 10.2-5.55m-1 11.1q2.45-1.7 3.8-3.5m-2.05 26.5 0.1 0.35 0.4-0.4q1.45-1.4 2.25-2.85v-35.85m-4.75 15.95 0.25-0.2m-0.25 0.2q-2.65 1.8-6.65 3.5l-3.3 1.3m5.45 22.05v-0.05m0.5 0.05 6-3.45v-0.6m-127.75-38.4v10m0 107.8v3.95q-0.55 2.2 4.3 7.95 5.95 7 14.3 9.6 5.9 1.85 12.55 3.15l13.95 2 9.1 0.65 10.9 0.25q17.1 0 31.05-2.35l9.8-2.1 5.65-1.6q16.65-5.2 18.9-12.2v-10.05q-2.25 7-18.9 12.2l-0.1 0.05m-78.15 3.55-3.85-0.75m98.35-93.35 0.05 0.15-0.15 0.1m0-0.15 0.1-0.1m0.5 0.05-0.1-0.45m-7 4.1-0.05 0.05 0.1 0.2 0.45-0.25m-0.4 0.35-0.2 0.1q-6.3 3.35-11.8 4.85l-5 1.35-8.65 1.65-10.1 0.8-4.7 0.4-0.3 0.05-14.55 0.45h-3.65v66.9h3.25q21.8 0 38.45-3.85l8.05-2.2 1.95-0.6q13.35-4.55 16.4-10.3v-6.8l-16.2-17.45-0.05 0.05-0.1 0.05q-7.8 3.35-15.2 0.6-4.6-2.7-5.15-8.45l-0.1-2.65q0.3-4.05 1.9-6.4 2.4-3.6 7.85-3.1 8.3 0.85 10.85 6.85l1.85-2q-5.85-3.45-2.7-10.25 5.55-8.65 13.05-5.2 3.45 1.15 4 5.1v-17.25m-9.4 7.3 0.1-0.3m0.1 0.2-0.2 0.1m0.2-0.1 0.05 0.1m9.15 9.95v42.85m0-35.85q-0.6 3.75-3.5 8l3.5 4.45m-3.5-4.45-3.2 4m-9.7 6.4 0.15-0.05 0.35-0.05 1.75-0.9 14.15 13.9m-16.25-12.95 0.05 0.05 0.3-0.1m-6.45 52.25 3.35-1m-9.9 2.6 6.55-1.6m-6.55 1.6-3.3 0.65q-14.75 2.75-33.2 2.75l-8.35-0.15-1.85-0.05-7.2-0.45-3.6-0.35-10.75-1.45m97.15-15.8v-14.65m-44.3-41.45-6.25 16.9-10-10.05 6.3 15.6-7.9 15 12.35-8.3 4.8 16.5-0.25-17.95 10.05-2.35-10.1-5.4 1-19.95" fill="none" stroke="#000" stroke-linecap="round" stroke-linejoin="round" stroke-opacity=".30196" stroke-width=".05"/>
<path d="m233.2 239.9-1.35 4.1-5.95-6.65m3.25 11-5.55 8.75" fill="none" stroke="#fff" stroke-linecap="round" stroke-linejoin="round"/>
</g>
</defs>
</svg>
