<?xml version="1.0" encoding="UTF-8"?>
<svg version="1.1" viewBox="0 0 171.32 186.71" xmlns="http://www.w3.org/2000/svg" xmlns:cc="http://creativecommons.org/ns#" xmlns:dc="http://purl.org/dc/elements/1.1/" xmlns:rdf="http://www.w3.org/1999/02/22-rdf-syntax-ns#" xmlns:xlink="http://www.w3.org/1999/xlink">
<metadata>
<rdf:RDF>
<cc:Work rdf:about="">
<dc:format>image/svg+xml</dc:format>
<dc:type rdf:resource="http://purl.org/dc/dcmitype/StillImage"/>
</cc:Work>
</rdf:RDF>
</metadata>
<g transform="translate(-189.82 -106.59)">
<use transform="translate(189.85,106.6)" width="171.25" height="186.7" xlink:href="#a"/>
</g>
<defs>
<g id="a" transform="translate(-189.85,-106.6)">
<path d="m301.2 206.55q10.55 3.95 18.05-3.3-3.2-1.7 0-7.4 2.85-0.35 4.45 2.45 6.75-3.15 5.7-11.1-3.9-1.5-3.45-5.25 2-2.35 5.9-0.95 2.8-2.15 1-10.65 0.6-8.4 5.2-6.9 3.85 5.3 2 9.65 10.85-2 13.1 3.7 1.2 3.7-3.45 4.45 5.35 2.8 7.4 8.15 0.3 2.1-2.95 1.5 6.2 3.65 6.9 10.4 0.6 2.5-3.7-0.75 4.1 12.95 2 23-3.3 13.8-10.4 19.3 0.35-4.55-2.75-9.15-0.95-1.4-2.25-2.3-3.95-5.85 0.8-13.3 3.7-2.65 4.45-11.15-2.45-2.4-5.8 1.35-1.55-8.55-4.4-15.8 2.6 0.35 3.55-1.85-0.6-8.1-5.7-3l-5.2 12.15q-8.1 15.25-28.7 17.2 1.05-3.25-3.2-8.3 1.45-0.95 1.45-2.15m-96.1 11.25-10.3 8.95q-4.05-3.7-2.2-8.4-2.35 2.85-2.75 0 0.8-9.1 6.45-12.6-3.75 1.9-4.2-2.75-0.1-6.3 6.65-6.9-2.25-3.1 0-6.2 3.5-3.5 6.95-2.75-2.1-2.55 0-5.9 3.35-4.25 6.7-2.75-1.7-1.65 0-4.2 4.45-4.5 8.05-2.95 1.15 3.15 2.7 5.3-1.1 2.1-1.9 4.1-1.7 3.85-2.45 6.9-3.95 7.9-9.65 8.65-1.6-2.7-4.5 0.95-2.2 4.65 1.5 6.75l-4.45 2.2q-2.75 3.2 1 5.45l-1.95 2q-1.15 4 4.35 4.15" fill="#d9d2c4" fill-rule="evenodd"/>
<path d="m343.95 231.4q-1.4-1-3.2-1.4-4.6-2.9-4.7-7.6-0.05 3.95-2.95 4.1-4.65-1.15-5.7-4.95-0.2 4.35-3.2 4.95-4.25 1.15-6.7-4.45-1.05 6-4.7 5.95l-1-1.95q-5.1-5.1-10.2-5.1l-0.4-1.6q1.35-1.05 1.75-2.35 20.6-1.95 28.7-17.2l5.2-12.15q5.1-5.1 5.7 3-0.95 2.2-3.55 1.85 2.85 7.25 4.4 15.8 3.35-3.75 5.8-1.35-0.75 8.5-4.45 11.15-4.75 7.45-0.8 13.3m-122.6-12.15-7.5-5.1q0.4 5.2-2.95 5.7-5.1 1.35-4.45-3.25l-1.35 1.2q-5.5-0.15-4.35-4.15l1.95-2q-3.75-2.25-1-5.45l4.45-2.2q-3.7-2.1-1.5-6.75 2.9-3.65 4.5-0.95 5.7-0.75 9.65-8.65-0.45 1.8-0.6 3.35-0.2 1.7 0 3.1l0.1 0.5 1.4 2.2 1.55 1.7q1.2 1.15 2.7 2.15 1.85 1.2 4.2 2.15-2.35 3.75-0.95 5.9-3.6 5.35-5.85 10.55" fill="#baae94" fill-rule="evenodd"/>
<path d="m220.65 142.2q-0.05-2.05 0.9-4.25 3.85-7.45 9.25-11.3 6.05-4.35 14-4.05 7.45-0.05 12.3 2.2-19.45 9.75-17.95 27.15l-3.25-0.25q-4.45-0.25-8.9-0.15-6.3-4.2-6.35-9.35" fill="#ff9" fill-rule="evenodd"/>
<path d="m222.8 266.1h-1.5l2.5-4.95 1.95-2.95 3 2.9-5 5h-0.95m-12.3-28.35-3.3-0.1q4.65-4.15 10.55-5.4l1.9-0.3 3.85-0.2-0.05 1.9q-6.95 0.3-12.95 4.1m8.3-72.45-1.95-0.15q-4.95-4-4.7-9.9l1.6-6.05q1.35-4.5 3.2-8.6 1.4-3.05 3.1-5.9 3.4-5.8 7.95-10.6-7.7-3.5 3.7-5.2 6.5-13.55 11.6-12.15l0.75 0.65q-10.15 8.25-13.25 19.25-5.4 3.85-9.25 11.3-0.95 2.2-0.9 4.25l-5.8 10.85q-0.9 7.95 3.2 8.95l0.75 3.3m25.65-50.5q9.3-5.5 19.4-2.85 2.55 1 3.15 2.25-10.95-1.5-20 4.7-7.65-0.75-3.45-3.55l0.9-0.55m-27.35 47.4 0.95-0.2-0.95 0.2" fill="#91d700" fill-rule="evenodd"/>
<path d="m287.5 288.4q-1.3-0.35-2.5-1.2 0.8-3.2-0.7-6.35l2.25-4.55 3.8 0.7v-3.2h1.7q1.1 12.1-4.55 14.6m-16.5 4.25q-1.75-0.55-3.45-1.55-0.45-1.45-0.6-2.8-0.45-3.1 0.3-5.8 1.35-4.95 6.8-8.45l2.75 0.5q6.8 11-5.8 18.1m-17.3-3.05q-1.65-2.55-1.45-5.4 0.2-4.3 3.5-8.6l4.1-1.35q1.65 0.8 3 1.85-0.75 12.05-9.15 13.5m-9.45-7.05q-1.05-2.1-0.85-4.9 0.15-2.6 1.25-5.75l0.9 0.4 2.95-0.55q-1.15 6.85-4.25 10.8m-12.6 2.4-3.9-0.8q-1.6-3.25-1.45-6.35 0.2-4.15 3.6-8l3.1-0.95q5.4 11.35-1.35 16.1m-9.3-6.25q-3.3 0.1-6.25-2.2 1.5-8.1 6.7-10.4h3.65q-0.2 6.8-4.1 12.6m-13.15-146.95q3.3-2.3 10.85 2.95-1.7 2.85-3.1 5.9-6.7-1.1-7.75-8.85m17.7 34.95q2.35 1.8 5.3 4.9 2.25 5.8 1.1 8.05-0.35 0.75-1.1 1.1l-2.65 0.05-0.3-0.05q-1.45-0.25-2.75-0.95 6.2-1.9 0.4-13.1m38.5 17q11.55-10.7-5.15-14.9 3.2-1.7 7.75-2.75 7.65 3 15.2 7.55-5.1 10-17.8 10.1m26.9-48q-6.8 15.85-15.55 17.35-2.65-4.95 0-9.9 10.5-7.95 15.55-7.45m-31.2 80.7q1.05 3.75-2.45 2.95l-1.1-2.35-1.7-2.45q-1.95-2.35-4.65-3.6-2.3-1 2-2 2.7 1.65 4.7 3.55 1.95 1.8 3.2 3.9m-7.3 4.6 0.4 1.35q0.3 2.95-2.25 2.2l-0.7-2.15-1-1.9q-1.45-2.25-3.75-3.85l-0.25-1.15q-0.1-1.65 2.75-0.35l2.75 2.6q1.4 1.6 2.05 3.25m-6.55 5.05 0.75 1.7v1.75l-1.7-1.4-1.7-1.45-3.35-2.8q-2.7-2.9 1.8-1.75 1.85 1.15 3.05 2.4l1.15 1.55m-3.45 6.4 0.75 1.5q0.6 4.1-2.75 2.25l-0.65-1.6-1.45-2.25q-1.75-2.05-4.55-3.35-0.95-3.45 2.45-1.7 2.15 1.1 3.7 2.4t2.5 2.75m-6.9 6.55 3.15 2.8-2.4-0.7-1.9-0.2-5.05-2.25q-3.35-4.3 0.65-3.35l2.05 0.65 2.35 2.05 1.15 1" fill="#f0e0c2" fill-rule="evenodd"/>
<path d="m292.05 273.8q6.4 4.5 4 11.9-4.65 3.65-8.55 2.7 5.65-2.5 4.55-14.6m-7.05 13.4q-0.5 1.95-1.85 3.9-6.35 3.35-12.15 1.55 12.6-7.1 5.8-18.1l2.8 0.5q3.3 2.9 4.7 5.8 1.5 3.15 0.7 6.35m-18.05 1.1q-3.95 5.45-13.25 1.3 8.4-1.45 9.15-13.5 3.15 2.45 4.4 6.4-0.75 2.7-0.3 5.8m-14.7-4.1q-3.5 2.85-6.95-0.05l-1.05-1.6q3.1-3.95 4.25-10.8l3-0.55q-0.95 4-3.7 7.05l7.95-2.65q-3.3 4.3-3.5 8.6m-9.5-4.6q-2.65 6.4-11.1 5.35 6.75-4.75 1.35-16.1l3.15-1 1.75 0.85q4.4 2.55 4.85 10.9m-16.45-1.8q-2.05 0.85-3.95 0.9 3.9-5.8 4.1-12.6h1.8v4.2l1.65-0.5q-3.4 3.85-3.6 8m-12.55-128.6q-7.65-8.3-4.55-17.45 1.05 7.75 7.75 8.85-1.85 4.1-3.2 8.6m78.55-13.5q1.3 7.5-4.2 20.3-8.05 3.95-11.35-2.95 8.75-1.5 15.55-17.35" fill="#d1bb90" fill-rule="evenodd"/>
<path d="m304.1 237.05 6.25 6.05-5.95-0.45-0.3-5.6m-12.85 31.45 4.55 5.3h-5.45v3.2l-3.8-0.7-6.95-1.25-2.8-0.5-2.75-0.5-4-0.75-4.2 3.45-2.35-1.45q3-0.4 4.3-5-0.65-5.65-5.7-8.65-4.3-5.25-10.4-4.95l-1.7 4.95 1.35 3.7 0.65 1.75q-0.05 2.15-0.5 4.1l-3 0.55-2.95 0.55-0.9-0.4-6.75-3.2-1.75-0.85-3.15 1-3.1 0.95-1.65 0.5 5.15-4.7-4.65-4.5-3-2.9 3.45 1 2.45-0.75-4.3-6.5 8.55-2.15q4.4 0.35 7.45 1.5 2.6 1.05 4.2 2.7 1.7-3.1 10.1-4.45 3.25 1.1 5.3 2.2 7.85-2.85 9.2-8.5l4.85-1.1-0.25 3.15q-1.25 2.3-1.8 4.9-0.95 4.3 0.05 9.45l2.2 7.95q2.85 3.85 8.2 1.25l5.85-0.35m0.3-145.05q3.3 2.35 6.2 5.6 10.8-5.65 12.15 0 1.45 5.55-4 6.15 9.1 0.55 7.7 9.65-1.85 6.1-6.45 3 5.05 17.45-0.6 29.8-4.6-0.5-10.55 0.85-1.7 0.8-2.7 1.8-5.05-3.7-10.1-6.7-7.55-4.55-15.2-7.55-17.1-6.8-34.55-6.1-12.55-5.6 2.45-8.25l3.25 0.25 9.75 1.2q16.45-3.4 16.7-16.95-1.4-8.15-8.5-11.4 16.3-6.45 34.45-1.35m-8.9 40.7q-16.15-8.1-33.75-11 17.6 2.9 33.75 11m-5.9-11.1q3.3 6.9 11.35 2.95 5.5-12.8 4.2-20.3-5.05-0.5-15.55 7.45-2.65 4.95 0 9.9m-1.8 97.15-8.6 4.5q-0.6-1.5-3.4-2.95 2.8 1.45 3.4 2.95l8.6-4.5m-25.5 13.5-4.4-3.8q-2.95-4.3-1.7-8.6-1.25 4.3 1.7 8.6l4.4 3.8 1.9 1.65-1.9-1.65-9.35-2.8 9.35 2.8" fill="#395500" fill-rule="evenodd"/>
<path d="m220.45 171.35-0.9-2.75-0.75-3.3q1.4-2 4.25-0.95 1.35 0.5 3 1.7l0.85 0.65q5.8 11.2-0.4 13.1l-1.25-0.9-2.1-2.25q-1.55-2.15-2.7-5.3m32.05 10.25q-0.45-7.55 6-11.8l1.75-1q16.7 4.2 5.15 14.9l-7.55-0.7-2.25-0.45-3.1-0.95" fill="#fff" fill-rule="evenodd"/>
<path d="m306.55 177.65q7.15 0.7 11 5.8-0.6 1.7-1.55 3.1-3.2 0.35-5.4-2.1-5.6-4.05-14.1 1.5-3.95-1.8-4.3-4.45l1.1-1.2q1-1 2.7-1.8 5.95-1.35 10.55-0.85m-79.65-10.95-0.85-0.65q18.6-2.4 32.45 3.75-6.45 4.25-6 11.8l-1.15-0.3 1.15 0.3 3.1 0.95 2.25 0.45q2.5 1.9 1.3 3.85-2.25 0.8-3.2 2.05-1.45 2.4 4.35 4.85-1.4 2.4-3.15 4.1-5.55-2.95-11.1-3.2 7.3 2.55 9.4 4.6-4.8 2.95-10.2 2.3-1.9-3.3-7.8-2.6-1.95-1.55-6.3-0.1-1.95 2.15-3 3.95-2.35-0.95-4.2-2.15-0.95-1.65-1.25-3.25 4.6-3.7 9.65-4.65-4.5-0.3-9.7 1.85 0.55-3.4 4-6.75 3.6 0.75 4.1-0.9 4.4-3.85 1.45-6.2 9.3-1.8 19.15 0.55 0.7-2.5-3.55-5-5.55-2.85-11.15 0l-3.35 3.35q1.15-2.25-1.1-8.05-2.95-3.1-5.3-4.9m34.2 49.7q16.75-0.1 29.8-7.45 4.4 5.4 4.6 12.6-2 2.75-3.4 5.35-0.5-9.5-2.8-7.8 0.35 4.4-1.7 3.95-3.9-6.2-4.95-3 1.65 6.45 4.95 7.95 0.15 6-2.5 5.45-1.7-8.9-3.45-6.2-0.6 8.05-4.7 10.85-0.4-6.05-2.65-12.4l-1.8 2.05q-0.95 13.1-16.75 16.55-7.8-0.4-15.7-2.5l-3.15-2.8q1.65-4.4 4.25-4.4l0.65 1.6q3.35 1.85 2.75-2.25l-0.75-1.5q-1.55-4.05 2.5-4.35l1.7 1.4v-1.75l-0.75-1.7q2-4.6 4-3.65l0.7 2.15q2.55 0.75 2.25-2.2l-0.4-1.35q1-3.8 3.75-4l1.1 2.35q3.5 0.8 2.45-2.95m14.15 8.15-0.95 1.15 0.95-1.15m1.45-5.25q-2 1.25 0 2.5 2.1 4.25 4.2 1.75 1.85-1.3 0-3.5-2.1-3.25-4.2-0.75m-30.45-3.8 0.25 1.15q2.3 1.6 3.75 3.85-3.95-1.75-4.15 4-1.2-1.25-3.05-2.4-4.5-1.15-1.8 1.75l3.35 2.8q-4.55-0.3-3.3 3.05-1.55-1.3-3.7-2.4-3.4-1.75-2.45 1.7 2.8 1.3 4.55 3.35-3.75 0.85-3.95 5.65l-2.35-2.05-2.05-0.65q-3.45-10.65 0.65-24.1 3.5 0.6 7-2.1 1.35 5.05 7.25 6.4m-21.1 6q-1.1 3.9-1.5 7.75-1.4 1.95-2.75 0.35l4.25-8.1" fill="#582578" fill-rule="evenodd"/>
<path d="m301.6 220.95 2.1 12.05q-4.2-11.25-6-6.75 4.25 6.65 2.75 12.35-6.65-9.25-5.95-4.95 0.65 4.8-2.4 4.95-2.55-2.9 0-11.7 1.4-2.6 3.4-5.35-0.2-7.2-4.6-12.6-13.05 7.35-29.8 7.45-1.25-2.1-3.2-3.9-2-1.9-4.7-3.55-4.3 1-2 2 2.7 1.25 4.65 3.6-4.35 0.2-4.1 3.2l-2.75-2.6q-2.85-1.3-2.75 0.35-5.9-1.35-7.25-6.4l2.65-2.55q1.8-2.05 3.6-5 5.4 0.65 10.2-2.3 4.7 4.2 4.5 7.85l2.4-0.3 3.25-0.6q-1.45-4.2-8.45-8.35 1.75-1.7 3.15-4.1l2.25 0.4 2.3 2.2q5.15 5.05 5.45 8.6l-4.7 1.25 4.7-1.25 5.4-1.95q-1.35-4.3-9.05-8.6 6.65-0.2 10.55-2 3.1-4.2-1.05-5.55-4.6-1.4-12.55-0.9-2.65 0.3-4.45 0.9 1.2-1.95-1.3-3.85l7.55 0.7q12.7-0.1 17.8-10.1 5.05 3 10.1 6.7l-1.1 1.2q0.35 2.65 4.3 4.45 8.5-5.55 14.1-1.5 2.2 2.45 5.4 2.1-3 4.1-9.6 5.1-8.25 2.6-12.1 0l-5.2 4.15q11.3 2.15 12.1 10.75 0 1.2-1.45 2.15 4.25 5.05 3.2 8.3-0.4 1.3-1.75 2.35l0.4 1.6m-75.55-54.9q-1.65-1.2-3-1.7l-1.9-3q6.2-1.2 12.3-1.4 17.45-0.7 34.55 6.1-4.55 1.05-7.75 2.75l-1.75 1q-13.85-6.15-32.45-3.75m6.15 14.7q0.75-0.35 1.1-1.1l3.35-3.35q5.6-2.85 11.15 0 4.25 2.5 3.55 5-9.85-2.35-19.15-0.55m56.9 15.05q-4.5 2.95-8.95 5.2l-4.45 2 4.45-2q4.45-2.25 8.95-5.2m2.45-12.35q0.05-1.05 0.65-1.95-0.6 0.9-0.65 1.95m-35.8 60.85q15.8-3.45 16.75-16.55l1.8-2.05q2.25 6.35 2.65 12.4l0.05 4.05-4.85 1.1q-8.15 1.45-16.4 1.05m38.25-1.45q2.55-1.5 3.25 3.45l-2.25 3.45q-2.3 1.25-3.7-1.75 0.1-3.9 2.7-5.15m-31.65-36.05q-4.55 1.85-4.45 5.7-0.1-3.85 4.45-5.7m-2.4 0.3-18.3-0.55 18.3 0.55" fill="#381952" fill-rule="evenodd"/>
<path d="m223.8 261.15-3.25-2.45 2.35-3.25v-14.8q-3.3-1.55-7.25-2.3l-5.15-0.6q6-3.8 12.95-4.1l0.1 2.5q3.15 3.5 12.2 4.75l1.9 0.2 2.4 0.7q7.9 2.1 15.7 2.5 8.25 0.4 16.4-1.05-1.35 5.65-9.2 8.5-2.05-1.1-5.3-2.2-8.4 1.35-10.1 4.45-1.6-1.65-4.2-2.7-3.05-1.15-7.45-1.5l-8.55 2.15-1.35 0.3-1.25-10.65-1.85-0.95 1.85 0.95 1.25 10.65 1.35-0.3 4.3 6.5-2.45 0.75-3.45-1-1.95 2.95m20.25-153.75q3.3 3.3 0.4 7.4l-0.9 0.55q-4.2 2.8 3.45 3.55 9.05-6.2 20-4.7 0.65 1.4-1.1 3.1 15.1-1.25 25.65 6.15-18.15-5.1-34.45 1.35-4.85-2.25-12.3-2.2-7.95-0.3-14 4.05 3.1-11 13.25-19.25m-23.4 34.8q0.05 5.15 6.35 9.35 4.45-0.1 8.9 0.15-15 2.65-2.45 8.25-6.1 0.2-12.3 1.4l-3.1 0.65q-4.1-1-3.2-8.95l5.8-10.85m6.35 9.35-6.95 0.25 6.95-0.25m38.9-34.25-1.05 0.1 1.05-0.1m-14.4 153.9q0.45-1.95 0.5-4.1l-0.65-1.75-1.35-3.7 1.7-4.95q6.1-0.3 10.4 4.95 5.05 3 5.7 8.65-1.3 4.6-4.3 5l-2.35-1.5-1.3 0.45-4.1 1.35-7.95 2.65q2.75-3.05 3.7-7.05m-22.75-10.1 4.65 4.5-5.15 4.7v-4.2h-4.5l5-5" fill="#690" fill-rule="evenodd"/>
<path d="m218.15 229.45q0.95-5.05 3.2-10.2 2.25-5.2 5.85-10.55 0.75 1.1 2.5 1.75l2.3 0.75q-4.1 13.45-0.65 24.1-4-0.95-0.65 3.35l5.05 2.25q-9.05-1.25-12.2-4.75l-0.1-2.5 0.05-1.9 0.15-2.5q0.4-3.85 1.5-7.75 1.55-5.5 4.55-11.05-3 5.55-4.55 11.05l-4.25 8.1q-0.9-3.35 1.6-5.8-2.15 0-4.35 5.65m4.9-65.1q-2.85-1.05-4.25 0.95l-0.75-3.3 3.1-0.65 1.9 3m3.6 23.5q-3.45 3.35-4 6.75l-2.95 2.2-1.4-2.2-0.1-0.5q2.55-4.1 5.7-5.65-2.85-0.3-5.7 2.55 0.15-1.55 0.6-3.35 0.75-3.05 2.45-6.9 0.8-2 1.9-4.1l2.1 2.25-4 1.85q-0.35 2.75 2.55 5.45 1.4 1.25 2.85 1.65m33.65 5.9q-5.8-2.45-4.35-4.85 0.95-1.25 3.2-2.05 1.8-0.6 4.45-0.9 7.95-0.5 12.55 0.9 4.15 1.35 1.05 5.55-3.9 1.8-10.55 2l-9.25-3.5 5.15 3.25-2.25-0.4m-2.75 23.25q-2.75 0.2-3.75 4-0.65-1.65-2.05-3.25-0.25-3 4.1-3.2l1.7 2.45m-6.3 5.4q-2-0.95-4 3.65l-1.15-1.55q0.2-5.75 4.15-4l1 1.9m-4.95 5.7q-4.05 0.3-2.5 4.35-0.95-1.45-2.5-2.75-1.25-3.35 3.3-3.05l1.7 1.45m-5.15 6.5q-2.6 0-4.25 4.4l-1.15-1q0.2-4.8 3.95-5.65l1.45 2.25m-17.2-33.95q-1.5-1-2.7-2.15l1.45-1.1q0.3 1.6 1.25 3.25" fill="#9467b0" fill-rule="evenodd"/>
<path d="m222.9 253.25q-2.15 1.25-4.35-2.7-3-3.35-3.05-9.1 4.15 1.9 7.4 8.1v3.7m-5.15-21 0.4-2.8q2.2-5.65 4.35-5.65-2.5 2.45-1.6 5.8l-1.25 2.35-1.9 0.3m4.95-34.85q-0.3-1.4-0.05-2.8 5.2-2.15 9.7-1.85-5.05 0.95-9.65 4.65m32.75 1.85q-2.1-2.05-9.4-4.6 5.55 0.25 11.1 3.2l-1.7 1.4m36.65 27.65q-5.85 10.3-3 17.4-5.55 7.65-12.35 1l0.25-3.15-0.05-4.05q4.1-2.8 4.7-10.85 1.75-2.7 3.45 6.2 2.65 0.55 2.5-5.45-3.3-1.5-4.95-7.95 1.05-3.2 4.95 3 2.05 0.45 1.7-3.95 2.3-1.7 2.8 7.8m-15.4-7.6q2.1-2.5 4.2 0.75 1.85 2.2 0 3.5-2.1 2.5-4.2-1.75-2-1.25 0-2.5m9.4 37.7q-0.05 3.85-2.2 3.95-2.55-2.85 0.25-5.7 1.8-1.35 1.95 1.75" fill="#b13033" fill-rule="evenodd"/>
<path d="m222.65 194.6q-0.25 1.4 0.05 2.8l-1.45 1.1-1.55-1.7 2.95-2.2m-4.45-3.6q2.85-2.85 5.7-2.55-3.15 1.55-5.7 5.65-0.2-1.4 0-3.1m44.35 3.15-5.15-3.25 9.25 3.5-4.1-0.25" fill="#d66568" fill-rule="evenodd"/>
<path d="m226.5 179.8q1.3 0.7 2.75 0.95l0.3 0.05 2.65-0.05q2.95 2.35-1.45 6.2-0.5 1.65-4.1 0.9-1.45-0.4-2.85-1.65-2.9-2.7-2.55-5.45l4-1.85 1.25 0.9" fill="#b59bca" fill-rule="evenodd"/>
<path d="m239.15 151.95q-1.5-17.4 17.95-27.15 7.1 3.25 8.5 11.4-0.25 13.55-16.7 16.95l-9.75-1.2" fill="#ccba39" fill-rule="evenodd"/>
<path d="m303.7 233 0.4 4.05 0.3 5.6q0.2 7.5-0.7 15.05-2.6 7.3-9.15 8.65-1.6 1.45-3.3 2.15l-5.85 0.35q-5.35 2.6-8.2-1.25l-2.2-7.95q-1-5.15-0.05-9.45 0.55-2.6 1.8-4.9 6.8 6.65 12.35-1-2.85-7.1 3-17.4-2.55 8.8 0 11.7 3.05-0.15 2.4-4.95-0.7-4.3 5.95 4.95 1.5-5.7-2.75-12.35 1.8-4.5 6 6.75m-88.2 8.45q-0.05-1.5 0.15-3.1 3.95 0.75 7.25 2.3v8.9q-3.25-6.2-7.4-8.1m41.65-43.6q7 4.15 8.45 8.35l-3.25 0.6-2.4 0.3q0.2-3.65-4.5-7.85l1.7-1.4m13.15 7.1q-0.3-3.55-5.45-8.6l-2.3-2.2 4.1 0.25q7.7 4.3 9.05 8.6l-5.4 1.95m23.7 37.9q-2.6 1.25-2.7 5.15 1.4 3 3.7 1.75l2.25-3.45q-0.7-4.95-3.25-3.45m-7.9 14.15q-0.15-3.1-1.95-1.75-2.8 2.85-0.25 5.7 2.15-0.1 2.2-3.95m-62.45-27.75-0.15 2.5-3.85 0.2 1.25-2.35q1.35 1.6 2.75-0.35" fill="#6a1e2d" fill-rule="evenodd"/>
<path d="m243.4 277.65-0.65 1.95q-0.45-8.35-4.85-10.9l6.75 3.2q-1.1 3.15-1.25 5.75m20.1-2.35 2.35 1.45 4.2-3.45 4 0.75q-5.45 3.5-6.8 8.45-1.25-3.95-4.4-6.4-1.35-1.05-3-1.85l1.3-0.45 2.35 1.5m16.1-0.25 6.95 1.25-2.25 4.55q-1.4-2.9-4.7-5.8" fill="#cf7b16" fill-rule="evenodd"/>
<path d="m239 209.1q-3.5 2.7-7 2.1l-2.3-0.75q-1.75-0.65-2.5-1.75-1.4-2.15 0.95-5.9 1.05-1.8 3-3.95 4.35-1.45 6.3 0.1 5.9-0.7 7.8 2.6-1.8 2.95-3.6 5l-2.65 2.55m-5.85-4.35q0.9-3.35 4.3-5.8-3.4 2.45-4.3 5.8" fill="#fdb0c1" fill-rule="evenodd"/>
<path d="m232.2 180.75q0.75-0.35 1.1-1.1m18.05 1.65 1.15 0.3" fill="none" stroke="#381952" stroke-linecap="round" stroke-linejoin="round" stroke-width=".05"/>
<path d="m301.2 206.55q10.55 3.95 18.05-3.3-3.2-1.7 0-7.4 2.85-0.35 4.45 2.45 6.75-3.15 5.7-11.1-3.9-1.5-3.45-5.25 2-2.35 5.9-0.95 2.8-2.15 1-10.65 0.6-8.4 5.2-6.9 3.85 5.3 2 9.65 10.85-2 13.1 3.7 1.2 3.7-3.45 4.45 5.35 2.8 7.4 8.15 0.3 2.1-2.95 1.5 6.2 3.65 6.9 10.4 0.6 2.5-3.7-0.75 4.1 12.95 2 23-3.3 13.8-10.4 19.3 0.35-4.55-2.75-9.15-0.95-1.4-2.25-2.3-1.4-1-3.2-1.4-4.6-2.9-4.7-7.6-0.05 3.95-2.95 4.1-4.65-1.15-5.7-4.95-0.2 4.35-3.2 4.95-4.25 1.15-6.7-4.45-1.05 6-4.7 5.95l-1-1.95q-5.1-5.1-10.2-5.1m-80.25-1.7-7.5-5.1q0.4 5.2-2.95 5.7-5.1 1.35-4.45-3.25l-1.35 1.2-10.3 8.95q-4.05-3.7-2.2-8.4-2.35 2.85-2.75 0 0.8-9.1 6.45-12.6-3.75 1.9-4.2-2.75-0.1-6.3 6.65-6.9-2.25-3.1 0-6.2 3.5-3.5 6.95-2.75-2.1-2.55 0-5.9 3.35-4.25 6.7-2.75-1.7-1.65 0-4.2 4.45-4.5 8.05-2.95m40.65 45.05q1.05 3.75-2.45 2.95l-1.1-2.35m-3.75 4 0.4 1.35q0.3 2.95-2.25 2.2l-0.7-2.15m-4 3.65 0.75 1.7v1.75l-1.7-1.4m-2.5 4.35 0.75 1.5q0.6 4.1-2.75 2.25l-0.65-1.6m-4.25 4.4 3.15 2.8m10.2-21.3 1 1.9m-5-6.9 0.25 1.15q2.3 1.6 3.75 3.85m-4.15 4 1.15 1.55m4.5-8.3-2.75-2.6q-2.85-1.3-2.75 0.35m-14.9 19.8 2.05 0.65 2.35 2.05 1.15 1m2.8-6.65q-1.75-2.05-4.55-3.35-0.95-3.45 2.45-1.7 2.15 1.1 3.7 2.4m3.3-3.05-3.35-2.8q-2.7-2.9 1.8-1.75 1.85 1.15 3.05 2.4m9.75-9.95 1.7 2.45m3.55-0.6q-1.25-2.1-3.2-3.9-2-1.9-4.7-3.55-4.3 1-2 2 2.7 1.25 4.65 3.6m-4.1 3.2q1.4 1.6 2.05 3.25m-9.2 5.65 1.7 1.45m-10.55 12.8-5.05-2.25q-3.35-4.3 0.65-3.35m8.35-2.95 1.45 2.25m-5.4 6.3 1.9 0.2 2.4 0.7m3.75-9.35q-0.95-1.45-2.5-2.75" fill="none" stroke="#867964" stroke-linecap="round" stroke-linejoin="round" stroke-width=".05"/>
<path d="m304.1 237.05 6.25 6.05-5.95-0.45m-13.15 25.85 4.55 5.3h-3.75m-69.25-7.7h-1.5l2.5-4.95-3.25-2.45 2.35-3.25v-2.2m-7.25-14.9-5.15-0.6-3.3-0.1q4.65-4.15 10.55-5.4m1.05-66.95-1.95-0.15q-4.95-4-4.7-9.9l1.6-6.05q1.35-4.5 3.2-8.6 1.4-3.05 3.1-5.9 3.4-5.8 7.95-10.6-7.7-3.5 3.7-5.2 6.5-13.55 11.6-12.15l0.75 0.65q3.3 3.3 0.4 7.4 9.3-5.5 19.4-2.85 2.55 1 3.15 2.25 0.65 1.4-1.1 3.1 15.1-1.25 25.65 6.15 3.3 2.35 6.2 5.6 10.8-5.65 12.15 0 1.45 5.55-4 6.15 9.1 0.55 7.7 9.65-1.85 6.1-6.45 3 5.05 17.45-0.6 29.8m-79.55-26.1q4.45-0.1 8.9 0.15l3.25 0.25 9.75 1.2q17.6 2.9 33.75 11m-64.6-2.15-0.95 0.2m4.05-0.85-3.1 0.65m2-10.2 6.95-0.25m6.45 8.4q-6.1 0.2-12.3 1.4m43.7-43.95 1.05-0.1m-21.45-2.5-0.9 0.55m24.45 50.7q-17.1-6.8-34.55-6.1m49.75 13.65q-7.55-4.55-15.2-7.55m25.3 14.25q-5.05-3.7-10.1-6.7m-43.15 68.2q7.9 2.1 15.7 2.5 8.25 0.4 16.4-1.05m4.85-1.1-4.85 1.1m-9.2 8.5q2.8 1.45 3.4 2.95l8.6-4.5m-47.6 1.75 8.55-2.15q4.4 0.35 7.45 1.5 2.6 1.05 4.2 2.7 1.7-3.1 10.1-4.45 3.25 1.1 5.3 2.2m-14.45 20 3-0.55q0.45-1.95 0.5-4.1l-0.65-1.75-1.9-1.65-9.35-2.8m3.25-9.6q-1.25 4.3 1.7 8.6l4.4 3.8m1.9 1.65-1.35-3.7m13.5 13.65 2.35 1.45 4.2-3.45 4 0.75 2.75 0.5 2.8 0.5 6.95 1.25 3.8 0.7v-3.2h1.7m-32.2 0.45-4.1 1.35m4.1-1.35 1.3-0.45 2.35 1.5m-12-4.1q-0.95 4-3.7 7.05l7.95-2.65m-7.25-3.85-2.95 0.55-0.9-0.4-6.75-3.2m-14.4-36.95-0.05 1.9 0.1 2.5q3.15 3.5 12.2 4.75m-16.1-8.95-1.9 0.3m5.15 8.4 1.85 0.95 1.25 10.65 1.35-0.3m1.85 7.25-3.45-1-1.95 2.95m4.45 9.15 1.65-0.5 3.1-0.95 3.15-1 1.75 0.85m-22.25-30.35q3.95 0.75 7.25 2.3v12.6m0.6-21.5-3.85 0.2m6.8 34.15h1.8v4.2m-4.5-4.2h2.7m-3.65 0h0.95" fill="none" stroke="#2d4200" stroke-linecap="round" stroke-linejoin="round" stroke-width=".05"/>
<path d="m230.8 126.65q-5.4 3.85-9.25 11.3-0.95 2.2-0.9 4.25 0.05 5.15 6.35 9.35m30.1-26.75q-4.85-2.25-12.3-2.2-7.95-0.3-14 4.05m18.1 26.5q16.45-3.4 16.7-16.95-1.4-8.15-8.5-11.4" fill="none" stroke="#786d1f" stroke-linecap="round" stroke-linejoin="round" stroke-width=".05"/>
<path d="m292.05 273.8q6.4 4.5 4 11.9-4.65 3.65-8.55 2.7-1.3-0.35-2.5-1.2-0.5 1.95-1.85 3.9-6.35 3.35-12.15 1.55-1.75-0.55-3.45-1.55-0.45-1.45-0.6-2.8-3.95 5.45-13.25 1.3-1.65-2.55-1.45-5.4-3.5 2.85-6.95-0.05l-1.05-1.6q-1.05-2.1-0.85-4.9m-0.65 1.95q-2.65 6.4-11.1 5.35l-3.9-0.8q-1.6-3.25-1.45-6.35-2.05 0.85-3.95 0.9-3.3 0.1-6.25-2.2 1.5-8.1 6.7-10.4m-2.35-94.75-0.9-2.75-0.75-3.3m-5.05-16.1q-7.65-8.3-4.55-17.45 3.3-2.3 10.85 2.95m6.85 32-0.85-0.65q-1.65-1.2-3-1.7-2.85-1.05-4.25 0.95m14.5 14.35q1.15-2.25-1.1-8.05-2.95-3.1-5.3-4.9m-0.4 13.1q1.3 0.7 2.75 0.95l0.3 0.05 2.65-0.05m20.3 0.85q-0.45-7.55 6-11.8m-33.25 9.1-2.1-2.25m2.1 2.25 1.25 0.9m-6.05-8.45q1.15 3.15 2.7 5.3m37.1-7.85-1.75 1m-6 11.8 3.1 0.95 2.25 0.45 7.55 0.7q12.7-0.1 17.8-10.1m-22.95-4.8q3.2-1.7 7.75-2.75m8.75-13q3.3 6.9 11.35 2.95 5.5-12.8 4.2-20.3m-15.55 17.35q-2.65-4.95 0-9.9 10.5-7.95 15.55-7.45m-29.45 140.4q-1.35-1.05-3-1.85m-4.1 1.35q-3.3 4.3-3.5 8.6m15-1.7q-0.75 2.7-0.3 5.8m7.1-14.25q-5.45 3.5-6.8 8.45-1.25-3.95-4.4-6.4m-18.2-4.2q-1.1 3.15-1.25 5.75m-5.5-8.95q4.4 2.55 4.85 10.9m41.55 1.25 2.25-4.55m-1.55 10.9q0.8-3.2-0.7-6.35-1.4-2.9-4.7-5.8m-49.7-5.25q-3.4 3.85-3.6 8" fill="none" stroke="#7e5e3d" stroke-linecap="round" stroke-linejoin="round" stroke-width=".05"/>
<path d="m301.6 220.95 2.1 12.05m-85.55-3.55q0.95-5.05 3.2-10.2m85.2-41.6q7.15 0.7 11 5.8-0.6 1.7-1.55 3.1m-9.6 5.1q-8.25 2.6-12.1 0l-5.2 4.15q11.3 2.15 12.1 10.75 0 1.2-1.45 2.15 4.25 5.05 3.2 8.3-0.4 1.3-1.75 2.35l0.4 1.6m-82.8-55.65-0.75-3.3m5.1 14.65q-1.1 2.1-1.9 4.1-1.7 3.85-2.45 6.9-0.45 1.8-0.6 3.35m0 3.1 0.1 0.5 1.4 2.2m45.9 9.4 4.7-1.25m5.4-1.95 4.45-2q4.45-2.25 8.95-5.2m7.4-9.85q8.5-5.55 14.1-1.5m-18.4-2.95q-0.6 0.9-0.65 1.95m15-5.8q-4.6-0.5-10.55 0.85-1.7 0.8-2.7 1.8l-1.1 1.2m-19.7 46.25 1.8-2.05 0.95-1.15m-25-4.05q-3.95-1.75-4.15 4m-10.35 13.5q0.2-4.8 3.95-5.65m1.6-2.65q-1.25-3.35 3.3-3.05m11.25-12.1q-4.35 0.2-4.1 3.2m6.15-5.25q-0.1-3.85 4.45-5.7m-20.7-0.25 18.3 0.55m17 31q-0.4-6.05-2.65-12.4m-50.35-25.05q1.85 1.2 4.2 2.15m1.55 7.65q-3 5.55-4.55 11.05-1.1 3.9-1.5 7.75m3.55-20.55q-3.6 5.35-5.85 10.55m-0.1-20.75q1.2 1.15 2.7 2.15" fill="none" stroke="#582578" stroke-linecap="round" stroke-linejoin="round" stroke-width=".05"/>
<path d="m303.7 233 0.4 4.05 0.3 5.6q0.2 7.5-0.7 15.05-2.6 7.3-9.15 8.65-1.6 1.45-3.3 2.15m-68.35-15.25q-2.15 1.25-4.35-2.7-3-3.35-3.05-9.1-0.05-1.5 0.15-3.1m2.1-6.1 0.4-2.8m0.05-38.45q-0.2 1.7 0 3.1m41.75 13 2.4-0.3 3.25-0.6m11.15 39.1q-1.25 2.3-1.8 4.9-0.95 4.3 0.05 9.45l2.2 7.95q2.85 3.85 8.2 1.25l5.85-0.35m-20.95-63.55 5.4-1.95m1.3 39.15-0.05-4.05m-0.2 7.2 0.25-3.15m-57.3-45.35 1.55 1.7" fill="none" stroke="#900" stroke-linecap="round" stroke-linejoin="round" stroke-width=".05"/>
<path d="m243.4 277.65-0.65 1.95m73.25-93.05q-3 4.1-9.6 5.1m-67.4 17.45q-3.5 2.7-7 2.1l-2.3-0.75q-1.75-0.65-2.5-1.75-1.4-2.15 0.95-5.9 1.05-1.8 3-3.95 4.35-1.45 6.3 0.1 5.9-0.7 7.8 2.6-1.8 2.95-3.6 5l-2.65 2.55m-1.55-10.15q-3.4 2.45-4.3 5.8m-9.5 24.5-0.15 2.5" fill="none" stroke="#000" stroke-linecap="round" stroke-linejoin="round" stroke-width=".05"/>
</g>
</defs>
</svg>
