<?xml version="1.0" encoding="UTF-8"?>
<svg version="1.1" viewBox="0 0 53.101 35.788" xmlns="http://www.w3.org/2000/svg" xmlns:cc="http://creativecommons.org/ns#" xmlns:dc="http://purl.org/dc/elements/1.1/" xmlns:rdf="http://www.w3.org/1999/02/22-rdf-syntax-ns#" xmlns:xlink="http://www.w3.org/1999/xlink">
<metadata>
<rdf:RDF>
<cc:Work rdf:about="">
<dc:format>image/svg+xml</dc:format>
<dc:type rdf:resource="http://purl.org/dc/dcmitype/StillImage"/>
</cc:Work>
</rdf:RDF>
</metadata>
<g transform="translate(24.663 32.109)">
<use transform="matrix(.9 0 0 .9012 -11.115 -2.6585)" width="24.75" height="5.9000001" xlink:href="#i"/>
<use transform="translate(-23.95,-31.55)" width="18.15" height="19.9" xlink:href="#h"/>
<use transform="translate(14,-25.75)" width="14.4" height="11.8" xlink:href="#g"/>
<use transform="translate(5.05,-3.95)" width="6.8000002" height="5" xlink:href="#a"/>
<use transform="translate(-9.55,-2.9)" width="6.8000002" height="5" xlink:href="#a"/>
<use transform="translate(-3.95,-1.35)" width="6.8000002" height="5" xlink:href="#a"/>
<use transform="translate(-22.85,-31.1)" width="40.900002" height="34.75" xlink:href="#f"/>
<use transform="matrix(-1,0,0,1,15.1,-23.45)" width="9.1000004" height="14" xlink:href="#e"/>
<use transform="matrix(.3956 -.1401 .1322 .3671 -23.501 -28.916)" width="44.450001" height="43.450001" xlink:href="#d"/>
<use transform="translate(-22.95,-13.55)" width="13.8" height="6.5500002" xlink:href="#l"/>
<use transform="translate(-13.85,-27.85)" width="23" height="22.4" xlink:href="#c"/>
<use transform="translate(-24.65,-17.5)" width="24.299999" height="15.3" xlink:href="#b"/>
</g>
<defs>
<g id="i" transform="translate(12.35,2.95)">
<use transform="translate(-12.35,-2.95)" width="24.75" height="5.9000001" xlink:href="#s"/>
</g>
<g id="s" transform="translate(12.35,2.95)">
<path d="m-8.7-2.1 8.7-0.85 8.8 0.85q3.6 0.9 3.6 2.1t-3.6 2.05l-8.8 0.9q-5.15 0-8.7-0.9-3.7-0.85-3.65-2.05-0.05-1.2 3.65-2.1" fill="#010101" fill-rule="evenodd"/>
</g>
<g id="h" transform="translate(13.45,10.25)">
<use transform="translate(-13.45,-10.25)" width="18.15" height="19.9" xlink:href="#r"/>
</g>
<g id="r" transform="translate(13.45,10.25)">
<path d="m-5.85-10.25q1.3 0.15 1.85 3.45 0.2 1.25 1.1 2.1-2.05-0.1-3.9 2.6-2.9-1.25 0.95-8.15m5.75 5.35 1.9 0.7 1.25 1.05h0.05q1.75 1.85 1.6 5.35-0.15 1.9-1.55 3.9t-3.25 2.95q-1.4 0.75-5.35 0.55-2.05-0.1-3.6-1.2-1.55-1.05-2.55-3.1l-0.7-2.15q-1.8-1.65-0.8-3.45 0.8-0.05 0.55-0.3l0.35 0.4-0.9-0.1 0.9 0.1q0.35 1.7 0.9 3 1.7 4.1 5.5 4.05 3.5-0.85 5.3-4.7 1.75-3.75 0.4-7.05m-12.2 8.05 1-0.35-1 0.35" fill="#485869" fill-rule="evenodd"/>
<path d="m-12.55-0.6-0.65-0.45 0.45-1.1 0.3-0.5q-0.15-1.75 1.15-2.8l3-3.25 1.8-1.45 0.65-0.1q-3.85 6.9-0.95 8.15 1.85-2.7 3.9-2.6 0.45-0.5 1.9-0.3l0.9 0.1q1.35 3.3-0.4 7.05-1.8 3.85-5.3 4.7-3.8 0.05-5.5-4.05-0.55-1.3-0.9-3l-0.35-0.4m1.5-1.7-1.4-0.35 0.3-0.9-0.3 0.9 1.4 0.35m-0.75 2.4-0.4-0.3 0.4 0.3m2.35-4-1.85-1.55 1.85 1.55" fill="#5f829a" fill-rule="evenodd"/>
<path d="m-12.55-0.6-0.65-0.45 0.45-1.1 0.3-0.5q-0.15-1.75 1.15-2.8l3-3.25 1.8-1.45 0.65-0.1q1.3 0.15 1.85 3.45 0.2 1.25 1.1 2.1 0.45-0.5 1.9-0.3l0.9 0.1 1.9 0.7 1.25 1.05h0.05q1.75 1.85 1.6 5.35-0.15 1.9-1.55 3.9t-3.25 2.95q-1.4 0.75-5.35 0.55-2.05-0.1-3.6-1.2-1.55-1.05-2.55-3.1l-0.7-2.15q-1.8-1.65-0.8-3.45 0.8-0.05 0.55-0.3" fill="none" stroke="#303943" stroke-linecap="round" stroke-linejoin="round" stroke-width=".05"/>
<path d="m-6.8-2.1q1.85-2.7 3.9-2.6" fill="none" stroke="#303943" stroke-linecap="round" stroke-linejoin="round" stroke-width=".05"/>
<path d="m-12.2-0.2 0.4 0.3m-0.35-3.65-0.3 0.9 1.4 0.35m-2.05 2 0.9 0.1m0.9-5.25 1.85 1.55m-1.85 6.7-1 0.35" fill="none" stroke="#000" stroke-linecap="round" stroke-linejoin="round" stroke-width=".05"/>
</g>
<g id="g" transform="translate(0,10.4)">
<use transform="translate(0,-10.4)" width="14.4" height="11.8" xlink:href="#q"/>
</g>
<g id="q" transform="translate(0,10.4)">
<path d="m13.75-9.5q0.3 1.4-2.5 4.95 0.4 2.35-3.2 2.95l-1.1-1.55v-0.35q-0.1-0.95 0.35-2.4 0.5-1.65 1.35-3.05l0.4-0.45q1.8-0.35 1.05 4.4l1.1-2.3 2-1.9 0.55-0.3" fill="#fcebc4" fill-rule="evenodd"/>
<path d="m13.75-9.5q0.55-0.15 0.6 0.25 0.25 0.65-0.5 2.15l-0.7 1.25q0.7-0.25 0.85 0.15 0.15 0.5-0.55 1.55l-1.75 2.1-2.05 1.4-0.5 0.2q-0.4 0.05-0.5-0.25l-0.6-0.9q3.6-0.6 3.2-2.95 2.8-3.55 2.5-4.95m-2.55 2.2-1.1 2.3q0.75-4.75-1.05-4.4 0.7-0.85 1.3-0.95 0.8-0.2 1 0.85l-0.15 2.2" fill="#fff2df" fill-rule="evenodd"/>
<path d="m9.15-0.45 0.5-0.2 2.05-1.4 1.75-2.1q0.7-1.05 0.55-1.55-0.15-0.4-0.85-0.15l0.7-1.25q0.75-1.5 0.5-2.15-0.05-0.4-0.6-0.25m-4.7 0.1-0.4 0.45q-0.85 1.4-1.35 3.05-0.45 1.45-0.35 2.4m2.1-5.9q0.7-0.85 1.3-0.95 0.8-0.2 1 0.85l-0.15 2.2 2-1.9 0.55-0.3" fill="none" stroke="#785825" stroke-linecap="round" stroke-linejoin="round" stroke-width=".05"/>
<path d="m0 0.6q0.05-2.5 2.1-2.45 2.15 0 5.2 2.9 2.1 0.85 2.35-0.35 0.25-1.25-2.2-3.3" fill="none" stroke="#485869" stroke-linecap="round" stroke-linejoin="round" stroke-width=".05"/>
</g>
<g id="a" transform="translate(3.4)">
<use transform="translate(-3.4)" width="6.8000002" height="5" xlink:href="#p"/>
</g>
<g id="p" transform="translate(3.4)">
<path d="M 0,5 Q -0.4,2.8 -0.05,0.65 L 3.1,0.7 3.4,3.85 Q 1.9,4.8 0,5" fill="#5f829a" fill-rule="evenodd"/>
<path d="M -0.05,0.65 Q -0.4,2.8 0,5 -2.5,5.05 -3.4,3.75 L -2.3,0 -0.05,0.65" fill="#485869" fill-rule="evenodd"/>
<path d="m-2.3 0-1.1 3.75q0.9 1.3 3.4 1.25" fill="none" stroke="#303943" stroke-linecap="round" stroke-linejoin="round" stroke-width=".05"/>
<path d="m0 5q1.9-0.2 3.4-1.15l-0.3-3.15" fill="none" stroke="#303943" stroke-linecap="round" stroke-linejoin="round" stroke-width=".05"/>
</g>
<g id="f" transform="translate(20.9,16.95)">
<use transform="translate(-20.9,-16.95)" width="40.900002" height="34.75" xlink:href="#o"/>
</g>
<g id="o" transform="translate(20.9,16.95)">
<path d="m15.8 8.1-0.05 0.05-0.6 0.75q-0.6 1.35-2.6 2.5-1.8 1.05-3.65 1.35l-0.5 0.05v0.05q-1.5 1.5-7.1 2.6l-4.7 0.2-4-1.15-3.3 0.65q-3.8 0.6-5.7-1.05-0.85-0.25-2.2-1.1l-0.05-0.05v0.05l-0.9-0.6q-2.15-1.85-0.9-4.9 0.25-0.55-0.1-1.35-0.45-1-0.3-1.75 0.3-2.25 1.65-1.2-1.75-1.55-0.45-5.45 1.75-5.3 5.2-5.95 2.3-4 6.7-5.3l0.05 0.1 0.05-0.05q2.1-3.1 7.95-3.45l4.3 0.1 2.1 0.4 1.95 0.75 1.6 0.95 1.65 1.3q1.9 1.75 2.75 3.4l-0.15-0.15q-4.05-4-7.95-4.25l-0.35-0.05-0.8-0.3q-2.7-0.85-5.6 0.35-3.55 1.4-4.55 4.65l-0.3 0.15-5.6 0.2-1.15 1.25q-2.75 3.05-1.2 3.5-3.7 3.3-3.15 5l0.2 0.4q-5.7 6.9-2.95 11.05 2.05 0.7 2.65 0 1 1.85 3.8 1.6 2.75-0.25 4.1-2.5 4.8 4.45 13.55 0.8l0.5-0.25q6.4 1.3 9.35-4.25l0.75 0.9m-10.15-14.05 5.9 5.8q-1.8 9.9-9 10.5t-7.7-9.75q7.05 1.4 10.8-6.55" fill="#dec696" fill-rule="evenodd"/>
<path d="m15.8 8.1-0.75-0.9q-2.95 5.55-9.35 4.25l-0.5 0.25q-8.75 3.65-13.55-0.8-1.35 2.25-4.1 2.5-2.8 0.25-3.8-1.6-0.6 0.7-2.65 0-2.75-4.15 2.95-11.05l-0.2-0.4q-0.55-1.7 3.15-5-1.55-0.45 1.2-3.5l1.15-1.25 5.6-0.2 0.3-0.15q1-3.25 4.55-4.65 2.9-1.2 5.6-0.35l0.8 0.3 0.35 0.05q3.9 0.25 7.95 4.25l0.15 0.15 0.6 1.65v0.05l0.15 0.1 0.45 0.5h-0.05l-3-0.25 0.85 1.25q3.2 5.15 3.3 12.35v0.3l-1.15 2.15m-10.15-14.05q-3.75 7.95-10.8 6.55 0.5 10.35 7.7 9.75t9-10.5l-5.9-5.8" fill="#fcebc4" fill-rule="evenodd"/>
<path d="m15.85-7.7q2.35 2.85 2.1 8.55-0.1 2.9-1 5.1v-0.3q-0.1-7.2-3.3-12.35l-0.85-1.25 3 0.25h0.05" fill="#fff2df" fill-rule="evenodd"/>
<path d="m14.65-10q-0.85-1.65-2.75-3.4l-1.65-1.3-1.6-0.95-1.95-0.75-2.1-0.4-4.3-0.1q-5.85 0.35-7.95 3.45l-0.05 0.05-0.05-0.1q-4.4 1.3-6.7 5.3-3.45 0.65-5.2 5.95-1.3 3.9 0.45 5.45-1.35-1.05-1.65 1.2-0.15 0.75 0.3 1.75 0.35 0.8 0.1 1.35-1.25 3.05 0.9 4.9l0.9 0.6v-0.05l0.05 0.05q1.35 0.85 2.2 1.1 1.9 1.65 5.7 1.05l3.3-0.65 4 1.15 4.7-0.2q5.6-1.1 7.1-2.6v-0.05l0.5-0.05q1.85-0.3 3.65-1.35 2-1.15 2.6-2.5l0.6-0.75 0.05-0.05m-1.15-18.1 0.6 1.65v0.05l0.15 0.1 0.45 0.5q2.35 2.85 2.1 8.55-0.1 2.9-1 5.1l-1.15 2.15m0-15.8h0.05" fill="none" stroke="#703803" stroke-linecap="round" stroke-linejoin="round" stroke-width=".05"/>
<path d="m-16.05 3.05q-0.65-7 6.55-11.8-2.6 4.35-1.3 10.8-3-0.05-5.25 1" fill="#fff2df" fill-rule="evenodd"/>
<path d="m-14 7q-0.25-1.1 1.5-2.75m-7.05-1.05q1.7-0.9 5.75 1.8" fill="none" stroke="#7d6d56" stroke-linecap="round" stroke-linejoin="round" stroke-width=".05"/>
<path d="m15.75-7.3 0.8 0.35 1.15 1.25 0.55 1.7q0.05 0.8-0.35 1l-1-0.05-1.15-4.25m-6.2-7.1v-0.05q0.15-0.85 0.6-1.15t0.95 0q0.45 0.3 0.7 1l0.55-0.3 1.45 0.2q0.55 0.35 0.75 1.15v0.15q0.1 0.75-0.25 1.45v0.45l1.45 0.8 1.7 1.9-0.35 0.6-1.15 0.45-2-2.45q-1.75-2.25-4.4-4.25v0.05" fill="#dec696" fill-rule="evenodd"/>
<path d="m17.45-8.8-1.7-1.9-1.45-0.8v-0.45l1.7 0.6 1.45 1.45q0.25 0.65 0 1.1" fill="#fcebc4" fill-rule="evenodd"/>
<path d="m15.75-7.3 0.8 0.35 1.15 1.25 0.55 1.7q0.05 0.8-0.35 1l-1-0.05m-2.6-8.9q0.35-0.7 0.25-1.45v-0.15q-0.2-0.8-0.75-1.15l-1.45-0.2-0.55 0.3q-0.25-0.7-0.7-1-0.5-0.3-0.95 0t-0.6 1.15v0.05m6.4 6.65 1.15-0.45 0.35-0.6m-3.15-3.15 1.7 0.6 1.45 1.45q0.25 0.65 0 1.1" fill="none" stroke="#785825" stroke-linecap="round" stroke-linejoin="round" stroke-width=".05"/>
<path d="m7.9 12.75-1.45 1.4-0.35 0.25q0.6 2.05-1 2.55l-0.2-0.1q-0.8-0.25-1.3-0.95l-0.4-0.25-1.4 1.05-2.5 0.6-0.4-0.65q-0.2-1.15 0-1.25l3.05-0.65q3-0.55 5.95-2m-9.45 2.2-0.6 0.6q-0.7 0.35-1.8 0.4l-1.85-0.35q-0.85-0.3-0.85-0.8-0.05-0.45 0.55-0.8l4.55 0.95" fill="#dec696" fill-rule="evenodd"/>
<path d="m7.9 12.7 0.05 0.05q0.75 0.5 0.9 1.05 0.2 0.6-0.35 0.9l-1.25 0.2 0.1 0.7q-0.15 0.85-0.75 1.2l-1.5 0.15q1.6-0.5 1-2.55l0.35-0.25 1.45-1.4v-0.05m-4.3 3.2-1.3 1.3q-1.05 0.65-1.9 0.6-0.8-0.05-1.1-0.5l2.5-0.6 1.4-1.05 0.4 0.25" fill="#fcebc4" fill-rule="evenodd"/>
<path d="m5.1 16.95 1.5-0.15q0.6-0.35 0.75-1.2l-0.1-0.7 1.25-0.2q0.55-0.3 0.35-0.9-0.15-0.55-0.9-1.05l-0.05-0.05m-2.8 4.25-0.2-0.1q-0.8-0.25-1.3-0.95l-1.3 1.3q-1.05 0.65-1.9 0.6-0.8-0.05-1.1-0.5l-0.4-0.65q-0.2-1.15 0-1.25m-0.45-0.45-0.6 0.6q-0.7 0.35-1.8 0.4l-1.85-0.35q-0.85-0.3-0.85-0.8-0.05-0.45 0.55-0.8" fill="none" stroke="#785825" stroke-linecap="round" stroke-linejoin="round" stroke-width=".05"/>
<path d="m14.45 8.3q0.3 0.35 0.25 1 0.05 1-0.45 1.95-0.5 1-1.15 1.4t-1.15 0q-0.45-0.35-0.5-1.2l3-3.15" fill="#fcebc4" fill-rule="evenodd"/>
<path d="m14.45 8.3q0.3 0.35 0.25 1 0.05 1-0.45 1.95-0.5 1-1.15 1.4t-1.15 0q-0.45-0.35-0.5-1.2" fill="none" stroke="#785825" stroke-linecap="round" stroke-linejoin="round" stroke-width=".05"/>
<path d="m19.4 4.15q0.35-1.85-1.8-3.2l-0.05-0.45-0.65-2.65 1.45 0.15q0.6 0.4 0.65 1.15l-0.45 1.25 0.7 0.6q0.75 0.8 0.75 1.75 0 0.9-0.6 1.4m-2.55-6.3h0.05-0.05m0.15 11.8q0.8-2.25 0.7-2.85l-0.35-2.1 0.4-0.15q0.55 1.1 0.6 2.35 0.15 1.5-0.35 2.25-0.4 0.65-1 0.5" fill="#dec696" fill-rule="evenodd"/>
<path d="m16.9-2.15 0.65 2.65 0.05 0.45q2.15 1.35 1.8 3.2l-0.1 0.1-1.55 0.3-0.4 0.15 0.35 2.1q0.1 0.6-0.7 2.85l-0.7-0.2-1.2-1.15 0.9-3.4q0.85-3.1 0.9-7.05" fill="#fcebc4" fill-rule="evenodd"/>
<path d="m19.4 4.15q0.6-0.5 0.6-1.4 0-0.95-0.75-1.75l-0.7-0.6 0.45-1.25q-0.05-0.75-0.65-1.15l-1.45-0.15h-0.05m-1.75 10.45 1.2 1.15 0.7 0.2m0.75-5.1 1.55-0.3 0.1-0.1m-1.65 0.4q0.55 1.1 0.6 2.35 0.15 1.5-0.35 2.25-0.4 0.65-1 0.5" fill="none" stroke="#785825" stroke-linecap="round" stroke-linejoin="round" stroke-width=".05"/>
<path d="m-16 0.25q4.15 1.05 7.7 0l-3.6 2.8q-1.05-1.95-4.1-2.8" fill="#dec696" fill-rule="evenodd"/>
<path d="m-11.9 3.05q-1.05-1.95-4.1-2.8m-0.35-0.1-0.85-0.15-2.55 0.25" fill="none" stroke="#7d6d56" stroke-linecap="round" stroke-linejoin="round" stroke-width=".05"/>
<path d="m-17.2 0-2.75-1.5m3.95 1.75q4.15 1.05 7.7 0m-7.7 0-0.35-0.1" fill="none" stroke="#7d6d56" stroke-linecap="round" stroke-linejoin="round" stroke-width=".05"/>
</g>
<g id="e" transform="translate(7.45,6.8)">
<use transform="translate(-7.45,-6.8)" width="9.1000004" height="14" xlink:href="#n"/>
</g>
<g id="n" transform="translate(7.45,6.8)">
<path d="m-2.6 7.2q-1.45-2.45-0.05-5 3-0.3 4.3-1.55-0.65 1.6-0.95 4.55-2.35 0.95-3.3 2" fill="#79c62d" fill-rule="evenodd"/>
<path d="m-2.6 7.2q-1.45-2.45-0.05-5 3-0.3 4.3-1.55-0.65 1.6-0.95 4.55-2.35 0.95-3.3 2z" fill="none" stroke="#004800" stroke-linecap="round" stroke-linejoin="round" stroke-width=".05"/>
<path d="m0.05 2.1-0.6 0.85q0.25 0.85 0.95 1.3m-3.5 0.5q1.45-0.35 2-0.9l0.55-0.9m-1.7 2.6 1.15-1.7" fill="none" stroke="#558a20" stroke-linecap="round" stroke-linejoin="round" stroke-width=".05"/>
<path d="m-7.45-0.55q1.55-2.45 4.5-2.3 1.6 2.5 3.35 3.05-1.75 0.15-4.55 1.2-1.9-1.6-3.3-1.95" fill="#79c62d" fill-rule="evenodd"/>
<path d="m-7.45-0.55q1.55-2.45 4.5-2.3 1.6 2.5 3.35 3.05-1.75 0.15-4.55 1.2-1.9-1.6-3.3-1.95z" fill="none" stroke="#004800" stroke-linecap="round" stroke-linejoin="round" stroke-width=".05"/>
<path d="m-5.75-1.3 1.95 0.3q-0.7-0.2-1.65-1.35m1.65 1.35 1.1 0.1 1 0.15m-1-0.15q-0.65 0.6-0.7 1.5" fill="none" stroke="#558a20" stroke-linecap="round" stroke-linejoin="round" stroke-width=".05"/>
<path d="m-5.2-6.6q2.15-0.85 4.6 1.6 0.35 3.45 1.6 5.35-1.5-1.3-4.2-2.65-1-2.9-2-4.3" fill="#79c62d" fill-rule="evenodd"/>
<path d="m-5.2-6.6q2.15-0.85 4.6 1.6 0.35 3.45 1.6 5.35-1.5-1.3-4.2-2.65-1-2.9-2-4.3z" fill="none" stroke="#004800" stroke-linecap="round" stroke-linejoin="round" stroke-width=".05"/>
<path d="m-3.55-5.45 1.6 1.85q-0.55-0.8-0.9-2.55m0.9 2.55 0.85 0.9 0.75 0.95m-0.75-0.95q-0.75 0-1.15 0.7" fill="none" stroke="#558a20" stroke-linecap="round" stroke-linejoin="round" stroke-width=".05"/>
</g>
<g id="d" transform="translate(11.9,32.1)">
<use transform="translate(-11.9,-32.1)" width="44.450001" height="43.450001" xlink:href="#m"/>
</g>
<g id="m" transform="translate(11.9,32.1)">
<path d="m8.5-28.75q-1.1-0.35-1.6-0.9-0.45-0.75-0.25-1.35 0.05-0.55 0.95-0.95l1.65 0.15q1.05 0.05 1.6 0.85 0.4 0.8 0.2 1.4-0.15 0.5-0.9 0.9l-1.65-0.1" fill="#e2aa01" fill-rule="evenodd"/>
<path d="m28.2-16.85 2.2-4.8 0.15 0.05q-6.3 15-4.2 28.2l-3.45 0.1 0.65-0.7 1.45-5.7 0.05-0.15q0.35-0.25-0.55-1.95l-0.4-0.9q1.4-5.95 4.1-14.15" fill="#ffecce" fill-rule="evenodd"/>
<path d="m25.05 0.15-0.15 0.1-1.65 0.55-0.5 0.15q-1.6-2.5-3.35-3.65l-7.05-2.95q-9.4-3.8-16.5-4l-0.05-2.55 2.35-0.3h0.9q4.05 0.35 9.55 2.05l1.55 0.45 3.9 1.3 7.1 3.25 0.45 0.3q1.45 1.1 2.5 2.45l0.4 0.9q0.9 1.7 0.55 1.95" fill="#694f01" fill-rule="evenodd"/>
<path d="m8.45-28.65q-0.45 2.3-0.6 6.6-0.2 8.3 0.75 11.6-5.5-1.7-9.55-2.05 2.65-2.3 6.85-10 2-4.1 2.55-6.15" fill="#885502" fill-rule="evenodd"/>
<path d="m7.85-22.05q1.75 6.15 8.45 8.05 6.8 2.1 11.9-2.85-2.7 8.2-4.1 14.15-1.05-1.35-2.5-2.45l-0.45-0.3-7.1-3.25-3.9-1.3-1.55-0.45q-0.95-3.3-0.75-11.6m-12.05 9.85 0.6-10.35q1.8 7.3 9.5 0.05-4.2 7.7-6.85 10h-0.9l-2.35 0.3" fill="#a26502" fill-rule="evenodd"/>
<path d="m26.35 6.6-3.45 0.1m2.1-6.4 0.05-0.15" fill="none" stroke="#3a2001" stroke-linecap="round" stroke-linejoin="round" stroke-width=".05"/>
<path d="m8.5-28.75q-1.1-0.35-1.6-0.9-0.45-0.75-0.25-1.35 0.05-0.55 0.95-0.95l1.65 0.15q1.05 0.05 1.6 0.85 0.4 0.8 0.2 1.4-0.15 0.5-0.9 0.9l-1.65-0.1-0.05 0.1q-0.45 2.3-0.6 6.6-0.2 8.3 0.75 11.6" fill="none" stroke="#7e5801" stroke-linecap="round" stroke-linejoin="round" stroke-width=".05"/>
<path d="m-3.6-22.55q1.8 7.3 9.5 0.05" fill="none" stroke="#7e5801" stroke-linecap="round" stroke-linejoin="round" stroke-width=".05"/>
<path d="m30.55-21.6q-6.3 15-4.2 28.2z" fill="none" stroke="#703803" stroke-linecap="round" stroke-linejoin="round" stroke-width=".05"/>
<path d="m32.5-23q0.2 0.8-0.15 1.6-0.4 0.9-1.15 1.3-0.55 0.25-1.1 0l-0.2-0.05q-0.65-0.35-0.9-1.1-0.15-0.8 0.2-1.65 0.4-0.85 1.1-1.2l1.35-0.05q0.7 0.35 0.85 1.15" fill="#e2aa01" fill-rule="evenodd"/>
<path d="m32.5-23q0.2 0.8-0.15 1.6-0.4 0.9-1.15 1.3-0.55 0.25-1.1 0l-0.2-0.05q-0.65-0.35-0.9-1.1-0.15-0.8 0.2-1.65 0.4-0.85 1.1-1.2l1.35-0.05q0.7 0.35 0.85 1.15z" fill="none" stroke="#a36501" stroke-linecap="round" stroke-linejoin="round" stroke-width=".05"/>
<path d="m19.3-21.6q-1.1-0.65-1.4-1.2-0.45-0.85-0.2-1.65 0.3-0.85 1.05-1.25l1.85-0.1q0.95 0.3 1.35 1.1 0.4 0.75 0.25 1.65-0.55 1-1.15 1.35l-1.75 0.1-1.4 6.35-1.05 4.05-1.15 4.25-3.15 13.7q-0.5 2.6-0.6 4.6-3.4-4.7-8.25-6.95v-0.1q2.85-2.1 5.55-5.35l3.15-4.7 1.65-2.95 1.35-2.75q1.95-4.4 3.9-10.15m-28.45 24.65q-0.3-2.05-2.75-5.4 1.45-2.25 3.55-6.9l0.35-0.9 2.1-5.9-0.45 4.8-0.2 1.25-0.05 1.05-2.55 12m1.25-13 0.05-0.05-0.1 0.05h0.05" fill="#ffcf60" fill-rule="evenodd"/>
<path d="m17.45-11q1.65 5.5 4.8 4.8 3.15-0.9 4.85-6.4l-1.25 7.8-0.85 4.95-0.25 1.8-1.25 4-0.55 0.7q-1.1 0.8-5.05 0.7-0.7-2.9-1.1-6.8-0.25-2.15-0.15-4.6l0.15-1.35 0.65-5.6m-13.75 15.3-6.75-2.75 0.55 0.05q-1.25-3.7-1.55-8.3l-0.1-4.1q0.05-0.75-0.05-1.4l0.3-5.2q0.85 6.4 7.3 8.55 6.45 2.2 12-2.6l-1.35 2.75-1.65 2.95-3.15 4.7q-2.7 3.25-5.55 5.35m-12.05-13.55 0.3-0.95 0.05 0.05-0.35 0.9m34.2 4.45q-1.45 2.5-4.6 2.45-3.35-0.15-4.45-3.05 1.1 2.9 4.45 3.05 3.15 0.05 4.6-2.45m-30-6q1.7 3.65 6.65 5.35 5.1 1.5 9.9-0.3-4.8 1.8-9.9 0.3-4.95-1.7-6.65-5.35" fill="#feb336" fill-rule="evenodd"/>
<path d="m17.9-15.25-0.45 4.25-0.6-0.2 0.6 0.2-0.65 5.6-0.15 1.35q-0.1 2.45 0.15 4.6 0.4 3.9 1.1 6.8l0.15 0.05q-3.15 0.2-6.1 3.95 0.1-2 0.6-4.6l3.15-13.7 1.15-4.25 1.05-4.05" fill="#ffecce" fill-rule="evenodd"/>
<path d="m-3.05 1.55q-5 0.05-6.1 1.5l2.55-12 0.05-1.05 0.2-1.25 0.45-4.8q2.05-6.7 3.3-13.75l-1.3 12.4-0.3 5.2q0.1 0.65 0.05 1.4l0.1 4.1q0.3 4.6 1.55 8.3l-0.55-0.05" fill="#ffe8c1" fill-rule="evenodd"/>
<path d="m-7.85-10-0.05 0.05h-0.05l0.1-0.05" fill="#694f01" fill-rule="evenodd"/>
<path d="m19.3-21.6q-1.1-0.65-1.4-1.2-0.45-0.85-0.2-1.65 0.3-0.85 1.05-1.25l1.85-0.1q0.95 0.3 1.35 1.1 0.4 0.75 0.25 1.65-0.55 1-1.15 1.35l-1.75 0.1m-31.2 19.25q1.45-2.25 3.55-6.9l0.35-0.9 2.1-5.9q2.05-6.7 3.3-13.75m-5.3 19.85 0.05-0.05" fill="none" stroke="#a36501" stroke-linecap="round" stroke-linejoin="round" stroke-width=".05"/>
<path d="m23.5 5.95-0.55 0.7q-1.1 0.8-5.05 0.7m-14.2-3.05-6.75-2.75m-5.3-10.8 0.3-0.95" fill="none" stroke="#6b3c01" stroke-linecap="round" stroke-linejoin="round" stroke-width=".05"/>
<path d="m-8.05-10.2 0.05 0.05" fill="none" stroke="#6b3c01" stroke-linecap="round" stroke-linejoin="round" stroke-width=".05"/>
<path d="m19.3-21.6-1.4 6.35-0.45 4.25-0.65 5.6q1.1 2.9 4.45 3.05 3.15 0.05 4.6-2.45m-7.95 12.15 0.15 0.05q-3.15 0.2-6.1 3.95-3.4-4.7-8.25-6.95v-0.1q2.85-2.1 5.55-5.35l3.15-4.7q-4.8 1.8-9.9 0.3-4.95-1.7-6.65-5.35m19.55-0.65q1.95-4.4 3.9-10.15m-6.9 15.85 1.65-2.95 1.35-2.75m1.4 6.05-0.15 1.35q-0.1 2.45 0.15 4.6 0.4 3.9 1.1 6.8m-2.2-14.3-3.15 13.7q-0.5 2.6-0.6 4.6" fill="none" stroke="#a36501" stroke-linecap="round" stroke-linejoin="round" stroke-width=".05"/>
<path d="m-3.05 1.55q-5 0.05-6.1 1.5-0.3-2.05-2.75-5.4m9.4 3.95-0.55-0.05" fill="none" stroke="#5f3401" stroke-linecap="round" stroke-linejoin="round" stroke-width=".05"/>
<path d="m17.45-11q1.65 5.5 4.8 4.8 3.15-0.9 4.85-6.4l-1.25 7.8-0.85 4.95m-28.9-17.55q0.85 6.4 7.3 8.55 6.45 2.2 12-2.6m1.45 0.25 0.6 0.2" fill="none" stroke="#fed798" stroke-linecap="round" stroke-linejoin="round" stroke-width=".05"/>
<path d="m-3.65-30.8q0.5-0.6 1.25-0.5 0.7 0.15 1.15 0.85 0.4 0.65 0.3 1.6-0.15 0.95-0.75 1.45-0.55 0.55-1.25 0.45l-0.25-0.05q-0.6-0.15-0.9-0.75-0.4-0.75-0.25-1.65 0.1-0.9 0.7-1.4" fill="#ffcf60" fill-rule="evenodd"/>
<path d="m-3.65-30.8q-0.6 0.5-0.7 1.4-0.15 0.9 0.25 1.65 0.3 0.6 0.9 0.75l0.25 0.05q0.7 0.1 1.25-0.45 0.6-0.5 0.75-1.45 0.1-0.95-0.3-1.6-0.45-0.7-1.15-0.85-0.75-0.1-1.25 0.5z" fill="none" stroke="#a36501" stroke-linecap="round" stroke-linejoin="round" stroke-width=".05"/>
<path d="m9.5 3.5q0.55-1.95 1.95-3.1 1.4-1.05 2.85-0.6 1.35 0.4 1.9 2.05 0.55 1.75 0 3.7-0.65 1.95-2.05 3-1.4 1.1-2.75 0.7-1.45-0.45-2-2.15-0.55-1.65 0.1-3.6" fill="#c9d3e4" fill-rule="evenodd"/>
<path d="m9.5 3.5q0.55-1.95 1.95-3.1 1.4-1.05 2.85-0.6 1.35 0.4 1.9 2.05 0.55 1.75 0 3.7-0.65 1.95-2.05 3-1.4 1.1-2.75 0.7-1.45-0.45-2-2.15-0.55-1.65 0.1-3.6z" fill="none" stroke="#557baa" stroke-linecap="round" stroke-linejoin="round" stroke-width=".05"/>
<path d="m13.85 3.6q-0.25-0.55-0.2-1.3t0.4-1.2q0.2-0.45 0.7-0.3l0.55 0.7 0.2 1.35-0.4 1.15-0.6 0.4q-0.5-0.15-0.65-0.8" fill="#fff" fill-rule="evenodd"/>
<path d="m-8.05-1.5q-1.05 0.8-1.8 0.35-0.75-0.4-0.8-1.8-0.1-1.35 0.55-2.8 0.75-1.55 1.8-2.3 1-0.7 1.7-0.25 0.8 0.4 0.9 1.75 0 1.3-0.7 2.85-0.65 1.45-1.65 2.2" fill="#c9d3e4" fill-rule="evenodd"/>
<path d="m-8.05-1.5q1-0.75 1.65-2.2 0.7-1.55 0.7-2.85-0.1-1.35-0.9-1.75-0.7-0.45-1.7 0.25-1.05 0.75-1.8 2.3-0.65 1.45-0.55 2.8 0.05 1.4 0.8 1.8 0.75 0.45 1.8-0.35z" fill="none" stroke="#557baa" stroke-linecap="round" stroke-linejoin="round" stroke-width=".05"/>
<path d="m-8.05-5.9 0.9-1.05q0.4-0.65 0.35-1.15 0.05-0.55-0.45-0.7-0.3-0.05-0.8 0.3l-0.95 1q-0.35 0.65-0.3 1.2-0.05 0.55 0.25 0.6 0.5 0.15 1-0.2" fill="#fff" fill-rule="evenodd"/>
</g>
<g id="l" transform="translate(22.95,13.55)">
<path d="m-21.8-12.15-0.2 0.9 0.2-0.9 0.05-0.7 1-0.6 0.2 0.3 0.45 0.7-0.45-0.7 0.6-0.4 0.95 0.4-1.1 0.7 0.9 1.25-3 1.35 0.2-1.4-0.95 0.65 0.3-1.15 0.85-0.4m11.45-0.8 1.2 1.8-1.7 1.1 0.7 2-2.1 1.05-0.65-2.55q-0.8 0.3-1.65 0.65l-1.05-2.7 2.2-0.05-0.45-1.8 1.8 0.05 0.35 0.95 1.35-0.5m-1.35 0.5-0.4 0.15 0.4-0.15 0.85 2.4-0.85-2.4m-1.7 0.8 0.5 2.1-0.5-2.1m2.25 1.75 0.3-0.15-0.3 0.15" fill="#5f3842" fill-rule="evenodd"/>
<path d="m-22-11.25 0.2-0.9-0.85 0.4-0.3 1.15 0.95-0.65-0.2 1.4 3-1.35-0.9-1.25-0.45-0.7-0.2-0.3-1 0.6-0.05 0.7m11.45-0.8 1.2 1.8-1.7 1.1 0.7 2-2.1 1.05-0.65-2.55q-0.8 0.3-1.65 0.65l-1.05-2.7 2.2-0.05-0.45-1.8 1.8 0.05 0.35 0.95 1.35-0.5m-10.2-0.2 0.6-0.4 0.95 0.4-1.1 0.7m9.25 2.4-0.3 0.15m-1.75 0.35-0.5-2.1m1.7-0.8 0.85 2.4m-1.25-2.25 0.4-0.15" fill="none" stroke="#000" stroke-linecap="round" stroke-linejoin="round" stroke-width=".05"/>
</g>
<g id="c" transform="translate(17.6,8.5)">
<use transform="translate(-17.6,-8.5)" width="23" height="22.4" xlink:href="#k"/>
</g>
<g id="k" transform="translate(17.6,8.5)">
<path d="m-7-3.8 0.4-1.05q0.5-0.8 1.6-1.1 1.15-0.3 2.15 0 0.9 0.35 1.25 1.2 0.2 0.7-0.25 1.45l-5.15-0.5" fill="#fcebc4" fill-rule="evenodd"/>
<path d="m-7-3.8 0.4-1.05q0.5-0.8 1.6-1.1 1.15-0.3 2.15 0 0.9 0.35 1.25 1.2 0.2 0.7-0.25 1.45" fill="none" stroke="#785825" stroke-linecap="round" stroke-linejoin="round" stroke-width=".05"/>
<path d="m-13.25 2.95-0.65 0.1q-1.05-0.15-2.05-0.8-1.05-0.7-1.45-1.6-0.45-0.95 0.05-1.55 0.35-0.55 1.25-0.55l-0.4-1.15q-0.3-1.4 0.3-2.25 0.5-0.7 1.45-0.5-1.45 1.15 0 4.4l-0.25 0.45q-0.75 1.5 3 2.45l-0.45 0.5q-0.3 0.45-0.8 0.5m0.5-7.05q0.15-1.4 0.8-2.45 0.75-1.3 1.75-1.4 0.75-0.15 1.35 0.55l-2.4 1.65-1 2-0.5-0.35" fill="#dec696" fill-rule="evenodd"/>
<path d="m-14.75-5.35 0.2 0.05q0.9 0.25 1.8 1.2l0.5 0.35 1-2 2.4-1.65 0.6 0.9q0.6 1.15 0.6 2.05-0.1 1.35-0.7 2.65l-0.2 0.4q-3 2.8-3.45 3.35-3.75-0.95-3-2.45l0.25-0.45q-1.45-3.25 0-4.4" fill="#fcebc4" fill-rule="evenodd"/>
<path d="m-13.25 2.95-0.65 0.1q-1.05-0.15-2.05-0.8-1.05-0.7-1.45-1.6-0.45-0.95 0.05-1.55 0.35-0.55 1.25-0.55l-0.4-1.15q-0.3-1.4 0.3-2.25 0.5-0.7 1.45-0.5l0.2 0.05q0.9 0.25 1.8 1.2 0.15-1.4 0.8-2.45 0.75-1.3 1.75-1.4 0.75-0.15 1.35 0.55l0.6 0.9q0.6 1.15 0.6 2.05-0.1 1.35-0.7 2.65" fill="none" stroke="#785825" stroke-linecap="round" stroke-linejoin="round" stroke-width=".05"/>
<path d="m1.45-8.15q0.7 0.5 1.4 2.05 1.3 3.1 1.5 6.3l-1.35-0.1 1.35 0.1 0.95 2.6q0.5 1.6-1.55 3 0.1 3.2-1 4.1-1.1 0.85-2 0.65l-0.85-0.6 0.85 0.6q-1.35 1.15-1.7 2.3 0-1.65 0.85-2.9 3.8-6 1.55-18.1m0.75 13.2 1.55 0.75-1.55-0.75m-6.35-8.5-1.95 1.55q-2.2 1.95-2.4 3.35-0.1-2.55-2.3-5.05h0.05q0.7-0.45 1.65-0.7l3.15-0.05q1.55 0.25 1.8 0.9" fill="#485869" fill-rule="evenodd"/>
<path d="m1.45-8.15q2.25 12.1-1.55 18.1l-0.35-0.25 0.35 0.25q-0.85 1.25-0.85 2.9l-2.35-0.3q-1.4 1.9-2.4 1.15l-1.5-1.55q-2.65 1.4-3.85-1.45-0.55 0.5-1.05 0.6-0.55 0.1-1.05-1.75l-0.75-3.35q-0.8-2.55-0.3-4.55 0.9-3.75 3.4-5.25 2.2 2.5 2.3 5.05 0.2-1.4 2.4-3.35l1.95-1.55q1.25-0.65 1.9-1.95 2-4.1 3.7-2.75m-12.9 16.1-1.7 1.6 1.7-1.6m0.65 2.25-0.25 0.5 0.25-0.5m7.4 1.95 0.1 0.4-0.1-0.4" fill="#5f829a" fill-rule="evenodd"/>
<path d="m4.35 0.2q-0.2-3.2-1.5-6.3-0.7-1.55-1.4-2.05-1.7-1.35-3.7 2.75-0.65 1.3-1.9 1.95l-1.95 1.55m6.85 12.45q0.9 0.2 2-0.65 1.1-0.9 1-4.1m-14.55-9.4q-2.5 1.5-3.4 5.25-0.5 2 0.3 4.55l0.75 3.35q0.5 1.85 1.05 1.75 0.5-0.1 1.05-0.6 1.2 2.85 3.85 1.45l1.5 1.55q1 0.75 2.4-1.15l2.35 0.3q0.35-1.15 1.7-2.3m-4.9-14q-0.25-0.65-1.8-0.9l-3.15 0.05q-0.95 0.25-1.65 0.7h-0.05m15.15 3.8 0.95 2.6q0.5 1.6-1.55 3" fill="none" stroke="#303943" stroke-linecap="round" stroke-linejoin="round" stroke-width=".05"/>
<path d="m-0.1 9.95 0.85 0.6m3-4.75-1.55-0.75m-15.35 4.5 1.7-1.6m11 1.75 0.35 0.25m-10.95 0.75 0.25-0.5m7.5 2.35-0.1-0.4m6.4-12.05 1.35 0.1z" fill="none" stroke="#000" stroke-linecap="round" stroke-linejoin="round" stroke-width=".05"/>
<path d="m-1.3-1.25q0.8-1.2 1.35-2.85 0.55-1.6 0.5-2.7-0.1-0.95-0.8-0.8-0.7 0.2-1.55 1.45-0.9 1.3-1.45 2.9-0.55 1.65-0.4 2.65 0.05 1 0.75 0.8 0.7-0.15 1.6-1.45" fill="#cad5df" fill-rule="evenodd"/>
</g>
<g id="b" transform="translate(5.95,8.7)">
<use transform="translate(-5.95,-8.7)" width="24.299999" height="15.3" xlink:href="#j"/>
</g>
<g id="j" transform="translate(5.95,8.7)">
<path d="m-1.85-1.05 0.75 0.2 1.05 0.7q-4.15 0.45-2.8 2.25-2.15 2.75-1.25 3.85l-0.85-0.2q-0.45-0.5-0.1-1.65l0.4-1-1.1-0.1q-0.4-0.4 0.05-1.2 0.4-0.8 1.4-1.6 0.95-0.8 1.9-1.1l0.55-0.15m3.4 6.9q-0.5 0.65-1.2 0.75-0.9 0.15-1.5-0.65-0.5-0.7-0.6-1.7l0.45-1.8q0.9 3.7 2.85 3.4" fill="#fff2df" fill-rule="evenodd"/>
<path d="m-4.1 5.95q-0.9-1.1 1.25-3.85-1.35-1.8 2.8-2.25l1.9 1.2 0.15 0.25q0.45 0.75 0.45 1.85 0 1.3-0.6 2.35l-0.3 0.35q-1.95 0.3-2.85-3.4l-0.45 1.8q-0.85 1-1.75 1.45l-0.6 0.25" fill="#fcebc4" fill-rule="evenodd"/>
<path d="m-1.85-1.05-0.55 0.15q-0.95 0.3-1.9 1.1-1 0.8-1.4 1.6-0.45 0.8-0.05 1.2l1.1 0.1-0.4 1q-0.35 1.15 0.1 1.65l0.85 0.2m6.1-4.65q0.45 0.75 0.45 1.85 0 1.3-0.6 2.35l-0.3 0.35q-0.5 0.65-1.2 0.75-0.9 0.15-1.5-0.65-0.5-0.7-0.6-1.7-0.85 1-1.75 1.45l-0.6 0.25" fill="none" stroke="#785825" stroke-linecap="round" stroke-linejoin="round" stroke-width=".05"/>
<path d="m14.05-8.7-0.55 0.15-1.9 1.1q-1 0.8-1.4 1.6-0.45 0.8-0.05 1.2l1.1 0.1-0.4 1q-0.35 1.15 0.1 1.65 0.3 0.3 0.85 0.2l0.6-0.25q0.9-0.45 1.75-1.45 0.1 1 0.6 1.7 0.6 0.8 1.5 0.65 0.7-0.1 1.2-0.75l0.3-0.35q0.6-1.05 0.6-2.35 0-1.1-0.45-1.85" fill="none" stroke="#000" stroke-linecap="round" stroke-linejoin="round" stroke-width=".05"/>
</g>
</defs>
</svg>
