<?xml version="1.0" encoding="UTF-8"?>
<svg version="1.1" viewBox="0 0 27.519 31.422" xmlns="http://www.w3.org/2000/svg" xmlns:cc="http://creativecommons.org/ns#" xmlns:dc="http://purl.org/dc/elements/1.1/" xmlns:rdf="http://www.w3.org/1999/02/22-rdf-syntax-ns#" xmlns:xlink="http://www.w3.org/1999/xlink">
<metadata>
<rdf:RDF>
<cc:Work rdf:about="">
<dc:format>image/svg+xml</dc:format>
<dc:type rdf:resource="http://purl.org/dc/dcmitype/StillImage"/>
</cc:Work>
</rdf:RDF>
</metadata>
<g transform="translate(11.131 29.125)">
<use transform="matrix(-.8056 -.3374 -.082 .9773 -1.81 -18.073)" width="10.6" height="11.3" xlink:href="#b"/>
<use transform="translate(5.75,-17.15)" width="10.6" height="11.3" xlink:href="#b"/>
<use transform="matrix(.8 0 0 .8 -5.3999 -1.8)" width="14.7" height="4.25" xlink:href="#g"/>
<use transform="matrix(-1,0,0,1,-2.3,-12.1)" width="5.0500002" height="8" xlink:href="#a"/>
<use transform="matrix(.6538 0 0 .6538 -7.5595 -4.2288)" width="10.4" height="6.3499999" xlink:href="#f"/>
<use transform="matrix(.6538 0 0 .6538 -.5479 -2.7538)" width="10.6" height="7.6999998" xlink:href="#e"/>
<use transform="translate(-7.05,-13.35)" width="13.8" height="13.7" xlink:href="#d"/>
<use transform="translate(-6.15,-18.2)" width="11.45" height="3.9000001" xlink:href="#i"/>
<use transform="translate(2.95,-10.05)" width="5.0500002" height="8" xlink:href="#a"/>
<use transform="translate(-6.25,-29.1)" width="14.25" height="21.299999" xlink:href="#c"/>
</g>
<defs>
<g id="b" transform="translate(0,7.8)">
<use transform="translate(0,-7.8)" width="10.6" height="11.3" xlink:href="#o"/>
</g>
<g id="o" transform="translate(0,7.8)">
<path d="m5.75-6.35q3.2 3.6 3.8 8.2l0.1 1.65-1.55-2.25q-1.05 0.4-1.25-0.85l-0.2-0.05-0.35-0.05q-1.2-1.6-1.1-4.75-2.4 3.5-1.75 6.8-0.45-1-1.7-1.3-1.3-0.25-1.75 0.45 0.65-1.05 0.2-2.45 1.3-0.35 2.2-1.1-0.35-1.15 0.4-1l0.35 0.1 0.4 0.25-0.4-0.25q-0.35-1.6 0.9-1.7l0.35-0.65 0.25-2.15 1.1 1.1m-1.5 2.2-0.2-0.5 0.2 0.5m2.7 4.3-0.1 0.25 0.1-0.25m-4.3-1.9-0.25-0.3 0.25 0.3m5.45 3 0.3-0.5-0.3 0.5" fill="#a1330b" fill-rule="evenodd"/>
<path d="m5.75-6.35 0.15-0.75-0.15 0.75-1.1-1.1q0.85-0.85 1.25 0.35 1.15-0.3 1.2 0.95 1.45-0.4 1.05 1.15l0.7 0.05q0.35 0.15-0.1 0.9l-0.3 0.15 0.3-0.15q1.1-0.05 0.5 1.25l0.5 1.8 0.2 1.3q1.3 1.25 0.05 1.6l-0.45-0.05 0.45 0.05-0.35 1.6-0.1-1.65q-0.6-4.6-3.8-8.2m3.85 6.5 0.35 0.15-0.35-0.15m-0.65-2.9 0.3-0.05-0.3 0.05m-2-3.1 0.15-0.3-0.15 0.3" fill="#ff6b47" fill-rule="evenodd"/>
<path d="m3.45 2.35q-0.65-3.3 1.75-6.8-0.1 3.15 1.1 4.75-0.5-0.1-0.75 0.2v0.1l-0.1 0.3q-0.25 0.5-0.7 0.35l-0.3-0.2-1 1.3" fill="#771e09" fill-rule="evenodd"/>
<path d="m10 1.9q1.25-0.35-0.05-1.6l-0.2-1.3-0.5-1.8q0.6-1.3-0.5-1.25 0.45-0.75 0.1-0.9l-0.7-0.05q0.4-1.55-1.05-1.15-0.05-1.25-1.2-0.95-0.4-1.2-1.25-0.35l-0.25 2.15-0.35 0.65q-1.25 0.1-0.9 1.7m-0.75 0.9q-0.9 0.75-2.2 1.1m-0.2 2.45q0.45-0.7 1.75-0.45 1.25 0.3 1.7 1.3l1-1.3m1.85-0.75 0.35 0.05 0.2 0.05q0.2 1.25 1.25 0.85l1.55 2.25 0.35-1.6m-7.2-4.95q-0.75-0.15-0.4 1m3.15 2.65v-0.1q0.25-0.3 0.75-0.2m-1.55 0.95q0.45 0.15 0.7-0.35" fill="none" stroke="#6b1b07" stroke-linecap="round" stroke-linejoin="round" stroke-width=".05"/>
<path d="m5.9-7.1-0.15 0.75m3.8 8.2 0.45 0.05m-0.05-1.6-0.35-0.15m-5.55-4.8 0.2 0.5m2.6 4.55 0.1-0.25m-3.8-3.1-0.35-0.1m-0.4 1 0.25 0.3m0.5-1.2 0.4 0.25m3.55-3.45-0.15 0.3m1.8 1.8-0.3 0.15m0.8 1.1-0.3 0.05m-0.55 3.5-0.3 0.5m-2.65-0.35 0.1-0.3m-1.1 0.45 0.3 0.2" fill="none" stroke="#b8af9c" stroke-linecap="round" stroke-linejoin="round" stroke-width=".05"/>
</g>
<g id="g" transform="translate(6.75,2.25)">
<use transform="translate(-6.75,-2.25)" width="14.7" height="4.25" xlink:href="#n"/>
</g>
<g id="n" transform="translate(6.75,2.25)">
<path d="m5.75-1.9q2.15 0.45 2.2 1.35 0.05 0.85-2.05 1.55-2.15 0.75-5.2 0.95l-5.25-0.3q-2.2-0.5-2.2-1.35-0.05-0.85 2.05-1.6 2.15-0.75 5.2-0.9l5.25 0.3" fill="#382c16" fill-rule="evenodd"/>
</g>
<g id="a" transform="translate(2.2,1.2)">
<use transform="translate(-2.2,-1.2)" width="5.0500002" height="8" xlink:href="#m"/>
</g>
<g id="m" transform="translate(2.2,1.2)">
<path d="m-0.95 0.15q0.55-0.45 1.35-0.3l-0.1-0.2v-0.1l0.15-0.3q0.2-0.25 0.45 0l0.5 0.7 0.15 0.75 0.55-0.1q0.3 0.1 0.45 0.55l0.05 0.95-0.2 0.55 0.15 0.15 0.3 0.6-0.05 0.65-0.15 0.15v1.45q-0.65 0.85-1.3 1.1-0.05-2.8-1.55-3.55v-0.05q0.25-2.45-0.75-3" fill="#381952" fill-rule="evenodd"/>
<path d="m0.65 6.75-0.6-0.3-0.05-0.05q-0.15 0.3-0.35 0.2l-0.35-0.7-0.15-0.65 1.5 1.5m-1.85-1.35h-0.1l-0.35-0.5-0.05-1.2 0.15-0.75-0.15-0.15-0.25-0.65 0.05-0.8 0.35-0.55h0.05l0.3-0.4q-0.5 1.75 0.15 2.25-0.5 1.65-0.15 2.75" fill="#9467b0" fill-rule="evenodd"/>
<path d="m1.35 6.75h-0.7l-1.5-1.5v-0.2l-0.35 0.35q-0.35-1.1 0.15-2.75-0.65-0.5-0.15-2.25l0.25-0.25q1 0.55 0.75 3v0.05q1.5 0.75 1.55 3.55" fill="#582578" fill-rule="evenodd"/>
<path d="m0.3-0.35v-0.1l0.15-0.3q0.2-0.25 0.45 0l0.5 0.7 0.15 0.75 0.55-0.1q0.3 0.1 0.45 0.55l0.05 0.95-0.2 0.55 0.15 0.15 0.3 0.6-0.05 0.65-0.15 0.15v0.05m-2.65 2.15q-0.15 0.3-0.35 0.2l-0.35-0.7-0.15-0.65v-0.2l-0.35 0.35h-0.1l-0.35-0.5-0.05-1.2 0.15-0.75-0.15-0.15-0.25-0.65 0.05-0.8 0.35-0.55h0.05" fill="none" stroke="#63267d" stroke-linecap="round" stroke-linejoin="round" stroke-width=".05"/>
<path d="m2.65 4.25v1.4q-0.65 0.85-1.3 1.1h-0.7l-0.6-0.3-0.05-0.05" fill="none" stroke="#63267d" stroke-linecap="round" stroke-linejoin="round" stroke-width=".05"/>
<path d="m0.7-1.2h0.1l0.3 0.2q0.3 0.25 0.25 0.65-0.05 0.35-0.4 0.55l-0.5 0.2 0.35 0.75-0.3 0.55h-0.75l-0.55-0.3v0.25l-0.4 0.35-0.55-0.15-0.4-0.6-0.05-0.2 2.9-2.25" fill="#dac492" fill-rule="evenodd"/>
<path d="m0.7-1.2h0.1l0.3 0.2q0.3 0.25 0.25 0.65-0.05 0.35-0.4 0.55l-0.5 0.2 0.35 0.75-0.3 0.55h-0.75l-0.55-0.3v0.25l-0.4 0.35-0.55-0.15-0.4-0.6-0.05-0.2" fill="none" stroke="#8f8062" stroke-linecap="round" stroke-linejoin="round" stroke-width=".05"/>
</g>
<g id="f" transform="translate(7.05,1.65)">
<use transform="translate(-7.05,-1.65)" width="10.4" height="6.3499999" xlink:href="#l"/>
</g>
<g id="l" transform="translate(7.05,1.65)">
<path d="m0.05-0.5q-1.7-0.55-2.65 0.6l-0.35-0.4q0.15-0.75 0.9-1.3 1.35-0.3 2.15 0.85l-0.05 0.25" fill="#fef7e0" fill-rule="evenodd"/>
<path d="m-2.6 0.1q0.95-1.15 2.65-0.6l-0.05 0.95-2.6-0.35" fill="#d9ceb4" fill-rule="evenodd"/>
<path d="m0.1-0.75q-0.8-1.15-2.15-0.85-0.75 0.55-0.9 1.3l0.35 0.4 2.6 0.35" fill="none" stroke="#93550b" stroke-linecap="round" stroke-linejoin="round" stroke-width=".05"/>
<path d="m2.95 0.4-1.5 0.45-1.5 0.8q0.4 0.5 0.3 2.3-1.8 0.35-3.3-0.7-1.1-1.85-0.25-3.55l0.2-0.45 1.55-0.05q1.55 0.25 2.35-0.45l2.15 1.65m-4.8-0.05 2.65-0.65-2.95 0.2-0.45 2 0.75-1.55" fill="#eaa32d" fill-rule="evenodd"/>
<path d="m0.25 3.95q0.1-1.8-0.3-2.3l1.5-0.8 1.5-0.45q0.55 0.85 0.35 1.75l-0.35 1.3-2.7 0.5m-2.1-3.6-0.75 1.55 0.45-2 2.95-0.2-2.65 0.65" fill="#cf7b16" fill-rule="evenodd"/>
<path d="m2.95 0.4-2.15-1.65q-0.8 0.7-2.35 0.45l-1.55 0.05-0.2 0.45q-0.85 1.7 0.25 3.55 1.5 1.05 3.3 0.7l2.7-0.5 0.35-1.3q0.2-0.9-0.35-1.75z" fill="none" stroke="#93550b" stroke-linecap="round" stroke-linejoin="round" stroke-width=".05"/>
<path d="m-1.25 0.3q0.4-0.2 0.8-0.3l0.1 0.05q0.75 0 1.45 0.75l0.2 0.3" fill="none" stroke="#93550b" stroke-linecap="round" stroke-linejoin="round" stroke-width=".05"/>
<path d="m-6.4 3.05q-0.6-0.15-0.65-0.6 0.25-1.3 1.45-2.4 2.2-0.8 3.65 0.8l-0.05 0.4q-2.95-0.35-4.4 1.8" fill="#fef7e0" fill-rule="evenodd"/>
<path d="m-2.05 2.9-4.35 0.15q1.45-2.15 4.4-1.8l-0.05 1.65" fill="#d9ceb4" fill-rule="evenodd"/>
<path d="m-2.05 2.9-4.35 0.15q-0.6-0.15-0.65-0.6 0.25-1.3 1.45-2.4 2.2-0.8 3.65 0.8" fill="none" stroke="#93550b" stroke-linecap="round" stroke-linejoin="round" stroke-width=".05"/>
<path d="m-0.65 2.15q-2.7 0.1-3.7 2.55l-0.7-0.45q0-1.4 1-2.7 1.8-1.25 3.35 0.25l0.05 0.35" fill="#fef7e0" fill-rule="evenodd"/>
<path d="m-4.35 4.7q1-2.45 3.7-2.55l0.2 1.7q-1.7 0.85-3.9 0.85" fill="#d9ceb4" fill-rule="evenodd"/>
<path d="m-0.7 1.8q-1.55-1.5-3.35-0.25-1 1.3-1 2.7l0.7 0.45q2.2 0 3.9-0.85" fill="none" stroke="#93550b" stroke-linecap="round" stroke-linejoin="round" stroke-width=".05"/>
</g>
<g id="e" transform="translate(6.65,1)">
<use transform="translate(-6.65,-1)" width="10.6" height="7.6999998" xlink:href="#k"/>
</g>
<g id="k" transform="translate(6.65,1)">
<path d="m-1.65 1.6 0.7-0.5 0.15-0.05 1.05-0.95-2.8 0.3-0.85 2.35 1.75-1.15m2.7-0.15q-1.1-0.65-1.85-0.4 0.75-0.25 1.85 0.4l-1.55 1q-0.2 1.15 1 2.45-2.5 0.5-4.2-0.5-1.45-1.9-0.7-3.55 0.4-1.1 1.95-1.1 1.75 0 2.35-0.75 1.95 0.9 2.85 1.9l-1.7 0.55" fill="#eaa32d" fill-rule="evenodd"/>
<path d="m-0.8 1.05-0.15 0.05-0.7 0.5-1.75 1.15 0.85-2.35 2.8-0.3-1.05 0.95m1.85 0.4 1.7-0.55q0.85 0.95 0.7 2l-0.15 1.5-2.8 0.5q-1.2-1.3-1-2.45l1.55-1 0.35 0.2-0.35-0.2" fill="#cf7b16" fill-rule="evenodd"/>
<path d="m2.75 0.9q-0.9-1-2.85-1.9-0.6 0.75-2.35 0.75-1.55 0-1.95 1.1-0.75 1.65 0.7 3.55 1.7 1 4.2 0.5m2.25-4q0.85 0.95 0.7 2l-0.15 1.5-2.8 0.5" fill="none" stroke="#93550b" stroke-linecap="round" stroke-linejoin="round" stroke-width=".05"/>
<path d="m-0.8 1.05-0.15 0.05-0.7 0.5m0.85-0.55q0.75-0.25 1.85 0.4l0.35 0.2" fill="none" stroke="#93550b" stroke-linecap="round" stroke-linejoin="round" stroke-width=".05"/>
<path d="m-5.8 4.85q-0.7-0.05-0.85-0.55-0.1-1.55 0.85-2.95 1.85-1.25 3.75 0.45l0.1 0.5q-3-0.1-3.85 2.55" fill="#fef7e0" fill-rule="evenodd"/>
<path d="m-1.95 2.3 0.2 1.3q-2.9 1.4-4.05 1.25 0.85-2.65 3.85-2.55" fill="#d9ceb4" fill-rule="evenodd"/>
<path d="m-1.75 3.6q-2.9 1.4-4.05 1.25-0.7-0.05-0.85-0.55-0.1-1.55 0.85-2.95 1.85-1.25 3.75 0.45" fill="none" stroke="#93550b" stroke-linecap="round" stroke-linejoin="round" stroke-width=".05"/>
<path d="m0.1 6.65-1 0.05q-1.7-0.1-1.85-0.95-0.2-2.25 0.55-3.15 0.8-1.1 1.7-0.65-0.4 3.7 0.6 4.7" fill="#fef7e0" fill-rule="evenodd"/>
<path d="m-0.5 1.95 1 0.95 0.65 1q0.3 0.55 0.2 1.25-0.3 1.15-1.25 1.5-1-1-0.6-4.7" fill="#d9ceb4" fill-rule="evenodd"/>
<path d="m-0.5 1.95 1 0.95 0.65 1q0.3 0.55 0.2 1.25-0.3 1.15-1.25 1.5l-1 0.05q-1.7-0.1-1.85-0.95-0.2-2.25 0.55-3.15 0.8-1.1 1.7-0.65z" fill="none" stroke="#93550b" stroke-linecap="round" stroke-linejoin="round" stroke-width=".05"/>
<path d="m2.75 2.2h0.05q-0.15 2.65 0.5 2.85l-0.5 0.1q-0.9-0.05-1-0.55-0.1-1.35 0.25-1.9t0.7-0.5" fill="#fef7e0" fill-rule="evenodd"/>
<path d="m2.8 2.2 0.7 0.7 0.35 0.6 0.1 0.75q-0.15 0.65-0.65 0.8-0.65-0.2-0.5-2.85" fill="#d9ceb4" fill-rule="evenodd"/>
<path d="m2.8 2.2 0.7 0.7 0.35 0.6 0.1 0.75q-0.15 0.65-0.65 0.8l-0.5 0.1q-0.9-0.05-1-0.55-0.1-1.35 0.25-1.9t0.7-0.5" fill="none" stroke="#93550b" stroke-linecap="round" stroke-linejoin="round" stroke-width=".05"/>
</g>
<g id="d" transform="translate(6.9,6.85)">
<use transform="translate(-6.9,-6.85)" width="13.8" height="13.7" xlink:href="#j"/>
</g>
<g id="j" transform="translate(6.9,6.85)">
<path d="m3.1 5.3q-1.45 0.6-2.8 0.7l-0.25 0.5-0.85-0.1q-0.35-0.15-0.65-0.35 0 0.5-0.25 0.7-0.3 0.2-0.7 0l-0.7-0.7-0.3-0.65-0.2 0.05-0.65-0.1-0.4-0.65-0.05-0.35-0.05-0.1-0.1-0.05-0.2 0.2-0.6 0.05-0.3-0.8 0.1-0.8h-0.05l-0.7 0.1-0.3-0.65 0.3-1.05 0.25-0.35v-0.45l-0.1-0.65 0.35-0.7 0.1-0.05 0.2 0.15h0.5q-0.75 1.5 0.3 1.5 0.55 0.9 3.05 0.5 2.65-0.4 3.05 0.65l-0.25 1.15q0.15 1.2 2.25 2.3m-8.6-7.4 0.2-0.4 0.15 0.1-0.35 0.3m1.25-1.9 0.3-0.4-0.2 0.4h-0.1m-1.65 6.85 0.05-0.05v0.05-0.05l-0.05 0.05m-0.45-2.4 0.2 0.2-0.2 0.25 0.2-0.25-0.2-0.2" fill="#ebe0c3" fill-rule="evenodd"/>
<path d="m-3.95-4.4 1.4-1.55q1.05-1.05 3.15-0.9 2.35 0.15 4.45 2.25 4.05 6.5-0.85 9.35l-1.1 0.55q-2.1-1.1-2.25-2.3l0.25-1.15q-0.4-1.05-3.05-0.65-2.5 0.4-3.05-0.5-1.05 0-0.3-1.5h-0.5l-0.2-0.15v-0.25l0.35-0.75 0.15-0.15 0.35-0.3-0.15-0.1-0.15-0.4 0.3-0.65q0.25-0.35 0.7-0.45h0.3l0.2-0.4m1.25-0.2-0.35-0.35-0.5 0.2-0.35 0.5-0.05 0.25h-0.2 0.2l0.05-0.25 0.35-0.5 0.5-0.2 0.35 0.35" fill="#dac492" fill-rule="evenodd"/>
<path d="m5.05-4.6q4.05 6.5-0.85 9.35l-1.1 0.55q-1.45 0.6-2.8 0.7m-5.05-1.75-0.1-0.05" fill="none" stroke="#604824" stroke-linecap="round" stroke-linejoin="round" stroke-width=".05"/>
<path d="m0.3 6-0.25 0.5-0.85-0.1q-0.35-0.15-0.65-0.35 0 0.5-0.25 0.7-0.3 0.2-0.7 0l-0.7-0.7-0.3-0.65-0.2 0.05-0.65-0.1-0.4-0.65-0.05-0.35-0.05-0.1m-0.1-0.05-0.2 0.2-0.6 0.05-0.3-0.8 0.1-0.8v-0.05l-0.05 0.05-0.7 0.1-0.3-0.65 0.3-1.05 0.25-0.35 0.2-0.25-0.2-0.2-0.1-0.65 0.35-0.7 0.1-0.05v-0.25l0.35-0.75 0.15-0.15 0.35-0.3-0.15-0.1-0.15-0.4 0.3-0.65q0.25-0.35 0.7-0.45h0.5l0.05-0.25 0.35-0.5 0.5-0.2 0.35 0.35m-2.6 3.8h-0.5l-0.2-0.15" fill="none" stroke="#604824" stroke-linecap="round" stroke-linejoin="round" stroke-width=".05"/>
<path d="m-1.7 2.45-0.4 2.95-1.8-0.4 0.25-2.7 1.95 0.15" fill="#f26c28" fill-rule="evenodd"/>
<path d="m-3.65 2.3 0.05-1.1-1.4-0.5 0.4-1.8 1.25 0.1 0.55-2 1.85 0.35-0.1 2.1 1.6 0.45-0.2 2.05-1.95-0.2-0.1 0.7-1.95-0.15" fill="#d1591d" fill-rule="evenodd"/>
<path d="m-1.3 5.75-0.3 0.15-0.4-0.25-0.05-0.7 0.2-0.6-0.5-0.25-0.05-0.65 0.4-0.6 0.4-0.25-0.05-0.15v-0.6l0.35-0.35 0.5 0.15 0.05 0.05-0.55 4.05" fill="#ebe0c3" fill-rule="evenodd"/>
<path d="m-1.3 5.75-0.3 0.15-0.4-0.25-0.05-0.7 0.2-0.6-0.5-0.25-0.05-0.65 0.4-0.6 0.4-0.25-0.05-0.15v-0.6l0.35-0.35 0.5 0.15 0.05 0.05" fill="none" stroke="#8f8062" stroke-linecap="round" stroke-linejoin="round" stroke-width=".05"/>
</g>
<g id="i" transform="translate(6.15,18.2)">
<path d="m-3.5-17.15-0.6 0.95-2-1.95h-0.05v-0.05l0.05 0.05 2.6 1" fill="#fef7e0" fill-rule="evenodd"/>
<path d="m-4.1-16.2-0.9 0.65-1.15-2.6h0.05l2 1.95" fill="#d1bb90" fill-rule="evenodd"/>
<path d="m-5-15.55-1.15-2.6v-0.05l0.05 0.05 2.6 1" fill="none" stroke="#a27937" stroke-linecap="round" stroke-linejoin="round" stroke-width=".05"/>
<path d="m5.25-16.7-2.35 2q-0.45-0.45-0.25-1.45l2.6-0.55" fill="#fef7e0" fill-rule="evenodd"/>
<path d="m5.25-16.7h0.05l-1.1 2.4q-0.9 0-1.3-0.4l2.35-2" fill="#d1bb90" fill-rule="evenodd"/>
<path d="m4.2-14.3 1.1-2.4h-0.05l-2.6 0.55" fill="none" stroke="#a27937" stroke-linecap="round" stroke-linejoin="round" stroke-width=".05"/>
</g>
<g id="c" transform="translate(5.25,16.2)">
<use transform="translate(-5.25,-16.2)" width="14.25" height="21.299999" xlink:href="#h"/>
</g>
<g id="h" transform="translate(5.25,16.2)">
<path d="m2.35 3.6-2.55 0.1 0.7-1.2-0.95-0.1-0.65-0.1-1.35-0.2-0.1 0.2-0.4 0.45-0.15-0.1-0.6-0.55q-0.95-1.35 0.65-4.3l0.4-0.7q-0.95-1.05 0.75-4.2 2-1.1 4.5-0.4l1.4 0.65q-4.35-0.7-2.75 6.2 1.55 2.1 1.1 4.25" fill="#582578" fill-rule="evenodd"/>
<path d="m4-6.85q1.75 1.15 2.9 3.9 0.85 1.9 0.25 3.7-0.55 1.6-1.7 2l-3.1 0.85q0.45-2.15-1.1-4.25-1.6-6.9 2.75-6.2" fill="#381952" fill-rule="evenodd"/>
<path d="m-3.7 2.1q-1.3-1.4-0.65-3.4 0.2-1.15 0.1-2.35-0.2-1.85 1.95-3.2l0.4-0.25q-1.7 3.15-0.75 4.2l-0.4 0.7q-1.6 2.95-0.65 4.3" fill="#9467b0" fill-rule="evenodd"/>
<path d="m-0.2 3.7-0.3 0.55q-3.35 1.9-3.3-0.45l1.25-1.5 0.1-0.2 1.35 0.2 0.25 0.05 0.4 0.05-0.4-0.05-0.25-0.05 0.65 0.1 0.95 0.1-0.7 1.2m-2.05 0.15 0.2-0.6q0.3-0.5 1.2-0.9-0.9 0.4-1.2 0.9l-0.2 0.6" fill="#fdb0c1" fill-rule="evenodd"/>
<path d="m4-6.85q1.75 1.15 2.9 3.9 0.85 1.9 0.25 3.7-0.55 1.6-1.7 2l-3.1 0.85-2.55 0.1m-2.75-0.95-0.15-0.1-0.6-0.55q-1.3-1.4-0.65-3.4 0.2-1.15 0.1-2.35-0.2-1.85 1.95-3.2l0.4-0.25q2-1.1 4.5-0.4l1.4 0.65" fill="none" stroke="#63267d" stroke-linecap="round" stroke-linejoin="round" stroke-width=".05"/>
<path d="m-0.2 3.7-0.3 0.55" fill="none" stroke="#000" stroke-linecap="round" stroke-linejoin="round" stroke-width=".05"/>
<path d="m-0.5 4.25q-3.35 1.9-3.3-0.45l1.25-1.5m1.45 0 0.25 0.05 0.4 0.05 0.95 0.1-0.7 1.2m-0.9-1.4-1.35-0.2-0.1 0.2m1.7 0.05q-0.9 0.4-1.2 0.9l-0.2 0.6" fill="none" stroke="#000" stroke-linecap="round" stroke-linejoin="round" stroke-width=".05"/>
<path d="m4.05 0.95q-2.35 0.7-3.05 0 0.15-1 1.7-2.1 2.2 0.4 1.35 2.1" fill="#fff" fill-rule="evenodd"/>
<path d="m2.7-1.15 0.1-0.1q1.7-0.45 2.75 0.25 0.3 1.05-1.05 1.8l-0.45 0.15q0.85-1.7-1.35-2.1" fill="#f0e0c2" fill-rule="evenodd"/>
<path d="m4.05 0.95q-2.35 0.7-3.05 0 0.15-1 1.7-2.1m0.05-0.05 0.05-0.05q1.7-0.45 2.75 0.25 0.3 1.05-1.05 1.8l-0.45 0.15z" fill="none" stroke="#967637" stroke-linecap="round" stroke-linejoin="round" stroke-width=".05"/>
<path d="m-3.65 0.05q0.8-0.55 0.55-2 0.4 0.95 0.4 1.8-0.3 0.55-0.9 0.25l-0.05-0.05" fill="#f0e0c2" fill-rule="evenodd"/>
<path d="m-3.25-2.3 0.15 0.35q0.25 1.45-0.55 2l-0.5-0.35q-0.5-0.75-0.3-1.8 0.5-0.65 1.2-0.2" fill="#fff" fill-rule="evenodd"/>
<path d="m-3.25-2.3q-0.7-0.45-1.2 0.2-0.2 1.05 0.3 1.8l0.5 0.35m0.55-2q0.4 0.95 0.4 1.8-0.3 0.55-0.9 0.25" fill="none" stroke="#967637" stroke-linecap="round" stroke-linejoin="round" stroke-width=".05"/>
<path d="m-1.55-12.6 1.1-1.15-0.85 2.85-0.25-1.7" fill="#ffa40f" fill-rule="evenodd"/>
<path d="m-1-2.45q-0.6-0.2-1-1.6-0.35-1.35-0.15-2.3l-0.5-2.9 0.3-2.3 0.8-1.05 0.25 1.7 0.95 2.7-0.65 5.75m-2.75-2.3-0.4 1.45-0.65-3.9q1.1-1.35 1.55-3.3l-0.5 5.75" fill="#ffb945" fill-rule="evenodd"/>
<path d="m1.5-12.8q1.7-1.15 2.7-3.4v0.05l-0.2 5.7-1.2 5.1q-1.6 1.95-3.8 2.9l0.65-5.75 1.85-4.6m4.7 0.2 1.25 3.3 0.25 3.15-1.95 0.15 0.75-3-0.3-3.6m2.05 5.85 0.6-0.75q0.4 2.2-0.15 4.5l-0.3 0.7-1.8 0.4 0.95-1.1 0.7-3.75m-10.4 0.4q-1 0.25-1.6 1.6l0.5-5.75 0.6 1.25 0.5 2.9" fill="#ff8d0f" fill-rule="evenodd"/>
<path d="m4.2-16.15 2 3.55 0.3 3.6-0.75 3 1.95-0.15 0.55-0.6-0.7 3.75-0.95 1.1 1.8-0.4-1.5 3.55-1-1.95q0.95-3.6-0.2-4.35-1.2-0.8-2.9-0.3l1.2-5.1 0.2-5.7m-4.65 2.4 0.85-0.7q-0.6 1.4-0.2 2.3 0.7-0.25 1.3-0.65l-1.85 4.6-0.95-2.7 0.85-2.85" fill="#d86c01" fill-rule="evenodd"/>
<path d="m1.5-12.8q1.7-1.15 2.7-3.4v0.05l2 3.55 1.25 3.3 0.25 3.15 0.55-0.6 0.6-0.75q0.4 2.2-0.15 4.5l-0.3 0.7-1.5 3.55-1-1.95q0.95-3.6-0.2-4.35-1.2-0.8-2.9-0.3-1.6 1.95-3.8 2.9-0.6-0.2-1-1.6-0.35-1.35-0.15-2.3-1 0.25-1.6 1.6l-0.4 1.45-0.65-3.9q1.1-1.35 1.55-3.3m0.6 1.25 0.3-2.3 0.8-1.05 1.1-1.15 0.85-0.7q-0.6 1.4-0.2 2.3 0.7-0.25 1.3-0.65m-3.65 6.45-0.5-2.9" fill="none" stroke="#ad5701" stroke-linecap="round" stroke-linejoin="round" stroke-width=".05"/>
<path d="m-3.55 0.65-0.5-0.2-0.4-0.3-0.05-0.25 0.3-0.15 0.5 0.2 0.4 0.35v0.3l-0.25 0.05" fill="#b59bca" fill-rule="evenodd"/>
<path d="m4.2 1.9-0.85 0.25-0.9-0.05q-0.35-0.05-0.35-0.25t0.35-0.4l0.9-0.2h0.85l0.35 0.3-0.35 0.35" fill="#9467b0" fill-rule="evenodd"/>
<path d="m0.5 1q-0.05 0.35-0.6 0.15-0.6-0.25-1.25-0.35l-1-0.1-0.25-0.25 0.45-0.4 1-0.1q0.65 0 1.2 0.35 0.5 0.3 0.45 0.7" fill="#270f33" fill-rule="evenodd"/>
<path d="m2.8-2.2-0.9 0.35-0.35 0.1 0.3-0.3 0.8-0.4 1-0.15 0.6 0.05-0.4 0.15-1.05 0.2" fill="#9467b0" fill-rule="evenodd"/>
<path d="m5.85 1.5q0.8-1.15 2.95-2.15-0.05 2.4-3.4 3.25 0.05-0.55 0.45-1.1" fill="#411a53" fill-rule="evenodd"/>
<path d="m8.8-0.65q-2.15 1-2.95 2.15 0.05-1.05 1.4-2.05l0.4-0.05 1.15-0.05" fill="#9467b0" fill-rule="evenodd"/>
<path d="m7.25-0.55q-1.35 1-1.4 2.05-0.4 0.55-0.45 1.1l-0.15-2.5q0.55-0.5 2-0.65" fill="#381952" fill-rule="evenodd"/>
<path d="m8.8-0.65-1.15 0.05-0.4 0.05m-1.85 3.15q3.35-0.85 3.4-3.25m-3.55 0.75q0.55-0.5 2-0.65" fill="none" stroke="#270f33" stroke-linecap="round" stroke-linejoin="round" stroke-width=".05"/>
<path d="m-3.2-5-2-1.95h-0.05v-0.05l0.05 0.05 2.6 1-0.6 0.95" fill="#fef7e0" fill-rule="evenodd"/>
<path d="m-5.25-6.95h0.05l2 1.95-0.9 0.65-1.15-2.6" fill="#d1bb90" fill-rule="evenodd"/>
<path d="m-5.25-6.95 1.15 2.6m1.5-1.6-2.6-1-0.05-0.05v0.05z" fill="none" stroke="#a27937" stroke-linecap="round" stroke-linejoin="round" stroke-width=".05"/>
<path d="m6.15-5.5-2.35 2q-0.45-0.45-0.25-1.45l2.6-0.55" fill="#fef7e0" fill-rule="evenodd"/>
<path d="m6.15-5.5h0.05l-1.1 2.4q-0.9 0-1.3-0.4l2.35-2" fill="#d1bb90" fill-rule="evenodd"/>
<path d="m5.1-3.1 1.1-2.4h-0.05l-2.6 0.55" fill="none" stroke="#a27937" stroke-linecap="round" stroke-linejoin="round" stroke-width=".05"/>
</g>
</defs>
</svg>
