<?xml version="1.0" encoding="UTF-8"?>
<svg version="1.1" viewBox="0 0 25.107 24.722" xmlns="http://www.w3.org/2000/svg" xmlns:cc="http://creativecommons.org/ns#" xmlns:dc="http://purl.org/dc/elements/1.1/" xmlns:rdf="http://www.w3.org/1999/02/22-rdf-syntax-ns#" xmlns:xlink="http://www.w3.org/1999/xlink">
<metadata>
<rdf:RDF>
<cc:Work rdf:about="">
<dc:format>image/svg+xml</dc:format>
<dc:type rdf:resource="http://purl.org/dc/dcmitype/StillImage"/>
</cc:Work>
</rdf:RDF>
</metadata>
<g transform="translate(12.748 22.235)">
<use transform="matrix(.48 0 0 .48 -12.744 -22.223)" width="52.799999" height="52.599998" xlink:href="#f"/>
</g>
<defs>
<g id="f" transform="translate(26.55,46.3)">
<use transform="matrix(2.6074 .1352 0 2.6074 -19.35 -6.7795)" width="14.7" height="4.25" xlink:href="#e"/>
<use transform="translate(-12.35,-26.85)" width="24.25" height="31.15" xlink:href="#d"/>
<use transform="translate(-6.15,-28.3)" width="22.6" height="32.599998" xlink:href="#i"/>
<use transform="translate(-26.55,-39.05)" width="52.25" height="25.6" xlink:href="#c"/>
<use transform="translate(-24.3,-46.3)" width="50.549999" height="30.4" xlink:href="#b"/>
</g>
<g id="e" transform="translate(6.75,2.25)">
<use transform="translate(-6.75,-2.25)" width="14.7" height="4.25" xlink:href="#k"/>
</g>
<g id="k" transform="translate(6.75,2.25)">
<path d="m5.75-1.9q2.15 0.45 2.2 1.35 0.05 0.85-2.05 1.55-2.15 0.75-5.2 0.95l-5.25-0.3q-2.2-0.5-2.2-1.35-0.05-0.85 2.05-1.6 2.15-0.75 5.2-0.9l5.25 0.3" fill="#382c16" fill-rule="evenodd"/>
</g>
<g id="d" transform="translate(12.15,31.15)">
<use transform="translate(-12.15,-31.15)" width="24.25" height="31.15" xlink:href="#j"/>
</g>
<g id="j" transform="translate(12.15,31.15)">
<path d="m10.25-17.35 1.2 4.15q1.85 7.05-1.75 10.05-3.65 3-11.15 3.15l-4.35-0.2q-5.8-5.8 0.15-15.2 11.6 2.05 15.9-1.95m-8.3 9.5q-0.45-0.45-1.1-0.6l-2.1-0.5-0.7 0.35q-1.8 1.6-0.95 4 0.25 0.75 0.9 1.3l3.9 0.1 0.65-0.75q1.3-2.2-0.6-3.9m3.45-1.1 0.15-0.4q0.2-1.45-1.5-1.5l-0.5 0.2q-0.55 0.4-0.45 1.05 0.05 0.55 0.5 0.9 1.05 0.9 1.8-0.25" fill="#e9c9a0" fill-rule="evenodd"/>
<path d="m5.4-8.95q-0.75 1.15-1.8 0.25-0.45-0.35-0.5-0.9-0.1-0.65 0.45-1.05l0.5-0.2q1.7 0.05 1.5 1.5l-0.15 0.4m-3.45 1.1q1.9 1.7 0.6 3.9l-0.65 0.75-3.9-0.1q-0.65-0.55-0.9-1.3-0.85-2.4 0.95-4l0.7-0.35 2.1 0.5q0.65 0.15 1.1 0.6" fill="#daac7b" fill-rule="evenodd"/>
<path d="m-5.8-0.2q-3.8-0.55-5.15-2.35-2.05-2.75-0.65-7.6 1.1-3.9 1.45-6.8l0.1-1.35-0.05-7.95q-0.1-3.3 3.7-4.35l3.9-0.55q6.5-0.2 9.3 5.35 1.95 3.85 3.45 8.45-4.3 4-15.9 1.95-5.95 9.4-0.15 15.2" fill="#a37b4b" fill-rule="evenodd"/>
<path d="m10.25-17.35 1.2 4.15q1.85 7.05-1.75 10.05-3.65 3-11.15 3.15l-4.35-0.2q-3.8-0.55-5.15-2.35-2.05-2.75-0.65-7.6 1.1-3.9 1.45-6.8l0.1-1.35-0.05-7.95q-0.1-3.3 3.7-4.35l3.9-0.55q6.5-0.2 9.3 5.35 1.95 3.85 3.45 8.45z" fill="none" stroke="#503a25" stroke-linecap="round" stroke-linejoin="round" stroke-width=".05"/>
</g>
<g id="i" transform="translate(6.15,28.3)">
<path d="m14.15-26.7-1.1-0.45 0.35-0.65 1.15 0.45 0.55-0.95 0.75 0.2-0.55 1.05 1.15 0.45-0.4 0.65-1.1-0.45-0.6 1.2-0.85-0.35 0.65-1.15 0.4-0.65-0.4 0.65m1.15-0.35-0.35 0.65 0.35-0.65m-9.2 13.1 1-1.95 1.4 0.4-1 2.15 2.1 0.85-0.75 1.3-1.95-0.85-1.15 2.3-1.5-0.6 1.2-2.3-2.05-0.9 0.65-1.3 2.05 0.9-0.65 1.3 0.65-1.3m-6.8 1.15-2.3 4.45-2-0.8 1.6-2.8-2.75-1.1 0.9-1.55 2.75 1.1 1.35-2.4 1.8 0.5-1.35 2.6 2.8 1.05-0.95 1.55-2.6-1 0.75-1.6m8.2-0.55-0.6 1.3 0.6-1.3m-10.9 1.4 0.9-1.55-0.9 1.55" fill="#fbefae" fill-rule="evenodd"/>
<path d="m4.45-0.25q1.95-1.15 3.2-0.4l2.8 2.85q0.05 3.85-6.75 0.65l-0.6-0.85-1.45-1.95q1.55-1.15 2.8-0.3 1.75 0.7 2.4 1.5 0.4 0.5 0.45 1-0.05-0.5-0.45-1-0.65-0.8-2.4-1.5" fill="#fdb0c1" fill-rule="evenodd"/>
<path d="m14.15-26.7-1.1-0.45 0.35-0.65 1.15 0.45 0.55-0.95 0.75 0.2-0.55 1.05 1.15 0.45-0.4 0.65-1.1-0.45-0.6 1.2-0.85-0.35 0.65-1.15 0.4-0.65m0.4 0.95 0.35-0.65m-9.2 13.1 1-1.95 1.4 0.4-1 2.15 2.1 0.85-0.75 1.3-1.95-0.85-1.15 2.3-1.5-0.6 1.2-2.3-2.05-0.9 0.65-1.3 2.05 0.9-0.65 1.3m-6.15-0.15-2.3 4.45-2-0.8 1.6-2.8-2.75-1.1 0.9-1.55 2.75 1.1 1.35-2.4 1.8 0.5-1.35 2.6 2.8 1.05-0.95 1.55-2.6-1m5.15 14.05q6.8 3.2 6.75-0.65l-2.8-2.85q-1.25-0.75-3.2 0.4 1.75 0.7 2.4 1.5 0.4 0.5 0.45 1m-0.4-14.3 0.6-1.3m-3.05 13.1q-1.25-0.85-2.8 0.3l1.45 1.95m-5.6-15.5-0.9 1.55" fill="none" stroke="#000" stroke-linecap="round" stroke-linejoin="round" stroke-width=".05"/>
<path d="m3.1 2 0.6 0.85" fill="none" stroke="#000" stroke-linecap="round" stroke-linejoin="round" stroke-width=".05"/>
</g>
<g id="c" transform="translate(25.95,13)">
<use transform="translate(-25.95,-13)" width="52.25" height="25.6" xlink:href="#h"/>
</g>
<g id="h" transform="translate(25.95,13)">
<path d="m17.95-6.9q0.4-0.7 0.8-0.55t0.7 1.45l-0.45 0.8 0.45-0.8q3.95 3.5 5.85 5.8 1.75 0.5 0.5 2.25l-0.4-0.15q1.65 0.65-0.3 1.7-1.5 2.55-6.85 4.85l-0.8 0.35-0.35 1.15-1.6 0.05-0.55-0.3q-0.3 1.6-2.5 0.7-4.85 1.2-10.75 1.55l-1.95 0.1q-14.4-4.75-10.4-12.95 3.35-6.85 15.15-11.45 6.05 0.6 11.55 4.15 2.1-0.2 1.9 1.3l-0.2 0.25 0.2-0.25m-2.3-1 0.4-0.3-0.4 0.3m9.65 7.7-1.65 0.4 1.65-0.4m-10.35 9.9-0.35-0.3 0.35 0.3m-2.5 0.7-0.25-0.4 0.25 0.4m12.95-8.5h-0.8 0.8m-0.3 1.7-1.1-0.25 1.1 0.25" fill="#cb2400" fill-rule="evenodd"/>
<path d="m4.5-12.35q-11.8 4.6-15.15 11.45-4 8.2 10.4 12.95-6.05 0.05-11.6-1.45h-0.1q-1.95 0.85-3.75-1.25l-1.3 0.5q-0.95 0.3-2.7-2.3-2.15 0.6-2.75-1l-0.15-0.5-0.05-0.35q-1.75 0.3-1.65-0.9l0.1-0.65q-2.3-0.7-1.55-1.5l0.8-1q0.1-1.25 1-2.65l-0.05-0.2-0.1-0.65q-0.05-1.45 1.25-0.65 1.7-2.05 4.75-4.45 4.8-3.75 11.4-5 1.35-1.85 2.85-0.45l3.35-0.2 2.65 0.05 2.35 0.2m-27.15 18.05-0.15-1 0.15 1m-1.55-1.55 0.25-0.5-0.25 0.5m12.25 6.45-0.1-0.5 0.1 0.5m-7.75-3.05-0.2-0.9 0.2 0.9m4 1.8v-0.4 0.4m11.85-21.75 0.1 0.55-0.1-0.55m-2.85 0.45-0.05 0.3 0.05-0.3m-16.15 9.45 0.05 0.4-0.05-0.4m-1.1 1.5 0.1 0.6-0.1-0.6" fill="#831101" fill-rule="evenodd"/>
<path d="m-0.25 12.05-0.15 0.55" fill="none" stroke="#fff" stroke-linecap="round" stroke-linejoin="round" stroke-width=".05"/>
<path d="m19.45-6q-0.3-1.3-0.7-1.45t-0.8 0.55q0.2-1.5-1.9-1.3-5.5-3.55-11.55-4.15m14.95 6.35q3.95 3.5 5.85 5.8 1.75 0.5 0.5 2.25l-0.4-0.15q1.65 0.65-0.3 1.7-1.5 2.55-6.85 4.85l-0.8 0.35m-0.35 1.15-1.6 0.05m-0.55-0.3q-0.3 1.6-2.5 0.7-4.85 1.2-10.75 1.55l-1.95 0.1q-6.05 0.05-11.6-1.45h-0.1q-1.95 0.85-3.75-1.25l-1.3 0.5q-0.95 0.3-2.7-2.3-2.15 0.6-2.75-1m-0.15-0.5-0.05-0.35q-1.75 0.3-1.65-0.9m0.1-0.65q-2.3-0.7-1.55-1.5l0.8-1q0.1-1.25 1-2.65l-0.05-0.2m-0.1-0.65q-0.05-1.45 1.25-0.65 1.7-2.05 4.75-4.45 4.8-3.75 11.4-5 1.35-1.85 2.85-0.45l3.35-0.2 2.65 0.05 2.35 0.2" fill="none" stroke="#380701" stroke-linecap="round" stroke-linejoin="round" stroke-width=".05"/>
<path d="m17.95-6.9-0.2 0.25m-1.7-1.55-0.4 0.3m3.35 2.7 0.45-0.8m-2 14.8-0.35 1.15m-1.6 0.05-0.55-0.3m-37.4-3.15-0.15-0.5m-1.7-1.25 0.1-0.65m0.2-5.35-0.1-0.65m48.1 5.2 1.1 0.25m-0.5-1.7h0.8m-13.2 8.1 0.25 0.4m2.15-1 0.35 0.3m8.7-9.5 1.65-0.4m-49.15-0.2-0.1-0.6m1.15-1.1-0.05-0.4m16.1-9.15 0.05-0.3m2.95 0.1-0.1-0.55m-11.85 21.35v0.4m-4.2-2.7 0.2 0.9m7.65 2.55 0.1 0.5m-12-6.95-0.25 0.5m1.4 0.55 0.15 1" fill="none" stroke="#000" stroke-linecap="round" stroke-linejoin="round" stroke-width=".05"/>
</g>
<g id="b" transform="translate(25.25,15.2)">
<use transform="matrix(.5751 -.1738 .1738 .5751 -19.204 -11.13)" width="13.65" height="14.3" xlink:href="#a"/>
<use transform="matrix(-.5751 -.1738 -.1738 .5751 17.254 -11.23)" width="13.65" height="14.3" xlink:href="#a"/>
<use transform="translate(-7.2,-15.2)" width="13.65" height="14.3" xlink:href="#a"/>
<use transform="matrix(.5751 -.1738 .2032 .5663 -25.264 -4.4166)" width="13.65" height="14.3" xlink:href="#a"/>
<use transform="matrix(-.4779 -.1444 -.2032 .5663 25.303 -3.3665)" width="13.65" height="14.3" xlink:href="#a"/>
<use transform="matrix(-.45 -.1465 -.1038 .5181 16.602 7.7913)" width="13.65" height="14.3" xlink:href="#a"/>
<use transform="matrix(-.4899 -.0955 -.0383 .506 4.3052 2.7309)" width="13.65" height="14.3" xlink:href="#a"/>
<use transform="matrix(.4899 -.0955 .0383 .506 -19.455 7.4809)" width="13.65" height="14.3" xlink:href="#a"/>
</g>
<g id="a" transform="translate(6.8,7.15)">
<use transform="translate(-6.8,-7.15)" width="13.65" height="14.3" xlink:href="#g"/>
</g>
<g id="g" transform="translate(6.8,7.15)">
<path d="m0.05-7.15q2.9 1.15 2.55 4.95 2.6-0.85 1.4 2.75l2.85 5.45-7 1.1-1.15 0.05 1.15-14 0.2-0.3" fill="#656459" fill-rule="evenodd"/>
<path d="m-0.15-6.85-1.15 14q-3.85 0-5.5-2.2l0.4-0.7 1.15-2.1q0.75-1.35 1.05-3.9 1.05 0.15 1.7-0.9 0.05-2.45 2.35-4.2" fill="#45443d" fill-rule="evenodd"/>
<path d="m6.85 6-2.85-5.45q1.2-3.6-1.4-2.75 0.35-3.8-2.55-4.95" fill="none" stroke="#656565" stroke-linecap="round" stroke-linejoin="round" stroke-width=".05"/>
</g>
</defs>
</svg>
