<?xml version="1.0" encoding="UTF-8"?>
<svg version="1.1" viewBox="0 0 49.304 42.635" xmlns="http://www.w3.org/2000/svg" xmlns:cc="http://creativecommons.org/ns#" xmlns:dc="http://purl.org/dc/elements/1.1/" xmlns:rdf="http://www.w3.org/1999/02/22-rdf-syntax-ns#" xmlns:xlink="http://www.w3.org/1999/xlink">
<metadata>
<rdf:RDF>
<cc:Work rdf:about="">
<dc:format>image/svg+xml</dc:format>
<dc:type rdf:resource="http://purl.org/dc/dcmitype/StillImage"/>
</cc:Work>
</rdf:RDF>
</metadata>
<g transform="translate(-248.95 -178.5)">
<use transform="translate(248.95,178.5)" width="49.299999" height="42.650002" xlink:href="#b"/>
<use transform="matrix(.5821 .1564 -.1564 .5821 260.54 206.92)" width="13.25" height="5.5999999" xlink:href="#a"/>
<use transform="matrix(.6008 -.0555 .0555 .6008 275.43 210.21)" width="13.25" height="5.5999999" xlink:href="#a"/>
</g>
<defs>
<g id="b" transform="translate(-248.95,-178.5)">
<path d="m251.2 196.9q-1.3-1.1-1.75-2.55-0.65-2.05 0.35-3.05t3.1-0.35l1.6 0.75q-3.4 0.1-3.3 5.2m6.4-2.55q0.1-3.45 1.4-4.55 1.25-1.15 2.1-1.05l1.25-0.25 0.35-0.3q1.75-4.25 5.6-3.25 2.5-2.85 4.85-3.9-1.4 1.7-1.85 3.15-0.7 2 0.5 3.45l0.8 1.8-0.8-1.8q2.35-1.8 3.65-3.7l1.7 0.2q0.5 2.25 1.95 4.25 2.55-1.5 1.25-3.5l1.85 0.8q3.8-0.05 4.45 1.7t1.85 2.5 1.1 3.1l0.25 0.5q0.4 3.35-0.55 6.05-1 2.85-3.45 4.95l-2.1 1.5 0.8-1.35-4.35-1.6 2.1-4.05-2.85-0.75-2.05 3.7-4.25-1.7-1.45 2.45 4.25 1.7-0.55 1-0.6 0.4-0.2 0.1-4.5 0.35-3.8-0.35-1.25-1.1-0.65-0.45 0.7-1.35 3.85 1.55 1.45-2.35-4.15-1.5 2-3.85-2.7-0.75-1.95 3.5-4.05-1.6-1.35 2.3 4.05 1.65-1.3 2.3q-5.55-0.5-5.55-4.15l0.15-0.6q-0.2-0.7-0.3-2.4-0.1-1.75 2.35-2.75m4.75-0.85v-5 5m30.4-3.2 1.55-0.7q2.1-0.65 3.1 0.35t0.35 3.05q-0.6 1.9-2.7 3.2 0-4.9-2.3-5.9m-20.65 29.3-1 0.5q-0.45-0.4-0.3-2.8 3.4-1.45 3.7-0.75-0.6 2.35-2 2.5l-0.4 0.55m0.5-30.15-2.85-2.05q-0.55 2.2 1.1 4.45 1.7-1.8 4.3-0.6l-2.55-1.8m-7.6 0.05q1.7-2.7 3.3-4.55-1.6 1.85-3.3 4.55m18.3-0.4q0.2-1.95-1.1-3.4 1.3 1.45 1.1 3.4m-4.05 0-0.15-0.7 0.15 0.7m-16.55-0.9 2.45 3.15-2.45-3.15m15.7 18.4 0.6-1.1 3.05 1.2-3.65-0.1" fill="#fede81" fill-rule="evenodd"/>
<path d="m251.2 196.9q-0.1-5.1 3.3-5.2 2.15-0.45 2.45 0.9t0.65 1.75q-2.45 1-2.35 2.75 0.1 1.7 0.3 2.4-0.7-0.45-1.2-0.2l-1.75 0.05q-1.3-0.2-1.4-2.45m20.1-12.7q2.1-2.15 2.9-1.35l1.25 1.1q-1.3 1.9-3.65 3.7-1.2-1.45-0.5-3.45m18.3 8.8 0.8-1.8q0.45-1.35 2.35-0.9 2.3 1 2.3 5.9l-0.45 0.25q-1.9 1-3.25 1.9 0.75 1 0.85 5.4 0.05 4.35-3 6.8-3.1 2.35-3.85 3.45l-0.15 0.05q-1.45 0.4-1.8 1.4-3.9 2.5-8.95 2.95l-2.35 1.2 0.4-0.55q1.4-0.15 2-2.5-0.3-0.7-3.7 0.75-0.15 2.4 0.3 2.8l-1.1 0.55q-2.35 0.15-3.75-3.1l-1.1-0.4q-1.9-0.75-3.6-1.85-1-0.7-1.9-2.3-0.95-1.65-3.5-3.9-2.6-2.25-2.1-5.6 0.45-3.35 1.35-3.4 0 3.65 5.55 4.15l-1.05 1.8 2.95 1.15 1.55-2.85 0.65 0.45 1.25 1.1 3.8 0.35 4.5-0.35 0.2-0.1 0.6-0.4-1.9 3.35 3.15 1.2 1.75-3.35 3.65 0.1 1 0.4 0.7-1.1 2.1-1.5q2.45-2.1 3.45-4.95 0.95-2.7 0.55-6.05l-0.25-0.5m-12.45-8.85q1.65 0.2 3.2 0.75 1.3 2-1.25 3.5-1.45-2-1.95-4.25m-4.55 5.3 2.55 1.8q-2.6-1.2-4.3 0.6-1.65-2.25-1.1-4.45l2.85 2.05m4.55 26.95-2.7 2 2.7-2m-12.35-0.2 1.45 1.35-1.45-1.35m26.55-17.85q1.25-3.5-1.5-4.85 2.75 1.35 1.5 4.85" fill="#e4a625" fill-rule="evenodd"/>
<path d="m285.35 214q1.55-1.15 2.75-0.7 1.15 0.4 1.6 1.15-3.65 1.75-2.2 4.4v0.05q-1.8-1.15-3.15-1.65-1.3-0.5-1-1.6l0.05-0.2q0.35-1 1.8-1.4l0.15-0.05m-20.2 3.15v0.05q0 1.15-1.4 1.65-1.45 0.45-3.45 1.55-2 1.05-3.4 0.6-1.45-0.5-1.4-1.65-0.05-1.2 1.4-2.35 1.4-1.1 3.4-1.55l1.25-0.15q1.7 1.1 3.6 1.85" fill="#b6620e" fill-rule="evenodd"/>
<path d="m289.7 214.45q1.25 0.45 2.15 1.3 1.1 1.15 0.85 2.3-0.25 0.9-1.35 1.35l-0.5 0.2-2.3-0.2-1-0.45-0.05-0.1q-1.45-2.65 2.2-4.4" fill="#ee8011" fill-rule="evenodd"/>
<path d="m260.95 204.25 1.3-2.3-4.05-1.65 1.35-2.3 4.05 1.6 1.95-3.5 2.7 0.75-2 3.85 4.15 1.5-1.45 2.35-3.85-1.55-0.7 1.35-1.55 2.85-2.95-1.15 1.05-1.8m14.45 1.15 0.55-1-4.25-1.7 1.45-2.45 4.25 1.7 2.05-3.7 2.85 0.75-2.1 4.05 4.35 1.6-0.8 1.35-0.7 1.1-1-0.4-3.05-1.2-0.6 1.1-1.75 3.35-3.15-1.2 1.9-3.35m-9.15-4.7-1.15 2.3 1.15-2.3m13.95 2.35-1.2 2.45 1.2-2.45m-4.25 1.35 1.45-2.45-1.45 2.45m-13.7-2.45 1.35-2.35-1.35 2.35" fill="#fbefae" fill-rule="evenodd"/>
<path d="m254.5 191.7-1.6-0.75q-2.1-0.65-3.1 0.35t-0.35 3.05q0.45 1.45 1.75 2.55m3.3-5.2q2.15-0.45 2.45 0.9t0.65 1.75q0.1-3.45 1.4-4.55 1.25-1.15 2.1-1.05l1.25-0.25v-0.8l0.35 0.5q1.75-4.25 5.6-3.25 2.5-2.85 4.85-3.9-1.4 1.7-1.85 3.15 2.1-2.15 2.9-1.35l1.25 1.1q1-1.5 1.4-3.05l0.25-2.15m-14.4 9.45-0.35 0.3v5m-6.8 6q-0.2-0.7-0.3-2.4-0.1-1.75 2.35-2.75m19.55-10.2q-0.35-1.55-0.3-3.25m5.35 4.8q-1.1-1.2-3.1-2.1l1.25 1.3 1.85 0.8q3.8-0.05 4.45 1.7t1.85 2.5 1.1 3.1l0.8-1.8q0.45-1.35 2.35-0.9l1.55-0.7q2.1-0.65 3.1 0.35t0.35 3.05q-0.6 1.9-2.7 3.2l-0.45 0.25q-1.9 1-3.25 1.9 0.75 1 0.85 5.4 0.05 4.35-3 6.8-3.1 2.35-3.85 3.45m-1.95 1.45q-3.9 2.5-8.95 2.95l-2.35 1.2-2.1 1.05q-2.35 0.15-3.75-3.1l-1.1-0.4m-3.6-1.85q-1-0.7-1.9-2.3-0.95-1.65-3.5-3.9-2.6-2.25-2.1-5.6 0.45-3.35 1.35-3.4l0.15-0.6q-0.7-0.45-1.2-0.2l-1.75 0.05q-1.3-0.2-1.4-2.45m29.15-12q-1.55-0.55-3.2-0.75 0.5 2.25 1.95 4.25 2.55-1.5 1.25-3.5m-19.4 19.35 1.3-2.3-4.05-1.65 1.35-2.3 4.05 1.6 1.95-3.5 2.7 0.75-2 3.85 4.15 1.5-1.45 2.35-3.85-1.55-0.7 1.35-1.55 2.85-2.95-1.15 1.05-1.8m14.45 1.15 0.55-1-4.25-1.7 1.45-2.45 4.25 1.7 2.05-3.7 2.85 0.75-2.1 4.05 4.35 1.6-0.8 1.35m6.1-12.5-0.25-0.5m-17-3.55-0.8-1.8q-1.2-1.45-0.5-3.45m7.8 4.2 0.15 0.7m2.95-3.4q1.3 1.45 1.1 3.4m-15-4.15q-1.6 1.85-3.3 4.55m6.8-1.85q2.35-1.8 3.65-3.7m-10.3 7.4-2.45-3.15m15.7 18.4-1.75 3.35-3.15-1.2 1.9-3.35m6.65 1.3-3.05-1.2-0.6 1.1m3.65 0.1 1 0.4 0.7-1.1m-6.35-4.05-1.45 2.45m3.05 1.1 1.2-2.45m-15.1-0.05 1.15-2.3m0 16.85-1.45-1.35m9.65 2.2 2.7-2m-13.55-16.8-1.35 2.35m-0.7 13.35q1.7 1.1 3.6 1.85m24.7-23.65q2.75 1.35 1.5 4.85" fill="none" stroke="#b8800c" stroke-linecap="round" stroke-linejoin="round" stroke-width=".5"/>
</g>
<g id="a" transform="translate(6.6,2.75)">
<path d="m4.7-1.95q1.9 0.8 1.95 2-0.05 1.15-1.95 2-1.95 0.8-4.7 0.8t-4.65-0.8q-1.95-0.85-1.95-2 0-1.2 1.95-2 1.9-0.85 4.65-0.8 2.75-0.05 4.7 0.8" fill="#f40bae" fill-opacity=".32157" fill-rule="evenodd"/>
</g>
</defs>
</svg>
