<?xml version="1.0" encoding="UTF-8"?>
<svg version="1.1" viewBox="0 0 72.792 70.955" xmlns="http://www.w3.org/2000/svg" xmlns:cc="http://creativecommons.org/ns#" xmlns:dc="http://purl.org/dc/elements/1.1/" xmlns:rdf="http://www.w3.org/1999/02/22-rdf-syntax-ns#" xmlns:xlink="http://www.w3.org/1999/xlink">
<metadata>
<rdf:RDF>
<cc:Work rdf:about="">
<dc:format>image/svg+xml</dc:format>
<dc:type rdf:resource="http://purl.org/dc/dcmitype/StillImage"/>
</cc:Work>
</rdf:RDF>
</metadata>
<g transform="translate(-2.2808 -6.0448)">
<use transform="translate(2.25,5.8)" width="73.75" height="71.199997" xlink:href="#a"/>
</g>
<defs>
<g id="a" transform="translate(-2.25,-5.8)">
<path d="m5.95 29.3 14.45 7.9 8.4 12.2q-0.65 4.15-2.35 8.05l-15.4-3.85q-7.3-9.1-6.5-24.15l1.4-0.15" fill="#754e28" fill-rule="evenodd"/>
<path d="m28.8 49.4-8.4-12.2-14.45-7.9q11.35-0.8 22.7 9.95 0.85 5.25 0.15 10.15" fill="#87603a" fill-rule="evenodd"/>
<path d="m28.8 49.4q0.7-4.9-0.15-10.15-11.35-10.75-22.7-9.95l-1.4 0.15q-0.8 15.05 6.5 24.15l15.4 3.85q1.7-3.9 2.35-8.05z" fill="none" stroke="#633c16" stroke-linecap="round" stroke-linejoin="round"/>
<path d="m66.1 46q-6.25-10.25-18.25-16.65l5.05 0.15q4.25 1.3 10.05 5.35t5.5 6.65q-0.35 2.1-2.35 4.5" fill="#a28962" fill-rule="evenodd"/>
<path d="m66.1 46-1 1.1q-2.95 3-5.55 4.8t-6.1-2.55q-3.5-4.3-7.25-10.25-3.8-6-0.75-8.45l2.4-1.3q12 6.4 18.25 16.65" fill="#907750" fill-rule="evenodd"/>
<path d="m47.85 29.35-2.4 1.3q-3.05 2.45 0.75 8.45 3.75 5.95 7.25 10.25 3.5 4.35 6.1 2.55t5.55-4.8l1-1.1m-18.25-16.65 5.05 0.15q4.25 1.3 10.05 5.35t5.5 6.65q-0.35 2.1-2.35 4.5" fill="none" stroke="#594424" stroke-linecap="round" stroke-linejoin="round"/>
<path d="m58.4 57.8v0.45l-0.15-0.35 0.15-0.1m5.45-13.55q-3.25 2.6-2.45 5.35-2.4-0.8-3.45 2.05l-0.3 1-4.6-1.95q0.75-3.75 1.1-7.85l9.7 1.4" fill="#a28962" fill-rule="evenodd"/>
<path d="m58.4 58.25-0.1 0.5q-0.5 4.1 1.1 6.85l0.85 1.15-10-6.15q1.75-4.5 2.8-9.9l4.6 1.95q-0.55 2.3 0.6 5.25l0.15 0.35" fill="#907750" fill-rule="evenodd"/>
<path d="m68 45 1.2-0.05 0.45 0.05q2 0.3 3.25 2.5 1.75 3 1 7.7-0.75 4.8-3.55 8.55t-6 4.3q-2.5 0.4-4.1-1.3l-0.85-1.15q-1.6-2.75-1.1-6.85l0.1-0.5v-0.45q0.75-4.7 3.55-8.45 2.8-3.8 6.05-4.35" fill="#7e653e" fill-rule="evenodd"/>
<path d="m68 44.85v0.15q-3.25 0.55-6.05 4.35-2.8 3.75-3.55 8.45l-0.15 0.1q-1.15-2.95-0.6-5.25l0.3-1q1.05-2.85 3.45-2.05-0.8-2.75 2.45-5.35l4.15 0.6" fill="#6a5740" fill-rule="evenodd"/>
<path d="m69.2 44.95-1.2-0.1m1.65 0.15-0.45-0.05m-11.55 7.7 0.3-1q1.05-2.85 3.45-2.05-0.8-2.75 2.45-5.35l-9.7-1.4m3.5 9.8q-0.55 2.3 0.6 5.25l0.15 0.35m1.85 8.5-10-6.15m13.6-16.35 4.15 0.6" fill="none" stroke="#594424" stroke-linecap="round" stroke-linejoin="round"/>
<path d="m68 45 1.2-0.05m-1.2 0.05q-3.25 0.55-6.05 4.35-2.8 3.75-3.55 8.45v0.45l-0.1 0.5q-0.5 4.1 1.1 6.85l0.85 1.15q1.6 1.7 4.1 1.3 3.2-0.55 6-4.3t3.55-8.55q0.75-4.7-1-7.7-1.25-2.2-3.25-2.5" fill="none" stroke="#594424" stroke-linecap="round" stroke-linejoin="round"/>
<path d="m74.1 59.2q-1.05 0.4-1.35-0.6-0.35-1 0.55-1.15 0.95-0.1 1.45 0.65 0.4 0.7-0.65 1.1m0.25-2.6q-0.85 0.2-1.05-0.45-0.25-0.65 0.3-0.9 0.6-0.2 1.1 0.35 0.45 0.65-0.35 1m-0.25-1.75q-0.6 0.45-0.8-0.2-0.25-0.65 0.35-1.05 0.55-0.35 0.75 0.25 0.25 0.65-0.3 1m0.4-2.2q-0.6 0.3-0.95-0.3-0.4-0.6 0.35-0.85 0.7-0.2 0.9 0.35 0.3 0.45-0.3 0.8m-0.55-5.5q0.4-0.2 0.75 0.25 0.3 0.45-0.2 0.65-0.6 0.2-0.75-0.25-0.2-0.5 0.2-0.65m-0.25 2.05q0.9-0.15 1.25 0.55 0.4 0.7-0.5 1.05-0.95 0.3-1.25-0.55-0.35-0.9 0.5-1.05m-2.15 13q-0.15-0.6 0.3-0.9 0.45-0.25 0.65 0.25 0.15 0.5-0.3 0.85t-0.65-0.2m0.5-2.05q-0.45-0.7 0.3-0.95t1 0.3q0.3 0.55-0.35 0.9-0.6 0.35-0.95-0.25" fill="#6a512a" fill-rule="evenodd"/>
<path d="m49.8 35.15q6.05 6.05 6.1 12.3 0.1 6.3-3.7 11.35t-11.7 4.7q-7.85-0.35-12.15-3-4.35-2.6-4.95-11.35-0.5-8.7 3.3-14.3 3.75-5.6 10.4-5.7 6.6-0.1 12.7 6" fill="#a28962" fill-rule="evenodd"/>
<path d="m49.8 35.15q6.05 6.05 6.1 12.3 0.1 6.3-3.7 11.35t-11.7 4.7q-7.85-0.35-12.15-3-4.35-2.6-4.95-11.35-0.5-8.7 3.3-14.3 3.75-5.6 10.4-5.7 6.6-0.1 12.7 6z" fill="none" stroke="#836a43" stroke-linecap="round" stroke-linejoin="round"/>
<path d="m24.7 30q1.05 0.2 2.05 0.7 3.9 1.85 1.4 9.5-2.45 7.55-5.05 13.2-1.4 3.05-2.95 4.05l-0.05 0.15q-0.2 0.95-1.05 1.55-1 0.65-2.4 0.4-1.45-0.25-2.4-1.2-0.9-1-0.4-2.15h-0.05q-0.55 0.85-1.45 1.1-1.15 0.3-2.4-0.5-1.3-0.85-1.9-2.25-0.25-0.65-0.2-1.15l-0.35 0.1 0.25-5.1 6.85-9.65 4.8-0.3-0.15-2.6 5.45-5.85m-10.9 26.2 0.2-0.4 0.7-1.3-0.7 1.3-0.15 0.3v0.1-0.1l0.15-0.3 0.7-1.3-0.7 1.3-0.2 0.4m-4.45-5.3-0.35 0.3-0.05 0.05-0.6 0.75-0.3 0.4-0.2 1 0.2-1 0.3-0.4 0.6-0.75 0.05-0.05 0.35-0.3" fill="#a28962" fill-rule="evenodd"/>
<path d="m7.5 53.5-0.2 0.1q-1.15 0.3-2.45-0.5-1.25-0.85-1.85-2.25-0.6-1.5 0.35-2.6l1.65-1.7 0.25-0.2q0.75-2.55 4.1-6.45 5.05-6 9.3-8.55 3.1-1.9 6.05-1.35l-5.45 5.85 0.15 2.6-4.8 0.3-6.85 9.65-0.25 5.1" fill="#907750" fill-rule="evenodd"/>
<path d="m24.7 30q1.05 0.2 2.05 0.7 3.9 1.85 1.4 9.5-2.45 7.55-5.05 13.2-1.4 3.05-2.95 4.05m-0.05 0.15q-0.2 0.95-1.05 1.55-1 0.65-2.4 0.4-1.45-0.25-2.4-1.2-0.9-1-0.4-2.15h-0.05q-0.55 0.85-1.45 1.1-1.15 0.3-2.4-0.5-1.3-0.85-1.9-2.25-0.25-0.65-0.2-1.15l-0.35 0.1-0.2 0.1q-1.15 0.3-2.45-0.5-1.25-0.85-1.85-2.25-0.6-1.5 0.35-2.6l1.65-1.7m0.25-0.2q0.75-2.55 4.1-6.45 5.05-6 9.3-8.55 3.1-1.9 6.05-1.35m-16.85 23.4 0.2-1 0.3-0.4 0.6-0.75 0.05-0.05 0.35-0.3m4.5 5.3v-0.1l0.15-0.3 0.7-1.3-0.7 1.3-0.2 0.4" fill="none" stroke="#594424" stroke-linecap="round" stroke-linejoin="round"/>
<path d="m35.2 19.6q11.75-1.2 21.35 7.6 0.5 18.15-11.25 27.75l-1.65-0.7-9.35-22.5 0.9-12.15" fill="#87603a" fill-rule="evenodd"/>
<path d="m43.65 54.25-7.9-3.35-5.8-10.2-4.8-0.75 1.55-3.95-7.3-3.35q1.1-5.05 5.65-10.25 5.25-2.25 10.15-2.8l-0.9 12.15 9.35 22.5" fill="#633c16" fill-rule="evenodd"/>
<path d="m35.75 50.9-5.45-2.4q-7.4-3.35-10.5-7.75-1.3-4.05-0.4-8.1l7.3 3.35-1.55 3.95 4.8 0.75 5.8 10.2" fill="#754e28" fill-rule="evenodd"/>
<path d="m31.6 19.9q0.3 0.55-0.1 1.05-0.45 0.5-1-0.15t0.2-1.05q0.65-0.4 0.9 0.15m1.85-0.15q0.25 0.4-0.15 0.6-0.45 0.15-0.75-0.2-0.4-0.4 0.15-0.55 0.45-0.25 0.75 0.15m1.85-0.3q0.3 0.5-0.15 0.9l-0.9-0.05q-0.4-0.55 0.15-0.9l0.9 0.05m0.6 0.3q-0.3-0.6 0.25-0.85 0.5-0.25 0.9 0.3 0.4 0.5-0.2 0.85-0.7 0.35-0.95-0.3m1.75-0.75q0.6-0.4 0.9 0.1 0.2 0.5-0.15 1-0.4 0.4-0.85-0.15-0.5-0.6 0.1-0.95m2.4 0.2q0.35-0.2 0.6 0.2 0.2 0.3-0.1 0.45-0.4 0.1-0.65-0.2-0.25-0.25 0.15-0.45m1.1 0.65q-0.25-0.3 0.1-0.6l0.55 0.1q0.2 0.3-0.1 0.6-0.35 0.2-0.55-0.1m3.3-0.1 0.05 0.1q0.65-0.4 0.95 0.2 0.25 0.55-0.15 1.1-0.4 0.5-0.95-0.15l-0.2-0.3q-0.65 0.35-0.95-0.3t0.25-0.9q0.55-0.3 1 0.25m10.85 5.45q0.25 0.35-0.15 0.7-0.4 0.25-0.7-0.1-0.3-0.4 0.15-0.7 0.4-0.35 0.7 0.1m-3.9-2.4q0.7-0.45 1 0.15 0.3 0.65-0.15 1.15-0.4 0.55-1-0.15-0.6-0.65 0.15-1.15m2 1.9q-0.45 0.15-0.7-0.2-0.3-0.35 0.1-0.55 0.45-0.2 0.7 0.2 0.3 0.4-0.1 0.55m-3.35-1.75q-0.65 0.3-0.85-0.25-0.2-0.3-0.1-0.5l-0.25 0.3q-0.4 0.25-0.65-0.1-0.3-0.4 0.1-0.7 0.45-0.35 0.7 0.1l0.1 0.35 0.3-0.3q0.55-0.3 0.9 0.25 0.35 0.5-0.25 0.85m5.95 3.95q-0.45 0.25-0.65-0.2-0.25-0.45 0.2-0.65 0.4-0.25 0.65 0.2 0.3 0.4-0.2 0.65m1 0.6q0.25 0.5-0.1 0.9-0.4 0.4-0.85-0.1-0.5-0.6 0.1-0.95t0.85 0.15m0.5 1.75q0.5 0.8-0.25 1.05-0.8 0.25-1.4-0.4-0.65-0.65 0.3-1 0.85-0.4 1.35 0.35m-0.75 2.15-0.45-0.05q-0.2-0.3 0.1-0.5l0.5 0.05q0.15 0.3-0.15 0.5m-0.4 2.9q0.25 0.5-0.1 1-0.4 0.4-0.85-0.2-0.55-0.55 0.1-0.9 0.6-0.4 0.85 0.1m0.25-0.65q-0.85 0.4-1.2-0.4-0.35-0.75 0.35-1.1 0.65-0.35 1.15 0.35 0.5 0.65-0.3 1.15m-0.35 3.65q-0.55 0.2-1-0.25t0.2-0.75q0.65-0.25 1 0.3 0.35 0.5-0.2 0.7m-1.05 0.8 0.75 0.05q0.25 0.4-0.15 0.7l-0.7-0.05q-0.35-0.4 0.1-0.7m-8.95-16.85q-0.4-0.5 0.2-0.75 0.65-0.3 1 0.25 0.35 0.5-0.2 0.7t-1-0.2m-4.35 31.7q0.55-0.25 1 0.3 0.4 0.55-0.25 0.95-0.7 0.3-1-0.35-0.3-0.6 0.25-0.9m-2.3 0.2q-0.55-0.6 0.15-1 0.65-0.45 0.95 0.1 0.25 0.55-0.1 1.05-0.45 0.5-1-0.15m-0.3-1.55q0.45 0.65-0.25 0.95-0.7 0.2-1.25-0.4-0.55-0.55 0.25-0.9 0.8-0.4 1.25 0.35m-3.55 0q-0.8 0.45-1.15-0.3t0.35-1.1q0.6-0.3 1.1 0.35 0.45 0.65-0.3 1.05m1.55 0-0.6-0.1q-0.2-0.3 0.15-0.6l0.55 0.1q0.2 0.3-0.1 0.6m11.35 0.2q-0.3-0.4 0.15-0.75 0.4-0.3 0.6 0.1 0.25 0.4-0.1 0.65-0.4 0.35-0.65 0m-1.6 2.3q-0.35 0.4-0.85-0.1-0.45-0.6 0.15-0.95t0.8 0.15q0.25 0.45-0.1 0.9m0.6-1.9q0.5-0.25 0.85 0.3 0.35 0.5-0.25 0.8-0.6 0.35-0.85-0.2-0.3-0.6 0.25-0.9m-3.7 1.9-0.05 0.4-0.4-0.05q-0.15-0.2 0.1-0.4l0.35 0.05m0.85 1q-0.45-0.5 0.2-0.75 0.65-0.3 1 0.25t-0.2 0.75-1-0.25m4.85-6.1q0.7-0.3 1.1 0.3t-0.25 0.8q-0.6 0.2-1.05-0.3t0.2-0.8m5-8.35q-0.3-0.6 0.25-0.85 0.5-0.3 0.85 0.25 0.4 0.5-0.2 0.85-0.65 0.3-0.9-0.25m0.2 1q0.25 0.45-0.1 0.9-0.35 0.4-0.85-0.1-0.45-0.6 0.15-0.95 0.6-0.4 0.8 0.15m-0.2 2.45q-0.6 0.2-1-0.25-0.45-0.5 0.2-0.75 0.6-0.3 0.95 0.25 0.4 0.55-0.15 0.75m-2.25 1.7q-0.45-0.55 0.15-0.95l0.95 0.05q0.3 0.55-0.2 1l-0.35 0.2 0.2 0.25q0.45 0.55-0.25 0.95-0.7 0.35-1-0.25-0.3-0.7 0.3-1l0.35-0.05-0.15-0.2m-0.75 2.75q-0.4 0.4-0.85-0.15t0.1-0.9q0.6-0.4 0.85 0.15 0.25 0.45-0.1 0.9m-25.2-25.9q-0.65 0.2-1.15-0.3-0.45-0.5 0.25-0.85 0.65-0.3 1.1 0.35 0.45 0.55-0.2 0.8m0.7-1q-0.35-0.4 0.15-0.75 0.45-0.35 0.7 0.1 0.25 0.4-0.15 0.7l-0.7-0.05m1.5-0.6q-0.2-0.55 0.25-0.75 0.45-0.25 0.8 0.2t-0.2 0.75q-0.6 0.35-0.85-0.2m-5.8 3.65q-0.3-0.6 0.25-0.85 0.5-0.3 0.85 0.25t-0.2 0.85q-0.65 0.3-0.9-0.25m1.35-1.25q-0.4-0.5 0.1-0.75l0.65 0.05-0.05 0.75-0.7-0.05m-4.1 6.05q-0.5-0.55 0.1-0.95 0.6-0.35 0.9 0.15 0.2 0.5-0.15 1-0.4 0.4-0.85-0.2m0.7-1.95q-0.4-0.5 0.2-0.75 0.65-0.3 1 0.25t-0.2 0.75-1-0.25m1.35-1.3q-0.25-0.4 0.15-0.7l0.65 0.05q0.25 0.4-0.15 0.7l-0.65-0.05m-1.75 4.85q-0.6 0.3-0.85-0.25-0.3-0.6 0.25-0.85 0.5-0.3 0.85 0.25t-0.25 0.85m-0.4 1q0.2 0.4-0.15 0.65l-0.65-0.05q-0.3-0.4 0.15-0.7 0.4-0.3 0.65 0.1m-1.35 2.35q-0.45-0.45 0.2-0.75 0.6-0.25 0.95 0.3 0.4 0.5-0.15 0.7-0.6 0.2-1-0.25m1.2 5q0.3 0.45-0.05 0.8 0.4-0.05 0.7 0.35 0.35 0.5-0.15 0.7-0.55 0.2-0.95-0.25-0.35-0.3-0.1-0.55l-0.4-0.3q-0.4-0.45 0.15-0.85 0.55-0.45 0.8 0.1m-0.9-1.9q-0.25-0.5 0.2-0.75 0.45-0.2 0.8 0.25 0.3 0.45-0.25 0.75-0.5 0.3-0.75-0.25m-0.8-1.1q-0.65-0.8 0.2-1.35 0.8-0.5 1.1 0.2 0.35 0.7-0.1 1.3-0.5 0.6-1.2-0.15m9.65 10.4q0.7-0.35 1.2 0.35t-0.35 1.15q-0.8 0.45-1.2-0.35l-0.1-0.3q-0.4 0.4-1-0.2-0.55-0.7 0.2-1.15 0.7-0.5 1 0.15l0.15 0.4 0.1-0.05m6 2.7q0.25 0.5-0.15 0.95-0.35 0.45-0.85-0.15l-0.25-0.45q-0.75 0.3-1.35-0.35-0.6-0.6 0.25-1 0.85-0.35 1.35 0.4l0.2 0.4q0.55-0.3 0.8 0.2m-2.95-1.3q0.2 0.45-0.15 0.75l-0.75-0.05q-0.35-0.45 0.15-0.8 0.45-0.35 0.75 0.1m-6.35-3.65q0.25 0.4-0.15 0.7l-0.65-0.05q-0.3-0.4 0.1-0.75 0.45-0.35 0.7 0.1m-2.45-0.25q-0.2-0.5 0.25-0.75t0.8 0.25q0.35 0.45-0.2 0.75-0.6 0.3-0.85-0.25m-1.3-1.05q-0.5-0.6 0.15-0.95 0.6-0.4 0.85 0.1 0.25 0.55-0.1 1-0.4 0.45-0.9-0.15m3.9 3q-0.55-0.6 0.25-0.95t1.3 0.35q0.4 0.65-0.3 0.95-0.7 0.25-1.25-0.35" fill="#68411b" fill-rule="evenodd"/>
<path d="m41.9 62.4q-0.95-2.65-3.25-4.75-1.6-1.45-3.5-2.25-2.25-0.95-4.9-0.95l-0.95 0.05 1.2-3.65q7.8-1.1 11.5 11.3l-0.1 0.25" fill="#a28962" fill-rule="evenodd"/>
<path d="m29.3 54.5 0.95-0.05q2.65 0 4.9 0.95 1.9 0.8 3.5 2.25 2.3 2.1 3.25 4.75 0.5 1.4 0.55 3.05 0.2 4.55-3.2 7.8-3.3 3.25-8.2 3.25-4.85 0-8.45-3.2l-0.6-0.6q-1.5-1.55-2.25-3.35-0.8-1.8-0.9-3.85-0.15-3.05 1.3-5.45 0.7-1.25 1.85-2.35 3-2.9 7.3-3.2" fill="#7e653e" fill-rule="evenodd"/>
<path d="m30.5 50.85-1.2 3.65q-4.3 0.3-7.3 3.2-1.15 1.1-1.85 2.35 1-2.65 3.55-6.2 3.7-2.55 6.8-3" fill="#907750" fill-rule="evenodd"/>
<path d="m29.3 54.5 0.95-0.05q2.65 0 4.9 0.95 1.9 0.8 3.5 2.25 2.3 2.1 3.25 4.75m0.1-0.25q-3.7-12.4-11.5-11.3m-1.2 3.65q-4.3 0.3-7.3 3.2-1.15 1.1-1.85 2.35-1.45 2.4-1.3 5.45 0.1 2.05 0.9 3.85 0.75 1.8 2.25 3.35l0.6 0.6q3.6 3.2 8.45 3.2 4.9 0 8.2-3.25 3.4-3.25 3.2-7.8-0.05-1.65-0.55-3.05m-21.75-2.35q1-2.65 3.55-6.2 3.7-2.55 6.8-3" fill="none" stroke="#594424" stroke-linecap="round" stroke-linejoin="round"/>
<path d="m21.8 58.8q0.45 0.75-0.25 1.2-0.65 0.4-1.1-0.15t0.25-1.15q0.65-0.65 1.1 0.1m-0.1-0.55q-0.25-0.4 0.15-0.65 0.4-0.3 0.65 0.15 0.3 0.4-0.15 0.65-0.4 0.3-0.65-0.15m-1.4 3.15q-0.5 0.4-0.75-0.1-0.3-0.5 0.25-0.7l0.75 0.1q0.25 0.3-0.25 0.7m-1.2 2.6q0.35 0.55-0.2 0.9t-0.85-0.2 0.2-0.9q0.45-0.35 0.85 0.2m-0.25-1.2q-0.35-0.6 0.2-1 0.6-0.4 0.95 0.15t-0.25 1-0.9-0.15m0.4 3.6-0.9-0.05q-0.35-0.45 0.2-0.9 0.5-0.5 0.85 0.1 0.3 0.55-0.15 0.85m0 2.05q-0.45 0.3-0.6-0.1-0.2-0.35 0.2-0.5l0.6 0.05q0.2 0.25-0.2 0.55m3.15 5.2q-0.25-0.55 0.3-0.75l0.8 0.05q0.25 0.4-0.3 0.75l-0.8-0.05m-1.4-1.05q-0.35-0.5 0.2-1t0.9 0.1q0.35 0.65-0.15 1l-0.95-0.1m-0.85-2.55q-0.5 0.3-0.75-0.15-0.3-0.5 0.2-0.8l0.75 0.1q0.25 0.45-0.2 0.85m0.25 1.4q-0.45 0.2-0.7-0.2t0.1-0.7q0.4-0.25 0.7 0.15 0.25 0.45-0.1 0.75" fill="#6a512a" fill-rule="evenodd"/>
<path d="m43.7 16.45q3-0.95 8.1 0 5.25 1.5 4 2.75l-8.05 7.2q2.35-0.35 6.25 1.2 4.05 2.05 3 2.9l-6.95 4.95-2.35-9.05-0.3 0.25-3.7-10.2" fill="#a28962" fill-rule="evenodd"/>
<path d="m50.05 35.45 6.95-4.95q1.05-0.85-3-2.9-3.9-1.55-6.25-1.2l8.05-7.2q1.25-1.25-4-2.75-5.1-0.95-8.1 0m3.7 10.2 0.3-0.25" fill="none" stroke="#594424" stroke-linecap="round" stroke-linejoin="round"/>
<path d="m39.45 16.35q2.45-7.2 4.05-8.45t2.6-1.35q0.95-0.15 2.1 3.45 1 4.5 0.35 7.6l-2.25-0.3q1-4.55-1-8.35-3.95 2.65-4.3 7.6l-1.55-0.2" fill="#a28962" fill-rule="evenodd"/>
<path d="m46.3 17.3-5.3-0.75q0.35-4.95 4.3-7.6 2 3.8 1 8.35" fill="#907750" fill-rule="evenodd"/>
<path d="m39.45 16.35q2.45-7.2 4.05-8.45t2.6-1.35q0.95-0.15 2.1 3.45 1 4.5 0.35 7.6" fill="none" stroke="#594424" stroke-linecap="round" stroke-linejoin="round"/>
<path d="m58.6 49.05q-1.8 4.25-2.05 8-7.6 3.45-15.25 2.85 1.15-3.55 1.9-8.2l8.85-0.8 6.55-1.85" fill="#a28962" fill-rule="evenodd"/>
<path d="m50.15 41.85 2.9-0.3 5.55 7.5-6.55 1.85q1.45-4.5-1.9-9.05" fill="#943622" fill-rule="evenodd"/>
<path d="m37.05 42.25 13.1-0.4q3.35 4.55 1.9 9.05l-8.85 0.8-6.15-9.45" fill="#c6482d" fill-rule="evenodd"/>
<path d="m41.3 59.9q-2.2-5.7-4.65-9.3l0.4-8.35 6.15 9.45q-0.75 4.65-1.9 8.2" fill="#907750" fill-rule="evenodd"/>
<path d="m52.05 50.9q1.45-4.5-1.9-9.05" fill="none" stroke="#751703" stroke-linecap="round" stroke-linejoin="round"/>
<path d="m41.3 59.9q-2.2-5.7-4.65-9.3l0.4-8.35m6.15 9.45-6.15-9.45" fill="none" stroke="#594424" stroke-linecap="round" stroke-linejoin="round"/>
<path d="m53.05 41.55 5.55 7.5q-1.8 4.25-2.05 8-7.6 3.45-15.25 2.85m10.75-9 6.55-1.85m-15.4 2.65 8.85-0.8z" fill="none" stroke="#594424" stroke-linecap="round" stroke-linejoin="round"/>
<path d="m41.4 47.6-3.3-25.95 3.85 0.1 17.35 8.5q1.75 7.55-1.2 14.7-7.05 2.75-16.7 2.65" fill="#a28962" fill-rule="evenodd"/>
<path d="m38.1 21.65 3.3 25.95-6.1-6.2-2.05-10.8-3.2-5.25 2.8-4.05 5.25 0.35" fill="#907750" fill-rule="evenodd"/>
<path d="m41.4 47.6q9.65 0.1 16.7-2.65" fill="none" stroke="#594424" stroke-linecap="round" stroke-linejoin="round"/>
<path d="m58.1 44.95q2.95-7.15 1.2-14.7m-26.05 0.35 2.05 10.8 6.1 6.2z" fill="none" stroke="#594424" stroke-linecap="round" stroke-linejoin="round"/>
<path d="m30.95 16.75q2.9-1.55 7.5-0.55l10.8 2.6q0.2 5 1.85 7.8l-17 2.35-5.75-5.75q-0.1-3.85 2.6-6.45" fill="#a28962" fill-rule="evenodd"/>
<path d="m30.95 16.75q2.9-1.55 7.5-0.55l10.8 2.6" fill="none" stroke="#594424" stroke-linecap="round" stroke-linejoin="round"/>
<path d="m49.25 18.8q0.2 5 1.85 7.8m-22.75-3.4q-0.1-3.85 2.6-6.45z" fill="none" stroke="#594424" stroke-linecap="round" stroke-linejoin="round"/>
<path d="m34.3 33.85-9.2 0.95q-0.85 0.1-0.7-1.65 0.2-1.8 1.65-3.4 3.15-3 5.75-4.1l-12.25-0.15q-1.85-0.15 2.75-3.9 4.75-3.4 8.3-4.35l1.7 8.4h-0.45l2.45 8.2" fill="#a28962" fill-rule="evenodd"/>
<path d="m34.3 33.85-9.2 0.95q-0.85 0.1-0.7-1.65 0.2-1.8 1.65-3.4 3.15-3 5.75-4.1l-12.25-0.15q-1.85-0.15 2.75-3.9 4.75-3.4 8.3-4.35m1.7 8.4h-0.45" fill="none" stroke="#594424" stroke-linecap="round" stroke-linejoin="round"/>
<path d="m29.7 21.1q0.6-10.55 1.85-12 1.2-1.5 2.4-0.7 1.1 0.8 2.5 2.45 2.6 3.95 2.9 7.05l-2.85 0.95q0.55-5.2-3.6-8.3-2.6 5.1-1.5 9.95l-1.7 0.6" fill="#a28962" fill-rule="evenodd"/>
<path d="m36.5 18.85-5.1 1.65q-1.1-4.85 1.5-9.95 4.15 3.1 3.6 8.3" fill="#907750" fill-rule="evenodd"/>
<path d="m29.7 21.1q0.6-10.55 1.85-12 1.2-1.5 2.4-0.7 1.1 0.8 2.5 2.45 2.6 3.95 2.9 7.05" fill="none" stroke="#594424" stroke-linecap="round" stroke-linejoin="round"/>
<path d="m41.1 27.3q-3.85-1.55-2.1-5.1l0.1-0.1q2.25-0.8 3.7 0.9 0.95 1.4 0.4 2.8-0.95 1.25-2.1 1.5" fill="#ffcd12" fill-rule="evenodd"/>
<path d="m39 22.2q-1.75 3.55 2.1 5.1-1.5 0.25-3.4-0.9-1.4-2.45 1.3-4.2" fill="#edbb00" fill-rule="evenodd"/>
<path d="m48.95 25.55q-3.2-0.9-2.1-3.35h0.05q2.1-0.55 3.5 0.6 1.05 0.9 0.55 1.85-0.8 0.8-2 0.9" fill="#ffcd12" fill-rule="evenodd"/>
<path d="m46.85 22.2q-1.1 2.45 2.1 3.35-1.35 0.2-3.25-0.6-1.45-1.6 1.15-2.75" fill="#edbb00" fill-rule="evenodd"/>
<path d="m43.05 27.15 7.45-1.25q4.35 0 9.1 2.35-6.2-0.6-12.6 2.1l-4.95-1.45 1-1.75" fill="#a28962" fill-rule="evenodd"/>
<path d="m47 30.35q6.4-2.7 12.6-2.1-0.35 2.55-1.45 5l-2.25-0.5-1.6 2.9 0.5 2.25-2.95 0.55 0.6-2.8-2.45-2.05-1.75 2.4q-2.1-2.65-1.25-5.65" fill="#6c532c" fill-rule="evenodd"/>
<path d="m42.05 28.9 4.95 1.45q-0.85 3 1.25 5.65l1.35 2.9q-5.3-3-8.45-8.25l0.9-1.75" fill="#907750" fill-rule="evenodd"/>
<path d="m58.15 33.25q-1.15 2.4-2.9 4.65h-0.45l-0.5-2.25 1.6-2.9 2.25 0.5m-6.3 5.2-2.25 0.45-1.35-2.9 1.75-2.4 2.45 2.05-0.6 2.8" fill="#482f08" fill-rule="evenodd"/>
<path d="m59.6 28.25q-0.35 2.55-1.45 5" fill="none" stroke="#594424" stroke-linecap="round" stroke-linejoin="round"/>
<path d="m59.6 28.25q-4.75-2.35-9.1-2.35l-7.45 1.25m6.55 11.75q-5.3-3-8.45-8.25" fill="none" stroke="#594424" stroke-linecap="round" stroke-linejoin="round"/>
<path d="m44.9 18.8q0.4-2.3 3-4.35 0.9 0.3 1.7 1.35 1.3 2.05 1.1 3.5l-5.8-0.5" fill="#a28962" fill-rule="evenodd"/>
<path d="m47.9 14.45q-2.6 2.05-3 4.35l-1.65-0.2q0.4-3.25 2.85-4.15 0.9-0.35 1.8 0" fill="#907750" fill-rule="evenodd"/>
<path d="m47.9 14.45q-0.9-0.35-1.8 0-2.45 0.9-2.85 4.15m7.45 0.7q0.2-1.45-1.1-3.5-0.8-1.05-1.7-1.35z" fill="none" stroke="#594424" stroke-linecap="round" stroke-linejoin="round"/>
<path d="m42 15.25 0.3 0.2q1.6 1.6 1.3 3.2l-6.7 1.7 1.45-2.25 3.65-2.85" fill="#a28962" fill-rule="evenodd"/>
<path d="m36.9 20.35-3.1 0.75q0.6-3.6 3.85-5.6 2.35-1.4 4.35-0.25l-3.65 2.85-1.45 2.25" fill="#907750" fill-rule="evenodd"/>
<path d="m42 15.25 0.3 0.2q1.6 1.6 1.3 3.2m-9.8 2.45q0.6-3.6 3.85-5.6 2.35-1.4 4.35-0.25z" fill="none" stroke="#594424" stroke-linecap="round" stroke-linejoin="round"/>
<path d="m49.25 60.7q-0.5-0.55 0-0.95l0.85 0.05q0.3 0.5-0.05 0.95l-0.8-0.05m1.6-0.5q-0.35-0.45-0.05-0.7l0.65-0.05q0.25 0.25 0.05 0.7l-0.65 0.05m0.95-0.55q-0.4-0.3-0.05-0.55l0.65-0.05q0.35 0.2 0.05 0.55l-0.65 0.05m1.4-0.35q-0.35-0.25-0.05-0.6l0.6-0.05q0.25 0.4 0 0.65-0.2 0.3-0.55 0m3.1-1.65q0.25 0.15 0.05 0.5-0.2 0.3-0.4 0-0.35-0.3-0.05-0.45l0.4-0.05m-1.25 0.35q0.3 0.5 0 0.85l-0.8-0.05q-0.4-0.45 0-0.85l0.8 0.05m-8.25 1.95 0.6-0.05q0.25 0.2 0 0.45h-0.5q-0.35-0.2-0.1-0.4m1.35-0.25 0.6-0.05q0.35 0.4 0.15 0.7-0.25 0.3-0.6 0-0.4-0.3-0.15-0.65" fill="#6a512a" fill-rule="evenodd"/>
<path d="m46.6 30.1q0.05 0.7-0.45 0.8-0.55 0.1-0.5-0.5 0.1-0.55 0.55-0.75 0.4-0.2 0.4 0.45m-1.2-0.4q0 0.55-0.4 0.6l-0.35-0.3q0-0.35 0.35-0.65 0.4-0.25 0.4 0.35m-0.85-0.05q0.1 0.4-0.25 0.5-0.35 0-0.4-0.35-0.15-0.4 0.2-0.5 0.35-0.05 0.45 0.35m-1-0.5q0.05 0.45-0.3 0.6t-0.35-0.4q0-0.45 0.25-0.5 0.35-0.1 0.4 0.3m-2.8-0.3q0-0.3 0.3-0.4 0.25-0.2 0.25 0.2l-0.25 0.4-0.3-0.2m1 0.35q0.05-0.55 0.45-0.65 0.4-0.15 0.4 0.45 0.05 0.55-0.45 0.7-0.5 0.1-0.4-0.5m5.9 2.85q-0.3 0.05-0.35-0.25-0.1-0.3 0.2-0.4l0.35 0.25-0.2 0.4m-0.95-0.55q-0.35 0.2-0.3-0.3-0.05-0.45 0.25-0.55 0.3-0.15 0.4 0.3l-0.35 0.55" fill="#6a512a" fill-rule="evenodd"/>
<path d="m49 8.4q-0.65-0.1-0.75 0.65-0.15 0.7 0.45 0.65 0.6-0.1 0.75-0.65 0.2-0.55-0.45-0.65m0.4 1.65q-0.55 0.05-0.6 0.5t0.3 0.5 0.55-0.45q0.3-0.45-0.25-0.55m0 1.2q-0.35-0.2-0.45 0.25-0.05 0.45 0.3 0.65 0.4 0.1 0.45-0.35 0.1-0.4-0.3-0.55m0.5 1.35q-0.45-0.1-0.6 0.35t0.35 0.45q0.4 0.05 0.55-0.35 0.05-0.3-0.3-0.45m0.2 3.65 0.45-0.3q0.1-0.35-0.25-0.35-0.35-0.05-0.35 0.3-0.1 0.35 0.15 0.35m-0.3-1.25q0.5-0.1 0.65-0.6 0.15-0.55-0.4-0.6-0.6 0-0.7 0.6-0.1 0.65 0.45 0.6m-2.65-8.05q0 0.35 0.3 0.5l0.3-0.3-0.2-0.5q-0.35-0.1-0.4 0.3m0.5 1.25q-0.15 0.5 0.3 0.55 0.45 0 0.55-0.4 0.15-0.4-0.3-0.55-0.4-0.1-0.55 0.4" fill="#6a512a" fill-rule="evenodd"/>
<path d="m35.3 8q-0.65 0.15-0.4 0.85 0.2 0.7 0.65 0.4 0.5-0.3 0.4-0.9 0-0.6-0.65-0.35m1.05 1.3q-0.5 0.25-0.35 0.7l0.5 0.3 0.35-0.6q0.05-0.55-0.5-0.4m0.45 1.05q-0.4 0-0.25 0.45 0.1 0.45 0.55 0.45 0.4-0.05 0.25-0.5-0.1-0.4-0.55-0.4m1.05 1q-0.45 0.1-0.35 0.6 0.05 0.5 0.45 0.3 0.45-0.15 0.35-0.55-0.05-0.35-0.45-0.35m1.75 3.3 0.2-0.45q0-0.4-0.3-0.25-0.4 0.15-0.25 0.45l0.35 0.25m-0.85-1.05q0.45-0.25 0.4-0.8-0.1-0.5-0.65-0.35-0.55 0.2-0.4 0.85t0.65 0.3m-5.7-6.25 0.4 0.35 0.25-0.35q-0.15-0.35-0.45-0.35t-0.2 0.35m0.95 1q0.05 0.5 0.5 0.35 0.4-0.2 0.35-0.55-0.05-0.45-0.5-0.4-0.45 0.1-0.35 0.6" fill="#6a512a" fill-rule="evenodd"/>
<path d="m20.8 21.8q0.1 0.7 0.75 0.6 0.75-0.05 0.5-0.6-0.2-0.5-0.8-0.55-0.55-0.05-0.45 0.55m1.5-0.75q0.15 0.5 0.6 0.45 0.45-0.1 0.4-0.45 0-0.3-0.55-0.4-0.5-0.15-0.45 0.4m1.1-0.3q-0.05 0.4 0.4 0.35t0.5-0.45-0.4-0.35-0.5 0.45m1.2-0.8q0 0.4 0.5 0.4 0.45 0.05 0.4-0.4-0.15-0.4-0.5-0.4-0.4 0-0.4 0.4m3.5-1.15-0.4-0.35q-0.35-0.05-0.3 0.3 0 0.4 0.4 0.3l0.3-0.25m-1.15 0.65q-0.2-0.5-0.8-0.55-0.5 0-0.4 0.6 0.1 0.55 0.75 0.55 0.65-0.1 0.45-0.6m-7.15 4.5 0.4-0.3q0.05-0.4-0.3-0.35t-0.45 0.4q0 0.3 0.35 0.25m1.1-0.75q0.55 0.05 0.45-0.4t-0.55-0.5q-0.35 0-0.4 0.45 0 0.4 0.5 0.45" fill="#6a512a" fill-rule="evenodd"/>
<path d="m24.7 29.5q0.45 1.1 1.1 1.05 0.85 0 0.3-0.9-0.45-0.9-1.15-1-0.65-0.15-0.25 0.85m1.3-1.05q0.35 0.85 0.85 0.8 0.45-0.05 0.25-0.6t-0.85-0.8q-0.6-0.25-0.25 0.6m1.05-0.35q0.15 0.65 0.6 0.65t0.35-0.65q-0.15-0.65-0.65-0.65-0.45 0.05-0.3 0.65m0.95-1.1q0.2 0.65 0.75 0.75 0.55 0.15 0.25-0.6-0.3-0.7-0.75-0.75t-0.25 0.6m3.3-1.4-0.65-0.55q-0.4-0.15-0.2 0.4 0.25 0.65 0.65 0.55 0.35 0.05 0.2-0.4m-1 0.9q-0.4-0.8-1.05-0.9-0.55-0.1-0.25 0.8 0.4 0.95 1.1 0.95t0.2-0.85m-5.7 6.35q0.45-0.05 0.35-0.6-0.15-0.5-0.55-0.5-0.35 0.05-0.3 0.55 0.15 0.55 0.5 0.55m0.85-1.1q0.65 0.1 0.3-0.6l-0.75-0.85q-0.5-0.05-0.3 0.6 0.2 0.7 0.75 0.85" fill="#6a512a" fill-rule="evenodd"/>
<path d="m39.55 43.75q1.05 0.5 1.45-0.4 0.4-1-0.55-1.25-0.9-0.25-1.4 0.45-0.5 0.65 0.5 1.2m-0.05-2.65q0.85 0.35 1.1-0.3 0.3-0.6-0.3-0.9-0.5-0.3-1.05 0.2-0.55 0.55 0.25 1m0.4-1.65q0.5 0.5 0.8-0.15 0.3-0.6-0.3-1.05-0.5-0.4-0.8 0.15-0.25 0.55 0.3 1.05m-0.3-2.25q0.6 0.4 1-0.15 0.4-0.6-0.3-0.9t-0.95 0.2q-0.3 0.4 0.25 0.85m0.9-5.4q-0.4-0.25-0.75 0.15t0.15 0.7q0.6 0.3 0.8-0.2 0.15-0.45-0.2-0.65m0.15 2.05q-0.85-0.25-1.35 0.4-0.35 0.6 0.5 1.1 0.9 0.45 1.3-0.4t-0.45-1.1m1.3 13.2q0.25-0.55-0.25-0.9-0.45-0.35-0.65 0.15-0.15 0.45 0.25 0.8l0.65-0.05m-0.35-2.15q0.5-0.6-0.25-0.9-0.75-0.35-1.05 0.15-0.3 0.45 0.25 0.9 0.7 0.45 1.05-0.15" fill="#6a512a" fill-rule="evenodd"/>
<path d="m60.15 42.4q-0.65 0.25-0.85-0.35-0.2-0.65 0.4-0.75 0.65-0.1 0.85 0.4 0.3 0.5-0.4 0.7m0.25-1.65q-0.55 0.15-0.7-0.25t0.25-0.6q0.4-0.15 0.7 0.25 0.3 0.35-0.25 0.6m-0.15-1.1q-0.35 0.25-0.5-0.1-0.1-0.45 0.25-0.7 0.4-0.2 0.5 0.2 0.15 0.35-0.25 0.6m0.35-1.35q-0.4 0.2-0.65-0.2-0.2-0.45 0.3-0.6 0.4-0.1 0.55 0.25 0.2 0.3-0.2 0.55m-0.25-3.55q0.3-0.15 0.5 0.15l-0.15 0.45q-0.4 0.15-0.5-0.2-0.1-0.3 0.15-0.4m-0.2 1.3q0.55-0.1 0.8 0.35t-0.35 0.65q-0.65 0.25-0.8-0.35-0.2-0.55 0.35-0.65m-1.7 8.25q-0.1-0.35 0.25-0.55 0.3-0.15 0.4 0.2l-0.2 0.45q-0.3 0.25-0.45-0.1m0.35-1.3q-0.25-0.4 0.25-0.55 0.45-0.2 0.65 0.15 0.2 0.3-0.25 0.55-0.4 0.25-0.65-0.15" fill="#6a512a" fill-rule="evenodd"/>
<path d="m41.8 58.25q0.35-0.25 0.7 0.25 0.35 0.4-0.2 0.7-0.6 0.25-0.75-0.25t0.25-0.7m1.8-5.95q-0.65 0.25-0.85-0.3-0.15-0.55 0.3-0.75 0.4-0.25 0.75 0.25t-0.2 0.8m-0.05 1.1q0.6 0.7-0.2 1.2-0.9 0.4-1.25-0.3-0.4-0.7 0.2-1.15t1.25 0.25m-1.45 4.55q-0.75-0.75 0.2-1.2 0.9-0.45 1.3 0.3 0.35 0.75-0.25 1.25-0.6 0.4-1.25-0.35m0.1-2.05q-0.35-0.55 0.25-0.85 0.55-0.3 0.95 0.2 0.35 0.5-0.25 0.85-0.65 0.35-0.95-0.2" fill="#6a512a" fill-rule="evenodd"/>
<path d="m23.65 23-0.6-0.05q-0.4 0.1-0.65 0.45t-0.15 0.8q0.05 0.4 0.4 0.6l0.75 0.1 0.65-0.45 0.15-0.8-0.4-0.6v-0.1l-0.15 0.05m-4.85-0.35 1.45-1.55 5.9-0.7 0.9 5.75q-4.15 4.75-7.05 11.5-2.85-3.25-1.2-15" fill="#e6cfbc" fill-rule="evenodd"/>
<path d="m18.8 22.65q-1.65 11.75 1.2 15l-0.15 0.3q-4.25-0.5-7.1-4.35 2.15-6.5 6.05-10.95" fill="#d1baa7" fill-rule="evenodd"/>
<path d="m23.65 23-0.6-0.05q-0.4 0.1-0.65 0.45t-0.15 0.8q0.05 0.4 0.4 0.6l0.75 0.1 0.65-0.45 0.15-0.8-0.4-0.6-0.15-0.05" fill="none" stroke="#b7b7b0" stroke-linecap="round" stroke-linejoin="round" stroke-width=".05"/>
<path d="m20 37.65q2.9-6.75 7.05-11.5l-0.9-5.75-5.9 0.7-1.45 1.55m1.2 15-0.15 0.3q-4.25-0.5-7.1-4.35 2.15-6.5 6.05-10.95" fill="none" stroke="#9e8774" stroke-linecap="round" stroke-linejoin="round"/>
<path d="m28.55 17.05-1.15 0.4q-2.2 0.8-3.3 2.5-1.15 1.7-0.8 2.95 0.3 1.15 1.8 1 1.45-0.2 3.2-1.6l3.25-3.15q1.55-1.75 1.8-2.75 0.2-1-1.8-0.35" fill="none" stroke="#fff" stroke-linecap="round" stroke-linejoin="round" stroke-width=".05"/>
<path d="m20.55 24.7q0.05 0.65-0.65 0.3l-0.3-0.35 0.1-0.5q0.65-0.2 0.85 0.55m0.45 0.2q1.1-1.05 2.65-0.25l0.6 0.6q0.35 0.7-0.4 0.65l-0.15-0.15q-0.15-0.9-1.2-0.75-0.6 0.05-1 0.4l-0.4-0.15q-0.25-0.15-0.1-0.35m-3.1 6.4v0.05l1.05 0.05q0.05-0.3 0.45-0.4 0.15-0.1 0.3 0.1 0.3 0.45-0.2 0.85l-0.5 0.15 0.35 0.3-0.2 0.45h-0.2q-0.95-0.75-1.9-1.2-0.6-0.3-0.45-0.75 0.65-0.15 1.3 0.4m-1.25 1.3q0.6-0.25 0.6 0.35l-0.1 0.3-0.7-0.05v-0.25l0.2-0.35m-1.6 1.45q0.55-0.2 1.15 0.25l0.5 0.3 0.55 0.25q0.05-0.45 0.35-0.4l0.35 0.2 0.1 0.2q0.3 0.45 0.05 0.8h-0.35l-0.9-0.3-0.8-0.3q-0.7-0.3-1.05-0.85-0.05-0.1 0.05-0.15m3.35-0.55q0 0.45-0.35 0.45l-0.35-0.05-0.15-0.2 0.3-0.65q0.65-0.3 0.6 0.3l-0.05 0.15m1.55-6.9 0.05-0.1q0.25-0.5 0.7-0.7l0.45 0.15 0.05 0.3-0.2 0.3 0.7 0.15h0.05l1.15-0.05 0.1 0.2-0.65 0.3q0.55 0.8-0.3 1.05h-0.2q-0.6-0.3-0.45-0.95l-1.85-0.05-0.2-0.1v-0.3l0.6-0.2m-0.85 1-0.2 0.1 0.15 0.1v0.25l-0.55 0.2q-0.6 0.35-0.7-0.25v-0.2l0.4-0.2-0.05-0.1v-0.15l0.05-0.1q0.65-0.45 0.95 0.2l-0.05 0.15m-1.65 1.65q-0.2-0.15-0.1-0.25v-0.15h0.6v-0.25q0.65-0.25 0.75 0.35l-0.05 0.1 0.15 0.05 0.1-0.35q0.6-0.25 0.65 0.35v0.05l0.9-0.05 0.15 0.05 0.05 0.05q0.65 0.2 0.45 0.85-0.3 0.7-1.05 0.25l-0.35-0.5-0.2 0.05-0.7 0.45-0.2-0.1-0.05-0.5h-0.05l-0.4 0.3-0.2-0.05q-0.3-0.25-0.2-0.55l-0.25-0.15" fill="#5a4230" fill-rule="evenodd"/>
</g>
</defs>
</svg>
