<?xml version="1.0" encoding="UTF-8" standalone="no"?>
<svg xmlns:ffdec="https://www.free-decompiler.com/flash" xmlns:xlink="http://www.w3.org/1999/xlink" ffdec:objectType="shape" height="40.2px" width="68.85px" xmlns="http://www.w3.org/2000/svg">
  <g transform="matrix(3.0, 0.0, 0.0, 3.0, -785.1, -546.9)">
    <path d="M267.35 186.35 Q266.55 186.35 265.7 186.95 264.75 187.6 264.2 187.65 263.2 187.7 262.8 187.3 262.4 186.85 261.7 185.1 262.9 184.45 264.4 184.5 265.25 184.75 267.4 186.3 L267.45 186.35 267.35 186.35 M272.55 185.7 L273.95 185.2 274.7 185.0 277.05 184.3 283.15 183.45 Q283.4 184.0 283.05 184.2 L280.5 184.8 276.7 185.2 275.0 185.35 274.85 185.4 274.7 185.4 274.15 185.45 272.55 185.7 M274.75 186.75 L275.65 186.7 279.85 186.6 Q282.55 187.3 284.65 188.5 L282.0 190.05 279.3 189.7 Q278.25 189.4 276.75 188.3 L276.15 187.9 275.75 187.65 274.85 187.2 274.3 187.0 273.7 186.85 274.05 186.85 274.75 186.8 274.75 186.75 M268.35 185.05 L266.6 184.5 264.8 184.0 Q263.75 183.55 263.55 183.25 263.35 183.0 263.5 182.3 265.0 182.7 266.45 183.4 L267.7 184.35 268.4 185.0 268.6 185.15 268.35 185.05 M264.75 183.1 L266.2 183.8 267.7 184.35 266.2 183.8 264.75 183.55 266.2 183.8 264.75 183.1 M263.25 185.65 L264.75 185.8 263.75 186.7 264.75 185.8 263.25 185.65 M264.75 185.8 L266.2 185.95 264.75 185.8 M280.4 189.05 L278.8 187.65 281.6 188.3 278.8 187.65 280.4 189.05 M278.8 187.65 L276.1 187.05 278.8 187.65" fill="#d5ecf4" fill-rule="evenodd" stroke="none"/>
    <path d="M273.7 184.95 L273.8 185.0 273.95 185.2 273.8 185.0 273.7 184.95 274.45 185.05 274.6 184.9 274.7 185.0 273.95 185.2 272.55 185.7 Q271.75 185.1 270.8 185.0 L270.5 184.95 272.45 184.45 272.7 184.2 273.7 184.95 M274.85 185.4 L275.0 185.35 275.65 186.7 274.75 186.75 274.15 185.45 274.75 186.75 274.75 186.8 274.05 186.85 273.05 186.15 273.0 186.1 272.55 185.7 274.15 185.45 274.7 185.4 274.85 185.4 277.55 184.65 280.55 184.1 277.55 184.65 274.85 185.4 M280.55 184.45 L277.55 184.65 280.55 184.45 M268.35 185.05 L268.6 185.15 268.4 185.0 268.55 184.85 268.95 185.2 Q268.25 185.45 267.7 186.0 L268.35 185.05 M276.15 187.9 L276.25 188.6 276.15 189.25 275.65 188.6 Q275.25 189.0 274.9 187.6 L274.3 187.0 274.85 187.2 275.75 187.65 276.15 187.9 M275.65 188.6 L275.75 187.75 275.75 187.65 275.75 187.75 275.65 188.6 M274.9 187.6 L274.85 187.2 274.9 187.6" fill="#f38601" fill-rule="evenodd" stroke="none"/>
    <path d="M273.7 184.95 L272.7 184.2 272.45 184.45 270.5 184.95 270.3 184.95 269.95 185.0 268.95 185.2 268.55 184.85 Q269.6 183.8 271.1 183.8 L271.6 183.85 271.75 183.9 271.75 183.85 272.1 183.8 Q273.55 183.8 274.6 184.9 L274.45 185.05 273.7 184.95 M272.7 184.2 L271.75 183.9 272.7 184.2" fill="#ffc163" fill-rule="evenodd" stroke="none"/>
    <path d="M270.5 184.95 L270.8 185.0 Q271.75 185.1 272.55 185.7 L273.0 186.1 273.05 186.15 273.15 186.25 Q271.95 186.55 272.1 188.1 L272.05 189.35 271.5 188.65 270.95 188.4 270.45 188.4 Q269.9 188.55 269.65 189.1 269.4 189.65 269.55 190.25 L269.6 190.35 269.6 190.4 Q269.75 191.05 270.25 191.4 L271.35 191.65 271.4 191.65 271.45 191.6 271.25 192.0 270.95 192.0 270.45 192.15 270.4 192.15 270.35 192.2 270.0 192.05 269.65 192.0 268.95 192.15 268.75 192.0 268.45 191.9 268.15 191.85 267.95 191.05 268.35 190.5 268.5 189.85 268.5 189.75 268.45 189.25 Q268.25 188.6 267.85 188.25 268.0 187.45 268.4 186.75 268.85 185.9 269.65 185.25 L269.95 185.0 270.3 184.95 270.5 184.95" fill="#50558f" fill-rule="evenodd" stroke="none"/>
    <path d="M267.35 186.35 L267.45 186.35 267.4 186.3 267.6 186.1 267.7 186.0 Q268.25 185.45 268.95 185.2 L269.95 185.0 269.65 185.25 Q268.85 185.9 268.4 186.75 268.0 187.45 267.85 188.25 L267.75 188.2 267.2 187.95 266.7 187.95 266.6 188.0 Q266.75 187.1 267.35 186.35 M267.95 191.05 L268.15 191.85 268.0 191.85 267.95 191.7 267.55 191.35 267.5 191.35 267.4 191.3 267.35 191.25 267.6 191.2 267.65 191.2 267.95 191.05" fill="#9b9fc5" fill-rule="evenodd" stroke="none"/>
    <path d="M271.6 183.85 L271.75 183.85 271.75 183.9 271.6 183.85" fill="#af7030" fill-rule="evenodd" stroke="none"/>
    <path d="M273.15 186.25 L273.05 186.15 274.05 186.85 273.7 186.85 274.3 187.0 274.9 187.6 Q275.25 189.0 275.65 188.6 L276.15 189.25 275.85 190.0 275.75 190.15 275.4 190.5 275.35 190.55 274.55 191.1 274.35 190.8 274.55 191.1 273.4 191.4 273.05 191.5 273.2 191.35 273.8 190.8 274.15 190.35 273.8 190.8 273.2 191.35 273.95 190.0 274.1 188.8 Q274.1 187.35 273.15 186.25 M274.35 190.8 L273.4 191.4 274.35 190.8 274.15 190.35 274.35 190.8 274.65 190.5 275.15 189.85 274.65 190.5 274.35 190.8 M274.85 188.7 L274.9 187.9 274.9 187.6 274.9 187.9 274.85 188.7 274.8 188.9 275.15 189.85 274.8 188.9 274.85 188.7 M275.65 188.6 L275.15 189.85 275.65 188.6 M274.15 190.35 L273.95 190.0 274.15 190.35 274.8 188.9 274.15 190.35 M275.15 189.85 L275.4 190.5 275.15 189.85" fill="#a86b31" fill-rule="evenodd" stroke="none"/>
    <path d="M271.25 192.0 L271.45 191.6 271.5 191.6 272.1 190.95 272.25 190.3 272.25 190.2 272.25 190.1 272.2 189.7 272.05 189.35 272.1 188.1 Q271.95 186.55 273.15 186.25 274.1 187.35 274.1 188.8 L273.95 190.0 273.2 191.35 273.05 191.5 273.0 191.55 272.7 191.85 271.95 192.3 271.65 192.45 271.65 192.4 271.3 192.05 271.3 192.0 271.5 191.6 271.3 192.0 271.3 192.05 271.25 192.0 M272.65 189.3 L272.45 189.75 272.25 190.1 272.45 189.75 272.65 189.3 M272.45 189.75 L272.3 191.35 272.7 191.85 272.3 191.35 272.45 189.75 M273.6 189.3 L273.95 190.0 273.6 189.3" fill="#3c3f6a" fill-rule="evenodd" stroke="none"/>
    <path d="M267.85 188.25 Q268.25 188.6 268.45 189.25 L268.5 189.75 267.9 190.0 267.75 189.15 267.2 187.95 267.75 188.2 267.85 188.25 M268.5 189.85 L268.35 190.5 267.95 191.05 267.65 191.2 267.85 190.6 267.9 190.1 268.5 189.85 M270.95 188.4 L271.5 188.65 272.05 189.35 272.2 189.7 272.25 190.1 272.25 190.2 272.2 190.2 271.9 190.35 271.65 190.45 Q271.55 189.35 270.95 188.4 M271.65 190.55 L271.85 190.45 272.15 190.35 272.25 190.3 272.1 190.95 271.5 191.6 271.45 191.6 271.65 190.55" fill="#f3b701" fill-rule="evenodd" stroke="none"/>
    <path d="M271.45 191.6 L271.4 191.65 271.35 191.65 270.25 191.4 Q269.75 191.05 269.6 190.4 L271.6 190.55 271.65 190.55 271.45 191.6 M269.55 190.25 Q269.4 189.65 269.65 189.1 269.9 188.55 270.45 188.4 L270.95 188.4 Q271.55 189.35 271.65 190.45 L269.55 190.25 M269.85 189.55 L270.5 188.8 270.45 188.55 Q269.65 188.65 269.7 189.45 L269.85 189.55 M266.75 188.35 L266.7 188.1 266.55 188.1 Q265.9 188.25 265.95 189.0 L266.1 189.1 266.5 188.5 266.75 188.35 M265.8 189.8 Q265.65 189.2 265.9 188.65 266.1 188.15 266.6 188.0 L266.7 187.95 267.2 187.95 267.75 189.15 267.9 190.0 267.75 190.0 266.7 190.05 265.8 189.8 M265.85 189.95 L266.75 190.15 267.75 190.1 267.85 190.1 267.9 190.1 267.85 190.6 267.65 191.2 267.6 191.2 267.35 191.25 266.5 190.95 Q266.0 190.6 265.85 189.95" fill="#fed225" fill-rule="evenodd" stroke="none"/>
    <path d="M269.85 189.55 L269.7 189.45 Q269.65 188.65 270.45 188.55 L270.5 188.8 269.85 189.55 M266.75 188.35 L266.5 188.5 266.1 189.1 265.95 189.0 Q265.9 188.25 266.55 188.1 L266.7 188.1 266.75 188.35" fill="#feeba0" fill-rule="evenodd" stroke="none"/>
    <path d="M269.6 190.4 L269.6 190.35 269.55 190.25 271.65 190.45 271.65 190.55 271.6 190.55 269.6 190.4 M265.8 189.8 L266.7 190.05 267.75 190.0 267.9 190.0 267.9 190.1 267.85 190.1 267.75 190.1 266.75 190.15 265.85 189.95 265.85 189.9 265.8 189.8" fill="#dfb700" fill-rule="evenodd" stroke="none"/>
    <path d="M268.5 189.75 L268.5 189.85 267.9 190.1 267.9 190.0 268.5 189.75 M271.65 190.45 L271.9 190.35 272.2 190.2 272.25 190.2 272.25 190.3 272.15 190.35 271.85 190.45 271.65 190.55 271.65 190.45" fill="#8a7100" fill-rule="evenodd" stroke="none"/>
    <path d="M271.65 192.45 L271.95 192.3 272.65 192.5 Q273.35 192.7 273.35 193.0 273.35 193.25 272.6 193.45 L272.05 193.5 271.6 193.55 271.6 192.85 271.65 192.7 272.05 193.5 271.65 192.7 271.65 192.65 271.65 192.45" fill="#382c16" fill-rule="evenodd" stroke="none"/>
    <path d="M268.45 191.9 L268.75 192.0 268.95 192.15 268.75 192.35 268.7 192.4 268.55 193.0 268.45 193.35 268.6 194.2 268.6 194.4 Q268.5 195.15 268.2 195.45 L268.15 195.5 Q267.25 193.6 268.1 192.35 L268.25 192.1 268.3 192.05 268.45 191.9 M269.65 192.0 L270.0 192.05 270.35 192.2 270.3 192.35 270.2 192.65 270.15 193.1 270.2 193.5 270.4 193.85 270.45 194.4 Q270.55 195.15 270.3 195.5 L270.3 195.55 Q269.3 194.35 269.3 193.3 L269.4 192.55 269.45 192.5 269.55 192.2 269.65 192.0 M270.95 192.0 L271.25 192.0 271.3 192.05 271.65 192.4 271.65 192.45 271.65 192.65 271.65 192.7 271.6 192.85 271.6 193.55 271.65 193.75 271.6 194.6 271.6 194.65 270.85 193.55 270.75 192.65 270.8 192.4 270.9 192.15 270.95 192.0 M267.95 191.7 L268.0 191.85 267.95 191.85 267.7 191.85 267.7 191.9 267.45 192.05 266.95 192.95 266.9 193.05 266.75 193.2 266.0 193.6 265.95 193.6 Q266.35 192.1 267.5 191.75 L267.75 191.7 267.8 191.7 267.95 191.7" fill="#ffffff" fill-rule="evenodd" stroke="none"/>
    <path d="M268.15 191.85 L268.45 191.9 268.3 192.05 268.25 192.1 268.1 192.35 Q267.25 193.6 268.15 195.5 267.85 195.65 267.65 195.4 L267.05 194.3 Q266.7 193.55 266.9 193.05 L266.95 192.95 267.45 192.05 267.7 191.9 267.7 191.85 267.95 191.85 268.0 191.85 268.15 191.85 M268.95 192.15 L269.65 192.0 269.55 192.2 269.45 192.5 269.4 192.55 269.3 193.3 Q269.3 194.35 270.3 195.55 L269.75 195.6 268.9 194.65 268.6 194.2 268.45 193.35 268.55 193.0 268.7 192.4 268.75 192.35 268.95 192.15 M270.35 192.2 L270.4 192.15 270.45 192.15 270.95 192.0 270.9 192.15 270.8 192.4 270.75 192.65 270.85 193.55 271.6 194.65 271.2 194.7 270.5 194.0 270.4 193.85 270.2 193.5 270.15 193.1 270.2 192.65 270.3 192.35 270.35 192.2 M267.4 191.3 L267.5 191.35 267.55 191.35 267.95 191.7 267.8 191.7 267.75 191.7 267.5 191.75 Q266.35 192.1 265.95 193.6 265.65 193.55 265.7 193.3 L265.9 192.4 Q266.15 191.75 266.55 191.55 266.95 191.35 267.3 191.3 L267.4 191.3" fill="#e8d9c1" fill-rule="evenodd" stroke="none"/>
    <path d="M261.7 185.1 Q262.4 186.85 262.8 187.3 263.2 187.7 264.2 187.65 264.75 187.6 265.7 186.95 266.55 186.35 267.35 186.35 L267.45 186.35 M275.0 185.35 L274.85 185.4 277.55 184.65 280.55 184.1 M274.85 185.4 L274.7 185.4 274.15 185.45 272.55 185.7 M275.0 185.35 L276.7 185.2 280.5 184.8 283.05 184.2 Q283.4 184.0 283.15 183.45 M277.55 184.65 L280.55 184.45 M263.5 182.3 Q263.35 183.0 263.55 183.25 263.75 183.55 264.8 184.0 L266.6 184.5 268.35 185.05 268.6 185.15 M267.7 184.35 L266.2 183.8 264.75 183.55 M266.2 183.8 L264.75 183.1 M263.75 186.7 L264.75 185.8 263.25 185.65 M266.2 185.95 L264.75 185.8 M281.6 188.3 L278.8 187.65 280.4 189.05 M284.65 188.5 L282.0 190.05 279.3 189.7 Q278.25 189.4 276.75 188.3 L276.15 187.9 275.75 187.65 274.85 187.2 274.3 187.0 273.7 186.85 M276.1 187.05 L278.8 187.65" ffdec:has-small-stroke="true" ffdec:original-stroke-width="0.15" fill="none" stroke="#ffffff" stroke-linecap="round" stroke-linejoin="round" stroke-width="0.11111111111111112"/>
    <path d="M268.55 184.85 L268.4 185.0 M273.05 191.5 L273.4 191.4 274.55 191.1 275.35 190.55 275.4 190.5 275.75 190.15 M267.7 186.0 L268.35 185.05 M276.15 189.25 L275.85 190.0" ffdec:has-small-stroke="true" ffdec:original-stroke-width="0.15" fill="none" stroke="#000000" stroke-linecap="round" stroke-linejoin="round" stroke-width="0.11111111111111112"/>
    <path d="M270.5 184.95 L270.8 185.0 Q271.75 185.1 272.55 185.7 L273.0 186.1 273.05 186.15 273.15 186.25 Q274.1 187.35 274.1 188.8 L273.95 190.0 273.2 191.35 273.05 191.5 273.0 191.55 272.7 191.85 271.95 192.3 271.65 192.45 M270.5 184.95 L270.3 184.95 269.95 185.0 268.95 185.2 Q268.25 185.45 267.7 186.0 L267.6 186.1 267.4 186.3 M266.6 188.0 Q266.75 187.1 267.35 186.35 M267.35 191.25 L267.4 191.3" ffdec:has-small-stroke="true" ffdec:original-stroke-width="0.15" fill="none" stroke="#744a21" stroke-linecap="round" stroke-linejoin="round" stroke-width="0.11111111111111112"/>
    <path d="M273.7 184.95 L272.7 184.2 271.75 183.9 271.6 183.85 271.1 183.8 Q269.6 183.8 268.55 184.85 M274.7 185.0 L274.6 184.9 Q273.55 183.8 272.1 183.8 L271.75 183.85 M275.65 186.7 L275.0 185.35 M276.15 187.9 L276.25 188.6 276.15 189.25" ffdec:has-small-stroke="true" ffdec:original-stroke-width="0.15" fill="none" stroke="#af7030" stroke-linecap="round" stroke-linejoin="round" stroke-width="0.11111111111111112"/>
    <path d="M273.95 185.2 L273.8 185.0 273.7 184.95 M274.15 185.45 L274.75 186.75 274.75 186.8 M275.75 187.65 L275.75 187.75 275.65 188.6 M274.85 187.2 L274.9 187.6" ffdec:has-small-stroke="true" ffdec:original-stroke-width="0.15" fill="none" stroke="#e7c6a7" stroke-linecap="round" stroke-linejoin="round" stroke-width="0.11111111111111112"/>
    <path d="M273.4 191.4 L274.35 190.8 274.65 190.5 275.15 189.85 275.65 188.6 M274.15 190.35 L273.8 190.8 273.2 191.35 M274.9 187.6 L274.9 187.9 274.85 188.7 M274.15 190.35 L274.8 188.9" ffdec:has-small-stroke="true" ffdec:original-stroke-width="0.15" fill="none" stroke="#4e3216" stroke-linecap="round" stroke-linejoin="round" stroke-width="0.11111111111111112"/>
    <path d="M267.85 188.25 Q268.25 188.6 268.45 189.25 L268.5 189.75 268.5 189.85 268.35 190.5 267.95 191.05 267.65 191.2 M271.45 191.6 L271.4 191.65 M269.6 190.4 L269.6 190.35 269.55 190.25 271.65 190.45 271.9 190.35 272.2 190.2 272.25 190.2 272.25 190.1 272.2 189.7 272.05 189.35 271.5 188.65 270.95 188.4 M272.25 190.1 L272.45 189.75 272.65 189.3 M272.25 190.3 L272.25 190.2 M272.25 190.3 L272.1 190.95 271.5 191.6 271.3 192.0 271.3 192.05 M272.7 191.85 L272.3 191.35 272.45 189.75 M271.5 191.6 L271.45 191.6 M274.35 190.8 L274.15 190.35 273.95 190.0 273.6 189.3 M272.7 191.85 L273.05 192.25 M267.2 187.95 L267.75 188.2 267.85 188.25 M267.9 190.0 L268.5 189.75 M267.9 190.0 L267.75 190.0 266.7 190.05 265.8 189.8 265.85 189.9 265.85 189.95 M272.05 193.5 L271.65 192.7 M272.05 193.5 L272.3 194.0 M275.85 190.0 L275.75 190.15 276.05 191.35 275.3 192.25 M274.85 188.7 L274.8 188.9 275.15 189.85 275.4 190.5 275.5 190.75 274.9 191.8 275.0 192.0 274.85 192.3 274.0 194.0 M274.35 190.8 L274.55 191.1 274.9 191.8 274.85 192.3" ffdec:has-small-stroke="true" ffdec:original-stroke-width="0.15" fill="none" stroke="#000000" stroke-linecap="round" stroke-linejoin="round" stroke-width="0.11111111111111112"/>
    <path d="M271.4 191.65 L271.35 191.65 270.25 191.4 Q269.75 191.05 269.6 190.4 M269.55 190.25 Q269.4 189.65 269.65 189.1 269.9 188.55 270.45 188.4 L270.95 188.4 M265.8 189.8 Q265.65 189.2 265.9 188.65 266.1 188.15 266.6 188.0 L266.7 187.95 267.2 187.95 M267.65 191.2 L267.6 191.2 267.35 191.25 266.5 190.95 Q266.0 190.6 265.85 189.95" ffdec:has-small-stroke="true" ffdec:original-stroke-width="0.15" fill="none" stroke="#feeba0" stroke-linecap="round" stroke-linejoin="round" stroke-width="0.11111111111111112"/>
    <path d="M271.65 190.55 L271.85 190.45 272.15 190.35 272.25 190.3 M269.6 190.4 L271.6 190.55 271.65 190.55 M265.85 189.95 L266.75 190.15 267.75 190.1 267.85 190.1 267.9 190.1 268.5 189.85" ffdec:has-small-stroke="true" ffdec:original-stroke-width="0.15" fill="none" stroke="#e9cbaf" stroke-linecap="round" stroke-linejoin="round" stroke-width="0.11111111111111112"/>
    <path d="M271.65 192.4 L271.65 192.45 271.65 192.65 271.65 192.7 271.6 192.85 271.6 193.55 271.65 193.75 271.6 194.6 271.6 194.65 M266.9 193.05 L266.75 193.2 266.0 193.6 265.95 193.6 M268.6 194.2 L268.6 194.4 Q268.5 195.15 268.2 195.45 L268.15 195.5 M270.4 193.85 L270.45 194.4 Q270.55 195.15 270.3 195.5 L270.3 195.55" ffdec:has-small-stroke="true" ffdec:original-stroke-width="0.15" fill="none" stroke="#2d2d2d" stroke-linecap="round" stroke-linejoin="round" stroke-width="0.11111111111111112"/>
    <path d="M270.35 192.2 L270.4 192.15 270.45 192.15 M267.4 191.3 L267.5 191.35 267.55 191.35 M265.95 193.6 Q265.65 193.55 265.7 193.3 L265.9 192.4 Q266.15 191.75 266.55 191.55 266.95 191.35 267.3 191.3 L267.4 191.3 M267.7 191.85 L267.7 191.9 267.45 192.05 266.95 192.95 266.9 193.05 Q266.7 193.55 267.05 194.3 L267.65 195.4 Q267.85 195.65 268.15 195.5 M271.6 194.65 L271.2 194.7 270.5 194.0 270.4 193.85 270.2 193.5 270.15 193.1 270.2 192.65 270.3 192.35 270.35 192.2 M270.3 195.55 L269.75 195.6 268.9 194.65 268.6 194.2 268.45 193.35 268.55 193.0 268.7 192.4 268.75 192.35 268.95 192.15" ffdec:has-small-stroke="true" ffdec:original-stroke-width="0.15" fill="none" stroke="#b08744" stroke-linecap="round" stroke-linejoin="round" stroke-width="0.11111111111111112"/>
    <path d="M269.35 187.1 L268.95 186.35 269.75 186.65 270.3 186.1 270.25 186.85 270.95 187.25 270.15 187.4 270.05 188.2 269.65 187.55 268.85 187.7 269.35 187.1" fill="#fbebd2" fill-rule="evenodd" stroke="none"/>
    <path d="M271.7 186.2 L272.3 186.1 271.9 186.5 272.1 187.1 271.55 186.75 271.15 187.25 Q271.1 186.95 271.2 186.65 L270.65 186.35 271.2 186.25 271.35 185.6 271.7 186.2" fill="#fbebd2" fill-rule="evenodd" stroke="none"/>
  </g>
</svg>
