<?xml version="1.0" encoding="UTF-8" standalone="no"?>
<svg xmlns:ffdec="https://www.free-decompiler.com/flash" xmlns:xlink="http://www.w3.org/1999/xlink" ffdec:objectType="shape" height="406.95px" width="924.6px" xmlns="http://www.w3.org/2000/svg">
  <g transform="matrix(3.0, 0.0, 0.0, 3.0, -303.15, -463.2)">
    <path d="M394.9 202.85 L389.5 205.0 Q366.6 213.85 340.6 220.4 L333.25 222.15 308.8 227.2 299.7 228.8 Q270.75 233.55 238.5 235.85 L126.5 210.7 Q121.6 198.05 132.35 183.1 209.55 166.0 286.8 159.75 334.25 163.5 370.85 178.2 389.7 189.35 394.9 202.85 M257.2 193.7 Q262.75 192.1 270.55 192.1 278.35 192.1 283.85 193.7 289.4 195.3 289.4 197.6 289.4 199.9 283.85 201.5 278.35 203.1 270.55 203.1 262.75 203.1 257.2 201.5 251.7 199.9 251.7 197.6 251.7 195.3 257.2 193.7 M270.3 186.85 Q254.8 186.85 243.8 190.2 232.85 193.55 232.85 198.25 232.85 202.95 243.8 206.3 254.8 209.65 270.3 209.65 285.8 209.65 296.75 206.3 307.75 202.95 307.75 198.25 307.75 193.55 296.75 190.2 285.8 186.85 270.3 186.85 M312.3 167.65 Q278.65 164.65 243.6 174.3 327.2 168.65 367.15 192.1 350.2 177.4 312.3 167.65 M240.25 225.0 L240.8 225.05 Q262.45 226.35 280.0 219.3 259.55 221.5 240.4 217.45 L211.3 209.1 Q220.2 222.6 240.25 225.0" fill="#ee1611" fill-rule="evenodd" stroke="none"/>
    <path d="M275.55 283.8 Q257.2 287.4 238.2 290.05 L101.95 254.1 101.05 215.7 101.5 214.45 229.85 244.05 Q272.65 240.9 310.4 233.85 L275.55 283.8" fill="#fcf3ba" fill-rule="evenodd" stroke="none"/>
    <path d="M346.8 225.85 L331.0 269.95 Q304.1 278.1 275.55 283.8 L310.4 233.85 Q329.25 230.3 346.8 225.85" fill="#f7e086" fill-rule="evenodd" stroke="none"/>
    <path d="M409.05 205.15 L409.25 205.35 407.85 239.9 Q371.3 257.7 331.0 269.95 L346.8 225.85 Q380.2 217.25 409.05 205.15" fill="#f2ca77" fill-rule="evenodd" stroke="none"/>
    <path d="M409.05 205.15 Q380.2 217.25 346.8 225.85 329.25 230.3 310.4 233.85 272.65 240.9 229.85 244.05 L101.5 214.45 Q99.2 198.15 108.2 181.9 196.65 159.1 285.15 154.4 341.2 159.55 381.45 176.1 402.85 191.75 409.05 205.15 M394.9 202.85 Q389.7 189.35 370.85 178.2 334.25 163.5 286.8 159.75 209.55 166.0 132.35 183.1 121.6 198.05 126.5 210.7 L238.5 235.85 Q270.75 233.55 299.7 228.8 L308.8 227.2 333.25 222.15 340.6 220.4 Q366.6 213.85 389.5 205.0 L394.9 202.85 M257.2 193.7 Q251.7 195.3 251.7 197.6 251.7 199.9 257.2 201.5 262.75 203.1 270.55 203.1 278.35 203.1 283.85 201.5 289.4 199.9 289.4 197.6 289.4 195.3 283.85 193.7 278.35 192.1 270.55 192.1 262.75 192.1 257.2 193.7 M270.3 186.85 Q285.8 186.85 296.75 190.2 307.75 193.55 307.75 198.25 307.75 202.95 296.75 206.3 285.8 209.65 270.3 209.65 254.8 209.65 243.8 206.3 232.85 202.95 232.85 198.25 232.85 193.55 243.8 190.2 254.8 186.85 270.3 186.85 M312.3 167.65 Q350.2 177.4 367.15 192.1 327.2 168.65 243.6 174.3 278.65 164.65 312.3 167.65 M240.25 225.0 Q220.2 222.6 211.3 209.1 L240.4 217.45 Q259.55 221.5 280.0 219.3 262.45 226.35 240.8 225.05 L240.25 225.0" fill="#ffffe1" fill-rule="evenodd" stroke="none"/>
    <path d="M394.9 202.85 Q389.7 189.35 370.85 178.2 334.25 163.5 286.8 159.75 209.55 166.0 132.35 183.1 121.6 198.05 126.5 210.7 L238.5 235.85 Q270.75 233.55 299.7 228.8 L308.8 227.2 333.25 222.15 340.6 220.4 Q366.6 213.85 389.5 205.0 L394.9 202.85 M312.3 167.65 Q350.2 177.4 367.15 192.1 327.2 168.65 243.6 174.3 278.65 164.65 312.3 167.65" ffdec:has-small-stroke="true" ffdec:original-stroke-width="0.15" fill="none" stroke="#0d2608" stroke-linecap="round" stroke-linejoin="round" stroke-opacity="0.4" stroke-width="0.11111111111111112"/>
    <path d="M331.0 269.95 Q371.3 257.7 407.85 239.9 L409.25 205.35 409.05 205.15 Q380.2 217.25 346.8 225.85 329.25 230.3 310.4 233.85 272.65 240.9 229.85 244.05 L101.5 214.45 Q99.2 198.15 108.2 181.9 196.65 159.1 285.15 154.4 341.2 159.55 381.45 176.1 402.85 191.75 409.05 205.15 L409.25 205.05 409.25 205.35 M331.0 269.95 Q304.1 278.1 275.55 283.8 257.2 287.4 238.2 290.05 L101.95 254.1 101.05 215.7 101.05 214.35 101.5 214.45 101.05 215.7 M257.2 193.7 Q262.75 192.1 270.55 192.1 278.35 192.1 283.85 193.7 289.4 195.3 289.4 197.6 289.4 199.9 283.85 201.5 278.35 203.1 270.55 203.1 262.75 203.1 257.2 201.5 251.7 199.9 251.7 197.6 251.7 195.3 257.2 193.7 M270.3 186.85 Q285.8 186.85 296.75 190.2 307.75 193.55 307.75 198.25 307.75 202.95 296.75 206.3 285.8 209.65 270.3 209.65 254.8 209.65 243.8 206.3 232.85 202.95 232.85 198.25 232.85 193.55 243.8 190.2 254.8 186.85 270.3 186.85 M240.25 225.0 Q220.2 222.6 211.3 209.1 L240.4 217.45 Q259.55 221.5 280.0 219.3 262.45 226.35 240.8 225.05 L240.25 225.0 Z" ffdec:has-small-stroke="true" ffdec:original-stroke-width="0.15" fill="none" stroke="#0d2608" stroke-linecap="round" stroke-linejoin="round" stroke-opacity="0.4" stroke-width="0.11111111111111112"/>
    <path d="M172.95 196.15 L190.6 204.45 169.2 204.4 162.95 216.65 154.9 204.1 133.45 203.4 149.85 195.75 142.85 183.05 161.0 190.8 178.1 183.7 172.95 196.15" fill="#fbebd2" fill-rule="evenodd" stroke="none"/>
    <path d="M183.8 187.6 L176.45 179.75 184.95 182.85 187.05 175.85 190.75 185.05 199.3 188.6 193.05 191.25 196.35 200.45 188.8 192.8 182.2 194.9 183.8 187.6" fill="#fbebd2" fill-rule="evenodd" stroke="none"/>
    <path d="M192.85 213.25 L201.3 217.25 191.05 217.2 188.05 223.05 184.2 217.05 173.9 216.75 181.8 213.05 178.4 207.0 187.1 210.7 195.3 207.3 192.85 213.25" fill="#fbebd2" fill-rule="evenodd" stroke="none"/>
  </g>
</svg>
