<?xml version="1.0" encoding="UTF-8" standalone="no"?>
<svg xmlns:ffdec="https://www.free-decompiler.com/flash" xmlns:xlink="http://www.w3.org/1999/xlink" ffdec:objectType="frame" height="357.0px" width="288.0px" xmlns="http://www.w3.org/2000/svg">
  <g transform="matrix(3.0, 0.0, 0.0, 3.0, 0.0, 0.0)">
    <use ffdec:characterId="1" height="118.4" transform="matrix(1.0, 0.0, 0.0, 1.0, -227.2, -140.7)" width="95.0" xlink:href="#shape0"/>
    <use ffdec:characterId="3" height="67.5" transform="matrix(1.0, 0.0, 0.0, 1.0, 49.55, 72.5)" width="72.0" xlink:href="#sprite0"/>
    <use ffdec:characterId="4" height="103.0" transform="matrix(1.0, 0.0, 0.0, 1.0, -227.2, -140.7)" width="86.6" xlink:href="#shape2"/>
  </g>
  <defs>
    <g id="shape0">
      <path d="M245.0 142.7 L247.4 142.35 252.25 141.8 Q276.45 140.3 246.5 150.25 246.5 145.25 231.05 146.15 238.05 143.9 245.0 142.7 M272.1 149.4 Q271.3 150.75 273.75 151.75 L271.1 151.55 Q269.2 149.95 272.1 149.4 M300.5 157.15 Q304.65 155.2 307.85 151.15 307.2 147.9 304.0 145.5 308.95 147.65 312.4 150.75 307.25 155.0 300.5 157.15" fill="#000000" fill-rule="evenodd" stroke="none"/>
      <path d="M227.45 148.9 Q228.1 147.4 231.05 146.15 234.55 144.6 241.15 143.35 L245.0 142.7 Q238.05 143.9 231.05 146.15 246.5 145.25 246.5 150.25 276.45 140.3 252.25 141.8 L274.75 140.75 277.75 140.8 291.55 141.4 297.95 141.85 308.35 143.35 Q322.25 146.0 322.25 149.75 L322.25 149.8 Q322.15 153.5 309.25 157.8 296.35 162.1 276.75 162.25 257.15 162.4 243.05 158.15 L237.45 156.3 Q231.35 154.1 228.95 152.25 L227.5 150.75 227.45 150.65 227.45 148.9 M276.1 145.6 Q264.75 145.6 256.75 147.35 248.75 149.1 248.75 151.6 248.75 154.1 256.75 155.85 264.75 157.6 276.1 157.6 287.45 157.6 295.45 155.85 303.45 154.1 303.45 151.6 303.45 149.1 295.45 147.35 287.45 145.6 276.1 145.6 M300.5 157.15 Q307.25 155.0 312.4 150.75 308.95 147.65 304.0 145.5 307.2 147.9 307.85 151.15 304.65 155.2 300.5 157.15" fill="#333333" fill-rule="evenodd" stroke="none"/>
      <path d="M322.25 149.8 L321.75 153.45 Q318.15 156.65 312.5 159.9 308.5 162.95 303.5 165.0 294.9 167.3 284.25 167.95 L280.65 168.1 Q253.2 169.05 227.45 157.25 228.45 152.8 227.5 150.75 L228.95 152.25 Q229.65 156.45 233.0 158.0 231.55 155.75 237.45 156.3 247.65 162.1 259.1 164.9 271.9 167.2 284.25 167.95 278.55 167.0 276.75 162.25 296.35 162.1 309.25 157.8 322.15 153.5 322.25 149.8 M275.6 149.3 L278.8 149.6 Q280.65 150.0 280.65 150.5 280.65 151.0 278.8 151.35 L275.6 151.75 274.45 151.75 273.75 151.75 Q271.3 150.75 272.1 149.4 L272.1 149.35 272.1 149.4 272.1 149.35 272.1 149.4 Q269.2 149.95 271.1 151.55 L270.05 151.35 Q268.25 151.0 268.25 150.5 268.25 150.0 270.05 149.6 L272.1 149.35 274.45 149.25 275.6 149.3" fill="#cccccc" fill-rule="evenodd" stroke="none"/>
      <path d="M321.75 153.45 Q322.25 154.3 322.25 156.25 314.7 162.05 303.5 165.0 308.5 162.95 312.5 159.9 318.15 156.65 321.75 153.45 M283.5 258.65 Q276.65 259.65 269.5 258.65 260.65 258.1 251.8 256.05 232.0 253.1 227.45 247.25 239.65 253.15 251.8 256.05 L263.25 257.4 263.35 257.4 263.4 257.4 269.5 258.65 277.8 258.75 283.5 258.65 M284.25 167.95 Q271.9 167.2 259.1 164.9 247.65 162.1 237.45 156.3 231.55 155.75 233.0 158.0 229.65 156.45 228.95 152.25 231.35 154.1 237.45 156.3 L243.05 158.15 Q257.15 162.4 276.75 162.25 278.55 167.0 284.25 167.95 M263.8 151.95 Q268.55 153.5 274.7 154.05 282.65 154.95 290.75 153.8 282.2 155.3 273.25 155.3 268.15 154.15 263.8 151.95" fill="#999999" fill-rule="evenodd" stroke="none"/>
      <path d="M276.1 145.6 Q287.45 145.6 295.45 147.35 303.45 149.1 303.45 151.6 303.45 154.1 295.45 155.85 287.45 157.6 276.1 157.6 264.75 157.6 256.75 155.85 248.75 154.1 248.75 151.6 248.75 149.1 256.75 147.35 264.75 145.6 276.1 145.6 M275.6 151.75 L276.7 151.75 281.05 151.35 Q282.9 151.0 282.9 150.5 282.9 150.0 281.05 149.6 L276.7 149.25 275.6 149.3 274.45 149.25 272.1 149.35 270.05 149.6 Q268.25 150.0 268.25 150.5 268.25 151.0 270.05 151.35 L271.1 151.55 273.75 151.75 274.45 151.75 275.6 151.75 M263.8 151.95 Q268.15 154.15 273.25 155.3 282.2 155.3 290.75 153.8 282.65 154.95 274.7 154.05 268.55 153.5 263.8 151.95 L261.25 150.95 263.8 151.95" fill="#666666" fill-rule="evenodd" stroke="none"/>
      <path d="M263.4 257.4 L263.35 257.4 263.3 257.35 263.4 257.4" fill="#990000" fill-rule="evenodd" stroke="none"/>
      <path d="M232.1 169.55 Q230.1 168.05 231.85 162.8 248.3 168.4 267.15 172.3 236.25 166.8 232.1 169.55 M289.75 171.85 L274.3 172.8 317.75 165.8 Q320.75 179.45 319.8 192.0 L318.5 186.8 317.1 181.6 Q315.95 176.25 315.85 170.2 302.8 169.6 289.75 171.85 M319.6 231.9 Q319.5 240.4 316.35 240.55 315.85 244.25 313.75 246.55 311.95 247.3 309.95 249.05 L306.75 249.9 Q301.2 251.4 295.45 253.6 312.75 244.9 318.35 225.1 L319.4 222.8 319.6 231.9 M249.25 249.4 L263.25 257.35 Q246.5 254.0 230.2 246.05 229.25 227.55 230.2 207.55 230.7 218.3 234.75 228.05 L234.8 228.35 234.75 228.05 234.9 228.35 234.8 228.35 Q234.1 235.2 236.1 242.05 242.4 247.15 249.25 249.4" fill="#993333" fill-rule="evenodd" stroke="none"/>
      <path d="M314.55 173.25 Q306.9 171.85 296.65 171.75 L296.65 171.85 291.75 172.15 291.75 171.8 289.75 171.85 Q302.8 169.6 315.85 170.2 315.95 176.25 317.1 181.6 L314.55 173.25 M314.1 178.7 Q315.0 184.65 316.55 189.6 314.45 184.0 311.6 178.7 313.35 179.65 314.1 178.7 M313.75 246.55 Q315.85 244.25 316.35 240.55 319.5 240.4 319.6 231.9 L319.9 247.1 Q317.2 245.05 313.75 246.55 M249.25 249.4 Q242.4 247.15 236.1 242.05 234.1 235.2 234.8 228.35 L234.9 228.35 Q236.15 233.35 239.65 238.6 243.15 243.8 249.25 249.4" fill="#ffffcc" fill-rule="evenodd" stroke="none"/>
      <path d="M263.3 257.35 L263.35 257.4 263.25 257.4 263.25 257.35 263.3 257.35" fill="#996600" fill-rule="evenodd" stroke="none"/>
      <path d="M322.25 156.25 Q319.85 204.4 322.25 248.75 313.5 253.35 304.2 255.7 295.2 257.65 283.75 258.6 L283.5 258.65 277.8 258.75 269.5 258.65 263.4 257.4 263.3 257.35 263.25 257.35 263.25 257.4 251.8 256.05 Q239.65 253.15 227.45 247.25 230.3 202.25 227.45 157.25 253.2 169.05 280.65 168.1 L284.25 167.95 Q294.9 167.3 303.5 165.0 314.7 162.05 322.25 156.25 M232.1 169.55 Q236.25 166.8 267.15 172.3 248.3 168.4 231.85 162.8 230.1 168.05 232.1 169.55 M289.75 171.85 L291.75 171.8 291.75 172.15 296.65 171.85 296.65 171.75 Q306.9 171.85 314.55 173.25 L317.1 181.6 318.5 186.8 319.8 192.0 Q320.75 179.45 317.75 165.8 L274.3 172.8 289.75 171.85 M314.1 178.7 Q313.35 179.65 311.6 178.7 314.45 184.0 316.55 189.6 315.0 184.65 314.1 178.7 M319.6 231.9 L319.4 222.8 318.35 225.1 Q312.75 244.9 295.45 253.6 301.2 251.4 306.75 249.9 L309.95 249.05 Q311.95 247.3 313.75 246.55 317.2 245.05 319.9 247.1 L319.6 231.9 M234.75 228.05 Q230.7 218.3 230.2 207.55 229.25 227.55 230.2 246.05 246.5 254.0 263.25 257.35 L249.25 249.4 Q243.15 243.8 239.65 238.6 236.15 233.35 234.9 228.35 L234.75 228.05" fill="#ffff99" fill-rule="evenodd" stroke="none"/>
      <path d="M245.0 142.7 L247.4 142.35 252.25 141.8 Q276.45 140.3 246.5 150.25 246.5 145.25 231.05 146.15 238.05 143.9 245.0 142.7 M272.1 149.35 L272.1 149.4 Q271.3 150.75 273.75 151.75 L271.1 151.55 Q269.2 149.95 272.1 149.4 L272.1 149.35 M263.8 151.95 Q268.55 153.5 274.7 154.05 282.65 154.95 290.75 153.8 282.2 155.3 273.25 155.3 268.15 154.15 263.8 151.95 L261.25 150.95 M300.5 157.15 Q307.25 155.0 312.4 150.75 308.95 147.65 304.0 145.5 307.2 147.9 307.85 151.15 304.65 155.2 300.5 157.15 M263.4 257.4 L263.3 257.35 263.35 257.4 M263.3 257.35 L263.25 257.35 M234.8 228.35 L234.75 228.05" ffdec:has-small-stroke="true" ffdec:original-stroke-width="0.15" fill="none" stroke="#000000" stroke-linecap="round" stroke-linejoin="round" stroke-width="0.33333333333333337"/>
      <path d="M227.45 148.9 Q228.1 147.4 231.05 146.15 234.55 144.6 241.15 143.35 L245.0 142.7 M252.25 141.8 L274.75 140.75 277.75 140.8 291.55 141.4 297.95 141.85 308.35 143.35 Q322.25 146.0 322.25 149.75 L322.25 149.8 321.75 153.45 Q322.25 154.3 322.25 156.25 319.85 204.4 322.25 248.75 315.05 253.25 304.2 255.7 294.15 258.15 283.5 258.65 276.65 259.65 269.5 258.65 260.65 258.1 251.8 256.05 232.0 253.1 227.45 247.25 230.3 202.25 227.45 157.25 228.45 152.8 227.5 150.75 L227.45 150.65 227.25 149.75 227.45 148.9 227.45 150.65 M228.95 152.25 L227.5 150.75 M228.95 152.25 Q231.35 154.1 237.45 156.3 L243.05 158.15 Q257.15 162.4 276.75 162.25 296.35 162.1 309.25 157.8 322.15 153.5 322.25 149.8 M303.5 165.0 Q314.7 162.05 322.25 156.25 M284.25 167.95 Q294.9 167.3 303.5 165.0 M227.45 157.25 Q253.2 169.05 280.65 168.1 L284.25 167.95 M263.4 257.4 L269.5 258.65 277.8 258.75 283.5 258.65 283.75 258.6 Q295.2 257.65 304.2 255.7 313.5 253.35 322.25 248.75 M263.35 257.4 L263.4 257.4 M263.35 257.4 L263.25 257.4 251.8 256.05 Q239.65 253.15 227.45 247.25" ffdec:has-small-stroke="true" ffdec:original-stroke-width="0.15" fill="none" stroke="#000000" stroke-linecap="round" stroke-linejoin="round" stroke-width="0.33333333333333337"/>
      <path d="M317.1 181.6 L314.55 173.25" ffdec:has-small-stroke="true" ffdec:original-stroke-width="0.15" fill="none" stroke="#d4d0c8" stroke-linecap="round" stroke-linejoin="round" stroke-width="0.33333333333333337"/>
    </g>
    <g id="sprite0">
      <use ffdec:characterId="2" height="67.5" transform="matrix(1.0, 0.0, 0.0, 1.0, 0.0, 0.0)" width="72.0" xlink:href="#shape1"/>
    </g>
    <g id="shape1">
      <path d="M11.1 -16.4 Q12.3 -18.95 14.15 -21.2 16.0 -23.45 17.55 -26.05 18.6 -27.85 18.05 -30.4 17.15 -34.6 20.7 -33.45 21.85 -33.05 22.35 -31.3 23.5 -27.3 27.6 -28.3 L29.65 -28.75 Q33.5 -29.6 35.65 -25.65 37.0 -23.1 36.05 -21.35 35.75 -25.2 32.15 -26.5 L29.25 -24.9 26.45 -26.65 Q25.75 -24.1 20.25 -28.25 L20.85 -24.25 Q19.7 -17.75 13.9 -15.9 L11.1 -16.4" fill="#f7f1e1" fill-rule="evenodd" stroke="none"/>
      <path d="M36.05 -21.35 Q35.75 -20.65 35.05 -20.05 33.1 -18.5 29.6 -19.8 27.3 -20.6 25.05 -22.8 L21.45 -25.55 21.55 -22.2 18.75 -17.05 16.0 -15.5 17.65 -14.55 16.85 -14.95 13.9 -15.9 Q19.7 -17.75 20.85 -24.25 L20.25 -28.25 Q25.75 -24.1 26.45 -26.65 L29.25 -24.9 32.15 -26.5 Q35.75 -25.2 36.05 -21.35" fill="#eee2bf" fill-rule="evenodd" stroke="none"/>
      <path d="M19.25 -13.5 L19.45 -13.35 21.65 -10.0 21.65 -9.15 20.85 -8.45 17.7 -9.65 18.0 -9.3 18.85 -8.15 19.4 -7.4 19.5 -7.3 19.35 -7.25 18.65 -7.0 17.75 -6.65 16.9 -6.25 16.5 -5.95 20.65 -5.95 21.2 -5.05 20.8 -3.9 20.45 -2.85 20.45 -2.75 Q20.0 -2.1 19.7 -1.15 L19.55 -1.1 15.5 -6.0 15.75 -2.0 Q14.45 -1.9 13.65 1.0 L12.95 -6.95 20.4 -11.85 12.95 -11.1 11.35 -15.5 9.15 -11.15 1.55 -11.75 7.35 -6.7 5.2 -0.5 6.05 -1.2 8.3 -3.0 10.1 -4.4 10.2 -4.3 10.05 -4.2 4.25 4.3 -9.8 8.4 -21.25 7.8 Q-24.55 8.7 -26.95 13.75 -30.0 15.85 -31.9 14.25 -33.95 12.65 -34.25 8.6 L-34.1 8.2 -30.6 -0.45 -29.8 -2.0 Q-30.65 -0.2 -30.25 0.4 -28.35 3.85 -25.9 0.4 L-25.3 -0.5 Q-23.95 -2.75 -22.0 -4.6 L-21.15 -5.4 Q-20.4 -6.05 -19.65 -5.8 -19.0 -5.55 -18.25 -4.65 -15.45 -1.0 -12.4 -3.35 -10.25 -5.0 -10.15 -7.7 -10.1 -8.9 -9.05 -9.8 -6.55 -11.9 -3.2 -12.85 -2.1 -13.1 -1.1 -13.75 -2.45 -14.4 -4.15 -14.15 L3.4 -16.05 5.0 -16.4 5.2 -16.5 5.25 -16.55 11.1 -16.4 13.9 -15.9 16.85 -14.95 17.65 -14.55 18.1 -14.25 18.9 -13.7 19.25 -13.5 M24.45 -5.9 L25.15 -4.8 Q25.5 -3.45 25.0 -2.55 L23.05 -3.9 22.85 -3.95 22.85 -4.95 23.75 -5.95 23.8 -6.0 24.45 -5.9 M-29.3 24.05 Q-30.55 23.45 -31.85 21.55 L-33.9 18.05 -34.55 16.5 Q-35.45 14.7 -35.35 12.7 -35.25 10.8 -34.3 8.65 -34.6 11.9 -34.0 14.3 L-33.95 14.95 -33.85 15.05 -33.35 16.4 Q-32.1 19.5 -28.25 16.95 L-28.65 18.05 -29.3 24.05 M-23.75 -6.95 L-23.85 -6.65 Q-26.15 -3.15 -29.05 -1.35 L-29.15 -1.45 Q-29.3 -2.45 -28.6 -3.45 -27.3 -6.4 -24.5 -7.6 -24.15 -7.8 -23.9 -7.4 L-23.85 -7.25 -23.75 -6.95 M-12.45 -10.4 L-12.5 -10.25 Q-14.75 -9.3 -16.85 -8.05 L-17.95 -8.0 Q-18.65 -8.2 -18.7 -8.85 L-18.7 -9.15 Q-15.65 -9.75 -12.7 -11.25 L-12.55 -11.2 Q-12.35 -10.85 -12.45 -10.4" fill="#f4ffdb" fill-rule="evenodd" stroke="none"/>
      <path d="M25.05 -22.8 Q24.6 -20.4 23.05 -18.25 L19.25 -13.5 18.9 -13.7 18.1 -14.25 17.65 -14.55 16.0 -15.5 18.75 -17.05 21.55 -22.2 21.45 -25.55 25.05 -22.8" fill="#e4d39a" fill-rule="evenodd" stroke="none"/>
      <path d="M5.2 -16.6 L5.25 -16.55 5.2 -16.5 5.2 -16.6" fill="#e7dca0" fill-rule="evenodd" stroke="none"/>
      <path d="M21.65 -10.0 L21.7 -12.7 24.2 -9.4 26.95 -10.45 25.7 -7.85 28.75 -5.15 24.45 -5.9 23.8 -6.0 23.75 -6.0 23.75 -5.95 22.85 -4.95 21.95 -3.9 20.45 -2.2 20.45 -2.75 20.45 -2.85 20.8 -3.9 21.2 -5.05 21.55 -5.85 21.6 -6.05 21.4 -6.0 20.35 -6.1 18.6 -6.3 18.0 -6.25 21.65 -8.2 21.65 -9.15 21.65 -10.0 M22.9 2.25 L26.5 5.25 22.0 4.35 19.15 3.75 14.65 8.95 Q14.5 8.3 15.0 6.5 15.35 5.3 16.05 3.6 L14.05 3.35 11.65 3.0 11.0 2.95 10.8 2.9 12.0 2.3 15.8 0.5 15.75 -2.0 15.5 -6.0 19.55 -1.1 19.7 -1.15 23.45 -2.35 21.75 1.25 22.9 2.25 M10.2 -4.3 L10.1 -4.4 8.3 -3.0 6.05 -1.2 5.2 -0.5 7.35 -6.7 1.55 -11.75 9.15 -11.15 11.35 -15.5 12.95 -11.1 20.4 -11.85 12.95 -6.95 13.65 1.0 13.65 1.1 Q12.9 0.65 11.85 -1.15 11.05 -2.4 10.2 -4.3" fill="#e7c92e" fill-rule="evenodd" stroke="none"/>
      <path d="M-15.6 33.0 Q-18.7 32.15 -21.9 30.15 -24.9 28.35 -27.85 25.5 L-29.3 24.05 -28.65 18.05 -28.25 16.95 Q-32.1 19.5 -33.35 16.4 L-33.85 15.05 -33.8 15.1 -33.45 15.9 -32.45 15.95 -32.4 15.8 Q-32.4 14.5 -33.25 13.55 L-33.4 13.5 -33.9 13.7 -34.0 14.3 Q-34.6 11.9 -34.3 8.65 L-34.25 8.6 Q-33.95 12.65 -31.9 14.25 -30.0 15.85 -26.95 13.75 -24.55 8.7 -21.25 7.8 L-9.8 8.4 4.25 4.3 10.05 -4.2 10.2 -4.3 Q11.05 -2.4 11.85 -1.15 12.9 0.65 13.65 1.1 L13.55 1.4 12.0 2.3 10.8 2.9 11.0 2.95 6.15 5.85 -0.55 14.55 Q-3.45 19.55 -7.3 13.0 -12.45 10.65 -13.8 14.25 -18.3 27.5 -18.75 17.1 -20.7 21.4 -21.25 23.3 -22.85 30.05 -15.6 33.0 M-29.8 -2.0 L-29.7 -2.2 -29.5 0.2 -28.15 1.0 -25.9 0.4 Q-28.35 3.85 -30.25 0.4 -30.65 -0.2 -29.8 -2.0 M-16.6 -10.45 L-18.5 -10.0 Q-18.15 -10.1 -17.8 -10.3 L-17.7 -10.3 -17.6 -10.4 -17.3 -10.6 -16.65 -10.8 -7.05 -13.45 -4.15 -14.15 Q-2.45 -14.4 -1.1 -13.75 -2.1 -13.1 -3.2 -12.85 -6.55 -11.9 -9.05 -9.8 -10.1 -8.9 -10.15 -7.7 -10.25 -5.0 -12.4 -3.35 -15.45 -1.0 -18.25 -4.65 -19.0 -5.55 -19.65 -5.8 -19.4 -6.85 -12.25 -8.6 -3.85 -14.6 -15.85 -10.65 L-16.6 -10.45" fill="#b4daba" fill-rule="evenodd" stroke="none"/>
      <path d="M25.0 -2.55 L23.55 0.15 22.9 2.25 21.75 1.25 23.45 -2.35 19.7 -1.15 Q20.0 -2.1 20.45 -2.75 L20.45 -2.2 21.95 -3.9 22.85 -2.4 22.85 -3.95 23.05 -3.9 25.0 -2.55 M22.0 4.35 L19.35 9.35 17.35 12.5 Q8.6 25.0 -3.3 31.5 -9.3 34.7 -15.6 33.0 -22.85 30.05 -21.25 23.3 -20.7 21.4 -18.75 17.1 -18.3 27.5 -13.8 14.25 -12.45 10.65 -7.3 13.0 -3.45 19.55 -0.55 14.55 L6.15 5.85 11.0 2.95 11.65 3.0 14.05 3.35 16.05 3.6 Q15.35 5.3 15.0 6.5 14.5 8.3 14.65 8.95 L19.15 3.75 22.0 4.35 M-29.7 -2.2 L-29.55 -2.55 -29.45 -2.65 -29.3 -3.05 -28.95 -3.65 -26.9 -6.4 -26.6 -6.7 -26.2 -6.95 -24.3 -7.95 -23.95 -8.15 -23.6 -8.25 Q-23.2 -8.45 -22.4 -7.4 -22.3 -8.9 -21.75 -9.15 L-16.6 -10.45 -15.85 -10.65 Q-3.85 -14.6 -12.25 -8.6 -19.4 -6.85 -19.65 -5.8 -20.4 -6.05 -21.15 -5.4 L-22.0 -4.6 Q-23.95 -2.75 -25.3 -0.5 L-25.9 0.4 -28.15 1.0 -29.5 0.2 -29.7 -2.2 M-18.5 -10.0 L-19.9 -9.7 -20.25 -9.65 -19.1 -10.0 -17.8 -10.3 Q-18.45 -10.2 -17.3 -10.6 L-17.6 -10.4 -17.7 -10.3 -17.8 -10.3 Q-18.15 -10.1 -18.5 -10.0 M13.65 1.0 Q14.45 -1.9 15.75 -2.0 L15.8 0.5 12.0 2.3 13.55 1.4 13.65 1.1 13.65 1.0 M-23.75 -6.95 L-23.85 -7.25 -23.9 -7.4 Q-24.15 -7.8 -24.5 -7.6 -27.3 -6.4 -28.6 -3.45 -29.3 -2.45 -29.15 -1.45 L-29.05 -1.35 Q-26.15 -3.15 -23.85 -6.65 L-23.75 -6.95 M-22.4 -7.4 L-23.95 -8.15 -22.4 -7.4 M-12.45 -10.4 Q-12.35 -10.85 -12.55 -11.2 L-12.7 -11.25 Q-15.65 -9.75 -18.7 -9.15 L-18.7 -8.85 Q-18.65 -8.2 -17.95 -8.0 L-16.85 -8.05 Q-14.75 -9.3 -12.5 -10.25 L-12.45 -10.4 M-33.85 15.05 L-33.95 14.95 -34.0 14.3 -33.9 13.7 -33.4 13.5 -33.25 13.55 Q-32.4 14.5 -32.4 15.8 L-32.45 15.95 -33.45 15.9 -33.8 15.1 -33.85 15.05" fill="#94c998" fill-rule="evenodd" stroke="none"/>
      <path d="M-26.2 -6.95 L-26.15 -7.0 -24.65 -7.85 -24.3 -7.95 -26.2 -6.95" fill="#e1a459" fill-rule="evenodd" stroke="none"/>
      <path d="M11.1 -16.4 Q12.3 -18.95 14.15 -21.2 16.0 -23.45 17.55 -26.05 18.6 -27.85 18.05 -30.4 17.15 -34.6 20.7 -33.45 21.85 -33.05 22.35 -31.3 23.5 -27.3 27.6 -28.3 L29.65 -28.75 Q33.5 -29.6 35.65 -25.65 37.0 -23.1 36.05 -21.35 35.75 -20.65 35.05 -20.05 33.1 -18.5 29.6 -19.8 27.3 -20.6 25.05 -22.8 24.6 -20.4 23.05 -18.25 L19.25 -13.5 19.45 -13.35 21.65 -10.0 M24.45 -5.9 L25.15 -4.8 Q25.5 -3.45 25.0 -2.55 L23.55 0.15 22.9 2.25 M22.0 4.35 L19.35 9.35 17.35 12.5 Q8.6 25.0 -3.3 31.5 -9.3 34.7 -15.6 33.0 -18.7 32.15 -21.9 30.15 -24.9 28.35 -27.85 25.5 L-29.3 24.05 Q-30.55 23.45 -31.85 21.55 L-33.9 18.05 -34.55 16.5 Q-35.45 14.7 -35.35 12.7 -35.25 10.8 -34.3 8.65 L-34.25 8.6 -34.1 8.2 M-29.45 -2.65 L-29.3 -3.05 Q-28.45 -5.05 -26.9 -6.4 L-26.6 -6.7 -26.2 -6.95 -26.15 -7.0 M-24.3 -7.95 L-23.95 -8.15 -22.4 -7.4 Q-22.3 -8.9 -21.75 -9.15 M3.4 -16.05 L5.0 -16.4 5.2 -16.6 5.25 -16.55 11.1 -16.4 13.9 -15.9 M17.65 -14.55 L16.0 -15.5 M18.9 -13.7 L18.1 -14.25 17.65 -14.55 M5.2 -16.5 L5.0 -16.4 M-26.2 -6.95 L-24.3 -7.95" ffdec:has-small-stroke="true" ffdec:original-stroke-width="0.75" fill="none" stroke="#5a924b" stroke-linecap="round" stroke-linejoin="round" stroke-opacity="0.36078432" stroke-width="0.33333333333333337"/>
    </g>
    <g id="shape2">
      <path d="M268.0 162.6 L268.0 258.55 Q252.6 257.65 236.1 252.5 L236.1 155.55 Q251.4 161.35 268.0 162.6" fill="#ffffff" fill-opacity="0.42352942" fill-rule="evenodd" stroke="none"/>
      <path d="M322.7 156.55 Q318.85 202.9 322.7 248.5 316.2 252.2 307.5 254.75 L307.5 163.65 Q315.5 161.4 322.7 156.55" fill="#000000" fill-opacity="0.43137255" fill-rule="evenodd" stroke="none"/>
    </g>
  </defs>
</svg>
