<?xml version="1.0" encoding="UTF-8"?>
<svg version="1.1" viewBox="0 0 109.1 74.615" xmlns="http://www.w3.org/2000/svg" xmlns:cc="http://creativecommons.org/ns#" xmlns:dc="http://purl.org/dc/elements/1.1/" xmlns:rdf="http://www.w3.org/1999/02/22-rdf-syntax-ns#" xmlns:xlink="http://www.w3.org/1999/xlink">
<metadata>
<rdf:RDF>
<cc:Work rdf:about="">
<dc:format>image/svg+xml</dc:format>
<dc:type rdf:resource="http://purl.org/dc/dcmitype/StillImage"/>
</cc:Work>
</rdf:RDF>
</metadata>
<g transform="translate(-227.7,-162.65)">
<use transform="translate(227.7,162.65)" width="109.1" height="74.599998" xlink:href="#a"/>
</g>
<defs>
<g id="a" transform="translate(-227.7,-162.65)">
<path d="m323.05 219.2q-2.65-2.35-5.4-1.2-1.45 0.6-3.55 2.7l-1.65 1.75v6.2l4.45-3.2 0.1 0.1 6.05-6.35m-22.95 8.45q-1.75-0.9-2.45-2-1.35-2.1-3.15-3.15-4.35-2.6-5.2-0.75l-3.4 1.1q7.4 0.55 8.55 6.2l5.65 3.85v-5.25m21.6 3.2 7.8 0.9q-0.2-5.7 7.3-10.05-7.9 3.85-9.5 2.25l-2.05 1.75-0.45 0.1-2.35 4.65-0.75 0.4" fill="#84613e" fill-rule="evenodd"/>
<path d="m317 225.55 4.7 5.3 0.75-0.4 2.35-4.65 0.45-0.1 2.05-1.75-4.1-4.6-0.15-0.15-6.05 6.35" fill="#b18d66" fill-rule="evenodd"/>
<path d="m312.45 222.45-2.15 2.25q-4.85 5-8.3 3.75l-1.9-0.8v5.25l11.6-3.7 0.75-0.55v-6.2" fill="#503923" fill-rule="evenodd"/>
<path d="m246.15 210.55q3.5-3.15 7.2-1.6 1.95 0.8 4.75 3.65l2.2 2.3v8.3l-5.95-4.25-0.1 0.15-8.1-8.55m30.7 11.35q2.35-1.2 3.3-2.7 1.8-2.8 4.2-4.25 5.85-3.45 7-1l4.55 1.5q-9.9 0.75-11.45 8.3l-7.6 5.15v-7m-28.95 4.25-10.45 1.2q0.3-7.6-9.75-13.45 10.6 5.2 12.7 3.05 1.1 1.3 2.75 2.3l0.65 0.15 3.15 6.25 0.95 0.5" fill="#84613e" fill-rule="evenodd"/>
<path d="m254.25 219.1-6.35 7.05-0.95-0.5-3.15-6.25-0.65-0.15q-1.65-1-2.75-2.3l5.5-6.2 0.25-0.2 8.1 8.55" fill="#b18d66" fill-rule="evenodd"/>
<path d="m260.3 214.9 2.9 3.05q6.5 6.65 11.15 5l2.5-1.05v7l-15.5-4.95-1.05-0.75v-8.3" fill="#503923" fill-rule="evenodd"/>
<path d="m261.3 167.25-8.45-0.3-2.65 7.4-5.35-3.4 6 7 7.15-4.8 2-0.35-2.15-3.85 3.45-0.95v-0.75m-27.45 15.7q0-8.4 9.95-14.35t24.05-5.95l-1.65 0.15 6.3 8.05q-1.15 2.85 1.1 4.7l0.75 0.4 1.9 0.35 0.9-0.05 1.7-0.3q-0.7 5.75-5.8 3.35l-0.45-0.35-1.45-1.9-0.65-1-0.65-1.1-2 5.25-1.25-1-2.25 0.75q0.25 3.05-2.2 4.8l-0.45 0.25-1.1 0.25h-1.25l-1.5-0.3-12.7 5.75 2.7-4.15-4 2.4-7.45-9.25-0.6 0.05-1.95 3.2" fill="#f7d78c" fill-rule="evenodd"/>
<path d="m261.3 167.25v0.75l-3.45 0.95 2.15 3.85-2 0.35-7.15 4.8-6-7 5.35 3.4 2.65-7.4 8.45 0.3" fill="#fde6a5" fill-rule="evenodd"/>
<path d="m234.85 191.95-0.2-0.9q-1.55-2.85-0.8-8.1l1.95-3.2 0.6-0.05 7.45 9.25 4-2.4-2.7 4.15 12.7-5.75 1.5 0.3h1.25l1.1-0.25 0.45-0.25q2.45-1.75 2.2-4.8l2.25-0.75 1.25 1 2-5.25 0.65 1.1 0.65 1 1.45 1.9 0.45 0.35q5.1 2.4 5.8-3.35l-1.7 0.3-0.9 0.05-1.9-0.35-0.75-0.4q-2.25-1.85-1.1-4.7l-6.3-8.05 1.65-0.15 2.6 0.05 9.4 0.25q5.75 1.45 7.25 2.7l1.75 1.3q4.65 5.1 5.35 8.3l0.65 3.7q-2.2 7.3-1.85 6.75l-0.95 7.35q-1 2.8-6.25 3.75l-0.95 0.15v0.2l-3.8 1.45q-4.05 1.55-8.2 6.35h-1q-9.7 0.1-19.3 1.45l-5.95-2.1q-7.3-4.85-11.75-12.35" fill="#f2bd66" fill-rule="evenodd"/>
<path d="m269.8 212.95q0.45-2-6.4-1.95-6.9 0-18.35-3.75l-3.45-3.1-4.75-6.2q0 0.45-0.95 0.2-1.2-2.5-1.05-6.2 4.45 7.5 11.75 12.35l5.95 2.1q9.6-1.35 19.3-1.45h1q4.15-4.8 8.2-6.35l3.8-1.45v0.8l-0.2 0.6q-10 5.25-14.65 14.4h-0.2" fill="#da9947" fill-rule="evenodd"/>
<path d="m246.85 210.85-0.65-0.55q-2.9-2.3-10-11.55l-0.3-0.6q0.95 0.25 0.95-0.2l4.75 6.2 3.45 3.1q11.45 3.75 18.35 3.75 6.85-0.05 6.4 1.95h-0.95q-13.8-0.2-22-3v0.9" fill="#b27334" fill-rule="evenodd"/>
<path d="m246.85 210.85v-0.9q8.2 2.8 22 3h1l-0.15 0.4q-0.55 1.25-0.7 2.45-1.25-0.1-3.2-0.05-9.55 0-18.5-4.55l-0.45-0.25v-0.1" fill="#835830" fill-rule="evenodd"/>
<path d="m270 212.95q4.65-9.15 14.65-14.4l0.2-0.6q10.85-2.85 14-1.85 0.05 0.35 0.25 0.5 6.6 4.4 3.75 11.35l-0.05 0.5q-9.05 1.05-16.95 4.5-2.35 0.55-7.25-1.65l-0.8-0.3q-2.75 4.15-6.95 1.95h-0.35l-0.95 0.9 0.45-0.9" fill="#f9d98d" fill-rule="evenodd"/>
<path d="m294.85 178.95q2.35 6.2 2 15v1l1.1 0.8 0.9 0.2v0.15q-3.15-1-14 1.85v-1l0.95-0.15q5.25-0.95 6.25-3.75l0.95-7.35q-0.35 0.55 1.85-6.75" fill="#bd8645" fill-rule="evenodd"/>
<path d="m298.85 195.95h0.55q11.9-0.15 15.25 8.05l0.2 0.95 0.1 0.95q1.35 5.5-2.1 6.05-0.2 2.75-0.5 3.3-2.95 6.3-9.5 12.7-0.5 0-0.6-0.2l-0.4-0.8q-10.9 3.7-17 2-3.75-1.25-7.35-3.2-4.2-2.3-7.65-1.8 0 0.5 0.7 2.7l-0.3-0.45 0.3 0.5q-0.75-0.55-1.2-2.7-0.4-1.85-0.45-6.65v-0.35l0.1-1.2q0.15-1.2 0.7-2.45l0.15-0.4h0.15l-0.45 0.9 0.95-0.9h0.35q4.2 2.2 6.95-1.95l0.8 0.3q4.9 2.2 7.25 1.65 7.9-3.45 16.95-4.5l0.05-0.5q2.85-6.95-3.75-11.35-0.2-0.15-0.25-0.5v-0.15" fill="#f1bb65" fill-rule="evenodd"/>
<path d="m314.85 204.95 2.8 4.15 0.2 0.85-0.5 0.05q-0.5 7.85-1.5 11.95-0.5 0-0.6 0.2-0.8 1.65-3.4 4.8-0.5 0-0.8 0.25-6.35 5.1-17.2 5.75v1l-1-0.05q-9.8-1.05-19-3.95 0 0.5 2.3 2.6-2.65-1.55-5.6-5.9-0.7-2.2-0.7-2.7 3.45-0.5 7.65 1.8 3.6 1.95 7.35 3.2 6.1 1.7 17-2l0.4 0.8q0.1 0.2 0.6 0.2 6.55-6.4 9.5-12.7 0.3-0.55 0.5-3.3 3.45-0.55 2.1-6.05l-0.1-0.95" fill="#da9849" fill-rule="evenodd"/>
<path d="m300.85 235.95-9.25 1.2q-8.85 0.85-15.45-4.6-2.3-2.1-2.3-2.6 9.2 2.9 19 3.95l1 0.05 7-0.5v0.5l-0.1 0.55-3.9 0.45q0.3 1.7 3 1.1l1-0.1" fill="#99683a" fill-rule="evenodd"/>
<path d="m319.35 223.2v-0.05 0.8l-1.75 3.85q-5.05 7.35-16.75 8.15l-1 0.1q-2.7 0.6-3-1.1l3.9-0.45 0.1-0.55q11.05-2.45 17-8.5l1.5-2.25" fill="#835834" fill-rule="evenodd"/>
<path d="m317.85 209.95 1.5 13.25-1.5 2.25q-5.95 6.05-17 8.5v-0.5l-7 0.5v-1q10.85-0.65 17.2-5.75 0.3-0.25 0.8-0.25 2.6-3.15 3.4-4.8 0.1-0.2 0.6-0.2 1-4.1 1.5-11.95l0.5-0.05" fill="#aa6f36" fill-rule="evenodd"/>
</g>
</defs>
</svg>
