<?xml version="1.0" encoding="UTF-8" standalone="no"?>
<!DOCTYPE svg PUBLIC "-//W3C//DTD SVG 1.1//EN" "http://www.w3.org/Graphics/SVG/1.1/DTD/svg11.dtd">
<svg width="100%" height="100%" viewBox="0 0 92 95" version="1.1" xmlns="http://www.w3.org/2000/svg" xmlns:xlink="http://www.w3.org/1999/xlink" xml:space="preserve" xmlns:serif="http://www.serif.com/" style="fill-rule:evenodd;clip-rule:evenodd;stroke-linecap:round;stroke-linejoin:round;">
    <g transform="matrix(1,0,0,1,-229.25,-153.45)">
        <g>
            <g id="shape0">
                <path d="M231.5,200.8L233.15,182.25L242.55,163.15L240.1,183.6C240.6,184.367 241.8,185.5 243.7,187L248.7,181.3L252.6,175.95C253.633,174.383 254.667,172.983 255.7,171.75L257.85,168.8L258.2,168.5L265.85,165.15L264.15,174.65L266.4,176.75L275.9,177.55L298.05,160.75L316.35,158.25L299.45,174.2L297.25,184.45L305.05,191.25L320.2,193.85L320.65,194.25L315.5,201.7L312.65,218.05L313.7,221.65L310.4,232.25L297.65,244.05L279.25,247.5L255.95,245L250.2,241.75L240.4,237.55L229.85,220.6L229.25,202.5L235.4,212.2L235.75,210.65C235.417,207.95 234.533,205.367 233.1,202.9L233,202.65L231.5,200.8M287,156.35L280.85,166.05L275.15,168.35L270.8,165.3L266.55,166.7L267.7,161.1L269.85,156.45L272.85,154.75C273.617,154.25 274.45,153.817 275.35,153.45L287,156.35" style="fill:#fedbc0;fill-opacity:0.45;"/>
                <path d="M300,163.4C302.9,162.167 306.1,161.233 309.6,160.6L310.1,160.55L310.8,160.4L310.6,160.55L308.85,161.05L300,163.4M296.85,173.35L296.4,174.05L296.25,174.3L296.3,173.85L296.4,174.05L296.3,173.85L296.85,173.35M316.7,195.3L316.75,195.3L316.55,195.5L316.7,195.3M295.25,241.65L292.85,242.4L292.8,242.15L295.25,241.65M257.3,242.6L256.8,242.6L256.4,242.5L256.65,242.5L257.3,242.6M236.25,217.2L236.35,217.2L236.3,217.25L236.25,217.2M235.6,203.9L235.6,203.85L235.5,203.55L235.5,203.5L235.55,203.55L235.85,203.95L235.9,204L235.6,203.9M234,201.6L233.95,201.6L233.95,201.5L234,201.6M236.85,178.95L237.95,175.4L238.1,174.9L240.15,169.3L240,170.2L237.8,176.2L236.85,178.95M243.35,189.65L243.4,189.65L243.4,189.7L243.4,189.65L243.4,189.7L243.35,189.65M249.85,183.55L249.9,183.5L250.25,184.1L249.9,184.05L249.85,183.55M261.6,169.15C262.2,168.65 262.8,168.217 263.4,167.85L263.65,167.65L263.35,168.05L263.4,167.85L263.3,167.95L261.6,169.15M291.75,167.55L291.8,167.55L291.75,167.55M238.8,200.7L238.85,200.8L238.75,200.75L238.8,200.7M247.15,204.6L247.2,204.6L247.2,204.65L247.15,204.6M254.2,190.95L254.2,190.75L254.3,190.85L254.2,190.95M277.3,157.5L279.75,157.65L282.05,158.25L282.3,158.3L282.3,158.35L282,158.3L282.05,158.25L282,158.3L277.3,157.5M303.15,216.5L303.3,216.9L302.3,215.9L303.15,216.5L303.2,216.8L303.15,216.5M266.8,212.75L267.5,212.25L266.85,212.75L266.8,212.75L266.85,212.75L266.2,213.3L266.8,212.75M283.8,201.35L282.7,202.1L280.6,203.25L280.1,203.4L283.8,201.35M262.05,217.2L262.05,217.15L262.1,217.2L262.05,217.2M262,217.2L261.95,217.15L262,217.15L262,217.2M252.65,211.85L252.7,211.95L252.6,212L252.65,211.85M244.2,208.3L246.1,209.9L247.45,211.7L246.65,210.75L244.2,208.3M250.5,215.65L250.55,215.65L250.7,215.75L250.75,215.65L251.1,215.55L250.7,215.75L250.8,215.8L250.7,215.75L251.1,215.55L250.8,215.8L250.3,216.15L250.5,215.65M251,215.85L251.3,216L251.2,216.4L251,215.85M254.95,223.9L255.05,223.95L254.95,223.95L254.95,223.9M241.75,206.25L240.95,205.65L240.25,205.35L240.9,205.55L241.75,206.25M240.9,205.55L240.95,205.65L240.9,205.55M242.45,214.8L242.55,214.65L243.05,215.6L242.45,214.8M242.25,215.2L242.25,215.15L242.3,215.15L242.25,215.2M256.8,242.6L256.65,242.5L256.8,242.6" style="fill:#f00;"/>
                <path d="M308.85,161.05L310.6,160.55L298.4,171.9L297.85,171.85L298,172.25L296.85,173.35L296.3,173.85L294.3,169.7L294.85,168.6L296.2,167.95L308.85,161.05M294.9,186.45L301.7,192.35L301.65,192.7L295,192.35L290.2,187.3L294.85,186.25L294.9,186.45M235.5,203.5L234,201.6L238.75,200.75L238.85,200.8L246.95,204.55L247.15,204.6L247.2,204.65L252.25,210.65L252.25,210.9L252.65,211.85L252.6,212L251.75,214.6L250.75,215.65L250.55,215.65L250.75,215.65L250.7,215.75L250.55,215.65L250.5,215.65L250.35,215.45L250.3,215.35L249,213.55L247.45,211.7L246.1,209.9L244.2,208.3L243.1,207.3L241.75,206.25L240.9,205.55L240.25,205.35L238.35,204.7L238.15,204.65L238.15,204.7L235.9,204L235.85,203.95L235.55,203.55L235.5,203.5M296.2,167.95L297.85,171.85L296.2,167.95M279.75,203.6L279.75,203.5L280.1,203.4L279.75,203.6M246.1,209.9L247.2,204.65L246.1,209.9M240.9,205.55L238.85,200.8L240.9,205.55" style="fill:#804d00;"/>
                <path d="M302.1,192.75L316.15,195.1L316.25,195.4L306.5,199.1L306.45,199.2L289.65,194.95L278.25,198.55L278.25,198.5L277.25,194.95L279.4,193.65L280.35,193.6L280.5,193.6L286.7,180.8L290.75,176.8L290.15,187.25L290.2,187.3L295,192.35L301.65,192.7L301.85,192.7L302.1,192.75M306.15,231.6L295.25,241.65L292.8,242.15L291.85,236.8L306.5,230.95L306.15,231.6M256.65,242.5L252.2,240.05L252.25,239.95L261.9,240.9L261.95,240.85L273.6,234.4L273.65,230.55L273.8,230.55L275.55,230.2L276.15,234.75L264.3,242.25L257.3,242.6L256.65,242.5M288.35,193.3L280.5,193.6L288.35,193.3" style="fill:#9f6000;"/>
                <path d="M316.55,195.5L311.8,202.4L309.2,217.55L310.15,220.9L307.65,228.95L306.5,230.95L291.85,236.8L292.8,242.15L278.25,244.85L257.3,242.6L264.3,242.25L276.15,234.75L275.55,230.2L276.9,229.95L279.6,225.1L279.8,225.35L279.6,230.5L286.55,233.2L284.9,230.65L290.65,230.05L290.7,230.05L292.75,221.2L297.75,226.6L299,219.95L300.95,225.1L303.05,222.05L300,214.2L302.3,215.9L303.3,216.9L303.15,216.5L301.55,206.55L306.45,199.2L306.5,199.1L316.25,195.4L316.5,195.3L316.55,195.5M233.75,213L236.25,217.2L236.3,217.25L242.65,222.45C242.217,222.317 242.65,222.75 243.95,223.75L244.45,228.3L234.45,219.15L233.75,213M305.25,224.6L305.9,223.7L303.3,216.9L305.9,223.7L305.25,224.6M291.85,236.8L276.15,234.75L291.85,236.8M255.15,217.6L257.2,222.3L273.65,230.45L273.65,230.55L273.6,234.4L261.95,240.85L255.15,224.6L254.95,223.95L255.05,223.95L254.95,223.9L252.65,216.65L252.7,216.65L252.6,212L252.7,211.95L255.15,217.6M244.3,217.25L249.15,223.9L249.9,224.6L250.9,224.95L251.45,230.35L246.7,227.55L244.3,217.25M257.2,222.3L255.05,223.95L257.2,222.3" style="fill:#ca7900;"/>
                <path d="M238.3,184.7L238.25,184.85L238.2,184.8L238.3,184.7M316.25,195.4L316.15,195.1L316.5,195.3L316.7,195.3L316.55,195.5L316.5,195.3L316.25,195.4M263.3,167.95L263.4,167.85L263.35,168.05L263.3,167.95M251.45,230.35L251.5,230.35L251.55,231.25L251.45,230.35M262.1,217.2L262.05,217.15L262,217.15L262.1,217.2M243.05,215.6L243.15,215.65L243.15,215.7L243.05,215.6" style="fill:#c00;"/>
                <path d="M296.25,174.3L294.9,186.25L294.85,186.25L290.2,187.3L290.15,187.25L290.75,176.8L290.8,176.5L294.3,169.7L296.3,173.85L296.25,174.3M238.25,184.85L238.25,184.9L243.35,189.65L243.4,189.7L243.55,197.35L241.65,197.35L241.2,197.85L236.4,186.65L238.2,184.8L238.25,184.85M259.05,170.95L263.3,167.95L263.35,168.05L262,176.2L262.2,176.5L263.25,177.65L264.75,178.9L264.85,178.9L276.3,180.15L274.5,181.35L264.05,186.85L262.4,184.8L262.3,184.7L262.4,184.8L254.3,190.85L254.2,190.75L250.25,184.1L262.3,184.7L258.35,179.8L258.4,179.35L258.4,179.3L258.55,177.5L262.2,176.5L258.55,177.5L259,171.6L259.05,170.95M247.2,204.6L252.1,203.65L252.25,210.65L247.2,204.65L247.2,204.6M264.75,178.9L258.4,179.3L264.75,178.9M282,158.3L278.65,163.8L274.2,165.9L269.55,164.2L266.95,165.8L267.6,164.55L267.85,164.1L270.95,161.7L275.45,162.35L278.95,160.4L279.65,157.9L282,158.3" style="fill:#ae6800;"/>
                <path d="M243.4,189.65L249.55,184L249.65,184.05L249.9,184.05L250.25,184.1L254.2,190.75L254.2,190.95L252.1,203.55L252.1,203.65L247.2,204.6L247.15,204.6L246.95,204.55L238.85,200.8L238.8,200.7L241.2,197.85L241.65,197.35L243.55,197.35L243.4,189.7L243.4,189.65M249.9,183.5L253.55,178.55L256.4,174.65L258.65,171.55L259,171.6L258.55,177.5L258.4,179.3L258.4,179.35L258.35,179.8L262.3,184.7L250.25,184.1L249.9,183.5M278.25,198.5L278.2,198.55L276.5,199.9L275.3,196.1L277.25,194.95L278.25,198.5M299,219.95L297.75,226.6L292.75,221.2L290.7,230.05L290.65,230.05L284.9,230.65L286.55,233.2L279.6,230.5L279.8,225.35L282.45,229.4L288,227.3L292.6,218.1L296.15,224.5L298.45,218.55L298.9,219.7L299,219.95M258.35,214.1L258.85,208.2L261.25,206.2L260.65,212.35L258.35,214.1" style="fill:#ffab2d;"/>
                <path d="M240,170.4L238.3,184.7L238.2,184.8L236.4,186.65L237.8,176.2L240,170.2L240,170.4M278.25,198.55L278.2,198.55L278.25,198.5L278.25,198.55M250.75,215.65L251.75,214.6L251.3,216L251,215.85L251.1,215.55L250.75,215.65" style="fill:#9f0000;"/>
                <path d="M300,163.4L308.85,161.05L296.2,167.95L294.85,168.6L292.2,167.7L294.85,168.6L294.3,169.7L290.8,176.5L290.75,176.8L286.7,180.8L280.5,193.6L280.35,193.6L279.4,193.65L277.25,194.95L275.3,196.1L276.5,199.9L260.65,212.35L261.25,206.2L258.85,208.2L257.2,209.6L252.65,211.85L252.25,210.9L252.25,210.65L252.1,203.65L252.1,203.55L254.2,190.95L254.3,190.85L262.4,184.8L264.05,186.85L274.5,181.35L276.75,180.2L277.35,180L277.6,179.5L291.75,167.55L291.8,167.55L292.2,167.7L292.3,167.1L295.3,164.6L295.35,164.6L300,163.4M251.3,239.5L242.2,235.6L232.85,221.2L232.45,219.9L231.45,209.25L231.7,209.55L233.75,213L234.45,219.15L244.45,228.3L243.95,223.75L242.25,215.2L242.3,215.15L242.45,214.8L243.05,215.6L243.1,215.7L243.15,215.7L244.3,217.25L246.7,227.55L251.45,230.35L251.55,231.25L251.5,230.35L251.05,222.4L251,222.3C250.8,221.4 250.7,220.4 250.7,219.3L250.7,218.4L251.3,216L251.75,214.6L252.6,212L252.7,216.65L252.65,216.65L254.95,223.9L254.95,223.95L255.15,224.6L261.95,240.85L261.9,240.9L252.25,239.95L251.3,239.5M233.95,201.5L233.9,201.15L235.2,183.5L236.85,178.95L237.8,176.2L236.4,186.65L241.2,197.85L238.8,200.7L238.75,200.75L234,201.6L233.95,201.5M267.85,164.1L270.15,159.85L272.3,158.9C273,158.433 273.75,158.1 274.55,157.9L276.1,157.2L277.3,157.5L279.65,157.9L278.95,160.4L275.45,162.35L270.95,161.7L267.85,164.1M275.3,196.1L269.7,199.5L275.3,196.1M283.85,175.7C282.25,177.3 281.817,177.767 282.55,177.1L283.85,175.7M264.85,203.15L261.25,206.2L264.85,203.15M254.95,223.9L251.05,222.4L254.95,223.9M244.6,229.75L244.45,228.3L244.6,229.75" style="fill:#f29200;"/>
                <path d="M278.2,198.55L278.25,198.55L279.75,203.5L279.75,203.6L278,204.5L276.5,199.9L278.2,198.55M260.65,212.35L266.8,212.75L266.2,213.3L265.25,214.1L258.35,214.1L260.65,212.35" style="fill:#4a2d00;"/>
                <path d="M294.9,186.25L294.9,186.45L294.85,186.25L294.9,186.25M301.7,192.35L301.85,192.7L301.65,192.7L301.7,192.35" style="fill:#b70000;"/>
                <path d="M283.8,201.35L283.9,201.3C284.067,201.167 284.25,201.067 284.45,201L285.45,200.45L288.3,199.1L288.35,199.05L288.4,199.1L288.45,199.35L288.35,199.15L284.45,201L283.8,201.35M291.7,205.75L291.7,206.05L291.5,205.6L291.7,205.75M288.4,199.1L288.35,199.15L288.3,199.1L288.35,199.15L288.4,199.1M266.2,213.3L265.35,214.1L265.35,214.35L265.25,214.1L265.35,214.1L265.25,214.1L266.2,213.3M262.05,217.15L261.9,217.3L262,217.2L262,217.15L262.05,217.15M267.6,220.4L266.9,220.45L267.65,220.35L267.6,220.4M249,213.55L250.3,215.35L250.35,215.45L248.95,213.65L249,213.55M240.25,205.35L238.35,204.75L238.15,204.7L238.15,204.65L238.35,204.7L240.25,205.35M238.35,204.75L238.35,204.7L238.35,204.75M242.25,215.15L242.25,215.1L242.3,215.15L242.25,215.15M243.05,215.6L243.15,215.7L243.1,215.7L243.05,215.6" style="fill:#ff0;"/>
                <path d="M291.7,205.65L291.7,205.75L291.5,205.6L291.7,205.65M246.65,210.75L247.45,211.7L246.95,211.85L246.65,210.75" style="fill:#600;"/>
                <path d="M262.1,217.2L262.3,217.5L262.05,217.2L262.1,217.2" style="fill:#3eb571;"/>
                <path d="M236.35,217.2L236.5,217.2L237.55,213.25L235.6,203.9L235.9,204L238.15,204.7L238.35,204.75L240.25,205.35L240.95,205.65L241.75,206.25L243.1,207.3L244.2,208.3L246.65,210.75L246.95,211.85L247.45,211.7L248.95,213.65L250.35,215.45L250.5,215.65L250.3,216.15L250.8,215.8L251.1,215.55L251,215.85L250.8,215.8L251,215.85L251.2,216.4L250.7,218.4L250.7,219.3C250.7,220.4 250.8,221.4 251,222.3L251.05,222.4L251.5,230.35L251.45,230.35L250.9,224.95L249.9,224.6L249.15,223.9L244.3,217.25L243.15,215.7L243.15,215.65L243.05,215.6L242.55,214.65L242.45,214.8L242.3,215.15L242.25,215.1L242.25,215.2L243.95,223.75C242.65,222.75 242.217,222.317 242.65,222.45L236.3,217.25L236.35,217.2M276.5,199.9L278,204.5L279.75,203.6L280.1,203.4L280.6,203.25L282.7,202.1L283.8,201.35L284.45,201L288.35,199.15L288.45,199.35L291.5,205.6L291.7,206.05L291.7,205.65L292.9,200.75L296.65,199.75L290.6,198.05L288.4,199.1L288.35,199.05L288.3,199.1L285.45,200.45L284.45,201C284.25,201.067 284.067,201.167 283.9,201.3L283.8,201.35L280.1,203.4L279.75,203.5L278.25,198.55L289.65,194.95L306.45,199.2L301.55,206.55L303.15,216.5L302.3,215.9L300,214.2L303.05,222.05L300.95,225.1L299,219.95L298.9,219.7L298.45,218.55L296.15,224.5L292.6,218.1L288,227.3L282.45,229.4L279.8,225.35L279.6,225.1L276.9,229.95L275.55,230.2L273.8,230.55L273.65,230.45L257.2,222.3L255.15,217.6L259.9,218.35L261.95,217.15L259.9,218.35L255.15,217.6L252.7,211.95L252.65,211.85L257.2,209.6L258.85,208.2L258.35,214.1L265.25,214.1L265.35,214.35L265.35,214.1L266.2,213.3L266.85,212.75L267.5,212.25L266.8,212.75L260.65,212.35L276.5,199.9M278,204.5L273.85,207.55L267.6,212.15L267.5,212.25L267.6,212.15L273.85,207.55L278,204.5M262.1,217.2L265.35,214.35L262.1,217.2L262,217.15L261.95,217.15L262,217.2L261.9,217.3L262.05,217.15L262.05,217.2L262.3,217.5L262.1,217.2M267.6,220.4L267.65,220.35L266.9,220.45L267.6,220.4" style="fill:#643c00;"/>
                <path d="M252.2,240.05L251.3,239.5L252.25,239.95L252.2,240.05M273.65,230.45L273.8,230.55L273.65,230.55L273.65,230.45" style="fill:#b30000;"/>
                <path d="M252.7,211.95L252.6,212L252.7,211.95" style="fill:#df0000;"/>
                <path d="M288.4,199.1L290.6,198.05L296.65,199.75L292.9,200.75L291.7,205.65L291.5,205.6L288.45,199.35L288.4,199.1" style="fill:#4f2f00;"/>
                <path d="M300,163.4L308.85,161.05L310.6,160.55L298.4,171.9M298,172.25L296.85,173.35M296.25,174.3L294.9,186.25M294.9,186.45L301.7,192.35M302.1,192.75L316.15,195.1M316.55,195.5L311.8,202.4L309.2,217.55L310.15,220.9L307.65,228.95L307.1,230.75L306.15,231.6L295.25,241.65L292.8,242.15L278.25,244.85L257.3,242.6M256.65,242.5L252.2,240.05L251.3,239.5L242.2,235.6L232.85,221.2M232.45,219.9L231.45,209.25M231.7,209.55L233.75,213L236.25,217.2M236.5,217.2L237.55,213.25L235.6,203.9M235.5,203.5L234,201.6M233.9,201.15L235.2,183.5L236.85,178.95L237.8,176.2L240,170.2M240,170.4L238.3,184.7M238.25,184.9L243.35,189.65M243.4,189.65L249.55,184M249.6,183.9L249.85,183.55M249.9,183.5L253.55,178.55L256.4,174.65L258.65,171.55M259.05,170.95L261.6,169.15M263.35,168.05L262,176.2M262.2,176.5L264.85,178.9L276.3,180.15M277.6,179.5L291.75,167.55M292.3,167.1L295.3,164.6M295.35,164.6L300,163.4M306.5,230.95L307.1,230.75M296.3,173.85L296.4,174.05M267.85,164.1L270.15,159.85L272.3,158.9C273,158.433 273.75,158.1 274.55,157.9L276.1,157.2L277.3,157.5L282,158.3L278.65,163.8L274.2,165.9L269.55,164.2L266.95,165.8L267.6,164.55M282.3,158.35L282,158.3L282.05,158.25" style="fill:none;fill-rule:nonzero;stroke:#000;stroke-opacity:0.4;stroke-width:0.8px;"/>
                <path d="M298.4,171.9L298,172.25L297.85,171.85L296.2,167.95L308.85,161.05M294.9,186.25L294.9,186.45M301.7,192.35L302.05,192.65L302.1,192.75L301.85,192.7L301.65,192.7L295,192.35L290.2,187.3L290.15,187.25L290.75,176.8L290.8,176.5L294.3,169.7L294.85,168.6L296.2,167.95M316.15,195.1L316.75,195.2L316.7,195.3L316.55,195.5M257.3,242.6L256.8,242.6L256.65,242.5L256.4,242.5M232.85,221.2L232.55,220.7L232.45,219.9M231.45,209.25L231.4,209.1L231.7,209.55M235.6,203.9L235.6,203.85L235.5,203.55L235.5,203.5L235.55,203.55L235.85,203.95L235.9,204L235.6,203.9M234,201.6L233.95,201.6L233.95,201.5L233.9,201.15M240,170.2L240.05,170L240,170.4M238.3,184.7L238.25,184.85L238.25,184.9M249.55,184L249.6,183.95L249.6,183.9L249.65,184.05L249.55,184M249.85,183.55L249.9,183.5L250.25,184.1L249.9,184.05L249.65,184.05L249.6,183.95M258.65,171.55L259.05,171L259.05,170.95L259,171.6L258.55,177.5L258.4,179.3L264.75,178.9L264.85,178.9M276.3,180.15L276.75,180.2L277.6,179.5M291.75,167.55L291.8,167.55L292.3,167.1M295.3,164.6L295.35,164.6M306.45,199.2L306.5,199.1L316.25,195.4L316.75,195.2M303.3,216.9L305.9,223.7L305.25,224.6M306.5,230.95L291.85,236.8L292.8,242.15M263.3,167.95L261.6,169.15M263.35,168.05L263.4,167.85L263.3,167.95M243.4,189.7L243.35,189.65M243.4,189.7L243.4,189.65L243.4,189.7L243.55,197.35L241.65,197.35L241.2,197.85L238.8,200.7L238.85,200.8L246.95,204.55L247.15,204.6L247.2,204.6L252.1,203.65L252.1,203.55L254.2,190.95L254.2,190.75L250.25,184.1L262.3,184.7L262.4,184.8L264.05,186.85L274.5,181.35L276.75,180.2L277.35,180M238.75,200.75L238.8,200.7M238.85,200.8L238.75,200.75L234,201.6L233.95,201.5M258.4,179.3L258.4,179.35L258.35,179.8L262.3,184.7M258.55,177.5L262.2,176.5M254.2,190.95L254.3,190.85L262.4,184.8M292.2,167.7L294.85,168.6M292.2,167.7L291.8,167.55M296.25,174.3L296.3,173.85L294.3,169.7M296.85,173.35L296.3,173.85M278.25,198.55L278.25,198.5L277.25,194.95L279.4,193.65L280.35,193.6M276.5,199.9L278,204.5L279.75,203.6L279.75,203.5L278.25,198.55M306.45,199.2L301.55,206.55L303.15,216.5L303.3,216.9L303.2,216.8L303.15,216.5L302.3,215.9L300,214.2L303.05,222.05L300.95,225.1L299,219.95M279.8,225.35L279.6,225.1L276.9,229.95L275.55,230.2L276.15,234.75L291.85,236.8M277.25,194.95L275.3,196.1L276.5,199.9M260.65,212.35L266.8,212.75L267.5,212.25L267.6,212.15L273.85,207.55L278,204.5M269.7,199.5L275.3,196.1M288.4,199.1L290.6,198.05L296.65,199.75L292.9,200.75L291.7,205.65L291.7,206.05L291.5,205.6L288.45,199.35L288.35,199.15L284.45,201L283.8,201.35L280.1,203.4L279.75,203.6M288.3,199.1L288.35,199.15L288.4,199.1M280.5,193.6L288.35,193.3M279.8,225.35L282.45,229.4L288,227.3L292.6,218.1L296.15,224.5L298.45,218.55L298.9,219.7M266.8,212.75L266.85,212.75M266.2,213.3L265.35,214.1L265.35,214.35L262.1,217.2L262.05,217.2L262.05,217.15L261.95,217.15L259.9,218.35L255.15,217.6L257.2,222.3L273.65,230.45L273.8,230.55L275.55,230.2M265.25,214.1L258.35,214.1L258.85,208.2L257.2,209.6L252.65,211.85L252.7,211.95L255.15,217.6M265.25,214.1L265.35,214.1M266.2,213.3L266.8,212.75M273.65,230.45L273.65,230.55L273.6,234.4L261.95,240.85M261.9,240.9L252.25,239.95L251.3,239.5M261.25,206.2L260.65,212.35M258.85,208.2L261.25,206.2L264.85,203.15M247.2,204.65L247.15,204.6M247.2,204.65L247.2,204.6M247.45,211.7L246.1,209.9L244.2,208.3L246.65,210.75L247.45,211.7L249,213.55L250.3,215.35L250.35,215.45L250.5,215.65L250.75,215.65L251.75,214.6L252.6,212L252.65,211.85L252.25,210.9L252.25,210.65L247.2,204.65L246.1,209.9M247.45,211.7L248.95,213.65L249,213.55M252.1,203.65L252.25,210.65M251.1,215.55L250.7,215.75L250.8,215.8L251,215.85L251.3,216L251.75,214.6M250.7,215.75L250.55,215.65M250.7,215.75L250.75,215.65L251.1,215.55M251.2,216.4L251.3,216M251.2,216.4L250.7,218.4L250.7,219.3C250.7,220.4 250.8,221.4 251,222.3L251.05,222.4L254.95,223.9L255.05,223.95L257.2,222.3M244.3,217.25L249.15,223.9L249.9,224.6L250.9,224.95L251.45,230.35L251.55,231.25L251.5,230.35L251.05,222.4M248.95,213.65L250.35,215.45M240.25,205.35L238.35,204.75L238.15,204.7L235.9,204M240.95,205.65L240.9,205.55L240.25,205.35M238.35,204.7L238.35,204.75M240.9,205.55L241.75,206.25L243.1,207.3L244.2,208.3M243.05,215.6L243.15,215.65M243.15,215.7L244.3,217.25M242.25,215.2L242.25,215.1L242.3,215.15M242.45,214.8L243.05,215.6L243.15,215.7M242.25,215.2L243.95,223.75L244.45,228.3L244.6,229.75M236.3,217.25L242.65,222.45C242.217,222.317 242.65,222.75 243.95,223.75M236.3,217.25L236.25,217.2M276.15,234.75L264.3,242.25L257.3,242.6L256.65,242.5M238.85,200.8L240.9,205.55" style="fill:none;fill-rule:nonzero;stroke:#000;stroke-opacity:0.4;stroke-width:0.3px;"/>
                <path d="M303.2,216.8L302.3,215.9" style="fill:none;fill-rule:nonzero;stroke:#000;stroke-opacity:0.4;stroke-width:0.3px;"/>
            </g>
        </g>
    </g>
</svg>
