<?xml version="1.0" encoding="UTF-8" standalone="no"?>
<!DOCTYPE svg PUBLIC "-//W3C//DTD SVG 1.1//EN" "http://www.w3.org/Graphics/SVG/1.1/DTD/svg11.dtd">
<svg width="100%" height="100%" viewBox="0 0 92 73" version="1.1" xmlns="http://www.w3.org/2000/svg" xmlns:xlink="http://www.w3.org/1999/xlink" xml:space="preserve" xmlns:serif="http://www.serif.com/" style="fill-rule:evenodd;clip-rule:evenodd;stroke-linecap:round;stroke-linejoin:round;">
    <g transform="matrix(1,0,0,1,-229.35,-164.1)">
        <g>
            <g id="shape0">
                <path d="M250.95,179.35L251.05,179.15L270.9,173.5L270.95,173.55L273.5,179.75L250.95,179.35" style="fill:#e3f9f9;"/>
                <path d="M238.35,181.95L246.65,170.5L277,164.5L288.85,167.55L287.45,177.2L270.95,173.55L270.9,173.5L251.05,179.15L250.95,179.35L246.65,187.7L238.35,181.95" style="fill:#ffe375;"/>
                <path d="M246.65,187.7L250.95,179.35L273.5,179.75L270.95,173.55L287.45,177.2L294.75,178.85L273.6,179.8L273.45,179.8L273.55,180L273.45,179.85L273.4,179.85L273.1,180.05L245.45,190.65L245.25,190.35L246.65,187.7" style="fill:#b0eeee;"/>
                <path d="M287.45,177.2L288.85,167.55L303.9,171.5L319.9,195.35L319.95,196.3L316.95,199.7L304.25,200.55L306.65,194.25L298.6,180.95L295.45,179.2L295.4,179L294.75,178.85L287.45,177.2" style="fill:#ffcd06;"/>
                <path d="M273.6,179.85L273.6,179.8L294.75,178.85L295.4,179L295.45,179.2L303.9,192.85L303.85,193L273.6,179.85" style="fill:#46c8c5;"/>
                <path d="M298.75,231.1L267.8,236.4L267.5,227L267.9,227.2L282.5,224.5L285.35,231.6L285.7,223.65L285.75,223.65L297.9,221.2L298.75,231.1M255.5,230.05L241.85,225.05L241.75,217.05L246.55,217.4L257.05,221.05L255.5,230.05M303.85,193L303.9,192.85L295.45,179.2L298.6,180.95L306.65,194.25L304.25,200.55L298.1,213.1L282.4,215.5L274.35,216.1L251.95,208.4L275.15,213.9L275.2,213.95L294.5,209.5L295,209.4L303.85,193" style="fill:#8c7100;"/>
                <path d="M273.45,179.85L273.5,180.05L275.15,213.9L251.95,208.4L251.85,208.2L273.1,180.05L273.4,179.85L273.45,179.85" style="fill:#78d6d3;"/>
                <path d="M273.6,179.8L273.6,179.85L273.45,179.8L273.6,179.8M251.85,208.2L249.85,202.8L245.45,190.65L273.1,180.05L251.85,208.2" style="fill:#92dedc;"/>
                <path d="M273.45,179.8L273.6,179.85L273.55,180L273.45,179.8" style="fill:#5bcecb;"/>
                <path d="M273.55,180L294.5,209.5L275.2,213.95L275.15,213.9L273.5,180.05L273.45,179.85L273.55,180" style="fill:#38bcb9;"/>
                <path d="M273.6,179.85L303.85,193L295,209.4L294.5,209.5L273.55,180L273.6,179.85" style="fill:#30a39f;"/>
                <path d="M282.5,224.5L267.9,227.2L267.5,227L257.05,221.05L246.55,217.4L241.75,217.05L232.95,212.7L232.85,210L249.85,202.8L251.85,208.2L251.95,208.4L274.35,216.1L282.4,215.5L285.75,223.6L285.7,223.65C284.933,224.317 283.867,224.6 282.5,224.5" style="fill:#e6b800;"/>
                <path d="M285.7,223.65L285.75,223.6L285.75,223.65L285.7,223.65" style="fill:#fdca00;"/>
                <path d="M267.8,236.4L255.5,230.05L257.05,221.05L267.5,227L267.8,236.4M285.75,223.6L282.4,215.5L298.1,213.1L304.25,200.55L316.95,199.7L297.9,221.2L285.75,223.65L285.75,223.6" style="fill:#bb9600;"/>
                <path d="M319.95,196.3L320.15,207.65L298.75,231.1L297.9,221.2L316.95,199.7L319.95,196.3M282.5,224.5C283.867,224.6 284.933,224.317 285.7,223.65L285.35,231.6L282.5,224.5" style="fill:#624f00;"/>
                <path d="M238.35,181.95L246.65,187.7L245.25,190.35L245.45,190.65L249.85,202.8L232.85,210L231.9,190.8L232.2,189.1L238.35,181.95" style="fill:#ffea93;"/>
                <path d="M241.85,225.05L231.35,221.2L231.35,220.95L229.75,203.1L231.9,190.8L232.85,210L232.95,212.7L241.75,217.05L241.85,225.05" style="fill:#caa200;"/>
                <path d="M288.85,167.55L277,164.5L246.65,170.5L238.35,181.95L232.2,189.1L231.9,190.8L229.75,203.1L231.35,220.95L231.35,221.2L231.3,221.2L231.35,220.95M288.85,167.55L303.9,171.5L319.9,195.35L319.95,196.3L320.15,207.65L298.75,231.1L267.8,236.4L255.5,230.05L241.85,225.05L231.35,221.2" style="fill:none;fill-rule:nonzero;stroke:#000;stroke-opacity:0.6;stroke-width:0.8px;"/>
            </g>
        </g>
    </g>
</svg>
