<?xml version="1.0" encoding="UTF-8" standalone="no"?>
<!DOCTYPE svg PUBLIC "-//W3C//DTD SVG 1.1//EN" "http://www.w3.org/Graphics/SVG/1.1/DTD/svg11.dtd">
<svg width="100%" height="100%" viewBox="0 0 99 72" version="1.1" xmlns="http://www.w3.org/2000/svg" xmlns:xlink="http://www.w3.org/1999/xlink" xml:space="preserve" xmlns:serif="http://www.serif.com/" style="fill-rule:evenodd;clip-rule:evenodd;stroke-linecap:round;stroke-linejoin:round;">
    <g transform="matrix(1,0,0,1,-226.25,-164.2)">
        <g transform="matrix(1,0,0,1,0.55,-0.5)">
            <g id="sprite0">
                <g id="shape0">
                    <path d="M235.45,183.5L259.15,173.6L263.95,176.7L270.1,173.4L299.35,172.9L300.55,176.1L312.35,175.45L316.65,181.3L317.95,199.6L314.8,211.15L305.3,224.85L291.75,226.15L287.65,221.05L266.35,221.3L257.25,216.25L242.3,219L234.85,214.4L235.4,209.5L231.7,207.5L233.4,191.2L235.45,183.5" style="fill:#fff;fill-opacity:0.4;"/>
                    <path d="M230,178.9L257,165.65L262.5,169.8L269.5,165.35L302.95,164.7L304.25,168.95L317.75,168.1L322.7,176L324.2,200.5L320.55,216.05L309.7,234.45L294.25,236.2L289.6,229.3L265.25,229.7L254.85,222.9L237.8,226.6L229.3,220.4L229.9,213.85L225.7,211.15L227.65,189.25L230,178.9" style="fill:#fff;fill-opacity:0.1;"/>
                    <path d="M240.1,193.8L237.8,192.8L237.85,192.65L265.1,193.5L289.45,185.35L296.2,177.8L296.45,177.8L294.85,180.5L297.45,180.4L306.9,179.9L300.45,191.5L298.2,195.55L274.9,201.65L267.65,201.4L264.55,200.9L264.6,200.65L253.55,195.15L240.1,193.8M292.45,190.4L300.45,191.5L292.45,190.4" style="fill:#d5d7dd;"/>
                    <path d="M237.85,192.65L239.65,186.4L260.7,178.4L264.9,180.9L270.4,178.25L296.2,177.8L289.45,185.35L265.1,193.5L237.85,192.65M260.2,183.15L264.9,180.9L260.2,183.15" style="fill:#e9eaed;"/>
                    <path d="M237.8,192.8L240.1,193.8L240,207.75L236.3,205.9L237.8,192.8M253.55,195.15L264.6,200.65L264.55,200.9L261.65,214.25L253.9,210.1L253.55,195.15M289.7,221.05L286.05,216.9L288.5,202.15L292,207.2L289.7,221.05" style="fill:#9da2b3;"/>
                    <path d="M240.1,193.8L253.55,195.15L253.9,210.1L240,207.75L240.1,193.8M296.45,177.8L296.6,177.8L297.45,180.4L296.45,177.8L297.45,180.4L294.85,180.5L296.45,177.8M301.65,220L289.7,221.05L292,207.2L299.8,205.65L301.65,220" style="fill:#757b93;"/>
                    <path d="M274.9,201.65L298.2,195.55L300.45,191.5L308.65,192.7L299.95,205.6L299.8,205.65L292,207.2L288.5,202.15L288.4,202.05L274.9,201.65M306.9,179.9L307.9,179.85L311.8,184.6L311.85,185.35L309.1,192.4L309.05,192.7L308.65,192.7L300.45,191.5L306.9,179.9" style="fill:#c5c8cf;"/>
                    <path d="M311.85,185.35L312.95,199.5L310.15,208.85L309.1,192.7L309.1,192.4L311.85,185.35" style="fill:#484b5b;"/>
                    <path d="M267.65,201.4L274.9,201.65L288.4,202.05L288.5,202.15L286.05,216.9L267.05,217.1L267.65,201.4M310.15,208.85L301.65,220L299.8,205.65L299.95,205.6L308.65,192.7L309.1,192.7L310.15,208.85" style="fill:#61667c;"/>
                    <path d="M264.55,200.9L267.65,201.4L267.05,217.1L261.65,214.25L264.55,200.9" style="fill:#8c92a6;"/>
                    <path d="M237.85,192.65L239.65,186.4L260.7,178.4L264.9,180.9L270.4,178.25L296.2,177.8L296.45,177.8L297.45,180.4L306.9,179.9L307.9,179.85L311.8,184.6M311.85,185.35L312.95,199.5L310.15,208.85L301.65,220L289.7,221.05L286.05,216.9L267.05,217.1L261.65,214.25L253.9,210.1L240,207.75L236.3,205.9L237.8,192.8L237.85,192.65" style="fill:none;fill-rule:nonzero;stroke:#000;stroke-opacity:0.6;stroke-width:0.7px;"/>
                    <path d="M237.8,192.8L240.1,193.8L253.55,195.15L264.6,200.65L264.55,200.9L267.65,201.4L274.9,201.65L288.4,202.05L288.5,202.15L292,207.2L299.8,205.65L299.95,205.6L308.65,192.7L309.05,192.7L309.1,192.4L311.85,185.35L311.8,184.6L312,184.9L311.85,185.35M300.45,191.5L292.45,190.4M264.9,180.9L260.2,183.15M296.45,177.8L294.85,180.5L297.45,180.4M309.1,192.7L309.1,192.4M300.45,191.5L308.65,192.7" style="fill:none;fill-rule:nonzero;stroke:#000;stroke-opacity:0.6;stroke-width:0.4px;"/>
                    <path d="M244.8,215.8L245.3,209.3L252.95,206.5L252.95,214.3L244.8,215.8" style="fill:#5d3a8c;"/>
                    <path d="M245.3,209.3L240.6,206.15L248.3,203.75L252.95,206.5L245.3,209.3" style="fill:#c7a7e6;"/>
                    <path d="M245.3,209.3L244.8,215.8L239.95,213.1L240.6,206.15L245.3,209.3" style="fill:#9f78d0;"/>
                    <path d="M240.6,206.15L239.95,213.1L244.8,215.8L252.95,214.3L252.95,206.5L248.3,203.75L240.6,206.15Z" style="fill:none;fill-rule:nonzero;stroke:#000;stroke-opacity:0.6;stroke-width:0.7px;"/>
                    <path d="M261.2,198.95L261.2,198.8C261.3,198.1 262.05,197.1 263.45,195.8C264.483,194.8 264.567,194.183 263.7,193.95L263.4,193.85C259.5,192.717 258.083,191.417 259.15,189.95L253.35,188.95C251.417,188.717 250.45,188.317 250.45,187.75C250.45,187.15 251.317,186.65 253.05,186.25L258.75,185.65L264.15,185.85C264.183,185.817 265.6,185.067 268.4,183.6L268.45,183.6C271.283,182.367 275.5,181.55 281.1,181.15L281.65,181.15L282.85,181.35L287.75,180.9C288.55,180.467 289.867,179.933 291.7,179.3C293.5,178.633 293.583,179.133 291.95,180.8C290.117,182.133 290.267,183.5 292.4,184.9L292.3,184.95L292.6,185.1L293.5,188.55C293.633,189.25 293.617,189.883 293.45,190.45C294.317,192.45 295.717,193.567 297.65,193.8C303.517,195 305.217,196.65 302.75,198.75C300.217,200.783 297.7,200.8 295.2,198.8C293.467,196.567 290.45,195.6 286.15,195.9L287.95,195.9L285.5,196.2C283.967,196.367 282.2,196.4 280.2,196.3L272.25,195.7L272.3,195.65C269.867,195.117 266.933,196.467 263.5,199.7L263.6,200.2L261.2,198.95" style="fill:#a170d0;fill-opacity:0.6;"/>
                    <path d="M268.45,183.6L268.4,183.6L268.45,183.55L268.45,183.6" style="fill:#097dff;"/>
                    <path d="M297.8,184.35C298.533,183.983 299.417,183.8 300.45,183.8C301.483,183.8 302.35,183.983 303.05,184.35C303.783,184.683 304.15,185.1 304.15,185.6C304.15,186.1 303.617,186.617 302.55,187.15C301.417,187.683 300.4,187.917 299.5,187.85C298.6,187.783 297.917,187.517 297.45,187.05C296.95,186.583 296.7,186.1 296.7,185.6C296.7,185.1 297.067,184.683 297.8,184.35" style="fill:#c29de6;fill-opacity:0.6;"/>
                    <path d="M261.2,198.95L263.6,200.2C264.033,202.467 263.7,203.533 262.6,203.4C261.733,203.3 261.233,203.05 261.1,202.65C261,202.35 261.033,201.117 261.2,198.95" style="fill:#5d2d8c;fill-opacity:0.6;"/>
                    <path d="M278.65,188.75L274.8,190.75L277,188.4L272.7,189.05L277.05,187.55L277.5,185.5L279.1,186.8L283.25,185.05L280.9,187.3L285.55,187.1L280.85,188.35L281,190.55L278.65,188.75" style="fill:#fff;fill-opacity:0.85;"/>
                </g>
            </g>
        </g>
    </g>
</svg>
