<?xml version="1.0" encoding="UTF-8" standalone="no"?>
<!DOCTYPE svg PUBLIC "-//W3C//DTD SVG 1.1//EN" "http://www.w3.org/Graphics/SVG/1.1/DTD/svg11.dtd">
<svg width="100%" height="100%" viewBox="0 0 96 70" version="1.1" xmlns="http://www.w3.org/2000/svg" xmlns:xlink="http://www.w3.org/1999/xlink" xml:space="preserve" xmlns:serif="http://www.serif.com/" style="fill-rule:evenodd;clip-rule:evenodd;stroke-linecap:round;stroke-linejoin:round;">
    <g transform="matrix(1,0,0,1,-227.95,-165.4)">
        <g transform="matrix(1,0,0,1,0.55,-0.5)">
            <g id="sprite0">
                <g id="shape0">
                    <path d="M231.5,179.65L257.65,166.8L262.95,170.8L269.75,166.5L302.05,165.9L303.3,170L316.35,169.15L321.1,176.8L322.55,200.5L319.05,215.5L308.55,233.3L293.65,235L289.1,228.35L265.6,228.7L255.55,222.15L239.05,225.75L230.85,219.75L231.45,213.4L227.4,210.8L229.25,189.6L231.5,179.65" style="fill:#fff;fill-opacity:0.1;"/>
                    <path d="M235.25,184.6L258.1,175.1L262.75,178.05L268.7,174.85L297,174.4L298.15,177.45L309.5,176.85L313.75,182.5L315,200.2L311.95,211.35L302.7,224.6L289.65,225.85L285.7,220.85L265.1,221.15L256.25,216.3L241.8,219L234.6,214.5L235.15,209.75L231.6,207.8L233.25,192.05L235.25,184.6" style="fill:#fff;fill-opacity:0.4;"/>
                    <path d="M239.75,194.55L237.5,193.55L237.55,193.45L263.9,194.25L287.45,186.4L294,179.1L294.2,179.1L292.65,181.7L295.2,181.6L304.3,181.15L298.1,192.35L295.9,196.25L273.4,202.15L266.4,201.9L263.4,201.4L263.4,201.2L252.75,195.85L239.75,194.55M290.35,191.25L298.1,192.35L290.35,191.25" style="fill:#d5d7dd;"/>
                    <path d="M237.55,193.45L239.3,187.4L259.65,179.7L263.75,182.1C265.517,181.2 267.283,180.333 269.05,179.5L294,179.1L287.45,186.4L263.9,194.25L237.55,193.45M259.2,184.25L263.75,182.1L259.2,184.25" style="fill:#e9eaed;"/>
                    <path d="M237.5,193.55L239.75,194.55L239.65,208.05L236.05,206.25L237.5,193.55M252.75,195.85L263.4,201.2L263.4,201.4L260.6,214.3L253.1,210.3L252.75,195.85M287.65,220.9L284.15,216.85L286.55,202.65L289.9,207.5L287.65,220.9" style="fill:#9da2b3;"/>
                    <path d="M239.75,194.55L252.75,195.85L253.1,210.3L239.65,208.05L239.75,194.55M294.2,179.1L294.4,179.1L295.2,181.6L294.2,179.1L295.2,181.6L292.65,181.7L294.2,179.1M299.25,219.9L287.65,220.9L289.9,207.5L297.45,206L299.25,219.9" style="fill:#757b93;"/>
                    <path d="M273.4,202.15L295.9,196.25L298.1,192.35L306,193.5L297.6,205.95L297.45,206L289.9,207.5L286.55,202.65L286.45,202.55L273.4,202.15M304.3,181.15L305.3,181.1L309.05,185.7L309.1,186.4L306.45,193.2L306.35,193.5L306,193.5L298.1,192.35L304.3,181.15" style="fill:#c5c8cf;"/>
                    <path d="M266.4,201.9L273.4,202.15L286.45,202.55L286.55,202.65L284.15,216.85L265.8,217.1L266.4,201.9M307.45,209.1L299.25,219.9L297.45,206L297.6,205.95L306,193.5L306.45,193.5L307.45,209.1" style="fill:#61667c;"/>
                    <path d="M309.1,186.4L310.15,200.05L307.45,209.1L306.45,193.5L306.45,193.2L309.1,186.4" style="fill:#484b5b;"/>
                    <path d="M263.4,201.4L266.4,201.9L265.8,217.1L260.6,214.3L263.4,201.4" style="fill:#8c92a6;"/>
                    <path d="M237.55,193.45L239.3,187.4L259.65,179.7L263.75,182.1C265.517,181.2 267.283,180.333 269.05,179.5L294,179.1L294.2,179.1L295.2,181.6L304.3,181.15L305.3,181.1L309.05,185.7M309.1,186.4L310.15,200.05L307.45,209.1L299.25,219.9L287.65,220.9L284.15,216.85L265.8,217.1L260.6,214.3L253.1,210.3L239.65,208.05L236.05,206.25L237.5,193.55L237.55,193.45" style="fill:none;fill-rule:nonzero;stroke:#000;stroke-opacity:0.6;stroke-width:0.7px;"/>
                    <path d="M237.5,193.55L239.75,194.55L252.75,195.85L263.4,201.2L263.4,201.4L266.4,201.9L273.4,202.15L286.45,202.55L286.55,202.65L289.9,207.5L297.45,206L297.6,205.95L306,193.5L306.35,193.5L306.45,193.2L309.1,186.4L309.05,185.7L309.25,185.95L309.1,186.4M298.1,192.35L290.35,191.25M263.75,182.1L259.2,184.25M294.2,179.1L292.65,181.7L295.2,181.6M306.45,193.5L306.45,193.2M298.1,192.35L306,193.5" style="fill:none;fill-rule:nonzero;stroke:#000;stroke-opacity:0.6;stroke-width:0.4px;"/>
                    <path d="M252.15,206.85L244.75,209.55L240.25,206.5L247.7,204.2L252.15,206.85" style="fill:#e1e69d;"/>
                    <path d="M244.75,209.55L244.3,215.8L239.6,213.2L240.25,206.5L244.75,209.55" style="fill:#c5cf52;"/>
                    <path d="M252.15,206.85L252.2,214.4L244.3,215.8L244.75,209.55L252.15,206.85" style="fill:#5c5f1c;"/>
                    <path d="M244.3,215.8L252.2,214.4L252.15,206.85L247.7,204.2L240.25,206.5L239.6,213.2L244.3,215.8Z" style="fill:none;fill-rule:nonzero;stroke:#000;stroke-opacity:0.6;stroke-width:0.7px;"/>
                    <path d="M260.15,199.55L260.15,199.4C260.217,198.733 260.933,197.767 262.3,196.5C263.3,195.567 263.383,194.967 262.55,194.7L262.25,194.65C258.483,193.55 257.117,192.283 258.15,190.85L252.55,189.9C250.683,189.7 249.75,189.3 249.75,188.7C249.75,188.133 250.583,187.667 252.25,187.3L257.8,186.7L262.95,186.9L267.1,184.7L267.15,184.7C269.883,183.533 273.95,182.75 279.35,182.35L279.9,182.35L281.1,182.55L285.8,182.1C286.6,181.667 287.867,181.15 289.6,180.55C291.333,179.917 291.417,180.4 289.85,182C288.083,183.3 288.217,184.617 290.25,185.95L290.2,186L290.5,186.15L291.35,189.5C291.483,190.167 291.467,190.783 291.3,191.35C292.133,193.283 293.483,194.367 295.35,194.6C301.05,195.767 302.7,197.35 300.3,199.35C297.867,201.35 295.433,201.367 293,199.4C291.333,197.233 288.417,196.3 284.25,196.6L286,196.6L283.6,196.9C282.133,197.067 280.433,197.1 278.5,197L271.2,196.45L270.8,196.45L270.85,196.4C268.517,195.867 265.7,197.167 262.4,200.3L262.45,200.75L260.15,199.55" style="fill:#c8cf46;fill-opacity:0.6;"/>
                    <path d="M267.1,184.7L267.15,184.65L267.15,184.7L267.1,184.7" style="fill:#097dff;"/>
                    <path d="M298.05,184.95C299.05,184.95 299.9,185.117 300.6,185.45C301.333,185.783 301.7,186.183 301.7,186.65C301.7,187.117 301.167,187.617 300.1,188.15C299.033,188.65 298.05,188.867 297.15,188.8C296.283,188.733 295.633,188.483 295.2,188.05C294.7,187.583 294.45,187.117 294.45,186.65C294.45,186.183 294.8,185.783 295.5,185.45C296.233,185.117 297.083,184.95 298.05,184.95" style="fill:#e1e69d;fill-opacity:0.6;"/>
                    <path d="M262.45,200.75C262.883,202.95 262.567,203.983 261.5,203.85C260.633,203.783 260.15,203.55 260.05,203.15C259.95,202.85 259.983,201.65 260.15,199.55L262.45,200.75" style="fill:#5c5f19;fill-opacity:0.6;"/>
                    <path d="M275.9,186.55L277.45,187.85L281.45,186.15L279.25,188.35L283.7,188.15L279.15,189.35L279.25,191.45L277,189.75L273.35,191.65L275.4,189.4L271.3,190.05L275.45,188.55L275.9,186.55" style="fill:#fff;fill-opacity:0.89;"/>
                </g>
            </g>
        </g>
    </g>
</svg>
