<?xml version="1.0" encoding="UTF-8" standalone="no"?>
<!DOCTYPE svg PUBLIC "-//W3C//DTD SVG 1.1//EN" "http://www.w3.org/Graphics/SVG/1.1/DTD/svg11.dtd">
<svg width="100%" height="100%" viewBox="0 0 92 73" version="1.1" xmlns="http://www.w3.org/2000/svg" xmlns:xlink="http://www.w3.org/1999/xlink" xml:space="preserve" xmlns:serif="http://www.serif.com/" style="fill-rule:evenodd;clip-rule:evenodd;stroke-linecap:round;stroke-linejoin:round;">
    <g transform="matrix(1,0,0,1,-235.65,-170.9)">
        <g transform="matrix(1,0,0,1,236.05,171.3)">
            <g id="sprite0">
                <g id="shape0">
                    <path d="M90.2,31.8L90.4,43.15L69,66.6L68.15,56.7L87.2,35.2L90.2,31.8M25.75,65.55L12.1,60.55L12,52.55L16.8,52.9L27.3,56.55L25.75,65.55M52.75,60C54.117,60.1 55.183,59.817 55.95,59.15L55.6,67.1L52.75,60" style="fill:#8a1e00;"/>
                    <path d="M59.1,3.05L74.15,7L90.15,30.85L90.2,31.8L87.2,35.2L74.5,36.05L76.9,29.75L68.85,16.45L65.7,14.7L65.65,14.5L65,14.35L57.7,12.7L59.1,3.05" style="fill:#f24f00;"/>
                    <path d="M65.7,14.7L68.85,16.45L76.9,29.75L74.5,36.05L68.35,48.6L52.65,51L44.6,51.6L22.2,43.9L45.4,49.4L45.45,49.45L64.75,45L65.25,44.9L74.1,28.5L74.15,28.35L65.7,14.7" style="fill:#942201;"/>
                    <path d="M65.7,14.7L74.15,28.35L74.1,28.5L43.85,15.35L43.85,15.3L65,14.35L65.65,14.5L65.7,14.7" style="fill:#46c8c5;"/>
                    <path d="M8.6,17.45L16.9,6L47.25,0L59.1,3.05L57.7,12.7L41.2,9.05L41.15,9L21.3,14.65L21.2,14.85L16.9,23.2L8.6,17.45" style="fill:#ff9b6a;"/>
                    <path d="M21.2,14.85L21.3,14.65L41.15,9L41.2,9.05L43.75,15.25L21.2,14.85" style="fill:#e3f9f9;"/>
                    <path d="M43.85,15.3L43.85,15.35L43.7,15.3L43.85,15.3M15.7,26.15L43.35,15.55L22.1,43.7L20.1,38.3L15.7,26.15" style="fill:#92dedc;"/>
                    <path d="M43.8,15.5L43.7,15.3L43.85,15.35L43.8,15.5" style="fill:#5bcecb;"/>
                    <path d="M65,14.35L43.85,15.3L43.7,15.3L43.8,15.5L43.7,15.35L43.65,15.35L43.35,15.55L15.7,26.15L15.5,25.85L16.9,23.2L21.2,14.85L43.75,15.25L41.2,9.05L57.7,12.7L65,14.35" style="fill:#b0eeee;"/>
                    <path d="M45.4,49.4L22.2,43.9L22.1,43.7L43.35,15.55L43.65,15.35L43.7,15.35L43.75,15.55L45.4,49.4" style="fill:#78d6d3;"/>
                    <path d="M74.1,28.5L65.25,44.9L64.75,45L43.8,15.5L43.85,15.35L74.1,28.5" style="fill:#30a39f;"/>
                    <path d="M64.75,45L45.45,49.45L45.4,49.4L43.75,15.55L43.7,15.35L43.8,15.5L64.75,45" style="fill:#38bcb9;"/>
                    <path d="M87.2,35.2L68.15,56.7L56,59.15L56,59.1L52.65,51L68.35,48.6L74.5,36.05L87.2,35.2" style="fill:#ca4d00;"/>
                    <path d="M2.15,26.3L2.45,24.6L8.6,17.45L16.9,23.2L15.5,25.85L15.7,26.15L20.1,38.3L3.1,45.5L2.15,26.3" style="fill:#ffb093;"/>
                    <path d="M38.05,71.9L25.75,65.55L27.3,56.55L37.75,62.5L38.05,71.9M12.1,60.55L1.6,56.7L1.6,56.45L0,38.6L2.15,26.3L3.1,45.5L3.2,48.2L12,52.55L12.1,60.55" style="fill:#ca4200;"/>
                    <path d="M22.2,43.9L44.6,51.6L52.65,51L56,59.1L55.95,59.15C55.183,59.817 54.117,60.1 52.75,60L38.15,62.7L37.75,62.5L27.3,56.55L16.8,52.9L12,52.55L3.2,48.2L3.1,45.5L20.1,38.3L22.1,43.7L22.2,43.9" style="fill:#ff6a22;"/>
                    <path d="M69,66.6L38.05,71.9L37.75,62.5L38.15,62.7L52.75,60L55.6,67.1L55.95,59.15L56,59.15L68.15,56.7L69,66.6" style="fill:#a62d00;"/>
                    <path d="M55.95,59.15L56,59.1L56,59.15L55.95,59.15" style="fill:#fdca00;"/>
                    <path d="M90.2,31.8L90.4,43.15L69,66.6L38.05,71.9L25.75,65.55L12.1,60.55L1.6,56.7L1.55,56.7L1.6,56.45L0,38.6L2.15,26.3L2.45,24.6L8.6,17.45L16.9,6L47.25,0L59.1,3.05L74.15,7L90.15,30.85L90.2,31.8M1.6,56.45L1.6,56.7" style="fill:none;fill-rule:nonzero;stroke:#000;stroke-opacity:0.6;stroke-width:0.8px;"/>
                </g>
            </g>
        </g>
    </g>
</svg>
