<?xml version="1.0" encoding="UTF-8" standalone="no"?>
<svg xmlns:ffdec="https://www.free-decompiler.com/flash" xmlns:xlink="http://www.w3.org/1999/xlink" ffdec:objectType="shape" height="144.6px" width="192.9px" xmlns="http://www.w3.org/2000/svg">
  <g transform="matrix(2.0, 0.0, 0.0, 2.0, 96.4, 72.3)">
    <path d="M-48.2 -7.25 L-48.1 -21.1 -36.75 -25.15 -24.35 -22.95 -19.2 -24.4 -13.5 -26.6 -9.7 -25.05 -3.1 -28.6 7.9 -28.75 8.55 -33.45 18.65 -36.15 28.1 -29.1 28.3 -29.1 29.55 -25.7 42.2 -26.4 46.85 -20.1 48.25 -0.5 44.85 11.9 34.65 26.6 23.7 28.25 25.55 31.75 0.35 36.15 -6.85 22.75 -15.25 18.1 -21.2 13.0 -35.35 12.1 -40.3 10.15 -43.0 8.0 -41.6 -5.45 -48.2 -7.25" fill="#ffffff" fill-opacity="0.4" fill-rule="evenodd" stroke="none"/>
    <path d="M16.4 -27.65 L11.4 -31.05 19.65 -33.6 24.6 -30.65 16.4 -27.65" fill="#afafaf" fill-rule="evenodd" stroke="none"/>
    <path d="M16.4 -27.65 L24.6 -30.65 24.65 -22.3 15.9 -20.7 16.4 -27.65" fill="#605e5d" fill-rule="evenodd" stroke="none"/>
    <path d="M11.4 -31.05 L16.4 -27.65 15.9 -20.7 10.7 -23.6 11.4 -31.05" fill="#ffffff" fill-rule="evenodd" stroke="none"/>
    <path d="M24.6 -30.65 L19.65 -33.6 11.4 -31.05 10.7 -23.6 15.9 -20.7 24.65 -22.3 24.6 -30.65 Z" fill="none" stroke="#000000" stroke-linecap="round" stroke-linejoin="round" stroke-opacity="0.6" stroke-width="0.7000000000000001"/>
    <path d="M-36.45 -6.45 L-46.35 -9.7 -45.45 -19.95 -37.15 -16.05 -36.45 -6.45" fill="#ffffff" fill-rule="evenodd" stroke="none"/>
    <path d="M-26.4 -20.85 L-25.05 -9.1 -36.45 -6.45 -37.15 -16.05 -26.4 -20.85" fill="#605e5d" fill-rule="evenodd" stroke="none"/>
    <path d="M-45.45 -19.95 L-35.8 -22.45 -26.4 -20.85 -37.15 -16.05 -45.45 -19.95" fill="#afafaf" fill-rule="evenodd" stroke="none"/>
    <path d="M-36.45 -6.45 L-46.35 -9.7 -45.45 -19.95 -35.8 -22.45 -26.4 -20.85 -25.05 -9.1 -36.45 -6.45 Z" fill="none" stroke="#000000" stroke-linecap="round" stroke-linejoin="round" stroke-opacity="0.6" stroke-width="0.7000000000000001"/>
    <path d="M-35.25 -6.7 L-37.75 -7.8 -37.7 -7.95 -8.45 -7.05 17.65 -15.75 24.9 -23.85 25.1 -23.75 23.45 -20.95 26.25 -21.1 36.35 -21.6 29.45 -9.15 27.05 -4.85 2.05 1.7 -5.7 1.45 -9.05 0.9 -9.0 0.65 -20.85 -5.25 -35.25 -6.7 M20.85 -10.35 L29.45 -9.15 20.85 -10.35" fill="#40d825" fill-rule="evenodd" stroke="none"/>
    <path d="M-37.7 -7.95 L-35.75 -14.65 -13.2 -23.2 -8.65 -20.55 -2.75 -23.4 24.9 -23.85 17.65 -15.75 -8.45 -7.05 -37.7 -7.95 M-13.7 -18.15 L-8.65 -20.55 -13.7 -18.15" fill="#93dd7d" fill-rule="evenodd" stroke="none"/>
    <path d="M-37.75 -7.8 L-35.25 -6.7 -35.4 8.25 -39.35 6.25 -37.75 -7.8 M-20.85 -5.25 L-9.0 0.65 -9.05 0.9 -12.15 15.2 -20.45 10.75 -20.85 -5.25 M2.05 1.7 L27.05 -4.85 29.45 -9.15 38.25 -7.9 28.9 5.95 28.75 6.0 20.4 7.65 16.65 2.25 20.4 7.65 17.9 22.5 14.0 18.05 16.65 2.25 16.55 2.15 2.05 1.7 M36.35 -21.6 L37.45 -21.65 41.6 -16.55 41.7 -15.75 38.75 -8.2 38.65 -7.9 38.25 -7.9 29.45 -9.15 36.35 -21.6" fill="#1ab807" fill-rule="evenodd" stroke="none"/>
    <path d="M25.15 -23.85 L25.35 -23.85 26.25 -21.1 25.15 -23.85 26.25 -21.1 23.45 -20.95 25.1 -23.75 25.15 -23.85" fill="#757b93" fill-rule="evenodd" stroke="none"/>
    <path d="M24.9 -23.85 L25.15 -23.85 25.1 -23.75 24.9 -23.85" fill="#d5d7dd" fill-rule="evenodd" stroke="none"/>
    <path d="M-35.25 -6.7 L-20.85 -5.25 -20.45 10.75 -35.4 8.25 -35.25 -6.7 M-5.7 1.45 L2.05 1.7 16.55 2.15 16.65 2.25 14.0 18.05 -6.35 18.3 -5.7 1.45 M39.85 9.45 L30.75 21.4 28.75 6.0 28.9 5.95 38.25 -7.9 38.65 -7.9 38.75 -7.9 39.85 9.45" fill="#288817" fill-rule="evenodd" stroke="none"/>
    <path d="M41.7 -15.75 L42.85 -0.6 39.85 9.45 38.75 -7.9 38.75 -8.2 41.7 -15.75" fill="#1e6411" fill-rule="evenodd" stroke="none"/>
    <path d="M30.75 21.4 L17.9 22.5 20.4 7.65 28.75 6.0 30.75 21.4" fill="#32a91d" fill-rule="evenodd" stroke="none"/>
    <path d="M-9.05 0.9 L-5.7 1.45 -6.35 18.3 -12.15 15.2 -9.05 0.9" fill="#1edd09" fill-rule="evenodd" stroke="none"/>
    <path d="M-37.7 -7.95 L-35.75 -14.65 -13.2 -23.2 -8.65 -20.55 -2.75 -23.4 24.9 -23.85 25.15 -23.85 26.25 -21.1 36.35 -21.6 37.45 -21.65 41.6 -16.55 M41.7 -15.75 L42.85 -0.6 39.85 9.45 30.75 21.4 17.9 22.5 14.0 18.05 -6.35 18.3 -12.15 15.2 -20.45 10.75 -35.4 8.25 -39.35 6.25 -37.75 -7.8 -37.7 -7.95" fill="none" stroke="#000000" stroke-linecap="round" stroke-linejoin="round" stroke-opacity="0.6" stroke-width="0.7000000000000001"/>
    <path d="M-37.75 -7.8 L-35.25 -6.7 -20.85 -5.25 -9.0 0.65 -9.05 0.9 -5.7 1.45 2.05 1.7 16.55 2.15 16.65 2.25 20.4 7.65 28.75 6.0 28.9 5.95 38.25 -7.9 38.65 -7.9 38.75 -8.2 41.7 -15.75 41.6 -16.55 41.85 -16.25 41.7 -15.75 M29.45 -9.15 L20.85 -10.35 M25.1 -23.75 L25.15 -23.85 M26.25 -21.1 L23.45 -20.95 25.1 -23.75 M-8.65 -20.55 L-13.7 -18.15 M38.75 -7.9 L38.75 -8.2 M29.45 -9.15 L38.25 -7.9" fill="none" stroke="#000000" stroke-linecap="round" stroke-linejoin="round" stroke-opacity="0.6" stroke-width="0.4"/>
    <path d="M-4.2 6.3 L4.2 15.55 1.75 31.75 -5.0 23.45 -4.2 6.3" fill="#ffffff" fill-rule="evenodd" stroke="none"/>
    <path d="M19.35 13.85 L4.2 15.55 -4.2 6.3 14.3 7.35 19.35 13.85" fill="#afafaf" fill-rule="evenodd" stroke="none"/>
    <path d="M4.2 15.55 L19.35 13.85 21.1 28.35 1.75 31.75 4.2 15.55" fill="#605e5d" fill-rule="evenodd" stroke="none"/>
    <path d="M19.35 13.85 L14.3 7.35 -4.2 6.3 -5.0 23.45 1.75 31.75 21.1 28.35 19.35 13.85 Z" fill="none" stroke="#000000" stroke-linecap="round" stroke-linejoin="round" stroke-opacity="0.6" stroke-width="0.7000000000000001"/>
    <path d="M-12.65 -1.2 L-12.65 -1.25 -12.65 -1.35 Q-12.5 -2.45 -10.25 -4.55 -8.55 -6.15 -9.95 -6.55 L-10.3 -6.65 Q-16.55 -8.45 -14.85 -10.85 L-21.05 -11.9 Q-24.15 -12.25 -24.15 -13.2 -24.15 -14.15 -21.4 -14.8 L-15.25 -15.45 -9.5 -15.2 -4.9 -17.65 -4.85 -17.65 Q-0.3 -19.6 8.7 -20.25 L9.3 -20.25 10.6 -20.05 Q14.65 -19.95 15.85 -20.55 L20.05 -22.25 Q22.95 -23.3 20.35 -20.65 17.4 -18.5 20.8 -16.25 L20.7 -16.2 21.05 -16.05 22.0 -12.35 Q22.2 -11.2 21.95 -10.3 23.35 -7.05 26.45 -6.7 35.9 -4.75 31.9 -1.4 27.85 1.9 23.85 -1.35 21.05 -4.95 14.1 -4.45 L16.05 -4.45 13.4 -4.1 Q10.95 -3.85 7.75 -4.0 L-0.35 -4.6 -0.8 -4.65 -0.75 -4.7 Q-4.65 -5.55 -10.15 -0.35 L-10.05 0.15 -12.65 -1.2" fill="#ffffff" fill-opacity="0.6" fill-rule="evenodd" stroke="none"/>
    <path d="M-4.85 -17.65 L-4.9 -17.65 -4.85 -17.7 -4.85 -17.65" fill="#097dff" fill-rule="evenodd" stroke="none"/>
    <path d="M26.6 -16.85 Q27.8 -17.4 29.45 -17.4 31.1 -17.4 32.25 -16.85 33.45 -16.3 33.45 -15.5 33.45 -14.7 31.7 -13.85 29.9 -13.0 28.45 -13.1 27.0 -13.2 26.25 -13.95 25.45 -14.7 25.45 -15.5 25.45 -16.3 26.6 -16.85" fill="#ffffff" fill-opacity="0.4" fill-rule="evenodd" stroke="none"/>
    <path d="M-12.65 -1.2 L-10.05 0.15 Q-9.35 3.8 -11.15 3.6 -12.55 3.45 -12.75 2.8 -12.9 2.3 -12.65 -1.2" fill="#8b8b8b" fill-opacity="0.6" fill-rule="evenodd" stroke="none"/>
    <path d="M-3.75 -16.6 L-2.0 -15.15 2.45 -17.05 -0.05 -14.65 4.9 -14.85 -0.1 -13.55 0.0 -11.15 -2.55 -13.1 -6.6 -10.95 -4.25 -13.45 -8.9 -12.75 -4.2 -14.4 -3.75 -16.6" fill="#303030" fill-opacity="0.6" fill-rule="evenodd" stroke="none"/>
    <path d="M18.7 -16.9 L13.7 -15.6 13.8 -13.2 11.25 -15.15 7.2 -13.0 9.55 -15.5 4.9 -14.8 9.6 -16.45 10.05 -18.65 11.8 -17.2 16.25 -19.1 13.75 -16.7 18.7 -16.9" fill="#303030" fill-opacity="0.6" fill-rule="evenodd" stroke="none"/>
    <path d="M1.15 -6.05 L5.85 -7.7 6.3 -9.9 8.05 -8.45 12.5 -10.35 10.0 -7.95 14.95 -8.15 9.95 -6.85 10.05 -4.45 7.5 -6.4 3.45 -4.25 5.8 -6.75 1.15 -6.05" fill="#303030" fill-opacity="0.6" fill-rule="evenodd" stroke="none"/>
  </g>
</svg>
