<?xml version="1.0" encoding="UTF-8" standalone="no"?>
<!DOCTYPE svg PUBLIC "-//W3C//DTD SVG 1.1//EN" "http://www.w3.org/Graphics/SVG/1.1/DTD/svg11.dtd">
<svg width="100%" height="100%" viewBox="0 0 92 100" version="1.1" xmlns="http://www.w3.org/2000/svg" xmlns:xlink="http://www.w3.org/1999/xlink" xml:space="preserve" xmlns:serif="http://www.serif.com/" style="fill-rule:evenodd;clip-rule:evenodd;stroke-linecap:round;stroke-linejoin:round;">
    <g transform="matrix(1,0,0,1,-232.75,-130.1)">
        <g transform="matrix(1,0,0,1,3.35,-20.65)">
            <g id="sprite0">
                <g id="shape0">
                    <path d="M320,221.55L306.95,235.45L304.9,236.3L301.25,236L303.6,238.75L298.25,239.05L277.9,242.5L271.1,241.9L268.35,243.45L263.25,244.15L261.8,247L257.65,246.95L256.05,247.45L251.35,244.55L251.15,242L249,241.85L241.1,230.3L242.85,224.5L250.95,221.25L254,218L258.1,215.85L259.75,219.5L268.5,218.2L278.65,214.8L283.6,215.75L284.15,215.8L293.55,215.3L296.45,212.55L300.6,212.45L319.3,218.7L320,221.55" style="fill:#ffdbbf;fill-opacity:0.25;"/>
                    <path d="M316.5,221.7L304.05,234.95L302.15,235.85L298.8,235.6L300.8,238.1L295.8,238.5L276.85,242L270.45,241.65L267.85,243.2L263.1,243.9L261.75,246.5L257.85,246.55L256.3,247.1L252,244.45L251.75,241.95L249.9,241.9L242.65,231.15L244.4,225.6L252,222.55L254.95,219.45L258.75,217.25L260.35,220.7L268.45,219.4L278.1,216.05L282.55,216.85L283.15,216.9L291.95,216.2L294.7,213.55L298.55,213.45L315.9,219L316.5,221.7" style="fill:#ffdcc1;fill-opacity:0.45;"/>
                    <path d="M285.85,239.3L284.8,239.5L280.9,236.35L282.85,230.95L280.45,229.9L276.55,230.2L275.3,227.8L271.6,228.2L269.55,231.35L261.7,228.6L262,225.5L257.5,224.2L257.45,226.5L253.9,230.55L248.5,230.85L247.15,234.1L246.55,233.25L247.9,230.2L246.85,227.95L245.4,231.35L245.15,231L246.7,225.95L253.7,223.05L256.4,220.2L258.3,222.05L258.3,222.15L263.1,223.7L263.15,227.1L269.4,229.5L271.35,227.55L275.35,226.75L276.35,228.95L281.15,228.65L283.95,229.9L281.45,236.25L285.85,239.3M270.7,240.75L268.35,242.15L264.1,242.9L263.95,241.65L264,241.65L267,240.95L268.05,239.25L268.1,239.25L270.7,240.75M257.8,222.55L256.35,221.15L254.3,223.55L256.5,226.1L256.75,224L257.8,222.55M255.95,226.35L253.5,224.1L248.05,226.2L253.25,229.85L255.95,226.35M251.85,229.65L247.3,227.1L248.85,229.95L251.85,229.65" style="fill:#826b55;"/>
                    <path d="M256.4,220.2L259,219.55L259.9,221.8L258.3,222.1L258.3,222.05L256.4,220.2M257.8,222.55L256.75,224L256.5,226.1L254.3,223.55L256.35,221.15L257.8,222.55M251.85,229.65L248.85,229.95L247.3,227.1L251.85,229.65" style="fill:#9c8369;"/>
                    <path d="M284.8,239.5L281.35,240.05L279.65,237.75L281.05,231.4L279.8,230.6L276.25,230.95L275.65,231.65L274.6,229.2L272.8,229.35L270.8,233.05L272.35,235.5L271.05,237.15L266.2,235.05L262,235.55L262.1,233.1L257.7,235.05L258.15,237.7L254.45,238.7L254.5,240.55L257.85,243.1L259.2,242.9L258.45,245.45L258.45,245.5L258.05,245.65L257.7,245.65L253.75,243.3L253.6,240.95L251.65,240.9L247.15,234.1L248.5,230.85L253.9,230.55L257.45,226.5L257.5,224.2L262,225.5L261.7,228.6L269.55,231.35L271.6,228.2L275.3,227.8L276.55,230.2L280.45,229.9L282.85,230.95L280.9,236.35L284.8,239.5M258,227.45L260.6,229.95L260.9,226.7L257.85,226.15L258,227.45M254.5,234.6L253.55,231.3L249.4,231.55L253.4,236.3L254.5,234.6M258.05,245.65L258.45,245.45L258.05,245.65M266.1,235.9L266.85,238.3L265.95,240.3L264,240.95L262.15,236.65L266.1,235.9" style="fill:#43372c;"/>
                    <path d="M281.35,240.05L276.15,240.9L276,240.85L275.85,240.9L275.6,240.85L270.8,240.7L270.7,240.75L268.1,239.25L268.05,239.25L267,240.95L264,241.65L263.95,241.65L264.1,242.9L264.05,242.85L261.8,245.15L259.65,245L258.9,245.3L258.45,245.5L258.45,245.45L258.9,245.3L258.45,245.45L259.2,242.9L257.85,243.1L254.5,240.55L254.45,238.7L258.15,237.7L257.7,235.05L262.1,233.1L262,235.55L266.2,235.05L271.05,237.15L272.35,235.5L270.8,233.05L272.8,229.35L274.6,229.2L275.65,231.65L276.25,230.95L279.8,230.6L281.05,231.4L279.65,237.75L281.35,240.05M258,227.45L257.85,226.15L260.9,226.7L260.6,229.95L258,227.45M266.1,235.9L262.15,236.65L264,240.95L265.95,240.3L266.85,238.3L266.1,235.9M261.7,243.15L264.05,242.85L261.7,243.15" style="fill:#1d1712;"/>
                    <path d="M246.55,233.25L245.4,231.35L246.85,227.95L247.9,230.2L246.55,233.25M255.95,226.35L253.25,229.85L248.05,226.2L253.5,224.1L255.95,226.35M254.5,234.6L253.4,236.3L249.4,231.55L253.55,231.3L254.5,234.6" style="fill:#655443;"/>
                    <path d="M312.8,219.85L313.35,222.35L302.3,234M281.55,217.9L292.15,218.15L295.6,216.6L296.75,214.8L298.1,214.5M301.9,234.55L300.05,235.35L297.25,234.6L298.2,236.1L294.25,237.85M285.85,239.3L284.8,239.5L281.35,240.05L276.15,240.9L276,240.85M275.6,240.85L270.8,240.7L270.7,240.75L268.35,242.15L264.1,242.9L264.05,242.85L261.8,245.15M259.65,245L258.9,245.3L258.45,245.45L258.05,245.65L257.7,245.65L253.75,243.3L253.6,240.95L251.65,240.9L247.15,234.1L246.55,233.25L245.4,231.35L245.15,231L246.7,225.95L253.7,223.05L256.4,220.2L259,219.55L259.9,221.8L269,220.9M290.35,238.5L285.85,239.3M258.3,222.1L259.9,221.8M264.05,242.85L261.7,243.15" style="fill:none;fill-rule:nonzero;stroke:#000;stroke-opacity:0.4;stroke-width:0.6px;"/>
                    <path d="M261.8,245.15L259.65,245" style="fill:none;fill-rule:nonzero;stroke:#2b0600;stroke-width:0.6px;"/>
                </g>
                <g id="sprite1" transform="matrix(0.4908,0.3988,-0.3988,0.4908,280.9,193.4)">
                    <g id="shape1">
                        <path d="M67.4,3.2L67.7,3.45L65.85,28.85L65.85,29.15L59.7,21.35L67.4,3.2" style="fill:#b37e27;"/>
                        <path d="M41.8,8.35L42.65,7.35L63.25,0L67.4,3.2L59.7,21.35L47.85,26.25L47.75,26.25L41.8,8.35" style="fill:#ffdf72;"/>
                        <path d="M65.85,29.15L65.8,29.9L64.4,32.65L60.15,34.5L62.9,35.5L59.8,41.6L56,45.9L39.6,43.1L39.25,42L39.4,41.95L47.6,26.7L47.8,26.35L47.85,26.25L59.7,21.35L65.85,29.15" style="fill:#ae7520;"/>
                        <path d="M40.05,14.5L40.2,14.15L39.8,10.7L41.8,8.35L47.75,26.25L47.8,26.35L47.6,26.7L40.05,14.5" style="fill:#ffce65;"/>
                        <path d="M34.3,43.55L28.95,48.55L25.55,46.8L21.4,51.7L21,56.1L13.7,58.5L11.95,45.8L22.95,30.8L34.3,43.55" style="fill:#ffbc57;"/>
                        <path d="M39.4,41.95L34.5,43.35L34.3,43.55L22.95,30.8L23.35,30.3L37.55,19.5L40.05,14.5L47.6,26.7L39.4,41.95M13.7,58.5L10.95,59.4L7.4,55.25L0.05,58.1L0,58.05L1.65,56.1L11.95,45.8L13.7,58.5" style="fill:#edb350;"/>
                        <path d="M56,45.9L50.8,51.75L42.5,52.4L39.6,43.1L56,45.9" style="fill:#a66716;"/>
                    </g>
                </g>
                <g id="shape2">
                    <path d="M281.65,166.7L281.75,165.95L286.7,161.8L315,150.75L318.6,153.55L316.4,183.55L315.9,184.55L319.15,187.6L320.5,193.9L318.6,208.85L306,211.1L297.7,210.55L288.55,221.2L279.9,227.25L278.2,231.95L272.85,237.9L273.8,242.65L268.75,246.75L267.35,249L259,250.15L256.15,247.2C255.217,247.767 254.317,248.433 253.45,249.2L232.9,242.85L229.4,234L235.9,222L236.45,215L239.1,208.25L244.8,211L253.85,200.85L260.65,189.85L258.8,177.6L260.05,170.2L270.95,166.7L281.65,166.7" style="fill:#ffdbbf;fill-opacity:0.25;"/>
                    <path d="M271.85,169.2L282,169.2L282.1,168.45L286.75,164.5L313.55,153.95L316.95,156.65L314.85,185.3L314.4,186.25L317.5,189.15L318.75,195.15L316.95,209.45L305,211.6L297.2,211.1L288.5,221.25L280.3,227.05L278.7,231.5L273.65,237.2L274.55,241.75L269.75,245.65L268.45,247.8L260.55,248.9L257.8,246.05C256.933,246.583 256.1,247.217 255.3,247.95L235.8,241.9L232.5,233.45L238.65,222L239.15,215.35L241.7,208.9L247.05,211.5L255.65,201.8L262.1,191.3L260.35,179.6L261.5,172.55L271.85,169.2" style="fill:#ffdcc1;fill-opacity:0.45;"/>
                    <path d="M265,177.55L264.95,173.4C268.617,172.167 272.65,171.383 277.05,171.05L279.35,170.9L278.5,174.2L274.4,174.55L273.95,174.65C272.45,174.85 271.033,175.183 269.7,175.65L269.75,181.55L269.75,181.85L265.05,181.05L265,179.45L265.75,178.15L265,177.55M309.6,166.15L306.75,171.75L306.55,174.45L306.45,174.5L305.3,174.15L292.1,179.6L291.15,176.45L291.3,176.4L309.6,166.15" style="fill:#9c8267;"/>
                    <path d="M279.35,170.9L281.3,170.85L284.45,174.9L286.1,177.05L286.2,177.25L281.3,185.45L281.15,185.8L267.6,186.45L265.15,184.45L265.05,184.1L265.05,181.05L269.75,181.85L269.75,182.05L271.25,183.2L276.15,182.3L277.35,181.35L282,177.8L279.2,174.2L278.5,174.2L279.35,170.9M277.35,187.9L281.15,185.8L281.3,185.8L281.3,185.45L285.4,182.7L290.25,178.45L290.3,178.5L291.55,181.25L273.8,194.4L258.8,207.6L251.1,209.5L250.95,206.15L255.25,205.65L257.2,205.2L270.95,192.55L277.35,187.9M246.05,215.25L253.4,212.4L256.95,216.55L267,213.25L267.4,208.85L271.55,203.95L274.95,205.7L280.5,200.5L285.25,199.15L288.5,209.55L296.8,208.9L295.8,210.05L287.95,210.2L284.9,201.6L280.85,202.8L276.4,207L272.4,205.25L268.4,209.3L268.95,215.35L256.65,219.9L253.85,215.7L246.95,218.55L249.3,221.55L249,230L242.65,235.7L244.2,241.05L242.75,240.6L241.2,235.5L237.7,233.9L239.25,239.5L238.65,239.3L235.55,231.55L241.25,220.95L241.75,214.8L245.95,215.2L245.95,215.25L246.05,215.25M300.45,185.9L312.8,187.6L313.95,188.8L309.55,191.8L308.6,190.75L301.45,191.25L301.25,191.4L297.65,194.4L296.55,195.3L299.15,199.75L300.85,199.85L303.95,199.95L305.4,203.55L296.6,203.15L296.3,202.8L296.3,202.75L292.8,196.85L300.45,185.9M279.75,225.8L278.35,229.7L273.75,234.9L272.4,233.65L272.45,233.6L275.4,229.65L275.1,226.6L275.15,226.6L279.75,225.8M286.55,220.45L286.35,220.7L286.25,220.8L286.55,220.45M247.75,221.9L245.9,219.1L245.8,216.3L242.65,216.05L242.4,220.95L247.75,221.9M247.45,229.75L247.35,222.85L242.05,222.35L237.45,230.5L247.45,229.75M242.2,234.35L245.5,231L237.45,232.35L242.2,234.35" style="fill:#826b55;"/>
                    <path d="M278.5,174.2L279.2,174.2L282,177.8L277.35,181.35L275.05,180.5L269.75,181.55L269.7,175.65C271.033,175.183 272.45,174.85 273.95,174.65L274.4,174.55L278.5,174.2M265,177.55L265.75,178.15L265,179.45L265,177.55M315.05,206.6L315.05,206.65L309.4,208.35L309.3,208.35L309.65,203.2L314.15,202.45L315.05,206.6M297.65,194.4L302.85,195.6L305.2,196.1L303.4,196.55L300.85,199.85L299.15,199.75L296.55,195.3L297.65,194.4M269.45,243.75L267.85,239.85L266.35,241.45L259.6,241.6L257.8,239.35L261.3,234.45L258.25,231.65L261.65,224.85L263.9,227.95L268.45,223.4L276.55,221.05L276.6,217.7L272.15,216.15L270.9,209.7L273,207.75L276.8,209.65L276.8,208.25L280.8,204.15L283.2,203.9L287.8,213.05L292.1,214.2L286.55,220.45L286.25,220.8L285.85,221.05L279.8,225.6L279.75,225.8L275.15,226.6L275.1,226.6L275.4,229.65L272.45,233.6L272.4,233.65L273.75,234.9L273.65,235L273.2,240C271.933,240.5 271.017,241.2 270.45,242.1L269.85,243.15L269.45,243.8L269.45,243.75L269.85,243.15L269.45,243.75M251,222.1L249.4,220.55L253.7,218.3L256.6,222.6L251,222.1M271.6,232.6L273.45,229.95L272.65,226.55L269.2,224.35L265.15,229.25L271.6,232.6M271.2,237.75L273.65,235L271.2,237.75" style="fill:#1d1712;"/>
                    <path d="M265.05,184.1L265.15,184.45L265.05,184.4L265.05,184.1M281.15,185.8L281.3,185.45L281.3,185.8L281.15,185.8M292.3,181.7L292.35,181.8L292.25,181.75L292.3,181.7" style="fill:#8dc2c0;"/>
                    <path d="M265.15,184.45L267.6,186.45L281.15,185.8L277.35,187.9L269.35,187.5L269.35,187.45L269.2,187.6L266.9,190.7L266.2,190.05L265.15,184.45M281.3,185.45L286.2,177.25L286.85,178.85L285.4,182.7L281.3,185.45M292.1,181.65L274.9,194.6L274.85,194.6L259.05,209.1L258.8,209.15L252.35,210.95L251.2,210.4L251.15,210.4L251.1,209.8L251.1,209.5L258.8,207.6L273.8,194.4L291.55,181.25L292.1,181.65M309.6,166.15L310,165.9L310.55,166.7L307.75,173.4L307.9,173.3L307.05,175.3L292.7,180.2L293.2,181.65L292.9,182.7L292.35,181.85L292.35,181.8L292.3,181.7L292.25,181.5L292.25,181.4L292.45,180.5L292.1,179.6L305.3,174.15L306.45,174.5L306.55,174.45L306.75,171.75L309.6,166.15M315.25,190.35L316.65,195.2L315.05,206.6L314.15,202.45L314.15,202.35L315.25,190.35M309.3,208.35L298.05,208L296.55,203.2L296.6,203.15L305.4,203.55L309.65,203.2L309.3,208.35M301.25,191.4L302.85,195.6L297.65,194.4L301.25,191.4M244.2,241.05L242.65,235.7L249,230L249.3,221.55L246.95,218.55L253.85,215.7L256.65,219.9L268.95,215.35L268.4,209.3L272.4,205.25L276.4,207L280.85,202.8L284.9,201.6L287.95,210.2L295.8,210.05L292.1,214.2L287.8,213.05L283.2,203.9L280.8,204.15L276.8,208.25L276.8,209.65L273,207.75L270.9,209.7L272.15,216.15L276.6,217.7L276.55,221.05L268.45,223.4L263.9,227.95L261.65,224.85L258.25,231.65L261.3,234.45L257.8,239.35L259.6,241.6L266.35,241.45L267.85,239.85L269.45,243.75L269.1,244.35L269.45,243.75L269.45,243.8L269.1,244.35L268.8,244.75L261.55,245.8L259,243.15C258.167,243.65 257.383,244.233 256.65,244.9L244.2,241.05M251,222.1L256.6,222.6L253.7,218.3L249.4,220.55L251,222.1M244.4,235.75L254.2,237.55L253.75,234.3L249.2,231.2L244.4,235.75M271.6,232.6L265.15,229.25L269.2,224.35L272.65,226.55L273.45,229.95L271.6,232.6" style="fill:#43372c;"/>
                    <path d="M292.25,181.4L292.25,181.5L292.3,181.7L292.2,181.6L292.2,181.55L292.25,181.4M292.9,182.7L293.2,181.65L293.75,183.4L293.8,183.5L293.6,183.85L292.9,182.7" style="fill:#cde4e3;"/>
                    <path d="M290.3,178.5L290.25,178.45L290.25,178.4L290.3,178.5M290.95,175.9L291.3,176.4L291.15,176.45L290.95,175.9" style="fill:#bcdad9;"/>
                    <path d="M291.55,181.25L290.3,178.5L290.6,178L291,177.05L290.95,175.9L291.15,176.45L292.1,179.6L292.45,180.5L292.25,181.4L292.2,181.55L292.2,181.6L292.3,181.7L292.25,181.75L292.1,181.65L291.55,181.25" style="fill:#a68d75;"/>
                    <path d="M292.8,196.85L292.05,195.55L297.8,185.55L300.45,185.9L292.8,196.85M302.85,195.6L301.25,191.4L301.45,191.25L308.6,190.75L309.55,191.8L310,192.25L309.75,194.95L309.75,195.05L305.2,196.1L302.85,195.6" style="fill:#6f5b48;"/>
                    <path d="M313.95,188.8L315.25,190.2L315.25,190.35L314.15,202.35L314.15,202.45L309.65,203.2L305.4,203.55L303.95,199.95L304.75,199.95L309.35,199.35L309.75,195.05L309.75,194.95L310,192.25L309.55,191.8L313.95,188.8" style="fill:#aa947d;"/>
                    <path d="M259.05,209.1L258.85,209.3L258.8,209.15L259.05,209.1M246,215.2L246.05,215.25L245.95,215.25L246,215.2" style="fill:#a3cdcb;"/>
                    <path d="M247.65,213.25L246,215.2L245.95,215.2L241.75,214.8L244.3,211.4L247.65,213.25M247.75,221.9L242.4,220.95L242.65,216.05L245.8,216.3L245.9,219.1L247.75,221.9M242.2,234.35L237.45,232.35L245.5,231L242.2,234.35" style="fill:#9c8369;"/>
                    <path d="M247.45,229.75L237.45,230.5L242.05,222.35L247.35,222.85L247.45,229.75M244.4,235.75L249.2,231.2L253.75,234.3L254.2,237.55L244.4,235.75M239.25,239.5L237.7,233.9L241.2,235.5L242.75,240.6L239.25,239.5" style="fill:#655443;"/>
                    <path d="M284.45,174.9L286.2,171.3L285.8,167.85L287.2,166.15M251.1,209.8L247.65,213.25L246,215.2M296.8,208.9L297.65,207.95M310.55,158.15L313.7,160.6L311.85,186M295.8,210.05L296.8,208.9M244.2,241.05L256.65,244.9C257.383,244.233 258.167,243.65 259,243.15L261.55,245.8L268.8,244.75L269.1,244.35L269.45,243.75L269.85,243.15L270.45,242.1M292.1,214.2L295.8,210.05M285.85,221.05L279.8,225.6L279.75,225.8L278.35,229.7L273.75,234.9L273.65,235L273.2,240M286.55,220.45L292.1,214.2M286.35,220.7L286.55,220.45M255.25,205.65L257.9,203M241.75,214.8L244.3,211.4L247.65,213.25M273.65,235L271.2,237.75M241.75,214.8L241.25,220.95L235.55,231.55L238.65,239.3L239.25,239.5L242.75,240.6L244.2,241.05" style="fill:none;fill-rule:nonzero;stroke:#000;stroke-opacity:0.4;stroke-width:0.6px;"/>
                    <path d="M273.2,240C271.933,240.5 271.017,241.2 270.45,242.1" style="fill:none;fill-rule:nonzero;stroke:#2b0600;stroke-width:0.6px;"/>
                </g>
                <g id="shape3" transform="matrix(1,0,0,1,246,157.15)">
                    <path d="M47.85,26.25L47.75,26.25L47.2,24.5L60.6,19.25L59.7,21.35L47.85,26.25M64.55,9.55L64,8.75L45.3,19.25L41.8,8.35L42.65,7.35L63.25,0L67.4,3.2L64.95,9.4L64.6,9.6L64.55,9.55" style="fill:#ffdf72;"/>
                    <path d="M67.4,3.2L67.7,3.45L65.85,29.15L59.7,21.35L60.6,19.25L61.05,18.15L61.9,16.15L61.75,16.25L64.55,9.55L64.6,9.6L64.95,9.4L67.4,3.2" style="fill:#b47e27;"/>
                    <path d="M65.85,29.15L65.8,29.9L65.6,30.3L51.8,28.4L46.05,38.4L49.85,44.85L39.6,43.1L39.25,42L39.4,41.95L47.6,26.7L47.85,26.25L59.7,21.35L65.85,29.15" style="fill:#af7520;"/>
                    <path d="M49.85,44.85L50.3,45.6L50.3,45.65L50.6,46L50.55,46.05L52.05,50.85L51.65,50.8L50.8,51.75L42.5,52.4L39.6,43.1L49.85,44.85" style="fill:#a76716;"/>
                    <path d="M39.25,42L34.5,43.35L34.3,43.55L29.8,38.5L46.9,25.55L47.6,26.7L39.4,41.95L39.25,42M13.7,58.5L10.95,59.4L7.4,55.25L0.05,58.1L0,58.05L5.1,52.65L5.15,53.25L5.2,53.25L6.35,53.8L13.1,54L13.7,58.5M44.25,21.3L39.4,25.55L40.85,21.7L40.1,19.9L38.45,17.75L40.05,14.5L44.25,21.3M11.95,45.8L12.2,47.05L11.2,48.05L9.25,48.5L11.95,45.8M27.65,33.6L22.95,30.8L23.2,30.45L23.35,30.3L23.35,30.35L31.35,30.75L27.65,33.6" style="fill:#eeb350;"/>
                    <path d="M34.3,43.55L28.95,48.55L25.55,46.8L21.4,51.7L21,56.1L13.7,58.5L13.1,54L29.8,38.5L34.3,43.55M12.2,47.05L11.95,45.8L22.95,30.8L27.65,33.6L24.95,35.4L12.2,47.05" style="fill:#ffbc57;"/>
                    <path d="M6.35,53.8L12.8,52L12.85,52.15L13.1,54L6.35,53.8" style="fill:#b27923;"/>
                    <path d="M12.85,52.15L28.85,37.45L28.9,37.45L29.8,38.5L13.1,54L12.85,52.15" style="fill:#bc8c31;"/>
                    <path d="M28.9,37.45L46.1,24.5L46.35,24.65L46.35,24.7L46.9,25.55L29.8,38.5L28.9,37.45M47.2,24.5L46.7,23.05L61.05,18.15L60.6,19.25L47.2,24.5" style="fill:#a25c0e;"/>
                    <path d="M45.3,19.25L44.95,18.75L45,19.9L44.6,20.85L44.3,21.35L44.25,21.25L44.25,21.3L40.05,14.5L40.2,14.15L39.8,10.7L41.8,8.35L45.3,19.25" style="fill:#ffce65;"/>
                </g>
            </g>
        </g>
    </g>
</svg>
