<?xml version="1.0" encoding="UTF-8"?>
<svg version="1.1" viewBox="0 0 321.4 212.1" xmlns="http://www.w3.org/2000/svg" xmlns:cc="http://creativecommons.org/ns#" xmlns:dc="http://purl.org/dc/elements/1.1/" xmlns:rdf="http://www.w3.org/1999/02/22-rdf-syntax-ns#" xmlns:xlink="http://www.w3.org/1999/xlink">
<metadata>
<rdf:RDF>
<cc:Work rdf:about="">
<dc:format>image/svg+xml</dc:format>
<dc:type rdf:resource="http://purl.org/dc/dcmitype/StillImage"/>
</cc:Work>
</rdf:RDF>
</metadata>
<g transform="translate(-135.1 -50.55)">
<use transform="translate(135.1,50.55)" width="321.39999" height="212.10001" xlink:href="#b"/>
<use transform="matrix(.1069 -2.7007 2.7007 .1069 287.61 179.98)" width="5.8000002" height="59.450001" xlink:href="#a"/>
</g>
<defs>
<g id="b" transform="translate(-135.1,-50.55)">
<path d="m393.55 189.65-0.15-0.65 7.4 0.35 11.8 0.6 0.6 2.8q-10.35 7.4-19.65-3.1m51.5 1.85 7.4 0.35 1.5 7.2q-6.95 12.1-19.65-3.05l-1.05-5.05 11.8 0.55m5.4 25.65 1.6 7.7-11.8-0.55-2.15-10.3q2.95-9.6 12.35 3.15m-34-8.9 3.15 15.05-12.8-0.65-2.8-13.25-6.4-0.3-1.3-6.2q8.85-6.85 20.15 5.35" fill="#d58f1e" fill-rule="evenodd"/>
<path d="m400.8 189.35-1.25-6.05 44.25 2.15 1.25 6.05-11.8-0.55 1.05 5.05 0.3 1.3-20.65-1-0.75-3.55-0.6-2.8-11.8-0.6" fill="#8f6114" fill-rule="evenodd"/>
<path d="m453.95 199.05 2.35 11.25-7.4-0.35 1.55 7.2q-9.4-12.75-12.35-3.15l-3.5-16.7-0.3-1.3q12.7 15.15 19.65 3.05m-40-2.75 2.5 11.95q-11.3-12.2-20.15-5.35l-2.75-13.25q9.3 10.5 19.65 3.1l0.75 3.55" fill="#f3c55a" fill-rule="evenodd"/>
<path d="m393.55 189.65-0.15-0.65 7.4 0.35-1.25-6.05m44.25 2.15 1.25 6.05 7.4 0.35 1.5 7.2 2.35 11.25-7.4-0.35 1.55 7.2 1.6 7.7-11.8-0.55-2.15-10.3-3.5-16.7-20.65-1 2.5 11.95 3.15 15.05-12.8-0.65-2.8-13.25-6.4-0.3-1.3-6.2-2.75-13.25z" fill="none" stroke="#5f3707" stroke-linecap="round" stroke-linejoin="round" stroke-width=".4"/>
<path d="m188.9 119.3 0.6-14.4 29.1-13-25.2 44.55-2.2-8.4-2.3-8.75" fill="#cbb08d" fill-rule="evenodd"/>
<path d="m189.6 148.05 1.6-20 2.2 8.4 0.35 1.2-4.15 10.4" fill="#d0b999" fill-rule="evenodd"/>
<path d="m218.6 91.9 8.55-3.8 43.1 32.45-70.15 66.2-13.1-6.75-0.15-0.65 0.15 0.65-0.2-0.05 0.05-0.6v-0.65l0.9-25.95 1.85-4.7 4.15-10.4-0.35-1.2 25.2-44.55m-19.65 95.95-38.95 36.75-23.55-8.15-0.05-0.7 49.05-28 0.35 0.05 3.1 0.05h10.05" fill="#c09f74" fill-rule="evenodd"/>
<path d="m289.25 134.85-6.4 48.05-0.1 0.6-93.3 51.05-0.15 0.05-0.15 0.1-29.15-10.1 38.95-36.75h3.35l-2.2-1.1 70.15-66.2 19 14.3m-41.6 57.95-16.7 0.8-8.65-5.75h-20 20l8.65 5.75 16.7-0.8m-58.25 40.05 0.05 1.7-0.05-1.7m47.2-35.5-5.65-3.75 5.65 3.75" fill="#b99666" fill-rule="evenodd"/>
<path d="m289.25 134.85 8.45 28.65-9.8 51.5-4.95-31.55 4.95 31.55-88.65 44.8-9.8-24.8 9.8 24.8-9.25 2.35-0.55-27.15v-0.45l93.3-51.05 0.2-0.05-0.1-0.55 6.4-48.05" fill="#715633" fill-rule="evenodd"/>
<path d="m187 180 13.1 6.75 2.2 1.1h-13.4l-1.9-7.85m-27 44.6 29.15 10.1 0.15-0.1 0.15 0.4 0.55 27.15-50.9-19.9-2.65-25.8 23.55 8.15" fill="#b48c58" fill-rule="evenodd"/>
<path d="m282.85 182.9 0.1 0.55 4.95 31.55 9.8-51.5m-106.5-35.45-1.6 20-1.85 4.7m3.45-24.7-2.3-8.75m-2.05 59.4v0.65l0.15 0.65 13.1 6.75 2.2 1.1h-3.35m3.35 0h20l8.65 5.75 16.7-0.8m-58.2 41.75-0.05-1.7m-2.6-52.9 0.2 0.05 1.9 7.85h10.05m-13.15-0.05 3.1 0.05m0.55 46.7v0.45l9.8 24.8 88.65-44.8m-98.6 19.6 0.15 0.4 0.55 27.15 9.25-2.35m31.7-66.2 5.65 3.75m-100.15 19.1-0.05-0.7m0.05 0.7 2.65 25.8 50.9 19.9" fill="none" stroke="#000" stroke-linecap="round" stroke-linejoin="round" stroke-opacity=".50196"/>
<path d="m297.7 163.5-8.45-28.65-6.4 48.05m-93.95-63.6 0.6-14.4 29.1-13 8.55-3.8 43.1 32.45 19 14.3m-101.5 17.9-0.9 25.95m-26.85 45.9 29.15 10.1 0.15-0.1 0.15-0.05 93.3-51.05 0.1-0.6m-96.05-2.95 0.05-0.6m-50.45 36.4-0.8 0.4 0.85 0.3m-0.05-0.7 49.05-28 0.35 0.05m-25.8 36.8-23.55-8.15" fill="none" stroke="#000" stroke-linecap="round" stroke-linejoin="round" stroke-opacity=".50196"/>
<path d="m253.35 137.05-0.3-0.05v-0.05l0.05-0.05 0.3 0.05-0.05 0.1" fill="#87b867" fill-rule="evenodd"/>
<path d="m222.05 165.75 2.6 2.1q7.8 5.45 18.85 5.5 11.05-0.05 18.85-5.5l1.1-0.85q5.6-4.35 6.55-10.1l0.15-2.35q0-7.75-7.8-13.25-4.05-2.85-9-4.25l0.05-0.1 6.25-5.7q6.5 2 12 5.85 11.6 8.15 11.6 19.75l-0.25 3.5q-1.4 8.5-9.7 15v0.05l-1.65 1.2q-11.65 8.15-28.05 8.15-16.45 0-28.1-8.15l-3.05-2.4 0.2-0.15 0.15 0.15 9.25-8.45" fill="#a2c888" fill-rule="evenodd"/>
<path d="m253.1 136.9q-4.3-1.1-9.25-1.1-11.05 0-18.85 5.5-7.85 5.5-7.8 13.25-0.05 6.25 5 11.05l-0.15 0.15-9.25 8.45-0.15-0.15q-8.4-7.4-8.4-17.2 0-11.6 11.6-19.75 11.65-8.2 28.1-8.2 8.55 0 15.8 2.25l-0.1 0.1-6.25 5.7-0.3-0.05" fill="#cce0be" fill-rule="evenodd"/>
<path d="m252.35 137.8q3.6 1.2 6.6 3.35 6.55 4.7 6.5 11.25l-0.15 1.95q-0.85 4.85-5.6 8.45l-0.95 0.7q-6.6 4.55-15.9 4.5-9.3-0.15-15.8-4.8l-1.25-1 26.55-24.4" fill="#b6d3a3" fill-rule="evenodd"/>
<path d="m225.8 162.2q-5.3-4.35-5.2-10.2 0.05-6.55 6.65-11.1 6.6-4.6 15.9-4.5 5 0.05 9.2 1.4l-26.55 24.4" fill="#cce0be" fill-rule="evenodd"/>
<path d="m278.15 142.15 12.25-90.85m-65.1 87.2-9.4-57.35" fill="none" stroke="#fff" stroke-linecap="round" stroke-linejoin="round" stroke-width="1.5"/>
<path d="m248.4 78.45 0.5-17.35m2.05 91.35 3.05-15.3m-48.95-39.3-0.55-4.1m4.1 32.15-0.5-8.7m3.05 28.1-1.55-14.3m34.7 10.7 1.55-25.5m-38.8-4.1-1-5.6m38.8 71.45 5.1-20.9m-3.6-46.45 1.05-18.9" fill="none" stroke="#fff" stroke-linecap="round" stroke-linejoin="round" stroke-width="1.5"/>
</g>
<g id="a" transform="translate(-11.7,21.75)">
<path d="m15.05 37.2v-47.75l-3.35-3.45v-7.75h5.8v58.95h-2.45" fill="#3a3a32" fill-rule="evenodd"/>
<path d="m11.7-14 3.35 3.45v47.75h-3.35v-51.2m1.55 3.45v47.75-47.75" fill="#6c6c5b" fill-rule="evenodd"/>
<path d="m13.25 37.2v-47.75" fill="none" stroke="#cfd3c2" stroke-linecap="round" stroke-linejoin="round"/>
</g>
</defs>
</svg>
