<?xml version="1.0" encoding="UTF-8"?>
<svg version="1.1" viewBox="0 0 14.235 17.905" xmlns="http://www.w3.org/2000/svg" xmlns:cc="http://creativecommons.org/ns#" xmlns:dc="http://purl.org/dc/elements/1.1/" xmlns:rdf="http://www.w3.org/1999/02/22-rdf-syntax-ns#" xmlns:xlink="http://www.w3.org/1999/xlink">
<metadata>
<rdf:RDF>
<cc:Work rdf:about="">
<dc:format>image/svg+xml</dc:format>
<dc:type rdf:resource="http://purl.org/dc/dcmitype/StillImage"/>
</cc:Work>
</rdf:RDF>
</metadata>
<g transform="translate(-1.3812 -1.9664)">
<use transform="translate(1.4,2)" width="14.25" height="18.700001" xlink:href="#e"/>
</g>
<defs>
<g id="e" transform="translate(8.25,14.85)">
<use transform="matrix(-1.35 0 0 1.35 6.0075 -14.85)" width="10.55" height="13.85" xlink:href="#d"/>
</g>
<g id="d" transform="translate(4.45,11)">
<use transform="translate(2.7,-4.5)" width="3.4000001" height="3.3499999" xlink:href="#i"/>
<use transform="matrix(-.1299 -.3375 -.4678 -.1227 4.208 2.8272)" width="8.9499998" height="5.3000002" xlink:href="#a"/>
<use transform="matrix(.352 .0635 -.0753 .4176 -4.0605 -2.6966)" width="8.9499998" height="5.3000002" xlink:href="#a"/>
<use transform="translate(-3.45,-11)" width="7.6500001" height="11.45" xlink:href="#c"/>
</g>
<g id="i" transform="translate(-2.7,4.5)">
<path d="m2.8-2.85q0-0.65 0.5-1.1 0.4-0.45 1.1-0.45 0.65 0 1.1 0.45l0.5 1-0.4 0.3q-0.55 0.35-1.25 0.35-0.75 0-1.25-0.35l-0.3-0.2" fill="#fffff1" fill-rule="evenodd"/>
<path d="m2.8-2.85 0.3 0.2q0.5 0.35 1.25 0.35 0.7 0 1.25-0.35l0.4-0.3v0.15q-0.05 0.65-0.5 1.1t-1.1 0.45q-0.7 0-1.1-0.45-0.5-0.45-0.5-1.1v-0.05" fill="#ffffed" fill-rule="evenodd"/>
<path d="m6-2.95-0.5-1q-0.45-0.45-1.1-0.45-0.7 0-1.1 0.45-0.5 0.45-0.5 1.1m3.2-0.1v0.15q-0.05 0.65-0.5 1.1t-1.1 0.45q-0.7 0-1.1-0.45-0.5-0.45-0.5-1.1v-0.05" fill="none" stroke="#bbdeb5" stroke-linecap="round" stroke-linejoin="round" stroke-width=".25"/>
</g>
<g id="a" transform="translate(6.15,2.05)">
<path d="m0.15-1.85q1.45-0.7 2.4 0.9t-1.75 2.55l-4.35 1.4-2.4 0.05q-0.8-0.45 1.95-2.35 2.7-1.9 4.15-2.55" fill="#648461" fill-rule="evenodd"/>
</g>
<g id="c" transform="translate(3.85,5.7)">
<use transform="translate(.7 2.85)" width="0.050000001" height="0" xlink:href="#h"/>
<use transform="translate(-3.75,-5.6)" width="7.4499998" height="11.25" xlink:href="#b"/>
<use transform="translate(-3.85,-5.7)" width="7.6500001" height="11.45" xlink:href="#f"/>
</g>
<g id="h" transform="translate(-.7 -2.85)">
<path d="m0.7 2.85h0.05-0.05" fill="#ffedbf" fill-rule="evenodd"/>
</g>
<g id="b" transform="translate(3.75,5.65)">
<use transform="translate(-3.75,-5.65)" width="7.4499998" height="11.25" xlink:href="#g"/>
</g>
<g id="g" transform="translate(3.75,5.65)">
<path d="m2.95-4.4 0.5 2.8 0.25 5q0.1 0.85-0.65 1.5l-0.9 0.7-2.1-0.15-2.85-1.2q-0.75-0.3-0.95-2.55 0.25-2.3 1.05-4.1l1.4-2.75 0.6-0.5-0.2 3.1q1.15 0.3 1.85 0.9 0.9-1.65 2-2.75m-2.25 7.25h0.05l-1.05-0.3 0.45 1.15 0.55-0.85m-2.95 0.1 0.5-0.95-1-0.35 0.5 1.3" fill="#f7ffdc" fill-rule="evenodd"/>
</g>
<g id="f" transform="translate(3.85,5.7)">
<path d="m-0.3 0.5-0.05 0.6m-1.35-1.2-0.1 0.65" fill="none" stroke="#648461" stroke-linecap="round" stroke-linejoin="round" stroke-width=".25"/>
<path d="m0.7 2.85-0.55 0.85-0.45-1.15 1 0.3m-2.45-0.85-0.5 0.95-0.5-1.3 1 0.35" fill="#fffff1" fill-rule="evenodd"/>
<path d="m2.95-4.35 0.5 2.8 0.25 5q0.1 0.85-0.65 1.5l-0.9 0.7-2.1-0.15-2.85-1.2q-0.75-0.3-0.95-2.55l1.35 1.65q0.7 0.8 3 0.8h1.2l1.15-2.4v-6.15" fill="#2e1700" fill-opacity=".30196" fill-rule="evenodd"/>
<path d="m2.95-4.35 0.5 2.8 0.25 5q0.1 0.85-0.65 1.5l-0.9 0.7-2.1-0.15-2.85-1.2q-0.75-0.3-0.95-2.55m3.05-7.35-0.2 3.1q1.15 0.3 1.85 0.9" fill="none" stroke="#648461" stroke-linecap="round" stroke-linejoin="round" stroke-width=".25"/>
</g>
</defs>
</svg>
