<?xml version="1.0" encoding="UTF-8"?>
<svg version="1.1" viewBox="0 0 23.475 34.793" xmlns="http://www.w3.org/2000/svg" xmlns:cc="http://creativecommons.org/ns#" xmlns:dc="http://purl.org/dc/elements/1.1/" xmlns:rdf="http://www.w3.org/1999/02/22-rdf-syntax-ns#" xmlns:xlink="http://www.w3.org/1999/xlink">
<metadata>
<rdf:RDF>
<cc:Work rdf:about="">
<dc:format>image/svg+xml</dc:format>
<dc:type rdf:resource="http://purl.org/dc/dcmitype/StillImage"/>
</cc:Work>
</rdf:RDF>
</metadata>
<g transform="translate(-4.725 .275)">
<use transform="translate(4.75 -.25)" width="23.450001" height="34.75" xlink:href="#a"/>
</g>
<defs>
<g id="a" transform="translate(-4.75 .25)">
<path d="m20.65 14.8 0.1 0.25 0.05 0.2 0.05 1.2-0.2 1-0.8 2-0.35 0.65-0.7 0.15q-2.9 0.3-5.3-0.65-0.45-1.05-0.6-1.95t0-1.65q0.1-0.7 0.45-1.35l0.3-0.45 0.45 0.7 1.25 0.75 1.75 0.25q1-0.25 1.4-1.45l-0.65 0.15q-1.5 0.15-3.75-1.3 0.6-1.1 1.85-1.8l0.1 0.1 1.05 0.25h0.3l0.2 0.05 1.2 0.55q0.9 0.55 1.8 2.25l0.05 0.1m-8.1-5.75 1.55-0.6q3.25-1.35 6.45 0.55-0.65-0.05-1.2 0.3h-0.35l-2.1-0.1q-1 0.1-1.25 0.5-1.2-0.95-3.1-0.6v-0.05m5.85 1.1-0.2 0.25q-0.45-0.3-1.1-0.3l-0.9 0.15-0.15-0.2 0.85-0.35 1.5 0.45m-9.5 11.65 0.1-0.15v0.15h-0.1" fill="#799e69" fill-rule="evenodd"/>
<path d="m8.35 5.6 0.05 0.05h-0.05v-0.05m3.45 1.05 0.05-0.05v0.05h-0.05" fill="#ffcf2b" fill-rule="evenodd"/>
<path d="m8.35 5.65h-0.05l0.05-0.05v0.05" fill="#c27b05" fill-rule="evenodd"/>
<path d="m17.1 10.4 0.6 0.15 0.2 0.25 0.05 0.1-0.25 0.35h-0.05l-0.55 0.15-0.35-0.05-0.25-0.1-0.25-0.35 0.2-0.35h0.05l0.6-0.15" fill="#7d9b02" fill-rule="evenodd"/>
<path d="m9.2 27.95 0.25 0.25-0.2 0.15-0.05-0.4" fill="#a55c05" fill-rule="evenodd"/>
<path d="m23.5 20.65v0.05l-0.05-0.05h0.05m-7.2 9.85-1.4-0.55 0.25-1.1 1.15 1.65m-3.45-1.35-2.9 0.55-1.55-0.25q-0.3-0.25 0.45-0.8l0.6-0.45 0.9 1.1 1.45-0.8 1.1-0.65-0.05 1.2v0.1m-2.4-3.9 0.75 0.25-0.6 0.6-0.15-0.85m1.35 3.25 0.2 0.1 0.85 0.45-0.85-0.45-0.2-0.1" fill-rule="evenodd"/>
<path d="m23.45 20.65 0.05 0.05v0.05l-0.35-0.05 0.3-0.05m-1.05 0.3 0.35-0.15 0.15-0.05-0.5 0.2m-2.85 7.45h-1.5l0.1-0.9 1.4 0.85v0.05" fill="#345159" fill-rule="evenodd"/>
<path d="m23.5 20.7 0.05 0.05h-0.05v-0.05" fill="#283f44" fill-rule="evenodd"/>
<path d="m23.6 22.55 0.65-0.1q1.2 0 2.05 0.85 0.75 0.75 0.85 1.8l-0.65 0.55-0.9 0.4-1.95-1.85-0.05-1.65m0.1 2.8 0.85 0.9h-0.4l-0.4-0.05-0.05-0.85" fill="#fffdf9" fill-rule="evenodd"/>
<path d="m18.3 26.05h0.1-0.1" fill="#e3d6bf" fill-rule="evenodd"/>
<path d="m27.15 25.1v0.2q-0.05 1.05-0.65 1.85l-0.9-1.1 0.9-0.4 0.65-0.55m-3.05 3.05-0.4-0.05 0.05-1.05v-0.85l0.4 0.05h0.4l0.5 0.45-0.25 0.9-0.7 0.55" fill="#c2bda3" fill-rule="evenodd"/>
<path d="m17.6 11.9-0.2-0.05h0.2v0.05m-7.65 1.55 0.15 0.05-0.15 0.65v-0.7" fill="#b85e03" fill-rule="evenodd"/>
<path d="m21.7 9.35 0.65 0.25-0.25-0.05-0.4-0.2m-9.55-0.15 0.4-0.15v0.05l-0.4 0.1" fill="#dabe7e" fill-rule="evenodd"/>
<path d="m22.35 9.6 0.3 0.25 0.3 0.35-0.85-0.65 0.25 0.05" fill="#f3ecc7" fill-rule="evenodd"/>
<path d="m20.75 15.05 0.2 0.15-0.15 0.05-0.05-0.2m-0.1-0.25-0.05-0.1 0.05 0.05v0.05" fill="#e98103" fill-rule="evenodd"/>
<path d="m13.65 14.2v-0.55q0-0.2 0.15-0.45v-0.1l0.3 0.2-0.45 0.9" fill="#fcb670" fill-rule="evenodd"/>
<path d="m9.9 5.85 0.55 0.3 0.45 0.15 0.9 0.35-1.45 0.1-0.85-0.55 0.4-0.35m4.2 7.45q2.25 1.45 3.75 1.3l0.65-0.15q-0.4 1.2-1.4 1.45l-1.75-0.25-1.25-0.75-0.45-0.7 0.45-0.9m-3.4-12.65 0.6-0.3 0.4 0.55 0.05 0.95-0.55-0.05-0.5-1.15m-4.95 2.6 0.7 0.35-0.35 0.45-0.9-0.15 0.55-0.65m1.8-2.1-0.65 0.25-0.15-0.95 0.9-0.55-0.1 1.25" fill="#fff" fill-rule="evenodd"/>
<path d="m6.8 3.7-0.1-0.35-0.05-0.2-0.4-0.35-0.2-1.8 0.7-1.2 1.1-0.05 0.3 1.2v0.55l0.05 0.55v0.05l0.75 1.55h0.95l0.05-0.15q0.2-0.9 0.35-1.25h0.05v-1.85l1.2-0.6 0.9 2.2-0.25 1.9-0.35 2.7-0.05 0.05-0.9-0.35-0.45-0.15-0.55-0.3-0.35-0.3-0.25-0.25-0.9 0.35 0.9-0.35 0.25 0.25 0.35 0.3-0.4 0.35 0.85 0.55 1.45-0.1h0.05l0.35 0.45 0.3 1.5-0.65-0.65-3.4-0.8-0.15-1.5h0.1l-0.05-0.05-0.05-0.15-0.05-0.1-1.45-1.65 1.45 1.65-1.65 0.35-1.85-1.3 0.05-0.65 0.95-0.7 1.05 0.65m13.75 5.3 0.45 0.05 0.7 0.3 0.4 0.2 0.85 0.65 0.8 1.1q0.75 1.4 0.65 3.3-1.8 1.15-3.55 1.85l-0.05-1.2 0.15-0.05-0.2-0.15-0.1-0.25v-0.05l-0.05-0.05q-0.9-1.7-1.8-2.25l-1.2-0.55v-0.05l0.6-0.2 0.45-0.6-0.45-0.65 0.45 0.65-0.45 0.6-0.6 0.2h-0.5l-1.05-0.25-0.1-0.1q-1.25 0.7-1.85 1.8l-0.3-0.2v0.1q-0.15 0.25-0.15 0.45v0.55l-0.3 0.45q-0.35 0.65-0.45 1.35-1.9-0.8-2.95-1.8v-0.05l0.15-0.65-0.15-0.05 0.05-0.7 0.15-0.8-0.15 0.8-0.05 0.7-0.9-0.4 0.3 0.95-0.45 0.15-2.6-0.85-0.4-0.15v-1.85l0.4 0.15 2.6 0.95 1.25-0.45q0.3-0.8 0.95-1.65l0.25-0.3 0.35-0.4 0.45-0.4 0.4-0.1q1.9-0.35 3.1 0.6l0.4 0.35 0.15 0.2 0.9-0.15q0.65 0 1.1 0.3l0.2-0.25 0.1 0.05v-0.15q0.4-0.5 0.85-0.75 0.55-0.35 1.2-0.3m-2.5 19.4-0.2 2-2.3-2.05-1 1.3-0.95-2.7-2.15 0.75 1.15-2.35-4.15-1.25v-0.95l1.35 0.05 0.6 0.05 3.05 0.1q1.35 0.9 2.75 0.75l2.1 1.95h0.05l1.5 1.35-0.3 0.95-1.4-0.85-0.1 0.9m-7.35-27.75 0.5 1.15 0.55 0.05-0.05-0.95-0.4-0.55-0.6 0.3m-1.25 7.95 0.15 0.1-1.1 0.3-1-0.55 0.45-0.6 1.5 0.75m7.65 1.8-0.6 0.15h-0.05l-0.2 0.35 0.25 0.35 0.25 0.1 0.35 0.05 0.55-0.15h0.05l0.25-0.35-0.05-0.1-0.2-0.25-0.6-0.15m-1.15 1.1h-0.05l-0.3-0.55q0-0.35 0.45-0.6l0.15-0.1-0.15 0.1q-0.45 0.25-0.45 0.6l0.3 0.55h0.05m-8.4-10.35 0.1-1.25-0.9 0.55 0.15 0.95 0.65-0.25m-1.8 2.1-0.55 0.65 0.9 0.15 0.35-0.45-0.7-0.35m1.25 4 0.15 0.1-0.7 1.35-0.5-1.2 0.45-0.7 0.6 0.45" fill="#ffffed" fill-rule="evenodd"/>
<path d="m23.65 17.05q2.35 1.15 4.1 2.55l-4.25 1.05h-0.05l-0.3 0.05 0.35 0.05 0.1 1.8 0.05 1.65-0.55-0.55-0.4 0.65 1 1.05 0.05 0.85v0.85l-0.05 1.05-0.1 0.3-1 1.35-0.95 0.75-0.7 0.55-1.75-0.15-1.4-0.1 0.05-0.4 0.2-2h2.25l2.1-4.3v-2.95l-0.8-1.25-0.6-0.15q1.4-0.5 2-1.5l0.65-1.2m-15.9 4.35-0.45 0.25-0.2-0.4 0.65-0.65v0.8m0-1.1-0.8-1.2 0.4-0.45 0.45 0.35-0.05 1.3m14.65 0.65v0.2-0.2l0.5-0.2 0.25-0.05-0.25 0.05-0.15 0.05-0.35 0.15m-12.45-6.8v0.05l0.05 0.7-0.25-0.3-0.4-0.6-0.3-0.95 0.9 0.4v0.7m-0.1 5.5 0.85 0.15 0.35 0.1-0.2 0.8-0.5-0.1-0.5 0.5v-0.45l-0.85 1-0.1 0.15-0.55-0.6 1.2-1.45 0.3 0.3v-0.4" fill="#6d915e" fill-rule="evenodd"/>
<path d="m26.5 27.15 0.65 0.8 1.05 0.4-0.15 0.6-1.7-0.15-0.3 1.1h-0.45l0.05-1.3-0.45-0.35-1.15 0.65-0.4-0.4 0.45-0.35 0.7-0.55 0.25-0.9-0.5-0.45-0.85-0.9-1-1.05 0.4-0.65 0.55 0.55 1.95 1.85 0.9 1.1m-13-7.55q2.4 0.95 5.3 0.65l0.7-0.15 1.5-0.35 0.6 0.15 0.8 1.25v2.95l-2.1 4.3h-0.75v-0.05l0.3-0.95-1.5-1.35h0.05-0.1l-2.1-1.95q-1.4 0.15-2.75-0.75l-3.05-0.1q0.15-1.35 0.45-2.55l0.2-0.8 0.4-1.5 0.55 0.45 1.5 0.75m0.3 2.3 0.2-1.15-0.2 1.15m2.65 1 0.05-1.1-0.05 1.1" fill="#8cac7d" fill-rule="evenodd"/>
<path d="m8.25 5.35 0.05 0.1 0.05 0.15-0.05 0.05 0.15 1.5 3.4 0.8 0.65 0.65 0.05 0.45-0.4 0.15-0.45 0.4-0.85 0.35 0.1 0.05 0.15 0.3q-0.65 0.85-0.95 1.65l-1.25 0.45-2.6-0.95 0.6-1.5h0.1l-0.35-0.2-0.35-0.1-1.25-3.1 0.45-0.85-0.75-0.45v-0.85l1.85 1.3 1.65-0.35m16.15 9.25-0.05 0.15q-0.15 1.1-0.7 2.3l-0.65 1.2q-0.6 1-2 1.5l-1.5 0.35 0.35-0.65 0.8-2 0.2-1q1.75-0.7 3.55-1.85m-6.6 16.2-0.2 1.5-1.3-1.8-1.15-1.65-0.25 1.1-0.65 2.6-1.55-0.15 0.15-3.25v-0.1l0.05-1.2-1.1 0.65-1.45 0.8-0.9-1.1-0.25-0.25-0.2-0.25 0.8-0.8-0.8 0.8 0.2 0.25 0.05 0.4-0.4 0.3q-0.6 0-1.15-0.4l0.05-6.85v-1.1l0.05-1.3v-3.7l-0.85-0.25-0.65-1.75 2.6 0.85 0.45-0.15 0.4 0.6 0.25 0.3-0.05-0.7q1.05 1 2.95 1.8-0.15 0.75 0 1.65t0.6 1.95l-1.5-0.75-0.55-0.45-0.7-1.1q-0.5-0.95-0.7-2l-0.15 0.05-0.9 0.25-1.2-0.3 1.2 0.3 0.9-0.25-0.05 4.3v0.4l-0.3-0.3-1.2 1.45 0.55 0.6h0.1v-0.15l0.85-1v0.45l-0.05 2.1-1.35-0.05v0.95l4.15 1.25-1.15 2.35 2.15-0.75 0.95 2.7 1-1.3 2.3 2.05-0.05 0.4m-8.35-22.2-1.35-1.15-0.05-0.1-0.35-1.5 0.6-0.2-0.6 0.2 0.35 1.5 0.05 0.1 1.35 1.15-1.5-0.75-0.45 0.6 1 0.55 1.1-0.3-0.15-0.1m-2.45 1.35 0.1 0.05 2.65 0.45 1.1-0.5-1.1 0.5-2.65-0.45-0.1-0.05m0-2.7-0.6-0.45-0.45 0.7 0.5 1.2 0.7-1.35-0.15-0.1-1.5-1.55 1.5 1.55m3 7.65 0.05 0.4-0.05-0.4m-0.2 10.1-1.4-0.45 0.05-0.45-0.05 0.45 1.4 0.45v1.9l1.4-1.4-0.75-0.25-0.65-0.25" fill="#cfcf9e" fill-rule="evenodd"/>
<path d="m21.65 30.5 0.65 0.75v0.45l-1.15 1.95q-1 1.25-1.55 0.7-0.55-0.6-0.55-1.45v-0.5l0.15-1.5 1.75 0.15 0.7-0.55" fill="#2f3e28" fill-rule="evenodd"/>
<path d="m19.35 9.3q-0.45 0.25-0.85 0.75v0.15l-0.1-0.05-1.5-0.45-0.85 0.35-0.4-0.35q0.25-0.4 1.25-0.5l2.1 0.1h0.35" fill="#dfe3b5" fill-rule="evenodd"/>
<path d="m8.15 1.5v-0.55l-0.3-1.2-1.1 0.05-0.7 1.2 0.2 1.8 0.4 0.35 0.05 0.2 0.1 0.35 1.45 1.65 0.05 0.1 0.05 0.15v0.05h0.05l0.9-0.35 0.25 0.25 0.35 0.3 0.55 0.3m1.4 0.45 0.35-2.7 0.25-1.9-0.9-2.2-1.2 0.6v1.5m-0.05 0.35q-0.15 0.35-0.35 1.25l-0.05 0.15h-0.95l-0.75-1.55m12.35 6.9 0.45 0.05 0.7 0.3 0.65 0.25 0.3 0.25 0.3 0.35 0.8 1.1q0.75 1.4 0.65 3.3l-0.05 0.15q-0.15 1.1-0.7 2.3m4.1 2.55-4.25 1.05v0.05m0 0.05 0.1 1.8 0.65-0.1q1.2 0 2.05 0.85 0.75 0.75 0.85 1.8v0.2q-0.05 1.05-0.65 1.85m-2.4 1-0.4-0.05-0.1 0.3-1 1.35-0.95 0.75-0.7 0.55-1.75-0.15-1.4-0.1-0.2 1.5-1.3-1.8-1.4-0.55-0.65 2.6-1.55-0.15 0.15-3.25m-4-0.5q-0.6 0-1.15-0.4l0.05-6.85m0-0.8v-0.3m0.05-1.3v-3.7l-0.85-0.25-0.65-1.75-0.4-0.15v-1.85l0.4 0.15 0.6-1.5m0.1 0-0.35-0.2-0.35-0.1-1.25-3.1 0.45-0.85m-0.75-1.3 0.05-0.65 0.95-0.7 1.05 0.65m10.6 8.15h-0.3l-1.05-0.25-0.1-0.1m-2.45 8.1q2.4 0.95 5.3 0.65l0.7-0.15 1.5-0.35q1.4-0.5 2-1.5l0.65-1.2m-0.2 3.6h0.05m-0.05 0-0.3 0.05m0.35 0.05v-0.05m-0.6 0.05 0.25-0.05m-0.75 0.45v-0.2l0.35-0.15 0.15-0.05m-4.85 7.65-0.2 2m5.75-7.85 0.05 1.65m-11.15-15.6-0.3-1.5-0.35-0.45m0.7 2.4-0.05-0.45m-4.2-2.95-0.6 0.2 0.35 1.5 0.05 0.1 1.35 1.15m2.7 0.6 0.4-0.15 1.55-0.6q3.25-1.35 6.45 0.55m-2.35 1.4 0.45 0.65-0.45 0.6-0.6 0.2m-5.45-2.65-0.45 0.4-0.35 0.4-0.25 0.3q-0.65 0.85-0.95 1.65l-0.15 0.8-0.05 0.7v0.75m0.9-4.25-1.1 0.5-2.65-0.45-0.1-0.05m4.1 0.35-0.15-0.3m-0.1-0.05 0.85-0.35m4.5 0.65-0.15 0.1q-0.45 0.25-0.45 0.6l0.3 0.55h0.05m1.45 0.35h0.2m0.6-1.45q-0.45-0.3-1.1-0.3l-0.9 0.15m-7.85-4.6h-0.05m-1.3 1.6-1.5-1.55m3.55 7.35 0.9 0.4m0.05 1.45-0.05-0.7m0.1 1.1-0.05-0.4m-0.65-0.9-0.45 0.15-2.6-0.85m3.6 2.05 0.15-0.05q0.2 1.05 0.7 2l0.7 1.1 0.55 0.45 1.5 0.75m-5.7-4.3 1.2 0.3 0.9-0.25-0.05 4.3v0.4l-0.3-0.3-1.2 1.45 0.55 0.6m0.1-0.15 0.85-1v0.45m-2.1-0.5v0.8m0.05-2.4-0.05 1.3m1.25 1.35v0.15h-0.1m-0.45 2.3-0.05 0.45 1.4 0.45 0.65 0.25 0.75 0.25-2.2 2.2 0.2 0.25 0.25 0.25 0.9 1.1 1.45-0.8 1.1-0.65-0.05 1.2v0.1m-4.4-5.05v-0.95l1.35 0.05 0.05-2.1m0.55 2.15 3.05 0.1q1.35 0.9 2.75 0.75l2.1 1.95h0.05l1.5 1.35-0.3 0.95-1.4-0.85-0.1 0.9m-7.65-5.15-0.6-0.05m-3.5-11.75 2.6 0.95 1.25-0.45m0.45 14.15-0.15-0.85m2.4 3.8-0.85-0.45-0.2-0.1m3.1 1.45 0.25-1.1 1.15 1.65m-6.5-3.6v-1.9m-0.55 3.35-0.4 0.3m0.4-0.3-0.05-0.4m14.5-2.6 0.05 0.85v0.85l-0.05 1.05" fill="none" stroke="#afa57a" stroke-linecap="round" stroke-linejoin="round" stroke-width=".05"/>
<path d="m14 20.75-0.2 1.15m2.7-0.1-0.05 1.1" fill="none" stroke="#2f3e28" stroke-linecap="round" stroke-linejoin="round" stroke-width=".05"/>
</g>
</defs>
</svg>
