<?xml version="1.0" encoding="UTF-8"?>
<svg version="1.1" viewBox="0 0 25.4 36.816" xmlns="http://www.w3.org/2000/svg" xmlns:cc="http://creativecommons.org/ns#" xmlns:dc="http://purl.org/dc/elements/1.1/" xmlns:rdf="http://www.w3.org/1999/02/22-rdf-syntax-ns#" xmlns:xlink="http://www.w3.org/1999/xlink">
<metadata>
<rdf:RDF>
<cc:Work rdf:about="">
<dc:format>image/svg+xml</dc:format>
<dc:type rdf:resource="http://purl.org/dc/dcmitype/StillImage"/>
</cc:Work>
</rdf:RDF>
</metadata>
<g transform="translate(-3.725 -1.225)">
<use transform="translate(3.75,1.25)" width="25.35" height="36.75" xlink:href="#a"/>
</g>
<defs>
<g id="a" transform="translate(-3.75,-1.25)">
<path d="m15.1 31.9v0.35h-0.15v-0.3l0.15-0.05m2.45 2.95 0.15 0.05v0.05l-0.15-0.1" fill="#653434" fill-rule="evenodd"/>
<path d="m15.3 29.1 0.15-1.5 0.05-0.25q0.15-1.15 0.45-1.3 0.65-0.8 2.3-1.2l0.8 0.15q1.2 0.35 2.15 1.65l0.4 0.85q0.3 0.55 0.25 2.15l-0.1 1.15-0.05 0.1-0.05 0.3 1.05 0.2q2 4.15 0.25 3.55l-1.05-0.45q-0.45 4.65-1.8 3.15-1.05-1.2-1.55-2.65l-0.85-0.1-0.15-0.05q-1.6-0.75-1.95-1.35-0.4-0.65-0.5-1.25 0.1 0.6 0.5 1.25 0.35 0.6 1.95 1.35l0.15 0.1q-1.2 2.4-1.9 1-0.9-1.8-0.85-3.7h0.15v-0.35l-0.05-0.35 0.05-0.45 0.2-2-0.2 2-0.05 0.45-1.85 0.95q-1.75 0.6 0.2-3.55l1.9 0.15m3 4.95 0.25 0.95-0.25-0.95m1.65-1.05 1.95 1.5-1.95-1.5" fill="#799e69" fill-rule="evenodd"/>
<path d="m21.75 30.8 0.1-1.15q0.05-1.6-0.25-2.15l-0.4-0.85q-0.95-1.3-2.15-1.65l-0.8-0.15q-1.65 0.4-2.3 1.2-0.3 0.15-0.45 1.3l-0.05 0.25-0.35 3.5-0.05 0.45 0.05 0.35v0.35q0.1 0.6 0.5 1.25 0.35 0.6 1.95 1.35l0.15 0.05 0.85 0.1-0.25-0.95m-3.35-2.1v0.3q-0.05 1.9 0.85 3.7 0.7 1.4 1.9-1v-0.05m-2.65-3.35-1.85 0.95q-1.75 0.6 0.2-3.55m5.15 6.05q0.5 1.45 1.55 2.65 1.35 1.5 1.8-3.15l-1.95-1.5m1.7-1.8 0.05-0.3m0.2 3.6 1.05 0.45q1.75 0.6-0.25-3.55" fill="none" stroke="#afa57a" stroke-linecap="round" stroke-linejoin="round" stroke-width=".05"/>
<path d="m21.55 28.5 6.6-2.4-3.2 1.55-3.4 0.85" fill="#7b6810" fill-rule="evenodd"/>
<path d="m8.7 17.65q6.4 3.8 12.85 2.2 4.1-2.15 3.25-4.2 1 0.45 2.85 2.4t0.5 8.05l-6.6 2.4-4.15 0.1q-3.7-0.3-6.55-1.6-2.8-1.4-2.8-3v-0.1l0.1-0.3 0.15-4.55h-0.05l0.4-1.3 0.05-0.1" fill="#799e69" fill-rule="evenodd"/>
<path d="m24.8 15.65q0.85 2.05-3.25 4.2-6.45 1.6-12.85-2.2 0.6-1.55 2.75-3.25 2.1-1.75 4.7-1.95t5.05 0.5q2.5 0.65 2.7 1.35 0.2 0.65 0.9 1.35" fill="#b6c7a7" fill-rule="evenodd"/>
<path d="m21.55 28.5 6.6-2.4q1.35-6.1-0.5-8.05t-2.85-2.4q-0.7-0.7-0.9-1.35-0.2-0.7-2.7-1.35-2.45-0.7-5.05-0.5t-4.7 1.95q-2.15 1.7-2.75 3.25m19.45 8.45-3.2 1.55-3.4 0.85z" fill="none" stroke="#afa57a" stroke-linecap="round" stroke-linejoin="round" stroke-width=".05"/>
<path d="m27.85 11.95q-0.75 1.2-1.4 2.7l-0.2 0.4q-0.5 1.1-0.85 2.3l-0.15 0.45-0.1 0.25-1.75-0.1q0.15-5 5.3-11.2 0.4 4.2 0.25 8.4l-0.3-0.9-0.8-2.3" fill="#799e69" fill-rule="evenodd"/>
<path d="m25.15 18.05 0.1-0.25 0.15-0.45q0.35-1.2 0.85-2.3l0.2-0.4q0.65-1.5 1.4-2.7l0.8 2.3 0.3 0.9-0.1 1.5-0.35 3.35q-1.25-1.55-3.35-1.95m1.1-3q1-1.15 2.4-0.8-1.4-0.35-2.4 0.8m-1 2.75q1.15-1.15 3.6-1.15-2.45 0-3.6 1.15" fill="#658756" fill-rule="evenodd"/>
<path d="m28.95 15.15q0.15-4.2-0.25-8.4m-0.2 13.25 0.35-3.35 0.1-1.5" fill="none" stroke="#afa57a" stroke-linecap="round" stroke-linejoin="round" stroke-width=".05"/>
<path d="m25.15 18.05 0.1-0.25 0.15-0.45q0.35-1.2 0.85-2.3l0.2-0.4q0.65-1.5 1.4-2.7m1 4.7q-2.45 0-3.6 1.15m3.4-3.55q-1.4-0.35-2.4 0.8" fill="none" stroke="#3f5335" stroke-linecap="round" stroke-linejoin="round" stroke-width=".05"/>
<path d="m16.5 13q-4.5 0.05-5.45 2.3 0.9-9.45 2.95-14.05 2 5.65 2.5 11.75" fill="#799e69" fill-rule="evenodd"/>
<path d="m16.5 13q-4.5 0.05-5.45 2.3 0.9-9.45 2.95-14.05 2 5.65 2.5 11.75z" fill="none" stroke="#afa57a" stroke-linecap="round" stroke-linejoin="round" stroke-width=".05"/>
<path d="m4.5 18.85h3.6v-3.3l4.3 3.8-1.4 3.7-6.5-4.2" fill="#ffffed" fill-rule="evenodd"/>
<path d="m7 22.35-2.5-3.5 6.5 4.2-1.6 3.15-5.65-1.45 3.25-2.4" fill="#cfcf9e" fill-rule="evenodd"/>
<path d="m7 22.35-2.5-3.5m3.6 0v-3.3l4.3 3.8-1.4 3.7-1.6 3.15-5.65-1.45" fill="none" stroke="#afa57a" stroke-linecap="round" stroke-linejoin="round" stroke-width=".05"/>
<path d="m9.6 17.9q-0.15-1.8 0.9-2.9 1.1-1.1 2.5 0.25 1.35 1.3 0.85 4v2.65q-0.95 1.45-2 1.3l-1.7-1.45q-0.85-0.35-0.55-3.85" fill="#e3edbc" fill-rule="evenodd"/>
<path d="m9.6 17.9q-0.15-1.8 0.9-2.9 1.1-1.1 2.5 0.25 1.35 1.3 0.85 4v2.65q-0.95 1.45-2 1.3l-1.7-1.45q-0.85-0.35-0.55-3.85z" fill="none" stroke="#afa57a" stroke-linecap="round" stroke-linejoin="round" stroke-width=".05"/>
<path d="m15 19.6q2.9-1.4 5.55 0.5 1.3 3.05-0.2 7.65h-0.25l-4.5-1.85q-0.65-0.8-0.75-1.95l-0.2-1.55q-0.15-1.6 0.35-2.8" fill="#fffbee" fill-rule="evenodd"/>
<path d="m15 19.6 0.6-1.15q0.55-1.1 2.5-1.2 2-0.15 3.25 1.15t1.4 3.6q0.1 2.15-0.9 5.05l-0.15 0.2h-0.05q-0.4 0.35-1.3 0.5 1.5-4.6 0.2-7.65-2.65-1.9-5.55-0.5" fill="#e3edbc" fill-rule="evenodd"/>
<path d="m20.35 27.75q0.9-0.15 1.3-0.5h0.05l0.15-0.2q1-2.9 0.9-5.05-0.15-2.3-1.4-3.6t-3.25-1.15q-1.95 0.1-2.5 1.2l-0.6 1.15m5.35 8.15h-0.25l-4.5-1.85q-0.65-0.8-0.75-1.95l-0.2-1.55q-0.15-1.6 0.35-2.8m6.65 7.65 0.2-0.2" fill="none" stroke="#afa57a" stroke-linecap="round" stroke-linejoin="round" stroke-width=".05"/>
<path d="m25.5 25.65 3.6 1.8-0.45 0.15-7.45-0.95q0.05-0.9 0.4-1.8l5.1-3-1.2 3.8" fill="#ffffed" fill-rule="evenodd"/>
<path d="m28.65 27.6-3.4 1.2 0.05 0.3 1.05 3.75-4.6-2.55q-0.7-2.25-0.55-3.65l7.45 0.95" fill="#cfcf9e" fill-rule="evenodd"/>
<path d="m29.1 27.45-0.45 0.15-3.4 1.2m1.1 4.05-4.6-2.55m-0.15-5.45 5.1-3-1.2 3.8" fill="none" stroke="#afa57a" stroke-linecap="round" stroke-linejoin="round" stroke-width=".05"/>
<path d="m10.4 26.35-0.05 0.05v-0.05h0.05" fill="#e1a66a" fill-rule="evenodd"/>
<path d="m10.2 23.2 0.55 0.45 0.35 1.9-1.2-0.75 1.2 0.75 0.2 1.5-0.05-0.05-0.5-0.35-0.15-0.1-0.2-0.15v-0.05h-0.05q-0.4-0.8-0.45-1.55-0.1-0.85 0.3-1.6m7.25 3.1q1.65 0.45 2.1 0.9 0.4 0.4 0.4 1.25 0.5 0.9-0.45 1.4l-1.6-0.35-0.2-1.45-0.25-1.75m2.5 2.15-2.25-0.4 2.25 0.4" fill="#d6d0a0" fill-rule="evenodd"/>
<path d="m10.2 23.2q-0.4 0.75-0.3 1.6 0.05 0.75 0.45 1.55v0.05l-1.35-0.9q-0.4-0.8-0.3-1.9 1.05-1.55 1.5-0.4" fill="#799e69" fill-rule="evenodd"/>
<path d="m10.75 23.65-0.55-0.45q-0.45-1.15-1.5 0.4-0.1 1.1 0.3 1.9l1.35 0.9 0.05-0.05v0.05l0.2 0.15 0.15 0.1 0.5 0.35 0.05 0.05 0.3 0.15q2.3 1.25 6.3 2.3l1.6 0.35q0.95-0.5 0.45-1.4 0-0.85-0.4-1.25-0.45-0.45-2.1-0.9l-1.35-0.3q-2.7-0.55-5.35-2.35m-1.1-2.35q4.8 2.7 11.1 4.3 3.2 4.6-0.7 5.95-3.1-0.3-7.55-2.3t-4.9-4.55q-0.4-2.6 0.9-3.7 0.45-0.1 1.15 0.3" fill="#b6c7a7" fill-rule="evenodd"/>
<path d="m11.1 25.55-0.35-1.9q2.65 1.8 5.35 2.35l1.35 0.3 0.25 1.75 0.2 1.45q-4-1.05-6.3-2.3l-0.3-0.15-0.2-1.5 2.45 1.2q1.7 0.85 4.15 1.3-2.45-0.45-4.15-1.3l-2.45-1.2" fill="#ffffed" fill-rule="evenodd"/>
<path d="m10.75 23.65-0.55-0.45m-0.3 1.6 1.2 0.75m-0.35-1.9q2.65 1.8 5.35 2.35l1.35 0.3q1.65 0.45 2.1 0.9 0.4 0.4 0.4 1.25 0.5 0.9-0.45 1.4m-9.85-8.55q4.8 2.7 11.1 4.3 3.2 4.6-0.7 5.95-3.1-0.3-7.55-2.3t-4.9-4.55q-0.4-2.6 0.9-3.7 0.45-0.1 1.15 0.3m8.05 6.75q-2.45-0.45-4.15-1.3l-2.45-1.2m6.6 2.5 2.25 0.4" fill="none" stroke="#afa57a" stroke-linecap="round" stroke-linejoin="round" stroke-width=".05"/>
<path d="m12.55 23.6-0.4-0.6 0.4 0.6m2.35 1.3q-1.95 0.2-3.35-0.9l0.6-1 0.9-1.65q1.5 1.65 1.85 3.55m-1.45-0.8v-0.45 0.45" fill="#b6c7a7" fill-rule="evenodd"/>
<path d="m12.15 23 0.4 0.6m-0.4-0.6-0.6 1q1.4 1.1 3.35 0.9m-1.85-3.55-0.9 1.65m1.3 0.65v0.45" fill="none" stroke="#afa57a" stroke-linecap="round" stroke-linejoin="round" stroke-width=".05"/>
<path d="m16.75 27.25v1" fill="none" stroke="#3f5335" stroke-linecap="round" stroke-linejoin="round" stroke-width=".05"/>
<path d="m11.9 25.25v0.9" fill="none" stroke="#3f5335" stroke-linecap="round" stroke-linejoin="round" stroke-width=".05"/>
<path d="m14 26.25v1.05" fill="none" stroke="#3f5335" stroke-linecap="round" stroke-linejoin="round" stroke-width=".05"/>
<path d="m11.75 20.05v0.8" fill="none" stroke="#3f5335" stroke-linecap="round" stroke-linejoin="round"/>
<path d="m17.7 22.35v0.8" fill="none" stroke="#3f5335" stroke-linecap="round" stroke-linejoin="round"/>
</g>
</defs>
</svg>
