<?xml version="1.0" encoding="UTF-8"?>
<svg version="1.1" viewBox="0 0 11.225 13.94" xmlns="http://www.w3.org/2000/svg" xmlns:cc="http://creativecommons.org/ns#" xmlns:dc="http://purl.org/dc/elements/1.1/" xmlns:rdf="http://www.w3.org/1999/02/22-rdf-syntax-ns#" xmlns:xlink="http://www.w3.org/1999/xlink">
<metadata>
<rdf:RDF>
<cc:Work rdf:about="">
<dc:format>image/svg+xml</dc:format>
<dc:type rdf:resource="http://purl.org/dc/dcmitype/StillImage"/>
</cc:Work>
</rdf:RDF>
</metadata>
<g transform="translate(-3.66 -3.9111)">
<use transform="translate(3.65,3.1)" width="11.25" height="14.95" xlink:href="#n"/>
</g>
<defs>
<g id="n" transform="translate(6,12.55)">
<use transform="matrix(-.7 0 0 .7 5.25 -12.565)" width="16.049999" height="21.35" xlink:href="#m"/>
</g>
<g id="m" transform="translate(7.5,17.95)">
<use transform="translate(3,-13.1)" width="5.5500002" height="9.5" xlink:href="#a"/>
<use transform="matrix(.558 -.0457 0 .558 -4.084 -1.8486)" width="10.4" height="6.3499999" xlink:href="#g"/>
<use transform="matrix(.558 -.0457 0 .558 -1.4608 -.9879)" width="10.6" height="7.8499999" xlink:href="#e"/>
<use transform="translate(-2.85,-6.5)" width="7.75" height="6.5" xlink:href="#c"/>
<use transform="translate(-7.5,-12)" width="11.65" height="11.05" xlink:href="#l"/>
<use transform="matrix(-.7784 -.273 -.2132 .611 1.592 -16.42)" width="5.5500002" height="9.5" xlink:href="#a"/>
</g>
<g id="a" transform="translate(.85 8.35)">
<use transform="translate(-.85 -8.35)" width="5.5500002" height="9.5" xlink:href="#h"/>
</g>
<g id="h" transform="translate(2.75,4.75)">
<use transform="translate(-2.75,-4.75)" width="5.5500002" height="9.5" xlink:href="#ac"/>
</g>
<g id="ac" transform="translate(2.75,4.75)">
<path d="m-2.15-3.75q0.35-1 0.65-1t0.35 1.1l-0.2 2.85-0.3 3.2q-0.1 1.45-0.45 1.45-0.3 0-0.5-1.7-0.25-1.7-0.1-3.3l0.55-2.6m4.9 1.15q0.2 0.65-0.3 1.7l-1.45 2.4-1.75 2.5q-0.8 1.15-0.95 0.5-0.2-0.6 0.45-2.7 0.7-2.1 1.55-3.3 0.85-1.25 1.6-1.45 0.65-0.25 0.85 0.35" fill="#648461" fill-rule="evenodd"/>
</g>
<g id="g" transform="translate(7.05,1.65)">
<use transform="translate(-3.65,-1.65)" width="7" height="5.6999998" xlink:href="#ab"/>
<use transform="translate(-3.65,-1.25)" width="7" height="5.3000002" xlink:href="#f"/>
<use transform="translate(-7.05 -.2)" width="6.5999999" height="4.9000001" xlink:href="#u"/>
</g>
<g id="ab" transform="translate(3.65,1.65)">
<path d="m0 0.5-2.55-0.4-0.4-0.4q0.15-0.8 0.95-1.25 1.3-0.35 2.1 0.8l-0.1 1.25" fill="#fffff1" fill-rule="evenodd"/>
<path d="m0 0.5-2.55-0.4-0.4-0.4q0.15-0.8 0.95-1.25 1.3-0.35 2.1 0.8" fill="none" stroke="#f7ffdc" stroke-linecap="round" stroke-linejoin="round" stroke-width=".05"/>
<path d="m-3.3-0.3q-0.85 1.75 0.25 3.6 1.5 1 3.3 0.65l2.7-0.5 0.35-1.3q0.2-0.9-0.35-1.75-0.65-0.9-2.15-1.65l-1.5 0.2-2.15 0.2z" fill="none" stroke="#bbdeb5" stroke-linecap="round" stroke-linejoin="round" stroke-width=".05"/>
</g>
<g id="f" transform="translate(3.5,2.65)">
<use transform="translate(-3.5,-2.65)" width="7" height="5.3000002" xlink:href="#v"/>
</g>
<g id="v" transform="translate(3.5,2.65)">
<path d="m0.95-2.65 2.15 1.65q0.55 0.85 0.35 1.75l-0.35 1.3-2.7 0.5q-1.8 0.35-3.3-0.65-1.1-1.85-0.25-3.6l0.45-0.55 2.15-0.2 1.5-0.2" fill="#ffffed" fill-rule="evenodd"/>
</g>
<g id="u" transform="translate(7.05 .2)">
<path d="m-1.95 1.05q0.65 0.1 1.3 0.7l0.2 2.15q-1.7 0.85-3.9 0.8l-0.7-0.45 0.15-1.05q0.25-0.85 0.85-1.6 1.1-0.75 2.1-0.55-1-0.2-2.1 0.55-0.6 0.75-0.85 1.6l-1.5-0.15-0.65-0.55q0.2-1.35 1.5-2.4 2.15-0.9 3.6 0.75v0.2" fill="#fffff1" fill-rule="evenodd"/>
<path d="m-0.65 1.75q-0.65-0.6-1.3-0.7-1-0.2-2.1 0.55-0.6 0.75-0.85 1.6l-0.15 1.05 0.7 0.45q2.2 0.05 3.9-0.8m-4.45-0.7-1.5-0.15-0.65-0.55q0.2-1.35 1.5-2.4 2.15-0.9 3.6 0.75" fill="none" stroke="#f7ffdc" stroke-linecap="round" stroke-linejoin="round" stroke-width=".05"/>
</g>
<g id="e" transform="translate(6.65,1.15)">
<use transform="translate(-4.7,-1)" width="8.1499996" height="6.0500002" xlink:href="#d"/>
<use transform="translate(-6.65,-1.15)" width="10.6" height="7.8499999" xlink:href="#s"/>
</g>
<g id="d" transform="translate(4.1,3)">
<use transform="translate(-4.1,-3)" width="8.1499996" height="6.0500002" xlink:href="#t"/>
</g>
<g id="t" transform="translate(4.1,3)">
<path d="m0.55-3q1.9 0.9 2.8 1.9 0.8 0.95 0.7 2l-0.15 1.55-2.75 0.45q-2.55 0.5-4.2-0.5-1.5-1.9-0.85-3.3 0.6-1.4 2.5-1.7l1.95-0.4" fill="#ffffed" fill-rule="evenodd"/>
</g>
<g id="s" transform="translate(6.65,1.15)">
<path d="m-2-0.75q-1.9 0.3-2.5 1.7-0.65 1.4 0.85 3.3 1.65 1 4.2 0.5l2.75-0.45 0.15-1.55q0.1-1.05-0.7-2-0.9-1-2.8-1.9z" fill="none" stroke="#bbdeb5" stroke-linecap="round" stroke-linejoin="round" stroke-width=".05"/>
<path d="m2.8 2.25 0.7 0.65 0.35 0.6 0.1 0.75q-0.15 0.65-0.65 0.85l-0.5 0.05q-0.9-0.05-1-0.55-0.1-1.4 0.25-1.9 0.35-0.55 0.7-0.5l0.05 0.05m-4.75 0.1q0.7-0.8 1.45-0.4 0.5 0.2 1 1l0.7 0.95q0.25 0.5 0.15 1.25-0.3 1.15-1.3 1.45l-0.95 0.1q-1.7-0.1-1.85-0.95l0.05-1.7q-2.15 0.95-3.1 0.85-0.65-0.1-0.85-0.6-0.1-1.55 0.85-2.9 1.9-1.3 3.75 0.45l0.1 0.5-0.25 0.25q-0.4 0.5-0.5 1.45 0.1-0.95 0.5-1.45l0.25-0.25" fill="#fffff1" fill-rule="evenodd"/>
<path d="m2.8 2.25 0.7 0.65 0.35 0.6 0.1 0.75q-0.15 0.65-0.65 0.85l-0.5 0.05q-0.9-0.05-1-0.55-0.1-1.4 0.25-1.9 0.35-0.55 0.7-0.5m-4.7 0.15q0.7-0.8 1.45-0.4 0.5 0.2 1 1l0.7 0.95q0.25 0.5 0.15 1.25-0.3 1.15-1.3 1.45l-0.95 0.1q-1.7-0.1-1.85-0.95l0.05-1.7q-2.15 0.95-3.1 0.85-0.65-0.1-0.85-0.6-0.1-1.55 0.85-2.9 1.9-1.3 3.75 0.45m0.1 0.5-0.25 0.25q-0.4 0.5-0.5 1.45" fill="none" stroke="#f4ffdb" stroke-linecap="round" stroke-linejoin="round" stroke-width=".05"/>
</g>
<g id="c" transform="translate(3.85,3.25)">
<use transform="translate(.5 -3.25)" width="0.050000001" height="0.050000001" xlink:href="#r"/>
<use transform="translate(-3.85,-3.25)" width="7.75" height="6.5" xlink:href="#b"/>
<use transform="translate(-3.85,-3.25)" width="6.5" height="6.5" xlink:href="#p"/>
</g>
<g id="r" transform="translate(-.5 3.25)">
<path d="m0.5-3.2v-0.05h0.05l-0.05 0.05" fill="#ffcf9a" fill-rule="evenodd"/>
<path d="m0.5-3.2v-0.05 0.05" fill="#ff6000" fill-rule="evenodd"/>
</g>
<g id="b" transform="translate(3.85,3.25)">
<use transform="translate(-3.85,-3.25)" width="7.75" height="6.5" xlink:href="#q"/>
</g>
<g id="q" transform="translate(3.85,3.25)">
<path d="m0.55-3.25q1.3 0.1 2.25 0.95 1.1 0.95 1.1 2.3-0.05 1.3-1.15 2.3l-0.1 0.05q-1.15 0.9-2.7 0.9l-1.1-0.15q-0.9-0.2-1.6-0.8-1.1-1-1.1-2.3 0.05-1.35 1.2-2.3 1.15-1 2.75-0.95h0.4v0.05l0.05-0.05" fill="#f7ffdc" fill-rule="evenodd"/>
</g>
<g id="p" transform="translate(3.85,3.25)">
<path d="m-2.65-2.3q1.15-1 2.75-0.95h0.4v0.05q-0.25 4.55 2.15 5.55-1.15 0.9-2.7 0.9l-1.1-0.15q-0.9-0.2-1.6-0.8-1.1-1-1.1-2.3 0.05-1.35 1.2-2.3" fill="#2e1700" fill-opacity=".15294" fill-rule="evenodd"/>
</g>
<g id="l" transform="translate(5.8,5.5)">
<use transform="translate(-5.65,-5.4)" width="11.5" height="9.6499996" xlink:href="#k"/>
<use transform="translate(-5.65,-5.4)" width="9.1999998" height="9.6000004" xlink:href="#aa"/>
<use transform="translate(-5.8 .65)" width="8.6499996" height="4.9000001" xlink:href="#j"/>
<use transform="translate(-5.1,4.2)" width="7.9499998" height="1.25" xlink:href="#y"/>
<use transform="translate(-4.15,-5.5)" width="7.4000001" height="2.6500001" xlink:href="#i"/>
<use transform="translate(-4.95,-1.1)" width="10.45" height="5.3499999" xlink:href="#w"/>
</g>
<g id="k" transform="translate(5.75,4.8)">
<use transform="translate(-5.75,-4.8)" width="11.5" height="9.6499996" xlink:href="#o"/>
</g>
<g id="o" transform="translate(5.75,4.8)">
<path d="m4.55-0.3q1.6 2.3 1.1 3.5-0.95 1.95-2.9 1.6l-6.8-1.85q-2.7-0.75-1.05-2.85l3.2-3.85q0.95-1.05 1.75-1.05 1.35-0.1 2.55 0.75 0.5 1.4 2.15 3.75" fill="#f7ffdc" fill-rule="evenodd"/>
</g>
<g id="aa" transform="translate(5.65,5.4)">
<path d="m-0.05-5.4q1.35-0.1 2.55 0.75-1.75-0.1-1.9 0.8-0.4 5.4 2.25 8.05l-6.8-1.85q-2.7-0.75-1.05-2.85l3.2-3.85q0.95-1.05 1.75-1.05" fill="#2e1700" fill-opacity=".15294" fill-rule="evenodd"/>
<path d="m-4.35 0.2-0.15-0.35q-0.4-0.9 0-1.95 0.35-1.05 1.05-1.65 0.65-0.65 1.3-0.5l0.35 0.15q-1.95 1.75-2.55 4.3" fill="#fff" fill-rule="evenodd"/>
<path d="m-4.35 0.2q0.6-2.55 2.55-4.3l0.5 0.85q0.25 0.85 0.1 2.4-0.15 1.5-0.9 1.7l-1.4 0.05-0.85-0.7" fill="#ffffed" fill-rule="evenodd"/>
<path d="m0.75 2.45-1.5-0.65q-1-0.6-0.65-2.25 0.3-1.65 1-2.4 0.6-0.8 1.5-0.65-0.9 4.4-0.35 5.95" fill="#fff" fill-rule="evenodd"/>
<path d="m1.1-3.5h0.05q0.9 0.15 1.55 1.15 0.7 1 0.85 2.25 0.1 1.3-0.7 2.05-0.8 0.7-1.7 0.6l-0.4-0.1q-0.55-1.55 0.35-5.95" fill="#ffffed" fill-rule="evenodd"/>
</g>
<g id="j" transform="translate(4.35,2.45)">
<use transform="translate(-4.35,-2.45)" width="8.6499996" height="4.9000001" xlink:href="#z"/>
</g>
<g id="z" transform="translate(4.35,2.45)">
<path d="m2-0.95q2.1 1.25 2.3 2l-1.7 0.85-6.25 0.4-0.6 0.15q-0.3-2.5 0.55-4.35l3.15-0.55 0.8 0.5 1.75 1" fill="#fffff1" fill-rule="evenodd"/>
</g>
<g id="y" transform="translate(5.1,-4.2)">
<path d="m1.15 5.05-6.25 0.4q3.8-1 7.95-1.25l-1.7 0.85" fill="#2e1700" fill-opacity=".2" fill-rule="evenodd"/>
</g>
<g id="i" transform="translate(3.7,1.3)">
<use transform="translate(-3.7,-1.3)" width="7.4000001" height="2.6500001" xlink:href="#x"/>
</g>
<g id="x" transform="translate(3.7,1.3)">
<path d="m-3.45-0.65-0.25-0.5 0.55-0.15 1 0.3 1.1 0.85 0.4 0.75-0.65-0.1-1.15-0.6-1-0.55m3.75 1.75 0.4-0.45 1-0.3 1.3 0.1q0.65 0.2 0.7 0.45 0 0.2-0.6 0.25l-1.25 0.15-1.1 0.05-0.45-0.25" fill="#648461" fill-rule="evenodd"/>
</g>
<g id="w" transform="translate(4.95,1.1)">
<path d="m-0.4 0.2-0.35 0.2-0.35-0.2-0.15-0.3 0.15-0.4 0.35-0.1 0.35 0.1 0.15 0.4-0.15 0.3" fill="#2e1700" fill-rule="evenodd"/>
<path d="m-1.7-0.3-0.35 0.2-0.35-0.2-0.15-0.3 0.15-0.4 0.35-0.1 0.35 0.1q0.15 0.15 0.15 0.4l-0.15 0.3" fill="#2e1700" fill-rule="evenodd"/>
<path d="m2.45 2.45q-0.1-0.25 0.35-0.55 0.4-0.35 1.05-0.6l1.1-0.25 0.55 0.2-0.35 0.55-1.05 0.6-1.1 0.25q-0.5 0-0.55-0.2" fill="#fff" fill-opacity=".30196" fill-rule="evenodd"/>
<path d="m-2 2.25-1 1.05-1.25 0.8-0.65 0.05q-0.15-0.2 0.25-0.7l1-1.05 1.2-0.8 0.7-0.05q0.1 0.15-0.25 0.7" fill="#fff" fill-opacity=".4" fill-rule="evenodd"/>
</g>
</defs>
</svg>
