<?xml version="1.0" encoding="UTF-8"?>
<svg version="1.1" viewBox="0 0 19.188 21.117" xmlns="http://www.w3.org/2000/svg" xmlns:cc="http://creativecommons.org/ns#" xmlns:dc="http://purl.org/dc/elements/1.1/" xmlns:rdf="http://www.w3.org/1999/02/22-rdf-syntax-ns#" xmlns:xlink="http://www.w3.org/1999/xlink">
<metadata>
<rdf:RDF>
<cc:Work rdf:about="">
<dc:format>image/svg+xml</dc:format>
<dc:type rdf:resource="http://purl.org/dc/dcmitype/StillImage"/>
</cc:Work>
</rdf:RDF>
</metadata>
<g transform="translate(-3.7504 -3.1531)">
<use transform="translate(3.75,2.35)" width="19.200001" height="21.9" xlink:href="#g"/>
</g>
<defs>
<g id="g" transform="translate(.25 .25)">
<use transform="matrix(-.4391 0 0 .4391 18.95 12.902)" width="16.35" height="13.25" xlink:href="#f"/>
<use transform="matrix(-.4391 0 0 .4391 16.648 6.4151)" width="30.049999" height="24.299999" xlink:href="#e"/>
<use transform="matrix(-.4601 0 0 .4601 7.227 12.963)" width="16.25" height="14.35" xlink:href="#d"/>
<use transform="matrix(-.4391 0 0 .4391 12.557 15.852)" width="16.25" height="13.25" xlink:href="#c"/>
<use transform="matrix(-.4093 -.1578 .2316 .2995 6.463 4.4293)" width="11.95" height="16.75" xlink:href="#a"/>
<use transform="matrix(-.4093 -.1578 -.0597 .3729 13.831 1.6403)" width="11.95" height="16.75" xlink:href="#a"/>
</g>
<g id="f" transform="translate(8.2,6.6)">
<use transform="translate(-8.2,-6.6)" width="16.35" height="13.25" xlink:href="#l"/>
</g>
<g id="l" transform="translate(8.2,6.6)">
<path d="m-6.65 3.55-0.1 0.15-0.85-0.55 0.05-0.2 0.9 0.6" fill="#e49210" fill-rule="evenodd"/>
<path d="m-1.45 5.65-0.85-0.1h0.05l0.8 0.1" fill="#cd6e11" fill-rule="evenodd"/>
<path d="m-2.25 5.55-2.35-0.35-2.05-1.65-0.9-0.6 0.95-4.55 3.45-3.65 3.15 1.25 1.95 6.45-3.9 2.8-0.3 0.3" fill="#bbdeb5" fill-rule="evenodd"/>
<path d="m-3.15-5.25 0.55-0.6 5.25-0.25 1.4 0.9q2.1 1.55 3.1 3.2l0.5 1.05v4.1l-4.25 3-4.85-0.5-0.8-0.1 0.3-0.3 3.9-2.8-1.95-6.45-3.15-1.25" fill="#648461" fill-rule="evenodd"/>
<path d="m-3.15-5.25 0.55-0.6 5.25-0.25 1.4 0.9q2.1 1.55 3.1 3.2l0.5 1.05v4.1l-4.25 3-4.85-0.5-0.85-0.1m0.05 0-2.35-0.35-2.05-1.65-0.9-0.6 0.95-4.55 3.45-3.65m-3.6 8.95-0.85-0.55 0.05-0.2m5.3 2.6 0.8 0.1" fill="none" stroke="#2e1700" stroke-linecap="round" stroke-linejoin="round" stroke-opacity=".4"/>
<path d="m-5.95 4.75-1.75-1.55 1.3-3.7 1.55-1.75 1.8 1.75 1.45 6.15h-0.45l-1.35-4.4-1.1-0.8v0.05l-0.85 2-0.6 2.25" fill="#4f5a3c" fill-rule="evenodd"/>
<path d="m-2.05 5.65h-2.8l-1.1-0.9 0.6-2.25 0.85-2v-0.05l1.1 0.8 1.35 4.4" fill="#648461" fill-rule="evenodd"/>
<path d="m-5.95 4.75-1.75-1.55 1.3-3.7 1.55-1.75 1.8 1.75 1.45 6.15h-3.25z" fill="none" stroke="#2e1700" stroke-linecap="round" stroke-linejoin="round" stroke-opacity=".4"/>
</g>
<g id="e" transform="translate(14.8,12.15)">
<use transform="matrix(-1.0977 .3735 .2218 1.1494 -3.7668 -9.9364)" width="10.05" height="10.1" xlink:href="#b"/>
<use transform="translate(-13.35,-12.15)" width="28.6" height="24.299999" xlink:href="#k"/>
<use transform="matrix(-1.0977 .3735 .2218 1.1494 7.0332 -5.1864)" width="10.05" height="10.1" xlink:href="#b"/>
<use transform="matrix(.8042 .5918 -.5918 .8042 -5.45 -5.65)" width="0" height="0" xlink:href="#sprite3"/>
<use transform="matrix(.8042 .5918 -.5918 .8042 -12.1 -8.4)" width="0" height="0" xlink:href="#sprite3"/>
</g>
<g id="b" transform="translate(3.95,6.1)">
<path d="m-3.3 1.45q-0.65-1.1-0.65-2.5 0-2.1 1.45-3.55 1.45-1.5 3.55-1.5 1.5 0 2.65 0.75l0.3 0.55q0.35 0.9 0.35 1.95 0 2.1-1.45 3.55-1.5 1.45-3.6 1.5l-2.05-0.45-0.55-0.3" fill="#fff" fill-rule="evenodd"/>
<path d="m-3.3 1.45 0.55 0.3 2.05 0.45q2.1-0.05 3.6-1.5 1.45-1.45 1.45-3.55 0-1.05-0.35-1.95l-0.3-0.55 0.5 0.35 0.45 0.4q1.45 1.45 1.45 3.55t-1.45 3.55q-1.5 1.45-3.6 1.5-2.1-0.05-3.55-1.5l-0.8-1.05" fill="#ffffed" fill-rule="evenodd"/>
<path d="m3.7-5.35q-1.15-0.75-2.65-0.75-2.1 0-3.55 1.5-1.45 1.45-1.45 3.55 0 1.4 0.65 2.5m7-6.8 0.5 0.35 0.45 0.4q1.45 1.45 1.45 3.55t-1.45 3.55q-1.5 1.45-3.6 1.5-2.1-0.05-3.55-1.5l-0.8-1.05" fill="none" stroke="#997240" stroke-linecap="round" stroke-linejoin="round" stroke-opacity=".37255" stroke-width=".05"/>
<path d="m5-0.4-0.4 1.15q-0.4 0.5-0.95 0.5-0.6 0-0.95-0.5-0.4-0.45-0.4-1.15t0.4-1.2q0.35-0.45 0.95-0.45 0.55 0 0.95 0.45l0.4 1.2" fill="#4f5a3c" fill-rule="evenodd"/>
</g>
<g id="k" transform="translate(13.35,12.15)">
<path d="m-2.7-5.6v0.05l-0.05-0.05h0.05" fill="#ff9" fill-rule="evenodd"/>
<path d="m-2.95 1.5h-0.1l1.6-0.85v0.1l-1.5 0.75" fill="#ffae14" fill-rule="evenodd"/>
<path d="m13.35-4.1 1.2 4.9q0.8 1.8-1.3 5.3-4.5 4.5-8.95 5.05l-1.75 0.3-2.65-4.85 0.8-7.3 4.05-3.05 3.85-0.9 4.75 0.55" fill="#bbdeb5" fill-rule="evenodd"/>
<path d="m-11.3-3.05 0.6-1.75 3.8-4.5 4.85-2.2 3.95-0.15 5.85 2.05 3.35 3.15-4.2-1.7-3.8 1.9-0.55 0.85-4.2 4.05q-1.4 3.5-5.7 1.25l-2.65-1.35-1.3-1.6m8.6-2.5 2.85 1.3 1.1-1.4 0.05-0.05-1.6-1.8-1.95 0.5-0.45 1.4h-0.05l0.05 0.05" fill="#f4ffdb" fill-rule="evenodd"/>
<path d="m-2.7-5.6 0.45-1.4 1.95-0.5 1.6 1.8-0.05 0.05-1.1 1.4-2.85-1.3v-0.05" fill="#fffff1" fill-rule="evenodd"/>
<path d="m-11.3-3.05 1.3 1.6 2.65 1.35q4.3 2.25 5.7-1.25l4.2-4.05 0.55-0.85 3.8-1.9 4.2 1.7 0.5 0.4 1.75 1.95-4.75-0.55-3.85 0.9-4.05 3.05-0.8 7.3 2.65 4.85-6.7 0.2 0.65-0.1-0.55-0.15q2.45-0.9 2.05-5.9l-1.5-2.15q-2.6-2.5-4.05-2.4l-1.7-0.6-1.85 0.25-0.1 0.15-1.5 1.5-0.15-1.05 1.55-4.25m8.35 4.55 1.5-0.75v-0.1l-1.6 0.85h0.1" fill="#648461" fill-rule="evenodd"/>
<path d="m-4.05 11.4-0.4-0.1-2.25-5.45-2.25-1.4-2-0.65-1.9 1.9 0.15-3.45 1.5-1.5 0.1-0.15 1.85-0.25 1.7 0.6q1.45-0.1 4.05 2.4l1.5 2.15q0.4 5-2.05 5.9" fill="#d3f1c6" fill-rule="evenodd"/>
<path d="m-4.45 11.3q-5-1.45-8.2-4.2l-0.2-1.4 1.9-1.9 2 0.65 2.25 1.4 2.25 5.45" fill="#4f5a3c" fill-rule="evenodd"/>
<path d="m11.1-6.45-3.35-3.15-5.85-2.05-3.95 0.15-4.85 2.2-3.8 4.5-0.6 1.75m22.4-3.4 0.2 0.1 0.3 0.3 1.75 1.95 1.2 4.9q0.8 1.8-1.3 5.3-4.5 4.5-8.95 5.05l-1.75 0.3-6.7 0.2 0.65-0.1-0.55-0.15-0.4-0.1q-5-1.45-8.2-4.2l-0.2-1.4 0.15-3.45-0.15-1.05 1.55-4.25m22.9-3-0.5-0.4z" fill="none" stroke="#2e1700" stroke-linecap="round" stroke-linejoin="round" stroke-opacity=".4"/>
</g>
<g id="d" transform="translate(8.1,6.6)">
<use transform="translate(-8.1,-6.6)" width="16.25" height="14.35" xlink:href="#j"/>
</g>
<g id="j" transform="translate(8.1,6.6)">
<path d="m1.85 6.15h-0.7l-0.05-0.25 0.75 0.25" fill="#e49210" fill-rule="evenodd"/>
<path d="m2.75 1.7-0.35-0.75 0.05-0.05 0.45-0.25 0.05-0.05 2.45-1.7 0.9-2.1 0.85 1.2 0.45 0.95-1.8 3.2-1.9 0.5-0.6-1.15-0.55 0.2m-8.7 2.55-0.05 0.15-1.6-1.25 1-4.75 1.6-1.65 0.65 2.6 4.5 5.65q-2.35 0.55-6.1-0.75" fill="#648461" fill-rule="evenodd"/>
<path d="m2.75 1.7 0.55-0.2 0.6 1.15 1.9-0.5 1.8-3.2 0.05 0.1v4.1l-4.25 3h-1.55l-0.75-0.25-4-0.1-3.05-1.55q3.75 1.3 6.1 0.75l-4.5-5.65-0.65-2.6 2.4-2.6 5.25-0.25 1.4 0.9-4.45 2.15-0.95 2.6v1.85l1.45 1.3 2.65-1" fill="#bbdeb5" fill-rule="evenodd"/>
<path d="m6.3-3.2-0.9 2.1-2.45 1.7-0.05 0.05-0.45 0.25-0.05 0.05 0.35 0.75-2.65 1-1.45-1.3v-1.85l0.95-2.6 4.45-2.15 2.2 1.95 0.05 0.05" fill="#ffffed" fill-rule="evenodd"/>
<path d="m7.6-1.05-0.45-0.95-0.85-1.2m-0.05-0.05-2.2-1.95m-9.05 1.95 2.4-2.6 5.25-0.25 1.4 0.9m3.55 4.15 0.05 0.1v4.1l-4.25 3h-2.25m-0.05-0.25-4-0.1-3.05-1.55m-0.05 0.15-1.6-1.25 1-4.75 1.6-1.65m6.85 9.4-0.75-0.25" fill="none" stroke="#2e1700" stroke-linecap="round" stroke-linejoin="round" stroke-opacity=".4"/>
<path d="m2.6-1.4q-0.35 0.35-0.9 0.35t-0.95-0.35q-0.35-0.3-0.35-0.75t0.35-0.8q0.4-0.3 0.95-0.3l0.9 0.3q0.4 0.35 0.4 0.8t-0.4 0.75" fill="#fffff1" fill-rule="evenodd"/>
<path d="m2.25 6.75-1.9-3.7-1.4-0.7-1.4 4.05-1.6-0.45 2-4.2 2.45-2.4 2.85 0.95 2.3 5.55-3.3 0.9" fill="#4f5a3c" fill-rule="evenodd"/>
<path d="m-2.45 6.4 1.4-4.05 1.4 0.7 1.9 3.7-1.85 0.5-2.85-0.85" fill="#648461" fill-rule="evenodd"/>
<path d="m-2.45 6.4 2.85 0.85 1.85-0.5 3.3-0.9-2.3-5.55-2.85-0.95-2.45 2.4-2 4.2z" fill="none" stroke="#2e1700" stroke-linecap="round" stroke-linejoin="round" stroke-opacity=".4"/>
</g>
<g id="c" transform="translate(8.1,6.6)">
<use transform="translate(-8.1,-6.6)" width="16.25" height="13.25" xlink:href="#i"/>
</g>
<g id="i" transform="translate(8.1,6.6)">
<path d="m7.15-2 0.5 1.05v2.6l-3.95 1.45-2.75-0.75 4.8-1.75 1.4-2.6m-6.55 8.15h-3.7l-1.4-0.9 0.75-2.25 1.15-2v-0.05l1.45 0.8 1.75 4.4m-7.35-2.45-0.85-0.55 1-4.75 1.6-1.65 0.65 2.6-0.75 0.65-1.65 3.7" fill="#648461" fill-rule="evenodd"/>
<path d="m7.65 1.65v1.5l-4.25 3h-2.25l-1.05-3.45 0.85-0.35 2.75 0.75 3.95-1.45m-12.65-4.9 2.4-2.6 5.25-0.25 1.4 0.9-4.45 2.15-0.95 2.6-1.75-1.3-1.25 1.1-0.65-2.6" fill="#bbdeb5" fill-rule="evenodd"/>
<path d="m4.05-5.2q2.1 1.55 3.1 3.2l-1.4 2.6-4.8 1.75-0.85 0.35-0.85-2.7-0.6-0.45 0.95-2.6 4.45-2.15" fill="#ffffed" fill-rule="evenodd"/>
<path d="m1.15 6.15h-0.55l-1.75-4.4-1.45-0.8v0.05l-1.15 2-0.75 2.25-2.25-1.55 1.65-3.7 0.75-0.65 1.25-1.1 1.75 1.3 0.6 0.45 0.85 2.7 1.05 3.45" fill="#413f24" fill-rule="evenodd"/>
<path d="m4.05-5.2q2.1 1.55 3.1 3.2l0.5 1.05v4.1l-4.25 3h-6.5l-1.4-0.9-2.25-1.55-0.85-0.55 1-4.75 1.6-1.65 2.4-2.6 5.25-0.25 1.4 0.9m-5.4 4.75 0.6 0.45 0.85 2.7m1.05 3.45-1.05-3.45m-4.45-3.35 1.25-1.1 1.75 1.3m-3-0.2-0.75 0.65-1.65 3.7" fill="none" stroke="#2e1700" stroke-linecap="round" stroke-linejoin="round" stroke-opacity=".4"/>
<path d="m2.65-0.25q0 0.45-0.4 0.75-0.35 0.35-0.9 0.35t-0.95-0.35q-0.35-0.3-0.35-0.75t0.35-0.8q0.4-0.3 0.95-0.3l0.9 0.3 0.4 0.8" fill="#fffff1" fill-rule="evenodd"/>
</g>
<g id="a" transform="translate(5.9,16.2)">
<use transform="translate(-5.9,-16.2)" width="11.95" height="16.75" xlink:href="#h"/>
</g>
<g id="h" transform="translate(5.9,16.2)">
<path d="m-3.25-14.2q1.3-1.4 2.95-1.5 2.4-0.2 4.45 2.35 1.75 2.15 1.3 4.85-5.6 0.4-8.7-5.7m7.5 8.9q-0.9 1.7-2.2 2.9l-3.15 2.35q-1 0.45-2.15-1.6-0.85-1.5-1.5-3.65-0.15-6 9 0" fill="#ffffed" fill-rule="evenodd"/>
<path d="m5.45-8.5-0.25 0.95-0.95 2.25q-9.15-6-9 0l-0.4-1.55q-0.8-3.2 0.85-5.95l1.05-1.4q3.1 6.1 8.7 5.7" fill="#fffff1" fill-rule="evenodd"/>
<path d="m-3.25-14.2q1.3-1.4 2.95-1.5 2.4-0.2 4.45 2.35 1.75 2.15 1.3 4.85l-0.25 0.95-0.95 2.25q-0.9 1.7-2.2 2.9l-3.15 2.35q-1 0.45-2.15-1.6-0.85-1.5-1.5-3.65l-0.4-1.55q-0.8-3.2 0.85-5.95z" fill="none" stroke="#2e1700" stroke-linecap="round" stroke-linejoin="round" stroke-opacity=".2"/>
</g>
</defs>
</svg>
