<?xml version="1.0" encoding="UTF-8"?>
<svg version="1.1" viewBox="0 0 10.724 14.949" xmlns="http://www.w3.org/2000/svg" xmlns:cc="http://creativecommons.org/ns#" xmlns:dc="http://purl.org/dc/elements/1.1/" xmlns:rdf="http://www.w3.org/1999/02/22-rdf-syntax-ns#" xmlns:xlink="http://www.w3.org/1999/xlink">
<metadata>
<rdf:RDF>
<cc:Work rdf:about="">
<dc:format>image/svg+xml</dc:format>
<dc:type rdf:resource="http://purl.org/dc/dcmitype/StillImage"/>
</cc:Work>
</rdf:RDF>
</metadata>
<g transform="translate(-.078177 .012397)">
<use transform="matrix(-1.0952 0 0 1.1037 11.476 .0175)" width="10.4" height="13.5" xlink:href="#e"/>
</g>
<defs>
<g id="e" transform="translate(3.95,12.85)">
<use transform="translate(-.75 -12.85)" width="7.1999998" height="12.45" xlink:href="#d"/>
<use transform="translate(-3.2,-5.25)" width="5.9000001" height="5.9000001" xlink:href="#c"/>
<use transform="matrix(-.8 0 -.3111 1 -1.0656 -3.6)" width="2.55" height="2.6500001" xlink:href="#a"/>
<use transform="translate(-1.4,-3.15)" width="2.55" height="2.6500001" xlink:href="#a"/>
<use transform="translate(-3.3,-10.35)" width="5.6500001" height="8.3000002" xlink:href="#b"/>
</g>
<g id="d" transform="translate(2.15,11.85)">
<use transform="translate(-2.15,-11.85)" width="7.1999998" height="12.45" xlink:href="#i"/>
</g>
<g id="i" transform="translate(2.15,11.85)">
<path d="m4.6-9.9q0.55 0.8 0.4 1.85v0.1q-0.2 1.05-0.8 1.1l-0.75-0.3 1 3.75q0.25 2.85-1.3 3.7l-2.1 0.2q-1.1 0.2-2.4-0.6l-0.75-0.55q-0.25-1.25 0.65-3.65 1-2.55 0.9-4.2-0.05-1.75 1.05-2.6 1.2-0.95 2.1-0.7 0.9 0.2 2 1.9" fill="#bae7b5" fill-rule="evenodd"/>
<path d="m5-8.05v0.1q-0.2 1.05-0.8 1.1l-0.75-1.45q-0.4-0.4-0.2 0.3l0.2 0.85 1 3.75q0.25 2.85-1.3 3.7l-2.1 0.2q1.1-1.2 1.55-3 0.45-1.95-0.2-3.55-1.4-3.45-0.15-4.4 1.3-1.55 2.75 2.4" fill="#fff" fill-opacity=".2" fill-rule="evenodd"/>
<path d="m4.2-6.85-0.75-0.3-0.2-0.85q-0.2-0.7 0.2-0.3l0.75 1.45" fill="#2e1700" fill-opacity=".4" fill-rule="evenodd"/>
<path d="m-1.35-0.1-0.75-0.55q-0.25-1.25 0.65-3.65 1-2.55 0.9-4.2-0.05-1.75 1.05-2.6-1.05 1.6-0.05 4.1 1.4 4.85-1.8 6.9" fill="#bae7b5" fill-rule="evenodd"/>
<path d="m0.5-11.1q1.2-0.95 2.1-0.7 0.9 0.2 2 1.9 0.55 0.8 0.4 1.85v0.1q-0.2 1.05-0.8 1.1m-0.75-0.3 1 3.75q0.25 2.85-1.3 3.7l-2.1 0.2q-1.1 0.2-2.4-0.6l-0.75-0.55q-0.25-1.25 0.65-3.65 1-2.55 0.9-4.2-0.05-1.75 1.05-2.6z" fill="none" stroke="#2e1700" stroke-linecap="round" stroke-linejoin="round" stroke-opacity=".30196" stroke-width=".05"/>
</g>
<g id="c" transform="translate(2.65,5.5)">
<use transform="translate(-2.65,-5.5)" width="5.9000001" height="5.9000001" xlink:href="#h"/>
</g>
<g id="h" transform="translate(2.65,5.5)">
<path d="m0.8 0.3 0.05 0.05h-0.05v-0.05" fill="#ffbe17" fill-rule="evenodd"/>
<path d="m-1.3-4.9 1.9-0.6q0.95-0.05 2.25 1.5l0.4 2.45q0 1-0.75 1.4l-0.25 0.15-0.75 0.2-0.65 0.15-0.05-0.05-2.6-0.5q-1.4-0.8-0.45-2.95l0.1-0.2 0.05-0.05v-0.05l0.15-0.35 0.65-1.1" fill="#bae7b5" fill-rule="evenodd"/>
<path d="m-1.3-4.9-0.65 1.1m-0.15 0.4-0.05 0.05m4.4 3.35 0.25-0.15q0.75-0.4 0.75-1.4l-0.4-2.45m-2.1 4.35h0.05" fill="none" stroke="#d17012" stroke-linecap="round" stroke-linejoin="round" stroke-width=".05"/>
<path d="m-1.8-0.2q0.85 0.75 2.55 0.55" fill="none" stroke="#ebb14b" stroke-linecap="round" stroke-linejoin="round" stroke-width=".05"/>
<path d="m2.5-0.15-0.3-1.7-1 0.85q0.05-1.05-0.65-2-1.6-1.45-2.7-0.35l0.85-1.55 1.9-0.6q0.95-0.05 2.25 1.5l0.4 2.45q0 1-0.75 1.4" fill="#2e1700" fill-opacity=".2" fill-rule="evenodd"/>
<path d="m-2.15-3.35 0.85-1.55m4.15 0.9 0.4 2.45q0 1-0.75 1.4l-0.25 0.15-1.45 0.35" fill="none" stroke="#c7b099" stroke-linecap="round" stroke-linejoin="round" stroke-width=".05"/>
<path d="m0.55-3q0.7 0.95 0.65 2l-0.4 1.35h-0.05q-2.2 0.25-3.05-1.1-0.45-0.65-0.2-1.65l0.35-0.95q1.1-1.1 2.7 0.35" fill="#fff" fill-rule="evenodd"/>
<path d="m-2.5-2.4 0.35-0.95q1.1-1.1 2.7 0.35 0.7 0.95 0.65 2-2.65 0.35-3.7-1.4" fill="#2e1700" fill-opacity=".2" fill-rule="evenodd"/>
<path d="m-2.5-2.4q-0.25 1 0.2 1.65 0.85 1.35 3.05 1.1" fill="none" stroke="#2e1700" stroke-linecap="round" stroke-linejoin="round" stroke-opacity=".30196" stroke-width=".05"/>
</g>
<g id="a" transform="translate(1.25 -.05)">
<use transform="translate(-1.25 .05)" width="2.55" height="2.6500001" xlink:href="#g"/>
</g>
<g id="g" transform="translate(1.25 -.05)">
<path d="m1.3 0.05q0.15 0.8-0.95 2.4l-1.6-0.05q-0.1-0.95 0.55-2.15l2-0.2" fill="#bae7b5" fill-rule="evenodd"/>
<path d="m1.3 0.05q0.15 0.8-0.95 2.4l-1.6-0.05q-0.1-0.95 0.55-2.15" fill="none" stroke="#c7b099" stroke-linecap="round" stroke-linejoin="round" stroke-width=".05"/>
</g>
<g id="b" transform="translate(2.15,5.2)">
<use transform="translate(-2.15,-5.2)" width="5.6500001" height="8.3000002" xlink:href="#f"/>
</g>
<g id="f" transform="translate(2.15,5.2)">
<path d="m-1.9-1.45q-0.45-2.05 0.7-3.75 0.95 0.25 1.55 3.45l-0.5 0.9q-0.95 0.6-1.75-0.6" fill="#bae7b5" fill-rule="evenodd"/>
<path d="m-1.9-1.45q-0.45-2.05 0.7-3.75 0.95 0.25 1.55 3.45" fill="none" stroke="#c7b099" stroke-linecap="round" stroke-linejoin="round" stroke-width=".05"/>
<path d="m1.65-3.55 0.7 0.6q2.05 3.75-1.3 5.75l-1.95 0.25-1.05-0.85q-0.8-2.85 1.45-5.65l0.25-0.15 0.55-0.2 1.35 0.25" fill="#f4ffdb" fill-rule="evenodd"/>
<path d="m1.65-3.55 0.7 0.6q2.05 3.75-1.3 5.75l-1.95 0.25-1.05-0.85q-0.8-2.85 1.45-5.65l0.25-0.15 0.55-0.2z" fill="none" stroke="#ffbe17" stroke-linecap="round" stroke-linejoin="round" stroke-width=".05"/>
<path d="m-0.25-3.6 0.55-0.2 1.35 0.25q-1.85 1.7-2.25 2.55-0.55-2.1 0.35-2.6" fill="#fff" fill-opacity=".4" fill-rule="evenodd"/>
<path d="m-0.9 3.05-1.05-0.85q-0.8-2.85 1.45-5.65l0.25-0.15q-0.9 0.5-0.35 2.6-1.05 2.4-0.3 4.05" fill="#bae7b5" fill-rule="evenodd"/>
<path d="m1.65-3.55 0.7 0.6q2.05 3.75-1.3 5.75l-1.95 0.25-1.05-0.85q-0.8-2.85 1.45-5.65l0.25-0.15 0.55-0.2z" fill="none" stroke="#c7b099" stroke-linecap="round" stroke-linejoin="round" stroke-width=".05"/>
<path d="m0.3 0.6 0.35-0.65q0.75-1 1.25-0.55 0.7 1.65 0.15 2.45l-0.85 0.7q0.35-1.3-0.9-1.95" fill="#fff9c8" fill-rule="evenodd"/>
<path d="m0.3 0.6q1.25 0.65 0.9 1.95l-1 0.15q-0.45-0.85 0.1-2.1" fill="#667854" fill-rule="evenodd"/>
<path d="m3.2-4.7 0.1-0.15q0.35 0.7-0.5 3.8l-1 0.05q-0.95-0.1-1-1.3 0.65-1.95 2.4-2.4" fill="#bae7b5" fill-rule="evenodd"/>
<path d="m2.75-1-1 0.05q-0.25-1.5 1.5-3.85 0.65 0.8-0.5 3.8" fill="#667854" fill-rule="evenodd"/>
<path d="m3.25-4.8q-1.85 0.6-2.5 2.55m2.5-2.55q0.65 0.8-0.5 3.8" fill="none" stroke="#c7b099" stroke-linecap="round" stroke-linejoin="round" stroke-width=".05"/>
<path d="m-1.85 2.15-0.25-0.7q-0.2-0.7 0.2-2.3 0.2-0.45 0.45 0.5l0.1 0.65q-0.55 0.6-0.5 1.85" fill="#fff9c8" fill-rule="evenodd"/>
<path d="m-1.85 2.15q-0.05-1.25 0.5-1.85 0.1 1.2-0.1 1.95-0.15 0.35-0.4-0.1" fill="#667854" fill-rule="evenodd"/>
</g>
</defs>
</svg>
