<?xml version="1.0" encoding="UTF-8"?>
<svg version="1.1" viewBox="0 0 17.696 21.9" xmlns="http://www.w3.org/2000/svg" xmlns:cc="http://creativecommons.org/ns#" xmlns:dc="http://purl.org/dc/elements/1.1/" xmlns:rdf="http://www.w3.org/1999/02/22-rdf-syntax-ns#" xmlns:xlink="http://www.w3.org/1999/xlink">
<metadata>
<rdf:RDF>
<cc:Work rdf:about="">
<dc:format>image/svg+xml</dc:format>
<dc:type rdf:resource="http://purl.org/dc/dcmitype/StillImage"/>
</cc:Work>
</rdf:RDF>
</metadata>
<g transform="translate(-2.325 -4.025)">
<use transform="matrix(.6 0 0 .6 1.6102 4.1503)" width="30.450001" height="36.099998" xlink:href="#g"/>
<use transform="translate(2.35,4.05)" width="17.65" height="21.85" xlink:href="#h"/>
</g>
<defs>
<g id="g" transform="translate(20.9,31)">
<use transform="translate(-4.65,-16.9)" width="12.75" height="12.3" xlink:href="#f"/>
<use transform="translate(-.3 -8.5)" width="9.1000004" height="8.6999998" xlink:href="#e"/>
<use transform="translate(-8.9,-16.75)" width="13" height="13.75" xlink:href="#d"/>
<use transform="translate(-9.55,-31)" width="19.1" height="21.450001" xlink:href="#c"/>
<use transform="translate(-10,-7)" width="9.3999996" height="12.1" xlink:href="#b"/>
<use transform="matrix(-1.8765 -.1125 -.2303 1.898 -.3279 -18.572)" width="9.6999998" height="10.3" xlink:href="#a"/>
</g>
<g id="f">
<use width="12.75" height="12.3" xlink:href="#n"/>
</g>
<g id="n">
<path d="m5.75 10.55q-3-4-5.75-5.9 0.5-2 3-4.2l5.75-0.45q2.45 2.05 4 7.2-1.75-0.7-3.1-0.55 1 2.55 0.45 5.65l-0.5-0.55-2.6-2.4-1.25-0.95v2.15" fill="#d3f1c6" fill-rule="evenodd"/>
<path d="m5.75 10.55q-3-4-5.75-5.9 0.5-2 3-4.2l5.75-0.45q2.45 2.05 4 7.2-1.75-0.7-3.1-0.55 1 2.55 0.45 5.65l-0.5-0.55-2.6-2.4-1.25-0.95z" fill="none" stroke="#2e1700" stroke-linecap="round" stroke-linejoin="round" stroke-opacity=".30196" stroke-width=".05"/>
</g>
<g id="e" transform="translate(0 -.05)">
<use transform="translate(0 .05)" width="9.1000004" height="8.6999998" xlink:href="#m"/>
</g>
<g id="m" transform="translate(0 -.05)">
<path d="m5.6 3.15h0.2l-0.55 1.15-0.35-0.25 0.7-0.9m3.3 3.75 0.2 0.15-2 0.8-4.55-0.85-0.25-1.1 6.05 1.05 0.55-0.05m-6.75 1.55v0.3q-1.75-1.95-2.15-3.9l0.4-0.85-0.3-3.1 0.35-0.55 0.35 3.9 1.35 4.2" fill="#667854" fill-rule="evenodd"/>
<path d="m5.25 4.3q2.75 0.65 3.65 2.6l-0.55 0.05-6.05-1.05 0.25 1.1-0.25-0.05 0.3 0.4-0.45 1.1-1.35-4.2-0.35-3.9q0.3-0.4 0.75-0.3l0.95 2.85q1.5-0.55 3.45 0.25l-0.7 0.9 0.35 0.25" fill="#fff" fill-rule="evenodd"/>
<path d="m5.6 3.15h0.2l-0.55 1.15q2.75 0.65 3.65 2.6l0.2 0.15-2 0.8-4.55-0.85m0.05 0.35-0.45 1.1v0.3q-1.75-1.95-2.15-3.9l0.4-0.85-0.3-3.1 0.35-0.55q0.3-0.4 0.75-0.3l0.95 2.85q1.5-0.55 3.45 0.25m-0.7 0.9 0.35 0.25" fill="none" stroke="#2e1700" stroke-linecap="round" stroke-linejoin="round" stroke-opacity=".30196" stroke-width=".05"/>
</g>
<g id="d" transform="translate(5.25,11.5)">
<use transform="translate(-5.25,-11.5)" width="13" height="13.75" xlink:href="#l"/>
</g>
<g id="l" transform="translate(5.25,11.5)">
<path d="m1.7 2.25q-3 0.05-5.05-0.7l-1.9-3.3 1.5-6.3q3.3-2.75 5.75-3.45l5.1 1.65 0.3 1.55 0.35 3.85h-3.25l-0.6-0.15-0.15 0.65-3.6 3.3q0.35 1.8 1.55 2.9" fill="#d3f1c6" fill-rule="evenodd"/>
<path d="m7.75-4.45-0.05 1.25q-1.75 3.2-4.15 5.35l-1.85 0.1q-1.2-1.1-1.55-2.9l3.6-3.3 0.15-0.65 0.6 0.15h3.25" fill="#f0fed8" fill-rule="evenodd"/>
<path d="m1.7 2.25q-3 0.05-5.05-0.7l-1.9-3.3 1.5-6.3q3.3-2.75 5.75-3.45l5.1 1.65 0.3 1.55 0.35 3.85-0.05 1.25q-1.75 3.2-4.15 5.35z" fill="none" stroke="#2e1700" stroke-linecap="round" stroke-linejoin="round" stroke-opacity=".30196" stroke-width=".05"/>
</g>
<g id="c" transform="translate(8.5,13.25)">
<use transform="translate(-8.5,-13.25)" width="19.1" height="21.450001" xlink:href="#k"/>
</g>
<g id="k" transform="translate(8.5,13.25)">
<path d="m4.8-7.2-0.3-0.35h0.05l0.25 0.35" fill="#947d66" fill-rule="evenodd"/>
<path d="m-6.4 2.9-0.05-0.05 0.1 0.05h-0.05" fill="#573f35" fill-rule="evenodd"/>
<path d="m4.5-7.55q-0.45-0.55-0.6-1.15l0.65 1.15h-0.05" fill="#907873" fill-rule="evenodd"/>
<path d="m-6.55-12.95 5.15 4.8-3.1-0.4-2.95-4.7 0.9 0.3m-0.15 3.75 2.75 3.6 0.2 0.9 1.5 3.55v3.3l-1.9 1.6-1.3-0.2-0.9-0.65-0.1-0.05-0.15-0.1-1.9-2.2 2.55-2.8v-0.2l0.3-2.3 0.1-0.25-2-4.45 0.85 0.25m0.8 11.15-0.7 0.8 0.7-0.8" fill="#d3f1c6" fill-rule="evenodd"/>
<path d="m1.95-11.75 0.8 3.4 0.95 1.85q0.9 4.4 0.85 9.05l-0.05 0.05q-1.8 2.1-4.3 2.1-1.25 0-2.25-0.5l-0.4-0.15-1.7-0.3 1.9-1.6v-3.3l-1.5-3.55-0.2-0.9-2.75-3.6 2.2 0.7 0.1 0.05-0.1-0.1 3.1 0.4-5.15-4.8 7.65 2.5 0.3 0.25 0.55-1.55" fill="#f4ffdb" fill-rule="evenodd"/>
<path d="m1.95-11.75 0.05-0.25 1.9 3.3q0.15 0.6 0.6 1.15l0.3 0.35q1.5 2 1.5 4.75 0 2.9-1.75 5 0.05-4.65-0.85-9.05l-0.95-1.85-0.8-3.4" fill="#fff" fill-rule="evenodd"/>
<path d="m1.4-10.2-0.3-0.25-7.65-2.5-0.9-0.3 2.95 4.7 0.1 0.1-0.1-0.05-2.2-0.7-0.85-0.25 2 4.45-0.1 0.25m1.5 8.5 1.7 0.3 0.4 0.15m-3.9-6.45-2.55 2.8 1.9 2.2 0.7-0.8m-0.45 0.95 0.9 0.65 1.3 0.2m-2.3-0.9 0.05 0.05m0.05 0-0.1-0.05-0.15-0.1" fill="none" stroke="#2e1700" stroke-linecap="round" stroke-linejoin="round" stroke-opacity=".30196" stroke-width=".05"/>
<path d="m4.55 2.55q1.75-2.1 1.75-5 0-2.75-1.5-4.75l-0.3-0.35q-0.45-0.55-0.6-1.15m-5.95 12.9q1 0.5 2.25 0.5 2.5 0 4.3-2.1l0.05-0.05m-10.2-7.3-0.3 2.3v0.2" fill="none" stroke="#2e1700" stroke-linecap="round" stroke-linejoin="round" stroke-opacity=".30196" stroke-width=".05"/>
<path d="m3.9-8.7-1.9-3.3-0.05 0.25-0.55 1.55m2.5 1.5 0.65 1.15 0.25 0.35" fill="none" stroke="#2e1700" stroke-linecap="round" stroke-linejoin="round" stroke-opacity=".30196" stroke-width=".05"/>
<path d="m-3-3.25q0.15-3 2.35-4.2 2.7 0.65 4.15 4-3.05 1.85-6.5 0.2" fill="#fff" fill-rule="evenodd"/>
<path d="m-3-3.25q3.45 1.65 6.5-0.2-1.45-3.35-4.15-4-2.2 1.2-2.35 4.2z" fill="none" stroke="#e4cdb6" stroke-linecap="round" stroke-linejoin="round" stroke-width=".05"/>
<path d="m6.1-7.6-0.05 3.15q-1.1 1.15-1.85 0.6 0.75-2.7 1.9-3.75" fill="#fff" fill-rule="evenodd"/>
<path d="m6.1-7.6-0.05 3.15q-1.1 1.15-1.85 0.6 0.75-2.7 1.9-3.75z" fill="none" stroke="#e4cdb6" stroke-linecap="round" stroke-linejoin="round" stroke-width=".05"/>
<path d="M 2.4,-7 8,-9.4 4.65,-5.15 2.4,-7" fill="#d3f1c6" fill-rule="evenodd"/>
<path d="M 4.65,-5.15 8,-9.4 2.4,-7" fill="none" stroke="#7f6a64" stroke-linecap="round" stroke-linejoin="round" stroke-width=".05"/>
<path d="m-3.1-8.9 7.85 1.5-2.05 2.4-5.8-3.9" fill="#d3f1c6" fill-rule="evenodd"/>
<path d="m-3.1-8.9 7.85 1.5-2.05 2.4" fill="none" stroke="#7f6a64" stroke-linecap="round" stroke-linejoin="round" stroke-width=".05"/>
<path d="m-3.3-2.5-0.65-0.55q0-0.25 0.75-0.35l1.65 0.25q0.95 0.2 1.6 0.55l0.6 0.65q-0.05 0.2-0.7 0.2l-1.7-0.15-1.55-0.6" fill="#667854" fill-rule="evenodd"/>
<path d="m2.65-2.75 1.95-0.6 1.1 0.05 4.8 4.3q0.5 3.25-1.4 7.2v-0.05q-0.2-2.45-1.4-5.25-1.9-3-5.05-5.65m-3.15 3.25 1.6-2.7q2.35 2.45 3.15 4.95-1.6-1.15-4.75-2.25" fill="#fff" fill-rule="evenodd"/>
<path d="m9.1 8.15-2.45-2.85-0.65 0.1-5.85-1.5-1.25-1.2-0.5-0.1-0.1-0.45q-0.05-1.2 1.05-1.4l0.15-0.25q3.15 1.1 4.75 2.25-0.8-2.5-3.15-4.95l0.05-0.1 1.5-0.45q3.15 2.65 5.05 5.65 1.2 2.8 1.4 5.25m-10.2-5.45 6.8 1.45 0.95 1.15-0.95-1.15-6.8-1.45" fill="#667854" fill-rule="evenodd"/>
<path d="m2.65-2.75 1.95-0.6 1.1 0.05 4.8 4.3q0.5 3.25-1.4 7.2v-0.05l-2.45-2.85-0.65 0.1-5.85-1.5-1.25-1.2-0.5-0.1-0.1-0.45q-0.05-1.2 1.05-1.4l0.15-0.25 1.6-2.7 0.05-0.1 1.5-0.45m4 8.05-0.95-1.15-6.8-1.45" fill="none" stroke="#2e1700" stroke-linecap="round" stroke-linejoin="round" stroke-opacity=".30196" stroke-width=".05"/>
<path d="m5.35 2.35q0.65-0.65 1.1-0.4 0.7 0.2 1.15 1.15m2.6-0.65-0.25-0.5q0.05-0.55 0.45-0.75" fill="none" stroke="#2e1700" stroke-linecap="round" stroke-linejoin="round" stroke-opacity=".30196" stroke-width=".05"/>
</g>
<g id="b" transform="translate(3 .75)">
<use transform="translate(-3 -.75)" width="9.3999996" height="12.1" xlink:href="#j"/>
</g>
<g id="j" transform="translate(3 .75)">
<path d="m1.6 3.85q2.25 0.05 4.8 2.1l-0.45 0.2-0.35 0.2-2.65-2-1.35-0.5m2.85 7.3-5-2.6-2.2 1.05-0.25-3.1 2.3-2.3 0.65-4.7q0.5-0.4 0.8-0.15l-0.4 5.35 4.1 6.45" fill="#667854" fill-rule="evenodd"/>
<path d="m0.75-0.65 0.4 0.55v0.05l0.35 3.35 0.1 0.55 1.35 0.5 2.65 2-0.75 0.3q0.8 1.9-0.05 4.7l-0.35-0.2-4.1-6.45 0.4-5.35" fill="#fff" fill-rule="evenodd"/>
<path d="m0.75-0.65 0.4 0.55v0.05l0.35 3.35 0.1 0.55q2.25 0.05 4.8 2.1l-0.45 0.2m-0.35 0.2-0.75 0.3q0.8 1.9-0.05 4.7l-0.35-0.2-5-2.6-2.2 1.05-0.25-3.1 2.3-2.3 0.65-4.7q0.5-0.4 0.8-0.15z" fill="none" stroke="#2e1700" stroke-linecap="round" stroke-linejoin="round" stroke-opacity=".30196" stroke-width=".05"/>
</g>
<g id="a" transform="translate(2.9,1)">
<use transform="translate(-2.9,-1)" width="9.6999998" height="10.3" xlink:href="#i"/>
</g>
<g id="i" transform="translate(2.9,1)">
<path d="m3.4 1.8 0.35-0.1q1.9 0.65 3.05 1.45l-0.15 0.05-2.9-0.7-0.35-0.7m-0.5 2.1q1.8 1.3 2.9 2.75l-2.3-0.25-2.2-2.3 1.6-0.2m-1.15 2.3q0.95 1.55 2.6 3.1l-0.2-0.05q-2.4-1.5-3.75-3.15l0.7-0.95 0.65 1.05" fill="#d3f1c6" fill-rule="evenodd"/>
<path d="m2.15-0.2 1.25 2 0.35 0.7 2.9 0.7-3.75 0.7-1.6 0.2 2.2 2.3-1.75-0.2-0.65-1.05-0.7 0.95q1.35 1.65 3.75 3.15-2.8-0.8-4.3-1.9l-0.8-1.65h-0.05l-1.9-1.85 5.05-4.05" fill="#f4ffdb" fill-rule="evenodd"/>
<path d="m-2.9 3.85 1.55-3.2 1.2-1.65 2.3 0.8-5.05 4.05" fill="#fff" fill-rule="evenodd"/>
<path d="m-2.9 3.85 1.55-3.2 1.2-1.65 2.3 0.8m1.6 1.9q1.9 0.65 3.05 1.45l-0.15 0.05-3.75 0.7q1.8 1.3 2.9 2.75l-2.3-0.25-1.75-0.2q0.95 1.55 2.6 3.1l-0.2-0.05q-2.8-0.8-4.3-1.9m1.25-2.2 0.65 1.05m-0.45-2.1 1.6-0.2" fill="none" stroke="#2e1700" stroke-linecap="round" stroke-linejoin="round" stroke-opacity=".30196" stroke-width=".05"/>
<path d="m2.15-0.2 1.25 2" fill="none" stroke="#2e1700" stroke-linecap="round" stroke-linejoin="round" stroke-opacity=".30196" stroke-width=".05"/>
</g>
<g id="h" transform="translate(-2.35,-4.05)">
<path d="m14.7 5.05-0.35 0.95-0.15-0.15-5.15-1.7 1.85 2.9-1.9-0.6 1.2 2.65-0.05 0.15-0.2 1.4v0.1l-1.15 1.25-0.65 0.2-1.65 2.15-0.35-0.1q-2.3 0.6-3.7 1.45l0.2 0.05 4.15 1.05q-2.25 1.35-3.7 2.95l2.65-0.15 2-0.1-3.35 3.35 0.25-0.05q3.15-0.7 4.95-1.8l-0.05 0.55-1.4 1.35 0.15 1.85 1.3-0.6 3.25 1.65q0.5-1.65 0-2.8 0.5-0.2 0.95-0.45-1.55-1.2-2.9-1.25l-0.05-0.5 2.1 0.15 1.1-0.05q0.3 1 1.2 1.95v-0.2l0.25-0.65-0.15-0.2 2.9 0.5 1.15-0.45-0.1-0.1q-0.55-1.2-2.2-1.55l0.2-0.35 0.15 0.15q0.3-1.9-0.3-3.4l1.7 0.25 0.1 0.15 0.05 0.05q1.1-2.3 0.85-4.25v-0.05l-2.55-2.3-0.15-1.15 0.05-1.4 1.1-1.45-2.15 0.9-1.4-2.45z" fill="none" stroke="#000" stroke-linecap="round" stroke-linejoin="round" stroke-opacity=".15294" stroke-width=".25"/>
</g>
</defs>
</svg>
