<?xml version="1.0" encoding="UTF-8"?>
<svg version="1.1" viewBox="0 0 21.5 19.55" xmlns="http://www.w3.org/2000/svg" xmlns:cc="http://creativecommons.org/ns#" xmlns:dc="http://purl.org/dc/elements/1.1/" xmlns:rdf="http://www.w3.org/1999/02/22-rdf-syntax-ns#" xmlns:xlink="http://www.w3.org/1999/xlink">
<metadata>
<rdf:RDF>
<cc:Work rdf:about="">
<dc:format>image/svg+xml</dc:format>
<dc:type rdf:resource="http://purl.org/dc/dcmitype/StillImage"/>
</cc:Work>
</rdf:RDF>
</metadata>
<g transform="translate(-1.425 -1.725)">
<use transform="translate(1.55,1.85)" width="21.25" height="19.299999" xlink:href="#a"/>
<use transform="translate(1.45,1.75)" width="21.450001" height="19.5" xlink:href="#b"/>
</g>
<defs>
<g id="a">
<use width="21.25" height="19.299999" xlink:href="#c"/>
</g>
<g id="c">
<path d="m3.1 8.55-1.45-0.3-1.4 1.95-0.25 0.15 0.9-2.45 3.85-0.4 1.3-0.1 0.15 0.3-2.4 0.45-1.35 1.6 0.6 2.1-1.4-1.8 0.45-0.9 1-0.6m14.05-6.35q-0.3 1.3-0.35 2.65l0.65 0.7q-0.7-0.45-2.4 0.3l-0.65 1.1-0.05 0.05-1-0.8q-2.65-1.1-4 0.05l0.55 0.1h0.05l-0.05 0.05v0.05l-0.05 0.05-0.4 2.8 0.4 0.65 0.2 0.2-0.7 1.3-0.7-6.15-1.3 2.25-0.15-2.85 0.15-0.3 0.7-1.25 0.1 0.05 3.85 0.3 2.05-0.1 1.4-0.25 0.55-0.2h0.05q0.95-0.35 1.1-0.75m-0.4 5.05 3.7 0.35 0.8 2.2-0.2-0.15-1.3-1.75-1.35 0.25 0.95 0.55 0.4 0.85-1.25 1.65 0.55-1.9-1.25-1.5-1.05-0.15v-0.4m0.05 1.55 0.25 2.15q-1.35 0.85-2.95 1.1l-2.5 0.05-0.25-0.05-0.9-1.6 1.35 0.3 1.15-0.4 0.85-0.7 0.05-0.1 0.25-2.45h0.15l0.15-0.05v-0.05l0.05 0.05 0.1-0.05 0.15 0.7 0.05 0.5v0.2l0.05 1q1.2 2.6 1.95-0.6h0.05" fill="#f4ffdb" fill-rule="evenodd"/>
<path d="m0.25 10.2 1.4-1.95 1.45 0.3-1 0.6-1 0.4-0.85 0.65m4.5-2.7q0.15-2.85-0.3-5.85v-0.05l0.2 0.3 1.55 0.8 0.2-0.05 0.5 2.55 0.3-0.5 0.15 2.85 1.3-2.25 0.7 6.15 0.7-1.3-0.2-0.2-0.4-0.65 0.4-2.8 0.05-0.05v-0.05l0.05-0.05h-0.05l-0.55-0.1q1.35-1.15 4-0.05l1 0.8h0.05v-0.05l0.65-1.1q1.7-0.75 2.4-0.3l0.15 0.15-0.85 0.4v2.7q-0.75 3.2-1.95 0.6 1-0.1 1.65-0.7v-2.5l-0.8 0.35-0.55 0.2-0.55 0.25-0.1 0.05-0.05-0.05v0.05l-0.15 0.05h-0.15l-0.55-0.1-1.3-0.25-2.3-0.4 0.35 2.5 0.25 0.1 0.45 0.2 2.2 0.45 0.6 0.05-0.85 0.7-1.15 0.4-1.35-0.3 0.9 1.6 0.25 0.05 2.5-0.05q1.6-0.25 2.95-1.1l0.05 0.2v0.15q-0.1 0.45-1.1 0.8h-0.05l-0.55 0.2-0.9 0.2h-0.1l-2.45 0.15h-0.45l-2.05-0.1-0.6-1.15-0.4-0.75-0.3 1.55-0.05 0.1v0.05l-1-0.25-0.45-0.1q-1.75-0.5-2.15-1.1l-0.15-0.3v-0.05l0.05-0.1 0.25-1.65-0.65 0.2-0.9 1.15 0.05 1.8-0.1-0.1-0.6-2.1 1.35-1.6 2.4-0.45-0.15-0.3-1.3 0.1m16.3 2.15-0.8-0.55-0.9-0.4-0.95-0.55 1.35-0.25 1.3 1.75m-2.55 1.55-0.05 0.1v-1.65l-0.85-1.05-0.8-0.2-0.05-0.75 1.05 0.15 1.25 1.5-0.55 1.9m-3.05 1.75 2 0.4 2.1 2.1-2.65-0.75 1 2.25-5.1-1.95q0.1-1.15 2.65-2.05m-6.3 1.75q1.6 1.75 2.25 3.75l-2.9-1.25-0.9 2.1-1.05-1.7q-0.9-2.45 2.6-2.9m-4.5-5.9 1.8-0.5-1.8 0.5" fill="#bae7b5" fill-rule="evenodd"/>
<path d="m4.45 1.6-0.05-0.1v-0.1q0.05-0.5 1.05-0.9 1.15-0.4 2.95-0.45l0.5 0.4-2.6 0.35q-0.9 0.3-0.85 0.75l0.1 0.2q0.25 0.4 1.3 0.7h-0.05l-0.4 0.2-0.2 0.05-1.55-0.8-0.2-0.3m5.05-1.55v-0.05h0.05l4.75 0.5 1 0.3-0.75 0.25-0.05-0.05-0.8-0.2-3.95-0.4h-0.05l-0.2-0.35m5.8 1.1 0.6-0.15 1.15 0.75 0.1 0.35v0.1q-0.15 0.4-1.1 0.75h-0.05l-0.55 0.2-1.4 0.25-2.05 0.1-3.85-0.3v-0.45l3.65 0.35 2.85-0.3 0.45-0.15h0.05l0.9-0.55 0.05-0.05-0.1-0.3q-0.25-0.3-0.95-0.55l0.25-0.05" fill="#fffff1" fill-rule="evenodd"/>
<path d="m9 0.85 0.3-0.45 0.2-0.35 0.2 0.35h-0.05l-0.45 1.2-0.2-0.75m6.3-0.05h0.05l-0.05 0.35-0.25 0.05-0.6 1.15 0.05-1.35 0.05 0.05 0.75-0.25m-8.1 3.9-0.3 0.5-0.5-2.55 0.4-0.2 0.55 1.95-0.15 0.3" fill="#feffe6" fill-rule="evenodd"/>
<path d="m8.9 0.45 0.1 0.4 0.2 0.75 0.45-1.2h0.1l3.95 0.4 0.8 0.2-0.05 1.35 0.6-1.15q0.7 0.25 0.95 0.55l0.1 0.3-0.05 0.05-0.9 0.55h-0.05l-0.45 0.15-2.85 0.3-3.65-0.35v0.25l-0.1 0.15-0.7 1.25-0.55-1.95h0.05q-1.05-0.3-1.3-0.7l-0.1-0.2q-0.05-0.45 0.85-0.75l2.6-0.35m5.5 12.05 0.2 0.3 0.85 0.15q-2.55 0.9-2.65 2.05l-1.6-0.6 0.3-1.75h0.45l2.45-0.15m-5.55-1.1-0.15 0.45 0.35 2.75 0.1 0.1q-3.5 0.45-2.6 2.9l-1.05-1.75 1.15-3.85 0.45 0.1 1 0.25v-0.05l0.05-0.1 0.55-0.35-0.55 0.35 0.3-1.55 0.4 0.75" fill="#667854" fill-rule="evenodd"/>
<path d="m12.25 6.75-0.1 0.35 0.2 0.5q0.2 0.2 0.5 0.2l0.5-0.2 0.2-0.5v-0.1l0.55 0.1-0.25 2.45-0.65 0.05-2.2-0.45-0.45-0.2-0.25-0.1-0.35-2.5 2.3 0.4m2.3 0.25 0.55-0.25-0.05 0.2 0.1 0.4 0.25 0.2 0.15-0.05 0.05-0.05 0.15-0.3v-0.2l-0.1-0.4 0.8-0.35v2.5q-0.65 0.6-1.65 0.7l-0.05-1v-0.2l-0.05-0.5-0.15-0.7" fill="#fff" fill-rule="evenodd"/>
<path d="m13.55 7v0.1l-0.2 0.5-0.5 0.2q-0.3 0-0.5-0.2l-0.2-0.5 0.1-0.35 1.3 0.25m1.55-0.25 0.55-0.2 0.1 0.4v0.2l-0.15 0.3-0.05 0.05-0.15 0.05-0.25-0.2-0.1-0.4 0.05-0.2" fill="#2e1700" fill-rule="evenodd"/>
<path d="m16.8 8.4v0.4h-0.05v-1.25 0.1l0.05 0.75m-2.4-1.45v0.05h-0.05l0.05-0.05" fill="#e3952d" fill-rule="evenodd"/>
<path d="m4.45 1.65v-0.05 0.05m5.3-1.25h-0.05 0.05" fill="#ffd374" fill-rule="evenodd"/>
<path d="m0.25 10.2 0.85-0.65 1-0.4 1-0.6m-0.05 3.3-1.4-1.8 0.45-0.9m-1.85 1.05-0.25 0.15 0.9-2.45 3.85-0.4q0.15-2.85-0.3-5.85v-0.05l-0.05-0.1v-0.1q0.05-0.5 1.05-0.9 1.15-0.4 2.95-0.45l0.5 0.4m0.1 0.4 0.3-0.45 0.2-0.35v-0.05h0.05l4.75 0.5 1 0.3h0.05l-0.05 0.35 0.6-0.15 1.15 0.75 0.1 0.35v0.1q-0.3 1.3-0.35 2.65l0.65 0.7 0.15 0.15-0.85 0.4v1.15l3.7 0.35 0.8 2.2-0.2-0.15m-1.7-0.95 0.4 0.85-1.25 1.65-0.05 0.1v-1.65l-0.85-1.05-0.8-0.2v0.4l0.25 2.15 0.05 0.2v0.15q-0.1 0.45-1.1 0.8h-0.05l-0.55 0.2-0.9 0.2h-0.1l0.2 0.3 0.85 0.15 2 0.4 2.1 2.1-2.65-0.75 1 2.25-5.1-1.95-1.6-0.6 0.3-1.75-2.05-0.1-0.6-1.15-0.15 0.45 0.35 2.75 0.1 0.1q1.6 1.75 2.25 3.75l-2.9-1.25-0.9 2.1-1.05-1.7-1.05-1.75 1.15-3.85q-1.75-0.5-2.15-1.1l-0.15-0.3v-0.05l0.05-0.1 0.25-1.65-0.65 0.2-0.9 1.15 0.05 1.8-0.1-0.1m3-4.45-1.3 0.1m12 0.05v-0.3m0 0.3v0.1l0.05 0.75m-8.65 3.8-0.05 0.1v0.05l-1-0.25-0.45-0.1m2.05-0.15-0.55 0.35m6.25 0.3-2.45 0.15h-0.45m-5.05-4.35-1.8 0.5" fill="none" stroke="#2e1700" stroke-linecap="round" stroke-linejoin="round" stroke-opacity=".30196" stroke-width=".05"/>
</g>
<g id="b" transform="translate(-1.45,-1.75)">
<path d="m10.55 2.7 0.3-0.45 0.2-0.35v-0.05h0.05l4.75 0.5 1 0.3h0.05l-0.05 0.35 0.6-0.15q0.85 0.35 1.15 0.75l0.1 0.35v0.1q-0.3 1.3-0.35 2.65l0.8 0.85-0.85 0.4v1.15l3.7 0.35 0.8 2.2m-1.9-1.1 0.4 0.85-1.25 1.65-0.05 0.1v-1.65l-0.85-1.05-0.8-0.2v0.4l0.25 2.15 0.05 0.2v0.15q-0.1 0.45-1.1 0.8h-0.05l-0.55 0.2-0.9 0.2h-0.1l0.2 0.3 2.85 0.55 2.1 2.1-2.65-0.75 1 2.25-6.7-2.55 0.3-1.75-2.05-0.1-0.6-1.15-0.15 0.45 0.35 2.75 0.1 0.1q1.6 1.75 2.25 3.75l-2.9-1.25-0.9 2.1-2.1-3.45 1.15-3.85q-1.75-0.5-2.15-1.1l-0.15-0.3v-0.05l0.05-0.1 0.25-1.65-0.65 0.2-0.9 1.15 0.05 1.8-1.5-1.9 0.45-0.9-1 0.4-1.1 0.8 0.9-2.45 3.85-0.4q0.15-2.85-0.3-5.85v-0.05l-0.05-0.1v-0.1q0.05-0.5 1.05-0.9l2.95-0.45 0.5 0.4m7.85 6.8v0.4l0.05 0.75m-14.7 0.75 1-0.6m11.3 3.95-2.45 0.15h-0.45m-2.8-0.8-0.55 0.35-0.05 0.1v0.05l-1-0.25-0.45-0.1m-0.2-3.7-1.8 0.5m0.1-1.3 1.3-0.1" fill="none" stroke="#000" stroke-linecap="round" stroke-linejoin="round" stroke-opacity=".49804" stroke-width=".25"/>
</g>
</defs>
</svg>
