<?xml version="1.0" encoding="UTF-8"?>
<svg version="1.1" viewBox="0 0 13.227 17.066" xmlns="http://www.w3.org/2000/svg" xmlns:cc="http://creativecommons.org/ns#" xmlns:dc="http://purl.org/dc/elements/1.1/" xmlns:rdf="http://www.w3.org/1999/02/22-rdf-syntax-ns#" xmlns:xlink="http://www.w3.org/1999/xlink">
<metadata>
<rdf:RDF>
<cc:Work rdf:about="">
<dc:format>image/svg+xml</dc:format>
<dc:type rdf:resource="http://purl.org/dc/dcmitype/StillImage"/>
</cc:Work>
</rdf:RDF>
</metadata>
<g transform="translate(.016214 .015479)">
<use transform="matrix(-.0689 0 0 .0689 13.204 -.006)" width="191.89999" height="249.64999" xlink:href="#h"/>
</g>
<defs>
<g id="h" transform="translate(112.6,210.65)">
<use transform="matrix(5.1392 .6338 -1.3867 4.735 -60.024 -72.263)" width="8.6000004" height="15.7" xlink:href="#b"/>
<use transform="matrix(.7847 0 0 1 -94.8 -137.7)" width="66.949997" height="72.599998" xlink:href="#a"/>
<use transform="matrix(-1,0,0,1,79.3,-205.05)" width="160.25" height="176.3" xlink:href="#f"/>
<use transform="matrix(-1,0,0,1,76.25,-122.55)" width="66.949997" height="72.599998" xlink:href="#a"/>
<use transform="translate(-112.6,-210.65)" width="108.55" height="101.2" xlink:href="#d"/>
<use transform="matrix(7.0401 .8682 -1.8997 6.4863 -8.362 -70.301)" width="8.6000004" height="15.7" xlink:href="#b"/>
</g>
<g id="b" transform="translate(4.15,1.95)">
<use transform="translate(-4.15,-1.95)" width="8.6000004" height="15.7" xlink:href="#r"/>
</g>
<g id="r" transform="translate(4.15,1.95)">
<path d="m3.3 9.8q-0.8 0.75-2 1.1l-0.3 0.05-2.15-0.05-0.1-0.05-0.35-0.15q-0.85-0.4-1.05-1.2l-0.05-0.3q-0.1-0.8 0.6-1.55 0.8-0.95 2.2-1.3 1.35-0.4 2.5 0t1.45 1.4q0.2 0.9-0.6 1.85l-0.15 0.2" fill="#fffff1" fill-rule="evenodd"/>
<path d="m1.05 11.15-0.05-0.2 0.05 0.2-2.65 2.15 0.45-2.4 2.15 0.05 0.3-0.05q1.2-0.35 2-1.1l-1.45 3.95-0.8-2.6m-3.75-1.95 0.05 0.3q0.2 0.8 1.05 1.2l-2.55 0.25 1.45-1.75" fill="#fff" fill-rule="evenodd"/>
<path d="m1 10.95 0.05 0.2 0.8 2.6 1.45-3.95q-0.8 0.75-2 1.1l-0.3 0.05-2.15-0.05-0.45 2.4 2.65-2.15m-3.75-1.95q-0.1-0.8 0.6-1.55 0.8-0.95 2.2-1.3 1.35-0.4 2.5 0t1.45 1.4q0.2 0.9-0.6 1.85l-0.15 0.2m-6-0.6 0.05 0.3q0.2 0.8 1.05 1.2l0.35 0.15 0.1 0.05m-0.45-0.2-2.55 0.25 1.45-1.75" fill="none" stroke="#8a7b3c" stroke-linecap="round" stroke-linejoin="round" stroke-width=".05"/>
<path d="m-0.25-1.95 1.4 1.4 3.3 9.3q-1.25 3.05-5 2.35-0.8-0.2-1.35-0.6-1.1-0.75-1.5-2.25-1.05-4.9 0.9-7.95l2.25-2.25" fill="#d0f4c6" fill-rule="evenodd"/>
<path d="m-1.9 10.5q-1.1-0.75-1.5-2.25-1.05-4.9 0.9-7.95l2.25-2.25 1.4 1.4 0.65 1.9-2.75 0.3-1 2.45-0.5 4.3 0.55 2.1" fill="#2b1a00" fill-opacity=".25098" fill-rule="evenodd"/>
<path d="m1.8 1.35-0.65-1.9-1.4-1.4-2.25 2.25q-1.95 3.05-0.9 7.95 0.4 1.5 1.5 2.25m3.7-9.15 2.65 7.4q-1.25 3.05-5 2.35-0.8-0.2-1.35-0.6" fill="none" stroke="#2b1a00" stroke-linecap="round" stroke-linejoin="round" stroke-opacity=".30196" stroke-width=".05"/>
</g>
<g id="a" transform="translate(7.2,6.6)">
<use transform="translate(-7.2,16.95)" width="40.799999" height="49.049999" xlink:href="#q"/>
<use transform="matrix(-4.4149 0 0 4.4149 59.773 -6.6111)" width="10.4" height="9.5" xlink:href="#g"/>
<use transform="translate(9.95 .2)" width="38.299999" height="41.049999" xlink:href="#o"/>
</g>
<g id="q" transform="translate(7.2,-16.95)">
<path d="m10.3 16.95q-0.45 5.8 3.7 11.05l4.85 5.15-1.25 0.35 1.25-0.35q2.95 2.8 5.65 4.6l0.1 0.05-16.6 18.7 9.6-23-24.8 7.85 17.5-24.4m15.3 21.5q4.45 2.65 8 2.1l-12.85 25.45 4.85-27.55" fill="#fff" fill-rule="evenodd"/>
<path d="m10.3 16.95-17.5 24.4 24.8-7.85 1.25-0.35m5.75 4.65-16.6 18.7 9.6-23m8 4.95-4.85 27.55 12.85-25.45" fill="none" stroke="#7c6f2b" stroke-linecap="round" stroke-linejoin="round" stroke-width=".05"/>
</g>
<g id="g" transform="translate(.9 .75)">
<use transform="translate(-.9 -.75)" width="10.4" height="9.5" xlink:href="#p"/>
</g>
<g id="p" transform="translate(.9 .75)">
<path d="m5.95 8.75q-2.6-5.95-6.85-7.65v-1.85h3q4.8 0.6 7.4 6.4l-1 2.3-2.55 0.8" fill="#d0f4c6" fill-rule="evenodd"/>
<path d="m1.55-0.75 0.7 2 4.5 4.05 0.85 2.95-1.65 0.5q-2.6-5.95-6.85-7.65v-1.85h2.45" fill="#2b1a00" fill-opacity=".25098" fill-rule="evenodd"/>
<path d="m7.6 8.25 0.9-0.3 1-2.3q-2.6-5.8-7.4-6.4h-0.55m6.05 9-1.65 0.5q-2.6-5.95-6.85-7.65v-1.85h2.45" fill="none" stroke="#2b1a00" stroke-linecap="round" stroke-linejoin="round" stroke-opacity=".30196" stroke-width=".05"/>
</g>
<g id="o" transform="translate(-9.95 -.2)">
<path d="m46.9 33.1-11.45 6.9-1.85 0.55q-3.55 0.55-8-2.1l-1-0.65-0.1-0.05q-2.7-1.8-5.65-4.6l-4.85-5.15q-4.15-5.25-3.7-11.05 0.2-2.65 1.3-5.35 7-14.25 20.25-10.7l16.4 11.3-1.35 20.9" fill="#d0f4c6" fill-rule="evenodd"/>
<path d="m42.1 9-18.05 29.45q6.65 4.25 11.15 2.1l11.4-6.9 1.2-20.75-5.7-3.9" fill="#2b1a00" fill-opacity=".25098" fill-rule="evenodd"/>
<path d="m24.05 38.45q-4.5-3.3-10.5-9.9-5.7-7.5-2.4-16.25 7.2-14.4 20.45-10.8 5.4 3.6 10.5 7.5m-18.05 29.45q6.65 4.25 11.15 2.1l11.4-6.9 1.2-20.75-5.7-3.9" fill="none" stroke="#2b1a00" stroke-linecap="round" stroke-linejoin="round" stroke-opacity=".30196" stroke-width=".05"/>
</g>
<g id="f" transform="translate(77.25,82.2)">
<use transform="matrix(-5.9304 0 0 5.9304 63.325 -82.217)" width="23.700001" height="26.85" xlink:href="#e"/>
<use transform="matrix(-5.9304 0 0 5.9304 83.008 -78.787)" width="24.549999" height="29.15" xlink:href="#m"/>
<use transform="translate(-15.85,-33.75)" width="87.75" height="113.9" xlink:href="#l"/>
</g>
<g id="e" transform="translate(11.85,13.4)">
<use transform="translate(-11.85,-13.4)" width="23.700001" height="26.85" xlink:href="#n"/>
</g>
<g id="n" transform="translate(11.85,13.4)">
<path d="m-5.65-11.95q1.2 0 2.55 0.6 2.8 1.2 5 4.3l1.15 1.9q1.35 2.4 2 4.9 0.6 2.35 0.6 4.8 0 3-0.9 5.05-0.65 1.4-1.7 2.35l-1.15 0.9-0.8 0.35q-1.9 0.65-4.2-0.35-3.65-1.6-6.25-6.25-2.55-4.65-2.5-9.65-0.05-5.05 2.5-7.45 1.65-1.55 3.7-1.45" fill="#3e563c" fill-rule="evenodd"/>
<path d="m-5.65-11.95 6.85-1.45v0.05l7.05 3.65 3.6 5.05v8.1l-3.7 6.15h-0.05l-2.45 1.55-3.75 1.7 1.15-0.9q1.05-0.95 1.7-2.35 0.9-2.05 0.9-5.05 0-2.45-0.6-4.8-0.65-2.5-2-4.9l-1.15-1.9q-2.2-3.1-5-4.3-1.35-0.6-2.55-0.6" fill="#506543" fill-rule="evenodd"/>
<path d="m-5.7-11.85 6.85-1.45v0.05l1.55 3.65-0.85 2.65q-2.2-3.1-5-4.3-1.35-0.6-2.55-0.6m17.5 15.4-3.7 6.15h-3.4q0.9-2.05 0.9-5.05 0-2.45-0.6-4.8h4.3l2.5 3.7" fill="#2b1a00" fill-opacity=".2" fill-rule="evenodd"/>
<path d="m1.15-13.25 7.05 3.65h-5.5l-1.55-3.65" fill="#fff" fill-opacity=".15294" fill-rule="evenodd"/>
<path d="m11.8-4.5v8.05l-2.5-3.7 2.5-4.35" fill="#2b1a00" fill-opacity=".10196" fill-rule="evenodd"/>
<path d="m8.05 9.7-2.45 1.55-3.75 1.7 1.15-0.9q1.05-0.95 1.7-2.35h3.35" fill="#2b1a00" fill-opacity=".35294" fill-rule="evenodd"/>
<path d="m-5.7-11.85 6.85-1.45v0.05l7.05 3.65 3.6 5.05v8.1l-3.7 6.15h-0.05l-2.45 1.55-3.75 1.7" fill="none" stroke="#7b6923" stroke-linecap="round" stroke-linejoin="round" stroke-width=".05"/>
</g>
<g id="m" transform="translate(12.1,14.55)">
<path d="m2.4 14.6-10.85-5.4-3.65-8.75v-6.9l4.6-5.3 9.75 4.85q3.65 3.1 4.65 9.35 1.3 4.05 0 7.25-1.7 3-4.5 4.9" fill="#506543" fill-rule="evenodd"/>
<path d="m7.2-9.65-4.95 2.75-9.75-4.85 5.05-2.8 2.25 1.15 7.4 3.75m-1.55-0.15-5.85-3.6 5.85 3.6" fill="#d0f4c6" fill-rule="evenodd"/>
<path d="m10.5-1.85-3.4-6 3.4 6m-8.25-5.05 4.95-2.75q3.15 3.8 4.95 9.7l-5.25 2.4q-1-6.25-4.65-9.35" fill="#beecb9" fill-rule="evenodd"/>
<path d="m12.15 0.05q0.65 2.95 0 5.9l-5.25 3.75q1.3-3.2 0-7.25l5.25-2.4m-0.75 3.4-0.1-2.3 0.1 2.3" fill="#9adea0" fill-rule="evenodd"/>
<path d="m12.15 5.95q-1.05 3.95-4.75 5.8l-5 2.85q2.8-1.9 4.5-4.9l5.25-3.75" fill="#69b173" fill-rule="evenodd"/>
<path d="m7.1-7.85 3.4 6" fill="none" stroke="#fff" stroke-linecap="round" stroke-linejoin="round" stroke-width=".05"/>
<path d="m-0.2-13.4 5.85 3.6m5.65 10.95 0.1 2.3" fill="none" stroke="#fff" stroke-linecap="round" stroke-linejoin="round" stroke-width=".05"/>
<path d="m7.2-9.65-7.4-3.75m12.35 13.45q0.65 2.95 0 5.9-1.05 3.95-4.75 5.8l-5 2.85-10.85-5.4-3.65-8.75v-6.9l4.6-5.3 5.05-2.8 2.25 1.15m7.4 3.75q3.15 3.8 4.95 9.7" fill="none" stroke="#7b6923" stroke-linecap="round" stroke-linejoin="round" stroke-width=".05"/>
</g>
<g id="l" transform="translate(15.85,33.75)">
<path d="m57.85-23.8 0.2-0.05 2.15-0.75-1.95 1.05 0.1 0.1-0.4-0.1-0.1-0.25" fill="#618761" fill-rule="evenodd"/>
<path d="m57.85-23.8 0.1 0.25q1.25 0.4 0.8 0.65 8.85 11.55 12.05 31.55 3.95 25-6.55 42.55-19.45 32.5-48.85 28.5l-18.45-6.95q-19.25-17.85-9.5-70.7 57.5-48.45 63.35-31.3l4.45 5.3 2.05 0.3 0.55-0.15" fill="#506543" fill-rule="evenodd"/>
<path d="m-12.55 2.05q57.5-48.45 63.35-31.3l4.45 5.3 2.05 0.3 0.75-0.2 2.15-0.75-1.95 1.05h-0.3q1.25 0.4 0.8 0.65-6.35 3.5-7.55 3-14 7.3-18.6 10.85l-18.05 20.7-27.1-9.6" fill="#fff" fill-opacity=".10196" fill-rule="evenodd"/>
<path d="m-12.55 2.05 27.1 9.6q-9.55 24.4-3.7 48.8-1.55 5.85 4.55 19.25l-18.45-6.95q-19.25-17.85-9.5-70.7" fill="#fff" fill-opacity=".15294" fill-rule="evenodd"/>
</g>
<g id="d" transform="translate(62.45,87.1)">
<use transform="matrix(4.5692 0 0 4.5692 -62.436 -87.123)" width="23.75" height="22.15" xlink:href="#c"/>
</g>
<g id="c" transform="translate(18.95,15.15)">
<use transform="translate(-18.95,-15.15)" width="23.75" height="22.15" xlink:href="#k"/>
<use transform="matrix(3.0453 -1.8576 .6484 1.0629 -3.5 -2)" width="1.7" height="1.7" xlink:href="#j"/>
<use transform="translate(-1.9,-8.3)" width="1" height="4.0999999" xlink:href="#i"/>
</g>
<g id="k" transform="translate(18.95,15.15)">
<path d="m-6.9-0.1 0.1-0.1h-0.15l0.05 0.1m10.95-0.2v0.1l-0.1 0.45-5.55 4.6q-2.6 2.25-7.7 2.15l-1.2-0.3-2.5-0.8-1.2-0.5q-2.05-0.95-3.55-2.2l-1-6.1-0.2-1.2 0.75-2.1 0.1-0.1 2.7-4.05q0.45-2.9 5.1-3.7l0.15-0.05q-0.55-0.2 4.05-1.05 3.2 0.1 6.7 2.5l2.55 2.15 0.75 1.2q0.8 1.15 0.9 3.25v0.95q-0.1 2.05-0.75 4.8" fill="#d0f4c6" fill-rule="evenodd"/>
<path d="m-18.85-4.4q1.35-0.1 1.7-0.55 5.5-1.1 8 1.75l2.15 2.7 0.05 0.3 0.05 0.1 0.1-0.1 1 1.2 5.95-2.3 4.65-4.75v0.95q-0.1 2.05-0.75 4.8v0.1l-0.1 0.45-5.55 4.6q-2.6 2.25-7.7 2.15l-1.2-0.3-2.5-0.8-1.2-0.5q-2.05-0.95-3.55-2.2l-1-6.1-0.2-1.2 0.1-0.3" fill="#2b1a00" fill-opacity=".25098" fill-rule="evenodd"/>
<path d="m-18.85-4.4-0.1 0.3 0.2 1.2 1 6.1q1.5 1.25 3.55 2.2l1.2 0.5 2.5 0.8 1.2 0.3q5.1 0.1 7.7-2.15l5.55-4.6 0.1-0.45v-0.1q0.65-2.75 0.75-4.8v-0.95q-0.1-2.1-0.9-3.25l-0.75-1.2-2.55-2.15q-3.5-2.4-6.7-2.5-4.6 0.85-4.05 1.05-4.8 0.8-5.25 3.75l-2.7 4.05-0.1 0.1z" fill="none" stroke="#2b1a00" stroke-linecap="round" stroke-linejoin="round" stroke-opacity=".30196" stroke-width=".05"/>
<path d="m-3.15-3.9-1.1 0.85 0.6-1.1 0.5 0.25" fill="#e0d964" fill-rule="evenodd"/>
<path d="m0.85-8.75 1.05 0.85v1.05l0.9-0.15-0.8 0.25-0.55 0.15q-2 0.75-3.6 2.3l-0.85-0.5 1.75-2.65 2.1-1.3" fill="#fffff1" fill-rule="evenodd"/>
<path d="m0.4-9.4 0.45 0.65-2.1 1.3-1.75 2.65 0.85 0.5-0.8 0.8-0.2-0.4-0.5-0.25v-0.15l-0.05-0.1 0.15-0.75q0.6-3.5 3.95-4.25" fill="#ffffed" fill-rule="evenodd"/>
<path d="m-3.55-5.15q0.6-3.5 3.95-4.25" fill="none" stroke="#7f6a25" stroke-linecap="round" stroke-linejoin="round"/>
<path d="m-2.95-3.5-0.2-0.4m-0.5-0.25 0.5 0.25" fill="none" stroke="#f4ffdc" stroke-linecap="round" stroke-linejoin="round" stroke-width=".05"/>
<path d="m0.7-12.15 0.55 0.5q0.8 0.75 3.5 5.75l-0.15 1.4-2.6-2.25 0.8-0.25-0.9 0.15v-1.05l-1.05-0.85-0.45-0.65q-3.35 0.75-3.95 4.25l-0.15 0.75 0.05 0.1v0.15l-0.6 1.1-0.85 0.4-0.45 0.15-0.1 0.1-0.65 1.1q-0.95-0.55-1.1-1.5 0.3-3.4 1.55-6.7l0.4-0.45 0.1-0.15 2.9-1.75 1.8-0.65 1.35 0.35" fill="#2b1a00" fill-opacity=".4" fill-rule="evenodd"/>
</g>
<g id="j">
<path d="m1.45 1.45-0.6 0.25-0.6-0.25-0.25-0.6 0.25-0.6q0.25-0.25 0.6-0.25t0.6 0.25l0.25 0.6-0.25 0.6" fill="#fffffe" fill-rule="evenodd"/>
</g>
<g id="i" transform="translate(1.9,8.3)">
<path d="m-1.4-7.8v3.1" fill="none" stroke="#2b1a00" stroke-linecap="round" stroke-linejoin="round"/>
</g>
</defs>
</svg>
