<?xml version="1.0" encoding="UTF-8"?>
<svg version="1.1" viewBox="0 0 61.203 59.737" xmlns="http://www.w3.org/2000/svg" xmlns:cc="http://creativecommons.org/ns#" xmlns:dc="http://purl.org/dc/elements/1.1/" xmlns:rdf="http://www.w3.org/1999/02/22-rdf-syntax-ns#" xmlns:xlink="http://www.w3.org/1999/xlink">
<metadata>
<rdf:RDF>
<cc:Work rdf:about="">
<dc:format>image/svg+xml</dc:format>
<dc:type rdf:resource="http://purl.org/dc/dcmitype/StillImage"/>
</cc:Work>
</rdf:RDF>
</metadata>
<g transform="translate(-1.8016 -5.5)">
<use transform="matrix(2.1354,0,0,2.1354,1.8882,6.2732)" width="28.65" height="29.25" xlink:href="#h"/>
<use transform="translate(10.05,5.5)" width="48.75" height="59.599998" xlink:href="#i"/>
</g>
<defs>
<g id="h" transform="translate(13.75,24.2)">
<use transform="matrix(.5 0 0 .5 -13.775 -24.225)" width="57.299999" height="58.5" xlink:href="#g"/>
</g>
<g id="g" transform="translate(27.55,48.45)">
<use transform="matrix(-.8035 -.5913 .5913 -.8035 18.102 10.068)" width="20.950001" height="13.65" xlink:href="#f"/>
<use transform="matrix(-1,0,0,1,-7.85,-1.55)" width="11.35" height="6.5" xlink:href="#c"/>
<use transform="matrix(-1,0,0,1,-2.9,-11.8)" width="15.1" height="11.65" xlink:href="#b"/>
<use transform="translate(7.45,-2.6)" width="11.35" height="6.5" xlink:href="#c"/>
<use transform="translate(-11.75 -.4)" width="11.75" height="7" xlink:href="#n"/>
<use transform="matrix(-.983 0 .2216 1.0568 -.8557 -15.649)" width="11.3" height="17.65" xlink:href="#a"/>
<use transform="translate(1.3,-12.2)" width="15.1" height="11.65" xlink:href="#b"/>
<use transform="translate(-7.85,-18.4)" width="11" height="19.6" xlink:href="#e"/>
<use transform="translate(-.05 -.1)" width="11.7" height="7" xlink:href="#k"/>
<use transform="matrix(.983 0 -.206 1.0568 .6784 -15.849)" width="11.3" height="17.65" xlink:href="#a"/>
<use transform="matrix(.6313 0 0 .6313 -27.565 -48.451)" width="90.75" height="62.650002" xlink:href="#d"/>
</g>
<g id="f" transform="translate(17.1,4.8)">
<use transform="translate(-17.1,-4.8)" width="20.950001" height="13.65" xlink:href="#q"/>
</g>
<g id="q" transform="translate(17.1,4.8)">
<path d="m0.2-4.4 1.15-0.1q2.9 1.35 2.3 4.55-0.6 3.15-2.75 4t-2.85 0l-1.05-1.5q-0.35-0.6-7.35 2.95-4.35 3.5-5.6 3.25-1.3-0.25-1-1.5 0.6-3.15 5.85-5.5 2.85-1.3 7.65-2.8 2.15-0.8 2.8-1.95l0.85-1.4" fill="#bbdeb5" fill-rule="evenodd"/>
<path d="m0.2-4.4-0.85 1.4q-0.65 1.15-2.8 1.95-4.8 1.5-7.65 2.8-5.25 2.35-5.85 5.5-0.3 1.25 1 1.5 1.25 0.25 5.6-3.25 7-3.55 7.35-2.95l1.05 1.5q0.7 0.85 2.85 0t2.75-4q0.6-3.2-2.3-4.55z" fill="none" stroke="#2e1700" stroke-linecap="round" stroke-linejoin="round" stroke-opacity=".30196" stroke-width=".25"/>
</g>
<g id="c" transform="translate(2.75 .6)">
<use transform="translate(-2.75 -.6)" width="11.35" height="6.5" xlink:href="#p"/>
</g>
<g id="p" transform="translate(2.75 .6)">
<path d="m5.4 5.7-2.8-0.1-3.15-0.15q-2.2-0.35-2.1-3.45 0.1-2.05 2.5-2.4l0.9-0.1q1.8 0.55 3.15 2.5 1.5 2 1.5 3.7m-4.25-3.45q1.8 1.35 1.85 2.9l-0.4 0.45 0.4-0.45q-0.05-1.55-1.85-2.9" fill="#fffff1" fill-rule="evenodd"/>
<path d="m0.75-0.5 2.5 0.15 1.45 0.45 0.85 0.2q2.95 2 2.95 3.4t-1.85 1.25q-0.25 0.6-1.25 0.75 0-1.7-1.5-3.7-1.35-1.95-3.15-2.5m3.95 2.15q2.1 1.3 2.1 2.75l-0.15 0.55 0.15-0.55q0-1.45-2.1-2.75" fill="#fff" fill-rule="evenodd"/>
<path d="m0.75-0.5 2.5 0.15 1.45 0.45 0.85 0.2q2.95 2 2.95 3.4t-1.85 1.25q-0.25 0.6-1.25 0.75l-2.8-0.1-3.15-0.15q-2.2-0.35-2.1-3.45 0.1-2.05 2.5-2.4m6.8 5.35 0.15-0.55q0-1.45-2.1-2.75m-2.1 3.95 0.4-0.45q-0.05-1.55-1.85-2.9" fill="none" stroke="#2e1700" stroke-linecap="round" stroke-linejoin="round" stroke-opacity=".30196" stroke-width=".25"/>
</g>
<g id="b" transform="translate(3.25,2.6)">
<use transform="translate(-3.25,-2.6)" width="15.1" height="11.65" xlink:href="#o"/>
</g>
<g id="o" transform="translate(3.25,2.6)">
<path d="m2.4-2.4q5.95 3.65 5.95 8.75 0 1-0.75 2.45l-7.3-0.35q-3.9-2.35-3.4-7.45l0.75-1.15q1.65-1.85 4.75-2.25" fill="#bbdeb5" fill-rule="evenodd"/>
<path d="m4.05-2.5 1.45 0.25 3.4 2.85q4.65 4.25 1.7 7.55l-3 0.65q0.75-1.45 0.75-2.45 0-5.1-5.95-8.75l1.65-0.1" fill="#d3f1c6" fill-rule="evenodd"/>
<path d="m7.6 8.8 3-0.65q2.95-3.3-1.7-7.55l-3.4-2.85-1.45-0.25m3.55 11.3-7.3-0.35q-3.9-2.35-3.4-7.45" fill="none" stroke="#2e1700" stroke-linecap="round" stroke-linejoin="round" stroke-opacity=".30196" stroke-width=".25"/>
</g>
<g id="n" transform="translate(11.75 .4)">
<path d="m-4.35-0.3 0.95 0.15q2.6 0.35 3.1 2.55 0.75 3.4-1.45 3.8l-3.3 0.15-2.85 0.1q-1.1-0.2-1.5-0.8-1.9 0.2-2.2-1.35-0.3-1.5 2.4-3.7l0.85-0.2 1.45-0.45 2.55-0.25m-3.65 2.4q-1.95 1.4-1.65 2.95l0.25 0.6-0.25-0.6q-0.3-1.55 1.65-2.95m3.85 0.65q-1.65 1.45-1.35 3.1l0.45 0.5-0.45-0.5q-0.3-1.65 1.35-3.1" fill="#fffff1" fill-rule="evenodd"/>
<path d="m-4.35-0.3-2.55 0.25-1.45 0.45-0.85 0.2q-2.7 2.2-2.4 3.7 0.3 1.55 2.2 1.35l-0.25-0.6q-0.3-1.55 1.65-2.95m2.95 4.25 3.3-0.15q2.2-0.4 1.45-3.8-0.5-2.2-3.1-2.55m-6 5.8q0.4 0.6 1.5 0.8l2.85-0.1-0.45-0.5q-0.3-1.65 1.35-3.1" fill="none" stroke="#2e1700" stroke-linecap="round" stroke-linejoin="round" stroke-opacity=".30196" stroke-width=".25"/>
</g>
<g id="a" transform="translate(4,1.75)">
<use transform="translate(-4,-1.75)" width="11.3" height="17.65" xlink:href="#m"/>
</g>
<g id="m" transform="translate(4,1.75)">
<path d="m-1-1.45q1.65 2.9 1.65 7.85 0 5.45 2.6 7.5-2.7 0.15-4.1 1.9v-8.2q-0.3-6.05-2.5-6.4l-0.65-1.2q0-1 3-1.45" fill="#bbdeb5" fill-rule="evenodd"/>
<path d="m-1-1.45 1.3-0.15 4.4-0.1q1.8 0.25 2.5 1.1-0.85 8.9-0.6 12.35l0.35 2.45-1.05-0.2-1.35-0.1h-1.3q-2.6-2.05-2.6-7.5 0-4.95-1.65-7.85" fill="#d3f1c6" fill-rule="evenodd"/>
<path d="m4.55 13.9 1.35 0.1 1.05 0.2-0.35-2.45q-0.25-3.45 0.6-12.35m-10.55 1.8q2.2 0.35 2.5 6.4v8.2q1.4-1.75 4.1-1.9" fill="none" stroke="#2e1700" stroke-linecap="round" stroke-linejoin="round" stroke-opacity=".30196" stroke-width=".25"/>
</g>
<g id="e" transform="translate(6.75,5.95)">
<use transform="translate(-6.75,-5.95)" width="11" height="19.6" xlink:href="#l"/>
</g>
<g id="l" transform="translate(6.75,5.95)">
<path d="m-3.3 0.9q1.45-0.6 2.95-0.6 3.2 0 3.2 1.25l-0.5 1.2q-4.65 2.95-5.35 4.25l-2.05 4.5q0.25-2.35 0.8-4.2l-0.15-0.4-2.2 1.4-0.05-0.1q0-0.45 1.85-3.1v-0.45l0.2-1.95 0.4-0.65 0.9-1.15" fill="#fffff1" fill-rule="evenodd"/>
<path d="m-3.3 0.9q1.35-1.6 3.9-3.85l3.55-2.9v19.4l-1.75-0.75q-3.35-1.5-5.15-3.4-1.2 1.05-2.4 3.25l0.1-1.15 2.05-4.5q0.7-1.3 5.35-4.25l0.5-1.2q0-1.25-3.2-1.25-1.5 0-2.95 0.6m2.15 7.6-1.6 0.9 1.6-0.9" fill="#fffff3" fill-rule="evenodd"/>
<path d="m4.15-5.85-3.55 2.9q-2.55 2.25-3.9 3.85l-0.9 1.15-0.4 0.65-0.2 1.95v0.45q-1.85 2.65-1.85 3.1m1.6 3.3-0.1 1.15q1.2-2.2 2.4-3.25l1.6-0.9m-1.6 0.9q1.8 1.9 5.15 3.4l1.75 0.75m-10.75-5.25 2.2-1.4 0.15 0.4q-0.55 1.85-0.8 4.2" fill="none" stroke="#2e1700" stroke-linecap="round" stroke-linejoin="round" stroke-opacity=".30196" stroke-width=".25"/>
</g>
<g id="k" transform="translate(.05 .1)">
<path d="M 7.95,2.35 Q 9.9,3.75 9.6,5.3 L 9.35,5.95 9.6,5.3 Q 9.9,3.75 7.95,2.35 M 4.3,0 6.85,0.2 8.3,0.65 9.15,0.9 q 2.65,2.15 2.4,3.7 -0.3,1.5 -2.2,1.35 -0.4,0.6 -1.5,0.75 L 5,6.6 1.7,6.5 Q -0.55,6.1 0.25,2.7 0.7,0.5 3.35,0.1 L 4.3,0 M 4.1,3 Q 5.75,4.45 5.45,6.1 5.4,6.45 5,6.6 5.4,6.45 5.45,6.1 5.75,4.45 4.1,3" fill="#fffff1" fill-rule="evenodd"/>
<path d="m9.35 5.95 0.25-0.65q0.3-1.55-1.65-2.95m-3.65-2.35 2.55 0.2 1.45 0.45 0.85 0.25q2.65 2.15 2.4 3.7-0.3 1.5-2.2 1.35-0.4 0.6-1.5 0.75l-2.85-0.1-3.3-0.1q-2.25-0.4-1.45-3.8 0.45-2.2 3.1-2.6m1.65 6.5q0.4-0.15 0.45-0.5 0.3-1.65-1.35-3.1" fill="none" stroke="#2e1700" stroke-linecap="round" stroke-linejoin="round" stroke-opacity=".30196" stroke-width=".25"/>
</g>
<g id="d" transform="translate(44.85,50.45)">
<use transform="translate(-44.85,-50.45)" width="90.75" height="62.650002" xlink:href="#j"/>
</g>
<g id="j" transform="translate(44.85,50.45)">
<path d="m-22-34.55-0.25-0.1 0.55-0.7-0.3 0.8" fill="#ebd6c4" fill-rule="evenodd"/>
<path d="m20.4-32.2 0.5 1.15 1.4 3.5 3.85 14.35q2.1 8-3.05 13.95l-0.35 0.4-1.7 1.6 0.85-2.9-2.75-4.45q-15.2-2.35-27.25-1.05-12 1.25-12.15 2.1l-2.9 5.25 1 3.05-0.85-0.6-1-0.8-2.85-2.6q-5.1-5.95-2.95-13.95l4-14.35 1.4-3.5 0.55-1.15 0.45-0.8 0.4-0.5 0.75-1.15 0.25 0.1-2.25 6.3 5.95 5.25q6.15 1.75 15.6 1.75 12.95-0.15 18.2-1.95l4.85-4.55 0.05-4.45" fill="#d3f1c6" fill-rule="evenodd"/>
<path d="m20.4-32.2-0.05 4.45-4.85 4.55q-5.25 1.8-18.2 1.95-9.45 0-15.6-1.75l-5.95-5.25 2.25-6.3 0.3-0.8 1.5-1.65 1.4-1.3q4.5-3.8 11.2-5.1l2.6-0.45 1.2-0.1 2.05-0.05h0.15l2.05 0.05 1.2 0.1 2.6 0.45q6.65 1.3 11.15 5.1 1.9 1.55 3.4 3.65l0.75 1.15 0.35 0.5 0.5 0.8m-42.55 36.95-1-3.05 2.9-5.25q0.15-0.85 12.15-2.1 12.05-1.3 27.25 1.05l2.75 4.45-0.85 2.9-1.85 1.4q-3.65 2.6-7.4 4.3-5.8 2.6-11.8 3.05h-0.05l-1.9 0.1-5.2-0.25-1.85-0.3q-3.1-0.55-6.3-1.65-2.6-1.4-4.7-3.15l0.05-0.1-2.2-1.4" fill="#f7ffdc" fill-rule="evenodd"/>
<path d="m21.05 2.75 1.7-1.6 0.35-0.4q5.15-5.95 3.05-13.95l-3.85-14.35-1.4-3.5-0.5-1.15-0.5-0.8-0.35-0.5-0.75-1.15q-1.5-2.1-3.4-3.65-4.5-3.8-11.15-5.1l-2.6-0.45-1.2-0.1-2.05-0.05h-0.15l-2.05 0.05-1.2 0.1-2.6 0.45q-6.7 1.3-11.2 5.1l-1.4 1.3-1.5 1.65m-0.55 0.7-0.75 1.15-0.4 0.5-0.45 0.8-0.55 1.15-1.4 3.5-4 14.35q-2.15 8 2.95 13.95l2.85 2.6 1 0.8 0.85 0.6m43.2-2-1.85 1.4q-3.65 2.6-7.4 4.3-5.8 2.6-11.8 3.05h-0.05l-1.9 0.1-5.2-0.25-1.85-0.3q-3.1-0.55-6.3-1.65-2.6-1.4-4.7-3.15l0.05-0.1-2.2-1.4m-0.1-39.4 0.55-0.7" fill="none" stroke="#2e1700" stroke-linecap="round" stroke-linejoin="round" stroke-opacity=".30196"/>
<path d="m1.9-39.8 1.05-2-1.05 2m1.05-2q3.85 1.1 6.95 3.1-3.4 4.85-7.35 4.85-4.05 0-7.7-2.25l-1.65-1.2v-5.75l0.4-0.05 2.5-1.7 1.15-1.1q1.55-1.65 2.2-3.75l2.7-0.3q0.05 1.2-1.85 6.2 1.75-0.15 3.75-5.25l3.45-0.25-4.55 7.45" fill="#f7ffdc" fill-rule="evenodd"/>
<path d="m2.95-41.8-1.05 2m1.05-2 4.55-7.45-3.45 0.25q-2 5.1-3.75 5.25 1.9-5 1.85-6.2" fill="none" stroke="#2e1700" stroke-linecap="round" stroke-linejoin="round" stroke-opacity=".30196"/>
<path d="m2.15-49.95-2.7 0.3q-0.65 2.1-2.2 3.75m-1.15 1.1-2.5 1.7-0.4 0.05" fill="none" stroke="#2e1700" stroke-linecap="round" stroke-linejoin="round" stroke-opacity=".30196"/>
<path d="m-20.2-24.85-2.25 0.7-3.85 1.65-0.05-0.05q-1.3-2.8-1.65-7.3l-0.3-5.3q-0.55-13.7 0.05-14.3l1.25 0.4q-0.75 4.65 1.15 13.95l0.45 1.55 0.15 0.95 0.2 0.1 1.75 3.55q1.45 2.7 3.1 4.1" fill="#d3f1c6" fill-rule="evenodd"/>
<path d="m-11.45-40.65q-0.65 2.9-0.25 4.9l0.3 0.6q-1.3 5.75-6.3 8.85-2.5 1.15-2.5 1.45-1.65-1.4-3.1-4.1l-1.75-3.55q6.45 1.55 8.7-3.15-4.4-7.85-9.05-9.5-1.25-0.45-1.35 0.75l0.1 1.05 1.25 9.8-0.45-1.55q-1.9-9.3-1.15-13.95 5 1.75 15.55 8.4" fill="#f7ffdc" fill-rule="evenodd"/>
<path d="m-26.65-43.35-0.1-1.05q0.1-1.2 1.35-0.75 4.65 1.65 9.05 9.5-2.25 4.7-8.7 3.15l-0.2-0.1-0.15-0.95-1.25-9.8" fill="#fffff3" fill-rule="evenodd"/>
<path d="m-26.3-22.5-0.05-0.05q-1.3-2.8-1.65-7.3l-0.3-5.3q-0.55-13.7 0.05-14.3l1.25 0.4q5 1.75 15.55 8.4m-15.2-2.7-0.1-1.05q0.1-1.2 1.35-0.75 4.65 1.65 9.05 9.5" fill="none" stroke="#2e1700" stroke-linecap="round" stroke-linejoin="round" stroke-opacity=".30196"/>
<path d="m-14.4-30q2.6-0.4 5.35 1.2 4 1.5 7.25 6.95 0.85 2.75 0 6.5-0.7 2.75-4.4 6.2-6.6 2-12.9-0.35-3.4-1.75-3.9-10.05 2.25-8.5 8.6-10.45" fill="#fffff1" fill-rule="evenodd"/>
<path d="m-14.4-30q2.6-0.4 5.35 1.2 4 1.5 7.25 6.95 0.85 2.75 0 6.5-0.7 2.75-4.4 6.2-6.6 2-12.9-0.35-3.4-1.75-3.9-10.05 2.25-8.5 8.6-10.45z" fill="none" stroke="#2e1700" stroke-linecap="round" stroke-linejoin="round" stroke-opacity=".30196" stroke-width=".25"/>
<path d="m-11.65-26.6 1.5 0.1q1.95 0.5 3.35 1.8l1.05 1.2 0.35 0.65q0.7 1.35 0.95 2.8v0.1q0.15 1.45-0.25 3-0.65 2.65-2.8 4.35-8.9-2.45-7.15-9.35 0.9-3.65 3-4.65" fill="#648461" fill-rule="evenodd"/>
<path d="m-7.5-12.6-0.85 0.5q-2.65 1.85-5.6 1.15-3.1-0.8-4.85-3.7-1.5-2.85-0.7-6 0.75-3.15 3.45-4.9 2.15-1.25 4.4-1.05-2.1 1-3 4.65-1.75 6.9 7.15 9.35" fill="#526142" fill-rule="evenodd"/>
<path d="m-7.05-22.25-1.65 0.15q-1-0.2-1.3-1.05-0.35-0.7 0-1.3 0-0.65 0.65-1.1 0.65-0.65 1.65-0.35 0.65 0.2 1.3 1.1 0.3 0.65 0.3 1.5-0.3 0.65-0.95 1.05" fill="#fff" fill-rule="evenodd"/>
<path d="m-6.7 0.3q-3.15-3.5-15.65-3.65-12.35-0.4-22.4 3.75" fill="none" stroke="#2e1700" stroke-linecap="round" stroke-linejoin="round" stroke-opacity=".30196" stroke-width=".25"/>
<path d="m-6.8-0.1q-5.4-2-16.3 1.85-10.9 3.55-16.25 10.35" fill="none" stroke="#2e1700" stroke-linecap="round" stroke-linejoin="round" stroke-opacity=".30196" stroke-width=".25"/>
<path d="m23.35-49.05q0.75 4.65-1.1 13.95l-0.45 1.55 1.25-9.8 0.1-1.05q-0.15-1.2-1.4-0.75-4.65 1.65-9.05 9.5 2.25 4.7 8.7 3.15l-1.7 3.55q-1.5 2.7-3.15 4.1l-2.45-1.45q-5.05-3.1-6.35-8.85l0.3-0.6q0.4-2-0.2-4.9 10.55-6.65 15.5-8.4" fill="#f7ffdc" fill-rule="evenodd"/>
<path d="m23.35-49.05 1.25-0.4q0.6 0.6 0.05 14.3l-0.25 5.3q-0.4 4.5-1.65 7.3l-0.05 0.05q-0.95-0.35-3.85-1.65l-2.3-0.7q1.65-1.4 3.15-4.1l1.7-3.55 0.25-0.1 0.15-0.95 0.45-1.55q1.85-9.3 1.1-13.95" fill="#d3f1c6" fill-rule="evenodd"/>
<path d="m21.8-33.55-0.15 0.95-0.25 0.1q-6.45 1.55-8.7-3.15 4.4-7.85 9.05-9.5 1.25-0.45 1.4 0.75l-0.1 1.05-1.25 9.8" fill="#fffff3" fill-rule="evenodd"/>
<path d="m22.7-22.5 0.05-0.05q1.25-2.8 1.65-7.3l0.25-5.3q0.55-13.7-0.05-14.3l-1.25 0.4q-4.95 1.75-15.5 8.4m15.2-2.7 0.1-1.05q-0.15-1.2-1.4-0.75-4.65 1.65-9.05 9.5" fill="none" stroke="#2e1700" stroke-linecap="round" stroke-linejoin="round" stroke-opacity=".30196"/>
<path d="m8.9-30q2.6-0.4 5.35 1.2 4 1.5 7.25 6.95 0.85 2.75 0 6.5-0.7 2.75-4.4 6.2-6.6 2-12.9-0.35-3.4-1.75-3.9-10.05 2.25-8.5 8.6-10.45" fill="#fffff1" fill-rule="evenodd"/>
<path d="m8.9-30q2.6-0.4 5.35 1.2 4 1.5 7.25 6.95 0.85 2.75 0 6.5-0.7 2.75-4.4 6.2-6.6 2-12.9-0.35-3.4-1.75-3.9-10.05 2.25-8.5 8.6-10.45z" fill="none" stroke="#2e1700" stroke-linecap="round" stroke-linejoin="round" stroke-opacity=".30196" stroke-width=".25"/>
<path d="m11.65-26.6 1.5 0.1q1.95 0.5 3.35 1.8l1.05 1.2 0.35 0.65 0.95 2.8v0.1q0.15 1.45-0.25 3-0.65 2.65-2.8 4.35-8.9-2.45-7.15-9.35 0.9-3.65 3-4.65" fill="#648461" fill-rule="evenodd"/>
<path d="m15.8-12.6-0.85 0.5q-2.65 1.85-5.6 1.15-3.1-0.8-4.85-3.7-1.5-2.85-0.7-6 0.75-3.15 3.45-4.9 2.15-1.25 4.4-1.05-2.1 1-3 4.65-1.75 6.9 7.15 9.35" fill="#526142" fill-rule="evenodd"/>
<path d="m17.15-23.3q-0.3 0.65-0.95 1.05l-1.65 0.15q-1-0.2-1.3-1.05-0.35-0.7 0-1.3 0-0.65 0.65-1.1 0.65-0.65 1.65-0.35 0.65 0.2 1.3 1.1l0.3 1.5" fill="#fff" fill-rule="evenodd"/>
<path d="m7.75 0.3q3.15-3.5 15.65-3.65 12.35-0.4 22.4 3.75" fill="none" stroke="#2e1700" stroke-linecap="round" stroke-linejoin="round" stroke-opacity=".30196" stroke-width=".25"/>
<path d="m7.85-0.1q5.4-2 16.3 1.85 10.9 3.55 16.25 10.35" fill="none" stroke="#2e1700" stroke-linecap="round" stroke-linejoin="round" stroke-opacity=".30196" stroke-width=".25"/>
<path d="m5.8-6.55 0.3 0.3q2.6 2.65 2.6 6.35t-2.6 6.3-6.3 2.6l-1.2-0.05-0.25-2.2q0-5.65 3.85-7.9 1.7-1.1 2.8-2.75 0.65-1.2 0.65-2.35l0.15-0.3" fill="#fffff1" fill-rule="evenodd"/>
<path d="m-1.4 8.95q-2.95-0.4-5.15-2.55-2.55-2.6-2.55-6.3t2.55-6.35q2.65-2.55 6.35-2.55 3.5 0 6 2.25l-0.15 0.3q0 1.15-0.65 2.35-1.1 1.65-2.8 2.75-3.85 2.25-3.85 7.9l0.25 2.2" fill="#fffff3" fill-rule="evenodd"/>
<path d="m-1.4 8.95q-2.95-0.4-5.15-2.55-2.55-2.6-2.55-6.3t2.55-6.35q2.65-2.55 6.35-2.55 3.5 0 6 2.25l0.3 0.3q2.6 2.65 2.6 6.35t-2.6 6.3-6.3 2.6z" fill="none" stroke="#2e1700" stroke-linecap="round" stroke-linejoin="round" stroke-opacity=".30196"/>
<path d="m-0.2-0.8-4.2-4.5h8.85l-4.3 4.75-0.35-0.25" fill="#648461" fill-rule="evenodd"/>
<path d="m-0.2-0.8-4.2-4.5h8.85l-4.3 4.75-0.35-0.25 2.75 2.75m-2.55-2.55-2.55 2.45" fill="none" stroke="#2e1700" stroke-linecap="round" stroke-linejoin="round" stroke-opacity=".30196" stroke-width=".25"/>
</g>
<g id="i" transform="translate(-10.05,-5.5)">
<path d="m34.45 6.65q-1.1 2.85-2.15 3.4l-0.2-0.05h-0.1q1.2-3.25 1.15-4l-1.8 0.2q-0.4 1.35-1.45 2.5l-0.8 0.75-0.9 0.65-1.6 0.3q-2.05 0.35-3.75 1.1-6.2-3.85-9.3-4.9l-0.85-0.3q-0.4 0.45 0 9.7-0.05 1.85 0.15 3.5 0.2 2.4 0.75 4.15l-1.9 7.1q-1.05 3.7 0.25 6.75 0.6 1.35 1.65 2.65l1.15 1.1 0.8 0.65 0.7 0.55 0.55 0.4 1.5 0.95-0.05 0.05 1.2 0.9 0.05 0.25-0.95 0.15q-2.05 1.45-3.65 3.05-5 4.55-1.8 8.1l1.2 0.25-0.55 0.15q-3.2 2.1-3.2 3.65 0 1.45 2 1.3 0.25 0.6 1.3 0.8l3-0.1 1.85 0.05q0.45 1.2 2.2 1 0.45 0.7 1.6 0.85l3.1-0.1 3.45-0.15q2.3-0.4 1.65-3.8l0.25 0.25-0.8-3.75 1.55 0.8-0.6 2.7v0.1l0.05-0.1q-0.8 3.65 1.6 4.1l3.5 0.15 3.05 0.1q1.15-0.15 1.6-0.85 2 0.15 2.35-1.45l-0.05-0.95 1.4-0.05 3 0.1q1-0.15 1.35-0.8 1.95 0.2 1.95-1.3v-0.25q4.7 0.7 6.9-1.3 1-0.9 0.05-1.85-0.9-1.1-6.85-0.8l-3.1-0.55q1.45-3.05-2.6-6.75l-3.05-2.65 0.35-1.3 2.1-1.35 1.25-1 1.1-1 0.1-0.05 0.15-0.25q1.15-1.35 1.75-2.85 1.25-2.95 0.3-6.55l-1.95-7.2q0.6-1.7 0.8-4.05l0.2-3.5q0.3-9.25-0.1-9.7l-0.85 0.3q-3 1.05-9.15 4.9-1.7-0.75-3.65-1.1l-0.25-0.05 2.4-3.95z" fill="none" stroke="#254b43" stroke-linecap="round" stroke-linejoin="round" stroke-opacity=".49804"/>
</g>
</defs>
</svg>
