<?xml version="1.0" encoding="UTF-8" standalone="no"?>
<svg xmlns:ffdec="https://www.free-decompiler.com/flash" xmlns:xlink="http://www.w3.org/1999/xlink" ffdec:objectType="shape" height="67.75px" width="130.2px" xmlns="http://www.w3.org/2000/svg">
  <g transform="matrix(1.0, 0.0, 0.0, 1.0, -106.65, -173.0)">
    <path d="M161.1 205.7 Q169.9 198.95 178.65 200.0 166.8 201.9 168.8 207.3 163.45 209.45 160.0 213.1 157.45 210.6 161.1 205.7 M180.4 232.75 L158.7 237.1 153.95 237.1 Q149.5 227.1 163.4 224.9 156.95 222.2 158.3 218.25 162.2 212.95 167.7 210.5 160.95 221.7 167.7 221.9 170.05 233.75 180.4 232.75" fill="#993333" fill-rule="evenodd" stroke="none"/>
    <path d="M147.5 229.3 L148.5 226.4 Q153.4 212.2 159.05 207.35 L161.1 205.7 Q157.45 210.6 160.0 213.1 155.45 217.85 154.25 225.25 156.0 221.25 158.3 218.25 156.95 222.2 163.4 224.9 149.5 227.1 153.95 237.1 152.15 236.95 150.9 236.3 148.5 235.0 147.85 231.7 L147.55 229.7 147.5 229.3 M201.75 207.95 Q205.35 209.65 208.5 211.55 211.25 213.15 213.65 214.95 L216.6 217.3 215.6 218.75 216.05 219.8 215.75 219.85 216.05 219.8 216.75 221.3 215.2 223.55 211.6 224.65 211.1 224.8 193.85 229.5 Q203.4 226.75 210.25 220.65 L212.15 218.85 Q211.4 216.5 208.95 213.85 206.3 211.05 201.75 207.95 M148.0 229.65 L147.55 229.7 148.0 229.65" fill="#660000" fill-rule="evenodd" stroke="none"/>
    <path d="M215.6 218.75 Q221.1 219.15 224.85 217.2 L224.7 215.6 Q224.65 212.6 226.1 211.3 227.55 210.0 229.1 211.7 230.6 213.4 233.75 213.0 236.85 212.6 236.85 215.6 L236.85 217.0 Q236.1 220.25 232.3 221.05 229.45 221.7 226.55 217.3 L217.25 219.7 216.05 219.8 215.6 218.75 M147.85 231.7 L140.05 231.7 Q137.45 227.85 135.05 225.05 L133.85 223.7 129.55 218.5 122.75 215.3 121.6 215.15 Q117.5 217.7 110.6 216.3 108.0 213.45 110.25 211.2 106.8 208.8 106.7 206.4 107.1 202.3 109.1 199.75 111.3 196.85 113.65 198.2 116.0 199.45 121.35 200.8 126.7 202.1 127.1 206.05 129.6 219.6 139.1 226.1 143.5 229.1 147.5 229.3 L147.55 229.7 147.85 231.7 M130.55 218.6 L125.0 205.3 Q120.8 201.35 114.5 200.2 L111.2 200.55 Q106.9 203.4 109.75 208.5 113.9 209.55 112.95 213.75 119.15 214.3 122.8 211.55 127.8 210.3 129.55 217.45 L130.55 218.6 M138.4 227.2 L141.4 230.5 145.5 230.0 Q142.8 230.15 139.55 227.55 L138.4 227.2 M226.8 213.45 Q231.2 217.5 229.25 216.95 L232.15 218.3 Q231.6 216.8 234.0 216.65 233.8 214.1 227.55 213.55 L226.8 213.45" fill="#ffff99" fill-rule="evenodd" stroke="none"/>
    <path d="M236.85 217.0 L236.3 220.75 Q235.7 222.9 232.45 222.9 229.25 222.9 226.95 220.75 225.9 219.75 225.35 218.6 220.35 218.75 216.75 221.3 L216.05 219.8 217.25 219.7 226.55 217.3 Q229.45 221.7 232.3 221.05 236.1 220.25 236.85 217.0 M133.85 223.7 Q128.05 217.45 123.15 216.8 120.5 219.15 116.55 219.15 114.55 219.15 112.75 218.3 111.9 218.8 110.8 218.8 109.2 218.8 108.1 217.7 106.95 216.55 107.0 214.95 106.95 213.75 107.6 212.85 106.5 210.45 106.65 207.5 L106.7 206.4 Q106.8 208.8 110.25 211.2 108.0 213.45 110.6 216.3 117.5 217.7 121.6 215.15 L122.75 215.3 129.55 218.5 133.85 223.7" fill="#cccc00" fill-rule="evenodd" stroke="none"/>
    <path d="M130.55 218.6 L129.55 217.45 Q127.8 210.3 122.8 211.55 119.15 214.3 112.95 213.75 113.9 209.55 109.75 208.5 106.9 203.4 111.2 200.55 L114.5 200.2 Q120.8 201.35 125.0 205.3 L130.55 218.6 M138.4 227.2 L139.55 227.55 Q142.8 230.15 145.5 230.0 L141.4 230.5 138.4 227.2 M226.8 213.45 L227.55 213.55 Q233.8 214.1 234.0 216.65 231.6 216.8 232.15 218.3 L229.25 216.95 Q231.2 217.5 226.8 213.45" fill="#ffff66" fill-rule="evenodd" stroke="none"/>
    <path d="M160.0 213.1 Q163.45 209.45 168.8 207.3 190.4 201.2 205.4 215.8 181.55 204.2 167.7 210.5 162.2 212.95 158.3 218.25 156.0 221.25 154.25 225.25 155.45 217.85 160.0 213.1 M188.1 224.25 L208.1 219.15 184.05 228.3 188.1 224.25" fill="#cc6666" fill-rule="evenodd" stroke="none"/>
    <path d="M189.85 217.55 Q187.7 215.65 187.3 214.45 163.0 209.1 196.9 214.1 L203.05 216.0 Q188.45 215.8 189.85 217.55" fill="#ffffcc" fill-rule="evenodd" stroke="none"/>
    <path d="M178.65 200.0 L182.1 200.7 Q193.2 203.9 201.75 207.95 206.3 211.05 208.95 213.85 211.4 216.5 212.15 218.85 L210.25 220.65 Q203.4 226.75 193.85 229.5 L192.4 229.9 191.8 230.05 180.4 232.75 Q170.05 233.75 167.7 221.9 160.95 221.7 167.7 210.5 181.55 204.2 205.4 215.8 190.4 201.2 168.8 207.3 166.8 201.9 178.65 200.0 M189.85 217.55 Q188.45 215.8 203.05 216.0 L196.9 214.1 Q163.0 209.1 187.3 214.45 187.7 215.65 189.85 217.55 M188.1 224.25 L184.05 228.3 208.1 219.15 188.1 224.25" fill="#ff9999" fill-rule="evenodd" stroke="none"/>
    <path d="M147.5 229.3 L148.5 226.4 Q153.4 212.2 159.05 207.35 L161.1 205.7 Q169.9 198.95 178.65 200.0 L182.1 200.7 Q193.2 203.9 201.75 207.95 205.35 209.65 208.5 211.55 211.25 213.15 213.65 214.95 L216.6 217.3 215.6 218.75 Q221.1 219.15 224.85 217.2 L224.7 215.6 Q224.65 212.6 226.1 211.3 227.55 210.0 229.1 211.7 230.6 213.4 233.75 213.0 236.85 212.6 236.85 215.6 L236.85 217.0 236.3 220.75 Q235.7 222.9 232.45 222.9 229.25 222.9 226.95 220.75 225.9 219.75 225.35 218.6 220.35 218.75 216.75 221.3 L215.2 223.55 211.6 224.65 211.1 224.8 193.85 229.5 192.4 229.9 191.8 230.05 180.4 232.75 158.7 237.1 153.95 237.1 Q152.15 236.95 150.9 236.3 148.5 235.0 147.85 231.7 L140.05 231.7 Q137.45 227.85 135.05 225.05 L133.85 223.7 Q128.05 217.45 123.15 216.8 120.5 219.15 116.55 219.15 114.55 219.15 112.75 218.3 111.9 218.8 110.8 218.8 109.2 218.8 108.1 217.7 106.95 216.55 107.0 214.95 106.95 213.75 107.6 212.85 106.5 210.45 106.65 207.5 L106.7 206.4 Q107.1 202.3 109.1 199.75 111.3 196.85 113.65 198.2 116.0 199.45 121.35 200.8 126.7 202.1 127.1 206.05 129.6 219.6 139.1 226.1 143.5 229.1 147.5 229.3 L147.55 229.7 148.0 229.65 M161.1 205.7 Q157.45 210.6 160.0 213.1 M147.85 231.7 L147.55 229.7 M193.85 229.5 Q203.4 226.75 210.25 220.65 L212.15 218.85 Q211.4 216.5 208.95 213.85 206.3 211.05 201.75 207.95 M216.05 219.8 L215.75 219.85 M216.05 219.8 L216.75 221.3 M215.6 218.75 L216.05 219.8 M158.3 218.25 Q156.95 222.2 163.4 224.9 149.5 227.1 153.95 237.1" ffdec:has-small-stroke="true" ffdec:original-stroke-width="0.05" fill="none" stroke="#000000" stroke-linecap="round" stroke-linejoin="round" stroke-opacity="0.4" stroke-width="1.0"/>
    <path d="M161.2 197.05 L161.7 196.95 161.9 196.9 162.6 196.8 163.7 196.55 204.95 188.5 210.5 211.45 220.2 210.0 214.2 226.75 204.55 228.9 151.45 240.75 142.2 200.75 161.2 197.05 M202.8 192.0 Q193.9 191.35 185.0 196.0 202.6 193.9 205.35 204.35 L207.4 211.95 210.6 224.1 208.0 211.85 206.4 204.2 Q207.2 197.0 202.8 192.0 M161.35 235.9 Q158.25 234.8 156.8 229.2 149.5 226.8 146.95 203.15 L147.6 210.4 Q149.4 227.8 153.5 237.1 L155.3 237.6 Q161.6 239.1 161.35 235.9 163.6 236.65 166.7 235.05 L161.35 235.9 166.7 235.05 Q163.6 236.65 161.35 235.9 M210.5 211.45 L214.2 226.75 210.5 211.45" fill="#00ccff" fill-opacity="0.3019608" fill-rule="evenodd" stroke="none"/>
    <path d="M163.2 194.55 L183.85 185.3 174.4 184.0 Q173.6 182.0 182.4 178.85 L183.2 178.55 185.8 177.7 211.95 173.0 204.95 188.5 211.95 173.0 220.2 210.0 210.5 211.45 204.95 188.5 163.7 196.55 162.6 196.8 161.2 195.4 163.2 194.55 163.7 196.55 163.2 194.55 M177.65 179.15 Q169.65 182.85 166.95 187.35 172.25 183.95 176.8 185.2 172.7 190.7 162.8 192.95 159.0 192.2 156.8 196.2 159.0 193.2 161.2 197.05 L142.2 200.75 160.2 182.25 177.65 179.15 M162.8 192.95 L160.2 182.25 162.8 192.95" fill="#2ba6d5" fill-opacity="0.3019608" fill-rule="evenodd" stroke="none"/>
    <path d="M163.2 194.55 L162.8 192.95 163.2 194.55 161.2 195.4 162.6 196.8 161.9 196.9 161.7 196.95 161.2 197.05 Q159.0 193.2 156.8 196.2 159.0 192.2 162.8 192.95 172.7 190.7 176.8 185.2 172.25 183.95 166.95 187.35 169.65 182.85 177.65 179.15 L185.8 177.7 183.2 178.55 182.4 178.85 Q173.6 182.0 174.4 184.0 L183.85 185.3 163.2 194.55 M202.8 192.0 Q207.2 197.0 206.4 204.2 L208.0 211.85 210.6 224.1 207.4 211.95 205.35 204.35 Q202.6 193.9 185.0 196.0 193.9 191.35 202.8 192.0 M161.35 235.9 Q161.6 239.1 155.3 237.6 L153.5 237.1 Q149.4 227.8 147.6 210.4 L146.95 203.15 Q149.5 226.8 156.8 229.2 158.25 234.8 161.35 235.9 M207.4 211.95 L208.0 211.85 207.4 211.95" fill="#ffffff" fill-rule="evenodd" stroke="none"/>
    <path d="M162.8 192.95 L163.2 194.55 163.7 196.55 204.95 188.5 211.95 173.0 185.8 177.7 177.65 179.15 160.2 182.25 162.8 192.95 M183.2 178.55 L185.8 177.7 M161.2 197.05 L161.7 196.95 161.9 196.9 162.6 196.8 163.7 196.55 M161.35 235.9 L166.7 235.05 Q163.6 236.65 161.35 235.9 M142.2 200.75 L151.45 240.75 204.55 228.9 214.2 226.75 210.5 211.45 204.95 188.5 M208.0 211.85 L207.4 211.95 M220.2 210.0 L210.5 211.45 M220.2 210.0 L214.2 226.75 M161.2 197.05 L142.2 200.75 160.2 182.25 M211.95 173.0 L220.2 210.0" ffdec:has-small-stroke="true" ffdec:original-stroke-width="0.05" fill="none" stroke="#000000" stroke-linecap="round" stroke-linejoin="round" stroke-opacity="0.4" stroke-width="1.0"/>
  </g>
</svg>
