<?xml version="1.0" encoding="UTF-8" standalone="no"?>
<svg xmlns:ffdec="https://www.free-decompiler.com/flash" xmlns:xlink="http://www.w3.org/1999/xlink" ffdec:objectType="shape" height="23.15px" width="27.45px" xmlns="http://www.w3.org/2000/svg">
  <g transform="matrix(1.0, 0.0, 0.0, 1.0, -262.6, -189.65)">
    <path d="M273.85 195.5 Q274.55 194.6 275.7 194.1 L276.1 193.95 276.2 193.9 277.25 193.85 Q277.95 193.85 277.2 194.35 L277.05 194.4 Q275.25 195.05 274.3 196.5 275.25 195.05 277.05 194.4 L277.2 194.35 278.8 194.0 279.3 194.05 279.8 194.1 279.9 194.1 280.65 194.35 280.85 194.45 281.55 195.1 281.55 195.2 281.9 195.85 282.0 196.05 282.2 196.5 282.05 197.0 281.5 198.45 Q281.15 198.65 280.85 198.8 279.65 199.4 278.65 200.25 L277.85 200.35 276.9 200.45 276.35 200.45 276.25 200.6 275.65 200.4 274.9 199.9 274.45 199.25 274.15 198.45 274.15 197.5 274.3 196.5 273.85 197.3 273.55 197.75 Q273.1 198.35 272.95 198.05 L272.85 197.2 273.3 196.3 Q273.5 195.85 273.85 195.5 M277.7 194.35 L277.6 194.55 277.8 194.75 278.2 194.7 Q278.4 194.55 278.55 194.55 L278.7 194.45 278.45 194.2 278.1 194.2 277.7 194.35 M276.15 194.35 L276.2 194.2 276.0 194.1 275.7 194.15 275.5 194.35 275.45 194.55 275.65 194.65 275.9 194.5 Q276.05 194.35 276.15 194.35 M281.05 195.75 L281.55 195.2 281.05 195.75 M280.6 194.7 L280.65 194.35 280.6 194.7 M278.85 195.9 L279.05 196.05 279.45 196.0 279.85 195.9 279.95 195.75 279.75 195.55 279.35 195.5 279.0 195.65 278.85 195.9 M283.65 199.95 L285.55 200.0 285.65 200.05 286.5 200.2 287.0 200.35 287.2 200.45 287.4 200.55 287.55 200.8 287.55 200.9 287.7 200.95 287.8 201.25 287.75 201.45 287.75 201.7 287.65 201.8 287.4 202.0 284.8 202.05 284.75 202.05 284.7 202.35 Q283.4 202.6 282.75 201.9 L281.95 201.75 281.85 201.65 281.55 201.3 281.55 201.1 281.85 200.65 281.8 200.6 281.95 200.4 282.25 200.25 282.65 200.15 283.1 200.0 283.15 200.0 283.65 199.95 M280.35 203.2 L280.3 203.3 280.1 203.55 Q279.8 203.85 279.45 203.55 L279.25 203.35 279.15 203.15 279.2 202.95 279.25 202.85 279.5 202.65 279.65 202.6 279.75 202.55 Q280.5 202.75 280.4 203.15 L280.35 203.15 280.35 203.2 M278.35 203.0 L278.35 203.05 278.2 203.4 277.15 203.4 Q275.85 203.5 275.15 202.7 275.3 202.5 275.6 202.45 L275.95 202.4 Q277.2 202.3 278.2 202.75 L278.35 203.0 M286.3 200.55 L286.1 200.5 285.85 200.45 285.7 200.45 285.7 200.5 Q285.75 200.55 285.95 200.6 L286.2 200.65 286.35 200.6 286.3 200.55 M286.25 200.2 L286.05 200.15 285.85 200.1 285.7 200.1 285.7 200.15 285.9 200.2 286.1 200.25 286.25 200.25 286.25 200.2 M281.3 198.5 L281.3 198.45 281.1 198.55 281.3 198.5 M273.6 202.6 L273.6 202.45 273.45 202.35 273.15 202.25 273.0 202.3 273.05 202.45 273.2 202.55 273.35 202.65 273.6 202.6 M273.5 201.95 Q273.95 202.4 273.8 202.9 L273.75 203.05 273.65 202.65 273.2 202.7 272.95 202.95 272.2 203.3 271.55 203.55 271.85 203.3 Q272.2 202.85 271.8 202.6 L271.3 202.05 Q271.15 201.75 271.4 201.7 L271.55 201.5 271.2 201.3 270.3 201.1 272.05 201.4 273.5 201.95 M265.35 202.25 L265.8 201.85 266.25 201.55 266.3 201.5 266.35 201.55 266.95 201.2 267.45 201.15 267.35 201.35 268.25 201.15 267.9 201.3 Q267.6 201.4 267.2 201.65 266.75 201.9 266.55 202.6 266.25 203.7 268.05 203.85 L269.4 203.9 268.3 204.15 267.65 204.15 267.15 204.1 266.55 204.0 266.0 203.85 265.65 203.7 265.4 203.3 265.8 202.75 265.3 203.15 264.9 203.35 264.6 203.4 264.45 203.2 264.5 203.1 265.2 202.35 265.35 202.25 M275.35 203.55 Q275.75 203.8 275.35 204.2 274.7 204.2 274.4 203.7 L274.95 203.35 275.35 203.55 M276.25 203.0 L276.4 203.2 276.8 203.15 277.2 203.0 277.3 202.85 277.1 202.65 276.75 202.65 276.35 202.75 276.25 203.0" fill="#5ec032" fill-rule="evenodd" stroke="none"/>
    <path d="M276.15 194.35 Q276.05 194.35 275.9 194.5 L275.65 194.65 275.45 194.55 275.5 194.35 275.7 194.15 276.0 194.1 276.2 194.2 276.15 194.35 M277.7 194.35 L278.1 194.2 278.45 194.2 278.7 194.45 278.55 194.55 Q278.4 194.55 278.2 194.7 L277.8 194.75 277.6 194.55 277.7 194.35 M278.85 195.9 L279.0 195.65 279.35 195.5 279.75 195.55 279.95 195.75 279.85 195.9 279.45 196.0 279.05 196.05 278.85 195.9 M286.25 200.2 L286.25 200.25 286.1 200.25 285.9 200.2 285.7 200.15 285.7 200.1 285.85 200.1 286.05 200.15 286.25 200.2 M286.3 200.55 L286.35 200.6 286.2 200.65 285.95 200.6 Q285.75 200.55 285.7 200.5 L285.7 200.45 285.85 200.45 286.1 200.5 286.3 200.55 M276.25 203.0 L276.35 202.75 276.75 202.65 277.1 202.65 277.3 202.85 277.2 203.0 276.8 203.15 276.4 203.2 276.25 203.0" fill="#ffffff" fill-rule="evenodd" stroke="none"/>
    <path d="M276.2 193.9 L277.8 193.6 279.75 193.9 280.15 194.05 280.1 194.1 279.9 194.1 279.8 194.1 279.3 194.05 278.8 194.0 277.2 194.35 Q277.95 193.85 277.25 193.85 L276.2 193.9 M287.4 200.55 L287.7 200.7 288.0 200.9 288.2 201.15 288.3 201.45 288.25 201.7 288.2 201.75 288.15 201.55 287.75 201.45 287.8 201.25 287.7 200.95 287.55 200.9 287.55 200.8 287.4 200.55" fill="#c45c11" fill-rule="evenodd" stroke="none"/>
    <path d="M280.4 203.2 L280.35 203.2 280.35 203.15 280.4 203.15 280.4 203.2" fill="#578fd2" fill-rule="evenodd" stroke="none"/>
    <path d="M280.3 194.15 L280.65 194.25 280.65 194.35 279.9 194.1 280.1 194.1 280.3 194.15 M287.0 200.35 L287.1 200.4 287.2 200.45 287.4 200.55 287.2 200.45 287.0 200.35 M281.3 198.5 L281.1 198.55 281.3 198.45 281.3 198.5 M274.95 203.35 L275.25 203.45 275.35 203.55 274.95 203.35" fill="#2b659d" fill-rule="evenodd" stroke="none"/>
    <path d="M280.15 194.05 L280.3 194.15 280.1 194.1 280.15 194.05" fill="#af7030" fill-rule="evenodd" stroke="none"/>
    <path d="M274.25 201.4 L273.7 200.95 273.0 200.55 Q272.3 200.0 272.05 199.25 L271.85 198.55 271.85 198.3 271.95 197.65 272.25 196.9 Q272.75 195.95 273.85 195.5 273.5 195.85 273.3 196.3 L272.85 197.2 272.95 198.05 Q273.1 198.35 273.55 197.75 L273.85 197.3 274.3 196.5 274.15 197.5 274.15 198.45 274.45 199.25 274.9 199.9 275.65 200.4 276.25 200.6 276.35 200.45 276.9 200.45 277.85 200.35 278.65 200.25 Q279.65 199.4 280.85 198.8 281.15 198.65 281.5 198.45 L282.05 197.0 282.2 196.5 282.0 196.05 281.9 195.85 281.55 195.2 281.55 195.1 280.85 194.45 280.65 194.35 280.65 194.25 281.35 194.55 282.1 195.0 282.7 195.55 283.15 196.15 283.15 196.2 283.15 196.25 283.4 196.8 283.5 197.1 283.6 197.35 283.65 197.9 283.6 198.5 283.4 199.35 283.15 199.95 283.65 199.95 283.15 200.0 283.1 200.0 282.65 200.15 282.25 200.25 281.95 200.4 281.8 200.6 281.85 200.65 281.55 201.1 281.55 201.3 281.85 201.65 281.95 201.75 282.75 201.9 Q283.4 202.6 284.7 202.35 L284.75 202.05 284.8 202.05 287.4 202.0 287.65 201.8 287.75 201.7 287.75 201.45 288.15 201.55 288.2 201.75 Q288.35 203.5 286.05 203.55 L282.15 203.6 Q281.15 203.6 280.4 203.2 L280.4 203.15 Q280.5 202.75 279.75 202.55 L279.65 202.6 279.5 202.65 279.25 202.85 279.0 202.9 278.9 202.9 278.65 202.95 278.35 203.0 278.2 202.75 Q277.2 202.3 275.95 202.4 L275.6 202.45 275.0 202.1 274.25 201.4 273.95 200.85 273.7 200.2 273.5 199.4 273.5 198.85 273.55 198.25 273.85 197.3 273.55 198.25 273.5 198.85 273.5 199.4 273.7 200.2 273.95 200.85 274.25 201.4 M278.2 203.4 L277.5 203.75 275.25 203.4 Q274.85 203.25 275.05 202.9 L275.15 202.7 Q275.85 203.5 277.15 203.4 L278.2 203.4 M283.5 197.1 L283.2 197.25 283.5 197.1 M280.45 200.7 L279.45 201.8 279.65 202.6 279.45 201.8 280.45 200.7 M283.15 199.95 L282.6 200.05 282.25 200.1 282.2 200.1 282.05 200.1 281.95 200.15 281.45 200.25 281.1 200.4 280.75 200.5 281.1 200.4 281.45 200.25 281.95 200.15 282.05 200.1 282.2 200.1 282.25 200.1 282.6 200.05 283.15 199.95 M273.75 203.05 L273.65 203.2 273.3 203.5 272.8 203.75 272.4 203.95 272.0 204.1 271.55 204.2 271.1 204.3 270.6 204.4 270.1 204.45 269.85 204.5 269.6 204.5 269.35 204.5 269.1 204.55 268.55 204.55 267.95 204.55 266.9 204.6 266.25 204.6 265.35 204.4 Q264.85 204.15 264.85 203.6 L264.45 203.65 264.4 203.6 264.4 203.5 264.45 203.2 264.6 203.4 264.9 203.35 265.3 203.15 265.8 202.75 265.4 203.3 265.65 203.7 266.0 203.85 266.55 204.0 267.15 204.1 267.65 204.15 268.3 204.15 269.4 203.9 268.05 203.85 Q266.25 203.7 266.55 202.6 266.75 201.9 267.2 201.65 267.6 201.4 267.9 201.3 L268.25 201.15 267.35 201.35 267.45 201.15 266.95 201.2 267.2 201.1 267.4 201.05 267.5 201.05 267.8 201.05 268.2 200.95 Q269.0 200.8 269.85 200.95 L270.4 201.0 271.6 201.2 271.75 201.25 273.0 201.65 273.5 201.95 272.05 201.4 270.3 201.1 271.2 201.3 271.55 201.5 271.4 201.7 Q271.15 201.75 271.3 202.05 L271.8 202.6 Q272.2 202.85 271.85 203.3 L271.55 203.55 272.2 203.3 272.95 202.95 273.2 202.7 273.65 202.65 273.75 203.05 M275.35 204.2 L275.05 204.35 Q274.7 204.55 274.5 204.2 274.3 203.9 274.4 203.7 274.7 204.2 275.35 204.2 M272.85 197.2 L272.65 198.15 Q272.6 198.8 272.85 199.5 L273.2 200.3 273.7 200.95 273.2 200.3 272.85 199.5 Q272.6 198.8 272.65 198.15 L272.85 197.2" fill="#457924" fill-rule="evenodd" stroke="none"/>
    <path d="M264.4 203.5 L263.65 203.3 263.65 202.9 264.0 202.95 Q265.1 202.5 264.9 202.3 L265.35 202.25 265.2 202.35 264.5 203.1 264.45 203.2 264.4 203.5 M265.8 201.85 L265.75 201.75 265.75 201.45 266.05 201.5 Q266.6 201.35 266.65 201.2 L266.95 201.2 266.35 201.55 266.3 201.5 266.25 201.55 265.8 201.85" fill="#b19172" fill-rule="evenodd" stroke="none"/>
    <path d="M273.6 202.6 L273.35 202.65 273.2 202.55 273.05 202.45 273.0 202.3 273.15 202.25 273.45 202.35 273.6 202.45 273.6 202.6" fill="#94f5d8" fill-rule="evenodd" stroke="none"/>
    <path d="M263.65 202.9 L263.6 202.9 263.65 202.85 263.95 202.55 264.35 202.3 264.9 202.3 Q265.1 202.5 264.0 202.95 L263.65 202.9 263.65 202.85 263.65 202.9 M265.75 201.45 L265.9 201.35 266.35 201.2 266.65 201.2 Q266.6 201.35 266.05 201.5 L265.75 201.45" fill="#e9dbad" fill-rule="evenodd" stroke="none"/>
    <path d="M274.25 201.4 L273.7 200.95 273.0 200.55 Q272.3 200.0 272.05 199.25 L271.85 198.55 271.85 198.3 271.95 197.65 272.25 196.9 Q272.75 195.95 273.85 195.5 274.55 194.6 275.7 194.1 L276.1 193.95 276.2 193.9 277.8 193.6 279.75 193.9 280.15 194.05 M280.65 194.25 L281.0 192.8 M273.85 195.5 Q273.5 195.85 273.3 196.3 L272.85 197.2 272.65 198.15 Q272.6 198.8 272.85 199.5 L273.2 200.3 273.7 200.95 M273.85 197.3 L274.3 196.5 Q275.25 195.05 277.05 194.4 L277.2 194.35 278.8 194.0 279.3 194.05 279.8 194.1 279.9 194.1 280.1 194.1 280.3 194.15 M281.55 195.2 L281.05 195.75 M280.65 194.35 L280.65 194.25 M283.15 196.15 L283.85 195.4 M280.65 194.35 L280.6 194.7 M283.15 196.25 L283.15 196.15 M283.5 197.1 L284.25 196.75 M283.15 199.95 L283.65 199.95 285.55 200.0 285.65 200.05 286.5 200.2 287.0 200.35 287.1 200.4 287.2 200.45 M288.2 201.75 Q288.35 203.5 286.05 203.55 L282.15 203.6 Q281.15 203.6 280.4 203.2 L280.35 203.2 280.3 203.3 280.1 203.55 Q279.8 203.85 279.45 203.55 L279.25 203.35 279.15 203.15 279.2 202.95 279.25 202.85 279.5 202.65 279.65 202.6 279.75 202.55 Q280.5 202.75 280.4 203.15 L280.4 203.2 M278.35 203.0 L278.35 203.05 278.2 203.4 277.5 203.75 275.25 203.4 Q274.85 203.25 275.05 202.9 L275.15 202.7 Q275.3 202.5 275.6 202.45 L275.95 202.4 Q277.2 202.3 278.2 202.75 L278.35 203.0 M274.25 201.4 L273.95 200.85 273.7 200.2 273.5 199.4 273.5 198.85 273.55 198.25 273.85 197.3 M283.2 197.25 L283.5 197.1 M287.75 201.45 L288.15 201.55 288.2 201.75 M280.75 200.5 L281.1 200.4 281.45 200.25 281.95 200.15 282.05 200.1 282.2 200.1 282.25 200.1 282.6 200.05 283.15 199.95 M279.65 202.6 L279.45 201.8 280.45 200.7 M264.4 203.5 L263.65 203.3 263.65 202.9 263.65 202.85 M265.8 201.85 L265.75 201.75 265.75 201.45 M274.95 203.35 L275.25 203.45 275.35 203.55 Q275.75 203.8 275.35 204.2 L275.05 204.35 Q274.7 204.55 274.5 204.2 274.3 203.9 274.4 203.7 L274.95 203.35" ffdec:has-small-stroke="true" ffdec:original-stroke-width="0.05" fill="none" stroke="#002e4f" stroke-linecap="round" stroke-linejoin="round" stroke-width="1.0"/>
    <path d="M273.5 201.95 Q273.95 202.4 273.8 202.9 L273.75 203.05 273.65 203.2 273.3 203.5 272.8 203.75 272.4 203.95 272.0 204.1 271.55 204.2 271.1 204.3 270.6 204.4 270.1 204.45 269.85 204.5 269.6 204.5 269.35 204.5 269.1 204.55 268.55 204.55 267.95 204.55 266.9 204.6 266.25 204.6 265.35 204.4 Q264.85 204.15 264.85 203.6 L264.45 203.65 264.4 203.6 264.4 203.5 264.45 203.2 264.5 203.1 265.2 202.35 265.35 202.25 265.8 201.85 266.25 201.55 266.3 201.5 266.35 201.55 266.95 201.2 266.65 201.2 266.35 201.2 265.9 201.35 265.75 201.45 266.05 201.5 M263.65 202.9 L263.6 202.9 263.65 202.85 263.95 202.55 264.35 202.3 264.9 202.3 265.35 202.25 M267.2 201.1 L267.4 201.05 267.5 201.05 267.8 201.05 268.2 200.95 Q269.0 200.8 269.85 200.95 L270.4 201.0 271.6 201.2 271.75 201.25 273.0 201.65 273.5 201.95 M263.65 202.9 L264.0 202.95" ffdec:has-small-stroke="true" ffdec:original-stroke-width="0.05" fill="none" stroke="#1a2340" stroke-linecap="round" stroke-linejoin="round" stroke-opacity="0.4627451" stroke-width="1.0"/>
    <path d="M274.05 202.85 Q268.6 197.1 263.0 195.6 271.7 191.1 280.05 189.65 285.6 191.25 289.65 194.95 281.7 197.1 274.1 202.85 L274.05 202.85" fill="#a8e3dd" fill-opacity="0.53333336" fill-rule="evenodd" stroke="none"/>
    <path d="M262.95 195.6 L263.0 195.6 Q268.6 197.1 274.05 202.85 L274.05 202.9 Q275.0 207.45 273.9 212.8 L273.75 212.8 Q268.7 211.05 263.3 205.85 262.15 200.45 262.95 195.6" fill="#a8e3dd" fill-opacity="0.9019608" fill-rule="evenodd" stroke="none"/>
    <path d="M273.9 212.8 Q275.0 207.45 274.05 202.9 L274.1 202.85 Q281.7 197.1 289.65 194.95 L289.7 195.0 Q290.35 199.3 289.8 203.6 281.9 209.4 273.9 212.8" fill="#a8e3dd" fill-opacity="0.7137255" fill-rule="evenodd" stroke="none"/>
    <path d="M262.95 195.6 L263.0 195.6 262.95 195.55 262.95 195.6 Q262.15 200.45 263.3 205.85 268.7 211.05 273.75 212.8 M273.9 212.8 Q275.0 207.45 274.05 202.9 L274.05 202.85 Q268.6 197.1 263.0 195.6 271.7 191.1 280.05 189.65 285.6 191.25 289.65 194.95 L289.7 194.95 289.7 195.0 Q290.35 199.3 289.8 203.6 281.9 209.4 273.9 212.8 M289.65 194.95 L289.7 195.0 M274.1 202.85 L274.05 202.85 M274.05 202.9 L274.1 202.85 Q281.7 197.1 289.65 194.95" ffdec:has-small-stroke="true" ffdec:original-stroke-width="0.05" fill="none" stroke="#000000" stroke-linecap="round" stroke-linejoin="round" stroke-opacity="0.3019608" stroke-width="1.0"/>
    <path d="M278.75 209.3 Q278.3 209.95 277.65 209.95 277.0 209.95 276.5 209.3 276.1 208.7 276.1 207.9 276.1 207.05 276.5 206.45 277.0 205.85 277.65 205.85 278.3 205.85 278.75 206.45 279.2 207.05 279.25 207.9 279.2 208.7 278.75 209.3" fill="#ffffff" fill-rule="evenodd" stroke="none"/>
    <path d="M281.05 206.6 L280.5 206.95 Q280.1 206.95 279.85 206.6 L279.6 205.8 Q279.6 205.35 279.85 205.0 280.1 204.7 280.5 204.7 280.85 204.7 281.05 205.0 L281.35 205.8 281.05 206.6" fill="#ffffff" fill-rule="evenodd" stroke="none"/>
    <path d="M269.8 195.35 L269.4 195.6 269.0 195.35 268.85 194.9 Q268.85 194.55 269.0 194.35 269.15 194.15 269.4 194.15 L269.8 194.35 269.95 194.9 269.8 195.35" fill="#ffffff" fill-rule="evenodd" stroke="none"/>
  </g>
</svg>
