<?xml version="1.0" encoding="UTF-8" standalone="no"?>
<svg xmlns:ffdec="https://www.free-decompiler.com/flash" xmlns:xlink="http://www.w3.org/1999/xlink" ffdec:objectType="shape" height="306.45px" width="247.05px" xmlns="http://www.w3.org/2000/svg">
  <g transform="matrix(1.0, 0.0, 0.0, 1.0, -227.25, 47.3)">
    <path d="M273.2 -42.25 L279.4 -43.15 291.95 -44.65 Q354.6 -48.4 277.05 -22.7 277.05 -35.65 237.1 -33.4 255.15 -39.15 273.2 -42.25 M347.6 -18.8 L340.75 -19.4 Q335.8 -23.45 343.35 -24.95 341.25 -21.5 347.6 -18.8 M416.85 -4.85 Q427.6 -9.9 435.85 -20.35 434.2 -28.8 425.9 -35.0 438.75 -29.45 447.65 -21.4 434.3 -10.45 416.85 -4.85 M299.15 238.4 L299.0 238.4 299.05 238.35 299.15 238.4" fill="#000000" fill-rule="evenodd" stroke="none"/>
    <path d="M231.6 -17.55 Q228.85 -19.6 227.9 -21.45 L227.75 -21.75 227.75 -26.25 Q229.5 -30.05 237.1 -33.4 246.05 -37.3 263.2 -40.55 L273.2 -42.25 Q255.15 -39.15 237.1 -33.4 277.05 -35.65 277.05 -22.7 354.6 -48.4 291.95 -44.65 318.1 -47.3 350.2 -47.3 L357.95 -47.25 Q383.95 -47.25 393.6 -45.6 403.25 -44.0 410.25 -44.45 424.6 -42.9 437.15 -40.55 473.15 -33.7 473.15 -24.0 L473.15 -23.85 Q472.85 -14.25 439.5 -3.15 406.1 7.9 355.35 8.35 304.6 8.8 268.05 -2.3 260.05 -4.75 253.65 -7.05 237.9 -12.7 231.6 -17.55 M282.9 -19.2 Q282.85 -12.75 303.6 -8.2 324.3 -3.7 353.7 -3.7 383.05 -3.7 403.75 -8.2 424.45 -12.75 424.45 -19.2 424.45 -25.7 403.75 -30.2 383.05 -34.75 353.7 -34.75 324.3 -34.75 303.6 -30.2 282.85 -25.7 282.9 -19.2 M416.85 -4.85 Q434.3 -10.45 447.65 -21.4 438.75 -29.45 425.9 -35.0 434.2 -28.8 435.85 -20.35 427.6 -9.9 416.85 -4.85" fill="#333333" fill-rule="evenodd" stroke="none"/>
    <path d="M231.6 -17.55 Q233.45 -6.7 242.15 -2.65 238.3 -8.45 253.65 -7.05 280.05 7.95 309.7 15.2 342.8 21.15 374.7 23.05 L365.4 23.5 Q294.4 25.9 227.75 -4.6 230.4 -16.15 227.9 -21.45 228.85 -19.6 231.6 -17.55 M374.7 23.05 Q360.0 20.7 355.35 8.35 406.1 7.9 439.5 -3.15 472.85 -14.25 473.15 -23.85 473.1 -20.65 471.85 -14.4 462.55 -6.15 447.9 2.25 437.5 10.15 424.55 15.45 402.4 21.35 374.7 23.05 M340.75 -19.4 L338.0 -19.85 Q333.35 -20.8 333.35 -22.05 333.35 -23.35 338.0 -24.4 L343.25 -25.05 343.35 -25.05 349.4 -25.3 352.3 -25.25 360.65 -24.4 Q365.45 -23.35 365.45 -22.05 365.45 -20.8 360.65 -19.85 L352.3 -18.9 349.4 -18.8 347.6 -18.8 Q341.25 -21.5 343.35 -24.95 335.8 -23.45 340.75 -19.4 M343.35 -25.05 L343.35 -24.95 343.25 -25.05 343.35 -24.95 343.35 -25.05" fill="#cccccc" fill-rule="evenodd" stroke="none"/>
    <path d="M374.7 23.05 Q342.8 21.15 309.7 15.2 280.05 7.95 253.65 -7.05 238.3 -8.45 242.15 -2.65 233.45 -6.7 231.6 -17.55 237.9 -12.7 253.65 -7.05 260.05 -4.75 268.05 -2.3 304.6 8.8 355.35 8.35 360.0 20.7 374.7 23.05 M471.85 -14.4 Q473.1 -12.3 473.15 -7.15 453.65 7.75 424.55 15.45 437.5 10.15 447.9 2.25 462.55 -6.15 471.85 -14.4 M372.75 257.85 Q355.1 260.5 336.6 257.8 313.65 256.45 290.8 251.05 239.55 243.45 227.75 228.35 259.25 243.6 290.8 251.05 304.2 253.05 320.4 254.55 L320.7 254.55 320.8 254.55 Q328.75 256.65 336.6 257.8 347.3 258.4 358.1 258.1 L372.75 257.85 M321.85 -18.35 Q334.1 -14.35 350.05 -12.85 370.6 -10.6 391.6 -13.5 369.45 -9.65 346.3 -9.65 333.1 -12.65 321.85 -18.35" fill="#999999" fill-rule="evenodd" stroke="none"/>
    <path d="M321.85 -18.35 L315.25 -20.9 321.85 -18.35 Q333.1 -12.65 346.3 -9.65 369.45 -9.65 391.6 -13.5 370.6 -10.6 350.05 -12.85 334.1 -14.35 321.85 -18.35 M282.9 -19.2 Q282.85 -25.7 303.6 -30.2 324.3 -34.75 353.7 -34.75 383.05 -34.75 403.75 -30.2 424.45 -25.7 424.45 -19.2 424.45 -12.75 403.75 -8.2 383.05 -3.7 353.7 -3.7 324.3 -3.7 303.6 -8.2 282.85 -12.75 282.9 -19.2 M352.3 -25.25 L349.4 -25.3 343.35 -25.05 343.25 -25.05 338.0 -24.4 Q333.35 -23.35 333.35 -22.05 333.35 -20.8 338.0 -19.85 L340.75 -19.4 347.6 -18.8 349.4 -18.8 352.3 -18.9 355.25 -18.8 Q361.8 -18.85 366.5 -19.85 371.25 -20.8 371.3 -22.05 371.25 -23.35 366.5 -24.4 L355.25 -25.3 352.3 -25.25" fill="#666666" fill-rule="evenodd" stroke="none"/>
    <path d="M320.55 254.5 L320.8 254.55 320.7 254.55 320.55 254.5" fill="#990000" fill-rule="evenodd" stroke="none"/>
    <path d="M389.0 33.15 L349.0 35.65 461.4 17.5 Q469.25 52.85 466.7 85.3 L463.4 71.85 459.75 58.45 Q456.8 44.65 456.55 28.95 422.8 27.3 389.0 33.15 M451.15 226.5 Q446.45 228.45 441.3 232.95 L433.0 235.15 Q418.65 239.1 403.7 244.8 448.5 222.3 463.05 171.05 L465.75 165.1 466.25 188.55 Q466.0 210.65 457.85 211.0 456.55 220.6 451.15 226.5 M246.65 178.6 L247.05 179.45 246.7 179.45 246.65 178.6 246.7 179.45 Q244.9 197.15 250.15 214.9 266.5 228.15 284.2 233.9 L287.4 235.75 285.85 238.4 291.25 238.4 291.75 238.2 293.05 238.9 320.4 254.45 Q277.05 245.8 234.9 225.25 232.4 177.35 234.9 125.6 236.2 153.45 246.65 178.6 M239.8 27.25 Q234.55 23.4 239.15 9.8 281.75 24.3 330.5 34.35 250.6 20.05 239.8 27.25" fill="#993333" fill-rule="evenodd" stroke="none"/>
    <path d="M406.8 32.95 L394.2 33.0 389.0 33.15 Q422.8 27.3 456.55 28.95 456.8 44.65 459.75 58.45 L453.2 36.85 Q433.35 33.2 406.8 32.95 M452.05 50.95 Q454.35 66.3 458.4 79.1 452.85 64.65 445.55 50.95 450.05 53.4 452.05 50.95 M451.15 226.5 Q456.55 220.6 457.85 211.0 466.0 210.65 466.25 188.55 L467.05 227.95 Q460.05 222.6 451.15 226.5 M246.7 179.45 L247.05 179.45 Q250.25 192.4 259.35 205.9 268.4 219.4 284.2 233.9 266.5 228.15 250.15 214.9 244.9 197.15 246.7 179.45" fill="#ffffcc" fill-rule="evenodd" stroke="none"/>
    <path d="M295.3 238.4 L294.0 238.4 294.05 238.1 295.3 238.4" fill="#996633" fill-rule="evenodd" stroke="none"/>
    <path d="M406.8 32.95 L406.8 33.2 394.1 34.0 394.2 33.0 406.8 32.95 M291.75 238.2 Q292.8 237.85 293.35 238.4 L293.05 238.9 291.75 238.2 M320.4 254.45 L320.5 254.45 320.55 254.5 320.7 254.55 320.4 254.55 320.4 254.45" fill="#996600" fill-rule="evenodd" stroke="none"/>
    <path d="M227.75 -4.6 Q294.4 25.9 365.4 23.5 L374.7 23.05 Q402.4 21.35 424.55 15.45 453.65 7.75 473.15 -7.15 466.9 117.5 473.15 232.25 450.5 244.1 426.35 250.15 403.1 255.3 373.5 257.75 L372.75 257.85 358.1 258.1 Q347.3 258.4 336.6 257.8 328.75 256.65 320.8 254.55 L320.55 254.5 320.5 254.45 320.4 254.45 293.05 238.9 293.35 238.4 Q292.8 237.85 291.75 238.2 L291.25 238.4 285.85 238.4 287.4 235.75 284.2 233.9 Q268.4 219.4 259.35 205.9 250.25 192.4 247.05 179.45 L246.65 178.6 Q236.2 153.45 234.9 125.6 232.4 177.35 234.9 225.25 277.05 245.8 320.4 254.45 L320.4 254.55 Q304.2 253.05 290.8 251.05 259.25 243.6 227.75 228.35 235.15 111.9 227.75 -4.6 M394.2 33.0 L394.1 34.0 406.8 33.2 406.8 32.95 Q433.35 33.2 453.2 36.85 L459.75 58.45 463.4 71.85 466.7 85.3 Q469.25 52.85 461.4 17.5 L349.0 35.65 389.0 33.15 394.2 33.0 M452.05 50.95 Q450.05 53.4 445.55 50.95 452.85 64.65 458.4 79.1 454.35 66.3 452.05 50.95 M466.25 188.55 L465.75 165.1 463.05 171.05 Q448.5 222.3 403.7 244.8 418.65 239.1 433.0 235.15 L441.3 232.95 Q446.45 228.45 451.15 226.5 460.05 222.6 467.05 227.95 L466.25 188.55 M239.8 27.25 Q250.6 20.05 330.5 34.35 281.75 24.3 239.15 9.8 234.55 23.4 239.8 27.25 M295.3 238.4 L294.05 238.1 294.0 238.4 295.3 238.4 M299.15 238.4 L299.05 238.35 299.0 238.4 299.15 238.4" fill="#ffff99" fill-rule="evenodd" stroke="none"/>
    <path d="M273.2 -42.25 L279.4 -43.15 291.95 -44.65 Q354.6 -48.4 277.05 -22.7 277.05 -35.65 237.1 -33.4 255.15 -39.15 273.2 -42.25 M315.25 -20.9 L321.85 -18.35 Q334.1 -14.35 350.05 -12.85 370.6 -10.6 391.6 -13.5 369.45 -9.65 346.3 -9.65 333.1 -12.65 321.85 -18.35 M347.6 -18.8 L340.75 -19.4 Q335.8 -23.45 343.35 -24.95 L343.25 -25.05 M343.35 -24.95 L343.35 -25.05 M343.35 -24.95 Q341.25 -21.5 347.6 -18.8 M416.85 -4.85 Q434.3 -10.45 447.65 -21.4 438.75 -29.45 425.9 -35.0 434.2 -28.8 435.85 -20.35 427.6 -9.9 416.85 -4.85 M246.65 178.6 L246.7 179.45 M320.4 254.45 L320.5 254.45 320.55 254.5 320.8 254.55 M320.7 254.55 L320.55 254.5" ffdec:has-small-stroke="true" ffdec:original-stroke-width="0.05" fill="none" stroke="#000000" stroke-linecap="round" stroke-linejoin="round" stroke-width="1.0"/>
    <path d="M231.6 -17.55 Q228.85 -19.6 227.9 -21.45 230.4 -16.15 227.75 -4.6 294.4 25.9 365.4 23.5 L374.7 23.05 Q402.4 21.35 424.55 15.45 453.65 7.75 473.15 -7.15 466.9 117.5 473.15 232.25 454.45 243.85 426.35 250.15 400.4 256.6 372.75 257.85 355.1 260.5 336.6 257.8 313.65 256.45 290.8 251.05 239.55 243.45 227.75 228.35 235.15 111.9 227.75 -4.6 M355.35 8.35 Q304.6 8.8 268.05 -2.3 260.05 -4.75 253.65 -7.05 237.9 -12.7 231.6 -17.55 M237.1 -33.4 Q229.5 -30.05 227.75 -26.25 L227.75 -21.75 227.9 -21.45 M227.75 -21.75 Q227.25 -22.85 227.25 -24.0 227.25 -25.15 227.75 -26.25 M291.95 -44.65 Q318.1 -47.3 350.2 -47.3 L357.95 -47.25 Q383.95 -47.25 393.6 -45.6 403.25 -44.0 410.25 -44.45 424.6 -42.9 437.15 -40.55 473.15 -33.7 473.15 -24.0 L473.15 -23.85 Q473.1 -20.65 471.85 -14.4 473.1 -12.3 473.15 -7.15 M237.1 -33.4 Q246.05 -37.3 263.2 -40.55 L273.2 -42.25 M355.35 8.35 Q406.1 7.9 439.5 -3.15 472.85 -14.25 473.15 -23.85 M372.75 257.85 L373.5 257.75 Q403.1 255.3 426.35 250.15 450.5 244.1 473.15 232.25 M320.8 254.55 Q328.75 256.65 336.6 257.8 347.3 258.4 358.1 258.1 L372.75 257.85 M320.8 254.55 L320.7 254.55 320.4 254.55 Q304.2 253.05 290.8 251.05 259.25 243.6 227.75 228.35" ffdec:has-small-stroke="true" ffdec:original-stroke-width="0.05" fill="none" stroke="#000000" stroke-linecap="round" stroke-linejoin="round" stroke-width="1.0"/>
    <path d="M459.75 58.45 L453.2 36.85" ffdec:has-small-stroke="true" ffdec:original-stroke-width="0.05" fill="none" stroke="#d4d0c8" stroke-linecap="round" stroke-linejoin="round" stroke-width="1.0"/>
    <path d="M291.25 238.4 L291.75 238.2 Q292.8 237.85 293.35 238.4" ffdec:has-small-stroke="true" ffdec:original-stroke-width="0.05" fill="none" stroke="#000000" stroke-linecap="round" stroke-linejoin="round" stroke-opacity="0.4" stroke-width="1.0"/>
    <path d="M379.35 121.65 Q385.1 91.1 427.7 83.4 418.55 60.55 427.7 50.0 L427.7 43.75 Q421.6 32.2 405.0 72.7 396.2 80.6 391.75 86.65 381.1 101.2 365.0 110.25 359.1 122.95 349.9 131.35 349.85 134.7 339.45 146.05 332.8 147.5 330.8 148.25 334.5 148.65 318.25 184.3 L317.1 186.8 316.85 187.3 315.7 189.95 310.05 202.8 Q307.65 209.35 301.7 210.45 299.3 210.85 296.4 210.4 L292.8 209.55 287.55 207.65 Q283.3 205.8 278.3 202.8 290.6 189.05 307.0 195.0 305.9 181.7 313.9 168.35 L322.05 148.3 323.2 145.45 Q340.5 115.6 294.95 98.85 279.15 87.5 286.85 76.85 L294.55 75.1 Q292.3 79.6 293.05 83.9 314.85 73.75 341.0 113.05 339.85 96.65 352.6 84.95 353.5 59.4 409.15 60.95 364.95 49.6 407.75 41.9 375.05 47.1 353.8 45.7 L353.8 38.8 370.35 35.9 380.85 34.85 381.75 34.75 386.15 33.95 Q390.7 33.0 394.35 31.7 407.45 28.45 416.1 28.6 426.8 35.25 416.1 39.85 429.6 35.95 431.55 39.85 442.15 62.3 431.55 72.2 L438.15 80.35 Q434.5 89.8 426.8 97.45 411.9 102.2 379.35 121.65 M409.15 41.65 L407.75 41.9 409.15 41.65 M353.8 45.7 Q338.25 49.7 327.5 57.55 314.4 58.05 309.2 59.5 320.8 42.25 343.35 41.65 345.6 46.0 353.8 45.7" fill="#ff9999" fill-rule="evenodd" stroke="none"/>
    <path d="M405.0 72.7 Q421.6 32.2 427.7 43.75 L427.7 50.0 Q418.55 60.55 427.7 83.4 385.1 91.1 379.35 121.65 375.15 121.5 357.2 140.75 332.45 155.75 318.25 184.3 334.5 148.65 330.8 148.25 332.8 147.5 339.45 146.05 362.15 141.15 358.05 127.2 394.1 98.95 402.15 79.75 L405.0 72.7 M353.8 45.7 Q375.05 47.1 407.75 41.9 364.95 49.6 409.15 60.95 353.5 59.4 352.6 84.95 339.85 96.65 341.0 113.05 314.85 73.75 293.05 83.9 292.3 79.6 294.55 75.1 302.75 82.4 310.1 70.9 309.75 66.1 318.6 63.8 334.85 60.85 341.0 57.3 L351.05 56.35 Q350.85 51.3 353.8 45.7 M351.05 56.35 L351.1 57.05 Q351.85 56.5 351.05 56.35 M287.55 207.65 L281.65 230.4 Q279.9 225.7 263.65 240.9 L287.55 207.65 M296.4 210.4 Q299.3 210.85 301.7 210.45 291.9 222.1 287.7 230.7 L296.4 210.4" fill="#ffffcc" fill-rule="evenodd" stroke="none"/>
    <path d="M438.15 80.35 L431.55 72.2 Q442.15 62.3 431.55 39.85 429.6 35.95 416.1 39.85 426.8 35.25 416.1 28.6 407.45 28.45 394.35 31.7 402.45 28.75 405.9 23.9 442.6 19.3 437.65 39.55 444.85 62.95 438.15 80.35 M370.35 35.9 L353.8 38.8 353.8 45.7 Q345.6 46.0 343.35 41.65 320.8 42.25 309.2 59.5 305.7 60.45 305.5 62.7 L304.75 63.35 Q297.3 69.4 294.55 75.1 L286.85 76.85 Q279.15 87.5 294.95 98.85 290.8 97.3 286.05 95.9 266.05 73.0 298.45 51.05 322.45 23.8 370.35 35.9 M351.05 56.35 Q351.85 56.5 351.1 57.05 L351.05 56.35 M278.3 202.8 Q265.7 194.45 278.3 186.1 L313.9 168.35 Q305.9 181.7 307.0 195.0 290.6 189.05 278.3 202.8" fill="#660000" fill-rule="evenodd" stroke="none"/>
    <path d="M394.35 31.7 Q390.7 33.0 386.15 33.95 L394.35 31.7" fill="#330000" fill-rule="evenodd" stroke="none"/>
    <path d="M304.75 63.35 L305.5 62.7 Q305.7 60.45 309.2 59.5 314.4 58.05 327.5 57.55 338.25 49.7 353.8 45.7 350.85 51.3 351.05 56.35 L341.0 57.3 Q334.85 60.85 318.6 63.8 309.75 66.1 310.1 70.9 302.75 82.4 294.55 75.1 301.8 66.0 304.75 63.35 M405.0 72.7 L402.15 79.75 Q394.1 98.95 358.05 127.2 362.15 141.15 339.45 146.05 349.85 134.7 349.9 131.35 359.1 122.95 365.0 110.25 381.1 101.2 391.75 86.65 396.2 80.6 405.0 72.7" fill="#993333" fill-rule="evenodd" stroke="none"/>
    <path d="M304.75 63.35 Q301.8 66.0 294.55 75.1 297.3 69.4 304.75 63.35" fill="#000000" fill-rule="evenodd" stroke="none"/>
    <path d="M281.65 230.4 L287.55 207.65 292.8 209.55 281.75 233.15 Q282.0 231.35 281.65 230.4" fill="#996633" fill-rule="evenodd" stroke="none"/>
    <path d="M281.75 233.15 L292.8 209.55 296.4 210.4 287.7 230.7 286.0 234.5 285.3 236.7 285.0 242.8 Q280.0 239.45 276.4 244.7 L281.75 233.15" fill="#ffff99" fill-rule="evenodd" stroke="none"/>
    <path d="M405.0 72.7 Q421.6 32.2 427.7 43.75 L427.7 50.0 Q418.55 60.55 427.7 83.4 385.1 91.1 379.35 121.65 411.9 102.2 426.8 97.45 434.5 89.8 438.15 80.35 L431.55 72.2 Q442.15 62.3 431.55 39.85 429.6 35.95 416.1 39.85 426.8 35.25 416.1 28.6 407.45 28.45 394.35 31.7 390.7 33.0 386.15 33.95 L381.75 34.75 380.85 34.85 370.35 35.9 353.8 38.8 353.8 45.7 Q375.05 47.1 407.75 41.9 L409.15 41.65 M438.15 80.35 Q444.85 62.95 437.65 39.55 442.6 19.3 405.9 23.9 402.45 28.75 394.35 31.7 L386.15 33.95 M294.55 75.1 Q292.3 79.6 293.05 83.9 314.85 73.75 341.0 113.05 339.85 96.65 352.6 84.95 353.5 59.4 409.15 60.95 364.95 49.6 407.75 41.9 M309.2 59.5 Q305.7 60.45 305.5 62.7 L304.75 63.35 Q301.8 66.0 294.55 75.1 302.75 82.4 310.1 70.9 309.75 66.1 318.6 63.8 334.85 60.85 341.0 57.3 L351.05 56.35 Q350.85 51.3 353.8 45.7 338.25 49.7 327.5 57.55 314.4 58.05 309.2 59.5 320.8 42.25 343.35 41.65 345.6 46.0 353.8 45.7 M351.05 56.35 Q351.85 56.5 351.1 57.05 L351.05 56.35 M339.45 146.05 Q362.15 141.15 358.05 127.2 394.1 98.95 402.15 79.75 L405.0 72.7 Q396.2 80.6 391.75 86.65 381.1 101.2 365.0 110.25 359.1 122.95 349.9 131.35 349.85 134.7 339.45 146.05 332.8 147.5 330.8 148.25 334.5 148.65 318.25 184.3 332.45 155.75 357.2 140.75 375.15 121.5 379.35 121.65 M370.35 35.9 Q322.45 23.8 298.45 51.05 266.05 73.0 286.05 95.9 290.8 97.3 294.95 98.85 279.15 87.5 286.85 76.85 L294.55 75.1 Q297.3 69.4 304.75 63.35 M287.55 207.65 L281.65 230.4 Q282.0 231.35 281.75 233.15 L292.8 209.55 287.55 207.65 Q283.3 205.8 278.3 202.8 265.7 194.45 278.3 186.1 L313.9 168.35 322.05 148.3 323.2 145.45 Q340.5 115.6 294.95 98.85 M301.7 210.45 Q307.65 209.35 310.05 202.8 L315.7 189.95 316.85 187.3 317.1 186.8 318.25 184.3 M296.4 210.4 Q299.3 210.85 301.7 210.45 291.9 222.1 287.7 230.7 L286.0 234.5 285.3 236.7 285.0 242.8 Q280.0 239.45 276.4 244.7 L275.5 246.55 M292.8 209.55 L296.4 210.4 287.7 230.7 M278.3 202.8 Q290.6 189.05 307.0 195.0 305.9 181.7 313.9 168.35 M276.4 244.7 L281.75 233.15 M287.55 207.65 L263.65 240.9 Q279.9 225.7 281.65 230.4 M275.25 246.55 L276.4 244.7" ffdec:has-small-stroke="true" ffdec:original-stroke-width="0.05" fill="none" stroke="#000000" stroke-linecap="round" stroke-linejoin="round" stroke-opacity="0.4" stroke-width="1.0"/>
    <path d="M332.7 257.6 Q292.9 255.2 250.15 241.95 L250.15 -9.0 Q289.75 6.0 332.7 9.2 L332.7 257.6" fill="#ffffff" fill-opacity="0.42352942" fill-rule="evenodd" stroke="none"/>
    <path d="M434.95 247.7 L434.95 11.9 Q455.6 6.15 474.3 -6.4 464.25 113.55 474.3 231.55 457.45 241.2 434.95 247.7" fill="#000000" fill-opacity="0.43137255" fill-rule="evenodd" stroke="none"/>
  </g>
</svg>
