<?xml version="1.0" encoding="UTF-8" standalone="no"?>
<svg xmlns:ffdec="https://www.free-decompiler.com/flash" xmlns:xlink="http://www.w3.org/1999/xlink" ffdec:objectType="shape" height="306.45px" width="247.05px" xmlns="http://www.w3.org/2000/svg">
  <g transform="matrix(1.0, 0.0, 0.0, 1.0, -227.25, 47.3)">
    <path d="M273.2 -42.25 L279.4 -43.15 291.95 -44.65 Q354.6 -48.4 277.05 -22.7 277.05 -35.65 237.1 -33.4 255.15 -39.15 273.2 -42.25 M347.6 -18.8 L340.75 -19.4 Q335.8 -23.45 343.35 -24.95 341.25 -21.5 347.6 -18.8 M416.85 -4.85 Q427.6 -9.9 435.85 -20.35 434.2 -28.8 425.9 -35.0 438.75 -29.45 447.65 -21.4 434.3 -10.45 416.85 -4.85 M299.15 238.4 L299.0 238.4 299.05 238.35 299.15 238.4" fill="#000000" fill-rule="evenodd" stroke="none"/>
    <path d="M227.75 -26.25 Q229.5 -30.05 237.1 -33.4 246.05 -37.3 263.2 -40.55 L273.2 -42.25 Q255.15 -39.15 237.1 -33.4 277.05 -35.65 277.05 -22.7 354.6 -48.4 291.95 -44.65 318.1 -47.3 350.2 -47.3 L357.95 -47.25 Q383.95 -47.25 393.6 -45.6 403.25 -44.0 410.25 -44.45 424.6 -42.9 437.15 -40.55 473.15 -33.7 473.15 -24.0 L473.15 -23.85 Q472.85 -14.25 439.5 -3.15 406.1 7.9 355.35 8.35 304.6 8.8 268.05 -2.3 260.05 -4.75 253.65 -7.05 237.9 -12.7 231.6 -17.55 228.85 -19.6 227.9 -21.45 L227.75 -21.75 227.75 -26.25 M282.9 -19.2 Q282.85 -12.75 303.6 -8.2 324.3 -3.7 353.7 -3.7 383.05 -3.7 403.75 -8.2 424.45 -12.75 424.45 -19.2 424.45 -25.7 403.75 -30.2 383.05 -34.75 353.7 -34.75 324.3 -34.75 303.6 -30.2 282.85 -25.7 282.9 -19.2 M416.85 -4.85 Q434.3 -10.45 447.65 -21.4 438.75 -29.45 425.9 -35.0 434.2 -28.8 435.85 -20.35 427.6 -9.9 416.85 -4.85" fill="#333333" fill-rule="evenodd" stroke="none"/>
    <path d="M473.15 -23.85 Q473.1 -20.65 471.85 -14.4 462.55 -6.15 447.9 2.25 437.5 10.15 424.55 15.45 402.4 21.35 374.7 23.05 L365.4 23.5 Q294.4 25.9 227.75 -4.6 230.4 -16.15 227.9 -21.45 228.85 -19.6 231.6 -17.55 233.45 -6.7 242.15 -2.65 238.3 -8.45 253.65 -7.05 280.05 7.95 309.7 15.2 342.8 21.15 374.7 23.05 360.0 20.7 355.35 8.35 406.1 7.9 439.5 -3.15 472.85 -14.25 473.15 -23.85 M340.75 -19.4 L338.0 -19.85 Q333.35 -20.8 333.35 -22.05 333.35 -23.35 338.0 -24.4 L343.25 -25.05 343.35 -25.05 349.4 -25.3 352.3 -25.25 360.65 -24.4 Q365.45 -23.35 365.45 -22.05 365.45 -20.8 360.65 -19.85 L352.3 -18.9 349.4 -18.8 347.6 -18.8 Q341.25 -21.5 343.35 -24.95 335.8 -23.45 340.75 -19.4 M343.35 -25.05 L343.35 -24.95 343.25 -25.05 343.35 -24.95 343.35 -25.05" fill="#cccccc" fill-rule="evenodd" stroke="none"/>
    <path d="M471.85 -14.4 Q473.1 -12.3 473.15 -7.15 453.65 7.75 424.55 15.45 437.5 10.15 447.9 2.25 462.55 -6.15 471.85 -14.4 M372.75 257.85 Q355.1 260.5 336.6 257.8 313.65 256.45 290.8 251.05 239.55 243.45 227.75 228.35 259.25 243.6 290.8 251.05 304.2 253.05 320.4 254.55 L320.7 254.55 320.8 254.55 Q328.75 256.65 336.6 257.8 347.3 258.4 358.1 258.1 L372.75 257.85 M374.7 23.05 Q342.8 21.15 309.7 15.2 280.05 7.95 253.65 -7.05 238.3 -8.45 242.15 -2.65 233.45 -6.7 231.6 -17.55 237.9 -12.7 253.65 -7.05 260.05 -4.75 268.05 -2.3 304.6 8.8 355.35 8.35 360.0 20.7 374.7 23.05 M321.85 -18.35 Q334.1 -14.35 350.05 -12.85 370.6 -10.6 391.6 -13.5 369.45 -9.65 346.3 -9.65 333.1 -12.65 321.85 -18.35" fill="#999999" fill-rule="evenodd" stroke="none"/>
    <path d="M321.85 -18.35 L315.25 -20.9 321.85 -18.35 Q333.1 -12.65 346.3 -9.65 369.45 -9.65 391.6 -13.5 370.6 -10.6 350.05 -12.85 334.1 -14.35 321.85 -18.35 M282.9 -19.2 Q282.85 -25.7 303.6 -30.2 324.3 -34.75 353.7 -34.75 383.05 -34.75 403.75 -30.2 424.45 -25.7 424.45 -19.2 424.45 -12.75 403.75 -8.2 383.05 -3.7 353.7 -3.7 324.3 -3.7 303.6 -8.2 282.85 -12.75 282.9 -19.2 M352.3 -25.25 L349.4 -25.3 343.35 -25.05 343.25 -25.05 338.0 -24.4 Q333.35 -23.35 333.35 -22.05 333.35 -20.8 338.0 -19.85 L340.75 -19.4 347.6 -18.8 349.4 -18.8 352.3 -18.9 355.25 -18.8 Q361.8 -18.85 366.5 -19.85 371.25 -20.8 371.3 -22.05 371.25 -23.35 366.5 -24.4 L355.25 -25.3 352.3 -25.25" fill="#666666" fill-rule="evenodd" stroke="none"/>
    <path d="M320.55 254.5 L320.8 254.55 320.7 254.55 320.55 254.5" fill="#990000" fill-rule="evenodd" stroke="none"/>
    <path d="M459.75 58.45 Q456.8 44.65 456.55 28.95 422.8 27.3 389.0 33.15 L349.0 35.65 461.4 17.5 Q469.25 52.85 466.7 85.3 L463.4 71.85 459.75 58.45 M465.75 165.1 L466.25 188.55 Q466.0 210.65 457.85 211.0 456.55 220.6 451.15 226.5 446.45 228.45 441.3 232.95 L433.0 235.15 Q418.65 239.1 403.7 244.8 448.5 222.3 463.05 171.05 L465.75 165.1 M239.8 27.25 Q234.55 23.4 239.15 9.8 281.75 24.3 330.5 34.35 250.6 20.05 239.8 27.25 M246.7 179.45 L246.65 178.6 246.7 179.45 Q244.9 197.15 250.15 214.9 266.5 228.15 284.2 233.9 L287.4 235.75 285.85 238.4 291.25 238.4 291.75 238.2 293.05 238.9 320.4 254.45 Q277.05 245.8 234.9 225.25 232.4 177.35 234.9 125.6 236.2 153.45 246.65 178.6 L247.05 179.45 246.7 179.45" fill="#993333" fill-rule="evenodd" stroke="none"/>
    <path d="M473.15 -7.15 Q466.9 117.5 473.15 232.25 450.5 244.1 426.35 250.15 403.1 255.3 373.5 257.75 L372.75 257.85 358.1 258.1 Q347.3 258.4 336.6 257.8 328.75 256.65 320.8 254.55 L320.55 254.5 320.5 254.45 320.4 254.45 293.05 238.9 293.35 238.4 Q292.8 237.85 291.75 238.2 L291.25 238.4 285.85 238.4 287.4 235.75 284.2 233.9 Q266.5 228.15 250.15 214.9 244.9 197.15 246.7 179.45 L247.05 179.45 246.65 178.6 Q236.2 153.45 234.9 125.6 232.4 177.35 234.9 225.25 277.05 245.8 320.4 254.45 L320.4 254.55 Q304.2 253.05 290.8 251.05 259.25 243.6 227.75 228.35 235.15 111.9 227.75 -4.6 294.4 25.9 365.4 23.5 L374.7 23.05 Q402.4 21.35 424.55 15.45 453.65 7.75 473.15 -7.15 M406.8 32.95 L394.2 33.0 394.1 34.0 406.8 33.2 406.8 32.95 M459.75 58.45 L463.4 71.85 466.7 85.3 Q469.25 52.85 461.4 17.5 L349.0 35.65 389.0 33.15 Q422.8 27.3 456.55 28.95 456.8 44.65 459.75 58.45 L453.2 36.85 459.75 58.45 M465.75 165.1 L463.05 171.05 Q448.5 222.3 403.7 244.8 418.65 239.1 433.0 235.15 L441.3 232.95 Q446.45 228.45 451.15 226.5 456.55 220.6 457.85 211.0 466.0 210.65 466.25 188.55 L465.75 165.1 M239.8 27.25 Q250.6 20.05 330.5 34.35 281.75 24.3 239.15 9.8 234.55 23.4 239.8 27.25 M299.15 238.4 L299.05 238.35 299.0 238.4 299.15 238.4 M295.3 238.4 L294.05 238.1 294.0 238.4 295.3 238.4" fill="#ffff99" fill-rule="evenodd" stroke="none"/>
    <path d="M295.3 238.4 L294.0 238.4 294.05 238.1 295.3 238.4" fill="#996633" fill-rule="evenodd" stroke="none"/>
    <path d="M406.8 32.95 L406.8 33.2 394.1 34.0 394.2 33.0 406.8 32.95 M293.05 238.9 L291.75 238.2 Q292.8 237.85 293.35 238.4 L293.05 238.9 M320.4 254.45 L320.5 254.45 320.55 254.5 320.7 254.55 320.4 254.55 320.4 254.45" fill="#996600" fill-rule="evenodd" stroke="none"/>
    <path d="M273.2 -42.25 L279.4 -43.15 291.95 -44.65 Q354.6 -48.4 277.05 -22.7 277.05 -35.65 237.1 -33.4 255.15 -39.15 273.2 -42.25 M315.25 -20.9 L321.85 -18.35 Q334.1 -14.35 350.05 -12.85 370.6 -10.6 391.6 -13.5 369.45 -9.65 346.3 -9.65 333.1 -12.65 321.85 -18.35 M347.6 -18.8 L340.75 -19.4 Q335.8 -23.45 343.35 -24.95 L343.25 -25.05 M343.35 -24.95 L343.35 -25.05 M343.35 -24.95 Q341.25 -21.5 347.6 -18.8 M416.85 -4.85 Q434.3 -10.45 447.65 -21.4 438.75 -29.45 425.9 -35.0 434.2 -28.8 435.85 -20.35 427.6 -9.9 416.85 -4.85 M246.65 178.6 L246.7 179.45 M320.4 254.45 L320.5 254.45 320.55 254.5 320.8 254.55 M320.55 254.5 L320.7 254.55" ffdec:has-small-stroke="true" ffdec:original-stroke-width="0.05" fill="none" stroke="#000000" stroke-linecap="round" stroke-linejoin="round" stroke-width="1.0"/>
    <path d="M227.75 -21.75 Q227.25 -22.85 227.25 -24.0 227.25 -25.15 227.75 -26.25 229.5 -30.05 237.1 -33.4 246.05 -37.3 263.2 -40.55 L273.2 -42.25 M291.95 -44.65 Q318.1 -47.3 350.2 -47.3 L357.95 -47.25 Q383.95 -47.25 393.6 -45.6 403.25 -44.0 410.25 -44.45 424.6 -42.9 437.15 -40.55 473.15 -33.7 473.15 -24.0 L473.15 -23.85 Q473.1 -20.65 471.85 -14.4 473.1 -12.3 473.15 -7.15 466.9 117.5 473.15 232.25 454.45 243.85 426.35 250.15 400.4 256.6 372.75 257.85 355.1 260.5 336.6 257.8 313.65 256.45 290.8 251.05 239.55 243.45 227.75 228.35 235.15 111.9 227.75 -4.6 230.4 -16.15 227.9 -21.45 L227.75 -21.75 227.75 -26.25 M231.6 -17.55 Q228.85 -19.6 227.9 -21.45 M231.6 -17.55 Q237.9 -12.7 253.65 -7.05 260.05 -4.75 268.05 -2.3 304.6 8.8 355.35 8.35 406.1 7.9 439.5 -3.15 472.85 -14.25 473.15 -23.85 M424.55 15.45 Q453.65 7.75 473.15 -7.15 M227.75 -4.6 Q294.4 25.9 365.4 23.5 L374.7 23.05 Q402.4 21.35 424.55 15.45 M372.75 257.85 L373.5 257.75 Q403.1 255.3 426.35 250.15 450.5 244.1 473.15 232.25 M320.8 254.55 Q328.75 256.65 336.6 257.8 347.3 258.4 358.1 258.1 L372.75 257.85 M320.8 254.55 L320.7 254.55 320.4 254.55 Q304.2 253.05 290.8 251.05 259.25 243.6 227.75 228.35" ffdec:has-small-stroke="true" ffdec:original-stroke-width="0.05" fill="none" stroke="#000000" stroke-linecap="round" stroke-linejoin="round" stroke-width="1.0"/>
    <path d="M459.75 58.45 L453.2 36.85" ffdec:has-small-stroke="true" ffdec:original-stroke-width="0.05" fill="none" stroke="#d4d0c8" stroke-linecap="round" stroke-linejoin="round" stroke-width="1.0"/>
    <path d="M291.75 238.2 L291.25 238.4 M291.75 238.2 Q292.8 237.85 293.35 238.4" ffdec:has-small-stroke="true" ffdec:original-stroke-width="0.05" fill="none" stroke="#000000" stroke-linecap="round" stroke-linejoin="round" stroke-opacity="0.4" stroke-width="1.0"/>
    <path d="M372.95 122.95 Q378.4 94.2 418.65 86.95 410.0 65.5 418.65 55.6 L418.65 49.7 Q412.85 38.85 397.15 76.9 388.85 84.35 384.65 90.0 374.6 103.7 359.4 112.2 353.85 124.15 345.15 132.05 345.05 135.2 335.25 145.85 328.95 147.2 327.1 147.95 330.6 148.3 315.2 181.85 L314.1 184.2 313.9 184.65 312.8 187.15 307.45 199.2 Q305.2 205.4 299.6 206.4 297.35 206.8 294.55 206.35 L291.15 205.6 Q288.8 204.95 286.2 203.8 282.2 202.05 277.5 199.2 289.05 186.3 304.55 191.9 303.55 179.4 311.1 166.85 L318.8 148.0 319.9 145.3 Q336.2 117.25 293.2 101.5 278.25 90.8 285.55 80.8 L292.85 79.15 Q290.7 83.4 291.4 87.45 312.0 77.9 336.75 114.85 335.65 99.4 347.7 88.45 348.55 64.4 401.1 65.9 359.35 55.2 399.75 47.95 368.9 52.8 348.8 51.55 L348.8 45.05 364.45 42.35 374.35 41.35 375.2 41.25 379.4 40.5 Q383.65 39.6 387.1 38.4 399.5 35.3 407.65 35.45 417.8 41.7 407.65 46.0 420.4 42.4 422.3 46.0 432.3 67.15 422.3 76.45 L428.5 84.15 Q425.05 92.95 417.8 100.2 403.7 104.65 372.95 122.95 M401.1 47.7 L399.75 47.95 401.1 47.7" fill="#ffcccc" fill-rule="evenodd" stroke="none"/>
    <path d="M397.15 76.9 Q412.85 38.85 418.65 49.7 L418.65 55.6 Q410.0 65.5 418.65 86.95 378.4 94.2 372.95 122.95 368.95 122.8 352.0 140.85 328.6 155.0 315.2 181.85 330.6 148.3 327.1 147.95 328.95 147.2 335.25 145.85 356.7 141.25 352.8 128.15 386.85 101.6 394.5 83.55 L397.15 76.9 M348.8 51.55 Q368.9 52.8 399.75 47.95 359.35 55.2 401.1 65.9 348.55 64.4 347.7 88.45 335.65 99.4 336.75 114.85 312.0 77.9 291.4 87.45 290.7 83.4 292.85 79.15 300.6 86.0 307.5 75.25 307.2 70.7 315.55 68.55 330.9 65.75 336.75 62.45 344.6 61.2 346.2 61.5 346.0 56.8 348.8 51.55 334.15 55.3 323.95 62.65 311.6 63.1 306.65 64.5 317.6 48.25 338.9 47.7 341.05 51.8 348.8 51.55 M346.2 61.5 L346.25 62.2 Q346.95 61.65 346.2 61.5" fill="#ff9999" fill-rule="evenodd" stroke="none"/>
    <path d="M428.5 84.15 L422.3 76.45 Q432.3 67.15 422.3 46.0 420.4 42.4 407.65 46.0 417.8 41.7 407.65 35.45 399.5 35.3 387.1 38.4 394.75 35.6 398.05 31.05 432.7 26.7 428.0 45.75 434.8 67.75 428.5 84.15 M364.45 42.35 L348.8 45.05 348.8 51.55 Q341.05 51.8 338.9 47.7 317.6 48.25 306.65 64.5 303.35 65.35 303.2 67.55 L302.45 68.15 Q295.45 73.8 292.85 79.15 L285.55 80.8 Q278.25 90.8 293.2 101.5 L284.8 98.7 Q265.9 77.2 296.5 56.55 319.2 30.95 364.45 42.35" fill="#ffcc99" fill-rule="evenodd" stroke="none"/>
    <path d="M387.1 38.4 Q383.65 39.6 379.4 40.5 L387.1 38.4" fill="#330000" fill-rule="evenodd" stroke="none"/>
    <path d="M302.45 68.15 L303.2 67.55 Q303.35 65.35 306.65 64.5 311.6 63.1 323.95 62.65 334.15 55.3 348.8 51.55 346.0 56.8 346.2 61.5 344.6 61.2 336.75 62.45 330.9 65.75 315.55 68.55 307.2 70.7 307.5 75.25 300.6 86.0 292.85 79.15 299.65 70.6 302.45 68.15 M335.25 145.85 Q345.05 135.2 345.15 132.05 353.85 124.15 359.4 112.2 374.6 103.7 384.65 90.0 388.85 84.35 397.15 76.9 L394.5 83.55 Q386.85 101.6 352.8 128.15 356.7 141.25 335.25 145.85 M294.55 206.35 Q297.35 206.8 299.6 206.4 290.3 217.4 286.35 225.45 L294.55 206.35 M286.2 203.8 L280.65 225.15 Q279.0 220.75 263.65 235.05 L286.2 203.8 M277.5 199.2 Q265.55 191.35 277.5 183.55 L311.1 166.85 Q303.55 179.4 304.55 191.9 289.05 186.3 277.5 199.2" fill="#ffffcc" fill-rule="evenodd" stroke="none"/>
    <path d="M346.2 61.5 Q346.95 61.65 346.25 62.2 L346.2 61.5" fill="#660000" fill-rule="evenodd" stroke="none"/>
    <path d="M302.45 68.15 Q299.65 70.6 292.85 79.15 295.45 73.8 302.45 68.15" fill="#000000" fill-rule="evenodd" stroke="none"/>
    <path d="M286.2 203.8 Q288.8 204.95 291.15 205.6 L280.75 227.75 Q280.95 226.1 280.65 225.15 L286.2 203.8" fill="#996633" fill-rule="evenodd" stroke="none"/>
    <path d="M291.15 205.6 L294.55 206.35 286.35 225.45 284.75 229.05 284.05 231.1 283.8 236.85 Q279.1 233.65 275.65 238.65 L280.75 227.75 291.15 205.6" fill="#ffff99" fill-rule="evenodd" stroke="none"/>
    <path d="M397.15 76.9 Q412.85 38.85 418.65 49.7 L418.65 55.6 Q410.0 65.5 418.65 86.95 378.4 94.2 372.95 122.95 403.7 104.65 417.8 100.2 425.05 92.95 428.5 84.15 L422.3 76.45 Q432.3 67.15 422.3 46.0 420.4 42.4 407.65 46.0 417.8 41.7 407.65 35.45 399.5 35.3 387.1 38.4 383.65 39.6 379.4 40.5 L375.2 41.25 374.35 41.35 364.45 42.35 348.8 45.05 348.8 51.55 Q368.9 52.8 399.75 47.95 L401.1 47.7 M428.5 84.15 Q434.8 67.75 428.0 45.75 432.7 26.7 398.05 31.05 394.75 35.6 387.1 38.4 L379.4 40.5 M292.85 79.15 Q290.7 83.4 291.4 87.45 312.0 77.9 336.75 114.85 335.65 99.4 347.7 88.45 348.55 64.4 401.1 65.9 359.35 55.2 399.75 47.95 M306.65 64.5 Q303.35 65.35 303.2 67.55 L302.45 68.15 Q299.65 70.6 292.85 79.15 300.6 86.0 307.5 75.25 307.2 70.7 315.55 68.55 330.9 65.75 336.75 62.45 344.6 61.2 346.2 61.5 346.0 56.8 348.8 51.55 334.15 55.3 323.95 62.65 311.6 63.1 306.65 64.5 317.6 48.25 338.9 47.7 341.05 51.8 348.8 51.55 M346.2 61.5 Q346.95 61.65 346.25 62.2 L346.2 61.5 M397.15 76.9 Q388.85 84.35 384.65 90.0 374.6 103.7 359.4 112.2 353.85 124.15 345.15 132.05 345.05 135.2 335.25 145.85 356.7 141.25 352.8 128.15 386.85 101.6 394.5 83.55 L397.15 76.9 M292.85 79.15 Q295.45 73.8 302.45 68.15 M364.45 42.35 Q319.2 30.95 296.5 56.55 265.9 77.2 284.8 98.7 L293.2 101.5 Q278.25 90.8 285.55 80.8 L292.85 79.15 M277.5 199.2 Q282.2 202.05 286.2 203.8 288.8 204.95 291.15 205.6 L294.55 206.35 Q297.35 206.8 299.6 206.4 305.2 205.4 307.45 199.2 L312.8 187.15 313.9 184.65 314.1 184.2 315.2 181.85 Q330.6 148.3 327.1 147.95 328.95 147.2 335.25 145.85 M286.2 203.8 L280.65 225.15 Q280.95 226.1 280.75 227.75 L291.15 205.6 M311.1 166.85 L277.5 183.55 Q265.55 191.35 277.5 199.2 289.05 186.3 304.55 191.9 303.55 179.4 311.1 166.85 L318.8 148.0 319.9 145.3 Q336.2 117.25 293.2 101.5 M315.2 181.85 Q328.6 155.0 352.0 140.85 368.95 122.8 372.95 122.95 M286.35 225.45 L284.75 229.05 284.05 231.1 283.8 236.85 Q279.1 233.65 275.65 238.65 L272.75 244.8 Q274.05 240.9 275.65 238.65 L280.75 227.75 M286.2 203.8 L263.65 235.05 Q279.0 220.75 280.65 225.15 M294.55 206.35 L286.35 225.45 Q290.3 217.4 299.6 206.4" ffdec:has-small-stroke="true" ffdec:original-stroke-width="0.05" fill="none" stroke="#000000" stroke-linecap="round" stroke-linejoin="round" stroke-opacity="0.4" stroke-width="1.0"/>
    <path d="M332.7 257.6 Q292.9 255.2 250.15 241.95 L250.15 -9.0 Q289.75 6.0 332.7 9.2 L332.7 257.6" fill="#ffffff" fill-opacity="0.42352942" fill-rule="evenodd" stroke="none"/>
    <path d="M434.95 247.7 L434.95 11.9 Q455.6 6.15 474.3 -6.4 464.25 113.55 474.3 231.55 457.45 241.2 434.95 247.7" fill="#000000" fill-opacity="0.43137255" fill-rule="evenodd" stroke="none"/>
  </g>
</svg>
