<?xml version="1.0" encoding="UTF-8" standalone="no"?>
<svg xmlns:ffdec="https://www.free-decompiler.com/flash" xmlns:xlink="http://www.w3.org/1999/xlink" ffdec:objectType="shape" height="119.3px" width="95.0px" xmlns="http://www.w3.org/2000/svg">
  <g transform="matrix(1.0, 0.0, 0.0, 1.0, -216.45, -119.5)">
    <path d="M234.2 121.45 L236.6 121.1 241.45 120.55 Q265.65 119.05 235.7 129.0 235.7 124.0 220.25 124.9 227.25 122.65 234.2 121.45 M289.7 135.9 Q293.85 133.95 297.05 129.9 296.4 126.65 293.2 124.25 298.15 126.4 301.6 129.5 296.45 133.75 289.7 135.9 M262.95 130.5 L260.3 130.3 Q258.4 128.7 261.3 128.15 260.5 129.5 262.95 130.5" fill="#000000" fill-rule="evenodd" stroke="none"/>
    <path d="M216.65 127.65 Q217.3 126.15 220.25 124.9 223.75 123.35 230.35 122.1 L234.2 121.45 Q227.25 122.65 220.25 124.9 235.7 124.0 235.7 129.0 265.65 119.05 241.45 120.55 L263.95 119.5 266.95 119.55 280.75 120.15 287.15 120.6 297.55 122.1 Q311.45 124.75 311.45 128.5 L311.45 128.55 Q311.35 132.25 298.45 136.55 285.55 140.85 265.95 141.0 246.35 141.15 232.25 136.9 L226.65 135.05 Q220.55 132.85 218.15 131.0 L216.7 129.5 216.65 129.4 216.65 127.65 M289.7 135.9 Q296.45 133.75 301.6 129.5 298.15 126.4 293.2 124.25 296.4 126.65 297.05 129.9 293.85 133.95 289.7 135.9 M292.65 130.35 Q292.65 127.85 284.65 126.1 276.65 124.35 265.3 124.35 253.95 124.35 245.95 126.1 237.95 127.85 237.95 130.35 237.95 132.85 245.95 134.6 253.95 136.35 265.3 136.35 276.65 136.35 284.65 134.6 292.65 132.85 292.65 130.35" fill="#333333" fill-rule="evenodd" stroke="none"/>
    <path d="M311.45 128.55 L310.95 132.2 Q307.35 135.4 301.7 138.65 297.7 141.7 292.7 143.75 284.1 146.05 273.45 146.7 L269.85 146.85 Q242.4 147.8 216.65 136.0 217.65 131.55 216.7 129.5 L218.15 131.0 Q218.85 135.2 222.2 136.75 220.75 134.5 226.65 135.05 236.85 140.85 248.3 143.65 261.1 145.95 273.45 146.7 267.75 145.75 265.95 141.0 285.55 140.85 298.45 136.55 311.35 132.25 311.45 128.55 M260.3 130.3 L259.25 130.1 Q257.45 129.75 257.45 129.25 257.45 128.75 259.25 128.35 L261.3 128.1 263.65 128.0 264.8 128.05 268.0 128.35 Q269.85 128.75 269.85 129.25 269.85 129.75 268.0 130.1 L264.8 130.5 263.65 130.5 262.95 130.5 Q260.5 129.5 261.3 128.15 258.4 128.7 260.3 130.3 M261.3 128.1 L261.3 128.15 261.3 128.1 261.3 128.15 261.3 128.1" fill="#cccccc" fill-rule="evenodd" stroke="none"/>
    <path d="M310.95 132.2 Q311.45 133.05 311.45 135.0 303.9 140.8 292.7 143.75 297.7 141.7 301.7 138.65 307.35 135.4 310.95 132.2 M272.7 237.4 Q265.85 238.4 258.7 237.4 249.85 236.85 241.0 234.8 221.2 231.85 216.65 226.0 228.85 231.9 241.0 234.8 L252.45 236.15 252.55 236.15 252.6 236.15 258.7 237.4 267.0 237.5 272.7 237.4 M218.15 131.0 Q220.55 132.85 226.65 135.05 L232.25 136.9 Q246.35 141.15 265.95 141.0 267.75 145.75 273.45 146.7 261.1 145.95 248.3 143.65 236.85 140.85 226.65 135.05 220.75 134.5 222.2 136.75 218.85 135.2 218.15 131.0 M253.0 130.7 Q257.75 132.25 263.9 132.8 271.85 133.7 279.95 132.55 271.4 134.05 262.45 134.05 257.35 132.9 253.0 130.7" fill="#999999" fill-rule="evenodd" stroke="none"/>
    <path d="M292.65 130.35 Q292.65 132.85 284.65 134.6 276.65 136.35 265.3 136.35 253.95 136.35 245.95 134.6 237.95 132.85 237.95 130.35 237.95 127.85 245.95 126.1 253.95 124.35 265.3 124.35 276.65 124.35 284.65 126.1 292.65 127.85 292.65 130.35 M264.8 128.05 L263.65 128.0 261.3 128.1 259.25 128.35 Q257.45 128.75 257.45 129.25 257.45 129.75 259.25 130.1 L260.3 130.3 262.95 130.5 263.65 130.5 264.8 130.5 265.9 130.5 270.25 130.1 Q272.1 129.75 272.1 129.25 272.1 128.75 270.25 128.35 L265.9 128.0 264.8 128.05 M253.0 130.7 L250.45 129.7 253.0 130.7 Q257.35 132.9 262.45 134.05 271.4 134.05 279.95 132.55 271.85 133.7 263.9 132.8 257.75 132.25 253.0 130.7" fill="#666666" fill-rule="evenodd" stroke="none"/>
    <path d="M252.45 236.1 L252.5 236.1 252.6 236.15 252.55 236.15 252.45 236.15 252.45 236.1 M252.55 236.15 L252.5 236.1 252.55 236.15" fill="#990000" fill-rule="evenodd" stroke="none"/>
    <path d="M223.95 206.8 L224.1 207.1 224.0 207.1 223.95 206.8" fill="#993333" fill-rule="evenodd" stroke="none"/>
    <path d="M311.45 135.0 Q309.05 183.15 311.45 227.5 302.7 232.1 293.4 234.45 284.4 236.4 272.95 237.35 L272.7 237.4 267.0 237.5 258.7 237.4 252.6 236.15 252.5 236.1 252.45 236.1 252.45 236.15 241.0 234.8 Q228.85 231.9 216.65 226.0 219.5 181.0 216.65 136.0 242.4 147.8 269.85 146.85 L273.45 146.7 Q284.1 146.05 292.7 143.75 303.9 140.8 311.45 135.0 M221.3 148.3 Q225.45 145.55 256.35 151.05 237.5 147.15 221.05 141.55 219.3 146.8 221.3 148.3 M306.3 160.35 L307.7 165.55 309.0 170.75 Q309.95 158.2 306.95 144.55 L263.5 151.55 278.95 150.6 Q292.0 148.35 305.05 148.95 305.15 155.0 306.3 160.35 L303.75 152.0 306.3 160.35 M308.6 201.55 L307.55 203.85 Q301.95 223.65 284.65 232.35 290.4 230.15 295.95 228.65 L299.15 227.8 Q301.15 226.05 302.95 225.3 305.05 223.0 305.55 219.3 308.7 219.15 308.8 210.65 L308.6 201.55 M223.95 206.8 Q219.9 197.05 219.4 186.3 218.45 206.3 219.4 224.8 235.7 232.75 252.45 236.1 L238.45 228.15 Q231.6 225.9 225.3 220.8 223.3 213.95 224.0 207.1 L224.1 207.1 223.95 206.8" fill="#ffffcc" fill-rule="evenodd" stroke="none"/>
    <path d="M252.5 236.1 L252.6 236.15 252.5 236.1" fill="#ffcc99" fill-rule="evenodd" stroke="none"/>
    <path d="M221.3 148.3 Q219.3 146.8 221.05 141.55 237.5 147.15 256.35 151.05 225.45 145.55 221.3 148.3 M306.3 160.35 Q305.15 155.0 305.05 148.95 292.0 148.35 278.95 150.6 L263.5 151.55 306.95 144.55 Q309.95 158.2 309.0 170.75 L307.7 165.55 306.3 160.35 M308.6 201.55 L308.8 210.65 Q308.7 219.15 305.55 219.3 305.05 223.0 302.95 225.3 301.15 226.05 299.15 227.8 L295.95 228.65 Q290.4 230.15 284.65 232.35 301.95 223.65 307.55 203.85 L308.6 201.55 M252.45 236.1 Q235.7 232.75 219.4 224.8 218.45 206.3 219.4 186.3 219.9 197.05 223.95 206.8 L224.0 207.1 Q223.3 213.95 225.3 220.8 231.6 225.9 238.45 228.15 L252.45 236.1" fill="#ddb880" fill-rule="evenodd" stroke="none"/>
    <path d="M234.2 121.45 L236.6 121.1 241.45 120.55 Q265.65 119.05 235.7 129.0 235.7 124.0 220.25 124.9 227.25 122.65 234.2 121.45 M289.7 135.9 Q296.45 133.75 301.6 129.5 298.15 126.4 293.2 124.25 296.4 126.65 297.05 129.9 293.85 133.95 289.7 135.9 M262.95 130.5 L260.3 130.3 Q258.4 128.7 261.3 128.15 L261.3 128.1 261.3 128.15 Q260.5 129.5 262.95 130.5 M250.45 129.7 L253.0 130.7 Q257.75 132.25 263.9 132.8 271.85 133.7 279.95 132.55 271.4 134.05 262.45 134.05 257.35 132.9 253.0 130.7 M252.45 236.1 L252.5 236.1 252.6 236.15 M252.5 236.1 L252.55 236.15 M224.0 207.1 L223.95 206.8" ffdec:has-small-stroke="true" ffdec:original-stroke-width="0.05" fill="none" stroke="#000000" stroke-linecap="round" stroke-linejoin="round" stroke-width="1.0"/>
    <path d="M216.65 127.65 Q217.3 126.15 220.25 124.9 223.75 123.35 230.35 122.1 L234.2 121.45 M241.45 120.55 L263.95 119.5 266.95 119.55 280.75 120.15 287.15 120.6 297.55 122.1 Q311.45 124.75 311.45 128.5 L311.45 128.55 310.95 132.2 Q311.45 133.05 311.45 135.0 309.05 183.15 311.45 227.5 304.25 232.0 293.4 234.45 283.35 236.9 272.7 237.4 265.85 238.4 258.7 237.4 249.85 236.85 241.0 234.8 221.2 231.85 216.65 226.0 219.5 181.0 216.65 136.0 217.65 131.55 216.7 129.5 L216.65 129.4 216.45 128.5 216.65 127.65 216.65 129.4 M216.7 129.5 L218.15 131.0 Q220.55 132.85 226.65 135.05 L232.25 136.9 Q246.35 141.15 265.95 141.0 285.55 140.85 298.45 136.55 311.35 132.25 311.45 128.55 M292.7 143.75 Q303.9 140.8 311.45 135.0 M216.65 136.0 Q242.4 147.8 269.85 146.85 L273.45 146.7 Q284.1 146.05 292.7 143.75 M272.7 237.4 L272.95 237.35 Q284.4 236.4 293.4 234.45 302.7 232.1 311.45 227.5 M252.6 236.15 L258.7 237.4 267.0 237.5 272.7 237.4 M252.6 236.15 L252.55 236.15 252.45 236.15 241.0 234.8 Q228.85 231.9 216.65 226.0" ffdec:has-small-stroke="true" ffdec:original-stroke-width="0.05" fill="none" stroke="#000000" stroke-linecap="round" stroke-linejoin="round" stroke-width="1.0"/>
    <path d="M306.3 160.35 L303.75 152.0" ffdec:has-small-stroke="true" ffdec:original-stroke-width="0.05" fill="none" stroke="#d4d0c8" stroke-linecap="round" stroke-linejoin="round" stroke-width="1.0"/>
    <path d="M227.7 174.7 L228.2 175.05 228.55 175.7 228.95 176.55 228.9 176.55 228.75 176.5 227.95 176.0 227.25 175.65 225.6 174.75 225.0 174.4 224.4 174.25 223.85 174.15 222.95 174.2 223.6 174.05 Q225.0 173.85 226.3 174.6 L226.85 174.85 228.25 175.5 227.7 174.7 M226.5 171.35 Q226.55 169.8 228.05 169.0 229.65 168.2 232.0 168.45 233.3 168.85 234.3 169.95 235.2 170.85 235.4 171.7 L235.45 172.2 235.1 173.15 234.05 174.4 233.7 174.75 233.6 174.9 233.55 174.95 233.6 175.0 233.95 175.2 234.35 175.3 234.85 175.4 238.35 176.5 241.2 177.5 242.25 177.85 248.55 180.25 Q247.7 180.6 246.9 181.1 L232.6 175.8 232.55 175.8 233.0 172.7 Q231.3 168.3 226.5 171.35" fill="url(#gradient0)" fill-rule="evenodd" stroke="none"/>
    <path d="M222.95 174.2 L223.85 174.15 224.4 174.25 225.0 174.4 225.6 174.75 227.25 175.65 227.95 176.0 228.75 176.5 228.9 176.55 228.95 176.55 228.55 175.7 228.2 175.05 227.7 174.7 227.6 174.5 Q226.5 172.6 226.5 171.35 231.3 168.3 233.0 172.7 L232.55 175.8 232.6 175.8 246.9 181.1 244.7 182.5 241.5 185.2 239.4 184.4 238.5 184.1 234.8 182.9 233.3 182.45 Q230.3 181.55 227.7 180.15 226.6 180.75 225.1 181.0 222.15 181.45 220.0 179.25 219.6 178.85 219.45 178.15 219.3 177.6 219.55 177.0 L219.8 176.5 Q220.7 175.2 222.2 174.45 L222.8 174.2 222.95 174.2 222.8 174.2 222.95 174.2" fill="url(#gradient1)" fill-rule="evenodd" stroke="none"/>
    <path d="M227.7 174.7 L228.25 175.5 226.85 174.85 226.3 174.6 Q225.0 173.85 223.6 174.05 L222.95 174.2 222.8 174.2 222.95 174.2 M227.7 174.7 L227.6 174.5 Q226.5 172.6 226.5 171.35 226.55 169.8 228.05 169.0 229.65 168.2 232.0 168.45 233.3 168.85 234.3 169.95 235.2 170.85 235.4 171.7 L235.45 172.2 235.1 173.15 234.05 174.4 233.7 174.75 233.6 174.9 233.6 175.0 233.95 175.2 234.35 175.3 234.85 175.4 238.35 176.5 241.2 177.5 242.25 177.85 248.55 180.25 Q249.6 179.8 250.75 179.4 252.7 178.75 254.9 178.75 L255.15 178.8 255.9 178.9 M232.55 175.8 L232.6 175.8 M246.9 181.1 Q247.7 180.6 248.55 180.25 L251.25 181.4 251.55 181.55 251.75 181.7 M233.6 174.9 L233.55 174.95 233.6 175.0 M241.5 185.2 L239.4 184.4 238.5 184.1 234.8 182.9 233.3 182.45 Q230.3 181.55 227.7 180.15 226.6 180.75 225.1 181.0 222.15 181.45 220.0 179.25 219.6 178.85 219.45 178.15 219.3 177.6 219.55 177.0 L219.8 176.5 Q220.7 175.2 222.2 174.45 L222.8 174.2 M243.5 186.0 L241.5 185.2 239.9 186.75 Q239.5 187.15 239.4 187.7 M241.5 185.2 L244.7 182.5 246.9 181.1 250.15 182.25" ffdec:has-small-stroke="true" ffdec:original-stroke-width="0.05" fill="none" stroke="#0d2608" stroke-linecap="round" stroke-linejoin="round" stroke-opacity="0.4" stroke-width="1.0"/>
    <path d="M236.0 187.9 Q236.0 185.95 238.5 182.0 241.0 178.0 243.25 177.15 249.45 175.6 255.95 174.95 L265.95 174.4 276.0 174.95 Q286.8 177.15 294.15 179.95 303.05 183.3 303.5 186.35 L303.55 187.8 303.2 190.95 302.9 192.05 Q296.35 199.35 285.7 198.2 L269.55 197.0 259.1 195.25 Q250.85 193.6 241.6 191.0 L238.55 190.0 Q237.7 189.55 236.0 187.9 M276.0 186.5 Q274.7 186.85 274.7 187.5 274.7 188.1 275.95 188.65 L278.85 189.15 281.6 188.9 Q282.7 188.55 282.75 187.95 282.8 187.4 281.75 186.95 280.65 186.45 279.0 186.3 L276.0 186.5 M269.9 195.3 L272.15 195.6 284.45 196.65 Q295.1 197.15 300.45 191.4 301.9 188.15 300.8 186.3 297.9 181.1 275.55 176.55 261.65 175.15 248.2 178.65 242.6 181.15 240.25 184.65 239.4 185.95 239.0 187.4 L241.0 188.1 241.7 188.3 Q251.8 191.65 260.95 193.65 L263.2 194.1 269.9 195.3 M278.8 190.8 Q275.45 190.7 272.9 189.8 270.1 188.75 270.1 187.4 270.05 186.05 272.9 185.3 L279.1 184.95 Q282.35 185.25 284.4 186.3 286.3 187.2 286.2 188.35 286.1 189.4 284.05 190.15 281.95 190.85 278.8 190.8" fill="#ffffe1" fill-rule="evenodd" stroke="none"/>
    <path d="M276.0 186.5 L279.0 186.3 Q280.65 186.45 281.75 186.95 282.8 187.4 282.75 187.95 282.7 188.55 281.6 188.9 L278.85 189.15 275.95 188.65 Q274.7 188.1 274.7 187.5 274.7 186.85 276.0 186.5 M278.8 190.8 Q281.95 190.85 284.05 190.15 286.1 189.4 286.2 188.35 286.3 187.2 284.4 186.3 282.35 185.25 279.1 184.95 L272.9 185.3 Q270.05 186.05 270.1 187.4 270.1 188.75 272.9 189.8 275.45 190.7 278.8 190.8 M269.9 195.3 L263.2 194.1 260.95 193.65 Q251.8 191.65 241.7 188.3 L241.0 188.1 239.0 187.4 Q239.4 185.95 240.25 184.65 242.6 181.15 248.2 178.65 261.65 175.15 275.55 176.55 297.9 181.1 300.8 186.3 301.9 188.15 300.45 191.4 295.1 197.15 284.45 196.65 L272.15 195.6 269.9 195.3 M284.45 192.65 L276.65 193.15 Q280.2 194.7 284.25 194.35 L284.35 194.35 Q287.75 193.75 289.5 190.9 L284.45 192.65 M284.8 182.25 Q277.5 178.4 268.65 177.85 256.4 179.35 250.55 184.1 264.1 177.4 284.8 182.25" fill="url(#gradient2)" fill-rule="evenodd" stroke="none"/>
    <path d="M259.1 195.25 L269.55 197.0 275.8 207.0 Q273.65 206.95 269.6 206.0 L263.1 204.7 259.1 195.25" fill="#f7e086" fill-rule="evenodd" stroke="none"/>
    <path d="M236.0 187.9 Q237.7 189.55 238.55 190.0 L241.6 191.0 Q250.85 193.6 259.1 195.25 L263.1 204.7 Q259.4 204.25 250.15 200.9 L239.7 197.2 Q239.7 194.6 238.85 192.85 L235.9 187.95 236.0 187.9" fill="url(#gradient3)" fill-rule="evenodd" stroke="none"/>
    <path d="M269.55 197.0 L285.7 198.2 Q296.35 199.35 302.9 192.05 L302.9 192.3 301.45 198.4 Q295.7 206.2 283.5 207.1 L275.8 207.0 269.55 197.0" fill="#fcf3ba" fill-rule="evenodd" stroke="none"/>
    <path d="M284.8 182.25 Q264.1 177.4 250.55 184.1 256.4 179.35 268.65 177.85 277.5 178.4 284.8 182.25 M284.45 192.65 L289.5 190.9 Q287.75 193.75 284.35 194.35 L284.25 194.35 Q280.2 194.7 276.65 193.15 L284.45 192.65" fill="#ed2323" fill-rule="evenodd" stroke="none"/>
    <path d="M302.9 192.05 L303.2 190.95 303.55 187.8 303.5 186.35 Q303.05 183.3 294.15 179.95 286.8 177.15 276.0 174.95 L265.95 174.4 255.95 174.95 Q249.45 175.6 243.25 177.15 241.0 178.0 238.5 182.0 236.0 185.95 236.0 187.9 237.7 189.55 238.55 190.0 L241.6 191.0 Q250.85 193.6 259.1 195.25 L269.55 197.0 285.7 198.2 Q296.35 199.35 302.9 192.05 L302.95 192.05 302.9 192.3 301.45 198.4 Q295.7 206.2 283.5 207.1 L275.8 207.0 Q273.65 206.95 269.6 206.0 L263.1 204.7 Q259.4 204.25 250.15 200.9 L239.7 197.2 Q239.7 194.6 238.85 192.85 L235.9 187.95 235.85 187.85 236.0 187.9 235.9 187.95 M276.0 186.5 Q274.7 186.85 274.7 187.5 274.7 188.1 275.95 188.65 L278.85 189.15 281.6 188.9 Q282.7 188.55 282.75 187.95 282.8 187.4 281.75 186.95 280.65 186.45 279.0 186.3 L276.0 186.5 M278.8 190.8 Q281.95 190.85 284.05 190.15 286.1 189.4 286.2 188.35 286.3 187.2 284.4 186.3 282.35 185.25 279.1 184.95 L272.9 185.3 Q270.05 186.05 270.1 187.4 270.1 188.75 272.9 189.8 275.45 190.7 278.8 190.8 M269.9 195.3 L263.2 194.1 260.95 193.65 Q251.8 191.65 241.7 188.3 L241.0 188.1 239.0 187.4 Q239.4 185.95 240.25 184.65 242.6 181.15 248.2 178.65 261.65 175.15 275.55 176.55 297.9 181.1 300.8 186.3 301.9 188.15 300.45 191.4 295.1 197.15 284.45 196.65 L272.15 195.6 269.9 195.3 M302.9 192.3 L302.9 192.05" ffdec:has-small-stroke="true" ffdec:original-stroke-width="0.05" fill="none" stroke="#0d2608" stroke-linecap="round" stroke-linejoin="round" stroke-opacity="0.4" stroke-width="1.0"/>
    <path d="M253.7 142.85 L253.7 238.8 Q238.3 237.9 221.8 232.75 L221.8 135.8 Q237.1 141.6 253.7 142.85" fill="#ffffff" fill-opacity="0.42352942" fill-rule="evenodd" stroke="none"/>
    <path d="M308.4 136.8 Q304.55 183.15 308.4 228.75 301.9 232.45 293.2 235.0 L293.2 143.9 Q301.2 141.65 308.4 136.8" fill="#000000" fill-opacity="0.43137255" fill-rule="evenodd" stroke="none"/>
  </g>
  <defs>
    <linearGradient gradientTransform="matrix(-0.0133, -0.0111, 0.0077, -0.0093, 238.2, 175.45)" gradientUnits="userSpaceOnUse" id="gradient0" spreadMethod="pad" x1="-819.2" x2="819.2">
      <stop offset="0.0" stop-color="#a4760f"/>
      <stop offset="1.0" stop-color="#ffffff"/>
    </linearGradient>
    <linearGradient gradientTransform="matrix(-0.0133, -0.0111, 0.0077, -0.0093, 242.6, 176.9)" gradientUnits="userSpaceOnUse" id="gradient1" spreadMethod="pad" x1="-819.2" x2="819.2">
      <stop offset="0.0" stop-color="#f3ce73"/>
      <stop offset="1.0" stop-color="#ffffff"/>
    </linearGradient>
    <linearGradient gradientTransform="matrix(0.0379, 0.0, 0.0, 0.0125, 270.05, 186.4)" gradientUnits="userSpaceOnUse" id="gradient2" spreadMethod="pad" x1="-819.2" x2="819.2">
      <stop offset="0.0" stop-color="#8c0d0d"/>
      <stop offset="1.0" stop-color="#ee1611"/>
      <stop offset="1.0" stop-color="#836753"/>
    </linearGradient>
    <linearGradient gradientTransform="matrix(0.0182, 0.0, 0.0, 0.0112, 241.0, 197.75)" gradientUnits="userSpaceOnUse" id="gradient3" spreadMethod="pad" x1="-819.2" x2="819.2">
      <stop offset="0.0" stop-color="#f2ca77"/>
      <stop offset="1.0" stop-color="#f7e086"/>
      <stop offset="1.0" stop-color="#836753"/>
    </linearGradient>
  </defs>
</svg>
