<?xml version="1.0" encoding="UTF-8" standalone="no"?>
<svg xmlns:ffdec="https://www.free-decompiler.com/flash" xmlns:xlink="http://www.w3.org/1999/xlink" ffdec:objectType="shape" height="118.4px" width="95.45px" xmlns="http://www.w3.org/2000/svg">
  <g transform="matrix(1.0, 0.0, 0.0, 1.0, -227.25, -140.75)">
    <path d="M245.0 142.7 L247.4 142.35 252.25 141.8 Q276.45 140.3 246.5 150.25 246.5 145.25 231.05 146.15 238.05 143.9 245.0 142.7 M273.75 151.75 L271.1 151.55 Q269.2 149.95 272.1 149.4 271.3 150.75 273.75 151.75 M260.2 187.3 Q257.9 189.6 257.05 191.8 257.9 189.6 260.2 187.3 259.25 188.3 257.05 191.8 L254.6 192.5 Q252.2 196.55 257.15 200.95 L254.35 199.8 Q248.1 191.0 258.2 182.6 265.7 172.1 280.65 176.8 L275.5 177.9 275.5 180.55 Q270.65 182.05 267.3 185.1 263.2 185.25 261.6 185.85 260.5 186.2 260.45 187.05 L260.2 187.3 M275.5 180.55 Q272.9 180.65 272.2 179.0 265.2 179.2 261.6 185.85 265.2 179.2 272.2 179.0 272.9 180.65 275.5 180.55 M291.75 172.15 L296.65 171.85 Q302.75 172.3 301.6 178.2 303.85 187.15 301.8 193.85 L299.75 190.7 Q303.05 186.9 299.75 178.3 299.1 176.8 294.9 178.3 298.25 176.5 294.9 174.0 292.2 173.9 288.15 175.15 290.65 174.0 291.75 172.15 M300.5 157.15 Q304.65 155.2 307.85 151.15 307.2 147.9 304.0 145.5 308.95 147.65 312.4 150.75 307.25 155.0 300.5 157.15 M257.6 243.75 L259.25 243.75 Q256.35 247.95 255.05 251.15 L255.0 251.15 257.6 243.75 M252.8 251.15 L252.2 251.05 252.0 251.15 249.9 251.15 250.5 250.1 254.85 242.7 253.05 251.15 252.8 251.15" fill="#000000" fill-rule="evenodd" stroke="none"/>
    <path d="M227.45 148.9 Q228.1 147.4 231.05 146.15 234.55 144.6 241.15 143.35 L245.0 142.7 Q238.05 143.9 231.05 146.15 246.5 145.25 246.5 150.25 276.45 140.3 252.25 141.8 L274.75 140.75 277.75 140.8 291.55 141.4 297.95 141.85 308.35 143.35 Q322.25 146.0 322.25 149.75 L322.25 149.8 Q322.15 153.5 309.25 157.8 296.35 162.1 276.75 162.25 257.15 162.4 243.05 158.15 L237.45 156.3 Q231.35 154.1 228.95 152.25 L227.5 150.75 227.45 150.65 227.45 148.9 M276.1 145.6 Q264.75 145.6 256.75 147.35 248.75 149.1 248.75 151.6 248.75 154.1 256.75 155.85 264.75 157.6 276.1 157.6 287.45 157.6 295.45 155.85 303.45 154.1 303.45 151.6 303.45 149.1 295.45 147.35 287.45 145.6 276.1 145.6 M300.5 157.15 Q307.25 155.0 312.4 150.75 308.95 147.65 304.0 145.5 307.2 147.9 307.85 151.15 304.65 155.2 300.5 157.15" fill="#333333" fill-rule="evenodd" stroke="none"/>
    <path d="M322.25 149.8 L321.75 153.45 Q318.15 156.65 312.5 159.9 308.5 162.95 303.5 165.0 294.9 167.3 284.25 167.95 278.55 167.0 276.75 162.25 296.35 162.1 309.25 157.8 322.15 153.5 322.25 149.8 M227.45 157.25 Q228.45 152.8 227.5 150.75 L228.95 152.25 Q229.65 156.45 233.0 158.0 231.55 155.75 237.45 156.3 247.65 162.1 259.1 164.9 271.9 167.2 284.25 167.95 L280.65 168.1 Q253.2 169.05 227.45 157.25 M275.6 149.3 L278.8 149.6 Q280.65 150.0 280.65 150.5 280.65 151.0 278.8 151.35 L275.6 151.75 274.45 151.75 273.75 151.75 Q271.3 150.75 272.1 149.4 269.2 149.95 271.1 151.55 L270.05 151.35 Q268.25 151.0 268.25 150.5 268.25 150.0 270.05 149.6 L272.1 149.35 274.45 149.25 275.6 149.3 M272.1 149.35 L272.1 149.4 272.1 149.35 272.1 149.4 272.1 149.35" fill="#cccccc" fill-rule="evenodd" stroke="none"/>
    <path d="M321.75 153.45 Q322.25 154.3 322.25 156.25 314.7 162.05 303.5 165.0 308.5 162.95 312.5 159.9 318.15 156.65 321.75 153.45 M283.5 258.65 Q276.65 259.65 269.5 258.65 260.65 258.1 251.8 256.05 232.0 253.1 227.45 247.25 239.65 253.15 251.8 256.05 L263.25 257.4 263.35 257.4 263.4 257.4 269.5 258.65 277.8 258.75 283.5 258.65 M228.95 152.25 Q231.35 154.1 237.45 156.3 L243.05 158.15 Q257.15 162.4 276.75 162.25 278.55 167.0 284.25 167.95 271.9 167.2 259.1 164.9 247.65 162.1 237.45 156.3 231.55 155.75 233.0 158.0 229.65 156.45 228.95 152.25 M263.8 151.95 Q268.55 153.5 274.7 154.05 282.65 154.95 290.75 153.8 282.2 155.3 273.25 155.3 268.15 154.15 263.8 151.95" fill="#999999" fill-rule="evenodd" stroke="none"/>
    <path d="M276.1 145.6 Q287.45 145.6 295.45 147.35 303.45 149.1 303.45 151.6 303.45 154.1 295.45 155.85 287.45 157.6 276.1 157.6 264.75 157.6 256.75 155.85 248.75 154.1 248.75 151.6 248.75 149.1 256.75 147.35 264.75 145.6 276.1 145.6 M275.6 151.75 L276.7 151.75 281.05 151.35 Q282.9 151.0 282.9 150.5 282.9 150.0 281.05 149.6 L276.7 149.25 275.6 149.3 274.45 149.25 272.1 149.35 270.05 149.6 Q268.25 150.0 268.25 150.5 268.25 151.0 270.05 151.35 L271.1 151.55 273.75 151.75 274.45 151.75 275.6 151.75 M263.8 151.95 Q268.15 154.15 273.25 155.3 282.2 155.3 290.75 153.8 282.65 154.95 274.7 154.05 268.55 153.5 263.8 151.95 L261.25 150.95 263.8 151.95" fill="#666666" fill-rule="evenodd" stroke="none"/>
    <path d="M263.35 257.4 L263.3 257.35 263.4 257.4 263.35 257.4" fill="#990000" fill-rule="evenodd" stroke="none"/>
    <path d="M232.1 169.55 Q230.1 168.05 231.85 162.8 248.3 168.4 267.15 172.3 236.25 166.8 232.1 169.55 M260.2 187.3 L260.45 187.05 Q260.5 186.2 261.6 185.85 263.2 185.25 267.3 185.1 270.65 182.05 275.5 180.55 274.55 182.7 274.65 184.6 L271.5 185.0 Q269.55 186.35 264.5 187.5 261.75 188.35 261.85 190.2 259.55 194.6 257.05 191.8 259.25 188.3 260.2 187.3 M289.75 171.85 L274.3 172.8 317.75 165.8 Q320.75 179.45 319.8 192.0 L318.5 186.8 317.1 181.6 Q315.95 176.25 315.85 170.2 302.8 169.6 289.75 171.85 M291.45 190.9 L290.55 193.6 Q288.05 201.0 276.8 211.85 278.1 217.15 271.05 219.05 274.25 214.7 274.25 213.45 277.15 210.2 279.0 205.3 284.0 201.85 287.35 196.25 288.7 193.95 291.45 190.9 M313.75 246.55 Q311.95 247.3 309.95 249.05 L306.75 249.9 Q301.2 251.4 295.45 253.6 312.75 244.9 318.35 225.1 L319.4 222.8 319.6 231.9 Q319.5 240.4 316.35 240.55 315.85 244.25 313.75 246.55 M252.2 251.05 L252.7 251.35 263.25 257.35 Q246.5 254.0 230.2 246.05 229.25 227.55 230.2 207.55 230.7 218.3 234.75 228.05 L234.8 228.35 234.75 228.05 234.9 228.35 234.8 228.35 Q234.1 235.2 236.1 242.05 242.4 247.15 249.25 249.4 L250.5 250.1 249.9 251.15 252.0 251.15 252.2 251.05" fill="#993333" fill-rule="evenodd" stroke="none"/>
    <path d="M296.65 171.75 L291.75 171.8 289.75 171.85 Q302.8 169.6 315.85 170.2 315.95 176.25 317.1 181.6 L314.55 173.25 Q306.9 171.85 296.65 171.75 M314.1 178.7 Q315.0 184.65 316.55 189.6 314.45 184.0 311.6 178.7 313.35 179.65 314.1 178.7 M319.6 231.9 L319.9 247.1 Q317.2 245.05 313.75 246.55 315.85 244.25 316.35 240.55 319.5 240.4 319.6 231.9 M249.25 249.4 Q242.4 247.15 236.1 242.05 234.1 235.2 234.8 228.35 L234.9 228.35 Q236.15 233.35 239.65 238.6 243.15 243.8 249.25 249.4" fill="#ffffcc" fill-rule="evenodd" stroke="none"/>
    <path d="M275.5 180.55 Q282.1 181.05 292.3 179.1 278.95 182.05 292.75 186.4 275.4 185.8 275.15 195.6 271.15 200.1 271.5 206.4 263.3 191.3 256.55 195.2 256.3 193.55 257.05 191.8 259.55 194.6 261.85 190.2 261.75 188.35 264.5 187.5 269.55 186.35 271.5 185.0 L274.65 184.6 Q274.55 182.7 275.5 180.55 M291.45 190.9 Q296.6 175.35 298.55 179.8 L298.55 182.2 Q295.7 186.25 298.55 195.0 285.25 197.95 283.45 209.7 282.1 209.65 276.55 217.05 268.8 222.8 264.4 233.75 269.45 220.05 268.3 219.9 268.95 219.6 271.05 219.05 278.1 217.15 276.8 211.85 288.05 201.0 290.55 193.6 L291.45 190.9 M263.05 227.65 Q260.55 232.75 260.9 237.85 255.75 235.55 251.95 240.85 248.0 237.65 251.95 234.45 L263.05 227.65" fill="#660000" fill-rule="evenodd" stroke="none"/>
    <path d="M275.5 180.55 L275.5 177.9 280.65 176.8 283.9 176.4 284.2 176.35 285.55 176.05 288.15 175.15 Q292.2 173.9 294.9 174.0 298.25 176.5 294.9 178.3 299.1 176.8 299.75 178.3 303.05 186.9 299.75 190.7 L301.8 193.85 Q300.65 197.45 298.25 200.4 293.6 202.2 283.45 209.7 285.25 197.95 298.55 195.0 295.7 186.25 298.55 182.2 L298.55 179.8 Q296.6 175.35 291.45 190.9 288.7 193.95 287.35 196.25 284.0 201.85 279.0 205.3 277.15 210.2 274.25 213.45 274.25 214.7 271.05 219.05 268.95 219.6 268.3 219.9 269.45 220.05 264.4 233.75 L264.05 234.7 263.95 234.9 263.6 235.9 261.85 240.85 Q261.1 243.35 259.25 243.75 L257.6 243.75 256.45 243.45 254.85 242.7 Q253.5 242.0 251.95 240.85 255.75 235.55 260.9 237.85 260.55 232.75 263.05 227.65 L265.6 219.95 265.95 218.85 Q271.35 207.4 257.15 200.95 252.2 196.55 254.6 192.5 L257.05 191.8 Q256.3 193.55 256.55 195.2 263.3 191.3 271.5 206.4 271.15 200.1 275.15 195.6 275.4 185.8 292.75 186.4 278.95 182.05 292.3 179.1 282.1 181.05 275.5 180.55" fill="#330000" fill-rule="evenodd" stroke="none"/>
    <path d="M254.85 242.7 L256.45 243.45 253.55 251.15 253.05 251.15 254.85 242.7" fill="#996633" fill-rule="evenodd" stroke="none"/>
    <path d="M296.65 171.85 L291.75 172.15 291.75 171.8 296.65 171.75 296.65 171.85 M263.35 257.4 L263.25 257.4 263.25 257.35 263.3 257.35 263.35 257.4 M252.7 251.35 L252.2 251.05 252.8 251.15 252.7 251.35" fill="#996600" fill-rule="evenodd" stroke="none"/>
    <path d="M322.25 156.25 Q319.85 204.4 322.25 248.75 313.5 253.35 304.2 255.7 295.2 257.65 283.75 258.6 L283.5 258.65 277.8 258.75 269.5 258.65 263.4 257.4 263.3 257.35 263.25 257.35 263.25 257.4 251.8 256.05 Q239.65 253.15 227.45 247.25 230.3 202.25 227.45 157.25 253.2 169.05 280.65 168.1 L284.25 167.95 Q294.9 167.3 303.5 165.0 314.7 162.05 322.25 156.25 M232.1 169.55 Q236.25 166.8 267.15 172.3 248.3 168.4 231.85 162.8 230.1 168.05 232.1 169.55 M280.65 176.8 Q265.7 172.1 258.2 182.6 248.1 191.0 254.35 199.8 L257.15 200.95 Q271.35 207.4 265.95 218.85 L265.6 219.95 263.05 227.65 251.95 234.45 Q248.0 237.65 251.95 240.85 253.5 242.0 254.85 242.7 L250.5 250.1 249.25 249.4 Q243.15 243.8 239.65 238.6 236.15 233.35 234.9 228.35 L234.75 228.05 Q230.7 218.3 230.2 207.55 229.25 227.55 230.2 246.05 246.5 254.0 263.25 257.35 L252.7 251.35 252.8 251.15 253.05 251.15 253.55 251.15 256.45 243.45 257.6 243.75 255.0 251.15 255.05 251.15 Q256.35 247.95 259.25 243.75 261.1 243.35 261.85 240.85 L263.6 235.9 263.95 234.9 264.05 234.7 264.4 233.75 Q268.8 222.8 276.55 217.05 282.1 209.65 283.45 209.7 293.6 202.2 298.25 200.4 300.65 197.45 301.8 193.85 303.85 187.15 301.6 178.2 302.75 172.3 296.65 171.85 L296.65 171.75 Q306.9 171.85 314.55 173.25 L317.1 181.6 318.5 186.8 319.8 192.0 Q320.75 179.45 317.75 165.8 L274.3 172.8 289.75 171.85 291.75 171.8 291.75 172.15 Q290.65 174.0 288.15 175.15 L285.55 176.05 284.2 176.35 283.9 176.4 280.65 176.8 M314.1 178.7 Q313.35 179.65 311.6 178.7 314.45 184.0 316.55 189.6 315.0 184.65 314.1 178.7 M313.75 246.55 Q317.2 245.05 319.9 247.1 L319.6 231.9 319.4 222.8 318.35 225.1 Q312.75 244.9 295.45 253.6 301.2 251.4 306.75 249.9 L309.95 249.05 Q311.95 247.3 313.75 246.55" fill="#ffff99" fill-rule="evenodd" stroke="none"/>
    <path d="M245.0 142.7 L247.4 142.35 252.25 141.8 Q276.45 140.3 246.5 150.25 246.5 145.25 231.05 146.15 238.05 143.9 245.0 142.7 M273.75 151.75 L271.1 151.55 Q269.2 149.95 272.1 149.4 271.3 150.75 273.75 151.75 M272.1 149.35 L272.1 149.4 272.1 149.35 M263.8 151.95 Q268.55 153.5 274.7 154.05 282.65 154.95 290.75 153.8 282.2 155.3 273.25 155.3 268.15 154.15 263.8 151.95 L261.25 150.95 M300.5 157.15 Q307.25 155.0 312.4 150.75 308.95 147.65 304.0 145.5 307.2 147.9 307.85 151.15 304.65 155.2 300.5 157.15 M263.35 257.4 L263.3 257.35 263.25 257.35 M263.3 257.35 L263.4 257.4 M234.8 228.35 L234.75 228.05" ffdec:has-small-stroke="true" ffdec:original-stroke-width="0.05" fill="none" stroke="#000000" stroke-linecap="round" stroke-linejoin="round" stroke-width="1.0"/>
    <path d="M227.45 148.9 Q228.1 147.4 231.05 146.15 234.55 144.6 241.15 143.35 L245.0 142.7 M252.25 141.8 L274.75 140.75 277.75 140.8 291.55 141.4 297.95 141.85 308.35 143.35 Q322.25 146.0 322.25 149.75 L322.25 149.8 321.75 153.45 Q322.25 154.3 322.25 156.25 319.85 204.4 322.25 248.75 315.05 253.25 304.2 255.7 294.15 258.15 283.5 258.65 276.65 259.65 269.5 258.65 260.65 258.1 251.8 256.05 232.0 253.1 227.45 247.25 230.3 202.25 227.45 157.25 228.45 152.8 227.5 150.75 L227.45 150.65 227.25 149.75 227.45 148.9 227.45 150.65 M228.95 152.25 L227.5 150.75 M228.95 152.25 Q231.35 154.1 237.45 156.3 L243.05 158.15 Q257.15 162.4 276.75 162.25 296.35 162.1 309.25 157.8 322.15 153.5 322.25 149.8 M303.5 165.0 Q314.7 162.05 322.25 156.25 M284.25 167.95 Q294.9 167.3 303.5 165.0 M284.25 167.95 L280.65 168.1 Q253.2 169.05 227.45 157.25 M263.4 257.4 L269.5 258.65 277.8 258.75 283.5 258.65 283.75 258.6 Q295.2 257.65 304.2 255.7 313.5 253.35 322.25 248.75 M263.25 257.4 L263.35 257.4 263.4 257.4 M263.25 257.4 L251.8 256.05 Q239.65 253.15 227.45 247.25" ffdec:has-small-stroke="true" ffdec:original-stroke-width="0.05" fill="none" stroke="#000000" stroke-linecap="round" stroke-linejoin="round" stroke-width="1.0"/>
    <path d="M317.1 181.6 L314.55 173.25" ffdec:has-small-stroke="true" ffdec:original-stroke-width="0.05" fill="none" stroke="#d4d0c8" stroke-linecap="round" stroke-linejoin="round" stroke-width="1.0"/>
    <path d="M257.05 191.8 Q257.9 189.6 260.2 187.3 L260.45 187.05 Q260.5 186.2 261.6 185.85 265.2 179.2 272.2 179.0 272.9 180.65 275.5 180.55 L275.5 177.9 280.65 176.8 Q265.7 172.1 258.2 182.6 248.1 191.0 254.35 199.8 L257.15 200.95 Q252.2 196.55 254.6 192.5 L257.05 191.8 Q259.25 188.3 260.2 187.3 M257.05 191.8 Q256.3 193.55 256.55 195.2 263.3 191.3 271.5 206.4 271.15 200.1 275.15 195.6 275.4 185.8 292.75 186.4 278.95 182.05 292.3 179.1 282.1 181.05 275.5 180.55 274.55 182.7 274.65 184.6 L271.5 185.0 Q269.55 186.35 264.5 187.5 261.75 188.35 261.85 190.2 259.55 194.6 257.05 191.8 M275.5 180.55 Q270.65 182.05 267.3 185.1 263.2 185.25 261.6 185.85 M296.65 171.85 L291.75 172.15 Q290.65 174.0 288.15 175.15 292.2 173.9 294.9 174.0 298.25 176.5 294.9 178.3 299.1 176.8 299.75 178.3 303.05 186.9 299.75 190.7 L301.8 193.85 Q303.85 187.15 301.6 178.2 302.75 172.3 296.65 171.85 M291.45 190.9 Q296.6 175.35 298.55 179.8 L298.55 182.2 Q295.7 186.25 298.55 195.0 285.25 197.95 283.45 209.7 293.6 202.2 298.25 200.4 300.65 197.45 301.8 193.85 M288.15 175.15 L285.55 176.05 284.2 176.35 283.9 176.4 280.65 176.8 M271.05 219.05 Q278.1 217.15 276.8 211.85 288.05 201.0 290.55 193.6 L291.45 190.9 Q288.7 193.95 287.35 196.25 284.0 201.85 279.0 205.3 277.15 210.2 274.25 213.45 274.25 214.7 271.05 219.05 268.95 219.6 268.3 219.9 269.45 220.05 264.4 233.75 268.8 222.8 276.55 217.05 282.1 209.65 283.45 209.7 M257.15 200.95 Q271.35 207.4 265.95 218.85 L265.6 219.95 263.05 227.65 Q260.55 232.75 260.9 237.85 255.75 235.55 251.95 240.85 253.5 242.0 254.85 242.7 L256.45 243.45 257.6 243.75 259.25 243.75 Q261.1 243.35 261.85 240.85 L263.6 235.9 263.95 234.9 264.05 234.7 264.4 233.75 M263.05 227.65 L251.95 234.45 Q248.0 237.65 251.95 240.85 M255.0 251.15 L257.6 243.75 M252.8 251.15 L252.2 251.05 252.0 251.15 M249.9 251.15 L250.5 250.1 254.85 242.7 253.05 251.15 M256.45 243.45 L253.55 251.15 M259.25 243.75 Q256.35 247.95 255.05 251.15" ffdec:has-small-stroke="true" ffdec:original-stroke-width="0.05" fill="none" stroke="#000000" stroke-linecap="round" stroke-linejoin="round" stroke-opacity="0.4" stroke-width="1.0"/>
    <path d="M268.0 162.6 L268.0 258.55 Q252.6 257.65 236.1 252.5 L236.1 155.55 Q251.4 161.35 268.0 162.6" fill="#ffffff" fill-opacity="0.42352942" fill-rule="evenodd" stroke="none"/>
    <path d="M322.7 156.55 Q318.85 202.9 322.7 248.5 316.2 252.2 307.5 254.75 L307.5 163.65 Q315.5 161.4 322.7 156.55" fill="#000000" fill-opacity="0.43137255" fill-rule="evenodd" stroke="none"/>
  </g>
</svg>
