<?xml version="1.0" encoding="UTF-8" standalone="no"?>
<svg xmlns:ffdec="https://www.free-decompiler.com/flash" xmlns:xlink="http://www.w3.org/1999/xlink" ffdec:objectType="shape" height="189.85px" width="142.5px" xmlns="http://www.w3.org/2000/svg">
  <g transform="matrix(1.0, 0.0, 0.0, 1.0, -177.1, -92.85)">
    <path d="M210.1 147.85 L222.6 127.15 219.85 127.15 215.95 135.0 214.2 137.5 215.1 136.7 209.5 147.9 206.6 139.9 214.6 124.65 227.6 118.65 227.6 136.15 210.1 147.85 M206.6 153.65 L219.1 144.9 224.1 142.15 238.6 142.15 232.1 159.15 221.3 159.15 216.6 153.65 228.45 149.8 233.35 148.9 233.35 146.4 231.35 146.4 206.6 153.65 216.6 153.65 220.6 165.1 216.1 166.55 216.1 166.15 214.15 167.15 227.85 186.65 235.6 214.15 244.1 162.15 237.7 215.05 237.65 215.45 237.65 215.4 249.85 198.15 239.35 216.35 242.35 217.9 236.7 220.9 237.65 215.45 236.15 217.5 235.6 214.15 233.85 223.1 236.7 221.0 228.6 267.75 221.1 282.7 225.6 264.25 Q229.7 263.2 233.85 223.1 L233.1 219.45 233.1 216.95 228.6 207.2 232.85 211.15 231.8 205.9 227.85 186.65 212.4 168.4 212.2 168.15 210.25 169.15 200.6 174.15 200.6 166.15 182.1 166.15 177.1 144.9 190.35 144.9 200.6 155.65 184.05 148.15 181.05 148.15 184.8 151.4 200.6 155.65 195.05 161.15 197.8 163.65 200.6 166.15 198.55 158.65 210.25 169.15 211.05 157.15 206.6 153.65 M180.1 134.15 L189.1 118.15 206.6 126.15 206.6 130.4 203.6 154.65 201.05 138.65 194.05 126.65 191.3 123.9 191.3 126.9 191.3 137.4 201.2 152.55 180.1 134.15 M200.6 155.65 L191.3 155.65 187.3 160.9 200.6 155.65 M197.8 163.65 L182.1 166.15 197.8 163.65 M292.95 167.3 L306.1 161.15 319.6 170.4 319.55 170.5 312.6 182.9 302.7 187.5 312.65 188.55 315.6 188.55 312.65 189.85 305.4 191.95 308.1 196.4 294.6 202.9 288.3 199.65 288.3 199.7 286.0 203.45 276.1 207.4 271.85 201.65 269.35 207.9 258.6 195.4 261.35 190.4 268.85 189.65 261.85 184.4 269.85 162.65 274.85 168.15 285.6 160.65 295.1 153.4 283.85 183.9 280.15 185.3 277.15 186.45 296.75 184.35 290.8 181.2 307.35 178.15 297.6 178.15 307.35 178.15 290.8 181.2 290.85 180.9 290.9 180.9 297.6 178.15 304.35 175.4 310.85 172.15 304.35 172.15 292.0 173.55 292.95 167.3 M276.35 187.85 L277.15 186.45 276.35 187.85 274.2 187.6 273.6 173.9 269.6 169.9 269.6 172.65 268.1 183.4 274.2 187.6 268.85 189.65 269.65 190.4 274.85 190.4 276.2 188.05 297.6 193.15 297.6 190.65 276.35 187.85 M261.35 190.4 L269.65 190.4 261.35 190.4 268.35 200.65 268.35 198.4 261.35 190.4 M271.65 194.35 L273.2 194.95 274.35 195.45 273.1 198.55 283.1 201.65 283.1 198.9 279.3 194.2 266.3 192.3 271.65 194.35 M280.15 185.3 L287.35 164.65 284.35 167.15 280.15 185.3 M233.1 216.95 L232.85 211.15 233.1 216.95" fill="#006666" fill-rule="evenodd" stroke="none"/>
    <path d="M209.5 147.9 L215.1 136.7 214.2 137.5 215.95 135.0 219.85 127.15 222.6 127.15 210.1 147.85 209.2 148.45 210.1 147.85 206.6 153.65 231.35 146.4 233.35 146.4 233.35 148.9 228.45 149.8 206.6 153.65 209.2 148.45 209.5 147.9 M191.3 126.9 L191.3 123.9 194.05 126.65 203.6 154.65 191.3 126.9 M200.6 155.65 L184.8 151.4 181.05 148.15 184.05 148.15 200.6 155.65 M203.6 158.4 L203.6 154.65 207.6 157.4 210.25 169.15 203.6 158.4 M244.1 162.15 L247.35 159.15 237.7 215.05 244.1 162.15 M236.7 220.9 L236.7 221.0 233.85 223.1 235.6 214.15 236.15 217.5 236.7 220.9 M304.35 172.15 L310.85 172.15 304.35 175.4 297.6 178.15 290.9 180.9 304.35 172.15 M276.35 187.85 L297.6 190.65 297.6 193.15 276.2 188.05 276.35 187.85 276.2 188.05 274.2 187.6 269.6 172.65 269.6 169.9 273.6 173.9 274.2 187.6 276.35 187.85 M261.35 190.4 L268.35 198.4 268.35 200.65 261.35 190.4 M274.45 195.45 L283.1 198.9 283.1 201.65 274.45 195.45 M280.15 185.3 L284.35 167.15 287.35 164.65 280.15 185.3" fill="#006633" fill-rule="evenodd" stroke="none"/>
    <path d="M210.1 147.85 L227.6 136.15 219.1 144.9 206.6 153.65 210.1 147.85 M206.6 139.9 L209.5 147.9 209.2 148.45 206.6 153.65 228.45 149.8 216.6 153.65 221.3 159.15 225.1 163.65 220.6 165.1 216.6 153.65 206.6 153.65 211.05 157.15 210.25 169.15 198.55 158.65 200.6 166.15 197.8 163.65 195.05 161.15 200.6 155.65 187.3 160.9 191.3 155.65 200.6 155.65 190.35 144.9 180.1 134.15 201.2 152.55 191.3 137.4 191.3 126.9 203.6 154.65 194.05 126.65 201.05 138.65 203.6 154.65 206.6 130.4 206.6 139.9 M203.6 158.4 L198.55 158.65 203.6 158.4 210.25 169.15 207.6 157.4 203.6 154.65 203.6 158.4 M201.2 152.55 L203.6 154.65 201.2 152.55 M211.05 157.15 L207.6 157.4 211.05 157.15 M228.6 267.75 L228.6 276.45 221.1 282.7 228.6 267.75 M206.6 150.2 L209.2 148.45 206.6 150.2 M295.1 153.4 L292.95 167.3 292.0 173.55 304.35 172.15 290.9 180.9 290.85 180.9 290.8 181.2 296.75 184.35 277.15 186.45 280.15 185.3 283.85 183.9 295.1 153.4 M276.2 188.05 L274.85 190.4 269.65 190.4 268.85 189.65 274.2 187.6 276.2 188.05 M269.6 172.65 L274.2 187.6 268.1 183.4 269.6 172.65 M271.65 194.35 L271.65 194.2 279.3 194.2 283.1 198.9 274.45 195.45 274.35 195.4 273.2 194.95 271.65 194.35 M274.35 195.45 L274.45 195.45 283.1 201.65 273.1 198.55 274.35 195.45" fill="#003000" fill-rule="evenodd" stroke="none"/>
    <path d="M210.1 147.85 L227.6 136.15 M206.6 139.9 L209.5 147.9 M209.2 148.45 L210.1 147.85 M180.1 134.15 L201.2 152.55 203.6 154.65 206.6 130.4 M198.55 158.65 L203.6 158.4 M200.6 155.65 L195.05 161.15 197.8 163.65 200.6 166.15 M200.6 155.65 L187.3 160.9 191.3 155.65 200.6 155.65 M206.6 153.65 L211.05 157.15 210.25 169.15 198.55 158.65 M207.6 157.4 L211.05 157.15 M209.2 148.45 L206.6 150.2" fill="none" stroke="#003300" stroke-linecap="round" stroke-linejoin="round" stroke-width="1.0"/>
    <path d="M206.6 153.65 L219.1 144.9 M201.2 152.55 L191.3 137.4 191.3 126.9 M194.05 126.65 L201.05 138.65 203.6 154.65 M228.45 149.8 L216.6 153.65 220.6 165.1 M182.1 166.15 L197.8 163.65 M292.0 173.55 L304.35 172.15 M297.6 178.15 L307.35 178.15 290.8 181.2 M296.75 184.35 L277.15 186.45 276.35 187.85 276.2 188.05 274.85 190.4 269.65 190.4 261.35 190.4 M269.6 172.65 L268.1 183.4 274.2 187.6 M283.1 198.9 L279.3 194.2 M273.1 198.55 L283.1 201.65 M283.85 183.9 L295.1 153.4 M232.85 211.15 L233.1 216.95" fill="none" stroke="#003000" stroke-linecap="round" stroke-linejoin="round" stroke-width="1.0"/>
    <path d="M237.1 112.45 L256.95 106.7 Q250.95 116.3 245.1 126.0 L254.8 138.9 238.05 131.5 222.95 147.15 227.75 129.95 200.6 123.45 220.35 118.9 219.95 92.85 237.1 112.45 M231.2 167.6 L237.7 156.15 Q239.0 162.6 240.45 169.05 L250.85 171.45 240.55 176.95 241.65 185.1 236.0 177.65 225.1 180.8 231.7 174.45 221.05 164.75 231.2 167.6" fill="#ffffff" fill-opacity="0.4" fill-rule="evenodd" stroke="none"/>
    <path d="M250.85 158.15 L250.25 157.95 242.95 151.25 262.45 156.95 275.0 134.1 280.15 159.7 300.25 164.5 280.5 175.4 282.55 191.45 271.65 176.85 250.85 182.95 263.4 170.25 250.6 158.3 250.85 158.15" fill="#ffffff" fill-opacity="0.5019608" fill-rule="evenodd" stroke="none"/>
  </g>
</svg>
