<?xml version="1.0" encoding="UTF-8" standalone="no"?>
<svg xmlns:ffdec="https://www.free-decompiler.com/flash" xmlns:xlink="http://www.w3.org/1999/xlink" ffdec:objectType="shape" height="245.95px" width="180.95px" xmlns="http://www.w3.org/2000/svg">
  <g transform="matrix(1.0, 0.0, 0.0, 1.0, -182.25, -128.55)">
    <path d="M363.2 289.55 L351.2 302.55 351.2 287.55 329.2 245.1 363.2 289.55 M250.7 272.05 L240.25 264.55 223.4 241.2 238.05 252.65 250.7 272.05 M204.4 180.75 L213.25 191.55 223.95 211.2 222.65 171.85 222.65 171.55 223.15 170.4 222.0 144.1 228.4 159.9 228.4 159.95 228.45 160.05 234.6 175.1 236.1 185.7 222.65 171.85 225.25 192.55 237.05 215.65 241.15 223.65 236.35 220.15 234.7 230.9 243.4 236.65 241.7 224.65 241.6 223.95 245.6 226.8 245.2 231.55 250.05 241.0 243.4 236.65 245.4 250.55 208.5 193.85 204.4 180.75 M203.75 147.15 L201.25 135.55 211.9 153.45 203.75 147.15 M253.7 179.65 L265.55 251.2 253.6 221.9 253.6 221.8 247.25 206.25 249.45 197.2 253.7 179.65 M275.7 256.55 L276.0 244.55 272.9 214.5 279.2 245.55 275.7 256.55 M254.75 244.1 L265.55 251.2 271.2 265.1 266.7 273.55 263.7 267.65 263.2 266.7 255.1 250.9 250.05 241.0 254.75 244.1 M256.1 270.25 L263.0 267.9 261.2 279.55 256.1 270.25" fill="#00cc00" fill-rule="evenodd" stroke="none"/>
    <path d="M329.2 245.1 L351.2 287.55 351.2 302.55 323.2 233.55 329.2 245.1 M273.2 340.35 L255.25 326.55 267.2 309.95 273.2 340.35 275.9 334.65 279.15 327.65 281.7 349.55 277.45 344.95 273.2 340.35" fill="#003300" fill-rule="evenodd" stroke="none"/>
    <path d="M323.2 233.55 L281.7 349.55 279.15 327.65 323.2 233.55 277.45 312.95 275.75 298.3 323.2 233.55 M281.9 374.5 L279.95 374.5 273.2 340.35 277.45 344.95 281.9 374.5 M267.2 309.95 L261.2 279.55 263.0 267.9 256.1 270.25 250.7 272.05 238.05 252.65 216.45 219.45 208.5 193.85 245.4 250.55 256.1 270.25 255.1 250.9 263.2 266.7 263.0 267.9 263.7 267.65 266.7 273.55 275.9 334.65 273.2 340.35 267.2 309.95 M213.25 191.55 L203.75 147.15 211.9 153.45 222.65 171.55 222.55 171.8 222.65 171.85 236.1 185.7 238.8 204.45 240.9 190.65 247.25 206.25 253.6 221.8 253.6 221.9 265.55 251.2 254.75 244.1 254.2 233.0 245.6 226.8 241.6 223.95 241.55 223.6 238.8 204.45 237.05 215.65 225.25 192.55 222.65 171.85 223.95 211.2 213.25 191.55 M247.35 184.65 L250.3 159.2 253.7 179.65 249.45 197.2 247.35 184.65 M265.55 251.2 L260.4 180.35 275.7 256.55 271.2 265.1 265.55 251.2 M234.7 230.9 L236.35 220.15 241.15 223.65 241.7 224.65 243.4 236.65 234.7 230.9" fill="#006600" fill-rule="evenodd" stroke="none"/>
    <path d="M363.2 289.55 L329.2 245.1 323.2 233.55 363.2 289.55 M281.7 349.55 L284.6 374.5 281.9 374.5 277.45 344.95 281.7 349.55 M261.2 279.55 L250.7 272.05 256.1 270.25 245.4 250.55 243.4 236.65 250.05 241.0 245.2 231.55 245.6 226.8 254.2 233.0 254.75 244.1 250.05 241.0 255.1 250.9 256.1 270.25 261.2 279.55 M208.5 193.85 L182.25 153.55 204.4 180.75 208.5 193.85 M234.6 175.1 L235.25 128.55 240.9 190.65 240.3 144.2 241.05 147.15 247.35 184.65 249.45 197.2 247.25 206.25 240.9 190.65 238.8 204.45 236.1 185.7 240.9 190.65 234.6 175.1 M275.7 256.55 L272.2 267.55 275.75 298.3 277.45 312.95 323.2 233.55 279.15 327.65 275.9 334.65 266.7 273.55 271.2 265.1 275.7 256.55 M237.05 215.65 L238.8 204.45 241.55 223.6 241.15 223.65 237.05 215.65 M272.75 295.8 L272.7 295.9 272.8 295.85 272.75 295.8" fill="#009900" fill-rule="evenodd" stroke="none"/>
    <path d="M234.6 175.1 L240.9 190.65 236.1 185.7 234.6 175.1" fill="#00ff33" fill-rule="evenodd" stroke="none"/>
    <path d="M226.3 151.75 L249.05 131.55 Q247.25 148.75 245.75 166.0 L267.05 178.35 239.85 178.1 229.9 209.5 225.15 182.15 184.65 189.65 208.05 171.15 190.75 134.5 Q208.45 143.2 226.3 151.75 M254.15 233.35 L255.35 213.2 267.35 229.75 282.8 226.8 272.6 240.85 279.35 251.7 267.05 244.65 254.5 255.75 259.2 242.7 Q248.95 238.95 238.7 235.5 L254.15 233.35" fill="#ffffff" fill-opacity="0.4" fill-rule="evenodd" stroke="none"/>
    <path d="M274.2 208.0 L273.25 208.0 259.15 203.05 288.95 199.2 Q289.8 179.15 290.95 159.25 L314.35 192.3 344.3 186.75 325.0 214.25 338.1 235.7 314.1 221.7 290.25 243.0 298.85 217.45 Q286.3 212.95 274.0 208.3 L274.2 208.0" fill="#ffffff" fill-opacity="0.5019608" fill-rule="evenodd" stroke="none"/>
  </g>
</svg>
