<?xml version="1.0" encoding="UTF-8" standalone="no"?>
<svg xmlns:ffdec="https://www.free-decompiler.com/flash" xmlns:xlink="http://www.w3.org/1999/xlink" ffdec:objectType="shape" height="75.7px" width="74.85px" xmlns="http://www.w3.org/2000/svg">
  <g transform="matrix(1.0, 0.0, 0.0, 1.0, -69.65, -76.45)">
    <path d="M83.0 81.8 L83.3 82.3 83.0 81.8 85.55 81.05 85.75 81.6 85.55 81.05 87.05 80.6 87.05 80.55 87.85 80.25 81.3 87.8 Q80.75 88.35 80.45 89.05 L80.55 91.05 78.05 88.55 78.05 87.15 75.1 84.1 76.8 83.6 78.15 83.2 83.0 81.8 M78.4 83.7 L78.15 83.2 78.4 83.7 M136.65 88.7 L136.05 87.8 135.05 86.6 131.65 82.7 132.6 82.8 134.05 82.95 136.5 83.55 136.1 84.05 136.5 83.55 138.3 84.0 138.8 84.45 138.3 84.0 138.85 84.15 138.8 84.45 138.6 85.8 137.05 88.1 136.65 88.7" fill="#403020" fill-rule="evenodd" stroke="none"/>
    <path d="M80.55 91.05 Q81.55 91.95 82.25 92.3 L87.1 94.55 91.25 95.55 Q106.8 99.05 117.85 98.4 L120.65 98.15 122.4 97.9 Q114.95 104.7 101.8 104.8 L100.65 104.8 92.75 104.75 89.05 104.65 88.55 106.85 Q87.2 113.8 89.15 120.5 91.25 127.8 91.05 135.4 91.3 136.85 98.55 140.6 105.8 144.35 118.55 143.0 131.3 141.65 131.85 143.05 L129.8 144.35 126.7 145.4 Q108.8 150.75 87.35 144.35 L87.1 144.2 86.7 144.35 81.05 144.6 Q81.8 144.4 83.5 142.2 85.2 139.95 83.5 138.65 L82.7 137.95 Q81.5 136.8 80.85 135.3 L80.65 134.85 Q74.7 121.3 77.5 111.8 L77.35 111.15 78.05 111.15 76.85 100.5 75.55 89.45 75.2 86.15 75.05 85.1 78.05 88.55 80.55 91.05" fill="#866f48" fill-rule="evenodd" stroke="none"/>
    <path d="M122.4 97.9 Q126.45 97.25 129.8 95.95 L130.1 96.05 130.15 95.75 130.15 95.7 131.15 95.05 134.05 93.15 134.05 93.1 134.45 92.4 134.5 92.3 136.65 88.7 137.05 88.1 137.7 87.1 138.5 86.35 139.7 85.6 139.3 87.3 139.15 87.9 Q137.15 95.15 140.1 101.65 L134.05 97.2 134.05 97.15 131.9 96.55 Q128.85 99.75 124.95 101.95 120.25 104.55 114.3 105.65 104.1 107.6 94.65 105.9 L93.95 105.55 95.0 106.1 96.7 107.1 102.85 108.95 103.3 109.1 Q106.45 110.05 109.75 110.05 L110.85 110.0 116.35 110.55 Q117.2 110.65 117.95 110.15 L118.15 110.1 117.6 110.55 117.05 111.05 118.0 111.2 117.5 111.1 118.95 110.7 122.25 109.55 122.55 109.5 Q129.05 108.55 135.15 106.45 L135.8 106.2 140.15 104.45 140.05 108.65 Q137.75 109.9 135.15 110.8 L132.2 111.7 127.8 112.65 122.2 113.35 119.85 113.5 Q118.7 114.7 117.1 115.2 L112.55 115.45 107.8 115.0 104.0 114.7 104.5 115.2 107.3 115.25 Q107.8 115.25 108.3 115.65 L105.05 115.85 Q110.65 122.15 112.9 131.85 L113.05 132.15 118.3 133.1 119.8 133.3 Q122.95 130.6 125.2 127.2 L126.1 125.75 Q128.7 121.25 129.8 115.7 135.7 129.8 132.1 137.2 134.05 136.6 135.95 136.75 135.6 138.2 139.85 140.6 L134.05 141.55 134.05 141.6 134.05 141.65 131.85 143.05 Q131.3 141.65 118.55 143.0 105.8 144.35 98.55 140.6 91.3 136.85 91.05 135.4 91.25 127.8 89.15 120.5 87.2 113.8 88.55 106.85 L89.05 104.65 92.75 104.75 100.65 104.8 101.8 104.8 Q114.95 104.7 122.4 97.9 M130.15 95.75 L131.15 95.05 130.15 95.75 M80.65 134.85 L80.85 135.3 Q80.2 135.05 80.65 134.85 M122.6 109.25 L121.05 109.35 119.45 109.35 118.05 109.3 116.55 109.4 Q126.5 106.15 135.55 100.9 132.7 107.85 124.05 109.1 L122.6 109.25 M123.55 114.7 L130.05 113.15 134.2 113.95 134.55 114.4 123.4 116.3 121.95 116.45 119.7 116.65 118.05 116.8 116.45 116.85 107.55 116.9 118.5 115.65 122.05 115.0 123.55 114.7 M124.3 138.4 L119.7 138.9 125.7 138.75 127.3 138.45 124.3 138.4" fill="#a78e58" fill-rule="evenodd" stroke="none"/>
    <path d="M135.95 136.75 Q134.05 136.6 132.1 137.2 135.7 129.8 129.8 115.7 128.7 121.25 126.1 125.75 L125.2 127.2 Q122.95 130.6 119.8 133.3 L118.3 133.1 113.05 132.15 112.9 131.85 Q110.65 122.15 105.05 115.85 L108.3 115.65 Q107.8 115.25 107.3 115.25 L104.5 115.2 104.0 114.7 107.8 115.0 112.55 115.45 117.1 115.2 Q118.7 114.7 119.85 113.5 L122.2 113.35 127.8 112.65 132.2 111.7 135.15 110.8 Q137.75 109.9 140.05 108.65 L140.15 104.45 135.8 106.2 135.15 106.45 Q129.05 108.55 122.55 109.5 L122.25 109.55 118.95 110.7 117.5 111.1 118.0 111.2 117.05 111.05 117.6 110.55 118.15 110.1 117.95 110.15 Q117.2 110.65 116.35 110.55 L110.85 110.0 109.75 110.05 Q106.45 110.05 103.3 109.1 L102.85 108.95 96.7 107.1 95.0 106.1 93.95 105.55 94.65 105.9 Q104.1 107.6 114.3 105.65 120.25 104.55 124.95 101.95 128.85 99.75 131.9 96.55 L134.05 97.15 134.05 97.2 140.1 101.65 140.15 102.35 140.95 116.1 Q141.75 129.8 135.95 136.75 M124.3 138.4 L127.3 138.45 125.7 138.75 119.7 138.9 124.3 138.4 M123.55 114.7 L122.05 115.0 118.5 115.65 107.55 116.9 116.45 116.85 118.05 116.8 119.7 116.65 121.95 116.45 123.4 116.3 134.55 114.4 134.2 113.95 130.05 113.15 123.55 114.7 M122.6 109.25 L124.05 109.1 Q132.7 107.85 135.55 100.9 126.5 106.15 116.55 109.4 L118.05 109.3 119.45 109.35 121.05 109.35 122.6 109.25" fill="#c2b68b" fill-rule="evenodd" stroke="none"/>
    <path d="M82.7 137.95 L83.5 138.65 Q85.2 139.95 83.5 142.2 81.8 144.4 81.05 144.6 L86.7 144.35 87.05 144.35 87.1 144.35 87.35 144.35 Q108.8 150.75 126.7 145.4 L129.8 144.35 Q132.15 144.35 133.95 143.55 L134.05 144.15 Q134.05 147.45 124.8 149.8 115.6 152.15 102.55 152.15 89.5 152.15 80.25 149.8 71.05 147.45 71.05 144.15 71.05 140.85 80.25 138.5 L82.7 137.95" fill="#666666" fill-opacity="0.3529412" fill-rule="evenodd" stroke="none"/>
    <path d="M129.8 95.95 L130.15 95.75 130.1 96.05 129.8 95.95 M138.6 85.8 Q139.9 84.05 139.7 85.6 L138.5 86.35 137.7 87.1 137.05 88.1 138.6 85.8 M86.7 144.35 L87.1 144.2 87.35 144.35 87.1 144.35 87.05 144.35 86.7 144.35 M129.8 144.35 L131.85 143.05 134.05 141.65 134.05 141.6 134.05 141.55 139.85 140.6 Q135.15 141.65 134.35 143.0 L134.05 143.45 134.05 143.5 133.95 143.55 Q132.15 144.35 129.8 144.35" fill="#e6e1ce" fill-rule="evenodd" stroke="none"/>
    <path d="M117.85 98.4 Q121.4 97.7 124.85 96.45 L120.65 98.15 117.85 98.4" fill="url(#gradient0)" fill-rule="evenodd" stroke="none"/>
    <path d="M87.85 80.25 L95.15 76.45 Q91.05 79.05 89.1 80.85 L88.55 81.3 Q87.05 84.2 86.15 87.2 86.0 87.6 86.0 88.05 89.35 90.7 93.2 92.1 97.3 93.1 101.6 93.5 112.55 94.5 123.2 91.7 129.65 90.0 135.05 86.6 L136.05 87.8 136.65 88.7 134.5 92.3 134.45 92.4 134.05 93.1 134.05 93.15 131.15 95.05 130.15 95.7 130.15 95.75 129.8 95.95 Q126.45 97.25 122.4 97.9 L120.65 98.15 124.85 96.45 Q121.4 97.7 117.85 98.4 106.8 99.05 91.25 95.55 L87.1 94.55 82.25 92.3 Q81.55 91.95 80.55 91.05 L80.45 89.05 Q80.75 88.35 81.3 87.8 L87.85 80.25" fill="#edceaf" fill-rule="evenodd" stroke="none"/>
    <path d="M80.55 91.05 Q81.55 91.95 82.25 92.3 L87.1 94.55 91.25 95.55 Q106.8 99.05 117.85 98.4 L120.65 98.15 122.4 97.9 Q126.45 97.25 129.8 95.95 L130.15 95.75 131.15 95.05 134.05 93.15 M134.05 93.1 L134.45 92.4 134.5 92.3 136.65 88.7 137.05 88.1 138.6 85.8 Q139.9 84.05 139.7 85.6 L139.3 87.3 139.15 87.9 Q137.15 95.15 140.1 101.65 L140.15 102.35 140.95 116.1 Q141.75 129.8 135.95 136.75 135.6 138.2 139.85 140.6 135.15 141.65 134.35 143.0 L134.05 143.45 M78.05 88.55 L75.05 85.1 75.2 86.15 75.55 89.45 76.85 100.5 78.05 111.15 77.35 111.15 77.5 111.8 Q74.7 121.3 80.65 134.85 L80.85 135.3 Q81.5 136.8 82.7 137.95 L83.5 138.65 Q85.2 139.95 83.5 142.2 81.8 144.4 81.05 144.6 L86.7 144.35 87.05 144.35 87.1 144.35 87.35 144.35 Q108.8 150.75 126.7 145.4 L129.8 144.35 Q132.15 144.35 133.95 143.55 L134.05 143.5 M80.55 91.05 L78.05 88.55" fill="none" stroke="#5a4530" stroke-linecap="round" stroke-linejoin="round" stroke-width="2.0"/>
    <path d="M83.0 81.8 L82.25 80.55 M85.55 81.05 L84.7 78.8 M132.6 82.8 L134.0 79.15 M136.5 83.55 L137.85 81.6 M141.8 78.55 L138.85 84.05 138.85 84.15 M138.8 84.45 L144.15 84.75 M135.4 81.95 L136.1 80.2 M130.55 80.9 L131.25 78.45 M140.3 86.5 L144.5 87.2 M78.15 83.2 L76.3 79.5 M79.1 82.65 L78.4 79.5 M76.8 83.6 L72.8 81.95 M74.9 88.25 L73.15 90.0 M75.2 86.15 L69.65 86.85" ffdec:has-small-stroke="true" ffdec:original-stroke-width="0.05" fill="none" stroke="#5a4530" stroke-linecap="round" stroke-linejoin="round" stroke-width="1.0"/>
    <path d="M85.55 81.05 L85.75 81.6 M83.3 82.3 L83.0 81.8 M78.15 83.2 L78.4 83.7 M131.65 82.7 L132.6 82.8 134.05 82.95 136.5 83.55 136.1 84.05 M87.05 80.55 L87.85 80.25 M138.8 84.45 L138.3 84.0 136.5 83.55 M138.85 84.15 L138.8 84.45 138.6 85.8 M138.85 84.15 L138.3 84.0 M139.15 87.9 L141.0 88.95 M75.55 89.45 L74.2 89.65" ffdec:has-small-stroke="true" ffdec:original-stroke-width="0.05" fill="none" stroke="#435555" stroke-linecap="round" stroke-linejoin="round" stroke-width="1.0"/>
    <path d="M115.95 117.0 L116.55 115.55 Q100.55 114.35 87.4 108.65 81.2 105.95 75.7 102.3 L74.55 101.55 M121.55 119.55 L126.55 138.5 M139.55 103.55 L139.0 104.15 Q136.7 106.55 134.0 108.25 128.6 111.55 121.35 112.25 L120.55 120.55 M118.55 118.45 L116.55 141.5 M115.5 118.2 L114.55 120.55 M116.55 115.55 L118.5 110.75 M121.35 112.25 L118.55 113.55 M121.55 109.55 L121.35 112.25" fill="none" stroke="#b35e00" stroke-linecap="round" stroke-linejoin="round" stroke-width="2.0"/>
    <path d="M117.1 115.2 L117.7 113.75 Q101.7 112.55 88.55 106.85 82.35 104.15 76.85 100.5 L75.7 99.75 M140.7 101.75 L140.15 102.35 Q137.85 104.75 135.15 106.45 129.75 109.75 122.5 110.45 L121.7 118.75 M122.7 107.75 L122.5 110.45 119.7 111.75 M122.7 117.75 L127.7 136.7 M117.7 113.75 L119.65 108.95 M116.65 116.4 L115.7 118.75 M119.7 116.65 L117.7 139.7" fill="none" stroke="#ff8c00" stroke-linecap="round" stroke-linejoin="round" stroke-width="2.0"/>
  </g>
  <defs>
    <linearGradient gradientTransform="matrix(-0.0116, 3.0E-4, -6.0E-4, -0.023, 112.65, 81.1)" gradientUnits="userSpaceOnUse" id="gradient0" spreadMethod="pad" x1="-819.2" x2="819.2">
      <stop offset="0.0" stop-color="#e2e1c7"/>
      <stop offset="1.0" stop-color="#c8ab91"/>
    </linearGradient>
  </defs>
</svg>
