<?xml version="1.0" encoding="UTF-8" standalone="no"?>
<svg xmlns:ffdec="https://www.free-decompiler.com/flash" xmlns:xlink="http://www.w3.org/1999/xlink" ffdec:objectType="shape" height="146.5px" width="107.25px" xmlns="http://www.w3.org/2000/svg">
  <g transform="matrix(1.0, 0.0, 0.0, 1.0, 53.6, 73.25)">
    <path d="M-37.5 -35.1 L-37.5 -37.35 -39.0 -47.65 -34.05 -57.15 -32.2 -58.9 Q-23.35 -67.15 -10.8 -73.15 L-10.3 -73.15 Q3.05 -71.9 13.45 -67.65 15.1 -63.25 17.65 -58.85 L19.95 -50.35 20.0 -50.1 20.0 -45.9 19.85 -45.65 -3.3 -55.15 -29.75 -49.65 -34.2 -41.25 -36.1 -43.0 -36.05 -46.1 -35.6 -47.5 -36.05 -46.1 -36.1 -43.0 -34.2 -41.25 -37.5 -35.1" fill="#fefce7" fill-rule="evenodd" stroke="none"/>
    <path d="M17.65 -58.85 Q20.15 -54.3 23.6 -49.75 L29.75 -42.65 30.0 -41.85 32.25 -35.15 Q31.0 -26.95 28.5 -18.75 26.7 -12.95 24.25 -7.15 L17.2 -1.7 14.5 0.35 12.15 1.1 17.15 -5.9 15.8 -14.55 Q14.1 -14.55 12.5 -15.65 12.95 -19.7 15.45 -24.55 L15.5 -24.65 15.45 -24.65 14.15 -32.6 11.2 -35.4 Q16.1 -40.25 19.85 -45.65 L19.9 -45.6 20.0 -45.9 20.0 -50.1 19.95 -50.35 17.65 -58.85 M26.5 -38.65 L26.5 -34.65 Q21.4 -28.25 15.5 -24.65 21.4 -28.25 26.5 -34.65 L26.5 -38.65 M24.25 -20.9 L19.5 -15.65 Q17.6 -14.5 15.8 -14.55 17.6 -14.5 19.5 -15.65 L24.25 -20.9" fill="#bbad80" fill-rule="evenodd" stroke="none"/>
    <path d="M30.0 -41.85 L42.45 -38.15 53.55 -30.5 52.65 -29.55 52.25 -29.15 Q48.4 -25.2 45.35 -21.3 L40.85 -27.2 42.5 -21.1 31.85 -8.25 28.5 -18.75 Q31.0 -26.95 32.25 -35.15 L30.0 -41.85 M17.2 -1.7 L24.25 -7.15 Q26.7 -12.95 28.5 -18.75 L31.85 -8.25 31.55 -6.75 16.9 1.45 17.2 -1.7 M40.85 -27.2 L36.5 -32.4 40.85 -27.2 M-18.75 11.8 L-18.8 13.15 -22.95 13.15 -27.15 6.75 -35.65 -6.2 -33.65 -9.3 Q-30.3 -4.5 -26.0 0.1 L-23.8 2.35 -18.25 4.25 -18.75 11.8 M-35.8 -12.45 L-33.65 -9.3 -35.65 -6.2 -38.1 -9.95 -35.8 -12.45 M-26.0 0.1 L-27.15 6.75 -26.0 0.1" fill="#c29b16" fill-rule="evenodd" stroke="none"/>
    <path d="M19.85 -45.65 Q16.1 -40.25 11.2 -35.4 L8.5 -32.9 Q-2.3 -29.5 -14.0 -27.9 L-25.75 -33.4 -34.2 -41.25 -29.75 -49.65 -3.3 -55.15 19.85 -45.65" fill="#ffffff" fill-rule="evenodd" stroke="none"/>
    <path d="M-40.25 -22.95 L-40.25 -27.15 Q-38.8 -29.7 -38.05 -33.05 L-37.8 -34.5 -37.5 -34.5 -37.5 -35.1 -34.2 -41.25 -25.75 -33.4 -14.0 -27.9 Q-2.3 -29.5 8.5 -32.9 L11.2 -35.4 14.15 -32.6 15.45 -24.65 15.45 -24.55 Q12.95 -19.7 12.5 -15.65 14.1 -14.55 15.8 -14.55 L17.15 -5.9 12.15 1.1 6.45 2.9 -7.55 7.35 -13.8 5.8 -18.25 4.25 -23.8 2.35 -26.0 0.1 Q-30.3 -4.5 -33.65 -9.3 L-35.8 -12.45 Q-37.85 -15.65 -39.5 -18.9 L-40.25 -22.95 M-37.5 -26.65 L-37.5 -34.5 -37.5 -26.65" fill="#dcd3ba" fill-rule="evenodd" stroke="none"/>
    <path d="M42.5 -21.1 L43.25 -15.15 40.95 -12.0 31.55 -6.75 31.85 -8.25 42.5 -21.1 M33.4 0.6 Q22.1 34.3 -5.5 58.25 L-15.75 55.35 -5.4 51.35 1.5 43.3 8.3 35.4 8.6 34.5 9.8 30.95 11.6 25.55 12.75 22.15 13.65 20.8 15.15 18.6 15.25 18.45 23.45 6.3 33.4 0.6 M-20.3 41.35 L-20.3 47.35 -17.75 65.4 -30.25 43.95 -30.3 43.65 Q-30.25 29.1 -28.2 13.95 L-27.15 6.75 -22.95 13.15 -18.8 13.15 -19.2 20.75 -19.7 30.4 -20.3 41.35" fill="#ecdc1e" fill-rule="evenodd" stroke="none"/>
    <path d="M40.95 -12.0 L37.4 -7.25 33.4 0.55 33.4 0.6 23.45 6.3 15.25 18.45 15.15 18.35 15.9 10.9 16.9 1.45 31.55 -6.75 40.95 -12.0 M-30.25 43.95 L-30.25 59.25 -27.0 73.15 -36.65 57.9 -39.5 49.75 -36.4 30.75 -42.5 41.0 Q-43.95 37.95 -44.85 35.1 L-47.7 26.7 -50.9 17.75 -35.65 -6.2 -27.15 6.75 -28.2 13.95 Q-30.25 29.1 -30.3 43.65 L-30.3 43.85 -30.25 43.95 M33.4 0.55 L31.55 -6.75 33.4 0.55" fill="#f0e464" fill-rule="evenodd" stroke="none"/>
    <path d="M16.9 1.45 L15.9 10.9 4.45 6.6 -18.75 11.8 -18.25 4.25 -13.8 5.8 -7.55 7.35 6.45 2.9 12.15 1.1 14.5 0.35 17.2 -1.7 16.9 1.45 M11.7 3.1 L6.45 2.9 11.7 3.1 M-15.3 6.6 L-13.8 5.8 -15.3 6.6" fill="#945c27" fill-rule="evenodd" stroke="none"/>
    <path d="M15.9 10.9 L15.15 18.35 11.0 16.4 9.15 15.5 8.7 14.9 8.85 14.7 7.75 13.95 3.95 10.45 2.6 10.25 Q0.75 10.2 -6.45 11.7 L-10.9 17.05 -10.95 17.3 -11.05 17.7 -19.2 20.75 -18.8 13.15 -18.75 11.8 4.45 6.6 15.9 10.9 M-7.8 12.2 L-6.45 11.7 -7.8 12.2" fill="#ac6c2d" fill-rule="evenodd" stroke="none"/>
    <path d="M1.5 43.3 Q-7.85 43.6 -20.3 41.35 L-19.7 30.4 -19.2 20.75 -11.05 17.7 -10.95 17.3 -10.9 17.05 -6.45 11.7 Q0.75 10.2 2.6 10.25 L3.95 10.45 7.75 13.95 8.7 14.9 9.15 15.5 8.5 15.15 6.95 17.05 -7.9 20.65 -8.05 20.7 -11.1 17.85 Q-11.85 21.5 -10.45 21.85 L-10.05 21.9 -7.25 26.45 11.6 25.55 9.8 30.95 5.45 29.8 4.9 29.8 Q1.05 29.6 -2.75 30.85 L-3.1 30.95 -13.5 32.45 -10.1 35.55 2.1 38.2 8.6 34.5 8.3 35.4 1.5 43.3 M15.15 18.6 L13.65 20.8 11.0 16.4 15.15 18.35 15.15 18.6 M-11.05 17.7 L-11.1 17.85 -11.05 17.7 M-7.25 26.45 L-17.35 28.0 -19.7 30.4 -17.35 28.0 -7.25 26.45" fill="#ebb574" fill-rule="evenodd" stroke="none"/>
    <path d="M13.65 20.8 L12.75 22.15 11.6 25.55 -7.25 26.45 -10.05 21.9 -6.1 22.25 Q0.05 22.1 5.65 20.5 7.8 19.45 9.25 18.05 10.25 17.05 9.15 15.5 10.25 17.05 9.25 18.05 7.8 19.45 5.65 20.5 0.05 22.1 -6.1 22.25 L-10.05 21.9 -10.45 21.85 Q-11.85 21.5 -11.1 17.85 L-8.05 20.7 -7.9 20.65 6.95 17.05 8.5 15.15 9.15 15.5 11.0 16.4 13.65 20.8 M9.8 30.95 L8.6 34.5 2.1 38.2 -10.1 35.55 -13.5 32.45 -3.1 30.95 -2.75 30.85 Q1.05 29.6 4.9 29.8 L5.45 29.8 9.8 30.95" fill="#cf8b47" fill-rule="evenodd" stroke="none"/>
    <path d="M-50.9 17.75 Q-50.3 12.5 -52.35 5.65 L-52.35 -1.25 -53.5 -8.15 Q-48.75 -9.8 -44.0 -16.4 L-40.25 -22.95 -39.5 -18.9 Q-37.85 -15.65 -35.8 -12.45 L-38.1 -9.95 -35.65 -6.2 -50.9 17.75 M-52.35 5.65 L-38.1 -9.95 -52.35 5.65" fill="#dcbf1d" fill-rule="evenodd" stroke="none"/>
    <path d="M19.95 -50.35 L20.0 -50.1 20.0 -45.9 19.85 -45.65 Q16.1 -40.25 11.2 -35.4 L8.5 -32.9 Q-2.3 -29.5 -14.0 -27.9 L-25.75 -33.4 -34.2 -41.25 -36.1 -43.0 -36.05 -46.1 -35.6 -47.5" ffdec:has-small-stroke="true" ffdec:original-stroke-width="0.25" fill="none" stroke="#4a3504" stroke-linecap="round" stroke-linejoin="round" stroke-opacity="0.2627451" stroke-width="1.0"/>
    <path d="M17.65 -58.85 Q20.15 -54.3 23.6 -49.75 L29.75 -42.65 30.0 -41.85 42.45 -38.15 53.55 -30.5 52.65 -29.55 52.25 -29.15 Q48.4 -25.2 45.35 -21.3 L40.85 -27.2 42.5 -21.1 43.25 -15.15 40.95 -12.0 37.4 -7.25 33.4 0.55 33.4 0.6 Q22.1 34.3 -5.5 58.25 L-15.75 55.35 -5.4 51.35 1.5 43.3 Q-7.85 43.6 -20.3 41.35 L-20.3 47.35 -17.75 65.4 -30.25 43.95 -30.25 59.25 -27.0 73.15 -36.65 57.9 -39.5 49.75 -36.4 30.75 -42.5 41.0 Q-43.95 37.95 -44.85 35.1 L-47.7 26.7 -50.9 17.75 Q-50.3 12.5 -52.35 5.65 L-52.35 -1.25 -53.5 -8.15 Q-48.75 -9.8 -44.0 -16.4 L-40.25 -22.95 -40.25 -27.15 Q-38.8 -29.7 -38.05 -33.05 M-37.5 -34.5 L-37.5 -35.1 -37.5 -37.35 -39.0 -47.65 -34.05 -57.15 -32.2 -58.9 Q-23.35 -67.15 -10.8 -73.15 M-10.3 -73.15 Q3.05 -71.9 13.45 -67.65 15.1 -63.25 17.65 -58.85 M15.5 -24.65 Q21.4 -28.25 26.5 -34.65 L26.5 -38.65 M17.2 -1.7 L24.25 -7.15 Q26.7 -12.95 28.5 -18.75 31.0 -26.95 32.25 -35.15 L30.0 -41.85 M15.8 -14.55 Q14.1 -14.55 12.5 -15.65 12.95 -19.7 15.45 -24.55 L15.5 -24.65 M15.8 -14.55 Q17.6 -14.5 19.5 -15.65 L24.25 -20.9 M31.85 -8.25 L28.5 -18.75 M31.55 -6.75 L31.85 -8.25 M36.5 -32.4 L40.85 -27.2 M16.9 1.45 L15.9 10.9 15.15 18.35 M15.15 18.6 L13.65 20.8 12.75 22.15 11.6 25.55 9.8 30.95 8.6 34.5 2.1 38.2 -10.1 35.55 -13.5 32.45 -3.1 30.95 -2.75 30.85 Q1.05 29.6 4.9 29.8 L5.45 29.8 9.8 30.95 M8.3 35.4 L1.5 43.3 M12.15 1.1 L14.5 0.35 17.2 -1.7 16.9 1.45 M31.55 -6.75 L33.4 0.55 M8.7 14.9 L9.15 15.5 Q10.25 17.05 9.25 18.05 7.8 19.45 5.65 20.5 0.05 22.1 -6.1 22.25 L-10.05 21.9 -10.45 21.85 Q-11.85 21.5 -11.1 17.85 L-11.05 17.7 -10.95 17.3 -10.9 17.05 M-7.25 26.45 L11.6 25.55 M7.75 13.95 L8.7 14.9 M-18.75 11.8 L-18.8 13.15 -19.2 20.75 -19.7 30.4 -20.3 41.35 M-6.45 11.7 L-7.8 12.2 M6.45 2.9 L11.7 3.1 M-18.25 4.25 L-13.8 5.8 -7.55 7.35 6.45 2.9 12.15 1.1 M-37.5 -34.5 L-37.5 -26.65 M-40.25 -22.95 L-39.5 -18.9 Q-37.85 -15.65 -35.8 -12.45 L-33.65 -9.3 Q-30.3 -4.5 -26.0 0.1 L-23.8 2.35 -18.25 4.25 -18.75 11.8 M-35.65 -6.2 L-33.65 -9.3 M-35.8 -12.45 L-38.1 -9.95 -52.35 5.65 M-27.15 6.75 L-26.0 0.1 M-13.8 5.8 L-15.3 6.6 M-27.15 6.75 L-28.2 13.95 Q-30.25 29.1 -30.3 43.65 L-30.25 43.95 -30.3 43.85 -30.3 43.65 M-19.7 30.4 L-17.35 28.0 -7.25 26.45 M-35.65 -6.2 L-50.9 17.75 M-6.45 11.7 Q0.75 10.2 2.6 10.25" ffdec:has-small-stroke="true" ffdec:original-stroke-width="0.25" fill="none" stroke="#241606" stroke-linecap="round" stroke-linejoin="round" stroke-opacity="0.49019608" stroke-width="1.0"/>
  </g>
</svg>
