<?xml version="1.0" encoding="UTF-8" standalone="no"?>
<svg xmlns:ffdec="https://www.free-decompiler.com/flash" xmlns:xlink="http://www.w3.org/1999/xlink" ffdec:objectType="shape" height="399.75px" width="573.6px" xmlns="http://www.w3.org/2000/svg">
  <g transform="matrix(1.0, 0.0, 0.0, 1.0, 0.0, -30.3)">
    <path d="M487.35 30.3 L572.0 195.95 573.6 306.9 487.35 336.45 438.5 291.75 524.8 278.5 531.3 202.9 485.7 38.2 487.35 30.3" fill="#41413a" fill-rule="evenodd" stroke="none"/>
    <path d="M487.35 336.45 L479.2 338.45 396.2 300.1 366.9 238.75 386.4 173.25 454.8 160.6 485.7 38.2 531.3 202.9 524.8 278.5 438.5 291.75 487.35 336.45" fill="#23231f" fill-rule="evenodd" stroke="none"/>
    <path d="M487.35 30.3 L572.0 195.95 573.6 306.9 487.35 336.45 479.2 338.45 396.2 300.1 366.9 238.75 386.4 173.25 454.8 160.6 485.7 38.2" ffdec:has-small-stroke="true" ffdec:original-stroke-width="0.05" fill="none" stroke="#000000" stroke-linecap="round" stroke-linejoin="round" stroke-opacity="0.3019608" stroke-width="1.0"/>
    <path d="M337.75 115.15 Q249.85 100.45 171.75 110.05 243.35 68.55 337.75 115.15 M183.15 150.8 Q82.2 127.7 15.45 191.1 26.85 168.35 48.0 147.05 101.75 114.35 145.7 129.0 165.25 135.15 183.15 150.8 M459.85 141.4 Q406.15 118.8 334.5 134.2 344.3 127.5 354.05 124.05 381.7 108.6 407.75 114.15 435.45 118.25 459.85 141.4" fill="#ffb130" fill-rule="evenodd" stroke="none"/>
    <path d="M334.5 134.2 L337.75 115.15 354.05 124.05 Q344.3 127.5 334.5 134.2 M171.75 110.05 Q189.65 122.45 183.15 150.8 165.25 135.15 145.7 129.0 158.7 117.9 171.75 110.05 M134.3 395.95 Q375.2 407.3 415.9 341.7 435.45 310.4 430.55 280.35 425.7 258.45 407.75 237.9 399.65 226.95 386.6 216.85 398.0 220.15 407.75 226.5 440.35 247.6 464.75 285.45 464.75 287.05 466.35 287.3 L466.35 285.7 Q489.15 219.0 459.85 141.4 523.35 220.85 507.05 291.7 502.2 321.9 482.65 349.95 L450.1 369.55 Q249.85 424.5 134.3 395.95 M373.6 190.45 Q389.85 178.25 407.75 184.15 415.9 185.35 424.05 191.45 448.45 211.4 450.1 250.65 430.55 215.2 407.75 202.1 391.5 189.85 373.6 190.45 M318.25 166.0 Q360.55 188.55 367.05 243.25 L186.4 250.65 Q183.15 209.45 207.55 177.25 248.25 131.15 318.25 166.0 M103.35 282.25 Q90.35 267.35 101.75 225.05 114.75 181.4 173.35 199.85 105.0 212.5 103.35 282.25" fill="#f17901" fill-rule="evenodd" stroke="none"/>
    <path d="M337.75 115.15 L334.5 134.2 Q406.15 118.8 459.85 141.4 489.15 219.0 466.35 285.7 L466.35 287.3 Q464.75 287.05 464.75 285.45 440.35 247.6 407.75 226.5 398.0 220.15 386.6 216.85 399.65 226.95 407.75 237.9 425.7 258.45 430.55 280.35 435.45 310.4 415.9 341.7 375.2 407.3 134.3 395.95 56.15 376.25 15.45 319.75 -15.45 250.0 15.45 191.1 82.2 127.7 183.15 150.8 189.65 122.45 171.75 110.05 249.85 100.45 337.75 115.15 M450.1 250.65 Q448.45 211.4 424.05 191.45 415.9 185.35 407.75 184.15 389.85 178.25 373.6 190.45 391.5 189.85 407.75 202.1 430.55 215.2 450.1 250.65 M318.25 166.0 Q248.25 131.15 207.55 177.25 183.15 209.45 186.4 250.65 L367.05 243.25 Q360.55 188.55 318.25 166.0 M173.35 199.85 Q114.75 181.4 101.75 225.05 90.35 267.35 103.35 282.25 105.0 212.5 173.35 199.85" fill="#ff910b" fill-rule="evenodd" stroke="none"/>
    <path d="M15.45 191.1 Q-15.45 250.0 15.45 319.75 56.15 376.25 134.3 395.95 249.85 424.5 450.1 369.55 L482.65 349.95 Q502.2 321.9 507.05 291.7 523.35 220.85 459.85 141.4 435.45 118.25 407.75 114.15 381.7 108.6 354.05 124.05 L337.75 115.15 Q243.35 68.55 171.75 110.05 158.7 117.9 145.7 129.0 165.25 135.15 183.15 150.8 M334.5 134.2 Q344.3 127.5 354.05 124.05 M145.7 129.0 Q101.75 114.35 48.0 147.05 26.85 168.35 15.45 191.1" ffdec:has-small-stroke="true" ffdec:original-stroke-width="0.05" fill="none" stroke="#824409" stroke-linecap="round" stroke-linejoin="round" stroke-opacity="0.84705883" stroke-width="1.0"/>
    <path d="M450.1 250.65 Q430.55 215.2 407.75 202.1 391.5 189.85 373.6 190.45 M173.35 199.85 Q105.0 212.5 103.35 282.25" ffdec:has-small-stroke="true" ffdec:original-stroke-width="0.05" fill="none" stroke="#fec667" stroke-linecap="round" stroke-linejoin="round" stroke-width="1.0"/>
    <path d="M212.05 47.9 Q210.95 45.6 210.7 43.3 209.85 35.65 220.55 32.25 230.4 28.75 246.05 31.55 261.6 33.65 273.6 41.6 284.55 48.1 286.25 55.75 286.45 57.3 285.75 58.75 284.65 64.05 276.45 66.8 265.65 69.5 250.1 67.45 234.4 64.65 223.5 58.2 215.2 52.6 212.05 47.9" fill="#b17e3d" fill-rule="evenodd" stroke="none"/>
    <path d="M285.75 58.75 Q293.85 84.9 291.35 116.0 302.8 119.4 312.85 125.1 337.5 139.6 339.8 160.2 342.2 181.6 320.9 196.85 299.55 211.35 267.25 212.55 234.9 212.95 209.5 199.2 184.85 184.65 182.55 164.05 180.15 142.65 201.45 127.4 209.3 121.55 219.1 118.1 224.0 116.0 229.85 114.7 227.6 87.2 212.05 47.9 215.2 52.6 223.5 58.2 234.4 64.65 250.1 67.45 265.65 69.5 276.45 66.8 284.65 64.05 285.75 58.75 M262.8 180.4 Q245.1 182.1 227.4 168.6 245.1 182.1 262.8 180.4 M277.35 173.35 Q288.45 143.3 291.35 116.0 288.45 143.3 277.35 173.35 M229.85 114.7 Q232.95 142.15 222.65 157.05 232.95 142.15 229.85 114.7" fill="#815c2d" fill-rule="evenodd" stroke="none"/>
    <path d="M212.05 47.9 Q210.95 45.6 210.7 43.3 209.85 35.65 220.55 32.25 230.4 28.75 246.05 31.55 261.6 33.65 273.6 41.6 284.55 48.1 286.25 55.75 286.45 57.3 285.75 58.75 293.85 84.9 291.35 116.0 302.8 119.4 312.85 125.1 337.5 139.6 339.8 160.2 342.2 181.6 320.9 196.85 299.55 211.35 267.25 212.55 234.9 212.95 209.5 199.2 184.85 184.65 182.55 164.05 180.15 142.65 201.45 127.4 209.3 121.55 219.1 118.1 224.0 116.0 229.85 114.7 227.6 87.2 212.05 47.9 M222.65 157.05 Q232.95 142.15 229.85 114.7 M291.35 116.0 Q288.45 143.3 277.35 173.35 M227.4 168.6 Q245.1 182.1 262.8 180.4" ffdec:has-small-stroke="true" ffdec:original-stroke-width="0.05" fill="none" stroke="#000000" stroke-linecap="round" stroke-linejoin="round" stroke-opacity="0.29803923" stroke-width="1.0"/>
    <path d="M367.05 241.65 Q313.35 376.95 188.0 252.55 267.8 192.7 367.05 241.65" fill="#ff910b" fill-rule="evenodd" stroke="none"/>
    <path d="M188.0 252.55 Q266.15 146.9 367.05 241.65 267.8 192.7 188.0 252.55" fill="#ffb130" fill-rule="evenodd" stroke="none"/>
    <path d="M188.0 252.55 Q266.15 146.9 367.05 241.65" ffdec:has-small-stroke="true" ffdec:original-stroke-width="0.05" fill="none" stroke="#824409" stroke-linecap="round" stroke-linejoin="round" stroke-opacity="0.84705883" stroke-width="1.0"/>
    <path d="M264.3 100.3 L267.55 91.0 378.25 280.1 381.5 397.8 280.6 430.05 212.2 400.4 321.3 370.95 326.15 291.9 264.3 100.3" fill="#41413a" fill-rule="evenodd" stroke="none"/>
    <path d="M264.3 100.3 L326.15 291.9 321.3 370.95 212.2 400.4 208.95 313.55 231.75 250.2 264.3 100.3" fill="#23231f" fill-rule="evenodd" stroke="none"/>
    <path d="M280.6 430.05 L381.5 397.8 378.25 280.1 267.55 91.0 M264.3 100.3 L231.75 250.2 208.95 313.55" ffdec:has-small-stroke="true" ffdec:original-stroke-width="0.05" fill="none" stroke="#000000" stroke-linecap="round" stroke-linejoin="round" stroke-opacity="0.3019608" stroke-width="1.0"/>
  </g>
</svg>
