<?xml version="1.0" encoding="UTF-8" standalone="no"?>
<svg xmlns:ffdec="https://www.free-decompiler.com/flash" xmlns:xlink="http://www.w3.org/1999/xlink" ffdec:objectType="shape" height="468.15px" width="375.1px" xmlns="http://www.w3.org/2000/svg">
  <g transform="matrix(1.0, 0.0, 0.0, 1.0, -64.6, -135.15)">
    <path d="M81.2 342.5 Q165.15 427.55 284.15 381.15 L284.15 418.4 Q150.65 460.35 75.45 382.7 51.2 357.65 81.2 342.5" fill="#81842e" fill-rule="evenodd" stroke="none"/>
    <path d="M81.2 342.5 Q165.15 427.55 284.15 381.15 L284.15 418.4 Q150.65 460.35 75.45 382.7 51.2 357.65 81.2 342.5 Z" ffdec:has-small-stroke="true" ffdec:original-stroke-width="0.05" fill="none" stroke="#000000" stroke-linecap="round" stroke-linejoin="round" stroke-opacity="0.29803923" stroke-width="1.0"/>
    <path d="M371.6 148.0 L363.4 142.15 Q366.1 130.55 386.35 138.15 404.15 175.85 413.75 222.35 365.25 281.6 301.0 300.7 L290.3 363.6 267.95 307.6 Q247.95 310.2 226.5 309.35 L213.95 279.25 208.35 308.05 Q196.75 306.9 184.8 304.7 178.6 249.3 169.95 190.95 193.1 177.6 214.55 183.1 L226.15 273.3 Q259.15 275.4 290.45 269.2 L290.45 236.15 310.0 230.55 315.05 262.85 Q335.5 256.3 355.2 246.1 L355.2 212.05 Q359.55 209.7 363.4 206.2 372.65 197.85 379.55 183.0 389.05 170.95 371.6 148.0" fill="#ffb130" fill-rule="evenodd" stroke="none"/>
    <path d="M363.4 142.15 L371.6 148.0 Q389.05 170.95 379.55 183.0 372.65 197.85 363.4 206.2 L363.4 142.15 M439.5 494.75 Q439.15 514.55 438.1 535.15 434.0 545.8 416.35 550.25 426.5 568.5 384.95 586.65 343.25 604.7 263.4 602.95 L241.25 533.15 241.25 603.3 Q220.05 602.5 200.25 597.55 201.45 530.8 197.7 458.1 L224.25 535.75 224.25 449.05 269.8 560.9 Q334.6 564.4 383.55 539.0 383.75 445.1 366.8 372.7 392.8 446.85 406.7 524.6 424.3 511.85 439.5 494.75" fill="#f17901" fill-rule="evenodd" stroke="none"/>
    <path d="M184.8 304.7 Q196.75 306.9 208.35 308.05 L213.95 279.25 226.5 309.35 Q247.95 310.2 267.95 307.6 L290.3 363.6 301.0 300.7 Q365.25 281.6 413.75 222.35 422.55 264.6 424.65 314.05 441.4 392.75 439.5 494.75 424.3 511.85 406.7 524.6 392.8 446.85 366.8 372.7 383.75 445.1 383.55 539.0 334.6 564.4 269.8 560.9 L224.25 449.05 224.25 535.75 197.7 458.1 Q193.8 384.45 184.8 304.7" fill="#ff910b" fill-rule="evenodd" stroke="none"/>
    <path d="M363.4 142.15 L363.4 206.2 Q359.55 209.7 355.2 212.05 L355.2 246.1 Q335.5 256.3 315.05 262.85 L310.0 230.55 290.45 236.15 290.45 269.2 Q259.15 275.4 226.15 273.3 L214.55 183.1 Q193.1 177.6 169.95 190.95 178.6 249.3 184.8 304.7 193.8 384.45 197.7 458.1 201.45 530.8 200.25 597.55 220.05 602.5 241.25 603.3 L241.25 533.15 263.4 602.95 Q343.25 604.7 384.95 586.65 426.5 568.5 416.35 550.25 434.0 545.8 438.1 535.15 439.15 514.55 439.5 494.75 441.4 392.75 424.65 314.05 422.55 264.6 413.75 222.35 404.15 175.85 386.35 138.15 366.1 130.55 363.4 142.15" ffdec:has-small-stroke="true" ffdec:original-stroke-width="0.05" fill="none" stroke="#000000" stroke-linecap="round" stroke-linejoin="round" stroke-opacity="0.29803923" stroke-width="1.0"/>
    <path d="M363.4 206.2 Q372.65 197.85 379.55 183.0 389.05 170.95 371.6 148.0" ffdec:has-small-stroke="true" ffdec:original-stroke-width="0.05" fill="none" stroke="#000000" stroke-linecap="round" stroke-linejoin="round" stroke-opacity="0.14901961" stroke-width="1.0"/>
    <path d="M384.95 169.75 Q426.75 363.95 419.25 547.1 M318.9 421.8 Q322.05 327.15 299.45 233.6 M221.95 267.8 Q236.8 382.55 227.65 600.75" ffdec:has-small-stroke="true" ffdec:original-stroke-width="0.05" fill="none" stroke="#fec667" stroke-linecap="round" stroke-linejoin="round" stroke-width="1.0"/>
    <path d="M299.9 483.4 L307.3 484.65 316.65 507.85 308.6 502.95 307.3 502.1 299.9 483.4 M423.45 436.9 L430.15 428.2 Q438.8 470.6 427.45 502.7 L421.35 495.45 419.35 493.8 Q427.45 468.65 423.45 436.9 M408.0 511.35 L409.4 534.9 400.05 528.6 398.75 505.75 408.0 511.35 M321.95 556.6 L312.55 568.15 Q305.3 565.5 298.65 560.8 L303.9 562.55 313.25 550.95 321.95 556.6" fill="#e4b001" fill-rule="evenodd" stroke="none"/>
    <path d="M316.65 507.85 L317.25 507.85 350.05 504.0 350.05 482.55 Q380.0 475.05 402.75 456.7 413.4 447.8 423.45 436.9 427.45 468.65 419.35 493.8 L413.4 490.65 412.1 489.1 412.1 489.8 398.75 505.15 398.75 505.75 400.05 528.6 400.05 530.0 Q399.35 529.85 398.75 530.45 386.7 544.65 369.35 555.4 358.0 559.6 348.05 561.85 L345.35 556.95 344.65 556.2 335.3 550.6 313.25 550.25 313.25 550.95 303.9 562.55 298.65 560.8 Q270.55 539.7 268.55 474.6 284.6 480.35 299.9 483.4 L307.3 502.1 308.0 502.8 308.6 502.95 316.65 507.85" fill="#ffcd4a" fill-rule="evenodd" stroke="none"/>
    <path d="M421.35 495.45 L408.0 510.8 408.0 511.35 398.75 505.75 398.75 505.15 412.1 489.8 413.4 490.65 419.35 493.8 421.35 495.45 M344.65 556.2 L322.65 555.85 321.95 556.6 313.25 550.95 313.25 550.25 335.3 550.6 344.65 556.2" fill="#fecc25" fill-rule="evenodd" stroke="none"/>
    <path d="M409.4 534.9 L409.4 535.6 Q408.7 535.6 408.0 536.1 396.05 550.25 378.75 561.15 364.0 566.2 351.35 568.85 L348.05 561.85 Q358.0 559.6 369.35 555.4 386.7 544.65 398.75 530.45 399.35 529.85 400.05 530.0 L400.05 528.6 409.4 534.9" fill="#fed343" fill-rule="evenodd" stroke="none"/>
    <path d="M316.65 507.85 L317.25 507.85 350.05 504.0 350.05 482.55 Q380.0 475.05 402.75 456.7 413.4 447.8 423.45 436.9 427.45 468.65 419.35 493.8 L413.4 490.65 412.1 489.1 412.1 489.8 413.4 490.65 M348.05 561.85 L345.35 556.95 344.65 556.2 335.3 550.6 313.25 550.25 313.25 550.95 303.9 562.55 298.65 560.8 Q270.55 539.7 268.55 474.6 284.6 480.35 299.9 483.4 L307.3 502.1 308.6 502.95 316.65 507.85 M307.3 502.1 L308.0 502.8 308.6 502.95 M398.75 505.75 L400.05 528.6 400.05 530.0 Q399.35 529.85 398.75 530.45 386.7 544.65 369.35 555.4 358.0 559.6 348.05 561.85 M412.1 489.8 L398.75 505.15 398.75 505.75" ffdec:has-small-stroke="true" ffdec:original-stroke-width="0.05" fill="none" stroke="#000000" stroke-linecap="round" stroke-linejoin="round" stroke-opacity="0.34901962" stroke-width="1.0"/>
    <path d="M409.4 534.9 L409.4 535.6" ffdec:has-small-stroke="true" ffdec:original-stroke-width="0.05" fill="none" stroke="#824409" stroke-linecap="round" stroke-linejoin="round" stroke-width="1.0"/>
    <path d="M385.9 411.0 Q379.8 401.9 378.5 392.5 377.8 389.0 377.8 386.05 378.5 374.8 383.9 364.05 L421.95 328.55 Q433.2 334.9 434.35 341.7 436.6 354.45 436.6 364.4 425.25 367.35 415.85 374.7 401.2 385.15 389.15 406.45 386.45 407.6 385.9 411.0" fill="#ff910b" fill-rule="evenodd" stroke="none"/>
    <path d="M436.6 364.4 L426.5 418.5 399.25 450.7 Q389.85 439.1 385.9 411.0 386.45 407.6 389.15 406.45 391.85 420.25 399.25 439.45 413.85 405.75 431.9 383.6 423.95 375.65 415.85 374.7 425.25 367.35 436.6 364.4 M247.35 417.7 L247.95 417.8 Q268.65 414.4 289.4 415.95 276.05 421.55 264.65 431.75 262.7 432.8 260.7 434.65 301.35 447.9 342.8 471.55 348.75 449.55 350.75 431.5 L358.85 435.0 Q357.4 458.45 345.5 482.45 L230.6 426.35 247.35 417.7" fill="#f17901" fill-rule="evenodd" stroke="none"/>
    <path d="M389.15 406.45 Q401.2 385.15 415.85 374.7 423.95 375.65 431.9 383.6 413.85 405.75 399.25 439.45 391.85 420.25 389.15 406.45 M289.4 415.95 Q320.05 418.05 350.75 431.5 348.75 449.55 342.8 471.55 301.35 447.9 260.7 434.65 262.7 432.8 264.65 431.75 276.05 421.55 289.4 415.95" fill="#ffcd4a" fill-rule="evenodd" stroke="none"/>
    <path d="M385.9 411.0 Q379.8 401.9 378.5 392.5 377.8 389.0 377.8 386.05 378.5 374.8 383.9 364.05 M421.95 328.55 Q433.2 334.9 434.35 341.7 436.6 354.45 436.6 364.4 425.25 367.35 415.85 374.7 401.2 385.15 389.15 406.45 391.85 420.25 399.25 439.45 413.85 405.75 431.9 383.6 423.95 375.65 415.85 374.7 M385.9 411.0 Q386.45 407.6 389.15 406.45 M247.35 417.7 L247.95 417.8 Q268.65 414.4 289.4 415.95 320.05 418.05 350.75 431.5 L358.85 435.0 Q368.8 419.9 365.5 404.7 360.8 392.85 348.75 385.15 M350.75 431.5 Q348.75 449.55 342.8 471.55 301.35 447.9 260.7 434.65 262.7 432.8 264.65 431.75 276.05 421.55 289.4 415.95 M247.35 417.7 Q238.65 396.15 247.95 375.15" ffdec:has-small-stroke="true" ffdec:original-stroke-width="0.05" fill="none" stroke="#000000" stroke-linecap="round" stroke-linejoin="round" stroke-opacity="0.34901962" stroke-width="1.0"/>
  </g>
</svg>
