<?xml version="1.0" encoding="UTF-8" standalone="no"?>
<svg xmlns:ffdec="https://www.free-decompiler.com/flash" xmlns:xlink="http://www.w3.org/1999/xlink" ffdec:objectType="shape" height="18.0px" width="24.7px" xmlns="http://www.w3.org/2000/svg">
  <g transform="matrix(1.0, 0.0, 0.0, 1.0, 2.35, -3.15)">
    <path d="M5.5 16.8 L5.4 16.8 4.8 17.65 4.95 17.55 5.1 17.5 5.5 16.8 M21.1 16.45 L20.9 16.35 20.8 16.5 20.45 16.55 20.15 16.5 19.0 15.5 18.3 14.95 18.1 14.7 18.2 14.25 Q19.25 13.0 19.7 10.9 L19.4 9.35 18.4 6.05 17.65 4.35 16.0 4.05 14.85 5.0 14.75 5.45 15.2 6.65 15.65 7.55 Q16.1 7.5 16.4 7.25 L16.75 7.2 17.05 7.35 Q17.95 8.3 18.05 11.3 L18.05 11.45 17.15 13.55 17.05 13.7 16.75 13.8 16.45 13.7 16.2 13.5 14.9 12.7 14.9 12.65 Q12.6 11.3 10.4 10.4 L9.05 10.8 6.75 11.7 6.0 12.0 5.75 12.05 5.45 11.95 5.35 11.7 Q4.9 10.55 5.25 9.75 L5.45 9.55 Q5.55 9.4 5.7 9.4 L7.15 9.2 7.2 8.2 6.9 6.9 6.55 6.55 4.2 6.3 2.15 7.45 2.25 9.35 Q2.5 11.1 3.05 12.85 L3.1 12.85 3.1 13.0 3.1 13.35 2.9 13.55 1.15 14.65 0.05 15.35 -0.3 15.4 -0.6 15.3 -0.65 15.25 -1.0 15.35 -1.3 15.6 Q0.25 17.3 2.5 18.35 L3.4 18.0 3.55 17.85 3.7 17.7 3.8 17.45 4.7 16.1 4.85 15.85 Q4.95 15.7 5.15 15.7 L5.5 15.7 6.35 16.15 6.55 16.35 6.65 16.6 6.6 16.85 5.8 18.25 5.6 18.45 5.3 18.5 5.05 18.8 4.95 19.25 5.8 19.45 10.25 20.1 Q14.55 20.35 17.5 19.3 19.85 18.45 21.35 16.8 L21.1 16.45 M20.35 9.1 L20.7 10.8 20.7 11.0 Q20.2 13.1 19.25 14.5 L19.6 14.75 19.65 14.75 20.5 15.45 20.65 15.4 20.85 15.35 21.6 15.6 21.7 15.65 Q22.3 16.05 22.35 16.9 L22.25 17.25 21.7 17.85 Q20.15 19.4 17.85 20.25 14.7 21.35 10.15 21.1 L5.6 20.45 4.35 20.1 4.1 19.95 4.0 19.7 Q3.9 19.15 4.05 18.75 L3.8 18.85 2.7 19.35 2.3 19.35 Q-0.45 18.1 -2.25 16.0 L-2.3 15.8 -2.35 15.55 Q-2.15 14.8 -1.45 14.5 L-0.45 14.2 -0.25 14.25 -0.2 14.3 0.6 13.8 2.05 12.9 Q1.5 11.2 1.3 9.5 L1.2 7.25 1.2 7.05 1.35 6.9 Q2.5 5.95 3.95 5.35 L4.2 5.3 6.75 5.55 6.95 5.65 7.8 6.5 7.8 6.55 8.15 8.1 8.05 9.7 8.0 9.9 7.8 10.05 6.1 10.45 6.15 10.9 6.4 10.75 8.75 9.9 10.25 9.4 10.6 9.45 Q12.95 10.35 15.3 11.8 L15.35 11.8 16.6 12.6 17.1 11.25 Q17.0 9.25 16.5 8.3 L15.35 8.5 15.15 8.45 15.0 8.35 14.3 7.05 13.85 5.6 13.8 5.55 Q13.75 5.0 14.0 4.5 L14.15 4.3 15.6 3.2 15.85 3.15 18.2 3.5 18.4 3.8 19.3 5.75 20.35 9.1" fill="#97ffce" fill-opacity="0.54901963" fill-rule="evenodd" stroke="none"/>
    <path d="M21.75 16.95 L20.75 16.5 Q15.45 20.35 4.5 18.65 4.65 18.25 5.1 18.0 L5.3 18.05 5.45 18.1 9.95 18.65 Q14.4 18.75 17.45 17.7 19.15 17.05 20.4 16.1 L20.7 15.9 21.3 16.05 Q21.7 16.3 21.75 16.95 M3.35 17.55 L3.5 17.65 2.95 18.25 Q0.85 17.2 -0.75 15.65 L-1.95 15.75 -1.35 14.95 -0.5 14.75 -0.3 14.95 Q1.1 16.55 3.35 17.55" fill="#beb87c" fill-rule="evenodd" stroke="none"/>
    <path d="M4.5 18.65 Q15.45 20.35 20.75 16.5 L21.75 16.95 Q20.15 18.85 17.6 19.8 14.55 20.9 10.15 20.6 L5.6 20.0 4.35 19.65 Q4.35 19.1 4.5 18.65 M2.95 18.25 L2.4 18.9 Q-0.2 17.65 -1.95 15.75 L-0.75 15.65 Q0.85 17.2 2.95 18.25" fill="#a6a44c" fill-rule="evenodd" stroke="none"/>
    <path d="M5.5 11.7 L6.5 11.25 8.75 10.4 10.3 9.9 Q12.7 10.85 15.0 12.25 L10.4 10.4 5.5 11.7" fill="#d98463" fill-rule="evenodd" stroke="none"/>
    <path d="M15.0 12.25 L15.05 12.25 16.4 13.1 17.15 13.6 13.55 17.15 6.6 16.9 7.15 16.15 9.5 16.55 7.3 16.0 7.85 15.3 10.15 15.6 8.0 15.1 9.05 13.75 7.75 15.05 7.05 14.85 8.8 11.7 9.2 10.95 8.85 11.3 6.65 13.6 6.45 13.9 5.95 14.45 5.1 14.2 5.75 13.35 4.95 14.15 3.4 13.5 4.8 14.25 4.2 14.9 2.65 14.25 4.1 15.0 3.4 15.75 0.8 14.2 5.5 11.7 10.4 10.4 15.0 12.25 M5.75 14.7 L5.25 15.3 4.5 15.0 5.0 14.35 5.75 14.7 M5.1 15.45 L4.45 16.2 3.85 15.95 4.4 15.15 5.1 15.45 M6.95 15.05 L7.55 15.25 6.95 15.85 6.6 15.75 6.95 15.05 M6.45 15.95 L6.75 16.0 6.05 16.75 6.0 16.75 6.45 15.95" fill="#a4644b" fill-rule="evenodd" stroke="none"/>
    <path d="M5.95 14.45 L6.45 13.9 6.65 13.6 8.85 11.3 9.2 10.95 8.8 11.7 6.95 13.85 6.7 14.15 6.45 14.55 6.35 14.6 6.15 14.85 5.7 15.45 5.55 15.65 5.0 16.4 4.1 17.75 3.5 17.65 4.1 17.75 4.15 17.8 3.8 18.25 3.5 18.45 2.4 18.9 2.95 18.25 3.5 17.65 3.35 17.55 3.45 17.45 4.45 16.2 5.1 15.45 5.25 15.3 5.75 14.7 5.9 14.5 5.95 14.45" fill="#8f8a4c" fill-rule="evenodd" stroke="none"/>
    <path d="M20.4 16.1 Q19.15 17.05 17.45 17.7 14.4 18.75 9.95 18.65 L5.45 18.1 5.3 18.05 6.0 16.75 6.05 16.75 6.75 16.0 6.45 15.95 6.6 15.75 6.95 15.85 7.55 15.25 6.95 15.05 7.05 14.85 7.75 15.05 9.05 13.75 8.0 15.1 10.15 15.6 7.85 15.3 7.3 16.0 9.5 16.55 7.15 16.15 6.6 16.9 13.55 17.15 17.15 13.6 19.2 15.15 20.4 16.1 M5.95 14.45 L5.9 14.5 5.75 14.7 5.0 14.35 4.5 15.0 5.25 15.3 5.1 15.45 4.4 15.15 3.85 15.95 4.45 16.2 3.45 17.45 3.35 17.55 Q1.1 16.55 -0.3 14.95 L0.8 14.2 3.4 15.75 4.1 15.0 2.65 14.25 4.2 14.9 4.8 14.25 3.4 13.5 4.95 14.15 5.75 13.35 5.1 14.2 5.95 14.45" fill="#88533e" fill-rule="evenodd" stroke="none"/>
    <path d="M21.75 16.95 Q21.7 16.3 21.3 16.05 L20.7 15.9 20.4 16.1 Q19.15 17.05 17.45 17.7 14.4 18.75 9.95 18.65 L5.45 18.1 5.3 18.05 5.1 18.0 Q4.65 18.25 4.5 18.65 4.35 19.1 4.35 19.65 L5.6 20.0 10.15 20.6 Q14.55 20.9 17.6 19.8 20.15 18.85 21.75 16.95 M5.5 11.7 L6.5 11.25 8.75 10.4 10.3 9.9 Q12.7 10.85 15.0 12.25 M15.05 12.25 L16.4 13.1 17.15 13.6 19.2 15.15 20.4 16.1 M8.8 11.7 L9.2 10.95 8.85 11.3 6.65 13.6 6.45 13.9 5.95 14.45 5.9 14.5 5.75 14.7 5.25 15.3 5.1 15.45 4.45 16.2 3.45 17.45 3.35 17.55 3.5 17.65 4.1 17.75 5.0 16.4 5.55 15.65 5.7 15.45 6.15 14.85 6.35 14.6 6.45 14.55 6.7 14.15 6.95 13.85 8.8 11.7 7.05 14.85 6.95 15.05 6.6 15.75 6.45 15.95 6.0 16.75 5.3 18.05 M2.95 18.25 L3.5 17.65 M2.4 18.9 L3.5 18.45 3.8 18.25 4.15 17.8 4.1 17.75 M2.4 18.9 L2.95 18.25 M-1.95 15.75 Q-0.2 17.65 2.4 18.9 M0.8 14.2 L5.5 11.7 M-1.95 15.75 L-1.35 14.95 -0.5 14.75 -0.3 14.95 0.8 14.2 M-0.3 14.95 Q1.1 16.55 3.35 17.55" ffdec:has-small-stroke="true" ffdec:original-stroke-width="0.05" fill="none" stroke="#000000" stroke-linecap="round" stroke-linejoin="round" stroke-opacity="0.29803923" stroke-width="1.0"/>
    <path d="M7.0 15.0 L7.0 15.05 Q9.2 16.7 11.5 17.2 L11.95 17.3 Q11.55 15.95 10.95 14.75 12.2 14.0 14.15 13.85 L14.85 13.8 15.6 14.25 16.35 15.45 17.3 13.75 19.2 15.15 19.2 15.2 Q18.4 16.55 17.15 17.35 L17.3 17.7 17.8 19.75 17.6 19.8 12.75 20.65 12.4 18.95 Q9.8 19.25 7.4 18.45 L5.5 17.6 7.0 15.0 M5.5 11.7 L5.7 11.55 Q5.55 12.5 6.35 14.0 L6.55 14.3 6.45 14.55 6.35 14.6 6.15 14.85 5.7 15.45 5.55 15.65 5.0 16.4 4.55 17.0 4.1 16.65 3.35 16.05 2.7 14.35 2.35 13.3 Q3.9 12.4 5.5 11.7" fill="#000000" fill-opacity="0.29803923" fill-rule="evenodd" stroke="none"/>
    <path d="M14.75 6.8 L14.35 5.45 Q14.25 5.05 14.4 4.7 L15.9 3.6 18.0 3.95 18.85 5.85 17.15 4.5 15.15 5.35 14.75 6.8" fill="#beb87c" fill-rule="evenodd" stroke="none"/>
    <path d="M18.85 5.85 L19.85 9.2 18.7 12.95 16.3 15.4 15.75 14.7 Q16.9 13.45 17.55 11.3 17.5 8.55 16.7 7.65 L15.4 8.0 14.75 6.8 15.15 5.35 17.15 4.5 18.85 5.85 M15.35 5.85 Q15.8 5.65 16.2 5.4 L16.95 7.4 16.7 7.65 16.95 7.4 16.2 5.4 Q15.8 5.65 15.35 5.85" fill="#a6a44c" fill-rule="evenodd" stroke="none"/>
    <path d="M19.85 9.2 L20.2 10.9 Q19.2 15.45 15.7 16.6 L15.3 15.1 15.75 14.7 16.3 15.4 18.7 12.95 19.85 9.2" fill="#8f8a4c" fill-rule="evenodd" stroke="none"/>
    <path d="M14.75 6.8 L14.35 5.45 Q14.25 5.05 14.4 4.7 L15.9 3.6 18.0 3.95 18.85 5.85 19.85 9.2 20.2 10.9 Q19.2 15.45 15.7 16.6 L15.3 15.1 15.75 14.7 Q16.9 13.45 17.55 11.3 17.5 8.55 16.7 7.65 L15.4 8.0 14.75 6.8 M16.7 7.65 L16.95 7.4 16.2 5.4 Q15.8 5.65 15.35 5.85" ffdec:has-small-stroke="true" ffdec:original-stroke-width="0.05" fill="none" stroke="#000000" stroke-linecap="round" stroke-linejoin="round" stroke-opacity="0.29803923" stroke-width="1.0"/>
    <path d="M7.6 8.2 L6.15 7.05 3.0 7.3 1.75 9.45 1.6 7.25 Q2.7 6.35 4.1 5.85 L6.65 6.05 7.3 6.75 7.6 8.2" fill="#beb87c" fill-rule="evenodd" stroke="none"/>
    <path d="M1.75 9.45 L3.0 7.3 6.15 7.05 7.6 8.2 7.55 9.6 5.65 9.95 Q5.2 11.15 6.85 13.7 9.1 15.35 11.35 15.85 L11.1 16.85 6.5 15.8 2.55 13.0 Q2.0 11.25 1.75 9.45 M6.2 7.6 L4.85 7.7 Q4.7 8.9 5.2 9.9 L5.65 9.95 5.2 9.9 Q4.7 8.9 4.85 7.7 L6.2 7.6" fill="#a6a44c" fill-rule="evenodd" stroke="none"/>
    <path d="M2.55 13.0 L6.5 15.8 11.1 16.85 11.35 15.85 12.2 16.0 12.65 17.55 Q7.4 18.35 3.2 14.7 L2.55 13.0" fill="#8f8a4c" fill-rule="evenodd" stroke="none"/>
    <path d="M7.6 8.2 L7.3 6.75 6.65 6.05 4.1 5.85 Q2.7 6.35 1.6 7.25 L1.75 9.45 Q2.0 11.25 2.55 13.0 L3.2 14.7 Q7.4 18.35 12.65 17.55 L12.2 16.0 11.35 15.85 Q9.1 15.35 6.85 13.7 5.2 11.15 5.65 9.95 L5.2 9.9 Q4.7 8.9 4.85 7.7 L6.2 7.6 M5.65 9.95 L7.55 9.6 7.6 8.2" ffdec:has-small-stroke="true" ffdec:original-stroke-width="0.05" fill="none" stroke="#000000" stroke-linecap="round" stroke-linejoin="round" stroke-opacity="0.29803923" stroke-width="1.0"/>
    <path d="M10.8 13.4 Q12.05 12.65 14.0 12.5 L14.65 12.45 15.45 12.9 Q13.3 13.05 11.5 13.8 L10.8 13.4" fill="#beb87c" fill-rule="evenodd" stroke="none"/>
    <path d="M13.5 20.15 L12.65 19.6 Q12.2 16.3 10.8 13.4 L11.5 13.8 Q12.8 16.0 13.5 20.15" fill="#8f8a4c" fill-rule="evenodd" stroke="none"/>
    <path d="M15.45 12.9 Q17.15 15.2 17.8 19.05 16.5 19.85 14.5 20.1 L13.5 20.15 Q12.8 16.0 11.5 13.8 13.3 13.05 15.45 12.9" fill="#a6a44c" fill-rule="evenodd" stroke="none"/>
    <path d="M10.8 13.4 Q12.05 12.65 14.0 12.5 L14.65 12.45 15.45 12.9 Q17.15 15.2 17.8 19.05 16.5 19.85 14.5 20.1 L13.5 20.15 12.65 19.6 Q12.2 16.3 10.8 13.4 Z" ffdec:has-small-stroke="true" ffdec:original-stroke-width="0.05" fill="none" stroke="#000000" stroke-linecap="round" stroke-linejoin="round" stroke-opacity="0.29803923" stroke-width="1.0"/>
    <path d="M16.8 16.0 Q16.7 16.1 16.55 16.15 L15.45 15.2 14.85 14.55 14.15 14.7 14.0 15.6 13.4 17.0 13.05 17.05 13.75 15.55 14.1 14.2 14.6 14.05 15.6 15.05 16.8 16.0 M16.55 16.65 L16.7 16.95 15.6 17.25 15.9 18.35 16.15 18.35 16.15 17.55 16.45 17.4 16.35 18.3 16.7 18.2 16.8 18.5 14.75 19.05 14.7 18.75 15.15 18.65 14.5 18.0 14.85 17.9 15.45 18.55 15.7 18.45 15.3 17.3 13.8 17.75 13.8 17.45 15.2 17.0 14.9 16.2 14.05 16.5 13.95 16.25 15.85 15.75 15.9 15.95 15.25 16.1 15.5 16.95 16.55 16.65" fill="#9a654e" fill-rule="evenodd" stroke="none"/>
    <path d="M16.55 16.65 L15.5 16.95 15.25 16.1 15.9 15.95 15.85 15.75 13.95 16.25 14.05 16.5 14.9 16.2 15.2 17.0 13.8 17.45 13.8 17.75 15.3 17.3 15.7 18.45 15.45 18.55 14.85 17.9 14.5 18.0 15.15 18.65 14.7 18.75 14.75 19.05 16.8 18.5 16.7 18.2 16.35 18.3 16.45 17.4 16.15 17.55 16.15 18.35 15.9 18.35 15.6 17.25 16.7 16.95 16.55 16.65 M16.8 16.0 L15.6 15.05 14.6 14.05 14.1 14.2 13.75 15.55 13.05 17.05 13.4 17.0 14.0 15.6 14.15 14.7 14.85 14.55 15.45 15.2 16.55 16.15 Q16.7 16.1 16.8 16.0 Z" ffdec:has-small-stroke="true" ffdec:original-stroke-width="0.05" fill="none" stroke="#000000" stroke-linecap="round" stroke-linejoin="round" stroke-opacity="0.29803923" stroke-width="1.0"/>
  </g>
</svg>
