<?xml version="1.0" encoding="UTF-8" standalone="no"?>
<svg xmlns:ffdec="https://www.free-decompiler.com/flash" xmlns:xlink="http://www.w3.org/1999/xlink" ffdec:objectType="shape" height="31.3px" width="18.9px" xmlns="http://www.w3.org/2000/svg">
  <g transform="matrix(1.0, 0.0, 0.0, 1.0, -267.65, -185.55)">
    <path d="M272.95 200.7 L274.75 216.3 274.05 216.7 Q272.4 214.4 268.95 216.7 L268.95 215.95 Q271.3 213.85 267.65 206.2 272.05 206.9 271.15 202.55 L268.85 202.35 Q270.3 200.75 271.9 200.4 L272.95 200.7" fill="#3d3927" fill-rule="evenodd" stroke="none"/>
    <path d="M280.85 187.55 Q277.5 190.9 276.35 195.0 275.9 192.7 275.75 190.25 L275.75 189.8 275.2 189.5 274.75 189.3 274.6 189.4 274.55 189.45 275.6 196.0 Q273.5 187.8 272.65 186.2 L272.4 185.8 272.1 185.65 271.55 185.55 270.9 186.1 Q272.85 190.65 274.4 195.3 272.55 192.9 270.15 190.9 L269.95 190.7 269.8 190.7 269.4 190.7 268.7 191.2 268.7 191.45 268.75 191.95 Q272.8 195.35 275.1 199.65 L275.85 201.05 276.0 201.35 276.45 201.45 276.8 201.5 276.95 201.4 276.75 200.45 277.3 199.85 277.45 199.65 277.35 199.35 277.4 199.3 277.3 198.85 277.15 198.35 Q278.8 192.9 281.9 188.15 L281.45 187.8 281.25 187.55 280.85 187.55" fill="#660000" fill-rule="evenodd" stroke="none"/>
    <path d="M277.85 199.0 Q280.5 199.75 282.9 199.7 L283.3 200.05 283.75 204.35 Q281.3 205.35 278.7 205.65 276.9 202.4 277.85 199.0 M283.9 205.7 L284.35 209.95 279.15 210.4 Q276.8 208.7 278.75 206.1 L283.9 205.7 M280.4 200.2 L279.6 201.8 281.4 203.55 282.55 202.75 281.65 200.6 280.4 200.2 M281.6 206.45 L281.5 207.4 282.45 207.95 283.2 207.0 282.45 206.2 281.65 206.4 281.6 206.45" fill="#c5c1a5" fill-rule="evenodd" stroke="none"/>
    <path d="M283.75 204.35 L283.9 205.7 278.75 206.1 278.7 205.65 Q281.3 205.35 283.75 204.35" fill="#89835a" fill-rule="evenodd" stroke="none"/>
    <path d="M279.15 210.4 L273.95 210.8 274.15 214.0 273.2 214.65 272.35 206.55 278.75 206.1 Q276.8 208.7 279.15 210.4 M272.2 205.05 L271.75 200.75 272.05 200.35 Q275.1 200.1 277.85 199.0 276.9 202.4 278.7 205.65 L272.2 205.05" fill="#b5af8e" fill-rule="evenodd" stroke="none"/>
    <path d="M272.35 206.55 L272.2 205.05 278.7 205.65 278.75 206.1 272.35 206.55" fill="#6d6847" fill-rule="evenodd" stroke="none"/>
    <path d="M280.4 200.2 L281.65 200.6 282.55 202.75 281.4 203.55 279.6 201.8 280.4 200.2 M281.6 206.45 L281.65 206.4 282.45 206.2 283.2 207.0 282.45 207.95 281.5 207.4 281.6 206.45" fill="#ccc9b3" fill-rule="evenodd" stroke="none"/>
    <path d="M274.15 214.0 L274.3 216.2 284.9 215.3 Q287.75 214.8 285.1 216.0 L279.75 216.45 273.45 216.85 273.2 214.65 274.15 214.0" fill="#423f2d" fill-rule="evenodd" stroke="none"/>
    <path d="M278.7 205.65 Q281.3 205.35 283.75 204.35 M272.2 205.05 L278.7 205.65" ffdec:has-small-stroke="true" ffdec:original-stroke-width="0.05" fill="none" stroke="#46432f" stroke-linecap="round" stroke-linejoin="round" stroke-width="1.0"/>
    <path d="M279.1 215.8 L278.55 209.05 278.6 209.05 279.15 209.2 279.35 209.6 279.45 210.35 280.4 210.25 280.35 209.5 Q280.3 209.25 280.5 209.05 L280.95 208.85 281.85 208.75 282.35 208.9 282.55 209.35 282.6 210.1 283.6 210.0 283.55 209.25 283.7 208.8 284.25 208.6 285.05 208.55 285.55 208.65 285.8 209.05 285.8 209.85 285.9 209.85 286.25 215.2 279.1 215.8" fill="#89835a" fill-rule="evenodd" stroke="none"/>
    <path d="M274.0 210.8 L273.95 210.05 274.1 209.6 Q274.3 209.4 274.6 209.4 L275.4 209.3 275.9 209.45 276.15 209.9 276.2 210.6 277.2 210.55 277.15 209.8 Q277.1 209.5 277.35 209.35 277.55 209.1 277.8 209.1 L278.55 209.05 279.1 215.8 274.3 216.15 274.0 210.8" fill="#6f694a" fill-rule="evenodd" stroke="none"/>
    <path d="M274.0 210.8 L274.3 216.15 279.1 215.8 M277.15 209.8 L277.2 210.55 M280.35 209.5 L280.4 210.25 M283.55 209.25 L283.6 210.0" fill="none" stroke="#46432f" stroke-linecap="round" stroke-linejoin="round" stroke-width="1.0"/>
    <path d="M277.2 210.55 L276.2 210.6 276.15 209.9 275.9 209.45 275.4 209.3 274.6 209.4 Q274.3 209.4 274.1 209.6 L273.95 210.05 274.0 210.8 M278.55 209.05 L277.8 209.1 Q277.55 209.1 277.35 209.35 277.1 209.5 277.15 209.8 M280.4 210.25 L279.45 210.35 279.35 209.6 279.15 209.2 278.6 209.05 278.55 209.05 M283.6 210.0 L282.6 210.1 282.55 209.35 282.35 208.9 281.85 208.75 280.95 208.85 280.5 209.05 Q280.3 209.25 280.35 209.5 M286.25 215.2 L285.9 209.85 285.8 209.85 285.8 209.05 285.55 208.65 285.05 208.55 284.25 208.6 283.7 208.8 283.55 209.25" ffdec:has-small-stroke="true" ffdec:original-stroke-width="0.05" fill="none" stroke="#45402e" stroke-linecap="round" stroke-linejoin="round" stroke-opacity="0.4509804" stroke-width="1.0"/>
    <path d="M286.05 215.2 L279.1 215.8" fill="none" stroke="#46432f" stroke-linecap="round" stroke-linejoin="round" stroke-width="1.0"/>
    <path d="M277.25 205.65 L277.0 206.5 274.4 206.4 274.65 205.5 277.25 205.65" fill="#6f694a" fill-rule="evenodd" stroke="none"/>
    <path d="M282.35 205.9 L279.85 206.5 279.8 205.65 282.35 205.0 282.35 205.9" fill="#6f694a" fill-rule="evenodd" stroke="none"/>
  </g>
</svg>
