<?xml version="1.0" encoding="UTF-8" standalone="no"?>
<svg xmlns:ffdec="https://www.free-decompiler.com/flash" xmlns:xlink="http://www.w3.org/1999/xlink" ffdec:objectType="shape" height="25.55px" width="24.85px" xmlns="http://www.w3.org/2000/svg">
  <g transform="matrix(1.0, 0.0, 0.0, 1.0, 0.0, 7.5)">
    <path d="M2.8 -2.1 L2.55 -2.55 2.5 -2.8 2.5 -2.85 Q2.5 -3.25 2.8 -3.65 L4.5 -5.15 5.05 -5.55 Q7.55 -7.2 11.5 -7.45 14.45 -7.7 17.1 -6.7 L10.35 -6.7 10.2 -6.7 9.35 -5.65 Q8.95 -4.5 14.45 -5.15 14.1 -6.05 17.15 -6.05 L19.6 -5.4 Q19.85 -5.3 20.05 -5.15 L21.35 -4.25 22.1 -3.55 22.4 -2.9 22.4 -2.8 22.35 -2.55 22.25 -2.3 Q21.6 -1.25 18.8 -0.55 L12.8 -0.05 Q9.85 0.2 6.25 -0.75 3.6 -1.1 2.8 -2.1 M0.0 14.55 Q0.95 8.95 3.45 5.8 L3.55 5.7 3.5 5.6 Q3.95 5.25 4.45 5.05 L4.6 4.95 4.9 4.85 Q5.95 5.0 8.45 6.3 9.4 6.75 9.8 7.8 L8.25 7.25 Q3.25 9.9 1.65 13.95 4.3 10.5 7.85 8.75 L9.85 8.0 Q10.35 9.55 9.6 12.25 L5.55 13.45 0.0 14.55" fill="#c5d1d8" fill-rule="evenodd" stroke="none"/>
    <path d="M2.8 -2.1 Q3.6 -1.1 6.25 -0.75 9.85 0.2 12.8 -0.05 L18.8 -0.55 Q21.6 -1.25 22.25 -2.3 20.25 1.9 20.95 5.65 L14.1 7.3 13.1 6.3 12.85 6.2 11.6 5.7 Q9.4 4.95 6.85 4.5 5.8 4.5 4.9 4.85 L4.6 4.95 4.45 5.05 Q3.95 5.25 3.5 5.6 L3.75 4.6 Q4.45 1.05 2.8 -2.1" fill="#34454b" fill-rule="evenodd" stroke="none"/>
    <path d="M19.6 -5.4 L17.15 -6.05 Q14.1 -6.05 14.45 -5.15 8.95 -4.5 9.35 -5.65 L10.2 -6.7 10.35 -6.7 17.1 -6.7 18.45 -6.1 18.95 -5.8 19.6 -5.4" fill="#6d8f9c" fill-rule="evenodd" stroke="none"/>
    <path d="M20.95 5.65 L21.2 6.8 21.2 6.85 Q22.8 8.4 23.85 10.6 L23.9 10.65 24.05 11.0 24.7 12.7 Q24.95 13.65 24.75 14.55 24.4 15.85 23.0 17.15 L22.9 17.2 22.75 17.25 22.35 17.4 19.95 17.95 Q18.4 18.15 17.0 17.95 L16.25 16.35 17.4 15.85 17.6 15.95 Q14.95 10.3 17.45 9.85 17.1 9.25 17.1 8.45 L17.1 8.15 15.5 8.7 14.1 7.3 20.95 5.65" fill="#35484a" fill-rule="evenodd" stroke="none"/>
    <path d="M16.25 16.35 L15.7 15.15 13.95 11.45 17.4 15.85 16.25 16.35" fill="#4b6869" fill-rule="evenodd" stroke="none"/>
    <path d="M4.9 4.85 Q5.8 4.5 6.85 4.5 9.4 4.95 11.6 5.7 L12.85 6.2 13.65 7.25 13.75 7.4 Q14.7 9.15 13.35 10.4 L12.35 11.15 9.75 12.2 9.55 12.35 9.6 12.25 Q10.35 9.55 9.85 8.0 L9.95 7.85 9.8 7.8 Q9.4 6.75 8.45 6.3 5.95 5.0 4.9 4.85" fill="#54717a" fill-rule="evenodd" stroke="none"/>
    <path d="M4.95 14.25 L0.05 14.75 0.0 14.55 5.55 13.45 9.6 12.25 9.55 12.35 9.75 12.2 12.35 11.15 13.35 10.4 Q14.7 9.15 13.75 7.4 L13.65 7.25 12.85 6.2 13.1 6.3 14.1 7.3 15.5 8.7 17.1 8.15 17.1 8.45 Q17.1 9.25 17.45 9.85 14.95 10.3 17.6 15.95 L17.4 15.85 13.95 11.45 13.9 11.35 13.5 11.6 13.25 11.7 Q11.7 12.5 9.85 13.1 L4.95 14.25" fill="#445a60" fill-rule="evenodd" stroke="none"/>
    <path d="M15.7 15.15 L13.05 14.95 Q9.3 14.15 5.55 15.9 4.35 15.9 4.95 14.25 L9.85 13.1 Q11.7 12.5 13.25 11.7 L13.5 11.6 13.9 11.35 13.95 11.45 15.7 15.15" fill="#253434" fill-rule="evenodd" stroke="none"/>
    <path d="M9.8 7.8 L9.95 7.85 9.85 8.0 7.85 8.75 Q4.3 10.5 1.65 13.95 3.25 9.9 8.25 7.25 L9.8 7.8" fill="#ffffff" fill-rule="evenodd" stroke="none"/>
    <path d="M0.05 14.75 L0.0 14.75 0.0 14.55 0.05 14.75" fill="#b6b6b6" fill-rule="evenodd" stroke="none"/>
    <path d="M17.1 -6.7 Q14.45 -7.7 11.5 -7.45 7.55 -7.2 5.05 -5.55 L4.5 -5.15 2.8 -3.65 Q2.5 -3.25 2.5 -2.85 L2.5 -2.8 2.55 -2.55 2.8 -2.1 Q4.45 1.05 3.75 4.6 L3.5 5.6 3.55 5.7 3.45 5.8 Q0.95 8.95 0.0 14.55 M22.25 -2.3 L22.35 -2.55 22.4 -2.8 22.4 -2.9 22.1 -3.55 21.35 -4.25 20.05 -5.15 Q19.85 -5.3 19.6 -5.4 L18.95 -5.8 18.45 -6.1 17.1 -6.7 M21.2 6.8 L21.2 6.85 Q22.8 8.4 23.85 10.6 L23.9 10.65 24.05 11.0 24.7 12.7 Q24.95 13.65 24.75 14.55 24.4 15.85 23.0 17.15 L22.9 17.2 22.75 17.25 22.35 17.4 19.95 17.95 Q18.4 18.15 17.0 17.95 L16.25 16.35 15.7 15.15 13.05 14.95 Q9.3 14.15 5.55 15.9 4.35 15.9 4.95 14.25 L0.05 14.75 M20.95 5.65 Q20.25 1.9 22.25 -2.3" ffdec:has-small-stroke="true" ffdec:original-stroke-width="0.05" fill="none" stroke="#34454b" stroke-linecap="round" stroke-linejoin="round" stroke-width="1.0"/>
    <path d="M15.9 -6.85 L13.55 -6.85 Q9.6 -6.6 7.1 -4.95 L6.55 -4.55 Q5.35 -3.7 4.85 -3.05 4.55 -2.65 4.55 -2.25 L4.55 -2.2 4.6 -1.95 4.85 -1.5 Q5.65 -0.5 8.3 -0.15 L9.85 0.2 6.75 -0.4 Q4.1 -0.75 3.3 -1.75 L3.05 -2.2 3.0 -2.45 3.0 -2.5 Q3.0 -2.9 3.3 -3.3 L5.0 -4.8 5.55 -5.2 Q8.05 -6.85 12.0 -7.1 L15.9 -6.85" fill="#ffffff" fill-rule="evenodd" stroke="none"/>
    <path d="M4.25 -4.85 Q3.05 -3.4 3.0 -2.95 4.0 -2.75 4.05 -2.35 4.0 -1.8 4.6 -1.3 5.2 -0.8 6.45 -0.35 L6.6 -0.3 9.35 0.35 12.4 0.55 15.65 0.3 18.35 -0.35 Q19.55 -0.75 20.15 -1.25 20.8 -1.75 20.8 -2.35 L20.65 -2.9 20.65 -4.75 Q23.1 -3.75 23.35 -2.4 L23.35 -2.15 23.35 -2.1 Q23.35 -1.1 22.1 -0.3 L20.9 0.35 20.7 0.4 20.1 0.65 15.95 1.6 15.8 1.6 12.35 1.8 10.9 1.8 9.25 1.65 6.5 1.2 6.5 4.9 4.5 4.35 Q1.3 3.2 1.3 1.55 L1.35 1.25 1.3 -2.2 Q1.35 -3.75 4.25 -4.85" fill="#c5d1d8" fill-rule="evenodd" stroke="none"/>
    <path d="M20.7 0.4 L20.9 0.35 22.1 -0.3 Q23.35 -1.1 23.35 -2.1 L23.35 1.55 Q23.35 3.05 20.7 4.1 L20.7 0.4" fill="#34454b" fill-rule="evenodd" stroke="none"/>
    <path d="M9.25 1.65 L10.9 1.8 Q9.85 3.9 10.9 5.5 L9.25 5.35 Q10.2 3.5 9.25 1.65" fill="#ffffff" fill-rule="evenodd" stroke="none"/>
    <path d="M10.9 1.8 L12.35 1.8 15.8 1.6 15.95 1.6 20.1 0.65 20.7 0.4 20.7 4.1 20.1 4.35 Q16.9 5.5 12.35 5.5 L10.9 5.5 Q9.85 3.9 10.9 1.8" fill="#6d8f9c" fill-rule="evenodd" stroke="none"/>
    <path d="M6.5 4.9 L6.5 1.2 9.25 1.65 Q10.2 3.5 9.25 5.35 L6.5 4.9" fill="#acbfc6" fill-rule="evenodd" stroke="none"/>
    <path d="M4.25 -4.85 Q1.35 -3.75 1.3 -2.2 L1.35 1.25 1.3 1.55 Q1.3 3.2 4.5 4.35 L6.5 4.9 9.25 5.35 10.9 5.5 12.35 5.5 Q16.9 5.5 20.1 4.35 L20.7 4.1 Q23.35 3.05 23.35 1.55 L23.35 -2.1 23.35 -2.15 23.35 -2.4 Q23.1 -3.75 20.65 -4.75" ffdec:has-small-stroke="true" ffdec:original-stroke-width="0.05" fill="none" stroke="#34454b" stroke-linecap="round" stroke-linejoin="round" stroke-width="1.0"/>
    <path d="M11.05 2.25 L10.7 2.35 10.35 2.25 10.25 1.9 10.35 1.55 10.7 1.45 11.05 1.55 11.2 1.9 11.05 2.25" fill="#ffffff" fill-rule="evenodd" stroke="none"/>
  </g>
</svg>
