<?xml version="1.0" encoding="UTF-8" standalone="no"?>
<svg xmlns:ffdec="https://www.free-decompiler.com/flash" xmlns:xlink="http://www.w3.org/1999/xlink" ffdec:objectType="shape" height="44.75px" width="44.75px" xmlns="http://www.w3.org/2000/svg">
  <g transform="matrix(1.0, 0.0, 0.0, 1.0, -246.55, -191.25)">
    <path d="M250.65 200.65 L253.1 197.8 Q256.5 194.4 260.6 192.8 264.45 191.25 268.95 191.25 L271.5 191.4 Q279.15 192.15 284.8 197.8 291.15 204.15 291.3 213.15 L291.3 213.65 Q291.3 217.65 290.05 221.2 L289.7 222.1 285.4 223.85 288.1 217.4 Q290.0 212.25 287.55 206.6 285.1 200.95 279.55 197.5 274.0 194.05 267.95 193.9 261.25 193.7 258.25 195.45 252.75 197.85 250.65 200.65" fill="#e29e4b" fill-rule="evenodd" stroke="none"/>
    <path d="M248.45 222.85 Q246.55 218.6 246.55 213.65 246.55 206.5 250.4 201.0 L250.65 200.65 Q252.75 197.85 258.25 195.45 261.25 193.7 267.95 193.9 274.0 194.05 279.55 197.5 285.1 200.95 287.55 206.6 290.0 212.25 288.1 217.4 L285.4 223.85 Q282.9 227.55 278.25 229.6 L271.95 230.15 273.5 228.3 Q274.7 226.45 275.1 223.9 L275.25 223.35 Q275.95 218.85 273.85 214.65 271.65 210.55 267.9 209.3 L260.75 206.8 Q257.55 205.7 254.75 207.15 L253.8 207.8 Q250.5 210.15 249.75 214.65 L249.7 215.2 Q248.95 219.75 251.25 223.85 L251.8 224.8 248.45 222.85 M270.75 198.35 L270.35 203.2 270.75 198.35 M277.35 202.25 L275.8 203.8 277.35 202.25 M280.85 205.15 L276.2 209.05 280.85 205.15" fill="#ffcc00" fill-rule="evenodd" stroke="none"/>
    <path d="M251.8 224.8 L251.25 223.85 Q248.95 219.75 249.7 215.2 L249.75 214.65 Q250.5 210.15 253.8 207.8 L254.75 207.15 Q257.55 205.7 260.75 206.8 L267.9 209.3 Q271.65 210.55 273.85 214.65 275.95 218.85 275.25 223.35 L275.1 223.9 Q274.7 226.45 273.5 228.3 L271.95 230.15 271.25 230.7 269.65 231.6 264.2 231.75 257.05 229.3 255.3 228.5 Q253.2 227.25 251.8 224.8" fill="#493a29" fill-opacity="0.39215687" fill-rule="evenodd" stroke="none"/>
    <path d="M289.7 222.1 Q288.1 226.15 284.8 229.45 278.25 236.0 268.95 236.0 259.6 236.0 253.1 229.45 250.05 226.45 248.45 222.85 L251.8 224.8 Q253.2 227.25 255.3 228.5 L257.05 229.3 264.2 231.75 269.65 231.6 271.25 230.7 271.95 230.15 278.25 229.6 Q282.9 227.55 285.4 223.85 L289.7 222.1" fill="#db9122" fill-rule="evenodd" stroke="none"/>
    <path d="M271.95 230.15 L273.5 228.3 Q274.7 226.45 275.1 223.9 L275.25 223.35 Q275.95 218.85 273.85 214.65 271.65 210.55 267.9 209.3 L260.75 206.8 Q257.55 205.7 254.75 207.15 L253.8 207.8 Q250.5 210.15 249.75 214.65 L249.7 215.2 Q248.95 219.75 251.25 223.85 L251.8 224.8 Q253.2 227.25 255.3 228.5 L257.05 229.3 264.2 231.75 269.65 231.6 271.25 230.7 271.95 230.15" ffdec:has-small-stroke="true" ffdec:original-stroke-width="0.05" fill="none" stroke="#a37201" stroke-linecap="round" stroke-linejoin="round" stroke-width="1.0"/>
    <path d="M276.2 209.05 L280.85 205.15 M275.8 203.8 L277.35 202.25 M270.35 203.2 L270.75 198.35" fill="none" stroke="#fddf86" stroke-linecap="round" stroke-linejoin="round" stroke-width="1.5"/>
  </g>
</svg>
