<?xml version="1.0" encoding="UTF-8" standalone="no"?>
<svg xmlns:ffdec="https://www.free-decompiler.com/flash" xmlns:xlink="http://www.w3.org/1999/xlink" ffdec:objectType="shape" height="129.1px" width="131.7px" xmlns="http://www.w3.org/2000/svg">
  <g transform="matrix(1.0, 0.0, 0.0, 1.0, -192.35, -117.6)">
    <path d="M272.4 234.55 Q275.75 238.0 282.1 234.55 L278.2 246.7 272.4 234.55" fill="#ffffff" fill-rule="evenodd" stroke="none"/>
    <path d="M282.1 234.55 Q275.75 238.0 272.4 234.55 L268.6 228.55 283.7 229.5 282.1 234.55" fill="#c5b187" fill-rule="evenodd" stroke="none"/>
    <path d="M282.1 234.55 L283.7 229.5 M268.6 228.55 L272.4 234.55 278.2 246.7 282.1 234.55" ffdec:has-small-stroke="true" ffdec:original-stroke-width="0.05" fill="none" stroke="#596f6c" stroke-linecap="round" stroke-linejoin="round" stroke-width="1.0"/>
    <path d="M283.7 229.5 L268.6 228.55" ffdec:has-small-stroke="true" ffdec:original-stroke-width="0.25" fill="none" stroke="#4a4b27" stroke-linecap="round" stroke-linejoin="round" stroke-width="1.0"/>
    <path d="M308.8 236.15 L299.2 218.0 314.3 218.95 308.8 236.15" fill="#c5b187" fill-rule="evenodd" stroke="none"/>
    <path d="M299.2 218.0 L308.8 236.15" ffdec:has-small-stroke="true" ffdec:original-stroke-width="0.05" fill="none" stroke="#596f6c" stroke-linecap="round" stroke-linejoin="round" stroke-width="1.0"/>
    <path d="M314.3 218.95 L299.2 218.0" ffdec:has-small-stroke="true" ffdec:original-stroke-width="0.25" fill="none" stroke="#4a4b27" stroke-linecap="round" stroke-linejoin="round" stroke-width="1.0"/>
    <path d="M192.5 124.8 Q192.7 120.95 193.4 117.7 L254.25 139.65 266.95 152.85 287.15 165.85 287.95 167.6 Q268.95 176.3 238.15 151.2 L238.6 149.9 216.8 134.45 192.5 124.8 M301.4 184.5 L303.95 184.75 309.85 185.4 310.5 185.4 311.3 193.9 312.1 202.45 282.6 197.55 274.15 185.75 301.3 185.2 301.4 184.5" fill="#b3c07a" fill-rule="evenodd" stroke="none"/>
    <path d="M192.5 124.8 L216.8 134.45 238.6 149.9 238.15 151.2 Q268.95 176.3 287.95 167.6 L294.5 179.45 301.4 184.5 301.3 185.2 274.15 185.75 252.35 200.2 251.3 214.25 Q215.55 218.5 206.6 217.0 210.35 207.2 226.15 189.7 L226.7 188.95 225.95 188.35 197.75 159.9 Q191.9 138.85 192.5 124.8 M321.75 189.15 L323.95 199.6 313.45 212.75 312.1 202.45 311.3 193.9 314.15 197.95 317.45 194.15 321.75 189.15 M279.95 229.3 L270.4 228.7 263.55 212.95 266.75 209.0 266.75 214.75 Q268.25 218.4 282.2 207.3 L291.0 212.2 Q289.85 208.3 287.55 204.85 L294.0 212.4 279.95 229.3 M235.05 160.1 L238.15 151.2 235.05 160.1 M228.9 177.0 L226.7 182.6 225.95 188.35 226.7 182.6 228.9 177.0 M283.45 213.9 Q279.4 207.6 274.25 215.95 L272.05 219.85 275.85 223.2 284.35 217.05 283.45 213.9 M317.0 199.7 L317.45 194.15 317.0 199.7" fill="#7a7e56" fill-rule="evenodd" stroke="none"/>
    <path d="M310.5 185.4 L321.0 185.5 321.75 189.15 317.45 194.15 314.15 197.95 311.3 193.9 310.5 185.4 M313.45 212.75 L314.3 226.7 302.2 228.8 283.7 229.5 279.95 229.3 294.0 212.4 287.55 204.85 Q289.85 208.3 291.0 212.2 L282.2 207.3 Q268.25 218.4 266.75 214.75 L266.75 209.0 263.55 212.95 270.4 228.7 268.6 228.55 254.6 225.5 252.4 214.05 251.3 214.25 252.35 200.2 274.15 185.75 282.6 197.55 312.1 202.45 313.45 212.75 M317.45 194.15 L317.55 193.1 317.45 194.15 M269.55 205.7 L269.05 205.7 268.85 206.0 269.55 205.7 274.25 203.3 284.85 201.95 285.35 201.95 287.55 204.85 285.35 201.95 284.85 201.95 274.25 203.3 269.55 205.7 268.85 206.0 269.05 205.7 269.55 205.7 M272.9 200.05 L272.7 200.35 273.2 200.05 272.9 200.05" fill="#9ead76" fill-rule="evenodd" stroke="none"/>
    <path d="M272.9 200.05 L273.2 200.05 272.7 200.35 272.9 200.05" fill="#669933" fill-rule="evenodd" stroke="none"/>
    <path d="M272.05 219.85 L274.25 215.95 Q279.4 207.6 283.45 213.9 L284.35 217.05 275.85 223.2 272.05 219.85" fill="#585a3f" fill-rule="evenodd" stroke="none"/>
    <path d="M287.95 167.6 L287.15 165.85 266.95 152.85 254.25 139.65 193.4 117.7 Q192.7 120.95 192.5 124.8 191.9 138.85 197.75 159.9 L225.95 188.35 226.7 182.6 228.9 177.0 M238.6 149.9 L238.15 151.2 235.05 160.1 M287.95 167.6 L294.5 179.45 301.4 184.5 M323.95 199.6 L313.45 212.75 314.3 226.7 302.2 228.8 283.7 229.5 M279.95 229.3 L270.4 228.7 M268.6 228.55 L254.6 225.5 252.4 214.05 251.3 214.25 Q215.55 218.5 206.6 217.0 210.35 207.2 226.15 189.7 L225.95 188.35 226.7 188.95 226.15 189.7 M317.55 193.1 L317.45 194.15 317.0 199.7 M311.3 193.9 L312.1 202.45 313.45 212.75 M311.3 193.9 L310.5 185.4 M291.0 212.2 Q289.85 208.3 287.55 204.85 L285.35 201.95 284.85 201.95 274.25 203.3 269.55 205.7 268.85 206.0 269.05 205.7 269.55 205.7 M283.45 213.9 Q279.4 207.6 274.25 215.95 L272.05 219.85" ffdec:has-small-stroke="true" ffdec:original-stroke-width="0.25" fill="none" stroke="#4a4b27" stroke-linecap="round" stroke-linejoin="round" stroke-width="1.0"/>
  </g>
</svg>
