<?xml version="1.0" encoding="UTF-8" standalone="no"?>
<svg xmlns:ffdec="https://www.free-decompiler.com/flash" xmlns:xlink="http://www.w3.org/1999/xlink" ffdec:objectType="shape" height="62.4px" width="52.45px" xmlns="http://www.w3.org/2000/svg">
  <g transform="matrix(1.0, 0.0, 0.0, 1.0, -262.25, -165.2)">
    <path d="M269.95 213.75 Q276.1 212.55 281.85 215.6 283.5 214.25 282.9 211.95 280.95 208.35 277.65 207.6 281.05 209.55 281.55 211.75 279.2 208.8 274.9 209.6 277.4 210.15 278.7 212.6 275.75 211.75 269.95 213.75" fill="url(#gradient0)" fill-rule="evenodd" stroke="none"/>
    <path d="M277.65 207.6 L275.0 207.45 Q269.7 207.85 266.35 214.8 268.15 214.1 269.95 213.75 275.75 211.75 278.7 212.6 277.4 210.15 274.9 209.6 279.2 208.8 281.55 211.75 281.05 209.55 277.65 207.6" fill="url(#gradient1)" fill-rule="evenodd" stroke="none"/>
    <path d="M287.35 223.7 Q287.8 216.95 285.05 210.4 285.95 208.7 287.85 209.5 290.75 211.8 291.65 215.55 289.8 211.65 288.05 210.95 290.55 213.75 290.2 218.45 289.65 215.65 287.6 214.1 288.5 217.4 287.35 223.7" fill="url(#gradient2)" fill-rule="evenodd" stroke="none"/>
    <path d="M291.65 215.55 L291.95 218.45 Q291.95 224.3 286.8 227.6 287.25 225.65 287.35 223.7 288.5 217.4 287.6 214.1 289.65 215.65 290.2 218.45 290.55 213.75 288.05 210.95 289.8 211.65 291.65 215.55" fill="url(#gradient3)" fill-rule="evenodd" stroke="none"/>
    <path d="M274.9 219.3 Q279.7 214.8 286.05 214.1 286.85 212.0 285.3 210.35 282.1 208.3 278.85 209.6 282.7 209.35 284.1 210.95 280.75 209.75 277.4 212.9 279.8 211.95 281.95 213.3 279.0 214.35 274.9 219.3" fill="url(#gradient4)" fill-rule="evenodd" stroke="none"/>
    <path d="M278.85 209.6 Q277.7 210.05 276.5 210.95 272.1 214.4 272.2 222.3 273.5 220.65 274.9 219.3 279.0 214.35 281.95 213.3 279.8 211.95 277.4 212.9 280.75 209.75 284.1 210.95 282.7 209.35 278.85 209.6" fill="url(#gradient5)" fill-rule="evenodd" stroke="none"/>
    <path d="M279.8 222.3 Q283.15 216.75 283.55 209.45 285.15 208.55 286.35 210.3 287.9 214.0 287.0 217.7 287.2 213.3 285.95 211.7 286.9 215.55 284.55 219.4 285.3 216.65 284.2 214.15 283.5 217.55 279.8 222.3" fill="url(#gradient6)" fill-rule="evenodd" stroke="none"/>
    <path d="M287.0 217.7 L286.05 220.4 Q283.55 225.5 277.65 225.4 L279.8 222.3 Q283.5 217.55 284.2 214.15 285.3 216.65 284.55 219.4 286.9 215.55 285.95 211.7 287.2 213.3 287.0 217.7" fill="url(#gradient7)" fill-rule="evenodd" stroke="none"/>
    <path d="M305.15 216.2 Q294.9 214.8 287.3 209.1 284.05 209.9 283.9 212.6 285.1 217.25 290.0 219.45 285.55 215.95 285.8 213.35 288.1 217.5 295.25 218.5 291.6 216.85 290.8 213.65 295.1 215.85 305.15 216.2" fill="url(#gradient8)" fill-rule="evenodd" stroke="none"/>
    <path d="M290.0 219.45 Q291.8 220.3 294.05 220.75 302.6 222.55 311.35 216.6 L305.15 216.2 Q295.1 215.85 290.8 213.65 291.6 216.85 295.25 218.5 288.1 217.5 285.8 213.35 285.55 215.95 290.0 219.45" fill="url(#gradient9)" fill-rule="evenodd" stroke="none"/>
    <path d="M271.15 196.4 Q277.95 204.8 286.95 208.9 288.1 212.1 285.95 213.5 281.35 214.45 276.75 211.15 282.2 213.45 284.2 212.1 279.45 211.95 274.7 206.05 278.1 208.55 281.2 207.85 276.95 205.05 271.15 196.4" fill="url(#gradient10)" fill-rule="evenodd" stroke="none"/>
    <path d="M276.75 211.15 L273.45 208.15 Q267.2 201.4 267.3 191.1 L271.15 196.4 Q276.95 205.05 281.2 207.85 278.1 208.55 274.7 206.05 279.45 211.95 284.2 212.1 282.2 213.45 276.75 211.15" fill="url(#gradient11)" fill-rule="evenodd" stroke="none"/>
    <path d="M278.3 183.25 Q279.95 196.75 286.3 209.85 285.5 213.35 282.6 211.85 277.5 207.3 275.0 199.8 278.95 207.6 281.7 208.9 277.1 203.4 275.95 193.95 277.8 199.5 281.25 202.55 278.85 195.85 278.3 183.25" fill="url(#gradient12)" fill-rule="evenodd" stroke="none"/>
    <path d="M275.0 199.8 Q274.1 197.05 273.5 194.0 271.4 182.25 277.7 175.25 277.8 179.25 278.3 183.25 278.85 195.85 281.25 202.55 277.8 199.5 275.95 193.95 277.1 203.4 281.7 208.9 278.95 207.6 275.0 199.8" fill="url(#gradient13)" fill-rule="evenodd" stroke="none"/>
    <path d="M287.6 179.25 Q284.6 194.25 285.85 211.35 284.05 214.55 281.9 211.4 279.0 203.9 279.25 194.7 280.15 204.95 282.15 207.9 279.95 199.65 282.1 189.15 281.8 195.95 283.85 201.0 283.95 192.7 287.6 179.25" fill="url(#gradient14)" fill-rule="evenodd" stroke="none"/>
    <path d="M279.25 194.7 Q279.35 191.35 279.85 187.85 281.9 174.5 289.8 170.65 288.5 174.9 287.6 179.25 283.95 192.7 283.85 201.0 281.8 195.95 282.1 189.15 279.95 199.65 282.15 207.9 280.15 204.95 279.25 194.7" fill="url(#gradient15)" fill-rule="evenodd" stroke="none"/>
    <path d="M298.1 182.45 Q290.75 196.0 287.3 212.6 284.45 215.2 283.15 211.7 282.1 203.85 285.0 195.2 283.1 205.15 284.35 208.4 284.35 200.1 289.5 190.55 287.35 196.95 288.1 202.3 290.5 194.35 298.1 182.45" fill="url(#gradient16)" fill-rule="evenodd" stroke="none"/>
    <path d="M285.0 195.2 Q286.05 192.05 287.6 188.75 293.45 176.55 302.75 174.7 300.25 178.4 298.1 182.45 290.5 194.35 288.1 202.3 287.35 196.95 289.5 190.55 284.35 200.1 284.35 208.4 283.1 205.15 285.0 195.2" fill="url(#gradient17)" fill-rule="evenodd" stroke="none"/>
    <path d="M308.65 201.4 Q299.35 207.7 293.3 209.3 297.25 210.6 302.25 209.1 294.85 213.25 288.5 212.3 290.95 213.95 298.55 213.15 291.9 215.05 286.0 213.15 283.35 211.45 285.5 208.9 298.15 207.25 308.65 201.4" fill="url(#gradient18)" fill-rule="evenodd" stroke="none"/>
    <path d="M298.55 213.15 Q290.95 213.95 288.5 212.3 294.85 213.25 302.25 209.1 297.25 210.6 293.3 209.3 299.35 207.7 308.65 201.4 L314.7 197.6 Q312.95 206.7 303.5 211.25 L298.55 213.15" fill="url(#gradient19)" fill-rule="evenodd" stroke="none"/>
    <path d="M303.85 192.4 Q297.25 202.35 292.05 206.6 296.3 205.85 300.55 202.3 294.95 209.4 288.5 211.5 291.45 211.85 298.5 207.6 292.8 212.4 286.45 213.4 283.25 213.15 284.35 209.9 295.9 202.55 303.85 192.4" fill="url(#gradient20)" fill-rule="evenodd" stroke="none"/>
    <path d="M303.85 192.4 L308.2 186.15 Q309.95 195.15 302.55 203.6 L298.5 207.6 Q291.45 211.85 288.5 211.5 294.95 209.4 300.55 202.3 296.3 205.85 292.05 206.6 297.25 202.35 303.85 192.4" fill="url(#gradient21)" fill-rule="evenodd" stroke="none"/>
    <path d="M300.65 181.55 Q295.2 195.5 290.25 202.55 294.8 199.8 298.75 193.95 293.9 204.4 287.35 209.6 290.5 208.6 297.4 200.75 292.05 208.65 285.4 212.7 281.95 213.7 282.55 209.65 293.8 196.25 300.65 181.55" fill="url(#gradient22)" fill-rule="evenodd" stroke="none"/>
    <path d="M300.65 181.55 L304.35 172.6 Q307.7 181.75 301.1 194.45 L297.4 200.75 Q290.5 208.6 287.35 209.6 293.9 204.4 298.75 193.95 294.8 199.8 290.25 202.55 295.2 195.5 300.65 181.55" fill="url(#gradient23)" fill-rule="evenodd" stroke="none"/>
    <path d="M269.95 215.15 Q275.6 212.2 281.95 213.4 283.2 211.6 282.05 209.6 279.4 206.65 276.0 206.95 279.75 207.85 280.75 209.8 277.8 207.65 273.85 209.7 276.35 209.45 278.15 211.45 275.1 211.55 269.95 215.15" fill="url(#gradient24)" fill-rule="evenodd" stroke="none"/>
    <path d="M276.0 206.95 L273.45 207.55 Q268.45 209.55 266.7 217.2 268.35 216.05 269.95 215.15 275.1 211.55 278.15 211.45 276.35 209.45 273.85 209.7 277.8 207.65 280.75 209.8 279.75 207.85 276.0 206.95" fill="url(#gradient25)" fill-rule="evenodd" stroke="none"/>
    <path d="M289.0 219.55 Q287.95 213.0 283.75 207.45 284.3 205.5 286.25 205.75 289.65 207.1 291.3 210.45 288.7 207.25 286.85 207.1 289.85 209.05 290.6 213.65 289.4 211.2 287.05 210.25 288.7 213.2 289.0 219.55" fill="url(#gradient26)" fill-rule="evenodd" stroke="none"/>
    <path d="M291.3 210.45 L292.25 213.15 Q293.6 218.8 289.35 223.55 L289.0 219.55 Q288.7 213.2 287.05 210.25 289.4 211.2 290.6 213.65 289.85 209.05 286.85 207.1 288.7 207.25 291.3 210.45" fill="url(#gradient27)" fill-rule="evenodd" stroke="none"/>
    <path d="M276.0 219.1 Q279.6 213.3 285.55 210.7 285.85 208.4 284.05 207.3 280.45 206.3 277.65 208.5 281.3 207.15 282.95 208.25 279.5 208.05 276.95 212.15 279.05 210.5 281.45 211.15 278.85 213.0 276.0 219.1" fill="url(#gradient28)" fill-rule="evenodd" stroke="none"/>
    <path d="M277.65 208.5 Q276.6 209.3 275.65 210.5 272.2 215.15 274.05 222.75 274.9 220.8 276.0 219.1 278.85 213.0 281.45 211.15 279.05 210.5 276.95 212.15 279.5 208.05 282.95 208.25 281.3 207.15 277.65 208.5" fill="url(#gradient29)" fill-rule="evenodd" stroke="none"/>
    <path d="M281.4 220.45 Q283.4 214.15 282.1 207.0 L285.05 206.95 Q287.4 210.1 287.35 213.9 286.45 209.6 284.95 208.4 286.75 211.85 285.4 216.25 285.4 213.4 283.85 211.3 283.95 214.8 281.4 220.45" fill="url(#gradient30)" fill-rule="evenodd" stroke="none"/>
    <path d="M287.35 213.9 L287.0 216.8 Q285.75 222.45 280.0 224.15 L281.4 220.45 Q283.95 214.8 283.85 211.3 285.4 213.4 285.4 216.25 286.75 211.85 284.95 208.4 286.45 209.6 287.35 213.9" fill="url(#gradient31)" fill-rule="evenodd" stroke="none"/>
    <path d="M304.55 207.05 Q294.35 208.85 285.75 205.55 282.75 207.3 283.2 209.95 285.45 214.1 290.65 214.8 285.6 212.65 285.3 210.1 288.4 213.45 295.55 212.2 291.65 211.75 290.15 208.9 294.8 209.75 304.55 207.05" fill="url(#gradient32)" fill-rule="evenodd" stroke="none"/>
    <path d="M290.65 214.8 Q292.6 215.0 294.9 214.85 303.55 214.0 310.7 205.65 L304.55 207.05 Q294.8 209.75 290.15 208.9 291.65 211.75 295.55 212.2 288.4 213.45 285.3 210.1 285.6 212.65 290.65 214.8" fill="url(#gradient33)" fill-rule="evenodd" stroke="none"/>
    <path d="M267.15 198.1 Q275.65 204.15 285.25 205.5 287.1 208.25 285.3 210.2 281.1 212.5 275.9 210.65 281.7 211.25 283.35 209.35 278.7 210.6 272.75 206.4 L279.45 206.2 Q274.75 204.7 267.15 198.1" fill="url(#gradient34)" fill-rule="evenodd" stroke="none"/>
    <path d="M275.9 210.65 Q274.05 209.95 272.05 208.75 264.45 204.1 262.25 194.1 264.65 196.3 267.15 198.1 274.75 204.7 279.45 206.2 L272.75 206.4 Q278.7 210.6 283.35 209.35 281.7 211.25 275.9 210.65" fill="url(#gradient35)" fill-rule="evenodd" stroke="none"/>
    <path d="M271.2 183.2 Q275.85 195.75 284.9 206.5 284.95 210.15 281.8 209.55 275.8 206.65 271.75 200.2 277.3 206.5 280.3 206.95 274.6 203.05 271.35 194.25 274.4 199.05 278.4 201.0 274.55 195.2 271.2 183.2" fill="url(#gradient36)" fill-rule="evenodd" stroke="none"/>
    <path d="M271.75 200.2 Q270.2 197.8 268.95 195.0 264.3 184.3 268.85 175.65 269.8 179.5 271.2 183.2 274.55 195.2 278.4 201.0 274.4 199.05 271.35 194.25 274.6 203.05 280.3 206.95 277.3 206.5 271.75 200.2" fill="url(#gradient37)" fill-rule="evenodd" stroke="none"/>
    <path d="M279.3 176.65 Q279.75 191.95 284.85 208.05 283.75 211.75 281.05 209.3 276.5 202.95 274.7 194.0 277.9 203.6 280.5 205.85 276.5 198.55 276.2 187.75 277.45 194.4 280.55 198.7 278.8 190.6 279.3 176.65" fill="url(#gradient38)" fill-rule="evenodd" stroke="none"/>
    <path d="M274.7 194.0 Q274.05 190.75 273.75 187.15 272.7 173.7 279.5 167.6 279.2 172.1 279.3 176.65 278.8 190.6 280.55 198.7 277.45 194.4 276.2 187.75 276.5 198.55 280.5 205.85 277.9 203.6 274.7 194.0" fill="url(#gradient39)" fill-rule="evenodd" stroke="none"/>
    <path d="M290.15 176.55 Q286.1 191.85 286.45 208.85 284.3 212.25 282.3 209.25 279.5 202.0 280.35 192.75 280.75 202.95 282.7 205.7 280.8 197.65 283.7 186.9 283.05 193.75 284.9 198.65 285.45 190.3 290.15 176.55" fill="url(#gradient40)" fill-rule="evenodd" stroke="none"/>
    <path d="M280.35 192.75 Q280.65 189.35 281.45 185.8 284.3 172.25 292.95 167.65 291.35 172.0 290.15 176.55 285.45 190.3 284.9 198.65 283.05 193.75 283.7 186.9 280.8 197.65 282.7 205.7 280.75 202.95 280.35 192.75" fill="url(#gradient41)" fill-rule="evenodd" stroke="none"/>
    <path d="M297.5 206.05 Q291.45 209.85 285.35 209.8 282.45 208.95 283.9 205.85 295.7 200.5 304.6 191.7 297.05 200.55 291.55 203.85 295.65 203.95 300.15 201.05 293.9 207.3 287.6 208.25 290.3 209.1 297.5 206.05" fill="url(#gradient42)" fill-rule="evenodd" stroke="none"/>
    <path d="M297.5 206.05 Q290.3 209.1 287.6 208.25 293.9 207.3 300.15 201.05 295.65 203.95 291.55 203.85 297.05 200.55 304.6 191.7 L309.6 186.25 Q309.95 195.55 301.8 202.75 L297.5 206.05" fill="url(#gradient43)" fill-rule="evenodd" stroke="none"/>
    <path d="M297.95 184.45 Q293.85 196.0 289.7 201.65 293.7 199.65 297.0 194.95 293.2 203.5 287.5 207.45 290.4 206.9 296.25 200.7 291.8 207.05 285.9 209.9 282.75 210.6 283.1 207.1 292.6 196.55 297.95 184.45" fill="url(#gradient44)" fill-rule="evenodd" stroke="none"/>
    <path d="M297.95 184.45 L300.8 177.15 Q304.45 185.3 299.2 195.65 L296.25 200.7 Q290.4 206.9 287.5 207.45 293.2 203.5 297.0 194.95 293.7 199.65 289.7 201.65 293.85 196.0 297.95 184.45" fill="url(#gradient45)" fill-rule="evenodd" stroke="none"/>
    <path d="M292.4 174.9 Q290.25 190.0 287.1 198.3 290.85 194.3 293.35 187.45 291.05 198.95 285.8 205.9 288.7 204.1 293.6 194.4 290.2 203.6 284.65 209.5 281.55 211.55 281.25 207.45 289.05 191.2 292.4 174.9" fill="url(#gradient46)" fill-rule="evenodd" stroke="none"/>
    <path d="M292.4 174.9 Q293.35 170.05 293.9 165.2 299.25 173.05 295.75 187.25 L293.6 194.4 Q288.7 204.1 285.8 205.9 291.05 198.95 293.35 187.45 290.85 194.3 287.1 198.3 290.25 190.0 292.4 174.9" fill="url(#gradient47)" fill-rule="evenodd" stroke="none"/>
  </g>
  <defs>
    <linearGradient gradientTransform="matrix(-0.0024, -0.0014, -0.0015, 0.0058, 280.05, 214.05)" gradientUnits="userSpaceOnUse" id="gradient0" spreadMethod="pad" x1="-819.2" x2="819.2">
      <stop offset="0.0" stop-color="#760c31"/>
      <stop offset="1.0" stop-color="#f54569"/>
    </linearGradient>
    <linearGradient gradientTransform="matrix(0.0073, -8.0E-4, 5.0E-4, -0.004, 274.3, 210.7)" gradientUnits="userSpaceOnUse" id="gradient1" spreadMethod="pad" x1="-819.2" x2="819.2">
      <stop offset="0.0" stop-color="#fdaac6"/>
      <stop offset="1.0" stop-color="#f87394"/>
    </linearGradient>
    <linearGradient gradientTransform="matrix(0.0012, 0.0027, -0.0044, 0.0013, 286.35, 212.5)" gradientUnits="userSpaceOnUse" id="gradient2" spreadMethod="pad" x1="-819.2" x2="819.2">
      <stop offset="0.0" stop-color="#760c31"/>
      <stop offset="1.0" stop-color="#f54569"/>
    </linearGradient>
    <linearGradient gradientTransform="matrix(1.0E-4, -0.008, 0.0031, -4.0E-4, 289.4, 219.05)" gradientUnits="userSpaceOnUse" id="gradient3" spreadMethod="pad" x1="-819.2" x2="819.2">
      <stop offset="0.0" stop-color="#fdaac6"/>
      <stop offset="1.0" stop-color="#f87394"/>
    </linearGradient>
    <linearGradient gradientTransform="matrix(-0.0027, 2.0E-4, 0.0012, 0.0059, 283.8, 213.85)" gradientUnits="userSpaceOnUse" id="gradient4" spreadMethod="pad" x1="-819.2" x2="819.2">
      <stop offset="0.0" stop-color="#760c31"/>
      <stop offset="1.0" stop-color="#f54569"/>
    </linearGradient>
    <linearGradient gradientTransform="matrix(0.006, -0.0049, -0.0013, -0.0038, 277.35, 214.2)" gradientUnits="userSpaceOnUse" id="gradient5" spreadMethod="pad" x1="-819.2" x2="819.2">
      <stop offset="0.0" stop-color="#fdaac6"/>
      <stop offset="1.0" stop-color="#f87394"/>
    </linearGradient>
    <linearGradient gradientTransform="matrix(-1.0E-4, 0.0031, -0.0044, -0.0014, 283.8, 212.05)" gradientUnits="userSpaceOnUse" id="gradient6" spreadMethod="pad" x1="-819.2" x2="819.2">
      <stop offset="0.0" stop-color="#760c31"/>
      <stop offset="1.0" stop-color="#f54569"/>
    </linearGradient>
    <linearGradient gradientTransform="matrix(0.0036, -0.0069, 0.0028, 0.0014, 283.6, 219.5)" gradientUnits="userSpaceOnUse" id="gradient7" spreadMethod="pad" x1="-819.2" x2="819.2">
      <stop offset="0.0" stop-color="#fdaac6"/>
      <stop offset="1.0" stop-color="#f87394"/>
    </linearGradient>
    <linearGradient gradientTransform="matrix(0.0031, 0.0025, 0.0052, -0.0055, 289.35, 211.55)" gradientUnits="userSpaceOnUse" id="gradient8" spreadMethod="pad" x1="-819.2" x2="819.2">
      <stop offset="0.0" stop-color="#760c31"/>
      <stop offset="1.0" stop-color="#f54569"/>
    </linearGradient>
    <linearGradient gradientTransform="matrix(-0.0119, -0.0022, -0.0029, 0.004, 296.8, 217.6)" gradientUnits="userSpaceOnUse" id="gradient9" spreadMethod="pad" x1="-819.2" x2="819.2">
      <stop offset="0.0" stop-color="#fdaac6"/>
      <stop offset="1.0" stop-color="#f87394"/>
    </linearGradient>
    <linearGradient gradientTransform="matrix(-0.0038, -0.0016, 0.0017, -0.007, 283.8, 208.15)" gradientUnits="userSpaceOnUse" id="gradient10" spreadMethod="pad" x1="-819.2" x2="819.2">
      <stop offset="0.0" stop-color="#760c31"/>
      <stop offset="1.0" stop-color="#f54569"/>
    </linearGradient>
    <linearGradient gradientTransform="matrix(0.0085, 0.0095, -0.0018, 0.0043, 274.6, 204.35)" gradientUnits="userSpaceOnUse" id="gradient11" spreadMethod="pad" x1="-819.2" x2="819.2">
      <stop offset="0.0" stop-color="#fdaac6"/>
      <stop offset="1.0" stop-color="#f87394"/>
    </linearGradient>
    <linearGradient gradientTransform="matrix(-0.0027, -0.0054, 0.0059, -0.0029, 283.6, 205.7)" gradientUnits="userSpaceOnUse" id="gradient12" spreadMethod="pad" x1="-819.2" x2="819.2">
      <stop offset="0.0" stop-color="#760c31"/>
      <stop offset="1.0" stop-color="#f54569"/>
    </linearGradient>
    <linearGradient gradientTransform="matrix(0.0026, 0.0161, -0.0043, 9.0E-4, 276.95, 192.65)" gradientUnits="userSpaceOnUse" id="gradient13" spreadMethod="pad" x1="-819.2" x2="819.2">
      <stop offset="0.0" stop-color="#fdaac6"/>
      <stop offset="1.0" stop-color="#f87394"/>
    </linearGradient>
    <linearGradient gradientTransform="matrix(-6.0E-4, -0.0071, 0.0062, 2.0E-4, 284.95, 205.55)" gradientUnits="userSpaceOnUse" id="gradient14" spreadMethod="pad" x1="-819.2" x2="819.2">
      <stop offset="0.0" stop-color="#760c31"/>
      <stop offset="1.0" stop-color="#f54569"/>
    </linearGradient>
    <linearGradient gradientTransform="matrix(-0.0043, 0.0153, -0.0045, -0.0022, 283.95, 186.75)" gradientUnits="userSpaceOnUse" id="gradient15" spreadMethod="pad" x1="-819.2" x2="819.2">
      <stop offset="0.0" stop-color="#fdaac6"/>
      <stop offset="1.0" stop-color="#f87394"/>
    </linearGradient>
    <linearGradient gradientTransform="matrix(0.0013, -0.0069, 0.0064, 0.0016, 287.9, 206.85)" gradientUnits="userSpaceOnUse" id="gradient16" spreadMethod="pad" x1="-819.2" x2="819.2">
      <stop offset="0.0" stop-color="#760c31"/>
      <stop offset="1.0" stop-color="#f54569"/>
    </linearGradient>
    <linearGradient gradientTransform="matrix(-0.006, 0.0147, -0.0048, -0.0026, 291.25, 191.4)" gradientUnits="userSpaceOnUse" id="gradient17" spreadMethod="pad" x1="-819.2" x2="819.2">
      <stop offset="0.0" stop-color="#fdaac6"/>
      <stop offset="1.0" stop-color="#f87394"/>
    </linearGradient>
    <linearGradient gradientTransform="matrix(0.0053, -6.0E-4, -0.001, -0.0066, 289.8, 208.95)" gradientUnits="userSpaceOnUse" id="gradient18" spreadMethod="pad" x1="-819.2" x2="819.2">
      <stop offset="0.0" stop-color="#760c31"/>
      <stop offset="1.0" stop-color="#f54569"/>
    </linearGradient>
    <linearGradient gradientTransform="matrix(-0.014, 0.0062, -0.0015, -0.0046, 301.65, 207.7)" gradientUnits="userSpaceOnUse" id="gradient19" spreadMethod="pad" x1="-819.2" x2="819.2">
      <stop offset="0.0" stop-color="#fdaac6"/>
      <stop offset="1.0" stop-color="#f87394"/>
    </linearGradient>
    <linearGradient gradientTransform="matrix(0.0049, -0.003, -0.0034, -0.0054, 288.55, 207.9)" gradientUnits="userSpaceOnUse" id="gradient20" spreadMethod="pad" x1="-819.2" x2="819.2">
      <stop offset="0.0" stop-color="#760c31"/>
      <stop offset="1.0" stop-color="#f54569"/>
    </linearGradient>
    <linearGradient gradientTransform="matrix(-0.0114, 0.0118, -0.0031, -0.0038, 299.15, 201.35)" gradientUnits="userSpaceOnUse" id="gradient21" spreadMethod="pad" x1="-819.2" x2="819.2">
      <stop offset="0.0" stop-color="#fdaac6"/>
      <stop offset="1.0" stop-color="#f87394"/>
    </linearGradient>
    <linearGradient gradientTransform="matrix(0.0047, -0.0055, -0.0046, -0.0045, 286.75, 205.55)" gradientUnits="userSpaceOnUse" id="gradient22" spreadMethod="pad" x1="-819.2" x2="819.2">
      <stop offset="0.0" stop-color="#760c31"/>
      <stop offset="1.0" stop-color="#f54569"/>
    </linearGradient>
    <linearGradient gradientTransform="matrix(-0.0051, 0.0101, -0.0036, -0.0024, 301.1, 186.85)" gradientUnits="userSpaceOnUse" id="gradient23" spreadMethod="pad" x1="-819.2" x2="819.2">
      <stop offset="0.0" stop-color="#fdaac6"/>
      <stop offset="1.0" stop-color="#f87394"/>
    </linearGradient>
    <linearGradient gradientTransform="matrix(-0.0026, -6.0E-4, -2.0E-4, 0.006, 279.85, 212.45)" gradientUnits="userSpaceOnUse" id="gradient24" spreadMethod="pad" x1="-819.2" x2="819.2">
      <stop offset="0.0" stop-color="#760c31"/>
      <stop offset="1.0" stop-color="#f54569"/>
    </linearGradient>
    <linearGradient gradientTransform="matrix(0.0069, -0.003, -4.0E-4, -0.004, 273.5, 210.9)" gradientUnits="userSpaceOnUse" id="gradient25" spreadMethod="pad" x1="-819.2" x2="819.2">
      <stop offset="0.0" stop-color="#fdaac6"/>
      <stop offset="1.0" stop-color="#f87394"/>
    </linearGradient>
    <linearGradient gradientTransform="matrix(0.0018, 0.0022, -0.004, 0.0026, 285.5, 209.05)" gradientUnits="userSpaceOnUse" id="gradient26" spreadMethod="pad" x1="-819.2" x2="819.2">
      <stop offset="0.0" stop-color="#760c31"/>
      <stop offset="1.0" stop-color="#f54569"/>
    </linearGradient>
    <linearGradient gradientTransform="matrix(-0.0017, -0.0078, 0.0029, -0.0013, 289.95, 214.5)" gradientUnits="userSpaceOnUse" id="gradient27" spreadMethod="pad" x1="-819.2" x2="819.2">
      <stop offset="0.0" stop-color="#fdaac6"/>
      <stop offset="1.0" stop-color="#f87394"/>
    </linearGradient>
    <linearGradient gradientTransform="matrix(-0.0025, 9.0E-4, 0.0025, 0.0053, 283.35, 211.05)" gradientUnits="userSpaceOnUse" id="gradient28" spreadMethod="pad" x1="-819.2" x2="819.2">
      <stop offset="0.0" stop-color="#760c31"/>
      <stop offset="1.0" stop-color="#f54569"/>
    </linearGradient>
    <linearGradient gradientTransform="matrix(0.0046, -0.0065, -0.002, -0.0033, 277.15, 213.4)" gradientUnits="userSpaceOnUse" id="gradient29" spreadMethod="pad" x1="-819.2" x2="819.2">
      <stop offset="0.0" stop-color="#fdaac6"/>
      <stop offset="1.0" stop-color="#f87394"/>
    </linearGradient>
    <linearGradient gradientTransform="matrix(6.0E-4, 0.003, -0.0046, 0.0, 282.95, 209.4)" gradientUnits="userSpaceOnUse" id="gradient30" spreadMethod="pad" x1="-819.2" x2="819.2">
      <stop offset="0.0" stop-color="#760c31"/>
      <stop offset="1.0" stop-color="#f54569"/>
    </linearGradient>
    <linearGradient gradientTransform="matrix(0.0019, -0.0077, 0.0031, 5.0E-4, 284.45, 216.6)" gradientUnits="userSpaceOnUse" id="gradient31" spreadMethod="pad" x1="-819.2" x2="819.2">
      <stop offset="0.0" stop-color="#fdaac6"/>
      <stop offset="1.0" stop-color="#f87394"/>
    </linearGradient>
    <linearGradient gradientTransform="matrix(0.0035, 0.0015, 0.0038, -0.0069, 288.25, 207.25)" gradientUnits="userSpaceOnUse" id="gradient32" spreadMethod="pad" x1="-819.2" x2="819.2">
      <stop offset="0.0" stop-color="#760c31"/>
      <stop offset="1.0" stop-color="#f54569"/>
    </linearGradient>
    <linearGradient gradientTransform="matrix(-0.012, 0.0014, -0.0018, 0.0047, 296.8, 210.95)" gradientUnits="userSpaceOnUse" id="gradient33" spreadMethod="pad" x1="-819.2" x2="819.2">
      <stop offset="0.0" stop-color="#fdaac6"/>
      <stop offset="1.0" stop-color="#f87394"/>
    </linearGradient>
    <linearGradient gradientTransform="matrix(-0.004, -4.0E-4, 1.0E-4, -0.0073, 282.05, 205.7)" gradientUnits="userSpaceOnUse" id="gradient34" spreadMethod="pad" x1="-819.2" x2="819.2">
      <stop offset="0.0" stop-color="#760c31"/>
      <stop offset="1.0" stop-color="#f54569"/>
    </linearGradient>
    <linearGradient gradientTransform="matrix(0.0103, 0.0066, -7.0E-4, 0.0047, 272.3, 204.7)" gradientUnits="userSpaceOnUse" id="gradient35" spreadMethod="pad" x1="-819.2" x2="819.2">
      <stop offset="0.0" stop-color="#fdaac6"/>
      <stop offset="1.0" stop-color="#f87394"/>
    </linearGradient>
    <linearGradient gradientTransform="matrix(-0.0039, -0.0044, 0.0051, -0.0046, 281.45, 203.3)" gradientUnits="userSpaceOnUse" id="gradient36" spreadMethod="pad" x1="-819.2" x2="819.2">
      <stop offset="0.0" stop-color="#760c31"/>
      <stop offset="1.0" stop-color="#f54569"/>
    </linearGradient>
    <linearGradient gradientTransform="matrix(0.0062, 0.0148, -0.004, 0.0022, 271.95, 192.7)" gradientUnits="userSpaceOnUse" id="gradient37" spreadMethod="pad" x1="-819.2" x2="819.2">
      <stop offset="0.0" stop-color="#fdaac6"/>
      <stop offset="1.0" stop-color="#f87394"/>
    </linearGradient>
    <linearGradient gradientTransform="matrix(-0.0022, -0.0067, 0.006, -0.0016, 282.6, 202.8)" gradientUnits="userSpaceOnUse" id="gradient38" spreadMethod="pad" x1="-819.2" x2="819.2">
      <stop offset="0.0" stop-color="#760c31"/>
      <stop offset="1.0" stop-color="#f54569"/>
    </linearGradient>
    <linearGradient gradientTransform="matrix(-7.0E-4, 0.0161, -0.0048, -7.0E-4, 277.5, 184.95)" gradientUnits="userSpaceOnUse" id="gradient39" spreadMethod="pad" x1="-819.2" x2="819.2">
      <stop offset="0.0" stop-color="#fdaac6"/>
      <stop offset="1.0" stop-color="#f87394"/>
    </linearGradient>
    <linearGradient gradientTransform="matrix(-3.0E-4, -0.0071, 0.0066, -3.0E-4, 285.75, 203.2)" gradientUnits="userSpaceOnUse" id="gradient40" spreadMethod="pad" x1="-819.2" x2="819.2">
      <stop offset="0.0" stop-color="#760c31"/>
      <stop offset="1.0" stop-color="#f54569"/>
    </linearGradient>
    <linearGradient gradientTransform="matrix(-0.0024, 0.016, -0.0052, -0.0011, 285.5, 187.2)" gradientUnits="userSpaceOnUse" id="gradient41" spreadMethod="pad" x1="-819.2" x2="819.2">
      <stop offset="0.0" stop-color="#fdaac6"/>
      <stop offset="1.0" stop-color="#f87394"/>
    </linearGradient>
    <linearGradient gradientTransform="matrix(0.005, -0.0021, -0.0024, -0.0061, 288.05, 204.6)" gradientUnits="userSpaceOnUse" id="gradient42" spreadMethod="pad" x1="-819.2" x2="819.2">
      <stop offset="0.0" stop-color="#760c31"/>
      <stop offset="1.0" stop-color="#f54569"/>
    </linearGradient>
    <linearGradient gradientTransform="matrix(-0.0121, 0.0102, -0.0025, -0.004, 299.25, 199.85)" gradientUnits="userSpaceOnUse" id="gradient43" spreadMethod="pad" x1="-819.2" x2="819.2">
      <stop offset="0.0" stop-color="#fdaac6"/>
      <stop offset="1.0" stop-color="#f87394"/>
    </linearGradient>
    <linearGradient gradientTransform="matrix(0.004, -0.0043, -0.0045, -0.0042, 286.7, 203.9)" gradientUnits="userSpaceOnUse" id="gradient44" spreadMethod="pad" x1="-819.2" x2="819.2">
      <stop offset="0.0" stop-color="#760c31"/>
      <stop offset="1.0" stop-color="#f54569"/>
    </linearGradient>
    <linearGradient gradientTransform="matrix(-0.0083, 0.0148, -0.0038, -0.0028, 295.5, 194.5)" gradientUnits="userSpaceOnUse" id="gradient45" spreadMethod="pad" x1="-819.2" x2="819.2">
      <stop offset="0.0" stop-color="#fdaac6"/>
      <stop offset="1.0" stop-color="#f87394"/>
    </linearGradient>
    <linearGradient gradientTransform="matrix(0.0034, -0.0067, -0.0055, -0.003, 284.35, 202.25)" gradientUnits="userSpaceOnUse" id="gradient46" spreadMethod="pad" x1="-819.2" x2="819.2">
      <stop offset="0.0" stop-color="#760c31"/>
      <stop offset="1.0" stop-color="#f54569"/>
    </linearGradient>
    <linearGradient gradientTransform="matrix(-0.0027, 0.0113, -0.004, -0.0012, 294.0, 179.9)" gradientUnits="userSpaceOnUse" id="gradient47" spreadMethod="pad" x1="-819.2" x2="819.2">
      <stop offset="0.0" stop-color="#fdaac6"/>
      <stop offset="1.0" stop-color="#f87394"/>
    </linearGradient>
  </defs>
</svg>
