<?xml version="1.0" encoding="UTF-8" standalone="no"?>
<svg xmlns:ffdec="https://www.free-decompiler.com/flash" xmlns:xlink="http://www.w3.org/1999/xlink" ffdec:objectType="shape" height="25.45px" width="63.05px" xmlns="http://www.w3.org/2000/svg">
  <g transform="matrix(1.0, 0.0, 0.0, 1.0, -262.65, -188.6)">
    <path d="M262.75 204.45 Q263.15 200.85 271.9 198.3 L276.75 197.15 287.85 195.85 294.15 195.65 Q307.2 195.65 316.4 198.3 325.6 201.0 325.6 204.8 325.6 207.8 319.95 210.05 L319.6 210.05 Q310.3 210.05 302.3 207.55 L303.05 206.55 Q303.5 206.05 304.05 205.6 L304.75 205.05 305.2 204.75 305.6 204.05 305.5 204.05 298.05 203.7 Q291.1 204.8 285.7 200.6 L285.55 200.0 279.65 202.75 Q286.05 206.95 293.85 209.5 295.1 210.0 295.4 211.4 L295.65 213.95 294.15 213.95 Q282.3 213.95 273.65 211.75 L277.3 208.3 267.7 209.75 264.9 208.25 271.6 204.8 262.75 204.45" fill="#895e32" fill-rule="evenodd" stroke="none"/>
    <path d="M319.95 210.05 L316.4 211.25 Q307.75 213.8 295.65 213.95 L295.4 211.4 Q295.1 210.0 293.85 209.5 286.05 206.95 279.65 202.75 L285.55 200.0 285.7 200.6 Q291.1 204.8 298.05 203.7 L305.5 204.05 305.6 204.05 305.2 204.75 304.75 205.05 304.05 205.6 Q303.5 206.05 303.05 206.55 L302.3 207.55 Q310.3 210.05 319.6 210.05 L319.95 210.05" fill="#5f4929" fill-rule="evenodd" stroke="none"/>
    <path d="M262.75 204.45 Q263.15 200.85 271.9 198.3 L276.75 197.15 287.85 195.85 294.15 195.65 Q307.2 195.65 316.4 198.3 325.6 201.0 325.6 204.8 325.6 207.8 319.95 210.05 L316.4 211.25 Q307.75 213.8 295.65 213.95 L294.15 213.95 Q282.3 213.95 273.65 211.75 M267.7 209.75 L264.9 208.25" ffdec:has-small-stroke="true" ffdec:original-stroke-width="0.2" fill="none" stroke="#000000" stroke-linecap="round" stroke-linejoin="round" stroke-opacity="0.3882353" stroke-width="1.0"/>
    <path d="M273.65 211.75 L277.3 208.3 267.7 209.75 M264.9 208.25 L271.6 204.8 262.75 204.45" ffdec:has-small-stroke="true" ffdec:original-stroke-width="0.2" fill="none" stroke="#000000" stroke-linecap="round" stroke-linejoin="round" stroke-opacity="0.3882353" stroke-width="1.0"/>
    <path d="M302.45 203.3 L301.8 203.5 Q297.05 204.85 293.25 205.0 L287.7 203.85 289.85 193.3 293.5 194.25 300.0 193.75 301.1 193.3 302.45 203.3" fill="#895e32" fill-rule="evenodd" stroke="none"/>
    <path d="M288.5 192.85 L287.75 191.0 295.95 190.6 303.2 191.85 301.1 193.3 300.0 193.75 293.5 194.25 289.85 193.3 288.5 192.85" fill="#966536" fill-rule="evenodd" stroke="none"/>
    <path d="M303.4 191.3 Q303.25 194.65 305.15 200.85 L305.15 201.0 Q305.15 202.35 302.45 203.3 L301.1 193.3 303.2 191.85 303.4 191.3" fill="#d1a983" fill-rule="evenodd" stroke="none"/>
    <path d="M283.5 190.05 Q283.35 189.9 283.5 189.65 283.35 188.7 286.6 188.6 L300.15 189.25 Q303.15 189.5 303.4 191.0 303.25 191.15 303.4 191.3 L303.2 191.85 295.95 190.6 287.75 191.0 288.5 192.85 286.75 192.25 Q283.6 191.15 283.5 190.05 283.6 191.15 286.75 192.25 L288.5 192.85 289.85 193.3 287.7 203.85 284.85 203.1 Q281.45 202.1 281.45 200.65 L281.45 200.5 Q283.6 192.65 283.5 190.05" fill="#5f4929" fill-rule="evenodd" stroke="none"/>
    <path d="M303.4 191.3 Q303.25 194.65 305.15 200.85 L305.15 201.0 M281.45 200.65 L281.45 200.5 Q283.6 192.65 283.5 190.05" ffdec:has-small-stroke="true" ffdec:original-stroke-width="0.05" fill="none" stroke="#665539" stroke-linecap="round" stroke-linejoin="round" stroke-opacity="0.6" stroke-width="1.0"/>
    <path d="M283.5 190.05 Q283.35 189.9 283.5 189.65 283.35 188.7 286.6 188.6 L300.15 189.25 Q303.15 189.5 303.4 191.0 303.25 191.15 303.4 191.3 L303.2 191.85 301.1 193.3 300.0 193.75 293.5 194.25 289.85 193.3 288.5 192.85 286.75 192.25 Q283.6 191.15 283.5 190.05 Z" ffdec:has-small-stroke="true" ffdec:original-stroke-width="0.05" fill="none" stroke="#5e3e2c" stroke-linecap="round" stroke-linejoin="round" stroke-opacity="0.3019608" stroke-width="1.0"/>
    <path d="M286.8 205.0 L280.95 201.35 281.9 197.0 288.2 200.25 286.8 205.0" fill="#000000" fill-rule="evenodd" stroke="none"/>
    <path d="M288.2 200.25 L300.2 200.1 300.9 205.55 286.8 205.0 288.2 200.25" fill="#39271c" fill-rule="evenodd" stroke="none"/>
    <path d="M300.2 200.1 L304.8 197.15 305.5 201.35 300.9 205.55 300.2 200.1" fill="#5b3f2d" fill-rule="evenodd" stroke="none"/>
    <path d="M288.2 200.25 L300.2 200.1 304.8 197.15 305.5 201.35 300.9 205.55 286.8 205.0" ffdec:has-small-stroke="true" ffdec:original-stroke-width="0.05" fill="none" stroke="#5e3f2c" stroke-linecap="round" stroke-linejoin="round" stroke-opacity="0.3019608" stroke-width="1.0"/>
    <path d="M286.8 205.0 L280.95 201.35 281.9 197.0 288.2 200.25" ffdec:has-small-stroke="true" ffdec:original-stroke-width="0.05" fill="none" stroke="#5e3f2c" stroke-linecap="round" stroke-linejoin="round" stroke-opacity="0.3019608" stroke-width="1.0"/>
  </g>
</svg>
