<?xml version="1.0" encoding="UTF-8" standalone="no"?>
<svg xmlns:ffdec="https://www.free-decompiler.com/flash" xmlns:xlink="http://www.w3.org/1999/xlink" ffdec:objectType="shape" height="57.05px" width="60.25px" xmlns="http://www.w3.org/2000/svg">
  <g transform="matrix(1.0, 0.0, 0.0, 1.0, 30.1, 28.5)">
    <path d="M-9.75 20.1 L-16.9 17.6 -19.95 16.55 Q-18.85 1.5 -13.95 -12.25 L-13.3 -14.0 -13.35 -14.05 -9.85 -20.4 Q-14.65 -1.05 -9.3 8.15 4.5 -2.45 11.1 -23.25 L19.05 -20.75 Q6.55 5.65 -9.75 20.1" fill="#d2ba59" fill-rule="evenodd" stroke="none"/>
    <path d="M19.05 -20.75 L27.7 -18.0 13.75 28.55 -10.2 22.35 -9.75 20.1 Q6.55 5.65 19.05 -20.75 M-20.4 18.8 L-30.1 13.0 -14.3 -12.35 -13.95 -12.25 Q-18.85 1.5 -19.95 16.55 L-20.4 18.8 M-9.85 -20.4 L-5.35 -28.5 11.1 -23.25 Q4.5 -2.45 -9.3 8.15 -14.65 -1.05 -9.85 -20.4" fill="#ddca7d" fill-rule="evenodd" stroke="none"/>
    <path d="M27.7 -18.0 L30.15 -18.0 17.75 28.55 13.75 28.55 27.7 -18.0 M-16.9 17.6 L-20.4 18.8 -19.95 16.55 -16.9 17.6" fill="#a28a2d" fill-rule="evenodd" stroke="none"/>
    <path d="M19.05 -20.75 L27.7 -18.0 30.15 -18.0 17.75 28.55 13.75 28.55 -10.2 22.35 -9.75 20.1 -16.9 17.6 -20.4 18.8 -30.1 13.0 -14.3 -12.35 -13.35 -14.05 -9.85 -20.4 -5.35 -28.5 11.1 -23.25 19.05 -20.75 M27.7 -18.0 L13.75 28.55 M-19.95 16.55 L-16.9 17.6 M-13.3 -14.0 L-14.3 -12.35 M-19.95 16.55 L-20.4 18.8" ffdec:has-small-stroke="true" ffdec:original-stroke-width="0.05" fill="none" stroke="#47301b" stroke-linecap="round" stroke-linejoin="round" stroke-opacity="0.3019608" stroke-width="1.0"/>
    <path d="M20.85 4.25 L16.05 2.8 Q8.2 -0.95 2.05 -7.15 -5.7 -14.95 -7.4 -24.7 L-5.35 -28.5 27.35 -18.1 20.85 4.25" fill="#2c250c" fill-opacity="0.16078432" fill-rule="evenodd" stroke="none"/>
  </g>
</svg>
