<?xml version="1.0" encoding="UTF-8" standalone="no"?>
<svg xmlns:ffdec="https://www.free-decompiler.com/flash" xmlns:xlink="http://www.w3.org/1999/xlink" ffdec:objectType="shape" height="274.7px" width="283.5px" xmlns="http://www.w3.org/2000/svg">
  <g transform="matrix(1.0, 0.0, 0.0, 1.0, 141.3, 138.05)">
    <path d="M-23.15 -24.8 Q-21.15 -39.15 -22.15 -51.4 -23.65 -69.5 -28.95 -82.8 L-36.9 -102.95 Q-37.2 -105.3 -36.15 -107.75 -32.25 -117.05 -24.65 -123.85 -6.9 -139.85 16.25 -133.15 19.2 -132.35 22.25 -132.1 29.4 -131.45 34.05 -126.95 L34.15 -125.2 Q34.15 -122.75 33.0 -120.5 L30.65 -116.3 Q28.3 -112.5 24.0 -110.45 20.2 -108.6 16.25 -107.05 12.25 -105.5 7.95 -104.75 L-1.3 -103.6 Q-9.05 -103.05 -16.4 -105.5 -20.3 -106.8 -24.3 -107.45 -26.25 -107.8 -26.3 -105.7 L-26.35 -104.4 Q-27.0 -96.2 -24.6 -88.5 -22.65 -82.2 -19.65 -76.4 L-18.5 -73.85 Q-15.5 -65.8 -13.85 -57.4 -13.0 -53.05 -13.0 -48.6 L-13.0 -42.8 Q-13.0 -40.35 -13.5 -38.0 L-14.4 -33.9 Q-15.6 -28.75 -18.9 -24.6 -20.75 -22.25 -22.35 -23.95 L-23.15 -24.8 M11.15 -26.5 Q17.2 -36.15 23.95 -45.65 36.95 -63.9 54.5 -77.85 71.25 -91.1 91.8 -96.9 L99.4 -99.1 Q105.95 -100.9 110.35 -97.7 L104.9 -93.9 Q98.45 -88.7 98.4 -80.45 98.4 -79.1 98.8 -77.95 99.45 -76.15 99.15 -74.25 L98.7 -73.6 97.95 -73.3 89.55 -71.6 Q81.0 -69.65 73.1 -65.9 L68.45 -63.35 64.55 -60.8 Q60.2 -57.8 56.35 -54.25 L52.65 -50.9 48.0 -46.7 43.2 -41.8 38.3 -36.45 Q32.65 -30.55 28.8 -23.4 L24.7 -15.2 Q21.4 -7.9 16.6 -1.5 L12.8 3.6 Q10.5 6.75 7.65 8.7 6.35 9.6 5.4 8.5 4.9 7.9 4.75 7.2 4.45 5.7 4.5 4.15 4.65 -2.2 6.6 -8.3 7.8 -12.0 8.25 -15.9 8.6 -19.2 9.35 -22.4 L11.15 -26.5 M123.85 -48.8 L127.25 -45.4 127.2 -45.4 Q121.55 -46.9 115.65 -46.4 112.2 -46.1 109.35 -43.8 L106.95 -41.75 104.95 -39.8 Q98.55 -33.35 99.2 -24.2 99.25 -23.55 99.0 -23.45 97.7 -22.9 96.15 -22.9 L94.45 -22.7 92.6 -22.35 Q89.15 -22.0 85.9 -20.4 78.05 -16.5 70.95 -11.3 63.7 -6.05 56.8 -0.2 L51.75 4.05 Q44.85 9.7 38.5 16.0 35.95 18.6 32.7 20.4 L29.65 21.65 26.25 21.85 Q24.85 21.65 24.25 20.55 21.55 15.5 22.7 9.9 L23.1 8.1 Q35.05 -8.15 49.05 -22.7 63.8 -38.05 83.15 -47.4 103.4 -57.05 123.85 -48.8 M80.1 31.7 Q86.45 35.25 92.4 39.7 95.0 41.65 96.95 44.15 103.5 52.45 107.65 62.95 115.55 83.2 115.5 105.0 L113.8 104.55 Q109.05 103.4 104.15 103.15 97.95 102.9 93.95 107.8 92.85 109.2 91.25 109.9 89.45 110.75 88.2 108.25 L87.7 107.4 Q85.65 104.45 84.4 101.1 83.75 99.4 83.65 97.6 83.35 91.8 85.85 86.5 88.8 80.35 87.45 73.65 L86.1 68.0 Q84.45 62.15 81.65 56.8 79.4 52.5 75.7 49.35 72.2 46.4 69.4 42.75 68.45 41.55 68.5 40.5 68.55 38.7 69.35 37.3 70.3 35.55 72.35 34.45 76.1 32.4 80.1 31.7 M-45.05 101.65 Q-53.1 95.3 -65.55 92.55 -105.0 98.95 -108.35 79.55 -106.0 75.0 -103.3 70.55 -88.35 45.55 -74.95 36.55 L-70.5 33.55 Q-68.2 36.05 -65.35 37.35 -60.65 39.6 -55.75 41.2 -50.7 42.85 -46.95 44.95 L-45.55 45.6 -44.45 46.0 Q-46.75 47.35 -44.2 47.7 L-37.2 48.45 Q-26.45 49.1 -16.5 53.2 -14.55 54.0 -13.45 55.55 -13.0 56.2 -13.65 56.9 -14.8 58.2 -16.4 58.95 -23.1 62.3 -30.5 63.7 L-35.85 64.85 -37.2 65.25 Q-35.7 66.1 -33.65 66.0 L-31.4 66.15 Q-30.4 67.7 -32.7 68.55 -31.1 70.7 -28.3 71.9 -28.35 73.6 -30.55 73.5 -33.1 73.35 -34.95 75.0 -33.9 76.7 -33.2 78.45 -32.95 79.0 -33.85 79.6 L-36.65 81.35 -37.6 82.1 Q-29.0 82.8 -21.85 87.7 -19.45 89.4 -17.75 91.75 -17.0 92.75 -17.45 93.8 -17.9 94.95 -19.15 95.4 -21.45 96.3 -23.85 96.85 L-45.05 101.65 M-137.3 10.9 Q-138.6 6.7 -139.2 2.35 -119.65 -19.05 -91.3 -24.45 L-85.45 -24.85 -78.1 -23.5 -77.45 -22.85 Q-75.65 -21.05 -74.2 -18.95 -72.3 -16.2 -71.05 -13.15 -68.85 -7.7 -70.65 -2.45 -71.05 -1.2 -72.15 -1.25 L-80.55 -0.7 -82.8 -0.45 Q-85.1 -0.35 -87.2 0.6 -92.8 3.15 -96.3 8.3 -98.4 11.35 -99.8 14.7 -101.3 18.4 -103.3 21.8 -103.6 22.35 -104.15 22.55 -105.9 23.2 -106.85 22.0 L-108.65 19.8 -114.85 12.25 Q-119.7 5.95 -127.15 2.95 -130.9 1.45 -134.05 3.8 L-135.2 5.2 -137.3 10.9 M-129.4 -48.35 L-130.7 -52.55 Q-133.75 -65.1 -124.9 -74.5 -118.3 -81.55 -110.3 -87.05 -99.85 -94.25 -87.75 -97.65 -84.45 -98.7 -81.1 -97.7 -72.1 -95.1 -64.95 -88.95 -56.55 -81.7 -48.8 -73.65 -42.05 -66.65 -37.9 -57.8 -31.8 -44.75 -28.9 -30.65 L-26.85 -19.4 -27.1 -16.65 Q-27.75 -8.65 -32.75 -2.55 L-33.0 -2.3 -33.7 -1.9 -34.5 -2.05 Q-36.25 -2.85 -37.0 -4.75 -38.45 -8.35 -38.95 -12.2 -39.85 -18.65 -41.2 -25.05 L-41.95 -28.6 Q-43.45 -36.9 -46.95 -44.5 -48.0 -46.75 -49.35 -48.85 L-53.55 -56.1 Q-55.85 -60.55 -58.9 -64.45 -64.4 -71.45 -71.7 -76.45 L-74.75 -78.7 Q-76.65 -80.1 -78.2 -81.85 -79.55 -83.35 -81.45 -84.0 -82.1 -84.2 -82.65 -84.65 -83.3 -85.25 -84.1 -85.25 L-84.9 -85.15 Q-85.45 -84.85 -85.65 -84.35 -87.15 -80.45 -89.4 -76.85 L-92.3 -72.6 Q-96.95 -66.3 -102.75 -61.0 L-106.6 -57.3 Q-112.75 -51.3 -120.9 -48.6 -123.1 -47.85 -125.35 -47.75 -127.5 -47.65 -129.35 -48.35 L-129.4 -48.35" fill="#6c4900" fill-rule="evenodd" stroke="none"/>
    <path d="M-23.15 -24.8 L-22.35 -23.95 Q-20.75 -22.25 -18.9 -24.6 -15.6 -28.75 -14.4 -33.9 L-13.5 -38.0 Q-13.0 -40.35 -13.0 -42.8 L-13.0 -48.6 Q-13.0 -53.05 -13.85 -57.4 -15.5 -65.8 -18.5 -73.85 L-19.65 -76.4 Q-22.65 -82.2 -24.6 -88.5 -27.0 -96.2 -26.35 -104.4 L-26.3 -105.7 Q-26.25 -107.8 -24.3 -107.45 -20.3 -106.8 -16.4 -105.5 -9.05 -103.05 -1.3 -103.6 L7.95 -104.75 Q12.25 -105.5 16.25 -107.05 20.2 -108.6 24.0 -110.45 28.3 -112.5 30.65 -116.3 L33.0 -120.5 Q34.15 -122.75 34.15 -125.2 L34.05 -126.95 Q35.95 -125.1 37.45 -122.6 39.3 -119.45 38.25 -116.0 37.35 -112.95 36.0 -110.2 31.6 -101.35 28.05 -92.3 23.25 -80.1 19.25 -67.8 15.55 -56.4 13.45 -44.8 11.15 -40.4 8.5 -36.2 4.65 -30.15 1.25 -23.85 -2.85 -16.25 -6.0 -8.2 L-8.9 -0.35 Q-11.65 7.8 -13.55 15.9 L-13.55 15.95 Q-17.6 16.35 -21.5 15.2 -23.2 14.65 -24.45 13.3 -24.4 1.2 -25.7 -10.7 -24.1 -18.0 -23.15 -24.8 M11.4 -29.3 L11.15 -26.5 9.35 -22.4 Q8.6 -19.2 8.25 -15.9 7.8 -12.0 6.6 -8.3 4.65 -2.2 4.5 4.15 4.45 5.7 4.75 7.2 4.9 7.9 5.4 8.5 6.35 9.6 7.65 8.7 10.5 6.75 12.8 3.6 L16.6 -1.5 Q21.4 -7.9 24.7 -15.2 L28.8 -23.4 Q32.65 -30.55 38.3 -36.45 L43.2 -41.8 48.0 -46.7 52.65 -50.9 56.35 -54.25 Q60.2 -57.8 64.55 -60.8 L68.45 -63.35 73.1 -65.9 Q81.0 -69.65 89.55 -71.6 L97.95 -73.3 98.7 -73.6 99.15 -74.25 Q99.45 -76.15 98.8 -77.95 98.4 -79.1 98.4 -80.45 98.45 -88.7 104.9 -93.9 L110.35 -97.7 112.5 -95.7 Q118.15 -89.0 122.35 -81.2 129.2 -68.5 125.95 -55.15 L122.3 -56.55 107.25 -61.0 105.9 -61.15 105.0 -61.15 99.25 -60.5 97.5 -60.2 Q88.95 -59.0 80.7 -55.95 L76.8 -54.15 Q71.0 -50.8 65.2 -47.6 L60.0 -44.35 55.85 -41.05 49.5 -35.45 Q46.35 -32.8 43.6 -29.8 L33.15 -18.1 28.7 -12.5 Q23.4 -5.45 18.6 1.9 L12.6 11.35 Q9.45 16.35 6.45 21.45 -0.2 20.7 -5.55 16.4 -6.6 15.6 -6.65 14.15 L9.35 -22.4 Q10.15 -25.95 11.4 -29.3 M127.25 -45.4 Q132.6 -39.3 135.4 -31.35 143.05 -9.7 135.25 11.4 134.0 14.85 131.35 17.25 117.9 29.45 100.75 21.6 L97.6 19.8 Q91.8 16.4 87.25 11.75 L78.45 13.85 Q71.5 15.8 64.7 18.35 56.9 21.3 49.25 24.6 43.2 27.3 38.0 31.45 L34.25 34.4 32.45 36.1 Q29.15 40.0 25.25 43.5 L23.75 44.95 Q15.6 35.55 14.6 21.65 L14.6 20.4 20.15 12.1 23.1 8.1 22.7 9.9 Q21.55 15.5 24.25 20.55 24.85 21.65 26.25 21.85 L29.65 21.65 32.7 20.4 Q35.95 18.6 38.5 16.0 44.85 9.7 51.75 4.05 L56.8 -0.2 Q63.7 -6.05 70.95 -11.3 78.05 -16.5 85.9 -20.4 89.15 -22.0 92.6 -22.35 L94.45 -22.7 96.15 -22.9 Q97.7 -22.9 99.0 -23.45 99.25 -23.55 99.2 -24.2 98.55 -33.35 104.95 -39.8 L106.95 -41.75 109.35 -43.8 Q112.2 -46.1 115.65 -46.4 121.55 -46.9 127.2 -45.4 L127.25 -45.4 M115.5 105.0 L115.45 106.85 Q115.4 108.1 114.75 109.25 106.5 123.9 90.3 128.95 L86.0 129.55 Q68.3 129.3 63.0 112.35 61.85 108.65 61.8 104.95 L64.1 99.35 65.45 95.35 Q66.85 89.7 67.4 83.9 67.6 81.9 68.05 79.95 69.2 75.3 68.05 70.65 L67.1 67.0 Q64.35 56.1 55.4 49.35 56.15 48.4 57.7 47.3 64.1 42.85 69.35 37.3 68.55 38.7 68.5 40.5 68.45 41.55 69.4 42.75 72.2 46.4 75.7 49.35 79.4 52.5 81.65 56.8 84.45 62.15 86.1 68.0 L87.45 73.65 Q88.8 80.35 85.85 86.5 83.35 91.8 83.65 97.6 83.75 99.4 84.4 101.1 85.65 104.45 87.7 107.4 L88.2 108.25 Q89.45 110.75 91.25 109.9 92.85 109.2 93.95 107.8 97.95 102.9 104.15 103.15 109.05 103.4 113.8 104.55 L115.5 105.0 M33.05 65.05 L33.2 65.25 Q41.75 74.7 49.05 84.35 52.15 88.45 52.45 93.6 L53.9 119.5 54.15 126.1 40.5 133.15 41.0 123.3 Q41.2 118.9 40.95 114.45 40.8 111.8 39.9 109.3 39.0 106.7 37.75 104.2 37.05 102.7 36.0 101.45 L34.0 99.15 Q32.75 97.7 31.05 97.3 29.75 97.0 28.5 96.5 L24.8 96.65 Q22.65 97.65 20.35 98.3 13.95 100.15 9.85 105.65 L6.65 110.3 -0.4 115.05 -13.25 129.55 -30.15 135.15 Q-30.8 112.8 -45.05 101.65 L-23.85 96.85 Q-21.45 96.3 -19.15 95.4 -17.9 94.95 -17.45 93.8 -17.0 92.75 -17.75 91.75 -19.45 89.4 -21.85 87.7 -29.0 82.8 -37.6 82.1 L-36.65 81.35 -33.85 79.6 Q-32.95 79.0 -33.2 78.45 -33.9 76.7 -34.95 75.0 -33.1 73.35 -30.55 73.5 -28.35 73.6 -28.3 71.9 -31.1 70.7 -32.7 68.55 -30.4 67.7 -31.4 66.15 L-33.65 66.0 Q-35.7 66.1 -37.2 65.25 L-35.85 64.85 -30.5 63.7 Q-23.1 62.3 -16.4 58.95 -14.8 58.2 -13.65 56.9 -13.0 56.2 -13.45 55.55 -14.55 54.0 -16.5 53.2 -26.45 49.1 -37.2 48.45 L-44.2 47.7 Q-46.75 47.35 -44.45 46.0 L-45.55 45.6 -46.95 44.95 Q-50.7 42.85 -55.75 41.2 -60.65 39.6 -65.35 37.35 -68.2 36.05 -70.5 33.55 -61.05 27.45 -58.5 27.1 -54.5 26.65 -52.7 29.9 -51.2 32.5 -50.8 35.9 -50.75 36.55 -50.2 36.75 L-47.45 37.45 Q-40.15 38.8 -32.65 34.55 -27.0 31.35 -21.0 32.1 -22.35 33.9 -24.35 35.15 L-25.1 35.7 -26.3 36.65 Q-27.65 37.4 -28.5 38.6 -29.4 39.9 -29.95 41.85 L-29.95 42.3 Q-27.55 43.3 -24.8 43.2 L-21.7 43.35 -18.15 43.85 -1.7 46.95 Q1.75 47.7 4.85 49.45 6.25 50.25 7.25 51.35 11.95 56.55 18.2 59.9 20.4 61.1 22.7 61.85 L32.3 64.95 33.05 65.2 33.05 65.05 M-51.4 20.0 L-51.4 15.4 Q-52.15 11.15 -53.35 7.15 L-54.2 6.7 Q-56.0 5.5 -57.95 4.55 L-61.45 2.65 Q-63.75 1.2 -66.4 1.1 L-69.55 0.8 Q-72.7 0.4 -75.75 1.3 -77.55 1.8 -79.1 2.6 L-81.5 4.05 Q-89.05 9.1 -93.6 16.9 -95.95 20.95 -97.55 25.35 L-98.5 28.15 -98.9 29.85 Q-98.95 30.5 -99.15 31.15 -99.6 33.1 -101.5 34.1 -106.4 36.7 -112.0 36.05 L-116.95 35.4 -124.9 34.1 -126.05 33.95 Q-127.6 31.95 -128.8 29.5 L-133.0 21.2 Q-135.7 16.2 -137.3 10.9 L-135.2 5.2 -134.05 3.8 Q-130.9 1.45 -127.15 2.95 -119.7 5.95 -114.85 12.25 L-108.65 19.8 -106.85 22.0 Q-105.9 23.2 -104.15 22.55 -103.6 22.35 -103.3 21.8 -101.3 18.4 -99.8 14.7 -98.4 11.35 -96.3 8.3 -92.8 3.15 -87.2 0.6 -85.1 -0.35 -82.8 -0.45 L-80.55 -0.7 -72.15 -1.25 Q-71.05 -1.2 -70.65 -2.45 -68.85 -7.7 -71.05 -13.15 -72.3 -16.2 -74.2 -18.95 -75.65 -21.05 -77.45 -22.85 L-78.1 -23.5 Q-72.25 -22.05 -66.65 -19.5 -70.75 -25.15 -75.7 -30.15 -83.05 -37.55 -92.6 -41.5 -108.65 -48.1 -124.05 -39.5 -125.05 -40.2 -125.65 -41.15 -127.95 -44.55 -129.4 -48.35 L-129.35 -48.35 Q-127.5 -47.65 -125.35 -47.75 -123.1 -47.85 -120.9 -48.6 -112.75 -51.3 -106.6 -57.3 L-102.75 -61.0 Q-96.95 -66.3 -92.3 -72.6 L-89.4 -76.85 Q-87.15 -80.45 -85.65 -84.35 -85.45 -84.85 -84.9 -85.15 L-84.1 -85.25 Q-83.3 -85.25 -82.65 -84.65 -82.1 -84.2 -81.45 -84.0 -79.55 -83.35 -78.2 -81.85 -76.65 -80.1 -74.75 -78.7 L-71.7 -76.45 Q-64.4 -71.45 -58.9 -64.45 -55.85 -60.55 -53.55 -56.1 L-49.35 -48.85 Q-48.0 -46.75 -46.95 -44.5 -43.45 -36.9 -41.95 -28.6 L-41.2 -25.05 Q-39.85 -18.65 -38.95 -12.2 -38.45 -8.35 -37.0 -4.75 -36.25 -2.85 -34.5 -2.05 L-33.7 -1.9 -33.0 -2.3 -33.0 -1.65 -33.9 13.45 -33.95 14.3 -34.3 19.1 -34.3 19.15 Q-41.2 21.3 -49.2 19.25 -50.3 18.9 -51.0 19.6 L-51.4 20.0 M80.9 3.75 Q83.7 8.15 87.25 11.75 83.7 8.15 80.9 3.75 M-53.35 7.15 L-54.95 2.35 Q-59.45 -9.55 -66.65 -19.5 -59.45 -9.55 -54.95 2.35 L-53.35 7.15" fill="#402c00" fill-rule="evenodd" stroke="none"/>
    <path d="M13.45 -44.8 Q12.05 -37.1 11.4 -29.3 10.15 -25.95 9.35 -22.4 L-6.65 14.15 Q-10.15 15.6 -13.55 15.95 L-13.55 15.9 Q-11.65 7.8 -8.9 -0.35 L-6.0 -8.2 Q-2.85 -16.25 1.25 -23.85 4.65 -30.15 8.5 -36.2 11.15 -40.4 13.45 -44.8 M125.95 -55.15 Q125.2 -52.0 123.85 -48.8 103.4 -57.05 83.15 -47.4 63.8 -38.05 49.05 -22.7 35.05 -8.15 23.1 8.1 L20.15 12.1 14.6 20.4 14.1 21.25 6.45 21.45 Q9.45 16.35 12.6 11.35 L18.6 1.9 Q23.4 -5.45 28.7 -12.5 L33.15 -18.1 43.6 -29.8 Q46.35 -32.8 49.5 -35.45 L55.85 -41.05 60.0 -44.35 65.2 -47.6 Q71.0 -50.8 76.8 -54.15 L80.7 -55.95 Q88.95 -59.0 97.5 -60.2 L99.25 -60.5 105.0 -61.15 105.9 -61.15 107.25 -61.0 122.3 -56.55 125.95 -55.15 M100.75 21.6 L95.25 21.75 Q84.9 23.9 74.65 26.6 72.25 27.2 69.95 27.95 72.0 27.65 73.75 28.4 L80.1 31.7 Q76.1 32.4 72.35 34.45 70.3 35.55 69.35 37.3 64.1 42.85 57.7 47.3 56.15 48.4 55.4 49.35 64.35 56.1 67.1 67.0 L68.05 70.65 Q69.2 75.3 68.05 79.95 67.6 81.9 67.4 83.9 66.85 89.7 65.45 95.35 L64.1 99.35 61.8 104.95 Q61.7 101.4 62.65 97.9 65.35 87.5 64.9 76.9 64.8 74.25 63.7 71.95 55.3 54.7 37.35 47.6 L31.85 51.95 31.4 51.8 Q27.0 48.75 23.75 44.95 L25.25 43.5 Q29.15 40.0 32.45 36.1 L34.25 34.4 38.0 31.45 Q43.2 27.3 49.25 24.6 56.9 21.3 64.7 18.35 71.5 15.8 78.45 13.85 L87.25 11.75 Q91.8 16.4 97.6 19.8 L100.75 21.6 M-51.4 15.4 Q-59.65 10.6 -69.45 10.75 -71.3 10.1 -73.15 10.75 -85.7 15.5 -91.05 26.9 -92.05 28.95 -92.6 31.3 -93.9 37.1 -99.9 39.85 -107.15 43.25 -115.55 40.95 -122.05 39.05 -126.05 33.95 L-124.9 34.1 -116.95 35.4 -112.0 36.05 Q-106.4 36.7 -101.5 34.1 -99.6 33.1 -99.15 31.15 -98.95 30.5 -98.9 29.85 L-98.5 28.15 -97.55 25.35 Q-95.95 20.95 -93.6 16.9 -89.05 9.1 -81.5 4.05 L-79.1 2.6 Q-77.55 1.8 -75.75 1.3 -72.7 0.4 -69.55 0.8 L-66.4 1.1 Q-63.75 1.2 -61.45 2.65 L-57.95 4.55 Q-56.0 5.5 -54.2 6.7 L-53.35 7.15 Q-52.15 11.15 -51.4 15.4 M-26.85 -19.4 Q-26.2 -15.05 -25.7 -10.7 -24.4 1.2 -24.45 13.3 -26.55 15.2 -28.8 16.6 -31.45 18.2 -34.3 19.15 L-34.3 19.1 -33.95 14.3 -33.9 13.45 -33.0 -1.65 -33.0 -2.3 -32.75 -2.55 Q-27.75 -8.65 -27.1 -16.65 L-26.85 -19.4 M18.7 50.35 L19.45 50.9 Q27.25 56.65 33.05 65.05 L33.05 65.2 32.3 64.95 22.7 61.85 Q20.4 61.1 18.2 59.9 11.95 56.55 7.25 51.35 6.25 50.25 4.85 49.45 1.75 47.7 -1.7 46.95 L-18.15 43.85 -21.7 43.35 -24.8 43.2 Q-27.55 43.3 -29.95 42.3 L-29.95 41.85 Q-29.4 39.9 -28.5 38.6 -27.65 37.4 -26.3 36.65 L-25.1 35.7 -24.35 35.15 Q-22.35 33.9 -21.0 32.1 L-20.3 32.2 -20.4 40.2 -18.85 41.15 Q-13.2 43.6 -6.95 43.2 L4.7 43.8 Q7.4 44.05 9.85 45.15 14.55 47.4 18.7 50.35 M37.35 47.6 Q51.3 33.75 69.95 27.95 51.3 33.75 37.35 47.6" fill="#201500" fill-rule="evenodd" stroke="none"/>
    <path d="M31.85 51.95 L33.05 65.05 Q27.25 56.65 19.45 50.9 L18.7 50.35 18.95 47.15 18.5 46.35 17.45 44.85 16.2 43.3 Q13.25 39.75 11.05 35.65 10.65 34.95 10.6 34.25 10.4 31.65 9.7 29.4 L9.25 28.85 7.55 28.4 0.45 27.55 Q-0.65 27.45 -1.65 26.95 -3.9 25.85 -5.7 24.05 -7.3 22.45 -8.85 22.85 L-14.6 23.9 -17.55 23.65 Q-18.95 23.25 -19.95 21.95 -20.35 21.45 -20.9 21.3 L-21.7 21.25 Q-24.15 21.25 -26.55 21.9 L-28.45 22.35 -32.95 22.75 Q-37.7 24.9 -42.95 24.6 L-47.45 24.0 -50.5 23.7 Q-52.55 23.75 -54.35 22.85 L-51.4 20.0 -51.0 19.6 Q-50.3 18.9 -49.2 19.25 -41.2 21.3 -34.3 19.15 -31.45 18.2 -28.8 16.6 -26.55 15.2 -24.45 13.3 -23.2 14.65 -21.5 15.2 -17.6 16.35 -13.55 15.95 -10.15 15.6 -6.65 14.15 -6.6 15.6 -5.55 16.4 -0.2 20.7 6.45 21.45 L14.1 21.25 14.6 21.65 Q15.6 35.55 23.75 44.95 27.0 48.75 31.4 51.8 L31.85 51.95" fill="#004488" fill-rule="evenodd" stroke="none"/>
    <path d="M-28.45 22.35 L-26.55 21.9 Q-24.15 21.25 -21.7 21.25 L-20.9 21.3 Q-20.35 21.45 -19.95 21.95 -18.95 23.25 -17.55 23.65 L-14.6 23.9 -8.85 22.85 Q-7.3 22.45 -5.7 24.05 -3.9 25.85 -1.65 26.95 -0.65 27.45 0.45 27.55 L7.55 28.4 9.25 28.85 9.7 29.4 Q10.4 31.65 10.6 34.25 10.65 34.95 11.05 35.65 13.25 39.75 16.2 43.3 L17.45 44.85 18.5 46.35 18.95 47.15 18.7 50.35 Q14.55 47.4 9.85 45.15 7.4 44.05 4.7 43.8 L-6.95 43.2 Q-13.2 43.6 -18.85 41.15 L-20.4 40.2 -20.3 32.2 -21.0 32.1 Q-27.0 31.35 -32.65 34.55 -40.15 38.8 -47.45 37.45 -41.75 34.65 -36.75 30.75 L-32.2 27.3 Q-29.4 25.25 -28.45 22.35" fill="#0066cc" fill-rule="evenodd" stroke="none"/>
    <path d="M-58.5 27.1 L-54.35 22.85 Q-52.55 23.75 -50.5 23.7 L-47.45 24.0 -42.95 24.6 Q-37.7 24.9 -32.95 22.75 L-28.45 22.35 Q-29.4 25.25 -32.2 27.3 L-36.75 30.75 Q-41.75 34.65 -47.45 37.45 L-50.2 36.75 Q-50.75 36.55 -50.8 35.9 -51.2 32.5 -52.7 29.9 -54.5 26.65 -58.5 27.1" fill="#3c9dff" fill-rule="evenodd" stroke="none"/>
    <path d="M34.05 -126.95 Q29.4 -131.45 22.25 -132.1 19.2 -132.35 16.25 -133.15 -6.9 -139.85 -24.65 -123.85 -32.25 -117.05 -36.15 -107.75 -37.2 -105.3 -36.9 -102.95 L-28.95 -82.8 Q-23.65 -69.5 -22.15 -51.4 -21.15 -39.15 -23.15 -24.8 -24.1 -18.0 -25.7 -10.7 -26.2 -15.05 -26.85 -19.4 L-28.9 -30.65 Q-31.8 -44.75 -37.9 -57.8 -42.05 -66.65 -48.8 -73.65 -56.55 -81.7 -64.95 -88.95 -72.1 -95.1 -81.1 -97.7 -84.45 -98.7 -87.75 -97.65 -99.85 -94.25 -110.3 -87.05 -118.3 -81.55 -124.9 -74.5 -133.75 -65.1 -130.7 -52.55 L-129.4 -48.35 Q-127.95 -44.55 -125.65 -41.15 -125.05 -40.2 -124.05 -39.5 -108.65 -48.1 -92.6 -41.5 -83.05 -37.55 -75.7 -30.15 -70.75 -25.15 -66.65 -19.5 -59.45 -9.55 -54.95 2.35 L-53.35 7.15 Q-52.15 11.15 -51.4 15.4 -59.65 10.6 -69.45 10.75 -71.3 10.1 -73.15 10.75 -85.7 15.5 -91.05 26.9 -92.05 28.95 -92.6 31.3 -93.9 37.1 -99.9 39.85 -107.15 43.25 -115.55 40.95 -122.05 39.05 -126.05 33.95 -127.6 31.95 -128.8 29.5 L-133.0 21.2 Q-135.7 16.2 -137.3 10.9 -138.6 6.7 -139.2 2.35 -119.65 -19.05 -91.3 -24.45 L-85.45 -24.85 -78.1 -23.5 Q-72.25 -22.05 -66.65 -19.5 M34.05 -126.95 Q35.95 -125.1 37.45 -122.6 39.3 -119.45 38.25 -116.0 37.35 -112.95 36.0 -110.2 31.6 -101.35 28.05 -92.3 23.25 -80.1 19.25 -67.8 15.55 -56.4 13.45 -44.8 12.05 -37.1 11.4 -29.3 L11.15 -26.5 Q17.2 -36.15 23.95 -45.65 36.95 -63.9 54.5 -77.85 71.25 -91.1 91.8 -96.9 L99.4 -99.1 Q105.95 -100.9 110.35 -97.7 L112.5 -95.7 Q118.15 -89.0 122.35 -81.2 129.2 -68.5 125.95 -55.15 125.2 -52.0 123.85 -48.8 L127.25 -45.4 Q132.6 -39.3 135.4 -31.35 143.05 -9.7 135.25 11.4 134.0 14.85 131.35 17.25 117.9 29.45 100.75 21.6 L95.25 21.75 Q84.9 23.9 74.65 26.6 72.25 27.2 69.95 27.95 72.0 27.65 73.75 28.4 L80.1 31.7 Q86.45 35.25 92.4 39.7 95.0 41.65 96.95 44.15 103.5 52.45 107.65 62.95 115.55 83.2 115.5 105.0 L115.45 106.85 Q115.4 108.1 114.75 109.25 106.5 123.9 90.3 128.95 L86.0 129.55 Q68.3 129.3 63.0 112.35 61.85 108.65 61.8 104.95 61.7 101.4 62.65 97.9 65.35 87.5 64.9 76.9 64.8 74.25 63.7 71.95 55.3 54.7 37.35 47.6 L31.85 51.95 33.05 65.05 33.2 65.25 Q41.75 74.7 49.05 84.35 52.15 88.45 52.45 93.6 L53.9 119.5 54.15 126.1 40.5 133.15 M6.65 110.3 L-0.4 115.05 -13.25 129.55 -30.15 135.15 Q-30.8 112.8 -45.05 101.65 -53.1 95.3 -65.55 92.55 -105.0 98.95 -108.35 79.55 -106.0 75.0 -103.3 70.55 -88.35 45.55 -74.95 36.55 L-70.5 33.55 Q-61.05 27.45 -58.5 27.1 L-54.35 22.85 -51.4 20.0 -51.4 15.4 M-13.55 15.95 Q-10.15 15.6 -6.65 14.15 L9.35 -22.4 11.15 -26.5 M23.1 8.1 L20.15 12.1 14.6 20.4 14.6 21.65 Q15.6 35.55 23.75 44.95 27.0 48.75 31.4 51.8 L31.85 51.95 M87.25 11.75 Q83.7 8.15 80.9 3.75 M123.85 -48.8 Q103.4 -57.05 83.15 -47.4 63.8 -38.05 49.05 -22.7 35.05 -8.15 23.1 8.1 M100.75 21.6 L97.6 19.8 Q91.8 16.4 87.25 11.75 M14.6 20.4 L14.1 21.25 14.6 21.65 M14.1 21.25 L6.45 21.45 Q-0.2 20.7 -5.55 16.4 -6.6 15.6 -6.65 14.15 M18.7 50.35 L19.45 50.9 Q27.25 56.65 33.05 65.05 M-21.0 32.1 Q-27.0 31.35 -32.65 34.55 -40.15 38.8 -47.45 37.45 L-50.2 36.75 Q-50.75 36.55 -50.8 35.9 -51.2 32.5 -52.7 29.9 -54.5 26.65 -58.5 27.1 M18.7 50.35 Q14.55 47.4 9.85 45.15 7.4 44.05 4.7 43.8 L-6.95 43.2 Q-13.2 43.6 -18.85 41.15 L-20.4 40.2 -20.3 32.2 -21.0 32.1 M69.95 27.95 Q51.3 33.75 37.35 47.6 M-34.3 19.15 Q-31.45 18.2 -28.8 16.6 -26.55 15.2 -24.45 13.3 -24.4 1.2 -25.7 -10.7 M-13.55 15.95 Q-17.6 16.35 -21.5 15.2 -23.2 14.65 -24.45 13.3 M-34.3 19.15 Q-41.2 21.3 -49.2 19.25 -50.3 18.9 -51.0 19.6 L-51.4 20.0" fill="none" stroke="#000000" stroke-linecap="round" stroke-linejoin="round" stroke-opacity="0.41960785" stroke-width="1.0"/>
    <path d="M35.1 -128.0 Q35.55 -127.55 35.55 -126.95 35.55 -126.35 35.1 -125.9 34.65 -125.45 34.05 -125.45 33.45 -125.45 33.0 -125.9 32.55 -126.35 32.55 -126.95 32.55 -127.55 33.0 -128.0 33.45 -128.45 34.05 -128.45 L35.1 -128.0 M9.1 -106.25 Q9.55 -106.7 10.15 -106.7 10.75 -106.7 11.2 -106.25 L11.65 -105.2 Q11.65 -104.6 11.2 -104.15 10.75 -103.7 10.15 -103.7 9.55 -103.7 9.1 -104.15 8.65 -104.6 8.65 -105.2 8.65 -105.8 9.1 -106.25 M4.15 -105.65 Q4.75 -105.65 5.2 -105.2 L5.65 -104.15 Q5.65 -103.55 5.2 -103.1 4.75 -102.65 4.15 -102.65 3.55 -102.65 3.1 -103.1 2.65 -103.55 2.65 -104.15 2.65 -104.75 3.1 -105.2 3.55 -105.65 4.15 -105.65 M17.55 -106.95 Q17.55 -106.35 17.1 -105.9 16.65 -105.45 16.05 -105.45 15.45 -105.45 15.0 -105.9 14.55 -106.35 14.55 -106.95 14.55 -107.55 15.0 -108.0 15.45 -108.45 16.05 -108.45 L17.1 -108.0 17.55 -106.95 M32.25 -122.15 Q32.7 -122.6 33.3 -122.6 33.9 -122.6 34.35 -122.15 L34.8 -121.1 Q34.8 -120.5 34.35 -120.05 33.9 -119.6 33.3 -119.6 32.7 -119.6 32.25 -120.05 31.8 -120.5 31.8 -121.1 31.8 -121.7 32.25 -122.15 M32.05 -116.1 Q32.05 -115.5 31.6 -115.05 31.15 -114.6 30.55 -114.6 29.95 -114.6 29.5 -115.05 29.05 -115.5 29.05 -116.1 29.05 -116.7 29.5 -117.15 29.95 -117.6 30.55 -117.6 31.15 -117.6 31.6 -117.15 L32.05 -116.1 M25.4 -112.9 Q25.85 -113.35 26.45 -113.35 27.05 -113.35 27.5 -112.9 27.95 -112.45 27.95 -111.85 27.95 -111.25 27.5 -110.8 27.05 -110.35 26.45 -110.35 25.85 -110.35 25.4 -110.8 24.95 -111.25 24.95 -111.85 24.95 -112.45 25.4 -112.9 M22.9 -109.2 Q22.9 -108.6 22.45 -108.15 22.0 -107.7 21.4 -107.7 20.8 -107.7 20.35 -108.15 19.9 -108.6 19.9 -109.2 19.9 -109.8 20.35 -110.25 20.8 -110.7 21.4 -110.7 22.0 -110.7 22.45 -110.25 L22.9 -109.2 M59.0 -58.5 Q59.45 -58.95 60.05 -58.95 60.65 -58.95 61.1 -58.5 61.55 -58.05 61.55 -57.45 61.55 -56.85 61.1 -56.4 60.65 -55.95 60.05 -55.95 59.45 -55.95 59.0 -56.4 58.55 -56.85 58.55 -57.45 58.55 -58.05 59.0 -58.5 M51.95 -50.35 Q52.4 -49.9 52.4 -49.3 52.4 -48.7 51.95 -48.25 51.5 -47.8 50.9 -47.8 50.3 -47.8 49.85 -48.25 49.4 -48.7 49.4 -49.3 49.4 -49.9 49.85 -50.35 50.3 -50.8 50.9 -50.8 51.5 -50.8 51.95 -50.35 M54.4 -54.45 Q54.85 -54.9 55.45 -54.9 56.05 -54.9 56.5 -54.45 L56.95 -53.4 Q56.95 -52.8 56.5 -52.35 56.05 -51.9 55.45 -51.9 54.85 -51.9 54.4 -52.35 53.95 -52.8 53.95 -53.4 53.95 -54.0 54.4 -54.45 M80.65 -70.5 Q81.25 -70.5 81.7 -70.05 L82.15 -69.0 Q82.15 -68.4 81.7 -67.95 81.25 -67.5 80.65 -67.5 80.05 -67.5 79.6 -67.95 79.15 -68.4 79.15 -69.0 79.15 -69.6 79.6 -70.05 80.05 -70.5 80.65 -70.5 M74.05 -67.9 Q74.5 -68.35 75.1 -68.35 75.7 -68.35 76.15 -67.9 L76.6 -66.85 Q76.6 -66.25 76.15 -65.8 75.7 -65.35 75.1 -65.35 74.5 -65.35 74.05 -65.8 73.6 -66.25 73.6 -66.85 73.6 -67.45 74.05 -67.9 M64.75 -62.4 Q65.35 -62.4 65.8 -61.95 L66.25 -60.9 Q66.25 -60.3 65.8 -59.85 65.35 -59.4 64.75 -59.4 64.15 -59.4 63.7 -59.85 63.25 -60.3 63.25 -60.9 63.25 -61.5 63.7 -61.95 64.15 -62.4 64.75 -62.4 M68.75 -65.2 Q69.2 -65.65 69.8 -65.65 70.4 -65.65 70.85 -65.2 71.3 -64.75 71.3 -64.15 71.3 -63.55 70.85 -63.1 70.4 -62.65 69.8 -62.65 69.2 -62.65 68.75 -63.1 68.3 -63.55 68.3 -64.15 68.3 -64.75 68.75 -65.2 M38.4 -38.05 Q39.0 -38.05 39.45 -37.6 L39.9 -36.55 Q39.9 -35.95 39.45 -35.5 39.0 -35.05 38.4 -35.05 37.8 -35.05 37.35 -35.5 36.9 -35.95 36.9 -36.55 36.9 -37.15 37.35 -37.6 37.8 -38.05 38.4 -38.05 M30.0 -28.3 Q30.45 -28.75 31.05 -28.75 31.65 -28.75 32.1 -28.3 L32.55 -27.25 Q32.55 -26.65 32.1 -26.2 31.65 -25.75 31.05 -25.75 30.45 -25.75 30.0 -26.2 29.55 -26.65 29.55 -27.25 29.55 -27.85 30.0 -28.3 M36.05 -32.15 Q36.05 -31.55 35.6 -31.1 35.15 -30.65 34.55 -30.65 33.95 -30.65 33.5 -31.1 33.05 -31.55 33.05 -32.15 33.05 -32.75 33.5 -33.2 33.95 -33.65 34.55 -33.65 35.15 -33.65 35.6 -33.2 L36.05 -32.15 M9.6 -19.3 L10.05 -18.25 Q10.05 -17.65 9.6 -17.2 9.15 -16.75 8.55 -16.75 7.95 -16.75 7.5 -17.2 7.05 -17.65 7.05 -18.25 7.05 -18.85 7.5 -19.3 7.95 -19.75 8.55 -19.75 9.15 -19.75 9.6 -19.3 M8.7 -13.3 L9.15 -12.25 Q9.15 -11.65 8.7 -11.2 8.25 -10.75 7.65 -10.75 7.05 -10.75 6.6 -11.2 6.15 -11.65 6.15 -12.25 6.15 -12.85 6.6 -13.3 7.05 -13.75 7.65 -13.75 L8.7 -13.3 M7.45 -6.2 Q7.45 -5.6 7.0 -5.15 6.55 -4.7 5.95 -4.7 5.35 -4.7 4.9 -5.15 4.45 -5.6 4.45 -6.2 4.45 -6.8 4.9 -7.25 5.35 -7.7 5.95 -7.7 6.55 -7.7 7.0 -7.25 L7.45 -6.2 M4.85 -1.8 L5.9 -1.35 Q6.35 -0.9 6.35 -0.3 6.35 0.3 5.9 0.75 L4.85 1.2 Q4.25 1.2 3.8 0.75 3.35 0.3 3.35 -0.3 3.35 -0.9 3.8 -1.35 4.25 -1.8 4.85 -1.8 M19.7 -7.5 Q20.3 -7.5 20.75 -7.05 21.2 -6.6 21.2 -6.0 21.2 -5.4 20.75 -4.95 20.3 -4.5 19.7 -4.5 19.1 -4.5 18.65 -4.95 18.2 -5.4 18.2 -6.0 18.2 -6.6 18.65 -7.05 19.1 -7.5 19.7 -7.5 M17.25 -2.05 Q17.7 -1.6 17.7 -1.0 17.7 -0.4 17.25 0.05 L16.2 0.5 Q15.6 0.5 15.15 0.05 14.7 -0.4 14.7 -1.0 14.7 -1.6 15.15 -2.05 15.6 -2.5 16.2 -2.5 L17.25 -2.05 M27.1 -23.2 Q27.55 -23.65 28.15 -23.65 28.75 -23.65 29.2 -23.2 L29.65 -22.15 Q29.65 -21.55 29.2 -21.1 28.75 -20.65 28.15 -20.65 27.55 -20.65 27.1 -21.1 26.65 -21.55 26.65 -22.15 26.65 -22.75 27.1 -23.2 M24.35 -17.75 Q24.8 -18.2 25.4 -18.2 26.0 -18.2 26.45 -17.75 26.9 -17.3 26.9 -16.7 26.9 -16.1 26.45 -15.65 26.0 -15.2 25.4 -15.2 24.8 -15.2 24.35 -15.65 23.9 -16.1 23.9 -16.7 23.9 -17.3 24.35 -17.75 M21.65 -12.2 Q22.1 -12.65 22.7 -12.65 L23.75 -12.2 Q24.2 -11.75 24.2 -11.15 24.2 -10.55 23.75 -10.1 23.3 -9.65 22.7 -9.65 22.1 -9.65 21.65 -10.1 21.2 -10.55 21.2 -11.15 21.2 -11.75 21.65 -12.2 M47.5 -46.3 L47.95 -45.25 Q47.95 -44.65 47.5 -44.2 47.05 -43.75 46.45 -43.75 45.85 -43.75 45.4 -44.2 44.95 -44.65 44.95 -45.25 44.95 -45.85 45.4 -46.3 45.85 -46.75 46.45 -46.75 47.05 -46.75 47.5 -46.3 M41.3 -41.9 Q41.75 -42.35 42.35 -42.35 42.95 -42.35 43.4 -41.9 L43.85 -40.85 Q43.85 -40.25 43.4 -39.8 42.95 -39.35 42.35 -39.35 41.75 -39.35 41.3 -39.8 40.85 -40.25 40.85 -40.85 40.85 -41.45 41.3 -41.9 M56.35 -1.75 Q56.8 -2.2 57.4 -2.2 58.0 -2.2 58.45 -1.75 L58.9 -0.7 Q58.9 -0.1 58.45 0.35 58.0 0.8 57.4 0.8 56.8 0.8 56.35 0.35 55.9 -0.1 55.9 -0.7 55.9 -1.3 56.35 -1.75 M72.9 -13.05 Q73.35 -12.6 73.35 -12.0 73.35 -11.4 72.9 -10.95 72.45 -10.5 71.85 -10.5 71.25 -10.5 70.8 -10.95 70.35 -11.4 70.35 -12.0 70.35 -12.6 70.8 -13.05 71.25 -13.5 71.85 -13.5 L72.9 -13.05 M75.35 -15.35 Q75.35 -15.95 75.8 -16.4 76.25 -16.85 76.85 -16.85 77.45 -16.85 77.9 -16.4 78.35 -15.95 78.35 -15.35 78.35 -14.75 77.9 -14.3 77.45 -13.85 76.85 -13.85 76.25 -13.85 75.8 -14.3 75.35 -14.75 75.35 -15.35 M80.5 -18.4 Q80.5 -19.0 80.95 -19.45 81.4 -19.9 82.0 -19.9 82.6 -19.9 83.05 -19.45 L83.5 -18.4 Q83.5 -17.8 83.05 -17.35 82.6 -16.9 82.0 -16.9 81.4 -16.9 80.95 -17.35 80.5 -17.8 80.5 -18.4 M68.3 -8.25 Q68.3 -7.65 67.85 -7.2 67.4 -6.75 66.8 -6.75 66.2 -6.75 65.75 -7.2 65.3 -7.65 65.3 -8.25 65.3 -8.85 65.75 -9.3 66.2 -9.75 66.8 -9.75 L67.85 -9.3 Q68.3 -8.85 68.3 -8.25 M63.55 -4.55 Q63.55 -3.95 63.1 -3.5 62.65 -3.05 62.05 -3.05 61.45 -3.05 61.0 -3.5 60.55 -3.95 60.55 -4.55 60.55 -5.15 61.0 -5.6 61.45 -6.05 62.05 -6.05 62.65 -6.05 63.1 -5.6 L63.55 -4.55 M111.85 -97.7 Q111.85 -97.1 111.4 -96.65 110.95 -96.2 110.35 -96.2 109.75 -96.2 109.3 -96.65 108.85 -97.1 108.85 -97.7 108.85 -98.3 109.3 -98.75 109.75 -99.2 110.35 -99.2 110.95 -99.2 111.4 -98.75 L111.85 -97.7 M107.0 -94.4 Q107.0 -93.8 106.55 -93.35 106.1 -92.9 105.5 -92.9 104.9 -92.9 104.45 -93.35 104.0 -93.8 104.0 -94.4 104.0 -95.0 104.45 -95.45 104.9 -95.9 105.5 -95.9 106.1 -95.9 106.55 -95.45 107.0 -95.0 107.0 -94.4 M102.9 -90.2 Q102.9 -89.6 102.45 -89.15 102.0 -88.7 101.4 -88.7 100.8 -88.7 100.35 -89.15 99.9 -89.6 99.9 -90.2 99.9 -90.8 100.35 -91.25 100.8 -91.7 101.4 -91.7 102.0 -91.7 102.45 -91.25 L102.9 -90.2 M100.45 -84.85 Q100.45 -84.25 100.0 -83.8 99.55 -83.35 98.95 -83.35 98.35 -83.35 97.9 -83.8 97.45 -84.25 97.45 -84.85 97.45 -85.45 97.9 -85.9 98.35 -86.35 98.95 -86.35 99.55 -86.35 100.0 -85.9 L100.45 -84.85 M98.25 -74.9 Q98.85 -74.9 99.3 -74.45 L99.75 -73.4 Q99.75 -72.8 99.3 -72.35 98.85 -71.9 98.25 -71.9 97.65 -71.9 97.2 -72.35 96.75 -72.8 96.75 -73.4 96.75 -74.0 97.2 -74.45 97.65 -74.9 98.25 -74.9 M97.45 -80.1 Q97.9 -80.55 98.5 -80.55 99.1 -80.55 99.55 -80.1 L100.0 -79.05 Q100.0 -78.45 99.55 -78.0 99.1 -77.55 98.5 -77.55 97.9 -77.55 97.45 -78.0 97.0 -78.45 97.0 -79.05 97.0 -79.65 97.45 -80.1 M93.75 -72.2 Q93.75 -71.6 93.3 -71.15 92.85 -70.7 92.25 -70.7 91.65 -70.7 91.2 -71.15 90.75 -71.6 90.75 -72.2 90.75 -72.8 91.2 -73.25 91.65 -73.7 92.25 -73.7 L93.3 -73.25 Q93.75 -72.8 93.75 -72.2 M87.4 -71.85 L87.85 -70.8 Q87.85 -70.2 87.4 -69.75 86.95 -69.3 86.35 -69.3 85.75 -69.3 85.3 -69.75 84.85 -70.2 84.85 -70.8 84.85 -71.4 85.3 -71.85 85.75 -72.3 86.35 -72.3 86.95 -72.3 87.4 -71.85 M120.45 -47.45 Q120.9 -47.9 121.5 -47.9 122.1 -47.9 122.55 -47.45 L123.0 -46.4 Q123.0 -45.8 122.55 -45.35 122.1 -44.9 121.5 -44.9 120.9 -44.9 120.45 -45.35 120.0 -45.8 120.0 -46.4 120.0 -47.0 120.45 -47.45 M116.5 -45.35 Q116.05 -44.9 115.45 -44.9 114.85 -44.9 114.4 -45.35 113.95 -45.8 113.95 -46.4 113.95 -47.0 114.4 -47.45 114.85 -47.9 115.45 -47.9 116.05 -47.9 116.5 -47.45 L116.95 -46.4 Q116.95 -45.8 116.5 -45.35 M108.8 -45.2 Q109.25 -45.65 109.85 -45.65 L110.9 -45.2 Q111.35 -44.75 111.35 -44.15 111.35 -43.55 110.9 -43.1 110.45 -42.65 109.85 -42.65 109.25 -42.65 108.8 -43.1 108.35 -43.55 108.35 -44.15 108.35 -44.75 108.8 -45.2 M103.95 -40.3 Q103.95 -40.9 104.4 -41.35 104.85 -41.8 105.45 -41.8 L106.5 -41.35 Q106.95 -40.9 106.95 -40.3 106.95 -39.7 106.5 -39.25 106.05 -38.8 105.45 -38.8 104.85 -38.8 104.4 -39.25 103.95 -39.7 103.95 -40.3 M102.75 -36.65 Q103.2 -36.2 103.2 -35.6 103.2 -35.0 102.75 -34.55 102.3 -34.1 101.7 -34.1 101.1 -34.1 100.65 -34.55 100.2 -35.0 100.2 -35.6 100.2 -36.2 100.65 -36.65 101.1 -37.1 101.7 -37.1 L102.75 -36.65 M99.55 -31.55 Q100.15 -31.55 100.6 -31.1 L101.05 -30.05 Q101.05 -29.45 100.6 -29.0 100.15 -28.55 99.55 -28.55 98.95 -28.55 98.5 -29.0 98.05 -29.45 98.05 -30.05 98.05 -30.65 98.5 -31.1 98.95 -31.55 99.55 -31.55 M99.2 -25.6 Q99.8 -25.6 100.25 -25.15 100.7 -24.7 100.7 -24.1 100.7 -23.5 100.25 -23.05 99.8 -22.6 99.2 -22.6 98.6 -22.6 98.15 -23.05 97.7 -23.5 97.7 -24.1 97.7 -24.7 98.15 -25.15 98.6 -25.6 99.2 -25.6 M94.45 -23.5 L94.9 -22.45 Q94.9 -21.85 94.45 -21.4 94.0 -20.95 93.4 -20.95 92.8 -20.95 92.35 -21.4 91.9 -21.85 91.9 -22.45 91.9 -23.05 92.35 -23.5 92.8 -23.95 93.4 -23.95 94.0 -23.95 94.45 -23.5 M88.85 -21.05 Q88.85 -20.45 88.4 -20.0 87.95 -19.55 87.35 -19.55 86.75 -19.55 86.3 -20.0 85.85 -20.45 85.85 -21.05 85.85 -21.65 86.3 -22.1 86.75 -22.55 87.35 -22.55 87.95 -22.55 88.4 -22.1 88.85 -21.65 88.85 -21.05 M83.5 57.5 L83.05 58.55 Q82.6 59.0 82.0 59.0 81.4 59.0 80.95 58.55 80.5 58.1 80.5 57.5 80.5 56.9 80.95 56.45 81.4 56.0 82.0 56.0 82.6 56.0 83.05 56.45 83.5 56.9 83.5 57.5 M84.3 61.15 Q84.9 61.15 85.35 61.6 85.8 62.05 85.8 62.65 L85.35 63.7 84.3 64.15 Q83.7 64.15 83.25 63.7 82.8 63.25 82.8 62.65 82.8 62.05 83.25 61.6 83.7 61.15 84.3 61.15 M87.25 67.15 Q87.7 67.6 87.7 68.2 L87.25 69.25 Q86.8 69.7 86.2 69.7 85.6 69.7 85.15 69.25 84.7 68.8 84.7 68.2 84.7 67.6 85.15 67.15 85.6 66.7 86.2 66.7 86.8 66.7 87.25 67.15 M89.05 74.15 L88.6 75.2 Q88.15 75.65 87.55 75.65 86.95 75.65 86.5 75.2 86.05 74.75 86.05 74.15 86.05 73.55 86.5 73.1 86.95 72.65 87.55 72.65 88.15 72.65 88.6 73.1 89.05 73.55 89.05 74.15 M86.7 79.25 Q87.15 78.8 87.75 78.8 88.35 78.8 88.8 79.25 89.25 79.7 89.25 80.3 L88.8 81.35 Q88.35 81.8 87.75 81.8 87.15 81.8 86.7 81.35 86.25 80.9 86.25 80.3 86.25 79.7 86.7 79.25 M86.05 84.6 Q86.65 84.6 87.1 85.05 87.55 85.5 87.55 86.1 L87.1 87.15 Q86.65 87.6 86.05 87.6 85.45 87.6 85.0 87.15 84.55 86.7 84.55 86.1 84.55 85.5 85.0 85.05 85.45 84.6 86.05 84.6 M83.05 90.65 Q83.5 90.2 84.1 90.2 84.7 90.2 85.15 90.65 85.6 91.1 85.6 91.7 L85.15 92.75 Q84.7 93.2 84.1 93.2 83.5 93.2 83.05 92.75 82.6 92.3 82.6 91.7 82.6 91.1 83.05 90.65 M84.7 96.55 Q85.15 97.0 85.15 97.6 L84.7 98.65 Q84.25 99.1 83.65 99.1 83.05 99.1 82.6 98.65 82.15 98.2 82.15 97.6 82.15 97.0 82.6 96.55 83.05 96.1 83.65 96.1 84.25 96.1 84.7 96.55 M53.7 2.2 Q54.15 2.65 54.15 3.25 L53.7 4.3 Q53.25 4.75 52.65 4.75 52.05 4.75 51.6 4.3 51.15 3.85 51.15 3.25 51.15 2.65 51.6 2.2 52.05 1.75 52.65 1.75 53.25 1.75 53.7 2.2 M49.15 6.05 Q49.6 6.5 49.6 7.1 L49.15 8.15 Q48.7 8.6 48.1 8.6 47.5 8.6 47.05 8.15 46.6 7.7 46.6 7.1 46.6 6.5 47.05 6.05 47.5 5.6 48.1 5.6 48.7 5.6 49.15 6.05 M44.6 10.1 Q45.05 10.55 45.05 11.15 45.05 11.75 44.6 12.2 44.15 12.65 43.55 12.65 42.95 12.65 42.5 12.2 42.05 11.75 42.05 11.15 42.05 10.55 42.5 10.1 42.95 9.65 43.55 9.65 44.15 9.65 44.6 10.1 M67.75 37.55 Q68.2 37.1 68.8 37.1 69.4 37.1 69.85 37.55 70.3 38.0 70.3 38.6 L69.85 39.65 Q69.4 40.1 68.8 40.1 68.2 40.1 67.75 39.65 67.3 39.2 67.3 38.6 67.3 38.0 67.75 37.55 M70.35 42.45 Q70.95 42.45 71.4 42.9 71.85 43.35 71.85 43.95 L71.4 45.0 70.35 45.45 Q69.75 45.45 69.3 45.0 68.85 44.55 68.85 43.95 68.85 43.35 69.3 42.9 69.75 42.45 70.35 42.45 M75.55 47.25 Q76.0 47.7 76.0 48.3 L75.55 49.35 Q75.1 49.8 74.5 49.8 73.9 49.8 73.45 49.35 73.0 48.9 73.0 48.3 73.0 47.7 73.45 47.25 73.9 46.8 74.5 46.8 75.1 46.8 75.55 47.25 M24.15 7.05 Q24.6 7.5 24.6 8.1 L24.15 9.15 23.1 9.6 Q22.5 9.6 22.05 9.15 21.6 8.7 21.6 8.1 21.6 7.5 22.05 7.05 22.5 6.6 23.1 6.6 23.7 6.6 24.15 7.05 M23.45 13.05 Q23.9 13.5 23.9 14.1 L23.45 15.15 Q23.0 15.6 22.4 15.6 21.8 15.6 21.35 15.15 20.9 14.7 20.9 14.1 20.9 13.5 21.35 13.05 21.8 12.6 22.4 12.6 23.0 12.6 23.45 13.05 M22.85 18.75 Q23.3 18.3 23.9 18.3 24.5 18.3 24.95 18.75 25.4 19.2 25.4 19.8 25.4 20.4 24.95 20.85 24.5 21.3 23.9 21.3 23.3 21.3 22.85 20.85 22.4 20.4 22.4 19.8 22.4 19.2 22.85 18.75 M27.8 20.75 Q28.25 20.3 28.85 20.3 29.45 20.3 29.9 20.75 30.35 21.2 30.35 21.8 30.35 22.4 29.9 22.85 29.45 23.3 28.85 23.3 28.25 23.3 27.8 22.85 27.35 22.4 27.35 21.8 27.35 21.2 27.8 20.75 M38.15 14.25 Q38.6 13.8 39.2 13.8 39.8 13.8 40.25 14.25 40.7 14.7 40.7 15.3 L40.25 16.35 Q39.8 16.8 39.2 16.8 38.6 16.8 38.15 16.35 37.7 15.9 37.7 15.3 37.7 14.7 38.15 14.25 M34.45 17.85 Q35.05 17.85 35.5 18.3 35.95 18.75 35.95 19.35 L35.5 20.4 Q35.05 20.85 34.45 20.85 33.85 20.85 33.4 20.4 32.95 19.95 32.95 19.35 32.95 18.75 33.4 18.3 33.85 17.85 34.45 17.85 M11.45 2.9 Q11.9 2.45 12.5 2.45 13.1 2.45 13.55 2.9 14.0 3.35 14.0 3.95 L13.55 5.0 Q13.1 5.45 12.5 5.45 11.9 5.45 11.45 5.0 11.0 4.55 11.0 3.95 11.0 3.35 11.45 2.9 M6.05 5.65 L5.6 6.7 Q5.15 7.15 4.55 7.15 3.95 7.15 3.5 6.7 3.05 6.25 3.05 5.65 3.05 5.05 3.5 4.6 3.95 4.15 4.55 4.15 5.15 4.15 5.6 4.6 6.05 5.05 6.05 5.65 M9.2 7.25 Q9.65 7.7 9.65 8.3 9.65 8.9 9.2 9.35 8.75 9.8 8.15 9.8 7.55 9.8 7.1 9.35 6.65 8.9 6.65 8.3 6.65 7.7 7.1 7.25 7.55 6.8 8.15 6.8 8.75 6.8 9.2 7.25 M77.7 51.4 Q78.15 50.95 78.75 50.95 79.35 50.95 79.8 51.4 80.25 51.85 80.25 52.45 L79.8 53.5 78.75 53.95 Q78.15 53.95 77.7 53.5 77.25 53.05 77.25 52.45 77.25 51.85 77.7 51.4 M114.45 103.95 Q114.9 103.5 115.5 103.5 116.1 103.5 116.55 103.95 117.0 104.4 117.0 105.0 L116.55 106.05 115.5 106.5 Q114.9 106.5 114.45 106.05 114.0 105.6 114.0 105.0 114.0 104.4 114.45 103.95 M110.55 102.65 Q111.0 103.1 111.0 103.7 L110.55 104.75 109.5 105.2 Q108.9 105.2 108.45 104.75 108.0 104.3 108.0 103.7 108.0 103.1 108.45 102.65 108.9 102.2 109.5 102.2 110.1 102.2 110.55 102.65 M102.4 102.1 Q102.85 101.65 103.45 101.65 104.05 101.65 104.5 102.1 104.95 102.55 104.95 103.15 L104.5 104.2 Q104.05 104.65 103.45 104.65 102.85 104.65 102.4 104.2 101.95 103.75 101.95 103.15 101.95 102.55 102.4 102.1 M96.7 103.5 Q97.15 103.05 97.75 103.05 98.35 103.05 98.8 103.5 99.25 103.95 99.25 104.55 L98.8 105.6 Q98.35 106.05 97.75 106.05 97.15 106.05 96.7 105.6 96.25 105.15 96.25 104.55 96.25 103.95 96.7 103.5 M92.15 107.6 Q92.6 107.15 93.2 107.15 93.8 107.15 94.25 107.6 94.7 108.05 94.7 108.65 94.7 109.25 94.25 109.7 93.8 110.15 93.2 110.15 92.6 110.15 92.15 109.7 91.7 109.25 91.7 108.65 91.7 108.05 92.15 107.6 M86.9 103.45 L86.45 104.5 Q86.0 104.95 85.4 104.95 84.8 104.95 84.35 104.5 83.9 104.05 83.9 103.45 83.9 102.85 84.35 102.4 84.8 101.95 85.4 101.95 86.0 101.95 86.45 102.4 86.9 102.85 86.9 103.45 M89.45 107.55 Q89.9 108.0 89.9 108.6 89.9 109.2 89.45 109.65 89.0 110.1 88.4 110.1 87.8 110.1 87.35 109.65 86.9 109.2 86.9 108.6 86.9 108.0 87.35 107.55 87.8 107.1 88.4 107.1 89.0 107.1 89.45 107.55 M-24.15 -107.3 Q-24.15 -106.7 -24.6 -106.25 -25.05 -105.8 -25.65 -105.8 -26.25 -105.8 -26.7 -106.25 -27.15 -106.7 -27.15 -107.3 -27.15 -107.9 -26.7 -108.35 L-25.65 -108.8 Q-25.05 -108.8 -24.6 -108.35 -24.15 -107.9 -24.15 -107.3 M-20.7 -107.5 Q-20.25 -107.95 -19.65 -107.95 -19.05 -107.95 -18.6 -107.5 -18.15 -107.05 -18.15 -106.45 -18.15 -105.85 -18.6 -105.4 -19.05 -104.95 -19.65 -104.95 -20.25 -104.95 -20.7 -105.4 -21.15 -105.85 -21.15 -106.45 L-20.7 -107.5 M-27.5 -102.45 Q-27.05 -102.9 -26.45 -102.9 -25.85 -102.9 -25.4 -102.45 -24.95 -102.0 -24.95 -101.4 -24.95 -100.8 -25.4 -100.35 -25.85 -99.9 -26.45 -99.9 -27.05 -99.9 -27.5 -100.35 -27.95 -100.8 -27.95 -101.4 -27.95 -102.0 -27.5 -102.45 M-12.7 -105.75 Q-12.25 -105.3 -12.25 -104.7 -12.25 -104.1 -12.7 -103.65 -13.15 -103.2 -13.75 -103.2 -14.35 -103.2 -14.8 -103.65 -15.25 -104.1 -15.25 -104.7 L-14.8 -105.75 Q-14.35 -106.2 -13.75 -106.2 -13.15 -106.2 -12.7 -105.75 M-8.9 -104.75 Q-8.45 -105.2 -7.85 -105.2 -7.25 -105.2 -6.8 -104.75 -6.35 -104.3 -6.35 -103.7 -6.35 -103.1 -6.8 -102.65 -7.25 -102.2 -7.85 -102.2 -8.45 -102.2 -8.9 -102.65 -9.35 -103.1 -9.35 -103.7 -9.35 -104.3 -8.9 -104.75 M-0.85 -104.65 Q-0.4 -104.2 -0.4 -103.6 -0.4 -103.0 -0.85 -102.55 -1.3 -102.1 -1.9 -102.1 -2.5 -102.1 -2.95 -102.55 -3.4 -103.0 -3.4 -103.6 L-2.95 -104.65 Q-2.5 -105.1 -1.9 -105.1 -1.3 -105.1 -0.85 -104.65 M-91.15 -76.8 Q-90.7 -77.25 -90.1 -77.25 -89.5 -77.25 -89.05 -76.8 -88.6 -76.35 -88.6 -75.75 -88.6 -75.15 -89.05 -74.7 -89.5 -74.25 -90.1 -74.25 -90.7 -74.25 -91.15 -74.7 -91.6 -75.15 -91.6 -75.75 L-91.15 -76.8 M-85.6 -80.95 Q-85.6 -80.35 -86.05 -79.9 -86.5 -79.45 -87.1 -79.45 -87.7 -79.45 -88.15 -79.9 -88.6 -80.35 -88.6 -80.95 L-88.15 -82.0 Q-87.7 -82.45 -87.1 -82.45 -86.5 -82.45 -86.05 -82.0 -85.6 -81.55 -85.6 -80.95 M-83.75 -83.7 Q-84.35 -83.7 -84.8 -84.15 -85.25 -84.6 -85.25 -85.2 -85.25 -85.8 -84.8 -86.25 -84.35 -86.7 -83.75 -86.7 -83.15 -86.7 -82.7 -86.25 -82.25 -85.8 -82.25 -85.2 -82.25 -84.6 -82.7 -84.15 -83.15 -83.7 -83.75 -83.7 M-101.95 -63.25 Q-101.35 -63.25 -100.9 -62.8 -100.45 -62.35 -100.45 -61.75 -100.45 -61.15 -100.9 -60.7 -101.35 -60.25 -101.95 -60.25 -102.55 -60.25 -103.0 -60.7 -103.45 -61.15 -103.45 -61.75 L-103.0 -62.8 Q-102.55 -63.25 -101.95 -63.25 M-117.5 -51.45 Q-117.05 -51.9 -116.45 -51.9 -115.85 -51.9 -115.4 -51.45 -114.95 -51.0 -114.95 -50.4 -114.95 -49.8 -115.4 -49.35 -115.85 -48.9 -116.45 -48.9 -117.05 -48.9 -117.5 -49.35 -117.95 -49.8 -117.95 -50.4 L-117.5 -51.45 M-112.3 -54.5 Q-111.85 -54.95 -111.25 -54.95 -110.65 -54.95 -110.2 -54.5 -109.75 -54.05 -109.75 -53.45 -109.75 -52.85 -110.2 -52.4 -110.65 -51.95 -111.25 -51.95 -111.85 -51.95 -112.3 -52.4 -112.75 -52.85 -112.75 -53.45 L-112.3 -54.5 M-105.55 -56.25 Q-106.0 -55.8 -106.6 -55.8 -107.2 -55.8 -107.65 -56.25 -108.1 -56.7 -108.1 -57.3 L-107.65 -58.35 Q-107.2 -58.8 -106.6 -58.8 -106.0 -58.8 -105.55 -58.35 -105.1 -57.9 -105.1 -57.3 -105.1 -56.7 -105.55 -56.25 M-94.75 -71.8 Q-94.3 -72.25 -93.7 -72.25 -93.1 -72.25 -92.65 -71.8 -92.2 -71.35 -92.2 -70.75 -92.2 -70.15 -92.65 -69.7 -93.1 -69.25 -93.7 -69.25 -94.3 -69.25 -94.75 -69.7 -95.2 -70.15 -95.2 -70.75 L-94.75 -71.8 M-98.65 -67.2 Q-98.2 -67.65 -97.6 -67.65 -97.0 -67.65 -96.55 -67.2 -96.1 -66.75 -96.1 -66.15 -96.1 -65.55 -96.55 -65.1 -97.0 -64.65 -97.6 -64.65 -98.2 -64.65 -98.65 -65.1 -99.1 -65.55 -99.1 -66.15 L-98.65 -67.2 M-123.95 -48.15 Q-123.95 -48.75 -123.5 -49.2 L-122.45 -49.65 Q-121.85 -49.65 -121.4 -49.2 -120.95 -48.75 -120.95 -48.15 -120.95 -47.55 -121.4 -47.1 -121.85 -46.65 -122.45 -46.65 -123.05 -46.65 -123.5 -47.1 -123.95 -47.55 -123.95 -48.15 M-128.45 -46.55 Q-129.05 -46.55 -129.5 -47.0 -129.95 -47.45 -129.95 -48.05 L-129.5 -49.1 Q-129.05 -49.55 -128.45 -49.55 -127.85 -49.55 -127.4 -49.1 -126.95 -48.65 -126.95 -48.05 -126.95 -47.45 -127.4 -47.0 -127.85 -46.55 -128.45 -46.55 M-84.05 -1.5 Q-83.6 -1.95 -83.0 -1.95 -82.4 -1.95 -81.95 -1.5 -81.5 -1.05 -81.5 -0.45 -81.5 0.15 -81.95 0.6 -82.4 1.05 -83.0 1.05 -83.6 1.05 -84.05 0.6 -84.5 0.15 -84.5 -0.45 -84.5 -1.05 -84.05 -1.5 M-19.15 -78.4 Q-19.15 -77.8 -19.6 -77.35 -20.05 -76.9 -20.65 -76.9 -21.25 -76.9 -21.7 -77.35 -22.15 -77.8 -22.15 -78.4 L-21.7 -79.45 Q-21.25 -79.9 -20.65 -79.9 -20.05 -79.9 -19.6 -79.45 -19.15 -79.0 -19.15 -78.4 M-25.05 -94.35 Q-25.5 -93.9 -26.1 -93.9 -26.7 -93.9 -27.15 -94.35 -27.6 -94.8 -27.6 -95.4 -27.6 -96.0 -27.15 -96.45 L-26.1 -96.9 Q-25.5 -96.9 -25.05 -96.45 -24.6 -96.0 -24.6 -95.4 -24.6 -94.8 -25.05 -94.35 M-25.95 -90.55 Q-25.5 -91.0 -24.9 -91.0 -24.3 -91.0 -23.85 -90.55 -23.4 -90.1 -23.4 -89.5 -23.4 -88.9 -23.85 -88.45 -24.3 -88.0 -24.9 -88.0 -25.5 -88.0 -25.95 -88.45 -26.4 -88.9 -26.4 -89.5 L-25.95 -90.55 M-21.9 -84.85 Q-21.45 -84.4 -21.45 -83.8 -21.45 -83.2 -21.9 -82.75 -22.35 -82.3 -22.95 -82.3 -23.55 -82.3 -24.0 -82.75 -24.45 -83.2 -24.45 -83.8 -24.45 -84.4 -24.0 -84.85 L-22.95 -85.3 Q-22.35 -85.3 -21.9 -84.85 M-16.25 -68.7 Q-15.65 -68.7 -15.2 -68.25 -14.75 -67.8 -14.75 -67.2 -14.75 -66.6 -15.2 -66.15 -15.65 -65.7 -16.25 -65.7 -16.85 -65.7 -17.3 -66.15 -17.75 -66.6 -17.75 -67.2 -17.75 -67.8 -17.3 -68.25 -16.85 -68.7 -16.25 -68.7 M-19.25 -74.0 Q-18.8 -74.45 -18.2 -74.45 -17.6 -74.45 -17.15 -74.0 -16.7 -73.55 -16.7 -72.95 -16.7 -72.35 -17.15 -71.9 -17.6 -71.45 -18.2 -71.45 -18.8 -71.45 -19.25 -71.9 -19.7 -72.35 -19.7 -72.95 L-19.25 -74.0 M-13.65 -62.35 Q-13.2 -61.9 -13.2 -61.3 -13.2 -60.7 -13.65 -60.25 -14.1 -59.8 -14.7 -59.8 -15.3 -59.8 -15.75 -60.25 -16.2 -60.7 -16.2 -61.3 L-15.75 -62.35 -14.7 -62.8 Q-14.1 -62.8 -13.65 -62.35 M-12.45 -56.3 Q-12.0 -55.85 -12.0 -55.25 -12.0 -54.65 -12.45 -54.2 -12.9 -53.75 -13.5 -53.75 -14.1 -53.75 -14.55 -54.2 -15.0 -54.65 -15.0 -55.25 -15.0 -55.85 -14.55 -56.3 L-13.5 -56.75 Q-12.9 -56.75 -12.45 -56.3 M-13.0 -50.7 Q-12.4 -50.7 -11.95 -50.25 -11.5 -49.8 -11.5 -49.2 -11.5 -48.6 -11.95 -48.15 -12.4 -47.7 -13.0 -47.7 -13.6 -47.7 -14.05 -48.15 -14.5 -48.6 -14.5 -49.2 L-14.05 -50.25 Q-13.6 -50.7 -13.0 -50.7 M-79.45 -83.1 Q-79.0 -83.55 -78.4 -83.55 -77.8 -83.55 -77.35 -83.1 -76.9 -82.65 -76.9 -82.05 -76.9 -81.45 -77.35 -81.0 -77.8 -80.55 -78.4 -80.55 -79.0 -80.55 -79.45 -81.0 -79.9 -81.45 -79.9 -82.05 L-79.45 -83.1 M-75.35 -78.0 L-74.9 -79.05 Q-74.45 -79.5 -73.85 -79.5 -73.25 -79.5 -72.8 -79.05 -72.35 -78.6 -72.35 -78.0 -72.35 -77.4 -72.8 -76.95 -73.25 -76.5 -73.85 -76.5 -74.45 -76.5 -74.9 -76.95 -75.35 -77.4 -75.35 -78.0 M-68.1 -75.65 Q-67.65 -75.2 -67.65 -74.6 -67.65 -74.0 -68.1 -73.55 -68.55 -73.1 -69.15 -73.1 -69.75 -73.1 -70.2 -73.55 -70.65 -74.0 -70.65 -74.6 -70.65 -75.2 -70.2 -75.65 L-69.15 -76.1 Q-68.55 -76.1 -68.1 -75.65 M-63.05 -70.65 Q-63.05 -70.05 -63.5 -69.6 -63.95 -69.15 -64.55 -69.15 -65.15 -69.15 -65.6 -69.6 -66.05 -70.05 -66.05 -70.65 -66.05 -71.25 -65.6 -71.7 -65.15 -72.15 -64.55 -72.15 -63.95 -72.15 -63.5 -71.7 -63.05 -71.25 -63.05 -70.65 M-61.45 -67.35 Q-61.0 -67.8 -60.4 -67.8 -59.8 -67.8 -59.35 -67.35 -58.9 -66.9 -58.9 -66.3 -58.9 -65.7 -59.35 -65.25 -59.8 -64.8 -60.4 -64.8 -61.0 -64.8 -61.45 -65.25 -61.9 -65.7 -61.9 -66.3 L-61.45 -67.35 M-56.8 -63.05 Q-56.2 -63.05 -55.75 -62.6 -55.3 -62.15 -55.3 -61.55 -55.3 -60.95 -55.75 -60.5 -56.2 -60.05 -56.8 -60.05 -57.4 -60.05 -57.85 -60.5 -58.3 -60.95 -58.3 -61.55 L-57.85 -62.6 Q-57.4 -63.05 -56.8 -63.05 M-54.9 -57.65 L-53.85 -58.1 Q-53.25 -58.1 -52.8 -57.65 -52.35 -57.2 -52.35 -56.6 -52.35 -56.0 -52.8 -55.55 -53.25 -55.1 -53.85 -55.1 -54.45 -55.1 -54.9 -55.55 -55.35 -56.0 -55.35 -56.6 L-54.9 -57.65 M-50.9 -52.9 Q-50.3 -52.9 -49.85 -52.45 -49.4 -52.0 -49.4 -51.4 -49.4 -50.8 -49.85 -50.35 -50.3 -49.9 -50.9 -49.9 -51.5 -49.9 -51.95 -50.35 -52.4 -50.8 -52.4 -51.4 -52.4 -52.0 -51.95 -52.45 -51.5 -52.9 -50.9 -52.9 M-48.85 -47.25 Q-48.4 -47.7 -47.8 -47.7 -47.2 -47.7 -46.75 -47.25 -46.3 -46.8 -46.3 -46.2 -46.3 -45.6 -46.75 -45.15 -47.2 -44.7 -47.8 -44.7 -48.4 -44.7 -48.85 -45.15 -49.3 -45.6 -49.3 -46.2 L-48.85 -47.25 M-46.8 -40.55 L-46.35 -41.6 Q-45.9 -42.05 -45.3 -42.05 -44.7 -42.05 -44.25 -41.6 -43.8 -41.15 -43.8 -40.55 -43.8 -39.95 -44.25 -39.5 -44.7 -39.05 -45.3 -39.05 -45.9 -39.05 -46.35 -39.5 -46.8 -39.95 -46.8 -40.55 M-44.45 -36.0 Q-44.0 -36.45 -43.4 -36.45 -42.8 -36.45 -42.35 -36.0 -41.9 -35.55 -41.9 -34.95 -41.9 -34.35 -42.35 -33.9 -42.8 -33.45 -43.4 -33.45 -44.0 -33.45 -44.45 -33.9 -44.9 -34.35 -44.9 -34.95 L-44.45 -36.0 M-43.1 -30.15 Q-42.65 -30.6 -42.05 -30.6 -41.45 -30.6 -41.0 -30.15 -40.55 -29.7 -40.55 -29.1 -40.55 -28.5 -41.0 -28.05 -41.45 -27.6 -42.05 -27.6 -42.65 -27.6 -43.1 -28.05 -43.55 -28.5 -43.55 -29.1 -43.55 -29.7 -43.1 -30.15 M-69.65 -13.25 Q-69.65 -12.65 -70.1 -12.2 -70.55 -11.75 -71.15 -11.75 -71.75 -11.75 -72.2 -12.2 -72.65 -12.65 -72.65 -13.25 -72.65 -13.85 -72.2 -14.3 -71.75 -14.75 -71.15 -14.75 -70.55 -14.75 -70.1 -14.3 -69.65 -13.85 -69.65 -13.25 M-73.9 -19.95 Q-73.3 -19.95 -72.85 -19.5 -72.4 -19.05 -72.4 -18.45 -72.4 -17.85 -72.85 -17.4 -73.3 -16.95 -73.9 -16.95 -74.5 -16.95 -74.95 -17.4 -75.4 -17.85 -75.4 -18.45 L-74.95 -19.5 Q-74.5 -19.95 -73.9 -19.95 M-79.15 -24.55 Q-78.7 -25.0 -78.1 -25.0 -77.5 -25.0 -77.05 -24.55 -76.6 -24.1 -76.6 -23.5 -76.6 -22.9 -77.05 -22.45 -77.5 -22.0 -78.1 -22.0 -78.7 -22.0 -79.15 -22.45 -79.6 -22.9 -79.6 -23.5 L-79.15 -24.55 M-71.35 -7.5 L-70.9 -8.55 Q-70.45 -9.0 -69.85 -9.0 -69.25 -9.0 -68.8 -8.55 -68.35 -8.1 -68.35 -7.5 -68.35 -6.9 -68.8 -6.45 -69.25 -6.0 -69.85 -6.0 -70.45 -6.0 -70.9 -6.45 -71.35 -6.9 -71.35 -7.5 M-78.05 -2.2 Q-77.6 -2.65 -77.0 -2.65 -76.4 -2.65 -75.95 -2.2 -75.5 -1.75 -75.5 -1.15 -75.5 -0.55 -75.95 -0.1 -76.4 0.35 -77.0 0.35 -77.6 0.35 -78.05 -0.1 -78.5 -0.55 -78.5 -1.15 L-78.05 -2.2 M-71.1 -3.15 Q-70.5 -3.15 -70.05 -2.7 -69.6 -2.25 -69.6 -1.65 -69.6 -1.05 -70.05 -0.6 -70.5 -0.15 -71.1 -0.15 -71.7 -0.15 -72.15 -0.6 -72.6 -1.05 -72.6 -1.65 L-72.15 -2.7 Q-71.7 -3.15 -71.1 -3.15 M-41.2 -17.05 L-40.75 -18.1 Q-40.3 -18.55 -39.7 -18.55 -39.1 -18.55 -38.65 -18.1 -38.2 -17.65 -38.2 -17.05 -38.2 -16.45 -38.65 -16.0 -39.1 -15.55 -39.7 -15.55 -40.3 -15.55 -40.75 -16.0 -41.2 -16.45 -41.2 -17.05 M-40.8 -24.55 Q-40.2 -24.55 -39.75 -24.1 -39.3 -23.65 -39.3 -23.05 -39.3 -22.45 -39.75 -22.0 -40.2 -21.55 -40.8 -21.55 -41.4 -21.55 -41.85 -22.0 -42.3 -22.45 -42.3 -23.05 -42.3 -23.65 -41.85 -24.1 L-40.8 -24.55 M-13.0 -44.7 Q-12.4 -44.7 -11.95 -44.25 -11.5 -43.8 -11.5 -43.2 -11.5 -42.6 -11.95 -42.15 -12.4 -41.7 -13.0 -41.7 -13.6 -41.7 -14.05 -42.15 -14.5 -42.6 -14.5 -43.2 L-14.05 -44.25 Q-13.6 -44.7 -13.0 -44.7 M-14.7 -38.35 L-13.65 -38.8 Q-13.05 -38.8 -12.6 -38.35 -12.15 -37.9 -12.15 -37.3 -12.15 -36.7 -12.6 -36.25 -13.05 -35.8 -13.65 -35.8 -14.25 -35.8 -14.7 -36.25 -15.15 -36.7 -15.15 -37.3 L-14.7 -38.35 M-14.05 -32.4 Q-13.6 -31.95 -13.6 -31.35 -13.6 -30.75 -14.05 -30.3 -14.5 -29.85 -15.1 -29.85 -15.7 -29.85 -16.15 -30.3 -16.6 -30.75 -16.6 -31.35 L-16.15 -32.4 Q-15.7 -32.85 -15.1 -32.85 -14.5 -32.85 -14.05 -32.4 M-18.9 -27.1 L-17.85 -27.55 Q-17.25 -27.55 -16.8 -27.1 -16.35 -26.65 -16.35 -26.05 -16.35 -25.45 -16.8 -25.0 -17.25 -24.55 -17.85 -24.55 -18.45 -24.55 -18.9 -25.0 -19.35 -25.45 -19.35 -26.05 L-18.9 -27.1 M-22.65 -25.75 Q-22.05 -25.75 -21.6 -25.3 -21.15 -24.85 -21.15 -24.25 -21.15 -23.65 -21.6 -23.2 -22.05 -22.75 -22.65 -22.75 -23.25 -22.75 -23.7 -23.2 -24.15 -23.65 -24.15 -24.25 L-23.7 -25.3 Q-23.25 -25.75 -22.65 -25.75 M-39.85 -12.15 Q-39.4 -12.6 -38.8 -12.6 -38.2 -12.6 -37.75 -12.15 -37.3 -11.7 -37.3 -11.1 -37.3 -10.5 -37.75 -10.05 -38.2 -9.6 -38.8 -9.6 -39.4 -9.6 -39.85 -10.05 -40.3 -10.5 -40.3 -11.1 L-39.85 -12.15 M-37.3 -6.95 Q-36.7 -6.95 -36.25 -6.5 -35.8 -6.05 -35.8 -5.45 -35.8 -4.85 -36.25 -4.4 -36.7 -3.95 -37.3 -3.95 -37.9 -3.95 -38.35 -4.4 -38.8 -4.85 -38.8 -5.45 L-38.35 -6.5 Q-37.9 -6.95 -37.3 -6.95 M-31.95 -3.35 Q-31.5 -2.9 -31.5 -2.3 -31.5 -1.7 -31.95 -1.25 -32.4 -0.8 -33.0 -0.8 -33.6 -0.8 -34.05 -1.25 -34.5 -1.7 -34.5 -2.3 -34.5 -2.9 -34.05 -3.35 L-33.0 -3.8 Q-32.4 -3.8 -31.95 -3.35 M-38.25 47.4 Q-37.8 46.95 -37.2 46.95 -36.6 46.95 -36.15 47.4 -35.7 47.85 -35.7 48.45 -35.7 49.05 -36.15 49.5 -36.6 49.95 -37.2 49.95 L-38.25 49.5 Q-38.7 49.05 -38.7 48.45 -38.7 47.85 -38.25 47.4 M-32.2 48.05 Q-31.75 47.6 -31.15 47.6 -30.55 47.6 -30.1 48.05 -29.65 48.5 -29.65 49.1 -29.65 49.7 -30.1 50.15 -30.55 50.6 -31.15 50.6 -31.75 50.6 -32.2 50.15 L-32.65 49.1 Q-32.65 48.5 -32.2 48.05 M-25.3 48.75 Q-24.7 48.75 -24.25 49.2 -23.8 49.65 -23.8 50.25 -23.8 50.85 -24.25 51.3 -24.7 51.75 -25.3 51.75 -25.9 51.75 -26.35 51.3 L-26.8 50.25 Q-26.8 49.65 -26.35 49.2 -25.9 48.75 -25.3 48.75 M-69.95 34.05 Q-69.5 33.6 -68.9 33.6 -68.3 33.6 -67.85 34.05 -67.4 34.5 -67.4 35.1 -67.4 35.7 -67.85 36.15 -68.3 36.6 -68.9 36.6 L-69.95 36.15 Q-70.4 35.7 -70.4 35.1 -70.4 34.5 -69.95 34.05 M-63.65 36.65 Q-63.05 36.65 -62.6 37.1 -62.15 37.55 -62.15 38.15 -62.15 38.75 -62.6 39.2 -63.05 39.65 -63.65 39.65 L-64.7 39.2 Q-65.15 38.75 -65.15 38.15 -65.15 37.55 -64.7 37.1 -64.25 36.65 -63.65 36.65 M-51.1 41.45 Q-50.65 41.9 -50.65 42.5 -50.65 43.1 -51.1 43.55 -51.55 44.0 -52.15 44.0 -52.75 44.0 -53.2 43.55 L-53.65 42.5 Q-53.65 41.9 -53.2 41.45 -52.75 41.0 -52.15 41.0 -51.55 41.0 -51.1 41.45 M-59.2 39.3 Q-58.75 38.85 -58.15 38.85 -57.55 38.85 -57.1 39.3 -56.65 39.75 -56.65 40.35 -56.65 40.95 -57.1 41.4 -57.55 41.85 -58.15 41.85 -58.75 41.85 -59.2 41.4 L-59.65 40.35 Q-59.65 39.75 -59.2 39.3 M-47.7 44.05 Q-47.25 43.6 -46.65 43.6 -46.05 43.6 -45.6 44.05 -45.15 44.5 -45.15 45.1 -45.15 45.7 -45.6 46.15 -46.05 46.6 -46.65 46.6 L-47.7 46.15 Q-48.15 45.7 -48.15 45.1 -48.15 44.5 -47.7 44.05 M-42.15 46.8 Q-41.7 47.25 -41.7 47.85 -41.7 48.45 -42.15 48.9 -42.6 49.35 -43.2 49.35 -43.8 49.35 -44.25 48.9 L-44.7 47.85 Q-44.7 47.25 -44.25 46.8 -43.8 46.35 -43.2 46.35 -42.6 46.35 -42.15 46.8 M-12.85 54.55 Q-12.85 55.15 -13.3 55.6 -13.75 56.05 -14.35 56.05 -14.95 56.05 -15.4 55.6 L-15.85 54.55 Q-15.85 53.95 -15.4 53.5 -14.95 53.05 -14.35 53.05 -13.75 53.05 -13.3 53.5 -12.85 53.95 -12.85 54.55 M-18.05 52.0 Q-18.05 52.6 -18.5 53.05 -18.95 53.5 -19.55 53.5 L-20.6 53.05 Q-21.05 52.6 -21.05 52.0 -21.05 51.4 -20.6 50.95 -20.15 50.5 -19.55 50.5 -18.95 50.5 -18.5 50.95 -18.05 51.4 -18.05 52.0 M-17.3 57.8 Q-16.85 57.35 -16.25 57.35 -15.65 57.35 -15.2 57.8 -14.75 58.25 -14.75 58.85 -14.75 59.45 -15.2 59.9 -15.65 60.35 -16.25 60.35 -16.85 60.35 -17.3 59.9 -17.75 59.45 -17.75 58.85 -17.75 58.25 -17.3 57.8 M-26.05 61.85 Q-25.6 62.3 -25.6 62.9 -25.6 63.5 -26.05 63.95 -26.5 64.4 -27.1 64.4 -27.7 64.4 -28.15 63.95 L-28.6 62.9 Q-28.6 62.3 -28.15 61.85 -27.7 61.4 -27.1 61.4 -26.5 61.4 -26.05 61.85 M-20.45 60.1 Q-20.0 60.55 -20.0 61.15 -20.0 61.75 -20.45 62.2 -20.9 62.65 -21.5 62.65 -22.1 62.65 -22.55 62.2 -23.0 61.75 -23.0 61.15 -23.0 60.55 -22.55 60.1 -22.1 59.65 -21.5 59.65 -20.9 59.65 -20.45 60.1 M-31.65 64.25 Q-31.65 64.85 -32.1 65.3 -32.55 65.75 -33.15 65.75 L-33.7 65.65 -33.7 65.95 Q-33.7 66.55 -34.15 67.0 -34.6 67.45 -35.2 67.45 -35.8 67.45 -36.25 67.0 L-36.7 65.95 Q-36.7 65.35 -36.25 64.9 -35.8 64.45 -35.2 64.45 L-34.6 64.6 -34.65 64.25 Q-34.65 63.65 -34.2 63.2 -33.75 62.75 -33.15 62.75 -32.55 62.75 -32.1 63.2 -31.65 63.65 -31.65 64.25 M-31.7 66.55 Q-31.1 66.55 -30.65 67.0 -30.2 67.45 -30.2 68.05 -30.2 68.65 -30.65 69.1 -31.1 69.55 -31.7 69.55 -32.3 69.55 -32.75 69.1 -33.2 68.65 -33.2 68.05 -33.2 67.45 -32.75 67.0 -32.3 66.55 -31.7 66.55 M-33.6 72.65 Q-33.15 72.2 -32.55 72.2 -31.95 72.2 -31.5 72.65 -31.05 73.1 -31.05 73.7 -31.05 74.3 -31.5 74.75 -31.95 75.2 -32.55 75.2 L-33.6 74.75 -34.05 73.7 Q-34.05 73.1 -33.6 72.65 M-28.05 72.55 Q-28.5 73.0 -29.1 73.0 -29.7 73.0 -30.15 72.55 L-30.6 71.5 Q-30.6 70.9 -30.15 70.45 -29.7 70.0 -29.1 70.0 -28.5 70.0 -28.05 70.45 -27.6 70.9 -27.6 71.5 -27.6 72.1 -28.05 72.55 M-27.45 84.05 Q-27.0 83.6 -26.4 83.6 -25.8 83.6 -25.35 84.05 -24.9 84.5 -24.9 85.1 -24.9 85.7 -25.35 86.15 -25.8 86.6 -26.4 86.6 -27.0 86.6 -27.45 86.15 L-27.9 85.1 Q-27.9 84.5 -27.45 84.05 M-33.4 76.35 Q-32.8 76.35 -32.35 76.8 -31.9 77.25 -31.9 77.85 -31.9 78.45 -32.35 78.9 -32.8 79.35 -33.4 79.35 -34.0 79.35 -34.45 78.9 L-34.9 77.85 Q-34.9 77.25 -34.45 76.8 -34.0 76.35 -33.4 76.35 M-38.15 80.65 Q-37.7 80.2 -37.1 80.2 -36.5 80.2 -36.05 80.65 -35.6 81.1 -35.6 81.7 -35.6 82.3 -36.05 82.75 -36.5 83.2 -37.1 83.2 -37.7 83.2 -38.15 82.75 L-38.6 81.7 Q-38.6 81.1 -38.15 80.65 M-30.9 82.05 Q-30.45 82.5 -30.45 83.1 -30.45 83.7 -30.9 84.15 -31.35 84.6 -31.95 84.6 L-33.0 84.15 Q-33.45 83.7 -33.45 83.1 -33.45 82.5 -33.0 82.05 -32.55 81.6 -31.95 81.6 -31.35 81.6 -30.9 82.05 M-33.35 97.6 Q-32.75 97.6 -32.3 98.05 -31.85 98.5 -31.85 99.1 -31.85 99.7 -32.3 100.15 -32.75 100.6 -33.35 100.6 -33.95 100.6 -34.4 100.15 -34.85 99.7 -34.85 99.1 -34.85 98.5 -34.4 98.05 -33.95 97.6 -33.35 97.6 M-22.3 87.1 Q-21.85 86.65 -21.25 86.65 -20.65 86.65 -20.2 87.1 -19.75 87.55 -19.75 88.15 -19.75 88.75 -20.2 89.2 -20.65 89.65 -21.25 89.65 -21.85 89.65 -22.3 89.2 L-22.75 88.15 Q-22.75 87.55 -22.3 87.1 M-26.3 96.6 Q-25.85 97.05 -25.85 97.65 -25.85 98.25 -26.3 98.7 -26.75 99.15 -27.35 99.15 -27.95 99.15 -28.4 98.7 -28.85 98.25 -28.85 97.65 -28.85 97.05 -28.4 96.6 -27.95 96.15 -27.35 96.15 -26.75 96.15 -26.3 96.6 M-22.45 95.15 Q-22.0 94.7 -21.4 94.7 -20.8 94.7 -20.35 95.15 -19.9 95.6 -19.9 96.2 -19.9 96.8 -20.35 97.25 -20.8 97.7 -21.4 97.7 -22.0 97.7 -22.45 97.25 L-22.9 96.2 Q-22.9 95.6 -22.45 95.15 M-18.35 91.7 Q-17.9 91.25 -17.3 91.25 -16.7 91.25 -16.25 91.7 -15.8 92.15 -15.8 92.75 -15.8 93.35 -16.25 93.8 -16.7 94.25 -17.3 94.25 -17.9 94.25 -18.35 93.8 -18.8 93.35 -18.8 92.75 -18.8 92.15 -18.35 91.7 M-89.9 0.4 Q-89.45 -0.05 -88.85 -0.05 -88.25 -0.05 -87.8 0.4 -87.35 0.85 -87.35 1.45 -87.35 2.05 -87.8 2.5 -88.25 2.95 -88.85 2.95 L-89.9 2.5 Q-90.35 2.05 -90.35 1.45 -90.35 0.85 -89.9 0.4 M-92.55 3.95 Q-92.1 4.4 -92.1 5.0 -92.1 5.6 -92.55 6.05 -93.0 6.5 -93.6 6.5 -94.2 6.5 -94.65 6.05 L-95.1 5.0 Q-95.1 4.4 -94.65 3.95 -94.2 3.5 -93.6 3.5 -93.0 3.5 -92.55 3.95 M-98.25 8.65 Q-97.8 8.2 -97.2 8.2 -96.6 8.2 -96.15 8.65 -95.7 9.1 -95.7 9.7 -95.7 10.3 -96.15 10.75 -96.6 11.2 -97.2 11.2 -97.8 11.2 -98.25 10.75 L-98.7 9.7 Q-98.7 9.1 -98.25 8.65 M-98.3 14.7 Q-98.3 15.3 -98.75 15.75 -99.2 16.2 -99.8 16.2 -100.4 16.2 -100.85 15.75 -101.3 15.3 -101.3 14.7 -101.3 14.1 -100.85 13.65 -100.4 13.2 -99.8 13.2 -99.2 13.2 -98.75 13.65 -98.3 14.1 -98.3 14.7 M-119.45 7.35 Q-119.0 6.9 -118.4 6.9 -117.8 6.9 -117.35 7.35 -116.9 7.8 -116.9 8.4 -116.9 9.0 -117.35 9.45 -117.8 9.9 -118.4 9.9 -119.0 9.9 -119.45 9.45 -119.9 9.0 -119.9 8.4 -119.9 7.8 -119.45 7.35 M-113.2 11.9 Q-112.75 12.35 -112.75 12.95 -112.75 13.55 -113.2 14.0 -113.65 14.45 -114.25 14.45 -114.85 14.45 -115.3 14.0 L-115.75 12.95 Q-115.75 12.35 -115.3 11.9 -114.85 11.45 -114.25 11.45 -113.65 11.45 -113.2 11.9 M-111.55 16.55 Q-111.1 16.1 -110.5 16.1 -109.9 16.1 -109.45 16.55 -109.0 17.0 -109.0 17.6 -109.0 18.2 -109.45 18.65 -109.9 19.1 -110.5 19.1 -111.1 19.1 -111.55 18.65 L-112.0 17.6 Q-112.0 17.0 -111.55 16.55 M-107.9 20.95 Q-107.45 20.5 -106.85 20.5 -106.25 20.5 -105.8 20.95 -105.35 21.4 -105.35 22.0 -105.35 22.6 -105.8 23.05 -106.25 23.5 -106.85 23.5 -107.45 23.5 -107.9 23.05 -108.35 22.6 -108.35 22.0 -108.35 21.4 -107.9 20.95 M-103.4 19.1 Q-102.95 18.65 -102.35 18.65 -101.75 18.65 -101.3 19.1 -100.85 19.55 -100.85 20.15 -100.85 20.75 -101.3 21.2 -101.75 21.65 -102.35 21.65 -102.95 21.65 -103.4 21.2 -103.85 20.75 -103.85 20.15 -103.85 19.55 -103.4 19.1 M-122.15 3.85 Q-121.7 4.3 -121.7 4.9 -121.7 5.5 -122.15 5.95 -122.6 6.4 -123.2 6.4 -123.8 6.4 -124.25 5.95 L-124.7 4.9 Q-124.7 4.3 -124.25 3.85 -123.8 3.4 -123.2 3.4 -122.6 3.4 -122.15 3.85 M-130.05 1.35 Q-129.6 0.9 -129.0 0.9 -128.4 0.9 -127.95 1.35 -127.5 1.8 -127.5 2.4 -127.5 3.0 -127.95 3.45 -128.4 3.9 -129.0 3.9 L-130.05 3.45 Q-130.5 3.0 -130.5 2.4 -130.5 1.8 -130.05 1.35 M-133.5 3.25 Q-133.05 3.7 -133.05 4.3 -133.05 4.9 -133.5 5.35 -133.95 5.8 -134.55 5.8 -135.15 5.8 -135.6 5.35 L-136.05 4.3 Q-136.05 3.7 -135.6 3.25 -135.15 2.8 -134.55 2.8 -133.95 2.8 -133.5 3.25 M-138.05 8.95 Q-137.6 8.5 -137.0 8.5 -136.4 8.5 -135.95 8.95 -135.5 9.4 -135.5 10.0 -135.5 10.6 -135.95 11.05 -136.4 11.5 -137.0 11.5 -137.6 11.5 -138.05 11.05 -138.5 10.6 -138.5 10.0 -138.5 9.4 -138.05 8.95 M-37.75 100.4 Q-37.75 101.0 -38.2 101.45 -38.65 101.9 -39.25 101.9 -39.85 101.9 -40.3 101.45 L-40.75 100.4 Q-40.75 99.8 -40.3 99.35 -39.85 98.9 -39.25 98.9 -38.65 98.9 -38.2 99.35 -37.75 99.8 -37.75 100.4 M-46.1 100.6 Q-45.65 100.15 -45.05 100.15 -44.45 100.15 -44.0 100.6 -43.55 101.05 -43.55 101.65 -43.55 102.25 -44.0 102.7 -44.45 103.15 -45.05 103.15 -45.65 103.15 -46.1 102.7 L-46.55 101.65 Q-46.55 101.05 -46.1 100.6" fill="#6c4900" fill-rule="evenodd" stroke="none"/>
    <path d="M-78.7 -99.75 Q-77.8 -98.85 -77.8 -97.6 -77.8 -96.35 -78.7 -95.5 -79.55 -94.6 -80.8 -94.6 -82.05 -94.6 -82.95 -95.5 -83.8 -96.35 -83.8 -97.6 -83.8 -98.85 -82.95 -99.75 -82.05 -100.6 -80.8 -100.6 -79.55 -100.6 -78.7 -99.75 M-3.4 -137.6 Q-2.15 -137.6 -1.3 -136.75 -0.4 -135.85 -0.4 -134.6 -0.4 -133.35 -1.3 -132.5 -2.15 -131.6 -3.4 -131.6 -4.65 -131.6 -5.55 -132.5 -6.4 -133.35 -6.4 -134.6 -6.4 -135.85 -5.55 -136.75 -4.65 -137.6 -3.4 -137.6 M-14.2 -134.2 Q-13.3 -135.05 -12.05 -135.05 -10.8 -135.05 -9.95 -134.2 -9.05 -133.3 -9.05 -132.05 -9.05 -130.8 -9.95 -129.95 -10.8 -129.05 -12.05 -129.05 -13.3 -129.05 -14.2 -129.95 -15.05 -130.8 -15.05 -132.05 -15.05 -133.3 -14.2 -134.2 M-17.75 -129.8 Q-16.85 -128.9 -16.85 -127.65 -16.85 -126.4 -17.75 -125.55 -18.6 -124.65 -19.85 -124.65 -21.1 -124.65 -22.0 -125.55 -22.85 -126.4 -22.85 -127.65 -22.85 -128.9 -22.0 -129.8 -21.1 -130.65 -19.85 -130.65 -18.6 -130.65 -17.75 -129.8 M-26.6 -125.0 Q-25.35 -125.0 -24.5 -124.15 -23.6 -123.25 -23.6 -122.0 -23.6 -120.75 -24.5 -119.9 -25.35 -119.0 -26.6 -119.0 -27.85 -119.0 -28.75 -119.9 -29.6 -120.75 -29.6 -122.0 -29.6 -123.25 -28.75 -124.15 -27.85 -125.0 -26.6 -125.0 M-29.3 -115.0 Q-29.3 -113.75 -30.2 -112.9 -31.05 -112.0 -32.3 -112.0 -33.55 -112.0 -34.45 -112.9 -35.3 -113.75 -35.3 -115.0 -35.3 -116.25 -34.45 -117.15 -33.55 -118.0 -32.3 -118.0 -31.05 -118.0 -30.2 -117.15 -29.3 -116.25 -29.3 -115.0 M-33.4 -107.15 Q-33.4 -105.9 -34.3 -105.05 -35.15 -104.15 -36.4 -104.15 -37.65 -104.15 -38.55 -105.05 -39.4 -105.9 -39.4 -107.15 -39.4 -108.4 -38.55 -109.3 -37.65 -110.15 -36.4 -110.15 -35.15 -110.15 -34.3 -109.3 -33.4 -108.4 -33.4 -107.15 M-32.95 -100.3 Q-32.05 -99.4 -32.05 -98.15 -32.05 -96.9 -32.95 -96.05 -33.8 -95.15 -35.05 -95.15 -36.3 -95.15 -37.2 -96.05 -38.05 -96.9 -38.05 -98.15 -38.05 -99.4 -37.2 -100.3 -36.3 -101.15 -35.05 -101.15 -33.8 -101.15 -32.95 -100.3 M-89.75 -100.05 Q-88.5 -100.05 -87.65 -99.2 -86.75 -98.3 -86.75 -97.05 -86.75 -95.8 -87.65 -94.95 -88.5 -94.05 -89.75 -94.05 -91.0 -94.05 -91.9 -94.95 -92.75 -95.8 -92.75 -97.05 -92.75 -98.3 -91.9 -99.2 -91.0 -100.05 -89.75 -100.05 M-95.05 -93.9 Q-95.05 -92.65 -95.95 -91.8 -96.8 -90.9 -98.05 -90.9 -99.3 -90.9 -100.2 -91.8 -101.05 -92.65 -101.05 -93.9 -101.05 -95.15 -100.2 -96.05 -99.3 -96.9 -98.05 -96.9 -96.8 -96.9 -95.95 -96.05 -95.05 -95.15 -95.05 -93.9 M-108.1 -91.95 Q-107.2 -92.8 -105.95 -92.8 -104.7 -92.8 -103.85 -91.95 -102.95 -91.05 -102.95 -89.8 -102.95 -88.55 -103.85 -87.7 -104.7 -86.8 -105.95 -86.8 -107.2 -86.8 -108.1 -87.7 -108.95 -88.55 -108.95 -89.8 -108.95 -91.05 -108.1 -91.95 M-113.45 -87.8 Q-112.2 -87.8 -111.35 -86.95 -110.45 -86.05 -110.45 -84.8 -110.45 -83.55 -111.35 -82.7 -112.2 -81.8 -113.45 -81.8 -114.7 -81.8 -115.6 -82.7 -116.45 -83.55 -116.45 -84.8 -116.45 -86.05 -115.6 -86.95 -114.7 -87.8 -113.45 -87.8 M-117.35 -79.0 Q-117.35 -77.75 -118.25 -76.9 -119.1 -76.0 -120.35 -76.0 -121.6 -76.0 -122.5 -76.9 -123.35 -77.75 -123.35 -79.0 -123.35 -80.25 -122.5 -81.15 -121.6 -82.0 -120.35 -82.0 -119.1 -82.0 -118.25 -81.15 -117.35 -80.25 -117.35 -79.0 M-126.55 -75.6 Q-125.3 -75.6 -124.45 -74.75 -123.55 -73.85 -123.55 -72.6 -123.55 -71.35 -124.45 -70.5 -125.3 -69.6 -126.55 -69.6 -127.8 -69.6 -128.7 -70.5 -129.55 -71.35 -129.55 -72.6 -129.55 -73.85 -128.7 -74.75 -127.8 -75.6 -126.55 -75.6 M-127.75 -64.55 Q-127.75 -63.3 -128.65 -62.45 -129.5 -61.55 -130.75 -61.55 -132.0 -61.55 -132.9 -62.45 -133.75 -63.3 -133.75 -64.55 -133.75 -65.8 -132.9 -66.7 -132.0 -67.55 -130.75 -67.55 -129.5 -67.55 -128.65 -66.7 -127.75 -65.8 -127.75 -64.55 M-133.45 -57.85 Q-132.55 -58.7 -131.3 -58.7 -130.05 -58.7 -129.2 -57.85 -128.3 -56.95 -128.3 -55.7 -128.3 -54.45 -129.2 -53.6 -130.05 -52.7 -131.3 -52.7 -132.55 -52.7 -133.45 -53.6 -134.3 -54.45 -134.3 -55.7 -134.3 -56.95 -133.45 -57.85 M-125.75 -46.7 Q-125.75 -45.45 -126.65 -44.6 -127.5 -43.7 -128.75 -43.7 -130.0 -43.7 -130.9 -44.6 -131.75 -45.45 -131.75 -46.7 -131.75 -47.95 -130.9 -48.85 -130.0 -49.7 -128.75 -49.7 -127.5 -49.7 -126.65 -48.85 -125.75 -47.95 -125.75 -46.7 M-121.95 -41.65 Q-121.05 -40.75 -121.05 -39.5 -121.05 -38.25 -121.95 -37.4 -122.8 -36.5 -124.05 -36.5 -125.3 -36.5 -126.2 -37.4 -127.05 -38.25 -127.05 -39.5 -127.05 -40.75 -126.2 -41.65 -125.3 -42.5 -124.05 -42.5 -122.8 -42.5 -121.95 -41.65 M-122.45 -15.05 Q-121.2 -15.05 -120.35 -14.2 -119.45 -13.3 -119.45 -12.05 -119.45 -10.8 -120.35 -9.95 -121.2 -9.05 -122.45 -9.05 -123.7 -9.05 -124.6 -9.95 -125.45 -10.8 -125.45 -12.05 -125.45 -13.3 -124.6 -14.2 -123.7 -15.05 -122.45 -15.05 M-131.85 -8.85 Q-130.95 -9.7 -129.7 -9.7 -128.45 -9.7 -127.6 -8.85 -126.7 -7.95 -126.7 -6.7 -126.7 -5.45 -127.6 -4.6 -128.45 -3.7 -129.7 -3.7 -130.95 -3.7 -131.85 -4.6 -132.7 -5.45 -132.7 -6.7 -132.7 -7.95 -131.85 -8.85 M-138.45 -2.85 Q-137.55 -3.7 -136.3 -3.7 -135.05 -3.7 -134.2 -2.85 -133.3 -1.95 -133.3 -0.7 -133.3 0.55 -134.2 1.4 -135.05 2.3 -136.3 2.3 -137.55 2.3 -138.45 1.4 -139.3 0.55 -139.3 -0.7 -139.3 -1.95 -138.45 -2.85 M-86.65 -40.2 Q-86.65 -38.95 -87.55 -38.1 -88.4 -37.2 -89.65 -37.2 -90.9 -37.2 -91.8 -38.1 -92.65 -38.95 -92.65 -40.2 -92.65 -41.45 -91.8 -42.35 -90.9 -43.2 -89.65 -43.2 -88.4 -43.2 -87.55 -42.35 -86.65 -41.45 -86.65 -40.2 M-82.0 -38.55 Q-80.75 -38.55 -79.9 -37.7 -79.0 -36.8 -79.0 -35.55 -79.0 -34.3 -79.9 -33.45 -80.75 -32.55 -82.0 -32.55 -83.25 -32.55 -84.15 -33.45 -85.0 -34.3 -85.0 -35.55 -85.0 -36.8 -84.15 -37.7 -83.25 -38.55 -82.0 -38.55 M-95.15 -43.35 Q-95.15 -42.1 -96.05 -41.25 -96.9 -40.35 -98.15 -40.35 -99.4 -40.35 -100.3 -41.25 -101.15 -42.1 -101.15 -43.35 -101.15 -44.6 -100.3 -45.5 -99.4 -46.35 -98.15 -46.35 -96.9 -46.35 -96.05 -45.5 -95.15 -44.6 -95.15 -43.35 M-95.7 -25.15 Q-94.8 -24.25 -94.8 -23.0 -94.8 -21.75 -95.7 -20.9 -96.55 -20.0 -97.8 -20.0 -99.05 -20.0 -99.95 -20.9 -100.8 -21.75 -100.8 -23.0 -100.8 -24.25 -99.95 -25.15 -99.05 -26.0 -97.8 -26.0 -96.55 -26.0 -95.7 -25.15 M-86.6 -26.95 Q-85.7 -26.05 -85.7 -24.8 -85.7 -23.55 -86.6 -22.7 -87.45 -21.8 -88.7 -21.8 -89.95 -21.8 -90.85 -22.7 -91.7 -23.55 -91.7 -24.8 -91.7 -26.05 -90.85 -26.95 -89.95 -27.8 -88.7 -27.8 -87.45 -27.8 -86.6 -26.95 M-104.9 -46.5 Q-104.0 -45.6 -104.0 -44.35 -104.0 -43.1 -104.9 -42.25 -105.75 -41.35 -107.0 -41.35 -108.25 -41.35 -109.15 -42.25 -110.0 -43.1 -110.0 -44.35 -110.0 -45.6 -109.15 -46.5 -108.25 -47.35 -107.0 -47.35 -105.75 -47.35 -104.9 -46.5 M-118.0 -45.1 Q-117.1 -45.95 -115.85 -45.95 -114.6 -45.95 -113.75 -45.1 -112.85 -44.2 -112.85 -42.95 -112.85 -41.7 -113.75 -40.85 -114.6 -39.95 -115.85 -39.95 -117.1 -39.95 -118.0 -40.85 -118.85 -41.7 -118.85 -42.95 -118.85 -44.2 -118.0 -45.1 M-108.5 -22.4 Q-107.6 -23.25 -106.35 -23.25 -105.1 -23.25 -104.25 -22.4 -103.35 -21.5 -103.35 -20.25 -103.35 -19.0 -104.25 -18.15 -105.1 -17.25 -106.35 -17.25 -107.6 -17.25 -108.5 -18.15 -109.35 -19.0 -109.35 -20.25 -109.35 -21.5 -108.5 -22.4 M-116.85 -18.7 Q-115.95 -19.55 -114.7 -19.55 -113.45 -19.55 -112.6 -18.7 -111.7 -17.8 -111.7 -16.55 -111.7 -15.3 -112.6 -14.45 -113.45 -13.55 -114.7 -13.55 -115.95 -13.55 -116.85 -14.45 -117.7 -15.3 -117.7 -16.55 -117.7 -17.8 -116.85 -18.7 M-82.7 -23.85 Q-82.7 -25.1 -81.85 -26.0 -80.95 -26.85 -79.7 -26.85 -78.45 -26.85 -77.6 -26.0 -76.7 -25.1 -76.7 -23.85 -76.7 -22.6 -77.6 -21.75 -78.45 -20.85 -79.7 -20.85 -80.95 -20.85 -81.85 -21.75 -82.7 -22.6 -82.7 -23.85 M-28.8 -89.9 Q-28.8 -88.65 -29.7 -87.8 -30.55 -86.9 -31.8 -86.9 -33.05 -86.9 -33.95 -87.8 -34.8 -88.65 -34.8 -89.9 -34.8 -91.15 -33.95 -92.05 -33.05 -92.9 -31.8 -92.9 -30.55 -92.9 -29.7 -92.05 -28.8 -91.15 -28.8 -89.9 M-30.6 -83.75 Q-29.7 -84.6 -28.45 -84.6 -27.2 -84.6 -26.35 -83.75 -25.45 -82.85 -25.45 -81.6 -25.45 -80.35 -26.35 -79.5 -27.2 -78.6 -28.45 -78.6 -29.7 -78.6 -30.6 -79.5 -31.45 -80.35 -31.45 -81.6 -31.45 -82.85 -30.6 -83.75 M-23.7 -75.45 Q-22.8 -74.55 -22.8 -73.3 -22.8 -72.05 -23.7 -71.2 -24.55 -70.3 -25.8 -70.3 -27.05 -70.3 -27.95 -71.2 -28.8 -72.05 -28.8 -73.3 -28.8 -74.55 -27.95 -75.45 -27.05 -76.3 -25.8 -76.3 -24.55 -76.3 -23.7 -75.45 M-26.9 -64.65 Q-26.9 -65.9 -26.05 -66.8 -25.15 -67.65 -23.9 -67.65 -22.65 -67.65 -21.8 -66.8 -20.9 -65.9 -20.9 -64.65 -20.9 -63.4 -21.8 -62.55 -22.65 -61.65 -23.9 -61.65 -25.15 -61.65 -26.05 -62.55 -26.9 -63.4 -26.9 -64.65 M-37.4 -62.65 Q-37.4 -61.4 -38.3 -60.55 -39.15 -59.65 -40.4 -59.65 -41.65 -59.65 -42.55 -60.55 -43.4 -61.4 -43.4 -62.65 -43.4 -63.9 -42.55 -64.8 -41.65 -65.65 -40.4 -65.65 -39.15 -65.65 -38.3 -64.8 -37.4 -63.9 -37.4 -62.65 M-36.45 -57.55 Q-35.2 -57.55 -34.35 -56.7 -33.45 -55.8 -33.45 -54.55 -33.45 -53.3 -34.35 -52.45 -35.2 -51.55 -36.45 -51.55 -37.7 -51.55 -38.6 -52.45 -39.45 -53.3 -39.45 -54.55 -39.45 -55.8 -38.6 -56.7 -37.7 -57.55 -36.45 -57.55 M-24.75 -57.9 Q-23.85 -58.75 -22.6 -58.75 -21.35 -58.75 -20.5 -57.9 -19.6 -57.0 -19.6 -55.75 -19.6 -54.5 -20.5 -53.65 -21.35 -52.75 -22.6 -52.75 -23.85 -52.75 -24.75 -53.65 -25.6 -54.5 -25.6 -55.75 -25.6 -57.0 -24.75 -57.9 M-58.25 -85.95 Q-57.0 -85.95 -56.15 -85.1 -55.25 -84.2 -55.25 -82.95 -55.25 -81.7 -56.15 -80.85 -57.0 -79.95 -58.25 -79.95 -59.5 -79.95 -60.4 -80.85 -61.25 -81.7 -61.25 -82.95 -61.25 -84.2 -60.4 -85.1 -59.5 -85.95 -58.25 -85.95 M-51.65 -79.6 Q-50.4 -79.6 -49.55 -78.75 -48.65 -77.85 -48.65 -76.6 -48.65 -75.35 -49.55 -74.5 -50.4 -73.6 -51.65 -73.6 -52.9 -73.6 -53.8 -74.5 -54.65 -75.35 -54.65 -76.6 -54.65 -77.85 -53.8 -78.75 -52.9 -79.6 -51.65 -79.6 M-67.1 -91.1 Q-66.2 -91.95 -64.95 -91.95 -63.7 -91.95 -62.85 -91.1 -61.95 -90.2 -61.95 -88.95 -61.95 -87.7 -62.85 -86.85 -63.7 -85.95 -64.95 -85.95 -66.2 -85.95 -67.1 -86.85 -67.95 -87.7 -67.95 -88.95 -67.95 -90.2 -67.1 -91.1 M-69.4 -94.1 Q-69.4 -92.85 -70.3 -92.0 -71.15 -91.1 -72.4 -91.1 -73.65 -91.1 -74.55 -92.0 -75.4 -92.85 -75.4 -94.1 -75.4 -95.35 -74.55 -96.25 -73.65 -97.1 -72.4 -97.1 -71.15 -97.1 -70.3 -96.25 -69.4 -95.35 -69.4 -94.1 M-42.55 -70.05 Q-42.55 -68.8 -43.45 -67.95 -44.3 -67.05 -45.55 -67.05 -46.8 -67.05 -47.7 -67.95 -48.55 -68.8 -48.55 -70.05 -48.55 -71.3 -47.7 -72.2 -46.8 -73.05 -45.55 -73.05 -44.3 -73.05 -43.45 -72.2 -42.55 -71.3 -42.55 -70.05 M-72.95 -31.6 Q-72.05 -30.7 -72.05 -29.45 -72.05 -28.2 -72.95 -27.35 -73.8 -26.45 -75.05 -26.45 -76.3 -26.45 -77.2 -27.35 -78.05 -28.2 -78.05 -29.45 -78.05 -30.7 -77.2 -31.6 -76.3 -32.45 -75.05 -32.45 -73.8 -32.45 -72.95 -31.6 M-67.05 -24.9 Q-66.15 -24.0 -66.15 -22.75 -66.15 -21.5 -67.05 -20.65 -67.65 -20.0 -68.5 -19.8 L-69.0 -19.2 Q-69.85 -18.3 -71.1 -18.3 -72.35 -18.3 -73.25 -19.2 -74.1 -20.05 -74.1 -21.3 -74.1 -22.55 -73.25 -23.45 -72.6 -24.05 -71.8 -24.2 L-71.3 -24.9 Q-70.4 -25.75 -69.15 -25.75 -67.9 -25.75 -67.05 -24.9 M-18.85 -46.85 Q-18.85 -45.6 -19.75 -44.75 -20.6 -43.85 -21.85 -43.85 -23.1 -43.85 -24.0 -44.75 -24.85 -45.6 -24.85 -46.85 -24.85 -48.1 -24.0 -49.0 -23.1 -49.85 -21.85 -49.85 -20.6 -49.85 -19.75 -49.0 -18.85 -48.1 -18.85 -46.85 M-18.95 -37.8 Q-18.95 -36.55 -19.85 -35.7 -20.7 -34.8 -21.95 -34.8 -23.2 -34.8 -24.1 -35.7 -24.95 -36.55 -24.95 -37.8 -24.95 -39.05 -24.1 -39.95 -23.2 -40.8 -21.95 -40.8 -20.7 -40.8 -19.85 -39.95 -18.95 -39.05 -18.95 -37.8 M-27.55 -37.55 Q-27.55 -36.3 -28.45 -35.45 -29.3 -34.55 -30.55 -34.55 -31.8 -34.55 -32.7 -35.45 -33.55 -36.3 -33.55 -37.55 -33.55 -38.8 -32.7 -39.7 -31.8 -40.55 -30.55 -40.55 -29.3 -40.55 -28.45 -39.7 -27.55 -38.8 -27.55 -37.55 M-35.3 -48.25 Q-34.4 -49.1 -33.15 -49.1 -31.9 -49.1 -31.05 -48.25 -30.15 -47.35 -30.15 -46.1 -30.15 -44.85 -31.05 -44.0 -31.9 -43.1 -33.15 -43.1 -34.4 -43.1 -35.3 -44.0 -36.15 -44.85 -36.15 -46.1 -36.15 -47.35 -35.3 -48.25 M-30.6 -30.6 Q-29.7 -31.45 -28.45 -31.45 -27.2 -31.45 -26.35 -30.6 -25.8 -30.05 -25.6 -29.4 -25.45 -30.3 -24.8 -31.0 -23.9 -31.85 -22.65 -31.85 -21.4 -31.85 -20.55 -31.0 -19.65 -30.1 -19.65 -28.85 -19.65 -27.6 -20.55 -26.75 -21.4 -25.85 -22.65 -25.85 -23.9 -25.85 -24.8 -26.75 L-25.5 -27.85 Q-25.65 -27.0 -26.35 -26.35 -27.2 -25.45 -28.45 -25.45 -29.7 -25.45 -30.6 -26.35 -31.45 -27.2 -31.45 -28.45 -31.45 -29.7 -30.6 -30.6 M-20.9 -19.95 Q-20.9 -18.7 -21.8 -17.85 -22.65 -16.95 -23.9 -16.95 L-24.9 -17.1 Q-25.75 -16.4 -26.85 -16.4 -28.1 -16.4 -29.0 -17.3 -29.85 -18.15 -29.85 -19.4 -29.85 -20.65 -29.0 -21.55 -28.1 -22.4 -26.85 -22.4 L-25.85 -22.25 Q-25.05 -22.95 -23.9 -22.95 -22.65 -22.95 -21.8 -22.1 -20.9 -21.2 -20.9 -19.95 M-25.6 -14.0 Q-24.35 -14.0 -23.5 -13.15 -22.6 -12.25 -22.6 -11.0 -22.6 -9.75 -23.5 -8.9 -24.35 -8.0 -25.6 -8.0 -26.85 -8.0 -27.75 -8.9 -28.6 -9.75 -28.6 -11.0 -28.6 -12.25 -27.75 -13.15 -26.85 -14.0 -25.6 -14.0 M105.25 -101.35 Q106.15 -102.2 107.4 -102.2 108.65 -102.2 109.5 -101.35 110.4 -100.45 110.4 -99.2 110.4 -97.95 109.5 -97.1 108.65 -96.2 107.4 -96.2 106.15 -96.2 105.25 -97.1 104.4 -97.95 104.4 -99.2 104.4 -100.45 105.25 -101.35 M98.7 -101.9 Q99.95 -101.9 100.8 -101.05 101.7 -100.15 101.7 -98.9 101.7 -97.65 100.8 -96.8 99.95 -95.9 98.7 -95.9 97.45 -95.9 96.55 -96.8 95.7 -97.65 95.7 -98.9 95.7 -100.15 96.55 -101.05 97.45 -101.9 98.7 -101.9 M26.75 -131.95 Q26.75 -130.7 25.85 -129.85 25.0 -128.95 23.75 -128.95 22.5 -128.95 21.6 -129.85 20.75 -130.7 20.75 -131.95 20.75 -133.2 21.6 -134.1 22.5 -134.95 23.75 -134.95 25.0 -134.95 25.85 -134.1 26.75 -133.2 26.75 -131.95 M29.0 -128.65 Q29.0 -129.9 29.85 -130.8 30.75 -131.65 32.0 -131.65 33.25 -131.65 34.1 -130.8 35.0 -129.9 35.0 -128.65 35.0 -127.4 34.1 -126.55 33.25 -125.65 32.0 -125.65 30.75 -125.65 29.85 -126.55 29.0 -127.4 29.0 -128.65 M37.65 -125.2 Q38.9 -125.2 39.75 -124.35 40.65 -123.45 40.65 -122.2 40.65 -120.95 39.75 -120.1 38.9 -119.2 37.65 -119.2 36.4 -119.2 35.5 -120.1 34.65 -120.95 34.65 -122.2 34.65 -123.45 35.5 -124.35 36.4 -125.2 37.65 -125.2 M5.65 -138.05 Q6.9 -138.05 7.75 -137.2 8.65 -136.3 8.65 -135.05 8.65 -133.8 7.75 -132.95 6.9 -132.05 5.65 -132.05 4.4 -132.05 3.5 -132.95 2.65 -133.8 2.65 -135.05 2.65 -136.3 3.5 -137.2 4.4 -138.05 5.65 -138.05 M12.5 -135.75 Q13.4 -136.6 14.65 -136.6 15.9 -136.6 16.75 -135.75 17.65 -134.85 17.65 -133.6 17.65 -132.35 16.75 -131.5 15.9 -130.6 14.65 -130.6 13.4 -130.6 12.5 -131.5 11.65 -132.35 11.65 -133.6 11.65 -134.85 12.5 -135.75 M34.45 -113.65 Q34.45 -114.9 35.3 -115.8 36.2 -116.65 37.45 -116.65 38.7 -116.65 39.55 -115.8 40.45 -114.9 40.45 -113.65 40.45 -112.4 39.55 -111.55 38.7 -110.65 37.45 -110.65 36.2 -110.65 35.3 -111.55 34.45 -112.4 34.45 -113.65 M30.0 -100.05 Q31.25 -100.05 32.1 -99.2 33.0 -98.3 33.0 -97.05 33.0 -95.8 32.1 -94.95 31.25 -94.05 30.0 -94.05 28.75 -94.05 27.85 -94.95 27.0 -95.8 27.0 -97.05 27.0 -98.3 27.85 -99.2 28.75 -100.05 30.0 -100.05 M31.55 -107.55 Q32.45 -108.4 33.7 -108.4 34.95 -108.4 35.8 -107.55 36.7 -106.65 36.7 -105.4 36.7 -104.15 35.8 -103.3 34.95 -102.4 33.7 -102.4 32.45 -102.4 31.55 -103.3 30.7 -104.15 30.7 -105.4 30.7 -106.65 31.55 -107.55 M79.25 -95.55 Q80.15 -96.4 81.4 -96.4 82.65 -96.4 83.5 -95.55 84.4 -94.65 84.4 -93.4 84.4 -92.15 83.5 -91.3 82.65 -90.4 81.4 -90.4 80.15 -90.4 79.25 -91.3 78.4 -92.15 78.4 -93.4 78.4 -94.65 79.25 -95.55 M76.15 -89.75 Q76.15 -88.5 75.25 -87.65 74.4 -86.75 73.15 -86.75 71.9 -86.75 71.0 -87.65 70.15 -88.5 70.15 -89.75 70.15 -91.0 71.0 -91.9 71.9 -92.75 73.15 -92.75 74.4 -92.75 75.25 -91.9 76.15 -91.0 76.15 -89.75 M67.4 -87.55 Q68.3 -86.65 68.3 -85.4 68.3 -84.15 67.4 -83.3 66.55 -82.4 65.3 -82.4 64.05 -82.4 63.15 -83.3 62.3 -84.15 62.3 -85.4 62.3 -86.65 63.15 -87.55 64.05 -88.4 65.3 -88.4 66.55 -88.4 67.4 -87.55 M50.55 -77.6 Q51.8 -77.6 52.65 -76.75 53.55 -75.85 53.55 -74.6 53.55 -73.35 52.65 -72.5 51.8 -71.6 50.55 -71.6 49.3 -71.6 48.4 -72.5 47.55 -73.35 47.55 -74.6 47.55 -75.85 48.4 -76.75 49.3 -77.6 50.55 -77.6 M55.7 -82.55 Q56.6 -83.4 57.85 -83.4 59.1 -83.4 59.95 -82.55 60.85 -81.65 60.85 -80.4 60.85 -79.15 59.95 -78.3 59.1 -77.4 57.85 -77.4 56.6 -77.4 55.7 -78.3 54.85 -79.15 54.85 -80.4 54.85 -81.65 55.7 -82.55 M46.9 -68.6 Q46.9 -67.35 46.0 -66.5 45.15 -65.6 43.9 -65.6 42.65 -65.6 41.75 -66.5 40.9 -67.35 40.9 -68.6 40.9 -69.85 41.75 -70.75 42.65 -71.6 43.9 -71.6 45.15 -71.6 46.0 -70.75 46.9 -69.85 46.9 -68.6 M24.5 -90.75 Q25.4 -91.6 26.65 -91.6 27.9 -91.6 28.75 -90.75 29.65 -89.85 29.65 -88.6 29.65 -87.35 28.75 -86.5 27.9 -85.6 26.65 -85.6 25.4 -85.6 24.5 -86.5 23.65 -87.35 23.65 -88.6 23.65 -89.85 24.5 -90.75 M23.55 -83.2 Q24.8 -83.2 25.65 -82.35 26.55 -81.45 26.55 -80.2 26.55 -78.95 25.65 -78.1 24.8 -77.2 23.55 -77.2 22.3 -77.2 21.4 -78.1 20.55 -78.95 20.55 -80.2 20.55 -81.45 21.4 -82.35 22.3 -83.2 23.55 -83.2 M17.55 -71.7 Q17.55 -72.95 18.4 -73.85 19.3 -74.7 20.55 -74.7 21.8 -74.7 22.65 -73.85 23.55 -72.95 23.55 -71.7 23.55 -70.45 22.65 -69.6 21.8 -68.7 20.55 -68.7 19.3 -68.7 18.4 -69.6 17.55 -70.45 17.55 -71.7 M19.85 -65.05 Q20.75 -64.15 20.75 -62.9 20.75 -61.65 19.85 -60.8 19.0 -59.9 17.75 -59.9 16.5 -59.9 15.6 -60.8 14.75 -61.65 14.75 -62.9 14.75 -64.15 15.6 -65.05 16.5 -65.9 17.75 -65.9 19.0 -65.9 19.85 -65.05 M17.55 -56.4 Q18.45 -55.5 18.45 -54.25 18.45 -53.0 17.55 -52.15 16.7 -51.25 15.45 -51.25 14.2 -51.25 13.3 -52.15 12.45 -53.0 12.45 -54.25 12.45 -55.5 13.3 -56.4 14.2 -57.25 15.45 -57.25 16.7 -57.25 17.55 -56.4 M35.35 -64.35 Q36.25 -65.2 37.5 -65.2 38.75 -65.2 39.6 -64.35 40.5 -63.45 40.5 -62.2 40.5 -60.95 39.6 -60.1 38.75 -59.2 37.5 -59.2 36.25 -59.2 35.35 -60.1 34.5 -60.95 34.5 -62.2 34.5 -63.45 35.35 -64.35 M29.35 -57.6 Q30.25 -58.45 31.5 -58.45 32.75 -58.45 33.6 -57.6 34.5 -56.7 34.5 -55.45 34.5 -54.2 33.6 -53.35 32.75 -52.45 31.5 -52.45 30.25 -52.45 29.35 -53.35 28.5 -54.2 28.5 -55.45 28.5 -56.7 29.35 -57.6 M28.05 -50.55 Q28.95 -49.65 28.95 -48.4 28.95 -47.15 28.05 -46.3 27.2 -45.4 25.95 -45.4 24.7 -45.4 23.8 -46.3 22.95 -47.15 22.95 -48.4 22.95 -49.65 23.8 -50.55 24.7 -51.4 25.95 -51.4 27.2 -51.4 28.05 -50.55 M23.65 -40.95 Q23.65 -39.7 22.75 -38.85 21.9 -37.95 20.65 -37.95 19.4 -37.95 18.5 -38.85 17.65 -39.7 17.65 -40.95 17.65 -42.2 18.5 -43.1 19.4 -43.95 20.65 -43.95 21.9 -43.95 22.75 -43.1 23.65 -42.2 23.65 -40.95 M16.55 -45.2 Q16.55 -43.95 15.65 -43.1 14.8 -42.2 13.55 -42.2 12.3 -42.2 11.4 -43.1 10.55 -43.95 10.55 -45.2 10.55 -46.45 11.4 -47.35 12.3 -48.2 13.55 -48.2 14.8 -48.2 15.65 -47.35 16.55 -46.45 16.55 -45.2 M14.25 -38.4 Q15.05 -37.6 15.15 -36.45 L15.65 -36.5 Q16.9 -36.5 17.75 -35.65 18.65 -34.75 18.65 -33.5 18.65 -32.25 17.75 -31.4 16.9 -30.5 15.65 -30.5 14.4 -30.5 13.5 -31.4 12.7 -32.2 12.65 -33.3 L12.15 -33.25 Q10.9 -33.25 10.0 -34.15 9.15 -35.0 9.15 -36.25 9.15 -37.5 10.0 -38.4 10.9 -39.25 12.15 -39.25 13.4 -39.25 14.25 -38.4 M9.05 -29.25 Q9.95 -30.1 11.2 -30.1 12.45 -30.1 13.3 -29.25 14.2 -28.35 14.2 -27.1 14.2 -25.85 13.3 -25.0 12.45 -24.1 11.2 -24.1 9.95 -24.1 9.05 -25.0 8.2 -25.85 8.2 -27.1 8.2 -28.35 9.05 -29.25 M121.5 -84.2 Q120.65 -83.3 119.4 -83.3 118.15 -83.3 117.25 -84.2 116.4 -85.05 116.4 -86.3 116.4 -87.55 117.25 -88.45 118.15 -89.3 119.4 -89.3 120.65 -89.3 121.5 -88.45 122.4 -87.55 122.4 -86.3 122.4 -85.05 121.5 -84.2 M125.9 -80.45 Q126.8 -79.55 126.8 -78.3 126.8 -77.05 125.9 -76.2 125.05 -75.3 123.8 -75.3 122.55 -75.3 121.65 -76.2 120.8 -77.05 120.8 -78.3 120.8 -79.55 121.65 -80.45 122.55 -81.3 123.8 -81.3 125.05 -81.3 125.9 -80.45 M129.45 -69.7 Q129.45 -68.45 128.55 -67.6 127.7 -66.7 126.45 -66.7 125.2 -66.7 124.3 -67.6 123.45 -68.45 123.45 -69.7 123.45 -70.95 124.3 -71.85 125.2 -72.7 126.45 -72.7 127.7 -72.7 128.55 -71.85 129.45 -70.95 129.45 -69.7 M129.0 -62.8 Q129.9 -61.9 129.9 -60.65 129.9 -59.4 129.0 -58.55 128.15 -57.65 126.9 -57.65 125.65 -57.65 124.75 -58.55 123.9 -59.4 123.9 -60.65 123.9 -61.9 124.75 -62.8 125.65 -63.65 126.9 -63.65 128.15 -63.65 129.0 -62.8 M122.8 -53.85 Q123.7 -54.7 124.95 -54.7 126.2 -54.7 127.05 -53.85 127.95 -52.95 127.95 -51.7 127.95 -50.45 127.05 -49.6 126.2 -48.7 124.95 -48.7 123.7 -48.7 122.8 -49.6 121.95 -50.45 121.95 -51.7 121.95 -52.95 122.8 -53.85 M116.35 -95.7 Q117.25 -94.8 117.25 -93.55 117.25 -92.3 116.35 -91.45 115.5 -90.55 114.25 -90.55 113.0 -90.55 112.1 -91.45 111.25 -92.3 111.25 -93.55 111.25 -94.8 112.1 -95.7 113.0 -96.55 114.25 -96.55 115.5 -96.55 116.35 -95.7 M92.7 -96.3 Q92.7 -95.05 91.8 -94.2 90.95 -93.3 89.7 -93.3 88.45 -93.3 87.55 -94.2 86.7 -95.05 86.7 -96.3 86.7 -97.55 87.55 -98.45 88.45 -99.3 89.7 -99.3 90.95 -99.3 91.8 -98.45 92.7 -97.55 92.7 -96.3 M135.05 -39.25 Q135.95 -38.35 135.95 -37.1 135.95 -35.85 135.05 -35.0 134.2 -34.1 132.95 -34.1 131.7 -34.1 130.8 -35.0 129.95 -35.85 129.95 -37.1 129.95 -38.35 130.8 -39.25 131.7 -40.1 132.95 -40.1 134.2 -40.1 135.05 -39.25 M125.8 -46.75 Q126.7 -47.6 127.95 -47.6 129.2 -47.6 130.05 -46.75 130.95 -45.85 130.95 -44.6 130.95 -43.35 130.05 -42.5 129.2 -41.6 127.95 -41.6 126.7 -41.6 125.8 -42.5 124.95 -43.35 124.95 -44.6 124.95 -45.85 125.8 -46.75 M136.15 -32.05 Q137.4 -32.05 138.25 -31.2 139.15 -30.3 139.15 -29.05 139.15 -27.8 138.25 -26.95 137.4 -26.05 136.15 -26.05 134.9 -26.05 134.0 -26.95 133.15 -27.8 133.15 -29.05 133.15 -30.3 134.0 -31.2 134.9 -32.05 136.15 -32.05 M141.3 -20.3 Q141.3 -19.05 140.4 -18.2 139.55 -17.3 138.3 -17.3 137.05 -17.3 136.15 -18.2 135.3 -19.05 135.3 -20.3 135.3 -21.55 136.15 -22.45 137.05 -23.3 138.3 -23.3 139.55 -23.3 140.4 -22.45 141.3 -21.55 141.3 -20.3 M139.2 -14.3 Q140.45 -14.3 141.3 -13.45 142.2 -12.55 142.2 -11.3 142.2 -10.05 141.3 -9.2 140.45 -8.3 139.2 -8.3 137.95 -8.3 137.05 -9.2 136.2 -10.05 136.2 -11.3 136.2 -12.55 137.05 -13.45 137.95 -14.3 139.2 -14.3 M135.7 -2.3 Q135.7 -3.55 136.55 -4.45 137.45 -5.3 138.7 -5.3 139.95 -5.3 140.8 -4.45 141.7 -3.55 141.7 -2.3 141.7 -1.05 140.8 -0.2 139.95 0.7 138.7 0.7 137.45 0.7 136.55 -0.2 135.7 -1.05 135.7 -2.3 M134.7 4.45 Q135.6 3.6 136.85 3.6 138.1 3.6 138.95 4.45 139.85 5.35 139.85 6.6 139.85 7.85 138.95 8.7 138.1 9.6 136.85 9.6 135.6 9.6 134.7 8.7 133.85 7.85 133.85 6.6 133.85 5.35 134.7 4.45 M130.25 15.15 Q130.25 13.9 131.1 13.0 132.0 12.15 133.25 12.15 134.5 12.15 135.35 13.0 136.25 13.9 136.25 15.15 136.25 16.4 135.35 17.25 134.5 18.15 133.25 18.15 132.0 18.15 131.1 17.25 130.25 16.4 130.25 15.15 M128.85 18.55 Q129.75 19.45 129.75 20.7 129.75 21.95 128.85 22.8 128.0 23.7 126.75 23.7 125.5 23.7 124.6 22.8 123.75 21.95 123.75 20.7 123.75 19.45 124.6 18.55 125.5 17.7 126.75 17.7 128.0 17.7 128.85 18.55 M109.55 21.35 Q110.8 21.35 111.65 22.2 112.55 23.1 112.55 24.35 112.55 25.6 111.65 26.45 110.8 27.35 109.55 27.35 108.3 27.35 107.4 26.45 106.55 25.6 106.55 24.35 106.55 23.1 107.4 22.2 108.3 21.35 109.55 21.35 M103.15 23.8 Q102.3 24.7 101.05 24.7 99.8 24.7 98.9 23.8 98.05 22.95 98.05 21.7 98.05 20.45 98.9 19.55 99.8 18.7 101.05 18.7 102.3 18.7 103.15 19.55 104.05 20.45 104.05 21.7 104.05 22.95 103.15 23.8 M116.4 22.0 Q117.3 21.15 118.55 21.15 119.8 21.15 120.65 22.0 121.55 22.9 121.55 24.15 121.55 25.4 120.65 26.25 119.8 27.15 118.55 27.15 117.3 27.15 116.4 26.25 115.55 25.4 115.55 24.15 115.55 22.9 116.4 22.0 M86.45 24.4 Q86.45 25.65 85.55 26.5 84.7 27.4 83.45 27.4 82.2 27.4 81.3 26.5 80.45 25.65 80.45 24.4 80.45 23.15 81.3 22.25 82.2 21.4 83.45 21.4 84.7 21.4 85.55 22.25 86.45 23.15 86.45 24.4 M90.0 20.25 Q90.9 19.4 92.15 19.4 93.4 19.4 94.25 20.25 95.15 21.15 95.15 22.4 95.15 23.65 94.25 24.5 93.4 25.4 92.15 25.4 90.9 25.4 90.0 24.5 89.15 23.65 89.15 22.4 89.15 21.15 90.0 20.25 M84.3 30.75 Q85.2 31.65 85.2 32.9 85.2 34.15 84.3 35.0 83.45 35.9 82.2 35.9 80.95 35.9 80.05 35.0 79.2 34.15 79.2 32.9 79.2 31.65 80.05 30.75 80.95 29.9 82.2 29.9 83.45 29.9 84.3 30.75 M89.8 34.8 Q91.05 34.8 91.9 35.65 92.8 36.55 92.8 37.8 92.8 39.05 91.9 39.9 91.05 40.8 89.8 40.8 88.55 40.8 87.65 39.9 86.8 39.05 86.8 37.8 86.8 36.55 87.65 35.65 88.55 34.8 89.8 34.8 M98.75 41.6 Q99.65 42.5 99.65 43.75 99.65 45.0 98.75 45.85 97.9 46.75 96.65 46.75 95.4 46.75 94.5 45.85 93.65 45.0 93.65 43.75 93.65 42.5 94.5 41.6 95.4 40.75 96.65 40.75 97.9 40.75 98.75 41.6 M103.9 48.95 Q104.8 49.85 104.8 51.1 104.8 52.35 103.9 53.2 103.05 54.1 101.8 54.1 100.55 54.1 99.65 53.2 98.8 52.35 98.8 51.1 98.8 49.85 99.65 48.95 100.55 48.1 101.8 48.1 103.05 48.1 103.9 48.95 M103.85 56.9 Q104.75 56.05 106.0 56.05 107.25 56.05 108.1 56.9 109.0 57.8 109.0 59.05 109.0 60.3 108.1 61.15 107.25 62.05 106.0 62.05 104.75 62.05 103.85 61.15 103.0 60.3 103.0 59.05 103.0 57.8 103.85 56.9 M107.3 65.65 Q108.2 64.8 109.45 64.8 110.7 64.8 111.55 65.65 112.45 66.55 112.45 67.8 112.45 69.05 111.55 69.9 110.7 70.8 109.45 70.8 108.2 70.8 107.3 69.9 106.45 69.05 106.45 67.8 106.45 66.55 107.3 65.65 M116.85 85.2 Q116.85 86.45 115.95 87.3 115.1 88.2 113.85 88.2 112.6 88.2 111.7 87.3 110.85 86.45 110.85 85.2 110.85 83.95 111.7 83.05 112.6 82.2 113.85 82.2 115.1 82.2 115.95 83.05 116.85 83.95 116.85 85.2 M112.0 79.45 Q110.75 79.45 109.85 78.55 109.0 77.7 109.0 76.45 109.0 75.2 109.85 74.3 110.75 73.45 112.0 73.45 113.25 73.45 114.1 74.3 115.0 75.2 115.0 76.45 115.0 77.7 114.1 78.55 113.25 79.45 112.0 79.45 M115.05 91.25 Q116.3 91.25 117.15 92.1 118.05 93.0 118.05 94.25 118.05 95.5 117.15 96.35 116.3 97.25 115.05 97.25 113.8 97.25 112.9 96.35 112.05 95.5 112.05 94.25 112.05 93.0 112.9 92.1 113.8 91.25 115.05 91.25 M76.55 24.55 Q77.45 25.45 77.45 26.7 L77.25 27.85 77.35 28.7 Q77.35 29.95 76.45 30.8 75.6 31.7 74.35 31.7 73.1 31.7 72.2 30.8 71.35 29.95 71.35 28.7 L71.55 27.55 71.45 26.7 Q71.45 25.45 72.3 24.55 73.2 23.7 74.45 23.7 75.7 23.7 76.55 24.55 M43.35 47.4 Q44.6 47.4 45.45 48.25 46.35 49.15 46.35 50.4 46.35 51.65 45.45 52.5 44.6 53.4 43.35 53.4 42.1 53.4 41.2 52.5 40.35 51.65 40.35 50.4 40.35 49.15 41.2 48.25 42.1 47.4 43.35 47.4 M33.5 46.75 Q34.4 45.9 35.65 45.9 36.9 45.9 37.75 46.75 38.65 47.65 38.65 48.9 38.65 50.15 37.75 51.0 36.9 51.9 35.65 51.9 34.4 51.9 33.5 51.0 32.65 50.15 32.65 48.9 32.65 47.65 33.5 46.75 M35.3 63.1 Q36.2 64.0 36.2 65.25 36.2 66.5 35.3 67.35 34.45 68.25 33.2 68.25 31.95 68.25 31.05 67.35 30.2 66.5 30.2 65.25 30.2 64.0 31.05 63.1 31.95 62.25 33.2 62.25 34.45 62.25 35.3 63.1 M39.15 69.0 Q40.4 69.0 41.25 69.85 42.15 70.75 42.15 72.0 42.15 73.25 41.25 74.1 40.4 75.0 39.15 75.0 37.9 75.0 37.0 74.1 36.15 73.25 36.15 72.0 36.15 70.75 37.0 69.85 37.9 69.0 39.15 69.0 M18.3 96.0 Q19.55 96.0 20.4 96.85 21.3 97.75 21.3 99.0 21.3 100.25 20.4 101.1 19.55 102.0 18.3 102.0 17.05 102.0 16.15 101.1 15.3 100.25 15.3 99.0 15.3 97.75 16.15 96.85 17.05 96.0 18.3 96.0 M25.0 94.0 Q25.9 93.15 27.15 93.15 28.4 93.15 29.25 94.0 30.15 94.9 30.15 96.15 30.15 97.4 29.25 98.25 28.4 99.15 27.15 99.15 25.9 99.15 25.0 98.25 24.15 97.4 24.15 96.15 24.15 94.9 25.0 94.0 M35.15 97.45 Q36.4 97.45 37.25 98.3 38.15 99.2 38.15 100.45 38.15 101.7 37.25 102.55 36.4 103.45 35.15 103.45 33.9 103.45 33.0 102.55 32.15 101.7 32.15 100.45 32.15 99.2 33.0 98.3 33.9 97.45 35.15 97.45 M65.25 69.2 Q65.25 70.45 64.35 71.3 63.5 72.2 62.25 72.2 61.0 72.2 60.1 71.3 59.25 70.45 59.25 69.2 59.25 67.95 60.1 67.05 61.0 66.2 62.25 66.2 63.5 66.2 64.35 67.05 65.25 67.95 65.25 69.2 M53.8 55.45 Q53.8 56.7 52.9 57.55 52.05 58.45 50.8 58.45 49.55 58.45 48.65 57.55 47.8 56.7 47.8 55.45 47.8 54.2 48.65 53.3 49.55 52.45 50.8 52.45 52.05 52.45 52.9 53.3 53.8 54.2 53.8 55.45 M55.05 59.65 Q55.95 58.8 57.2 58.8 58.45 58.8 59.3 59.65 60.2 60.55 60.2 61.8 60.2 63.05 59.3 63.9 58.45 64.8 57.2 64.8 55.95 64.8 55.05 63.9 54.2 63.05 54.2 61.8 54.2 60.55 55.05 59.65 M53.15 86.0 Q53.15 87.25 52.25 88.1 51.4 89.0 50.15 89.0 48.9 89.0 48.0 88.1 47.15 87.25 47.15 86.0 47.15 84.75 48.0 83.85 48.9 83.0 50.15 83.0 51.4 83.0 52.25 83.85 53.15 84.75 53.15 86.0 M47.85 78.95 Q47.85 80.2 46.95 81.05 46.1 81.95 44.85 81.95 43.6 81.95 42.7 81.05 41.85 80.2 41.85 78.95 41.85 77.7 42.7 76.8 43.6 75.95 44.85 75.95 46.1 75.95 46.95 76.8 47.85 77.7 47.85 78.95 M50.4 92.45 Q51.3 91.6 52.55 91.6 53.8 91.6 54.65 92.45 55.55 93.35 55.55 94.6 55.55 95.85 54.65 96.7 53.8 97.6 52.55 97.6 51.3 97.6 50.4 96.7 49.55 95.85 49.55 94.6 49.55 93.35 50.4 92.45 M67.0 79.9 Q66.15 80.8 64.9 80.8 63.65 80.8 62.75 79.9 61.9 79.05 61.9 77.8 61.9 76.55 62.75 75.65 63.65 74.8 64.9 74.8 66.15 74.8 67.0 75.65 67.9 76.55 67.9 77.8 67.9 79.05 67.0 79.9 M64.65 83.8 Q65.9 83.8 66.75 84.65 67.65 85.55 67.65 86.8 67.65 88.05 66.75 88.9 65.9 89.8 64.65 89.8 63.4 89.8 62.5 88.9 61.65 88.05 61.65 86.8 61.65 85.55 62.5 84.65 63.4 83.8 64.65 83.8 M61.05 97.8 Q60.2 96.95 60.2 95.7 60.2 94.45 61.05 93.55 61.95 92.7 63.2 92.7 64.45 92.7 65.3 93.55 66.2 94.45 66.2 95.7 66.2 96.95 65.3 97.8 64.45 98.7 63.2 98.7 61.95 98.7 61.05 97.8 M64.8 104.55 Q64.8 105.8 63.9 106.65 63.05 107.55 61.8 107.55 60.55 107.55 59.65 106.65 58.8 105.8 58.8 104.55 58.8 103.3 59.65 102.4 60.55 101.55 61.8 101.55 63.05 101.55 63.9 102.4 64.8 103.3 64.8 104.55 M63.4 116.6 Q62.15 116.6 61.25 115.7 60.4 114.85 60.4 113.6 60.4 112.35 61.25 111.45 62.15 110.6 63.4 110.6 64.65 110.6 65.5 111.45 66.4 112.35 66.4 113.6 66.4 114.85 65.5 115.7 64.65 116.6 63.4 116.6 M65.55 119.4 Q66.45 118.55 67.7 118.55 68.95 118.55 69.8 119.4 70.7 120.3 70.7 121.55 70.7 122.8 69.8 123.65 68.95 124.55 67.7 124.55 66.45 124.55 65.55 123.65 64.7 122.8 64.7 121.55 64.7 120.3 65.55 119.4 M55.15 101.45 Q56.05 102.35 56.05 103.6 56.05 104.85 55.15 105.7 54.3 106.6 53.05 106.6 51.8 106.6 50.9 105.7 50.05 104.85 50.05 103.6 50.05 102.35 50.9 101.45 51.8 100.6 53.05 100.6 54.3 100.6 55.15 101.45 M55.65 110.45 Q56.55 111.35 56.55 112.6 56.55 113.85 55.65 114.7 54.8 115.6 53.55 115.6 52.3 115.6 51.4 114.7 50.55 113.85 50.55 112.6 50.55 111.35 51.4 110.45 52.3 109.6 53.55 109.6 54.8 109.6 55.65 110.45 M42.5 108.2 Q42.5 109.45 41.6 110.3 40.75 111.2 39.5 111.2 38.25 111.2 37.35 110.3 36.5 109.45 36.5 108.2 36.5 106.95 37.35 106.05 38.25 105.2 39.5 105.2 40.75 105.2 41.6 106.05 42.5 106.95 42.5 108.2 M44.05 116.95 Q44.05 118.2 43.15 119.05 42.3 119.95 41.05 119.95 39.8 119.95 38.9 119.05 38.05 118.2 38.05 116.95 38.05 115.7 38.9 114.8 39.8 113.95 41.05 113.95 42.3 113.95 43.15 114.8 44.05 115.7 44.05 116.95 M54.0 118.6 Q55.25 118.6 56.1 119.45 57.0 120.35 57.0 121.6 57.0 122.85 56.1 123.7 55.25 124.6 54.0 124.6 52.75 124.6 51.85 123.7 51.0 122.85 51.0 121.6 51.0 120.35 51.85 119.45 52.75 118.6 54.0 118.6 M52.25 130.3 Q51.4 131.2 50.15 131.2 48.9 131.2 48.0 130.3 47.15 129.45 47.15 128.2 47.15 126.95 48.0 126.05 48.9 125.2 50.15 125.2 51.4 125.2 52.25 126.05 53.15 126.95 53.15 128.2 53.15 129.45 52.25 130.3 M43.9 126.0 Q43.9 127.25 43.0 128.1 42.15 129.0 40.9 129.0 39.65 129.0 38.75 128.1 37.9 127.25 37.9 126.0 37.9 124.75 38.75 123.85 39.65 123.0 40.9 123.0 42.15 123.0 43.0 123.85 43.9 124.75 43.9 126.0 M42.15 135.3 Q40.9 135.3 40.0 134.4 39.15 133.55 39.15 132.3 39.15 131.05 40.0 130.15 40.9 129.3 42.15 129.3 43.4 129.3 44.25 130.15 45.15 131.05 45.15 132.3 45.15 133.55 44.25 134.4 43.4 135.3 42.15 135.3 M72.55 124.95 Q73.45 124.1 74.7 124.1 75.95 124.1 76.8 124.95 77.7 125.85 77.7 127.1 77.7 128.35 76.8 129.2 75.95 130.1 74.7 130.1 73.45 130.1 72.55 129.2 71.7 128.35 71.7 127.1 71.7 125.85 72.55 124.95 M13.0 102.15 Q13.9 103.05 13.9 104.3 13.9 105.55 13.0 106.4 12.15 107.3 10.9 107.3 9.65 107.3 8.75 106.4 7.9 105.55 7.9 104.3 7.9 103.05 8.75 102.15 9.65 101.3 10.9 101.3 12.15 101.3 13.0 102.15 M4.9 108.45 Q6.15 108.45 7.0 109.3 7.9 110.2 7.9 111.45 7.9 112.7 7.0 113.55 6.15 114.45 4.9 114.45 3.65 114.45 2.75 113.55 1.9 112.7 1.9 111.45 1.9 110.2 2.75 109.3 3.65 108.45 4.9 108.45 M118.5 103.4 Q118.5 104.65 117.6 105.5 116.75 106.4 115.5 106.4 114.25 106.4 113.35 105.5 112.5 104.65 112.5 103.4 112.5 102.15 113.35 101.25 114.25 100.4 115.5 100.4 116.75 100.4 117.6 101.25 118.5 102.15 118.5 103.4 M115.3 109.65 Q116.2 110.55 116.2 111.8 116.2 113.05 115.3 113.9 114.45 114.8 113.2 114.8 111.95 114.8 111.05 113.9 110.2 113.05 110.2 111.8 110.2 110.55 111.05 109.65 111.95 108.8 113.2 108.8 114.45 108.8 115.3 109.65 M109.65 116.65 Q110.55 117.55 110.55 118.8 110.55 120.05 109.65 120.9 108.8 121.8 107.55 121.8 106.3 121.8 105.4 120.9 104.55 120.05 104.55 118.8 104.55 117.55 105.4 116.65 106.3 115.8 107.55 115.8 108.8 115.8 109.65 116.65 M100.5 121.35 Q101.75 121.35 102.6 122.2 103.5 123.1 103.5 124.35 103.5 125.6 102.6 126.45 101.75 127.35 100.5 127.35 99.25 127.35 98.35 126.45 97.5 125.6 97.5 124.35 97.5 123.1 98.35 122.2 99.25 121.35 100.5 121.35 M94.3 126.15 Q95.2 127.05 95.2 128.3 95.2 129.55 94.3 130.4 93.45 131.3 92.2 131.3 90.95 131.3 90.05 130.4 89.2 129.55 89.2 128.3 89.2 127.05 90.05 126.15 90.95 125.3 92.2 125.3 93.45 125.3 94.3 126.15 M86.2 129.4 Q86.2 130.65 85.3 131.5 84.45 132.4 83.2 132.4 81.95 132.4 81.05 131.5 80.2 130.65 80.2 129.4 80.2 128.15 81.05 127.25 81.95 126.4 83.2 126.4 84.45 126.4 85.3 127.25 86.2 128.15 86.2 129.4 M-55.35 10.45 Q-54.1 10.45 -53.25 11.3 -52.35 12.2 -52.35 13.45 -52.35 14.7 -53.25 15.55 -54.1 16.45 -55.35 16.45 -56.6 16.45 -57.5 15.55 -58.35 14.7 -58.35 13.45 -58.35 12.2 -57.5 11.3 -56.6 10.45 -55.35 10.45 M-51.4 17.0 Q-50.15 17.0 -49.3 17.85 -48.4 18.75 -48.4 20.0 -48.4 21.25 -49.3 22.1 -50.15 23.0 -51.4 23.0 -52.65 23.0 -53.55 22.1 -54.4 21.25 -54.4 20.0 -54.4 18.75 -53.55 17.85 -52.65 17.0 -51.4 17.0 M-62.0 8.9 Q-61.1 9.8 -61.1 11.05 -61.1 12.3 -62.0 13.15 -62.85 14.05 -64.1 14.05 -65.35 14.05 -66.25 13.15 -67.1 12.3 -67.1 11.05 -67.1 9.8 -66.25 8.9 -65.35 8.05 -64.1 8.05 -62.85 8.05 -62.0 8.9 M-75.4 8.6 Q-74.5 7.75 -73.25 7.75 -72.0 7.75 -71.15 8.6 -70.25 9.5 -70.25 10.75 -70.25 12.0 -71.15 12.85 -72.0 13.75 -73.25 13.75 -74.5 13.75 -75.4 12.85 -76.25 12.0 -76.25 10.75 -76.25 9.5 -75.4 8.6 M-78.15 14.95 Q-78.15 16.2 -79.05 17.05 -79.9 17.95 -81.15 17.95 -82.4 17.95 -83.3 17.05 -84.15 16.2 -84.15 14.95 -84.15 13.7 -83.3 12.8 -82.4 11.95 -81.15 11.95 -79.9 11.95 -79.05 12.8 -78.15 13.7 -78.15 14.95 M-64.8 26.7 Q-63.9 25.85 -62.65 25.85 -61.4 25.85 -60.55 26.7 -59.65 27.6 -59.65 28.85 -59.65 30.1 -60.55 30.95 -61.4 31.85 -62.65 31.85 -63.9 31.85 -64.8 30.95 -65.65 30.1 -65.65 28.85 -65.65 27.6 -64.8 26.7 M-67.1 33.35 Q-67.1 34.6 -68.0 35.45 -68.85 36.35 -70.1 36.35 -71.35 36.35 -72.25 35.45 -73.1 34.6 -73.1 33.35 -73.1 32.1 -72.25 31.2 -71.35 30.35 -70.1 30.35 -68.85 30.35 -68.0 31.2 -67.1 32.1 -67.1 33.35 M-77.55 35.5 Q-76.3 35.5 -75.45 36.35 -74.55 37.25 -74.55 38.5 -74.55 39.75 -75.45 40.6 -76.3 41.5 -77.55 41.5 -78.8 41.5 -79.7 40.6 -80.55 39.75 -80.55 38.5 -80.55 37.25 -79.7 36.35 -78.8 35.5 -77.55 35.5 M-75.3 94.0 Q-75.3 95.25 -76.2 96.1 -77.05 97.0 -78.3 97.0 -79.55 97.0 -80.45 96.1 -81.3 95.25 -81.3 94.0 -81.3 92.75 -80.45 91.85 -79.55 91.0 -78.3 91.0 -77.05 91.0 -76.2 91.85 -75.3 92.75 -75.3 94.0 M-71.8 91.0 Q-70.9 90.15 -69.65 90.15 -68.4 90.15 -67.55 91.0 -66.65 91.9 -66.65 93.15 -66.65 94.4 -67.55 95.25 -68.4 96.15 -69.65 96.15 -70.9 96.15 -71.8 95.25 -72.65 94.4 -72.65 93.15 -72.65 91.9 -71.8 91.0 M-63.7 93.8 Q-63.7 92.55 -62.85 91.65 -61.95 90.8 -60.7 90.8 -59.45 90.8 -58.6 91.65 -57.7 92.55 -57.7 93.8 -57.7 95.05 -58.6 95.9 -59.45 96.8 -60.7 96.8 -61.95 96.8 -62.85 95.9 -63.7 95.05 -63.7 93.8 M-50.35 94.9 Q-49.45 95.8 -49.45 97.05 -49.45 98.3 -50.35 99.15 -51.2 100.05 -52.45 100.05 -53.7 100.05 -54.6 99.15 -55.45 98.3 -55.45 97.05 -55.45 95.8 -54.6 94.9 -53.7 94.05 -52.45 94.05 -51.2 94.05 -50.35 94.9 M-89.75 19.05 Q-88.85 18.2 -87.6 18.2 -86.35 18.2 -85.5 19.05 -84.6 19.95 -84.6 21.2 -84.6 22.45 -85.5 23.3 -86.35 24.2 -87.6 24.2 -88.85 24.2 -89.75 23.3 -90.6 22.45 -90.6 21.2 -90.6 19.95 -89.75 19.05 M-118.75 36.5 Q-117.85 37.4 -117.85 38.65 -117.85 39.9 -118.75 40.75 -119.6 41.65 -120.85 41.65 -122.1 41.65 -123.0 40.75 -123.85 39.9 -123.85 38.65 -123.85 37.4 -123.0 36.5 -122.1 35.65 -120.85 35.65 -119.6 35.65 -118.75 36.5 M-114.6 39.5 Q-113.7 38.65 -112.45 38.65 -111.2 38.65 -110.35 39.5 -109.45 40.4 -109.45 41.65 -109.45 42.9 -110.35 43.75 -111.2 44.65 -112.45 44.65 -113.7 44.65 -114.6 43.75 -115.45 42.9 -115.45 41.65 -115.45 40.4 -114.6 39.5 M-101.45 39.05 Q-100.55 39.95 -100.55 41.2 -100.55 42.45 -101.45 43.3 -102.3 44.2 -103.55 44.2 -104.8 44.2 -105.7 43.3 -106.55 42.45 -106.55 41.2 -106.55 39.95 -105.7 39.05 -104.8 38.2 -103.55 38.2 -102.3 38.2 -101.45 39.05 M-88.9 28.95 Q-88.9 30.2 -89.8 31.05 -90.65 31.95 -91.9 31.95 -93.15 31.95 -94.05 31.05 -94.9 30.2 -94.9 28.95 -94.9 27.7 -94.05 26.8 -93.15 25.95 -91.9 25.95 -90.65 25.95 -89.8 26.8 -88.9 27.7 -88.9 28.95 M-97.9 34.9 Q-97.0 34.05 -95.75 34.05 -94.5 34.05 -93.65 34.9 -92.75 35.8 -92.75 37.05 -92.75 38.3 -93.65 39.15 -94.5 40.05 -95.75 40.05 -97.0 40.05 -97.9 39.15 -98.75 38.3 -98.75 37.05 -98.75 35.8 -97.9 34.9 M-82.05 42.3 Q-81.15 43.2 -81.15 44.45 -81.15 45.7 -82.05 46.55 -82.9 47.45 -84.15 47.45 -85.4 47.45 -86.3 46.55 -87.15 45.7 -87.15 44.45 -87.15 43.2 -86.3 42.3 -85.4 41.45 -84.15 41.45 -82.9 41.45 -82.05 42.3 M-87.9 49.0 Q-87.0 49.9 -87.0 51.15 -87.0 52.4 -87.9 53.25 -88.75 54.15 -90.0 54.15 -91.25 54.15 -92.15 53.25 -93.0 52.4 -93.0 51.15 -93.0 49.9 -92.15 49.0 -91.25 48.15 -90.0 48.15 -88.75 48.15 -87.9 49.0 M-138.3 4.15 Q-137.05 4.15 -136.2 5.0 -135.3 5.9 -135.3 7.15 -135.3 8.4 -136.2 9.25 -137.05 10.15 -138.3 10.15 -139.55 10.15 -140.45 9.25 -141.3 8.4 -141.3 7.15 -141.3 5.9 -140.45 5.0 -139.55 4.15 -138.3 4.15 M-133.4 18.05 Q-134.25 18.95 -135.5 18.95 -136.75 18.95 -137.65 18.05 -138.5 17.2 -138.5 15.95 -138.5 14.7 -137.65 13.8 -136.75 12.95 -135.5 12.95 -134.25 12.95 -133.4 13.8 -132.5 14.7 -132.5 15.95 -132.5 17.2 -133.4 18.05 M-133.55 22.1 Q-132.65 21.25 -131.4 21.25 -130.15 21.25 -129.3 22.1 -128.4 23.0 -128.4 24.25 -128.4 25.5 -129.3 26.35 -130.15 27.25 -131.4 27.25 -132.65 27.25 -133.55 26.35 -134.4 25.5 -134.4 24.25 -134.4 23.0 -133.55 22.1 M-127.3 29.15 Q-126.05 29.15 -125.2 30.0 -124.3 30.9 -124.3 32.15 -124.3 33.4 -125.2 34.25 -126.05 35.15 -127.3 35.15 -128.55 35.15 -129.45 34.25 -130.3 33.4 -130.3 32.15 -130.3 30.9 -129.45 30.0 -128.55 29.15 -127.3 29.15 M-98.3 58.25 Q-98.3 57.0 -97.45 56.1 -96.55 55.25 -95.3 55.25 -94.05 55.25 -93.2 56.1 -92.3 57.0 -92.3 58.25 -92.3 59.5 -93.2 60.35 -94.05 61.25 -95.3 61.25 -96.55 61.25 -97.45 60.35 -98.3 59.5 -98.3 58.25 M-98.15 63.45 Q-97.25 64.35 -97.25 65.6 -97.25 66.85 -98.15 67.7 -99.0 68.6 -100.25 68.6 -101.5 68.6 -102.4 67.7 -103.25 66.85 -103.25 65.6 -103.25 64.35 -102.4 63.45 -101.5 62.6 -100.25 62.6 -99.0 62.6 -98.15 63.45 M-106.9 70.9 Q-106.0 70.05 -104.75 70.05 -103.5 70.05 -102.65 70.9 -101.75 71.8 -101.75 73.05 -101.75 74.3 -102.65 75.15 -103.5 76.05 -104.75 76.05 -106.0 76.05 -106.9 75.15 -107.75 74.3 -107.75 73.05 -107.75 71.8 -106.9 70.9 M-108.1 77.95 Q-106.85 77.95 -106.0 78.8 -105.1 79.7 -105.1 80.95 -105.1 82.2 -106.0 83.05 -106.85 83.95 -108.1 83.95 -109.35 83.95 -110.25 83.05 -111.1 82.2 -111.1 80.95 -111.1 79.7 -110.25 78.8 -109.35 77.95 -108.1 77.95 M-103.5 85.55 Q-102.25 85.55 -101.4 86.4 -100.5 87.3 -100.5 88.55 -100.5 89.8 -101.4 90.65 -102.25 91.55 -103.5 91.55 -104.75 91.55 -105.65 90.65 -106.5 89.8 -106.5 88.55 -106.5 87.3 -105.65 86.4 -104.75 85.55 -103.5 85.55 M-97.9 90.45 Q-97.0 89.6 -95.75 89.6 -94.5 89.6 -93.65 90.45 -92.75 91.35 -92.75 92.6 -92.75 93.85 -93.65 94.7 -94.5 95.6 -95.75 95.6 -97.0 95.6 -97.9 94.7 -98.75 93.85 -98.75 92.6 -98.75 91.35 -97.9 90.45 M-89.2 91.85 Q-88.3 91.0 -87.05 91.0 -85.8 91.0 -84.95 91.85 -84.05 92.75 -84.05 94.0 -84.05 95.25 -84.95 96.1 -85.8 97.0 -87.05 97.0 -88.3 97.0 -89.2 96.1 -90.05 95.25 -90.05 94.0 -90.05 92.75 -89.2 91.85 M-0.1 115.0 Q0.8 115.9 0.8 117.15 0.8 118.4 -0.1 119.25 -0.95 120.15 -2.2 120.15 -3.45 120.15 -4.35 119.25 -5.2 118.4 -5.2 117.15 -5.2 115.9 -4.35 115.0 -3.45 114.15 -2.2 114.15 -0.95 114.15 -0.1 115.0 M-6.1 121.7 Q-5.2 122.6 -5.2 123.85 -5.2 125.1 -6.1 125.95 -6.95 126.85 -8.2 126.85 -9.45 126.85 -10.35 125.95 -11.2 125.1 -11.2 123.85 -11.2 122.6 -10.35 121.7 -9.45 120.85 -8.2 120.85 -6.95 120.85 -6.1 121.7 M-35.35 108.5 Q-35.35 109.75 -36.25 110.6 -37.1 111.5 -38.35 111.5 -39.6 111.5 -40.5 110.6 -41.35 109.75 -41.35 108.5 -41.35 107.25 -40.5 106.35 -39.6 105.5 -38.35 105.5 -37.1 105.5 -36.25 106.35 -35.35 107.25 -35.35 108.5 M-30.9 116.35 Q-30.9 117.6 -31.8 118.45 -32.65 119.35 -33.9 119.35 -35.15 119.35 -36.05 118.45 -36.9 117.6 -36.9 116.35 -36.9 115.1 -36.05 114.2 -35.15 113.35 -33.9 113.35 -32.65 113.35 -31.8 114.2 -30.9 115.1 -30.9 116.35 M-31.3 121.85 Q-30.05 121.85 -29.2 122.7 -28.3 123.6 -28.3 124.85 -28.3 126.1 -29.2 126.95 -30.05 127.85 -31.3 127.85 -32.55 127.85 -33.45 126.95 -34.3 126.1 -34.3 124.85 -34.3 123.6 -33.45 122.7 -32.55 121.85 -31.3 121.85 M-28.1 131.5 Q-27.2 132.4 -27.2 133.65 -27.2 134.9 -28.1 135.75 -28.95 136.65 -30.2 136.65 -31.45 136.65 -32.35 135.75 -33.2 134.9 -33.2 133.65 -33.2 132.4 -32.35 131.5 -31.45 130.65 -30.2 130.65 -28.95 130.65 -28.1 131.5 M-25.2 134.85 Q-26.05 134.0 -26.05 132.75 -26.05 131.5 -25.2 130.6 -24.3 129.75 -23.05 129.75 -21.8 129.75 -20.95 130.6 -20.05 131.5 -20.05 132.75 -20.05 134.0 -20.95 134.85 -21.8 135.75 -23.05 135.75 -24.3 135.75 -25.2 134.85 M-12.45 127.8 Q-11.55 128.7 -11.55 129.95 -11.55 131.2 -12.45 132.05 -13.3 132.95 -14.55 132.95 -15.8 132.95 -16.7 132.05 -17.55 131.2 -17.55 129.95 -17.55 128.7 -16.7 127.8 -15.8 126.95 -14.55 126.95 -13.3 126.95 -12.45 127.8 M-46.85 99.8 Q-45.95 98.95 -44.7 98.95 -43.45 98.95 -42.6 99.8 -41.7 100.7 -41.7 101.95 -41.7 103.2 -42.6 104.05 -43.45 104.95 -44.7 104.95 -45.95 104.95 -46.85 104.05 -47.7 103.2 -47.7 101.95 -47.7 100.7 -46.85 99.8" fill="#000000" fill-opacity="0.3882353" fill-rule="evenodd" stroke="none"/>
  </g>
</svg>
