<?xml version="1.0" encoding="UTF-8" standalone="no"?>
<svg xmlns:ffdec="https://www.free-decompiler.com/flash" xmlns:xlink="http://www.w3.org/1999/xlink" ffdec:objectType="shape" height="322.85px" width="227.6px" xmlns="http://www.w3.org/2000/svg">
  <g transform="matrix(1.0, 0.0, 0.0, 1.0, -138.7, -101.85)">
    <path d="M315.75 199.75 L315.55 199.9 315.55 199.5 315.75 199.75" fill="#981314" fill-rule="evenodd" stroke="none"/>
    <path d="M201.0 288.7 L201.0 279.6 201.5 289.25 201.0 288.7" fill="#dca8a0" fill-rule="evenodd" stroke="none"/>
    <path d="M274.65 208.75 L275.25 209.3 274.95 209.45 274.65 208.75 M194.45 199.55 L194.45 199.6 194.45 199.55" fill="#c84311" fill-rule="evenodd" stroke="none"/>
    <path d="M315.55 199.9 L313.3 201.55 Q312.95 196.35 310.05 191.95 L310.9 191.0 Q312.2 189.5 313.65 188.25 314.1 187.9 314.75 187.7 315.75 187.45 316.35 188.1 L316.75 188.5 316.7 191.2 316.7 191.35 316.75 194.2 Q316.9 196.9 315.85 199.05 L315.55 199.5 315.55 199.9 M290.45 212.9 L287.05 214.05 283.05 215.25 Q257.35 222.4 231.65 216.35 L232.05 215.4 234.5 214.2 Q234.55 212.25 233.05 210.75 L231.25 208.9 227.6 207.25 Q226.45 206.75 225.65 205.6 L225.55 205.25 Q225.25 204.45 225.95 204.4 L228.0 204.0 230.45 204.0 Q234.5 209.35 240.65 210.2 242.5 210.6 244.3 209.7 L245.9 207.65 246.3 199.95 241.45 196.7 239.8 195.85 Q240.15 190.35 238.35 185.4 L237.75 184.45 Q229.4 181.45 226.8 188.45 225.65 191.45 224.75 194.65 L222.3 196.25 219.85 196.25 Q217.15 194.25 216.3 190.7 215.9 189.2 214.95 187.7 213.15 186.8 211.35 186.3 L207.25 186.1 206.0 186.1 Q204.1 186.9 203.65 188.95 202.85 192.65 203.15 196.7 L195.4 197.1 Q194.2 197.95 194.45 199.55 L194.45 199.6 189.6 195.55 Q180.7 187.65 176.1 179.2 L177.9 175.75 Q192.1 150.25 222.2 142.2 L229.25 140.95 229.55 140.9 Q243.1 142.85 256.5 146.15 271.8 150.05 284.55 159.65 295.0 167.5 296.25 179.45 292.5 177.45 288.25 176.3 286.4 180.6 283.35 183.35 279.35 186.9 273.25 187.7 271.65 187.75 270.35 188.9 L270.35 191.75 273.4 196.75 274.0 198.3 Q273.8 199.4 272.75 199.7 270.85 200.3 269.45 201.85 L269.15 201.95 Q270.4 204.85 273.15 206.9 274.2 207.7 274.65 208.75 L274.95 209.45 270.35 211.3 Q276.95 213.7 284.65 211.9 L288.25 211.7 290.45 212.9 M321.2 274.4 L311.4 418.0 208.2 424.2 201.5 289.25 201.0 279.6 207.6 274.4 321.2 274.4 M285.6 292.8 Q262.85 285.95 242.8 301.25 239.0 299.9 235.0 302.95 L233.7 305.35 Q231.4 307.65 230.2 312.95 227.85 323.1 228.3 334.95 230.9 347.35 236.15 349.25 L242.3 349.4 Q253.9 366.65 281.05 363.2 294.15 361.3 300.75 348.9 301.65 339.45 298.1 331.05 300.5 328.35 302.4 324.8 303.55 312.95 297.65 302.8 294.55 297.5 288.8 295.2 L285.6 292.8" fill="#3e8537" fill-rule="evenodd" stroke="none"/>
    <path d="M285.6 292.8 L288.8 295.2 Q294.55 297.5 297.65 302.8 303.55 312.95 302.4 324.8 300.5 328.35 298.1 331.05 301.65 339.45 300.75 348.9 294.15 361.3 281.05 363.2 253.9 366.65 242.3 349.4 L236.15 349.25 Q230.9 347.35 228.3 334.95 227.85 323.1 230.2 312.95 231.4 307.65 233.7 305.35 L235.0 302.95 Q239.0 299.9 242.8 301.25 262.85 285.95 285.6 292.8" fill="#4e9a3f" fill-rule="evenodd" stroke="none"/>
    <path d="M329.45 185.05 L326.2 189.65 Q321.9 195.1 315.75 199.75 L315.55 199.5 315.85 199.05 Q316.9 196.9 316.75 194.2 L316.7 191.35 316.7 191.2 316.75 188.5 316.35 188.1 Q315.75 187.45 314.75 187.7 314.1 187.9 313.65 188.25 312.2 189.5 310.9 191.0 L310.05 191.95 Q312.95 196.35 313.3 201.55 304.25 207.8 291.8 212.4 L290.45 212.9 288.25 211.7 284.65 211.9 Q276.95 213.7 270.35 211.3 L274.95 209.45 275.25 209.3 274.65 208.75 Q274.2 207.7 273.15 206.9 270.4 204.85 269.15 201.95 L269.45 201.85 Q270.85 200.3 272.75 199.7 273.8 199.4 274.0 198.3 L273.4 196.75 270.35 191.75 270.35 188.9 Q271.65 187.75 273.25 187.7 279.35 186.9 283.35 183.35 286.4 180.6 288.25 176.3 292.5 177.45 296.25 179.45 295.0 167.5 284.55 159.65 271.8 150.05 256.5 146.15 243.1 142.85 229.55 140.9 237.4 139.65 245.2 139.35 266.35 138.55 286.8 144.4 L287.3 144.65 Q299.15 149.7 307.8 155.8 325.4 168.25 329.45 185.05 M231.65 216.35 Q216.5 212.75 201.4 204.6 L197.65 202.0 194.45 199.6 194.45 199.55 Q194.2 197.95 195.4 197.1 L203.15 196.7 Q202.85 192.65 203.65 188.95 204.1 186.9 206.0 186.1 L207.25 186.1 211.35 186.3 Q213.15 186.8 214.95 187.7 215.9 189.2 216.3 190.7 217.15 194.25 219.85 196.25 L222.3 196.25 224.75 194.65 Q225.65 191.45 226.8 188.45 229.4 181.45 237.75 184.45 L238.35 185.4 Q240.15 190.35 239.8 195.85 L241.45 196.7 246.3 199.95 245.9 207.65 244.3 209.7 Q242.5 210.6 240.65 210.2 234.5 209.35 230.45 204.0 L228.0 204.0 225.95 204.4 Q225.25 204.45 225.55 205.25 L225.65 205.6 Q226.45 206.75 227.6 207.25 L231.25 208.9 233.05 210.75 Q234.55 212.25 234.5 214.2 L232.05 215.4 231.65 216.35 M160.85 179.8 Q160.05 203.25 182.6 227.4 211.95 251.3 251.4 250.2 289.15 252.3 313.6 235.2 347.95 214.55 346.6 175.8 L363.0 190.6 321.2 274.4 207.6 274.4 173.0 236.0 146.8 208.4 160.85 179.8 M319.6 412.0 L323.6 281.6 365.35 200.4 361.6 248.8 356.2 342.4 319.6 412.0 M139.55 217.9 L201.0 288.7 201.0 421.6 144.4 355.2 142.4 279.0 139.55 217.9" fill="#336529" fill-rule="evenodd" stroke="none"/>
    <path d="M335.45 170.05 L334.05 175.2 Q331.8 166.85 328.35 159.5 331.8 166.85 334.05 175.2 L333.75 176.05 Q332.05 180.75 329.45 185.05 325.4 168.25 307.8 155.8 299.15 149.7 287.3 144.65 L286.8 144.4 Q266.35 138.55 245.2 139.35 237.4 139.65 229.55 140.9 L229.25 140.95 222.2 142.2 Q192.1 150.25 177.9 175.75 L176.1 179.2 174.25 175.5 Q172.8 172.2 172.0 168.85 L172.0 168.8 Q173.55 155.05 183.5 144.0 L184.0 143.3 191.35 136.35 Q214.1 119.1 243.05 120.5 262.35 120.65 280.7 125.65 288.6 127.9 296.05 132.1 304.0 136.5 311.25 142.05 320.95 149.5 328.35 159.5 L329.1 160.55 Q332.45 165.2 335.45 170.05 M161.2 175.4 L160.85 179.8 146.8 208.4 173.0 236.0 207.6 274.4 201.0 279.6 201.0 288.7 139.55 217.9 139.2 211.0 161.2 175.4 M363.0 190.6 L365.8 194.4 365.35 200.4 323.6 281.6 319.6 412.0 311.4 418.0 321.2 274.4 363.0 190.6 M215.6 128.8 Q195.25 131.25 181.6 148.4 195.25 131.25 215.6 128.8 M306.8 142.4 Q279.55 123.4 238.8 126.0 279.55 123.4 306.8 142.4 M169.2 241.4 L173.0 236.0 169.2 241.4 M201.0 421.6 L201.0 288.7 201.5 289.25 208.2 424.2 201.0 421.6" fill="#caf37b" fill-rule="evenodd" stroke="none"/>
    <path d="M335.45 170.05 Q332.45 165.2 329.1 160.55 L328.35 159.5 Q320.95 149.5 311.25 142.05 304.0 136.5 296.05 132.1 288.6 127.9 280.7 125.65 262.35 120.65 243.05 120.5 214.1 119.1 191.35 136.35 L184.0 143.3 183.5 144.0 Q173.55 155.05 172.0 168.8 L162.25 161.5 Q163.7 154.25 167.2 147.2 185.3 114.05 223.4 104.8 264.85 97.55 300.2 111.8 322.05 122.95 334.4 140.4 338.3 156.8 335.45 170.05 M218.4 116.4 Q285.7 109.5 315.2 139.6 323.15 148.45 328.35 159.5 323.15 148.45 315.2 139.6 285.7 109.5 218.4 116.4" fill="#d6f59a" fill-rule="evenodd" stroke="none"/>
    <path d="M334.05 175.2 L335.45 170.05 Q338.3 156.8 334.4 140.4 344.0 156.35 346.6 175.8 347.95 214.55 313.6 235.2 289.15 252.3 251.4 250.2 211.95 251.3 182.6 227.4 160.05 203.25 160.85 179.8 L161.2 175.4 Q160.8 168.35 162.25 161.5 L172.0 168.8 172.0 168.85 Q172.8 172.2 174.25 175.5 L176.1 179.2 Q180.7 187.65 189.6 195.55 L194.45 199.6 197.65 202.0 201.4 204.6 Q216.5 212.75 231.65 216.35 257.35 222.4 283.05 215.25 L287.05 214.05 290.45 212.9 291.8 212.4 Q304.25 207.8 313.3 201.55 L315.55 199.9 315.75 199.75 Q321.9 195.1 326.2 189.65 L329.45 185.05 Q332.05 180.75 333.75 176.05 L334.05 175.2 M326.4 214.4 Q340.0 194.95 341.2 179.6 340.0 194.95 326.4 214.4 M196.4 210.4 L193.15 208.55 Q174.45 197.55 170.8 184.0 174.45 197.55 193.15 208.55 L196.4 210.4 M289.2 240.2 Q255.4 248.85 222.4 240.2 255.4 248.85 289.2 240.2 M318.4 216.4 Q282.95 241.95 234.8 235.6 199.85 230.6 177.2 209.2 199.85 230.6 234.8 235.6 282.95 241.95 318.4 216.4" fill="#e1f8b8" fill-rule="evenodd" stroke="none"/>
    <path d="M334.05 175.2 L335.45 170.05 Q338.3 156.8 334.4 140.4 322.05 122.95 300.2 111.8 264.85 97.55 223.4 104.8 185.3 114.05 167.2 147.2 163.7 154.25 162.25 161.5 160.8 168.35 161.2 175.4 L160.85 179.8 Q160.05 203.25 182.6 227.4 211.95 251.3 251.4 250.2 289.15 252.3 313.6 235.2 347.95 214.55 346.6 175.8 344.0 156.35 334.4 140.4 M328.35 159.5 Q331.8 166.85 334.05 175.2 L333.75 176.05 Q332.05 180.75 329.45 185.05 L326.2 189.65 Q321.9 195.1 315.75 199.75 L315.55 199.9 313.3 201.55 Q304.25 207.8 291.8 212.4 L290.45 212.9 287.05 214.05 283.05 215.25 Q257.35 222.4 231.65 216.35 216.5 212.75 201.4 204.6 L197.65 202.0 194.45 199.6 189.6 195.55 Q180.7 187.65 176.1 179.2 L174.25 175.5 Q172.8 172.2 172.0 168.85 L172.0 168.8 M363.0 190.6 L346.6 175.8 M365.35 200.4 L365.8 194.4 363.0 190.6 321.2 274.4 311.4 418.0 319.6 412.0 323.6 281.6 365.35 200.4 361.6 248.8 356.2 342.4 319.6 412.0 M341.2 179.6 Q340.0 194.95 326.4 214.4 M176.1 179.2 L177.9 175.75 Q192.1 150.25 222.2 142.2 L229.25 140.95 229.55 140.9 Q237.4 139.65 245.2 139.35 266.35 138.55 286.8 144.4 L287.3 144.65 Q299.15 149.7 307.8 155.8 325.4 168.25 329.45 185.05 M328.35 159.5 Q323.15 148.45 315.2 139.6 285.7 109.5 218.4 116.4 M181.6 148.4 Q195.25 131.25 215.6 128.8 M238.8 126.0 Q279.55 123.4 306.8 142.4 M161.2 175.4 L139.2 211.0 139.55 217.9 201.0 288.7 201.0 279.6 207.6 274.4 173.0 236.0 169.2 241.4 M139.55 217.9 L142.4 279.0 144.4 355.2 201.0 421.6 201.0 288.7 201.5 289.25 201.0 279.6 M170.8 184.0 Q174.45 197.55 193.15 208.55 L196.4 210.4 M177.2 209.2 Q199.85 230.6 234.8 235.6 282.95 241.95 318.4 216.4 M222.4 240.2 Q255.4 248.85 289.2 240.2 M207.6 274.4 L321.2 274.4 M160.85 179.8 L146.8 208.4 173.0 236.0 M201.0 421.6 L208.2 424.2 201.5 289.25 M208.2 424.2 L311.4 418.0" fill="none" stroke="#000000" stroke-linecap="round" stroke-linejoin="round" stroke-opacity="0.4" stroke-width="1.0"/>
  </g>
</svg>
