<?xml version="1.0" encoding="UTF-8" standalone="no"?>
<svg xmlns:ffdec="https://www.free-decompiler.com/flash" xmlns:xlink="http://www.w3.org/1999/xlink" ffdec:objectType="shape" height="173.6px" width="223.65px" xmlns="http://www.w3.org/2000/svg">
  <g transform="matrix(1.0, 0.0, 0.0, 1.0, -163.15, -113.15)">
    <path d="M349.4 280.2 Q324.2 286.75 288.6 286.75 253.0 286.75 227.8 280.2 202.6 273.7 202.6 264.5 202.6 255.3 227.8 248.75 253.0 242.25 288.6 242.25 324.2 242.25 349.4 248.75 374.6 255.3 374.6 264.5 374.6 273.7 349.4 280.2" fill="#000000" fill-opacity="0.16862746" fill-rule="evenodd" stroke="none"/>
    <path d="M354.45 153.75 L347.75 150.65 344.7 147.1 336.1 145.1 Q321.45 143.6 306.8 147.15 L297.15 143.6 286.55 146.1 265.8 140.05 Q254.25 141.25 249.65 146.1 233.9 146.15 220.3 152.2 L210.2 149.65 207.2 152.95 202.5 149.65 202.5 136.5 233.65 121.8 235.8 125.35 241.4 134.75 241.4 120.9 352.15 135.65 361.7 145.15 356.95 150.8 354.45 153.75 M335.3 217.95 L339.15 234.1 330.05 246.25 333.1 251.8 352.1 243.9 344.4 255.05 311.95 264.85 318.0 255.0 333.0 234.25 335.3 217.95 M283.05 269.75 L222.4 263.7 204.2 248.1 174.8 201.4 163.15 149.4 198.15 173.7 193.0 203.25 200.1 225.0 204.15 235.15 217.8 241.7 248.15 224.5 239.55 243.2 241.55 254.35 246.6 260.9 248.65 244.45 260.8 263.45 283.05 269.75 M259.4 181.3 L244.6 218.95 244.6 201.75 250.7 180.2 259.4 181.3" fill="#ddc999" fill-rule="evenodd" stroke="none"/>
    <path d="M207.2 152.95 L210.2 149.65 220.3 152.2 Q233.9 146.15 249.65 146.1 254.25 141.25 265.8 140.05 L286.55 146.1 297.15 143.6 306.8 147.15 Q321.45 143.6 336.1 145.1 L344.7 147.1 347.75 150.65 354.45 153.75 347.85 161.6 Q349.4 150.1 327.0 148.65 330.0 154.2 321.3 157.65 313.1 160.95 302.25 157.75 294.55 156.4 298.2 150.2 292.35 156.35 282.5 157.75 285.9 154.0 282.5 150.2 273.55 142.85 261.25 144.1 L261.25 149.15 Q262.0 156.1 254.7 156.75 L249.65 154.2 241.05 160.8 231.45 164.85 Q225.5 164.8 226.4 161.3 L226.4 157.25 215.2 163.85 203.75 157.5 207.2 152.95" fill="#ffffcc" fill-rule="evenodd" stroke="none"/>
    <path d="M215.2 163.85 L226.4 157.25 226.4 161.3 Q225.5 164.8 231.45 164.85 L241.05 160.8 249.65 154.2 254.7 156.75 Q262.0 156.1 261.25 149.15 L261.25 144.1 Q273.55 142.85 282.5 150.2 285.9 154.0 282.5 157.75 292.35 156.35 298.2 150.2 294.55 156.4 302.25 157.75 313.1 160.95 321.3 157.65 330.0 154.2 327.0 148.65 349.4 150.1 347.85 161.6 L331.5 163.9 328.15 168.8 322.3 165.2 255.25 174.55 218.9 165.9 215.2 163.85" fill="#ffffe8" fill-rule="evenodd" stroke="none"/>
    <path d="M354.45 153.75 L356.95 150.8 361.7 145.15 352.15 135.65 241.4 120.9 236.2 113.15 322.75 120.9 366.9 128.7 386.8 146.0 382.55 151.1 369.5 166.8 359.25 168.2 359.25 158.95 382.55 151.1 359.25 158.95 359.25 168.2 341.8 170.55 331.5 163.9 347.85 161.6 354.45 153.75 M233.65 121.8 L202.5 136.5 195.55 152.95 203.75 157.5 215.2 163.85 218.9 165.9 255.25 174.55 322.3 165.2 328.15 168.8 333.0 171.75 261.3 181.5 259.4 181.3 250.7 180.2 198.15 173.7 163.15 149.4 187.75 127.85 219.8 114.0 233.65 121.8 M356.95 150.8 L359.25 158.95 356.95 150.8" fill="#f4eddd" fill-rule="evenodd" stroke="none"/>
    <path d="M202.5 136.5 L202.5 149.65 207.2 152.95 203.75 157.5 195.55 152.95 202.5 136.5 M259.4 181.3 L261.3 181.5 333.0 171.75 336.45 192.7 341.8 170.55 359.25 168.2 369.5 166.8 382.55 151.1 386.8 146.0 382.2 166.7 371.2 216.1 352.1 243.9 333.1 251.8 330.05 246.25 339.15 234.1 335.3 217.95 336.45 209.9 335.3 217.95 333.0 234.25 318.0 255.0 291.6 270.6 283.05 269.75 260.8 263.45 248.65 244.45 246.6 260.9 241.55 254.35 239.55 243.2 248.15 224.5 217.8 241.7 204.15 235.15 200.1 225.0 193.0 203.25 198.15 173.7 250.7 180.2 244.6 201.75 244.6 218.95 259.4 181.3 M359.25 168.2 L336.45 209.9 336.45 192.7 336.45 209.9 359.25 168.2 M382.2 166.7 L382.55 151.1 382.2 166.7" fill="#e6d7b3" fill-rule="evenodd" stroke="none"/>
    <path d="M241.4 120.9 L241.4 134.75 235.8 125.35 236.2 113.15 241.4 120.9 M333.0 171.75 L328.15 168.8 331.5 163.9 341.8 170.55 336.45 192.7 333.0 171.75 M311.95 264.85 Q306.6 263.05 291.6 270.6 L318.0 255.0 311.95 264.85" fill="#c5a04b" fill-rule="evenodd" stroke="none"/>
    <path d="M207.2 152.95 L210.2 149.65 220.3 152.2 Q233.9 146.15 249.65 146.1 254.25 141.25 265.8 140.05 L286.55 146.1 297.15 143.6 306.8 147.15 Q321.45 143.6 336.1 145.1 L344.7 147.1 347.75 150.65 354.45 153.75 356.95 150.8 361.7 145.15 M235.8 125.35 L233.65 121.8 219.8 114.0 187.75 127.85 163.15 149.4 174.8 201.4 204.2 248.1 222.4 263.7 283.05 269.75 291.6 270.6 318.0 255.0 311.95 264.85 Q306.6 263.05 291.6 270.6 M207.2 152.95 L203.75 157.5 215.2 163.85 218.9 165.9 255.25 174.55 322.3 165.2 328.15 168.8 333.0 171.75 336.45 192.7 336.45 209.9 359.25 168.2 359.25 158.95 356.95 150.8 M347.85 161.6 L354.45 153.75 M331.5 163.9 L328.15 168.8 M386.8 146.0 L366.9 128.7 322.75 120.9 236.2 113.15 235.8 125.35 M331.5 163.9 L347.85 161.6 M382.55 151.1 L359.25 158.95 M382.55 151.1 L382.2 166.7 386.8 146.0 M352.1 243.9 L371.2 216.1 382.2 166.7 M352.1 243.9 L344.4 255.05 311.95 264.85 M336.45 209.9 L335.3 217.95 333.0 234.25 318.0 255.0 M203.75 157.5 L195.55 152.95" ffdec:has-small-stroke="true" ffdec:original-stroke-width="0.05" fill="none" stroke="#000000" stroke-linecap="round" stroke-linejoin="round" stroke-opacity="0.4" stroke-width="1.0"/>
  </g>
</svg>
