<?xml version="1.0" encoding="UTF-8" standalone="no"?>
<svg xmlns:ffdec="https://www.free-decompiler.com/flash" xmlns:xlink="http://www.w3.org/1999/xlink" ffdec:objectType="shape" height="46.9px" width="46.9px" xmlns="http://www.w3.org/2000/svg">
  <g transform="matrix(1.0, 0.0, 0.0, 1.0, -3.25, 43.0)">
    <path d="M45.8 -33.15 Q47.4 -31.0 48.4 -28.6 50.15 -24.45 50.15 -19.55 50.15 -17.4 49.8 -15.4 49.0 -10.5 46.15 -6.4 41.95 -3.45 37.8 -1.7 L31.9 -6.0 29.1 -4.95 28.9 -8.75 29.1 -4.95 31.9 -6.0 37.8 -1.7 Q21.95 4.9 6.9 -6.9 L5.85 -8.65 5.3 -9.8 Q3.25 -14.25 3.25 -19.55 3.25 -25.55 5.85 -30.45 7.45 -33.5 10.1 -36.15 12.05 -38.1 14.25 -39.45 19.35 -42.75 25.7 -42.95 20.3 -37.75 20.95 -29.75 L20.4 -29.8 Q16.9 -29.8 14.25 -27.75 L13.15 -26.8 Q10.15 -23.8 10.15 -19.55 10.15 -15.3 13.15 -12.3 16.15 -9.3 20.4 -9.3 24.65 -9.3 27.65 -12.3 30.65 -15.3 30.65 -19.55 L30.65 -20.35 Q30.45 -23.05 29.0 -25.2 36.2 -32.45 45.8 -33.15 M14.1 -31.5 L13.15 -34.65 15.1 -36.8 14.25 -39.45 15.1 -36.8 13.15 -34.65 14.1 -31.5 M35.45 -16.85 L37.55 -19.65 38.45 -16.8 42.1 -17.95 44.6 -15.75 49.8 -15.4 44.6 -15.75 42.1 -17.95 38.45 -16.8 37.55 -19.65 35.45 -16.85 M7.45 -10.7 L5.3 -9.8 7.45 -10.7 M36.85 -23.9 L41.05 -28.95 48.4 -28.6 41.05 -28.95 36.85 -23.9" fill="#ffffcc" fill-rule="evenodd" stroke="none"/>
    <path d="M30.65 -20.35 L30.65 -19.55 Q30.65 -15.3 27.65 -12.3 24.65 -9.3 20.4 -9.3 16.15 -9.3 13.15 -12.3 10.15 -15.3 10.15 -19.55 10.15 -23.8 13.15 -26.8 L14.25 -27.75 16.6 -22.6 16.4 -22.45 Q15.2 -21.2 15.2 -19.5 15.2 -17.8 16.4 -16.6 17.65 -15.35 19.35 -15.35 21.05 -15.35 22.25 -16.6 23.5 -17.8 23.5 -19.5 L23.5 -19.7 30.65 -20.35" fill="#253425" fill-rule="evenodd" stroke="none"/>
    <path d="M25.7 -42.95 L26.15 -43.0 26.7 -43.0 Q36.4 -43.0 43.25 -36.15 L44.85 -34.4 45.8 -33.15 Q36.2 -32.45 29.0 -25.2 L28.95 -25.25 28.5 -25.85 28.35 -26.05 28.2 -26.2 27.65 -26.8 Q25.2 -29.25 21.85 -29.7 25.2 -29.25 27.65 -26.8 L28.2 -26.2 28.35 -26.05 28.5 -25.85 Q25.85 -22.65 22.2 -22.5 L21.2 -23.2 Q20.25 -26.55 21.85 -29.7 L20.95 -29.75 Q20.3 -37.75 25.7 -42.95 M19.1 -25.95 Q18.65 -25.45 17.95 -25.45 17.25 -25.45 16.75 -25.95 16.3 -26.4 16.3 -27.05 16.3 -27.7 16.75 -28.2 17.25 -28.65 17.95 -28.65 18.65 -28.65 19.1 -28.2 19.6 -27.7 19.6 -27.05 19.6 -26.4 19.1 -25.95" fill="#fffff2" fill-rule="evenodd" stroke="none"/>
    <path d="M46.15 -6.4 Q44.9 -4.6 43.25 -3.0 L39.95 -0.15 39.6 0.05 Q33.95 3.9 26.7 3.9 19.45 3.9 13.8 0.05 11.85 -1.25 10.1 -3.0 8.25 -4.85 6.9 -6.9 21.95 4.9 37.8 -1.7 41.95 -3.45 46.15 -6.4 M37.8 -1.7 L39.95 -0.15 37.8 -1.7" fill="#dcceb4" fill-rule="evenodd" stroke="none"/>
    <path d="M16.6 -22.6 Q17.8 -23.65 19.35 -23.65 L21.2 -23.2 22.2 -22.5 22.25 -22.45 Q23.4 -21.3 23.5 -19.7 L23.5 -19.5 Q23.5 -17.8 22.25 -16.6 21.05 -15.35 19.35 -15.35 17.65 -15.35 16.4 -16.6 15.2 -17.8 15.2 -19.5 15.2 -21.2 16.4 -22.45 L16.6 -22.6" fill="#000000" fill-rule="evenodd" stroke="none"/>
    <path d="M20.95 -29.75 L21.85 -29.7 Q20.25 -26.55 21.2 -23.2 L19.35 -23.65 Q17.8 -23.65 16.6 -22.6 L14.25 -27.75 Q16.9 -29.8 20.4 -29.8 L20.95 -29.75 M28.5 -25.85 L28.95 -25.25 29.0 -25.2 Q30.45 -23.05 30.65 -20.35 L23.5 -19.7 Q23.4 -21.3 22.25 -22.45 L22.2 -22.5 Q25.85 -22.65 28.5 -25.85 M19.1 -25.95 Q19.6 -26.4 19.6 -27.05 19.6 -27.7 19.1 -28.2 18.65 -28.65 17.95 -28.65 17.25 -28.65 16.75 -28.2 16.3 -27.7 16.3 -27.05 16.3 -26.4 16.75 -25.95 17.25 -25.45 17.95 -25.45 18.65 -25.45 19.1 -25.95" fill="#547654" fill-rule="evenodd" stroke="none"/>
    <path d="M25.7 -42.95 L26.15 -43.0 26.7 -43.0 Q36.4 -43.0 43.25 -36.15 L44.85 -34.4 45.8 -33.15 Q47.4 -31.0 48.4 -28.6 50.15 -24.45 50.15 -19.55 50.15 -17.4 49.8 -15.4 49.0 -10.5 46.15 -6.4 44.9 -4.6 43.25 -3.0 L39.95 -0.15 39.6 0.05 Q33.95 3.9 26.7 3.9 19.45 3.9 13.8 0.05 11.85 -1.25 10.1 -3.0 8.25 -4.85 6.9 -6.9 L5.85 -8.65 5.3 -9.8 Q3.25 -14.25 3.25 -19.55 3.25 -25.55 5.85 -30.45 7.45 -33.5 10.1 -36.15 12.05 -38.1 14.25 -39.45 19.35 -42.75 25.7 -42.95 M20.95 -29.75 L21.85 -29.7 Q25.2 -29.25 27.65 -26.8 L28.2 -26.2 28.35 -26.05 28.5 -25.85 28.95 -25.25 M14.25 -27.75 Q16.9 -29.8 20.4 -29.8 L20.95 -29.75 M30.65 -20.35 L30.65 -19.55 Q30.65 -15.3 27.65 -12.3 24.65 -9.3 20.4 -9.3 16.15 -9.3 13.15 -12.3 10.15 -15.3 10.15 -19.55 10.15 -23.8 13.15 -26.8 L14.25 -27.75 M30.65 -20.35 Q30.45 -23.05 29.0 -25.2" ffdec:has-small-stroke="true" ffdec:original-stroke-width="0.05" fill="none" stroke="#000000" stroke-linecap="round" stroke-linejoin="round" stroke-opacity="0.2509804" stroke-width="1.0"/>
    <path d="M14.25 -39.45 L15.1 -36.8 13.15 -34.65 14.1 -31.5 M5.3 -9.8 L7.45 -10.7 M49.8 -15.4 L44.6 -15.75 42.1 -17.95 38.45 -16.8 37.55 -19.65 35.45 -16.85 M37.8 -1.7 L31.9 -6.0 29.1 -4.95 28.9 -8.75 M39.95 -0.15 L37.8 -1.7 M48.4 -28.6 L41.05 -28.95 36.85 -23.9" ffdec:has-small-stroke="true" ffdec:original-stroke-width="0.05" fill="none" stroke="#c56f59" stroke-linecap="round" stroke-linejoin="round" stroke-opacity="0.5019608" stroke-width="1.0"/>
  </g>
</svg>
