<?xml version="1.0" encoding="UTF-8" standalone="no"?>
<svg xmlns:ffdec="https://www.free-decompiler.com/flash" xmlns:xlink="http://www.w3.org/1999/xlink" ffdec:objectType="shape" height="219.0px" width="165.5px" xmlns="http://www.w3.org/2000/svg">
  <g transform="matrix(1.0, 0.0, 0.0, 1.0, -138.05, -76.0)">
    <path d="M229.95 88.25 Q224.3 133.95 175.55 152.5 182.1 155.3 187.55 160.75 L189.3 162.65 Q198.65 173.2 198.65 187.65 198.65 199.0 192.85 208.0 197.6 215.45 197.6 224.85 197.55 228.2 197.05 231.25 196.35 234.4 195.15 237.25 192.75 242.85 188.05 247.4 L184.45 250.65 Q197.1 241.25 208.45 244.45 L208.55 244.55 Q214.95 250.75 215.0 258.85 214.95 261.45 214.3 263.85 222.1 269.25 244.45 250.4 247.25 243.8 252.2 238.2 259.35 230.15 268.4 227.15 270.9 226.3 273.6 225.85 L277.3 216.55 Q275.4 190.3 266.4 168.9 L256.25 159.25 252.9 153.55 249.5 148.35 244.55 141.85 251.55 138.35 Q259.15 147.05 265.3 159.05 269.8 167.8 272.6 179.7 275.25 190.95 278.95 197.6 287.0 197.3 295.0 204.9 L295.3 205.25 295.55 205.6 Q294.95 252.45 241.35 281.5 L241.0 281.7 240.7 282.1 240.4 281.7 Q239.75 280.8 239.4 279.65 L238.95 281.75 Q215.0 294.95 197.6 282.05 L197.95 278.7 Q193.4 282.3 187.2 280.15 168.55 280.3 168.75 258.3 167.35 251.8 173.3 248.9 167.2 250.55 163.05 246.3 142.65 228.0 152.05 198.5 153.55 192.0 158.8 191.0 L150.15 185.3 Q129.7 173.95 143.8 149.3 149.0 144.3 154.2 147.0 150.05 144.7 149.4 133.35 147.15 99.0 185.25 78.05 209.35 71.0 229.95 88.25 M230.3 121.85 L229.85 122.25 229.9 121.65 230.3 121.85 M175.55 152.5 L173.0 151.5 175.55 152.5 M277.35 225.4 L273.6 225.85 277.35 225.4 M171.5 193.35 Q180.95 194.95 188.05 202.05 190.85 204.85 192.85 208.0 190.85 204.85 188.05 202.05 180.95 194.95 171.5 193.35 M182.1 252.3 L184.45 250.65 182.1 252.3 M240.8 269.7 Q240.8 259.2 244.45 250.4 240.8 259.2 240.8 269.7 M206.55 274.6 Q212.55 269.9 214.3 263.85 212.55 269.9 206.55 274.6" fill="#f5eed3" fill-rule="evenodd" stroke="none"/>
    <path d="M229.95 88.25 L231.05 89.2 Q240.65 106.35 229.9 121.6 L229.9 121.65 229.85 122.25 230.3 121.85 Q242.05 127.5 251.55 138.35 L244.55 141.85 243.25 140.2 Q236.5 131.95 228.1 124.05 L228.05 124.0 227.2 123.25 Q223.95 136.75 213.9 147.3 L213.05 148.25 Q202.6 159.0 189.3 162.65 L187.55 160.75 Q182.1 155.3 175.55 152.5 224.3 133.95 229.95 88.25 M197.6 282.05 Q215.0 294.95 238.95 281.75 237.45 286.25 231.3 289.6 213.45 300.35 200.85 289.75 197.5 287.7 197.6 282.05 M240.7 282.1 L241.0 281.7 241.35 281.5 Q294.95 252.45 295.55 205.6 306.9 220.1 302.1 237.9 287.25 275.65 248.5 284.85 243.05 285.05 240.7 282.1 M195.15 237.25 Q198.4 238.05 201.4 239.55 L203.15 240.5 Q204.95 241.55 206.55 242.8 L208.45 244.45 Q197.1 241.25 184.45 250.65 L188.05 247.4 Q192.75 242.85 195.15 237.25 M268.4 227.15 Q271.4 207.8 267.7 189.65 265.65 179.9 261.7 170.5 259.35 164.8 256.25 159.25 L266.4 168.9 Q275.4 190.3 277.3 216.55 L273.6 225.85 Q270.9 226.3 268.4 227.15" fill="#dec696" fill-rule="evenodd" stroke="none"/>
    <path d="M201.4 239.55 Q195.35 176.25 228.15 149.6 241.95 141.9 252.9 153.55 L256.25 159.25 Q259.35 164.8 261.7 170.5 265.65 179.9 267.7 189.65 271.4 207.8 268.4 227.15 259.35 230.15 252.2 238.2 247.25 243.8 244.45 250.4 222.1 269.25 214.3 263.85 214.95 261.45 215.0 258.85 214.95 250.75 208.55 244.55 L208.45 244.45 206.55 242.8 Q204.95 241.55 203.15 240.5 L201.4 239.55" fill="#cee9f7" fill-rule="evenodd" stroke="none"/>
    <path d="M189.3 162.65 Q202.6 159.0 213.05 148.25 L213.9 147.3 Q223.95 136.75 227.2 123.25 L228.05 124.0 228.1 124.05 Q236.5 131.95 243.25 140.2 L244.55 141.85 249.5 148.35 252.9 153.55 Q241.95 141.9 228.15 149.6 195.35 176.25 201.4 239.55 198.4 238.05 195.15 237.25 196.35 234.4 197.05 231.25 197.55 228.2 197.6 224.85 197.6 215.45 192.85 208.0 198.65 199.0 198.65 187.65 198.65 173.2 189.3 162.65" fill="#b7d5e6" fill-rule="evenodd" stroke="none"/>
    <path d="M229.9 121.65 L229.9 121.6 Q240.65 106.35 231.05 89.2 L229.95 88.25 Q209.35 71.0 185.25 78.05 147.15 99.0 149.4 133.35 150.05 144.7 154.2 147.0 149.0 144.3 143.8 149.3 129.7 173.95 150.15 185.3 L158.8 191.0 Q153.55 192.0 152.05 198.5 142.65 228.0 163.05 246.3 167.2 250.55 173.3 248.9 167.35 251.8 168.75 258.3 168.55 280.3 187.2 280.15 193.4 282.3 197.95 278.7 L197.6 282.05 Q197.5 287.7 200.85 289.75 213.45 300.35 231.3 289.6 237.45 286.25 238.95 281.75 L239.4 279.65 Q239.75 280.8 240.4 281.7 L240.7 282.1 Q243.05 285.05 248.5 284.85 287.25 275.65 302.1 237.9 306.9 220.1 295.55 205.6 L295.3 205.25 295.0 204.9 Q287.0 197.3 278.95 197.6 275.25 190.95 272.6 179.7 269.8 167.8 265.3 159.05 259.15 147.05 251.55 138.35 242.05 127.5 230.3 121.85 L229.9 121.65 229.85 122.25" ffdec:has-small-stroke="true" ffdec:original-stroke-width="0.05" fill="none" stroke="#000000" stroke-linecap="round" stroke-linejoin="round" stroke-opacity="0.3019608" stroke-width="1.0"/>
    <path d="M175.55 152.5 Q182.1 155.3 187.55 160.75 L189.3 162.65 Q202.6 159.0 213.05 148.25 L213.9 147.3 Q223.95 136.75 227.2 123.25 L228.05 124.0 M228.1 124.05 Q236.5 131.95 243.25 140.2 L244.55 141.85 249.5 148.35 252.9 153.55 256.25 159.25 Q259.35 164.8 261.7 170.5 265.65 179.9 267.7 189.65 271.4 207.8 268.4 227.15 270.9 226.3 273.6 225.85 L277.35 225.4 M173.0 151.5 L175.55 152.5 M189.3 162.65 Q198.65 173.2 198.65 187.65 198.65 199.0 192.85 208.0 197.6 215.45 197.6 224.85 197.55 228.2 197.05 231.25 196.35 234.4 195.15 237.25 198.4 238.05 201.4 239.55 L203.15 240.5 Q204.95 241.55 206.55 242.8 L208.45 244.45 M208.55 244.55 Q214.95 250.75 215.0 258.85 214.95 261.45 214.3 263.85 222.1 269.25 244.45 250.4 247.25 243.8 252.2 238.2 259.35 230.15 268.4 227.15 M184.45 250.65 L182.1 252.3 M192.85 208.0 Q190.85 204.85 188.05 202.05 180.95 194.95 171.5 193.35 M195.15 237.25 Q192.75 242.85 188.05 247.4 L184.45 250.65 M214.3 263.85 Q212.55 269.9 206.55 274.6 M244.45 250.4 Q240.8 259.2 240.8 269.7" ffdec:has-small-stroke="true" ffdec:original-stroke-width="0.5" fill="none" stroke="#423213" stroke-linecap="round" stroke-linejoin="round" stroke-opacity="0.5019608" stroke-width="1.0"/>
    <path d="M225.55 175.1 Q225.05 177.45 225.8 179.95 227.05 184.5 231.7 186.65 236.2 188.8 241.45 187.2 244.35 186.35 246.4 184.7 L246.6 184.65 246.65 184.8 Q248.0 187.4 248.9 190.45 251.35 199.1 248.35 206.65 245.25 214.2 238.65 216.15 231.95 218.1 225.5 213.4 219.05 208.65 216.6 200.0 214.2 191.35 217.2 183.85 219.8 177.3 225.35 174.95 L225.6 174.85 225.55 175.1" fill="#000000" fill-rule="evenodd" stroke="none"/>
    <path d="M246.4 184.7 Q244.35 186.35 241.45 187.2 236.2 188.8 231.7 186.65 227.05 184.5 225.8 179.95 225.05 177.45 225.55 175.1 240.75 169.35 246.4 184.7" fill="#ffffff" fill-rule="evenodd" stroke="none"/>
  </g>
</svg>
