<?xml version="1.0" encoding="UTF-8" standalone="no"?>
<svg xmlns:ffdec="https://www.free-decompiler.com/flash" xmlns:xlink="http://www.w3.org/1999/xlink" ffdec:objectType="shape" height="197.7px" width="183.9px" xmlns="http://www.w3.org/2000/svg">
  <g transform="matrix(1.0, 0.0, 0.0, 1.0, -133.6, -91.4)">
    <path d="M222.45 105.3 Q240.4 104.3 257.2 110.15 274.55 116.15 288.2 128.65 301.85 141.15 309.35 157.95 316.65 174.15 317.2 192.15 317.8 210.15 311.6 227.1 305.2 244.6 292.45 258.55 279.7 272.5 262.75 280.35 246.4 288.0 228.45 288.95 210.5 289.95 193.7 284.1 176.35 278.1 162.7 265.6 149.05 253.1 141.55 236.3 134.25 220.1 133.65 202.1 133.1 184.1 139.25 167.15 145.65 149.6 158.45 135.7 171.2 121.8 188.15 113.9 204.5 106.25 222.45 105.3" fill="#f3f3f3" fill-rule="evenodd" stroke="none"/>
    <path d="M222.45 105.3 Q240.4 104.3 257.2 110.15 274.55 116.15 288.2 128.65 301.85 141.15 309.35 157.95 316.65 174.15 317.2 192.15 317.8 210.15 311.6 227.1 305.2 244.6 292.45 258.55 279.7 272.5 262.75 280.35 246.4 288.0 228.45 288.95 210.5 289.95 193.7 284.1 176.35 278.1 162.7 265.6 149.05 253.1 141.55 236.3 134.25 220.1 133.65 202.1 133.1 184.1 139.25 167.15 145.65 149.6 158.45 135.7 171.2 121.8 188.15 113.9 204.5 106.25 222.45 105.3 Z" ffdec:has-small-stroke="true" ffdec:original-stroke-width="0.05" fill="none" stroke="#000000" stroke-linecap="round" stroke-linejoin="round" stroke-opacity="0.4" stroke-width="1.0"/>
    <path d="M311.95 184.1 Q312.75 199.8 307.55 214.5 302.25 229.75 291.25 241.7 280.3 253.7 265.6 260.3 251.4 266.75 235.7 267.3 220.0 267.9 205.2 262.6 189.9 257.05 177.8 245.95 165.7 234.85 158.9 220.1 152.3 205.8 151.55 190.15 150.75 174.45 155.9 159.75 161.25 144.5 172.2 132.55 183.2 120.6 197.9 113.95 212.05 107.55 227.8 106.95 243.5 106.4 258.25 111.7 273.55 117.2 285.65 128.3 297.75 139.4 304.6 154.15 311.2 168.4 311.95 184.1" fill="#ffffff" fill-rule="evenodd" stroke="none"/>
    <path d="M283.9 136.65 Q303.5 154.6 304.8 181.0 306.1 207.35 288.35 226.7 270.6 246.05 244.2 247.05 217.85 248.05 198.25 230.1 178.65 212.15 177.35 185.75 176.05 159.4 193.8 140.05 211.55 120.7 237.95 119.7 264.3 118.7 283.9 136.65" fill="#9cc545" fill-rule="evenodd" stroke="none"/>
    <path d="M241.2 123.5 Q269.25 124.6 288.8 156.35 274.9 148.4 260.4 146.4 244.9 144.25 231.35 149.4 199.55 161.35 187.25 208.0 178.9 186.4 185.45 163.85 191.35 143.7 204.35 134.9 222.35 122.75 241.2 123.5" fill="#6aac46" fill-rule="evenodd" stroke="none"/>
    <path d="M266.75 171.3 Q261.25 192.45 248.6 206.25 243.15 212.25 233.45 218.6 221.75 226.25 210.8 229.35 L216.15 206.6 Q218.45 197.0 220.6 190.9 228.25 169.55 237.7 156.75 249.95 140.15 269.4 130.8 270.0 139.35 269.35 151.15 268.6 164.15 266.75 171.3" fill="#000000" fill-rule="evenodd" stroke="none"/>
    <path d="M271.3 140.15 Q282.4 140.15 290.25 147.8 298.1 155.45 298.1 166.25 298.1 177.05 290.25 184.7 282.4 192.3 271.3 192.3 260.2 192.3 252.35 184.7 244.5 177.05 244.5 166.25 244.5 155.45 252.35 147.8 260.2 140.15 271.3 140.15" fill="#ffffff" fill-rule="evenodd" stroke="none"/>
    <path d="M188.3 179.2 Q188.3 175.7 190.9 173.25 193.45 170.75 197.1 170.75 200.75 170.75 203.35 173.25 205.95 175.7 205.95 179.2 205.95 182.7 203.35 185.15 200.8 187.6 197.1 187.6 193.45 187.6 190.9 185.15 188.3 182.7 188.3 179.2" fill="#ffffff" fill-rule="evenodd" stroke="none"/>
    <path d="M192.2 207.05 Q192.2 201.3 196.25 197.25 200.3 193.2 206.05 193.2 211.8 193.2 215.85 197.25 219.9 201.3 219.9 207.05 219.9 212.8 215.85 216.85 211.8 220.9 206.05 220.9 200.3 220.9 196.25 216.85 192.2 212.8 192.2 207.05" fill="#ffffff" fill-rule="evenodd" stroke="none"/>
    <path d="M263.9 145.0 L216.25 142.05 263.9 139.05 266.85 91.4 269.85 139.05 317.5 142.05 269.85 145.0 266.85 192.7 263.9 145.0" fill="#ffffff" fill-rule="evenodd" stroke="none"/>
    <path d="M260.4 134.4 Q263.15 131.8 267.05 131.8 270.95 131.8 273.7 134.4 276.45 137.0 276.45 140.7 276.45 144.4 273.7 147.0 270.95 149.6 267.05 149.6 263.15 149.6 260.4 147.0 257.65 144.4 257.65 140.7 257.65 137.0 260.4 134.4" fill="#ffffff" fill-rule="evenodd" stroke="none"/>
  </g>
</svg>
