<?xml version="1.0" encoding="UTF-8" standalone="no"?>
<svg xmlns:ffdec="https://www.free-decompiler.com/flash" xmlns:xlink="http://www.w3.org/1999/xlink" ffdec:objectType="shape" height="35.15px" width="21.0px" xmlns="http://www.w3.org/2000/svg">
  <g transform="matrix(1.0, 0.0, 0.0, 1.0, -232.55, -168.0)">
    <path d="M235.35 192.15 L234.7 191.3 233.95 189.4 Q232.75 185.65 233.8 182.2 L234.75 179.9 237.7 180.15 239.8 180.7 245.4 182.9 247.65 184.0 247.8 184.6 247.45 184.4 247.4 184.55 Q247.2 185.55 246.5 186.45 L246.05 186.95 246.05 187.0 245.65 187.35 245.65 187.05 245.6 186.5 245.0 185.45 244.6 185.1 243.4 184.7 243.1 184.75 Q242.3 184.8 241.7 185.45 241.0 186.2 241.05 187.2 L241.05 187.5 241.05 187.7 241.1 188.1 239.35 186.95 Q237.9 185.5 237.9 183.55 L237.95 183.1 238.0 182.95 238.05 182.55 238.65 181.0 238.7 180.95 237.4 180.85 236.5 182.6 235.5 185.9 235.3 187.8 235.4 189.4 Q235.55 190.7 236.05 191.9 L236.6 192.95 235.35 192.15" fill="#000000" fill-rule="evenodd" stroke="none"/>
    <path d="M234.0 177.0 L242.6 168.0 242.75 168.15 243.45 168.85 243.9 169.05 245.75 171.15 245.85 171.25 253.55 179.8 251.65 186.05 251.35 185.95 251.25 185.9 250.5 185.55 250.7 185.65 247.65 184.0 245.4 182.9 239.8 180.7 237.7 180.15 234.75 179.9 232.55 179.9 234.0 177.0" fill="#78745b" fill-rule="evenodd" stroke="none"/>
    <path d="M236.6 192.95 L236.05 191.9 Q235.55 190.7 235.4 189.4 L235.3 187.8 235.5 185.9 236.5 182.6 237.4 180.85 238.7 180.95 238.65 181.0 238.05 182.55 238.0 182.95 237.95 183.1 237.9 183.55 Q237.9 185.5 239.35 186.95 L241.1 188.1 241.2 188.45 241.6 189.1 242.05 189.4 243.05 189.7 243.2 189.7 243.4 189.7 244.4 189.4 245.0 188.9 245.65 187.45 245.65 187.35 246.05 187.0 246.05 186.95 246.5 186.45 Q247.2 185.55 247.4 184.55 L247.45 184.4 247.8 184.6 251.35 186.35 251.55 186.7 250.25 190.05 Q249.7 191.2 249.15 191.5 L247.7 192.25 244.85 193.2 244.8 193.2 241.7 193.6 239.8 193.55 236.6 192.95 M250.45 187.8 L248.35 187.05 Q248.2 187.85 247.45 188.8 L247.0 189.4 243.55 192.35 Q245.85 192.0 247.7 191.3 248.9 190.9 249.65 189.85 L249.9 189.4 250.45 187.8" fill="#d2b991" fill-rule="evenodd" stroke="none"/>
    <path d="M241.05 187.5 L241.05 187.2 Q241.0 186.2 241.7 185.45 242.3 184.8 243.1 184.75 L243.4 184.7 244.6 185.1 245.0 185.45 245.6 186.5 245.65 187.05 245.65 187.35 245.65 187.45 245.0 188.9 244.4 189.4 243.4 189.7 243.2 189.7 242.35 189.4 241.7 188.9 241.25 188.2 241.1 187.7 241.05 187.5 M250.45 187.8 L249.9 189.4 249.65 189.85 Q248.9 190.9 247.7 191.3 245.85 192.0 243.55 192.35 L247.0 189.4 247.45 188.8 Q248.2 187.85 248.35 187.05 L250.45 187.8" fill="#fefefe" fill-rule="evenodd" stroke="none"/>
    <path d="M251.6 186.1 L251.8 186.2 251.35 186.35 247.8 184.6 247.65 184.0 250.7 185.65 251.45 186.05 251.6 186.1" fill="#54240a" fill-rule="evenodd" stroke="none"/>
    <path d="M251.8 186.2 L250.8 191.75 Q246.85 192.8 243.9 195.9 242.85 197.65 242.8 199.4 242.65 197.6 241.7 195.75 240.1 193.4 234.05 193.15 L235.35 192.15 236.6 192.95 239.8 193.55 241.7 193.6 244.8 193.2 244.85 193.2 247.7 192.25 249.15 191.5 Q249.7 191.2 250.25 190.05 L251.55 186.7 251.35 186.35 251.8 186.2" fill="#891010" fill-rule="evenodd" stroke="none"/>
    <path d="M242.75 168.15 L243.9 169.05 245.75 171.15 245.85 171.25 253.55 179.8 251.65 186.05 251.6 186.1 251.8 186.2 251.35 186.35 251.55 186.7 250.25 190.05 Q249.7 191.2 249.15 191.5 L247.7 192.25 244.85 193.2 244.8 193.2 241.7 193.6 239.8 193.55 236.6 192.95 235.35 192.15 234.7 191.3 233.95 189.4 Q232.75 185.65 233.8 182.2 L234.75 179.9 232.55 179.9 234.0 177.0 M247.65 184.0 L245.4 182.9 239.8 180.7 237.7 180.15 234.75 179.9 M251.6 186.1 L251.45 186.05 250.7 185.65 247.65 184.0 M251.35 185.95 L251.45 186.05 M251.35 185.95 L251.25 185.9 250.7 185.65 250.5 185.55 251.25 185.9" ffdec:has-small-stroke="true" ffdec:original-stroke-width="0.05" fill="none" stroke="#000000" stroke-linecap="round" stroke-linejoin="round" stroke-opacity="0.3019608" stroke-width="1.0"/>
    <path d="M242.25 202.55 Q241.75 201.25 242.7 199.55 244.1 201.05 243.75 202.35 243.1 203.85 242.25 202.55" fill="#891010" fill-rule="evenodd" stroke="none"/>
    <path d="M242.25 202.55 Q243.1 203.85 243.75 202.35 244.1 201.05 242.7 199.55 241.75 201.25 242.25 202.55 Z" ffdec:has-small-stroke="true" ffdec:original-stroke-width="0.05" fill="none" stroke="#000000" stroke-linecap="round" stroke-linejoin="round" stroke-opacity="0.3019608" stroke-width="1.0"/>
  </g>
</svg>
