<?xml version="1.0" encoding="UTF-8" standalone="no"?>
<svg xmlns:ffdec="https://www.free-decompiler.com/flash" xmlns:xlink="http://www.w3.org/1999/xlink" ffdec:objectType="shape" height="192.35px" width="212.15px" xmlns="http://www.w3.org/2000/svg">
  <g transform="matrix(1.0, 0.0, 0.0, 1.0, 0.1, -44.05)">
    <path d="M118.6 94.1 Q111.45 91.2 106.2 86.9 103.35 84.6 101.1 81.95 L95.15 82.6 88.65 70.7 93.2 70.6 Q89.95 63.35 88.65 54.65" ffdec:has-small-stroke="true" ffdec:original-stroke-width="0.05" fill="none" stroke="#000000" stroke-linecap="round" stroke-linejoin="round" stroke-opacity="0.3529412" stroke-width="1.0"/>
    <path d="M100.95 54.25 L102.65 53.0 Q107.8 71.7 118.85 77.55 L123.3 79.2 120.5 92.7 118.6 94.1 M143.8 135.9 L141.3 138.9 Q138.0 139.9 133.7 140.45 L132.85 140.5 Q126.55 141.4 121.0 140.25 116.3 139.35 111.9 137.05 109.55 132.7 107.5 128.35 L110.95 125.55 M133.75 114.95 L131.35 117.95 122.9 119.55 Q112.9 121.1 103.1 118.15 L97.25 106.75 100.5 104.0" ffdec:has-small-stroke="true" ffdec:original-stroke-width="0.05" fill="none" stroke="#000000" stroke-linecap="round" stroke-linejoin="round" stroke-opacity="0.2" stroke-width="1.0"/>
    <path d="M120.95 81.2 L118.8 93.95 Q111.65 91.05 106.4 86.75 103.55 84.5 101.25 81.8 L95.35 82.45 88.85 70.6 93.4 70.45 Q90.1 63.2 88.85 54.5 L101.15 54.15 Q107.2 73.65 116.6 79.2 118.55 80.7 120.95 81.2 M97.45 106.6 Q104.05 108.4 112.65 108.15 L123.05 119.4 Q113.1 120.95 103.3 118.0 L97.45 106.6 M107.7 128.2 Q114.95 130.1 123.05 129.65 L133.05 140.35 Q126.7 141.25 121.2 140.1 116.45 139.2 112.05 136.95 L107.7 128.2" fill="#000000" fill-opacity="0.15294118" fill-rule="evenodd" stroke="none"/>
    <path d="M101.15 54.15 L102.85 52.85 Q108.0 71.55 119.05 77.4 121.25 78.4 123.5 79.05 L120.95 81.2 Q118.55 80.7 116.6 79.2 107.2 73.65 101.15 54.15" fill="#000000" fill-opacity="0.3019608" fill-rule="evenodd" stroke="none"/>
    <path d="M118.25 104.3 L112.65 108.15 Q104.05 108.4 97.45 106.6 L100.7 103.9 Q106.1 106.0 118.25 104.3 M128.8 126.0 L123.05 129.65 Q114.95 130.1 107.7 128.2 L111.1 125.4 Q116.95 127.75 128.8 126.0" fill="#000000" fill-opacity="0.101960786" fill-rule="evenodd" stroke="none"/>
    <path d="M112.65 108.15 L118.25 104.3 128.1 102.25 125.9 105.9 Q118.2 108.15 112.65 108.15 M138.15 124.0 L136.3 127.4 Q132.45 128.5 129.0 129.0 L128.5 129.1 123.05 129.65 128.8 126.0 138.15 124.0" fill="#ffffff" fill-opacity="0.4509804" fill-rule="evenodd" stroke="none"/>
    <path d="M125.9 105.9 L128.1 102.25 133.95 114.8 131.55 117.8 125.9 105.9 M136.3 127.4 L138.15 124.0 143.95 135.75 141.5 138.75 136.3 127.4" fill="#ffffff" fill-opacity="0.3019608" fill-rule="evenodd" stroke="none"/>
    <path d="M95.3 82.8 L100.9 82.1 108.0 88.55 22.3 221.1 16.45 210.0 42.35 167.4 11.7 206.75 0.1 211.6 95.3 82.8" fill="#a38a3d" fill-rule="evenodd" stroke="none"/>
    <path d="M0.1 211.6 L11.7 206.75 7.8 218.4 16.45 210.0 22.3 221.1 108.0 88.55 113.0 91.3 24.2 235.8 Q10.55 238.3 0.0 228.0 L0.1 211.6 M24.2 235.8 L23.7 223.3 22.3 221.1 23.7 223.3 24.2 235.8" fill="#746025" fill-rule="evenodd" stroke="none"/>
    <path d="M11.7 206.75 L42.35 167.4 16.45 210.0 7.8 218.4 11.7 206.75" fill="#503c01" fill-rule="evenodd" stroke="none"/>
    <path d="M95.3 82.8 L0.1 211.6 11.7 206.75 42.35 167.4 16.45 210.0 22.3 221.1 23.7 223.3 24.2 235.8 Q10.55 238.3 0.0 228.0 L0.1 211.6 M113.0 91.3 L24.2 235.8 M16.45 210.0 L7.8 218.4 11.7 206.75" ffdec:has-small-stroke="true" ffdec:original-stroke-width="0.2" fill="none" stroke="#000000" stroke-linecap="round" stroke-linejoin="round" stroke-opacity="0.4" stroke-width="1.0"/>
    <path d="M182.05 53.25 L185.3 49.4 192.8 50.5 204.5 62.3 Q204.85 65.55 204.35 67.65 L204.5 67.8 201.3 76.1 199.9 78.9 Q198.35 81.15 197.2 83.5 L191.95 91.5 Q186.4 99.75 184.2 102.25 180.3 104.85 180.05 105.3 175.0 89.15 170.1 72.65 L169.95 72.45 182.05 53.25 197.2 83.5 170.1 72.65 197.2 83.5 182.05 53.25 204.35 67.65 182.05 53.25" fill="#fdf1cd" fill-rule="evenodd" stroke="none"/>
    <path d="M163.25 90.6 L160.5 97.9 155.4 108.4 162.45 118.65 Q168.75 114.55 176.15 108.8 L180.35 116.8 Q171.6 123.85 158.3 131.1 L144.45 111.3 Q154.0 96.3 159.3 82.15 L163.25 90.6" fill="#503c01" fill-rule="evenodd" stroke="none"/>
    <path d="M169.95 72.45 L170.1 72.65 169.75 72.6 170.1 72.65 Q175.0 89.15 180.05 105.3 L176.55 108.5 Q176.2 108.45 176.15 108.8 168.75 114.55 162.45 118.65 L155.4 108.4 160.5 97.9 163.25 90.6 169.75 72.6 169.95 72.45 M160.5 97.9 L180.05 105.3 160.5 97.9" fill="#c5b995" fill-rule="evenodd" stroke="none"/>
    <path d="M185.3 49.4 L182.05 53.25 175.75 50.35 180.45 44.5 194.45 44.05 211.85 62.35 Q212.85 71.55 208.6 82.35 L201.3 76.1 204.5 67.8 204.35 67.65 Q204.85 65.55 204.5 62.3 L192.8 50.5 185.3 49.4" fill="#a38a3d" fill-rule="evenodd" stroke="none"/>
    <path d="M201.3 76.1 L208.6 82.35 Q206.55 87.1 203.65 92.2 198.05 102.45 180.35 116.8 L176.15 108.8 Q176.2 108.45 176.55 108.5 L180.05 105.3 Q180.3 104.85 184.2 102.25 186.4 99.75 191.95 91.5 L197.2 83.5 Q198.35 81.15 199.9 78.9 L201.3 76.1 M175.75 50.35 L182.05 53.25 169.95 72.45 169.75 72.6 163.25 90.6 159.3 82.15 Q159.4 81.45 159.65 81.0 L163.0 69.75 175.75 50.35" fill="#746025" fill-rule="evenodd" stroke="none"/>
    <path d="M182.05 53.25 L185.3 49.4 M208.6 82.35 Q212.85 71.55 211.85 62.35 L194.45 44.05 180.45 44.5 175.75 50.35 163.0 69.75 159.65 81.0 M169.95 72.45 L170.1 72.65 M159.3 82.15 Q154.0 96.3 144.45 111.3 L158.3 131.1 Q171.6 123.85 180.35 116.8 198.05 102.45 203.65 92.2 206.55 87.1 208.6 82.35 M169.95 72.45 L169.75 72.6 M180.05 105.3 Q180.3 104.85 184.2 102.25" ffdec:has-small-stroke="true" ffdec:original-stroke-width="0.05" fill="none" stroke="#000000" stroke-linecap="round" stroke-linejoin="round" stroke-opacity="0.3529412" stroke-width="1.0"/>
    <path d="M169.75 72.6 L170.1 72.65" ffdec:has-small-stroke="true" ffdec:original-stroke-width="0.05" fill="none" stroke="#000000" stroke-linecap="round" stroke-linejoin="round" stroke-opacity="0.3529412" stroke-width="1.0"/>
    <path d="M180.05 105.3 L160.5 97.9 M170.1 72.65 Q175.0 89.15 180.05 105.3" ffdec:has-small-stroke="true" ffdec:original-stroke-width="0.05" fill="none" stroke="#000000" stroke-linecap="round" stroke-linejoin="round" stroke-opacity="0.2509804" stroke-width="1.0"/>
    <path d="M170.1 72.65 L197.2 83.5 182.05 53.25 204.35 67.65" ffdec:has-small-stroke="true" ffdec:original-stroke-width="0.05" fill="none" stroke="#000000" stroke-linecap="round" stroke-linejoin="round" stroke-opacity="0.2509804" stroke-width="1.0"/>
  </g>
</svg>
