<?xml version="1.0" encoding="UTF-8" standalone="no"?>
<svg xmlns:ffdec="https://www.free-decompiler.com/flash" xmlns:xlink="http://www.w3.org/1999/xlink" ffdec:objectType="shape" height="38.55px" width="17.65px" xmlns="http://www.w3.org/2000/svg">
  <g transform="matrix(1.0, 0.0, 0.0, 1.0, -260.55, -180.7)">
    <path d="M274.1 183.05 Q271.4 184.45 268.15 185.15 L266.7 185.15 265.75 182.55 273.1 182.1 274.1 183.05 M261.65 188.9 L261.65 187.05 262.2 188.2 Q265.45 189.8 269.85 189.7 274.1 188.65 278.15 186.2 L278.15 187.5 Q274.85 189.25 271.45 190.6 L273.0 198.85 272.35 199.15 271.9 197.45 271.4 195.75 270.45 192.35 269.1 192.35 268.75 194.5 268.4 196.75 268.0 198.95 266.85 198.45 268.35 190.9 Q264.65 190.3 261.65 188.9 M263.25 191.4 L265.2 192.75 264.55 197.45 264.5 197.4 264.15 197.2 Q263.25 196.55 263.25 195.8 L263.25 191.4 M276.65 190.35 L276.65 195.1 275.4 197.15 274.8 192.85 276.65 190.35" fill="#9b6305" fill-rule="evenodd" stroke="none"/>
    <path d="M265.75 182.55 L266.7 185.15 268.15 185.15 Q271.4 184.45 274.1 183.05 275.4 184.3 276.25 185.7 272.95 187.2 269.25 187.6 L266.55 187.55 Q264.7 187.3 263.5 186.25 264.05 184.45 265.25 182.7 L265.75 182.55 M266.85 198.45 L268.0 198.95 268.4 196.75 268.75 194.5 269.1 192.35 270.45 192.35 271.4 195.75 271.9 197.45 272.35 199.15 273.0 198.85 274.25 198.2 272.9 191.35 276.65 188.95 276.65 190.35 274.8 192.85 275.4 197.15 274.85 197.65 274.55 197.9 274.55 200.65 278.1 212.15 Q275.6 214.15 272.6 215.0 L269.05 215.35 273.1 212.85 275.3 209.95 Q275.1 208.7 274.25 207.4 L274.15 207.35 269.9 204.3 273.4 202.45 272.9 202.2 270.05 200.5 270.0 200.5 266.85 198.45 M263.25 190.6 Q264.95 191.5 266.5 191.9 L265.65 198.0 265.2 197.75 264.55 197.45 265.2 192.75 263.25 191.4 263.25 190.6 M272.35 199.15 L270.05 200.5 272.35 199.15 M274.25 198.2 L274.55 197.9 274.25 198.2 M268.4 196.75 L269.85 195.75 271.9 197.45 269.85 195.75 268.4 196.75 M271.4 195.75 L269.85 195.75 268.75 194.5 269.85 195.75 271.4 195.75" fill="#583803" fill-rule="evenodd" stroke="none"/>
    <path d="M265.75 182.55 L265.25 182.7 Q264.05 184.45 263.5 186.25 264.7 187.3 266.55 187.55 L269.25 187.6 Q272.95 187.2 276.25 185.7 275.4 184.3 274.1 183.05 L273.1 182.1 265.75 182.55 M261.65 188.9 Q264.65 190.3 268.35 190.9 L266.85 198.45 265.65 198.0 266.5 191.9 Q264.95 191.5 263.25 190.6 L261.65 189.55 261.65 188.9 M273.0 198.85 L271.45 190.6 Q274.85 189.25 278.15 187.5 L278.15 187.9 276.65 188.95 272.9 191.35 274.25 198.2 273.0 198.85 M278.15 186.2 Q274.1 188.65 269.85 189.7 265.45 189.8 262.2 188.2 L261.65 187.05 261.65 187.0 Q262.15 184.35 263.8 181.7 269.0 180.4 274.2 180.85 277.05 183.05 278.15 186.2" fill="#fec416" fill-rule="evenodd" stroke="none"/>
    <path d="M265.65 198.0 L266.85 198.45 270.0 200.5 270.05 200.5 272.9 202.2 269.65 204.15 272.9 202.2 273.4 202.45 269.9 204.3 266.05 206.75 269.9 204.3 269.65 204.15 265.05 206.95 269.65 204.15 266.8 202.4 Q267.45 201.95 268.2 201.55 L270.0 200.5 268.2 201.55 Q267.45 201.95 266.8 202.4 L269.65 204.15 269.9 204.3 274.15 207.35 274.25 207.4 274.15 207.4 Q271.15 205.8 266.05 206.75 L265.05 206.95 265.05 207.35 Q272.35 207.3 273.1 212.85 L269.05 215.35 266.3 215.6 Q262.6 214.6 261.3 212.1 261.75 209.3 263.45 207.4 263.65 205.55 264.3 203.6 L265.05 201.6 265.2 200.55 265.2 197.75 265.65 198.0 M268.2 201.55 L270.05 200.5 268.2 201.55" fill="#a1664c" fill-rule="evenodd" stroke="none"/>
    <path d="M273.1 212.85 Q272.35 207.3 265.05 207.35 L265.05 206.95 266.05 206.75 Q271.15 205.8 274.15 207.4 L274.25 207.4 Q275.1 208.7 275.3 209.95 L273.1 212.85" fill="#c2937e" fill-rule="evenodd" stroke="none"/>
    <path d="M261.3 212.1 Q262.6 214.6 266.3 215.6 L269.05 215.35 272.6 215.0 Q275.6 214.15 278.1 212.15 L278.1 213.85 277.65 215.7 Q272.65 219.7 265.85 219.1 262.15 218.15 260.9 215.7 260.15 213.9 261.3 212.1" fill="#5b2709" fill-rule="evenodd" stroke="none"/>
    <path d="M263.5 186.25 Q264.7 187.3 266.55 187.55 L269.25 187.6 Q272.95 187.2 276.25 185.7 275.4 184.3 274.1 183.05 L273.1 182.1 M261.65 187.05 L261.65 188.9 261.65 189.55 263.25 190.6 Q264.95 191.5 266.5 191.9 L265.65 198.0 266.85 198.45 270.0 200.5 270.05 200.5 272.35 199.15 273.0 198.85 274.25 198.2 272.9 191.35 276.65 188.95 276.65 190.35 276.65 195.1 275.4 197.15 274.85 197.65 274.55 197.9 274.55 200.65 278.1 212.15 Q275.6 214.15 272.6 215.0 L269.05 215.35 266.3 215.6 Q262.6 214.6 261.3 212.1 260.15 213.9 260.9 215.7 262.15 218.15 265.85 219.1 272.65 219.7 277.65 215.7 L278.1 213.85 278.1 212.15 M266.85 198.45 L268.0 198.95 268.4 196.75 268.75 194.5 269.1 192.35 270.45 192.35 271.4 195.75 271.9 197.45 272.35 199.15 M278.15 187.5 L278.15 186.2 Q274.1 188.65 269.85 189.7 265.45 189.8 262.2 188.2 L261.65 187.05 261.65 187.0 Q262.15 184.35 263.8 181.7 269.0 180.4 274.2 180.85 277.05 183.05 278.15 186.2 M263.25 190.6 L263.25 191.4 263.25 195.8 Q263.25 196.55 264.15 197.2 L264.5 197.4 264.55 197.45 265.2 197.75 265.65 198.0 M265.2 197.75 L265.2 200.55 265.05 201.6 264.3 203.6 Q263.65 205.55 263.45 207.4 261.75 209.3 261.3 212.1 M269.65 204.15 L266.8 202.4 M266.05 206.75 L269.9 204.3 269.65 204.15 M272.9 202.2 L270.05 200.5 268.2 201.55 M278.15 187.5 L278.15 187.9 276.65 188.95 M268.75 194.5 L269.85 195.75 271.4 195.75 M271.9 197.45 L269.85 195.75 268.4 196.75 M274.55 197.9 L274.25 198.2 M269.9 204.3 L273.4 202.45 272.9 202.2 M274.25 207.4 L274.15 207.35 269.9 204.3" ffdec:has-small-stroke="true" ffdec:original-stroke-width="0.1" fill="none" stroke="#48230e" stroke-linecap="round" stroke-linejoin="round" stroke-width="1.0"/>
    <path d="M266.8 202.4 Q267.45 201.95 268.2 201.55 L270.0 200.5 M265.05 206.95 L269.65 204.15 272.9 202.2" ffdec:has-small-stroke="true" ffdec:original-stroke-width="0.5" fill="none" stroke="#c2937e" stroke-linecap="round" stroke-linejoin="round" stroke-width="1.0"/>
  </g>
</svg>
