<?xml version="1.0" encoding="UTF-8" standalone="no"?>
<svg xmlns:ffdec="https://www.free-decompiler.com/flash" xmlns:xlink="http://www.w3.org/1999/xlink" ffdec:objectType="shape" height="64.3px" width="30.25px" xmlns="http://www.w3.org/2000/svg">
  <g transform="matrix(1.0, 0.0, 0.0, 1.0, 6.55, 32.2)">
    <path d="M19.3 -29.1 L18.8 -28.8 Q11.25 -26.55 3.9 -29.75 6.75 -31.55 10.05 -31.75 13.85 -31.9 17.45 -30.8 18.7 -30.3 19.3 -29.1 M18.6 12.05 L19.05 13.05 17.2 19.6 15.9 20.5 15.25 19.0 15.9 20.5 15.05 24.6 Q16.0 29.35 8.6 31.8 L5.55 31.65 3.8 31.85 0.85 32.1 Q-3.35 31.2 -5.25 28.25 -6.05 27.05 -6.3 25.95 L-6.55 24.15 Q-2.6 26.75 1.75 25.2 5.65 23.95 9.2 21.6 L10.8 20.3 13.15 17.75 15.25 19.0 14.95 19.4 Q14.5 20.0 15.15 19.85 L15.25 19.0 15.75 18.25 17.9 15.05 18.1 14.35 18.6 12.05 M15.05 24.65 L15.05 24.6 15.05 24.65 Q12.1 27.95 1.8 28.9 L-1.7 28.6 Q-5.5 27.2 -6.3 25.95 -5.5 27.2 -1.7 28.6 L1.8 28.9 Q12.1 27.95 15.05 24.65" fill="#32321d" fill-rule="evenodd" stroke="none"/>
    <path d="M23.7 -28.5 L23.6 -28.25 21.05 -27.35 17.0 -26.8 9.0 -26.9 Q4.35 -26.25 0.8 -29.2 L2.05 -30.95 Q8.5 -32.6 15.25 -32.05 20.0 -31.6 23.7 -29.0 L23.7 -28.5 M19.3 -29.1 Q18.7 -30.3 17.45 -30.8 13.85 -31.9 10.05 -31.75 6.75 -31.55 3.9 -29.75 11.25 -26.55 18.8 -28.8 L19.3 -29.1 M9.95 1.8 L9.15 0.75 13.4 1.1 13.65 3.25 Q12.55 2.6 11.4 2.2 L9.95 1.8 M-3.85 16.5 L-2.75 13.75 -0.1 10.9 0.0 10.9 4.8 9.5 11.05 10.7 13.2 13.9 12.6 13.55 Q13.3 15.3 12.3 16.6 10.75 15.15 8.8 15.9 4.9 17.2 0.85 16.85 -0.55 16.8 -1.6 15.9 L-3.85 16.5 M-2.75 13.75 L12.6 13.55 -2.75 13.75" fill="#88874d" fill-rule="evenodd" stroke="none"/>
    <path d="M23.6 -28.25 L23.7 -28.5 Q23.7 -26.7 23.0 -25.25 L21.85 -23.65 Q18.9 -21.4 13.0 -20.75 8.0 -20.3 2.1 -23.55 L0.45 -26.35 0.8 -29.2 Q4.35 -26.25 9.0 -26.9 L17.0 -26.8 21.05 -27.35 23.6 -28.25 M18.7 -0.85 L18.65 -0.25 18.5 10.9 16.3 5.05 13.65 3.25 13.4 1.1 9.15 0.75 9.95 1.8 3.9 1.5 2.1 2.45 2.25 -1.1 4.05 -0.3 13.65 0.0 Q17.5 -1.3 18.7 -0.85 M15.75 18.25 L15.25 19.0 13.15 17.75 10.8 20.3 9.2 21.6 Q5.65 23.95 1.75 25.2 -2.6 26.75 -6.55 24.15 -6.55 22.95 -6.2 21.85 -5.45 19.05 -3.85 16.5 L-1.6 15.9 Q-0.55 16.8 0.85 16.85 4.9 17.2 8.8 15.9 10.75 15.15 12.3 16.6 13.3 15.3 12.6 13.55 L13.2 13.9 15.75 18.25 M12.3 16.6 L13.15 17.75 12.3 16.6" fill="#5e5c35" fill-rule="evenodd" stroke="none"/>
    <path d="M17.4 -12.85 Q17.75 -14.45 17.4 -16.1 L16.5 -18.15 21.55 -18.65 16.5 -18.15 16.1 -19.2 Q10.15 -19.0 4.55 -20.65 L2.45 -20.75 2.1 -23.55 Q8.0 -20.3 13.0 -20.75 18.9 -21.4 21.85 -23.65 L21.55 -18.75 21.55 -18.65 22.3 -18.75 21.9 -14.0 21.25 -13.75 17.4 -12.85 21.25 -13.75 21.05 -8.95 20.95 -8.3 Q19.1 -7.6 17.35 -7.05 19.1 -7.6 20.95 -8.3 L21.05 -8.95 21.3 -6.1 20.75 -5.85 16.45 -4.3 17.15 -6.95 17.35 -7.05 18.3 -11.0 Q7.4 -12.85 3.0 -11.85 L3.0 -14.2 3.0 -14.65 Q7.65 -12.55 12.85 -12.5 L17.4 -12.85 M13.65 3.25 L16.3 5.05 18.5 10.9 18.6 11.5 18.55 11.5 18.6 12.05 18.1 14.35 Q17.0 11.05 14.05 8.9 L12.85 7.95 Q15.85 10.65 17.05 14.4 L17.2 15.35 17.2 15.85 15.75 18.25 13.2 13.9 11.05 10.7 12.1 9.4 11.75 5.7 12.95 6.3 11.4 2.2 Q12.55 2.6 13.65 3.25 M12.95 6.3 Q15.2 7.4 17.15 9.05 L18.55 11.5 17.15 9.05 Q15.2 7.4 12.95 6.3" fill="#7c6d3f" fill-rule="evenodd" stroke="none"/>
    <path d="M16.5 -18.15 L17.4 -16.1 Q17.75 -14.45 17.4 -12.85 L12.85 -12.5 Q7.65 -12.55 3.0 -14.65 L3.0 -14.2 2.95 -14.2 2.25 -19.4 3.9 -19.05 16.5 -18.15 M3.0 -11.85 Q7.4 -12.85 18.3 -11.0 L17.35 -7.05 17.15 -6.95 2.85 -6.55 2.9 -8.1 3.0 -11.85 M2.1 2.45 L3.9 1.5 9.95 1.8 11.4 2.2 12.95 6.3 11.75 5.7 8.35 4.6 0.2 6.3 1.0 3.1 2.05 2.45 2.1 2.45" fill="#a39550" fill-rule="evenodd" stroke="none"/>
    <path d="M16.5 -18.15 L3.9 -19.05 2.6 -19.4 2.45 -20.75 4.55 -20.65 Q10.15 -19.0 16.1 -19.2 L16.5 -18.15 M2.4 -4.2 L1.95 -4.4 2.9 -8.1 2.85 -6.55 17.15 -6.95 16.45 -4.3 20.75 -5.85 18.9 -0.75 Q18.95 -2.8 18.7 -0.85 17.5 -1.3 13.65 0.0 L4.05 -0.3 2.25 -1.1 1.8 -1.25 2.4 -4.2 Q7.95 -1.75 16.45 -4.3 7.95 -1.75 2.4 -4.2 M-0.05 10.85 L0.1 10.5 0.1 10.25 Q-0.1 10.05 -0.4 9.95 L0.65 7.5 0.2 6.3 8.35 4.6 11.75 5.7 12.1 9.4 11.05 10.7 4.8 9.5 0.0 10.9 -0.05 10.85" fill="#b7a96a" fill-rule="evenodd" stroke="none"/>
    <path d="M2.9 -8.1 L2.85 -8.1 2.9 -8.1" fill="#d6c778" fill-rule="evenodd" stroke="none"/>
    <path d="M18.65 11.7 L18.6 12.05 18.55 11.5 18.6 11.5 18.65 11.7 18.55 11.5 18.65 11.7 M17.2 15.85 L17.2 15.35 17.25 14.65 17.75 14.95 17.2 15.85" fill="#997c4d" fill-rule="evenodd" stroke="none"/>
    <path d="M18.1 14.35 L17.9 15.05 17.85 15.05 17.75 14.95 17.25 14.65 17.2 15.35 17.05 14.4 Q15.85 10.65 12.85 7.95 L14.05 8.9 Q17.0 11.05 18.1 14.35" fill="#816841" fill-rule="evenodd" stroke="none"/>
    <path d="M17.9 15.05 L15.75 18.25 17.2 15.85 17.75 14.95 17.85 15.05 17.9 15.05" fill="#6d4d41" fill-rule="evenodd" stroke="none"/>
    <path d="M-0.1 10.9 L-0.1 10.85 -0.1 10.9" fill="#a26c51" fill-rule="evenodd" stroke="none"/>
    <path d="M-0.1 10.9 L-0.05 10.85 0.0 10.9 -0.1 10.9" fill="#ddd682" fill-rule="evenodd" stroke="none"/>
    <path d="M15.15 19.85 Q14.5 20.0 14.95 19.4 L15.25 19.0 15.15 19.85" fill="#46312d" fill-rule="evenodd" stroke="none"/>
    <path d="M23.6 -28.25 L23.7 -28.5 M19.3 -29.1 Q18.7 -30.3 17.45 -30.8 13.85 -31.9 10.05 -31.75 6.75 -31.55 3.9 -29.75 11.25 -26.55 18.8 -28.8 L19.3 -29.1 M17.4 -12.85 L21.25 -13.75 M21.55 -18.65 L16.5 -18.15 3.9 -19.05 M3.0 -14.2 L3.0 -14.65 Q7.65 -12.55 12.85 -12.5 L17.4 -12.85 M17.35 -7.05 Q19.1 -7.6 20.95 -8.3 L21.05 -8.95 M2.4 -4.2 Q7.95 -1.75 16.45 -4.3 L20.75 -5.85 M17.15 -6.95 L2.85 -6.55 2.9 -8.1 2.85 -8.1 M17.15 -6.95 L17.35 -7.05 M21.85 -23.65 Q18.9 -21.4 13.0 -20.75 8.0 -20.3 2.1 -23.55 M18.65 -0.25 L18.7 -0.85 Q17.5 -1.3 13.65 0.0 L4.05 -0.3 2.25 -1.1 M3.9 1.5 L9.95 1.8 11.4 2.2 Q12.55 2.6 13.65 3.25 L16.3 5.05 18.5 10.9 M18.7 -0.85 L18.9 -0.75 Q18.95 -2.8 18.7 -0.85 M18.6 12.05 L18.1 14.35 17.9 15.05 17.85 15.05 M15.25 19.0 L15.9 20.5 M18.65 11.7 L18.55 11.5 18.6 12.05 M18.55 11.5 L17.15 9.05 Q15.2 7.4 12.95 6.3 L11.75 5.7 8.35 4.6 0.2 6.3 M11.05 10.7 L13.2 13.9 15.75 18.25 17.2 15.85 17.2 15.35 17.05 14.4 Q15.85 10.65 12.85 7.95 L14.05 8.9 Q17.0 11.05 18.1 14.35 M-3.85 16.5 L-1.6 15.9 Q-0.55 16.8 0.85 16.85 4.9 17.2 8.8 15.9 10.75 15.15 12.3 16.6 L13.15 17.75 15.25 19.0 M12.6 13.55 L-2.75 13.75 M-0.1 10.9 L0.0 10.9 4.8 9.5 11.05 10.7 M17.2 15.35 L17.25 14.65 M13.2 13.9 L12.6 13.55 M15.05 24.65 L15.05 24.6 15.05 24.65 Q12.1 27.95 1.8 28.9 L-1.7 28.6 Q-5.5 27.2 -6.3 25.95" ffdec:has-small-stroke="true" ffdec:original-stroke-width="0.05" fill="none" stroke="#000000" stroke-linecap="round" stroke-linejoin="round" stroke-opacity="0.3019608" stroke-width="1.0"/>
    <path d="M23.7 -28.5 L23.7 -29.0 Q20.0 -31.6 15.25 -32.05 8.5 -32.6 2.05 -30.95 L0.8 -29.2 0.45 -26.35 2.1 -23.55 2.45 -20.75 2.6 -19.4 M21.25 -13.75 L21.9 -14.0 22.3 -18.75 21.55 -18.65 M3.9 -19.05 L2.25 -19.4 2.95 -14.2 M3.0 -14.2 L3.0 -11.85 2.9 -8.1 1.95 -4.4 2.4 -4.2 1.8 -1.25 2.25 -1.1 2.1 2.45 M21.05 -8.95 L21.25 -13.75 M21.55 -18.75 L21.85 -23.65 23.0 -25.25 Q23.7 -26.7 23.7 -28.5 M20.75 -5.85 L21.3 -6.1 21.05 -8.95 M18.5 10.9 L18.65 -0.25 M15.9 20.5 L17.2 19.6 19.05 13.05 18.6 12.05 18.65 11.7 18.6 11.5 18.5 10.9 M15.75 18.25 L15.25 19.0 15.15 19.85 M15.9 20.5 L15.05 24.6 Q16.0 29.35 8.6 31.8 L5.55 31.65 3.8 31.85 0.85 32.1 Q-3.35 31.2 -5.25 28.25 -6.05 27.05 -6.3 25.95 L-6.55 24.15 Q-6.55 22.95 -6.2 21.85 -5.45 19.05 -3.85 16.5 L-2.75 13.75 -0.1 10.9 -0.1 10.85 M-0.05 10.85 L0.1 10.5 0.1 10.25 Q-0.1 10.05 -0.4 9.95 L0.65 7.5 0.2 6.3 1.0 3.1 2.05 2.45 M18.9 -0.75 L20.75 -5.85" ffdec:has-small-stroke="true" ffdec:original-stroke-width="0.05" fill="none" stroke="#000000" stroke-linecap="round" stroke-linejoin="round" stroke-opacity="0.3019608" stroke-width="1.0"/>
  </g>
</svg>
