<?xml version="1.0" encoding="UTF-8" standalone="no"?>
<svg xmlns:ffdec="https://www.free-decompiler.com/flash" xmlns:xlink="http://www.w3.org/1999/xlink" ffdec:objectType="shape" height="45.05px" width="30.0px" xmlns="http://www.w3.org/2000/svg">
  <g transform="matrix(1.0, 0.0, 0.0, 1.0, 0.25, 22.5)">
    <path d="M6.45 10.45 L6.4 10.4 Q6.0 9.2 5.05 8.85 L4.55 8.7 4.4 8.7 4.15 8.7 4.05 8.7 4.0 8.75 3.9 8.75 3.85 8.75 3.9 8.75 4.0 8.75 4.05 8.7 4.15 8.7 4.4 8.7 4.55 8.7 5.05 8.85 Q6.0 9.2 6.4 10.4 L6.45 10.45 M6.05 11.5 L5.9 11.5 4.65 11.3 0.0 11.7 2.2 9.9 3.5 8.95 3.8 8.8 3.85 8.75 4.85 8.2 7.25 7.9 7.6 7.85 9.35 7.9 9.7 9.1 10.0 10.25 10.0 10.3 10.0 10.35 10.0 10.4 10.15 10.85 10.1 10.85 7.95 10.6 6.05 11.5 M10.1 10.85 L10.0 10.4 10.1 10.85 M9.7 9.1 L8.55 8.25 7.6 7.85 8.55 8.25 9.7 9.1 M7.25 7.9 L8.05 8.25 8.75 8.6 Q9.7 9.3 10.0 10.25 9.7 9.3 8.75 8.6 L8.05 8.25 7.25 7.9 M3.5 8.95 L4.8 9.05 5.0 9.1 5.1 9.15 5.45 9.4 6.05 10.3 5.45 9.4 5.1 9.15 5.0 9.1 4.8 9.05 3.5 8.95" fill="#5c4e2e" fill-rule="evenodd" stroke="none"/>
    <path d="M3.85 8.75 L3.9 8.75 4.0 8.75 4.05 8.7 4.15 8.7 4.4 8.7 4.55 8.7 5.05 8.85 Q6.0 9.2 6.4 10.4 L6.45 10.45 M10.0 10.25 L10.0 10.3 10.0 10.35 10.0 10.4 10.1 10.85 M6.05 10.3 L5.45 9.4 5.1 9.15 5.0 9.1 4.8 9.05 3.5 8.95 M10.0 10.25 Q9.7 9.3 8.75 8.6 L8.05 8.25 7.25 7.9 M7.6 7.85 L8.55 8.25 9.7 9.1" ffdec:has-small-stroke="true" ffdec:original-stroke-width="0.05" fill="none" stroke="#544d3d" stroke-linecap="round" stroke-linejoin="round" stroke-width="1.0"/>
    <path d="M6.05 11.5 L5.9 11.5 4.65 11.3 0.0 11.7 2.2 9.9 3.5 8.95 3.8 8.8 3.85 8.75 4.85 8.2 7.25 7.9 7.6 7.85 9.35 7.9" ffdec:has-small-stroke="true" ffdec:original-stroke-width="0.05" fill="none" stroke="#544d3d" stroke-linecap="round" stroke-linejoin="round" stroke-width="1.0"/>
    <path d="M15.95 0.05 L16.0 0.05 16.0 0.1 15.95 0.05 M17.55 -5.75 L17.55 -5.5 17.45 -5.0 17.55 -5.75 M16.0 0.05 L16.0 0.1 16.0 0.05 M7.3 10.3 L7.3 10.25 7.3 10.3 M8.05 11.1 L7.75 10.75 7.6 10.55 8.05 11.1" fill="#cccccc" fill-rule="evenodd" stroke="none"/>
    <path d="M3.4 10.0 L3.45 9.95 3.5 9.95 3.4 10.0 M6.05 9.65 L5.95 9.65 5.95 9.6 6.05 9.65 M8.75 6.65 L8.8 6.5 9.95 6.5 8.75 6.65" fill="#ececec" fill-rule="evenodd" stroke="none"/>
    <path d="M15.7 -19.7 L15.8 -19.45 15.75 -19.45 15.7 -19.7" fill="#8f8f8f" fill-rule="evenodd" stroke="none"/>
    <path d="M16.6 1.1 L16.55 1.05 16.6 1.05 16.6 1.1" fill="#666666" fill-rule="evenodd" stroke="none"/>
    <path d="M16.2 -18.65 Q16.9 -18.6 17.65 -19.05 L18.6 -20.3 19.45 -20.1 19.2 -19.65 18.3 -18.4 Q17.9 -17.95 17.5 -17.85 L17.5 -17.8 Q16.75 -17.6 16.2 -18.65 M15.75 -5.5 L15.7 -5.5 15.7 -6.05 15.7 -5.85 15.75 -5.5 M15.75 -4.85 L15.75 -5.0 15.75 -4.85" fill="#333333" fill-rule="evenodd" stroke="none"/>
    <path d="M14.5 -3.2 L14.85 -2.75 14.7 -3.0 14.5 -3.2 M16.6 1.1 L16.6 1.05 16.55 1.3 16.6 1.1" fill="#990000" fill-rule="evenodd" stroke="none"/>
    <path d="M13.0 -22.25 L14.85 -22.2 14.9 -22.2 15.0 -22.25 15.7 -19.7 15.75 -19.45 16.25 -9.0 16.25 -8.95 15.75 -5.3 15.75 -5.5 15.7 -5.85 15.7 -6.05 15.7 -5.5 Q14.9 -5.65 14.5 -5.85 L12.3 -18.25 Q13.15 -20.25 13.0 -22.25 M14.5 -5.15 L15.75 -5.0 15.75 -4.85 15.75 -4.65 15.75 -4.6 16.0 0.05 15.95 0.05 15.05 -2.4 15.0 -2.45 14.9 -2.65 14.85 -2.75 14.5 -3.2 14.45 -3.25 14.5 -5.15 M13.95 2.7 L14.4 2.5 14.6 2.4 16.05 1.5 16.0 0.1 16.05 0.1 16.55 1.05 16.6 1.1 16.55 1.3 16.65 1.25 17.3 3.05 17.45 3.75 17.3 4.35 17.2 4.6 16.65 5.2 16.3 5.4 14.5 5.85 12.9 7.25 Q11.8 6.1 9.5 6.2 10.6 5.55 11.75 5.1 L12.85 4.65 13.95 2.7 M15.7 -6.05 L15.65 -6.55 14.9 -22.2 15.65 -6.55 15.7 -6.05 M16.65 5.2 Q12.5 5.55 11.75 5.1 12.5 5.55 16.65 5.2 M3.6 11.55 L4.3 10.4 Q4.85 10.05 5.35 9.85 L5.35 9.6 Q4.95 9.75 4.6 10.0 L4.9 9.65 5.95 9.6 5.95 9.65 6.05 9.65 Q6.7 9.8 7.3 10.25 L7.3 10.3 6.8 10.4 6.25 10.55 3.6 11.55 M5.2 9.25 L5.7 8.65 8.75 6.65 9.95 6.5 Q11.6 6.6 12.5 7.6 L9.85 9.85 7.85 10.15 Q6.6 9.0 5.2 9.25" fill="#cdc098" fill-rule="evenodd" stroke="none"/>
    <path d="M1.9 12.4 L3.1 10.4 Q4.05 9.8 4.9 9.65 L4.6 10.0 Q4.95 9.75 5.35 9.6 L5.35 9.85 Q4.85 10.05 4.3 10.4 L3.6 11.55 2.4 12.15 1.9 12.4 M3.45 9.95 L4.5 8.65 Q6.0 7.5 7.55 6.65 L8.8 6.5 8.75 6.65 5.7 8.65 5.2 9.25 4.5 9.45 4.25 9.55 3.9 9.7 3.8 9.75 3.75 9.8 3.65 9.85 3.55 9.9 3.5 9.95 3.45 9.95 M8.05 6.35 Q9.8 5.35 11.65 4.65 L13.4 1.5 Q13.1 2.05 13.1 2.4 13.0 2.95 13.65 2.8 L13.95 2.7 12.85 4.65 11.75 5.1 Q11.5 4.9 11.65 4.65 11.5 4.9 11.75 5.1 10.6 5.55 9.5 6.2 L8.05 6.35 M13.55 -1.1 L13.75 -5.4 14.5 -5.15 14.45 -3.25 Q14.15 -3.4 13.95 -3.0 13.65 -2.5 13.55 -1.1 M13.7 -5.85 L11.5 -18.25 Q12.35 -20.25 12.2 -22.25 L13.0 -22.25 Q13.15 -20.25 12.3 -18.25 L14.5 -5.85 Q14.9 -5.65 15.7 -5.5 L15.7 -5.45 13.7 -5.85" fill="#e4dcc9" fill-rule="evenodd" stroke="none"/>
    <path d="M19.45 -20.1 L19.6 -20.45 19.65 -20.4 20.5 -19.95 20.5 -19.9 18.15 -7.15 18.0 -5.65 17.55 -5.5 17.55 -5.75 17.45 -5.0 17.95 -5.15 17.7 -2.3 16.75 0.1 16.6 1.05 16.55 1.05 16.05 0.1 16.0 0.1 16.0 0.05 15.75 -4.6 15.75 -4.65 15.75 -4.85 15.75 -5.0 15.75 -5.3 16.25 -8.95 16.25 -9.0 17.5 -17.8 17.5 -17.85 Q17.9 -17.95 18.3 -18.4 L19.2 -19.65 19.45 -20.1 M17.4 0.75 L17.6 1.25 18.25 2.4 19.0 4.6 19.05 4.95 Q18.85 6.2 17.9 6.6 L16.1 7.05 13.8 9.05 Q13.55 7.95 12.9 7.25 L14.5 5.85 16.3 5.4 16.65 5.2 17.2 4.6 17.3 4.35 17.45 3.75 17.3 3.05 16.65 1.25 17.4 0.75 M13.4 9.4 L11.45 11.05 8.9 11.5 7.85 10.15 9.85 9.85 12.5 7.6 13.15 8.6 13.3 9.0 13.4 9.4 M8.4 11.6 L7.75 11.8 6.0 12.4 Q2.85 13.65 0.0 16.05 L1.9 12.4 2.4 12.15 3.6 11.55 6.25 10.55 6.8 10.4 7.3 10.3 7.6 10.55 7.75 10.75 8.05 11.1 8.35 11.5 8.4 11.6 M19.65 -20.4 L17.55 -5.75 19.65 -20.4 M17.45 -5.0 L16.75 0.1 17.45 -5.0 M19.05 4.95 L17.3 5.15 16.65 5.2 17.3 5.15 19.05 4.95" fill="#83795c" fill-rule="evenodd" stroke="none"/>
    <path d="M15.8 -19.45 L16.15 -18.7 16.2 -18.65 Q16.75 -17.6 17.5 -17.8 L16.25 -9.0 15.75 -19.45 15.8 -19.45" fill="#978a6c" fill-rule="evenodd" stroke="none"/>
    <path d="M18.0 -5.65 L17.95 -5.15 17.45 -5.0 17.55 -5.5 18.0 -5.65 M13.8 9.05 L13.4 9.4 13.3 9.0 13.15 8.6 12.5 7.6 Q11.6 6.6 9.95 6.5 L8.8 6.5 7.55 6.65 8.05 6.35 9.5 6.2 Q11.8 6.1 12.9 7.25 13.55 7.95 13.8 9.05 M8.9 11.5 L8.4 11.6 8.35 11.5 8.05 11.1 7.6 10.55 7.3 10.3 7.3 10.25 Q6.7 9.8 6.05 9.65 L5.95 9.6 4.9 9.65 Q4.05 9.8 3.1 10.4 L3.4 10.0 3.5 9.95 3.55 9.9 3.65 9.85 3.75 9.8 3.8 9.75 3.9 9.7 4.25 9.55 4.5 9.45 5.2 9.25 Q6.6 9.0 7.85 10.15 L8.9 11.5 M13.75 -5.4 L13.7 -5.85 15.7 -5.45 15.7 -5.5 15.75 -5.5 15.75 -5.3 15.75 -5.0 14.5 -5.15 13.75 -5.4" fill="#474132" fill-rule="evenodd" stroke="none"/>
    <path d="M17.7 -2.3 L17.4 0.75 16.65 1.25 16.55 1.3 16.6 1.05 16.75 0.1 17.7 -2.3 M15.05 -2.4 L15.95 0.05 16.0 0.1 16.05 1.5 14.6 2.4 14.4 2.5 14.4 2.4 14.7 1.5 14.85 -1.1 15.05 -2.4" fill="#cbc087" fill-rule="evenodd" stroke="none"/>
    <path d="M14.9 -2.65 L15.0 -2.45 15.05 -2.4 14.85 -1.1 14.7 1.5 14.4 2.4 14.4 2.5 13.95 2.7 13.65 2.8 13.9 2.1 14.05 -0.5 Q14.15 -1.9 14.45 -2.4 14.6 -2.8 14.9 -2.65" fill="#f5f4de" fill-rule="evenodd" stroke="none"/>
    <path d="M13.4 1.5 L13.55 -1.1 Q13.65 -2.5 13.95 -3.0 14.15 -3.4 14.45 -3.25 L14.5 -3.2 14.7 -3.0 14.85 -2.75 14.9 -2.65 Q14.6 -2.8 14.45 -2.4 14.15 -1.9 14.05 -0.5 L13.9 2.1 13.65 2.8 Q13.0 2.95 13.1 2.4 13.1 2.05 13.4 1.5" fill="#807537" fill-rule="evenodd" stroke="none"/>
    <path d="M13.4 1.5 L13.55 -1.1 M13.75 -5.4 L14.5 -5.15 15.75 -5.0 15.75 -5.3 15.75 -5.5 15.7 -5.85 M15.7 -5.45 L13.7 -5.85 M13.65 2.8 L13.95 2.7 14.4 2.5 M17.55 -5.5 L18.0 -5.65 M17.45 -5.0 L17.95 -5.15 M15.75 -4.85 L15.75 -4.65 M15.75 -4.85 L15.75 -5.0 M12.9 7.25 Q13.55 7.95 13.8 9.05 M13.65 2.8 Q13.0 2.95 13.1 2.4 13.1 2.05 13.4 1.5 M12.5 7.6 L13.15 8.6 13.3 9.0 13.4 9.4 M7.3 10.25 Q6.7 9.8 6.05 9.65 M5.95 9.6 L4.9 9.65 Q4.05 9.8 3.1 10.4 M3.5 9.95 L3.55 9.9 3.65 9.85 3.75 9.8 3.8 9.75 3.9 9.7 4.25 9.55 4.5 9.45 5.2 9.25 Q6.6 9.0 7.85 10.15 L8.9 11.5 M8.8 6.5 L7.55 6.65 M3.4 10.0 L3.5 9.95 M9.95 6.5 L8.8 6.5 M7.3 10.3 L7.3 10.25 M7.6 10.55 L7.75 10.75 8.05 11.1 7.6 10.55 7.3 10.3 M8.05 11.1 L8.35 11.5 8.4 11.6 M8.05 6.35 L9.5 6.2 Q11.8 6.1 12.9 7.25 M9.95 6.5 Q11.6 6.6 12.5 7.6" ffdec:has-small-stroke="true" ffdec:original-stroke-width="0.05" fill="none" stroke="#544d3d" stroke-linecap="round" stroke-linejoin="round" stroke-width="1.0"/>
    <path d="M15.7 -19.7 L15.8 -19.45 16.15 -18.7 16.2 -18.65 Q16.9 -18.6 17.65 -19.05 L18.6 -20.3 19.45 -20.1 19.6 -20.45 19.65 -20.4 20.5 -19.95 20.5 -19.9 18.15 -7.15 18.0 -5.65 17.95 -5.15 17.7 -2.3 17.4 0.75 17.6 1.25 18.25 2.4 19.0 4.6 19.05 4.95 Q18.85 6.2 17.9 6.6 L16.1 7.05 13.8 9.05 13.4 9.4 11.45 11.05 8.9 11.5 8.4 11.6 7.75 11.8 6.0 12.4 Q2.85 13.65 0.0 16.05 L1.9 12.4 3.1 10.4 3.4 10.0 3.45 9.95 4.5 8.65 Q6.0 7.5 7.55 6.65 L8.05 6.35 Q9.8 5.35 11.65 4.65 L13.4 1.5 M13.55 -1.1 L13.75 -5.4 13.7 -5.85 11.5 -18.25 Q12.35 -20.25 12.2 -22.25 L13.0 -22.25 14.85 -22.2 M14.9 -22.2 L15.0 -22.25 15.7 -19.7 M17.5 -17.85 Q17.9 -17.95 18.3 -18.4 L19.2 -19.65 19.45 -20.1 M17.5 -17.8 Q16.75 -17.6 16.2 -18.65 M14.45 -3.25 L14.5 -3.2 14.85 -2.75 14.9 -2.65 15.0 -2.45 15.05 -2.4 15.95 0.05 16.0 0.1 16.0 0.05 15.75 -4.6 M14.5 -3.2 L14.7 -3.0 14.85 -2.75 M14.45 -3.25 Q14.15 -3.4 13.95 -3.0 13.65 -2.5 13.55 -1.1 M17.55 -5.75 L17.55 -5.5 17.45 -5.0 17.55 -5.75 19.65 -20.4 M15.7 -6.05 L15.7 -5.85 M14.9 -22.2 L15.65 -6.55 15.7 -6.05 M16.6 1.1 L16.6 1.05 16.75 0.1 17.45 -5.0 M16.0 0.1 L16.05 1.5 14.6 2.4 14.4 2.5 M16.6 1.1 L16.55 1.3 16.6 1.05 M16.55 1.3 L16.65 1.25 17.4 0.75 M16.65 5.2 L17.3 5.15 19.05 4.95 M11.75 5.1 Q11.5 4.9 11.65 4.65 M11.75 5.1 Q12.5 5.55 16.65 5.2 M17.7 -2.3 L16.75 0.1" ffdec:has-small-stroke="true" ffdec:original-stroke-width="0.05" fill="none" stroke="#544d3d" stroke-linecap="round" stroke-linejoin="round" stroke-width="1.0"/>
    <path d="M21.5 1.25 L21.9 -3.4 21.9 -3.65 21.95 -3.65 21.55 1.1 21.5 1.25 M23.35 -21.05 L23.35 -21.1 23.6 -21.6 23.65 -21.6 23.4 -21.05 22.0 -4.15 23.35 -3.8 23.35 -3.75 22.0 -4.1 21.95 -4.15 22.0 -4.55 22.1 -5.7 23.35 -21.05 M23.35 -3.3 L23.3 -3.3 23.05 -3.35 23.35 -3.3 M22.3 4.8 L22.25 4.8 22.25 4.75 22.3 4.8" fill="#8f8f8f" fill-rule="evenodd" stroke="none"/>
    <path d="M19.9 -17.55 L20.6 -17.45 20.55 -17.45 19.9 -17.55 M21.95 -4.0 L22.05 -5.7 22.1 -5.7 22.0 -4.55 21.95 -4.0 M28.3 -18.25 Q28.35 -18.15 28.8 -18.0 L29.45 -17.9 Q29.4 -17.4 28.45 -17.55 L28.3 -18.25 M21.55 1.1 L21.6 1.05 21.55 1.3 21.55 1.1 M21.65 16.2 L21.6 16.25 21.6 16.2 21.65 16.2 M23.35 15.05 L22.35 14.8 23.35 15.05" fill="#cccccc" fill-rule="evenodd" stroke="none"/>
    <path d="M19.9 -17.55 L19.65 -17.6 19.6 -17.65 Q20.95 -17.85 22.0 -20.0 L22.8 -20.0 21.9 -18.2 Q21.35 -17.5 20.6 -17.45 L19.9 -17.55" fill="#999999" fill-rule="evenodd" stroke="none"/>
    <path d="M25.0 1.6 L25.0 2.0 24.95 2.15 25.0 1.6" fill="#630101" fill-rule="evenodd" stroke="none"/>
    <path d="M24.9 2.55 L24.9 2.8 24.85 2.95 24.9 2.55 M22.7 5.0 L23.1 5.0 Q22.65 5.1 22.3 4.8 L22.7 5.0" fill="#c20101" fill-rule="evenodd" stroke="none"/>
    <path d="M20.6 -17.45 Q21.35 -17.5 21.9 -18.2 L22.8 -20.0 23.35 -21.05 22.1 -5.7 22.05 -5.7 20.55 -17.45 20.6 -17.45 M23.65 -21.6 L24.95 -21.4 24.95 -21.35 24.8 -21.05 23.35 -3.8 22.0 -4.15 23.4 -21.05 23.65 -21.6 M23.05 -3.35 L23.3 -3.3 23.35 -3.3 23.2 -1.7 Q22.45 -1.4 21.6 1.05 L21.55 1.1 21.95 -3.65 23.05 -3.35 M21.15 7.7 L21.35 7.15 21.6 6.0 21.55 4.4 21.7 4.1 22.25 4.75 22.25 4.8 21.7 5.8 22.1 7.35 22.35 8.0 21.15 7.7 22.35 8.0 22.4 8.1 22.9 9.45 Q21.55 9.2 20.55 10.15 20.55 9.45 21.0 8.1 L21.15 7.7 M21.4 14.6 L21.05 12.6 20.7 10.95 20.65 10.65 19.95 11.45 Q21.2 9.6 23.05 10.0 L23.15 10.55 23.35 11.65 23.4 11.85 23.45 12.35 23.45 12.4 22.55 14.4 21.4 14.6 M21.6 16.2 L21.6 16.15 21.5 15.35 21.45 15.0 20.95 15.35 Q21.6 14.75 22.35 14.8 L22.25 15.05 21.8 15.9 21.8 15.85 21.65 16.2 21.6 16.2" fill="#cdc098" fill-rule="evenodd" stroke="none"/>
    <path d="M19.6 -17.65 L19.65 -17.6 19.9 -17.55 20.55 -17.45 22.05 -5.7 21.95 -4.0 21.9 -3.65 21.9 -3.4 21.5 1.25 21.5 1.3 21.3 3.4 21.15 2.8 21.3 3.4 21.4 3.55 21.7 4.1 21.55 4.4 21.6 6.0 21.35 7.15 21.15 7.7 21.0 8.1 Q20.55 9.45 20.55 10.15 L19.6 11.3 19.4 10.6 19.35 10.45 Q19.25 9.85 19.8 8.1 L20.15 7.15 20.4 6.0 20.35 4.4 21.15 2.8 21.25 -4.15 19.55 -17.5 19.55 -17.55 19.6 -17.65 M20.6 18.05 L20.35 15.9 20.45 15.8 20.95 15.35 21.45 15.0 21.5 15.35 21.6 16.15 21.6 16.2 21.6 16.25 21.6 16.3 21.45 16.55 21.4 16.6 20.6 18.05 M20.3 15.5 L19.7 11.8 19.75 11.75 19.95 11.45 20.65 10.65 20.7 10.95 21.05 12.6 21.4 14.6 Q20.9 14.85 20.45 15.35 L20.3 15.5 M20.15 7.15 L21.15 7.7 20.15 7.15" fill="#eadbc4" fill-rule="evenodd" stroke="none"/>
    <path d="M24.75 16.2 L22.5 20.05 21.1 22.3 20.6 18.05 21.4 16.6 21.45 16.55 21.6 16.3 21.6 16.25 21.65 16.2 21.8 15.85 21.8 15.9 22.25 15.05 22.35 14.8 23.35 15.05 24.4 15.85 24.75 16.2 M24.95 -21.35 L27.55 -20.9 25.6 -3.85 23.35 -3.75 23.35 -3.8 24.8 -21.05 24.95 -21.35 M25.55 -3.35 L25.05 1.45 24.35 -0.6 Q23.95 -1.5 23.55 -1.65 L23.2 -1.7 23.35 -3.3 25.55 -3.35 M23.7 4.65 L24.3 4.0 23.4 5.8 23.4 5.9 23.8 7.35 24.0 7.9 23.9 7.9 23.35 8.0 22.35 8.0 23.35 8.0 23.9 7.9 24.0 7.9 24.05 8.0 24.1 8.1 24.35 8.8 24.85 10.4 23.95 9.85 22.9 9.5 22.9 9.45 22.4 8.1 22.35 8.0 22.1 7.35 21.7 5.8 22.25 4.8 22.3 4.8 Q22.65 5.1 23.1 5.0 23.3 4.9 23.55 4.75 L23.6 4.7 23.65 4.7 23.7 4.65 M22.55 14.4 L23.45 12.4 23.45 12.35 23.4 11.85 23.35 11.65 23.15 10.55 23.05 10.0 23.3 10.1 24.95 11.05 25.05 11.65 25.1 11.85 25.15 12.35 25.15 12.4 25.0 12.7 24.25 14.4 24.05 14.8 24.0 14.9 23.95 15.05 23.6 14.8 22.55 14.45 22.55 14.4" fill="#83795c" fill-rule="evenodd" stroke="none"/>
    <path d="M27.55 -20.9 L27.6 -20.9 28.3 -18.25 28.45 -17.55 Q29.4 -17.4 29.45 -17.9 L29.5 -17.65 24.9 2.95 24.85 2.95 24.9 2.8 24.9 2.55 24.95 2.15 25.0 2.0 25.0 1.6 25.05 1.45 25.55 -3.35 25.6 -3.85 27.55 -20.9 M24.85 3.1 L24.9 3.1 25.35 4.7 24.8 5.8 25.2 7.35 25.5 8.1 26.25 10.55 26.5 11.85 26.3 11.7 26.25 11.6 25.05 10.55 24.85 10.4 24.35 8.8 24.1 8.1 24.05 8.0 24.0 7.9 23.8 7.35 23.4 5.9 23.4 5.8 24.3 4.0 24.85 3.1 M26.55 12.35 L26.55 12.4 24.9 15.9 24.75 15.7 23.95 15.05 24.0 14.9 24.05 14.8 24.25 14.4 25.0 12.7 25.15 12.4 25.15 12.35 25.1 11.85 25.05 11.65 24.95 11.05 25.5 11.4 25.55 11.45 26.3 12.1 26.55 12.35 M25.2 7.35 L24.85 7.55 24.0 7.9 24.85 7.55 25.2 7.35" fill="#635a47" fill-rule="evenodd" stroke="none"/>
    <path d="M21.9 -3.65 L21.95 -4.0 22.0 -4.55 21.95 -4.15 22.0 -4.1 23.35 -3.75 25.6 -3.85 25.55 -3.35 23.35 -3.3 23.05 -3.35 21.95 -3.65 21.9 -3.65 M26.5 11.85 L26.55 12.35 26.3 12.1 25.55 11.45 25.5 11.4 24.95 11.05 23.3 10.1 23.05 10.0 Q21.2 9.6 19.95 11.45 L19.75 11.75 19.7 11.8 19.6 11.3 20.55 10.15 Q21.55 9.2 22.9 9.45 L22.9 9.5 23.95 9.85 24.85 10.4 25.05 10.55 26.25 11.6 26.3 11.7 26.5 11.85 M24.9 15.9 L24.75 16.2 24.4 15.85 23.35 15.05 22.35 14.8 Q21.6 14.75 20.95 15.35 L20.45 15.8 20.35 15.9 20.3 15.5 20.45 15.35 Q20.9 14.85 21.4 14.6 L22.55 14.4 22.55 14.45 23.6 14.8 23.95 15.05 24.75 15.7 24.9 15.9" fill="#5c4e2e" fill-rule="evenodd" stroke="none"/>
    <path d="M21.3 3.4 L21.5 1.3 21.5 1.25 21.55 1.3 21.6 1.05 Q22.45 -1.4 23.2 -1.7 L23.55 -1.65 Q23.95 -1.5 24.35 -0.6 L25.05 1.45 25.0 1.6 24.95 2.15 24.9 2.55 24.85 2.95 24.85 3.1 24.3 4.0 23.7 4.65 Q23.6 2.4 24.2 0.05 L23.55 -0.65 23.4 -0.7 23.2 -0.7 Q22.4 -0.4 21.55 2.3 L21.5 2.25 21.5 2.3 21.4 3.55 21.3 3.4" fill="#807537" fill-rule="evenodd" stroke="none"/>
    <path d="M21.4 3.55 L21.5 2.3 21.5 2.25 21.55 2.3 Q22.4 -0.4 23.2 -0.7 L23.4 -0.7 Q22.7 2.85 22.7 5.0 L22.3 4.8 22.25 4.75 21.7 4.1 21.4 3.55" fill="#f5f4de" fill-rule="evenodd" stroke="none"/>
    <path d="M23.4 -0.7 L23.55 -0.65 24.2 0.05 Q23.6 2.4 23.7 4.65 L23.65 4.7 23.6 4.7 23.55 4.75 Q23.3 4.9 23.1 5.0 L22.7 5.0 Q22.7 2.85 23.4 -0.7" fill="#dbd78a" fill-rule="evenodd" stroke="none"/>
    <path d="M19.6 -17.65 L19.65 -17.6 19.9 -17.55 20.6 -17.45 Q21.35 -17.5 21.9 -18.2 L22.8 -20.0 22.0 -20.0 Q20.95 -17.85 19.6 -17.65 L19.55 -17.55 19.55 -17.5 21.25 -4.15 21.15 2.8 21.3 3.4 21.5 1.3 21.5 1.25 21.9 -3.4 M21.9 -3.65 L21.95 -4.0 22.05 -5.7 M20.55 -17.45 L19.9 -17.55 M27.55 -20.9 L27.6 -20.9 28.3 -18.25 Q28.35 -18.15 28.8 -18.0 L29.45 -17.9 29.5 -17.65 M24.9 2.95 L24.85 3.1 24.85 2.95 M24.9 3.1 L25.35 4.7 24.8 5.8 25.2 7.35 25.5 8.1 26.25 10.55 26.5 11.85 26.55 12.35 26.55 12.4 24.9 15.9 24.75 16.2 22.5 20.05 21.1 22.3 20.6 18.05 20.35 15.9 20.3 15.5 19.7 11.8 19.6 11.3 19.4 10.6 19.35 10.45 Q19.25 9.85 19.8 8.1 L20.15 7.15 20.4 6.0 20.35 4.4 21.15 2.8 M23.35 -21.05 L23.35 -21.1 23.6 -21.6 23.65 -21.6 24.95 -21.4 M24.95 -21.35 L27.55 -20.9 25.6 -3.85 25.55 -3.35 25.05 1.45 25.0 1.6 25.0 2.0 M24.9 2.55 L24.9 2.8 M22.8 -20.0 L23.35 -21.05 22.1 -5.7 22.0 -4.55 21.95 -4.0 M22.0 -4.15 L23.4 -21.05 23.65 -21.6 M28.3 -18.25 L28.45 -17.55 Q29.4 -17.4 29.45 -17.9 M21.95 -3.65 L21.55 1.1 21.55 1.3 21.6 1.05 Q22.45 -1.4 23.2 -1.7 L23.55 -1.65 Q23.95 -1.5 24.35 -0.6 L25.05 1.45 M23.7 4.65 L24.3 4.0 24.85 3.1 M22.7 5.0 L23.1 5.0 Q23.3 4.9 23.55 4.75 L23.6 4.7 23.65 4.7 23.7 4.65 M24.95 2.15 L25.0 1.6 M21.5 1.25 L21.55 1.1 M21.7 4.1 L21.4 3.55 21.3 3.4 M22.7 5.0 L22.3 4.8 Q22.65 5.1 23.1 5.0 M22.35 8.0 L23.35 8.0 23.9 7.9 24.0 7.9 24.85 7.55 25.2 7.35 M22.3 4.8 L22.25 4.75 21.7 4.1 M21.15 7.7 L22.35 8.0 M22.9 9.5 L23.95 9.85 24.85 10.4 25.05 10.55 26.25 11.6 26.3 11.7 26.5 11.85 M21.15 7.7 L20.15 7.15 M21.4 14.6 L22.55 14.4 M23.05 10.0 Q21.2 9.6 19.95 11.45 L20.65 10.65 M24.95 11.05 L23.3 10.1 23.05 10.0 M24.95 11.05 L25.5 11.4 25.55 11.45 26.3 12.1 26.55 12.35 M22.9 9.45 Q21.55 9.2 20.55 10.15 L19.6 11.3 M24.0 14.9 L24.05 14.8 M22.55 14.45 L23.6 14.8 23.95 15.05 24.75 15.7 24.9 15.9 M20.3 15.5 L20.45 15.35 Q20.9 14.85 21.4 14.6 M21.45 15.0 L20.95 15.35 20.45 15.8 20.35 15.9 M22.35 14.8 Q21.6 14.75 20.95 15.35 M24.75 16.2 L24.4 15.85 23.35 15.05 22.35 14.8 23.35 15.05 M19.7 11.8 L19.75 11.75 19.95 11.45" ffdec:has-small-stroke="true" ffdec:original-stroke-width="0.05" fill="none" stroke="#544d3d" stroke-linecap="round" stroke-linejoin="round" stroke-width="1.0"/>
    <path d="M29.5 -17.65 L24.9 2.95 M21.95 -4.15 L22.0 -4.1 23.35 -3.75 25.6 -3.85 M23.35 -3.8 L22.0 -4.15 M23.35 -3.3 L23.3 -3.3 23.05 -3.35 21.95 -3.65 21.9 -3.65 M23.35 -3.3 L23.05 -3.35 M23.35 -3.3 L25.55 -3.35" ffdec:has-small-stroke="true" ffdec:original-stroke-width="0.05" fill="none" stroke="#544d3d" stroke-linecap="round" stroke-linejoin="round" stroke-width="1.0"/>
    <path d="M10.8 9.05 L10.35 9.3 9.45 9.9 8.85 9.9 Q9.55 9.35 10.3 9.05 L10.3 9.0 10.8 9.05 M7.6 11.8 L7.5 12.05 7.75 11.8 7.8 11.8 7.8 11.95 7.35 12.25 7.1 12.95 6.6 13.25 6.4 13.4 6.9 12.25 7.6 11.8 M7.7 11.6 L7.45 11.7 7.35 11.75 7.2 11.85 7.1 11.95 7.05 11.95 7.45 11.2 8.65 10.05 9.2 10.05 9.15 10.15 Q8.5 10.6 7.95 11.25 L7.7 11.6" fill="#e4dcc9" fill-rule="evenodd" stroke="none"/>
    <path d="M9.45 9.9 Q10.35 9.9 10.8 10.65 L11.1 11.8 10.95 12.0 10.9 11.75 10.85 11.5 10.6 10.85 Q10.25 10.2 9.6 10.05 L9.2 10.05 8.65 10.05 8.85 9.9 9.45 9.9 M8.55 12.3 L8.05 11.85 7.6 11.8 6.9 12.25 7.0 12.0 7.05 11.95 7.1 11.95 7.2 11.85 7.35 11.75 7.45 11.7 7.7 11.6 Q8.3 11.5 8.75 12.25 L9.15 13.1 9.0 13.15 8.95 13.1 8.85 12.8 8.65 12.5 8.55 12.3" fill="#474132" fill-rule="evenodd" stroke="none"/>
    <path d="M7.1 12.95 L7.35 12.25 7.8 11.95 7.8 11.8 7.75 11.8 7.5 12.05 7.6 11.8 8.05 11.85 8.55 12.3 8.35 12.35 8.15 12.45 Q7.6 12.6 7.1 12.95 M7.7 11.6 L7.95 11.25 Q8.5 10.6 9.15 10.15 L9.6 10.05 Q10.25 10.2 10.6 10.85 L9.55 12.15 8.75 12.25 Q8.3 11.5 7.7 11.6" fill="#cdc098" fill-rule="evenodd" stroke="none"/>
    <path d="M9.15 10.15 L9.2 10.05 9.6 10.05 9.15 10.15" fill="#ececec" fill-rule="evenodd" stroke="none"/>
    <path d="M9.45 9.9 L10.35 9.3 10.8 9.05 11.25 9.05 11.3 9.05 11.7 8.95 12.8 9.25 12.8 9.9 12.05 10.65 11.1 11.8 10.8 10.65 Q10.35 9.9 9.45 9.9 M10.6 10.85 L10.85 11.5 10.9 11.75 10.95 12.0 10.15 12.95 9.15 13.1 8.75 12.25 9.55 12.15 10.6 10.85 M7.1 12.95 Q7.6 12.6 8.15 12.45 L8.35 12.35 8.55 12.3 8.65 12.5 8.7 12.6 8.85 12.8 8.95 13.1 9.0 13.15 8.7 13.25 Q8.35 13.35 8.0 13.55 6.75 14.2 5.6 15.6 L6.4 13.4 6.6 13.25 7.1 12.95" fill="#83795c" fill-rule="evenodd" stroke="none"/>
    <path d="M8.65 12.5 L8.85 12.8 8.7 12.6 8.65 12.5" fill="#cccccc" fill-rule="evenodd" stroke="none"/>
    <path d="M10.6 10.85 L10.85 11.5 10.9 11.75 10.95 12.0 M8.55 12.3 L8.05 11.85 7.6 11.8 6.9 12.25 M7.05 11.95 L7.1 11.95 7.2 11.85 7.35 11.75 7.45 11.7 7.7 11.6 Q8.3 11.5 8.75 12.25 L9.15 13.1 M9.2 10.05 L8.65 10.05 M9.6 10.05 L9.2 10.05 M10.6 10.85 Q10.25 10.2 9.6 10.05 M8.85 12.8 L8.65 12.5 8.7 12.6 8.85 12.8 8.95 13.1 9.0 13.15 M8.65 12.5 L8.55 12.3" ffdec:has-small-stroke="true" ffdec:original-stroke-width="0.05" fill="none" stroke="#544d3d" stroke-linecap="round" stroke-linejoin="round" stroke-width="1.0"/>
    <path d="M11.1 11.8 L12.05 10.65 12.8 9.9 M10.3 9.0 L10.3 9.05 Q9.55 9.35 8.85 9.9 L8.65 10.05 7.45 11.2 7.05 11.95 7.0 12.0 6.9 12.25 6.4 13.4 5.6 15.6 Q6.75 14.2 8.0 13.55 8.35 13.35 8.7 13.25 L9.0 13.15 9.15 13.1 10.15 12.95 10.95 12.0 11.1 11.8" ffdec:has-small-stroke="true" ffdec:original-stroke-width="0.05" fill="none" stroke="#544d3d" stroke-linecap="round" stroke-linejoin="round" stroke-width="1.0"/>
    <path d="M19.9 -18.85 L19.9 -18.95 Q24.15 -22.65 27.7 -19.4 27.85 -19.6 28.05 -19.6 28.4 -19.6 28.7 -18.8 L28.85 -18.85 29.35 -18.35 29.55 -17.05 29.35 -15.8 29.0 -15.25 28.75 -14.05 28.4 -13.25 28.1 -12.15 27.65 -11.5 27.7 -10.5 27.55 -8.9 Q27.4 -8.25 27.15 -8.25 26.9 -8.25 26.75 -8.9 26.6 -9.55 26.6 -10.5 26.6 -11.35 26.75 -11.9 L26.7 -12.0 26.65 -11.95 Q26.3 -11.15 25.8 -11.15 L25.75 -11.15 25.55 -10.55 25.15 -10.1 Q24.9 -10.1 24.7 -10.55 24.55 -11.0 24.55 -11.65 L24.7 -12.65 Q24.55 -13.15 24.55 -13.8 L24.55 -13.9 23.85 -13.85 23.75 -15.75 23.6 -15.7 23.4 -14.5 23.5 -13.35 23.25 -11.75 Q23.05 -11.05 22.75 -11.05 22.45 -11.05 22.2 -11.75 L22.0 -13.35 22.1 -14.55 22.05 -14.7 21.9 -14.15 Q21.7 -13.55 21.5 -13.55 L21.15 -14.15 20.95 -15.2 20.9 -15.25 20.8 -14.9 20.5 -14.5 20.15 -14.9 Q20.0 -15.25 20.0 -15.75 L20.15 -16.6 20.2 -16.65 20.05 -17.4 20.05 -17.1 Q20.05 -15.5 19.65 -14.35 L19.1 -13.35 19.15 -12.55 18.9 -10.95 Q18.7 -10.3 18.4 -10.3 18.1 -10.3 17.85 -10.95 L17.65 -12.55 17.65 -12.8 17.45 -12.75 Q17.1 -12.75 16.85 -13.6 L16.65 -15.55 16.65 -16.0 Q16.35 -16.1 16.15 -16.6 L15.95 -17.9 Q15.55 -16.25 15.2 -16.3 L15.25 -15.45 15.0 -14.1 14.5 -13.5 13.95 -14.1 13.75 -15.45 13.85 -16.3 13.5 -16.55 13.4 -16.25 Q13.2 -15.55 12.8 -15.55 12.45 -15.55 12.2 -16.25 11.95 -16.95 11.95 -18.0 L12.0 -18.45 11.7 -18.05 11.55 -18.95 Q14.55 -23.0 17.85 -20.05 18.2 -21.0 18.7 -21.0 19.25 -21.0 19.65 -19.85 L19.9 -18.85" fill="#312c24" fill-opacity="0.47058824" fill-rule="evenodd" stroke="none"/>
    <path d="M26.2 18.25 L26.1 18.25 Q26.2 16.1 25.7 14.15 L25.0 12.25 24.8 13.4 24.4 12.5 25.0 11.1 25.1 11.1 25.2 11.2 25.85 11.7 26.3 12.65 Q26.9 13.75 26.75 15.0 L26.2 18.25 M20.0 11.55 L19.7 13.45 19.45 14.05 Q18.1 16.2 18.5 17.9 L18.45 17.9 18.1 16.0 18.1 15.7 Q18.15 14.2 19.0 12.7 L19.75 10.9 19.75 10.85 20.0 11.55 M20.25 14.65 L20.35 14.4 20.35 14.55 20.25 14.65" fill="#83795c" fill-rule="evenodd" stroke="none"/>
    <path d="M26.1 18.25 L25.95 18.25 25.3 14.6 25.0 13.85 24.8 13.4 25.0 12.25 25.7 14.15 Q26.2 16.1 26.1 18.25" fill="#635a47" fill-rule="evenodd" stroke="none"/>
    <path d="M25.85 11.7 Q26.45 11.95 26.3 10.85 26.9 11.75 27.15 13.35 L27.2 14.05 26.85 16.8 26.2 18.25 26.75 15.0 Q26.9 13.75 26.3 12.65 L25.85 11.7 M20.0 11.55 Q20.25 10.6 20.3 12.6 L20.35 14.4 20.25 14.65 19.6 15.35 18.6 17.9 18.5 17.9 Q18.1 16.2 19.45 14.05 L19.7 13.45 20.0 11.55" fill="#5c4e2e" fill-rule="evenodd" stroke="none"/>
    <path d="M18.1 16.0 L18.0 15.7 Q18.05 13.8 18.75 11.7 L19.45 9.45 19.75 10.9 19.0 12.7 Q18.15 14.2 18.1 15.7 L18.1 16.0" fill="#928467" fill-rule="evenodd" stroke="none"/>
    <path d="M25.0 11.1 L25.1 11.1 M18.6 17.9 L19.6 15.35 20.25 14.65 20.35 14.55 M19.45 9.45 L18.75 11.7 Q18.05 13.8 18.0 15.7 L18.1 16.0 18.45 17.9" ffdec:has-small-stroke="true" ffdec:original-stroke-width="0.05" fill="none" stroke="#484137" stroke-linecap="round" stroke-linejoin="round" stroke-width="1.0"/>
    <path d="M20.2 10.8 Q19.15 11.9 18.55 13.25" ffdec:has-small-stroke="true" ffdec:original-stroke-width="0.5" fill="none" stroke="#605744" stroke-linecap="round" stroke-linejoin="round" stroke-width="1.0"/>
    <path d="M24.85 3.1 L24.9 3.1 25.35 4.7 24.8 5.8 25.2 7.35 25.5 8.1 26.25 10.55 26.35 10.9 Q26.9 11.75 27.15 13.35 L27.2 14.05 26.85 16.8 26.2 18.25 25.95 18.25 25.4 14.95 24.9 15.9 24.75 16.2 22.5 20.05 21.1 22.3 20.6 18.05 20.35 15.9 20.3 15.5 20.2 14.7 19.6 15.35 18.6 17.9 18.45 17.9 18.1 16.0 18.0 15.7 Q18.05 13.8 18.75 11.7 L19.4 9.7 19.8 8.1 20.15 7.15 20.4 6.0 20.35 4.4 21.15 2.8 21.25 -4.15 19.75 -15.95 18.15 -7.15 17.4 0.75 17.6 1.25 18.25 2.4 19.0 4.6 19.05 4.95 Q18.85 6.2 17.9 6.6 L16.1 7.05 12.05 10.65 10.15 12.95 9.15 13.1 9.0 13.15 8.7 13.25 Q8.35 13.35 8.0 13.55 6.75 14.2 5.6 15.6 L6.4 13.4 6.9 12.25 7.0 12.05 6.0 12.4 Q2.85 13.65 0.0 16.05 L1.9 12.4 2.6 11.25 0.0 11.7 2.2 9.85 3.45 8.95 3.8 8.75 3.85 8.75 4.85 8.25 5.2 8.15 7.55 6.65 8.05 6.35 Q9.8 5.35 11.65 4.65 L13.4 1.5 13.75 -5.4 13.7 -5.85 11.5 -18.25 Q12.35 -20.25 12.2 -22.25 L14.9 -22.2 15.0 -22.25 15.8 -19.45 16.15 -18.7 16.2 -18.65 Q16.9 -18.6 17.65 -19.05 L18.6 -20.3 19.45 -20.1 19.6 -20.45 20.5 -19.95 20.5 -19.9 20.1 -17.8 Q21.15 -18.25 22.0 -20.0 L22.8 -20.0 23.35 -21.05 23.35 -21.1 23.6 -21.6 23.65 -21.6 24.95 -21.4 24.95 -21.35 27.55 -20.9 27.6 -20.9 28.3 -18.25 Q28.35 -18.15 28.8 -18.0 L29.45 -17.9 29.5 -17.65 24.9 2.95 24.85 2.95 24.85 3.1" ffdec:has-small-stroke="true" ffdec:original-stroke-width="0.5" fill="none" stroke="#474132" stroke-linecap="round" stroke-linejoin="round" stroke-width="1.0"/>
    <path d="M24.9 2.95 L24.85 3.1" ffdec:has-small-stroke="true" ffdec:original-stroke-width="0.5" fill="none" stroke="#544d3d" stroke-linecap="round" stroke-linejoin="round" stroke-width="1.0"/>
  </g>
</svg>
