<?xml version="1.0" encoding="UTF-8" standalone="no"?>
<svg xmlns:ffdec="https://www.free-decompiler.com/flash" xmlns:xlink="http://www.w3.org/1999/xlink" ffdec:objectType="shape" height="32.5px" width="39.8px" xmlns="http://www.w3.org/2000/svg">
  <g transform="matrix(1.0, 0.0, 0.0, 1.0, -272.75, -186.7)">
    <path d="M309.75 203.0 L312.35 201.1 312.4 201.1 312.5 201.05 312.35 201.2 309.75 203.0 M286.8 205.05 L286.7 205.05 286.7 204.95 286.8 205.05 M286.7 212.55 L286.65 212.55 286.7 212.55 M312.35 201.2 L312.4 201.1 312.35 201.2" fill="#fceebe" fill-rule="evenodd" stroke="none"/>
    <path d="M273.15 190.45 L273.15 190.5 273.1 190.45 273.15 190.45 M286.95 205.1 L286.95 205.0 286.85 205.0 286.8 205.05 286.7 204.95 286.85 205.0 286.9 204.95 286.95 205.0 287.15 205.2 286.95 205.1" fill="#ecba48" fill-rule="evenodd" stroke="none"/>
    <path d="M300.5 191.05 L300.45 190.15 300.25 186.85 300.8 187.85 Q301.9 191.55 300.85 195.2 L300.75 195.1 300.65 195.9 299.7 194.75 300.5 191.05 M277.95 189.9 Q278.5 191.0 280.4 191.25 284.7 193.55 289.4 194.55 L294.9 195.25 298.45 195.25 299.1 196.4 299.2 196.35 299.45 197.25 299.45 197.45 299.4 197.55 Q295.25 198.1 289.85 197.55 L289.5 197.45 Q281.6 196.05 277.05 191.85 L277.0 191.7 Q276.7 190.85 277.7 189.95 L277.9 189.75 277.95 189.9" fill="#9a7010" fill-rule="evenodd" stroke="none"/>
    <path d="M299.7 194.75 L300.65 195.9 300.65 195.95 299.2 196.35 299.15 196.2 299.5 195.1 299.15 196.2 299.2 196.35 299.1 196.4 298.45 195.25 294.9 195.25 289.4 194.55 Q284.7 193.55 280.4 191.25 278.5 191.0 277.95 189.9 L278.1 189.65 277.75 189.7 Q277.85 189.35 278.4 188.9 278.85 188.45 279.45 189.55 L281.2 190.75 281.55 190.95 Q283.85 192.25 286.55 193.2 L289.35 193.95 293.95 194.75 295.0 194.9 298.4 195.05 299.5 195.1 299.7 194.75 M299.4 197.55 L299.45 197.45 299.45 197.25 300.55 197.6 300.45 197.95 300.3 198.6 299.4 201.0 299.2 201.3 298.25 201.7 Q297.35 201.9 297.45 201.0 L297.45 200.85 297.45 200.8 297.6 200.4 298.1 199.0 298.4 198.8 Q299.25 198.25 299.4 197.55 M299.1 196.4 L299.15 196.2 299.1 196.4 M299.15 196.2 L298.45 195.25 299.15 196.2 M278.0 195.45 L278.0 195.5 278.0 195.45 277.45 194.1 277.55 193.7 277.85 192.75 278.4 193.5 278.2 194.5 278.0 195.5 278.0 195.45" fill="#cf9716" fill-rule="evenodd" stroke="none"/>
    <path d="M300.75 195.1 L300.85 195.2 Q302.7 196.65 312.2 200.95 L312.3 200.95 312.45 201.05 312.4 201.1 312.35 201.1 309.75 203.0 Q311.8 201.45 307.65 201.8 L307.25 201.85 307.0 201.9 300.85 198.85 307.0 201.9 Q303.35 202.3 301.8 203.15 300.85 203.65 298.75 204.2 L297.65 204.45 294.9 202.45 297.65 204.45 297.55 204.45 294.5 205.0 294.05 205.05 293.95 205.1 293.75 205.1 Q286.45 203.8 282.45 200.55 L277.9 196.05 273.2 190.5 277.75 189.7 278.1 189.65 277.95 189.9 277.9 189.75 277.7 189.95 Q276.7 190.85 277.0 191.7 L277.05 191.85 277.85 192.75 277.55 193.7 277.45 194.1 278.0 195.45 278.0 195.5 278.95 196.3 278.75 195.2 278.2 194.5 278.4 193.5 279.45 194.85 Q281.45 196.0 283.7 196.85 L286.15 197.75 289.65 201.0 Q290.7 202.85 294.9 202.45 L298.4 203.4 299.9 203.25 301.0 202.4 300.85 198.85 300.3 198.6 300.45 197.95 300.55 197.6 300.7 195.95 300.7 195.7 300.75 195.1 M298.1 193.7 L299.7 194.75 299.5 195.1 298.4 195.05 298.35 195.0 298.4 195.05 295.0 194.9 293.95 194.75 286.85 192.1 Q284.45 192.3 286.55 193.2 283.85 192.25 281.55 190.95 L281.2 190.75 280.1 189.45 281.2 190.75 279.45 189.55 280.1 189.45 283.4 189.15 284.2 189.7 284.35 189.05 290.0 188.5 292.95 190.4 292.75 190.6 293.45 190.7 292.75 190.6 292.95 190.4 293.45 190.7 297.5 193.3 297.5 193.65 296.25 193.05 297.55 194.35 297.7 194.45 297.8 194.5 297.9 194.6 298.35 195.0 298.05 194.0 297.85 193.55 298.1 193.7 298.05 194.0 298.1 193.7 M288.7 189.9 L295.0 194.9 288.7 189.9 M300.7 195.7 L300.85 195.2 300.7 195.7 M277.7 189.95 L277.75 189.7 277.7 189.95 M295.55 199.0 L295.65 199.0 295.65 199.1 295.55 199.0 M297.45 200.8 L297.45 200.85 297.45 200.8 M277.45 194.1 L277.05 193.1 277.55 193.7 277.05 193.1 277.45 194.1 M292.75 204.1 L293.95 205.1 292.75 204.1 M288.75 200.85 L283.7 196.85 288.75 200.85" fill="#cdb874" fill-rule="evenodd" stroke="none"/>
    <path d="M307.0 201.9 L307.25 201.85 307.65 201.8 Q311.8 201.45 309.75 203.0 L312.35 201.2 310.75 206.8 310.75 206.85 Q307.35 209.25 304.85 209.8 L298.85 211.5 296.75 211.9 286.7 212.55 286.65 212.55 286.7 212.35 286.95 205.1 287.15 205.2 286.95 205.0 Q288.75 205.85 293.75 205.1 L293.95 205.1 294.05 205.05 294.5 205.0 297.55 204.45 297.65 204.45 298.75 204.2 Q300.85 203.65 301.8 203.15 303.35 202.3 307.0 201.9 M307.25 201.85 L307.1 204.6 307.25 201.85 M296.75 211.9 L297.55 204.45 296.75 211.9" fill="#ac8b40" fill-rule="evenodd" stroke="none"/>
    <path d="M281.2 204.8 L286.7 212.35 286.65 212.55 286.7 212.55 296.75 211.9 298.85 211.5 304.85 209.8 Q304.0 211.95 304.25 214.4 L304.3 214.9 305.0 215.6 303.1 215.0 302.8 215.4 302.2 214.7 302.5 215.4 302.35 215.25 302.2 215.45 301.8 215.55 301.45 215.45 301.45 215.2 301.15 215.4 301.45 215.2 301.45 215.45 301.15 215.4 300.2 215.55 300.05 215.95 299.85 216.55 299.5 215.65 278.95 219.15 Q279.55 213.25 280.55 208.0 L281.2 204.8 M303.1 215.0 L303.1 214.8 302.8 215.4 303.1 214.8 303.1 215.0 M301.4 215.7 L301.4 215.75 301.35 215.75 301.4 215.7" fill="#615223" fill-rule="evenodd" stroke="none"/>
    <path d="M286.9 204.95 L282.45 200.55 Q286.45 203.8 293.75 205.1 288.75 205.85 286.95 205.0 L286.9 204.95" fill="#e7d992" fill-rule="evenodd" stroke="none"/>
    <path d="M273.15 190.5 L273.2 190.5 277.9 196.05 282.45 200.55 286.9 204.95 286.85 205.0 286.95 205.0 286.95 205.1 286.7 212.35 281.2 204.8 280.35 204.15 276.9 201.25 272.8 197.6 Q272.7 190.55 273.1 190.45 L273.15 190.5 M286.8 205.05 L286.85 205.0 286.7 204.95 286.7 205.05 286.8 205.05" fill="#857230" fill-rule="evenodd" stroke="none"/>
    <path d="M276.9 201.25 L280.35 204.15 281.2 204.8 280.55 208.0 Q279.55 213.25 278.95 219.15 L278.25 218.4 277.2 218.4 277.85 218.0 274.3 214.25 Q274.3 215.3 273.85 213.85 271.6 214.35 274.15 213.6 275.7 213.35 276.5 205.3 L276.9 201.25 M279.5 206.95 L280.35 204.15 279.5 206.95 M278.6 212.0 L278.25 217.65 278.6 212.0 M275.45 214.75 L277.0 208.7 275.45 214.75" fill="#7c642e" fill-rule="evenodd" stroke="none"/>
    <path d="M297.5 193.65 L297.55 194.35 296.25 193.05 297.5 193.65 M297.9 194.6 L298.05 194.0 298.35 195.0 297.9 194.6 M278.0 195.5 L278.2 194.5 278.75 195.2 278.95 196.3 278.0 195.5 M297.6 200.4 L297.45 200.8 295.65 199.1 297.6 200.4 M298.25 201.7 L299.2 201.3 299.4 201.0 300.1 203.0 298.25 201.7" fill="#b69343" fill-rule="evenodd" stroke="none"/>
    <path d="M299.2 196.35 L300.65 195.95 300.7 195.95 300.55 197.6 299.45 197.25 299.2 196.35" fill="#b47714" fill-rule="evenodd" stroke="none"/>
    <path d="M300.25 186.85 L300.45 190.15 298.75 189.95 298.0 189.9 297.75 193.55 297.85 193.55 298.05 194.0 297.9 194.6 297.8 194.5 297.7 194.45 297.55 194.35 297.5 193.65 297.5 193.3 297.55 193.35 297.5 192.95 Q297.3 191.3 297.5 189.85 297.65 188.15 298.3 186.75 L300.25 186.85" fill="#996511" fill-rule="evenodd" stroke="none"/>
    <path d="M300.45 190.15 L300.5 191.05 298.75 189.95 300.45 190.15 M297.85 193.55 L297.75 193.55 298.0 189.9 298.75 189.95 298.1 193.7 297.85 193.55 M277.05 191.85 Q281.6 196.05 289.5 197.45 L289.85 197.55 Q295.25 198.1 299.4 197.55 299.25 198.25 298.4 198.8 L298.1 199.0 295.65 199.0 295.55 199.0 286.1 197.7 286.15 197.75 283.7 196.85 Q281.45 196.0 279.45 194.85 L278.4 193.5 277.85 192.75 277.05 191.85" fill="#7d530d" fill-rule="evenodd" stroke="none"/>
    <path d="M286.55 193.2 Q284.45 192.3 286.85 192.1 L293.95 194.75 289.35 193.95 286.55 193.2 M300.3 198.6 L300.85 198.85 301.0 202.4 299.9 203.25 298.4 203.4 294.9 202.45 Q290.7 202.85 289.65 201.0 L286.15 197.75 286.1 197.7 295.55 199.0 295.65 199.1 295.65 199.0 298.1 199.0 297.6 200.4 295.65 199.1 297.45 200.8 297.45 200.85 297.45 201.0 Q297.35 201.9 298.25 201.7 L300.1 203.0 299.4 201.0 300.3 198.6" fill="#c5a65f" fill-rule="evenodd" stroke="none"/>
    <path d="M300.45 190.15 L300.5 191.05 299.7 194.75 300.65 195.9 300.75 195.1 300.85 195.2 Q301.9 191.55 300.8 187.85 L300.25 186.85 300.45 190.15 M298.75 189.95 L300.5 191.05 M298.75 189.95 L298.1 193.7 299.7 194.75 299.5 195.1 299.15 196.2 299.2 196.35 300.65 195.95 300.7 195.95 300.55 197.6 299.45 197.25 299.2 196.35 299.1 196.4 298.45 195.25 294.9 195.25 289.4 194.55 Q284.7 193.55 280.4 191.25 278.5 191.0 277.95 189.9 L277.9 189.75 277.7 189.95 Q276.7 190.85 277.0 191.7 M300.65 195.9 L300.7 195.7 300.85 195.2 Q302.7 196.65 312.2 200.95 L312.3 200.95 312.45 201.05 312.4 201.1 312.5 201.05 312.45 201.05 M300.25 186.85 L298.3 186.75 Q297.65 188.15 297.5 189.85 297.3 191.3 297.5 192.95 L297.55 193.35 297.5 193.3 297.5 193.65 297.55 194.35 297.7 194.45 297.8 194.5 297.9 194.6 298.05 194.0 298.35 195.0 298.4 195.05 299.5 195.1 M297.85 193.55 L298.1 193.7 298.05 194.0 M292.95 190.4 L292.75 190.6 293.45 190.7 297.5 193.3 297.5 192.95 M292.95 190.4 L290.0 188.5 284.35 189.05 284.2 189.7 283.4 189.15 280.1 189.45 281.2 190.75 281.55 190.95 Q283.85 192.25 286.55 193.2 L289.35 193.95 293.95 194.75 295.0 194.9 288.7 189.9 M297.5 193.65 L296.25 193.05 297.55 194.35 M299.4 197.55 L299.45 197.45 299.45 197.25 M299.15 196.2 L299.1 196.4 M300.55 197.6 L300.45 197.95 300.3 198.6 300.85 198.85 307.0 201.9 M298.1 199.0 L298.4 198.8 Q299.25 198.25 299.4 197.55 M297.9 194.6 L298.35 195.0 M298.45 195.25 L299.15 196.2 M298.4 195.05 L295.0 194.9 M279.45 189.55 L280.1 189.45 M279.45 189.55 Q278.85 188.45 278.4 188.9 277.85 189.35 277.75 189.7 L278.1 189.65 277.95 189.9 M277.75 189.7 L277.7 189.95 M273.15 190.45 L273.15 190.5 273.2 190.5 273.15 190.45 273.1 190.45 Q272.7 190.55 272.8 197.6 L276.9 201.25 280.35 204.15 281.2 204.8 286.7 212.35 286.95 205.1 M278.0 195.5 L278.0 195.45 278.0 195.5 278.2 194.5 278.4 193.5 277.85 192.75 277.55 193.7 277.45 194.1 278.0 195.45 M278.4 193.5 L279.45 194.85 Q281.45 196.0 283.7 196.85 L286.15 197.75 286.1 197.7 295.55 199.0 295.65 199.0 298.1 199.0 297.6 200.4 297.45 200.8 297.45 200.85 297.45 201.0 Q297.35 201.9 298.25 201.7 L299.2 201.3 299.4 201.0 300.3 198.6 M278.0 195.5 L278.95 196.3 278.75 195.2 278.2 194.5 M277.55 193.7 L277.05 193.1 277.45 194.1 M273.2 190.5 L277.75 189.7 M282.45 200.55 L277.9 196.05 273.2 190.5 M286.95 205.0 L286.85 205.0 286.7 204.95 286.7 205.05 M286.9 204.95 L282.45 200.55 M293.75 205.1 L293.95 205.1 292.75 204.1 M277.05 191.85 L277.85 192.75 M281.2 190.75 L279.45 189.55 M286.9 204.95 L286.95 205.0 287.15 205.2 M278.95 219.15 Q279.55 213.25 280.55 208.0 L281.2 204.8 M280.35 204.15 L279.5 206.95 M276.9 201.25 L276.5 205.3 Q275.7 213.35 274.15 213.6 271.6 214.35 273.85 213.85 274.3 215.3 274.3 214.25 L277.85 218.0 277.2 218.4 278.25 218.4 M278.95 219.15 L299.5 215.65 299.85 216.55 300.05 215.95 300.2 215.55 301.15 215.4 301.45 215.2 301.45 215.45 301.8 215.55 302.2 215.45 302.35 215.25 302.5 215.4 302.2 214.7 302.8 215.4 303.1 214.8 303.1 215.0 305.0 215.6 304.3 214.9 304.25 214.4 Q304.0 211.95 304.85 209.8 L298.85 211.5 296.75 211.9 286.7 212.55 286.65 212.55 286.7 212.35 M278.25 217.65 L278.6 212.0 M277.0 208.7 L275.45 214.75 M312.5 201.05 L312.4 201.1 312.35 201.2 310.75 206.8 310.75 206.85 Q307.35 209.25 304.85 209.8 M307.1 204.6 L307.25 201.85 M294.9 202.45 L297.65 204.45 M297.45 200.85 L297.45 200.8 295.65 199.1 295.55 199.0 M297.6 200.4 L295.65 199.1 M297.55 204.45 L296.75 211.9 M298.25 201.7 L300.1 203.0 299.4 201.0 M294.05 205.05 L293.95 205.1 M300.05 215.95 L300.2 215.6 300.2 215.55 M302.8 215.4 L303.1 215.0 M301.45 215.45 L301.15 215.4 M283.7 196.85 L288.75 200.85" ffdec:has-small-stroke="true" ffdec:original-stroke-width="0.1" fill="none" stroke="#28383e" stroke-linecap="round" stroke-linejoin="round" stroke-opacity="0.5019608" stroke-width="1.0"/>
  </g>
</svg>
