<?xml version="1.0" encoding="UTF-8" standalone="no"?>
<svg xmlns:ffdec="https://www.free-decompiler.com/flash" xmlns:xlink="http://www.w3.org/1999/xlink" ffdec:objectType="shape" height="32.5px" width="39.8px" xmlns="http://www.w3.org/2000/svg">
  <g transform="matrix(1.0, 0.0, 0.0, 1.0, 58.25, 61.65)">
    <path d="M-21.25 -45.35 L-18.65 -47.25 -18.6 -47.25 -18.5 -47.3 -18.65 -47.15 -21.25 -45.35 M-44.2 -43.3 L-44.3 -43.3 -44.3 -43.4 -44.2 -43.3 M-44.3 -35.8 L-44.35 -35.8 -44.3 -35.8 M-18.65 -47.15 L-18.6 -47.25 -18.65 -47.15" fill="#fceebe" fill-rule="evenodd" stroke="none"/>
    <path d="M-57.85 -57.9 L-57.85 -57.85 -57.9 -57.9 -57.85 -57.9 M-44.05 -43.25 L-44.05 -43.35 -44.15 -43.35 -44.2 -43.3 -44.3 -43.4 -44.15 -43.35 -44.1 -43.4 -44.05 -43.35 -43.85 -43.15 -44.05 -43.25" fill="#ecba48" fill-rule="evenodd" stroke="none"/>
    <path d="M-31.8 -52.0 L-31.9 -51.95 -32.55 -53.1 -31.85 -52.15 -31.8 -52.0 M-31.9 -51.95 L-31.85 -52.15 -31.9 -51.95 M-53.0 -52.85 L-53.0 -52.9 -53.0 -52.85 -53.0 -52.9 -53.0 -52.85" fill="#cf9716" fill-rule="evenodd" stroke="none"/>
    <path d="M-32.9 -54.65 L-31.3 -53.6 -31.5 -53.25 -32.6 -53.3 -32.65 -53.35 -32.6 -53.3 -36.0 -53.45 -37.05 -53.6 -44.15 -56.25 Q-46.55 -56.05 -44.45 -55.15 -47.15 -56.1 -49.45 -57.4 L-49.8 -57.6 -50.9 -58.9 -49.8 -57.6 -51.55 -58.8 -50.9 -58.9 -47.6 -59.2 -46.8 -58.65 -46.65 -59.3 -41.0 -59.85 -38.05 -57.95 -38.25 -57.75 -37.55 -57.65 -38.25 -57.75 -38.05 -57.95 -37.55 -57.65 -33.5 -55.05 -33.5 -54.7 -34.75 -55.3 -33.45 -54.0 -33.3 -53.9 -33.2 -53.85 -33.1 -53.75 -32.65 -53.35 -32.95 -54.35 -32.9 -54.65 -32.95 -54.35 -33.15 -54.8 -32.9 -54.65 M-30.25 -53.25 L-30.15 -53.15 Q-28.3 -51.7 -18.8 -47.4 L-18.7 -47.4 -18.55 -47.3 -18.6 -47.25 -18.65 -47.25 -21.25 -45.35 Q-19.2 -46.9 -23.35 -46.55 L-23.75 -46.5 -24.0 -46.45 -30.15 -49.5 -24.0 -46.45 Q-27.65 -46.05 -29.2 -45.2 -30.15 -44.7 -32.25 -44.15 L-33.35 -43.9 -36.1 -45.9 -33.35 -43.9 -33.45 -43.9 -36.5 -43.35 -36.95 -43.3 -37.05 -43.25 -37.25 -43.25 Q-44.55 -44.55 -48.55 -47.8 L-53.1 -52.3 -57.8 -57.85 -53.25 -58.65 -52.9 -58.7 -53.05 -58.45 -53.1 -58.6 -53.3 -58.4 Q-54.3 -57.5 -54.0 -56.65 L-53.95 -56.5 -53.15 -55.6 -53.45 -54.65 -53.95 -55.25 -53.55 -54.25 -53.95 -55.25 -53.45 -54.65 -53.55 -54.25 -53.0 -52.9 -53.0 -52.85 -52.05 -52.05 -52.25 -53.15 -52.8 -53.85 -52.6 -54.85 -51.55 -53.5 Q-49.55 -52.35 -47.3 -51.5 L-44.85 -50.6 -41.35 -47.35 Q-40.3 -45.5 -36.1 -45.9 L-32.6 -44.95 -31.1 -45.1 -30.0 -45.95 -30.15 -49.5 -30.7 -49.75 -30.55 -50.4 -30.45 -50.75 Q-30.3 -51.6 -30.3 -52.4 L-30.3 -52.65 -30.25 -53.25 M-42.3 -58.45 L-36.0 -53.45 -42.3 -58.45 M-30.3 -52.65 L-30.15 -53.15 -30.3 -52.65 M-53.3 -58.4 L-53.25 -58.65 -53.3 -58.4 M-35.45 -49.35 L-35.35 -49.35 -35.35 -49.25 -35.45 -49.35 M-33.55 -47.55 L-33.55 -47.5 -33.55 -47.55 M-38.25 -44.25 L-37.05 -43.25 -38.25 -44.25 M-42.25 -47.5 L-47.3 -51.5 -42.25 -47.5" fill="#cdb874" fill-rule="evenodd" stroke="none"/>
    <path d="M-24.0 -46.45 L-23.75 -46.5 -23.35 -46.55 Q-19.2 -46.9 -21.25 -45.35 L-18.65 -47.15 -20.25 -41.55 -20.25 -41.5 Q-23.65 -39.1 -26.15 -38.55 -27.65 -37.85 -32.15 -36.85 L-34.25 -36.45 -44.3 -35.8 -44.35 -35.8 -44.3 -36.0 -44.05 -43.25 -43.85 -43.15 -44.05 -43.35 Q-42.25 -42.5 -37.25 -43.25 L-37.05 -43.25 -36.95 -43.3 -36.5 -43.35 -33.45 -43.9 -33.35 -43.9 -32.25 -44.15 Q-30.15 -44.7 -29.2 -45.2 -27.65 -46.05 -24.0 -46.45 M-23.75 -46.5 L-23.9 -43.75 -23.75 -46.5 M-34.25 -36.45 L-33.45 -43.9 -34.25 -36.45" fill="#ac8b40" fill-rule="evenodd" stroke="none"/>
    <path d="M-49.8 -43.55 L-44.3 -36.0 -44.35 -35.8 -44.3 -35.8 -34.25 -36.45 -32.15 -36.85 Q-27.65 -37.85 -26.15 -38.55 -27.0 -36.4 -26.75 -33.95 L-26.7 -33.45 -26.0 -32.75 -27.9 -33.35 -28.2 -32.95 -28.8 -33.65 -28.5 -32.95 -28.65 -33.1 -28.8 -32.9 -29.2 -32.8 -29.55 -32.9 -29.55 -33.15 -29.85 -32.95 -29.55 -33.15 -29.55 -32.9 -29.85 -32.95 -30.8 -32.8 -30.95 -32.4 -31.15 -31.8 -31.5 -32.7 -52.05 -29.2 Q-51.45 -35.1 -50.45 -40.35 L-49.8 -43.55 M-27.9 -33.35 L-27.9 -33.55 -28.2 -32.95 -27.9 -33.55 -27.9 -33.35 M-29.6 -32.65 L-29.6 -32.6 -29.65 -32.6 -29.6 -32.65" fill="#615223" fill-rule="evenodd" stroke="none"/>
    <path d="M-44.1 -43.4 L-48.55 -47.8 Q-44.55 -44.55 -37.25 -43.25 -42.25 -42.5 -44.05 -43.35 L-44.1 -43.4" fill="#e7d992" fill-rule="evenodd" stroke="none"/>
    <path d="M-57.85 -57.85 L-57.8 -57.85 -53.1 -52.3 -48.55 -47.8 -44.1 -43.4 -44.15 -43.35 -44.05 -43.35 -44.05 -43.25 -44.3 -36.0 -49.8 -43.55 -50.65 -44.2 -54.1 -47.1 -58.2 -50.75 Q-58.3 -57.8 -57.9 -57.9 L-57.85 -57.85 M-44.2 -43.3 L-44.15 -43.35 -44.3 -43.4 -44.3 -43.3 -44.2 -43.3" fill="#857230" fill-rule="evenodd" stroke="none"/>
    <path d="M-54.1 -47.1 L-50.65 -44.2 -49.8 -43.55 -50.45 -40.35 Q-51.45 -35.1 -52.05 -29.2 L-52.75 -29.95 -53.8 -29.95 -53.15 -30.35 -55.9 -33.25 -56.7 -34.1 Q-56.7 -33.05 -57.15 -34.5 -59.4 -34.0 -56.85 -34.75 -55.3 -35.0 -54.5 -43.05 L-54.1 -47.1 M-51.5 -41.4 L-50.65 -44.2 -51.5 -41.4 M-54.0 -39.65 L-55.9 -33.25 -54.0 -39.65 M-52.4 -36.35 L-52.75 -30.7 -52.4 -36.35" fill="#7c642e" fill-rule="evenodd" stroke="none"/>
    <path d="M-32.95 -54.35 L-32.65 -53.35 -33.1 -53.75 -32.95 -54.35 M-33.5 -54.7 L-33.45 -54.0 -34.75 -55.3 -33.5 -54.7 M-52.8 -53.85 L-52.25 -53.15 -52.05 -52.05 -53.0 -52.85 -53.0 -52.9 -52.8 -53.85 M-33.4 -47.95 L-33.55 -47.55 -35.35 -49.25 -33.4 -47.95 M-32.75 -46.65 L-31.8 -47.05 -31.6 -47.35 -30.9 -45.35 -32.75 -46.65" fill="#b69343" fill-rule="evenodd" stroke="none"/>
    <path d="M-30.5 -57.3 L-32.25 -58.4 -32.9 -54.65 -33.15 -54.8 -33.25 -54.8 -33.0 -58.45 -32.25 -58.4 -30.55 -58.2 -30.5 -57.3" fill="#7d530d" fill-rule="evenodd" stroke="none"/>
    <path d="M-44.45 -55.15 Q-46.55 -56.05 -44.15 -56.25 L-37.05 -53.6 -41.65 -54.4 -44.45 -55.15 M-30.7 -49.75 L-30.15 -49.5 -30.0 -45.95 -31.1 -45.1 -32.6 -44.95 -36.1 -45.9 Q-40.3 -45.5 -41.35 -47.35 L-44.85 -50.6 -44.9 -50.65 -35.45 -49.35 -35.35 -49.25 -35.35 -49.35 -32.9 -49.35 -33.4 -47.95 -35.35 -49.25 -33.55 -47.55 -33.55 -47.5 -33.55 -47.35 Q-33.65 -46.45 -32.75 -46.65 L-30.9 -45.35 -31.6 -47.35 Q-31.0 -48.55 -30.7 -49.75" fill="#c5a65f" fill-rule="evenodd" stroke="none"/>
    <path d="M-32.55 -53.1 L-31.9 -51.95 -31.8 -52.0 Q-31.55 -51.55 -31.55 -51.1 L-31.55 -50.9 -31.6 -50.8 Q-35.75 -50.25 -41.15 -50.8 L-41.5 -50.9 Q-49.4 -52.3 -53.95 -56.5 L-54.0 -56.65 Q-54.3 -57.5 -53.3 -58.4 L-53.1 -58.6 -53.05 -58.45 Q-52.5 -57.35 -50.6 -57.1 -46.3 -54.8 -41.6 -53.8 L-36.1 -53.1 -32.55 -53.1" fill="#e7bb92" fill-opacity="0.9607843" fill-rule="evenodd" stroke="none"/>
    <path d="M-32.6 -53.3 L-31.5 -53.25 -31.85 -52.15 -32.55 -53.1 -36.1 -53.1 -41.6 -53.8 Q-46.3 -54.8 -50.6 -57.1 -52.5 -57.35 -53.05 -58.45 L-52.9 -58.7 -53.25 -58.65 -52.6 -59.45 Q-52.15 -59.9 -51.55 -58.8 L-49.8 -57.6 -49.45 -57.4 Q-47.15 -56.1 -44.45 -55.15 L-41.65 -54.4 -37.05 -53.6 -36.0 -53.45 -32.6 -53.3" fill="#eed1b5" fill-opacity="0.9607843" fill-rule="evenodd" stroke="none"/>
    <path d="M-31.3 -53.6 L-30.5 -57.3 -30.55 -58.2 -30.75 -61.5 -30.2 -60.5 Q-29.1 -56.8 -30.15 -53.15 L-30.25 -53.25 -30.35 -52.45 -31.3 -53.6" fill="#da995a" fill-opacity="0.9607843" fill-rule="evenodd" stroke="none"/>
    <path d="M-30.55 -58.2 L-32.25 -58.4 -33.0 -58.45 -33.25 -54.8 -33.15 -54.8 -32.95 -54.35 -33.1 -53.75 -33.2 -53.85 -33.3 -53.9 -33.45 -54.0 -33.5 -54.7 -33.5 -55.05 -33.45 -55.0 -33.5 -55.4 Q-33.7 -57.05 -33.5 -58.5 -33.35 -60.2 -32.7 -61.6 L-30.75 -61.5 -30.55 -58.2 M-53.0 -52.9 L-53.55 -54.25 -53.45 -54.65 -53.15 -55.6 -52.6 -54.85 -52.8 -53.85 -53.0 -52.9" fill="#d08133" fill-opacity="0.9607843" fill-rule="evenodd" stroke="none"/>
    <path d="M-31.5 -53.25 L-31.3 -53.6 -30.35 -52.45 -30.35 -52.4 -31.8 -52.0 -31.85 -52.15 -31.5 -53.25 M-31.6 -50.8 L-31.55 -50.9 -31.55 -51.1 -30.45 -50.75 -30.55 -50.4 -30.7 -49.75 Q-31.0 -48.55 -31.6 -47.35 L-31.8 -47.05 -32.75 -46.65 Q-33.65 -46.45 -33.55 -47.35 L-33.55 -47.5 -33.55 -47.55 -33.4 -47.95 -32.9 -49.35 -32.6 -49.55 Q-31.75 -50.1 -31.6 -50.8" fill="#dca065" fill-opacity="0.9607843" fill-rule="evenodd" stroke="none"/>
    <path d="M-53.95 -56.5 Q-49.4 -52.3 -41.5 -50.9 L-41.15 -50.8 Q-35.75 -50.25 -31.6 -50.8 -31.75 -50.1 -32.6 -49.55 L-32.9 -49.35 -35.35 -49.35 -35.45 -49.35 -44.9 -50.65 -44.85 -50.6 -47.3 -51.5 Q-49.55 -52.35 -51.55 -53.5 L-52.6 -54.85 -53.15 -55.6 -53.95 -56.5 M-31.55 -51.1 Q-31.55 -51.55 -31.8 -52.0 L-30.35 -52.4 -30.3 -52.4 Q-30.3 -51.6 -30.45 -50.75 L-31.55 -51.1" fill="#d58b42" fill-opacity="0.9607843" fill-rule="evenodd" stroke="none"/>
    <path d="M-30.5 -57.3 L-32.25 -58.4 -32.9 -54.65 -31.3 -53.6 -30.5 -57.3 -30.55 -58.2 -30.75 -61.5 -32.7 -61.6 Q-33.35 -60.2 -33.5 -58.5 -33.7 -57.05 -33.5 -55.4 L-33.45 -55.0 -33.5 -55.05 -33.5 -54.7 -33.45 -54.0 -33.3 -53.9 -33.2 -53.85 -33.1 -53.75 -32.95 -54.35 -32.65 -53.35 -32.6 -53.3 -31.5 -53.25 -31.3 -53.6 -30.35 -52.45 -30.25 -53.25 -30.15 -53.15 Q-29.1 -56.8 -30.2 -60.5 L-30.75 -61.5 M-33.15 -54.8 L-32.9 -54.65 -32.95 -54.35 M-38.05 -57.95 L-38.25 -57.75 -37.55 -57.65 -33.5 -55.05 -33.5 -55.4 M-38.05 -57.95 L-41.0 -59.85 -46.65 -59.3 -46.8 -58.65 -47.6 -59.2 -50.9 -58.9 -49.8 -57.6 -49.45 -57.4 Q-47.15 -56.1 -44.45 -55.15 L-41.65 -54.4 -37.05 -53.6 -36.0 -53.45 -42.3 -58.45 M-33.5 -54.7 L-34.75 -55.3 -33.45 -54.0 M-31.8 -52.0 L-31.9 -51.95 -32.55 -53.1 -36.1 -53.1 -41.6 -53.8 Q-46.3 -54.8 -50.6 -57.1 -52.5 -57.35 -53.05 -58.45 L-53.1 -58.6 -53.3 -58.4 Q-54.3 -57.5 -54.0 -56.65 M-31.6 -50.8 L-31.55 -50.9 -31.55 -51.1 Q-31.55 -51.55 -31.8 -52.0 L-31.85 -52.15 -31.9 -51.95 M-30.45 -50.75 L-30.55 -50.4 -30.7 -49.75 -30.15 -49.5 -24.0 -46.45 M-18.6 -47.25 L-18.55 -47.3 -18.7 -47.4 -18.8 -47.4 Q-28.3 -51.7 -30.15 -53.15 L-30.3 -52.65 -30.35 -52.45 M-30.3 -52.4 Q-30.3 -51.6 -30.45 -50.75 L-31.55 -51.1 M-32.9 -49.35 L-32.6 -49.55 Q-31.75 -50.1 -31.6 -50.8 M-33.1 -53.75 L-32.65 -53.35 M-31.85 -52.15 L-31.5 -53.25 M-32.55 -53.1 L-31.85 -52.15 M-32.6 -53.3 L-36.0 -53.45 M-30.3 -52.4 L-30.35 -52.4 -31.8 -52.0 M-51.55 -58.8 L-50.9 -58.9 M-51.55 -58.8 Q-52.15 -59.9 -52.6 -59.45 L-53.25 -58.65 -52.9 -58.7 -53.05 -58.45 M-53.25 -58.65 L-53.3 -58.4 M-57.85 -57.9 L-57.85 -57.85 -57.8 -57.85 -57.85 -57.9 -57.9 -57.9 Q-58.3 -57.8 -58.2 -50.75 L-54.1 -47.1 -50.65 -44.2 -49.8 -43.55 -44.3 -36.0 -44.05 -43.25 M-53.0 -52.9 L-53.0 -52.85 -53.0 -52.9 -53.55 -54.25 -53.95 -55.25 -53.45 -54.65 -53.15 -55.6 -53.95 -56.5 M-53.0 -52.85 L-52.05 -52.05 -52.25 -53.15 -52.8 -53.85 -53.0 -52.9 -53.0 -52.85 M-52.6 -54.85 L-51.55 -53.5 Q-49.55 -52.35 -47.3 -51.5 L-44.85 -50.6 -44.9 -50.65 -35.45 -49.35 -35.35 -49.35 -32.9 -49.35 -33.4 -47.95 -33.55 -47.55 -33.55 -47.5 -33.55 -47.35 Q-33.65 -46.45 -32.75 -46.65 L-31.8 -47.05 -31.6 -47.35 Q-31.0 -48.55 -30.7 -49.75 M-52.8 -53.85 L-52.6 -54.85 -53.15 -55.6 M-53.45 -54.65 L-53.55 -54.25 M-57.8 -57.85 L-53.25 -58.65 M-48.55 -47.8 L-53.1 -52.3 -57.8 -57.85 M-44.05 -43.35 L-44.15 -43.35 -44.3 -43.4 -44.3 -43.3 M-44.1 -43.4 L-48.55 -47.8 M-37.25 -43.25 L-37.05 -43.25 -38.25 -44.25 M-49.8 -57.6 L-51.55 -58.8 M-44.1 -43.4 L-44.05 -43.35 -43.85 -43.15 M-52.05 -29.2 Q-51.45 -35.1 -50.45 -40.35 L-49.8 -43.55 M-50.65 -44.2 L-51.5 -41.4 M-54.1 -47.1 L-54.5 -43.05 Q-55.3 -35.0 -56.85 -34.75 -59.4 -34.0 -57.15 -34.5 -56.7 -33.05 -56.7 -34.1 L-55.9 -33.25 -54.0 -39.65 M-52.05 -29.2 L-31.5 -32.7 -31.15 -31.8 -30.95 -32.4 -30.8 -32.8 -29.85 -32.95 -29.55 -33.15 -29.55 -32.9 -29.2 -32.8 -28.8 -32.9 -28.65 -33.1 -28.5 -32.95 -28.8 -33.65 -28.2 -32.95 -27.9 -33.55 -27.9 -33.35 -26.0 -32.75 -26.7 -33.45 -26.75 -33.95 Q-27.0 -36.4 -26.15 -38.55 -27.65 -37.85 -32.15 -36.85 L-34.25 -36.45 -44.3 -35.8 -44.35 -35.8 -44.3 -36.0 M-55.9 -33.25 L-53.15 -30.35 -53.8 -29.95 -52.75 -29.95 M-52.75 -30.7 L-52.4 -36.35 M-18.6 -47.25 L-18.5 -47.3 -18.55 -47.3 M-18.5 -47.3 L-18.6 -47.25 -18.65 -47.15 -20.25 -41.55 -20.25 -41.5 Q-23.65 -39.1 -26.15 -38.55 M-23.9 -43.75 L-23.75 -46.5 M-36.1 -45.9 L-33.35 -43.9 M-33.55 -47.5 L-33.55 -47.55 -35.35 -49.25 -35.45 -49.35 M-33.4 -47.95 L-35.35 -49.25 M-33.45 -43.9 L-34.25 -36.45 M-32.75 -46.65 L-30.9 -45.35 -31.6 -47.35 M-36.95 -43.3 L-37.05 -43.25 M-30.95 -32.4 L-30.8 -32.75 -30.8 -32.8 M-28.2 -32.95 L-27.9 -33.35 M-29.55 -32.9 L-29.85 -32.95 M-47.3 -51.5 L-42.25 -47.5" ffdec:has-small-stroke="true" ffdec:original-stroke-width="0.1" fill="none" stroke="#28383e" stroke-linecap="round" stroke-linejoin="round" stroke-opacity="0.5019608" stroke-width="1.0"/>
  </g>
</svg>
