<?xml version="1.0" encoding="UTF-8" standalone="no"?>
<svg xmlns:ffdec="https://www.free-decompiler.com/flash" xmlns:xlink="http://www.w3.org/1999/xlink" ffdec:objectType="shape" height="108.95px" width="136.75px" xmlns="http://www.w3.org/2000/svg">
  <g transform="matrix(1.0, 0.0, 0.0, 1.0, 68.35, 54.45)">
    <path d="M-27.6 -22.9 Q-25.95 -19.7 -26.65 -17.15 -19.3 -12.95 -17.25 -4.65 -3.65 -10.5 6.5 -0.6 9.95 -7.35 17.1 -4.65 20.45 -8.6 24.15 -11.15 23.05 -16.15 24.9 -19.2 21.3 -28.95 12.1 -19.85 9.2 -31.15 -3.55 -26.9 -17.45 -31.45 -27.6 -22.9 M60.05 -26.0 Q65.25 -9.7 53.25 -10.6 61.0 -0.05 44.3 3.85 36.55 16.1 24.0 14.35 12.2 28.3 -3.05 19.05 -30.8 31.4 -32.4 11.0 -58.95 22.3 -63.9 1.3 L-62.35 -1.1 Q-78.9 -25.4 -47.4 -34.15 -40.55 -59.65 -9.1 -49.4 5.75 -61.0 25.2 -45.85 49.35 -53.15 49.85 -29.45 55.95 -28.1 60.05 -26.0" fill="#acc840" fill-rule="evenodd" stroke="none"/>
    <path d="M-63.9 1.3 Q-58.95 22.3 -32.4 11.0 -30.8 31.4 -3.05 19.05 12.2 28.3 24.0 14.35 36.55 16.1 44.3 3.85 61.0 -0.05 53.25 -10.6 65.25 -9.7 60.05 -26.0 75.1 -18.35 63.0 -1.0 62.0 17.15 51.0 17.0 51.5 43.75 27.05 35.95 16.85 55.25 -2.7 47.75 -9.9 60.55 -31.35 49.15 -54.45 60.4 -56.35 35.25 -75.65 20.7 -63.9 1.3" fill="#ffcc00" fill-rule="evenodd" stroke="none"/>
    <path d="M24.9 -19.2 Q23.05 -16.15 24.15 -11.15 20.45 -8.6 17.1 -4.65 9.95 -7.35 6.5 -0.6 -3.65 -10.5 -17.25 -4.65 -19.3 -12.95 -26.65 -17.15 -25.95 -19.7 -27.6 -22.9 -17.45 -31.45 -3.55 -26.9 9.2 -31.15 12.1 -19.85 21.3 -28.95 24.9 -19.2" fill="#957700" fill-rule="evenodd" stroke="none"/>
    <path d="M-27.6 -22.9 Q-25.95 -19.7 -26.65 -17.15 -19.3 -12.95 -17.25 -4.65 -3.65 -10.5 6.5 -0.6 9.95 -7.35 17.1 -4.65 20.45 -8.6 24.15 -11.15 23.05 -16.15 24.9 -19.2 M-63.9 1.3 Q-75.65 20.7 -56.35 35.25 -54.45 60.4 -31.35 49.15 -9.9 60.55 -2.7 47.75 16.85 55.25 27.05 35.95 51.5 43.75 51.0 17.0 62.0 17.15 63.0 -1.0 75.1 -18.35 60.05 -26.0 55.95 -28.1 49.85 -29.45 49.35 -53.15 25.2 -45.85 5.75 -61.0 -9.1 -49.4 -40.55 -59.65 -47.4 -34.15 -78.9 -25.4 -62.35 -1.1 L-63.9 1.3 Z" ffdec:has-small-stroke="true" ffdec:original-stroke-width="0.05" fill="none" stroke="#000000" stroke-linecap="round" stroke-linejoin="round" stroke-opacity="0.56078434" stroke-width="1.0"/>
  </g>
</svg>
