<?xml version="1.0" encoding="UTF-8" standalone="no"?>
<svg xmlns:ffdec="https://www.free-decompiler.com/flash" xmlns:xlink="http://www.w3.org/1999/xlink" ffdec:objectType="shape" height="90.6px" width="165.7px" xmlns="http://www.w3.org/2000/svg">
  <g transform="matrix(1.0, 0.0, 0.0, 1.0, 82.85, 45.3)">
    <path d="M63.85 11.85 L63.8 11.85 63.85 11.85 M-63.2 -10.8 L-62.25 -10.5 -62.25 -10.45 -63.2 -10.8 M-38.4 -25.0 L-37.55 -24.8 -37.55 -24.75 -38.4 -25.0 M5.85 30.75 L5.9 30.75 5.85 30.75" fill="#ffd95b" fill-rule="evenodd" stroke="none"/>
    <path d="M80.35 -36.85 Q82.35 -31.3 82.85 -24.6 L80.2 -12.1 80.05 -12.75 81.15 -8.0 71.85 6.7 63.85 11.85 63.8 11.85 63.9 13.1 Q49.05 24.2 30.05 30.25 L30.2 33.1 Q17.35 39.0 3.3 43.1 -20.8 46.3 -45.5 44.85 L-41.7 34.7 -38.85 34.75 Q-18.65 35.0 3.3 31.7 L7.0 36.85 5.9 30.75 Q17.95 26.15 29.55 20.4 L29.7 23.4 Q50.45 13.45 62.65 0.85 L62.95 3.6 Q73.25 -4.85 78.5 -19.3 L76.05 -19.8 Q80.1 -26.45 80.35 -36.85 M-53.75 44.05 Q-57.5 43.45 -59.75 42.55 L-58.15 32.0 -51.55 32.95 -53.75 44.05 M-70.45 37.0 Q-76.0 33.1 -79.9 27.65 L-79.4 18.85 Q-77.9 20.7 -75.85 22.3 -72.25 25.5 -70.45 26.5 L-70.45 37.0 M80.05 -12.75 L78.5 -19.3 80.05 -12.75 M29.7 23.4 L30.05 30.25 29.7 23.4 M63.8 11.85 L62.95 3.6 63.8 11.85" fill="#bf9006" fill-rule="evenodd" stroke="none"/>
    <path d="M-45.5 44.85 L-53.75 44.05 -51.55 32.95 -7.55 7.95 1.3 10.9 4.95 12.15 -41.7 34.7 -45.5 44.85" fill="url(#gradient0)" fill-rule="evenodd" stroke="none"/>
    <path d="M-7.55 7.95 L-10.45 6.95 16.95 -10.85 24.85 -8.85 30.35 -7.4 1.3 10.9 -7.55 7.95" fill="url(#gradient1)" fill-rule="evenodd" stroke="none"/>
    <path d="M40.5 -27.45 L45.65 -26.35 50.05 -25.4 24.85 -8.85 16.95 -10.85 14.65 -11.45 40.5 -27.45" fill="url(#gradient2)" fill-rule="evenodd" stroke="none"/>
    <path d="M37.75 -28.05 L54.35 -44.55 58.35 -44.15 63.55 -43.2 45.65 -26.35 40.5 -27.45 37.75 -28.05" fill="url(#gradient3)" fill-rule="evenodd" stroke="none"/>
    <path d="M-82.75 7.8 L-82.7 6.85 Q-82.2 3.1 -78.65 -1.2 L-67.25 -12.1 -63.2 -10.8 -62.25 -10.45 -56.5 -8.55 -79.4 18.85 Q-82.9 14.2 -82.75 7.8" fill="url(#gradient4)" fill-rule="evenodd" stroke="none"/>
    <path d="M-62.25 -10.5 L-42.7 -26.1 -38.4 -25.0 -37.55 -24.75 -35.3 -24.2 -49.75 -6.25 -56.5 -8.55 -62.25 -10.45 -62.25 -10.5" fill="url(#gradient5)" fill-rule="evenodd" stroke="none"/>
    <path d="M-37.55 -24.8 L-18.15 -40.1 -14.05 -39.2 -32.2 -23.4 -35.3 -24.2 -37.55 -24.75 -37.55 -24.8" fill="url(#gradient6)" fill-rule="evenodd" stroke="none"/>
    <path d="M50.05 -25.4 L76.05 -19.8 78.5 -19.3 Q73.25 -4.85 62.95 3.6 L62.65 0.85 30.35 -7.4 24.85 -8.85 50.05 -25.4" fill="url(#gradient7)" fill-rule="evenodd" stroke="none"/>
    <path d="M63.55 -43.2 Q74.0 -40.95 80.35 -36.85 80.1 -26.45 76.05 -19.8 L50.05 -25.4 45.65 -26.35 63.55 -43.2" fill="url(#gradient8)" fill-rule="evenodd" stroke="none"/>
    <path d="M1.3 10.9 L30.35 -7.4 62.65 0.85 Q50.45 13.45 29.7 23.4 L29.55 20.4 4.95 12.15 1.3 10.9" fill="url(#gradient9)" fill-rule="evenodd" stroke="none"/>
    <path d="M4.95 12.15 L29.55 20.4 Q17.95 26.15 5.9 30.75 L5.85 30.75 -17.65 24.55 3.3 31.7 Q-18.65 35.0 -38.85 34.75 L-41.7 34.7 4.95 12.15" fill="url(#gradient10)" fill-rule="evenodd" stroke="none"/>
    <path d="M-20.4 3.6 L-13.45 5.95 -10.45 6.95 -7.55 7.95 -51.55 32.95 -58.15 32.0 -20.4 3.6" fill="url(#gradient11)" fill-rule="evenodd" stroke="none"/>
    <path d="M0.9 -14.95 L8.55 -13.0 14.65 -11.45 16.95 -10.85 -10.45 6.95 -13.45 5.95 0.9 -14.95" fill="url(#gradient12)" fill-rule="evenodd" stroke="none"/>
    <path d="M32.0 -29.3 L37.75 -28.05 40.5 -27.45 14.65 -11.45 8.55 -13.0 22.75 -31.3 32.0 -29.3" fill="url(#gradient13)" fill-rule="evenodd" stroke="none"/>
    <path d="M45.1 -45.2 L54.35 -44.55 37.75 -28.05 32.0 -29.3 45.1 -45.2" fill="url(#gradient14)" fill-rule="evenodd" stroke="none"/>
    <path d="M-9.85 -38.3 Q7.4 -43.3 24.45 -44.7 L17.35 -32.45 4.2 -35.3 -9.85 -38.3" fill="url(#gradient15)" fill-rule="evenodd" stroke="none"/>
    <path d="M-14.05 -39.2 L-9.95 -38.35 -9.9 -38.3 -9.85 -38.3 4.2 -35.3 -5.35 -16.55 -14.5 -18.9 -32.2 -23.4 -14.05 -39.2" fill="url(#gradient16)" fill-rule="evenodd" stroke="none"/>
    <path d="M-35.3 -24.2 L-32.2 -23.4 -14.5 -18.9 -26.9 1.4 -36.3 -1.75 -49.75 -6.25 -35.3 -24.2" fill="url(#gradient17)" fill-rule="evenodd" stroke="none"/>
    <path d="M-56.5 -8.55 L-49.75 -6.25 -36.3 -1.75 -70.45 26.5 Q-72.25 25.5 -75.85 22.3 -77.9 20.7 -79.4 18.85 L-56.5 -8.55" fill="url(#gradient18)" fill-rule="evenodd" stroke="none"/>
    <path d="M-59.75 42.55 Q-66.6 39.7 -70.45 37.0 L-70.45 26.5 -36.3 -1.75 -26.9 1.4 -20.4 3.6 -58.15 32.0 -59.75 42.55" fill="url(#gradient19)" fill-rule="evenodd" stroke="none"/>
    <path d="M-5.35 -16.55 L0.9 -14.95 -13.45 5.95 -20.4 3.6 -26.9 1.4 -14.5 -18.9 -5.35 -16.55" fill="url(#gradient20)" fill-rule="evenodd" stroke="none"/>
    <path d="M17.35 -32.45 L22.75 -31.3 8.55 -13.0 0.9 -14.95 -5.35 -16.55 4.2 -35.3 17.35 -32.45" fill="url(#gradient21)" fill-rule="evenodd" stroke="none"/>
    <path d="M45.1 -45.2 L32.0 -29.3 22.75 -31.3 17.35 -32.45 24.45 -44.7 Q34.8 -45.6 45.1 -45.2" fill="url(#gradient22)" fill-rule="evenodd" stroke="none"/>
    <path d="M5.85 30.75 L5.9 30.75 7.0 36.85 3.3 31.7 -17.65 24.55 5.85 30.75" fill="url(#gradient23)" fill-rule="evenodd" stroke="none"/>
    <path d="M-79.9 27.65 Q-82.35 22.45 -82.85 12.2 L-82.75 7.8 Q-82.9 14.2 -79.4 18.85 L-79.9 27.65" fill="#ffd85a" fill-rule="evenodd" stroke="none"/>
    <path d="M54.35 -44.55 L45.1 -45.2 Q34.8 -45.6 24.45 -44.7 7.4 -43.3 -9.85 -38.3 L-9.9 -38.3 M32.0 -29.3 L37.75 -28.05 40.5 -27.45 45.65 -26.35 50.05 -25.4 76.05 -19.8 78.5 -19.3 80.05 -12.75 81.15 -8.0 71.85 6.7 63.85 11.85 63.8 11.85 63.9 13.1 Q49.05 24.2 30.05 30.25 L30.2 33.1 Q17.35 39.0 3.3 43.1 -20.8 46.3 -45.5 44.85 L-53.75 44.05 Q-57.5 43.45 -59.75 42.55 -66.6 39.7 -70.45 37.0 -76.0 33.1 -79.9 27.65 -82.35 22.45 -82.85 12.2 L-82.75 7.8 -82.7 6.85 Q-82.2 3.1 -78.65 -1.2 L-67.25 -12.1 -63.2 -10.8 -62.25 -10.5 -42.7 -26.1 -38.4 -25.0 -37.55 -24.8 -18.15 -40.1 -14.05 -39.2 -9.95 -38.35 -9.85 -38.3 4.2 -35.3 17.35 -32.45 22.75 -31.3 32.0 -29.3 M54.35 -44.55 L58.35 -44.15 63.55 -43.2 Q74.0 -40.95 80.35 -36.85 82.35 -31.3 82.85 -24.6 L80.2 -12.1 M-5.35 -16.55 L0.9 -14.95 8.55 -13.0 14.65 -11.45 16.95 -10.85 24.85 -8.85 30.35 -7.4 62.65 0.85 62.95 3.6 63.8 11.85 M-37.55 -24.75 L-35.3 -24.2 -32.2 -23.4 -14.5 -18.9 -5.35 -16.55 M-38.4 -25.0 L-37.55 -24.75 M-26.9 1.4 L-20.4 3.6 -13.45 5.95 -10.45 6.95 -7.55 7.95 1.3 10.9 4.95 12.15 29.55 20.4 29.7 23.4 30.05 30.25 M5.85 30.75 L5.9 30.75 M-36.3 -1.75 L-26.9 1.4 M-62.25 -10.45 L-56.5 -8.55 -49.75 -6.25 -36.3 -1.75 M-63.2 -10.8 L-62.25 -10.45" ffdec:has-small-stroke="true" ffdec:original-stroke-width="0.05" fill="none" stroke="#000000" stroke-linecap="round" stroke-linejoin="round" stroke-opacity="0.4" stroke-width="1.0"/>
    <path d="M-53.4 -31.65 L-52.65 -28.15 -56.4 -25.35 -57.45 -28.4 -53.4 -31.65 M-47.65 -30.4 L-48.45 -34.05 Q-46.0 -34.9 -43.4 -35.15 L-43.75 -31.25 -47.65 -30.4 M-37.7 -35.0 Q-34.35 -34.55 -30.75 -33.25 L-24.15 -30.4 Q-26.05 -29.5 -26.25 -26.9 L-32.9 -30.15 -36.45 -26.45 Q-37.7 -28.85 -40.0 -27.75 L-36.8 -31.2 -39.55 -31.45 -37.7 -35.0 M-19.55 -28.25 L-14.65 -25.75 Q-16.95 -24.35 -16.9 -21.75 L-22.25 -24.8 Q-22.05 -27.4 -19.55 -28.25 M-9.3 -22.65 L-6.05 -20.6 Q-6.7 -18.0 -10.1 -17.5 L-12.45 -19.05 -9.3 -22.65 M-2.75 -18.35 L1.95 -14.75 Q1.0 -12.05 -2.4 -11.95 L-5.45 -14.25 Q-3.15 -15.1 -2.75 -18.35 M5.5 -11.7 L9.9 -7.3 Q9.85 -4.35 7.0 -3.05 L1.9 -8.25 Q5.1 -8.3 5.5 -11.7 M14.25 -2.05 L17.75 3.25 Q16.95 6.9 13.9 7.35 12.55 4.4 10.55 1.5 13.45 1.55 14.25 -2.05 M21.05 10.1 Q22.7 14.25 23.6 18.7 21.25 23.45 16.7 22.7 17.05 18.25 16.1 13.9 19.75 13.65 21.05 10.1 M-41.7 -19.05 Q-43.65 -15.85 -45.35 -12.1 L-49.1 -13.65 Q-47.2 -17.5 -45.1 -20.8 -42.7 -20.5 -41.7 -19.05 M-49.15 -2.6 L-51.05 3.35 Q-53.35 3.5 -55.3 1.85 L-53.2 -4.25 Q-51.35 -2.55 -49.15 -2.6 M-55.0 20.05 L-56.05 26.2 Q-61.65 28.55 -60.65 23.1 L-59.65 18.3 Q-58.05 21.3 -55.0 20.05 M-63.55 -20.6 L-60.8 -24.6 -59.6 -22.1 -62.2 -18.65 -63.55 -20.6 M-63.95 -15.9 L-66.3 -11.5 -67.4 -13.3 -65.4 -17.45 -63.95 -15.9 M-67.65 -8.5 L-69.85 -2.85 Q-72.05 -3.95 -68.95 -9.7 L-68.75 -10.2 -67.65 -8.5" fill="#990000" fill-rule="evenodd" stroke="none"/>
    <path d="M-53.4 -31.65 Q-51.0 -33.2 -48.45 -34.05 L-47.65 -30.4 Q-50.25 -29.6 -52.65 -28.15 L-53.4 -31.65 M-43.4 -35.15 L-37.7 -35.0 -39.55 -31.45 -43.75 -31.25 -43.4 -35.15 M-24.15 -30.4 L-19.55 -28.25 Q-22.05 -27.4 -22.25 -24.8 L-26.25 -26.9 Q-26.05 -29.5 -24.15 -30.4 M-14.65 -25.75 L-9.3 -22.65 -12.45 -19.05 -16.9 -21.75 Q-16.95 -24.35 -14.65 -25.75 M-6.05 -20.6 L-2.75 -18.35 Q-3.15 -15.1 -5.45 -14.25 L-10.1 -17.5 Q-6.7 -18.0 -6.05 -20.6 M1.95 -14.75 L5.5 -11.7 Q5.1 -8.3 1.9 -8.25 L-2.4 -11.95 Q1.0 -12.05 1.95 -14.75 M9.9 -7.3 L14.25 -2.05 Q13.45 1.55 10.55 1.5 L7.0 -3.05 Q9.85 -4.35 9.9 -7.3 M17.75 3.25 Q19.65 6.55 21.05 10.1 19.75 13.65 16.1 13.9 15.4 10.6 13.9 7.35 16.95 6.9 17.75 3.25 M-36.45 -26.45 Q-39.25 -23.2 -41.7 -19.05 -42.7 -20.5 -45.1 -20.8 -42.7 -24.6 -40.0 -27.75 -37.7 -28.85 -36.45 -26.45 M-45.35 -12.1 Q-47.4 -7.7 -49.15 -2.6 -51.35 -2.55 -53.2 -4.25 -51.3 -9.3 -49.1 -13.65 L-45.35 -12.1 M-51.05 3.35 Q-53.3 11.0 -55.0 20.05 -58.05 21.3 -59.65 18.3 -57.75 9.4 -55.3 1.85 -53.35 3.5 -51.05 3.35 M-65.4 -17.45 L-63.55 -20.6 -62.2 -18.65 -63.95 -15.9 -65.4 -17.45 M-60.8 -24.6 L-57.45 -28.4 -56.4 -25.35 -59.6 -22.1 -60.8 -24.6 M-66.3 -11.5 L-67.65 -8.5 -68.75 -10.2 -67.4 -13.3 -66.3 -11.5" fill="#bf0000" fill-rule="evenodd" stroke="none"/>
    <path d="M-48.45 -34.05 Q-51.0 -33.2 -53.4 -31.65 L-52.65 -28.15 Q-50.25 -29.6 -47.65 -30.4 L-48.45 -34.05 Q-46.0 -34.9 -43.4 -35.15 L-37.7 -35.0 Q-34.35 -34.55 -30.75 -33.25 L-24.15 -30.4 -19.55 -28.25 -14.65 -25.75 -9.3 -22.65 -6.05 -20.6 -2.75 -18.35 1.95 -14.75 5.5 -11.7 9.9 -7.3 14.25 -2.05 17.75 3.25 Q19.65 6.55 21.05 10.1 22.7 14.25 23.6 18.7 21.25 23.45 16.7 22.7 17.05 18.25 16.1 13.9 15.4 10.6 13.9 7.35 12.55 4.4 10.55 1.5 L7.0 -3.05 1.9 -8.25 -2.4 -11.95 -5.45 -14.25 -10.1 -17.5 -12.45 -19.05 -16.9 -21.75 -22.25 -24.8 -26.25 -26.9 -32.9 -30.15 -36.45 -26.45 Q-39.25 -23.2 -41.7 -19.05 -43.65 -15.85 -45.35 -12.1 -47.4 -7.7 -49.15 -2.6 L-51.05 3.35 Q-53.3 11.0 -55.0 20.05 L-56.05 26.2 Q-61.65 28.55 -60.65 23.1 L-59.65 18.3 Q-57.75 9.4 -55.3 1.85 L-53.2 -4.25 Q-51.3 -9.3 -49.1 -13.65 -47.2 -17.5 -45.1 -20.8 -42.7 -24.6 -40.0 -27.75 L-36.8 -31.2 -39.55 -31.45 -43.75 -31.25 -47.65 -30.4 M-65.4 -17.45 L-63.55 -20.6 -60.8 -24.6 -57.45 -28.4 -53.4 -31.65 M-56.4 -25.35 L-59.6 -22.1 -62.2 -18.65 -63.95 -15.9 -66.3 -11.5 -67.65 -8.5 -69.85 -2.85 Q-72.05 -3.95 -68.95 -9.7 L-68.75 -10.2 -67.4 -13.3 -65.4 -17.45 -63.95 -15.9 M-59.6 -22.1 L-60.8 -24.6 M-63.55 -20.6 L-62.2 -18.65 M-56.4 -25.35 L-52.65 -28.15 M-57.45 -28.4 L-56.4 -25.35 M-37.7 -35.0 L-39.55 -31.45 M-43.4 -35.15 L-43.75 -31.25 M-45.1 -20.8 Q-42.7 -20.5 -41.7 -19.05 M-40.0 -27.75 Q-37.7 -28.85 -36.45 -26.45 M-9.3 -22.65 L-12.45 -19.05 M-6.05 -20.6 Q-6.7 -18.0 -10.1 -17.5 M-19.55 -28.25 Q-22.05 -27.4 -22.25 -24.8 M-16.9 -21.75 Q-16.95 -24.35 -14.65 -25.75 M-5.45 -14.25 Q-3.15 -15.1 -2.75 -18.35 M-26.25 -26.9 Q-26.05 -29.5 -24.15 -30.4 M7.0 -3.05 Q9.85 -4.35 9.9 -7.3 M14.25 -2.05 Q13.45 1.55 10.55 1.5 M5.5 -11.7 Q5.1 -8.3 1.9 -8.25 M-53.2 -4.25 Q-51.35 -2.55 -49.15 -2.6 M-55.3 1.85 Q-53.35 3.5 -51.05 3.35 M-55.0 20.05 Q-58.05 21.3 -59.65 18.3 M-45.35 -12.1 L-49.1 -13.65 M21.05 10.1 Q19.75 13.65 16.1 13.9 M1.95 -14.75 Q1.0 -12.05 -2.4 -11.95 M13.9 7.35 Q16.95 6.9 17.75 3.25 M-66.3 -11.5 L-67.4 -13.3 M-68.75 -10.2 L-67.65 -8.5" ffdec:has-small-stroke="true" ffdec:original-stroke-width="0.05" fill="none" stroke="#000000" stroke-linecap="round" stroke-linejoin="round" stroke-opacity="0.4" stroke-width="1.0"/>
  </g>
  <defs>
    <linearGradient gradientTransform="matrix(0.0358, 0.0, 0.0, 0.0225, -24.4, 26.4)" gradientUnits="userSpaceOnUse" id="gradient0" spreadMethod="pad" x1="-819.2" x2="819.2">
      <stop offset="0.0" stop-color="#ffffd7"/>
      <stop offset="1.0" stop-color="#fffffa"/>
    </linearGradient>
    <linearGradient gradientTransform="matrix(0.0249, 0.0, 0.0, 0.0133, 9.95, 0.0)" gradientUnits="userSpaceOnUse" id="gradient1" spreadMethod="pad" x1="-819.2" x2="819.2">
      <stop offset="0.0" stop-color="#ffffd7"/>
      <stop offset="1.0" stop-color="#fffffa"/>
    </linearGradient>
    <linearGradient gradientTransform="matrix(0.0216, 0.0, 0.0, 0.0114, 32.35, -18.15)" gradientUnits="userSpaceOnUse" id="gradient2" spreadMethod="pad" x1="-819.2" x2="819.2">
      <stop offset="0.0" stop-color="#ffffd7"/>
      <stop offset="1.0" stop-color="#fffffa"/>
    </linearGradient>
    <linearGradient gradientTransform="matrix(0.0157, 0.0, 0.0, 0.0111, 50.65, -35.45)" gradientUnits="userSpaceOnUse" id="gradient3" spreadMethod="pad" x1="-819.2" x2="819.2">
      <stop offset="0.0" stop-color="#ffffd7"/>
      <stop offset="1.0" stop-color="#fffffa"/>
    </linearGradient>
    <linearGradient gradientTransform="matrix(0.0052, -0.009, 0.0086, 0.005, -71.1, 0.45)" gradientUnits="userSpaceOnUse" id="gradient4" spreadMethod="pad" x1="-819.2" x2="819.2">
      <stop offset="0.0" stop-color="#ffffd7"/>
      <stop offset="1.0" stop-color="#fffffa"/>
    </linearGradient>
    <linearGradient gradientTransform="matrix(0.0023, -0.0084, 0.0132, 0.0036, -48.85, -17.15)" gradientUnits="userSpaceOnUse" id="gradient5" spreadMethod="pad" x1="-819.2" x2="819.2">
      <stop offset="0.0" stop-color="#ffffd7"/>
      <stop offset="1.0" stop-color="#fffffa"/>
    </linearGradient>
    <linearGradient gradientTransform="matrix(0.0044, -0.0044, 0.0028, 0.0028, -27.6, -30.25)" gradientUnits="userSpaceOnUse" id="gradient6" spreadMethod="pad" x1="-819.2" x2="819.2">
      <stop offset="0.0" stop-color="#ffffd7"/>
      <stop offset="1.0" stop-color="#fffffa"/>
    </linearGradient>
    <linearGradient gradientTransform="matrix(0.0163, -0.0043, 0.0049, 0.0185, 60.25, -11.9)" gradientUnits="userSpaceOnUse" id="gradient7" spreadMethod="pad" x1="-819.2" x2="819.2">
      <stop offset="0.0" stop-color="#ffd753"/>
      <stop offset="1.0" stop-color="#fff6d4"/>
    </linearGradient>
    <linearGradient gradientTransform="matrix(0.0159, -0.0042, 0.004, 0.0152, 67.75, -31.0)" gradientUnits="userSpaceOnUse" id="gradient8" spreadMethod="pad" x1="-819.2" x2="819.2">
      <stop offset="0.0" stop-color="#ffd753"/>
      <stop offset="1.0" stop-color="#fff6d4"/>
    </linearGradient>
    <linearGradient gradientTransform="matrix(0.0193, -0.0051, 0.0046, 0.0175, 34.9, 6.65)" gradientUnits="userSpaceOnUse" id="gradient9" spreadMethod="pad" x1="-819.2" x2="819.2">
      <stop offset="0.0" stop-color="#ffd753"/>
      <stop offset="1.0" stop-color="#fff6d4"/>
    </linearGradient>
    <linearGradient gradientTransform="matrix(0.0265, -0.007, 0.0029, 0.0109, -7.75, 25.05)" gradientUnits="userSpaceOnUse" id="gradient10" spreadMethod="pad" x1="-819.2" x2="819.2">
      <stop offset="0.0" stop-color="#ffd753"/>
      <stop offset="1.0" stop-color="#fff6d4"/>
    </linearGradient>
    <linearGradient gradientTransform="matrix(0.0177, -0.0102, 0.0056, 0.0098, -29.7, 19.6)" gradientUnits="userSpaceOnUse" id="gradient11" spreadMethod="pad" x1="-819.2" x2="819.2">
      <stop offset="0.0" stop-color="#ffd753"/>
      <stop offset="1.0" stop-color="#fff6d4"/>
    </linearGradient>
    <linearGradient gradientTransform="matrix(0.0095, -0.0095, 0.0061, 0.0061, 1.5, -5.55)" gradientUnits="userSpaceOnUse" id="gradient12" spreadMethod="pad" x1="-819.2" x2="819.2">
      <stop offset="0.0" stop-color="#ffd753"/>
      <stop offset="1.0" stop-color="#fff6d4"/>
    </linearGradient>
    <linearGradient gradientTransform="matrix(0.0102, -0.0059, 0.004, 0.0069, 21.45, -22.95)" gradientUnits="userSpaceOnUse" id="gradient13" spreadMethod="pad" x1="-819.2" x2="819.2">
      <stop offset="0.0" stop-color="#ffd753"/>
      <stop offset="1.0" stop-color="#fff6d4"/>
    </linearGradient>
    <linearGradient gradientTransform="matrix(0.0139, -0.0081, 0.0034, 0.0059, 46.4, -39.55)" gradientUnits="userSpaceOnUse" id="gradient14" spreadMethod="pad" x1="-819.2" x2="819.2">
      <stop offset="0.0" stop-color="#ffd753"/>
      <stop offset="1.0" stop-color="#fff6d4"/>
    </linearGradient>
    <linearGradient gradientTransform="matrix(0.012, -0.0069, 0.0057, 0.0099, 15.1, -41.9)" gradientUnits="userSpaceOnUse" id="gradient15" spreadMethod="pad" x1="-819.2" x2="819.2">
      <stop offset="0.0" stop-color="#ffd753"/>
      <stop offset="1.0" stop-color="#fff6d4"/>
    </linearGradient>
    <linearGradient gradientTransform="matrix(0.0141, -0.0038, 0.0038, 0.0142, -8.6, -28.2)" gradientUnits="userSpaceOnUse" id="gradient16" spreadMethod="pad" x1="-819.2" x2="819.2">
      <stop offset="0.0" stop-color="#ffd753"/>
      <stop offset="1.0" stop-color="#fff6d4"/>
    </linearGradient>
    <linearGradient gradientTransform="matrix(0.0244, -0.0065, 0.0042, 0.0159, -26.7, -12.55)" gradientUnits="userSpaceOnUse" id="gradient17" spreadMethod="pad" x1="-819.2" x2="819.2">
      <stop offset="0.0" stop-color="#ffd753"/>
      <stop offset="1.0" stop-color="#fff6d4"/>
    </linearGradient>
    <linearGradient gradientTransform="matrix(0.0145, -0.0083, 0.0071, 0.0124, -57.5, 5.5)" gradientUnits="userSpaceOnUse" id="gradient18" spreadMethod="pad" x1="-819.2" x2="819.2">
      <stop offset="0.0" stop-color="#ffd753"/>
      <stop offset="1.0" stop-color="#fff6d4"/>
    </linearGradient>
    <linearGradient gradientTransform="matrix(-0.0246, 0.0143, -0.0081, -0.0141, -47.35, 20.05)" gradientUnits="userSpaceOnUse" id="gradient19" spreadMethod="pad" x1="-819.2" x2="819.2">
      <stop offset="0.0" stop-color="#573401"/>
      <stop offset="1.0" stop-color="#261e00"/>
    </linearGradient>
    <linearGradient gradientTransform="matrix(-0.0125, 0.0072, -0.0067, -0.0116, -15.7, -5.45)" gradientUnits="userSpaceOnUse" id="gradient20" spreadMethod="pad" x1="-819.2" x2="819.2">
      <stop offset="0.0" stop-color="#573401"/>
      <stop offset="1.0" stop-color="#261e00"/>
    </linearGradient>
    <linearGradient gradientTransform="matrix(-0.0088, 0.0088, -0.0082, -0.0082, 4.9, -22.75)" gradientUnits="userSpaceOnUse" id="gradient21" spreadMethod="pad" x1="-819.2" x2="819.2">
      <stop offset="0.0" stop-color="#573401"/>
      <stop offset="1.0" stop-color="#261e00"/>
    </linearGradient>
    <linearGradient gradientTransform="matrix(-0.013, 0.0075, -0.0052, -0.009, 24.4, -34.75)" gradientUnits="userSpaceOnUse" id="gradient22" spreadMethod="pad" x1="-819.2" x2="819.2">
      <stop offset="0.0" stop-color="#573401"/>
      <stop offset="1.0" stop-color="#261e00"/>
    </linearGradient>
    <linearGradient gradientTransform="matrix(-0.0091, 0.0053, -0.007, -0.0121, -4.45, 30.15)" gradientUnits="userSpaceOnUse" id="gradient23" spreadMethod="pad" x1="-819.2" x2="819.2">
      <stop offset="0.0" stop-color="#573401"/>
      <stop offset="1.0" stop-color="#261e00"/>
    </linearGradient>
  </defs>
</svg>
