<?xml version="1.0" encoding="UTF-8" standalone="no"?>
<svg xmlns:ffdec="https://www.free-decompiler.com/flash" xmlns:xlink="http://www.w3.org/1999/xlink" ffdec:objectType="shape" height="85.85px" width="72.7px" xmlns="http://www.w3.org/2000/svg">
  <g transform="matrix(1.0, 0.0, 0.0, 1.0, 0.5, 0.5)">
    <path d="M55.4 5.45 L58.4 4.35 62.45 5.75 69.2 11.0 Q67.65 14.05 61.25 14.65 L57.95 11.5 Q60.4 10.45 61.05 9.75 56.95 7.95 52.4 6.55 L55.4 5.45 M55.95 3.6 L50.45 6.0 50.4 6.0 Q45.2 4.5 39.4 3.55 L28.95 2.7 26.5 0.2 36.2 0.0 Q47.55 1.25 55.95 3.6 M56.25 14.6 L47.25 14.2 32.15 13.5 34.4 12.5 36.7 11.5 39.7 11.85 Q48.25 12.65 53.95 12.0 L56.25 14.6 M10.75 4.5 Q11.1 7.0 13.2 8.7 L14.7 14.25 Q13.4 15.1 13.05 16.05 12.55 17.4 13.8 19.0 L13.45 24.35 Q11.7 25.5 11.65 26.85 11.6 27.7 12.2 28.65 L10.7 34.45 Q9.55 35.5 9.7 36.75 9.85 37.85 11.0 39.1 L10.45 47.5 2.95 59.15 0.2 47.75 7.7 32.25 11.2 13.75 10.75 4.5" fill="#eacea6" fill-rule="evenodd" stroke="none"/>
    <path d="M69.2 11.0 L70.0 28.35 68.45 26.0 67.95 26.0 67.7 30.25 Q67.7 33.05 68.45 37.75 69.35 43.25 70.3 43.25 L70.6 43.15 71.2 42.5 71.7 47.5 65.95 64.75 60.55 67.55 65.7 56.75 65.7 50.5 65.7 47.25 Q62.5 43.85 63.1 35.75 L62.45 33.0 61.25 14.65 Q67.65 14.05 69.2 11.0" fill="#b58f39" fill-rule="evenodd" stroke="none"/>
    <path d="M55.4 5.45 L52.4 6.55 49.45 10.0 50.4 6.0 50.45 6.0 55.95 3.6 55.4 5.45 M26.5 0.2 L28.95 2.7 26.8 8.3 26.3 8.25 25.9 5.9 26.5 0.2 M18.1 9.65 L19.85 10.65 19.35 13.65 18.85 16.6 17.95 16.15 16.45 10.5 18.1 9.65 M17.7 21.4 L18.7 21.9 18.45 24.45 18.2 26.95 17.1 26.4 17.7 21.4 M14.85 35.8 L16.05 31.35 17.3 31.95 16.05 33.9 14.85 35.8" fill="#53432d" fill-rule="evenodd" stroke="none"/>
    <path d="M70.0 28.35 L70.0 28.75 Q68.7 36.55 71.2 42.5 L70.6 43.15 70.3 43.25 Q69.35 43.25 68.45 37.75 67.7 33.05 67.7 30.25 L67.95 26.0 68.45 26.0 70.0 28.35 M63.1 35.75 Q62.5 43.85 65.7 47.25 L65.7 50.5 Q64.7 51.25 64.2 51.25 62.5 51.25 60.7 47.75 58.2 42.95 58.2 34.5 L58.25 32.15 Q58.35 31.4 59.05 31.25 59.7 31.1 61.15 32.85 62.6 34.6 63.1 35.75 M50.4 6.0 L49.45 10.0 52.4 6.55 Q56.95 7.95 61.05 9.75 60.4 10.45 57.95 11.5 56.3 13.8 53.95 12.0 48.25 12.65 39.7 11.85 L36.7 11.5 34.4 12.5 32.15 13.5 32.15 15.75 29.95 16.0 19.35 13.65 19.85 10.65 21.45 11.5 29.2 13.25 28.45 11.25 29.7 10.0 39.45 10.0 39.7 11.85 39.45 10.0 26.8 8.3 28.95 2.7 39.4 3.55 Q45.2 4.5 50.4 6.0 M34.4 12.5 L32.45 11.5 29.2 13.25 32.45 11.5 34.4 12.5 M25.4 2.7 L25.9 5.9 26.3 8.25 24.7 8.0 19.2 5.0 16.95 5.0 16.95 3.5 25.4 2.7 M32.0 25.75 L31.5 28.2 18.45 24.45 18.7 21.9 Q25.0 24.85 32.0 25.75 M30.55 35.8 L29.95 38.0 16.05 33.9 17.3 31.95 Q23.6 34.9 30.55 35.8 M27.9 45.2 L26.6 47.15 14.6 43.25 14.6 41.05 Q20.9 44.2 27.9 45.2 M16.3 51.95 Q17.15 52.65 17.75 53.7 18.45 55.0 18.45 56.15 L18.2 58.25 Q17.7 60.25 16.55 60.25 15.65 60.25 15.2 59.75 14.45 58.9 14.45 56.4 L14.4 54.7 Q14.75 52.9 16.25 51.9 L16.3 51.95 M44.7 53.25 Q46.55 48.0 48.3 48.0 50.7 48.0 50.7 53.4 50.7 57.25 49.2 62.5 47.35 69.0 44.8 69.0 43.8 69.0 43.45 68.0 42.95 66.65 42.95 62.65 42.95 58.35 44.7 53.25" fill="#8d702e" fill-rule="evenodd" stroke="none"/>
    <path d="M65.95 64.75 L52.7 75.5 48.65 76.45 38.45 78.75 31.7 80.25 22.8 77.9 Q23.75 76.8 24.65 76.55 23.75 76.8 22.8 77.9 L17.7 76.55 9.95 74.5 8.25 72.4 9.15 71.9 9.15 71.85 6.2 62.5 27.45 74.5 50.95 72.5 60.55 67.55 65.95 64.75 M57.95 11.5 L61.25 14.65 Q60.6 14.7 59.95 16.25 L56.25 14.6 53.95 12.0 Q56.3 13.8 57.95 11.5 M19.2 75.75 Q18.9 75.75 17.7 76.55 18.9 75.75 19.2 75.75 M38.45 78.75 Q38.45 77.65 37.95 77.3 L37.2 77.0 37.95 77.3 Q38.45 77.65 38.45 78.75 M47.95 75.5 L48.65 76.45 47.95 75.5" fill="#dcc592" fill-rule="evenodd" stroke="none"/>
    <path d="M61.25 14.65 L62.45 33.0 63.1 35.75 Q62.6 34.6 61.15 32.85 59.7 31.1 59.05 31.25 58.35 31.4 58.25 32.15 L58.2 34.5 Q58.2 42.95 60.7 47.75 62.5 51.25 64.2 51.25 64.7 51.25 65.7 50.5 L65.7 56.75 60.55 67.55 50.95 72.5 55.2 44.5 57.2 25.75 56.25 14.6 59.95 16.25 Q60.6 14.7 61.25 14.65 M31.2 62.25 L27.45 74.5 6.2 62.5 31.2 62.25" fill="#a88535" fill-rule="evenodd" stroke="none"/>
    <path d="M56.25 14.6 L57.2 25.75 55.2 44.5 50.95 72.5 27.45 74.5 31.2 62.25 42.7 48.5 48.2 31.0 47.25 14.2 56.25 14.6 M44.7 53.25 Q42.95 58.35 42.95 62.65 42.95 66.65 43.45 68.0 43.8 69.0 44.8 69.0 47.35 69.0 49.2 62.5 50.7 57.25 50.7 53.4 50.7 48.0 48.3 48.0 46.55 48.0 44.7 53.25" fill="#a28033" fill-rule="evenodd" stroke="none"/>
    <path d="M47.25 14.2 L48.2 31.0 42.7 48.5 31.2 62.25 6.2 62.5 2.95 59.15 10.45 47.5 11.0 39.1 14.6 41.05 14.6 43.25 26.6 47.15 27.9 45.2 31.75 45.6 Q34.9 44.65 32.95 41.8 L31.75 40.35 29.3 40.2 29.95 38.0 29.3 40.2 Q21.85 39.4 14.85 35.8 L11.5 33.85 10.7 34.45 12.2 28.65 12.95 29.6 16.05 31.35 14.85 35.8 16.05 33.9 29.95 38.0 30.55 35.8 33.7 36.1 Q37.0 35.15 34.75 32.1 L33.7 30.85 31.0 30.65 31.5 28.2 31.0 30.65 Q24.4 29.9 18.2 26.95 L18.45 24.45 31.5 28.2 32.0 25.75 34.95 26.0 Q38.4 24.95 35.75 21.65 L34.95 20.75 32.15 20.55 Q25.3 19.75 18.85 16.6 L19.35 13.65 29.95 16.0 32.15 15.75 32.15 13.5 47.25 14.2 M28.45 11.25 L29.2 13.25 21.45 11.5 19.85 10.65 18.1 9.65 14.2 7.5 14.2 5.0 18.55 7.1 18.7 7.25 18.8 7.25 22.95 9.25 28.45 11.25 M13.2 8.7 Q14.5 9.75 16.45 10.5 L17.95 16.15 14.7 14.25 13.2 8.7 M32.15 15.75 L32.15 20.55 32.15 15.75 M23.95 51.0 L26.6 47.15 23.95 51.0 M13.8 19.0 L14.2 19.5 Q15.9 20.55 17.7 21.4 L17.1 26.4 13.45 24.35 13.8 19.0 M14.55 47.5 L14.6 43.25 14.55 47.5 M16.3 51.95 L16.25 51.9 Q14.75 52.9 14.4 54.7 L14.45 56.4 Q14.45 58.9 15.2 59.75 15.65 60.25 16.55 60.25 17.7 60.25 18.2 58.25 L18.45 56.15 Q18.45 55.0 17.75 53.7 17.15 52.65 16.3 51.95" fill="#ae8a37" fill-rule="evenodd" stroke="none"/>
    <path d="M39.45 10.0 L29.7 10.0 28.45 11.25 22.95 9.25 18.8 7.25 18.55 7.1 14.2 5.0 14.2 7.5 18.1 9.65 16.45 10.5 Q14.5 9.75 13.2 8.7 11.1 7.0 10.75 4.5 L10.7 3.25 Q11.25 0.9 18.75 0.35 L22.7 0.25 25.4 2.7 16.95 3.5 16.95 5.0 19.2 5.0 24.7 8.0 26.3 8.25 26.8 8.3 39.45 10.0 M16.95 5.0 L14.2 5.0 16.95 5.0 M2.95 59.15 L6.2 62.5 9.15 71.85 9.15 71.9 8.25 72.4 2.7 64.5 Q-0.75 56.15 0.2 47.75 L2.95 59.15" fill="#f9e6d2" fill-rule="evenodd" stroke="none"/>
    <path d="M18.85 16.6 Q25.3 19.75 32.15 20.55 L34.95 20.75 35.75 21.65 34.95 23.25 Q21.7 23.85 13.05 16.05 13.4 15.1 14.7 14.25 L17.95 16.15 18.85 16.6 M31.0 30.65 L33.7 30.85 34.75 32.1 31.95 34.75 Q20.15 32.9 11.65 26.85 11.7 25.5 13.45 24.35 L17.1 26.4 18.2 26.95 Q24.4 29.9 31.0 30.65 M29.3 40.2 L31.75 40.35 32.95 41.8 30.45 44.0 Q17.25 42.45 9.7 36.75 9.55 35.5 10.7 34.45 L11.5 33.85 14.85 35.8 Q21.85 39.4 29.3 40.2" fill="#a05001" fill-rule="evenodd" stroke="none"/>
    <path d="M35.75 21.65 Q38.4 24.95 34.95 26.0 L32.0 25.75 Q25.0 24.85 18.7 21.9 L17.7 21.4 Q15.9 20.55 14.2 19.5 L13.8 19.0 Q12.55 17.4 13.05 16.05 21.7 23.85 34.95 23.25 L35.75 21.65 M34.75 32.1 Q37.0 35.15 33.7 36.1 L30.55 35.8 Q23.6 34.9 17.3 31.95 L16.05 31.35 12.95 29.6 12.2 28.65 Q11.6 27.7 11.65 26.85 20.15 32.9 31.95 34.75 L34.75 32.1 M32.95 41.8 Q34.9 44.65 31.75 45.6 L27.9 45.2 Q20.9 44.2 14.6 41.05 L11.0 39.1 Q9.85 37.85 9.7 36.75 17.25 42.45 30.45 44.0 L32.95 41.8" fill="#663300" fill-rule="evenodd" stroke="none"/>
    <path d="M55.4 5.45 L58.4 4.35 62.45 5.75 69.2 11.0 70.0 28.35 70.0 28.75 Q68.7 36.55 71.2 42.5 L71.7 47.5 65.95 64.75 52.7 75.5 48.65 76.45 Q49.05 77.2 49.25 78.3 L49.45 80.5 M61.25 14.65 L62.45 33.0 63.1 35.75 Q62.5 43.85 65.7 47.25 L65.7 50.5 65.7 56.75 M60.55 67.55 L65.95 64.75 M52.4 6.55 L55.4 5.45 55.95 3.6 Q47.55 1.25 36.2 0.0 L26.5 0.2 25.9 5.9 25.4 2.7 22.7 0.25 18.75 0.35 Q11.25 0.9 10.7 3.25 L10.75 4.5 11.2 13.75 7.7 32.25 0.2 47.75 2.95 59.15 6.2 62.5 27.45 74.5 50.95 72.5 60.55 67.55 M50.45 6.0 L50.4 6.0 49.45 10.0 52.4 6.55 M61.05 9.75 Q60.4 10.45 57.95 11.5 L61.25 14.65 M56.25 14.6 L57.2 25.75 M53.95 12.0 L56.25 14.6 M57.95 11.5 Q56.3 13.8 53.95 12.0 48.25 12.65 39.7 11.85 L36.7 11.5 34.4 12.5 32.15 13.5 32.15 15.75 32.15 20.55 34.95 20.75 35.75 21.65 Q38.4 24.95 34.95 26.0 L32.0 25.75 31.5 28.2 31.0 30.65 33.7 30.85 34.75 32.1 Q37.0 35.15 33.7 36.1 L30.55 35.8 29.95 38.0 29.3 40.2 31.75 40.35 32.95 41.8 Q34.9 44.65 31.75 45.6 L27.9 45.2 26.6 47.15 23.95 51.0 M63.1 35.75 Q62.6 34.6 61.15 32.85 59.7 31.1 59.05 31.25 58.35 31.4 58.25 32.15 L58.2 34.5 Q58.2 42.95 60.7 47.75 62.5 51.25 64.2 51.25 64.7 51.25 65.7 50.5 M70.0 28.35 L68.45 26.0 67.95 26.0 67.7 30.25 Q67.7 33.05 68.45 37.75 69.35 43.25 70.3 43.25 L70.6 43.15 71.2 42.5 M39.7 11.85 L39.45 10.0 26.8 8.3 28.95 2.7 M29.2 13.25 L32.45 11.5 34.4 12.5 M16.95 3.5 L16.95 5.0 19.2 5.0 24.7 8.0 26.3 8.25 25.9 5.9 M26.3 8.25 L26.8 8.3 M18.8 7.25 L18.7 7.25 18.55 7.1 18.8 7.25 M14.2 5.0 L14.2 7.5 18.1 9.65 19.85 10.65 21.45 11.5 29.2 13.25 M19.35 13.65 L18.85 16.6 Q25.3 19.75 32.15 20.55 M14.2 5.0 L16.95 5.0 M18.85 16.6 L17.95 16.15 14.7 14.25 Q13.4 15.1 13.05 16.05 12.55 17.4 13.8 19.0 L14.2 19.5 Q15.9 20.55 17.7 21.4 L18.7 21.9 Q25.0 24.85 32.0 25.75 M13.45 24.35 L17.1 26.4 18.2 26.95 18.45 24.45 18.7 21.9 M19.85 10.65 L19.35 13.65 M16.05 31.35 L12.95 29.6 12.2 28.65 Q11.6 27.7 11.65 26.85 11.7 25.5 13.45 24.35 M10.7 34.45 L11.5 33.85 14.85 35.8 Q21.85 39.4 29.3 40.2 M16.05 31.35 L17.3 31.95 Q23.6 34.9 30.55 35.8 M17.3 31.95 L16.05 33.9 14.85 35.8 M14.6 41.05 L11.0 39.1 Q9.85 37.85 9.7 36.75 9.55 35.5 10.7 34.45 M18.2 26.95 Q24.4 29.9 31.0 30.65 M27.9 45.2 Q20.9 44.2 14.6 41.05 M16.3 51.95 L16.25 51.9 Q14.75 52.9 14.4 54.7 L14.45 56.4 Q14.45 58.9 15.2 59.75 15.65 60.25 16.55 60.25 17.7 60.25 18.2 58.25 L18.45 56.15 Q18.45 55.0 17.75 53.7 17.15 52.65 16.3 51.95 M9.15 71.85 L9.15 71.9 8.25 72.4 9.95 74.5 17.7 76.55 Q18.9 75.75 19.2 75.75 M8.25 72.4 L2.7 64.5 Q-0.75 56.15 0.2 47.75 M17.7 76.55 L16.05 77.7 12.7 80.0 9.3 80.35 Q7.0 80.6 6.45 82.5 M38.45 78.75 L31.7 80.25 22.8 77.9 22.45 78.25 Q21.2 79.7 21.2 80.85 L21.7 82.5 M37.2 77.0 L37.95 77.3 Q38.45 77.65 38.45 78.75 L48.65 76.45 47.95 75.5 M38.45 78.75 L37.8 80.75 Q37.35 83.15 38.45 85.25 M24.65 76.55 Q23.75 76.8 22.8 77.9 L17.7 76.55 M8.25 72.4 Q6.25 73.5 5.45 74.5 M44.7 53.25 Q46.55 48.0 48.3 48.0 50.7 48.0 50.7 53.4 50.7 57.25 49.2 62.5 47.35 69.0 44.8 69.0 43.8 69.0 43.45 68.0 42.95 66.65 42.95 62.65 42.95 58.35 44.7 53.25" ffdec:has-small-stroke="true" ffdec:original-stroke-width="0.2" fill="none" stroke="#000000" stroke-linecap="round" stroke-linejoin="round" stroke-opacity="0.4" stroke-width="1.0"/>
    <path d="M69.2 11.0 Q67.65 14.05 61.25 14.65 60.6 14.7 59.95 16.25 L56.25 14.6 47.25 14.2 32.15 13.5 M55.95 3.6 L50.45 6.0 M52.4 6.55 Q56.95 7.95 61.05 9.75 M39.45 10.0 L29.7 10.0 28.45 11.25 29.2 13.25 M26.5 0.2 L28.95 2.7 39.4 3.55 Q45.2 4.5 50.4 6.0 M25.4 2.7 L16.95 3.5 M28.45 11.25 L22.95 9.25 18.8 7.25 M18.55 7.1 L14.2 5.0 M10.75 4.5 Q11.1 7.0 13.2 8.7 14.5 9.75 16.45 10.5 L18.1 9.65 M13.05 16.05 Q21.7 23.85 34.95 23.25 L35.75 21.65 M17.1 26.4 L17.7 21.4 M17.95 16.15 L16.45 10.5 M14.85 35.8 L16.05 31.35 M14.6 41.05 L14.6 43.25 14.55 47.5 M34.75 32.1 L31.95 34.75 Q20.15 32.9 11.65 26.85 M9.7 36.75 Q17.25 42.45 30.45 44.0 L32.95 41.8" ffdec:has-small-stroke="true" ffdec:original-stroke-width="0.2" fill="none" stroke="#f2e0c8" stroke-linecap="round" stroke-linejoin="round" stroke-opacity="0.4" stroke-width="1.0"/>
    <path d="M69.2 11.0 L70.0 28.75 Q68.7 36.55 71.2 42.5 L71.7 47.5 65.95 64.75 52.7 75.5 31.7 80.25 9.95 74.5 2.7 64.5 Q-0.75 56.15 0.2 47.75 L7.7 32.25 11.2 13.75 10.75 4.5 10.7 3.25 Q11.25 0.9 18.75 0.35 L22.7 0.25 25.4 2.7 25.9 5.9 26.5 0.2 36.2 0.0 Q47.55 1.25 55.95 3.6 L55.4 5.45 58.4 4.35 62.45 5.75 69.2 11.0 Z" fill="none" stroke="#000000" stroke-linecap="round" stroke-linejoin="round" stroke-opacity="0.4" stroke-width="1.0"/>
  </g>
</svg>
