<?xml version="1.0" encoding="UTF-8" standalone="no"?>
<svg xmlns:ffdec="https://www.free-decompiler.com/flash" xmlns:xlink="http://www.w3.org/1999/xlink" ffdec:objectType="shape" height="95.6px" width="116.05px" xmlns="http://www.w3.org/2000/svg">
  <g transform="matrix(1.0, 0.0, 0.0, 1.0, -12.0, -94.0)">
    <path d="M12.2 161.1 L13.75 162.85 Q12.9 163.9 14.7 167.35 18.5 175.05 31.0 181.8 13.15 174.5 12.2 161.1 M109.95 176.85 L115.2 175.05 Q113.55 179.9 110.1 183.05 L105.55 184.75 104.95 184.3 Q106.25 182.5 106.5 179.75 L109.95 176.85 M119.95 174.25 L121.85 173.65 Q122.35 175.55 120.3 178.15 L118.85 178.9 118.0 176.7 119.95 174.25" fill="#ffcccc" fill-rule="evenodd" stroke="none"/>
    <path d="M103.95 178.25 L106.55 177.7 109.95 176.85 106.5 179.75 105.1 180.85 104.95 184.3 Q103.95 185.8 102.3 186.8 L98.15 187.4 Q102.7 185.25 103.95 178.25 M118.85 178.9 L115.2 180.25 118.0 176.7 118.85 178.9 M113.25 181.85 Q110.6 183.85 107.3 185.2 L102.3 186.8 Q103.95 185.8 104.95 184.3 L105.55 184.75 110.1 183.05 113.25 181.85 M94.95 187.7 L88.65 187.55 87.05 187.45 86.8 187.4 82.65 186.9 Q85.55 185.25 85.4 179.3 L91.2 179.4 97.65 179.05 Q97.45 185.45 94.95 187.7 M33.2 182.75 L31.0 181.8 Q18.5 175.05 14.7 167.35 12.9 163.9 13.75 162.85 L16.9 165.6 Q21.95 169.45 29.3 171.7 L29.75 172.9 Q31.8 177.45 35.55 180.75 L34.15 181.6 Q33.5 182.05 33.2 182.75 M106.55 177.7 L106.5 179.75 106.55 177.7 M110.1 183.05 L107.3 185.2 110.1 183.05 M56.8 175.05 L63.4 176.45 Q63.0 180.15 59.8 180.75 L54.4 178.7 56.8 175.05 M34.15 181.6 Q20.65 175.2 16.9 165.6 20.65 175.2 34.15 181.6 M88.65 187.55 Q91.65 185.95 91.2 179.4 91.65 185.95 88.65 187.55" fill="#c86f59" fill-rule="evenodd" stroke="none"/>
    <path d="M98.95 179.0 L103.95 178.25 Q102.7 185.25 98.15 187.4 L94.95 187.7 Q97.45 185.45 97.65 179.05 L98.95 179.0 M35.4 173.25 L38.25 179.7 Q36.65 180.15 35.55 180.75 31.8 177.45 29.75 172.9 L29.3 171.7 30.35 172.0 35.4 173.25 M49.55 178.6 L49.35 174.9 56.8 175.05 54.4 178.7 49.55 178.6 M70.05 177.7 L74.05 178.3 Q74.9 183.55 72.35 184.75 L65.85 182.8 Q68.5 182.75 70.05 177.7 M80.3 179.0 L84.15 179.25 85.4 179.3 Q85.55 185.25 82.65 186.9 L77.65 185.9 Q79.55 184.9 80.3 179.0" fill="#9f4a35" fill-rule="evenodd" stroke="none"/>
    <path d="M45.55 178.75 Q41.15 179.0 38.25 179.7 L35.4 173.25 45.2 174.6 45.55 178.75 45.2 174.6 49.35 174.9 49.55 178.6 45.55 178.75 M63.4 176.45 L70.05 177.7 Q68.5 182.75 65.85 182.8 L59.8 180.75 Q63.0 180.15 63.4 176.45 M74.05 178.3 L80.3 179.0 Q79.55 184.9 77.65 185.9 L72.35 184.75 Q74.9 183.55 74.05 178.3" fill="#8c412f" fill-rule="evenodd" stroke="none"/>
    <path d="M115.2 175.05 L119.95 174.25 118.0 176.7 115.2 180.25 113.25 181.85 110.1 183.05 Q113.55 179.9 115.2 175.05 M121.85 173.65 Q126.75 171.75 127.75 167.9 127.15 171.4 125.15 174.0 123.85 175.8 121.85 177.15 L121.7 177.3 120.3 178.15 Q122.35 175.55 121.85 173.65 M104.95 184.3 L105.1 180.85 106.5 179.75 Q106.25 182.5 104.95 184.3" fill="#fedbcd" fill-rule="evenodd" stroke="none"/>
    <path d="M12.2 161.1 Q11.8 156.05 12.85 149.75 15.8 129.75 33.45 114.85 39.7 103.5 48.0 98.45 58.35 92.0 71.8 95.1 109.3 109.55 117.2 143.25 124.1 150.7 127.85 163.45 128.1 165.9 127.75 167.9 126.75 171.75 121.85 173.65 L119.95 174.25 115.2 175.05 109.95 176.85 106.55 177.7 103.95 178.25 98.95 179.0 Q94.7 171.65 92.75 161.5 91.6 155.7 92.05 150.25 94.3 140.15 101.0 135.35 96.95 135.85 95.05 138.2 82.15 111.0 50.05 99.15 39.35 106.5 34.85 116.4 14.95 131.4 13.15 159.7 L13.75 162.85 12.2 161.1 M111.9 138.65 Q114.75 140.65 117.2 143.25 114.75 140.65 111.9 138.65" fill="#cb8f56" fill-rule="evenodd" stroke="none"/>
    <path d="M13.75 162.85 L13.15 159.7 Q14.95 131.4 34.85 116.4 39.35 106.5 50.05 99.15 82.15 111.0 95.05 138.2 96.95 135.85 101.0 135.35 94.3 140.15 92.05 150.25 91.6 155.7 92.75 161.5 94.7 171.65 98.95 179.0 L97.65 179.05 91.2 179.4 85.4 179.3 84.15 179.25 Q90.15 154.35 63.2 121.05 39.55 103.85 30.35 172.0 L29.3 171.7 Q21.95 169.45 16.9 165.6 L13.75 162.85" fill="#b07335" fill-rule="evenodd" stroke="none"/>
    <path d="M45.2 174.6 L35.4 173.25 30.35 172.0 Q39.55 103.85 63.2 121.05 90.15 154.35 84.15 179.25 L80.3 179.0 74.05 178.3 70.05 177.7 63.4 176.45 56.8 175.05 49.35 174.9 45.2 174.6" fill="#7c5025" fill-rule="evenodd" stroke="none"/>
    <path d="M86.8 187.4 Q53.6 193.25 33.2 182.75 33.5 182.05 34.15 181.6 L35.55 180.75 Q36.65 180.15 38.25 179.7 41.15 179.0 45.55 178.75 L49.55 178.6 54.4 178.7 59.8 180.75 65.85 182.8 72.35 184.75 77.65 185.9 82.65 186.9 86.8 187.4" fill="#746425" fill-rule="evenodd" stroke="none"/>
    <path d="M117.2 143.25 Q109.3 109.55 71.8 95.1 58.35 92.0 48.0 98.45 39.7 103.5 33.45 114.85 15.8 129.75 12.85 149.75 11.8 156.05 12.2 161.1 L13.75 162.85 16.9 165.6 Q20.65 175.2 34.15 181.6 33.5 182.05 33.2 182.75 L31.0 181.8 Q13.15 174.5 12.2 161.1 M98.95 179.0 L103.95 178.25 106.55 177.7 109.95 176.85 115.2 175.05 119.95 174.25 121.85 173.65 Q126.75 171.75 127.75 167.9 128.1 165.9 127.85 163.45 124.1 150.7 117.2 143.25 114.75 140.65 111.9 138.65 M120.3 178.15 L121.7 177.3 121.85 177.15 Q123.85 175.8 125.15 174.0 127.15 171.4 127.75 167.9 M121.85 173.65 Q122.35 175.55 120.3 178.15 L118.85 178.9 115.2 180.25 113.25 181.85 Q110.6 183.85 107.3 185.2 L102.3 186.8 98.15 187.4 94.95 187.7 88.65 187.55 87.05 187.45 M118.0 176.7 L115.2 180.25 M118.0 176.7 L119.95 174.25 M104.95 184.3 Q106.25 182.5 106.5 179.75 L106.55 177.7 M104.95 184.3 Q103.95 185.8 102.3 186.8 M115.2 175.05 Q113.55 179.9 110.1 183.05 L107.3 185.2 M38.25 179.7 Q41.15 179.0 45.55 178.75 L45.2 174.6 35.4 173.25 38.25 179.7 Q36.65 180.15 35.55 180.75 L34.15 181.6 M45.55 178.75 L49.55 178.6 49.35 174.9 45.2 174.6 M49.35 174.9 L56.8 175.05 63.4 176.45 70.05 177.7 74.05 178.3 80.3 179.0 84.15 179.25 85.4 179.3 Q85.55 185.25 82.65 186.9 L77.65 185.9 72.35 184.75 65.85 182.8 59.8 180.75 54.4 178.7 56.8 175.05 M30.35 172.0 L35.4 173.25 M49.55 178.6 L54.4 178.7 M29.3 171.7 L29.75 172.9 Q31.8 177.45 35.55 180.75 M30.35 172.0 L29.3 171.7 Q21.95 169.45 16.9 165.6 M97.65 179.05 L91.2 179.4 Q91.65 185.95 88.65 187.55 M98.95 179.0 L97.65 179.05 Q97.45 185.45 94.95 187.7 M82.65 186.9 L86.8 187.4 M91.2 179.4 L85.4 179.3 M63.4 176.45 Q63.0 180.15 59.8 180.75 M65.85 182.8 Q68.5 182.75 70.05 177.7 M72.35 184.75 Q74.9 183.55 74.05 178.3 M77.65 185.9 Q79.55 184.9 80.3 179.0 M98.15 187.4 Q102.7 185.25 103.95 178.25" ffdec:has-small-stroke="true" ffdec:original-stroke-width="0.2" fill="none" stroke="#000000" stroke-linecap="round" stroke-linejoin="round" stroke-opacity="0.4" stroke-width="1.0"/>
    <path d="M87.05 187.45 L86.8 187.4 Q53.6 193.25 33.2 182.75" ffdec:has-small-stroke="true" ffdec:original-stroke-width="0.2" fill="none" stroke="#000000" stroke-linecap="round" stroke-linejoin="round" stroke-opacity="0.4117647" stroke-width="1.0"/>
  </g>
</svg>
