<?xml version="1.0" encoding="UTF-8" standalone="no"?>
<svg xmlns:ffdec="https://www.free-decompiler.com/flash" xmlns:xlink="http://www.w3.org/1999/xlink" ffdec:objectType="shape" height="151.45px" width="94.6px" xmlns="http://www.w3.org/2000/svg">
  <g transform="matrix(1.0, 0.0, 0.0, 1.0, -37.55, -9.2)">
    <path d="M102.15 46.75 L103.3 47.15 Q88.35 53.95 75.5 44.0 L70.9 31.95 Q85.1 36.0 98.35 29.25 91.45 41.2 102.15 46.75" fill="url(#gradient0)" fill-rule="evenodd" stroke="none"/>
    <path d="M82.5 61.55 Q97.65 67.65 111.7 58.75 L117.2 62.6 Q133.95 87.9 102.8 95.0 85.45 98.85 77.7 83.55 90.1 84.2 85.05 75.0 81.85 69.15 76.9 75.15 75.15 68.8 79.45 63.9 80.75 62.45 82.5 61.55" fill="url(#gradient1)" fill-rule="evenodd" stroke="none"/>
    <path d="M90.05 114.3 Q86.25 112.45 82.15 113.55 95.35 108.5 109.7 109.65 112.8 135.35 87.55 146.9 73.05 153.55 57.2 152.35 52.75 133.65 69.65 124.8 L71.9 123.8 Q83.2 129.6 91.1 120.1 94.2 116.45 90.05 114.3" fill="url(#gradient2)" fill-rule="evenodd" stroke="none"/>
    <path d="M78.05 54.35 L76.2 53.3 73.1 50.95 Q66.95 42.3 65.5 29.75 65.5 23.9 69.3 20.35 86.35 8.45 103.3 9.35 110.85 10.8 114.7 15.95 120.1 27.75 116.7 42.55 L115.0 45.3 Q107.95 55.1 92.9 57.75 84.2 57.5 78.05 54.35 M107.3 15.6 Q108.7 13.8 107.1 13.15 108.7 13.8 107.3 15.6 87.8 12.45 71.5 25.55 74.85 29.3 97.5 22.75 105.3 18.1 107.3 15.6 M71.1 22.75 Q70.55 24.55 71.5 25.55 70.55 24.55 71.1 22.75" fill="url(#gradient3)" fill-rule="evenodd" stroke="none"/>
    <path d="M107.3 15.6 Q105.3 18.1 97.5 22.75 74.85 29.3 71.5 25.55 87.8 12.45 107.3 15.6" fill="url(#gradient4)" fill-rule="evenodd" stroke="none"/>
    <path d="M129.15 89.35 L131.55 99.95 131.6 100.4 Q132.55 109.7 129.9 115.8 126.5 123.6 117.1 126.1 L116.9 126.4 Q106.95 142.25 88.25 153.5 L87.8 153.9 Q75.9 162.15 61.9 160.15 40.55 156.05 37.9 138.55 36.55 126.1 42.1 116.95 46.45 113.85 57.5 110.75 67.8 104.65 75.5 94.6 78.65 98.8 84.1 101.35 88.65 103.45 92.4 101.7 104.7 105.2 117.9 99.95 125.65 95.7 129.15 89.35 M118.7 123.35 L117.1 126.1 118.7 123.35" fill="url(#gradient5)" fill-rule="evenodd" stroke="none"/>
    <path d="M115.0 45.3 Q126.05 50.45 129.9 62.55 131.55 67.7 131.9 74.15 132.65 81.85 129.9 87.85 L129.15 89.35 Q125.65 95.7 117.9 99.95 104.7 105.2 92.4 101.7 88.65 103.45 84.1 101.35 78.65 98.8 75.5 94.6 71.35 89.1 71.1 80.75 70.85 63.25 78.05 54.35 84.2 57.5 92.9 57.75 107.95 55.1 115.0 45.3 M89.5 100.75 L92.4 101.7 89.5 100.75" fill="url(#gradient6)" fill-rule="evenodd" stroke="none"/>
    <path d="M78.05 54.35 L76.2 53.3 73.1 50.95 Q66.95 42.3 65.5 29.75 65.5 23.9 69.3 20.35 86.35 8.45 103.3 9.35 110.85 10.8 114.7 15.95 120.1 27.75 116.7 42.55 L115.0 45.3 Q126.05 50.45 129.9 62.55 131.55 67.7 131.9 74.15 132.65 81.85 129.9 87.85 L129.15 89.35 131.55 99.95 131.6 100.4 Q132.55 109.7 129.9 115.8 126.5 123.6 117.1 126.1 L116.9 126.4 Q106.95 142.25 88.25 153.5 L87.8 153.9 Q75.9 162.15 61.9 160.15 40.55 156.05 37.9 138.55 36.55 126.1 42.1 116.95 46.45 113.85 57.5 110.75 67.8 104.65 75.5 94.6 71.35 89.1 71.1 80.75 70.85 63.25 78.05 54.35 84.2 57.5 92.9 57.75 107.95 55.1 115.0 45.3 M107.1 13.15 Q108.7 13.8 107.3 15.6 105.3 18.1 97.5 22.75 74.85 29.3 71.5 25.55 70.55 24.55 71.1 22.75 M92.4 101.7 L89.5 100.75 M75.5 94.6 Q78.65 98.8 84.1 101.35 88.65 103.45 92.4 101.7 104.7 105.2 117.9 99.95 125.65 95.7 129.15 89.35 M117.1 126.1 L118.7 123.35" ffdec:has-small-stroke="true" ffdec:original-stroke-width="0.2" fill="none" stroke="#000000" stroke-linecap="round" stroke-linejoin="round" stroke-opacity="0.4" stroke-width="1.0"/>
    <path d="M78.4 60.65 Q72.15 70.1 72.7 81.9 74.95 84.65 77.25 81.8 76.55 73.85 82.1 62.65 82.15 57.75 78.4 60.65 M81.65 92.2 Q79.15 89.1 77.95 85.95 74.8 84.1 73.7 87.05 74.2 91.25 77.1 94.05 82.55 97.05 81.65 92.2" fill="#ffffff" fill-opacity="0.48235294" fill-rule="evenodd" stroke="none"/>
    <path d="M69.15 29.85 Q67.8 39.45 72.85 47.45 75.8 48.3 76.5 45.2 72.85 39.95 73.05 29.45 71.1 26.0 69.15 29.85 M84.2 50.45 Q80.95 49.45 78.75 47.8 75.4 48.0 75.7 50.55 77.7 53.3 81.2 53.95 86.85 53.4 84.2 50.45" fill="#ffffff" fill-opacity="0.48235294" fill-rule="evenodd" stroke="none"/>
    <path d="M105.2 10.85 Q95.1 9.3 83.95 13.0 81.75 15.35 84.85 16.05 92.3 13.35 103.95 14.0 108.65 12.7 105.2 10.85 M75.7 21.95 Q78.2 19.4 81.0 17.75 82.25 15.05 79.25 15.15 75.35 16.65 73.1 19.4 71.25 23.95 75.7 21.95" fill="#ffffff" fill-opacity="0.48235294" fill-rule="evenodd" stroke="none"/>
    <path d="M43.95 120.4 Q54.9 117.7 66.0 110.7 68.0 108.05 64.5 108.75 57.1 113.6 44.75 117.6 40.0 120.4 43.95 120.4 M73.2 100.8 L68.35 106.0 Q67.55 108.45 70.6 107.3 74.5 104.65 76.4 101.7 77.55 97.6 73.2 100.8" fill="#ffffff" fill-opacity="0.48235294" fill-rule="evenodd" stroke="none"/>
  </g>
  <defs>
    <linearGradient gradientTransform="matrix(0.008, 0.0021, -0.0036, 0.0135, 85.95, 37.8)" gradientUnits="userSpaceOnUse" id="gradient0" spreadMethod="pad" x1="-819.2" x2="819.2">
      <stop offset="0.0" stop-color="#000000" stop-opacity="0.34117648"/>
      <stop offset="1.0" stop-color="#ffffff" stop-opacity="0.0"/>
    </linearGradient>
    <linearGradient gradientTransform="matrix(0.0232, 0.0036, -0.0036, 0.0237, 106.9, 77.9)" gradientUnits="userSpaceOnUse" id="gradient1" spreadMethod="pad" x1="-819.2" x2="819.2">
      <stop offset="0.0" stop-color="#000000" stop-opacity="0.34117648"/>
      <stop offset="1.0" stop-color="#ffffff" stop-opacity="0.0"/>
    </linearGradient>
    <linearGradient gradientTransform="matrix(0.0291, 0.0, 0.0, 0.0266, 91.1, 131.35)" gradientUnits="userSpaceOnUse" id="gradient2" spreadMethod="pad" x1="-819.2" x2="819.2">
      <stop offset="0.0" stop-color="#000000" stop-opacity="0.34117648"/>
      <stop offset="1.0" stop-color="#ffffff" stop-opacity="0.0"/>
    </linearGradient>
    <linearGradient gradientTransform="matrix(-0.0266, -0.0102, 0.0113, -0.0294, 89.3, 31.2)" gradientUnits="userSpaceOnUse" id="gradient3" spreadMethod="pad" x1="-819.2" x2="819.2">
      <stop offset="0.06666666666666667" stop-color="#59be3a" stop-opacity="0.7019608"/>
      <stop offset="0.5137254901960784" stop-color="#baf57c" stop-opacity="0.7019608"/>
      <stop offset="1.0" stop-color="#d2f4d6" stop-opacity="0.6509804"/>
    </linearGradient>
    <linearGradient gradientTransform="matrix(-0.0272, -0.0017, 5.0E-4, -0.0082, 73.65, 20.05)" gradientUnits="userSpaceOnUse" id="gradient4" spreadMethod="pad" x1="-819.2" x2="819.2">
      <stop offset="0.06666666666666667" stop-color="#59be3a" stop-opacity="0.7019608"/>
      <stop offset="0.5137254901960784" stop-color="#baf57c" stop-opacity="0.7019608"/>
      <stop offset="1.0" stop-color="#d2f4d6" stop-opacity="0.6509804"/>
    </linearGradient>
    <linearGradient gradientTransform="matrix(-0.0463, 0.0057, -0.0048, -0.0392, 79.05, 126.8)" gradientUnits="userSpaceOnUse" id="gradient5" spreadMethod="pad" x1="-819.2" x2="819.2">
      <stop offset="0.06666666666666667" stop-color="#65d8f3" stop-opacity="0.7019608"/>
      <stop offset="0.5137254901960784" stop-color="#87d6f2" stop-opacity="0.7019608"/>
      <stop offset="1.0" stop-color="#d5ebf5" stop-opacity="0.6509804"/>
    </linearGradient>
    <linearGradient gradientTransform="matrix(-0.0312, -0.0103, 0.0121, -0.0365, 96.5, 72.35)" gradientUnits="userSpaceOnUse" id="gradient6" spreadMethod="pad" x1="-819.2" x2="819.2">
      <stop offset="0.06666666666666667" stop-color="#e6ba73" stop-opacity="0.7019608"/>
      <stop offset="0.5058823529411764" stop-color="#f8ddb1" stop-opacity="0.7019608"/>
      <stop offset="1.0" stop-color="#fef4e0" stop-opacity="0.6509804"/>
    </linearGradient>
  </defs>
</svg>
