<?xml version="1.0" encoding="UTF-8" standalone="no"?>
<svg xmlns:ffdec="https://www.free-decompiler.com/flash" xmlns:xlink="http://www.w3.org/1999/xlink" ffdec:objectType="shape" height="118.05px" width="92.1px" xmlns="http://www.w3.org/2000/svg">
  <g transform="matrix(1.0, 0.0, 0.0, 1.0, 6.5, -83.3)">
    <path d="M41.9 87.35 L41.8 87.25 41.8 87.15 41.9 87.05 41.9 87.35 M57.55 89.4 L58.9 90.25 Q58.35 90.55 57.9 91.15 L56.45 92.85 56.4 92.95 56.25 93.35 56.0 94.1 55.95 94.2 55.75 94.3 55.6 94.35 Q55.0 93.3 55.85 92.1 L57.0 90.45 57.55 89.4" fill="#ba1701" fill-rule="evenodd" stroke="none"/>
    <path d="M34.8 98.4 L37.4 94.15 36.1 96.65 35.35 97.55 34.8 98.4 35.35 97.55 36.1 96.65 37.4 94.15 38.75 92.05 41.9 87.45 41.9 87.35 42.1 87.4 42.25 87.45 43.1 86.9 Q45.35 85.5 47.8 85.25 L47.8 85.7 47.95 86.1 48.1 86.15 Q50.0 85.2 51.85 85.05 54.2 87.3 57.55 89.4 L57.0 90.45 55.85 92.1 Q55.0 93.3 55.6 94.35 L55.75 94.3 55.95 94.2 56.0 94.1 56.25 93.35 56.4 92.95 56.45 92.85 57.9 91.15 Q58.35 90.55 58.9 90.25 L59.3 90.45 59.3 90.5 Q60.2 91.5 60.35 92.75 60.8 96.55 57.85 99.6 56.85 100.65 57.35 101.55 L57.5 101.5 Q60.6 98.15 65.5 97.35 L66.25 97.95 66.55 98.3 Q68.25 100.25 70.3 101.85 72.75 107.35 75.85 112.3 L76.5 112.25 76.8 112.2 Q80.95 119.7 80.0 128.25 L56.25 119.1 56.05 119.6 55.85 118.9 Q53.15 111.15 45.4 106.55 L34.05 99.7 34.3 99.2 34.8 98.4 M63.35 199.45 L59.4 198.9 56.9 198.5 41.3 196.05 Q43.2 185.15 46.2 174.55 L46.6 173.2 71.25 176.95 Q70.7 183.1 67.85 188.75 65.15 194.0 63.35 199.45 M58.55 134.1 L78.15 138.55 Q76.15 146.8 73.5 155.05 72.15 159.25 71.6 163.6 L51.6 159.65 54.35 154.1 Q59.2 144.85 58.55 134.45 L58.55 134.1" fill="#ffffcc" fill-rule="evenodd" stroke="none"/>
    <path d="M41.3 196.05 L30.3 193.5 29.25 186.35 28.45 186.0 24.8 189.8 20.3 189.05 17.7 184.8 16.8 185.2 20.0 169.15 27.35 169.3 46.6 173.2 46.2 174.55 Q43.2 185.15 41.3 196.05 M19.7 169.1 L12.55 188.1 0.2 185.1 0.0 185.05 0.25 184.25 0.15 183.0 Q-0.1 182.35 -0.5 182.15 -0.9 182.0 -1.25 182.45 L-1.7 183.9 -6.0 181.7 Q-1.5 176.45 -2.2 169.4 L-2.1 165.75 19.7 169.1 M1.7 149.8 Q3.8 146.0 7.3 142.5 14.4 135.35 17.9 128.9 L19.8 125.3 36.5 129.1 58.55 134.1 58.55 134.45 Q59.2 144.85 54.35 154.1 L51.6 159.65 29.4 154.6 1.7 149.8 M28.2 108.3 L34.1 99.1 34.3 99.2 34.05 99.7 45.4 106.55 Q53.15 111.15 55.85 118.9 L47.65 115.75 28.2 108.3 M0.2 185.1 L0.25 184.25 0.2 185.1" fill="#ffffff" fill-rule="evenodd" stroke="none"/>
    <path d="M84.85 130.1 L85.1 134.15 84.55 135.65 83.2 139.7 78.15 138.55 58.55 134.1 36.5 129.1 Q32.6 121.25 47.65 115.75 L55.85 118.9 56.05 119.6 56.25 119.1 80.0 128.25 79.95 128.75 80.15 128.3 84.85 130.1 M77.6 164.8 Q76.85 170.9 76.6 177.1 L76.5 177.75 71.25 176.95 46.6 173.2 27.35 169.3 Q19.0 160.8 29.4 154.6 L51.6 159.65 71.6 163.6 77.6 164.8" fill="#5e3d15" fill-rule="evenodd" stroke="none"/>
    <path d="M20.0 169.15 L20.4 167.15 19.7 169.1 -2.1 165.75 -1.75 162.6 -1.15 158.1 Q-0.5 153.8 1.7 149.8 L29.4 154.6 Q19.0 160.8 27.35 169.3 L20.0 169.15 M19.8 125.3 L22.75 119.1 20.55 120.05 28.2 108.3 47.65 115.75 Q32.6 121.25 36.5 129.1 L19.8 125.3 M21.8 163.9 L20.4 167.15 21.8 163.9" fill="#86571e" fill-rule="evenodd" stroke="none"/>
    <path d="M41.9 87.05 L41.65 84.8 41.4 83.8 50.65 83.8 51.85 85.05 Q50.0 85.2 48.1 86.15 L47.95 86.1 47.8 85.7 47.8 85.25 Q45.35 85.5 43.1 86.9 L42.25 87.45 42.1 87.4 41.9 87.35 41.9 87.05 M59.3 90.45 Q61.35 91.65 63.75 92.75 67.2 94.35 69.3 97.35 69.2 98.6 69.75 99.7 L70.85 101.05 72.2 102.25 Q73.4 103.05 73.7 105.25 76.1 105.7 77.95 107.9 L81.9 112.7 85.1 116.65 85.1 121.0 Q84.75 125.65 84.85 130.1 L80.15 128.3 79.95 128.75 80.0 128.25 Q80.95 119.7 76.8 112.2 L76.5 112.25 75.85 112.3 Q72.75 107.35 70.3 101.85 68.25 100.25 66.55 98.3 L66.25 97.95 65.5 97.35 Q60.6 98.15 57.5 101.5 L57.35 101.55 Q56.85 100.65 57.85 99.6 60.8 96.55 60.35 92.75 60.2 91.5 59.3 90.5 L59.3 90.45 M83.2 139.7 Q79.25 152.1 77.6 164.8 L71.6 163.6 Q72.15 159.25 73.5 155.05 76.15 146.8 78.15 138.55 L83.2 139.7 M76.6 177.1 L76.6 177.75 Q76.05 189.65 73.1 200.85 L63.35 199.45 Q65.15 194.0 67.85 188.75 70.7 183.1 71.25 176.95 L76.5 177.75 76.6 177.1" fill="#d7bd6f" fill-rule="evenodd" stroke="none"/>
    <path d="M34.8 98.4 L35.35 97.55 36.1 96.65 37.4 94.15 38.75 92.05 Q39.6 90.15 40.75 88.35 L41.35 87.85 41.9 87.35 41.9 87.45 M41.9 87.05 L41.65 84.8 41.4 83.8 M85.1 134.15 L84.55 135.65 83.2 139.7 Q79.25 152.1 77.6 164.8 76.85 170.9 76.6 177.1 L76.6 177.75 Q76.05 189.65 73.1 200.85 L63.35 199.45 59.4 198.9 56.9 198.5 41.3 196.05 30.3 193.5 29.25 186.35 28.45 186.0 24.8 189.8 20.3 189.05 17.7 184.8 16.8 185.2 20.0 169.15 20.4 167.15 19.7 169.1 12.55 188.1 0.2 185.1 0.0 185.05 M0.25 184.25 L0.15 183.0 Q-0.1 182.35 -0.5 182.15 -0.9 182.0 -1.25 182.45 L-1.7 183.9 -6.0 181.7 Q-1.5 176.45 -2.2 169.4 L-2.1 165.75 -1.75 162.6 -1.15 158.1 Q-0.5 153.8 1.7 149.8 3.8 146.0 7.3 142.5 14.4 135.35 17.9 128.9 L19.8 125.3 22.75 119.1 20.55 120.05 28.2 108.3 34.1 99.1 34.8 98.4 M41.9 87.05 L41.9 87.35 M20.4 167.15 L21.8 163.9 M0.25 184.25 L0.2 185.1" fill="none" stroke="#663300" stroke-linecap="round" stroke-linejoin="round" stroke-width="1.0"/>
  </g>
</svg>
