<?xml version="1.0" encoding="UTF-8" standalone="no"?>
<svg xmlns:ffdec="https://www.free-decompiler.com/flash" xmlns:xlink="http://www.w3.org/1999/xlink" ffdec:objectType="shape" height="17.25px" width="42.9px" xmlns="http://www.w3.org/2000/svg">
  <g transform="matrix(1.0, 0.0, 0.0, 1.0, -258.0, -196.7)">
    <path d="M269.5 202.95 L268.65 205.75 Q267.05 206.4 265.65 207.3 265.4 206.25 266.45 204.85 L263.9 204.2 262.9 204.9 263.6 205.0 264.7 205.7 265.35 207.3 Q264.1 207.15 262.5 207.3 L261.0 204.5 260.65 204.75 260.4 201.25 Q261.85 201.35 264.45 202.65 266.8 200.85 269.05 199.65 268.65 201.7 268.6 203.35 L269.5 202.95" fill="#ff991e" fill-rule="evenodd" stroke="none"/>
    <path d="M269.5 202.95 Q271.2 203.85 272.2 205.4 L268.65 205.75 269.5 202.95 M262.5 207.3 Q260.45 207.5 258.0 208.45 258.45 206.5 260.65 204.75 L261.0 204.5 262.5 207.3" fill="#ffe3a4" fill-rule="evenodd" stroke="none"/>
    <path d="M262.5 207.3 Q260.45 207.5 258.0 208.45 258.45 206.5 260.65 204.75 L260.4 201.25 Q261.85 201.35 264.45 202.65 266.8 200.85 269.05 199.65 268.65 201.7 268.6 203.35 M260.65 204.75 L261.0 204.5" ffdec:has-small-stroke="true" ffdec:original-stroke-width="0.05" fill="none" stroke="#bb5306" stroke-linecap="round" stroke-linejoin="round" stroke-opacity="0.8" stroke-width="1.0"/>
    <path d="M268.65 205.75 L272.2 205.4 Q271.2 203.85 269.5 202.95 M268.65 205.75 Q267.05 206.4 265.65 207.3" ffdec:has-small-stroke="true" ffdec:original-stroke-width="0.05" fill="none" stroke="#bb5306" stroke-linecap="round" stroke-linejoin="round" stroke-opacity="0.8" stroke-width="1.0"/>
    <path d="M267.15 202.8 L269.55 202.8 Q268.9 204.5 268.3 204.95 L267.0 205.45 Q268.0 203.8 267.15 202.8 M260.7 204.25 Q261.2 205.5 262.6 206.45 L261.3 206.7 Q260.5 206.7 258.85 205.45 L260.7 204.25 M263.25 200.85 L265.4 202.05 Q263.75 202.3 262.4 203.3 L262.25 203.05 Q261.85 202.2 263.25 200.85" fill="#9c5c00" fill-rule="evenodd" stroke="none"/>
    <path d="M259.7 201.8 Q261.65 203.2 263.75 203.85 263.7 205.95 263.05 206.05 260.9 204.65 259.7 201.8" fill="#624e2f" fill-rule="evenodd" stroke="none"/>
    <path d="M263.05 206.05 Q261.6 206.35 260.55 205.55 259.15 203.45 259.7 201.8 260.9 204.65 263.05 206.05" fill="url(#gradient0)" fill-rule="evenodd" stroke="none"/>
    <path d="M263.9 199.5 Q266.45 201.75 266.4 203.7 L261.75 203.85 Q263.95 201.95 263.9 199.5" fill="#624e2f" fill-rule="evenodd" stroke="none"/>
    <path d="M263.9 199.5 Q266.45 200.9 267.15 203.15 266.95 203.7 266.4 203.7 266.45 201.75 263.9 199.5" fill="url(#gradient1)" fill-rule="evenodd" stroke="none"/>
    <path d="M265.75 205.4 L264.7 205.2 Q266.7 203.0 267.75 200.15 267.1 203.9 265.75 205.4" fill="#624e2f" fill-rule="evenodd" stroke="none"/>
    <path d="M265.75 205.4 Q267.1 203.9 267.75 200.15 268.55 201.75 268.05 204.25 267.4 205.45 265.75 205.4" fill="url(#gradient2)" fill-rule="evenodd" stroke="none"/>
    <path d="M266.0 205.05 Q265.45 205.9 264.45 206.1 263.5 206.25 262.65 205.65 261.85 205.15 261.65 204.2 261.5 203.2 262.05 202.3 262.6 201.5 263.55 201.35 264.55 201.15 265.4 201.7 266.25 202.3 266.4 203.3 266.6 204.25 266.0 205.05" fill="#ffd919" fill-rule="evenodd" stroke="none"/>
    <path d="M265.35 202.45 L265.05 202.75 264.55 202.6 264.05 202.2 263.85 201.7 264.1 201.4 264.65 201.55 Q265.0 201.7 265.2 202.0 L265.35 202.45" fill="#fff8df" fill-rule="evenodd" stroke="none"/>
    <path d="M264.2 206.6 L262.3 206.7 Q262.3 205.1 263.8 203.15 265.75 203.65 266.9 205.7 265.7 206.4 264.2 206.6" fill="url(#gradient3)" fill-rule="evenodd" stroke="none"/>
    <path d="M267.75 205.2 Q265.95 206.55 265.25 206.5 L267.0 204.55 267.75 205.2 M261.3 206.4 L261.7 205.6 Q262.65 206.3 264.2 206.85 L261.3 206.4" fill="#886c51" fill-rule="evenodd" stroke="none"/>
    <path d="M288.3 200.15 L288.15 199.95 Q287.6 199.25 287.6 198.45 287.6 198.15 287.9 198.25 L288.35 198.5 Q288.95 199.1 289.2 199.85 289.1 198.9 289.4 198.0 289.5 197.65 289.85 197.6 290.7 197.5 291.1 198.3 292.1 198.3 291.9 199.45 L291.65 200.15 292.5 199.9 292.85 199.9 Q294.1 200.2 293.6 201.2 L293.25 201.7 292.75 201.95 Q293.4 202.75 293.15 203.55 L293.0 203.65 Q292.15 203.9 291.55 203.35 L291.55 203.3 Q291.75 202.3 290.95 201.65 L290.9 201.6 290.7 201.4 290.9 201.6 290.85 201.55 290.7 201.4 290.65 201.35 290.7 201.0 290.8 200.5 Q290.9 200.15 290.65 200.05 L290.6 200.1 290.6 200.2 290.55 200.3 290.35 200.7 290.25 200.85 290.05 200.65 289.85 200.55 289.4 200.65 288.3 200.15 M290.2 203.0 L290.2 203.05 290.2 203.0 M291.3 201.3 L291.0 201.45 291.05 201.6 Q292.15 201.45 293.0 200.7 L293.05 200.6 292.95 200.5 292.8 200.45 292.75 200.5 Q291.9 200.7 291.3 201.3 M291.7 202.05 L291.7 202.1 292.2 201.95 291.7 202.05 M292.2 201.95 L292.75 201.95 292.2 201.95 M290.8 198.65 Q290.05 199.3 289.95 200.25 L290.3 200.55 290.7 199.95 Q290.95 199.25 290.8 198.65" fill="#b8c7fe" fill-rule="evenodd" stroke="none"/>
    <path d="M291.55 203.35 L291.15 202.8 290.7 202.75 290.2 203.0 290.3 202.75 Q290.4 202.3 290.05 202.15 L290.0 202.15 289.85 202.2 289.7 202.35 289.1 202.75 Q289.6 201.55 288.75 200.55 L288.6 200.45 288.3 200.15 289.4 200.65 289.85 200.55 290.05 200.65 290.25 200.85 290.15 201.0 289.8 200.75 290.15 201.0 290.5 201.25 290.65 201.35 290.7 201.4 290.65 201.35 290.7 201.4 290.85 201.55 290.9 201.6 290.95 201.65 Q291.75 202.3 291.55 203.3 L291.55 203.35 M290.2 202.75 L290.05 202.9 289.95 202.9 289.95 202.75 290.0 202.75 290.2 202.8 290.2 202.75 M291.3 201.3 Q291.9 200.7 292.75 200.5 L292.8 200.45 292.95 200.5 293.05 200.6 293.0 200.7 Q292.15 201.45 291.05 201.6 L291.0 201.45 291.3 201.3 M290.8 198.65 Q290.95 199.25 290.7 199.95 L290.3 200.55 289.95 200.25 Q290.05 199.3 290.8 198.65" fill="#838fcd" fill-rule="evenodd" stroke="none"/>
    <path d="M288.25 210.4 L288.15 210.35 288.15 210.3 288.1 210.1 288.1 210.0 288.15 209.8 288.15 209.2 288.05 208.3 288.05 208.1 287.85 207.45 Q288.5 208.2 288.45 209.3 L288.25 210.4 M287.5 206.5 L287.55 206.5 287.75 206.5 287.9 206.4 287.95 206.2 288.1 205.15 288.1 206.45 288.05 206.55 288.1 206.6 288.0 207.05 287.75 206.9 287.5 206.5 M287.8 203.15 L287.85 202.95 287.85 203.1 287.95 203.3 288.15 203.65 288.35 203.4 288.35 203.35 288.45 202.9 288.45 202.75 288.5 201.95 288.8 202.4 288.85 202.4 288.8 203.1 288.6 203.9 288.45 204.0 288.4 204.05 Q288.0 203.9 287.85 203.3 L287.8 203.15" fill="#00b300" fill-rule="evenodd" stroke="none"/>
    <path d="M290.05 202.9 L289.9 203.1 289.9 203.15 Q289.65 203.05 289.55 203.25 L289.55 203.3 289.4 203.8 289.35 203.85 288.85 204.5 288.85 204.65 Q288.65 205.15 288.6 205.7 L288.65 206.25 288.7 206.45 288.75 208.5 288.8 208.65 288.8 209.05 288.8 209.15 288.85 210.1 288.85 210.25 288.75 210.4 288.45 210.45 288.25 210.4 288.45 209.3 Q288.5 208.2 287.85 207.45 L287.45 206.55 287.4 206.45 287.5 206.5 287.75 206.9 288.0 207.05 288.1 206.6 288.05 206.55 288.1 206.45 288.1 205.15 288.1 204.7 288.05 204.6 287.8 203.55 287.8 203.45 287.8 203.15 287.85 203.3 Q288.0 203.9 288.4 204.05 L288.45 204.0 288.6 203.9 288.8 203.1 288.85 202.4 288.8 202.4 288.5 201.95 288.5 201.7 288.5 201.15 288.75 200.55 Q289.6 201.55 289.1 202.75 L289.7 202.35 289.7 202.7 289.7 202.8 289.75 202.8 289.95 202.75 289.95 202.9 290.05 202.9" fill="#006600" fill-rule="evenodd" stroke="none"/>
    <path d="M290.25 200.85 L290.35 200.7 290.55 200.3 290.6 200.2 290.6 200.1 290.65 200.05 Q290.9 200.15 290.8 200.5 L290.7 201.0 290.65 201.35 290.5 201.25 290.15 201.0 290.25 200.85" fill="#696f99" fill-rule="evenodd" stroke="none"/>
    <path d="M288.3 200.15 L288.15 199.95 Q287.6 199.25 287.6 198.45 287.6 198.15 287.9 198.25 L288.35 198.5 Q288.95 199.1 289.2 199.85 289.1 198.9 289.4 198.0 289.5 197.65 289.85 197.6 290.7 197.5 291.1 198.3 292.1 198.3 291.9 199.45 L291.65 200.15 292.5 199.9 292.85 199.9 Q294.1 200.2 293.6 201.2 L293.25 201.7 292.75 201.95 Q293.4 202.75 293.15 203.55 L293.0 203.65 Q292.15 203.9 291.55 203.35 L291.15 202.8 290.7 202.75 290.2 203.0 290.2 203.05 290.2 203.0 290.3 202.75 290.25 202.75 290.2 202.75 290.05 202.9 289.9 203.1 289.9 203.15 Q289.65 203.05 289.55 203.25 L289.55 203.3 289.4 203.8 289.35 203.85 288.85 204.5 288.85 204.65 Q288.65 205.15 288.6 205.7 L288.65 206.25 288.7 206.45 288.75 208.5 288.8 208.65 288.8 209.05 288.8 209.15 288.85 210.1 288.85 210.25 288.75 210.4 288.45 210.45 288.25 210.4 288.15 210.35 288.15 210.3 288.1 210.1 288.1 210.0 288.15 209.8 288.15 209.2 288.05 208.3 288.05 208.1 287.85 207.45 287.45 206.55 287.4 206.45 287.5 206.5 287.55 206.5 287.75 206.5 287.9 206.4 287.95 206.2 288.1 205.15 288.1 204.7 288.05 204.6 287.8 203.55 287.8 203.45 287.8 203.15 287.85 202.95 287.85 203.1 287.95 203.3 288.15 203.65 288.35 203.4 288.35 203.35 288.45 202.9 288.45 202.75 288.5 201.95 288.5 201.7 288.5 201.15 288.75 200.55 288.6 200.45 288.3 200.15 M290.25 200.85 L290.35 200.7 290.55 200.3 290.6 200.2 290.6 200.1 290.65 200.05 Q290.9 200.15 290.8 200.5 L290.7 201.0 290.65 201.35 290.5 201.25 290.15 201.0 290.25 200.85 M290.7 201.4 L290.9 201.6 290.95 201.65 M291.7 202.05 L291.7 202.1 292.2 201.95 291.7 202.05 M292.75 201.95 L292.2 201.95 M289.8 200.75 L290.15 201.0 M290.7 201.4 L290.65 201.35 M290.3 202.75 Q290.4 202.3 290.05 202.15 L290.0 202.15 289.85 202.2 289.7 202.35 289.7 202.7 289.7 202.8 289.75 202.8 289.95 202.75 290.0 202.75 290.2 202.8 290.2 202.75 M289.7 202.35 L289.1 202.75 Q289.6 201.55 288.75 200.55" ffdec:has-small-stroke="true" ffdec:original-stroke-width="0.05" fill="none" stroke="#000000" stroke-linecap="round" stroke-linejoin="round" stroke-opacity="0.6" stroke-width="1.0"/>
    <path d="M275.45 199.4 L275.7 199.25 277.1 198.25 Q277.3 198.0 277.05 197.95 L276.5 198.0 Q275.7 198.3 274.95 198.85 L276.05 197.25 Q276.2 197.0 275.95 196.85 275.35 196.45 274.45 197.0 273.75 196.7 273.2 197.7 L272.9 198.4 272.45 197.9 272.15 197.8 Q271.1 197.65 270.75 198.65 L270.7 199.15 270.9 199.5 Q270.0 199.95 269.6 200.65 L269.65 200.85 271.0 201.0 271.05 200.95 Q271.5 200.1 272.5 199.8 L272.65 199.75 272.8 199.7 272.65 199.75 272.7 199.8 272.8 199.7 272.9 199.65 273.1 199.3 273.3 198.9 273.75 198.55 273.75 198.6 273.75 198.7 273.7 198.8 273.55 199.25 273.55 199.35 273.85 199.25 273.95 199.3 274.05 199.25 274.4 199.4 275.45 199.4 M274.15 199.0 L273.75 199.1 273.85 198.5 Q274.0 197.85 274.55 197.35 L274.5 197.4 Q274.7 198.15 274.15 199.0 M272.6 199.65 Q272.55 199.65 272.45 199.75 271.65 199.25 271.55 198.4 L271.6 198.35 271.7 198.25 271.85 198.25 271.85 198.3 Q272.4 198.7 272.45 199.4 L272.6 199.65 M271.7 199.95 L271.35 199.65 271.65 199.9 271.7 199.95 M271.35 199.65 L270.9 199.5 271.35 199.65" fill="#b8c7fe" fill-rule="evenodd" stroke="none"/>
    <path d="M274.9 199.6 L275.1 199.55 275.45 199.4 274.4 199.4 274.05 199.25 273.95 199.3 273.85 199.25 273.55 199.35 273.5 199.5 273.95 199.3 273.5 199.5 273.2 199.6 272.95 199.7 272.9 199.65 272.8 199.7 272.7 199.8 272.65 199.75 272.5 199.8 Q271.5 200.1 271.05 200.95 L271.0 201.0 271.6 200.7 272.0 200.75 272.2 201.15 272.35 200.9 Q272.55 200.5 272.9 200.45 L272.95 200.5 273.05 200.6 273.05 200.75 273.2 201.3 Q273.6 200.15 274.9 199.6 M272.35 201.0 L272.4 201.05 272.4 201.15 272.45 201.1 272.6 201.0 272.35 200.95 272.35 201.0 M272.9 199.65 L272.95 199.7 272.9 199.65 M274.15 199.0 Q274.7 198.15 274.5 197.4 L274.55 197.35 Q274.0 197.85 273.85 198.5 L273.75 199.1 274.15 199.0 M272.6 199.65 L272.45 199.4 Q272.4 198.7 271.85 198.3 L271.85 198.25 271.7 198.25 271.6 198.35 271.55 198.4 Q271.65 199.25 272.45 199.75 272.55 199.65 272.6 199.65" fill="#838fcd" fill-rule="evenodd" stroke="none"/>
    <path d="M269.0 207.85 L269.15 207.8 269.2 207.75 269.3 207.6 269.35 207.5 269.5 207.35 269.85 206.9 270.5 206.15 270.65 206.0 271.15 205.55 Q270.25 205.9 269.55 206.9 L269.0 207.85 M272.05 204.85 L272.05 204.8 271.9 204.75 271.85 204.65 271.9 204.5 272.5 203.55 Q272.0 203.95 271.65 204.6 L271.65 204.7 271.6 204.75 271.35 205.15 271.55 205.1 272.05 204.85 M273.95 202.0 L274.05 201.85 273.95 201.9 273.7 202.1 273.35 202.3 273.4 202.05 273.4 202.0 273.65 201.6 273.65 201.5 274.15 200.75 273.65 201.05 273.65 201.1 273.25 201.65 272.85 202.4 272.85 202.5 272.95 202.5 Q273.4 202.5 273.85 202.05 L273.95 202.0" fill="#00b300" fill-rule="evenodd" stroke="none"/>
    <path d="M272.4 201.15 L272.4 201.35 272.55 201.5 272.45 201.6 272.35 202.0 272.35 202.1 272.3 202.75 272.25 202.85 271.7 203.85 271.35 204.3 271.2 204.4 269.8 206.1 269.75 206.25 269.45 206.55 269.35 206.65 268.8 207.4 268.65 207.55 268.6 207.7 268.8 207.85 269.0 207.85 269.55 206.9 Q270.25 205.9 271.15 205.55 L272.05 204.9 272.15 204.85 272.05 204.85 271.55 205.1 271.35 205.15 271.6 204.75 271.65 204.7 271.65 204.6 Q272.0 203.95 272.5 203.55 L272.8 203.2 272.9 203.1 273.75 202.3 273.8 202.2 273.95 202.0 273.85 202.05 Q273.4 202.5 272.95 202.5 L272.85 202.5 272.85 202.4 273.25 201.65 273.65 201.1 273.65 201.05 274.15 200.75 274.3 200.6 274.7 200.15 274.9 199.6 Q273.6 200.15 273.2 201.3 L273.05 200.75 272.8 201.05 272.75 201.15 272.7 201.15 272.6 201.0 272.45 201.1 272.4 201.15" fill="#006600" fill-rule="evenodd" stroke="none"/>
    <path d="M273.55 199.35 L273.55 199.25 273.7 198.8 273.75 198.7 273.75 198.6 273.75 198.55 273.3 198.9 273.1 199.3 272.9 199.65 272.95 199.7 273.2 199.6 273.5 199.5 273.55 199.35" fill="#696f99" fill-rule="evenodd" stroke="none"/>
    <path d="M274.9 199.6 L275.1 199.55 275.45 199.4 275.7 199.25 277.1 198.25 Q277.3 198.0 277.05 197.95 L276.5 198.0 Q275.7 198.3 274.95 198.85 L276.05 197.25 Q276.2 197.0 275.95 196.85 275.35 196.45 274.45 197.0 273.75 196.7 273.2 197.7 L272.9 198.4 272.45 197.9 272.15 197.8 Q271.1 197.65 270.75 198.65 L270.7 199.15 270.9 199.5 Q270.0 199.95 269.6 200.65 L269.65 200.85 271.0 201.0 271.6 200.7 272.0 200.75 272.2 201.15 272.35 200.9 272.35 201.0 272.4 201.05 272.4 201.15 272.4 201.35 272.55 201.5 272.45 201.6 272.35 202.0 272.35 202.1 272.3 202.75 272.25 202.85 271.7 203.85 271.35 204.3 271.2 204.4 269.8 206.1 269.75 206.25 269.45 206.55 269.35 206.65 268.8 207.4 268.65 207.55 268.6 207.7 268.8 207.85 269.0 207.85 269.15 207.8 269.2 207.75 269.3 207.6 269.35 207.5 269.5 207.35 269.85 206.9 270.5 206.15 270.65 206.0 271.15 205.55 272.05 204.9 272.15 204.85 272.05 204.85 272.05 204.8 271.9 204.75 271.85 204.65 271.9 204.5 272.5 203.55 272.8 203.2 272.9 203.1 273.75 202.3 273.8 202.2 273.95 202.0 274.05 201.85 273.95 201.9 273.7 202.1 273.35 202.3 273.4 202.05 273.4 202.0 273.65 201.6 273.65 201.5 274.15 200.75 274.3 200.6 274.7 200.15 274.9 199.6 Q273.6 200.15 273.2 201.3 L273.05 200.75 273.05 200.6 272.95 200.5 272.9 200.45 Q272.55 200.5 272.35 200.9 M273.55 199.35 L273.55 199.25 273.7 198.8 273.75 198.7 273.75 198.6 273.75 198.55 273.3 198.9 273.1 199.3 272.9 199.65 272.8 199.7 272.65 199.75 272.5 199.8 M273.95 199.3 L273.5 199.5 273.55 199.35 M272.95 199.7 L272.9 199.65 272.95 199.7 273.2 199.6 273.5 199.5 M273.05 200.75 L272.8 201.05 272.75 201.15 272.7 201.15 272.6 201.0 272.35 200.95 272.35 201.0 M271.7 199.95 L271.35 199.65 271.65 199.9 271.7 199.95 M270.9 199.5 L271.35 199.65" ffdec:has-small-stroke="true" ffdec:original-stroke-width="0.05" fill="none" stroke="#000000" stroke-linecap="round" stroke-linejoin="round" stroke-opacity="0.6" stroke-width="1.0"/>
    <path d="M292.8 202.25 L291.65 204.9 292.85 208.05 Q293.7 207.4 293.85 205.65 L296.2 206.85 296.55 208.05 295.9 207.75 294.6 207.45 293.05 208.25 Q294.2 208.95 295.2 210.1 L298.25 209.0 298.3 209.45 Q299.25 208.25 300.8 207.0 299.6 206.1 296.85 205.3 296.25 202.45 295.3 200.05 L293.25 203.15 292.8 202.25" fill="#ff991e" fill-rule="evenodd" stroke="none"/>
    <path d="M292.8 202.25 Q290.95 201.8 289.15 202.3 290.8 203.6 291.65 204.9 L292.8 202.25 M295.2 210.1 L297.85 213.95 Q298.75 212.25 298.3 209.45 L298.25 209.0 295.2 210.1" fill="#ffe3a4" fill-rule="evenodd" stroke="none"/>
    <path d="M295.2 210.1 L297.85 213.95 Q298.75 212.25 298.3 209.45 299.25 208.25 300.8 207.0 299.6 206.1 296.85 205.3 296.25 202.45 295.3 200.05 L293.25 203.15 M298.3 209.45 L298.25 209.0" ffdec:has-small-stroke="true" ffdec:original-stroke-width="0.05" fill="none" stroke="#bb5306" stroke-linecap="round" stroke-linejoin="round" stroke-opacity="0.8" stroke-width="1.0"/>
    <path d="M291.65 204.9 Q290.8 203.6 289.15 202.3 290.95 201.8 292.8 202.25 M291.65 204.9 L292.85 208.05" ffdec:has-small-stroke="true" ffdec:original-stroke-width="0.05" fill="none" stroke="#bb5306" stroke-linecap="round" stroke-linejoin="round" stroke-opacity="0.8" stroke-width="1.0"/>
    <path d="M294.65 203.65 L292.8 202.1 Q292.2 203.75 292.4 204.55 L293.0 205.75 Q293.4 203.85 294.65 203.65 M298.55 209.0 Q297.35 209.65 295.65 209.35 L296.5 210.4 Q297.1 210.95 299.15 211.05 L298.55 209.0 M298.9 204.7 L296.45 204.25 Q297.55 205.5 297.95 207.15 L298.25 207.05 Q299.05 206.7 298.9 204.7" fill="#9c5c00" fill-rule="evenodd" stroke="none"/>
    <path d="M300.9 207.8 Q298.55 207.6 296.55 206.7 295.2 208.25 295.6 208.75 298.15 209.1 300.9 207.8" fill="#624e2f" fill-rule="evenodd" stroke="none"/>
    <path d="M295.6 208.75 Q296.45 210.0 297.8 210.0 300.25 209.4 300.9 207.8 298.15 209.1 295.6 208.75" fill="url(#gradient4)" fill-rule="evenodd" stroke="none"/>
    <path d="M299.25 203.25 Q295.9 203.3 294.6 204.8 295.65 206.4 298.0 208.0 297.65 205.1 299.25 203.25" fill="#624e2f" fill-rule="evenodd" stroke="none"/>
    <path d="M299.25 203.25 Q296.4 202.7 294.4 203.9 294.2 204.45 294.6 204.8 295.9 203.3 299.25 203.25" fill="url(#gradient5)" fill-rule="evenodd" stroke="none"/>
    <path d="M294.05 206.5 L294.9 207.1 Q294.85 204.05 295.95 201.25 293.95 204.5 294.05 206.5" fill="#624e2f" fill-rule="evenodd" stroke="none"/>
    <path d="M294.05 206.5 Q293.95 204.5 295.95 201.25 294.25 201.9 293.0 204.15 292.75 205.5 294.05 206.5" fill="url(#gradient6)" fill-rule="evenodd" stroke="none"/>
    <path d="M294.05 206.1 Q293.85 207.1 294.5 207.9 295.1 208.65 296.15 208.75 297.15 208.85 297.9 208.25 298.7 207.6 298.85 206.6 298.9 205.65 298.3 204.9 297.65 204.1 296.75 203.95 295.7 203.85 294.9 204.5 294.15 205.1 294.05 206.1" fill="#ffd919" fill-rule="evenodd" stroke="none"/>
    <path d="M296.25 204.65 Q296.05 204.85 296.2 205.0 L296.75 205.3 297.4 205.3 297.85 205.05 297.9 204.65 Q297.75 204.45 297.35 204.4 L296.7 204.4 Q296.35 204.45 296.25 204.65" fill="#fff8df" fill-rule="evenodd" stroke="none"/>
    <path d="M294.35 208.45 L295.75 209.75 Q296.8 208.55 296.95 206.15 L292.95 205.95 Q293.4 207.25 294.35 208.45" fill="url(#gradient7)" fill-rule="evenodd" stroke="none"/>
    <path d="M292.65 205.05 Q293.1 207.3 293.65 207.7 L293.6 205.05 292.65 205.05 M296.65 210.25 L296.95 209.35 Q295.75 209.25 294.2 208.6 294.45 209.2 296.65 210.25" fill="#886c51" fill-rule="evenodd" stroke="none"/>
  </g>
  <defs>
    <linearGradient gradientTransform="matrix(-7.0E-4, -0.0015, 0.0012, -5.0E-4, 261.05, 204.3)" gradientUnits="userSpaceOnUse" id="gradient0" spreadMethod="pad" x1="-819.2" x2="819.2">
      <stop offset="0.06666666666666667" stop-color="#fadcc0"/>
      <stop offset="1.0" stop-color="#ffffff"/>
    </linearGradient>
    <linearGradient gradientTransform="matrix(-6.0E-4, -0.0013, 9.0E-4, -4.0E-4, 265.8, 201.9)" gradientUnits="userSpaceOnUse" id="gradient1" spreadMethod="pad" x1="-819.2" x2="819.2">
      <stop offset="0.06666666666666667" stop-color="#fadcc0"/>
      <stop offset="1.0" stop-color="#ffffff"/>
    </linearGradient>
    <linearGradient gradientTransform="matrix(2.0E-4, -0.0017, 0.0013, 2.0E-4, 267.15, 203.05)" gradientUnits="userSpaceOnUse" id="gradient2" spreadMethod="pad" x1="-819.2" x2="819.2">
      <stop offset="0.06666666666666667" stop-color="#fadcc0"/>
      <stop offset="1.0" stop-color="#ffffff"/>
    </linearGradient>
    <linearGradient gradientTransform="matrix(-2.0E-4, -0.0011, 0.0028, -4.0E-4, 264.4, 205.3)" gradientUnits="userSpaceOnUse" id="gradient3" spreadMethod="pad" x1="-819.2" x2="819.2">
      <stop offset="0.06666666666666667" stop-color="#fadcc0"/>
      <stop offset="1.0" stop-color="#ffffff"/>
    </linearGradient>
    <linearGradient gradientTransform="matrix(0.0015, -7.0E-4, -5.0E-4, -0.0012, 298.25, 208.75)" gradientUnits="userSpaceOnUse" id="gradient4" spreadMethod="pad" x1="-819.2" x2="819.2">
      <stop offset="0.06666666666666667" stop-color="#fadcc0"/>
      <stop offset="1.0" stop-color="#ffffff"/>
    </linearGradient>
    <linearGradient gradientTransform="matrix(0.0013, -6.0E-4, -4.0E-4, -9.0E-4, 296.25, 203.85)" gradientUnits="userSpaceOnUse" id="gradient5" spreadMethod="pad" x1="-819.2" x2="819.2">
      <stop offset="0.06666666666666667" stop-color="#fadcc0"/>
      <stop offset="1.0" stop-color="#ffffff"/>
    </linearGradient>
    <linearGradient gradientTransform="matrix(9.0E-4, -0.0015, -0.0011, -7.0E-4, 294.45, 203.85)" gradientUnits="userSpaceOnUse" id="gradient6" spreadMethod="pad" x1="-819.2" x2="819.2">
      <stop offset="0.06666666666666667" stop-color="#fadcc0"/>
      <stop offset="1.0" stop-color="#ffffff"/>
    </linearGradient>
    <linearGradient gradientTransform="matrix(9.0E-4, -7.0E-4, -0.0018, -0.0022, 295.1, 207.3)" gradientUnits="userSpaceOnUse" id="gradient7" spreadMethod="pad" x1="-819.2" x2="819.2">
      <stop offset="0.06666666666666667" stop-color="#fadcc0"/>
      <stop offset="1.0" stop-color="#ffffff"/>
    </linearGradient>
  </defs>
</svg>
