<?xml version="1.0" encoding="UTF-8" standalone="no"?>
<svg xmlns:ffdec="https://www.free-decompiler.com/flash" xmlns:xlink="http://www.w3.org/1999/xlink" ffdec:objectType="shape" height="25.45px" width="52.35px" xmlns="http://www.w3.org/2000/svg">
  <g transform="matrix(1.0, 0.0, 0.0, 1.0, 26.55, 7.4)">
    <path d="M20.0 3.1 L19.8 2.8 20.4 2.35 20.0 3.1" fill="#7d4f44" fill-rule="evenodd" stroke="none"/>
    <path d="M25.75 2.9 L25.75 4.0 25.4 4.4 24.45 5.5 21.8 6.0 21.05 5.25 21.1 4.65 20.95 4.6 19.55 4.0 20.0 3.1 20.4 2.35 23.6 0.2 24.5 1.1 24.65 4.15 25.75 2.9 M23.65 4.75 L22.25 5.1 21.1 4.65 22.25 5.1 23.65 4.75 23.85 5.45 24.2 5.15 24.25 4.45 23.65 4.75 M24.65 4.15 L24.45 4.3 24.25 4.45 24.45 4.3 24.65 4.15 M23.3 3.1 L23.55 4.05 24.15 3.5 24.0 2.65 23.3 3.1" fill="#4a3128" fill-rule="evenodd" stroke="none"/>
    <path d="M23.65 4.75 L24.25 4.45 24.2 5.15 23.85 5.45 23.65 4.75 M23.3 3.1 L24.0 2.65 24.15 3.5 23.55 4.05 23.3 3.1" fill="#f0e1c1" fill-rule="evenodd" stroke="none"/>
    <path d="M20.75 12.1 L20.55 12.25 19.4 11.55 19.4 10.05 19.35 4.65 21.05 5.25 20.75 12.1" fill="#4d342b" fill-rule="evenodd" stroke="none"/>
    <path d="M23.45 10.75 L20.75 12.1 21.05 5.25 21.8 6.0 24.45 5.5 25.4 4.4 25.05 8.4 23.45 10.75" fill="#7b5344" fill-rule="evenodd" stroke="none"/>
    <path d="M25.2 0.5 L25.8 0.85 25.75 2.9 24.65 4.15 24.5 1.1 23.6 0.2 24.1 -0.15 25.2 0.5" fill="#6a483c" fill-rule="evenodd" stroke="none"/>
    <path d="M19.55 4.0 L20.95 4.6 21.1 4.65 21.05 5.25 19.35 4.65 19.35 4.4 19.55 4.0" fill="#2f1f1a" fill-rule="evenodd" stroke="none"/>
    <path d="M25.75 4.0 L25.6 8.7 24.65 10.1 23.45 10.75 25.05 8.4 25.4 4.4 25.75 4.0" fill="#ad7d6b" fill-rule="evenodd" stroke="none"/>
    <path d="M-25.2 5.9 L-25.2 -7.4 -24.0 -7.4 -23.6 -5.75 Q-23.05 -4.3 -21.65 -3.05 L-20.25 -2.0 Q-19.2 -1.2 -17.5 -0.5 -15.55 0.35 -14.7 0.6 L-13.55 1.0 Q-7.7 2.75 -0.15 2.8 L6.65 2.4 10.9 1.65 11.95 1.35 14.8 0.45 18.45 -1.15 21.2 -2.95 21.25 -3.0 Q22.75 -4.3 23.3 -5.75 L23.7 -7.4 25.2 -7.4 25.2 0.5 24.1 -0.15 23.6 0.2 20.4 2.35 19.8 2.8 20.0 3.1 19.55 4.0 19.35 4.4 19.35 4.65 19.4 10.05 -25.15 6.35 -25.2 5.9 M18.95 3.75 L19.55 4.0 18.95 3.75" fill="#ab8129" fill-rule="evenodd" stroke="none"/>
    <path d="M25.2 -7.4 L25.2 0.5 M-25.15 6.35 L-25.2 5.9" ffdec:has-small-stroke="true" ffdec:original-stroke-width="0.05" fill="none" stroke="#000000" stroke-linecap="round" stroke-linejoin="round" stroke-width="1.0"/>
    <path d="M25.2 0.5 L25.8 0.85 25.75 2.9 25.75 4.0 25.6 8.7 24.65 10.1 23.45 10.75 20.75 12.1 20.55 12.25 19.7 12.65 M19.35 4.65 L19.4 10.05 19.4 11.55 20.55 12.25 M20.4 2.35 L23.6 0.2 24.1 -0.15 25.2 0.5 M19.35 4.65 L19.35 4.4 19.55 4.0 20.0 3.1 20.4 2.35 19.8 2.8" ffdec:has-small-stroke="true" ffdec:original-stroke-width="0.05" fill="none" stroke="#000000" stroke-linecap="round" stroke-linejoin="round" stroke-opacity="0.3019608" stroke-width="1.0"/>
    <path d="M24.65 4.15 L25.75 2.9 M19.55 4.0 L20.95 4.6 21.1 4.65 22.25 5.1 23.65 4.75 24.25 4.45 24.45 4.3 24.65 4.15 M21.05 5.25 L20.75 12.1 M21.1 4.65 L21.05 5.25 M23.65 4.75 L23.85 5.45 24.2 5.15 24.25 4.45 M23.3 3.1 L24.0 2.65 24.15 3.5 23.55 4.05 23.3 3.1 M19.55 4.0 L18.95 3.75 M20.0 3.1 L19.8 2.8" ffdec:has-small-stroke="true" ffdec:original-stroke-width="0.05" fill="none" stroke="#000000" stroke-linecap="round" stroke-linejoin="round" stroke-opacity="0.3019608" stroke-width="1.0"/>
    <path d="M9.25 3.45 L9.95 3.35 9.95 3.4 9.25 3.45" fill="#a77958" fill-rule="evenodd" stroke="none"/>
    <path d="M14.65 15.5 L8.75 17.05 8.65 17.1 7.5 17.25 6.85 17.3 -1.65 17.55 -0.25 16.5 0.5 12.9 1.2 12.6 Q4.3 12.95 7.25 12.55 L7.25 12.45 9.15 12.25 9.15 12.4 9.75 12.35 9.75 12.1 Q13.85 11.1 17.75 8.9 L17.75 9.0 17.5 12.6 Q17.35 13.4 16.5 14.0 15.6 14.5 14.65 15.5 M-13.6 15.95 L-17.95 14.45 -20.4 13.2 Q-21.9 11.85 -22.25 10.4 L-22.35 9.45 -22.3 6.45 Q-19.3 9.3 -16.1 9.55 L-16.1 9.65 -16.15 10.1 -15.15 10.7 -14.95 10.8 -14.9 10.9 -14.85 11.0 -14.9 11.0 -14.65 14.25 -13.6 15.95 M-22.1 -1.4 L-20.45 -0.3 -17.95 0.95 -17.4 1.2 -14.7 2.2 -13.65 2.5 -10.3 3.3 -10.15 3.35 Q-10.1 3.7 -8.5 3.95 L-8.45 4.6 Q-10.95 4.4 -12.85 5.45 -14.6 6.45 -15.05 8.15 L-15.15 8.7 -15.15 9.05 -15.6 9.3 -16.05 9.25 Q-19.45 8.6 -22.3 5.95 L-22.1 -1.4 M-18.85 4.85 L-18.85 2.7 -18.85 4.85 M-12.8 8.7 L-12.85 8.75 -12.85 8.7 -12.8 8.7 M-15.65 6.05 L-16.6 6.85 -15.65 6.05 M-13.8 13.85 L-13.75 13.75 -13.6 13.6 -13.75 13.95 -13.9 13.95 -13.8 13.85" fill="#4a3128" fill-rule="evenodd" stroke="none"/>
    <path d="M21.55 1.6 L20.4 2.35 19.35 4.4 19.4 7.4 17.85 8.5 17.8 8.55 17.8 8.4 Q17.8 8.2 17.85 8.5 L18.2 0.75 21.55 -1.1 21.55 1.6 M19.4 7.85 L19.4 11.55 20.75 11.95 20.85 11.95 18.8 14.0 17.7 14.45 16.35 15.05 14.65 15.5 Q15.6 14.5 16.5 14.0 17.35 13.4 17.5 12.6 L17.75 9.0 19.4 7.85" fill="#2f1f1a" fill-rule="evenodd" stroke="none"/>
    <path d="M21.55 -1.1 Q23.95 -2.8 24.75 -4.8 L25.1 -6.6 25.1 0.45 24.1 -0.15 21.55 1.6 21.55 -1.1 M19.4 7.4 L19.4 7.85 17.75 9.0 17.75 8.9 Q13.85 11.1 9.75 12.1 L9.8 11.6 Q13.7 10.65 17.4 8.65 L17.8 8.4 17.8 8.55 17.85 8.5 19.4 7.4 M20.75 11.95 L20.8 11.75 23.45 10.75 23.3 10.9 21.15 12.65 18.8 14.0 20.85 11.95 20.75 11.95 M-8.5 3.95 L-8.55 3.15 -8.35 2.95 -7.15 2.2 -7.95 3.05 -7.85 4.05 -7.8 4.7 -8.2 4.65 -8.45 4.6 -8.5 3.95 M1.35 12.25 L7.25 12.05 7.25 12.45 7.45 12.05 9.1 11.75 9.15 12.25 7.25 12.45 7.25 12.55 Q4.3 12.95 1.2 12.6 L1.35 12.25 M-16.05 9.25 L-16.05 9.35 -16.1 9.55 Q-19.3 9.3 -22.3 6.45 L-22.3 5.95 Q-19.45 8.6 -16.05 9.25" fill="#170f0d" fill-rule="evenodd" stroke="none"/>
    <path d="M-1.65 17.55 L-1.85 17.55 -8.15 17.95 -12.75 16.3 -12.75 16.25 -13.6 15.95 -14.65 14.25 -14.9 11.0 -14.85 11.0 Q-14.5 12.1 -13.6 13.1 L-13.45 13.25 -13.35 13.35 -13.2 13.55 -12.5 14.15 Q-10.55 15.65 -7.95 16.1 L-7.85 16.15 Q-5.0 16.6 -2.9 15.5 L-2.6 15.35 -1.75 14.9 -1.4 14.6 -1.3 14.45 -1.0 14.0 -0.6 13.3 0.5 12.9 -0.25 16.5 -1.65 17.55 M-20.4 13.2 Q-25.3 10.4 -25.3 6.7 L-25.3 6.0 -24.7 6.65 -24.55 -1.8 -25.3 -1.7 -25.3 -6.6 -24.9 -4.8 Q-24.2 -3.0 -22.1 -1.4 L-22.3 5.95 -22.3 6.45 -22.35 9.45 -22.25 10.4 Q-21.9 11.85 -20.4 13.2 M-1.85 7.7 Q-0.15 7.85 0.9 9.6 1.75 11.0 1.4 12.0 L-0.2 11.2 -0.25 10.8 -0.35 10.3 Q-0.7 8.9 -1.85 7.7 M-13.8 13.85 L-13.9 13.95 -13.75 13.95 -13.6 13.6 -13.75 13.75 -13.8 13.85" fill="#33221c" fill-rule="evenodd" stroke="none"/>
    <path d="M-8.45 4.6 L-8.2 4.65 Q-5.2 7.2 -4.95 9.5 L-4.9 9.95 -7.2 9.6 -9.95 9.15 -12.8 8.75 -12.8 8.7 -12.85 8.7 -13.55 8.55 -14.15 8.4 -14.6 8.3 -14.65 8.75 -14.7 9.4 Q-14.65 11.3 -13.3 12.85 L-13.05 13.15 -5.4 13.95 Q-5.3 15.6 -7.85 16.15 L-7.95 16.1 Q-10.55 15.65 -12.5 14.15 L-13.2 13.55 -13.35 13.35 -13.45 13.25 -13.6 13.1 Q-14.5 12.1 -14.85 11.0 L-14.9 10.9 -14.95 10.8 -15.15 10.7 -16.15 10.1 -16.1 9.65 -16.1 9.55 -16.05 9.35 -16.05 9.25 -15.6 9.3 -15.15 9.05 -15.15 8.7 -15.05 8.15 Q-14.6 6.45 -12.85 5.45 -10.95 4.4 -8.45 4.6 M-15.15 9.05 L-15.15 9.1 -15.15 9.35 -15.15 10.7 -15.15 9.35 -15.15 9.1 -15.15 9.05" fill="#785041" fill-rule="evenodd" stroke="none"/>
    <path d="M1.4 12.0 L1.45 12.05 1.4 12.1 1.35 12.25 1.2 12.6 0.5 12.9 -0.6 13.3 Q-0.25 12.5 -0.2 11.7 L-0.2 11.45 -0.2 11.2 1.4 12.0 M-8.2 4.65 L-7.8 4.7 -7.45 4.75 Q-5.45 5.05 -3.9 6.05 -3.0 6.55 -2.25 7.3 L-1.85 7.7 Q-0.7 8.9 -0.35 10.3 L-4.25 10.05 -4.85 9.95 -4.9 9.95 -4.95 9.5 Q-5.2 7.2 -8.2 4.65 M-5.4 13.95 L-5.3 14.0 -1.4 14.6 -1.75 14.9 -2.6 15.35 -2.9 15.5 Q-5.0 16.6 -7.85 16.15 -5.3 15.6 -5.4 13.95" fill="#5b3635" fill-rule="evenodd" stroke="none"/>
    <path d="M-10.0 9.85 L-9.9 9.85 Q-9.6 9.9 -9.45 10.05 -9.3 10.25 -9.3 10.55 L-9.5 10.95 -10.0 11.1 Q-10.3 11.1 -10.45 10.9 L-10.55 10.7 -10.6 10.4 -10.4 10.0 -10.0 9.85 M-4.9 10.5 L-4.95 10.75 -4.9 10.5 -4.9 10.4 -4.9 10.5" fill="#ffffff" fill-rule="evenodd" stroke="none"/>
    <path d="M-0.2 11.2 L-0.2 11.45 -0.2 11.7 Q-0.25 12.5 -0.6 13.3 L-1.0 14.0 -1.3 14.45 -1.4 14.6 -5.3 14.0 -5.4 13.95 Q-4.15 12.9 -4.7 10.55 L-4.7 10.5 -0.25 10.8 -0.2 11.2" fill="#bdd1d7" fill-rule="evenodd" stroke="none"/>
    <path d="M-14.3 8.8 L-14.35 8.95 Q-14.5 10.0 -13.55 10.85 -12.6 11.75 -11.15 11.95 -9.75 12.2 -8.6 11.6 L-7.9 11.15 -7.45 10.55 -7.25 10.0 -4.9 10.5 -4.95 10.75 -4.9 10.5 -4.7 10.55 Q-4.15 12.9 -5.4 13.95 L-13.05 13.15 -13.3 12.85 Q-14.65 11.3 -14.7 9.4 L-14.65 8.75 -14.3 8.8" fill="#d5e1e6" fill-rule="evenodd" stroke="none"/>
    <path d="M-25.3 6.0 L-26.05 5.1 Q-27.05 1.55 -26.05 -1.5 L-26.05 -1.6 -26.0 -1.6 -25.3 -1.7 -24.55 -1.8 -24.7 6.65 -25.3 6.0" fill="#271b16" fill-rule="evenodd" stroke="none"/>
    <path d="M-7.85 4.05 L1.8 4.55 3.9 4.1 6.1 3.9 6.65 3.85 7.8 3.7 8.15 3.65 8.45 3.8 8.6 7.35 8.45 3.8 8.15 3.65 9.25 3.45 9.95 3.4 9.95 3.35 10.3 3.25 11.45 3.0 11.55 3.0 11.7 2.95 12.35 2.8 12.6 2.7 13.3 2.55 14.85 2.05 17.9 0.9 18.2 0.75 17.85 8.5 Q17.8 8.2 17.8 8.4 L17.4 8.65 Q13.7 10.65 9.8 11.6 L9.85 10.7 9.0 10.85 9.1 11.75 7.45 12.05 7.25 12.45 7.25 12.05 1.35 12.25 1.4 12.1 1.45 12.05 1.4 12.0 Q1.75 11.0 0.9 9.6 -0.15 7.85 -1.85 7.7 L-2.25 7.3 Q-3.0 6.55 -3.9 6.05 -5.45 5.05 -7.45 4.75 L-7.8 4.7 -7.85 4.05 M11.35 9.3 L11.55 3.0 11.35 9.3" fill="#684d42" fill-rule="evenodd" stroke="none"/>
    <path d="M-4.9 9.95 L-4.85 9.95 -4.25 10.05 -0.35 10.3 -0.25 10.8 -4.7 10.5 -4.7 10.55 -4.9 10.5 -4.9 10.4 -4.9 10.5 -7.25 10.0 -7.25 9.95 -7.25 9.9 -7.2 9.7 -7.2 9.6 -4.9 9.95 M-14.3 8.75 L-14.3 8.8 -14.65 8.75 -14.6 8.3 -14.15 8.4 -14.25 8.6 -14.3 8.75" fill="#9ab9c2" fill-rule="evenodd" stroke="none"/>
    <path d="M-10.55 10.7 Q-11.1 11.2 -11.9 11.1 -12.65 11.0 -13.2 10.4 -13.75 9.85 -13.7 9.1 L-13.65 8.85 -9.95 9.5 -10.0 9.85 -10.4 10.0 -10.6 10.4 -10.55 10.7" fill="#9cc545" fill-rule="evenodd" stroke="none"/>
    <path d="M-10.55 10.7 L-10.45 10.9 Q-10.3 11.1 -10.0 11.1 L-9.5 10.95 -9.3 10.55 Q-9.3 10.25 -9.45 10.05 -9.6 9.9 -9.9 9.85 L-10.0 9.85 -9.95 9.5 -7.25 9.95 -7.25 10.0 -7.45 10.55 -7.9 11.15 -8.6 11.6 Q-9.75 12.2 -11.15 11.95 -12.6 11.75 -13.55 10.85 -14.5 10.0 -14.35 8.95 L-14.3 8.8 -14.3 8.75 -13.65 8.85 -13.7 9.1 Q-13.75 9.85 -13.2 10.4 -12.65 11.0 -11.9 11.1 -11.1 11.2 -10.55 10.7" fill="#6aac46" fill-rule="evenodd" stroke="none"/>
    <path d="M-13.65 8.85 L-14.3 8.75 -14.25 8.6 -14.15 8.4 -13.55 8.55 -13.65 8.85 M-7.25 9.95 L-9.95 9.5 -9.95 9.15 -7.2 9.6 -7.2 9.7 -7.25 9.9 -7.25 9.95" fill="#588f3a" fill-rule="evenodd" stroke="none"/>
    <path d="M-9.95 9.15 L-9.95 9.5 -13.65 8.85 -13.55 8.55 -12.85 8.7 -12.85 8.75 -12.8 8.7 -12.8 8.75 -9.95 9.15" fill="#74952f" fill-rule="evenodd" stroke="none"/>
    <path d="M9.8 11.6 Q13.7 10.65 17.4 8.65 L17.8 8.4 M1.35 12.25 L7.25 12.05 M7.45 12.05 L9.1 11.75 M9.75 12.1 Q13.85 11.1 17.75 8.9 M9.15 12.25 L7.25 12.45 M7.25 12.55 Q4.3 12.95 1.2 12.6 M-1.75 14.9 L-1.4 14.6" ffdec:has-small-stroke="true" ffdec:original-stroke-width="0.05" fill="none" stroke="#000000" stroke-linecap="round" stroke-linejoin="round" stroke-width="1.0"/>
    <path d="M-15.15 9.05 L-15.6 9.3 -16.05 9.25 -16.05 9.35 -16.1 9.55" ffdec:has-small-stroke="true" ffdec:original-stroke-width="0.05" fill="none" stroke="#000000" stroke-linecap="round" stroke-linejoin="round" stroke-width="1.0"/>
    <path d="M1.4 12.0 L1.45 12.05 1.4 12.1 1.35 12.25 1.2 12.6 0.5 12.9 -0.6 13.3 Q-0.25 12.5 -0.2 11.7 L-0.2 11.45 -0.2 11.2 1.4 12.0 M-4.9 9.95 L-4.85 9.95 -4.25 10.05 -0.35 10.3 -0.25 10.8 -0.2 11.2 M-14.3 8.75 L-14.3 8.8 M-7.25 10.0 L-7.25 9.95 -7.25 9.9 -7.2 9.7 -7.2 9.6 -4.9 9.95 M-14.15 8.4 L-14.25 8.6 -14.3 8.75 M-5.4 13.95 L-5.3 14.0 -1.4 14.6 -1.3 14.45 -1.0 14.0 -0.6 13.3 M-16.1 9.65 L-16.15 10.1 -15.15 10.7 -14.95 10.8 M-14.65 8.75 L-14.7 9.4 Q-14.65 11.3 -13.3 12.85 L-13.05 13.15 -5.4 13.95 M-14.15 8.4 L-14.6 8.3 -14.65 8.75" ffdec:has-small-stroke="true" ffdec:original-stroke-width="0.05" fill="none" stroke="#000000" stroke-linecap="round" stroke-linejoin="round" stroke-opacity="0.3019608" stroke-width="1.0"/>
    <path d="M-8.2 4.65 L-7.8 4.7 -7.45 4.75 Q-5.45 5.05 -3.9 6.05 -3.0 6.55 -2.25 7.3 L-1.85 7.7 Q-0.7 8.9 -0.35 10.3 M-8.45 4.6 L-8.2 4.65 M-15.15 10.7 L-15.15 9.35 -15.15 9.1 -15.15 9.05 -15.15 8.7 -15.05 8.15 Q-14.6 6.45 -12.85 5.45 -10.95 4.4 -8.45 4.6 M-14.85 11.0 Q-14.5 12.1 -13.6 13.1 L-13.45 13.25 -13.35 13.35" ffdec:has-small-stroke="true" ffdec:original-stroke-width="0.05" fill="none" stroke="#000000" stroke-linecap="round" stroke-linejoin="round" stroke-opacity="0.3019608" stroke-width="1.0"/>
    <path d="M8.15 3.65 L7.3 3.15 M11.45 3.0 L10.7 2.6 M11.45 3.0 L11.55 3.0 11.35 9.3 M8.15 3.65 L8.45 3.8 8.6 7.35 M-18.85 2.7 L-18.85 4.85 M-16.6 6.85 L-15.65 6.05" ffdec:has-small-stroke="true" ffdec:original-stroke-width="0.05" fill="none" stroke="#4d342b" stroke-linecap="round" stroke-linejoin="round" stroke-width="1.0"/>
    <path d="M9.95 10.45 L9.8 12.6 9.05 12.65 9.05 12.45 8.9 10.6 9.95 10.45 M7.6 10.95 L7.6 12.95 6.75 13.0 6.85 11.15 7.6 10.95" fill="#d7ae5b" fill-rule="evenodd" stroke="none"/>
    <path d="M-20.25 6.35 L-19.5 6.75 -20.3 8.55 -20.8 8.3 -20.25 6.35 M-18.6 7.45 L-18.05 7.8 -18.6 9.5 -19.2 9.2 -18.6 7.45" fill="#d7ae5b" fill-rule="evenodd" stroke="none"/>
    <path d="M-7.6 2.9 L-7.6 3.35 -7.75 3.3 -9.15 3.25 -9.2 2.65 -7.6 2.9 M-8.95 4.1 L-7.5 4.25 -7.5 4.75 -8.85 4.55 -8.95 4.1" fill="#d7ae5b" fill-rule="evenodd" stroke="none"/>
    <path d="M11.35 12.25 L11.45 9.9 12.4 9.7 12.4 12.15 11.35 12.25 M14.25 11.6 L14.05 9.25 15.35 9.05 15.15 11.75 14.25 11.85 14.25 11.6" fill="#d7ae5b" fill-rule="evenodd" stroke="none"/>
    <path d="M-8.9 16.05 L-7.3 16.45 -7.35 16.85 -7.5 16.8 -8.9 16.6 -8.9 16.05 M-8.75 17.3 L-7.35 17.6 -7.4 18.05 -8.75 17.75 -8.75 17.3" fill="#70541b" fill-rule="evenodd" stroke="none"/>
  </g>
</svg>
