<?xml version="1.0" encoding="UTF-8" standalone="no"?>
<svg xmlns:ffdec="https://www.free-decompiler.com/flash" xmlns:xlink="http://www.w3.org/1999/xlink" ffdec:objectType="shape" height="22.3px" width="50.4px" xmlns="http://www.w3.org/2000/svg">
  <g transform="matrix(1.0, 0.0, 0.0, 1.0, 25.2, 8.3)">
    <path d="M23.7 5.55 L23.7 5.6 23.7 5.55" fill="#525252" fill-rule="evenodd" stroke="none"/>
    <path d="M-10.25 -4.0 Q-10.65 -4.2 -10.15 -4.3 L-10.15 -4.0 -10.25 -4.0 M-9.6 -4.25 L-9.55 -4.15 -9.6 -4.05 -9.65 -4.05 -9.6 -4.15 -9.6 -4.25 M12.1 -3.7 L12.5 -3.75 Q12.8 -3.65 12.6 -3.5 L12.6 -3.45 12.15 -3.65 12.1 -3.7 M0.9 6.75 L0.95 6.8 0.9 6.8 0.9 6.75 M19.05 10.7 L19.15 10.7 19.15 10.75 19.05 10.7 M-10.45 7.75 L-10.5 7.75 -10.5 7.7 -10.45 7.7 -10.45 7.75" fill="#272727" fill-rule="evenodd" stroke="none"/>
    <path d="M-10.15 -4.3 L-10.15 -4.35 -9.6 -4.45 -9.6 -4.25 -9.6 -4.15 -9.65 -4.05 -9.8 -1.3 -10.45 7.7 -10.5 7.7 -10.9 7.7 -10.85 7.3 -10.8 6.2 -10.15 -4.0 -10.15 -4.3 M0.65 4.95 L1.1 -4.95 1.65 -4.9 0.9 6.75 0.55 6.7 0.6 6.35 0.65 4.95 M19.15 10.7 L19.9 -0.5 20.3 -0.2 19.45 10.75 19.15 10.75 19.15 10.7 M12.15 -3.65 L12.6 -3.45 12.65 -3.45 11.85 8.05 11.2 7.85 12.15 -3.65 M-19.95 -0.5 L-20.45 11.1 -20.95 11.4 -20.3 -0.3 -19.95 -0.5" fill="#080808" fill-rule="evenodd" stroke="none"/>
    <path d="M-23.9 6.15 L-24.0 5.5 Q-24.0 2.5 -20.45 -0.35 -20.8 -0.4 -20.5 -0.65 -19.8 -0.6 -19.25 -0.9 L-17.05 -2.0 Q-14.45 -3.1 -10.25 -4.0 L-10.15 -4.0 -10.8 6.2 -10.9 7.3 -10.85 7.3 -10.9 7.7 -10.5 7.7 -10.5 7.75 -12.25 8.1 Q-15.25 8.85 -18.05 10.0 -22.0 11.75 -23.95 14.0 L-23.9 8.25 Q-23.55 7.85 -23.5 6.45 L-23.15 6.05 -23.9 6.8 -23.9 6.15 M-9.55 -4.15 L-0.15 -5.05 1.1 -5.1 1.2 -5.1 1.3 -5.2 1.7 -5.0 Q6.85 -4.85 12.1 -3.7 L12.15 -3.65 11.2 7.85 11.85 8.05 12.65 -3.45 12.6 -3.45 12.6 -3.5 16.7 -2.0 19.8 -0.6 20.45 -0.4 20.3 -0.1 22.1 1.6 Q23.45 3.1 23.65 4.85 L23.7 5.5 23.7 5.55 23.7 5.6 Q24.5 6.8 23.8 7.85 L23.65 7.65 23.35 8.75 23.65 9.1 23.5 13.95 Q21.9 12.1 19.15 10.75 L19.45 10.75 20.3 -0.2 19.9 -0.5 19.15 10.7 19.05 10.7 17.6 10.0 Q14.95 8.85 11.9 8.1 L11.85 8.1 Q6.95 6.9 0.95 6.8 L0.9 6.75 0.9 6.8 -0.2 6.8 Q-5.7 6.8 -10.45 7.75 L-10.45 7.7 -9.8 -1.3 -9.6 -4.05 -9.55 -4.15 M1.65 -4.9 L1.1 -4.95 0.65 4.95 0.55 6.35 0.6 6.35 0.55 6.7 0.9 6.75 1.65 -4.9 M-19.95 -0.5 L-20.3 -0.3 -20.95 11.4 -20.45 11.1 -19.95 -0.5" fill="#423029" fill-rule="evenodd" stroke="none"/>
    <path d="M-25.2 5.6 L-25.2 5.4 Q-25.2 2.35 -21.5 -0.45 L-20.7 -0.8 Q-21.0 -0.75 -20.85 -1.05 L-17.85 -2.4 Q-14.95 -3.65 -10.8 -4.7 L-10.15 -4.55 -10.15 -4.75 0.0 -5.6 0.9 -5.65 1.35 -5.5 1.7 -5.6 Q7.5 -5.45 12.65 -4.15 12.5 -4.05 12.85 -3.95 L13.15 -4.0 Q15.65 -3.35 17.8 -2.4 20.5 -1.2 22.2 0.15 24.9 2.3 25.2 4.85 L25.2 5.3 25.2 5.6 23.7 5.6 23.7 5.55 23.7 5.5 23.65 4.85 Q23.45 3.1 22.1 1.6 L20.3 -0.1 20.45 -0.4 19.8 -0.6 16.7 -2.0 12.6 -3.5 Q12.8 -3.65 12.5 -3.75 L12.1 -3.7 Q6.85 -4.85 1.7 -5.0 L1.3 -5.2 1.2 -5.1 1.1 -5.1 -0.15 -5.05 -9.55 -4.15 -9.6 -4.25 -9.6 -4.45 -10.15 -4.35 -10.15 -4.3 Q-10.65 -4.2 -10.25 -4.0 -14.45 -3.1 -17.05 -2.0 L-19.25 -0.9 Q-19.8 -0.6 -20.5 -0.65 -20.8 -0.4 -20.45 -0.35 -24.0 2.5 -24.0 5.5 L-23.9 6.15 -25.2 5.6" fill="#845952" fill-rule="evenodd" stroke="none"/>
    <path d="M25.2 5.6 L25.2 5.3 25.2 4.85 Q24.9 2.3 22.2 0.15 20.5 -1.2 17.8 -2.4 15.65 -3.35 13.15 -4.0 L12.85 -3.95 Q12.5 -4.05 12.65 -4.15 7.5 -5.45 1.7 -5.6 L1.35 -5.5 0.9 -5.65 0.0 -5.6 -10.15 -4.75 -10.15 -4.55 -10.8 -4.7 Q-14.95 -3.65 -17.85 -2.4 L-20.85 -1.05 Q-21.0 -0.75 -20.7 -0.8 L-21.5 -0.45 Q-25.2 2.35 -25.2 5.4 L-25.2 5.6 M-10.15 -4.3 L-10.15 -4.35 -9.6 -4.45 -9.6 -4.25 -9.6 -4.15 -9.65 -4.05 -9.8 -1.3 -10.45 7.7 -10.5 7.7 -10.9 7.7 -10.85 7.3 -10.8 6.2 -10.15 -4.0 -10.15 -4.3 M0.65 4.95 L1.1 -4.95 1.65 -4.9 M0.95 6.8 Q6.95 6.9 11.85 8.1 L11.9 8.1 Q14.95 8.85 17.6 10.0 L19.05 10.7 19.15 10.75 19.15 10.7 19.9 -0.5 20.3 -0.2 19.45 10.75 19.15 10.75 Q21.9 12.1 23.5 13.95 M12.15 -3.65 L12.6 -3.45 12.65 -3.45 11.85 8.05 11.2 7.85 12.15 -3.65 M0.6 6.35 L0.55 6.35 0.65 4.95 M0.95 6.8 L0.9 6.8 -0.2 6.8 Q-5.7 6.8 -10.45 7.75 L-10.5 7.75 -12.25 8.1 Q-15.25 8.85 -18.05 10.0 -22.0 11.75 -23.95 14.0 M-19.95 -0.5 L-20.45 11.1 -20.95 11.4 -20.3 -0.3 -19.95 -0.5 Z" ffdec:has-small-stroke="true" ffdec:original-stroke-width="0.05" fill="none" stroke="#000000" stroke-linecap="round" stroke-linejoin="round" stroke-width="1.0"/>
    <path d="M-23.9 7.25 Q-22.8 6.05 -21.0 4.95 L-18.3 3.55 Q-10.9 0.35 -0.45 0.35 10.0 0.35 17.35 3.55 20.05 4.75 21.75 6.1 22.9 7.0 23.75 8.35 L23.65 9.1 21.7 7.15 Q20.0 5.8 17.3 4.6 9.95 1.4 -0.5 1.4 -10.95 1.4 -18.35 4.6 -19.85 5.25 -21.05 6.0 -22.8 7.05 -23.9 8.25 L-23.9 7.25" fill="url(#gradient0)" fill-rule="evenodd" stroke="none"/>
    <path d="M-23.9 7.25 L-23.9 6.8 Q-22.8 5.55 -20.95 4.45 -19.75 3.7 -18.25 3.05 -10.85 -0.15 -0.4 -0.15 10.05 -0.15 17.4 3.05 20.1 4.25 21.8 5.6 22.95 6.5 23.8 7.85 L23.75 8.35 Q22.9 7.0 21.75 6.1 20.05 4.75 17.35 3.55 10.0 0.35 -0.45 0.35 -10.9 0.35 -18.3 3.55 L-21.0 4.95 Q-22.8 6.05 -23.9 7.25" fill="url(#gradient1)" fill-rule="evenodd" stroke="none"/>
    <path d="M-5.2 -4.7 Q-3.0 -1.55 -3.2 2.55 -3.45 6.65 -5.9 9.15 -8.4 11.8 -11.7 11.4 -15.0 11.05 -17.25 7.9 -19.45 4.8 -19.25 0.7 -19.0 -3.35 -16.5 -6.05 -14.05 -8.65 -10.75 -8.25 -7.4 -7.95 -5.2 -4.7" fill="url(#gradient2)" fill-rule="evenodd" stroke="none"/>
  </g>
  <defs>
    <linearGradient gradientTransform="matrix(0.029, 0.0, 0.0, 0.0056, -0.15, 4.45)" gradientUnits="userSpaceOnUse" id="gradient0" spreadMethod="pad" x1="-819.2" x2="819.2">
      <stop offset="0.0" stop-color="#4f4642"/>
      <stop offset="0.2549019607843137" stop-color="#f0d7c9"/>
      <stop offset="0.28627450980392155" stop-color="#84766e"/>
      <stop offset="1.0" stop-color="#544b46"/>
    </linearGradient>
    <linearGradient gradientTransform="matrix(0.029, 0.0, 0.0, 0.0056, -0.15, 4.45)" gradientUnits="userSpaceOnUse" id="gradient1" spreadMethod="pad" x1="-819.2" x2="819.2">
      <stop offset="0.0" stop-color="#26211f"/>
      <stop offset="0.2549019607843137" stop-color="#c7b2a7"/>
      <stop offset="0.28627450980392155" stop-color="#70645d"/>
      <stop offset="1.0" stop-color="#2b2624"/>
    </linearGradient>
    <radialGradient cx="0" cy="0" gradientTransform="matrix(0.0107, 0.0, 0.0, 0.0145, -11.25, 1.55)" gradientUnits="userSpaceOnUse" id="gradient2" r="819.2" spreadMethod="pad">
      <stop offset="0.0" stop-color="#ffffff"/>
      <stop offset="0.796078431372549" stop-color="#ffffff" stop-opacity="0.0"/>
    </radialGradient>
  </defs>
</svg>
