<?xml version="1.0" encoding="UTF-8" standalone="no"?>
<svg xmlns:ffdec="https://www.free-decompiler.com/flash" xmlns:xlink="http://www.w3.org/1999/xlink" ffdec:objectType="shape" height="112.3px" width="243.3px" xmlns="http://www.w3.org/2000/svg">
  <g transform="matrix(1.0, 0.0, 0.0, 1.0, -155.15, -87.8)">
    <path d="M367.8 155.15 L367.8 155.55 367.7 155.5 367.8 155.15 M158.9 144.8 L158.95 144.8 158.9 144.8" fill="#6c5e2b" fill-rule="evenodd" stroke="none"/>
    <path d="M386.6 185.1 Q377.95 189.35 360.3 192.9 346.1 195.75 329.55 197.45 L339.05 166.35 360.3 162.9 368.3 161.15 Q373.7 159.85 378.05 158.35 382.65 156.8 386.0 155.05 392.1 169.65 386.6 185.1 M268.35 199.8 Q224.85 199.25 193.3 192.9 173.3 188.9 164.8 183.95 160.85 167.6 163.0 151.75 167.15 155.4 175.6 158.35 L180.05 159.75 185.35 161.15 193.3 162.9 Q225.05 169.3 268.85 169.8 L268.35 199.8" fill="#c7c701" fill-rule="evenodd" stroke="none"/>
    <path d="M394.95 145.1 Q401.45 161.65 394.95 176.75 L394.85 177.05 Q394.15 181.35 386.6 185.1 392.1 169.65 386.0 155.05 393.85 150.85 394.9 145.6 L394.9 146.15 394.95 145.1 M164.8 183.95 Q159.7 181.0 158.7 177.75 L158.55 177.15 Q152.1 161.95 158.8 145.2 L159.0 145.15 Q159.55 148.7 163.0 151.75 160.85 167.6 164.8 183.95" fill="#f5f503" fill-rule="evenodd" stroke="none"/>
    <path d="M329.55 197.45 L318.7 198.4 276.8 199.85 268.35 199.8 268.85 169.8 276.8 169.85 295.0 169.6 Q318.95 168.9 339.05 166.35 L329.55 197.45" fill="#949401" fill-rule="evenodd" stroke="none"/>
    <path d="M158.9 144.8 Q160.65 137.7 181.35 132.2 173.25 149.15 180.2 157.0 L175.6 158.35 Q167.15 155.4 163.0 151.75 159.55 148.7 159.0 145.15 L159.0 145.1 158.95 144.8 158.9 144.8 M366.85 130.85 Q393.1 136.9 394.8 145.05 L394.85 145.4 394.9 145.6 Q393.85 150.85 386.0 155.05 382.65 156.8 378.05 158.35 373.55 156.9 367.8 155.55 L367.8 155.15 Q374.6 147.4 366.85 130.85" fill="#6f0037" fill-rule="evenodd" stroke="none"/>
    <path d="M181.35 132.2 Q186.65 130.75 193.3 129.4 227.9 122.45 276.8 122.45 325.7 122.45 360.3 129.4 L366.85 130.85 Q374.6 147.4 367.8 155.15 L367.7 155.5 360.3 153.9 Q325.7 146.95 276.8 146.95 227.9 146.95 193.3 153.9 185.95 155.35 180.2 157.0 173.25 149.15 181.35 132.2 M363.6 151.85 Q277.45 134.0 185.6 152.2 277.45 134.0 363.6 151.85 M363.6 135.85 Q277.45 118.0 185.6 136.2 277.45 118.0 363.6 135.85" fill="#a80054" fill-rule="evenodd" stroke="none"/>
    <path d="M394.85 145.4 L394.95 145.1 Q401.45 161.65 394.95 176.75 L394.85 177.05 Q394.15 181.35 386.6 185.1 377.95 189.35 360.3 192.9 346.1 195.75 329.55 197.45 L318.7 198.4 276.8 199.85 268.35 199.8 Q224.85 199.25 193.3 192.9 173.3 188.9 164.8 183.95 159.7 181.0 158.7 177.75 L158.55 177.15 Q152.1 161.95 158.8 145.2 L158.8 145.15 158.9 144.8 Q160.65 137.7 181.35 132.2 186.65 130.75 193.3 129.4 227.9 122.45 276.8 122.45 325.7 122.45 360.3 129.4 L366.85 130.85 Q393.1 136.9 394.8 145.05 L394.85 145.4 394.9 145.6 394.95 145.1 394.9 146.15 394.9 145.6 Q393.85 150.85 386.0 155.05 382.65 156.8 378.05 158.35 373.7 159.85 368.3 161.15 L360.3 162.9 339.05 166.35 Q318.95 168.9 295.0 169.6 L276.8 169.85 268.85 169.8 Q225.05 169.3 193.3 162.9 L185.35 161.15 180.05 159.75 175.6 158.35 Q167.15 155.4 163.0 151.75 159.55 148.7 159.0 145.15 L159.0 145.1 158.95 144.8 158.8 145.15 M367.8 155.55 Q373.55 156.9 378.05 158.35 M367.8 155.55 L367.7 155.5 360.3 153.9 Q325.7 146.95 276.8 146.95 227.9 146.95 193.3 153.9 185.95 155.35 180.2 157.0 L175.6 158.35" ffdec:has-small-stroke="true" ffdec:original-stroke-width="0.5" fill="none" stroke="#232312" stroke-linecap="round" stroke-linejoin="round" stroke-opacity="0.5019608" stroke-width="1.0"/>
    <path d="M185.6 136.2 Q277.45 118.0 363.6 135.85 M185.6 152.2 Q277.45 134.0 363.6 151.85" ffdec:has-small-stroke="true" ffdec:original-stroke-width="0.05" fill="none" stroke="#232312" stroke-linecap="round" stroke-linejoin="round" stroke-opacity="0.5019608" stroke-width="1.0"/>
    <path d="M367.7 121.1 L367.8 120.75 367.8 121.15 367.7 121.1 M158.9 110.4 L158.95 110.4 158.9 110.4" fill="#6c5e2b" fill-rule="evenodd" stroke="none"/>
    <path d="M386.6 150.7 Q377.95 154.95 360.3 158.5 350.15 160.55 338.8 162.0 L329.45 138.65 305.4 141.75 Q300.9 138.5 295.0 135.2 332.35 134.1 360.3 128.5 L368.3 126.75 Q373.7 125.45 378.05 123.95 382.65 122.4 386.0 120.65 392.1 135.25 386.6 150.7 M268.35 165.4 Q224.85 164.85 193.3 158.5 173.3 154.5 164.8 149.55 160.85 133.2 163.0 117.35 167.15 121.0 175.6 123.95 L180.05 125.35 185.35 126.75 193.3 128.5 Q225.05 134.9 268.85 135.4 L268.35 165.4" fill="#c7c701" fill-rule="evenodd" stroke="none"/>
    <path d="M394.95 110.7 Q401.45 127.25 394.95 142.35 L394.85 142.65 Q394.15 146.95 386.6 150.7 392.1 135.25 386.0 120.65 393.85 116.45 394.9 111.2 L394.9 111.75 394.95 110.7 M164.8 149.55 Q159.7 146.6 158.7 143.35 L158.55 142.75 Q152.1 127.55 158.8 110.8 L159.0 110.75 Q159.55 114.3 163.0 117.35 160.85 133.2 164.8 149.55" fill="#f5f503" fill-rule="evenodd" stroke="none"/>
    <path d="M295.0 135.2 Q300.9 138.5 305.4 141.75 L329.45 138.65 338.8 162.0 318.7 164.0 276.8 165.45 268.35 165.4 268.85 135.4 276.8 135.45 295.0 135.2" fill="#949401" fill-rule="evenodd" stroke="none"/>
    <path d="M181.35 97.8 Q186.65 96.35 193.3 95.0 227.9 88.05 276.8 88.05 325.7 88.05 360.3 95.0 L366.85 96.45 Q374.6 113.0 367.8 120.75 L367.7 121.1 360.3 119.5 Q325.7 112.55 276.8 112.55 227.9 112.55 193.3 119.5 185.95 120.95 180.2 122.6 173.25 114.75 181.35 97.8 M363.6 101.45 Q277.45 83.6 185.6 101.8 277.45 83.6 363.6 101.45 M363.6 117.45 Q277.45 99.6 185.6 117.8 277.45 99.6 363.6 117.45" fill="#a80054" fill-rule="evenodd" stroke="none"/>
    <path d="M366.85 96.45 Q393.1 102.5 394.8 110.65 L394.8 110.75 394.85 111.0 394.9 111.2 Q393.85 116.45 386.0 120.65 382.65 122.4 378.05 123.95 373.55 122.5 367.8 121.15 L367.8 120.75 Q374.6 113.0 366.85 96.45 M158.9 110.4 Q160.65 103.3 181.35 97.8 173.25 114.75 180.2 122.6 L175.6 123.95 Q167.15 121.0 163.0 117.35 159.55 114.3 159.0 110.75 L159.0 110.7 158.95 110.4 158.9 110.4" fill="#6f0037" fill-rule="evenodd" stroke="none"/>
    <path d="M181.35 97.8 Q186.65 96.35 193.3 95.0 227.9 88.05 276.8 88.05 325.7 88.05 360.3 95.0 L366.85 96.45 Q393.1 102.5 394.8 110.65 L394.8 110.75 394.85 111.0 394.95 110.7 Q401.45 127.25 394.95 142.35 L394.85 142.65 Q394.15 146.95 386.6 150.7 377.95 154.95 360.3 158.5 350.15 160.55 338.8 162.0 L318.7 164.0 276.8 165.45 268.35 165.4 Q224.85 164.85 193.3 158.5 173.3 154.5 164.8 149.55 159.7 146.6 158.7 143.35 L158.55 142.75 Q152.1 127.55 158.8 110.8 L158.8 110.75 158.9 110.4 Q160.65 103.3 181.35 97.8 M394.95 110.7 L394.9 111.2 394.9 111.75 394.95 110.7 M386.0 120.65 Q393.85 116.45 394.9 111.2 L394.85 111.0 M367.7 121.1 L367.8 121.15 Q373.55 122.5 378.05 123.95 382.65 122.4 386.0 120.65 M378.05 123.95 Q373.7 125.45 368.3 126.75 L360.3 128.5 Q332.35 134.1 295.0 135.2 L276.8 135.45 268.85 135.4 Q225.05 134.9 193.3 128.5 L185.35 126.75 180.05 125.35 175.6 123.95 180.2 122.6 Q185.95 120.95 193.3 119.5 227.9 112.55 276.8 112.55 325.7 112.55 360.3 119.5 L367.7 121.1 M175.6 123.95 Q167.15 121.0 163.0 117.35 159.55 114.3 159.0 110.75 L159.0 110.7 158.95 110.4 158.8 110.75" ffdec:has-small-stroke="true" ffdec:original-stroke-width="0.5" fill="none" stroke="#232312" stroke-linecap="round" stroke-linejoin="round" stroke-opacity="0.5019608" stroke-width="1.0"/>
    <path d="M185.6 117.8 Q277.45 99.6 363.6 117.45 M185.6 101.8 Q277.45 83.6 363.6 101.45" ffdec:has-small-stroke="true" ffdec:original-stroke-width="0.05" fill="none" stroke="#232312" stroke-linecap="round" stroke-linejoin="round" stroke-opacity="0.5019608" stroke-width="1.0"/>
    <path d="M338.8 162.0 L339.0 162.55" ffdec:has-small-stroke="true" ffdec:original-stroke-width="0.05" fill="none" stroke="#000000" stroke-linecap="round" stroke-linejoin="round" stroke-opacity="0.3019608" stroke-width="1.0"/>
  </g>
</svg>
