<?xml version="1.0" encoding="UTF-8" standalone="no"?>
<svg xmlns:ffdec="https://www.free-decompiler.com/flash" xmlns:xlink="http://www.w3.org/1999/xlink" ffdec:objectType="shape" height="116.05px" width="243.3px" xmlns="http://www.w3.org/2000/svg">
  <g transform="matrix(1.0, 0.0, 0.0, 1.0, -127.1, -141.0)">
    <path d="M339.65 208.7 L339.75 208.35 339.75 208.75 339.65 208.7 M130.9 198.0 L130.85 198.0 130.9 198.0" fill="#6c5e2b" fill-rule="evenodd" stroke="none"/>
    <path d="M358.55 238.3 Q349.9 242.55 332.25 246.1 318.05 248.95 301.5 250.65 L311.0 219.55 Q322.2 218.1 332.25 216.1 L340.25 214.35 Q345.65 213.05 350.0 211.55 354.6 210.0 357.95 208.25 364.05 222.85 358.55 238.3 M240.3 253.0 Q196.8 252.45 165.25 246.1 145.25 242.1 136.75 237.15 132.8 220.8 134.95 204.95 139.1 208.6 147.55 211.55 L152.0 212.95 157.3 214.35 165.25 216.1 Q197.0 222.5 240.8 223.0 L240.3 253.0" fill="#ea8915" fill-rule="evenodd" stroke="none"/>
    <path d="M301.5 250.65 L290.65 251.6 248.75 253.05 240.3 253.0 240.8 223.0 248.75 223.05 266.95 222.8 Q290.9 222.1 311.0 219.55 L301.5 250.65" fill="#aa591e" fill-rule="evenodd" stroke="none"/>
    <path d="M366.9 198.3 Q373.4 214.85 366.9 229.95 L366.8 230.25 Q366.1 234.55 358.55 238.3 364.05 222.85 357.95 208.25 365.8 204.05 366.85 198.8 L366.85 199.35 366.9 198.3 M136.75 237.15 Q131.65 234.2 130.65 230.95 L130.5 230.35 Q124.05 215.15 130.75 198.4 L130.95 198.35 Q131.5 201.9 134.95 204.95 132.8 220.8 136.75 237.15" fill="#f3bd7a" fill-rule="evenodd" stroke="none"/>
    <path d="M338.8 184.05 Q365.05 190.1 366.75 198.25 L366.8 198.6 366.85 198.8 Q365.8 204.05 357.95 208.25 354.6 210.0 350.0 211.55 345.5 210.1 339.75 208.75 L339.75 208.35 Q346.55 200.6 338.8 184.05 M130.85 198.0 Q132.6 190.9 153.3 185.4 145.2 202.35 152.15 210.2 L147.55 211.55 Q139.1 208.6 134.95 204.95 131.5 201.9 130.95 198.35 L130.95 198.3 130.9 198.0 130.85 198.0" fill="#673612" fill-rule="evenodd" stroke="none"/>
    <path d="M153.3 185.4 L165.25 182.6 Q199.85 175.65 248.75 175.65 297.65 175.65 332.25 182.6 L338.8 184.05 Q346.55 200.6 339.75 208.35 L339.65 208.7 332.25 207.1 Q297.65 200.15 248.75 200.15 199.85 200.15 165.25 207.1 157.9 208.55 152.15 210.2 145.2 202.35 153.3 185.4 M335.55 205.05 Q249.4 187.2 157.55 205.4 249.4 187.2 335.55 205.05 M335.55 189.05 Q249.4 171.2 157.55 189.4 249.4 171.2 335.55 189.05" fill="#9f541c" fill-rule="evenodd" stroke="none"/>
    <path d="M153.3 185.4 L165.25 182.6 Q199.85 175.65 248.75 175.65 297.65 175.65 332.25 182.6 L338.8 184.05 Q365.05 190.1 366.75 198.25 L366.8 198.6 366.9 198.3 Q373.4 214.85 366.9 229.95 L366.8 230.25 Q366.1 234.55 358.55 238.3 349.9 242.55 332.25 246.1 318.05 248.95 301.5 250.65 L290.65 251.6 248.75 253.05 240.3 253.0 Q196.8 252.45 165.25 246.1 145.25 242.1 136.75 237.15 131.65 234.2 130.65 230.95 L130.5 230.35 Q124.05 215.15 130.75 198.4 L130.75 198.35 130.85 198.0 Q132.6 190.9 153.3 185.4 M152.15 210.2 Q157.9 208.55 165.25 207.1 199.85 200.15 248.75 200.15 297.65 200.15 332.25 207.1 L339.65 208.7 339.75 208.75 Q345.5 210.1 350.0 211.55 354.6 210.0 357.95 208.25 365.8 204.05 366.85 198.8 L366.85 199.35 366.9 198.3 366.85 198.8 366.8 198.6 M350.0 211.55 Q345.65 213.05 340.25 214.35 L332.25 216.1 Q322.2 218.1 311.0 219.55 290.9 222.1 266.95 222.8 L248.75 223.05 240.8 223.0 Q197.0 222.5 165.25 216.1 L157.3 214.35 152.0 212.95 147.55 211.55 Q139.1 208.6 134.95 204.95 131.5 201.9 130.95 198.35 L130.95 198.3 130.9 198.0 130.75 198.35 M147.55 211.55 L152.15 210.2" ffdec:has-small-stroke="true" ffdec:original-stroke-width="0.5" fill="none" stroke="#232312" stroke-linecap="round" stroke-linejoin="round" stroke-opacity="0.5019608" stroke-width="1.0"/>
    <path d="M157.55 189.4 Q249.4 171.2 335.55 189.05 M157.55 205.4 Q249.4 187.2 335.55 205.05" ffdec:has-small-stroke="true" ffdec:original-stroke-width="0.05" fill="none" stroke="#232312" stroke-linecap="round" stroke-linejoin="round" stroke-opacity="0.5019608" stroke-width="1.0"/>
    <path d="M339.75 174.35 L339.65 174.3 339.75 173.95 339.75 174.35 M130.9 163.6 L130.85 163.6 130.9 163.6" fill="#6c5e2b" fill-rule="evenodd" stroke="none"/>
    <path d="M358.55 203.9 Q364.05 188.45 357.95 173.85 365.8 169.65 366.85 164.4 L366.85 164.95 366.9 163.9 Q373.4 180.45 366.9 195.55 L366.8 195.85 Q366.1 200.15 358.55 203.9 M130.95 163.95 Q131.5 167.5 134.95 170.55 132.8 186.4 136.75 202.75 131.65 199.8 130.65 196.55 L130.5 195.95 Q124.05 180.75 130.75 164.0 L130.95 163.95" fill="#f3bd7a" fill-rule="evenodd" stroke="none"/>
    <path d="M266.95 188.4 Q272.85 191.7 277.35 194.95 L301.4 191.85 310.75 215.2 290.65 217.2 248.75 218.65 240.3 218.6 240.8 188.6 248.75 188.65 266.95 188.4" fill="#aa591e" fill-rule="evenodd" stroke="none"/>
    <path d="M266.95 188.4 Q304.3 187.3 332.25 181.7 L340.25 179.95 Q345.65 178.65 350.0 177.15 354.6 175.6 357.95 173.85 364.05 188.45 358.55 203.9 349.9 208.15 332.25 211.7 322.1 213.75 310.75 215.2 L301.4 191.85 277.35 194.95 Q272.85 191.7 266.95 188.4 M147.55 177.15 L152.0 178.55 157.3 179.95 165.25 181.7 Q197.0 188.1 240.8 188.6 L240.3 218.6 Q196.8 218.05 165.25 211.7 145.25 207.7 136.75 202.75 132.8 186.4 134.95 170.55 139.1 174.2 147.55 177.15" fill="#ea8915" fill-rule="evenodd" stroke="none"/>
    <path d="M339.65 174.3 L332.25 172.7 Q297.65 165.75 248.75 165.75 199.85 165.75 165.25 172.7 157.9 174.15 152.15 175.8 145.2 167.95 153.3 151.0 L165.25 148.2 Q199.85 141.25 248.75 141.25 297.65 141.25 332.25 148.2 L338.8 149.65 Q346.55 166.2 339.75 173.95 L339.65 174.3 M335.55 154.65 Q249.4 136.8 157.55 155.0 249.4 136.8 335.55 154.65 M335.55 170.65 Q249.4 152.8 157.55 171.0 249.4 152.8 335.55 170.65" fill="#9f541c" fill-rule="evenodd" stroke="none"/>
    <path d="M357.95 173.85 Q354.6 175.6 350.0 177.15 345.5 175.7 339.75 174.35 L339.75 173.95 Q346.55 166.2 338.8 149.65 365.05 155.7 366.75 163.85 L366.8 164.2 366.85 164.4 Q365.8 169.65 357.95 173.85 M152.15 175.8 L147.55 177.15 Q139.1 174.2 134.95 170.55 131.5 167.5 130.95 163.95 L130.95 163.9 130.9 163.6 130.85 163.6 Q132.6 156.5 153.3 151.0 145.2 167.95 152.15 175.8" fill="#673612" fill-rule="evenodd" stroke="none"/>
    <path d="M350.0 177.15 Q345.65 178.65 340.25 179.95 L332.25 181.7 Q304.3 187.3 266.95 188.4 L248.75 188.65 240.8 188.6 Q197.0 188.1 165.25 181.7 L157.3 179.95 152.0 178.55 147.55 177.15 152.15 175.8 Q157.9 174.15 165.25 172.7 199.85 165.75 248.75 165.75 297.65 165.75 332.25 172.7 L339.65 174.3 339.75 174.35 Q345.5 175.7 350.0 177.15 354.6 175.6 357.95 173.85 365.8 169.65 366.85 164.4 L366.8 164.2 366.9 163.9 Q373.4 180.45 366.9 195.55 L366.8 195.85 Q366.1 200.15 358.55 203.9 349.9 208.15 332.25 211.7 322.1 213.75 310.75 215.2 L290.65 217.2 248.75 218.65 240.3 218.6 Q196.8 218.05 165.25 211.7 145.25 207.7 136.75 202.75 131.65 199.8 130.65 196.55 L130.5 195.95 Q124.05 180.75 130.75 164.0 L130.75 163.95 130.85 163.6 Q132.6 156.5 153.3 151.0 L165.25 148.2 Q199.85 141.25 248.75 141.25 297.65 141.25 332.25 148.2 L338.8 149.65 Q365.05 155.7 366.75 163.85 L366.8 164.2 M366.85 164.4 L366.85 164.95 366.9 163.9 366.85 164.4 M130.9 163.6 L130.95 163.9 130.95 163.95 Q131.5 167.5 134.95 170.55 139.1 174.2 147.55 177.15 M130.9 163.6 L130.75 163.95" ffdec:has-small-stroke="true" ffdec:original-stroke-width="0.5" fill="none" stroke="#232312" stroke-linecap="round" stroke-linejoin="round" stroke-opacity="0.5019608" stroke-width="1.0"/>
    <path d="M157.55 171.0 Q249.4 152.8 335.55 170.65 M157.55 155.0 Q249.4 136.8 335.55 154.65" ffdec:has-small-stroke="true" ffdec:original-stroke-width="0.05" fill="none" stroke="#232312" stroke-linecap="round" stroke-linejoin="round" stroke-opacity="0.5019608" stroke-width="1.0"/>
    <path d="M310.75 215.2 L310.95 215.75" ffdec:has-small-stroke="true" ffdec:original-stroke-width="0.05" fill="none" stroke="#000000" stroke-linecap="round" stroke-linejoin="round" stroke-opacity="0.3019608" stroke-width="1.0"/>
    <path d="M317.5 230.1 L317.5 230.7 317.4 231.65 316.5 232.95 Q313.3 236.9 309.25 234.1 307.45 220.05 308.05 204.95 L308.8 203.75 Q308.15 237.0 317.5 230.1" fill="#5b6f11" fill-rule="evenodd" stroke="none"/>
    <path d="M308.8 203.75 L308.9 203.6 Q312.35 199.05 316.85 202.7 L316.85 202.9 Q318.3 216.35 317.5 230.1 308.15 237.0 308.8 203.75" fill="#8ba81a" fill-rule="evenodd" stroke="none"/>
    <path d="M308.8 203.75 L308.9 203.6 Q312.35 199.05 316.85 202.7 L316.85 202.9 Q318.3 216.35 317.5 230.1 L317.5 230.7 317.4 231.65 316.5 232.95 Q313.3 236.9 309.25 234.1 307.45 220.05 308.05 204.95 L308.8 203.75 Z" ffdec:has-small-stroke="true" ffdec:original-stroke-width="0.05" fill="none" stroke="#232312" stroke-linecap="round" stroke-linejoin="round" stroke-opacity="0.5019608" stroke-width="1.0"/>
    <path d="M329.0 200.0 L329.1 199.85 Q332.55 195.3 337.05 198.95 L337.05 199.15 Q338.5 212.6 337.7 226.35 328.35 233.25 329.0 200.0" fill="#8ba81a" fill-rule="evenodd" stroke="none"/>
    <path d="M337.7 226.35 L337.7 226.95 337.6 227.9 336.7 229.2 Q333.5 233.15 329.45 230.35 327.65 216.3 328.25 201.2 L329.0 200.0 Q328.35 233.25 337.7 226.35" fill="#5b6f11" fill-rule="evenodd" stroke="none"/>
    <path d="M329.0 200.0 L329.1 199.85 Q332.55 195.3 337.05 198.95 L337.05 199.15 Q338.5 212.6 337.7 226.35 L337.7 226.95 337.6 227.9 336.7 229.2 Q333.5 233.15 329.45 230.35 327.65 216.3 328.25 201.2 L329.0 200.0 Z" ffdec:has-small-stroke="true" ffdec:original-stroke-width="0.05" fill="none" stroke="#232312" stroke-linecap="round" stroke-linejoin="round" stroke-opacity="0.5019608" stroke-width="1.0"/>
    <path d="M152.6 225.45 Q151.8 211.7 153.25 198.25 L153.3 198.05 Q157.75 194.4 161.2 198.95 L161.3 199.1 Q161.95 232.35 152.6 225.45" fill="#8ba81a" fill-rule="evenodd" stroke="none"/>
    <path d="M152.6 225.45 Q161.95 232.35 161.3 199.1 L162.1 200.3 Q162.65 215.4 160.9 229.45 156.8 232.25 153.65 228.3 L152.7 227.0 152.65 226.05 152.6 225.45" fill="#5b6f11" fill-rule="evenodd" stroke="none"/>
    <path d="M161.3 199.1 L161.2 198.95 Q157.75 194.4 153.3 198.05 L153.25 198.25 Q151.8 211.7 152.6 225.45 L152.65 226.05 152.7 227.0 153.65 228.3 Q156.8 232.25 160.9 229.45 162.65 215.4 162.1 200.3 L161.3 199.1 Z" ffdec:has-small-stroke="true" ffdec:original-stroke-width="0.05" fill="none" stroke="#232312" stroke-linecap="round" stroke-linejoin="round" stroke-opacity="0.5019608" stroke-width="1.0"/>
    <path d="M246.5 257.05 L245.65 257.05 245.7 256.75 246.5 257.05" fill="#584943" fill-rule="evenodd" stroke="none"/>
    <path d="M220.25 188.05 L254.0 191.9 254.1 191.4 268.75 190.65 Q279.05 207.55 284.15 225.25 253.95 226.0 220.25 221.85 L220.25 188.05 M276.1 255.7 L246.5 257.05 245.7 256.75 245.25 256.75 225.6 254.45 220.25 253.6 220.25 226.75 Q253.95 230.9 284.15 230.15 L285.1 230.0 Q287.15 245.0 276.1 255.7" fill="#9f541c" fill-rule="evenodd" stroke="none"/>
    <path d="M268.75 190.65 L292.7 189.45 305.1 219.55 305.0 220.55 Q296.75 223.25 284.15 225.25 279.05 207.55 268.75 190.65 M285.1 230.0 Q296.55 228.15 304.3 225.65 L303.35 232.6 289.25 255.15 276.1 255.7 Q287.15 245.0 285.1 230.0" fill="#ea8915" fill-rule="evenodd" stroke="none"/>
    <path d="M220.25 188.05 L254.0 191.9 254.1 191.4 268.75 190.65 292.7 189.45 305.1 219.55 305.0 220.55 Q296.75 223.25 284.15 225.25 253.95 226.0 220.25 221.85 L218.45 221.85 M285.1 230.0 Q296.55 228.15 304.3 225.65 L303.35 232.6 289.25 255.15 276.1 255.7 246.5 257.05 245.65 257.05 245.25 256.75 225.6 254.45 220.25 253.6 M220.25 226.75 Q253.95 230.9 284.15 230.15 L285.1 230.0 M245.65 257.05 L245.7 256.75 245.25 256.75 M245.7 256.75 L246.5 257.05" ffdec:has-small-stroke="true" ffdec:original-stroke-width="0.05" fill="none" stroke="#000000" stroke-linecap="round" stroke-linejoin="round" stroke-opacity="0.3019608" stroke-width="1.0"/>
  </g>
</svg>
