<?xml version="1.0" encoding="UTF-8" standalone="no"?>
<svg xmlns:ffdec="https://www.free-decompiler.com/flash" xmlns:xlink="http://www.w3.org/1999/xlink" ffdec:objectType="shape" height="13.95px" width="74.55px" xmlns="http://www.w3.org/2000/svg">
  <g transform="matrix(1.0, 0.0, 0.0, 1.0, -239.6, -193.25)">
    <path d="M248.3 199.6 L248.55 199.65 248.6 199.7 248.3 199.6" fill="#f9d81e" fill-rule="evenodd" stroke="none"/>
    <path d="M248.6 199.7 L252.05 200.8 250.15 202.15 248.6 199.7 M265.1 203.3 L269.1 203.65 267.1 205.65 265.1 203.3 M283.15 203.75 L287.85 203.4 285.6 205.7 283.25 203.75 283.15 203.75 M300.8 201.0 L305.3 199.7 304.7 199.9 303.55 202.3 300.8 201.0 M296.35 205.05 L293.35 205.6 294.45 203.65 296.35 205.05 M279.25 206.95 L274.6 206.9 276.85 205.0 279.25 206.95 M259.6 205.6 L256.75 205.15 258.55 203.7 259.6 205.6" fill="#7a5934" fill-rule="evenodd" stroke="none"/>
    <path d="M256.6 205.25 L250.7 203.45 Q239.85 199.95 239.85 195.05 239.85 194.25 240.1 193.5 241.5 197.25 248.3 199.6 L248.6 199.7 250.15 202.15 252.05 200.8 252.2 200.85 Q258.3 202.6 265.05 203.25 L265.1 203.3 267.1 205.65 269.1 203.65 269.55 203.7 276.9 203.9 283.15 203.75 283.25 203.75 285.6 205.7 287.85 203.4 288.65 203.35 Q295.45 202.65 300.7 200.95 L300.8 201.0 303.55 202.3 304.7 199.9 305.3 199.7 Q312.4 196.85 313.65 193.5 L313.9 195.05 Q313.9 199.95 303.05 203.45 L297.15 204.95 296.35 205.05 294.45 203.65 293.35 205.6 293.3 205.65 279.7 206.95 279.25 206.95 276.85 205.0 274.6 206.9 274.55 206.95 260.05 205.7 259.6 205.6 258.55 203.7 256.75 205.15 256.6 205.25" fill="#c49d73" fill-rule="evenodd" stroke="none"/>
    <path d="M256.6 205.25 L250.7 203.45 Q239.85 199.95 239.85 195.05 239.85 194.25 240.1 193.5 241.5 197.25 248.3 199.6 L248.55 199.65 M252.2 200.85 Q258.3 202.6 265.05 203.25 M269.55 203.7 L276.9 203.9 283.15 203.75 283.25 203.75 M288.65 203.35 Q295.45 202.65 300.7 200.95 M305.3 199.7 Q312.4 196.85 313.65 193.5 L313.9 195.05 Q313.9 199.95 303.05 203.45 L297.15 204.95 M293.3 205.65 L279.7 206.95 M274.55 206.95 L260.05 205.7 M304.7 199.9 L305.3 199.7 M287.85 203.4 L288.65 203.35 M269.1 203.65 L269.55 203.7" ffdec:has-small-stroke="true" ffdec:original-stroke-width="0.5" fill="none" stroke="#000000" stroke-linecap="round" stroke-linejoin="round" stroke-opacity="0.6" stroke-width="1.0"/>
    <path d="M248.55 199.65 L248.6 199.7 252.05 200.8 252.2 200.85 M265.05 203.25 L265.1 203.3 269.1 203.65 269.55 203.7 M283.15 203.75 L287.85 203.4 288.65 203.35 M300.7 200.95 L300.8 201.0 305.3 199.7 M297.15 204.95 L296.35 205.05 293.35 205.6 293.3 205.65 M279.7 206.95 L279.25 206.95 274.6 206.9 274.55 206.95 M260.05 205.7 L259.6 205.6 256.75 205.15 256.6 205.25 M300.8 201.0 L303.55 202.3 304.7 199.9 M293.35 205.6 L294.45 203.65 296.35 205.05 M283.25 203.75 L285.6 205.7 287.85 203.4 M274.6 206.9 L276.85 205.0 279.25 206.95 M265.1 203.3 L267.1 205.65 269.1 203.65 M256.75 205.15 L258.55 203.7 259.6 205.6 M248.6 199.7 L250.15 202.15 252.05 200.8 M248.6 199.7 L248.3 199.6" ffdec:has-small-stroke="true" ffdec:original-stroke-width="0.5" fill="none" stroke="#000000" stroke-linecap="round" stroke-linejoin="round" stroke-opacity="0.6" stroke-width="1.0"/>
  </g>
</svg>
