<?xml version="1.0" encoding="UTF-8" standalone="no"?>
<svg xmlns:ffdec="https://www.free-decompiler.com/flash" xmlns:xlink="http://www.w3.org/1999/xlink" ffdec:objectType="shape" height="95.15px" width="276.95px" xmlns="http://www.w3.org/2000/svg">
  <g transform="matrix(1.0, 0.0, 0.0, 1.0, 80.4, 28.25)">
    <path d="M129.1 -2.8 L129.55 -2.95 129.1 -2.8 128.15 -4.45 129.55 -2.95 132.35 -3.9 134.8 1.35 141.4 15.55 134.8 1.35 Q138.1 3.1 140.35 1.45 L147.35 -28.0 180.5 -21.75 176.6 23.5 186.45 21.75 195.2 7.65 196.3 19.95 161.65 39.95 Q160.0 39.15 158.9 38.05 L146.85 58.95 Q141.1 59.35 138.55 54.2 131.4 23.95 129.6 2.4 L113.1 11.8 113.3 25.1 117.45 49.85 98.6 39.0 99.1 38.25 98.6 39.0 84.0 59.85 93.4 63.25 108.0 55.45 102.8 66.65 62.8 66.65 Q59.6 61.85 62.8 57.05 85.4 35.75 103.2 23.45 L86.8 13.85 75.4 20.7 66.4 28.1 66.4 33.65 65.0 35.25 59.3 37.2 56.0 36.65 56.0 11.45 Q58.4 23.25 63.6 22.65 L84.4 0.65 103.4 16.95 100.5 7.25 129.1 -2.8 M106.55 27.6 L110.0 22.65 103.4 16.95 110.0 22.65 106.55 27.6 99.1 38.25 Q107.4 40.25 109.15 36.25 L106.55 27.6 M161.55 16.8 L166.85 24.3 158.9 38.05 166.85 24.3 161.55 16.8 Q168.2 -3.2 175.0 -17.65 L156.0 -17.75 149.55 -6.15 141.4 15.55 151.55 37.2 156.8 32.8 156.85 31.65 159.45 23.2 159.75 14.2 161.55 16.8 M156.8 32.8 L159.2 30.8 159.45 23.2 159.2 30.8 156.8 32.8 M56.0 36.65 L60.4 33.05 65.0 35.25 60.4 33.05 56.0 36.65 M15.4 9.45 L25.6 0.65 46.4 22.65 Q51.6 23.25 54.0 11.45 L54.0 36.65 49.6 33.05 43.6 28.1 49.6 33.05 54.0 36.65 Q52.25 36.7 50.75 37.2 L45.0 35.25 43.6 33.65 43.6 28.1 34.65 20.7 23.2 13.85 12.15 20.35 6.8 23.45 10.45 26.05 6.8 23.45 12.15 20.35 10.45 26.05 Q26.85 37.9 47.2 57.05 50.4 61.85 47.2 66.65 L7.2 66.65 2.0 55.45 16.6 63.25 26.0 59.85 13.85 42.45 12.35 40.3 13.85 42.45 -1.35 51.2 2.8 26.6 0.0 22.65 2.9 20.15 15.4 9.45 2.9 20.15 3.0 13.15 -13.5 3.75 Q-15.3 25.3 -22.4 55.55 -24.95 60.7 -30.7 60.3 L-42.8 39.4 -50.7 25.65 -45.4 18.15 -50.7 25.65 -42.8 39.4 Q-43.9 40.5 -45.5 41.3 L-80.15 21.3 -79.05 9.0 -70.3 23.1 -60.45 24.85 -64.4 -20.4 -31.2 -26.65 -24.2 2.8 Q-22.0 4.45 -18.65 2.7 L-16.2 -2.55 -13.4 -1.6 -12.95 -1.45 -13.4 -1.6 -12.0 -3.1 -12.95 -1.45 15.65 8.6 15.4 9.45 M8.05 34.15 L2.8 26.6 8.05 34.15 7.0 37.6 Q8.15 40.3 12.35 40.3 L8.05 34.15 M49.6 33.05 L45.0 35.25 49.6 33.05 M60.4 33.05 L66.4 28.1 60.4 33.05 M-25.3 16.9 L-18.65 2.7 -25.3 16.9 -33.4 -4.8 -39.9 -16.4 -58.9 -16.3 Q-52.1 -1.85 -45.4 18.15 L-43.6 15.55 -43.35 24.55 -40.7 33.0 -40.7 34.15 -35.4 38.55 -25.3 16.9 M-43.35 24.55 L-43.1 32.15 -40.7 34.15 -43.1 32.15 -43.35 24.55" fill="#000000" fill-rule="evenodd" stroke="none"/>
    <path d="M75.4 20.7 Q76.05 22.95 77.65 24.75 L67.6 34.65 65.15 41.95 Q62.85 38.35 59.3 37.2 L65.0 35.25 66.4 33.65 66.4 28.1 75.4 20.7 M34.65 20.7 L43.6 28.1 43.6 33.65 45.0 35.25 50.75 37.2 Q47.15 38.35 44.85 41.95 L42.4 34.65 32.4 24.75 Q33.95 22.95 34.65 20.7" fill="#cccccc" fill-rule="evenodd" stroke="none"/>
    <path d="M77.65 24.75 Q80.0 27.4 84.4 29.05 74.3 33.7 67.2 46.25 66.35 43.75 65.15 41.95 L67.6 34.65 77.65 24.75 M44.85 41.95 Q43.65 43.75 42.8 46.25 35.7 33.7 25.6 29.05 30.0 27.4 32.4 24.75 L42.4 34.65 44.85 41.95" fill="#ffffff" fill-rule="evenodd" stroke="none"/>
    <path d="M129.55 -2.95 L129.1 -2.8 100.5 7.25 103.4 16.95 110.0 22.65 106.55 27.6 109.15 36.25 Q107.4 40.25 99.1 38.25 L98.6 39.0 117.45 49.85 113.3 25.1 113.1 11.8 129.6 2.4 Q131.4 23.95 138.55 54.2 141.1 59.35 146.85 58.95 L158.9 38.05 166.85 24.3 161.55 16.8 159.75 14.2 159.45 23.2 159.2 30.8 156.8 32.8 151.55 37.2 141.4 15.55 134.8 1.35 132.35 -3.9 129.55 -2.95 128.15 -4.45 129.1 -2.8 M161.55 16.8 Q168.2 -3.2 175.0 -17.65 L156.0 -17.75 149.55 -6.15 141.4 15.55 M134.8 1.35 Q138.1 3.1 140.35 1.45 L147.35 -28.0 180.5 -21.75 176.6 23.5 186.45 21.75 195.2 7.65 196.3 19.95 161.65 39.95 Q160.0 39.15 158.9 38.05 M156.8 32.8 L156.85 31.65 159.45 23.2 M106.55 27.6 L99.1 38.25 M59.3 37.2 L56.0 36.65 56.0 11.45 Q58.4 23.25 63.6 22.65 L84.4 0.65 103.4 16.95 M98.6 39.0 L84.0 59.85 93.4 63.25 108.0 55.45 102.8 66.65 62.8 66.65 Q59.6 61.85 62.8 57.05 85.4 35.75 103.2 23.45 L86.8 13.85 75.4 20.7 Q76.05 22.95 77.65 24.75 80.0 27.4 84.4 29.05 74.3 33.7 67.2 46.25 66.35 43.75 65.15 41.95 62.85 38.35 59.3 37.2 L65.0 35.25 60.4 33.05 56.0 36.65 M54.0 36.65 L54.0 11.45 Q51.6 23.25 46.4 22.65 L25.6 0.65 15.4 9.45 2.9 20.15 0.0 22.65 2.8 26.6 8.05 34.15 12.35 40.3 13.85 42.45 26.0 59.85 16.6 63.25 2.0 55.45 7.2 66.65 47.2 66.65 Q50.4 61.85 47.2 57.05 26.85 37.9 10.45 26.05 L6.8 23.45 12.15 20.35 23.2 13.85 34.65 20.7 43.6 28.1 49.6 33.05 54.0 36.65 Q52.25 36.7 50.75 37.2 47.15 38.35 44.85 41.95 43.65 43.75 42.8 46.25 35.7 33.7 25.6 29.05 30.0 27.4 32.4 24.75 33.95 22.95 34.65 20.7 M43.6 28.1 L43.6 33.65 45.0 35.25 49.6 33.05 M45.0 35.25 L50.75 37.2 M75.4 20.7 L66.4 28.1 66.4 33.65 65.0 35.25 M66.4 28.1 L60.4 33.05 M-42.8 39.4 L-30.7 60.3 Q-24.95 60.7 -22.4 55.55 -15.3 25.3 -13.5 3.75 L3.0 13.15 2.9 20.15 M15.4 9.45 L15.65 8.6 -12.95 -1.45 -13.4 -1.6 -16.2 -2.55 -18.65 2.7 -25.3 16.9 -35.4 38.55 -40.7 34.15 -43.1 32.15 -43.35 24.55 -43.6 15.55 -45.4 18.15 -50.7 25.65 -42.8 39.4 Q-43.9 40.5 -45.5 41.3 L-80.15 21.3 -79.05 9.0 -70.3 23.1 -60.45 24.85 -64.4 -20.4 -31.2 -26.65 -24.2 2.8 Q-22.0 4.45 -18.65 2.7 M12.35 40.3 Q8.15 40.3 7.0 37.6 L8.05 34.15 M10.45 26.05 L12.15 20.35 M-45.4 18.15 Q-52.1 -1.85 -58.9 -16.3 L-39.9 -16.4 -33.4 -4.8 -25.3 16.9 M-12.95 -1.45 L-12.0 -3.1 -13.4 -1.6 M-40.7 34.15 L-40.7 33.0 -43.35 24.55 M2.8 26.6 L-1.35 51.2 13.85 42.45" ffdec:has-small-stroke="true" ffdec:original-stroke-width="0.5" fill="none" stroke="#351b00" stroke-linecap="round" stroke-linejoin="round" stroke-opacity="0.4509804" stroke-width="1.0"/>
  </g>
</svg>
