<?xml version="1.0" encoding="UTF-8" standalone="no"?>
<svg xmlns:ffdec="https://www.free-decompiler.com/flash" xmlns:xlink="http://www.w3.org/1999/xlink" ffdec:objectType="shape" height="25.5px" width="50.5px" xmlns="http://www.w3.org/2000/svg">
  <g transform="matrix(1.0, 0.0, 0.0, 1.0, 25.3, 7.4)">
    <path d="M-22.2 6.6 L-25.15 6.35 -25.2 5.9 -25.2 -7.4 -24.8 -5.6 Q-24.1 -3.8 -22.0 -2.2 L-22.2 6.6" fill="#795542" fill-rule="evenodd" stroke="none"/>
    <path d="M-25.2 -7.4 L-24.0 -7.4 -23.6 -5.75 Q-23.05 -4.3 -21.65 -3.05 L-20.25 -2.0 Q-19.2 -1.2 -17.5 -0.5 -15.55 0.35 -14.7 0.6 L-13.55 1.0 Q-7.7 2.75 -0.15 2.8 L6.65 2.4 Q11.15 1.8 14.8 0.45 L18.45 -1.15 21.2 -2.95 21.25 -3.0 Q22.75 -4.3 23.3 -5.75 L23.7 -7.4 25.2 -7.4 25.2 5.9 Q25.2 8.3 23.2 10.35 L-22.2 6.6 -22.0 -2.2 Q-24.1 -3.8 -24.8 -5.6 L-25.2 -7.4" fill="#7d4f44" fill-rule="evenodd" stroke="none"/>
    <path d="M25.2 -7.4 L25.2 5.9 Q25.2 8.3 23.2 10.35 M-25.15 6.35 L-25.2 5.9" ffdec:has-small-stroke="true" ffdec:original-stroke-width="0.05" fill="none" stroke="#000000" stroke-linecap="round" stroke-linejoin="round" stroke-width="1.0"/>
    <path d="M9.25 3.45 L9.95 3.35 9.95 3.4 9.25 3.45" fill="#a77958" fill-rule="evenodd" stroke="none"/>
    <path d="M2.15 13.75 L2.45 13.75 2.45 13.8 2.15 13.75" fill="#deae7b" fill-rule="evenodd" stroke="none"/>
    <path d="M7.5 17.25 L6.85 17.3 6.1 17.4 2.8 17.65 2.5 14.45 2.5 14.4 12.7 13.3 13.5 15.05 13.85 15.85 14.05 16.25 8.75 17.05 8.65 17.1 7.5 17.25 M13.85 15.85 L8.75 17.05 13.85 15.85" fill="#c08807" fill-rule="evenodd" stroke="none"/>
    <path d="M-6.2 13.2 L-1.45 13.9 2.15 13.75 2.45 13.8 12.45 12.7 12.7 13.3 2.5 14.4 2.5 14.45 -1.5 14.65 -6.25 13.95 -6.2 13.2 M2.5 14.4 L2.45 13.8 2.5 14.4" fill="#fea818" fill-rule="evenodd" stroke="none"/>
    <path d="M3.9 4.1 L6.1 3.9 6.35 3.9 6.65 3.85 7.8 3.7 9.25 3.45 9.95 3.4 13.7 3.15 13.7 7.35 7.7 8.35 3.9 8.4 3.9 8.5 1.8 8.55 -5.85 8.0 -6.2 13.2 -6.25 13.95 -1.5 14.65 2.5 14.45 2.8 17.65 Q2.3 17.7 2.85 17.75 L2.25 18.05 Q-10.0 18.35 -11.15 16.6 L-10.3 3.3 -10.15 3.35 Q-9.95 4.35 1.8 4.55 L3.9 4.1" fill="#e6a000" fill-rule="evenodd" stroke="none"/>
    <path d="M3.9 3.35 L3.9 4.1 1.8 4.55 Q-9.95 4.35 -10.15 3.35 L-9.65 2.75 -0.25 3.6 3.9 3.35" fill="#ffe035" fill-rule="evenodd" stroke="none"/>
    <path d="M9.95 3.35 L10.3 3.25 14.85 2.05 17.9 0.9 18.2 0.75 Q17.6 11.75 17.0 12.45 L15.7 13.65 13.5 15.05 12.7 13.3 13.6 13.2 12.7 13.3 12.45 12.7 2.45 13.8 2.45 13.75 2.15 13.75 -1.45 13.9 -6.2 13.2 -5.85 8.0 1.8 8.55 3.9 8.5 3.9 8.4 7.7 8.35 13.7 7.35 13.7 3.15 9.95 3.4 9.95 3.35 M13.2 12.6 L12.45 12.7 13.2 12.6 M-12.75 16.25 L-17.95 14.45 -20.4 13.2 Q-21.9 11.85 -22.25 10.4 L-22.35 9.45 -22.1 -1.4 -20.45 -0.3 Q-20.3 10.55 -19.95 11.2 L-19.3 12.25 Q-17.85 14.0 -14.8 15.4 L-12.75 16.25" fill="#4a3128" fill-rule="evenodd" stroke="none"/>
    <path d="M18.2 0.75 L21.55 -1.1 21.65 9.45 21.45 10.85 Q20.8 12.65 18.8 14.0 L17.7 14.45 15.45 15.35 13.85 15.85 13.5 15.05 15.7 13.65 17.0 12.45 Q17.6 11.75 18.2 0.75" fill="#2f1f1a" fill-rule="evenodd" stroke="none"/>
    <path d="M21.55 -1.1 Q23.95 -2.8 24.75 -4.8 L25.1 -6.6 25.1 6.7 Q25.1 10.05 21.15 12.65 L18.8 14.0 Q20.8 12.65 21.45 10.85 L21.65 9.45 21.55 -1.1" fill="#170f0d" fill-rule="evenodd" stroke="none"/>
    <path d="M-11.15 16.6 L-12.75 16.25 -14.8 15.4 Q-17.85 14.0 -19.3 12.25 L-19.95 11.2 Q-20.3 10.55 -20.45 -0.3 L-17.95 0.95 -17.4 1.2 -14.7 2.2 -13.65 2.5 -10.3 3.3 -11.15 16.6" fill="#6a4639" fill-rule="evenodd" stroke="none"/>
    <path d="M-20.4 13.2 Q-25.3 10.4 -25.3 6.7 L-25.3 -6.6 -24.9 -4.8 Q-24.2 -3.0 -22.1 -1.4 L-22.35 9.45 -22.25 10.4 Q-21.9 11.85 -20.4 13.2" fill="#33221c" fill-rule="evenodd" stroke="none"/>
    <path d="M25.1 -6.6 L24.75 -4.8 Q23.95 -2.8 21.55 -1.1 L18.2 0.75 17.9 0.9 14.85 2.05 10.3 3.25 9.95 3.35 9.25 3.45 7.8 3.7 6.65 3.85 6.35 3.9 6.1 3.9 3.9 4.1 3.9 3.35 6.55 3.2 Q11.05 2.6 14.7 1.25 L18.35 -0.35 21.1 -2.15 21.15 -2.2 Q22.65 -3.5 23.2 -4.95 L23.6 -6.6 25.1 -6.6 M-25.3 -6.6 L-24.1 -6.6 -23.7 -4.95 Q-23.15 -3.5 -21.75 -2.25 L-20.35 -1.2 Q-19.3 -0.4 -17.6 0.3 L-14.8 1.4 -13.65 1.8 -9.65 2.75 -10.15 3.35 -10.3 3.3 -13.65 2.5 -14.7 2.2 -17.4 1.2 -17.95 0.95 -20.45 -0.3 -22.1 -1.4 Q-24.2 -3.0 -24.9 -4.8 L-25.3 -6.6" fill="#7d4f44" fill-rule="evenodd" stroke="none"/>
    <path d="M3.9 3.35 L3.9 4.1 M6.35 3.9 L6.65 3.85 7.8 3.7 9.25 3.45 9.95 3.35 10.3 3.25 M18.8 14.0 L21.15 12.65 Q25.1 10.05 25.1 6.7 L25.1 -6.6 M9.95 3.4 L13.7 3.15 13.7 7.35 7.7 8.35 3.9 8.4 3.9 8.5 1.8 8.55 -5.85 8.0 -6.2 13.2 -1.45 13.9 2.15 13.75 2.45 13.75 2.45 13.8 12.45 12.7 13.2 12.6 M9.95 3.4 L9.95 3.35 M9.25 3.45 L9.95 3.4 M7.5 17.25 L6.85 17.3 6.1 17.4 7.5 17.25 8.65 17.1 8.75 17.05 13.85 15.85 13.5 15.05 12.7 13.3 13.6 13.2 M2.5 14.4 L2.5 14.45 2.8 17.65 6.1 17.4 M2.8 17.65 Q2.3 17.7 2.85 17.75 L2.25 18.05 Q-10.0 18.35 -11.15 16.6 L-12.75 16.25 -17.95 14.45 -20.4 13.2 Q-25.3 10.4 -25.3 6.7 L-25.3 -6.6 M2.45 13.8 L2.5 14.4 M2.45 13.8 L2.15 13.75 M18.8 14.0 L17.7 14.45 15.45 15.35 13.85 15.85 14.05 16.25 14.3 16.2 M12.7 13.3 L12.45 12.7 M14.05 16.25 L8.75 17.05 M-10.15 3.35 L-9.65 2.75 M-6.2 13.2 L-6.25 13.95 M-10.3 3.3 L-11.15 16.6" ffdec:has-small-stroke="true" ffdec:original-stroke-width="0.05" fill="none" stroke="#000000" stroke-linecap="round" stroke-linejoin="round" stroke-width="1.0"/>
    <path d="M-16.3 1.9 Q-14.85 3.3 -12.25 3.2 L-13.2 16.2 Q-15.55 16.65 -17.0 15.15 L-16.3 1.9" fill="#e6a000" fill-rule="evenodd" stroke="none"/>
    <path d="M-16.3 1.9 L-16.3 1.7 -14.65 0.15 Q-12.7 0.05 -10.75 1.45 L-10.6 1.6 -12.25 3.05 -12.25 3.2 Q-14.85 3.3 -16.3 1.9" fill="#ffe035" fill-rule="evenodd" stroke="none"/>
    <path d="M-10.6 1.6 L-10.4 1.85 M-12.25 3.2 L-12.25 3.05 -10.6 1.6 -10.75 1.45 Q-12.7 0.05 -14.65 0.15 L-16.3 1.7 -16.3 1.9 -17.0 15.15 Q-15.55 16.65 -13.2 16.2 L-12.25 3.2 Z" ffdec:has-small-stroke="true" ffdec:original-stroke-width="0.05" fill="none" stroke="#000000" stroke-linecap="round" stroke-linejoin="round" stroke-width="1.0"/>
  </g>
</svg>
