<?xml version="1.0" encoding="UTF-8" standalone="no"?>
<svg xmlns:ffdec="https://www.free-decompiler.com/flash" xmlns:xlink="http://www.w3.org/1999/xlink" ffdec:objectType="shape" height="37.2px" width="55.7px" xmlns="http://www.w3.org/2000/svg">
  <g transform="matrix(1.0, 0.0, 0.0, 1.0, -200.4, -149.45)">
    <path d="M239.3 184.7 Q235.8 177.25 239.3 174.05 245.8 179.05 249.9 174.05 253.0 180.1 249.9 184.7 244.6 188.65 239.3 184.7" fill="#996600" fill-rule="evenodd" stroke="none"/>
    <path d="M239.3 184.7 Q244.6 188.65 249.9 184.7 253.0 180.1 249.9 174.05 245.8 179.05 239.3 174.05 235.8 177.25 239.3 184.7 Z" ffdec:has-small-stroke="true" ffdec:original-stroke-width="0.05" fill="none" stroke="#000000" stroke-linecap="round" stroke-linejoin="round" stroke-width="1.0"/>
    <path d="M224.5 160.1 Q221.0 152.65 224.5 149.45 231.0 154.45 235.1 149.45 238.2 155.5 235.1 160.1 229.8 164.05 224.5 160.1" fill="#533800" fill-rule="evenodd" stroke="none"/>
    <path d="M224.5 160.1 Q229.8 164.05 235.1 160.1 238.2 155.5 235.1 149.45 231.0 154.45 224.5 149.45 221.0 152.65 224.5 160.1 Z" ffdec:has-small-stroke="true" ffdec:original-stroke-width="0.05" fill="none" stroke="#000000" stroke-linecap="round" stroke-linejoin="round" stroke-width="1.0"/>
    <path d="M202.15 161.45 Q198.65 154.0 202.15 150.8 208.65 155.8 212.75 150.8 215.85 156.85 212.75 161.45 207.45 165.4 202.15 161.45" fill="#533800" fill-rule="evenodd" stroke="none"/>
    <path d="M202.15 161.45 Q207.45 165.4 212.75 161.45 215.85 156.85 212.75 150.8 208.65 155.8 202.15 150.8 198.65 154.0 202.15 161.45 Z" ffdec:has-small-stroke="true" ffdec:original-stroke-width="0.05" fill="none" stroke="#000000" stroke-linecap="round" stroke-linejoin="round" stroke-width="1.0"/>
    <path d="M243.95 161.45 Q240.45 154.0 243.95 150.8 250.45 155.8 254.55 150.8 257.65 156.85 254.55 161.45 249.25 165.4 243.95 161.45" fill="#533800" fill-rule="evenodd" stroke="none"/>
    <path d="M243.95 161.45 Q249.25 165.4 254.55 161.45 257.65 156.85 254.55 150.8 250.45 155.8 243.95 150.8 240.45 154.0 243.95 161.45 Z" ffdec:has-small-stroke="true" ffdec:original-stroke-width="0.05" fill="none" stroke="#000000" stroke-linecap="round" stroke-linejoin="round" stroke-width="1.0"/>
  </g>
</svg>
