<?xml version="1.0" encoding="UTF-8" standalone="no"?>
<svg xmlns:ffdec="https://www.free-decompiler.com/flash" xmlns:xlink="http://www.w3.org/1999/xlink" ffdec:objectType="shape" height="87.4px" width="103.25px" xmlns="http://www.w3.org/2000/svg">
  <g transform="matrix(1.0, 0.0, 0.0, 1.0, -223.85, -156.75)">
    <path d="M243.3 220.1 L243.3 219.8 Q243.3 212.2 248.7 206.85 254.05 201.45 261.65 201.45 269.25 201.45 274.65 206.85 280.0 212.2 280.0 219.8 280.0 227.4 274.65 232.8 269.25 238.15 261.65 238.15 254.05 238.15 248.7 232.8 243.4 227.5 243.3 220.1" fill="url(#gradient0)" fill-rule="evenodd" stroke="none"/>
    <path d="M324.3 216.8 Q328.95 222.85 325.6 229.35 313.1 250.25 290.5 241.45 281.55 236.55 280.0 228.65 L291.4 222.45 Q290.9 213.0 288.25 204.7 286.95 203.1 285.55 202.25 L285.4 202.15 277.05 203.6 Q280.35 196.8 287.45 193.1 289.85 192.25 292.15 191.85 296.3 182.45 297.8 174.15 299.2 166.9 300.4 167.7 300.95 168.45 299.5 174.15 298.25 179.9 297.5 185.55 L296.9 191.55 297.8 191.6 Q303.75 192.0 309.15 195.7 314.6 201.15 317.45 208.1 319.5 211.75 322.3 214.6 L324.3 216.8 M297.4 196.0 Q296.7 193.95 296.9 191.55 296.7 193.95 297.4 196.0 M291.5 227.0 L291.4 222.45 291.5 227.0 M285.4 202.15 Q284.1 201.4 282.65 201.25 284.1 201.4 285.4 202.15 M290.3 195.9 L292.15 191.85 290.3 195.9" fill="url(#gradient1)" fill-rule="evenodd" stroke="none"/>
    <path d="M256.5 199.1 L255.3 201.55 Q251.05 199.3 248.4 196.15 246.9 196.6 245.45 197.5 242.35 203.2 240.5 210.65 241.4 215.9 243.3 220.1 243.4 227.5 248.7 232.8 247.8 234.5 245.0 235.5 229.55 238.4 224.5 222.3 222.45 214.1 228.05 206.3 L230.25 202.55 233.2 195.95 233.45 195.5 Q236.75 189.35 240.3 186.4 L239.3 182.0 Q237.6 175.65 234.65 169.1 233.05 166.1 233.25 164.2 234.1 163.05 235.95 168.1 238.55 175.2 241.45 180.7 L243.55 184.4 245.9 187.9 243.55 184.4 Q248.15 182.4 253.2 185.5 255.9 188.4 256.85 191.5 257.5 193.65 257.25 195.85 L256.5 199.1 M241.2 192.4 L240.3 186.4 241.2 192.4 M239.35 215.95 Q239.85 213.2 240.5 210.65 239.85 213.2 239.35 215.95 M248.4 196.15 L249.7 195.85 248.4 196.15" fill="url(#gradient2)" fill-rule="evenodd" stroke="none"/>
    <path d="M310.0 187.35 Q312.6 183.15 316.6 174.95 318.6 170.25 319.85 170.05 320.65 170.4 317.8 175.6 313.8 183.9 312.7 191.35 321.3 196.4 324.3 202.55 328.4 211.0 324.3 216.8 L322.3 214.6 Q319.5 211.75 317.45 208.1 314.6 201.15 309.15 195.7 303.75 192.0 297.8 191.6 301.95 188.2 308.6 189.45 L310.0 187.35 M308.6 189.45 L306.8 191.35 308.6 189.45 M312.4 194.4 L312.7 191.35 312.4 194.4" fill="url(#gradient3)" fill-rule="evenodd" stroke="none"/>
    <path d="M230.25 202.55 Q229.75 197.45 233.0 190.55 235.65 184.75 239.3 182.0 L240.3 186.4 Q236.75 189.35 233.45 195.5 L233.2 195.95 230.25 202.55 M241.45 180.7 L243.7 179.9 Q243.3 174.0 241.55 167.45 240.0 162.45 240.7 162.3 L241.1 162.25 Q241.35 162.4 241.65 163.1 L242.8 166.75 Q244.55 173.95 247.05 179.65 L249.45 179.85 Q254.5 180.7 257.15 184.6 260.7 190.65 257.25 195.85 257.5 193.65 256.85 191.5 255.9 188.4 253.2 185.5 248.15 182.4 243.55 184.4 L241.45 180.7 M243.8 182.3 L243.7 179.9 243.8 182.3 M247.05 179.65 L247.95 181.55 247.05 179.65" fill="url(#gradient4)" fill-rule="evenodd" stroke="none"/>
    <path d="M249.45 179.85 Q251.05 178.9 252.55 178.4 252.85 172.25 250.75 163.1 L250.5 161.95 Q249.35 157.45 250.15 156.9 250.85 156.3 251.7 161.55 L252.05 163.1 Q253.75 171.45 257.1 177.9 260.1 178.3 262.5 181.05 267.65 188.3 265.45 194.1 263.35 199.7 256.5 199.1 L257.25 195.85 Q260.7 190.65 257.15 184.6 254.5 180.7 249.45 179.85 M257.1 177.9 Q254.95 177.55 252.55 178.4 254.95 177.55 257.1 177.9 M297.5 185.55 Q299.2 183.85 301.35 183.55 L302.9 183.4 Q308.95 175.65 310.9 170.25 312.6 165.3 313.45 165.55 314.05 165.95 311.9 170.55 307.95 178.75 307.65 184.85 308.9 185.8 310.0 187.35 L308.6 189.45 Q301.95 188.2 297.8 191.6 L296.9 191.55 297.5 185.55 M302.9 183.4 Q305.55 183.3 307.65 184.85 305.55 183.3 302.9 183.4" fill="url(#gradient5)" fill-rule="evenodd" stroke="none"/>
    <path d="M249.45 179.85 Q251.05 178.9 252.55 178.4 252.85 172.25 250.75 163.1 L250.5 161.95 Q249.35 157.45 250.15 156.9 250.85 156.3 251.7 161.55 L252.05 163.1 Q253.75 171.45 257.1 177.9 260.1 178.3 262.5 181.05 267.65 188.3 265.45 194.1 263.35 199.7 256.5 199.1 L255.3 201.55 Q251.05 199.3 248.4 196.15 246.9 196.6 245.45 197.5 242.35 203.2 240.5 210.65 241.4 215.9 243.3 220.1 L243.3 219.8 Q243.3 212.2 248.7 206.85 254.05 201.45 261.65 201.45 269.25 201.45 274.65 206.85 280.0 212.2 280.0 219.8 280.0 227.4 274.65 232.8 269.25 238.15 261.65 238.15 254.05 238.15 248.7 232.8 247.8 234.5 245.0 235.5 229.55 238.4 224.5 222.3 222.45 214.1 228.05 206.3 L230.25 202.55 Q229.75 197.45 233.0 190.55 235.65 184.75 239.3 182.0 237.6 175.65 234.65 169.1 233.05 166.1 233.25 164.2 234.1 163.05 235.95 168.1 238.55 175.2 241.45 180.7 L243.7 179.9 Q243.3 174.0 241.55 167.45 240.0 162.45 240.7 162.3 L241.1 162.25 Q241.35 162.4 241.65 163.1 L242.8 166.75 Q244.55 173.95 247.05 179.65 L249.45 179.85 Q254.5 180.7 257.15 184.6 260.7 190.65 257.25 195.85 L256.5 199.1 M243.7 179.9 L243.8 182.3 M239.3 182.0 L240.3 186.4 241.2 192.4 M245.9 187.9 L243.55 184.4 241.45 180.7 M257.25 195.85 Q257.5 193.65 256.85 191.5 255.9 188.4 253.2 185.5 248.15 182.4 243.55 184.4 M252.55 178.4 Q254.95 177.55 257.1 177.9 M247.95 181.55 L247.05 179.65 M324.3 216.8 Q328.95 222.85 325.6 229.35 313.1 250.25 290.5 241.45 281.55 236.55 280.0 228.65 L291.4 222.45 Q290.9 213.0 288.25 204.7 286.95 203.1 285.55 202.25 L285.4 202.15 277.05 203.6 Q280.35 196.8 287.45 193.1 289.85 192.25 292.15 191.85 296.3 182.45 297.8 174.15 299.2 166.9 300.4 167.7 300.95 168.45 299.5 174.15 298.25 179.9 297.5 185.55 299.2 183.85 301.35 183.55 L302.9 183.4 Q308.95 175.65 310.9 170.25 312.6 165.3 313.45 165.55 314.05 165.95 311.9 170.55 307.95 178.75 307.65 184.85 308.9 185.8 310.0 187.35 312.6 183.15 316.6 174.95 318.6 170.25 319.85 170.05 320.65 170.4 317.8 175.6 313.8 183.9 312.7 191.35 321.3 196.4 324.3 202.55 328.4 211.0 324.3 216.8 L322.3 214.6 Q319.5 211.75 317.45 208.1 314.6 201.15 309.15 195.7 303.75 192.0 297.8 191.6 L296.9 191.55 Q296.7 193.95 297.4 196.0 M297.5 185.55 L296.9 191.55 M306.8 191.35 L308.6 189.45 Q301.95 188.2 297.8 191.6 M307.65 184.85 Q305.55 183.3 302.9 183.4 M308.6 189.45 L310.0 187.35 M282.65 201.25 Q284.1 201.4 285.4 202.15 M291.4 222.45 L291.5 227.0 M249.7 195.85 L248.4 196.15 M240.5 210.65 Q239.85 213.2 239.35 215.95 M240.3 186.4 Q236.75 189.35 233.45 195.5 L233.2 195.95 230.25 202.55 M248.7 232.8 Q243.4 227.5 243.3 220.1 M292.15 191.85 L290.3 195.9 M312.7 191.35 L312.4 194.4" ffdec:has-small-stroke="true" ffdec:original-stroke-width="0.2" fill="none" stroke="#000000" stroke-linecap="round" stroke-linejoin="round" stroke-opacity="0.4" stroke-width="1.0"/>
  </g>
  <defs>
    <linearGradient gradientTransform="matrix(0.0224, 0.0, 0.0, 0.0224, 261.65, 219.8)" gradientUnits="userSpaceOnUse" id="gradient0" spreadMethod="pad" x1="-819.2" x2="819.2">
      <stop offset="0.06666666666666667" stop-color="#ff0b0b" stop-opacity="0.7019608"/>
      <stop offset="0.5137254901960784" stop-color="#f56b58" stop-opacity="0.7019608"/>
      <stop offset="1.0" stop-color="#fbe7d9" stop-opacity="0.6509804"/>
    </linearGradient>
    <linearGradient gradientTransform="matrix(-0.0142, -0.0142, 0.026, -0.026, 302.5, 212.45)" gradientUnits="userSpaceOnUse" id="gradient1" spreadMethod="pad" x1="-819.2" x2="819.2">
      <stop offset="0.06666666666666667" stop-color="#65d8f3" stop-opacity="0.7019608"/>
      <stop offset="0.5137254901960784" stop-color="#87d6f2" stop-opacity="0.7019608"/>
      <stop offset="1.0" stop-color="#d5ebf5" stop-opacity="0.6509804"/>
    </linearGradient>
    <linearGradient gradientTransform="matrix(0.0119, -0.0233, 0.0244, 0.0125, 241.15, 198.2)" gradientUnits="userSpaceOnUse" id="gradient2" spreadMethod="pad" x1="-819.2" x2="819.2">
      <stop offset="0.06666666666666667" stop-color="#65d8f3" stop-opacity="0.7019608"/>
      <stop offset="0.5137254901960784" stop-color="#87d6f2" stop-opacity="0.7019608"/>
      <stop offset="1.0" stop-color="#d5ebf5" stop-opacity="0.6509804"/>
    </linearGradient>
    <linearGradient gradientTransform="matrix(-0.0103, -0.008, 0.0128, -0.0164, 317.85, 190.1)" gradientUnits="userSpaceOnUse" id="gradient3" spreadMethod="pad" x1="-819.2" x2="819.2">
      <stop offset="0.06666666666666667" stop-color="#59be3a" stop-opacity="0.7019608"/>
      <stop offset="0.5137254901960784" stop-color="#baf57c" stop-opacity="0.7019608"/>
      <stop offset="1.0" stop-color="#d2f4d6" stop-opacity="0.6509804"/>
    </linearGradient>
    <linearGradient gradientTransform="matrix(-0.0127, -0.0088, 0.0137, -0.0197, 240.1, 185.45)" gradientUnits="userSpaceOnUse" id="gradient4" spreadMethod="pad" x1="-819.2" x2="819.2">
      <stop offset="0.06666666666666667" stop-color="#59be3a" stop-opacity="0.7019608"/>
      <stop offset="0.5137254901960784" stop-color="#baf57c" stop-opacity="0.7019608"/>
      <stop offset="1.0" stop-color="#d2f4d6" stop-opacity="0.6509804"/>
    </linearGradient>
    <linearGradient gradientTransform="matrix(0.0026, -0.0097, 0.0388, 0.0104, 279.7, 173.3)" gradientUnits="userSpaceOnUse" id="gradient5" spreadMethod="pad" x1="-819.2" x2="819.2">
      <stop offset="0.06666666666666667" stop-color="#e6ba73" stop-opacity="0.7019608"/>
      <stop offset="0.5058823529411764" stop-color="#f8ddb1" stop-opacity="0.7019608"/>
      <stop offset="1.0" stop-color="#fef4e0" stop-opacity="0.6509804"/>
    </linearGradient>
  </defs>
</svg>
