<?xml version="1.0" encoding="UTF-8" standalone="no"?>
<svg xmlns:ffdec="https://www.free-decompiler.com/flash" xmlns:xlink="http://www.w3.org/1999/xlink" ffdec:objectType="shape" height="24.7px" width="24.25px" xmlns="http://www.w3.org/2000/svg">
  <g transform="matrix(1.0, 0.0, 0.0, 1.0, -388.9, -297.25)">
    <path d="M410.2 308.55 Q409.15 307.25 408.7 305.8 409.85 304.75 411.6 304.6 412.35 306.2 410.2 308.55" fill="#323642" fill-rule="evenodd" stroke="none"/>
    <path d="M408.7 305.8 Q409.85 304.75 411.6 304.6 412.35 306.2 410.2 308.55" ffdec:has-small-stroke="true" ffdec:original-stroke-width="0.05" fill="none" stroke="#000000" stroke-linecap="round" stroke-linejoin="round" stroke-opacity="0.2" stroke-width="1.0"/>
    <path d="M408.75 307.05 L410.4 309.9 Q412.3 308.0 412.05 306.35 410.15 306.15 408.75 307.05" fill="#c7316a" fill-rule="evenodd" stroke="none"/>
    <path d="M408.75 307.05 Q410.15 306.15 412.05 306.35 412.3 308.0 410.4 309.9" fill="none" stroke="#000000" stroke-linecap="round" stroke-linejoin="round" stroke-opacity="0.2" stroke-width="1.5"/>
    <path d="M410.3 307.65 L410.25 307.65 410.3 307.65" fill="#d3c28e" fill-rule="evenodd" stroke="none"/>
    <path d="M410.3 307.65 L410.25 307.65 410.3 307.65" fill="#571737" fill-rule="evenodd" stroke="none"/>
    <path d="M410.25 307.65 L410.85 306.75 Q411.35 306.2 411.8 306.0 L411.8 306.45 411.7 307.15 411.7 307.2 Q411.5 308.05 411.0 308.05 L410.55 307.85 410.3 307.65 410.25 307.65" fill="#0e1c1c" fill-rule="evenodd" stroke="none"/>
    <path d="M409.65 306.45 Q409.85 305.9 410.6 305.3 411.4 304.65 411.85 304.6 L412.05 304.6 412.05 304.65 412.1 304.7 412.1 304.75 412.35 305.4 412.3 307.4 412.2 307.75 412.15 307.9 411.95 308.35 411.45 308.55 Q411.05 308.55 410.7 308.25 L410.25 307.65 410.2 307.8 409.65 306.45 M411.8 306.0 Q411.35 306.2 410.85 306.75 L410.25 307.65 410.3 307.65 410.55 307.85 411.0 308.05 Q411.5 308.05 411.7 307.2 L411.7 307.15 411.8 306.45 411.8 306.0" fill="#2a353b" fill-rule="evenodd" stroke="none"/>
    <path d="M412.2 307.75 L412.3 307.4 412.35 305.4 412.1 304.75 412.1 304.7 412.05 304.65 412.05 304.6 411.85 304.6 Q411.4 304.65 410.6 305.3 409.85 305.9 409.65 306.45 M410.2 307.8 L410.25 307.65 410.85 306.75 Q411.35 306.2 411.8 306.0" fill="none" stroke="#332720" stroke-linecap="round" stroke-linejoin="round" stroke-opacity="0.2" stroke-width="1.5" vector-effect="non-scaling-stroke"/>
    <path d="M397.75 297.4 L397.75 297.35 397.9 297.25 398.45 297.25 399.5 297.55 Q400.2 297.85 400.3 298.1 L400.3 298.3 400.05 298.4 398.6 297.95 398.5 297.85 397.75 297.4" fill="#eaece1" fill-rule="evenodd" stroke="none"/>
    <path d="M400.3 298.3 L400.05 298.75 399.85 299.2 399.7 299.95 399.65 299.9 399.45 299.85 399.25 299.9 398.9 299.85 398.7 299.8 398.65 299.8 398.3 299.65 398.5 297.85 398.6 297.95 400.05 298.4 400.3 298.3 M400.05 298.75 L399.75 299.4 399.65 299.9 399.75 299.4 400.05 298.75 M398.85 298.45 L398.7 299.3 398.7 299.8 398.7 299.3 398.85 298.45 M399.0 299.3 L398.9 299.85 399.0 299.3" fill="#aeaf85" fill-rule="evenodd" stroke="none"/>
    <path d="M397.8 297.85 L397.8 297.7 397.75 297.4 398.5 297.85 398.3 299.65 398.65 299.8 398.7 299.8 398.9 299.85 398.9 299.9 398.85 300.0 398.9 299.9 398.9 299.85 399.25 299.9 399.1 299.95 398.85 300.0 398.8 300.0 398.65 300.05 398.7 299.8 398.65 300.05 398.25 300.15 397.9 300.05 397.7 299.95 397.65 299.85 397.65 299.8 397.65 299.75 397.75 299.2 397.8 299.05 397.8 298.3 397.8 297.85" fill="#605c42" fill-rule="evenodd" stroke="none"/>
    <path d="M399.7 299.95 L399.75 299.95 Q401.25 301.4 402.5 301.9 L402.5 302.05 402.45 302.3 402.3 302.8 Q401.9 303.6 400.9 303.6 L400.5 303.6 399.1 302.3 399.6 300.65 398.85 300.0 399.1 299.95 399.25 299.9 399.45 299.85 399.65 299.9 399.7 299.95 M396.0 297.45 L396.8 297.3 397.4 297.35 397.8 297.85 397.8 298.3 397.8 299.05 396.0 297.45 M401.65 301.8 L400.1 300.75 399.1 299.95 400.1 300.75 401.65 301.8" fill="#454730" fill-rule="evenodd" stroke="none"/>
    <path d="M399.1 302.3 L397.45 301.0 395.0 299.3 394.85 298.8 394.8 298.75 394.85 298.65 394.9 298.5 394.95 298.3 395.0 298.25 395.55 297.65 Q395.8 297.5 396.0 297.45 L397.8 299.05 397.75 299.2 397.65 299.75 397.65 299.8 397.65 299.85 397.7 299.95 397.9 300.05 398.25 300.15 398.65 300.05 398.8 300.0 398.85 300.0 399.6 300.65 399.1 302.3 M397.4 300.4 L398.6 301.3 397.4 300.4 M397.4 300.25 L398.35 300.9 399.05 301.45 398.35 300.9 397.4 300.25 M395.85 298.8 L394.95 298.3 395.85 298.8 396.0 298.65 396.25 298.85 396.85 299.25 396.25 298.85 396.0 298.65 395.85 298.8 396.15 299.0 395.85 298.8 M396.4 299.6 L395.25 298.95 394.8 298.75 395.25 298.95 396.4 299.6" fill="#808055" fill-rule="evenodd" stroke="none"/>
    <path d="M400.3 298.3 L400.05 298.75 399.85 299.2 399.7 299.95 399.75 299.95 Q401.25 301.4 402.5 301.9 L402.5 302.05 402.45 302.3 402.3 302.8 Q401.9 303.6 400.9 303.6 L400.5 303.6 399.1 302.3 397.45 301.0 395.0 299.3 394.85 298.8 394.8 298.75 394.85 298.65 394.9 298.5 394.95 298.3 395.0 298.25 395.55 297.65 Q395.8 297.5 396.0 297.45 L396.8 297.3 397.4 297.35 397.8 297.85 397.8 297.7 397.75 297.4 397.75 297.35 397.9 297.25 398.45 297.25 399.5 297.55 Q400.2 297.85 400.3 298.1 L400.3 298.3 400.05 298.4 398.6 297.95 398.5 297.85 397.75 297.4 M398.7 299.8 L398.7 299.3 398.85 298.45 M399.65 299.9 L399.75 299.4 400.05 298.75 M399.7 299.95 L399.65 299.9 399.45 299.85 399.25 299.9 399.1 299.95 400.1 300.75 401.65 301.8 M398.65 300.05 L398.8 300.0 398.85 300.0 398.9 299.9 398.9 299.85 399.0 299.3 M398.7 299.8 L398.65 300.05 398.25 300.15 397.9 300.05 397.7 299.95 397.65 299.85 397.65 299.8 397.65 299.75 397.75 299.2 397.8 299.05 397.8 298.3 397.8 297.85 M398.85 300.0 L399.1 299.95 M394.8 298.75 L395.25 298.95 396.4 299.6 M396.85 299.25 L396.25 298.85 396.0 298.65 395.85 298.8 396.15 299.0 M394.95 298.3 L395.85 298.8 M399.05 301.45 L398.35 300.9 397.4 300.25 M398.6 301.3 L397.4 300.4" ffdec:has-small-stroke="true" ffdec:original-stroke-width="0.05" fill="none" stroke="#332720" stroke-linecap="round" stroke-linejoin="round" stroke-opacity="0.2" stroke-width="1.0" vector-effect="non-scaling-stroke"/>
    <path d="M391.95 300.35 L392.1 300.25 392.75 300.05 394.0 300.15 Q394.8 300.3 394.95 300.5 L395.05 300.75 394.75 300.9 393.05 300.75 392.7 300.7 391.95 300.35" fill="#eaece1" fill-rule="evenodd" stroke="none"/>
    <path d="M391.95 300.35 L392.7 300.7 392.75 302.4 Q392.85 303.0 393.45 302.95 L393.0 303.1 392.6 303.15 392.35 303.05 392.3 302.95 392.3 302.9 392.3 302.85 392.3 302.25 392.25 302.0 392.2 301.3 392.1 300.85 392.05 300.65 391.95 300.35" fill="#727850" fill-rule="evenodd" stroke="none"/>
    <path d="M390.4 300.65 L390.9 300.5 391.55 300.4 392.1 300.85 392.2 301.3 392.25 302.0 390.4 300.65" fill="#797553" fill-rule="evenodd" stroke="none"/>
    <path d="M394.65 302.55 L394.7 302.6 Q396.65 303.75 398.15 304.0 L398.15 304.15 398.2 304.4 398.1 304.95 Q397.8 305.9 396.7 306.15 L396.2 306.2 395.3 305.6 395.2 305.2 Q394.5 304.1 393.2 303.35 L395.3 304.35 395.65 303.5 395.2 303.35 393.95 302.7 394.35 302.6 394.45 302.6 394.6 302.55 394.65 302.55 M397.2 304.05 L395.65 303.5 397.2 304.05" fill="#605c42" fill-rule="evenodd" stroke="none"/>
    <path d="M393.95 302.7 L395.2 303.35 395.65 303.5 395.3 304.35 393.2 303.35 Q394.5 304.1 395.2 305.2 L395.3 305.6 392.25 304.2 389.15 303.05 389.15 303.0 388.9 302.55 388.9 302.5 388.9 302.4 388.9 302.25 388.95 301.95 388.95 301.9 389.55 301.2 Q389.9 300.85 390.4 300.65 L392.25 302.0 392.3 302.25 392.3 302.85 392.3 302.9 392.3 302.95 392.35 303.05 392.6 303.15 393.0 303.1 393.45 302.95 393.55 302.9 393.65 302.85 393.7 302.85 393.95 302.7 M391.25 302.55 L390.55 302.25 390.2 302.1 390.05 302.35 388.95 301.95 390.05 302.35 390.2 302.1 390.55 302.25 391.25 302.55 M390.05 302.35 L390.45 302.45 390.05 302.35 M390.8 303.0 L389.45 302.6 388.9 302.5 389.45 302.6 390.8 303.0 M392.1 303.65 L393.65 304.25 392.1 303.65 M392.1 303.5 L393.25 303.9 394.15 304.3 393.25 303.9 392.1 303.5" fill="#979268" fill-rule="evenodd" stroke="none"/>
    <path d="M394.65 302.55 L394.6 302.55 394.45 302.6 394.35 302.6 393.95 302.7 393.7 302.85 393.7 302.75 393.7 302.55 393.7 302.45 393.7 302.4 393.75 302.1 393.7 302.4 393.7 302.45 393.7 302.55 393.7 302.75 393.7 302.85 393.65 302.85 393.55 302.9 393.45 302.95 Q392.85 303.0 392.75 302.4 L392.7 300.7 393.05 300.75 394.75 300.9 395.05 300.75 394.65 301.8 394.65 302.55 M393.4 301.25 L393.4 302.15 393.4 302.35 393.4 302.45 393.45 302.95 393.4 302.45 393.4 302.35 393.4 302.15 393.4 301.25 M394.7 301.25 L394.6 302.05 394.6 302.5 394.6 302.55 394.6 302.5 394.6 302.05 394.7 301.25" fill="#afab8b" fill-rule="evenodd" stroke="none"/>
    <path d="M395.3 305.6 L396.2 306.2 396.7 306.15 Q397.8 305.9 398.1 304.95 L398.2 304.4 398.15 304.15 398.15 304.0 Q396.65 303.75 394.7 302.6 L394.65 302.55 394.6 302.55 394.45 302.6 394.35 302.6 393.95 302.7 395.2 303.35 395.65 303.5 397.2 304.05 M395.05 300.75 L394.65 301.8 394.65 302.55 M395.05 300.75 L394.95 300.5 Q394.8 300.3 394.0 300.15 L392.75 300.05 392.1 300.25 391.95 300.35 392.7 300.7 393.05 300.75 394.75 300.9 395.05 300.75 M390.4 300.65 L390.9 300.5 391.55 300.4 392.1 300.85 392.05 300.65 391.95 300.35 M392.1 300.85 L392.2 301.3 392.25 302.0 392.3 302.25 392.3 302.85 392.3 302.9 392.3 302.95 392.35 303.05 392.6 303.15 393.0 303.1 393.45 302.95 393.4 302.45 393.4 302.35 393.4 302.15 393.4 301.25 M390.4 300.65 Q389.9 300.85 389.55 301.2 L388.95 301.9 388.95 301.95 390.05 302.35 390.2 302.1 390.55 302.25 391.25 302.55 M388.9 302.5 L388.9 302.55 389.15 303.0 389.15 303.05 392.25 304.2 395.3 305.6 M388.95 301.95 L388.9 302.25 388.9 302.4 388.9 302.5 389.45 302.6 390.8 303.0 M390.45 302.45 L390.05 302.35 M394.6 302.55 L394.6 302.5 394.6 302.05 394.7 301.25 M393.7 302.85 L393.7 302.75 393.7 302.55 393.7 302.45 393.7 302.4 393.75 302.1 M393.7 302.85 L393.95 302.7 M393.45 302.95 L393.55 302.9 393.65 302.85 393.7 302.85 M394.15 304.3 L393.25 303.9 392.1 303.5 M393.65 304.25 L392.1 303.65" ffdec:has-small-stroke="true" ffdec:original-stroke-width="0.05" fill="none" stroke="#332720" stroke-linecap="round" stroke-linejoin="round" stroke-opacity="0.2" stroke-width="1.0" vector-effect="non-scaling-stroke"/>
    <path d="M411.65 321.8 Q410.3 318.7 407.65 316.1 L408.4 315.15 409.1 315.25 409.1 314.65 Q409.95 314.1 411.0 313.75 L411.15 314.0 411.45 314.45 Q410.85 314.05 410.5 314.9 411.65 316.25 412.25 317.7 L412.2 317.7 Q411.5 316.35 410.25 315.4 L410.5 316.4 Q410.9 317.4 411.8 318.15 L408.95 316.35 409.1 317.3 Q410.55 318.9 411.6 320.85 L411.85 319.3 411.65 321.8" fill="#aeaf85" fill-rule="evenodd" stroke="none"/>
    <path d="M411.9 315.3 L412.65 317.35 412.25 317.7 Q411.65 316.25 410.5 314.9 410.85 314.05 411.45 314.45 L411.9 315.3 M411.8 318.15 L411.85 319.3 411.6 320.85 Q410.55 318.9 409.1 317.3 L408.95 316.35 411.8 318.15" fill="#eaece1" fill-rule="evenodd" stroke="none"/>
    <path d="M405.6 315.9 L405.75 314.75 408.4 315.15 407.65 316.1 Q410.3 318.7 411.65 321.8 L411.6 321.95 409.5 318.7 Q407.7 316.4 405.6 315.9 M409.1 312.75 L410.3 312.8 411.5 312.9 411.9 315.3 411.45 314.45 411.15 314.0 411.0 313.75 Q409.95 314.1 409.1 314.65 L409.1 312.75 M412.2 317.7 L411.5 317.0 411.8 318.15 Q410.9 317.4 410.5 316.4 L410.25 315.4 Q411.5 316.35 412.2 317.7 M410.3 312.8 L411.0 313.75 410.3 312.8 M411.5 317.0 L410.5 316.4 411.5 317.0" fill="#8e8e60" fill-rule="evenodd" stroke="none"/>
    <path d="M408.4 315.15 L409.1 314.65 409.1 315.25 408.4 315.15" fill="#352e36" fill-rule="evenodd" stroke="none"/>
    <path d="M408.4 315.15 L405.75 314.75 406.05 312.5 409.1 312.75 409.1 314.65 408.4 315.15" fill="#0f1a1c" fill-rule="evenodd" stroke="none"/>
    <path d="M405.6 315.9 Q407.7 316.4 409.5 318.7 L411.6 321.95 411.65 321.8 411.85 319.3 411.8 318.15 411.5 317.0 412.2 317.7 412.25 317.7 412.65 317.35 411.9 315.3 411.5 312.9 M408.4 315.15 L405.75 314.75 M408.4 315.15 L409.1 315.25 409.1 314.65 409.1 312.75 M411.45 314.45 L411.15 314.0 411.0 313.75 410.3 312.8 M411.45 314.45 L411.9 315.3 M410.5 316.4 L411.5 317.0" ffdec:has-small-stroke="true" ffdec:original-stroke-width="0.05" fill="none" stroke="#000000" stroke-linecap="round" stroke-linejoin="round" stroke-opacity="0.2" stroke-width="1.0"/>
    <path d="M404.95 315.55 L404.9 315.5 404.8 315.45 404.8 315.05 404.95 315.55" fill="#9a275b" fill-rule="evenodd" stroke="none"/>
    <path d="M405.5 316.7 L405.45 316.7 405.5 316.7" fill="#686742" fill-rule="evenodd" stroke="none"/>
    <path d="M396.6 306.15 L396.8 305.75 403.25 302.15 404.9 303.15 404.95 303.15 Q407.55 304.75 410.7 306.1 L411.0 306.5 410.35 307.65 406.45 309.15 406.4 309.2 406.05 309.2 406.0 309.15 Q402.75 309.0 396.6 306.15" fill="#745c69" fill-rule="evenodd" stroke="none"/>
    <path d="M396.2 308.8 L396.15 308.15 Q396.2 306.9 396.6 306.15 402.75 309.0 406.0 309.15 L406.05 309.2 406.4 309.2 405.9 311.15 404.75 314.05 404.8 315.05 404.7 314.8 404.55 314.55 Q403.35 311.9 401.4 310.85 L400.15 313.1 Q399.2 308.05 397.4 307.65 396.9 307.7 397.0 309.35 L397.2 310.7 397.3 310.75 Q397.35 311.7 397.75 312.5 396.5 311.4 396.2 308.8" fill="#29343a" fill-rule="evenodd" stroke="none"/>
    <path d="M404.8 315.05 L404.8 315.45 Q402.85 313.95 399.9 313.4 398.6 313.3 397.75 312.5 397.35 311.7 397.3 310.75 L397.2 310.7 397.0 309.35 Q396.9 307.7 397.4 307.65 399.2 308.05 400.15 313.1 L401.4 310.85 Q403.35 311.9 404.55 314.55 L404.7 314.8 404.8 315.05" fill="#14252c" fill-rule="evenodd" stroke="none"/>
    <path d="M404.8 315.45 Q402.9 314.55 401.5 314.55 L399.15 314.3 Q397.85 313.8 397.0 312.6 396.25 310.7 396.2 308.8 396.5 311.4 397.75 312.5 398.6 313.3 399.9 313.4 402.85 313.95 404.8 315.45" fill="#0d1d1d" fill-rule="evenodd" stroke="none"/>
    <path d="M411.0 306.5 L411.95 307.7 411.7 311.4 Q409.05 312.25 406.4 314.05 L406.5 315.75 405.5 316.7 405.45 316.7 404.95 315.55 404.8 315.05 404.75 314.05 405.9 311.15 406.4 309.2 406.45 309.15 410.35 307.65 411.0 306.5" fill="#45454f" fill-rule="evenodd" stroke="none"/>
    <path d="M411.7 311.4 L411.75 311.6 412.4 313.35 Q409.55 313.05 406.5 315.75 L406.4 314.05 Q409.05 312.25 411.7 311.4" fill="#8c757f" fill-rule="evenodd" stroke="none"/>
    <path d="M396.6 306.15 L396.8 305.75 403.25 302.15 404.9 303.15 404.95 303.15 Q407.55 304.75 410.7 306.1 L411.0 306.5 411.95 307.7 411.7 311.4 411.75 311.6 412.4 313.35 Q409.55 313.05 406.5 315.75 L405.5 316.7 405.45 316.7 404.95 315.55 404.8 315.05 404.7 314.8 404.55 314.55 Q403.35 311.9 401.4 310.85 L400.15 313.1 Q399.2 308.05 397.4 307.65 396.9 307.7 397.0 309.35 L397.2 310.7 M404.9 315.5 L404.8 315.45 Q402.9 314.55 401.5 314.55 L399.15 314.3 Q397.85 313.8 397.0 312.6 396.25 310.7 396.2 308.8 L396.15 308.15 Q396.2 306.9 396.6 306.15" ffdec:has-small-stroke="true" ffdec:original-stroke-width="0.05" fill="none" stroke="#000000" stroke-linecap="round" stroke-linejoin="round" stroke-opacity="0.2" stroke-width="1.0"/>
    <path d="M407.45 301.75 Q407.65 302.9 407.0 303.9 406.4 304.95 405.2 305.15 404.0 305.45 403.05 304.75 402.0 304.15 401.75 303.0 401.5 301.75 402.15 300.8 402.8 299.8 403.95 299.5 405.1 299.3 406.15 299.9 407.15 300.55 407.45 301.75" fill="#8d8461" fill-rule="evenodd" stroke="none"/>
    <path d="M407.45 301.75 Q407.15 300.55 406.15 299.9 405.1 299.3 403.95 299.5 402.8 299.8 402.15 300.8 401.5 301.75 401.75 303.0 402.0 304.15 403.05 304.75 404.0 305.45 405.2 305.15 406.4 304.95 407.0 303.9 407.65 302.9 407.45 301.75 Z" ffdec:has-small-stroke="true" ffdec:original-stroke-width="0.05" fill="none" stroke="#000000" stroke-linecap="round" stroke-linejoin="round" stroke-opacity="0.2" stroke-width="1.0"/>
    <path d="M406.85 302.75 Q406.1 304.0 405.1 304.5 L404.0 305.0 404.4 304.95 404.95 304.85 405.75 304.6 406.4 304.25 406.7 304.0 406.9 303.7 407.1 303.4 407.15 303.0 406.85 302.75" fill="#cacdb2" fill-rule="evenodd" stroke="none"/>
    <path d="M406.7 304.05 L406.15 304.6 405.5 304.4 Q405.2 304.15 405.15 303.7 L405.25 302.8 Q405.4 302.35 405.75 302.25 406.1 302.15 406.4 302.45 L406.8 303.2 406.7 304.05" fill="#000000" fill-rule="evenodd" stroke="none"/>
    <path d="M406.7 304.05 L406.15 304.6 405.5 304.4 Q405.2 304.15 405.15 303.7 L405.25 302.8 Q405.4 302.35 405.75 302.25 406.1 302.15 406.4 302.45 L406.8 303.2 406.7 304.05 Z" ffdec:has-small-stroke="true" ffdec:original-stroke-width="0.05" fill="none" stroke="#000000" stroke-linecap="round" stroke-linejoin="round" stroke-opacity="0.4509804" stroke-width="1.0"/>
    <path d="M406.8 303.2 L407.0 303.15 407.1 302.9 407.05 302.65 406.9 302.5 406.75 302.5 406.65 302.75 406.7 303.0 406.8 303.2" fill="#ffffff" fill-rule="evenodd" stroke="none"/>
  </g>
</svg>
