<?xml version="1.0" encoding="UTF-8" standalone="no"?>
<svg xmlns:ffdec="https://www.free-decompiler.com/flash" xmlns:xlink="http://www.w3.org/1999/xlink" ffdec:objectType="shape" height="37.2px" width="25.1px" xmlns="http://www.w3.org/2000/svg">
  <g transform="matrix(1.0, 0.0, 0.0, 1.0, -389.65, -282.55)">
    <path d="M401.9 298.15 L401.05 298.35 401.05 298.15 401.7 298.15 401.9 298.15" fill="#404040" fill-rule="evenodd" stroke="none"/>
    <path d="M402.6 298.05 L402.3 298.15 401.9 298.15 401.7 298.15 402.9 297.95 402.6 298.05 M400.55 298.15 L400.35 298.15 399.15 297.95 400.55 298.15 M406.05 317.5 L406.2 317.4 406.15 317.5 406.05 317.5 M404.55 298.05 L402.9 297.95 404.15 297.85 404.55 298.05 M396.05 317.4 L396.2 317.5 396.1 317.5 396.05 317.4" fill="#000000" fill-rule="evenodd" stroke="none"/>
    <path d="M396.8 303.25 L396.9 303.35 401.05 302.85 401.1 302.85 401.2 302.95 405.45 303.35 405.55 303.25 406.2 306.3 404.35 309.65 401.2 310.1 401.05 310.1 398.0 309.65 396.05 306.3 396.8 303.25" fill="#151515" fill-rule="evenodd" stroke="none"/>
    <path d="M402.6 298.05 L402.4 298.25 403.85 298.35 407.9 300.7 405.55 303.25 405.45 303.35 401.2 302.95 401.1 302.85 401.05 302.85 396.9 303.35 396.8 303.25 394.35 300.7 398.5 298.35 400.35 298.15 400.55 298.15 401.05 298.15 401.05 298.35 401.9 298.15 402.3 298.15 402.6 298.05" fill="#415658" fill-rule="evenodd" stroke="none"/>
    <path d="M405.55 303.25 L407.9 300.7 403.85 298.35 402.4 298.25 402.6 298.05 402.9 297.95 401.7 298.15 401.05 298.15 400.55 298.15 399.15 297.95 402.9 297.95 404.55 298.05 409.25 300.7 412.5 307.55 410.25 313.85 406.2 317.4 406.05 317.5 405.75 317.75 401.05 317.75 401.05 310.1 401.2 310.1 404.35 309.65 406.2 306.3 405.55 303.25" fill="url(#gradient0)" fill-rule="evenodd" stroke="none"/>
    <path d="M400.35 298.15 L398.5 298.35 394.35 300.7 396.8 303.25 396.05 306.3 398.0 309.65 401.05 310.1 401.05 317.75 396.5 317.75 396.2 317.5 396.05 317.4 392.1 313.85 389.75 307.55 393.1 300.7 398.2 297.95 399.15 297.95 400.35 298.15" fill="url(#gradient1)" fill-rule="evenodd" stroke="none"/>
    <path d="M401.05 317.75 L405.75 317.75 406.05 317.5 406.2 317.4 410.25 313.85 412.5 307.55 409.25 300.7 404.55 298.05 402.9 297.95 399.15 297.95 398.2 297.95 393.1 300.7 389.75 307.55 392.1 313.85 396.05 317.4 396.2 317.5 396.5 317.75 401.05 317.75 M404.55 298.05 L404.15 297.85" ffdec:has-small-stroke="true" ffdec:original-stroke-width="0.25" fill="none" stroke="#000000" stroke-linecap="round" stroke-linejoin="round" stroke-opacity="0.4" stroke-width="1.0"/>
    <path d="M405.7 315.8 Q406.0 315.55 406.4 315.4 L406.7 315.45 406.65 315.35 407.05 315.15 407.8 315.1 406.15 315.9 405.7 315.8 M407.9 315.4 L408.2 315.45 407.25 315.7 407.4 315.55 407.9 315.4 M406.2 316.5 L406.35 316.35 406.55 316.4 406.65 316.35 406.65 316.65 406.2 316.5 M407.25 315.9 L407.35 315.9 407.35 316.0 406.9 316.0 407.05 315.95 407.25 315.9 M407.7 316.55 L407.8 316.6 407.65 316.65 407.55 316.65 407.7 316.55 M407.75 317.95 L407.85 317.9 407.8 318.1 407.4 318.0 407.6 318.05 407.75 317.95 M403.7 317.75 L404.35 317.6 404.5 317.65 404.55 317.6 405.0 317.5 405.25 317.7 404.0 317.85 403.7 317.75 M395.95 315.8 L396.8 315.95 396.95 316.0 397.1 315.9 397.6 316.05 397.95 316.5 396.8 316.25 396.15 316.1 395.95 315.8 M397.9 316.7 L398.2 316.8 397.55 316.65 396.95 316.4 396.8 316.25 397.25 316.5 397.9 316.7 M395.65 316.45 L395.85 316.4 396.0 316.65 396.2 316.6 395.9 316.85 395.65 316.45 M396.65 316.6 L396.8 316.55 396.9 316.65 396.65 316.6 M396.6 317.3 L396.8 317.35 396.55 317.4 396.5 317.25 396.6 317.3 M395.35 318.2 L395.55 318.25 395.4 318.3 395.15 318.25 395.35 318.2 M403.9 318.25 L404.15 318.1 404.25 318.1 404.1 318.3 403.9 318.25 M400.6 317.7 L401.25 317.8 401.45 317.85 401.5 317.75 401.75 317.8 402.1 318.0 400.85 317.85 400.6 317.7 M400.25 318.05 L400.45 318.1 400.7 318.05 400.75 318.15 400.55 318.2 400.25 318.05 M400.25 318.95 L400.3 319.05 400.2 319.05 400.05 318.9 400.25 318.95" fill="#e2dfc7" fill-rule="evenodd" stroke="none"/>
    <path d="M407.05 315.95 L406.95 315.9 406.8 315.75 407.05 315.65 407.15 315.7 407.25 315.9 407.05 315.95 M407.35 316.0 L407.7 316.55 407.55 316.65 407.65 316.65 407.95 316.8 407.9 317.0 408.0 317.0 407.65 317.05 407.15 316.4 407.25 316.3 407.15 316.3 406.9 316.0 407.35 316.0 M403.8 318.2 L403.7 317.75 404.0 317.85 404.15 318.1 403.9 318.25 403.8 318.2 M396.55 317.4 L396.5 317.7 396.4 317.65 396.55 317.9 396.25 317.6 396.4 316.95 396.55 317.0 396.6 316.9 396.65 316.6 396.9 316.65 396.8 316.55 396.7 316.5 396.8 316.25 396.95 316.4 396.9 316.65 397.0 316.7 396.6 317.3 396.5 317.25 396.55 317.4 M400.6 317.7 L400.85 317.85 400.7 318.05 400.45 318.1 400.4 317.95 400.3 317.95 400.6 317.7" fill="#cbc09a" fill-rule="evenodd" stroke="none"/>
    <path d="M396.8 316.25 L397.95 316.5 397.9 316.7 397.25 316.5 396.8 316.25 M395.0 319.45 L394.7 319.05 395.25 317.45 395.4 317.4 395.3 317.25 395.65 316.45 395.9 316.85 395.6 317.65 395.6 317.95 395.35 318.2 395.15 318.25 395.4 318.3 395.2 318.7 395.05 318.9 395.2 318.95 395.05 319.15 395.15 319.15 395.0 319.45" fill="#888844" fill-rule="evenodd" stroke="none"/>
    <path d="M406.15 315.9 L407.8 315.1 407.9 315.4 407.4 315.55 407.25 315.7 408.2 315.45 409.0 316.6 408.9 316.65 408.85 316.75 409.85 318.05 409.8 318.45 409.6 318.6 408.45 318.95 408.4 318.75 408.3 318.7 408.25 318.65 408.15 318.6 407.8 318.1 407.85 317.9 407.75 317.95 407.4 317.55 407.3 317.45 406.65 316.65 406.65 316.35 406.55 316.4 406.15 315.9 M407.25 315.9 L407.15 315.7 407.05 315.65 406.8 315.75 406.95 315.9 407.05 315.95 406.9 316.0 407.15 316.3 407.25 316.3 407.15 316.4 407.65 317.05 408.0 317.0 407.9 317.0 407.95 316.8 407.65 316.65 407.8 316.6 407.7 316.55 407.35 316.0 407.35 315.9 407.25 315.9 M404.15 319.0 L404.1 319.1 404.15 319.4 404.2 319.6 404.1 319.6 404.25 319.75 403.9 319.65 403.85 318.8 403.9 318.6 403.75 318.7 403.8 318.2 403.9 318.25 404.1 318.3 404.1 318.65 404.15 319.0 M396.15 316.1 L396.8 316.25 396.7 316.5 396.8 316.55 396.65 316.6 396.6 316.9 396.55 317.0 396.4 316.95 396.25 317.6 396.55 317.9 396.4 317.65 396.5 317.7 396.55 317.4 396.8 317.35 396.6 317.3 397.0 316.7 396.9 316.65 396.95 316.4 397.55 316.65 398.2 316.8 397.7 318.15 397.5 318.1 397.4 318.15 397.2 318.9 Q395.6 319.6 395.2 318.7 L395.4 318.3 395.55 318.25 395.35 318.2 395.6 317.95 395.6 317.65 395.9 316.85 396.2 316.6 396.0 316.65 396.15 316.1 M399.95 319.55 L399.6 319.35 400.0 318.55 400.15 318.5 400.05 318.35 400.25 318.05 400.55 318.2 400.3 318.65 400.25 318.95 400.05 318.9 400.2 319.05 400.15 319.2 400.05 319.25 399.95 319.25 399.9 319.35 399.95 319.55" fill="#615b30" fill-rule="evenodd" stroke="none"/>
    <path d="M395.95 315.8 L396.15 316.1 396.0 316.65 395.85 316.4 395.6 316.2 395.95 315.8" fill="#524e29" fill-rule="evenodd" stroke="none"/>
    <path d="M405.7 315.8 L406.15 315.9 406.55 316.4 406.35 316.35 406.0 316.35 405.7 315.8 M408.45 318.95 L407.95 318.95 406.85 317.4 406.9 317.35 406.7 317.3 406.2 316.5 406.65 316.65 407.3 317.45 407.4 317.55 407.75 317.95 407.6 318.05 407.4 318.0 407.8 318.1 408.15 318.6 408.25 318.65 408.3 318.7 408.4 318.75 408.45 318.95" fill="#837b41" fill-rule="evenodd" stroke="none"/>
    <path d="M405.35 318.75 L404.15 319.0 404.1 318.65 404.1 318.3 404.25 318.1 404.15 318.1 404.0 317.85 405.25 317.7 405.35 318.75 M400.85 317.85 L402.1 318.0 401.4 319.4 Q400.45 319.6 400.15 319.2 L400.2 319.05 400.3 319.05 400.25 318.95 400.3 318.65 400.55 318.2 400.75 318.15 400.7 318.05 400.85 317.85" fill="#433f23" fill-rule="evenodd" stroke="none"/>
    <path d="M401.4 319.4 L401.25 319.6 401.05 319.75 399.95 319.55 399.9 319.35 399.95 319.25 400.05 319.25 400.15 319.2 Q400.45 319.6 401.4 319.4" fill="#ffcc00" fill-rule="evenodd" stroke="none"/>
    <path d="M405.35 318.75 L405.5 319.4 405.1 319.6 404.25 319.75 404.1 319.6 404.2 319.6 404.15 319.4 404.1 319.1 404.15 319.0 405.35 318.75 M397.2 318.9 L396.9 319.55 396.45 319.75 396.25 319.75 395.0 319.45 395.15 319.15 395.05 319.15 395.2 318.95 395.05 318.9 395.2 318.7 Q395.6 319.6 397.2 318.9" fill="#ec7702" fill-rule="evenodd" stroke="none"/>
    <path d="M401.35 297.4 L400.8 294.4 Q399.8 291.5 402.05 288.8 400.3 292.0 402.0 293.3 L402.85 295.2 Q404.1 297.7 402.2 302.7 403.1 302.2 404.25 299.35 405.05 301.55 404.0 304.45 404.9 304.35 405.5 302.25 405.0 307.55 402.6 310.0 402.9 310.3 404.35 308.75 403.8 310.65 401.2 313.15 L400.4 314.1 401.2 313.55 400.4 314.4 399.5 313.0 Q400.4 312.5 401.25 310.6 400.35 311.9 398.95 312.1 398.65 311.5 398.5 310.45 398.2 308.35 399.55 305.6 399.4 304.15 398.0 308.55 397.7 307.4 397.65 306.0 L398.05 301.4 Q398.15 303.95 399.2 304.2 401.65 299.7 401.35 297.4" fill="#000000" fill-opacity="0.7607843" fill-rule="evenodd" stroke="none"/>
    <path d="M408.8 289.05 L409.5 293.65 Q409.95 297.6 407.35 300.4 405.75 298.5 405.55 295.2 L405.25 301.1 Q405.3 302.7 405.7 304.8 407.3 300.55 407.6 303.1 406.05 305.15 406.25 308.5 L407.05 311.5 Q408.7 313.2 409.5 312.5 408.65 314.05 407.65 313.65 L408.65 317.05 Q409.05 316.0 409.6 316.1 412.55 316.15 413.1 314.0 411.4 314.6 411.05 313.35 413.75 313.15 414.5 307.95 L414.75 307.1 414.7 307.0 Q413.75 308.25 412.9 307.75 413.95 304.8 413.2 300.6 411.55 303.25 410.5 302.65 412.8 298.1 411.4 292.9 L410.15 288.85 Q408.3 284.75 410.4 282.55 407.8 283.5 408.8 289.05" fill="#000000" fill-opacity="0.23137255" fill-rule="evenodd" stroke="none"/>
    <path d="M398.2 294.9 L397.85 298.2 Q397.7 301.05 400.5 302.6 401.95 301.0 401.85 298.7 L402.6 302.75 402.4 305.4 Q400.5 302.65 400.45 304.5 402.1 305.7 402.2 308.05 L401.6 310.3 Q400.15 311.75 399.3 311.35 400.25 312.35 401.2 311.85 400.7 313.15 400.45 314.4 400.0 313.75 399.4 313.95 396.5 314.4 395.85 313.05 397.55 313.15 397.75 312.25 395.1 312.5 393.95 309.0 L393.65 308.45 393.7 308.35 Q394.8 309.05 395.55 308.6 394.3 306.75 394.7 303.7 396.5 305.25 397.55 304.65 394.95 301.85 395.9 298.0 L396.8 294.95 Q398.35 291.8 396.1 290.6 398.75 290.85 398.2 294.9" fill="#000000" fill-opacity="0.23137255" fill-rule="evenodd" stroke="none"/>
    <path d="M400.35 296.7 L400.1 298.7 Q399.9 300.45 400.7 301.65 401.25 300.85 401.4 299.4 L401.4 301.95 401.2 303.6 Q400.75 301.7 400.6 302.85 401.1 303.75 401.0 305.2 L400.65 306.5 Q400.1 307.25 399.85 306.95 400.1 307.65 400.45 307.45 L400.05 308.95 399.75 308.55 Q398.75 308.55 398.65 307.6 399.15 307.85 399.3 307.3 398.4 307.2 398.25 304.95 L398.15 304.55 398.2 304.55 Q398.45 305.1 398.75 304.85 398.45 303.6 398.75 301.75 399.25 302.9 399.65 302.65 398.95 300.65 399.45 298.4 L399.95 296.6 Q400.6 294.8 399.95 293.85 400.8 294.25 400.35 296.7" fill="#000000" fill-opacity="0.23137255" fill-rule="evenodd" stroke="none"/>
    <path d="M393.15 295.25 L393.35 296.85 Q393.5 298.2 394.65 298.9 395.0 298.1 394.75 297.0 L395.35 298.95 395.55 300.25 Q394.65 298.9 394.75 299.8 395.45 300.35 395.7 301.5 L395.7 302.55 Q395.3 303.3 395.0 303.1 395.4 303.6 395.7 303.35 L395.7 304.6 395.3 304.35 Q394.35 304.65 393.95 303.95 394.6 304.0 394.55 303.55 393.65 303.75 393.0 302.05 L392.8 301.8 392.85 301.75 393.45 301.8 Q392.9 300.95 392.75 299.5 393.5 300.2 393.8 299.9 392.65 298.55 392.65 296.75 L392.65 295.25 Q392.9 293.75 392.05 293.2 392.95 293.25 393.15 295.25" fill="#000000" fill-opacity="0.23137255" fill-rule="evenodd" stroke="none"/>
    <path d="M392.75 310.95 L393.15 312.9 394.4 313.35 394.55 313.9 395.1 314.1 395.4 313.6 395.65 313.75 395.65 314.05 395.6 314.4 396.95 314.85 397.05 314.8 397.1 314.9 397.95 314.55 398.05 314.55 398.15 314.4 397.95 314.55 397.05 314.8 397.85 311.85 397.8 311.65 398.35 309.85 398.45 309.8 395.3 306.8 395.25 306.75 395.2 306.85 394.35 307.8 394.2 307.95 394.25 308.0 393.1 309.15 394.9 311.3 Q394.4 311.55 394.1 311.75 L392.75 310.95 M396.0 310.3 Q396.05 309.65 396.25 309.15 L396.2 309.05 396.0 308.65 397.2 309.35 396.45 308.95 396.55 309.25 397.35 310.25 396.45 311.1 395.05 311.6 396.2 310.55 396.0 310.3 M399.15 309.35 L398.8 308.8 398.8 308.9 399.15 309.35" fill="#888844" fill-rule="evenodd" stroke="none"/>
    <path d="M396.7 306.4 L396.4 306.45 396.35 306.55 395.6 306.75 395.3 306.8 398.45 309.8 400.5 309.25 399.6 308.45 399.65 308.3 397.45 306.15 396.7 306.4 M398.8 308.9 L398.8 308.8 399.15 309.35 398.8 308.9" fill="#e2dfc7" fill-rule="evenodd" stroke="none"/>
    <path d="M395.6 306.75 L394.55 305.4 392.05 308.2 392.75 310.95 394.1 311.75 Q394.4 311.55 394.9 311.3 L393.1 309.15 394.25 308.0 394.2 307.95 394.35 307.8 395.2 306.85 395.25 306.75 395.3 306.8 395.6 306.75 M395.1 314.1 L395.65 314.05 395.65 313.75 395.4 313.6 395.1 314.1 M396.55 309.25 L396.45 308.95 397.2 309.35 396.0 308.65 396.2 309.05 396.25 309.15 Q396.05 309.65 396.0 310.3 L396.55 309.25 396.0 310.3 396.2 310.55 395.05 311.6 396.45 311.1 397.35 310.25 396.55 309.25" fill="#616030" fill-rule="evenodd" stroke="none"/>
    <path d="M396.7 306.4 L395.55 305.15 394.55 305.4 395.6 306.75 396.35 306.55 396.4 306.45 396.7 306.4" fill="#b49e6d" fill-rule="evenodd" stroke="none"/>
    <path d="M398.05 314.55 L399.25 313.9 399.65 312.75 399.85 311.7 400.05 311.3 400.5 309.25 398.45 309.8 398.35 309.85 397.8 311.65 397.85 311.85 397.05 314.8 397.95 314.55 398.15 314.4 398.05 314.55" fill="#38381d" fill-rule="evenodd" stroke="none"/>
    <path d="M396.45 311.1 L397.35 310.25 396.55 309.25" ffdec:has-small-stroke="true" ffdec:original-stroke-width="0.05" fill="none" stroke="#3c3c3c" stroke-linecap="round" stroke-linejoin="round" stroke-width="1.0"/>
    <path d="M394.35 307.8 L394.2 307.95 394.25 308.0 M396.55 309.25 L396.0 310.3" ffdec:has-small-stroke="true" ffdec:original-stroke-width="0.05" fill="none" stroke="#3d3d3d" stroke-linecap="round" stroke-linejoin="round" stroke-opacity="0.5019608" stroke-width="1.0"/>
    <path d="M399.15 309.35 L398.8 308.9" ffdec:has-small-stroke="true" ffdec:original-stroke-width="0.05" fill="none" stroke="#c0c0be" stroke-linecap="round" stroke-linejoin="round" stroke-opacity="0.32941177" stroke-width="1.0"/>
    <path d="M405.85 308.25 L407.7 306.95 407.9 306.7 407.95 306.95 409.5 309.55 408.1 310.45 407.75 310.8 409.95 311.05 409.95 311.4 410.3 312.45 409.75 313.45 409.65 313.45 405.75 313.75 405.55 313.8 404.95 313.75 404.55 308.95 404.8 308.9 404.8 308.8 405.4 308.55 405.4 309.4 405.85 308.25 M407.6 309.05 L406.45 310.0 407.3 311.1 407.75 310.8 407.3 311.1 406.45 310.0 407.6 309.05 M410.75 309.65 L410.7 309.85 410.5 309.9 410.75 309.65" fill="#888844" fill-rule="evenodd" stroke="none"/>
    <path d="M407.05 306.35 L407.4 306.45 407.9 306.7 407.7 306.95 405.85 308.25 405.25 307.85 404.3 307.35 406.45 306.0 407.05 306.35 M404.55 308.0 L404.8 308.15 404.75 308.25 405.1 308.35 405.4 308.55 404.8 308.8 404.8 308.9 404.55 308.95 403.95 308.7 403.8 308.65 403.9 308.8 403.75 308.75 403.8 308.65 403.6 308.6 404.55 308.0" fill="#e2dfc7" fill-rule="evenodd" stroke="none"/>
    <path d="M404.3 307.35 L405.25 307.85 405.1 308.35 404.75 308.25 404.8 308.15 404.55 308.0 404.2 307.7 404.3 307.35" fill="#cbc09a" fill-rule="evenodd" stroke="none"/>
    <path d="M405.25 307.85 L405.85 308.25 405.4 309.4 405.4 308.55 405.1 308.35 405.25 307.85" fill="#ccc09b" fill-rule="evenodd" stroke="none"/>
    <path d="M409.95 311.05 L407.75 310.8 408.1 310.45 409.2 310.65 409.95 311.05" fill="#494825" fill-rule="evenodd" stroke="none"/>
    <path d="M407.9 306.7 L407.4 306.45 407.05 306.35 408.35 305.45 409.3 305.9 407.95 306.95 407.9 306.7" fill="#b49e6d" fill-rule="evenodd" stroke="none"/>
    <path d="M407.95 306.95 L409.3 305.9 409.6 306.5 409.5 306.9 409.8 307.0 411.05 309.05 410.75 309.65 410.5 309.9 410.65 310.15 409.95 311.4 409.95 311.05 409.2 310.65 408.1 310.45 409.5 309.55 407.95 306.95" fill="#615b30" fill-rule="evenodd" stroke="none"/>
    <path d="M403.95 308.7 L403.9 308.8 403.8 308.65 403.95 308.7" fill="#a38a54" fill-rule="evenodd" stroke="none"/>
    <path d="M404.55 308.95 L404.95 313.75 405.55 313.8 405.75 313.75 405.65 314.15 404.3 313.9 403.8 313.2 403.7 312.95 403.6 312.95 403.7 311.75 403.55 311.7 403.6 311.6 403.6 308.6 403.8 308.65 403.75 308.75 403.9 308.8 403.95 308.7 404.55 308.95" fill="#38381d" fill-rule="evenodd" stroke="none"/>
    <path d="M405.55 313.8 L405.75 313.75 M410.75 309.65 L410.5 309.9" ffdec:has-small-stroke="true" ffdec:original-stroke-width="0.05" fill="none" stroke="#3d3d3d" stroke-linecap="round" stroke-linejoin="round" stroke-opacity="0.5019608" stroke-width="1.0"/>
    <path d="M407.75 310.8 L407.3 311.1 406.45 310.0 407.6 309.05 M407.95 306.95 L409.5 309.55 408.1 310.45 407.75 310.8" ffdec:has-small-stroke="true" ffdec:original-stroke-width="0.05" fill="none" stroke="#5f5e39" stroke-linecap="round" stroke-linejoin="round" stroke-width="1.0"/>
    <path d="M393.3 288.6 L393.3 288.7 Q393.55 289.1 394.2 289.25 L394.8 289.25 395.0 289.1 395.0 288.7 Q394.85 288.25 393.65 287.9 L393.25 288.3 393.25 288.35 393.3 288.6 M394.1 292.1 Q392.05 291.0 392.55 289.05 L392.75 288.5 Q393.0 287.6 393.75 286.85 395.3 287.85 396.8 288.5 396.05 288.8 395.55 289.25 L395.15 289.7 Q394.25 290.65 394.1 292.1 394.25 290.65 395.15 289.7 L395.55 289.25 Q396.05 288.8 396.8 288.5 398.6 288.05 400.9 289.8 L405.65 289.9 407.55 288.75 Q408.6 288.3 409.75 288.2 L411.8 286.3 412.55 286.3 Q413.0 286.4 413.4 286.85 L414.1 288.05 Q414.8 289.6 413.15 290.75 L412.8 291.3 Q411.0 292.65 408.25 293.25 L406.9 293.55 400.95 293.75 Q395.7 294.1 395.0 293.05 L394.1 292.1 M396.0 290.4 L396.05 290.45 396.25 290.5 396.35 290.5 Q396.65 290.75 397.6 291.0 L398.9 291.15 Q399.35 291.0 399.2 290.55 L398.9 290.1 Q398.45 289.85 397.85 289.75 L397.2 289.7 396.55 289.75 Q396.1 289.9 396.0 290.4 M400.9 289.8 Q400.6 290.1 400.5 290.55 399.9 292.15 400.95 293.75 399.9 292.15 400.5 290.55 400.6 290.1 400.9 289.8 M405.45 291.0 Q405.3 290.55 404.0 290.35 L402.35 290.3 Q402.05 290.4 402.05 290.65 L402.1 290.95 402.1 291.15 402.05 291.5 Q402.2 292.0 403.4 292.0 L404.15 292.05 404.95 291.9 Q405.55 291.7 405.55 291.25 L405.45 291.0 M405.65 289.9 L406.65 290.65 Q407.4 291.7 406.9 293.55 407.4 291.7 406.65 290.65 L405.65 289.9 M413.2 286.95 L412.45 286.9 Q411.95 287.05 412.1 287.5 L412.1 287.55 412.55 287.8 413.2 287.85 413.5 287.65 413.4 287.4 413.2 286.95 M409.95 288.7 L408.65 289.2 Q408.05 289.45 408.05 289.9 L408.05 290.2 Q408.2 290.6 408.85 290.65 L409.8 290.55 Q411.55 289.95 411.25 289.15 L410.6 288.65 410.15 288.65 409.95 288.7 M413.15 290.75 Q413.25 288.3 411.1 288.15 L409.75 288.2 411.1 288.15 Q413.25 288.3 413.15 290.75" fill="#9c7c3e" fill-rule="evenodd" stroke="none"/>
    <path d="M396.0 290.4 L396.05 290.45 396.0 290.4" fill="#bd974b" fill-rule="evenodd" stroke="none"/>
    <path d="M393.3 288.6 L393.25 288.35 393.25 288.3 393.65 287.9 Q394.85 288.25 395.0 288.7 L395.0 289.1 394.8 289.25 394.2 289.25 Q393.55 289.1 393.3 288.7 L393.3 288.6 M396.05 290.45 L396.0 290.4 Q396.1 289.9 396.55 289.75 L397.2 289.7 397.85 289.75 Q398.45 289.85 398.9 290.1 L399.2 290.55 Q399.35 291.0 398.9 291.15 L397.6 291.0 Q396.65 290.75 396.35 290.5 L396.25 290.5 396.05 290.45 M405.45 291.0 L405.55 291.25 Q405.55 291.7 404.95 291.9 L404.15 292.05 403.4 292.0 Q402.2 292.0 402.05 291.5 L402.1 291.15 402.1 290.95 402.05 290.65 Q402.05 290.4 402.35 290.3 L404.0 290.35 Q405.3 290.55 405.45 291.0 M409.95 288.7 L410.15 288.65 410.6 288.65 411.25 289.15 Q411.55 289.95 409.8 290.55 L408.85 290.65 Q408.2 290.6 408.05 290.2 L408.05 289.9 Q408.05 289.45 408.65 289.2 L409.95 288.7 M413.2 286.95 L413.4 287.4 413.5 287.65 413.2 287.85 412.55 287.8 412.1 287.55 412.1 287.5 Q411.95 287.05 412.45 286.9 L413.2 286.95" fill="#e0b359" fill-rule="evenodd" stroke="none"/>
    <path d="M396.8 288.5 Q395.3 287.85 393.75 286.85 393.0 287.6 392.75 288.5 L392.55 289.05 Q392.05 291.0 394.1 292.1 394.25 290.65 395.15 289.7 L395.55 289.25 Q396.05 288.8 396.8 288.5 398.6 288.05 400.9 289.8 L405.65 289.9 407.55 288.75 Q408.6 288.3 409.75 288.2 L411.8 286.3 412.55 286.3 Q413.0 286.4 413.4 286.85 L414.1 288.05 Q414.8 289.6 413.15 290.75 L412.8 291.3 Q411.0 292.65 408.25 293.25 L406.9 293.55 400.95 293.75 Q395.7 294.1 395.0 293.05 L394.1 292.1 M400.95 293.75 Q399.9 292.15 400.5 290.55 400.6 290.1 400.9 289.8 M406.9 293.55 Q407.4 291.7 406.65 290.65 L405.65 289.9 M409.75 288.2 L411.1 288.15 Q413.25 288.3 413.15 290.75" ffdec:has-small-stroke="true" ffdec:original-stroke-width="0.05" fill="none" stroke="#000000" stroke-linecap="round" stroke-linejoin="round" stroke-opacity="0.5019608" stroke-width="1.0"/>
  </g>
  <defs>
    <linearGradient gradientTransform="matrix(0.0027, -0.0106, -0.0112, -0.0031, 401.05, 310.8)" gradientUnits="userSpaceOnUse" id="gradient0" spreadMethod="pad" x1="-819.2" x2="819.2">
      <stop offset="0.0" stop-color="#7e421b"/>
      <stop offset="0.42745098039215684" stop-color="#000000"/>
    </linearGradient>
    <linearGradient gradientTransform="matrix(-0.0027, -0.0106, 0.0112, -0.0031, 401.2, 310.8)" gradientUnits="userSpaceOnUse" id="gradient1" spreadMethod="pad" x1="-819.2" x2="819.2">
      <stop offset="0.0" stop-color="#7e421b"/>
      <stop offset="0.42745098039215684" stop-color="#000000"/>
    </linearGradient>
  </defs>
</svg>
