<?xml version="1.0" encoding="UTF-8" standalone="no"?>
<svg xmlns:ffdec="https://www.free-decompiler.com/flash" xmlns:xlink="http://www.w3.org/1999/xlink" ffdec:objectType="shape" height="24.45px" width="25.9px" xmlns="http://www.w3.org/2000/svg">
  <g transform="matrix(1.0, 0.0, 0.0, 1.0, -389.75, -295.55)">
    <path d="M407.95 315.5 Q407.7 317.1 406.5 318.35 404.8 320.05 402.25 320.0 399.7 319.9 398.0 318.2 397.05 317.25 396.85 315.85 402.1 319.5 407.95 315.5" fill="#c2a561" fill-rule="evenodd" stroke="none"/>
    <path d="M407.95 313.8 L408.0 314.15 407.95 315.5 Q402.1 319.5 396.85 315.85 396.75 315.25 396.8 314.65 402.15 317.55 407.95 313.8" fill="#866d35" fill-rule="evenodd" stroke="none"/>
    <path d="M407.3 311.65 Q407.8 312.65 407.95 313.8 402.15 317.55 396.8 314.65 L396.95 313.5 397.1 312.9 397.2 312.45 397.3 312.2 Q397.25 312.5 397.7 312.55 L398.55 312.45 Q399.35 313.1 399.9 313.0 L400.3 312.85 400.8 312.55 402.2 312.65 403.45 312.5 Q403.9 312.6 404.2 312.0 405.5 312.6 406.15 311.8 406.85 312.25 407.3 311.65" fill="#745f2e" fill-rule="evenodd" stroke="none"/>
    <path d="M397.3 312.2 L398.05 310.4 Q398.6 309.45 399.3 308.75 400.85 307.15 402.45 307.6 L402.7 307.65 Q404.35 308.25 405.9 309.75 L406.1 310.0 407.15 311.3 407.3 311.65 Q406.85 312.25 406.15 311.8 405.5 312.6 404.2 312.0 403.9 312.6 403.45 312.5 L402.2 312.65 400.8 312.55 400.3 312.85 399.9 313.0 Q399.35 313.1 398.55 312.45 L397.7 312.55 Q397.25 312.5 397.3 312.2" fill="#43361b" fill-rule="evenodd" stroke="none"/>
    <path d="M397.3 312.2 L398.05 310.4 Q398.6 309.45 399.3 308.75 400.85 307.15 402.45 307.6 L402.7 307.65 Q404.35 308.25 405.9 309.75 L406.1 310.0 407.15 311.3 407.3 311.65 Q407.8 312.65 407.95 313.8 L408.0 314.15 407.95 315.5 Q407.7 317.1 406.5 318.35 404.8 320.05 402.25 320.0 399.7 319.9 398.0 318.2 397.05 317.25 396.85 315.85 396.75 315.25 396.8 314.65 L396.95 313.5 397.1 312.9 397.2 312.45 397.3 312.2 Z" ffdec:has-small-stroke="true" ffdec:original-stroke-width="0.05" fill="none" stroke="#000000" stroke-linecap="round" stroke-linejoin="round" stroke-opacity="0.3019608" stroke-width="1.0"/>
    <path d="M412.2 317.35 L408.0 317.25 Q407.2 315.75 407.9 315.55 L407.05 316.0 Q406.55 317.1 407.95 318.4 L408.15 318.5 412.1 318.35 Q412.85 318.1 412.2 317.35" fill="#c2a561" fill-rule="evenodd" stroke="none"/>
    <path d="M408.15 318.5 L407.95 318.4 Q406.55 317.1 407.05 316.0 406.9 315.95 406.7 316.35 406.15 317.5 407.55 318.8 L408.15 318.5" fill="#7a6130" fill-opacity="0.5019608" fill-rule="evenodd" stroke="none"/>
    <path d="M407.9 315.55 Q407.2 315.75 408.0 317.25 L412.2 317.35 411.95 317.1 Q409.7 315.05 407.9 315.55" fill="#d5bf91" fill-rule="evenodd" stroke="none"/>
    <path d="M412.2 317.35 Q412.85 318.1 412.1 318.35 L408.15 318.5 407.95 318.4 Q406.55 317.1 407.05 316.0 L407.9 315.55 Q409.7 315.05 411.95 317.1 L412.2 317.35 Z" ffdec:has-small-stroke="true" ffdec:original-stroke-width="0.05" fill="none" stroke="#000000" stroke-linecap="round" stroke-linejoin="round" stroke-opacity="0.3019608" stroke-width="1.0"/>
    <path d="M410.65 299.7 Q410.4 300.25 409.6 300.35 408.85 300.4 408.1 299.95 407.35 299.5 407.05 298.85 406.65 298.15 407.0 297.6 407.35 297.05 408.1 296.95 L409.6 297.4 Q410.35 297.8 410.7 298.5 411.0 299.15 410.65 299.7 M410.4 298.25 L409.5 297.35 Q408.9 297.05 408.35 297.05 407.75 297.1 407.45 297.55 407.2 297.95 407.5 298.55 L408.3 299.4 409.55 299.75 Q410.1 299.65 410.4 299.25 410.65 298.8 410.4 298.25" fill="#d9ceb7" fill-rule="evenodd" stroke="none"/>
    <path d="M410.4 298.25 Q410.65 298.8 410.4 299.25 410.1 299.65 409.55 299.75 L408.3 299.4 407.5 298.55 Q407.2 297.95 407.45 297.55 407.75 297.1 408.35 297.05 408.9 297.05 409.5 297.35 L410.4 298.25" fill="#ede8de" fill-rule="evenodd" stroke="none"/>
    <path d="M403.5 296.05 L399.65 296.35 Q398.1 296.95 398.2 297.9 398.2 298.25 399.7 298.4 L402.5 298.85 Q408.7 299.85 408.9 299.0 409.15 298.1 407.5 297.2 405.8 296.25 403.5 296.05 M395.35 298.0 Q397.85 296.4 401.15 296.0 406.35 295.35 410.85 299.6 L413.35 302.1 Q393.5 305.2 395.35 298.0" fill="#a00101" fill-rule="evenodd" stroke="none"/>
    <path d="M390.25 303.65 Q391.0 302.2 392.75 300.2 393.9 298.85 395.35 298.0 393.5 305.2 413.35 302.1 L414.9 304.15 Q398.85 309.2 390.25 303.65" fill="#850101" fill-rule="evenodd" stroke="none"/>
    <path d="M414.9 304.15 L415.5 305.6 415.55 306.05 415.45 306.35 Q414.95 307.7 412.05 308.65 408.4 309.95 403.1 309.95 397.75 309.95 393.9 308.65 390.35 307.55 389.85 306.0 L389.75 305.6 Q389.65 304.85 390.25 303.65 398.85 309.2 414.9 304.15" fill="#750101" fill-rule="evenodd" stroke="none"/>
    <path d="M415.55 306.05 L415.6 306.3 415.65 306.4 Q415.8 308.2 412.15 309.45 408.45 310.7 403.15 310.65 397.85 310.7 393.95 309.45 390.05 308.2 389.85 306.4 L389.85 306.0 Q390.35 307.55 393.9 308.65 397.75 309.95 403.1 309.95 408.4 309.95 412.05 308.65 414.95 307.7 415.45 306.35 L415.55 306.05" fill="#55482b" fill-rule="evenodd" stroke="none"/>
    <path d="M403.5 296.05 Q405.8 296.25 407.5 297.2 409.15 298.1 408.9 299.0 408.7 299.85 402.5 298.85 L399.7 298.4 Q398.2 298.25 398.2 297.9 398.1 296.95 399.65 296.35 L403.5 296.05" fill="#ca0202" fill-rule="evenodd" stroke="none"/>
    <path d="M415.55 306.05 L415.6 306.3 415.65 306.4 Q415.8 308.2 412.15 309.45 408.45 310.7 403.15 310.65 397.85 310.7 393.95 309.45 390.05 308.2 389.85 306.4 L389.85 306.0" ffdec:has-small-stroke="true" ffdec:original-stroke-width="0.05" fill="none" stroke="#000000" stroke-linecap="round" stroke-linejoin="round" stroke-opacity="0.3019608" stroke-width="1.0"/>
    <path d="M400.3 302.25 L403.1 301.7 Q403.45 303.45 402.75 305.0 401.6 305.9 400.5 305.0 399.85 303.55 400.3 302.25 M404.7 301.8 Q406.2 301.95 407.65 302.65 408.1 304.0 407.6 305.3 406.2 305.75 405.15 305.05 404.5 303.45 404.7 301.8 M409.75 304.9 L410.7 306.05 411.45 306.75 411.1 307.2 Q410.15 307.15 409.5 306.3 L409.75 304.9 M395.8 305.75 L397.75 303.9 Q397.55 304.85 397.8 305.6 396.9 306.15 395.95 306.2 395.65 306.0 395.8 305.75 M408.45 303.35 L408.5 303.65 408.45 303.35 M393.0 308.65 L393.05 308.7 393.0 308.65" fill="#c0ad83" fill-rule="evenodd" stroke="none"/>
    <path d="M411.4 309.8 L408.55 310.35 407.7 310.4 406.35 310.6 406.15 310.65 403.05 310.8 400.4 310.6 400.3 310.6 397.95 310.3 395.55 309.85 395.3 309.8 392.5 308.95 393.0 308.65 393.05 308.7 395.9 308.6 399.75 308.75 Q401.55 309.85 403.6 308.8 L407.45 308.9 Q408.55 309.65 410.25 309.55 L410.75 309.45 411.4 309.8 M397.95 310.3 L395.9 308.6 397.95 310.3 M406.35 310.6 L407.45 308.9 406.35 310.6 M393.05 308.7 Q393.85 309.35 395.3 309.8 393.85 309.35 393.05 308.7 M408.55 310.35 L410.25 309.55 408.55 310.35 M400.3 310.6 L399.75 308.75 400.3 310.6 M403.05 310.8 L403.6 308.8 403.05 310.8" fill="#73613a" fill-rule="evenodd" stroke="none"/>
    <path d="M399.55 302.55 L399.8 302.45 399.8 302.55 Q399.4 304.65 399.5 306.5 L399.75 308.75 399.5 306.5 Q399.4 304.65 399.8 302.55 399.8 304.4 400.1 306.35 401.7 306.05 403.2 306.35 403.75 304.6 403.65 301.7 404.35 304.0 404.3 306.5 L407.75 306.8 Q408.55 305.55 408.5 303.65 L408.45 303.35 408.55 303.45 Q409.0 305.3 408.65 307.0 410.2 307.35 411.2 308.1 L412.0 307.2 412.05 307.2 Q415.05 309.1 415.55 306.05 415.65 308.15 412.8 309.35 L411.55 309.75 411.4 309.8 410.75 309.45 410.25 309.55 Q408.55 309.65 407.45 308.9 L408.2 306.95 408.2 306.9 Q408.65 305.3 408.5 303.65 408.65 305.3 408.2 306.9 L408.2 306.95 407.45 308.9 403.6 308.8 403.9 306.5 Q404.05 304.15 403.65 301.7 404.05 304.15 403.9 306.5 L403.6 308.8 Q401.55 309.85 399.75 308.75 L395.9 308.6 395.35 307.65 395.0 306.5 395.35 307.65 395.9 308.6 393.05 308.7 393.0 308.65 392.5 308.95 391.8 308.6 Q389.7 307.5 389.85 306.0 390.2 308.05 392.05 307.7 L392.15 307.65 392.3 307.65 392.7 308.2 394.7 307.8 Q395.1 307.3 394.9 306.6 L395.0 306.5 Q395.2 307.1 395.75 307.35 396.9 306.65 398.8 306.55 398.8 304.5 399.55 302.55 M412.0 307.2 L411.55 308.35 410.25 309.55 411.55 308.35 412.0 307.2 M392.15 307.65 L392.5 308.2 392.55 308.25 393.0 308.65 392.55 308.25 392.5 308.2 392.15 307.65" fill="#99824d" fill-rule="evenodd" stroke="none"/>
    <path d="M399.8 302.45 L400.3 302.25 Q399.85 303.55 400.5 305.0 401.6 305.9 402.75 305.0 403.45 303.45 403.1 301.7 L403.65 301.7 404.7 301.8 Q404.5 303.45 405.15 305.05 406.2 305.75 407.6 305.3 408.1 304.0 407.65 302.65 L407.95 302.8 408.45 303.35 408.5 303.65 Q408.55 305.55 407.75 306.8 L404.3 306.5 Q404.35 304.0 403.65 301.7 403.75 304.6 403.2 306.35 401.7 306.05 400.1 306.35 399.8 304.4 399.8 302.55 L399.8 302.45 M408.55 303.45 L409.75 304.9 409.5 306.3 Q410.15 307.15 411.1 307.2 L411.45 306.75 412.0 307.15 412.0 307.2 411.2 308.1 Q410.2 307.35 408.65 307.0 409.0 305.3 408.55 303.45 M392.3 307.65 Q393.55 307.75 394.9 306.6 395.1 307.3 394.7 307.8 L392.7 308.2 392.3 307.65 M395.0 306.5 L395.8 305.75 Q395.65 306.0 395.95 306.2 396.9 306.15 397.8 305.6 397.55 304.85 397.75 303.9 L397.85 303.8 398.7 302.95 399.55 302.55 Q398.8 304.5 398.8 306.55 396.9 306.65 395.75 307.35 395.2 307.1 395.0 306.5" fill="#b39b66" fill-rule="evenodd" stroke="none"/>
    <path d="M399.55 302.55 L399.8 302.45 400.3 302.25 403.1 301.7 403.65 301.7 404.7 301.8 Q406.2 301.95 407.65 302.65 L407.95 302.8 408.45 303.35 408.55 303.45 409.75 304.9 410.7 306.05 411.45 306.75 412.0 307.15 412.0 307.2 412.05 307.2 Q415.05 309.1 415.55 306.05 415.65 308.15 412.8 309.35 L411.55 309.75 M411.4 309.8 L408.55 310.35 407.7 310.4 406.35 310.6 406.15 310.65 403.05 310.8 400.4 310.6 400.3 310.6 397.95 310.3 395.55 309.85 395.3 309.8 392.5 308.95 391.8 308.6 Q389.7 307.5 389.85 306.0 390.2 308.05 392.05 307.7 L392.15 307.65 392.3 307.65 Q393.55 307.75 394.9 306.6 L395.0 306.5 395.8 305.75 397.75 303.9 M397.85 303.8 L398.7 302.95 399.55 302.55 M395.0 306.5 L395.35 307.65 395.9 308.6 397.95 310.3 M399.75 308.75 L399.5 306.5 Q399.4 304.65 399.8 302.55 L399.8 302.45 M408.45 303.35 L408.5 303.65 Q408.65 305.3 408.2 306.9 L408.2 306.95 407.45 308.9 406.35 310.6 M410.25 309.55 L411.55 308.35 412.0 307.2 M393.0 308.65 L392.55 308.25 392.5 308.2 392.15 307.65 M393.05 308.7 L393.0 308.65 M395.3 309.8 Q393.85 309.35 393.05 308.7 M410.25 309.55 L408.55 310.35 M403.65 301.7 Q404.05 304.15 403.9 306.5 L403.6 308.8 403.05 310.8 M399.75 308.75 L400.3 310.6" ffdec:has-small-stroke="true" ffdec:original-stroke-width="0.05" fill="none" stroke="#000000" stroke-linecap="round" stroke-linejoin="round" stroke-opacity="0.3019608" stroke-width="1.0"/>
    <path d="M393.0 317.9 Q395.0 318.2 397.1 317.15 397.35 315.6 396.6 315.55 L397.6 315.75 Q398.55 316.75 397.6 318.2 L397.4 318.3 Q395.15 319.0 393.4 318.8 392.6 318.65 393.0 317.9" fill="#c2a561" fill-rule="evenodd" stroke="none"/>
    <path d="M397.4 318.3 L397.6 318.2 Q398.55 316.75 397.6 315.75 397.8 315.7 398.1 316.05 399.05 317.05 398.1 318.5 L397.4 318.3" fill="#7a6130" fill-opacity="0.5019608" fill-rule="evenodd" stroke="none"/>
    <path d="M396.6 315.55 Q397.35 315.6 397.1 317.15 395.0 318.2 393.0 317.9 L393.15 317.6 Q394.7 315.3 396.55 315.5 L396.6 315.55" fill="#d5bf91" fill-rule="evenodd" stroke="none"/>
    <path d="M393.0 317.9 Q392.6 318.65 393.4 318.8 395.15 319.0 397.4 318.3 L397.6 318.2 Q398.55 316.75 397.6 315.75 L396.6 315.55 M396.55 315.5 Q394.7 315.3 393.15 317.6 L393.0 317.9" ffdec:has-small-stroke="true" ffdec:original-stroke-width="0.05" fill="none" stroke="#000000" stroke-linecap="round" stroke-linejoin="round" stroke-opacity="0.3019608" stroke-width="1.0"/>
    <path d="M392.45 303.15 Q393.05 303.3 393.35 304.0 393.6 304.75 393.35 305.55 393.15 306.4 392.55 306.9 391.95 307.4 391.35 307.2 390.75 307.05 390.45 306.35 390.25 305.65 390.45 304.8 390.7 303.95 391.25 303.45 391.85 302.95 392.45 303.15 M390.45 304.9 Q390.3 305.55 390.45 306.1 390.7 306.65 391.15 306.8 391.65 306.95 392.15 306.55 L392.75 305.5 Q392.95 304.8 392.75 304.25 L392.05 303.55 Q391.6 303.4 391.1 303.8 390.65 304.2 390.45 304.9" fill="#d9ceb7" fill-rule="evenodd" stroke="none"/>
    <path d="M390.45 304.9 Q390.65 304.2 391.1 303.8 391.6 303.4 392.05 303.55 L392.75 304.25 Q392.95 304.8 392.75 305.5 L392.15 306.55 Q391.65 306.95 391.15 306.8 390.7 306.65 390.45 306.1 390.3 305.55 390.45 304.9" fill="#ede8de" fill-rule="evenodd" stroke="none"/>
    <path d="M397.35 297.95 Q397.7 298.7 397.45 299.6 397.15 300.45 396.3 301.05 395.5 301.65 394.6 301.55 393.7 301.5 393.3 300.8 392.9 300.1 393.2 299.2 393.5 298.35 394.3 297.75 395.15 297.15 396.0 297.2 396.9 297.3 397.35 297.95 M395.65 297.4 Q394.9 297.4 394.25 297.85 393.65 298.3 393.35 299.0 393.1 299.7 393.45 300.25 393.8 300.8 394.55 300.85 395.2 300.95 395.85 300.45 396.55 300.05 396.75 299.25 397.0 298.6 396.7 298.05 396.35 297.5 395.65 297.4" fill="#d9ceb7" fill-rule="evenodd" stroke="none"/>
    <path d="M395.65 297.4 Q396.35 297.5 396.7 298.05 397.0 298.6 396.75 299.25 396.55 300.05 395.85 300.45 395.2 300.95 394.55 300.85 393.8 300.8 393.45 300.25 393.1 299.7 393.35 299.0 393.65 298.3 394.25 297.85 394.9 297.4 395.65 297.4" fill="#ede8de" fill-rule="evenodd" stroke="none"/>
    <path d="M411.65 303.2 Q411.6 302.45 412.0 302.05 L413.15 301.85 Q413.9 302.1 414.45 302.75 415.0 303.5 415.1 304.2 415.15 304.95 414.7 305.35 L413.55 305.5 412.3 304.65 Q411.7 303.9 411.65 303.2" fill="#ede8de" fill-rule="evenodd" stroke="none"/>
    <path d="M411.15 303.3 Q411.1 302.4 411.6 301.9 412.2 301.4 413.05 301.65 413.95 301.95 414.65 302.8 415.35 303.7 415.5 304.65 415.6 305.55 414.95 306.05 414.45 306.55 413.55 306.25 412.65 306.0 411.95 305.15 411.25 304.3 411.15 303.3 M411.65 303.2 Q411.7 303.9 412.3 304.65 L413.55 305.5 414.7 305.35 Q415.15 304.95 415.1 304.2 415.0 303.5 414.45 302.75 413.9 302.1 413.15 301.85 L412.0 302.05 Q411.6 302.45 411.65 303.2" fill="#d9ceb7" fill-rule="evenodd" stroke="none"/>
    <path d="M403.95 297.55 L404.7 296.8 Q404.8 296.3 404.4 295.95 L403.2 295.6 401.9 296.0 Q401.35 296.3 401.2 296.75 401.05 297.2 401.45 297.55 401.9 297.9 402.7 297.85 L403.95 297.55 M405.05 297.0 L404.1 297.95 Q403.35 298.35 402.45 298.35 401.55 298.35 401.0 297.95 400.45 297.5 400.6 296.95 400.8 296.4 401.5 295.95 L403.2 295.55 Q404.1 295.55 404.65 295.95 405.15 296.4 405.05 297.0" fill="#d9ceb7" fill-rule="evenodd" stroke="none"/>
    <path d="M403.95 297.55 L402.7 297.85 Q401.9 297.9 401.45 297.55 401.05 297.2 401.2 296.75 401.35 296.3 401.9 296.0 L403.2 295.6 404.4 295.95 Q404.8 296.3 404.7 296.8 L403.95 297.55" fill="#ede8de" fill-rule="evenodd" stroke="none"/>
    <path d="M406.5 297.95 Q407.35 297.65 408.2 297.95 409.1 298.25 409.55 298.9 409.9 299.6 409.65 300.35 409.35 300.95 408.5 301.25 L406.8 301.3 Q405.9 301.0 405.5 300.35 405.1 299.6 405.4 298.95 405.7 298.25 406.5 297.95 M406.0 298.9 Q405.75 299.45 406.05 300.0 L407.15 300.75 Q407.85 301.0 408.45 300.75 L409.4 300.0 Q409.6 299.4 409.3 298.85 L408.25 298.05 406.9 298.1 Q406.25 298.35 406.0 298.9" fill="#d9ceb7" fill-rule="evenodd" stroke="none"/>
    <path d="M406.0 298.9 Q406.25 298.35 406.9 298.1 L408.25 298.05 409.3 298.85 Q409.6 299.4 409.4 300.0 L408.45 300.75 Q407.85 301.0 407.15 300.75 L406.05 300.0 Q405.75 299.45 406.0 298.9" fill="#ede8de" fill-rule="evenodd" stroke="none"/>
    <path d="M401.45 313.4 Q402.5 314.0 402.6 315.7 L402.55 315.8 402.45 317.9 Q402.35 318.15 402.05 318.1 L401.95 318.2 400.5 318.15 Q399.65 318.1 398.8 317.55 398.1 317.0 398.2 315.85 398.3 314.75 399.2 313.65 399.65 313.25 400.15 313.15 400.8 313.0 401.45 313.4" fill="url(#gradient0)" fill-rule="evenodd" stroke="none"/>
    <path d="M401.45 313.4 Q402.5 314.0 402.6 315.7 L402.55 315.8 402.6 316.45 Q400.5 315.85 398.55 314.65 L399.2 313.65 Q399.65 313.25 400.15 313.15 400.8 313.0 401.45 313.4" fill="#d1b479" fill-opacity="0.28235295" fill-rule="evenodd" stroke="none"/>
    <path d="M401.3 315.75 L401.45 315.65 401.5 315.45 401.45 315.25 401.3 315.15 401.3 315.1 Q401.45 314.85 401.7 314.95 402.0 314.95 402.25 315.35 L402.4 316.3 402.25 317.05 Q402.0 317.4 401.7 317.35 L401.2 316.85 401.0 316.0 401.1 315.55 401.15 315.6 401.3 315.75" fill="#252016" fill-rule="evenodd" stroke="none"/>
    <path d="M403.9 313.3 Q402.85 313.85 402.75 315.55 L402.8 315.65 Q402.7 317.15 402.9 317.75 L402.9 317.8 403.3 318.0 403.4 318.1 404.85 318.1 Q405.7 318.1 406.55 317.6 407.25 317.05 407.15 315.95 407.05 314.8 406.15 313.65 405.7 313.25 405.2 313.15 L403.9 313.3" fill="url(#gradient1)" fill-rule="evenodd" stroke="none"/>
    <path d="M403.95 313.35 Q402.9 313.9 402.8 315.6 L402.85 315.7 402.8 316.35 Q404.9 315.85 406.85 314.75 L406.2 313.7 405.25 313.2 403.95 313.35" fill="#d1b479" fill-opacity="0.28235295" fill-rule="evenodd" stroke="none"/>
    <path d="M403.25 315.25 L403.3 315.25 403.45 315.35 403.5 315.5 403.45 315.75 403.3 315.85 403.15 315.75 403.1 315.7 403.05 316.25 403.25 317.0 Q403.45 317.4 403.75 317.35 L404.25 316.85 404.4 316.05 404.25 315.15 Q404.0 314.85 403.75 314.95 403.45 314.95 403.25 315.25" fill="#252016" fill-rule="evenodd" stroke="none"/>
  </g>
  <defs>
    <radialGradient cx="0" cy="0" gradientTransform="matrix(-0.0044, -3.0E-4, 1.0E-4, 0.0054, 400.7, 316.95)" gradientUnits="userSpaceOnUse" id="gradient0" r="819.2" spreadMethod="pad">
      <stop offset="0.6941176470588235" stop-color="#ffffff"/>
      <stop offset="0.7450980392156863" stop-color="#d1b579"/>
    </radialGradient>
    <radialGradient cx="0" cy="0" gradientTransform="matrix(0.0044, -1.0E-4, -1.0E-4, 0.0054, 404.65, 316.9)" gradientUnits="userSpaceOnUse" id="gradient1" r="819.2" spreadMethod="pad">
      <stop offset="0.6941176470588235" stop-color="#ffffff"/>
      <stop offset="0.7450980392156863" stop-color="#d1b579"/>
    </radialGradient>
  </defs>
</svg>
