<?xml version="1.0" encoding="UTF-8" standalone="no"?>
<svg xmlns:ffdec="https://www.free-decompiler.com/flash" xmlns:xlink="http://www.w3.org/1999/xlink" ffdec:objectType="shape" height="36.05px" width="32.85px" xmlns="http://www.w3.org/2000/svg">
  <g transform="matrix(1.0, 0.0, 0.0, 1.0, 16.4, 18.05)">
    <path d="M-13.1 -0.45 Q-12.2 -6.65 -9.7 -9.15 -7.2 -11.65 -6.1 -12.2 -4.9 -14.3 -3.6 -15.55 -2.45 -11.45 -0.75 -7.6 L-13.1 -0.45" fill="#704628" fill-rule="evenodd" stroke="none"/>
    <path d="M-13.1 -0.45 Q-12.2 -6.65 -9.7 -9.15 -7.2 -11.65 -6.1 -12.2 -4.9 -14.3 -3.6 -15.55 -2.45 -11.45 -0.75 -7.6" fill="none" stroke="#000000" stroke-linecap="round" stroke-linejoin="round" stroke-opacity="0.29803923" stroke-width="1.0" vector-effect="non-scaling-stroke"/>
    <path d="M-3.85 -13.35 Q-3.45 -15.2 -2.5 -16.7 -1.85 -17.55 -0.95 -17.55 L-0.65 -16.95 4.1 -13.9 Q5.4 -13.05 6.65 -11.0 12.9 -7.35 12.8 -3.0 L-3.45 -3.9 -3.8 -7.2 Q-4.4 -10.65 -3.85 -13.35" fill="#704628" fill-rule="evenodd" stroke="none"/>
    <path d="M-3.85 -13.35 Q-3.45 -15.2 -2.5 -16.7 -1.85 -17.55 -0.95 -17.55 L-0.65 -16.95 4.1 -13.9 Q5.4 -13.05 6.65 -11.0 12.9 -7.35 12.8 -3.0" fill="none" stroke="#000000" stroke-linecap="round" stroke-linejoin="round" stroke-opacity="0.29803923" stroke-width="1.0" vector-effect="non-scaling-stroke"/>
    <path d="M2.75 -11.75 Q4.65 -11.45 6.3 -10.6 L9.5 -8.3 9.75 -8.05 Q11.2 -6.55 12.15 -4.85 13.5 -2.2 13.65 0.95 L13.65 1.45 Q13.65 7.05 9.75 10.95 5.85 14.9 0.35 14.9 L0.1 14.9 -1.6 14.8 Q-5.35 14.4 -8.45 12.35 L-9.45 11.7 -10.5 10.75 -11.35 9.7 Q-13.45 6.55 -13.05 1.25 L-13.0 0.8 -13.0 0.5 -12.1 -2.9 -12.0 -3.35 -9.15 -7.75 -8.8 -8.1 Q-6.25 -10.8 -2.75 -11.6 L-0.15 -11.95 0.35 -11.95 0.75 -11.95 2.75 -11.75 M-13.0 0.5 L-13.0 0.9 -13.05 1.25 -13.0 0.9 -13.0 0.5 M0.1 14.9 L0.45 14.9 Q5.95 14.85 9.8 10.9 13.7 6.95 13.65 1.35 L13.65 0.95 13.65 1.35 Q13.7 6.95 9.8 10.9 5.95 14.85 0.45 14.9 L0.1 14.9" fill="#b8863e" fill-rule="evenodd" stroke="none"/>
    <path d="M12.15 -4.85 Q13.5 -2.2 13.65 0.95 L13.65 1.35 Q13.7 6.95 9.8 10.9 5.95 14.85 0.45 14.9 L0.1 14.9 -1.6 14.8 Q-5.35 14.4 -8.45 12.35 L-9.35 11.75 -10.5 10.75 -11.35 9.7 Q-13.45 6.55 -13.05 1.25 L-13.0 0.9 -13.0 0.5 -12.1 -2.9 M-2.75 -11.6 L-0.15 -11.95 0.25 -11.95 0.75 -11.95 2.75 -11.75" fill="none" stroke="#000000" stroke-linecap="round" stroke-linejoin="round" stroke-opacity="0.29803923" stroke-width="1.0" vector-effect="non-scaling-stroke"/>
    <path d="M-7.45 16.4 L-7.75 16.35 -11.35 15.3 Q-13.3 14.55 -13.7 13.8 -9.05 12.85 -6.5 14.35 L-6.15 14.6 Q-4.65 15.65 -3.85 17.2 L-7.45 16.4" fill="#f5e7ba" fill-rule="evenodd" stroke="none"/>
    <path d="M-6.5 14.35 Q-9.05 12.85 -13.7 13.8 -13.3 14.55 -11.35 15.3 L-7.75 16.35 -7.45 16.4" fill="none" stroke="#000000" stroke-linecap="round" stroke-linejoin="round" stroke-opacity="0.29803923" stroke-width="1.0" vector-effect="non-scaling-stroke"/>
    <path d="M-8.4 9.75 Q-5.75 12.8 -4.65 15.3 -7.3 16.1 -11.55 13.55 -15.65 10.3 -15.9 3.7 -11.3 4.9 -8.4 9.75" fill="#f5e7ba" fill-rule="evenodd" stroke="none"/>
    <path d="M-8.4 9.75 Q-11.3 4.9 -15.9 3.7 -15.65 10.3 -11.55 13.55" fill="none" stroke="#000000" stroke-linecap="round" stroke-linejoin="round" stroke-opacity="0.29803923" stroke-width="1.0" vector-effect="non-scaling-stroke"/>
    <path d="M7.45 16.4 L7.75 16.35 11.35 15.3 Q13.3 14.55 13.7 13.8 9.05 12.85 6.5 14.35 L6.15 14.6 Q4.65 15.65 3.85 17.2 L7.45 16.4" fill="#f5e7ba" fill-rule="evenodd" stroke="none"/>
    <path d="M6.5 14.35 Q9.05 12.85 13.7 13.8 13.3 14.55 11.35 15.3 L7.75 16.35 7.45 16.4" fill="none" stroke="#000000" stroke-linecap="round" stroke-linejoin="round" stroke-opacity="0.29803923" stroke-width="1.0" vector-effect="non-scaling-stroke"/>
    <path d="M8.45 9.75 Q5.8 12.8 4.7 15.3 7.35 16.1 11.6 13.55 15.7 10.3 15.95 3.7 11.35 4.9 8.45 9.75" fill="#f5e7ba" fill-rule="evenodd" stroke="none"/>
    <path d="M8.45 9.75 Q11.35 4.9 15.95 3.7 15.7 10.3 11.6 13.55" fill="none" stroke="#000000" stroke-linecap="round" stroke-linejoin="round" stroke-opacity="0.29803923" stroke-width="1.0" vector-effect="non-scaling-stroke"/>
    <path d="M9.8 9.95 Q9.1 11.35 9.75 12.3 11.05 12.4 12.3 11.6 14.05 10.1 14.0 8.15 12.15 8.4 9.8 9.9 L9.8 9.95" fill="#f5e7ba" fill-rule="evenodd" stroke="none"/>
    <path d="M12.3 11.6 Q12.2 11.7 12.05 11.75 M9.8 9.95 L9.8 9.9 Q12.15 8.4 14.0 8.15 14.05 10.1 12.3 11.6" fill="none" stroke="#000000" stroke-linecap="round" stroke-linejoin="round" stroke-opacity="0.29803923" stroke-width="1.0" vector-effect="non-scaling-stroke"/>
    <path d="M-9.4 10.5 Q-3.45 10.9 -0.25 10.7 L-0.25 10.65 -0.05 10.65 0.15 10.65 0.15 10.7 10.0 10.15 Q7.8 13.2 6.6 14.15 5.45 15.1 3.9 15.75 L3.6 15.95 Q1.65 17.5 0.15 17.5 L-0.05 17.5 Q-1.65 17.6 -3.75 15.95 L-4.0 15.75 -6.75 14.15 Q-7.95 13.2 -9.4 10.5" fill="#f0d5a8" fill-rule="evenodd" stroke="none"/>
    <path d="M10.0 10.15 Q7.8 13.2 6.6 14.15 M3.6 15.95 Q1.65 17.5 0.15 17.5 L-0.05 17.5 Q-1.65 17.6 -3.75 15.95 M-6.75 14.15 Q-7.95 13.2 -9.4 10.5" fill="none" stroke="#000000" stroke-linecap="round" stroke-linejoin="round" stroke-opacity="0.29803923" stroke-width="1.0" vector-effect="non-scaling-stroke"/>
    <path d="M2.0 11.05 L3.7 5.65 Q4.0 4.35 4.55 3.35 8.9 -0.85 11.65 2.15 12.55 3.65 12.35 5.2 12.1 8.55 9.2 11.15 7.2 12.5 6.15 12.75 1.35 13.75 2.0 11.05" fill="#f0d5a8" fill-rule="evenodd" stroke="none"/>
    <path d="M9.2 11.15 Q12.1 8.55 12.35 5.2 12.55 3.65 11.65 2.15 8.9 -0.85 4.55 3.35 4.0 4.35 3.7 5.65 L2.0 11.05" ffdec:has-small-stroke="true" ffdec:original-stroke-width="0.05" fill="none" stroke="#000000" stroke-linecap="round" stroke-linejoin="round" stroke-opacity="0.29803923" stroke-width="1.0"/>
    <path d="M-12.45 11.6 Q-14.2 10.1 -14.15 8.1 -12.3 8.4 -10.0 9.9 L-9.95 9.95 Q-9.3 11.35 -9.95 12.3 -11.2 12.4 -12.45 11.6" fill="#f5e7ba" fill-rule="evenodd" stroke="none"/>
    <path d="M-12.45 11.6 Q-14.2 10.1 -14.15 8.1 -12.3 8.4 -10.0 9.9 L-9.95 9.95 M-12.45 11.6 L-12.25 11.75" fill="none" stroke="#000000" stroke-linecap="round" stroke-linejoin="round" stroke-opacity="0.29803923" stroke-width="1.0" vector-effect="non-scaling-stroke"/>
    <path d="M-9.1 11.0 Q-12.15 8.45 -12.4 5.15 -12.55 3.55 -11.65 2.05 -8.9 -0.95 -4.5 3.25 -3.95 4.25 -3.65 5.6 -2.7 8.25 -2.0 11.4 -1.3 13.65 -6.1 12.7 L-9.1 11.0" fill="#f0d5a8" fill-rule="evenodd" stroke="none"/>
    <path d="M-9.1 11.0 Q-12.15 8.45 -12.4 5.15 -12.55 3.55 -11.65 2.05 -8.9 -0.95 -4.5 3.25 -3.95 4.25 -3.65 5.6 -2.7 8.25 -2.0 11.4" ffdec:has-small-stroke="true" ffdec:original-stroke-width="0.05" fill="none" stroke="#000000" stroke-linecap="round" stroke-linejoin="round" stroke-opacity="0.29803923" stroke-width="1.0"/>
    <path d="M-0.7 16.6 L0.0 16.4 0.7 16.6" fill="none" stroke="#000000" stroke-linecap="round" stroke-linejoin="round" stroke-opacity="0.29803923" stroke-width="1.0" vector-effect="non-scaling-stroke"/>
    <path d="M-0.3 15.05 L-1.1 14.7 -1.4 13.45 -2.2 10.55 Q-1.4 9.3 -0.15 9.2 L-0.1 9.2 0.0 9.2 0.15 9.2 0.25 9.2 Q1.45 9.3 2.25 10.25 L1.4 13.3 1.1 14.6 -0.3 15.05" fill="#905c19" fill-rule="evenodd" stroke="none"/>
    <path d="M-0.3 15.05 L-1.1 14.7 -1.4 13.45 -2.2 10.55 Q-1.4 9.3 -0.15 9.2 L-0.1 9.2 0.0 9.2 0.15 9.2 0.25 9.2 Q1.45 9.3 2.25 10.25 L1.4 13.3 1.1 14.6 -0.3 15.05 -0.1 15.1 0.0 15.15 0.05 15.1 0.25 15.15 0.0 15.15 M-0.1 15.15 L-0.1 15.1 -0.45 15.1 -0.3 15.05" ffdec:has-small-stroke="true" ffdec:original-stroke-width="0.05" fill="none" stroke="#000000" stroke-linecap="round" stroke-linejoin="round" stroke-opacity="0.29803923" stroke-width="1.0"/>
    <path d="M0.05 15.45 Q-0.85 15.25 -1.35 14.45 L-0.75 14.5 Q0.05 14.75 0.7 14.5 L1.2 14.45 0.05 15.45" fill="#332012" fill-rule="evenodd" stroke="none"/>
    <path d="M0.05 15.45 Q-0.85 15.25 -1.35 14.45 L-0.75 14.5 Q0.05 14.75 0.7 14.5 L1.2 14.45 0.05 15.45 Z" fill="none" stroke="#000000" stroke-linecap="round" stroke-linejoin="round" stroke-opacity="0.29803923" stroke-width="1.0" vector-effect="non-scaling-stroke"/>
    <path d="M-0.5 4.15 Q-5.05 2.5 -4.15 -1.85 L-2.65 -0.2 Q-1.6 0.45 -0.25 0.5 L0.15 0.5 0.1 0.5 0.3 0.5 1.15 0.45 2.95 -0.25 4.45 -1.9 Q5.35 2.55 0.7 4.15 L0.1 4.4 -0.55 4.15 -0.5 4.15" fill="#08fbc3" fill-rule="evenodd" stroke="none"/>
    <path d="M-0.5 4.15 Q-5.05 2.5 -4.15 -1.85 L-2.65 -0.2 Q-1.6 0.45 -0.25 0.5 L0.15 0.5 M0.1 0.5 L0.3 0.5 1.15 0.45 2.95 -0.25 4.45 -1.9 Q5.35 2.55 0.7 4.15" fill="none" stroke="#000000" stroke-linecap="round" stroke-linejoin="round" stroke-opacity="0.2" stroke-width="1.0" vector-effect="non-scaling-stroke"/>
    <path d="M2.95 11.3 Q2.95 8.05 5.2 5.6 7.7 3.9 10.5 5.15 10.6 6.85 10.25 8.25 9.7 10.2 8.0 11.6 6.65 12.5 5.2 12.5 3.75 12.35 2.95 11.3" fill="#fcffd4" fill-rule="evenodd" stroke="none"/>
    <path d="M10.5 5.15 Q7.7 3.9 5.2 5.6 2.95 8.05 2.95 11.3" fill="none" stroke="#000000" stroke-linecap="round" stroke-linejoin="round" stroke-opacity="0.39607844" stroke-width="1.0" vector-effect="non-scaling-stroke"/>
    <path d="M5.85 6.05 L5.5 6.4 5.3 7.1 5.35 7.8 5.6 8.0 5.95 7.7 6.15 6.95 6.1 6.3 5.85 6.05 M7.55 4.9 Q7.85 5.6 7.75 6.65 7.65 7.6 7.2 8.35 L6.95 8.7 Q6.25 9.6 5.4 9.75 4.55 9.9 4.0 9.2 3.5 8.5 3.65 7.3 3.8 6.15 4.5 5.25 5.2 4.35 6.1 4.2 6.95 4.05 7.45 4.75 L7.55 4.9" fill="#02ffc8" fill-rule="evenodd" stroke="none"/>
    <path d="M5.85 6.05 L6.1 6.3 6.15 6.95 5.95 7.7 5.6 8.0 5.35 7.8 5.3 7.1 5.5 6.4 5.85 6.05" fill="#0070fa" fill-rule="evenodd" stroke="none"/>
    <path d="M7.55 4.9 Q7.95 5.6 7.8 6.65 7.7 7.6 7.2 8.35 7.65 7.6 7.75 6.65 7.85 5.6 7.55 4.9" fill="#00cc99" fill-rule="evenodd" stroke="none"/>
    <path d="M6.15 3.6 Q7.2 3.45 7.8 4.3 8.45 5.15 8.25 6.55 8.1 7.95 7.25 9.05 6.35 10.15 5.3 10.35 4.3 10.5 3.65 9.65 3.05 8.8 3.2 7.4 3.4 6.0 4.25 4.9 5.1 3.8 6.15 3.6 M7.2 8.35 Q7.7 7.6 7.8 6.65 7.95 5.6 7.55 4.9 L7.45 4.75 Q6.95 4.05 6.1 4.2 5.2 4.35 4.5 5.25 3.8 6.15 3.65 7.3 3.5 8.5 4.0 9.2 4.55 9.9 5.4 9.75 6.25 9.6 6.95 8.7 L7.2 8.35" fill="#09a07d" fill-rule="evenodd" stroke="none"/>
    <path d="M6.15 3.6 Q5.1 3.8 4.25 4.9 3.4 6.0 3.2 7.4 3.05 8.8 3.65 9.65 4.3 10.5 5.3 10.35 6.35 10.15 7.25 9.05 8.1 7.95 8.25 6.55 8.45 5.15 7.8 4.3 7.2 3.45 6.15 3.6 Z" fill="none" stroke="#000000" stroke-linecap="round" stroke-linejoin="round" stroke-opacity="0.39607844" stroke-width="1.0" vector-effect="non-scaling-stroke"/>
    <path d="M5.55 3.6 Q3.15 4.8 3.0 8.85 4.15 6.7 5.75 4.9 L9.7 3.9 7.2 2.95 5.55 3.6" fill="#f0d5a8" fill-rule="evenodd" stroke="none"/>
    <path d="M2.9 10.8 Q2.9 7.5 5.2 4.95 7.6 3.35 10.35 4.3 L11.3 4.3 10.85 5.3 Q10.95 6.45 10.25 8.15 10.55 6.85 10.4 5.4 7.4 4.15 5.15 5.9 3.1 7.95 2.9 10.8" fill="#332012" fill-rule="evenodd" stroke="none"/>
    <path d="M8.3 11.45 L8.8 10.95" fill="none" stroke="#000000" stroke-linecap="round" stroke-linejoin="round" stroke-opacity="0.39607844" stroke-width="1.0" vector-effect="non-scaling-stroke"/>
    <path d="M2.9 10.8 L2.9 10.85 2.9 11.45 M2.9 10.8 Q2.9 7.5 5.2 4.95 7.6 3.35 10.35 4.3 L11.3 4.3 10.85 5.3 Q10.95 6.45 10.25 8.15 L10.2 8.25 10.2 8.3 M10.25 8.15 Q10.55 6.85 10.4 5.4 7.4 4.15 5.15 5.9 3.1 7.95 2.9 10.8" fill="none" stroke="#000000" stroke-linecap="round" stroke-linejoin="round" stroke-opacity="0.29803923" stroke-width="1.0" vector-effect="non-scaling-stroke"/>
    <path d="M5.9 12.45 L6.45 12.3 7.7 11.7 Q8.05 11.45 8.3 11.3 L8.7 10.95 9.55 9.9 8.95 11.1 Q8.0 11.85 6.6 12.35 L6.35 12.4 5.95 12.45 5.85 12.5 5.9 12.45 5.95 12.45 Q7.0 12.3 8.0 11.65 L8.3 11.3 8.0 11.65 Q7.0 12.3 5.95 12.45 L5.9 12.45" fill="#4a3116" fill-rule="evenodd" stroke="none"/>
    <path d="M5.9 12.45 L5.2 12.5 3.95 12.2 M8.3 11.3 L8.0 11.65 Q7.0 12.3 5.95 12.45 L5.9 12.45" fill="none" stroke="#000000" stroke-linecap="round" stroke-linejoin="round" stroke-opacity="0.29803923" stroke-width="1.0" vector-effect="non-scaling-stroke"/>
    <path d="M5.55 3.2 Q4.65 4.0 4.2 5.0 L5.85 3.8 7.35 3.3 5.55 3.2" fill="#b9825b" fill-opacity="0.5019608" fill-rule="evenodd" stroke="none"/>
    <path d="M7.45 7.65 L7.15 8.0 7.5 8.25 8.15 8.1 8.85 7.8 9.05 7.4 8.8 7.2 8.1 7.3 7.45 7.65" fill="#fffff0" fill-rule="evenodd" stroke="none"/>
    <path d="M4.5 8.7 Q4.4 9.05 4.6 9.35 4.85 9.7 5.4 9.5 L6.15 9.05 6.5 8.25 Q6.55 7.7 6.3 7.8 6.05 7.85 5.7 8.2 5.35 8.6 4.95 8.45 4.6 8.3 4.5 8.7" fill="#b7faeb" fill-rule="evenodd" stroke="none"/>
    <path d="M-2.7 11.3 Q-3.5 12.35 -4.95 12.5 -6.4 12.5 -7.75 11.6 -9.45 10.2 -10.0 8.25 -10.35 6.85 -10.25 5.15 -7.45 3.9 -4.95 5.6 -2.7 8.05 -2.7 11.3" fill="#fcffd4" fill-rule="evenodd" stroke="none"/>
    <path d="M-10.25 5.15 Q-7.45 3.9 -4.95 5.6 -2.7 8.05 -2.7 11.3" fill="none" stroke="#000000" stroke-linecap="round" stroke-linejoin="round" stroke-opacity="0.39607844" stroke-width="1.0" vector-effect="non-scaling-stroke"/>
    <path d="M-7.5 4.95 L-7.45 4.75 Q-6.9 4.05 -6.05 4.2 -5.15 4.35 -4.5 5.25 -3.75 6.2 -3.6 7.35 -3.45 8.5 -3.95 9.2 -4.5 9.9 -5.35 9.8 -6.2 9.65 -6.9 8.75 L-7.15 8.4 -7.7 6.7 Q-7.85 5.65 -7.5 4.95 M-5.8 6.1 L-6.1 6.3 -6.15 7.0 -5.95 7.7 -5.6 8.0 -5.3 7.8 Q-5.2 7.55 -5.25 7.15 L-5.45 6.4 -5.8 6.1" fill="#02ffc8" fill-rule="evenodd" stroke="none"/>
    <path d="M-5.8 6.1 L-5.45 6.4 -5.25 7.15 Q-5.2 7.55 -5.3 7.8 L-5.6 8.0 -5.95 7.7 -6.15 7.0 -6.1 6.3 -5.8 6.1" fill="#0070fa" fill-rule="evenodd" stroke="none"/>
    <path d="M-7.15 8.4 Q-7.65 7.6 -7.8 6.65 -7.9 5.6 -7.5 4.95 -7.85 5.65 -7.7 6.7 L-7.15 8.4" fill="#00cc99" fill-rule="evenodd" stroke="none"/>
    <path d="M-7.15 8.4 L-6.9 8.75 Q-6.2 9.65 -5.35 9.8 -4.5 9.9 -3.95 9.2 -3.45 8.5 -3.6 7.35 -3.75 6.2 -4.5 5.25 -5.15 4.35 -6.05 4.2 -6.9 4.05 -7.45 4.75 L-7.5 4.95 Q-7.9 5.6 -7.8 6.65 -7.65 7.6 -7.15 8.4 M-6.1 3.65 Q-5.05 3.8 -4.2 4.9 -3.35 6.0 -3.15 7.45 -3.0 8.8 -3.65 9.65 -4.25 10.55 -5.3 10.4 -6.35 10.2 -7.2 9.1 -8.05 7.95 -8.2 6.6 -8.4 5.2 -7.75 4.3 -7.15 3.45 -6.1 3.65" fill="#09a07d" fill-rule="evenodd" stroke="none"/>
    <path d="M-6.1 3.65 Q-5.05 3.8 -4.2 4.9 -3.35 6.0 -3.15 7.45 -3.0 8.8 -3.65 9.65 -4.25 10.55 -5.3 10.4 -6.35 10.2 -7.2 9.1 -8.05 7.95 -8.2 6.6 -8.4 5.2 -7.75 4.3 -7.15 3.45 -6.1 3.65 Z" fill="none" stroke="#000000" stroke-linecap="round" stroke-linejoin="round" stroke-opacity="0.39607844" stroke-width="1.0" vector-effect="non-scaling-stroke"/>
    <path d="M-5.45 3.6 Q-3.05 4.8 -2.9 8.85 -4.05 6.7 -5.65 4.9 L-9.6 3.9 -7.1 2.95 -5.45 3.6" fill="#f0d5a8" fill-rule="evenodd" stroke="none"/>
    <path d="M-2.8 10.8 Q-3.0 7.95 -5.05 5.9 -7.25 4.15 -10.25 5.35 -10.45 6.8 -10.15 8.1 -10.85 6.45 -10.7 5.3 L-11.2 4.25 -10.25 4.3 Q-7.45 3.3 -5.1 4.9 -2.75 7.45 -2.8 10.8" fill="#332012" fill-rule="evenodd" stroke="none"/>
    <path d="M-2.8 10.8 L-2.75 11.45 M-2.8 10.8 Q-2.75 7.45 -5.1 4.9 -7.45 3.3 -10.25 4.3 L-11.2 4.25 -10.7 5.3 Q-10.85 6.45 -10.15 8.1 -10.45 6.8 -10.25 5.35 -7.25 4.15 -5.05 5.9 -3.0 7.95 -2.8 10.8 M-10.1 8.3 L-10.1 8.2 -10.15 8.1 M-7.85 11.75 L-8.65 10.95" fill="none" stroke="#000000" stroke-linecap="round" stroke-linejoin="round" stroke-opacity="0.29803923" stroke-width="1.0" vector-effect="non-scaling-stroke"/>
    <path d="M-5.6 3.2 Q-4.7 4.0 -4.25 5.0 -5.15 4.25 -5.9 3.8 L-7.4 3.3 -5.6 3.2" fill="#b9825b" fill-opacity="0.5019608" fill-rule="evenodd" stroke="none"/>
    <path d="M-7.4 7.65 Q-7.1 7.85 -7.1 8.0 L-7.45 8.25 -8.1 8.1 -8.8 7.8 -9.0 7.4 -8.75 7.2 -8.05 7.3 Q-7.65 7.45 -7.4 7.65" fill="#fffff0" fill-rule="evenodd" stroke="none"/>
    <path d="M-8.1 11.3 L-7.55 11.7 -6.3 12.3 -5.75 12.45 -5.8 12.45 Q-6.85 12.3 -7.85 11.65 L-8.1 11.3 -7.85 11.65 Q-6.85 12.3 -5.8 12.45 L-5.75 12.45 -5.7 12.5 -5.8 12.45 -6.2 12.4 -6.45 12.35 -8.8 11.1 -9.35 9.9 -8.5 10.95 -8.1 11.3" fill="#4a3116" fill-rule="evenodd" stroke="none"/>
    <path d="M-8.1 11.3 L-7.85 11.65 Q-6.85 12.3 -5.8 12.45 L-5.75 12.45 -5.0 12.5 -3.75 12.2" fill="none" stroke="#000000" stroke-linecap="round" stroke-linejoin="round" stroke-opacity="0.29803923" stroke-width="1.0" vector-effect="non-scaling-stroke"/>
    <path d="M-4.7 8.6 Q-4.6 8.95 -4.8 9.25 -5.05 9.6 -5.6 9.4 L-6.35 8.95 -6.7 8.15 Q-6.75 7.6 -6.5 7.7 -6.25 7.75 -5.9 8.1 -5.55 8.5 -5.15 8.35 -4.8 8.2 -4.7 8.6" fill="#b7faeb" fill-rule="evenodd" stroke="none"/>
    <path d="M-5.25 13.95 Q-5.05 14.2 -5.1 14.4 -5.15 14.6 -5.45 14.55 L-6.15 14.3 -6.7 13.8 -6.85 13.3 Q-6.8 13.1 -6.5 13.2 L-5.85 13.4 -5.25 13.95" fill="#f1a49a" fill-rule="evenodd" stroke="none"/>
    <path d="M5.2 13.95 Q5.0 14.2 5.05 14.4 L5.4 14.55 6.1 14.3 6.65 13.8 6.8 13.3 6.45 13.2 5.8 13.4 5.2 13.95" fill="#f1a49a" fill-rule="evenodd" stroke="none"/>
  </g>
</svg>
