<?xml version="1.0" encoding="UTF-8" standalone="no"?>
<svg xmlns:ffdec="https://www.free-decompiler.com/flash" xmlns:xlink="http://www.w3.org/1999/xlink" ffdec:objectType="shape" height="41.55px" width="77.15px" xmlns="http://www.w3.org/2000/svg">
  <g transform="matrix(1.0, 0.0, 0.0, 1.0, -121.95, -101.65)">
    <path d="M180.85 130.55 L183.85 128.45 184.0 128.35 183.65 128.75 180.85 130.55 183.65 128.75 184.0 128.35 186.2 126.5 194.75 122.25 199.1 123.75 175.55 134.25 180.85 130.55" fill="#cccccc" fill-rule="evenodd" stroke="none"/>
    <path d="M145.1 136.6 L157.7 141.65 163.15 143.05 163.25 143.05 161.0 143.2 Q147.15 140.6 129.0 132.2 L129.2 132.25 130.9 132.5 Q137.2 133.55 145.1 136.6" fill="#293d3d" fill-rule="evenodd" stroke="none"/>
    <path d="M157.2 116.3 L162.35 110.4 Q162.85 109.75 163.6 109.75 164.35 109.75 164.85 110.4 L165.25 110.85 165.65 111.3 165.75 111.45 165.4 111.55 Q161.9 112.35 159.9 115.65 L159.8 115.8 159.5 116.2 158.65 117.25 Q156.9 119.2 156.45 121.7 158.8 127.45 165.6 126.55 170.25 125.9 173.85 122.75 L174.45 121.4 174.7 121.7 175.2 122.75 175.2 123.0 174.9 124.2 Q174.45 125.1 173.45 125.75 170.05 127.85 166.6 128.5 161.6 129.45 156.4 127.55 154.05 126.65 153.0 125.2 L152.9 125.0 152.35 123.7 152.3 123.45 152.15 122.2 152.5 121.7 153.6 120.4 157.2 116.3 M156.3 130.25 L156.35 130.35 156.5 130.65 156.5 130.7 156.4 131.05 156.15 131.4 156.0 131.5 155.4 131.85 154.45 132.2 154.05 132.3 151.15 132.0 150.2 131.35 150.15 131.3 150.0 130.9 150.0 130.85 149.95 130.5 150.05 130.35 152.85 127.15 Q153.0 126.95 153.2 126.95 L153.55 127.15 153.8 127.4 153.8 127.45 153.7 127.5 Q152.7 127.7 152.15 128.65 L152.1 128.7 152.05 128.8 151.8 129.1 Q151.5 129.35 151.35 129.75 L151.15 130.35 Q151.8 132.0 153.75 131.75 155.1 131.55 156.1 130.65 L156.3 130.25" fill="#c2ebfa" fill-rule="evenodd" stroke="none"/>
    <path d="M145.05 111.15 L157.3 103.85 158.75 101.65 161.6 104.15 174.15 111.5 190.35 116.4 190.25 116.25 190.8 116.45 Q193.9 117.45 196.8 117.9 L190.95 120.95 188.55 122.15 177.45 119.35 186.15 126.15 186.1 126.2 185.55 126.75 184.0 128.35 183.85 128.45 180.85 130.55 175.45 134.2 Q169.15 138.5 163.15 143.05 L157.7 141.65 145.1 136.6 152.25 134.55 167.95 131.35 Q176.55 127.55 177.8 125.0 179.0 122.4 178.15 122.25 177.25 122.1 171.9 118.4 L165.25 110.85 164.85 110.4 Q164.35 109.75 163.6 109.75 162.85 109.75 162.35 110.4 L157.2 116.3 Q151.8 117.55 149.25 115.45 L144.8 111.75 145.6 111.15 145.05 111.15" fill="#cdc16d" fill-rule="evenodd" stroke="none"/>
    <path d="M145.05 111.15 L145.6 111.15 144.8 111.75 136.8 117.75 Q136.25 118.3 135.95 119.0 133.8 119.5 135.7 125.7 137.35 131.15 152.25 134.55 L145.1 136.6 Q137.2 133.55 130.9 132.5 L130.05 131.25 129.1 129.5 Q126.2 123.1 130.9 116.75 135.75 118.2 144.55 111.55 L145.0 111.2 145.05 111.15" fill="#999346" fill-rule="evenodd" stroke="none"/>
    <path d="M144.8 111.75 L149.25 115.45 Q151.8 117.55 157.2 116.3 L153.6 120.4 Q152.45 120.05 150.65 120.4 L147.1 116.35 147.05 116.3 146.65 115.8 Q146.4 115.5 146.0 115.5 145.6 115.5 145.35 115.8 L140.6 121.3 Q139.8 121.2 139.0 122.05 138.35 123.3 140.2 124.7 L146.95 128.25 147.3 128.5 147.35 128.5 147.45 128.55 147.5 129.85 148.1 131.1 149.4 132.4 153.2 132.65 154.45 132.2 155.4 131.85 156.0 131.5 156.15 131.4 156.4 131.05 156.5 130.7 156.5 130.65 156.35 130.35 156.3 130.25 156.15 130.1 167.75 129.3 Q171.95 128.5 174.5 126.0 L174.9 124.2 175.2 123.0 175.2 122.75 174.7 121.7 174.45 121.4 172.85 119.55 171.9 118.4 Q177.25 122.1 178.15 122.25 179.0 122.4 177.8 125.0 176.55 127.55 167.95 131.35 L152.25 134.55 Q137.35 131.15 135.7 125.7 133.8 119.5 135.95 119.0 136.25 118.3 136.8 117.75 L144.8 111.75" fill="#94854b" fill-rule="evenodd" stroke="none"/>
    <path d="M129.0 132.2 L128.9 132.2 Q117.45 122.05 124.85 110.45 127.5 115.75 130.9 116.75 126.2 123.1 129.1 129.5 L130.05 131.25 130.9 132.5 129.2 132.25 129.0 132.2" fill="#74683a" fill-rule="evenodd" stroke="none"/>
    <path d="M163.55 114.05 L163.6 114.05 163.65 114.25 163.65 114.45 163.6 114.55 163.55 114.7 Q163.2 114.95 162.85 114.7 L162.75 114.35 162.75 114.15 Q162.9 113.9 163.2 113.85 L163.55 114.05 M164.85 115.8 Q164.2 113.95 165.95 113.35 168.3 113.75 167.85 115.85 167.65 116.6 166.95 116.8 165.35 117.25 164.85 115.8 M163.45 118.5 Q162.7 117.45 163.75 116.9 165.4 117.55 163.9 118.6 L163.45 118.5 M153.2 128.25 L153.2 128.3 153.2 128.35 153.0 128.35 152.95 128.25 152.95 128.2 153.1 128.15 153.2 128.2 153.2 128.25 M154.15 128.95 Q153.7 129.1 153.55 128.7 153.35 128.15 153.85 128.0 154.5 128.1 154.4 128.7 L154.15 128.95 M153.3 129.45 L153.15 129.45 Q152.95 129.15 153.25 129.0 153.7 129.15 153.3 129.45" fill="#ffffff" fill-rule="evenodd" stroke="none"/>
    <path d="M174.45 121.4 L173.85 122.75 Q170.25 125.9 165.6 126.55 158.8 127.45 156.45 121.7 156.9 119.2 158.65 117.25 L159.5 116.2 159.8 115.8 159.9 115.65 Q161.9 112.35 165.4 111.55 L165.75 111.45 165.65 111.3 172.85 119.55 174.45 121.4 M163.45 118.5 L163.9 118.6 Q165.4 117.55 163.75 116.9 162.7 117.45 163.45 118.5 M164.85 115.8 Q165.35 117.25 166.95 116.8 167.65 116.6 167.85 115.85 168.3 113.75 165.95 113.35 164.2 113.95 164.85 115.8 M163.55 114.05 L163.2 113.85 Q162.9 113.9 162.75 114.15 L162.75 114.35 162.85 114.7 Q163.2 114.95 163.55 114.7 L163.6 114.55 163.65 114.45 163.65 114.25 163.6 114.05 163.55 114.05" fill="url(#gradient0)" fill-rule="evenodd" stroke="none"/>
    <path d="M153.6 120.4 L152.5 121.7 152.15 122.2 152.3 123.45 152.35 123.7 152.9 125.0 153.0 125.2 Q154.05 126.65 156.4 127.55 161.6 129.45 166.6 128.5 170.05 127.85 173.45 125.75 174.45 125.1 174.9 124.2 L174.5 126.0 Q171.95 128.5 167.75 129.3 L156.15 130.1 153.8 127.45 153.8 127.4 153.55 127.15 153.2 126.95 Q153.0 126.95 152.85 127.15 L150.05 130.35 149.95 130.5 150.0 130.85 150.0 130.9 150.15 131.3 150.2 131.35 151.15 132.0 154.05 132.3 154.45 132.2 153.2 132.65 149.4 132.4 148.1 131.1 147.5 129.85 147.45 128.55 147.35 128.5 147.3 128.5 146.95 128.25 140.2 124.7 Q138.35 123.3 139.0 122.05 139.8 121.2 140.6 121.3 L140.35 121.55 140.2 121.85 Q140.15 122.15 140.25 122.45 L140.25 122.6 140.55 123.25 140.6 123.35 Q141.15 124.05 142.35 124.55 L145.45 125.2 147.55 125.05 Q149.3 124.7 151.0 123.65 L151.75 122.85 151.9 122.25 151.9 122.1 151.65 121.55 151.55 121.45 150.65 120.4 Q152.45 120.05 153.6 120.4" fill="#6a6035" fill-rule="evenodd" stroke="none"/>
    <path d="M156.15 130.1 L156.3 130.25 156.1 130.65 Q155.1 131.55 153.75 131.75 151.8 132.0 151.15 130.35 L151.35 129.75 Q151.5 129.35 151.8 129.1 L152.05 128.8 152.1 128.7 152.15 128.65 Q152.7 127.7 153.7 127.5 L153.8 127.45 156.15 130.1 M153.3 129.45 Q153.7 129.15 153.25 129.0 152.95 129.15 153.15 129.45 L153.3 129.45 M154.15 128.95 L154.4 128.7 Q154.5 128.1 153.85 128.0 153.35 128.15 153.55 128.7 153.7 129.1 154.15 128.95 M153.2 128.25 L153.2 128.2 153.1 128.15 152.95 128.2 152.95 128.25 153.0 128.35 153.2 128.35 153.2 128.3 153.2 128.25" fill="url(#gradient1)" fill-rule="evenodd" stroke="none"/>
    <path d="M184.0 128.35 L185.55 126.75 186.1 126.2 186.15 126.15 Q186.8 124.05 188.55 122.15 L190.95 120.95 194.75 122.25 186.2 126.5 184.0 128.35" fill="#000000" fill-opacity="0.37254903" fill-rule="evenodd" stroke="none"/>
    <path d="M186.15 126.15 L177.45 119.35 188.55 122.15 Q186.8 124.05 186.15 126.15" fill="#ded7a0" fill-rule="evenodd" stroke="none"/>
    <path d="M163.15 143.05 Q169.15 138.5 175.45 134.2 L180.85 130.55 183.65 128.75 184.0 128.35 185.55 126.75 186.1 126.2 186.15 126.15 Q186.8 124.05 188.55 122.15 L190.95 120.95 196.8 117.9" ffdec:has-small-stroke="true" ffdec:original-stroke-width="0.25" fill="none" stroke="#000000" stroke-linecap="round" stroke-linejoin="round" stroke-opacity="0.37254903" stroke-width="1.0"/>
    <path d="M147.1 116.35 L146.9 116.4 Q145.1 116.8 144.1 118.5 L144.05 118.55 143.95 118.75 143.5 119.3 Q142.6 120.3 142.35 121.6 143.35 124.05 145.95 124.1 L147.05 124.05 Q149.4 123.7 151.2 122.1 L151.55 121.45 151.65 121.55 151.9 122.1 151.9 122.25 151.75 122.85 151.0 123.65 Q149.3 124.7 147.55 125.05 L145.45 125.2 142.35 124.55 Q141.15 124.05 140.6 123.35 L140.55 123.25 140.25 122.6 140.25 122.45 Q140.15 122.15 140.2 121.85 L140.35 121.55 145.35 115.8 Q145.6 115.5 146.0 115.5 146.4 115.5 146.65 115.8 L147.05 116.3 147.1 116.35" fill="#c2ebfa" fill-rule="evenodd" stroke="none"/>
    <path d="M151.55 121.45 L151.2 122.1 Q149.4 123.7 147.05 124.05 L145.95 124.1 Q143.35 124.05 142.35 121.6 142.6 120.3 143.5 119.3 L143.95 118.75 144.05 118.55 144.1 118.5 Q145.1 116.8 146.9 116.4 L147.1 116.35 151.55 121.45 M147.7 119.05 L148.15 118.6 Q148.4 117.5 147.2 117.3 146.3 117.65 146.65 118.55 146.9 119.3 147.7 119.05 M146.15 120.0 Q146.9 119.45 146.1 119.15 145.55 119.4 145.95 119.95 L146.15 120.0 M146.05 117.9 L146.05 117.8 146.0 117.7 146.0 117.65 145.8 117.6 Q145.65 117.6 145.6 117.7 L145.55 117.85 145.6 118.0 146.0 118.0 146.0 117.95 146.05 117.9" fill="url(#gradient2)" fill-rule="evenodd" stroke="none"/>
    <path d="M146.05 117.9 L146.0 117.95 146.0 118.0 145.6 118.0 145.55 117.85 145.6 117.7 Q145.65 117.6 145.8 117.6 L146.0 117.65 146.0 117.7 146.05 117.8 146.05 117.9 M146.15 120.0 L145.95 119.95 Q145.55 119.4 146.1 119.15 146.9 119.45 146.15 120.0 M147.7 119.05 Q146.9 119.3 146.65 118.55 146.3 117.65 147.2 117.3 148.4 117.5 148.15 118.6 L147.7 119.05" fill="#ffffff" fill-rule="evenodd" stroke="none"/>
  </g>
  <defs>
    <linearGradient gradientTransform="matrix(0.011, 0.0, 0.0, 0.0094, 165.45, 119.0)" gradientUnits="userSpaceOnUse" id="gradient0" spreadMethod="pad" x1="-819.2" x2="819.2">
      <stop offset="0.0" stop-color="#c0ebfa"/>
      <stop offset="1.0" stop-color="#ffffff"/>
    </linearGradient>
    <linearGradient gradientTransform="matrix(0.0031, 0.0, 0.0, 0.0027, 153.7, 129.6)" gradientUnits="userSpaceOnUse" id="gradient1" spreadMethod="pad" x1="-819.2" x2="819.2">
      <stop offset="0.0" stop-color="#c0ebfa"/>
      <stop offset="1.0" stop-color="#ffffff"/>
    </linearGradient>
    <linearGradient gradientTransform="matrix(0.0056, 0.0, 0.0, 0.0048, 146.95, 120.2)" gradientUnits="userSpaceOnUse" id="gradient2" spreadMethod="pad" x1="-819.2" x2="819.2">
      <stop offset="0.0" stop-color="#c0ebfa"/>
      <stop offset="1.0" stop-color="#ffffff"/>
    </linearGradient>
  </defs>
</svg>
