<?xml version="1.0" encoding="UTF-8" standalone="no"?>
<svg xmlns:ffdec="https://www.free-decompiler.com/flash" xmlns:xlink="http://www.w3.org/1999/xlink" ffdec:objectType="shape" height="87.5px" width="156.35px" xmlns="http://www.w3.org/2000/svg">
  <g transform="matrix(1.0, 0.0, 0.0, 1.0, -308.45, -40.4)">
    <path d="M392.65 61.85 L390.9 64.9 390.85 65.05 390.75 64.8 390.95 64.3 391.1 64.05 Q391.0 61.35 390.35 58.9 389.9 56.8 389.9 54.55 L390.1 52.8 387.7 44.25 Q387.6 44.1 387.4 44.1 388.2 48.5 388.1 52.8 L387.2 50.05 386.8 49.7 Q387.6 52.65 387.95 55.65 L387.75 57.2 385.55 50.8 385.3 50.85 387.05 57.4 387.0 58.0 381.9 46.25 384.6 60.8 382.8 61.15 383.3 67.75 Q376.65 71.5 376.2 80.7 376.2 81.0 376.5 81.3 L374.85 84.65 375.25 87.0 377.5 82.7 Q377.8 82.05 378.25 81.55 L375.75 89.5 375.8 90.0 380.7 80.3 380.95 79.75 382.05 77.35 382.55 77.75 382.55 77.9 382.45 78.05 Q382.0 78.65 382.05 79.25 L375.95 90.1 375.85 90.25 376.2 92.1 382.45 82.25 Q381.05 88.0 378.55 93.65 377.85 95.2 377.9 96.85 L382.05 89.15 Q380.25 94.25 377.5 99.05 L377.6 99.65 Q381.8 94.1 384.25 87.6 384.35 96.25 383.95 104.55 385.65 95.65 386.55 86.9 L386.6 86.55 386.8 87.0 Q391.15 95.4 392.45 95.6 L392.25 94.85 391.05 89.05 Q394.25 92.05 398.2 93.7 404.35 96.25 410.0 99.9 410.25 101.55 410.1 103.0 409.7 108.25 406.9 112.7 L407.4 115.45 Q415.3 108.9 412.75 98.7 404.15 94.4 396.65 88.65 397.6 89.3 397.95 88.25 L395.45 84.15 395.35 84.05 395.5 84.1 Q407.95 88.55 415.95 99.3 421.55 106.65 430.8 108.25 437.85 109.55 444.0 108.45 L443.5 105.9 441.05 106.35 Q431.85 107.6 423.25 102.8 421.4 101.8 420.2 100.05 411.7 88.35 398.6 83.05 413.05 83.05 426.15 76.85 442.85 69.05 445.1 50.05 442.75 45.9 438.9 43.55 431.9 39.2 425.5 40.9 L425.95 43.2 Q435.5 41.1 442.55 49.85 441.1 59.1 435.75 66.4 434.2 68.6 432.05 70.2 416.35 82.25 396.5 78.75 L388.55 77.2 390.5 76.15 403.9 72.65 Q404.3 72.55 404.0 72.0 L395.8 72.95 402.4 67.9 Q399.25 69.1 396.2 70.45 L396.4 70.05 396.7 69.15 Q399.0 67.95 400.8 66.4 404.4 63.5 406.65 59.35 L406.5 59.3 Q403.85 62.65 400.55 64.9 396.3 68.0 391.05 69.25 L390.9 69.3 391.05 69.1 391.75 67.95 391.75 67.45 391.65 67.05 391.4 66.25 392.8 61.9 392.65 61.85 M390.85 73.05 L387.4 72.9 387.5 72.7 391.3 72.8 390.85 73.05 M383.7 75.9 L383.7 76.1 383.3 76.0 383.7 75.9 M387.95 69.35 L387.3 69.95 387.2 70.0 387.15 70.0 387.4 69.2 387.95 69.35 M396.45 88.55 L388.65 82.0 388.45 81.25 388.1 80.9 388.6 81.05 388.85 81.15 Q392.5 84.25 396.0 88.1 L396.45 88.55" fill="#f2bf24" fill-rule="evenodd" stroke="none"/>
    <path d="M406.9 112.7 L405.45 114.8 Q404.0 115.5 402.65 116.15 L397.3 113.25 397.5 109.3 399.4 108.05 398.75 106.8 398.2 106.7 Q397.15 106.7 396.15 107.55 394.9 108.65 394.05 110.35 394.35 113.3 396.3 115.4 398.45 117.55 401.25 118.5 404.4 117.85 406.8 116.0 L407.4 115.45 406.9 112.7 M444.0 108.45 Q449.25 107.55 453.95 105.05 459.85 101.8 464.8 96.1 L463.15 90.3 457.65 89.1 Q456.35 88.7 455.3 87.85 L453.35 86.45 Q450.45 84.8 447.5 85.5 445.55 87.75 445.7 90.9 445.6 95.8 449.45 98.25 450.2 96.75 450.2 94.8 450.55 90.8 449.05 86.9 L454.95 90.4 461.3 92.2 461.85 97.25 456.05 100.9 455.55 101.2 Q451.3 103.5 446.6 105.05 L443.5 105.9 444.0 108.45 M425.5 40.9 Q421.65 41.95 418.05 45.15 411.75 50.7 416.4 58.65 L413.0 61.35 410.3 58.5 Q411.35 49.6 405.15 43.4 L396.7 44.35 396.75 44.6 404.85 46.1 408.0 59.8 412.5 63.55 415.6 63.25 419.55 57.65 Q418.2 56.15 417.75 54.0 416.25 46.35 423.7 43.85 L425.95 43.2 425.5 40.9" fill="#83521d" fill-rule="evenodd" stroke="none"/>
    <path d="M396.7 44.35 L396.75 44.6 396.7 44.35" fill="#996600" fill-rule="evenodd" stroke="none"/>
    <path d="M396.7 44.35 L395.9 44.45 396.75 44.6 396.7 44.35 M406.65 59.35 L406.6 59.2 406.5 59.3 406.65 59.35 M392.8 61.9 L392.8 61.75 392.65 61.85 392.8 61.9" fill="#463526" fill-rule="evenodd" stroke="none"/>
    <path d="M385.55 50.8 L385.25 50.65 385.3 50.85 385.55 50.8" fill="#f1f876" fill-rule="evenodd" stroke="none"/>
    <path d="M377.5 112.9 L377.45 112.65 377.35 112.3 378.5 114.55 Q379.45 116.65 381.15 118.6 L380.75 117.5 380.05 115.9 Q379.4 114.45 380.2 114.5 L380.0 114.35 379.95 114.3 Q378.7 113.75 379.65 114.1 L379.95 114.2 Q376.55 107.4 379.1 110.25 L382.75 114.2 383.05 114.35 Q383.0 114.0 383.45 114.3 L386.1 116.6 384.75 114.45 383.7 112.55 383.95 112.7 385.25 113.6 Q385.85 114.15 386.15 113.95 L385.85 113.4 385.35 112.65 384.95 112.2 385.6 112.9 387.0 114.35 390.9 118.55 Q391.85 119.65 392.5 119.95 L390.25 117.15 Q384.7 109.35 382.55 102.25 L382.0 100.75 381.85 100.4 381.8 100.4 381.85 100.3 381.8 100.4 381.85 100.4 Q386.15 102.75 390.85 109.55 L391.4 109.1 Q387.0 103.65 382.7 99.6 L382.5 99.55 382.25 99.2 382.5 99.55 382.7 99.6 382.25 99.2 382.05 99.05 382.6 99.15 383.0 99.5 383.1 99.55 383.0 99.25 382.7 98.7 382.4 98.15 Q382.45 98.1 382.5 98.2 L382.8 98.2 383.3 98.55 Q383.9 99.1 384.5 99.45 L384.4 99.15 384.15 98.55 384.05 98.05 384.15 97.75 384.55 98.15 384.8 98.4 385.0 98.6 384.9 98.3 384.35 97.55 383.85 96.85 382.6 95.15 383.45 95.6 385.85 97.8 386.25 98.2 386.3 98.15 381.3 89.7 381.4 89.6 381.75 89.3 381.95 88.9 382.15 88.5 382.6 87.65 385.1 88.65 Q389.55 90.55 391.55 92.2 393.65 93.85 388.35 88.05 383.1 82.3 383.7 81.7 384.2 81.3 383.95 80.3 L382.8 80.4 Q382.0 80.75 380.65 80.05 380.75 79.2 381.45 78.8 L382.3 78.35 Q382.65 78.15 382.0 77.6 L380.2 78.75 379.85 78.8 Q379.2 78.85 378.5 77.95 L378.8 77.7 380.75 75.85 377.1 78.85 375.05 81.7 375.1 83.4 375.05 83.35 Q374.6 83.2 374.4 82.65 L374.1 83.0 374.5 84.2 375.2 86.2 375.75 87.55 374.85 86.55 Q375.0 87.8 375.55 89.3 L374.35 88.0 375.35 89.95 Q374.9 89.35 374.6 89.4 L375.15 90.5 375.4 90.85 375.0 90.45 Q374.7 90.3 374.95 90.9 L376.3 93.15 375.1 91.95 372.7 89.95 373.15 90.95 Q374.1 92.55 373.25 91.7 L373.2 91.65 374.2 93.85 373.45 93.15 374.1 95.4 372.8 94.15 373.05 95.75 372.35 95.2 372.85 96.95 371.9 96.0 373.05 98.9 371.1 97.15 371.25 97.45 372.05 99.35 370.3 97.3 370.35 97.45 Q370.45 98.3 371.35 99.55 L369.65 97.7 370.25 99.4 369.55 98.65 368.4 97.65 368.65 98.4 Q368.45 99.15 368.9 100.25 L367.35 97.95 367.35 98.55 Q367.4 99.85 366.4 98.8 L366.35 98.7 Q366.05 98.75 366.15 99.25 366.2 99.6 365.75 98.65 L365.65 98.55 Q365.3 99.45 365.25 100.35 L363.95 98.35 363.55 99.7 364.25 101.5 362.5 100.7 363.35 103.95 364.4 106.9 365.2 108.45 366.7 105.35 368.35 107.95 367.6 110.7 369.95 115.7 372.5 118.85 370.95 114.25 Q370.6 113.15 370.75 112.4 370.8 111.95 371.5 112.3 372.1 112.65 371.75 111.75 L371.7 111.75 371.6 111.45 371.75 111.75 372.4 112.75 373.15 113.55 373.7 112.9 374.1 112.95 374.35 113.45 375.1 114.9 375.45 115.6 Q374.9 113.7 374.95 112.15 L375.05 110.5 375.4 110.4 375.8 110.75 377.35 112.9 377.5 112.9 M381.7 99.7 L380.2 98.1 380.75 97.65 382.05 99.05 380.75 97.65 380.2 98.1 381.7 99.7 382.3 100.1 381.95 100.3 381.85 100.4 381.85 100.3 381.8 100.25 381.8 100.2 381.7 99.7 M385.1 109.4 L383.4 108.1 383.25 107.95 382.55 107.05 382.35 106.85 382.25 106.6 Q381.3 105.35 381.05 104.15 L380.85 103.3 380.8 102.9 380.4 102.05 Q379.9 101.3 380.0 100.8 L380.1 100.75 380.65 100.8 381.3 101.1 381.7 102.05 381.85 102.7 381.9 102.85 382.4 104.1 382.75 105.1 382.85 105.45 383.2 106.35 383.4 106.8 Q383.75 107.7 384.45 108.6 L385.1 109.4 M384.6 95.9 L384.95 96.45 383.45 94.85 382.65 93.95 382.45 93.8 Q381.75 93.55 381.2 92.9 L381.1 92.85 381.55 92.45 Q381.85 92.3 381.6 91.8 L381.2 91.15 381.15 91.0 380.85 90.45 Q381.4 91.0 381.55 91.45 L381.8 91.8 383.25 94.1 384.6 95.9 M381.8 100.4 L381.85 100.4 381.8 100.4 M366.05 93.25 Q365.25 90.8 365.85 88.45 365.9 88.25 366.1 88.35 L367.0 88.65 367.95 89.0 Q367.75 87.65 367.95 86.3 L368.35 85.7 368.85 84.9 368.65 84.6 Q368.35 84.3 367.95 84.7 L364.25 88.9 363.55 89.7 Q362.5 91.1 361.05 91.6 L360.65 91.8 359.9 92.4 354.85 96.8 353.85 97.55 353.5 97.65 353.1 97.8 352.1 97.95 Q351.8 98.05 351.8 98.45 351.6 99.65 351.85 100.8 L352.0 101.3 352.1 101.5 Q351.8 101.75 351.5 101.5 L351.5 101.55 Q353.3 103.35 354.75 105.6 L355.85 108.25 355.9 109.15 355.65 112.55 355.85 112.55 Q356.7 110.65 357.0 108.75 357.2 107.7 357.0 106.8 L356.95 106.3 357.8 107.25 358.25 108.1 358.3 108.15 358.25 105.0 358.25 104.2 Q358.1 103.2 357.55 102.4 L357.35 102.15 Q358.6 103.1 359.4 104.4 L359.25 102.95 Q359.1 101.2 359.45 99.45 L360.05 96.8 360.6 93.6 Q360.6 92.8 361.15 92.3 361.4 92.0 361.85 92.0 L363.6 92.4 366.0 93.3 366.05 93.25" fill="#f5eed3" fill-rule="evenodd" stroke="none"/>
    <path d="M369.95 115.7 L367.6 110.7 368.35 107.95 366.7 105.35 365.2 108.45 364.4 106.9 363.35 103.95 362.5 100.7 364.25 101.5 363.55 99.7 363.95 98.35 365.25 100.35 Q365.3 99.45 365.65 98.55 L365.75 98.65 Q366.2 99.6 366.15 99.25 366.05 98.75 366.35 98.7 L366.4 98.8 Q367.4 99.85 367.35 98.55 L367.35 97.95 368.9 100.25 Q368.45 99.15 368.65 98.4 L368.4 97.65 369.55 98.65 370.25 99.4 369.65 97.7 371.35 99.55 Q370.45 98.3 370.35 97.45 L370.3 97.3 372.05 99.35 371.25 97.45 371.1 97.15 373.05 98.9 371.9 96.0 372.85 96.95 372.35 95.2 373.05 95.75 372.8 94.15 374.1 95.4 373.45 93.15 374.2 93.85 373.2 91.65 373.25 91.7 Q374.1 92.55 373.15 90.95 L372.7 89.95 375.1 91.95 376.3 93.15 374.95 90.9 Q374.7 90.3 375.0 90.45 L375.4 90.85 375.15 90.5 374.6 89.4 Q374.9 89.35 375.35 89.95 L374.35 88.0 375.55 89.3 Q375.0 87.8 374.85 86.55 L375.75 87.55 375.2 86.2 374.5 84.2 374.1 83.0 374.4 82.65 Q374.6 83.2 375.05 83.35 L375.1 83.4 375.05 81.7 377.1 78.85 380.75 75.85 383.75 73.1 372.4 78.9 Q367.7 83.65 361.6 86.7 L361.4 86.5 361.35 86.55 361.6 86.7 361.35 86.55 355.95 91.4 Q349.15 97.2 346.0 105.9 L345.65 106.95 346.15 108.05 350.75 105.05 352.6 105.6 353.7 127.9 356.55 114.6 356.75 114.85 356.4 115.4 361.4 120.6 361.45 120.5 359.25 118.05 368.05 125.1 Q364.8 121.0 362.8 116.8 L365.65 119.45 364.95 118.4 Q363.85 116.95 363.75 115.8 L363.7 115.05 364.85 115.7 365.1 116.0 365.25 116.05 365.05 115.75 373.0 122.45 368.9 114.4 369.95 115.7 M384.6 95.9 L383.25 94.1 381.8 91.8 381.55 91.45 Q381.4 91.0 380.85 90.45 L381.15 91.0 381.2 91.15 381.6 91.8 Q381.85 92.3 381.55 92.45 L381.1 92.85 381.2 92.9 Q381.75 93.55 382.45 93.8 L382.65 93.95 383.45 94.85 384.95 96.45 384.6 95.9 M385.1 109.4 L384.45 108.6 Q383.75 107.7 383.4 106.8 L383.2 106.35 382.85 105.45 382.75 105.1 382.4 104.1 381.9 102.85 381.85 102.7 381.7 102.05 381.3 101.1 380.65 100.8 380.1 100.75 380.0 100.8 Q379.9 101.3 380.4 102.05 L380.8 102.9 380.85 103.3 381.05 104.15 Q381.3 105.35 382.25 106.6 L382.35 106.85 382.55 107.05 383.25 107.95 383.4 108.1 385.1 109.4 M351.5 101.5 Q351.8 101.75 352.1 101.5 L352.0 101.3 351.85 100.8 Q351.6 99.65 351.8 98.45 351.8 98.05 352.1 97.95 L353.1 97.8 353.5 97.65 353.85 97.55 354.85 96.8 359.9 92.4 360.65 91.8 361.05 91.6 Q362.5 91.1 363.55 89.7 L364.25 88.9 367.95 84.7 Q368.35 84.3 368.65 84.6 L368.85 84.9 368.35 85.7 367.95 86.3 Q367.75 87.65 367.95 89.0 L367.0 88.65 366.1 88.35 Q365.9 88.25 365.85 88.45 365.25 90.8 366.05 93.25 L366.0 93.3 363.6 92.4 361.85 92.0 Q361.4 92.0 361.15 92.3 360.6 92.8 360.6 93.6 L360.05 96.8 359.45 99.45 Q359.1 101.2 359.25 102.95 L359.4 104.4 Q358.6 103.1 357.35 102.15 L357.55 102.4 Q358.1 103.2 358.25 104.2 L358.25 105.0 358.3 108.15 358.25 108.1 357.8 107.25 356.95 106.3 357.0 106.8 Q357.2 107.7 357.0 108.75 356.7 110.65 355.85 112.55 L355.65 113.35 355.65 112.55 355.65 113.35 355.85 112.55 355.65 112.55 355.9 109.15 355.85 108.25 354.75 105.6 Q353.3 103.35 351.5 101.55 L351.25 101.3 351.5 101.5 351.25 101.3 351.5 101.55 351.5 101.5 M358.35 110.2 Q358.65 109.3 358.3 108.15 358.65 109.3 358.35 110.2 M366.05 93.25 L366.15 93.4 366.0 93.3 366.15 93.4 366.05 93.25 M359.4 104.4 L359.8 106.0 360.05 106.45 359.8 106.0 359.4 104.4" fill="#fffdea" fill-rule="evenodd" stroke="none"/>
    <path d="M381.85 100.4 L382.0 100.75 382.55 102.25 Q384.7 109.35 390.25 117.15 L392.5 119.95 Q391.85 119.65 390.9 118.55 L387.0 114.35 385.6 112.9 384.95 112.2 385.35 112.65 385.85 113.4 386.15 113.95 Q385.85 114.15 385.25 113.6 L383.95 112.7 383.7 112.55 384.75 114.45 386.1 116.6 383.45 114.3 Q383.0 114.0 383.05 114.35 L382.75 114.2 379.1 110.25 Q376.55 107.4 379.95 114.2 L379.65 114.1 Q378.7 113.75 379.95 114.3 L380.0 114.35 380.2 114.5 Q379.4 114.45 380.05 115.9 L380.75 117.5 381.15 118.6 Q379.45 116.65 378.5 114.55 L377.35 112.3 377.45 112.65 377.5 112.9 377.4 113.1 377.35 112.9 375.8 110.75 375.4 110.4 375.05 110.5 374.95 112.15 Q374.9 113.7 375.45 115.6 L375.1 114.9 374.35 113.45 374.1 112.95 373.7 112.9 373.15 113.55 372.4 112.75 371.75 111.75 371.6 111.45 371.7 111.75 371.75 111.75 Q372.1 112.65 371.5 112.3 370.8 111.95 370.75 112.4 370.6 113.15 370.95 114.25 L372.5 118.85 369.95 115.7 368.9 114.4 373.0 122.45 373.0 122.5 373.4 122.9 373.0 122.45 365.05 115.75 365.25 116.05 365.1 116.0 364.85 115.7 363.7 115.05 363.75 115.8 Q363.85 116.95 364.95 118.4 L365.65 119.45 362.8 116.8 Q364.8 121.0 368.05 125.1 L359.25 118.05 361.45 120.5 361.85 120.95 361.4 120.6 356.4 115.4 356.75 114.85 356.55 114.6 353.7 127.9 352.6 105.6 350.75 105.05 346.15 108.05 345.65 106.95 346.0 105.9 Q349.15 97.2 355.95 91.4 L361.35 86.55 361.4 86.5 M380.75 75.85 L378.8 77.7 378.5 77.95 Q379.2 78.85 379.85 78.8 L380.2 78.75 382.0 77.6 Q382.65 78.15 382.3 78.35 L381.45 78.8 Q380.75 79.2 380.65 80.05 382.0 80.75 382.8 80.4 L383.95 80.3 Q384.2 81.3 383.7 81.7 383.1 82.3 388.35 88.05 393.65 93.85 391.55 92.2 389.55 90.55 385.1 88.65 L382.6 87.65 382.15 88.5 381.95 88.9 381.75 89.3 381.4 89.6 381.3 89.7 386.3 98.15 386.8 98.8 386.25 98.2 385.85 97.8 383.45 95.6 382.6 95.15 383.85 96.85 384.35 97.55 384.9 98.3 385.0 98.6 384.8 98.4 384.55 98.15 384.15 97.75 384.05 98.05 384.15 98.55 384.4 99.15 384.5 99.45 Q383.9 99.1 383.3 98.55 L382.8 98.2 382.5 98.2 Q382.45 98.1 382.4 98.15 L382.7 98.7 383.0 99.25 383.1 99.55 383.15 99.65 383.0 99.5 382.6 99.15 382.05 99.05 382.25 99.2 382.5 99.55 382.7 99.6 382.6 99.3 382.6 99.15 M381.7 99.7 L381.8 100.2 381.8 100.25 381.85 100.3 381.8 100.4 381.85 100.4 Q386.15 102.75 390.85 109.55 L391.4 109.1 Q387.0 103.65 382.7 99.6 L382.25 99.2 M386.8 98.8 L387.5 99.55 M381.85 100.3 L381.85 100.4 381.8 100.4 M381.95 100.3 L381.9 100.3 381.8 100.25 M381.85 100.3 L381.95 100.3 381.85 100.4 M381.95 100.3 L382.3 100.1 381.7 99.7 M361.6 86.7 L361.35 86.55 M361.6 86.7 Q367.7 83.65 372.4 78.9 L383.75 73.1 380.75 75.85 M375.45 115.6 L375.6 116.4 M379.95 114.3 L379.95 114.2 Q380.7 114.55 380.3 114.45 L380.2 114.5" ffdec:has-small-stroke="true" ffdec:original-stroke-width="0.05" fill="none" stroke="#660000" stroke-linecap="round" stroke-linejoin="round" stroke-opacity="0.6901961" stroke-width="1.0"/>
    <path d="M385.1 109.4 L383.4 108.1 383.25 107.95 382.55 107.05 382.35 106.85 382.25 106.6 Q381.3 105.35 381.05 104.15 L380.85 103.3 380.8 102.9 380.4 102.05 Q379.9 101.3 380.0 100.8 L380.1 100.75 380.65 100.8 381.3 101.1 381.7 102.05 381.85 102.7 381.9 102.85 382.4 104.1 382.75 105.1 382.85 105.45 383.2 106.35 383.4 106.8 Q383.75 107.7 384.45 108.6 L385.1 109.4 M384.6 95.9 L384.95 96.45 383.45 94.85 382.65 93.95 382.45 93.8 Q381.75 93.55 381.2 92.9 L381.1 92.85 381.55 92.45 Q381.85 92.3 381.6 91.8 L381.2 91.15 381.15 91.0 380.85 90.45 Q381.4 91.0 381.55 91.45 L381.8 91.8 383.25 94.1 384.6 95.9" ffdec:has-small-stroke="true" ffdec:original-stroke-width="0.05" fill="none" stroke="#fffdea" stroke-linecap="round" stroke-linejoin="round" stroke-width="1.0"/>
    <path d="M382.05 99.05 L380.75 97.65 380.2 98.1 381.7 99.7" fill="none" stroke="#f5eed3" stroke-linecap="round" stroke-linejoin="round" stroke-width="1.0"/>
    <path d="M351.5 101.5 L351.25 101.3 351.5 101.55 M355.65 112.55 L355.65 113.35 355.85 112.55 M358.25 108.1 L358.3 108.15 Q358.65 109.3 358.35 110.2 M366.0 93.3 L366.15 93.4 366.05 93.25 M360.05 106.45 L359.8 106.0 359.4 104.4" ffdec:has-small-stroke="true" ffdec:original-stroke-width="0.05" fill="none" stroke="#d9cebf" stroke-linecap="round" stroke-linejoin="round" stroke-width="1.0"/>
    <path d="M329.65 59.0 L329.85 59.15 330.15 59.3 328.35 57.6 Q326.6 56.1 325.2 53.85 L326.15 54.6 327.5 55.7 Q328.7 56.75 328.9 55.95 L328.95 56.2 328.95 56.25 Q329.15 57.55 329.1 56.55 L329.05 56.3 Q334.6 61.45 332.55 58.2 L329.85 53.55 329.85 53.25 Q330.15 53.45 329.95 52.9 L328.55 49.7 330.2 51.6 331.75 53.15 331.7 52.85 331.15 51.35 Q330.85 50.6 331.1 50.4 L331.5 50.8 332.05 51.55 332.45 52.05 331.95 51.3 330.95 49.4 328.05 44.5 Q327.2 43.3 327.1 42.55 L329.2 45.55 Q335.05 53.1 341.3 57.2 L342.55 58.1 342.9 58.35 342.9 58.45 343.0 58.4 342.9 58.45 342.9 58.35 Q341.8 53.55 336.65 47.1 L337.25 46.75 Q341.2 52.5 343.9 57.75 L343.9 58.0 344.15 58.3 343.9 58.0 343.9 57.75 344.15 58.3 344.25 58.55 344.3 58.05 344.05 57.45 344.1 57.45 344.3 57.65 344.75 58.05 345.15 58.5 345.2 58.4 345.3 58.1 345.05 57.55 344.6 56.1 344.85 56.25 345.35 56.7 Q345.5 56.95 345.75 56.9 L346.05 56.95 345.8 56.4 345.7 56.1 345.55 55.85 345.8 56.0 346.3 56.8 346.85 57.5 348.15 59.15 347.9 58.2 346.55 55.25 346.25 54.8 346.3 54.75 352.95 61.95 353.1 61.85 353.5 61.65 353.95 61.55 354.35 61.45 355.35 61.25 355.1 58.6 Q354.5 53.8 353.5 51.4 352.5 48.95 356.6 55.65 360.6 62.3 361.3 61.9 361.85 61.55 362.75 62.1 L362.35 63.15 Q361.8 63.9 362.05 65.3 362.95 65.45 363.45 64.95 L364.15 64.2 Q364.45 63.95 364.8 64.7 363.8 65.2 363.2 66.1 L363.05 66.45 Q362.8 67.1 363.5 67.95 L363.85 67.75 366.15 66.4 362.2 69.05 358.85 70.2 357.25 69.65 357.25 69.8 Q357.3 70.25 357.75 70.6 L357.35 70.75 Q356.95 70.6 356.35 70.05 355.05 69.0 354.55 68.85 L353.5 67.9 354.2 69.05 351.75 67.55 352.65 69.1 351.05 67.6 Q351.55 68.2 351.4 68.45 L350.5 67.6 350.2 67.3 350.5 67.75 350.0 67.7 348.25 65.75 349.1 67.3 350.3 70.15 349.5 69.4 Q348.2 68.1 348.85 69.1 L348.8 69.15 346.95 67.6 347.4 68.55 345.5 67.25 346.3 68.85 344.85 68.1 345.15 69.0 343.65 68.0 344.25 69.2 341.8 67.25 342.95 69.65 342.7 69.4 Q341.65 68.7 341.15 68.05 L342.55 70.35 342.45 70.25 Q341.65 69.95 340.7 68.7 L342.0 70.9 340.55 69.85 341.1 70.75 Q342.05 72.25 341.65 72.1 341.3 71.7 341.0 71.65 340.25 71.6 339.35 70.85 L341.05 72.95 340.5 72.8 Q339.3 72.35 340.0 73.6 L340.1 73.75 Q339.95 74.05 339.5 73.75 L340.0 74.3 340.05 74.45 338.2 74.3 339.7 76.15 338.35 76.1 336.8 74.95 337.1 76.85 334.2 75.15 331.65 73.25 330.45 72.1 333.8 71.45 331.75 69.2 328.95 69.15 324.85 65.5 322.5 62.05 326.5 64.9 Q327.4 65.6 328.25 65.6 328.65 65.65 328.5 64.95 328.3 64.25 329.05 64.8 L329.05 64.85 329.35 65.05 329.05 64.8 328.3 63.9 327.75 62.95 328.55 62.6 328.7 62.3 328.2 61.85 327.05 60.75 326.45 60.2 Q328.15 61.3 329.65 61.7 L331.2 62.05 331.45 61.7 331.25 61.25 329.6 59.1 329.65 59.0 M343.5 58.65 L344.6 60.55 345.2 60.2 344.25 58.55 345.2 60.2 344.6 60.55 343.5 58.65 343.25 58.05 343.0 58.3 Q343.0 58.05 342.9 58.4 L343.0 58.4 343.0 58.45 343.1 58.5 343.5 58.65 M335.15 52.7 L335.95 54.7 336.05 54.9 336.65 55.8 336.8 56.05 337.05 56.25 Q338.0 57.45 339.1 58.1 L339.8 58.5 340.2 58.7 340.9 59.3 341.95 60.05 342.05 60.0 342.15 59.4 342.0 58.65 341.25 58.1 340.65 57.75 340.5 57.6 339.5 56.85 338.65 56.15 338.35 55.95 337.5 55.4 337.2 55.1 335.75 53.6 335.15 52.7 M347.95 57.05 L347.55 56.6 348.7 58.45 349.3 59.5 349.35 59.65 349.85 61.1 349.9 61.2 350.4 60.9 Q350.65 60.7 351.1 61.1 L351.55 61.65 351.65 61.75 352.1 62.2 351.4 61.2 351.1 60.85 349.3 58.85 347.95 57.05 M342.9 58.45 L342.9 58.4 342.9 58.45 M342.9 58.4 L342.9 58.35 342.9 58.4 M345.3 75.55 Q347.35 77.0 349.8 77.2 L349.95 76.9 349.95 75.95 349.85 74.95 Q351.1 75.55 352.4 75.7 L353.15 75.55 Q353.55 75.35 354.05 75.3 L354.3 75.5 Q354.5 75.9 353.95 76.2 L348.9 78.6 347.9 78.95 Q346.35 79.65 345.35 80.8 L345.05 81.2 344.35 81.7 338.65 85.35 337.65 86.05 337.4 86.3 337.15 86.7 336.8 87.65 336.2 87.75 Q335.0 87.6 333.95 87.0 L333.55 86.75 333.35 86.6 Q333.0 86.75 333.15 87.15 331.85 84.85 330.15 82.95 L327.95 81.05 327.05 80.75 323.8 80.05 323.85 79.85 Q325.85 79.6 327.8 79.85 328.85 79.95 329.7 80.35 L330.1 80.55 329.45 79.55 328.75 78.85 328.7 78.75 331.75 79.7 332.5 80.0 Q333.35 80.35 334.05 81.15 L334.25 81.4 Q333.65 79.9 332.65 78.75 L334.0 79.35 Q335.6 79.95 337.35 80.15 L340.15 80.35 343.35 80.7 344.75 80.55 345.2 79.95 345.35 78.2 345.2 75.6 345.3 75.55" fill="#f5eed3" fill-rule="evenodd" stroke="none"/>
    <path d="M324.85 65.5 L328.95 69.15 331.75 69.2 333.8 71.45 330.45 72.1 331.65 73.25 334.2 75.15 337.1 76.85 336.8 74.95 338.35 76.1 339.7 76.15 338.2 74.3 340.05 74.45 340.0 74.3 339.5 73.75 Q339.95 74.05 340.1 73.75 L340.0 73.6 Q339.3 72.35 340.5 72.8 L341.05 72.95 339.35 70.85 Q340.25 71.6 341.0 71.65 341.3 71.7 341.65 72.1 342.05 72.25 341.1 70.75 L340.55 69.85 342.0 70.9 340.7 68.7 Q341.65 69.95 342.45 70.25 L342.55 70.35 341.15 68.05 Q341.65 68.7 342.7 69.4 L342.95 69.65 341.8 67.25 344.25 69.2 343.65 68.0 345.15 69.0 344.85 68.1 346.3 68.85 345.5 67.25 347.4 68.55 346.95 67.6 348.8 69.15 348.85 69.1 Q348.2 68.1 349.5 69.4 L350.3 70.15 349.1 67.3 348.25 65.75 350.0 67.7 350.5 67.75 350.2 67.3 350.5 67.6 351.4 68.45 Q351.55 68.2 351.05 67.6 L352.65 69.1 351.75 67.55 354.2 69.05 353.5 67.9 354.55 68.85 Q355.05 69.0 356.35 70.05 356.95 70.6 357.35 70.75 L357.75 70.6 Q357.3 70.25 357.25 69.8 L357.25 69.65 358.85 70.2 362.2 69.05 366.15 66.4 369.65 64.35 360.8 73.6 Q354.9 76.7 350.2 81.7 L350.35 81.95 350.3 82.0 350.2 81.7 350.3 82.0 344.1 85.8 Q336.6 90.7 327.35 91.25 L326.25 91.25 325.45 90.45 329.55 86.9 329.55 84.95 308.45 77.55 322.0 78.6 321.9 78.35 321.3 78.5 317.65 72.2 317.8 72.2 319.5 75.05 315.25 64.6 Q318.25 68.9 321.7 72.0 L320.0 68.5 320.75 69.5 Q321.85 70.95 322.9 71.35 L323.6 71.6 323.35 70.35 323.15 70.0 323.1 69.8 323.4 70.1 319.2 60.6 325.75 66.8 324.85 65.5 M347.95 57.05 L349.3 58.85 351.1 60.85 351.4 61.2 352.1 62.2 351.65 61.75 351.55 61.65 351.1 61.1 Q350.65 60.7 350.4 60.9 L349.9 61.2 349.85 61.1 349.35 59.65 349.3 59.5 348.7 58.45 347.55 56.6 347.95 57.05 M335.15 52.7 L335.75 53.6 337.2 55.1 337.5 55.4 338.35 55.95 338.65 56.15 339.5 56.85 340.5 57.6 340.65 57.75 341.25 58.1 342.0 58.65 342.15 59.4 342.05 60.0 341.95 60.05 340.9 59.3 340.2 58.7 339.8 58.5 339.1 58.1 Q338.0 57.45 337.05 56.25 L336.8 56.05 336.65 55.8 336.05 54.9 335.95 54.7 335.15 52.7 M333.15 87.15 Q333.0 86.75 333.35 86.6 L333.55 86.75 333.95 87.0 Q335.0 87.6 336.2 87.75 L336.8 87.65 337.15 86.7 337.4 86.3 337.65 86.05 338.65 85.35 344.35 81.7 345.05 81.2 345.35 80.8 Q346.35 79.65 347.9 78.95 L348.9 78.6 353.95 76.2 Q354.5 75.9 354.3 75.5 L354.05 75.3 Q353.55 75.35 353.15 75.55 L352.4 75.7 Q351.1 75.55 349.85 74.95 L349.95 75.95 349.95 76.9 349.8 77.2 Q347.35 77.0 345.3 75.55 L345.15 75.4 345.2 75.6 345.15 75.4 345.3 75.55 345.2 75.6 345.35 78.2 345.2 79.95 344.75 80.55 343.35 80.7 340.15 80.35 337.35 80.15 Q335.6 79.95 334.0 79.35 L332.65 78.75 Q333.65 79.9 334.25 81.4 L334.05 81.15 Q333.35 80.35 332.5 80.0 L331.75 79.7 328.7 78.75 328.75 78.85 329.45 79.55 330.1 80.55 329.7 80.35 Q328.85 79.95 327.8 79.85 325.85 79.6 323.85 79.85 L323.0 79.8 323.8 80.05 323.0 79.8 323.85 79.85 323.8 80.05 327.05 80.75 327.95 81.05 330.15 82.95 Q331.85 84.85 333.15 87.15 L333.35 87.5 333.15 87.15 333.35 87.5 333.15 87.15 M326.8 78.1 Q327.8 78.1 328.7 78.75 327.8 78.1 326.8 78.1 M332.65 78.75 L331.25 77.95 330.85 77.65 331.25 77.95 332.65 78.75" fill="#fffdea" fill-rule="evenodd" stroke="none"/>
    <path d="M342.9 58.35 L342.55 58.1 341.3 57.2 Q335.05 53.1 329.2 45.55 L327.1 42.55 Q327.2 43.3 328.05 44.5 L330.95 49.4 331.95 51.3 332.45 52.05 332.05 51.55 331.5 50.8 331.1 50.4 Q330.85 50.6 331.15 51.35 L331.7 52.85 331.75 53.15 330.2 51.6 328.55 49.7 329.95 52.9 Q330.15 53.45 329.85 53.25 L329.85 53.55 332.55 58.2 Q334.6 61.45 329.05 56.3 L329.1 56.55 Q329.15 57.55 328.95 56.25 L328.95 56.2 328.9 55.95 Q328.7 56.75 327.5 55.7 L326.15 54.6 325.2 53.85 Q326.6 56.1 328.35 57.6 L330.15 59.3 329.85 59.15 329.65 59.0 329.45 59.0 329.6 59.1 331.25 61.25 331.45 61.7 331.2 62.05 329.65 61.7 Q328.15 61.3 326.45 60.2 L327.05 60.75 328.2 61.85 328.7 62.3 328.55 62.6 327.75 62.95 328.3 63.9 329.05 64.8 329.35 65.05 329.05 64.85 329.05 64.8 Q328.3 64.25 328.5 64.95 328.65 65.65 328.25 65.6 327.4 65.6 326.5 64.9 L322.5 62.05 324.85 65.5 325.75 66.8 319.2 60.6 319.2 60.55 318.9 60.05 319.2 60.6 323.4 70.1 323.1 69.8 323.15 70.0 323.35 70.35 323.6 71.6 322.9 71.35 Q321.85 70.95 320.75 69.5 L320.0 68.5 321.7 72.0 Q318.25 68.9 315.25 64.6 L319.5 75.05 317.8 72.2 317.45 71.7 317.65 72.2 321.3 78.5 321.9 78.35 322.0 78.6 308.45 77.55 329.55 84.95 329.55 86.9 325.45 90.45 326.25 91.25 327.35 91.25 Q336.6 90.7 344.1 85.8 L350.3 82.0 350.35 81.95 M366.15 66.4 L363.85 67.75 363.5 67.95 Q362.8 67.1 363.05 66.45 L363.2 66.1 Q363.8 65.2 364.8 64.7 364.45 63.95 364.15 64.2 L363.45 64.95 Q362.95 65.45 362.05 65.3 361.8 63.9 362.35 63.15 L362.75 62.1 Q361.85 61.55 361.3 61.9 360.6 62.3 356.6 55.65 352.5 48.95 353.5 51.4 354.5 53.8 355.1 58.6 L355.35 61.25 354.35 61.45 353.95 61.55 353.5 61.65 353.1 61.85 352.95 61.95 346.3 54.75 345.85 54.1 345.3 53.2 M346.25 54.8 L346.55 55.25 347.9 58.2 348.15 59.15 346.85 57.5 346.3 56.8 345.8 56.0 345.55 55.85 345.7 56.1 345.8 56.4 346.05 56.95 345.75 56.9 Q345.5 56.95 345.35 56.7 L344.85 56.25 344.6 56.1 345.05 57.55 345.3 58.1 345.2 58.4 345.15 58.5 344.75 58.05 344.3 57.65 344.1 57.45 343.95 57.3 344.05 57.45 344.3 58.05 344.25 58.55 344.15 58.3 343.9 58.0 343.9 57.75 344.15 57.95 344.3 58.05 M343.5 58.65 L343.1 58.5 343.0 58.45 343.0 58.4 342.9 58.45 342.9 58.35 Q341.8 53.55 336.65 47.1 L337.25 46.75 Q341.2 52.5 343.9 57.75 L344.15 58.3 M346.25 54.8 L345.85 54.1 M342.9 58.4 L342.9 58.45 M343.0 58.4 L343.0 58.3 Q343.0 58.05 342.9 58.4 L343.0 58.4 M343.0 58.3 L343.05 58.4 343.0 58.45 M342.9 58.35 L342.9 58.4 M343.0 58.3 L343.25 58.05 343.5 58.65 M350.2 81.7 L350.3 82.0 M350.2 81.7 Q354.9 76.7 360.8 73.6 L369.65 64.35 366.15 66.4 M326.45 60.2 L325.7 59.85 M328.95 56.25 L329.05 56.3 328.95 55.85 328.9 55.95" ffdec:has-small-stroke="true" ffdec:original-stroke-width="0.05" fill="none" stroke="#660000" stroke-linecap="round" stroke-linejoin="round" stroke-opacity="0.6901961" stroke-width="1.0"/>
    <path d="M335.15 52.7 L335.95 54.7 336.05 54.9 336.65 55.8 336.8 56.05 337.05 56.25 Q338.0 57.45 339.1 58.1 L339.8 58.5 340.2 58.7 340.9 59.3 341.95 60.05 342.05 60.0 342.15 59.4 342.0 58.65 341.25 58.1 340.65 57.75 340.5 57.6 339.5 56.85 338.65 56.15 338.35 55.95 337.5 55.4 337.2 55.1 335.75 53.6 335.15 52.7 M347.95 57.05 L347.55 56.6 348.7 58.45 349.3 59.5 349.35 59.65 349.85 61.1 349.9 61.2 350.4 60.9 Q350.65 60.7 351.1 61.1 L351.55 61.65 351.65 61.75 352.1 62.2 351.4 61.2 351.1 60.85 349.3 58.85 347.95 57.05" ffdec:has-small-stroke="true" ffdec:original-stroke-width="0.05" fill="none" stroke="#fffdea" stroke-linecap="round" stroke-linejoin="round" stroke-width="1.0"/>
    <path d="M344.25 58.55 L345.2 60.2 344.6 60.55 343.5 58.65" fill="none" stroke="#f5eed3" stroke-linecap="round" stroke-linejoin="round" stroke-width="1.0"/>
    <path d="M333.15 87.15 L333.35 87.5 333.15 87.15 M323.8 80.05 L323.0 79.8 323.85 79.85 M328.75 78.85 L328.7 78.75 Q327.8 78.1 326.8 78.1 M345.2 75.6 L345.15 75.4 345.3 75.55 M330.85 77.65 L331.25 77.95 332.65 78.75" ffdec:has-small-stroke="true" ffdec:original-stroke-width="0.05" fill="none" stroke="#d9cebf" stroke-linecap="round" stroke-linejoin="round" stroke-width="1.0"/>
  </g>
</svg>
