<?xml version="1.0" encoding="UTF-8" standalone="no"?>
<svg xmlns:ffdec="https://www.free-decompiler.com/flash" xmlns:xlink="http://www.w3.org/1999/xlink" ffdec:objectType="shape" height="25.15px" width="31.1px" xmlns="http://www.w3.org/2000/svg">
  <g transform="matrix(1.0, 0.0, 0.0, 1.0, 15.55, 12.55)">
    <path d="M-2.35 -9.05 L-2.3 -10.95 -1.0 -12.15 0.2 -11.7 0.1 -10.3 -2.35 -9.05" fill="#7a6d3b" fill-rule="evenodd" stroke="none"/>
    <path d="M0.1 -10.3 L1.8 -11.15 2.5 -12.55 3.4 -10.65 1.35 -8.6 1.3 -3.65 -3.75 -0.75 -7.5 -0.3 -4.35 -6.0 -3.65 -8.4 -2.35 -9.05 0.1 -10.3 M0.05 -6.6 L0.5 -7.8 1.35 -8.6 0.5 -7.8 0.05 -6.6" fill="#7c6d3f" fill-rule="evenodd" stroke="none"/>
    <path d="M1.3 -3.65 L6.4 -6.6 15.15 -8.8 15.2 -7.95 15.55 7.85 13.7 6.25 14.3 12.6 -1.95 10.1 -2.55 11.85 -10.3 7.4 -15.55 5.3 -8.05 -0.2 -8.05 -0.25 -7.5 -0.3 -3.75 -0.75 1.3 -3.65 M3.45 -1.05 Q2.75 -0.65 2.6 0.1 2.45 0.85 2.95 1.5 3.4 2.15 4.25 2.35 L5.8 2.1 6.65 0.95 Q6.8 0.2 6.3 -0.45 5.8 -1.15 5.0 -1.3 L3.45 -1.05 M4.8 -4.9 L-2.85 0.2 4.8 -4.9 M9.9 -3.35 Q9.3 -3.05 9.2 -2.4 9.05 -1.75 9.45 -1.2 9.85 -0.7 10.55 -0.55 L11.8 -0.75 Q12.4 -1.1 12.5 -1.7 12.65 -2.35 12.25 -2.9 11.85 -3.45 11.15 -3.55 L9.9 -3.35 M7.0 -5.9 L15.2 -7.95 7.0 -5.9 M-8.05 -0.2 L-8.05 -0.25 -8.05 -0.2 M-7.1 7.25 L-6.6 7.35 -6.55 7.35 -2.9 8.1 -1.7 7.7 2.25 8.35 1.9 8.0 1.6 7.8 -0.2 6.65 -0.95 6.15 -3.95 5.7 -4.65 5.55 -5.55 5.65 -6.45 5.75 -6.65 5.75 -7.1 7.25 M3.0 9.25 L2.25 8.35 3.0 9.25 M-4.45 0.65 L-8.3 0.9 -4.45 0.65" fill="#a39550" fill-rule="evenodd" stroke="none"/>
    <path d="M3.45 -1.05 L5.0 -1.3 Q5.8 -1.15 6.3 -0.45 6.8 0.2 6.65 0.95 L5.8 2.1 4.25 2.35 Q3.4 2.15 2.95 1.5 2.45 0.85 2.6 0.1 2.75 -0.65 3.45 -1.05 M9.9 -3.35 L11.15 -3.55 Q11.85 -3.45 12.25 -2.9 12.65 -2.35 12.5 -1.7 12.4 -1.1 11.8 -0.75 L10.55 -0.55 Q9.85 -0.7 9.45 -1.2 9.05 -1.75 9.2 -2.4 9.3 -3.05 9.9 -3.35" fill="#99702c" fill-opacity="0.6509804" fill-rule="evenodd" stroke="none"/>
    <path d="M-6.6 7.35 L-7.1 7.25 -6.65 5.75 -6.45 5.75 -5.55 5.65 -4.65 5.55 -3.95 5.7 -0.95 6.15 -0.2 6.65 1.6 7.8 1.9 8.0 2.25 8.35 -1.7 7.7 -2.9 8.1 -6.55 7.35 -6.6 7.35" fill="#c2af5f" fill-rule="evenodd" stroke="none"/>
    <path d="M0.1 -10.3 L1.8 -11.15 2.5 -12.55 3.4 -10.65 1.35 -8.6 1.3 -3.65 6.4 -6.6 15.15 -8.8 15.2 -7.95 15.55 7.85 13.7 6.25 14.3 12.6 -1.95 10.1 -2.55 11.85 -10.3 7.4 -15.55 5.3 -8.05 -0.2 -8.05 -0.25 -7.5 -0.3 -4.35 -6.0 -3.65 -8.4 -2.35 -9.05 -2.3 -10.95 -1.0 -12.15 0.2 -11.7 0.1 -10.3 M-7.5 -0.3 L-3.75 -0.75 1.3 -3.65" ffdec:has-small-stroke="true" ffdec:original-stroke-width="0.05" fill="none" stroke="#4f3517" stroke-linecap="round" stroke-linejoin="round" stroke-width="1.0"/>
    <path d="M0.1 -10.3 L-2.35 -9.05 M1.35 -8.6 L0.5 -7.8 0.05 -6.6 M2.25 8.35 L1.9 8.0 1.6 7.8 M-0.2 6.65 L-0.95 6.15 -3.95 5.7 M-4.65 5.55 L-5.55 5.65 M-6.45 5.75 L-6.65 5.75 -7.1 7.25 M2.25 8.35 L3.0 9.25" ffdec:has-small-stroke="true" ffdec:original-stroke-width="0.05" fill="none" stroke="#675128" stroke-linecap="round" stroke-linejoin="round" stroke-opacity="0.6" stroke-width="1.0"/>
    <path d="M-2.85 0.2 L4.8 -4.9 M15.2 -7.95 L7.0 -5.9 M-6.6 7.35 L-6.55 7.35 M-8.3 0.9 L-4.45 0.65" ffdec:has-small-stroke="true" ffdec:original-stroke-width="0.05" fill="none" stroke="#dacc9e" stroke-linecap="round" stroke-linejoin="round" stroke-width="1.0"/>
  </g>
</svg>
