<?xml version="1.0" encoding="UTF-8" standalone="no"?>
<svg xmlns:ffdec="https://www.free-decompiler.com/flash" xmlns:xlink="http://www.w3.org/1999/xlink" ffdec:objectType="shape" height="27.6px" width="28.4px" xmlns="http://www.w3.org/2000/svg">
  <g transform="matrix(1.0, 0.0, 0.0, 1.0, -138.75, -191.65)">
    <path d="M148.0 192.55 L148.0 192.35 Q157.75 190.6 157.35 194.05 157.5 195.3 159.3 198.6 161.0 201.65 160.95 202.4 L161.0 204.25 Q161.25 205.75 162.15 207.1 163.65 209.15 167.05 210.9 158.5 210.75 156.4 215.75 154.5 217.7 150.55 218.7 L146.1 218.55 145.85 218.1 144.5 216.3 142.1 214.05 Q146.1 213.65 143.85 211.5 143.3 211.4 142.8 209.35 142.25 207.05 143.0 205.6 143.1 204.1 142.75 202.8 L142.2 201.55 146.85 200.35 147.55 199.85 Q151.1 197.5 155.0 195.75 152.95 195.65 152.9 194.9 154.0 194.3 155.3 194.25 152.45 193.15 148.0 192.55 M160.75 209.85 L160.8 209.95 160.9 210.05 161.0 210.1 161.05 210.1 161.85 209.8 Q162.15 209.65 162.15 208.75 L162.05 208.2 161.85 208.15 Q160.6 208.15 160.6 209.2 L160.75 209.85 M150.15 215.35 Q150.1 214.75 149.5 214.75 146.8 214.75 146.85 215.8 146.8 216.15 147.05 216.45 L147.4 216.65 147.05 216.45 147.2 216.55 147.4 216.65 147.6 216.7 147.75 216.7 149.45 216.4 Q150.2 216.25 150.15 215.35 M151.95 215.35 Q151.8 214.85 151.6 214.85 150.9 214.85 150.9 215.25 L150.95 215.45 151.85 215.4 151.95 215.4 151.95 215.35" fill="url(#gradient0)" fill-rule="evenodd" stroke="none"/>
    <path d="M139.85 198.35 Q151.25 196.15 148.0 192.55 152.45 193.15 155.3 194.25 154.0 194.3 152.9 194.9 150.25 196.05 147.3 199.25 146.35 197.7 139.8 198.6 L139.85 198.35" fill="url(#gradient1)" fill-rule="evenodd" stroke="none"/>
    <path d="M142.2 201.55 Q141.35 200.2 139.6 199.05 L139.8 198.6 Q146.35 197.7 147.3 199.25 150.25 196.05 152.9 194.9 152.95 195.65 155.0 195.75 151.1 197.5 147.55 199.85 L146.85 200.35 142.2 201.55" fill="#136275" fill-rule="evenodd" stroke="none"/>
    <path d="M162.15 208.75 Q162.15 209.65 161.85 209.8 L161.05 210.1 161.0 210.1 160.9 210.05 160.8 209.95 160.75 209.85 160.6 209.2 Q160.6 208.15 161.85 208.15 L162.05 208.2 162.15 208.75 M147.05 216.45 Q146.8 216.15 146.85 215.8 146.8 214.75 149.5 214.75 150.1 214.75 150.15 215.35 150.2 216.25 149.45 216.4 L147.75 216.7 147.6 216.7 147.4 216.65 147.2 216.55 147.05 216.45 M150.95 215.45 L150.9 215.25 Q150.9 214.85 151.6 214.85 151.8 214.85 151.95 215.35 L151.95 215.4 151.85 215.4 150.95 215.45" fill="#22aacc" fill-rule="evenodd" stroke="none"/>
    <path d="M139.6 199.05 L139.05 198.65 139.8 198.6 139.6 199.05" fill="#242424" fill-rule="evenodd" stroke="none"/>
    <path d="M139.05 198.65 L139.0 198.65 138.85 198.5 139.1 198.45 139.8 198.35 139.85 198.35 139.8 198.6 139.05 198.65" fill="#666666" fill-rule="evenodd" stroke="none"/>
    <path d="M148.0 192.35 L147.7 192.45 148.0 192.55 Q152.45 193.15 155.3 194.25 154.0 194.3 152.9 194.9 150.25 196.05 147.3 199.25 146.35 197.7 139.8 198.6 L139.05 198.65 139.0 198.65 138.85 198.5 139.1 198.45 139.8 198.35 139.85 198.35 Q151.25 196.15 148.0 192.55 M148.0 192.35 Q157.75 190.6 157.35 194.05 157.5 195.3 159.3 198.6 161.0 201.65 160.95 202.4 L161.0 204.25 Q161.25 205.75 162.15 207.1 163.65 209.15 167.05 210.9 158.5 210.75 156.4 215.75 154.5 217.7 150.55 218.7 L146.1 218.55 145.85 218.1 144.5 216.3 142.1 214.05 Q146.1 213.65 143.85 211.5 143.3 211.4 142.8 209.35 142.25 207.05 143.0 205.6 143.1 204.1 142.75 202.8 L142.2 201.55 Q141.35 200.2 139.6 199.05 L139.05 198.65" ffdec:has-small-stroke="true" ffdec:original-stroke-width="0.25" fill="none" stroke="#0b3742" stroke-linecap="round" stroke-linejoin="round" stroke-width="1.0"/>
    <path d="M162.15 208.75 Q162.15 209.65 161.85 209.8 L161.05 210.1 161.0 210.1 160.9 210.05 160.8 209.95 160.75 209.85 M149.45 216.4 L147.75 216.7 147.6 216.7 147.4 216.65 147.2 216.55 M151.95 215.35 L151.95 215.4 151.85 215.4 150.95 215.45" ffdec:has-small-stroke="true" ffdec:original-stroke-width="0.25" fill="none" stroke="#22aacc" stroke-linecap="round" stroke-linejoin="round" stroke-width="1.0"/>
    <path d="M150.15 215.35 Q150.2 216.25 149.45 216.4" ffdec:has-small-stroke="true" ffdec:original-stroke-width="0.25" fill="none" stroke="#22aacc" stroke-linecap="round" stroke-linejoin="round" stroke-width="1.0"/>
    <path d="M147.4 216.65 L147.05 216.45 147.2 216.55" ffdec:has-small-stroke="true" ffdec:original-stroke-width="0.25" fill="none" stroke="#22aacc" stroke-linecap="round" stroke-linejoin="round" stroke-width="1.0"/>
  </g>
  <defs>
    <linearGradient gradientTransform="matrix(0.0152, 0.0, 0.0, 0.0167, 154.55, 205.45)" gradientUnits="userSpaceOnUse" id="gradient0" spreadMethod="pad" x1="-819.2" x2="819.2">
      <stop offset="0.0" stop-color="#17768e"/>
      <stop offset="1.0" stop-color="#22aacc"/>
    </linearGradient>
    <linearGradient gradientTransform="matrix(0.0094, 0.0, 0.0, 0.0041, 147.55, 195.9)" gradientUnits="userSpaceOnUse" id="gradient1" spreadMethod="pad" x1="-819.2" x2="819.2">
      <stop offset="0.0" stop-color="#17768e"/>
      <stop offset="1.0" stop-color="#22aacc"/>
    </linearGradient>
  </defs>
</svg>
