<?xml version="1.0" encoding="UTF-8" standalone="no"?>
<svg xmlns:ffdec="https://www.free-decompiler.com/flash" xmlns:xlink="http://www.w3.org/1999/xlink" ffdec:objectType="shape" height="88.65px" width="240.05px" xmlns="http://www.w3.org/2000/svg">
  <g transform="matrix(1.0, 0.0, 0.0, 1.0, -135.85, -116.55)">
    <path d="M367.4 148.0 L367.4 146.6 321.8 144.8 292.95 144.7 293.1 144.5 292.95 144.7 292.85 144.7 293.15 144.3 294.05 143.05 Q297.1 138.6 297.1 135.55 L297.1 135.15 297.05 133.35 297.05 133.3 296.1 133.35 293.05 133.45 292.75 133.35 292.7 133.35 292.6 133.6 290.7 136.55 289.1 138.15 289.05 138.15 288.15 136.5 Q287.4 135.05 287.4 134.8 L287.35 134.4 287.1 134.45 287.0 134.2 283.55 135.35 287.0 134.2 287.1 134.45 Q284.9 134.8 281.8 136.25 280.65 136.75 279.4 137.4 L279.15 137.5 Q276.65 138.65 274.85 140.0 276.65 138.65 279.15 137.5 L278.05 138.1 274.85 140.0 274.55 140.2 274.2 140.4 Q272.25 141.5 271.6 142.2 272.25 141.5 274.2 140.4 L271.9 142.2 271.6 142.2 271.4 142.2 271.25 142.25 269.2 142.75 269.1 142.55 269.2 142.75 269.0 142.75 267.05 139.95 267.0 139.85 Q266.5 141.6 265.45 143.3 L259.0 143.45 259.0 143.4 257.1 143.4 259.0 143.45 Q258.7 144.85 231.4 141.0 L227.4 140.95 233.1 134.8 287.35 132.75 292.7 132.75 296.65 132.75 297.05 132.75 Q329.95 133.05 362.75 136.1 360.05 129.9 360.65 127.3 361.55 123.35 369.0 122.2 361.55 123.35 360.65 127.3 360.05 129.9 362.75 136.1 329.95 133.05 297.05 132.75 L296.65 132.75 292.7 132.75 287.35 132.75 233.1 134.8 215.25 135.25 Q205.15 130.1 208.55 125.7 210.0 123.9 213.55 123.25 L221.9 123.6 238.2 125.25 238.8 125.3 Q272.35 128.15 306.35 127.2 L308.0 127.15 310.65 127.05 Q333.55 126.25 356.7 123.7 L356.85 123.65 358.3 123.5 369.0 122.2 369.45 122.1 Q375.9 121.15 375.35 128.55 374.75 135.95 367.4 148.0 M269.1 142.55 L267.05 139.95 269.1 142.55 M283.55 135.35 L281.8 136.25 283.55 135.35 M293.1 144.5 L294.05 143.05 293.1 144.5 M222.8 200.3 L222.8 200.55 222.8 200.85 213.75 201.25 Q213.0 198.8 213.0 196.1 213.0 188.8 219.75 178.75 L222.75 174.6 221.85 176.95 Q220.95 179.55 220.95 184.25 220.95 179.55 221.85 176.95 L222.75 174.6 223.1 174.15 Q222.1 176.65 221.6 179.2 221.0 182.0 221.0 184.8 L221.0 185.3 Q221.0 190.35 221.45 194.0 L221.8 196.5 Q222.05 199.5 222.8 200.55 222.05 199.5 221.8 196.5 L222.05 197.65 222.4 199.25 222.65 200.3 222.8 200.3 M220.95 184.25 L221.0 185.3 220.95 184.25" fill="#8a8a1f" fill-rule="evenodd" stroke="none"/>
    <path d="M292.95 144.7 L321.8 144.8 367.4 146.6 367.4 148.0 349.1 170.15 348.9 170.15 Q346.1 170.15 344.1 171.05 342.15 172.0 342.15 173.35 342.15 174.7 344.1 175.6 L344.4 175.75 344.45 175.75 344.4 175.85 325.3 198.95 325.15 199.15 325.0 199.3 320.5 204.7 Q301.2 198.85 267.7 199.15 L238.6 200.1 231.8 200.45 231.75 200.45 228.95 200.55 228.0 200.6 227.95 200.6 225.45 200.75 225.4 200.75 222.95 200.85 222.8 200.55 222.95 200.85 222.8 200.85 222.8 200.55 222.8 200.3 225.45 200.3 228.0 200.3 231.6 200.25 231.8 200.25 Q232.1 197.5 233.55 195.0 L236.7 191.0 233.55 195.0 Q235.65 191.3 240.05 188.05 L241.05 187.35 247.7 182.95 254.05 178.6 257.45 175.95 254.05 178.6 256.4 176.75 257.45 175.95 258.65 174.8 264.9 170.25 265.0 170.2 274.85 162.35 275.3 162.05 277.15 160.4 278.65 159.1 Q287.5 151.35 292.15 145.65 L292.95 144.7 292.15 145.65 292.85 144.7 292.95 144.7 M227.4 140.95 L231.4 141.0 Q258.7 144.85 259.0 143.45 L257.1 143.4 259.0 143.4 259.0 143.45 265.45 143.3 Q264.2 145.25 262.2 147.05 L258.65 149.75 262.2 147.05 261.3 147.85 258.65 149.75 Q258.1 150.05 257.6 150.3 254.95 151.3 253.9 151.25 254.95 151.3 257.6 150.3 255.55 151.35 253.9 151.35 L253.9 151.25 253.9 151.35 Q253.7 151.75 253.9 150.85 L253.85 149.85 253.75 149.25 253.75 149.0 253.6 145.65 253.6 145.55 253.55 145.55 253.1 145.8 Q252.2 146.05 251.0 146.95 252.2 146.05 253.1 145.8 251.3 146.65 249.6 148.15 246.65 150.8 244.15 155.25 L243.9 155.45 243.75 155.9 243.05 157.2 240.6 163.2 240.1 163.85 240.6 163.2 239.35 166.1 239.25 165.95 235.0 158.75 234.9 158.8 234.85 158.85 Q232.1 160.35 229.15 164.05 227.15 165.85 225.7 168.55 227.15 165.85 229.15 164.05 L226.75 167.3 Q224.5 170.7 223.1 174.15 L222.75 174.6 219.75 178.75 Q213.0 188.8 213.0 196.1 213.0 198.8 213.75 201.25 L212.0 201.35 211.9 201.35 210.05 201.4 196.3 201.65 Q194.9 200.8 192.85 200.1 187.05 198.15 178.85 198.15 172.0 198.15 166.75 199.55 L162.0 198.5 Q141.35 193.2 138.2 177.5 L139.45 177.35 139.95 177.25 141.2 177.1 Q171.6 172.5 193.8 162.85 L193.95 162.9 Q195.3 163.6 197.2 163.6 199.1 163.6 200.45 162.9 201.8 162.25 201.8 161.3 201.8 160.35 200.5 159.7 216.3 151.75 227.4 140.95 M269.2 142.75 L271.25 142.25 271.4 142.2 271.6 142.2 271.9 142.2 271.75 142.35 Q270.65 143.35 270.15 144.25 L269.85 145.0 269.85 144.65 269.65 143.95 269.0 142.75 269.2 142.75 269.65 143.95 269.2 142.75 M236.7 191.0 L241.05 187.35 236.7 191.0 M225.7 168.55 Q224.05 171.3 222.75 174.6 224.05 171.3 225.7 168.55 M240.1 163.85 Q239.3 165.55 239.25 165.95 239.3 165.55 240.1 163.85 M251.0 146.95 Q250.3 147.4 249.6 148.15 250.3 147.4 251.0 146.95 M189.2 180.7 L189.4 181.8 190.8 181.6 190.4 179.6 Q189.2 179.15 189.2 180.7 M178.6 178.7 Q178.6 181.6 179.3 182.65 179.7 183.3 181.25 184.2 L181.6 184.4 184.45 183.55 Q185.8 182.7 185.8 180.1 185.8 178.7 185.0 177.0 183.9 174.6 182.0 174.6 178.6 174.6 178.6 178.7 M188.6 173.2 Q188.1 172.8 187.8 172.8 L187.2 172.8 Q186.6 172.95 186.6 173.6 189.2 176.4 189.2 174.2 189.2 173.7 188.6 173.2 M296.9 135.25 L296.95 135.25 297.1 135.55 296.9 135.25 M271.6 142.2 Q270.65 143.25 270.15 144.25 270.65 143.25 271.6 142.2 M297.2 180.2 Q297.2 181.75 301.0 181.75 304.8 181.75 304.8 180.5 304.8 179.6 304.2 178.4 303.5 177.0 302.7 177.0 300.9 177.0 299.0 178.2 297.2 179.35 297.2 180.2 M299.6 173.0 L299.4 171.6 297.4 171.8 297.4 173.0 Q297.95 173.2 298.2 173.6 298.6 173.2 299.6 173.0 M318.5 163.8 Q313.75 163.8 310.8 166.0 307.6 168.4 307.6 172.6 307.6 174.6 308.4 176.0 L317.2 175.5 Q324.6 173.85 324.6 167.7 324.6 163.8 318.5 163.8" fill="#adad27" fill-rule="evenodd" stroke="none"/>
    <path d="M188.6 173.2 Q189.2 173.7 189.2 174.2 189.2 176.4 186.6 173.6 186.6 172.95 187.2 172.8 L187.8 172.8 Q188.1 172.8 188.6 173.2 M178.6 178.7 Q178.6 174.6 182.0 174.6 183.9 174.6 185.0 177.0 185.8 178.7 185.8 180.1 185.8 182.7 184.45 183.55 L181.6 184.4 181.25 184.2 Q179.7 183.3 179.3 182.65 178.6 181.6 178.6 178.7 M189.2 180.7 Q189.2 179.15 190.4 179.6 L190.8 181.6 189.4 181.8 189.2 180.7 M318.5 163.8 Q324.6 163.8 324.6 167.7 324.6 173.85 317.2 175.5 L308.4 176.0 Q307.6 174.6 307.6 172.6 307.6 168.4 310.8 166.0 313.75 163.8 318.5 163.8 M299.6 173.0 Q298.6 173.2 298.2 173.6 297.95 173.2 297.4 173.0 L297.4 171.8 299.4 171.6 299.6 173.0 M297.2 180.2 Q297.2 179.35 299.0 178.2 300.9 177.0 302.7 177.0 303.5 177.0 304.2 178.4 304.8 179.6 304.8 180.5 304.8 181.75 301.0 181.75 297.2 181.75 297.2 180.2" fill="#d0cf2f" fill-rule="evenodd" stroke="none"/>
    <path d="M265.45 143.3 Q266.5 141.6 267.0 139.85 L267.05 139.95 269.0 142.75 269.65 143.95 269.85 144.65 269.85 145.0 270.15 144.25 Q270.65 143.35 271.75 142.35 L271.9 142.2 271.9 142.35 276.35 141.8 278.45 142.05 Q277.75 142.45 277.0 142.95 271.1 146.75 268.2 149.45 268.1 147.45 266.5 146.1 266.3 149.25 261.05 153.5 256.05 157.5 253.4 157.5 251.8 154.55 251.6 153.3 247.9 155.95 240.9 169.9 240.5 170.7 240.1 172.7 238.65 172.0 236.3 168.5 226.2 186.15 225.45 200.3 L222.8 200.3 222.65 200.3 222.4 199.25 222.05 197.65 221.8 196.5 221.75 195.6 221.8 196.5 221.45 194.0 Q221.0 190.35 221.0 185.3 L221.0 184.8 Q221.0 182.0 221.6 179.2 222.1 176.65 223.1 174.15 224.5 170.7 226.75 167.3 L229.15 164.05 Q232.1 160.35 234.85 158.85 L234.9 158.8 235.0 158.75 239.25 165.95 Q238.3 165.1 236.85 162.5 238.3 165.1 239.25 165.95 L239.35 166.1 240.6 163.2 243.05 157.2 243.75 155.9 243.9 155.45 244.15 155.25 Q246.65 150.8 249.6 148.15 251.3 146.65 253.1 145.8 L253.55 145.55 253.6 145.55 253.6 145.65 253.75 149.0 253.75 149.25 253.85 149.85 253.9 150.85 Q253.7 151.75 253.9 151.35 L253.9 151.25 253.9 151.35 Q255.55 151.35 257.6 150.3 258.1 150.05 258.65 149.75 L261.3 147.85 262.2 147.05 Q264.2 145.25 265.45 143.3 M287.35 134.4 L287.4 134.8 287.35 134.4 M221.75 195.6 L221.45 194.0 221.75 195.6 M229.15 164.05 L230.35 163.05 229.15 164.05 M242.05 159.7 Q241.65 161.75 240.6 163.2 241.65 161.75 242.05 159.7 L243.75 155.9 242.05 159.7 M266.1 142.6 L267.05 139.95 266.1 142.6 Q265.3 144.3 262.4 146.9 L262.2 147.05 262.4 146.9 Q265.3 144.3 266.1 142.6 M236.85 162.5 L234.9 158.8 236.85 162.5 M230.35 163.05 L234.85 158.85 230.35 163.05 M289.25 140.35 L289.2 140.2 289.3 140.3 289.25 140.35 M253.55 145.65 L253.1 145.8 253.55 145.65 253.55 145.55 253.55 145.65 253.6 145.65 253.55 145.65 253.75 149.0 253.55 145.65 M246.4 151.8 L244.15 155.25 246.4 151.8 249.6 148.15 246.4 151.8" fill="#766593" fill-rule="evenodd" stroke="none"/>
    <path d="M274.2 140.4 L274.55 140.2 274.85 140.0 278.05 138.1 279.15 137.5 279.4 137.4 Q280.65 136.75 281.8 136.25 284.9 134.8 287.1 134.45 L287.35 134.4 287.4 134.8 Q287.4 135.05 288.15 136.5 L289.05 138.15 289.1 138.15 290.7 136.55 292.6 133.6 292.7 133.35 292.75 133.35 293.05 133.45 296.1 133.35 297.05 133.3 297.05 133.35 296.8 133.35 296.1 133.35 Q295.65 135.25 289.2 140.2 L289.25 140.35 286.8 141.0 285.6 140.7 Q285.0 140.5 284.3 139.5 283.6 138.45 283.6 137.9 282.8 139.15 278.45 142.05 L289.3 143.9 289.75 144.0 Q286.85 146.35 281.95 149.0 274.15 153.2 271.0 153.2 269.55 153.2 268.8 150.4 261.7 162.0 252.4 169.85 245.35 175.8 243.0 175.8 L242.1 175.6 241.2 174.85 Q228.2 189.1 228.0 200.3 L225.45 200.3 Q226.2 186.15 236.3 168.5 238.65 172.0 240.1 172.7 240.5 170.7 240.9 169.9 247.9 155.95 251.6 153.3 251.8 154.55 253.4 157.5 256.05 157.5 261.05 153.5 266.3 149.25 266.5 146.1 268.1 147.45 268.2 149.45 271.1 146.75 277.0 142.95 277.75 142.45 278.45 142.05 L276.35 141.8 271.9 142.35 271.9 142.2 274.2 140.4 M292.6 133.6 L292.75 133.35 292.6 133.6 M287.1 134.45 Q287.65 136.4 289.0 138.2 L289.05 138.2 289.0 138.2 Q287.65 136.4 287.1 134.45 M289.05 138.2 L290.7 136.55 289.05 138.2" fill="#615377" fill-rule="evenodd" stroke="none"/>
    <path d="M297.05 133.35 L297.1 135.15 297.1 135.55 296.95 135.25 296.9 135.25 296.8 135.3 296.8 133.35 296.8 135.3 Q295.65 135.85 294.55 137.55 L292.6 141.0 289.75 144.0 293.15 144.3 292.85 144.7 292.15 145.65 Q287.5 151.35 278.65 159.1 L277.15 160.4 275.3 162.05 274.85 162.35 265.0 170.2 264.9 170.25 258.65 174.8 257.45 175.95 256.4 176.75 254.05 178.6 247.7 182.95 241.05 187.35 240.05 188.05 Q235.65 191.3 233.55 195.0 232.1 197.5 231.8 200.25 L231.6 200.25 228.0 200.3 Q228.2 189.1 241.2 174.85 L242.1 175.6 243.0 175.8 Q245.35 175.8 252.4 169.85 261.7 162.0 268.8 150.4 269.55 153.2 271.0 153.2 274.15 153.2 281.95 149.0 286.85 146.35 289.75 144.0 L289.3 143.9 278.45 142.05 Q282.8 139.15 283.6 137.9 283.6 138.45 284.3 139.5 285.0 140.5 285.6 140.7 L286.8 141.0 289.25 140.35 289.3 140.3 289.2 140.2 Q295.65 135.25 296.1 133.35 L296.8 133.35 297.05 133.35 M233.55 195.0 L233.1 195.5 233.55 195.0 M246.7 183.0 Q245.4 183.75 241.05 187.35 245.4 183.75 246.7 183.0 L254.05 178.6 246.7 183.0 M286.4 151.5 Q288.1 150.25 292.15 145.65 288.1 150.25 286.4 151.5 L279.6 158.2 277.15 160.4 279.6 158.2 286.4 151.5 M266.6 168.8 L265.0 170.2 266.6 168.8 271.55 164.8 272.05 164.35 Q272.9 163.6 274.85 162.35 272.9 163.6 272.05 164.35 L271.55 164.8 266.6 168.8 M233.1 195.5 Q232.05 196.65 231.6 200.25 232.05 196.65 233.1 195.5" fill="#5a4e6d" fill-rule="evenodd" stroke="none"/>
    <path d="M297.1 135.55 Q297.1 138.6 294.05 143.05 L294.2 142.3 296.0 139.2 Q296.85 137.5 296.8 136.3 296.85 137.5 296.0 139.2 L294.2 142.3 294.05 143.05 293.15 144.3 289.75 144.0 292.6 141.0 294.55 137.55 Q295.65 135.85 296.8 135.3 L296.9 135.25 297.1 135.55 M296.8 136.3 L296.8 135.3 296.8 136.3" fill="#4d4862" fill-rule="evenodd" stroke="none"/>
    <path d="M367.4 148.0 Q374.75 135.95 375.35 128.55 375.9 121.15 369.45 122.1 L369.0 122.2 Q361.55 123.35 360.65 127.3 360.05 129.9 362.75 136.1 329.95 133.05 297.05 132.75 L296.65 132.75 292.7 132.75 287.35 132.75 233.1 134.8 227.4 140.95 Q216.3 151.75 200.5 159.7 201.8 160.35 201.8 161.3 201.8 162.25 200.45 162.9 199.1 163.6 197.2 163.6 195.3 163.6 193.95 162.9 L193.8 162.85 Q171.6 172.5 141.2 177.1 L139.95 177.25 139.45 177.35 138.2 177.5 Q141.35 193.2 162.0 198.5 L166.75 199.55 Q172.0 198.15 178.85 198.15 187.05 198.15 192.85 200.1 194.9 200.8 196.3 201.65 L210.05 201.4 211.9 201.35 M222.95 200.85 L225.4 200.75 225.45 200.75 227.95 200.6 228.0 200.6 228.95 200.55 231.75 200.45 231.8 200.45 238.6 200.1 267.7 199.15 Q301.2 198.85 320.5 204.7 L325.0 199.3 325.15 199.15 M325.3 198.95 L344.4 175.85 344.45 175.75 344.4 175.75 344.1 175.6 Q342.15 174.7 342.15 173.35 342.15 172.0 344.1 171.05 346.1 170.15 348.9 170.15 L349.1 170.15 367.4 148.0 M356.85 123.65 L358.3 123.5 369.0 122.2 M356.7 123.7 Q333.55 126.25 310.65 127.05 L308.0 127.15 306.35 127.2 Q272.35 128.15 238.8 125.3 L238.2 125.25 221.9 123.6 213.55 123.25 Q210.0 123.9 208.55 125.7 205.15 130.1 215.25 135.25 L233.1 134.8 M212.0 201.35 L213.75 201.25 222.8 200.85 222.95 200.85" fill="none" stroke="#41310c" stroke-linecap="round" stroke-linejoin="round" stroke-width="1.0"/>
    <path d="M325.15 199.15 L325.3 198.95 329.45 198.7 M358.3 123.5 L359.75 121.1 M356.2 123.15 L355.95 121.1 M356.85 123.65 L360.0 116.8 M356.7 123.7 L356.85 123.65 M325.0 199.3 L327.2 199.45 M238.2 125.25 L236.35 119.55 M238.8 125.3 L239.3 122.85 M211.9 201.35 L212.0 201.35 212.45 203.3 M306.35 127.2 L304.95 125.4 M308.0 127.15 L308.0 125.7 M309.9 125.7 L310.6 126.9 311.15 125.05 M310.65 127.05 L310.6 126.9 M139.95 177.25 L136.1 171.5 M141.2 177.1 L139.65 175.05 M139.45 177.35 L137.1 174.55 M228.95 200.55 L228.2 202.0 M227.95 200.6 L225.4 204.3 M225.9 201.25 L219.55 203.0" ffdec:has-small-stroke="true" ffdec:original-stroke-width="0.5" fill="none" stroke="#41310c" stroke-linecap="round" stroke-linejoin="round" stroke-width="1.0"/>
    <path d="M269.1 142.55 L269.2 142.75 M274.55 140.2 L274.85 140.0 M279.4 137.4 Q280.65 136.75 281.8 136.25 M283.55 135.35 L287.0 134.2 287.1 134.45 Q287.65 136.4 289.0 138.2 L289.05 138.2 M293.1 144.5 L292.95 144.7 M275.3 162.05 L274.85 162.35 Q272.9 163.6 272.05 164.35 L271.55 164.8 266.6 168.8 M264.9 170.25 L258.65 174.8 257.45 175.95 M236.7 191.0 L233.55 195.0 233.1 195.5 M225.7 168.55 Q227.15 165.85 229.15 164.05 L230.35 163.05 M240.1 163.85 L240.6 163.2 M243.9 155.45 L244.15 155.25 M251.0 146.95 Q252.2 146.05 253.1 145.8 M253.75 149.25 L253.85 149.85 253.9 150.85 M221.75 195.6 L221.8 196.5 M236.85 162.5 Q238.3 165.1 239.25 165.95 M242.05 159.7 L243.75 155.9 M266.1 142.6 Q265.3 144.3 262.4 146.9 L262.2 147.05 M220.95 184.25 Q220.95 179.55 221.85 176.95 L222.75 174.6 M246.7 183.0 L254.05 178.6 M296.8 136.3 Q296.85 137.5 296.0 139.2 L294.2 142.3 294.05 143.05 M286.4 151.5 L279.6 158.2 277.15 160.4 M246.4 151.8 L249.6 148.15" ffdec:has-small-stroke="true" ffdec:original-stroke-width="0.1" fill="none" stroke="#2f2f2f" stroke-linecap="round" stroke-linejoin="round" stroke-width="1.0"/>
    <path d="M267.0 139.85 L267.05 139.95 M222.75 174.6 Q224.05 171.3 225.7 168.55 M253.9 151.25 Q254.95 151.3 257.6 150.3 M221.45 194.0 L221.75 195.6 M269.85 144.65 L269.65 143.95 M234.85 158.85 L230.35 163.05 M221.0 185.3 L220.95 184.25" ffdec:has-small-stroke="true" ffdec:original-stroke-width="0.1" fill="none" stroke="#2f2f2f" stroke-linecap="round" stroke-linejoin="round" stroke-width="1.0"/>
    <path d="M267.05 139.95 L269.1 142.55 M271.6 142.2 Q272.25 141.5 274.2 140.4 L274.55 140.2 M274.85 140.0 Q276.65 138.65 279.15 137.5 L279.4 137.4 M281.8 136.25 L283.55 135.35 M290.7 136.55 L292.6 133.6 292.75 133.35 M294.05 143.05 L293.1 144.5 M292.95 144.7 L292.15 145.65 Q288.1 150.25 286.4 151.5 M277.15 160.4 L275.3 162.05 M265.0 170.2 L264.9 170.25 M257.45 175.95 L254.05 178.6 M241.05 187.35 L236.7 191.0 M222.8 200.55 L222.95 200.85 M239.25 165.95 Q239.3 165.55 240.1 163.85 M243.75 155.9 L243.9 155.45 M249.6 148.15 Q250.3 147.4 251.0 146.95 M257.6 150.3 Q258.1 150.05 258.65 149.75 L262.2 147.05 M221.0 185.3 Q221.0 190.35 221.45 194.0 M240.6 163.2 Q241.65 161.75 242.05 159.7 M267.05 139.95 L266.1 142.6 M234.9 158.8 L236.85 162.5 M241.05 187.35 Q245.4 183.75 246.7 183.0 M296.8 133.35 L296.8 135.3 296.8 136.3 M290.7 136.55 L289.05 138.2 M253.1 145.8 L253.55 145.65 253.55 145.55 M253.55 145.65 L253.6 145.65 M269.2 142.75 L269.65 143.95 M270.15 144.25 Q270.65 143.25 271.6 142.2 M265.0 170.2 L266.6 168.8 M244.15 155.25 L246.4 151.8 M253.55 145.65 L253.75 149.0 M222.8 200.55 Q222.05 199.5 221.8 196.5 M231.6 200.25 Q232.05 196.65 233.1 195.5" ffdec:has-small-stroke="true" ffdec:original-stroke-width="0.1" fill="none" stroke="#2f2f2f" stroke-linecap="round" stroke-linejoin="round" stroke-width="1.0"/>
    <path d="M253.75 149.0 L253.75 149.25 M270.15 144.25 L269.85 145.0" ffdec:has-small-stroke="true" ffdec:original-stroke-width="0.1" fill="none" stroke="#2f2f2f" stroke-linecap="round" stroke-linejoin="round" stroke-width="1.0"/>
  </g>
</svg>
