<?xml version="1.0" encoding="UTF-8" standalone="no"?>
<svg xmlns:ffdec="https://www.free-decompiler.com/flash" xmlns:xlink="http://www.w3.org/1999/xlink" ffdec:objectType="shape" height="79.85px" width="83.55px" xmlns="http://www.w3.org/2000/svg">
  <g transform="matrix(1.0, 0.0, 0.0, 1.0, -233.7, -160.05)">
    <path d="M236.7 161.75 Q236.1 180.25 242.1 185.5 243.2 191.45 240.95 200.75 241.05 204.2 243.95 214.15 247.75 223.1 254.75 228.35 266.7 228.45 271.3 235.65 273.6 234.35 285.5 230.9 296.75 227.65 298.5 226.3 L299.9 227.3 Q297.95 228.65 285.15 233.35 272.1 238.15 269.85 239.65 267.85 231.35 252.8 231.5 233.85 214.5 240.55 193.8 241.5 189.4 240.9 187.05 231.5 179.35 234.85 160.8 237.2 159.4 236.7 161.75 M299.55 220.25 Q300.5 217.1 308.45 218.45 311.4 216.75 314.45 215.2 317.15 214.6 317.0 216.15 L308.55 220.85 Q304.85 218.45 299.55 220.25 M244.35 197.85 L245.05 197.5 245.1 197.5 Q245.95 197.5 245.95 198.8 L245.8 199.4 Q245.8 198.55 245.35 198.25 245.2 198.1 245.05 198.05 L244.45 197.95 244.35 197.85 M285.85 209.95 Q286.95 208.7 288.75 208.7 291.55 208.7 291.7 210.25 L291.7 210.45 291.65 211.0 287.6 211.3 Q285.45 212.1 285.45 213.35 L285.7 214.1 285.4 213.9 284.9 213.25 Q284.7 212.4 284.8 211.7 285.0 210.9 285.65 210.15 L285.85 209.95 M251.75 201.95 L251.75 202.85 Q251.6 204.35 250.4 204.35 L249.9 204.25 Q250.4 203.6 250.4 202.4 250.4 200.25 248.25 200.25 L247.7 200.3 Q248.05 200.05 248.4 199.95 L249.0 199.8 Q251.5 199.8 251.75 201.95" fill="#9c8f68" fill-rule="evenodd" stroke="none"/>
    <path d="M298.5 226.3 Q296.75 227.65 285.5 230.9 273.6 234.35 271.3 235.65 266.7 228.45 254.75 228.35 247.75 223.1 243.95 214.15 241.05 204.2 240.95 200.75 243.2 191.45 242.1 185.5 236.1 180.25 236.7 161.75 238.25 164.25 246.1 166.75 252.05 168.4 251.65 170.2 251.35 171.3 252.85 172.25 254.4 173.05 256.65 173.05 259.4 172.3 260.4 170.5 260.0 175.9 268.55 176.85 L269.25 176.75 Q271.85 175.95 271.3 173.55 L270.8 172.25 Q274.85 173.1 278.6 174.6 279.4 182.0 283.25 190.65 279.15 208.95 314.45 215.2 311.4 216.75 308.45 218.45 300.5 217.1 299.55 220.25 294.6 222.8 298.5 226.3 M245.05 197.5 L244.35 197.85 244.1 198.05 243.95 198.2 243.85 198.3 243.65 198.65 Q243.45 199.3 244.05 199.9 244.7 200.45 245.3 200.25 246.05 199.95 246.05 198.7 246.05 197.95 245.5 197.35 L245.05 197.5 M291.7 210.25 Q291.55 208.7 288.75 208.7 286.95 208.7 285.85 209.95 285.2 210.4 284.95 211.1 L284.8 211.7 Q284.7 212.4 284.9 213.25 L285.4 213.9 285.7 214.1 Q286.7 214.75 288.6 214.75 291.95 214.2 291.95 211.6 L291.7 210.25 M285.4 213.9 Q284.7 213.5 284.7 212.5 L284.8 211.7 284.7 212.5 Q284.7 213.5 285.4 213.9 M251.75 201.95 Q251.55 199.7 249.45 199.7 L248.4 199.95 247.3 200.45 Q247.05 200.6 247.0 201.0 247.05 200.6 247.3 200.45 L248.4 199.95 Q248.05 200.05 247.7 200.3 L247.25 200.7 247.0 201.0 Q246.25 201.9 246.25 203.0 246.25 204.2 246.45 204.6 L248.7 204.6 251.15 204.4 Q251.7 204.1 251.75 202.85 L251.75 201.95 M247.3 200.45 L247.7 200.3 247.3 200.45" fill="#fff3cc" fill-rule="evenodd" stroke="none"/>
    <path d="M298.5 226.3 Q294.6 222.8 299.55 220.25 304.85 218.45 308.55 220.85 L317.0 216.15 Q317.15 214.6 314.45 215.2 279.15 208.95 283.25 190.65 279.4 182.0 278.6 174.6 274.85 173.1 270.8 172.25 L271.3 173.55 Q271.85 175.95 269.25 176.75 L268.55 176.85 Q260.0 175.9 260.4 170.5 259.4 172.3 256.65 173.05 254.4 173.05 252.85 172.25 251.35 171.3 251.65 170.2 252.05 168.4 246.1 166.75 238.25 164.25 236.7 161.75 237.2 159.4 234.85 160.8 231.5 179.35 240.9 187.05 241.5 189.4 240.55 193.8 233.85 214.5 252.8 231.5 267.85 231.35 269.85 239.65 272.1 238.15 285.15 233.35 297.95 228.65 299.9 227.3 L298.5 226.3" ffdec:has-small-stroke="true" ffdec:original-stroke-width="0.5" fill="none" stroke="#574133" stroke-linecap="round" stroke-linejoin="round" stroke-opacity="0.6" stroke-width="1.0"/>
    <path d="M244.35 197.85 L245.05 197.5 245.1 197.5 Q245.95 197.5 245.95 198.8 L245.8 199.4 Q245.8 198.55 245.35 198.25 245.2 198.1 245.05 198.05 L244.45 197.95 244.1 198.1 244.1 198.05 244.35 197.85 M243.85 198.3 L243.95 198.2 Q244.0 198.1 244.1 198.1 M291.7 210.25 Q291.55 208.7 288.75 208.7 286.95 208.7 285.85 209.95 L285.65 210.15 Q285.0 210.9 284.8 211.7 284.7 212.4 284.9 213.25 L285.4 213.9 285.7 214.1 285.45 213.35 Q285.45 212.1 287.6 211.3 L291.65 211.0 291.7 210.45 291.7 210.25 M284.8 211.7 L284.7 212.5 Q284.7 213.5 285.4 213.9 M251.75 201.95 L251.75 202.85 Q251.6 204.35 250.4 204.35 L249.9 204.25 Q250.4 203.6 250.4 202.4 250.4 200.25 248.25 200.25 L247.7 200.3 247.3 200.45 248.4 199.95 249.0 199.8 Q251.5 199.8 251.75 201.95 M247.0 201.0 Q247.05 200.6 247.3 200.45" ffdec:has-small-stroke="true" ffdec:original-stroke-width="0.5" fill="none" stroke="#9c8f68" stroke-linecap="round" stroke-linejoin="round" stroke-width="1.0"/>
  </g>
</svg>
