<?xml version="1.0" encoding="UTF-8" standalone="no"?>
<svg xmlns:ffdec="https://www.free-decompiler.com/flash" xmlns:xlink="http://www.w3.org/1999/xlink" ffdec:objectType="shape" height="106.85px" width="103.65px" xmlns="http://www.w3.org/2000/svg">
  <g transform="matrix(1.0, 0.0, 0.0, 1.0, -218.15, -144.9)">
    <path d="M228.6 211.0 L228.65 211.0 Q231.0 211.0 232.65 206.85 234.3 202.7 234.3 196.85 L234.25 194.9 Q238.45 178.95 237.65 162.4 L239.2 161.55 Q240.3 160.6 240.3 159.25 240.3 157.9 239.2 156.95 238.3 156.15 237.1 156.05 L235.75 146.95 243.15 152.45 243.65 145.25 Q248.35 151.65 255.4 155.75 261.35 159.2 268.95 160.95 262.25 166.0 271.65 169.65 273.8 170.35 288.2 171.65 L286.95 172.2 Q286.0 172.7 285.6 173.45 283.25 176.25 279.25 185.05 274.0 196.65 274.0 200.35 274.0 202.2 274.25 202.5 L276.0 202.75 Q282.55 202.75 297.5 195.75 303.2 193.0 316.2 185.85 311.45 203.15 320.95 220.05 L321.45 220.75 316.8 228.55 316.6 228.55 Q313.5 229.2 313.5 230.1 313.5 230.75 315.15 231.25 L311.0 238.2 310.75 237.6 Q310.05 236.2 309.0 236.2 307.95 236.2 307.2 237.6 306.5 239.05 306.5 241.1 306.5 243.15 307.2 244.55 L305.75 247.0 Q297.25 243.15 287.15 250.2 283.8 237.85 270.2 231.4 264.5 229.1 259.05 228.85 258.85 228.85 257.5 229.55 L257.45 229.6 Q255.0 226.05 254.65 216.15 254.7 203.85 254.4 198.3 L254.4 198.45 Q253.2 200.5 250.05 209.15 247.65 215.8 247.6 220.1 231.7 214.0 219.6 227.85 224.85 219.5 228.6 211.0 M248.95 160.7 L248.75 160.5 Q248.35 159.95 248.25 160.75 L248.3 161.1 Q249.05 162.75 248.95 160.7 M245.15 157.55 L244.35 157.55 244.35 158.0 245.15 157.55 M254.35 160.85 L254.15 160.6 Q253.8 160.15 253.75 161.0 L253.8 161.15 Q254.5 162.7 254.35 160.85 M249.3 159.2 Q249.95 160.75 249.9 159.2 L249.3 159.2 M251.65 160.75 L251.6 160.75 Q250.7 159.8 251.3 161.9 L251.4 162.05 Q252.15 162.2 251.65 160.75 M252.95 159.2 L252.5 159.2 252.45 159.4 252.5 159.7 252.95 160.45 253.05 159.4 252.95 159.2 M252.0 163.35 L252.05 164.55 252.2 164.65 Q252.75 164.8 252.7 163.95 L252.65 163.5 Q252.15 162.95 252.0 163.35 M250.75 165.85 L250.95 166.95 251.45 167.95 251.3 168.55 251.25 169.05 Q251.15 169.5 251.35 170.15 L252.15 170.9 252.55 170.3 Q252.65 169.25 252.35 168.4 L252.5 167.45 252.15 166.85 251.95 165.35 251.4 164.85 Q250.9 164.65 250.75 165.85 M250.65 169.7 L250.7 168.95 250.65 168.55 250.45 167.9 250.45 167.95 249.95 167.35 249.55 167.25 Q249.25 167.45 249.2 168.25 249.05 170.05 249.95 170.75 L250.35 170.6 250.5 170.3 250.65 169.7 M252.45 172.4 Q252.85 173.25 253.35 173.35 L253.55 173.35 Q254.45 173.0 254.1 170.5 L254.05 170.4 253.75 169.25 253.3 169.2 253.2 169.65 253.35 170.45 Q253.0 170.4 252.75 170.9 252.35 171.35 252.45 172.4 M255.15 163.95 L255.1 163.85 Q254.7 163.35 254.6 164.15 L254.7 164.4 Q255.35 165.95 255.15 163.95 M256.5 163.85 L256.5 163.8 Q255.75 162.95 256.25 164.85 L256.35 165.1 Q257.0 165.15 256.5 163.85 M254.8 165.4 Q254.3 164.85 254.3 165.4 L254.4 166.3 254.0 165.7 Q253.8 165.4 253.6 165.7 L253.6 165.75 Q253.35 165.9 253.3 166.45 253.2 168.0 254.0 168.7 L254.4 168.65 254.45 168.55 254.55 168.4 254.6 167.7 254.65 167.65 254.7 167.25 254.55 166.85 254.6 166.75 254.6 166.7 254.9 166.65 255.0 166.05 254.85 165.45 254.8 165.4 M256.0 170.0 L256.0 168.95 255.85 168.7 Q255.55 168.35 255.5 169.05 L255.5 169.3 256.0 170.0 M257.25 168.1 L257.5 168.35 257.5 167.25 257.4 167.05 Q257.05 166.6 256.95 167.35 L257.05 167.65 257.25 168.1 M255.5 166.5 L255.5 166.75 Q256.05 167.95 256.1 167.05 L256.05 166.3 255.9 166.15 Q255.6 165.75 255.5 166.5 M256.0 170.15 L255.85 170.4 Q255.65 170.75 255.75 171.75 255.8 172.5 256.2 173.35 L256.85 174.3 Q257.15 174.4 257.4 174.1 L257.45 172.75 257.05 171.05 Q256.7 170.15 256.35 170.15 256.15 169.9 256.0 170.15 M257.1 170.0 L257.1 170.15 257.85 171.7 257.95 172.15 Q258.2 173.25 258.65 173.8 L258.85 171.5 258.35 171.05 258.0 169.2 Q257.45 168.95 257.1 170.0 M256.6 175.55 L256.6 175.85 256.95 176.5 Q257.2 176.7 257.15 175.7 L257.1 175.3 256.95 175.2 Q256.65 174.75 256.6 175.55 M255.7 173.7 L255.7 173.8 Q254.9 173.15 255.3 174.75 L255.15 175.2 254.9 174.3 254.9 174.25 Q254.8 174.05 254.6 174.1 L254.4 174.1 254.35 174.0 Q253.45 173.2 254.0 175.3 L254.1 175.4 254.4 175.35 254.8 176.1 255.1 175.95 Q255.15 176.85 255.45 177.4 L255.85 177.8 256.2 177.7 256.3 177.45 256.45 176.75 256.45 176.15 256.4 175.7 256.25 175.0 255.95 174.7 255.7 173.7 M259.45 174.0 L259.35 173.8 Q259.05 173.3 259.0 174.2 L259.05 174.45 Q259.65 176.0 259.45 174.0 M254.05 169.45 L254.15 169.9 254.25 170.3 254.85 171.05 254.95 171.05 Q255.3 170.5 254.95 169.5 L254.9 169.5 254.35 168.95 Q254.25 168.85 254.2 169.05 L254.1 169.25 254.05 169.45 M300.95 227.1 L300.05 227.2 299.65 227.5 Q299.3 227.8 299.3 228.1 L299.25 228.85 299.35 229.3 299.75 229.95 299.75 229.9 Q300.25 230.2 300.9 230.5 L301.85 230.6 Q302.45 230.35 302.6 229.6 302.95 227.75 300.95 227.1 M284.45 222.1 L284.5 222.5 284.8 222.65 Q285.55 223.05 285.7 222.3 L285.65 222.0 284.8 221.35 Q284.25 221.1 284.45 222.1 M286.0 221.1 L286.0 221.7 286.15 222.1 286.5 222.8 287.2 223.1 Q287.2 223.5 287.7 224.1 L287.75 224.0 Q289.55 224.65 288.65 223.05 L289.0 222.65 Q289.05 223.2 289.55 223.55 L289.6 223.6 290.2 223.7 290.75 223.7 290.85 223.85 Q292.85 224.6 291.65 222.5 L291.4 222.4 290.75 222.45 289.85 221.75 289.15 221.85 Q289.0 220.95 288.35 220.45 287.95 220.15 287.4 220.05 L286.65 220.15 286.4 220.4 Q286.05 220.75 286.0 221.1 M295.0 227.5 Q294.7 228.55 295.45 229.4 L295.05 230.35 295.9 230.95 296.4 232.5 Q296.95 232.95 297.55 232.95 298.75 233.15 299.1 231.95 L298.7 230.9 297.5 229.9 297.8 229.3 297.95 228.75 Q298.1 228.3 297.75 227.7 L295.9 226.9 Q295.3 227.1 295.0 227.5 M295.2 225.45 Q294.2 224.55 293.1 224.5 L292.65 224.5 Q290.6 224.8 291.45 227.35 L291.55 227.45 292.2 228.6 293.3 228.65 293.45 228.15 293.1 227.4 294.5 226.9 Q295.35 226.45 295.2 225.45 M294.6 233.85 L294.7 234.35 294.8 234.35 296.2 234.45 Q296.35 234.15 296.1 233.25 L295.8 233.15 Q294.5 233.0 294.6 233.85 M289.65 226.8 L289.5 226.8 Q288.65 227.3 289.5 228.35 L289.55 228.35 Q290.1 228.8 290.8 228.85 L291.15 228.75 291.4 228.6 291.55 228.4 291.35 227.9 291.05 227.5 Q290.5 226.95 289.65 226.8 M283.65 225.05 Q283.9 226.0 284.6 226.8 285.4 227.65 286.25 227.7 286.65 227.9 287.05 227.7 L287.4 227.45 Q287.85 227.05 287.65 226.1 287.45 225.3 286.65 224.5 285.9 223.75 285.05 223.55 L283.85 223.7 Q283.45 224.35 283.65 225.05 M284.5 227.7 L282.8 226.15 282.55 225.65 Q281.95 224.55 280.95 224.0 L280.55 226.3 281.65 226.8 282.45 228.65 Q283.7 228.85 284.5 227.8 L284.5 227.7 M295.05 238.15 L294.05 237.35 Q293.65 237.35 293.85 238.45 L294.0 238.6 295.15 238.6 295.2 238.45 295.05 238.15 M297.1 237.05 L297.15 237.05 Q299.15 238.0 297.85 235.95 L297.65 235.75 Q295.9 235.6 297.1 237.05 M301.0 238.6 L302.4 238.6 Q300.85 237.05 301.0 238.6 M303.25 237.15 L303.65 237.3 Q304.55 237.85 304.85 237.05 L304.75 236.7 Q302.9 235.05 303.25 237.15 M292.1 236.65 Q290.45 235.1 290.85 236.95 L291.25 237.25 Q292.05 237.65 292.2 236.85 L292.1 236.65 M288.95 233.85 L289.15 234.0 Q290.0 234.45 290.2 233.7 L290.05 233.45 Q288.45 231.85 288.95 233.85 M293.25 231.35 Q293.45 229.8 291.65 229.1 L290.75 229.15 290.6 229.3 290.4 229.4 Q290.15 229.8 290.2 230.1 L290.15 230.2 290.1 230.6 290.4 230.95 290.3 231.05 290.2 231.15 289.6 231.2 Q289.15 231.3 289.3 231.8 L289.75 232.4 289.8 232.45 Q290.95 232.95 291.0 232.45 L290.75 231.55 291.65 232.15 Q292.1 232.4 292.5 232.15 L292.6 232.1 293.25 231.35 M285.85 234.0 L285.85 234.05 Q287.65 234.85 286.5 232.95 L286.25 232.75 Q284.75 232.65 285.85 234.0 M284.7 230.2 L284.15 229.7 283.6 229.45 Q283.3 229.55 283.55 230.6 L283.85 230.75 Q284.55 231.2 284.8 230.5 L284.7 230.2 M286.95 231.55 L287.3 231.65 Q287.95 232.05 288.25 231.3 L288.15 231.05 Q286.85 229.85 286.8 230.75 L286.95 231.55 M287.05 227.8 Q286.75 228.0 287.05 228.85 L287.35 229.1 Q288.05 229.45 288.25 228.75 L288.25 228.5 Q287.35 227.75 287.05 227.8 M279.35 224.0 Q280.05 224.5 280.15 223.65 L280.05 223.35 Q278.55 221.8 279.1 223.85 L279.35 224.0" fill="#555555" fill-rule="evenodd" stroke="none"/>
    <path d="M254.35 160.85 Q254.5 162.7 253.8 161.15 L253.75 161.0 Q253.8 160.15 254.15 160.6 L254.35 160.85 M245.15 157.55 L244.35 158.0 244.35 157.55 245.15 157.55 M248.95 160.7 Q249.05 162.75 248.3 161.1 L248.25 160.75 Q248.35 159.95 248.75 160.5 L248.95 160.7 M249.3 159.2 L249.9 159.2 Q249.95 160.75 249.3 159.2 M251.65 160.75 Q252.15 162.2 251.4 162.05 L251.3 161.9 Q250.7 159.8 251.6 160.75 L251.65 160.75 M250.75 165.85 Q250.9 164.65 251.4 164.85 L251.95 165.35 252.15 166.85 252.5 167.45 252.35 168.4 Q252.65 169.25 252.55 170.3 L252.15 170.9 251.35 170.15 Q251.15 169.5 251.25 169.05 L251.3 168.55 251.45 167.95 250.95 166.95 250.75 165.85 M252.0 163.35 Q252.15 162.95 252.65 163.5 L252.7 163.95 Q252.75 164.8 252.2 164.65 L252.05 164.55 252.0 163.35 M252.95 159.2 L253.05 159.4 252.95 160.45 252.5 159.7 252.45 159.4 252.5 159.2 252.95 159.2 M250.65 169.7 L250.5 170.3 250.35 170.6 249.95 170.75 Q249.05 170.05 249.2 168.25 249.25 167.45 249.55 167.25 L249.95 167.35 250.45 167.95 250.45 167.9 250.65 168.55 250.7 168.95 250.65 169.7 M252.45 172.4 Q252.35 171.35 252.75 170.9 253.0 170.4 253.35 170.45 L253.2 169.65 253.3 169.2 253.75 169.25 254.05 170.4 254.1 170.5 Q254.45 173.0 253.55 173.35 L253.35 173.35 Q252.85 173.25 252.45 172.4 M256.5 163.85 Q257.0 165.15 256.35 165.1 L256.25 164.85 Q255.75 162.95 256.5 163.8 L256.5 163.85 M255.15 163.95 Q255.35 165.95 254.7 164.4 L254.6 164.15 Q254.7 163.35 255.1 163.85 L255.15 163.95 M254.8 165.4 L254.85 165.45 255.0 166.05 254.9 166.65 254.6 166.7 254.6 166.75 254.55 166.85 254.7 167.25 254.65 167.65 254.6 167.7 254.55 168.4 254.45 168.55 254.4 168.65 254.0 168.7 Q253.2 168.0 253.3 166.45 253.35 165.9 253.6 165.75 L253.6 165.7 Q253.8 165.4 254.0 165.7 L254.4 166.3 254.3 165.4 Q254.3 164.85 254.8 165.4 M255.5 166.5 Q255.6 165.75 255.9 166.15 L256.05 166.3 256.1 167.05 Q256.05 167.95 255.5 166.75 L255.5 166.5 M257.25 168.1 L257.05 167.65 256.95 167.35 Q257.05 166.6 257.4 167.05 L257.5 167.25 257.5 168.35 257.25 168.1 M256.0 170.0 L255.5 169.3 255.5 169.05 Q255.55 168.35 255.85 168.7 L256.0 168.95 256.0 170.0 M257.1 170.0 Q257.45 168.95 258.0 169.2 L258.35 171.05 258.85 171.5 258.65 173.8 Q258.2 173.25 257.95 172.15 L257.85 171.7 257.1 170.15 257.1 170.0 M256.0 170.15 Q256.15 169.9 256.35 170.15 256.7 170.15 257.05 171.05 L257.45 172.75 257.4 174.1 Q257.15 174.4 256.85 174.3 L256.2 173.35 Q255.8 172.5 255.75 171.75 255.65 170.75 255.85 170.4 L256.0 170.15 M254.05 169.45 L254.1 169.25 254.2 169.05 Q254.25 168.85 254.35 168.95 L254.9 169.5 254.95 169.5 Q255.3 170.5 254.95 171.05 L254.85 171.05 254.25 170.3 254.15 169.9 254.05 169.45 M259.45 174.0 Q259.65 176.0 259.05 174.45 L259.0 174.2 Q259.05 173.3 259.35 173.8 L259.45 174.0 M255.7 173.7 L255.95 174.7 256.25 175.0 256.4 175.7 256.45 176.15 256.45 176.75 256.3 177.45 256.2 177.7 255.85 177.8 255.45 177.4 Q255.15 176.85 255.1 175.95 L254.8 176.1 254.4 175.35 254.1 175.4 254.0 175.3 Q253.45 173.2 254.35 174.0 L254.4 174.1 254.6 174.1 Q254.8 174.05 254.9 174.25 L254.9 174.3 255.15 175.2 255.3 174.75 Q254.9 173.15 255.7 173.8 L255.7 173.7 M256.6 175.55 Q256.65 174.75 256.95 175.2 L257.1 175.3 257.15 175.7 Q257.2 176.7 256.95 176.5 L256.6 175.85 256.6 175.55 M286.0 221.1 Q286.05 220.75 286.4 220.4 L286.65 220.15 287.4 220.05 Q287.95 220.15 288.35 220.45 289.0 220.95 289.15 221.85 L289.85 221.75 290.75 222.45 291.4 222.4 291.65 222.5 Q292.85 224.6 290.85 223.85 L290.75 223.7 290.2 223.7 289.6 223.6 289.55 223.55 Q289.05 223.2 289.0 222.65 L288.65 223.05 Q289.55 224.65 287.75 224.0 L287.7 224.1 Q287.2 223.5 287.2 223.1 L286.5 222.8 286.15 222.1 286.0 221.7 286.0 221.1 M284.45 222.1 Q284.25 221.1 284.8 221.35 L285.65 222.0 285.7 222.3 Q285.55 223.05 284.8 222.65 L284.5 222.5 284.45 222.1 M300.95 227.1 Q302.95 227.75 302.6 229.6 302.45 230.35 301.85 230.6 L300.9 230.5 Q300.25 230.2 299.75 229.9 L299.75 229.95 299.35 229.3 299.25 228.85 299.3 228.1 Q299.3 227.8 299.65 227.5 L300.05 227.2 300.95 227.1 M294.6 233.85 Q294.5 233.0 295.8 233.15 L296.1 233.25 Q296.35 234.15 296.2 234.45 L294.8 234.35 294.7 234.35 294.6 233.85 M295.2 225.45 Q295.35 226.45 294.5 226.9 L293.1 227.4 293.45 228.15 293.3 228.65 292.2 228.6 291.55 227.45 291.45 227.35 Q290.6 224.8 292.65 224.5 L293.1 224.5 Q294.2 224.55 295.2 225.45 M295.0 227.5 Q295.3 227.1 295.9 226.9 L297.75 227.7 Q298.1 228.3 297.95 228.75 L297.8 229.3 297.5 229.9 298.7 230.9 299.1 231.95 Q298.75 233.15 297.55 232.95 296.95 232.95 296.4 232.5 L295.9 230.95 295.05 230.35 295.45 229.4 Q294.7 228.55 295.0 227.5 M289.65 226.8 Q290.5 226.95 291.05 227.5 L291.35 227.9 291.55 228.4 291.4 228.6 291.15 228.75 290.8 228.85 Q290.1 228.8 289.55 228.35 L289.5 228.35 Q288.65 227.3 289.5 226.8 L289.65 226.8 M284.5 227.7 L284.5 227.8 Q283.7 228.85 282.45 228.65 L281.65 226.8 280.55 226.3 280.95 224.0 Q281.95 224.55 282.55 225.65 L282.8 226.15 284.5 227.7 M283.65 225.05 Q283.45 224.35 283.85 223.7 L285.05 223.55 Q285.9 223.75 286.65 224.5 287.45 225.3 287.65 226.1 287.85 227.05 287.4 227.45 L287.05 227.7 Q286.65 227.9 286.25 227.7 285.4 227.65 284.6 226.8 283.9 226.0 283.65 225.05 M287.05 227.8 Q287.35 227.75 288.25 228.5 L288.25 228.75 Q288.05 229.45 287.35 229.1 L287.05 228.85 Q286.75 228.0 287.05 227.8 M286.95 231.55 L286.8 230.75 Q286.85 229.85 288.15 231.05 L288.25 231.3 Q287.95 232.05 287.3 231.65 L286.95 231.55 M284.7 230.2 L284.8 230.5 Q284.55 231.2 283.85 230.75 L283.55 230.6 Q283.3 229.55 283.6 229.45 L284.15 229.7 284.7 230.2 M285.85 234.0 Q284.75 232.65 286.25 232.75 L286.5 232.95 Q287.65 234.85 285.85 234.05 L285.85 234.0 M293.25 231.35 L292.6 232.1 292.5 232.15 Q292.1 232.4 291.65 232.15 L290.75 231.55 291.0 232.45 Q290.95 232.95 289.8 232.45 L289.75 232.4 289.3 231.8 Q289.15 231.3 289.6 231.2 L290.2 231.15 290.3 231.05 290.4 230.95 290.1 230.6 290.15 230.2 290.2 230.1 Q290.15 229.8 290.4 229.4 L290.6 229.3 290.75 229.15 291.65 229.1 Q293.45 229.8 293.25 231.35 M288.95 233.85 Q288.45 231.85 290.05 233.45 L290.2 233.7 Q290.0 234.45 289.15 234.0 L288.95 233.85 M292.1 236.65 L292.2 236.85 Q292.05 237.65 291.25 237.25 L290.85 236.95 Q290.45 235.1 292.1 236.65 M303.25 237.15 Q302.9 235.05 304.75 236.7 L304.85 237.05 Q304.55 237.85 303.65 237.3 L303.25 237.15 M301.0 238.6 Q300.85 237.05 302.4 238.6 L301.0 238.6 M297.1 237.05 Q295.9 235.6 297.65 235.75 L297.85 235.95 Q299.15 238.0 297.15 237.05 L297.1 237.05 M295.05 238.15 L295.2 238.45 295.15 238.6 294.0 238.6 293.85 238.45 Q293.65 237.35 294.05 237.35 L295.05 238.15 M313.85 240.3 L312.0 240.3 313.85 239.8 313.85 240.3 M279.35 224.0 L279.1 223.85 Q278.55 221.8 280.05 223.35 L280.15 223.65 Q280.05 224.5 279.35 224.0" fill="#666666" fill-rule="evenodd" stroke="none"/>
    <path d="M247.6 220.1 Q247.65 215.8 250.05 209.15 253.2 200.5 254.4 198.45 L254.4 198.3 Q254.7 203.85 254.65 216.15 255.0 226.05 257.45 229.6 L253.5 231.7 Q248.05 234.5 247.75 220.2 L247.6 220.1 M316.2 185.85 Q303.2 193.0 297.5 195.75 282.55 202.75 276.0 202.75 L274.25 202.5 Q274.0 202.2 274.0 200.35 274.0 196.65 279.25 185.05 283.25 176.25 285.6 173.45 284.2 175.95 289.0 180.7 293.4 182.65 298.55 183.3 L303.65 183.65 Q308.95 183.65 314.75 182.45 L316.55 182.0 316.75 181.95 317.45 182.0 317.15 182.6 316.7 184.1 316.2 185.85" fill="#4d4d4d" fill-rule="evenodd" stroke="none"/>
    <path d="M228.6 211.0 Q224.85 219.5 219.6 227.85 231.7 214.0 247.6 220.1 L247.75 220.2 Q248.05 234.5 253.5 231.7 L257.45 229.6 M257.5 229.55 Q258.85 228.85 259.05 228.85 264.5 229.1 270.2 231.4 283.8 237.85 287.15 250.2 297.25 243.15 305.75 247.0 L307.2 244.55 M311.0 238.2 L315.15 231.25 M316.8 228.55 L321.45 220.75 320.95 220.05 Q311.45 203.15 316.2 185.85 L316.7 184.1 317.15 182.6 317.45 182.0 316.75 181.95 316.55 182.0 314.75 182.45 Q308.95 183.65 303.65 183.65 L298.55 183.3 Q293.4 182.65 289.0 180.7 284.2 175.95 285.6 173.45 M286.95 172.2 L288.2 171.65 Q273.8 170.35 271.65 169.65 262.25 166.0 268.95 160.95 261.35 159.2 255.4 155.75 248.35 151.65 243.65 145.25 L243.15 152.45 235.75 146.95 237.1 156.05 M237.65 162.4 Q238.45 178.95 234.25 194.9 M287.5 251.4 L287.15 250.2 M219.6 227.85 L218.5 228.1" ffdec:has-small-stroke="true" ffdec:original-stroke-width="0.75" fill="none" stroke="#333333" stroke-linecap="round" stroke-linejoin="round" stroke-width="1.0"/>
    <path d="M234.25 194.9 L234.3 196.85 Q234.3 202.7 232.65 206.85 231.0 211.0 228.65 211.0 L228.6 211.0 M307.2 244.55 Q306.5 243.15 306.5 241.1 306.5 239.05 307.2 237.6 307.95 236.2 309.0 236.2 310.05 236.2 310.75 237.6 L311.0 238.2 M315.15 231.25 Q313.5 230.75 313.5 230.1 313.5 229.2 316.6 228.55 L316.8 228.55 M237.1 156.05 Q238.3 156.15 239.2 156.95 240.3 157.9 240.3 159.25 240.3 160.6 239.2 161.55 L237.65 162.4" ffdec:has-small-stroke="true" ffdec:original-stroke-width="0.75" fill="none" stroke="#333333" stroke-linecap="round" stroke-linejoin="round" stroke-width="1.0"/>
  </g>
</svg>
