<?xml version="1.0" encoding="UTF-8" standalone="no"?>
<svg xmlns:ffdec="https://www.free-decompiler.com/flash" xmlns:xlink="http://www.w3.org/1999/xlink" ffdec:objectType="shape" height="21.95px" width="43.7px" xmlns="http://www.w3.org/2000/svg">
  <g transform="matrix(1.0, 0.0, 0.0, 1.0, -266.55, -213.45)">
    <path d="M308.2 214.2 Q307.85 214.35 306.7 215.75 305.45 217.4 305.0 218.6 L304.95 218.85 Q300.9 216.7 295.6 217.85 L296.6 216.4 Q302.3 214.65 303.45 217.65 303.65 216.65 306.0 215.3 L308.2 214.2 M309.05 229.1 L307.8 229.9 307.55 229.9 307.35 228.95 308.65 228.2 308.7 228.3 308.75 228.3 309.05 229.1 M309.75 232.2 L310.1 233.25 Q306.95 232.5 303.7 232.65 303.25 231.6 295.9 231.85 288.65 232.1 287.4 233.0 278.4 233.45 266.7 235.25 L267.2 234.5 Q267.85 234.1 268.45 234.15 279.1 232.65 287.5 232.2 288.75 231.35 295.85 231.15 303.0 230.9 303.4 231.85 L309.1 232.25 309.75 232.2" fill="#710000" fill-rule="evenodd" stroke="none"/>
    <path d="M296.35 214.65 L296.45 214.6 297.3 214.05 303.85 213.6 308.2 214.15 308.2 214.2 306.0 215.3 Q303.65 216.65 303.45 217.65 302.3 214.65 296.6 216.4 L294.4 217.2 296.35 214.65" fill="#a30000" fill-rule="evenodd" stroke="none"/>
    <path d="M304.95 218.85 Q304.65 220.55 306.95 224.8 L308.05 226.8 308.7 228.2 308.65 228.2 307.35 228.95 307.55 229.9 307.9 230.25 309.75 232.2 309.1 232.25 303.4 231.85 Q303.0 230.9 295.85 231.15 288.75 231.35 287.5 232.2 279.1 232.65 268.45 234.15 267.85 234.1 267.2 234.5 L270.05 232.0 271.25 231.75 Q272.0 231.55 272.0 231.2 272.0 230.85 271.25 230.6 L271.2 230.6 273.55 227.05 Q283.9 222.0 281.15 218.5 L284.35 217.15 Q284.0 218.3 289.6 217.1 L293.65 216.0 295.3 215.35 296.35 214.65 294.4 217.2 296.6 216.4 295.6 217.85 Q300.9 216.7 304.95 218.85 M291.9 219.0 L291.0 218.7 291.9 219.0 M293.5 218.9 L290.4 217.8 293.5 218.9 M276.6 229.25 L274.0 230.35 276.6 229.25 M276.25 230.35 L274.7 230.6 276.25 230.35 M304.4 226.5 L300.1 228.4 304.4 226.5 M304.1 227.8 L302.3 227.9 304.1 227.8" fill="url(#gradient0)" fill-rule="evenodd" stroke="none"/>
    <path d="M310.1 233.25 L310.15 233.4 303.7 232.8 Q303.25 231.75 295.9 232.0 288.65 232.25 287.4 233.15 278.35 233.6 266.55 235.4 L266.7 235.25 Q278.4 233.45 287.4 233.0 288.65 232.1 295.9 231.85 303.25 231.6 303.7 232.65 306.95 232.5 310.1 233.25 M308.7 228.25 L308.75 228.3 308.7 228.3 308.7 228.25" fill="#9b8f68" fill-rule="evenodd" stroke="none"/>
    <path d="M308.05 226.8 L309.15 229.05 309.05 229.1 308.75 228.3 308.7 228.25 308.7 228.2 308.05 226.8" fill="url(#gradient1)" fill-rule="evenodd" stroke="none"/>
    <path d="M308.65 228.2 L308.7 228.25 308.7 228.3 308.65 228.2" fill="#cdc19a" fill-rule="evenodd" stroke="none"/>
    <path d="M296.35 214.65 L296.45 214.6 297.3 214.05 303.85 213.6 308.2 214.15 308.25 214.15 308.2 214.2 Q307.85 214.35 306.7 215.75 305.45 217.4 305.0 218.6 L304.95 218.85 Q304.65 220.55 306.95 224.8 L308.05 226.8 309.15 229.05 309.05 229.1 307.8 229.9 307.9 230.25 309.75 232.2 310.1 233.25 Q306.95 232.5 303.7 232.65 303.25 231.6 295.9 231.85 288.65 232.1 287.4 233.0 278.4 233.45 266.7 235.25 L267.2 234.5 270.05 232.0 271.25 231.75 Q272.0 231.55 272.0 231.2 272.0 230.85 271.25 230.6 L271.2 230.6 273.55 227.05 Q283.9 222.0 281.15 218.5 L284.35 217.15 Q284.0 218.3 289.6 217.1 L293.65 216.0 295.3 215.35 296.35 214.65 M308.7 228.2 L308.05 226.8 M308.7 228.25 L308.75 228.3 309.05 229.1 M308.7 228.2 L308.7 228.25 308.65 228.2 308.7 228.3 308.7 228.25 M307.55 229.9 L307.35 228.95 308.65 228.2 M307.9 230.25 L307.55 229.9" ffdec:has-small-stroke="true" ffdec:original-stroke-width="0.3" fill="none" stroke="#5c0101" stroke-linecap="round" stroke-linejoin="round" stroke-width="1.0"/>
    <path d="M296.35 214.65 L294.4 217.2 296.6 216.4 Q302.3 214.65 303.45 217.65 303.65 216.65 306.0 215.3 L308.2 214.2 M296.6 216.4 L295.6 217.85 Q300.9 216.7 304.95 218.85 M267.2 234.5 Q267.85 234.1 268.45 234.15 279.1 232.65 287.5 232.2 288.75 231.35 295.85 231.15 303.0 230.9 303.4 231.85 L309.1 232.25 309.75 232.2" ffdec:has-small-stroke="true" ffdec:original-stroke-width="0.1" fill="none" stroke="#5c0101" stroke-linecap="round" stroke-linejoin="round" stroke-width="1.0"/>
    <path d="M290.4 217.8 L293.5 218.9 M291.0 218.7 L291.9 219.0 M302.3 227.9 L304.1 227.8 M300.1 228.4 L304.4 226.5 M274.7 230.6 L276.25 230.35 M274.0 230.35 L276.6 229.25" ffdec:has-small-stroke="true" ffdec:original-stroke-width="0.1" fill="none" stroke="#a30000" stroke-linecap="round" stroke-linejoin="round" stroke-width="1.0"/>
  </g>
  <defs>
    <linearGradient gradientTransform="matrix(0.026, 0.0, 0.0, 0.0121, 288.45, 224.55)" gradientUnits="userSpaceOnUse" id="gradient0" spreadMethod="pad" x1="-819.2" x2="819.2">
      <stop offset="0.0" stop-color="#a30000"/>
      <stop offset="1.0" stop-color="#710000"/>
    </linearGradient>
    <linearGradient gradientTransform="matrix(1.0, 0.0, -0.0523, 1.0, 20.25, -16.75)" gradientUnits="userSpaceOnUse" id="gradient1" spreadMethod="pad" x1="-819.2" x2="819.2">
      <stop offset="0.0" stop-color="#dbba8a"/>
      <stop offset="1.0" stop-color="#c4a880"/>
    </linearGradient>
  </defs>
</svg>
