<?xml version="1.0" encoding="UTF-8" standalone="no"?>
<svg xmlns:ffdec="https://www.free-decompiler.com/flash" xmlns:xlink="http://www.w3.org/1999/xlink" ffdec:objectType="shape" height="71.95px" width="111.9px" xmlns="http://www.w3.org/2000/svg">
  <g transform="matrix(1.0, 0.0, 0.0, 1.0, -219.5, -164.5)">
    <path d="M324.7 190.15 L323.3 193.4 Q323.1 193.95 323.05 194.55 322.8 199.75 325.35 204.0 L326.3 205.65 Q327.4 207.6 328.05 209.65 328.6 211.35 328.7 213.2 328.95 222.0 324.95 229.9 323.95 231.95 324.4 234.35 L324.85 236.2 321.05 234.4 317.7 232.25 Q314.95 229.6 311.9 228.1 311.25 227.8 310.6 227.75 308.1 227.3 306.35 225.6 304.2 223.5 301.8 222.15 299.45 220.8 296.35 221.2 295.75 221.25 295.6 221.55 294.5 223.55 292.65 221.9 292.3 221.6 292.0 221.6 289.85 221.65 288.35 220.55 285.6 218.4 286.45 213.8 286.95 211.1 285.8 210.1 285.3 212.3 283.95 213.8 L283.25 214.25 Q279.35 215.15 275.75 217.4 L274.15 218.45 Q272.7 219.45 270.9 219.25 L269.0 219.15 Q260.1 219.45 252.25 215.7 251.6 215.35 250.95 215.25 247.85 214.55 245.3 216.1 L243.75 217.2 Q239.45 220.35 234.9 223.2 232.8 224.5 230.5 225.1 229.8 225.25 229.25 225.6 L228.9 225.9 Q227.65 226.9 226.15 226.75 L223.05 226.55 Q220.9 226.5 220.05 225.5 L219.95 225.4 Q219.65 224.95 219.8 224.75 L219.95 224.55 222.8 221.1 Q223.95 219.7 225.25 218.6 L229.25 214.6 229.35 214.55 234.4 208.35 Q241.25 199.15 244.85 188.35 245.85 185.3 245.65 183.2 L245.55 182.4 Q245.75 181.95 246.5 181.35 L251.1 177.3 Q257.3 171.85 274.3 164.75 274.9 165.0 276.8 167.0 279.25 169.55 280.45 172.1 281.55 174.35 283.85 173.75 L286.45 172.9 Q292.95 170.05 299.55 172.55 L302.6 173.5 Q306.1 174.35 309.45 175.85 316.1 178.85 322.45 180.85 326.3 182.05 328.15 183.85 329.4 185.1 331.15 185.85 327.95 187.05 325.2 189.35 L324.7 190.15 M306.1 201.85 L304.5 202.3 306.1 201.85 306.8 204.65 305.0 205.05 306.8 204.65 307.55 207.5 308.3 210.0 307.15 210.1 308.3 210.0 309.05 212.45 309.8 214.7 310.95 217.85 311.9 220.5 311.3 217.9 310.55 214.8 309.9 212.25 309.35 209.9 308.9 208.05 308.75 207.4 307.95 204.45 307.1 201.6 306.35 199.45 304.9 196.1 305.6 199.55 306.1 201.85 M307.85 183.95 L309.1 188.7 307.85 183.95 M308.25 183.1 L309.7 186.2 308.25 183.1 M309.5 183.95 L310.75 186.2 309.5 183.95 M297.5 176.1 L293.2 179.6 297.5 176.1 M296.5 178.35 L295.05 179.6 296.5 178.35 M297.3 179.4 L296.9 180.65 297.3 179.4 M268.55 172.35 L268.55 174.85 268.55 172.35 M267.1 171.15 L267.55 174.85 267.1 171.15 M269.4 172.55 L269.6 174.2 269.4 172.55 M257.4 186.95 L256.6 185.8 257.4 186.95 263.2 194.25 257.4 186.95 261.95 193.65 257.4 186.95 M263.2 192.8 L259.45 187.25 263.2 192.8 M304.0 199.65 L305.6 199.55 304.0 199.65 M308.95 199.25 L306.35 199.45 308.95 199.25 M309.55 200.9 L307.1 201.6 309.55 200.9 M306.15 207.7 L307.55 207.5 306.15 207.7 M311.1 207.1 L308.75 207.4 311.1 207.1 M311.55 209.75 L309.35 209.9 311.55 209.75 M311.3 203.8 L307.95 204.45 311.3 203.8 M306.8 217.45 L305.6 218.7 306.8 217.45 M313.1 215.05 L310.55 214.8 313.1 215.05 M312.1 211.8 L309.9 212.25 312.1 211.8 M308.9 217.6 L310.95 217.85 308.9 217.6 M309.05 212.45 L307.95 212.65 309.05 212.45 M313.5 218.2 L311.3 217.9 313.5 218.2 M308.05 214.55 L309.8 214.7 308.05 214.55 M271.9 199.55 L271.0 198.6 271.9 199.55 M305.35 216.4 L303.7 218.25 305.35 216.4 M305.35 215.35 L302.25 218.25 305.35 215.35 M322.5 214.75 L320.85 216.4 322.5 214.75 M322.7 212.9 L320.45 215.35 322.7 212.9 M323.15 211.25 L319.2 215.35 323.15 211.25 M270.05 199.2 L269.15 200.3 268.5 199.7 269.15 200.3 268.3 201.45 267.55 202.45 266.85 203.45 266.45 203.1 266.85 203.45 266.2 204.45 265.35 205.85 265.4 205.95 266.0 206.9 265.4 205.95 264.6 207.0 265.35 205.85 264.8 204.95 265.35 205.85 264.6 207.0 265.4 205.95 266.4 204.75 267.2 203.75 267.9 202.85 268.5 202.15 268.7 201.85 269.5 202.7 268.7 201.85 269.6 200.7 270.45 199.5 271.0 198.6 271.9 197.05 270.75 198.3 270.05 199.2 269.4 198.7 270.05 199.2 M270.85 201.75 L269.6 200.7 270.85 201.75 M271.45 200.25 L270.45 199.5 271.45 200.25 M268.6 203.65 L267.9 202.85 268.6 203.65 M268.3 201.45 L267.8 200.95 268.3 201.45 M267.2 202.05 L267.55 202.45 267.2 202.05 M267.05 205.8 L266.4 204.75 267.05 205.8 M265.75 203.7 L266.2 204.45 265.75 203.7 M288.0 196.35 L288.85 200.05 288.0 196.35 M288.65 195.9 L289.9 199.65 288.65 195.9 M290.1 196.35 L291.55 198.6 290.1 196.35 M251.85 201.3 L253.25 203.35 251.85 201.3 M250.15 201.7 L251.4 204.2 250.15 201.7 M251.4 201.9 L252.05 203.55 251.4 201.9 M268.0 204.45 L267.2 203.75 268.0 204.45 M270.25 197.75 L270.75 198.3 270.25 197.75" fill="url(#gradient0)" fill-rule="evenodd" stroke="none"/>
    <path d="M306.1 201.85 L305.6 199.55 306.35 199.45 305.6 199.55 304.9 196.1 306.35 199.45 307.1 201.6 306.1 201.85 307.1 201.6 307.95 204.45 306.8 204.65 307.95 204.45 308.75 207.4 308.9 208.05 309.35 209.9 308.3 210.0 309.35 209.9 309.9 212.25 309.05 212.45 309.9 212.25 310.55 214.8 309.8 214.7 310.55 214.8 311.3 217.9 311.9 220.5 310.95 217.85 309.8 214.7 309.05 212.45 308.3 210.0 307.55 207.5 308.75 207.4 307.55 207.5 306.8 204.65 306.1 201.85 M311.3 217.9 L310.95 217.85 311.3 217.9 M270.05 199.2 L270.45 199.5 270.05 199.2 270.75 198.3 271.0 198.6 270.75 198.3 271.9 197.05 271.0 198.6 270.45 199.5 269.6 200.7 269.15 200.3 269.6 200.7 268.7 201.85 268.5 202.15 267.9 202.85 267.55 202.45 267.9 202.85 267.2 203.75 266.4 204.75 266.2 204.45 266.4 204.75 265.4 205.95 265.35 205.85 266.2 204.45 266.85 203.45 267.55 202.45 268.3 201.45 269.15 200.3 270.05 199.2 M268.3 201.45 L268.7 201.85 268.3 201.45 M266.85 203.45 L267.2 203.75 266.85 203.45" fill="#fd6868" fill-rule="evenodd" stroke="none"/>
    <path d="M324.7 190.15 L323.3 193.4 Q323.1 193.95 323.05 194.55 322.8 199.75 325.35 204.0 L326.3 205.65 Q327.4 207.6 328.05 209.65 328.6 211.35 328.7 213.2 328.95 222.0 324.95 229.9 323.95 231.95 324.4 234.35 L324.85 236.2 321.05 234.4 317.7 232.25 Q314.95 229.6 311.9 228.1 311.25 227.8 310.6 227.75 308.1 227.3 306.35 225.6 304.2 223.5 301.8 222.15 299.45 220.8 296.35 221.2 295.75 221.25 295.6 221.55 294.5 223.55 292.65 221.9 292.3 221.6 292.0 221.6 289.85 221.65 288.35 220.55 285.6 218.4 286.45 213.8 286.95 211.1 285.8 210.1 285.3 212.3 283.95 213.8 L283.25 214.25 Q279.35 215.15 275.75 217.4 L274.15 218.45 Q272.7 219.45 270.9 219.25 L269.0 219.15 Q260.1 219.45 252.25 215.7 251.6 215.35 250.95 215.25 247.85 214.55 245.3 216.1 L243.75 217.2 Q239.45 220.35 234.9 223.2 232.8 224.5 230.5 225.1 229.8 225.25 229.25 225.6 L228.9 225.9 Q227.65 226.9 226.15 226.75 L223.05 226.55 Q220.9 226.5 220.05 225.5 L219.95 225.4 Q219.65 224.95 219.8 224.75 L219.95 224.55 222.8 221.1 Q223.95 219.7 225.25 218.6 L229.25 214.6 229.35 214.55 234.4 208.35 Q241.25 199.15 244.85 188.35 245.85 185.3 245.65 183.2 L245.55 182.4 Q245.75 181.95 246.5 181.35 L251.1 177.3 Q257.3 171.85 274.3 164.75 274.9 165.0 276.8 167.0 279.25 169.55 280.45 172.1 281.55 174.35 283.85 173.75 L286.45 172.9 Q292.95 170.05 299.55 172.55 L302.6 173.5 Q306.1 174.35 309.45 175.85 316.1 178.85 322.45 180.85 326.3 182.05 328.15 183.85 329.4 185.1 331.15 185.85 327.95 187.05 325.2 189.35 L324.7 190.15" ffdec:has-small-stroke="true" ffdec:original-stroke-width="0.5" fill="none" stroke="#000000" stroke-linecap="round" stroke-linejoin="round" stroke-opacity="0.6" stroke-width="1.0"/>
    <path d="M263.2 194.25 L257.4 186.95 261.95 193.65 M259.45 187.25 L263.2 192.8 M256.6 185.8 L257.4 186.95 M269.6 174.2 L269.4 172.55 M267.55 174.85 L267.1 171.15 M268.55 174.85 L268.55 172.35 M296.9 180.65 L297.3 179.4 M295.05 179.6 L296.5 178.35 M293.2 179.6 L297.5 176.1 M310.75 186.2 L309.5 183.95 M309.7 186.2 L308.25 183.1 M309.1 188.7 L307.85 183.95 M304.5 202.3 L306.1 201.85 305.6 199.55 304.0 199.65 M307.1 201.6 L306.35 199.45 305.6 199.55 304.9 196.1 306.35 199.45 308.95 199.25 M306.1 201.85 L307.1 201.6 309.55 200.9 M305.0 205.05 L306.8 204.65 306.1 201.85 M308.3 210.0 L307.55 207.5 306.15 207.7 M307.15 210.1 L308.3 210.0 309.35 209.9 308.9 208.05 308.75 207.4 307.55 207.5 306.8 204.65 307.95 204.45 307.1 201.6 M308.75 207.4 L307.95 204.45 311.3 203.8 M309.35 209.9 L311.55 209.75 M308.75 207.4 L311.1 207.1 M309.05 212.45 L309.9 212.25 309.35 209.9 M309.05 212.45 L309.8 214.7 310.55 214.8 309.9 212.25 312.1 211.8 M310.55 214.8 L313.1 215.05 M305.6 218.7 L306.8 217.45 M310.95 217.85 L311.3 217.9 310.55 214.8 M310.95 217.85 L308.9 217.6 M311.3 217.9 L311.9 220.5 310.95 217.85 309.8 214.7 308.05 214.55 M311.3 217.9 L313.5 218.2 M307.95 212.65 L309.05 212.45 308.3 210.0 M319.2 215.35 L323.15 211.25 M320.45 215.35 L322.7 212.9 M320.85 216.4 L322.5 214.75 M302.25 218.25 L305.35 215.35 M303.7 218.25 L305.35 216.4 M271.0 198.6 L271.9 199.55 M270.45 199.5 L270.05 199.2 269.15 200.3 269.6 200.7 270.45 199.5 271.0 198.6 270.75 198.3 270.05 199.2 269.4 198.7 M269.15 200.3 L268.5 199.7 M267.9 202.85 L268.5 202.15 268.7 201.85 268.3 201.45 267.55 202.45 267.9 202.85 268.6 203.65 M268.7 201.85 L269.5 202.7 M270.45 199.5 L271.45 200.25 M269.6 200.7 L270.85 201.75 M269.6 200.7 L268.7 201.85 M267.8 200.95 L268.3 201.45 269.15 200.3 M266.45 203.1 L266.85 203.45 267.55 202.45 267.2 202.05 M267.2 203.75 L266.85 203.45 266.2 204.45 266.4 204.75 267.2 203.75 267.9 202.85 M266.4 204.75 L267.05 205.8 M266.0 206.9 L265.4 205.95 264.6 207.0 265.35 205.85 264.8 204.95 M265.4 205.95 L265.35 205.85 266.2 204.45 265.75 203.7 M266.4 204.75 L265.4 205.95 M267.2 203.75 L268.0 204.45 M252.05 203.55 L251.4 201.9 M251.4 204.2 L250.15 201.7 M253.25 203.35 L251.85 201.3 M291.55 198.6 L290.1 196.35 M289.9 199.65 L288.65 195.9 M288.85 200.05 L288.0 196.35 M271.0 198.6 L271.9 197.05 270.75 198.3 270.25 197.75" ffdec:has-small-stroke="true" ffdec:original-stroke-width="0.1" fill="none" stroke="#000000" stroke-linecap="round" stroke-linejoin="round" stroke-opacity="0.6" stroke-width="1.0"/>
  </g>
  <defs>
    <linearGradient gradientTransform="matrix(0.067, -0.0106, 0.0049, 0.031, 242.1, 152.3)" gradientUnits="userSpaceOnUse" id="gradient0" spreadMethod="pad" x1="-819.2" x2="819.2">
      <stop offset="0.0" stop-color="#836f52"/>
      <stop offset="1.0" stop-color="#d3bfa3"/>
    </linearGradient>
  </defs>
</svg>
