<?xml version="1.0" encoding="UTF-8" standalone="no"?>
<svg xmlns:ffdec="https://www.free-decompiler.com/flash" xmlns:xlink="http://www.w3.org/1999/xlink" ffdec:objectType="shape" height="100.5px" width="118.85px" xmlns="http://www.w3.org/2000/svg">
  <g transform="matrix(1.0, 0.0, 0.0, 1.0, -205.3, -114.0)">
    <path d="M324.1 209.05 L324.1 210.25 322.4 210.3 317.5 210.55 304.85 211.2 304.55 210.7 303.85 209.85 Q303.35 209.3 302.65 209.7 301.6 210.25 301.45 211.25 L300.1 211.3 Q299.45 209.0 297.7 207.15 L296.7 206.4 Q296.25 206.1 295.75 206.1 295.1 206.15 294.6 206.55 L293.55 207.55 Q292.0 209.25 291.95 211.5 L290.1 211.6 276.6 212.1 267.2 212.35 Q260.3 212.4 253.7 208.05 247.05 203.7 242.05 207.35 237.0 211.0 231.75 212.55 226.4 214.15 219.9 214.3 L206.4 214.45 205.95 214.45 205.75 214.45 205.35 213.75 205.5 212.75 205.75 213.25 205.95 213.25 206.4 213.25 219.9 213.1 Q226.4 212.95 231.75 211.35 237.0 209.8 242.05 206.15 247.05 202.5 253.7 206.85 260.3 211.2 267.2 211.15 L276.6 210.9 290.1 210.4 291.95 210.3 Q292.0 208.05 293.55 206.35 L294.6 205.35 Q295.1 204.95 295.75 204.9 296.25 204.9 296.7 205.2 L297.7 205.95 Q299.45 207.8 300.1 210.1 L301.45 210.05 Q301.6 209.05 302.65 208.5 303.35 208.1 303.85 208.65 L304.55 209.5 304.85 210.0 317.5 209.35 322.4 209.1 323.85 209.05 324.1 209.05" fill="#ad997c" fill-rule="evenodd" stroke="none"/>
    <path d="M205.5 212.75 L205.35 212.55 206.3 206.5 207.05 201.75 208.65 201.4 209.75 200.95 Q210.45 200.35 210.65 199.45 211.1 197.65 211.2 195.75 L211.2 195.15 211.05 190.95 210.15 186.15 209.1 182.6 209.05 182.35 209.4 177.65 210.15 165.65 210.75 154.0 210.8 151.55 210.8 150.35 210.85 149.3 210.85 148.1 210.9 145.05 210.9 143.85 210.9 142.6 210.8 138.75 210.7 137.55 211.8 137.4 213.9 136.75 215.4 136.15 214.8 135.9 213.6 135.45 210.5 134.2 210.45 133.6 210.35 132.4 212.4 132.15 218.4 132.0 222.0 132.15 223.8 132.3 224.5 132.3 225.9 131.75 Q225.4 131.3 224.7 131.15 L220.95 130.4 216.15 129.45 213.0 128.7 210.1 128.0 209.85 124.0 209.8 122.85 209.95 122.75 210.15 122.6 213.9 122.7 Q221.0 124.25 228.15 125.25 L239.8 126.2 Q247.15 126.45 254.45 126.05 L261.95 125.4 270.2 124.35 273.9 123.85 Q275.75 124.25 279.65 128.85 283.5 133.4 283.9 128.55 284.25 123.65 286.35 122.9 L290.55 121.05 290.95 120.85 294.25 120.2 302.3 118.75 302.35 118.75 304.8 118.35 304.9 118.3 308.5 117.65 316.8 116.3 316.75 117.5 316.75 119.95 316.75 125.25 316.85 128.1 317.5 142.0 317.95 149.85 318.45 156.65 318.4 156.8 317.95 157.9 Q316.95 160.75 316.25 163.6 315.6 165.95 315.25 168.25 314.8 171.1 314.75 174.0 L314.75 175.2 314.75 175.75 314.95 179.7 315.5 182.7 316.4 185.55 318.65 191.0 321.0 196.05 322.5 199.55 322.85 202.05 324.05 208.8 324.1 209.05 323.85 209.05 322.4 209.1 317.5 209.35 304.85 210.0 304.55 209.5 303.85 208.65 Q303.35 208.1 302.65 208.5 301.6 209.05 301.45 210.05 L300.1 210.1 Q299.45 207.8 297.7 205.95 L296.7 205.2 Q296.25 204.9 295.75 204.9 295.1 204.95 294.6 205.35 L293.55 206.35 Q292.0 208.05 291.95 210.3 L290.1 210.4 276.6 210.9 267.2 211.15 Q260.3 211.2 253.7 206.85 247.05 202.5 242.05 206.15 237.0 209.8 231.75 211.35 226.4 212.95 219.9 213.1 L206.4 213.25 205.95 213.25 205.75 213.25 205.5 212.75 M215.7 148.9 L210.85 148.1 215.7 148.9 M232.45 142.35 L231.15 144.45 230.25 146.65 Q229.65 148.2 230.1 149.8 L230.8 151.6 Q231.35 153.15 232.45 154.55 L235.5 158.65 236.8 160.75 237.6 162.5 Q238.65 163.4 240.0 164.05 242.55 165.35 245.45 165.25 L248.0 165.1 250.45 164.35 Q251.8 163.85 252.95 163.0 L255.2 161.0 257.15 158.3 258.65 155.3 Q259.55 152.8 260.05 150.25 260.6 147.45 260.15 144.7 L259.55 141.1 258.65 138.15 257.35 135.75 255.65 133.9 Q253.4 131.85 250.4 131.9 L248.05 132.25 Q245.35 132.8 243.05 134.2 L240.5 135.7 Q238.35 136.8 236.55 138.4 L234.25 140.4 232.45 142.35 M215.1 150.7 L210.85 150.35 210.8 150.35 210.85 150.35 215.1 150.7 M225.9 196.45 L225.1 196.35 Q223.25 196.95 223.8 199.05 L224.2 200.05 224.25 200.1 224.8 200.75 225.9 200.8 226.15 200.7 226.65 200.4 Q227.1 200.05 227.2 199.35 227.65 197.25 225.9 196.45 M230.8 188.0 Q230.25 188.95 230.05 190.1 229.55 192.05 229.95 193.95 L230.15 194.6 Q230.55 195.45 231.35 196.0 L231.85 195.85 233.35 194.8 Q236.1 191.85 234.7 188.25 234.1 186.8 232.8 186.8 231.5 186.7 230.8 188.0 M219.75 184.95 Q219.5 187.95 220.6 190.55 221.35 192.5 222.9 194.3 L223.0 194.35 Q224.55 194.95 225.55 193.9 L226.5 192.75 Q227.5 191.25 226.95 189.15 L226.2 186.75 Q225.55 184.9 224.05 183.8 222.75 182.8 221.1 183.3 219.8 183.55 219.75 184.95 M304.8 118.35 L304.4 123.05 304.8 118.35 M302.45 121.25 L302.35 118.75 302.45 121.25" fill="url(#gradient0)" fill-rule="evenodd" stroke="none"/>
    <path d="M232.45 142.35 L234.25 140.4 236.55 138.4 Q238.35 136.8 240.5 135.7 L243.05 134.2 Q245.35 132.8 248.05 132.25 L250.4 131.9 Q253.4 131.85 255.65 133.9 L257.35 135.75 258.65 138.15 259.55 141.1 260.15 144.7 Q260.6 147.45 260.05 150.25 259.55 152.8 258.65 155.3 L257.15 158.3 255.2 161.0 252.95 163.0 Q251.8 163.85 250.45 164.35 L248.0 165.1 245.45 165.25 Q242.55 165.35 240.0 164.05 238.65 163.4 237.6 162.5 L236.8 160.75 235.5 158.65 232.45 154.55 Q231.35 153.15 230.8 151.6 L230.1 149.8 Q229.65 148.2 230.25 146.65 L231.15 144.45 232.45 142.35" fill="url(#gradient1)" fill-rule="evenodd" stroke="none"/>
    <path d="M219.75 184.95 Q219.8 183.55 221.1 183.3 222.75 182.8 224.05 183.8 225.55 184.9 226.2 186.75 L226.95 189.15 Q227.5 191.25 226.5 192.75 L225.55 193.9 Q224.55 194.95 223.0 194.35 L222.9 194.3 Q221.35 192.5 220.6 190.55 219.5 187.95 219.75 184.95 M230.8 188.0 Q231.5 186.7 232.8 186.8 234.1 186.8 234.7 188.25 236.1 191.85 233.35 194.8 L231.85 195.85 231.35 196.0 Q230.55 195.45 230.15 194.6 L229.95 193.95 Q229.55 192.05 230.05 190.1 230.25 188.95 230.8 188.0 M225.9 196.45 Q227.65 197.25 227.2 199.35 227.1 200.05 226.65 200.4 L226.15 200.7 225.9 200.8 224.8 200.75 224.25 200.1 224.2 200.05 223.8 199.05 Q223.25 196.95 225.1 196.35 L225.9 196.45" fill="url(#gradient2)" fill-rule="evenodd" stroke="none"/>
    <path d="M324.1 209.05 L324.1 210.25 322.4 210.3 317.5 210.55 304.85 211.2 304.55 210.7 303.85 209.85 Q303.35 209.3 302.65 209.7 301.6 210.25 301.45 211.25 L300.1 211.3 Q299.45 209.0 297.7 207.15 L296.7 206.4 Q296.25 206.1 295.75 206.1 295.1 206.15 294.6 206.55 L293.55 207.55 Q292.0 209.25 291.95 211.5 L290.1 211.6 276.6 212.1 267.2 212.35 Q260.3 212.4 253.7 208.05 247.05 203.7 242.05 207.35 237.0 211.0 231.75 212.55 226.4 214.15 219.9 214.3 L206.4 214.45 205.95 214.45 205.75 214.45 205.35 213.75 205.5 212.75 205.35 212.55 206.3 206.5 207.05 201.75 208.65 201.4 209.75 200.95 Q210.45 200.35 210.65 199.45 211.1 197.65 211.2 195.75 L211.2 195.15 211.05 190.95 210.15 186.15 209.1 182.6 209.05 182.35 209.4 177.65 210.15 165.65 210.75 154.0 210.8 151.55 210.8 150.35 207.9 150.1 M304.8 118.35 L304.9 118.3 308.5 117.65 316.8 116.3 316.75 117.5 316.75 119.95 316.75 125.25 316.85 128.1 317.5 142.0 317.95 149.85 318.45 156.65 318.4 156.8 317.95 157.9 Q316.95 160.75 316.25 163.6 315.6 165.95 315.25 168.25 314.8 171.1 314.75 174.0 L314.75 175.2 314.75 175.75 314.95 179.7 315.5 182.7 316.4 185.55 318.65 191.0 321.0 196.05 322.5 199.55 322.85 202.05 324.05 208.8 324.1 209.05 M210.85 148.1 L210.9 145.05 210.9 143.85 210.9 142.6 210.8 138.75 210.7 137.55 211.8 137.4 213.9 136.75 215.4 136.15 214.8 135.9 213.6 135.45 210.5 134.2 210.45 133.6 210.35 132.4 212.4 132.15 218.4 132.0 222.0 132.15 223.8 132.3 224.5 132.3 225.9 131.75 Q225.4 131.3 224.7 131.15 L220.95 130.4 216.15 129.45 213.0 128.7 210.1 128.0 209.85 124.0 209.8 122.85 209.95 122.75 210.15 122.6 213.9 122.7 Q221.0 124.25 228.15 125.25 L239.8 126.2 Q247.15 126.45 254.45 126.05 L261.95 125.4 270.2 124.35 273.9 123.85 Q275.75 124.25 279.65 128.85 283.5 133.4 283.9 128.55 284.25 123.65 286.35 122.9 L290.55 121.05 290.95 120.85 294.25 120.2 302.3 118.75 302.35 118.75 302.2 115.85 M206.7 147.4 L210.85 148.1 215.7 148.9 M210.85 148.1 L210.85 149.3 210.8 150.35 210.85 150.35 215.1 150.7 M304.8 118.35 L305.2 114.05 M304.4 123.05 L304.8 118.35 302.35 118.75 302.45 121.25" ffdec:has-small-stroke="true" ffdec:original-stroke-width="0.1" fill="none" stroke="#000000" stroke-linecap="round" stroke-linejoin="round" stroke-opacity="0.6" stroke-width="1.0"/>
  </g>
  <defs>
    <linearGradient gradientTransform="matrix(0.0378, 0.0103, -0.0155, 0.057, 290.95, 177.4)" gradientUnits="userSpaceOnUse" id="gradient0" spreadMethod="pad" x1="-819.2" x2="819.2">
      <stop offset="0.0" stop-color="#d5c4a4"/>
      <stop offset="0.7686274509803922" stop-color="#a3957a"/>
      <stop offset="1.0" stop-color="#d5c4a4"/>
    </linearGradient>
    <linearGradient gradientTransform="matrix(0.0297, 0.0081, -0.0155, 0.057, 239.85, 167.8)" gradientUnits="userSpaceOnUse" id="gradient1" spreadMethod="pad" x1="-819.2" x2="819.2">
      <stop offset="0.0" stop-color="#d5c4a4"/>
      <stop offset="1.0" stop-color="#d0bb9d"/>
    </linearGradient>
    <linearGradient gradientTransform="matrix(1.5019, 0.0, 0.0, 1.5019, 68.8, 41.35)" gradientUnits="userSpaceOnUse" id="gradient2" spreadMethod="pad" x1="-819.2" x2="819.2">
      <stop offset="0.0" stop-color="#d5c4a4"/>
      <stop offset="1.0" stop-color="#c2a881"/>
    </linearGradient>
  </defs>
</svg>
