<?xml version="1.0" encoding="UTF-8" standalone="no"?>
<svg xmlns:ffdec="https://www.free-decompiler.com/flash" xmlns:xlink="http://www.w3.org/1999/xlink" ffdec:objectType="shape" height="87.4px" width="137.35px" xmlns="http://www.w3.org/2000/svg">
  <g transform="matrix(1.0, 0.0, 0.0, 1.0, -172.8, -174.95)">
    <path d="M178.0 227.35 L173.3 226.4 Q173.95 225.65 175.2 225.6 176.9 225.1 178.0 224.15 L178.0 227.35" fill="url(#gradient0)" fill-rule="evenodd" stroke="none"/>
    <path d="M178.0 224.15 Q176.9 225.1 175.2 225.6 173.95 225.65 173.3 226.4 L178.0 227.35" fill="none" stroke="#000000" stroke-linecap="round" stroke-linejoin="round" stroke-opacity="0.28235295" stroke-width="1.0"/>
    <path d="M178.0 224.15 L179.2 222.7 Q179.35 221.75 179.8 221.05 L179.9 220.75 179.95 220.6 180.0 220.55 Q179.75 219.85 180.1 219.5 179.9 218.65 180.15 218.2 180.0 217.05 180.5 216.25 180.9 212.8 182.75 209.95 184.45 206.75 186.3 204.0 188.05 200.75 190.0 198.0 192.1 194.1 195.1 191.0 196.35 189.25 198.05 187.9 201.55 185.35 205.45 183.3 205.6 182.9 206.1 182.85 L206.15 182.8 207.45 181.7 209.45 178.95 Q209.4 178.4 209.75 178.2 210.85 176.7 208.85 176.55 L210.4 176.4 214.25 175.7 217.25 175.55 Q218.9 175.35 220.85 176.05 221.15 175.95 221.55 176.35 L223.05 177.8 226.1 180.35 Q230.4 183.5 237.25 186.4 239.0 187.0 241.0 187.95 L240.05 192.7 239.95 192.95 239.4 194.8 238.7 193.95 239.4 194.8 238.15 198.2 Q237.05 200.7 236.5 203.6 235.25 209.15 234.35 215.3 234.0 217.1 234.6 218.9 234.7 219.35 235.25 219.85 237.45 218.55 238.95 216.9 L240.0 215.45 Q240.4 214.55 241.0 213.8 241.7 212.3 242.55 211.05 245.9 204.8 248.2 198.85 250.8 191.55 254.15 185.45 L258.15 185.9 271.9 188.3 Q279.45 189.55 287.25 191.8 L284.95 193.75 287.25 191.8 289.25 192.2 291.0 192.65 288.2 195.05 291.0 192.65 292.15 192.8 294.2 193.1 298.7 192.75 Q304.85 191.4 307.0 188.5 L308.0 187.4 Q308.0 190.85 308.95 194.8 310.0 199.2 309.5 203.55 L309.1 205.35 307.15 210.5 306.7 210.7 304.05 212.0 299.45 213.85 Q295.55 215.1 291.6 216.5 288.45 217.55 285.5 218.9 282.0 220.35 278.9 222.5 275.7 224.5 272.75 227.05 268.4 230.75 264.6 235.4 L261.9 238.8 255.0 237.1 249.15 236.1 Q234.75 233.9 223.45 237.0 L220.6 237.45 Q224.05 228.2 222.65 219.75 222.6 219.55 222.15 219.75 217.3 220.8 213.55 223.65 L208.2 227.25 196.05 233.8 195.8 233.7 Q194.5 233.15 193.4 232.9 191.95 232.25 190.6 231.9 L181.45 228.55 178.0 227.35 178.0 224.15 M211.85 181.2 L207.45 181.7 211.85 181.2 M209.8 182.15 L206.15 182.8 209.8 182.15 M291.4 196.3 L294.2 193.1 291.4 196.3 M264.45 212.55 L264.9 212.55 264.85 212.5 264.45 212.55 M196.8 231.3 L193.4 232.9 196.8 231.3 M246.45 211.05 L241.0 213.8 246.45 211.05 M239.55 218.5 L249.8 214.8 239.55 218.5 M250.95 212.7 L238.95 216.9 250.95 212.7" fill="url(#gradient1)" fill-rule="evenodd" stroke="none"/>
    <path d="M241.0 187.95 L241.6 188.15 Q245.35 189.35 246.35 188.2 247.0 186.55 245.2 186.85 L245.05 186.55 Q248.7 185.0 254.15 185.45 250.8 191.55 248.2 198.85 245.9 204.8 242.55 211.05 241.7 212.3 241.0 213.8 240.4 214.55 240.0 215.45 L238.95 216.9 Q237.45 218.55 235.25 219.85 234.7 219.35 234.6 218.9 234.0 217.1 234.35 215.3 235.25 209.15 236.5 203.6 237.05 200.7 238.15 198.2 L239.4 194.8 239.95 192.95 240.05 192.7 241.0 187.95 M245.1 199.6 L239.95 192.95 245.1 199.6 M242.65 198.25 L239.4 194.8 242.65 198.25 M220.6 237.45 L215.6 237.85 Q209.75 237.65 204.55 236.45 203.15 235.9 202.15 235.7 L201.1 235.35 198.25 234.5 198.0 234.45 Q197.0 233.95 196.05 233.8 L208.2 227.25 213.55 223.65 Q217.3 220.8 222.15 219.75 222.6 219.55 222.65 219.75 224.05 228.2 220.6 237.45 M237.4 217.5 L238.95 216.9 237.4 217.5 M238.0 215.2 L241.0 213.8 238.0 215.2 M204.45 233.45 L201.1 235.35 204.45 233.45" fill="url(#gradient2)" fill-rule="evenodd" stroke="none"/>
    <path d="M244.95 186.6 L245.05 186.55 245.2 186.85 244.95 186.6" fill="url(#gradient3)" fill-rule="evenodd" stroke="none"/>
    <path d="M245.2 186.85 L244.2 186.95 245.0 186.65 244.95 186.6 245.2 186.85" fill="#d6cbc2" fill-rule="evenodd" stroke="none"/>
    <path d="M261.9 238.8 L264.6 235.4 Q268.4 230.75 272.75 227.05 275.7 224.5 278.9 222.5 282.0 220.35 285.5 218.9 288.45 217.55 291.6 216.5 295.55 215.1 299.45 213.85 L304.05 212.0 306.7 210.7 306.85 211.0 Q304.8 214.6 303.35 218.9 301.4 224.3 300.75 230.65 L300.3 234.2 Q299.25 242.15 301.35 251.35 L303.0 259.35 303.45 261.85 293.1 254.3 289.4 251.75 284.75 248.65 Q283.45 247.85 282.45 247.4 280.95 246.4 279.55 245.85 L279.15 243.4 279.55 245.85 Q270.85 241.3 261.9 238.8 M282.25 242.6 L284.75 248.65 282.25 242.6 M285.9 242.15 L289.4 251.75 285.9 242.15" fill="url(#gradient4)" fill-rule="evenodd" stroke="none"/>
    <path d="M306.7 210.7 L307.15 210.5 306.85 211.0 306.7 210.7" fill="url(#gradient5)" fill-rule="evenodd" stroke="none"/>
    <path d="M264.45 212.55 L264.85 212.5 264.9 212.55 264.45 212.55" fill="url(#gradient6)" fill-rule="evenodd" stroke="none"/>
    <path d="M178.0 224.15 L179.2 222.7 Q179.35 221.75 179.8 221.05 L179.9 220.75 179.95 220.6 180.0 220.55 Q179.75 219.85 180.1 219.5 179.9 218.65 180.15 218.2 180.0 217.05 180.5 216.25 180.9 212.8 182.75 209.95 184.45 206.75 186.3 204.0 188.05 200.75 190.0 198.0 192.1 194.1 195.1 191.0 196.35 189.25 198.05 187.9 201.55 185.35 205.45 183.3 205.6 182.9 206.1 182.85 L201.75 183.5 M241.0 187.95 Q239.0 187.0 237.25 186.4 230.4 183.5 226.1 180.35 L223.05 177.8 221.55 176.35 Q221.15 175.95 220.85 176.05 218.9 175.35 217.25 175.55 L214.25 175.7 210.4 176.4 208.85 176.55 Q210.85 176.7 209.75 178.2 209.4 178.4 209.45 178.95 L207.45 181.7 211.85 181.2 M206.15 182.8 L206.1 182.85 M207.45 181.7 L206.15 182.8 209.8 182.15 M241.1 187.4 L241.0 187.95 241.6 188.15 Q245.35 189.35 246.35 188.2 247.0 186.55 245.2 186.85 L244.2 186.95 245.0 186.65 244.95 186.6 245.05 186.55 Q248.7 185.0 254.15 185.45 L258.15 185.9 271.9 188.3 Q279.45 189.55 287.25 191.8 L288.65 190.35 M239.95 192.95 L245.1 199.6 M239.4 194.8 L238.7 193.95 M239.95 192.95 L239.4 194.8 242.65 198.25 M207.45 181.7 L201.45 182.5 M291.0 192.65 L292.15 192.8 294.2 193.1 296.3 190.5 M287.25 191.8 L284.95 193.75 M291.0 192.65 L289.25 192.2 287.25 191.8 M288.2 195.05 L291.0 192.65 291.7 191.85 M307.15 210.5 L309.1 205.35 309.5 203.55 Q310.0 199.2 308.95 194.8 308.0 190.85 308.0 187.4 L307.0 188.5 Q304.85 191.4 298.7 192.75 L294.2 193.1 291.4 196.3 M307.15 210.5 L306.85 211.0 Q304.8 214.6 303.35 218.9 301.4 224.3 300.75 230.65 L300.3 234.2 Q299.25 242.15 301.35 251.35 L303.0 259.35 303.45 261.85 293.1 254.3 289.4 251.75 291.95 258.75 M261.9 238.8 L255.0 237.1 249.15 236.1 Q234.75 233.9 223.45 237.0 L220.6 237.45 215.6 237.85 Q209.75 237.65 204.55 236.45 203.15 235.9 202.15 235.7 L201.1 235.35 195.65 238.45 M279.55 245.85 L279.15 243.4 M279.55 245.85 Q280.95 246.4 282.45 247.4 283.45 247.85 284.75 248.65 L282.25 242.6 M279.55 245.85 Q270.85 241.3 261.9 238.8 M284.75 248.65 L289.4 251.75 285.9 242.15 M284.75 248.65 L285.65 251.35 M279.6 247.8 L279.55 245.85 M238.95 216.9 L237.4 217.5 M241.0 213.8 L238.0 215.2 M196.05 233.8 Q197.0 233.95 198.0 234.45 L198.25 234.5 201.1 235.35 204.45 233.45 M193.4 232.9 Q191.95 232.25 190.6 231.9 L181.45 228.55 178.0 227.35 M193.4 232.9 L196.8 231.3 M196.05 233.8 L195.8 233.7 Q194.5 233.15 193.4 232.9 L190.95 234.1 M198.0 234.45 L192.25 236.85 M238.95 216.9 L250.95 212.7 M249.8 214.8 L239.55 218.5 M241.0 213.8 L246.45 211.05" fill="none" stroke="#000000" stroke-linecap="round" stroke-linejoin="round" stroke-opacity="0.28235295" stroke-width="1.0"/>
  </g>
  <defs>
    <linearGradient gradientTransform="matrix(0.0544, 0.0427, -0.0147, 0.0187, 200.3, 242.0)" gradientUnits="userSpaceOnUse" id="gradient0" spreadMethod="pad" x1="-819.2" x2="819.2">
      <stop offset="0.0" stop-color="#9f8672"/>
      <stop offset="1.0" stop-color="#80644f"/>
      <stop offset="1.0" stop-color="#836753"/>
    </linearGradient>
    <linearGradient gradientTransform="matrix(0.0544, 0.0427, -0.0147, 0.0187, 200.3, 242.0)" gradientUnits="userSpaceOnUse" id="gradient1" spreadMethod="pad" x1="-819.2" x2="819.2">
      <stop offset="0.0" stop-color="#9f8672"/>
      <stop offset="1.0" stop-color="#80644f"/>
      <stop offset="1.0" stop-color="#836753"/>
    </linearGradient>
    <linearGradient gradientTransform="matrix(-0.0071, 0.0502, -0.025, -0.0035, 187.05, 159.05)" gradientUnits="userSpaceOnUse" id="gradient2" spreadMethod="pad" x1="-819.2" x2="819.2">
      <stop offset="0.0" stop-color="#9f8672"/>
      <stop offset="1.0" stop-color="#775a45"/>
      <stop offset="1.0" stop-color="#5c3c34"/>
    </linearGradient>
    <linearGradient gradientTransform="matrix(-0.0157, -0.0101, 0.01, -0.0155, 219.2, 210.3)" gradientUnits="userSpaceOnUse" id="gradient3" spreadMethod="pad" x1="-819.2" x2="819.2">
      <stop offset="0.0" stop-color="#ebe2cf"/>
      <stop offset="1.0" stop-color="#d3be92"/>
      <stop offset="1.0" stop-color="#5c3c34"/>
    </linearGradient>
    <linearGradient gradientTransform="matrix(-0.0277, -0.0267, 0.0175, -0.0182, 351.9, 149.05)" gradientUnits="userSpaceOnUse" id="gradient4" spreadMethod="pad" x1="-819.2" x2="819.2">
      <stop offset="0.0" stop-color="#836752"/>
      <stop offset="1.0" stop-color="#664d3c"/>
      <stop offset="1.0" stop-color="#5c3c34"/>
    </linearGradient>
    <linearGradient gradientTransform="matrix(-0.0069, -0.0207, 0.0145, -0.0049, 235.5, 233.9)" gradientUnits="userSpaceOnUse" id="gradient5" spreadMethod="pad" x1="-819.2" x2="819.2">
      <stop offset="0.0" stop-color="#ffffff"/>
      <stop offset="1.0" stop-color="#f8f3ed"/>
    </linearGradient>
    <linearGradient gradientTransform="matrix(0.0, -0.0336, -0.04, 0.0011, 404.95, 190.65)" gradientUnits="userSpaceOnUse" id="gradient6" spreadMethod="pad" x1="-819.2" x2="819.2">
      <stop offset="0.0" stop-color="#666666"/>
      <stop offset="1.0" stop-color="#4d342b"/>
    </linearGradient>
  </defs>
</svg>
