<?xml version="1.0" encoding="UTF-8" standalone="no"?>
<svg xmlns:ffdec="https://www.free-decompiler.com/flash" xmlns:xlink="http://www.w3.org/1999/xlink" ffdec:objectType="shape" height="255.4px" width="206.15px" xmlns="http://www.w3.org/2000/svg">
  <g transform="matrix(1.0, 0.0, 0.0, 1.0, 0.5, -0.35)">
    <path d="M116.9 254.45 Q39.5 262.1 1.9 195.25 -12.2 77.45 78.9 27.55 167.4 -15.75 201.6 11.15 L201.65 11.3 Q128.55 81.45 116.9 254.45 M187.2 15.5 Q187.2 13.1 186.35 11.9 184.2 8.75 177.15 8.75 169.4 8.75 166.0 12.3 163.8 14.55 163.8 17.5 163.8 23.6 170.4 23.6 187.2 23.6 187.2 15.5" fill="#318991" fill-rule="evenodd" stroke="none"/>
    <path d="M187.2 15.5 Q187.2 23.6 170.4 23.6 163.8 23.6 163.8 17.5 163.8 14.55 166.0 12.3 169.4 8.75 177.15 8.75 184.2 8.75 186.35 11.9 187.2 13.1 187.2 15.5" fill="#66afb5" fill-rule="evenodd" stroke="none"/>
    <path d="M201.65 11.3 L205.65 30.1 Q138.05 111.4 138.85 236.35 L116.9 254.45 Q128.55 81.45 201.65 11.3" fill="#5ac7b7" fill-rule="evenodd" stroke="none"/>
    <path d="M201.6 11.15 L201.85 11.1 201.65 11.3 201.6 11.15 Q167.4 -15.75 78.9 27.55 -12.2 77.45 1.9 195.25 39.5 262.1 116.9 254.45" fill="none" stroke="#897c69" stroke-linecap="round" stroke-linejoin="round" stroke-width="1.0"/>
    <path d="M201.65 11.3 L205.65 30.1 Q138.05 111.4 138.85 236.35 L116.9 254.45 Q128.55 81.45 201.65 11.3 Z" ffdec:has-small-stroke="true" ffdec:original-stroke-width="0.05" fill="none" stroke="#897c69" stroke-linecap="round" stroke-linejoin="round" stroke-width="1.0"/>
  </g>
</svg>
