<?xml version="1.0" encoding="UTF-8" standalone="no"?>
<svg xmlns:ffdec="https://www.free-decompiler.com/flash" xmlns:xlink="http://www.w3.org/1999/xlink" ffdec:objectType="shape" height="358.95px" width="487.55px" xmlns="http://www.w3.org/2000/svg">
  <g transform="matrix(1.0, 0.0, 0.0, 1.0, 1.25, 21.9)">
    <path d="M324.5 206.0 Q355.8 214.35 392.95 223.2 L406.4 226.4 406.25 226.9 Q400.0 225.2 392.95 224.25 318.2 213.9 157.85 284.5 L157.0 283.55 Q134.9 273.65 116.15 263.15 L324.5 206.0 M126.8 193.15 L127.3 192.95 127.35 192.95 127.4 193.0 127.25 193.05 126.8 193.15 M140.45 188.6 L140.45 188.55 140.7 188.55 140.45 188.6" fill="#b9e9ff" fill-rule="evenodd" stroke="none"/>
    <path d="M126.8 -16.0 L147.05 -14.85 147.05 13.2 140.9 14.75 140.7 14.8 125.75 18.6 126.8 -16.0 M129.85 310.75 L129.85 332.35 121.55 336.05 121.6 309.35 124.6 310.75 129.85 310.75 M139.6 105.75 L139.6 106.0 140.45 106.0 140.45 128.45 140.45 164.75 140.45 182.25 140.45 184.45 140.45 188.55 140.45 188.6 127.35 192.95 127.3 192.95 126.8 193.15 126.75 193.15 126.1 105.75 139.6 105.75 M132.5 63.85 L133.2 63.95 132.7 64.25 132.5 63.85 M139.6 113.6 L139.6 106.0 139.6 113.6" fill="#977200" fill-rule="evenodd" stroke="none"/>
    <path d="M121.55 336.05 L112.6 336.05 112.6 305.05 121.6 309.35 121.55 336.05 M106.8 23.35 L106.7 -3.05 126.8 -16.0 125.75 18.6 106.8 23.35 M106.8 112.0 L126.1 103.7 126.1 105.75 126.75 193.15 126.75 193.2 Q124.5 194.15 122.5 194.4 120.95 194.6 119.6 194.4 L119.45 194.4 Q115.0 193.7 111.9 188.8 L111.35 180.55 110.75 170.95 108.1 131.05 106.8 112.0" fill="#caa50f" fill-rule="evenodd" stroke="none"/>
    <path d="M111.9 188.8 Q115.0 193.7 119.45 194.4 L111.1 196.95 105.5 184.3 111.9 188.8 105.5 184.3 99.15 179.9 111.35 180.55 111.9 188.8 M127.35 192.95 L140.45 188.6 140.7 188.55 140.45 188.55 140.45 184.45 142.1 182.25 148.4 182.65 159.85 189.2 157.0 190.75 Q154.7 185.35 127.4 193.0 L127.35 192.95 M147.55 186.3 L140.7 188.55 147.55 186.3" fill="#93dcff" fill-rule="evenodd" stroke="none"/>
    <path d="M127.4 193.0 L127.35 192.95 127.4 193.0" fill="#4ac5ff" fill-rule="evenodd" stroke="none"/>
    <path d="M446.75 84.95 L447.75 84.05 447.8 84.1 446.75 84.95 M140.45 184.45 L140.45 182.25 142.1 182.25 140.45 184.45 M126.75 193.2 L126.8 193.15 127.25 193.05 126.75 193.2" fill="#82d7ff" fill-rule="evenodd" stroke="none"/>
    <path d="M158.75 127.0 Q156.35 134.7 164.75 143.25 170.75 149.4 182.3 156.05 L140.45 164.75 140.45 128.45 158.75 127.0 M265.65 189.05 Q291.85 197.25 324.5 206.0 L116.15 263.15 Q93.35 250.35 75.5 236.65 L265.65 189.05" fill="#64cdff" fill-rule="evenodd" stroke="none"/>
    <path d="M106.6 84.6 L107.15 96.7 Q107.2 102.8 106.6 106.3 L106.6 96.7 106.6 84.6 M58.4 52.7 L57.1 53.0 56.8 53.1 55.85 53.3 Q57.0 52.55 58.25 51.85 L58.4 52.7" fill="#48c4ff" fill-rule="evenodd" stroke="none"/>
    <path d="M448.75 85.25 L446.75 84.95 447.8 84.1 448.75 85.25 M254.15 90.6 Q240.7 93.35 226.9 96.7 L223.65 97.5 222.15 96.7 Q204.5 87.35 188.9 80.05 L254.15 90.6 M406.25 226.9 Q411.1 228.2 415.55 229.95 L403.95 256.3 Q399.1 253.6 392.95 251.8 332.35 234.3 144.0 308.45 L157.85 284.5 Q318.2 213.9 392.95 224.25 400.0 225.2 406.25 226.9" fill="url(#gradient0)" fill-rule="evenodd" stroke="none"/>
    <path d="M132.5 63.85 L133.55 63.75 133.55 64.0 133.2 63.95 133.55 63.75 133.2 63.95 132.5 63.85" fill="url(#gradient1)" fill-rule="evenodd" stroke="none"/>
    <path d="M299.25 82.45 Q282.95 84.6 267.75 87.95 L254.15 90.6 188.9 80.05 139.6 72.1 139.6 64.9 133.55 64.0 133.55 63.75 132.5 63.85 125.75 62.9 106.6 66.85 106.65 66.8 49.45 57.55 Q52.5 55.35 55.85 53.3 L56.8 53.1 57.1 53.0 58.4 52.7 163.9 28.05 Q272.0 42.35 299.25 82.45 M223.65 97.5 Q201.25 103.1 178.0 110.25 L177.45 110.45 178.1 110.6 Q161.45 118.25 158.75 127.0 L140.45 128.45 140.45 106.0 139.6 106.0 139.6 105.75 139.6 96.7 222.15 96.7 223.65 97.5 M125.75 61.6 L125.75 62.9 125.75 61.6 M106.6 108.95 L106.8 112.0 108.1 131.05 11.4 138.8 Q12.0 115.1 19.25 96.7 L106.6 96.7 106.6 106.3 106.5 106.95 106.6 108.95" fill="#0095dd" fill-rule="evenodd" stroke="none"/>
    <path d="M62.5 34.5 L61.45 34.75 62.5 34.5" fill="url(#gradient2)" fill-rule="evenodd" stroke="none"/>
    <path d="M29.85 188.8 Q14.6 164.9 11.4 138.8 L108.1 131.05 110.75 170.95 29.85 188.8" fill="#17b4ff" fill-rule="evenodd" stroke="none"/>
    <path d="M188.9 80.05 Q204.5 87.35 222.15 96.7 L139.6 96.7 139.6 72.1 188.9 80.05 M49.45 57.55 L106.65 66.8 106.6 66.85 106.6 84.6 106.6 96.7 19.25 96.7 Q28.7 72.65 49.45 57.55" fill="#008ed2" fill-rule="evenodd" stroke="none"/>
    <path d="M279.0 -21.9 L283.9 -21.9 Q370.0 -2.75 431.1 28.45 436.95 35.45 452.1 44.6 467.2 53.7 486.3 78.1 L448.75 85.25 447.8 84.1 447.75 84.05 Q396.95 23.6 272.75 2.8 L274.05 2.5 272.75 2.8 279.0 -21.9" fill="url(#gradient3)" fill-rule="evenodd" stroke="none"/>
    <path d="M147.05 13.2 Q227.1 -21.95 279.0 -21.9 L272.75 2.8 248.75 8.4 163.9 28.05 58.4 52.7 58.25 51.85 Q57.0 52.55 55.85 53.3 52.5 55.35 49.45 57.55 28.7 72.65 19.25 96.7 12.0 115.1 11.4 138.8 14.6 164.9 29.85 188.8 L110.75 170.95 111.35 180.55 99.15 179.9 105.5 184.3 111.1 196.95 119.45 194.4 119.6 194.4 Q120.95 194.6 122.5 194.4 124.5 194.15 126.75 193.2 L127.25 193.05 127.4 193.0 Q154.7 185.35 157.0 190.75 L159.85 189.2 148.4 182.65 142.1 182.25 140.45 182.25 140.45 164.75 182.3 156.05 Q209.1 171.3 265.65 189.05 L75.5 236.65 Q93.35 250.35 116.15 263.15 134.9 273.65 157.0 283.55 L157.85 284.5 144.0 308.45 129.85 301.65 121.65 297.4 112.6 292.5 Q-0.4 228.55 -1.25 143.3 -1.5 117.05 4.45 96.7 17.1 53.0 58.25 36.15 L58.45 36.1 61.5 34.9 62.5 34.5 106.8 23.35 125.75 18.6 140.7 14.8 140.8 15.2 147.05 13.2 M140.65 15.9 L140.8 15.2 140.65 15.9 M140.8 15.2 L138.55 15.9 140.8 15.2 M125.75 19.8 L125.75 18.6 125.75 19.8 M55.85 53.3 L50.65 54.5 55.85 53.3 M148.7 173.45 L142.1 182.25 148.7 173.45 M29.85 188.8 Q45.95 214.0 75.5 236.65 45.95 214.0 29.85 188.8 M168.8 184.45 L159.85 189.2 168.8 184.45 M103.85 199.15 L111.1 196.95 103.85 199.15" fill="#40c1ff" fill-rule="evenodd" stroke="none"/>
    <path d="M384.85 78.3 Q359.15 77.45 331.9 79.5 315.05 80.4 299.25 82.45 272.0 42.35 163.9 28.05 L248.75 8.4 248.8 8.75 Q340.05 33.2 384.85 78.3" fill="#15b4ff" fill-rule="evenodd" stroke="none"/>
    <path d="M446.75 84.95 Q417.0 79.35 384.85 78.3 340.05 33.2 248.8 8.75 L248.75 8.4 272.75 2.8 Q396.95 23.6 447.75 84.05 L446.75 84.95" fill="#46c2ff" fill-rule="evenodd" stroke="none"/>
    <path d="M129.85 301.65 L129.85 310.75 124.6 310.75 121.6 309.35 121.65 297.4 129.85 301.65 M139.6 96.7 L139.6 105.75 126.1 105.75 126.1 103.7 125.8 68.1 125.75 62.9 132.5 63.85 132.7 64.25 125.8 68.1 132.7 64.25 133.2 63.95 133.55 64.0 139.6 64.9 139.6 72.1 139.6 96.7" fill="#715500" fill-rule="evenodd" stroke="none"/>
    <path d="M112.6 305.05 L112.6 292.5 121.65 297.4 121.6 309.35 112.6 305.05 M106.6 66.85 L125.75 62.9 125.8 68.1 126.1 103.7 106.8 112.0 106.6 108.95 106.6 106.3 Q107.2 102.8 107.15 96.7 L106.6 84.6 106.6 66.85" fill="#a3850c" fill-rule="evenodd" stroke="none"/>
    <path d="M140.45 184.45 L142.1 182.25 148.7 173.45 M140.7 188.55 L147.55 186.3" ffdec:has-small-stroke="true" ffdec:original-stroke-width="0.05" fill="none" stroke="#897c69" stroke-linecap="round" stroke-linejoin="round" stroke-width="1.0"/>
    <path d="M140.45 188.6 L140.7 188.55" fill="none" stroke="#cc9900" stroke-linecap="round" stroke-linejoin="round" stroke-width="1.0"/>
    <path d="M126.8 -16.0 L125.75 18.6 M126.1 103.7 L125.8 68.1 125.75 62.9 M126.75 193.15 L126.1 105.75 M121.6 309.35 L121.65 297.4 M121.55 336.05 L121.6 309.35" fill="none" stroke="#cc9900" stroke-linecap="round" stroke-linejoin="round" stroke-width="2.0"/>
    <path d="M126.8 -16.0 L147.05 -14.85 147.05 13.2 Q227.1 -21.95 279.0 -21.9 L283.9 -21.9 Q370.0 -2.75 431.1 28.45 436.95 35.45 452.1 44.6 467.2 53.7 486.3 78.1 L448.75 85.25 446.75 84.95 Q417.0 79.35 384.85 78.3 359.15 77.45 331.9 79.5 315.05 80.4 299.25 82.45 282.95 84.6 267.75 87.95 L254.15 90.6 Q240.7 93.35 226.9 96.7 L223.65 97.5 Q201.25 103.1 178.0 110.25 L177.45 110.45 178.1 110.6 Q161.45 118.25 158.75 127.0 156.35 134.7 164.75 143.25 170.75 149.4 182.3 156.05 209.1 171.3 265.65 189.05 291.85 197.25 324.5 206.0 355.8 214.35 392.95 223.2 L406.4 226.4 M406.25 226.9 Q411.1 228.2 415.55 229.95 L403.95 256.3 Q399.1 253.6 392.95 251.8 332.35 234.3 144.0 308.45 L129.85 301.65 129.85 310.75 129.85 332.35 121.55 336.05 M112.6 292.5 Q-0.4 228.55 -1.25 143.3 -1.5 117.05 4.45 96.7 17.1 53.0 58.25 36.15 L58.45 36.1 61.5 34.9 62.5 34.5 106.8 23.35 125.75 18.6 140.7 14.8 140.9 14.75 147.05 13.2 140.8 15.2 140.65 15.9 M61.45 34.75 L62.5 34.5 M447.8 84.1 L447.75 84.05 Q396.95 23.6 272.75 2.8 L248.75 8.4 163.9 28.05 M447.8 84.1 L448.75 85.25 M406.25 226.9 Q400.0 225.2 392.95 224.25 318.2 213.9 157.85 284.5 L144.0 308.45 M272.75 2.8 L274.05 2.5 M139.6 96.7 L139.6 105.75 139.6 106.0 139.6 113.6 M125.75 18.6 L125.75 19.8 M138.55 15.9 L140.8 15.2 140.9 14.75 M106.6 66.85 L125.75 62.9 125.75 61.6 M125.75 62.9 L132.5 63.85 133.2 63.95 133.55 64.0 139.6 64.9 139.6 72.1 139.6 96.7 M106.6 96.7 L106.6 84.6 M133.2 63.95 L133.55 63.75 M132.7 64.25 L133.2 63.95 M125.8 68.1 L132.7 64.25 M55.85 53.3 L56.8 53.1 57.1 53.0 58.4 52.7 58.25 51.85 M55.85 53.3 Q52.5 55.35 49.45 57.55 28.7 72.65 19.25 96.7 12.0 115.1 11.4 138.8 14.6 164.9 29.85 188.8 45.95 214.0 75.5 236.65 M106.6 96.7 L106.6 106.3 M50.65 54.5 L55.85 53.3 M126.1 103.7 L126.1 105.75 M126.75 193.2 L126.75 193.15 M111.9 188.8 L105.5 184.3 99.15 179.9 M111.1 196.95 L119.45 194.4 M126.8 193.15 L127.25 193.05 127.4 193.0 Q154.7 185.35 157.0 190.75 L159.85 189.2 168.8 184.45 M157.85 284.5 L157.0 283.55 M121.65 297.4 L129.85 301.65 M121.65 297.4 L112.6 292.5 M111.1 196.95 L103.85 199.15" ffdec:has-small-stroke="true" ffdec:original-stroke-width="0.05" fill="none" stroke="#897c69" stroke-linecap="round" stroke-linejoin="round" stroke-opacity="0.45882353" stroke-width="1.0"/>
    <path d="M121.55 336.05 L112.6 336.05 112.6 305.05 112.6 292.5 M106.8 23.35 L106.7 -3.05 126.8 -16.0 M106.6 84.6 L107.15 96.7 Q107.2 102.8 106.6 106.3 L106.6 108.95 106.8 112.0 108.1 131.05 110.75 170.95 111.35 180.55 111.9 188.8 M106.6 84.6 L106.6 66.85" ffdec:has-small-stroke="true" ffdec:original-stroke-width="0.25" fill="none" stroke="#5e4600" stroke-linecap="round" stroke-linejoin="round" stroke-width="1.0"/>
  </g>
  <defs>
    <linearGradient gradientTransform="matrix(-0.0882, -0.05, 0.0868, -0.0927, 280.7, 269.75)" gradientUnits="userSpaceOnUse" id="gradient0" spreadMethod="pad" x1="-819.2" x2="819.2">
      <stop offset="0.0" stop-color="#b9e9ff"/>
      <stop offset="1.0" stop-color="#0098e1"/>
    </linearGradient>
    <linearGradient gradientTransform="matrix(-0.0169, 0.063, -0.2229, -0.0598, 262.8, 52.7)" gradientUnits="userSpaceOnUse" id="gradient1" spreadMethod="pad" x1="-819.2" x2="819.2">
      <stop offset="0.0" stop-color="#b9e9ff"/>
      <stop offset="1.0" stop-color="#0098e1"/>
    </linearGradient>
    <linearGradient gradientTransform="matrix(-0.0924, 0.0098, -0.0032, -0.0302, 176.75, 15.25)" gradientUnits="userSpaceOnUse" id="gradient2" spreadMethod="pad" x1="-819.2" x2="819.2">
      <stop offset="0.0" stop-color="#b9e9ff"/>
      <stop offset="1.0" stop-color="#0098e1"/>
    </linearGradient>
    <linearGradient gradientTransform="matrix(-0.2675, -0.1366, 0.0136, -0.0267, 237.75, -42.65)" gradientUnits="userSpaceOnUse" id="gradient3" spreadMethod="pad" x1="-819.2" x2="819.2">
      <stop offset="0.0" stop-color="#b9e9ff"/>
      <stop offset="1.0" stop-color="#0098e1"/>
    </linearGradient>
  </defs>
</svg>
