<?xml version="1.0" encoding="UTF-8" standalone="no"?>
<svg xmlns:ffdec="https://www.free-decompiler.com/flash" xmlns:xlink="http://www.w3.org/1999/xlink" ffdec:objectType="shape" height="276.05px" width="530.95px" xmlns="http://www.w3.org/2000/svg">
  <g transform="matrix(1.0, 0.0, 0.0, 1.0, 116.45, 144.0)">
    <path d="M223.7 19.25 L224.2 19.05 223.8 19.35 223.7 19.25" fill="#b6c78d" fill-rule="evenodd" stroke="none"/>
    <path d="M-30.8 -59.45 L-31.45 -60.25 -30.8 -59.45 M224.2 19.05 L223.7 19.25 220.7 13.85 224.2 19.05 M240.85 46.9 L239.9 47.0 240.6 46.5 240.85 46.9" fill="#c7c68d" fill-rule="evenodd" stroke="none"/>
    <path d="M154.05 -126.2 L130.45 -103.75 126.3 -101.75 Q92.35 -85.4 83.25 -50.9 77.25 -54.2 71.0 -56.95 L70.95 -57.05 71.0 -56.95 70.9 -57.0 70.95 -57.05 Q75.35 -61.0 72.6 -66.55 L70.6 -69.55 Q64.7 -76.1 56.9 -79.55 L46.8 -83.6 Q45.35 -84.1 44.65 -85.6 54.4 -86.45 64.0 -89.1 65.2 -89.5 65.9 -90.85 65.75 -93.1 64.05 -94.65 55.2 -102.4 43.6 -104.5 L52.3 -108.1 Q64.15 -112.85 76.35 -117.0 83.6 -121.45 91.45 -123.9 123.55 -134.35 154.05 -126.2" fill="#9e9d50" fill-rule="evenodd" stroke="none"/>
    <path d="M71.0 -56.95 Q77.25 -54.2 83.25 -50.9 106.3 -38.3 125.55 -18.05 147.6 5.1 170.05 27.8 164.9 42.9 166.6 46.6 L148.5 26.05 133.2 8.85 123.0 -0.6 Q103.1 -18.0 80.45 -30.05 L72.6 -34.0 71.0 -56.95 M180.7 38.55 L199.75 52.7 Q208.7 59.2 215.2 67.1 213.1 123.25 226.05 84.85 L236.4 96.85 Q257.35 121.65 269.65 107.6 L274.65 111.75 276.65 115.05 279.3 113.1 280.5 119.7 280.3 120.6 Q260.4 144.05 233.85 118.35 220.45 105.35 207.55 91.5 187.3 69.85 167.5 47.6 170.5 49.1 180.7 38.55 M-101.85 -77.05 Q-66.7 -80.25 -56.65 -38.85 L-55.45 -34.1 Q-48.6 -7.7 -37.4 16.0 -30.25 31.25 -21.25 45.4 -4.25 72.35 18.05 61.4 18.55 59.4 15.15 48.5 11.7 37.55 -16.05 13.6 L-17.75 12.1 Q-26.2 4.25 -30.8 -5.85 -25.2 -6.7 -20.2 -9.65 L-17.9 -10.95 Q-10.75 -1.2 7.5 13.75 L10.65 16.3 Q39.0 39.0 32.3 68.6 L30.25 75.6 29.75 76.15 Q-1.15 102.6 -28.3 58.1 -55.45 13.6 -60.05 -19.2 -66.2 -62.65 -100.5 -60.95 -106.45 -60.95 -110.15 -55.65 L-111.1 -56.35 Q-114.55 -58.75 -115.75 -62.8 L-116.2 -64.55 -115.75 -65.3 Q-109.95 -72.65 -101.85 -77.05" fill="#e8e7d2" fill-rule="evenodd" stroke="none"/>
    <path d="M-36.55 -32.1 Q-36.9 -43.85 -34.05 -57.55 -32.5 -58.75 -30.8 -59.45 12.4 -77.95 58.75 -61.8 64.95 -59.65 70.9 -57.0 L71.0 -56.95 72.6 -34.0 Q65.55 -37.4 58.25 -40.3 17.55 -56.2 -18.15 -35.0 -23.9 -31.6 -22.45 -20.3 -22.0 -16.45 -17.9 -10.95 L-20.2 -9.65 Q-25.2 -6.7 -30.8 -5.85 -36.15 -17.45 -36.55 -32.1" fill="#dee6cc" fill-rule="evenodd" stroke="none"/>
    <path d="M280.55 87.8 L280.65 87.65 281.6 88.3 280.55 87.8" fill="#4e5a2e" fill-rule="evenodd" stroke="none"/>
    <path d="M280.5 87.8 L280.55 87.8 280.5 87.8 M280.5 119.7 L282.1 120.05 280.3 120.6 280.5 119.7" fill="#76763d" fill-rule="evenodd" stroke="none"/>
    <path d="M72.6 -34.0 L80.45 -30.05 Q103.1 -18.0 123.0 -0.6 79.8 27.2 41.9 62.35 37.5 66.4 32.3 68.6 39.0 39.0 10.65 16.3 L7.5 13.75 Q-10.75 -1.2 -17.9 -10.95 -22.0 -16.45 -22.45 -20.3 -23.9 -31.6 -18.15 -35.0 17.55 -56.2 58.25 -40.3 65.55 -37.4 72.6 -34.0" fill="url(#gradient0)" fill-rule="evenodd" stroke="none"/>
    <path d="M43.6 -104.5 Q55.2 -102.4 64.05 -94.65 65.75 -93.1 65.9 -90.85 65.2 -89.5 64.0 -89.1 54.4 -86.45 44.65 -85.6 45.35 -84.1 46.8 -83.6 L56.9 -79.55 Q64.7 -76.1 70.6 -69.55 L72.6 -66.55 Q75.35 -61.0 70.95 -57.05 L70.9 -57.0 Q64.95 -59.65 58.75 -61.8 12.4 -77.95 -30.8 -59.45 L-31.45 -60.25 Q-19.7 -72.2 -5.1 -80.45 18.6 -93.9 43.6 -104.5" fill="url(#gradient1)" fill-rule="evenodd" stroke="none"/>
    <path d="M130.45 -103.75 L154.05 -115.05 161.85 -118.75 166.55 -120.95 167.85 -121.55 Q172.65 -119.55 177.45 -117.1 L195.7 -107.35 Q209.55 -99.8 223.15 -91.65 239.55 -81.9 255.6 -71.35 L219.85 -48.05 265.95 -61.7 269.15 -62.65 Q302.2 -42.0 337.45 -25.7 L350.05 -19.5 Q376.2 -5.95 399.55 12.95 405.1 17.45 410.55 22.3 404.9 21.95 399.55 20.55 L395.9 19.45 Q375.4 12.55 355.7 21.6 322.8 36.7 299.35 62.75 289.05 74.15 280.65 87.65 L280.55 87.8 280.5 87.8 Q274.65 97.2 269.65 107.6 257.35 121.65 236.4 96.85 L226.05 84.85 Q226.15 62.15 300.15 -6.9 257.6 14.6 215.2 67.1 208.7 59.2 199.75 52.7 L180.7 38.55 208.25 4.5 170.05 27.8 Q147.6 5.1 125.55 -18.05 106.3 -38.3 83.25 -50.9 92.35 -85.4 126.3 -101.75 L130.45 -103.75 124.7 -98.3 161.85 -118.75 124.7 -98.3 130.45 -103.75 M217.2 -47.25 L219.85 -48.05 217.2 -47.25 M224.2 19.05 L220.7 13.85 223.7 19.25 223.8 19.35 224.2 19.05" fill="url(#gradient2)" fill-rule="evenodd" stroke="none"/>
    <path d="M52.3 -108.1 L43.6 -104.5 Q18.6 -93.9 -5.1 -80.45 -19.7 -72.2 -31.45 -60.25 L-34.05 -57.55 Q-36.9 -43.85 -36.55 -32.1 L-55.45 -34.1 -56.65 -38.85 Q-66.7 -80.25 -101.85 -77.05 -73.2 -102.2 -37.5 -116.4 -34.35 -113.3 -30.5 -110.55 -21.15 -103.8 -10.0 -103.8 -3.6 -103.8 0.85 -109.05 5.2 -114.2 6.7 -121.15 6.85 -121.95 7.3 -122.5 10.0 -126.3 14.55 -127.4 21.7 -128.9 28.85 -127.55 33.6 -126.85 37.7 -123.8 46.25 -117.35 52.3 -108.1" fill="url(#gradient3)" fill-rule="evenodd" stroke="none"/>
    <path d="M-55.45 -34.1 L-36.55 -32.1 Q-36.15 -17.45 -30.8 -5.85 -26.2 4.25 -17.75 12.1 L-37.4 16.0 Q-48.6 -7.7 -55.45 -34.1" fill="url(#gradient4)" fill-rule="evenodd" stroke="none"/>
    <path d="M-37.4 16.0 L-17.75 12.1 -16.05 13.6 Q11.7 37.55 15.15 48.5 18.55 59.4 18.05 61.4 -4.25 72.35 -21.25 45.4 -30.25 31.25 -37.4 16.0" fill="url(#gradient5)" fill-rule="evenodd" stroke="none"/>
    <path d="M269.65 107.6 Q274.65 97.2 280.5 87.8 L280.55 87.8 281.6 88.3 287.5 108.15 Q284.6 113.9 282.1 120.05 L280.5 119.7 279.3 113.1 276.65 115.05 274.65 111.75 269.65 107.6" fill="url(#gradient6)" fill-rule="evenodd" stroke="none"/>
    <path d="M280.65 87.65 Q289.05 74.15 299.35 62.75 L306.6 78.1 Q295.65 91.7 287.5 108.15 L281.6 88.3 280.65 87.65" fill="url(#gradient7)" fill-rule="evenodd" stroke="none"/>
    <path d="M299.35 62.75 Q322.8 36.7 355.7 21.6 375.4 12.55 395.9 19.45 L399.55 20.55 Q404.9 21.95 410.55 22.3 L414.25 22.6 413.55 23.9 410.75 34.9 Q405.1 33.3 399.55 32.4 369.6 27.75 343.25 44.9 322.15 58.65 306.6 78.1 L299.35 62.75" fill="url(#gradient8)" fill-rule="evenodd" stroke="none"/>
    <path d="M76.35 -117.0 Q64.15 -112.85 52.3 -108.1 46.25 -117.35 37.7 -123.8 33.6 -126.85 28.85 -127.55 21.7 -128.9 14.55 -127.4 10.0 -126.3 7.3 -122.5 6.85 -121.95 6.7 -121.15 5.2 -114.2 0.85 -109.05 -3.6 -103.8 -10.0 -103.8 -21.15 -103.8 -30.5 -110.55 -34.35 -113.3 -37.5 -116.4 L-29.35 -119.5 Q-5.75 -127.9 17.2 -138.1 57.85 -156.1 76.35 -117.0" fill="url(#gradient9)" fill-rule="evenodd" stroke="none"/>
    <path d="M170.05 27.8 L208.25 4.5 180.7 38.55 Q170.5 49.1 167.5 47.6 L166.6 46.6 Q164.9 42.9 170.05 27.8" fill="url(#gradient10)" fill-rule="evenodd" stroke="none"/>
    <path d="M215.2 67.1 Q257.6 14.6 300.15 -6.9 226.15 62.15 226.05 84.85 213.1 123.25 215.2 67.1 M240.85 46.9 L240.6 46.5 239.9 47.0 240.85 46.9" fill="url(#gradient11)" fill-rule="evenodd" stroke="none"/>
    <path d="M265.95 -61.7 L219.85 -48.05 255.6 -71.35 Q255.85 -71.2 254.8 -67.6 253.75 -64.1 256.9 -61.85 259.45 -60.05 265.95 -61.7" fill="url(#gradient12)" fill-rule="evenodd" stroke="none"/>
    <path d="M154.05 -126.2 L154.05 -115.05 130.45 -103.75 154.05 -126.2" fill="url(#gradient13)" fill-rule="evenodd" stroke="none"/>
    <path d="M32.3 68.6 Q37.5 66.4 41.9 62.35 79.8 27.2 123.0 -0.6 L133.2 8.85 Q115.55 11.3 102.1 22.75 67.7 51.8 30.25 75.6 L32.3 68.6" fill="url(#gradient14)" fill-rule="evenodd" stroke="none"/>
    <path d="M167.85 -121.55 Q172.65 -119.55 177.45 -117.1 L195.7 -107.35 Q209.55 -99.8 223.15 -91.65 239.55 -81.9 255.6 -71.35 255.85 -71.2 254.8 -67.6 253.75 -64.1 256.9 -61.85 259.45 -60.05 265.95 -61.7 L269.15 -62.65 Q302.2 -42.0 337.45 -25.7 L350.05 -19.5 Q376.2 -5.95 399.55 12.95 405.1 17.45 410.55 22.3 L414.25 22.6 413.55 23.9 410.75 34.9 Q405.1 33.3 399.55 32.4 369.6 27.75 343.25 44.9 322.15 58.65 306.6 78.1 295.65 91.7 287.5 108.15 284.6 113.9 282.1 120.05 L280.3 120.6 Q260.4 144.05 233.85 118.35 220.45 105.35 207.55 91.5 187.3 69.85 167.5 47.6 M154.05 -126.2 Q123.55 -134.35 91.45 -123.9 83.6 -121.45 76.35 -117.0 64.15 -112.85 52.3 -108.1 L43.6 -104.5 Q18.6 -93.9 -5.1 -80.45 -19.7 -72.2 -31.45 -60.25 L-34.05 -57.55 Q-36.9 -43.85 -36.55 -32.1 -36.15 -17.45 -30.8 -5.85 -26.2 4.25 -17.75 12.1 L-16.05 13.6 Q11.7 37.55 15.15 48.5 18.55 59.4 18.05 61.4 M-37.5 -116.4 Q-73.2 -102.2 -101.85 -77.05 -109.95 -72.65 -115.75 -65.3 L-116.2 -64.55 -115.75 -62.8 Q-114.55 -58.75 -111.1 -56.35 L-110.15 -55.65 Q-106.45 -60.95 -100.5 -60.95 -66.2 -62.65 -60.05 -19.2 -55.45 13.6 -28.3 58.1 -1.15 102.6 29.75 76.15 L30.25 75.6 Q67.7 51.8 102.1 22.75 115.55 11.3 133.2 8.85 L148.5 26.05 166.6 46.6 M-37.5 -116.4 L-29.35 -119.5 Q-5.75 -127.9 17.2 -138.1 57.85 -156.1 76.35 -117.0 M-30.8 -59.45 Q-32.5 -58.75 -34.05 -57.55 M123.0 -0.6 Q103.1 -18.0 80.45 -30.05 L72.6 -34.0 Q65.55 -37.4 58.25 -40.3 17.55 -56.2 -18.15 -35.0 -23.9 -31.6 -22.45 -20.3 -22.0 -16.45 -17.9 -10.95 -10.75 -1.2 7.5 13.75 L10.65 16.3 Q39.0 39.0 32.3 68.6 L30.25 75.6 M123.0 -0.6 L133.2 8.85 M274.65 111.75 L276.65 115.05 M280.5 119.7 L280.3 120.6" ffdec:has-small-stroke="true" ffdec:original-stroke-width="0.5" fill="none" stroke="#000000" stroke-linecap="round" stroke-linejoin="round" stroke-opacity="0.4" stroke-width="1.0"/>
    <path d="M70.95 -57.05 L71.0 -56.95 Q77.25 -54.2 83.25 -50.9 106.3 -38.3 125.55 -18.05 147.6 5.1 170.05 27.8 164.9 42.9 166.6 46.6 L167.5 47.6 Q170.5 49.1 180.7 38.55 L199.75 52.7 Q208.7 59.2 215.2 67.1 213.1 123.25 226.05 84.85 L236.4 96.85 Q257.35 121.65 269.65 107.6 274.65 97.2 280.5 87.8 L280.55 87.8 280.65 87.65 Q289.05 74.15 299.35 62.75 322.8 36.7 355.7 21.6 375.4 12.55 395.9 19.45 L399.55 20.55 Q404.9 21.95 410.55 22.3 M-101.85 -77.05 Q-66.7 -80.25 -56.65 -38.85 L-55.45 -34.1 Q-48.6 -7.7 -37.4 16.0 -30.25 31.25 -21.25 45.4 -4.25 72.35 18.05 61.4 M70.9 -57.0 L70.95 -57.05 M71.0 -56.95 L70.9 -57.0 Q64.95 -59.65 58.75 -61.8 12.4 -77.95 -30.8 -59.45 M-30.8 -5.85 Q-25.2 -6.7 -20.2 -9.65 L-17.9 -10.95 M280.55 87.8 L280.5 87.8 M280.55 87.8 L281.6 88.3 M276.65 115.05 L279.3 113.1 280.5 119.7 M269.65 107.6 L274.65 111.75" fill="none" stroke="#ffffff" stroke-linecap="round" stroke-linejoin="round" stroke-opacity="0.49803922" stroke-width="2.0"/>
    <path d="M154.05 -115.05 L154.05 -126.2 130.45 -103.75 124.7 -98.3 161.85 -118.75 166.55 -120.95 M255.6 -71.35 L256.4 -71.9 M170.05 27.8 L208.25 4.5 180.7 38.55 M215.2 67.1 Q257.6 14.6 300.15 -6.9 226.15 62.15 226.05 84.85 M265.95 -61.7 L219.85 -48.05 217.2 -47.25 M269.15 -62.65 L270.9 -63.2 M255.6 -71.35 L219.85 -48.05" fill="none" stroke="#000000" stroke-linecap="round" stroke-linejoin="round" stroke-opacity="0.4" stroke-width="2.0"/>
  </g>
  <defs>
    <linearGradient gradientTransform="matrix(-0.0581, -0.0581, 0.0488, -0.0488, 3.25, -40.35)" gradientUnits="userSpaceOnUse" id="gradient0" spreadMethod="pad" x1="-819.2" x2="819.2">
      <stop offset="0.0" stop-color="#6c4900"/>
      <stop offset="1.0" stop-color="#9e9d50"/>
    </linearGradient>
    <linearGradient gradientTransform="matrix(-0.0592, -0.034, 0.0239, -0.0416, 11.55, -80.45)" gradientUnits="userSpaceOnUse" id="gradient1" spreadMethod="pad" x1="-819.2" x2="819.2">
      <stop offset="0.0" stop-color="#936300"/>
      <stop offset="1.0" stop-color="#9e9d50"/>
    </linearGradient>
    <linearGradient gradientTransform="matrix(-0.0911, -0.0523, 0.0495, -0.0862, 187.6, -19.15)" gradientUnits="userSpaceOnUse" id="gradient2" spreadMethod="pad" x1="-819.2" x2="819.2">
      <stop offset="0.0" stop-color="#936300"/>
      <stop offset="1.0" stop-color="#9e9d50"/>
    </linearGradient>
    <linearGradient gradientTransform="matrix(0.0301, 0.052, -0.0787, 0.0455, 7.95, -36.0)" gradientUnits="userSpaceOnUse" id="gradient3" spreadMethod="pad" x1="-819.2" x2="819.2">
      <stop offset="0.0" stop-color="#644300"/>
      <stop offset="1.0" stop-color="#9e9d50"/>
    </linearGradient>
    <linearGradient gradientTransform="matrix(-0.0153, -0.0153, 0.0149, -0.0149, -50.0, -21.1)" gradientUnits="userSpaceOnUse" id="gradient4" spreadMethod="pad" x1="-819.2" x2="819.2">
      <stop offset="0.0" stop-color="#644300"/>
      <stop offset="1.0" stop-color="#9e9d50"/>
    </linearGradient>
    <linearGradient gradientTransform="matrix(-0.0388, -0.0223, 0.0112, -0.0195, -32.45, 24.9)" gradientUnits="userSpaceOnUse" id="gradient5" spreadMethod="pad" x1="-819.2" x2="819.2">
      <stop offset="0.0" stop-color="#644300"/>
      <stop offset="1.0" stop-color="#9e9d50"/>
    </linearGradient>
    <linearGradient gradientTransform="matrix(0.0183, -0.0317, 0.0093, 0.0054, 292.45, 84.55)" gradientUnits="userSpaceOnUse" id="gradient6" spreadMethod="pad" x1="-819.2" x2="819.2">
      <stop offset="0.0" stop-color="#432801"/>
      <stop offset="1.0" stop-color="#9e9d50"/>
    </linearGradient>
    <linearGradient gradientTransform="matrix(0.0114, -0.0197, 0.0093, 0.0054, 303.8, 65.3)" gradientUnits="userSpaceOnUse" id="gradient7" spreadMethod="pad" x1="-819.2" x2="819.2">
      <stop offset="0.0" stop-color="#432801"/>
      <stop offset="1.0" stop-color="#9e9d50"/>
    </linearGradient>
    <linearGradient gradientTransform="matrix(0.0546, -0.0314, 0.0121, 0.021, 367.7, 36.75)" gradientUnits="userSpaceOnUse" id="gradient8" spreadMethod="pad" x1="-819.2" x2="819.2">
      <stop offset="0.0" stop-color="#432801"/>
      <stop offset="1.0" stop-color="#9e9d50"/>
    </linearGradient>
    <linearGradient gradientTransform="matrix(0.0, -0.0293, 0.0695, 0.0, 19.4, -138.05)" gradientUnits="userSpaceOnUse" id="gradient9" spreadMethod="pad" x1="-819.2" x2="819.2">
      <stop offset="0.0" stop-color="#432801"/>
      <stop offset="1.0" stop-color="#9e9d50"/>
    </linearGradient>
    <linearGradient gradientTransform="matrix(-0.0093, 0.0054, -0.0055, -0.0095, 170.2, 37.0)" gradientUnits="userSpaceOnUse" id="gradient10" spreadMethod="pad" x1="-819.2" x2="819.2">
      <stop offset="0.0" stop-color="#432801"/>
      <stop offset="1.0" stop-color="#9e9d50"/>
    </linearGradient>
    <linearGradient gradientTransform="matrix(-0.0053, -0.0031, 0.0235, -0.0406, 224.35, 59.9)" gradientUnits="userSpaceOnUse" id="gradient11" spreadMethod="pad" x1="-819.2" x2="819.2">
      <stop offset="0.0" stop-color="#432801"/>
      <stop offset="1.0" stop-color="#9e9d50"/>
    </linearGradient>
    <linearGradient gradientTransform="matrix(-0.0131, 0.0035, -0.0021, -0.0078, 234.6, -58.85)" gradientUnits="userSpaceOnUse" id="gradient12" spreadMethod="pad" x1="-819.2" x2="819.2">
      <stop offset="0.0" stop-color="#432801"/>
      <stop offset="1.0" stop-color="#9e9d50"/>
    </linearGradient>
    <linearGradient gradientTransform="matrix(-0.0168, 0.0045, -0.0025, -0.0092, 142.25, -114.95)" gradientUnits="userSpaceOnUse" id="gradient13" spreadMethod="pad" x1="-819.2" x2="819.2">
      <stop offset="0.0" stop-color="#432801"/>
      <stop offset="1.0" stop-color="#9e9d50"/>
    </linearGradient>
    <linearGradient gradientTransform="matrix(-0.0527, 0.0305, -0.006, -0.0103, 57.0, 48.9)" gradientUnits="userSpaceOnUse" id="gradient14" spreadMethod="pad" x1="-819.2" x2="819.2">
      <stop offset="0.0" stop-color="#432801"/>
      <stop offset="1.0" stop-color="#9e9d50"/>
    </linearGradient>
  </defs>
</svg>
