<?xml version="1.0" encoding="UTF-8" standalone="no"?>
<svg xmlns:ffdec="https://www.free-decompiler.com/flash" xmlns:xlink="http://www.w3.org/1999/xlink" ffdec:objectType="shape" height="104.8px" width="221.55px" xmlns="http://www.w3.org/2000/svg">
  <g transform="matrix(1.0, 0.0, 0.0, 1.0, -241.65, -56.8)">
    <path d="M371.9 100.65 Q387.6 111.45 388.65 120.15 344.05 102.35 329.4 82.35 346.3 86.4 371.9 100.65 346.3 86.4 329.4 82.35 344.05 102.35 388.65 120.15 387.6 111.45 371.9 100.65 M402.4 136.1 L402.35 136.1 402.05 136.0 Q329.15 101.9 280.4 61.45 329.15 101.9 402.05 136.0 L402.35 136.1 393.5 139.65 317.55 107.35 317.3 107.05 Q297.75 83.7 270.1 65.1 297.75 83.7 317.3 107.05 L317.55 107.35 282.25 92.3 282.2 92.3 281.35 91.0 Q273.65 78.9 264.65 67.0 273.65 78.9 281.35 91.0 L282.2 92.3 271.75 87.85 271.15 86.85 Q265.45 77.85 259.0 68.95 265.45 77.85 271.15 86.85 L271.75 87.85 241.65 75.05 259.0 68.95 264.65 67.0 270.1 65.1 280.4 61.45 289.7 58.2 Q374.85 84.5 421.85 127.45 L422.45 128.0 421.85 127.45 Q374.85 84.5 289.7 58.2 L293.9 56.8 463.2 111.6 422.5 128.0 422.45 128.0 402.4 136.1 M369.75 107.35 Q369.3 104.15 363.55 100.15 354.1 94.9 347.85 93.4 353.25 100.8 369.75 107.35 353.25 100.8 347.85 93.4 354.1 94.9 363.55 100.15 369.3 104.15 369.75 107.35" fill="#c08202" fill-rule="evenodd" stroke="none"/>
    <path d="M402.35 136.1 L402.4 136.1 422.45 128.0 422.5 128.0 463.2 111.6 463.2 133.55 422.0 150.1 402.05 158.15 Q397.8 159.85 393.5 161.6 L317.55 129.3 317.55 107.35 317.55 129.3 279.6 113.15 282.25 92.3 279.6 113.15 269.35 108.8 241.65 97.0 241.65 75.05 271.75 87.85 282.2 92.3 282.25 92.3 317.55 107.35 393.5 139.65 402.35 136.1 M402.4 136.1 L402.05 158.15 402.4 136.1 M422.0 150.1 L422.5 128.0 422.0 150.1 M271.75 87.85 Q273.25 98.3 269.35 108.8 273.25 98.3 271.75 87.85" fill="#966601" fill-rule="evenodd" stroke="none"/>
    <path d="M371.9 100.65 Q346.3 86.4 329.4 82.35 344.05 102.35 388.65 120.15 387.6 111.45 371.9 100.65 M402.35 136.1 L402.4 136.1 402.05 158.15 Q397.8 159.85 393.5 161.6 L317.55 129.3 317.55 107.35 393.5 139.65 402.35 136.1 402.05 136.0 Q329.15 101.9 280.4 61.45 L270.1 65.1 Q297.75 83.7 317.3 107.05 L317.55 107.35 M422.45 128.0 L421.85 127.45 Q374.85 84.5 289.7 58.2 L280.4 61.45 M369.75 107.35 Q353.25 100.8 347.85 93.4 354.1 94.9 363.55 100.15 369.3 104.15 369.75 107.35 M463.2 111.6 L463.2 133.55 422.0 150.1 402.05 158.15 M463.2 111.6 L293.9 56.8 289.7 58.2 M422.5 128.0 L422.0 150.1 M282.25 92.3 L279.6 113.15 317.55 129.3 M264.65 67.0 Q273.65 78.9 281.35 91.0 L282.2 92.3 M259.0 68.95 Q265.45 77.85 271.15 86.85 L271.75 87.85 241.65 75.05 259.0 68.95 264.65 67.0 M241.65 75.05 L241.65 97.0 269.35 108.8 Q273.25 98.3 271.75 87.85" ffdec:has-small-stroke="true" ffdec:original-stroke-width="0.05" fill="none" stroke="#000000" stroke-linecap="round" stroke-linejoin="round" stroke-opacity="0.3019608" stroke-width="1.0"/>
  </g>
</svg>
