<?xml version="1.0" encoding="UTF-8" standalone="no"?>
<svg xmlns:ffdec="https://www.free-decompiler.com/flash" xmlns:xlink="http://www.w3.org/1999/xlink" ffdec:objectType="shape" height="60.5px" width="238.05px" xmlns="http://www.w3.org/2000/svg">
  <g transform="matrix(1.0, 0.0, 0.0, 1.0, 0.0, -6.0)">
    <path d="M231.45 25.3 L227.8 28.9 Q128.35 18.85 24.7 18.85 L43.1 6.0 88.1 8.9 Q163.55 15.8 231.45 25.3 M218.05 38.6 L211.85 44.75 Q170.9 41.0 129.1 40.15 L117.45 39.95 Q88.45 39.6 59.1 40.65 L57.2 40.7 15.15 37.3 39.6 36.0 46.35 35.7 Q81.4 34.35 117.45 34.65 L129.05 34.8 Q172.85 35.45 218.05 38.6" fill="#a4a451" fill-rule="evenodd" stroke="none"/>
    <path d="M227.8 28.9 L231.45 25.3 231.5 25.3 Q234.8 27.9 233.8 34.9 L227.85 41.25 Q230.0 35.4 227.8 28.9 M211.85 44.75 L218.05 38.6 Q217.75 45.35 221.7 47.8 L213.3 56.7 Q210.0 53.5 211.85 44.75 M15.15 37.3 L57.2 40.7 59.1 40.9 117.5 47.9 120.45 48.25 128.0 49.2 129.15 49.4 152.9 52.75 Q187.8 58.25 152.6 57.8 L129.15 57.15 128.45 57.1 120.5 56.8 117.5 56.65 68.65 54.2 16.85 49.5 39.65 49.4 43.15 49.25 46.4 49.15 Q75.05 47.9 46.4 42.3 L43.15 41.7 39.6 41.05 15.15 37.3" fill="#545429" fill-rule="evenodd" stroke="none"/>
    <path d="M231.45 25.3 Q163.55 15.8 88.1 8.9 L238.05 18.75 231.5 25.3 231.45 25.3 M24.7 18.85 Q128.35 18.85 227.8 28.9 L218.05 38.6 Q172.85 35.45 129.05 34.8 L117.45 34.65 Q81.4 34.35 46.35 35.7 L39.6 36.0 15.15 37.3 0.0 36.05 24.7 18.85 M59.1 40.65 Q88.45 39.6 117.45 39.95 L129.1 40.15 Q170.9 41.0 211.85 44.75 L203.85 52.7 59.1 40.85 59.1 40.65" fill="#666633" fill-rule="evenodd" stroke="none"/>
    <path d="M227.8 28.9 Q230.0 35.4 227.85 41.25 L221.7 47.8 Q217.75 45.35 218.05 38.6 L227.8 28.9 M233.8 34.9 Q234.8 27.9 231.5 25.3 L238.05 18.75 237.9 30.65 233.8 34.9 M211.85 44.75 Q210.0 53.5 213.3 56.7 L204.0 66.5 68.65 54.2 117.5 56.65 120.5 56.8 128.45 57.1 129.15 57.15 152.6 57.8 Q187.8 58.25 152.9 52.75 L129.15 49.4 128.0 49.2 120.45 48.25 117.5 47.9 59.1 40.9 59.1 40.85 203.85 52.7 211.85 44.75 M16.85 49.5 L3.2 48.25 0.0 36.05 15.15 37.3 39.6 41.05 43.15 41.7 46.4 42.3 Q75.05 47.9 46.4 49.15 L43.15 49.25 39.65 49.4 16.85 49.5" fill="#34341b" fill-rule="evenodd" stroke="none"/>
    <path d="M57.2 40.7 L59.1 40.65 59.1 40.85 57.2 40.7" fill="#ac701e" fill-rule="evenodd" stroke="none"/>
    <path d="M59.1 40.85 L59.1 40.9 57.2 40.7 59.1 40.85" fill="#845617" fill-rule="evenodd" stroke="none"/>
    <path d="M231.45 25.3 Q163.55 15.8 88.1 8.9 L43.1 6.0 M24.7 18.85 Q128.35 18.85 227.8 28.9 230.0 35.4 227.85 41.25 L233.8 34.9 Q234.8 27.9 231.5 25.3 L231.45 25.3 M238.05 18.75 L88.1 8.9 M221.7 47.8 L227.85 41.25 M233.8 34.9 L237.9 30.65 M218.05 38.6 Q172.85 35.45 129.05 34.8 L117.45 34.65 Q81.4 34.35 46.35 35.7 L39.6 36.0 15.15 37.3 39.6 41.05 43.15 41.7 46.4 42.3 Q75.05 47.9 46.4 49.15 L43.15 49.25 39.65 49.4 16.85 49.5 3.2 48.25 0.0 36.05 15.15 37.3 M57.2 40.7 L59.1 40.65 Q88.45 39.6 117.45 39.95 L129.1 40.15 Q170.9 41.0 211.85 44.75 210.0 53.5 213.3 56.7 L221.7 47.8 Q217.75 45.35 218.05 38.6 M68.65 54.2 L204.0 66.5 213.3 56.7 M59.1 40.9 L117.5 47.9 120.45 48.25 128.0 49.2 129.15 49.4 152.9 52.75 Q187.8 58.25 152.6 57.8 L129.15 57.15 128.45 57.1 120.5 56.8 117.5 56.65 68.65 54.2 16.85 49.5 M57.2 40.7 L59.1 40.9" ffdec:has-small-stroke="true" ffdec:original-stroke-width="0.05" fill="none" stroke="#512c69" stroke-linecap="round" stroke-linejoin="round" stroke-width="1.0"/>
    <path d="M237.9 30.65 L238.05 18.75" ffdec:has-small-stroke="true" ffdec:original-stroke-width="0.05" fill="none" stroke="#000000" stroke-linecap="round" stroke-linejoin="round" stroke-width="1.0"/>
    <path d="M43.1 6.0 L24.7 18.85 0.0 36.05" ffdec:has-small-stroke="true" ffdec:original-stroke-width="0.05" fill="none" stroke="#56270c" stroke-linecap="round" stroke-linejoin="round" stroke-width="1.0"/>
  </g>
</svg>
