<?xml version="1.0" encoding="UTF-8" standalone="no"?>
<svg xmlns:ffdec="https://www.free-decompiler.com/flash" xmlns:xlink="http://www.w3.org/1999/xlink" ffdec:objectType="shape" height="89.3px" width="104.3px" xmlns="http://www.w3.org/2000/svg">
  <g transform="matrix(1.0, 0.0, 0.0, 1.0, -214.8, -146.9)">
    <path d="M259.45 149.85 L259.45 149.75 Q259.45 148.55 261.85 147.75 264.25 146.9 267.6 146.9 L268.5 146.95 270.85 148.6 271.5 149.15 271.75 150.25 271.75 151.8 271.75 152.15 267.6 152.55 Q264.25 152.5 261.85 151.7 259.55 150.9 259.45 149.85 M266.0 160.95 L267.6 161.05 Q270.65 161.0 272.95 160.35 274.75 160.7 276.0 162.15 L276.45 162.7 Q272.6 163.7 267.6 163.75 261.3 163.7 256.9 162.2 252.6 160.7 252.45 158.7 L252.45 158.55 Q252.45 156.35 256.9 154.85 258.1 154.4 259.45 154.1 L259.45 158.3 Q259.55 159.4 261.85 160.2 L266.0 160.95" fill="#c5b69e" fill-rule="evenodd" stroke="none"/>
    <path d="M271.75 152.15 L271.75 152.25 271.9 152.25 Q273.3 153.85 272.4 156.25 L271.0 158.2 Q269.05 159.8 266.55 160.25 265.8 160.4 265.9 160.9 L266.0 160.95 261.85 160.2 Q259.55 159.4 259.45 158.3 L259.45 154.1 259.45 149.85 Q259.55 150.9 261.85 151.7 264.25 152.5 267.6 152.55 L271.75 152.15 M276.7 162.95 L276.6 165.1 Q276.15 167.9 275.0 170.65 L272.5 175.55 Q271.2 177.7 268.7 178.2 L264.7 178.9 262.8 179.2 Q259.5 178.8 256.9 177.95 252.6 176.45 252.45 174.45 L252.45 170.35 252.45 158.7 Q252.6 160.7 256.9 162.2 261.3 163.7 267.6 163.75 272.6 163.7 276.45 162.7 L276.7 162.95 M262.95 179.25 L264.25 179.3 264.5 179.35 262.95 179.25" fill="#957959" fill-rule="evenodd" stroke="none"/>
    <path d="M268.5 146.95 Q271.25 147.0 273.3 147.7 L273.4 147.75 Q275.75 148.55 275.75 149.75 L275.75 149.85 Q275.65 150.9 273.4 151.7 L271.8 152.15 271.75 152.15 271.8 152.15 271.9 152.25 271.75 152.25 271.75 152.15 271.75 151.8 271.75 150.25 271.5 149.15 270.85 148.6 268.5 146.95 M275.75 154.15 L278.3 154.85 Q280.0 155.4 281.05 156.15 L281.65 156.6 Q282.7 157.45 282.7 158.55 L282.7 158.7 Q282.55 160.7 278.3 162.2 L276.65 162.7 276.7 162.95 276.45 162.7 276.0 162.15 Q274.75 160.7 272.95 160.35 L273.4 160.2 Q275.65 159.4 275.75 158.3 L275.75 154.15 M276.65 162.7 L276.45 162.7 276.65 162.7" fill="#baa98d" fill-rule="evenodd" stroke="none"/>
    <path d="M275.75 149.85 L275.75 154.15 275.75 158.3 Q275.65 159.4 273.4 160.2 L272.95 160.35 Q270.65 161.0 267.6 161.05 L266.0 160.95 265.9 160.9 Q265.8 160.4 266.55 160.25 269.05 159.8 271.0 158.2 L272.4 156.25 Q273.3 153.85 271.9 152.25 L271.8 152.15 273.4 151.7 Q275.65 150.9 275.75 149.85 M282.7 158.7 L282.7 170.3 282.7 174.45 Q282.6 175.45 281.5 176.35 280.4 177.2 278.3 177.95 274.6 179.2 269.65 179.4 L267.6 179.5 264.5 179.35 264.25 179.3 262.95 179.25 262.7 179.25 262.8 179.2 264.7 178.9 268.7 178.2 Q271.2 177.7 272.5 175.55 L275.0 170.65 Q276.15 167.9 276.6 165.1 L276.7 162.95 276.65 162.7 278.3 162.2 Q282.55 160.7 282.7 158.7 M262.95 179.25 L262.8 179.2 262.95 179.25" fill="#7a6349" fill-rule="evenodd" stroke="none"/>
    <path d="M269.9 186.35 L270.15 187.6 269.0 189.05 Q268.15 189.85 266.95 190.25 L266.25 190.5 264.4 190.9 260.75 191.85 257.7 191.7 253.0 191.0 249.8 190.5 Q248.15 190.25 246.4 189.4 L245.25 188.75 Q243.85 188.0 242.4 188.0 L241.8 188.5 Q238.8 186.75 238.65 184.65 L238.65 184.4 Q238.6 183.75 238.9 183.15 239.25 182.15 240.35 181.3 241.65 180.2 243.9 179.25 245.5 181.35 250.25 183.0 257.5 185.45 267.7 185.45 L268.2 185.45 269.25 185.45 268.2 185.45 267.7 185.45 Q257.5 185.45 250.25 183.0 245.5 181.35 243.9 179.25 243.15 178.3 243.1 177.3 L243.1 177.0 Q243.05 173.45 250.25 171.0 L252.45 170.35 252.45 174.45 Q252.6 176.45 256.9 177.95 259.5 178.8 262.8 179.2 L262.7 179.25 262.95 179.25 264.5 179.35 267.6 179.5 269.65 179.4 270.0 179.7 270.8 180.5 Q271.2 181.15 271.25 182.1 271.25 183.0 270.55 184.1 L269.4 185.3 269.25 185.45 269.7 185.45 269.9 186.35 M293.95 199.55 Q295.8 199.8 299.8 201.0 L306.1 203.05 Q319.15 208.05 319.1 214.95 L319.1 215.5 Q318.9 218.25 316.6 220.7 312.85 224.5 303.85 227.55 L299.3 229.0 Q285.45 232.85 266.95 232.9 L265.5 232.9 Q248.15 232.7 235.0 229.05 L230.75 227.8 230.05 227.55 Q219.95 224.15 216.6 219.75 215.0 217.7 214.8 215.5 L214.8 214.95 Q214.8 207.65 229.35 202.5 237.75 200.35 241.25 199.65 241.1 196.0 242.1 192.65 247.35 194.85 259.6 196.25 271.9 197.6 275.0 198.85 L275.35 199.0 276.85 197.7 278.05 199.95 277.45 200.25 277.4 200.25 Q282.65 204.25 280.7 212.0 279.85 215.65 278.3 218.55 L278.7 218.6 278.4 218.65 267.35 219.7 Q258.35 219.65 251.95 217.5 249.85 216.75 248.2 215.55 247.9 216.7 241.1 216.05 239.85 215.15 239.15 214.25 238.25 213.1 238.15 211.85 L238.15 211.55 Q238.1 210.7 238.45 209.9 238.1 210.7 238.15 211.55 L238.15 211.85 Q238.25 213.1 239.15 214.25 239.85 215.15 241.1 216.05 L240.45 216.45 240.1 217.65 239.45 218.7 Q239.05 219.25 240.05 219.15 239.0 219.3 241.15 220.15 L242.3 220.6 243.45 221.0 Q253.35 224.1 267.05 224.15 275.95 224.15 283.3 222.8 287.8 221.95 291.7 220.65 L291.85 220.6 Q295.25 219.4 297.55 218.1 299.3 217.05 300.4 215.95 301.95 214.3 302.1 212.45 L302.1 212.1 Q302.1 208.85 297.8 206.2 295.95 205.05 293.35 204.1 L293.45 203.5 293.75 201.5 293.95 199.55 M264.25 196.05 L263.6 195.95 263.65 195.9 264.25 196.05 M248.2 215.55 Q246.85 214.55 245.8 213.2 244.3 211.4 243.4 208.95 L242.45 206.2 241.8 203.75 241.3 200.65 241.25 199.65 241.3 200.65 241.8 203.75 242.45 206.2 243.4 208.95 Q244.3 211.4 245.8 213.2 246.85 214.55 248.2 215.55 M242.45 206.2 L241.15 206.95 242.45 206.2 M241.8 203.75 Q232.0 207.2 232.0 212.1 L232.0 212.45 Q232.15 213.95 233.2 215.3 234.35 216.75 236.6 218.1 238.45 219.2 241.15 220.15 238.45 219.2 236.6 218.1 234.35 216.75 233.2 215.3 232.15 213.95 232.0 212.45 L232.0 212.1 Q232.0 207.2 241.8 203.75" fill="#ffffff" fill-rule="evenodd" stroke="none"/>
    <path d="M241.8 188.5 L242.4 188.0 Q243.85 188.0 245.25 188.75 L246.4 189.4 Q248.15 190.25 249.8 190.5 L253.0 191.0 257.7 191.7 260.75 191.85 264.4 190.9 266.25 190.5 266.95 190.25 Q268.15 189.85 269.0 189.05 L270.15 187.6 269.9 186.35 278.8 187.35 Q283.35 187.5 288.3 185.85 L288.75 185.7 Q289.55 186.8 289.55 188.35 L289.3 189.75 289.15 189.8 284.9 191.2 284.35 191.35 280.35 192.2 277.9 192.6 275.5 192.85 275.35 192.9 272.65 193.05 269.9 193.2 267.0 193.2 264.15 193.2 261.4 193.05 258.75 192.9 256.2 192.6 251.45 191.45 247.0 190.4 243.4 189.3 247.0 190.4 251.45 191.45 256.2 192.6 258.75 192.9 261.4 193.05 264.15 193.2 267.0 193.2 269.9 193.2 272.65 193.05 275.35 192.9 275.5 192.85 276.95 193.05 Q281.8 192.85 286.75 194.35 L292.2 194.65 293.7 194.0 Q294.1 196.7 293.95 199.55 L293.75 201.5 293.45 203.5 293.35 204.1 292.9 206.15 292.35 208.05 Q290.7 211.5 288.5 213.8 L287.95 214.35 286.45 215.6 Q284.7 216.8 282.75 217.5 L278.7 218.6 278.3 218.55 Q279.85 215.65 280.7 212.0 282.65 204.25 277.4 200.25 L277.45 200.25 278.05 199.95 276.85 197.7 275.35 199.0 275.0 198.85 Q271.9 197.6 259.6 196.25 247.35 194.85 242.1 192.65 L242.4 191.7 243.4 189.3 241.8 188.5 M269.7 185.45 L269.25 185.45 269.4 185.3 270.55 184.1 Q271.25 183.0 271.25 182.1 271.2 181.15 270.8 180.5 L270.0 179.7 269.65 179.4 Q274.6 179.2 278.3 177.95 280.4 177.2 281.5 176.35 L284.45 176.65 Q287.15 177.2 287.85 179.85 288.1 180.85 287.9 181.9 L287.25 182.2 283.9 183.4 279.9 184.35 276.1 184.95 271.9 185.3 269.7 185.45 M299.3 229.0 Q296.7 230.95 291.85 232.65 281.55 236.15 267.05 236.2 L266.7 236.2 Q264.85 234.4 265.5 232.9 L266.95 232.9 Q285.45 232.85 299.3 229.0 M264.25 196.05 L263.65 195.9 263.6 195.95 264.25 196.05 M282.35 220.35 Q283.9 221.45 284.8 221.7 L283.3 222.8 Q275.95 224.15 267.05 224.15 253.35 224.1 243.45 221.0 L242.3 220.6 241.15 220.15 Q239.0 219.3 240.05 219.15 239.05 219.25 239.45 218.7 L240.1 217.65 240.45 216.45 241.1 216.05 Q247.9 216.7 248.2 215.55 249.85 216.75 251.95 217.5 258.35 219.65 267.35 219.7 L278.4 218.65 Q279.5 219.35 281.1 219.45 L282.35 220.35 Q276.7 221.5 269.95 221.65 276.7 221.5 282.35 220.35 M266.75 221.7 Q255.1 221.55 246.8 218.7 243.9 217.7 242.05 216.6 L241.1 216.05 242.05 216.6 Q243.9 217.7 246.8 218.7 255.1 221.55 266.75 221.7" fill="#dfecd2" fill-rule="evenodd" stroke="none"/>
    <path d="M275.5 192.85 L277.9 192.6 280.35 192.2 284.35 191.35 284.9 191.2 289.15 189.8 289.3 189.75 289.55 188.35 Q289.55 186.8 288.75 185.7 L288.3 185.85 Q283.35 187.5 278.8 187.35 L269.9 186.35 269.7 185.45 271.9 185.3 276.1 184.95 279.9 184.35 283.9 183.4 287.25 182.2 287.9 181.9 Q288.1 180.85 287.85 179.85 287.15 177.2 284.45 176.65 L281.5 176.35 Q282.6 175.45 282.7 174.45 L282.7 170.3 284.85 170.95 285.1 171.0 Q288.1 172.05 289.85 173.25 292.15 174.9 292.25 176.85 L292.25 177.0 292.25 177.3 291.85 178.7 291.1 179.7 292.1 180.2 292.45 180.45 292.9 180.75 294.55 182.35 Q295.35 183.45 295.3 184.85 295.05 186.05 294.05 187.0 L292.75 188.05 292.3 188.4 292.85 189.95 293.2 191.25 293.45 192.55 293.7 194.0 292.2 194.65 286.75 194.35 Q281.8 192.85 276.95 193.05 L275.5 192.85 M266.7 236.2 Q252.45 236.15 242.3 232.65 237.5 231.0 235.0 229.05 248.15 232.7 265.5 232.9 264.85 234.4 266.7 236.2 M278.7 218.6 L282.75 217.5 Q284.7 216.8 286.45 215.6 L287.95 214.35 288.5 213.8 Q290.7 211.5 292.35 208.05 L292.9 206.15 293.35 204.1 Q295.95 205.05 297.8 206.2 302.1 208.85 302.1 212.1 L302.1 212.45 Q301.95 214.3 300.4 215.95 299.3 217.05 297.55 218.1 295.25 219.4 291.85 220.6 L291.7 220.65 Q287.8 221.95 283.3 222.8 L284.8 221.7 Q283.9 221.45 282.35 220.35 L285.4 219.7 282.35 220.35 281.1 219.45 Q279.5 219.35 278.4 218.65 L278.7 218.6 M292.3 188.4 L289.3 189.75 292.3 188.4 M291.1 179.7 Q289.7 181.1 287.9 181.9 289.7 181.1 291.1 179.7 M285.4 219.7 L285.9 219.55 285.45 219.65 285.4 219.7 M296.25 214.3 Q297.15 213.1 297.25 211.85 L297.25 211.55 297.25 211.4 297.1 210.4 Q296.85 209.55 296.2 208.75 295.1 207.35 292.9 206.15 295.1 207.35 296.2 208.75 296.85 209.55 297.1 210.4 L297.25 211.4 297.25 211.55 297.25 211.85 Q297.15 213.1 296.25 214.3 M294.95 215.6 L293.4 216.6 290.95 217.8 288.6 218.7 286.25 219.45 285.9 219.55 286.25 219.45 288.6 218.7 290.95 217.8 293.4 216.6 294.95 215.6" fill="#d2e4c0" fill-rule="evenodd" stroke="none"/>
    <path d="M285.9 219.55 L285.4 219.7 285.45 219.65 285.9 219.55" fill="#999999" fill-rule="evenodd" stroke="none"/>
    <path d="M241.8 188.5 L243.4 189.3 247.0 190.4 251.45 191.45 256.2 192.6 258.75 192.9 261.4 193.05 264.15 193.2 267.0 193.2 269.9 193.2 272.65 193.05 275.35 192.9 275.5 192.85 277.9 192.6 280.35 192.2 284.35 191.35 284.9 191.2 289.15 189.8 289.3 189.75 292.3 188.4 292.85 189.95 293.2 191.25 293.45 192.55 293.7 194.0 Q294.1 196.7 293.95 199.55 295.8 199.8 299.8 201.0 L306.1 203.05 Q319.15 208.05 319.1 214.95 L319.1 215.5 Q318.9 218.25 316.6 220.7 312.85 224.5 303.85 227.55 L299.3 229.0 Q296.7 230.95 291.85 232.65 281.55 236.15 267.05 236.2 L266.7 236.2 Q252.45 236.15 242.3 232.65 237.5 231.0 235.0 229.05 L230.75 227.8 230.05 227.55 Q219.95 224.15 216.6 219.75 215.0 217.7 214.8 215.5 L214.8 214.95 Q214.8 207.65 229.35 202.5 237.75 200.35 241.25 199.65 241.1 196.0 242.1 192.65 L242.4 191.7 243.4 189.3 M269.7 185.45 L269.25 185.45 268.2 185.45 267.7 185.45 Q257.5 185.45 250.25 183.0 245.5 181.35 243.9 179.25 241.65 180.2 240.35 181.3 239.25 182.15 238.9 183.15 238.6 183.75 238.65 184.4 L238.65 184.65 Q238.8 186.75 241.8 188.5 M268.5 146.95 Q271.25 147.0 273.3 147.7 L273.4 147.75 Q275.75 148.55 275.75 149.75 L275.75 149.85 275.75 154.15 278.3 154.85 Q280.0 155.4 281.05 156.15 L281.65 156.6 Q282.7 157.45 282.7 158.55 L282.7 158.7 282.7 170.3 284.85 170.95 285.1 171.0 Q288.1 172.05 289.85 173.25 292.15 174.9 292.25 176.85 L292.25 177.0 292.25 177.3 291.85 178.7 291.1 179.7 292.1 180.2 292.45 180.45 292.9 180.75 294.55 182.35 Q295.35 183.45 295.3 184.85 295.05 186.05 294.05 187.0 L292.75 188.05 292.3 188.4 M278.7 218.6 L282.75 217.5 Q284.7 216.8 286.45 215.6 L287.95 214.35 288.5 213.8 Q290.7 211.5 292.35 208.05 L292.9 206.15 293.35 204.1 293.45 203.5 293.75 201.5 293.95 199.55 M259.45 149.85 L259.45 149.75 Q259.45 148.55 261.85 147.75 264.25 146.9 267.6 146.9 L268.5 146.95 M271.75 152.15 L271.8 152.15 273.4 151.7 Q275.65 150.9 275.75 149.85 M272.95 160.35 L273.4 160.2 Q275.65 159.4 275.75 158.3 L275.75 154.15 M266.0 160.95 L267.6 161.05 Q270.65 161.0 272.95 160.35 M276.45 162.7 L276.65 162.7 278.3 162.2 Q282.55 160.7 282.7 158.7 M259.45 149.85 L259.45 154.1 259.45 158.3 Q259.55 159.4 261.85 160.2 L266.0 160.95 M262.8 179.2 L262.95 179.25 264.5 179.35 267.6 179.5 269.65 179.4 Q274.6 179.2 278.3 177.95 280.4 177.2 281.5 176.35 282.6 175.45 282.7 174.45 L282.7 170.3 M252.45 158.7 L252.45 170.35 252.45 174.45 Q252.6 176.45 256.9 177.95 259.5 178.8 262.8 179.2 M252.45 158.7 L252.45 158.55 Q252.45 156.35 256.9 154.85 258.1 154.4 259.45 154.1 M243.9 179.25 Q243.15 178.3 243.1 177.3 L243.1 177.0 Q243.05 173.45 250.25 171.0 L252.45 170.35 M269.7 185.45 L271.9 185.3 276.1 184.95 279.9 184.35 283.9 183.4 287.25 182.2 287.9 181.9 Q289.7 181.1 291.1 179.7 M285.9 219.55 L285.4 219.7 282.35 220.35 Q276.7 221.5 269.95 221.65 M283.3 222.8 Q287.8 221.95 291.7 220.65 L291.85 220.6 Q295.25 219.4 297.55 218.1 299.3 217.05 300.4 215.95 301.95 214.3 302.1 212.45 L302.1 212.1 Q302.1 208.85 297.8 206.2 295.95 205.05 293.35 204.1 M285.4 219.7 L285.45 219.65 285.9 219.55 286.25 219.45 288.6 218.7 290.95 217.8 293.4 216.6 294.95 215.6 M292.9 206.15 Q295.1 207.35 296.2 208.75 296.85 209.55 297.1 210.4 L297.25 211.4 297.25 211.55 297.25 211.85 Q297.15 213.1 296.25 214.3 M278.7 218.6 L278.4 218.65 267.35 219.7 Q258.35 219.65 251.95 217.5 249.85 216.75 248.2 215.55 246.85 214.55 245.8 213.2 244.3 211.4 243.4 208.95 L242.45 206.2 241.8 203.75 241.3 200.65 241.25 199.65 M241.1 216.05 L242.05 216.6 Q243.9 217.7 246.8 218.7 255.1 221.55 266.75 221.7 M299.3 229.0 Q285.45 232.85 266.95 232.9 L265.5 232.9 Q248.15 232.7 235.0 229.05 M283.3 222.8 Q275.95 224.15 267.05 224.15 253.35 224.1 243.45 221.0 L242.3 220.6 241.15 220.15 Q238.45 219.2 236.6 218.1 234.35 216.75 233.2 215.3 232.15 213.95 232.0 212.45 L232.0 212.1 Q232.0 207.2 241.8 203.75 M241.15 206.95 L242.45 206.2 M241.1 216.05 Q239.85 215.15 239.15 214.25 238.25 213.1 238.15 211.85 L238.15 211.55 Q238.1 210.7 238.45 209.9" ffdec:has-small-stroke="true" ffdec:original-stroke-width="0.05" fill="none" stroke="#000000" stroke-linecap="round" stroke-linejoin="round" stroke-opacity="0.3019608" stroke-width="1.0"/>
    <path d="M267.9 194.55 L269.75 196.95 269.6 197.7 Q266.7 200.85 265.45 204.8 272.4 205.1 279.35 204.6 280.05 206.55 279.55 208.65 L271.4 209.85 Q269.45 209.9 267.55 210.7 263.35 212.4 259.2 210.65 L258.8 209.15 Q258.55 208.05 258.9 207.15 261.0 201.05 264.65 195.35 L265.35 195.05 266.65 194.5 267.2 194.3 267.9 194.55" fill="#cedb73" fill-rule="evenodd" stroke="none"/>
    <path d="M267.9 194.55 L267.2 194.3 266.65 194.5 265.35 195.05 264.65 195.35 Q261.0 201.05 258.9 207.15 258.55 208.05 258.8 209.15 L259.2 210.65 Q263.35 212.4 267.55 210.7 269.45 209.9 271.4 209.85 L279.55 208.65 Q280.05 206.55 279.35 204.6 272.4 205.1 265.45 204.8 266.7 200.85 269.6 197.7 L269.75 196.95 267.9 194.55 Z" ffdec:has-small-stroke="true" ffdec:original-stroke-width="0.05" fill="none" stroke="#000000" stroke-linecap="round" stroke-linejoin="round" stroke-opacity="0.3019608" stroke-width="1.0"/>
  </g>
</svg>
