<?xml version="1.0" encoding="UTF-8" standalone="no"?>
<svg xmlns:ffdec="https://www.free-decompiler.com/flash" xmlns:xlink="http://www.w3.org/1999/xlink" ffdec:objectType="shape" height="36.45px" width="61.25px" xmlns="http://www.w3.org/2000/svg">
  <g transform="matrix(1.0, 0.0, 0.0, 1.0, 0.0, -21.4)">
    <path d="M43.35 38.35 L47.6 37.75 52.05 37.3 Q53.6 37.0 54.8 35.45 56.75 32.85 57.85 35.45 58.2 36.3 57.45 37.45 55.7 40.1 58.3 41.95 L59.6 42.9 Q61.95 44.65 60.75 47.85 59.95 49.85 58.5 50.2 60.55 48.1 59.5 45.4 L57.15 44.55 56.8 42.1 Q55.0 42.95 54.65 37.75 L52.65 40.1 Q48.35 42.65 44.45 40.2 L43.35 38.35" fill="#f7f1e1" fill-rule="evenodd" stroke="none"/>
    <path d="M40.55 34.9 L40.55 34.95 40.5 34.95 40.55 34.9" fill="#e7dca0" fill-rule="evenodd" stroke="none"/>
    <path d="M45.7 44.5 L45.7 44.65 44.9 47.7 42.6 46.8 42.9 47.15 43.75 48.3 44.3 49.05 44.4 49.15 44.25 49.2 43.55 49.45 42.65 49.8 41.8 50.2 41.4 50.5 44.1 50.5 43.65 52.1 Q43.05 53.0 42.3 53.15 L42.1 51.35 Q41.3 49.8 38.85 50.8 L38.75 50.75 39.55 46.0 37.4 48.1 Q36.7 47.4 34.65 48.4 L38.85 44.1 45.3 45.95 41.25 42.05 42.95 38.95 39.4 39.85 36.0 35.2 35.95 41.0 31.35 42.85 32.15 43.0 34.3 43.4 36.0 43.75 36.0 43.85 35.85 43.8 28.1 44.65 18.85 38.65 13.55 31.8 Q11.4 30.35 7.35 31.45 4.65 30.75 4.6 28.85 4.5 26.9 6.7 24.75 L7.0 24.65 Q7.8 24.25 13.65 22.4 L14.95 22.1 Q13.5 22.5 13.35 23.0 12.3 25.8 15.5 25.5 L16.3 25.4 20.3 25.25 21.15 25.35 Q21.9 25.45 22.15 26.0 L22.15 27.35 Q21.45 30.75 24.3 31.35 26.3 31.75 27.85 30.5 28.6 29.95 29.6 30.1 32.05 30.5 34.25 31.95 L35.8 32.7 Q35.5 31.6 34.55 30.75 L39.35 34.15 40.35 34.85 40.5 34.95 40.55 34.95 43.35 38.35 44.45 40.2 45.35 42.4 45.5 43.05 45.55 43.45 45.65 44.2 45.7 44.5 M0.3 35.2 Q0.0 34.2 0.45 32.5 L1.45 29.6 2.0 28.45 Q2.6 27.05 3.8 26.15 4.95 25.25 6.65 24.75 4.65 26.2 3.55 27.7 L3.2 28.05 3.2 28.15 Q2.85 28.6 2.65 29.1 1.5 31.35 4.85 32.3 L4.05 32.6 0.3 35.2 M20.55 23.2 L14.95 22.85 14.95 22.75 Q15.45 22.15 16.35 22.05 18.7 21.35 20.75 22.35 21.05 22.45 20.95 22.8 L20.9 22.9 20.75 23.1 20.55 23.2 M28.7 27.4 L28.3 27.85 28.15 27.9 Q26.55 27.05 24.8 26.5 L24.25 25.9 Q24.0 25.4 24.35 25.05 L24.55 24.9 Q26.4 26.35 28.65 27.3 L28.7 27.4" fill="#f4ffdb" fill-rule="evenodd" stroke="none"/>
    <path d="M58.5 50.2 L57.25 50.25 Q55.4 49.9 54.4 47.25 53.75 45.55 53.9 43.2 L53.7 39.8 51.85 41.5 47.5 42.45 45.25 41.65 45.5 43.05 45.35 42.4 44.45 40.2 Q48.35 42.65 52.65 40.1 L54.65 37.75 Q55.0 42.95 56.8 42.1 L57.15 44.55 59.5 45.4 Q60.55 48.1 58.5 50.2" fill="#eee2bf" fill-rule="evenodd" stroke="none"/>
    <path d="M53.9 43.2 Q52.3 44.15 50.3 44.3 L45.7 44.5 45.65 44.2 45.55 43.45 45.5 43.05 45.25 41.65 47.5 42.45 51.85 41.5 53.7 39.8 53.9 43.2" fill="#e4d39a" fill-rule="evenodd" stroke="none"/>
    <path d="M44.9 47.7 L45.75 48.0 48.4 45.7 48.6 45.55 47.9 48.95 50.05 50.1 47.75 50.7 47.75 54.05 45.55 50.5 44.1 50.5 41.4 50.5 41.8 50.2 42.65 49.8 43.55 49.45 44.25 49.2 44.4 49.15 44.3 49.05 43.75 48.3 42.9 47.15 42.6 46.8 44.9 47.7 M38.5 54.3 L38.55 57.85 36.85 54.85 35.8 52.9 30.6 52.9 Q30.9 52.5 32.15 51.9 L34.35 51.05 33.5 49.8 32.5 48.25 32.2 47.85 32.15 47.7 33.1 48.1 36.0 49.4 37.4 48.1 39.55 46.0 38.75 50.75 38.85 50.8 41.4 52.35 38.5 53.15 38.5 54.3 M36.0 43.85 L36.0 43.75 34.3 43.4 32.15 43.0 31.35 42.85 35.95 41.0 36.0 35.2 39.4 39.85 42.95 38.95 41.25 42.05 45.3 45.95 38.85 44.1 34.65 48.4 34.6 48.45 Q34.45 47.8 35.0 46.3 L36.0 43.85" fill="#e7c92e" fill-rule="evenodd" stroke="none"/>
    <path d="M42.3 53.15 L40.05 53.65 38.5 54.3 38.5 53.15 41.4 52.35 38.85 50.8 Q41.3 49.8 42.1 51.35 L42.3 53.15 M36.85 54.85 L32.7 55.8 29.9 56.2 Q18.45 57.35 8.85 53.75 4.05 51.9 1.9 47.45 0.05 41.85 4.7 39.45 6.05 38.8 9.45 37.85 3.75 43.2 13.55 39.25 16.25 38.25 17.45 42.35 15.6 47.75 19.9 46.95 L28.15 46.5 32.2 47.85 32.5 48.25 33.5 49.8 34.35 51.05 32.15 51.9 Q30.9 52.5 30.6 52.9 L35.8 52.9 36.85 54.85 M15.1 22.05 L15.4 21.95 15.5 21.95 15.8 21.85 16.3 21.75 19.2 21.6 19.55 21.7 21.35 22.4 21.6 22.55 Q21.9 22.65 21.7 23.65 22.6 22.95 23.0 23.15 L26.75 25.8 Q34.95 30.7 27.35 28.85 22.85 25.65 22.15 26.0 21.9 25.45 21.15 25.35 L20.3 25.25 16.3 25.4 15.5 25.5 14.05 24.5 13.85 23.35 15.1 22.05 M25.1 24.6 L24.25 23.95 24.05 23.75 24.8 24.25 25.65 24.85 Q25.25 24.5 26.05 25.0 L25.8 24.9 25.7 24.9 25.65 24.85 25.1 24.6 M34.65 48.4 Q36.7 47.4 37.4 48.1 L36.0 49.4 33.1 48.1 34.35 48.55 34.6 48.45 34.65 48.4 M20.55 23.2 L20.75 23.1 20.9 22.9 20.95 22.8 Q21.05 22.45 20.75 22.35 18.7 21.35 16.35 22.05 15.45 22.15 14.95 22.75 L14.95 22.85 20.55 23.2 M21.7 23.65 L21.35 22.4 21.7 23.65 M3.55 27.7 L3.95 27.45 4.3 27.65 4.35 27.75 Q4.2 28.7 3.45 29.35 L3.35 29.4 Q2.85 29.3 2.9 28.8 L3.2 28.2 3.2 28.15 3.2 28.05 3.55 27.7 M28.7 27.4 L28.65 27.3 Q26.4 26.35 24.55 24.9 L24.35 25.05 Q24.0 25.4 24.25 25.9 L24.8 26.5 Q26.55 27.05 28.15 27.9 L28.3 27.85 28.7 27.4" fill="#94c998" fill-rule="evenodd" stroke="none"/>
    <path d="M19.55 21.7 L19.6 21.7 Q20.25 21.85 20.85 22.15 L21.35 22.4 19.55 21.7" fill="#e1a459" fill-rule="evenodd" stroke="none"/>
    <path d="M1.9 47.45 Q0.85 45.25 0.45 42.45 0.0 39.85 0.15 36.75 L0.3 35.2 4.05 32.6 4.85 32.3 Q1.5 31.35 2.65 29.1 2.85 28.6 3.2 28.15 L3.2 28.2 2.9 28.8 Q2.85 29.3 3.35 29.4 L3.45 29.35 Q4.2 28.7 4.35 27.75 L4.3 27.65 3.95 27.45 3.55 27.7 Q4.65 26.2 6.65 24.75 L6.7 24.75 Q4.5 26.9 4.6 28.85 4.65 30.75 7.35 31.45 11.4 30.35 13.55 31.8 L18.85 38.65 28.1 44.65 35.85 43.8 36.0 43.85 35.0 46.3 Q34.45 47.8 34.6 48.45 L34.35 48.55 33.1 48.1 32.15 47.7 32.2 47.85 28.15 46.5 19.9 46.95 Q15.6 47.75 17.45 42.35 16.25 38.25 13.55 39.25 3.75 43.2 9.45 37.85 6.05 38.8 4.7 39.45 0.05 41.85 1.9 47.45 M14.95 22.1 L15.1 22.05 13.85 23.35 14.05 24.5 15.5 25.5 Q12.3 25.8 13.35 23.0 13.5 22.5 14.95 22.1 M26.75 25.8 L25.1 24.6 25.65 24.85 25.7 24.9 25.8 24.9 26.05 25.0 26.5 25.25 32.7 29.45 34.55 30.75 Q35.5 31.6 35.8 32.7 L34.25 31.95 Q32.05 30.5 29.6 30.1 28.6 29.95 27.85 30.5 26.3 31.75 24.3 31.35 21.45 30.75 22.15 27.35 L22.15 26.0 Q22.85 25.65 27.35 28.85 34.95 30.7 26.75 25.8" fill="#b4daba" fill-rule="evenodd" stroke="none"/>
    <path d="M43.35 38.35 L47.6 37.75 52.05 37.3 Q53.6 37.0 54.8 35.45 56.75 32.85 57.85 35.45 58.2 36.3 57.45 37.45 55.7 40.1 58.3 41.95 L59.6 42.9 Q61.95 44.65 60.75 47.85 59.95 49.85 58.5 50.2 L57.25 50.25 Q55.4 49.9 54.4 47.25 53.75 45.55 53.9 43.2 52.3 44.15 50.3 44.3 L45.7 44.5 45.7 44.65 44.9 47.7 M44.1 50.5 L43.65 52.1 Q43.05 53.0 42.3 53.15 L40.05 53.65 38.5 54.3 M36.85 54.85 L32.7 55.8 29.9 56.2 Q18.45 57.35 8.85 53.75 4.05 51.9 1.9 47.45 0.85 45.25 0.45 42.45 0.0 39.85 0.15 36.75 L0.3 35.2 Q0.0 34.2 0.45 32.5 L1.45 29.6 2.0 28.45 Q2.6 27.05 3.8 26.15 4.95 25.25 6.65 24.75 L6.7 24.75 7.0 24.65 M15.5 21.95 L15.8 21.85 19.2 21.6 19.55 21.7 19.6 21.7 M21.7 23.65 Q22.6 22.95 23.0 23.15 M39.35 34.15 L40.35 34.85 40.55 34.9 40.55 34.95 43.35 38.35 44.45 40.2 M40.5 34.95 L40.35 34.85 M45.5 43.05 L45.25 41.65 M45.65 44.2 L45.55 43.45 45.5 43.05 M21.35 22.4 L21.7 23.65 M19.55 21.7 L21.35 22.4" ffdec:has-small-stroke="true" ffdec:original-stroke-width="0.25" fill="none" stroke="#5a924b" stroke-linecap="round" stroke-linejoin="round" stroke-opacity="0.36078432" stroke-width="1.0"/>
  </g>
</svg>
