<?xml version="1.0" encoding="UTF-8" standalone="no"?>
<svg xmlns:ffdec="https://www.free-decompiler.com/flash" xmlns:xlink="http://www.w3.org/1999/xlink" ffdec:objectType="shape" height="319.4px" width="280.25px" xmlns="http://www.w3.org/2000/svg">
  <g transform="matrix(1.0, 0.0, 0.0, 1.0, -134.85, -40.25)">
    <path d="M320.05 117.15 L319.95 118.8 Q319.05 140.5 326.75 167.6 314.1 141.4 288.05 121.15 310.45 116.5 282.8 103.25 255.15 90.0 233.75 86.0 209.0 78.6 191.7 76.05 L195.05 67.35 Q252.65 74.05 320.05 117.15 M178.95 165.05 L172.25 162.15 Q179.85 152.5 187.7 145.75 186.15 157.4 185.75 166.35 L178.95 165.05 M177.85 178.0 L186.35 182.7 Q188.8 198.95 200.05 195.15 210.9 230.15 250.05 265.15 202.8 242.3 177.85 178.0 M283.6 250.5 L284.45 252.45 Q279.7 251.45 275.4 253.15 279.3 250.15 283.6 250.5 M156.45 79.3 Q149.8 71.2 138.1 66.15 L155.05 66.15 162.25 76.35 Q158.75 77.45 156.45 79.3" fill="#990000" fill-rule="evenodd" stroke="none"/>
    <path d="M358.05 241.15 Q351.85 249.1 347.75 262.45 L347.75 262.5 Q345.85 268.7 344.4 276.1 343.05 282.95 342.15 290.8 L341.05 302.15 334.05 308.3 333.05 309.15 Q318.75 278.7 298.95 260.8 L303.05 250.15 Q288.3 251.55 279.45 239.95 270.05 222.65 281.6 209.15 249.45 210.0 257.6 201.65 241.7 202.5 231.1 189.15 212.35 184.7 212.6 171.65 198.2 172.85 185.75 166.35 186.15 157.4 187.7 145.75 214.45 122.65 245.05 123.9 L245.9 123.9 245.25 124.2 Q256.65 145.35 245.05 171.15 252.15 171.85 259.3 174.15 274.95 179.2 290.6 192.1 L294.05 207.15 296.0 194.55 Q307.5 194.05 319.05 205.15 330.25 213.55 337.2 226.2 330.4 206.25 334.25 193.4 L334.2 193.35 Q327.3 200.6 319.7 198.75 308.3 193.05 308.1 168.15 L301.75 168.15 Q311.5 135.95 324.3 168.95 329.35 181.95 334.25 193.35 L334.2 193.35 334.25 193.35 334.25 193.4 Q346.85 222.9 358.05 241.15 M283.55 168.15 Q269.2 159.9 268.1 168.15 261.3 171.7 262.1 148.65 L265.85 134.7 Q275.65 145.75 283.55 168.15 M186.35 182.7 Q184.85 165.8 264.05 226.15 222.05 219.4 250.05 265.15 210.9 230.15 200.05 195.15 188.8 198.95 186.35 182.7 M269.65 233.1 L283.6 250.5 Q279.3 250.15 275.4 253.15 273.65 240.5 269.65 233.1 M347.75 262.5 L347.7 262.1 347.75 262.45 347.7 262.1 347.75 262.5 M138.1 66.15 Q126.9 46.8 161.55 42.35 208.6 53.8 189.6 53.65 181.15 65.2 155.05 66.15 L138.1 66.15 M205.05 41.55 L229.05 43.15 Q259.4 27.3 320.05 117.15 252.65 74.05 195.05 67.35 241.95 60.4 205.05 41.55" fill="#996633" fill-rule="evenodd" stroke="none"/>
    <path d="M301.75 168.15 L308.1 168.15 Q308.3 193.05 319.7 198.75 309.9 196.4 298.95 179.15 L285.4 173.75 Q266.3 175.75 259.5 173.35 252.2 170.8 259.05 163.15 249.25 161.55 259.05 128.6 255.55 127.7 253.8 125.7 250.05 121.35 254.65 111.75 256.4 124.95 268.1 126.15 L265.85 134.7 262.1 148.65 Q261.3 171.7 268.1 168.15 269.2 159.9 283.55 168.15 292.65 152.1 301.75 168.15 M279.45 239.95 Q272.35 230.7 269.05 213.15 252.0 214.8 241.05 201.15 216.25 191.85 212.05 179.15 L178.95 165.05 185.75 166.35 Q198.2 172.85 212.6 171.65 212.35 184.7 231.1 189.15 241.7 202.5 257.6 201.65 249.45 210.0 281.6 209.15 270.05 222.65 279.45 239.95 M161.55 42.35 L176.25 41.2 Q250.6 51.95 172.05 66.15 L170.6 74.85 Q190.75 89.7 164.95 107.85 L173.0 90.1 Q176.2 83.0 162.25 76.35 L155.05 66.15 Q181.15 65.2 189.6 53.65 208.6 53.8 161.55 42.35 M239.25 105.3 Q210.8 98.6 201.1 105.3 L164.95 107.85 Q197.15 87.7 239.25 105.3" fill="#99cc33" fill-rule="evenodd" stroke="none"/>
    <path d="M326.75 167.6 Q332.75 180.05 335.75 193.95 L335.85 194.2 Q344.55 216.15 358.05 241.15 346.85 222.9 334.25 193.4 L334.25 193.35 Q329.35 181.95 324.3 168.95 311.5 135.95 301.75 168.15 292.65 152.1 283.55 168.15 275.65 145.75 265.85 134.7 L268.1 126.15 Q256.4 124.95 254.65 111.75 256.3 108.3 259.05 104.15 159.2 85.45 191.7 76.05 209.0 78.6 233.75 86.0 255.15 90.0 282.8 103.25 310.45 116.5 288.05 121.15 314.1 141.4 326.75 167.6 330.3 180.15 335.75 193.95 L334.25 193.35 335.75 193.95 Q330.3 180.15 326.75 167.6 M290.6 192.1 L296.0 194.55 294.05 207.15 290.6 192.1 M294.55 276.05 L298.95 260.8 Q318.75 278.7 333.05 309.15 311.15 287.95 294.55 276.1 L294.55 276.05 294.55 276.1 294.55 276.05 294.55 276.1 Q262.15 252.9 250.05 265.15 222.05 219.4 264.05 226.15 267.25 228.7 269.65 233.1 273.65 240.5 275.4 253.15 279.7 251.45 284.45 252.45 296.3 259.15 294.55 276.05 M156.45 79.3 Q158.75 77.45 162.25 76.35 176.2 83.0 173.0 90.1 L164.95 107.85 201.1 105.3 Q210.8 98.6 239.25 105.3 242.15 106.45 245.05 107.85 L245.05 123.9 Q214.45 122.65 187.7 145.75 179.85 152.5 172.25 162.15 137.65 149.5 158.1 137.15 164.35 120.8 164.95 107.85 165.7 90.6 156.45 79.3" fill="#cc9900" fill-rule="evenodd" stroke="none"/>
    <path d="M406.5 283.05 L406.6 282.85 Q406.65 282.75 406.8 282.75 410.8 280.55 414.6 277.65 413.85 283.35 413.45 288.15 404.25 291.85 401.6 303.4 L390.1 306.15 398.8 300.35 398.9 300.3 Q407.85 287.9 406.5 283.05" fill="#ff0000" fill-rule="evenodd" stroke="none"/>
    <path d="M380.6 318.65 Q383.0 310.15 380.6 293.65 388.1 293.65 390.85 288.85 L390.6 301.15 393.2 287.75 Q400.05 286.25 406.3 283.0 L406.5 283.05 Q407.85 287.9 398.9 300.3 L398.8 300.35 390.1 306.15 401.6 303.4 Q404.25 291.85 413.45 288.15 412.0 304.9 414.6 310.65 397.6 304.8 380.6 318.65" fill="#000000" fill-rule="evenodd" stroke="none"/>
    <path d="M319.7 198.75 Q327.3 200.6 334.2 193.35 L334.25 193.4 Q330.4 206.25 337.2 226.2 330.25 213.55 319.05 205.15 307.5 194.05 296.0 194.55 L290.6 192.1 Q274.95 179.2 259.3 174.15 252.15 171.85 245.05 171.15 256.65 145.35 245.25 124.2 L245.9 123.9 245.05 123.9 245.05 107.85 Q242.15 106.45 239.25 105.3 197.15 87.7 164.95 107.85 190.75 89.7 170.6 74.85 L172.05 66.15 Q250.6 51.95 176.25 41.2 188.75 40.75 205.05 41.55 241.95 60.4 195.05 67.35 L191.7 76.05 Q159.2 85.45 259.05 104.15 256.3 108.3 254.65 111.75 250.05 121.35 253.8 125.7 255.55 127.7 259.05 128.6 249.25 161.55 259.05 163.15 252.2 170.8 259.5 173.35 266.3 175.75 285.4 173.75 L298.95 179.15 Q309.9 196.4 319.7 198.75 M298.95 260.8 L294.55 276.05 Q296.3 259.15 284.45 252.45 L283.6 250.5 269.65 233.1 Q267.25 228.7 264.05 226.15 184.85 165.8 186.35 182.7 L177.85 178.0 Q174.9 170.35 172.25 162.15 L178.95 165.05 212.05 179.15 Q216.25 191.85 241.05 201.15 252.0 214.8 269.05 213.15 272.35 230.7 279.45 239.95 288.3 251.55 303.05 250.15 L298.95 260.8 M371.95 339.55 Q372.7 340.75 373.85 341.95 L373.7 342.1 371.4 340.25 371.95 339.55" fill="#666633" fill-rule="evenodd" stroke="none"/>
    <path d="M342.15 290.8 L349.1 311.65 371.95 339.55 371.35 340.2 Q361.2 331.75 351.9 319.05 L334.05 308.3 341.05 302.15 342.15 290.8 M341.05 302.15 Q346.3 311.35 351.9 319.05 346.3 311.35 341.05 302.15" fill="#ffff99" fill-rule="evenodd" stroke="none"/>
    <path d="M344.4 276.1 Q343.8 297.85 353.1 311.65 362.9 322.05 372.65 327.35 L377.35 329.6 Q372.85 328.55 371.1 331.15 369.45 335.55 371.95 339.55 L349.1 311.65 342.15 290.8 Q343.05 282.95 344.4 276.1 M334.05 308.3 L351.9 319.05 Q361.2 331.75 371.35 340.2 L371.95 339.55 371.4 340.25 373.7 342.1 373.75 342.1 375.2 343.25 374.8 344.05 Q364.85 340.45 365.15 351.8 360.2 325.55 333.05 309.15 L334.05 308.3 M371.4 340.25 L371.35 340.2 371.4 340.25" fill="#999900" fill-rule="evenodd" stroke="none"/>
    <path d="M375.2 343.25 L380.3 346.7 Q377.25 344.9 374.8 344.05 L375.2 343.25" fill="#cccc33" fill-rule="evenodd" stroke="none"/>
    <path d="M320.05 117.15 L319.95 118.8 Q319.05 140.5 326.75 167.6 330.3 180.15 335.75 193.95 L335.85 194.2 Q344.55 216.15 358.05 241.15 351.85 249.1 347.75 262.45 L347.75 262.5 Q345.85 268.7 344.4 276.1 343.8 297.85 353.1 311.65 362.9 322.05 372.65 327.35 L380.6 318.65 Q383.0 310.15 380.6 293.65 388.1 293.65 390.85 288.85 L390.6 301.15 393.2 287.75 Q400.05 286.25 406.3 283.0 M406.8 282.75 Q410.8 280.55 414.6 277.65 413.85 283.35 413.45 288.15 412.0 304.9 414.6 310.65 397.6 304.8 380.6 318.65 M334.2 193.35 L334.25 193.35 335.75 193.95 M294.55 276.05 L294.55 276.1 Q311.15 287.95 333.05 309.15 L334.05 308.3 351.9 319.05 Q361.2 331.75 371.35 340.2 L371.4 340.25 373.7 342.1 373.75 342.1 375.2 343.25 380.3 346.7 381.05 347.15 M172.25 162.15 Q174.9 170.35 177.85 178.0 202.8 242.3 250.05 265.15 262.15 252.9 294.55 276.1 L294.55 276.05 M347.75 262.45 L347.7 262.1 347.75 262.5 M342.15 290.8 L349.1 311.65 371.95 339.55 Q369.45 335.55 371.1 331.15 372.85 328.55 377.35 329.6 L372.65 327.35 M351.9 319.05 Q346.3 311.35 341.05 302.15 L334.05 308.3 M371.95 339.55 Q372.7 340.75 373.85 341.95 L375.2 343.25 M341.05 302.15 L342.15 290.8 Q343.05 282.95 344.4 276.1 M366.05 359.15 Q365.8 355.35 365.15 351.8 360.2 325.55 333.05 309.15 M381.6 331.15 Q379.25 330.05 377.35 329.6 M374.8 344.05 Q377.25 344.9 380.3 346.7 M374.8 344.05 Q364.85 340.45 365.15 351.8 M156.45 79.3 Q149.8 71.2 138.1 66.15 M229.05 43.15 Q259.4 27.3 320.05 117.15 M172.25 162.15 Q137.65 149.5 158.1 137.15 164.35 120.8 164.95 107.85 165.7 90.6 156.45 79.3" fill="none" stroke="#000000" stroke-linecap="round" stroke-linejoin="round" stroke-opacity="0.6" stroke-width="1.0"/>
    <path d="M406.5 283.05 L406.6 282.85 M406.5 283.05 Q407.85 287.9 398.9 300.3 L398.8 300.35 390.1 306.15 401.6 303.4 Q404.25 291.85 413.45 288.15" fill="none" stroke="#000000" stroke-linecap="round" stroke-linejoin="round" stroke-width="1.0"/>
    <path d="M406.6 282.85 Q406.65 282.75 406.8 282.75" fill="none" stroke="#ffffff" stroke-linecap="round" stroke-linejoin="round" stroke-width="1.0"/>
    <path d="M138.1 66.15 Q126.9 46.8 161.55 42.35 L176.25 41.2 Q188.75 40.75 205.05 41.55 L229.05 43.15" fill="none" stroke="#000000" stroke-linecap="round" stroke-linejoin="round" stroke-opacity="0.6" stroke-width="1.0"/>
  </g>
</svg>
