<?xml version="1.0" encoding="UTF-8" standalone="no"?>
<svg xmlns:ffdec="https://www.free-decompiler.com/flash" xmlns:xlink="http://www.w3.org/1999/xlink" ffdec:objectType="shape" height="191.2px" width="605.1px" xmlns="http://www.w3.org/2000/svg">
  <g transform="matrix(1.0, 0.0, 0.0, 1.0, 5.5, -79.4)">
    <path d="M570.1 157.5 Q551.6 165.0 569.1 174.05 495.85 175.6 431.7 207.45 445.4 198.95 445.1 181.05 519.8 174.5 570.1 157.5 M-5.0 177.05 L-5.0 166.05 29.95 165.25 Q11.1 167.75 -5.0 177.05 M441.05 171.45 L441.0 171.45 437.05 164.55 Q432.6 157.55 426.3 150.25 466.75 159.7 507.2 163.15 472.2 163.45 441.05 171.45 M121.0 177.05 L128.2 192.7 79.0 173.05 Q109.3 182.5 121.0 177.05" fill="#996600" fill-rule="evenodd" stroke="none"/>
    <path d="M121.0 159.4 L136.85 189.3 Q132.55 190.85 128.2 192.7 L121.0 177.05 121.0 159.4 M137.9 226.2 Q142.7 217.05 148.3 210.55 175.0 179.5 219.05 208.05 286.65 196.4 341.75 222.45 L327.05 226.05 Q309.9 231.75 261.05 226.05 232.9 220.95 184.0 243.05 L161.75 234.95 137.9 226.2" fill="#cc3300" fill-rule="evenodd" stroke="none"/>
    <path d="M425.9 210.85 Q417.7 242.85 386.75 261.65 L400.8 225.45 411.35 219.3 425.9 210.85 M174.45 258.0 L159.0 260.1 Q143.15 247.65 137.9 226.2 L161.75 234.95 174.45 258.0 M121.0 141.75 Q123.45 135.3 126.4 129.2 131.1 119.45 137.0 110.7 148.65 93.45 165.0 80.05 179.45 79.6 193.95 80.35 L137.0 110.7 Q146.1 110.5 155.1 110.75 226.4 112.25 289.05 137.05 293.15 133.5 297.35 130.4 320.25 113.5 346.05 111.0 L383.95 113.65 387.9 116.6 351.05 122.05 Q327.0 123.95 314.45 139.65 347.5 127.1 341.05 154.05 362.6 124.8 388.1 117.15 L388.5 117.05 393.9 115.7 400.3 114.75 383.95 113.65 351.95 89.65 365.05 87.05 Q390.3 100.15 400.3 114.75 405.55 122.45 406.6 130.55 L406.65 130.6 Q418.05 140.7 426.3 150.25 432.6 157.55 437.05 164.55 L421.45 169.1 367.05 185.05 247.05 151.05 Q320.5 174.35 386.05 207.05 L426.55 188.25 426.6 188.3 426.6 188.25 441.0 171.45 441.05 171.45 Q443.55 176.35 445.1 181.05 445.4 198.95 431.7 207.45 L429.15 197.85 Q424.1 201.15 412.1 205.05 L379.05 213.2 Q330.15 205.4 222.05 192.7 184.15 172.05 136.85 189.3 L121.0 159.4 121.0 141.75 M121.0 159.4 L137.0 110.7 121.0 159.4" fill="#660000" fill-rule="evenodd" stroke="none"/>
    <path d="M406.6 130.55 Q516.3 162.7 599.1 150.05 585.3 152.55 576.45 155.25 572.85 156.35 570.1 157.5 519.8 174.5 445.1 181.05 443.55 176.35 441.05 171.45 472.2 163.45 507.2 163.15 466.75 159.7 426.3 150.25 418.05 140.7 406.65 130.6 L406.6 130.55 406.65 130.6 406.6 130.55 M135.35 208.4 Q71.25 172.9 -5.0 177.05 11.1 167.75 29.95 165.25 41.4 163.7 53.85 164.65 93.05 159.4 121.0 141.75 L121.0 159.4 121.0 177.05 Q109.3 182.5 79.0 173.05 L128.2 192.7 135.35 208.4 M29.95 165.25 L53.85 164.65 29.95 165.25" fill="#ffff99" fill-rule="evenodd" stroke="none"/>
    <path d="M388.1 117.15 L387.9 116.6 388.5 117.05 387.9 116.6 393.9 115.7 388.5 117.05 388.1 117.15 M297.35 130.4 Q293.15 133.5 289.05 137.05 226.4 112.25 155.1 110.75 154.85 100.7 181.0 94.0 229.1 88.85 267.9 112.55 L297.35 130.4 M379.05 213.2 L412.1 205.05 Q424.1 201.15 429.15 197.85 L431.7 207.45 426.0 210.35 425.9 210.85 411.35 219.3 Q401.3 216.75 379.05 213.2 M426.6 188.25 L426.6 188.3 426.55 188.25 426.6 188.25" fill="#ff9933" fill-rule="evenodd" stroke="none"/>
    <path d="M387.9 116.6 L383.95 113.65 400.3 114.75 393.9 115.7 387.9 116.6" fill="#e47301" fill-rule="evenodd" stroke="none"/>
    <path d="M386.75 261.65 Q379.1 266.25 370.05 270.1 L304.05 260.1 Q246.45 248.95 174.45 258.0 L161.75 234.95 184.0 243.05 Q232.9 220.95 261.05 226.05 309.9 231.75 327.05 226.05 L341.75 222.45 Q286.65 196.4 219.05 208.05 175.0 179.5 148.3 210.55 142.7 217.05 137.9 226.2 135.85 217.95 135.35 208.4 L128.2 192.7 Q132.55 190.85 136.85 189.3 184.15 172.05 222.05 192.7 330.15 205.4 379.05 213.2 401.3 216.75 411.35 219.3 L400.8 225.45 386.75 261.65 M193.95 80.35 Q236.5 82.5 279.05 95.05 321.35 94.9 351.95 89.65 L383.95 113.65 346.05 111.0 Q320.25 113.5 297.35 130.4 L267.9 112.55 Q229.1 88.85 181.0 94.0 154.85 100.7 155.1 110.75 146.1 110.5 137.0 110.7 L193.95 80.35 M387.9 116.6 L388.1 117.15 Q362.6 124.8 341.05 154.05 347.5 127.1 314.45 139.65 327.0 123.95 351.05 122.05 L387.9 116.6 M441.0 171.45 L426.6 188.25 426.55 188.25 386.05 207.05 Q320.5 174.35 247.05 151.05 L367.05 185.05 421.45 169.1 437.05 164.55 441.0 171.45" fill="#000000" fill-rule="evenodd" stroke="none"/>
    <path d="M406.6 130.55 Q516.3 162.7 599.1 150.05 585.3 152.55 576.45 155.25 572.85 156.35 570.1 157.5 551.6 165.0 569.1 174.05 495.85 175.6 431.7 207.45 L425.9 210.85 Q417.7 242.85 386.75 261.65 379.1 266.25 370.05 270.1 L304.05 260.1 Q246.45 248.95 174.45 258.0 L159.0 260.1 Q143.15 247.65 137.9 226.2 135.85 217.95 135.35 208.4 71.25 172.9 -5.0 177.05 L-5.0 166.05 29.95 165.25 Q41.4 163.7 53.85 164.65 93.05 159.4 121.0 141.75 123.45 135.3 126.4 129.2 131.1 119.45 137.0 110.7 148.65 93.45 165.0 80.05 179.45 79.6 193.95 80.35 236.5 82.5 279.05 95.05 321.35 94.9 351.95 89.65 L365.05 87.05 Q390.3 100.15 400.3 114.75 405.55 122.45 406.6 130.55 L406.65 130.6 406.6 130.55 M388.5 117.05 L387.9 116.6 M137.0 110.7 L121.0 159.4 121.0 177.05 128.2 192.7 135.35 208.4 M431.7 207.45 Q445.4 198.95 445.1 181.05 443.55 176.35 441.05 171.45 L441.0 171.45 437.05 164.55 Q432.6 157.55 426.3 150.25 418.05 140.7 406.65 130.6 M426.6 188.25 L426.6 188.3 M425.9 210.85 L411.35 219.3 M425.9 210.85 L426.0 210.35 431.7 207.45 M445.1 181.05 Q519.8 174.5 570.1 157.5 M53.85 164.65 L29.95 165.25 Q11.1 167.75 -5.0 177.05 M121.0 141.75 L121.0 159.4 M193.95 80.35 L137.0 110.7" fill="none" stroke="#000000" stroke-linecap="round" stroke-linejoin="round" stroke-opacity="0.4" stroke-width="1.0"/>
  </g>
</svg>
