<?xml version="1.0" encoding="UTF-8" standalone="no"?>
<svg xmlns:ffdec="https://www.free-decompiler.com/flash" xmlns:xlink="http://www.w3.org/1999/xlink" ffdec:objectType="shape" height="37.95px" width="58.1px" xmlns="http://www.w3.org/2000/svg">
  <g transform="matrix(1.0, 0.0, 0.0, 1.0, -259.2, -177.3)">
    <path d="M261.9 188.8 L261.65 189.3 261.95 188.85 262.5 188.1 Q263.25 186.9 264.3 185.95 267.6 182.65 272.25 181.25 L273.7 180.95 273.95 180.95 274.4 180.95 283.35 183.05 Q285.85 184.25 288.0 186.35 L290.85 189.5 Q293.6 193.1 294.4 197.45 L294.5 198.5 294.5 198.95 294.55 200.5 Q294.6 202.65 293.75 204.5 L293.5 205.0 292.25 206.95 289.45 210.65 287.0 212.8 286.2 213.15 283.8 213.8 279.8 214.2 275.4 213.65 Q273.2 213.1 271.05 212.05 L270.45 211.8 269.05 211.0 269.0 210.95 268.95 210.9 267.9 210.15 Q264.15 207.5 261.75 203.6 L261.45 203.1 261.65 203.65 261.3 203.1 260.3 201.15 Q259.2 198.9 259.2 196.3 259.2 192.7 261.3 189.7 L261.55 189.3 261.9 188.8 M276.25 184.15 L273.6 183.95 Q268.85 183.6 265.35 186.65 263.55 188.2 262.6 190.35 261.3 193.15 261.45 196.4 261.5 198.55 262.0 200.6 263.2 205.7 268.05 207.5 L268.8 208.0 Q270.35 209.65 272.25 210.9 275.85 213.2 279.1 210.7 L279.9 210.75 280.6 210.85 280.7 210.75 280.95 210.75 281.0 210.75 281.2 210.95 282.75 211.2 Q286.6 211.7 289.15 208.35 292.25 204.2 292.8 199.2 292.9 198.35 292.6 197.65 L290.85 193.45 Q288.45 188.4 283.45 186.15 280.25 184.7 276.9 184.2 L276.8 184.2 276.35 184.05 276.35 184.1 276.25 184.15" fill="#fff7f2" fill-rule="evenodd" stroke="none"/>
    <path d="M261.95 188.85 L261.9 188.8 Q263.3 185.8 265.9 183.3 268.8 180.5 272.35 179.15 L272.45 179.1 272.6 179.05 272.6 179.0 274.75 179.4 281.35 179.8 281.45 179.8 282.6 179.6 282.55 179.65 282.95 179.7 282.95 179.65 285.55 180.6 285.6 180.65 289.1 183.45 290.0 184.55 291.5 186.3 Q295.2 190.05 296.3 194.85 296.55 203.9 295.6 206.25 L295.45 206.55 Q295.15 207.1 294.7 207.05 288.95 213.55 287.3 214.5 L287.15 214.55 286.7 214.6 280.3 215.05 279.2 215.1 270.4 213.0 Q268.0 211.7 265.9 209.65 263.05 206.9 261.65 203.65 L261.75 203.6 Q264.15 207.5 267.9 210.15 L268.95 210.9 269.0 210.95 269.05 211.0 270.45 211.8 271.05 212.05 Q273.2 213.1 275.4 213.65 L279.8 214.2 283.8 213.8 286.35 213.15 287.0 212.8 289.45 210.65 292.25 206.95 293.5 205.0 293.75 204.5 Q294.6 202.65 294.55 200.5 L294.5 198.95 294.5 198.5 294.4 197.45 Q293.6 193.1 290.85 189.5 L288.0 186.35 Q285.85 184.25 283.35 183.05 L274.4 180.95 273.95 180.95 273.7 180.95 272.25 181.25 Q267.6 182.65 264.3 185.95 263.25 186.9 262.5 188.1 L261.95 188.85" fill="#7e450c" fill-rule="evenodd" stroke="none"/>
    <path d="M261.9 188.8 L261.95 188.85 261.65 189.3 261.9 188.8 M261.75 203.6 L261.65 203.65 261.45 203.1 261.75 203.6 M279.2 215.1 L280.3 215.05 279.5 215.15 279.4 215.15 279.2 215.1 M282.95 179.65 L282.95 179.7 282.7 179.6 282.95 179.65 M293.75 213.25 L292.0 213.6 292.65 213.4 293.0 213.35 294.05 213.2 293.75 213.25 293.0 213.35 293.75 213.25 M291.1 213.75 L289.75 214.1 289.45 214.15 291.1 213.75 M294.3 213.15 L294.6 213.2 294.45 213.2 294.25 213.2 294.3 213.15" fill="#fc9d87" fill-rule="evenodd" stroke="none"/>
    <path d="M279.9 210.75 L279.1 210.7 Q275.85 213.2 272.25 210.9 270.35 209.65 268.8 208.0 L268.05 207.5 Q263.2 205.7 262.0 200.6 261.5 198.55 261.45 196.4 261.3 193.15 262.6 190.35 263.55 188.2 265.35 186.65 268.85 183.6 273.6 183.95 L276.25 184.15 275.35 184.75 275.15 184.25 275.1 184.3 Q274.95 184.65 274.95 185.05 L274.75 185.65 Q268.7 186.2 266.0 191.3 L265.85 191.45 265.7 191.7 265.65 191.85 265.3 192.55 265.15 193.2 264.55 194.7 264.5 194.8 264.35 195.0 264.35 196.1 264.4 199.1 264.45 199.2 264.6 199.4 264.7 199.9 264.9 201.1 265.1 201.25 265.25 201.65 265.4 201.85 265.55 202.05 265.6 202.45 268.0 206.25 Q271.2 210.7 276.75 209.35 278.1 210.4 279.9 210.75 M276.8 184.2 L276.9 184.2 276.9 184.35 276.8 184.2 M281.0 210.75 L280.95 210.75 280.7 210.75 280.75 210.7 281.0 210.4 280.95 210.5 280.95 210.6 280.95 210.7 281.0 210.75 M267.15 191.95 L267.15 191.85 267.15 191.75 Q269.6 186.85 275.2 187.65 L275.3 187.55 275.4 187.45 275.45 187.35 276.05 188.0 276.15 188.3 276.45 189.3 276.55 189.35 Q277.05 189.7 277.05 190.35 L277.15 190.45 277.45 190.75 277.7 191.3 277.35 191.75 Q275.1 195.35 277.2 199.15 L277.0 199.85 276.55 200.85 Q274.25 203.25 274.3 206.75 L275.05 208.05 274.5 208.15 272.9 207.3 Q269.9 205.75 268.5 202.75 L268.4 202.3 267.4 200.1 Q266.75 198.6 266.55 197.0 266.25 194.9 266.65 192.85 L266.75 192.75 267.15 192.05 267.15 191.95 M278.7 192.55 L278.5 192.4 278.4 192.1 278.8 192.4 278.95 192.55 278.7 192.55 M282.45 194.9 L282.55 194.95 Q285.45 195.85 287.2 198.0 L288.05 199.4 288.2 200.15 Q288.1 207.15 281.85 209.95 L279.85 208.95 279.3 208.65 Q277.75 207.45 276.7 205.7 276.45 204.45 277.15 202.85 279.65 200.85 281.45 198.1 L281.5 197.9 281.55 197.7 281.6 197.6 Q282.5 196.35 282.45 194.9 M279.55 191.8 L279.85 191.95 280.15 192.5 279.55 191.8 M277.35 193.75 Q277.05 195.95 277.7 197.9 L277.65 197.85 Q276.9 195.85 277.35 193.75 M284.7 210.0 L283.9 210.0 284.15 209.9 Q285.15 209.35 285.95 208.55 L285.95 208.75 284.7 210.0" fill="#feb792" fill-rule="evenodd" stroke="none"/>
    <path d="M287.15 214.55 L287.3 214.5 287.35 214.55 287.15 214.55 M305.3 179.1 L305.15 179.1 305.3 179.1 M287.2 180.5 L287.1 180.5 287.1 180.55 287.05 180.55 285.8 180.4 287.2 180.5" fill="#fda599" fill-rule="evenodd" stroke="none"/>
    <path d="M287.3 214.5 Q288.95 213.55 294.7 207.05 295.15 207.1 295.45 206.55 L295.6 206.25 Q296.55 203.9 296.3 194.85 295.2 190.05 291.5 186.3 L290.0 184.55 Q295.0 181.95 297.05 186.45 299.05 190.9 300.4 194.9 301.15 200.95 299.4 205.55 L299.45 207.5 297.75 206.85 298.4 207.65 299.4 208.8 Q299.1 214.4 295.9 206.85 297.2 210.2 294.35 212.95 L294.25 213.05 294.05 213.2 293.0 213.35 Q289.8 213.6 287.35 214.55 L287.3 214.5 M305.15 179.1 L305.35 179.15 Q311.65 181.75 312.25 185.7 299.35 189.2 303.5 186.0 L300.25 182.0 292.7 177.8 305.15 179.1 M314.0 184.75 Q315.5 186.7 316.45 189.2 318.7 198.0 314.15 204.85 L314.0 205.1 313.55 205.7 312.85 206.55 312.9 206.55 312.3 207.2 311.3 208.3 311.15 208.45 311.05 208.5 310.95 208.65 309.4 209.35 309.35 209.6 305.95 210.3 307.05 207.1 306.75 207.35 308.15 203.25 Q309.5 194.65 306.75 192.25 L303.95 189.1 308.6 187.7 Q313.2 186.2 311.95 191.15 L314.0 184.75 M312.85 206.55 L312.3 207.2 312.85 206.55 M314.0 205.1 L313.55 205.7 314.0 205.1" fill="#ab5e10" fill-rule="evenodd" stroke="none"/>
    <path d="M290.0 184.55 L289.1 183.45 285.6 180.65 285.8 180.4 285.55 180.6 282.95 179.65 282.7 179.6 282.65 179.55 282.55 179.55 277.5 178.6 280.35 177.7 289.0 177.4 292.7 177.8 300.25 182.0 303.5 186.0 Q299.35 189.2 312.25 185.7 311.65 181.75 305.35 179.15 310.85 180.65 314.0 184.75 L311.95 191.15 Q313.2 186.2 308.6 187.7 L303.95 189.1 306.75 192.25 Q309.5 194.65 308.15 203.25 L306.75 207.35 307.05 207.1 305.95 210.3 301.25 211.3 301.5 211.6 297.8 212.85 297.1 213.1 297.05 213.1 294.6 213.2 294.35 212.95 Q297.2 210.2 295.9 206.85 299.1 214.4 299.4 208.8 L298.4 207.65 297.75 206.85 299.45 207.5 299.4 205.55 Q301.15 200.95 300.4 194.9 299.05 190.9 297.05 186.45 295.0 181.95 290.0 184.55 M304.4 199.65 L305.5 199.45 305.5 199.4 304.4 199.65 M303.85 208.7 L303.95 208.6 303.7 208.75 303.85 208.7 M287.2 180.5 L285.8 180.4 287.05 180.55 287.1 180.55 287.1 180.5 287.2 180.5 M303.25 193.45 L303.25 193.5 303.3 193.65 303.3 193.6 303.35 193.45 303.2 193.25 303.25 193.45" fill="#bd6611" fill-rule="evenodd" stroke="none"/>
    <path d="M285.6 180.65 L285.55 180.6 285.8 180.4 285.6 180.65 M282.95 179.7 L282.55 179.65 282.7 179.6 282.95 179.7 M281.35 179.8 L274.75 179.4 272.6 179.0 272.6 179.05 272.5 179.0 277.5 178.6 282.55 179.55 281.35 179.8 M310.45 209.05 L309.7 209.55 309.3 209.8 309.35 209.6 309.4 209.35 310.95 208.65 310.45 209.05 M294.05 213.2 L294.25 213.05 294.3 213.15 294.05 213.2" fill="#fc8b70" fill-rule="evenodd" stroke="none"/>
    <path d="M279.9 210.75 Q278.1 210.4 276.75 209.35 271.2 210.7 268.0 206.25 L265.6 202.45 265.55 202.05 265.4 201.85 265.25 201.65 265.1 201.25 264.9 201.1 264.7 199.9 264.6 199.4 264.45 199.2 264.4 199.1 264.35 196.1 264.35 195.0 264.5 194.8 264.55 194.7 265.15 193.2 265.3 192.55 265.65 191.85 265.7 191.7 265.85 191.45 266.0 191.3 Q268.7 186.2 274.75 185.65 L274.95 185.05 Q274.95 184.65 275.1 184.3 L275.15 184.25 275.35 184.75 276.25 184.15 276.35 184.1 276.35 184.05 276.8 184.2 276.9 184.35 276.9 184.4 276.9 184.6 276.85 184.8 276.05 185.5 276.05 186.0 276.05 186.2 276.25 186.5 276.35 186.8 Q276.95 187.35 277.15 188.2 L279.85 191.25 281.5 193.1 281.55 193.05 282.1 193.4 282.25 193.65 Q285.2 194.0 287.8 195.65 L287.95 195.7 288.6 196.65 289.1 197.2 Q289.75 199.7 289.25 202.35 L288.55 204.85 287.75 207.2 287.7 207.3 287.65 207.4 287.55 207.45 287.55 207.7 287.55 207.85 287.5 207.95 287.3 208.25 287.1 208.45 Q286.55 210.2 284.8 210.85 L282.75 211.2 281.2 210.95 281.0 210.75 280.95 210.7 280.95 210.6 280.95 210.5 281.0 210.4 280.75 210.7 280.7 210.75 280.6 210.85 279.9 210.75 M267.15 191.95 L267.15 192.05 266.75 192.75 266.65 192.85 Q266.25 194.9 266.55 197.0 266.75 198.6 267.4 200.1 L268.4 202.3 268.5 202.75 Q269.9 205.75 272.9 207.3 L274.5 208.15 275.05 208.05 274.3 206.75 Q274.25 203.25 276.55 200.85 L277.0 199.85 277.2 199.15 Q275.1 195.35 277.35 191.75 L277.7 191.3 277.45 190.75 277.15 190.45 277.05 190.35 Q277.05 189.7 276.55 189.35 L276.45 189.3 276.15 188.3 276.05 188.0 275.45 187.35 275.4 187.45 275.3 187.55 275.2 187.65 Q269.6 186.85 267.15 191.75 L267.15 191.85 267.15 191.95 M279.55 191.8 L280.15 192.5 279.85 191.95 279.55 191.8 M282.45 194.9 Q282.5 196.35 281.6 197.6 L281.55 197.7 281.5 197.9 281.45 198.1 Q279.65 200.85 277.15 202.85 276.45 204.45 276.7 205.7 277.75 207.45 279.3 208.65 L279.85 208.95 281.85 209.95 Q288.1 207.15 288.2 200.15 L288.05 199.4 287.2 198.0 Q285.45 195.85 282.55 194.95 L282.45 194.9 M278.7 192.55 L278.95 192.55 278.8 192.4 278.4 192.1 278.5 192.4 278.7 192.55 M279.05 193.8 L278.7 193.6 Q278.4 193.6 278.25 193.85 L278.2 194.15 278.55 195.3 278.55 195.35 278.7 195.85 278.65 196.0 278.35 196.6 278.3 196.9 278.35 197.2 Q278.65 197.55 279.05 197.4 L279.2 197.15 Q280.05 195.55 279.1 193.85 L279.05 193.8 M277.35 193.75 Q276.9 195.85 277.65 197.85 L277.7 197.9 Q277.05 195.95 277.35 193.75 M265.35 198.65 L265.9 200.6 268.35 205.25 268.7 205.5 Q269.35 207.0 270.9 207.7 L271.5 207.8 Q272.35 208.6 273.55 208.7 L269.35 206.2 Q267.6 203.25 266.45 200.05 265.45 197.7 265.35 195.35 L265.35 198.55 265.35 198.65 M284.7 210.0 L285.95 208.75 285.95 208.55 Q285.15 209.35 284.15 209.9 L283.9 210.0 284.7 210.0" fill="#febda5" fill-rule="evenodd" stroke="none"/>
    <path d="M276.9 184.2 Q280.25 184.7 283.45 186.15 288.45 188.4 290.85 193.45 L292.6 197.65 Q292.9 198.35 292.8 199.2 292.25 204.2 289.15 208.35 286.6 211.7 282.75 211.2 L284.8 210.85 Q286.55 210.2 287.1 208.45 L287.3 208.25 287.5 207.95 287.55 207.85 287.55 207.7 287.55 207.45 287.65 207.4 287.7 207.3 287.75 207.2 288.55 204.85 289.25 202.35 Q289.75 199.7 289.1 197.2 L288.6 196.65 287.95 195.7 287.8 195.65 Q285.2 194.0 282.25 193.65 L282.1 193.4 281.55 193.05 281.5 193.1 279.85 191.25 277.15 188.2 Q276.95 187.35 276.35 186.8 L276.25 186.5 276.05 186.2 276.05 186.0 276.05 185.5 276.85 184.8 276.9 184.6 276.9 184.4 276.9 184.35 276.9 184.2 M279.05 193.8 L279.1 193.85 Q280.05 195.55 279.2 197.15 L279.05 197.4 Q278.65 197.55 278.35 197.2 L278.3 196.9 278.35 196.6 278.65 196.0 278.7 195.85 278.55 195.35 278.55 195.3 278.2 194.15 278.25 193.85 Q278.4 193.6 278.7 193.6 L279.05 193.8 M265.35 198.65 L265.35 198.55 265.35 195.35 Q265.45 197.7 266.45 200.05 267.6 203.25 269.35 206.2 L273.55 208.7 Q272.35 208.6 271.5 207.8 L270.9 207.7 Q269.35 207.0 268.7 205.5 L268.35 205.25 265.9 200.6 265.35 198.65" fill="#fda382" fill-rule="evenodd" stroke="none"/>
    <path d="M292.0 213.6 L291.25 213.75 291.2 213.75 291.1 213.75 289.45 214.15 287.35 214.55 Q289.8 213.6 293.0 213.35 L292.65 213.4 292.0 213.6 M303.35 193.45 L303.25 193.45 303.2 193.25 303.35 193.45" fill="#fa6541" fill-rule="evenodd" stroke="none"/>
    <path d="M294.35 212.95 L294.6 213.2 294.3 213.15 294.25 213.05 294.35 212.95" fill="#ea821a" fill-rule="evenodd" stroke="none"/>
    <path d="M270.4 213.0 L279.2 215.1 280.3 215.05 285.1 214.95 286.75 214.8 289.45 214.15 291.1 213.75 M286.7 214.6 L287.15 214.55 287.3 214.5 Q288.95 213.55 294.7 207.05 295.15 207.1 295.45 206.55 L295.6 206.25 Q296.55 203.9 296.3 194.85 295.2 190.05 291.5 186.3 L290.0 184.55 289.1 183.45 285.6 180.65 285.55 180.6 282.95 179.65 282.7 179.6 282.65 179.55 M305.15 179.1 L305.35 179.15 Q310.85 180.65 314.0 184.75 315.5 186.7 316.45 189.2 318.7 198.0 314.15 204.85 M314.0 205.1 L313.55 205.7 M312.9 206.55 L312.3 207.2 311.3 208.3 311.15 208.45 M310.95 208.65 L310.7 208.9 310.45 209.05 309.7 209.55 309.3 209.8 M297.05 213.1 L295.15 213.2 293.75 213.25 293.0 213.35 294.05 213.2 M292.0 213.6 L291.25 213.75 M279.4 215.15 L279.2 215.1 M305.15 179.1 L292.7 177.8 289.0 177.4 280.35 177.7 277.5 178.6 282.55 179.55 M305.15 179.1 L305.3 179.1 M310.95 208.65 L310.45 209.05 M261.55 189.3 Q262.95 186.0 265.75 183.3 268.7 180.5 272.25 179.15 L272.5 179.0 277.5 178.6 M270.4 213.0 Q267.9 211.7 265.75 209.65 262.7 206.7 261.3 203.1 M287.35 214.55 Q289.8 213.6 293.0 213.35 L292.65 213.4 292.0 213.6 M294.3 213.15 L294.6 213.2" ffdec:has-small-stroke="true" ffdec:original-stroke-width="0.25" fill="none" stroke="#de7307" stroke-linecap="round" stroke-linejoin="round" stroke-width="1.0"/>
    <path d="M314.15 204.85 L314.0 205.1 313.55 205.7 312.85 206.55 312.3 207.2" ffdec:has-small-stroke="true" ffdec:original-stroke-width="0.05" fill="none" stroke="#d85107" stroke-linecap="round" stroke-linejoin="round" stroke-opacity="0.87058824" stroke-width="1.0"/>
    <path d="M295.05 181.65 L297.65 183.5 300.3 181.8 299.3 184.8 301.8 186.85 298.6 186.8 297.45 189.8 296.45 186.75 293.3 186.6 295.9 184.7 295.05 181.65 M311.3 187.35 L309.65 188.9 310.55 191.0 308.55 189.9 306.85 191.35 307.25 189.15 305.35 187.95 307.6 187.65 308.1 185.5 309.05 187.5 311.3 187.35 M308.0 201.5 L305.15 200.9 307.75 199.6 307.45 196.65 309.55 198.75 312.2 197.55 310.9 200.15 312.85 202.35 309.95 201.9 308.5 204.45 308.0 201.5" fill="#fbebd2" fill-rule="evenodd" stroke="none"/>
  </g>
</svg>
