<?xml version="1.0" encoding="UTF-8" standalone="no"?>
<svg xmlns:ffdec="https://www.free-decompiler.com/flash" xmlns:xlink="http://www.w3.org/1999/xlink" ffdec:objectType="shape" height="60.15px" width="92.0px" xmlns="http://www.w3.org/2000/svg">
  <g transform="matrix(1.0, 0.0, 0.0, 1.0, -229.45, -170.4)">
    <path d="M242.95 181.5 L241.85 184.75 244.7 187.8 246.65 190.15 248.25 186.3 249.65 185.65 248.55 188.85 247.7 191.45 248.15 192.05 252.55 198.05 Q254.85 191.75 257.65 185.4 L257.7 185.25 258.25 184.05 258.85 182.7 260.2 182.5 260.65 182.45 261.2 182.4 262.5 183.8 264.0 185.5 265.85 187.8 266.6 186.15 267.25 184.75 268.4 182.15 269.6 182.3 269.45 182.7 268.5 185.3 267.1 189.35 270.65 193.85 271.9 195.55 275.55 187.35 276.2 185.9 276.95 184.2 277.1 183.95 278.35 184.4 278.6 184.5 Q282.5 186.05 286.35 188.55 L287.95 189.7 289.95 191.2 290.85 192.2 291.8 193.4 292.7 194.65 293.2 195.25 293.85 196.2 294.75 197.35 298.5 189.1 298.9 188.4 299.25 187.75 297.7 186.3 295.75 184.45 294.5 183.25 293.6 182.4 291.75 180.7 291.45 180.45 291.35 180.45 291.4 180.55 291.2 181.1 290.2 183.7 290.0 184.15 289.75 184.75 288.95 186.9 288.6 187.85 287.3 186.5 287.4 186.35 288.4 184.3 288.75 183.5 290.3 180.6 Q290.45 180.1 290.7 179.75 L290.55 179.65 290.1 179.3 290.0 179.2 289.0 178.2 287.65 176.8 286.95 176.1 286.6 175.85 285.8 174.85 285.7 174.7 285.45 174.45 284.2 173.2 283.65 172.65 283.6 172.65 283.55 172.55 283.55 172.4 283.55 172.3 283.55 172.4 283.55 172.55 283.25 173.4 283.0 174.0 282.65 175.1 282.15 176.6 281.75 177.7 280.15 181.1 279.75 180.85 Q279.3 180.55 278.9 180.4 L278.7 180.3 278.75 180.15 279.5 178.85 280.3 177.45 280.8 176.5 281.7 174.9 282.6 173.2 282.75 172.95 282.8 172.8 283.05 172.45 283.1 172.4 283.15 172.35 283.25 172.35 283.3 172.25 283.4 172.25 283.55 172.3 Q288.25 173.3 293.2 175.0 L293.65 175.2 293.95 175.3 295.6 176.8 296.75 178.0 298.05 179.3 299.7 181.0 301.55 182.95 301.55 183.0 301.6 183.0 302.65 184.15 303.0 184.45 304.3 185.9 305.05 186.7 306.0 187.8 307.1 189.1 308.1 190.35 308.7 191.0 309.45 191.95 310.45 193.15 310.8 193.5 311.05 193.8 311.5 192.95 311.65 192.75 312.45 191.1 313.65 192.95 313.45 193.4 313.1 194.4 312.6 195.65 312.6 195.8 313.15 196.35 314.0 197.35 315.2 198.95 315.45 199.25 317.3 201.55 317.75 202.1 317.95 202.5 318.05 202.6 318.1 202.6 319.1 205.3 318.1 202.6 318.4 202.9 319.1 205.3 319.55 206.85 318.3 205.65 318.1 205.4 317.25 204.55 317.2 204.55 315.6 202.9 315.15 202.4 314.5 201.8 314.3 201.6 312.9 200.3 312.5 199.95 311.7 199.15 311.4 198.9 311.4 198.8 306.0 212.7 305.6 213.65 304.7 216.0 300.7 217.3 303.2 210.95 301.65 209.3 301.5 209.1 300.75 208.3 300.7 208.25 299.25 206.65 298.9 206.25 298.3 205.65 298.1 205.4 296.9 204.15 296.5 203.85 295.8 203.05 295.55 202.85 290.95 215.0 289.4 218.95 288.75 220.35 288.6 220.9 288.5 220.9 288.3 220.9 285.8 221.55 286.65 218.65 285.5 217.15 283.75 214.8 283.25 214.2 282.6 213.45 281.1 211.6 280.95 211.4 280.3 210.6 280.25 210.55 280.25 210.6 279.25 213.3 277.8 217.05 277.2 218.4 276.0 221.45 275.0 223.7 273.25 224.05 274.2 220.5 Q275.95 214.3 278.2 208.15 L278.05 207.95 277.0 206.8 276.7 206.45 276.1 205.7 274.85 204.3 273.75 203.1 272.2 201.5 268.5 211.7 267.15 215.3 266.6 216.65 265.55 219.3 266.35 220.75 268.15 224.0 268.2 224.1 268.5 224.75 268.2 224.75 268.0 224.4 266.55 222.2 265.2 220.2 264.95 220.85 264.9 220.9 264.05 222.95 263.15 225.1 262.7 225.15 262.15 225.1 262.75 222.6 263.7 219.1 263.8 218.75 263.8 218.65 263.9 218.4 262.8 216.95 262.7 216.75 262.15 216.0 261.05 214.6 260.8 214.2 260.35 213.65 260.2 213.5 259.3 212.35 259.05 212.05 258.95 212.25 258.6 213.15 258.1 214.4 257.05 217.25 255.7 220.5 253.9 224.8 253.4 224.8 254.5 220.2 255.5 216.4 257.4 210.2 257.45 209.95 256.5 208.85 254.45 206.3 252.7 204.15 252.6 204.3 251.35 208.05 250.1 211.4 249.6 212.65 248.75 214.9 248.35 214.75 247.35 214.05 Q248.95 208.15 251.0 202.3 L251.1 202.15 247.25 197.4 246.65 196.65 246.15 196.05 246.1 196.2 243.0 205.3 242.0 208.1 241.25 207.2 241.35 207.9 241.6 209.2 Q242.9 214.95 245.8 217.25 245.8 217.05 245.9 217.25 L246.45 217.5 247.35 217.85 247.5 218.1 248.15 219.25 248.4 219.75 248.8 220.5 250.4 223.5 250.6 223.9 250.9 224.45 249.4 224.15 249.25 223.95 248.95 223.45 248.15 222.45 247.95 222.15 247.55 221.5 246.7 220.4 246.65 220.3 245.4 223.25 245.3 223.25 245.0 223.15 245.95 219.4 246.0 219.4 245.95 219.35 245.95 219.4 240.55 212.0 237.75 219.1 237.65 219.0 239.65 210.8 238.8 209.6 236.45 206.4 235.2 204.6 232.85 210.85 232.45 209.55 Q233.25 206.25 234.2 203.05 L234.05 202.85 233.0 201.15 231.95 199.55 231.5 198.85 231.9 196.0 232.35 196.45 232.7 196.8 233.25 197.3 235.25 199.55 Q237.15 193.5 239.55 187.5 L239.6 187.35 238.85 186.3 238.55 185.9 238.3 185.4 239.8 184.05 240.5 183.45 241.0 183.85 241.55 182.6 242.95 181.5 M248.75 185.2 Q250.25 181.6 252.05 177.95 L251.55 177.35 250.95 176.6 250.95 176.45 253.25 175.15 253.3 175.4 253.4 175.2 253.45 175.3 253.55 175.4 253.65 175.45 253.95 175.65 254.7 176.3 254.75 176.3 256.05 177.4 257.4 178.6 Q255.65 179.45 254.05 180.6 L253.35 179.7 253.0 179.3 252.35 178.4 250.4 183.6 248.75 185.2 M261.65 176.8 L264.15 171.8 264.3 171.5 264.5 171.4 264.4 171.65 262.4 176.55 261.65 176.8 M241.45 189.9 L241.2 189.55 240.55 188.7 240.5 188.85 236.45 201.0 236.85 201.5 240.75 207.0 Q242.55 200.85 244.85 194.7 L244.95 194.55 244.25 193.75 242.2 191.05 242.0 190.75 241.45 189.9 M274.6 171.1 L274.55 171.35 274.45 171.95 274.2 172.8 273.8 173.95 272.7 177.1 272.6 177.45 271.6 177.1 270.95 176.85 270.55 176.75 270.6 176.6 271.35 175.05 272.15 173.65 272.85 172.55 273.45 171.85 273.8 171.5 274.15 171.1 274.6 171.1 M262.3 190.45 L260.6 188.6 259.5 187.45 258.75 186.55 258.1 188.45 254.0 200.25 255.7 202.8 256.75 204.45 257.2 205.3 258.1 206.65 258.25 206.9 258.35 207.1 Q260.8 199.75 263.95 192.3 L263.0 191.2 262.3 190.45 M276.1 190.65 L273.5 197.85 273.95 198.45 274.5 199.3 275.5 200.7 275.7 201.0 276.85 202.7 277.3 203.3 277.9 204.2 278.85 205.6 279.0 205.95 Q281.55 199.0 284.75 192.05 L283.35 190.65 281.6 188.85 280.5 187.7 279.7 186.9 278.05 185.25 277.6 186.45 276.1 190.65 M269.1 198.0 L265.45 194.0 259.9 209.65 260.15 209.95 260.9 211.3 262.2 213.55 262.55 214.05 262.7 214.45 263.35 215.5 264.2 217.0 264.3 217.1 Q266.85 208.25 270.4 199.4 L269.1 198.0 M302.5 190.65 L301.15 189.45 300.7 189.0 300.3 190.35 299.65 192.0 296.65 199.9 297.15 200.4 297.9 201.4 298.95 202.9 299.2 203.2 300.8 205.4 301.2 205.95 301.4 206.3 301.5 206.4 302.35 207.65 303.55 209.3 303.8 209.55 Q306.35 203.3 309.45 197.05 L308.9 196.6 308.55 196.25 306.55 194.45 305.45 193.35 304.15 192.15 302.5 190.65 M287.6 194.85 L286.45 193.7 280.9 208.8 280.95 208.9 281.65 210.0 282.7 211.6 283.8 213.3 285.2 215.55 286.85 218.25 Q289.65 209.4 293.35 200.6 L293.05 200.25 291.25 198.55 290.25 197.45 289.1 196.35 287.6 194.85" fill="url(#gradient0)" fill-rule="evenodd" stroke="none"/>
    <path d="M242.95 181.5 L241.55 182.6 240.5 183.45 239.8 184.05 238.3 185.4 238.2 185.45 236.65 187.2 Q233.35 190.75 232.2 194.8 L231.9 196.0 231.5 198.85 Q231.2 202.0 231.55 206.3 L232.45 209.55 232.85 210.85 Q234.7 215.95 237.65 219.0 L237.75 219.1 Q240.75 222.2 245.0 223.15 L245.3 223.25 245.4 223.25 246.15 223.45 246.3 223.5 249.4 224.15 250.9 224.45 253.4 224.8 253.9 224.8 259.7 225.2 262.15 225.1 262.7 225.15 263.15 225.1 268.2 224.75 268.5 224.75 272.4 224.25 273.25 224.05 275.0 223.7 275.95 223.55 285.8 221.55 288.3 220.9 288.5 220.9 288.6 220.9 300.7 217.3 304.7 216.0 307.0 215.3 307.6 215.15 313.75 212.9 Q314.55 212.4 315.5 212.35 317.75 211.1 320.35 210.35 L319.55 206.85 319.1 205.3 321.45 211.6 Q321.15 212.0 312.4 215.45 303.25 219.05 300.45 219.65 280.7 225.3 279.15 225.45 L263.7 227.55 253.55 226.5 Q245.75 225.5 243.85 224.8 237.5 222.45 236.35 221.7 233.3 219.6 231.45 214.4 L231.35 214.05 Q230.25 211.0 229.5 207.3 L229.45 204.75 Q229.45 201.3 229.8 197.85 L229.95 196.2 230.15 194.7 230.15 194.6 Q230.45 192.65 235.15 187.45 L239.9 182.5 Q241.2 181.3 249.55 176.6 258.2 171.65 260.3 171.15 L274.4 170.65 274.55 170.65 284.7 171.75 Q294.65 173.75 297.4 174.9 305.5 178.25 311.5 186.5 312.3 187.55 316.05 197.35 314.95 195.05 313.65 192.95 L312.45 191.1 Q308.8 185.55 303.85 181.15 L303.0 180.3 299.05 177.15 293.95 175.3 293.65 175.2 293.2 175.0 Q288.25 173.3 283.55 172.3 L283.4 172.25 283.3 172.25 283.4 172.15 283.45 172.1 283.5 172.15 283.55 172.3 283.5 172.15 283.45 172.1 283.4 172.15 283.3 172.25 283.25 172.25 283.25 172.35 283.15 172.35 283.1 172.4 283.05 172.45 283.0 172.4 283.1 172.25 Q278.75 171.3 274.6 171.1 L274.15 171.1 274.1 171.1 274.1 171.15 273.95 171.1 269.5 171.0 265.65 171.25 264.5 171.4 264.3 171.5 258.0 172.65 253.7 174.9 253.5 175.0 253.25 175.15 250.95 176.45 250.85 176.45 Q246.3 178.95 242.95 181.5 M274.1 171.1 L273.95 171.1 274.1 171.1 M283.1 172.25 L283.25 172.25 283.1 172.25" fill="#ffffe1" fill-rule="evenodd" stroke="none"/>
    <path d="M248.25 186.3 L246.65 190.15 244.7 187.8 241.85 184.75 242.95 181.5 Q246.3 178.95 250.85 176.45 L250.95 176.45 250.95 176.6 251.55 177.35 252.05 177.95 Q250.25 181.6 248.75 185.2 L247.25 186.85 248.25 186.3 M241.55 182.6 L241.0 183.85 240.5 183.45 241.55 182.6 M238.3 185.4 L238.55 185.9 238.85 186.3 239.6 187.35 239.55 187.5 Q237.15 193.5 235.25 199.55 L233.25 197.3 232.7 196.8 232.35 196.45 231.9 196.0 232.2 194.8 Q233.35 190.75 236.65 187.2 L238.2 185.45 238.3 185.4 M231.5 198.85 L231.95 199.55 233.0 201.15 234.05 202.85 234.2 203.05 Q233.25 206.25 232.45 209.55 L231.55 206.3 Q231.2 202.0 231.5 198.85 M232.85 210.85 L235.2 204.6 236.45 206.4 238.8 209.6 239.65 210.8 237.65 219.0 Q234.7 215.95 232.85 210.85 M237.75 219.1 L240.55 212.0 245.95 219.4 245.95 219.35 246.0 219.4 245.95 219.4 245.0 223.15 Q240.75 222.2 237.75 219.1 M245.4 223.25 L246.65 220.3 246.7 220.4 247.55 221.5 247.95 222.15 248.15 222.45 248.95 223.45 249.25 223.95 249.4 224.15 246.3 223.5 246.15 223.45 245.4 223.25 M250.9 224.45 L250.6 223.9 250.4 223.5 248.8 220.5 248.4 219.75 248.15 219.25 247.5 218.1 247.35 217.85 247.5 217.9 247.55 217.9 248.45 218.1 Q251.4 218.55 254.45 216.45 251.85 216.3 249.6 215.3 L248.75 214.9 249.6 212.65 250.1 211.4 251.35 208.05 252.6 204.3 252.7 204.15 254.45 206.3 256.5 208.85 257.45 209.95 257.4 210.2 255.5 216.4 254.5 220.2 253.4 224.8 250.9 224.45 M242.0 208.1 L243.0 205.3 246.1 196.2 246.15 196.05 246.65 196.65 247.25 197.4 251.1 202.15 251.0 202.3 Q248.95 208.15 247.35 214.05 L245.95 212.8 242.0 208.1 M253.9 224.8 L255.7 220.5 257.05 217.25 258.1 214.4 258.6 213.15 258.95 212.25 259.05 212.05 259.3 212.35 260.2 213.5 260.35 213.65 260.8 214.2 261.05 214.6 262.15 216.0 262.7 216.75 262.8 216.95 263.9 218.4 263.8 218.65 263.8 218.75 263.7 219.1 262.75 222.6 262.15 225.1 259.7 225.2 253.9 224.8 M263.15 225.1 L264.05 222.95 264.9 220.9 264.95 220.85 265.2 220.2 266.55 222.2 268.0 224.4 268.2 224.75 263.15 225.1 M268.5 224.75 L268.2 224.1 268.15 224.0 266.35 220.75 265.55 219.3 266.6 216.65 267.15 215.3 268.5 211.7 272.2 201.5 273.75 203.1 274.85 204.3 276.1 205.7 276.7 206.45 277.0 206.8 278.05 207.95 278.2 208.15 Q275.95 214.3 274.2 220.5 L273.25 224.05 272.4 224.25 268.5 224.75 M275.0 223.7 L276.0 221.45 277.2 218.4 277.8 217.05 279.25 213.3 280.25 210.6 280.25 210.55 280.3 210.6 280.95 211.4 281.1 211.6 282.6 213.45 283.25 214.2 283.75 214.8 285.5 217.15 286.65 218.65 285.8 221.55 275.95 223.55 275.0 223.7 M288.6 220.9 L288.75 220.35 289.4 218.95 290.95 215.0 295.55 202.85 295.8 203.05 296.5 203.85 296.9 204.15 298.1 205.4 298.3 205.65 298.9 206.25 299.25 206.65 300.7 208.25 300.75 208.3 301.5 209.1 301.65 209.3 303.2 210.95 300.7 217.3 288.6 220.9 M304.7 216.0 L305.6 213.65 306.0 212.7 311.4 198.8 311.4 198.9 311.7 199.15 312.5 199.95 312.9 200.3 314.3 201.6 314.5 201.8 315.15 202.4 315.6 202.9 317.2 204.55 317.25 204.55 318.1 205.4 318.3 205.65 319.55 206.85 320.35 210.35 Q317.75 211.1 315.5 212.35 314.55 212.4 313.75 212.9 L307.6 215.15 307.0 215.3 304.7 216.0 M318.1 202.6 L318.05 202.6 317.95 202.5 317.75 202.1 317.3 201.55 315.45 199.25 315.2 198.95 314.0 197.35 313.15 196.35 312.6 195.8 312.6 195.65 313.1 194.4 313.45 193.4 313.65 192.95 Q314.95 195.05 316.05 197.35 L316.9 199.15 318.4 202.9 318.1 202.6 316.05 197.35 318.1 202.6 M312.45 191.1 L311.65 192.75 311.5 192.95 311.05 193.8 310.8 193.5 310.45 193.15 309.45 191.95 308.7 191.0 308.1 190.35 307.1 189.1 306.0 187.8 305.05 186.7 304.3 185.9 303.0 184.45 302.65 184.15 301.6 183.0 301.55 183.0 301.55 182.95 299.7 181.0 298.05 179.3 296.75 178.0 295.6 176.8 293.95 175.3 299.05 177.15 303.0 180.3 303.85 181.15 Q308.8 185.55 312.45 191.1 M283.55 172.55 L283.6 172.65 283.65 172.65 284.2 173.2 285.45 174.45 285.7 174.7 285.8 174.85 286.6 175.85 286.95 176.1 287.65 176.8 289.0 178.2 290.0 179.2 290.1 179.3 290.55 179.65 290.7 179.75 Q290.45 180.1 290.3 180.6 L288.75 183.5 288.4 184.3 287.4 186.35 287.3 186.5 Q285.0 184.4 282.6 182.75 L280.15 181.1 281.75 177.7 282.15 176.6 282.65 175.1 283.0 174.0 283.25 173.4 283.55 172.55 M288.6 187.85 L288.95 186.9 289.75 184.75 290.0 184.15 290.2 183.7 291.2 181.1 291.4 180.55 291.35 180.45 291.45 180.45 291.75 180.7 293.6 182.4 294.5 183.25 295.75 184.45 297.7 186.3 299.25 187.75 298.9 188.4 298.5 189.1 294.75 197.35 293.85 196.2 293.2 195.25 292.7 194.65 291.8 193.4 290.85 192.2 289.95 191.2 294.55 195.15 Q291.85 191.1 288.6 187.85 M277.1 183.95 L276.95 184.2 276.2 185.9 275.55 187.35 271.9 195.55 270.65 193.85 267.1 189.35 268.5 185.3 269.45 182.7 269.6 182.3 270.65 182.45 Q273.6 182.8 276.55 183.8 L277.1 183.95 M268.4 182.15 L267.25 184.75 266.6 186.15 265.85 187.8 264.0 185.5 262.5 183.8 261.2 182.4 Q261.25 182.3 261.3 182.35 L268.4 182.15 M258.85 182.7 L258.25 184.05 257.7 185.25 257.65 185.4 Q254.85 191.75 252.55 198.05 L248.15 192.05 247.7 191.45 248.55 188.85 249.65 185.65 Q252.95 184.2 256.2 183.35 L258.85 182.7 M241.45 189.9 L242.0 190.75 242.2 191.05 244.25 193.75 244.95 194.55 244.85 194.7 Q242.55 200.85 240.75 207.0 L236.85 201.5 236.45 201.0 240.5 188.85 240.55 188.7 241.2 189.55 241.45 189.9 M264.3 171.5 L264.15 171.8 261.65 176.8 Q259.45 177.5 257.4 178.6 L256.05 177.4 254.75 176.3 254.7 176.3 253.95 175.65 253.65 175.45 253.55 175.4 253.45 175.3 253.4 175.2 253.3 175.4 253.25 175.15 253.5 175.0 253.7 174.9 258.0 172.65 264.3 171.5 M262.4 176.55 L264.4 171.65 264.5 171.4 265.65 171.25 269.5 171.0 273.95 171.1 274.1 171.15 274.1 171.1 274.15 171.1 273.8 171.5 273.45 171.85 272.85 172.55 272.15 173.65 271.35 175.05 270.6 176.6 270.55 176.75 270.1 176.55 266.35 175.55 Q265.05 175.75 263.9 176.1 L263.8 176.1 Q263.05 176.25 262.4 176.55 M272.6 177.45 L272.7 177.1 273.8 173.95 274.2 172.8 274.45 171.95 274.55 171.35 274.6 171.1 Q278.75 171.3 283.1 172.25 L283.0 172.4 283.05 172.45 282.8 172.8 282.75 172.95 282.6 173.2 281.7 174.9 280.8 176.5 280.3 177.45 279.5 178.85 278.75 180.15 278.7 180.3 Q275.75 178.65 272.6 177.45 M283.3 172.25 L283.25 172.35 283.25 172.25 283.3 172.25 M250.4 183.6 L252.35 178.4 253.0 179.3 253.35 179.7 254.05 180.6 Q252.15 181.9 250.4 183.6 M262.3 190.45 L263.0 191.2 263.95 192.3 Q260.8 199.75 258.35 207.1 L258.25 206.9 258.1 206.65 257.2 205.3 256.75 204.45 255.7 202.8 254.0 200.25 258.1 188.45 258.75 186.55 259.5 187.45 260.6 188.6 262.3 190.45 M269.1 198.0 L270.4 199.4 Q266.85 208.25 264.3 217.1 L264.2 217.0 263.35 215.5 262.7 214.45 262.55 214.05 262.2 213.55 260.9 211.3 260.15 209.95 259.9 209.65 265.45 194.0 269.1 198.0 M276.1 190.65 L277.6 186.45 278.05 185.25 279.7 186.9 280.5 187.7 281.6 188.85 283.35 190.65 284.75 192.05 Q281.55 199.0 279.0 205.95 L278.85 205.6 277.9 204.2 277.3 203.3 276.85 202.7 275.7 201.0 275.5 200.7 274.5 199.3 273.95 198.45 273.5 197.85 276.1 190.65 M287.6 194.85 L289.1 196.35 290.25 197.45 291.25 198.55 293.05 200.25 293.35 200.6 Q289.65 209.4 286.85 218.25 L285.2 215.55 283.8 213.3 282.7 211.6 281.65 210.0 280.95 208.9 280.9 208.8 286.45 193.7 287.6 194.85 M302.5 190.65 L304.15 192.15 305.45 193.35 306.55 194.45 308.55 196.25 308.9 196.6 309.45 197.05 Q306.35 203.3 303.8 209.55 L303.55 209.3 302.35 207.65 301.5 206.4 301.4 206.3 301.2 205.95 300.8 205.4 299.2 203.2 298.95 202.9 297.9 201.4 297.15 200.4 296.65 199.9 299.65 192.0 300.3 190.35 300.7 189.0 301.15 189.45 302.5 190.65" fill="url(#gradient1)" fill-rule="evenodd" stroke="none"/>
    <path d="M247.35 217.85 L246.45 217.5 245.9 217.25 Q245.8 217.05 245.8 217.25 242.9 214.95 241.6 209.2 L241.35 207.9 241.25 207.2 242.0 208.1 245.95 212.8 247.35 214.05 248.35 214.75 248.75 214.9 249.6 215.3 Q251.85 216.3 254.45 216.45 251.4 218.55 248.45 218.1 L247.55 217.9 247.5 217.9 247.35 217.85 M287.3 186.5 L288.6 187.85 Q291.85 191.1 294.55 195.15 L289.95 191.2 287.95 189.7 286.35 188.55 Q282.5 186.05 278.6 184.5 L278.35 184.4 277.1 183.95 276.55 183.8 Q273.6 182.8 270.65 182.45 L269.6 182.3 268.4 182.15 261.3 182.35 Q261.25 182.3 261.2 182.4 L260.65 182.45 260.2 182.5 258.85 182.7 256.2 183.35 Q252.95 184.2 249.65 185.65 L248.25 186.3 247.25 186.85 248.75 185.2 250.4 183.6 Q252.15 181.9 254.05 180.6 255.65 179.45 257.4 178.6 259.45 177.5 261.65 176.8 L262.4 176.55 Q263.05 176.25 263.8 176.1 L263.9 176.1 Q265.05 175.75 266.35 175.55 L270.1 176.55 270.55 176.75 270.95 176.85 271.6 177.1 272.6 177.45 Q275.75 178.65 278.7 180.3 L278.9 180.4 Q279.3 180.55 279.75 180.85 L280.15 181.1 282.6 182.75 Q285.0 184.4 287.3 186.5" fill="#ac8a75" fill-rule="evenodd" stroke="none"/>
    <path d="M321.45 211.6 L319.4 218.4 Q319.1 219.55 300.45 224.0 282.6 228.3 278.6 228.6 L279.15 225.45 Q280.7 225.3 300.45 219.65 303.25 219.05 312.4 215.45 321.15 212.0 321.45 211.6" fill="url(#gradient2)" fill-rule="evenodd" stroke="none"/>
    <path d="M263.2 230.55 Q262.5 230.2 247.7 227.75 235.05 225.7 233.5 222.4 231.85 218.95 230.5 213.0 L229.45 207.8 229.5 207.3 Q230.25 211.0 231.35 214.05 L231.45 214.4 Q233.3 219.6 236.35 221.7 237.5 222.45 243.85 224.8 245.75 225.5 253.55 226.5 L263.7 227.55 263.2 230.55" fill="#fcf3ba" fill-rule="evenodd" stroke="none"/>
    <path d="M278.6 228.6 L263.2 230.55 263.7 227.55 279.15 225.45 278.6 228.6" fill="#f7e086" fill-rule="evenodd" stroke="none"/>
    <path d="M242.95 181.5 L241.55 182.6 240.5 183.45 239.8 184.05 238.3 185.4 238.2 185.45 236.65 187.2 Q233.35 190.75 232.2 194.8 L231.9 196.0 231.5 198.85 Q231.2 202.0 231.55 206.3 L232.45 209.55 232.85 210.85 Q234.7 215.95 237.65 219.0 L237.75 219.1 Q240.75 222.2 245.0 223.15 L245.3 223.25 245.4 223.25 246.15 223.45 246.3 223.5 249.4 224.15 250.9 224.45 253.4 224.8 253.9 224.8 259.7 225.2 262.15 225.1 262.7 225.15 263.15 225.1 268.2 224.75 268.5 224.75 272.4 224.25 273.25 224.05 275.0 223.7 275.95 223.55 285.8 221.55 288.3 220.9 288.5 220.9 288.6 220.9 300.7 217.3 304.7 216.0 307.0 215.3 307.6 215.15 313.75 212.9 Q314.55 212.4 315.5 212.35 317.75 211.1 320.35 210.35 L319.55 206.85 319.1 205.3 318.1 202.6 316.05 197.35 316.9 199.15 318.4 202.9 319.1 205.3 321.45 211.6 319.4 218.4 Q319.1 219.55 300.45 224.0 282.6 228.3 278.6 228.6 L263.2 230.55 Q262.5 230.2 247.7 227.75 235.05 225.7 233.5 222.4 231.85 218.95 230.5 213.0 L229.45 207.8 229.45 207.25 229.5 207.3 Q230.25 211.0 231.35 214.05 L231.45 214.4 Q233.3 219.6 236.35 221.7 237.5 222.45 243.85 224.8 245.75 225.5 253.55 226.5 L263.7 227.55 279.15 225.45 Q280.7 225.3 300.45 219.65 303.25 219.05 312.4 215.45 321.15 212.0 321.45 211.6 M313.65 192.95 L312.45 191.1 Q308.8 185.55 303.85 181.15 L303.0 180.3 299.05 177.15 293.95 175.3 293.65 175.2 293.2 175.0 Q288.25 173.3 283.55 172.3 L283.55 172.4 283.55 172.55 M250.95 176.45 L250.85 176.45 Q246.3 178.95 242.95 181.5 M229.5 207.3 L229.45 204.75 Q229.45 201.3 229.8 197.85 L229.95 196.2 230.15 194.7 230.15 194.6 Q230.45 192.65 235.15 187.45 L239.9 182.5 Q241.2 181.3 249.55 176.6 258.2 171.65 260.3 171.15 L274.4 170.65 274.55 170.65 284.7 171.75 Q294.65 173.75 297.4 174.9 305.5 178.25 311.5 186.5 312.3 187.55 316.05 197.35 314.95 195.05 313.65 192.95 M264.5 171.4 L264.3 171.5 258.0 172.65 253.7 174.9 253.5 175.0 253.25 175.15 250.95 176.45 M273.95 171.1 L269.5 171.0 265.65 171.25 264.5 171.4 M283.1 172.25 Q278.75 171.3 274.6 171.1 L274.15 171.1 274.1 171.1 273.95 171.1 M283.25 172.35 L283.15 172.35 283.1 172.4 283.05 172.45 M283.55 172.3 L283.4 172.25 283.3 172.25 283.25 172.35 M283.25 172.25 L283.1 172.25 M283.3 172.25 L283.4 172.15 283.45 172.1 283.5 172.15 283.55 172.3 M283.3 172.25 L283.25 172.25 M229.5 207.3 L229.45 207.8" ffdec:has-small-stroke="true" ffdec:original-stroke-width="0.05" fill="none" stroke="#0d2608" stroke-linecap="round" stroke-linejoin="round" stroke-opacity="0.4" stroke-width="1.0"/>
  </g>
  <defs>
    <linearGradient gradientTransform="matrix(-0.055, -0.0101, -0.0042, 0.0401, 279.4, 184.55)" gradientUnits="userSpaceOnUse" id="gradient0" spreadMethod="pad" x1="-819.2" x2="819.2">
      <stop offset="0.0" stop-color="#502e0e"/>
      <stop offset="1.0" stop-color="#584538"/>
      <stop offset="1.0" stop-color="#7d8a75"/>
    </linearGradient>
    <linearGradient gradientTransform="matrix(-0.055, -0.0101, -0.0042, 0.0401, 279.4, 184.55)" gradientUnits="userSpaceOnUse" id="gradient1" spreadMethod="pad" x1="-819.2" x2="819.2">
      <stop offset="0.0" stop-color="#744314"/>
      <stop offset="1.0" stop-color="#836753"/>
      <stop offset="1.0" stop-color="#7d8a75"/>
    </linearGradient>
    <linearGradient gradientTransform="matrix(-0.0265, -0.0049, -0.0037, 0.0358, 317.85, 228.85)" gradientUnits="userSpaceOnUse" id="gradient2" spreadMethod="pad" x1="-819.2" x2="819.2">
      <stop offset="0.0" stop-color="#f2ca77"/>
      <stop offset="1.0" stop-color="#f7e086"/>
      <stop offset="1.0" stop-color="#836753"/>
    </linearGradient>
  </defs>
</svg>
