<?xml version="1.0" encoding="UTF-8" standalone="no"?>
<svg xmlns:ffdec="https://www.free-decompiler.com/flash" xmlns:xlink="http://www.w3.org/1999/xlink" ffdec:objectType="shape" height="48.7px" width="171.6px" xmlns="http://www.w3.org/2000/svg">
  <g transform="matrix(1.0, 0.0, 0.0, 1.0, -189.65, -176.1)">
    <path d="M301.9 179.7 L317.25 181.05 317.9 181.1 318.35 181.15 320.7 182.0 322.3 182.55 324.1 183.2 326.35 184.05 328.85 185.05 328.85 185.1 328.9 185.05 330.3 185.6 330.8 185.8 332.5 186.5 333.4 186.85 334.65 187.4 336.0 187.95 337.35 188.55 338.05 188.85 339.0 189.3 340.2 189.85 340.65 190.05 340.9 190.15 340.95 190.2 341.65 189.75 341.85 189.6 343.1 188.75 344.45 189.65 344.15 189.9 343.6 190.35 342.8 191.05 342.85 191.05 343.45 191.3 344.5 191.8 345.95 192.5 346.25 192.65 348.35 193.65 348.85 193.85 349.15 194.0 349.25 194.1 349.55 194.25 350.65 196.05 349.25 195.5 349.05 195.45 348.0 195.1 347.9 195.05 346.0 194.35 345.5 194.2 344.75 193.9 344.5 193.8 342.8 193.3 342.3 193.1 341.3 192.75 340.95 192.65 340.9 192.65 332.4 199.9 331.85 200.4 330.35 201.65 324.7 202.65 328.75 199.25 326.75 198.5 326.55 198.45 325.5 198.1 325.4 198.05 323.5 197.35 323.0 197.2 322.25 196.9 322.0 196.8 320.3 196.3 319.8 196.1 318.8 195.75 318.45 195.65 310.6 202.35 307.9 204.55 306.8 205.4 306.45 205.65 306.3 205.7 306.0 205.75 302.15 206.3 303.7 204.75 301.95 204.0 299.35 203.0 298.55 202.7 297.55 202.35 295.25 201.5 295.05 201.45 294.0 201.1 293.95 201.0 293.9 201.05 292.1 202.6 289.4 204.8 288.3 205.65 286.05 207.4 284.25 208.8 281.2 209.2 283.1 207.15 Q286.55 203.55 290.75 199.9 L290.5 199.8 288.8 199.3 288.3 199.1 287.3 198.75 285.2 198.1 283.35 197.55 280.8 196.7 273.6 202.85 270.9 205.05 269.8 205.9 267.7 207.55 269.05 208.2 272.15 209.8 272.3 209.9 272.8 210.15 272.25 210.2 271.95 210.05 269.45 209.0 267.05 208.05 266.5 208.45 266.4 208.55 264.75 209.8 262.95 211.15 262.05 211.2 261.05 211.3 262.35 209.8 264.35 207.65 264.55 207.45 264.6 207.4 264.75 207.25 262.75 206.5 262.55 206.45 261.5 206.1 259.5 205.35 259.0 205.2 258.25 204.9 258.0 204.8 256.3 204.3 255.8 204.1 255.75 204.1 255.55 204.3 254.9 204.8 253.8 205.65 251.55 207.4 248.75 209.55 245.0 212.3 243.9 212.35 246.35 209.55 248.6 207.15 252.55 203.2 252.7 203.1 250.85 202.55 246.85 201.25 243.3 200.1 243.2 200.2 240.35 202.6 237.65 204.8 236.55 205.65 234.65 207.15 233.8 207.05 231.7 206.8 Q235.4 202.95 239.9 199.15 L240.05 199.05 231.95 196.45 230.65 196.0 229.65 195.7 229.5 195.8 222.35 201.85 220.0 203.8 218.25 203.3 218.5 203.7 219.1 204.5 Q221.85 208.0 228.15 208.95 L228.4 208.95 229.55 209.05 231.55 209.15 231.85 209.25 233.15 209.85 233.7 210.1 234.55 210.5 237.8 212.05 238.25 212.25 238.85 212.55 235.7 212.65 235.45 212.55 234.8 212.3 233.15 211.75 232.7 211.6 231.9 211.35 230.1 210.75 229.9 210.7 227.15 212.75 226.95 212.75 226.35 212.75 228.45 210.25 228.55 210.3 228.5 210.25 228.45 210.25 216.6 206.45 209.95 211.35 209.7 211.3 Q211.85 208.55 214.55 205.75 L212.6 205.15 207.1 203.4 204.1 202.35 198.35 206.75 197.25 205.95 201.65 201.45 201.3 201.3 198.65 200.35 196.15 199.4 195.0 198.9 Q195.3 197.85 196.0 197.0 L197.1 197.25 198.0 197.4 199.35 197.75 204.3 199.0 Q208.95 194.8 214.75 190.6 L214.85 190.55 213.15 189.9 212.45 189.6 211.8 189.35 215.45 188.3 217.1 187.85 218.2 188.15 219.5 187.25 222.9 186.45 Q221.6 187.5 220.3 188.7 L226.65 190.5 230.95 191.85 234.55 189.35 237.65 188.85 235.2 190.95 233.2 192.65 234.2 193.0 243.25 196.4 Q248.3 192.3 254.3 188.2 L254.45 188.15 255.6 187.35 256.8 186.55 259.45 186.35 260.35 186.3 261.45 186.2 263.95 187.05 266.7 188.0 270.1 189.2 271.55 188.2 272.85 187.35 275.2 185.8 277.35 185.8 277.05 186.05 275.15 187.65 272.35 190.05 278.5 192.5 280.65 193.4 287.55 188.45 288.85 187.6 290.3 186.65 290.5 186.5 292.6 186.7 Q299.25 187.4 305.45 188.65 L307.85 189.15 310.9 189.85 312.15 190.4 313.5 190.95 314.85 191.55 315.55 191.85 316.5 192.3 317.7 192.85 323.95 188.4 324.55 187.95 Q324.8 187.75 325.1 187.6 L323.0 186.9 320.2 186.0 318.45 185.45 317.15 185.0 314.5 184.2 314.05 184.05 314.0 184.0 314.05 184.05 313.65 184.35 311.85 185.8 311.55 186.05 311.1 186.45 309.65 187.65 309.1 188.1 307.15 187.5 307.35 187.35 309.0 186.25 309.7 185.8 312.3 184.1 312.95 183.7 312.8 183.65 312.05 183.4 311.95 183.35 310.45 182.85 308.45 182.15 307.4 181.75 306.85 181.6 305.65 181.1 305.5 181.05 305.05 180.9 303.15 180.2 302.35 179.9 302.25 179.85 301.9 179.75 301.9 179.7 M312.3 193.7 L310.85 193.25 309.15 192.7 307.0 192.0 305.2 191.4 295.15 200.0 295.25 200.1 296.3 200.6 297.9 201.35 299.45 202.15 301.55 203.2 304.0 204.45 Q309.0 199.6 315.35 194.7 L314.85 194.55 312.3 193.7 M327.15 188.25 L326.35 188.9 325.3 189.8 320.35 194.05 320.95 194.3 322.0 194.8 323.45 195.5 323.75 195.65 325.85 196.65 326.35 196.85 326.65 197.0 326.75 197.1 327.8 197.6 329.4 198.35 329.65 198.5 Q333.8 195.2 338.5 191.9 L337.85 191.7 337.35 191.55 334.8 190.7 333.35 190.25 331.65 189.7 329.5 189.0 327.7 188.4 327.15 188.25 M301.75 179.7 L301.55 179.8 Q299.55 181.15 297.3 182.95 L296.7 183.4 295.75 184.15 295.15 184.6 293.8 184.35 281.3 182.7 280.2 182.6 278.65 182.45 278.6 182.45 277.15 181.9 276.45 181.6 275.1 181.05 274.85 180.95 274.55 180.85 273.5 180.4 272.3 179.95 272.1 179.9 271.95 179.85 270.7 179.35 277.9 179.15 278.0 179.15 278.65 179.25 280.2 179.65 280.25 179.65 282.85 180.3 283.6 180.5 285.0 179.65 285.95 179.1 286.2 179.1 285.55 179.55 284.05 180.6 285.6 181.05 290.15 182.35 290.65 182.5 291.65 182.8 292.95 183.2 294.7 183.8 295.15 183.5 296.2 182.85 301.0 179.9 301.45 179.65 301.75 179.7 M291.15 187.9 Q289.75 189.05 288.3 190.3 L283.35 194.55 284.05 194.85 285.0 195.3 286.65 196.05 286.9 196.15 288.8 197.05 289.45 197.3 290.5 197.8 291.95 198.5 292.25 198.65 Q297.0 194.6 302.65 190.6 L300.5 189.9 297.7 189.0 295.95 188.45 294.65 188.0 292.0 187.2 291.15 187.9 M235.65 188.6 L243.05 183.85 242.0 183.4 240.8 182.95 240.75 182.85 245.7 182.0 245.8 182.15 246.0 182.05 246.1 182.05 246.25 182.1 246.5 182.15 247.15 182.25 248.7 182.65 248.75 182.65 251.35 183.3 254.1 184.05 247.1 185.45 245.65 184.9 244.95 184.6 243.6 184.05 239.3 187.45 235.65 188.6 M262.65 182.8 L267.75 179.65 268.1 179.45 268.45 179.45 268.3 179.55 Q266.35 180.9 264.15 182.6 L262.65 182.8 M217.15 191.35 L217.0 191.45 207.2 199.85 208.15 200.15 217.15 203.2 Q221.45 199.1 226.85 194.95 L226.95 194.85 225.45 194.35 220.9 192.75 220.35 192.6 219.15 192.1 218.55 191.9 217.15 191.35 M256.45 188.85 L255.05 190.05 246.25 197.6 249.5 198.95 251.55 199.85 252.5 200.3 254.15 201.05 254.4 201.15 254.7 201.3 Q259.85 196.65 266.2 192.0 L264.45 191.45 263.15 191.0 260.0 190.0 257.95 189.35 256.45 188.85 M259.45 203.5 L261.85 204.65 262.35 204.85 262.75 205.1 263.8 205.6 265.4 206.35 265.5 206.45 Q270.8 201.1 277.65 195.7 L275.5 195.0 269.0 192.9 257.6 202.6 258.0 202.8 259.45 203.5" fill="url(#gradient0)" fill-rule="evenodd" stroke="none"/>
    <path d="M318.35 181.15 L317.9 181.1 317.25 181.05 301.9 179.7 301.75 179.7 301.45 179.65 286.2 179.1 285.95 179.1 Q281.9 179.05 277.9 179.15 L270.7 179.35 268.45 179.45 268.1 179.45 255.6 180.35 246.7 181.8 246.25 181.9 245.7 182.0 240.75 182.85 240.6 182.9 Q230.6 184.65 222.9 186.45 L219.5 187.25 217.1 187.85 215.45 188.3 211.8 189.35 211.65 189.4 207.85 190.6 Q199.7 193.3 196.75 196.15 L196.0 197.0 Q195.3 197.85 195.0 198.9 194.3 201.05 195.1 203.95 L197.25 205.95 198.35 206.75 Q202.7 209.8 209.7 211.3 L209.95 211.35 Q216.9 212.8 226.35 212.75 L226.95 212.75 227.15 212.75 228.8 212.75 229.05 212.75 235.7 212.65 238.85 212.55 243.9 212.35 245.0 212.3 256.4 211.65 261.05 211.3 262.05 211.2 262.95 211.15 272.25 210.2 272.8 210.15 279.75 209.35 281.2 209.2 284.25 208.8 285.9 208.6 302.15 206.3 306.0 205.75 306.3 205.7 306.45 205.65 324.7 202.65 330.35 201.65 333.55 201.05 334.4 200.9 342.8 199.35 345.1 198.9 351.35 197.65 350.65 196.05 349.55 194.25 348.05 192.5 344.45 189.65 343.1 188.75 Q338.7 186.15 332.3 184.0 L331.15 183.65 325.75 182.1 318.35 181.15 M189.9 204.9 L189.85 203.2 Q189.85 200.8 190.65 198.4 L191.0 197.35 191.5 196.3 191.55 196.2 Q193.25 192.9 203.55 189.4 205.6 188.7 208.05 187.95 L208.2 187.95 210.3 187.3 212.2 186.75 213.25 186.5 Q218.75 185.0 225.2 183.55 L227.0 183.15 236.45 181.2 238.95 180.7 255.1 177.9 265.1 177.05 265.3 177.0 279.5 176.3 Q285.4 176.05 291.35 176.1 L292.65 176.1 300.85 176.2 305.25 176.35 Q322.0 176.9 338.85 178.9 L339.1 178.95 340.7 179.15 Q345.3 180.1 350.3 184.15 L350.75 184.55 353.95 187.55 358.05 192.15 Q360.25 195.15 360.75 197.3 L360.8 198.55 359.45 199.25 359.2 199.4 352.3 202.55 342.45 204.4 341.65 204.5 341.4 204.55 323.6 207.3 318.95 208.0 300.15 210.5 298.1 210.75 290.4 211.65 278.8 212.8 278.0 212.9 277.7 212.9 262.35 214.2 243.95 215.1 243.9 215.1 242.65 215.15 223.4 215.2 Q204.85 216.2 194.85 209.35 L194.55 209.15 Q191.9 207.3 189.9 204.9" fill="#ffffe1" fill-rule="evenodd" stroke="none"/>
    <path d="M301.9 179.7 L301.9 179.75 302.25 179.85 302.35 179.9 303.15 180.2 305.05 180.9 305.5 181.05 305.65 181.1 306.85 181.6 307.4 181.75 308.45 182.15 310.45 182.85 311.95 183.35 312.05 183.4 312.8 183.65 312.95 183.7 312.3 184.1 309.7 185.8 309.0 186.25 307.35 187.35 307.15 187.5 299.8 185.55 295.15 184.6 295.75 184.15 296.7 183.4 297.3 182.95 Q299.55 181.15 301.55 179.8 L301.75 179.7 301.9 179.7 M309.1 188.1 L309.65 187.65 311.1 186.45 311.55 186.05 311.85 185.8 313.65 184.35 314.05 184.05 314.0 184.0 314.05 184.05 314.5 184.2 317.15 185.0 318.45 185.45 320.2 186.0 323.0 186.9 325.1 187.6 Q324.8 187.75 324.55 187.95 L323.95 188.4 317.7 192.85 316.5 192.3 315.55 191.85 314.85 191.55 313.5 190.95 312.15 190.4 310.9 189.85 317.65 191.75 Q313.85 189.75 309.1 188.1 M290.5 186.5 L290.3 186.65 288.85 187.6 287.55 188.45 280.65 193.4 278.5 192.5 272.35 190.05 275.15 187.65 277.05 186.05 277.35 185.8 289.55 186.4 290.5 186.5 M275.2 185.8 L272.85 187.35 271.55 188.2 270.1 189.2 266.7 188.0 263.95 187.05 261.45 186.2 261.7 186.2 275.2 185.8 M256.8 186.55 L255.6 187.35 254.45 188.15 254.3 188.2 Q248.3 192.3 243.25 196.4 L234.2 193.0 233.2 192.65 235.2 190.95 237.65 188.85 251.5 187.05 256.8 186.55 M234.55 189.35 L230.95 191.85 226.65 190.5 220.3 188.7 Q221.6 187.5 222.9 186.45 230.6 184.65 240.6 182.9 L240.75 182.85 240.8 182.95 242.0 183.4 243.05 183.85 235.65 188.6 232.35 189.7 234.55 189.35 M219.5 187.25 L218.2 188.15 217.1 187.85 219.5 187.25 M211.8 189.35 L212.45 189.6 213.15 189.9 214.85 190.55 214.75 190.6 Q208.95 194.8 204.3 199.0 L199.35 197.75 198.0 197.4 197.1 197.25 196.0 197.0 196.75 196.15 Q199.7 193.3 207.85 190.6 L211.65 189.4 211.8 189.35 M195.0 198.9 L196.15 199.4 198.65 200.35 201.3 201.3 201.65 201.45 197.25 205.95 195.1 203.95 Q194.3 201.05 195.0 198.9 M198.35 206.75 L204.1 202.35 207.1 203.4 212.6 205.15 214.55 205.75 Q211.85 208.55 209.7 211.3 202.7 209.8 198.35 206.75 M209.95 211.35 L216.6 206.45 228.45 210.25 228.5 210.25 228.55 210.3 228.45 210.25 226.35 212.75 Q216.9 212.8 209.95 211.35 M227.15 212.75 L229.9 210.7 230.1 210.75 231.9 211.35 232.7 211.6 233.15 211.75 234.8 212.3 235.45 212.55 235.7 212.65 229.05 212.75 228.8 212.75 227.15 212.75 M238.85 212.55 L238.25 212.25 237.8 212.05 234.55 210.5 233.7 210.1 233.15 209.85 231.85 209.25 231.55 209.15 231.85 209.15 232.0 209.15 233.9 209.15 Q240.2 209.0 246.45 207.25 241.1 207.6 236.35 207.3 L234.65 207.15 236.55 205.65 237.65 204.8 240.35 202.6 243.2 200.2 243.3 200.1 246.85 201.25 250.85 202.55 252.7 203.1 252.55 203.2 248.6 207.15 246.35 209.55 243.9 212.35 238.85 212.55 M220.0 203.8 L222.35 201.85 229.5 195.8 229.65 195.7 230.65 196.0 231.95 196.45 240.05 199.05 239.9 199.15 Q235.4 202.95 231.7 206.8 L228.65 206.25 220.0 203.8 M245.0 212.3 L248.75 209.55 251.55 207.4 253.8 205.65 254.9 204.8 255.55 204.3 255.75 204.1 255.8 204.1 256.3 204.3 258.0 204.8 258.25 204.9 259.0 205.2 259.5 205.35 261.5 206.1 262.55 206.45 262.75 206.5 264.75 207.25 264.6 207.4 264.55 207.45 264.35 207.65 262.35 209.8 261.05 211.3 256.4 211.65 245.0 212.3 M262.95 211.15 L264.75 209.8 266.4 208.55 266.5 208.45 267.05 208.05 269.45 209.0 271.95 210.05 272.25 210.2 262.95 211.15 M272.8 210.15 L272.3 209.9 272.15 209.8 269.05 208.2 267.7 207.55 269.8 205.9 270.9 205.05 273.6 202.85 280.8 196.7 283.35 197.55 285.2 198.1 287.3 198.75 288.3 199.1 288.8 199.3 290.5 199.8 290.75 199.9 Q286.55 203.55 283.1 207.15 L281.2 209.2 279.75 209.35 272.8 210.15 M284.25 208.8 L286.05 207.4 288.3 205.65 289.4 204.8 292.1 202.6 293.9 201.05 293.95 201.0 294.0 201.1 295.05 201.45 295.25 201.5 297.55 202.35 298.55 202.7 299.35 203.0 301.95 204.0 303.7 204.75 302.15 206.3 285.9 208.6 284.25 208.8 M306.45 205.65 L306.8 205.4 307.9 204.55 310.6 202.35 318.45 195.65 318.8 195.75 319.8 196.1 320.3 196.3 322.0 196.8 322.25 196.9 323.0 197.2 323.5 197.35 325.4 198.05 325.5 198.1 326.55 198.45 326.75 198.5 328.75 199.25 324.7 202.65 306.45 205.65 M330.35 201.65 L331.85 200.4 332.4 199.9 340.9 192.65 340.95 192.65 341.3 192.75 342.3 193.1 342.8 193.3 344.5 193.8 344.75 193.9 345.5 194.2 346.0 194.35 347.9 195.05 348.0 195.1 349.05 195.45 349.25 195.5 350.65 196.05 351.35 197.65 345.1 198.9 342.8 199.35 334.4 200.9 333.55 201.05 330.35 201.65 M349.55 194.25 L349.25 194.1 349.15 194.0 348.85 193.85 348.35 193.65 346.25 192.65 345.95 192.5 344.5 191.8 343.45 191.3 342.85 191.05 342.8 191.05 343.6 190.35 344.15 189.9 344.45 189.65 348.05 192.5 349.55 194.25 M343.1 188.75 L341.85 189.6 341.65 189.75 340.95 190.2 340.9 190.15 340.65 190.05 340.2 189.85 339.0 189.3 338.05 188.85 337.35 188.55 336.0 187.95 334.65 187.4 333.4 186.85 332.5 186.5 330.8 185.8 330.3 185.6 328.9 185.05 328.85 185.1 328.85 185.05 326.35 184.05 324.1 183.2 322.3 182.55 320.7 182.0 318.35 181.15 325.75 182.1 331.15 183.65 332.3 184.0 Q338.7 186.15 343.1 188.75 M312.3 193.7 L314.85 194.55 315.35 194.7 Q309.0 199.6 304.0 204.45 L301.55 203.2 299.45 202.15 297.9 201.35 296.3 200.6 295.25 200.1 295.15 200.0 305.2 191.4 307.0 192.0 309.15 192.7 310.85 193.25 312.3 193.7 M327.15 188.25 L327.7 188.4 329.5 189.0 331.65 189.7 333.35 190.25 334.8 190.7 337.35 191.55 337.85 191.7 338.5 191.9 Q333.8 195.2 329.65 198.5 L329.4 198.35 327.8 197.6 326.75 197.1 326.65 197.0 326.35 196.85 325.85 196.65 323.75 195.65 323.45 195.5 322.0 194.8 320.95 194.3 320.35 194.05 325.3 189.8 326.35 188.9 327.15 188.25 M301.45 179.65 L301.0 179.9 296.2 182.85 295.15 183.5 294.7 183.8 292.95 183.2 291.65 182.8 290.65 182.5 290.15 182.35 285.6 181.05 284.05 180.6 285.55 179.55 286.2 179.1 301.45 179.65 M285.95 179.1 L285.0 179.65 283.6 180.5 282.85 180.3 280.25 179.65 280.2 179.65 278.65 179.25 278.0 179.15 277.9 179.15 Q281.9 179.05 285.95 179.1 M270.7 179.35 L271.95 179.85 272.1 179.9 272.3 179.95 273.5 180.4 274.55 180.85 274.85 180.95 275.1 181.05 276.45 181.6 277.15 181.9 278.6 182.45 271.7 181.95 267.05 182.3 266.85 182.35 264.15 182.6 Q266.35 180.9 268.3 179.55 L268.45 179.45 270.7 179.35 M291.15 187.9 L292.0 187.2 294.65 188.0 295.95 188.45 297.7 189.0 300.5 189.9 302.65 190.6 Q297.0 194.6 292.25 198.65 L291.95 198.5 290.5 197.8 289.45 197.3 288.8 197.05 286.9 196.15 286.65 196.05 285.0 195.3 284.05 194.85 283.35 194.55 288.3 190.3 Q289.75 189.05 291.15 187.9 M254.1 184.05 L251.35 183.3 248.75 182.65 248.7 182.65 247.15 182.25 246.5 182.15 246.25 182.1 246.1 182.05 246.0 182.05 245.8 182.15 245.7 182.0 246.25 181.9 246.7 181.8 255.6 180.35 268.1 179.45 267.75 179.65 262.65 182.8 254.1 184.05 M239.3 187.45 L243.6 184.05 244.95 184.6 245.65 184.9 247.1 185.45 239.3 187.45 M217.15 191.35 L218.55 191.9 219.15 192.1 220.35 192.6 220.9 192.75 225.45 194.35 226.95 194.85 226.85 194.95 Q221.45 199.1 217.15 203.2 L208.15 200.15 207.2 199.85 217.0 191.45 217.15 191.35 M256.45 188.85 L257.95 189.35 260.0 190.0 263.15 191.0 264.45 191.45 266.2 192.0 Q259.85 196.65 254.7 201.3 L254.4 201.15 254.15 201.05 252.5 200.3 251.55 199.85 249.5 198.95 246.25 197.6 255.05 190.05 256.45 188.85 M259.45 203.5 L258.0 202.8 257.6 202.6 269.0 192.9 275.5 195.0 277.65 195.7 Q270.8 201.1 265.5 206.45 L265.4 206.35 263.8 205.6 262.75 205.1 262.35 204.85 261.85 204.65 259.45 203.5" fill="url(#gradient1)" fill-rule="evenodd" stroke="none"/>
    <path d="M307.15 187.5 L309.1 188.1 Q313.85 189.75 317.65 191.75 L310.9 189.85 307.85 189.15 305.45 188.65 Q299.25 187.4 292.6 186.7 L290.5 186.5 289.55 186.4 277.35 185.8 275.2 185.8 261.7 186.2 261.45 186.2 260.35 186.3 259.45 186.35 256.8 186.55 251.5 187.05 237.65 188.85 234.55 189.35 232.35 189.7 235.65 188.6 239.3 187.45 247.1 185.45 254.1 184.05 262.65 182.8 264.15 182.6 266.85 182.35 267.05 182.3 271.7 181.95 278.6 182.45 278.65 182.45 280.2 182.6 281.3 182.7 293.8 184.35 295.15 184.6 299.8 185.55 307.15 187.5 M231.55 209.15 L229.55 209.05 228.4 208.95 228.15 208.95 Q221.85 208.0 219.1 204.5 L218.5 203.7 218.25 203.3 220.0 203.8 228.65 206.25 231.7 206.8 233.8 207.05 234.65 207.15 236.35 207.3 Q241.1 207.6 246.45 207.25 240.2 209.0 233.9 209.15 L232.0 209.15 231.85 209.15 231.55 209.15" fill="#a98b78" fill-rule="evenodd" stroke="none"/>
    <path d="M361.15 198.65 L360.1 199.6 359.95 199.7 350.8 208.05 Q349.7 209.25 349.15 208.6 349.0 208.4 348.85 209.95 L315.8 216.3 Q287.8 221.7 278.0 222.05 L290.4 211.65 298.1 210.75 300.15 210.5 318.95 208.0 323.6 207.3 341.4 204.55 341.65 204.5 342.45 204.4 352.3 202.55 359.2 199.4 359.45 199.25 360.8 198.55 361.15 198.65" fill="url(#gradient2)" fill-rule="evenodd" stroke="none"/>
    <path d="M244.55 224.8 L226.05 224.0 203.25 221.9 Q193.1 220.25 189.65 214.75 L189.8 205.2 189.9 204.9 Q191.9 207.3 194.55 209.15 L194.85 209.35 Q204.85 216.2 223.4 215.2 L242.65 215.15 243.9 215.1 243.95 215.1 262.35 214.2 244.55 224.8" fill="#fcf3ba" fill-rule="evenodd" stroke="none"/>
    <path d="M278.0 222.05 L260.4 223.7 246.0 224.8 244.55 224.8 262.35 214.2 277.7 212.9 278.0 212.9 278.8 212.8 290.4 211.65 278.0 222.05" fill="#f7e086" fill-rule="evenodd" stroke="none"/>
    <path d="M318.35 181.15 L317.9 181.1 317.25 181.05 301.9 179.7 301.75 179.7 301.45 179.65 286.2 179.1 285.95 179.1 Q281.9 179.05 277.9 179.15 L270.7 179.35 268.45 179.45 268.1 179.45 255.6 180.35 246.7 181.8 246.25 181.9 245.7 182.0 240.75 182.85 240.6 182.9 Q230.6 184.65 222.9 186.45 L219.5 187.25 217.1 187.85 215.45 188.3 211.8 189.35 211.65 189.4 207.85 190.6 Q199.7 193.3 196.75 196.15 L196.0 197.0 Q195.3 197.85 195.0 198.9 194.3 201.05 195.1 203.95 L197.25 205.95 198.35 206.75 Q202.7 209.8 209.7 211.3 L209.95 211.35 Q216.9 212.8 226.35 212.75 L226.95 212.75 227.15 212.75 228.8 212.75 229.05 212.75 235.7 212.65 238.85 212.55 243.9 212.35 245.0 212.3 256.4 211.65 261.05 211.3 262.05 211.2 262.95 211.15 272.25 210.2 272.8 210.15 279.75 209.35 281.2 209.2 284.25 208.8 285.9 208.6 302.15 206.3 306.0 205.75 306.3 205.7 306.45 205.65 324.7 202.65 330.35 201.65 333.55 201.05 334.4 200.9 342.8 199.35 345.1 198.9 351.35 197.65 350.65 196.05 349.55 194.25 348.05 192.5 344.45 189.65 343.1 188.75 Q338.7 186.15 332.3 184.0 L331.15 183.65 325.75 182.1 318.35 181.15 M189.9 204.9 L189.85 203.2 Q189.85 200.8 190.65 198.4 L191.0 197.35 191.5 196.3 191.55 196.2 Q193.25 192.9 203.55 189.4 205.6 188.7 208.05 187.95 L208.2 187.95 210.3 187.3 212.2 186.75 213.25 186.5 Q218.75 185.0 225.2 183.55 L227.0 183.15 236.45 181.2 238.95 180.7 255.1 177.9 265.1 177.05 265.3 177.0 279.5 176.3 Q285.4 176.05 291.35 176.1 L292.65 176.1 300.85 176.2 305.25 176.35 Q322.0 176.9 338.85 178.9 L339.1 178.95 340.7 179.15 Q345.3 180.1 350.3 184.15 L350.75 184.55 353.95 187.55 358.05 192.15 Q360.25 195.15 360.75 197.3 L360.8 198.55 361.25 198.45 361.15 198.65 360.1 199.6 359.95 199.7 350.8 208.05 Q349.7 209.25 349.15 208.6 349.0 208.4 348.85 209.95 L315.8 216.3 Q287.8 221.7 278.0 222.05 L260.4 223.7 246.0 224.8 244.55 224.8 226.05 224.0 203.25 221.9 Q193.1 220.25 189.65 214.75 L189.8 205.2 189.8 204.85 189.9 204.9 Q191.9 207.3 194.55 209.15 L194.85 209.35 Q204.85 216.2 223.4 215.2 L242.65 215.15 243.9 215.1 243.95 215.1 262.35 214.2 277.7 212.9 278.0 212.9 278.8 212.8 290.4 211.65 298.1 210.75 300.15 210.5 318.95 208.0 323.6 207.3 341.4 204.55 M341.65 204.5 L342.45 204.4 352.3 202.55 359.2 199.4 359.45 199.25 360.8 198.55 361.15 198.65 M189.8 205.2 L189.9 204.9" ffdec:has-small-stroke="true" ffdec:original-stroke-width="0.05" fill="none" stroke="#0d2608" stroke-linecap="round" stroke-linejoin="round" stroke-opacity="0.4" stroke-width="1.0"/>
  </g>
  <defs>
    <linearGradient gradientTransform="matrix(-0.0989, -0.0069, -0.0075, 0.0272, 279.55, 188.7)" gradientUnits="userSpaceOnUse" id="gradient0" spreadMethod="pad" x1="-819.2" x2="819.2">
      <stop offset="0.0" stop-color="#502e0e"/>
      <stop offset="1.0" stop-color="#584538"/>
      <stop offset="1.0" stop-color="#7d8a75"/>
    </linearGradient>
    <linearGradient gradientTransform="matrix(-0.0989, -0.0069, -0.0075, 0.0272, 279.55, 188.7)" gradientUnits="userSpaceOnUse" id="gradient1" spreadMethod="pad" x1="-819.2" x2="819.2">
      <stop offset="0.0" stop-color="#744314"/>
      <stop offset="1.0" stop-color="#836753"/>
      <stop offset="1.0" stop-color="#7d8a75"/>
    </linearGradient>
    <linearGradient gradientTransform="matrix(-0.0475, -0.0033, -0.0067, 0.0243, 348.6, 218.8)" gradientUnits="userSpaceOnUse" id="gradient2" spreadMethod="pad" x1="-819.2" x2="819.2">
      <stop offset="0.0" stop-color="#f2ca77"/>
      <stop offset="1.0" stop-color="#f7e086"/>
      <stop offset="1.0" stop-color="#836753"/>
    </linearGradient>
  </defs>
</svg>
