<?xml version="1.0" encoding="UTF-8" standalone="no"?>
<svg xmlns:ffdec="https://www.free-decompiler.com/flash" xmlns:xlink="http://www.w3.org/1999/xlink" ffdec:objectType="shape" height="49.5px" width="71.6px" xmlns="http://www.w3.org/2000/svg">
  <g transform="matrix(1.0, 0.0, 0.0, 1.0, -217.55, -191.7)">
    <path d="M289.05 208.85 Q289.15 212.05 278.55 221.8 267.9 231.5 266.3 230.6 256.25 232.55 245.1 231.5 233.95 230.45 222.85 219.7 L253.45 193.95 Q289.35 204.55 289.15 205.1 288.9 205.65 289.05 208.85" fill="#666666" fill-opacity="0.3529412" fill-rule="evenodd" stroke="none"/>
    <path d="M252.9 194.85 L225.35 214.95 Q234.95 230.3 262.65 225.9 274.7 216.65 285.5 205.85 272.75 193.5 252.9 194.85 M251.55 192.15 L252.3 191.85 Q274.8 190.2 288.75 204.95 L289.15 205.65 289.05 206.4 281.7 212.3 Q274.5 217.75 264.45 228.35 L264.5 228.25 264.4 228.35 263.6 228.8 Q232.05 233.95 222.05 215.3 221.75 214.8 221.9 214.25 222.0 213.7 222.5 213.35 237.7 203.2 251.55 192.15" fill="#644324" fill-rule="evenodd" stroke="none"/>
    <path d="M240.55 201.9 L240.6 202.05 Q240.9 202.55 241.8 202.55 244.95 202.55 246.1 201.2 246.65 200.55 246.7 199.45 L247.5 198.8 248.15 197.95 251.1 196.05 252.45 196.0 253.0 195.7 Q253.8 196.6 256.0 196.6 259.3 196.6 260.25 193.4 271.75 194.25 280.6 200.3 L279.9 199.85 Q278.05 200.85 277.25 201.65 276.75 202.15 276.5 202.9 L275.55 202.8 Q272.25 202.9 272.25 206.9 L272.65 208.5 273.2 209.4 271.8 210.8 Q271.1 211.9 271.0 213.4 269.55 213.8 269.55 215.9 L269.55 216.1 270.1 216.65 Q269.4 217.1 269.25 217.9 L269.2 217.9 Q268.2 217.9 267.6 218.6 267.15 219.1 267.15 219.5 L267.2 219.7 266.9 219.7 Q265.85 219.75 265.45 220.45 L265.45 220.25 Q265.45 219.4 264.65 219.4 263.8 219.4 263.8 220.25 L263.9 220.75 264.0 220.95 Q262.75 221.05 262.75 222.75 L262.8 223.4 262.95 223.65 262.75 223.85 Q262.15 220.55 259.85 216.75 247.3 205.9 227.25 211.6 L240.55 201.9 M265.05 221.1 L265.25 220.9 265.2 221.15 265.05 221.1 M269.5 219.95 L269.55 219.95 269.5 220.0 269.5 219.95" fill="#8f5932" fill-rule="evenodd" stroke="none"/>
    <path d="M227.25 211.6 Q247.3 205.9 259.85 216.75 262.15 220.55 262.75 223.85 L262.95 225.95 262.95 226.45 260.9 226.5 260.1 223.0 Q258.0 217.65 253.9 215.75 L253.4 215.4 252.85 215.05 Q246.0 210.55 233.2 213.35 228.85 213.85 227.55 215.1 231.55 220.95 238.8 223.9 230.5 222.05 226.35 216.95 229.55 222.3 236.7 225.55 242.1 227.5 249.25 228.45 230.35 227.95 223.05 214.65 L227.25 211.6" fill="#dabc7a" fill-rule="evenodd" stroke="none"/>
    <path d="M250.35 194.7 L250.5 195.1 Q250.75 195.5 251.25 195.5 251.85 195.5 252.45 195.0 L252.85 194.6 253.65 194.65 Q254.35 194.65 254.65 194.95 L255.9 195.2 Q257.2 195.2 257.8 194.6 258.2 194.2 258.2 193.65 L258.15 193.3 258.3 193.3 258.9 193.35 260.25 193.4 Q259.3 196.6 256.0 196.6 253.8 196.6 253.0 195.7 L252.45 196.0 251.1 196.05 248.15 197.95 247.5 198.8 246.7 199.45 Q246.65 200.55 246.1 201.2 244.95 202.55 241.8 202.55 240.9 202.55 240.6 202.05 L240.55 201.9 241.25 201.35 241.3 201.4 Q241.6 201.9 242.15 201.9 243.9 201.9 244.95 200.4 245.7 199.3 245.7 198.45 L245.7 198.15 250.35 194.7 M263.0 223.35 L263.1 223.8 Q263.3 224.25 263.85 224.25 L264.5 223.85 264.65 223.3 Q264.65 222.6 263.85 222.5 263.0 222.45 263.0 223.35 M262.75 223.85 L262.95 223.65 262.8 223.4 262.75 222.75 Q262.75 221.05 264.0 220.95 L263.9 220.75 263.8 220.25 Q263.8 219.4 264.65 219.4 265.45 219.4 265.45 220.25 L265.45 220.45 Q265.85 219.75 266.9 219.7 L267.2 219.7 267.15 219.5 Q267.15 219.1 267.6 218.6 268.2 217.9 269.2 217.9 L269.25 217.9 Q269.4 217.1 270.1 216.65 L269.55 216.1 269.55 215.9 Q269.55 213.8 271.0 213.4 271.1 211.9 271.8 210.8 L273.2 209.4 272.65 208.5 272.25 206.9 Q272.25 202.9 275.55 202.8 L276.5 202.9 Q276.75 202.15 277.25 201.65 278.05 200.85 279.9 199.85 L280.6 200.3 281.6 201.15 Q280.95 201.25 280.95 202.05 L280.95 202.2 280.6 202.15 Q279.7 202.25 279.7 203.0 L279.8 203.45 280.05 203.75 Q278.85 204.35 278.85 205.9 L278.9 206.1 278.4 206.5 276.9 206.3 Q274.85 206.6 274.85 208.4 L274.9 209.15 Q275.1 209.9 275.95 209.9 L276.9 209.8 276.85 210.25 276.9 210.7 277.1 211.0 277.15 211.2 277.05 211.2 Q276.2 211.2 276.2 212.1 276.2 212.5 276.35 212.75 276.15 212.5 275.65 212.5 274.75 212.5 274.75 213.35 L274.85 213.6 274.45 213.45 Q273.55 213.3 273.55 214.25 L273.7 214.85 Q273.95 215.45 274.55 215.45 L274.6 215.5 273.9 216.1 273.4 216.85 Q273.2 216.55 272.75 216.5 271.9 216.45 271.9 217.45 L271.95 217.9 272.25 218.25 272.1 218.55 271.45 218.3 Q270.6 218.3 270.6 219.1 L270.7 219.55 271.4 220.0 269.8 220.9 Q269.75 220.25 269.0 220.25 268.15 220.25 268.15 221.1 L268.2 221.3 267.6 221.15 267.15 221.25 Q266.95 220.8 266.35 220.8 265.45 220.8 265.45 221.6 L265.6 222.05 Q265.85 222.5 266.4 222.5 L266.75 222.45 266.75 222.5 266.65 222.6 266.15 222.55 Q265.25 222.6 265.25 223.45 265.25 223.9 265.55 224.1 L265.55 224.2 265.35 224.3 264.3 225.2 263.9 225.3 Q263.25 225.6 262.95 225.95 L262.75 223.85 M265.05 221.1 L265.2 221.15 265.25 220.9 265.05 221.1 M282.8 202.15 L282.7 202.15 282.7 202.1 282.8 202.15 M262.95 226.9 L263.3 227.2 263.05 227.4 262.9 227.4 262.95 226.9 M276.8 204.7 Q277.1 205.25 277.55 205.25 278.35 205.25 278.35 204.4 278.35 203.45 277.5 203.4 276.6 203.35 276.6 204.2 L276.8 204.7 M285.65 204.55 L286.15 204.95 285.7 204.6 285.6 204.75 285.6 204.65 285.65 204.55 M281.45 202.9 L281.85 203.0 282.0 203.35 282.0 203.4 281.35 203.4 281.45 202.95 281.45 202.9 M269.5 219.95 L269.5 220.0 269.55 219.95 269.5 219.95" fill="#744329" fill-rule="evenodd" stroke="none"/>
    <path d="M258.15 193.3 L258.2 193.65 Q258.2 194.2 257.8 194.6 257.2 195.2 255.9 195.2 L254.65 194.95 Q254.35 194.65 253.65 194.65 L252.85 194.6 252.45 195.0 Q251.85 195.5 251.25 195.5 250.75 195.5 250.5 195.1 L250.35 194.7 251.5 193.9 Q251.8 194.35 252.6 194.35 254.0 194.35 254.1 193.35 L254.8 193.3 254.3 193.35 254.35 193.55 Q254.7 194.05 255.75 194.05 256.9 194.05 257.15 193.3 L258.15 193.3 M245.7 198.15 L245.7 198.45 Q245.7 199.3 244.95 200.4 243.9 201.9 242.15 201.9 241.6 201.9 241.3 201.4 L241.25 201.35 241.55 201.15 Q241.75 201.55 242.3 201.55 242.95 201.55 243.4 201.0 L243.75 200.3 243.6 199.65 243.3 199.9 245.7 198.15 M263.0 223.35 Q263.0 222.45 263.85 222.5 264.65 222.6 264.65 223.3 L264.5 223.85 263.85 224.25 Q263.3 224.25 263.1 223.8 L263.0 223.35 M262.95 225.95 Q263.25 225.6 263.9 225.3 L264.3 225.2 265.35 224.3 265.55 224.2 265.55 224.1 Q265.25 223.9 265.25 223.45 265.25 222.6 266.15 222.55 L266.65 222.6 266.75 222.5 266.75 222.45 266.4 222.5 Q265.85 222.5 265.6 222.05 L265.45 221.6 Q265.45 220.8 266.35 220.8 266.95 220.8 267.15 221.25 L267.6 221.15 268.2 221.3 268.15 221.1 Q268.15 220.25 269.0 220.25 269.75 220.25 269.8 220.9 L271.4 220.0 270.7 219.55 270.6 219.1 Q270.6 218.3 271.45 218.3 L272.1 218.55 272.25 218.25 271.95 217.9 271.9 217.45 Q271.9 216.45 272.75 216.5 273.2 216.55 273.4 216.85 L273.9 216.1 274.6 215.5 274.55 215.45 Q273.95 215.45 273.7 214.85 L273.55 214.25 Q273.55 213.3 274.45 213.45 L274.85 213.6 274.75 213.35 Q274.75 212.5 275.65 212.5 276.15 212.5 276.35 212.75 276.2 212.5 276.2 212.1 276.2 211.2 277.05 211.2 L277.15 211.2 277.1 211.0 276.9 210.7 276.85 210.25 276.9 209.8 275.95 209.9 Q275.1 209.9 274.9 209.15 L274.85 208.4 Q274.85 206.6 276.9 206.3 L278.4 206.5 278.9 206.1 278.85 205.9 Q278.85 204.35 280.05 203.75 L279.8 203.45 279.7 203.0 Q279.7 202.25 280.6 202.15 L280.95 202.2 280.95 202.05 Q280.95 201.25 281.6 201.15 L281.65 201.15 282.7 202.05 282.7 202.1 282.7 202.15 282.8 202.15 283.4 202.65 283.35 203.0 283.4 203.45 Q283.5 203.85 283.95 203.95 282.9 204.25 282.85 205.3 281.95 205.35 281.95 206.3 L282.0 206.4 Q281.75 206.1 281.3 206.1 280.4 206.05 280.4 207.0 L280.5 207.5 Q280.7 208.0 281.3 208.0 L281.4 208.0 281.1 208.3 Q279.3 210.15 279.3 211.25 L279.4 212.1 279.35 212.2 Q278.0 212.2 278.0 213.2 L278.1 213.65 278.35 213.95 277.55 214.65 Q277.5 213.75 276.6 213.85 275.65 213.95 275.65 214.75 L275.8 215.15 276.5 215.55 269.55 221.65 269.1 221.6 Q268.1 221.6 268.0 222.35 L267.95 222.35 Q266.75 222.9 266.75 223.85 L266.8 224.1 265.05 225.65 265.0 225.65 263.3 227.2 262.95 226.9 262.95 226.45 262.95 225.95 M276.8 204.7 L276.6 204.2 Q276.6 203.35 277.5 203.4 278.35 203.45 278.35 204.4 278.35 205.25 277.55 205.25 277.1 205.25 276.8 204.7 M284.75 203.8 L285.05 204.05 284.8 203.85 284.65 203.85 284.75 203.8 M286.15 204.95 L286.9 205.6 285.7 204.6 286.15 204.95 M281.45 202.9 L281.45 202.95 281.35 203.4 282.0 203.4 282.0 203.35 281.85 203.0 281.45 202.9 M282.15 207.05 L282.15 206.95 282.2 207.0 282.15 207.05" fill="#593320" fill-rule="evenodd" stroke="none"/>
    <path d="M257.15 193.3 Q256.9 194.05 255.75 194.05 254.7 194.05 254.35 193.55 L254.3 193.35 254.8 193.3 256.7 193.3 256.85 193.3 257.05 193.3 257.15 193.3 M254.1 193.35 Q254.0 194.35 252.6 194.35 251.8 194.35 251.5 193.9 L252.1 193.45 252.3 193.4 252.35 193.4 252.9 193.4 253.35 193.35 253.5 193.35 254.1 193.35 M243.3 199.9 L243.6 199.65 243.75 200.3 243.4 201.0 Q242.95 201.55 242.3 201.55 241.75 201.55 241.55 201.15 L243.3 199.9 M266.8 224.1 L266.75 223.85 Q266.75 222.9 267.95 222.35 L268.0 222.35 Q268.1 221.6 269.1 221.6 L269.55 221.65 266.8 224.1 M276.5 215.55 L275.8 215.15 275.65 214.75 Q275.65 213.95 276.6 213.85 277.5 213.75 277.55 214.65 L276.5 215.55 M278.35 213.95 L278.1 213.65 278.0 213.2 Q278.0 212.2 279.35 212.2 L279.4 212.1 279.3 211.25 Q279.3 210.15 281.1 208.3 L281.4 208.0 281.3 208.0 Q280.7 208.0 280.5 207.5 L280.4 207.0 Q280.4 206.05 281.3 206.1 281.75 206.1 282.0 206.4 L281.95 206.3 Q281.95 205.35 282.85 205.3 282.9 204.25 283.95 203.95 283.5 203.85 283.4 203.45 L283.35 203.0 283.4 202.65 284.75 203.8 284.65 203.85 284.8 203.85 285.05 204.05 285.65 204.55 285.6 204.65 285.6 204.75 285.7 204.6 286.9 205.6 287.35 206.05 278.35 213.95 M282.15 207.05 L282.2 207.0 282.15 206.95 282.15 207.05" fill="#351f13" fill-rule="evenodd" stroke="none"/>
    <path d="M262.95 226.45 L262.95 226.9 262.9 227.4 249.25 228.45 Q242.1 227.5 236.7 225.55 229.55 222.3 226.35 216.95 230.5 222.05 238.8 223.9 245.75 226.75 255.7 226.95 L259.95 226.7 Q258.45 219.35 253.9 215.75 258.0 217.65 260.1 223.0 L260.9 226.5 262.95 226.45" fill="#a47939" fill-rule="evenodd" stroke="none"/>
    <path d="M267.3 213.95 Q264.1 205.9 257.15 196.05 266.2 201.0 267.3 213.95 M252.8 212.0 Q253.85 203.55 251.15 195.9 257.85 202.7 252.8 212.0" fill="#dabc7a" fill-rule="evenodd" stroke="none"/>
    <path d="M253.9 215.75 Q258.45 219.35 259.95 226.7 L255.7 226.95 Q235.3 226.5 227.55 215.1 228.85 213.85 233.2 213.35 246.0 210.55 252.85 215.05 L253.9 215.75" fill="#382614" fill-rule="evenodd" stroke="none"/>
    <path d="M272.0 211.7 Q257.25 208.2 239.65 205.3 258.85 205.8 272.0 211.7 M274.45 201.95 Q262.45 200.2 246.15 200.35 260.45 197.4 274.45 201.95" fill="#dabc7a" fill-rule="evenodd" stroke="none"/>
    <path d="M263.05 227.4 L249.25 228.45 Q230.35 227.95 223.05 214.65 L252.1 193.45 Q273.85 191.85 287.35 206.05 L263.15 227.3 263.05 227.4" ffdec:has-small-stroke="true" ffdec:original-stroke-width="0.05" fill="none" stroke="#000000" stroke-linecap="round" stroke-linejoin="round" stroke-opacity="0.4" stroke-width="1.0"/>
    <path d="M253.65 212.55 Q262.25 217.55 262.35 226.45 M253.9 215.75 Q258.45 219.35 259.95 226.7 L255.7 226.95 Q239.75 227.45 229.4 220.15 L224.6 215.1 Q230.45 208.15 249.1 210.6 M255.7 226.95 Q235.3 226.5 227.55 215.1 228.85 213.85 233.2 213.35 246.0 210.55 252.85 215.05" ffdec:has-small-stroke="true" ffdec:original-stroke-width="0.05" fill="none" stroke="#000000" stroke-linecap="round" stroke-linejoin="round" stroke-opacity="0.2" stroke-width="1.0"/>
    <path d="M241.85 213.9 L241.55 214.0 241.5 214.1 240.75 214.3 240.7 214.35 Q240.65 213.9 240.4 213.75 240.75 213.55 241.15 213.5 L241.7 213.8 241.85 213.9 M239.6 213.9 L239.55 214.0 239.0 213.95 238.95 213.8 239.6 213.9 M237.4 213.85 L237.4 213.95 237.6 214.4 237.55 214.55 237.65 214.9 237.75 215.05 237.35 215.25 Q236.1 216.0 236.1 216.4 L236.35 216.95 235.95 217.0 235.5 216.65 235.55 216.35 Q235.55 215.8 234.9 215.75 235.35 215.65 235.35 214.95 L235.35 214.7 Q235.55 215.0 236.3 215.0 L236.95 214.7 237.1 214.3 237.05 213.95 236.95 213.85 237.4 213.85 M239.35 215.15 L239.55 215.1 239.8 215.3 239.9 215.65 240.4 215.8 241.1 215.3 241.6 214.75 242.15 214.85 242.6 214.75 243.05 214.85 243.2 214.85 244.1 214.9 Q244.65 214.85 244.7 214.4 L244.8 214.4 245.25 214.3 245.25 214.35 245.35 214.65 245.55 214.8 247.2 214.8 248.15 214.85 248.2 214.85 247.65 215.0 247.2 215.15 246.5 215.1 Q246.0 215.2 246.0 215.6 246.0 216.05 246.85 216.0 247.55 215.95 247.65 215.55 L247.75 215.65 Q248.2 216.05 248.75 216.0 L248.8 216.0 248.8 216.1 248.55 216.05 Q247.9 216.05 247.9 216.6 L247.9 216.65 246.65 216.7 Q245.0 216.95 245.0 217.4 L245.2 217.75 246.6 217.8 247.8 217.65 247.75 218.2 247.75 218.75 Q247.35 219.2 245.4 219.3 245.15 219.35 244.3 219.0 L243.4 218.7 242.95 218.95 243.1 218.4 Q243.1 217.8 242.3 218.05 L242.2 218.1 242.25 218.0 242.6 217.15 243.1 217.0 243.05 217.15 Q243.05 217.65 243.65 217.65 244.25 217.6 244.25 217.05 L244.15 216.8 244.25 216.75 244.5 216.5 244.85 216.55 Q245.7 216.5 245.7 215.95 245.7 215.4 245.0 215.55 244.5 215.65 244.4 215.9 L244.0 215.8 243.8 215.85 243.8 215.75 Q243.8 215.2 243.0 215.05 L242.95 215.1 242.75 215.1 242.15 215.05 242.0 215.05 241.8 215.1 241.3 215.45 241.25 215.65 241.35 215.9 241.9 216.1 242.4 215.95 242.45 216.0 242.65 216.15 242.6 216.15 Q241.95 216.2 241.95 216.65 L241.95 216.7 241.75 216.85 Q241.5 216.45 240.85 216.5 L240.3 216.6 240.2 216.8 239.85 217.0 238.9 217.15 238.7 217.5 238.85 217.9 Q239.0 218.15 239.4 218.2 L239.35 218.25 Q239.35 218.75 240.1 218.7 L240.6 218.65 241.0 218.8 241.45 218.7 241.55 219.0 242.4 219.2 242.85 219.0 242.8 219.15 242.35 219.45 242.25 219.5 Q242.0 219.25 241.4 219.5 240.45 219.9 240.45 220.25 L240.55 220.5 240.7 220.6 240.65 220.75 240.9 221.15 241.5 221.55 241.7 221.5 241.8 221.7 241.75 221.75 241.1 221.7 240.95 221.75 240.55 221.7 240.1 221.6 239.2 221.6 238.75 221.3 238.8 221.2 239.2 221.2 Q240.25 221.15 240.25 220.6 240.25 220.3 239.85 220.25 L239.6 220.25 240.0 220.0 240.45 219.45 Q240.45 218.85 240.0 219.05 L239.0 219.4 238.55 219.25 Q238.0 219.3 238.0 219.85 L238.05 220.2 238.15 220.25 238.05 220.55 238.05 220.6 237.55 220.75 237.3 220.75 236.8 220.85 235.8 220.8 Q235.55 220.75 235.55 221.25 L235.6 221.35 235.4 221.35 235.15 221.2 235.5 220.9 Q235.25 221.25 234.9 221.25 L234.85 221.25 Q234.25 221.25 234.25 220.5 L234.5 220.55 234.6 220.65 234.85 220.8 235.35 220.55 235.5 220.7 235.2 220.3 235.75 220.3 Q236.3 220.25 236.3 219.6 L236.15 219.25 236.25 219.25 236.75 218.95 237.0 218.5 237.15 218.5 237.25 218.8 Q237.45 219.05 237.9 219.0 238.55 218.95 238.55 218.45 238.55 218.05 238.05 218.05 L238.05 217.85 Q237.95 217.4 237.35 217.45 236.6 217.5 236.6 218.05 L236.6 218.1 236.35 218.1 Q235.65 218.2 235.65 218.8 L235.85 219.2 235.6 219.15 235.6 219.0 235.3 218.6 235.5 218.4 235.8 217.9 235.75 217.6 236.15 217.65 236.9 217.4 237.15 217.2 237.65 217.25 238.15 217.2 238.35 217.15 Q239.3 217.1 239.3 216.5 L239.3 216.35 238.8 216.15 239.2 215.85 239.35 215.35 239.35 215.15 M249.15 216.8 L249.5 216.85 249.75 216.85 249.75 216.9 249.85 217.15 Q250.0 217.4 250.3 217.35 L250.4 217.35 250.3 217.8 250.4 218.3 250.65 218.5 250.5 218.55 Q249.75 219.05 249.75 219.5 L249.85 219.8 250.0 219.95 249.9 220.1 249.1 220.75 Q248.65 220.85 248.65 221.25 L248.75 221.45 249.1 221.7 248.8 221.6 248.3 221.55 247.8 221.35 247.1 221.45 246.65 221.5 246.65 221.65 246.5 222.15 246.5 222.2 247.5 222.4 247.55 222.4 247.85 222.4 247.95 222.45 247.9 222.6 248.15 223.1 248.35 223.3 248.15 223.35 Q248.1 222.75 247.4 223.1 L246.6 223.8 246.6 223.95 Q246.95 224.0 247.1 224.2 L247.2 224.45 246.9 224.95 246.6 225.0 246.05 224.85 245.8 224.85 Q245.4 224.85 245.25 224.6 L245.2 224.35 245.3 223.95 245.3 223.9 Q245.3 223.6 244.8 223.45 L245.1 223.05 245.55 222.4 Q245.5 221.9 245.2 221.85 L245.25 221.75 245.3 221.65 Q245.7 221.2 246.05 221.15 L245.85 220.9 245.65 220.65 245.75 220.6 246.15 220.65 246.5 220.85 247.8 220.85 248.3 221.0 Q248.8 220.95 248.95 220.4 249.75 220.5 249.75 219.25 L249.75 218.75 Q250.2 218.7 250.2 218.25 250.2 217.85 249.85 217.35 249.4 216.95 249.1 217.1 L249.15 216.8 M251.3 218.65 Q251.7 218.5 251.7 218.15 251.7 217.45 251.05 217.2 L250.8 217.2 251.05 216.95 251.25 216.55 Q251.25 216.05 250.7 216.1 250.4 216.1 250.05 216.4 L250.05 216.3 Q250.1 215.65 249.45 215.7 L249.25 215.7 249.35 215.5 248.95 214.9 249.45 214.85 Q250.05 214.8 250.2 214.45 L252.35 215.55 252.45 216.4 Q253.0 217.0 253.05 218.05 L252.6 217.95 Q252.0 218.0 252.0 218.45 L252.15 218.8 Q252.4 219.05 252.8 219.05 253.3 219.0 253.3 218.5 L253.15 218.15 Q254.25 218.55 254.5 220.25 256.6 220.25 256.6 222.1 L256.3 223.05 256.4 223.05 256.7 223.2 256.85 223.15 Q257.35 223.15 258.4 225.2 L258.95 225.5 Q260.05 226.35 260.05 226.7 260.05 227.3 259.4 227.3 L259.35 227.3 259.65 226.7 259.35 226.2 258.7 226.0 258.6 226.0 Q258.4 225.7 257.9 225.6 L257.35 225.65 256.8 225.55 256.7 225.55 256.3 225.45 255.95 225.4 255.95 225.3 255.95 225.0 256.0 224.65 Q256.0 223.9 255.2 224.15 L254.7 224.4 254.65 224.3 254.7 224.05 254.5 223.7 254.85 222.45 Q254.85 221.25 254.15 220.75 L254.3 220.15 Q254.3 219.2 253.65 219.4 253.15 219.5 253.0 220.3 L252.45 220.2 Q252.4 220.05 252.2 220.0 L252.3 219.75 Q252.3 219.2 251.65 219.15 L251.2 219.3 251.3 218.8 251.3 218.65 M256.3 227.45 L254.95 227.35 255.6 227.0 255.9 226.8 256.15 226.85 256.1 227.0 256.2 227.35 256.3 227.45 M240.8 226.7 L240.6 226.7 240.05 226.55 239.8 226.45 240.0 226.3 240.45 225.6 240.45 225.55 240.6 225.6 Q240.45 225.75 240.45 226.0 L240.7 226.55 240.8 226.7 M238.25 226.45 L237.65 226.55 Q237.2 226.55 237.0 226.25 L236.9 225.9 236.95 225.75 237.2 225.6 237.65 225.25 237.7 225.25 237.7 225.2 237.75 225.05 237.95 225.05 Q238.9 225.05 238.9 224.35 238.85 223.75 238.2 223.75 237.4 223.75 237.35 224.35 L237.15 224.3 235.8 224.6 235.65 224.55 236.65 224.0 237.45 223.25 Q237.35 222.65 236.85 222.65 L236.4 222.75 236.5 222.4 236.6 222.3 236.8 222.3 237.35 221.95 237.35 222.15 Q237.05 222.1 236.9 222.3 L237.55 222.35 238.7 221.9 Q239.05 221.75 239.15 222.1 L238.8 222.1 Q237.8 222.25 237.8 222.95 237.8 223.6 238.4 223.6 239.6 223.6 239.75 223.1 240.1 223.2 240.1 224.25 L239.7 225.05 239.75 225.05 239.3 225.15 Q238.1 225.6 238.1 226.0 L238.25 226.45 M233.6 221.5 L233.1 221.1 233.25 221.1 Q233.8 221.1 234.0 220.75 L234.35 221.2 234.05 221.15 Q233.65 221.15 233.6 221.5 M232.7 221.0 L232.45 221.0 232.0 220.7 232.4 220.55 232.7 221.0 M231.35 219.75 L231.2 219.35 231.3 218.9 231.4 218.8 Q231.55 218.75 231.9 219.0 L232.1 219.15 232.45 219.55 232.4 219.55 231.6 219.75 231.35 219.75 M231.55 218.5 L231.15 218.5 230.5 218.65 230.45 218.65 230.6 218.45 230.8 217.95 230.85 217.9 231.0 218.2 231.5 218.4 231.55 218.5 M229.65 216.15 L229.9 216.0 230.35 215.9 229.9 216.15 229.65 216.15 M231.95 215.6 L232.25 215.55 232.3 215.7 231.95 215.6 M234.85 214.15 L235.25 214.05 235.2 214.25 235.2 214.4 234.85 214.15 M243.1 216.4 L243.1 216.35 243.15 216.35 243.1 216.4 M246.95 218.3 Q246.95 217.75 245.7 217.85 244.85 217.9 244.85 218.4 L244.9 218.7 Q245.1 218.95 245.5 218.9 L245.8 218.8 246.4 218.85 Q246.95 218.8 246.95 218.3 M237.05 216.95 L237.85 216.45 238.3 216.1 238.65 216.15 238.8 216.15 238.8 216.3 Q238.8 216.85 238.4 216.95 L237.05 216.95 M242.15 221.0 Q242.35 220.45 242.6 220.45 L243.05 220.55 243.4 220.45 244.4 220.7 244.8 220.8 244.7 221.1 244.8 221.4 244.05 221.25 243.6 221.25 Q243.65 220.85 242.7 220.9 L242.15 221.0 M239.75 223.05 L240.1 223.0 240.6 222.95 240.6 223.05 Q240.4 223.1 240.25 223.25 L239.85 223.05 239.75 223.05 M242.55 222.95 L242.6 222.6 Q242.6 222.05 242.0 222.05 L241.75 222.1 241.85 221.85 241.9 221.8 242.45 221.6 243.25 221.75 243.4 221.9 243.8 222.1 244.15 222.2 244.15 222.3 244.3 222.6 243.9 222.65 243.8 222.65 Q243.3 222.65 243.15 222.9 L242.85 223.05 242.55 222.95 M241.45 222.65 L241.4 222.6 Q241.4 222.4 241.55 222.3 L241.45 222.65 M242.55 224.75 L242.7 224.75 243.05 224.75 242.55 224.55 242.45 224.35 242.4 224.15 Q242.4 223.65 243.4 223.6 L243.7 223.6 244.15 223.65 244.8 223.85 Q245.2 223.95 245.2 224.55 L245.1 224.95 245.85 225.3 246.95 225.05 247.55 224.9 247.95 225.0 248.15 225.5 248.05 225.8 248.55 225.6 249.5 225.35 Q250.15 225.35 250.15 225.95 L249.85 226.25 250.35 226.8 Q250.35 227.4 249.55 227.4 L248.5 227.15 248.25 227.3 248.25 227.35 Q248.25 227.95 247.45 227.95 L247.15 227.95 247.0 228.0 Q246.35 228.0 246.35 227.35 246.35 226.95 247.45 226.2 L245.8 226.5 245.1 226.35 244.05 226.2 Q242.2 226.2 241.95 225.55 L241.8 225.6 241.75 225.65 241.65 225.6 241.95 225.5 241.9 225.3 Q241.9 224.8 242.55 224.75 M248.8 223.55 L248.65 223.35 248.95 223.35 Q249.5 223.3 249.5 222.85 L249.35 222.5 249.45 222.5 249.8 222.4 250.0 222.3 250.35 221.85 250.35 221.75 Q250.35 221.35 250.6 221.25 L250.9 221.1 Q251.65 221.05 251.6 222.05 L251.6 222.25 Q251.95 222.3 251.95 222.75 L252.15 222.55 251.8 222.15 251.7 221.7 Q251.7 221.15 252.35 221.25 L252.5 221.25 252.5 221.35 252.5 221.65 252.95 221.95 252.95 222.05 252.85 222.4 253.0 222.8 253.25 222.75 Q253.8 222.8 253.8 223.25 253.8 223.85 253.25 223.85 252.8 223.9 252.65 223.6 L252.4 223.65 252.35 223.7 252.2 223.9 252.2 223.95 252.6 223.85 Q253.15 223.9 253.2 224.25 253.7 224.35 253.7 224.7 253.7 225.2 253.1 225.25 L252.85 225.25 252.4 224.95 252.4 224.9 252.1 224.7 252.0 224.35 252.0 224.3 251.5 224.45 251.35 224.45 251.1 224.4 251.1 224.5 250.8 224.9 250.5 224.95 249.95 224.7 249.95 224.5 249.55 224.6 249.45 224.6 249.0 224.75 248.5 224.6 248.3 224.3 248.6 223.85 248.9 223.6 248.8 223.55 M232.2 218.6 L232.5 218.4 232.7 217.95 232.7 217.7 233.5 217.05 233.7 216.85 233.9 217.0 233.7 217.5 233.8 217.95 233.95 218.2 233.6 218.25 233.45 218.25 233.15 218.35 233.05 218.35 232.85 218.5 232.4 218.7 232.2 218.6 M233.0 219.0 L233.35 218.7 233.35 218.75 Q233.45 219.0 233.85 218.95 L234.2 218.9 234.1 219.25 234.15 219.5 234.65 219.65 234.9 219.65 234.7 220.0 234.55 219.9 234.0 219.8 233.55 219.6 233.2 219.65 233.1 219.55 233.1 219.4 233.0 219.0 M237.0 223.9 L237.05 223.9 237.05 223.85 237.0 223.85 237.0 223.9 M234.65 226.55 Q234.6 225.75 233.95 225.75 233.4 225.75 232.9 226.3 L232.5 226.9 Q232.5 227.5 233.05 227.5 L233.05 227.65 Q233.2 227.95 233.75 227.95 L234.55 227.8 233.45 228.1 Q232.8 228.1 232.45 227.65 L232.25 227.1 Q232.25 225.6 233.75 225.6 235.05 225.6 235.0 226.85 L235.0 227.0 Q234.95 226.6 234.65 226.55 M235.0 229.45 L235.05 229.6 Q235.15 229.9 235.6 229.9 L235.95 229.8 236.15 229.9 236.35 229.9 236.5 230.25 Q236.7 230.65 237.05 230.65 L236.6 230.7 Q235.0 230.7 235.0 229.6 L235.0 229.45 M236.75 229.25 Q236.7 228.65 235.95 228.65 L235.4 228.75 Q235.75 228.5 236.4 228.55 237.8 228.65 237.8 229.7 L237.5 230.45 237.6 230.05 Q237.6 229.35 237.0 229.25 L236.75 229.25 M236.5 231.8 L236.3 232.25 236.3 232.4 235.65 232.25 Q234.65 232.25 234.65 232.8 234.65 233.45 235.6 233.45 236.55 233.45 236.55 232.85 L236.55 232.8 236.9 232.85 237.7 232.55 238.05 232.0 Q238.05 231.45 237.3 231.45 236.75 231.45 236.5 231.8 M237.4 233.0 Q236.75 232.95 236.75 233.65 L236.8 233.95 236.9 234.1 236.75 234.1 234.7 234.3 Q234.4 234.45 234.4 234.8 L234.45 235.1 Q234.55 235.4 235.0 235.4 L237.0 235.2 237.35 234.65 237.2 234.25 237.35 234.25 Q238.0 234.25 238.0 233.65 238.0 233.05 237.4 233.0 M237.0 231.45 Q238.3 231.3 238.3 232.5 L238.05 233.35 238.15 233.5 238.55 234.4 Q238.55 235.15 238.1 235.45 L235.6 235.9 Q234.05 235.9 233.7 235.3 L233.65 235.05 232.9 234.55 232.75 234.0 Q232.75 233.15 233.8 232.8 L234.05 232.3 Q234.5 231.7 235.25 231.7 235.8 231.7 236.05 232.0 236.4 231.55 237.0 231.45 M233.9 233.3 Q233.25 233.3 233.25 233.8 L233.35 234.2 Q233.5 234.55 233.95 234.55 234.5 234.55 234.5 233.9 234.55 233.3 233.9 233.3 M243.85 229.35 L244.0 229.0 Q244.0 228.45 243.4 228.45 243.05 228.45 242.8 228.75 L242.6 229.15 242.6 229.3 Q242.45 229.4 242.45 229.65 242.45 230.45 243.5 230.45 L243.95 230.2 244.1 229.85 243.85 229.35 M244.7 229.15 L244.35 230.1 Q244.0 230.65 243.4 230.65 242.3 230.65 242.3 229.35 242.3 228.9 242.6 228.55 242.95 228.1 243.7 228.1 244.65 228.1 244.7 229.15 M240.6 232.1 Q240.8 231.55 241.75 231.55 L242.4 231.45 242.55 231.0 242.5 230.65 Q242.9 230.95 242.9 231.6 242.9 232.1 242.3 232.7 241.55 233.5 240.45 233.5 239.5 233.5 239.15 232.8 L239.0 232.1 Q239.0 230.6 240.95 230.4 L241.8 230.4 Q239.4 230.45 239.4 232.0 239.4 232.6 240.0 232.6 L240.3 232.55 240.25 232.65 240.3 232.95 Q240.4 233.25 240.85 233.25 241.25 233.25 241.65 232.9 L242.0 232.3 Q242.0 231.5 241.15 231.8 L240.6 232.1 M240.8 236.0 L240.65 235.45 Q240.65 234.45 241.85 234.25 243.05 234.0 243.05 235.2 L242.6 236.05 Q242.2 236.5 241.7 236.5 241.05 236.5 240.8 236.0 M246.95 233.55 Q246.95 232.55 248.0 232.5 249.05 232.45 249.05 233.5 249.05 234.55 248.0 234.55 247.35 234.55 247.1 234.05 L246.95 233.55 M251.05 219.55 L251.05 219.65 251.05 219.7 250.95 219.6 251.05 219.55 M251.1 219.9 L251.15 220.0 251.45 220.25 251.35 220.3 251.05 220.35 251.1 219.95 251.1 219.9 M250.4 223.85 L250.5 223.85 Q250.95 223.85 251.1 224.2 L251.35 224.1 Q250.7 224.0 250.7 223.45 L250.75 223.3 250.7 223.25 250.6 223.2 250.65 223.35 250.2 223.4 Q250.4 223.55 250.4 223.85 M248.2 234.35 Q248.9 234.35 248.9 233.7 248.9 233.1 248.3 233.15 247.65 233.2 247.65 233.75 247.65 234.35 248.2 234.35 M254.4 225.95 L254.35 226.0 254.15 225.95 Q253.55 225.95 253.55 226.5 L253.55 226.55 253.25 226.95 253.25 227.0 Q253.1 226.65 252.65 226.7 252.0 226.75 252.0 227.3 L252.1 227.65 252.15 227.7 251.4 227.95 Q251.0 227.95 250.85 227.65 L250.75 227.3 250.9 227.15 250.35 226.75 250.2 226.35 Q250.2 225.6 250.95 225.8 L251.4 226.0 252.1 225.9 Q253.05 225.1 253.15 226.05 L253.35 225.9 Q253.85 225.5 254.25 225.5 L254.65 225.6 254.7 225.55 254.85 225.75 254.4 225.95 M261.4 233.4 Q261.05 233.95 260.35 233.95 259.15 233.95 259.15 232.9 259.15 231.6 260.4 231.55 261.65 231.45 261.65 232.6 L261.4 233.4 M260.95 232.7 L261.1 232.15 Q261.1 231.6 260.4 231.65 259.7 231.7 259.7 232.25 L259.9 232.7 259.85 232.95 259.95 233.3 Q260.1 233.6 260.55 233.6 261.05 233.6 261.05 233.05 L260.95 232.7 M219.15 223.6 L219.15 223.55 Q219.15 222.75 218.5 223.05 217.8 223.3 217.8 223.9 217.8 224.5 218.4 224.5 L218.55 224.5 218.55 224.6 218.8 225.15 218.55 225.15 Q217.85 225.15 217.65 224.6 L217.55 224.05 Q217.55 222.75 218.7 222.85 219.8 222.95 219.8 224.0 L219.75 224.3 Q219.7 223.6 219.15 223.6 M223.9 227.05 Q225.05 227.05 225.05 228.1 225.05 228.5 224.3 229.2 223.5 230.05 222.65 230.05 221.6 230.05 221.15 229.15 220.85 228.6 220.85 228.1 220.85 227.05 221.45 227.1 L222.8 227.4 223.9 227.05 M223.6 228.6 L224.05 228.75 Q224.9 228.75 224.9 228.05 224.9 227.5 224.3 227.5 223.4 227.5 223.4 228.15 L223.45 228.4 223.4 228.35 222.55 228.45 221.8 228.65 221.55 228.95 Q221.55 229.75 222.55 229.75 223.1 229.75 223.4 229.35 L223.6 228.8 223.6 228.6 M222.55 227.55 Q222.25 227.25 221.8 227.25 221.2 227.25 221.2 227.8 221.2 228.5 222.1 228.5 222.75 228.5 222.75 227.95 L222.55 227.55 M238.05 239.9 L238.0 240.1 Q238.0 240.7 238.85 240.7 240.1 240.7 240.1 239.95 240.1 239.35 239.55 239.35 L239.3 239.35 239.1 239.0 Q238.8 238.65 238.15 238.65 237.45 238.65 237.45 239.2 237.45 239.7 238.05 239.9 M240.35 240.1 Q240.35 241.2 239.15 241.2 238.05 241.2 237.4 240.6 236.95 240.2 236.95 239.8 236.95 238.5 238.65 238.55 240.35 238.6 240.35 240.1" fill="#632e2e" fill-rule="evenodd" stroke="none"/>
    <path d="M237.75 215.05 L238.2 214.95 Q238.35 214.7 238.75 214.7 239.3 214.7 239.35 215.15 L239.35 215.35 239.2 215.85 238.8 216.15 238.65 216.15 238.3 216.1 237.85 216.45 237.05 216.95 236.7 217.05 236.35 216.95 236.1 216.4 Q236.1 216.0 237.35 215.25 L237.75 215.05 M248.8 216.1 Q249.15 216.25 249.15 216.75 L249.15 216.8 249.1 217.1 Q249.4 216.95 249.85 217.35 250.2 217.85 250.2 218.25 250.2 218.7 249.75 218.75 L249.75 219.25 Q249.75 220.5 248.95 220.4 248.8 220.95 248.3 221.0 L247.8 220.85 246.5 220.85 246.15 220.65 245.75 220.6 245.65 220.65 245.5 220.7 245.1 220.8 244.8 220.8 244.4 220.7 243.4 220.45 243.05 220.55 242.6 220.45 Q242.35 220.45 242.15 221.0 L241.7 221.5 241.5 221.55 240.9 221.15 240.65 220.75 240.7 220.6 240.55 220.5 240.45 220.25 Q240.45 219.9 241.4 219.5 242.0 219.25 242.25 219.5 L242.35 219.45 242.8 219.15 242.85 219.0 242.4 219.2 241.55 219.0 241.45 218.7 241.0 218.8 240.6 218.65 240.1 218.7 Q239.35 218.75 239.35 218.25 L239.4 218.2 Q239.55 217.65 240.9 217.55 L241.05 217.55 241.5 217.05 241.75 216.85 241.95 216.7 241.95 216.65 Q241.95 216.2 242.6 216.15 L242.65 216.15 242.45 216.0 242.4 215.95 241.9 216.1 241.35 215.9 241.25 215.65 241.3 215.45 241.8 215.1 242.0 215.05 242.15 215.05 242.75 215.1 242.95 215.1 243.0 215.05 Q243.8 215.2 243.8 215.75 L243.8 215.85 244.0 215.8 244.4 215.9 Q244.5 215.65 245.0 215.55 245.7 215.4 245.7 215.95 245.7 216.5 244.85 216.55 L244.5 216.5 244.25 216.75 244.15 216.8 244.25 217.05 Q244.25 217.6 243.65 217.65 243.05 217.65 243.05 217.15 L243.1 217.0 242.6 217.15 242.25 218.0 242.2 218.1 242.3 218.05 Q243.1 217.8 243.1 218.4 L242.95 218.95 243.4 218.7 244.3 219.0 Q245.15 219.35 245.4 219.3 247.35 219.2 247.75 218.75 L247.75 218.2 247.8 217.65 246.6 217.8 245.2 217.75 245.0 217.4 Q245.0 216.95 246.65 216.7 L247.9 216.65 247.9 216.6 Q247.9 216.05 248.55 216.05 L248.8 216.1 M250.65 218.5 Q251.25 218.15 251.3 218.65 L251.3 218.8 251.2 219.3 251.1 219.45 251.05 219.55 250.95 219.6 251.05 219.7 251.1 219.9 251.1 219.95 251.05 220.35 251.35 220.3 251.3 220.55 251.35 220.85 Q251.55 221.15 251.95 221.1 252.45 221.05 252.45 220.45 L252.45 220.2 253.0 220.3 Q253.15 219.5 253.65 219.4 254.3 219.2 254.3 220.15 L254.15 220.75 Q254.85 221.25 254.85 222.45 L254.5 223.7 254.7 224.05 254.65 224.3 254.7 224.4 255.2 224.15 Q256.0 223.9 256.0 224.65 L255.95 225.0 255.95 225.3 255.95 225.4 256.3 225.45 256.7 225.55 256.8 225.55 257.35 225.65 257.9 225.6 Q258.4 225.7 258.6 226.0 L258.7 226.0 259.35 226.2 259.65 226.7 259.35 227.3 259.0 227.35 258.6 227.2 258.25 227.3 256.75 227.65 256.3 227.45 256.2 227.35 256.1 227.0 256.15 226.85 255.9 226.8 255.6 227.0 254.95 227.35 254.75 227.45 Q254.35 228.7 251.7 228.7 250.45 228.7 249.95 228.05 249.2 228.9 248.0 228.9 246.95 228.9 246.55 228.05 L245.5 228.2 244.95 228.2 244.55 227.9 244.55 227.65 Q244.55 227.35 244.9 227.15 L245.2 227.0 244.95 227.0 Q244.4 227.0 244.2 226.7 L244.2 226.65 244.0 226.65 Q243.95 227.15 243.4 227.15 242.35 227.15 242.35 226.45 L242.45 226.2 242.3 226.35 242.3 226.4 Q242.3 227.0 241.6 227.0 L240.8 226.7 240.7 226.55 240.45 226.0 Q240.45 225.75 240.6 225.6 240.75 225.45 241.1 225.45 L241.65 225.6 241.75 225.65 241.8 225.6 241.95 225.55 Q242.2 226.2 244.05 226.2 L245.1 226.35 245.8 226.5 247.45 226.2 Q246.35 226.95 246.35 227.35 246.35 228.0 247.0 228.0 L247.15 227.95 247.45 227.95 Q248.25 227.95 248.25 227.35 L248.25 227.3 248.5 227.15 249.55 227.4 Q250.35 227.4 250.35 226.8 L249.85 226.25 250.15 225.95 Q250.15 225.35 249.5 225.35 L248.55 225.6 248.05 225.8 248.15 225.5 247.95 225.0 248.1 224.65 248.35 224.65 248.5 224.6 249.0 224.75 249.45 224.6 249.55 224.6 249.95 224.5 249.95 224.7 250.5 224.95 250.8 224.9 250.8 225.0 250.85 225.2 251.15 225.45 251.95 225.3 252.05 224.95 Q252.05 224.45 251.5 224.45 L252.0 224.3 252.0 224.35 252.1 224.7 252.4 224.9 252.4 224.95 252.85 225.25 253.1 225.25 Q253.7 225.2 253.7 224.7 253.7 224.35 253.2 224.25 253.15 223.9 252.6 223.85 L252.2 223.95 252.2 223.9 252.35 223.7 252.4 223.65 252.65 223.6 Q252.8 223.9 253.25 223.85 253.8 223.85 253.8 223.25 253.8 222.8 253.25 222.75 L253.0 222.8 252.85 222.4 252.95 222.05 252.95 221.95 253.05 221.95 253.6 221.6 253.75 221.15 Q253.75 220.65 253.15 220.75 252.55 220.8 252.5 221.25 L252.35 221.25 Q251.7 221.15 251.7 221.7 L251.8 222.15 252.15 222.55 251.95 222.75 Q251.95 222.3 251.6 222.25 L251.6 222.05 Q251.65 221.05 250.9 221.1 L250.6 221.25 250.6 221.2 Q250.05 221.6 249.4 221.65 L249.2 221.7 250.0 221.95 250.35 221.85 250.0 222.3 249.8 222.4 249.45 222.5 249.35 222.5 249.5 222.85 Q249.5 223.3 248.95 223.35 L248.65 223.35 248.8 223.55 248.4 223.55 Q247.8 223.65 247.75 224.1 L247.45 224.1 247.1 224.2 Q246.95 224.0 246.6 223.95 L246.6 223.8 247.4 223.1 Q248.1 222.75 248.15 223.35 L248.35 223.3 248.15 223.1 247.9 222.6 247.95 222.45 247.85 222.4 247.95 222.4 Q248.05 222.1 248.5 222.15 L248.55 221.85 248.3 221.55 248.8 221.6 249.1 221.7 248.75 221.45 248.65 221.25 Q248.65 220.85 249.1 220.75 L249.9 220.1 250.0 219.95 249.85 219.8 249.75 219.5 Q249.75 219.05 250.5 218.55 L250.65 218.5 M253.05 218.05 L253.05 218.1 253.15 218.15 253.3 218.5 Q253.3 219.0 252.8 219.05 252.4 219.05 252.15 218.8 L252.0 218.45 Q252.0 218.0 252.6 217.95 L253.05 218.05 M239.8 226.45 L239.1 226.7 238.25 226.45 238.1 226.0 Q238.1 225.6 239.3 225.15 L239.75 225.05 239.7 225.05 240.1 224.25 Q240.1 223.2 239.75 223.1 L239.75 223.05 239.75 222.95 Q239.75 222.15 239.15 222.1 239.05 221.75 238.7 221.9 L237.55 222.35 236.9 222.3 Q237.05 222.1 237.35 222.15 L237.35 221.95 236.8 222.3 236.6 222.3 236.5 222.4 236.4 222.75 Q236.1 222.8 235.75 223.0 L235.3 222.75 234.75 222.4 234.4 222.5 Q234.1 222.5 233.85 222.05 L233.6 221.55 233.6 221.5 Q233.65 221.15 234.05 221.15 L234.35 221.2 234.0 220.75 Q233.8 221.1 233.25 221.1 L233.1 221.1 232.7 221.0 232.4 220.55 232.0 220.7 231.8 220.7 Q230.9 220.7 230.9 220.15 L231.1 219.75 231.35 219.75 231.6 219.75 232.4 219.55 232.45 219.55 232.1 219.15 Q232.2 218.95 232.55 218.9 L233.0 219.0 233.1 219.4 233.1 219.55 233.1 219.65 233.2 219.65 233.55 219.6 234.0 219.8 234.1 220.25 234.1 220.35 234.5 220.55 234.25 220.5 Q234.25 221.25 234.85 221.25 L234.9 221.25 234.95 221.25 235.15 221.2 235.4 221.35 235.6 221.35 Q235.75 221.9 236.9 221.8 237.95 221.75 237.95 221.15 L237.55 220.75 238.05 220.6 238.05 220.55 238.15 220.25 238.05 220.2 238.0 219.85 Q238.0 219.3 238.55 219.25 L239.0 219.4 240.0 219.05 Q240.45 218.85 240.45 219.45 L240.0 220.0 239.6 220.25 239.85 220.25 Q240.25 220.3 240.25 220.6 240.25 221.15 239.2 221.2 L238.8 221.2 238.75 221.3 239.2 221.6 240.1 221.6 240.55 221.7 240.95 221.75 241.15 221.75 Q241.55 221.65 241.75 222.1 L241.55 222.3 Q241.4 222.4 241.4 222.6 L241.45 222.65 Q241.45 223.05 241.75 223.15 L242.2 223.2 242.55 222.95 242.85 223.05 243.15 222.9 243.1 223.2 243.2 223.5 243.4 223.6 Q242.4 223.65 242.4 224.15 L242.45 224.35 241.35 224.15 Q240.15 224.3 240.15 225.0 L240.15 225.05 Q240.15 225.4 240.45 225.55 L240.45 225.6 240.0 226.3 239.8 226.45 M236.95 225.75 L235.55 225.9 Q234.9 225.9 234.25 225.4 233.7 224.95 233.7 224.75 L233.8 224.45 Q233.95 224.15 234.4 224.15 L234.6 224.15 Q235.05 224.2 235.65 224.55 L235.8 224.6 237.15 224.3 237.35 224.35 Q237.4 223.75 238.2 223.75 238.85 223.75 238.9 224.35 238.9 225.05 237.95 225.05 L237.75 225.05 237.7 225.2 237.65 225.25 237.2 225.6 236.95 225.75 M231.7 218.6 L231.55 218.5 231.5 218.4 231.45 218.35 231.35 218.0 Q231.35 217.55 231.6 217.35 L231.55 217.2 232.9 215.85 234.25 215.8 234.55 215.75 234.9 215.75 Q235.55 215.8 235.55 216.35 L235.5 216.65 Q235.3 217.1 234.4 217.1 L233.9 217.0 233.7 216.85 233.5 217.05 232.7 217.7 232.7 217.95 232.5 218.4 232.2 218.6 231.95 218.65 231.7 218.6 M229.4 217.4 L229.0 217.1 228.9 216.75 Q228.9 216.25 229.65 216.15 L229.9 216.15 Q230.5 216.15 230.55 216.75 230.55 217.4 229.6 217.4 L229.4 217.4 M243.1 216.4 L243.15 216.35 243.1 216.35 243.1 216.4 M235.3 218.6 L235.6 219.0 235.6 219.15 Q235.5 219.55 234.9 219.65 L234.65 219.65 234.15 219.5 234.1 219.25 234.2 218.9 Q234.45 218.6 235.05 218.6 L235.3 218.6 M235.85 219.2 L235.65 218.8 Q235.65 218.2 236.35 218.1 L236.6 218.1 236.6 218.05 Q236.6 217.5 237.35 217.45 237.95 217.4 238.05 217.85 L238.05 218.05 237.85 218.25 237.15 218.5 237.0 218.5 236.75 218.95 236.25 219.25 236.15 219.25 235.85 219.2 M241.75 221.75 L241.8 221.7 241.9 221.8 241.85 221.85 241.75 221.75 M243.6 221.25 L244.05 221.25 244.8 221.4 244.85 221.5 245.25 221.75 245.2 221.85 Q245.5 221.9 245.55 222.4 L245.1 223.05 244.8 223.45 Q245.3 223.6 245.3 223.9 L245.3 223.95 245.2 224.35 245.25 224.6 Q245.4 224.85 245.8 224.85 L246.05 224.85 246.6 225.0 246.9 224.95 246.95 225.05 245.85 225.3 245.1 224.95 245.2 224.55 Q245.2 223.95 244.8 223.85 L244.15 223.65 244.45 223.2 Q244.45 222.7 243.9 222.65 L244.3 222.6 244.15 222.3 244.15 222.2 Q244.25 221.8 244.85 221.75 L245.1 221.8 Q244.9 221.5 244.35 221.35 243.55 221.15 243.55 221.75 L243.8 222.1 243.4 221.9 243.25 221.75 243.5 221.7 243.6 221.3 243.6 221.25 M239.75 223.05 L239.85 223.05 240.25 223.25 Q240.4 223.1 240.6 223.05 L240.6 222.95 240.1 223.0 239.75 223.05 M242.55 224.75 L242.55 224.55 243.05 224.75 242.7 224.75 242.55 224.75 M247.5 222.4 L246.5 222.2 246.5 222.15 246.65 221.65 246.65 221.5 247.1 221.45 247.0 221.75 247.25 222.15 247.5 222.4 M234.65 226.55 Q234.95 226.6 235.0 227.0 L235.0 227.1 234.7 227.65 234.55 227.8 233.75 227.95 Q233.2 227.95 233.05 227.65 L233.05 227.5 233.0 227.35 Q233.0 226.85 234.0 226.6 L234.65 226.55 M237.05 230.65 Q236.7 230.65 236.5 230.25 L236.35 229.9 236.35 229.8 Q236.35 229.3 236.75 229.25 L237.0 229.25 Q237.6 229.35 237.6 230.05 L237.5 230.45 237.05 230.65 M237.4 233.0 Q238.0 233.05 238.0 233.65 238.0 234.25 237.35 234.25 L237.2 234.25 237.35 234.65 237.0 235.2 235.0 235.4 Q234.55 235.4 234.45 235.1 L234.4 234.8 Q234.4 234.45 234.7 234.3 L236.75 234.1 236.9 234.1 236.8 233.95 236.75 233.65 Q236.75 232.95 237.4 233.0 M242.6 229.3 L243.15 229.15 243.85 229.35 244.1 229.85 243.95 230.2 243.5 230.45 Q242.45 230.45 242.45 229.65 242.45 229.4 242.6 229.3 M240.6 232.1 L241.15 231.8 Q242.0 231.5 242.0 232.3 L241.65 232.9 Q241.25 233.25 240.85 233.25 240.4 233.25 240.3 232.95 L240.25 232.65 240.3 232.55 Q240.3 232.3 240.6 232.1 M250.4 223.85 Q250.4 223.55 250.2 223.4 L250.65 223.35 250.6 223.2 250.7 223.25 250.75 223.3 250.7 223.45 Q250.7 224.0 251.35 224.1 L251.1 224.2 Q250.95 223.85 250.5 223.85 L250.4 223.85 M251.35 224.45 L251.1 224.5 251.1 224.4 251.35 224.45 M254.4 225.95 L254.85 225.75 254.7 225.55 254.65 225.6 254.25 225.5 Q253.85 225.5 253.35 225.9 L253.15 226.05 Q253.05 225.1 252.1 225.9 L251.4 226.0 250.95 225.8 Q250.2 225.6 250.2 226.35 L250.35 226.75 250.9 227.15 250.75 227.3 250.85 227.65 Q251.0 227.95 251.4 227.95 L252.15 227.7 252.1 227.65 252.0 227.3 Q252.0 226.75 252.65 226.7 253.1 226.65 253.25 227.0 L253.25 226.95 253.55 226.55 253.55 226.5 Q253.55 225.95 254.15 225.95 L254.35 226.0 254.4 225.95 M248.2 234.35 Q247.65 234.35 247.65 233.75 247.65 233.2 248.3 233.15 248.9 233.1 248.9 233.7 248.9 234.35 248.2 234.35 M260.95 232.7 L261.05 233.05 Q261.05 233.6 260.55 233.6 260.1 233.6 259.95 233.3 L259.85 232.95 259.9 232.7 Q260.0 232.4 260.45 232.45 260.8 232.5 260.95 232.7 M218.55 224.5 Q218.6 223.55 219.15 223.6 219.7 223.6 219.75 224.3 L219.75 224.4 Q219.75 225.2 219.15 225.2 L218.8 225.15 218.55 224.6 218.55 224.5 M223.6 228.6 L223.6 228.8 223.4 229.35 Q223.1 229.75 222.55 229.75 221.55 229.75 221.55 228.95 L221.8 228.65 222.55 228.45 223.4 228.35 223.45 228.4 223.6 228.6 M239.3 239.35 L239.55 239.35 Q240.1 239.35 240.1 239.95 240.1 240.7 238.85 240.7 238.0 240.7 238.0 240.1 L238.05 239.9 Q238.25 239.4 239.3 239.35" fill="#3a1b1b" fill-rule="evenodd" stroke="none"/>
    <path d="M241.85 213.9 L242.45 213.8 242.75 213.85 242.75 213.8 Q243.15 213.25 243.9 213.2 L244.75 213.35 245.8 213.0 246.45 213.05 246.8 213.0 247.8 213.35 Q248.6 213.65 250.2 214.45 250.05 214.8 249.45 214.85 L248.95 214.9 249.35 215.5 249.25 215.7 249.45 215.7 Q250.1 215.65 250.05 216.3 L250.05 216.4 Q250.4 216.1 250.7 216.1 251.25 216.05 251.25 216.55 L251.05 216.95 250.8 217.2 251.05 217.2 Q251.7 217.45 251.7 218.15 251.7 218.5 251.3 218.65 251.25 218.15 250.65 218.5 L250.4 218.3 250.3 217.8 250.4 217.35 250.3 217.35 Q250.0 217.4 249.85 217.15 L249.75 216.9 249.75 216.85 249.5 216.85 249.15 216.8 249.15 216.75 Q249.15 216.25 248.8 216.1 L248.8 216.0 248.75 216.0 Q248.2 216.05 247.75 215.65 L247.65 215.55 Q247.55 215.95 246.85 216.0 246.0 216.05 246.0 215.6 246.0 215.2 246.5 215.1 L247.2 215.15 247.65 215.0 248.2 214.85 248.15 214.85 247.2 214.8 245.55 214.8 245.35 214.65 245.25 214.35 245.25 214.3 244.8 214.4 244.7 214.4 Q244.65 214.85 244.1 214.9 L243.2 214.85 243.05 214.85 242.6 214.75 242.15 214.85 241.6 214.75 241.1 215.3 240.4 215.8 239.9 215.65 239.8 215.3 239.55 215.1 239.35 215.15 Q239.3 214.7 238.75 214.7 238.35 214.7 238.2 214.95 L237.75 215.05 237.65 214.9 237.55 214.55 237.6 214.4 237.4 213.95 237.4 213.85 Q237.5 213.2 238.25 213.4 238.75 213.5 238.95 213.8 L239.0 213.95 239.55 214.0 239.6 213.9 Q239.7 213.6 240.1 213.65 L240.4 213.75 Q240.65 213.9 240.7 214.35 L240.75 214.3 241.5 214.1 241.55 214.0 241.85 213.9 M234.6 224.15 L234.55 223.95 235.2 223.35 235.3 223.25 235.35 223.25 235.4 223.2 235.75 223.0 Q236.1 222.8 236.4 222.75 L236.85 222.65 Q237.35 222.65 237.45 223.25 L236.65 224.0 235.65 224.55 Q235.05 224.2 234.6 224.15 M231.4 218.8 L231.7 218.6 231.95 218.65 232.2 218.6 232.4 218.7 232.85 218.5 233.05 218.35 233.15 218.35 233.45 218.25 233.6 218.25 233.95 218.2 233.8 217.95 233.7 217.5 233.9 217.0 234.4 217.1 Q235.3 217.1 235.5 216.65 L235.95 217.0 236.35 216.95 236.7 217.05 237.05 216.95 238.4 216.95 Q238.8 216.85 238.8 216.3 L238.8 216.15 239.3 216.35 239.3 216.5 Q239.3 217.1 238.35 217.15 L238.15 217.2 237.65 217.25 237.15 217.2 236.9 217.4 236.15 217.65 235.75 217.6 235.8 217.9 235.5 218.4 235.3 218.6 235.05 218.6 Q234.45 218.6 234.2 218.9 L233.85 218.95 Q233.45 219.0 233.35 218.75 L233.35 218.7 233.0 219.0 232.55 218.9 Q232.2 218.95 232.1 219.15 L231.9 219.0 Q231.55 218.75 231.4 218.8 M230.45 218.65 L229.95 218.85 Q229.5 218.85 229.4 218.55 L229.35 218.2 229.55 217.6 229.4 217.4 229.6 217.4 Q230.55 217.4 230.55 216.75 230.5 216.15 229.9 216.15 L230.35 215.9 231.8 215.6 231.95 215.6 232.3 215.7 232.25 215.55 232.25 215.5 232.35 215.2 233.55 214.95 233.6 214.95 233.75 214.9 233.95 214.9 233.9 214.7 Q233.9 214.05 234.65 214.1 L234.85 214.15 235.2 214.4 235.2 214.25 235.25 214.05 Q235.45 213.7 236.2 213.7 L236.95 213.85 237.05 213.95 237.1 214.3 236.95 214.7 236.3 215.0 Q235.55 215.0 235.35 214.7 L235.35 214.95 Q235.35 215.65 234.9 215.75 L234.55 215.75 234.25 215.8 232.9 215.85 231.55 217.2 231.6 217.35 Q231.35 217.55 231.35 218.0 L231.45 218.35 231.5 218.4 231.0 218.2 230.85 217.9 230.8 217.95 230.6 218.45 230.45 218.65 M246.95 218.3 Q246.95 218.8 246.4 218.85 L245.8 218.8 245.5 218.9 Q245.1 218.95 244.9 218.7 L244.85 218.4 Q244.85 217.9 245.7 217.85 246.95 217.75 246.95 218.3 M235.6 219.15 L235.85 219.2 236.15 219.25 236.3 219.6 Q236.3 220.25 235.75 220.3 L235.2 220.3 235.5 220.7 235.35 220.55 234.85 220.8 234.6 220.65 234.5 220.55 234.1 220.35 234.1 220.25 234.0 219.8 234.55 219.9 234.7 220.0 234.9 219.65 Q235.5 219.55 235.6 219.15 M238.05 218.05 Q238.55 218.05 238.55 218.45 238.55 218.95 237.9 219.0 237.45 219.05 237.25 218.8 L237.15 218.5 237.85 218.25 238.05 218.05 M234.9 221.25 Q235.25 221.25 235.5 220.9 L235.15 221.2 234.95 221.25 234.9 221.25 M235.6 221.35 L235.55 221.25 Q235.55 220.75 235.8 220.8 L236.8 220.85 237.3 220.75 237.55 220.75 237.95 221.15 Q237.95 221.75 236.9 221.8 235.75 221.9 235.6 221.35 M240.95 221.75 L241.1 221.7 241.75 221.75 241.85 221.85 241.75 222.1 242.0 222.05 Q242.6 222.05 242.6 222.6 L242.55 222.95 242.2 223.2 241.75 223.15 Q241.45 223.05 241.45 222.65 L241.55 222.3 241.75 222.1 Q241.55 221.65 241.15 221.75 L240.95 221.75 M241.8 221.7 L241.7 221.5 242.15 221.0 242.7 220.9 Q243.65 220.85 243.6 221.25 L243.6 221.3 243.5 221.7 243.25 221.75 242.45 221.6 241.9 221.8 241.8 221.7 M239.4 218.2 Q239.0 218.15 238.85 217.9 L238.7 217.5 238.9 217.15 239.85 217.0 240.2 216.8 240.3 216.6 240.85 216.5 Q241.5 216.45 241.75 216.85 L241.5 217.05 241.05 217.55 240.9 217.55 Q239.55 217.65 239.4 218.2 M244.8 221.4 L244.7 221.1 244.8 220.8 245.1 220.8 245.5 220.7 245.65 220.65 245.85 220.9 246.05 221.15 Q245.7 221.2 245.3 221.65 L245.25 221.75 244.85 221.5 244.8 221.4 M239.75 223.05 L239.75 223.1 Q239.6 223.6 238.4 223.6 237.8 223.6 237.8 222.95 237.8 222.25 238.8 222.1 L239.15 222.1 Q239.75 222.15 239.75 222.95 L239.75 223.05 M243.15 222.9 Q243.3 222.65 243.8 222.65 L243.9 222.65 Q244.45 222.7 244.45 223.2 L244.15 223.65 243.7 223.6 243.4 223.6 243.2 223.5 243.1 223.2 243.15 222.9 M244.15 222.2 L243.8 222.1 243.55 221.75 Q243.55 221.15 244.35 221.35 244.9 221.5 245.1 221.8 L244.85 221.75 Q244.25 221.8 244.15 222.2 M242.55 224.55 L242.55 224.75 Q241.9 224.8 241.9 225.3 L241.95 225.5 241.65 225.6 241.1 225.45 Q240.75 225.45 240.6 225.6 L240.45 225.55 Q240.15 225.4 240.15 225.05 L240.15 225.0 Q240.15 224.3 241.35 224.15 L242.45 224.35 242.55 224.55 M247.1 221.45 L247.8 221.35 248.3 221.55 248.55 221.85 248.5 222.15 Q248.05 222.1 247.95 222.4 L247.85 222.4 247.55 222.4 247.5 222.4 247.25 222.15 247.0 221.75 247.1 221.45 M246.9 224.95 L247.2 224.45 247.1 224.2 247.45 224.1 247.75 224.1 Q247.8 223.65 248.4 223.55 L248.8 223.55 248.9 223.6 248.6 223.85 248.3 224.3 248.5 224.6 248.35 224.65 248.1 224.65 247.95 225.0 247.55 224.9 246.95 225.05 246.9 224.95 M250.35 221.85 L250.0 221.95 249.2 221.7 249.4 221.65 Q250.05 221.6 250.6 221.2 L250.6 221.25 Q250.35 221.35 250.35 221.75 L250.35 221.85 M252.5 221.25 Q252.55 220.8 253.15 220.75 253.75 220.65 253.75 221.15 L253.6 221.6 253.05 221.95 252.95 221.95 252.5 221.65 252.5 221.35 252.5 221.25 M251.5 224.45 Q252.05 224.45 252.05 224.95 L251.95 225.3 251.15 225.45 250.85 225.2 250.8 225.0 250.8 224.9 251.1 224.5 251.35 224.45 251.5 224.45 M233.1 219.55 L233.2 219.65 233.1 219.65 233.1 219.55 M233.05 227.5 Q232.5 227.5 232.5 226.9 L232.9 226.3 Q233.4 225.75 233.95 225.75 234.6 225.75 234.65 226.55 L234.0 226.6 Q233.0 226.85 233.0 227.35 L233.05 227.5 M236.35 229.9 L236.15 229.9 235.95 229.8 235.6 229.9 Q235.15 229.9 235.05 229.6 L235.0 229.45 235.0 229.25 Q235.0 228.85 235.4 228.75 L235.95 228.65 Q236.7 228.65 236.75 229.25 236.35 229.3 236.35 229.8 L236.35 229.9 M236.5 231.8 Q236.75 231.45 237.3 231.45 238.05 231.45 238.05 232.0 L237.7 232.55 236.9 232.85 236.55 232.8 236.55 232.85 Q236.55 233.45 235.6 233.45 234.65 233.45 234.65 232.8 234.65 232.25 235.65 232.25 L236.3 232.4 236.3 232.25 236.5 231.8 M233.9 233.3 Q234.55 233.3 234.5 233.9 234.5 234.55 233.95 234.55 233.5 234.55 233.35 234.2 L233.25 233.8 Q233.25 233.3 233.9 233.3 M243.85 229.35 L243.15 229.15 242.6 229.3 242.6 229.15 242.8 228.75 Q243.05 228.45 243.4 228.45 244.0 228.45 244.0 229.0 L243.85 229.35 M242.5 230.65 L242.55 231.0 242.4 231.45 241.75 231.55 Q240.8 231.55 240.6 232.1 240.3 232.3 240.3 232.55 L240.0 232.6 Q239.4 232.6 239.4 232.0 239.4 230.45 241.8 230.4 L241.9 230.4 Q242.35 230.4 242.5 230.65 M251.2 219.3 L251.65 219.15 Q252.3 219.2 252.3 219.75 L252.2 220.0 Q252.4 220.05 252.45 220.2 L252.45 220.45 Q252.45 221.05 251.95 221.1 251.55 221.15 251.35 220.85 L251.3 220.55 251.35 220.3 251.45 220.25 251.15 220.0 251.1 219.9 251.05 219.7 251.05 219.65 251.05 219.55 251.1 219.45 251.2 219.3 M259.9 232.7 L259.7 232.25 Q259.7 231.7 260.4 231.65 261.1 231.6 261.1 232.15 L260.95 232.7 Q260.8 232.5 260.45 232.45 260.0 232.4 259.9 232.7 M218.55 224.5 L218.4 224.5 Q217.8 224.5 217.8 223.9 217.8 223.3 218.5 223.05 219.15 222.75 219.15 223.55 L219.15 223.6 Q218.6 223.55 218.55 224.5 M223.45 228.4 L223.4 228.15 Q223.4 227.5 224.3 227.5 224.9 227.5 224.9 228.05 224.9 228.75 224.05 228.75 L223.6 228.6 223.45 228.4 M222.55 227.55 L222.75 227.95 Q222.75 228.5 222.1 228.5 221.2 228.5 221.2 227.8 221.2 227.25 221.8 227.25 222.25 227.25 222.55 227.55 M238.05 239.9 Q237.45 239.7 237.45 239.2 237.45 238.65 238.15 238.65 238.8 238.65 239.1 239.0 L239.3 239.35 Q238.25 239.4 238.05 239.9" fill="#7b3939" fill-rule="evenodd" stroke="none"/>
  </g>
</svg>
