<?xml version="1.0" encoding="UTF-8" standalone="no"?>
<svg xmlns:ffdec="https://www.free-decompiler.com/flash" xmlns:xlink="http://www.w3.org/1999/xlink" ffdec:objectType="shape" height="52.15px" width="47.8px" xmlns="http://www.w3.org/2000/svg">
  <g transform="matrix(1.0, 0.0, 0.0, 1.0, 23.9, 26.05)">
    <path d="M2.8 -25.8 Q4.55 -25.8 6.45 -25.1 8.75 -24.55 10.85 -23.35 L15.75 -19.5 16.1 -19.15 16.95 -18.1 17.3 -14.4 17.3 -11.6 17.3 -11.25 Q17.15 -8.1 16.25 -5.3 16.1 -5.15 16.1 -4.8 L15.05 -2.35 14.85 -2.0 14.35 -3.4 14.85 -2.0 Q13.65 0.1 12.05 2.05 6.1 8.85 -2.8 8.85 -5.95 8.85 -8.75 8.0 L-9.1 8.0 -13.15 6.25 -13.85 5.9 -17.7 2.75 -18.4 2.05 Q-18.75 1.5 -19.25 1.0 L-19.45 -2.0 -19.6 -2.7 Q-19.95 -8.1 -18.4 -12.5 -17.5 -14.75 -16.1 -16.85 L-14.35 -19.15 Q-12.8 -21.05 -10.85 -22.3 -8.4 -24.2 -5.6 -25.1 -3.0 -25.95 0.35 -25.95 L0.5 -25.95 2.8 -25.8 M-9.65 5.55 L-8.75 8.0 -9.65 5.55 M4.0 -16.7 L4.2 -17.55 Q4.2 -19.15 3.15 -20.2 L2.6 -20.7 1.4 -21.25 0.35 -21.25 Q-1.25 -21.4 -2.3 -20.2 -3.5 -19.15 -3.35 -17.55 -3.5 -16.0 -2.3 -14.75 -1.25 -13.7 0.35 -13.7 1.05 -13.7 1.75 -14.05 3.5 -15.45 4.0 -16.7 M11.7 -9.15 L16.25 -5.3 11.7 -9.15 M9.1 -19.3 Q14.5 -16.7 17.3 -11.25 14.5 -16.7 9.1 -19.3 M14.35 -3.4 L15.05 -2.35 14.35 -3.4 M-12.45 -11.95 L-13.65 -12.3 Q-15.05 -12.3 -16.1 -11.25 L-16.45 -10.55 -16.8 -8.8 -16.8 -8.3 -16.65 -7.6 -16.1 -6.55 Q-15.6 -6.0 -14.9 -5.65 L-12.45 -5.65 Q-9.1 -6.2 -10.5 -9.15 -9.1 -6.2 -12.45 -5.65 L-11.55 -6.55 Q-10.5 -7.6 -10.5 -8.8 L-10.5 -9.15 Q-11.2 -10.55 -12.45 -11.95 M-0.9 1.15 Q-0.2 1.0 0.15 0.45 1.05 -0.25 1.05 -1.3 1.05 -2.0 0.7 -2.5 L0.15 -3.2 Q-0.55 -3.9 -1.75 -3.9 -3.0 -3.9 -3.85 -3.2 L-4.2 -2.35 Q-4.55 -2.0 -4.55 -1.45 L-4.55 -1.3 Q-4.55 -0.25 -3.85 0.45 -3.0 1.35 -1.75 1.35 L-0.9 1.15 Q-2.3 3.25 -4.4 2.4 -2.3 3.25 -0.9 1.15 M-7.2 -17.75 L-6.65 -20.7 -7.2 -17.75 M-14.2 3.45 L-14.2 0.1 -14.2 3.45" fill="#b18d3a" fill-rule="evenodd" stroke="none"/>
    <path d="M-19.25 1.0 Q-18.75 1.5 -18.4 2.05 L-17.7 2.75 -13.85 5.9 -13.15 6.25 -9.1 8.0 -8.75 8.0 Q-5.95 8.85 -2.8 8.85 6.1 8.85 12.05 2.05 13.65 0.1 14.85 -2.0 L15.05 -2.35 16.1 -4.8 Q16.1 -5.15 16.25 -5.3 17.15 -8.1 17.3 -11.25 L17.3 -11.6 17.3 -14.4 16.95 -18.1 Q22.4 -11.95 23.25 -3.55 L23.25 -2.7 Q23.45 -0.75 23.25 1.15 22.9 4.15 22.05 6.75 20.65 10.45 18.0 13.6 L17.85 13.75 Q15.05 16.9 11.9 18.65 L10.15 19.35 7.85 20.05 5.95 20.4 Q5.95 19.9 6.1 19.35 3.85 19.55 1.75 19.35 -3.15 19.2 -7.2 17.95 -10.0 16.4 -12.45 13.75 -14.7 11.5 -16.1 8.85 -17.85 6.25 -18.55 3.45 -19.1 2.2 -19.25 1.0 M17.15 11.85 Q17.85 4.85 14.85 -2.0 17.85 4.85 17.15 11.85 M22.05 6.75 Q22.55 -1.1 17.3 -11.6 22.55 -1.1 22.05 6.75 M23.25 1.15 L23.25 -3.55 23.25 1.15 M18.9 6.25 Q21.35 2.4 16.1 -4.8 21.35 2.4 18.9 6.25 M1.75 19.35 Q-6.5 14.1 -9.1 8.0 -6.5 14.1 1.75 19.35 M-6.85 14.8 Q-11.4 10.95 -13.15 6.25 -11.4 10.95 -6.85 14.8" fill="#80662b" fill-rule="evenodd" stroke="none"/>
    <path d="M1.4 -21.25 L2.6 -20.7 3.15 -20.2 Q4.2 -19.15 4.2 -17.55 L4.0 -16.7 Q3.5 -15.45 1.75 -14.05 1.05 -13.7 0.35 -13.7 -1.25 -13.7 -2.3 -14.75 -3.5 -16.0 -3.35 -17.55 -3.5 -19.15 -2.3 -20.2 -1.25 -21.4 0.35 -21.25 L1.4 -21.25 M-16.45 -10.55 L-16.1 -11.25 Q-15.05 -12.3 -13.65 -12.3 L-12.45 -11.95 Q-11.2 -10.55 -10.5 -9.15 L-10.5 -8.8 Q-10.5 -7.6 -11.55 -6.55 L-12.45 -5.65 -14.9 -5.65 Q-15.6 -6.0 -16.1 -6.55 L-16.65 -7.6 -16.8 -8.3 -16.8 -8.8 -16.45 -10.55 M-4.2 -2.35 L-3.85 -3.2 Q-3.0 -3.9 -1.75 -3.9 -0.55 -3.9 0.15 -3.2 L0.7 -2.5 Q1.05 -2.0 1.05 -1.3 1.05 -0.25 0.15 0.45 -0.2 1.0 -0.9 1.15 0.0 -0.05 0.7 -2.5 0.0 -0.05 -0.9 1.15 L-1.75 1.35 Q-3.0 1.35 -3.85 0.45 -4.55 -0.25 -4.55 -1.3 L-4.55 -1.45 Q-4.55 -2.0 -4.2 -2.35" fill="#9f8035" fill-rule="evenodd" stroke="none"/>
    <path d="M6.45 -25.1 Q4.55 -25.8 2.8 -25.8 M0.35 -25.95 Q-3.0 -25.95 -5.6 -25.1 M-10.85 -22.3 Q-12.8 -21.05 -14.35 -19.15 L-16.1 -16.85 M-18.4 -12.5 Q-19.95 -8.1 -19.6 -2.7 L-19.45 -2.0 M15.75 -19.5 L10.85 -23.35 M1.4 -21.25 L2.6 -20.7 3.15 -20.2 Q4.2 -19.15 4.2 -17.55 L4.0 -16.7 M17.85 13.75 L23.8 14.65 M11.9 18.65 L13.1 20.6 M17.85 16.55 L19.25 17.6 M7.85 20.05 Q5.95 22.35 5.4 22.15 5.6 21.3 5.95 20.4 5.95 19.9 6.1 19.35 3.85 19.55 1.75 19.35 -3.15 19.2 -7.2 17.95 M5.25 20.6 L6.1 19.35 M-16.1 8.85 Q-17.85 6.25 -18.55 3.45 M10.15 19.35 L11.55 26.0 M23.25 -3.55 L23.25 1.15 M-12.45 -5.65 L-14.9 -5.65" ffdec:has-small-stroke="true" ffdec:original-stroke-width="0.25" fill="none" stroke="#80662b" stroke-linecap="round" stroke-linejoin="round" stroke-width="1.0"/>
    <path d="M2.8 -25.8 L0.5 -25.95 0.35 -25.95 M-5.6 -25.1 Q-8.4 -24.2 -10.85 -22.3 M-16.1 -16.85 Q-17.5 -14.75 -18.4 -12.5 M-19.45 -2.0 L-19.25 1.0 M10.85 -23.35 Q8.75 -24.55 6.45 -25.1 M16.95 -18.1 L16.1 -19.15 15.75 -19.5" ffdec:has-small-stroke="true" ffdec:original-stroke-width="0.25" fill="none" stroke="#474225" stroke-linecap="round" stroke-linejoin="round" stroke-width="1.0"/>
    <path d="M-8.75 8.0 L-9.65 5.55 M16.25 -5.3 L11.7 -9.15 M17.3 -11.25 Q14.5 -16.7 9.1 -19.3 M15.05 -2.35 L14.35 -3.4 M-16.8 -8.8 L-16.45 -10.55 M-6.65 -20.7 L-7.2 -17.75 M-4.55 -1.45 Q-4.55 -2.0 -4.2 -2.35 M-14.2 0.1 L-14.2 3.45" ffdec:has-small-stroke="true" ffdec:original-stroke-width="0.25" fill="none" stroke="#caa260" stroke-linecap="round" stroke-linejoin="round" stroke-width="1.0"/>
    <path d="M16.95 -18.1 Q22.4 -11.95 23.25 -3.55 L23.25 -2.7 Q23.45 -0.75 23.25 1.15 22.9 4.15 22.05 6.75 20.65 10.45 18.0 13.6 L17.85 13.75 Q15.05 16.9 11.9 18.65 L10.15 19.35 7.85 20.05 5.95 20.4 5.25 20.6 3.15 20.6 Q-2.45 20.6 -7.2 17.95 -10.0 16.4 -12.45 13.75 -14.7 11.5 -16.1 8.85 M-18.55 3.45 Q-19.1 2.2 -19.25 1.0" ffdec:has-small-stroke="true" ffdec:original-stroke-width="0.25" fill="none" stroke="#2f2b1a" stroke-linecap="round" stroke-linejoin="round" stroke-width="1.0"/>
    <path d="M23.25 -3.55 Q22.75 -20.55 13.1 -25.8 M-7.2 17.95 Q-22.05 13.25 -23.8 -3.05" ffdec:has-small-stroke="true" ffdec:original-stroke-width="0.25" fill="none" stroke="#80652b" stroke-linecap="round" stroke-linejoin="round" stroke-opacity="0.5411765" stroke-width="1.0"/>
    <path d="M14.35 -3.4 L14.85 -2.0 Q17.85 4.85 17.15 11.85 M17.3 -11.6 Q22.55 -1.1 22.05 6.75 M16.1 -4.8 Q21.35 2.4 18.9 6.25 M-13.15 6.25 Q-11.4 10.95 -6.85 14.8 M-9.1 8.0 Q-6.5 14.1 1.75 19.35" ffdec:has-small-stroke="true" ffdec:original-stroke-width="0.25" fill="none" stroke="#ac8139" stroke-linecap="round" stroke-linejoin="round" stroke-width="1.0"/>
    <path d="M4.0 -16.7 Q3.5 -15.45 1.75 -14.05 M-12.45 -11.95 Q-11.2 -10.55 -10.5 -9.15 -9.1 -6.2 -12.45 -5.65 M-0.9 1.15 Q-2.3 3.25 -4.4 2.4 M0.7 -2.5 Q0.0 -0.05 -0.9 1.15" ffdec:has-small-stroke="true" ffdec:original-stroke-width="0.25" fill="none" stroke="#474225" stroke-linecap="round" stroke-linejoin="round" stroke-width="1.0"/>
  </g>
</svg>
