<?xml version="1.0" encoding="UTF-8" standalone="no"?>
<svg xmlns:ffdec="https://www.free-decompiler.com/flash" xmlns:xlink="http://www.w3.org/1999/xlink" ffdec:objectType="shape" height="297.9px" width="239.0px" xmlns="http://www.w3.org/2000/svg">
  <g transform="matrix(1.0, 0.0, 0.0, 1.0, -188.8, -47.4)">
    <path d="M282.35 215.7 L282.2 217.5 283.05 218.05 282.95 218.85 282.95 219.5 Q290.8 218.6 292.6 225.95 293.2 228.6 293.3 231.35 293.6 240.35 286.55 245.1 284.8 246.25 283.25 246.1 L283.05 245.2 Q282.7 244.35 282.05 243.85 289.25 242.2 290.2 234.7 290.8 230.25 289.65 225.95 289.15 224.0 287.45 222.85 L281.7 222.5 Q278.35 228.65 275.8 235.25 275.05 237.3 273.65 238.85 L272.4 238.8 Q267.1 241.7 262.75 246.15 260.3 248.6 259.65 251.35 258.95 251.55 258.3 251.05 257.75 250.6 257.75 249.95 L257.75 249.3 Q263.8 242.3 263.05 233.5 L262.95 232.6 262.5 232.15 262.3 231.95 262.2 231.5 262.15 230.85 262.15 230.8 261.65 230.2 Q259.75 226.6 260.2 222.5 260.3 222.1 260.7 221.9 260.9 221.7 261.15 221.6 261.9 221.4 262.5 221.9 L263.55 226.5 263.65 227.2 263.7 227.6 264.3 228.5 264.55 228.95 Q272.8 229.3 276.95 222.3 278.7 220.25 279.8 217.8 L280.1 216.35 280.2 216.15 280.6 215.7 280.8 215.6 281.45 215.4 282.05 215.6 282.3 215.7 282.35 215.7 M374.4 211.25 Q374.8 210.4 375.7 210.45 378.35 211.65 377.4 214.5 L377.25 214.75 Q376.3 215.45 375.35 214.75 374.35 213.5 374.25 211.9 374.25 211.5 374.4 211.25 M365.85 234.65 L366.2 234.55 366.65 234.45 367.2 234.6 367.6 234.8 Q368.6 235.95 367.6 237.15 L367.1 237.55 Q366.3 237.8 365.7 237.3 365.15 236.85 365.2 236.2 L365.2 235.5 365.45 235.1 365.85 234.65 M357.85 203.35 L357.6 204.2 356.85 204.8 Q353.7 203.2 351.0 200.35 L350.85 199.9 350.85 199.45 350.85 199.25 351.1 198.85 351.5 198.35 352.3 198.15 Q355.95 199.5 357.8 203.1 L357.85 203.35 M345.25 219.7 L345.65 219.85 Q346.75 221.45 345.6 223.1 L345.15 223.5 Q344.35 223.75 343.75 223.25 343.0 222.4 343.2 221.25 L343.25 220.6 343.5 220.2 343.9 219.7 344.25 219.6 344.7 219.5 345.25 219.7 M328.9 206.8 L329.25 207.0 Q331.4 209.25 331.55 212.05 L331.3 212.7 Q330.35 213.4 329.4 212.7 327.75 210.55 326.9 208.05 L327.0 207.45 Q327.35 206.6 328.3 206.65 L328.3 206.6 328.9 206.8 M332.3 241.35 L333.0 241.15 333.55 241.35 333.95 241.5 Q335.0 243.2 334.0 245.0 L333.65 245.4 Q332.75 245.8 332.05 245.2 331.25 244.15 331.45 242.75 331.45 242.45 331.6 242.1 L331.7 241.95 332.1 241.45 332.3 241.35 M314.55 209.85 Q317.45 210.9 318.85 213.95 L318.95 214.15 Q318.9 214.75 318.45 215.2 L317.9 215.6 Q315.35 214.55 313.25 212.05 L313.1 211.6 313.1 210.95 313.35 210.55 313.75 210.05 314.55 209.9 314.55 209.85 M312.8 213.05 L313.35 213.25 313.75 213.45 Q314.7 215.35 313.9 217.6 L313.45 218.25 Q311.95 219.15 310.9 217.8 310.9 215.95 311.4 214.1 311.5 213.7 311.85 213.45 L312.8 213.1 312.8 213.05 M307.5 240.15 L307.9 240.35 Q308.95 242.05 307.95 243.85 L307.6 244.25 Q306.7 244.6 306.0 244.0 305.2 242.95 305.4 241.6 305.4 241.25 305.55 240.95 L305.65 240.75 306.05 240.3 306.3 240.15 306.95 240.0 307.5 240.15 M271.8 209.55 L272.4 209.75 272.75 209.9 Q273.75 211.1 272.75 212.25 L272.25 212.7 Q271.5 212.95 270.85 212.4 270.35 211.95 270.35 211.3 L270.35 210.65 270.6 210.25 271.0 209.75 271.35 209.65 271.8 209.55 M268.1 214.9 Q269.35 216.5 268.4 218.35 L268.1 218.75 Q267.2 219.15 266.45 218.55 265.6 217.45 265.65 216.15 L265.75 215.45 265.85 215.3 266.25 214.8 266.45 214.7 267.15 214.5 267.7 214.7 268.1 214.9 M249.2 236.25 L250.15 235.95 250.15 235.9 250.75 236.05 251.1 236.25 Q252.05 241.2 251.45 246.55 L251.1 247.25 Q250.15 247.95 249.2 247.25 248.25 242.25 248.85 236.9 248.85 236.5 249.2 236.25 M228.85 210.95 L227.25 211.1 226.65 210.55 Q219.95 210.95 216.3 217.2 L214.8 219.05 214.6 219.1 213.5 219.0 213.2 218.85 212.85 218.35 Q212.65 218.05 212.7 217.75 L212.7 217.1 Q215.8 212.15 220.55 209.2 222.55 207.95 224.7 207.2 229.6 206.85 229.0 210.7 L228.85 210.95 M223.65 222.05 L223.8 222.7 Q221.3 227.8 220.8 233.45 220.6 235.05 221.6 236.35 L231.3 228.45 Q233.8 224.9 237.0 222.4 L240.4 221.9 240.5 222.45 Q234.75 228.75 230.35 236.2 227.05 241.85 228.4 248.55 L228.85 250.3 Q233.55 249.0 236.9 244.65 L240.4 239.85 Q241.35 238.35 242.9 239.2 243.1 244.55 242.45 250.4 242.1 253.45 242.15 256.5 242.15 260.0 238.35 258.3 235.25 256.9 232.0 258.55 228.8 260.2 226.1 262.5 L221.6 265.95 Q220.85 266.2 220.25 265.65 219.35 258.25 220.75 250.7 221.65 245.6 218.6 241.9 L218.15 240.85 Q215.5 229.8 221.9 221.35 222.65 221.1 223.3 221.6 L223.65 222.05 M200.4 223.3 L201.0 223.5 201.35 223.65 201.7 224.1 201.85 224.75 Q201.2 227.55 201.05 230.45 L200.75 231.15 Q199.8 231.85 198.85 231.15 197.7 227.8 199.0 224.35 L199.45 223.65 200.4 223.35 200.4 223.3" fill="#ffffff" fill-rule="evenodd" stroke="none"/>
    <path d="M391.95 208.2 L392.4 208.1 393.0 208.25 393.35 208.45 394.75 210.9 395.05 211.5 Q395.0 212.15 394.55 212.6 L394.0 213.0 Q391.05 212.4 390.95 209.2 L391.2 208.8 391.6 208.3 391.95 208.2 M266.35 255.4 L266.7 255.7 Q267.75 258.1 266.55 260.55 L266.1 261.0 Q265.35 261.25 264.7 260.7 263.85 259.0 264.15 256.95 L264.2 256.3 264.45 255.9 264.85 255.4 265.25 255.3 265.65 255.2 266.25 255.4 266.35 255.4 M246.55 280.65 L245.75 279.3 245.75 279.25 Q245.15 276.5 245.4 273.5 245.4 273.15 245.55 272.85 L245.65 272.65 246.05 272.2 Q246.15 272.1 246.3 272.05 L246.95 271.9 247.5 272.05 247.9 272.25 Q249.0 276.1 247.9 280.1 L247.6 280.5 246.55 280.65 M287.85 269.65 L288.3 269.2 288.65 269.05 289.1 268.95 289.65 269.15 290.05 269.35 Q291.2 272.2 289.9 275.2 L289.5 275.6 Q288.75 275.85 288.15 275.35 287.3 273.2 287.6 270.7 L287.6 270.05 287.85 269.65 M221.45 276.95 L221.85 276.5 222.2 276.4 222.65 276.3 223.25 276.45 223.6 276.65 Q224.7 278.7 223.5 280.75 L223.1 281.2 Q222.3 281.45 221.7 280.9 220.85 279.65 221.15 278.05 L221.2 277.4 221.45 276.95 M222.85 304.1 L222.95 303.05 Q222.75 302.35 222.85 301.6 L222.95 300.5 223.2 300.1 223.6 299.6 223.95 299.5 224.4 299.4 224.9 299.55 225.15 299.45 225.55 299.4 Q230.65 301.1 228.0 305.7 227.7 306.15 227.05 306.35 225.05 306.9 223.75 305.8 L223.25 305.1 222.9 304.55 222.85 304.1 M264.65 309.1 L264.3 309.5 Q263.4 309.9 262.65 309.3 261.9 307.35 262.35 305.1 L262.5 304.45 262.65 304.25 263.05 303.8 263.25 303.7 263.9 303.5 264.5 303.7 264.85 303.85 Q266.1 306.45 264.65 309.1 M248.45 303.15 Q247.5 303.85 246.55 303.15 245.5 301.65 245.85 299.85 L246.3 299.2 247.25 298.85 247.25 298.8 247.8 299.0 248.2 299.2 Q249.25 300.65 248.85 302.45 L248.45 303.15" fill="#ff8071" fill-rule="evenodd" stroke="none"/>
    <path d="M396.05 201.35 Q405.8 208.35 403.25 221.1 402.15 226.5 407.05 228.85 L409.1 229.15 Q408.15 235.05 410.25 240.85 L412.0 240.85 414.05 239.4 Q416.4 239.25 417.95 241.0 L419.3 242.6 Q422.35 251.4 416.1 257.55 L414.05 257.55 412.6 256.1 411.4 258.4 Q407.7 261.45 405.6 265.5 405.35 265.9 405.25 266.35 405.75 266.95 407.05 266.6 L408.2 266.6 Q409.2 267.4 409.9 268.7 410.4 269.7 410.25 271.0 409.95 271.5 409.05 271.75 408.35 272.0 408.25 272.5 L408.2 272.75 Q407.95 273.6 408.7 273.85 L409.45 274.1 410.25 273.95 Q410.35 276.95 409.6 279.7 408.95 281.85 407.05 283.3 L401.45 283.0 Q401.15 284.5 402.9 286.55 L403.5 287.4 403.15 291.7 Q402.0 292.5 401.75 294.15 L400.9 294.75 400.9 294.7 400.9 294.1 Q401.15 292.8 400.35 291.85 L400.0 291.7 399.4 291.5 399.4 291.55 398.45 291.85 Q396.7 294.2 394.15 295.8 L394.1 296.45 Q393.9 297.6 394.65 298.45 L396.4 298.4 Q392.2 302.25 389.15 306.9 387.1 309.9 383.35 310.25 374.15 310.9 372.7 319.35 L371.45 319.9 Q370.5 320.4 369.85 321.05 370.35 318.65 371.2 316.4 368.85 310.9 363.5 307.6 355.5 302.55 353.2 294.8 355.15 291.2 358.75 288.7 362.4 286.15 364.8 283.6 364.2 281.35 364.3 278.8 364.55 274.25 363.75 270.4 364.95 267.15 366.75 264.1 L367.1 263.55 Q372.55 256.05 380.6 252.0 377.5 240.95 382.85 230.45 383.4 229.3 383.05 228.1 381.95 223.85 379.8 220.15 381.1 218.1 383.75 219.35 L384.25 218.45 384.7 217.8 384.8 206.6 384.8 205.1 Q385.85 203.4 387.35 202.0 L387.65 201.8 388.3 201.7 388.3 201.65 388.9 201.85 389.25 202.0 389.55 202.45 389.6 202.5 390.25 202.25 Q392.3 201.45 394.45 201.2 L396.05 201.35 M407.4 268.15 L407.05 267.95 406.45 267.8 Q402.25 269.2 402.5 273.8 402.75 279.35 408.25 278.85 L408.7 278.2 408.8 277.75 408.55 277.1 408.25 276.65 Q407.65 276.25 406.95 276.2 L406.8 276.05 405.55 274.95 405.5 274.3 405.25 273.65 405.55 273.0 Q406.2 270.8 407.9 269.25 L407.7 268.6 407.4 268.15 M414.0 243.3 L413.85 243.5 413.6 244.35 Q411.95 248.1 413.6 251.85 414.35 252.95 415.65 252.8 L415.95 252.4 416.15 243.0 415.8 242.8 415.2 242.6 414.8 242.75 414.4 242.85 414.0 243.3 M391.95 208.2 L391.6 208.3 391.2 208.8 390.95 209.2 Q391.05 212.4 394.0 213.0 L394.55 212.6 Q395.0 212.15 395.05 211.5 L394.75 210.9 393.35 208.45 393.0 208.25 392.4 208.1 391.95 208.2 M400.2 236.55 Q399.85 236.8 399.95 237.15 L402.2 247.1 Q403.25 248.4 404.75 247.5 L405.0 246.9 Q404.4 241.5 402.15 236.55 L401.75 236.35 401.2 236.2 400.2 236.55 M386.75 238.95 L386.45 239.2 Q384.85 240.15 384.0 241.8 383.2 245.0 384.35 248.05 386.15 252.9 388.9 249.85 L388.75 249.4 387.75 247.8 Q385.45 244.9 387.65 241.95 L388.3 242.0 388.75 241.95 Q389.45 241.65 389.7 240.95 389.95 239.9 389.25 239.2 L388.9 239.05 387.4 238.8 387.4 238.85 386.75 238.95 M358.65 289.25 Q354.1 293.6 356.75 299.1 357.55 300.8 358.75 302.4 365.2 302.0 366.0 295.65 366.55 290.85 364.8 287.2 362.3 288.8 359.2 289.1 L358.65 289.25 M393.15 288.7 L392.8 289.15 392.7 289.4 Q392.6 290.05 392.9 290.65 L393.2 291.15 Q394.6 291.85 396.0 290.85 L396.25 290.4 396.45 289.95 396.5 289.75 396.4 289.3 396.15 288.85 396.0 288.65 Q395.8 288.5 395.6 288.5 L394.15 288.3 393.7 288.4 393.35 288.5 393.15 288.7 M381.05 290.4 L380.7 290.2 379.8 290.05 379.0 290.25 378.05 291.05 Q376.6 292.05 375.7 293.55 372.4 298.9 378.2 301.1 L378.75 300.7 Q379.15 300.25 379.2 299.6 L379.1 299.4 377.2 296.75 Q377.15 296.4 377.4 296.05 L378.05 294.8 Q380.4 293.55 381.55 291.5 L381.35 290.85 381.05 290.4 M375.2 271.45 Q375.85 270.9 376.3 270.95 L376.35 271.15 376.65 271.6 376.8 271.8 377.75 272.1 378.2 272.1 378.4 271.9 Q381.6 266.55 375.7 265.45 372.5 266.2 371.45 269.6 369.55 275.4 373.8 277.95 374.95 277.35 374.75 276.05 L374.25 272.75 Q374.55 272.0 375.2 271.45 M392.9 267.0 L392.05 267.65 Q388.55 270.95 389.25 275.7 L389.4 275.9 Q390.05 276.6 390.7 276.9 392.35 278.35 394.9 277.65 L395.4 277.25 Q396.35 276.05 395.4 274.9 L393.2 274.5 393.05 274.3 393.75 272.9 Q394.8 271.15 395.2 269.4 L395.7 269.2 396.1 268.5 396.2 268.1 396.0 267.4 395.7 267.0 395.45 266.9 395.4 266.4 395.05 266.2 394.45 266.05 393.5 266.4 392.9 267.0 M371.9 323.3 Q371.85 326.75 369.65 329.4 L369.0 329.55 369.15 326.8 Q369.2 325.35 369.4 323.95 L371.9 323.3 M274.0 267.75 Q275.45 268.8 277.45 269.4 L278.1 268.6 278.2 268.4 278.25 268.15 278.25 267.95 Q278.0 267.1 277.35 266.45 L277.05 266.2 Q281.8 263.85 286.8 262.2 288.3 261.65 289.85 261.4 L288.4 262.4 289.4 263.95 288.2 263.95 286.75 263.95 286.3 264.05 288.2 264.05 289.65 264.25 Q290.9 265.65 293.0 266.5 L294.9 267.4 Q296.15 268.9 297.0 271.15 L297.6 273.05 297.6 278.0 296.65 280.05 Q295.3 280.25 294.2 279.3 L294.05 278.6 294.2 277.95 294.6 277.55 295.1 277.1 Q295.35 272.85 292.85 269.25 L292.15 268.5 Q285.65 265.7 279.3 269.3 276.1 271.05 274.0 269.05 L273.85 268.4 Q273.85 268.05 274.0 267.75" fill="#a93a33" fill-rule="evenodd" stroke="none"/>
    <path d="M414.0 243.3 L414.4 242.85 414.8 242.75 415.2 242.6 415.8 242.8 416.15 243.0 415.95 252.4 415.65 252.8 Q414.35 252.95 413.6 251.85 411.95 248.1 413.6 244.35 L413.85 243.5 414.0 243.3 M407.4 268.15 L407.7 268.6 407.9 269.25 Q406.2 270.8 405.55 273.0 L405.25 273.65 405.5 274.3 405.55 274.95 406.8 276.05 406.95 276.2 Q407.65 276.25 408.25 276.65 L408.55 277.1 408.8 277.75 408.7 278.2 408.25 278.85 Q402.75 279.35 402.5 273.8 402.25 269.2 406.45 267.8 L407.05 267.95 407.4 268.15 M369.0 214.1 L370.75 214.1 Q370.7 217.05 373.2 218.4 L379.15 218.55 378.45 219.45 377.3 220.65 375.7 221.1 Q369.35 221.2 369.0 214.1 M379.15 218.55 L379.35 218.2 379.5 217.9 379.5 218.35 379.15 218.55 M370.9 239.1 L371.05 238.4 371.35 240.7 Q372.05 247.9 365.2 247.45 364.45 247.3 364.1 246.85 360.45 242.55 362.25 236.2 L363.0 236.35 363.15 236.75 364.5 239.2 Q365.3 241.0 367.1 241.9 L367.95 241.9 Q368.8 242.05 369.45 241.4 L370.9 239.1 M386.75 238.95 L387.4 238.85 387.4 238.8 388.9 239.05 389.25 239.2 Q389.95 239.9 389.7 240.95 389.45 241.65 388.75 241.95 L388.3 242.0 387.65 241.95 Q385.45 244.9 387.75 247.8 L388.75 249.4 388.9 249.85 Q386.15 252.9 384.35 248.05 383.2 245.0 384.0 241.8 384.85 240.15 386.45 239.2 L386.75 238.95 M400.2 236.55 L401.2 236.2 401.75 236.35 402.15 236.55 Q404.4 241.5 405.0 246.9 L404.75 247.5 Q403.25 248.4 402.2 247.1 L399.95 237.15 Q399.85 236.8 400.2 236.55 M360.95 203.85 L361.0 203.45 360.95 202.9 362.4 204.1 Q366.75 208.85 361.9 213.15 360.0 214.85 357.7 214.85 354.75 214.9 352.15 213.2 L351.25 211.2 Q349.55 207.65 349.65 203.7 L350.25 204.55 Q351.15 206.95 353.85 207.7 356.55 208.45 359.1 206.8 L360.65 205.75 360.8 205.45 360.9 205.0 360.95 204.45 360.95 203.85 M330.0 239.85 L329.85 240.2 328.45 241.9 Q327.9 245.15 330.75 247.25 332.15 248.25 333.8 247.5 336.8 246.2 337.35 242.9 337.15 245.25 336.0 247.45 333.35 252.15 328.75 249.7 323.25 246.65 325.5 240.55 L325.25 239.55 325.7 239.35 Q326.75 238.75 327.75 238.55 329.05 238.3 330.05 239.1 L330.05 239.25 330.0 239.85 M340.6 220.1 L340.6 220.25 340.45 220.95 Q340.3 224.25 342.95 226.8 L344.7 226.8 Q346.0 226.05 346.8 224.95 349.15 221.65 349.5 217.6 349.65 223.9 346.6 229.3 344.75 229.6 343.1 228.8 337.15 225.8 340.6 220.1 M358.65 289.25 L359.2 289.1 Q362.3 288.8 364.8 287.2 366.55 290.85 366.0 295.65 365.2 302.0 358.75 302.4 357.55 300.8 356.75 299.1 354.1 293.6 358.65 289.25 M392.9 267.0 L393.5 266.4 394.45 266.05 395.05 266.2 395.4 266.4 395.45 266.9 395.7 267.0 396.0 267.4 396.2 268.1 396.1 268.5 395.7 269.2 395.2 269.4 Q394.8 271.15 393.75 272.9 L393.05 274.3 393.2 274.5 395.4 274.9 Q396.35 276.05 395.4 277.25 L394.9 277.65 Q392.35 278.35 390.7 276.9 390.05 276.6 389.4 275.9 L389.25 275.7 Q388.55 270.95 392.05 267.65 L392.9 267.0 M375.2 271.45 Q374.55 272.0 374.25 272.75 L374.75 276.05 Q374.95 277.35 373.8 277.95 369.55 275.4 371.45 269.6 372.5 266.2 375.7 265.45 381.6 266.55 378.4 271.9 L378.2 272.1 377.75 272.1 376.8 271.8 376.65 271.6 376.35 271.15 376.3 270.95 Q375.85 270.9 375.2 271.45 M381.05 290.4 L381.35 290.85 381.55 291.5 Q380.4 293.55 378.05 294.8 L377.4 296.05 Q377.15 296.4 377.2 296.75 L379.1 299.4 379.2 299.6 Q379.15 300.25 378.75 300.7 L378.2 301.1 Q372.4 298.9 375.7 293.55 376.6 292.05 378.05 291.05 L379.0 290.25 379.8 290.05 380.7 290.2 381.05 290.4 M393.15 288.7 L393.35 288.5 393.7 288.4 394.15 288.3 395.6 288.5 Q395.8 288.5 396.0 288.65 L396.15 288.85 396.4 289.3 396.5 289.75 396.45 289.95 396.25 290.4 396.0 290.85 Q394.6 291.85 393.2 291.15 L392.9 290.65 Q392.6 290.05 392.7 289.4 L392.8 289.15 393.15 288.7 M396.4 298.4 L394.65 298.45 Q393.9 297.6 394.1 296.45 L394.15 295.8 Q396.7 294.2 398.45 291.85 L399.4 291.55 399.4 291.5 400.0 291.7 400.35 291.85 Q401.15 292.8 400.9 294.1 L400.9 294.7 400.85 294.75 Q399.45 297.95 396.4 298.4 M303.55 242.75 L303.55 242.35 304.0 241.15 303.55 243.05 303.55 243.65 303.85 244.65 304.25 245.0 Q305.4 245.95 306.9 246.4 L308.7 246.3 308.8 246.25 309.65 244.9 310.45 243.05 310.35 243.95 Q310.3 245.95 309.7 247.9 L308.85 248.45 308.25 248.45 Q302.65 248.4 303.55 243.05 L303.55 242.75 M293.9 251.25 L294.8 251.1 295.1 252.7 294.95 253.05 Q294.25 255.25 292.15 254.35 291.55 252.65 292.75 251.1 L293.9 251.25 M320.85 254.35 L321.7 253.75 Q321.7 254.95 322.15 255.95 L323.75 257.55 Q323.95 259.55 322.9 260.9 321.6 260.9 320.6 259.95 316.55 256.05 320.25 253.45 L320.4 253.6 320.85 254.35" fill="#78130b" fill-rule="evenodd" stroke="none"/>
    <path d="M403.15 291.7 Q402.6 295.2 401.4 298.45 L396.95 302.55 Q394.5 304.6 392.55 307.15 388.8 314.4 379.7 314.85 378.8 314.9 377.95 315.45 L376.9 316.1 Q376.1 321.6 371.9 323.3 L369.4 323.95 Q369.55 322.45 369.85 321.05 370.5 320.4 371.45 319.9 L372.7 319.35 Q374.15 310.9 383.35 310.25 387.1 309.9 389.15 306.9 392.2 302.25 396.4 298.4 399.45 297.95 400.85 294.75 L400.9 294.75 401.75 294.15 Q402.0 292.5 403.15 291.7" fill="#a53b35" fill-rule="evenodd" stroke="none"/>
    <path d="M282.8 201.95 L282.95 201.95 Q291.8 209.55 299.55 218.35 299.7 212.55 301.2 206.5 303.05 198.9 305.6 191.7 L306.1 191.9 306.5 191.9 306.55 191.9 Q308.65 192.9 309.25 190.9 311.05 191.05 313.1 192.55 315.35 194.15 318.1 195.05 331.15 199.25 338.75 210.55 339.95 201.8 337.55 193.8 335.2 186.05 330.4 179.7 L330.35 179.5 330.35 179.25 330.35 179.05 330.4 178.6 330.55 178.4 330.7 178.15 330.95 178.0 331.35 177.7 Q348.2 177.6 364.25 182.2 367.6 183.1 370.5 185.2 372.65 186.8 375.15 187.75 374.25 180.4 369.25 175.3 367.7 173.75 365.75 172.7 359.9 169.6 352.85 170.75 352.0 170.85 351.55 170.1 L351.5 169.9 351.4 169.65 351.4 169.45 351.6 168.8 351.95 168.35 352.25 168.2 352.9 168.0 355.5 167.75 355.6 168.45 355.65 168.65 Q355.85 168.85 356.05 168.85 L364.6 169.0 Q370.4 171.15 374.5 176.8 376.85 180.05 377.6 184.25 L377.95 185.8 376.7 187.6 376.65 187.65 376.45 187.8 376.45 187.9 376.1 188.25 Q375.4 188.85 375.4 189.65 L377.9 191.5 Q376.0 192.3 373.35 190.35 L370.2 188.2 371.3 188.2 Q365.95 182.55 357.05 180.8 344.85 178.45 333.85 178.8 L339.55 194.1 340.6 196.4 341.2 205.15 341.95 200.45 Q342.1 207.9 340.95 215.05 337.45 214.9 335.1 211.45 327.25 199.95 313.45 195.95 310.4 195.1 307.85 193.4 304.4 207.1 301.65 220.8 L301.65 220.95 301.55 221.4 301.15 222.05 300.95 222.05 299.75 221.95 Q297.65 221.45 296.05 219.3 294.35 216.85 292.15 214.9 288.4 211.45 285.05 207.55 285.25 211.85 284.85 216.55 284.65 218.85 283.05 218.05 L282.2 217.5 282.35 215.7 282.35 215.6 Q282.5 211.6 281.9 207.6 L281.65 205.75 282.8 205.95 Q283.75 205.55 283.5 204.55 L282.8 201.95 M369.7 191.75 L369.85 192.2 Q368.15 195.25 364.75 192.65 L364.65 192.45 Q364.45 192.0 364.65 191.55 364.75 191.15 365.1 190.9 L365.4 190.7 366.05 190.5 Q367.8 190.15 369.2 191.1 L369.5 191.35 369.65 191.55 369.7 191.75 M325.65 216.85 Q328.15 216.65 329.1 218.6 L329.2 218.85 329.05 219.5 328.15 220.3 Q325.9 220.4 324.35 219.0 L324.2 218.35 Q324.2 217.65 324.7 217.25 L325.65 216.9 325.65 216.85 M354.75 254.6 L354.55 254.85 Q353.45 258.65 356.4 261.5 L358.45 264.05 358.45 264.15 358.25 264.6 358.05 264.8 Q355.95 263.9 354.4 261.85 351.45 257.85 353.75 253.5 354.15 252.6 355.1 252.4 360.05 252.35 361.0 256.9 361.2 257.7 360.6 258.4 359.4 259.7 357.95 258.75 L357.9 258.65 357.85 258.4 357.95 258.1 358.0 258.0 Q358.6 257.55 359.45 257.5 L359.5 257.4 359.65 257.2 359.75 256.85 Q359.3 255.25 357.7 254.4 356.55 253.8 355.3 253.95 L355.2 254.05 Q354.9 254.25 354.75 254.6 M308.1 216.3 Q310.3 217.15 311.45 219.5 L311.6 219.7 313.45 220.15 Q314.7 224.0 310.35 222.0 309.2 221.5 308.45 220.45 L306.8 218.45 306.7 218.05 306.65 217.4 306.9 216.95 307.3 216.5 308.1 216.3 M314.9 218.45 Q315.0 218.05 315.35 217.8 L315.65 217.65 316.3 217.5 316.3 217.45 318.95 217.95 319.3 218.1 319.5 218.35 319.7 218.75 319.8 219.2 319.75 219.45 319.6 219.85 319.3 220.3 Q316.85 221.3 315.0 219.55 L314.85 219.15 Q314.8 218.8 314.9 218.45" fill="#8a1813" fill-rule="evenodd" stroke="none"/>
    <path d="M283.05 218.05 Q284.65 218.85 284.85 216.55 285.25 211.85 285.05 207.55 288.4 211.45 292.15 214.9 294.35 216.85 296.05 219.3 297.65 221.45 299.75 221.95 L300.95 222.05 301.15 222.05 301.55 221.4 301.65 220.95 301.65 220.8 Q304.4 207.1 307.85 193.4 310.4 195.1 313.45 195.95 327.25 199.95 335.1 211.45 337.45 214.9 340.95 215.05 342.1 207.9 341.95 200.45 L342.05 199.9 Q341.95 193.9 344.45 188.8 L344.7 188.5 Q355.15 185.2 366.0 187.8 L370.2 188.2 373.35 190.35 Q376.0 192.3 377.9 191.5 380.2 192.6 383.3 192.3 388.85 194.2 390.95 198.7 L392.1 199.0 Q394.3 200.1 396.05 201.35 L394.45 201.2 Q392.3 201.45 390.25 202.25 L389.6 202.5 389.55 202.45 389.25 202.0 388.9 201.85 388.3 201.65 388.3 201.7 387.65 201.8 387.35 202.0 Q385.85 203.4 384.8 205.1 L384.8 206.6 384.7 217.8 384.25 218.45 383.75 219.35 Q381.1 218.1 379.8 220.15 381.95 223.85 383.05 228.1 383.4 229.3 382.85 230.45 377.5 240.95 380.6 252.0 372.55 256.05 367.1 263.55 L366.75 264.1 Q364.95 267.15 363.75 270.4 364.55 274.25 364.3 278.8 364.2 281.35 364.8 283.6 362.4 286.15 358.75 288.7 355.15 291.2 353.2 294.8 355.5 302.55 363.5 307.6 368.85 310.9 371.2 316.4 370.35 318.65 369.85 321.05 369.55 322.45 369.4 323.95 369.2 325.35 369.15 326.8 L369.0 329.55 368.4 329.4 368.35 329.45 368.2 329.9 367.9 330.35 Q352.05 334.15 338.15 343.05 336.55 344.0 334.7 344.25 L333.1 344.45 Q334.7 341.35 338.65 339.95 L345.2 337.6 345.6 334.0 343.6 331.6 Q340.25 331.4 337.3 332.65 333.15 334.25 329.6 336.8 L329.6 342.4 Q326.45 341.7 322.8 338.0 321.1 336.3 319.2 335.6 L318.0 334.0 318.4 330.0 Q329.8 327.45 342.45 330.15 349.85 331.9 356.8 330.8 L358.0 328.4 Q358.4 323.85 357.0 319.65 356.25 317.3 354.0 316.0 L351.6 306.0 Q349.55 302.4 346.95 299.45 L344.4 297.2 Q335.75 296.2 334.55 304.85 334.4 306.0 334.4 307.2 327.9 308.7 321.65 311.35 319.7 312.2 319.2 313.6 L324.8 316.8 Q319.85 327.5 304.8 327.1 300.45 327.0 298.8 330.8 303.35 334.95 307.9 339.7 L308.4 340.4 308.4 341.0 306.4 340.15 Q304.5 339.3 302.4 339.05 281.75 336.65 262.4 328.8 259.45 327.6 256.35 327.0 243.9 324.8 234.5 316.25 231.75 313.75 228.75 311.8 L232.0 309.2 Q235.05 302.3 231.6 295.6 230.7 293.8 230.8 291.6 232.0 290.8 234.4 291.2 L236.0 291.2 Q239.5 294.6 243.9 293.3 245.85 292.7 247.6 291.6 L248.0 288.4 241.6 283.2 Q240.45 278.95 240.6 274.4 L240.8 273.2 Q243.9 275.7 245.75 279.25 L245.75 279.3 246.55 280.65 248.0 282.4 Q249.9 283.55 252.0 283.6 L254.8 283.6 256.4 282.4 256.4 287.2 Q254.2 293.1 248.95 295.55 245.1 297.3 242.4 300.4 242.2 304.95 245.1 308.5 246.45 310.1 248.4 310.4 L253.2 303.2 Q252.65 300.8 254.8 300.0 255.95 299.7 256.5 300.75 L257.15 302.0 257.6 302.8 257.6 309.6 Q259.7 312.1 262.55 313.75 L264.4 315.2 267.6 315.2 269.6 313.2 273.6 312.4 273.6 316.0 Q280.8 320.35 289.2 318.4 298.35 306.3 289.95 294.45 L289.2 293.6 286.0 292.4 296.4 292.8 296.8 290.0 Q295.9 287.9 294.05 286.75 292.7 285.8 291.15 285.65 292.05 285.55 292.9 284.95 293.6 284.4 294.45 284.15 294.6 284.0 294.8 284.0 L296.65 280.05 297.6 278.0 297.6 273.05 297.6 270.8 296.8 268.8 294.9 267.4 293.0 266.5 Q290.9 265.65 289.65 264.25 L289.4 263.95 288.4 262.4 289.85 261.4 Q288.3 261.65 286.8 262.2 281.8 263.85 277.05 266.2 L277.35 266.45 Q278.0 267.1 278.25 267.95 L278.25 268.15 278.2 268.4 278.1 268.6 277.45 269.4 Q275.45 268.8 274.0 267.75 270.55 265.3 269.75 260.35 269.35 258.3 267.85 256.8 L266.7 255.7 266.35 255.4 265.9 255.05 265.65 255.1 Q262.25 255.85 259.45 254.55 259.25 252.9 259.65 251.35 260.3 248.6 262.75 246.15 267.1 241.7 272.4 238.8 L273.65 238.85 Q275.05 237.3 275.8 235.25 278.35 228.65 281.7 222.5 L287.45 222.85 Q289.15 224.0 289.65 225.95 290.8 230.25 290.2 234.7 289.25 242.2 282.05 243.85 282.7 244.35 283.05 245.2 L283.25 246.1 Q284.8 246.25 286.55 245.1 293.6 240.35 293.3 231.35 293.2 228.6 292.6 225.95 290.8 218.6 282.95 219.5 L282.95 218.85 283.05 218.05 M376.45 187.9 L376.45 187.8 376.65 187.65 376.7 187.6 376.45 187.9 M369.7 191.75 L369.65 191.55 369.5 191.35 369.2 191.1 Q367.8 190.15 366.05 190.5 L365.4 190.7 365.1 190.9 Q364.75 191.15 364.65 191.55 364.45 192.0 364.65 192.45 L364.75 192.65 Q368.15 195.25 369.85 192.2 L369.7 191.75 M369.0 214.1 Q369.35 221.2 375.7 221.1 L377.3 220.65 378.45 219.45 379.15 218.55 373.2 218.4 Q370.7 217.05 370.75 214.1 L369.0 214.1 M374.4 211.25 Q374.25 211.5 374.25 211.9 374.35 213.5 375.35 214.75 376.3 215.45 377.25 214.75 L377.4 214.5 Q378.35 211.65 375.7 210.45 374.8 210.4 374.4 211.25 M379.15 218.55 L379.5 218.35 379.5 217.9 379.35 218.2 379.15 218.55 M365.85 234.65 L365.45 235.1 365.2 235.5 365.2 236.2 Q365.15 236.85 365.7 237.3 366.3 237.8 367.1 237.55 L367.6 237.15 Q368.6 235.95 367.6 234.8 L367.2 234.6 366.65 234.45 366.2 234.55 365.85 234.65 M370.9 239.1 L369.45 241.4 Q368.8 242.05 367.95 241.9 L367.1 241.9 Q365.3 241.0 364.5 239.2 L363.15 236.75 363.0 236.35 362.25 236.2 Q360.45 242.55 364.1 246.85 364.45 247.3 365.2 247.45 372.05 247.9 371.35 240.7 L371.05 238.4 370.9 239.1 M360.95 203.85 L360.95 204.45 360.9 205.0 360.8 205.45 360.65 205.75 359.1 206.8 Q356.55 208.45 353.85 207.7 351.15 206.95 350.25 204.55 L349.65 203.7 Q349.55 207.65 351.25 211.2 L352.15 213.2 Q354.75 214.9 357.7 214.85 360.0 214.85 361.9 213.15 366.75 208.85 362.4 204.1 L360.95 202.9 361.0 203.45 360.95 203.85 M328.9 206.8 L328.3 206.6 328.3 206.65 Q327.35 206.6 327.0 207.45 L326.9 208.05 Q327.75 210.55 329.4 212.7 330.35 213.4 331.3 212.7 L331.55 212.05 Q331.4 209.25 329.25 207.0 L328.9 206.8 M345.25 219.7 L344.7 219.5 344.25 219.6 343.9 219.7 343.5 220.2 343.25 220.6 343.2 221.25 Q343.0 222.4 343.75 223.25 344.35 223.75 345.15 223.5 L345.6 223.1 Q346.75 221.45 345.65 219.85 L345.25 219.7 M357.85 203.35 L357.8 203.1 Q355.95 199.5 352.3 198.15 L351.5 198.35 351.1 198.85 350.85 199.25 350.85 199.45 350.85 199.9 351.0 200.35 Q353.7 203.2 356.85 204.8 L357.6 204.2 357.85 203.35 M325.65 216.85 L325.65 216.9 324.7 217.25 Q324.2 217.65 324.2 218.35 L324.35 219.0 Q325.9 220.4 328.15 220.3 L329.05 219.5 329.2 218.85 329.1 218.6 Q328.15 216.65 325.65 216.85 M340.6 220.1 Q337.15 225.8 343.1 228.8 344.75 229.6 346.6 229.3 349.65 223.9 349.5 217.6 349.15 221.65 346.8 224.95 346.0 226.05 344.7 226.8 L342.95 226.8 Q340.3 224.25 340.45 220.95 L340.6 220.25 340.6 220.1 M330.0 239.85 L330.05 239.25 330.05 239.1 Q329.05 238.3 327.75 238.55 326.75 238.75 325.7 239.35 L325.25 239.55 325.5 240.55 Q323.25 246.65 328.75 249.7 333.35 252.15 336.0 247.45 337.15 245.25 337.35 242.9 336.8 246.2 333.8 247.5 332.15 248.25 330.75 247.25 327.9 245.15 328.45 241.9 L329.85 240.2 330.0 239.85 M332.3 241.35 L332.1 241.45 331.7 241.95 331.6 242.1 Q331.45 242.45 331.45 242.75 331.25 244.15 332.05 245.2 332.75 245.8 333.65 245.4 L334.0 245.0 Q335.0 243.2 333.95 241.5 L333.55 241.35 333.0 241.15 332.3 241.35 M354.75 254.6 Q354.9 254.25 355.2 254.05 L355.3 253.95 Q356.55 253.8 357.7 254.4 359.3 255.25 359.75 256.85 L359.65 257.2 359.5 257.4 359.45 257.5 Q358.6 257.55 358.0 258.0 L357.95 258.1 357.85 258.4 357.9 258.65 357.95 258.75 Q359.4 259.7 360.6 258.4 361.2 257.7 361.0 256.9 360.05 252.35 355.1 252.4 354.15 252.6 353.75 253.5 351.45 257.85 354.4 261.85 355.95 263.9 358.05 264.8 L358.25 264.6 358.45 264.15 358.45 264.05 356.4 261.5 Q353.45 258.65 354.55 254.85 L354.75 254.6 M368.0 328.15 L367.9 328.15 368.0 328.3 368.0 328.15 M312.8 213.05 L312.8 213.1 311.85 213.45 Q311.5 213.7 311.4 214.1 310.9 215.95 310.9 217.8 311.95 219.15 313.45 218.25 L313.9 217.6 Q314.7 215.35 313.75 213.45 L313.35 213.25 312.8 213.05 M314.55 209.85 L314.55 209.9 313.75 210.05 313.35 210.55 313.1 210.95 313.1 211.6 313.25 212.05 Q315.35 214.55 317.9 215.6 L318.45 215.2 Q318.9 214.75 318.95 214.15 L318.85 213.95 Q317.45 210.9 314.55 209.85 M314.9 218.45 Q314.8 218.8 314.85 219.15 L315.0 219.55 Q316.85 221.3 319.3 220.3 L319.6 219.85 319.75 219.45 319.8 219.2 319.7 218.75 319.5 218.35 319.3 218.1 318.95 217.95 316.3 217.45 316.3 217.5 315.65 217.65 315.35 217.8 Q315.0 218.05 314.9 218.45 M308.1 216.3 L307.3 216.5 306.9 216.95 306.65 217.4 306.7 218.05 306.8 218.45 308.45 220.45 Q309.2 221.5 310.35 222.0 314.7 224.0 313.45 220.15 L311.6 219.7 311.45 219.5 Q310.3 217.15 308.1 216.3 M303.55 242.75 L303.55 243.05 Q302.65 248.4 308.25 248.45 L308.85 248.45 309.7 247.9 Q310.3 245.95 310.35 243.95 L310.45 243.05 309.65 244.9 308.8 246.25 308.7 246.3 306.9 246.4 Q305.4 245.95 304.25 245.0 L303.85 244.65 303.55 243.65 303.55 243.05 304.0 241.15 303.55 242.35 303.55 242.75 M307.5 240.15 L306.95 240.0 306.3 240.15 306.05 240.3 305.65 240.75 305.55 240.95 Q305.4 241.25 305.4 241.6 305.2 242.95 306.0 244.0 306.7 244.6 307.6 244.25 L307.95 243.85 Q308.95 242.05 307.9 240.35 L307.5 240.15 M320.85 254.35 L320.4 253.6 320.25 253.45 Q316.55 256.05 320.6 259.95 321.6 260.9 322.9 260.9 323.95 259.55 323.75 257.55 L322.15 255.95 Q321.7 254.95 321.7 253.75 L320.85 254.35 M293.9 251.25 L292.75 251.1 Q291.55 252.65 292.15 254.35 294.25 255.25 294.95 253.05 L295.1 252.7 294.8 251.1 293.9 251.25 M290.4 285.6 L290.8 285.6 291.15 285.65 290.4 285.6" fill="#b7251b" fill-rule="evenodd" stroke="none"/>
    <path d="M227.35 186.4 Q229.1 186.8 231.2 185.75 L231.5 185.35 231.7 184.9 231.7 184.65 231.7 184.5 Q237.3 182.15 243.15 180.55 L247.5 180.85 247.9 180.95 Q248.8 184.1 244.85 186.15 235.7 190.7 229.2 198.45 L225.4 202.65 Q236.4 201.5 246.75 197.4 254.6 194.3 261.5 189.7 261.75 189.5 262.25 189.7 262.9 193.05 259.05 195.45 252.6 199.4 247.5 205.0 241.6 211.35 238.0 219.15 253.35 216.9 265.9 206.6 269.15 203.85 273.15 201.95 L275.9 200.7 Q276.45 199.9 277.25 199.25 L280.15 196.75 280.6 196.75 281.55 197.05 282.7 201.35 282.8 201.95 283.5 204.55 Q283.75 205.55 282.8 205.95 L281.65 205.75 281.9 207.6 Q282.5 211.6 282.35 215.6 L282.3 215.7 282.05 215.6 281.45 215.4 280.8 215.6 280.6 215.7 280.2 216.15 280.1 216.35 279.8 217.8 Q278.7 220.25 276.95 222.3 272.8 229.3 264.55 228.95 L264.3 228.5 263.7 227.6 263.65 227.2 263.55 226.5 262.5 221.9 Q261.9 221.4 261.15 221.6 260.9 221.7 260.7 221.9 260.3 222.1 260.2 222.5 259.75 226.6 261.65 230.2 L262.15 230.8 262.15 230.85 262.2 231.5 262.3 231.95 262.5 232.15 262.95 232.6 263.05 233.5 Q263.8 242.3 257.75 249.3 L257.75 249.95 Q257.75 250.6 258.3 251.05 258.95 251.55 259.65 251.35 259.25 252.9 259.45 254.55 262.25 255.85 265.65 255.1 L265.65 255.2 265.25 255.3 264.85 255.4 264.45 255.9 264.2 256.3 264.15 256.95 Q263.85 259.0 264.7 260.7 265.35 261.25 266.1 261.0 L266.55 260.55 Q267.75 258.1 266.7 255.7 L267.85 256.8 Q269.35 258.3 269.75 260.35 270.55 265.3 274.0 267.75 273.85 268.05 273.85 268.4 L274.0 269.05 Q276.1 271.05 279.3 269.3 285.65 265.7 292.15 268.5 L292.85 269.25 Q295.35 272.85 295.1 277.1 L294.6 277.55 294.2 277.95 294.05 278.6 294.2 279.3 Q295.3 280.25 296.65 280.05 L294.8 284.0 Q294.6 284.0 294.45 284.15 293.6 284.4 292.9 284.95 292.05 285.55 291.15 285.65 292.7 285.8 294.05 286.75 295.9 287.9 296.8 290.0 L296.4 292.8 286.0 292.4 289.2 293.6 289.95 294.45 Q298.35 306.3 289.2 318.4 280.8 320.35 273.6 316.0 L273.6 312.4 269.6 313.2 267.6 315.2 264.4 315.2 262.55 313.75 Q259.7 312.1 257.6 309.6 L257.6 302.8 257.15 302.0 256.5 300.75 Q255.95 299.7 254.8 300.0 252.65 300.8 253.2 303.2 L248.4 310.4 Q246.45 310.1 245.1 308.5 242.2 304.95 242.4 300.4 245.1 297.3 248.95 295.55 254.2 293.1 256.4 287.2 L256.4 282.4 254.8 283.6 252.0 283.6 Q249.9 283.55 248.0 282.4 L246.55 280.65 247.6 280.5 247.9 280.1 Q249.0 276.1 247.9 272.25 L247.5 272.05 246.95 271.9 246.3 272.05 Q246.15 272.1 246.05 272.2 L245.65 272.65 245.55 272.85 Q245.4 273.15 245.4 273.5 245.15 276.5 245.75 279.25 243.9 275.7 240.8 273.2 L240.6 274.4 Q240.45 278.95 241.6 283.2 L248.0 288.4 247.6 291.6 Q245.85 292.7 243.9 293.3 239.5 294.6 236.0 291.2 L234.4 291.2 Q232.0 290.8 230.8 291.6 230.7 293.8 231.6 295.6 235.05 302.3 232.0 309.2 L228.75 311.8 Q225.6 309.75 222.15 308.25 220.85 307.65 220.1 306.4 215.8 299.15 209.7 293.65 204.05 288.6 200.25 281.5 198.5 278.25 198.4 274.45 198.35 272.2 197.7 270.05 194.35 265.75 192.0 261.0 188.65 254.2 189.65 246.3 190.05 242.45 190.6 238.65 192.0 227.95 196.85 218.1 200.9 209.8 207.85 203.55 206.55 198.75 211.5 195.45 216.25 192.25 221.4 189.45 224.35 187.8 227.35 186.4 M333.1 344.45 Q320.3 345.65 308.4 341.0 L308.4 340.4 307.9 339.7 Q303.35 334.95 298.8 330.8 300.45 327.0 304.8 327.1 319.85 327.5 324.8 316.8 L319.2 313.6 Q319.7 312.2 321.65 311.35 327.9 308.7 334.4 307.2 334.4 306.0 334.55 304.85 335.75 296.2 344.4 297.2 L346.95 299.45 Q349.55 302.4 351.6 306.0 L354.0 316.0 Q356.25 317.3 357.0 319.65 358.4 323.85 358.0 328.4 L356.8 330.8 Q349.85 331.9 342.45 330.15 329.8 327.45 318.4 330.0 L318.0 334.0 319.2 335.6 Q321.1 336.3 322.8 338.0 326.45 341.7 329.6 342.4 L329.6 336.8 Q333.15 334.25 337.3 332.65 340.25 331.4 343.6 331.6 L345.6 334.0 345.2 337.6 338.65 339.95 Q334.7 341.35 333.1 344.45 M289.4 263.95 L289.65 264.25 288.2 264.05 288.2 263.95 289.4 263.95 M294.9 267.4 L296.8 268.8 297.6 270.8 297.6 273.05 297.0 271.15 Q296.15 268.9 294.9 267.4 M268.1 214.9 L267.7 214.7 267.15 214.5 266.45 214.7 266.25 214.8 265.85 215.3 265.75 215.45 265.65 216.15 Q265.6 217.45 266.45 218.55 267.2 219.15 268.1 218.75 L268.4 218.35 Q269.35 216.5 268.1 214.9 M271.8 209.55 L271.35 209.65 271.0 209.75 270.6 210.25 270.35 210.65 270.35 211.3 Q270.35 211.95 270.85 212.4 271.5 212.95 272.25 212.7 L272.75 212.25 Q273.75 211.1 272.75 209.9 L272.4 209.75 271.8 209.55 M249.2 236.25 Q248.85 236.5 248.85 236.9 248.25 242.25 249.2 247.25 250.15 247.95 251.1 247.25 L251.45 246.55 Q252.05 241.2 251.1 236.25 L250.75 236.05 250.15 235.9 250.15 235.95 249.2 236.25 M287.85 269.65 L287.6 270.05 287.6 270.7 Q287.3 273.2 288.15 275.35 288.75 275.85 289.5 275.6 L289.9 275.2 Q291.2 272.2 290.05 269.35 L289.65 269.15 289.1 268.95 288.65 269.05 288.3 269.2 287.85 269.65 M290.4 285.6 L291.15 285.65 290.8 285.6 290.4 285.6 M200.4 223.3 L200.4 223.35 199.45 223.65 199.0 224.35 Q197.7 227.8 198.85 231.15 199.8 231.85 200.75 231.15 L201.05 230.45 Q201.2 227.55 201.85 224.75 L201.7 224.1 201.35 223.65 201.0 223.5 200.4 223.3 M223.65 222.05 L223.3 221.6 Q222.65 221.1 221.9 221.35 215.5 229.8 218.15 240.85 L218.6 241.9 Q221.65 245.6 220.75 250.7 219.35 258.25 220.25 265.65 220.85 266.2 221.6 265.95 L226.1 262.5 Q228.8 260.2 232.0 258.55 235.25 256.9 238.35 258.3 242.15 260.0 242.15 256.5 242.1 253.45 242.45 250.4 243.1 244.55 242.9 239.2 241.35 238.35 240.4 239.85 L236.9 244.65 Q233.55 249.0 228.85 250.3 L228.4 248.55 Q227.05 241.85 230.35 236.2 234.75 228.75 240.5 222.45 L240.4 221.9 237.0 222.4 Q233.8 224.9 231.3 228.45 L221.6 236.35 Q220.6 235.05 220.8 233.45 221.3 227.8 223.8 222.7 L223.65 222.05 M228.85 210.95 L229.0 210.7 Q229.6 206.85 224.7 207.2 222.55 207.95 220.55 209.2 215.8 212.15 212.7 217.1 L212.7 217.75 Q212.65 218.05 212.85 218.35 L213.2 218.85 213.5 219.0 214.6 219.1 214.8 219.05 216.3 217.2 Q219.95 210.95 226.65 210.55 L227.25 211.1 228.85 210.95 M222.9 304.55 L223.25 305.1 223.75 305.8 Q225.05 306.9 227.05 306.35 227.7 306.15 228.0 305.7 230.65 301.1 225.55 299.4 L225.15 299.45 224.9 299.55 224.4 299.4 223.95 299.5 223.6 299.6 223.2 300.1 222.95 300.5 222.85 301.6 Q222.75 302.35 222.95 303.05 L222.85 304.1 222.7 304.2 222.9 304.55 M221.45 276.95 L221.2 277.4 221.15 278.05 Q220.85 279.65 221.7 280.9 222.3 281.45 223.1 281.2 L223.5 280.75 Q224.7 278.7 223.6 276.65 L223.25 276.45 222.65 276.3 222.2 276.4 221.85 276.5 221.45 276.95 M248.45 303.15 L248.85 302.45 Q249.25 300.65 248.2 299.2 L247.8 299.0 247.25 298.8 247.25 298.85 246.3 299.2 245.85 299.85 Q245.5 301.65 246.55 303.15 247.5 303.85 248.45 303.15 M264.65 309.1 Q266.1 306.45 264.85 303.85 L264.5 303.7 263.9 303.5 263.25 303.7 263.05 303.8 262.65 304.25 262.5 304.45 262.35 305.1 Q261.9 307.35 262.65 309.3 263.4 309.9 264.3 309.5 L264.65 309.1" fill="#ce4636" fill-rule="evenodd" stroke="none"/>
    <path d="M364.6 169.0 L356.05 168.85 Q355.85 168.85 355.65 168.65 L355.6 168.45 355.5 167.75 352.9 168.0 352.25 168.2 351.95 168.35 351.6 168.8 351.4 169.45 351.4 169.65 351.5 169.9 351.55 170.1 Q352.0 170.85 352.85 170.75 359.9 169.6 365.75 172.7 367.7 173.75 369.25 175.3 374.25 180.4 375.15 187.75 372.65 186.8 370.5 185.2 367.6 183.1 364.25 182.2 348.2 177.6 331.35 177.7 L330.95 178.0 330.7 178.15 330.55 178.4 330.4 178.6 330.35 179.05 330.35 179.25 330.35 179.5 330.4 179.7 Q335.2 186.05 337.55 193.8 339.95 201.8 338.75 210.55 331.15 199.25 318.1 195.05 315.35 194.15 313.1 192.55 311.05 191.05 309.25 190.9 308.65 192.9 306.55 191.9 L306.5 191.9 306.1 191.9 305.6 191.7 Q303.05 198.9 301.2 206.5 299.7 212.55 299.55 218.35 291.8 209.55 282.95 201.95 L282.8 201.95 282.7 201.35 281.55 197.05 280.6 196.75 280.15 196.75 277.25 199.25 Q276.45 199.9 275.9 200.7 L273.15 201.95 Q269.15 203.85 265.9 206.6 253.35 216.9 238.0 219.15 241.6 211.35 247.5 205.0 252.6 199.4 259.05 195.45 262.9 193.05 262.25 189.7 261.75 189.5 261.5 189.7 254.6 194.3 246.75 197.4 236.4 201.5 225.4 202.65 L229.2 198.45 Q235.7 190.7 244.85 186.15 248.8 184.1 247.9 180.95 L247.5 180.85 243.15 180.55 Q237.3 182.15 231.7 184.5 L231.7 184.65 231.7 184.9 231.5 185.35 231.2 185.75 Q229.1 186.8 227.35 186.4 L226.35 186.0 Q223.8 188.55 220.1 187.35 L219.0 188.4 218.55 188.45 Q217.8 188.45 217.35 187.9 L217.25 187.65 Q219.4 182.2 225.7 179.2 232.75 175.8 238.65 170.5 243.7 165.75 249.25 161.65 255.0 157.35 261.3 154.8 278.8 152.85 294.1 160.0 L294.4 162.0 Q283.7 169.7 271.1 176.6 L268.0 178.4 276.55 179.3 275.05 180.0 275.05 180.05 Q278.85 180.15 282.55 181.75 283.5 182.2 284.25 183.05 L284.4 183.1 287.05 183.4 Q288.85 183.75 289.35 185.4 L289.55 185.3 290.25 184.65 290.45 184.55 293.05 183.95 293.25 183.7 Q295.05 182.15 297.5 181.55 300.05 180.9 302.3 182.1 L302.5 182.35 302.65 182.6 302.65 182.15 Q302.9 180.2 304.3 179.15 308.6 180.2 312.65 177.2 313.75 176.1 313.65 174.55 313.25 170.2 313.35 165.85 318.4 165.0 322.2 167.75 325.45 170.15 329.3 169.65 337.5 165.05 346.6 161.75 351.8 159.9 357.0 158.35 375.05 157.35 390.45 166.5 L392.75 167.5 Q394.05 171.0 389.2 171.2 L386.25 171.3 379.6 170.95 Q376.55 169.75 373.35 168.85 L372.95 169.0 372.5 169.15 372.25 169.4 372.2 169.45 372.1 169.45 368.4 169.0 364.6 169.0 M302.4 179.2 L302.5 179.15 302.5 179.6 302.05 180.45 297.65 179.45 300.8 179.2 302.4 179.2" fill="#bbbc73" fill-rule="evenodd" stroke="none"/>
    <path d="M303.7 140.7 L303.0 140.35 Q303.75 106.65 295.45 73.8 294.2 69.0 292.0 64.6 287.4 55.7 293.75 48.6 L294.25 48.35 295.5 48.0 296.65 48.35 297.4 48.7 Q312.25 94.45 313.65 129.45 314.1 141.9 313.55 146.35 312.5 154.25 308.05 136.05 L307.25 135.2 307.2 135.3 305.3 135.95 Q304.65 136.45 304.45 137.25 304.15 138.1 304.3 139.0 303.75 139.8 303.7 140.7" fill="#b4af69" fill-rule="evenodd" stroke="none"/>
    <path d="M313.35 165.85 Q313.25 170.2 313.65 174.55 313.75 176.1 312.65 177.2 308.6 180.2 304.3 179.15 302.9 180.2 302.65 182.15 L302.3 182.1 Q300.05 180.9 297.5 181.55 295.05 182.15 293.25 183.7 L293.05 183.95 290.45 184.55 290.25 184.65 289.55 185.3 289.35 185.4 Q288.85 183.75 287.05 183.4 L284.4 183.1 284.25 183.05 Q283.5 182.2 282.55 181.75 278.85 180.15 275.05 180.05 L275.05 180.0 276.55 179.3 268.0 178.4 271.1 176.6 Q283.7 169.7 294.4 162.0 L294.1 160.0 295.25 160.55 Q299.7 162.75 303.15 165.7 L303.15 157.9 Q303.2 149.45 303.7 140.8 L303.7 140.7 Q303.75 139.8 304.3 139.0 304.15 138.1 304.45 137.25 304.65 136.45 305.3 135.95 L307.2 135.3 307.25 135.2 308.05 136.05 Q312.5 154.25 313.55 146.35 314.6 150.85 313.95 156.25 313.4 161.05 313.35 165.85 M303.3 172.35 L303.25 169.8 302.8 172.35 303.3 172.35 M302.4 179.2 L300.8 179.2 297.65 179.45 302.05 180.45 302.5 179.6 302.5 179.15 302.4 179.2" fill="#8f8349" fill-rule="evenodd" stroke="none"/>
    <path d="M364.6 169.0 L368.4 169.0 372.1 169.45 372.1 169.6 372.2 169.45 372.25 169.4 372.5 169.15 372.95 169.0 373.35 168.85 Q376.55 169.75 379.6 170.95 392.3 175.75 402.6 185.05 L403.2 185.55 410.8 192.3 Q412.5 193.75 413.1 195.3 419.0 196.7 420.3 203.3 420.65 205.1 420.35 206.8 L420.8 206.65 420.8 206.6 421.35 206.8 421.75 207.0 Q426.35 212.65 427.1 219.95 L427.2 220.6 Q424.75 222.7 423.0 225.7 421.95 227.45 422.25 229.55 L422.85 233.75 Q428.15 241.6 426.25 251.45 L425.4 254.4 Q424.7 255.0 423.7 255.05 418.95 259.5 417.05 265.4 421.85 274.4 414.65 281.0 411.8 283.6 409.75 286.9 410.25 292.4 404.75 294.4 403.25 296.5 401.4 298.45 402.6 295.2 403.15 291.7 L403.5 287.4 402.9 286.55 Q401.15 284.5 401.45 283.0 L407.05 283.3 Q408.95 281.85 409.6 279.7 410.35 276.95 410.25 273.95 L409.45 274.1 408.7 273.85 Q407.95 273.6 408.2 272.75 L408.25 272.5 Q408.35 272.0 409.05 271.75 409.95 271.5 410.25 271.0 410.4 269.7 409.9 268.7 409.2 267.4 408.2 266.6 L407.05 266.6 Q405.75 266.95 405.25 266.35 405.35 265.9 405.6 265.5 407.7 261.45 411.4 258.4 L412.6 256.1 414.05 257.55 416.1 257.55 Q422.35 251.4 419.3 242.6 L417.95 241.0 Q416.4 239.25 414.05 239.4 L412.0 240.85 410.25 240.85 Q408.15 235.05 409.1 229.15 L407.05 228.85 Q402.15 226.5 403.25 221.1 405.8 208.35 396.05 201.35 394.3 200.1 392.1 199.0 L390.95 198.7 Q388.85 194.2 383.3 192.3 380.2 192.6 377.9 191.5 L375.4 189.65 Q375.4 188.85 376.1 188.25 L376.45 187.9 376.7 187.6 377.95 185.8 377.6 184.25 Q376.85 180.05 374.5 176.8 370.4 171.15 364.6 169.0 M341.95 200.45 L341.2 205.15 340.6 196.4 339.55 194.1 333.85 178.8 Q344.85 178.45 357.05 180.8 365.95 182.55 371.3 188.2 L370.2 188.2 366.0 187.8 Q355.15 185.2 344.7 188.5 L344.45 188.8 Q341.95 193.9 342.05 199.9 L341.95 200.45 M335.4 181.25 L335.5 181.25 335.4 181.25 M408.85 195.0 L408.8 194.9 408.65 195.0 408.85 195.0 M413.6 198.9 L413.7 198.7 413.35 198.55 413.6 198.9" fill="#841f16" fill-rule="evenodd" stroke="none"/>
    <path d="M345.6 264.65 L346.1 264.9 Q347.9 267.75 346.55 270.85 L346.1 271.4 Q344.9 271.95 343.9 271.1 342.7 269.05 342.75 266.6 342.75 266.15 342.9 265.7 L343.05 265.45 343.6 264.8 343.9 264.65 344.8 264.4 345.6 264.65 M332.8 285.2 L333.6 285.45 334.1 285.7 Q335.55 288.0 334.2 290.45 L333.7 291.0 Q332.5 291.55 331.5 290.7 330.45 289.3 330.7 287.4 L330.9 286.5 331.05 286.25 331.6 285.6 331.9 285.45 332.8 285.2 M316.8 270.8 L317.6 271.05 318.1 271.3 Q319.3 273.35 318.6 275.8 L318.1 276.7 Q316.05 277.95 314.6 276.1 314.45 274.2 314.9 272.2 315.05 271.65 315.5 271.3 L316.8 270.85 316.8 270.8 M307.3 287.3 Q308.7 288.9 307.3 290.5 L306.6 291.1 Q305.55 291.45 304.7 290.7 304.0 290.1 304.0 289.2 L304.0 288.3 304.35 287.75 304.9 287.1 305.4 286.95 306.0 286.8 306.8 287.05 307.3 287.3" fill="#ffffff" fill-rule="evenodd" stroke="none"/>
    <path d="M346.6 161.75 Q351.8 159.9 357.0 158.35 375.05 157.35 390.45 166.5 L392.75 167.5 Q394.05 171.0 389.2 171.2 L386.25 171.3 379.6 170.95 Q392.3 175.75 402.6 185.05 L403.2 185.55 410.8 192.3 Q412.5 193.75 413.1 195.3 419.0 196.7 420.3 203.3 420.65 205.1 420.35 206.8 L420.8 206.65 420.8 206.6 421.35 206.8 421.75 207.0 Q426.35 212.65 427.1 219.95 L427.2 220.6 Q424.75 222.7 423.0 225.7 421.95 227.45 422.25 229.55 L422.85 233.75 Q428.15 241.6 426.25 251.45 L425.4 254.4 Q424.7 255.0 423.7 255.05 418.95 259.5 417.05 265.4 421.85 274.4 414.65 281.0 411.8 283.6 409.75 286.9 410.25 292.4 404.75 294.4 403.25 296.5 401.4 298.45 L396.95 302.55 Q394.5 304.6 392.55 307.15 388.8 314.4 379.7 314.85 378.8 314.9 377.95 315.45 L376.9 316.1 Q376.1 321.6 371.9 323.3 371.85 326.75 369.65 329.4 L369.0 329.55 368.4 329.4 368.35 329.45 368.2 329.9 367.9 330.35 Q352.05 334.15 338.15 343.05 336.7 343.9 335.1 344.2 L334.7 344.25 333.1 344.45 Q320.3 345.65 308.4 341.0 L306.4 340.15 Q304.5 339.3 302.4 339.05 281.75 336.65 262.4 328.8 259.45 327.6 256.35 327.0 243.9 324.8 234.5 316.25 231.75 313.75 228.75 311.8 225.6 309.75 222.15 308.25 220.85 307.65 220.1 306.4 218.1 302.95 215.65 299.95 212.9 296.55 209.7 293.65 204.05 288.6 200.25 281.5 198.5 278.25 198.4 274.45 198.35 272.2 197.7 270.05 194.35 265.75 192.0 261.0 188.65 254.2 189.65 246.3 190.05 242.45 190.6 238.65 192.0 227.95 196.85 218.1 200.9 209.8 207.85 203.55 206.55 198.75 211.5 195.45 216.25 192.25 221.4 189.45 224.35 187.8 227.35 186.4 L226.35 186.0 Q223.8 188.55 220.1 187.35 L219.0 188.4 218.55 188.45 Q217.8 188.45 217.35 187.9 L217.25 187.65 Q219.4 182.2 225.7 179.2 232.75 175.8 238.65 170.5 243.7 165.75 249.25 161.65 255.0 157.35 261.3 154.8 278.8 152.85 294.1 160.0 L295.25 160.55 Q299.7 162.75 303.15 165.7 L303.15 157.9 Q303.2 149.45 303.7 140.8 L303.7 140.7 303.0 140.35 Q303.75 106.65 295.45 73.8 294.2 69.0 292.0 64.6 287.4 55.7 293.75 48.6 L294.25 48.35 295.5 48.0 296.65 48.35 297.4 48.7 Q312.25 94.45 313.65 129.45 314.1 141.9 313.55 146.35 314.6 150.85 313.95 156.25 313.4 161.05 313.35 165.85 318.4 165.0 322.2 167.75 325.45 170.15 329.3 169.65 337.5 165.05 346.6 161.75 M335.4 181.25 L335.5 181.25 335.4 181.25 M372.1 169.45 L372.1 169.6 372.2 169.45 372.1 169.45 M408.85 195.0 L408.65 195.0 408.8 194.9 408.85 195.0 M413.6 198.9 L413.35 198.55 413.7 198.7 413.6 198.9 M400.85 294.75 L400.9 294.75 400.9 294.7 400.85 294.75 M368.0 328.3 L368.0 328.15 367.9 328.15 368.0 328.3 M303.25 169.8 L302.8 172.35 303.3 172.35 303.25 169.8 M302.65 182.15 L302.65 182.6 302.5 182.35 302.3 182.1 302.65 182.15 M282.35 215.7 L282.3 215.7 282.35 215.6 282.35 215.7 M266.35 255.4 L265.9 255.05 265.65 255.1 265.65 255.2 266.25 255.4 266.35 255.4 M288.2 264.05 L288.2 263.95 286.75 263.95 286.3 264.05 288.2 264.05 M222.85 304.1 L222.7 304.2 222.9 304.55 222.85 304.1 Z" fill="none" stroke="#000000" stroke-linecap="round" stroke-linejoin="round" stroke-opacity="0.4" stroke-width="1.25"/>
  </g>
</svg>
