<?xml version="1.0" encoding="UTF-8" standalone="no"?>
<svg xmlns:ffdec="https://www.free-decompiler.com/flash" xmlns:xlink="http://www.w3.org/1999/xlink" ffdec:objectType="shape" height="8.6px" width="15.65px" xmlns="http://www.w3.org/2000/svg">
  <g transform="matrix(1.0, 0.0, 0.0, 1.0, -275.7, -200.2)">
    <path d="M279.25 205.1 L279.65 204.9 280.7 208.15 275.7 208.5 Q276.5 206.55 279.25 205.1 M287.55 207.7 L288.95 204.9 Q290.55 206.15 291.35 208.05 L287.55 207.7" fill="#fff5e0" fill-rule="evenodd" stroke="none"/>
    <path d="M287.95 205.15 L288.95 204.9 287.55 207.7 284.05 208.8 Q283.95 207.6 285.4 206.35 L282.8 205.15 281.55 205.65 282.3 205.95 283.35 206.9 283.75 208.75 Q282.35 208.25 280.7 208.15 L279.65 204.9 279.25 205.1 279.6 201.3 Q281.15 201.7 283.65 203.55 286.45 202.15 289.15 201.35 288.3 203.45 287.95 205.15" fill="#e5c59a" fill-rule="evenodd" stroke="none"/>
    <path d="M287.95 205.15 Q288.3 203.45 289.15 201.35 286.45 202.15 283.65 203.55 281.15 201.7 279.6 201.3 L279.25 205.1 279.65 204.9 M280.7 208.15 L275.7 208.5 Q276.5 206.55 279.25 205.1" ffdec:has-small-stroke="true" ffdec:original-stroke-width="0.05" fill="none" stroke="#9e8769" stroke-linecap="round" stroke-linejoin="round" stroke-width="1.0"/>
    <path d="M284.05 208.8 L287.55 207.7 291.35 208.05 Q290.55 206.15 288.95 204.9" ffdec:has-small-stroke="true" ffdec:original-stroke-width="0.05" fill="none" stroke="#9e8769" stroke-linecap="round" stroke-linejoin="round" stroke-width="1.0"/>
    <path d="M286.6 204.35 L289.15 204.85 Q288.15 206.5 287.35 206.85 L285.9 207.15 Q287.3 205.55 286.6 204.35 M279.45 204.6 Q279.7 206.05 281.05 207.3 L279.6 207.3 Q278.75 207.15 277.25 205.5 L279.45 204.6 M282.85 201.45 L284.9 203.2 Q283.05 203.1 281.4 203.9 L281.3 203.6 Q281.1 202.65 282.85 201.45" fill="#a18562" fill-rule="evenodd" stroke="none"/>
    <path d="M281.6 206.95 Q280.0 207.05 279.05 205.95 277.95 203.45 278.9 201.8 279.6 205.05 281.6 206.95" fill="url(#gradient0)" fill-rule="evenodd" stroke="none"/>
    <path d="M278.9 201.8 Q280.65 203.7 282.75 204.8 282.3 206.95 281.6 206.95 279.6 205.05 278.9 201.8" fill="#624e2f" fill-rule="evenodd" stroke="none"/>
    <path d="M283.8 200.2 Q286.2 202.2 286.55 204.7 286.2 205.25 285.6 205.15 286.05 203.05 283.8 200.2" fill="url(#gradient1)" fill-rule="evenodd" stroke="none"/>
    <path d="M283.8 200.2 Q286.05 203.05 285.6 205.15 283.6 205.35 280.65 204.4 283.35 202.8 283.8 200.2" fill="#624e2f" fill-rule="evenodd" stroke="none"/>
    <path d="M284.6 206.8 Q286.3 205.5 287.75 201.65 288.3 203.5 287.25 206.05 286.3 207.2 284.6 206.8" fill="url(#gradient2)" fill-rule="evenodd" stroke="none"/>
    <path d="M284.6 206.8 L283.5 206.4 Q286.1 204.45 287.75 201.65 286.3 205.5 284.6 206.8" fill="#624e2f" fill-rule="evenodd" stroke="none"/>
    <path d="M284.95 206.5 Q284.2 207.3 283.1 207.3 282.05 207.3 281.25 206.5 280.5 205.75 280.5 204.7 280.5 203.6 281.25 202.8 282.05 202.05 283.1 202.05 284.2 202.05 284.95 202.8 285.7 203.6 285.7 204.7 285.7 205.75 284.95 206.5" fill="#ffd919" fill-rule="evenodd" stroke="none"/>
    <path d="M284.6 203.6 L284.3 203.85 283.7 203.6 283.3 203.05 283.15 202.45 283.5 202.2 Q283.75 202.2 284.05 202.45 L284.55 203.05 284.6 203.6" fill="#fff8df" fill-rule="evenodd" stroke="none"/>
    <path d="M282.7 207.8 L280.65 207.5 Q281.0 205.8 282.95 204.05 284.95 204.95 285.75 207.35 L282.7 207.8" fill="url(#gradient3)" fill-rule="evenodd" stroke="none"/>
    <path d="M286.75 206.95 Q284.55 208.1 283.85 207.9 L286.1 206.15 286.75 206.95 M279.65 207.05 L280.25 206.25 Q281.1 207.15 282.65 208.05 282.0 208.2 279.65 207.05" fill="#886c51" fill-rule="evenodd" stroke="none"/>
  </g>
  <defs>
    <linearGradient gradientTransform="matrix(-7.0E-4, -0.0016, 0.0011, -5.0E-4, 279.45, 204.5)" gradientUnits="userSpaceOnUse" id="gradient0" spreadMethod="pad" x1="-819.2" x2="819.2">
      <stop offset="0.06666666666666667" stop-color="#ed9c16"/>
      <stop offset="0.5137254901960784" stop-color="#f2cc4f"/>
      <stop offset="1.0" stop-color="#fceadb"/>
    </linearGradient>
    <linearGradient gradientTransform="matrix(-5.0E-4, -0.0018, 9.0E-4, -2.0E-4, 285.4, 203.2)" gradientUnits="userSpaceOnUse" id="gradient1" spreadMethod="pad" x1="-819.2" x2="819.2">
      <stop offset="0.06666666666666667" stop-color="#ed9c16"/>
      <stop offset="0.5137254901960784" stop-color="#f2cc4f"/>
      <stop offset="1.0" stop-color="#fceadb"/>
    </linearGradient>
    <linearGradient gradientTransform="matrix(8.0E-4, -0.0018, 0.0012, 5.0E-4, 286.75, 204.55)" gradientUnits="userSpaceOnUse" id="gradient2" spreadMethod="pad" x1="-819.2" x2="819.2">
      <stop offset="0.06666666666666667" stop-color="#ed9c16"/>
      <stop offset="0.5137254901960784" stop-color="#f2cc4f"/>
      <stop offset="1.0" stop-color="#fceadb"/>
    </linearGradient>
    <linearGradient gradientTransform="matrix(0.0, -0.0016, 0.0031, 0.0, 283.2, 206.4)" gradientUnits="userSpaceOnUse" id="gradient3" spreadMethod="pad" x1="-819.2" x2="819.2">
      <stop offset="0.06666666666666667" stop-color="#ed9c16"/>
      <stop offset="0.5137254901960784" stop-color="#f2cc4f"/>
      <stop offset="1.0" stop-color="#fceadb"/>
    </linearGradient>
  </defs>
</svg>
