<?xml version="1.0" encoding="UTF-8" standalone="no"?>
<svg xmlns:ffdec="https://www.free-decompiler.com/flash" xmlns:xlink="http://www.w3.org/1999/xlink" ffdec:objectType="shape" height="15.75px" width="17.75px" xmlns="http://www.w3.org/2000/svg">
  <g transform="matrix(1.0, 0.0, 0.0, 1.0, 0.0, 16.3)">
    <path d="M2.9 -0.55 Q-1.65 -1.3 1.0 -4.85 1.7 -4.1 7.75 -5.95 L8.1 -5.7 Q2.45 -2.95 2.9 -0.55" fill="#999804" fill-rule="evenodd" stroke="none"/>
    <path d="M12.1 -7.2 L12.2 -7.8 Q12.5 -8.6 13.5 -8.5 14.45 -8.4 15.6 -7.45 16.75 -6.5 17.35 -5.25 17.95 -4.0 17.7 -3.15 17.4 -2.35 16.45 -2.45 15.4 -2.55 14.3 -3.5 13.15 -4.45 12.55 -5.7 12.1 -6.55 12.1 -7.2" fill="#ff8b17" fill-rule="evenodd" stroke="none"/>
    <path d="M14.15 -14.05 Q14.4 -12.65 14.15 -11.1 13.85 -9.6 13.15 -8.9 12.45 -8.2 11.8 -8.75 11.1 -9.3 10.8 -10.7 10.5 -12.15 10.8 -13.65 11.1 -15.2 11.8 -15.9 12.5 -16.6 13.2 -16.05 13.85 -15.5 14.15 -14.05" fill="#ff6600" fill-rule="evenodd" stroke="none"/>
    <path d="M11.95 -7.15 L11.95 -6.9 11.5 -5.85 Q10.85 -5.15 9.8 -5.25 L8.65 -5.55 8.3 -5.8 7.8 -6.2 Q6.9 -7.1 6.7 -8.2 6.5 -9.3 7.15 -10.05 7.7 -10.7 8.7 -10.65 L8.85 -10.65 Q9.95 -10.55 10.85 -9.65 L11.25 -9.2 11.85 -7.9 11.9 -7.7 11.95 -7.35 11.95 -7.15" fill="#f15501" fill-rule="evenodd" stroke="none"/>
    <path d="M14.15 -14.05 Q14.4 -12.65 14.15 -11.1 13.85 -9.6 13.15 -8.9 12.45 -8.2 11.8 -8.75 11.1 -9.3 10.8 -10.7 10.5 -12.15 10.8 -13.65 11.1 -15.2 11.8 -15.9 12.5 -16.6 13.2 -16.05 13.85 -15.5 14.15 -14.05" ffdec:has-small-stroke="true" ffdec:original-stroke-width="0.05" fill="none" stroke="#cc3300" stroke-linecap="round" stroke-linejoin="round" stroke-width="1.0"/>
    <path d="M11.95 -7.15 L11.95 -6.9 11.5 -5.85 Q10.85 -5.15 9.8 -5.25 L8.65 -5.55 8.3 -5.8 7.8 -6.2 Q6.9 -7.1 6.7 -8.2 6.5 -9.3 7.15 -10.05 7.7 -10.7 8.7 -10.65 L8.85 -10.65 Q9.95 -10.55 10.85 -9.65 L11.25 -9.2 11.85 -7.9 11.9 -7.7 11.95 -7.35 11.95 -7.15" ffdec:has-small-stroke="true" ffdec:original-stroke-width="0.05" fill="none" stroke="#ad2301" stroke-linecap="round" stroke-linejoin="round" stroke-width="1.0"/>
    <path d="M11.95 -7.15 L12.1 -7.2 M1.0 -4.85 Q1.7 -4.1 7.75 -5.95 M8.1 -5.7 Q2.45 -2.95 2.9 -0.55" ffdec:has-small-stroke="true" ffdec:original-stroke-width="0.05" fill="none" stroke="#767603" stroke-linecap="round" stroke-linejoin="round" stroke-width="1.0"/>
    <path d="M12.1 -7.2 L12.2 -7.8 Q12.5 -8.6 13.5 -8.5 14.45 -8.4 15.6 -7.45 16.75 -6.5 17.35 -5.25 17.95 -4.0 17.7 -3.15 17.4 -2.35 16.45 -2.45 15.4 -2.55 14.3 -3.5 13.15 -4.45 12.55 -5.7 12.1 -6.55 12.1 -7.2 Z" ffdec:has-small-stroke="true" ffdec:original-stroke-width="0.05" fill="none" stroke="#b03304" stroke-linecap="round" stroke-linejoin="round" stroke-width="1.0"/>
  </g>
</svg>
