<?xml version="1.0" encoding="UTF-8" standalone="no"?>
<svg xmlns:ffdec="https://www.free-decompiler.com/flash" xmlns:xlink="http://www.w3.org/1999/xlink" ffdec:objectType="shape" height="108.1px" width="78.05px" xmlns="http://www.w3.org/2000/svg">
  <g transform="matrix(1.0, 0.0, 0.0, 1.0, 52.85, 60.0)">
    <path d="M-25.8 -59.15 Q-19.85 -59.15 -15.8 -55.1 -11.55 -50.85 -11.55 -44.9 -11.55 -38.95 -15.8 -34.9 -19.85 -30.65 -25.8 -30.65 -31.75 -30.65 -36.0 -34.9 -40.05 -38.95 -40.05 -44.9 -40.05 -50.85 -36.0 -55.1 -31.75 -59.15 -25.8 -59.15 M-32.1 -52.25 Q-33.4 -52.25 -34.35 -51.4 -34.95 -50.75 -35.05 -49.9 L-35.05 -49.5 -35.05 -49.3 -34.6 -47.4 -34.35 -47.15 Q-33.4 -46.3 -32.1 -46.3 -30.85 -46.3 -30.05 -47.15 -29.15 -47.95 -29.1 -49.3 -29.15 -50.55 -30.05 -51.4 -30.85 -52.25 -32.1 -52.25" fill="#fe98db" fill-opacity="0.47058824" fill-rule="evenodd" stroke="none"/>
    <path d="M-32.1 -52.25 Q-30.85 -52.25 -30.05 -51.4 -29.15 -50.55 -29.1 -49.3 -29.15 -47.95 -30.05 -47.15 -30.85 -46.3 -32.1 -46.3 -33.4 -46.3 -34.35 -47.15 L-34.6 -47.4 -35.05 -49.3 -35.05 -49.5 -35.05 -49.9 Q-34.95 -50.75 -34.35 -51.4 -33.4 -52.25 -32.1 -52.25" fill="#ffffff" fill-rule="evenodd" stroke="none"/>
    <path d="M-25.8 -59.15 Q-19.85 -59.15 -15.8 -55.1 -11.55 -50.85 -11.55 -44.9 -11.55 -38.95 -15.8 -34.9 -19.85 -30.65 -25.8 -30.65 -31.75 -30.65 -36.0 -34.9 -40.05 -38.95 -40.05 -44.9 -40.05 -50.85 -36.0 -55.1 -31.75 -59.15 -25.8 -59.15 Z" fill="none" stroke="#ff3399" stroke-linecap="round" stroke-linejoin="round" stroke-width="1.75"/>
    <path d="M-14.15 -44.55 Q-14.15 -40.1 -17.35 -36.95 -20.55 -33.75 -25.3 -33.7 L-29.1 -34.3 Q-23.8 -34.65 -20.1 -38.35 -16.2 -42.3 -16.3 -47.85 -16.25 -50.0 -16.75 -51.9 -14.15 -48.7 -14.15 -44.55" fill="#ff037b" fill-opacity="0.24313726" fill-rule="evenodd" stroke="none"/>
    <path d="M-32.55 -5.7 L-32.1 -3.8 -31.85 -3.55 Q-30.9 -2.7 -29.6 -2.7 -28.35 -2.7 -27.55 -3.55 -26.65 -4.35 -26.6 -5.7 -26.65 -6.95 -27.55 -7.8 -28.35 -8.65 -29.6 -8.65 -30.9 -8.65 -31.85 -7.8 -32.45 -7.15 -32.55 -6.3 L-32.55 -5.9 -32.55 -5.7 M-33.5 -11.5 Q-29.25 -15.55 -23.3 -15.55 -17.35 -15.55 -13.3 -11.5 -9.05 -7.25 -9.05 -1.3 -9.05 1.95 -10.3 4.6 -11.4 6.85 -13.3 8.7 -15.9 11.4 -19.25 12.4 L-23.3 12.95 Q-29.25 12.95 -33.5 8.7 -37.55 4.65 -37.55 -1.3 -37.55 -7.25 -33.5 -11.5" fill="#fe98db" fill-opacity="0.47058824" fill-rule="evenodd" stroke="none"/>
    <path d="M-32.55 -5.7 L-32.55 -5.9 -32.55 -6.3 Q-32.45 -7.15 -31.85 -7.8 -30.9 -8.65 -29.6 -8.65 -28.35 -8.65 -27.55 -7.8 -26.65 -6.95 -26.6 -5.7 -26.65 -4.35 -27.55 -3.55 -28.35 -2.7 -29.6 -2.7 -30.9 -2.7 -31.85 -3.55 L-32.1 -3.8 -32.55 -5.7" fill="#ffffff" fill-rule="evenodd" stroke="none"/>
    <path d="M-33.5 -11.5 Q-29.25 -15.55 -23.3 -15.55 -17.35 -15.55 -13.3 -11.5 -9.05 -7.25 -9.05 -1.3 -9.05 1.95 -10.3 4.6 -11.4 6.85 -13.3 8.7 -15.9 11.4 -19.25 12.4 L-23.3 12.95 Q-29.25 12.95 -33.5 8.7 -37.55 4.65 -37.55 -1.3 -37.55 -7.25 -33.5 -11.5 Z" fill="none" stroke="#ff3399" stroke-linecap="round" stroke-linejoin="round" stroke-width="1.75"/>
    <path d="M-13.8 -4.25 Q-13.75 -6.4 -14.25 -8.3 -11.65 -5.1 -11.65 -0.95 -11.65 3.5 -14.85 6.65 -18.05 9.85 -22.8 9.9 -24.9 9.9 -26.6 9.3 -21.3 8.95 -17.6 5.25 -13.7 1.3 -13.8 -4.25" fill="#ff037b" fill-opacity="0.24313726" fill-rule="evenodd" stroke="none"/>
    <path d="M20.1 -5.55 Q24.35 -1.3 24.35 4.65 24.35 10.6 20.1 14.65 16.05 18.9 10.1 18.9 4.15 18.9 -0.1 14.65 -4.15 10.6 -4.15 4.65 -4.15 -1.3 -0.1 -5.55 4.15 -9.6 10.1 -9.6 16.05 -9.6 20.1 -5.55" fill="#fa2993" fill-opacity="0.47058824" fill-rule="evenodd" stroke="none"/>
    <path d="M20.1 -5.55 Q24.35 -1.3 24.35 4.65 24.35 10.6 20.1 14.65 16.05 18.9 10.1 18.9 4.15 18.9 -0.1 14.65 -4.15 10.6 -4.15 4.65 -4.15 -1.3 -0.1 -5.55 4.15 -9.6 10.1 -9.6 16.05 -9.6 20.1 -5.55 Z" fill="none" stroke="#ff3399" stroke-linecap="round" stroke-linejoin="round" stroke-width="1.75"/>
    <path d="M22.6 6.25 Q22.6 10.7 19.4 13.85 16.2 17.05 11.45 17.1 L7.65 16.5 Q12.95 16.15 16.65 12.45 20.55 8.5 20.45 2.95 20.5 0.8 20.0 -1.1 22.6 2.1 22.6 6.25" fill="#ff037b" fill-opacity="0.24313726" fill-rule="evenodd" stroke="none"/>
    <path d="M-28.5 18.75 Q-22.55 18.75 -18.5 22.8 -14.25 27.05 -14.25 33.0 -14.25 38.95 -18.5 43.0 -22.55 47.25 -28.5 47.25 -34.45 47.25 -38.7 43.0 -42.75 38.95 -42.75 33.0 -42.75 27.05 -38.7 22.8 -34.45 18.75 -28.5 18.75 M-32.75 26.5 Q-33.55 25.65 -34.8 25.65 -36.1 25.65 -37.05 26.5 -37.65 27.15 -37.75 28.0 L-37.75 28.4 -37.75 28.6 -37.3 30.5 -37.05 30.75 Q-36.1 31.6 -34.8 31.6 -33.55 31.6 -32.75 30.75 -31.85 29.95 -31.8 28.6 -31.85 27.35 -32.75 26.5" fill="#fe98db" fill-opacity="0.47058824" fill-rule="evenodd" stroke="none"/>
    <path d="M-32.75 26.5 Q-31.85 27.35 -31.8 28.6 -31.85 29.95 -32.75 30.75 -33.55 31.6 -34.8 31.6 -36.1 31.6 -37.05 30.75 L-37.3 30.5 -37.75 28.6 -37.75 28.4 -37.75 28.0 Q-37.65 27.15 -37.05 26.5 -36.1 25.65 -34.8 25.65 -33.55 25.65 -32.75 26.5" fill="#ffffff" fill-rule="evenodd" stroke="none"/>
    <path d="M-28.5 18.75 Q-22.55 18.75 -18.5 22.8 -14.25 27.05 -14.25 33.0 -14.25 38.95 -18.5 43.0 -22.55 47.25 -28.5 47.25 -34.45 47.25 -38.7 43.0 -42.75 38.95 -42.75 33.0 -42.75 27.05 -38.7 22.8 -34.45 18.75 -28.5 18.75 Z" fill="none" stroke="#ff3399" stroke-linecap="round" stroke-linejoin="round" stroke-width="1.75"/>
    <path d="M-19.0 30.15 Q-19.0 28.0 -19.45 26.1 -16.85 29.2 -16.85 33.5 -16.85 37.75 -19.95 41.1 -23.25 44.15 -28.0 44.15 L-31.85 43.7 Q-26.6 43.2 -22.8 39.65 -19.0 35.6 -19.0 30.15" fill="#ff037b" fill-opacity="0.24313726" fill-rule="evenodd" stroke="none"/>
    <path d="M14.3 -39.9 Q18.55 -35.65 18.55 -29.7 18.55 -23.75 14.3 -19.7 10.25 -15.45 4.3 -15.45 -1.65 -15.45 -5.9 -19.7 -9.95 -23.75 -9.95 -29.7 -9.95 -35.65 -5.9 -39.9 -1.65 -43.95 4.3 -43.95 10.25 -43.95 14.3 -39.9 M1.0 -34.1 Q0.95 -35.35 0.05 -36.2 -0.75 -37.05 -2.0 -37.05 -3.3 -37.05 -4.25 -36.2 -4.85 -35.55 -4.95 -34.7 L-4.95 -34.3 -4.95 -34.1 -4.5 -32.2 -4.25 -31.95 Q-3.3 -31.1 -2.0 -31.1 -0.75 -31.1 0.05 -31.95 0.95 -32.75 1.0 -34.1" fill="#fe98db" fill-opacity="0.47058824" fill-rule="evenodd" stroke="none"/>
    <path d="M1.0 -34.1 Q0.95 -32.75 0.05 -31.95 -0.75 -31.1 -2.0 -31.1 -3.3 -31.1 -4.25 -31.95 L-4.5 -32.2 -4.95 -34.1 -4.95 -34.3 -4.95 -34.7 Q-4.85 -35.55 -4.25 -36.2 -3.3 -37.05 -2.0 -37.05 -0.75 -37.05 0.05 -36.2 0.95 -35.35 1.0 -34.1" fill="#ffffff" fill-rule="evenodd" stroke="none"/>
    <path d="M14.3 -39.9 Q18.55 -35.65 18.55 -29.7 18.55 -23.75 14.3 -19.7 10.25 -15.45 4.3 -15.45 -1.65 -15.45 -5.9 -19.7 -9.95 -23.75 -9.95 -29.7 -9.95 -35.65 -5.9 -39.9 -1.65 -43.95 4.3 -43.95 10.25 -43.95 14.3 -39.9 Z" fill="none" stroke="#ff3399" stroke-linecap="round" stroke-linejoin="round" stroke-width="1.75"/>
    <path d="M13.8 -32.55 Q13.8 -34.7 13.35 -36.6 15.95 -33.5 15.95 -29.2 15.95 -24.95 12.85 -21.6 9.55 -18.55 4.8 -18.55 L0.95 -19.0 Q6.2 -19.5 10.0 -23.05 13.8 -27.1 13.8 -32.55" fill="#ff037b" fill-opacity="0.24313726" fill-rule="evenodd" stroke="none"/>
    <path d="M-46.3 -14.7 Q-46.9 -14.05 -47.0 -13.2 L-47.0 -12.8 -47.0 -12.6 -46.55 -10.7 -46.3 -10.45 Q-45.35 -9.6 -44.05 -9.6 -42.8 -9.6 -42.0 -10.45 -41.1 -11.25 -41.05 -12.6 -41.1 -13.85 -42.0 -14.7 -42.8 -15.55 -44.05 -15.55 -45.35 -15.55 -46.3 -14.7 M-47.95 -18.4 Q-43.7 -22.45 -37.75 -22.45 -31.8 -22.45 -27.75 -18.4 -23.5 -14.15 -23.5 -8.2 -23.5 -2.25 -27.75 1.8 -31.8 6.05 -37.75 6.05 -43.7 6.05 -47.95 1.8 -52.0 -2.25 -52.0 -8.2 -52.0 -14.15 -47.95 -18.4" fill="#fe98db" fill-opacity="0.47058824" fill-rule="evenodd" stroke="none"/>
    <path d="M-46.3 -14.7 Q-45.35 -15.55 -44.05 -15.55 -42.8 -15.55 -42.0 -14.7 -41.1 -13.85 -41.05 -12.6 -41.1 -11.25 -42.0 -10.45 -42.8 -9.6 -44.05 -9.6 -45.35 -9.6 -46.3 -10.45 L-46.55 -10.7 -47.0 -12.6 -47.0 -12.8 -47.0 -13.2 Q-46.9 -14.05 -46.3 -14.7" fill="#ffffff" fill-rule="evenodd" stroke="none"/>
    <path d="M-47.95 -18.4 Q-43.7 -22.45 -37.75 -22.45 -31.8 -22.45 -27.75 -18.4 -23.5 -14.15 -23.5 -8.2 -23.5 -2.25 -27.75 1.8 -31.8 6.05 -37.75 6.05 -43.7 6.05 -47.95 1.8 -52.0 -2.25 -52.0 -8.2 -52.0 -14.15 -47.95 -18.4 Z" fill="none" stroke="#ff3399" stroke-linecap="round" stroke-linejoin="round" stroke-width="1.75"/>
    <path d="M-28.25 -11.05 Q-28.25 -13.2 -28.7 -15.1 -26.1 -12.0 -26.1 -7.7 -26.1 -3.45 -29.2 -0.1 -32.5 2.95 -37.25 2.95 L-41.1 2.5 Q-35.85 2.0 -32.05 -1.55 -28.25 -5.6 -28.25 -11.05" fill="#ff037b" fill-opacity="0.24313726" fill-rule="evenodd" stroke="none"/>
  </g>
</svg>
