<?xml version="1.0" encoding="UTF-8" standalone="no"?>
<svg xmlns:ffdec="https://www.free-decompiler.com/flash" xmlns:xlink="http://www.w3.org/1999/xlink" ffdec:objectType="shape" height="90.1px" width="99.35px" xmlns="http://www.w3.org/2000/svg">
  <g transform="matrix(1.0, 0.0, 0.0, 1.0, -225.3, -154.9)">
    <path d="M265.2 159.35 L267.85 161.0 Q272.4 164.4 275.7 170.15 273.8 169.05 271.25 168.65 273.8 169.05 275.7 170.15 277.4 171.1 278.6 172.65 L278.5 172.85 276.1 172.7 Q273.0 172.7 270.2 173.45 270.4 171.15 271.25 168.65 L269.05 168.45 Q268.0 171.45 267.85 174.2 L267.85 174.25 Q265.45 175.2 263.3 176.8 L261.3 176.85 Q258.3 177.1 254.85 178.3 L252.5 178.15 253.85 180.25 Q257.75 178.7 261.15 178.6 L260.55 179.15 Q258.3 181.4 256.85 184.0 L255.9 182.9 255.8 182.8 255.4 182.25 253.85 180.25 255.4 182.25 255.8 182.8 255.9 182.9 256.85 184.0 256.3 185.05 254.8 183.2 253.9 181.95 Q251.5 178.3 250.05 173.9 247.6 166.3 248.1 156.4 255.25 155.6 261.0 157.5 L262.05 157.85 Q263.65 158.45 265.2 159.35 L257.05 171.65 265.2 159.35 M267.25 162.0 L267.85 161.0 267.25 162.0 262.75 173.0 267.25 162.0 261.45 172.2 267.25 162.0 M283.15 173.8 Q284.2 172.2 285.6 170.7 L288.35 168.0 Q292.0 164.8 297.1 162.2 300.5 166.9 301.55 171.7 L285.6 170.7 301.55 171.7 301.7 172.6 289.2 171.9 301.7 172.6 301.95 175.25 300.7 175.35 Q295.2 175.75 290.4 177.95 289.4 177.1 288.35 176.4 285.9 174.7 283.15 173.8 M247.25 181.55 Q249.45 185.45 252.7 188.7 L254.0 190.35 254.45 190.85 254.15 193.85 253.1 194.7 251.45 196.35 Q249.65 198.5 248.15 201.55 L246.6 202.95 248.8 203.45 Q250.5 199.6 252.85 197.25 L253.0 197.1 Q253.4 196.65 253.9 196.3 L254.15 196.1 254.3 197.75 254.35 198.2 Q254.8 201.2 256.05 203.95 L256.65 205.05 Q249.15 205.35 242.2 201.8 235.6 198.45 229.45 191.65 233.65 186.45 238.65 183.9 L242.2 201.8 238.65 183.9 239.55 183.5 242.6 182.35 245.4 181.75 247.25 181.55 M253.65 170.8 L262.05 157.85 253.65 170.8 M245.65 182.75 L245.4 181.75 245.65 182.75 249.9 192.9 245.65 182.75 248.5 193.2 245.65 182.75 M260.95 210.65 L262.65 212.1 262.9 212.3 264.2 213.25 266.15 214.4 267.5 215.05 267.2 217.2 267.15 217.55 266.35 219.6 266.0 220.25 Q264.75 222.3 262.65 224.25 261.0 222.9 260.1 221.4 261.0 222.9 262.65 224.25 L264.1 225.3 Q266.05 223.6 267.25 221.75 L268.55 219.25 269.75 220.5 271.15 221.55 272.95 222.55 Q275.15 223.55 278.05 224.15 L279.6 225.15 279.55 223.15 279.15 220.5 278.9 219.2 278.85 218.85 278.2 216.6 279.2 216.5 279.75 218.7 279.95 219.65 280.05 220.6 Q280.5 224.75 279.6 229.1 L279.25 230.55 Q277.75 236.2 273.9 242.2 268.55 239.85 265.3 236.2 L264.7 235.55 275.85 229.85 264.7 235.55 263.1 233.2 261.95 231.0 261.75 230.55 Q260.1 226.5 260.1 221.4 258.0 217.8 259.85 213.05 L266.0 220.25 259.85 213.05 260.2 212.2 260.95 210.65 M269.15 215.65 L272.25 216.4 274.0 216.65 274.75 216.7 276.1 216.7 278.2 216.6 278.85 218.85 278.9 219.2 279.15 220.5 279.55 223.15 Q275.85 222.6 273.35 221.15 L273.2 221.05 272.3 220.5 271.5 219.85 271.55 219.7 271.5 219.85 Q270.0 218.55 269.1 216.85 L269.15 215.65 M283.1 215.65 Q285.35 214.9 287.4 213.65 L288.35 214.45 288.65 214.75 290.35 216.9 290.85 217.65 Q292.3 220.2 293.05 223.7 290.65 224.6 288.45 224.65 290.65 224.6 293.05 223.7 L295.05 222.8 Q294.45 219.65 293.25 217.2 L291.35 214.3 293.45 213.75 295.4 212.95 297.55 211.65 Q300.05 209.9 302.45 207.15 L304.5 206.1 302.3 204.95 300.0 204.0 299.35 203.75 299.25 203.7 296.6 202.85 297.0 201.75 300.05 202.9 301.4 203.5 Q305.3 205.45 308.75 208.55 314.7 213.9 319.25 222.75 313.4 227.0 307.5 228.25 L306.4 228.45 302.95 228.75 299.85 228.65 Q294.15 227.95 288.45 224.65 L288.35 224.65 Q286.45 224.65 284.7 223.95 284.6 221.4 284.05 218.9 L283.85 218.05 283.25 216.1 283.1 215.7 283.1 215.65 M289.45 212.2 L291.65 210.25 292.05 209.85 293.5 208.2 293.9 207.7 Q295.6 205.4 296.6 202.85 L299.25 203.7 299.35 203.75 300.0 204.0 302.3 204.95 Q299.45 208.5 296.35 210.35 L296.15 210.45 293.5 208.2 296.15 210.45 295.0 211.05 293.85 211.5 293.8 211.5 293.7 211.35 293.8 211.5 293.85 211.5 Q291.7 212.25 289.45 212.2 M298.05 196.6 L298.1 194.7 Q298.1 190.4 296.65 186.7 L296.6 183.7 297.25 181.65 296.6 181.85 295.1 182.35 295.2 183.65 294.5 182.6 294.0 181.85 Q297.5 180.75 301.35 180.5 L301.6 180.5 Q309.0 180.1 317.75 182.9 316.7 189.5 313.65 194.2 L313.1 195.0 311.0 197.5 308.9 199.45 307.4 200.55 Q303.5 198.25 299.1 197.1 L298.05 196.6 M254.3 197.75 L253.0 197.1 254.3 197.75 M254.35 198.2 L252.85 197.25 254.35 198.2 M242.5 197.45 L239.55 183.5 242.5 197.45 M248.8 203.45 L251.85 203.85 256.05 203.95 251.85 203.85 248.8 203.45 M262.9 212.3 L262.85 212.35 262.9 212.3 M245.25 195.75 L242.6 182.35 245.25 195.75 M264.2 213.25 L263.8 213.5 262.85 212.35 262.65 212.1 262.85 212.35 263.8 213.5 264.2 213.25 M294.5 182.6 L295.1 182.35 294.5 182.6 M290.0 174.65 L300.7 175.35 290.0 174.65 M265.95 214.6 L266.15 214.4 265.95 214.6 M263.8 213.5 L267.15 217.55 263.8 213.5 M274.0 216.65 L273.2 221.05 274.0 216.65 M271.55 219.7 L272.25 216.4 271.55 219.7 M284.05 218.9 L290.85 217.65 284.05 218.9 M273.35 221.15 L274.75 216.7 273.35 221.15 M293.9 207.7 L296.35 210.35 293.9 207.7 M283.1 215.7 L288.65 214.75 283.1 215.7 M290.35 216.9 L283.85 218.05 290.35 216.9 M292.05 209.85 L293.7 211.35 292.05 209.85 M250.05 173.9 L261.0 157.5 250.05 173.9 M260.2 212.2 L266.35 219.6 260.2 212.2 M301.6 180.5 L313.65 194.2 301.6 180.5 M303.55 184.4 L313.1 195.0 303.55 184.4 M308.15 198.7 L308.9 199.45 308.15 198.7 299.4 192.0 308.15 198.7 300.45 191.1 308.15 198.7 M302.0 187.25 L311.0 197.5 302.0 187.25 M308.75 208.55 L307.5 228.25 308.75 208.55 M303.85 214.0 L302.95 228.75 303.85 214.0 M299.8 227.45 L299.85 228.65 299.8 227.45 298.25 215.7 299.8 227.45 299.75 215.75 299.8 227.45 M279.6 229.1 L265.3 236.2 279.6 229.1 M273.8 227.9 L263.1 233.2 273.8 227.9 M262.75 230.55 L261.95 231.0 262.75 230.55 270.35 224.65 262.75 230.55 270.9 225.75 262.75 230.55 M307.2 213.05 L306.4 228.45 307.2 213.05" fill="#93b629" fill-rule="evenodd" stroke="none"/>
    <path d="M267.85 174.2 Q268.0 171.45 269.05 168.45 L271.25 168.65 Q270.4 171.15 270.2 173.45 L267.95 174.2 267.85 174.2 267.95 174.2 267.85 174.25 267.85 174.2 M278.5 172.85 L278.6 172.65 Q281.85 166.65 288.35 162.25 291.05 160.4 294.3 158.85 L297.1 162.2 Q292.0 164.8 288.35 168.0 L285.6 170.7 Q284.2 172.2 283.15 173.8 280.9 173.05 278.5 172.85 M247.25 181.55 Q241.75 171.65 242.8 157.25 L248.1 156.4 Q247.6 166.3 250.05 173.9 251.5 178.3 253.9 181.95 L254.8 183.2 256.3 185.05 Q255.05 187.55 254.5 190.4 L254.3 190.2 254.2 190.1 252.7 188.7 254.2 190.1 254.3 190.2 254.5 190.4 254.45 190.85 254.0 190.35 254.3 190.2 254.0 190.35 252.7 188.7 Q249.45 185.45 247.25 181.55 M261.15 178.6 Q257.75 178.7 253.85 180.25 L252.5 178.15 254.85 178.3 Q258.3 177.1 261.3 176.85 L263.3 176.8 261.75 178.05 261.3 176.85 261.75 178.05 261.6 178.15 261.15 178.6 M261.3 176.85 L261.6 178.15 261.3 176.85 M251.5 196.35 L252.85 197.25 251.5 196.35 251.45 196.35 251.5 196.35 253.0 197.1 251.5 196.35 M248.8 203.45 L246.6 202.95 248.15 201.55 Q249.65 198.5 251.45 196.35 L253.1 194.7 254.15 193.85 254.1 194.7 254.1 195.25 253.1 194.7 254.1 195.25 254.15 196.1 253.9 196.3 Q253.4 196.65 253.0 197.1 L252.85 197.25 Q250.5 199.6 248.8 203.45 M256.65 205.05 Q257.8 207.2 259.55 209.15 L255.5 209.65 Q239.55 210.7 226.55 195.65 227.95 193.5 229.45 191.65 235.6 198.45 242.2 201.8 249.15 205.35 256.65 205.05 M267.5 215.05 L269.15 215.65 269.1 216.85 Q270.0 218.55 271.5 219.85 L272.3 220.5 273.2 221.05 272.95 222.55 273.2 221.05 273.35 221.15 272.95 222.55 273.35 221.15 Q275.85 222.6 279.55 223.15 L279.6 225.15 278.05 224.15 Q275.15 223.55 272.95 222.55 L271.15 221.55 269.75 220.5 268.55 219.25 269.1 216.85 268.55 219.25 267.25 221.75 266.0 220.25 267.25 221.75 Q266.05 223.6 264.1 225.3 L262.65 224.25 Q264.75 222.3 266.0 220.25 L266.35 219.6 267.15 217.55 268.55 219.25 267.15 217.55 267.2 217.2 267.5 215.05 M279.2 216.5 L283.1 215.65 283.1 215.7 283.25 216.1 283.85 218.05 284.05 218.9 Q284.6 221.4 284.7 223.95 284.75 227.2 284.0 230.55 282.55 237.0 278.0 243.75 L273.9 242.2 Q277.75 236.2 279.25 230.55 L279.6 229.1 Q280.5 224.75 280.05 220.6 L279.95 219.65 279.75 218.7 279.2 216.5 M287.4 213.65 L288.35 213.0 289.3 212.35 289.45 212.2 Q291.7 212.25 293.85 211.5 L295.0 211.05 296.15 210.45 296.35 210.35 297.55 211.65 296.35 210.35 Q299.45 208.5 302.3 204.95 L304.5 206.1 302.45 207.15 Q300.05 209.9 297.55 211.65 L295.4 212.95 293.45 213.75 291.35 214.3 293.25 217.2 Q294.45 219.65 295.05 222.8 L293.05 223.7 Q292.3 220.2 290.85 217.65 L290.35 216.9 288.65 214.75 291.35 214.3 288.65 214.75 288.35 214.45 287.4 213.65 M297.0 201.75 Q297.8 199.4 298.0 196.8 L298.05 196.6 299.1 197.1 298.0 196.8 299.1 197.1 Q303.5 198.25 307.4 200.55 317.1 206.35 323.4 219.35 L319.25 222.75 Q314.7 213.9 308.75 208.55 305.3 205.45 301.4 203.5 L300.05 202.9 297.0 201.75 M296.65 186.7 L295.2 183.65 295.1 182.35 296.6 181.85 297.25 181.65 296.6 183.7 296.65 186.7 M294.0 181.85 L291.65 179.15 290.4 177.95 Q295.2 175.75 300.7 175.35 L301.95 175.25 Q309.5 174.95 318.25 178.0 L317.75 182.9 Q309.0 180.1 301.6 180.5 L301.35 180.5 Q297.5 180.75 294.0 181.85 M271.15 221.55 L271.5 219.85 271.15 221.55 M297.55 211.65 L296.15 210.45 297.55 211.65 M291.35 214.3 L289.3 212.35 291.35 214.3 M293.25 217.2 L290.85 217.65 293.25 217.2 M295.4 212.95 L293.85 211.5 295.4 212.95" fill="#718b1f" fill-rule="evenodd" stroke="none"/>
    <path d="M267.95 174.2 L270.2 173.45 Q273.0 172.7 276.1 172.7 L278.5 172.85 Q280.9 173.05 283.15 173.8 285.9 174.7 288.35 176.4 289.4 177.1 290.4 177.95 L291.65 179.15 294.0 181.85 294.5 182.6 295.2 183.65 296.65 186.7 Q298.1 190.4 298.1 194.7 L298.05 196.6 298.0 196.8 Q297.8 199.4 297.0 201.75 L296.6 202.85 Q295.6 205.4 293.9 207.7 L293.5 208.2 292.05 209.85 291.65 210.25 289.45 212.2 289.3 212.35 288.35 213.0 287.4 213.65 Q285.35 214.9 283.1 215.65 L279.2 216.5 278.2 216.6 276.1 216.7 274.75 216.7 274.0 216.65 272.25 216.4 269.15 215.65 267.5 215.05 266.15 214.4 264.2 213.25 262.9 212.3 262.65 212.1 260.95 210.65 260.55 210.25 259.55 209.15 Q257.8 207.2 256.65 205.05 L256.05 203.95 Q254.8 201.2 254.35 198.2 L254.3 197.75 254.15 196.1 254.1 195.25 254.1 194.7 254.15 193.85 254.45 190.85 254.5 190.4 Q255.05 187.55 256.3 185.05 L256.85 184.0 Q258.3 181.4 260.55 179.15 L261.15 178.6 261.6 178.15 261.75 178.05 263.3 176.8 Q265.45 175.2 267.85 174.25 L267.95 174.2 M287.8 195.85 L287.8 194.8 287.65 192.45 287.2 190.55 286.8 189.45 285.9 187.6 285.15 186.5 283.6 184.7 282.2 183.45 280.55 182.35 279.6 181.85 Q277.8 181.0 275.8 180.7 L273.55 180.55 271.35 180.7 269.2 181.2 Q267.35 181.75 265.75 182.85 L263.95 184.25 263.45 184.7 263.15 185.05 Q261.9 186.35 261.1 187.8 L260.45 189.05 Q259.5 191.3 259.35 193.9 L259.35 194.0 259.3 194.8 Q259.3 196.5 259.65 198.1 259.95 199.45 260.55 200.7 L261.5 202.45 263.45 204.85 264.4 205.75 Q265.35 206.55 266.4 207.15 L267.65 207.8 Q270.35 209.05 273.55 209.05 L275.65 208.95 279.1 208.0 281.35 206.75 283.35 205.1 283.7 206.0 Q284.65 207.95 286.0 207.95 287.25 207.95 288.1 206.3 L288.25 206.0 288.35 205.8 288.9 204.25 289.15 202.55 289.2 202.05 289.2 201.35 289.2 200.35 Q289.05 198.35 288.35 196.9 L288.25 196.65 287.85 195.95 287.8 195.85" fill="#ffff99" fill-rule="evenodd" stroke="none"/>
    <path d="M283.35 205.1 L281.35 206.75 279.1 208.0 275.65 208.95 273.55 209.05 Q270.35 209.05 267.65 207.8 L266.4 207.15 Q265.35 206.55 264.4 205.75 L263.45 204.85 261.5 202.45 260.55 200.7 Q259.95 199.45 259.65 198.1 259.3 196.5 259.3 194.8 L259.35 194.0 259.35 193.9 Q259.5 191.3 260.45 189.05 L261.1 187.8 Q261.9 186.35 263.15 185.05 L263.45 184.7 263.95 184.25 265.75 182.85 Q267.35 181.75 269.2 181.2 L271.35 180.7 273.55 180.55 275.8 180.7 Q277.8 181.0 279.6 181.85 L280.55 182.35 282.2 183.45 283.6 184.7 285.15 186.5 285.9 187.6 286.8 189.45 287.2 190.55 287.65 192.45 287.8 194.8 287.8 195.85 Q287.0 194.75 286.0 194.75 284.8 194.75 283.95 196.25 L283.7 196.65 Q282.95 198.3 282.85 200.5 L282.8 201.35 Q282.8 203.15 283.2 204.6 L283.35 205.1 M268.1 192.65 L267.5 194.1 267.45 194.15 Q267.15 195.2 267.15 196.4 L267.25 197.55 Q267.5 199.55 268.8 201.2 L268.8 201.25 269.45 201.95 270.4 202.8 271.2 203.3 272.45 203.9 274.25 204.3 275.05 204.3 276.2 204.25 277.35 204.0 278.7 203.4 279.5 202.9 280.6 201.95 281.75 200.6 Q282.95 198.75 282.95 196.4 282.95 194.85 282.45 193.55 281.85 192.05 280.6 190.8 L280.55 190.75 Q279.1 189.3 277.25 188.8 L275.4 188.5 275.05 188.5 274.0 188.6 Q271.9 188.8 270.25 190.1 L269.45 190.8 268.95 191.4 268.1 192.65" fill="#ffffff" fill-rule="evenodd" stroke="none"/>
    <path d="M287.8 195.85 L287.85 195.95 288.25 196.65 288.35 196.9 Q289.05 198.35 289.2 200.35 L289.2 201.35 289.2 202.05 289.15 202.55 288.9 204.25 288.35 205.8 288.25 206.0 288.1 206.3 Q287.25 207.95 286.0 207.95 284.65 207.95 283.7 206.0 L283.35 205.1 283.2 204.6 Q282.8 203.15 282.8 201.35 L282.85 200.5 Q282.95 198.3 283.7 196.65 L283.95 196.25 Q284.8 194.75 286.0 194.75 287.0 194.75 287.8 195.85 M277.95 191.45 Q278.85 191.45 279.45 192.05 280.1 192.7 280.1 193.6 280.1 194.5 279.45 195.1 L278.55 195.7 277.95 195.75 277.65 195.75 Q276.95 195.65 276.4 195.1 275.8 194.5 275.8 193.6 L276.0 192.75 276.4 192.05 Q277.05 191.45 277.95 191.45" fill="#cece00" fill-rule="evenodd" stroke="none"/>
    <path d="M268.1 192.65 L268.95 191.4 269.45 190.8 270.25 190.1 Q271.9 188.8 274.0 188.6 L275.05 188.5 275.4 188.5 277.25 188.8 Q279.1 189.3 280.55 190.75 L280.6 190.8 Q281.85 192.05 282.45 193.55 282.95 194.85 282.95 196.4 282.95 198.75 281.75 200.6 L280.6 201.95 279.5 202.9 278.7 203.4 277.35 204.0 276.2 204.25 275.05 204.3 274.25 204.3 272.45 203.9 271.2 203.3 270.4 202.8 269.45 201.95 268.8 201.25 268.8 201.2 Q267.5 199.55 267.25 197.55 L267.15 196.4 Q267.15 195.2 267.45 194.15 L267.5 194.1 268.1 192.65 M277.95 191.45 Q277.05 191.45 276.4 192.05 L276.0 192.75 275.8 193.6 Q275.8 194.5 276.4 195.1 276.95 195.65 277.65 195.75 L277.95 195.75 278.55 195.7 279.45 195.1 Q280.1 194.5 280.1 193.6 280.1 192.7 279.45 192.05 278.85 191.45 277.95 191.45" fill="#000000" fill-rule="evenodd" stroke="none"/>
    <path d="M267.85 161.0 L265.2 159.35 Q263.65 158.45 262.05 157.85 L261.0 157.5 Q255.25 155.6 248.1 156.4 L242.8 157.25 Q241.75 171.65 247.25 181.55 249.45 185.45 252.7 188.7 L254.2 190.1 254.3 190.2 254.5 190.4 M275.7 170.15 Q272.4 164.4 267.85 161.0 M278.6 172.65 L278.5 172.85 M297.1 162.2 L294.3 158.85 Q291.05 160.4 288.35 162.25 281.85 166.65 278.6 172.65 M301.55 171.7 Q300.5 166.9 297.1 162.2 M301.7 172.6 L301.55 171.7 M253.85 180.25 L255.4 182.25 255.8 182.8 255.9 182.9 256.85 184.0 M263.3 176.8 L261.3 176.85 Q258.3 177.1 254.85 178.3 L252.5 178.15 253.85 180.25 M247.25 181.55 L245.4 181.75 242.6 182.35 239.55 183.5 238.65 183.9 Q233.65 186.45 229.45 191.65 227.95 193.5 226.55 195.65 239.55 210.7 255.5 209.65 L259.55 209.15 M251.45 196.35 Q249.65 198.5 248.15 201.55 L246.6 202.95 248.8 203.45 251.85 203.85 256.05 203.95 M254.15 193.85 L253.1 194.7 251.45 196.35 M301.95 175.25 L300.7 175.35 Q295.2 175.75 290.4 177.95 M295.1 182.35 L294.5 182.6 M295.1 182.35 L296.6 181.85 297.25 181.65 296.6 183.7 296.65 186.7 M317.75 182.9 L318.25 178.0 Q309.5 174.95 301.95 175.25 L301.7 172.6 M298.0 196.8 L299.1 197.1 Q303.5 198.25 307.4 200.55 L308.9 199.45 311.0 197.5 313.1 195.0 313.65 194.2 Q316.7 189.5 317.75 182.9 M271.15 221.55 L272.95 222.55 Q275.15 223.55 278.05 224.15 L279.6 225.15 279.55 223.15 279.15 220.5 278.9 219.2 278.85 218.85 278.2 216.6 M268.55 219.25 L269.75 220.5 271.15 221.55 M284.7 223.95 Q284.6 221.4 284.05 218.9 L283.85 218.05 283.25 216.1 283.1 215.7 283.1 215.65 M273.9 242.2 L278.0 243.75 Q282.55 237.0 284.0 230.55 284.75 227.2 284.7 223.95 M319.25 222.75 L323.4 219.35 Q317.1 206.35 307.4 200.55 M302.3 204.95 L300.0 204.0 299.35 203.75 299.25 203.7 296.6 202.85 M302.3 204.95 L304.5 206.1 302.45 207.15 Q300.05 209.9 297.55 211.65 L295.4 212.95 293.45 213.75 291.35 214.3 M306.4 228.45 L307.5 228.25 Q313.4 227.0 319.25 222.75 M299.85 228.65 L302.95 228.75 306.4 228.45 M288.45 224.65 Q294.15 227.95 299.85 228.65 M264.7 235.55 L265.3 236.2 Q268.55 239.85 273.9 242.2 M261.95 231.0 L263.1 233.2 264.7 235.55 M260.1 221.4 Q260.1 226.5 261.75 230.55 L261.95 231.0" fill="none" stroke="#4e6f11" stroke-linecap="round" stroke-linejoin="round" stroke-width="2.5"/>
    <path d="M271.25 168.65 L269.05 168.45 Q268.0 171.45 267.85 174.2 L267.85 174.25 M271.25 168.65 Q273.8 169.05 275.7 170.15 277.4 171.1 278.6 172.65 M254.0 190.35 L254.45 190.85 M252.7 188.7 L254.0 190.35 M259.85 213.05 Q258.0 217.8 260.1 221.4 261.0 222.9 262.65 224.25 L264.1 225.3 Q266.05 223.6 267.25 221.75 L268.55 219.25 269.1 216.85 269.15 215.65 M259.85 213.05 L260.2 212.2 260.95 210.65 M299.1 197.1 L298.05 196.6 M284.7 223.95 Q286.45 224.65 288.35 224.65 L288.45 224.65 Q290.65 224.6 293.05 223.7 L295.05 222.8 Q294.45 219.65 293.25 217.2 L291.35 214.3 289.3 212.35" fill="none" stroke="#666600" stroke-linecap="round" stroke-linejoin="round" stroke-width="2.5"/>
    <path d="M267.95 174.2 L270.2 173.45 Q273.0 172.7 276.1 172.7 L278.5 172.85 Q280.9 173.05 283.15 173.8 285.9 174.7 288.35 176.4 289.4 177.1 290.4 177.95 L291.65 179.15 294.0 181.85 294.5 182.6 295.2 183.65 296.65 186.7 Q298.1 190.4 298.1 194.7 L298.05 196.6 298.0 196.8 Q297.8 199.4 297.0 201.75 L296.6 202.85 Q295.6 205.4 293.9 207.7 L293.5 208.2 292.05 209.85 291.65 210.25 289.45 212.2 289.3 212.35 288.35 213.0 287.4 213.65 Q285.35 214.9 283.1 215.65 L279.2 216.5 278.2 216.6 276.1 216.7 274.75 216.7 274.0 216.65 272.25 216.4 269.15 215.65 267.5 215.05 266.15 214.4 264.2 213.25 262.9 212.3 262.65 212.1 260.95 210.65 260.55 210.25 259.55 209.15 Q257.8 207.2 256.65 205.05 L256.05 203.95 Q254.8 201.2 254.35 198.2 L254.3 197.75 254.15 196.1 254.1 195.25 254.1 194.7 254.15 193.85 254.45 190.85 254.5 190.4 Q255.05 187.55 256.3 185.05 L256.85 184.0 Q258.3 181.4 260.55 179.15 L261.15 178.6 261.6 178.15 261.75 178.05 263.3 176.8 Q265.45 175.2 267.85 174.25 L267.95 174.2" fill="none" stroke="#ffff00" stroke-linecap="round" stroke-linejoin="round" stroke-width="2.25"/>
    <path d="M265.2 159.35 L257.05 171.65 M267.85 174.2 L267.95 174.2 M267.85 161.0 L267.25 162.0 261.45 172.2 M301.7 172.6 L289.2 171.9 M262.05 157.85 L253.65 170.8 M261.3 176.85 L261.75 178.05 M245.4 181.75 L245.65 182.75 248.5 193.2 M251.5 196.35 L251.45 196.35 M253.0 197.1 L251.5 196.35 M254.0 190.35 L254.3 190.2 M253.1 194.7 L254.1 195.25 M253.0 197.1 L254.3 197.75 M239.55 183.5 L242.5 197.45 M266.0 220.25 L259.85 213.05 M262.65 212.1 L262.85 212.35 263.8 213.5 264.2 213.25 M242.6 182.35 L245.25 195.75 M300.7 175.35 L290.0 174.65 M266.15 214.4 L265.95 214.6 M266.0 220.25 L267.25 221.75 M268.55 219.25 L267.15 217.55 263.8 213.5 M272.95 222.55 L273.2 221.05 274.0 216.65 M271.5 219.85 L271.15 221.55 M272.25 216.4 L271.55 219.7 M290.85 217.65 L284.05 218.9 M293.5 208.2 L296.15 210.45 297.55 211.65 M291.35 214.3 L288.65 214.75 283.1 215.7 M290.85 217.65 L293.25 217.2 M293.85 211.5 L295.4 212.95 M293.7 211.35 L292.05 209.85 M293.85 211.5 L293.8 211.5 M313.1 195.0 L303.55 184.4 M308.9 199.45 L308.15 198.7 300.45 191.1 M311.0 197.5 L302.0 187.25 M302.95 228.75 L303.85 214.0 M299.85 228.65 L299.8 227.45 299.75 215.75 M264.7 235.55 L275.85 229.85 M263.1 233.2 L273.8 227.9 M261.95 231.0 L262.75 230.55 270.9 225.75 M306.4 228.45 L307.2 213.05" fill="none" stroke="#666600" stroke-linecap="round" stroke-linejoin="round" stroke-width="2.25"/>
    <path d="M267.25 162.0 L262.75 173.0 M301.55 171.7 L285.6 170.7 M261.6 178.15 L261.3 176.85 M245.65 182.75 L249.9 192.9 M252.85 197.25 L251.5 196.35 M252.85 197.25 L254.35 198.2 M242.2 201.8 L238.65 183.9 M262.85 212.35 L262.9 212.3 M272.95 222.55 L273.35 221.15 274.75 216.7 M271.55 219.7 L271.5 219.85 M296.35 210.35 L293.9 207.7 M297.55 211.65 L296.35 210.35 M283.85 218.05 L290.35 216.9 M293.8 211.5 L293.7 211.35 M266.35 219.6 L260.2 212.2 M261.0 157.5 L250.05 173.9 M313.65 194.2 L301.6 180.5 M308.15 198.7 L299.4 192.0 M307.5 228.25 L308.75 208.55 M299.8 227.45 L298.25 215.7 M265.3 236.2 L279.6 229.1 M262.75 230.55 L270.35 224.65" fill="none" stroke="#718b1f" stroke-linecap="round" stroke-linejoin="round" stroke-width="2.25"/>
    <path d="M283.35 205.1 L281.35 206.75 279.1 208.0 275.65 208.95 273.55 209.05 Q270.35 209.05 267.65 207.8 L266.4 207.15 Q265.35 206.55 264.4 205.75 L263.45 204.85 261.5 202.45 260.55 200.7 Q259.95 199.45 259.65 198.1 259.3 196.5 259.3 194.8 L259.35 194.0 259.35 193.9 Q259.5 191.3 260.45 189.05 L261.1 187.8 Q261.9 186.35 263.15 185.05 L263.45 184.7 263.95 184.25 265.75 182.85 Q267.35 181.75 269.2 181.2 L271.35 180.7 273.55 180.55 275.8 180.7 Q277.8 181.0 279.6 181.85 L280.55 182.35 282.2 183.45 283.6 184.7 285.15 186.5 285.9 187.6 286.8 189.45 287.2 190.55 287.65 192.45 287.8 194.8 287.8 195.85" fill="none" stroke="#ffff99" stroke-linecap="round" stroke-linejoin="round" stroke-width="2.25"/>
    <path d="M287.8 195.85 L287.85 195.95 288.25 196.65 288.35 196.9 Q289.05 198.35 289.2 200.35 L289.2 201.35 289.2 202.05 289.15 202.55 288.9 204.25 288.35 205.8 288.25 206.0 288.1 206.3 Q287.25 207.95 286.0 207.95 284.65 207.95 283.7 206.0 L283.35 205.1 283.2 204.6 Q282.8 203.15 282.8 201.35 L282.85 200.5 Q282.95 198.3 283.7 196.65 L283.95 196.25 Q284.8 194.75 286.0 194.75 287.0 194.75 287.8 195.85 M277.95 191.45 Q278.85 191.45 279.45 192.05 280.1 192.7 280.1 193.6 280.1 194.5 279.45 195.1 L278.55 195.7 277.95 195.75 277.65 195.75 Q276.95 195.65 276.4 195.1 275.8 194.5 275.8 193.6 L276.0 192.75 276.4 192.05 Q277.05 191.45 277.95 191.45 Z" fill="none" stroke="#cece00" stroke-linecap="round" stroke-linejoin="round" stroke-width="2.25"/>
  </g>
</svg>
