<?xml version="1.0" encoding="UTF-8" standalone="no"?>
<svg xmlns:ffdec="https://www.free-decompiler.com/flash" xmlns:xlink="http://www.w3.org/1999/xlink" ffdec:objectType="shape" height="73.8px" width="113.2px" xmlns="http://www.w3.org/2000/svg">
  <g transform="matrix(1.0, 0.0, 0.0, 1.0, 31.5, 19.55)">
    <path d="M73.1 31.8 L74.9 32.9 76.25 35.1 Q77.1 37.1 77.3 39.0 77.5 40.95 77.0 42.8 L76.95 43.15 77.05 43.25 77.0 43.25 Q77.8 44.95 79.45 45.95 L81.7 47.1 80.9 47.1 80.35 47.45 79.5 48.0 79.2 48.5 79.2 48.6 79.2 48.9 Q78.2 48.45 77.0 48.1 L74.9 47.6 74.4 47.6 73.8 48.1 73.6 48.15 73.45 48.3 73.4 48.3 75.9 50.4 79.6 53.05 80.7 53.85 78.05 53.55 Q76.9 53.5 76.5 54.25 L67.9 49.45 Q62.8 44.85 65.95 35.55 69.05 29.5 73.1 31.8 M73.7 36.5 Q72.95 34.7 71.7 34.65 70.4 34.6 69.25 36.3 68.2 38.0 67.95 40.55 67.7 43.0 68.4 44.8 69.2 46.6 70.5 46.65 71.75 46.7 72.85 45.0 73.95 43.25 74.2 40.8 74.45 38.25 73.7 36.5" fill="#51663c" fill-rule="evenodd" stroke="none"/>
    <path d="M-22.5 28.1 L-24.8 28.35 Q-31.7 24.55 -31.5 10.55 -30.5 -2.9 -25.1 -12.1 -19.45 -20.85 -7.05 -19.35 -2.3 -17.8 -3.25 -15.05 28.3 -1.4 33.4 13.9 61.85 24.95 73.1 31.8 69.05 29.5 65.95 35.55 54.7 27.0 23.85 19.15 21.45 12.35 15.85 10.35 -15.9 -1.6 -26.15 5.55 -27.55 1.1 -26.15 -4.05 -29.95 3.35 -30.0 13.25 -30.0 22.75 -22.5 28.1 M-12.15 -15.7 Q-8.25 -17.4 -3.25 -15.05 -8.25 -17.4 -12.15 -15.7 M33.4 13.9 Q31.0 11.35 26.55 14.25 31.0 11.35 33.4 13.9" fill="url(#gradient0)" fill-rule="evenodd" stroke="none"/>
    <path d="M67.9 49.45 Q54.75 40.7 25.3 28.85 24.15 30.65 18.2 30.85 7.65 31.15 -17.95 26.55 L-20.75 26.05 Q-21.5 27.55 -22.5 28.1 -30.0 22.75 -30.0 13.25 -29.95 3.35 -26.15 -4.05 -27.55 1.1 -26.15 5.55 -15.9 -1.6 15.85 10.35 21.45 12.35 23.85 19.15 54.7 27.0 65.95 35.55 62.8 44.85 67.9 49.45 M-26.85 20.3 Q-23.9 26.4 -20.75 26.05 -23.9 26.4 -26.85 20.3 M25.3 28.85 Q24.0 29.2 23.3 27.55 22.9 26.65 22.75 25.2 22.9 26.65 23.3 27.55 24.0 29.2 25.3 28.85" fill="url(#gradient1)" fill-rule="evenodd" stroke="none"/>
    <path d="M73.7 36.5 Q74.45 38.25 74.2 40.8 73.95 43.25 72.85 45.0 71.75 46.7 70.5 46.65 69.2 46.6 68.4 44.8 67.7 43.0 67.95 40.55 68.2 38.0 69.25 36.3 70.4 34.6 71.7 34.65 72.95 34.7 73.7 36.5" fill="#799959" fill-rule="evenodd" stroke="none"/>
    <path d="M-22.5 28.1 L-24.8 28.35 Q-31.7 24.55 -31.5 10.55 -30.5 -2.9 -25.1 -12.1 -19.45 -20.85 -7.05 -19.35 -2.3 -17.8 -3.25 -15.05 28.3 -1.4 33.4 13.9 61.85 24.95 73.1 31.8 M67.9 49.45 Q54.75 40.7 25.3 28.85 24.15 30.65 18.2 30.85 7.65 31.15 -17.95 26.55 L-20.75 26.05 Q-21.5 27.55 -22.5 28.1 M-3.25 -15.05 Q-8.25 -17.4 -12.15 -15.7 M-20.75 26.05 Q-23.9 26.4 -26.85 20.3 M22.75 25.2 Q22.9 26.65 23.3 27.55 24.0 29.2 25.3 28.85 M26.55 14.25 Q31.0 11.35 33.4 13.9" ffdec:has-small-stroke="true" ffdec:original-stroke-width="0.05" fill="none" stroke="#500f03" stroke-linecap="round" stroke-linejoin="round" stroke-opacity="0.3019608" stroke-width="1.0"/>
    <path d="M76.5 54.25 L67.9 49.45" ffdec:has-small-stroke="true" ffdec:original-stroke-width="0.05" fill="none" stroke="#500f03" stroke-linecap="round" stroke-linejoin="round" stroke-opacity="0.3019608" stroke-width="1.0"/>
  </g>
  <defs>
    <linearGradient gradientTransform="matrix(-0.0358, -0.0296, 0.0244, -0.0295, 28.15, 31.8)" gradientUnits="userSpaceOnUse" id="gradient0" spreadMethod="pad" x1="-819.2" x2="819.2">
      <stop offset="0.0" stop-color="#b3c9a2"/>
      <stop offset="1.0" stop-color="#fffdd6"/>
    </linearGradient>
    <linearGradient gradientTransform="matrix(-0.0467, -0.0194, 0.0073, -0.0175, 23.75, 30.45)" gradientUnits="userSpaceOnUse" id="gradient1" spreadMethod="pad" x1="-819.2" x2="819.2">
      <stop offset="0.0" stop-color="#95b178"/>
      <stop offset="1.0" stop-color="#fef4a3"/>
    </linearGradient>
  </defs>
</svg>
