<?xml version="1.0" encoding="UTF-8" standalone="no"?>
<svg xmlns:ffdec="https://www.free-decompiler.com/flash" xmlns:xlink="http://www.w3.org/1999/xlink" ffdec:objectType="shape" height="47.0px" width="47.0px" xmlns="http://www.w3.org/2000/svg">
  <g transform="matrix(1.0, 0.0, 0.0, 1.0, 0.5, 0.5)">
    <path d="M36.95 4.65 L39.25 6.7 Q46.0 13.45 46.0 23.0 46.0 32.55 39.25 39.25 32.55 46.0 23.0 46.0 15.75 46.0 10.1 42.1 L6.7 39.25 Q0.0 32.55 0.0 23.0 0.0 13.45 6.7 6.7 13.45 0.0 23.0 0.0 30.95 0.0 36.95 4.65" fill="url(#gradient0)" fill-rule="evenodd" stroke="none"/>
    <path d="M36.95 4.65 L39.25 6.7 Q46.0 13.45 46.0 23.0 46.0 32.55 39.25 39.25 32.55 46.0 23.0 46.0 15.75 46.0 10.1 42.1 L6.7 39.25 Q0.0 32.55 0.0 23.0 0.0 13.45 6.7 6.7 13.45 0.0 23.0 0.0 30.95 0.0 36.95 4.65 Z" fill="none" stroke="#333366" stroke-linecap="round" stroke-linejoin="round" stroke-opacity="0.27058825" stroke-width="1.0"/>
    <path d="M37.0 8.55 Q47.7 22.2 39.55 33.7 31.3 45.2 13.2 41.25 36.7 34.0 37.0 8.55" fill="#000000" fill-opacity="0.21960784" fill-rule="evenodd" stroke="none"/>
  </g>
  <defs>
    <linearGradient gradientTransform="matrix(0.0173, -0.0023, 0.0037, 0.0278, 32.2, 21.75)" gradientUnits="userSpaceOnUse" id="gradient0" spreadMethod="pad" x1="-819.2" x2="819.2">
      <stop offset="0.06666666666666667" stop-color="#65d8f3" stop-opacity="0.7019608"/>
      <stop offset="0.5137254901960784" stop-color="#87d6f2" stop-opacity="0.7019608"/>
      <stop offset="1.0" stop-color="#d5ebf5" stop-opacity="0.6509804"/>
    </linearGradient>
  </defs>
</svg>
