<?xml version="1.0" encoding="UTF-8" standalone="no"?>
<svg xmlns:ffdec="https://www.free-decompiler.com/flash" xmlns:xlink="http://www.w3.org/1999/xlink" ffdec:objectType="shape" height="13.0px" width="22.05px" xmlns="http://www.w3.org/2000/svg">
  <g transform="matrix(1.0, 0.0, 0.0, 1.0, 10.85, 11.2)">
    <path d="M-3.85 0.5 L-6.55 0.45 Q-8.05 0.2 -10.85 -2.9 L-6.85 -4.55 Q-6.3 -1.8 -3.85 0.5 M7.85 -0.35 L5.2 0.15 Q7.8 -2.75 6.5 -5.05 L11.2 -4.05 Q9.35 -0.95 7.85 -0.35 M-3.35 -6.4 Q-3.7 -8.15 -0.45 -10.4 L3.35 -7.15 Q-0.1 -7.35 -3.15 -5.85 L-3.35 -6.4" fill="#b3946d" fill-rule="evenodd" stroke="none"/>
    <path d="M1.3 -4.5 Q-5.5 -0.65 -6.45 -3.0 -5.7 -7.65 -3.6 -10.8 -2.1 -7.0 1.3 -4.5" fill="#6875a1" fill-rule="evenodd" stroke="none"/>
    <path d="M-6.45 -3.0 Q-5.7 -7.65 -3.6 -10.8 -2.1 -7.0 1.3 -4.5" ffdec:has-small-stroke="true" ffdec:original-stroke-width="0.05" fill="none" stroke="#51597d" stroke-linecap="round" stroke-linejoin="round" stroke-width="1.0"/>
    <path d="M-3.35 0.85 Q-5.7 0.4 -6.7 -1.55 -7.45 -5.8 -6.0 -8.15 -5.65 -2.75 -3.35 0.85" fill="url(#gradient0)" fill-rule="evenodd" stroke="none"/>
    <path d="M-6.0 -8.15 Q-4.4 -3.3 -1.0 0.95 L-3.35 0.85 Q-5.65 -2.75 -6.0 -8.15" fill="#6875a1" fill-rule="evenodd" stroke="none"/>
    <path d="M2.55 -11.2 L2.6 -11.2 2.55 -11.2" fill="#fff1d1" fill-rule="evenodd" stroke="none"/>
    <path d="M4.6 -2.4 Q5.45 -6.1 2.55 -11.2 L2.6 -11.2 Q5.75 -7.65 6.05 -3.25 5.45 -2.25 4.6 -2.4" fill="url(#gradient1)" fill-rule="evenodd" stroke="none"/>
    <path d="M4.6 -2.4 Q1.75 -2.05 -2.35 -3.75 1.65 -6.6 2.55 -11.2 5.45 -6.1 4.6 -2.4" fill="#6875a1" fill-rule="evenodd" stroke="none"/>
    <path d="M3.3 0.05 Q5.3 -2.45 5.95 -8.8 7.55 -6.15 7.05 -1.85 6.05 0.2 3.3 0.05" fill="url(#gradient2)" fill-rule="evenodd" stroke="none"/>
    <path d="M3.3 0.05 L1.4 -0.25 Q4.6 -4.05 5.95 -8.8 5.3 -2.45 3.3 0.05" fill="#6875a1" fill-rule="evenodd" stroke="none"/>
    <path d="M4.1 -3.1 Q3.2 -1.55 1.4 -1.1 -0.4 -0.7 -2.05 -1.6 -3.65 -2.5 -4.2 -4.2 -4.7 -5.95 -3.8 -7.5 -2.85 -9.05 -1.05 -9.45 0.75 -9.9 2.35 -9.0 4.0 -8.05 4.5 -6.3 5.05 -4.6 4.1 -3.1" fill="#66cc00" fill-rule="evenodd" stroke="none"/>
    <path d="M2.15 -7.6 Q2.25 -7.15 1.85 -7.05 L0.7 -7.25 -0.25 -7.95 -0.8 -8.85 -0.35 -9.3 0.7 -9.2 1.8 -8.45 Q2.25 -8.0 2.15 -7.6" fill="#fff8df" fill-rule="evenodd" stroke="none"/>
    <path d="M4.4 0.25 Q2.2 1.35 -0.35 1.35 L-3.6 0.9 Q-3.0 -2.45 0.0 -6.05 3.1 -4.4 4.4 0.25" fill="url(#gradient3)" fill-rule="evenodd" stroke="none"/>
    <path d="M-6.45 0.0 L-5.35 -1.55 Q-3.75 0.1 -0.85 1.75 -2.1 2.1 -6.45 0.0 M5.5 -1.75 L6.75 -0.2 Q2.6 1.9 1.35 1.55 4.1 -0.1 5.5 -1.75" fill="#a18562" fill-rule="evenodd" stroke="none"/>
  </g>
  <defs>
    <linearGradient gradientTransform="matrix(-9.0E-4, -0.0028, 0.0016, -5.0E-4, -5.75, -2.9)" gradientUnits="userSpaceOnUse" id="gradient0" spreadMethod="pad" x1="-819.2" x2="819.2">
      <stop offset="0.06666666666666667" stop-color="#90b1f5"/>
      <stop offset="1.0" stop-color="#dce9fc"/>
    </linearGradient>
    <linearGradient gradientTransform="matrix(-5.0E-4, -0.0024, 0.0011, -2.0E-4, 4.8, -5.25)" gradientUnits="userSpaceOnUse" id="gradient1" spreadMethod="pad" x1="-819.2" x2="819.2">
      <stop offset="0.06666666666666667" stop-color="#90b1f5"/>
      <stop offset="1.0" stop-color="#dce9fc"/>
    </linearGradient>
    <linearGradient gradientTransform="matrix(1.0E-4, -0.003, 0.0023, 1.0E-4, 5.3, -4.15)" gradientUnits="userSpaceOnUse" id="gradient2" spreadMethod="pad" x1="-819.2" x2="819.2">
      <stop offset="0.06666666666666667" stop-color="#90b1f5"/>
      <stop offset="1.0" stop-color="#dce9fc"/>
    </linearGradient>
    <linearGradient gradientTransform="matrix(-2.0E-4, -0.0031, 0.0049, -3.0E-4, 0.25, -1.7)" gradientUnits="userSpaceOnUse" id="gradient3" spreadMethod="pad" x1="-819.2" x2="819.2">
      <stop offset="0.06666666666666667" stop-color="#90b1f5"/>
      <stop offset="1.0" stop-color="#dce9fc"/>
    </linearGradient>
  </defs>
</svg>
