<?xml version="1.0" encoding="UTF-8" standalone="no"?>
<svg xmlns:ffdec="https://www.free-decompiler.com/flash" xmlns:xlink="http://www.w3.org/1999/xlink" ffdec:objectType="shape" height="142.05px" width="133.75px" xmlns="http://www.w3.org/2000/svg">
  <g transform="matrix(1.0, 0.0, 0.0, 1.0, -208.1, -124.55)">
    <path d="M320.85 181.45 Q300.65 190.1 286.3 213.05 L285.2 214.75 Q251.35 207.75 238.15 180.45 251.6 151.7 275.45 137.35 L301.8 155.8 Q316.85 167.85 320.85 181.45" fill="#9f59aa" fill-rule="evenodd" stroke="none"/>
    <path d="M224.1 228.4 Q228.5 200.7 238.15 180.45 251.35 207.75 285.2 214.75 271.95 236.1 272.0 256.9 252.35 238.4 224.1 228.4" fill="#634277" fill-rule="evenodd" stroke="none"/>
    <path d="M338.3 197.75 L339.6 197.0 Q343.7 207.0 340.25 215.7 329.75 235.45 317.1 251.25 307.05 262.8 294.6 266.3 L287.75 266.05 287.6 266.0 287.6 265.9 287.6 266.0 287.55 266.0 287.55 266.3 287.0 266.35 286.8 266.35 Q273.35 266.5 272.0 256.9 271.95 236.1 285.2 214.75 283.45 223.05 303.0 227.8 301.8 229.35 300.75 231.0 L295.05 240.65 290.3 252.4 Q288.35 258.55 287.7 264.9 L287.6 265.9 287.95 265.8 288.1 265.75 Q295.7 264.0 304.3 257.8 311.1 252.85 317.85 244.85 L321.95 239.65 322.25 239.3 325.25 235.0 332.75 222.4 334.35 219.0 335.4 216.55 Q340.35 204.55 338.4 197.75 L338.3 197.75 M219.65 166.75 Q222.4 188.2 238.15 180.45 228.5 200.7 224.1 228.4 209.8 232.35 208.1 218.85 208.85 188.75 219.65 166.75 M287.6 265.9 L287.55 266.0 287.6 265.9" fill="#7c5f8f" fill-rule="evenodd" stroke="none"/>
    <path d="M339.6 197.0 L338.3 197.75 338.1 197.7 Q325.4 200.9 308.2 221.3 305.55 224.3 303.25 227.4 L303.0 227.8 Q283.45 223.05 285.2 214.75 L286.3 213.05 Q300.65 190.1 320.85 181.45 326.9 182.05 335.15 189.75 339.45 193.5 340.15 195.3 340.5 196.25 339.6 197.0 M238.15 180.45 Q222.4 188.2 219.65 166.75 233.0 139.2 262.3 124.65 276.35 123.55 275.45 137.35 251.6 151.7 238.15 180.45" fill="#c5abcd" fill-rule="evenodd" stroke="none"/>
    <path d="M303.0 227.8 L303.25 227.4 Q305.55 224.3 308.2 221.3 325.4 200.9 338.1 197.7 L338.3 197.75 338.4 197.75 Q340.35 204.55 335.4 216.55 L334.35 219.0 332.75 222.4 325.25 235.0 322.25 239.3 321.95 239.65 317.85 244.85 Q311.1 252.85 304.3 257.8 295.7 264.0 288.1 265.75 L287.95 265.8 287.6 265.9 287.7 264.9 Q288.35 258.55 290.3 252.4 L295.05 240.65 300.75 231.0 Q301.8 229.35 303.0 227.8" fill="#533764" fill-rule="evenodd" stroke="none"/>
    <path d="M338.3 197.75 L339.6 197.0 Q340.5 196.25 340.15 195.3 339.45 193.5 335.15 189.75 326.9 182.05 320.85 181.45 316.85 167.85 301.8 155.8 L275.45 137.35 Q276.35 123.55 262.3 124.65 233.0 139.2 219.65 166.75 208.85 188.75 208.1 218.85 209.8 232.35 224.1 228.4 252.35 238.4 272.0 256.9 273.35 266.5 286.8 266.35 M287.6 265.9 L287.6 266.0 M287.0 266.35 L287.55 266.3 287.55 266.0 287.6 265.9 287.7 264.9 Q288.35 258.55 290.3 252.4 L295.05 240.65" ffdec:has-small-stroke="true" ffdec:original-stroke-width="0.05" fill="none" stroke="#512e56" stroke-linecap="round" stroke-linejoin="round" stroke-width="1.0"/>
    <path d="M238.15 180.45 Q251.6 151.7 275.45 137.35 M224.1 228.4 Q228.5 200.7 238.15 180.45" ffdec:has-small-stroke="true" ffdec:original-stroke-width="0.05" fill="none" stroke="#8b5094" stroke-linecap="round" stroke-linejoin="round" stroke-width="1.0"/>
    <path d="M320.85 181.45 Q300.65 190.1 286.3 213.05 L285.2 214.75" ffdec:has-small-stroke="true" ffdec:original-stroke-width="0.05" fill="none" stroke="#7a5188" stroke-linecap="round" stroke-linejoin="round" stroke-width="1.0"/>
    <path d="M285.2 214.75 Q271.95 236.1 272.0 256.9" ffdec:has-small-stroke="true" ffdec:original-stroke-width="0.05" fill="none" stroke="#60406a" stroke-linecap="round" stroke-linejoin="round" stroke-width="1.0"/>
  </g>
</svg>
