<?xml version="1.0" encoding="UTF-8" standalone="no"?>
<svg xmlns:ffdec="https://www.free-decompiler.com/flash" xmlns:xlink="http://www.w3.org/1999/xlink" ffdec:objectType="shape" height="58.05px" width="85.15px" xmlns="http://www.w3.org/2000/svg">
  <g transform="matrix(1.0, 0.0, 0.0, 1.0, 42.55, 31.25)">
    <path d="M-42.5 -21.8 L-42.45 -21.75 -42.55 -21.75 -42.5 -21.8" fill="#c7a781" fill-rule="evenodd" stroke="none"/>
    <path d="M42.55 -26.6 L42.5 -26.65 42.6 -26.7 42.55 -26.6" fill="#7d5c3b" fill-rule="evenodd" stroke="none"/>
    <path d="M42.5 -26.65 L40.8 -26.4 38.4 -27.4 23.15 -29.15 22.9 -29.15 Q2.5 -31.55 -17.9 -28.75 L-32.85 -25.55 -38.05 -22.2 -28.05 -17.8 -20.4 -14.45 -9.3 -14.25 4.1 -14.45 6.4 -15.2 10.25 -16.35 15.05 -18.25 Q19.95 -19.75 21.55 -16.15 L13.65 -4.05 8.1 -3.45 Q-1.15 -2.1 -8.9 1.85 -11.55 3.15 -14.05 4.8 -17.45 7.0 -20.5 9.75 -24.2 3.85 -25.6 -1.3 L-31.7 -15.3 -41.95 -19.55 -42.45 -21.75 -42.5 -21.8 -40.0 -24.0 -33.0 -26.4 -18.1 -29.65 Q2.35 -32.55 22.85 -30.2 L38.55 -28.15 42.5 -26.65 M-15.9 2.15 L-14.05 4.8 -15.9 2.15 M10.4 -9.65 L8.1 -3.45 10.4 -9.65 M-10.2 -0.5 L-8.9 1.85 -10.2 -0.5 M14.25 -11.6 Q-5.65 -6.9 -25.05 -12.9 -5.65 -6.9 14.25 -11.6" fill="#7d5e2d" fill-rule="evenodd" stroke="none"/>
    <path d="M-38.05 -22.2 L-32.85 -25.55 -17.9 -28.75 Q2.5 -31.55 22.9 -29.15 L23.15 -29.15 38.4 -27.4 40.8 -26.4 42.5 -26.65 42.55 -26.6 37.1 -20.2 24.35 -13.45 Q19.9 -9.9 16.45 -4.9 L13.65 -4.05 21.55 -16.15 Q19.95 -19.75 15.05 -18.25 L22.45 -20.85 19.35 -21.35 Q16.65 -21.3 12.75 -19.65 10.65 -18.65 10.25 -16.35 L6.4 -15.2 4.1 -14.45 -9.3 -14.25 Q-9.7 -17.2 -13.4 -18.85 -20.95 -20.8 -28.05 -17.8 L-38.05 -22.2 M40.8 -26.4 L36.35 -25.7 23.4 -21.15 36.35 -25.7 40.8 -26.4" fill="#5c4521" fill-rule="evenodd" stroke="none"/>
    <path d="M-20.5 9.75 Q-17.45 7.0 -14.05 4.8 L-12.1 7.5 -14.05 4.8 Q-11.55 3.15 -8.9 1.85 -1.15 -2.1 8.1 -3.45 L7.55 -2.05 8.1 -3.45 13.65 -4.05 3.95 10.65 Q0.7 15.3 -3.65 17.8 -9.0 20.5 -15.1 18.05 L-16.7 15.95 -19.35 11.5 -20.5 9.75 M-8.1 3.3 L-8.9 1.85 -8.1 3.3" fill="#a05332" fill-rule="evenodd" stroke="none"/>
    <path d="M13.65 -4.05 L16.45 -4.9 Q13.4 -0.5 11.1 5.05 L7.6 13.8 3.0 23.35 2.1 26.5 -7.2 26.8 Q-8.9 26.65 -10.95 24.1 L-13.3 21.1 -15.1 18.05 Q-9.0 20.5 -3.65 17.8 0.7 15.3 3.95 10.65 L13.65 -4.05" fill="#8b482c" fill-rule="evenodd" stroke="none"/>
    <path d="M-40.0 -24.0 L-42.5 -21.8 -42.55 -21.75 -42.45 -21.75 -41.95 -19.55 M7.6 13.8 L3.0 23.35 2.1 26.5 -7.2 26.8 Q-8.9 26.65 -10.95 24.1 L-13.3 21.1 -15.1 18.05" ffdec:has-small-stroke="true" ffdec:original-stroke-width="0.05" fill="none" stroke="#000000" stroke-linecap="round" stroke-linejoin="round" stroke-opacity="0.3019608" stroke-width="1.0"/>
    <path d="M-41.95 -19.55 L-31.7 -15.3 -25.6 -1.3 Q-24.2 3.85 -20.5 9.75 L-19.35 11.5 -16.7 15.95 -15.1 18.05 M10.25 -16.35 L15.05 -18.25 22.45 -20.85 M6.4 -15.2 L4.1 -14.45 -9.3 -14.25 -20.4 -14.45 -28.05 -17.8 -38.05 -22.2 M16.45 -4.9 Q19.9 -9.9 24.35 -13.45 L37.1 -20.2 42.55 -26.6 42.6 -26.7 42.5 -26.65 M23.4 -21.15 L36.35 -25.7 40.8 -26.4 M16.45 -4.9 Q13.4 -0.5 11.1 5.05 L7.6 13.8" ffdec:has-small-stroke="true" ffdec:original-stroke-width="0.05" fill="none" stroke="#000000" stroke-linecap="round" stroke-linejoin="round" stroke-opacity="0.3019608" stroke-width="1.0"/>
    <path d="M-20.5 9.75 Q-17.45 7.0 -14.05 4.8 L-15.9 2.15 M7.55 -2.05 L8.1 -3.45 Q-1.15 -2.1 -8.9 1.85 L-8.1 3.3 M13.65 -4.05 L16.45 -4.9 M8.1 -3.45 L13.65 -4.05 M8.1 -3.45 L10.4 -9.65 M-14.05 4.8 L-12.1 7.5 M-14.05 4.8 Q-11.55 3.15 -8.9 1.85 L-10.2 -0.5 M-25.05 -12.9 Q-5.65 -6.9 14.25 -11.6" ffdec:has-small-stroke="true" ffdec:original-stroke-width="0.5" fill="none" stroke="#232312" stroke-linecap="round" stroke-linejoin="round" stroke-opacity="0.5019608" stroke-width="1.0"/>
  </g>
</svg>
