<?xml version="1.0" encoding="UTF-8" standalone="no"?>
<svg xmlns:ffdec="https://www.free-decompiler.com/flash" xmlns:xlink="http://www.w3.org/1999/xlink" ffdec:objectType="shape" height="76.9px" width="101.1px" xmlns="http://www.w3.org/2000/svg">
  <g transform="matrix(1.0, 0.0, 0.0, 1.0, 50.55, 38.45)">
    <path d="M8.2 -28.7 Q10.0 -32.4 11.25 -36.95 L14.75 -36.95 49.05 -13.95 Q46.65 -8.85 44.1 -4.75 L43.5 -3.8 8.2 -28.7 M31.7 8.25 Q29.35 9.65 26.95 10.4 L24.05 11.1 Q20.85 11.65 17.45 11.15 L-18.6 -13.05 -20.2 -13.65 -20.65 -13.95 -9.45 -14.3 -7.75 -14.7 -4.4 -13.65 -3.65 -14.15 -5.1 -15.6 -3.75 -16.2 -2.5 -16.85 31.7 8.25 M-10.6 23.85 L-11.4 26.15 -12.95 32.0 -12.95 32.05 -13.75 36.95 -49.05 13.3 -49.05 6.8 -48.75 6.65 -47.65 5.4 -48.55 4.85 -48.25 4.05 -45.35 2.85 -45.2 2.4 -45.7 1.65 -46.65 1.3 -46.7 0.65 -45.8 -1.15 -10.6 23.85" fill="#996633" fill-rule="evenodd" stroke="none"/>
    <path d="M43.5 -3.8 Q41.0 -0.05 38.35 2.75 L37.8 3.35 Q34.85 6.35 31.7 8.25 L-2.5 -16.85 Q-0.25 -18.15 1.7 -19.9 L4.2 -22.45 7.7 -21.0 8.45 -21.6 5.65 -24.4 8.2 -28.7 43.5 -3.8" fill="#926030" fill-rule="evenodd" stroke="none"/>
    <path d="M17.45 11.15 L17.35 11.55 Q2.65 6.6 -5.35 15.05 L-5.8 15.55 Q-8.7 18.8 -10.6 23.85 L-45.8 -1.15 -44.85 -2.85 -41.95 -4.05 -42.3 -5.1 -43.35 -5.25 -42.25 -6.75 Q-33.4 -18.3 -20.2 -13.65 L-18.6 -13.05 17.45 11.15" fill="url(#gradient0)" fill-rule="evenodd" stroke="none"/>
    <path d="M49.05 -13.95 Q46.65 -8.85 44.1 -4.75 L43.5 -3.8 Q41.0 -0.05 38.35 2.75 L37.8 3.35 Q34.85 6.35 31.7 8.25 29.35 9.65 26.95 10.4 L24.05 11.1 Q20.85 11.65 17.45 11.15 M17.35 11.55 Q2.65 6.6 -5.35 15.05 L-5.8 15.55 Q-8.7 18.8 -10.6 23.85 L-11.4 26.15 -12.95 32.0 -12.95 32.05 -13.75 36.95 -49.05 13.3" fill="none" stroke="#613c10" stroke-linecap="round" stroke-linejoin="round" stroke-width="3.0"/>
    <path d="M14.75 -36.95 L49.05 -13.95" fill="none" stroke="#996600" stroke-linecap="round" stroke-linejoin="round" stroke-width="3.0"/>
  </g>
  <defs>
    <linearGradient gradientTransform="matrix(0.011, -0.0152, 0.0292, 0.0211, -6.7, -5.65)" gradientUnits="userSpaceOnUse" id="gradient0" spreadMethod="pad" x1="-819.2" x2="819.2">
      <stop offset="0.0" stop-color="#996633"/>
      <stop offset="0.30196078431372547" stop-color="#ffcc66"/>
      <stop offset="0.9294117647058824" stop-color="#996633"/>
    </linearGradient>
  </defs>
</svg>
