<?xml version="1.0" encoding="UTF-8" standalone="no"?>
<svg xmlns:ffdec="https://www.free-decompiler.com/flash" xmlns:xlink="http://www.w3.org/1999/xlink" ffdec:objectType="shape" height="68.05px" width="66.15px" xmlns="http://www.w3.org/2000/svg">
  <g transform="matrix(1.0, 0.0, 0.0, 1.0, -70.9, -55.5)">
    <path d="M132.1 60.1 L132.15 60.15 132.15 60.2 132.1 60.1" fill="#483a1e" fill-rule="evenodd" stroke="none"/>
    <path d="M102.4 117.55 L102.85 118.9 102.35 118.0 102.4 117.55 M102.9 119.05 L104.05 122.55 92.7 113.85 101.15 118.85 101.5 119.6 102.45 119.85 102.9 119.05 M97.65 70.15 L94.2 66.4 97.15 67.65 96.8 68.8 97.85 68.95 97.65 70.15" fill="#6b532c" fill-rule="evenodd" stroke="none"/>
    <path d="M116.4 97.0 L115.15 98.4 115.5 97.6 116.25 96.5 116.4 97.0 M84.85 107.2 L71.9 93.25 77.95 94.75 77.4 95.05 74.65 94.3 74.4 94.8 75.7 95.85 75.65 96.8 85.15 105.9 84.85 107.2 M94.05 81.35 L94.9 80.45 Q94.45 81.2 94.4 82.0 L94.2 81.7 94.05 81.35 M95.95 79.35 L96.35 78.95 Q96.2 79.3 96.2 79.7 L95.95 79.35" fill="#a5bf9f" fill-rule="evenodd" stroke="none"/>
    <path d="M118.1 94.85 L117.5 98.0 116.7 97.85 116.4 97.0 116.25 96.5 115.5 97.6 116.05 95.55 117.3 93.3 118.1 94.85 M88.9 87.1 L89.35 86.3 89.6 86.2 89.65 86.25 88.9 87.1 M90.65 85.1 Q90.9 84.35 91.5 83.55 L91.75 83.45 91.8 83.5 Q91.55 84.25 91.65 85.05 L91.55 85.1 91.5 85.15 90.55 86.0 90.65 85.1 M94.2 81.7 L94.4 82.0 94.4 82.25 94.2 81.7" fill="#5e7a54" fill-rule="evenodd" stroke="none"/>
    <path d="M115.15 98.4 L114.9 98.7 114.1 98.45 114.45 97.95 Q115.0 98.5 114.75 98.05 L114.6 97.75 116.05 95.55 115.5 97.6 115.15 98.4 M113.3 100.45 L113.05 101.2 112.4 101.5 112.05 101.25 113.55 99.2 113.3 100.45 M91.8 83.5 Q92.0 82.8 92.5 82.15 L92.65 82.1 93.35 80.8 93.6 80.7 94.05 81.35 94.2 81.7 94.4 82.25 94.4 82.0 Q94.45 81.2 94.9 80.45 L95.25 79.85 95.45 79.8 Q94.85 80.75 94.85 81.8 95.05 80.85 95.7 80.0 L96.0 79.9 96.45 80.5 95.0 81.9 94.3 82.55 94.25 82.6 91.7 85.05 91.65 85.05 Q91.55 84.25 91.8 83.5 M96.35 78.95 Q96.55 78.2 97.05 77.5 L97.25 77.4 97.5 77.75 98.0 78.75 96.55 80.35 96.2 79.7 Q96.2 79.3 96.35 78.95 M120.0 67.25 L120.05 67.2 120.05 67.3 120.0 67.25 M99.8 76.7 L100.0 77.0 98.2 78.55 99.35 76.8 99.8 76.7" fill="#3a4b34" fill-rule="evenodd" stroke="none"/>
    <path d="M95.45 79.8 L95.7 79.4 95.95 79.35 96.2 79.7 96.55 80.35 96.45 80.5 96.0 79.9 95.7 80.0 Q95.05 80.85 94.85 81.8 94.85 80.75 95.45 79.8 M91.7 85.05 L91.5 85.15 91.55 85.1 91.65 85.05 91.7 85.05 M114.6 97.75 L114.75 98.05 Q115.0 98.5 114.45 97.95 L114.6 97.75" fill="#749a3f" fill-rule="evenodd" stroke="none"/>
    <path d="M102.1 69.75 L107.4 71.95 111.75 69.5 111.7 68.75 111.9 67.55 Q112.1 66.9 112.45 66.35 L112.95 65.95 Q114.1 65.75 115.0 66.3 L116.75 67.6 119.85 65.45 121.0 64.25 123.2 62.3 123.75 61.95 124.45 61.35 128.45 61.2 126.0 63.15 126.55 63.7 131.95 60.45 130.9 59.4 132.1 60.1 132.15 60.2 136.05 65.9 134.5 67.65 131.7 67.25 130.9 68.45 128.1 71.75 Q125.25 72.5 127.8 72.7 L125.9 75.95 126.8 76.5 127.35 77.2 127.85 77.95 128.1 78.8 127.8 79.4 127.6 80.1 127.1 80.35 124.75 81.25 124.35 81.0 122.3 85.55 127.7 94.7 127.55 95.1 128.7 97.85 123.8 94.3 125.3 94.25 125.8 93.4 117.9 82.6 117.05 83.3 122.75 91.35 114.7 86.1 114.3 86.6 121.05 93.15 Q119.85 93.15 119.0 93.65 118.1 94.15 118.1 94.85 L117.3 93.3 116.05 95.55 114.6 97.75 114.45 97.95 114.1 98.45 114.9 98.7 113.3 100.45 113.55 99.2 112.05 101.25 112.4 101.5 107.9 107.3 103.7 111.25 101.15 113.2 100.4 114.35 100.0 113.45 98.8 113.45 97.65 103.35 95.75 112.4 94.05 112.95 94.55 107.7 89.45 109.65 94.3 104.55 91.85 106.7 89.35 108.6 87.9 109.55 87.2 108.35 85.05 108.2 89.6 106.65 85.6 104.05 84.55 103.6 85.25 103.45 85.3 103.45 87.5 103.65 89.85 103.75 79.75 98.05 Q82.45 99.1 85.25 99.6 89.4 100.3 93.7 99.75 L97.5 99.65 91.7 98.15 91.9 98.15 92.25 97.85 92.45 97.25 92.4 97.1 Q92.25 96.35 91.45 96.25 L91.2 96.3 90.95 96.4 Q90.1 97.5 90.75 97.9 L81.65 95.55 Q83.25 93.1 85.25 90.85 L87.35 88.65 88.9 87.1 89.65 86.25 90.65 85.1 90.55 86.0 91.5 85.15 91.7 85.05 94.25 82.6 94.3 82.55 94.25 82.6 Q93.1 84.5 94.25 85.55 L94.15 85.55 Q93.35 86.65 93.9 87.1 L93.6 87.45 Q91.9 90.25 95.1 91.1 96.15 91.35 96.75 90.5 98.85 87.65 95.65 86.55 L95.65 86.4 95.6 86.35 95.6 86.3 95.6 86.2 95.75 86.25 Q96.8 86.5 97.4 85.65 99.6 82.65 95.95 81.6 95.4 81.6 95.0 81.9 L96.45 80.5 96.55 80.35 98.0 78.75 97.5 77.75 99.25 76.65 Q99.9 75.9 99.9 74.8 L99.75 73.55 99.5 72.8 100.95 75.0 100.95 74.95 101.2 74.85 101.95 76.25 103.25 76.25 101.25 71.85 107.25 75.75 108.5 75.5 108.55 74.8 108.55 74.75 102.1 69.75 M124.75 60.5 L124.15 58.25 125.75 56.5 130.35 59.1 124.75 60.5 M120.0 67.25 L120.05 67.3 120.05 67.2 120.0 67.25 M120.9 73.2 L120.7 73.3 Q120.05 74.15 120.3 74.6 120.55 75.05 121.65 75.05 L121.95 74.75 122.15 74.15 122.15 74.0 Q122.0 73.25 121.15 73.15 L120.9 73.2 M118.95 73.7 L118.7 73.75 Q117.4 75.5 119.65 75.55 L120.0 75.2 120.2 74.6 120.15 74.5 Q120.0 73.75 119.2 73.65 L118.95 73.7 M120.7 70.3 L120.7 70.15 Q120.55 69.4 119.7 69.3 L119.45 69.35 119.2 69.45 Q117.95 71.2 120.2 71.2 L120.5 70.9 120.7 70.3 M99.8 76.7 L99.35 76.8 98.2 78.55 100.0 77.0 99.8 76.7 M99.85 78.4 Q98.75 78.45 98.15 79.4 96.4 82.2 99.65 83.05 100.65 83.3 101.3 82.45 103.5 79.5 99.85 78.4 M90.0 94.55 Q89.8 93.7 88.85 93.7 L88.6 93.75 88.35 93.85 Q87.9 94.1 88.05 94.6 88.8 96.9 90.0 94.7 L90.0 94.55 M99.5 98.55 L99.25 98.6 99.05 98.7 Q97.75 100.4 100.0 100.45 L100.3 100.15 100.5 99.55 100.5 99.4 Q100.35 98.65 99.5 98.55 M96.1 97.1 L95.85 97.15 95.6 97.25 Q94.3 98.95 96.55 99.0 L96.9 98.7 97.1 98.1 97.05 97.95 Q96.9 97.2 96.1 97.1 M91.7 91.95 Q93.95 91.2 91.9 89.95 90.55 90.25 90.95 91.55 91.1 92.15 91.7 91.95 M101.05 91.3 L100.8 91.35 Q99.5 93.1 101.75 93.15 L102.1 92.8 Q102.0 93.4 102.25 93.9 L102.15 93.9 101.9 93.95 Q100.7 95.6 102.55 95.75 L102.6 95.95 102.5 96.05 Q100.8 98.85 104.0 99.7 L105.05 99.65 106.4 99.8 106.65 99.6 Q106.7 100.2 108.05 100.25 L108.4 99.95 108.6 99.45 108.85 99.5 Q109.85 99.75 110.5 98.9 111.6 97.4 111.25 96.4 L111.65 96.4 111.95 96.1 112.1 95.8 112.9 95.9 113.25 95.55 113.45 94.95 113.4 94.85 Q113.25 94.1 112.45 94.0 L112.2 94.05 111.95 94.1 111.65 94.65 111.15 94.5 110.9 94.55 110.65 94.65 110.25 95.35 109.85 95.15 Q111.4 92.85 109.35 91.75 110.65 89.3 107.45 88.4 L106.65 88.6 Q106.45 88.65 106.35 88.8 L106.55 88.55 106.6 88.45 106.8 87.85 106.8 87.75 Q106.65 86.95 105.8 86.9 L105.55 86.95 105.35 87.0 Q104.5 88.1 105.15 88.55 L105.2 88.6 105.15 88.6 105.0 88.6 Q103.9 90.05 105.3 90.35 L105.2 90.8 104.4 90.5 104.4 90.3 104.35 90.15 Q104.2 89.4 103.4 89.3 L103.15 89.35 102.9 89.45 Q101.9 90.75 103.0 91.1 L102.65 91.5 102.35 92.15 102.3 92.2 102.25 92.1 Q102.1 91.35 101.3 91.25 L101.05 91.3 M111.65 79.6 L111.8 79.6 112.1 79.3 112.3 78.7 112.3 78.55 Q112.1 77.8 111.3 77.7 L111.05 77.75 110.8 77.85 Q109.6 79.55 111.65 79.6 M114.5 79.75 Q115.55 80.05 116.15 79.2 118.35 76.2 114.7 75.15 113.6 75.2 113.0 76.15 111.3 78.9 114.5 79.75 M111.95 91.6 L111.7 91.65 111.45 91.75 Q110.15 93.5 112.45 93.5 L112.75 93.2 112.95 92.6 112.95 92.45 Q112.75 91.7 111.95 91.6 M106.9 98.8 L106.9 98.75 Q106.75 98.2 106.3 98.0 L106.4 97.75 106.75 97.6 Q106.75 98.15 107.1 98.55 L106.9 98.8 M106.25 88.85 L106.2 88.8 106.3 88.8 106.25 88.85 M105.35 85.0 L105.35 84.85 Q105.2 84.1 104.35 84.0 103.8 83.3 102.4 82.9 101.3 82.95 100.7 83.9 98.95 86.7 102.2 87.55 103.2 87.8 103.85 86.95 L104.5 85.9 104.85 85.9 105.15 85.6 105.35 85.0 M106.2 80.8 L105.95 80.85 Q104.7 82.6 106.95 82.65 L107.25 82.3 107.45 81.7 107.45 81.6 Q107.3 80.85 106.45 80.75 L106.2 80.8 M111.45 84.35 Q112.45 84.6 113.1 83.75 115.3 80.75 111.65 79.7 110.55 79.75 109.95 80.7 108.2 83.5 111.45 84.35 M125.35 68.0 L125.55 67.4 125.55 67.25 Q125.35 66.4 124.4 66.4 L124.15 66.45 123.9 66.55 Q122.6 68.4 125.05 68.3 L125.35 68.0 M132.45 66.85 L132.45 61.25 131.0 61.25 131.0 66.85 132.45 66.85 M104.35 104.75 Q106.55 101.8 102.9 100.7 101.8 100.75 101.2 101.7 99.5 104.5 102.7 105.35 103.75 105.6 104.35 104.75" fill="#f0ead7" fill-rule="evenodd" stroke="none"/>
    <path d="M124.45 61.35 Q123.95 61.0 124.5 60.65 L124.75 60.5 130.35 59.1 130.9 59.4 131.95 60.45 126.55 63.7 126.0 63.15 128.45 61.2 124.45 61.35 M123.8 94.3 L121.05 93.15 114.3 86.6 114.7 86.1 122.75 91.35 117.05 83.3 117.9 82.6 125.8 93.4 125.3 94.25 123.8 94.3 M101.15 113.2 L102.4 117.55 102.35 118.0 102.85 118.9 102.9 119.05 102.45 119.85 101.5 119.6 101.15 118.85 92.7 113.85 88.25 111.9 87.3 113.3 Q85.85 115.45 83.5 114.75 79.95 116.2 76.9 114.2 75.55 113.4 74.8 111.85 77.9 112.95 80.75 110.95 81.9 110.15 82.45 108.85 L84.4 108.6 84.85 107.2 85.15 105.9 75.65 96.8 75.7 95.85 74.4 94.8 74.65 94.3 77.4 95.05 77.95 94.75 81.65 95.55 90.75 97.9 91.7 98.15 97.5 99.65 93.7 99.75 Q89.4 100.3 85.25 99.6 82.45 99.1 79.75 98.05 L89.85 103.75 87.5 103.65 85.3 103.45 85.25 103.45 84.55 103.6 85.6 104.05 89.6 106.65 85.05 108.2 87.2 108.35 87.9 109.55 89.35 108.6 91.85 106.7 94.3 104.55 89.45 109.65 94.55 107.7 94.05 112.95 95.75 112.4 97.65 103.35 98.8 113.45 100.0 113.45 100.4 114.35 101.15 113.2 M99.5 72.8 L97.65 70.15 97.85 68.95 96.8 68.8 97.15 67.65 102.1 69.75 108.55 74.75 108.55 74.8 108.5 75.5 107.25 75.75 101.25 71.85 103.25 76.25 101.95 76.25 101.2 74.85 100.95 74.95 100.95 75.0 99.5 72.8 M132.45 66.85 L131.0 66.85 131.0 61.25 132.45 61.25 132.45 66.85" fill="#a57741" fill-rule="evenodd" stroke="none"/>
    <path d="M120.7 70.3 L120.5 70.9 120.2 71.2 Q117.95 71.2 119.2 69.45 L119.45 69.35 119.7 69.3 Q120.55 69.4 120.7 70.15 L120.7 70.3 M118.95 73.7 L119.2 73.65 Q120.0 73.75 120.15 74.5 L120.2 74.6 120.0 75.2 119.65 75.55 Q117.4 75.5 118.7 73.75 L118.95 73.7 M120.9 73.2 L121.15 73.15 Q122.0 73.25 122.15 74.0 L122.15 74.15 121.95 74.75 121.65 75.05 Q120.55 75.05 120.3 74.6 120.05 74.15 120.7 73.3 L120.9 73.2 M95.0 81.9 Q95.4 81.6 95.95 81.6 99.6 82.65 97.4 85.65 96.8 86.5 95.75 86.25 L95.6 86.2 95.6 86.3 95.6 86.35 95.65 86.4 95.65 86.55 Q98.85 87.65 96.75 90.5 96.15 91.35 95.1 91.1 91.9 90.25 93.6 87.45 L93.9 87.1 Q93.35 86.65 94.15 85.55 L94.25 85.55 Q93.1 84.5 94.25 82.6 L94.3 82.55 95.0 81.9 M99.85 78.4 Q103.5 79.5 101.3 82.45 100.65 83.3 99.65 83.05 96.4 82.2 98.15 79.4 98.75 78.45 99.85 78.4 M90.0 94.55 L90.0 94.7 Q88.8 96.9 88.05 94.6 87.9 94.1 88.35 93.85 L88.6 93.75 88.85 93.7 Q89.8 93.7 90.0 94.55 M90.75 97.9 Q90.1 97.5 90.95 96.4 L91.2 96.3 91.45 96.25 Q92.25 96.35 92.4 97.1 L92.45 97.25 92.25 97.85 91.9 98.15 91.7 98.15 90.75 97.9 M101.05 91.3 L101.3 91.25 Q102.1 91.35 102.25 92.1 L102.3 92.2 102.35 92.15 102.65 91.5 103.0 91.1 Q101.9 90.75 102.9 89.45 L103.15 89.35 103.4 89.3 Q104.2 89.4 104.35 90.15 L104.4 90.3 104.4 90.5 105.2 90.8 105.3 90.35 Q103.9 90.05 105.0 88.6 L105.15 88.6 105.2 88.6 105.15 88.55 Q104.5 88.1 105.35 87.0 L105.55 86.95 105.8 86.9 Q106.65 86.95 106.8 87.75 L106.8 87.85 106.6 88.45 106.55 88.55 106.35 88.8 Q106.45 88.65 106.65 88.6 L107.45 88.4 Q110.65 89.3 109.35 91.75 111.4 92.85 109.85 95.15 L110.25 95.35 110.65 94.65 110.9 94.55 111.15 94.5 111.65 94.65 111.95 94.1 112.2 94.05 112.45 94.0 Q113.25 94.1 113.4 94.85 L113.45 94.95 113.25 95.55 112.9 95.9 112.1 95.8 111.95 96.1 111.65 96.4 111.25 96.4 Q111.6 97.4 110.5 98.9 109.85 99.75 108.85 99.5 L108.6 99.45 108.4 99.95 108.05 100.25 Q106.7 100.2 106.65 99.6 L106.4 99.8 105.05 99.65 104.0 99.7 Q100.8 98.85 102.5 96.05 L102.6 95.95 102.55 95.75 Q100.7 95.6 101.9 93.95 L102.15 93.9 102.25 93.9 Q102.0 93.4 102.1 92.8 L101.75 93.15 Q99.5 93.1 100.8 91.35 L101.05 91.3 M91.7 91.95 Q91.1 92.15 90.95 91.55 90.55 90.25 91.9 89.95 93.95 91.2 91.7 91.95 M96.1 97.1 Q96.9 97.2 97.05 97.95 L97.1 98.1 96.9 98.7 96.55 99.0 Q94.3 98.95 95.6 97.25 L95.85 97.15 96.1 97.1 M99.5 98.55 Q100.35 98.65 100.5 99.4 L100.5 99.55 100.3 100.15 100.0 100.45 Q97.75 100.4 99.05 98.7 L99.25 98.6 99.5 98.55 M114.5 79.75 Q111.3 78.9 113.0 76.15 113.6 75.2 114.7 75.15 118.35 76.2 116.15 79.2 115.55 80.05 114.5 79.75 M111.65 79.6 Q109.6 79.55 110.8 77.85 L111.05 77.75 111.3 77.7 Q112.1 77.8 112.3 78.55 L112.3 78.7 112.1 79.3 111.8 79.6 111.65 79.6 M111.45 84.35 Q108.2 83.5 109.95 80.7 110.55 79.75 111.65 79.7 115.3 80.75 113.1 83.75 112.45 84.6 111.45 84.35 M106.2 80.8 L106.45 80.75 Q107.3 80.85 107.45 81.6 L107.45 81.7 107.25 82.3 106.95 82.65 Q104.7 82.6 105.95 80.85 L106.2 80.8 M105.35 85.0 L105.15 85.6 104.85 85.9 104.5 85.9 103.85 86.95 Q103.2 87.8 102.2 87.55 98.95 86.7 100.7 83.9 101.3 82.95 102.4 82.9 103.8 83.3 104.35 84.0 105.2 84.1 105.35 84.85 L105.35 85.0 M106.25 88.85 L106.3 88.8 106.2 88.8 106.25 88.85 M106.9 98.8 L107.1 98.55 Q106.75 98.15 106.75 97.6 L106.4 97.75 106.3 98.0 Q106.75 98.2 106.9 98.75 L106.9 98.8 M111.95 91.6 Q112.75 91.7 112.95 92.45 L112.95 92.6 112.75 93.2 112.45 93.5 Q110.15 93.5 111.45 91.75 L111.7 91.65 111.95 91.6 M125.35 68.0 L125.05 68.3 Q122.6 68.4 123.9 66.55 L124.15 66.45 124.4 66.4 Q125.35 66.4 125.55 67.25 L125.55 67.4 125.35 68.0 M104.35 104.75 Q103.75 105.6 102.7 105.35 99.5 104.5 101.2 101.7 101.8 100.75 102.9 100.7 106.55 101.8 104.35 104.75" fill="#e0d1af" fill-rule="evenodd" stroke="none"/>
    <path d="M84.6 106.95 L71.9 93.25 81.55 95.65 Q95.9 78.65 99.2 76.3 101.2 74.8 97.95 70.45 L94.2 66.4 107.4 71.95 111.75 69.5 Q110.7 67.75 112.75 66.1 114.0 65.05 115.45 66.25 L116.75 67.6 123.45 62.25 M123.75 61.95 L124.85 61.0 124.15 58.25 125.75 56.5 132.1 60.1 132.15 60.2 136.05 65.9 134.5 67.65 131.7 67.25 125.9 75.95 127.3 77.0 Q128.55 78.3 127.65 79.7 126.15 81.8 124.35 81.0 L122.3 85.55 128.7 97.85 124.45 94.65 Q119.95 91.9 118.65 94.05 116.55 97.45 101.0 113.35 L104.05 122.55 89.35 111.35 Q87.9 113.7 85.15 115.0 79.85 117.5 73.75 112.65 83.7 110.95 84.8 107.55 L85.15 106.95" fill="none" stroke="#604e24" stroke-linecap="round" stroke-linejoin="round" stroke-width="2.0"/>
    <path d="M111.05 91.95 L111.35 91.4" ffdec:has-small-stroke="true" ffdec:original-stroke-width="0.05" fill="none" stroke="#000000" stroke-linecap="round" stroke-linejoin="round" stroke-opacity="0.5019608" stroke-width="1.0"/>
  </g>
</svg>
