<?xml version="1.0" encoding="UTF-8" standalone="no"?>
<svg xmlns:ffdec="https://www.free-decompiler.com/flash" xmlns:xlink="http://www.w3.org/1999/xlink" ffdec:objectType="shape" height="104.45px" width="83.25px" xmlns="http://www.w3.org/2000/svg">
  <g transform="matrix(1.0, 0.0, 0.0, 1.0, -233.35, -148.25)">
    <path d="M302.95 148.9 Q305.15 154.65 302.6 161.2 298.85 162.3 297.1 165.95 289.4 165.2 280.6 167.8 L276.9 168.2 276.45 162.3 276.05 156.45 280.6 151.9 Q281.1 153.75 283.15 153.55 288.1 153.0 290.9 150.3 294.15 150.35 296.4 148.55 L302.95 148.9" fill="#f3e6ce" fill-rule="evenodd" stroke="none"/>
    <path d="M246.95 213.1 Q246.6 210.45 247.15 207.3 247.8 200.95 249.95 195.35 259.9 175.1 273.85 158.65 L276.05 156.45 276.45 162.3 Q261.75 181.8 250.8 202.15 259.75 189.9 267.85 180.75 255.5 196.25 246.95 213.1" fill="#331802" fill-rule="evenodd" stroke="none"/>
    <path d="M272.7 168.8 Q273.95 166.75 274.95 166.85 275.8 167.4 274.2 169.75 270.95 172.7 268.25 175.8 L272.7 168.8 M309.5 169.1 L307.45 165.1 Q310.9 167.6 313.5 171.55 314.8 174.55 313.7 178.8 L310.15 186.1 311.35 177.25 Q311.8 174.15 310.95 172.7 L309.5 169.1" fill="#ffffff" fill-rule="evenodd" stroke="none"/>
    <path d="M254.75 223.7 L255.0 223.85 233.5 245.5 Q233.5 244.3 235.4 242.1 L253.85 223.15 253.85 223.1 253.85 223.15 254.75 223.7" fill="#d8b994" fill-rule="evenodd" stroke="none"/>
    <path d="M255.0 223.85 L260.95 227.55 246.6 250.7 Q246.1 251.4 244.45 252.35 242.8 253.3 238.95 251.8 235.1 250.25 234.1 248.4 233.05 246.55 233.5 245.5 L255.0 223.85" fill="#c79d68" fill-rule="evenodd" stroke="none"/>
    <path d="M276.45 162.3 L276.9 168.2 280.6 167.8 Q275.05 172.75 269.05 179.45 L267.85 180.75 Q259.75 189.9 250.8 202.15 261.75 181.8 276.45 162.3 M272.7 168.8 L268.25 175.8 Q270.95 172.7 274.2 169.75 275.8 167.4 274.95 166.85 273.95 166.75 272.7 168.8" fill="url(#gradient0)" fill-rule="evenodd" stroke="none"/>
    <path d="M283.2 225.35 Q279.35 228.45 273.6 229.65 267.8 230.8 263.15 228.9 L254.75 223.7 253.85 223.15 251.4 221.4 Q247.55 218.1 246.95 213.1 255.5 196.25 267.85 180.75 L269.05 179.45 Q275.05 172.75 280.6 167.8 289.4 165.2 297.1 165.95 298.85 162.3 302.6 161.2 309.55 168.95 309.1 177.25 300.65 200.45 283.2 225.35 M253.85 223.1 L253.85 223.15 253.85 223.1" fill="url(#gradient1)" fill-rule="evenodd" stroke="none"/>
    <path d="M302.6 161.2 L309.45 165.15 310.6 165.6 313.0 167.95 Q315.1 170.2 315.85 174.5 315.75 178.05 313.65 182.9 301.9 203.25 286.8 222.05 L283.2 225.35 Q300.65 200.45 309.1 177.25 309.55 168.95 302.6 161.2 M309.5 169.1 L310.95 172.7 Q311.8 174.15 311.35 177.25 L310.15 186.1 313.7 178.8 Q314.8 174.55 313.5 171.55 310.9 167.6 307.45 165.1 L309.5 169.1" fill="url(#gradient2)" fill-rule="evenodd" stroke="none"/>
    <path d="M302.95 148.9 Q305.5 149.85 309.25 152.05 313.95 156.3 316.35 163.1 317.0 169.2 315.85 174.5 315.1 170.2 313.0 167.95 L310.6 165.6 309.45 165.15 302.6 161.2 Q305.15 154.65 302.95 148.9" fill="url(#gradient3)" fill-rule="evenodd" stroke="none"/>
    <path d="M315.85 174.5 Q317.0 169.2 316.35 163.1 313.95 156.3 309.25 152.05 305.5 149.85 302.95 148.9 305.15 154.65 302.6 161.2 298.85 162.3 297.1 165.95 289.4 165.2 280.6 167.8 L276.9 168.2 276.45 162.3 276.05 156.45 280.6 151.9 Q281.1 153.75 283.15 153.55 288.1 153.0 290.9 150.3 294.15 150.35 296.4 148.55 L302.95 148.9 M315.85 174.5 Q315.75 178.05 313.65 182.9 301.9 203.25 286.8 222.05 L283.2 225.35 Q279.35 228.45 273.6 229.65 267.8 230.8 263.15 228.9 L254.75 223.7 253.85 223.15 251.4 221.4 Q247.55 218.1 246.95 213.1 246.6 210.45 247.15 207.3 247.8 200.95 249.95 195.35 259.9 175.1 273.85 158.65 L276.05 156.45" ffdec:has-small-stroke="true" ffdec:original-stroke-width="0.05" fill="none" stroke="#000000" stroke-linecap="round" stroke-linejoin="round" stroke-width="1.0"/>
    <path d="M260.95 227.55 L246.6 250.7 Q246.1 251.4 244.45 252.35 242.8 253.3 238.95 251.8 235.1 250.25 234.1 248.4 233.05 246.55 233.5 245.5 233.5 244.3 235.4 242.1 L253.85 223.15 253.85 223.1" ffdec:has-small-stroke="true" ffdec:original-stroke-width="0.05" fill="none" stroke="#814c32" stroke-linecap="round" stroke-linejoin="round" stroke-opacity="0.6117647" stroke-width="1.0"/>
  </g>
  <defs>
    <linearGradient gradientTransform="matrix(0.0037, 0.0024, -0.0158, 0.0242, 265.95, 183.7)" gradientUnits="userSpaceOnUse" id="gradient0" spreadMethod="pad" x1="-819.2" x2="819.2">
      <stop offset="0.0" stop-color="#000000"/>
      <stop offset="0.0" stop-color="#412d19"/>
      <stop offset="0.7019607843137254" stop-color="#5b3f24"/>
    </linearGradient>
    <linearGradient gradientTransform="matrix(0.0196, 0.0128, -0.0262, 0.0402, 281.0, 193.95)" gradientUnits="userSpaceOnUse" id="gradient1" spreadMethod="pad" x1="-819.2" x2="819.2">
      <stop offset="0.0" stop-color="#000000"/>
      <stop offset="1.0" stop-color="#5b3f24"/>
    </linearGradient>
    <linearGradient gradientTransform="matrix(0.026, -0.0278, 0.0134, 0.0125, 293.85, 192.55)" gradientUnits="userSpaceOnUse" id="gradient2" spreadMethod="pad" x1="-819.2" x2="819.2">
      <stop offset="0.0" stop-color="#000000"/>
      <stop offset="0.00392156862745098" stop-color="#7c5732"/>
      <stop offset="0.7019607843137254" stop-color="#5b3f24"/>
    </linearGradient>
    <linearGradient gradientTransform="matrix(0.0127, 0.0083, -0.0051, 0.0078, 309.6, 161.35)" gradientUnits="userSpaceOnUse" id="gradient3" spreadMethod="pad" x1="-819.2" x2="819.2">
      <stop offset="0.0" stop-color="#000000"/>
      <stop offset="0.29411764705882354" stop-color="#412d19"/>
      <stop offset="0.7019607843137254" stop-color="#5b3f24"/>
    </linearGradient>
  </defs>
</svg>
