<?xml version="1.0" encoding="UTF-8" standalone="no"?>
<svg xmlns:ffdec="https://www.free-decompiler.com/flash" xmlns:xlink="http://www.w3.org/1999/xlink" ffdec:objectType="shape" height="206.7px" width="186.05px" xmlns="http://www.w3.org/2000/svg">
  <g transform="matrix(1.0, 0.0, 0.0, 1.0, -182.0, -96.6)">
    <path d="M219.85 186.8 L220.2 136.8 230.35 122.1 231.9 140.8 232.7 150.15 232.65 195.8 235.55 203.7 219.8 195.95 219.85 186.8 219.8 195.95 186.2 142.5 211.05 166.3 219.85 186.8 M274.55 103.9 L264.2 149.1 259.05 172.55 245.35 208.5 235.55 203.7 260.7 117.3 274.55 103.9 M312.25 133.85 L300.2 159.65 288.15 185.45 262.55 216.95 262.5 216.95 296.7 146.8 312.25 133.85 M367.55 134.5 L328.9 191.95 315.6 215.75 298.75 220.25 351.2 142.8 367.55 134.5 M364.75 172.45 L360.75 194.1 346.6 202.65 332.45 211.2 324.0 213.5 364.75 172.45 M305.4 187.95 L308.95 188.5 289.2 222.8 279.7 225.4 271.1 221.15 294.45 197.3 305.4 187.95" fill="#ebcaab" fill-rule="evenodd" stroke="none"/>
    <path d="M230.35 122.1 L220.2 136.8 219.85 186.8 211.05 166.3 211.05 128.9 230.35 122.1 M235.55 203.7 L232.65 195.8 232.7 150.15 233.45 159.5 241.2 140.2 258.5 97.1 274.55 103.9 260.7 117.3 235.55 203.7 M275.55 156.7 L304.5 128.9 312.25 133.85 296.7 146.8 262.5 216.95 245.35 208.5 259.05 172.55 275.55 156.7 M321.55 171.25 L352.1 129.55 367.55 134.5 351.2 142.8 298.75 220.25 289.2 222.8 308.95 188.5 321.55 171.25 M328.9 191.95 L364.75 172.45 324.0 213.5 315.6 215.75 328.9 191.95 M204.1 188.2 L182.5 151.75 186.2 142.5 219.8 195.95 204.1 188.2 M262.55 216.95 L288.15 185.45 305.4 187.95 294.45 197.3 271.1 221.15 262.55 216.95" fill="#f8f7a5" fill-rule="evenodd" stroke="none"/>
    <path d="M232.7 150.15 L231.9 140.8 239.65 121.8 242.75 121.8 241.2 140.2 233.45 159.5 232.7 150.15 M264.2 149.1 L282.6 114.7 285.65 114.7 275.55 156.7 259.05 172.55 264.2 149.1 M300.2 159.65 L316.85 147.45 326.15 152.7 321.55 171.25 308.95 188.5 305.4 187.95 288.15 185.45 300.2 159.65 M346.6 202.65 L355.8 204.0 359.2 211.1 329.4 215.45 332.45 211.2 346.6 202.65" fill="#dda277" fill-rule="evenodd" stroke="none"/>
    <path d="M329.4 215.45 L285.95 275.65 232.85 302.8 279.7 225.4 289.2 222.8 298.75 220.25 315.6 215.75 324.0 213.5 332.45 211.2 329.4 215.45" fill="#511609" fill-rule="evenodd" stroke="none"/>
    <path d="M219.8 195.95 L235.55 203.7 245.35 208.5 262.5 216.95 262.55 216.95 271.1 221.15 279.7 225.4 232.85 302.8 193.3 265.7 204.1 188.2 219.8 195.95 M236.15 268.8 L259.45 240.35 250.55 226.35 232.3 235.3 224.7 215.35 212.8 224.25 205.15 252.25 212.8 224.25 224.7 215.35 232.3 235.3 250.55 226.35 259.45 240.35 236.15 268.8" fill="#e24e16" fill-rule="evenodd" stroke="none"/>
    <path d="M219.85 186.8 L219.8 195.95 235.55 203.7 232.65 195.8 232.7 150.15 231.9 140.8 230.35 122.1 M211.05 166.3 L219.85 186.8 M329.4 215.45 L285.95 275.65 232.85 302.8 279.7 225.4 289.2 222.8 308.95 188.5 321.55 171.25 M235.55 203.7 L245.35 208.5 259.05 172.55 264.2 149.1 M298.75 220.25 L315.6 215.75 328.9 191.95 M262.5 216.95 L262.55 216.95 288.15 185.45 300.2 159.65 M305.4 187.95 L308.95 188.5 M315.6 215.75 L324.0 213.5 332.45 211.2 346.6 202.65 M329.4 215.45 L332.45 211.2 M232.7 150.15 L233.45 159.5 241.2 140.2 M271.1 221.15 L279.7 225.4 M262.55 216.95 L271.1 221.15 294.45 197.3 305.4 187.95 288.15 185.45 M289.2 222.8 L298.75 220.25 M259.05 172.55 L275.55 156.7 M245.35 208.5 L262.5 216.95 M204.1 188.2 L219.8 195.95" ffdec:has-small-stroke="true" ffdec:original-stroke-width="0.05" fill="none" stroke="#000000" stroke-linecap="round" stroke-linejoin="round" stroke-opacity="0.2901961" stroke-width="1.0"/>
    <path d="M230.35 122.1 L211.05 128.9 211.05 166.3 186.2 142.5 182.5 151.75 204.1 188.2 M231.9 140.8 L239.65 121.8 242.75 121.8 241.2 140.2 258.5 97.1 274.55 103.9 264.2 149.1 282.6 114.7 285.65 114.7 275.55 156.7 304.5 128.9 312.25 133.85 300.2 159.65 316.85 147.45 326.15 152.7 321.55 171.25 352.1 129.55 367.55 134.5 328.9 191.95 364.75 172.45 360.75 194.1 346.6 202.65 355.8 204.0 359.2 211.1 329.4 215.45" fill="none" stroke="#cd6f3d" stroke-linecap="round" stroke-linejoin="round" stroke-width="1.0"/>
    <path d="M205.15 252.25 L212.8 224.25 224.7 215.35 232.3 235.3 250.55 226.35 259.45 240.35 236.15 268.8" fill="none" stroke="#f8f7a5" stroke-linecap="round" stroke-linejoin="round" stroke-width="1.0"/>
    <path d="M232.85 302.8 L193.3 265.7 204.1 188.2" fill="none" stroke="#511609" stroke-linecap="round" stroke-linejoin="round" stroke-width="1.0"/>
  </g>
</svg>
