<?xml version="1.0" encoding="UTF-8" standalone="no"?>
<svg xmlns:ffdec="https://www.free-decompiler.com/flash" xmlns:xlink="http://www.w3.org/1999/xlink" ffdec:objectType="shape" height="137.8px" width="272.5px" xmlns="http://www.w3.org/2000/svg">
  <g transform="matrix(1.0, 0.0, 0.0, 1.0, 136.25, 68.9)">
    <path d="M126.6 -67.1 Q130.4 -71.85 135.25 -61.9 136.75 -54.25 135.25 -48.7 132.65 -45.25 130.05 -51.85 L129.5 -54.3 126.6 -67.1" fill="#d99300" fill-rule="evenodd" stroke="none"/>
    <path d="M135.25 -48.7 Q130.5 -35.6 112.4 -25.8 108.35 -23.65 103.6 -21.6 L98.65 -19.6 Q97.15 -20.4 96.85 -21.95 104.35 -24.7 110.8 -28.7 115.2 -31.5 119.1 -34.85 127.85 -41.6 129.5 -54.3 L130.05 -51.85 Q132.65 -45.25 135.25 -48.7" fill="#5e3f00" fill-rule="evenodd" stroke="none"/>
    <path d="M112.4 -25.8 Q116.0 -18.6 116.15 -12.1 L116.1 -10.85 116.45 -8.0 Q118.0 8.15 110.1 21.15 82.95 46.1 46.1 58.15 22.1 64.6 -4.9 54.15 L-24.9 64.15 Q-35.45 73.2 -56.85 64.15 -80.25 51.6 -91.85 35.15 -101.25 37.75 -110.6 32.95 -112.75 31.85 -114.95 30.35 L-117.85 28.15 Q-134.65 8.0 -135.9 -8.25 -136.35 -14.65 -134.8 -17.6 -136.2 -12.5 -135.6 -6.75 L-135.55 -6.1 -131.65 3.6 Q-125.95 17.5 -114.45 26.8 -113.35 27.75 -111.9 28.3 L-110.5 30.1 -110.45 31.25 -110.4 31.25 Q-102.15 33.9 -93.3 32.25 L-91.5 27.6 -91.05 28.4 Q-90.0 32.6 -87.55 36.05 -79.55 47.15 -68.0 53.45 -57.35 59.3 -47.1 64.5 L-45.65 64.5 -28.8 63.4 -27.35 61.25 -26.7 60.85 Q-18.75 54.95 -9.45 51.25 L-10.9 46.95 Q-9.4 47.05 -8.05 48.1 -3.1 52.0 3.1 52.65 L4.5 53.75 8.45 54.8 Q16.0 56.25 23.85 56.6 37.4 57.75 50.2 53.8 61.7 50.35 72.1 44.5 L90.0 34.3 Q102.3 27.45 109.65 15.6 115.15 6.7 114.7 -4.1 L111.85 2.3 Q105.55 6.75 99.2 -3.45 L86.55 -23.85 Q91.7 -10.2 88.55 3.45 L79.95 14.7 Q68.2 24.5 54.9 19.85 L41.35 10.65 Q45.35 34.45 24.7 37.4 7.85 39.6 -9.85 31.1 L-19.05 23.6 Q-22.5 20.8 -22.8 14.95 -24.0 9.3 -20.5 5.5 -25.6 7.75 -28.55 14.4 -32.7 24.65 -31.4 38.45 -34.15 40.35 -37.45 41.75 -62.8 47.55 -82.95 32.25 -90.15 27.45 -89.0 18.45 L-93.85 27.05 Q-112.0 31.0 -126.1 7.5 -132.5 -4.55 -132.35 -19.8 L-130.95 -20.05 Q-131.5 -9.45 -126.0 2.15 -122.5 9.55 -116.25 14.4 -107.75 21.0 -97.95 18.4 L-97.35 18.4 Q-95.15 16.9 -94.05 14.6 L-92.75 11.8 -92.9 11.6 -89.85 11.15 Q-70.1 3.65 -57.85 11.15 -38.85 16.95 -33.85 13.15 -27.35 5.35 -9.9 -4.85 8.1 -8.2 26.1 0.15 45.6 -9.2 55.1 -21.85 L69.1 -45.85 Q73.05 -53.8 81.0 -53.35 98.5 -45.25 105.7 -36.1 L109.1 -31.4 Q105.65 -28.85 101.6 -26.55 L97.1 -34.85 Q94.2 -40.75 90.1 -39.85 89.85 -33.65 95.1 -20.85 101.5 -5.8 109.1 -1.85 112.3 -7.5 109.1 -20.85 L107.55 -16.1 Q104.4 -16.6 103.6 -21.6 108.35 -23.65 112.4 -25.8 M-63.65 11.85 L-63.5 11.9 -63.7 11.8 -63.65 11.85 Q-73.25 7.45 -82.3 15.05 -83.65 16.15 -83.85 17.85 -72.65 25.6 -57.65 25.7 -53.4 25.75 -50.15 23.3 L-49.6 22.15 Q-52.2 17.5 -57.55 15.3 -60.95 14.0 -63.65 11.85 M7.4 15.55 Q15.2 17.1 21.15 12.0 L21.75 11.5 22.05 9.75 Q19.7 2.45 11.45 1.3 1.7 -4.05 -8.9 -0.85 -12.35 0.3 -14.5 3.15 L-14.5 6.9 -13.9 7.75 Q-2.45 9.85 7.4 15.55 M89.4 -45.45 L89.4 -44.3 Q78.4 -55.2 72.35 -41.1 67.75 -30.5 61.25 -21.0 57.35 -15.35 51.25 -11.7 45.2 -8.1 46.2 -1.45 47.4 0.05 49.4 0.3 68.15 -8.55 75.5 -28.0 L77.6 -33.55 Q78.3 -35.4 79.6 -36.85 L80.75 -37.15 Q80.85 -30.25 83.65 -24.75 85.65 -30.5 85.65 -37.7 L85.65 -39.15 86.8 -40.6 Q87.3 -40.65 88.0 -41.1 L88.2 -41.2 88.3 -41.4 88.5 -41.75 89.35 -42.0 89.65 -42.3 90.2 -42.65 90.55 -42.9 Q90.85 -43.95 90.15 -44.55 89.65 -44.9 89.4 -45.45" fill="#cc3300" fill-rule="evenodd" stroke="none"/>
    <path d="M-134.8 -17.6 Q-133.9 -19.3 -132.35 -19.8 -132.5 -4.55 -126.1 7.5 -112.0 31.0 -93.85 27.05 L-89.0 18.45 Q-90.15 27.45 -82.95 32.25 -62.8 47.55 -37.45 41.75 -34.15 40.35 -31.4 38.45 -32.7 24.65 -28.55 14.4 -25.6 7.75 -20.5 5.5 -24.0 9.3 -22.8 14.95 -22.5 20.8 -19.05 23.6 L-9.85 31.1 Q7.85 39.6 24.7 37.4 45.35 34.45 41.35 10.65 L54.9 19.85 Q68.2 24.5 79.95 14.7 L88.55 3.45 Q91.7 -10.2 86.55 -23.85 L99.2 -3.45 Q105.55 6.75 111.85 2.3 L114.7 -4.1 Q115.15 6.7 109.65 15.6 102.3 27.45 90.0 34.3 L72.1 44.5 Q61.7 50.35 50.2 53.8 37.4 57.75 23.85 56.6 16.0 56.25 8.45 54.8 L4.5 53.75 3.1 52.65 Q-3.1 52.0 -8.05 48.1 -9.4 47.05 -10.9 46.95 L-9.45 51.25 Q-18.75 54.95 -26.7 60.85 L-27.35 61.25 -28.8 63.4 -45.65 64.5 -47.1 64.5 Q-57.35 59.3 -68.0 53.45 -79.55 47.15 -87.55 36.05 -90.0 32.6 -91.05 28.4 L-91.5 27.6 -93.3 32.25 Q-102.15 33.9 -110.4 31.25 L-110.45 31.25 -110.5 30.1 -111.9 28.3 Q-113.35 27.75 -114.45 26.8 -125.95 17.5 -131.65 3.6 L-135.55 -6.1 -135.6 -6.75 Q-136.2 -12.5 -134.8 -17.6 M97.1 -34.85 L101.6 -26.55 96.95 -24.2 Q96.65 -22.9 96.85 -21.95 97.15 -20.4 98.65 -19.6 L103.6 -21.6 Q104.4 -16.6 107.55 -16.1 L109.1 -20.85 Q112.3 -7.5 109.1 -1.85 101.5 -5.8 95.1 -20.85 89.85 -33.65 90.1 -39.85 94.2 -40.75 97.1 -34.85" fill="#990000" fill-rule="evenodd" stroke="none"/>
    <path d="M109.1 -31.4 Q127.45 -45.15 126.6 -67.1 L129.5 -54.3 Q127.85 -41.6 119.1 -34.85 115.2 -31.5 110.8 -28.7 104.35 -24.7 96.85 -21.95 96.65 -22.9 96.95 -24.2 L101.6 -26.55 Q105.65 -28.85 109.1 -31.4" fill="#996600" fill-rule="evenodd" stroke="none"/>
    <path d="M-130.95 -20.05 L-128.85 -19.85 Q-127.05 -3.65 -118.85 6.15 -108.0 13.4 -92.9 11.6 L-92.75 11.8 -94.05 14.6 Q-95.15 16.9 -97.35 18.4 L-97.95 18.4 Q-107.75 21.0 -116.25 14.4 -122.5 9.55 -126.0 2.15 -131.5 -9.45 -130.95 -20.05 M-63.65 11.85 Q-60.95 14.0 -57.55 15.3 -52.2 17.5 -49.6 22.15 L-50.15 23.3 Q-53.4 25.75 -57.65 25.7 -72.65 25.6 -83.85 17.85 -83.65 16.15 -82.3 15.05 -73.25 7.45 -63.65 11.85 L-63.7 11.8 -63.5 11.9 -63.65 11.85 M89.4 -45.45 Q89.65 -44.9 90.15 -44.55 90.85 -43.95 90.55 -42.9 L90.2 -42.65 89.65 -42.3 89.35 -42.0 88.5 -41.75 88.3 -41.4 88.2 -41.2 88.0 -41.1 Q87.3 -40.65 86.8 -40.6 L85.65 -39.15 85.65 -37.7 Q85.65 -30.5 83.65 -24.75 80.85 -30.25 80.75 -37.15 L79.6 -36.85 Q78.3 -35.4 77.6 -33.55 L75.5 -28.0 Q68.15 -8.55 49.4 0.3 47.4 0.05 46.2 -1.45 45.2 -8.1 51.25 -11.7 57.35 -15.35 61.25 -21.0 67.75 -30.5 72.35 -41.1 78.4 -55.2 89.4 -44.3 L89.4 -45.45 M7.4 15.55 Q-2.45 9.85 -13.9 7.75 L-14.5 6.9 -14.5 3.15 Q-12.35 0.3 -8.9 -0.85 1.7 -4.05 11.45 1.3 19.7 2.45 22.05 9.75 L21.75 11.5 21.15 12.0 Q15.2 17.1 7.4 15.55" fill="#ff0000" fill-rule="evenodd" stroke="none"/>
    <path d="M126.6 -67.1 Q130.4 -71.85 135.25 -61.9 136.75 -54.25 135.25 -48.7 130.5 -35.6 112.4 -25.8 108.35 -23.65 103.6 -21.6 L98.65 -19.6 Q97.15 -20.4 96.85 -21.95 96.65 -22.9 96.95 -24.2 L101.6 -26.55 Q105.65 -28.85 109.1 -31.4 127.45 -45.15 126.6 -67.1 M81.0 -53.35 Q98.5 -45.25 105.7 -36.1" ffdec:has-small-stroke="true" ffdec:original-stroke-width="0.5" fill="none" stroke="#000000" stroke-linecap="round" stroke-linejoin="round" stroke-opacity="0.3882353" stroke-width="1.0"/>
    <path d="M112.4 -25.8 Q116.0 -18.6 116.15 -12.1 L116.1 -10.85 116.45 -8.0 Q118.0 8.15 110.1 21.15 82.95 46.1 46.1 58.15 22.1 64.6 -4.9 54.15 L-24.9 64.15 Q-35.45 73.2 -56.85 64.15 -80.25 51.6 -91.85 35.15 -101.25 37.75 -110.6 32.95 -112.75 31.85 -114.95 30.35 L-117.85 28.15 Q-134.65 8.0 -135.9 -8.25 -136.35 -14.65 -134.8 -17.6 -133.9 -19.3 -132.35 -19.8 L-130.95 -20.05 -128.85 -19.85 Q-127.05 -3.65 -118.85 6.15 -108.0 13.4 -92.9 11.6 L-89.85 11.15 Q-70.1 3.65 -57.85 11.15 -38.85 16.95 -33.85 13.15 -27.35 5.35 -9.9 -4.85 8.1 -8.2 26.1 0.15 45.6 -9.2 55.1 -21.85 L69.1 -45.85 Q73.05 -53.8 81.0 -53.35 M105.7 -36.1 L109.1 -31.4 M97.1 -34.85 Q94.2 -40.75 90.1 -39.85 89.85 -33.65 95.1 -20.85 101.5 -5.8 109.1 -1.85 112.3 -7.5 109.1 -20.85" ffdec:has-small-stroke="true" ffdec:original-stroke-width="0.5" fill="none" stroke="#000000" stroke-linecap="round" stroke-linejoin="round" stroke-opacity="0.3882353" stroke-width="1.0"/>
  </g>
</svg>
