<?xml version="1.0" encoding="UTF-8" standalone="no"?>
<svg xmlns:ffdec="https://www.free-decompiler.com/flash" xmlns:xlink="http://www.w3.org/1999/xlink" ffdec:objectType="shape" height="4.4px" width="6.4px" xmlns="http://www.w3.org/2000/svg">
  <g transform="matrix(1.0, 0.0, 0.0, 1.0, 1.85, 0.95)">
    <path d="M0.0 -0.8 L0.25 -0.95 3.35 -0.2 3.05 0.2 Q1.25 0.2 0.0 -0.8 M-0.9 -0.35 L-0.25 -0.65 Q0.6 0.35 2.4 0.85 L2.1 1.2 0.0 0.55 -0.25 0.45 -0.9 -0.35" fill="#9c6c27" fill-rule="evenodd" stroke="none"/>
    <path d="M3.05 0.2 L3.35 -0.2 3.55 0.05 3.05 0.2 M4.0 0.65 L4.05 0.7 3.35 1.6 2.2 1.9 2.15 1.55 2.1 1.2 2.4 0.85 3.2 1.0 3.25 1.25 3.45 0.95 3.55 0.85 3.55 0.9 4.0 0.65" fill="#d1954b" fill-rule="evenodd" stroke="none"/>
    <path d="M-1.75 0.9 L-1.6 0.0 -0.25 0.45 0.0 0.55 Q1.0 1.4 2.15 1.55 L2.2 1.9 1.65 2.5 0.6 2.0 0.6 1.6 -0.2 1.15 -0.7 1.4 -1.75 0.9 M1.8 1.6 L1.35 1.5 1.25 1.85 1.5 1.95 1.8 1.6" fill="#80572a" fill-rule="evenodd" stroke="none"/>
    <path d="M2.45 3.45 L-1.85 1.6 -1.75 0.9 -0.7 1.4 -0.2 1.15 0.6 1.6 0.6 2.0 1.65 2.5 2.2 1.9 2.45 3.45 M1.8 1.6 L1.5 1.95 1.25 1.85 1.35 1.5 1.8 1.6" fill="#4f5c3a" fill-rule="evenodd" stroke="none"/>
    <path d="M4.05 0.7 L4.55 1.4 2.45 3.45 2.2 1.9 3.35 1.6 4.05 0.7 M3.55 0.85 L3.45 0.95 3.25 1.25 3.2 1.0 3.15 0.85 3.55 0.85" fill="#81955e" fill-rule="evenodd" stroke="none"/>
    <path d="M0.0 -0.8 Q1.25 0.2 3.05 0.2 L2.4 0.85 Q0.6 0.35 -0.25 -0.65 L0.0 -0.8" fill="#805920" fill-rule="evenodd" stroke="none"/>
    <path d="M3.55 0.05 L4.0 0.65 3.55 0.9 3.55 0.85 3.15 0.85 3.2 1.0 2.4 0.85 3.05 0.2 3.55 0.05 M-1.6 0.0 L-0.95 -0.3 -0.9 -0.35 -0.25 0.45 -1.6 0.0" fill="#bf8031" fill-rule="evenodd" stroke="none"/>
    <path d="M2.1 1.2 L2.15 1.55 Q1.0 1.4 0.0 0.55 L2.1 1.2" fill="#714f1c" fill-rule="evenodd" stroke="none"/>
    <path d="M3.35 -0.2 L0.25 -0.95 0.0 -0.8 -0.25 -0.65 -0.9 -0.35 M3.35 -0.2 L3.55 0.05 4.0 0.65 4.05 0.7 4.55 1.4 2.45 3.45 -1.85 1.6 -1.75 0.9 -1.6 0.0 -0.95 -0.3" ffdec:has-small-stroke="true" ffdec:original-stroke-width="0.05" fill="none" stroke="#000000" stroke-linecap="round" stroke-linejoin="round" stroke-opacity="0.3019608" stroke-width="1.0"/>
  </g>
</svg>
