<?xml version="1.0" encoding="UTF-8" standalone="no"?>
<svg xmlns:ffdec="https://www.free-decompiler.com/flash" xmlns:xlink="http://www.w3.org/1999/xlink" ffdec:objectType="shape" height="4.65px" width="9.75px" xmlns="http://www.w3.org/2000/svg">
  <g transform="matrix(1.0, 0.0, 0.0, 1.0, 1.65, -0.85)">
    <path d="M3.9 3.8 L3.5 5.5 -1.45 4.75 -1.65 3.1 3.9 3.8" fill="#966832" fill-rule="evenodd" stroke="none"/>
    <path d="M-1.65 3.1 L-0.95 2.2 3.6 2.75 3.9 3.8 -1.65 3.1" fill="#daa854" fill-rule="evenodd" stroke="none"/>
    <path d="M3.9 3.8 L3.5 5.5 -1.45 4.75 -1.65 3.1" ffdec:has-small-stroke="true" ffdec:original-stroke-width="0.05" fill="none" stroke="#7a5323" stroke-linecap="round" stroke-linejoin="round" stroke-width="1.0"/>
    <path d="M-1.65 3.1 L-0.95 2.2 3.6 2.75 3.9 3.8" ffdec:has-small-stroke="true" ffdec:original-stroke-width="0.05" fill="none" stroke="#7a5323" stroke-linecap="round" stroke-linejoin="round" stroke-width="1.0"/>
    <path d="M6.35 4.9 L5.3 3.35 6.95 0.85 8.1 2.5 6.35 4.9" fill="#966832" fill-rule="evenodd" stroke="none"/>
    <path d="M4.45 3.2 L5.3 3.35 6.35 4.9 5.55 4.85 4.45 3.2" fill="#80572a" fill-rule="evenodd" stroke="none"/>
    <path d="M5.3 3.35 L4.45 3.2 4.4 3.2 6.95 0.85 5.3 3.35" fill="#daa854" fill-rule="evenodd" stroke="none"/>
    <path d="M4.45 3.2 L5.55 4.85 6.35 4.9 8.1 2.5 6.95 0.85 4.4 3.2 4.45 3.2 Z" ffdec:has-small-stroke="true" ffdec:original-stroke-width="0.05" fill="none" stroke="#7a5323" stroke-linecap="round" stroke-linejoin="round" stroke-width="1.0"/>
  </g>
</svg>
