<?xml version="1.0" encoding="UTF-8" standalone="no"?>
<svg xmlns:ffdec="https://www.free-decompiler.com/flash" xmlns:xlink="http://www.w3.org/1999/xlink" ffdec:objectType="shape" height="39.6px" width="80.55px" xmlns="http://www.w3.org/2000/svg">
  <g transform="matrix(1.0, 0.0, 0.0, 1.0, -7.65, -7.65)">
    <path d="M17.7 46.4 L15.75 46.9 15.35 46.9 17.7 46.4" fill="#164936" fill-rule="evenodd" stroke="none"/>
    <path d="M56.8 15.55 L74.45 12.3 75.65 14.35 76.45 16.3 34.85 19.5 56.8 15.55 M42.7 24.8 L51.35 24.55 42.0 26.4 23.5 30.0 23.2 34.7 31.3 34.35 Q56.5 32.6 77.7 21.05 L77.8 21.6 Q79.4 30.65 73.25 34.95 45.45 37.6 17.7 46.4 L15.35 46.9 Q12.4 46.6 10.25 41.85 8.0 36.8 8.0 29.65 8.0 22.5 10.25 17.45 12.45 12.6 15.5 12.4 L15.75 12.4 16.7 12.5 Q19.3 13.15 21.2 17.45 22.75 20.9 23.3 25.3 L42.7 24.8 M18.65 21.25 Q17.15 17.75 15.0 17.75 12.85 17.75 11.3 21.25 9.8 24.75 9.8 29.7 9.8 34.65 11.3 38.15 12.85 41.65 15.0 41.65 17.15 41.65 18.65 38.15 20.2 34.65 20.2 29.7 20.2 24.75 18.65 21.25 20.2 24.75 20.2 29.7 20.2 34.65 18.65 38.15 17.15 41.65 15.0 41.65 12.85 41.65 11.3 38.15 9.8 34.65 9.8 29.7 9.8 24.75 11.3 21.25 12.85 17.75 15.0 17.75 17.15 17.75 18.65 21.25 M17.65 29.8 Q17.65 27.2 16.75 25.35 15.9 23.55 14.65 23.55 13.4 23.55 12.5 25.35 11.65 27.2 11.65 29.8 11.65 32.4 12.5 34.2 13.4 36.05 14.65 36.05 15.9 36.05 16.75 34.2 17.65 32.4 17.65 29.8" fill="#523701" fill-rule="evenodd" stroke="none"/>
    <path d="M61.95 9.3 L62.0 10.1 Q62.0 10.7 61.6 10.85 L58.75 10.6 58.8 11.0 59.0 11.1 59.6 11.5 59.85 12.3 Q59.9 12.75 59.6 13.0 L59.0 13.0 58.6 12.85 58.5 12.75 Q58.1 13.2 57.35 13.35 L56.1 13.35 55.6 14.1 Q55.35 14.75 55.6 15.25 L56.8 15.55 34.85 19.5 76.45 16.3 77.7 21.05 Q56.5 32.6 31.3 34.35 31.65 34.1 32.1 34.0 L32.5 33.75 Q32.4 32.6 31.1 32.85 L30.35 33.0 30.6 32.25 32.6 32.0 33.25 32.35 33.5 32.75 34.05 32.75 34.35 32.6 34.35 32.5 Q34.4 32.05 33.85 32.25 L33.4 32.2 33.25 32.1 Q33.15 31.75 33.3 31.45 L33.5 31.1 33.6 31.0 34.35 30.75 35.1 30.8 35.1 30.75 34.95 30.15 34.6 29.75 34.5 29.6 Q36.1 27.7 39.35 27.7 40.4 27.7 41.3 27.2 L42.0 26.4 51.35 24.55 42.7 24.8 43.1 24.6 Q41.4 23.05 38.6 23.75 L34.6 23.5 35.0 22.85 35.05 22.35 Q35.15 22.0 34.85 21.75 L33.1 21.5 31.85 20.5 31.85 19.6 32.0 19.45 32.25 19.0 32.0 18.25 Q30.45 18.35 30.1 16.25 L29.25 16.1 Q28.95 16.15 28.85 16.35 28.45 16.85 28.75 17.25 L29.3 17.25 Q30.05 17.75 30.25 18.35 L30.25 18.5 Q29.75 19.9 28.5 20.5 L28.35 20.5 Q26.85 20.85 26.5 19.85 L26.5 19.6 Q27.8 19.5 28.0 18.35 26.45 18.85 25.6 18.1 L25.65 17.95 Q26.5 17.5 26.85 16.6 L26.6 16.35 24.25 16.25 24.1 15.85 Q23.9 15.1 24.35 14.6 L25.85 15.0 Q26.65 13.9 27.75 13.5 L27.8 12.8 Q45.0 12.8 61.95 9.3 M15.75 12.4 L16.65 12.45 16.7 12.5 15.75 12.4 M17.65 29.8 Q17.65 32.4 16.75 34.2 15.9 36.05 14.65 36.05 13.4 36.05 12.5 34.2 11.65 32.4 11.65 29.8 11.65 27.2 12.5 25.35 13.4 23.55 14.65 23.55 15.9 23.55 16.75 25.35 17.65 27.2 17.65 29.8" fill="#dc8a03" fill-rule="evenodd" stroke="none"/>
    <path d="M56.8 15.55 L55.6 15.25 Q55.35 14.75 55.6 14.1 L56.1 13.35 57.35 13.35 Q58.1 13.2 58.5 12.75 L58.6 12.85 59.0 13.0 59.6 13.0 Q59.9 12.75 59.85 12.3 L59.6 11.5 59.0 11.1 58.8 11.0 58.75 10.6 61.6 10.85 Q62.0 10.7 62.0 10.1 L61.95 9.3 67.85 8.0 Q71.95 8.65 74.45 12.3 L56.8 15.55 M27.8 12.8 L27.75 13.5 Q26.65 13.9 25.85 15.0 L24.35 14.6 Q23.9 15.1 24.1 15.85 L24.25 16.25 26.6 16.35 26.85 16.6 Q26.5 17.5 25.65 17.95 L25.6 18.1 Q26.45 18.85 28.0 18.35 27.8 19.5 26.5 19.6 L26.5 19.85 Q26.85 20.85 28.35 20.5 L28.5 20.5 Q29.75 19.9 30.25 18.5 L30.25 18.35 Q30.05 17.75 29.3 17.25 L28.75 17.25 Q28.45 16.85 28.85 16.35 28.95 16.15 29.25 16.1 L30.1 16.25 Q30.45 18.35 32.0 18.25 L32.25 19.0 32.0 19.45 31.85 19.6 31.85 20.5 33.1 21.5 34.85 21.75 Q35.15 22.0 35.05 22.35 L35.0 22.85 34.6 23.5 38.6 23.75 Q41.4 23.05 43.1 24.6 L42.7 24.8 23.3 25.3 Q22.75 20.9 21.2 17.45 19.3 13.15 16.7 12.5 L16.65 12.45 27.8 12.8 M42.0 26.4 L41.3 27.2 Q40.4 27.7 39.35 27.7 36.1 27.7 34.5 29.6 L34.6 29.75 34.95 30.15 35.1 30.75 35.1 30.8 34.35 30.75 33.6 31.0 33.5 31.1 33.3 31.45 Q33.15 31.75 33.25 32.1 L33.4 32.2 33.85 32.25 Q34.4 32.05 34.35 32.5 L34.35 32.6 34.05 32.75 33.5 32.75 33.25 32.35 32.6 32.0 30.6 32.25 30.35 33.0 31.1 32.85 Q32.4 32.6 32.5 33.75 L32.1 34.0 Q31.65 34.1 31.3 34.35 L23.2 34.7 23.5 30.0 42.0 26.4" fill="#be6903" fill-rule="evenodd" stroke="none"/>
    <path d="M74.45 12.3 Q71.95 8.65 67.85 8.0 L61.95 9.3 Q45.0 12.8 27.8 12.8 L16.65 12.45 15.75 12.4 15.5 12.4 Q12.45 12.6 10.25 17.45 8.0 22.5 8.0 29.65 8.0 36.8 10.25 41.85 12.4 46.6 15.35 46.9 L17.7 46.4 Q45.45 37.6 73.25 34.95 79.4 30.65 77.8 21.6 L77.7 21.05 76.45 16.3 75.65 14.35 74.45 12.3" ffdec:has-small-stroke="true" ffdec:original-stroke-width="0.75" fill="none" stroke="#220d0d" stroke-linecap="round" stroke-linejoin="round" stroke-width="1.0"/>
    <path d="M18.65 21.25 Q20.2 24.75 20.2 29.7 20.2 34.65 18.65 38.15 17.15 41.65 15.0 41.65 12.85 41.65 11.3 38.15 9.8 34.65 9.8 29.7 9.8 24.75 11.3 21.25 12.85 17.75 15.0 17.75 17.15 17.75 18.65 21.25 Z" ffdec:has-small-stroke="true" ffdec:original-stroke-width="0.75" fill="none" stroke="#dc8a03" stroke-linecap="round" stroke-linejoin="round" stroke-width="1.0"/>
    <path d="M76.3 34.0 L73.35 26.3 74.8 26.9 75.9 26.4 74.8 28.25 75.35 29.6 76.3 29.25 76.5 29.8 75.65 30.15 77.05 33.8 80.8 38.55 83.05 39.65 81.7 35.95 80.25 33.85 82.35 35.65 83.65 39.0 83.75 35.65 84.55 39.3 85.15 38.3 84.6 28.5 85.3 30.25 85.85 33.85 85.7 37.75 86.65 36.35 86.65 32.65 85.3 25.4 86.8 27.95 86.5 25.65 88.2 30.05 87.5 37.8 87.3 38.25 84.75 40.25 84.15 40.7 83.85 40.75 83.6 40.25 83.6 39.9 83.4 40.55 83.2 40.65 82.25 40.4 82.25 41.0 81.0 39.85 80.35 39.1 76.8 35.25 76.3 34.0 M73.8 19.1 Q75.85 19.6 77.55 20.8 L78.8 21.7 80.35 25.8 79.05 23.6 78.9 23.3 78.1 23.5 77.9 23.55 78.15 22.65 77.55 21.8 76.9 21.25 76.4 21.5 75.85 22.05 75.35 20.45 72.75 20.05 72.0 20.4 73.2 19.5 Q73.45 19.25 73.8 19.1 M83.3 26.75 L82.2 24.0 80.95 22.35 82.65 23.5 83.3 25.2 83.3 26.75" fill="#ab6f4d" fill-rule="evenodd" stroke="none"/>
    <path d="M86.5 25.65 L86.8 27.95 85.3 25.4 86.65 32.65 86.65 36.35 85.7 37.75 85.85 33.85 85.3 30.25 84.6 28.5 85.15 38.3 84.55 39.3 83.75 35.65 83.65 39.0 82.35 35.65 80.25 33.85 81.7 35.95 83.05 39.65 80.8 38.55 77.05 33.8 75.65 30.15 76.5 29.8 76.3 29.25 75.35 29.6 74.8 28.25 75.9 26.4 74.8 26.9 73.35 26.3 76.3 34.0 74.55 31.8 Q73.2 29.85 72.6 27.7 L72.15 28.25 72.0 28.15 Q70.25 26.5 70.5 24.3 L70.0 25.15 70.05 27.15 71.15 28.65 72.7 29.75 76.8 35.25 80.35 39.1 75.45 34.9 74.3 34.1 75.95 36.5 76.65 38.3 77.85 39.3 78.5 40.95 75.3 38.85 75.8 40.05 72.15 38.0 72.45 36.7 74.05 37.3 71.3 34.85 70.5 35.15 70.85 36.05 71.6 36.5 69.7 36.2 67.8 34.4 67.7 32.8 70.15 32.4 71.9 31.6 72.9 32.1 73.25 33.05 73.25 31.35 71.4 29.4 70.85 30.75 68.05 31.0 67.6 29.8 67.25 31.45 66.2 31.0 66.15 26.6 66.8 25.6 68.05 24.3 69.35 24.85 70.65 22.6 Q70.85 21.4 72.0 20.4 L72.75 20.05 75.35 20.45 75.85 22.05 76.4 21.5 76.9 21.25 77.55 21.8 78.15 22.65 77.9 23.55 78.1 23.5 78.9 23.3 79.05 23.6 80.35 25.8 78.8 21.7 77.55 20.8 Q75.85 19.6 73.8 19.1 75.45 18.0 77.6 18.85 81.25 18.4 84.15 22.0 L86.25 24.95 86.5 25.65 M83.3 26.75 L83.3 25.2 82.65 23.5 80.95 22.35 82.2 24.0 83.3 26.75" fill="#cf8d53" fill-rule="evenodd" stroke="none"/>
    <path d="M76.3 34.0 L76.8 35.25 72.7 29.75 71.15 28.65 70.05 27.15 70.0 25.15 70.5 24.3 Q70.25 26.5 72.0 28.15 L72.15 28.25 72.6 27.7 Q73.2 29.85 74.55 31.8 L76.3 34.0 M80.35 39.1 L81.0 39.85 82.25 41.0 82.25 40.4 83.2 40.65 83.4 40.55 83.6 39.9 83.6 40.25 83.85 40.75 84.15 40.7 84.75 40.25 87.3 38.25 86.35 40.15 84.3 42.75 82.8 42.8 82.75 42.8 Q81.75 43.75 80.4 43.85 77.15 43.75 74.45 41.8 L70.75 39.3 68.0 36.1 65.6 31.75 Q64.75 29.1 66.15 26.6 L66.2 31.0 67.25 31.45 67.6 29.8 68.05 31.0 70.85 30.75 71.4 29.4 73.25 31.35 73.25 33.05 72.9 32.1 71.9 31.6 70.15 32.4 67.7 32.8 67.8 34.4 69.7 36.2 71.6 36.5 70.85 36.05 70.5 35.15 71.3 34.85 74.05 37.3 72.45 36.7 72.15 38.0 75.8 40.05 75.3 38.85 78.5 40.95 77.85 39.3 76.65 38.3 75.95 36.5 74.3 34.1 75.45 34.9 80.35 39.1 M70.65 22.6 L69.35 24.85 68.05 24.3 Q69.2 23.3 70.65 22.6 M82.25 41.0 L84.3 42.75 82.25 41.0" fill="#804e29" fill-rule="evenodd" stroke="none"/>
    <path d="M76.3 34.0 L76.8 35.25 80.35 39.1 81.0 39.85 82.25 41.0 84.3 42.75 86.35 40.15 87.3 38.25 87.5 37.8 88.2 30.05 86.5 25.65 86.25 24.95 84.15 22.0 Q81.25 18.4 77.6 18.85 75.45 18.0 73.8 19.1 73.45 19.25 73.2 19.5 L72.0 20.4 Q70.85 21.4 70.65 22.6 L69.35 24.85 68.05 24.3 66.8 25.6 66.15 26.6 Q64.75 29.1 65.6 31.75 L68.0 36.1 70.75 39.3 74.45 41.8 Q77.15 43.75 80.4 43.85 81.75 43.75 82.75 42.8 L82.8 42.8 84.3 42.75 M70.65 22.6 Q69.2 23.3 68.05 24.3 M70.0 25.15 L70.05 27.15 71.15 28.65 72.7 29.75 76.8 35.25" ffdec:has-small-stroke="true" ffdec:original-stroke-width="0.05" fill="none" stroke="#000000" stroke-linecap="round" stroke-linejoin="round" stroke-width="1.0"/>
    <path d="M64.65 38.5 L62.3 32.3 63.45 32.8 64.35 32.4 63.45 33.9 63.9 34.95 64.65 34.7 64.8 35.1 64.15 35.4 65.25 38.35 68.25 42.15 70.05 43.05 69.0 40.05 67.8 38.35 69.5 39.8 70.55 42.5 70.65 39.8 71.25 42.75 71.75 41.95 71.3 34.1 71.9 35.5 72.3 38.35 72.2 41.5 72.95 40.4 72.95 37.4 71.9 31.6 73.1 33.65 72.85 31.8 74.2 35.3 73.65 41.55 73.5 41.9 71.45 43.5 70.95 43.85 70.7 43.9 70.5 43.5 70.5 43.25 70.35 43.75 70.2 43.85 69.45 43.65 69.45 44.1 68.4 43.2 67.9 42.6 65.05 39.5 64.65 38.5 M62.65 26.55 Q64.3 26.95 65.65 27.9 L66.65 28.6 67.9 31.9 Q67.55 31.05 66.85 30.15 L66.75 29.9 Q66.4 29.8 66.1 30.05 L65.95 30.1 66.15 29.4 65.65 28.7 65.15 28.25 64.75 28.45 64.3 28.9 63.9 27.6 61.8 27.3 61.2 27.6 62.15 26.85 Q62.35 26.65 62.65 26.55 M70.25 32.65 L69.4 30.45 68.4 29.15 69.75 30.05 70.25 31.45 70.25 32.65" fill="#ab6f4d" fill-rule="evenodd" stroke="none"/>
    <path d="M72.85 31.8 L73.1 33.65 71.9 31.6 72.95 37.4 72.95 40.4 72.2 41.5 72.3 38.35 71.9 35.5 71.3 34.1 71.75 41.95 71.25 42.75 70.65 39.8 70.55 42.5 69.5 39.8 67.8 38.35 69.0 40.05 70.05 43.05 68.25 42.15 65.25 38.35 64.15 35.4 64.8 35.1 64.65 34.7 63.9 34.95 63.45 33.9 64.35 32.4 63.45 32.8 62.3 32.3 64.65 38.5 63.25 36.75 Q62.15 35.15 61.7 33.45 L61.3 33.9 61.2 33.8 Q59.8 32.45 60.0 30.7 L59.6 31.4 59.65 33.0 60.5 34.2 61.75 35.1 65.05 39.5 67.9 42.6 63.95 39.2 63.05 38.55 64.35 40.5 64.95 41.95 65.9 42.75 66.4 44.05 63.85 42.4 64.25 43.35 61.3 41.7 61.55 40.65 62.85 41.15 60.65 39.2 60.0 39.4 60.3 40.15 60.9 40.5 59.35 40.25 57.85 38.8 57.75 37.55 59.7 37.2 61.1 36.55 61.9 36.95 62.2 37.75 62.2 36.35 60.7 34.8 60.3 35.9 58.05 36.1 57.65 35.1 57.4 36.45 56.55 36.1 56.5 32.55 57.0 31.75 58.05 30.7 59.05 31.15 60.1 29.35 Q60.3 28.4 61.2 27.6 L61.8 27.3 63.9 27.6 64.3 28.9 64.75 28.45 65.15 28.25 65.65 28.7 66.15 29.4 65.95 30.1 66.1 30.05 Q66.4 29.8 66.75 29.9 L66.85 30.15 Q67.55 31.05 67.9 31.9 L66.65 28.6 65.65 27.9 Q64.3 26.95 62.65 26.55 63.95 25.65 65.7 26.35 68.6 25.95 70.95 28.85 L72.65 31.25 72.85 31.8 M70.25 32.65 L70.25 31.45 69.75 30.05 68.4 29.15 69.4 30.45 70.25 32.65" fill="#cf8d53" fill-rule="evenodd" stroke="none"/>
    <path d="M64.65 38.5 L65.05 39.5 61.75 35.1 60.5 34.2 59.65 33.0 59.6 31.4 60.0 30.7 Q59.8 32.45 61.2 33.8 L61.3 33.9 61.7 33.45 Q62.15 35.15 63.25 36.75 L64.65 38.5 M67.9 42.6 L68.4 43.2 69.45 44.1 69.45 43.65 70.2 43.85 70.35 43.75 70.5 43.25 70.5 43.5 70.7 43.9 70.95 43.85 71.45 43.5 73.5 41.9 72.7 43.45 71.05 45.5 69.85 45.55 Q69.05 46.3 67.95 46.4 65.35 46.3 63.15 44.75 L60.2 42.75 58.0 40.2 56.05 36.7 Q55.4 34.55 56.5 32.55 L56.55 36.1 57.4 36.45 57.65 35.1 58.05 36.1 60.3 35.9 60.7 34.8 62.2 36.35 62.2 37.75 61.9 36.95 61.1 36.55 59.7 37.2 57.75 37.55 57.85 38.8 59.35 40.25 60.9 40.5 60.3 40.15 60.0 39.4 60.65 39.2 62.85 41.15 61.55 40.65 61.3 41.7 64.25 43.35 63.85 42.4 66.4 44.05 65.9 42.75 64.95 41.95 64.35 40.5 63.05 38.55 63.95 39.2 67.9 42.6 M60.1 29.35 L59.05 31.15 58.05 30.7 60.1 29.35 M69.45 44.1 L71.05 45.5 69.45 44.1" fill="#804e29" fill-rule="evenodd" stroke="none"/>
    <path d="M64.65 38.5 L65.05 39.5 67.9 42.6 68.4 43.2 69.45 44.1 71.05 45.5 72.7 43.45 73.5 41.9 73.65 41.55 74.2 35.3 72.85 31.8 72.65 31.25 70.95 28.85 Q68.6 25.95 65.7 26.35 63.95 25.65 62.65 26.55 62.35 26.65 62.15 26.85 L61.2 27.6 Q60.3 28.4 60.1 29.35 L59.05 31.15 58.05 30.7 57.0 31.75 56.5 32.55 Q55.4 34.55 56.05 36.7 L58.0 40.2 60.2 42.75 63.15 44.75 Q65.35 46.3 67.95 46.4 69.05 46.3 69.85 45.55 L71.05 45.5 M60.1 29.35 L58.05 30.7 M59.6 31.4 L59.65 33.0 60.5 34.2 61.75 35.1 65.05 39.5" ffdec:has-small-stroke="true" ffdec:original-stroke-width="0.05" fill="none" stroke="#000000" stroke-linecap="round" stroke-linejoin="round" stroke-width="1.0"/>
  </g>
</svg>
