<?xml version="1.0" encoding="UTF-8" standalone="no"?>
<svg xmlns:ffdec="https://www.free-decompiler.com/flash" xmlns:xlink="http://www.w3.org/1999/xlink" ffdec:objectType="shape" height="60.8px" width="103.85px" xmlns="http://www.w3.org/2000/svg">
  <g transform="matrix(1.0, 0.0, 0.0, 1.0, -134.65, -122.45)">
    <path d="M177.7 182.4 L175.75 182.9 175.35 182.9 177.7 182.4" fill="#164936" fill-rule="evenodd" stroke="none"/>
    <path d="M175.35 182.9 Q173.15 182.65 171.45 180.0 L170.25 177.85 Q168.0 172.8 168.0 165.65 168.0 158.5 170.25 153.45 172.45 148.6 175.5 148.4 L175.6 148.4 175.7 148.4 176.9 149.8 180.1 153.7 180.1 153.75 181.35 153.75 Q183.3 157.0 195.3 159.3 L211.35 160.55 183.5 166.0 183.2 170.7 Q182.65 174.65 181.2 177.85 L180.05 180.0 Q178.95 181.7 177.7 182.4 L175.35 182.9 M178.65 157.25 Q177.15 153.75 175.0 153.75 172.85 153.75 171.3 157.25 169.8 160.75 169.8 165.7 169.8 170.65 171.3 174.15 172.85 177.65 175.0 177.65 177.15 177.65 178.65 174.15 180.2 170.65 180.2 165.7 180.2 160.75 178.65 157.25 180.2 160.75 180.2 165.7 180.2 170.65 178.65 174.15 177.15 177.65 175.0 177.65 172.85 177.65 171.3 174.15 169.8 170.65 169.8 165.7 169.8 160.75 171.3 157.25 172.85 153.75 175.0 153.75 177.15 153.75 178.65 157.25 M176.75 170.2 Q177.65 168.4 177.65 165.8 177.65 163.2 176.75 161.35 175.9 159.55 174.65 159.55 173.4 159.55 172.5 161.35 171.65 163.2 171.65 165.8 171.65 168.4 172.5 170.2 173.4 172.05 174.65 172.05 175.9 172.05 176.75 170.2 M175.6 148.4 L176.9 149.8 175.6 148.4" fill="#220d0d" fill-rule="evenodd" stroke="none"/>
    <path d="M183.25 148.75 Q205.75 149.35 227.85 144.0 231.95 144.65 234.45 148.3 L194.85 155.5 236.45 152.3 237.7 157.05 Q213.1 170.4 183.2 170.7 L183.5 166.0 211.35 160.55 195.3 159.3 Q183.3 157.0 181.35 153.75 L184.85 153.75 180.95 150.6 182.35 150.6 182.4 150.55 183.25 148.75 M178.2 148.55 L181.6 148.7 180.45 150.2 178.2 148.55 M176.75 170.2 Q175.9 172.05 174.65 172.05 173.4 172.05 172.5 170.2 171.65 168.4 171.65 165.8 171.65 163.2 172.5 161.35 173.4 159.55 174.65 159.55 175.9 159.55 176.75 161.35 177.65 163.2 177.65 165.8 177.65 168.4 176.75 170.2" fill="#873a3a" fill-rule="evenodd" stroke="none"/>
    <path d="M234.45 148.3 Q235.6 150.0 236.45 152.3 L194.85 155.5 234.45 148.3 M237.7 157.05 L237.8 157.6 Q239.4 166.65 233.25 170.95 209.45 173.2 185.65 180.0 L177.7 182.4 Q178.95 181.7 180.05 180.0 L181.2 177.85 Q182.65 174.65 183.2 170.7 213.1 170.4 237.7 157.05" fill="#542525" fill-rule="evenodd" stroke="none"/>
    <path d="M186.05 144.4 L185.45 144.15 185.4 144.15 185.4 144.1 183.75 143.25 186.85 127.95 193.0 128.7 193.05 128.7 193.25 128.7 193.35 129.1 Q191.5 130.85 190.15 132.8 186.5 137.9 186.05 144.3 L186.05 144.35 186.05 144.4 M183.9 147.55 L183.25 148.75 182.4 150.55 182.35 150.6 180.95 150.6 184.85 153.75 181.35 153.75 180.1 153.75 180.1 153.7 176.9 149.8 175.7 148.4 173.25 145.85 173.7 145.45 173.75 145.4 175.55 146.6 178.2 148.55 180.45 150.2 181.6 148.7 Q183.1 146.7 184.55 145.05 L185.4 144.1 185.4 144.15 185.6 144.5 183.9 147.55 M173.65 145.4 L172.4 145.75 172.4 145.7 172.35 145.65 Q171.35 137.4 163.7 130.8 160.8 128.3 157.0 126.05 L157.2 125.55 157.6 125.5 157.75 125.5 170.6 124.55 170.7 124.55 177.25 144.3 173.75 145.4 173.7 145.4 173.65 145.4 M180.15 150.6 L180.45 150.2 180.15 150.6 M170.7 124.55 L157.2 125.55 170.7 124.55" fill="#9dcd6b" fill-rule="evenodd" stroke="none"/>
    <path d="M196.65 126.3 Q198.55 129.35 201.0 131.65 L203.6 133.75 Q204.4 139.05 202.85 143.95 L202.85 144.05 Q202.3 141.75 201.45 140.05 199.4 135.9 195.6 134.95 L195.55 134.95 195.1 135.1 195.05 135.1 Q193.55 135.75 192.15 136.75 L191.95 136.9 191.55 137.2 191.15 137.55 191.05 137.65 Q188.35 140.1 186.2 144.25 L186.1 144.4 186.05 144.45 186.0 144.55 186.05 144.45 186.05 144.4 186.05 144.35 186.05 144.3 Q186.5 137.9 190.15 132.8 191.5 130.85 193.35 129.1 L193.35 129.05 Q194.85 127.6 196.65 126.3 M172.4 145.75 L172.4 145.85 172.4 145.95 172.35 145.85 172.3 145.8 172.0 145.55 Q167.45 140.2 161.8 137.1 L161.6 136.95 160.75 136.5 159.9 136.1 159.45 135.95 Q156.55 134.6 153.35 133.8 L153.25 133.8 152.25 133.55 152.2 133.55 Q144.15 134.8 139.9 140.15 138.05 142.35 136.95 145.3 L136.9 145.2 Q133.65 138.9 135.35 132.05 138.25 130.8 140.85 129.3 145.95 126.4 150.0 122.45 L150.05 122.45 Q153.8 124.1 156.9 126.0 L156.95 126.05 157.0 126.05 Q160.8 128.3 163.7 130.8 171.35 137.4 172.35 145.65 L172.4 145.7 172.4 145.75 172.35 145.65 172.4 145.75 M195.6 134.95 Q198.1 134.05 201.0 134.25 L201.75 134.35 201.0 134.25 Q198.1 134.05 195.6 134.95 M152.2 133.55 Q146.9 132.4 140.85 132.7 L139.2 132.8 140.85 132.7 Q146.9 132.4 152.2 133.55 M161.6 136.95 L160.8 136.5 159.9 136.1 160.8 136.5 161.6 136.95" fill="#b8db93" fill-rule="evenodd" stroke="none"/>
    <path d="M183.25 148.75 Q205.75 149.35 227.85 144.0 231.95 144.65 234.45 148.3 235.6 150.0 236.45 152.3 L237.7 157.05 237.8 157.6 Q239.4 166.65 233.25 170.95 209.45 173.2 185.65 180.0 L177.7 182.4 175.35 182.9 Q173.15 182.65 171.45 180.0 L170.25 177.85 Q168.0 172.8 168.0 165.65 168.0 158.5 170.25 153.45 172.45 148.6 175.5 148.4 L175.6 148.4 175.7 148.4 M178.2 148.55 L181.6 148.7" ffdec:has-small-stroke="true" ffdec:original-stroke-width="0.75" fill="none" stroke="#220d0d" stroke-linecap="round" stroke-linejoin="round" stroke-width="1.0"/>
    <path d="M178.65 157.25 Q180.2 160.75 180.2 165.7 180.2 170.65 178.65 174.15 177.15 177.65 175.0 177.65 172.85 177.65 171.3 174.15 169.8 170.65 169.8 165.7 169.8 160.75 171.3 157.25 172.85 153.75 175.0 153.75 177.15 153.75 178.65 157.25" ffdec:has-small-stroke="true" ffdec:original-stroke-width="0.75" fill="none" stroke="#b95e5e" stroke-linecap="round" stroke-linejoin="round" stroke-width="1.0"/>
    <path d="M196.65 126.3 Q198.55 129.35 201.0 131.65 L203.6 133.75 Q204.4 139.05 202.85 143.95 L202.85 144.05 Q202.3 141.75 201.45 140.05 199.4 135.9 195.6 134.95 L195.55 134.95 M191.05 137.65 L186.2 144.25 186.1 144.4 M186.05 144.45 L186.0 144.55 186.05 144.45 186.05 144.4 M185.45 144.15 L185.75 144.3 185.65 144.45 185.6 144.5 183.9 147.55 M173.2 145.8 L173.0 145.6 173.6 145.45 173.7 145.4 173.75 145.4 175.55 146.6 178.2 148.55 180.45 150.2 180.15 150.6 M172.4 145.75 L172.4 145.85 172.4 145.95 172.35 145.85 172.3 145.8 172.0 145.55 161.8 137.1 161.6 136.95 160.8 136.5 159.9 136.1 159.45 135.95 M152.25 133.55 L152.2 133.55 Q144.15 134.8 139.9 140.15 138.05 142.35 136.95 145.3 L136.9 145.2 Q133.65 138.9 135.35 132.05 138.25 130.8 140.85 129.3 145.95 126.4 150.0 122.45 L150.05 122.45 Q153.8 124.1 156.9 126.0 L156.95 126.05 157.0 126.05 Q160.8 128.3 163.7 130.8 171.35 137.4 172.35 145.65 L172.4 145.75 M170.7 124.55 L177.25 144.3 173.75 145.4 M181.6 148.7 Q183.1 146.7 184.55 145.05 L185.4 144.1 183.75 143.25 186.85 127.95 193.0 128.7 M193.35 129.05 Q194.85 127.6 196.65 126.3 M173.25 145.85 L175.7 148.4 176.9 149.8 M180.1 153.7 L180.1 153.75 M184.85 153.75 L180.95 150.6 M182.35 150.6 L182.4 150.55 M173.2 145.8 L173.25 145.85 M193.35 129.05 L193.35 129.1 Q191.5 130.85 190.15 132.8 186.5 137.9 186.05 144.3 L186.05 144.35 M201.75 134.35 L201.0 134.25 Q198.1 134.05 195.6 134.95 M192.15 136.75 L191.95 136.9 191.55 137.2 191.15 137.55 191.05 137.65 M185.4 144.15 L185.4 144.1 M185.4 144.15 L185.45 144.15 M181.6 148.7 L180.45 150.2 M139.2 132.8 L140.85 132.7 Q146.9 132.4 152.2 133.55 M157.2 125.55 L170.7 124.55" ffdec:has-small-stroke="true" ffdec:original-stroke-width="0.05" fill="none" stroke="#2b0000" stroke-linecap="round" stroke-linejoin="round" stroke-opacity="0.38039216" stroke-width="1.0"/>
    <path d="M202.85 143.95 L202.9 144.05 Q204.45 139.1 203.65 133.75 L201.2 131.8 Q198.7 129.45 196.7 126.3 L196.65 126.3 M195.55 134.95 L195.1 135.1 195.05 135.1 Q193.55 135.75 192.15 136.75 L191.75 137.1 191.05 137.65 Q188.35 140.1 186.2 144.25 L186.1 144.45 186.05 144.55 186.1 144.45 186.1 144.4 M185.65 144.45 L185.65 144.5 183.9 147.55 183.25 148.75 182.4 150.55 M175.6 148.4 L173.15 145.85 173.2 145.8 173.6 145.45 173.65 145.4 M172.3 145.8 L172.3 145.85 172.3 145.95 172.25 145.85 172.0 145.55 Q167.45 140.2 161.8 137.1 L160.35 136.35 159.45 135.95 Q156.55 134.6 153.35 133.8 L153.25 133.8 152.25 133.55 M136.9 145.2 L136.85 145.3 Q133.5 138.95 135.25 132.05 137.9 130.9 140.35 129.55 145.7 126.5 149.95 122.45 L150.0 122.45 M156.9 126.0 L157.1 125.55 157.6 125.5 157.75 125.5 170.6 124.55 M193.0 128.7 L193.05 128.7 193.25 128.7 193.35 129.05 M176.9 149.8 L180.1 153.7 M173.7 145.4 L173.7 145.45 M185.45 144.15 L185.65 144.45 M176.9 149.8 L175.6 148.4" ffdec:has-small-stroke="true" ffdec:original-stroke-width="0.05" fill="none" stroke="#634527" stroke-linecap="round" stroke-linejoin="round" stroke-width="1.0"/>
  </g>
</svg>
