<?xml version="1.0" encoding="UTF-8" standalone="no"?>
<svg xmlns:ffdec="https://www.free-decompiler.com/flash" xmlns:xlink="http://www.w3.org/1999/xlink" ffdec:objectType="shape" height="45.05px" width="42.4px" xmlns="http://www.w3.org/2000/svg">
  <g transform="matrix(1.0, 0.0, 0.0, 1.0, -247.6, -174.4)">
    <path d="M259.05 181.4 L260.6 183.75 262.45 186.7 262.35 186.9 260.1 185.0 258.6 183.7 258.1 184.35 247.7 196.75 256.45 177.3 259.05 181.4 M261.7 181.0 L260.5 176.2 266.1 174.5 265.25 183.95 265.15 184.05 264.95 184.2 263.15 185.85 261.7 181.0" fill="#8fb629" fill-rule="evenodd" stroke="none"/>
    <path d="M259.05 181.4 L260.5 176.2 261.7 181.0 260.6 183.75 259.05 181.4 M260.1 185.0 L255.8 191.8 258.1 184.35 258.6 183.7 260.1 185.0" fill="#1a7212" fill-rule="evenodd" stroke="none"/>
    <path d="M265.25 183.95 Q269.35 180.95 281.15 181.8 289.3 184.3 287.8 189.65 L285.75 190.9 Q276.25 196.2 267.6 192.55 264.85 191.4 262.2 189.35 L262.15 189.3 262.0 189.2 Q261.55 188.2 262.35 186.9 L262.45 186.7 263.15 185.85 264.95 184.2 265.15 184.05 265.25 183.95 M279.7 218.9 Q270.4 220.85 262.35 214.05 L261.9 194.95 265.8 196.7 Q264.75 205.55 267.75 212.8 L267.9 212.95 269.7 214.55 Q272.7 216.5 277.4 216.15 L279.15 215.95 279.7 218.9 M262.85 187.35 L262.35 186.9 262.85 187.35 M285.85 187.95 Q283.0 189.45 280.45 190.3 271.95 193.0 265.75 188.75 L265.5 188.2 265.75 188.75 Q271.95 193.0 280.45 190.3 283.0 189.45 285.85 187.95 M275.95 182.65 Q271.45 182.85 268.9 183.85 L268.55 184.0 Q266.35 184.9 265.7 186.45 266.35 184.9 268.55 184.0 L268.9 183.85 Q271.45 182.85 275.95 182.65 M266.95 216.4 L267.9 212.95 266.95 216.4" fill="#b3a833" fill-rule="evenodd" stroke="none"/>
    <path d="M287.8 189.65 L287.9 192.35 285.75 193.65 285.4 193.85 284.1 194.65 283.1 195.0 279.25 196.3 278.05 196.7 275.3 196.95 273.85 196.95 Q270.9 196.85 267.8 196.0 L265.55 195.3 265.45 194.6 265.55 195.3 265.25 195.2 261.85 192.9 261.0 192.25 261.25 190.4 262.2 189.35 Q264.85 191.4 267.6 192.55 L267.8 196.0 267.6 192.55 Q276.25 196.2 285.75 190.9 L287.8 189.65 M288.8 212.8 L289.0 212.55 Q290.55 213.0 289.5 214.25 L289.35 214.4 289.3 214.15 288.85 214.7 285.95 216.45 286.0 216.55 284.0 216.3 283.9 215.75 Q285.7 215.55 288.8 212.8 M285.75 190.9 L285.75 193.65 285.75 190.9" fill="#baa356" fill-rule="evenodd" stroke="none"/>
    <path d="M261.9 194.95 L261.85 192.9 265.25 195.2 265.55 195.3 265.8 196.7 265.55 195.3 267.8 196.0 Q270.9 196.85 273.85 196.95 273.65 198.4 267.85 197.6 L265.8 196.7 261.9 194.95" fill="#928147" fill-rule="evenodd" stroke="none"/>
    <path d="M287.95 192.7 L288.8 212.8 Q285.7 215.55 283.9 215.75 L284.0 216.3 280.05 215.75 279.15 215.95 277.4 216.15 277.85 207.2 277.4 216.15 Q272.7 216.5 269.7 214.55 L267.9 212.95 267.75 212.8 Q264.75 205.55 265.8 196.7 L267.85 197.6 Q273.65 198.4 273.85 196.95 L275.3 196.95 276.4 202.8 Q275.8 199.4 278.0 197.0 L280.2 199.8 Q278.85 197.65 281.45 195.85 L282.85 196.15 Q284.65 196.95 285.15 199.85 287.95 195.35 286.15 193.9 L287.95 192.7 M269.5 211.3 L269.7 214.55 269.5 211.3 M286.7 200.4 Q286.4 199.65 286.05 199.7 285.65 199.65 285.4 200.4 285.1 201.1 285.1 202.15 285.1 203.2 285.4 203.9 285.65 204.6 286.05 204.65 L286.7 203.9 286.95 202.15 286.7 200.4 M284.6 208.25 L284.25 208.7 Q284.1 209.15 284.1 209.8 284.1 210.45 284.25 210.9 L284.6 211.35 284.95 210.9 285.1 209.8 284.95 208.7 284.6 208.25 M283.9 215.75 L283.6 214.5 283.9 215.75 M280.9 202.4 Q280.7 201.85 280.4 201.85 280.1 201.85 279.9 202.4 L279.7 203.75 279.9 205.1 Q280.1 205.65 280.4 205.65 L280.9 205.1 281.1 203.75 280.9 202.4 M269.7 206.6 L269.7 198.45 269.7 206.6 M285.6 212.1 Q284.7 214.55 283.4 212.1 284.7 214.55 285.6 212.1 M283.0 203.6 L282.85 196.15 283.0 203.6" fill="#ccc24a" fill-rule="evenodd" stroke="none"/>
    <path d="M287.9 192.35 L287.95 192.7 286.15 193.9 Q287.95 195.35 285.15 199.85 284.65 196.95 282.85 196.15 L281.45 195.85 Q278.85 197.65 280.2 199.8 L278.0 197.0 Q275.8 199.4 276.4 202.8 L275.3 196.95 278.05 196.7 279.25 196.3 283.1 195.0 284.1 194.65 285.4 193.85 285.75 193.65 287.9 192.35 M286.0 216.55 Q282.8 218.2 279.7 218.9 L279.15 215.95 280.05 215.75 284.0 216.3 286.0 216.55" fill="#ab9258" fill-rule="evenodd" stroke="none"/>
    <path d="M286.7 200.4 L286.95 202.15 286.7 203.9 286.05 204.65 Q285.65 204.6 285.4 203.9 285.1 203.2 285.1 202.15 285.1 201.1 285.4 200.4 285.65 199.65 286.05 199.7 286.4 199.65 286.7 200.4 M280.9 202.4 L281.1 203.75 280.9 205.1 280.4 205.65 Q280.1 205.65 279.9 205.1 L279.7 203.75 279.9 202.4 Q280.1 201.85 280.4 201.85 280.7 201.85 280.9 202.4" fill="#5b4a2f" fill-rule="evenodd" stroke="none"/>
    <path d="M284.6 208.25 L284.95 208.7 285.1 209.8 284.95 210.9 284.6 211.35 284.25 210.9 Q284.1 210.45 284.1 209.8 284.1 209.15 284.25 208.7 L284.6 208.25" fill="#625028" fill-rule="evenodd" stroke="none"/>
    <path d="M260.5 176.2 L259.05 181.4 260.6 183.75 261.7 181.0 260.5 176.2 266.1 174.5 265.25 183.95 265.15 184.05 264.95 184.2 M287.8 189.65 L287.9 192.35 287.95 192.7 288.8 212.8 289.0 212.55 Q290.55 213.0 289.5 214.25 L289.35 214.4 289.3 214.15 288.85 214.7 285.95 216.45 286.0 216.55 Q282.8 218.2 279.7 218.9 270.4 220.85 262.35 214.05 L261.9 194.95 M262.35 186.9 L260.1 185.0 255.8 191.8 258.1 184.35 247.7 196.75 256.45 177.3 259.05 181.4 M258.1 184.35 L258.6 183.7 260.1 185.0 M262.45 186.7 L260.6 183.75 M262.35 186.9 L262.85 187.35 M261.25 190.4 L262.2 189.35 Q264.85 191.4 267.6 192.55 L267.8 196.0 265.55 195.3 265.45 194.6 M263.15 185.85 L261.7 181.0 M265.7 186.45 Q266.35 184.9 268.55 184.0 L268.9 183.85 Q271.45 182.85 275.95 182.65 M265.5 188.2 L265.75 188.75 Q271.95 193.0 280.45 190.3 283.0 189.45 285.85 187.95 M265.55 195.3 L265.25 195.2 261.85 192.9 M265.8 196.7 L265.55 195.3 M273.85 196.95 Q270.9 196.85 267.8 196.0 M283.1 195.0 L284.1 194.65 M285.4 193.85 L285.75 193.65 285.75 190.9 Q276.25 196.2 267.6 192.55 M275.3 196.95 L278.05 196.7 279.25 196.3 M273.85 196.95 L275.3 196.95 276.4 202.8 Q275.8 199.4 278.0 197.0 L280.2 199.8 Q278.85 197.65 281.45 195.85 L282.85 196.15 Q284.65 196.95 285.15 199.85 287.95 195.35 286.15 193.9 L287.95 192.7 M265.8 196.7 Q264.75 205.55 267.75 212.8 L267.9 212.95 269.7 214.55 269.5 211.3 M287.9 192.35 L285.75 193.65 M285.75 190.9 L287.8 189.65 M288.8 212.8 Q285.7 215.55 283.9 215.75 L284.0 216.3 286.0 216.55 M283.6 214.5 L283.9 215.75 M269.7 198.45 L269.7 206.6 M267.9 212.95 L266.95 216.4 M277.4 216.15 L279.15 215.95 280.05 215.75 284.0 216.3 M279.15 215.95 L279.7 218.9 M277.4 216.15 L277.85 207.2 M269.7 214.55 Q272.7 216.5 277.4 216.15 M282.85 196.15 L283.0 203.6" ffdec:has-small-stroke="true" ffdec:original-stroke-width="0.25" fill="none" stroke="#515004" stroke-linecap="round" stroke-linejoin="round" stroke-opacity="0.72156864" stroke-width="1.0"/>
    <path d="M265.25 183.95 Q269.35 180.95 281.15 181.8 289.3 184.3 287.8 189.65 M261.9 194.95 L261.85 192.9 261.0 192.25 261.25 190.4 262.0 189.2 Q261.55 188.2 262.35 186.9 L262.45 186.7 263.15 185.85 264.95 184.2 M262.2 189.35 L262.15 189.3 262.0 189.2" ffdec:has-small-stroke="true" ffdec:original-stroke-width="0.25" fill="none" stroke="#848a06" stroke-linecap="round" stroke-linejoin="round" stroke-opacity="0.72156864" stroke-width="1.0"/>
    <path d="M286.7 200.4 L286.95 202.15 286.7 203.9 286.05 204.65 Q285.65 204.6 285.4 203.9 285.1 203.2 285.1 202.15 285.1 201.1 285.4 200.4 285.65 199.65 286.05 199.7 286.4 199.65 286.7 200.4 M284.6 208.25 L284.95 208.7 285.1 209.8 284.95 210.9 284.6 211.35 284.25 210.9 Q284.1 210.45 284.1 209.8 284.1 209.15 284.25 208.7 L284.6 208.25 M280.9 202.4 L281.1 203.75 280.9 205.1 280.4 205.65 Q280.1 205.65 279.9 205.1 L279.7 203.75 279.9 202.4 Q280.1 201.85 280.4 201.85 280.7 201.85 280.9 202.4 M283.4 212.1 Q284.7 214.55 285.6 212.1" ffdec:has-small-stroke="true" ffdec:original-stroke-width="0.25" fill="none" stroke="#323203" stroke-linecap="round" stroke-linejoin="round" stroke-opacity="0.72156864" stroke-width="1.0"/>
  </g>
</svg>
