<?xml version="1.0" encoding="UTF-8" standalone="no"?>
<svg xmlns:ffdec="https://www.free-decompiler.com/flash" xmlns:xlink="http://www.w3.org/1999/xlink" ffdec:objectType="shape" height="48.95px" width="50.6px" xmlns="http://www.w3.org/2000/svg">
  <g transform="matrix(1.0, 0.0, 0.0, 1.0, -3.35, -23.0)">
    <path d="M52.15 42.2 L53.6 44.65 50.4 42.9 45.2 41.0 50.65 41.75 52.15 42.2" fill="#242931" fill-rule="evenodd" stroke="none"/>
    <path d="M11.7 37.15 Q10.1 47.75 16.4 40.5 18.7 37.85 23.35 38.15 16.8 41.75 16.0 48.55 L17.35 54.85 Q14.9 54.6 11.6 49.2 12.0 52.25 13.05 55.1 14.0 57.7 16.5 62.8 37.25 69.55 22.15 61.45 28.95 63.75 32.2 63.05 33.75 63.15 35.2 62.4 36.9 61.6 38.2 61.45 L33.9 66.25 Q31.55 68.3 28.35 68.3 20.95 68.3 17.2 66.95 13.4 65.6 13.95 67.55 L8.85 63.35 5.2 55.5 3.7 47.4 8.6 43.3 11.7 37.15 M38.95 47.1 L38.75 45.85 Q38.65 45.4 37.45 44.7 43.5 44.55 47.7 48.1 47.65 45.35 44.4 41.7 L47.55 44.15 Q49.6 46.15 49.6 48.4 L48.75 53.4 Q47.4 56.55 40.4 64.15 48.55 52.25 46.1 49.25 43.6 46.15 41.85 49.3 L39.1 56.45 Q41.7 49.1 38.95 47.1" fill="#414956" fill-rule="evenodd" stroke="none"/>
    <path d="M44.4 41.7 L43.45 41.1 43.0 40.25 42.4 39.95 Q35.75 37.15 28.85 38.05 32.7 35.0 42.8 37.8 45.95 38.45 48.15 39.95 L50.65 41.75 45.2 41.0 50.4 42.9 Q52.75 46.45 51.9 48.15 L47.55 44.15 44.4 41.7 M53.1 48.0 Q50.25 54.45 52.7 58.95 53.05 59.5 52.95 60.3 52.75 61.6 50.75 63.35 48.2 68.25 42.2 71.6 L37.75 69.55 34.3 70.25 Q20.1 69.3 13.95 67.55 13.4 65.6 17.2 66.95 20.95 68.3 28.35 68.3 31.55 68.3 33.9 66.25 L38.2 61.45 Q36.9 61.6 35.2 62.4 33.75 63.15 32.2 63.05 L33.25 62.5 Q36.7 60.15 39.1 56.45 L41.85 49.3 Q43.6 46.15 46.1 49.25 48.55 52.25 40.4 64.15 47.4 56.55 48.75 53.4 48.2 57.35 49.0 56.2 L53.1 48.0" fill="#313942" fill-rule="evenodd" stroke="none"/>
    <path d="M40.7 30.6 L29.2 29.75 Q32.85 31.25 34.3 33.0 28.35 31.4 16.75 36.7 15.8 34.95 26.05 29.5 L27.05 28.95 35.55 25.55 38.15 29.5 40.7 30.6 M13.05 55.1 Q18.8 60.35 25.3 60.9 28.0 61.1 30.05 59.65 L33.95 56.25 Q38.75 52.4 38.95 47.1 41.7 49.1 39.1 56.45 36.7 60.15 33.25 62.5 L32.2 63.05 Q28.95 63.75 22.15 61.45 37.25 69.55 16.5 62.8 14.0 57.7 13.05 55.1 M42.8 37.8 Q46.5 38.1 46.8 35.9 46.95 34.7 46.25 33.5 L52.15 42.2 50.65 41.75 48.15 39.95 Q45.95 38.45 42.8 37.8 M53.6 44.65 L53.1 48.0 49.0 56.2 Q48.2 57.35 48.75 53.4 L49.6 48.4 Q49.6 46.15 47.55 44.15 L51.9 48.15 Q52.75 46.45 50.4 42.9 L53.6 44.65" fill="#546767" fill-rule="evenodd" stroke="none"/>
    <path d="M40.7 30.6 L44.35 31.5 46.25 33.5 Q46.95 34.7 46.8 35.9 46.5 38.1 42.8 37.8 32.7 35.0 28.85 38.05 35.75 37.15 42.4 39.95 L43.0 40.25 43.45 41.1 44.4 41.7 Q47.65 45.35 47.7 48.1 43.5 44.55 37.45 44.7 38.65 45.4 38.75 45.85 L38.95 47.1 Q38.75 52.4 33.95 56.25 L30.05 59.65 Q28.0 61.1 25.3 60.9 18.8 60.35 13.05 55.1 12.0 52.25 11.6 49.2 14.9 54.6 17.35 54.85 L16.0 48.55 Q16.8 41.75 23.35 38.15 18.7 37.85 16.4 40.5 10.1 47.75 11.7 37.15 L15.3 31.4 Q21.15 26.75 29.55 23.35 L35.55 25.55 27.05 28.95 26.05 29.5 Q15.8 34.95 16.75 36.7 28.35 31.4 34.3 33.0 32.85 31.25 29.2 29.75 L40.7 30.6" fill="#65817e" fill-rule="evenodd" stroke="none"/>
    <path d="M52.15 42.2 L53.6 44.65 53.1 48.0 Q50.25 54.45 52.7 58.95 53.05 59.5 52.95 60.3 52.75 61.6 50.75 63.35 48.2 68.25 42.2 71.6 L37.75 69.55 34.3 70.25 Q20.1 69.3 13.95 67.55 M8.85 63.35 L5.2 55.5 3.7 47.4 8.6 43.3 11.7 37.15" ffdec:has-small-stroke="true" ffdec:original-stroke-width="0.75" fill="none" stroke="#242931" stroke-linecap="round" stroke-linejoin="round" stroke-width="1.0"/>
    <path d="M46.25 33.5 L44.35 31.5 40.7 30.6 38.15 29.5 35.55 25.55 29.55 23.35 Q21.15 26.75 15.3 31.4 L11.7 37.15 M46.25 33.5 L52.15 42.2 M13.95 67.55 L8.85 63.35" ffdec:has-small-stroke="true" ffdec:original-stroke-width="0.75" fill="none" stroke="#4f5966" stroke-linecap="round" stroke-linejoin="round" stroke-width="1.0"/>
  </g>
</svg>
