<?xml version="1.0" encoding="UTF-8" standalone="no"?>
<svg xmlns:ffdec="https://www.free-decompiler.com/flash" xmlns:xlink="http://www.w3.org/1999/xlink" ffdec:objectType="shape" height="49.45px" width="52.8px" xmlns="http://www.w3.org/2000/svg">
  <g transform="matrix(1.0, 0.0, 0.0, 1.0, -6.7, -21.6)">
    <path d="M9.85 35.1 L22.05 26.8 22.05 29.4 22.05 31.1 Q19.35 32.4 22.4 35.15 L22.4 38.95 Q28.9 39.3 31.0 36.0 L28.7 34.75 32.8 34.75 32.15 43.1 34.1 47.3 29.4 49.85 22.65 44.8 27.35 40.85 17.4 40.85 9.85 35.1" fill="#ffffff" fill-rule="evenodd" stroke="none"/>
    <path d="M43.45 41.1 L43.45 36.1 47.3 38.75 44.9 41.15 45.05 41.2 Q47.4 44.1 50.9 43.2 L50.65 41.1 52.5 42.35 59.15 46.9 48.05 46.9 43.45 41.1 M10.8 65.8 L7.05 59.55 8.55 56.5 14.4 52.55 20.95 54.65 10.8 65.8" fill="#e9efed" fill-rule="evenodd" stroke="none"/>
    <path d="M41.75 36.65 L42.0 33.85 Q39.1 32.6 38.65 36.5 L36.35 38.8 36.1 38.75 38.8 21.95 43.45 36.1 43.45 41.1 42.05 40.65 41.7 37.45 41.7 37.3 41.8 37.15 41.85 36.9 41.75 36.65 M37.5 38.75 Q39.1 36.85 39.7 34.5 L39.8 34.45 40.15 34.65 40.25 34.75 Q40.0 37.15 40.4 39.6 L40.35 39.85 40.1 40.0 39.95 40.05 Q38.2 39.75 37.55 39.25 L37.5 38.75 M46.3 40.85 L47.6 38.95 48.5 36.6 48.6 36.55 48.95 36.75 49.05 36.85 Q48.9 38.4 49.0 39.95 L49.15 41.45 Q48.75 40.95 48.0 41.15 L47.95 41.1 Q47.3 40.7 46.5 40.8 L46.3 40.85 M59.15 46.9 L49.65 67.4 42.85 67.4 40.95 60.6 44.15 54.45 Q42.95 59.25 47.35 60.55 L50.05 58.9 53.3 55.15 Q51.9 50.4 48.3 54.3 L44.25 54.3 48.05 46.9 59.15 46.9 M36.0 63.0 L20.85 70.7 10.8 65.8 20.95 54.65 29.4 49.85 34.1 47.3 38.8 44.75 36.0 63.0 M8.55 56.5 L11.05 51.45 14.4 52.55 8.55 56.5 M23.9 26.7 L25.25 27.8 25.2 28.0 25.1 28.25 24.65 28.35 24.6 28.3 Q23.9 27.6 22.85 28.0 L22.65 28.05 Q22.3 28.15 22.35 28.55 L22.35 28.65 22.7 28.95 22.45 28.9 Q22.05 28.65 22.15 28.2 L22.2 28.0 22.5 27.7 22.55 27.6 22.05 26.05 21.8 25.75 21.75 25.25 23.35 26.6 23.9 26.7 M13.15 42.7 L13.45 42.6 Q15.75 44.0 15.4 46.7 L15.4 46.8 18.0 46.9 Q18.45 47.85 17.6 48.45 L17.15 48.75 15.8 48.7 Q16.95 48.2 17.1 47.15 L17.05 47.05 16.55 46.9 Q15.85 47.2 15.15 47.8 L14.3 47.75 14.25 47.7 Q14.65 46.4 14.35 45.3 L14.6 45.25 14.85 44.95 14.85 44.85 Q14.25 43.55 13.15 42.7 M24.7 33.95 Q25.25 34.65 25.25 35.65 L25.15 36.15 Q26.45 35.9 27.75 36.5 L27.85 36.65 27.9 36.95 27.85 37.15 Q26.9 37.75 25.9 37.85 L25.85 37.65 25.8 37.55 25.6 37.35 25.35 37.3 23.45 37.0 23.45 37.05 23.15 37.15 23.05 37.25 23.05 37.3 Q22.85 36.3 22.95 35.2 L23.0 34.75 Q23.15 34.5 23.45 34.5 L21.45 32.4 21.4 32.25 21.7 31.9 21.9 31.85 Q22.3 31.95 22.55 32.15 L22.55 32.25 22.6 32.55 Q23.35 33.7 24.6 34.05 L24.7 33.95 M25.1 55.3 L25.15 55.3 25.35 55.3 25.5 55.4 25.6 55.5 26.2 56.1 24.05 57.4 23.7 56.45 Q23.8 55.75 24.7 56.1 L25.05 56.05 25.2 55.9 25.3 55.7 25.35 55.6 25.3 55.5 25.1 55.3 M21.65 57.75 Q20.2 59.8 22.5 60.7 L24.55 58.45 27.1 56.6 Q26.85 53.35 22.05 54.4 L22.05 56.7 21.95 56.75 21.85 57.05 21.65 57.75 M51.5 55.35 Q51.0 56.3 49.3 56.55 L46.75 56.3 Q47.6 56.9 48.05 57.75 47.1 57.4 46.35 56.85 L46.35 56.75 46.3 56.65 46.25 56.55 46.1 56.3 45.7 55.95 45.7 55.75 45.65 55.55 45.6 55.45 45.45 55.35 44.95 55.25 44.9 55.1 44.9 54.9 45.35 54.5 45.6 54.35 Q46.95 54.5 48.2 55.1 L50.85 53.4 51.4 53.5 51.5 53.55 51.6 54.05 Q50.55 54.45 50.25 55.5 L50.75 55.85 51.3 55.4 51.5 55.35" fill="#60859f" fill-rule="evenodd" stroke="none"/>
    <path d="M42.05 40.65 L43.45 41.1 48.05 46.9 44.25 54.3 44.1 54.3 44.15 54.45 40.95 60.6 42.85 67.4 36.0 63.0 38.8 44.75 34.1 47.3 32.15 43.1 38.1 43.1 36.25 39.1 36.75 40.0 37.1 40.45 Q39.05 43.0 42.1 41.1 L42.05 40.65 M36.1 38.75 L36.35 38.8 36.2 38.95 36.1 38.75 M11.05 51.45 L9.85 35.1 17.4 40.85 27.35 40.85 22.65 44.8 29.4 49.85 20.95 54.65 14.4 52.55 11.05 51.45 M13.4 48.5 L13.4 49.35 Q18.05 50.25 19.5 46.4 L16.4 44.0 13.95 41.1 Q10.8 42.3 13.4 45.55 L13.4 48.3 13.35 48.45 13.4 48.5" fill="#96aac2" fill-rule="evenodd" stroke="none"/>
    <path d="M38.8 21.95 L36.1 38.75 36.2 38.95 36.1 39.05 36.25 39.1 38.1 43.1 32.15 43.1 32.8 34.75 28.7 34.75 26.65 33.6 23.2 30.7 22.05 31.1 22.05 29.4 Q25.05 29.95 26.5 27.4 L24.25 25.75 29.15 21.95 33.85 21.95 38.8 21.95" fill="#d0dae3" fill-rule="evenodd" stroke="none"/>
    <path d="M36.35 38.8 L38.65 36.5 Q39.1 32.6 42.0 33.85 L41.75 36.65 41.3 35.0 41.2 34.9 40.85 34.75 Q40.75 34.75 40.7 34.85 40.1 35.85 40.8 37.05 L40.9 37.15 41.2 37.35 41.4 37.35 41.7 37.3 41.7 37.45 42.05 40.65 42.1 41.1 Q39.05 43.0 37.1 40.45 L38.75 40.9 38.9 40.75 39.0 40.35 Q38.75 39.9 38.2 39.95 L38.15 39.9 37.65 39.55 37.55 39.25 Q38.2 39.75 39.95 40.05 L40.1 40.0 40.35 39.85 40.4 39.6 Q40.0 37.15 40.25 34.75 L40.15 34.65 39.8 34.45 39.7 34.5 Q39.1 36.85 37.5 38.75 L37.4 38.65 37.05 38.5 36.95 38.55 Q36.55 39.4 36.75 40.0 L36.25 39.1 36.1 39.05 36.2 38.95 36.35 38.8 M49.15 41.45 L49.0 39.95 Q48.9 38.4 49.05 36.85 L48.95 36.75 48.6 36.55 48.5 36.6 47.6 38.95 46.3 40.85 Q46.1 40.9 46.05 41.1 L46.0 41.4 46.05 41.5 Q46.5 41.95 47.15 41.85 L47.35 42.0 47.45 42.1 Q48.25 42.35 49.0 42.1 L49.1 42.05 49.25 41.65 49.25 41.55 49.15 41.45 M50.55 38.75 L50.1 37.1 50.0 37.0 49.65 36.85 49.5 36.95 Q48.9 37.95 49.6 39.15 L49.7 39.25 50.0 39.45 50.2 39.45 50.5 39.4 50.5 39.55 50.65 41.1 50.9 43.2 Q47.4 44.1 45.05 41.2 L44.9 41.15 47.3 38.75 47.45 38.6 Q47.9 34.7 50.8 35.95 L50.55 38.75 M22.05 26.8 Q20.2 24.6 22.45 23.75 L24.25 25.75 26.5 27.4 Q25.05 29.95 22.05 29.4 L22.05 26.8 M44.25 54.3 L48.3 54.3 Q51.9 50.4 53.3 55.15 L50.05 58.9 47.35 60.55 Q42.95 59.25 44.15 54.45 L44.1 54.3 44.25 54.3 M23.9 26.7 L23.95 26.65 24.1 26.45 24.2 26.05 24.15 26.0 Q23.2 24.9 21.9 24.4 L21.7 24.5 Q21.4 24.6 21.4 24.9 L21.55 25.1 21.75 25.25 21.8 25.75 22.05 26.05 22.55 27.6 22.5 27.7 22.2 28.0 22.15 28.2 Q22.05 28.65 22.45 28.9 L22.7 28.95 Q23.35 29.4 24.4 28.95 L24.5 28.85 24.65 28.45 24.65 28.35 25.1 28.25 25.2 28.0 25.25 27.8 23.9 26.7 M13.15 42.7 L13.05 42.6 12.8 42.7 Q12.6 42.75 12.55 42.95 L12.55 43.05 Q13.0 44.55 14.35 45.3 14.65 46.4 14.25 47.7 L14.3 47.75 13.65 47.9 13.45 48.1 13.4 48.3 13.4 45.55 Q10.8 42.3 13.95 41.1 L16.4 44.0 19.5 46.4 Q18.05 50.25 13.4 49.35 L13.4 48.5 Q14.15 49.4 15.6 48.75 L15.8 48.7 17.15 48.75 17.6 48.45 Q18.45 47.85 18.0 46.9 L15.4 46.8 15.4 46.7 Q15.75 44.0 13.45 42.6 L13.15 42.7 M28.7 34.75 L31.0 36.0 Q28.9 39.3 22.4 38.95 L22.4 35.15 Q19.35 32.4 22.05 31.1 L23.2 30.7 26.65 33.6 28.7 34.75 M24.7 33.95 L24.75 33.9 24.9 33.5 24.8 33.35 23.4 31.85 23.3 31.75 23.05 31.65 22.9 31.7 22.6 31.95 22.55 32.15 Q22.3 31.95 21.9 31.85 L21.7 31.9 21.4 32.25 21.45 32.4 23.45 34.5 Q23.15 34.5 23.0 34.75 L22.95 35.2 Q22.85 36.3 23.05 37.3 L22.95 37.4 22.95 37.5 23.05 37.8 23.15 37.9 23.4 38.1 23.65 38.15 25.45 38.45 25.6 38.4 25.7 38.35 25.9 38.15 25.9 37.95 25.9 37.85 Q26.9 37.75 27.85 37.15 L27.9 36.95 27.85 36.65 27.75 36.5 Q26.45 35.9 25.15 36.15 L25.25 35.65 Q25.25 34.65 24.7 33.95 M24.05 57.4 L26.2 56.1 25.6 55.5 25.5 55.4 25.35 55.3 25.15 55.3 25.1 55.3 Q24.5 54.75 23.45 55.05 L23.3 55.1 22.85 55.45 22.75 55.55 22.65 55.85 22.6 56.2 22.4 56.4 22.4 56.5 Q22.2 56.55 22.05 56.7 L22.05 54.4 Q26.85 53.35 27.1 56.6 L24.55 58.45 22.5 60.7 Q20.2 59.8 21.65 57.75 L21.55 58.95 Q21.75 59.2 22.05 59.25 L22.2 59.1 22.6 58.55 22.55 58.7 Q22.85 59.2 23.4 59.0 L23.5 58.9 23.7 58.85 23.8 58.75 24.05 57.4 M22.8 57.95 L22.8 58.0 22.7 58.25 22.8 57.95 M22.65 56.6 L22.7 56.65 22.65 56.6 M51.5 55.35 Q52.45 55.05 52.7 54.15 L52.65 54.05 Q52.5 53.8 52.2 53.8 L52.0 53.9 51.6 54.05 51.5 53.55 51.4 53.5 50.85 53.4 48.2 55.1 Q46.95 54.5 45.6 54.35 L45.35 54.5 44.9 54.9 44.9 55.1 44.95 55.25 44.9 55.25 44.55 55.45 Q44.4 55.55 44.4 55.75 L44.5 56.0 46.15 58.15 47.95 58.6 48.2 58.2 48.15 57.8 48.05 57.75 Q47.6 56.9 46.75 56.3 L49.3 56.55 Q51.0 56.3 51.5 55.35" fill="#516c88" fill-rule="evenodd" stroke="none"/>
    <path d="M41.75 36.65 L41.85 36.9 41.8 37.15 41.7 37.3 41.4 37.35 41.2 37.35 40.9 37.15 40.8 37.05 Q40.1 35.85 40.7 34.85 40.75 34.75 40.85 34.75 L41.2 34.9 41.3 35.0 41.75 36.65 M50.5 39.4 L50.2 39.45 50.0 39.45 49.7 39.25 49.6 39.15 Q48.9 37.95 49.5 36.95 L49.65 36.85 50.0 37.0 50.1 37.1 50.55 38.75 50.65 39.0 50.6 39.25 50.5 39.4 M21.75 25.25 L21.55 25.1 21.4 24.9 Q21.4 24.6 21.7 24.5 L21.9 24.4 Q23.2 24.9 24.15 26.0 L24.2 26.05 24.1 26.45 23.95 26.65 23.9 26.7 23.35 26.6 21.75 25.25 M14.35 45.3 Q13.0 44.55 12.55 43.05 L12.55 42.95 Q12.6 42.75 12.8 42.7 L13.05 42.6 13.15 42.7 Q14.25 43.55 14.85 44.85 L14.85 44.95 14.6 45.25 14.35 45.3 M22.55 32.15 L22.6 31.95 22.9 31.7 23.05 31.65 23.3 31.75 23.4 31.85 24.8 33.35 24.9 33.5 24.75 33.9 24.7 33.95 24.6 34.05 Q23.35 33.7 22.6 32.55 L22.55 32.25 22.55 32.15 M23.5 58.9 L23.4 59.0 Q22.85 59.2 22.55 58.7 L22.6 58.55 22.7 58.25 22.8 58.0 22.8 57.95 22.85 56.75 23.05 56.85 23.4 56.8 23.5 56.75 23.75 57.55 23.5 58.9 M22.4 56.5 L22.4 56.4 22.6 56.2 22.55 56.35 22.55 56.45 22.6 56.55 22.65 56.6 22.45 56.5 22.4 56.5 M51.6 54.05 L52.0 53.9 52.2 53.8 Q52.5 53.8 52.65 54.05 L52.7 54.15 Q52.45 55.05 51.5 55.35 L51.3 55.4 50.75 55.85 50.25 55.5 Q50.55 54.45 51.6 54.05" fill="#c2d2da" fill-rule="evenodd" stroke="none"/>
    <path d="M22.6 58.55 L22.2 59.1 22.05 59.25 Q21.75 59.2 21.55 58.95 L21.65 57.75 21.85 57.05 21.95 56.75 22.05 56.7 Q22.2 56.55 22.4 56.5 L22.45 56.5 22.65 56.6 22.7 56.65 22.85 56.75 22.8 57.95 22.7 58.25 22.6 58.55" fill="#54788b" fill-rule="evenodd" stroke="none"/>
    <path d="M36.75 40.0 Q36.55 39.4 36.95 38.55 L37.05 38.5 37.4 38.65 37.5 38.75 37.55 39.25 37.65 39.55 38.15 39.9 38.2 39.95 Q38.75 39.9 39.0 40.35 L38.9 40.75 38.75 40.9 37.1 40.45 36.75 40.0 M49.15 41.45 L49.25 41.55 49.25 41.65 49.1 42.05 49.0 42.1 Q48.25 42.35 47.45 42.1 L47.35 42.0 47.15 41.85 Q46.5 41.95 46.05 41.5 L46.0 41.4 46.05 41.1 Q46.1 40.9 46.3 40.85 L46.5 40.8 Q47.3 40.7 47.95 41.1 L48.0 41.15 Q48.75 40.95 49.15 41.45 M24.65 28.35 L24.65 28.45 24.5 28.85 24.4 28.95 Q23.35 29.4 22.7 28.95 L22.35 28.65 22.35 28.55 Q22.3 28.15 22.65 28.05 L22.85 28.0 Q23.9 27.6 24.6 28.3 L24.65 28.35 M15.8 48.7 L15.6 48.75 Q14.15 49.4 13.4 48.5 L13.35 48.45 13.4 48.3 13.45 48.1 13.65 47.9 14.3 47.75 15.15 47.8 Q15.85 47.2 16.55 46.9 L17.05 47.05 17.1 47.15 Q16.95 48.2 15.8 48.7 M25.9 37.85 L25.9 37.95 25.9 38.15 25.7 38.35 25.6 38.4 25.45 38.45 23.65 38.15 23.4 38.1 23.15 37.9 23.05 37.8 22.95 37.5 22.95 37.4 23.05 37.3 23.05 37.25 23.15 37.15 23.45 37.05 23.45 37.0 25.35 37.3 25.6 37.35 25.8 37.55 25.85 37.65 25.9 37.85 M22.6 56.2 L22.65 55.85 22.75 55.55 22.85 55.45 23.3 55.1 23.45 55.05 Q24.5 54.75 25.1 55.3 L25.3 55.5 25.35 55.6 25.3 55.7 25.2 55.9 25.05 56.05 24.7 56.1 Q23.8 55.75 23.7 56.45 L23.7 56.5 23.65 56.6 23.5 56.75 23.4 56.8 23.05 56.85 22.85 56.75 22.7 56.65 22.65 56.6 22.6 56.55 22.55 56.45 22.55 56.35 22.6 56.2 M48.05 57.75 L48.15 57.8 48.2 58.2 47.95 58.6 46.15 58.15 44.5 56.0 44.4 55.75 Q44.4 55.55 44.55 55.45 L44.9 55.25 44.95 55.25 45.45 55.35 45.6 55.45 45.65 55.55 45.7 55.75 45.7 55.95 46.1 56.3 46.25 56.55 46.3 56.65 46.35 56.75 46.35 56.85 Q47.1 57.4 48.05 57.75" fill="#3a5563" fill-rule="evenodd" stroke="none"/>
    <path d="M50.65 41.1 L52.5 42.35 M10.8 65.8 L7.05 59.55 8.55 56.5 M9.85 35.1 L22.05 26.8 M24.25 25.75 L29.15 21.95 33.85 21.95 M43.45 36.1 L47.3 38.75" ffdec:has-small-stroke="true" ffdec:original-stroke-width="0.75" fill="none" stroke="#4f5966" stroke-linecap="round" stroke-linejoin="round" stroke-width="1.0"/>
    <path d="M52.5 42.35 L59.15 46.9 M49.65 67.4 L42.85 67.4 M8.55 56.5 L11.05 51.45 9.85 35.1" ffdec:has-small-stroke="true" ffdec:original-stroke-width="0.75" fill="none" stroke="#354f46" stroke-linecap="round" stroke-linejoin="round" stroke-width="1.0"/>
    <path d="M43.45 36.1 L38.8 21.95 33.85 21.95 M59.15 46.9 L49.65 67.4 M42.85 67.4 L36.0 63.0 20.85 70.7 10.8 65.8" ffdec:has-small-stroke="true" ffdec:original-stroke-width="0.75" fill="none" stroke="#486879" stroke-linecap="round" stroke-linejoin="round" stroke-width="1.0"/>
    <path d="M22.05 26.8 Q20.2 24.6 22.45 23.75 L24.25 25.75 26.5 27.4 Q25.05 29.95 22.05 29.4 L22.05 26.8 Z" ffdec:has-small-stroke="true" ffdec:original-stroke-width="0.05" fill="none" stroke="#669999" stroke-linecap="round" stroke-linejoin="round" stroke-width="1.0"/>
  </g>
</svg>
