<?xml version="1.0" encoding="UTF-8" standalone="no"?>
<svg xmlns:ffdec="https://www.free-decompiler.com/flash" xmlns:xlink="http://www.w3.org/1999/xlink" ffdec:objectType="shape" height="30.65px" width="23.85px" xmlns="http://www.w3.org/2000/svg">
  <g transform="matrix(1.0, 0.0, 0.0, 1.0, -387.25, -287.75)">
    <path d="M388.95 302.2 Q387.0 298.6 387.7 293.45 388.25 291.95 389.7 290.4 L390.1 290.55 Q394.65 290.45 396.25 292.55 397.9 294.5 399.2 298.1 L399.35 298.5 399.45 298.75 397.8 299.8 397.9 299.2 Q396.8 296.85 394.75 295.35 396.05 297.4 396.0 299.9 394.15 303.5 388.95 302.2 M392.35 297.0 L391.75 296.35 Q391.35 295.75 392.0 295.4 L394.85 297.85 Q395.05 298.5 394.3 298.7 L392.35 299.55 Q390.95 299.95 389.6 296.25 388.3 293.35 390.8 293.5 393.1 294.15 394.75 295.35 393.1 294.15 390.8 293.5 388.3 293.35 389.6 296.25 390.95 299.95 392.35 299.55 L394.3 298.7 Q395.05 298.5 394.85 297.85 L392.0 295.4 Q391.35 295.75 391.75 296.35 L392.35 297.0" fill="#d07304" fill-rule="evenodd" stroke="none"/>
    <path d="M390.1 290.55 Q393.9 289.6 397.1 288.0 402.2 290.0 403.05 292.75 L404.1 295.85 403.9 296.3 404.1 295.85 404.15 296.2 403.9 296.3 399.45 298.7 399.4 298.8 399.45 298.75 399.35 298.5 399.2 298.1 Q397.9 294.5 396.25 292.55 394.65 290.45 390.1 290.55 M403.95 298.45 L403.95 298.35 404.15 298.25 404.05 298.35 403.95 298.45" fill="#ffa616" fill-rule="evenodd" stroke="none"/>
    <path d="M388.95 302.2 Q394.15 303.5 396.0 299.9 396.05 297.4 394.75 295.35 396.8 296.85 397.9 299.2 L397.8 299.8 397.15 301.45 396.25 302.7 Q394.8 304.05 392.25 303.6 390.4 303.35 388.95 302.2" fill="#b25009" fill-rule="evenodd" stroke="none"/>
    <path d="M390.1 290.55 L389.7 290.4 Q388.25 291.95 387.7 293.45 387.0 298.6 388.95 302.2 390.4 303.35 392.25 303.6 394.8 304.05 396.25 302.7 L397.15 301.45 397.8 299.8 397.9 299.2 Q396.8 296.85 394.75 295.35 393.1 294.15 390.8 293.5 388.3 293.35 389.6 296.25 390.95 299.95 392.35 299.55 L394.3 298.7 Q395.05 298.5 394.85 297.85 L392.0 295.4 Q391.35 295.75 391.75 296.35 L392.35 297.0 M404.1 295.85 L403.05 292.75 Q402.2 290.0 397.1 288.0 393.9 289.6 390.1 290.55 M403.9 296.3 L404.1 295.85 404.15 296.2 M403.95 298.35 L403.95 298.45" ffdec:has-small-stroke="true" ffdec:original-stroke-width="0.5" fill="none" stroke="#000000" stroke-linecap="round" stroke-linejoin="round" stroke-opacity="0.3019608" stroke-width="1.0" vector-effect="non-scaling-stroke"/>
    <path d="M397.5 293.1 L398.5 294.5 399.0 295.5 399.1 295.8 399.8 297.5 399.9 297.85 400.0 298.05 400.3 297.8 400.35 297.75 400.55 297.55 401.0 297.25 400.95 297.35 400.95 297.4 Q396.35 307.65 397.75 311.1 399.15 314.55 402.95 315.45 396.05 315.55 393.35 311.55 391.9 307.65 393.5 302.25 398.55 298.25 397.5 293.1" fill="#d07304" fill-rule="evenodd" stroke="none"/>
    <path d="M400.95 297.4 L400.95 297.35 401.65 297.05 400.95 297.4 M404.8 295.6 L404.8 295.65 404.9 295.6 404.8 295.65 404.65 295.7 404.8 295.6" fill="#ffa616" fill-rule="evenodd" stroke="none"/>
    <path d="M402.95 315.45 Q399.15 314.55 397.75 311.1 396.35 307.65 400.95 297.4 L401.65 297.05 400.95 297.35 404.8 295.45 404.8 295.6 404.65 295.7 404.8 295.65 404.85 295.75 404.8 295.65 404.9 295.6 404.85 295.75 402.35 303.0 Q399.95 309.9 404.15 313.9 405.55 314.5 403.95 315.15 L402.95 315.45" fill="#ae5804" fill-rule="evenodd" stroke="none"/>
    <path d="M400.95 297.35 L401.0 297.25 400.55 297.55 400.35 297.75 400.3 297.8 400.0 298.05 399.9 297.85 399.8 297.5 399.1 295.8 399.0 295.5 398.5 294.5 397.5 293.1 Q400.1 291.0 402.3 291.15 403.6 292.2 404.25 293.8 L404.8 295.45 400.95 297.35" fill="#feb74e" fill-rule="evenodd" stroke="none"/>
    <path d="M393.5 302.25 Q391.9 307.65 393.35 311.55 396.05 315.55 402.95 315.45 L403.95 315.15 M404.8 295.45 L404.25 293.8 Q403.6 292.2 402.3 291.15 M404.8 295.6 L404.8 295.65 404.9 295.6 404.85 295.75 402.35 303.0 Q399.95 309.9 404.15 313.9 M404.8 295.45 L404.8 295.6 M404.85 295.75 L404.8 295.65" ffdec:has-small-stroke="true" ffdec:original-stroke-width="0.5" fill="none" stroke="#000000" stroke-linecap="round" stroke-linejoin="round" stroke-opacity="0.3019608" stroke-width="1.0" vector-effect="non-scaling-stroke"/>
    <path d="M403.0 317.1 L402.9 317.0 Q404.0 316.25 404.65 316.35 405.2 316.4 405.3 316.65 L405.65 317.3 405.8 318.0 404.95 318.1 Q404.05 317.9 403.0 317.1" fill="#b56022" fill-rule="evenodd" stroke="none"/>
    <path d="M403.0 317.1 Q404.05 317.9 404.95 318.1 L405.8 318.0 405.65 317.3 405.3 316.65 Q405.2 316.4 404.65 316.35 404.0 316.25 402.9 317.0 L403.0 317.1 Z" ffdec:has-small-stroke="true" ffdec:original-stroke-width="0.5" fill="none" stroke="#000000" stroke-linecap="round" stroke-linejoin="round" stroke-opacity="0.3019608" stroke-width="1.0" vector-effect="non-scaling-stroke"/>
    <path d="M406.1 315.8 L406.0 315.75 Q406.85 314.75 407.5 314.65 L408.25 314.7 408.8 315.3 409.1 315.9 Q409.1 316.15 408.3 316.25 L406.1 315.8" fill="#8f491b" fill-rule="evenodd" stroke="none"/>
    <path d="M406.1 315.8 L408.3 316.25 Q409.1 316.15 409.1 315.9 L408.8 315.3 408.25 314.7 407.5 314.65 Q406.85 314.75 406.0 315.75 L406.1 315.8 Z" ffdec:has-small-stroke="true" ffdec:original-stroke-width="0.5" fill="none" stroke="#000000" stroke-linecap="round" stroke-linejoin="round" stroke-opacity="0.3019608" stroke-width="1.0" vector-effect="non-scaling-stroke"/>
    <path d="M407.1 312.9 L407.3 312.85 407.9 313.0 Q408.7 313.5 408.5 314.65 L408.45 314.9 408.15 315.1 Q408.4 313.1 407.1 312.9" fill="#d07304" fill-rule="evenodd" stroke="none"/>
    <path d="M407.1 312.9 Q408.4 313.1 408.15 315.1 L408.45 314.9 408.3 315.15 407.15 315.9 406.95 315.95 Q406.35 316.0 406.05 315.65 L405.85 315.25 405.75 314.85 405.75 314.25 Q406.05 313.3 406.85 313.0 L407.1 312.9" fill="#7c4003" fill-rule="evenodd" stroke="none"/>
    <path d="M408.45 314.9 L408.5 314.65 Q408.7 313.5 407.9 313.0 L407.3 312.85 407.1 312.9 406.85 313.0 Q406.05 313.3 405.75 314.25 L405.75 314.85 405.85 315.25 406.05 315.65 M408.45 314.9 L408.3 315.15 407.15 315.9" ffdec:has-small-stroke="true" ffdec:original-stroke-width="0.05" fill="none" stroke="#332720" stroke-linecap="round" stroke-linejoin="round" stroke-opacity="0.2" stroke-width="1.0" vector-effect="non-scaling-stroke"/>
    <path d="M406.8 312.85 L406.75 312.85 406.8 312.85" fill="#d3c28e" fill-rule="evenodd" stroke="none"/>
    <path d="M406.75 312.85 L406.55 312.85 406.35 312.9 406.1 313.0 406.0 313.05 405.8 313.2 Q404.3 314.15 405.25 315.35 L404.75 315.2 Q404.15 314.85 404.2 314.25 L404.25 314.1 404.2 314.1 Q404.15 313.55 404.6 312.9 404.8 312.75 405.1 312.7 405.95 312.45 406.55 312.7 L406.75 312.85" fill="#d07304" fill-rule="evenodd" stroke="none"/>
    <path d="M406.75 312.85 L406.8 312.85 407.35 313.55 407.4 313.85 407.25 314.45 407.2 314.45 407.2 314.4 407.2 314.1 407.2 313.95 407.15 313.9 407.1 313.8 406.9 313.55 406.85 313.45 406.75 313.45 406.65 313.45 406.4 313.35 406.35 313.4 406.05 313.5 Q405.75 313.65 405.4 313.9 L405.2 314.3 405.15 314.3 405.15 314.45 405.1 314.8 405.1 314.9 405.3 315.3 405.3 315.35 405.25 315.35 Q404.3 314.15 405.8 313.2 L406.0 313.05 406.1 313.0 406.35 312.9 406.55 312.85 406.75 312.85" fill="#ffa616" fill-rule="evenodd" stroke="none"/>
    <path d="M405.3 315.3 L405.1 314.9 405.1 314.8 405.15 314.45 405.15 314.3 405.2 314.3 405.4 313.9 Q405.75 313.65 406.05 313.5 L406.35 313.4 406.4 313.35 406.65 313.45 406.75 313.45 406.85 313.45 406.9 313.55 407.1 313.8 407.15 313.9 407.2 313.95 407.2 314.1 407.2 314.4 407.2 314.45 407.15 314.45 407.15 314.5 Q406.65 314.9 405.3 315.3 M406.5 313.7 L406.5 313.65 406.5 313.7 M406.7 314.05 L406.9 314.0 406.9 313.95 406.75 314.05 406.7 314.05" fill="#ffd065" fill-rule="evenodd" stroke="none"/>
    <path d="M406.65 313.45 L406.75 313.45 406.65 313.45 M406.7 314.05 L406.75 314.05 406.9 313.95 406.9 314.0 406.7 314.05" fill="#cfd1b8" fill-rule="evenodd" stroke="none"/>
    <path d="M405.15 314.3 L405.2 314.3 405.15 314.3" fill="#9c9a5d" fill-rule="evenodd" stroke="none"/>
    <path d="M406.5 313.7 L406.5 313.65 406.5 313.7" fill="#eceadf" fill-rule="evenodd" stroke="none"/>
    <path d="M407.2 314.45 L407.25 314.45 407.15 314.6 407.1 314.6 407.15 314.55 407.15 314.5 407.15 314.45 407.2 314.45" fill="#9a275b" fill-rule="evenodd" stroke="none"/>
    <path d="M405.25 315.35 L405.3 315.35 405.3 315.4 405.45 315.55 405.6 315.65 405.6 315.7 405.65 315.75 405.65 315.8 405.6 315.9 Q404.4 316.0 403.95 315.25 403.7 314.8 403.75 314.25 L403.95 313.7 404.6 312.9 Q404.15 313.55 404.2 314.1 L404.2 314.25 Q404.15 314.85 404.75 315.2 L405.25 315.35 M407.25 314.45 L407.4 313.85 407.3 314.55 407.15 314.8 406.85 315.2 406.85 315.15 406.85 315.1 407.05 314.8 407.05 314.7 407.1 314.65 407.1 314.6 407.15 314.6 407.25 314.45" fill="#ae5804" fill-rule="evenodd" stroke="none"/>
    <path d="M405.3 315.35 L405.3 315.3 Q406.65 314.9 407.15 314.5 L407.15 314.55 407.1 314.6 407.1 314.65 407.05 314.7 407.05 314.8 406.85 315.1 406.85 315.15 406.75 315.3 406.65 315.35 406.1 315.7 406.05 315.75 406.0 315.75 405.6 315.9 405.65 315.8 405.65 315.75 405.6 315.7 405.6 315.65 405.45 315.55 405.3 315.4 405.3 315.35" fill="#eca602" fill-rule="evenodd" stroke="none"/>
    <path d="M404.2 314.1 L404.25 314.1 404.2 314.25 404.2 314.1" fill="#7c2150" fill-rule="evenodd" stroke="none"/>
    <path d="M406.85 315.15 L406.85 315.2 406.75 315.3 406.85 315.15" fill="#641c40" fill-rule="evenodd" stroke="none"/>
    <path d="M406.8 312.85 L406.75 312.85 406.55 312.7 Q405.95 312.45 405.1 312.7 404.8 312.75 404.6 312.9 L403.95 313.7 403.75 314.25 Q403.7 314.8 403.95 315.25 404.4 316.0 405.6 315.9 L405.65 315.8 405.65 315.75 405.6 315.7 405.6 315.65 405.45 315.55 405.3 315.4 405.3 315.35 405.3 315.3 405.1 314.9 405.1 314.8 405.15 314.45 405.15 314.3 405.2 314.3 405.4 313.9 Q405.75 313.65 406.05 313.5 L406.35 313.4 406.4 313.35 406.65 313.45 406.75 313.45 406.85 313.45 406.9 313.55 407.1 313.8 407.15 313.9 407.2 313.95 407.2 314.1 407.2 314.4 407.2 314.45 407.15 314.45 407.15 314.5 407.15 314.55 407.1 314.6 407.1 314.65 407.05 314.7 407.05 314.8 406.85 315.1 406.85 315.15 406.75 315.3 406.85 315.2 407.15 314.8 407.3 314.55 407.4 313.85 407.35 313.55 406.8 312.85 M405.15 314.3 L405.2 314.3 M406.65 315.35 L406.75 315.3 M405.6 315.9 L406.0 315.75" ffdec:has-small-stroke="true" ffdec:original-stroke-width="0.05" fill="none" stroke="#332720" stroke-linecap="round" stroke-linejoin="round" stroke-opacity="0.2" stroke-width="1.0" vector-effect="non-scaling-stroke"/>
    <path d="M406.55 315.25 L406.45 315.25 406.35 315.2 406.35 315.1 406.4 315.0 406.5 314.95 406.6 315.05 406.65 315.15 406.55 315.25" fill="#443927" fill-rule="evenodd" stroke="none"/>
    <path d="M406.55 315.25 L406.45 315.25 406.35 315.2 406.35 315.1 406.4 315.0 406.5 314.95 406.6 315.05 406.65 315.15 406.55 315.25 Z" ffdec:has-small-stroke="true" ffdec:original-stroke-width="0.5" fill="none" stroke="#000000" stroke-linecap="round" stroke-linejoin="round" stroke-opacity="0.3019608" stroke-width="1.0" vector-effect="non-scaling-stroke"/>
    <path d="M406.6 311.4 L406.65 311.3 406.7 311.25 406.75 311.2 406.8 311.25 406.8 311.3 406.8 311.35 406.75 311.35 406.7 311.35 406.6 311.4 M407.15 311.35 L407.2 311.35 407.4 311.3 407.3 311.45 407.3 311.4 407.2 311.4 407.15 311.35 M407.4 312.15 L407.45 312.15 407.5 312.25 407.5 312.35 407.4 312.3 407.4 312.25 407.4 312.15" fill="#9c9a5d" fill-rule="evenodd" stroke="none"/>
    <path d="M406.8 311.35 L406.8 311.3 406.8 311.25 406.75 311.2 406.8 311.2 406.85 311.35 406.8 311.35 M407.4 311.3 L407.4 311.4 407.35 311.5 407.3 311.45 407.4 311.3 M407.5 312.35 L407.4 312.4 407.3 312.35 407.4 312.3 407.5 312.35" fill="#7a7549" fill-rule="evenodd" stroke="none"/>
    <path d="M406.6 311.85 L406.6 311.8 406.65 311.8 406.6 311.85 M406.9 311.7 L406.9 311.75 406.85 311.85 406.8 311.8 406.85 311.75 406.9 311.7" fill="#561837" fill-rule="evenodd" stroke="none"/>
    <path d="M406.6 311.4 L406.7 311.35 406.75 311.35 406.8 311.35 406.85 311.35 406.9 311.4 406.85 311.45 406.85 311.55 406.9 311.65 406.9 311.5 406.95 311.4 407.0 311.4 407.1 311.35 407.15 311.35 407.2 311.4 407.3 311.4 407.3 311.45 407.35 311.5 407.35 311.55 407.35 311.6 407.35 311.65 407.3 311.7 407.25 311.8 407.2 311.95 407.25 312.0 407.3 312.0 407.35 312.05 407.4 312.05 407.4 312.15 407.4 312.25 407.4 312.3 407.3 312.35 407.25 312.35 407.2 312.4 407.15 312.4 406.9 312.25 406.8 312.25 406.75 312.2 406.7 312.2 406.65 312.2 406.6 312.1 406.55 312.0 406.6 311.9 406.6 311.85 406.65 311.8 406.6 311.8 406.6 311.75 406.65 311.75 406.6 311.7 406.55 311.55 406.55 311.5 406.6 311.4 M406.9 311.7 L406.9 311.65 406.9 311.7 406.85 311.75 406.8 311.8 406.85 311.85 406.9 311.75 406.9 311.7" fill="#854303" fill-rule="evenodd" stroke="none"/>
    <path d="M406.75 311.2 L406.7 311.25 406.65 311.3 406.6 311.4 406.7 311.35 406.75 311.35 406.8 311.35 406.85 311.35 406.9 311.4 406.85 311.45 406.85 311.55 406.9 311.65 406.9 311.5 406.95 311.4 407.0 311.4 407.1 311.35 407.15 311.35 407.2 311.35 407.4 311.3 407.4 311.4 407.35 311.5 407.35 311.55 407.35 311.6 407.35 311.65 407.3 311.7 407.25 311.8 407.2 311.95 407.25 312.0 407.3 312.0 407.35 312.05 407.4 312.05 407.4 312.15 407.45 312.15 407.5 312.25 407.5 312.35 407.4 312.4 407.3 312.35 407.25 312.35 407.2 312.4 407.15 312.4 406.9 312.25 406.8 312.25 406.75 312.2 M406.75 311.2 L406.8 311.2 406.85 311.35 M406.55 312.0 L406.6 311.9 406.6 311.85 406.6 311.8 406.6 311.75 406.65 311.75 406.6 311.7 406.55 311.55 406.55 311.5 406.6 311.4 M407.3 311.45 L407.3 311.4 407.2 311.4 407.15 311.35 M406.9 311.65 L406.9 311.7 406.85 311.75 406.8 311.8 M407.35 311.5 L407.3 311.45 M407.4 312.3 L407.4 312.25 407.4 312.15 M407.4 312.3 L407.3 312.35" ffdec:has-small-stroke="true" ffdec:original-stroke-width="0.05" fill="none" stroke="#332720" stroke-linecap="round" stroke-linejoin="round" stroke-opacity="0.2" stroke-width="1.0" vector-effect="non-scaling-stroke"/>
    <path d="M407.1 311.85 L407.15 311.95 407.1 312.2 406.95 312.2 406.45 312.2 405.7 312.35 405.65 312.2 405.55 312.05 405.55 311.9 405.55 311.8 405.5 311.75 406.6 311.6 406.8 311.65 406.9 311.7 406.95 311.75 407.05 311.85 407.1 311.85" fill="#ae5804" fill-rule="evenodd" stroke="none"/>
    <path d="M405.7 312.35 L406.45 312.2 406.95 312.2 407.1 312.2 407.05 312.3 406.0 312.55 405.95 312.55 405.85 312.45 405.7 312.35" fill="#854303" fill-rule="evenodd" stroke="none"/>
    <path d="M407.1 311.85 L407.05 311.85 406.95 311.75 406.9 311.7 406.8 311.65 406.6 311.6 405.5 311.75 M407.05 312.3 L406.0 312.55" ffdec:has-small-stroke="true" ffdec:original-stroke-width="0.05" fill="none" stroke="#332720" stroke-linecap="round" stroke-linejoin="round" stroke-opacity="0.2" stroke-width="1.0" vector-effect="non-scaling-stroke"/>
    <path d="M405.95 311.8 L406.0 311.8 406.1 311.85 406.3 312.0 406.4 312.15 406.45 312.3 406.5 312.35 406.5 312.45 406.45 312.55 406.4 312.55 406.2 312.6 406.0 312.65 405.85 312.7 405.5 312.9 405.35 313.1 405.3 313.05 405.2 313.15 404.95 313.25 404.95 313.3 404.85 313.25 404.8 313.25 404.45 313.05 404.4 313.05 404.4 313.1 404.4 313.25 404.4 313.3 404.35 313.3 404.0 313.35 403.95 313.0 403.95 312.75 403.95 312.65 403.95 312.6 404.0 312.55 404.1 312.5 404.35 312.35 404.65 312.15 404.75 312.1 405.6 311.8 405.75 311.8 405.85 311.8 405.9 311.8 405.95 311.8" fill="#d07304" fill-rule="evenodd" stroke="none"/>
    <path d="M404.0 313.35 L404.35 313.3 404.4 313.3 404.4 313.25 404.4 313.1 404.4 313.05 404.45 313.05 404.8 313.25 404.85 313.25 404.95 313.3 404.95 313.25 405.2 313.15 405.3 313.05 405.35 313.1 405.5 312.9 405.85 312.7 406.0 312.65 406.2 312.6 406.4 312.55 406.45 312.55 406.5 312.45 406.5 312.35 406.5 312.4 406.55 312.45 406.55 312.5 406.55 312.6 406.55 312.75 406.35 312.8 406.1 312.95 405.4 313.35 405.35 313.35 405.3 313.4 405.2 313.45 404.9 313.6 404.75 313.65 404.7 313.7 404.55 313.75 404.5 313.8 404.4 313.8 404.2 313.7 404.15 313.6 404.05 313.5 404.0 313.35 M404.8 313.25 L404.8 313.3 404.95 313.35 405.15 313.3 405.35 313.35 405.15 313.3 404.95 313.35 404.8 313.3 404.8 313.25 M406.45 312.55 L406.25 312.7 405.9 312.8 405.65 312.95 405.35 313.1 405.65 312.95 405.9 312.8 406.25 312.7 406.45 312.55" fill="#b75c04" fill-rule="evenodd" stroke="none"/>
    <path d="M405.95 311.8 L405.9 311.8 405.85 311.8 405.75 311.8 405.6 311.8 404.75 312.1 404.65 312.15 404.35 312.35 404.1 312.5 404.0 312.55 403.95 312.6 403.95 312.65 403.95 312.75 403.95 313.0 404.0 313.35 404.05 313.5 404.15 313.6 404.2 313.7 404.4 313.8 M406.5 312.35 L406.45 312.3 M405.35 313.35 L405.15 313.3 404.95 313.35 404.8 313.3 404.8 313.25 M406.55 312.75 L406.55 312.6 406.55 312.5 406.55 312.45 406.5 312.4 406.5 312.35 M405.35 313.1 L405.65 312.95 405.9 312.8 406.25 312.7 406.45 312.55" ffdec:has-small-stroke="true" ffdec:original-stroke-width="0.05" fill="none" stroke="#332720" stroke-linecap="round" stroke-linejoin="round" stroke-opacity="0.2" stroke-width="1.0" vector-effect="non-scaling-stroke"/>
    <path d="M405.35 311.15 Q405.25 311.55 404.2 311.55 404.35 312.05 403.9 312.6 L403.85 312.55 403.95 312.1 Q404.1 311.6 403.75 310.3 L403.4 309.2 Q403.4 308.25 404.25 309.35 L405.35 311.15" fill="#7c4003" fill-rule="evenodd" stroke="none"/>
    <path d="M405.35 311.15 L406.15 312.45 403.9 312.6 Q404.35 312.05 404.2 311.55 405.25 311.55 405.35 311.15" fill="#be6105" fill-rule="evenodd" stroke="none"/>
    <path d="M406.15 312.45 L405.35 311.15 404.25 309.35 Q403.4 308.25 403.4 309.2 L403.75 310.3 Q404.1 311.6 403.95 312.1 L403.85 312.55" ffdec:has-small-stroke="true" ffdec:original-stroke-width="0.05" fill="none" stroke="#000000" stroke-linecap="round" stroke-linejoin="round" stroke-opacity="0.2" stroke-width="1.0"/>
    <path d="M402.7 316.5 L402.65 316.4 402.6 316.15 402.65 315.5 Q403.05 314.45 404.0 314.3 L405.2 314.45 Q406.0 315.0 405.9 316.0 L405.9 316.05 Q405.5 317.1 403.6 316.95 402.8 316.85 402.7 316.5 M403.4 314.75 Q403.15 314.95 403.2 315.15 L403.55 315.35 404.2 315.3 404.85 315.0 405.0 314.6 Q404.95 314.4 404.65 314.35 L404.0 314.4 403.4 314.75" fill="#d07304" fill-rule="evenodd" stroke="none"/>
    <path d="M403.4 314.75 L404.0 314.4 404.65 314.35 Q404.95 314.4 405.0 314.6 L404.85 315.0 404.2 315.3 403.55 315.35 403.2 315.15 Q403.15 314.95 403.4 314.75" fill="#ffa616" fill-rule="evenodd" stroke="none"/>
    <path d="M402.7 316.5 Q402.8 316.85 403.6 316.95 405.5 317.1 405.9 316.05 L405.8 316.3 405.5 316.8 Q404.8 317.45 403.85 317.45 402.95 317.45 402.7 316.5" fill="#8d4803" fill-rule="evenodd" stroke="none"/>
    <path d="M405.9 316.05 L405.9 316.0 Q406.0 315.0 405.2 314.45 L404.0 314.3 Q403.05 314.45 402.65 315.5 L402.6 316.15 402.65 316.4 M402.7 316.5 Q402.95 317.45 403.85 317.45 404.8 317.45 405.5 316.8 L405.8 316.3 405.9 316.05" ffdec:has-small-stroke="true" ffdec:original-stroke-width="0.05" fill="none" stroke="#332720" stroke-linecap="round" stroke-linejoin="round" stroke-opacity="0.2" stroke-width="1.0" vector-effect="non-scaling-stroke"/>
    <path d="M403.0 313.6 L403.0 313.55 403.0 313.45 403.05 313.3 403.1 313.1 Q403.25 312.75 403.95 312.35 L404.0 312.4 404.1 312.45 404.15 312.6 404.25 312.75 404.3 312.9 403.7 313.4 403.35 313.75 403.3 313.85 403.25 313.85 Q403.1 313.85 403.05 313.7 L403.05 313.65 403.0 313.6" fill="#d07304" fill-rule="evenodd" stroke="none"/>
    <path d="M403.3 313.85 L403.35 313.75 403.7 313.4 404.3 312.9 404.35 313.05 404.3 313.2 Q403.75 313.45 403.4 313.85 L403.3 313.85" fill="#ae5804" fill-rule="evenodd" stroke="none"/>
    <path d="M403.0 313.6 L403.05 313.65 M403.95 312.35 Q403.25 312.75 403.1 313.1 L403.05 313.3 403.0 313.45 403.0 313.55 M403.4 313.85 Q403.75 313.45 404.3 313.2" ffdec:has-small-stroke="true" ffdec:original-stroke-width="0.05" fill="none" stroke="#332720" stroke-linecap="round" stroke-linejoin="round" stroke-opacity="0.2" stroke-width="1.0" vector-effect="non-scaling-stroke"/>
    <path d="M402.5 313.35 L402.55 313.4 402.5 313.45 402.5 313.35" fill="#9a275b" fill-rule="evenodd" stroke="none"/>
    <path d="M402.55 313.4 L402.65 313.35 402.7 313.35 402.75 313.4 402.8 313.45 402.75 313.45 402.55 313.45 402.45 313.5 402.5 313.45 402.55 313.4 M403.45 313.9 L403.5 313.85 403.55 313.85 403.6 313.9 403.6 313.95 403.65 314.0 403.65 314.05 403.65 314.1 403.6 314.2 403.55 314.15 403.45 314.0 403.45 313.9 M402.3 313.75 L402.35 313.7 402.4 313.7 402.45 313.75 402.45 313.8 402.3 313.9 402.25 313.95 402.3 313.8 402.3 313.75" fill="#cfd1b8" fill-rule="evenodd" stroke="none"/>
    <path d="M402.45 313.5 L402.55 313.45 402.75 313.45 402.8 313.45 402.8 313.5 402.75 313.55 402.7 313.6 402.65 313.6 402.55 313.55 402.45 313.5 M403.45 314.1 L403.4 314.1 403.4 314.0 403.45 313.9 403.45 314.0 403.55 314.15 403.6 314.2 403.55 314.15 403.45 314.1 M402.45 313.8 L402.5 313.8 402.5 313.9 402.45 313.95 402.4 313.95 402.35 313.95 402.25 313.95 402.3 313.9 402.45 313.8" fill="#9c9a5d" fill-rule="evenodd" stroke="none"/>
    <path d="M403.2 313.7 L403.2 313.65 403.2 313.7 M402.85 313.7 L402.9 313.7 403.05 313.75 403.0 313.75 402.95 313.75 402.85 313.7" fill="#5e1a3c" fill-rule="evenodd" stroke="none"/>
    <path d="M402.8 313.45 L402.85 313.5 402.9 313.45 402.95 313.5 403.1 313.6 403.15 313.65 403.15 313.7 403.2 313.7 403.35 313.9 403.4 313.9 403.45 313.9 403.4 314.0 403.4 314.1 403.45 314.1 403.4 314.1 403.3 314.1 403.25 314.0 403.25 313.95 403.2 314.0 403.15 314.0 403.0 314.0 402.85 313.95 402.8 313.9 402.75 313.9 402.75 313.95 402.65 313.95 402.5 314.0 402.4 313.95 402.45 313.95 402.5 313.9 402.5 313.8 402.45 313.8 402.55 313.8 402.7 313.7 402.75 313.7 402.6 313.65 402.55 313.55 402.65 313.6 402.7 313.6 402.75 313.55 402.8 313.5 402.8 313.45 M402.85 313.7 L402.8 313.7 402.75 313.7 402.8 313.7 402.85 313.7 402.95 313.75 403.0 313.75 403.05 313.75 402.9 313.7 402.85 313.7" fill="#854303" fill-rule="evenodd" stroke="none"/>
    <path d="M402.5 313.35 L402.6 313.3 402.6 313.25 402.75 313.25 402.85 313.25 403.0 313.35 403.1 313.35 403.5 313.45 403.55 313.45 403.55 313.65 403.65 313.8 403.65 313.9 403.65 314.0 403.6 313.95 403.6 313.9 403.55 313.85 403.5 313.85 403.45 313.9 403.4 313.9 403.35 313.9 403.2 313.7 403.15 313.7 403.15 313.65 403.1 313.6 402.95 313.5 402.9 313.45 402.85 313.5 402.8 313.45 402.75 313.4 402.7 313.35 402.65 313.35 402.55 313.4 402.5 313.35 M403.2 313.7 L403.2 313.65 403.2 313.7 M402.55 313.55 L402.6 313.65 402.75 313.7 402.7 313.7 402.55 313.8 402.45 313.8 402.45 313.75 402.4 313.7 402.35 313.7 402.3 313.75 402.3 313.65 402.4 313.65 402.5 313.55 402.55 313.55" fill="#d07304" fill-rule="evenodd" stroke="none"/>
    <path d="M403.1 313.35 L403.0 313.35 402.85 313.25 402.75 313.25 402.6 313.25 402.6 313.3 402.5 313.35 402.5 313.45 402.55 313.4 402.65 313.35 402.7 313.35 402.75 313.4 402.8 313.45 402.8 313.5 402.75 313.55 402.7 313.6 402.65 313.6 402.55 313.55 402.6 313.65 402.75 313.7 402.8 313.7 402.85 313.7 402.9 313.7 403.05 313.75 403.0 313.75 402.95 313.75 402.85 313.7 M403.45 313.9 L403.5 313.85 403.55 313.85 403.6 313.9 403.6 313.95 403.65 314.0 403.65 313.9 403.65 313.8 403.55 313.65 403.55 313.45 M402.5 313.45 L402.45 313.5 402.55 313.55 402.5 313.55 402.4 313.65 402.3 313.65 402.3 313.75 402.35 313.7 402.4 313.7 402.45 313.75 402.45 313.8 402.5 313.8 402.5 313.9 402.45 313.95 402.4 313.95 402.35 313.95 402.25 313.95 402.3 313.8 402.3 313.75 M402.4 313.95 L402.5 314.0 402.65 313.95 402.75 313.95 402.75 313.9 402.8 313.9 402.85 313.95 403.0 314.0 403.15 314.0 403.2 314.0 403.25 313.95 403.25 314.0 403.3 314.1 403.4 314.1 403.45 314.1 403.4 314.1 403.4 314.0 403.45 313.9 M403.6 314.2 L403.65 314.1 403.65 314.05 403.65 314.0 M403.45 314.1 L403.55 314.15 403.6 314.2" ffdec:has-small-stroke="true" ffdec:original-stroke-width="0.05" fill="none" stroke="#332720" stroke-linecap="round" stroke-linejoin="round" stroke-opacity="0.2" stroke-width="1.0" vector-effect="non-scaling-stroke"/>
    <path d="M406.95 298.05 L406.95 298.0 406.55 297.35 406.95 298.05 406.55 297.35 406.95 298.0 406.95 298.05 406.95 298.1 407.05 298.1 407.35 299.7 408.05 303.35 408.3 304.85 408.2 304.9 408.15 304.9 408.05 304.9 407.85 305.0 407.35 305.05 Q407.2 304.9 407.15 305.05 L406.95 305.05 406.4 303.65 Q405.9 302.3 406.25 301.05 406.6 299.9 406.55 297.35 L406.95 298.05 M408.2 304.9 L408.05 304.9 408.2 304.9 M407.15 305.05 L407.2 305.05 407.2 305.1 407.15 305.05" fill="#9e5104" fill-rule="evenodd" stroke="none"/>
    <path d="M407.15 305.05 Q407.2 304.9 407.35 305.05 L407.25 305.05 407.2 305.05 407.15 305.05 M408.3 304.85 L408.05 303.35 407.35 299.7 407.05 298.1 406.95 298.1 406.95 298.05 407.0 298.05 407.0 298.1 407.05 298.1 407.55 298.6 407.95 299.05 Q408.8 300.1 409.35 301.7 409.2 302.6 409.2 304.3 L408.3 304.85" fill="#d27e02" fill-rule="evenodd" stroke="none"/>
    <path d="M407.0 298.05 L406.95 298.05 407.0 298.05" fill="#8b4805" fill-rule="evenodd" stroke="none"/>
    <path d="M406.95 298.05 L406.55 297.35 406.95 298.0 406.95 298.05 406.55 297.35 Q406.6 299.9 406.25 301.05 405.9 302.3 406.4 303.65 L406.95 305.05 M407.85 305.0 L408.05 304.9 408.2 304.9 408.3 304.85 409.2 304.3 Q409.2 302.6 409.35 301.7 408.8 300.1 407.95 299.05 L407.55 298.6 407.05 298.1 406.95 298.1 406.95 298.05 407.0 298.05 407.0 298.1 407.05 298.1 M408.2 304.9 L408.15 304.9 408.05 304.9" ffdec:has-small-stroke="true" ffdec:original-stroke-width="0.5" fill="none" stroke="#000000" stroke-linecap="round" stroke-linejoin="round" stroke-opacity="0.2" stroke-width="1.0" vector-effect="non-scaling-stroke"/>
    <path d="M408.25 301.95 Q409.0 303.25 409.1 307.4 406.6 304.35 403.55 303.85 403.7 301.55 405.65 301.15 L406.2 301.25 407.15 301.4 408.25 301.95" fill="#ffd065" fill-rule="evenodd" stroke="none"/>
    <path d="M403.55 303.85 Q404.0 311.7 410.0 310.65 L410.05 310.65 410.0 310.8 409.65 311.25 409.5 311.3 409.45 311.4 409.35 311.55 409.25 311.55 409.15 311.65 408.85 311.75 408.6 311.95 408.55 311.95 406.8 312.35 406.05 312.15 405.8 312.05 405.75 312.05 Q403.85 311.35 402.55 309.8 L401.65 308.55 Q400.75 306.45 401.5 303.65 L402.15 303.7 403.55 303.85" fill="#d07304" fill-rule="evenodd" stroke="none"/>
    <path d="M403.55 303.85 Q406.6 304.35 409.1 307.4 409.0 303.25 408.25 301.95 409.3 302.7 410.0 304.15 L410.0 304.2 410.15 304.45 Q410.7 306.0 410.85 307.4 410.9 309.15 410.1 310.55 L410.05 310.65 410.0 310.65 Q404.0 311.7 403.55 303.85" fill="#ffa616" fill-rule="evenodd" stroke="none"/>
    <path d="M405.65 301.15 Q403.7 301.55 403.55 303.85 L402.15 303.7 401.5 303.65 401.55 303.6 401.6 303.5 Q402.6 301.1 405.35 301.15 L405.65 301.15 M401.55 303.6 L401.0 303.65 401.55 303.6" fill="#fbb30d" fill-rule="evenodd" stroke="none"/>
    <path d="M410.1 310.55 Q410.9 309.15 410.85 307.4 410.7 306.0 410.15 304.45 L410.0 304.2 410.0 304.15 Q409.3 302.7 408.25 301.95 L407.15 301.4 406.2 301.25 M401.5 303.65 Q400.75 306.45 401.65 308.55 L402.55 309.8 Q403.85 311.35 405.75 312.05 M405.8 312.05 L406.05 312.15 406.8 312.35 408.55 311.95 408.6 311.95 408.85 311.75 409.15 311.65 409.25 311.55 409.35 311.55 409.45 311.4 M409.65 311.25 L410.0 310.8 M401.55 303.6 L401.6 303.5 Q402.6 301.1 405.35 301.15 L405.65 301.15 M401.55 303.6 L401.5 303.65" ffdec:has-small-stroke="true" ffdec:original-stroke-width="0.5" fill="none" stroke="#000000" stroke-linecap="round" stroke-linejoin="round" stroke-opacity="0.3019608" stroke-width="1.0" vector-effect="non-scaling-stroke"/>
    <path d="M410.05 310.65 L410.1 310.55 M410.0 310.8 L410.05 310.65" ffdec:has-small-stroke="true" ffdec:original-stroke-width="0.05" fill="none" stroke="#000000" stroke-linecap="round" stroke-linejoin="round" stroke-opacity="0.2" stroke-width="1.0"/>
    <path d="M402.8 306.55 L402.75 306.55 402.65 306.55 401.25 306.1 401.4 305.0 400.65 304.9 400.2 304.8 400.15 304.85 399.35 304.55 398.45 304.0 398.05 303.6 397.55 302.85 397.55 302.8 397.55 302.7 397.1 302.05 Q399.1 303.05 400.2 303.0 401.25 303.0 402.2 304.05 L403.2 305.2 402.9 306.25 402.8 306.55" fill="#ffa616" fill-rule="evenodd" stroke="none"/>
    <path d="M402.65 306.55 L402.75 306.55 402.8 306.55 401.95 307.7 399.85 307.05 Q398.7 305.75 398.1 304.35 L397.8 303.75 397.55 302.85 398.05 303.6 398.45 304.0 399.35 304.55 400.15 304.85 400.2 304.8 400.65 304.9 Q400.2 305.35 399.5 305.45 L399.05 305.5 400.05 306.8 Q401.75 307.5 402.65 306.55 M400.15 304.85 Q399.85 304.8 399.4 305.15 L399.5 305.45 399.4 305.15 Q399.85 304.8 400.15 304.85 M398.75 304.8 Q399.2 304.85 399.35 304.55 399.2 304.85 398.75 304.8" fill="#d07304" fill-rule="evenodd" stroke="none"/>
    <path d="M400.65 304.9 L401.4 305.0 401.25 306.1 402.65 306.55 Q401.75 307.5 400.05 306.8 L399.05 305.5 399.5 305.45 Q399.6 306.1 400.05 306.5 399.6 306.1 399.5 305.45 400.2 305.35 400.65 304.9 M402.2 306.7 Q401.5 307.15 400.05 306.05 401.5 307.15 402.2 306.7" fill="#9e5104" fill-rule="evenodd" stroke="none"/>
    <path d="M402.65 306.55 L402.75 306.55 402.8 306.55 402.9 306.25 M403.2 305.2 L402.2 304.05 Q401.25 303.0 400.2 303.0 399.1 303.05 397.1 302.05 L397.55 302.7 397.55 302.8 397.55 302.85 398.05 303.6 398.45 304.0 399.35 304.55 400.15 304.85 400.2 304.8 400.65 304.9 401.4 305.0 401.25 306.1 402.65 306.55 M399.5 305.45 L399.4 305.15 Q399.85 304.8 400.15 304.85 M402.8 306.55 L401.95 307.7 399.85 307.05 Q398.7 305.75 398.1 304.35 L397.8 303.75 397.55 302.85 397.1 302.05 397.55 302.8 M399.35 304.55 Q399.2 304.85 398.75 304.8 M399.5 305.45 Q399.6 306.1 400.05 306.5 M400.05 306.05 Q401.5 307.15 402.2 306.7" ffdec:has-small-stroke="true" ffdec:original-stroke-width="0.5" fill="none" stroke="#000000" stroke-linecap="round" stroke-linejoin="round" stroke-opacity="0.2" stroke-width="1.0" vector-effect="non-scaling-stroke"/>
    <path d="M409.7 303.35 Q411.95 307.45 410.2 310.9 409.5 308.15 409.75 304.4 L409.9 305.5 Q410.05 304.5 409.7 303.35" fill="#d07304" fill-rule="evenodd" stroke="none"/>
    <path d="M409.75 304.4 Q409.5 308.15 410.2 310.9" ffdec:has-small-stroke="true" ffdec:original-stroke-width="0.5" fill="none" stroke="#000000" stroke-linecap="round" stroke-linejoin="round" stroke-opacity="0.3019608" stroke-width="1.0" vector-effect="non-scaling-stroke"/>
    <path d="M409.7 303.35 Q410.05 304.5 409.9 305.5 L409.75 304.4" ffdec:has-small-stroke="true" ffdec:original-stroke-width="0.05" fill="none" stroke="#000000" stroke-linecap="round" stroke-linejoin="round" stroke-opacity="0.2" stroke-width="1.0"/>
    <path d="M403.15 305.6 Q404.35 306.75 406.1 307.2 L405.9 306.15 Q408.9 308.9 409.0 311.5 404.8 311.65 403.15 305.6" fill="#d07304" fill-rule="evenodd" stroke="none"/>
    <path d="M409.0 311.5 L409.0 311.6 406.3 311.85 Q403.7 311.15 403.15 305.6 404.8 311.65 409.0 311.5" fill="#8d4803" fill-rule="evenodd" stroke="none"/>
    <path d="M409.0 311.5 L409.0 311.6 M406.3 311.85 Q403.7 311.15 403.15 305.6 M405.9 306.15 Q408.9 308.9 409.0 311.5" ffdec:has-small-stroke="true" ffdec:original-stroke-width="0.5" fill="none" stroke="#000000" stroke-linecap="round" stroke-linejoin="round" stroke-opacity="0.3019608" stroke-width="1.0" vector-effect="non-scaling-stroke"/>
    <path d="M403.15 305.6 Q404.35 306.75 406.1 307.2 L405.9 306.15" ffdec:has-small-stroke="true" ffdec:original-stroke-width="0.05" fill="none" stroke="#000000" stroke-linecap="round" stroke-linejoin="round" stroke-opacity="0.2" stroke-width="1.0"/>
    <path d="M407.85 308.95 L405.25 308.8 Q404.55 308.9 405.05 309.65 406.35 311.8 408.8 311.45 L408.85 311.65 Q407.65 312.05 406.15 311.35 404.1 309.5 403.95 307.05 406.2 307.55 407.85 308.95" fill="#dba652" fill-rule="evenodd" stroke="none"/>
    <path d="M408.8 311.45 Q406.35 311.8 405.05 309.65 404.55 308.9 405.25 308.8 L407.85 308.95 408.0 309.1 408.3 309.4 408.8 311.45" fill="#f9e2c8" fill-rule="evenodd" stroke="none"/>
    <path d="M407.85 308.95 Q406.2 307.55 403.95 307.05 404.1 309.5 406.15 311.35 407.65 312.05 408.85 311.65 M408.3 309.4 L408.0 309.1 407.85 308.95" ffdec:has-small-stroke="true" ffdec:original-stroke-width="0.05" fill="none" stroke="#000000" stroke-linecap="round" stroke-linejoin="round" stroke-opacity="0.3019608" stroke-width="1.0"/>
    <path d="M407.75 309.8 L407.8 309.85 407.9 309.95 408.0 309.9 408.1 309.7 408.05 309.5 407.9 309.35 408.1 309.15 Q408.7 309.65 408.7 310.3 L408.5 311.2 408.45 311.3 408.45 311.35 408.4 311.4 408.1 311.1 Q407.8 311.05 407.8 311.3 L407.75 311.25 407.7 310.9 407.65 310.35 407.75 309.8" fill="#4d2601" fill-rule="evenodd" stroke="none"/>
    <path d="M407.75 309.8 L407.75 309.65 407.85 309.45 407.9 309.35 408.05 309.5 408.1 309.7 408.0 309.9 407.9 309.95 407.8 309.85 407.75 309.8" fill="#ffffff" fill-rule="evenodd" stroke="none"/>
    <path d="M408.4 311.4 L408.1 311.65 407.8 311.35 407.8 311.3 Q407.8 311.05 408.1 311.1 L408.4 311.4" fill="#5b583e" fill-rule="evenodd" stroke="none"/>
    <path d="M407.8 311.35 L407.75 311.25 407.8 311.3 407.8 311.35" fill="url(#gradient0)" fill-rule="evenodd" stroke="none"/>
    <path d="M408.2 309.6 L408.25 309.55 408.25 309.45 408.2 309.45 408.15 309.5 408.15 309.6 408.15 309.65 408.2 309.6" fill="#ffffff" fill-rule="evenodd" stroke="none"/>
    <path d="M407.85 308.75 L408.4 309.7 408.2 309.95 407.85 310.05 407.1 309.55 Q406.9 309.1 407.05 308.75 407.2 308.55 407.85 308.75" fill="#fffcdf" fill-rule="evenodd" stroke="none"/>
    <path d="M407.7 310.3 L408.0 310.8 407.9 310.95 407.7 311.0 407.3 310.7 407.25 310.25 407.7 310.3" fill="#fffcdf" fill-rule="evenodd" stroke="none"/>
    <path d="M406.55 309.4 L406.9 309.9 406.75 310.05 406.55 310.1 406.15 309.8 406.15 309.4 406.55 309.4" fill="#fffcdf" fill-rule="evenodd" stroke="none"/>
    <path d="M409.85 308.1 Q409.95 306.3 410.3 305.2 410.75 307.4 410.7 309.65 L410.1 310.75 Q410.75 309.9 410.6 307.8 410.55 307.0 410.35 307.1 L409.85 308.1" fill="#dba652" fill-rule="evenodd" stroke="none"/>
    <path d="M410.0 310.85 L409.85 308.3 409.85 308.1 410.35 307.1 Q410.55 307.0 410.6 307.8 410.75 309.9 410.1 310.75 L410.0 310.85 410.1 310.75 410.0 310.85" fill="#f9e2c8" fill-rule="evenodd" stroke="none"/>
    <path d="M410.0 310.85 L409.85 308.3 409.85 308.1 Q409.95 306.3 410.3 305.2 410.75 307.4 410.7 309.65 L410.1 310.75 410.0 310.85 Z" ffdec:has-small-stroke="true" ffdec:original-stroke-width="0.05" fill="none" stroke="#000000" stroke-linecap="round" stroke-linejoin="round" stroke-opacity="0.3019608" stroke-width="1.0"/>
    <path d="M409.95 308.85 L409.95 308.7 409.95 308.55 410.0 308.45 410.05 308.5 410.1 308.55 410.1 308.75 410.1 308.9 410.0 309.0 409.95 308.9 409.95 308.85" fill="#ffffff" fill-rule="evenodd" stroke="none"/>
    <path d="M410.05 308.5 L410.25 308.25 410.4 308.5 410.45 309.25 410.35 309.9 410.25 310.0 410.25 310.05 410.15 309.9 Q409.95 309.85 409.9 310.05 L409.85 309.7 409.9 309.25 409.95 308.85 409.95 308.9 410.0 309.0 410.1 308.9 410.1 308.75 410.1 308.55 410.05 308.5" fill="#4d2601" fill-rule="evenodd" stroke="none"/>
    <path d="M410.25 310.05 L410.1 310.35 409.9 310.1 409.9 310.05 Q409.95 309.85 410.15 309.9 L410.25 310.05" fill="#5b583e" fill-rule="evenodd" stroke="none"/>
    <path d="M410.15 308.75 L410.15 308.7 410.15 308.65 410.1 308.6 410.1 308.65 410.1 308.7 410.1 308.8 410.15 308.75" fill="#ffffff" fill-rule="evenodd" stroke="none"/>
  </g>
  <defs>
    <radialGradient cx="0" cy="0" gradientTransform="matrix(-0.001, 0.0, -1.0E-4, 0.0016, 408.15, 310.35)" gradientUnits="userSpaceOnUse" id="gradient0" r="819.2" spreadMethod="pad">
      <stop offset="0.21176470588235294" stop-color="#453929"/>
      <stop offset="0.5254901960784314" stop-color="#252016"/>
    </radialGradient>
  </defs>
</svg>
