<?xml version="1.0" encoding="UTF-8" standalone="no"?>
<svg xmlns:ffdec="https://www.free-decompiler.com/flash" xmlns:xlink="http://www.w3.org/1999/xlink" ffdec:objectType="shape" height="24.35px" width="22.0px" xmlns="http://www.w3.org/2000/svg">
  <g transform="matrix(1.0, 0.0, 0.0, 1.0, -389.85, -291.75)">
    <path d="M393.9 291.8 L393.7 292.15 Q392.65 294.7 394.35 296.55 L394.6 296.3 Q395.15 293.05 394.4 292.1 394.9 292.5 395.2 293.45 L395.3 293.5 Q395.1 296.35 394.3 297.8 391.25 296.85 392.55 292.2 393.15 291.75 393.75 291.75 L393.9 291.8" fill="#3a3d21" fill-rule="evenodd" stroke="none"/>
    <path d="M393.9 291.8 L394.4 292.1 Q395.15 293.05 394.6 296.3 L394.35 296.55 Q392.65 294.7 393.7 292.15 L393.9 291.8" fill="#696543" fill-rule="evenodd" stroke="none"/>
    <path d="M394.3 297.8 Q393.45 299.3 391.9 299.3 391.45 298.9 391.2 298.1 390.75 296.8 391.1 295.1 391.35 293.5 392.2 292.6 L392.5 292.25 392.55 292.2 Q391.25 296.85 394.3 297.8" fill="#262615" fill-rule="evenodd" stroke="none"/>
    <path d="M394.4 292.1 L393.9 291.8 393.75 291.75 Q393.15 291.75 392.55 292.2 L392.5 292.25 392.2 292.6 Q391.35 293.5 391.1 295.1 390.75 296.8 391.2 298.1 391.45 298.9 391.9 299.3 393.45 299.3 394.3 297.8 395.1 296.35 395.3 293.5 L395.2 293.45 Q394.9 292.5 394.4 292.1 Z" ffdec:has-small-stroke="true" ffdec:original-stroke-width="0.05" fill="none" stroke="#000000" stroke-linecap="round" stroke-linejoin="round" stroke-opacity="0.2" stroke-width="1.0"/>
    <path d="M407.6 291.8 L407.8 292.15 Q408.85 294.7 407.15 296.55 L406.9 296.3 Q406.35 293.05 407.1 292.1 406.6 292.5 406.3 293.45 L406.2 293.5 Q406.4 296.35 407.2 297.8 410.25 296.85 408.95 292.2 408.35 291.75 407.75 291.75 L407.6 291.8" fill="#3a3d21" fill-rule="evenodd" stroke="none"/>
    <path d="M407.1 292.1 Q406.35 293.05 406.9 296.3 L407.15 296.55 Q408.85 294.7 407.8 292.15 L407.6 291.8 407.1 292.1" fill="#696543" fill-rule="evenodd" stroke="none"/>
    <path d="M408.95 292.2 Q410.25 296.85 407.2 297.8 408.05 299.3 409.6 299.3 410.05 298.9 410.3 298.1 410.75 296.8 410.4 295.1 410.15 293.5 409.3 292.6 L409.0 292.25 408.95 292.2" fill="#262615" fill-rule="evenodd" stroke="none"/>
    <path d="M407.6 291.8 L407.75 291.75 Q408.35 291.75 408.95 292.2 L409.0 292.25 409.3 292.6 Q410.15 293.5 410.4 295.1 410.75 296.8 410.3 298.1 410.05 298.9 409.6 299.3 408.05 299.3 407.2 297.8 406.4 296.35 406.2 293.5 L406.3 293.45 Q406.6 292.5 407.1 292.1 L407.6 291.8 Z" ffdec:has-small-stroke="true" ffdec:original-stroke-width="0.05" fill="none" stroke="#000000" stroke-linecap="round" stroke-linejoin="round" stroke-opacity="0.2" stroke-width="1.0"/>
    <path d="M390.35 300.85 L390.35 300.7 390.5 299.95 390.85 299.0 Q391.25 298.05 391.9 297.15 392.85 295.9 394.2 295.0 395.55 294.0 397.0 293.4 L399.75 292.65 400.85 292.55 400.9 292.55 400.9 294.4 400.85 294.4 397.0 294.25 Q393.05 295.4 391.25 298.65 L390.4 300.75 390.35 300.85 M411.4 300.85 L411.4 300.95 410.6 301.25 411.4 300.85 M391.85 313.9 L391.75 313.8 396.9 314.75 400.65 314.85 400.9 314.8 400.9 315.0 400.85 315.0 400.65 315.05 Q397.15 315.55 391.85 313.9" fill="url(#gradient0)" fill-rule="evenodd" stroke="none"/>
    <path d="M390.4 300.75 L391.25 298.65 Q393.05 295.4 397.0 294.25 L400.85 294.4 400.85 294.45 400.9 294.4 404.75 294.25 Q409.9 295.75 411.4 300.85 L410.6 301.25 406.25 302.9 400.9 303.6 396.0 302.95 Q391.25 302.1 390.4 300.8 L390.4 300.75 M400.9 301.15 L400.9 301.1 397.1 302.6 Q398.75 302.15 400.85 301.15 L400.9 301.15" fill="url(#gradient1)" fill-rule="evenodd" stroke="none"/>
    <path d="M391.75 313.8 L391.6 313.65 391.45 313.5 Q390.35 312.4 389.95 310.9 L389.9 310.25 389.9 309.45 Q396.85 307.45 398.8 307.5 L400.65 307.6 400.9 307.6 400.9 307.7 400.9 314.8 400.65 314.85 396.9 314.75 391.75 313.8" fill="url(#gradient2)" fill-rule="evenodd" stroke="none"/>
    <path d="M411.85 309.45 L411.85 310.25 411.8 310.9 Q411.4 312.4 410.3 313.5 L410.3 313.55 410.2 313.6 Q406.05 314.95 400.9 314.8 L400.9 307.7 Q404.6 306.95 411.85 309.45 M400.9 307.35 L400.8 307.35 400.65 307.3 400.9 307.35" fill="url(#gradient3)" fill-rule="evenodd" stroke="none"/>
    <path d="M409.9 313.9 Q408.95 314.7 407.85 315.1 L405.1 315.9 402.3 316.05 400.9 315.9 400.9 315.05 Q404.45 315.6 409.9 313.9" fill="url(#gradient4)" fill-rule="evenodd" stroke="none"/>
    <path d="M400.9 315.9 L400.85 315.9 400.65 315.95 399.45 316.05 396.65 315.9 393.95 315.1 391.85 313.9 Q397.15 315.55 400.65 315.05 L400.85 315.0 400.9 315.0 400.9 315.05 400.9 315.9" fill="url(#gradient5)" fill-rule="evenodd" stroke="none"/>
    <path d="M400.9 292.55 L402.0 292.65 404.75 293.4 Q406.25 294.0 407.55 295.0 408.9 295.9 409.85 297.15 410.75 298.45 411.25 299.95 L411.4 300.6 411.4 300.85 Q409.9 295.75 404.75 294.25 L400.9 294.4 400.9 292.55 M411.4 300.95 L411.45 303.9 411.65 307.1 Q411.65 308.05 411.8 309.0 L411.85 309.45 Q404.6 306.95 400.9 307.7 L400.9 307.6 400.65 307.6 398.8 307.5 Q396.85 307.45 389.9 309.45 L389.95 309.0 390.15 307.1 390.2 306.95 390.3 303.9 390.35 300.85 390.4 300.8 Q391.25 302.1 396.0 302.95 L400.9 303.6 406.25 302.9 410.6 301.25 411.4 300.95 M410.2 313.6 L410.15 313.65 409.9 313.9 Q404.45 315.6 400.9 315.05 L400.9 315.0 400.9 314.8 Q406.05 314.95 410.2 313.6 M400.9 307.35 L400.65 307.3 400.8 307.35 400.9 307.35" fill="url(#gradient6)" fill-rule="evenodd" stroke="none"/>
    <path d="M390.35 300.85 L390.35 300.7 390.5 299.95 390.85 299.0 Q391.25 298.05 391.9 297.15 392.85 295.9 394.2 295.0 395.55 294.0 397.0 293.4 L399.75 292.65 400.85 292.55 400.9 292.55 402.0 292.65 404.75 293.4 Q406.25 294.0 407.55 295.0 408.9 295.9 409.85 297.15 410.75 298.45 411.25 299.95 L411.4 300.6 M411.4 300.85 L411.4 300.95 411.45 303.9 411.65 307.1 Q411.65 308.05 411.8 309.0 L411.85 309.45 411.85 310.25 411.8 310.9 Q411.4 312.4 410.3 313.5 L410.3 313.55 410.2 313.6 410.15 313.65 409.9 313.9 Q408.95 314.7 407.85 315.1 L405.1 315.9 402.3 316.05 400.9 315.9 400.85 315.9 400.65 315.95 399.45 316.05 396.65 315.9 393.95 315.1 391.85 313.9 391.75 313.8 391.6 313.65 391.45 313.5 Q390.35 312.4 389.95 310.9 L389.9 310.25 389.9 309.45 389.95 309.0 390.15 307.1 390.2 306.95 390.3 303.9 390.35 300.85" ffdec:has-small-stroke="true" ffdec:original-stroke-width="0.05" fill="none" stroke="#332720" stroke-linecap="round" stroke-linejoin="round" stroke-opacity="0.2" stroke-width="1.0" vector-effect="non-scaling-stroke"/>
    <path d="M392.4 305.95 L392.45 305.95 392.9 305.5 393.1 305.35 392.35 308.5 391.95 309.95 391.6 308.8 Q391.35 307.3 392.1 306.3 L392.25 306.1 392.4 305.95 392.25 306.1 392.6 305.75 392.6 305.8 392.55 305.85 392.4 305.9 392.4 305.95" fill="#262615" fill-rule="evenodd" stroke="none"/>
    <path d="M392.45 305.95 L392.4 305.95 392.4 305.9 392.55 305.85 392.6 305.8 392.9 305.5 392.45 305.95 392.55 305.85 392.45 305.95 M391.95 309.95 L392.35 308.5 393.1 305.35 Q396.15 303.5 398.4 305.85 L398.55 306.15 Q400.2 310.3 398.6 312.7 397.05 313.9 393.75 312.2 L393.3 311.8 Q392.65 311.2 392.25 310.4 L391.95 309.95" fill="url(#gradient7)" fill-rule="evenodd" stroke="none"/>
    <path d="M392.45 305.95 L392.4 305.95 392.25 306.1 392.1 306.3 Q391.35 307.3 391.6 308.8 L391.95 309.95 392.25 310.4 Q392.65 311.2 393.3 311.8 L393.75 312.2 Q397.05 313.9 398.6 312.7 400.2 310.3 398.55 306.15 L398.4 305.85 Q396.15 303.5 393.1 305.35 L392.9 305.5 392.6 305.8 392.55 305.85 392.45 305.95 M392.6 305.75 L392.25 306.1" ffdec:has-small-stroke="true" ffdec:original-stroke-width="0.05" fill="none" stroke="#33251b" stroke-linecap="round" stroke-linejoin="miter-clip" stroke-miterlimit="3.0" stroke-opacity="0.2" stroke-width="1.0"/>
    <path d="M393.7 307.75 Q393.5 308.4 393.6 309.4 393.7 311.65 396.1 312.15 L398.65 312.4 Q398.0 307.5 393.7 307.75" fill="#f4f0df" fill-rule="evenodd" stroke="none"/>
    <path d="M398.65 312.4 L398.7 312.35 398.75 311.3 Q398.95 309.75 398.3 308.4 397.6 307.05 396.55 306.65 L394.45 306.75 Q393.9 307.0 393.7 307.75 398.0 307.5 398.65 312.4" fill="#e9d8b6" fill-rule="evenodd" stroke="none"/>
    <path d="M393.7 307.75 Q393.5 308.4 393.6 309.4 393.7 311.65 396.1 312.15 L398.65 312.4 398.7 312.35 398.75 311.3 Q398.95 309.75 398.3 308.4 397.6 307.05 396.55 306.65 L394.45 306.75 Q393.9 307.0 393.7 307.75 Z" fill="none" stroke="#332720" stroke-linecap="round" stroke-linejoin="round" stroke-opacity="0.4509804" stroke-width="1.5" vector-effect="non-scaling-stroke"/>
    <path d="M398.9 310.75 L398.15 309.95 Q397.3 309.4 396.05 309.25 396.5 308.25 397.8 308.7 L398.05 308.85 398.4 309.3 398.8 309.95 398.9 310.75" fill="#814307" fill-rule="evenodd" stroke="none"/>
    <path d="M398.9 310.75 L398.75 311.75 398.2 312.5 396.7 312.4 Q396.05 311.85 395.85 311.15 L395.85 310.15 396.05 309.25 Q397.3 309.4 398.15 309.95 L398.9 310.75" fill="url(#gradient8)" fill-rule="evenodd" stroke="none"/>
    <path d="M397.6 310.85 L398.2 310.7 398.5 310.2 398.25 309.6 397.7 309.2 397.1 309.35 Q396.8 309.55 396.8 309.85 396.75 310.15 397.0 310.45 L397.6 310.85" fill="#f9af06" fill-rule="evenodd" stroke="none"/>
    <path d="M397.2 310.6 Q397.3 310.3 397.55 310.15 L398.0 310.15 398.35 310.5 398.4 311.15 398.15 311.65 397.65 311.55 Q397.4 311.5 397.25 311.2 L397.2 310.6" fill="#000000" fill-rule="evenodd" stroke="none"/>
    <path d="M397.2 310.6 L397.25 311.2 Q397.4 311.5 397.65 311.55 L398.15 311.65 398.4 311.15 398.35 310.5 398.0 310.15 397.55 310.15 Q397.3 310.3 397.2 310.6 Z" ffdec:has-small-stroke="true" ffdec:original-stroke-width="0.05" fill="none" stroke="#000000" stroke-linecap="round" stroke-linejoin="round" stroke-opacity="0.3019608" stroke-width="1.0"/>
    <path d="M396.0 309.85 L395.8 310.1 396.0 310.4 396.65 310.7 397.3 310.8 397.55 310.6 397.3 310.25 Q397.05 310.05 396.65 309.95 L396.0 309.85" fill="#ffffff" fill-rule="evenodd" stroke="none"/>
    <path d="M409.35 305.85 L409.3 305.85 408.85 305.4 408.65 305.25 409.4 308.4 409.8 309.85 410.15 308.7 Q410.4 307.2 409.65 306.2 L409.5 306.0 409.35 305.85 409.5 306.0 409.15 305.65 409.15 305.7 409.2 305.75 409.35 305.8 409.35 305.85" fill="#262615" fill-rule="evenodd" stroke="none"/>
    <path d="M409.3 305.85 L409.35 305.85 409.35 305.8 409.2 305.75 409.15 305.7 408.85 305.4 409.3 305.85 409.2 305.75 409.3 305.85 M409.8 309.85 L409.4 308.4 408.65 305.25 Q405.6 303.4 403.35 305.75 L403.2 306.05 Q401.55 310.2 403.15 312.6 404.7 313.8 408.0 312.1 L408.45 311.7 409.5 310.3 409.8 309.85" fill="url(#gradient9)" fill-rule="evenodd" stroke="none"/>
    <path d="M409.3 305.85 L409.35 305.85 409.5 306.0 409.65 306.2 Q410.4 307.2 410.15 308.7 L409.8 309.85 409.5 310.3 408.45 311.7 408.0 312.1 Q404.7 313.8 403.15 312.6 401.55 310.2 403.2 306.05 L403.35 305.75 Q405.6 303.4 408.65 305.25 L408.85 305.4 409.15 305.7 409.2 305.75 409.3 305.85 M409.15 305.65 L409.5 306.0" ffdec:has-small-stroke="true" ffdec:original-stroke-width="0.05" fill="none" stroke="#33251b" stroke-linecap="round" stroke-linejoin="miter-clip" stroke-miterlimit="3.0" stroke-opacity="0.2" stroke-width="1.0"/>
    <path d="M408.05 307.6 L408.15 309.25 Q408.05 311.5 405.65 312.0 L403.1 312.25 Q403.75 307.35 408.05 307.6" fill="#f4f0df" fill-rule="evenodd" stroke="none"/>
    <path d="M403.1 312.25 L403.05 312.2 403.0 311.15 Q402.8 309.6 403.45 308.25 404.15 306.9 405.2 306.5 L407.3 306.6 Q407.85 306.85 408.05 307.6 403.75 307.35 403.1 312.25" fill="#e9d8b6" fill-rule="evenodd" stroke="none"/>
    <path d="M408.05 307.6 L408.15 309.25 Q408.05 311.5 405.65 312.0 L403.1 312.25 403.05 312.2 403.0 311.15 Q402.8 309.6 403.45 308.25 404.15 306.9 405.2 306.5 L407.3 306.6 Q407.85 306.85 408.05 307.6 Z" fill="none" stroke="#332720" stroke-linecap="round" stroke-linejoin="round" stroke-opacity="0.4509804" stroke-width="1.5" vector-effect="non-scaling-stroke"/>
    <path d="M405.55 309.1 Q405.05 308.1 403.8 308.55 403.65 308.6 403.55 308.75 L403.2 309.2 Q402.9 309.55 402.9 309.9 L402.8 310.65 403.5 309.9 Q404.3 309.25 405.55 309.1" fill="#814307" fill-rule="evenodd" stroke="none"/>
    <path d="M405.55 309.1 Q404.3 309.25 403.5 309.9 L402.8 310.65 403.0 311.7 403.6 312.4 405.05 312.25 Q405.65 311.6 405.85 310.95 L405.8 309.95 405.55 309.1" fill="url(#gradient10)" fill-rule="evenodd" stroke="none"/>
    <path d="M404.2 310.65 L403.6 310.55 403.25 310.05 403.4 309.45 Q403.65 309.15 404.0 309.05 L404.65 309.15 404.95 309.65 404.75 310.3 404.2 310.65" fill="#f9af06" fill-rule="evenodd" stroke="none"/>
    <path d="M404.5 310.45 L404.2 310.05 403.75 310.0 403.35 310.4 403.35 311.0 403.7 311.5 404.15 311.45 404.5 311.1 404.5 310.45" fill="#000000" fill-rule="evenodd" stroke="none"/>
    <path d="M404.5 310.45 L404.5 311.1 404.15 311.45 403.7 311.5 403.35 311.0 403.35 310.4 403.75 310.0 404.2 310.05 404.5 310.45 Z" ffdec:has-small-stroke="true" ffdec:original-stroke-width="0.05" fill="none" stroke="#000000" stroke-linecap="round" stroke-linejoin="round" stroke-opacity="0.3019608" stroke-width="1.0"/>
    <path d="M405.65 309.7 L405.85 309.95 405.65 310.25 405.0 310.6 404.35 310.7 404.1 310.5 Q404.1 310.35 404.35 310.15 L405.0 309.85 405.65 309.7" fill="#ffffff" fill-rule="evenodd" stroke="none"/>
    <path d="M401.2 312.75 L401.05 312.6 401.25 312.45 401.55 312.5 401.8 312.65 401.95 312.8 401.75 312.9 401.45 312.9 401.2 312.75" fill="#ffffff" fill-rule="evenodd" stroke="none"/>
    <path d="M402.1 313.0 L402.0 313.1 402.2 312.9 Q401.25 314.3 400.6 314.05 399.9 313.85 399.65 312.9 L400.1 313.4 400.9 313.6 402.1 313.0" fill="#bdbfc4" fill-rule="evenodd" stroke="none"/>
    <path d="M399.65 312.9 L399.6 312.8 400.0 312.35 400.9 312.3 401.75 312.4 402.15 312.85 402.1 313.0 400.9 313.6 400.1 313.4 399.65 312.9 M401.2 312.75 L401.45 312.9 401.75 312.9 401.95 312.8 401.8 312.65 401.55 312.5 401.25 312.45 401.05 312.6 401.2 312.75" fill="#262615" fill-rule="evenodd" stroke="none"/>
    <path d="M401.5 314.9 Q401.05 315.45 400.3 315.45 L399.7 315.05 400.15 315.05 401.4 314.9 401.5 314.9" fill="#bdbfc4" fill-rule="evenodd" stroke="none"/>
    <path d="M399.7 314.55 Q401.15 314.8 402.3 314.05" ffdec:has-small-stroke="true" ffdec:original-stroke-width="0.05" fill="none" stroke="#000000" stroke-linecap="round" stroke-linejoin="round" stroke-opacity="0.3019608" stroke-width="1.0"/>
  </g>
  <defs>
    <linearGradient gradientTransform="matrix(0.0046, -0.0029, 0.0068, 0.0113, 408.7, 303.4)" gradientUnits="userSpaceOnUse" id="gradient0" spreadMethod="pad" x1="-819.2" x2="819.2">
      <stop offset="0.27058823529411763" stop-color="#bdbfc4"/>
      <stop offset="0.8666666666666667" stop-color="#797e86"/>
    </linearGradient>
    <linearGradient gradientTransform="matrix(-1.0E-4, 0.0035, 0.0053, 2.0E-4, 403.95, 301.45)" gradientUnits="userSpaceOnUse" id="gradient1" spreadMethod="pad" x1="-819.2" x2="819.2">
      <stop offset="0.13333333333333333" stop-color="#ffffff"/>
      <stop offset="0.48627450980392156" stop-color="#f4f0df"/>
      <stop offset="0.9803921568627451" stop-color="#bdbfc4"/>
    </linearGradient>
    <linearGradient gradientTransform="matrix(1.0E-4, 0.0035, -0.0053, 2.0E-4, 397.5, 313.55)" gradientUnits="userSpaceOnUse" id="gradient2" spreadMethod="pad" x1="-819.2" x2="819.2">
      <stop offset="0.26666666666666666" stop-color="#f4f0df"/>
      <stop offset="0.9803921568627451" stop-color="#bdbfc4"/>
    </linearGradient>
    <linearGradient gradientTransform="matrix(-1.0E-4, 0.0035, 0.0053, 2.0E-4, 404.25, 313.55)" gradientUnits="userSpaceOnUse" id="gradient3" spreadMethod="pad" x1="-819.2" x2="819.2">
      <stop offset="0.26666666666666666" stop-color="#f4f0df"/>
      <stop offset="0.9803921568627451" stop-color="#bdbfc4"/>
    </linearGradient>
    <linearGradient gradientTransform="matrix(-0.0134, -0.0043, -0.0224, 0.0782, 397.7, 311.75)" gradientUnits="userSpaceOnUse" id="gradient4" spreadMethod="pad" x1="-819.2" x2="819.2">
      <stop offset="0.27058823529411763" stop-color="#bdbfc4"/>
      <stop offset="0.8666666666666667" stop-color="#797e86"/>
    </linearGradient>
    <linearGradient gradientTransform="matrix(0.0134, -0.0043, 0.0224, 0.0782, 404.1, 311.75)" gradientUnits="userSpaceOnUse" id="gradient5" spreadMethod="pad" x1="-819.2" x2="819.2">
      <stop offset="0.27058823529411763" stop-color="#bdbfc4"/>
      <stop offset="0.8666666666666667" stop-color="#797e86"/>
    </linearGradient>
    <linearGradient gradientTransform="matrix(0.0, 0.0054, 0.0132, -4.0E-4, 408.8, 316.5)" gradientUnits="userSpaceOnUse" id="gradient6" spreadMethod="pad" x1="-819.2" x2="819.2">
      <stop offset="0.27058823529411763" stop-color="#bdbfc4"/>
      <stop offset="0.8666666666666667" stop-color="#797e86"/>
    </linearGradient>
    <linearGradient gradientTransform="matrix(-0.0016, 0.0043, 0.0045, 0.0027, 396.0, 309.25)" gradientUnits="userSpaceOnUse" id="gradient7" spreadMethod="pad" x1="-819.2" x2="819.2">
      <stop offset="0.0" stop-color="#545035"/>
      <stop offset="0.20784313725490197" stop-color="#393524"/>
      <stop offset="0.7254901960784313" stop-color="#3c3826"/>
      <stop offset="1.0" stop-color="#545035"/>
    </linearGradient>
    <radialGradient cx="0" cy="0" gradientTransform="matrix(-0.002, 9.0E-4, 8.0E-4, 0.0036, 397.55, 311.35)" gradientUnits="userSpaceOnUse" id="gradient8" r="819.2" spreadMethod="pad">
      <stop offset="0.24313725490196078" stop-color="#cc9933"/>
      <stop offset="1.0" stop-color="#663300"/>
    </radialGradient>
    <linearGradient gradientTransform="matrix(0.0016, 0.0043, -0.0045, 0.0027, 405.75, 309.15)" gradientUnits="userSpaceOnUse" id="gradient9" spreadMethod="pad" x1="-819.2" x2="819.2">
      <stop offset="0.0" stop-color="#545035"/>
      <stop offset="0.20784313725490197" stop-color="#393524"/>
      <stop offset="0.7254901960784313" stop-color="#3c3826"/>
      <stop offset="1.0" stop-color="#545035"/>
    </linearGradient>
    <radialGradient cx="0" cy="0" gradientTransform="matrix(0.0021, 8.0E-4, -7.0E-4, 0.0036, 404.15, 311.25)" gradientUnits="userSpaceOnUse" id="gradient10" r="819.2" spreadMethod="pad">
      <stop offset="0.24313725490196078" stop-color="#cc9933"/>
      <stop offset="1.0" stop-color="#663300"/>
    </radialGradient>
  </defs>
</svg>
