<?xml version="1.0" encoding="UTF-8" standalone="no"?>
<svg xmlns:ffdec="https://www.free-decompiler.com/flash" xmlns:xlink="http://www.w3.org/1999/xlink" ffdec:objectType="shape" height="27.5px" width="46.6px" xmlns="http://www.w3.org/2000/svg">
  <g transform="matrix(1.0, 0.0, 0.0, 1.0, -377.5, -290.4)">
    <path d="M410.05 315.4 Q408.8 315.3 408.05 314.75 406.75 313.8 406.35 312.4 L407.25 312.1 Q408.0 311.65 408.55 310.15 L410.05 315.4" fill="#83663f" fill-rule="evenodd" stroke="none"/>
    <path d="M410.05 315.4 Q408.8 315.3 408.05 314.75 406.75 313.8 406.35 312.4 L407.25 312.1 Q408.0 311.65 408.55 310.15" ffdec:has-small-stroke="true" ffdec:original-stroke-width="0.05" fill="none" stroke="#000000" stroke-linecap="round" stroke-linejoin="round" stroke-opacity="0.3019608" stroke-width="1.0"/>
    <path d="M410.9 301.55 L412.65 303.4 Q413.85 305.2 413.65 307.2 L413.0 309.4 Q400.45 316.85 390.0 309.2 388.45 307.2 388.7 304.95 388.75 304.35 388.95 303.85 L389.1 303.3 Q389.6 303.75 392.75 305.3 395.85 306.85 399.75 307.15 403.65 307.45 408.85 307.0 414.0 306.5 413.0 304.5 L412.45 303.45 410.9 301.55" fill="#aa7f4b" fill-rule="evenodd" stroke="none"/>
    <path d="M413.0 309.4 Q412.0 311.2 409.45 312.55 405.55 314.55 400.4 314.05 395.2 313.6 391.8 310.95 L390.0 309.2 Q400.45 316.85 413.0 309.4" fill="#83663f" fill-rule="evenodd" stroke="none"/>
    <path d="M389.1 303.3 L389.75 302.15 Q390.8 300.7 392.9 299.6 396.75 297.6 401.95 298.05 407.1 298.55 410.55 301.25 L410.8 301.5 410.9 301.55 412.45 303.45 413.0 304.5 Q414.0 306.5 408.85 307.0 403.65 307.45 399.75 307.15 395.85 306.85 392.75 305.3 389.6 303.75 389.1 303.3" fill="#5f492e" fill-rule="evenodd" stroke="none"/>
    <path d="M389.1 303.3 L389.75 302.15 Q390.8 300.7 392.9 299.6 396.75 297.6 401.95 298.05 407.1 298.55 410.55 301.25 L410.8 301.5 410.9 301.55 412.65 303.4 Q413.85 305.2 413.65 307.2 L413.0 309.4 Q412.0 311.2 409.45 312.55 405.55 314.55 400.4 314.05 395.2 313.6 391.8 310.95 L390.0 309.2 Q388.45 307.2 388.7 304.95 388.75 304.35 388.95 303.85 L389.1 303.3 Z" ffdec:has-small-stroke="true" ffdec:original-stroke-width="0.05" fill="none" stroke="#000000" stroke-linecap="round" stroke-linejoin="round" stroke-opacity="0.3019608" stroke-width="1.0"/>
    <path d="M389.45 310.05 L389.0 308.45 394.45 311.8 Q394.05 312.25 393.85 313.25 L393.6 312.9 392.15 311.45 392.1 311.55 392.25 312.25 392.25 313.05 Q390.25 310.55 389.5 309.95 L389.45 310.05" fill="#83663f" fill-rule="evenodd" stroke="none"/>
    <path d="M393.85 313.25 Q393.7 313.85 393.7 314.8 391.75 313.85 390.6 312.3 L389.45 310.05 389.5 309.95 Q390.25 310.55 392.25 313.05 L392.25 312.25 392.1 311.55 392.15 311.45 393.6 312.9 393.85 313.25" fill="#b1844e" fill-rule="evenodd" stroke="none"/>
    <path d="M389.45 310.05 L389.0 308.45 M394.45 311.8 Q394.05 312.25 393.85 313.25 393.7 313.85 393.7 314.8 391.75 313.85 390.6 312.3 L389.45 310.05" ffdec:has-small-stroke="true" ffdec:original-stroke-width="0.05" fill="none" stroke="#000000" stroke-linecap="round" stroke-linejoin="round" stroke-opacity="0.3019608" stroke-width="1.0"/>
    <path d="M394.0 311.75 L393.95 311.7 393.85 311.25 Q393.7 310.95 393.9 310.85 L401.6 310.65 401.65 310.65 401.85 310.7 403.05 311.55 406.65 312.15 Q406.9 312.75 406.3 313.35 L402.15 313.8 401.6 313.95 400.25 313.3 400.4 314.15 400.35 314.15 400.5 315.25 399.65 314.8 399.7 314.8 397.9 313.05 396.35 312.95 396.3 312.9 394.0 311.75 M400.9 311.7 L400.65 311.7 400.25 311.7 400.05 311.7 Q399.2 311.8 398.65 312.25 L400.5 312.0 402.25 312.2 401.8 311.6 401.55 311.0 Q401.35 311.0 401.65 311.75 L400.9 311.7" fill="#eed7a2" fill-rule="evenodd" stroke="none"/>
    <path d="M401.65 311.75 Q401.35 311.0 401.55 311.0 L401.8 311.6 402.25 312.2 400.5 312.0 398.65 312.25 Q399.2 311.8 400.05 311.7 L400.25 311.7 400.65 311.7 400.9 311.7 401.65 311.75" fill="#000000" fill-rule="evenodd" stroke="none"/>
    <path d="M394.0 311.75 L396.3 312.9 396.35 312.95 397.9 313.05 399.7 314.8 399.65 314.8 399.6 314.8 396.4 313.35 Q393.7 312.45 394.5 312.5 L394.35 312.35 394.0 311.75 M400.4 314.15 L400.25 313.3 401.6 313.95 402.15 313.8 406.3 313.35 405.95 313.95 402.45 314.25 400.4 314.15" fill="#bb9962" fill-rule="evenodd" stroke="none"/>
    <path d="M402.6 309.3 L401.5 310.05 400.1 310.0 399.0 309.1 402.6 309.3" fill="#eed7a2" fill-rule="evenodd" stroke="none"/>
    <path d="M402.6 309.3 L401.7 310.45 401.25 310.65 399.9 310.4 399.75 310.3 399.0 309.1 400.1 310.0 401.5 310.05 402.6 309.3" fill="#c99825" fill-rule="evenodd" stroke="none"/>
    <path d="M399.0 309.1 L399.75 310.3 399.9 310.4 401.25 310.65 401.7 310.45 402.6 309.3" ffdec:has-small-stroke="true" ffdec:original-stroke-width="0.05" fill="none" stroke="#000000" stroke-linecap="round" stroke-linejoin="round" stroke-opacity="0.3019608" stroke-width="1.0"/>
    <path d="M410.4 300.9 L410.25 301.25 Q410.1 301.85 410.6 303.0 L410.8 303.25 Q415.1 303.55 419.7 301.65 L420.8 299.8 420.5 298.2 417.45 295.6 417.35 295.55 Q416.7 295.3 416.3 295.05 L417.1 296.15 417.6 296.5 417.95 296.8 418.9 297.5 419.3 297.8 420.25 298.7 420.2 298.8 Q420.35 299.0 420.1 299.2 L419.75 299.4 419.5 299.45 419.35 299.55 418.7 299.9 410.4 300.9 M419.5 302.8 L420.3 302.5 420.6 302.4 419.5 302.8 M417.8 295.7 L417.45 295.6 417.7 295.75 417.8 295.7" fill="#505140" fill-rule="evenodd" stroke="none"/>
    <path d="M419.35 299.55 L419.15 299.5 418.8 299.6 418.3 299.7 418.0 299.75 417.75 299.75 417.05 299.9 415.2 300.15 414.45 300.25 413.0 300.35 411.95 300.3 410.85 300.35 410.4 300.9 418.7 299.9 419.35 299.55" fill="#3e3e31" fill-rule="evenodd" stroke="none"/>
    <path d="M410.8 303.25 L411.35 303.75 412.95 303.95 413.1 303.9 413.15 303.85 413.3 303.85 414.65 303.75 415.55 303.65 417.3 303.3 417.9 303.15 418.25 303.05 418.4 303.1 418.6 303.0 419.1 302.85 419.45 302.75 419.5 302.8 420.6 302.4 Q421.15 302.15 421.65 302.05 423.55 301.1 424.05 300.35 L424.1 299.75 Q423.8 298.55 422.6 297.75 421.95 297.2 420.95 296.75 L420.6 296.7 419.25 296.25 418.85 296.1 418.4 295.9 418.3 295.95 418.0 295.8 417.8 295.7 417.7 295.75 417.45 295.6 420.5 298.2 420.8 299.8 419.7 301.65 Q415.1 303.55 410.8 303.25" fill="#343429" fill-rule="evenodd" stroke="none"/>
    <path d="M410.4 300.9 L410.25 301.25 Q410.1 301.85 410.6 303.0 L410.8 303.25 411.35 303.75 412.95 303.95 413.1 303.9 413.15 303.85 413.3 303.85 414.65 303.75 415.55 303.65 417.3 303.3 417.9 303.15 418.25 303.05 418.4 303.1 418.6 303.0 419.1 302.85 M419.5 302.8 L420.3 302.5 420.6 302.4 Q421.15 302.15 421.65 302.05 423.55 301.1 424.05 300.35 L424.1 299.75 Q423.8 298.55 422.6 297.75 421.95 297.2 420.95 296.75 L420.6 296.7 419.25 296.25 418.85 296.1 418.4 295.9 418.3 295.95 418.0 295.8 417.8 295.7 417.7 295.75 417.45 295.6 417.35 295.55 Q416.7 295.3 416.3 295.05 L417.1 296.15 417.6 296.5 417.95 296.8 418.9 297.5 419.3 297.8 420.25 298.7 420.2 298.8 Q420.35 299.0 420.1 299.2 L419.75 299.4 419.5 299.45 419.35 299.55 419.15 299.5 418.8 299.6 418.3 299.7 418.0 299.75 417.75 299.75 417.05 299.9 415.2 300.15 414.45 300.25 413.0 300.35 411.95 300.3 410.85 300.35 410.4 300.9" ffdec:has-small-stroke="true" ffdec:original-stroke-width="0.05" fill="none" stroke="#000000" stroke-linecap="round" stroke-linejoin="round" stroke-opacity="0.3019608" stroke-width="1.0"/>
    <path d="M411.0 302.75 L412.6 302.1 410.65 301.0 411.55 300.3 412.75 299.3 410.65 300.2 409.65 301.35 411.0 302.75" fill="#ffffff" fill-rule="evenodd" stroke="none"/>
    <path d="M411.0 302.75 L409.65 301.35 410.3 304.2 412.5 304.9 411.45 304.05 411.8 303.9 411.45 304.05 412.5 304.9 412.55 304.9 Q412.35 304.25 412.9 304.0 L411.8 303.9 412.65 303.55 411.6 303.6 410.9 302.8 411.0 302.75 M412.85 300.3 L412.85 299.75 411.55 300.3 412.85 300.3" fill="#c3b3a3" fill-rule="evenodd" stroke="none"/>
    <path d="M409.65 301.35 L410.65 300.2 412.75 299.3 411.55 300.3 410.65 301.0 412.6 302.1 411.0 302.75 410.9 302.8 411.6 303.6 412.65 303.55 411.8 303.9 411.45 304.05 412.5 304.9 412.55 304.95 412.55 304.9 Q412.35 304.25 412.9 304.0 L411.8 303.9 M410.3 304.2 L412.5 304.9 M412.85 300.3 L411.55 300.3 412.85 299.75 412.85 300.3 Z" ffdec:has-small-stroke="true" ffdec:original-stroke-width="0.05" fill="none" stroke="#000000" stroke-linecap="round" stroke-linejoin="round" stroke-opacity="0.3019608" stroke-width="1.0" vector-effect="non-scaling-stroke"/>
    <path d="M382.25 299.55 L382.9 299.9 391.2 300.9 391.35 301.25 Q391.5 301.85 391.0 303.0 L390.8 303.25 Q386.5 303.55 381.9 301.65 L380.8 299.8 381.1 298.2 384.15 295.6 384.25 295.55 385.3 295.05 384.5 296.15 384.0 296.5 Q383.8 296.6 383.65 296.8 L382.7 297.5 382.3 297.8 381.35 298.7 381.4 298.8 Q381.25 299.0 381.5 299.2 L381.85 299.4 382.1 299.45 382.25 299.55 M382.1 302.8 L381.3 302.5 381.0 302.4 382.1 302.8 M383.8 295.7 L384.15 295.6 Q384.0 295.6 383.9 295.75 L383.8 295.7" fill="#505140" fill-rule="evenodd" stroke="none"/>
    <path d="M382.25 299.55 L382.45 299.5 382.8 299.6 383.3 299.7 383.6 299.75 383.85 299.75 384.55 299.9 386.4 300.15 387.15 300.25 388.6 300.35 389.65 300.3 390.75 300.35 391.2 300.9 382.9 299.9 382.25 299.55" fill="#3e3e31" fill-rule="evenodd" stroke="none"/>
    <path d="M390.8 303.25 L390.25 303.75 388.65 303.95 388.5 303.9 388.45 303.85 388.3 303.85 386.95 303.75 386.05 303.65 384.3 303.3 383.7 303.15 383.35 303.05 383.2 303.1 383.0 303.0 382.5 302.85 382.15 302.75 382.1 302.8 381.0 302.4 379.95 302.05 Q378.05 301.1 377.55 300.35 L377.5 299.75 Q377.8 298.55 379.0 297.75 379.65 297.2 380.65 296.75 L381.0 296.7 382.35 296.25 382.75 296.1 383.2 295.9 383.3 295.95 383.6 295.8 383.8 295.7 383.9 295.75 Q384.0 295.6 384.15 295.6 L381.1 298.2 380.8 299.8 381.9 301.65 Q386.5 303.55 390.8 303.25" fill="#343429" fill-rule="evenodd" stroke="none"/>
    <path d="M391.2 300.9 L390.75 300.35 389.65 300.3 388.6 300.35 387.15 300.25 386.4 300.15 384.55 299.9 383.85 299.75 383.6 299.75 383.3 299.7 382.8 299.6 382.45 299.5 382.25 299.55 382.1 299.45 381.85 299.4 381.5 299.2 Q381.25 299.0 381.4 298.8 L381.35 298.7 382.3 297.8 382.7 297.5 383.65 296.8 Q383.8 296.6 384.0 296.5 L384.5 296.15 385.3 295.05 384.25 295.55 384.15 295.6 Q384.0 295.6 383.9 295.75 L383.8 295.7 383.6 295.8 383.3 295.95 383.2 295.9 382.75 296.1 382.35 296.25 381.0 296.7 380.65 296.75 Q379.65 297.2 379.0 297.75 377.8 298.55 377.5 299.75 L377.55 300.35 Q378.05 301.1 379.95 302.05 L381.0 302.4 381.3 302.5 382.1 302.8 M391.2 300.9 L391.35 301.25 Q391.5 301.85 391.0 303.0 L390.8 303.25 390.25 303.75 388.65 303.95 388.5 303.9 388.45 303.85 388.3 303.85 386.95 303.75 386.05 303.65 384.3 303.3 383.7 303.15 383.35 303.05 383.2 303.1 383.0 303.0 382.5 302.85" ffdec:has-small-stroke="true" ffdec:original-stroke-width="0.05" fill="none" stroke="#000000" stroke-linecap="round" stroke-linejoin="round" stroke-opacity="0.3019608" stroke-width="1.0"/>
    <path d="M390.6 302.75 L389.0 302.1 390.95 301.0 390.05 300.3 388.85 299.3 390.95 300.2 391.95 301.35 390.6 302.75" fill="#ffffff" fill-rule="evenodd" stroke="none"/>
    <path d="M390.6 302.75 L391.95 301.35 391.3 304.2 389.1 304.9 390.15 304.05 389.8 303.9 390.15 304.05 389.1 304.9 389.05 304.9 Q389.25 304.25 388.7 304.0 L389.8 303.9 388.95 303.55 390.0 303.6 390.7 302.8 390.6 302.75 M388.75 300.3 L388.75 299.75 390.05 300.3 388.75 300.3" fill="#c3b3a3" fill-rule="evenodd" stroke="none"/>
    <path d="M391.95 301.35 L390.95 300.2 388.85 299.3 390.05 300.3 390.95 301.0 389.0 302.1 390.6 302.75 390.7 302.8 390.0 303.6 388.95 303.55 389.8 303.9 390.15 304.05 389.1 304.9 389.05 304.95 389.05 304.9 Q389.25 304.25 388.7 304.0 L389.8 303.9 M391.3 304.2 L389.1 304.9 M388.75 300.3 L390.05 300.3 388.75 299.75 388.75 300.3 Z" ffdec:has-small-stroke="true" ffdec:original-stroke-width="0.05" fill="none" stroke="#000000" stroke-linecap="round" stroke-linejoin="round" stroke-opacity="0.3019608" stroke-width="1.0" vector-effect="non-scaling-stroke"/>
    <path d="M398.75 305.9 L399.1 306.35 399.2 306.6 398.75 305.9 M395.3 303.8 L395.65 303.8 395.65 303.9 395.3 303.8" fill="#f2f4f7" fill-rule="evenodd" stroke="none"/>
    <path d="M399.4 307.75 L399.45 307.9 Q399.5 308.7 399.2 309.2 L397.2 309.7 Q395.0 310.35 392.2 307.25 391.95 306.45 392.15 305.85 395.2 305.35 397.3 306.3 L397.75 306.5 398.8 307.2 399.4 307.75" fill="#ffffff" fill-rule="evenodd" stroke="none"/>
    <path d="M396.95 304.2 L397.0 304.3 397.1 304.35 397.2 304.4 397.5 304.6 398.4 305.45 398.6 305.6 398.65 305.75 398.75 305.9 399.2 306.6 399.25 306.75 399.3 306.95 399.3 307.1 399.35 307.25 399.4 307.55 399.4 307.75 398.8 307.2 397.75 306.5 397.3 306.3 Q395.2 305.35 392.15 305.85 L392.15 305.7 392.15 305.5 392.25 305.4 392.45 305.2 Q393.75 304.05 394.95 303.9 L395.3 303.8 395.65 303.9 396.45 304.05 396.95 304.2" fill="#cecab0" fill-rule="evenodd" stroke="none"/>
    <path d="M399.3 307.1 L399.35 307.25" ffdec:has-small-stroke="true" ffdec:original-stroke-width="0.25" fill="none" stroke="#000000" stroke-linecap="round" stroke-linejoin="round" stroke-opacity="0.3019608" stroke-width="1.0"/>
    <path d="M397.2 304.4 L396.95 304.2 395.65 303.9 395.3 303.8 394.95 303.9 Q393.75 304.05 392.45 305.2 L392.25 305.4 392.15 305.5 M397.2 304.4 L397.5 304.6 398.4 305.45 398.6 305.6 398.65 305.75 398.75 305.9 399.2 306.6 399.25 306.75 399.3 306.95" ffdec:has-small-stroke="true" ffdec:original-stroke-width="0.5" fill="none" stroke="#000000" stroke-linecap="round" stroke-linejoin="round" stroke-opacity="0.6" stroke-width="1.0"/>
    <path d="M399.2 309.2 L397.2 309.7 Q395.0 310.35 392.2 307.25" ffdec:has-small-stroke="true" ffdec:original-stroke-width="0.05" fill="none" stroke="#000000" stroke-linecap="round" stroke-linejoin="round" stroke-opacity="0.3019608" stroke-width="1.0"/>
    <path d="M394.2 307.6 Q394.4 306.3 395.9 306.95 L396.25 307.25 Q396.7 308.3 395.5 308.5 L395.25 308.35 Q394.45 308.1 394.2 307.6" fill="#ffffff" fill-rule="evenodd" stroke="none"/>
    <path d="M397.55 306.9 L397.75 307.0 398.8 307.7 398.85 308.5 Q398.75 309.0 398.3 309.15 L397.4 309.25 396.65 308.6 Q396.45 308.2 396.55 307.7 396.7 307.25 397.1 307.0 L397.55 306.9" fill="#9e0303" fill-rule="evenodd" stroke="none"/>
    <path d="M397.55 306.9 L398.0 306.95 398.75 307.55 398.8 307.7 397.75 307.0 397.55 306.9" fill="#4b0101" fill-rule="evenodd" stroke="none"/>
    <path d="M398.8 307.7 L398.75 307.55 398.0 306.95 397.55 306.9 397.75 307.0 398.8 307.7 398.85 308.5 Q398.75 309.0 398.3 309.15 L397.4 309.25 396.65 308.6 Q396.45 308.2 396.55 307.7 396.7 307.25 397.1 307.0 L397.55 306.9" ffdec:has-small-stroke="true" ffdec:original-stroke-width="0.05" fill="none" stroke="#000000" stroke-linecap="round" stroke-linejoin="round" stroke-opacity="0.3019608" stroke-width="1.0" vector-effect="non-scaling-stroke"/>
    <path d="M397.35 307.45 L397.0 307.5 396.65 307.25 396.6 306.9 396.85 306.6 397.25 306.55 397.55 306.8 397.6 307.2 397.35 307.45" fill="#ffffff" fill-rule="evenodd" stroke="none"/>
    <path d="M407.9 295.15 L408.5 295.55 410.85 297.15 411.9 300.85 Q410.15 302.3 407.15 303.5 L407.15 303.75 406.25 303.85 404.75 304.35 404.65 304.3 394.5 304.0 390.6 301.8 391.1 298.2 Q392.7 295.65 397.95 294.4 400.8 294.05 403.35 294.3 L403.3 294.25 Q403.15 293.9 402.35 293.65 403.4 293.65 404.15 294.35 L403.8 293.75 403.75 293.45 403.6 293.2 405.3 294.55 405.6 294.6 Q405.3 293.8 405.9 293.4 406.45 293.0 407.65 292.85 406.0 293.45 406.5 294.55 L406.65 294.7 406.7 294.85 407.9 295.15" fill="#000000" fill-opacity="0.5019608" fill-rule="evenodd" stroke="none"/>
    <path d="M406.3 303.9 L405.95 304.0 405.95 303.9 406.3 303.9 M402.9 306.15 L402.45 306.9 402.5 306.65 402.9 306.15" fill="#f2f4f7" fill-rule="evenodd" stroke="none"/>
    <path d="M402.2 308.05 L402.8 307.45 Q403.3 307.0 403.85 306.75 L404.3 306.55 Q406.4 305.45 409.45 305.75 L409.4 307.15 Q406.6 310.45 404.4 309.9 L402.4 309.5 Q402.1 309.0 402.15 308.2 L402.2 308.05" fill="#ffffff" fill-rule="evenodd" stroke="none"/>
    <path d="M406.3 303.9 L406.65 303.95 Q407.85 304.05 409.15 305.15 L409.35 305.3 409.45 305.4 409.45 305.6 409.45 305.75 Q406.4 305.45 404.3 306.55 L403.85 306.75 Q403.3 307.0 402.8 307.45 L402.2 308.05 402.2 307.85 402.25 307.6 402.3 307.45 402.3 307.3 402.35 307.1 402.45 306.9 402.9 306.15 402.95 306.05 403.0 305.9 403.2 305.7 404.1 304.8 404.4 304.6 404.5 304.55 404.6 304.5 404.65 304.4 405.15 304.2 405.95 304.0 406.3 303.9" fill="#cecab0" fill-rule="evenodd" stroke="none"/>
    <path d="M402.3 307.45 L402.25 307.6" ffdec:has-small-stroke="true" ffdec:original-stroke-width="0.25" fill="none" stroke="#000000" stroke-linecap="round" stroke-linejoin="round" stroke-opacity="0.3019608" stroke-width="1.0"/>
    <path d="M409.45 305.4 L409.35 305.3 409.15 305.15 Q407.85 304.05 406.65 303.95 L406.3 303.9 405.95 304.0 404.65 304.4 404.4 304.6 404.1 304.8 403.2 305.7 403.0 305.9 402.95 306.05 402.9 306.15 402.45 306.9 402.35 307.1 402.3 307.3" ffdec:has-small-stroke="true" ffdec:original-stroke-width="0.5" fill="none" stroke="#000000" stroke-linecap="round" stroke-linejoin="round" stroke-opacity="0.6" stroke-width="1.0"/>
    <path d="M402.4 309.5 L404.4 309.9 Q406.6 310.45 409.4 307.15" ffdec:has-small-stroke="true" ffdec:original-stroke-width="0.05" fill="none" stroke="#000000" stroke-linecap="round" stroke-linejoin="round" stroke-opacity="0.3019608" stroke-width="1.0"/>
    <path d="M407.4 307.6 Q407.2 306.3 405.7 307.05 L405.35 307.35 Q404.9 308.45 406.1 308.65 L406.35 308.5 407.4 307.6" fill="#ffffff" fill-rule="evenodd" stroke="none"/>
    <path d="M402.8 307.9 Q402.6 308.3 402.75 308.7 402.85 309.2 403.3 309.35 403.7 309.55 404.2 309.35 L404.95 308.7 405.05 307.75 Q404.9 307.3 404.5 307.15 L404.05 307.05 403.85 307.15 Q403.3 307.45 402.8 307.9" fill="#9e0303" fill-rule="evenodd" stroke="none"/>
    <path d="M404.05 307.05 L403.6 307.1 Q403.1 307.3 402.85 307.8 L402.8 307.9 Q403.3 307.45 403.85 307.15 L404.05 307.05" fill="#4b0101" fill-rule="evenodd" stroke="none"/>
    <path d="M404.05 307.05 L403.6 307.1 Q403.1 307.3 402.85 307.8 L402.8 307.9 Q402.6 308.3 402.75 308.7 402.85 309.2 403.3 309.35 403.7 309.55 404.2 309.35 L404.95 308.7 405.05 307.75 Q404.9 307.3 404.5 307.15 L404.05 307.05 403.85 307.15 Q403.3 307.45 402.8 307.9" ffdec:has-small-stroke="true" ffdec:original-stroke-width="0.05" fill="none" stroke="#000000" stroke-linecap="round" stroke-linejoin="round" stroke-opacity="0.3019608" stroke-width="1.0" vector-effect="non-scaling-stroke"/>
    <path d="M404.25 307.65 L404.6 307.6 404.95 307.4 405.0 306.95 404.75 306.75 404.35 306.7 404.05 307.0 Q403.95 307.15 404.0 307.35 L404.25 307.65" fill="#ffffff" fill-rule="evenodd" stroke="none"/>
    <path d="M412.4 302.2 L412.3 302.15 Q410.7 300.45 410.2 298.9 L409.25 297.95 Q408.85 299.65 408.8 300.85 L408.8 301.0 Q408.7 302.15 408.75 303.4 L408.75 304.55 409.1 308.65 408.85 311.3 408.85 311.4 413.35 311.2 Q414.55 309.75 414.2 306.55 412.8 304.5 412.4 302.2" fill="#c3b3a3" fill-rule="evenodd" stroke="none"/>
    <path d="M412.4 302.2 Q412.8 304.5 414.2 306.55 414.55 309.75 413.35 311.2 L408.85 311.4 408.85 311.3 408.5 312.8 408.1 314.2 406.8 317.25 408.3 316.2 408.75 315.9 Q409.6 315.4 410.8 314.8 L411.2 314.6 412.35 314.0 Q414.3 312.7 415.55 311.25 416.4 310.3 415.6 307.85 414.85 305.2 412.4 302.2" fill="#ffffff" fill-rule="evenodd" stroke="none"/>
    <path d="M408.8 300.85 Q408.85 299.65 409.25 297.95 L410.2 298.9 Q410.7 300.45 412.3 302.15 L412.4 302.2 Q414.85 305.2 415.6 307.85 416.4 310.3 415.55 311.25 414.3 312.7 412.35 314.0 L411.2 314.6 410.8 314.8 Q409.6 315.4 408.75 315.9 L408.3 316.2 406.8 317.25 408.1 314.2 408.5 312.8 408.85 311.3 409.1 308.65 408.75 304.55 M408.75 303.4 Q408.7 302.15 408.8 301.0" ffdec:has-small-stroke="true" ffdec:original-stroke-width="0.05" fill="none" stroke="#000000" stroke-linecap="round" stroke-linejoin="round" stroke-opacity="0.4" stroke-width="1.0"/>
    <path d="M389.45 302.8 L389.5 302.75 Q391.25 301.1 391.75 299.5 L392.85 298.6 393.35 301.45 393.35 301.6 393.4 304.0 393.4 305.2 393.05 309.3 393.4 311.95 393.4 312.05 388.45 311.8 Q387.15 310.3 387.45 307.15 389.0 305.1 389.45 302.8" fill="#c3b3a3" fill-rule="evenodd" stroke="none"/>
    <path d="M389.45 302.8 Q389.0 305.1 387.45 307.15 387.15 310.3 388.45 311.8 L393.4 312.05 393.4 311.95 393.75 313.4 394.2 314.85 Q394.75 316.35 395.65 317.9 L394.0 316.85 393.5 316.5 391.25 315.45 390.85 315.2 389.55 314.6 Q387.45 313.3 386.05 311.85 385.15 310.85 386.0 308.4 386.75 305.75 389.45 302.8" fill="#ffffff" fill-rule="evenodd" stroke="none"/>
    <path d="M393.35 301.45 L392.85 298.6 391.75 299.5 Q391.25 301.1 389.5 302.75 L389.45 302.8 Q386.75 305.75 386.0 308.4 385.15 310.85 386.05 311.85 387.45 313.3 389.55 314.6 L390.85 315.2 391.25 315.45 393.5 316.5 394.0 316.85 395.65 317.9 Q394.75 316.35 394.2 314.85 L393.75 313.4 393.4 311.95 393.05 309.3 393.4 305.2 M393.4 304.0 L393.35 301.6" ffdec:has-small-stroke="true" ffdec:original-stroke-width="0.05" fill="none" stroke="#000000" stroke-linecap="round" stroke-linejoin="round" stroke-opacity="0.4" stroke-width="1.0"/>
    <path d="M408.65 293.0 L411.0 295.05 411.45 297.3 411.45 296.95 411.95 299.5 411.45 300.0 411.45 300.15 Q409.2 302.15 405.25 303.65 L404.55 303.9 405.45 299.85 409.0 296.75 408.65 293.0" fill="#ffffff" fill-rule="evenodd" stroke="none"/>
    <path d="M404.4 303.9 L395.4 303.65 394.15 303.35 390.3 300.45 390.95 296.05 Q392.65 292.85 398.05 291.35 403.75 290.7 408.15 292.55 L408.65 293.0 409.0 296.75 405.45 299.85 404.55 303.9 404.4 303.9" fill="#c3b3a3" fill-rule="evenodd" stroke="none"/>
    <path d="M404.4 303.9 L395.4 303.65 394.15 303.35 390.3 300.45 390.95 296.05 Q392.65 292.85 398.05 291.35 403.75 290.7 408.15 292.55 L408.65 293.0 411.0 295.05 411.45 297.3 M411.45 296.95 L411.95 299.5 411.45 300.0 M411.45 300.15 Q409.2 302.15 405.25 303.65 L404.55 303.9" ffdec:has-small-stroke="true" ffdec:original-stroke-width="0.05" fill="none" stroke="#000000" stroke-linecap="round" stroke-linejoin="round" stroke-opacity="0.4" stroke-width="1.0"/>
    <path d="M401.35 302.6 L400.7 300.95 402.0 301.8 402.15 302.75 402.0 304.0 401.5 304.85 401.05 304.95 400.85 304.8 401.5 304.05 401.45 302.7 401.35 302.6 M399.85 302.85 L399.85 302.75 400.9 302.75 401.0 303.2 400.7 303.45 399.85 302.85" fill="#ffcf2b" fill-rule="evenodd" stroke="none"/>
    <path d="M400.55 301.65 L401.35 302.6 401.45 302.7 401.5 304.05 400.85 304.8 399.65 303.7 399.85 302.85 400.7 303.45 401.0 303.2 400.9 302.75 400.55 301.65" fill="#d1a100" fill-rule="evenodd" stroke="none"/>
    <path d="M402.0 301.8 L402.2 301.9 402.7 303.0 402.15 304.75 401.5 304.85 402.0 304.0 402.15 302.75 402.0 301.8" fill="#ffffd7" fill-rule="evenodd" stroke="none"/>
    <path d="M400.7 300.95 L398.3 297.6 Q398.15 296.85 398.85 296.05 L401.7 299.65 401.6 300.6 402.2 301.9 402.0 301.8 400.7 300.95" fill="#b18100" fill-rule="evenodd" stroke="none"/>
    <path d="M398.85 296.05 Q398.15 296.85 398.3 297.6 L400.7 300.95 401.35 302.6 400.55 301.65 400.35 301.25 Q400.2 300.6 397.65 298.2 397.1 297.45 397.15 296.05 397.75 294.5 399.1 293.75 L402.55 293.8 403.4 295.25 403.6 295.6 Q401.15 294.95 398.85 296.05" fill="#dfaf0b" fill-rule="evenodd" stroke="none"/>
    <path d="M398.85 296.05 Q401.15 294.95 403.6 295.6 403.85 296.5 403.45 297.85 402.05 298.7 401.7 299.65 L398.85 296.05" fill="#714100" fill-rule="evenodd" stroke="none"/>
    <path d="M403.6 295.6 L403.4 295.25 402.55 293.8 399.1 293.75 Q397.75 294.5 397.15 296.05 397.1 297.45 397.65 298.2 400.2 300.6 400.35 301.25 L400.55 301.65 400.9 302.75 399.85 302.75 399.85 302.85 399.65 303.7 400.85 304.8 401.05 304.95 401.5 304.85 402.15 304.75 402.7 303.0 402.2 301.9 401.6 300.6 401.7 299.65 Q402.05 298.7 403.45 297.85 403.85 296.5 403.6 295.6 M401.0 303.2 L400.9 302.75" ffdec:has-small-stroke="true" ffdec:original-stroke-width="0.05" fill="none" stroke="#926030" stroke-linecap="round" stroke-linejoin="round" stroke-width="1.0"/>
    <path d="M402.05 292.65 L402.25 292.7 402.3 292.9 402.05 292.65 M404.45 297.35 L404.35 297.4 404.2 297.5 403.55 297.9 403.5 297.95 403.5 297.9 403.4 297.95 403.3 297.95 402.65 297.8 Q400.5 296.8 399.7 295.75 L399.55 295.5 400.1 295.7 401.0 295.8 401.55 295.65 401.35 295.3 400.55 294.95 400.5 294.95 399.6 294.85 399.3 294.9 Q398.7 294.4 398.65 293.65 L399.0 293.45 398.9 293.3 Q397.9 292.3 397.5 292.65 L399.45 292.8 399.6 292.85 400.05 292.9 400.15 292.8 400.2 292.6 Q400.4 292.1 401.05 293.1 401.45 291.95 402.25 293.8 L402.3 292.9 Q403.15 293.6 403.55 295.0 404.5 294.95 404.85 295.95 L404.85 296.05 Q404.85 296.95 404.45 297.35 M402.4 295.35 Q401.4 294.45 400.5 294.95 401.4 294.45 402.4 295.35 M403.5 297.9 L403.55 297.9 403.5 297.9" fill="#ffcf2b" fill-rule="evenodd" stroke="none"/>
    <path d="M403.5 297.95 L403.4 297.95 403.5 297.9 403.5 297.95" fill="#d1a100" fill-rule="evenodd" stroke="none"/>
    <path d="M399.55 295.5 L399.25 295.35 Q399.0 295.15 399.1 295.0 399.1 294.9 399.3 294.9 L399.6 294.85 400.5 294.95 400.55 294.95 401.35 295.3 401.55 295.65 401.0 295.8 400.1 295.7 399.55 295.5" fill="#f40bae" fill-opacity="0.32156864" fill-rule="evenodd" stroke="none"/>
    <path d="M400.7 291.6 L400.65 291.2 400.6 290.8 402.0 292.6 400.7 291.6 M402.8 291.15 Q403.35 290.6 404.6 290.4 402.9 291.15 403.2 292.65 L402.8 291.15 M404.25 294.15 L404.55 294.45 404.75 294.7 Q405.35 295.5 405.1 296.4 L404.8 297.0 404.45 297.35 Q404.85 296.95 404.85 296.05 L404.85 295.95 404.45 294.75 404.25 294.15 M404.75 294.7 L404.45 294.75 404.75 294.7" fill="#ffffd7" fill-rule="evenodd" stroke="none"/>
    <path d="M398.15 296.8 L398.05 296.65 Q397.5 296.1 397.5 295.75 397.35 295.3 397.8 294.5 398.0 294.0 398.65 293.65 398.7 294.4 399.3 294.9 399.1 294.9 399.1 295.0 399.0 295.15 399.25 295.35 L399.55 295.5 399.7 295.75 Q400.5 296.8 402.65 297.8 L402.4 297.75 399.75 297.05 399.6 296.95 399.25 296.9 399.4 296.8 398.65 296.6 398.15 296.8" fill="#dfaf0b" fill-rule="evenodd" stroke="none"/>
    <path d="M400.4 298.0 Q399.2 297.75 398.45 297.0 L398.15 296.8 398.65 296.6 399.4 296.8 399.25 296.9 399.6 296.95 400.4 298.0" fill="#b18100" fill-rule="evenodd" stroke="none"/>
    <path d="M400.2 292.6 L400.05 292.2 399.25 291.4 Q400.3 291.5 400.9 292.35 L400.7 291.6 402.0 292.6 402.05 292.65 402.3 292.9 402.25 292.7 Q402.1 291.65 402.8 291.15 L403.2 292.65 403.25 292.9 403.3 293.1 403.65 293.7 403.85 293.85 403.95 293.85 404.25 294.15 404.45 294.75 404.85 295.95 Q404.5 294.95 403.55 295.0 403.15 293.6 402.3 292.9 L402.25 293.8 Q401.45 291.95 401.05 293.1 400.4 292.1 400.2 292.6 M400.9 292.35 L400.95 292.35 401.05 293.1 400.95 292.35 400.9 292.35 M403.55 295.0 Q403.8 294.75 404.45 294.75 403.8 294.75 403.55 295.0" fill="#ffe541" fill-rule="evenodd" stroke="none"/>
    <path d="M403.3 297.95 L402.25 298.2 400.4 298.0 399.6 296.95 399.75 297.05 402.4 297.75 402.65 297.8 403.3 297.95" fill="#714100" fill-rule="evenodd" stroke="none"/>
    <path d="M403.95 293.85 L404.25 294.15 404.55 294.45 404.75 294.7 Q405.35 295.5 405.1 296.4 L404.8 297.0 M397.5 295.75 Q397.35 295.3 397.8 294.5 398.0 294.0 398.65 293.65 L399.0 293.45" ffdec:has-small-stroke="true" ffdec:original-stroke-width="0.05" fill="none" stroke="#000000" stroke-linecap="round" stroke-linejoin="round" stroke-opacity="0.4" stroke-width="1.0"/>
    <path d="M400.2 292.6 L400.05 292.2 399.25 291.4 Q400.3 291.5 400.9 292.35 L400.7 291.6 M400.65 291.2 L400.6 290.8 402.0 292.6 402.05 292.65 402.25 292.7 Q402.1 291.65 402.8 291.15 403.35 290.6 404.6 290.4 402.9 291.15 403.2 292.65 M403.25 292.9 L403.3 293.1 403.65 293.7 403.85 293.85 403.95 293.85 M399.0 293.45 L398.9 293.3 Q397.9 292.3 397.5 292.65 L399.45 292.8 399.6 292.85 400.05 292.9 400.15 292.8 400.2 292.6 M401.05 293.1 L400.95 292.35 400.9 292.35 M402.05 292.65 L402.3 292.9 402.25 292.7 M402.3 292.9 L402.25 293.8" ffdec:has-small-stroke="true" ffdec:original-stroke-width="0.05" fill="none" stroke="#4d2e1a" stroke-linecap="round" stroke-linejoin="round" stroke-opacity="0.4" stroke-width="1.0"/>
    <path d="M404.8 297.0 L404.45 297.35 404.35 297.4 404.2 297.5 403.55 297.9 403.5 297.9 403.4 297.95 403.3 297.95 402.65 297.8 402.4 297.75 399.75 297.05 399.6 296.95 399.25 296.9 M400.5 294.95 Q401.4 294.45 402.4 295.35 M404.45 294.75 L404.75 294.7 M404.45 294.75 Q403.8 294.75 403.55 295.0" ffdec:has-small-stroke="true" ffdec:original-stroke-width="0.05" fill="none" stroke="#926030" stroke-linecap="round" stroke-linejoin="round" stroke-width="1.0"/>
    <path d="M399.65 303.4 Q391.8 302.95 389.5 301.45 L390.15 299.4 Q393.0 300.65 397.0 300.9 L399.65 303.4" fill="#7b4b00" fill-rule="evenodd" stroke="none"/>
    <path d="M397.0 300.9 L398.85 301.0 401.9 303.4 401.05 303.4 399.65 303.4 397.0 300.9 M400.3 301.0 Q405.05 301.0 408.35 300.15 L408.35 300.25 408.9 302.2 408.05 302.45 404.25 303.15 403.4 303.3 400.3 301.0 M409.25 299.95 L409.4 299.95 409.4 299.85 Q410.1 299.7 410.65 299.35 L411.2 301.2 409.75 301.9 409.25 299.95" fill="#ffcf2b" fill-rule="evenodd" stroke="none"/>
    <path d="M408.35 300.25 L409.25 299.95 409.75 301.9 408.9 302.2 408.35 300.25 M410.65 299.35 L410.95 299.2 411.9 298.5 412.4 300.4 411.2 301.2 410.65 299.35" fill="#ffffd7" fill-rule="evenodd" stroke="none"/>
    <path d="M398.85 301.0 L399.85 300.95 400.3 301.0 403.4 303.3 401.9 303.4 398.85 301.0" fill="#a77700" fill-rule="evenodd" stroke="none"/>
    <path d="M399.65 303.4 Q391.8 302.95 389.5 301.45 L390.15 299.4 Q393.0 300.65 397.0 300.9 L398.85 301.0 399.85 300.95 400.3 301.0 Q405.05 301.0 408.35 300.15 M408.35 300.25 L409.25 299.95 M409.4 299.95 L409.4 299.85 Q410.1 299.7 410.65 299.35 M410.95 299.2 L411.9 298.5 412.4 300.4 411.2 301.2 409.75 301.9 408.9 302.2 408.05 302.45 404.25 303.15 403.4 303.3 401.9 303.4 401.05 303.4 399.65 303.4" ffdec:has-small-stroke="true" ffdec:original-stroke-width="0.05" fill="none" stroke="#000000" stroke-linecap="round" stroke-linejoin="round" stroke-opacity="0.4" stroke-width="1.0"/>
  </g>
</svg>
