<?xml version="1.0" encoding="UTF-8" standalone="no"?>
<svg xmlns:ffdec="https://www.free-decompiler.com/flash" xmlns:xlink="http://www.w3.org/1999/xlink" ffdec:objectType="shape" height="37.2px" width="25.1px" xmlns="http://www.w3.org/2000/svg">
  <g transform="matrix(1.0, 0.0, 0.0, 1.0, -388.15, -279.25)">
    <path d="M400.4 294.85 L399.55 295.05 399.55 294.85 400.2 294.85 400.4 294.85" fill="#404040" fill-rule="evenodd" stroke="none"/>
    <path d="M402.65 294.55 L403.05 294.75 401.4 294.65 402.65 294.55 M404.7 314.1 L404.65 314.2 404.55 314.2 404.7 314.1 M394.7 314.2 L394.6 314.2 394.55 314.1 394.7 314.2 M401.4 294.65 L401.1 294.75 400.8 294.85 400.4 294.85 400.2 294.85 401.4 294.65 M399.05 294.85 L398.85 294.85 397.65 294.65 399.05 294.85" fill="#000000" fill-rule="evenodd" stroke="none"/>
    <path d="M404.05 299.95 L404.7 303.0 402.85 306.35 399.7 306.8 399.55 306.8 396.5 306.35 394.55 303.0 395.3 299.95 395.4 300.05 399.55 299.55 399.6 299.55 399.7 299.65 403.95 300.05 404.05 299.95" fill="#151515" fill-rule="evenodd" stroke="none"/>
    <path d="M401.1 294.75 L400.9 294.95 402.35 295.05 406.4 297.4 404.05 299.95 403.95 300.05 399.7 299.65 399.6 299.55 399.55 299.55 395.4 300.05 395.3 299.95 392.85 297.4 397.0 295.05 398.85 294.85 399.05 294.85 399.55 294.85 399.55 295.05 400.4 294.85 400.8 294.85 401.1 294.75" fill="#415658" fill-rule="evenodd" stroke="none"/>
    <path d="M401.4 294.65 L403.05 294.75 407.75 297.4 411.0 304.25 408.75 310.55 404.7 314.1 404.55 314.2 404.25 314.45 399.55 314.45 399.55 306.8 399.7 306.8 402.85 306.35 404.7 303.0 404.05 299.95 406.4 297.4 402.35 295.05 400.9 294.95 401.1 294.75 401.4 294.65 400.2 294.85 399.55 294.85 399.05 294.85 397.65 294.65 401.4 294.65" fill="url(#gradient0)" fill-rule="evenodd" stroke="none"/>
    <path d="M399.55 314.45 L395.0 314.45 394.7 314.2 394.55 314.1 390.6 310.55 388.25 304.25 391.6 297.4 396.7 294.65 397.65 294.65 398.85 294.85 397.0 295.05 392.85 297.4 395.3 299.95 394.55 303.0 396.5 306.35 399.55 306.8 399.55 314.45" fill="url(#gradient1)" fill-rule="evenodd" stroke="none"/>
    <path d="M403.05 294.75 L402.65 294.55 M401.4 294.65 L403.05 294.75 407.75 297.4 411.0 304.25 408.75 310.55 404.7 314.1 404.55 314.2 404.25 314.45 399.55 314.45 395.0 314.45 394.7 314.2 394.55 314.1 390.6 310.55 388.25 304.25 391.6 297.4 396.7 294.65 397.65 294.65 401.4 294.65 Z" ffdec:has-small-stroke="true" ffdec:original-stroke-width="0.25" fill="none" stroke="#000000" stroke-linecap="round" stroke-linejoin="round" stroke-opacity="0.4" stroke-width="1.0"/>
    <path d="M405.75 312.6 L405.85 312.6 405.85 312.7 405.4 312.7 405.55 312.65 405.75 312.6 M406.2 313.25 L406.3 313.3 406.15 313.35 406.05 313.35 406.2 313.25 M404.2 312.5 L404.9 312.1 405.2 312.15 405.15 312.05 405.55 311.85 406.3 311.8 404.65 312.6 404.2 312.5 M406.4 312.1 L406.7 312.15 405.75 312.4 405.9 312.25 406.4 312.1 M404.7 313.2 L404.85 313.05 405.05 313.1 405.15 313.05 405.15 313.35 404.7 313.2 M406.25 314.65 L406.35 314.6 406.3 314.8 405.9 314.7 406.1 314.75 406.25 314.65 M402.2 314.45 L402.85 314.3 403.0 314.35 403.05 314.3 403.5 314.2 403.75 314.4 402.5 314.55 402.2 314.45 M394.45 312.5 L395.3 312.65 395.45 312.7 395.6 312.6 396.1 312.75 396.45 313.2 395.3 312.95 394.65 312.8 394.45 312.5 M396.4 313.4 L396.7 313.5 396.05 313.35 395.45 313.1 395.3 312.95 395.75 313.2 396.4 313.4 M394.15 313.15 L394.35 313.1 394.5 313.35 394.7 313.3 394.4 313.55 394.15 313.15 M395.3 313.25 L395.4 313.35 395.15 313.3 395.3 313.25 M395.05 314.1 L395.0 313.95 395.1 314.0 395.3 314.05 395.05 314.1 M393.85 314.9 L394.05 314.95 393.9 315.0 393.65 314.95 393.85 314.9 M402.4 314.95 L402.65 314.8 402.75 314.8 402.6 315.0 402.4 314.95 M399.1 314.4 L399.75 314.5 399.95 314.55 400.0 314.45 400.25 314.5 400.6 314.7 399.35 314.55 399.1 314.4 M398.75 314.75 L398.95 314.8 399.2 314.75 399.25 314.85 399.05 314.9 398.75 314.75 M398.75 315.65 L398.8 315.75 398.7 315.75 398.55 315.6 398.75 315.65" fill="#e2dfc7" fill-rule="evenodd" stroke="none"/>
    <path d="M405.55 312.65 L405.45 312.6 405.3 312.45 405.55 312.35 405.65 312.4 405.75 312.6 405.55 312.65 M405.85 312.7 L406.2 313.25 406.05 313.35 406.15 313.35 406.45 313.5 406.4 313.7 406.5 313.7 406.15 313.75 405.65 313.1 405.75 313.0 405.65 313.0 405.4 312.7 405.85 312.7 M402.3 314.9 L402.2 314.45 402.5 314.55 402.65 314.8 402.4 314.95 402.3 314.9 M395.15 313.3 L395.4 313.35 395.3 313.25 395.2 313.2 395.3 312.95 395.45 313.1 395.4 313.35 395.5 313.4 395.1 314.0 395.0 313.95 395.05 314.1 395.0 314.4 394.9 314.35 395.05 314.6 394.75 314.3 394.9 313.65 395.05 313.7 395.1 313.6 395.15 313.3 M399.1 314.4 L399.35 314.55 399.2 314.75 398.95 314.8 398.9 314.65 398.8 314.65 399.1 314.4" fill="#cbc09a" fill-rule="evenodd" stroke="none"/>
    <path d="M395.3 312.95 L396.45 313.2 396.4 313.4 395.75 313.2 395.3 312.95 M393.5 316.15 L393.2 315.75 393.75 314.15 393.9 314.1 393.8 313.95 394.15 313.15 394.4 313.55 394.1 314.35 394.1 314.65 393.85 314.9 393.65 314.95 393.9 315.0 393.7 315.4 393.55 315.6 393.7 315.65 393.55 315.85 393.65 315.85 393.5 316.15" fill="#888844" fill-rule="evenodd" stroke="none"/>
    <path d="M405.75 312.6 L405.65 312.4 405.55 312.35 405.3 312.45 405.45 312.6 405.55 312.65 405.4 312.7 405.65 313.0 405.75 313.0 405.65 313.1 406.15 313.75 406.5 313.7 406.4 313.7 406.45 313.5 406.15 313.35 406.3 313.3 406.2 313.25 405.85 312.7 405.85 312.6 405.75 312.6 M404.65 312.6 L406.3 311.8 406.4 312.1 405.9 312.25 405.75 312.4 406.7 312.15 407.5 313.3 407.4 313.35 407.35 313.45 408.35 314.75 408.3 315.15 408.1 315.3 406.95 315.65 406.9 315.45 406.8 315.4 406.75 315.35 406.65 315.3 406.3 314.8 406.35 314.6 406.25 314.65 405.9 314.25 405.8 314.15 405.15 313.35 405.15 313.05 405.05 313.1 404.65 312.6 M402.65 315.7 L402.6 315.8 402.65 316.1 402.7 316.3 402.6 316.3 402.75 316.45 402.4 316.35 402.35 315.5 402.4 315.3 402.25 315.4 402.3 314.9 402.4 314.95 402.6 315.0 402.6 315.35 402.65 315.7 M394.65 312.8 L395.3 312.95 395.2 313.2 395.3 313.25 395.15 313.3 395.1 313.6 395.05 313.7 394.9 313.65 394.75 314.3 395.05 314.6 394.9 314.35 395.0 314.4 395.05 314.1 395.3 314.05 395.1 314.0 395.5 313.4 395.4 313.35 395.45 313.1 396.05 313.35 396.7 313.5 396.2 314.85 396.0 314.8 395.9 314.85 395.7 315.6 Q394.1 316.3 393.7 315.4 L393.9 315.0 394.05 314.95 393.85 314.9 394.1 314.65 394.1 314.35 394.4 313.55 394.7 313.3 394.5 313.35 394.65 312.8 M398.45 316.25 L398.1 316.05 398.5 315.25 398.65 315.2 398.55 315.05 398.75 314.75 399.05 314.9 398.8 315.35 398.75 315.65 398.55 315.6 398.7 315.75 398.65 315.9 398.55 315.95 398.45 315.95 398.4 316.05 398.45 316.25" fill="#615b30" fill-rule="evenodd" stroke="none"/>
    <path d="M394.45 312.5 L394.65 312.8 394.5 313.35 394.35 313.1 394.1 312.9 394.45 312.5" fill="#524e29" fill-rule="evenodd" stroke="none"/>
    <path d="M404.2 312.5 L404.65 312.6 405.05 313.1 404.85 313.05 404.5 313.05 404.2 312.5 M406.95 315.65 L406.45 315.65 405.35 314.1 405.4 314.05 405.2 314.0 404.7 313.2 405.15 313.35 405.8 314.15 405.9 314.25 406.25 314.65 406.1 314.75 405.9 314.7 406.3 314.8 406.65 315.3 406.75 315.35 406.8 315.4 406.9 315.45 406.95 315.65" fill="#837b41" fill-rule="evenodd" stroke="none"/>
    <path d="M403.85 315.45 L402.65 315.7 402.6 315.35 402.6 315.0 402.75 314.8 402.65 314.8 402.5 314.55 403.75 314.4 403.85 315.45 M399.35 314.55 L400.6 314.7 399.9 316.1 Q398.95 316.3 398.65 315.9 L398.7 315.75 398.8 315.75 398.75 315.65 398.8 315.35 399.05 314.9 399.25 314.85 399.2 314.75 399.35 314.55" fill="#433f23" fill-rule="evenodd" stroke="none"/>
    <path d="M399.9 316.1 L399.75 316.3 399.55 316.45 398.45 316.25 398.4 316.05 398.45 315.95 398.55 315.95 398.65 315.9 Q398.95 316.3 399.9 316.1" fill="#ffcc00" fill-rule="evenodd" stroke="none"/>
    <path d="M403.85 315.45 L404.0 316.1 403.6 316.3 402.75 316.45 402.6 316.3 402.7 316.3 402.65 316.1 402.6 315.8 402.65 315.7 403.85 315.45 M395.7 315.6 L395.4 316.25 394.95 316.45 394.75 316.45 393.5 316.15 393.65 315.85 393.55 315.85 393.7 315.65 393.55 315.6 393.7 315.4 Q394.1 316.3 395.7 315.6" fill="#ec7702" fill-rule="evenodd" stroke="none"/>
    <path d="M399.85 294.1 L399.3 291.1 Q398.3 288.2 400.55 285.5 398.8 288.7 400.5 290.0 L401.35 291.9 Q402.6 294.4 400.7 299.4 401.6 298.9 402.75 296.05 403.55 298.25 402.5 301.15 403.4 301.05 404.0 298.95 403.5 304.25 401.1 306.7 401.4 307.0 402.85 305.45 402.3 307.35 399.7 309.85 L398.9 310.8 399.7 310.25 398.9 311.1 398.0 309.7 Q398.9 309.2 399.75 307.3 398.85 308.6 397.45 308.8 397.15 308.2 397.0 307.15 396.7 305.05 398.05 302.3 397.9 300.85 396.5 305.25 396.2 304.1 396.15 302.7 L396.55 298.1 Q396.65 300.65 397.7 300.9 400.15 296.4 399.85 294.1" fill="#000000" fill-opacity="0.7607843" fill-rule="evenodd" stroke="none"/>
    <path d="M407.3 285.75 L408.0 290.35 Q408.45 294.3 405.85 297.1 404.25 295.2 404.05 291.9 L403.75 297.8 Q403.8 299.4 404.2 301.5 405.8 297.25 406.1 299.8 404.55 301.85 404.75 305.2 L405.55 308.2 Q407.2 309.9 408.0 309.2 407.15 310.75 406.15 310.35 L407.15 313.75 Q407.55 312.7 408.1 312.8 411.05 312.85 411.6 310.7 409.9 311.3 409.55 310.05 412.25 309.85 413.0 304.65 L413.25 303.8 413.2 303.7 Q412.25 304.95 411.4 304.45 412.45 301.5 411.7 297.3 410.05 299.95 409.0 299.35 411.3 294.8 409.9 289.6 L408.65 285.55 Q406.8 281.45 408.9 279.25 406.3 280.2 407.3 285.75" fill="#000000" fill-opacity="0.23137255" fill-rule="evenodd" stroke="none"/>
    <path d="M396.7 291.6 L396.35 294.9 Q396.2 297.75 399.0 299.3 400.45 297.7 400.35 295.4 L401.1 299.45 400.9 302.1 Q399.0 299.35 398.95 301.2 400.6 302.4 400.7 304.75 L400.1 307.0 Q398.65 308.45 397.8 308.05 398.75 309.05 399.7 308.55 399.2 309.85 398.95 311.1 398.5 310.45 397.9 310.65 395.0 311.1 394.35 309.75 396.05 309.85 396.25 308.95 393.6 309.2 392.45 305.7 L392.15 305.15 392.2 305.05 Q393.3 305.75 394.05 305.3 392.8 303.45 393.2 300.4 395.0 301.95 396.05 301.35 393.45 298.55 394.4 294.7 L395.3 291.65 Q396.85 288.5 394.6 287.3 397.25 287.55 396.7 291.6" fill="#000000" fill-opacity="0.23137255" fill-rule="evenodd" stroke="none"/>
    <path d="M398.85 293.4 L398.6 295.4 Q398.4 297.15 399.2 298.35 399.75 297.55 399.9 296.1 L399.9 298.65 399.7 300.3 Q399.25 298.4 399.1 299.55 399.6 300.45 399.5 301.9 L399.15 303.2 Q398.6 303.95 398.35 303.65 398.6 304.35 398.95 304.15 L398.55 305.65 398.25 305.25 Q397.25 305.25 397.15 304.3 397.65 304.55 397.8 304.0 396.9 303.9 396.75 301.65 L396.65 301.25 396.7 301.25 Q396.95 301.8 397.25 301.55 396.95 300.3 397.25 298.45 397.75 299.6 398.15 299.35 397.45 297.35 397.95 295.1 L398.45 293.3 Q399.1 291.5 398.45 290.55 399.3 290.95 398.85 293.4" fill="#000000" fill-opacity="0.23137255" fill-rule="evenodd" stroke="none"/>
    <path d="M390.05 288.55 L390.25 290.15 Q390.4 291.5 391.55 292.2 391.9 291.4 391.65 290.3 L392.25 292.25 392.45 293.55 Q391.55 292.2 391.65 293.1 392.35 293.65 392.6 294.8 L392.6 295.85 Q392.2 296.6 391.9 296.4 392.3 296.9 392.6 296.65 L392.6 297.9 392.2 297.65 Q391.25 297.95 390.85 297.25 391.5 297.3 391.45 296.85 390.55 297.05 389.9 295.35 L389.7 295.1 389.75 295.05 390.35 295.1 Q389.8 294.25 389.65 292.8 390.4 293.5 390.7 293.2 389.55 291.85 389.55 290.05 L389.55 288.55 Q389.8 287.05 388.95 286.5 389.85 286.55 390.05 288.55" fill="#000000" fill-opacity="0.23137255" fill-rule="evenodd" stroke="none"/>
    <path d="M391.25 307.65 L391.65 309.6 392.9 310.05 393.05 310.6 393.6 310.8 393.9 310.3 394.15 310.45 394.15 310.75 394.1 311.1 395.45 311.55 395.55 311.5 395.6 311.6 396.45 311.25 396.55 311.25 396.65 311.1 396.45 311.25 395.55 311.5 396.35 308.55 396.3 308.35 396.85 306.55 396.95 306.5 393.8 303.5 393.75 303.45 393.7 303.55 392.85 304.5 392.7 304.65 392.75 304.7 391.6 305.85 393.4 308.0 392.6 308.45 391.25 307.65 M394.5 307.0 Q394.55 306.35 394.75 305.85 L394.7 305.75 394.5 305.35 395.7 306.05 394.95 305.65 395.05 305.95 395.85 306.95 394.95 307.8 393.55 308.3 394.7 307.25 394.5 307.0 M397.65 306.05 L397.3 305.5 397.3 305.6 397.65 306.05" fill="#888844" fill-rule="evenodd" stroke="none"/>
    <path d="M395.2 303.1 L394.9 303.15 394.85 303.25 394.1 303.45 393.8 303.5 396.95 306.5 399.0 305.95 398.1 305.15 398.15 305.0 395.95 302.85 395.2 303.1 M397.3 305.6 L397.3 305.5 397.65 306.05 397.3 305.6" fill="#e2dfc7" fill-rule="evenodd" stroke="none"/>
    <path d="M394.1 303.45 L393.05 302.1 390.55 304.9 391.25 307.65 392.6 308.45 393.4 308.0 391.6 305.85 392.75 304.7 392.7 304.65 392.85 304.5 393.7 303.55 393.75 303.45 393.8 303.5 394.1 303.45 M393.6 310.8 L394.15 310.75 394.15 310.45 393.9 310.3 393.6 310.8 M395.05 305.95 L394.95 305.65 395.7 306.05 394.5 305.35 394.7 305.75 394.75 305.85 Q394.55 306.35 394.5 307.0 L395.05 305.95 394.5 307.0 394.7 307.25 393.55 308.3 394.95 307.8 395.85 306.95 395.05 305.95" fill="#616030" fill-rule="evenodd" stroke="none"/>
    <path d="M395.2 303.1 L394.05 301.85 393.05 302.1 394.1 303.45 394.85 303.25 394.9 303.15 395.2 303.1" fill="#b49e6d" fill-rule="evenodd" stroke="none"/>
    <path d="M396.55 311.25 L397.75 310.6 398.15 309.45 398.35 308.4 398.55 308.0 399.0 305.95 396.95 306.5 396.85 306.55 396.3 308.35 396.35 308.55 395.55 311.5 396.45 311.25 396.65 311.1 396.55 311.25" fill="#38381d" fill-rule="evenodd" stroke="none"/>
    <path d="M394.95 307.8 L395.85 306.95 395.05 305.95" ffdec:has-small-stroke="true" ffdec:original-stroke-width="0.05" fill="none" stroke="#3c3c3c" stroke-linecap="round" stroke-linejoin="round" stroke-width="1.0"/>
    <path d="M392.85 304.5 L392.7 304.65 392.75 304.7 M395.05 305.95 L394.5 307.0" ffdec:has-small-stroke="true" ffdec:original-stroke-width="0.05" fill="none" stroke="#3d3d3d" stroke-linecap="round" stroke-linejoin="round" stroke-opacity="0.5019608" stroke-width="1.0"/>
    <path d="M397.65 306.05 L397.3 305.6" ffdec:has-small-stroke="true" ffdec:original-stroke-width="0.05" fill="none" stroke="#c0c0be" stroke-linecap="round" stroke-linejoin="round" stroke-opacity="0.32941177" stroke-width="1.0"/>
    <path d="M404.35 304.95 L406.2 303.65 406.4 303.4 406.45 303.65 408.0 306.25 406.6 307.15 406.25 307.5 408.45 307.75 408.45 308.1 408.8 309.15 408.25 310.15 408.15 310.15 404.25 310.45 404.05 310.5 403.45 310.45 403.05 305.65 403.3 305.6 403.3 305.5 403.9 305.25 403.9 306.1 404.35 304.95 M406.1 305.75 L404.95 306.7 405.8 307.8 406.25 307.5 405.8 307.8 404.95 306.7 406.1 305.75 M409.25 306.35 L409.2 306.55 409.0 306.6 409.25 306.35" fill="#888844" fill-rule="evenodd" stroke="none"/>
    <path d="M405.55 303.05 L405.9 303.15 406.4 303.4 406.2 303.65 404.35 304.95 403.75 304.55 402.8 304.05 404.95 302.7 405.55 303.05 M403.05 304.7 L403.3 304.85 403.25 304.95 403.6 305.05 403.9 305.25 403.3 305.5 403.3 305.6 403.05 305.65 402.45 305.4 402.3 305.35 402.4 305.5 402.25 305.45 402.3 305.35 402.1 305.3 403.05 304.7" fill="#e2dfc7" fill-rule="evenodd" stroke="none"/>
    <path d="M402.8 304.05 L403.75 304.55 403.6 305.05 403.25 304.95 403.3 304.85 403.05 304.7 402.7 304.4 402.8 304.05" fill="#cbc09a" fill-rule="evenodd" stroke="none"/>
    <path d="M403.75 304.55 L404.35 304.95 403.9 306.1 403.9 305.25 403.6 305.05 403.75 304.55" fill="#ccc09b" fill-rule="evenodd" stroke="none"/>
    <path d="M408.45 307.75 L406.25 307.5 406.6 307.15 407.7 307.35 408.45 307.75" fill="#494825" fill-rule="evenodd" stroke="none"/>
    <path d="M406.4 303.4 L405.9 303.15 405.55 303.05 406.85 302.15 Q407.4 302.35 407.8 302.6 407.15 303.15 406.45 303.65 L406.4 303.4" fill="#b49e6d" fill-rule="evenodd" stroke="none"/>
    <path d="M406.45 303.65 Q407.15 303.15 407.8 302.6 L408.1 303.2 408.0 303.6 408.3 303.7 409.55 305.75 409.25 306.35 409.0 306.6 409.15 306.85 408.45 308.1 408.45 307.75 407.7 307.35 406.6 307.15 408.0 306.25 406.45 303.65" fill="#615b30" fill-rule="evenodd" stroke="none"/>
    <path d="M402.45 305.4 L402.4 305.5 402.3 305.35 402.45 305.4" fill="#a38a54" fill-rule="evenodd" stroke="none"/>
    <path d="M403.05 305.65 L403.45 310.45 404.05 310.5 404.25 310.45 404.15 310.85 402.8 310.6 402.3 309.9 402.2 309.65 402.1 309.65 402.2 308.45 402.05 308.4 402.1 308.3 402.1 305.3 402.3 305.35 402.25 305.45 402.4 305.5 402.45 305.4 403.05 305.65" fill="#38381d" fill-rule="evenodd" stroke="none"/>
    <path d="M404.05 310.5 L404.25 310.45 M409.25 306.35 L409.0 306.6" ffdec:has-small-stroke="true" ffdec:original-stroke-width="0.05" fill="none" stroke="#3d3d3d" stroke-linecap="round" stroke-linejoin="round" stroke-opacity="0.5019608" stroke-width="1.0"/>
    <path d="M406.25 307.5 L405.8 307.8 404.95 306.7 406.1 305.75 M406.45 303.65 L408.0 306.25 406.6 307.15 406.25 307.5" ffdec:has-small-stroke="true" ffdec:original-stroke-width="0.05" fill="none" stroke="#5f5e39" stroke-linecap="round" stroke-linejoin="round" stroke-width="1.0"/>
  </g>
  <defs>
    <linearGradient gradientTransform="matrix(0.0027, -0.0106, -0.0112, -0.0031, 399.55, 307.5)" gradientUnits="userSpaceOnUse" id="gradient0" spreadMethod="pad" x1="-819.2" x2="819.2">
      <stop offset="0.0" stop-color="#7e421b"/>
      <stop offset="0.42745098039215684" stop-color="#000000"/>
    </linearGradient>
    <linearGradient gradientTransform="matrix(-0.0027, -0.0106, 0.0112, -0.0031, 399.7, 307.5)" gradientUnits="userSpaceOnUse" id="gradient1" spreadMethod="pad" x1="-819.2" x2="819.2">
      <stop offset="0.0" stop-color="#7e421b"/>
      <stop offset="0.42745098039215684" stop-color="#000000"/>
    </linearGradient>
  </defs>
</svg>
