<?xml version="1.0" encoding="UTF-8" standalone="no"?>
<svg xmlns:ffdec="https://www.free-decompiler.com/flash" xmlns:xlink="http://www.w3.org/1999/xlink" ffdec:objectType="shape" height="40.35px" width="50.15px" xmlns="http://www.w3.org/2000/svg">
  <g transform="matrix(1.0, 0.0, 0.0, 1.0, 25.05, 20.15)">
    <path d="M9.8 -0.75 L11.4 -3.1 11.45 -9.4 9.25 -14.7 4.8 -20.15 9.5 -17.7 14.45 -8.65 14.35 -8.6 15.65 1.55 15.1 7.65 14.6 7.25 13.0 4.1 13.0 4.05 12.2 2.45 13.2 -1.5 13.2 -1.55 12.65 -9.25 10.05 -13.85 11.6 -10.1 11.5 -9.95 11.65 -9.55 11.8 -3.05 10.3 -0.15 9.8 -0.75 M25.0 18.65 L21.5 20.2 10.7 17.75 2.3 18.45 1.75 17.95 1.4 17.55 1.5 17.3 10.8 16.9 21.65 19.35 25.0 18.65 M-2.5 17.3 L-3.25 17.75 -8.55 15.4 -12.1 16.2 -22.55 16.0 -25.05 14.2 -21.95 15.25 -8.65 15.05 -2.5 17.3" fill="#992270" fill-rule="evenodd" stroke="none"/>
    <path d="M10.3 -0.15 L11.8 -3.05 11.65 -9.55 11.5 -9.95 11.6 -10.1 10.05 -13.85 12.65 -9.25 13.2 -1.55 13.2 -1.5 12.2 2.45 11.75 1.55 11.35 1.1 10.3 -0.15 M0.55 -2.15 L-2.6 0.2 -2.85 0.65 -4.75 0.0 -1.95 -1.85 -0.25 -2.95 1.45 -2.95 0.55 -2.15 M4.2 7.5 L1.6 8.3 3.25 9.45 -3.1 8.8 -1.75 7.9 -3.35 6.25 4.15 7.1 4.2 7.5 M18.1 11.95 L21.6 14.15 21.5 14.7 14.2 12.05 15.3 10.25 18.1 11.95 M-16.55 8.4 L-13.9 7.05 -12.7 7.45 -13.65 9.35 -13.9 9.35 -14.0 9.15 -22.25 12.5 -21.5 11.0 -16.55 8.4" fill="#fbeaf5" fill-rule="evenodd" stroke="none"/>
    <path d="M9.8 -0.75 L10.3 -0.15 11.35 1.1 4.15 -1.85 0.55 -2.15 1.45 -2.95 -0.25 -2.95 -0.3 -3.45 Q3.6 -4.05 7.8 -1.75 L9.8 -0.75 M13.0 4.1 L14.6 7.25 15.1 7.65 15.65 1.55 14.35 -8.6 14.45 -8.65 15.9 1.45 15.85 1.65 15.9 1.65 15.9 8.25 21.25 12.3 21.15 12.25 21.25 12.35 18.1 11.95 15.3 10.25 14.2 12.05 9.5 12.45 Q12.4 10.2 12.75 7.85 L13.0 4.1 M-18.8 8.7 L-17.5 8.2 -13.35 5.9 -10.1 2.15 -10.85 4.7 Q-12.4 8.0 -10.65 10.9 L-13.65 9.35 -12.7 7.45 -13.9 7.05 -16.55 8.4 -18.8 8.7 M-6.9 -0.4 L-3.35 -2.5 -0.3 -3.45 -0.25 -2.95 -1.95 -1.85 -6.9 -0.4 M15.1 7.65 L15.9 8.25 15.1 7.65" fill="#591341" fill-rule="evenodd" stroke="none"/>
    <path d="M12.2 2.45 L13.0 4.05 13.0 4.1 12.75 7.85 Q12.4 10.2 9.5 12.45 L14.2 12.05 21.5 14.7 21.6 14.15 18.1 11.95 21.25 12.35 21.3 12.3 25.0 14.5 25.1 18.5 25.05 18.5 25.0 18.65 21.65 19.35 10.8 16.9 1.5 17.3 1.4 17.55 0.7 16.9 -0.2 14.1 -1.4 16.65 -2.45 17.3 -2.5 17.3 -8.65 15.05 -21.95 15.25 -25.05 14.2 -25.05 14.15 -24.3 12.25 -23.2 10.9 -19.95 9.1 -18.8 8.7 -16.55 8.4 -21.5 11.0 -22.25 12.5 -14.0 9.15 -13.9 9.35 -13.65 9.35 -10.65 10.9 Q-12.4 8.0 -10.85 4.7 L-10.1 2.15 -8.95 0.8 -6.9 -0.4 -1.95 -1.85 -4.75 0.0 -2.85 0.65 -2.6 0.2 0.55 -2.15 4.15 -1.85 11.35 1.1 11.75 1.55 12.2 2.45 M4.2 7.5 L4.15 7.1 -3.35 6.25 -1.75 7.9 -3.1 8.8 3.25 9.45 1.6 8.3 4.2 7.5 M12.15 6.65 L8.4 8.25 12.15 6.65 M-7.45 7.35 L-10.85 4.7 -7.45 7.35" fill="#f1c2e1" fill-rule="evenodd" stroke="none"/>
    <path d="M15.9 1.45 L15.9 1.65 15.85 1.65 15.9 1.45 M-2.45 17.3 L-2.5 17.3 -2.45 17.3" fill="#2d8282" fill-rule="evenodd" stroke="none"/>
    <path d="M21.25 12.3 L21.3 12.3 21.25 12.35 21.25 12.3 21.25 12.35 21.15 12.25 21.25 12.3 M-0.3 -3.45 L-0.25 -2.95 -0.3 -3.45" fill="#72cfcf" fill-rule="evenodd" stroke="none"/>
    <path d="M1.75 17.95 L0.65 19.1 -1.85 18.65 -2.5 17.3 -2.45 17.3 -1.4 16.65 -0.2 14.1 0.7 16.9 1.4 17.55 1.75 17.95" fill="#bc2989" fill-rule="evenodd" stroke="none"/>
    <path d="M14.45 -8.65 L9.5 -17.7 4.8 -20.15 9.25 -14.7 11.45 -9.4 11.4 -3.1 9.8 -0.75 10.3 -0.15 11.35 1.1 11.75 1.55 12.2 2.45 13.0 4.05 M13.0 4.1 L14.6 7.25 15.1 7.65 15.9 8.25 21.25 12.3 21.3 12.3 25.0 14.5 25.1 18.5 25.05 18.5 M14.45 -8.65 L15.9 1.45 15.9 1.65 15.9 8.25 M25.0 18.65 L21.5 20.2 10.7 17.75 2.3 18.45 1.75 17.95 0.65 19.1 -1.85 18.65 -2.5 17.3 -3.25 17.75 -8.55 15.4 -12.1 16.2 -22.55 16.0 -25.05 14.2 M-25.05 14.15 L-24.3 12.25 -23.2 10.9 -19.95 9.1 -18.8 8.7 -17.5 8.2 -13.35 5.9 -10.1 2.15 -8.95 0.8 -6.9 -0.4 -3.35 -2.5 -0.3 -3.45 Q3.6 -4.05 7.8 -1.75 L9.8 -0.75 M21.25 12.35 L21.25 12.3 21.15 12.25 M-2.45 17.3 L-1.4 16.65 -0.2 14.1 0.7 16.9 1.4 17.55 1.75 17.95 M-2.5 17.3 L-2.45 17.3" ffdec:has-small-stroke="true" ffdec:original-stroke-width="0.05" fill="none" stroke="#000000" stroke-linecap="round" stroke-linejoin="round" stroke-opacity="0.3019608" stroke-width="1.0"/>
    <path d="M8.4 8.25 L12.15 6.65 M-10.85 4.7 L-7.45 7.35" fill="none" stroke="#000000" stroke-linecap="round" stroke-linejoin="round" stroke-width="1.0"/>
  </g>
</svg>
