<?xml version="1.0" encoding="UTF-8" standalone="no"?>
<svg xmlns:ffdec="https://www.free-decompiler.com/flash" xmlns:xlink="http://www.w3.org/1999/xlink" ffdec:objectType="frame" height="19.6px" width="24.05px" xmlns="http://www.w3.org/2000/svg">
  <g transform="matrix(1.0, 0.0, 0.0, 1.0, 11.55, 8.85)">
    <use ffdec:characterId="25" height="19.6" transform="matrix(1.0, 0.0, 0.0, 1.0, -11.05, -8.35)" width="24.05" xlink:href="#sprite0"/>
    <use ffdec:characterId="97" height="13.35" transform="matrix(1.2557, 0.0, 0.0, 1.2557, 0.05, -5.5)" width="13.45" xlink:href="#shape1"/>
  </g>
  <defs>
    <g id="sprite0">
      <use ffdec:characterId="24" height="19.6" transform="matrix(1.0, 0.0, 0.0, 1.0, 0.0, 0.0)" width="24.05" xlink:href="#shape0"/>
    </g>
    <g id="shape0">
      <path d="M23.55 1.55 L23.55 19.1 0.4 19.1 0.4 1.55 23.55 1.55" fill="#443c42" fill-opacity="0.7019608" fill-rule="evenodd" stroke="none"/>
      <path d="M21.55 0.0 L21.9 0.0 22.0 6.8 21.55 6.8 21.55 0.0 21.55 6.8 21.55 16.75 0.35 16.75 0.35 0.0 21.55 0.0" fill="#f2ede2" fill-rule="evenodd" stroke="none"/>
      <path d="M21.55 0.0 L21.55 6.8 21.55 16.75 0.35 16.75 0.0 16.75 0.0 0.0 0.35 0.0 21.55 0.0 Z" fill="none" stroke="#cccc99" stroke-linecap="round" stroke-linejoin="round" stroke-width="1.0"/>
    </g>
    <g id="shape1">
      <path d="M-3.3 -0.6 L-3.05 -0.7 -3.2 -0.6 -3.3 -0.6" fill="#d5d5d5" fill-rule="evenodd" stroke="none"/>
      <path d="M5.8 8.1 L5.8 5.3 Q5.8 4.65 5.45 4.4 L4.55 4.45 4.45 4.5 Q3.95 4.75 3.6 5.35 3.25 5.95 3.25 6.55 L3.25 8.1 3.25 9.4 Q4.55 9.1 5.8 8.15 L5.8 8.1 M6.5 1.45 L6.55 7.4 6.55 7.5 Q6.55 8.9 4.55 9.85 2.6 10.9 -0.2 10.9 -3.0 10.9 -4.95 9.85 -6.6 9.05 -6.85 7.95 L-6.9 1.05 Q-6.9 2.4 -4.95 3.35 -3.85 3.95 -2.4 4.2 L-0.2 4.4 0.75 4.4 2.0 4.2 Q3.4 3.95 4.55 3.35 6.2 2.55 6.5 1.45 M-1.6 8.85 L-1.6 9.9 Q-0.1 10.25 1.35 9.9 L1.35 8.9 1.35 7.05 Q1.35 6.45 0.9 6.0 0.5 5.6 -0.1 5.6 L-0.15 5.6 Q-0.75 5.6 -1.2 6.0 -1.6 6.45 -1.6 7.05 L-1.6 8.85 M-3.45 8.1 L-3.45 6.75 Q-3.45 6.1 -3.85 5.5 -4.2 4.95 -4.65 4.7 L-4.75 4.65 -4.8 4.65 -5.75 4.6 Q-6.1 4.85 -6.1 5.45 L-6.1 8.25 -6.1 8.3 Q-4.75 9.3 -3.45 9.6 L-3.45 8.1" fill="#897732" fill-rule="evenodd" stroke="none"/>
      <path d="M0.7 -1.2 L0.65 -1.2 -0.2 -1.25 Q-1.85 -1.25 -3.05 -0.7 L-3.3 -0.6 Q-4.45 0.05 -4.45 0.9 L-4.45 0.95 Q-4.4 1.8 -3.2 2.4 L-1.6 2.95 -0.2 3.1 0.7 3.05 1.15 2.95 2.75 2.4 Q3.8 1.9 4.0 1.2 L4.05 0.95 Q4.0 0.05 2.75 -0.6 L0.7 -1.2 M-6.9 1.05 L-6.9 1.0 -6.9 0.95 Q-6.9 -0.4 -5.1 -1.4 L-4.95 -1.45 -4.7 -1.6 Q-2.8 -2.45 -0.2 -2.45 2.6 -2.45 4.55 -1.45 6.55 -0.45 6.55 1.0 L6.5 1.45 Q6.2 2.55 4.55 3.35 3.4 3.95 2.0 4.2 L0.75 4.4 -0.2 4.4 -2.4 4.2 Q-3.85 3.95 -4.95 3.35 -6.9 2.4 -6.9 1.05" fill="#e1d7ae" fill-rule="evenodd" stroke="none"/>
      <path d="M0.7 -1.2 L2.75 -0.6 Q4.0 0.05 4.05 0.95 L4.0 1.2 Q3.8 1.9 2.75 2.4 L1.15 2.95 0.7 3.05 0.7 -1.2 M4.45 4.5 L4.6 7.55 3.25 8.1 3.25 6.55 Q3.25 5.95 3.6 5.35 3.95 4.75 4.45 4.5 M-1.6 8.85 L-1.6 7.05 Q-1.6 6.45 -1.2 6.0 -0.75 5.6 -0.15 5.6 L-0.1 5.6 Q0.5 5.6 0.9 6.0 1.35 6.45 1.35 7.05 L1.35 8.9 -1.6 8.85 M-4.65 4.7 Q-4.2 4.95 -3.85 5.5 -3.45 6.1 -3.45 6.75 L-3.45 8.1 -4.7 7.55 -4.65 4.7" fill="#51461e" fill-rule="evenodd" stroke="none"/>
      <path d="M-3.05 -0.7 Q-1.85 -1.25 -0.2 -1.25 L0.65 -1.2 0.7 -1.2 0.7 3.05 -0.2 3.1 -1.6 2.95 -3.2 2.4 Q-4.4 1.8 -4.45 0.95 L-4.45 0.9 Q-4.45 0.05 -3.3 -0.6 L-3.2 -0.6 -3.05 -0.7" fill="#695b27" fill-rule="evenodd" stroke="none"/>
      <path d="M4.45 4.5 L4.55 4.45 5.45 4.4 Q5.8 4.65 5.8 5.3 L5.8 8.1 4.6 7.65 4.6 7.55 4.45 4.5 M-4.65 4.7 L-4.7 7.55 -6.1 8.25 -6.1 5.45 Q-6.1 4.85 -5.75 4.6 L-4.8 4.65 -4.75 4.65 -4.65 4.7" fill="#635625" fill-rule="evenodd" stroke="none"/>
      <path d="M4.6 7.55 L4.6 7.65 5.8 8.1 5.8 8.15 Q4.55 9.1 3.25 9.4 L3.25 8.1 4.6 7.55 M1.35 8.9 L1.35 9.9 Q-0.1 10.25 -1.6 9.9 L-1.6 8.85 1.35 8.9 M-4.7 7.55 L-3.45 8.1 -3.45 9.6 Q-4.75 9.3 -6.1 8.3 L-6.1 8.25 -4.7 7.55" fill="#6f612b" fill-rule="evenodd" stroke="none"/>
      <path d="M-6.9 1.05 L-6.9 1.0 -6.9 0.95 Q-6.9 -0.4 -5.1 -1.4 L-4.95 -1.45 -4.7 -1.6 Q-2.8 -2.45 -0.2 -2.45 2.6 -2.45 4.55 -1.45 6.55 -0.45 6.55 1.0 L6.5 1.45 6.55 7.4 6.55 7.5 Q6.55 8.9 4.55 9.85 2.6 10.9 -0.2 10.9 -3.0 10.9 -4.95 9.85 -6.6 9.05 -6.85 7.95 L-6.9 1.05 Z" ffdec:has-small-stroke="true" ffdec:original-stroke-width="0.05" fill="none" stroke="#51461e" stroke-linecap="round" stroke-linejoin="round" stroke-opacity="0.7019608" stroke-width="0.7963642549882131"/>
    </g>
  </defs>
</svg>
