<?xml version="1.0" encoding="UTF-8" standalone="no"?>
<svg xmlns:ffdec="https://www.free-decompiler.com/flash" xmlns:xlink="http://www.w3.org/1999/xlink" ffdec:objectType="frame" height="21.1px" width="24.05px" xmlns="http://www.w3.org/2000/svg">
  <g transform="matrix(1.0, 0.0, 0.0, 1.0, 11.55, 10.35)">
    <use ffdec:characterId="25" height="19.6" transform="matrix(1.0, 0.0, 0.0, 1.0, -11.05, -8.35)" width="24.05" xlink:href="#sprite0"/>
    <use ffdec:characterId="80" height="55.65" transform="matrix(-0.3735, 0.0, 0.0, -0.3726, -0.8, 9.35)" width="44.85" xlink:href="#shape1"/>
  </g>
  <defs>
    <g id="sprite0">
      <use ffdec:characterId="24" height="19.6" transform="matrix(1.0, 0.0, 0.0, 1.0, 0.0, 0.0)" width="24.05" xlink:href="#shape0"/>
    </g>
    <g id="shape0">
      <path d="M23.55 1.55 L23.55 19.1 0.4 19.1 0.4 1.55 23.55 1.55" fill="#443c42" fill-opacity="0.7019608" fill-rule="evenodd" stroke="none"/>
      <path d="M21.55 0.0 L21.9 0.0 22.0 6.8 21.55 6.8 21.55 0.0 21.55 6.8 21.55 16.75 0.35 16.75 0.35 0.0 21.55 0.0" fill="#f2ede2" fill-rule="evenodd" stroke="none"/>
      <path d="M21.55 0.0 L21.55 6.8 21.55 16.75 0.35 16.75 0.0 16.75 0.0 0.0 0.35 0.0 21.55 0.0 Z" fill="none" stroke="#cccc99" stroke-linecap="round" stroke-linejoin="round" stroke-width="1.0"/>
    </g>
    <g id="shape1">
      <path d="M6.4 38.0 L6.4 51.95 -7.5 51.95 -7.5 38.0 -22.0 38.0 -22.0 24.1 -7.5 24.1 -7.5 -1.7 6.4 -1.7 6.4 24.1 20.85 24.1 20.85 38.0 6.4 38.0" fill="#bb8e62" fill-rule="evenodd" stroke="none"/>
      <path d="M6.4 38.0 L6.4 51.95 -7.5 51.95 -7.5 38.0 -22.0 38.0 -22.0 24.1 -7.5 24.1 -7.5 -1.7 6.4 -1.7 6.4 24.1 20.85 24.1 20.85 38.0 6.4 38.0 Z" ffdec:has-small-stroke="true" ffdec:original-stroke-width="2.0" fill="none" stroke="#825700" stroke-linecap="round" stroke-linejoin="round" stroke-width="2.680520516277532"/>
    </g>
  </defs>
</svg>
