<?xml version="1.0" encoding="UTF-8" standalone="no"?>
<svg xmlns:ffdec="https://www.free-decompiler.com/flash" xmlns:xlink="http://www.w3.org/1999/xlink" ffdec:objectType="frame" height="24.35px" width="29.2px" xmlns="http://www.w3.org/2000/svg">
  <g transform="matrix(1.0, 0.0, 0.0, 1.0, 14.65, 12.15)">
    <use ffdec:characterId="25" height="19.6" transform="matrix(1.0, 0.0, 0.0, 1.0, -11.05, -8.35)" width="24.05" xlink:href="#sprite0"/>
    <use ffdec:characterId="29" height="99.55" transform="matrix(0.2451, 0.0, 0.0, 0.2451, -14.65, 0.0)" width="119.3" xlink:href="#sprite1"/>
  </g>
  <defs>
    <g id="sprite0">
      <use ffdec:characterId="24" height="19.6" transform="matrix(1.0, 0.0, 0.0, 1.0, 0.0, 0.0)" width="24.05" xlink:href="#shape0"/>
    </g>
    <g id="shape0">
      <path d="M23.55 1.55 L23.55 19.1 0.4 19.1 0.4 1.55 23.55 1.55" fill="#443c42" fill-opacity="0.7019608" fill-rule="evenodd" stroke="none"/>
      <path d="M21.55 0.0 L21.9 0.0 22.0 6.8 21.55 6.8 21.55 0.0 21.55 6.8 21.55 16.75 0.35 16.75 0.35 0.0 21.55 0.0" fill="#f2ede2" fill-rule="evenodd" stroke="none"/>
      <path d="M21.55 0.0 L21.55 6.8 21.55 16.75 0.35 16.75 0.0 16.75 0.0 0.0 0.35 0.0 21.55 0.0 Z" fill="none" stroke="#cccc99" stroke-linecap="round" stroke-linejoin="round" stroke-width="1.0"/>
    </g>
    <g id="sprite1">
      <use ffdec:characterId="28" height="99.55" transform="matrix(1.0, 0.0, 0.0, 1.0, 0.0, 0.0)" width="119.3" xlink:href="#shape1"/>
    </g>
    <g id="shape1">
      <path d="M37.45 -18.65 L40.85 -16.25 42.15 -15.3 35.6 -9.35 34.9 -11.5 31.15 -17.9 37.25 -18.6 37.45 -18.65 M110.4 -16.4 L118.3 -2.55 105.55 9.0 100.65 6.45 100.6 6.45 98.3 5.25 98.3 -3.35 102.95 -7.65 99.75 -8.45 94.8 -2.7 94.8 3.2 95.05 4.1 Q96.0 7.15 97.6 10.15 L99.25 12.95 100.3 14.6 101.95 16.85 104.15 19.5 103.65 19.5 102.25 19.5 100.25 24.25 81.0 20.75 77.3 20.1 82.05 23.25 82.25 23.7 82.05 23.25 82.75 23.7 83.2 24.0 81.6 23.7 81.3 23.7 80.95 23.8 80.9 23.75 Q71.2 24.5 63.55 27.0 L53.7 31.35 49.1 28.85 52.8 19.85 54.45 15.75 38.5 18.15 30.85 19.25 30.5 19.05 30.95 17.6 30.5 19.05 27.1 17.0 27.1 8.95 27.45 10.55 27.75 12.65 28.1 15.25 28.05 15.25 28.05 15.3 28.15 16.2 29.7 16.95 30.9 17.55 30.95 17.6 31.05 17.65 31.2 17.6 33.15 17.15 35.1 16.65 37.15 16.2 39.15 15.75 41.3 15.4 43.45 15.05 45.65 14.7 46.4 14.6 47.6 14.4 50.2 14.15 52.9 14.0 55.8 13.55 55.8 11.05 55.8 9.7 56.1 9.6 57.7 8.85 58.35 9.25 60.4 10.9 Q64.2 13.95 67.0 17.25 L68.8 16.2 Q70.0 10.0 70.0 4.45 L69.75 -0.05 71.35 -0.75 73.55 2.05 Q76.1 5.5 76.85 8.45 L79.05 8.45 82.2 7.35 77.1 2.1 78.05 0.85 87.85 2.4 87.0 -6.25 88.7 -7.65 88.7 -11.9 88.35 -12.15 89.5 -15.85 99.25 -22.45 100.15 -21.95 108.25 -17.6 108.9 -17.25 110.4 -16.4 M50.3 37.45 L48.1 40.25 41.85 48.2 40.7 46.85 49.0 32.6 50.3 34.25 50.3 37.45 M20.8 28.7 L2.1 30.55 1.85 30.55 1.25 28.25 22.8 24.35 22.8 27.15 21.5 28.65 20.8 28.7 M53.75 -7.45 L60.75 -8.75 61.0 -8.8 66.8 -5.45 66.05 -2.25 56.35 4.65 58.55 0.25 53.65 -7.4 53.75 -7.45 M108.5 -8.15 L103.45 -8.1 102.95 -7.65 103.45 -8.1 108.5 -8.15 M101.95 16.85 Q102.25 17.95 103.65 19.5 102.25 17.95 101.95 16.85 M81.6 23.7 L82.25 23.7 82.75 23.7 82.25 23.7 81.6 23.7 M97.6 10.15 L82.85 13.35 80.05 18.55 81.0 20.75 80.05 18.55 82.85 13.35 97.6 10.15 M47.05 15.15 L46.4 14.6 47.05 15.15 M38.25 16.95 L38.5 18.15 38.25 16.95 M62.85 25.15 L52.8 19.85 62.85 25.15" fill="#47412f" fill-rule="evenodd" stroke="none"/>
      <path d="M25.5 -16.25 L31.15 -18.75 37.25 -18.8 37.25 -18.6 31.15 -17.9 25.5 -16.25 M67.95 -22.45 L76.0 -24.9 76.35 -24.6 80.75 -22.0 81.05 -19.7 79.55 -18.45 79.4 -18.25 79.25 -18.35 79.55 -18.45 80.55 -19.85 74.0 -17.4 67.95 -22.45 M80.95 -15.3 L80.4 -14.2 73.7 -12.75 73.6 -13.1 75.15 -14.45 75.15 -16.05 77.35 -17.25 80.95 -15.3" fill="#615941" fill-rule="evenodd" stroke="none"/>
      <path d="M52.05 -20.55 L54.4 -29.2 55.0 -23.75 56.4 -22.35 53.4 -20.55 52.05 -20.55 M41.85 48.2 L41.65 48.4 41.85 48.6 40.55 49.8 37.45 48.9 36.15 46.35 40.2 46.25 40.7 46.85 41.85 48.2 M1.85 30.55 L0.0 28.25 0.05 28.2 0.0 28.2 0.2 25.0 0.4 24.9 1.25 28.25 1.85 30.55 M26.4 -6.25 L26.4 -6.35 28.1 -8.0 26.3 -8.65 25.1 -16.1 25.5 -16.25 31.15 -17.9 34.9 -11.5 35.6 -9.35 34.7 -7.8 34.7 -7.75 34.6 -7.65 34.45 -7.65 31.45 -7.65 30.95 -7.4 30.95 -7.65 30.95 -7.4 30.95 -7.0 30.25 -7.25 30.95 -7.4 30.25 -7.25 26.4 -6.25 M28.1 -8.0 L29.8 -7.4 30.25 -7.25 29.8 -7.4 28.1 -8.0 M29.8 -7.4 L30.95 -7.65 29.8 -7.4 M30.95 -7.65 L31.45 -7.65 30.95 -7.65 30.95 -8.2 30.9 -12.35 28.65 -12.8 28.35 -10.4 30.95 -8.2 30.95 -7.65 M48.9 -5.6 L53.05 -7.2 53.65 -7.4 58.55 0.25 56.35 4.65 55.85 5.6 53.05 3.55 51.65 2.55 47.45 1.05 47.45 -3.45 48.9 -5.6 M51.7 1.35 L51.4 2.4 51.65 2.55 51.4 2.4 51.7 1.35 54.45 2.05 54.75 -0.4 53.0 -1.95 52.6 -2.3 52.5 -1.9 51.7 1.35 M74.0 -17.4 L67.8 -12.05 67.6 -11.95 64.05 -13.6 67.95 -22.45 74.0 -17.4 M67.05 15.8 Q63.75 12.0 58.5 8.5 L58.55 7.0 61.85 3.65 Q65.85 9.7 67.05 15.8 M54.85 3.75 L51.65 2.55 54.85 3.75" fill="#ad9e74" fill-rule="evenodd" stroke="none"/>
      <path d="M36.15 46.35 L36.1 46.2 40.45 37.2 41.55 35.05 43.75 32.3 47.75 32.25 48.05 32.25 48.75 32.25 49.0 32.6 40.7 46.85 40.2 46.25 36.15 46.35 M38.8 33.85 L38.7 33.6 33.85 31.65 33.8 31.65 33.7 31.6 28.9 28.35 28.25 26.25 30.5 19.05 30.85 19.25 38.5 18.15 54.45 15.75 52.8 19.85 52.25 19.55 52.8 19.85 49.1 28.85 53.7 31.35 53.5 31.4 52.35 32.15 51.5 31.7 48.6 30.0 49.1 28.85 46.85 27.65 42.65 28.5 41.45 28.75 38.8 33.85 M0.4 24.9 L15.65 20.4 15.75 20.35 19.65 19.25 20.45 19.0 22.8 21.35 22.8 24.35 1.25 28.25 0.4 24.9 M26.0 5.3 L26.0 5.15 24.7 1.55 26.2 -0.95 26.4 -1.05 26.4 -6.25 30.25 -7.25 30.95 -7.0 30.95 -7.4 31.45 -7.65 34.45 -7.65 34.6 -7.65 34.7 -7.75 34.7 -7.8 35.6 -9.35 41.55 -10.5 41.8 -10.3 48.9 -5.6 47.45 -3.45 47.45 1.05 51.65 2.55 53.05 3.55 56.1 9.6 55.8 9.7 55.8 11.05 Q50.25 11.7 44.5 12.9 L41.65 10.55 41.65 6.95 35.35 0.65 41.1 -9.95 41.8 -10.3 41.1 -9.95 35.35 0.65 34.6 1.95 29.7 13.45 29.7 15.85 28.1 15.3 28.1 15.25 27.75 12.65 27.45 10.55 27.1 8.95 26.0 5.3 M46.65 -2.25 L47.45 -3.45 46.65 -2.25 M40.25 27.95 L40.05 26.8 42.65 28.5 40.05 26.8 40.25 27.95 M40.05 26.8 L38.5 18.15 40.05 26.8" fill="#998966" fill-rule="evenodd" stroke="none"/>
      <path d="M30.95 -8.2 L28.35 -10.4 28.65 -12.8 30.9 -12.35 30.95 -8.2 M51.7 1.35 L52.5 -1.9 53.0 -1.95 54.75 -0.4 54.45 2.05 51.7 1.35" fill="#4f4834" fill-rule="evenodd" stroke="none"/>
      <path d="M40.85 -16.25 L44.95 -18.8 50.25 -17.9 50.9 -17.8 59.35 -21.3 62.65 -19.5 58.2 -13.95 58.2 -13.9 58.75 -13.5 65.55 -8.45 65.8 -8.3 82.65 -10.65 80.95 -7.8 85.2 -4.65 87.0 -6.25 87.85 2.4 78.05 0.85 77.1 2.1 82.2 7.35 79.05 8.45 76.85 8.45 Q76.1 5.5 73.55 2.05 L71.35 -0.75 69.75 -0.05 70.0 4.45 Q70.0 10.0 68.8 16.2 L67.0 17.25 Q64.2 13.95 60.4 10.9 L58.35 9.25 57.7 8.85 56.1 9.6 53.05 3.55 55.85 5.6 56.35 4.65 66.05 -2.25 66.8 -5.45 61.0 -8.8 60.75 -8.75 53.75 -7.45 53.05 -7.2 48.9 -5.6 41.8 -10.3 50.25 -14.75 50.4 -14.85 58.2 -13.95 50.4 -14.85 50.25 -14.75 41.8 -10.3 41.55 -10.5 35.6 -9.35 42.15 -15.3 40.85 -16.25 M62.95 -29.9 L67.95 -35.1 68.0 -35.15 71.6 -39.1 74.55 -42.55 78.05 -46.95 79.95 -49.75 83.1 -47.95 83.05 -47.95 73.85 -31.35 73.8 -31.3 72.1 -30.65 71.95 -30.6 65.15 -28.05 62.95 -29.9 M67.95 -35.1 L71.95 -30.6 67.95 -35.1 M44.5 12.9 Q50.25 11.7 55.8 11.05 L55.8 13.55 52.9 14.0 50.2 14.15 47.6 14.4 46.4 14.6 45.65 14.7 43.45 15.05 41.3 15.4 39.15 15.75 37.15 16.2 35.1 16.65 33.15 17.15 31.2 17.6 31.05 17.65 30.95 17.6 30.9 17.55 29.7 16.95 29.7 15.85 29.7 16.95 28.15 16.2 28.05 15.3 28.1 15.3 29.7 15.85 31.45 16.4 Q38.1 14.25 44.5 12.9 L46.4 14.6 44.5 12.9 M50.25 -14.75 L50.25 -17.9 50.25 -14.75 M67.05 15.8 Q65.85 9.7 61.85 3.65 L58.55 7.0 58.5 8.5 Q63.75 12.0 67.05 15.8" fill="#4d4632" fill-rule="evenodd" stroke="none"/>
      <path d="M44.95 -18.8 L46.65 -19.9 46.7 -19.9 52.05 -20.55 53.4 -20.55 56.4 -22.35 55.0 -23.75 54.4 -29.2 54.5 -29.65 62.2 -30.15 62.95 -29.9 65.15 -28.05 71.95 -30.6 72.1 -30.65 73.8 -31.3 73.9 -31.3 75.95 -32.1 82.15 -30.05 83.8 -29.3 85.45 -28.5 85.55 -28.3 83.4 -22.1 88.85 -24.05 95.35 -26.4 Q106.25 -30.45 113.6 -33.6 L113.65 -33.6 114.65 -33.15 117.65 -31.8 117.55 -31.6 Q114.9 -29.25 112.0 -27.45 L109.95 -26.3 104.0 -23.6 100.15 -21.95 99.25 -22.45 89.5 -15.85 88.35 -12.15 84.4 -15.05 80.4 -14.2 84.4 -15.05 88.35 -12.15 88.7 -11.9 88.7 -7.65 87.0 -6.25 85.2 -4.65 80.95 -7.8 82.65 -10.65 65.8 -8.3 65.55 -8.45 58.75 -13.5 58.2 -13.95 58.75 -13.5 58.2 -13.9 58.2 -13.95 62.65 -19.5 59.35 -21.3 50.9 -17.8 50.25 -17.9 44.95 -18.8 M85.35 -10.55 L83.05 -11.25 82.65 -10.65 83.05 -11.25 85.35 -10.55 M59.0 -23.9 L56.4 -22.35 59.0 -23.9 M79.55 -18.45 L81.05 -19.7 80.75 -22.0 76.35 -24.6 76.0 -24.9 67.95 -22.45 64.05 -13.6 67.6 -11.95 67.8 -12.05 70.4 -13.45 70.45 -13.35 70.9 -13.05 71.95 -12.4 73.7 -12.75 80.4 -14.2 80.95 -15.3 81.7 -16.7 79.4 -18.25 79.55 -18.45 M95.35 -26.4 L101.85 -26.05 104.0 -23.6 101.85 -26.05 95.35 -26.4" fill="#453e2e" fill-rule="evenodd" stroke="none"/>
      <path d="M73.85 -31.35 L73.9 -31.3 73.8 -31.3 73.85 -31.35" fill="#6b6348" fill-rule="evenodd" stroke="none"/>
      <path d="M83.15 -47.9 L84.65 -45.2 83.8 -29.3 82.15 -30.05 75.95 -32.1 73.9 -31.3 73.85 -31.35 83.05 -47.95 83.15 -47.9 M85.55 -28.3 L88.85 -24.05 83.4 -22.1 85.55 -28.3 M117.55 -31.6 L119.3 -28.95 110.4 -16.4 108.9 -17.25 108.25 -17.6 100.15 -21.95 104.0 -23.6 109.95 -26.3 112.0 -27.45 Q114.9 -29.25 117.55 -31.6 M75.15 -16.05 L70.4 -13.45 67.8 -12.05 74.0 -17.4 80.55 -19.85 79.55 -18.45 79.25 -18.35 77.35 -17.25 75.15 -16.05 M70.9 -13.05 L73.6 -13.1 73.7 -12.75 71.95 -12.4 70.9 -13.05 M108.25 -17.6 L105.85 -21.85 104.0 -23.6 105.85 -21.85 108.25 -17.6" fill="#3b3526" fill-rule="evenodd" stroke="none"/>
      <path d="M53.05 -7.2 L53.75 -7.45 53.65 -7.4 53.05 -7.2" fill="#7b7253" fill-rule="evenodd" stroke="none"/>
      <path d="M83.1 -47.95 L83.15 -47.95 83.15 -47.9 83.1 -47.95 M52.5 -1.9 L52.6 -2.3 53.0 -1.95 52.5 -1.9" fill="#c8c8c8" fill-rule="evenodd" stroke="none"/>
      <path d="M0.0 28.25 L0.0 28.2 0.05 28.2 0.0 28.25 M75.15 -16.05 L75.15 -14.45 73.6 -13.1 70.9 -13.05 70.45 -13.35 70.4 -13.45 75.15 -16.05" fill="#000000" fill-rule="evenodd" stroke="none"/>
      <path d="M79.4 -18.25 L81.7 -16.7 80.95 -15.3 77.35 -17.25 79.25 -18.35 79.4 -18.25" fill="#241f17" fill-rule="evenodd" stroke="none"/>
      <path d="M117.65 -31.8 L117.75 -31.75 117.55 -31.6 117.65 -31.8 M100.65 6.45 L100.55 6.55 100.6 6.45 100.65 6.45 M83.05 -47.95 L83.1 -47.95 83.15 -47.9 83.05 -47.95" fill="#5a5a5a" fill-rule="evenodd" stroke="none"/>
      <path d="M100.55 6.55 Q98.8 8.25 99.25 12.95 L97.6 10.15 Q96.0 7.15 95.05 4.1 L94.8 3.2 94.8 -2.7 99.75 -8.45 102.95 -7.65 98.3 -3.35 98.3 5.25 100.6 6.45 100.55 6.55" fill="#383326" fill-rule="evenodd" stroke="none"/>
      <path d="M104.15 19.5 L104.55 20.45 105.0 21.45 105.0 23.05 104.9 23.1 102.35 26.9 99.25 26.9 99.25 26.7 100.25 24.25 102.25 19.5 103.65 19.5 104.55 20.45 103.65 19.5 104.15 19.5" fill="#59523b" fill-rule="evenodd" stroke="none"/>
      <path d="M98.95 26.9 L98.9 26.95 83.75 24.1 83.45 24.05 83.2 24.0 82.75 23.7 82.05 23.25 77.3 20.1 81.0 20.75 82.05 23.25 81.0 20.75 100.25 24.25 99.25 26.7 98.95 26.9 M80.95 23.8 Q71.7 25.6 60.7 31.4 58.4 32.55 56.05 33.95 L55.9 34.05 53.9 35.15 53.8 35.25 53.55 35.45 53.9 35.05 63.65 27.0 63.55 27.0 Q71.2 24.5 80.9 23.75 L80.95 23.8 M40.45 37.2 L38.8 33.85 41.45 28.75 42.65 28.5 46.85 27.65 49.1 28.85 48.6 30.0 51.5 31.7 48.05 32.25 47.75 32.25 43.75 32.3 41.55 35.05 40.45 37.2 M22.15 30.35 L20.8 28.7 21.5 28.65 22.8 27.15 22.8 24.35 22.8 21.35 20.45 19.0 19.65 19.25 19.65 17.95 22.35 16.1 22.5 16.0 26.0 5.3 27.1 8.95 27.1 17.0 30.5 19.05 28.25 26.25 28.9 28.35 28.75 28.2 27.2 28.7 25.8 29.15 26.65 27.85 25.8 29.15 22.15 30.35 M35.35 0.65 L41.65 6.95 41.65 10.55 44.5 12.9 Q38.1 14.25 31.45 16.4 L29.7 15.85 29.7 13.45 34.6 1.95 35.35 0.65 M83.75 24.1 L82.75 23.7 83.75 24.1 M41.65 11.95 L41.65 10.55 41.65 11.95 M53.9 35.15 L53.9 35.05 53.9 35.15 M43.25 28.95 L42.65 28.5 43.25 28.95 M43.75 31.5 L43.75 32.3 43.75 31.5 M27.2 28.7 L26.65 27.85 26.1 27.2 26.1 19.7 22.35 16.1 26.1 19.7 26.1 27.2 26.65 27.85 27.2 28.7" fill="#a1916b" fill-rule="evenodd" stroke="none"/>
      <path d="M53.55 35.45 L53.5 35.5 53.45 35.5 50.3 37.45 50.3 34.25 49.0 32.6 48.75 32.25 48.05 32.25 51.5 31.7 52.35 32.15 53.5 31.4 53.7 31.35 53.9 31.45 53.9 35.05 53.9 31.45 53.7 31.35 63.55 27.0 63.65 27.0 53.9 35.05 53.55 35.45 M33.7 31.6 L31.5 30.75 24.95 30.5 22.15 30.4 22.15 30.35 25.8 29.15 27.2 28.7 28.75 28.2 28.9 28.35 33.7 31.6 M29.55 29.95 L29.4 29.85 28.9 28.35 29.4 29.85 29.55 29.95 31.5 30.75 29.55 29.95 M24.95 30.5 L25.8 29.15 24.95 30.5 M28.65 29.55 L29.4 29.85 28.65 29.55" fill="#706649" fill-rule="evenodd" stroke="none"/>
      <path d="M28.05 15.3 L28.05 15.25 28.1 15.25 28.1 15.3 28.05 15.25 28.1 15.3 28.05 15.3" fill="#c8ad55" fill-rule="evenodd" stroke="none"/>
      <path d="M33.85 31.65 L33.85 31.7 33.8 31.65 33.85 31.65" fill="#423b2a" fill-rule="evenodd" stroke="none"/>
      <path d="M25.5 -16.25 L31.15 -18.75 37.25 -18.8 37.45 -18.65 40.85 -16.25 44.95 -18.8 46.65 -19.9 46.7 -19.9 52.05 -20.55 54.4 -29.2 54.5 -29.65 62.2 -30.15 62.95 -29.9 67.95 -35.1 M68.0 -35.15 L71.6 -39.1 74.55 -42.55 78.05 -46.95 79.95 -49.75 83.1 -47.95 83.15 -47.9 84.65 -45.2 83.8 -29.3 85.45 -28.5 85.55 -28.3 88.85 -24.05 95.35 -26.4 Q106.25 -30.45 113.6 -33.6 L113.65 -33.6 114.65 -33.15 M83.15 -47.95 L83.15 -47.9 M100.55 6.55 Q98.8 8.25 99.25 12.95 L97.6 10.15 Q96.0 7.15 95.05 4.1 M101.95 16.85 L104.15 19.5 104.55 20.45 105.0 21.45 105.0 23.05 104.9 23.1 102.35 26.9 99.25 26.9 98.95 26.9 98.9 26.95 83.75 24.1 83.45 24.05 M83.2 24.0 L81.6 23.7 82.25 23.7 82.75 23.7 83.75 24.1 M81.3 23.7 L80.95 23.8 Q71.7 25.6 60.7 31.4 M48.1 40.25 L41.85 48.2 41.65 48.4 M41.85 48.6 L40.55 49.8 37.45 48.9 36.15 46.35 36.1 46.2 40.45 37.2 38.8 33.85 38.7 33.6 33.85 31.65 33.8 31.65 M33.7 31.6 L31.5 30.75 24.95 30.5 22.15 30.4 22.15 30.35 20.8 28.7 21.5 28.65 22.8 27.15 22.8 24.35 22.8 21.35 20.45 19.0 19.65 19.25 19.65 17.95 22.35 16.1 22.5 16.0 26.0 5.3 26.0 5.15 24.7 1.55 26.2 -0.95 M1.85 30.55 L0.0 28.25 M0.0 28.2 L0.2 25.0 0.4 24.9 15.65 20.4 15.75 20.35 19.65 19.25 M26.4 -1.05 L26.4 -6.25 26.4 -6.35 28.1 -8.0 26.3 -8.65 25.1 -16.1 25.1 -16.15 25.5 -16.25 31.15 -17.9 34.9 -11.5 35.6 -9.35 34.7 -7.8 M37.25 -18.6 L37.45 -18.65 M25.5 -16.25 L25.1 -16.1 M30.25 -7.25 L29.8 -7.4 28.1 -8.0 M30.95 -7.4 L30.95 -7.65 30.95 -8.2 28.35 -10.4 28.65 -12.8 30.9 -12.35 30.95 -8.2 M30.25 -7.25 L30.95 -7.0 30.95 -7.4 M34.45 -7.65 L34.6 -7.65 M62.95 -29.9 L65.15 -28.05 71.95 -30.6 M73.9 -31.3 L75.95 -32.1 82.15 -30.05 83.8 -29.3 M72.1 -30.65 L73.8 -31.3 73.85 -31.35 M83.05 -47.95 L83.1 -47.95 M73.9 -31.3 L73.8 -31.3 M65.55 -8.45 L65.8 -8.3 M48.9 -5.6 L53.05 -7.2 53.75 -7.45 60.75 -8.75 M56.35 4.65 L55.85 5.6 53.05 3.55 51.65 2.55 51.4 2.4 51.7 1.35 52.5 -1.9 52.6 -2.3 53.0 -1.95 54.75 -0.4 54.45 2.05 51.7 1.35 M56.1 9.6 L57.7 8.85 58.35 9.25 60.4 10.9 Q64.2 13.95 67.0 17.25 L68.8 16.2 Q70.0 10.0 70.0 4.45 L69.75 -0.05 71.35 -0.75 73.55 2.05 Q76.1 5.5 76.85 8.45 L79.05 8.45 82.2 7.35 77.1 2.1 78.05 0.85 87.85 2.4 87.0 -6.25 88.7 -7.65 88.7 -11.9 88.35 -12.15 89.5 -15.85 99.25 -22.45 100.15 -21.95 108.25 -17.6 M56.4 -22.35 L59.0 -23.9 M56.4 -22.35 L53.4 -20.55 52.05 -20.55 M40.85 -16.25 L42.15 -15.3 M55.8 11.05 L55.8 9.7 56.1 9.6 M48.9 -5.6 L47.45 -3.45 46.65 -2.25 M53.0 -1.95 L52.5 -1.9 M53.65 -7.4 L58.55 0.25 56.35 4.65 M53.65 -7.4 L53.05 -7.2 M67.95 -22.45 L76.0 -24.9 76.35 -24.6 80.75 -22.0 81.05 -19.7 79.55 -18.45 80.55 -19.85 74.0 -17.4 67.8 -12.05 70.4 -13.45 75.15 -16.05 77.35 -17.25 80.95 -15.3 80.4 -14.2 84.4 -15.05 88.35 -12.15 M79.4 -18.25 L81.7 -16.7 80.95 -15.3 M73.6 -13.1 L75.15 -14.45 75.15 -16.05 M70.45 -13.35 L70.9 -13.05 73.6 -13.1 M73.7 -12.75 L80.4 -14.2 M70.9 -13.05 L71.95 -12.4 73.7 -12.75 M79.25 -18.35 L79.55 -18.45 M77.35 -17.25 L79.25 -18.35 79.4 -18.25 M67.8 -12.05 L67.6 -11.95 64.05 -13.6 67.95 -22.45 M88.85 -24.05 L83.4 -22.1 M108.9 -17.25 L110.4 -16.4 M102.95 -7.65 L103.45 -8.1 108.5 -8.15 M100.6 6.45 L98.3 5.25 98.3 -3.35 102.95 -7.65 M100.25 24.25 L102.25 19.5 103.65 19.5 Q102.25 17.95 101.95 16.85 M103.65 19.5 L104.55 20.45 M104.15 19.5 L103.65 19.5 M100.65 6.45 L100.6 6.45 M100.25 24.25 L99.25 26.7 98.95 26.9 M46.4 14.6 L47.6 14.4 50.2 14.15 52.9 14.0 55.8 13.55 55.8 11.05 M46.4 14.6 L45.65 14.7 43.45 15.05 41.3 15.4 39.15 15.75 37.15 16.2 35.1 16.65 33.15 17.15 31.2 17.6 31.05 17.65 30.95 17.6 M48.05 32.25 L48.75 32.25 49.0 32.6 50.3 34.25 50.3 37.45 M43.75 32.3 L43.75 31.5 M47.75 32.25 L43.75 32.3 41.55 35.05 40.45 37.2 M40.7 46.85 L41.85 48.2 M40.7 46.85 L40.2 46.25 36.15 46.35 M27.1 8.95 L26.0 5.3 M28.1 15.25 L27.75 12.65 27.45 10.55 27.1 8.95 M28.05 15.3 L28.05 15.25 28.1 15.3 28.1 15.25 M29.7 16.95 L30.9 17.55 M28.05 15.3 L28.15 16.2 29.7 16.95 M29.55 29.95 L31.5 30.75 M0.05 28.2 L0.0 28.2 M1.25 28.25 L1.85 30.55 M0.4 24.9 L1.25 28.25 M29.4 29.85 L28.65 29.55" ffdec:has-small-stroke="true" ffdec:original-stroke-width="0.05" fill="none" stroke="#000000" stroke-linecap="round" stroke-linejoin="round" stroke-opacity="0.6627451" stroke-width="4.080443309881079"/>
      <path d="M67.95 -35.1 L68.0 -35.15 M26.4 -6.25 L30.25 -7.25 30.95 -7.4 31.45 -7.65 30.95 -7.65 29.8 -7.4 M34.6 -7.65 L34.7 -7.75 34.7 -7.8 M31.45 -7.65 L34.45 -7.65 M71.95 -30.6 L67.95 -35.1 M71.95 -30.6 L72.1 -30.65 M35.35 0.65 L41.65 6.95 41.65 10.55 44.5 12.9 46.4 14.6 47.05 15.15 M47.45 -3.45 L47.45 1.05 51.65 2.55 54.85 3.75 M104.0 -23.6 L101.85 -26.05 95.35 -26.4 M104.0 -23.6 L105.85 -21.85 108.25 -17.6 108.9 -17.25 M82.25 23.7 L82.05 23.25 81.0 20.75 80.05 18.55 82.85 13.35 97.6 10.15 M41.65 10.55 L41.65 11.95 M38.5 18.15 L38.25 16.95 M52.8 19.85 L62.85 25.15 M52.8 19.85 L52.25 19.55 M42.65 28.5 L43.25 28.95 M42.65 28.5 L40.05 26.8 40.25 27.95 M38.5 18.15 L40.05 26.8" ffdec:has-small-stroke="true" ffdec:original-stroke-width="0.05" fill="none" stroke="#000000" stroke-linecap="round" stroke-linejoin="round" stroke-opacity="0.15294118" stroke-width="4.080443309881079"/>
      <path d="M44.95 -18.8 L50.25 -17.9 50.9 -17.8 59.35 -21.3 62.65 -19.5 58.2 -13.95 58.75 -13.5 65.55 -8.45 M65.8 -8.3 L82.65 -10.65 83.05 -11.25 85.35 -10.55 M58.75 -13.5 L58.2 -13.9 58.2 -13.95 50.4 -14.85 50.25 -14.75 41.8 -10.3 41.1 -9.95 35.35 0.65 34.6 1.95 29.7 13.45 29.7 15.85 29.7 16.95 M87.0 -6.25 L85.2 -4.65 80.95 -7.8 82.65 -10.65 M50.25 -17.9 L50.25 -14.75 M30.95 17.6 L30.5 19.05 28.25 26.25 28.9 28.35 29.4 29.85 29.55 29.95 M53.9 35.05 L53.9 31.45 53.7 31.35 49.1 28.85 46.85 27.65 42.65 28.5 41.45 28.75 38.8 33.85 M53.9 35.05 L53.9 35.15 M30.9 17.55 L30.95 17.6 M22.35 16.1 L26.1 19.7 26.1 27.2 26.65 27.85 27.2 28.7 M26.65 27.85 L25.8 29.15 24.95 30.5" ffdec:has-small-stroke="true" ffdec:original-stroke-width="0.05" fill="none" stroke="#000000" stroke-linecap="round" stroke-linejoin="round" stroke-opacity="0.3137255" stroke-width="4.080443309881079"/>
    </g>
  </defs>
</svg>
