<?xml version="1.0" encoding="UTF-8" standalone="no"?>
<svg xmlns:ffdec="https://www.free-decompiler.com/flash" xmlns:xlink="http://www.w3.org/1999/xlink" ffdec:objectType="frame" height="19.9px" width="24.05px" xmlns="http://www.w3.org/2000/svg">
  <g transform="matrix(1.0, 0.0, 0.0, 1.0, 11.55, 9.15)">
    <use ffdec:characterId="25" height="19.6" transform="matrix(1.0, 0.0, 0.0, 1.0, -11.05, -8.35)" width="24.05" xlink:href="#sprite0"/>
    <use ffdec:characterId="65" height="47.5" transform="matrix(0.3794, 0.0, 0.0, 0.3786, -9.15, -9.2)" width="47.5" xlink:href="#shape1"/>
  </g>
  <defs>
    <g id="sprite0">
      <use ffdec:characterId="24" height="19.6" transform="matrix(1.0, 0.0, 0.0, 1.0, 0.0, 0.0)" width="24.05" xlink:href="#shape0"/>
    </g>
    <g id="shape0">
      <path d="M23.55 1.55 L23.55 19.1 0.4 19.1 0.4 1.55 23.55 1.55" fill="#443c42" fill-opacity="0.7019608" fill-rule="evenodd" stroke="none"/>
      <path d="M21.55 0.0 L21.9 0.0 22.0 6.8 21.55 6.8 21.55 0.0 21.55 6.8 21.55 16.75 0.35 16.75 0.35 0.0 21.55 0.0" fill="#f2ede2" fill-rule="evenodd" stroke="none"/>
      <path d="M21.55 0.0 L21.55 6.8 21.55 16.75 0.35 16.75 0.0 16.75 0.0 0.0 0.35 0.0 21.55 0.0 Z" fill="none" stroke="#cccc99" stroke-linecap="round" stroke-linejoin="round" stroke-width="1.0"/>
    </g>
    <g id="shape1">
      <path d="M19.9 7.8 L23.85 3.8 Q27.6 0.05 32.8 0.05 L32.85 0.05 Q38.05 0.05 41.75 3.8 L43.65 5.7 Q47.4 9.4 47.4 14.6 47.4 19.85 43.65 23.6 L25.8 41.5 21.35 35.45 38.4 18.35 Q39.9 16.8 39.95 14.65 39.9 12.5 38.4 11.05 L38.4 11.0 36.45 9.05 Q34.95 7.55 32.85 7.5 30.65 7.55 29.15 9.05 L25.6 12.6 19.9 7.8 M20.3 46.15 Q17.7 47.45 14.6 47.45 L14.55 47.45 Q9.3 47.45 5.6 43.8 L3.65 41.85 Q0.0 38.1 0.0 32.9 -0.05 27.65 3.7 23.95 L14.75 12.9 21.2 17.05 8.95 29.25 Q7.45 30.75 7.45 32.9 7.45 35.05 9.0 36.6 L8.95 36.6 10.85 38.5 Q12.4 40.0 14.55 40.0 L14.6 40.0 15.0 40.0 15.25 40.0 20.3 46.15" fill="#ccaa82" fill-rule="evenodd" stroke="none"/>
      <path d="M19.9 7.8 L25.6 12.6 21.2 17.05 14.75 12.9 19.9 7.8 M21.35 35.45 L25.8 41.5 23.5 43.75 21.95 45.15 20.3 46.15 15.25 40.0 15.7 39.9 Q17.15 39.6 18.25 38.5 L21.35 35.45" fill="#a77645" fill-rule="evenodd" stroke="none"/>
      <path d="M46.65 28.5 L39.95 33.5 40.0 33.25 40.0 32.95 Q39.95 30.75 38.45 29.25 L38.35 29.1 43.35 23.8 43.7 24.0 Q44.9 25.2 45.7 26.55 L46.65 28.5 M16.65 25.95 L12.45 32.3 9.4 29.25 9.15 28.75 14.3 23.7 14.6 23.9 16.65 25.95" fill="#d2b693" fill-rule="evenodd" stroke="none"/>
      <path d="M46.65 28.5 Q47.4 30.55 47.45 32.9 L47.45 32.95 Q47.4 38.15 43.7 41.85 L41.8 43.75 Q38.1 47.5 32.9 47.5 27.65 47.5 23.9 43.75 L12.45 32.3 16.65 25.95 29.2 38.5 Q30.7 40.0 32.95 40.05 35.0 40.05 36.5 38.55 L38.45 36.6 Q39.6 35.4 39.9 33.9 L39.95 33.5 46.65 28.5 M38.0 18.3 L38.1 18.45 32.9 23.7 18.25 9.05 Q16.75 7.55 14.6 7.55 12.4 7.55 10.9 9.05 L9.0 10.95 9.05 10.95 Q7.5 12.5 7.5 14.65 L7.5 14.7 Q7.5 16.8 9.0 18.3 L9.15 18.5 3.95 23.75 3.75 23.6 Q0.05 19.9 0.05 14.7 L0.05 14.65 Q0.05 9.45 3.7 5.7 L5.65 3.8 Q9.35 0.1 14.6 0.1 19.8 0.1 23.5 3.8 L38.0 18.3" fill="#e8dac6" fill-rule="evenodd" stroke="none"/>
      <path d="M41.7 3.85 Q38.0 0.1 32.8 0.1 L32.75 0.1 Q27.55 0.1 23.8 3.85 L23.65 4.05 23.45 3.85 Q19.75 0.15 14.55 0.15 9.3 0.15 5.6 3.85 L3.65 5.75 Q0.0 9.5 0.0 14.7 L0.0 14.75 Q0.0 19.95 3.7 23.65 L3.85 23.8 3.65 24.0 Q-0.1 27.7 -0.05 32.95 -0.05 38.15 3.6 41.9 L5.55 43.85 Q9.25 47.5 14.5 47.5 L14.55 47.5 Q18.7 47.5 21.9 45.2 L23.45 43.8 23.65 43.6 23.85 43.8 Q27.6 47.55 32.85 47.55 38.05 47.55 41.75 43.8 L43.65 41.9 Q47.35 38.2 47.4 33.0 L47.4 32.95 Q47.35 29.45 45.65 26.6 44.85 25.25 43.65 24.05 L43.4 23.85 43.6 23.65 Q47.35 19.9 47.35 14.65 47.35 9.45 43.6 5.75 L41.7 3.85 M37.95 18.35 L28.9 9.3 29.1 9.1 Q30.6 7.6 32.8 7.55 34.9 7.6 36.4 9.1 L38.35 11.05 38.35 11.1 Q39.85 12.55 39.9 14.7 39.85 16.85 38.35 18.4 M32.9 23.75 L23.7 33.1 14.55 23.95 14.4 23.85 23.65 14.55 32.85 23.75 32.9 23.75 M14.55 7.6 Q16.7 7.6 18.2 9.1 L18.4 9.3 9.1 18.55 8.95 18.35 Q7.45 16.85 7.45 14.75 L7.45 14.7 Q7.45 12.55 9.0 11.0 L8.95 11.0 10.85 9.1 Q12.35 7.6 14.55 7.6 M9.35 29.3 L18.4 38.35 18.2 38.55 Q17.1 39.65 15.65 39.95 L14.55 40.05 14.5 40.05 Q12.35 40.05 10.8 38.55 L8.9 36.65 8.95 36.65 Q7.4 35.1 7.4 32.95 7.4 30.8 8.9 29.3 L9.15 29.05 9.35 29.3 M38.4 29.3 Q39.9 30.8 39.95 33.0 L39.95 33.3 Q39.8 35.25 38.4 36.65 L36.45 38.6 Q34.95 40.1 32.9 40.1 30.65 40.05 29.15 38.55 L28.95 38.35 38.3 28.95" ffdec:has-small-stroke="true" ffdec:original-stroke-width="0.05" fill="none" stroke="#824102" stroke-linecap="round" stroke-linejoin="round" stroke-width="2.6382736777637503"/>
    </g>
  </defs>
</svg>
