<?xml version="1.0" encoding="UTF-8" standalone="no"?>
<svg xmlns:ffdec="https://www.free-decompiler.com/flash" xmlns:xlink="http://www.w3.org/1999/xlink" ffdec:objectType="frame" height="20.7px" width="24.05px" xmlns="http://www.w3.org/2000/svg">
  <g transform="matrix(1.0, 0.0, 0.0, 1.0, 11.55, 9.95)">
    <use ffdec:characterId="25" height="19.6" transform="matrix(1.0, 0.0, 0.0, 1.0, -11.05, -8.35)" width="24.05" xlink:href="#sprite0"/>
    <use ffdec:characterId="31" height="32.25" transform="matrix(0.6203, 0.0, 0.0, 0.6203, -11.5, -10.7)" width="20.0" xlink:href="#shape1"/>
    <use ffdec:characterId="31" height="32.25" transform="matrix(-0.6203, 0.0, 0.0, 0.6203, 11.5, -10.7)" width="20.0" xlink:href="#shape2"/>
  </g>
  <defs>
    <g id="sprite0">
      <use ffdec:characterId="24" height="19.6" transform="matrix(1.0, 0.0, 0.0, 1.0, 0.0, 0.0)" width="24.05" xlink:href="#shape0"/>
    </g>
    <g id="shape0">
      <path d="M23.55 1.55 L23.55 19.1 0.4 19.1 0.4 1.55 23.55 1.55" fill="#443c42" fill-opacity="0.7019608" fill-rule="evenodd" stroke="none"/>
      <path d="M21.55 0.0 L21.9 0.0 22.0 6.8 21.55 6.8 21.55 0.0 21.55 6.8 21.55 16.75 0.35 16.75 0.35 0.0 21.55 0.0" fill="#f2ede2" fill-rule="evenodd" stroke="none"/>
      <path d="M21.55 0.0 L21.55 6.8 21.55 16.75 0.35 16.75 0.0 16.75 0.0 0.0 0.35 0.0 21.55 0.0 Z" fill="none" stroke="#cccc99" stroke-linecap="round" stroke-linejoin="round" stroke-width="1.0"/>
    </g>
    <g id="shape1">
      <path d="M14.15 21.55 L16.9 22.15 16.2 23.3 11.8 23.05 11.8 21.05 14.15 21.55" fill="#000000" fill-rule="evenodd" stroke="none"/>
      <path d="M16.3 26.35 L16.85 27.55 13.9 26.6 14.85 26.25 16.05 25.75 16.3 26.35" fill="#4f3c2e" fill-rule="evenodd" stroke="none"/>
      <path d="M16.25 5.55 L15.65 5.5 13.3 4.7 13.25 4.65 11.7 4.15 14.95 1.8 18.55 1.3 18.55 5.75 16.25 5.55 M1.75 12.45 L3.2 11.0 7.15 11.95 6.45 10.35 10.9 9.8 9.9 13.0 10.45 14.05 1.75 12.45 M9.4 20.8 L10.1 20.4 10.1 20.85 9.4 20.8" fill="#a8733e" fill-rule="evenodd" stroke="none"/>
      <path d="M14.85 26.25 L13.9 26.6 16.85 27.55 16.3 26.35 18.55 26.55 18.55 28.2 14.15 28.2 12.65 28.05 10.3 26.35 10.3 25.85 14.85 26.25" fill="#bdae97" fill-rule="evenodd" stroke="none"/>
      <path d="M10.1 20.85 L10.1 20.4 13.3 18.5 14.15 21.55 11.8 21.05 11.8 23.05 16.2 23.3 16.9 22.15 18.55 22.55 18.55 26.55 16.3 26.35 16.05 25.75 14.85 26.25 10.3 25.85 10.1 20.85 M16.9 23.3 L16.2 23.3 16.9 23.3" fill="#7a694e" fill-rule="evenodd" stroke="none"/>
      <path d="M10.45 14.05 L10.65 14.55 11.05 14.75 11.3 14.95 12.85 15.9 13.95 16.55 14.15 16.7 16.1 16.85 18.55 17.05 18.55 22.55 16.9 22.15 14.15 21.55 13.3 18.5 10.1 20.4 9.4 20.8 8.0 20.6 5.6 19.05 8.1 17.05 3.0 17.3 1.85 16.55 1.1 14.8 5.1 13.9 0.7 13.5 1.75 12.45 10.45 14.05 M12.5 18.3 L13.95 16.55 12.5 18.3 M10.0 16.0 L11.3 14.95 10.0 16.0" fill="#cc8c4b" fill-rule="evenodd" stroke="none"/>
      <path d="M15.65 5.5 L16.25 5.55 18.55 5.75 18.55 17.05 16.1 16.85 14.15 16.7 13.95 16.55 12.85 15.9 11.3 14.95 11.05 14.75 Q13.7 9.8 13.3 4.7 L15.65 5.5 M15.9 9.2 L16.25 5.55 15.9 9.2 M16.3 14.5 L16.1 16.85 16.3 14.5 M14.35 11.05 Q13.95 13.45 12.85 15.9 13.95 13.45 14.35 11.05" fill="#7a502a" fill-rule="evenodd" stroke="none"/>
      <path d="M11.7 4.15 L13.25 4.65 13.3 4.7 Q13.7 9.8 11.05 14.75 L10.65 14.55 10.45 14.05 9.9 13.0 10.9 9.8 11.55 4.3 11.7 4.15" fill="#8e5933" fill-rule="evenodd" stroke="none"/>
      <path d="M12.65 28.05 L14.15 28.2 16.05 28.45 16.55 30.0 17.0 31.2 17.7 33.25 16.8 33.25 15.2 30.9 15.1 30.75 13.8 28.85 13.3 28.5 12.65 28.05" fill="#96805f" fill-rule="evenodd" stroke="none"/>
      <path d="M17.7 33.25 L17.0 31.2 18.55 31.2 18.55 33.25 17.7 33.25" fill="#eddabd" fill-rule="evenodd" stroke="none"/>
      <path d="M16.55 30.0 L18.55 30.0 18.55 31.2 17.0 31.2 16.55 30.0" fill="#d1c0a7" fill-rule="evenodd" stroke="none"/>
      <path d="M14.15 28.2 L18.55 28.2 18.55 30.0 16.55 30.0 16.05 28.45 14.15 28.2 M13.3 28.5 L13.8 28.85 15.1 30.75 11.5 31.5 13.3 28.5" fill="#c4b49c" fill-rule="evenodd" stroke="none"/>
      <path d="M13.95 16.55 L12.5 18.3 M11.3 14.95 L10.0 16.0" ffdec:has-small-stroke="true" ffdec:original-stroke-width="1.0" fill="none" stroke="#2b1b0f" stroke-linecap="round" stroke-linejoin="round" stroke-opacity="0.18039216" stroke-width="1.612122404801732"/>
      <path d="M16.25 5.55 L15.9 9.2 M16.1 16.85 L16.3 14.5 M12.85 15.9 Q13.95 13.45 14.35 11.05" ffdec:has-small-stroke="true" ffdec:original-stroke-width="1.0" fill="none" stroke="#2b1b0f" stroke-linecap="round" stroke-linejoin="round" stroke-opacity="0.39215687" stroke-width="1.612122404801732"/>
      <path d="M16.55 30.0 L18.55 30.0 20.05 30.0" ffdec:has-small-stroke="true" ffdec:original-stroke-width="1.0" fill="none" stroke="#2b1b0f" stroke-linecap="round" stroke-linejoin="round" stroke-width="1.612122404801732"/>
      <path d="M18.55 1.3 L14.95 1.8 11.7 4.15 11.55 4.3 10.9 9.8 6.45 10.35 7.15 11.95 3.2 11.0 1.75 12.45 0.7 13.5 5.1 13.9 1.1 14.8 1.85 16.55 3.0 17.3 8.1 17.05 5.6 19.05 8.0 20.6 9.4 20.8 10.1 20.85 10.1 20.4 9.4 20.8 M14.15 21.55 L11.8 21.05 11.8 23.05 16.2 23.3 16.9 23.3 M10.3 25.85 L10.3 26.35 12.65 28.05 13.3 28.5 13.8 28.85 15.1 30.75 15.2 30.9 16.8 33.25 17.7 33.25 18.55 33.25 19.75 33.25 M10.3 25.85 L10.1 20.85" ffdec:has-small-stroke="true" ffdec:original-stroke-width="0.3" fill="none" stroke="#2b1b0f" stroke-linecap="round" stroke-linejoin="round" stroke-width="1.612122404801732"/>
      <path d="M15.65 5.5 L16.25 5.55 M11.7 4.15 L13.25 4.65 13.3 4.7 M10.1 20.4 L13.3 18.5 14.15 21.55 16.9 22.15 18.55 22.55 M13.3 28.5 L11.5 31.5 15.1 30.75" ffdec:has-small-stroke="true" ffdec:original-stroke-width="0.2" fill="none" stroke="#2b1b0f" stroke-linecap="round" stroke-linejoin="round" stroke-opacity="0.5137255" stroke-width="1.612122404801732"/>
    </g>
    <g id="shape2">
      <path d="M14.15 21.55 L16.9 22.15 16.2 23.3 11.8 23.05 11.8 21.05 14.15 21.55" fill="#000000" fill-rule="evenodd" stroke="none"/>
      <path d="M16.3 26.35 L16.85 27.55 13.9 26.6 14.85 26.25 16.05 25.75 16.3 26.35" fill="#4f3c2e" fill-rule="evenodd" stroke="none"/>
      <path d="M16.25 5.55 L15.65 5.5 13.3 4.7 13.25 4.65 11.7 4.15 14.95 1.8 18.55 1.3 18.55 5.75 16.25 5.55 M1.75 12.45 L3.2 11.0 7.15 11.95 6.45 10.35 10.9 9.8 9.9 13.0 10.45 14.05 1.75 12.45 M9.4 20.8 L10.1 20.4 10.1 20.85 9.4 20.8" fill="#a8733e" fill-rule="evenodd" stroke="none"/>
      <path d="M14.85 26.25 L13.9 26.6 16.85 27.55 16.3 26.35 18.55 26.55 18.55 28.2 14.15 28.2 12.65 28.05 10.3 26.35 10.3 25.85 14.85 26.25" fill="#bdae97" fill-rule="evenodd" stroke="none"/>
      <path d="M10.1 20.85 L10.1 20.4 13.3 18.5 14.15 21.55 11.8 21.05 11.8 23.05 16.2 23.3 16.9 22.15 18.55 22.55 18.55 26.55 16.3 26.35 16.05 25.75 14.85 26.25 10.3 25.85 10.1 20.85 M16.9 23.3 L16.2 23.3 16.9 23.3" fill="#7a694e" fill-rule="evenodd" stroke="none"/>
      <path d="M10.45 14.05 L10.65 14.55 11.05 14.75 11.3 14.95 12.85 15.9 13.95 16.55 14.15 16.7 16.1 16.85 18.55 17.05 18.55 22.55 16.9 22.15 14.15 21.55 13.3 18.5 10.1 20.4 9.4 20.8 8.0 20.6 5.6 19.05 8.1 17.05 3.0 17.3 1.85 16.55 1.1 14.8 5.1 13.9 0.7 13.5 1.75 12.45 10.45 14.05 M12.5 18.3 L13.95 16.55 12.5 18.3 M10.0 16.0 L11.3 14.95 10.0 16.0" fill="#cc8c4b" fill-rule="evenodd" stroke="none"/>
      <path d="M15.65 5.5 L16.25 5.55 18.55 5.75 18.55 17.05 16.1 16.85 14.15 16.7 13.95 16.55 12.85 15.9 11.3 14.95 11.05 14.75 Q13.7 9.8 13.3 4.7 L15.65 5.5 M15.9 9.2 L16.25 5.55 15.9 9.2 M16.3 14.5 L16.1 16.85 16.3 14.5 M14.35 11.05 Q13.95 13.45 12.85 15.9 13.95 13.45 14.35 11.05" fill="#7a502a" fill-rule="evenodd" stroke="none"/>
      <path d="M11.7 4.15 L13.25 4.65 13.3 4.7 Q13.7 9.8 11.05 14.75 L10.65 14.55 10.45 14.05 9.9 13.0 10.9 9.8 11.55 4.3 11.7 4.15" fill="#8e5933" fill-rule="evenodd" stroke="none"/>
      <path d="M12.65 28.05 L14.15 28.2 16.05 28.45 16.55 30.0 17.0 31.2 17.7 33.25 16.8 33.25 15.2 30.9 15.1 30.75 13.8 28.85 13.3 28.5 12.65 28.05" fill="#96805f" fill-rule="evenodd" stroke="none"/>
      <path d="M17.7 33.25 L17.0 31.2 18.55 31.2 18.55 33.25 17.7 33.25" fill="#eddabd" fill-rule="evenodd" stroke="none"/>
      <path d="M16.55 30.0 L18.55 30.0 18.55 31.2 17.0 31.2 16.55 30.0" fill="#d1c0a7" fill-rule="evenodd" stroke="none"/>
      <path d="M14.15 28.2 L18.55 28.2 18.55 30.0 16.55 30.0 16.05 28.45 14.15 28.2 M13.3 28.5 L13.8 28.85 15.1 30.75 11.5 31.5 13.3 28.5" fill="#c4b49c" fill-rule="evenodd" stroke="none"/>
      <path d="M13.95 16.55 L12.5 18.3 M11.3 14.95 L10.0 16.0" ffdec:has-small-stroke="true" ffdec:original-stroke-width="1.0" fill="none" stroke="#2b1b0f" stroke-linecap="round" stroke-linejoin="round" stroke-opacity="0.18039216" stroke-width="1.612122404801732"/>
      <path d="M16.25 5.55 L15.9 9.2 M16.1 16.85 L16.3 14.5 M12.85 15.9 Q13.95 13.45 14.35 11.05" ffdec:has-small-stroke="true" ffdec:original-stroke-width="1.0" fill="none" stroke="#2b1b0f" stroke-linecap="round" stroke-linejoin="round" stroke-opacity="0.39215687" stroke-width="1.612122404801732"/>
      <path d="M16.55 30.0 L18.55 30.0 20.05 30.0" ffdec:has-small-stroke="true" ffdec:original-stroke-width="1.0" fill="none" stroke="#2b1b0f" stroke-linecap="round" stroke-linejoin="round" stroke-width="1.612122404801732"/>
      <path d="M18.55 1.3 L14.95 1.8 11.7 4.15 11.55 4.3 10.9 9.8 6.45 10.35 7.15 11.95 3.2 11.0 1.75 12.45 0.7 13.5 5.1 13.9 1.1 14.8 1.85 16.55 3.0 17.3 8.1 17.05 5.6 19.05 8.0 20.6 9.4 20.8 10.1 20.85 10.1 20.4 9.4 20.8 M14.15 21.55 L11.8 21.05 11.8 23.05 16.2 23.3 16.9 23.3 M10.3 25.85 L10.3 26.35 12.65 28.05 13.3 28.5 13.8 28.85 15.1 30.75 15.2 30.9 16.8 33.25 17.7 33.25 18.55 33.25 19.75 33.25 M10.3 25.85 L10.1 20.85" ffdec:has-small-stroke="true" ffdec:original-stroke-width="0.3" fill="none" stroke="#2b1b0f" stroke-linecap="round" stroke-linejoin="round" stroke-width="1.612122404801732"/>
      <path d="M15.65 5.5 L16.25 5.55 M11.7 4.15 L13.25 4.65 13.3 4.7 M10.1 20.4 L13.3 18.5 14.15 21.55 16.9 22.15 18.55 22.55 M13.3 28.5 L11.5 31.5 15.1 30.75" ffdec:has-small-stroke="true" ffdec:original-stroke-width="0.2" fill="none" stroke="#2b1b0f" stroke-linecap="round" stroke-linejoin="round" stroke-opacity="0.5137255" stroke-width="1.612122404801732"/>
    </g>
  </defs>
</svg>
