<?xml version="1.0" encoding="UTF-8" standalone="no"?>
<svg xmlns:ffdec="https://www.free-decompiler.com/flash" xmlns:xlink="http://www.w3.org/1999/xlink" ffdec:objectType="frame" height="21.9px" width="24.05px" xmlns="http://www.w3.org/2000/svg">
  <g transform="matrix(1.0, 0.0, 0.0, 1.0, 11.55, 10.6)">
    <use ffdec:characterId="25" height="19.6" transform="matrix(1.0, 0.0, 0.0, 1.0, -11.05, -8.35)" width="24.05" xlink:href="#sprite0"/>
    <use ffdec:characterId="56" height="231.9" transform="matrix(0.0726, 0.0194, -0.0194, 0.0726, -8.75, -2.2)" width="239.05" xlink:href="#shape1"/>
    <use ffdec:characterId="57" height="120.5" transform="matrix(0.0261, 0.007, -0.007, 0.0261, -8.65, 6.7)" width="120.5" xlink:href="#shape2"/>
    <use ffdec:characterId="57" height="120.5" transform="matrix(0.0261, 0.007, -0.007, 0.0261, -9.75, -4.25)" width="120.5" xlink:href="#shape3"/>
    <use ffdec:characterId="57" height="120.5" transform="matrix(0.0261, 0.007, -0.007, 0.0261, 2.3, 8.95)" width="120.5" xlink:href="#shape4"/>
    <use ffdec:characterId="57" height="120.5" transform="matrix(0.0261, 0.007, -0.007, 0.0261, 7.9, -0.55)" width="120.5" xlink:href="#shape5"/>
    <use ffdec:characterId="57" height="120.5" transform="matrix(0.0261, 0.007, -0.007, 0.0261, 0.25, -8.75)" width="120.5" xlink:href="#shape6"/>
    <use ffdec:characterId="57" height="120.5" transform="matrix(0.0261, 0.007, -0.007, 0.0261, 1.4, 0.5)" width="120.5" xlink:href="#shape7"/>
  </g>
  <defs>
    <g id="sprite0">
      <use ffdec:characterId="24" height="19.6" transform="matrix(1.0, 0.0, 0.0, 1.0, 0.0, 0.0)" width="24.05" xlink:href="#shape0"/>
    </g>
    <g id="shape0">
      <path d="M23.55 1.55 L23.55 19.1 0.4 19.1 0.4 1.55 23.55 1.55" fill="#443c42" fill-opacity="0.7019608" fill-rule="evenodd" stroke="none"/>
      <path d="M21.55 0.0 L21.9 0.0 22.0 6.8 21.55 6.8 21.55 0.0 21.55 6.8 21.55 16.75 0.35 16.75 0.35 0.0 21.55 0.0" fill="#f2ede2" fill-rule="evenodd" stroke="none"/>
      <path d="M21.55 0.0 L21.55 6.8 21.55 16.75 0.35 16.75 0.0 16.75 0.0 0.0 0.35 0.0 21.55 0.0 Z" fill="none" stroke="#cccc99" stroke-linecap="round" stroke-linejoin="round" stroke-width="1.0"/>
    </g>
    <g id="shape1">
      <path d="M80.85 -38.35 L112.85 -114.45 153.8 -42.75 236.05 -35.8 180.5 25.3 199.35 105.65 124.1 71.7 53.45 114.45 62.5 32.4 0.0 -21.55 80.85 -38.35" fill="#ffcc00" fill-rule="evenodd" stroke="none"/>
      <path d="M80.85 -38.35 L112.85 -114.45 153.8 -42.75 236.05 -35.8 180.5 25.3 199.35 105.65 124.1 71.7 53.45 114.45 62.5 32.4 0.0 -21.55 80.85 -38.35 Z" ffdec:has-small-stroke="true" ffdec:original-stroke-width="3.0" fill="none" stroke="#483700" stroke-linecap="round" stroke-linejoin="round" stroke-width="13.312984747133331"/>
    </g>
    <g id="shape2">
      <path d="M16.3 -38.95 Q32.6 -55.25 55.2 -55.25 77.85 -55.25 94.15 -38.95 110.5 -22.65 110.5 0.0 110.5 22.6 94.15 38.9 77.85 55.25 55.2 55.25 32.6 55.25 16.3 38.9 0.0 22.6 0.0 -0.05 0.0 -22.65 16.3 -38.95" fill="#ffcc00" fill-rule="evenodd" stroke="none"/>
      <path d="M16.3 -38.95 Q32.6 -55.25 55.2 -55.25 77.85 -55.25 94.15 -38.95 110.5 -22.65 110.5 0.0 110.5 22.6 94.15 38.9 77.85 55.25 55.2 55.25 32.6 55.25 16.3 38.9 0.0 22.6 0.0 -0.05 0.0 -22.65 16.3 -38.95 Z" ffdec:has-small-stroke="true" ffdec:original-stroke-width="10.0" fill="none" stroke="#483700" stroke-linecap="round" stroke-linejoin="round" stroke-width="37.04050436651214"/>
    </g>
    <g id="shape3">
      <path d="M16.3 -38.95 Q32.6 -55.25 55.2 -55.25 77.85 -55.25 94.15 -38.95 110.5 -22.65 110.5 0.0 110.5 22.6 94.15 38.9 77.85 55.25 55.2 55.25 32.6 55.25 16.3 38.9 0.0 22.6 0.0 -0.05 0.0 -22.65 16.3 -38.95" fill="#ffcc00" fill-rule="evenodd" stroke="none"/>
      <path d="M16.3 -38.95 Q32.6 -55.25 55.2 -55.25 77.85 -55.25 94.15 -38.95 110.5 -22.65 110.5 0.0 110.5 22.6 94.15 38.9 77.85 55.25 55.2 55.25 32.6 55.25 16.3 38.9 0.0 22.6 0.0 -0.05 0.0 -22.65 16.3 -38.95 Z" ffdec:has-small-stroke="true" ffdec:original-stroke-width="10.0" fill="none" stroke="#483700" stroke-linecap="round" stroke-linejoin="round" stroke-width="37.04050436651214"/>
    </g>
    <g id="shape4">
      <path d="M16.3 -38.95 Q32.6 -55.25 55.2 -55.25 77.85 -55.25 94.15 -38.95 110.5 -22.65 110.5 0.0 110.5 22.6 94.15 38.9 77.85 55.25 55.2 55.25 32.6 55.25 16.3 38.9 0.0 22.6 0.0 -0.05 0.0 -22.65 16.3 -38.95" fill="#ffcc00" fill-rule="evenodd" stroke="none"/>
      <path d="M16.3 -38.95 Q32.6 -55.25 55.2 -55.25 77.85 -55.25 94.15 -38.95 110.5 -22.65 110.5 0.0 110.5 22.6 94.15 38.9 77.85 55.25 55.2 55.25 32.6 55.25 16.3 38.9 0.0 22.6 0.0 -0.05 0.0 -22.65 16.3 -38.95 Z" ffdec:has-small-stroke="true" ffdec:original-stroke-width="10.0" fill="none" stroke="#483700" stroke-linecap="round" stroke-linejoin="round" stroke-width="37.04050436651214"/>
    </g>
    <g id="shape5">
      <path d="M16.3 -38.95 Q32.6 -55.25 55.2 -55.25 77.85 -55.25 94.15 -38.95 110.5 -22.65 110.5 0.0 110.5 22.6 94.15 38.9 77.85 55.25 55.2 55.25 32.6 55.25 16.3 38.9 0.0 22.6 0.0 -0.05 0.0 -22.65 16.3 -38.95" fill="#ffcc00" fill-rule="evenodd" stroke="none"/>
      <path d="M16.3 -38.95 Q32.6 -55.25 55.2 -55.25 77.85 -55.25 94.15 -38.95 110.5 -22.65 110.5 0.0 110.5 22.6 94.15 38.9 77.85 55.25 55.2 55.25 32.6 55.25 16.3 38.9 0.0 22.6 0.0 -0.05 0.0 -22.65 16.3 -38.95 Z" ffdec:has-small-stroke="true" ffdec:original-stroke-width="10.0" fill="none" stroke="#483700" stroke-linecap="round" stroke-linejoin="round" stroke-width="37.04050436651214"/>
    </g>
    <g id="shape6">
      <path d="M16.3 -38.95 Q32.6 -55.25 55.2 -55.25 77.85 -55.25 94.15 -38.95 110.5 -22.65 110.5 0.0 110.5 22.6 94.15 38.9 77.85 55.25 55.2 55.25 32.6 55.25 16.3 38.9 0.0 22.6 0.0 -0.05 0.0 -22.65 16.3 -38.95" fill="#ffcc00" fill-rule="evenodd" stroke="none"/>
      <path d="M16.3 -38.95 Q32.6 -55.25 55.2 -55.25 77.85 -55.25 94.15 -38.95 110.5 -22.65 110.5 0.0 110.5 22.6 94.15 38.9 77.85 55.25 55.2 55.25 32.6 55.25 16.3 38.9 0.0 22.6 0.0 -0.05 0.0 -22.65 16.3 -38.95 Z" ffdec:has-small-stroke="true" ffdec:original-stroke-width="10.0" fill="none" stroke="#483700" stroke-linecap="round" stroke-linejoin="round" stroke-width="37.04050436651214"/>
    </g>
    <g id="shape7">
      <path d="M16.3 -38.95 Q32.6 -55.25 55.2 -55.25 77.85 -55.25 94.15 -38.95 110.5 -22.65 110.5 0.0 110.5 22.6 94.15 38.9 77.85 55.25 55.2 55.25 32.6 55.25 16.3 38.9 0.0 22.6 0.0 -0.05 0.0 -22.65 16.3 -38.95" fill="#f8f5f0" fill-rule="evenodd" stroke="none"/>
      <path d="M16.3 -38.95 Q32.6 -55.25 55.2 -55.25 77.85 -55.25 94.15 -38.95 110.5 -22.65 110.5 0.0 110.5 22.6 94.15 38.9 77.85 55.25 55.2 55.25 32.6 55.25 16.3 38.9 0.0 22.6 0.0 -0.05 0.0 -22.65 16.3 -38.95 Z" ffdec:has-small-stroke="true" ffdec:original-stroke-width="10.0" fill="none" stroke="#f8f5f0" stroke-linecap="round" stroke-linejoin="round" stroke-width="37.04050436651214"/>
    </g>
  </defs>
</svg>
