<?xml version="1.0" encoding="UTF-8" standalone="no"?>
<svg xmlns:ffdec="https://www.free-decompiler.com/flash" xmlns:xlink="http://www.w3.org/1999/xlink" ffdec:objectType="frame" height="24.4px" width="24.05px" xmlns="http://www.w3.org/2000/svg">
  <g transform="matrix(1.0, 0.0, 0.0, 1.0, 11.55, 13.65)">
    <use ffdec:characterId="25" height="19.6" transform="matrix(1.0, 0.0, 0.0, 1.0, -11.05, -8.35)" width="24.05" xlink:href="#sprite0"/>
    <use ffdec:characterId="86" height="126.15" transform="matrix(0.1789, 0.0, 0.0, 0.1759, -11.2, -13.6)" width="123.95" xlink:href="#shape1"/>
  </g>
  <defs>
    <g id="sprite0">
      <use ffdec:characterId="24" height="19.6" transform="matrix(1.0, 0.0, 0.0, 1.0, 0.0, 0.0)" width="24.05" xlink:href="#shape0"/>
    </g>
    <g id="shape0">
      <path d="M23.55 1.55 L23.55 19.1 0.4 19.1 0.4 1.55 23.55 1.55" fill="#443c42" fill-opacity="0.7019608" fill-rule="evenodd" stroke="none"/>
      <path d="M21.55 0.0 L21.9 0.0 22.0 6.8 21.55 6.8 21.55 0.0 21.55 6.8 21.55 16.75 0.35 16.75 0.35 0.0 21.55 0.0" fill="#f2ede2" fill-rule="evenodd" stroke="none"/>
      <path d="M21.55 0.0 L21.55 6.8 21.55 16.75 0.35 16.75 0.0 16.75 0.0 0.0 0.35 0.0 21.55 0.0 Z" fill="none" stroke="#cccc99" stroke-linecap="round" stroke-linejoin="round" stroke-width="1.0"/>
    </g>
    <g id="shape1">
      <path d="M73.25 6.35 L58.5 24.55 47.75 13.7 61.45 0.0 Q67.6 2.95 73.25 6.35 M7.9 75.65 Q3.65 68.95 0.0 61.45 L10.5 50.95 21.8 61.6 7.9 75.65" fill="#dadada" fill-rule="evenodd" stroke="none"/>
      <path d="M21.8 61.6 L43.95 82.4 61.25 98.6 73.9 110.5 61.45 122.95 Q54.15 119.6 47.5 115.5 37.1 109.05 28.25 100.65 16.8 89.8 7.9 75.65 L21.8 61.6 M77.3 43.65 L58.5 24.55 73.25 6.35 Q85.8 13.85 95.85 23.35 L77.5 43.85 77.3 43.65" fill="#cccccc" fill-rule="evenodd" stroke="none"/>
      <path d="M21.8 61.6 L58.5 24.55 77.3 43.65 43.95 82.4 21.8 61.6" fill="#996633" fill-rule="evenodd" stroke="none"/>
      <path d="M58.5 24.55 L21.8 61.6 10.5 50.95 47.75 13.7 58.5 24.55" fill="#ce9d6c" fill-rule="evenodd" stroke="none"/>
      <path d="M95.85 23.35 Q104.5 31.5 111.3 41.1 L93.05 59.6 77.5 43.85 95.85 23.35" fill="#acacac" fill-rule="evenodd" stroke="none"/>
      <path d="M111.3 41.1 Q118.0 50.55 122.95 61.45 L108.8 75.6 93.05 59.6 111.3 41.1" fill="#9a9a9a" fill-rule="evenodd" stroke="none"/>
      <path d="M43.95 82.4 L77.3 43.65 77.5 43.85 93.05 59.6 61.25 98.6 43.95 82.4" fill="#926030" fill-rule="evenodd" stroke="none"/>
      <path d="M108.8 75.6 L73.9 110.5 61.25 98.6 93.05 59.6 108.8 75.6" fill="#6c4824" fill-rule="evenodd" stroke="none"/>
      <path d="M21.8 61.6 L43.95 82.4 61.25 98.6 73.9 110.5 M77.3 43.65 L58.5 24.55 47.75 13.7 M77.5 43.85 L93.05 59.6 108.8 75.6 M77.5 43.85 L77.3 43.65 M21.8 61.6 L10.5 50.95" ffdec:has-small-stroke="true" ffdec:original-stroke-width="1.0" fill="none" stroke="#3c2713" stroke-linecap="round" stroke-linejoin="round" stroke-width="5.636739983914963"/>
      <path d="M73.25 6.35 Q67.6 2.95 61.45 0.0 L47.75 13.7 10.5 50.95 0.0 61.45 Q3.65 68.95 7.9 75.65 16.8 89.8 28.25 100.65 37.1 109.05 47.5 115.5 54.15 119.6 61.45 122.95 L73.9 110.5 108.8 75.6 122.95 61.45 Q118.0 50.55 111.3 41.1 104.5 31.5 95.85 23.35 85.8 13.85 73.25 6.35 Z" ffdec:has-small-stroke="true" ffdec:original-stroke-width="1.0" fill="none" stroke="#3c2713" stroke-linecap="round" stroke-linejoin="round" stroke-width="5.636739983914963"/>
      <path d="M67.4 82.15 L92.05 106.8 92.05 125.15 24.05 125.15 24.05 105.5 47.4 82.15 67.4 82.15" fill="#996633" fill-rule="evenodd" stroke="none"/>
      <path d="M67.4 82.15 L92.05 106.8 92.05 125.15 24.05 125.15 24.05 105.5 47.4 82.15 67.4 82.15 Z" ffdec:has-small-stroke="true" ffdec:original-stroke-width="1.0" fill="none" stroke="#3c2713" stroke-linecap="round" stroke-linejoin="round" stroke-width="5.636739983914963"/>
      <path d="M66.25 96.4 Q69.25 99.4 69.25 103.65 69.25 107.9 66.25 110.9 63.25 113.9 59.0 113.9 54.75 113.9 51.75 110.9 48.75 107.9 48.75 103.65 48.75 99.4 51.75 96.4 54.75 93.4 59.0 93.4 63.25 93.4 66.25 96.4" fill="#acacac" fill-rule="evenodd" stroke="none"/>
      <path d="M66.25 96.4 Q69.25 99.4 69.25 103.65 69.25 107.9 66.25 110.9 63.25 113.9 59.0 113.9 54.75 113.9 51.75 110.9 48.75 107.9 48.75 103.65 48.75 99.4 51.75 96.4 54.75 93.4 59.0 93.4 63.25 93.4 66.25 96.4 Z" ffdec:has-small-stroke="true" ffdec:original-stroke-width="1.0" fill="none" stroke="#5e5e5e" stroke-linecap="round" stroke-linejoin="round" stroke-width="5.636739983914963"/>
    </g>
  </defs>
</svg>
