<?xml version="1.0" encoding="UTF-8" standalone="no"?>
<svg xmlns:ffdec="https://www.free-decompiler.com/flash" xmlns:xlink="http://www.w3.org/1999/xlink" ffdec:objectType="frame" height="25.05px" width="24.15px" xmlns="http://www.w3.org/2000/svg">
  <g transform="matrix(1.0, 0.0, 0.0, 1.0, 11.55, 12.9)">
    <use ffdec:characterId="25" height="19.6" transform="matrix(1.0, 0.0, 0.0, 1.0, -11.05, -8.35)" width="24.05" xlink:href="#sprite0"/>
    <use ffdec:characterId="41" height="64.7" transform="matrix(0.2823, 0.0, 0.0, 0.2823, 1.85, -0.4)" width="40.0" xlink:href="#shape1"/>
    <use ffdec:characterId="42" height="78.95" transform="matrix(0.0236, -0.0475, 0.0323, 0.0161, -2.45, 5.75)" width="72.65" xlink:href="#shape2"/>
    <use ffdec:characterId="43" height="75.35" transform="matrix(0.2823, 0.0, 0.0, 0.2823, 1.85, -0.4)" width="69.55" xlink:href="#shape3"/>
    <use ffdec:characterId="44" height="16.85" transform="matrix(-0.0244, -0.1913, 0.1911, -0.0244, -5.35, 3.5)" width="12.4" xlink:href="#shape4"/>
    <use ffdec:characterId="44" height="16.85" transform="matrix(0.069, -0.1796, 0.1796, 0.0692, -5.35, -0.1)" width="12.4" xlink:href="#shape5"/>
    <use ffdec:characterId="44" height="16.85" transform="matrix(0.193, 0.0, 0.0, 0.1931, -3.55, -2.8)" width="12.4" xlink:href="#shape6"/>
    <use ffdec:characterId="45" height="88.85" transform="matrix(0.2823, 0.0, 0.0, 0.2823, 1.85, -0.4)" width="60.8" xlink:href="#shape7"/>
    <use ffdec:characterId="44" height="16.85" transform="matrix(0.0709, 0.1794, -0.1794, 0.071, 2.2, -1.0)" width="12.4" xlink:href="#shape8"/>
    <use ffdec:characterId="44" height="16.85" transform="matrix(-0.0224, 0.1914, -0.1913, -0.0226, 3.1, 2.0)" width="12.4" xlink:href="#shape9"/>
    <use ffdec:characterId="44" height="16.85" transform="matrix(0.1698, 0.0915, -0.0914, 0.1698, -0.4, -2.3)" width="12.4" xlink:href="#shape10"/>
    <use ffdec:characterId="46" height="74.85" transform="matrix(0.2823, 0.0, 0.0, 0.2823, 1.85, -0.4)" width="74.9" xlink:href="#shape11"/>
  </g>
  <defs>
    <g id="sprite0">
      <use ffdec:characterId="24" height="19.6" transform="matrix(1.0, 0.0, 0.0, 1.0, 0.0, 0.0)" width="24.05" xlink:href="#shape0"/>
    </g>
    <g id="shape0">
      <path d="M23.55 1.55 L23.55 19.1 0.4 19.1 0.4 1.55 23.55 1.55" fill="#443c42" fill-opacity="0.7019608" fill-rule="evenodd" stroke="none"/>
      <path d="M21.55 0.0 L21.9 0.0 22.0 6.8 21.55 6.8 21.55 0.0 21.55 6.8 21.55 16.75 0.35 16.75 0.35 0.0 21.55 0.0" fill="#f2ede2" fill-rule="evenodd" stroke="none"/>
      <path d="M21.55 0.0 L21.55 6.8 21.55 16.75 0.35 16.75 0.0 16.75 0.0 0.0 0.35 0.0 21.55 0.0 Z" fill="none" stroke="#cccc99" stroke-linecap="round" stroke-linejoin="round" stroke-width="1.0"/>
    </g>
    <g id="shape1">
      <path d="M-16.25 -0.6 L-16.25 -0.65 -11.7 -3.1 6.4 6.1 1.85 8.6 -16.25 -0.6" fill="#b39b57" fill-rule="evenodd" stroke="none"/>
      <path d="M-11.7 40.7 L-29.75 31.45 -16.25 -0.6 1.85 8.6 -11.7 40.7" fill="#887240" fill-rule="evenodd" stroke="none"/>
      <path d="M6.4 6.1 L6.4 31.45 -11.7 40.7 1.85 8.6 6.4 6.1" fill="#5a4b29" fill-rule="evenodd" stroke="none"/>
      <path d="M1.85 -17.75 Q4.55 -14.25 6.05 -8.85 L-12.6 4.35 1.85 -17.75 M7.35 1.3 Q7.25 6.9 5.45 12.75 L-12.6 4.45 7.35 1.3 M1.1 22.2 Q-1.75 26.6 -5.8 29.45 L-12.65 4.45 -13.15 32.65 Q-17.15 33.3 -21.05 31.5 L-12.7 4.55 -27.15 26.6 Q-29.9 23.05 -31.4 17.65 L-12.75 4.45 -32.65 7.55 Q-32.6 1.9 -30.75 -3.95 L-12.7 4.4 -12.75 4.45 -12.7 4.5 -12.7 4.45 -12.65 4.45 1.1 22.2 M-26.45 -13.35 Q-23.6 -17.8 -19.55 -20.65 L-12.7 4.4 -26.45 -13.35 M-12.15 -23.85 Q-8.2 -24.5 -4.3 -22.7 L-12.65 4.4 -12.15 -23.85" fill="#ffe6e6" fill-rule="evenodd" stroke="none"/>
      <path d="M6.05 -8.85 Q7.4 -3.9 7.35 1.3 L-12.6 4.45 5.45 12.75 Q3.75 18.1 1.1 22.2 L-12.65 4.45 -12.6 4.45 -12.65 4.4 -12.7 4.4 -30.75 -3.95 Q-29.1 -9.3 -26.45 -13.35 L-12.7 4.4 -19.55 -20.65 Q-15.85 -23.3 -12.15 -23.85 L-12.65 4.4 -4.3 -22.7 Q-0.7 -21.05 1.85 -17.75 L-12.6 4.35 6.05 -8.85 M-5.8 29.45 Q-9.5 32.05 -13.15 32.65 L-12.65 4.45 -5.8 29.45 M-21.05 31.5 Q-24.65 29.85 -27.15 26.6 L-12.7 4.55 -21.05 31.5 M-31.4 17.65 Q-32.75 12.7 -32.65 7.55 L-12.75 4.45 -31.4 17.65" fill="#5f829a" fill-rule="evenodd" stroke="none"/>
    </g>
    <g id="shape2">
      <path d="M15.25 35.45 Q9.4 28.1 7.95 16.65 6.3 3.2 11.65 -8.05 17.0 -19.3 26.2 -21.75 34.9 -24.05 42.3 -17.15 L42.7 -16.35 Q40.7 -8.65 40.15 -2.1 L45.55 11.9 Q49.15 20.15 47.45 25.8 L47.3 26.15 Q41.25 36.3 31.9 38.8 23.0 41.15 15.25 35.45" fill="#ff0000" fill-rule="evenodd" stroke="none"/>
      <path d="M42.7 -16.35 L42.3 -17.15 Q34.9 -24.05 26.2 -21.75 17.0 -19.3 11.65 -8.05 6.3 3.2 7.95 16.65 9.4 28.1 15.25 35.45 L11.65 32.35 Q2.45 23.05 0.45 7.05 -1.5 -8.95 4.85 -22.4 11.25 -35.85 22.2 -38.75 32.6 -41.5 41.45 -33.3 45.15 -25.7 43.3 -18.65 L42.7 -16.35" fill="#d30101" fill-rule="evenodd" stroke="none"/>
      <path d="M40.8 -2.75 L53.45 -6.1 62.05 -13.45" ffdec:has-small-stroke="true" ffdec:original-stroke-width="0.05" fill="none" stroke="#252806" stroke-linecap="round" stroke-linejoin="round" stroke-width="22.870347025737093"/>
      <path d="M42.7 -16.35 L43.3 -18.65 Q45.15 -25.7 41.45 -33.3 32.6 -41.5 22.2 -38.75 11.25 -35.85 4.85 -22.4 -1.5 -8.95 0.45 7.05 2.45 23.05 11.65 32.35 L15.25 35.45 Q23.0 41.15 31.9 38.8 41.25 36.3 47.3 26.15 L47.45 25.8 Q49.15 20.15 45.55 11.9 L40.15 -2.1 Q40.7 -8.65 42.7 -16.35 Z" ffdec:has-small-stroke="true" ffdec:original-stroke-width="0.05" fill="none" stroke="#660000" stroke-linecap="round" stroke-linejoin="round" stroke-width="22.870347025737093"/>
      <path d="M58.65 -1.8 Q62.95 3.05 66.85 11.35 70.9 19.65 72.15 26.45 73.45 33.3 71.3 34.65 69.15 36.1 64.8 31.3 60.55 26.5 56.55 18.15 52.6 9.9 51.3 3.05 50.05 -3.75 52.2 -5.2 54.35 -6.6 58.65 -1.8" fill="#9ac51e" fill-rule="evenodd" stroke="none"/>
      <path d="M58.65 -1.8 Q62.95 3.05 66.85 11.35 70.9 19.65 72.15 26.45 73.45 33.3 71.3 34.65 69.15 36.1 64.8 31.3 60.55 26.5 56.55 18.15 52.6 9.9 51.3 3.05 50.05 -3.75 52.2 -5.2 54.35 -6.6 58.65 -1.8 Z" ffdec:has-small-stroke="true" ffdec:original-stroke-width="0.05" fill="none" stroke="#457007" stroke-linecap="round" stroke-linejoin="round" stroke-width="22.870347025737093"/>
      <path d="M38.05 14.1 Q40.2 16.35 40.65 20.15 41.15 23.95 39.7 27.1 38.25 30.3 35.75 30.95 33.25 31.65 31.05 29.4 28.9 27.2 28.4 23.4 27.95 19.6 29.45 16.4 30.95 13.2 33.45 12.5 35.95 11.85 38.05 14.1" fill="#fec9c9" fill-rule="evenodd" stroke="none"/>
    </g>
    <g id="shape3">
      <path d="M7.85 16.95 Q9.45 17.0 10.3 17.9 L10.85 18.6 11.15 18.5 12.05 19.15 Q11.65 19.8 11.85 20.8 12.75 20.5 13.1 19.95 L14.8 20.5 15.35 21.45 Q16.15 23.3 15.6 25.75 14.95 28.15 13.3 29.7 11.6 31.2 9.85 31.0 9.0 30.85 9.2 30.75 L9.1 30.75 7.6 30.25 Q5.95 30.0 4.9 28.5 L4.25 27.65 Q2.25 25.35 -0.95 25.05 L-0.95 24.9 Q-0.8 24.05 -1.15 23.35 0.75 23.5 2.3 22.75 3.6 22.0 4.0 20.8 5.3 20.85 6.4 20.15 7.35 19.5 7.7 18.5 L7.9 17.95 7.85 16.95" fill="#151d20" fill-rule="evenodd" stroke="none"/>
      <path d="M37.75 -10.05 L36.65 -5.8 36.7 -5.8 36.25 -4.6 Q35.3 -1.6 32.65 -1.3 L30.55 -1.5 30.5 -1.55 19.5 -5.45 19.3 -5.45 Q19.6 -8.2 18.95 -10.95 L18.6 -11.05 18.75 -11.8 17.4 -15.1 17.2 -15.5 14.05 -17.7 Q17.5 -17.3 12.3 -19.3 7.05 -21.3 16.9 -18.85 L28.8 -14.75 30.6 -14.3 30.6 -14.35 32.25 -16.05 31.5 -9.1 37.75 -10.05 M-24.85 -33.6 L-24.7 -32.9 -22.8 -31.75 -15.85 -29.1 Q-13.15 -27.65 -12.9 -26.65 -12.65 -25.65 -12.1 -25.5 L-12.1 -25.45 -11.9 -24.05 -22.85 -24.4 -22.9 -26.45 -26.35 -26.55 -26.45 -29.45 -31.05 -29.6 -31.15 -32.9 -24.85 -33.6" fill="#6c5c26" fill-rule="evenodd" stroke="none"/>
      <path d="M32.25 -16.05 Q33.55 -17.65 34.4 -19.35 38.4 -26.95 38.2 -17.35 L38.2 -15.5 Q38.2 -13.1 37.85 -10.9 L37.75 -10.05 31.5 -9.1 32.25 -16.05 M-24.85 -33.6 L-31.15 -32.9 -31.35 -39.2 -29.7 -41.1 Q-24.05 -48.3 -25.05 -39.55 -25.45 -36.85 -24.85 -33.6" fill="#987336" fill-rule="evenodd" stroke="none"/>
      <path d="M37.75 -10.05 L36.65 -5.8 36.7 -5.8 36.25 -4.6 Q35.3 -1.6 32.65 -1.3 L30.55 -1.5 30.5 -1.55 19.5 -5.45 19.3 -5.45 Q19.6 -8.2 18.95 -10.95 L18.6 -11.05 18.75 -11.8 17.4 -15.1 17.2 -15.5 14.05 -17.7 Q17.5 -17.3 12.3 -19.3 7.05 -21.3 16.9 -18.85 L28.8 -14.75 30.6 -14.3 30.6 -14.35 32.25 -16.05 Q33.55 -17.65 34.4 -19.35 38.4 -26.95 38.2 -17.35 L38.2 -15.5 Q38.2 -13.1 37.85 -10.9 L37.75 -10.05 M-11.9 -24.05 L-12.1 -25.45 -12.1 -25.5 Q-12.65 -25.65 -12.9 -26.65 -13.15 -27.65 -15.85 -29.1 L-22.8 -31.75 -24.7 -32.9 -24.85 -33.6 Q-25.45 -36.85 -25.05 -39.55 -24.05 -48.3 -29.7 -41.1 L-31.35 -39.2" ffdec:has-small-stroke="true" ffdec:original-stroke-width="0.05" fill="none" stroke="#2c2f13" stroke-linecap="round" stroke-linejoin="round" stroke-width="3.542869499405341"/>
      <path d="M-10.1 -18.35 Q-2.8 -17.55 1.45 -10.4 5.7 -3.35 4.4 5.85 L3.95 8.2 Q3.0 6.05 1.2 4.3 -2.7 0.4 -8.2 0.4 -13.75 0.4 -17.65 4.3 -21.55 8.2 -21.55 13.75 -21.55 19.3 -17.65 23.2 -15.75 25.1 -13.4 26.1 L-16.5 26.0 Q-23.8 25.15 -28.05 18.1 -32.3 10.95 -30.95 1.8 -29.65 -7.4 -23.55 -13.35 -17.4 -19.2 -10.1 -18.35" fill="#2f300a" fill-opacity="0.39215687" fill-rule="evenodd" stroke="none"/>
    </g>
    <g id="shape4">
      <path d="M4.15 8.1 Q2.85 7.6 1.65 6.35 0.0 2.65 0.05 -1.1 0.05 -4.75 1.65 -8.45 L11.05 -8.45 Q12.55 -5.05 12.45 -1.1 L2.5 -1.1 Q2.3 3.5 4.15 8.1" fill="#dfc899" fill-rule="evenodd" stroke="none"/>
      <path d="M4.15 8.1 Q2.3 3.5 2.5 -1.1 L12.45 -1.1 Q12.35 2.4 11.05 6.35 7.2 9.2 4.15 8.1" fill="#f5ecd8" fill-rule="evenodd" stroke="none"/>
      <path d="M12.45 -1.1 Q12.55 -5.05 11.05 -8.45 L1.65 -8.45 Q0.05 -4.75 0.05 -1.1 0.0 2.65 1.65 6.35 2.85 7.6 4.15 8.1" ffdec:has-small-stroke="true" ffdec:original-stroke-width="0.05" fill="none" stroke="#2f300a" stroke-linecap="round" stroke-linejoin="round" stroke-width="5.188581810293391"/>
      <path d="M12.45 -1.1 Q12.35 2.4 11.05 6.35 7.2 9.2 4.15 8.1" ffdec:has-small-stroke="true" ffdec:original-stroke-width="0.05" fill="none" stroke="#2f300a" stroke-linecap="round" stroke-linejoin="round" stroke-width="5.188581810293391"/>
    </g>
    <g id="shape5">
      <path d="M4.15 8.1 Q2.85 7.6 1.65 6.35 0.0 2.65 0.05 -1.1 0.05 -4.75 1.65 -8.45 L11.05 -8.45 Q12.55 -5.05 12.45 -1.1 L2.5 -1.1 Q2.3 3.5 4.15 8.1" fill="#dfc899" fill-rule="evenodd" stroke="none"/>
      <path d="M4.15 8.1 Q2.3 3.5 2.5 -1.1 L12.45 -1.1 Q12.35 2.4 11.05 6.35 7.2 9.2 4.15 8.1" fill="#f5ecd8" fill-rule="evenodd" stroke="none"/>
      <path d="M12.45 -1.1 Q12.55 -5.05 11.05 -8.45 L1.65 -8.45 Q0.05 -4.75 0.05 -1.1 0.0 2.65 1.65 6.35 2.85 7.6 4.15 8.1" ffdec:has-small-stroke="true" ffdec:original-stroke-width="0.05" fill="none" stroke="#2f300a" stroke-linecap="round" stroke-linejoin="round" stroke-width="5.197026843704829"/>
      <path d="M12.45 -1.1 Q12.35 2.4 11.05 6.35 7.2 9.2 4.15 8.1" ffdec:has-small-stroke="true" ffdec:original-stroke-width="0.05" fill="none" stroke="#2f300a" stroke-linecap="round" stroke-linejoin="round" stroke-width="5.197026843704829"/>
    </g>
    <g id="shape6">
      <path d="M4.15 8.1 Q2.85 7.6 1.65 6.35 0.0 2.65 0.05 -1.1 0.05 -4.75 1.65 -8.45 L11.05 -8.45 Q12.55 -5.05 12.45 -1.1 L2.5 -1.1 Q2.3 3.5 4.15 8.1" fill="#dfc899" fill-rule="evenodd" stroke="none"/>
      <path d="M4.15 8.1 Q2.3 3.5 2.5 -1.1 L12.45 -1.1 Q12.35 2.4 11.05 6.35 7.2 9.2 4.15 8.1" fill="#f5ecd8" fill-rule="evenodd" stroke="none"/>
      <path d="M12.45 -1.1 Q12.55 -5.05 11.05 -8.45 L1.65 -8.45 Q0.05 -4.75 0.05 -1.1 0.0 2.65 1.65 6.35 2.85 7.6 4.15 8.1" ffdec:has-small-stroke="true" ffdec:original-stroke-width="0.05" fill="none" stroke="#2f300a" stroke-linecap="round" stroke-linejoin="round" stroke-width="5.179892911607837"/>
      <path d="M12.45 -1.1 Q12.35 2.4 11.05 6.35 7.2 9.2 4.15 8.1" ffdec:has-small-stroke="true" ffdec:original-stroke-width="0.05" fill="none" stroke="#2f300a" stroke-linecap="round" stroke-linejoin="round" stroke-width="5.179892911607837"/>
    </g>
    <g id="shape7">
      <path d="M-35.0 -36.25 Q-33.6 -38.75 -31.5 -40.95 -26.1 -47.8 -26.9 -39.35 -27.3 -36.5 -26.4 -32.9 L-24.55 -31.75 -17.7 -29.05 Q-15.05 -27.6 -14.75 -26.6 -14.5 -25.6 -14.0 -25.45 L-14.0 -25.4 -13.6 -23.4 Q-17.55 -23.8 -20.7 -22.55 L-21.35 -22.85 -25.85 -24.35 Q-28.6 -25.25 -32.15 -26.8 -35.8 -28.3 -35.9 -30.35 -36.0 -32.4 -35.3 -34.35 -34.55 -36.35 -35.0 -36.25 M-28.6 -43.3 L-30.25 -41.55 Q-31.65 -40.05 -31.3 -39.8 -31.0 -39.5 -29.8 -40.15 L-28.2 -41.05 Q-27.9 -41.3 -27.7 -41.75 -27.5 -42.25 -27.6 -42.7 -27.65 -43.2 -27.95 -43.35 L-28.6 -43.3" fill="#5f829a" fill-rule="evenodd" stroke="none"/>
      <path d="M-28.6 -43.3 L-27.95 -43.35 Q-27.65 -43.2 -27.6 -42.7 -27.5 -42.25 -27.7 -41.75 -27.9 -41.3 -28.2 -41.05 L-29.8 -40.15 Q-31.0 -39.5 -31.3 -39.8 -31.65 -40.05 -30.25 -41.55 L-28.6 -43.3" fill="#82c4cc" fill-rule="evenodd" stroke="none"/>
      <path d="M-35.0 -36.25 Q-34.55 -36.35 -35.3 -34.35 -36.0 -32.4 -35.9 -30.35 -35.8 -28.3 -32.15 -26.8 -28.6 -25.25 -25.85 -24.35 L-21.35 -22.85 -20.7 -22.55 Q-17.55 -23.8 -13.6 -23.4 L-13.55 -23.15 -14.05 -23.05 -17.15 -21.8 -17.45 -21.2 -17.9 -21.35 Q-20.1 -20.05 -21.45 -17.9 L-21.6 -18.0 -32.8 -23.5 -33.8 -24.0 -33.85 -24.0 -35.85 -25.5 Q-38.1 -27.8 -37.15 -30.6 L-36.85 -31.75 -36.8 -31.75 Q-36.2 -34.1 -35.0 -36.25" fill="#425a68" fill-rule="evenodd" stroke="none"/>
      <path d="M-13.6 -23.4 L-14.0 -25.4 -14.0 -25.45 Q-14.5 -25.6 -14.75 -26.6 -15.05 -27.6 -17.7 -29.05 L-24.55 -31.75 -26.4 -32.9 Q-27.3 -36.5 -26.9 -39.35 -26.1 -47.8 -31.5 -40.95 -33.6 -38.75 -35.0 -36.25 -36.2 -34.1 -36.8 -31.75 M-13.6 -23.4 L-13.55 -23.15 -14.05 -23.05 -17.15 -21.8 M-17.9 -21.35 Q-20.1 -20.05 -21.45 -17.9 M-32.8 -23.5 L-33.8 -24.0 -33.85 -24.0 -35.85 -25.5 Q-38.1 -27.8 -37.15 -30.6" ffdec:has-small-stroke="true" ffdec:original-stroke-width="0.5" fill="none" stroke="#423213" stroke-linecap="round" stroke-linejoin="round" stroke-opacity="0.5019608" stroke-width="3.542869499405341"/>
      <path d="M-27.6 27.3 L-26.95 26.85 Q-25.9 26.2 -24.4 26.65 L-24.7 27.55 -24.75 28.15 Q-24.7 29.15 -24.0 30.0 -23.15 30.95 -21.95 31.3 -22.0 32.5 -20.9 33.6 -19.8 34.75 -17.95 35.1 -18.45 35.75 -18.6 36.55 L-18.6 36.7 Q-21.65 36.05 -24.15 37.6 L-23.8 37.15 Q-23.3 36.45 -23.3 34.35 L-23.35 33.9 -23.65 32.1 Q-24.0 30.8 -24.85 29.75 -26.3 28.1 -27.6 27.3" fill="#7a6749" fill-rule="evenodd" stroke="none"/>
      <path d="M-31.85 27.95 L-30.1 27.9 Q-29.95 28.5 -29.2 29.05 -29.35 29.7 -30.05 30.25 -31.35 29.0 -31.85 27.95 M-28.9 27.45 L-27.95 27.15 -27.6 27.3 Q-26.3 28.1 -24.85 29.75 -24.0 30.8 -23.65 32.1 L-25.85 33.45 Q-25.85 31.3 -26.85 29.6 -27.6 28.3 -28.9 27.45" fill="#5f829a" fill-rule="evenodd" stroke="none"/>
      <path d="M-29.45 39.05 L-29.6 39.05 -30.3 39.0 Q-32.0 38.7 -33.1 36.8 -34.2 34.95 -34.05 32.5 -33.9 30.1 -32.65 28.65 L-31.85 27.95 Q-31.35 29.0 -30.05 30.25 -29.35 29.7 -29.2 29.05 -28.8 28.25 -28.9 27.45 -27.6 28.3 -26.85 29.6 -25.85 31.3 -25.85 33.45 L-25.85 33.85 -26.05 35.3 Q-26.3 36.7 -27.05 37.6 -28.0 38.85 -29.45 39.05" fill="#425a68" fill-rule="evenodd" stroke="none"/>
      <path d="M-23.65 32.1 L-23.35 33.9 -23.3 34.35 -26.05 35.3 -25.85 33.85 -25.85 33.45 -23.65 32.1" fill="#72abc2" fill-rule="evenodd" stroke="none"/>
      <path d="M-24.15 37.6 L-25.0 38.2 Q-26.45 39.25 -28.05 39.0 L-29.45 39.05 Q-28.0 38.85 -27.05 37.6 -26.3 36.7 -26.05 35.3 L-23.3 34.35 Q-23.3 36.45 -23.8 37.15 L-24.15 37.6" fill="#2f4046" fill-rule="evenodd" stroke="none"/>
      <path d="M-27.6 27.3 L-26.95 26.85 Q-25.9 26.2 -24.4 26.65 L-24.7 27.55 -24.75 28.15 Q-24.7 29.15 -24.0 30.0 -23.15 30.95 -21.95 31.3 -22.0 32.5 -20.9 33.6 -19.8 34.75 -17.95 35.1 -18.45 35.75 -18.6 36.55 L-18.6 36.7 Q-21.65 36.05 -24.15 37.6 L-25.0 38.2 Q-26.45 39.25 -28.05 39.0 L-29.45 39.05 -29.6 39.05 -30.3 39.0 Q-32.0 38.7 -33.1 36.8 -34.2 34.95 -34.05 32.5 -33.9 30.1 -32.65 28.65 L-31.85 27.95 -30.1 27.9 Q-29.95 28.5 -29.2 29.05 -28.8 28.25 -28.9 27.45 L-27.95 27.15 -27.6 27.3 Q-26.3 28.1 -24.85 29.75 -24.0 30.8 -23.65 32.1 L-23.35 33.9 -23.3 34.35 Q-23.3 36.45 -23.8 37.15 L-24.15 37.6 M-31.85 27.95 Q-31.35 29.0 -30.05 30.25 -29.35 29.7 -29.2 29.05 M-28.9 27.45 Q-27.6 28.3 -26.85 29.6 -25.85 31.3 -25.85 33.45 L-25.85 33.85 -26.05 35.3 Q-26.3 36.7 -27.05 37.6 -28.0 38.85 -29.45 39.05" ffdec:has-small-stroke="true" ffdec:original-stroke-width="0.5" fill="none" stroke="#423213" stroke-linecap="round" stroke-linejoin="round" stroke-opacity="0.5019608" stroke-width="3.542869499405341"/>
      <path d="M-14.5 32.6 L-13.85 32.1 -11.3 31.95 -11.6 32.85 -11.65 33.45 Q-11.6 34.4 -10.85 35.3 -10.05 36.25 -8.8 36.6 L-7.25 36.45 -5.05 35.7 -5.2 37.95 Q-8.75 41.45 -11.05 42.9 L-10.7 42.45 Q-10.2 41.75 -10.2 39.65 L-10.2 39.25 -10.5 37.35 Q-10.9 36.05 -11.75 35.05 -13.2 33.35 -14.5 32.6" fill="#7a6749" fill-rule="evenodd" stroke="none"/>
      <path d="M-16.1 34.35 Q-16.2 34.95 -16.9 35.5 -18.3 34.3 -18.75 33.2 L-17.0 33.2 Q-16.85 33.8 -16.1 34.35 M-12.7 38.75 Q-12.7 36.6 -13.7 34.85 -14.45 33.6 -15.8 32.75 L-14.8 32.45 -14.5 32.6 Q-13.2 33.35 -11.75 35.05 -10.9 36.05 -10.5 37.35 L-12.7 38.75" fill="#5f829a" fill-rule="evenodd" stroke="none"/>
      <path d="M-18.75 33.2 Q-18.3 34.3 -16.9 35.5 -16.2 34.95 -16.1 34.35 -15.65 33.5 -15.8 32.75 -14.45 33.6 -13.7 34.85 -12.7 36.6 -12.7 38.75 L-12.75 39.2 -12.9 40.6 Q-13.2 42.0 -13.9 42.9 -14.9 44.2 -16.45 44.3 L-16.5 44.3 -17.2 44.3 Q-18.9 44.0 -20.0 42.15 -21.1 40.25 -20.95 37.8 -20.85 35.4 -19.55 33.9 L-18.75 33.2" fill="#425a68" fill-rule="evenodd" stroke="none"/>
      <path d="M-12.9 40.6 L-12.75 39.2 -12.7 38.75 -10.5 37.35 -10.2 39.25 -10.2 39.65 -12.9 40.6" fill="#72abc2" fill-rule="evenodd" stroke="none"/>
      <path d="M-16.45 44.3 Q-14.9 44.2 -13.9 42.9 -13.2 42.0 -12.9 40.6 L-10.2 39.65 Q-10.2 41.75 -10.7 42.45 L-11.05 42.9 -11.85 43.5 Q-13.3 44.55 -14.9 44.3 L-16.45 44.3" fill="#2f4046" fill-rule="evenodd" stroke="none"/>
      <path d="M-14.5 32.6 L-13.85 32.1 -11.3 31.95 -11.6 32.85 -11.65 33.45 Q-11.6 34.4 -10.85 35.3 -10.05 36.25 -8.8 36.6 L-7.25 36.45 -5.05 35.7 -5.2 37.95 -4.5 37.25 M-18.75 33.2 Q-18.3 34.3 -16.9 35.5 -16.2 34.95 -16.1 34.35 -16.85 33.8 -17.0 33.2 L-18.75 33.2 -19.55 33.9 Q-20.85 35.4 -20.95 37.8 -21.1 40.25 -20.0 42.15 -18.9 44.0 -17.2 44.3 L-16.5 44.3 -16.45 44.3 Q-14.9 44.2 -13.9 42.9 -13.2 42.0 -12.9 40.6 L-12.75 39.2 -12.7 38.75 Q-12.7 36.6 -13.7 34.85 -14.45 33.6 -15.8 32.75 -15.65 33.5 -16.1 34.35 M-15.8 32.75 L-14.8 32.45 -14.5 32.6 Q-13.2 33.35 -11.75 35.05 -10.9 36.05 -10.5 37.35 L-10.2 39.25 -10.2 39.65 Q-10.2 41.75 -10.7 42.45 L-11.05 42.9 Q-8.75 41.45 -5.2 37.95 M-16.45 44.3 L-14.9 44.3 Q-13.3 44.55 -11.85 43.5 L-11.05 42.9" ffdec:has-small-stroke="true" ffdec:original-stroke-width="0.5" fill="none" stroke="#423213" stroke-linecap="round" stroke-linejoin="round" stroke-opacity="0.5019608" stroke-width="3.542869499405341"/>
      <path d="M-6.05 -34.9 L-4.5 -34.6 -4.35 -34.55 -4.4 -34.45 -4.3 -34.55 -2.7 -35.65 Q-0.15 -36.95 2.4 -35.9 4.9 -34.8 5.9 -31.95 L6.3 -30.35 10.4 -30.55 Q12.45 -29.65 13.25 -27.1 13.75 -25.35 13.45 -23.55 L15.35 -23.4 Q16.25 -23.05 16.8 -22.2 L-6.05 -22.2 -6.05 -34.9" fill="#987336" fill-rule="evenodd" stroke="none"/>
      <path d="M-6.05 -34.9 L-6.05 -22.2 16.8 -22.2 17.15 -21.3 Q17.45 -20.4 17.35 -19.35 L17.3 -19.35 17.05 -18.25 19.05 -17.95 Q20.9 -17.15 21.55 -14.85 L21.85 -13.45 21.85 -12.3 21.3 -10.1 Q20.8 -8.7 19.9 -7.7 L1.4 -7.7 1.4 -7.05 Q-0.95 -10.4 -4.45 -11.7 L-6.75 -12.3 -9.05 -12.45 -9.05 -20.15 -8.75 -20.8 -9.05 -21.6 -9.05 -33.5 -8.25 -34.1 Q-7.1 -34.85 -6.05 -34.9 M20.45 6.8 Q20.9 8.35 20.35 9.85 L19.95 10.65 18.75 12.0 17.0 12.55 16.65 14.05 16.6 14.2 16.4 14.7 16.1 15.55 14.85 17.55 Q14.9 19.05 14.6 20.6 L14.55 20.9 14.5 21.1 14.1 22.5 13.75 23.35 Q12.9 25.35 11.7 26.3 L11.55 26.4 11.55 26.3 11.5 26.45 11.35 27.1 -9.05 27.1 -9.05 24.15 -8.15 23.9 -6.35 23.2 -6.05 23.05 Q-4.25 22.15 -2.5 20.65 L-2.4 20.6 -1.95 20.15 Q2.9 15.6 4.25 8.45 L4.4 7.7 4.45 7.35 4.5 6.8 20.45 6.8 M-8.75 -20.8 L-8.3 -21.6 -8.3 -21.8 -8.75 -20.8 M-8.65 -18.7 L-8.95 -18.65 -8.9 -16.35 -8.65 -18.7" fill="#6c5c26" fill-rule="evenodd" stroke="none"/>
      <path d="M19.9 -7.7 L19.5 -7.25 19.35 -7.15 19.2 -7.05 19.4 -7.05 19.5 -7.0 19.8 -6.85 21.2 -5.95 Q22.2 -5.1 22.75 -3.65 L23.05 -2.3 Q23.2 -1.25 23.0 -0.1 L21.85 2.8 Q20.25 5.3 17.85 3.65 L18.95 4.55 19.05 4.6 19.25 4.8 19.3 4.75 19.4 4.85 19.6 5.2 20.25 6.2 20.45 6.8 4.5 6.8 4.75 3.75 4.75 3.25 4.2 -0.75 3.9 -1.9 3.8 -2.2 3.7 -2.4 3.7 -2.5 3.6 -2.85 3.4 -3.25 2.7 -4.8 2.6 -5.05 2.5 -5.2 2.4 -5.45 1.4 -7.05 1.4 -7.7 19.9 -7.7 M11.35 27.1 L10.8 28.7 Q9.45 31.95 7.35 33.55 5.2 35.1 3.5 34.1 L2.7 33.35 0.95 36.3 -0.05 37.25 Q-1.8 38.55 -3.25 37.5 L-4.25 36.3 -4.65 35.25 -5.35 36.3 -6.0 36.95 -8.0 37.1 -8.6 36.3 -8.75 35.95 -8.8 35.85 -9.0 34.9 -9.05 35.0 -9.05 27.1 11.35 27.1" fill="#3a2f14" fill-rule="evenodd" stroke="none"/>
      <path d="M16.8 -22.2 Q16.25 -23.05 15.35 -23.4 L13.45 -23.55 Q13.75 -25.35 13.25 -27.1 12.45 -29.65 10.4 -30.55 L6.3 -30.35 5.9 -31.95 Q4.9 -34.8 2.4 -35.9 -0.15 -36.95 -2.7 -35.65 L-4.3 -34.55 -4.4 -34.45 -4.35 -34.55 -4.5 -34.6 -6.05 -34.9 Q-7.1 -34.85 -8.25 -34.1 L-9.05 -33.5 -9.05 -21.6 -8.75 -20.8 -8.3 -21.8 -8.3 -21.6 -8.75 -20.8 -9.05 -20.15 -9.05 -12.45 -6.75 -12.3 -4.45 -11.7 Q-0.95 -10.4 1.4 -7.05 L2.4 -5.45 2.5 -5.2 2.6 -5.05 2.7 -4.8 3.4 -3.25 3.6 -2.85 3.7 -2.5 3.7 -2.4 3.8 -2.2 3.9 -1.9 4.2 -0.75 4.75 3.25 4.75 3.75 4.5 6.8 4.45 7.35 4.4 7.7 4.25 8.45 Q2.9 15.6 -1.95 20.15 L-2.4 20.6 -2.5 20.65 Q-4.25 22.15 -6.05 23.05 L-6.35 23.2 -8.15 23.9 -9.05 24.15 -9.05 27.1 -9.05 35.0 -9.0 34.9 -8.8 35.85 -8.75 35.95 -8.6 36.3 -8.0 37.1 -6.0 36.95 -5.35 36.3 -4.65 35.25 -4.25 36.3 -3.25 37.5 Q-1.8 38.55 -0.05 37.25 L0.95 36.3 2.7 33.35 3.5 34.1 Q5.2 35.1 7.35 33.55 9.45 31.95 10.8 28.7 L11.35 27.1 11.5 26.45 11.55 26.3 11.55 26.4 11.7 26.3 Q12.9 25.35 13.75 23.35 L14.1 22.5 14.5 21.1 14.55 20.9 14.6 20.6 Q14.9 19.05 14.85 17.55 L16.1 15.55 16.4 14.7 16.6 14.2 16.65 14.05 17.0 12.55 18.75 12.0 19.95 10.65 20.35 9.85 Q20.9 8.35 20.45 6.8 L20.25 6.2 19.6 5.2 19.4 4.85 19.3 4.75 19.25 4.8 19.05 4.6 18.95 4.55 17.85 3.65 Q20.25 5.3 21.85 2.8 L23.0 -0.1 Q23.2 -1.25 23.05 -2.3 L22.75 -3.65 Q22.2 -5.1 21.2 -5.95 L19.8 -6.85 19.5 -7.0 19.4 -7.05 19.2 -7.05 19.35 -7.15 19.5 -7.25 19.9 -7.7 Q20.8 -8.7 21.3 -10.1 L21.85 -12.3 21.85 -13.45 21.55 -14.85 Q20.9 -17.15 19.05 -17.95 L17.05 -18.25 17.3 -19.35 17.35 -19.35 Q17.45 -20.4 17.15 -21.3 L16.8 -22.2 M-8.65 -18.7 L-8.9 -16.35 -8.95 -18.65 -8.65 -18.7 Z" ffdec:has-small-stroke="true" ffdec:original-stroke-width="0.05" fill="none" stroke="#2c2f13" stroke-linecap="round" stroke-linejoin="round" stroke-width="3.542869499405341"/>
    </g>
    <g id="shape8">
      <path d="M4.15 8.1 Q2.85 7.6 1.65 6.35 0.0 2.65 0.05 -1.1 0.05 -4.75 1.65 -8.45 L11.05 -8.45 Q12.55 -5.05 12.45 -1.1 L2.5 -1.1 Q2.3 3.5 4.15 8.1" fill="#dfc899" fill-rule="evenodd" stroke="none"/>
      <path d="M4.15 8.1 Q2.3 3.5 2.5 -1.1 L12.45 -1.1 Q12.35 2.4 11.05 6.35 7.2 9.2 4.15 8.1" fill="#f5ecd8" fill-rule="evenodd" stroke="none"/>
      <path d="M12.45 -1.1 Q12.55 -5.05 11.05 -8.45 L1.65 -8.45 Q0.05 -4.75 0.05 -1.1 0.0 2.65 1.65 6.35 2.85 7.6 4.15 8.1" ffdec:has-small-stroke="true" ffdec:original-stroke-width="0.05" fill="none" stroke="#2f300a" stroke-linecap="round" stroke-linejoin="round" stroke-width="5.184121068997113"/>
      <path d="M12.45 -1.1 Q12.35 2.4 11.05 6.35 7.2 9.2 4.15 8.1" ffdec:has-small-stroke="true" ffdec:original-stroke-width="0.05" fill="none" stroke="#2f300a" stroke-linecap="round" stroke-linejoin="round" stroke-width="5.184121068997113"/>
    </g>
    <g id="shape9">
      <path d="M4.15 8.1 Q2.85 7.6 1.65 6.35 0.0 2.65 0.05 -1.1 0.05 -4.75 1.65 -8.45 L11.05 -8.45 Q12.55 -5.05 12.45 -1.1 L2.5 -1.1 Q2.3 3.5 4.15 8.1" fill="#dfc899" fill-rule="evenodd" stroke="none"/>
      <path d="M4.15 8.1 Q2.3 3.5 2.5 -1.1 L12.45 -1.1 Q12.35 2.4 11.05 6.35 7.2 9.2 4.15 8.1" fill="#f5ecd8" fill-rule="evenodd" stroke="none"/>
      <path d="M12.45 -1.1 Q12.55 -5.05 11.05 -8.45 L1.65 -8.45 Q0.05 -4.75 0.05 -1.1 0.0 2.65 1.65 6.35 2.85 7.6 4.15 8.1" ffdec:has-small-stroke="true" ffdec:original-stroke-width="0.05" fill="none" stroke="#2f300a" stroke-linecap="round" stroke-linejoin="round" stroke-width="5.190699534896194"/>
      <path d="M12.45 -1.1 Q12.35 2.4 11.05 6.35 7.2 9.2 4.15 8.1" ffdec:has-small-stroke="true" ffdec:original-stroke-width="0.05" fill="none" stroke="#2f300a" stroke-linecap="round" stroke-linejoin="round" stroke-width="5.190699534896194"/>
    </g>
    <g id="shape10">
      <path d="M4.15 8.1 Q2.85 7.6 1.65 6.35 0.0 2.65 0.05 -1.1 0.05 -4.75 1.65 -8.45 L11.05 -8.45 Q12.55 -5.05 12.45 -1.1 L2.5 -1.1 Q2.3 3.5 4.15 8.1" fill="#dfc899" fill-rule="evenodd" stroke="none"/>
      <path d="M4.15 8.1 Q2.3 3.5 2.5 -1.1 L12.45 -1.1 Q12.35 2.4 11.05 6.35 7.2 9.2 4.15 8.1" fill="#f5ecd8" fill-rule="evenodd" stroke="none"/>
      <path d="M12.45 -1.1 Q12.55 -5.05 11.05 -8.45 L1.65 -8.45 Q0.05 -4.75 0.05 -1.1 0.0 2.65 1.65 6.35 2.85 7.6 4.15 8.1" ffdec:has-small-stroke="true" ffdec:original-stroke-width="0.05" fill="none" stroke="#2f300a" stroke-linecap="round" stroke-linejoin="round" stroke-width="5.184334578524785"/>
      <path d="M12.45 -1.1 Q12.35 2.4 11.05 6.35 7.2 9.2 4.15 8.1" ffdec:has-small-stroke="true" ffdec:original-stroke-width="0.05" fill="none" stroke="#2f300a" stroke-linecap="round" stroke-linejoin="round" stroke-width="5.184334578524785"/>
    </g>
    <g id="shape11">
      <path d="M3.35 -31.45 L7.45 -31.7 Q9.55 -30.8 10.3 -28.2 10.85 -26.45 10.5 -24.65 L12.45 -24.55 Q13.75 -24.0 14.2 -22.45 14.5 -21.5 14.4 -20.5 L14.35 -20.5 14.1 -19.4 12.8 -19.0 14.1 -19.4 16.1 -19.1 Q17.95 -18.3 18.6 -16.0 L18.9 -14.55 Q19.05 -15.5 18.95 -14.6 L18.95 -14.55 18.9 -13.45 18.4 -11.25 Q17.75 -9.5 16.55 -8.4 L16.4 -8.25 16.25 -8.2 16.45 -8.15 16.85 -8.0 18.25 -7.1 Q19.25 -6.2 19.8 -4.8 L20.15 -3.45 20.05 -1.25 Q18.35 4.85 14.95 2.55 L16.0 3.4 16.1 3.45 16.3 3.65 16.35 3.65 16.45 3.75 16.65 4.05 17.3 5.1 Q18.1 6.9 17.4 8.75 L17.0 9.5 15.8 10.85 14.1 11.4 13.7 12.95 13.65 13.05 13.45 13.55 13.15 14.4 11.9 16.45 11.65 19.5 11.6 19.75 11.6 19.95 11.15 21.35 10.85 22.2 Q9.95 24.25 8.75 25.2 L8.6 25.25 8.6 25.2 8.55 25.3 7.85 27.55 Q6.5 30.8 4.4 32.4 2.3 34.0 0.55 32.95 L-0.25 32.2 Q-1.0 34.0 -2.0 35.2 L-3.0 36.1 Q-4.75 37.45 -6.2 36.4 L-7.2 35.2 -7.6 34.1 -8.3 35.2 -8.95 35.8 Q-10.05 36.6 -10.9 35.95 L-11.55 35.2 -11.7 34.8 -11.75 34.75 -11.95 33.8 -13.15 35.2 -13.4 35.35 Q-14.95 36.5 -16.2 35.6 L-16.65 35.2 -16.85 35.0 -16.85 35.2 -16.95 34.95 -17.3 34.05 -17.7 32.05 -17.7 30.8 -18.9 31.5 -20.55 32.25 -23.75 32.4 Q-25.95 31.75 -26.4 29.45 L-26.45 28.1 Q-28.65 29.3 -30.35 28.85 -32.25 28.3 -32.5 26.2 -32.65 24.75 -32.0 23.2 L-33.85 23.3 Q-35.0 23.0 -35.15 21.7 -35.25 20.9 -34.9 20.05 L-34.45 19.05 Q-35.45 19.3 -36.25 19.05 -37.9 18.6 -38.15 16.75 L-38.15 15.55 -38.15 15.5 -37.9 14.5 Q-37.6 13.55 -36.95 12.55 L-35.45 10.55 -34.7 9.9 -34.5 9.8 -34.4 9.7 -34.6 9.65 -34.9 9.6 -36.0 9.1 -36.1 9.0 Q-36.9 8.35 -37.15 7.2 L-37.2 6.05 -36.4 5.4 -37.15 3.9 Q-38.4 0.95 -37.9 -2.3 -37.4 -5.55 -35.5 -7.2 L-34.35 -7.9 Q-35.4 -10.3 -35.0 -12.9 -34.6 -15.65 -32.85 -16.95 -31.65 -17.8 -30.3 -17.7 -30.65 -18.8 -30.45 -20.05 -30.2 -21.75 -29.15 -22.55 -28.5 -23.0 -27.75 -23.0 L-26.9 -22.85 Q-27.1 -24.05 -26.9 -25.25 -26.6 -27.65 -25.0 -28.85 L-24.0 -29.4 -23.2 -29.5 -21.55 -29.15 Q-20.4 -28.7 -19.6 -27.65 L-19.3 -27.3 -19.2 -27.1 -19.1 -27.0 -19.1 -27.2 -19.05 -27.75 -18.7 -29.1 -18.6 -29.6 Q-18.05 -30.95 -17.1 -31.8 L-16.6 -32.15 -15.9 -32.2 -16.6 -32.15 -16.15 -32.4 -15.9 -32.2 -15.8 -32.2 -13.95 -31.8 -13.1 -31.55 -12.55 -31.2 Q-10.75 -33.7 -9.4 -32.3 L-9.3 -32.5 Q-8.65 -34.3 -7.45 -35.45 L-7.35 -35.6 -7.25 -35.65 -5.65 -36.75 Q-3.1 -38.1 -0.55 -37.0 1.95 -35.95 2.95 -33.05 L3.35 -31.45 3.35 -29.65 3.35 -31.45 M-9.8 -30.75 L-9.4 -32.3 -9.8 -30.75 M12.8 -19.0 Q13.1 -19.75 13.9 -20.05 L9.65 -18.95 Q11.8 -16.3 14.5 -11.15 11.8 -16.8 12.8 -19.0 M8.35 -22.95 Q8.9 -23.8 9.75 -24.3 L10.5 -24.65 9.75 -24.3 Q8.9 -23.8 8.35 -22.95 M1.2 -7.2 L1.05 -7.55 -0.15 -9.5 Q-2.8 -13.3 -6.7 -14.75 L-9.25 -15.4 Q-15.75 -16.55 -21.45 -11.8 L-19.75 -15.8 Q-22.15 -13.25 -23.65 -12.65 L-23.95 -12.55 -24.0 -12.8 -24.15 -12.5 Q-25.55 -12.25 -26.1 -13.9 L-25.2 -10.3 -28.3 -4.95 Q-26.35 -7.8 -24.95 -8.7 L-24.6 -8.55 Q-28.1 -4.2 -29.3 2.05 -29.95 5.1 -29.85 8.0 L-29.35 11.7 -28.65 14.15 -27.35 17.2 -27.3 17.3 -26.6 18.55 Q-25.25 20.65 -23.55 22.1 -22.5 23.0 -21.3 23.65 -19.4 24.7 -17.05 25.05 L-14.55 25.3 -14.05 25.25 -12.7 25.15 -10.8 24.7 -8.85 23.95 -8.5 23.85 -7.55 23.3 -7.0 24.0 -7.05 24.15 -6.9 24.1 Q-6.25 25.45 -7.0 27.2 L-5.15 23.85 -4.35 23.7 -4.0 23.75 -4.0 23.7 -0.8 23.7 Q-3.2 23.4 -4.2 22.5 L-4.5 21.1 -4.5 21.05 -4.4 21.05 -3.85 20.55 Q1.4 15.5 2.95 7.55 3.55 4.55 3.5 1.8 3.35 -1.35 2.45 -4.2 L2.35 -4.55 1.2 -7.2 M15.05 -8.4 L15.45 -8.35 16.25 -8.2 15.45 -8.35 15.05 -8.4 M6.75 12.0 L6.85 9.2 Q4.8 12.6 1.1 17.35 6.05 11.45 6.65 14.05 L6.4 22.3 Q7.25 12.75 9.3 13.4 L6.75 12.0 M-5.35 19.45 L-5.35 19.5 -5.45 19.5 -5.35 19.45 M-19.1 -25.4 L-19.15 -25.9 -19.1 -26.65 -19.1 -27.0 -19.1 -26.65 -19.15 -25.9 -19.1 -25.4 M-12.55 -31.2 L-12.0 -30.8 -12.55 -31.2 M-26.5 -21.25 L-26.9 -22.85 -26.5 -21.25 M-28.85 -15.2 Q-29.5 -15.85 -29.95 -16.8 L-30.3 -17.7 -29.95 -16.8 Q-29.5 -15.85 -28.85 -15.2 M-33.05 -8.2 L-34.35 -7.9 -33.05 -8.2 M-33.25 9.7 L-33.6 9.75 -33.65 9.75 -34.4 9.7 -33.65 9.75 -33.6 9.75 -33.25 9.7 M-11.25 -22.9 L-11.7 -21.95 -11.65 -21.9 -11.25 -22.7 -11.25 -22.9 M-11.9 -19.8 L-11.85 -17.45 -11.6 -19.85 -11.9 -19.8 M-33.3 18.65 L-34.45 19.05 -33.3 18.65 M-29.6 21.4 L-31.25 22.75 -32.0 23.2 -31.25 22.75 -29.6 21.4 M-16.85 35.0 L-16.85 34.95 -16.9 34.9 -16.85 35.0 -16.9 34.9 -16.85 34.95 -16.85 35.0 M-11.15 32.35 L-11.95 33.8 -11.15 32.35 M-6.7 30.95 Q-6.8 32.05 -7.2 33.2 L-7.6 34.1 -7.2 33.2 Q-6.8 32.05 -6.7 30.95 M-26.15 26.55 L-26.45 28.1 -26.15 26.55 M-0.9 31.0 L-0.25 32.2 -0.9 31.0" fill="#f5eed3" fill-rule="evenodd" stroke="none"/>
      <path d="M-7.35 -35.6 L-7.45 -35.45 Q-8.65 -34.3 -9.3 -32.5 L-9.4 -32.3 Q-10.75 -33.7 -12.55 -31.2 L-13.1 -31.55 -13.95 -31.8 Q-13.3 -33.3 -12.3 -34.35 L-12.15 -34.5 -11.2 -35.25 Q-9.25 -36.55 -7.45 -35.75 L-7.3 -35.65 -7.35 -35.6 M12.8 -19.0 Q11.8 -16.8 14.5 -11.15 11.8 -16.3 9.65 -18.95 L13.9 -20.05 Q13.1 -19.75 12.8 -19.0 M1.2 -7.2 L2.35 -4.55 2.45 -4.2 Q3.35 -1.35 3.5 1.8 3.55 4.55 2.95 7.55 1.4 15.5 -3.85 20.55 L-4.4 21.05 -4.5 21.05 -4.5 21.1 -4.2 22.5 Q-3.2 23.4 -0.8 23.7 L-4.0 23.7 -4.0 23.75 -4.35 23.7 -5.15 23.85 -7.0 27.2 Q-6.25 25.45 -6.9 24.1 L-7.05 24.15 -7.0 24.0 -7.55 23.3 -8.5 23.85 -8.85 23.95 -10.8 24.7 -12.7 25.15 -14.05 25.25 -14.55 25.3 -17.05 25.05 Q-19.4 24.7 -21.3 23.65 -22.5 23.0 -23.55 22.1 -25.25 20.65 -26.6 18.55 L-27.3 17.3 -27.35 17.2 -28.65 14.15 -29.35 11.7 -29.85 8.0 Q-29.95 5.1 -29.3 2.05 -28.1 -4.2 -24.6 -8.55 L-24.95 -8.7 Q-26.35 -7.8 -28.3 -4.95 L-25.2 -10.3 -26.1 -13.9 Q-25.55 -12.25 -24.15 -12.5 L-24.0 -12.8 -23.95 -12.55 -23.65 -12.65 Q-22.15 -13.25 -19.75 -15.8 L-21.45 -11.8 Q-15.75 -16.55 -9.25 -15.4 L-6.7 -14.75 Q-2.8 -13.3 -0.15 -9.5 L1.05 -7.55 1.2 -7.2 M6.75 12.0 L9.3 13.4 Q7.25 12.75 6.4 22.3 L6.65 14.05 Q6.05 11.45 1.1 17.35 4.8 12.6 6.85 9.2 L6.75 12.0 M-5.35 19.45 L-4.85 19.0 Q-0.05 14.45 1.3 7.35 2.5 1.4 0.75 -3.65 L-0.4 -6.3 Q-3.65 -12.4 -9.7 -13.45 -15.75 -14.45 -21.0 -9.85 L-22.15 -8.8 -22.75 -8.15 Q-26.6 -3.9 -27.75 2.3 -28.3 5.1 -28.2 7.7 L-27.8 11.05 Q-27.25 13.6 -26.05 15.95 L-25.95 16.05 -25.3 17.2 Q-23.35 20.25 -20.55 21.8 L-19.35 22.35 -16.75 23.05 -14.45 23.3 -14.05 23.3 Q-11.6 23.15 -9.3 22.1 L-9.0 21.95 -5.45 19.5 -5.35 19.5 -5.35 19.45 M-18.7 -29.1 L-19.05 -27.75 -19.1 -27.2 -19.1 -27.0 -19.2 -27.1 -19.3 -27.3 -19.6 -27.65 -18.7 -29.1 M-36.0 9.1 L-34.9 9.6 -34.6 9.65 -34.4 9.7 -34.5 9.8 -34.7 9.9 -35.45 10.55 -36.0 9.1" fill="#dec696" fill-rule="evenodd" stroke="none"/>
      <path d="M10.5 -24.65 Q10.85 -26.45 10.3 -28.2 9.55 -30.8 7.45 -31.7 L3.35 -31.45 3.35 -29.65 M3.35 -31.45 L2.95 -33.05 Q1.95 -35.95 -0.55 -37.0 -3.1 -38.1 -5.65 -36.75 L-7.25 -35.65 -7.35 -35.6 -7.45 -35.45 Q-8.65 -34.3 -9.3 -32.5 L-9.4 -32.3 -9.8 -30.75 M12.8 -19.0 L14.1 -19.4 16.1 -19.1 Q17.95 -18.3 18.6 -16.0 L18.9 -14.55 Q19.05 -15.5 18.95 -14.6 L18.95 -14.55 18.9 -13.45 18.4 -11.25 Q17.75 -9.5 16.55 -8.4 L16.4 -8.25 16.25 -8.2 15.45 -8.35 15.05 -8.4 M14.35 -20.5 L14.4 -20.5 Q14.5 -21.5 14.2 -22.45 13.75 -24.0 12.45 -24.55 L10.5 -24.65 9.75 -24.3 Q8.9 -23.8 8.35 -22.95 M8.6 25.25 L8.75 25.2 Q9.95 24.25 10.85 22.2 L11.15 21.35 11.6 19.95 11.6 19.75 11.65 19.5 11.9 16.45 13.15 14.4 13.45 13.55 13.65 13.05 13.7 12.95 14.1 11.4 15.8 10.85 17.0 9.5 17.4 8.75 Q18.1 6.9 17.3 5.1 L16.65 4.05 16.45 3.75 16.35 3.65 16.3 3.65 16.1 3.45 16.0 3.4 14.95 2.55 Q18.35 4.85 20.05 -1.25 L20.15 -3.45 19.8 -4.8 Q19.25 -6.2 18.25 -7.1 L16.85 -8.0 16.45 -8.15 16.25 -8.2 M-0.25 32.2 L0.55 32.95 Q2.3 34.0 4.4 32.4 6.5 30.8 7.85 27.55 L8.55 25.3 8.6 25.2 M-7.3 -35.65 L-7.45 -35.75 Q-9.25 -36.55 -11.2 -35.25 L-12.15 -34.5 -12.3 -34.35 Q-13.3 -33.3 -13.95 -31.8 L-13.1 -31.55 -12.55 -31.2 -12.0 -30.8 M-16.6 -32.15 L-17.1 -31.8 Q-18.05 -30.95 -18.6 -29.6 L-18.7 -29.1 -19.05 -27.75 -19.1 -27.2 -19.1 -27.0 -19.1 -26.65 -19.15 -25.9 -19.1 -25.4 M-13.95 -31.8 L-15.8 -32.2 -15.9 -32.2 -16.6 -32.15 -16.15 -32.4 M-19.6 -27.65 L-19.3 -27.3 -19.2 -27.1 -19.1 -27.0 M-18.7 -29.1 L-19.6 -27.65 Q-20.4 -28.7 -21.55 -29.15 L-23.2 -29.5 -24.0 -29.4 -25.0 -28.85 Q-26.6 -27.65 -26.9 -25.25 -27.1 -24.05 -26.9 -22.85 L-26.5 -21.25 M-27.75 -23.0 Q-28.5 -23.0 -29.15 -22.55 -30.2 -21.75 -30.45 -20.05 -30.65 -18.8 -30.3 -17.7 L-29.95 -16.8 Q-29.5 -15.85 -28.85 -15.2 M-30.3 -17.7 Q-31.65 -17.8 -32.85 -16.95 -34.6 -15.65 -35.0 -12.9 -35.4 -10.3 -34.35 -7.9 L-33.05 -8.2 M-34.35 -7.9 L-35.5 -7.2 Q-37.4 -5.55 -37.9 -2.3 -38.4 0.95 -37.15 3.9 L-36.4 5.4 M-37.2 6.05 L-37.15 7.2 Q-36.9 8.35 -36.1 9.0 L-36.0 9.1 -34.9 9.6 -34.6 9.65 -34.4 9.7 -33.65 9.75 -33.6 9.75 -33.25 9.7 M-36.0 9.1 L-35.45 10.55 -34.7 9.9 -34.5 9.8 -34.4 9.7 M-35.45 10.55 L-36.95 12.55 Q-37.6 13.55 -37.9 14.5 L-38.15 15.5 -38.15 15.55 -38.15 16.75 Q-37.9 18.6 -36.25 19.05 -35.45 19.3 -34.45 19.05 L-33.3 18.65 M-34.9 20.05 Q-35.25 20.9 -35.15 21.7 -35.0 23.0 -33.85 23.3 L-32.0 23.2 -31.25 22.75 -29.6 21.4 M-26.45 28.1 L-26.4 29.45 Q-25.95 31.75 -23.75 32.4 L-20.55 32.25 -18.9 31.5 -17.7 30.8 -17.7 32.05 -17.3 34.05 -16.95 34.95 -16.85 35.2 -16.85 35.0 -16.9 34.9 -16.85 34.95 -16.85 35.0 -16.65 35.2 -16.2 35.6 Q-14.95 36.5 -13.4 35.35 L-13.15 35.2 -11.95 33.8 -11.15 32.35 M-32.0 23.2 Q-32.65 24.75 -32.5 26.2 -32.25 28.3 -30.35 28.85 -28.65 29.3 -26.45 28.1 L-26.15 26.55 M-7.6 34.1 L-7.2 33.2 Q-6.8 32.05 -6.7 30.95 M-11.75 34.75 L-11.7 34.8 -11.55 35.2 -10.9 35.95 Q-10.05 36.6 -8.95 35.8 L-8.3 35.2 -7.6 34.1 -7.2 35.2 -6.2 36.4 Q-4.75 37.45 -3.0 36.1 L-2.0 35.2 Q-1.0 34.0 -0.25 32.2 L-0.9 31.0" ffdec:has-small-stroke="true" ffdec:original-stroke-width="0.5" fill="none" stroke="#423213" stroke-linecap="round" stroke-linejoin="round" stroke-opacity="0.5019608" stroke-width="3.542869499405341"/>
      <path d="M-0.25 -6.0 L0.75 -3.65 0.9 -3.3 Q1.7 -0.7 1.8 2.1 1.85 4.6 1.3 7.35 -0.05 14.45 -4.85 19.0 L-5.35 19.45 -5.45 19.5 -9.0 21.95 -9.3 22.1 -11.1 22.75" ffdec:has-small-stroke="true" ffdec:original-stroke-width="0.05" fill="none" stroke="#7f7f7f" stroke-linecap="round" stroke-linejoin="round" stroke-opacity="0.48235294" stroke-width="3.542869499405341"/>
      <path d="M-7.4 -12.8 Q-3.0 -11.15 -0.4 -6.3 L-0.25 -6.0" ffdec:has-small-stroke="true" ffdec:original-stroke-width="0.05" fill="none" stroke="#7f7f7f" stroke-linecap="round" stroke-linejoin="round" stroke-opacity="0.68235296" stroke-width="3.542869499405341"/>
      <path d="M-27.2 13.2 L-27.8 11.05 -28.2 7.7 Q-28.3 5.1 -27.75 2.3 -26.6 -3.9 -22.75 -8.15 L-22.15 -8.8 -21.0 -9.85 Q-15.75 -14.45 -9.7 -13.45 L-7.4 -12.8" ffdec:has-small-stroke="true" ffdec:original-stroke-width="0.05" fill="none" stroke="#464d46" stroke-linecap="round" stroke-linejoin="round" stroke-width="3.542869499405341"/>
      <path d="M-12.8 23.15 L-14.05 23.3 -14.45 23.3 -16.75 23.05 Q-18.8 22.75 -20.55 21.8 L-22.6 20.4 Q-24.1 19.1 -25.3 17.2 L-25.95 16.05 -26.05 15.95 -27.2 13.2" ffdec:has-small-stroke="true" ffdec:original-stroke-width="0.05" fill="none" stroke="#7f7f7f" stroke-linecap="round" stroke-linejoin="round" stroke-opacity="0.5921569" stroke-width="3.542869499405341"/>
      <path d="M-11.1 22.75 L-12.8 23.15" ffdec:has-small-stroke="true" ffdec:original-stroke-width="0.05" fill="none" stroke="#7f7f7f" stroke-linecap="round" stroke-linejoin="round" stroke-opacity="0.9019608" stroke-width="3.542869499405341"/>
      <path d="M14.5 -14.1 L15.95 -15.65 Q16.3 -15.5 17.15 -16.15 L20.4 -16.4 26.35 -14.4 28.15 -14.15 Q30.8 -16.75 32.25 -19.45 36.65 -27.25 36.15 -17.9 36.15 -14.65 35.6 -11.6 35.35 -11.95 34.7 -9.8 33.95 -7.65 32.7 -5.95 31.45 -4.2 28.25 -5.2 25.05 -6.2 22.8 -7.15 L19.1 -8.7 18.5 -8.85 Q17.25 -11.95 14.5 -14.1 M35.7 -19.2 L35.65 -21.8 35.3 -22.3 Q35.0 -22.3 34.7 -21.95 L34.2 -21.05 Q34.0 -20.5 34.1 -20.05 L34.55 -18.3 Q34.95 -16.95 35.3 -17.0 35.6 -17.0 35.7 -19.2" fill="#5f829a" fill-rule="evenodd" stroke="none"/>
      <path d="M15.8 -10.45 L14.6 -13.55 14.35 -13.9 14.5 -14.1 Q17.25 -11.95 18.5 -8.85 L19.1 -8.7 22.8 -7.15 Q25.05 -6.2 28.25 -5.2 31.45 -4.2 32.7 -5.95 33.95 -7.65 34.7 -9.8 35.35 -11.95 35.6 -11.6 35.1 -9.0 34.15 -6.55 L34.2 -6.55 33.7 -5.35 Q32.6 -2.3 29.85 -1.8 L27.7 -1.75 27.7 -1.7 26.75 -1.95 16.45 -4.35 16.25 -4.35 Q16.6 -7.05 16.0 -9.65 L15.65 -9.7 15.8 -10.45" fill="#425a68" fill-rule="evenodd" stroke="none"/>
      <path d="M35.7 -19.2 Q35.6 -17.0 35.3 -17.0 34.95 -16.95 34.55 -18.3 L34.1 -20.05 Q34.0 -20.5 34.2 -21.05 L34.7 -21.95 Q35.0 -22.3 35.3 -22.3 L35.65 -21.8 35.7 -19.2" fill="#82c4cc" fill-rule="evenodd" stroke="none"/>
      <path d="M15.8 -10.45 L14.6 -13.55 14.35 -13.9 14.5 -14.1 15.95 -15.65 Q16.3 -15.5 17.15 -16.15 L20.4 -16.4 26.35 -14.4 28.15 -14.15 Q30.8 -16.75 32.25 -19.45 36.65 -27.25 36.15 -17.9 36.15 -14.65 35.6 -11.6 35.1 -9.0 34.15 -6.55 M33.7 -5.35 Q32.6 -2.3 29.85 -1.8 L27.7 -1.75 27.7 -1.7 26.75 -1.95 M16.25 -4.35 Q16.6 -7.05 16.0 -9.65" ffdec:has-small-stroke="true" ffdec:original-stroke-width="0.5" fill="none" stroke="#423213" stroke-linecap="round" stroke-linejoin="round" stroke-opacity="0.5019608" stroke-width="3.542869499405341"/>
      <path d="M-14.75 -20.7 Q-14.5 -21.75 -13.75 -22.35 -13.05 -22.95 -12.35 -22.75 -11.65 -22.55 -11.35 -21.65 -11.1 -20.8 -11.35 -19.75 -11.65 -18.7 -12.35 -18.1 -13.05 -17.5 -13.75 -17.7 -14.45 -17.9 -14.75 -18.8 -15.05 -19.65 -14.75 -20.7" fill="#000000" fill-rule="evenodd" stroke="none"/>
      <path d="M1.5 -17.0 Q1.75 -16.15 1.5 -15.1 1.2 -14.05 0.5 -13.45 -0.2 -12.85 -0.9 -13.05 -1.6 -13.25 -1.9 -14.15 -2.2 -15.0 -1.9 -16.05 -1.65 -17.1 -0.9 -17.7 -0.2 -18.3 0.5 -18.1 1.2 -17.9 1.5 -17.0" fill="#000000" fill-rule="evenodd" stroke="none"/>
      <path d="M-14.95 -26.2 Q-13.3 -26.05 -12.25 -24.5 -11.2 -22.9 -11.35 -20.9 -11.5 -19.0 -12.65 -17.7 -12.0 -18.7 -11.9 -20.0 -11.75 -21.75 -12.65 -23.1 -13.6 -24.45 -15.05 -24.6 -16.5 -24.75 -17.6 -23.6 -18.75 -22.4 -18.85 -20.65 -19.05 -18.95 -18.15 -17.7 L-18.5 -18.05 Q-19.55 -19.65 -19.35 -21.7 -19.2 -23.7 -17.95 -25.0 -16.6 -26.35 -14.95 -26.2" fill="#000000" fill-rule="evenodd" stroke="none"/>
      <path d="M3.7 -19.95 Q5.55 -19.65 6.65 -18.05 7.75 -16.45 7.4 -14.5 7.05 -12.65 5.45 -11.55 3.95 -10.5 2.15 -10.7 3.3 -10.8 4.4 -11.4 5.75 -12.45 6.05 -14.05 6.45 -15.75 5.45 -17.1 4.55 -18.5 2.8 -18.8 1.2 -19.15 -0.2 -18.1 -1.55 -17.25 -1.9 -15.7 L-1.8 -16.2 Q-1.45 -18.15 0.15 -19.25 1.75 -20.35 3.7 -19.95" fill="#000000" fill-rule="evenodd" stroke="none"/>
      <path d="M-31.7 -13.55 Q-30.8 -14.35 -29.55 -14.35 -28.3 -14.35 -27.4 -13.55 -26.5 -12.75 -26.5 -11.6 -26.5 -10.45 -27.4 -9.65 -28.3 -8.8 -29.55 -8.8 -30.8 -8.8 -31.7 -9.65 -32.6 -10.45 -32.6 -11.6 -32.6 -12.75 -31.7 -13.55" fill="#ff99cc" fill-opacity="0.5019608" fill-rule="evenodd" stroke="none"/>
      <path d="M12.25 -1.1 Q13.35 -0.05 13.35 1.35 13.35 2.8 12.25 3.8 11.15 4.8 9.6 4.8 8.05 4.8 6.95 3.8 5.85 2.8 5.85 1.35 5.85 -0.05 6.95 -1.1 8.05 -2.1 9.6 -2.1 11.15 -2.1 12.25 -1.1" fill="#ff99cc" fill-opacity="0.5019608" fill-rule="evenodd" stroke="none"/>
    </g>
  </defs>
</svg>
