<?xml version="1.0" encoding="UTF-8" standalone="no"?>
<svg xmlns:ffdec="https://www.free-decompiler.com/flash" xmlns:xlink="http://www.w3.org/1999/xlink" ffdec:objectType="frame" height="22.4px" width="26.65px" xmlns="http://www.w3.org/2000/svg">
  <g transform="matrix(1.0, 0.0, 0.0, 1.0, 13.35, 11.65)">
    <use ffdec:characterId="25" height="19.6" transform="matrix(1.0, 0.0, 0.0, 1.0, -11.05, -8.35)" width="24.05" xlink:href="#sprite0"/>
    <use ffdec:characterId="75" height="17.0" transform="matrix(0.9422, 0.0, 0.0, 1.1553, -10.55, -9.6)" width="28.35" xlink:href="#sprite1"/>
  </g>
  <defs>
    <g id="sprite0">
      <use ffdec:characterId="24" height="19.6" transform="matrix(1.0, 0.0, 0.0, 1.0, 0.0, 0.0)" width="24.05" xlink:href="#shape0"/>
    </g>
    <g id="shape0">
      <path d="M23.55 1.55 L23.55 19.1 0.4 19.1 0.4 1.55 23.55 1.55" fill="#443c42" fill-opacity="0.7019608" fill-rule="evenodd" stroke="none"/>
      <path d="M21.55 0.0 L21.9 0.0 22.0 6.8 21.55 6.8 21.55 0.0 21.55 6.8 21.55 16.75 0.35 16.75 0.35 0.0 21.55 0.0" fill="#f2ede2" fill-rule="evenodd" stroke="none"/>
      <path d="M21.55 0.0 L21.55 6.8 21.55 16.75 0.35 16.75 0.0 16.75 0.0 0.0 0.35 0.0 21.55 0.0 Z" fill="none" stroke="#cccc99" stroke-linecap="round" stroke-linejoin="round" stroke-width="1.0"/>
    </g>
    <g id="sprite1">
      <use ffdec:characterId="74" height="17.0" transform="matrix(1.0, 0.0, 0.0, 1.0, 0.0, 0.0)" width="28.35" xlink:href="#shape1"/>
    </g>
    <g id="shape1">
      <path d="M2.95 0.0 L4.8 2.25 4.8 13.8 2.0 13.8 2.0 2.4 2.95 0.0" fill="#874301" fill-rule="evenodd" stroke="none"/>
      <path d="M2.95 0.0 L2.0 2.4 2.0 13.8 4.8 13.8 4.8 2.25 2.95 0.0 Z" fill="none" stroke="#663300" stroke-linecap="round" stroke-linejoin="round" stroke-width="1.0"/>
      <path d="M17.75 0.0 L19.6 2.25 19.6 13.8 16.8 13.8 16.8 2.4 17.75 0.0" fill="#874301" fill-rule="evenodd" stroke="none"/>
      <path d="M17.75 0.0 L16.8 2.4 16.8 13.8 19.6 13.8 19.6 2.25 17.75 0.0 Z" fill="none" stroke="#663300" stroke-linecap="round" stroke-linejoin="round" stroke-width="1.0"/>
      <path d="M23.05 4.9 L23.55 7.5 -1.2 7.5 -0.95 4.9 23.05 4.9" fill="#874301" fill-rule="evenodd" stroke="none"/>
      <path d="M23.05 4.9 L-0.95 4.9 -1.2 7.5 23.55 7.5 23.05 4.9 Z" fill="none" stroke="#663300" stroke-linecap="round" stroke-linejoin="round" stroke-width="1.0"/>
      <path d="M9.3 13.75 L9.3 1.3 10.25 -1.3 12.1 1.15 12.1 13.75 9.3 13.75" fill="#874301" fill-rule="evenodd" stroke="none"/>
      <path d="M9.3 13.75 L12.1 13.75 12.1 1.15 10.25 -1.3 9.3 1.3 9.3 13.75 Z" fill="none" stroke="#663300" stroke-linecap="round" stroke-linejoin="round" stroke-width="1.0"/>
      <path d="M7.8 13.45 Q12.65 11.0 15.7 13.0 20.75 11.7 24.85 14.7 L-2.5 14.7 Q0.55 12.15 7.8 13.45" fill="#669900" fill-rule="evenodd" stroke="none"/>
      <path d="M7.8 13.45 Q0.55 12.15 -2.5 14.7 L24.85 14.7 Q20.75 11.7 15.7 13.0 12.65 11.0 7.8 13.45 Z" fill="none" stroke="#663300" stroke-linecap="round" stroke-linejoin="round" stroke-width="1.0"/>
    </g>
  </defs>
</svg>
