<?xml version="1.0" encoding="UTF-8" standalone="no"?>
<svg xmlns:ffdec="https://www.free-decompiler.com/flash" xmlns:xlink="http://www.w3.org/1999/xlink" ffdec:objectType="shape" height="82.4px" width="80.6px" xmlns="http://www.w3.org/2000/svg">
  <g transform="matrix(1.0, 0.0, 0.0, 1.0, 58.25, 74.25)">
    <path d="M1.1 -35.3 Q-2.2 -31.25 -4.15 -26.8 -6.75 -20.95 -7.05 -14.35 L-6.9 -14.55 -5.75 -15.65 -5.15 -15.8 -4.65 -15.8 -3.75 -15.6 Q-1.6 -17.1 0.9 -18.25 L1.1 -18.3 -2.25 -15.25 -1.9 -15.15 -1.4 -15.55 -1.15 -15.8 4.85 -16.05 9.9 -16.45 11.85 -17.05 15.85 -16.75 22.1 -16.1 22.35 -15.8 15.85 -15.35 12.25 -14.7 15.55 -14.25 15.85 -14.1 16.1 -13.8 15.85 -13.8 Q12.4 -14.1 9.05 -13.9 L7.35 -13.35 15.1 -12.1 15.35 -11.8 7.25 -12.4 6.6 -12.2 15.85 -10.1 21.05 -8.8 3.9 -8.8 3.9 -6.55 -3.7 -5.7 Q-6.55 3.05 -16.95 5.6 L-17.65 5.45 -21.15 8.15 -23.9 8.15 Q-22.0 6.2 -19.5 4.5 L-18.3 3.4 Q-22.5 5.6 -26.85 8.15 L-27.4 8.15 -17.4 0.2 -16.85 -0.2 -12.85 -3.1 Q-13.2 -3.6 -13.05 -4.35 L-13.35 -4.25 Q-12.95 -3.5 -15.1 -2.5 L-15.25 -2.4 Q-15.85 -1.7 -16.55 -1.65 L-27.7 8.15 -29.9 8.15 -20.0 -1.45 Q-26.25 1.5 -32.15 5.75 L-33.05 6.35 -35.65 7.2 -33.05 4.95 -27.8 0.6 Q-30.5 2.2 -33.05 4.1 L-38.05 8.15 -38.75 8.15 Q-36.1 5.1 -33.05 2.45 -29.95 -0.2 -26.5 -2.4 L-33.05 -1.15 -45.65 1.7 -33.05 -3.05 -25.8 -5.45 -26.3 -5.6 -33.05 -7.9 Q-36.95 -9.5 -37.3 -10.35 L-36.4 -10.3 -33.05 -10.35 Q-27.0 -10.3 -21.1 -8.95 L-20.15 -8.8 Q-19.4 -8.2 -18.55 -7.75 L-17.7 -7.2 Q-20.65 -12.0 -26.0 -14.8 -31.4 -17.65 -30.15 -18.55 -24.7 -16.55 -19.4 -13.8 L-18.15 -13.05 Q-17.7 -11.1 -16.75 -9.25 -16.15 -8.15 -15.95 -7.0 L-15.0 -6.7 -15.9 -8.55 -14.75 -12.4 Q-14.4 -20.8 -13.65 -29.05 -13.6 -29.55 -12.9 -29.3 -12.85 -24.25 -12.25 -19.4 -10.35 -24.0 -7.9 -28.3 L-9.5 -20.4 -9.1 -20.75 -8.15 -21.3 Q-7.25 -24.25 -5.9 -26.8 -3.35 -31.7 0.9 -35.25 L1.1 -35.3 M-11.3 -13.5 L-10.4 -9.4 -10.25 -9.6 Q-11.15 -11.75 -11.15 -14.05 L-11.3 -13.5 M-7.05 -9.85 L-7.05 -9.75 -6.25 -10.25 -6.5 -10.85 -7.05 -9.95 -7.05 -9.85" fill="#463526" fill-rule="evenodd" stroke="none"/>
    <path d="M-40.7 -46.75 L-37.65 -46.75 -37.65 -43.75 Q-37.45 -39.55 -36.3 -35.6 L-35.9 -34.2 -35.85 -34.15 -34.85 -31.55 -34.4 -30.65 Q-32.65 -26.85 -29.85 -23.35 -28.3 -21.35 -26.1 -20.3 -22.65 -18.6 -19.5 -16.5 L-22.6 -21.95 Q-24.25 -25.0 -27.4 -27.9 L-28.05 -28.55 -26.1 -27.7 -24.05 -26.3 Q-22.05 -25.4 -18.65 -19.85 -20.05 -27.5 -19.95 -35.1 L-17.75 -26.75 Q-16.9 -20.1 -13.3 -14.1 -9.7 -8.15 -5.25 1.8 L-11.4 -3.95 Q-17.15 -5.0 -22.15 -8.35 -25.1 -10.25 -27.4 -12.75 -29.25 -14.75 -30.7 -17.05 L-32.35 -19.6 -32.35 -21.45 Q-29.95 -18.25 -27.4 -15.65 -24.4 -12.65 -20.2 -10.2 -19.75 -12.45 -21.85 -14.15 L-24.3 -15.45 Q-30.65 -18.8 -34.45 -24.65 L-34.75 -24.6 Q-37.1 -29.35 -40.4 -33.85 L-41.4 -35.1 -41.4 -35.4 Q-46.1 -38.75 -51.9 -39.7 -57.85 -34.7 -56.35 -27.85 L-57.9 -27.55 Q-59.15 -32.2 -56.2 -37.15 -54.6 -39.85 -51.75 -41.55 -45.8 -40.75 -41.4 -37.8 -40.05 -36.75 -39.55 -37.45 -40.65 -42.2 -40.7 -46.75" fill="#463526" fill-rule="evenodd" stroke="none"/>
    <path d="M-40.7 -46.75 Q-40.8 -53.2 -38.9 -59.35 -36.5 -67.05 -31.0 -74.25 L-24.1 -73.55 Q-23.1 -70.45 -21.55 -67.25 -20.85 -65.8 -19.65 -64.75 L-17.7 -62.75 Q-15.15 -59.65 -15.3 -56.05 -17.5 -53.2 -21.1 -52.65 -26.6 -51.5 -30.25 -55.5 -28.7 -56.7 -26.5 -57.15 L-17.25 -57.5 -22.5 -63.75 -25.85 -70.9 -31.75 -70.5 -34.7 -62.75 -34.9 -62.1 Q-36.6 -56.5 -37.35 -50.6 L-37.65 -46.75 -40.7 -46.75 M-56.35 -27.85 L-55.9 -26.25 Q-55.2 -24.1 -53.9 -22.95 -52.0 -21.3 -48.9 -21.9 -47.75 -22.15 -46.85 -22.8 L-47.9 -20.45 Q-51.55 -18.15 -54.95 -22.2 L-55.35 -22.7 Q-57.25 -25.1 -57.9 -27.55 L-56.35 -27.85" fill="#996600" fill-rule="evenodd" stroke="none"/>
  </g>
</svg>
