<?xml version="1.0" encoding="UTF-8" standalone="no"?>
<svg xmlns:ffdec="https://www.free-decompiler.com/flash" xmlns:xlink="http://www.w3.org/1999/xlink" ffdec:objectType="shape" height="104.45px" width="87.5px" xmlns="http://www.w3.org/2000/svg">
  <g transform="matrix(1.0, 0.0, 0.0, 1.0, -236.95, -151.0)">
    <path d="M322.15 220.5 L322.2 221.5 321.85 220.5 322.15 220.5 M303.0 212.05 L303.2 212.0 303.1 212.15 303.0 212.05 M303.0 229.05 L303.2 229.0 303.1 229.15 303.0 229.05" fill="#463526" fill-rule="evenodd" stroke="none"/>
    <path d="M321.85 220.5 L322.15 220.5 321.85 220.5" fill="#996600" fill-rule="evenodd" stroke="none"/>
    <path d="M317.2 235.2 L317.45 235.5 317.2 235.5 317.2 235.2" fill="#f1f876" fill-rule="evenodd" stroke="none"/>
    <path d="M242.3 223.5 L240.2 225.75 239.25 229.35 243.7 235.05 248.15 234.0 249.15 231.4 250.75 231.9 251.0 232.55 Q251.2 233.8 250.45 235.15 249.45 236.95 247.7 238.25 244.25 238.6 241.5 236.75 238.6 234.65 236.95 231.5 237.0 227.65 238.6 224.4 L239.05 223.5 242.3 223.5 M239.25 178.5 Q239.15 172.05 241.05 165.9 243.45 158.2 248.95 151.0 L255.85 151.7 Q256.85 154.8 258.4 158.0 259.1 159.45 260.3 160.5 L262.25 162.5 Q264.8 165.6 264.65 169.2 262.45 172.05 258.85 172.6 253.35 173.75 249.7 169.75 251.25 168.55 253.45 168.1 L262.7 167.75 257.45 161.5 254.1 154.35 248.2 154.75 Q246.5 158.55 245.25 162.5 L245.05 163.15 Q243.35 168.75 242.6 174.65 L242.3 178.5 239.25 178.5 M319.95 185.5 Q319.6 190.3 316.7 195.3 311.7 204.05 301.7 200.25 L299.4 204.9 303.2 207.5 Q313.1 204.3 321.45 210.25 L322.15 220.5 321.85 220.5 318.45 211.25 302.2 210.5 296.95 206.0 296.7 202.25 302.2 196.25 Q304.2 197.6 306.75 197.65 315.7 197.75 317.0 188.3 L317.25 185.5 319.95 185.5" fill="#83521d" fill-rule="evenodd" stroke="none"/>
    <path d="M303.1 229.15 L300.05 231.95 299.85 232.05 300.2 232.15 300.7 231.75 300.95 231.5 306.95 231.25 312.0 230.85 313.95 230.25 324.2 231.2 324.45 231.5 Q319.25 231.5 314.35 232.6 L317.65 233.05 318.2 233.5 Q314.65 233.2 311.15 233.4 L309.45 233.95 317.2 235.2 317.2 235.5 309.35 234.9 308.7 235.1 323.15 238.5 306.0 238.5 306.0 240.75 298.4 241.6 Q295.55 250.35 285.15 252.9 L284.45 252.75 280.95 255.45 278.2 255.45 Q280.1 253.5 282.6 251.8 L283.8 250.7 Q279.6 252.9 275.25 255.45 L274.7 255.45 284.7 247.5 Q284.95 247.25 285.25 247.1 L287.75 245.25 287.2 244.75 287.0 244.8 286.85 244.9 Q286.25 245.6 285.55 245.65 279.9 250.3 274.55 255.3 L274.4 255.45 272.2 255.45 282.1 245.85 Q275.85 248.8 269.95 253.05 268.35 254.2 266.45 254.5 L274.3 247.9 Q268.9 251.15 264.05 255.45 L263.35 255.45 Q268.75 249.25 275.6 244.9 265.8 246.7 256.45 249.0 266.2 245.0 275.9 242.0 L276.3 241.85 275.8 241.7 Q265.35 238.4 264.8 236.95 L265.7 237.0 Q269.15 236.85 272.55 237.1 268.45 234.0 265.75 229.65 261.55 222.9 256.2 217.0 254.3 217.05 252.6 217.6 246.75 219.2 242.3 223.5 L239.05 223.5 Q244.85 212.7 256.95 213.5 263.7 222.7 271.8 230.4 270.85 229.45 271.95 228.75 L277.2 230.85 277.3 230.9 277.2 230.75 Q269.55 216.95 255.65 209.8 246.1 204.75 242.25 194.1 239.35 186.1 239.25 178.5 L242.3 178.5 242.3 181.5 Q242.8 192.75 250.1 201.9 251.65 203.9 253.85 204.95 268.95 212.45 277.8 226.85 274.7 209.65 278.95 192.7 284.35 171.1 305.45 164.25 310.65 166.15 314.15 170.15 320.55 177.5 319.95 185.5 L317.25 185.5 Q317.6 173.7 306.2 167.25 295.95 171.0 288.8 179.0 286.65 181.35 285.25 184.2 274.9 205.55 283.1 228.4 L286.55 237.5 287.35 234.9 Q287.7 226.5 288.45 218.25 288.5 217.75 289.2 218.0 289.25 223.05 289.85 227.9 291.75 223.3 294.2 219.0 L292.6 226.9 293.0 226.55 293.95 226.0 Q294.85 223.05 296.2 220.5 298.75 215.6 303.0 212.05 L303.1 212.15 Q299.85 216.1 297.95 220.5 295.35 226.25 295.05 232.75 L295.05 232.95 295.2 232.75 296.35 231.65 296.95 231.5 297.45 231.5 298.35 231.7 Q300.5 230.2 303.0 229.05 L303.1 229.15 M290.8 233.8 L291.7 237.9 291.85 237.7 Q290.95 235.55 290.95 233.25 L290.8 233.8 M289.05 242.95 L288.8 243.0 289.0 243.45 289.05 242.95 M295.6 236.45 L295.05 237.35 295.05 237.45 295.05 237.55 295.85 237.05 295.6 236.45 M272.0 230.6 Q276.35 234.7 281.1 238.4 L281.95 238.5 282.45 238.85 282.15 238.3 282.0 238.0 Q277.65 234.35 272.55 231.0 L272.0 230.6" fill="#f2bf24" fill-rule="evenodd" stroke="none"/>
  </g>
</svg>
