<?xml version="1.0" encoding="UTF-8" standalone="no"?>
<svg xmlns:ffdec="https://www.free-decompiler.com/flash" xmlns:xlink="http://www.w3.org/1999/xlink" ffdec:objectType="shape" height="40.55px" width="49.2px" xmlns="http://www.w3.org/2000/svg">
  <g transform="matrix(1.0, 0.0, 0.0, 1.0, -5.0, 1.4)">
    <path d="M23.4 5.55 L33.45 7.65 40.95 12.65 41.4 13.35 41.35 12.85 44.2 14.2 44.7 15.6 Q46.25 19.65 50.65 21.4 52.55 22.4 54.2 23.75 52.2 27.7 49.2 30.65 L36.7 33.05 35.95 32.25 41.55 29.85 28.85 27.5 16.55 19.35 16.3 18.95 11.75 11.65 21.0 17.5 27.2 18.15 26.75 17.9 39.35 19.75 11.5 8.15 5.0 4.0 5.55 2.0 6.55 -1.4 10.7 0.05 17.45 4.1 17.75 4.3 17.95 4.4 21.55 5.15 23.4 5.55 24.4 5.95 31.6 9.05 24.4 5.95 23.4 5.55 M48.4 31.45 Q45.0 34.5 40.45 36.45 L40.1 36.55 39.45 35.85 48.4 31.45 M20.85 5.75 L30.0 9.95 24.4 5.95 30.0 9.95 35.35 13.8 30.0 9.95 20.85 5.75 M12.5 1.85 L17.45 4.1 12.5 1.85 M18.55 7.85 L25.5 11.4 18.55 7.85 M5.55 2.0 L20.8 10.0 5.55 2.0 M30.5 21.85 L41.65 22.25 30.5 21.85 M34.95 25.4 L49.8 24.4 34.95 25.4" fill="#e89646" fill-rule="evenodd" stroke="none"/>
    <path d="M41.35 12.85 L41.25 12.35 40.05 5.8 40.0 4.75 Q41.9 6.65 42.25 9.45 L44.2 14.2 41.35 12.85 M49.2 30.65 L48.4 31.45 39.45 35.85 40.1 36.55 32.9 38.8 30.4 39.15 28.05 37.25 33.5 34.3 24.65 32.2 16.55 19.35 28.85 27.5 41.55 29.85 35.95 32.25 36.7 33.05 49.2 30.65 M26.75 17.9 L26.75 17.85 11.5 8.15 39.35 19.75 26.75 17.9" fill="#b85f1d" fill-rule="evenodd" stroke="none"/>
    <path d="M40.95 12.65 L33.45 7.65 23.4 5.55 21.55 5.15 17.95 4.4 17.75 4.3 17.45 4.1 10.7 0.05 19.05 2.9 36.0 4.85 40.95 12.65" fill="#fadd7e" fill-rule="evenodd" stroke="none"/>
    <path d="M41.4 13.35 L41.35 12.85 41.25 12.35 M41.4 13.35 L40.95 12.65 36.0 4.85 19.05 2.9 10.7 0.05 6.55 -1.4 5.55 2.0 5.0 4.0 11.5 8.15 26.75 17.85 M30.4 39.15 L28.05 37.25 33.5 34.3 24.65 32.2 16.55 19.35 M16.3 18.95 L11.75 11.65 21.0 17.5 27.2 18.15 M40.05 5.8 L40.0 4.75 M17.45 4.1 L12.5 1.85" ffdec:has-small-stroke="true" ffdec:original-stroke-width="0.05" fill="none" stroke="#000000" stroke-linecap="round" stroke-linejoin="round" stroke-opacity="0.37254903" stroke-width="1.0"/>
    <path d="M41.25 12.35 L41.4 13.35 M40.05 5.8 L41.25 12.35" ffdec:has-small-stroke="true" ffdec:original-stroke-width="0.05" fill="none" stroke="#42341e" stroke-linecap="round" stroke-linejoin="round" stroke-width="1.0"/>
    <path d="M23.4 5.55 L24.4 5.95 31.6 9.05 M21.55 5.15 L23.4 5.55 M24.4 5.95 L30.0 9.95 35.35 13.8 M30.0 9.95 L20.85 5.75 M25.5 11.4 L18.55 7.85 M49.8 24.4 L34.95 25.4 M41.65 22.25 L30.5 21.85" ffdec:has-small-stroke="true" ffdec:original-stroke-width="0.05" fill="none" stroke="#f0b95e" stroke-linecap="round" stroke-linejoin="round" stroke-width="1.0"/>
    <path d="M20.8 10.0 L5.55 2.0" ffdec:has-small-stroke="true" ffdec:original-stroke-width="0.05" fill="none" stroke="#e28121" stroke-linecap="round" stroke-linejoin="round" stroke-width="1.0"/>
  </g>
</svg>
