<?xml version="1.0" encoding="UTF-8" standalone="no"?>
<svg xmlns:ffdec="https://www.free-decompiler.com/flash" xmlns:xlink="http://www.w3.org/1999/xlink" ffdec:objectType="shape" height="41.7px" width="48.1px" xmlns="http://www.w3.org/2000/svg">
  <g transform="matrix(1.0, 0.0, 0.0, 1.0, -274.65, -187.8)">
    <path d="M287.65 208.7 L287.7 208.6 287.65 209.25 287.65 209.15 287.65 208.95 287.65 208.75 287.65 208.7" fill="#fffdea" fill-rule="evenodd" stroke="none"/>
    <path d="M308.6 199.1 L308.65 200.3 308.4 200.25 308.6 199.1" fill="#996600" fill-rule="evenodd" stroke="none"/>
    <path d="M293.6 214.9 L293.15 215.85 293.1 215.65 293.6 214.9" fill="#d0b45e" fill-rule="evenodd" stroke="none"/>
    <path d="M287.65 208.7 Q288.55 198.1 283.55 195.15 289.2 195.4 291.9 207.2 L291.75 205.4 Q291.5 203.15 294.2 198.45 292.5 203.3 293.65 205.8 294.15 206.95 294.85 207.45 295.2 207.65 295.5 206.95 295.75 206.2 296.1 207.15 L296.1 207.2 296.25 207.5 296.1 207.15 Q295.95 206.5 296.15 206.05 296.3 205.55 296.55 205.55 L296.9 205.15 Q296.95 204.7 297.15 204.55 297.05 204.2 297.65 203.65 298.25 203.1 295.35 199.0 297.3 199.9 298.15 201.35 L299.45 203.55 300.05 204.85 Q300.2 205.35 300.15 204.95 L299.75 202.1 299.7 201.9 299.9 202.0 300.05 202.25 300.2 202.6 299.25 198.25 Q298.6 195.25 300.8 194.9 299.75 195.15 300.1 196.9 300.4 198.6 301.95 198.3 303.45 198.0 303.5 187.8 304.6 188.7 304.8 199.0 L304.65 200.3 304.55 201.65 304.8 206.2 304.3 204.2 304.85 207.95 306.55 206.85 306.8 206.45 306.8 201.45 305.6 204.95 305.0 200.9 305.4 200.3 305.7 200.1 306.8 197.35 Q307.85 194.9 309.0 194.2 313.15 191.3 320.1 199.45 312.6 193.45 310.5 196.35 308.25 199.45 311.9 206.75 L311.9 206.8 312.8 208.4 313.4 211.8 312.35 211.0 313.05 213.05 310.5 210.85 312.0 214.9 310.8 214.65 311.35 216.55 309.6 215.25 310.3 218.0 308.25 214.95 307.9 216.9 306.5 212.6 305.45 216.0 304.8 217.05 305.15 214.8 305.2 214.6 305.1 214.2 304.25 210.2 303.15 213.5 301.8 207.9 300.6 216.3 299.4 211.95 299.3 214.5 297.7 209.45 297.15 214.5 296.3 210.35 293.6 214.9 294.05 212.35 290.85 216.4 291.3 214.35 287.7 217.85 288.15 215.7 284.9 219.0 285.7 216.75 284.15 218.0 284.6 216.5 282.85 218.15 284.05 214.95 282.55 217.0 282.7 214.05 281.75 215.9 281.15 215.75 Q280.55 208.35 277.05 211.1 L279.3 207.7 Q283.45 205.1 285.0 209.35 284.1 199.95 280.75 201.9 284.05 199.15 284.75 202.95 285.5 206.75 286.2 208.55 L287.2 210.55 287.65 209.15 287.65 209.25 287.7 208.6 287.65 208.7 M308.6 199.1 L308.4 200.25 308.65 200.3 308.6 199.1 M307.05 219.75 L306.85 220.7 305.0 221.75 305.3 218.9 305.6 219.85 306.35 219.1 306.2 220.2 307.05 219.75 M291.05 212.35 L292.0 211.65 292.45 209.05 291.5 211.25 290.4 208.35 291.05 212.35 M288.3 213.2 L288.95 210.45 288.05 213.05 285.75 210.55 286.85 212.9 282.1 210.1 284.4 212.55 288.25 214.4 288.3 213.4 288.3 213.2 M286.75 220.7 L286.1 221.15 285.35 220.0 286.75 220.7 287.35 219.15 287.25 220.35 286.75 220.7 M297.15 219.5 L298.55 217.4 297.55 221.3 294.9 219.1 294.3 218.5 297.15 219.5" fill="#edd3b1" fill-rule="evenodd" stroke="none"/>
    <path d="M281.75 215.9 L282.7 214.05 282.55 217.0 284.05 214.95 282.85 218.15 284.6 216.5 284.15 218.0 285.7 216.75 284.9 219.0 288.15 215.7 287.7 217.85 291.3 214.35 290.85 216.4 294.05 212.35 293.6 214.9 296.3 210.35 297.15 214.5 297.7 209.45 299.3 214.5 299.4 211.95 300.6 216.3 301.8 207.9 303.15 213.5 304.25 210.2 305.1 214.2 305.15 214.8 304.8 217.05 305.45 216.0 306.5 212.6 307.9 216.9 308.25 214.95 310.3 218.0 309.6 215.25 311.35 216.55 310.8 214.65 312.0 214.9 310.5 210.85 313.05 213.05 312.35 211.0 313.4 211.8 312.8 208.4 314.8 212.2 Q317.45 209.3 320.6 213.35 316.4 210.4 315.7 215.25 318.45 215.25 322.75 217.4 314.35 214.8 313.6 219.0 315.6 219.2 320.45 223.2 311.65 219.15 312.8 221.35 313.9 223.5 311.6 226.55 312.75 222.25 309.7 221.75 310.25 224.8 307.7 227.8 307.5 225.0 304.55 223.35 305.2 225.4 303.6 227.8 303.9 225.0 301.05 222.15 300.7 225.35 298.4 227.8 297.5 223.2 295.15 222.45 291.8 222.05 290.95 229.5 288.35 224.75 290.45 222.0 284.3 223.1 282.7 227.0 282.25 222.65 283.8 223.5 280.55 219.45 277.55 224.1 277.7 220.25 280.45 219.6 278.25 218.05 274.65 221.55 277.75 217.55 282.35 218.15 L281.85 215.9 281.75 215.9 M305.0 200.9 L305.6 204.95 306.8 201.45 306.8 206.45 306.55 206.85 304.85 207.95 304.3 204.2 304.8 206.2 304.55 201.65 304.65 200.3 305.0 200.9 M307.05 219.75 L306.2 220.2 306.35 219.1 305.6 219.85 305.3 218.9 305.0 221.75 306.85 220.7 307.05 219.75 M291.05 212.35 L290.4 208.35 291.5 211.25 292.45 209.05 292.0 211.65 291.05 212.35 M293.6 214.9 L293.1 215.65 293.15 215.85 293.6 214.9 M288.3 213.2 L288.3 213.4 288.25 214.4 284.4 212.55 282.1 210.1 286.85 212.9 285.75 210.55 288.05 213.05 288.95 210.45 288.3 213.2 M286.75 220.7 L285.35 220.0 286.1 221.15 286.75 220.7 287.25 220.35 287.35 219.15 286.75 220.7 M297.15 219.5 L294.3 218.5 294.9 219.1 297.55 221.3 298.55 217.4 297.15 219.5" fill="#ac7644" fill-rule="evenodd" stroke="none"/>
    <path d="M312.8 208.4 L314.8 212.2 Q317.45 209.3 320.6 213.35 316.4 210.4 315.7 215.25 318.45 215.25 322.75 217.4 314.35 214.8 313.6 219.0 315.6 219.2 320.45 223.2 311.65 219.15 312.8 221.35 313.9 223.5 311.6 226.55 312.75 222.25 309.7 221.75 310.25 224.8 307.7 227.8 307.5 225.0 304.55 223.35 305.2 225.4 303.6 227.8 303.9 225.0 301.05 222.15 300.7 225.35 298.4 227.8 297.5 223.2 295.15 222.45 291.8 222.05 290.95 229.5 288.35 224.75 290.45 222.0 284.3 223.1 282.7 227.0 282.25 222.65 283.8 223.5 280.55 219.45 277.55 224.1 277.7 220.25 280.45 219.6 278.25 218.05 274.65 221.55 277.75 217.55 282.35 218.15 L281.85 215.9 281.75 215.9" ffdec:has-small-stroke="true" ffdec:original-stroke-width="0.05" fill="none" stroke="#93603c" stroke-linecap="round" stroke-linejoin="round" stroke-opacity="0.73333335" stroke-width="1.0"/>
    <path d="M304.65 200.3 L304.8 199.0 Q304.6 188.7 303.5 187.8 303.45 198.0 301.95 198.3 300.4 198.6 300.1 196.9 299.75 195.15 300.8 194.9 298.6 195.25 299.25 198.25 L300.2 202.6 300.05 202.25 299.9 202.0 299.7 201.9 299.75 202.1 300.15 204.95 Q300.2 205.35 300.05 204.85 L299.45 203.55 298.15 201.35 Q297.3 199.9 295.35 199.0 298.25 203.1 297.65 203.65 297.05 204.2 297.15 204.55 296.95 204.7 296.9 205.15 L296.55 205.55 Q296.3 205.55 296.15 206.05 295.95 206.5 296.1 207.15 L296.25 207.5 296.1 207.2 296.1 207.15 Q295.75 206.2 295.5 206.95 295.2 207.65 294.85 207.45 294.15 206.95 293.65 205.8 292.5 203.3 294.2 198.45 291.5 203.15 291.75 205.4 L291.9 207.2 Q289.2 195.4 283.55 195.15 288.55 198.1 287.65 208.7 L287.7 208.6 287.65 209.25 287.65 209.15 287.2 210.55 286.2 208.55 Q285.5 206.75 284.75 202.95 284.05 199.15 280.75 201.9 284.1 199.95 285.0 209.35 283.45 205.1 279.3 207.7 L277.05 211.1 Q280.55 208.35 281.15 215.75 L281.75 215.9 282.7 214.05 282.55 217.0 284.05 214.95 282.85 218.15 284.6 216.5 284.15 218.0 285.7 216.75 284.9 219.0 288.15 215.7 287.7 217.85 291.3 214.35 290.85 216.4 294.05 212.35 293.6 214.9 296.3 210.35 297.15 214.5 297.7 209.45 299.3 214.5 299.4 211.95 300.6 216.3 301.8 207.9 303.15 213.5 304.25 210.2 305.1 214.2 305.2 214.6 305.15 214.8 304.8 217.05 305.45 216.0 306.5 212.6 307.9 216.9 308.25 214.95 310.3 218.0 309.6 215.25 311.35 216.55 310.8 214.65 312.0 214.9 310.5 210.85 313.05 213.05 312.35 211.0 313.4 211.8 312.8 208.4 311.9 206.8 311.9 206.75 Q308.25 199.45 310.5 196.35 312.6 193.45 320.1 199.45 313.15 191.3 309.0 194.2 307.85 194.9 306.8 197.35 L305.7 200.1 305.4 200.3 305.0 200.9 305.6 204.95 306.8 201.45 306.8 206.45 306.55 206.85 304.85 207.95 304.3 204.2 304.8 206.2 304.55 201.65 304.65 200.3 M308.6 199.1 L308.65 200.3 308.4 200.25 308.6 199.1 M291.05 212.35 L290.4 208.35 291.5 211.25 292.45 209.05 292.0 211.65 291.05 212.35 M288.3 213.2 L288.95 210.45 288.05 213.05 285.75 210.55 286.85 212.9 282.1 210.1 284.4 212.55 288.25 214.4 288.3 213.4 288.3 213.2 Z" ffdec:has-small-stroke="true" ffdec:original-stroke-width="0.05" fill="none" stroke="#c4a48c" stroke-linecap="round" stroke-linejoin="round" stroke-opacity="0.72156864" stroke-width="1.0"/>
  </g>
</svg>
