<?xml version="1.0" encoding="UTF-8" standalone="no"?>
<svg xmlns:ffdec="https://www.free-decompiler.com/flash" xmlns:xlink="http://www.w3.org/1999/xlink" ffdec:objectType="shape" height="50.15px" width="56.1px" xmlns="http://www.w3.org/2000/svg">
  <g transform="matrix(1.0, 0.0, 0.0, 1.0, -278.4, -185.15)">
    <path d="M317.95 207.25 Q318.9 212.6 320.25 217.7 L320.4 217.7 320.9 217.7 321.3 217.9 321.8 218.05 Q322.5 218.2 323.2 218.7 L322.7 218.85 322.1 219.35 320.9 220.35 321.2 220.5 322.6 220.7 323.2 220.85 326.25 222.0 328.1 222.3 Q328.85 222.3 329.35 223.3 L328.35 224.05 Q327.4 224.45 326.85 225.95 327.55 226.6 328.4 226.35 L329.45 226.1 Q329.9 226.0 329.8 226.95 328.6 226.85 327.5 227.35 327.3 227.4 327.15 227.6 326.6 228.05 326.7 229.25 L327.15 229.25 330.1 229.25 324.9 229.55 321.15 228.8 319.95 227.4 319.9 227.5 Q319.7 227.95 319.9 228.55 L319.4 228.45 318.85 227.25 317.9 225.1 317.35 223.65 317.35 225.1 Q316.55 223.95 315.95 222.3 L315.95 224.3 315.25 222.0 Q315.35 222.85 315.05 223.0 L314.7 221.65 314.6 221.25 314.6 221.85 Q314.5 222.25 314.25 221.5 313.8 220.4 313.6 218.75 L313.6 220.6 313.15 223.95 312.75 222.8 Q312.3 220.85 312.3 222.15 L312.25 222.25 311.4 219.7 311.3 220.85 310.25 218.55 310.1 220.5 309.1 219.05 308.95 220.0 308.05 218.2 307.95 219.7 306.7 216.55 306.45 219.35 306.35 219.05 305.65 216.9 305.75 219.85 305.65 219.7 Q305.1 218.95 304.85 217.2 L304.85 220.0 304.1 218.2 304.1 219.35 Q304.15 221.35 303.9 221.0 L303.6 220.2 Q302.9 219.75 302.45 218.55 L302.9 221.5 302.45 221.1 Q301.5 219.9 301.5 221.5 L301.55 221.65 Q301.2 221.9 300.95 221.35 300.7 221.1 301.1 222.15 L301.05 222.3 299.45 221.15 299.8 223.75 298.55 223.0 297.75 221.0 296.95 223.0 295.15 219.7 Q294.45 218.2 293.9 216.55 L293.3 214.75 296.85 216.05 296.2 212.8 293.6 211.15 291.75 205.4 291.45 200.95 293.65 205.8 Q294.15 206.95 294.85 207.45 295.2 207.65 295.5 206.95 295.75 206.2 296.1 207.15 L296.1 207.2 296.25 207.5 296.1 207.15 295.9 205.85 Q295.7 204.7 295.9 204.7 L296.85 204.8 297.15 204.55 296.95 203.9 296.45 202.15 296.2 201.35 Q297.15 203.3 298.35 204.55 L299.65 205.7 300.1 205.55 300.15 204.95 299.75 202.1 299.9 202.0 300.05 202.25 300.2 202.6 299.45 199.95 Q298.65 197.55 298.55 194.7 L299.0 195.9 299.7 197.75 Q300.25 199.45 300.95 198.65 L301.4 197.8 Q301.75 196.55 302.2 196.0 L302.5 196.9 Q302.8 197.7 303.1 197.0 L303.25 196.65 Q303.45 197.05 303.6 196.4 L304.15 194.35 304.5 195.35 305.1 197.65 305.25 197.3 305.5 195.65 Q305.6 194.75 306.0 194.7 L306.2 195.35 306.3 196.35 306.35 196.9 306.35 196.0 306.4 193.7 306.45 187.45 Q306.3 185.85 306.65 185.15 L306.9 189.1 Q308.25 199.45 311.9 206.75 L312.5 208.35 312.7 208.75 Q314.4 203.65 313.1 194.7 L313.85 194.7 Q314.4 202.35 313.95 208.7 L313.95 208.75 313.85 209.35 313.85 209.0 313.95 208.7 313.85 209.0 313.85 209.35 313.85 209.75 314.2 209.2 314.3 208.55 314.3 208.5 314.45 208.85 314.6 209.5 314.8 210.15 314.9 210.05 315.05 209.8 315.2 209.15 315.5 207.5 315.7 207.85 315.9 208.5 316.15 209.0 316.45 209.15 316.5 208.5 316.55 208.15 316.6 207.85 316.7 208.15 316.8 209.15 316.9 210.15 317.2 212.45 317.5 211.4 317.8 207.85 317.8 207.25 317.95 207.25 M313.1 209.35 L313.1 211.8 313.85 211.8 313.85 209.75 313.85 211.8 313.1 211.8 313.1 209.35 313.25 208.65 312.85 208.8 Q312.95 208.55 312.7 208.8 L312.7 208.75 312.7 208.8 312.65 208.85 312.7 208.8 312.7 208.85 312.75 208.9 312.8 209.0 313.1 209.35 M312.7 208.75 L312.65 208.85 312.7 208.85 312.65 208.85 312.7 208.75 M318.1 209.65 L318.1 212.05 318.05 213.35 318.0 213.6 Q317.75 214.35 317.75 215.25 L317.75 215.35 318.35 215.35 Q318.7 215.3 318.9 215.9 L319.0 216.65 319.05 216.8 319.25 217.45 319.15 216.15 319.0 215.65 318.5 212.8 318.2 210.3 318.1 209.65 M309.15 202.5 Q308.75 201.5 308.65 200.3 L308.6 199.1 308.2 201.45 308.2 201.65 308.3 202.9 308.3 203.25 308.35 203.55 Q308.6 205.2 309.2 206.35 L309.7 207.2 309.95 207.6 310.3 208.5 Q310.45 209.5 310.85 209.8 L311.0 209.8 311.45 209.3 311.7 208.6 311.3 207.6 310.95 206.95 310.85 206.7 310.35 205.4 Q310.05 204.95 309.9 204.3 L309.75 204.0 309.3 203.0 309.15 202.5" fill="#f5eed3" fill-rule="evenodd" stroke="none"/>
    <path d="M291.75 205.4 L293.6 211.15 296.2 212.8 296.85 216.05 293.3 214.75 293.9 216.55 Q294.45 218.2 295.15 219.7 L296.95 223.0 297.75 221.0 298.55 223.0 299.8 223.75 299.45 221.15 301.05 222.3 301.1 222.15 Q300.7 221.1 300.95 221.35 301.2 221.9 301.55 221.65 L301.5 221.5 Q301.5 219.9 302.45 221.1 L302.9 221.5 302.45 218.55 Q302.9 219.75 303.6 220.2 L303.9 221.0 Q304.15 221.35 304.1 219.35 L304.1 218.2 304.85 220.0 304.85 217.2 Q305.1 218.95 305.65 219.7 L305.75 219.85 305.65 216.9 306.35 219.05 306.45 219.35 306.7 216.55 307.95 219.7 308.05 218.2 308.95 220.0 309.1 219.05 310.1 220.5 310.25 218.55 311.3 220.85 311.4 219.7 312.25 222.25 312.3 222.15 Q312.3 220.85 312.75 222.8 L313.15 223.95 313.6 220.6 313.6 218.75 Q313.8 220.4 314.25 221.5 314.5 222.25 314.6 221.85 L314.6 221.25 314.7 221.65 315.05 223.0 Q315.35 222.85 315.25 222.0 L315.95 224.3 315.95 222.3 Q316.55 223.95 317.35 225.1 L317.35 223.65 317.9 225.1 318.85 227.25 319.4 228.45 319.9 228.55 Q319.7 227.95 319.9 227.5 L319.95 227.4 321.15 228.8 324.9 229.55 330.1 229.25 334.5 229.25 Q327.95 234.5 321.1 233.0 313.8 232.65 306.65 234.8 L306.65 235.15 306.55 235.15 Q302.6 235.05 298.6 235.25 288.85 235.7 279.8 231.05 L278.75 230.45 278.4 229.25 287.8 228.25 285.35 226.35 284.25 221.0 283.0 221.25 281.85 215.9 281.15 215.75 281.25 207.8 281.35 207.85 281.4 211.45 283.2 199.3 Q283.65 204.95 285.15 209.8 L285.5 205.55 285.65 206.95 Q285.95 208.9 286.7 209.9 L287.2 210.55 287.65 209.15 287.65 208.75 287.7 208.6 287.8 209.0 289.15 197.75 291.9 207.2 291.75 205.4 M309.15 202.5 L309.3 203.0 309.75 204.0 309.9 204.3 Q310.05 204.95 310.35 205.4 L310.85 206.7 310.95 206.95 311.3 207.6 311.7 208.6 311.45 209.3 311.0 209.8 310.85 209.8 Q310.45 209.5 310.3 208.5 L309.95 207.6 309.7 207.2 309.2 206.35 Q308.6 205.2 308.35 203.55 L308.3 203.25 308.3 202.9 308.2 201.65 308.2 201.45 308.6 199.1 308.65 200.3 Q308.75 201.5 309.15 202.5 M318.1 209.65 L318.2 210.3 318.5 212.8 319.0 215.65 319.15 216.15 319.25 217.45 319.05 216.8 319.0 216.65 318.9 215.9 Q318.7 215.3 318.35 215.35 L317.75 215.35 317.75 215.25 Q317.75 214.35 318.0 213.6 L318.05 213.35 318.1 212.05 318.1 209.65 M306.65 234.8 L306.55 235.15 306.65 234.8" fill="#fffdea" fill-rule="evenodd" stroke="none"/>
    <path d="M330.1 229.25 L327.15 229.25 326.7 229.25 Q326.6 228.05 327.15 227.6 327.3 227.4 327.5 227.35 328.6 226.85 329.8 226.95 329.9 226.0 329.45 226.1 L328.4 226.35 Q327.55 226.6 326.85 225.95 327.4 224.45 328.35 224.05 L329.35 223.3 Q328.85 222.3 328.1 222.3 L326.25 222.0 323.2 220.85 322.6 220.7 321.2 220.5 320.9 220.35 322.1 219.35 322.7 218.85 323.2 218.7 Q322.5 218.2 321.8 218.05 L321.3 217.9 320.9 217.7 320.4 217.7 320.25 217.7 Q318.9 212.6 317.95 207.25 L317.8 206.4 317.8 205.2 M317.8 207.25 L317.8 207.85 317.5 211.4 317.2 212.45 316.9 210.15 316.8 209.15 316.7 208.15 316.6 207.85 316.55 208.15 316.5 208.5 316.45 209.15 316.15 209.0 315.9 208.5 315.7 207.85 315.5 207.5 315.2 209.15 315.05 209.8 314.9 210.05 314.8 210.15 314.6 209.5 314.45 208.85 314.3 208.5 314.3 208.35 314.3 208.55 314.2 209.2 313.85 209.75 313.85 209.35 313.95 208.75 313.95 208.7 313.85 209.0 313.85 209.35 M313.1 209.35 L312.8 209.0 312.75 208.9 312.7 208.85 312.65 208.85 312.7 208.75 312.5 208.35 311.9 206.75 Q308.25 199.45 306.9 189.1 L306.65 185.15 Q306.3 185.85 306.45 187.45 L306.4 193.7 306.35 196.0 306.35 196.9 306.3 196.35 306.2 195.35 306.0 194.7 Q305.6 194.75 305.5 195.65 L305.25 197.3 305.1 197.65 304.5 195.35 304.15 194.35 303.6 196.4 Q303.45 197.05 303.25 196.65 L303.1 197.0 Q302.8 197.7 302.5 196.9 L302.2 196.0 Q301.75 196.55 301.4 197.8 L300.95 198.65 Q300.25 199.45 299.7 197.75 L299.0 195.9 298.55 194.7 Q298.65 197.55 299.45 199.95 L300.2 202.6 300.05 202.25 299.9 202.0 299.7 201.9 299.75 202.1 300.15 204.95 300.1 205.55 299.65 205.7 298.35 204.55 Q297.15 203.3 296.2 201.35 L296.45 202.15 296.95 203.9 297.15 204.55 296.85 204.8 295.9 204.7 Q295.7 204.7 295.9 205.85 L296.1 207.15 296.25 207.5 296.1 207.2 296.1 207.15 Q295.75 206.2 295.5 206.95 295.2 207.65 294.85 207.45 294.15 206.95 293.65 205.8 L291.45 200.95 291.75 205.4 291.9 207.2 289.15 197.75 289.15 197.65 289.15 197.0 289.15 197.75 287.8 209.0 287.7 208.6 287.65 208.75 287.65 209.15 287.2 210.55 286.7 209.9 Q285.95 208.9 285.65 206.95 L285.5 205.55 285.15 209.8 Q283.65 204.95 283.2 199.3 L281.4 211.45 281.35 207.85 281.35 207.2 281.25 207.8 281.15 215.75 281.85 215.9 283.0 221.25 284.25 221.0 285.35 226.35 287.8 228.25 278.4 229.25 278.75 230.45 279.8 231.05 Q288.85 235.7 298.6 235.25 302.6 235.05 306.55 235.15 L306.65 234.8 Q313.8 232.65 321.1 233.0 327.95 234.5 334.5 229.25 L330.1 229.25 M306.65 235.15 L306.55 235.15 M313.95 208.7 Q314.4 202.35 313.85 194.7 L313.1 194.7 Q314.4 203.65 312.7 208.75 L312.7 208.8 Q312.95 208.55 312.85 208.8 L313.25 208.65 313.1 209.35 M317.8 207.25 L317.8 206.4 M313.95 208.75 L314.1 209.1 314.2 209.2 M312.65 208.85 L312.7 208.8 312.7 208.85 312.85 208.8 312.8 208.85 312.75 208.9 M296.2 201.35 L295.75 200.6" ffdec:has-small-stroke="true" ffdec:original-stroke-width="0.05" fill="none" stroke="#660000" stroke-linecap="round" stroke-linejoin="round" stroke-opacity="0.6901961" stroke-width="1.0"/>
    <path d="M313.85 209.75 L313.85 211.8 313.1 211.8 313.1 209.35" fill="none" stroke="#f5eed3" stroke-linecap="round" stroke-linejoin="round" stroke-width="1.0"/>
    <path d="M318.1 209.65 L318.1 212.05 318.05 213.35 318.0 213.6 Q317.75 214.35 317.75 215.25 L317.75 215.35 318.35 215.35 Q318.7 215.3 318.9 215.9 L319.0 216.65 319.05 216.8 319.25 217.45 319.15 216.15 319.0 215.65 318.5 212.8 318.2 210.3 318.1 209.65 M309.15 202.5 Q308.75 201.5 308.65 200.3 L308.6 199.1 308.2 201.45 308.2 201.65 308.3 202.9 308.3 203.25 308.35 203.55 Q308.6 205.2 309.2 206.35 L309.7 207.2 309.95 207.6 310.3 208.5 Q310.45 209.5 310.85 209.8 L311.0 209.8 311.45 209.3 311.7 208.6 311.3 207.6 310.95 206.95 310.85 206.7 310.35 205.4 Q310.05 204.95 309.9 204.3 L309.75 204.0 309.3 203.0 309.15 202.5 Z" ffdec:has-small-stroke="true" ffdec:original-stroke-width="0.05" fill="none" stroke="#fffdea" stroke-linecap="round" stroke-linejoin="round" stroke-width="1.0"/>
  </g>
</svg>
