<?xml version="1.0" encoding="UTF-8" standalone="no"?>
<svg xmlns:ffdec="https://www.free-decompiler.com/flash" xmlns:xlink="http://www.w3.org/1999/xlink" ffdec:objectType="shape" height="69.75px" width="69.35px" xmlns="http://www.w3.org/2000/svg">
  <g transform="matrix(1.0, 0.0, 0.0, 1.0, -202.75, -256.8)">
    <path d="M206.85 256.8 L208.15 257.15 206.85 256.85 206.85 256.8" fill="#000000" fill-rule="evenodd" stroke="none"/>
    <path d="M217.95 323.3 L217.95 323.2 218.2 323.0 217.95 323.3 M239.25 326.45 L239.25 326.55 238.75 326.25 239.25 326.45" fill="#e02c00" fill-rule="evenodd" stroke="none"/>
    <path d="M242.65 315.8 L249.0 316.65 244.8 320.0 242.65 315.8 M239.35 321.0 L237.4 321.6 237.5 319.75 239.35 321.0 M235.4 322.3 L232.85 323.15 232.45 322.8 232.3 322.5 231.85 321.65 235.4 322.3 M221.1 319.55 L220.9 319.9 219.75 319.05 221.35 318.4 221.25 319.0 221.1 319.55 M218.8 318.35 L217.95 317.75 218.8 316.5 218.8 318.35 M215.4 316.75 L213.45 313.4 216.4 312.55 215.4 316.75 M229.75 290.6 L230.05 290.75 229.95 290.8 229.9 290.8 229.75 290.6 M222.2 287.5 L222.35 287.35 222.3 287.55 222.25 287.55 222.2 287.5 M237.9 307.35 L236.9 302.95 237.7 302.8 237.9 305.1 237.9 307.35 M218.6 304.1 L218.6 301.85 218.7 299.55 219.05 299.7 218.95 300.85 218.9 301.0 218.6 304.1" fill="#f5eec5" fill-rule="evenodd" stroke="none"/>
    <path d="M254.55 295.85 L256.9 295.3 254.55 295.85 M251.9 290.8 L252.85 290.8 256.9 295.3 265.85 292.4 265.9 292.35 272.0 297.95 259.45 300.9 255.2 306.4 261.6 305.6 258.8 313.75 248.0 311.95 242.5 315.8 242.65 315.8 244.8 320.0 244.8 320.05 241.65 322.55 239.65 321.15 239.35 321.0 237.5 319.75 237.4 321.6 235.4 322.3 231.85 321.65 231.5 321.0 230.05 318.1 229.0 319.25 225.85 318.0 226.4 316.5 228.4 314.85 230.45 313.25 229.5 307.3 229.1 304.9 229.2 304.65 236.9 302.95 237.9 307.35 237.9 305.1 243.2 303.2 242.8 297.5 244.65 299.2 251.9 290.8 M219.75 319.05 L218.8 318.35 218.8 316.5 217.95 317.75 217.8 317.9 217.45 318.45 216.85 319.3 216.1 317.95 215.9 317.65 215.4 316.8 215.4 316.75 216.4 312.55 216.45 312.55 217.35 312.2 216.45 312.55 213.95 308.7 208.95 310.5 208.6 308.25 207.65 302.35 210.6 303.15 208.65 297.65 202.85 294.7 205.65 289.1 205.7 289.15 205.5 287.5 Q202.15 279.35 204.1 274.75 204.1 272.9 204.65 273.75 202.85 281.1 209.4 290.35 L209.8 292.05 210.1 291.35 211.7 287.55 212.15 287.55 215.05 294.85 215.5 295.95 215.75 295.45 216.25 294.45 216.35 294.25 216.15 299.95 218.6 301.85 218.6 304.1 218.9 301.0 218.95 300.85 219.05 299.7 223.55 301.9 223.75 301.45 224.15 301.8 222.65 305.45 224.15 314.75 222.7 316.0 222.2 314.85 221.5 317.9 221.35 318.4 219.75 319.05 M223.9 282.3 L223.9 282.25 224.1 282.35 223.9 282.3 M210.9 292.6 L210.15 292.2 210.1 291.35 210.15 292.2 210.9 292.6 M206.15 289.1 L205.5 287.5 206.15 289.1 M204.1 274.75 L204.65 273.75 204.1 274.75 M210.15 292.2 L209.8 292.05 210.15 292.2 M223.45 289.25 L223.4 289.25 223.4 289.2 223.45 289.25 M232.4 309.95 L229.5 307.3 232.4 309.95 M221.1 306.7 L223.55 301.9 221.1 306.7 M242.5 315.8 L240.55 315.45 242.5 315.8 M228.4 314.85 L230.05 318.1 228.4 314.85 M234.25 317.6 L237.5 319.75 234.25 317.6 M208.65 297.65 L211.8 299.25 208.65 297.65 M223.05 311.3 L222.2 314.85 223.05 311.3 M220.25 314.35 L218.8 316.5 220.25 314.35 M213.55 303.85 L210.6 303.15 213.55 303.85 M248.75 307.1 L255.2 306.4 248.75 307.1 M259.45 300.9 L252.65 302.5 259.45 300.9" fill="#fbf3d9" fill-rule="evenodd" stroke="none"/>
    <path d="M213.45 313.4 L210.1 312.2 208.85 314.55 207.95 314.55 Q208.0 313.05 208.2 311.7 L208.2 311.55 206.2 309.65 208.6 308.25 208.95 310.5 213.95 308.7 216.45 312.55 216.4 312.55 213.45 313.4 M215.05 294.85 L215.55 294.25 215.8 294.3 216.25 294.45 215.75 295.45 215.5 295.95 215.05 294.85 M217.85 291.05 L217.3 289.1 217.4 289.05 219.6 286.85 219.65 286.85 220.45 286.05 221.95 287.3 222.55 286.6 223.9 282.3 224.1 282.35 224.15 282.35 225.55 283.05 226.8 286.1 226.8 286.25 229.75 290.6 229.9 290.8 229.95 290.8 230.05 290.75 230.0 290.2 229.75 283.7 231.55 273.95 Q230.2 288.05 233.4 286.35 L233.75 288.75 233.8 289.3 235.6 290.1 Q238.05 293.05 247.15 280.3 L240.5 292.3 240.65 292.35 239.5 294.3 239.2 294.05 237.95 292.85 229.65 293.6 228.65 295.35 228.9 298.5 230.05 299.05 229.8 300.6 225.75 297.35 225.3 301.5 222.6 299.4 222.9 290.45 218.55 289.6 218.2 290.35 218.05 290.7 217.85 291.05 M222.2 287.5 L222.25 287.55 222.3 287.55 222.35 287.35 222.2 287.5 221.95 287.3 222.2 287.5 M222.35 287.35 L222.55 286.6 222.35 287.35 M215.75 295.45 L215.8 294.3 215.75 295.45 M223.45 289.25 L223.4 289.2 223.4 289.25 223.45 289.25 M223.95 289.55 L223.55 288.65 222.25 287.55 223.55 288.65 223.95 289.55 M224.25 293.55 L224.2 293.75 224.3 293.7 224.25 293.55 M226.9 292.2 L227.15 291.9 227.85 291.65 227.15 291.9 226.9 292.2 M228.8 293.45 L228.8 293.2 228.8 291.25 228.8 293.2 228.8 293.45 M228.8 291.25 L229.95 290.8 228.8 291.25" fill="#d7c59b" fill-rule="evenodd" stroke="none"/>
    <path d="M232.45 322.8 L231.5 323.5 231.5 321.3 225.3 321.3 221.55 319.95 221.55 320.25 221.1 319.55 221.25 319.0 221.5 317.9 222.2 314.85 222.7 316.0 224.15 314.75 222.65 305.45 224.15 301.8 223.75 301.45 223.55 301.9 219.05 299.7 218.7 299.55 218.6 301.85 216.15 299.95 216.35 294.25 217.65 291.5 218.05 290.7 218.2 290.35 218.55 289.6 222.9 290.45 222.6 299.4 225.3 301.5 225.75 297.35 229.8 300.6 230.05 299.05 228.9 298.5 228.65 295.35 229.65 293.6 237.95 292.85 239.2 294.05 240.0 294.75 242.8 297.5 243.2 303.2 237.9 305.1 237.7 302.8 236.9 302.95 229.2 304.65 229.1 304.9 229.5 307.3 230.45 313.25 228.4 314.85 226.4 316.5 225.85 318.0 229.0 319.25 230.05 318.1 231.5 321.0 232.3 322.5 232.45 322.8 M217.8 317.9 L218.05 318.65 217.45 318.45 217.8 317.9 M216.1 317.95 L215.75 317.8 215.9 317.65 216.1 317.95" fill="#e1cfa8" fill-rule="evenodd" stroke="none"/>
    <path d="M215.8 294.3 L215.75 295.45" ffdec:has-small-stroke="true" ffdec:original-stroke-width="0.05" fill="none" stroke="#d9cebf" stroke-linecap="round" stroke-linejoin="round" stroke-width="1.0"/>
    <path d="M228.8 291.25 L228.8 293.2 228.8 293.45" ffdec:has-small-stroke="true" ffdec:original-stroke-width="0.05" fill="none" stroke="#d9cebf" stroke-linecap="round" stroke-linejoin="round" stroke-width="1.0"/>
    <path d="M256.9 295.3 L254.55 295.85 M252.85 290.8 L256.9 295.3 265.85 292.4 265.9 292.35 272.0 297.95 259.45 300.9 255.2 306.4 261.6 305.6 258.8 313.75 248.0 311.95 242.5 315.8 242.65 315.8 249.0 316.65 244.8 320.0 244.8 320.05 241.65 322.55 239.65 321.15 239.35 321.0 237.4 321.6 235.4 322.3 232.85 323.15 232.45 322.8 232.3 322.5 231.85 321.65 231.5 321.0 230.05 318.1 228.4 314.85 M221.55 320.25 L221.1 319.55 220.9 319.9 219.75 319.05 218.8 318.35 217.95 317.75 217.8 317.9 217.45 318.45 216.85 319.3 216.1 317.95 215.9 317.65 215.4 316.8 215.4 316.75 213.45 313.4 216.4 312.55 216.45 312.55 213.95 308.7 208.95 310.5 208.6 308.25 207.65 302.35 210.6 303.15 208.65 297.65 202.85 294.7 205.65 289.1 205.7 289.15 M215.75 317.8 L215.9 317.65 M208.2 311.7 L208.2 311.55 206.2 309.65 208.6 308.25 M205.5 287.5 Q202.15 279.35 204.1 274.75 L204.65 273.75 Q202.85 281.1 209.4 290.35 L210.1 291.35 211.7 287.55 M212.15 287.55 L215.05 294.85 215.5 295.95 215.75 295.45 216.25 294.45 216.35 294.25 217.65 291.5 217.85 291.05 217.3 289.1 217.4 289.05 219.6 286.85 219.65 286.85 220.45 286.05 221.95 287.3 222.2 287.5 222.25 287.55 222.3 287.55 222.35 287.35 222.2 287.5 M222.55 286.6 L223.9 282.3 223.9 282.25 224.1 282.35 M224.15 282.35 L225.55 283.05 M226.8 286.25 L229.75 290.6 230.05 290.75 229.95 290.8 228.8 291.25 M230.0 290.2 L229.75 283.7 231.55 273.95 Q230.2 288.05 233.4 286.35 L233.75 288.75 M233.8 289.3 L235.6 290.1 Q238.05 293.05 247.15 280.3 L240.5 292.3 240.65 292.35 239.5 294.3 240.0 294.75 242.8 297.5 244.65 299.2 251.9 290.8 M205.5 287.5 L206.15 289.1 M210.1 291.35 L210.15 292.2 210.9 292.6 M210.1 291.35 L209.8 292.05 210.15 292.2 M222.55 286.6 L222.35 287.35 M229.8 300.6 L225.75 297.35 225.3 301.5 222.6 299.4 222.9 290.45 218.55 289.6 218.2 290.35 218.05 290.7 217.85 291.05 M229.75 290.6 L229.9 290.8 229.95 290.8 M222.25 287.55 L223.55 288.65 223.95 289.55 M227.85 291.65 L227.15 291.9 226.9 292.2 M229.65 293.6 L237.95 292.85 239.2 294.05 239.5 294.3 M237.9 307.35 L237.9 305.1 237.7 302.8 236.9 302.95 229.2 304.65 M229.5 307.3 L232.4 309.95 M223.55 301.9 L221.1 306.7 M228.9 298.5 L228.65 295.35 M240.55 315.45 L242.5 315.8 M239.35 321.0 L237.5 319.75 234.25 317.6 M218.6 304.1 L218.6 301.85 218.7 299.55 219.05 299.7 223.55 301.9 M211.8 299.25 L208.65 297.65 M217.35 312.2 L216.45 312.55 M221.35 318.4 L221.5 317.9 222.2 314.85 223.05 311.3 M217.95 317.75 L218.8 316.5 220.25 314.35 M221.1 319.55 L221.25 319.0 221.35 318.4 M210.6 303.15 L213.55 303.85 M252.65 302.5 L259.45 300.9 M255.2 306.4 L248.75 307.1" ffdec:has-small-stroke="true" ffdec:original-stroke-width="0.25" fill="none" stroke="#6f6135" stroke-linecap="round" stroke-linejoin="round" stroke-width="1.0"/>
  </g>
</svg>
