<?xml version="1.0" encoding="UTF-8" standalone="no"?>
<svg xmlns:ffdec="https://www.free-decompiler.com/flash" xmlns:xlink="http://www.w3.org/1999/xlink" ffdec:objectType="shape" height="61.2px" width="92.2px" xmlns="http://www.w3.org/2000/svg">
  <g transform="matrix(1.0, 0.0, 0.0, 1.0, -206.35, -158.95)">
    <path d="M239.55 158.95 L240.2 160.35 241.25 163.1 Q242.25 165.7 243.4 164.45 L244.15 163.2 Q244.7 161.3 245.4 160.45 L246.0 161.8 Q246.5 163.05 246.95 161.95 L247.15 161.45 Q247.55 162.05 247.75 161.1 L248.3 158.95 249.05 158.95 249.2 159.45 250.2 162.95 250.4 162.45 250.9 159.95 Q250.95 159.3 251.15 158.95 L251.85 158.95 251.95 159.45 252.15 160.8 252.15 160.95 252.2 162.05 252.2 162.25 252.2 162.35 Q253.1 166.05 256.05 169.9 L256.05 169.95 256.1 169.95 257.95 177.95 257.95 177.9 257.95 172.3 259.7 174.5 257.95 177.9 259.7 174.5 261.35 176.8 262.35 179.2 Q263.0 180.8 264.05 181.3 265.15 181.65 265.3 179.5 L265.4 179.45 265.6 179.95 265.8 180.95 266.1 181.95 266.3 181.85 266.6 181.45 266.75 180.45 267.35 177.95 267.55 178.45 267.9 179.45 268.4 180.2 268.85 180.45 268.9 179.45 269.05 178.95 269.1 178.45 269.3 178.95 269.4 180.45 269.6 181.95 270.1 185.45 270.55 183.85 271.1 178.45 271.1 177.55 271.3 177.55 Q272.95 185.65 275.1 193.45 L275.4 193.45 276.15 193.45 276.85 193.7 277.65 193.95 Q278.75 194.2 279.95 194.95 279.55 194.95 279.15 195.25 278.65 195.45 278.2 195.95 L276.15 197.45 276.65 197.7 278.9 197.95 279.95 198.2 Q282.35 199.2 284.95 200.0 L288.0 200.45 Q289.2 200.45 290.0 201.95 289.25 202.7 288.45 203.1 286.9 203.7 286.0 205.95 287.15 206.95 288.5 206.55 L290.25 206.2 Q290.95 206.05 290.8 207.45 288.8 207.3 287.0 208.1 286.7 208.2 286.5 208.45 285.6 209.2 285.7 210.95 L286.5 210.95 291.25 210.95 282.7 211.45 276.55 210.3 274.6 208.2 274.6 208.35 Q274.2 209.05 274.45 209.9 L273.75 209.8 Q273.3 209.25 272.8 207.95 L271.25 204.7 270.35 202.45 270.35 204.7 Q269.0 202.95 267.95 200.45 L267.95 203.45 266.8 200.0 Q267.0 201.25 266.6 201.45 L265.95 199.45 265.8 198.85 Q265.65 198.3 265.8 199.7 265.6 200.3 265.2 199.2 264.55 197.55 264.2 195.1 L264.15 197.85 263.45 202.95 Q262.95 201.95 262.8 201.2 262.0 198.2 262.0 200.2 L262.0 200.35 Q261.1 198.45 260.55 196.45 L260.4 198.2 258.65 194.7 258.4 197.7 256.75 195.45 256.5 196.95 255.15 194.2 254.85 196.45 252.85 191.7 252.45 195.95 252.2 195.45 Q251.35 193.55 251.05 192.2 L251.2 196.7 251.05 196.45 Q250.15 195.3 249.8 192.7 L249.8 196.95 248.55 194.2 248.55 195.95 Q248.6 198.95 248.2 198.45 248.05 197.55 247.65 197.2 246.5 196.55 245.8 194.7 L246.55 199.2 245.8 198.6 Q244.25 196.8 244.3 199.2 L244.35 199.45 Q243.85 199.85 243.4 199.0 243.0 198.55 243.65 200.2 L243.55 200.45 Q242.0 199.7 240.9 198.7 241.4 200.8 241.5 202.65 L239.35 201.45 238.1 198.45 236.85 201.45 233.85 196.45 231.75 191.7 230.8 188.95 236.6 190.95 235.55 185.95 231.3 183.45 228.25 174.7 Q227.85 171.3 227.8 167.95 L231.35 175.35 Q232.15 177.05 233.3 177.8 233.95 178.2 234.4 177.1 234.8 176.0 235.4 177.4 L235.05 175.45 234.95 174.2 Q234.95 173.7 235.05 173.7 L235.5 173.8 236.6 173.8 237.1 173.45 236.8 172.45 236.0 169.85 235.55 168.6 Q237.15 171.6 239.1 173.45 L241.2 175.2 Q241.65 175.45 241.95 174.95 L242.0 174.05 241.4 169.7 241.65 169.6 241.9 169.95 242.15 170.45 240.9 166.45 Q239.6 163.0 239.4 158.95 L239.55 158.95 M237.95 178.65 Q236.6 176.65 235.5 173.8 236.6 176.65 237.95 178.65 M234.95 174.2 L235.5 173.8 234.95 174.2 M235.4 177.45 L235.6 177.95 235.4 177.4 235.4 177.45 M273.9 193.45 L275.1 193.45 273.9 193.45" fill="#000000" fill-rule="evenodd" stroke="none"/>
    <path d="M211.0 178.4 L211.15 178.45 211.2 180.55 211.0 178.4 M211.25 181.35 L211.3 183.3 210.95 183.95 211.25 181.35 M256.05 169.9 Q257.2 164.95 257.95 160.4 L257.95 172.3 256.3 170.2 256.1 169.95 256.3 170.2 257.95 172.3 257.95 177.9 257.95 177.95 256.1 169.95 256.05 169.9" fill="#330000" fill-rule="evenodd" stroke="none"/>
    <path d="M256.1 169.95 L256.05 169.95 256.05 169.9 256.1 169.95" fill="#ffffff" fill-rule="evenodd" stroke="none"/>
    <path d="M224.0 163.1 L228.5 177.45 228.25 174.7 231.3 183.45 235.55 185.95 236.6 190.95 230.8 188.95 231.75 191.7 233.85 196.45 236.85 201.45 238.1 198.45 239.35 201.45 241.5 202.65 Q241.4 200.8 240.9 198.7 242.0 199.7 243.55 200.45 L243.65 200.2 Q243.0 198.55 243.4 199.0 243.85 199.85 244.35 199.45 L244.3 199.2 Q244.25 196.8 245.8 198.6 L246.55 199.2 245.8 194.7 Q246.5 196.55 247.65 197.2 248.05 197.55 248.2 198.45 248.6 198.95 248.55 195.95 L248.55 194.2 249.8 196.95 249.8 192.7 Q250.15 195.3 251.05 196.45 L251.2 196.7 251.05 192.2 Q251.35 193.55 252.2 195.45 L252.45 195.95 252.85 191.7 254.85 196.45 255.15 194.2 256.5 196.95 256.75 195.45 258.4 197.7 258.65 194.7 260.4 198.2 260.55 196.45 Q261.1 198.45 262.0 200.35 L262.0 200.2 Q262.0 198.2 262.8 201.2 262.95 201.95 263.45 202.95 L264.15 197.85 264.2 195.1 Q264.55 197.55 265.2 199.2 265.6 200.3 265.8 199.7 265.65 198.3 265.8 198.85 L265.95 199.45 266.6 201.45 Q267.0 201.25 266.8 200.0 L267.95 203.45 267.95 200.45 Q269.0 202.95 270.35 204.7 L270.35 202.45 271.25 204.7 272.8 207.95 Q273.3 209.25 273.75 209.8 L274.45 209.9 Q274.2 209.05 274.6 208.35 L274.6 208.2 276.55 210.3 282.7 211.45 291.25 210.95 298.55 210.95 Q287.8 218.95 276.55 216.75 264.5 216.2 252.7 219.45 L252.7 219.95 Q246.15 219.8 239.55 220.1 222.55 220.85 206.9 212.85 L206.35 210.95 221.75 209.45 217.7 206.55 215.9 198.45 213.85 198.85 212.05 190.7 210.8 190.45 210.95 183.95 211.3 183.3 211.25 181.35 211.25 181.2 214.15 165.45 Q215.0 174.05 217.45 181.45 L217.95 174.95 218.2 177.1 Q218.7 180.05 219.9 181.55 L220.7 182.6 221.45 180.45 221.45 179.85 221.65 179.55 221.75 180.2 224.0 163.1 M212.95 180.95 L211.25 181.2 212.95 180.95" fill="#660000" fill-rule="evenodd" stroke="none"/>
    <path d="M248.3 158.95 L247.75 161.1 Q247.55 162.05 247.15 161.45 L246.95 161.95 Q246.5 163.05 246.0 161.8 L245.4 160.45 Q244.7 161.3 244.15 163.2 L243.4 164.45 Q242.25 165.7 241.25 163.1 L240.2 160.35 239.55 158.95 M239.4 158.95 Q239.6 163.0 240.9 166.45 L242.15 170.45 241.9 169.95 241.65 169.6 241.4 169.45 241.4 169.7 242.0 174.05 241.95 174.95 Q241.65 175.45 241.2 175.2 L239.1 173.45 Q237.15 171.6 235.55 168.6 L236.0 169.85 236.8 172.45 237.1 173.45 236.6 173.8 235.5 173.8 235.05 173.7 Q234.95 173.7 234.95 174.2 L235.05 175.45 235.4 177.4 235.4 177.45 235.6 177.95 235.4 177.4 Q234.8 176.0 234.4 177.1 233.95 178.2 233.3 177.8 232.15 177.05 231.35 175.35 L227.8 167.95 Q227.85 171.3 228.25 174.7 L228.5 177.45 224.0 163.1 224.0 162.95 224.0 161.95 224.0 163.1 221.75 180.2 221.65 179.55 221.45 179.85 221.45 180.45 220.7 182.6 219.9 181.55 Q218.7 180.05 218.2 177.1 L217.95 174.95 217.45 181.45 Q215.0 174.05 214.15 165.45 L211.25 181.2 211.25 181.35 211.3 183.3 210.95 183.95 210.8 190.45 212.05 190.7 213.85 198.85 215.9 198.45 217.7 206.55 221.75 209.45 206.35 210.95 206.9 212.85 Q222.55 220.85 239.55 220.1 246.15 219.8 252.7 219.95 L254.0 219.95 255.45 219.95 254.0 219.8 252.7 219.45 Q264.5 216.2 276.55 216.75 287.8 218.95 298.55 210.95 L291.25 210.95 286.5 210.95 285.7 210.95 Q285.6 209.2 286.5 208.45 286.7 208.2 287.0 208.1 288.8 207.3 290.8 207.45 290.95 206.05 290.25 206.2 L288.5 206.55 Q287.15 206.95 286.0 205.95 286.9 203.7 288.45 203.1 289.25 202.7 290.0 201.95 289.2 200.45 288.0 200.45 L284.95 200.0 Q282.35 199.2 279.95 198.2 L278.9 197.95 276.65 197.7 276.15 197.45 278.2 195.95 Q278.65 195.45 279.15 195.25 279.55 194.95 279.95 194.95 278.75 194.2 277.65 193.95 L276.85 193.7 276.15 193.45 275.4 193.45 275.1 193.45 273.9 193.45 M235.55 168.6 L234.85 167.45 M211.15 178.45 L211.15 177.45 211.0 178.4 211.2 180.55 211.15 178.45 M211.25 180.9 L211.2 180.55 211.2 180.9 211.25 181.35 210.95 183.95 M211.25 180.9 L211.25 181.1 211.25 181.2 M251.15 158.95 Q250.95 159.3 250.9 159.95 L250.4 162.45 250.2 162.95 249.2 159.45 249.05 158.95 M252.15 160.8 Q252.1 160.15 252.2 159.45 L252.2 159.75 252.25 158.95 M252.2 162.05 L252.2 160.7 252.2 160.45 252.2 159.75 M252.2 162.25 L252.2 162.05 252.15 160.95 252.15 160.8 251.95 159.45 251.85 158.95 M252.2 162.35 Q253.1 166.05 256.05 169.9 M257.95 172.3 L259.7 174.5 261.35 176.8 262.35 179.2 Q263.0 180.8 264.05 181.3 265.15 181.65 265.3 179.5 L265.3 178.95 265.4 179.45 265.6 179.95 265.8 180.95 266.1 181.95 266.3 181.85 266.6 181.45 266.75 180.45 267.35 177.95 267.55 178.45 267.9 179.45 268.4 180.2 268.85 180.45 268.9 179.45 269.05 178.95 269.1 178.45 269.3 178.95 269.4 180.45 269.6 181.95 270.1 185.45 270.55 183.85 271.1 178.45 271.1 177.55 271.1 176.25 271.05 175.0 M256.1 169.95 L256.3 170.2 257.95 172.3 M271.3 177.55 L271.1 176.25 M275.1 193.45 Q272.95 185.65 271.3 177.55" ffdec:has-small-stroke="true" ffdec:original-stroke-width="0.05" fill="none" stroke="#660000" stroke-linecap="round" stroke-linejoin="round" stroke-opacity="0.6901961" stroke-width="1.0"/>
    <path d="M235.5 173.8 Q236.6 176.65 237.95 178.65 M235.5 173.8 L234.95 174.2 M211.25 181.2 L212.95 180.95 M211.2 180.9 L211.25 180.9 M211.2 180.9 L211.25 181.1 M211.2 180.55 Q210.35 173.9 209.65 163.1 M256.05 169.9 Q257.2 164.95 257.95 160.4 M259.7 174.5 Q261.55 171.45 262.95 166.2 M256.1 169.95 L256.05 169.95 256.05 169.9 M257.95 177.9 L259.7 174.5 M257.95 177.95 L256.1 169.95" fill="none" stroke="#330033" stroke-linecap="round" stroke-linejoin="round" stroke-width="1.0"/>
  </g>
</svg>
