<?xml version="1.0" encoding="UTF-8" standalone="no"?>
<svg xmlns:ffdec="https://www.free-decompiler.com/flash" xmlns:xlink="http://www.w3.org/1999/xlink" ffdec:objectType="shape" height="65.65px" width="74.25px" xmlns="http://www.w3.org/2000/svg">
  <g transform="matrix(1.0, 0.0, 0.0, 1.0, -222.85, -146.9)">
    <path d="M293.5 169.75 L293.7 168.5 Q293.7 167.1 292.75 166.1 292.15 165.5 291.35 165.3 L291.05 165.25 290.35 165.15 289.4 165.3 Q288.6 165.5 288.0 166.1 287.0 167.1 287.0 168.5 287.0 169.9 288.0 170.85 288.95 171.85 290.35 171.85 L292.05 171.4 292.75 170.85 293.5 169.75" fill="#dace65" fill-rule="evenodd" stroke="none"/>
    <path d="M293.5 169.75 L293.7 168.5 Q293.7 167.1 292.75 166.1 292.15 165.5 291.35 165.3 L291.05 165.25 290.35 165.15 289.4 165.3 Q288.6 165.5 288.0 166.1 287.0 167.1 287.0 168.5 287.0 169.9 288.0 170.85 288.95 171.85 290.35 171.85 L292.05 171.4 292.75 170.85 293.5 169.75 Z" ffdec:has-small-stroke="true" ffdec:original-stroke-width="0.8" fill="none" stroke="#000000" stroke-linecap="round" stroke-linejoin="round" stroke-opacity="0.3019608" stroke-width="1.0"/>
    <path d="M264.35 196.65 L264.35 196.7 264.4 196.7 264.35 196.65" fill="#d7b7df" fill-rule="evenodd" stroke="none"/>
    <path d="M238.15 168.4 L237.0 168.8 237.15 169.15 238.35 168.95 238.15 168.4" fill="#ab7dc4" fill-rule="evenodd" stroke="none"/>
    <path d="M276.45 155.95 L276.4 156.1 276.45 156.05 276.45 155.95 M238.05 172.0 L237.9 172.1 238.05 172.1 238.05 172.0 M243.65 172.05 L243.65 172.15 243.7 172.2 243.65 172.05" fill="#804f93" fill-rule="evenodd" stroke="none"/>
    <path d="M272.0 154.3 Q268.55 155.1 265.65 158.0 L265.35 158.35 Q260.0 162.75 257.5 170.8 L257.3 171.3 258.05 174.4 Q258.6 170.15 261.55 165.65 266.15 158.65 272.45 157.3 L272.85 157.25 272.95 157.25 272.85 156.85 276.4 156.1 276.45 155.95 276.5 155.35 272.05 154.65 272.0 154.3 M296.3 209.35 L280.7 207.55 Q276.15 205.2 272.2 203.95 259.35 199.75 252.4 206.3 263.9 200.65 279.55 209.35 L296.2 209.9 296.3 209.35 M243.1 211.75 Q249.15 205.7 245.5 203.25 L245.25 203.15 Q242.2 200.5 233.0 198.8 L232.0 198.8 231.4 198.85 231.3 198.85 231.35 200.1 231.4 200.1 Q248.35 201.9 242.75 211.55 L242.95 211.7 243.1 211.75 M240.9 197.6 Q245.45 198.7 245.25 201.45 L246.8 200.3 Q251.05 196.7 253.8 190.8 L255.45 191.65 Q257.8 186.45 253.8 179.05 L253.55 178.75 Q251.5 174.1 247.25 172.25 L246.75 172.0 246.4 171.9 246.25 171.85 243.8 171.45 243.65 172.05 243.7 172.2 244.7 172.75 244.8 172.8 244.55 173.75 Q251.25 175.25 252.3 184.75 253.45 193.0 241.9 197.35 L240.9 197.6 M235.1 169.7 L233.55 170.9 Q230.2 174.1 230.3 179.8 230.4 189.1 240.35 190.25 L234.25 186.2 Q231.5 183.75 231.8 176.6 232.1 173.7 235.1 169.7 M240.0 180.1 L240.05 181.1 240.2 181.45 Q243.0 181.6 243.85 183.3 244.45 184.55 243.7 185.3 242.7 186.25 241.55 186.45 L243.35 187.2 246.1 184.45 244.4 180.8 240.0 180.1 M235.1 180.5 Q235.25 174.4 240.25 173.55 L240.15 173.0 238.2 173.15 238.0 172.35 238.05 172.1 237.9 172.1 Q237.35 172.35 236.85 172.75 L236.65 172.9 236.35 173.2 Q233.5 175.7 235.1 180.5 M240.5 151.55 Q240.55 153.55 241.25 156.85 247.05 155.15 248.75 165.5 L249.4 165.15 248.55 158.65 245.5 152.65 240.5 151.55 M289.6 165.55 L289.6 165.6 Q291.2 169.55 290.5 175.05 290.0 178.75 288.4 180.85 L291.0 180.2 Q294.4 172.05 291.8 166.0 L291.5 165.4 Q289.9 162.05 287.95 159.8 L288.35 161.75 290.3 165.1 289.6 165.55 M275.75 175.15 Q276.15 175.25 276.6 175.45 278.2 176.95 276.7 178.25 279.25 179.55 280.2 177.4 L280.3 176.45 278.8 176.55 277.2 174.2 275.75 175.15 M275.6 171.45 Q273.9 171.45 272.25 172.6 267.95 176.85 269.85 180.85 273.45 187.3 281.45 187.1 L274.2 183.4 274.0 183.35 273.7 182.9 Q270.3 178.65 271.95 174.15 L275.6 171.45" fill="#4e922e" fill-rule="evenodd" stroke="none"/>
    <path d="M278.0 149.2 Q275.65 148.8 273.2 149.25 267.9 150.3 262.35 155.5 L262.15 155.7 Q251.35 167.45 254.0 175.9 251.6 171.6 248.55 169.65 L248.25 170.25 245.5 169.4 245.25 170.0 245.25 170.1 246.45 171.1 246.55 171.15 246.4 171.45 243.9 171.05 243.9 171.1 243.8 171.45 246.25 171.85 246.4 171.9 246.75 172.0 247.25 172.25 Q251.5 174.1 253.55 178.75 L253.8 179.05 Q257.8 186.45 255.45 191.65 L253.8 190.8 Q251.05 196.7 246.8 200.3 L245.25 201.45 Q245.45 198.7 240.9 197.6 L233.0 198.8 Q242.2 200.5 245.25 203.15 L245.5 203.25 Q249.15 205.7 243.1 211.75 L244.75 212.15 Q248.35 208.3 252.4 206.3 259.35 199.75 272.2 203.95 276.15 205.2 280.7 207.55 L296.3 209.35 296.7 207.1 290.4 206.6 290.35 206.6 290.1 207.65 290.1 207.7 280.15 205.9 280.3 205.35 275.15 203.3 275.5 202.75 274.4 202.05 274.85 201.75 272.4 200.25 271.65 200.95 265.3 196.05 264.4 196.7 264.35 196.7 264.35 196.65 260.1 191.3 261.2 190.7 259.0 186.5 260.4 186.2 Q259.0 182.9 258.2 179.15 257.7 176.85 258.05 174.4 L257.3 171.3 257.5 170.8 Q260.0 162.75 265.35 158.35 L265.65 158.0 Q268.55 155.1 272.0 154.3 L271.9 153.5 276.35 152.7 276.45 152.1 275.05 151.85 275.35 151.25 273.1 150.9 273.2 150.3 273.2 150.25 277.85 149.85 278.0 149.2 M237.0 168.8 L235.1 169.7 Q232.1 173.7 231.8 176.6 231.5 183.75 234.25 186.2 L240.35 190.25 241.8 190.35 Q250.4 189.95 247.65 182.65 245.35 178.3 239.95 178.6 L240.0 180.1 244.4 180.8 246.1 184.45 243.35 187.2 241.55 186.45 Q240.05 186.75 238.2 185.75 235.35 184.1 235.1 181.35 L235.1 180.8 235.1 180.5 Q233.5 175.7 236.35 173.2 L236.65 172.9 236.85 172.75 Q237.35 172.35 237.9 172.1 L238.05 172.0 238.15 171.5 239.75 171.0 239.45 170.1 237.35 169.95 237.3 169.85 237.15 169.15 237.0 168.8 M240.5 151.55 L245.5 152.65 248.55 158.65 249.4 165.15 250.3 164.7 Q248.75 150.9 242.6 148.35 L242.25 148.15 Q240.4 147.9 240.5 151.55 M288.4 180.85 Q286.25 183.65 281.95 183.35 275.45 182.5 274.2 178.35 273.1 174.4 275.75 175.15 L277.2 174.2 278.8 176.55 280.3 176.45 Q280.5 173.1 278.65 172.25 277.1 171.4 275.6 171.45 L271.95 174.15 Q270.3 178.65 273.7 182.9 L274.0 183.35 274.2 183.4 281.45 187.1 284.1 186.85 Q291.7 185.45 294.6 177.35 296.45 170.35 293.3 163.1 L291.8 160.15 291.85 161.75 292.65 164.35 288.55 159.5 287.95 159.8 Q289.9 162.05 291.5 165.4 L291.8 166.0 Q294.4 172.05 291.0 180.2 L288.4 180.85 M273.2 202.5 L272.65 203.3 270.45 202.25 271.4 201.55 273.2 202.5 M259.55 192.6 L260.65 195.15 259.55 195.45 258.95 192.75 259.55 192.6" fill="#5daf4e" fill-rule="evenodd" stroke="none"/>
    <path d="M278.0 149.2 L277.85 149.85 273.2 150.25 273.2 150.3 273.1 150.9 275.35 151.25 275.05 151.85 276.45 152.1 276.35 152.7 271.9 153.5 272.0 154.3 Q276.9 153.15 283.0 156.0 285.65 157.15 287.95 159.8 L288.55 159.5 292.65 164.35 291.85 161.75 291.8 160.15 Q290.45 157.75 288.5 155.3 283.4 150.05 278.0 149.2 M260.4 186.2 L259.0 186.5 261.2 190.7 260.1 191.3 264.35 196.65 264.4 196.7 265.3 196.05 271.65 200.95 272.4 200.25 271.05 199.3 Q263.85 194.05 260.4 186.2 M274.85 201.75 L274.4 202.05 275.5 202.75 275.15 203.3 280.3 205.35 280.15 205.9 290.1 207.7 290.1 207.65 290.35 206.6 Q282.25 205.55 275.8 202.25 L274.85 201.75 M243.8 171.45 L243.9 171.1 243.9 171.05 246.4 171.45 246.55 171.15 246.45 171.1 245.25 170.1 245.25 170.0 245.5 169.4 248.25 170.25 248.55 169.65 Q245.85 167.9 242.7 167.95 L242.4 167.95 238.15 168.4 238.35 168.95 237.15 169.15 237.3 169.85 237.35 169.95 239.45 170.1 239.75 171.0 238.15 171.5 238.05 172.0 Q240.3 171.0 243.8 171.45 M273.2 202.5 L271.4 201.55 270.45 202.25 272.65 203.3 273.2 202.5 M259.55 192.6 L258.95 192.75 259.55 195.45 260.65 195.15 259.55 192.6" fill="#cae5c0" fill-rule="evenodd" stroke="none"/>
    <path d="M240.25 173.55 L242.7 173.45 244.55 173.75 244.8 172.8 244.7 172.75 243.7 172.2 243.65 172.15 243.65 172.05 243.8 171.45 Q240.3 171.0 238.05 172.0 L238.05 172.1 238.0 172.35 238.2 173.15 240.15 173.0 240.25 173.55 M272.0 154.3 L272.05 154.65 276.5 155.35 276.45 155.95 276.45 156.05 276.4 156.1 272.85 156.85 272.95 157.25 Q281.9 156.45 286.75 161.3 288.6 163.15 289.6 165.55 L290.3 165.1 288.35 161.75 287.95 159.8 Q285.65 157.15 283.0 156.0 276.9 153.15 272.0 154.3" fill="#c2e38a" fill-rule="evenodd" stroke="none"/>
    <path d="M233.0 198.8 L232.0 198.8 231.4 198.85 231.3 198.85 231.35 200.1 231.4 200.1 Q248.35 201.9 242.75 211.55 L242.95 211.7 243.1 211.75" ffdec:has-small-stroke="true" ffdec:original-stroke-width="0.8" fill="none" stroke="#000000" stroke-linecap="round" stroke-linejoin="round" stroke-opacity="0.3019608" stroke-width="1.0"/>
    <path d="M248.55 169.65 Q251.6 171.6 254.0 175.9 251.35 167.45 262.15 155.7 L262.35 155.5 Q267.9 150.3 273.2 149.25 275.65 148.8 278.0 149.2 283.4 150.05 288.5 155.3 290.45 157.75 291.8 160.15 L293.3 163.1 Q296.45 170.35 294.6 177.35 291.7 185.45 284.1 186.85 L281.45 187.1 Q273.45 187.3 269.85 180.85 267.95 176.85 272.25 172.6 273.9 171.45 275.6 171.45 277.1 171.4 278.65 172.25 280.5 173.1 280.3 176.45 L280.2 177.4 Q279.25 179.55 276.7 178.25 278.2 176.95 276.6 175.45 276.15 175.25 275.75 175.15 273.1 174.4 274.2 178.35 275.45 182.5 281.95 183.35 286.25 183.65 288.4 180.85 290.0 178.75 290.5 175.05 291.2 169.55 289.6 165.6 L289.6 165.55 Q288.6 163.15 286.75 161.3 281.9 156.45 272.95 157.25 L272.85 157.25 272.45 157.3 Q266.15 158.65 261.55 165.65 258.6 170.15 258.05 174.4 257.7 176.85 258.2 179.15 259.0 182.9 260.4 186.2 263.85 194.05 271.05 199.3 L272.4 200.25 274.85 201.75 275.8 202.25 Q282.25 205.55 290.35 206.6 L290.4 206.6 296.7 207.1 296.3 209.35 296.2 209.9 279.55 209.35 Q263.9 200.65 252.4 206.3 248.35 208.3 244.75 212.15 L243.1 211.75 M233.0 198.8 L240.9 197.6 241.9 197.35 Q253.45 193.0 252.3 184.75 251.25 175.25 244.55 173.75 L242.7 173.45 240.25 173.55 Q235.25 174.4 235.1 180.5 L235.1 180.8 235.1 181.35 Q235.35 184.1 238.2 185.75 240.05 186.75 241.55 186.45 242.7 186.25 243.7 185.3 244.45 184.55 243.85 183.3 243.0 181.6 240.2 181.45 L240.05 181.1 240.0 180.1 239.95 178.6 Q245.35 178.3 247.65 182.65 250.4 189.95 241.8 190.35 L240.35 190.25 Q230.4 189.1 230.3 179.8 230.2 174.1 233.55 170.9 L235.1 169.7 237.0 168.8 238.15 168.4 242.4 167.95 242.7 167.95 Q245.85 167.9 248.55 169.65 M249.4 165.15 L248.75 165.5 Q247.05 155.15 241.25 156.85 240.55 153.55 240.5 151.55 240.4 147.9 242.25 148.15 L242.6 148.35 Q248.75 150.9 250.3 164.7 L249.4 165.15 Z" ffdec:has-small-stroke="true" ffdec:original-stroke-width="0.8" fill="none" stroke="#000000" stroke-linecap="round" stroke-linejoin="round" stroke-opacity="0.3019608" stroke-width="1.0"/>
    <path d="M227.85 189.15 L226.3 189.25 226.1 189.35 225.1 190.2 224.6 192.4 226.15 194.5 228.4 194.0 229.65 192.85 229.75 192.1 Q229.75 190.75 228.8 189.8 L228.25 189.35 227.85 189.15 M282.1 152.85 L282.25 151.9 Q282.25 150.15 280.55 148.75 278.9 147.35 276.65 147.3 L276.45 147.3 276.5 147.35 273.9 148.35 272.7 149.4 272.75 151.55 274.85 153.3 280.2 153.7 282.0 153.05 282.1 152.85 M257.85 198.35 Q258.35 197.35 258.3 196.3 258.25 194.55 257.0 192.55 256.45 191.6 255.75 191.1 L255.65 191.0 Q254.95 190.55 254.15 190.6 253.35 190.6 252.65 191.05 L252.55 191.7 251.1 194.05 251.6 197.55 253.5 199.9 255.75 199.8 257.85 198.35" fill="#eee8b7" fill-rule="evenodd" stroke="none"/>
    <path d="M229.65 192.85 L228.4 194.0 226.15 194.5 224.6 192.4 225.1 190.2 226.1 189.35 226.3 189.25 227.85 189.15 226.5 188.85 Q225.15 188.85 224.2 189.8 223.25 190.75 223.25 192.1 223.25 193.45 224.2 194.4 225.15 195.35 226.5 195.35 227.85 195.35 228.8 194.4 229.45 193.75 229.65 192.85 M276.45 147.3 Q274.15 147.3 272.5 148.75 270.85 150.15 270.85 151.9 270.85 153.6 272.5 154.1 L276.45 154.65 280.55 154.15 Q281.6 153.8 282.0 153.05 L280.2 153.7 274.85 153.3 272.75 151.55 272.7 149.4 273.9 148.35 276.5 147.35 276.45 147.3 M252.65 191.05 L251.4 192.25 Q250.2 193.85 249.85 195.95 249.55 198.0 250.85 199.55 252.15 201.1 253.95 201.1 255.75 201.1 257.05 199.6 L257.85 198.35 255.75 199.8 253.5 199.9 251.6 197.55 251.1 194.05 252.55 191.7 252.65 191.05" fill="#dace65" fill-rule="evenodd" stroke="none"/>
    <path d="M228.25 189.35 L228.8 189.8 Q229.75 190.75 229.75 192.1 L229.65 192.85 M282.1 152.85 L282.25 151.9 Q282.25 150.15 280.55 148.75 278.9 147.35 276.65 147.3 L276.45 147.3 M257.85 198.35 Q258.35 197.35 258.3 196.3 258.25 194.55 257.0 192.55 256.45 191.6 255.75 191.1 M255.65 191.0 Q254.95 190.55 254.15 190.6 253.35 190.6 252.65 191.05" ffdec:has-small-stroke="true" ffdec:original-stroke-width="0.05" fill="none" stroke="#8d7c21" stroke-linecap="round" stroke-linejoin="round" stroke-width="1.0"/>
    <path d="M229.65 192.85 Q229.45 193.75 228.8 194.4 227.85 195.35 226.5 195.35 225.15 195.35 224.2 194.4 223.25 193.45 223.25 192.1 223.25 190.75 224.2 189.8 225.15 188.85 226.5 188.85 L227.85 189.15 M276.45 147.3 Q274.15 147.3 272.5 148.75 270.85 150.15 270.85 151.9 270.85 153.6 272.5 154.1 L276.45 154.65 280.55 154.15 Q281.6 153.8 282.0 153.05 M252.65 191.05 L251.4 192.25 Q250.2 193.85 249.85 195.95 249.55 198.0 250.85 199.55 252.15 201.1 253.95 201.1 255.75 201.1 257.05 199.6 L257.85 198.35" ffdec:has-small-stroke="true" ffdec:original-stroke-width="0.8" fill="none" stroke="#000000" stroke-linecap="round" stroke-linejoin="round" stroke-opacity="0.3019608" stroke-width="1.0"/>
  </g>
</svg>
