<?xml version="1.0" encoding="UTF-8" standalone="no"?>
<svg xmlns:ffdec="https://www.free-decompiler.com/flash" xmlns:xlink="http://www.w3.org/1999/xlink" ffdec:objectType="shape" height="64.8px" width="67.2px" xmlns="http://www.w3.org/2000/svg">
  <g transform="matrix(1.0, 0.0, 0.0, 1.0, -245.55, -137.15)">
    <path d="M293.25 154.55 L292.35 154.1 Q293.9 140.3 300.05 137.75 L300.4 137.55 Q302.25 137.3 302.15 140.95 L297.15 142.05 294.1 148.05 293.25 154.55 M284.6 163.8 L285.35 160.7 285.15 160.2 Q282.65 152.15 277.3 147.75 L277.0 147.4 Q274.1 144.5 270.65 143.7 L270.75 142.9 266.3 142.1 266.2 141.5 267.6 141.25 267.3 140.65 269.55 140.3 269.45 139.7 269.45 139.65 264.8 139.25 264.65 138.6 Q267.0 138.2 269.45 138.65 274.75 139.7 280.3 144.9 L280.5 145.1 Q291.3 156.85 288.65 165.3 291.05 161.0 294.1 159.05 L294.4 159.65 297.15 158.8 297.4 159.4 297.4 159.5 296.2 160.5 296.1 160.55 296.25 160.85 298.75 160.45 298.75 160.5 298.85 160.85 296.4 161.25 296.25 161.3 295.9 161.4 295.4 161.65 Q291.15 163.5 289.1 168.15 L288.85 168.45 Q284.85 175.85 287.2 181.05 L288.85 180.2 Q291.6 186.1 295.85 189.7 L297.4 190.85 Q297.2 188.1 301.75 187.0 L309.65 188.2 Q300.45 189.9 297.4 192.55 L297.15 192.65 Q293.5 195.1 299.55 201.15 L297.9 201.55 Q294.3 197.7 290.25 195.7 283.3 189.15 270.45 193.35 266.5 194.6 261.95 196.95 L246.35 198.75 245.95 196.5 252.25 196.0 252.3 196.0 252.55 197.05 252.55 197.1 262.5 195.3 262.35 194.75 Q264.9 193.75 267.5 192.7 L267.15 192.15 268.25 191.45 267.8 191.15 270.25 189.65 271.0 190.35 277.35 185.45 278.25 186.1 278.3 186.1 278.3 186.05 282.55 180.7 281.45 180.1 283.65 175.9 282.25 175.6 Q283.65 172.3 284.45 168.55 284.95 166.25 284.6 163.8 M304.5 157.8 Q306.15 158.25 307.55 159.1 310.55 163.1 310.85 166.0 311.15 173.15 308.4 175.6 L302.3 179.65 300.85 179.75 Q292.25 179.35 295.0 172.05 297.3 167.7 302.7 168.0 L302.65 169.5 298.25 170.2 296.55 173.85 299.3 176.6 301.1 175.85 Q302.6 176.15 304.45 175.15 307.3 173.5 307.55 170.75 L307.55 170.2 307.55 169.9 Q309.15 165.1 306.3 162.6 L306.0 162.3 305.8 162.15 Q305.3 161.75 304.75 161.5 L304.6 161.4 304.5 160.9 302.9 160.4 303.2 159.5 305.3 159.35 305.35 159.25 305.5 158.55 304.3 158.35 304.5 157.8 M250.85 149.55 L250.8 151.15 250.0 153.75 254.1 148.9 254.7 149.2 Q252.75 151.45 251.15 154.8 L250.85 155.4 Q248.25 161.45 251.65 169.6 L254.25 170.25 Q256.4 173.05 260.7 172.75 267.2 171.9 268.45 167.75 269.55 163.8 266.9 164.55 L265.45 163.6 263.85 165.95 262.35 165.85 Q262.15 162.5 264.0 161.65 265.55 160.8 267.05 160.85 L270.7 163.55 Q272.35 168.05 268.95 172.3 L268.65 172.75 268.45 172.8 261.2 176.5 258.55 176.25 Q250.95 174.85 248.05 166.75 246.2 159.75 249.35 152.5 L250.85 149.55 M270.0 192.7 L272.2 191.65 271.25 190.95 269.45 191.9 270.0 192.7 M282.0 184.55 L283.1 184.85 283.7 182.15 283.1 182.0 282.0 184.55" fill="#cc9966" fill-rule="evenodd" stroke="none"/>
    <path d="M293.25 154.55 L294.1 148.05 297.15 142.05 302.15 140.95 Q302.1 142.95 301.4 146.25 295.6 144.55 293.9 154.9 L293.25 154.55 M270.65 143.7 Q274.1 144.5 277.0 147.4 L277.3 147.75 Q282.65 152.15 285.15 160.2 L285.35 160.7 284.6 163.8 Q284.05 159.55 281.1 155.05 276.5 148.05 270.2 146.7 L269.8 146.65 269.7 146.65 269.8 146.25 266.25 145.5 266.2 145.45 266.2 145.35 266.15 144.75 270.6 144.05 270.65 143.7 M246.35 198.75 L261.95 196.95 Q266.5 194.6 270.45 193.35 283.3 189.15 290.25 195.7 278.75 190.05 263.1 198.75 L246.45 199.3 246.35 198.75 M299.55 201.15 Q293.5 195.1 297.15 192.65 L297.4 192.55 Q300.45 189.9 309.65 188.2 L310.65 188.2 311.25 188.25 311.35 188.25 311.3 189.5 311.25 189.5 Q294.3 191.3 299.9 200.95 L299.7 201.1 299.55 201.15 M301.75 187.0 Q297.2 188.1 297.4 190.85 L295.85 189.7 Q291.6 186.1 288.85 180.2 L287.2 181.05 Q284.85 175.85 288.85 168.45 L289.1 168.15 Q291.15 163.5 295.4 161.65 L295.9 161.4 296.25 161.3 296.4 161.25 298.85 160.85 299.0 161.45 299.0 161.55 298.95 161.6 297.95 162.15 297.85 162.2 298.1 163.15 Q291.4 164.65 290.35 174.15 289.2 182.4 300.75 186.75 L301.75 187.0 M254.7 149.2 L254.3 151.15 252.35 154.5 253.05 154.95 253.05 155.0 Q251.45 158.95 252.15 164.45 252.65 168.15 254.25 170.25 L251.65 169.6 Q248.25 161.45 250.85 155.4 L251.15 154.8 Q252.75 151.45 254.7 149.2 M307.55 159.1 L309.1 160.3 Q312.45 163.5 312.35 169.2 312.25 178.5 302.3 179.65 L308.4 175.6 Q311.15 173.15 310.85 166.0 310.55 163.1 307.55 159.1 M302.65 169.5 L302.6 170.5 302.45 170.85 Q299.65 171.0 298.8 172.7 298.2 173.95 298.95 174.7 299.95 175.65 301.1 175.85 L299.3 176.6 296.55 173.85 298.25 170.2 302.65 169.5 M307.55 169.9 Q307.4 163.8 302.4 162.95 L302.5 162.4 304.45 162.55 304.65 161.75 304.6 161.4 304.75 161.5 Q305.3 161.75 305.8 162.15 L306.0 162.3 306.3 162.6 Q309.15 165.1 307.55 169.9 M261.2 176.5 L268.45 172.8 268.65 172.75 268.95 172.3 Q272.35 168.05 270.7 163.55 L267.05 160.85 Q268.75 160.85 270.4 162.0 274.7 166.25 272.8 170.25 269.2 176.7 261.2 176.5 M262.35 165.85 L263.85 165.95 265.45 163.6 266.9 164.55 266.05 164.85 Q264.45 166.35 265.95 167.65 263.4 168.95 262.45 166.8 L262.35 165.85" fill="#a87148" fill-rule="evenodd" stroke="none"/>
    <path d="M282.25 175.6 L283.65 175.9 281.45 180.1 282.55 180.7 278.3 186.05 278.3 186.1 278.25 186.1 277.35 185.45 271.0 190.35 270.25 189.65 Q270.9 189.2 271.6 188.7 278.8 183.45 282.25 175.6 M267.8 191.15 L268.25 191.45 267.15 192.15 267.5 192.7 Q264.9 193.75 262.35 194.75 L262.5 195.3 252.55 197.1 252.55 197.05 252.3 196.0 Q260.4 194.95 266.85 191.65 L267.8 191.15 M298.85 160.85 L298.75 160.5 298.75 160.45 296.25 160.85 296.1 160.55 296.2 160.5 297.4 159.5 297.4 159.4 297.15 158.8 294.4 159.65 294.1 159.05 Q296.8 157.3 299.95 157.35 L300.25 157.35 304.5 157.8 304.3 158.35 305.5 158.55 305.35 159.25 305.3 159.35 303.2 159.5 302.9 160.4 304.5 160.9 304.6 161.4 Q302.35 160.4 298.85 160.85 M264.65 138.6 L264.8 139.25 269.45 139.65 269.45 139.7 269.55 140.3 267.3 140.65 267.6 141.25 266.2 141.5 266.3 142.1 270.75 142.9 270.65 143.7 Q265.75 142.55 259.65 145.4 257.0 146.55 254.7 149.2 L254.1 148.9 250.0 153.75 250.8 151.15 250.85 149.55 Q252.2 147.15 254.15 144.7 259.25 139.45 264.65 138.6 M270.0 192.7 L269.45 191.9 271.25 190.95 272.2 191.65 270.0 192.7" fill="#d6ba9e" fill-rule="evenodd" stroke="none"/>
    <path d="M254.7 149.2 Q257.0 146.55 259.65 145.4 265.75 142.55 270.65 143.7 L270.6 144.05 266.15 144.75 266.2 145.35 266.2 145.45 266.25 145.5 269.8 146.25 269.7 146.65 Q260.75 145.85 255.9 150.7 254.05 152.55 253.05 154.95 L252.35 154.5 254.3 151.15 254.7 149.2 M302.4 162.95 L299.95 162.85 298.1 163.15 297.85 162.2 297.95 162.15 298.95 161.6 299.0 161.55 299.0 161.45 298.85 160.85 Q302.35 160.4 304.6 161.4 L304.65 161.75 304.45 162.55 302.5 162.4 302.4 162.95 M282.0 184.55 L283.1 182.0 283.7 182.15 283.1 184.85 282.0 184.55" fill="#c29970" fill-rule="evenodd" stroke="none"/>
    <path d="M309.65 188.2 L310.65 188.2 311.25 188.25 311.35 188.25 311.3 189.5 311.25 189.5 Q294.3 191.3 299.9 200.95 L299.7 201.1 299.55 201.15" ffdec:has-small-stroke="true" ffdec:original-stroke-width="0.8" fill="none" stroke="#000000" stroke-linecap="round" stroke-linejoin="round" stroke-opacity="0.3019608" stroke-width="1.0"/>
    <path d="M302.15 140.95 Q302.25 137.3 300.4 137.55 L300.05 137.75 Q293.9 140.3 292.35 154.1 L293.25 154.55 293.9 154.9 Q295.6 144.55 301.4 146.25 302.1 142.95 302.15 140.95 M284.6 163.8 Q284.95 166.25 284.45 168.55 283.65 172.3 282.25 175.6 278.8 183.45 271.6 188.7 270.9 189.2 270.25 189.65 L267.8 191.15 266.85 191.65 Q260.4 194.95 252.3 196.0 L252.25 196.0 245.95 196.5 246.35 198.75 246.45 199.3 263.1 198.75 Q278.75 190.05 290.25 195.7 294.3 197.7 297.9 201.55 L299.55 201.15 M309.65 188.2 L301.75 187.0 300.75 186.75 Q289.2 182.4 290.35 174.15 291.4 164.65 298.1 163.15 L299.95 162.85 302.4 162.95 Q307.4 163.8 307.55 169.9 L307.55 170.2 307.55 170.75 Q307.3 173.5 304.45 175.15 302.6 176.15 301.1 175.85 299.95 175.65 298.95 174.7 298.2 173.95 298.8 172.7 299.65 171.0 302.45 170.85 L302.6 170.5 302.65 169.5 302.7 168.0 Q297.3 167.7 295.0 172.05 292.25 179.35 300.85 179.75 L302.3 179.65 Q312.25 178.5 312.35 169.2 312.45 163.5 309.1 160.3 L307.55 159.1 Q306.15 158.25 304.5 157.8 L300.25 157.35 299.95 157.35 Q296.8 157.3 294.1 159.05 291.05 161.0 288.65 165.3 291.3 156.85 280.5 145.1 L280.3 144.9 Q274.75 139.7 269.45 138.65 267.0 138.2 264.65 138.6 259.25 139.45 254.15 144.7 252.2 147.15 250.85 149.55 L249.35 152.5 Q246.2 159.75 248.05 166.75 250.95 174.85 258.55 176.25 L261.2 176.5 Q269.2 176.7 272.8 170.25 274.7 166.25 270.4 162.0 268.75 160.85 267.05 160.85 265.55 160.8 264.0 161.65 262.15 162.5 262.35 165.85 L262.45 166.8 Q263.4 168.95 265.95 167.65 264.45 166.35 266.05 164.85 L266.9 164.55 Q269.55 163.8 268.45 167.75 267.2 171.9 260.7 172.75 256.4 173.05 254.25 170.25 252.65 168.15 252.15 164.45 251.45 158.95 253.05 155.0 L253.05 154.95 Q254.05 152.55 255.9 150.7 260.75 145.85 269.7 146.65 L269.8 146.65 270.2 146.7 Q276.5 148.05 281.1 155.05 284.05 159.55 284.6 163.8" ffdec:has-small-stroke="true" ffdec:original-stroke-width="0.8" fill="none" stroke="#000000" stroke-linecap="round" stroke-linejoin="round" stroke-opacity="0.3019608" stroke-width="1.0"/>
  </g>
</svg>
