<?xml version="1.0" encoding="UTF-8" standalone="no"?>
<svg xmlns:ffdec="https://www.free-decompiler.com/flash" xmlns:xlink="http://www.w3.org/1999/xlink" ffdec:objectType="shape" height="100.35px" width="111.9px" xmlns="http://www.w3.org/2000/svg">
  <g transform="matrix(1.0, 0.0, 0.0, 1.0, -214.95, -145.15)">
    <path d="M325.0 198.75 L325.8 199.05 325.0 198.95 325.0 198.75" fill="#9db3bf" fill-rule="evenodd" stroke="none"/>
    <path d="M325.0 198.95 Q309.45 197.3 278.55 207.8 L267.45 211.65 265.95 212.2 Q278.5 211.7 290.1 216.85 L276.95 213.95 Q271.3 213.15 261.6 213.85 L265.8 211.85 269.0 209.7 Q273.2 207.1 278.25 204.8 294.4 197.45 313.1 195.95 319.2 196.8 325.0 198.75 L325.0 198.95 M250.95 218.7 Q264.35 218.4 278.9 228.4 L275.5 226.95 274.05 226.3 250.95 218.7 M299.4 145.65 L299.45 146.4 Q294.85 168.65 283.8 184.65 L282.2 186.8 Q268.6 201.05 258.3 205.55 255.1 206.95 252.6 207.25 L250.75 207.2 Q252.95 198.45 252.5 188.2 251.45 176.05 251.15 168.75 253.2 181.85 253.65 189.0 254.3 198.65 252.9 205.1 267.35 197.3 278.65 184.55 L280.45 182.5 Q292.9 167.5 299.4 145.65" fill="#9a846d" fill-rule="evenodd" stroke="none"/>
    <path d="M290.1 216.85 Q296.55 219.7 302.7 224.3 279.55 214.35 250.85 218.65 L250.65 218.7 250.95 218.7 274.05 226.3 275.5 226.95 274.0 226.4 269.7 224.95 Q254.6 220.45 239.25 222.9 L236.5 224.15 239.2 220.5 235.55 220.75 245.55 210.15 240.4 210.65 Q249.0 195.25 250.95 167.35 L251.15 168.75 Q251.45 176.05 252.5 188.2 252.95 198.45 250.75 207.2 L252.6 207.25 Q255.1 206.95 258.3 205.55 268.6 201.05 282.2 186.8 L283.8 184.65 Q294.85 168.65 299.45 146.4 300.35 182.45 276.65 199.95 295.95 193.5 313.1 195.95 294.4 197.45 278.25 204.8 273.2 207.1 269.0 209.7 L265.8 211.85 261.6 213.85 Q271.3 213.15 276.95 213.95 L290.1 216.85" fill="url(#gradient0)" fill-rule="evenodd" stroke="none"/>
    <path d="M236.5 224.15 Q231.4 226.45 226.85 228.75 229.35 226.5 232.0 224.6 L232.1 224.5 232.15 224.4 232.4 224.3 234.55 223.05 233.8 223.25 233.0 223.4 228.45 224.1 Q233.85 220.5 238.0 214.55 227.6 216.15 215.45 216.45 228.5 214.95 239.95 210.85 L240.35 210.7 240.4 210.65 245.55 210.15 235.55 220.75 239.2 220.5 236.5 224.15" fill="#7c6a58" fill-rule="evenodd" stroke="none"/>
    <path d="M325.0 198.75 L325.8 199.05 325.0 198.95 Q309.45 197.3 278.55 207.8 L267.45 211.65 265.95 212.2 Q278.5 211.7 290.1 216.85 296.55 219.7 302.7 224.3 M250.95 218.7 Q264.35 218.4 278.9 228.4 L275.5 226.95 274.0 226.4 269.7 224.95 Q254.6 220.45 239.25 222.9 L236.5 224.15 Q231.4 226.45 226.85 228.75 L226.55 228.9 M325.0 198.75 Q319.2 196.8 313.1 195.95 295.95 193.5 276.65 199.95 M299.4 145.65 Q292.9 167.5 280.45 182.5 L278.65 184.55 Q267.35 197.3 252.9 205.1 254.3 198.65 253.65 189.0 253.2 181.85 251.15 168.75 L250.95 167.35 Q249.0 195.25 240.4 210.65 L240.35 210.7 239.95 210.85 Q228.5 214.95 215.45 216.45 M238.0 214.55 Q233.85 220.5 228.45 224.1 L233.0 223.4 233.8 223.25 234.55 223.05 232.4 224.3 232.15 224.4 232.1 224.5 232.0 224.6 Q229.35 226.5 226.85 228.75 M233.8 223.25 L232.4 224.3 232.15 224.4 M250.95 218.7 L250.65 218.7" fill="none" stroke="#000000" stroke-linecap="round" stroke-linejoin="round" stroke-opacity="0.6" stroke-width="1.0"/>
    <path d="M302.7 224.3 Q279.55 214.35 250.85 218.65 M325.0 198.95 L325.0 198.75 M299.45 146.4 L299.4 145.65 M299.45 146.4 Q300.35 182.45 276.65 199.95 M215.45 216.45 Q227.6 216.15 238.0 214.55" fill="none" stroke="#000000" stroke-linecap="round" stroke-linejoin="round" stroke-opacity="0.6" stroke-width="1.0"/>
    <path d="M250.85 218.65 L250.95 218.7 M250.65 218.7 L250.85 218.65 M275.5 226.95 L274.05 226.3" ffdec:has-small-stroke="true" ffdec:original-stroke-width="0.5" fill="none" stroke="#000000" stroke-linecap="round" stroke-linejoin="round" stroke-opacity="0.6" stroke-width="1.0"/>
    <path d="M285.5 217.15 Q288.75 217.95 291.2 218.85 293.35 219.7 294.05 220.2 L294.4 220.5 Q294.6 220.85 293.9 220.5 L291.3 219.5 Q286.75 217.95 282.55 217.8 281.9 217.3 282.2 216.95 282.35 216.7 282.9 216.55 L282.95 216.55 283.05 216.7 283.3 217.05 283.95 217.5 284.05 217.55 284.15 217.55 284.55 217.6 284.65 217.6 285.1 217.55 285.4 217.4 285.5 217.15 M303.45 242.65 L303.4 242.95 Q302.75 245.2 300.6 245.25 299.55 245.25 298.9 244.6 298.2 240.45 300.1 239.9 L300.1 240.1 Q300.2 241.0 300.85 241.5 L301.1 241.65 301.35 241.7 301.45 241.75 302.0 241.7 302.5 241.4 302.8 240.85 302.8 240.8 Q303.3 241.5 303.45 242.65" fill="#cccc00" fill-rule="evenodd" stroke="none"/>
    <path d="M322.45 216.3 L322.5 216.2 322.95 215.65 323.6 215.5 324.3 215.65 324.8 216.1 325.1 216.8 325.15 217.05 325.1 217.5 324.8 218.05 324.3 218.35 323.7 218.4 323.65 218.4 323.4 218.3 323.15 218.15 Q322.5 217.65 322.35 216.75 L322.35 216.55 322.45 216.3 M282.95 216.55 L282.9 216.1 Q282.95 215.75 283.25 215.6 283.85 215.3 284.45 215.6 L285.35 216.35 Q285.6 216.7 285.5 217.15 L285.4 217.4 285.1 217.55 284.65 217.6 284.55 217.6 284.15 217.55 284.05 217.55 283.95 217.5 283.3 217.05 283.05 216.7 282.95 216.55 M300.1 239.9 L300.2 239.5 300.65 239.0 301.3 238.8 302.0 239.0 302.5 239.4 302.8 240.15 302.8 240.8 302.8 240.85 302.5 241.4 302.0 241.7 301.45 241.75 301.35 241.7 301.1 241.65 300.85 241.5 Q300.2 241.0 300.1 240.1 L300.1 239.9" fill="#fefe67" fill-rule="evenodd" stroke="none"/>
    <path d="M285.5 217.15 Q285.6 216.7 285.35 216.35 L284.45 215.6 Q283.85 215.3 283.25 215.6 282.95 215.75 282.9 216.1 L282.95 216.55 282.9 216.55 Q282.35 216.7 282.2 216.95 281.9 217.3 282.55 217.8 286.75 217.95 291.3 219.5 L293.9 220.5 Q294.6 220.85 294.4 220.5 L294.05 220.2 Q293.35 219.7 291.2 218.85 288.75 217.95 285.5 217.15 M298.4 222.65 Q288.6 219.0 280.25 218.2 283.8 216.3 280.7 213.35 294.45 216.65 302.2 223.9 L302.1 224.1 Q301.1 225.8 301.0 228.9 L301.2 234.75 302.95 238.55 303.0 238.6 Q303.65 240.15 303.6 241.55 L303.45 242.65 Q303.3 241.5 302.8 240.8 L302.8 240.15 302.5 239.4 302.0 239.0 301.3 238.8 300.65 239.0 300.2 239.5 300.1 239.9 Q298.2 240.45 298.9 244.6 298.05 243.7 297.95 241.7 297.85 240.15 298.5 238.5 L300.2 234.55 300.5 228.3 Q300.5 225.75 298.6 222.7 L298.4 222.65" fill="url(#gradient1)" fill-rule="evenodd" stroke="none"/>
    <path d="M300.6 198.85 L300.75 199.0 301.3 199.25 302.3 199.5 302.55 199.5 302.6 199.5 303.15 199.35 303.25 199.25 303.8 198.95 304.1 198.6 304.15 198.25 304.8 198.1 306.85 197.85 312.15 197.4 314.2 197.35 316.5 197.55 317.05 197.75 Q317.5 198.05 316.45 198.05 L312.95 198.15 312.7 198.15 308.95 198.55 307.6 198.75 Q303.95 199.4 300.75 200.65 299.65 200.35 299.8 199.75 299.9 199.35 300.5 198.85 L300.6 198.85" fill="#fdfd13" fill-rule="evenodd" stroke="none"/>
    <path d="M304.15 198.25 L304.1 198.6 303.8 198.95 303.25 199.25 303.15 199.35 302.6 199.5 302.55 199.5 302.3 199.5 301.3 199.25 300.75 199.0 300.6 198.85 300.55 198.8 300.25 198.3 Q300.15 197.85 300.45 197.5 L300.6 197.35 Q301.15 196.8 301.95 196.9 302.8 196.9 303.45 197.35 L304.05 198.0 304.15 198.25" fill="#fefd81" fill-rule="evenodd" stroke="none"/>
    <path d="M310.95 199.3 L303.0 201.0 Q298.5 202.15 298.4 198.9 298.3 195.6 295.0 195.9 L291.9 195.95 Q292.05 195.65 304.9 193.3 317.5 190.95 325.0 198.65 L325.05 198.75 325.05 198.85 Q323.65 200.9 323.55 204.95 L323.8 211.9 325.9 216.35 326.5 218.3 325.15 217.05 325.1 216.8 324.8 216.1 324.3 215.65 323.6 215.5 322.95 215.65 322.5 216.2 322.45 216.3 Q320.85 216.85 319.95 220.45 L319.9 220.05 Q319.8 218.3 320.6 216.3 L322.6 211.65 322.95 204.25 Q322.95 201.05 321.45 199.0 L321.45 198.65 319.55 198.6 315.95 198.75 310.95 199.3 310.9 199.3 310.95 199.3 M300.6 198.85 L300.5 198.85 Q299.9 199.35 299.8 199.75 299.65 200.35 300.75 200.65 303.95 199.4 307.6 198.75 L308.95 198.55 312.7 198.15 312.95 198.15 316.45 198.05 Q317.5 198.05 317.05 197.75 L316.5 197.55 314.2 197.35 312.15 197.4 306.85 197.85 304.8 198.1 304.15 198.25 304.05 198.0 303.45 197.35 Q302.8 196.9 301.95 196.9 301.15 196.8 300.6 197.35 L300.45 197.5 Q300.15 197.85 300.25 198.3 L300.55 198.8 300.6 198.85" fill="url(#gradient2)" fill-rule="evenodd" stroke="none"/>
    <path d="M319.95 220.45 Q320.85 216.85 322.45 216.3 L322.35 216.55 322.35 216.75 Q322.5 217.65 323.15 218.15 L323.4 218.3 323.65 218.4 323.7 218.4 324.3 218.35 324.8 218.05 325.1 217.5 325.15 217.05 326.5 218.3 326.6 219.9 Q326.35 224.25 323.1 224.3 320.35 224.35 319.95 220.45" fill="#e3e302" fill-rule="evenodd" stroke="none"/>
    <path d="M325.05 198.75 L325.0 198.65 Q317.5 190.95 304.9 193.3 292.05 195.65 291.9 195.95 L295.0 195.9 Q298.3 195.6 298.4 198.9 298.5 202.15 303.0 201.0 L310.95 199.3 315.95 198.75 319.55 198.6 321.45 198.65 321.45 199.0 Q322.95 201.05 322.95 204.25 L322.6 211.65 320.6 216.3 Q319.8 218.3 319.9 220.05 L319.95 220.45 Q320.35 224.35 323.1 224.3 326.35 224.25 326.6 219.9 L326.5 218.3 325.9 216.35 323.8 211.9 323.55 204.95 Q323.65 200.9 325.05 198.85 M310.9 199.3 L310.95 199.3 M298.4 222.65 Q288.6 219.0 280.25 218.2 283.8 216.3 280.7 213.35 294.45 216.65 302.2 223.9 L302.6 224.3 302.1 224.1" ffdec:has-small-stroke="true" ffdec:original-stroke-width="0.5" fill="none" stroke="#000000" stroke-linecap="round" stroke-linejoin="round" stroke-opacity="0.6" stroke-width="1.0"/>
    <path d="M302.1 224.1 Q301.1 225.8 301.0 228.9 L301.2 234.75 302.95 238.55 303.0 238.6 Q303.65 240.15 303.6 241.55 L303.45 242.65 M303.4 242.95 Q302.75 245.2 300.6 245.25 299.55 245.25 298.9 244.6 298.05 243.7 297.95 241.7 297.85 240.15 298.5 238.5 L300.2 234.55 300.5 228.3 Q300.5 225.75 298.6 222.7 L298.4 222.65 M302.2 223.9 L302.1 224.1" ffdec:has-small-stroke="true" ffdec:original-stroke-width="0.5" fill="none" stroke="#000000" stroke-linecap="round" stroke-linejoin="round" stroke-opacity="0.6" stroke-width="1.0"/>
  </g>
  <defs>
    <linearGradient gradientTransform="matrix(0.0456, -0.0101, 0.011, 0.0495, 247.1, 192.6)" gradientUnits="userSpaceOnUse" id="gradient0" spreadMethod="pad" x1="-819.2" x2="819.2">
      <stop offset="0.0" stop-color="#836f52"/>
      <stop offset="1.0" stop-color="#d5c4a4"/>
    </linearGradient>
    <linearGradient gradientTransform="matrix(0.0287, 0.0013, -8.0E-4, 0.019, 292.2, 232.0)" gradientUnits="userSpaceOnUse" id="gradient1" spreadMethod="pad" x1="-819.2" x2="819.2">
      <stop offset="0.0" stop-color="#6d6d01"/>
      <stop offset="1.0" stop-color="#cccc00"/>
    </linearGradient>
    <linearGradient gradientTransform="matrix(0.0207, 0.0199, -0.0132, 0.0137, 289.3, 213.15)" gradientUnits="userSpaceOnUse" id="gradient2" spreadMethod="pad" x1="-819.2" x2="819.2">
      <stop offset="0.0" stop-color="#5c5b01"/>
      <stop offset="1.0" stop-color="#cccc00"/>
    </linearGradient>
  </defs>
</svg>
