<?xml version="1.0" encoding="UTF-8" standalone="no"?>
<svg xmlns:ffdec="https://www.free-decompiler.com/flash" xmlns:xlink="http://www.w3.org/1999/xlink" ffdec:objectType="shape" height="79.45px" width="59.8px" xmlns="http://www.w3.org/2000/svg">
  <g transform="matrix(1.0, 0.0, 0.0, 1.0, -254.0, -124.1)">
    <path d="M299.1 125.5 L299.8 125.35 Q283.0 139.55 271.05 156.75 278.75 148.1 288.65 140.9 L280.15 152.1 282.0 150.45 282.6 150.0 281.45 152.0 Q276.75 163.6 277.6 172.65 L285.55 162.3 286.65 166.2 280.0 177.1 Q285.0 178.75 290.85 172.9 L291.15 172.6 291.15 172.65 296.45 169.05 294.85 172.35 293.2 175.3 293.05 175.45 Q286.3 183.25 283.1 188.15 295.95 175.25 299.6 169.7 L313.3 154.7 Q299.0 179.1 286.75 191.05 L292.05 192.1 288.7 195.7 287.85 196.25 Q282.1 199.95 275.6 201.65 L272.15 202.4 265.55 203.05 Q256.45 192.45 262.55 180.8 L256.35 183.55 257.45 181.45 Q260.4 175.9 263.75 170.95 L264.35 170.15 Q260.55 162.3 269.6 149.95 L277.0 142.5 Q287.3 132.95 299.1 125.5 M274.9 194.4 L276.65 193.15 283.1 188.15 276.65 193.15 274.9 194.4" fill="#d8ccad" fill-rule="evenodd" stroke="none"/>
    <path d="M292.05 192.1 L286.75 191.05 Q299.0 179.1 313.3 154.7 L307.7 168.65 Q299.8 183.2 292.05 192.1 M296.45 169.05 L291.15 172.65 291.15 172.6 290.85 172.9 Q285.0 178.75 280.0 177.1 L286.65 166.2 285.55 162.3 277.6 172.65 Q276.75 163.6 281.45 152.0 L282.6 150.0 282.0 150.45 280.15 152.1 288.65 140.9 Q278.75 148.1 271.05 156.75 283.0 139.55 299.8 125.35 L303.9 124.6 Q293.35 137.4 292.2 157.25 293.1 159.75 293.5 164.15 296.45 161.9 299.15 156.1 301.7 150.4 302.15 145.5 303.85 152.95 300.65 160.2 L296.45 169.05 M291.7 163.8 L292.2 157.25 291.7 163.8" fill="url(#gradient0)" fill-rule="evenodd" stroke="none"/>
    <path d="M269.6 149.95 Q260.55 162.3 264.35 170.15 L263.75 170.95 Q260.4 175.9 257.45 181.45 L256.35 183.55 262.55 180.8 Q256.45 192.45 265.55 203.05 L261.05 202.95 Q253.8 197.8 254.55 182.45 254.7 178.8 255.3 174.65 L255.6 172.8 Q255.15 156.2 264.6 139.65 263.0 146.85 264.25 155.95 L269.6 149.95" fill="url(#gradient1)" fill-rule="evenodd" stroke="none"/>
    <path d="M299.1 125.5 Q287.3 132.95 277.0 142.5 L269.6 149.95 264.25 155.95 Q263.0 146.85 264.6 139.65 255.15 156.2 255.6 172.8 L255.3 174.65 Q254.7 178.8 254.55 182.45 253.8 197.8 261.05 202.95 L265.55 203.05 272.15 202.4 275.6 201.65 Q282.1 199.95 287.85 196.25 L288.7 195.7 292.05 192.1 Q299.8 183.2 307.7 168.65 L313.3 154.7 299.6 169.7 Q295.95 175.25 283.1 188.15 L276.65 193.15 274.9 194.4 M296.45 169.05 L300.65 160.2 Q303.85 152.95 302.15 145.5 301.7 150.4 299.15 156.1 296.45 161.9 293.5 164.15 293.1 159.75 292.2 157.25 L291.7 163.8 M299.8 125.35 L303.9 124.6 Q293.35 137.4 292.2 157.25 M296.45 169.05 L294.85 172.35 293.2 175.3 293.05 175.45 Q286.3 183.25 283.1 188.15" fill="none" stroke="#000000" stroke-linecap="round" stroke-linejoin="round" stroke-opacity="0.28235295" stroke-width="1.0"/>
  </g>
  <defs>
    <linearGradient gradientTransform="matrix(-0.0199, 0.0053, 0.0061, 0.0305, 281.0, 156.25)" gradientUnits="userSpaceOnUse" id="gradient0" spreadMethod="pad" x1="-819.2" x2="819.2">
      <stop offset="0.0" stop-color="#fffbea"/>
      <stop offset="1.0" stop-color="#d8ccad"/>
    </linearGradient>
    <linearGradient gradientTransform="matrix(-0.0188, -5.0E-4, -0.0026, 0.0274, 256.0, 172.1)" gradientUnits="userSpaceOnUse" id="gradient1" spreadMethod="pad" x1="-819.2" x2="819.2">
      <stop offset="0.0" stop-color="#d8ccad"/>
      <stop offset="1.0" stop-color="#b0a079"/>
    </linearGradient>
  </defs>
</svg>
