<?xml version="1.0" encoding="UTF-8" standalone="no"?>
<svg xmlns:ffdec="https://www.free-decompiler.com/flash" xmlns:xlink="http://www.w3.org/1999/xlink" ffdec:objectType="shape" height="31.95px" width="29.6px" xmlns="http://www.w3.org/2000/svg">
  <g transform="matrix(1.0, 0.0, 0.0, 1.0, -411.65, -236.35)">
    <path d="M419.75 263.85 L419.6 264.1 419.55 264.0 419.75 263.85" fill="#83a603" fill-rule="evenodd" stroke="none"/>
    <path d="M421.4 254.6 L422.15 260.85 419.75 263.85 419.55 264.0 Q419.7 260.7 416.95 260.0 L416.7 260.0 416.7 259.95 416.6 259.95 416.4 260.2 416.5 259.95 416.95 259.35 Q418.8 256.55 421.4 254.6" fill="#729903" fill-rule="evenodd" stroke="none"/>
    <path d="M426.3 254.35 L422.15 260.85 421.4 254.6 424.25 252.6 426.3 254.35" fill="#6b8c02" fill-rule="evenodd" stroke="none"/>
    <path d="M424.25 252.6 L421.4 254.6 421.0 254.55 Q418.95 254.25 416.9 255.35 L422.55 251.15 424.25 252.6" fill="#8ba603" fill-rule="evenodd" stroke="none"/>
    <path d="M413.55 259.85 Q414.35 257.35 416.5 255.75 L416.9 255.35 Q418.95 254.25 421.0 254.55 L421.4 254.6 Q418.8 256.55 416.95 259.35 L416.5 259.95 416.3 260.1 415.35 257.4 415.0 257.7 Q414.0 258.6 413.55 259.85" fill="#8ca803" fill-rule="evenodd" stroke="none"/>
    <path d="M419.55 264.0 Q416.35 266.65 412.55 267.95 L411.65 268.3 411.8 268.15 416.4 260.2 416.6 259.95 416.7 259.95 416.7 260.0 416.95 260.0 Q419.7 260.7 419.55 264.0 M416.3 260.1 L416.4 260.2 416.25 260.15 416.3 260.1" fill="#92b303" fill-rule="evenodd" stroke="none"/>
    <path d="M416.5 259.95 L416.4 260.2 416.3 260.1 416.5 259.95" fill="#a7c203" fill-rule="evenodd" stroke="none"/>
    <path d="M411.8 268.15 L413.2 261.05 413.25 261.0 413.35 260.55 413.45 260.25 413.55 259.85 Q414.0 258.6 415.0 257.7 L415.35 257.4 416.3 260.1 416.25 260.15 416.4 260.2 411.8 268.15" fill="#abcc04" fill-rule="evenodd" stroke="none"/>
    <path d="M422.15 260.85 L426.3 254.35 M422.15 260.85 L419.75 263.85 419.55 264.0 Q416.35 266.65 412.55 267.95 L411.65 268.3 M411.8 268.15 L413.2 261.05 M413.25 261.0 L413.35 260.55 413.45 260.25 413.55 259.85 Q414.35 257.35 416.5 255.75" ffdec:has-small-stroke="true" ffdec:original-stroke-width="0.05" fill="none" stroke="#000000" stroke-linecap="round" stroke-linejoin="round" stroke-opacity="0.3019608" stroke-width="1.0"/>
    <path d="M424.25 252.6 L421.4 254.6 422.15 260.85 M413.2 261.05 L413.25 261.0 M416.5 255.75 L416.9 255.35 Q418.95 254.25 421.0 254.55 L421.4 254.6 Q418.8 256.55 416.95 259.35 L416.5 259.95 416.4 260.2 411.8 268.15 M416.3 260.1 L416.5 259.95" ffdec:has-small-stroke="true" ffdec:original-stroke-width="0.05" fill="none" stroke="#000000" stroke-linecap="round" stroke-linejoin="round" stroke-opacity="0.15294118" stroke-width="1.0"/>
    <path d="M416.9 255.35 L422.55 251.15" ffdec:has-small-stroke="true" ffdec:original-stroke-width="0.05" fill="none" stroke="#000000" stroke-linecap="round" stroke-linejoin="round" stroke-opacity="0.2509804" stroke-width="1.0"/>
    <path d="M423.55 245.05 L423.5 245.1 423.1 245.2 Q420.9 246.05 419.95 247.95 420.8 246.85 422.0 246.15 L422.0 246.5 421.75 247.8 Q423.4 246.0 425.55 245.2 L426.25 244.85 426.2 244.85 423.55 245.05 426.2 244.85 426.85 244.75 427.3 244.6 430.4 244.35 430.4 244.15 430.3 244.0 430.25 243.85 429.15 243.15 429.1 243.15 429.05 243.15 429.0 243.2 428.9 243.25 Q426.75 243.8 424.7 244.7 L423.55 245.05 M421.8 247.85 L421.9 247.95 422.1 247.8 421.8 247.85 M428.9 243.25 L428.65 243.4 429.0 243.2 429.1 243.15 429.0 243.2 428.65 243.4 428.9 243.25" fill="#b8cf03" fill-rule="evenodd" stroke="none"/>
    <path d="M417.25 253.4 L417.3 253.45 422.15 253.1 423.4 252.8 424.1 250.25 424.25 249.65 Q423.85 248.15 422.3 247.85 L422.1 247.8 421.75 247.8 417.25 253.4 M426.2 244.85 L426.25 244.85 426.85 244.75 426.2 244.85 M421.8 247.85 L421.75 247.8 421.8 247.85 422.1 247.8 421.9 247.95 421.8 247.85 M422.1 248.25 L421.85 248.0 421.9 247.95 422.1 248.25 M430.4 244.35 L430.55 244.3 430.4 244.15 430.4 244.35" fill="#92b303" fill-rule="evenodd" stroke="none"/>
    <path d="M430.7 244.65 L433.1 243.5 432.75 242.65 430.3 244.0 430.4 244.15 430.55 244.3 430.7 244.65" fill="#a4bf03" fill-rule="evenodd" stroke="none"/>
    <path d="M426.9 250.55 L431.3 246.25 430.7 244.65 430.55 244.3 430.4 244.35 427.3 244.6 426.85 244.75 426.9 250.55" fill="#6b8c02" fill-rule="evenodd" stroke="none"/>
    <path d="M424.25 249.65 L424.5 252.4 426.15 251.15 426.9 250.55 426.85 244.75 426.25 244.85 425.55 245.2 Q423.4 246.0 421.75 247.8 L422.1 247.8 422.3 247.85 Q423.85 248.15 424.25 249.65" fill="#83a603" fill-rule="evenodd" stroke="none"/>
    <path d="M419.95 247.95 L419.9 248.0 419.9 248.05 419.75 248.4 419.7 248.45 419.3 249.2 417.25 253.4 421.75 247.8 422.0 246.5 422.0 246.15 Q420.8 246.85 419.95 247.95 M421.9 247.95 L421.85 248.0 422.1 248.25 421.9 247.95" fill="#bbd904" fill-rule="evenodd" stroke="none"/>
    <path d="M417.25 253.4 L417.3 253.45 M430.7 244.65 L433.1 243.5 432.75 242.65 430.3 244.0 430.4 244.15 430.55 244.3 430.7 244.65 M429.15 243.15 L429.4 243.1 429.1 243.15 429.05 243.15 429.0 243.2 428.9 243.25 428.65 243.4 429.0 243.2 429.1 243.15 429.15 243.15" ffdec:has-small-stroke="true" ffdec:original-stroke-width="0.05" fill="none" stroke="#000000" stroke-linecap="round" stroke-linejoin="round" stroke-opacity="0.2509804" stroke-width="1.0"/>
    <path d="M423.5 245.1 L423.1 245.2 Q420.9 246.05 419.95 247.95 L419.9 248.0 M419.7 248.45 L419.3 249.2 417.25 253.4 M417.3 253.45 L422.15 253.1 423.4 252.8 424.1 250.25 424.25 249.65 424.5 252.4 426.15 251.15 426.9 250.55 431.3 246.25 430.7 244.65 M430.3 244.0 L430.25 243.85 429.15 243.15 M428.9 243.25 Q426.75 243.8 424.7 244.7 L423.55 245.05" ffdec:has-small-stroke="true" ffdec:original-stroke-width="0.05" fill="none" stroke="#000000" stroke-linecap="round" stroke-linejoin="round" stroke-opacity="0.3019608" stroke-width="1.0"/>
    <path d="M423.55 245.05 L423.5 245.1 M419.75 248.4 L419.7 248.45 M423.55 245.05 L426.2 244.85 426.85 244.75 426.9 250.55 M426.25 244.85 L425.55 245.2 Q423.4 246.0 421.75 247.8 L417.25 253.4 M422.1 247.8 L421.75 247.8 421.8 247.85 421.9 247.95 422.1 247.8 M422.1 248.25 L421.9 247.95 M430.55 244.3 L430.4 244.35 427.3 244.6 426.85 244.75 426.25 244.85" ffdec:has-small-stroke="true" ffdec:original-stroke-width="0.05" fill="none" stroke="#000000" stroke-linecap="round" stroke-linejoin="round" stroke-opacity="0.15294118" stroke-width="1.0"/>
    <path d="M432.9 247.25 Q432.25 246.75 431.5 246.55 L431.0 246.6 430.9 246.65 430.9 246.7 431.0 246.6 430.9 246.7 430.85 246.7 430.6 246.9 430.75 246.8 Q427.45 248.9 425.9 250.1 L424.9 251.0 430.2 250.3 433.35 247.55 433.05 247.35 432.9 247.25" fill="#6b8c02" fill-rule="evenodd" stroke="none"/>
    <path d="M430.9 246.7 L430.75 246.8 430.85 246.7 430.75 246.8 430.6 246.9 430.85 246.7 430.9 246.7 M421.25 263.5 L421.25 263.6 421.25 263.55 421.25 263.5 M428.05 256.3 L429.85 259.55 431.4 257.4 431.95 256.5 432.6 255.0 434.85 250.45 435.25 249.6 434.75 248.9 433.7 247.85 433.35 247.55 430.2 250.3 Q427.55 252.9 425.45 255.85 427.25 254.3 428.05 256.3 M431.95 256.5 L430.2 250.3 431.95 256.5" fill="#b8cf03" fill-rule="evenodd" stroke="none"/>
    <path d="M424.9 251.0 L424.8 251.05 423.4 252.45 Q422.45 253.55 422.2 254.2 421.95 254.85 421.8 256.3 L421.7 256.5 Q426.25 252.35 425.4 255.9 L425.45 255.85 Q427.55 252.9 430.2 250.3 L424.9 251.0" fill="#83a603" fill-rule="evenodd" stroke="none"/>
    <path d="M421.25 263.55 Q424.0 262.9 426.55 261.8 L428.65 260.6 Q428.6 257.7 428.05 256.3 427.25 254.3 425.45 255.85 L425.4 255.9 Q422.9 259.4 421.25 263.5 L421.25 263.55" fill="#bbd904" fill-rule="evenodd" stroke="none"/>
    <path d="M421.7 256.5 L421.4 259.55 421.3 262.15 421.25 263.5 Q422.9 259.4 425.4 255.9 426.25 252.35 421.7 256.5" fill="#96b803" fill-rule="evenodd" stroke="none"/>
    <path d="M433.7 247.85 L436.25 245.55 435.3 244.65 432.9 247.25 433.05 247.35 433.35 247.55 433.7 247.85" fill="#a4bf03" fill-rule="evenodd" stroke="none"/>
    <path d="M431.5 246.55 L431.0 246.6 431.25 246.35 430.9 246.65 430.9 246.7 430.75 246.8 430.6 246.9 430.85 246.7 430.75 246.8 M433.7 247.85 L433.35 247.55 433.05 247.35 432.9 247.25 M430.9 246.65 L431.0 246.6 430.9 246.7 430.85 246.7" ffdec:has-small-stroke="true" ffdec:original-stroke-width="0.05" fill="none" stroke="#000000" stroke-linecap="round" stroke-linejoin="round" stroke-opacity="0.2509804" stroke-width="1.0"/>
    <path d="M433.7 247.85 L436.25 245.55 435.3 244.65 432.9 247.25 Q432.25 246.75 431.5 246.55 M430.75 246.8 Q427.45 248.9 425.9 250.1 L424.9 251.0 424.8 251.05 423.4 252.45 Q422.45 253.55 422.2 254.2 421.95 254.85 421.8 256.3 L421.7 256.5 421.4 259.55 421.3 262.15 421.25 263.5 421.25 263.6 421.25 263.55 Q424.0 262.9 426.55 261.8 L428.65 260.6 Q428.6 257.7 428.05 256.3 L429.85 259.55 431.4 257.4 431.95 256.5 432.6 255.0 434.85 250.45 435.25 249.6 434.75 248.9 433.7 247.85" ffdec:has-small-stroke="true" ffdec:original-stroke-width="0.05" fill="none" stroke="#000000" stroke-linecap="round" stroke-linejoin="round" stroke-opacity="0.3019608" stroke-width="1.0"/>
    <path d="M433.35 247.55 L430.2 250.3 424.9 251.0 M425.45 255.85 Q427.55 252.9 430.2 250.3 L431.95 256.5 M425.45 255.85 L425.4 255.9 Q422.9 259.4 421.25 263.5" ffdec:has-small-stroke="true" ffdec:original-stroke-width="0.05" fill="none" stroke="#000000" stroke-linecap="round" stroke-linejoin="round" stroke-opacity="0.15294118" stroke-width="1.0"/>
    <path d="M424.6 251.25 L424.1 249.25 423.3 252.5 424.6 251.25" fill="#8db303" fill-rule="evenodd" stroke="none"/>
    <path d="M423.3 252.5 L424.6 251.25" ffdec:has-small-stroke="true" ffdec:original-stroke-width="0.05" fill="none" stroke="#000000" stroke-linecap="round" stroke-linejoin="round" stroke-opacity="0.2" stroke-width="1.0"/>
    <path d="M417.3 253.5 L417.95 253.45 422.1 253.1 422.95 252.9 422.15 254.2 421.75 256.3 421.7 256.5 421.65 256.5 421.65 257.0 421.35 263.3 Q427.3 254.5 432.3 255.9 L432.75 254.95 433.15 253.95 434.85 250.4 435.25 249.65 434.7 248.9 433.7 247.85 436.15 245.6 435.3 244.6 432.85 247.2 433.0 247.3 432.85 247.2 431.5 246.55 431.0 246.65 430.9 246.65 430.9 246.6 430.85 246.7 431.3 246.25 430.7 244.6 433.1 243.5 432.75 242.6 430.35 244.0 430.4 244.15 430.35 244.0 430.25 243.85 429.15 243.15 429.1 243.15 429.0 243.2 428.9 243.25 Q426.75 243.8 424.65 244.65 L423.75 244.95 423.55 245.1 423.45 245.05 Q423.3 245.15 423.1 245.2 422.45 245.45 421.9 245.8 419.5 249.2 417.3 253.45 L417.3 253.5" fill="#5e3709" fill-opacity="0.5019608" fill-rule="evenodd" stroke="none"/>
    <path d="M417.3 253.45 L417.3 253.5 417.25 253.45 417.25 253.4 417.3 253.5 417.3 253.45" fill="#424d26" fill-opacity="0.3019608" fill-rule="evenodd" stroke="none"/>
    <path d="M417.25 253.45 Q417.8 252.15 417.25 253.4 L417.25 253.45" fill="#5e3909" fill-opacity="0.5019608" fill-rule="evenodd" stroke="none"/>
    <path d="M421.45 257.05 L421.65 257.0" ffdec:has-small-stroke="true" ffdec:original-stroke-width="0.1" fill="none" stroke="#000000" stroke-linecap="round" stroke-linejoin="round" stroke-opacity="0.3019608" stroke-width="1.0"/>
    <path d="M433.15 239.35 L432.85 239.4 432.25 239.3 431.4 240.5 430.6 241.15 Q429.6 241.75 428.3 241.55 426.4 241.25 425.6 239.65 L425.6 239.7 425.45 239.7 424.65 240.1 424.3 240.3 Q424.6 241.6 425.6 242.65 426.9 243.9 428.65 243.95 430.55 243.9 431.9 242.6 433.1 241.3 433.2 239.5 L433.15 239.35 M431.25 242.7 L431.05 243.05 430.6 243.25 430.45 243.3 430.2 243.1 Q430.1 242.95 430.3 242.85 L430.55 242.55 431.1 242.5 431.25 242.7 M432.3 240.7 L432.4 240.9 Q432.5 241.7 431.65 242.1 L431.2 242.15 Q430.7 242.25 430.65 241.75 430.7 241.3 431.1 241.0 431.7 240.4 432.3 240.7" fill="#cca528" fill-rule="evenodd" stroke="none"/>
    <path d="M433.4 239.35 L434.1 236.9 434.05 236.85 431.65 238.0 431.75 238.1 432.05 238.95 432.15 239.2 432.2 239.25 432.25 239.3 432.85 239.4 433.15 239.35 433.4 239.35 M424.85 238.5 L424.6 238.6 424.15 238.8 424.1 238.85 424.1 239.7 424.25 240.35 424.3 240.3 424.65 240.1 425.45 239.7 424.85 238.5" fill="#5e3a09" fill-rule="evenodd" stroke="none"/>
    <path d="M424.1 239.7 L423.75 240.7 Q423.4 241.75 424.45 242.0 L424.75 242.15 425.3 243.6 Q426.7 243.25 427.25 244.55 L428.95 244.7 Q429.85 245.15 430.4 244.05 430.5 243.85 430.7 243.9 L431.95 243.5 432.15 243.15 Q432.1 242.15 433.0 242.2 433.35 242.25 433.45 241.95 433.8 241.25 433.4 240.35 L433.35 240.2 433.4 239.35 433.15 239.35 433.2 239.5 Q433.1 241.3 431.9 242.6 430.55 243.9 428.65 243.95 426.9 243.9 425.6 242.65 424.6 241.6 424.3 240.3 L424.25 240.35 424.1 239.7" fill="#80681e" fill-rule="evenodd" stroke="none"/>
    <path d="M434.05 236.85 L432.75 236.75 431.95 236.9 Q431.65 236.85 431.6 237.3 L431.65 238.0 434.05 236.85" fill="#a86615" fill-rule="evenodd" stroke="none"/>
    <path d="M432.15 239.2 L432.05 239.3 432.0 239.3 431.5 239.45 Q430.8 239.9 430.55 240.7 L430.45 240.85 430.3 240.85 430.15 240.85 Q429.6 240.2 428.75 240.4 428.4 240.45 428.15 240.75 L428.1 240.8 Q427.65 241.2 427.45 240.6 L427.2 239.95 Q426.75 239.3 426.0 239.45 425.75 239.45 425.6 239.65 426.4 241.25 428.3 241.55 429.6 241.75 430.6 241.15 L431.4 240.5 432.25 239.3 432.2 239.25 432.15 239.2" fill="#fee481" fill-rule="evenodd" stroke="none"/>
    <path d="M426.0 239.45 L425.3 238.4 425.1 238.4 424.85 238.5 425.45 239.7 425.6 239.7 425.6 239.65 Q425.75 239.45 426.0 239.45" fill="#85510d" fill-rule="evenodd" stroke="none"/>
    <path d="M432.3 240.7 Q431.7 240.4 431.1 241.0 430.7 241.3 430.65 241.75 430.7 242.25 431.2 242.15 L431.65 242.1 Q432.5 241.7 432.4 240.9 L432.3 240.7 M431.25 242.7 L431.1 242.5 430.55 242.55 430.3 242.85 Q430.1 242.95 430.2 243.1 L430.45 243.3 430.6 243.25 431.05 243.05 431.25 242.7" fill="#c1851f" fill-rule="evenodd" stroke="none"/>
    <path d="M433.4 239.35 L434.1 236.9 434.05 236.85 432.75 236.75 431.95 236.9 Q431.65 236.85 431.6 237.3 L431.65 238.0 431.75 238.1 432.05 238.95 432.15 239.2 432.05 239.3 432.0 239.3 M426.0 239.45 L425.3 238.4 425.1 238.4 424.85 238.5 424.6 238.6 424.15 238.8 424.1 238.85 424.1 239.7 424.25 240.35 424.3 240.3 424.65 240.1 425.45 239.7 425.6 239.7 425.6 239.65 Q425.75 239.45 426.0 239.45 M425.3 243.6 Q426.7 243.25 427.25 244.55 M433.4 239.35 L433.15 239.35 432.85 239.4 432.25 239.3 432.2 239.25 432.15 239.2" ffdec:has-small-stroke="true" ffdec:original-stroke-width="0.05" fill="none" stroke="#000000" stroke-linecap="round" stroke-linejoin="round" stroke-opacity="0.2509804" stroke-width="1.0"/>
    <path d="M432.0 239.3 L431.5 239.45 Q430.8 239.9 430.55 240.7 L430.45 240.85 430.3 240.85 430.15 240.85 Q429.6 240.2 428.75 240.4 428.4 240.45 428.15 240.75 L428.1 240.8 Q427.65 241.2 427.45 240.6 L427.2 239.95 Q426.75 239.3 426.0 239.45 M424.1 239.7 L423.75 240.7 Q423.4 241.75 424.45 242.0 L424.75 242.15 425.3 243.6 M427.25 244.55 L428.95 244.7 Q429.85 245.15 430.4 244.05 430.5 243.85 430.7 243.9 L431.95 243.5 432.15 243.15 Q432.1 242.15 433.0 242.2 433.35 242.25 433.45 241.95 433.8 241.25 433.4 240.35 L433.35 240.2 433.4 239.35" ffdec:has-small-stroke="true" ffdec:original-stroke-width="0.05" fill="none" stroke="#000000" stroke-linecap="round" stroke-linejoin="round" stroke-opacity="0.3019608" stroke-width="1.0"/>
    <path d="M433.15 239.35 L433.2 239.5 Q433.1 241.3 431.9 242.6 430.55 243.9 428.65 243.95 426.9 243.9 425.6 242.65 424.6 241.6 424.3 240.3 M425.6 239.65 Q426.4 241.25 428.3 241.55 429.6 241.75 430.6 241.15 L431.4 240.5 432.25 239.3" ffdec:has-small-stroke="true" ffdec:original-stroke-width="0.05" fill="none" stroke="#000000" stroke-linecap="round" stroke-linejoin="round" stroke-opacity="0.101960786" stroke-width="1.0"/>
    <path d="M437.7 248.55 L437.9 248.35 438.0 248.25 438.1 247.4 438.0 247.1 438.75 246.5 Q439.0 246.05 438.9 245.4 438.75 244.8 438.3 244.45 L437.9 244.2 438.05 244.0 Q438.4 243.45 438.25 242.75 438.1 242.0 437.5 241.55 437.05 241.2 436.45 241.2 436.25 240.15 435.4 239.5 434.6 238.85 433.6 239.0 L433.45 239.05 Q432.0 240.7 432.25 242.25 433.3 244.2 436.0 243.5 435.3 245.35 436.55 246.35 436.05 247.6 436.9 248.2 L437.3 248.4 437.7 248.55 M436.45 241.2 L436.5 241.2 436.5 241.25 436.55 241.65 436.5 242.4 436.55 241.65 436.5 241.25 436.5 241.2 436.45 241.2 M437.15 247.0 L437.85 247.1 438.0 247.1 437.85 247.1 437.15 247.0" fill="#f1edc9" fill-rule="evenodd" stroke="none"/>
    <path d="M433.45 239.05 Q432.6 239.2 432.15 239.95 L431.9 240.45 431.35 240.45 431.1 240.5 Q430.3 244.6 431.7 247.4 432.85 248.55 433.6 248.35 434.0 249.4 435.0 249.45 L435.3 249.45 436.25 248.8 436.4 248.45 436.45 248.4 436.55 248.45 437.35 248.7 437.7 248.55 437.3 248.4 436.9 248.2 Q436.05 247.6 436.55 246.35 435.3 245.35 436.0 243.5 433.3 244.2 432.25 242.25 432.0 240.7 433.45 239.05 M434.85 247.45 L434.7 247.65 Q434.2 248.2 433.6 248.35 434.2 248.2 434.7 247.65 L434.85 247.45" fill="#b3a060" fill-rule="evenodd" stroke="none"/>
    <path d="M437.7 248.55 L437.9 248.35 438.0 248.25 438.1 247.4 438.0 247.1 438.75 246.5 Q439.0 246.05 438.9 245.4 438.75 244.8 438.3 244.45 L437.9 244.2 438.05 244.0 Q438.4 243.45 438.25 242.75 438.1 242.0 437.5 241.55 437.05 241.2 436.45 241.2 436.25 240.15 435.4 239.5 434.6 238.85 433.6 239.0 L433.45 239.05 Q432.6 239.2 432.15 239.95 L431.9 240.45 431.35 240.45 431.1 240.5 M431.7 247.4 Q432.85 248.55 433.6 248.35 434.0 249.4 435.0 249.45 L435.3 249.45 436.25 248.8 436.4 248.45 M436.45 248.4 L436.55 248.45 437.35 248.7 437.7 248.55 M436.5 242.4 L436.55 241.65 436.5 241.25 436.5 241.2 436.45 241.2 M438.0 247.1 L437.85 247.1 437.15 247.0" ffdec:has-small-stroke="true" ffdec:original-stroke-width="0.1" fill="none" stroke="#000000" stroke-linecap="round" stroke-linejoin="round" stroke-opacity="0.2509804" stroke-width="1.0"/>
    <path d="M433.6 248.35 Q434.2 248.2 434.7 247.65 L434.85 247.45" ffdec:has-small-stroke="true" ffdec:original-stroke-width="0.1" fill="none" stroke="#000000" stroke-linecap="round" stroke-linejoin="round" stroke-opacity="0.101960786" stroke-width="1.0"/>
    <path d="M433.45 239.05 L433.15 239.35 433.0 239.75 432.8 240.05 432.55 240.4 432.4 240.8 432.3 241.2 432.25 241.55 M432.25 241.65 L432.2 241.9 432.25 242.25 M436.0 243.5 L435.9 243.85 435.9 244.3 435.8 244.6 435.85 245.0 435.95 245.4 436.0 245.8 436.25 246.1 436.45 246.4 436.35 246.8 M436.4 246.9 Q436.3 247.0 436.35 247.25 L436.45 247.65 436.65 247.9 436.9 248.2" ffdec:has-small-stroke="true" ffdec:original-stroke-width="0.1" fill="none" stroke="#000000" stroke-linecap="round" stroke-linejoin="round" stroke-opacity="0.15294118" stroke-width="1.0"/>
    <path d="M437.0 241.6 L436.2 242.1 Q435.9 242.5 436.0 243.05 436.05 243.65 436.5 244.05 436.9 244.4 437.4 244.35 L438.15 243.95 Q438.45 243.5 438.4 242.9 L437.9 242.0 Q437.5 241.6 437.0 241.6" fill="url(#gradient0)" fill-rule="evenodd" stroke="none"/>
    <path d="M436.6 245.9 Q436.65 246.5 437.05 246.85 L437.95 247.2 438.75 246.75 438.95 245.75 Q438.85 245.2 438.45 244.8 438.05 244.45 437.6 244.45 437.05 244.5 436.8 244.9 436.5 245.35 436.6 245.9" fill="url(#gradient1)" fill-rule="evenodd" stroke="none"/>
    <path d="M431.4 240.9 L431.3 238.6 431.2 238.6 431.1 238.75 430.35 239.45 429.5 240.3 430.3 241.15 430.5 241.25 430.95 241.1 431.0 241.05 431.25 240.95 431.35 240.9 431.4 240.9 M424.85 243.6 L424.9 243.55 424.95 243.4 425.1 243.4 425.2 243.4 425.15 243.35 424.25 242.65 423.95 242.8 423.45 243.25 Q423.35 243.3 423.4 243.5 L423.65 243.95 423.65 244.2 424.0 244.65 424.05 244.55 424.7 243.9 424.85 243.6" fill="#5e3a09" fill-rule="evenodd" stroke="none"/>
    <path d="M429.5 240.3 L430.35 239.45 431.1 238.75 431.2 238.6 430.95 238.6 430.75 238.7 429.7 239.0 429.3 239.15 429.25 239.35 Q429.2 239.85 429.5 240.3" fill="#8a5611" fill-rule="evenodd" stroke="none"/>
    <path d="M431.4 240.9 L431.35 240.9 431.25 240.95 431.35 241.1 Q431.9 242.6 431.2 244.2 430.55 245.7 428.9 246.3 L425.9 246.2 Q424.7 245.65 424.05 244.55 L424.0 244.65 423.65 244.2 423.7 245.05 Q423.8 246.1 424.75 246.0 L425.0 246.0 425.95 247.1 Q427.05 246.35 427.95 247.25 428.65 246.7 429.45 246.85 430.3 246.95 430.5 245.85 430.45 245.65 430.65 245.6 431.2 245.4 431.6 244.9 L431.7 244.55 Q431.25 243.75 432.05 243.45 L432.4 243.1 Q432.4 242.35 431.75 241.8 L431.7 241.55 431.4 240.9" fill="#b39637" fill-rule="evenodd" stroke="none"/>
    <path d="M431.25 240.95 L431.0 241.05 430.95 241.1 430.5 241.25 430.3 242.1 430.6 242.3 430.55 242.95 430.25 243.6 429.95 243.8 429.35 243.75 429.35 243.65 Q428.75 244.2 427.85 244.4 426.2 244.7 424.85 243.6 L424.7 243.9 424.05 244.55 Q424.7 245.65 425.9 246.2 L428.9 246.3 Q430.55 245.7 431.2 244.2 431.9 242.6 431.35 241.1 L431.25 240.95 M429.75 244.1 L430.15 243.8 430.3 243.95 430.25 244.25 429.95 244.7 429.8 244.75 429.55 244.6 429.55 244.3 429.75 244.1" fill="#fad14d" fill-rule="evenodd" stroke="none"/>
    <path d="M430.5 241.25 L430.3 241.15 430.25 241.25 430.25 241.3 Q429.95 241.4 429.7 241.6 429.45 241.6 429.45 241.85 L429.45 242.8 429.95 242.25 430.1 242.1 430.3 242.1 430.5 241.25 M425.15 243.35 L425.2 243.4 425.1 243.4 424.95 243.4 424.9 243.55 424.85 243.6 Q426.2 244.7 427.85 244.4 428.75 244.2 429.35 243.65 L429.2 243.2 429.1 243.2 Q428.2 242.55 427.65 243.35 L427.4 243.8 426.85 243.85 426.35 243.4 425.15 243.35" fill="#ffd63d" fill-rule="evenodd" stroke="none"/>
    <path d="M429.2 243.2 L429.35 243.65 429.35 243.75 429.95 243.8 430.25 243.6 430.55 242.95 430.6 242.3 430.3 242.1 430.1 242.1 429.95 242.25 429.45 242.8 429.4 243.0 429.2 243.2 M429.75 244.1 L429.55 244.3 429.55 244.6 429.8 244.75 429.95 244.7 430.25 244.25 430.3 243.95 430.15 243.8 429.75 244.1" fill="#d89b31" fill-rule="evenodd" stroke="none"/>
    <path d="M431.2 238.6 L431.3 238.6 431.4 240.9 M431.35 240.9 L431.25 240.95 431.0 241.05 430.95 241.1 430.5 241.25 430.3 241.15 429.5 240.3 430.35 239.45 431.1 238.75 431.2 238.6 430.95 238.6 430.75 238.7 429.7 239.0 429.3 239.15 429.25 239.35 Q429.2 239.85 429.5 240.3 M424.85 243.6 L424.9 243.55 424.95 243.4 425.1 243.4 425.2 243.4 425.15 243.35 424.25 242.65 423.95 242.8 423.45 243.25 Q423.35 243.3 423.4 243.5 L423.65 243.95 423.65 244.2 424.0 244.65 424.05 244.55 424.7 243.9 424.85 243.6 M425.95 247.1 Q427.05 246.35 427.95 247.25 M430.25 241.3 L430.25 241.25 430.3 241.15" ffdec:has-small-stroke="true" ffdec:original-stroke-width="0.05" fill="none" stroke="#000000" stroke-linecap="round" stroke-linejoin="round" stroke-opacity="0.2509804" stroke-width="1.0"/>
    <path d="M425.15 243.35 L426.35 243.4 426.85 243.85 427.4 243.8 427.65 243.35 Q428.2 242.55 429.1 243.2 L429.2 243.2 M423.65 244.2 L423.7 245.05 Q423.8 246.1 424.75 246.0 L425.0 246.0 425.95 247.1 M427.95 247.25 Q428.65 246.7 429.45 246.85 430.3 246.95 430.5 245.85 430.45 245.65 430.65 245.6 431.2 245.4 431.6 244.9 L431.7 244.55 Q431.25 243.75 432.05 243.45 L432.4 243.1 Q432.4 242.35 431.75 241.8 L431.7 241.55 431.4 240.9 M429.45 242.8 L429.45 241.85 Q429.45 241.6 429.7 241.6 429.95 241.4 430.25 241.3" ffdec:has-small-stroke="true" ffdec:original-stroke-width="0.05" fill="none" stroke="#000000" stroke-linecap="round" stroke-linejoin="round" stroke-opacity="0.3019608" stroke-width="1.0"/>
    <path d="M429.35 243.65 Q428.75 244.2 427.85 244.4 426.2 244.7 424.85 243.6 M424.05 244.55 Q424.7 245.65 425.9 246.2 L428.9 246.3 Q430.55 245.7 431.2 244.2 431.9 242.6 431.35 241.1 L431.25 240.95 M430.3 242.1 L430.5 241.25" ffdec:has-small-stroke="true" ffdec:original-stroke-width="0.05" fill="none" stroke="#000000" stroke-linecap="round" stroke-linejoin="round" stroke-opacity="0.101960786" stroke-width="1.0"/>
    <path d="M433.6 242.2 L433.65 241.75 433.25 241.6 431.95 241.35 431.75 241.8 Q431.5 242.8 431.7 243.75 L431.75 244.1 432.2 244.25 432.3 244.2 432.4 244.1 432.6 243.75 432.85 243.5 433.0 243.2 433.55 242.3 433.6 242.2 M425.4 247.5 L424.55 247.15 Q423.95 247.8 423.7 248.55 L423.85 248.8 424.65 249.7 424.7 249.65 424.65 249.55 424.75 249.6 424.7 249.5 424.8 249.35 Q425.05 248.55 425.55 247.85 L425.65 247.75 425.7 247.7 425.6 247.7 425.4 247.5" fill="#8a5611" fill-rule="evenodd" stroke="none"/>
    <path d="M433.55 242.3 L433.0 243.2 432.85 243.5 432.6 243.75 432.4 244.1 432.6 243.95 432.9 243.85 433.25 243.7 433.3 243.75 433.6 242.25 433.55 242.3 M424.65 249.7 L425.1 250.15 425.25 249.85 425.85 248.05 425.9 247.75 425.75 247.7 425.7 247.7 425.65 247.75 425.55 247.85 Q425.05 248.55 424.8 249.35 L424.7 249.5 424.75 249.6 424.65 249.55 424.7 249.65 424.65 249.7" fill="#5e3a09" fill-rule="evenodd" stroke="none"/>
    <path d="M431.65 244.15 L431.55 244.2 431.4 244.3 431.3 244.3 431.15 244.3 431.05 244.45 430.9 244.5 430.6 245.0 Q430.5 245.45 430.7 245.65 L430.7 245.7 430.7 245.8 430.7 245.85 430.7 245.9 430.65 246.1 430.55 246.35 430.45 246.4 430.25 246.45 430.2 246.45 430.15 246.45 429.85 246.35 429.65 246.3 429.25 246.2 428.85 246.35 428.65 246.5 428.4 246.6 428.1 247.2 427.85 247.75 428.25 247.7 428.55 247.6 428.8 247.15 Q429.4 246.25 430.2 246.7 L430.65 246.25 431.1 245.6 431.1 245.2 431.4 244.85 431.5 244.8 431.65 244.15 M425.1 250.15 L425.75 251.2 428.15 251.25 Q429.1 250.55 430.1 250.65 431.3 250.8 431.45 249.4 431.5 249.15 431.7 249.1 L433.0 248.15 433.1 247.7 Q432.6 246.7 433.6 246.3 L434.0 245.9 Q434.1 244.95 433.35 244.25 L433.3 244.0 433.25 243.7 432.9 243.85 Q433.3 245.55 432.5 247.2 431.9 248.45 430.85 249.25 L430.8 249.6 430.35 250.1 430.15 250.1 429.8 250.0 429.75 249.9 429.55 250.0 Q427.6 250.75 425.7 250.0 L425.25 249.85 425.1 250.15" fill="#b39637" fill-rule="evenodd" stroke="none"/>
    <path d="M432.4 244.1 L432.3 244.2 432.1 244.4 432.1 244.5 431.5 244.8 431.4 244.85 431.1 245.2 431.1 245.6 431.0 246.75 430.75 246.9 430.55 246.9 430.2 246.7 Q429.4 246.25 428.8 247.15 L428.55 247.6 428.45 247.8 Q428.15 248.4 427.6 247.8 L427.65 247.8 427.05 247.3 Q426.35 246.75 425.5 247.3 L425.4 247.5 425.6 247.7 425.7 247.7 425.55 247.6 425.6 247.7 425.55 247.6 425.7 247.7 425.75 247.7 425.9 247.75 425.85 248.05 426.15 248.2 428.5 248.5 428.65 248.25 429.3 247.35 Q429.45 247.2 429.7 247.2 L430.15 247.35 430.15 247.95 431.3 246.95 431.95 245.95 432.5 244.15 432.6 243.95 432.4 244.1" fill="#ffd63d" fill-rule="evenodd" stroke="none"/>
    <path d="M432.3 244.2 L432.2 244.25 431.75 244.1 431.7 243.75 431.65 244.15 431.5 244.8 432.1 244.5 432.1 244.4 432.3 244.2 M427.85 247.75 L427.65 247.8 427.6 247.8 Q428.15 248.4 428.45 247.8 L428.55 247.6 428.25 247.7 427.85 247.75 M432.9 243.85 L432.6 243.95 432.5 244.15 431.95 245.95 431.3 246.95 430.15 247.95 430.15 248.2 429.65 248.95 429.3 249.3 428.55 249.2 Q428.3 248.95 428.5 248.5 L426.15 248.2 425.85 248.05 425.25 249.85 425.7 250.0 Q427.6 250.75 429.55 250.0 L429.75 249.9 429.85 249.7 430.05 249.4 430.6 249.05 Q430.8 249.0 430.8 249.2 L430.85 249.25 Q431.9 248.45 432.5 247.2 433.3 245.55 432.9 243.85 M431.1 245.6 L430.65 246.25 430.2 246.7 430.55 246.9 430.75 246.9 431.0 246.75 431.1 245.6" fill="#fad14d" fill-rule="evenodd" stroke="none"/>
    <path d="M430.85 249.25 L430.8 249.2 Q430.8 249.0 430.6 249.05 L430.05 249.4 429.85 249.7 429.75 249.9 429.8 250.0 430.15 250.1 430.35 250.1 430.8 249.6 430.85 249.25 M428.5 248.5 Q428.3 248.95 428.55 249.2 L429.3 249.3 429.65 248.95 430.15 248.2 430.15 247.95 430.15 247.35 429.7 247.2 Q429.45 247.2 429.3 247.35 L428.65 248.25 428.5 248.5" fill="#d89b31" fill-rule="evenodd" stroke="none"/>
    <path d="M431.7 243.75 Q431.5 242.8 431.75 241.8 L431.95 241.35 433.25 241.6 433.65 241.75 433.6 242.2 M431.75 244.1 L431.7 243.75 M431.65 244.15 L431.55 244.2 431.4 244.3 431.3 244.3 431.15 244.3 431.05 244.45 430.9 244.5 430.6 245.0 Q430.5 245.45 430.7 245.65 L430.7 245.7 430.7 245.8 430.7 245.85 430.7 245.9 430.65 246.1 430.55 246.35 430.45 246.4 430.25 246.45 430.2 246.45 430.15 246.45 429.85 246.35 429.65 246.3 429.25 246.2 428.85 246.35 428.65 246.5 428.4 246.6 428.1 247.2 427.85 247.75 M427.65 247.8 L427.05 247.3 Q426.35 246.75 425.5 247.3 M425.1 250.15 L425.75 251.2 428.15 251.25 Q429.1 250.55 430.1 250.65 431.3 250.8 431.45 249.4 431.5 249.15 431.7 249.1 L433.0 248.15 433.1 247.7 Q432.6 246.7 433.6 246.3 L434.0 245.9 Q434.1 244.95 433.35 244.25 L433.3 244.0 433.25 243.7 M433.3 243.75 L433.6 242.25" ffdec:has-small-stroke="true" ffdec:original-stroke-width="0.05" fill="none" stroke="#000000" stroke-linecap="round" stroke-linejoin="round" stroke-opacity="0.3019608" stroke-width="1.0"/>
    <path d="M433.6 242.2 L433.55 242.3 433.0 243.2 432.85 243.5 432.6 243.75 432.4 244.1 432.3 244.2 432.2 244.25 431.75 244.1 M425.4 247.5 L424.55 247.15 Q423.95 247.8 423.7 248.55 L423.85 248.8 424.65 249.7 425.1 250.15 425.25 249.85 425.85 248.05 426.15 248.2 428.5 248.5 M433.25 243.7 L433.3 243.75 M433.6 242.25 L433.6 242.2 M432.9 243.85 L432.6 243.95 432.4 244.1 M433.25 243.7 L432.9 243.85 Q433.3 245.55 432.5 247.2 431.9 248.45 430.85 249.25 M429.75 249.9 L429.55 250.0 Q427.6 250.75 425.7 250.0 L425.25 249.85 M430.15 247.95 L431.3 246.95 431.95 245.95 432.5 244.15 432.6 243.95 M425.7 247.7 L425.65 247.75 425.55 247.85 Q425.05 248.55 424.8 249.35 L424.7 249.5 424.75 249.6 424.65 249.55 424.7 249.65 424.65 249.7 M425.4 247.5 L425.6 247.7 425.7 247.7 425.55 247.6 425.6 247.7 M425.85 248.05 L425.9 247.75 425.75 247.7 425.7 247.7" ffdec:has-small-stroke="true" ffdec:original-stroke-width="0.05" fill="none" stroke="#000000" stroke-linecap="round" stroke-linejoin="round" stroke-opacity="0.101960786" stroke-width="1.0"/>
    <path d="M431.5 244.8 L432.1 244.5 432.1 244.4 432.3 244.2 M431.5 244.8 L431.4 244.85 431.1 245.2 431.1 245.6 431.0 246.75 430.75 246.9 430.55 246.9 430.2 246.7 Q429.4 246.25 428.8 247.15 L428.55 247.6 428.45 247.8 Q428.15 248.4 427.6 247.8 L427.65 247.8" ffdec:has-small-stroke="true" ffdec:original-stroke-width="0.05" fill="none" stroke="#000000" stroke-linecap="round" stroke-linejoin="round" stroke-opacity="0.2509804" stroke-width="1.0"/>
    <path d="M434.1 247.0 L434.85 246.35 435.65 245.5 435.7 245.45 435.75 245.4 435.95 244.95 435.55 244.8 434.3 244.25 434.15 244.6 Q433.65 245.3 433.55 246.1 L433.45 246.6 433.45 246.85 433.6 246.9 433.85 247.05 433.9 247.1 433.85 247.05 433.9 247.1 434.1 247.0 M433.85 247.05 L433.95 247.05 433.9 247.1 433.95 247.05 433.85 247.05 M429.25 250.05 L428.85 249.75 427.55 250.6 427.5 250.8 427.65 251.0 428.05 251.9 428.15 251.95 428.15 251.9 428.5 251.5 Q429.1 251.05 429.75 250.7 L429.8 250.65 429.4 250.25 429.25 250.05" fill="#8a5611" fill-rule="evenodd" stroke="none"/>
    <path d="M429.25 250.05 L429.4 250.25 429.8 250.25 429.75 250.15 429.55 250.1 429.25 250.05" fill="#b39637" fill-rule="evenodd" stroke="none"/>
    <path d="M435.0 246.9 L435.0 246.85 434.6 246.9 434.35 247.75 433.5 249.8 432.95 250.5 432.6 250.95 431.8 251.75 430.75 252.1 430.4 251.9 430.25 251.8 429.9 251.0 428.4 252.5 428.35 252.45 428.35 252.95 428.4 253.4 Q428.45 253.9 428.9 254.4 L428.9 254.45 429.35 254.55 429.35 254.5 429.85 254.6 430.2 254.55 430.25 254.6 430.5 254.5 431.0 254.2 430.95 254.25 431.1 254.15 431.2 254.1 431.2 254.05 431.45 253.9 432.15 253.15 432.35 253.05 432.4 252.9 432.5 252.75 432.7 252.45 434.05 250.1 434.35 249.55 434.65 248.85 434.75 248.7 434.75 248.6 434.8 248.45 434.9 247.85 435.0 247.65 434.95 247.55 435.0 247.5 434.95 247.55 435.0 247.65 434.9 247.85 434.95 247.7 435.0 247.65 435.0 247.6 434.95 247.55 435.0 247.5 435.0 247.35 435.0 247.2 435.0 247.15 435.0 246.9 M433.25 251.7 L433.15 251.75 432.95 252.15 433.25 251.7 M429.85 250.7 L429.85 250.6 429.8 250.25 429.4 250.25 429.8 250.65 429.85 250.7 M432.1 252.45 L432.2 252.55 432.2 252.85 431.7 253.45 431.55 253.5 431.2 253.4 431.2 253.0 431.6 252.6 431.9 252.4 432.1 252.45 M430.55 253.55 L430.4 253.8 430.15 254.05 430.0 254.05 Q429.55 254.05 429.3 253.7 L429.25 253.2 429.4 252.95 429.9 252.75 430.15 252.8 430.55 253.45 430.55 253.55 M430.9 254.15 L430.95 254.05 431.1 254.05 431.0 254.1 430.9 254.15 431.0 254.1 431.1 254.05 430.95 254.05 430.9 254.15" fill="#fad14d" fill-rule="evenodd" stroke="none"/>
    <path d="M433.85 247.05 L433.6 246.9 433.5 246.95 433.25 247.0 Q433.2 247.0 433.1 247.1 L433.0 247.4 433.0 247.9 Q433.0 248.55 432.65 248.8 L432.55 248.9 431.8 248.75 431.75 248.7 431.5 248.7 431.2 248.9 Q430.95 249.05 431.0 249.3 L431.15 249.85 431.15 249.9 431.25 250.35 431.0 250.85 430.95 250.9 430.85 250.95 430.8 250.95 430.7 251.05 430.6 251.1 430.5 251.15 430.45 251.15 430.35 251.1 430.3 251.15 430.25 251.1 430.15 251.05 Q430.1 251.1 429.95 250.95 L429.95 250.8 430.05 250.65 429.85 250.6 429.85 250.7 429.85 250.85 429.9 251.0 430.05 251.1 430.0 251.2 430.1 251.35 430.2 251.5 430.45 251.65 430.6 251.65 430.55 251.7 430.9 251.6 431.55 251.25 431.75 251.05 431.9 250.8 432.2 250.45 432.6 250.05 433.6 248.3 433.85 247.4 433.9 247.1 433.85 247.05" fill="#bd9a2d" fill-rule="evenodd" stroke="none"/>
    <path d="M435.7 245.45 L435.65 245.5 434.85 246.35 434.1 247.0 434.6 246.9 435.0 246.85 435.0 246.9 435.7 245.45 M428.35 252.45 L428.4 252.5 429.9 251.0 429.85 250.85 429.85 250.7 429.8 250.65 429.75 250.7 Q429.1 251.05 428.5 251.5 L428.15 251.9 428.15 251.95 428.05 251.9 428.35 252.45 M429.95 250.8 L429.95 250.95 430.0 250.85 429.95 250.8" fill="#5e3a09" fill-rule="evenodd" stroke="none"/>
    <path d="M428.9 254.45 L428.9 254.4 Q428.45 253.9 428.4 253.4 L428.35 252.95 428.35 252.45 428.05 251.9 427.65 251.0 427.5 251.25 Q427.25 251.8 427.25 252.3 L427.5 253.35 428.2 254.15 428.35 254.25 428.9 254.45" fill="#99802f" fill-rule="evenodd" stroke="none"/>
    <path d="M434.8 248.45 L434.75 248.6 434.75 248.7 434.65 248.85 434.35 249.55 434.05 250.1 432.7 252.45 432.5 252.75 432.4 252.9 432.35 253.05 432.15 253.15 431.45 253.9 431.2 254.05 431.2 254.1 431.9 254.15 432.15 254.15 432.5 254.0 432.95 253.45 433.0 253.15 432.95 252.2 432.95 252.15 433.15 251.75 433.25 251.7 433.3 251.7 434.05 251.5 434.55 251.2 434.65 250.65 434.55 250.05 434.55 249.35 Q434.6 249.15 434.8 249.1 L434.85 249.05 435.3 248.85 435.25 247.75 435.05 247.2 435.05 247.4 435.0 247.45 434.95 247.55 435.0 247.6 435.0 247.65 434.95 247.7 434.9 247.95 434.8 248.45 M430.95 254.25 L431.0 254.2 430.5 254.5 430.25 254.6 430.2 254.55 429.85 254.6 429.35 254.5 429.35 254.55 429.65 254.9 430.6 254.85 430.75 254.75 430.95 254.4 430.95 254.25" fill="#ffe694" fill-rule="evenodd" stroke="none"/>
    <path d="M434.1 247.0 L433.9 247.1 433.85 247.4 433.6 248.3 432.6 250.05 432.2 250.45 431.9 250.8 431.75 251.05 431.55 251.25 430.9 251.6 430.55 251.7 430.6 251.65 430.4 251.9 430.75 252.1 431.8 251.75 432.6 250.95 432.95 250.5 433.5 249.8 434.35 247.75 434.6 246.9 434.1 247.0" fill="#dbb743" fill-rule="evenodd" stroke="none"/>
    <path d="M433.6 246.9 L433.45 246.85 433.45 246.6 433.2 246.95 433.15 247.05 432.5 247.7 431.85 248.7 431.8 248.75 432.55 248.9 432.65 248.8 Q433.0 248.55 433.0 247.9 L433.0 247.4 433.1 247.1 Q433.2 247.0 433.25 247.0 L433.5 246.95 433.6 246.9 M429.9 251.0 L430.25 251.8 430.4 251.9 430.6 251.65 430.45 251.65 430.2 251.5 430.1 251.35 430.0 251.2 430.05 251.1 429.9 251.0 M429.95 250.95 Q430.1 251.1 430.15 251.05 L430.25 251.1 430.3 251.15 430.35 251.1 430.45 251.15 430.5 251.15 430.6 251.1 430.7 251.05 430.8 250.95 430.85 250.95 430.95 250.9 431.0 250.85 431.25 250.35 431.15 249.9 431.15 249.85 430.6 250.4 430.5 250.55 429.95 250.95" fill="#c2a23c" fill-rule="evenodd" stroke="none"/>
    <path d="M430.55 253.55 L430.55 253.45 430.15 252.8 429.9 252.75 429.4 252.95 429.25 253.2 429.3 253.7 Q429.55 254.05 430.0 254.05 L430.15 254.05 430.4 253.8 430.55 253.55 M432.1 252.45 L431.9 252.4 431.6 252.6 431.2 253.0 431.2 253.4 431.55 253.5 431.7 253.45 432.2 252.85 432.2 252.55 432.1 252.45" fill="#f2cb4a" fill-rule="evenodd" stroke="none"/>
    <path d="M435.7 245.45 L435.65 245.5 434.85 246.35 434.1 247.0 433.9 247.1 433.95 247.05 433.85 247.05 433.6 246.9 433.45 246.85 433.45 246.6 433.55 246.1 Q433.65 245.3 434.15 244.6 L434.3 244.25 435.55 244.8 435.95 244.95 435.75 245.4 435.7 245.45 435.0 246.9 435.1 246.95 435.0 247.15 435.0 246.9 M435.0 246.85 L434.6 246.9 434.1 247.0 M435.0 247.15 L435.0 247.2 435.0 247.35 435.0 247.5 434.95 247.55 435.0 247.65 434.9 247.85 434.8 248.45 434.75 248.6 434.75 248.7 434.65 248.85 434.35 249.55 434.05 250.1 432.7 252.45 432.5 252.75 432.4 252.9 432.35 253.05 432.15 253.15 431.45 253.9 431.2 254.05 431.2 254.1 431.1 254.15 430.95 254.25 M431.0 254.2 L430.5 254.5 430.25 254.6 430.2 254.55 429.85 254.6 429.35 254.5 M429.35 254.55 L428.9 254.45 428.9 254.4 Q428.45 253.9 428.4 253.4 L428.35 252.95 428.35 252.45 428.4 252.5 429.9 251.0 430.25 251.8 430.4 251.9 430.75 252.1 431.8 251.75 432.6 250.95 432.95 250.5 433.5 249.8 434.35 247.75 434.6 246.9 M435.05 247.2 L435.0 247.2 435.0 247.15 M435.0 247.45 L435.0 247.5 434.95 247.55 435.0 247.6 435.0 247.65 434.95 247.7 434.9 247.85 434.9 247.95 434.8 248.45 M435.05 247.4 L435.05 247.2 M431.8 248.75 L432.55 248.9 432.65 248.8 Q433.0 248.55 433.0 247.9 L433.0 247.4 433.1 247.1 Q433.2 247.0 433.25 247.0 L433.5 246.95 433.6 246.9 M433.9 247.1 L433.85 247.05 433.9 247.1 433.85 247.4 433.6 248.3 432.6 250.05 432.2 250.45 431.9 250.8 431.75 251.05 431.55 251.25 430.9 251.6 430.55 251.7 430.6 251.65 430.45 251.65 430.2 251.5 430.1 251.35 430.0 251.2 430.05 251.1 429.9 251.0 429.85 250.85 429.85 250.7 429.85 250.6 430.05 250.65 429.95 250.8 429.95 250.95 Q430.1 251.1 430.15 251.05 L430.25 251.1 430.3 251.15 430.35 251.1 430.45 251.15 430.5 251.15 430.6 251.1 430.7 251.05 430.8 250.95 430.85 250.95 430.95 250.9 431.0 250.85 431.25 250.35 431.15 249.9 431.15 249.85 431.0 249.3 Q430.95 249.05 431.2 248.9 L431.5 248.7 431.75 248.7 431.8 248.75 M429.25 250.05 L429.4 250.25 429.8 250.65 429.75 250.7 Q429.1 251.05 428.5 251.5 L428.15 251.9 428.15 251.95 428.05 251.9 427.65 251.0 M429.8 250.25 L429.4 250.25 M429.95 250.8 L430.0 250.85 429.95 250.95 M429.85 250.7 L429.8 250.65 M429.8 250.25 L429.85 250.6 M430.9 254.15 L431.0 254.1 431.1 254.05 430.95 254.05 430.9 254.15 M430.2 254.55 L429.85 254.6 M428.05 251.9 L428.35 252.45 M433.25 251.7 L432.95 252.15" ffdec:has-small-stroke="true" ffdec:original-stroke-width="0.05" fill="none" stroke="#000000" stroke-linecap="round" stroke-linejoin="round" stroke-opacity="0.101960786" stroke-width="1.0"/>
    <path d="M430.95 254.25 L431.0 254.2 M429.35 254.5 L429.35 254.55 429.65 254.9 430.6 254.85 430.75 254.75 430.95 254.4 430.95 254.25 M435.05 247.2 L435.25 247.75 435.3 248.85 434.85 249.05 434.8 249.1 Q434.6 249.15 434.55 249.35 L434.55 250.05 434.65 250.65 434.55 251.2 434.05 251.5 433.3 251.7 433.25 251.7 433.15 251.75 432.95 252.15 432.95 252.2 433.0 253.15 432.95 253.45 432.5 254.0 432.15 254.15 431.9 254.15 431.2 254.1 M431.8 248.75 L431.85 248.7 432.5 247.7 433.15 247.05 433.2 246.95 433.45 246.6 M427.65 251.0 L427.5 250.8 427.55 250.6 428.85 249.75 429.25 250.05 429.55 250.1 429.75 250.15 429.8 250.25 M427.65 251.0 L427.5 251.25 Q427.25 251.8 427.25 252.3 L427.5 253.35 428.2 254.15 428.35 254.25 428.9 254.45 M429.95 250.95 L430.5 250.55 430.6 250.4 431.15 249.85" ffdec:has-small-stroke="true" ffdec:original-stroke-width="0.05" fill="none" stroke="#000000" stroke-linecap="round" stroke-linejoin="round" stroke-opacity="0.3019608" stroke-width="1.0"/>
    <path d="M430.4 251.9 L430.6 251.65" ffdec:has-small-stroke="true" ffdec:original-stroke-width="0.05" fill="none" stroke="#000000" stroke-linecap="round" stroke-linejoin="round" stroke-opacity="0.2" stroke-width="1.0"/>
    <path d="M427.95 247.25 L428.15 247.1 428.1 247.2 427.85 247.75 427.65 247.8 427.05 247.3 Q426.55 246.85 426.05 247.1 427.1 246.4 427.95 247.25 M430.95 238.6 L430.75 238.7 429.7 239.0 429.3 239.15 429.25 239.35 Q429.2 239.85 429.5 240.3 L430.3 241.15 430.35 241.25 Q430.45 243.05 428.95 244.0 425.55 245.3 424.7 243.05 L424.6 243.0 424.25 242.65 423.95 242.8 423.45 243.25 Q423.35 243.3 423.4 243.5 L423.65 243.95 423.65 244.2 423.7 245.05 Q423.8 246.1 424.75 246.0 L425.0 246.0 425.95 247.1 425.5 247.3 425.4 247.5 424.55 247.15 Q423.95 247.8 423.7 248.55 L423.85 248.8 424.65 249.7 425.1 250.15 425.75 251.2 428.15 251.25 Q428.95 250.7 429.75 250.6 L429.75 250.75 429.8 250.85 430.4 251.85 Q433.2 250.95 433.8 246.8 L433.75 245.65 433.75 245.5 433.75 245.4 Q433.8 244.85 433.5 244.45 L433.3 244.0 433.25 243.7 433.3 243.75 433.6 242.25 433.55 242.3 433.6 242.2 433.65 241.75 433.25 241.6 431.95 241.35 431.75 241.8 431.7 241.55 431.4 240.9 431.3 238.6 431.2 238.6 430.95 238.6" fill="#5e3909" fill-opacity="0.5019608" fill-rule="evenodd" stroke="none"/>
    <path d="M429.75 250.75 L430.4 251.85 M433.8 246.8 Q434.35 246.2 433.75 245.5" ffdec:has-small-stroke="true" ffdec:original-stroke-width="0.1" fill="none" stroke="#000000" stroke-linecap="round" stroke-linejoin="round" stroke-opacity="0.15294118" stroke-width="1.0"/>
  </g>
  <defs>
    <radialGradient cx="0" cy="0" gradientTransform="matrix(-0.0012, -0.0011, -9.0E-4, 0.0013, 437.2, 243.0)" gradientUnits="userSpaceOnUse" id="gradient0" r="819.2" spreadMethod="pad">
      <stop offset="0.0" stop-color="#fffef2" stop-opacity="0.8"/>
      <stop offset="0.7686274509803922" stop-color="#fffef2"/>
      <stop offset="1.0" stop-color="#fffef2" stop-opacity="0.0"/>
    </radialGradient>
    <radialGradient cx="0" cy="0" gradientTransform="matrix(-0.0012, -0.0011, -9.0E-4, 0.0013, 437.75, 245.8)" gradientUnits="userSpaceOnUse" id="gradient1" r="819.2" spreadMethod="pad">
      <stop offset="0.0" stop-color="#fffef2"/>
      <stop offset="0.7686274509803922" stop-color="#fffef2"/>
      <stop offset="1.0" stop-color="#fffef2" stop-opacity="0.0"/>
    </radialGradient>
  </defs>
</svg>
