<?xml version="1.0" encoding="UTF-8" standalone="no"?>
<svg xmlns:ffdec="https://www.free-decompiler.com/flash" xmlns:xlink="http://www.w3.org/1999/xlink" ffdec:objectType="shape" height="60.4px" width="42.0px" xmlns="http://www.w3.org/2000/svg">
  <g transform="matrix(1.0, 0.0, 0.0, 1.0, -439.5, -25.25)">
    <path d="M464.25 25.9 Q464.55 26.4 464.25 27.85 L463.3 30.8 463.55 30.8 Q464.7 30.95 464.95 31.35 465.2 31.9 464.1 32.4 463.5 32.65 462.9 33.15 L463.55 33.95 Q464.8 33.4 464.85 33.8 L464.85 33.85 464.0 35.5 462.8 36.6 463.25 38.65 468.2 39.1 Q470.5 39.05 470.5 39.5 L470.5 39.6 470.5 39.65 470.5 39.75 468.95 40.6 Q466.8 41.4 464.25 41.45 L467.5 43.15 Q469.1 44.15 469.35 44.7 L469.3 44.9 467.2 44.6 Q465.9 44.15 464.5 43.95 L464.65 44.6 466.85 46.0 468.25 47.45 Q468.35 47.95 466.5 47.0 L465.1 46.55 465.1 46.6 465.15 47.0 465.4 48.1 465.95 48.55 Q468.5 51.2 470.2 53.95 L471.2 55.95 Q471.05 56.3 469.05 54.2 L466.25 51.45 466.7 53.3 Q468.05 55.5 468.8 57.65 469.25 59.3 469.1 59.55 468.9 59.7 468.2 58.75 L468.5 59.7 468.55 59.9 Q471.25 70.45 479.15 74.7 L481.0 75.6 479.15 75.6 477.75 75.85 476.15 76.3 475.3 76.8 474.35 77.3 476.05 81.35 468.25 81.2 465.4 80.9 Q463.15 81.25 461.55 81.9 459.85 82.35 458.75 82.95 L457.95 83.45 457.75 83.6 Q456.75 84.3 456.25 85.15 450.1 82.9 450.0 70.15 L450.0 69.9 Q449.7 63.85 449.95 56.2 L449.85 55.75 449.9 53.45 449.25 54.35 Q448.05 56.3 447.85 55.9 447.7 55.5 448.15 53.9 448.85 51.95 450.0 50.15 L450.0 49.7 Q448.1 51.25 446.75 52.95 445.15 54.95 444.9 54.45 444.8 53.9 445.6 52.05 446.5 50.0 447.75 48.3 445.75 49.6 443.7 50.4 L442.4 50.85 442.25 50.9 440.05 51.15 Q439.75 50.75 442.0 49.3 444.25 47.8 446.65 45.4 L447.0 45.05 Q448.45 43.6 449.7 42.8 L449.6 42.8 448.7 43.2 448.5 43.25 447.25 43.55 443.4 43.65 Q441.85 43.35 441.55 42.95 441.35 42.55 443.0 42.15 L443.45 42.0 443.65 41.95 444.7 41.65 Q446.2 41.1 447.85 40.15 L448.25 40.0 448.9 39.65 448.8 39.65 Q447.05 39.55 445.75 40.1 L444.4 40.2 Q444.4 39.5 445.15 38.5 L445.5 38.2 Q444.05 37.85 442.7 36.95 441.55 36.15 441.5 35.55 441.5 34.95 443.1 35.15 L446.65 34.7 447.0 34.55 447.95 34.4 446.95 33.3 Q446.3 32.4 446.3 31.9 446.4 31.35 447.55 31.9 448.75 32.55 450.3 32.45 L450.6 32.4 Q451.65 32.45 452.45 32.85 L452.6 32.7 452.85 31.9 Q453.05 30.9 453.45 31.3 L453.65 31.55 453.85 31.3 454.35 31.5 Q454.4 31.2 455.0 31.7 L455.2 31.85 455.6 32.0 Q455.75 31.0 456.55 30.1 L456.7 29.85 Q457.8 28.7 458.25 27.5 458.6 26.1 458.95 26.5 459.35 26.8 459.4 28.0 L459.35 30.0 460.2 29.3 460.5 29.05 Q462.05 28.1 463.0 26.8 463.9 25.35 464.25 25.9 M462.0 34.1 L462.15 34.5 463.05 34.15 463.15 34.1 462.0 34.1 Z" fill="none" stroke="#000000" stroke-linecap="round" stroke-linejoin="round" stroke-opacity="0.29803923" stroke-width="1.0"/>
    <path d="M460.7 32.15 Q461.7 33.25 462.2 34.65 L462.4 34.85 465.1 46.6 465.15 47.0 Q466.8 54.1 468.5 59.7 L468.55 59.9 Q471.25 70.45 479.15 74.7 L481.0 75.6 479.15 75.6 477.75 75.85 Q473.0 73.05 469.25 69.3 471.6 74.55 475.3 76.8 L474.35 77.3 470.75 74.9 Q466.4 69.75 463.3 60.4 L463.15 60.0 462.3 56.9 Q461.45 53.75 460.85 50.15 L460.05 44.55 460.05 44.35 459.6 40.95 458.75 37.55 Q458.05 35.95 456.9 34.55 L460.7 32.15" fill="#c1c8d9" fill-rule="evenodd" stroke="none"/>
    <path d="M452.4 36.55 Q454.8 35.7 456.9 34.55 458.05 35.95 458.75 37.55 L459.6 40.95 460.05 44.35 460.05 44.55 457.1 44.55 454.95 47.95 454.95 44.45 454.55 41.05 Q454.05 38.65 452.4 36.55 M464.4 74.15 Q461.75 66.4 460.3 57.3 463.95 68.45 466.15 71.45 468.25 74.25 470.9 76.1 469.55 75.4 466.8 76.8 464.85 77.7 464.85 78.8 L463.0 77.4 Q460.85 75.85 460.15 71.3 462.2 74.3 464.4 74.15" fill="#c3c8d0" fill-rule="evenodd" stroke="none"/>
    <path d="M465.4 80.9 Q463.15 81.25 461.55 81.9 459.45 81.9 457.1 78.95 456.8 81.4 457.75 83.6 456.75 84.3 456.25 85.15 450.1 82.9 450.0 70.15 L450.0 69.9 Q449.7 63.85 449.95 56.2 L449.85 55.75 450.1 43.15 450.1 42.9 Q449.7 40.45 448.0 37.95 L448.15 37.9 449.25 37.65 452.4 36.55 Q454.05 38.65 454.55 41.05 L454.95 44.45 454.95 47.95 455.05 53.95 455.35 56.6 455.5 57.75 455.5 58.05 456.4 68.9 Q457.05 73.15 459.75 76.8 462.55 79.7 464.15 80.1 L464.4 80.35 465.25 80.8 465.4 80.9" fill="#cfd7eb" fill-rule="evenodd" stroke="none"/>
    <path d="M474.35 77.3 L476.05 81.35 468.25 81.2 465.4 80.9 465.25 80.8 464.4 80.35 464.15 80.1 Q460.5 77.7 459.0 73.4 457.1 68.25 456.6 65.2 455.95 62.0 455.5 58.05 L455.5 57.75 455.35 56.6 455.05 53.95 454.95 47.95 457.1 44.55 460.05 44.55 460.85 50.15 Q461.45 53.75 462.3 56.9 L463.15 60.0 463.3 60.4 464.4 64.1 Q465.55 68.05 467.5 71.35 468.4 73.05 470.75 74.9 L474.35 77.3 M464.4 74.15 Q462.2 74.3 460.15 71.3 460.85 75.85 463.0 77.4 L464.85 78.8 Q464.85 77.7 466.8 76.8 469.55 75.4 470.9 76.1 468.25 74.25 466.15 71.45 463.95 68.45 460.3 57.3 461.75 66.4 464.4 74.15" fill="#faf7eb" fill-rule="evenodd" stroke="none"/>
    <path d="M477.75 75.85 L476.15 76.3 475.3 76.8 Q471.6 74.55 469.25 69.3 473.0 73.05 477.75 75.85 M461.55 81.9 Q459.85 82.35 458.75 82.95 L457.95 83.45 457.75 83.6 Q456.8 81.4 457.1 78.95 459.45 81.9 461.55 81.9 M455.5 58.05 Q455.95 62.0 456.6 65.2 457.1 68.25 459.0 73.4 460.5 77.7 464.15 80.1 462.55 79.7 459.75 76.8 457.05 73.15 456.4 68.9 L455.5 58.05 M470.75 74.9 Q468.4 73.05 467.5 71.35 465.55 68.05 464.4 64.1 L463.3 60.4 Q466.4 69.75 470.75 74.9" fill="#abb1c2" fill-rule="evenodd" stroke="none"/>
    <path d="M448.0 37.95 L448.15 37.9 449.25 37.65 452.4 36.55 M456.9 34.55 L460.7 32.15" ffdec:has-small-stroke="true" ffdec:original-stroke-width="0.05" fill="none" stroke="#000000" stroke-linecap="round" stroke-linejoin="round" stroke-width="1.0"/>
    <path d="M460.7 32.15 Q461.7 33.25 462.2 34.65 L462.4 34.85 465.1 46.6 465.15 47.0 Q466.8 54.1 468.5 59.7 L468.55 59.9 Q471.25 70.45 479.15 74.7 L481.0 75.6 479.15 75.6 477.75 75.85 476.15 76.3 475.3 76.8 474.35 77.3 476.05 81.35 468.25 81.2 465.4 80.9 Q463.15 81.25 461.55 81.9 459.85 82.35 458.75 82.95 L457.95 83.45 457.75 83.6 Q456.75 84.3 456.25 85.15 450.1 82.9 450.0 70.15 L450.0 69.9 Q449.7 63.85 449.95 56.2 L449.85 55.75 450.1 43.15 450.1 42.9 Q449.7 40.45 448.0 37.95 M452.4 36.55 Q454.8 35.7 456.9 34.55 458.05 35.95 458.75 37.55 L459.6 40.95 460.05 44.35 M452.4 36.55 Q454.05 38.65 454.55 41.05 L454.95 44.45 454.95 47.95 455.05 53.95 455.35 56.6 455.5 57.75 455.5 58.05 Q455.95 62.0 456.6 65.2 457.1 68.25 459.0 73.4 460.5 77.7 464.15 80.1 L464.4 80.35 465.25 80.8 465.4 80.9 M463.3 60.4 L463.15 60.0 462.3 56.9 Q461.45 53.75 460.85 50.15 L460.05 44.55 M470.75 74.9 Q468.4 73.05 467.5 71.35 465.55 68.05 464.4 64.1 L463.3 60.4 M470.75 74.9 L474.35 77.3" ffdec:has-small-stroke="true" ffdec:original-stroke-width="0.05" fill="none" stroke="#000000" stroke-linecap="round" stroke-linejoin="round" stroke-opacity="0.29803923" stroke-width="1.0"/>
    <path d="M454.7 38.8 L455.35 39.25 Q455.4 39.65 454.9 40.1 L454.1 40.8 454.9 40.9 Q455.05 41.2 454.65 41.8 L454.9 41.65 455.65 41.75 Q455.8 42.05 455.55 42.75 L454.7 44.45 455.2 44.05 Q455.65 43.85 455.8 44.05 L455.8 44.85 Q455.05 46.3 454.5 45.85 L454.25 45.9 453.8 46.05 453.85 45.9 454.1 45.45 454.7 44.45 454.1 45.45 453.85 45.9 454.2 45.0 Q454.25 44.15 453.95 43.6 L452.95 43.75 452.0 44.05 451.55 44.2 452.15 43.7 452.65 42.6 Q452.25 41.95 451.4 42.15 451.45 42.05 451.55 42.05 L452.15 41.5 453.2 39.9 Q452.95 39.05 451.8 38.75 L452.25 38.75 454.7 38.8 M454.65 41.8 L453.35 42.75 452.15 43.7 453.35 42.75 454.65 41.8 M454.25 48.4 L454.25 49.0 454.2 49.55 454.5 49.7 454.35 50.15 453.95 50.8 454.7 50.4 Q455.4 50.0 455.8 50.15 L457.05 51.25 457.2 51.4 Q456.4 51.1 455.65 51.7 L455.55 51.85 455.4 52.4 Q455.1 53.1 455.05 53.95 L454.8 52.5 454.8 52.2 454.55 52.2 Q453.8 53.35 453.4 55.05 L453.55 53.4 453.65 52.25 453.85 50.95 454.2 49.55 454.05 48.7 454.25 48.4 M455.9 61.1 L455.65 60.15 455.8 57.85 455.9 57.3 455.95 57.0 456.5 57.85 456.05 58.05 Q455.75 59.45 455.9 61.1 M454.8 51.0 L454.8 52.2 454.8 51.0" fill="#cfd7eb" fill-rule="evenodd" stroke="none"/>
    <path d="M451.8 38.75 Q452.95 39.05 453.2 39.9 L452.15 41.5 451.55 42.05 Q451.45 42.05 451.4 42.15 452.25 41.95 452.65 42.6 L452.15 43.7 451.55 44.2 451.25 44.55 449.85 45.85 451.25 44.55 451.55 44.2 452.0 44.05 452.95 43.75 453.95 43.6 Q454.25 44.15 454.2 45.0 L453.85 45.9 453.8 46.05 454.25 45.9 454.5 45.85 Q455.05 46.3 455.8 44.85 455.4 47.25 454.25 48.4 L454.05 48.7 452.5 50.5 454.05 48.7 454.2 49.55 453.85 50.95 453.65 52.25 453.55 53.4 453.25 54.5 Q453.95 51.65 452.85 51.7 L451.15 53.8 451.7 51.55 451.85 51.2 452.25 50.7 452.5 50.5 Q453.7 49.0 453.25 48.3 L453.1 48.15 451.8 48.3 451.05 48.95 451.55 48.3 452.25 47.1 Q452.3 46.55 452.0 46.05 L449.85 45.85 449.3 46.3 449.85 44.45 Q449.3 43.2 447.2 45.0 L450.0 42.65 449.6 42.85 450.7 40.5 Q450.4 39.05 448.45 39.95 450.3 38.9 451.8 38.75 M457.2 51.4 Q457.75 52.35 457.95 53.95 457.6 52.35 456.5 53.25 L455.4 55.45 455.1 54.25 455.05 53.95 455.1 54.25 455.4 55.45 455.9 56.9 455.95 57.0 455.9 57.3 455.9 56.9 455.55 56.2 Q455.05 55.1 454.8 55.2 L453.35 57.45 453.4 55.5 453.4 55.05 Q453.8 53.35 454.55 52.2 L454.8 52.2 454.8 52.5 455.05 53.95 Q455.1 53.1 455.4 52.4 L455.55 51.85 455.65 51.7 Q456.4 51.1 457.2 51.4 M458.05 59.05 L459.0 61.6 Q458.2 59.4 457.2 60.45 L456.65 63.15 456.05 61.45 455.9 61.1 Q455.75 59.45 456.05 58.05 L456.5 57.85 457.65 58.85 458.05 59.05 M453.8 46.05 L451.8 48.3 453.8 46.05" fill="#e9edf5" fill-rule="evenodd" stroke="none"/>
    <path d="M457.95 53.95 L458.15 54.95 Q458.2 56.05 458.8 57.5 459.35 59.0 459.0 59.2 L458.05 59.05 457.65 58.85 456.5 57.85 455.95 57.0 455.9 56.9 455.4 55.45 456.5 53.25 Q457.6 52.35 457.95 53.95 M459.0 61.6 L459.05 62.15 Q459.85 64.95 460.85 66.95 461.85 68.9 461.45 69.2 461.05 69.45 459.9 68.35 458.2 66.8 456.95 64.25 L456.65 63.15 457.2 60.45 Q458.2 59.4 459.0 61.6 M455.65 60.15 Q455.5 61.95 455.65 63.4 455.9 65.95 455.4 65.95 455.05 65.85 454.35 64.35 453.5 61.75 453.25 58.7 L453.35 57.45 454.8 55.2 Q455.05 55.1 455.55 56.2 L455.9 56.9 455.9 57.3 455.8 57.85 455.65 60.15 M453.25 54.5 L453.1 55.1 Q452.1 58.75 451.7 61.7 451.25 64.7 450.95 64.55 450.6 64.4 450.45 62.25 450.25 59.0 450.85 55.3 L451.15 53.8 452.85 51.7 Q453.95 51.65 453.25 54.5 M451.85 51.2 Q450.3 52.8 449.25 54.35 448.05 56.3 447.85 55.9 447.7 55.5 448.15 53.9 449.0 51.5 450.55 49.25 448.3 51.0 446.75 52.95 445.15 54.95 444.9 54.45 444.8 53.9 445.6 52.05 446.5 50.0 447.75 48.3 445.15 50.0 442.4 50.85 L440.25 51.1 Q439.95 50.7 442.2 49.25 444.45 47.8 446.85 45.4 L447.2 45.0 Q449.3 43.2 449.85 44.45 L449.3 46.3 449.0 46.6 447.75 48.3 449.0 46.6 449.3 46.3 449.85 45.85 452.0 46.05 Q452.3 46.55 452.25 47.1 L451.55 48.3 451.05 48.95 451.8 48.3 453.1 48.15 453.25 48.3 Q453.7 49.0 452.5 50.5 L452.25 50.7 451.85 51.2 M449.6 42.85 L448.7 43.2 443.6 43.6 Q442.05 43.3 441.75 42.9 441.5 42.45 443.65 41.95 445.75 41.45 448.05 40.1 L448.45 39.95 Q450.4 39.05 450.7 40.5 L449.6 42.85 M450.55 49.25 L450.6 49.15 450.95 48.95 451.0 48.95 451.05 48.95 451.0 48.95 450.95 48.95 450.6 49.15 450.55 49.25" fill="#faf7eb" fill-rule="evenodd" stroke="none"/>
    <path d="M454.7 38.8 L452.25 38.75 451.8 38.75 Q450.3 38.9 448.45 39.95 L448.05 40.1 Q445.75 41.45 443.65 41.95 441.5 42.45 441.75 42.9 442.05 43.3 443.6 43.6 L448.7 43.2 449.6 42.85 450.0 42.65 447.2 45.0 446.85 45.4 Q444.45 47.8 442.2 49.25 439.95 50.7 440.25 51.1 L442.4 50.85 Q445.15 50.0 447.75 48.3 L449.0 46.6 449.3 46.3 449.85 45.85 451.25 44.55 451.55 44.2 452.15 43.7 453.35 42.75 454.65 41.8 454.9 41.65 M451.55 42.05 Q451.45 42.05 451.4 42.15 M454.1 40.8 L454.9 40.1 M455.55 42.75 L454.7 44.45 454.1 45.45 453.85 45.9 453.8 46.05 451.8 48.3 451.05 48.95 451.0 48.95 450.95 48.95 450.6 49.15 450.55 49.25 Q448.3 51.0 446.75 52.95 445.15 54.95 444.9 54.45 444.8 53.9 445.6 52.05 446.5 50.0 447.75 48.3 M455.8 44.85 Q455.4 47.25 454.25 48.4 L454.05 48.7 452.5 50.5 452.25 50.7 451.85 51.2 Q450.3 52.8 449.25 54.35 448.05 56.3 447.85 55.9 447.7 55.5 448.15 53.9 449.0 51.5 450.55 49.25 M454.35 50.15 L453.95 50.8 M455.8 50.15 L457.05 51.25 457.2 51.4 Q457.75 52.35 457.95 53.95 L458.15 54.95 Q458.2 56.05 458.8 57.5 459.35 59.0 459.0 59.2 L458.05 59.05 459.0 61.6 459.05 62.15 Q459.85 64.95 460.85 66.95 461.85 68.9 461.45 69.2 461.05 69.45 459.9 68.35 458.2 66.8 456.95 64.25 L456.65 63.15 456.05 61.45 455.9 61.1 455.65 60.15 Q455.5 61.95 455.65 63.4 455.9 65.95 455.4 65.95 455.05 65.85 454.35 64.35 453.5 61.75 453.25 58.7 L453.35 57.45 453.4 55.5 453.4 55.05 453.55 53.4 453.25 54.5 453.1 55.1 Q452.1 58.75 451.7 61.7 451.25 64.7 450.95 64.55 450.6 64.4 450.45 62.25 450.25 59.0 450.85 55.3 L451.15 53.8 451.7 51.55 451.85 51.2 M455.05 53.95 L455.1 54.25 455.4 55.45 455.9 56.9 455.95 57.0 456.5 57.85 457.65 58.85 458.05 59.05 M455.65 60.15 L455.8 57.85 455.9 57.3 455.95 57.0 M455.05 53.95 L454.8 52.5 454.8 52.2 454.8 51.0 M453.55 53.4 L453.65 52.25 453.85 50.95" ffdec:has-small-stroke="true" ffdec:original-stroke-width="0.1" fill="none" stroke="#000000" stroke-linecap="round" stroke-linejoin="round" stroke-opacity="0.29803923" stroke-width="1.0"/>
    <path d="M454.6 41.85 Q454.05 42.1 453.3 42.8 L452.1 43.7 451.5 44.25 451.2 44.55 449.8 45.9 449.25 46.35 448.95 46.65 447.7 48.35 Q445.1 50.05 442.4 50.9 L440.2 51.15 Q439.9 50.75 442.15 49.3 L446.8 45.4 447.15 45.05 449.95 42.7 449.55 42.85 448.65 43.25 443.55 43.65 Q442.0 43.35 441.7 42.95 441.45 42.5 443.6 42.0 445.7 41.5 448.0 40.15 L448.4 40.0 Q450.25 38.95 451.75 38.75 L452.2 38.75 454.65 38.85 Q455.15 39.0 455.3 39.3 455.35 39.7 454.85 40.15 L454.05 40.85 454.85 40.95 Q455.0 41.25 454.6 41.85" fill="#98a3bd" fill-opacity="0.2" fill-rule="evenodd" stroke="none"/>
    <path d="M455.9 36.1 Q456.9 35.4 458.75 35.15 456.9 35.55 457.6 36.85 L459.6 38.1 459.35 38.2 462.4 38.55 Q460.05 38.2 460.35 39.5 L461.85 40.65 461.2 40.6 459.5 40.35 459.2 40.25 459.5 40.35 461.2 40.6 459.9 42.05 460.35 42.9 461.55 43.45 462.25 43.7 461.35 43.6 458.75 43.0 461.35 43.6 460.35 44.3 460.35 44.45 Q460.45 45.3 462.15 45.75 L462.45 45.75 462.9 46.0 463.0 46.0 463.25 46.25 464.95 47.6 462.55 46.9 Q461.95 47.35 463.35 48.85 L463.15 48.7 462.4 47.8 461.45 46.85 460.45 45.9 460.15 45.15 459.85 45.05 Q458.35 44.75 456.65 43.15 458.05 43.85 458.2 43.15 L458.35 43.15 458.75 43.0 458.6 42.9 457.8 42.35 457.2 41.1 Q457.5 40.8 457.95 40.65 L458.8 40.45 459.2 40.25 458.45 40.2 457.6 39.65 457.5 39.6 Q457.45 38.95 457.95 38.55 L457.2 38.5 Q456.25 38.25 455.65 37.7 455.25 36.95 455.9 36.1 M464.15 49.85 L464.4 50.25 465.55 51.7 463.3 50.8 Q463.1 50.8 463.3 51.8 L463.1 51.25 462.55 50.15 462.45 49.85 462.55 50.15 463.1 51.25 461.15 50.15 Q459.85 50.1 460.5 51.5 459.75 50.15 459.6 49.1 459.9 48.4 460.75 48.45 L460.85 48.55 461.3 48.85 462.45 49.85 461.75 48.65 461.6 48.4 461.75 48.25 Q462.9 48.7 464.15 49.85 M465.95 55.95 L466.1 56.35 466.65 58.05 464.8 56.2 Q463.45 55.9 464.25 58.05 L463.4 55.6 463.55 55.2 463.7 53.8 Q463.85 53.65 464.15 53.65 L465.95 55.95 M462.15 45.75 Q461.0 45.55 460.15 45.15 461.0 45.55 462.15 45.75 M463.75 52.95 L463.55 52.8 463.6 52.65 463.75 52.95" fill="#e9edf5" fill-rule="evenodd" stroke="none"/>
    <path d="M458.75 35.15 L459.05 35.15 Q461.35 34.85 463.1 34.15 464.8 33.3 464.85 33.8 464.85 34.3 464.0 35.4 462.55 36.95 460.45 37.9 L459.6 38.1 457.6 36.85 Q456.9 35.55 458.75 35.15 M462.4 38.55 L462.9 38.55 468.2 39.1 Q470.5 39.05 470.5 39.5 L470.5 39.65 468.95 40.5 Q466.7 41.35 464.0 41.35 L467.5 43.15 Q469.1 44.15 469.35 44.7 L467.25 44.55 Q465.15 43.85 462.7 43.7 464.95 44.6 466.85 46.0 L468.25 47.45 Q468.35 47.95 466.5 47.0 L463.0 46.0 462.9 46.0 462.45 45.75 462.15 45.75 Q460.45 45.3 460.35 44.45 L460.35 44.3 461.35 43.6 462.25 43.7 461.55 43.45 460.35 42.9 459.9 42.05 461.2 40.6 461.85 40.65 460.35 39.5 Q460.05 38.2 462.4 38.55 M464.95 47.6 L465.95 48.55 Q468.5 51.2 470.2 53.95 L471.2 55.95 Q471.05 56.3 469.05 54.2 L464.3 49.8 463.95 49.4 463.6 49.1 463.35 48.85 Q461.95 47.35 462.55 46.9 L464.95 47.6 M465.55 51.7 L466.3 52.65 Q467.95 55.2 468.8 57.7 469.25 59.3 469.1 59.55 468.8 59.75 467.5 57.7 L465.65 55.1 464.1 53.4 463.75 52.95 463.6 52.65 463.55 52.8 463.7 53.8 463.55 55.2 463.4 55.6 462.9 56.2 Q462.45 56.2 462.0 54.75 L461.0 52.35 460.5 51.5 Q459.85 50.1 461.15 50.15 L463.1 51.25 463.3 51.95 463.6 52.65 463.3 51.8 463.6 52.65 463.3 51.95 463.1 51.25 463.3 51.8 Q463.1 50.8 463.3 50.8 L465.55 51.7 M466.65 58.05 L467.1 59.05 Q467.7 61.75 467.5 63.95 467.35 65.4 467.0 65.5 466.5 65.4 466.1 63.4 L464.45 58.6 464.25 58.05 Q463.45 55.9 464.8 56.2 L466.65 58.05 M461.85 40.65 L462.15 40.75 464.0 41.35 462.15 40.75 461.85 40.65 M462.7 43.7 L462.55 43.7 462.3 43.7 462.25 43.7 462.3 43.7 462.55 43.7 462.7 43.7" fill="#faf7eb" fill-rule="evenodd" stroke="none"/>
    <path d="M463.15 48.7 L464.15 49.85 Q462.9 48.7 461.75 48.25 L461.6 48.4 460.9 47.45 461.6 48.4 461.75 48.65 462.45 49.85 461.3 48.85 460.85 48.55 460.75 48.45 Q459.9 48.4 459.6 49.1 L459.6 48.85 Q459.6 47.7 459.75 47.3 460.0 47.0 460.6 46.9 L461.3 46.85 460.75 46.45 Q460.2 46.3 460.35 46.25 L460.45 45.9 460.15 45.6 459.85 45.05 460.15 45.15 460.45 45.9 461.45 46.85 462.4 47.8 463.15 48.7 M465.65 55.1 L465.95 55.95 464.15 53.65 Q463.85 53.65 463.7 53.8 L463.55 52.8 463.75 52.95 464.1 53.4 465.65 55.1 M456.65 43.15 L456.25 42.5 456.75 42.15 457.2 42.2 Q456.1 41.75 455.65 41.35 L455.05 40.6 Q454.9 40.2 455.5 40.1 L455.75 40.1 455.1 39.65 455.05 39.5 Q455.05 39.2 455.5 39.05 L454.55 38.9 Q454.05 38.8 453.8 38.5 L454.05 37.7 455.55 36.35 Q455.65 36.15 455.9 36.1 455.25 36.95 455.65 37.7 456.25 38.25 457.2 38.5 L457.95 38.55 Q457.45 38.95 457.5 39.6 L457.6 39.65 458.45 40.2 459.2 40.25 458.8 40.45 457.95 40.65 Q457.5 40.8 457.2 41.1 L457.8 42.35 458.6 42.9 458.2 42.65 457.2 42.2 458.2 42.65 458.6 42.9 458.75 43.0 458.35 43.15 458.2 43.15 Q458.05 43.85 456.65 43.15 M455.75 40.1 L457.1 40.1 458.45 40.2 457.1 40.1 455.75 40.1" fill="#cfd7eb" fill-rule="evenodd" stroke="none"/>
    <path d="M455.9 36.1 Q456.9 35.4 458.75 35.15 L459.05 35.15 Q461.35 34.85 463.1 34.15 464.8 33.3 464.85 33.8 464.85 34.3 464.0 35.4 462.55 36.95 460.45 37.9 L459.6 38.1 459.35 38.2 462.4 38.55 462.9 38.55 468.2 39.1 Q470.5 39.05 470.5 39.5 L470.5 39.65 468.95 40.5 Q466.7 41.35 464.0 41.35 L467.5 43.15 Q469.1 44.15 469.35 44.7 L467.25 44.55 Q465.15 43.85 462.7 43.7 464.95 44.6 466.85 46.0 L468.25 47.45 Q468.35 47.95 466.5 47.0 L463.0 46.0 463.25 46.25 464.95 47.6 465.95 48.55 Q468.5 51.2 470.2 53.95 L471.2 55.95 Q471.05 56.3 469.05 54.2 L464.3 49.8 463.95 49.4 463.6 49.1 463.35 48.85 463.15 48.7 464.15 49.85 464.4 50.25 465.55 51.7 466.3 52.65 Q467.95 55.2 468.8 57.7 469.25 59.3 469.1 59.55 468.8 59.75 467.5 57.7 L465.65 55.1 465.95 55.95 466.1 56.35 466.65 58.05 467.1 59.05 Q467.7 61.75 467.5 63.95 467.35 65.4 467.0 65.5 466.5 65.4 466.1 63.4 L464.45 58.6 464.25 58.05 463.4 55.6 462.9 56.2 Q462.45 56.2 462.0 54.75 L461.0 52.35 460.5 51.5 Q459.75 50.15 459.6 49.1 L459.6 48.85 Q459.6 47.7 459.75 47.3 M461.3 46.85 L460.75 46.45 M459.85 45.05 Q458.35 44.75 456.65 43.15 M457.2 42.2 Q456.1 41.75 455.65 41.35 M455.5 39.05 L454.55 38.9 M454.05 37.7 L455.55 36.35 Q455.65 36.15 455.9 36.1 M458.45 40.2 L459.2 40.25 459.5 40.35 461.2 40.6 461.85 40.65 462.15 40.75 464.0 41.35 M458.45 40.2 L457.1 40.1 455.75 40.1 M462.25 43.7 L462.3 43.7 462.55 43.7 462.7 43.7 M457.2 42.2 L458.2 42.65 458.6 42.9 458.75 43.0 461.35 43.6 462.25 43.7 M460.15 45.15 L459.85 45.05 M462.15 45.75 L462.45 45.75 462.9 46.0 463.0 46.0 M463.15 48.7 L462.4 47.8 461.45 46.85 M461.6 48.4 L460.9 47.45 M462.45 49.85 L461.75 48.65 461.6 48.4 M462.45 49.85 L462.55 50.15 463.1 51.25 463.3 51.8 463.6 52.65 463.3 51.95 463.1 51.25 M460.15 45.15 Q461.0 45.55 462.15 45.75 M463.55 52.8 L463.75 52.95 464.1 53.4 465.65 55.1 M463.6 52.65 L463.55 52.8 463.7 53.8 463.55 55.2 463.4 55.6" ffdec:has-small-stroke="true" ffdec:original-stroke-width="0.1" fill="none" stroke="#000000" stroke-linecap="round" stroke-linejoin="round" stroke-opacity="0.29803923" stroke-width="1.0"/>
    <path d="M458.75 35.25 L459.05 35.25 Q461.35 34.95 463.1 34.25 464.8 33.4 464.85 33.85 L464.0 35.5 Q462.55 37.0 460.45 37.95 L459.6 38.2 459.4 38.25 462.4 38.65 462.9 38.65 468.2 39.2 Q470.5 39.1 470.5 39.6 L470.5 39.75 468.95 40.6 Q466.7 41.45 464.0 41.45 L462.15 40.8 461.85 40.75 461.2 40.65 459.5 40.45 459.2 40.35 458.45 40.25 457.1 40.2 455.75 40.2 455.1 39.75 455.05 39.6 Q455.05 39.25 455.5 39.1 L454.55 38.95 Q454.05 38.9 453.8 38.55 453.8 38.2 454.05 37.8 L455.55 36.4 Q455.65 36.25 455.9 36.15 456.9 35.5 458.75 35.25" fill="#98a3bd" fill-opacity="0.2" fill-rule="evenodd" stroke="none"/>
    <path d="M455.6 41.4 L455.0 40.65 Q454.85 40.25 455.45 40.2 L455.7 40.2 457.1 40.2 458.4 40.25 459.15 40.35 459.5 40.4 461.2 40.65 461.8 40.75 462.1 40.8 463.95 41.4 467.45 43.2 Q469.05 44.2 469.3 44.75 L467.2 44.6 Q465.15 43.9 462.65 43.75 L462.5 43.75 462.25 43.75 461.35 43.65 458.7 43.05 458.55 42.95 458.15 42.75 457.15 42.25 Q456.1 41.8 455.6 41.4" fill="#98a3bd" fill-opacity="0.14901961" fill-rule="evenodd" stroke="none"/>
    <path d="M462.7 33.55 L462.75 33.1 462.85 33.15 462.7 33.55" fill="#ffffff" fill-rule="evenodd" stroke="none"/>
    <path d="M462.75 33.1 L462.85 33.15 462.7 33.55" ffdec:has-small-stroke="true" ffdec:original-stroke-width="0.05" fill="none" stroke="#000000" stroke-linecap="round" stroke-linejoin="round" stroke-width="1.0"/>
    <path d="M457.6 34.65 L457.1 35.5 455.95 35.55 455.4 35.15 455.95 35.55 457.1 35.5 457.6 34.65 M458.65 33.85 L458.9 35.0 458.65 33.85 M462.55 32.75 L463.7 34.1 461.55 34.1 461.0 34.85 Q461.45 35.95 460.15 37.8 L458.9 35.0 458.8 36.1 Q458.6 36.5 457.75 36.65 L456.8 36.25 Q457.05 37.35 456.75 38.65 456.4 39.95 454.8 37.1 L454.55 36.65 453.55 36.95 452.7 36.65 452.55 37.2 451.95 37.7 452.85 40.2 Q450.4 40.05 449.15 38.8 448.75 39.4 446.15 39.2 L446.15 38.55 445.65 38.75 445.65 37.55 446.05 36.7 450.8 34.65 453.85 31.3 457.6 32.75 462.55 32.75 M449.1 37.5 L449.15 38.8 449.1 37.5 M446.7 38.4 L446.15 38.55 446.7 38.4 M448.3 37.5 L447.7 38.1 446.85 37.65 447.0 36.95 446.85 37.65 447.7 38.1 448.3 37.5 M452.7 36.65 L452.7 36.5 452.5 36.4 452.1 36.35 452.5 36.4 452.7 36.5 452.7 36.65 M454.35 36.0 L454.55 36.65 454.35 36.0 M459.85 33.3 L461.0 34.85 459.85 33.3 M451.0 37.1 L451.95 37.7 451.0 37.1" fill="#cfd7eb" fill-rule="evenodd" stroke="none"/>
    <path d="M445.65 37.55 L445.65 36.85 446.05 36.7 445.65 37.55" fill="#ffffff" fill-rule="evenodd" stroke="none"/>
    <path d="M458.9 35.0 L458.65 33.85 M455.4 35.15 L455.95 35.55 457.1 35.5 457.6 34.65 M462.55 32.75 L463.7 34.1 461.55 34.1 461.0 34.85 Q461.45 35.95 460.15 37.8 L458.9 35.0 458.8 36.1 Q458.6 36.5 457.75 36.65 L456.8 36.25 Q457.05 37.35 456.75 38.65 456.4 39.95 454.8 37.1 L454.55 36.65 453.55 36.95 452.7 36.65 452.55 37.2 451.95 37.7 452.85 40.2 Q450.4 40.05 449.15 38.8 448.75 39.4 446.15 39.2 L446.15 38.55 445.65 38.75 M461.0 34.85 L459.85 33.3 M454.55 36.65 L454.35 36.0 M452.1 36.35 L452.5 36.4 452.7 36.5 452.7 36.65 M447.0 36.95 L446.85 37.65 447.7 38.1 448.3 37.5 M446.15 38.55 L446.7 38.4 M449.15 38.8 L449.1 37.5 M451.95 37.7 L451.0 37.1" ffdec:has-small-stroke="true" ffdec:original-stroke-width="0.1" fill="none" stroke="#000000" stroke-linecap="round" stroke-linejoin="round" stroke-opacity="0.29803923" stroke-width="1.0"/>
    <path d="M447.9 34.4 L446.9 33.3 Q446.25 32.4 446.25 31.9 446.35 31.35 447.5 31.9 448.7 32.55 450.25 32.45 L450.55 32.4 Q451.8 32.6 451.45 33.85 L451.05 34.4 450.65 34.85 450.0 34.45 449.65 34.45 447.9 34.4 M452.45 32.85 L452.8 31.9 Q453.0 30.9 453.4 31.3 453.8 31.7 454.05 32.7 454.35 34.0 454.1 35.0 L454.1 35.15 454.0 35.4 453.8 35.8 452.1 35.25 Q451.05 34.45 451.6 33.7 L451.7 33.55 452.45 32.85 M449.0 39.65 L448.75 39.65 Q447.0 39.55 445.7 40.1 L444.35 40.2 Q444.35 39.5 445.1 38.5 L445.45 38.2 Q443.95 37.85 442.65 36.95 441.5 36.15 441.45 35.55 441.45 34.95 443.05 35.15 L446.6 34.7 446.95 34.55 Q448.6 34.3 448.5 36.0 L448.35 36.25 448.75 36.15 450.0 37.95 Q450.35 39.5 449.0 39.65 M448.35 36.25 L448.1 36.3 Q446.55 36.85 445.45 38.2 446.55 36.85 448.1 36.3 L448.35 36.25" fill="#faf7eb" fill-rule="evenodd" stroke="none"/>
    <path d="M447.9 34.4 L449.65 34.45 450.25 35.3 450.4 35.55 450.45 36.0 450.0 36.0 450.45 36.25 451.05 36.7 451.05 36.8 451.45 37.35 451.6 37.5 Q451.65 38.25 451.2 39.1 450.25 39.65 449.0 39.65 450.35 39.5 450.0 37.95 L448.75 36.15 448.35 36.25 448.5 36.0 Q448.6 34.3 446.95 34.55 L447.9 34.4 M450.65 34.85 L451.05 34.4 451.45 33.85 Q451.8 32.6 450.55 32.4 451.65 32.45 452.45 32.85 L451.7 33.55 451.6 33.7 451.45 33.85 451.6 33.7 Q451.05 34.45 452.1 35.25 L453.8 35.8 453.45 36.4 453.25 36.55 452.9 36.65 451.85 36.5 451.45 36.0 450.85 35.0 450.85 34.95 450.65 34.85 M450.0 36.0 L449.75 36.1 448.75 36.15 449.75 36.1 450.0 36.0 M451.05 34.4 L450.85 34.95 451.05 34.4" fill="#e9edf5" fill-rule="evenodd" stroke="none"/>
    <path d="M449.65 34.45 L450.0 34.45 450.65 34.85 450.85 34.95 450.85 35.0 450.85 35.25 450.95 36.0 450.45 36.0 450.95 36.0 450.85 35.25 450.85 35.0 451.45 36.0 451.85 36.5 452.9 36.65 453.25 36.55 452.9 37.0 452.7 37.55 451.4 38.9 451.2 39.1 Q451.65 38.25 451.6 37.5 L451.45 37.35 451.05 36.8 451.05 36.7 450.45 36.25 450.0 36.0 450.45 36.0 450.4 35.55 450.25 35.3 449.65 34.45 M450.95 36.0 L451.05 36.7 450.95 36.0 M452.05 37.55 L452.7 37.15 452.9 37.0 452.7 37.15 452.05 37.55" fill="#cfd7eb" fill-rule="evenodd" stroke="none"/>
    <path d="M450.55 32.4 L450.25 32.45 Q448.7 32.55 447.5 31.9 446.35 31.35 446.25 31.9 446.25 32.4 446.9 33.3 L447.9 34.4 449.65 34.45 450.0 34.45 450.65 34.85 450.85 34.95 451.05 34.4 451.45 33.85 451.6 33.7 451.7 33.55 452.45 32.85 452.8 31.9 Q453.0 30.9 453.4 31.3 453.8 31.7 454.05 32.7 454.35 34.0 454.1 35.0 L454.1 35.15 454.0 35.4 453.8 35.8 453.45 36.4 453.25 36.55 452.9 37.0 452.7 37.15 452.05 37.55 M450.55 32.4 Q451.65 32.45 452.45 32.85 M452.7 37.55 L451.4 38.9 451.2 39.1 Q450.25 39.65 449.0 39.65 L448.75 39.65 Q447.0 39.55 445.7 40.1 L444.35 40.2 Q444.35 39.5 445.1 38.5 L445.45 38.2 Q443.95 37.85 442.65 36.95 441.5 36.15 441.45 35.55 441.45 34.95 443.05 35.15 L446.6 34.7 446.95 34.55 447.9 34.4 M450.45 36.0 L450.95 36.0 450.85 35.25 450.85 35.0 450.85 34.95 M445.45 38.2 Q446.55 36.85 448.1 36.3 L448.35 36.25 448.75 36.15 449.75 36.1 450.0 36.0 450.45 36.0 M451.05 36.8 L451.05 36.7 450.95 36.0" ffdec:has-small-stroke="true" ffdec:original-stroke-width="0.1" fill="none" stroke="#000000" stroke-linecap="round" stroke-linejoin="round" stroke-opacity="0.29803923" stroke-width="1.0"/>
    <path d="M460.2 29.3 L460.5 29.05 Q462.05 28.1 463.0 26.8 463.9 25.35 464.25 25.9 464.55 26.4 464.25 27.85 L463.3 30.8 463.55 30.8 Q464.7 30.95 464.95 31.35 465.2 31.9 464.1 32.4 462.95 32.85 461.9 34.2 L461.75 34.45 Q460.8 35.35 460.15 33.9 L460.15 33.75 459.9 31.7 460.2 31.5 460.05 31.45 Q458.95 30.2 460.2 29.3 M456.7 35.3 L456.3 35.2 Q455.35 34.6 454.7 33.15 454.25 32.15 454.35 31.65 L455.0 31.7 455.6 32.05 456.7 32.1 456.85 32.1 Q457.4 32.25 457.5 33.2 L457.4 33.7 457.4 33.75 456.7 35.3 M456.55 30.1 L456.7 29.85 Q457.8 28.7 458.25 27.5 458.6 26.1 458.95 26.5 459.35 26.8 459.4 28.0 L459.35 30.0 458.9 31.4 458.6 31.95 456.9 31.85 Q455.9 31.15 456.55 30.1 M463.3 30.8 Q461.75 30.6 460.45 31.3 L460.2 31.5 460.45 31.3 Q461.75 30.6 463.3 30.8" fill="#faf7eb" fill-rule="evenodd" stroke="none"/>
    <path d="M460.0 35.7 L459.8 35.7 458.15 35.75 457.8 35.5 457.35 35.5 457.65 35.3 458.25 34.35 458.25 33.45 458.1 32.7 458.0 32.55 458.1 32.65 458.6 31.95 458.9 31.4 459.35 30.0 460.2 29.3 Q458.95 30.2 460.05 31.45 L460.2 31.5 459.9 31.7 459.2 32.4 459.05 32.55 458.45 33.2 458.15 32.75 458.1 32.65 458.15 32.75 458.45 33.2 459.05 32.55 458.75 33.65 458.9 33.95 458.95 34.65 458.95 34.95 Q459.35 35.5 460.0 35.7 M458.45 33.2 L458.75 33.65 458.45 33.2 M458.65 35.25 L458.1 35.5 457.8 35.5 458.1 35.5 458.65 35.25" fill="#cfd7eb" fill-rule="evenodd" stroke="none"/>
    <path d="M461.75 34.45 Q460.9 35.5 460.0 35.7 459.35 35.5 458.95 34.95 L458.95 34.65 458.9 33.95 458.75 33.65 459.05 32.55 459.2 32.4 459.9 31.7 460.15 33.75 460.15 33.9 Q460.8 35.35 461.75 34.45 M457.35 35.5 L457.2 35.35 456.7 35.3 457.4 33.75 457.4 33.7 457.5 33.2 Q457.4 32.25 456.85 32.1 L456.7 32.1 455.6 32.05 455.6 32.0 Q455.75 31.0 456.55 30.1 455.9 31.15 456.9 31.85 L458.6 31.95 458.1 32.65 458.0 32.55 458.1 32.7 458.25 33.45 458.25 34.35 457.65 35.3 457.35 35.5 M458.0 32.55 L457.95 32.5 Q457.4 32.05 456.85 32.1 457.4 32.05 457.95 32.5 L458.0 32.55" fill="#e9edf5" fill-rule="evenodd" stroke="none"/>
    <path d="M460.2 29.3 L460.5 29.05 Q462.05 28.1 463.0 26.8 463.9 25.35 464.25 25.9 464.55 26.4 464.25 27.85 L463.3 30.8 463.55 30.8 Q464.7 30.95 464.95 31.35 465.2 31.9 464.1 32.4 462.95 32.85 461.9 34.2 L461.75 34.45 Q460.9 35.5 460.0 35.7 L459.8 35.7 458.15 35.75 M457.8 35.5 L457.35 35.5 457.2 35.35 456.7 35.3 456.3 35.2 Q455.35 34.6 454.7 33.15 454.25 32.15 454.35 31.65 L455.0 31.7 455.6 32.05 456.7 32.1 456.85 32.1 Q457.4 32.05 457.95 32.5 L458.0 32.55 458.1 32.65 458.15 32.75 458.45 33.2 459.05 32.55 459.2 32.4 459.9 31.7 460.2 31.5 460.45 31.3 Q461.75 30.6 463.3 30.8 M455.6 32.0 Q455.75 31.0 456.55 30.1 L456.7 29.85 Q457.8 28.7 458.25 27.5 458.6 26.1 458.95 26.5 459.35 26.8 459.4 28.0 L459.35 30.0 460.2 29.3 M459.35 30.0 L458.9 31.4 458.6 31.95 458.1 32.65 M458.9 33.95 L458.75 33.65 458.45 33.2 M457.8 35.5 L458.1 35.5 458.65 35.25" ffdec:has-small-stroke="true" ffdec:original-stroke-width="0.1" fill="none" stroke="#000000" stroke-linecap="round" stroke-linejoin="round" stroke-opacity="0.29803923" stroke-width="1.0"/>
  </g>
</svg>
