<?xml version="1.0" encoding="UTF-8" standalone="no"?>
<svg xmlns:ffdec="https://www.free-decompiler.com/flash" xmlns:xlink="http://www.w3.org/1999/xlink" ffdec:objectType="shape" height="6.7px" width="7.25px" xmlns="http://www.w3.org/2000/svg">
  <g transform="matrix(1.0, 0.0, 0.0, 1.0, 4.95, 4.8)">
    <path d="M-2.85 -1.65 L-1.95 -1.55 Q-1.15 -1.1 -0.3 0.45 -1.45 1.55 -2.45 1.55 -4.95 1.55 -4.95 -0.75 -4.95 -1.8 -4.1 -1.8 L-2.85 -1.65" fill="#3d4301" fill-rule="evenodd" stroke="none"/>
    <path d="M-1.95 -1.55 L-2.6 -1.75 -2.85 -1.65 -1.95 -1.55 Q-1.15 -1.1 -0.3 0.45 -1.45 1.55 -2.45 1.55 -4.95 1.55 -4.95 -0.75 -4.95 -1.8 -4.1 -1.8 L-2.85 -1.65" ffdec:has-small-stroke="true" ffdec:original-stroke-width="0.05" fill="none" stroke="#000000" stroke-linecap="round" stroke-linejoin="round" stroke-opacity="0.3882353" stroke-width="1.0"/>
    <path d="M0.5 -4.55 L-1.45 -4.8 -1.55 -4.7 1.05 -1.55 1.6 -1.35 Q2.3 -3.7 0.5 -4.55" fill="#353a01" fill-rule="evenodd" stroke="none"/>
    <path d="M0.5 -4.55 L-1.45 -4.8 -1.55 -4.7 1.05 -1.55 1.6 -1.35 Q2.3 -3.7 0.5 -4.55 Z" ffdec:has-small-stroke="true" ffdec:original-stroke-width="0.05" fill="none" stroke="#000000" stroke-linecap="round" stroke-linejoin="round" stroke-opacity="0.3882353" stroke-width="1.0"/>
    <path d="M0.15 -3.2 L0.35 -2.5 Q0.35 -0.7 -1.75 -0.7 L-2.35 -0.85 Q-3.45 -1.75 -3.45 -2.15 -3.45 -3.7 -1.4 -3.7 -0.45 -3.7 0.15 -3.2" fill="#536001" fill-rule="evenodd" stroke="none"/>
    <path d="M0.15 -3.2 Q-0.45 -3.7 -1.4 -3.7 -3.45 -3.7 -3.45 -2.15 -3.45 -1.75 -2.35 -0.85 L-1.75 -0.7 Q0.35 -0.7 0.35 -2.5 L0.15 -3.2 Z" ffdec:has-small-stroke="true" ffdec:original-stroke-width="0.05" fill="none" stroke="#000000" stroke-linecap="round" stroke-linejoin="round" stroke-opacity="0.3882353" stroke-width="1.0"/>
    <path d="M-2.3 -0.35 L-2.4 -0.55 -2.5 -1.0 -2.4 -1.35 -1.55 -2.5 -0.9 -2.6 Q-0.65 -2.6 -0.6 -1.55 -0.6 -0.35 -1.3 -0.05 L-1.5 -0.05 Q-2.05 -0.05 -2.3 -0.35" fill="#b64616" fill-rule="evenodd" stroke="none"/>
    <path d="M0.9 -1.9 L0.7 -1.05 Q0.35 -0.45 -0.45 0.05 -1.5 0.7 -2.05 0.7 L-2.35 0.55 -2.7 0.45 Q-3.1 0.25 -3.1 -0.2 -3.1 -1.4 -2.05 -2.25 L-1.3 -2.75 -0.35 -3.0 Q0.9 -3.0 0.9 -1.9 M-2.3 -0.35 Q-2.05 -0.05 -1.5 -0.05 L-1.3 -0.05 Q-0.6 -0.35 -0.6 -1.55 -0.65 -2.6 -0.9 -2.6 L-1.55 -2.5 -2.4 -1.35 -2.5 -1.0 -2.4 -0.55 -2.3 -0.35" fill="#7a2e0e" fill-rule="evenodd" stroke="none"/>
    <path d="M0.9 -1.9 L0.7 -1.05 Q0.35 -0.45 -0.45 0.05 -1.5 0.7 -2.05 0.7 L-2.35 0.55 -2.7 0.45 Q-3.1 0.25 -3.1 -0.2 -3.1 -1.4 -2.05 -2.25 L-1.3 -2.75 -0.35 -3.0 Q0.9 -3.0 0.9 -1.9 Z" ffdec:has-small-stroke="true" ffdec:original-stroke-width="0.05" fill="none" stroke="#000000" stroke-linecap="round" stroke-linejoin="round" stroke-opacity="0.3882353" stroke-width="1.0"/>
    <path d="M2.3 -1.3 L1.9 0.0 Q-0.3 -0.75 -0.3 -2.0 -0.3 -3.7 0.75 -3.7 L1.55 -3.25 Q2.3 -2.55 2.3 -1.3" fill="#6f7d01" fill-rule="evenodd" stroke="none"/>
    <path d="M2.3 -1.3 Q2.3 -2.55 1.55 -3.25 L0.75 -3.7 Q-0.3 -3.7 -0.3 -2.0 -0.3 -0.75 1.9 0.0 L2.3 -1.3 Z" ffdec:has-small-stroke="true" ffdec:original-stroke-width="0.05" fill="none" stroke="#000000" stroke-linecap="round" stroke-linejoin="round" stroke-opacity="0.3882353" stroke-width="1.0"/>
    <path d="M-4.3 0.65 L-4.65 -1.25 -4.6 -1.35 -1.3 1.1 -1.05 1.7 Q-3.4 2.4 -4.3 0.65" fill="#536001" fill-rule="evenodd" stroke="none"/>
    <path d="M-4.3 0.65 L-4.65 -1.25 -4.6 -1.35 -1.3 1.1 -1.05 1.7 Q-3.4 2.4 -4.3 0.65 Z" ffdec:has-small-stroke="true" ffdec:original-stroke-width="0.05" fill="none" stroke="#000000" stroke-linecap="round" stroke-linejoin="round" stroke-opacity="0.3882353" stroke-width="1.0"/>
    <path d="M-2.75 0.6 L-2.4 0.2 -1.3 -0.1 0.15 -0.95 0.75 -0.9 1.95 0.0 Q0.4 1.8 -1.2 1.8 -2.7 1.8 -2.8 0.9 L-2.8 0.75 -2.75 0.6" fill="#a6a604" fill-rule="evenodd" stroke="none"/>
    <path d="M-2.75 0.6 L-2.4 0.2 -1.3 -0.1 0.15 -0.95 0.75 -0.9 1.95 0.0 Q0.4 1.8 -1.2 1.8 -2.7 1.8 -2.8 0.9 L-2.8 0.75 -2.75 0.6 Z" ffdec:has-small-stroke="true" ffdec:original-stroke-width="0.05" fill="none" stroke="#000000" stroke-linecap="round" stroke-linejoin="round" stroke-opacity="0.3882353" stroke-width="1.0"/>
  </g>
</svg>
