<?xml version="1.0" encoding="UTF-8" standalone="no"?>
<svg xmlns:ffdec="https://www.free-decompiler.com/flash" xmlns:xlink="http://www.w3.org/1999/xlink" ffdec:objectType="shape" height="60.85px" width="57.0px" xmlns="http://www.w3.org/2000/svg">
  <g transform="matrix(1.0, 0.0, 0.0, 1.0, -248.35, -171.95)">
    <path d="M287.0 228.6 Q286.95 230.0 283.6 230.95 280.25 231.9 275.6 231.9 270.95 231.9 267.6 230.95 264.25 230.0 264.25 228.6 264.25 227.25 268.25 227.25 L276.6 226.85 Q281.05 226.45 284.05 226.85 287.0 227.25 287.0 228.6" fill="#6f68c1" fill-rule="evenodd" stroke="none"/>
    <path d="M289.0 227.3 Q289.0 229.35 284.95 230.85 280.85 232.3 275.2 232.3 269.5 232.3 265.45 230.85 261.35 229.35 261.35 227.3 261.35 225.25 266.2 225.25 L276.4 224.65 Q281.8 224.05 285.4 224.65 289.0 225.25 289.0 227.3 M287.0 228.6 Q287.0 227.25 284.05 226.85 281.05 226.45 276.6 226.85 L268.25 227.25 Q264.25 227.25 264.25 228.6 264.25 230.0 267.6 230.95 270.95 231.9 275.6 231.9 280.25 231.9 283.6 230.95 286.95 230.0 287.0 228.6" fill="#847ecb" fill-rule="evenodd" stroke="none"/>
    <path d="M289.0 227.3 Q289.0 229.35 284.95 230.85 280.85 232.3 275.2 232.3 269.5 232.3 265.45 230.85 261.35 229.35 261.35 227.3 261.35 225.25 266.2 225.25 L276.4 224.65 Q281.8 224.05 285.4 224.65 289.0 225.25 289.0 227.3 Z" fill="none" stroke="#33ffff" stroke-linecap="round" stroke-linejoin="round" stroke-opacity="0.3019608" stroke-width="1.0"/>
    <path d="M298.65 202.3 L298.7 202.25 298.7 202.3 298.65 202.3 M275.6 183.6 L275.75 183.6 275.4 183.7 275.6 183.6" fill="#8d272b" fill-rule="evenodd" stroke="none"/>
    <path d="M301.7 193.3 L301.75 193.3 301.75 193.35 301.7 193.3 M252.4 208.95 Q253.45 209.6 254.8 209.6 256.7 209.6 258.1 208.2 259.45 206.85 259.45 204.95 259.45 203.0 258.1 201.65 256.7 200.3 254.8 200.3 L253.0 200.65 Q253.55 194.75 260.05 191.8 L260.3 191.65 263.85 190.1 264.15 189.95 266.0 187.45 Q266.9 186.8 266.7 184.9 266.3 183.3 268.9 183.5 L269.2 183.5 Q271.7 184.5 274.05 183.9 278.2 182.95 279.45 182.15 281.4 180.45 282.1 178.4 284.05 174.1 285.35 173.9 288.1 173.0 289.75 176.2 291.5 180.6 293.25 179.7 295.05 177.8 295.6 178.55 297.8 182.4 297.65 183.85 L297.65 183.95 297.35 188.3 297.4 188.3 Q296.1 193.45 298.5 193.6 304.75 195.7 301.5 200.3 301.7 204.9 298.2 202.2 297.15 201.55 296.8 202.9 295.4 211.2 292.5 206.75 291.5 204.8 290.6 208.2 287.25 223.9 283.65 218.15 L283.5 217.9 Q281.65 216.6 281.2 215.05 278.75 224.95 270.85 218.35 L270.65 218.4 Q268.05 222.05 269.15 222.8 271.15 224.15 267.55 224.95 263.85 222.25 262.5 218.95 L262.35 218.85 Q259.9 214.9 258.55 216.8 257.35 218.35 255.7 216.15 252.85 213.2 252.4 208.95 M283.25 182.55 Q284.4 182.85 284.85 181.4 285.3 179.9 286.3 178.85 287.3 177.75 286.95 177.1 L286.1 176.05 285.45 175.6 Q284.5 175.05 283.85 176.35 L282.25 179.45 Q281.3 181.25 281.7 181.75 L282.9 182.45 283.1 182.65 283.25 182.55 M295.2 182.2 Q294.7 181.65 294.0 181.65 293.3 181.65 292.75 182.2 292.25 182.8 292.25 183.65 292.25 184.5 292.75 185.05 293.3 185.65 294.0 185.65 294.7 185.65 295.2 185.05 295.75 184.5 295.75 183.65 295.75 182.8 295.2 182.2 M286.95 201.0 L286.85 201.0 286.95 201.05 286.95 201.0 M298.65 202.3 L298.7 202.3 298.7 202.25 298.65 202.3 M275.6 183.6 L275.4 183.7 275.75 183.6 275.6 183.6 M272.25 191.3 L272.1 191.3 Q268.1 191.35 265.25 194.2 262.3 197.15 262.3 201.25 262.3 205.3 265.25 208.25 268.05 211.1 272.05 211.2 L272.55 210.4 Q274.2 208.0 276.05 206.25 278.45 203.9 281.2 202.6 281.65 202.35 282.2 202.15 L282.25 201.25 Q282.2 197.15 279.3 194.2 276.35 191.25 272.25 191.3" fill="#918cd0" fill-rule="evenodd" stroke="none"/>
    <path d="M251.5 201.65 L251.4 201.65 Q251.7 194.7 257.8 191.55 L258.0 191.5 Q261.6 189.4 262.8 188.95 L263.0 188.85 Q265.5 186.95 265.45 184.35 266.15 181.15 270.85 182.15 275.55 183.15 278.75 181.15 280.3 179.4 281.4 177.1 L281.55 176.8 Q285.85 168.8 290.7 175.55 L291.0 175.9 Q292.4 178.45 293.15 177.95 295.35 175.75 297.2 178.1 298.65 179.95 299.45 184.6 299.15 186.15 299.1 188.45 L299.1 188.75 299.05 189.15 299.2 190.5 299.4 190.9 299.7 191.5 299.8 191.6 Q300.65 192.85 301.7 193.3 L301.7 193.35 Q307.1 196.65 303.3 202.55 L303.3 202.6 301.95 204.4 Q302.15 206.7 301.75 209.95 301.25 214.35 300.75 211.8 L300.2 207.8 299.75 206.25 298.5 204.75 298.45 206.25 Q298.3 209.7 297.35 212.4 L297.5 212.15 295.75 222.85 Q294.95 226.05 292.35 225.1 290.0 224.25 292.4 218.65 L292.15 218.8 292.35 218.15 292.4 218.05 Q293.5 213.95 292.6 211.1 291.55 215.3 288.55 220.4 287.9 221.5 287.6 222.65 290.15 226.35 286.6 228.7 L286.4 228.85 Q283.2 229.1 284.85 223.45 L284.4 222.85 284.25 222.6 281.45 218.35 279.1 223.45 278.7 224.35 Q277.9 226.35 279.15 227.35 L279.6 227.7 Q280.25 228.35 280.25 229.25 280.25 230.15 279.6 230.6 L278.05 231.05 Q277.15 231.05 276.5 230.6 275.85 230.15 275.85 229.25 275.85 228.35 276.5 227.75 L276.5 227.7 Q277.3 226.6 276.8 225.0 L276.65 224.85 276.5 224.65 276.2 224.2 276.05 224.05 Q273.95 221.3 270.65 220.1 270.4 221.7 271.3 223.5 L271.35 223.6 Q272.0 224.85 270.15 225.7 269.15 226.75 269.35 227.25 L270.0 229.0 Q270.2 229.7 269.7 230.5 269.15 231.35 268.05 231.5 266.0 231.75 265.25 229.9 265.0 229.3 265.55 227.75 266.0 226.4 265.8 225.8 L264.2 223.2 264.2 223.15 263.25 222.1 260.15 218.7 Q260.15 220.1 260.4 221.15 L260.4 221.25 Q263.65 225.8 262.05 229.25 260.7 230.45 260.2 228.8 259.8 227.4 260.15 224.95 260.3 223.75 259.8 222.7 L259.55 222.45 Q250.3 212.2 250.9 207.5 L251.5 208.2 251.9 208.6 252.4 208.95 Q252.85 213.2 255.7 216.15 257.35 218.35 258.55 216.8 259.9 214.9 262.35 218.85 L262.5 218.95 Q263.85 222.25 267.55 224.95 271.15 224.15 269.15 222.8 268.05 222.05 270.65 218.4 L270.85 218.35 Q278.75 224.95 281.2 215.05 281.65 216.6 283.5 217.9 L283.65 218.15 Q287.25 223.9 290.6 208.2 291.5 204.8 292.5 206.75 295.4 211.2 296.8 202.9 297.15 201.55 298.2 202.2 301.7 204.9 301.5 200.3 304.75 195.7 298.5 193.6 296.1 193.45 297.4 188.3 L297.35 188.3 297.65 183.95 297.65 183.85 Q297.8 182.4 295.6 178.55 295.05 177.8 293.25 179.7 291.5 180.6 289.75 176.2 288.1 173.0 285.35 173.9 284.05 174.1 282.1 178.4 281.4 180.45 279.45 182.15 278.2 182.95 274.05 183.9 271.7 184.5 269.2 183.5 L268.9 183.5 Q266.3 183.3 266.7 184.9 266.9 186.8 266.0 187.45 L264.15 189.95 263.85 190.1 260.3 191.65 260.05 191.8 Q253.55 194.75 253.0 200.65 L252.8 200.75 252.7 200.8 251.5 201.65 M297.8 190.6 L297.6 190.25 297.75 190.65 297.8 190.6" fill="#6f68c1" fill-rule="evenodd" stroke="none"/>
    <path d="M300.2 207.8 L297.5 212.15 297.35 212.4 Q298.3 209.7 298.45 206.25 L298.5 204.75 299.75 206.25 300.2 207.8 M292.4 218.05 L288.55 220.4 Q291.55 215.3 292.6 211.1 293.5 213.95 292.4 218.05 M284.25 222.6 L279.1 223.45 281.45 218.35 284.25 222.6 M276.05 224.05 L271.35 223.6 271.3 223.5 Q270.4 221.7 270.65 220.1 273.95 221.3 276.05 224.05 M263.25 222.1 L260.4 221.25 260.4 221.15 Q260.15 220.1 260.15 218.7 L263.25 222.1" fill="#433d92" fill-rule="evenodd" stroke="none"/>
    <path d="M282.9 182.45 L281.7 181.75 Q281.3 181.25 282.25 179.45 L283.85 176.35 Q284.5 175.05 285.45 175.6 L286.1 176.05 286.95 177.1 Q287.3 177.75 286.3 178.85 285.3 179.9 284.85 181.4 284.4 182.85 283.25 182.55 L282.9 182.45 M295.2 182.2 Q295.75 182.8 295.75 183.65 295.75 184.5 295.2 185.05 294.7 185.65 294.0 185.65 293.3 185.65 292.75 185.05 292.25 184.5 292.25 183.65 292.25 182.8 292.75 182.2 293.3 181.65 294.0 181.65 294.7 181.65 295.2 182.2" fill="#c6c2e7" fill-rule="evenodd" stroke="none"/>
    <path d="M251.5 201.65 L251.4 201.65 Q251.7 194.7 257.8 191.55 L258.0 191.5 Q261.6 189.4 262.8 188.95 L263.0 188.85 Q265.5 186.95 265.45 184.35 266.15 181.15 270.85 182.15 275.55 183.15 278.75 181.15 280.3 179.4 281.4 177.1 L281.55 176.8 Q285.85 168.8 290.7 175.55 L291.0 175.9 Q292.4 178.45 293.15 177.95 295.35 175.75 297.2 178.1 298.65 179.95 299.45 184.6 299.15 186.15 299.1 188.45 L299.1 188.75 299.05 189.15 299.2 190.5 299.4 190.9 299.7 191.5 299.8 191.6 Q300.65 192.85 301.7 193.3 L301.7 193.35 Q307.1 196.65 303.3 202.55 L303.3 202.6 301.95 204.4 Q302.15 206.7 301.75 209.95 301.25 214.35 300.75 211.8 L300.2 207.8 297.5 212.15 295.75 222.85 Q294.95 226.05 292.35 225.1 290.0 224.25 292.4 218.65 L292.15 218.8 292.35 218.15 292.4 218.05 288.55 220.4 Q287.9 221.5 287.6 222.65 290.15 226.35 286.6 228.7 L286.4 228.85 Q283.2 229.1 284.85 223.45 L284.4 222.85 284.25 222.6 279.1 223.45 278.7 224.35 Q277.9 226.35 279.15 227.35 L279.6 227.7 Q280.25 228.35 280.25 229.25 280.25 230.15 279.6 230.6 L278.05 231.05 Q277.15 231.05 276.5 230.6 275.85 230.15 275.85 229.25 275.85 228.35 276.5 227.75 L276.5 227.7 Q277.3 226.6 276.8 225.0 L276.65 224.85 276.5 224.65 276.2 224.2 276.05 224.05 271.35 223.6 Q272.0 224.85 270.15 225.7 269.15 226.75 269.35 227.25 L270.0 229.0 Q270.2 229.7 269.7 230.5 269.15 231.35 268.05 231.5 266.0 231.75 265.25 229.9 265.0 229.3 265.55 227.75 266.0 226.4 265.8 225.8 L264.2 223.2 264.2 223.15 263.25 222.1 260.4 221.25 Q263.65 225.8 262.05 229.25 260.7 230.45 260.2 228.8 259.8 227.4 260.15 224.95 260.3 223.75 259.8 222.7 L259.55 222.45 Q250.3 212.2 250.9 207.5" fill="none" stroke="#33ffff" stroke-linecap="round" stroke-linejoin="round" stroke-opacity="0.3019608" stroke-width="1.0"/>
    <path d="M290.15 186.2 Q290.9 186.2 291.0 185.9 291.1 185.55 290.45 185.1 289.85 184.7 288.85 184.45 L287.05 184.15 Q286.3 184.15 286.2 184.5 286.1 184.85 286.75 185.25 287.35 185.7 288.4 186.0 L290.15 186.2 M292.05 187.55 L289.8 190.3 Q288.4 191.7 287.0 191.15 285.55 190.55 284.65 189.15 283.75 187.75 283.75 186.55 283.75 185.35 284.8 184.5 285.85 183.7 287.5 183.8 289.1 183.85 290.95 185.05 292.8 186.2 292.05 187.55" fill="#afaadd" fill-rule="evenodd" stroke="none"/>
    <path d="M290.15 186.2 L288.4 186.0 Q287.35 185.7 286.75 185.25 286.1 184.85 286.2 184.5 286.3 184.15 287.05 184.15 L288.85 184.45 Q289.85 184.7 290.45 185.1 291.1 185.55 291.0 185.9 290.9 186.2 290.15 186.2" fill="#d0cdeb" fill-rule="evenodd" stroke="none"/>
    <path d="M286.8 193.6 L288.95 194.05 Q290.3 194.4 290.6 196.4 290.85 198.35 289.65 197.6 288.4 196.85 286.85 196.15 285.35 195.45 284.7 195.5 284.0 195.5 284.0 194.9 284.0 194.3 285.0 193.9 L286.8 193.6" fill="#7a74c7" fill-rule="evenodd" stroke="none"/>
    <path d="M292.05 187.55 L289.8 190.3 Q288.4 191.7 287.0 191.15 285.55 190.55 284.65 189.15 283.75 187.75 283.75 186.55 283.75 185.35 284.8 184.5 285.85 183.7 287.5 183.8 289.1 183.85 290.95 185.05 292.8 186.2 292.05 187.55 Z" fill="none" stroke="#33ffff" stroke-linecap="round" stroke-linejoin="round" stroke-opacity="0.3019608" stroke-width="1.0"/>
    <path d="M298.6 200.2 Q298.6 207.5 292.8 212.65 286.95 217.85 278.75 217.9 270.5 217.85 264.65 212.65 258.8 207.5 258.85 200.2 258.8 192.85 264.65 187.65 270.5 182.45 278.75 182.5 286.95 182.45 292.8 187.65 298.6 192.85 298.6 200.2" fill="url(#gradient0)" fill-rule="evenodd" stroke="none"/>
    <path d="M282.2 202.15 L282.25 201.25 Q282.2 199.55 281.75 198.1 L286.0 201.15 Q284.0 201.4 282.2 202.15" fill="#6f68c1" fill-rule="evenodd" stroke="none"/>
    <path d="M252.15 202.15 Q253.2 201.05 254.75 201.05 256.3 201.05 257.4 202.15 258.5 203.25 258.5 204.8 258.5 206.35 257.4 207.45 256.3 208.55 254.75 208.55 253.2 208.55 252.15 207.45 251.05 206.35 251.05 204.8 251.05 203.25 252.15 202.15 M272.55 210.4 L272.25 210.4 Q268.5 210.4 265.9 207.8 263.25 205.15 263.25 201.4 263.25 197.7 265.9 195.05 268.45 192.45 272.1 192.4 L272.25 192.4 Q275.95 192.4 278.6 195.05 L280.35 197.45 Q281.25 199.25 281.25 201.4 L281.2 202.6 Q278.45 203.9 276.05 206.25 274.2 208.0 272.55 210.4" fill="#e8e7f5" fill-rule="evenodd" stroke="none"/>
    <path d="M252.7 200.8 L253.0 200.65 254.8 200.3 Q256.7 200.3 258.1 201.65 259.45 203.0 259.45 204.95 259.45 206.85 258.1 208.2 256.7 209.6 254.8 209.6 253.15 209.6 251.9 208.6 L251.5 208.2 250.9 207.5 Q250.1 206.35 250.15 204.95 250.15 203.5 250.95 202.35 L251.4 201.75 251.5 201.65 252.7 200.8 M252.15 202.15 Q251.05 203.25 251.05 204.8 251.05 206.35 252.15 207.45 253.2 208.55 254.75 208.55 256.3 208.55 257.4 207.45 258.5 206.35 258.5 204.8 258.5 203.25 257.4 202.15 256.3 201.05 254.75 201.05 253.2 201.05 252.15 202.15 M272.05 211.2 Q268.05 211.1 265.25 208.25 262.3 205.3 262.3 201.25 262.3 197.15 265.25 194.2 268.1 191.35 272.1 191.3 L272.25 191.3 Q276.35 191.25 279.3 194.2 281.05 195.95 281.75 198.1 282.2 199.55 282.25 201.25 L282.2 202.15 Q281.65 202.35 281.2 202.6 L281.25 201.4 Q281.25 199.25 280.35 197.45 L278.6 195.05 Q275.95 192.4 272.25 192.4 L272.1 192.4 Q268.45 192.45 265.9 195.05 263.25 197.7 263.25 201.4 263.25 205.15 265.9 207.8 268.5 210.4 272.25 210.4 L272.55 210.4 272.05 211.2" fill="#312c6b" fill-rule="evenodd" stroke="none"/>
    <path d="M286.0 201.15 L286.85 201.0 286.95 201.0 285.95 203.35 290.15 201.9 289.05 203.8 M272.05 211.2 L272.55 210.4 Q274.2 208.0 276.05 206.25 278.45 203.9 281.2 202.6 281.65 202.35 282.2 202.15 284.0 201.4 286.0 201.15 M271.6 211.9 L272.05 211.2" fill="none" stroke="#312c6b" stroke-linecap="round" stroke-linejoin="round" stroke-width="1.0"/>
    <path d="M278.15 213.8 Q275.65 211.3 275.65 207.75 275.65 204.2 278.15 201.7 280.7 199.2 284.2 199.2 287.75 199.2 290.25 201.7 292.8 204.2 292.8 207.75 292.8 211.3 290.25 213.8 287.75 216.3 284.2 216.3 280.7 216.3 278.15 213.8" fill="url(#gradient1)" fill-rule="evenodd" stroke="none"/>
    <path d="M255.1 216.9 Q254.0 216.15 253.25 214.7 252.45 213.3 252.55 211.95 252.65 210.6 253.55 210.15 254.45 209.65 255.65 210.35 256.75 211.05 257.55 212.45 258.3 213.9 258.2 215.3 258.1 216.6 257.2 217.1 L255.1 216.9" fill="url(#gradient2)" fill-rule="evenodd" stroke="none"/>
    <path d="M270.85 193.9 Q265.7 197.95 259.75 198.3 253.8 198.6 250.6 195.05 247.4 191.45 248.75 186.0 250.15 180.55 255.35 176.45 260.5 172.4 266.45 172.1 272.4 171.75 275.65 175.35 278.85 178.95 277.4 184.4 276.05 189.8 270.85 193.9" fill="#f8f3ed" fill-opacity="0.2" fill-rule="evenodd" stroke="none"/>
    <path d="M249.4 184.6 Q250.65 180.0 255.0 176.55 259.35 173.1 264.4 172.9 269.45 172.55 272.15 175.6 274.85 178.65 273.7 183.25 272.5 187.9 268.15 191.35 263.75 194.7 258.75 195.05 253.7 195.35 251.05 192.3 248.3 189.25 249.4 184.6" fill="#f8f3ed" fill-opacity="0.2" fill-rule="evenodd" stroke="none"/>
    <path d="M250.45 184.3 Q251.5 180.3 255.25 177.35 259.05 174.35 263.4 174.1 267.75 173.85 270.1 176.45 272.5 179.1 271.45 183.1 270.4 187.1 266.6 190.05 262.85 193.05 258.5 193.3 254.15 193.5 251.85 190.9 249.45 188.25 250.45 184.3" fill="#f8f3ed" fill-opacity="0.6" fill-rule="evenodd" stroke="none"/>
    <path d="M257.2 178.85 Q259.35 177.15 261.8 177.05 264.3 176.9 265.6 178.4 266.95 179.9 266.35 182.15 265.75 184.4 263.6 186.1 261.5 187.8 259.0 187.95 256.55 188.05 255.2 186.6 253.9 185.1 254.45 182.85 255.0 180.55 257.2 178.85" fill="#ffffff" fill-opacity="0.8" fill-rule="evenodd" stroke="none"/>
    <path d="M293.2 201.3 Q295.9 197.9 297.9 197.2 299.7 196.5 301.8 197.9 306.0 200.7 304.75 206.9 303.55 212.65 298.3 218.65 292.75 224.9 285.6 228.15 277.55 231.8 270.1 230.25 L265.9 229.4 Q264.05 228.9 263.35 227.75 262.75 226.8 262.85 225.75 262.95 224.75 263.6 224.4 264.75 223.7 269.5 222.15 274.45 220.55 277.65 218.8 282.55 216.05 286.25 211.65 L289.2 207.25 Q291.65 203.35 293.2 201.3" fill="#7c7cb8" fill-opacity="0.5019608" fill-rule="evenodd" stroke="none"/>
    <path d="M292.35 199.1 L292.3 199.3 290.85 198.5 Q293.6 194.7 291.4 190.65 L292.4 190.5 Q293.9 195.25 298.05 193.3 L298.5 196.1 298.3 196.0 Q293.35 193.45 292.35 199.1" fill="#b0abdb" fill-rule="evenodd" stroke="none"/>
    <path d="M292.35 199.1 Q293.35 193.45 298.3 196.0 L298.2 196.5 Q294.3 194.5 292.95 199.2 L292.35 199.1" fill="#6258b8" fill-rule="evenodd" stroke="none"/>
  </g>
  <defs>
    <radialGradient cx="0" cy="0" gradientTransform="matrix(0.0247, 0.0, 0.0, 0.022, 278.7, 200.15)" gradientUnits="userSpaceOnUse" id="gradient0" r="819.2" spreadMethod="pad">
      <stop offset="0.0" stop-color="#c6c2e7"/>
      <stop offset="1.0" stop-color="#c6c2e7" stop-opacity="0.0"/>
    </radialGradient>
    <radialGradient cx="0" cy="0" gradientTransform="matrix(0.0106, 0.0, 0.0, 0.0106, 284.2, 207.75)" gradientUnits="userSpaceOnUse" id="gradient1" r="819.2" spreadMethod="pad">
      <stop offset="0.0" stop-color="#67f1f8"/>
      <stop offset="1.0" stop-color="#7eeef7" stop-opacity="0.0"/>
    </radialGradient>
    <radialGradient cx="0" cy="0" gradientTransform="matrix(0.0027, -0.0014, 0.0023, 0.0043, 255.4, 213.6)" gradientUnits="userSpaceOnUse" id="gradient2" r="819.2" spreadMethod="pad">
      <stop offset="0.0" stop-color="#67f1f8"/>
      <stop offset="1.0" stop-color="#7eeef7" stop-opacity="0.0"/>
    </radialGradient>
  </defs>
</svg>
