<?xml version="1.0" encoding="UTF-8" standalone="no"?>
<svg xmlns:ffdec="https://www.free-decompiler.com/flash" xmlns:xlink="http://www.w3.org/1999/xlink" ffdec:objectType="shape" height="111.2px" width="139.7px" xmlns="http://www.w3.org/2000/svg">
  <g transform="matrix(1.0, 0.0, 0.0, 1.0, 0.5, 0.5)">
    <path d="M129.55 43.5 L123.8 43.0 109.5 29.75 100.65 25.55 104.0 26.15 104.0 26.45 111.0 26.65 127.75 39.75 129.55 43.5 M102.3 71.75 L90.7 72.05 88.65 66.95 88.65 66.9 88.6 66.9 54.5 74.95 54.45 74.95 55.2 79.55 37.55 83.75 36.65 78.5 10.5 68.55 6.4 57.55 10.1 45.8 8.5 43.35 17.5 29.35 20.25 32.1 43.6 20.95 41.4 14.2 64.05 4.95 71.05 24.85 76.45 23.5 115.65 55.8 119.8 65.05 118.8 69.7 117.1 67.05 102.15 66.45 102.3 71.75 M85.75 79.15 L99.5 79.45 89.45 91.55 61.8 90.5 62.1 102.35 41.95 101.35 25.85 103.95 13.0 97.3 11.5 91.15 4.9 87.3 3.3 78.35 18.6 82.7 21.4 92.6 60.85 83.4 60.75 79.85 84.2 76.05 84.25 76.2 85.75 79.15" fill="#ae896a" fill-rule="evenodd" stroke="none"/>
    <path d="M123.8 43.0 L129.55 43.5 138.7 62.8 128.9 88.7 120.65 87.15 120.4 87.1 120.0 86.05 127.1 84.75 133.95 61.7 123.8 43.0 M104.0 26.15 L100.65 25.55 98.45 9.45 102.2 10.6 104.0 26.15" fill="#785941" fill-rule="evenodd" stroke="none"/>
    <path d="M121.5 71.75 L122.6 65.5 118.3 54.8 105.0 43.4 112.3 41.95 123.8 43.0 133.95 61.7 127.1 84.75 120.0 86.05 120.4 87.1 120.2 87.05 120.2 92.55 98.05 104.75 71.8 108.0 68.9 105.15 68.9 104.7 68.55 99.2 94.55 98.5 111.95 88.5 120.35 78.05 121.1 73.95 121.5 71.75 M98.45 9.45 L100.65 25.55 73.7 20.6 66.9 0.05 98.45 9.45 M26.2 25.6 L20.3 28.8 16.9 25.15 26.2 25.6 M27.7 79.2 L27.7 79.25 31.35 87.95 23.9 89.8 20.6 80.15 20.45 79.6 27.65 79.2 27.7 79.2 M43.9 103.55 L34.9 110.2 24.8 105.25 43.9 103.55" fill="#493627" fill-rule="evenodd" stroke="none"/>
    <path d="M100.65 25.55 L109.5 29.75 123.8 43.0 112.3 41.95 105.0 43.4 118.3 54.8 122.6 65.5 121.5 71.75 116.4 69.2 116.35 69.05 107.75 68.95 105.4 68.9 105.75 74.95 96.05 75.05 105.75 74.95 105.4 68.9 107.75 68.95 108.6 75.7 91.85 93.75 64.15 93.75 64.9 104.5 43.9 103.55 24.8 105.25 11.8 98.8 10.05 92.15 2.95 87.5 0.0 72.9 0.15 72.85 20.6 80.15 23.9 89.8 31.35 87.95 38.7 86.1 27.7 79.25 27.7 79.2 27.15 78.0 7.8 69.75 3.8 59.15 7.55 47.4 5.35 42.15 16.75 25.0 16.9 25.15 20.3 28.8 26.2 25.6 39.3 18.6 37.7 12.15 66.7 0.0 66.9 0.05 73.7 20.6 100.65 25.55 M58.6 77.25 L58.85 81.05 38.7 86.1 58.85 81.05 58.6 77.25 59.8 78.2 85.45 72.55 86.15 70.9 88.4 75.15 96.05 75.05 85.85 70.4 85.6 69.95 85.05 70.05 Q72.55 72.05 58.55 76.35 L58.6 77.05 58.6 77.25 M102.3 71.75 L102.15 66.45 117.1 67.05 118.8 69.7 119.8 65.05 115.65 55.8 76.45 23.5 71.05 24.85 64.05 4.95 41.4 14.2 43.6 20.95 20.25 32.1 17.5 29.35 8.5 43.35 10.1 45.8 6.4 57.55 10.5 68.55 36.65 78.5 37.55 83.75 55.2 79.55 54.45 74.95 54.5 74.95 88.6 66.9 88.65 66.9 88.65 66.95 90.7 72.05 102.3 71.75 M85.75 79.15 L84.25 76.2 84.2 76.05 60.75 79.85 60.85 83.4 21.4 92.6 18.6 82.7 3.3 78.35 4.9 87.3 11.5 91.15 13.0 97.3 25.85 103.95 41.95 101.35 62.1 102.35 61.8 90.5 89.45 91.55 99.5 79.45 85.75 79.15 M27.65 79.2 L27.7 79.2 27.65 79.2" fill="#916c4f" fill-rule="evenodd" stroke="none"/>
    <path d="M121.5 71.75 L121.1 73.95 120.35 78.05 111.95 88.5 94.55 98.5 68.55 99.2 68.9 104.7 64.9 104.5 64.15 93.75 91.85 93.75 108.6 75.7 107.75 68.95 116.35 69.05 116.4 69.2 121.5 71.75 M27.7 79.25 L38.7 86.1 31.35 87.95 27.7 79.25 M85.85 70.4 L96.05 75.05 88.4 75.15 86.15 70.9 85.85 70.4 M121.1 73.95 L117.6 74.1 116.4 69.2 117.6 74.1 121.1 73.95" fill="#71553e" fill-rule="evenodd" stroke="none"/>
    <path d="M7.8 69.75 L27.15 78.0 27.7 79.2 27.65 79.2 20.45 79.6 20.6 80.15 0.15 72.85 7.8 69.75 M58.6 77.25 L58.6 77.05 58.55 76.35 Q72.55 72.05 85.05 70.05 L85.6 69.95 85.85 70.4 86.15 70.9 85.45 72.55 59.8 78.2 58.6 77.25" fill="#c5aa94" fill-rule="evenodd" stroke="none"/>
    <path d="M129.55 43.5 L127.75 39.75 111.0 26.65 104.0 26.45 104.0 26.15 102.2 10.6 98.45 9.45 66.9 0.05 66.7 0.0 37.7 12.15 39.3 18.6 26.2 25.6 16.9 25.15 16.75 25.0 5.35 42.15 7.55 47.4 3.8 59.15 7.8 69.75 0.15 72.85 0.0 72.9 2.95 87.5 10.05 92.15 11.8 98.8 24.8 105.25 34.9 110.2 43.9 103.55 64.9 104.5 68.9 104.7 68.9 105.15 71.8 108.0 98.05 104.75 120.2 92.55 120.2 87.05 120.4 87.1 M120.65 87.15 L128.9 88.7 138.7 62.8 129.55 43.5" fill="none" stroke="#000000" stroke-linecap="round" stroke-linejoin="round" stroke-opacity="0.3019608" stroke-width="1.0"/>
    <path d="M7.8 69.75 L27.15 78.0 27.7 79.2 27.7 79.25 31.35 87.95 38.7 86.1 58.85 81.05 58.6 77.25 M58.6 77.05 L58.55 76.35 Q72.55 72.05 85.05 70.05 L85.6 69.95 85.85 70.4 86.15 70.9 88.4 75.15 96.05 75.05 105.75 74.95 105.4 68.9 107.75 68.95 116.35 69.05 116.4 69.2 117.6 74.1 121.1 73.95 M23.9 89.8 L31.35 87.95" fill="none" stroke="#674d36" stroke-linecap="round" stroke-linejoin="round" stroke-width="1.0"/>
    <path d="M120.4 87.1 L120.65 87.15" ffdec:has-small-stroke="true" ffdec:original-stroke-width="0.05" fill="none" stroke="#ae896a" stroke-linecap="round" stroke-linejoin="round" stroke-width="1.0"/>
    <path d="M101.6 53.0 Q97.25 57.4 91.05 57.4 84.85 57.4 80.45 53.0 76.05 48.6 76.05 42.4 76.05 36.2 80.45 31.8 84.85 27.45 91.05 27.45 97.25 27.45 101.6 31.8 106.05 36.2 106.05 42.4 106.05 48.6 101.6 53.0" fill="url(#gradient0)" fill-rule="evenodd" stroke="none"/>
    <path d="M18.5 67.6 Q16.7 71.1 13.45 71.65 10.15 72.25 7.35 69.6 4.5 66.95 3.75 62.6 2.95 58.3 4.7 54.8 6.5 51.35 9.8 50.75 13.05 50.2 15.85 52.8 18.75 55.5 19.55 59.8 20.3 64.15 18.5 67.6" fill="url(#gradient1)" fill-rule="evenodd" stroke="none"/>
    <path d="M77.45 52.1 L87.8 58.45 Q81.8 59.65 75.75 61.3 77.5 57.75 77.5 53.6 L77.45 52.1" fill="#493627" fill-rule="evenodd" stroke="none"/>
    <path d="M48.5 70.8 Q45.05 69.4 42.15 66.8 36.1 61.35 36.1 53.6 36.1 45.9 42.15 40.4 48.25 34.9 56.8 34.9 65.35 34.9 71.4 40.4 76.9 45.35 77.45 52.1 L77.5 53.6 Q77.5 57.75 75.75 61.3 62.3 64.95 48.5 70.8 M22.95 44.9 Q27.4 44.9 30.5 47.7 33.65 50.55 33.65 54.55 33.65 58.55 30.5 61.4 27.4 64.2 22.95 64.25 18.5 64.2 15.35 61.4 12.25 58.55 12.25 54.55 12.25 50.55 15.35 47.7 18.5 44.9 22.95 44.9" fill="#f7f3f0" fill-rule="evenodd" stroke="none"/>
    <path d="M85.45 53.75 L94.5 50.35 M81.95 51.5 L88.45 44.05 M77.45 52.1 L87.8 58.45" fill="none" stroke="#000000" stroke-linecap="round" stroke-linejoin="round" stroke-opacity="0.3019608" stroke-width="1.0"/>
    <path d="M48.5 70.8 Q45.05 69.4 42.15 66.8 36.1 61.35 36.1 53.6 36.1 45.9 42.15 40.4 48.25 34.9 56.8 34.9 65.35 34.9 71.4 40.4 76.9 45.35 77.45 52.1 L77.5 53.6 Q77.5 57.75 75.75 61.3 M22.95 44.9 Q27.4 44.9 30.5 47.7 33.65 50.55 33.65 54.55 33.65 58.55 30.5 61.4 27.4 64.2 22.95 64.25 18.5 64.2 15.35 61.4 12.25 58.55 12.25 54.55 12.25 50.55 15.35 47.7 18.5 44.9 22.95 44.9" fill="none" stroke="#000000" stroke-linecap="round" stroke-linejoin="round" stroke-opacity="0.3019608" stroke-width="2.0"/>
    <path d="M87.8 58.45 L88.9 58.25 M87.8 58.45 Q81.8 59.65 75.75 61.3 62.3 64.95 48.5 70.8 43.05 73.05 37.6 75.7" fill="none" stroke="#000000" stroke-linecap="round" stroke-linejoin="round" stroke-opacity="0.3019608" stroke-width="1.5"/>
    <path d="M88.9 58.25 L92.8 62.15 100.7 59.4 104.25 62.15" fill="none" stroke="#000000" stroke-linecap="round" stroke-linejoin="round" stroke-opacity="0.3019608" stroke-width="1.5"/>
    <path d="M116.25 61.45 Q109.4 57.95 108.05 65.75 L108.05 66.05 106.05 64.9 Q109.8 59.7 106.75 54.15 L108.2 53.9 Q110.2 60.45 115.95 57.8 L116.55 61.6 116.25 61.45" fill="#916c4f" fill-rule="evenodd" stroke="none"/>
    <path d="M116.25 61.45 L116.15 62.2 Q110.7 59.45 108.9 65.95 L108.05 65.75 Q109.4 57.95 116.25 61.45" fill="#473627" fill-rule="evenodd" stroke="none"/>
  </g>
  <defs>
    <radialGradient cx="0" cy="0" gradientTransform="matrix(0.0194, 0.0, 0.0, 0.0194, 91.05, 42.4)" gradientUnits="userSpaceOnUse" id="gradient0" r="819.2" spreadMethod="pad">
      <stop offset="0.0" stop-color="#dc7e4e"/>
      <stop offset="1.0" stop-color="#dc8051" stop-opacity="0.0"/>
    </radialGradient>
    <radialGradient cx="0" cy="0" gradientTransform="matrix(0.0102, -0.0018, 0.0024, 0.0135, 11.65, 61.2)" gradientUnits="userSpaceOnUse" id="gradient1" r="819.2" spreadMethod="pad">
      <stop offset="0.0" stop-color="#dc7e4e"/>
      <stop offset="1.0" stop-color="#dc8051" stop-opacity="0.0"/>
    </radialGradient>
  </defs>
</svg>
