<?xml version="1.0" encoding="UTF-8" standalone="no"?>
<svg xmlns:ffdec="https://www.free-decompiler.com/flash" xmlns:xlink="http://www.w3.org/1999/xlink" ffdec:objectType="shape" height="46.5px" width="36.05px" xmlns="http://www.w3.org/2000/svg">
  <g transform="matrix(1.0, 0.0, 0.0, 1.0, -311.85, -205.65)">
    <path d="M347.35 229.1 Q347.55 230.15 347.0 230.8 346.5 231.45 345.55 231.4 L344.95 231.35 Q343.8 231.15 342.75 230.35 L342.2 229.95 341.8 229.55 Q340.8 228.5 340.4 227.35 339.9 225.95 340.55 225.15 340.95 224.65 341.6 224.55 341.4 226.0 342.15 227.3 342.75 228.25 343.95 228.3 L347.35 229.1 M316.7 229.95 Q315.7 230.7 314.65 230.9 L314.1 230.95 Q313.2 231.0 312.7 230.35 312.05 229.55 312.55 228.15 L312.6 227.9 312.65 227.75 Q314.0 228.75 315.4 227.6 L317.15 225.4 317.95 224.15 Q318.5 224.25 318.85 224.7 319.45 225.5 319.0 226.9 318.6 228.05 317.65 229.1 L317.25 229.5 316.75 229.9 316.7 229.95" fill="#666600" fill-rule="evenodd" stroke="none"/>
    <path d="M347.35 229.1 L343.95 228.3 Q342.75 228.25 342.15 227.3 341.4 226.0 341.6 224.55 L342.65 224.6 Q343.8 224.8 344.95 225.65 L344.95 225.7 345.4 226.05 Q346.6 227.1 347.1 228.35 L347.2 228.6 347.35 229.1 M312.65 227.75 L312.7 227.75 Q313.15 226.55 314.25 225.6 L314.6 225.25 314.65 225.2 315.25 224.8 Q316.0 224.3 316.85 224.15 317.45 224.0 317.95 224.15 L317.15 225.4 315.4 227.6 Q314.0 228.75 312.65 227.75 M344.95 227.15 L344.8 226.8 344.0 225.55 343.15 226.3 343.1 226.55 343.2 227.0 Q343.25 227.3 344.45 227.7 L344.8 227.35 344.95 227.15 M314.9 227.45 Q315.65 227.35 316.0 226.65 316.55 225.7 315.65 225.85 314.7 225.75 314.6 226.7 L314.9 227.45" fill="#339900" fill-rule="evenodd" stroke="none"/>
    <path d="M328.4 232.75 L328.6 232.8 328.4 232.75" fill="#f7a29d" fill-rule="evenodd" stroke="none"/>
    <path d="M328.6 232.8 L328.4 232.75 Q327.15 233.0 327.15 233.45 L326.9 234.4 326.9 235.0 327.05 235.75 Q328.15 236.65 329.3 236.15 L329.85 236.0 330.05 235.6 330.15 234.75 Q330.2 233.25 328.6 232.8 M325.1 238.7 L325.05 237.65 325.1 236.65 Q325.25 234.3 326.3 232.5 327.45 230.55 329.05 230.4 330.95 232.1 331.55 234.75 332.05 237.15 331.3 239.55 L330.25 241.4 Q329.5 242.1 328.15 241.65 L327.35 241.2 326.65 240.15 326.65 238.9 327.0 238.3 327.65 237.85 328.15 237.8 328.5 237.9 328.7 238.1 328.85 238.3 328.9 239.15 328.4 239.75 Q329.1 240.15 329.65 239.25 L329.65 238.05 329.3 237.35 Q328.8 236.5 327.45 236.8 326.1 237.05 325.1 238.7" fill="#f0524a" fill-rule="evenodd" stroke="none"/>
    <path d="M328.4 232.75 L328.6 232.8 Q330.2 233.25 330.15 234.75 L330.05 235.6 329.85 236.0 329.3 236.15 Q328.15 236.65 327.05 235.75 L326.9 235.0 326.9 234.4 327.15 233.45 Q327.15 233.0 328.4 232.75" fill="#fbc9c6" fill-rule="evenodd" stroke="none"/>
    <path d="M325.1 238.7 Q326.1 237.05 327.45 236.8 328.8 236.5 329.3 237.35 L329.65 238.05 329.65 239.25 Q329.1 240.15 328.4 239.75 L328.9 239.15 328.85 238.3 328.7 238.1 328.5 237.9 328.15 237.8 327.65 237.85 327.0 238.3 326.65 238.9 326.65 240.15 327.35 241.2 328.15 241.65 Q329.5 242.1 330.25 241.4 L331.3 239.55 Q332.05 237.15 331.55 234.75 330.95 232.1 329.05 230.4 330.05 230.4 330.9 231.0 332.25 231.85 332.85 233.45 333.45 235.0 333.55 236.7 L333.5 237.65 333.15 240.4 Q332.8 242.15 331.75 243.6 L331.5 243.85 Q330.8 244.65 329.9 244.85 L328.55 244.6 Q326.95 244.25 326.2 242.55 325.35 240.75 325.1 238.7" fill="#b5170f" fill-rule="evenodd" stroke="none"/>
    <path d="M344.95 227.15 L344.8 227.35 344.45 227.7 Q343.25 227.3 343.2 227.0 L343.1 226.55 343.15 226.3 344.0 225.55 344.8 226.8 344.95 227.15 M314.9 227.45 L314.6 226.7 Q314.7 225.75 315.65 225.85 316.55 225.7 316.0 226.65 315.65 227.35 314.9 227.45" fill="#ffff80" fill-rule="evenodd" stroke="none"/>
    <path d="M340.4 232.55 Q340.5 233.3 339.95 234.1 L338.45 233.95 Q338.05 232.85 338.85 231.9 L339.8 231.7 339.2 231.45 339.9 231.65 340.4 232.55 M320.15 231.45 L320.3 231.25 321.05 231.15 321.5 231.25 321.7 231.4 322.1 232.2 322.0 232.65 320.95 233.3 Q320.05 232.15 320.15 231.45" fill="#82a0df" fill-rule="evenodd" stroke="none"/>
    <path d="M318.35 234.0 L318.55 233.0 318.6 232.8 318.75 232.45 Q319.25 231.1 320.15 230.3 320.75 229.75 321.35 229.65 322.6 230.8 322.3 232.8 L322.1 234.0 Q321.7 235.15 321.3 234.9 321.2 234.05 320.2 233.4 318.8 233.2 318.35 233.95 L318.35 234.0 M340.55 232.95 L340.75 233.5 341.05 235.35 Q340.3 235.45 339.6 236.0 337.8 236.15 337.5 234.2 337.15 231.9 338.55 230.75 L338.1 230.15 Q338.65 230.3 339.2 230.8 L339.9 231.65 339.2 231.45 339.8 231.7 338.85 231.9 Q338.05 232.85 338.45 233.95 L339.95 234.1 Q340.5 233.3 340.4 232.55 L340.55 232.95 M323.65 233.0 L323.6 233.15 323.6 233.1 323.65 233.0 M320.15 231.45 Q320.05 232.15 320.95 233.3 L322.0 232.65 322.1 232.2 321.7 231.4 321.5 231.25 321.05 231.15 320.3 231.25 320.15 231.45" fill="#3366cc" fill-rule="evenodd" stroke="none"/>
    <path d="M322.85 235.9 L321.75 237.3 321.3 237.65 Q320.45 238.2 319.7 237.95 318.7 237.6 318.4 236.15 L318.35 235.9 Q318.15 235.0 318.35 234.0 L318.35 233.95 Q318.8 233.2 320.2 233.4 321.2 234.05 321.3 234.9 321.7 235.15 322.1 234.0 L322.3 232.8 Q322.6 230.8 321.35 229.65 L322.2 229.7 322.55 229.85 Q323.2 230.3 323.5 231.45 L323.65 232.75 323.65 233.0 323.6 233.1 323.6 233.15 323.5 234.05 323.35 234.65 322.85 235.9 M341.05 235.35 L341.0 236.4 340.95 236.65 Q340.6 238.1 339.6 238.45 338.85 238.7 338.05 238.15 L337.55 237.8 Q336.7 237.0 336.25 235.8 L336.0 235.15 335.85 234.55 Q335.5 233.15 335.8 231.95 336.15 230.5 337.15 230.2 L338.1 230.15 338.55 230.75 Q337.15 231.9 337.5 234.2 337.8 236.15 339.6 236.0 340.3 235.45 341.05 235.35" fill="#254996" fill-rule="evenodd" stroke="none"/>
    <path d="M345.35 225.25 Q345.7 223.5 345.0 222.1 L343.85 219.6 Q342.25 216.15 342.2 212.35 342.2 210.25 340.75 208.55 339.8 207.35 338.45 206.7 334.95 205.25 332.2 207.5 L328.5 210.55 324.3 214.35 Q323.15 215.3 321.7 215.85 319.8 216.55 318.25 218.05 316.5 219.75 315.45 222.05 314.95 223.05 315.15 224.25" fill="none" stroke="#660000" stroke-linecap="round" stroke-linejoin="round" stroke-width="1.0"/>
    <path d="M341.6 224.55 Q340.95 224.65 340.55 225.15 339.9 225.95 340.4 227.35 340.8 228.5 341.8 229.55 L342.2 229.95 342.75 230.35 Q343.8 231.15 344.95 231.35 L345.55 231.4 Q346.5 231.45 347.0 230.8 347.55 230.15 347.35 229.1 L347.2 228.6 347.1 228.35 Q346.6 227.1 345.4 226.05 L344.95 225.7 344.95 225.65 Q343.8 224.8 342.65 224.6 L341.6 224.55 M325.1 238.7 L325.05 237.65 325.1 236.65 323.9 236.3 322.85 235.9 321.75 237.3 321.3 237.65 Q320.45 238.2 319.7 237.95 318.7 237.6 318.4 236.15 L318.35 235.9 Q318.15 235.0 318.35 234.0 L318.55 233.0 318.6 232.8 317.45 231.25 316.7 229.95 Q315.7 230.7 314.65 230.9 L314.1 230.95 Q313.2 231.0 312.7 230.35 312.05 229.55 312.55 228.15 L312.6 227.9 312.65 227.75 312.7 227.75 Q313.15 226.55 314.25 225.6 L314.6 225.25 314.65 225.2 315.25 224.8 Q316.0 224.3 316.85 224.15 317.45 224.0 317.95 224.15 318.5 224.25 318.85 224.7 319.45 225.5 319.0 226.9 318.6 228.05 317.65 229.1 L317.25 229.5 316.75 229.9 316.7 229.95 M329.05 230.4 Q327.45 230.55 326.3 232.5 325.25 234.3 325.1 236.65 M331.75 243.6 Q332.8 242.15 333.15 240.4 L333.5 237.65 333.55 236.7 Q333.45 235.0 332.85 233.45 332.25 231.85 330.9 231.0 330.05 230.4 329.05 230.4 M342.75 230.35 L341.8 231.6 340.55 232.95 340.75 233.5 341.05 235.35 341.0 236.4 340.95 236.65 Q340.6 238.1 339.6 238.45 338.85 238.7 338.05 238.15 L337.55 237.8 Q336.7 237.0 336.25 235.8 L336.2 235.85 335.3 236.2 333.55 236.7 M338.1 230.15 L337.15 230.2 Q336.15 230.5 335.8 231.95 335.5 233.15 335.85 234.55 L336.0 235.15 336.25 235.8 M339.9 231.65 L339.2 230.8 Q338.65 230.3 338.1 230.15 M340.4 232.55 L339.9 231.65 M340.55 232.95 L340.4 232.55 M325.1 238.7 Q325.35 240.75 326.2 242.55 326.95 244.25 328.55 244.6 L329.9 244.85 Q330.8 244.65 331.5 243.85 M321.35 229.65 L322.2 229.7 322.55 229.85 Q323.2 230.3 323.5 231.45 L323.65 232.75 323.65 233.0 323.6 233.15 323.5 234.05 323.35 234.65 322.85 235.9 M318.6 232.8 L318.75 232.45 Q319.25 231.1 320.15 230.3 320.75 229.75 321.35 229.65" fill="none" stroke="#660000" stroke-linecap="round" stroke-linejoin="round" stroke-width="1.0"/>
    <path d="M332.75 240.55 Q334.55 241.55 335.45 243.45 336.3 245.25 336.15 247.3 L335.7 248.85 Q335.25 249.6 334.1 249.45 L333.35 249.25 332.65 248.55 332.45 247.6 332.55 247.05 Q332.7 246.75 333.0 246.6 L333.45 246.45 333.7 246.5 333.9 246.6 334.05 246.7 334.2 247.4 333.9 247.95 Q334.55 248.1 334.85 247.3 L334.65 246.35 334.2 245.9 332.65 245.8 Q331.6 246.2 331.2 247.7 L331.0 246.9 330.8 246.1 Q330.5 244.25 331.0 242.7 331.5 240.95 332.75 240.55 M332.85 242.5 L332.65 242.45 Q331.7 242.9 331.75 243.25 L331.75 244.05 331.95 244.5 332.2 245.05 333.95 244.95 334.35 244.8 334.5 244.35 334.4 243.75 Q334.15 242.55 332.85 242.5" fill="#ffcc00" fill-rule="evenodd" stroke="none"/>
    <path d="M331.2 247.7 Q331.6 246.2 332.65 245.8 L334.2 245.9 334.65 246.35 334.85 247.3 Q334.55 248.1 333.9 247.95 L334.2 247.4 334.05 246.7 333.9 246.6 333.7 246.5 333.45 246.45 333.0 246.6 Q332.7 246.75 332.55 247.05 L332.45 247.6 332.65 248.55 333.35 249.25 334.1 249.45 Q335.25 249.6 335.7 248.85 L336.15 247.3 Q336.3 245.25 335.45 243.45 334.55 241.55 332.75 240.55 L334.3 240.7 Q335.5 241.1 336.25 242.25 337.0 243.35 337.35 244.55 L337.5 245.35 337.75 247.55 Q337.75 249.0 337.2 250.3 L337.1 250.5 336.05 251.65 334.95 251.65 Q333.6 251.7 332.7 250.55 331.7 249.25 331.2 247.7" fill="#ff9900" fill-rule="evenodd" stroke="none"/>
    <path d="M332.85 242.5 Q334.15 242.55 334.4 243.75 L334.5 244.35 334.35 244.8 333.95 244.95 332.2 245.05 331.95 244.5 331.75 244.05 331.75 243.25 Q331.7 242.9 332.65 242.45 L332.85 242.5" fill="#ffff00" fill-rule="evenodd" stroke="none"/>
    <path d="M332.75 240.55 Q331.5 240.95 331.0 242.7 330.5 244.25 330.8 246.1 L331.0 246.9 331.2 247.7 Q331.7 249.25 332.7 250.55 333.6 251.7 334.95 251.65 L336.05 251.65 337.1 250.5 337.2 250.3 Q337.75 249.0 337.75 247.55 L337.5 245.35 337.35 244.55 Q337.0 243.35 336.25 242.25 335.5 241.1 334.3 240.7 L332.75 240.55 Z" fill="none" stroke="#000000" stroke-linecap="round" stroke-linejoin="round" stroke-opacity="0.6" stroke-width="1.0"/>
  </g>
</svg>
