<?xml version="1.0" encoding="UTF-8" standalone="no"?>
<svg xmlns:ffdec="https://www.free-decompiler.com/flash" xmlns:xlink="http://www.w3.org/1999/xlink" ffdec:objectType="shape" height="44.75px" width="45.25px" xmlns="http://www.w3.org/2000/svg">
  <g transform="matrix(1.0, 0.0, 0.0, 1.0, 0.35, -0.3)">
    <path d="M18.35 25.2 L19.15 25.1 24.35 24.6 21.2 29.3 16.15 29.4 Q18.35 29.7 20.1 30.5 19.5 31.05 19.05 31.95 L18.85 32.55 15.75 35.45 15.6 35.55 13.5 35.75 12.55 36.8 12.9 38.05 10.05 39.3 9.05 39.5 6.65 39.05 6.55 39.1 7.45 37.6 7.75 37.2 6.5 38.0 6.05 38.2 Q5.25 38.35 4.6 38.75 L4.55 38.75 2.15 38.35 -0.35 35.6 0.85 33.3 2.7 33.1 6.1 32.75 4.2 31.8 4.3 31.35 3.4 31.35 2.5 30.9 6.6 28.75 9.25 28.8 12.65 28.7 13.35 28.4 11.2 27.85 7.7 27.15 7.75 27.1 14.0 23.8 18.2 24.0 16.45 25.0 18.35 25.2 M20.35 26.6 L20.2 27.55 18.55 28.25 20.7 28.25 22.15 26.9 Q21.7 26.05 19.7 25.65 L16.3 26.05 16.1 26.2 20.35 26.6 M18.55 26.9 L17.3 26.5 17.1 27.1 17.5 27.5 17.25 27.65 12.5 26.4 14.35 25.2 13.1 24.9 13.0 24.95 10.15 26.8 Q12.7 27.65 15.6 28.05 L16.8 28.35 Q17.6 28.65 18.8 27.4 L18.55 26.9 M6.75 29.75 L6.75 29.95 4.7 30.7 5.35 31.55 11.4 30.5 6.75 29.75 M12.6 32.8 L12.85 32.8 11.5 31.5 8.25 31.65 7.55 32.4 8.25 33.55 7.5 35.35 10.0 34.8 11.65 35.85 15.0 32.15 14.6 31.05 11.45 30.5 13.7 31.5 14.05 31.9 13.9 32.6 11.5 34.8 11.25 34.8 10.45 34.15 9.0 34.5 9.25 33.7 8.7 32.75 9.1 32.2 12.1 33.2 12.45 33.1 12.6 32.8 M13.15 35.65 Q16.15 33.8 18.6 31.1 17.2 30.3 15.45 29.55 16.95 30.85 16.8 31.55 15.65 33.3 13.15 35.65 M6.7 32.95 L6.3 33.1 1.3 33.9 0.5 35.35 0.6 35.65 3.1 37.9 4.85 37.75 5.0 37.8 8.6 35.7 4.75 37.05 3.45 35.35 6.2 33.25 5.9 35.2 7.15 33.6 7.1 33.35 6.7 32.95 M19.25 32.15 L19.75 31.65 Q19.9 31.4 20.0 31.45 L20.35 31.8 20.45 32.35 19.45 32.1 19.25 32.15" fill="#c49b9b" fill-rule="evenodd" stroke="none"/>
    <path d="M24.35 24.6 L25.1 32.1 22.0 37.05 21.2 29.3 24.35 24.6 M19.95 37.25 L13.65 43.85 13.35 41.05 15.9 38.1 15.85 37.65 16.15 35.8 15.75 35.45 18.85 32.55 19.25 32.15 19.45 32.1 20.45 32.35 20.6 36.4 19.95 37.25 M2.7 43.7 L0.1 40.4 -0.35 35.6 2.15 38.35 2.7 43.7 M6.6 28.75 L6.85 28.6 7.4 27.5 7.7 27.15 11.2 27.85 13.35 28.4 12.65 28.7 9.25 28.8 6.6 28.75 M18.2 24.0 L18.35 25.2 16.45 25.0 18.2 24.0 M16.15 36.25 L16.25 35.95 16.25 35.9 16.15 36.25 M4.55 38.75 L4.6 38.75 Q5.25 38.35 6.05 38.2 L6.5 38.0 7.75 37.2 7.45 37.6 6.55 39.1 6.65 39.05 6.55 39.15 6.6 39.45 6.25 40.25 5.85 41.15 5.55 41.95 Q5.4 42.45 5.05 42.55 L5.0 41.8 4.9 40.75 4.75 39.75 4.6 38.8 4.55 38.75" fill="#9c5f5f" fill-rule="evenodd" stroke="none"/>
    <path d="M13.65 43.85 L9.6 45.05 9.4 42.7 9.8 42.6 10.4 42.35 10.05 42.15 9.35 42.2 9.2 40.7 12.6 39.05 13.35 41.05 13.65 43.85 M20.35 26.6 L16.1 26.2 16.3 26.05 19.7 25.65 Q21.7 26.05 22.15 26.9 L20.7 28.25 18.55 28.25 20.2 27.55 20.35 26.6 M18.55 26.9 L18.8 27.4 Q17.6 28.65 16.8 28.35 L15.6 28.05 Q12.7 27.65 10.15 26.8 L13.0 24.95 13.1 24.9 14.35 25.2 12.5 26.4 17.25 27.65 17.5 27.5 17.1 27.1 17.3 26.5 18.55 26.9 M6.75 29.75 L11.4 30.5 5.35 31.55 4.7 30.7 6.75 29.95 6.75 29.75 M12.6 32.8 L12.45 33.1 12.1 33.2 9.1 32.2 8.7 32.75 9.25 33.7 9.0 34.5 10.45 34.15 11.25 34.8 11.5 34.8 13.9 32.6 14.05 31.9 13.7 31.5 11.45 30.5 14.6 31.05 15.0 32.15 11.65 35.85 10.0 34.8 7.5 35.35 8.25 33.55 7.55 32.4 8.25 31.65 11.5 31.5 12.85 32.8 12.6 32.8 M6.7 32.95 L7.1 33.35 7.15 33.6 5.9 35.2 6.2 33.25 3.45 35.35 4.75 37.05 8.6 35.7 5.0 37.8 4.85 37.75 3.1 37.9 0.6 35.65 0.5 35.35 1.3 33.9 6.3 33.1 6.7 32.95 M13.15 35.65 Q15.65 33.3 16.8 31.55 16.95 30.85 15.45 29.55 17.2 30.3 18.6 31.1 16.15 33.8 13.15 35.65" fill="#d0b3b3" fill-rule="evenodd" stroke="none"/>
    <path d="M13.5 35.75 L15.6 35.55 15.75 35.45 16.15 35.8 15.85 37.65 15.9 38.1 13.75 38.5 13.5 35.75" fill="#ab7070" fill-rule="evenodd" stroke="none"/>
    <path d="M22.0 37.05 L19.95 37.25 20.6 36.4 20.45 32.35 20.35 31.8 20.0 31.45 Q19.9 31.4 19.75 31.65 L19.25 32.15 18.85 32.55 19.05 31.95 Q19.5 31.05 20.1 30.5 18.35 29.7 16.15 29.4 L21.2 29.3 22.0 37.05 M2.7 33.1 L2.5 30.9 3.4 31.35 4.3 31.35 4.2 31.8 6.1 32.75 2.7 33.1 M12.9 38.05 L12.55 36.8 13.5 35.75 13.75 38.5 15.9 38.1 13.35 41.05 12.6 39.05 12.9 38.05 M16.15 36.25 L16.25 35.9 16.25 35.95 16.15 36.25" fill="#845151" fill-rule="evenodd" stroke="none"/>
    <path d="M9.6 45.05 L2.7 43.7 2.15 38.35 4.55 38.75 4.6 38.8 4.75 39.75 4.9 40.75 5.0 41.8 5.05 42.55 Q5.4 42.45 5.55 41.95 L5.85 41.15 6.25 40.25 6.6 39.45 6.55 39.15 6.65 39.05 9.05 39.5 10.05 39.3 12.9 38.05 12.6 39.05 9.2 40.7 9.35 42.2 10.05 42.15 10.4 42.35 9.8 42.6 9.4 42.7 9.6 45.05" fill="#af7e7e" fill-rule="evenodd" stroke="none"/>
    <path d="M18.35 25.2 L19.15 25.1 M22.0 37.05 L19.95 37.25 M18.2 24.0 L18.35 25.2" ffdec:has-small-stroke="true" ffdec:original-stroke-width="0.05" fill="none" stroke="#8f4b1b" stroke-linecap="round" stroke-linejoin="round" stroke-width="1.0"/>
    <path d="M19.15 25.1 L24.35 24.6 25.1 32.1 22.0 37.05 M19.95 37.25 L13.65 43.85 9.6 45.05 2.7 43.7 0.1 40.4 -0.35 35.6 0.85 33.3 2.7 33.1 2.5 30.9 6.6 28.75 6.85 28.6 7.4 27.5 7.7 27.15 7.75 27.1 14.0 23.8 18.2 24.0" ffdec:has-small-stroke="true" ffdec:original-stroke-width="0.05" fill="none" stroke="#8f4b1b" stroke-linecap="round" stroke-linejoin="round" stroke-width="1.0"/>
    <path d="M41.65 15.9 Q42.8 16.4 43.55 17.35 44.95 19.3 44.9 21.65 44.8 24.25 43.7 26.6 42.45 29.15 40.25 30.95 38.25 32.6 35.85 33.5 33.35 34.5 30.7 34.3 L27.5 33.95 26.7 33.75 26.4 33.7 22.6 31.6 23.25 30.4 27.15 32.75 27.5 32.85 27.85 32.95 33.1 33.4 Q35.75 32.95 37.25 32.15 L40.45 29.75 Q42.15 28.2 43.5 25.6 44.1 24.45 44.1 23.1 44.1 20.15 42.2 17.95 L40.95 16.8 Q38.7 15.25 35.9 15.3 33.65 15.3 31.8 14.2 31.05 13.75 30.8 13.0 L30.75 12.2 Q31.25 9.85 36.9 7.95 37.95 7.45 38.45 6.4 L38.6 5.8 Q38.4 3.4 36.05 2.3 33.5 1.05 30.7 0.95 27.95 0.8 25.7 2.3 24.4 3.1 23.45 4.35 21.85 6.3 20.95 8.65 L20.45 9.8 19.9 10.75 19.1 11.35 Q17.05 12.4 14.7 12.45 L9.35 13.05 8.45 13.45 Q7.4 14.15 7.6 15.4 L7.8 16.2 Q8.45 18.75 12.5 24.55 L11.65 24.95 7.85 18.15 7.15 16.2 7.1 16.15 Q6.85 15.2 6.95 14.3 7.1 13.35 8.45 12.55 9.8 11.75 12.6 11.8 15.55 12.1 18.25 10.9 19.45 10.35 20.05 9.1 L20.85 7.25 Q21.8 5.05 23.2 3.2 23.75 2.4 24.55 1.95 26.95 0.55 29.85 0.3 32.5 0.15 35.05 0.9 37.75 1.75 39.4 4.1 40.3 5.35 39.9 6.8 39.55 7.95 38.55 8.5 37.45 9.05 36.2 9.4 33.9 9.95 32.05 11.4 L31.55 12.05 Q31.35 12.45 31.5 12.9 31.7 13.85 32.55 14.2 34.2 14.85 36.05 14.8 39.0 14.7 41.65 15.9" fill="#6c260d" fill-rule="evenodd" stroke="none"/>
  </g>
</svg>
