<?xml version="1.0" encoding="UTF-8" standalone="no"?>
<svg xmlns:ffdec="https://www.free-decompiler.com/flash" xmlns:xlink="http://www.w3.org/1999/xlink" ffdec:objectType="shape" height="20.15px" width="13.05px" xmlns="http://www.w3.org/2000/svg">
  <g transform="matrix(1.0, 0.0, 0.0, 1.0, 6.15, 16.75)">
    <path d="M-0.4 -6.75 Q-0.95 -9.3 -1.5 -9.75 -2.0 -10.2 -1.9 -10.8 -1.65 -12.9 -3.45 -14.0 L-4.85 -15.2 -4.85 -15.35 Q-4.6 -15.65 -3.9 -15.75 -0.05 -16.4 3.7 -15.75 6.05 -15.1 6.65 -14.1 7.2 -13.2 6.1 -11.95 4.95 -10.7 3.05 -9.55 L1.85 -8.9 0.45 -7.85" ffdec:has-small-stroke="true" ffdec:original-stroke-width="0.1" fill="none" stroke="#28383e" stroke-linecap="round" stroke-linejoin="round" stroke-width="1.0"/>
    <path d="M5.95 -2.8 Q5.95 -0.4 4.25 1.3 2.55 3.0 -0.05 3.15 -2.65 3.3 -4.15 1.45 -5.65 -0.4 -5.65 -2.8 -5.65 -5.2 -3.95 -6.9 -2.25 -8.6 0.15 -8.6 2.55 -8.6 4.25 -6.9 5.95 -5.2 5.95 -2.8" fill="#cd8210" fill-rule="evenodd" stroke="none"/>
    <path d="M5.95 -2.8 Q5.95 -0.4 4.25 1.3 2.55 3.0 -0.05 3.15 -2.65 3.3 -4.15 1.45 -5.65 -0.4 -5.65 -2.8 -5.65 -5.2 -3.95 -6.9 -2.25 -8.6 0.15 -8.6 2.55 -8.6 4.25 -6.9 5.95 -5.2 5.95 -2.8 Z" ffdec:has-small-stroke="true" ffdec:original-stroke-width="0.05" fill="none" stroke="#000000" stroke-linecap="round" stroke-linejoin="round" stroke-opacity="0.3019608" stroke-width="1.0"/>
    <path d="M-5.35 -5.35 L-4.45 -6.5 Q-2.75 -8.2 -0.35 -8.2 2.05 -8.2 3.75 -6.5 L4.35 -5.85 Q5.45 -4.35 5.45 -2.4 5.45 0.0 3.75 1.7 2.05 3.4 -0.35 3.4 L-1.5 3.3 -1.45 2.65 -1.55 2.6 -1.5 1.45 -2.1 2.45 -2.35 2.35 -2.85 2.85 -4.45 1.7 Q-6.15 0.0 -6.15 -2.4 -6.15 -3.75 -5.6 -4.9 L-5.15 -4.8 -5.35 -5.35 M-1.45 2.65 L-0.3 2.75 Q1.8 2.75 3.3 1.25 4.8 -0.25 4.8 -2.35 4.8 -4.2 3.7 -5.55 4.8 -4.2 4.8 -2.35 4.8 -0.25 3.3 1.25 1.8 2.75 -0.3 2.75 L-1.45 2.65 M3.7 -5.55 L3.3 -5.95 Q1.8 -7.45 -0.3 -7.45 -2.4 -7.45 -3.9 -5.95 L-4.8 -4.75 Q-5.3 -3.95 -5.4 -2.9 L3.7 -5.55 M-2.35 2.35 Q-3.2 1.95 -3.9 1.25 -5.4 -0.25 -5.4 -2.35 L-5.4 -2.9 -5.4 -2.35 Q-5.4 -0.25 -3.9 1.25 -3.2 1.95 -2.35 2.35" fill="#efa330" fill-rule="evenodd" stroke="none"/>
    <path d="M-5.4 -2.9 Q-5.3 -3.95 -4.8 -4.75 L-3.9 -5.95 Q-2.4 -7.45 -0.3 -7.45 1.8 -7.45 3.3 -5.95 L3.7 -5.55 -5.4 -2.9" fill="#cd8210" fill-rule="evenodd" stroke="none"/>
    <path d="M-5.35 -5.35 L-4.45 -6.5 Q-2.75 -8.2 -0.35 -8.2 2.05 -8.2 3.75 -6.5 L4.35 -5.85 Q5.45 -4.35 5.45 -2.4 5.45 0.0 3.75 1.7 2.05 3.4 -0.35 3.4 L-1.5 3.3 M-1.45 2.65 L-1.55 2.6 M-2.1 2.45 L-2.35 2.35 Q-3.2 1.95 -3.9 1.25 -5.4 -0.25 -5.4 -2.35 L-5.4 -2.9 Q-5.3 -3.95 -4.8 -4.75 L-3.9 -5.95 Q-2.4 -7.45 -0.3 -7.45 1.8 -7.45 3.3 -5.95 L3.7 -5.55 Q4.8 -4.2 4.8 -2.35 4.8 -0.25 3.3 1.25 1.8 2.75 -0.3 2.75 L-1.45 2.65 M-2.85 2.85 L-4.45 1.7 Q-6.15 0.0 -6.15 -2.4 -6.15 -3.75 -5.6 -4.9" ffdec:has-small-stroke="true" ffdec:original-stroke-width="0.05" fill="none" stroke="#000000" stroke-linecap="round" stroke-linejoin="round" stroke-opacity="0.3019608" stroke-width="1.0"/>
    <path d="M-5.0 -2.35 L-5.0 -2.45 Q-5.0 -3.5 -4.6 -4.35 L-3.75 -3.0 -5.0 -2.35 M2.35 -1.6 L2.65 -0.9 2.35 -0.25 Q2.05 0.05 1.65 0.05 1.25 0.05 0.95 -0.25 L0.65 -0.8 0.65 -0.9 Q0.65 -1.3 0.95 -1.6 L1.65 -1.85 2.35 -1.6 M1.25 -6.25 Q-1.75 -5.65 -3.9 -4.55 -2.2 -7.3 1.25 -6.25" fill="#fcf9c2" fill-rule="evenodd" stroke="none"/>
    <path d="M-4.6 -4.35 L-3.65 -5.8 Q-2.3 -7.2 -0.45 -7.15 1.4 -7.2 2.7 -5.8 L3.35 -5.0 Q1.6 -4.9 0.35 -3.55 -0.65 -2.45 -0.95 -1.1 L-1.05 0.0 Q-1.05 1.2 -0.55 2.25 -2.35 2.2 -3.65 0.85 -4.95 -0.5 -5.0 -2.35 L-3.75 -3.0 -4.6 -4.35 M-2.45 -2.9 L-2.3 -2.1 -3.6 -3.05 -3.75 -3.0 -3.6 -3.05 -2.3 -2.1 -2.45 -2.9 M-2.3 -2.1 L-0.95 -1.1 -2.3 -2.1 M2.0 -2.1 L1.35 -2.45 1.5 -3.65 2.65 -3.25 2.0 -2.1 M-0.3 -0.7 L-0.35 -1.5 0.35 -1.55 0.25 -0.75 -0.3 -0.7 M2.95 -0.35 L3.05 -1.25 4.25 -1.25 4.05 0.05 2.95 -0.35 M1.25 -6.25 Q-2.2 -7.3 -3.9 -4.55 -1.75 -5.65 1.25 -6.25 M2.05 0.4 L2.0 1.6 0.95 1.5 1.25 0.45 1.3 0.4 2.05 0.4" fill="#fffc6c" fill-rule="evenodd" stroke="none"/>
    <path d="M-4.6 -4.35 L-3.65 -5.8 Q-2.3 -7.2 -0.45 -7.15 1.4 -7.2 2.7 -5.8 L3.35 -5.0 Q1.6 -4.9 0.35 -3.55 -0.65 -2.45 -0.95 -1.1 L-1.05 0.0 Q-1.05 1.2 -0.55 2.25 -2.35 2.2 -3.65 0.85 -4.95 -0.5 -5.0 -2.35 L-5.0 -2.45 Q-5.0 -3.5 -4.6 -4.35" ffdec:has-small-stroke="true" ffdec:original-stroke-width="0.05" fill="none" stroke="#000000" stroke-linecap="round" stroke-linejoin="round" stroke-opacity="0.3019608" stroke-width="1.0"/>
    <path d="M-4.6 -4.35 L-3.75 -3.0 -3.6 -3.05 -2.3 -2.1 -2.45 -2.9 M-3.75 -3.0 L-5.0 -2.35 M-0.95 -1.1 L-2.3 -2.1 M-0.3 -0.7 L0.25 -0.75 0.35 -1.55 -0.35 -1.5 -0.3 -0.7 M2.0 -2.1 L2.65 -3.25 1.5 -3.65 1.35 -2.45 2.0 -2.1 M2.35 -1.6 L2.65 -0.9 2.35 -0.25 Q2.05 0.05 1.65 0.05 1.25 0.05 0.95 -0.25 L0.65 -0.8 0.65 -0.9 Q0.65 -1.3 0.95 -1.6 L1.65 -1.85 2.35 -1.6 M2.95 -0.35 L4.05 0.05 4.25 -1.25 3.05 -1.25 2.95 -0.35 M2.05 0.4 L2.0 1.6 0.95 1.5 1.25 0.45 1.3 0.4 2.05 0.4 Z" ffdec:has-small-stroke="true" ffdec:original-stroke-width="0.05" fill="none" stroke="#000000" stroke-linecap="round" stroke-linejoin="round" stroke-opacity="0.15294118" stroke-width="1.0"/>
    <path d="M3.0 -16.2 L4.4 -15.95 4.3 -15.15 3.0 -15.45 3.0 -16.2 M0.2 -15.5 L-2.05 -15.25 -2.05 -16.65 0.05 -16.75 2.4 -16.6 2.35 -15.25 0.2 -15.5 0.05 -16.75 0.2 -15.5 M-3.8 -16.15 L-2.65 -16.25 -2.6 -15.55 -3.8 -15.4 -3.8 -16.15" fill="#efa330" fill-rule="evenodd" stroke="none"/>
    <path d="M3.0 -15.45 L3.0 -16.2 M0.2 -15.5 L-2.05 -15.25 -2.05 -16.65 0.05 -16.75 2.4 -16.6 2.35 -15.25 0.2 -15.5 0.05 -16.75" ffdec:has-small-stroke="true" ffdec:original-stroke-width="0.05" fill="none" stroke="#000000" stroke-linecap="round" stroke-linejoin="round" stroke-opacity="0.15294118" stroke-width="1.0"/>
    <path d="M3.0 -16.2 L4.4 -15.95 4.3 -15.15 3.0 -15.45" ffdec:has-small-stroke="true" ffdec:original-stroke-width="0.05" fill="none" stroke="#000000" stroke-linecap="round" stroke-linejoin="round" stroke-opacity="0.15294118" stroke-width="1.0"/>
  </g>
</svg>
