<?xml version="1.0" encoding="UTF-8" standalone="no"?>
<svg xmlns:ffdec="https://www.free-decompiler.com/flash" xmlns:xlink="http://www.w3.org/1999/xlink" ffdec:objectType="shape" height="39.1px" width="36.75px" xmlns="http://www.w3.org/2000/svg">
  <g transform="matrix(1.0, 0.0, 0.0, 1.0, -18.7, -1.05)">
    <path d="M24.55 5.8 L24.5 5.75 Q21.9 2.9 18.95 2.25 L18.75 1.1 Q22.15 2.3 24.8 5.2 L24.9 5.35 25.15 5.25 25.2 5.25 Q30.95 3.5 36.7 6.45 40.5 8.3 47.1 24.55 L46.55 24.6 47.5 25.65 52.2 37.95 Q53.0 39.8 55.4 39.5 54.75 39.95 53.9 40.1 50.55 38.8 48.45 35.2 L48.6 35.0 Q41.7 22.45 33.1 13.3 29.5 9.55 25.55 6.3 L25.4 6.2 25.15 6.2 24.65 5.95 24.6 5.95 24.6 5.85 24.55 5.8 M36.75 9.15 Q35.2 9.95 32.75 9.55 L31.85 9.35 32.75 9.55 Q35.2 9.95 36.75 9.15 M39.55 13.9 Q38.0 14.85 36.65 14.55 38.0 14.85 39.55 13.9" fill="#a6ce46" fill-rule="evenodd" stroke="none"/>
    <path d="M53.9 40.1 L51.5 39.75 Q43.05 36.45 37.3 32.5 35.05 30.0 35.2 27.0 L34.15 30.15 Q30.05 26.8 27.75 23.0 L27.65 22.9 Q23.15 14.1 24.65 5.95 L25.15 6.2 25.1 6.7 25.5 7.1 Q29.45 10.3 33.05 14.1 41.5 23.1 48.35 35.4 L48.45 35.2 Q50.55 38.8 53.9 40.1 M38.05 27.35 Q39.6 23.75 36.1 18.45 39.6 23.75 38.05 27.35 M32.4 23.65 Q33.3 19.75 30.7 13.85 L29.9 12.0 30.7 13.85 Q33.3 19.75 32.4 23.65 M35.25 26.8 L35.2 27.0 35.25 26.8" fill="#789a29" fill-rule="evenodd" stroke="none"/>
    <path d="M25.15 6.2 L25.4 6.2 25.55 6.3 Q29.5 9.55 33.1 13.3 41.7 22.45 48.6 35.0 L48.45 35.2 48.35 35.4 Q41.5 23.1 33.05 14.1 29.45 10.3 25.5 7.1 L25.1 6.7 25.15 6.2" fill="#89b02f" fill-rule="evenodd" stroke="none"/>
    <path d="M24.55 5.8 L24.5 5.75 Q21.9 2.9 18.95 2.25 L18.75 1.1 Q22.15 2.3 24.8 5.2 L24.9 5.35 25.15 5.25 25.2 5.25 Q30.95 3.5 36.7 6.45 40.5 8.3 47.1 24.55 L46.55 24.6 47.5 25.65 52.2 37.95 Q53.0 39.8 55.4 39.5 54.75 39.95 53.9 40.1 L51.5 39.75 Q43.05 36.45 37.3 32.5 35.05 30.0 35.2 27.0 L34.15 30.15 Q30.05 26.8 27.75 23.0 L27.65 22.9 Q23.15 14.1 24.65 5.95 L24.55 5.8 24.6 5.85 24.6 5.95 24.65 5.95 M35.2 27.0 L35.25 26.8" ffdec:has-small-stroke="true" ffdec:original-stroke-width="0.1" fill="none" stroke="#000000" stroke-linecap="round" stroke-linejoin="round" stroke-opacity="0.6" stroke-width="1.0"/>
    <path d="M48.35 35.4 Q41.5 23.1 33.05 14.1 29.45 10.3 25.5 7.1 L25.1 6.7 M31.85 9.35 L32.75 9.55 Q35.2 9.95 36.75 9.15 M29.9 12.0 L30.7 13.85 Q33.3 19.75 32.4 23.65 M36.1 18.45 Q39.6 23.75 38.05 27.35 M36.65 14.55 Q38.0 14.85 39.55 13.9" ffdec:has-small-stroke="true" ffdec:original-stroke-width="0.1" fill="none" stroke="#000000" stroke-linecap="round" stroke-linejoin="round" stroke-opacity="0.3019608" stroke-width="1.0"/>
  </g>
</svg>
