<?xml version="1.0" encoding="UTF-8" standalone="no"?>
<svg xmlns:ffdec="https://www.free-decompiler.com/flash" xmlns:xlink="http://www.w3.org/1999/xlink" ffdec:objectType="shape" height="83.95px" width="78.05px" xmlns="http://www.w3.org/2000/svg">
  <g transform="matrix(1.0, 0.0, 0.0, 1.0, -11.1, -69.9)">
    <path d="M69.9 93.6 L69.2 94.8 67.6 94.95 Q57.3 96.05 50.25 99.5 L50.2 99.55 48.9 100.25 48.6 102.35 57.75 98.7 Q70.35 94.1 71.45 96.85 L71.55 97.35 71.45 97.45 Q70.65 98.4 68.1 98.55 L67.15 98.65 65.6 99.15 64.15 99.75 64.0 99.8 63.95 99.85 62.1 100.3 58.35 101.4 58.05 101.55 54.3 102.95 52.5 103.75 52.15 103.9 Q46.65 105.0 45.6 102.95 L45.4 102.45 48.8 100.3 48.9 100.25 48.8 100.3 45.4 102.45 44.75 102.95 42.55 104.9 40.95 104.95 44.7 101.15 41.8 100.3 Q37.1 98.35 33.95 93.05 32.85 89.75 31.7 93.65 L30.9 92.05 Q29.1 87.3 31.45 82.55 34.8 80.7 37.35 82.55 37.05 83.7 37.05 84.95 37.0 85.3 37.5 86.4 L38.15 87.8 38.9 89.35 40.95 93.45 Q40.45 94.2 40.55 94.75 L40.75 95.25 41.15 95.4 41.05 96.0 Q41.4 97.15 42.45 96.65 44.05 98.85 47.2 99.1 50.45 99.3 53.4 97.25 56.4 95.15 56.95 92.55 57.35 90.6 57.1 88.9 L56.9 87.8 57.1 87.05 56.4 86.55 56.7 86.5 Q57.0 86.25 56.8 86.05 L56.75 85.95 56.65 85.8 Q56.3 85.4 55.75 85.5 L54.2 83.15 53.15 81.65 50.2 77.75 Q48.65 76.9 46.45 76.35 L44.65 76.05 Q51.2 73.3 57.3 75.35 57.1 75.8 57.05 76.5 56.75 79.9 56.9 80.65 L57.0 81.7 57.0 81.95 57.05 82.3 57.6 85.15 Q56.8 86.1 57.75 86.5 57.15 87.25 58.0 87.85 L58.15 88.25 Q58.55 89.45 59.4 90.75 61.3 93.6 64.5 94.35 67.45 95.05 69.9 93.6" fill="url(#gradient0)" fill-rule="evenodd" stroke="none"/>
    <path d="M44.75 107.8 Q43.15 108.95 42.0 108.45 41.15 108.1 41.05 107.15 41.05 106.0 42.55 104.9 L44.75 102.95 45.4 102.45 45.6 102.95 Q46.65 105.0 52.15 103.9 49.85 104.95 47.5 106.2 46.95 106.45 45.25 107.45 L45.05 107.55 44.75 107.8 M40.95 104.95 Q38.65 104.75 37.05 102.95 36.4 102.3 35.9 101.45 L35.25 100.3 31.7 93.65 Q32.85 89.75 33.95 93.05 37.1 98.35 41.8 100.3 L44.7 101.15 40.95 104.95" fill="#777c80" fill-rule="evenodd" stroke="none"/>
    <path d="M30.9 92.05 L30.0 90.25 Q26.5 83.15 33.75 76.55 36.85 73.7 40.5 72.1 L41.85 71.55 Q46.15 69.9 51.25 69.9 56.35 69.9 60.2 71.55 63.55 72.95 65.95 75.55 65.45 75.2 64.0 74.75 L61.2 74.0 61.15 73.95 59.25 73.8 Q57.8 74.0 57.3 75.35 51.2 73.3 44.65 76.05 40.95 75.75 39.25 78.3 37.85 80.35 37.35 82.55 34.8 80.7 31.45 82.55 29.1 87.3 30.9 92.05 M69.2 94.8 Q70.2 94.7 71.45 95.3 L71.6 95.35 Q72.1 96.55 71.55 97.35 L71.45 96.85 Q70.35 94.1 57.75 98.7 L48.6 102.35 48.9 100.25 50.2 99.55 50.25 99.5 Q57.3 96.05 67.6 94.95 L69.2 94.8 M43.75 71.2 Q52.15 69.55 58.2 71.55 61.45 72.6 64.0 74.75 61.45 72.6 58.2 71.55 52.15 69.55 43.75 71.2 M71.45 95.3 L67.6 95.1 71.45 95.3 M67.6 95.1 Q59.35 95.95 50.2 99.55 59.35 95.95 67.6 95.1" fill="#6975a5" fill-rule="evenodd" stroke="none"/>
    <path d="M65.95 75.55 Q68.35 77.0 69.9 78.55 L71.45 80.45 72.05 81.45 Q73.55 84.6 72.95 86.3 L73.7 87.25 71.45 86.0 Q68.4 84.45 64.95 84.2 L58.75 84.7 Q61.9 83.6 65.35 83.95 68.1 84.25 71.0 85.45 L71.45 85.4 71.45 85.15 Q71.0 84.2 66.25 80.65 59.3 75.5 57.0 81.7 L56.9 80.65 Q56.75 79.9 57.05 76.5 57.1 75.8 57.3 75.35 57.8 74.0 59.25 73.8 L61.15 73.95 61.2 74.0 64.0 74.75 Q65.45 75.2 65.95 75.55 M37.35 82.55 Q37.85 80.35 39.25 78.3 40.95 75.75 44.65 76.05 L46.45 76.35 Q48.65 76.9 50.2 77.75 L53.15 81.65 54.2 83.15 55.75 85.5 Q50.1 86.15 44.9 89.55 44.3 89.9 43.7 90.35 L44.55 89.6 44.8 89.4 Q48.2 86.45 52.1 85.75 42.9 75.9 37.35 82.55" fill="#ffe242" fill-rule="evenodd" stroke="none"/>
    <path d="M73.7 87.25 Q74.05 87.9 73.9 88.2 L73.2 88.75 Q73.75 89.7 72.7 90.05 72.4 91.25 71.45 92.3 L70.25 93.35 69.9 93.6 Q67.45 95.05 64.5 94.35 61.3 93.6 59.4 90.75 58.55 89.45 58.15 88.25 L58.0 87.85 Q57.15 87.25 57.75 86.5 56.8 86.1 57.6 85.15 L57.05 82.3 57.0 81.95 57.0 81.7 Q59.3 75.5 66.25 80.65 71.0 84.2 71.45 85.15 L71.45 85.4 71.0 85.45 Q68.1 84.25 65.35 83.95 61.9 83.6 58.75 84.7 L64.95 84.2 Q68.4 84.45 71.45 86.0 L73.7 87.25 M68.25 86.45 L67.1 85.55 Q65.55 84.9 64.0 84.75 61.45 84.5 58.85 85.55 L58.85 86.3 58.25 86.4 57.75 86.5 58.25 86.4 58.85 86.3 62.05 85.95 63.65 85.9 68.25 86.45 Q69.95 86.9 71.4 87.65 L71.45 87.7 Q72.35 88.15 73.2 88.75 72.35 88.15 71.45 87.7 L71.4 87.65 Q69.95 86.9 68.25 86.45 M58.8 87.55 L62.55 92.85 Q68.5 93.75 67.9 87.95 L67.9 87.9 68.6 87.2 65.45 86.4 58.85 86.4 58.8 87.55 M72.7 90.05 L71.7 89.45 71.45 89.35 Q69.8 88.4 67.9 87.9 69.8 88.4 71.45 89.35 L71.7 89.45 72.7 90.05 M55.75 85.5 Q56.3 85.4 56.65 85.8 L56.75 85.95 56.8 86.05 Q57.0 86.25 56.7 86.5 L56.4 86.55 Q50.15 87.75 45.8 90.9 L44.95 91.5 45.8 90.9 Q50.15 87.75 56.4 86.55 L57.1 87.05 56.9 87.8 57.1 88.9 Q57.35 90.6 56.95 92.55 56.4 95.15 53.4 97.25 50.45 99.3 47.2 99.1 44.05 98.85 42.45 96.65 41.4 97.15 41.05 96.0 L41.15 95.4 41.2 95.3 41.45 94.95 41.5 94.95 44.15 92.2 44.95 91.5 43.2 92.1 40.55 94.75 Q40.45 94.2 40.95 93.45 L43.7 90.35 Q44.3 89.9 44.9 89.55 50.1 86.15 55.75 85.5 M55.3 88.35 L52.15 89.35 51.7 89.5 52.15 89.35 55.3 88.35 M42.8 96.15 Q44.3 97.8 47.0 98.1 52.85 95.0 51.7 89.5 L46.7 91.1 46.2 91.5 44.45 93.0 Q42.85 94.5 41.8 96.15 L42.8 96.15 42.45 96.65 42.8 96.15 M37.5 86.4 Q37.0 85.3 37.05 84.95 37.05 83.7 37.35 82.55 42.9 75.9 52.1 85.75 48.2 86.45 44.8 89.4 L44.55 89.6 Q43.1 87.55 41.85 86.5 40.1 85.1 38.7 85.4 L37.5 86.4" fill="url(#gradient1)" fill-rule="evenodd" stroke="none"/>
    <path d="M58.85 86.3 L58.85 85.55 Q61.45 84.5 64.0 84.75 65.55 84.9 67.1 85.55 L68.25 86.45 63.65 85.9 62.05 85.95 58.85 86.3 M67.9 87.9 L67.9 87.95 Q68.5 93.75 62.55 92.85 L58.8 87.55 59.45 87.45 Q62.15 87.15 64.5 87.35 L67.9 87.9 64.5 87.35 Q62.15 87.15 59.45 87.45 L58.8 87.55 58.85 86.4 65.45 86.4 68.6 87.2 67.9 87.9 M43.7 90.35 L40.95 93.45 38.9 89.35 38.15 87.8 37.5 86.4 38.7 85.4 Q40.1 85.1 41.85 86.5 43.1 87.55 44.55 89.6 L43.7 90.35 M40.55 94.75 L43.2 92.1 44.95 91.5 44.15 92.2 41.5 94.95 41.45 94.95 41.2 95.3 41.15 95.4 40.75 95.25 40.55 94.75 M42.8 96.15 L41.8 96.15 Q42.85 94.5 44.45 93.0 L46.2 91.5 46.7 91.1 51.7 89.5 Q52.85 95.0 47.0 98.1 44.3 97.8 42.8 96.15 L44.8 93.85 Q45.65 93.0 46.7 92.25 48.85 90.6 51.7 89.5 48.85 90.6 46.7 92.25 45.65 93.0 44.8 93.85 L42.8 96.15" fill="#efa220" fill-rule="evenodd" stroke="none"/>
    <path d="M68.1 98.55 L68.4 99.6 68.4 99.65 67.6 100.6 68.0 102.3 68.05 102.9 68.05 102.95 Q68.2 104.8 67.6 106.35 L66.7 106.2 Q67.25 104.8 67.05 103.3 L67.0 102.95 66.95 102.7 66.45 101.2 64.4 101.2 64.65 102.55 63.2 102.55 63.4 102.95 63.8 103.95 63.95 104.55 Q64.65 107.2 63.2 109.2 L61.55 109.35 61.9 105.4 61.9 104.65 61.75 103.35 58.5 103.35 58.05 101.55 58.5 103.35 59.0 105.15 57.3 105.15 58.05 106.15 58.45 106.85 Q59.35 108.8 58.2 110.6 L56.95 110.7 Q57.0 109.1 56.5 107.65 L56.15 106.85 55.25 105.25 52.7 105.25 53.25 106.6 51.55 106.6 52.3 108.35 52.65 109.2 Q53.2 111.1 52.95 112.55 L52.75 112.65 50.55 112.85 Q50.5 111.45 50.05 110.25 L49.6 109.4 48.2 107.5 45.8 108.85 45.05 107.55 45.25 107.45 Q46.95 106.45 47.5 106.2 49.85 104.95 52.15 103.9 L52.5 103.75 54.3 102.95 58.05 101.55 58.35 101.4 62.1 100.3 63.95 99.85 64.0 99.8 64.15 99.8 64.4 101.2 64.15 99.8 64.15 99.75 65.6 99.15 67.15 98.65 68.1 98.55 M52.15 103.9 L52.7 105.25 52.15 103.9" fill="#836841" fill-rule="evenodd" stroke="none"/>
    <path d="M68.4 99.65 L68.55 100.3 68.75 101.95 68.75 102.05 68.7 102.6 68.7 102.95 68.7 103.45 68.4 105.5 Q68.15 106.25 67.6 106.35 68.2 104.8 68.05 102.95 L68.05 102.9 68.0 102.3 67.6 100.6 68.4 99.65 M63.2 109.2 Q64.65 107.2 63.95 104.55 L63.8 103.95 63.4 102.95 63.2 102.55 64.65 102.55 65.2 105.35 65.15 105.65 64.7 107.75 Q64.05 108.8 63.2 109.2 M64.15 99.8 L64.0 99.8 64.15 99.75 64.15 99.8 M58.2 110.6 Q59.35 108.8 58.45 106.85 L58.05 106.15 57.3 105.15 59.0 105.15 60.0 108.8 Q59.25 110.2 58.2 110.6 M52.95 112.55 Q53.2 111.1 52.65 109.2 L52.3 108.35 51.55 106.6 53.25 106.6 54.4 109.3 54.45 109.5 54.45 109.95 54.4 110.7 Q54.15 112.05 52.95 112.55" fill="#ffffff" fill-rule="evenodd" stroke="none"/>
    <path d="M58.5 103.35 L61.75 103.35 61.9 104.65 61.9 105.4 61.55 109.35 60.4 109.0 60.0 108.8 59.0 105.15 58.5 103.35 M64.65 102.55 L64.4 101.2 66.45 101.2 66.95 102.7 67.0 102.95 67.05 103.3 Q67.25 104.8 66.7 106.2 L65.5 105.6 65.2 105.35 64.65 102.55 M52.7 105.25 L55.25 105.25 56.15 106.85 56.5 107.65 Q57.0 109.1 56.95 110.7 55.9 110.5 54.65 109.5 L54.4 109.3 53.25 106.6 52.7 105.25 M45.8 108.85 L48.2 107.5 49.6 109.4 50.05 110.25 Q50.5 111.45 50.55 112.85 49.05 112.6 47.65 111.25 L47.15 110.7 47.1 110.6 46.9 110.4 45.8 108.85" fill="url(#gradient2)" fill-rule="evenodd" stroke="none"/>
    <path d="M68.75 101.95 L68.85 102.0 69.3 102.35 70.1 102.95 Q72.4 108.5 68.95 114.1 L77.55 113.85 Q77.45 114.9 76.55 116.3 L77.75 117.85 73.25 116.65 Q66.95 115.45 59.45 117.15 L64.1 115.55 Q66.05 115.15 67.6 106.4 L67.6 106.35 Q68.15 106.25 68.4 105.5 L68.7 103.45 68.7 102.95 68.7 102.6 68.75 102.05 68.75 101.95 M79.6 129.2 L78.75 130.6 79.9 134.15 Q79.25 131.55 76.15 130.45 L71.4 130.15 Q64.85 130.15 57.65 132.15 L54.9 131.1 Q53.45 130.25 52.7 129.15 53.15 127.15 58.15 124.7 59.2 124.95 61.4 124.7 69.65 123.55 74.3 124.9 78.95 126.25 79.6 129.2 M76.15 143.65 L72.9 147.45 Q46.9 144.3 58.8 134.4 L62.2 133.4 62.25 133.35 62.25 133.4 Q55.15 139.35 62.25 140.55 70.8 138.4 74.05 139.3 77.25 140.2 76.15 143.65" fill="#f5931b" fill-rule="evenodd" stroke="none"/>
    <path d="M41.2 95.3 L41.15 95.4 41.2 95.3" fill="#3e4867" fill-rule="evenodd" stroke="none"/>
    <path d="M61.55 109.35 L63.2 109.2 Q64.05 108.8 64.7 107.75 L65.15 105.65 65.5 105.6 66.7 106.2 67.6 106.35 67.6 106.4 Q66.05 115.15 64.1 115.55 L59.45 117.15 Q66.95 115.45 73.25 116.65 L61.05 118.75 57.85 119.5 61.05 118.75 Q61.05 121.7 58.15 124.7 53.15 127.15 52.7 129.15 50.55 126.05 54.05 120.45 L54.9 120.25 57.85 119.5 47.1 120.2 Q39.4 117.25 45.8 108.85 46.6 111.0 47.1 110.6 L47.15 110.7 47.65 111.25 Q49.05 112.6 50.55 112.85 L52.75 112.65 52.95 112.55 Q54.15 112.05 54.4 110.7 L54.45 109.95 54.65 109.5 Q55.9 110.5 56.95 110.7 L58.2 110.6 Q59.25 110.2 60.0 108.8 L60.4 109.0 61.55 109.35" fill="url(#gradient3)" fill-rule="evenodd" stroke="none"/>
    <path d="M43.95 125.0 Q40.95 121.7 43.1 113.1 L43.5 111.7 43.75 110.7 44.75 107.8 45.05 107.55 45.8 108.85 46.9 110.4 47.1 110.6 Q46.6 111.0 45.8 108.85 39.4 117.25 47.1 120.2 L57.85 119.5 54.9 120.25 54.05 120.45 49.15 122.05 Q45.85 123.35 43.95 125.0" fill="url(#gradient4)" fill-rule="evenodd" stroke="none"/>
    <path d="M72.9 147.45 Q69.25 151.25 64.5 151.5 57.15 150.85 54.0 147.6 51.2 144.65 51.7 139.7 L48.85 140.7 49.0 139.35 Q49.85 138.2 52.0 137.05 L54.9 135.75 58.8 134.4 Q46.9 144.3 72.9 147.45 M43.8 126.05 L43.95 125.0 Q45.85 123.35 49.15 122.05 L54.05 120.45 Q50.55 126.05 52.7 129.15 53.45 130.25 54.9 131.1 L57.65 132.15 Q64.85 130.15 71.4 130.15 L76.15 130.45 71.25 131.2 Q67.0 131.95 62.25 133.35 L62.2 133.4 51.05 134.6 Q43.7 129.7 45.85 124.3 L43.8 126.05" fill="url(#gradient5)" fill-rule="evenodd" stroke="none"/>
    <path d="M64.5 151.5 L60.45 151.05 54.4 149.5 Q52.5 148.95 52.0 148.6 L49.65 146.15 Q48.5 144.7 48.85 140.7 L51.7 139.7 Q51.2 144.65 54.0 147.6 57.15 150.85 64.5 151.5 M49.0 139.35 Q42.5 136.45 43.8 126.05 L45.85 124.3 Q43.7 129.7 51.05 134.6 L62.2 133.4 58.8 134.4 54.9 135.75 52.0 137.05 Q49.85 138.2 49.0 139.35" fill="url(#gradient6)" fill-rule="evenodd" stroke="none"/>
    <path d="M70.1 102.95 L72.95 105.7 73.85 106.75 74.95 108.25 76.2 110.1 77.45 112.8 77.55 113.85 68.95 114.1 Q72.4 108.5 70.1 102.95 M77.75 117.85 Q79.3 120.15 79.75 122.15 L79.85 122.6 Q80.65 126.65 79.6 129.2 78.95 126.25 74.3 124.9 69.65 123.55 61.4 124.7 59.2 124.95 58.15 124.7 61.05 121.7 61.05 118.75 L73.25 116.65 77.75 117.85 M79.9 134.15 L79.95 134.4 Q80.4 136.8 79.8 138.45 78.95 140.65 77.45 142.2 L76.15 143.65 Q77.25 140.2 74.05 139.3 70.8 138.4 62.25 140.55 55.15 139.35 62.25 133.4 L62.25 133.35 Q67.0 131.95 71.25 131.2 L76.15 130.45 Q79.25 131.55 79.9 134.15" fill="#ffaf2b" fill-rule="evenodd" stroke="none"/>
    <path d="M30.9 92.05 L30.0 90.25 Q26.5 83.15 33.75 76.55 36.85 73.7 40.5 72.1 L41.85 71.55 Q46.15 69.9 51.25 69.9 56.35 69.9 60.2 71.55 63.55 72.95 65.95 75.55 68.35 77.0 69.9 78.55 L71.45 80.45 72.05 81.45 Q73.55 84.6 72.95 86.3 L73.7 87.25 Q74.05 87.9 73.9 88.2 L73.2 88.75 Q73.75 89.7 72.7 90.05 72.4 91.25 71.45 92.3 L70.25 93.35 69.9 93.6 69.2 94.8 Q70.2 94.7 71.45 95.3 L71.6 95.35 Q72.1 96.55 71.55 97.35 L71.45 97.45 Q70.65 98.4 68.1 98.55 L68.4 99.6 M68.4 99.65 L68.55 100.3 68.75 101.95 68.75 102.05 68.7 102.6 68.7 102.95 68.7 103.45 68.4 105.5 Q68.15 106.25 67.6 106.35 L66.7 106.2 65.5 105.6 65.2 105.35 65.15 105.65 64.7 107.75 Q64.05 108.8 63.2 109.2 L61.55 109.35 60.4 109.0 60.0 108.8 59.0 105.15 58.5 103.35 58.05 101.55 58.35 101.4 62.1 100.3 63.95 99.85 64.0 99.8 64.15 99.75 65.6 99.15 67.15 98.65 68.1 98.55 M44.75 107.8 Q43.15 108.95 42.0 108.45 41.15 108.1 41.05 107.15 41.05 106.0 42.55 104.9 L40.95 104.95 Q38.65 104.75 37.05 102.95 36.4 102.3 35.9 101.45 L35.25 100.3 31.7 93.65 30.9 92.05 M37.35 82.55 Q37.85 80.35 39.25 78.3 40.95 75.75 44.65 76.05 L46.45 76.35 Q48.65 76.9 50.2 77.75 L53.15 81.65 54.2 83.15 55.75 85.5 Q56.3 85.4 56.65 85.8 L56.75 85.95 56.8 86.05 Q57.0 86.25 56.7 86.5 L56.4 86.55 57.1 87.05 56.9 87.8 57.1 88.9 Q57.35 90.6 56.95 92.55 56.4 95.15 53.4 97.25 50.45 99.3 47.2 99.1 44.05 98.85 42.45 96.65 41.4 97.15 41.05 96.0 L41.15 95.4 40.75 95.25 40.55 94.75 Q40.45 94.2 40.95 93.45 L38.9 89.35 38.15 87.8 37.5 86.4 Q37.0 85.3 37.05 84.95 37.05 83.7 37.35 82.55 M57.3 75.35 Q57.8 74.0 59.25 73.8 L61.15 73.95 61.2 74.0 64.0 74.75 Q65.45 75.2 65.95 75.55 M57.3 75.35 Q57.1 75.8 57.05 76.5 56.75 79.9 56.9 80.65 L57.0 81.7 57.0 81.95 57.05 82.3 57.6 85.15 Q56.8 86.1 57.75 86.5 L58.25 86.4 58.85 86.3 62.05 85.95 63.65 85.9 68.25 86.45 Q69.95 86.9 71.4 87.65 L71.45 87.7 Q72.35 88.15 73.2 88.75 M67.9 87.9 L64.5 87.35 Q62.15 87.15 59.45 87.45 L58.8 87.55 M67.9 87.9 Q69.8 88.4 71.45 89.35 L71.7 89.45 72.7 90.05 M44.95 91.5 L45.8 90.9 Q50.15 87.75 56.4 86.55 M57.75 86.5 Q57.15 87.25 58.0 87.85 L58.15 88.25 Q58.55 89.45 59.4 90.75 61.3 93.6 64.5 94.35 67.45 95.05 69.9 93.6 M64.65 102.55 L64.4 101.2 64.15 99.8 64.15 99.75 M48.9 100.25 L50.2 99.55 50.25 99.5 Q57.3 96.05 67.6 94.95 L69.2 94.8 M48.9 100.25 L48.8 100.3 45.4 102.45 44.75 102.95 42.55 104.9 M52.15 103.9 L52.5 103.75 54.3 102.95 58.05 101.55 M51.7 89.5 L52.15 89.35 55.3 88.35 M42.8 96.15 L42.45 96.65 M44.95 91.5 L44.15 92.2 41.5 94.95 41.45 94.95 41.2 95.3 41.15 95.4 41.2 95.3 M51.7 89.5 Q48.85 90.6 46.7 92.25 45.65 93.0 44.8 93.85 L42.8 96.15 M56.95 110.7 L58.2 110.6 Q59.25 110.2 60.0 108.8 M53.25 106.6 L52.7 105.25 52.15 103.9 Q49.85 104.95 47.5 106.2 46.95 106.45 45.25 107.45 L45.05 107.55 45.8 108.85 46.9 110.4 47.1 110.6 47.15 110.7 47.65 111.25 Q49.05 112.6 50.55 112.85 L52.75 112.65 52.95 112.55 Q54.15 112.05 54.4 110.7 L54.45 109.95 54.45 109.5 54.4 109.3 54.65 109.5 Q55.9 110.5 56.95 110.7 M53.25 106.6 L54.4 109.3 M44.75 107.8 L45.05 107.55 M65.2 105.35 L64.65 102.55" ffdec:has-small-stroke="true" ffdec:original-stroke-width="0.05" fill="none" stroke="#000000" stroke-linecap="round" stroke-linejoin="round" stroke-opacity="0.42352942" stroke-width="1.0"/>
    <path d="M64.0 74.75 Q61.45 72.6 58.2 71.55 52.15 69.55 43.75 71.2 M50.2 99.55 Q59.35 95.95 67.6 95.1" ffdec:has-small-stroke="true" ffdec:original-stroke-width="0.05" fill="none" stroke="#aebfd2" stroke-linecap="round" stroke-linejoin="round" stroke-width="1.0"/>
    <path d="M67.6 95.1 L71.45 95.3" ffdec:has-small-stroke="true" ffdec:original-stroke-width="0.05" fill="none" stroke="#aebfd2" stroke-linecap="round" stroke-linejoin="round" stroke-width="1.0"/>
    <path d="M68.75 101.95 L68.85 102.0 69.3 102.35 70.1 102.95 72.95 105.7 73.85 106.75 74.95 108.25 76.2 110.1 77.45 112.8 77.55 113.85 Q77.45 114.9 76.55 116.3 L77.75 117.85 Q79.3 120.15 79.75 122.15 L79.85 122.6 Q80.65 126.65 79.6 129.2 L78.75 130.6 79.9 134.15 79.95 134.4 Q80.4 136.8 79.8 138.45 78.95 140.65 77.45 142.2 L76.15 143.65 72.9 147.45 Q69.25 151.25 64.5 151.5 L60.45 151.05 54.4 149.5 Q52.5 148.95 52.0 148.6 L49.65 146.15 Q48.5 144.7 48.85 140.7 L49.0 139.35 Q42.5 136.45 43.8 126.05 L43.95 125.0 Q40.95 121.7 43.1 113.1 L43.5 111.7 43.75 110.7 44.75 107.8 M57.85 119.5 L61.05 118.75 73.25 116.65 M62.2 133.4 L62.25 133.35 Q67.0 131.95 71.25 131.2 L76.15 130.45 M54.05 120.45 L49.15 122.05 Q45.85 123.35 43.95 125.0 M54.05 120.45 L54.9 120.25 57.85 119.5 M58.8 134.4 L62.2 133.4 M49.0 139.35 Q49.85 138.2 52.0 137.05 L54.9 135.75 58.8 134.4" ffdec:has-small-stroke="true" ffdec:original-stroke-width="0.05" fill="none" stroke="#000000" stroke-linecap="round" stroke-linejoin="round" stroke-opacity="0.42352942" stroke-width="1.0"/>
    <path d="M75.6 111.4 Q75.65 112.3 75.15 112.6 L73.75 112.45 Q73.0 111.95 72.45 110.95 71.9 109.95 71.8 109.05 71.8 108.1 72.35 107.8 L73.65 108.0 Q74.45 108.45 75.0 109.45 75.55 110.45 75.6 111.4" fill="#ffd779" fill-rule="evenodd" stroke="none"/>
    <path d="M78.2 122.45 Q78.3 123.6 77.6 124.0 76.95 124.35 75.95 123.75 75.05 123.15 74.3 121.95 73.6 120.7 73.55 119.6 73.5 118.4 74.15 118.05 74.85 117.65 75.8 118.3 76.75 118.85 77.45 120.1 78.2 121.3 78.2 122.45" fill="#ffd779" fill-rule="evenodd" stroke="none"/>
    <path d="M76.7 136.35 Q76.8 137.5 76.1 137.9 75.45 138.25 74.45 137.65 73.55 137.05 72.8 135.85 72.1 134.6 72.05 133.5 72.0 132.3 72.65 131.95 73.35 131.55 74.3 132.2 75.25 132.75 75.95 134.0 76.7 135.2 76.7 136.35" fill="#ffd779" fill-rule="evenodd" stroke="none"/>
    <path d="M31.85 108.6 L13.25 101.25 11.85 101.25 11.1 98.0 36.75 106.45 Q35.8 107.55 36.45 110.15 L38.2 110.4 38.95 110.55 40.65 112.1 31.85 108.6 M43.6 108.7 L46.9 109.75 47.05 110.3 Q45.35 109.75 43.6 108.7 M35.55 122.1 L35.35 123.25 Q35.25 124.4 35.6 125.75 L35.95 126.2 18.5 130.6 16.0 131.75 16.0 126.75 35.55 122.1 M56.05 112.75 L55.6 113.05 56.4 112.85 57.1 112.05 60.0 108.8 61.55 109.35 Q63.85 109.15 64.7 107.75 L66.95 109.6 64.9 111.55 59.25 116.95 57.45 118.7 54.8 121.2 57.45 118.7 59.25 116.95 64.9 111.55 67.35 111.2 Q66.25 114.1 61.85 116.7 L59.25 116.95 61.85 116.7 58.8 119.35 57.45 118.7 58.5 119.7 56.95 121.35 59.9 124.1 58.2 124.75 59.9 124.1 62.15 123.3 64.8 127.9 66.1 127.65 66.75 128.65 65.0 130.6 72.4 143.8 Q72.5 146.3 71.95 148.4 L70.3 149.55 Q71.2 138.9 61.25 128.7 L56.1 129.9 56.75 127.65 55.2 125.95 58.2 124.75 54.8 121.2 54.05 120.45 53.35 120.7 52.85 120.1 53.35 120.7 52.5 121.0 52.85 120.1 52.95 119.8 52.15 118.7 54.15 117.4 54.15 115.35 56.4 112.85 58.75 112.25 56.4 112.85 54.15 115.35 54.15 117.4 52.15 118.7 50.35 116.4 50.8 116.1 50.4 115.95 51.25 115.4 52.35 114.65 52.35 112.5 54.2 112.15 56.05 112.75 M55.6 113.05 L50.8 116.1 55.6 113.05 M44.3 113.55 L44.3 113.5 Q42.55 112.8 40.75 110.95 45.35 112.2 48.1 115.05 L44.3 113.55 M39.9 125.15 L41.3 124.45 42.25 124.55 41.9 124.65 39.9 125.15 M45.85 123.3 L44.9 123.6 44.9 123.4 45.85 123.3 M20.95 148.6 L37.1 135.05 19.35 139.35 17.0 139.35 17.0 136.6 19.1 136.6 42.45 130.5 47.8 126.0 50.3 126.3 46.6 129.9 51.65 127.5 Q49.3 129.5 46.2 130.85 L45.15 131.3 45.05 131.3 42.9 132.05 39.75 132.8 38.55 133.0 38.05 133.95 37.85 134.4 37.65 134.9 37.3 136.1 Q37.1 137.5 38.1 138.05 L21.6 153.85 20.95 148.6 M52.3 116.7 L50.8 116.1 52.3 116.7 M61.25 128.7 L64.8 127.9 61.25 128.7 M39.75 132.8 L42.45 130.5 39.75 132.8 M37.65 134.9 L37.1 135.05 37.85 134.4 37.1 135.05 37.65 134.9 M45.15 131.3 L46.6 129.9 45.15 131.3" fill="#899c74" fill-rule="evenodd" stroke="none"/>
    <path d="M30.7 108.35 L31.45 111.0 23.85 108.1 25.45 107.25 30.7 108.35 M56.05 112.75 L56.4 112.85 56.05 112.75 57.1 112.05 56.4 112.85 55.6 113.05 56.05 112.75 M53.35 120.7 L54.05 120.45 54.8 121.2 54.15 121.8 53.35 120.7 M21.6 153.85 L19.45 153.85 19.45 148.95 20.95 148.6 21.6 153.85" fill="#7e4001" fill-rule="evenodd" stroke="none"/>
    <path d="M36.75 106.45 Q37.1 106.0 37.75 105.75 37.45 106.2 37.3 106.6 36.1 109.05 38.2 110.4 L36.45 110.15 Q35.8 107.55 36.75 106.45 M35.95 126.2 L35.6 125.75 Q35.25 124.4 35.35 123.25 L35.55 122.1 Q35.8 121.2 36.35 120.4 L36.15 121.95 36.35 123.15 36.4 123.25 Q36.9 124.6 38.55 125.5 L38.9 125.7 36.75 127.15 35.95 126.2 M51.25 115.4 L50.4 115.95 50.1 116.1 50.05 115.5 50.05 115.45 49.85 115.7 49.3 116.45 48.1 115.05 Q45.35 112.2 40.75 110.95 L42.2 109.8 49.7 112.55 51.25 115.4 M42.95 123.85 L42.15 122.25 49.85 119.4 51.1 124.6 Q49.25 123.45 47.2 123.3 L45.85 123.3 44.9 123.4 42.95 123.85 M55.65 131.65 Q52.25 130.9 47.65 133.2 L45.9 134.15 45.75 134.2 45.1 132.65 47.5 132.0 53.55 128.6 54.85 131.25 55.65 131.65 M40.65 137.8 L39.7 138.4 38.9 138.35 38.1 138.05 Q37.1 137.5 37.3 136.1 L37.65 134.9 37.85 134.4 38.05 133.95 37.9 134.35 37.75 134.9 37.8 135.95 Q38.05 136.7 38.95 137.2 L40.65 137.8 M62.55 140.45 Q59.7 140.7 57.3 141.9 L55.3 143.05 54.15 143.9 53.8 143.5 52.95 142.3 57.95 139.1 62.55 140.45 M48.6 148.9 Q46.1 148.65 45.05 147.75 43.65 146.55 44.7 144.25 L45.5 144.25 Q44.8 146.15 45.75 147.35 46.55 148.4 48.6 148.9" fill="#636869" fill-rule="evenodd" stroke="none"/>
    <path d="M73.25 97.55 L74.05 96.3 74.6 96.25 Q76.1 96.15 76.85 97.55 L77.05 98.0 77.2 98.55 77.25 99.7 74.45 96.85 74.95 98.65 67.85 105.4 65.05 103.55 Q67.0 103.25 68.8 102.1 L70.95 100.35 73.25 97.55 M84.95 113.3 L83.0 110.8 83.0 112.35 72.3 114.15 70.2 112.3 73.6 112.65 Q77.7 112.55 82.75 110.1 L83.5 109.3 84.25 109.95 Q85.2 111.05 84.95 113.3 M77.45 131.9 L77.8 132.0 83.15 133.05 83.55 133.05 84.1 133.1 84.35 133.45 Q85.3 135.0 84.85 136.05 L84.2 136.85 84.1 133.1 82.8 135.05 70.35 130.95 70.65 129.4 68.65 129.8 70.1 127.5 Q72.5 130.4 77.45 131.9 M87.3 122.7 L86.35 123.85 74.35 121.2 72.7 118.0 75.15 119.7 Q79.8 122.4 86.35 122.7 L87.3 122.7 Q90.35 127.0 88.4 127.3 L87.3 122.7" fill="#46868e" fill-rule="evenodd" stroke="none"/>
    <path d="M73.25 97.55 L70.95 100.35 68.8 102.1 68.75 101.9 73.25 97.55 M77.2 98.55 L77.05 98.0 76.85 97.55 Q76.1 96.15 74.6 96.25 L81.1 89.9 81.95 93.55 77.2 98.55 M59.9 124.1 L56.95 121.35 58.5 119.7 62.15 123.3 59.9 124.1 M70.05 105.1 L71.6 103.25 74.5 101.05 70.05 105.1 M70.2 112.3 L69.2 111.95 69.2 114.85 69.45 115.2 64.4 116.4 61.85 116.7 64.4 116.4 Q68.0 118.65 70.9 121.2 71.75 121.9 74.05 126.2 71.75 121.9 70.9 121.2 L72.25 121.35 74.2 123.6 75.9 123.3 Q79.3 123.1 84.6 125.45 L74.05 126.2 75.75 127.2 77.15 128.4 77.75 130.45 78.3 129.9 78.75 130.6 83.55 133.05 83.15 133.05 77.8 132.0 77.45 131.9 76.0 130.65 70.95 126.75 64.5 122.5 70.95 126.75 66.1 127.65 64.8 127.9 62.15 123.3 64.5 122.5 Q61.75 120.85 58.8 119.35 L61.85 116.7 Q66.25 114.1 67.35 111.2 L84.25 108.75 84.25 109.95 83.5 109.3 82.75 110.1 Q77.7 112.55 73.6 112.65 L70.2 112.3 M84.35 133.45 L88.5 135.6 88.35 137.35 84.85 136.05 Q85.3 135.0 84.35 133.45 M68.95 132.7 Q72.05 138.95 72.4 143.8 L65.0 130.6 66.75 128.65 68.65 132.1 68.65 132.75 68.95 132.7" fill="#e6dec4" fill-rule="evenodd" stroke="none"/>
    <path d="M37.75 105.75 L39.35 105.5 Q41.55 107.4 43.6 108.7 45.35 109.75 47.05 110.3 L52.35 110.6 52.35 112.5 52.35 114.65 51.25 115.4 49.7 112.55 42.2 109.8 40.75 110.95 Q42.55 112.8 44.3 113.5 L44.3 113.55 43.35 117.0 Q43.05 116.3 43.0 114.8 L40.65 112.1 38.95 110.55 38.2 110.4 Q36.1 109.05 37.3 106.6 37.45 106.2 37.75 105.75 M38.9 125.7 L38.55 125.5 Q36.9 124.6 36.4 123.25 L36.35 123.15 36.15 121.95 36.35 120.4 36.75 119.9 36.75 119.85 37.4 119.95 39.65 120.15 41.95 120.1 Q46.6 119.65 49.3 116.45 L49.85 115.7 50.05 115.45 50.05 115.5 50.1 116.1 50.35 116.4 52.15 118.7 52.95 119.8 52.85 120.1 52.5 121.0 51.1 124.6 49.85 119.4 42.15 122.25 42.95 123.85 42.1 124.15 41.3 124.45 42.1 124.15 42.95 123.85 44.9 123.4 44.9 123.6 44.9 123.9 44.9 127.2 43.85 125.0 Q43.1 124.65 42.35 124.55 L42.3 124.55 42.25 124.55 41.3 124.45 39.9 125.15 38.9 125.7 M65.05 103.55 L67.85 105.4 74.95 98.65 74.45 96.85 77.25 99.7 75.2 100.65 77.25 99.7 Q74.8 102.9 73.25 105.65 73.95 106.0 73.9 106.55 L72.3 106.55 71.55 105.95 72.05 105.5 Q73.8 103.75 75.2 100.65 L74.5 101.05 71.6 103.25 70.05 105.1 Q69.1 106.5 68.75 108.15 L66.3 107.25 65.2 106.85 65.1 106.55 64.25 103.6 64.9 103.55 65.05 103.55 M40.75 110.95 L38.95 110.55 40.75 110.95 M51.65 127.5 L53.2 126.05 54.2 124.85 55.2 125.95 56.75 127.65 56.1 129.9 55.65 131.65 54.85 131.25 53.55 128.6 47.5 132.0 45.1 132.65 45.75 134.2 Q44.25 135.05 42.7 136.25 L47.6 136.15 46.95 139.35 Q46.55 138.9 46.3 137.9 44.1 136.95 41.25 137.35 L40.65 137.8 38.95 137.2 Q38.05 136.7 37.8 135.95 L37.75 134.9 37.9 134.35 38.05 133.95 38.55 133.0 39.75 132.8 42.9 132.05 45.05 131.3 45.15 131.3 46.2 130.85 Q49.3 129.5 51.65 127.5 M69.45 115.2 L69.2 114.85 69.2 111.95 70.2 112.3 72.3 114.15 83.0 112.35 83.0 110.8 84.95 113.3 85.3 114.15 81.3 114.05 85.3 114.15 84.95 113.3 85.6 114.35 Q80.55 114.9 77.45 116.25 77.85 117.45 77.55 118.0 L75.55 114.95 Q78.0 115.2 81.3 114.05 78.0 114.15 75.55 114.95 L74.25 115.45 Q72.5 116.2 71.3 117.35 L69.45 115.2 M78.3 129.9 L77.75 130.45 77.15 128.4 76.95 127.85 Q81.25 128.0 85.8 126.0 L84.6 125.45 Q79.3 123.1 75.9 123.3 L74.2 123.6 72.25 121.35 71.65 120.7 72.7 118.0 74.35 121.2 86.35 123.85 87.3 122.7 88.4 127.3 88.05 127.15 Q86.9 126.5 85.8 126.0 86.9 126.5 88.05 127.15 83.0 127.65 78.5 129.3 L78.3 129.9 M84.2 136.85 L82.95 137.5 79.9 135.6 78.6 135.7 76.7 136.05 75.25 137.5 75.85 134.3 78.35 134.8 Q73.15 132.2 68.95 132.7 L68.65 132.75 68.65 132.1 68.65 129.8 70.65 129.4 70.35 130.95 82.8 135.05 84.1 133.1 84.2 136.85 M78.35 134.8 L78.4 134.8 Q79.15 135.15 79.9 135.6 79.15 135.15 78.4 134.8 L78.35 134.8 M45.5 144.25 Q49.35 142.95 51.9 141.35 L54.1 139.7 Q56.4 137.55 56.7 134.95 L61.15 134.95 63.15 140.4 62.55 140.45 57.95 139.1 52.95 142.3 53.8 143.5 54.15 143.9 55.3 143.1 57.15 145.0 55.5 144.65 52.5 145.45 Q51.0 146.95 49.7 149.0 L48.6 148.9 Q46.55 148.4 45.75 147.35 44.8 146.15 45.5 144.25 M52.5 145.45 L54.15 143.9 52.5 145.45 M42.7 136.25 L41.25 137.35 42.7 136.25" fill="#274d50" fill-rule="evenodd" stroke="none"/>
    <path d="M66.95 109.6 L64.7 107.75 65.1 106.55 65.2 106.85 66.3 107.25 66.95 109.6" fill="#ccbe88" fill-rule="evenodd" stroke="none"/>
    <path d="M31.85 108.6 L13.25 101.25 11.85 101.25 11.1 98.0 36.75 106.45 M43.6 108.7 L46.9 109.75 45.8 108.8 M30.7 108.35 L31.45 111.0 23.85 108.1 25.45 107.25 30.7 108.35 31.85 108.6 40.65 112.1 M35.55 122.1 L16.0 126.75 16.0 131.75 18.5 130.6 35.95 126.2 M74.6 96.25 L81.1 89.9 81.95 93.55 77.2 98.55 M68.8 102.1 L68.75 101.9 73.25 97.55 M47.05 110.3 L46.9 109.75 M56.4 112.85 L56.05 112.75 55.6 113.05 56.4 112.85 57.1 112.05 56.05 112.75 54.2 112.15 52.35 112.5 M50.4 115.95 L50.8 116.1 55.6 113.05 M58.75 112.25 L56.4 112.85 54.15 115.35 54.15 117.4 52.15 118.7 M52.85 120.1 L53.35 120.7 54.05 120.45 54.8 121.2 57.45 118.7 59.25 116.95 64.9 111.55 66.95 109.6 66.3 107.25 M64.7 107.75 Q63.85 109.15 61.55 109.35 L60.0 108.8 57.1 112.05 M44.3 113.55 L48.1 115.05 M39.9 125.15 L41.9 124.65 42.25 124.55 M44.9 123.9 L47.2 123.3 M45.85 123.3 L44.9 123.6 M42.3 124.55 L41.9 124.65 M52.5 121.0 L53.35 120.7 54.15 121.8 54.8 121.2 58.2 124.75 59.9 124.1 62.15 123.3 64.5 122.5 70.95 126.75 76.0 130.65 77.45 131.9 M58.5 119.7 L57.45 118.7 58.8 119.35 Q61.75 120.85 64.5 122.5 M50.8 116.1 L50.35 116.4 M20.95 148.6 L37.1 135.05 19.35 139.35 17.0 139.35 17.0 136.6 19.1 136.6 42.45 130.5 47.8 126.0 50.3 126.3 46.6 129.9 51.65 127.5 M55.2 125.95 L58.2 124.75 M50.8 116.1 L52.3 116.7 M74.5 101.05 L70.05 105.1 M84.25 109.95 L84.25 108.75 67.35 111.2 64.9 111.55 M61.85 116.7 L64.4 116.4 69.45 115.2 M64.7 107.75 L65.1 106.55 M83.55 133.05 L78.75 130.6 78.3 129.9 M77.15 128.4 L75.75 127.2 74.05 126.2 Q71.75 121.9 70.9 121.2 68.0 118.65 64.4 116.4 M64.8 127.9 L66.1 127.65 70.95 126.75 M61.85 116.7 L59.25 116.95 M62.15 123.3 L58.5 119.7 M72.25 121.35 L70.9 121.2 M84.6 125.45 L74.05 126.2 M84.85 136.05 L88.35 137.35 88.5 135.6 84.35 133.45 M68.95 132.7 Q72.05 138.95 72.4 143.8 72.5 146.3 71.95 148.4 L70.3 149.55 Q71.2 138.9 61.25 128.7 L56.1 129.9 M38.1 138.05 L21.6 153.85 19.45 153.85 19.45 148.95 20.95 148.6 21.6 153.85 M66.75 128.65 L68.65 132.1 M64.8 127.9 L61.25 128.7 M66.75 128.65 L66.1 127.65 M37.85 134.4 L37.1 135.05 37.65 134.9 M42.45 130.5 L39.75 132.8 M46.6 129.9 L45.15 131.3" ffdec:has-small-stroke="true" ffdec:original-stroke-width="0.05" fill="none" stroke="#000000" stroke-linecap="round" stroke-linejoin="round" stroke-opacity="0.3529412" stroke-width="1.0"/>
    <path d="M36.75 106.45 Q37.1 106.0 37.75 105.75 L39.35 105.5 Q41.55 107.4 43.6 108.7 45.35 109.75 47.05 110.3 L52.35 110.6 52.35 112.5 52.35 114.65 51.25 115.4 50.4 115.95 50.1 116.1 50.35 116.4 52.15 118.7 52.95 119.8 52.85 120.1 52.5 121.0 51.1 124.6 Q49.25 123.45 47.2 123.3 L45.85 123.3 44.9 123.4 42.95 123.85 42.1 124.15 41.3 124.45 39.9 125.15 38.9 125.7 36.75 127.15 35.95 126.2 35.6 125.75 Q35.25 124.4 35.35 123.25 L35.55 122.1 Q35.8 121.2 36.35 120.4 L36.75 119.9 36.75 119.85 37.4 119.95 39.65 120.15 41.95 120.1 Q46.6 119.65 49.3 116.45 L48.1 115.05 Q45.35 112.2 40.75 110.95 42.55 112.8 44.3 113.5 L44.3 113.55 43.35 117.0 Q43.05 116.3 43.0 114.8 L40.65 112.1 38.95 110.55 38.2 110.4 36.45 110.15 Q35.8 107.55 36.75 106.45 M74.6 96.25 L74.05 96.3 73.25 97.55 70.95 100.35 68.8 102.1 Q67.0 103.25 65.05 103.55 M77.25 99.7 L77.2 98.55 77.05 98.0 76.85 97.55 Q76.1 96.15 74.6 96.25 M74.5 101.05 L75.2 100.65 77.25 99.7 Q74.8 102.9 73.25 105.65 73.95 106.0 73.9 106.55 L72.3 106.55 71.55 105.95 72.05 105.5 Q73.8 103.75 75.2 100.65 M38.95 110.55 L40.75 110.95 M42.25 124.55 L41.3 124.45 M44.9 123.6 L44.9 123.9 44.9 127.2 43.85 125.0 Q43.1 124.65 42.35 124.55 L42.3 124.55 42.25 124.55 M44.9 123.6 L44.9 123.4 M49.3 116.45 L49.85 115.7 50.05 115.45 50.05 115.5 50.1 116.1 M51.65 127.5 L53.2 126.05 54.2 124.85 55.2 125.95 56.75 127.65 56.1 129.9 55.65 131.65 Q52.25 130.9 47.65 133.2 L45.9 134.15 45.75 134.2 Q44.25 135.05 42.7 136.25 L47.6 136.15 46.95 139.35 Q46.55 138.9 46.3 137.9 44.1 136.95 41.25 137.35 L40.65 137.8 39.7 138.4 38.9 138.35 38.1 138.05 Q37.1 137.5 37.3 136.1 L37.65 134.9 37.85 134.4 38.05 133.95 M70.05 105.1 L71.6 103.25 74.5 101.05 M70.05 105.1 Q69.1 106.5 68.75 108.15 L66.3 107.25 65.2 106.85 65.1 106.55 64.25 103.6 64.9 103.55 M70.2 112.3 L69.2 111.95 69.2 114.85 69.45 115.2 71.3 117.35 Q72.5 116.2 74.25 115.45 L75.55 114.95 Q78.0 114.15 81.3 114.05 L85.3 114.15 84.95 113.3 85.6 114.35 Q80.55 114.9 77.45 116.25 77.85 117.45 77.55 118.0 L75.55 114.95 Q78.0 115.2 81.3 114.05 M70.2 112.3 L73.6 112.65 Q77.7 112.55 82.75 110.1 L83.5 109.3 84.25 109.95 Q85.2 111.05 84.95 113.3 M77.45 131.9 L77.8 132.0 83.15 133.05 83.55 133.05 84.1 133.1 84.35 133.45 Q85.3 135.0 84.85 136.05 L84.2 136.85 82.95 137.5 79.9 135.6 78.6 135.7 76.7 136.05 75.25 137.5 75.85 134.3 78.35 134.8 Q73.15 132.2 68.95 132.7 L68.65 132.75 68.65 132.1 68.65 129.8 70.1 127.5 Q72.5 130.4 77.45 131.9 M78.3 129.9 L77.75 130.45 77.15 128.4 76.95 127.85 Q81.25 128.0 85.8 126.0 86.9 126.5 88.05 127.15 L88.4 127.3 Q90.35 127.0 87.3 122.7 L86.35 122.7 Q79.8 122.4 75.15 119.7 L72.7 118.0 71.65 120.7 72.25 121.35 74.2 123.6 75.9 123.3 Q79.3 123.1 84.6 125.45 L85.8 126.0 M78.3 129.9 L78.5 129.3 Q83.0 127.65 88.05 127.15 M79.9 135.6 Q79.15 135.15 78.4 134.8 L78.35 134.8 M45.5 144.25 Q49.35 142.95 51.9 141.35 L54.1 139.7 Q56.4 137.55 56.7 134.95 L61.15 134.95 63.15 140.4 62.55 140.45 Q59.7 140.7 57.3 141.9 L55.3 143.05 54.15 143.9 55.3 143.1 57.15 145.0 55.5 144.65 52.5 145.45 Q51.0 146.95 49.7 149.0 L48.6 148.9 Q46.1 148.65 45.05 147.75 43.65 146.55 44.7 144.25 L45.5 144.25 M51.65 127.5 Q49.3 129.5 46.2 130.85 L45.15 131.3 45.05 131.3 42.9 132.05 39.75 132.8 38.55 133.0 M41.25 137.35 L42.7 136.25 M54.15 143.9 L52.5 145.45" ffdec:has-small-stroke="true" ffdec:original-stroke-width="0.05" fill="none" stroke="#000000" stroke-linecap="round" stroke-linejoin="round" stroke-opacity="0.42352942" stroke-width="1.0"/>
    <path d="M58.5 119.7 L58.8 119.35" ffdec:has-small-stroke="true" ffdec:original-stroke-width="0.05" fill="none" stroke="#00ff00" stroke-linecap="round" stroke-linejoin="round" stroke-width="1.0"/>
  </g>
  <defs>
    <linearGradient gradientTransform="matrix(0.0209, -0.0209, 0.0076, 0.0076, -8.95, 24.7)" gradientUnits="userSpaceOnUse" id="gradient0" spreadMethod="pad" x1="-819.2" x2="819.2">
      <stop offset="0.0" stop-color="#56628f"/>
      <stop offset="0.3137254901960784" stop-color="#1d2530"/>
      <stop offset="0.5803921568627451" stop-color="#263c48"/>
      <stop offset="1.0" stop-color="#8085b3"/>
    </linearGradient>
    <linearGradient gradientTransform="matrix(0.0133, -0.0134, 0.2895, 0.2883, -3.95, 27.8)" gradientUnits="userSpaceOnUse" id="gradient1" spreadMethod="pad" x1="-819.2" x2="819.2">
      <stop offset="0.0" stop-color="#aa7322"/>
      <stop offset="1.0" stop-color="#aa7322"/>
    </linearGradient>
    <linearGradient gradientTransform="matrix(0.0137, -0.0079, 0.0019, 0.0033, -5.55, -1.15)" gradientUnits="userSpaceOnUse" id="gradient2" spreadMethod="pad" x1="-819.2" x2="819.2">
      <stop offset="0.0" stop-color="#dfbb97"/>
      <stop offset="1.0" stop-color="#97794f"/>
    </linearGradient>
    <linearGradient gradientTransform="matrix(0.019, 0.0, 0.0, 0.0118, 57.7, 115.25)" gradientUnits="userSpaceOnUse" id="gradient3" spreadMethod="pad" x1="-819.2" x2="819.2">
      <stop offset="0.0" stop-color="#6d270a"/>
      <stop offset="1.0" stop-color="#f48313"/>
    </linearGradient>
    <linearGradient gradientTransform="matrix(0.019, 0.0, 0.0, 0.0118, 57.7, 115.25)" gradientUnits="userSpaceOnUse" id="gradient4" spreadMethod="pad" x1="-819.2" x2="819.2">
      <stop offset="0.0" stop-color="#c48c55"/>
      <stop offset="0.19607843137254902" stop-color="#8d3d0c"/>
    </linearGradient>
    <linearGradient gradientTransform="matrix(0.0199, 0.0, 0.0, 0.0188, 59.85, 135.85)" gradientUnits="userSpaceOnUse" id="gradient5" spreadMethod="pad" x1="-819.2" x2="819.2">
      <stop offset="0.0" stop-color="#6d270a"/>
      <stop offset="1.0" stop-color="#f48313"/>
    </linearGradient>
    <linearGradient gradientTransform="matrix(0.0199, 0.0, 0.0, 0.0188, 59.85, 135.85)" gradientUnits="userSpaceOnUse" id="gradient6" spreadMethod="pad" x1="-819.2" x2="819.2">
      <stop offset="0.0" stop-color="#c48c55"/>
      <stop offset="0.19607843137254902" stop-color="#8d3d0c"/>
    </linearGradient>
  </defs>
</svg>
