<?xml version="1.0" encoding="UTF-8" standalone="no"?>
<svg xmlns:ffdec="https://www.free-decompiler.com/flash" xmlns:xlink="http://www.w3.org/1999/xlink" ffdec:objectType="shape" height="96.75px" width="70.1px" xmlns="http://www.w3.org/2000/svg">
  <g transform="matrix(1.0, 0.0, 0.0, 1.0, -257.05, -178.9)">
    <path d="M308.85 194.6 Q309.95 185.15 286.3 180.65 264.75 177.65 263.1 202.75 265.6 228.95 261.1 242.7 L259.1 245.05 Q263.3 224.15 261.35 201.6 262.5 176.15 286.9 179.25 313.3 183.75 310.8 196.6 L308.85 194.6" fill="url(#gradient0)" fill-rule="evenodd" stroke="none"/>
    <path d="M261.1 242.7 Q273.4 227.4 272.65 206.5 272.55 188.5 292.75 187.55 301.85 187.95 308.85 194.6 L310.8 196.6 Q320.75 206.95 326.15 234.3 330.25 248.85 317.15 268.6 303.4 286.55 289.65 258.7 284.8 242.15 299.4 223.45 309.3 212.65 308.5 197.75 304.65 193.3 300.2 191.0 277.6 184.65 274.95 206.05 276.65 229.0 261.05 246.45 L260.5 246.45 260.5 247.65 258.95 245.9 258.8 245.75 258.6 245.55 259.1 245.05 261.1 242.7 M310.35 200.05 L308.5 197.75 310.35 200.05 Q309.95 216.15 301.95 224.0 286.55 241.8 293.15 260.15 305.6 283.45 315.85 266.5 326.25 249.2 324.0 235.45 319.05 211.75 310.35 200.05" fill="url(#gradient1)" fill-rule="evenodd" stroke="none"/>
    <path d="M258.6 245.55 L258.8 245.75 258.95 245.9 260.5 247.65 260.55 250.55 Q260.2 251.15 259.35 250.35 L257.05 245.25 257.9 245.15 258.6 245.55" fill="url(#gradient2)" fill-rule="evenodd" stroke="none"/>
    <path d="M260.5 247.65 L260.5 246.45 261.05 246.45 Q261.95 246.75 262.5 247.2 263.4 247.85 263.35 248.85 L261.9 251.2 Q261.25 251.6 260.55 250.55 L260.5 247.65" fill="url(#gradient3)" fill-rule="evenodd" stroke="none"/>
    <path d="M261.1 242.7 Q273.4 227.4 272.65 206.5 272.55 188.5 292.75 187.55 301.85 187.95 308.85 194.6 309.95 185.15 286.3 180.65 264.75 177.65 263.1 202.75 265.6 228.95 261.1 242.7 L259.1 245.05 258.6 245.55 258.8 245.75 258.95 245.9 260.5 247.65 260.5 246.45 261.05 246.45 Q276.65 229.0 274.95 206.05 277.6 184.65 300.2 191.0 304.65 193.3 308.5 197.75 L310.35 200.05 Q319.05 211.75 324.0 235.45 326.25 249.2 315.85 266.5 305.6 283.45 293.15 260.15 286.55 241.8 301.95 224.0 309.95 216.15 310.35 200.05 M310.8 196.6 Q313.3 183.75 286.9 179.25 262.5 176.15 261.35 201.6 263.3 224.15 259.1 245.05 M308.85 194.6 L310.8 196.6 Q320.75 206.95 326.15 234.3 330.25 248.85 317.15 268.6 303.4 286.55 289.65 258.7 284.8 242.15 299.4 223.45 309.3 212.65 308.5 197.75 M260.55 250.55 Q261.25 251.6 261.9 251.2 L263.35 248.85 Q263.4 247.85 262.5 247.2 261.95 246.75 261.05 246.45 M258.6 245.55 L257.9 245.15 257.05 245.25 259.35 250.35 Q260.2 251.15 260.55 250.55 L260.5 247.65" ffdec:has-small-stroke="true" ffdec:original-stroke-width="0.05" fill="none" stroke="#000000" stroke-linecap="round" stroke-linejoin="round" stroke-opacity="0.5294118" stroke-width="1.0"/>
  </g>
  <defs>
    <linearGradient gradientTransform="matrix(0.0146, -0.0406, 0.0283, 0.0055, 279.9, 213.5)" gradientUnits="userSpaceOnUse" id="gradient0" spreadMethod="pad" x1="-819.2" x2="819.2">
      <stop offset="0.0" stop-color="#7c3d16"/>
      <stop offset="1.0" stop-color="#b34d22"/>
    </linearGradient>
    <linearGradient gradientTransform="matrix(0.0176, -0.049, 0.0404, 0.0078, 297.55, 231.1)" gradientUnits="userSpaceOnUse" id="gradient1" spreadMethod="pad" x1="-819.2" x2="819.2">
      <stop offset="0.0" stop-color="#7c3d16"/>
      <stop offset="1.0" stop-color="#b34d22"/>
    </linearGradient>
    <linearGradient gradientTransform="matrix(-1.0E-4, -6.0E-4, 0.0021, 9.0E-4, 258.95, 248.35)" gradientUnits="userSpaceOnUse" id="gradient2" spreadMethod="pad" x1="-819.2" x2="819.2">
      <stop offset="0.0" stop-color="#7c3d16"/>
      <stop offset="1.0" stop-color="#b34d22"/>
    </linearGradient>
    <linearGradient gradientTransform="matrix(-2.0E-4, -0.0015, 0.0019, 9.0E-4, 261.8, 248.55)" gradientUnits="userSpaceOnUse" id="gradient3" spreadMethod="pad" x1="-819.2" x2="819.2">
      <stop offset="0.0" stop-color="#7c3d16"/>
      <stop offset="1.0" stop-color="#b34d22"/>
    </linearGradient>
  </defs>
</svg>
