<?xml version="1.0" encoding="UTF-8" standalone="no"?>
<svg xmlns:ffdec="https://www.free-decompiler.com/flash" xmlns:xlink="http://www.w3.org/1999/xlink" ffdec:objectType="shape" height="78.75px" width="72.05px" xmlns="http://www.w3.org/2000/svg">
  <g transform="matrix(1.0, 0.0, 0.0, 1.0, 0.5, 0.5)">
    <path d="M3.55 57.25 Q1.65 53.25 0.75 48.8 L0.2 42.65 Q1.9 43.05 3.35 41.9 5.5 40.3 6.05 37.45 6.65 33.9 4.0 32.3 3.25 31.85 2.6 31.85 1.95 31.85 1.35 32.2 L2.55 28.85 Q3.1 27.15 4.0 25.5 L5.7 22.25 Q6.55 20.4 7.75 18.7 L9.85 15.15 14.15 14.25 19.3 13.2 Q21.95 12.4 24.15 9.95 25.85 8.0 26.35 4.9 L26.55 2.75 30.1 1.65 Q31.55 5.4 33.95 7.9 34.8 9.0 35.95 9.6 37.15 10.35 38.55 10.55 L43.7 10.35 Q43.9 10.2 44.2 10.15 46.75 9.3 48.7 6.95 L51.55 3.15 53.15 4.05 Q52.55 7.55 53.9 9.85 54.7 11.3 55.8 12.3 56.9 13.2 58.3 13.5 59.2 13.7 60.3 13.5 61.55 13.15 62.4 11.65 L65.85 16.5 65.95 16.6 66.05 17.05 66.15 17.2 66.3 17.8 66.3 17.9 66.4 18.05 66.45 18.15 Q68.5 24.4 67.55 31.25 L66.9 33.95 Q68.0 35.1 68.45 37.05 L69.15 40.85 68.75 42.05 Q67.05 42.35 65.8 44.05 64.35 46.0 63.35 48.05 62.1 50.2 61.75 52.4 61.3 54.1 61.3 55.75 L59.4 58.0 Q52.55 65.95 44.3 69.3 L43.95 67.55 Q43.3 65.55 42.1 64.3 42.3 61.55 44.0 58.9 L44.6 57.9 Q46.35 56.65 48.35 56.05 L51.7 54.5 53.3 53.05 54.3 51.4 54.35 51.35 Q57.75 47.1 59.2 42.8 60.45 38.8 60.25 36.5 L58.5 41.1 Q57.3 43.6 55.7 45.65 L53.45 47.95 Q50.1 50.75 46.25 50.85 45.1 50.85 41.25 53.55 L40.2 54.3 43.7 50.75 40.8 50.2 Q41.6 50.05 40.25 50.1 L37.65 49.95 44.9 48.95 Q45.75 48.05 45.85 46.95 45.5 45.1 44.25 44.3 L37.15 37.5 33.35 39.25 Q33.3 39.85 31.95 41.65 30.6 43.2 41.55 42.55 L28.65 45.6 Q24.15 52.6 25.7 58.65 L26.0 59.85 Q26.2 60.45 27.3 60.55 L26.85 62.75 21.65 64.0 Q22.05 65.65 21.35 67.25 L20.85 68.25 Q18.85 66.8 16.6 66.1 L16.4 66.4 18.25 68.6 15.65 67.2 14.9 67.05 Q13.8 66.4 12.85 65.55 5.2 59.65 1.8 50.5 2.35 54.1 3.55 57.25 M65.85 16.5 L66.05 17.05 65.85 16.5 M4.95 28.95 L6.05 28.2 6.95 27.1 6.55 25.2 7.45 22.3 Q5.85 23.25 5.25 25.1 4.65 27.0 4.95 28.95 M26.1 26.2 L26.25 23.9 Q25.7 19.9 24.3 18.5 22.75 17.0 21.15 16.95 20.2 17.0 19.3 17.4 L15.05 19.25 Q12.2 20.3 11.95 24.15 11.55 27.6 11.6 30.95 L12.9 30.85 13.05 31.1 13.1 31.7 13.25 32.5 13.15 33.55 13.7 32.4 Q15.65 31.65 17.4 29.95 18.6 28.75 19.95 27.65 20.35 26.8 21.15 27.05 L21.2 27.3 Q20.0 29.25 18.4 31.1 17.2 32.55 15.75 33.6 L13.15 35.4 13.05 35.45 12.9 35.55 13.05 35.55 17.5 35.15 18.4 35.35 18.75 35.45 19.95 35.6 Q19.65 39.0 17.15 40.15 L14.55 41.65 Q13.95 42.15 13.65 42.7 13.05 43.75 13.45 45.2 13.7 47.45 14.6 49.05 L14.9 49.5 15.15 50.0 Q16.05 51.3 17.45 51.95 L17.6 52.05 17.7 52.05 18.75 52.8 20.45 53.15 Q21.25 53.05 21.85 52.3 L23.05 50.8 Q23.45 50.05 24.15 49.45 L25.2 48.05 26.05 46.45 26.6 44.65 26.65 43.4 26.7 42.5 26.55 41.5 25.85 39.0 25.8 38.85 23.0 36.4 Q28.9 39.0 31.25 37.75 L34.1 34.4 Q32.95 32.2 32.25 29.7 31.75 27.7 30.75 25.9 L29.9 24.4 Q28.5 22.8 27.65 25.5 L26.55 28.15 26.45 28.1 26.1 26.2 M29.0 14.1 L28.85 14.15 29.65 15.7 29.8 16.15 29.9 16.35 30.45 17.4 34.3 25.7 35.0 28.1 Q34.95 27.75 35.05 27.45 35.4 25.85 36.05 24.65 L36.5 23.85 Q38.55 22.25 40.25 19.9 L40.3 19.8 40.25 19.65 41.4 17.05 Q41.85 14.5 40.25 13.5 37.65 12.1 34.95 12.0 32.85 11.9 30.8 12.6 29.7 12.85 28.7 13.5 L29.0 14.1 M40.6 29.5 L41.35 26.9 41.25 26.55 Q38.85 27.65 37.35 30.4 L37.35 30.45 39.15 33.05 39.15 33.6 Q39.3 36.75 41.1 39.1 L41.35 39.55 Q42.95 41.6 44.75 42.7 L46.0 43.45 Q46.15 44.65 47.1 45.1 48.25 45.8 49.6 45.55 L51.0 45.25 52.05 45.05 51.05 45.25 51.9 37.5 52.6 32.2 Q54.4 42.95 54.7 42.3 L55.5 40.15 55.25 41.7 55.75 39.5 55.85 38.6 56.55 36.0 57.3 32.6 58.35 28.35 58.55 27.35 58.7 25.85 Q58.4 24.65 57.75 23.85 L56.95 22.9 Q55.5 21.5 53.85 20.65 51.6 19.45 49.25 21.0 47.25 22.3 45.55 24.05 43.55 25.95 41.9 28.05 L40.75 29.5 40.6 29.5" fill="#98789e" fill-rule="evenodd" stroke="none"/>
    <path d="M53.15 4.05 L55.4 5.4 Q59.25 8.0 62.4 11.65 61.55 13.15 60.3 13.5 59.2 13.7 58.3 13.5 56.9 13.2 55.8 12.3 54.7 11.3 53.9 9.85 52.55 7.55 53.15 4.05 M66.45 18.15 Q68.2 22.25 69.25 26.35 70.5 30.65 70.5 35.35 L69.15 40.85 68.45 37.05 Q68.0 35.1 66.9 33.95 L67.55 31.25 Q68.5 24.4 66.45 18.15 M26.65 43.4 L26.6 44.65 26.05 46.45 25.2 48.05 24.15 49.45 Q23.45 50.05 23.05 50.8 L21.85 52.3 Q21.25 53.05 20.45 53.15 L18.75 52.8 17.7 52.05 19.15 52.5 19.95 52.4 22.0 50.25 23.15 48.8 Q26.05 46.2 26.55 43.4 L26.65 43.4 M40.6 29.5 L40.35 29.9 40.15 30.5 39.25 32.75 39.15 33.05 37.35 30.45 37.35 30.4 Q38.85 27.65 41.25 26.55 L41.35 26.9 40.6 29.5 M41.25 53.55 Q45.1 50.85 46.25 50.85 50.1 50.75 53.45 47.95 L55.7 45.65 Q57.3 43.6 58.5 41.1 L60.25 36.5 Q60.45 38.8 59.2 42.8 57.75 47.1 54.35 51.35 L54.3 51.4 Q52.15 52.15 50.2 53.25 L49.65 53.6 Q47.7 54.65 46.1 56.15 L44.65 56.15 43.95 55.0 45.6 53.45 46.0 52.9 45.35 51.9 Q44.7 51.25 41.25 53.55 M44.6 57.9 L44.0 58.9 Q42.3 61.55 42.1 64.3 43.3 65.55 43.95 67.55 L44.3 69.3 43.55 69.7 43.4 68.8 Q42.8 66.75 41.6 65.25 41.35 63.2 39.85 62.05 38.25 60.85 36.25 61.1 34.3 61.25 32.65 62.6 L29.25 62.55 26.85 62.75 27.3 60.55 29.7 60.7 32.8 60.4 34.15 60.05 Q36.35 59.55 38.6 58.5 39.1 58.2 42.75 57.4 L45.25 56.9 45.35 57.05 45.1 57.25 44.6 57.9" fill="#d8cddc" fill-rule="evenodd" stroke="none"/>
    <path d="M0.2 42.65 L0.3 39.95 Q0.4 36.05 1.35 32.2 1.95 31.85 2.6 31.85 3.25 31.85 4.0 32.3 6.65 33.9 6.05 37.45 5.5 40.3 3.35 41.9 1.9 43.05 0.2 42.65 M9.85 15.15 Q11.85 13.05 14.1 11.25 19.95 6.6 26.55 2.75 L26.35 4.9 Q25.85 8.0 24.15 9.95 21.95 12.4 19.3 13.2 L14.15 14.25 9.85 15.15 M30.1 1.65 Q37.25 -0.45 44.15 1.05 47.8 1.85 51.55 3.15 L48.7 6.95 Q46.75 9.3 44.2 10.15 43.9 10.2 43.7 10.35 L38.55 10.55 Q37.15 10.35 35.95 9.6 34.8 9.0 33.95 7.9 31.55 5.4 30.1 1.65 M26.85 62.75 L29.25 62.55 32.65 62.6 34.6 62.9 34.0 63.4 Q32.15 65.0 30.2 65.15 L29.9 65.65 Q28.8 67.5 28.4 69.55 L28.15 71.15 28.0 71.85 Q24.7 71.55 21.7 70.45 23.2 69.25 24.5 67.5 L25.8 65.45 Q23.4 64.25 21.65 64.0 L26.85 62.75" fill="#6c5375" fill-rule="evenodd" stroke="none"/>
    <path d="M13.7 32.4 L13.15 33.55 13.25 32.5 13.1 31.7 13.05 31.1 12.9 30.85 11.6 30.95 Q11.55 27.6 11.95 24.15 12.2 20.3 15.05 19.25 L19.3 17.4 Q20.2 17.0 21.15 16.95 22.75 17.0 24.3 18.5 25.7 19.9 26.25 23.9 L26.1 26.2 Q25.7 24.75 25.1 23.65 23.7 21.45 21.25 21.2 18.7 23.75 13.7 32.4 M17.45 51.95 Q16.05 51.3 15.15 50.0 L14.9 49.5 14.6 49.05 Q13.7 47.45 13.45 45.2 13.05 43.75 13.65 42.7 13.95 42.15 14.55 41.65 L17.15 40.15 Q19.65 39.0 19.95 35.6 22.35 36.3 21.25 38.25 20.4 39.85 17.3 42.2 16.2 42.95 15.05 43.85 L15.45 45.6 Q17.1 49.7 19.95 52.4 L19.15 52.5 17.7 52.05 17.65 51.95 17.6 51.95 17.45 51.95 M29.2 14.55 L29.0 14.1 28.7 13.5 Q29.7 12.85 30.8 12.6 32.85 11.9 34.95 12.0 37.65 12.1 40.25 13.5 41.85 14.5 41.4 17.05 L40.25 19.65 Q40.35 18.8 38.35 17.75 L33.9 17.6 31.75 17.8 32.0 18.4 Q33.25 20.8 34.65 22.8 L35.5 24.7 34.45 25.65 34.3 25.7 30.45 17.4 30.6 17.3 29.2 14.55 M30.6 17.3 L30.85 17.75 30.75 17.5 30.6 17.3 M41.9 28.05 Q43.55 25.95 45.55 24.05 47.25 22.3 49.25 21.0 51.6 19.45 53.85 20.65 55.5 21.5 56.95 22.9 L57.75 23.85 Q58.4 24.65 58.7 25.85 L58.55 27.35 58.35 28.35 57.3 32.6 56.55 36.0 55.85 38.6 56.2 36.35 56.25 35.7 56.25 35.45 56.4 32.5 Q56.25 27.4 54.55 24.05 53.0 21.15 49.15 22.35 47.95 22.75 45.65 24.75 L42.1 28.15 41.9 28.05 M51.9 37.5 L51.05 45.25 51.0 45.25 49.6 45.55 Q48.25 45.8 47.1 45.1 46.15 44.65 46.0 43.45 L44.75 42.7 Q42.95 41.6 41.35 39.55 43.3 41.6 45.7 42.35 L49.75 43.45 Q50.95 43.75 51.9 37.5 M54.3 51.4 L53.3 53.05 51.7 54.5 48.35 56.05 Q46.35 56.65 44.6 57.9 L45.1 57.25 45.35 57.05 45.45 56.9 45.55 56.8 45.25 56.9 42.75 57.4 Q39.1 58.2 38.6 58.5 36.35 59.55 34.15 60.05 L32.8 60.4 29.7 60.7 27.3 60.55 Q26.2 60.45 26.0 59.85 L25.7 58.65 Q24.15 52.6 28.65 45.6 26.9 50.1 27.45 56.9 L30.1 57.5 34.05 57.75 Q37.85 57.5 41.45 56.05 42.2 55.7 43.0 55.4 42.8 55.6 42.75 55.85 L42.65 56.15 44.65 56.15 46.1 56.15 Q47.7 54.65 49.65 53.6 L50.2 53.25 Q52.15 52.15 54.3 51.4" fill="#523f58" fill-rule="evenodd" stroke="none"/>
    <path d="M13.7 32.4 Q18.7 23.75 21.25 21.2 23.7 21.45 25.1 23.65 L24.45 23.45 Q21.7 22.35 20.4 25.45 19.75 26.95 19.95 27.65 18.6 28.75 17.4 29.95 15.65 31.65 13.7 32.4 M18.75 35.45 L18.4 35.35 17.5 35.15 19.3 31.75 Q18.75 33.5 18.75 35.45 M28.85 14.15 L29.2 14.55 30.6 17.3 30.45 17.4 29.9 16.35 29.65 15.7 28.85 14.15 M51.05 45.25 L52.05 45.05 51.0 45.25 51.05 45.25" fill="url(#gradient0)" fill-rule="evenodd" stroke="none"/>
    <path d="M29.0 14.1 L29.2 14.55 28.85 14.15 29.0 14.1 M30.6 17.3 L30.75 17.5 30.85 17.75 30.6 17.3 M40.35 29.9 L40.6 29.5 40.75 29.5 40.35 29.9" fill="url(#gradient1)" fill-rule="evenodd" stroke="none"/>
    <path d="M26.45 28.1 L26.55 28.15 26.55 28.5 26.45 28.1 M13.05 35.55 L12.9 35.55 13.05 35.45 13.05 35.55 M34.3 25.7 L34.45 25.65 35.5 24.7 36.5 23.85 36.05 24.65 Q35.4 25.85 35.05 27.45 34.95 27.75 35.0 28.1 L34.3 25.7 M29.65 15.7 L29.9 16.35 29.8 16.15 29.65 15.7 M55.75 39.5 L55.25 41.7 55.5 40.15 55.75 39.5 M41.9 28.05 L42.1 28.15 40.75 29.5 41.9 28.05" fill="#6c6c24" fill-rule="evenodd" stroke="none"/>
    <path d="M25.1 23.65 Q25.7 24.75 26.1 26.2 L26.45 28.1 26.55 28.5 26.55 28.15 27.65 25.5 Q28.5 22.8 29.9 24.4 L30.75 25.9 Q31.75 27.7 32.25 29.7 32.95 32.2 34.1 34.4 L31.25 37.75 Q28.9 39.0 23.0 36.4 L25.8 38.85 25.85 39.0 26.55 41.5 26.55 43.4 Q26.05 46.2 23.15 48.8 L21.55 48.55 Q19.1 47.65 17.85 45.05 L17.35 43.55 Q19.65 42.6 21.15 40.1 21.85 38.9 21.25 38.25 22.35 36.3 19.95 35.6 L18.75 35.45 Q18.75 33.5 19.3 31.75 21.1 28.25 21.2 27.3 L21.15 27.05 Q20.35 26.8 19.95 27.65 19.75 26.95 20.4 25.45 21.7 22.35 24.45 23.45 L25.1 23.65 M35.5 24.7 L34.65 22.8 Q33.25 20.8 32.0 18.4 L31.75 17.8 33.9 17.6 38.35 17.75 Q40.35 18.8 40.25 19.65 L40.3 19.8 40.25 19.9 Q38.55 22.25 36.5 23.85 L35.5 24.7 M30.4 28.65 Q29.45 27.75 28.4 27.95 27.2 28.2 26.5 29.35 25.85 30.4 25.9 31.55 L25.8 31.5 Q25.35 31.0 24.95 31.0 24.35 31.2 24.05 31.8 23.75 32.4 23.85 33.3 23.9 34.1 24.35 34.55 24.7 35.0 25.35 34.9 25.75 34.85 26.05 34.25 L26.3 33.45 26.95 34.25 Q27.75 35.1 28.95 34.85 30.1 34.65 30.8 33.55 31.5 32.35 31.45 30.95 31.25 29.5 30.4 28.65 M39.15 33.05 L39.25 32.75 40.15 30.5 40.35 29.9 40.75 29.5 42.1 28.15 45.65 24.75 Q50.2 24.15 53.6 27.75 55.4 29.8 56.4 32.5 L56.25 35.45 56.25 35.7 56.2 36.35 55.85 38.6 55.75 39.5 55.5 40.15 54.7 42.3 Q54.4 42.95 52.6 32.2 L51.9 37.5 Q50.95 43.75 49.75 43.45 L45.7 42.35 Q43.3 41.6 41.35 39.55 L41.1 39.1 Q39.3 36.75 39.15 33.6 L39.15 33.05 M37.65 49.95 L40.25 50.1 Q41.6 50.05 40.8 50.2 L43.7 50.75 40.2 54.3 41.25 53.55 Q44.7 51.25 45.35 51.9 L46.0 52.9 45.6 53.45 43.95 55.0 44.65 56.15 42.65 56.15 42.75 55.85 Q42.8 55.6 43.0 55.4 42.2 55.7 41.45 56.05 37.85 57.5 34.05 57.75 L30.1 57.5 Q30.55 55.2 30.35 52.7 30.0 49.75 30.05 46.55 30.1 45.8 41.55 42.55 30.6 43.2 31.95 41.65 33.3 39.85 33.35 39.25 L37.15 37.5 44.25 44.3 Q44.35 48.6 37.65 49.95" fill="url(#gradient2)" fill-rule="evenodd" stroke="none"/>
    <path d="M30.4 28.65 Q31.25 29.5 31.45 30.95 31.5 32.35 30.8 33.55 30.1 34.65 28.95 34.85 27.75 35.1 26.95 34.25 L26.3 33.45 26.05 34.25 Q25.75 34.85 25.35 34.9 24.7 35.0 24.35 34.55 23.9 34.1 23.85 33.3 23.75 32.4 24.05 31.8 24.35 31.2 24.95 31.0 25.35 31.0 25.8 31.5 L25.9 31.55 Q25.85 30.4 26.5 29.35 27.2 28.2 28.4 27.95 29.45 27.75 30.4 28.65" fill="#ffffff" fill-rule="evenodd" stroke="none"/>
    <path d="M45.65 24.75 Q47.95 22.75 49.15 22.35 53.0 21.15 54.55 24.05 56.25 27.4 56.4 32.5 55.4 29.8 53.6 27.75 50.2 24.15 45.65 24.75 M30.1 57.5 L27.45 56.9 Q26.9 50.1 28.65 45.6 L41.55 42.55 Q30.1 45.8 30.05 46.55 30.0 49.75 30.35 52.7 30.55 55.2 30.1 57.5 M23.15 48.8 L22.0 50.25 19.95 52.4 Q17.1 49.7 15.45 45.6 L15.05 43.85 Q16.2 42.95 17.3 42.2 20.4 39.85 21.25 38.25 21.85 38.9 21.15 40.1 19.65 42.6 17.35 43.55 L17.85 45.05 Q19.1 47.65 21.55 48.55 L23.15 48.8" fill="#74587c" fill-rule="evenodd" stroke="none"/>
    <path d="M4.55 59.95 L3.55 57.25 Q2.35 54.1 1.8 50.5 5.2 59.65 12.85 65.55 13.8 66.4 14.9 67.05 18.15 69.25 21.7 70.45 24.7 71.55 28.0 71.85 L36.1 71.55 Q40.0 71.0 43.55 69.7 L44.3 69.3 Q52.55 65.95 59.4 58.0 L61.3 55.75 Q66.15 49.25 68.75 42.05 L69.15 40.85 70.5 35.35 70.75 33.75 70.8 33.7 71.0 36.15 71.0 37.55 70.55 41.8 69.95 44.95 Q67.45 56.25 59.5 65.0 49.8 75.5 36.9 77.35 24.35 79.25 14.45 71.85 12.05 70.1 10.15 68.1 L6.8 63.95 4.55 59.95 M17.5 35.15 L13.05 35.55 13.05 35.45 13.15 35.4 15.75 33.6 Q17.2 32.55 18.4 31.1 20.0 29.25 21.2 27.3 21.1 28.25 19.3 31.75 L17.5 35.15 M44.25 44.3 Q45.5 45.1 45.85 46.95 45.75 48.05 44.9 48.95 L37.65 49.95 Q44.35 48.6 44.25 44.3" fill="#423247" fill-rule="evenodd" stroke="none"/>
    <path d="M61.3 55.75 Q61.3 54.1 61.75 52.4 62.1 50.2 63.35 48.05 64.35 46.0 65.8 44.05 67.05 42.35 68.75 42.05 66.15 49.25 61.3 55.75 M32.65 62.6 Q34.3 61.25 36.25 61.1 38.25 60.85 39.85 62.05 41.35 63.2 41.6 65.25 42.8 66.75 43.4 68.8 L43.55 69.7 Q40.0 71.0 36.1 71.55 L28.0 71.85 28.15 71.15 28.4 69.55 Q28.8 67.5 29.9 65.65 L30.2 65.15 Q32.15 65.0 34.0 63.4 L34.6 62.9 32.65 62.6 M21.65 64.0 Q23.4 64.25 25.8 65.45 L24.5 67.5 Q23.2 69.25 21.7 70.45 18.15 69.25 14.9 67.05 L15.65 67.2 18.25 68.6 16.4 66.4 16.6 66.1 Q18.85 66.8 20.85 68.25 L21.35 67.25 Q22.05 65.65 21.65 64.0" fill="#b6a3bc" fill-rule="evenodd" stroke="none"/>
    <path d="M45.35 57.05 L45.25 56.9 45.55 56.8 45.45 56.9 45.35 57.05" fill="url(#gradient3)" fill-rule="evenodd" stroke="none"/>
    <path d="M26.55 41.5 L26.7 42.5 26.65 43.4 26.55 43.4 26.55 41.5 M17.7 52.05 L17.6 52.05 17.45 51.95 17.6 51.95 17.65 51.95 17.7 52.05" fill="#dafc9a" fill-rule="evenodd" stroke="none"/>
    <path d="M70.75 33.75 L70.8 33.6 70.8 33.7 70.75 33.75" fill="url(#gradient4)" fill-rule="evenodd" stroke="none"/>
    <path d="M65.85 16.5 L65.75 16.2 62.2 11.25 Q59.15 7.65 55.25 5.0 L52.95 3.65 51.3 2.8 Q47.7 1.5 43.95 0.6 37.05 -0.85 29.95 1.25 L26.4 2.4 Q19.75 6.2 13.9 10.85 11.6 12.65 9.7 14.7 L7.55 18.25 Q6.35 20.0 5.45 21.85 L3.8 25.2 2.3 28.5 1.15 31.85 Q0.2 35.7 0.1 39.65 L0.0 42.35 0.55 48.5 Q1.5 52.9 3.3 56.9 3.85 58.5 4.55 59.95 L6.8 63.95 10.15 68.1 Q12.05 70.1 14.45 71.85 24.35 79.25 36.9 77.35 49.8 75.5 59.5 65.0 67.45 56.25 69.95 44.95 L70.55 41.8 71.0 38.55 Q70.95 38.2 71.05 37.8 L71.0 36.15 70.8 33.7 Q70.4 28.95 69.5 26.05 L66.4 18.05 66.3 17.9 66.3 17.8 66.15 17.2 66.05 17.05 65.85 16.5 Z" fill="none" stroke="#6c6c24" stroke-linecap="round" stroke-linejoin="round" stroke-width="1.0"/>
  </g>
  <defs>
    <radialGradient cx="0" cy="0" gradientTransform="matrix(-0.0445, -0.9166, 0.91, -0.1319, -46.65, 298.9)" gradientUnits="userSpaceOnUse" id="gradient0" r="819.2" spreadMethod="pad">
      <stop offset="0.09411764705882353" stop-color="#30927b" stop-opacity="0.2"/>
      <stop offset="0.5294117647058824" stop-color="#307a5e"/>
      <stop offset="1.0" stop-color="#0b6875"/>
    </radialGradient>
    <linearGradient gradientTransform="matrix(-0.0233, -0.0538, 0.0394, -0.0205, 35.3, 41.25)" gradientUnits="userSpaceOnUse" id="gradient1" spreadMethod="pad" x1="-819.2" x2="819.2">
      <stop offset="0.0" stop-color="#afaf18"/>
      <stop offset="0.615686274509804" stop-color="#b4db11"/>
    </linearGradient>
    <radialGradient cx="0" cy="0" gradientTransform="matrix(0.0116, -0.0292, 0.0309, 0.0101, 30.65, 35.9)" gradientUnits="userSpaceOnUse" id="gradient2" r="819.2" spreadMethod="pad">
      <stop offset="0.0" stop-color="#beebc4"/>
      <stop offset="0.615686274509804" stop-color="#2eb1b8"/>
      <stop offset="1.0" stop-color="#0a2524"/>
    </radialGradient>
    <linearGradient gradientTransform="matrix(-0.0018, -0.0379, 0.0428, -0.0062, 35.5, 43.3)" gradientUnits="userSpaceOnUse" id="gradient3" spreadMethod="pad" x1="-819.2" x2="819.2">
      <stop offset="0.0" stop-color="#e7e64e"/>
      <stop offset="1.0" stop-color="#c0f13d"/>
    </linearGradient>
    <linearGradient gradientTransform="matrix(-0.0019, -0.0391, 0.0433, -0.0063, 36.05, 43.45)" gradientUnits="userSpaceOnUse" id="gradient4" spreadMethod="pad" x1="-819.2" x2="819.2">
      <stop offset="0.0" stop-color="#54540c" stop-opacity="0.5137255"/>
      <stop offset="0.615686274509804" stop-color="#b4db11"/>
    </linearGradient>
  </defs>
</svg>
