<?xml version="1.0" encoding="UTF-8" standalone="no"?>
<svg xmlns:ffdec="https://www.free-decompiler.com/flash" xmlns:xlink="http://www.w3.org/1999/xlink" ffdec:objectType="shape" height="89.55px" width="58.45px" xmlns="http://www.w3.org/2000/svg">
  <g transform="matrix(1.0, 0.0, 0.0, 1.0, -149.75, -176.8)">
    <path d="M164.2 179.8 Q168.75 178.6 175.0 178.6 187.35 180.2 192.1 186.75 M151.6 195.5 Q151.45 198.2 152.5 200.75" ffdec:has-small-stroke="true" ffdec:original-stroke-width="0.5" fill="none" stroke="#000000" stroke-linecap="round" stroke-linejoin="round" stroke-opacity="0.6" stroke-width="1.0"/>
    <path d="M160.55 180.85 Q160.35 180.05 160.6 179.25 161.0 178.05 162.1 177.4 L162.3 177.35 164.45 177.2 Q165.65 177.6 166.25 178.7 166.9 179.85 166.5 181.05 L166.45 181.15 Q165.6 182.05 164.65 182.15 L164.6 182.2 Q162.45 182.4 160.55 180.85 M162.3 177.35 Q165.85 178.65 164.65 182.15 165.85 178.65 162.3 177.35 M162.75 178.35 L162.0 178.3 Q161.6 178.45 161.5 178.8 161.4 179.15 161.65 179.4 161.85 179.75 162.25 179.85 L163.0 179.8 Q163.4 179.8 163.5 179.45 163.6 179.1 163.35 178.7 163.15 178.45 162.75 178.35" fill="#85610e" fill-rule="evenodd" stroke="none"/>
    <path d="M162.75 178.35 Q163.15 178.45 163.35 178.7 163.6 179.1 163.5 179.45 163.4 179.8 163.0 179.8 L162.25 179.85 Q161.85 179.75 161.65 179.4 161.4 179.15 161.5 178.8 161.6 178.45 162.0 178.3 L162.75 178.35" fill="#d19916" fill-rule="evenodd" stroke="none"/>
    <path d="M166.45 181.15 Q166.05 182.3 164.95 182.85 L164.25 183.2 162.65 183.1 Q161.45 182.75 160.8 181.55 L160.55 180.85 Q162.45 182.4 164.6 182.2 L164.65 182.15 Q165.6 182.05 166.45 181.15 M164.6 182.2 L164.25 183.2 164.6 182.2" fill="#58410a" fill-rule="evenodd" stroke="none"/>
    <path d="M160.55 180.85 Q160.35 180.05 160.6 179.25 161.0 178.05 162.1 177.4 L162.3 177.35 164.45 177.2 Q165.65 177.6 166.25 178.7 166.9 179.85 166.5 181.05 L166.45 181.15 Q166.05 182.3 164.95 182.85 L164.25 183.2 162.65 183.1 Q161.45 182.75 160.8 181.55 L160.55 180.85" ffdec:has-small-stroke="true" ffdec:original-stroke-width="0.5" fill="none" stroke="#000000" stroke-linecap="round" stroke-linejoin="round" stroke-opacity="0.6" stroke-width="1.0"/>
    <path d="M164.65 182.15 Q165.85 178.65 162.3 177.35 M164.25 183.2 L164.6 182.2" ffdec:has-small-stroke="true" ffdec:original-stroke-width="0.05" fill="none" stroke="#000000" stroke-linecap="round" stroke-linejoin="round" stroke-opacity="0.6" stroke-width="1.0"/>
    <path d="M151.6 195.5 Q151.55 183.6 161.6 180.9" ffdec:has-small-stroke="true" ffdec:original-stroke-width="0.5" fill="none" stroke="#000000" stroke-linecap="round" stroke-linejoin="round" stroke-opacity="0.6" stroke-width="1.0"/>
    <path d="M190.35 187.65 L190.55 188.4 Q190.8 188.7 191.2 188.7 L191.7 188.4 192.0 187.65 191.75 186.95 Q191.6 186.6 191.25 186.6 190.85 186.6 190.6 186.95 190.35 187.2 190.35 187.65 M193.4 189.0 Q192.7 189.4 191.85 189.4 190.6 189.4 189.7 188.55 L189.55 188.4 Q188.8 187.55 188.85 186.35 188.85 185.05 189.75 184.2 190.65 183.25 191.9 183.25 L192.05 183.25 Q193.1 183.85 193.45 184.75 L193.55 184.75 Q194.4 186.7 193.4 189.0 M189.55 188.4 Q189.8 184.65 193.45 184.75 189.8 184.65 189.55 188.4" fill="#85610e" fill-rule="evenodd" stroke="none"/>
    <path d="M190.35 187.65 Q190.35 187.2 190.6 186.95 190.85 186.6 191.25 186.6 191.6 186.6 191.75 186.95 L192.0 187.65 191.7 188.4 191.2 188.7 Q190.8 188.7 190.55 188.4 L190.35 187.65" fill="#d19916" fill-rule="evenodd" stroke="none"/>
    <path d="M192.05 183.25 Q193.25 183.3 194.05 184.2 L194.6 184.8 Q195.0 185.5 195.0 186.35 194.95 187.6 194.0 188.55 L193.4 189.0 Q194.4 186.7 193.55 184.75 L193.45 184.75 Q193.1 183.85 192.05 183.25 M193.55 184.75 L194.6 184.8 193.55 184.75" fill="#58410a" fill-rule="evenodd" stroke="none"/>
    <path d="M193.4 189.0 Q192.7 189.4 191.85 189.4 190.6 189.4 189.7 188.55 L189.55 188.4 Q188.8 187.55 188.85 186.35 188.85 185.05 189.75 184.2 190.65 183.25 191.9 183.25 L192.05 183.25 Q193.25 183.3 194.05 184.2 L194.6 184.8 Q195.0 185.5 195.0 186.35 194.95 187.6 194.0 188.55 L193.4 189.0" ffdec:has-small-stroke="true" ffdec:original-stroke-width="0.5" fill="none" stroke="#000000" stroke-linecap="round" stroke-linejoin="round" stroke-opacity="0.6" stroke-width="1.0"/>
    <path d="M193.45 184.75 Q189.8 184.65 189.55 188.4 M194.6 184.8 L193.55 184.75" ffdec:has-small-stroke="true" ffdec:original-stroke-width="0.05" fill="none" stroke="#000000" stroke-linecap="round" stroke-linejoin="round" stroke-opacity="0.6" stroke-width="1.0"/>
    <path d="M154.55 203.85 Q153.85 204.25 153.0 204.25 151.75 204.25 150.85 203.4 L150.7 203.25 Q149.95 202.4 150.0 201.2 150.0 199.9 150.9 199.05 151.8 198.1 153.05 198.1 L153.2 198.1 Q154.25 198.7 154.6 199.6 L154.7 199.6 Q155.55 201.55 154.55 203.85 M150.7 203.25 Q150.95 199.5 154.6 199.6 150.95 199.5 150.7 203.25 M151.5 202.5 L151.7 203.25 Q151.95 203.55 152.35 203.55 L152.85 203.25 153.15 202.5 152.9 201.8 Q152.75 201.45 152.4 201.45 152.0 201.45 151.75 201.8 151.5 202.05 151.5 202.5" fill="#85610e" fill-rule="evenodd" stroke="none"/>
    <path d="M151.5 202.5 Q151.5 202.05 151.75 201.8 152.0 201.45 152.4 201.45 152.75 201.45 152.9 201.8 L153.15 202.5 152.85 203.25 152.35 203.55 Q151.95 203.55 151.7 203.25 L151.5 202.5" fill="#d19916" fill-rule="evenodd" stroke="none"/>
    <path d="M153.2 198.1 Q154.4 198.15 155.2 199.05 L155.75 199.65 Q156.15 200.35 156.15 201.2 156.1 202.45 155.15 203.4 L154.55 203.85 Q155.55 201.55 154.7 199.6 L154.6 199.6 Q154.25 198.7 153.2 198.1 M154.7 199.6 L155.75 199.65 154.7 199.6" fill="#58410a" fill-rule="evenodd" stroke="none"/>
    <path d="M154.55 203.85 Q153.85 204.25 153.0 204.25 151.75 204.25 150.85 203.4 L150.7 203.25 Q149.95 202.4 150.0 201.2 150.0 199.9 150.9 199.05 151.8 198.1 153.05 198.1 L153.2 198.1 Q154.4 198.15 155.2 199.05 L155.75 199.65 Q156.15 200.35 156.15 201.2 156.1 202.45 155.15 203.4 L154.55 203.85" ffdec:has-small-stroke="true" ffdec:original-stroke-width="0.5" fill="none" stroke="#000000" stroke-linecap="round" stroke-linejoin="round" stroke-opacity="0.6" stroke-width="1.0"/>
    <path d="M154.6 199.6 Q150.95 199.5 150.7 203.25 M155.75 199.65 L154.7 199.6" ffdec:has-small-stroke="true" ffdec:original-stroke-width="0.05" fill="none" stroke="#000000" stroke-linecap="round" stroke-linejoin="round" stroke-opacity="0.6" stroke-width="1.0"/>
    <path d="M192.8 187.85 Q198.7 197.8 188.85 217.9 M153.7 203.0 Q159.75 212.55 183.7 219.15" ffdec:has-small-stroke="true" ffdec:original-stroke-width="0.5" fill="none" stroke="#000000" stroke-linecap="round" stroke-linejoin="round" stroke-opacity="0.6" stroke-width="1.0"/>
    <path d="M191.95 232.3 L194.45 234.1 198.45 239.65 194.95 236.9 191.95 232.3 M202.95 253.95 L200.85 251.4 198.3 246.75 198.6 256.05 198.0 251.15 195.2 245.7 194.25 243.8 195.35 244.6 195.75 242.05 193.7 240.7 194.1 243.55 194.15 243.7 193.2 243.05 193.25 241.9 192.1 239.65 193.7 240.7 193.2 237.4 201.95 250.85 202.95 253.95 M203.1 261.9 L203.7 264.65 201.15 260.45 203.1 261.9 M198.6 256.15 L198.5 256.4 198.75 262.65 197.25 258.9 197.25 258.85 195.8 255.3 195.4 252.8 198.6 256.05 198.6 256.15 M191.25 254.2 L188.45 237.25 187.1 233.95 188.15 231.95 188.9 233.35 189.0 233.6 190.9 237.35 192.1 239.65 191.0 238.95 188.45 237.25 191.25 244.2 191.3 244.2 192.8 247.9 192.25 250.05 191.25 254.2 M186.05 236.0 L185.95 238.85 186.7 245.95 185.2 238.6 186.05 236.0 M190.7 232.75 L189.05 233.3 189.45 230.55 190.7 232.75" fill="#00cc00" fill-rule="evenodd" stroke="none"/>
    <path d="M184.6 213.95 L185.65 215.05 186.65 216.1 186.0 217.5 185.2 219.15 184.6 213.95 M186.65 216.1 L190.9 219.4 188.05 223.35 186.65 216.1" fill="#003300" fill-rule="evenodd" stroke="none"/>
    <path d="M185.65 215.05 L184.55 208.0 185.05 208.0 186.65 216.1 185.65 215.05 M188.05 223.35 L189.45 230.55 189.05 233.3 190.7 232.75 191.95 232.3 194.95 236.9 200.1 244.8 201.95 250.85 193.2 237.4 190.7 232.75 190.9 237.35 189.0 233.6 189.05 233.3 188.9 233.35 188.15 231.95 186.0 217.5 186.65 216.1 188.05 223.35 M200.85 251.4 L203.1 261.9 201.15 260.45 198.6 256.15 198.65 256.1 198.6 256.05 198.3 246.75 200.85 251.4 M192.75 253.05 L192.05 259.05 191.25 254.2 192.25 250.05 192.75 253.05 M188.45 237.25 L189.65 254.05 186.05 236.0 187.1 233.95 188.45 237.25 191.0 238.95 191.15 241.55 193.2 243.05 194.15 243.7 194.15 243.8 194.8 248.35 194.3 251.6 192.8 247.9 191.3 244.2 191.25 244.2 188.45 237.25 M186.0 226.1 L182.75 230.5 182.75 227.55 185.6 222.6 186.0 226.1 M182.75 224.35 L182.75 219.1 184.6 213.95 185.2 219.15 182.75 224.35 M194.25 243.8 L194.1 243.55 193.7 240.7 195.75 242.05 195.35 244.6 194.25 243.8 M195.2 245.7 L198.0 251.15 198.6 256.05 195.4 252.8 194.8 248.35 195.2 245.7" fill="#006600" fill-rule="evenodd" stroke="none"/>
    <path d="M184.6 213.95 L183.9 208.0 184.55 208.0 185.65 215.05 184.6 213.95 M189.45 230.55 L191.95 232.3 190.7 232.75 189.45 230.55 M201.95 250.85 L208.2 260.4 202.95 253.95 201.95 250.85 M195.8 255.3 L195.6 266.35 194.3 251.6 194.45 262.6 194.25 261.9 192.75 253.05 192.25 250.05 192.8 247.9 194.3 251.6 194.8 248.35 194.15 243.8 194.25 243.8 195.2 245.7 194.8 248.35 195.4 252.8 194.3 251.6 195.8 255.3 M186.05 236.0 L186.85 233.4 186.0 226.1 185.6 222.6 182.75 227.55 182.75 224.35 185.2 219.15 186.0 217.5 188.15 231.95 187.1 233.95 186.05 236.0 M190.9 237.35 L190.7 232.75 193.2 237.4 193.7 240.7 192.1 239.65 193.25 241.9 193.2 243.05 191.15 241.55 191.0 238.95 192.1 239.65 190.9 237.35" fill="#009900" fill-rule="evenodd" stroke="none"/>
    <path d="M195.8 255.3 L194.3 251.6 195.4 252.8 195.8 255.3" fill="#00ff33" fill-rule="evenodd" stroke="none"/>
  </g>
</svg>
