<?xml version="1.0" encoding="UTF-8" standalone="no"?>
<svg xmlns:ffdec="https://www.free-decompiler.com/flash" xmlns:xlink="http://www.w3.org/1999/xlink" ffdec:objectType="shape" height="158.65px" width="170.9px" xmlns="http://www.w3.org/2000/svg">
  <g transform="matrix(1.0, 0.0, 0.0, 1.0, 86.65, 66.7)">
    <path d="M14.4 89.9 Q6.35 91.95 -5.0 91.95 -16.35 91.95 -24.4 89.9 -32.45 87.9 -32.45 85.0 -32.45 82.1 -24.4 80.05 -16.35 78.05 -5.0 78.05 6.35 78.05 14.4 80.05 22.45 82.1 22.45 85.0 22.45 87.9 14.4 89.9" fill="#000000" fill-rule="evenodd" stroke="none"/>
    <path d="M77.35 -43.8 L84.25 -30.95 24.2 -2.25 19.95 -6.4 77.35 -43.8 M-1.15 -26.05 L55.0 -62.1 62.2 -56.15 27.35 -24.7 12.0 -13.75 -1.15 -26.05" fill="#cccc99" fill-rule="evenodd" stroke="none"/>
    <path d="M74.4 -46.25 Q75.8 -45.0 77.35 -43.8 L19.95 -6.4 12.0 -13.75 27.35 -24.7 74.4 -46.25" fill="#cec197" fill-rule="evenodd" stroke="none"/>
    <path d="M62.2 -56.15 Q61.8 -46.6 74.4 -46.25 L27.35 -24.7 62.2 -56.15" fill="#c4b582" fill-rule="evenodd" stroke="none"/>
    <path d="M84.25 -30.95 L28.3 1.85 23.85 4.85 -0.6 -18.85 -1.15 -26.05 12.0 -13.75 19.95 -6.4 24.2 -2.25 84.25 -30.95 M28.3 1.85 L24.2 -2.25 28.3 1.85" fill="#80773c" fill-rule="evenodd" stroke="none"/>
    <path d="M74.4 -46.25 Q75.8 -45.0 77.35 -43.8 L84.25 -30.95 28.3 1.85 23.85 4.85 -0.6 -18.85 -1.15 -26.05 12.0 -13.75 19.95 -6.4 77.35 -43.8 M55.0 -62.1 L62.2 -56.15 Q61.8 -46.6 74.4 -46.25 L27.35 -24.7 12.0 -13.75 M19.95 -6.4 L24.2 -2.25 84.25 -30.95 M24.2 -2.25 L28.3 1.85 M27.35 -24.7 L62.2 -56.15" ffdec:has-small-stroke="true" ffdec:original-stroke-width="0.05" fill="none" stroke="#000000" stroke-linecap="round" stroke-linejoin="round" stroke-opacity="0.4" stroke-width="1.0"/>
    <path d="M-1.15 -26.05 L55.0 -62.1" ffdec:has-small-stroke="true" ffdec:original-stroke-width="0.05" fill="none" stroke="#000000" stroke-linecap="round" stroke-linejoin="round" stroke-opacity="0.4" stroke-width="1.0"/>
    <path d="M64.55 -19.8 L74.55 -9.15 23.95 34.1 18.85 31.2 64.55 -19.8 M-6.65 17.65 L38.25 -31.7 46.8 -27.85 21.25 11.65 9.2 26.15 -6.65 17.65" fill="#cccc99" fill-rule="evenodd" stroke="none"/>
    <path d="M61.1 -21.4 L64.55 -19.8 18.85 31.2 9.2 26.15 21.25 11.65 61.1 -21.4" fill="#cec197" fill-rule="evenodd" stroke="none"/>
    <path d="M46.8 -27.85 Q48.85 -18.5 61.1 -21.4 L21.25 11.65 46.8 -27.85" fill="#c4b582" fill-rule="evenodd" stroke="none"/>
    <path d="M74.55 -9.15 L29.0 37.05 25.45 41.05 -4.2 24.5 -6.65 17.65 9.2 26.15 18.85 31.2 23.95 34.1 74.55 -9.15 M29.0 37.05 L23.95 34.1 29.0 37.05" fill="#80773c" fill-rule="evenodd" stroke="none"/>
    <path d="M46.8 -27.85 Q48.85 -18.5 61.1 -21.4 L64.55 -19.8 74.55 -9.15 29.0 37.05 25.45 41.05 -4.2 24.5 -6.65 17.65 9.2 26.15 18.85 31.2 64.55 -19.8 M38.25 -31.7 L46.8 -27.85 21.25 11.65 61.1 -21.4 M9.2 26.15 L21.25 11.65 M23.95 34.1 L29.0 37.05 M18.85 31.2 L23.95 34.1 74.55 -9.15" ffdec:has-small-stroke="true" ffdec:original-stroke-width="0.05" fill="none" stroke="#000000" stroke-linecap="round" stroke-linejoin="round" stroke-opacity="0.4" stroke-width="1.0"/>
    <path d="M-6.65 17.65 L38.25 -31.7" ffdec:has-small-stroke="true" ffdec:original-stroke-width="0.05" fill="none" stroke="#000000" stroke-linecap="round" stroke-linejoin="round" stroke-opacity="0.4" stroke-width="1.0"/>
    <path d="M-61.55 -33.95 L-52.85 -37.7 -23.6 1.35 -26.15 3.75 -61.55 -33.95 M-38.1 16.0 L-72.3 -20.9 -68.8 -25.1 -40.75 -1.75 -30.65 8.4 -38.1 16.0" fill="#cccc99" fill-rule="evenodd" stroke="none"/>
    <path d="M-62.95 -32.25 L-61.55 -33.95 -26.15 3.75 -30.65 8.4 -40.75 -1.75 -62.95 -32.25" fill="#cec197" fill-rule="evenodd" stroke="none"/>
    <path d="M-68.8 -25.1 Q-61.6 -24.4 -62.95 -32.25 L-40.75 -1.75 -68.8 -25.1" fill="#c4b582" fill-rule="evenodd" stroke="none"/>
    <path d="M-52.85 -37.7 L-21.05 -1.05 -18.3 1.9 -32.75 16.0 -38.1 16.0 -30.65 8.4 -26.15 3.75 -23.6 1.35 -52.85 -37.7 M-21.05 -1.05 L-23.6 1.35 -21.05 -1.05" fill="#80773c" fill-rule="evenodd" stroke="none"/>
    <path d="M-68.8 -25.1 Q-61.6 -24.4 -62.95 -32.25 L-61.55 -33.95 -52.85 -37.7 -21.05 -1.05 -18.3 1.9 -32.75 16.0 -38.1 16.0 -30.65 8.4 -40.75 -1.75 -62.95 -32.25 M-72.3 -20.9 L-68.8 -25.1 -40.75 -1.75 M-26.15 3.75 L-23.6 1.35 -52.85 -37.7 M-23.6 1.35 L-21.05 -1.05 M-30.65 8.4 L-26.15 3.75 -61.55 -33.95" ffdec:has-small-stroke="true" ffdec:original-stroke-width="0.05" fill="none" stroke="#000000" stroke-linecap="round" stroke-linejoin="round" stroke-opacity="0.4" stroke-width="1.0"/>
    <path d="M-38.1 16.0 L-72.3 -20.9" ffdec:has-small-stroke="true" ffdec:original-stroke-width="0.05" fill="none" stroke="#000000" stroke-linecap="round" stroke-linejoin="round" stroke-opacity="0.4" stroke-width="1.0"/>
    <path d="M-86.65 -34.95 L-84.15 -42.3 -25.6 -23.75 -3.35 -14.75 -9.7 -1.0 -86.65 -34.95 M-78.85 -57.65 L-68.05 -66.7 2.7 -27.55 0.45 -23.1 -78.85 -57.65" fill="#cccc99" fill-rule="evenodd" stroke="none"/>
    <path d="M-79.95 -54.65 L-78.85 -57.65 0.45 -23.1 -3.35 -14.75 -25.6 -23.75 -79.95 -54.65" fill="#cec197" fill-rule="evenodd" stroke="none"/>
    <path d="M-84.15 -42.3 Q-72.65 -44.7 -79.95 -54.65 L-25.6 -23.75 -84.15 -42.3" fill="#c4b582" fill-rule="evenodd" stroke="none"/>
    <path d="M-68.05 -66.7 L5.0 -31.95 11.2 -29.3 -1.55 -3.45 -9.7 -1.0 -3.35 -14.75 0.45 -23.1 2.7 -27.55 -68.05 -66.7 M5.0 -31.95 L2.7 -27.55 5.0 -31.95" fill="#80773c" fill-rule="evenodd" stroke="none"/>
    <path d="M-86.65 -34.95 L-84.15 -42.3 Q-72.65 -44.7 -79.95 -54.65 L-78.85 -57.65 -68.05 -66.7 5.0 -31.95 11.2 -29.3 -1.55 -3.45 -9.7 -1.0 -3.35 -14.75 0.45 -23.1 -78.85 -57.65 M-3.35 -14.75 L-25.6 -23.75 -84.15 -42.3 M2.7 -27.55 L5.0 -31.95 M0.45 -23.1 L2.7 -27.55 -68.05 -66.7 M-25.6 -23.75 L-79.95 -54.65" ffdec:has-small-stroke="true" ffdec:original-stroke-width="0.05" fill="none" stroke="#000000" stroke-linecap="round" stroke-linejoin="round" stroke-opacity="0.4" stroke-width="1.0"/>
    <path d="M-9.7 -1.0 L-86.65 -34.95" ffdec:has-small-stroke="true" ffdec:original-stroke-width="0.05" fill="none" stroke="#000000" stroke-linecap="round" stroke-linejoin="round" stroke-opacity="0.4" stroke-width="1.0"/>
    <path d="M0.45 -60.6 L5.8 -56.2 -23.65 -20.85 -36.45 -8.1 -46.05 -17.5 0.45 -60.6 M16.95 -47.05 L21.65 -36.1 23.95 -38.1 31.1 -35.45 35.9 -27.85 -27.2 60.95 -37.3 52.75 -3.5 3.75 -48.45 43.65 -59.45 35.1 -28.25 7.45 -18.7 -1.0 21.65 -36.1 -27.55 0.75 -30.6 -2.45 16.95 -47.05 M29.25 29.0 L33.45 49.65 17.15 52.0 29.25 29.0 M31.1 -35.45 L-3.5 3.75 31.1 -35.45" fill="#cccc99" fill-rule="evenodd" stroke="none"/>
    <path d="M44.1 -24.8 L44.1 -18.05 19.7 13.5 16.7 14.75 -12.9 56.75 -16.55 56.75 -12.9 56.75 0.85 54.3 Q8.85 55.6 17.15 52.0 L33.45 49.65 29.55 53.6 -15.8 60.85 -21.95 68.7 -59.45 39.0 -59.45 35.1 -48.45 43.65 Q-44.25 50.45 -37.3 52.75 L-27.2 60.95 -22.5 64.75 -21.95 68.7 -22.5 64.75 -16.55 56.75 13.75 16.0 13.75 15.95 16.7 14.75 13.75 15.95 44.1 -24.8 M-28.25 7.45 L-46.05 -10.8 -46.05 -17.5 -36.45 -8.1 -30.6 -2.45 -27.55 0.75 21.65 -36.1 -18.7 -1.0 -24.55 3.95 -28.25 7.45 M-24.55 3.95 L-27.55 0.75 -24.55 3.95 M-15.8 60.85 L-16.55 56.75 -15.8 60.85" fill="#80773c" fill-rule="evenodd" stroke="none"/>
    <path d="M14.8 -48.85 L16.95 -47.05 -30.6 -2.45 -36.45 -8.1 -23.65 -20.85 14.8 -48.85 M35.9 -27.85 L44.1 -24.8 13.75 15.95 13.75 16.0 -16.55 56.75 -22.5 64.75 -27.2 60.95 35.9 -27.85 M19.7 13.5 L25.6 11.05 27.3 19.3 0.85 54.3 -12.9 56.75 16.7 14.75 19.7 13.5" fill="#cec197" fill-rule="evenodd" stroke="none"/>
    <path d="M5.8 -56.2 Q4.9 -47.15 14.8 -48.85 L-23.65 -20.85 5.8 -56.2 M27.3 19.3 Q26.25 30.25 29.25 29.0 L17.15 52.0 Q8.85 55.6 0.85 54.3 L27.3 19.3 M-48.45 43.65 L-3.5 3.75 -37.3 52.75 Q-44.25 50.45 -48.45 43.65" fill="#c4b582" fill-rule="evenodd" stroke="none"/>
    <path d="M0.45 -60.6 L5.8 -56.2 Q4.9 -47.15 14.8 -48.85 L16.95 -47.05 21.65 -36.1 23.95 -38.1 31.1 -35.45 35.9 -27.85 44.1 -24.8 44.1 -18.05 19.7 13.5 25.6 11.05 27.3 19.3 Q26.25 30.25 29.25 29.0 L33.45 49.65 29.55 53.6 -15.8 60.85 -21.95 68.7 -59.45 39.0 -59.45 35.1 -28.25 7.45 -46.05 -10.8 -46.05 -17.5 -36.45 -8.1 -23.65 -20.85 5.8 -56.2 M-36.45 -8.1 L-30.6 -2.45 16.95 -47.05 M-27.55 0.75 L-24.55 3.95 -18.7 -1.0 21.65 -36.1 -27.55 0.75 -30.6 -2.45 M-24.55 3.95 L-28.25 7.45 M-59.45 35.1 L-48.45 43.65 -3.5 3.75 31.1 -35.45 M-16.55 56.75 L-12.9 56.75 16.7 14.75 13.75 15.95 13.75 16.0 -16.55 56.75 -15.8 60.85 M-27.2 60.95 L-37.3 52.75 Q-44.25 50.45 -48.45 43.65 M-22.5 64.75 L-27.2 60.95 35.9 -27.85 M-21.95 68.7 L-22.5 64.75 -16.55 56.75 M-3.5 3.75 L-37.3 52.75 M19.7 13.5 L16.7 14.75 M0.85 54.3 Q8.85 55.6 17.15 52.0 L29.25 29.0 M17.15 52.0 L33.45 49.65 M0.85 54.3 L27.3 19.3 M-23.65 -20.85 L14.8 -48.85 M44.1 -24.8 L13.75 15.95 M-12.9 56.75 L0.85 54.3" ffdec:has-small-stroke="true" ffdec:original-stroke-width="0.05" fill="none" stroke="#000000" stroke-linecap="round" stroke-linejoin="round" stroke-opacity="0.4" stroke-width="1.0"/>
    <path d="M-46.05 -17.5 L0.45 -60.6" ffdec:has-small-stroke="true" ffdec:original-stroke-width="0.05" fill="none" stroke="#000000" stroke-linecap="round" stroke-linejoin="round" stroke-opacity="0.4" stroke-width="1.0"/>
    <path d="M32.85 -3.55 L29.6 0.7 20.5 -6.15 10.65 -12.2 -2.45 -18.05 -10.8 -21.05 -19.7 -23.7 -35.2 -27.55 -15.9 -45.45 -8.9 -38.6 -1.25 -30.0 5.0 -23.6 14.0 -16.05 23.35 -10.2 32.85 -3.55 M27.3 19.3 Q26.25 30.25 29.25 29.0 L31.0 37.6 27.0 33.3 20.0 29.0 8.7 26.15 16.7 14.75 19.65 13.55 26.65 16.2 27.3 19.3 M16.3 12.55 L13.75 15.95 13.75 16.0 6.4 25.9 -1.95 25.4 -19.7 27.2 -30.5 27.75 Q-37.85 27.4 -44.35 24.1 L-46.0 23.2 -34.6 13.05 Q-27.2 15.65 -19.35 16.1 L-17.45 16.15 -11.75 15.7 7.45 12.15 16.3 12.55" fill="#333300" fill-opacity="0.16862746" fill-rule="evenodd" stroke="none"/>
  </g>
</svg>
