<?xml version="1.0" encoding="UTF-8" standalone="no"?>
<svg xmlns:ffdec="https://www.free-decompiler.com/flash" xmlns:xlink="http://www.w3.org/1999/xlink" ffdec:objectType="shape" height="90.45px" width="87.1px" xmlns="http://www.w3.org/2000/svg">
  <g transform="matrix(1.0, 0.0, 0.0, 1.0, -231.9, -142.8)">
    <path d="M285.9 148.95 L288.05 146.05 288.85 148.15 288.95 150.0 288.75 152.7 Q288.3 155.5 286.65 157.05 284.05 159.6 278.6 158.8 L277.25 157.05 276.35 155.9 Q283.05 156.65 285.35 154.25 286.65 151.65 285.9 148.95 M296.1 151.45 L296.5 150.9 297.55 153.6 297.75 154.15 296.45 154.8 Q297.25 152.8 296.1 151.45 M295.4 158.15 L295.45 158.15 298.0 158.05 297.8 158.45 Q295.2 162.5 292.6 159.75 L293.05 159.65 Q294.65 159.2 295.4 158.15" fill="#fff5e0" fill-rule="evenodd" stroke="none"/>
    <path d="M270.8 158.05 L270.15 156.95 Q271.95 156.45 275.95 156.9 L277.25 157.05 278.6 158.8 274.4 157.8 270.8 158.05 M262.25 157.6 L263.1 160.6 Q257.25 164.0 253.25 171.45 251.4 175.05 250.3 178.5 L249.7 177.75 251.4 173.9 253.8 168.8 256.4 164.85 258.75 161.35 259.5 160.55 Q260.2 160.0 261.2 159.5 L259.4 159.7 Q260.75 158.5 262.25 157.6 M295.05 175.2 L294.05 174.3 Q291.6 172.1 289.95 169.75 L291.95 169.3 292.05 169.4 Q295.05 172.95 296.35 175.3 L295.05 175.2 M286.85 162.85 Q286.3 160.0 286.65 157.05 288.3 155.5 288.75 152.7 L288.95 150.0 Q289.55 148.9 290.25 148.15 L290.25 148.4 Q290.35 149.25 291.7 148.85 L292.05 148.7 291.85 150.95 Q290.6 152.0 289.8 154.4 288.8 158.05 289.3 161.3 288.05 162.05 286.85 162.85 M295.45 158.15 Q296.05 157.25 295.9 156.1 L295.85 156.05 295.85 156.0 296.45 154.8 297.75 154.15 Q298.2 155.2 298.85 155.3 L298.0 158.05 295.45 158.15" fill="#fee4ab" fill-rule="evenodd" stroke="none"/>
    <path d="M270.8 158.05 L268.8 158.45 Q265.75 159.1 263.1 160.6 L262.25 157.6 Q265.45 155.65 269.15 155.25 L270.15 156.95 270.8 158.05 M250.3 178.5 Q249.6 180.85 249.3 183.05 L248.35 182.4 Q248.7 179.6 249.45 178.25 L249.7 177.75 250.3 178.5 M249.05 188.25 Q249.5 195.8 254.65 202.5 L252.9 202.7 252.25 201.8 249.65 196.9 Q248.95 195.15 248.4 191.85 L248.1 187.9 249.05 188.25 M299.35 187.35 Q299.35 179.75 295.05 175.2 L296.35 175.3 296.35 175.35 Q297.9 178.25 299.55 183.4 300.55 185.85 301.95 186.3 302.25 190.6 300.9 196.15 L300.1 195.55 Q300.8 192.0 300.4 189.4 L299.8 188.05 299.35 187.35 M289.95 169.75 Q287.6 166.45 286.85 162.85 288.05 162.05 289.3 161.3 289.4 162.45 289.8 163.45 289.1 164.8 289.3 166.05 L291.95 169.3 289.95 169.75 M292.05 148.7 L293.35 148.3 Q294.5 148.65 295.55 149.6 L296.5 150.9 296.1 151.45 Q295.45 150.75 294.4 150.2 292.9 150.05 291.85 150.95 L292.05 148.7 M298.3 204.05 L297.65 205.7 Q295.2 211.45 290.9 215.0 L290.25 213.25 Q294.05 210.25 297.05 204.4 L297.6 203.2 298.3 204.05" fill="#e5c59a" fill-rule="evenodd" stroke="none"/>
    <path d="M249.3 183.05 Q248.9 185.75 249.05 188.25 L248.1 187.9 248.15 184.3 248.35 182.4 249.3 183.05 M254.65 202.5 L257.05 205.25 255.65 206.0 255.25 205.55 252.9 202.7 254.65 202.5 M283.65 218.95 L283.65 216.2 285.4 215.8 Q288.0 215.05 290.25 213.25 L290.9 215.0 Q287.8 217.5 283.65 218.95 M300.1 195.55 L300.9 196.15 Q299.95 199.85 298.3 204.05 L297.6 203.2 Q299.15 199.8 299.95 196.3 L300.1 195.55" fill="#b3946d" fill-rule="evenodd" stroke="none"/>
    <path d="M257.05 205.25 L259.35 207.6 Q261.4 209.45 263.7 211.2 L274.25 216.7 Q279.05 216.95 283.0 215.65 L283.7 215.5 283.65 216.2 283.65 218.95 Q279.3 220.35 273.9 220.6 L261.9 213.85 Q257.4 210.4 254.25 206.65 L255.65 206.0 257.05 205.25" fill="#a18562" fill-rule="evenodd" stroke="none"/>
    <path d="M285.9 148.95 L285.25 147.45 284.65 146.8 285.85 143.75 Q287.25 144.65 288.05 146.05 L285.9 148.95 M281.35 147.2 L281.25 147.35 Q280.45 148.75 280.55 149.95 L278.6 151.55 Q278.35 150.75 278.25 149.75 278.4 146.3 279.7 144.65 L281.35 147.2 M270.15 156.95 L269.15 155.25 Q270.75 155.05 272.5 155.2 L276.35 155.9 277.25 157.05 275.95 156.9 Q271.95 156.45 270.15 156.95 M292.05 148.7 L291.7 148.85 Q290.35 149.25 290.25 148.4 L290.25 148.15 Q291.15 147.0 292.2 146.65 L292.05 148.7 M297.75 154.15 L299.0 153.55 298.85 155.3 Q298.2 155.2 297.75 154.15 M292.15 155.05 L293.1 154.25 Q294.25 154.0 295.65 156.35 L295.85 156.05 295.9 156.1 Q296.05 157.25 295.45 158.15 L295.4 158.15 293.45 158.15 292.15 155.05 M259.4 159.7 L261.2 159.5 Q260.2 160.0 259.5 160.55 L258.75 161.35 256.4 164.85 253.8 168.8 251.4 173.9 249.7 177.75 248.85 176.75 Q249.8 173.8 251.3 170.75 254.9 163.55 259.4 159.7 M298.4 175.35 L296.35 175.3 Q295.05 172.95 292.05 169.4 L291.95 169.3 293.3 169.0 Q296.3 171.9 298.4 175.35" fill="#feecc5" fill-rule="evenodd" stroke="none"/>
    <path d="M285.85 143.75 L284.65 146.8 Q282.85 145.2 281.35 147.2 L279.7 144.65 Q280.95 142.95 283.45 142.9 284.75 143.25 285.85 143.75 M280.55 149.95 Q280.6 150.6 281.0 151.2 L280.45 153.25 282.3 152.75 Q283.5 152.4 283.35 149.35 L284.1 150.05 Q285.8 153.55 283.2 155.15 279.75 156.2 278.6 151.55 L280.55 149.95" fill="#fef1d6" fill-rule="evenodd" stroke="none"/>
    <path d="M281.0 151.2 Q281.75 148.25 283.35 149.35 283.5 152.4 282.3 152.75 L280.45 153.25 281.0 151.2 M296.5 150.9 L297.5 149.5 Q298.85 151.4 299.0 153.55 L297.75 154.15 297.55 153.6 296.5 150.9 M292.15 155.05 L293.45 158.15 295.4 158.15 Q294.65 159.2 293.05 159.65 L292.6 159.75 292.35 159.4 Q291.2 156.55 292.15 155.05" fill="#ffffff" fill-rule="evenodd" stroke="none"/>
    <path d="M289.7 211.75 Q293.85 208.1 296.4 201.75 L297.6 203.2 297.05 204.4 Q294.05 210.25 290.25 213.25 L289.7 211.75 M298.6 194.25 Q299.3 190.55 299.35 187.35 L299.8 188.05 300.4 189.4 Q300.8 192.0 300.1 195.55 L298.6 194.25 M292.05 148.7 L292.2 146.65 Q294.05 146.1 296.1 147.8 L297.5 149.5 296.5 150.9 295.55 149.6 Q294.5 148.65 293.35 148.3 L292.05 148.7 M248.85 176.75 L249.7 177.75 249.45 178.25 Q248.7 179.6 248.35 182.4 L247.55 181.8 Q248.0 179.3 248.85 176.75 M247.0 187.45 L248.1 187.9 248.4 191.85 Q248.95 195.15 249.65 196.9 L252.25 201.8 252.9 202.7 251.55 202.9 Q247.0 195.65 247.0 187.45 M301.95 186.3 Q300.55 185.85 299.55 183.4 297.9 178.25 296.35 175.35 L296.35 175.3 298.4 175.35 Q300.4 178.8 301.45 182.95 301.9 184.5 301.95 186.3 M293.3 169.0 L291.95 169.3 289.3 166.05 Q289.1 164.8 289.8 163.45 290.7 166.2 292.75 168.5 L293.3 169.0" fill="#eacbae" fill-rule="evenodd" stroke="none"/>
    <path d="M283.7 215.5 Q287.0 214.2 289.7 211.75 L290.25 213.25 Q288.0 215.05 285.4 215.8 L283.65 216.2 283.7 215.5 M296.4 201.75 L297.2 199.7 298.6 194.25 300.1 195.55 299.95 196.3 Q299.15 199.8 297.6 203.2 L296.4 201.75 M248.1 187.9 L247.0 187.45 Q247.05 184.7 247.55 181.8 L248.35 182.4 248.15 184.3 248.1 187.9 M251.55 202.9 L252.9 202.7 255.25 205.55 255.65 206.0 254.25 206.65 251.55 202.9" fill="#bb9c80" fill-rule="evenodd" stroke="none"/>
    <path d="M284.65 146.8 L285.25 147.45 285.9 148.95 Q286.65 151.65 285.35 154.25 283.05 156.65 276.35 155.9 L272.5 155.2 Q270.75 155.05 269.15 155.25 265.45 155.65 262.25 157.6 260.75 158.5 259.4 159.7 254.9 163.55 251.3 170.75 249.8 173.8 248.85 176.75 248.0 179.3 247.55 181.8 247.05 184.7 247.0 187.45 247.0 195.65 251.55 202.9 L254.25 206.65 Q257.4 210.4 261.9 213.85 L273.9 220.6 Q279.3 220.35 283.65 218.95 287.8 217.5 290.9 215.0 295.2 211.45 297.65 205.7 L298.3 204.05 Q299.95 199.85 300.9 196.15 302.25 190.6 301.95 186.3 301.9 184.5 301.45 182.95 300.4 178.8 298.4 175.35 296.3 171.9 293.3 169.0 L292.75 168.5 Q290.7 166.2 289.8 163.45 289.4 162.45 289.3 161.3 288.8 158.05 289.8 154.4 290.6 152.0 291.85 150.95 292.9 150.05 294.4 150.2 295.45 150.75 296.1 151.45 297.25 152.8 296.45 154.8 L295.85 156.0 295.85 156.05 295.65 156.35 Q294.25 154.0 293.1 154.25 L292.15 155.05 Q291.2 156.55 292.35 159.4 L292.6 159.75 Q295.2 162.5 297.8 158.45 L298.0 158.05 298.85 155.3 299.0 153.55 Q298.85 151.4 297.5 149.5 L296.1 147.8 Q294.05 146.1 292.2 146.65 291.15 147.0 290.25 148.15 289.55 148.9 288.95 150.0 L288.75 152.7 Q288.3 155.5 286.65 157.05 284.05 159.6 278.6 158.8 L274.4 157.8 270.8 158.05 268.8 158.45 Q265.75 159.1 263.1 160.6 257.25 164.0 253.25 171.45 251.4 175.05 250.3 178.5 249.6 180.85 249.3 183.05 248.9 185.75 249.05 188.25 249.5 195.8 254.65 202.5 L257.05 205.25 259.35 207.6 Q261.4 209.45 263.7 211.2 L274.25 216.7 Q279.05 216.95 283.0 215.65 L283.7 215.5 Q287.0 214.2 289.7 211.75 293.85 208.1 296.4 201.75 L297.2 199.7 298.6 194.25 Q299.3 190.55 299.35 187.35 299.35 179.75 295.05 175.2 L294.05 174.3 Q291.6 172.1 289.95 169.75 287.6 166.45 286.85 162.85 286.3 160.0 286.65 157.05 M288.05 146.05 Q287.25 144.65 285.85 143.75 284.75 143.25 283.45 142.9 280.95 142.95 279.7 144.65 278.4 146.3 278.25 149.75 278.35 150.75 278.6 151.55 279.75 156.2 283.2 155.15 285.8 153.55 284.1 150.05 L283.35 149.35 Q281.75 148.25 281.0 151.2 280.6 150.6 280.55 149.95 280.45 148.75 281.25 147.35 L281.35 147.2 Q282.85 145.2 284.65 146.8 M288.95 150.0 L288.85 148.15 288.05 146.05" ffdec:has-small-stroke="true" ffdec:original-stroke-width="0.2" fill="none" stroke="#000000" stroke-linecap="round" stroke-linejoin="round" stroke-opacity="0.4" stroke-width="1.0"/>
    <path d="M250.4 154.55 L250.45 151.2 252.1 151.25 253.2 151.85 254.5 153.15 Q255.6 154.8 255.2 157.05 254.65 160.7 250.15 166.0 L248.25 166.65 247.0 167.05 Q252.35 160.5 252.8 157.25 252.35 154.85 250.4 154.55" fill="#fff5e0" fill-rule="evenodd" stroke="none"/>
    <path d="M243.0 173.8 Q244.05 171.75 247.25 167.85 L248.25 166.65 250.15 166.0 246.55 169.85 244.1 173.55 243.0 173.8 M236.5 185.85 Q236.85 184.0 237.5 182.15 L239.7 182.45 Q237.2 189.75 238.15 196.85 238.65 200.2 239.65 202.7 L238.85 203.0 238.1 199.75 237.15 195.25 237.0 191.05 236.95 187.2 Q236.75 187.15 237.0 186.1 L237.75 183.9 236.5 185.85" fill="#fee4ab" fill-rule="evenodd" stroke="none"/>
    <path d="M241.4 174.15 L243.0 173.8 244.1 173.55 242.8 175.8 Q240.9 179.15 239.7 182.45 L237.5 182.15 Q238.9 178.05 241.4 174.15 M238.85 203.0 L239.65 202.7 241.35 205.55 240.3 206.2 Q239.1 204.75 238.9 203.5 L238.85 203.0 M242.95 208.75 L243.9 207.9 Q248.15 210.5 255.5 207.9 L254.3 209.8 253.35 210.1 248.85 210.7 Q247.45 210.8 245.3 210.0 244.1 209.55 242.95 208.75" fill="#e5c59a" fill-rule="evenodd" stroke="none"/>
    <path d="M240.3 206.2 L241.35 205.55 Q242.4 207.05 243.9 207.9 L242.95 208.75 241.15 207.2 240.3 206.2 M254.3 209.8 L255.5 207.9 258.7 206.65 258.05 208.35 257.5 208.55 254.3 209.8" fill="#b3946d" fill-rule="evenodd" stroke="none"/>
    <path d="M258.05 208.35 L258.7 206.65 261.65 205.2 Q264.1 203.95 266.75 202.2 L269.45 200.05 270.2 202.55 266.75 205.2 Q261.7 208.3 257.35 210.0 L258.05 208.35" fill="#a18562" fill-rule="evenodd" stroke="none"/>
    <path d="M248.35 154.95 L247.65 152.55 Q249.15 151.4 250.45 151.2 L250.4 154.55 249.1 154.6 248.35 154.95 M243.55 159.1 L246.15 158.45 246.15 158.65 Q246.25 160.05 247.0 160.35 L246.35 163.05 245.2 162.65 Q243.45 161.15 243.55 159.1 M241.4 174.15 Q242.45 172.4 243.8 170.75 L247.0 167.05 248.25 166.65 247.25 167.85 Q244.05 171.75 243.0 173.8 L241.4 174.15 M236.5 185.85 L237.75 183.9 237.0 186.1 Q236.75 187.15 236.95 187.2 L237.0 191.05 237.15 195.25 238.1 199.75 238.85 203.0 237.7 203.45 Q236.85 201.3 236.3 198.55 235.25 192.0 236.5 185.85" fill="#feecc5" fill-rule="evenodd" stroke="none"/>
    <path d="M248.35 154.95 Q246.25 156.1 246.15 158.45 L243.55 159.1 Q243.65 157.15 245.45 154.6 L247.65 152.55 248.35 154.95 M247.0 160.35 L247.95 160.45 248.65 161.8 249.7 159.7 Q250.5 158.35 248.75 157.3 L249.65 156.85 Q252.7 156.55 251.65 159.8 249.65 163.75 246.35 163.05 L247.0 160.35" fill="#fef1d6" fill-rule="evenodd" stroke="none"/>
    <path d="M247.95 160.45 Q247.0 158.5 248.75 157.3 250.5 158.35 249.7 159.7 L248.65 161.8 247.95 160.45" fill="#ffffff" fill-rule="evenodd" stroke="none"/>
    <path d="M237.7 203.45 L238.85 203.0 238.9 203.5 Q239.1 204.75 240.3 206.2 L239.4 206.8 Q238.45 205.3 237.7 203.45 M241.95 209.6 L242.95 208.75 Q244.1 209.55 245.3 210.0 247.45 210.8 248.85 210.7 L253.35 210.1 254.3 209.8 253.4 211.25 Q246.25 213.0 241.95 209.6" fill="#eacbae" fill-rule="evenodd" stroke="none"/>
    <path d="M240.3 206.2 L241.15 207.2 242.95 208.75 241.95 209.6 Q240.55 208.5 239.4 206.8 L240.3 206.2 M253.4 211.25 L254.3 209.8 257.5 208.55 258.05 208.35 257.35 210.0 253.4 211.25" fill="#bb9c80" fill-rule="evenodd" stroke="none"/>
    <path d="M246.15 158.45 Q246.25 156.1 248.35 154.95 L249.1 154.6 250.4 154.55 Q252.35 154.85 252.8 157.25 252.35 160.5 247.0 167.05 L243.8 170.75 Q242.45 172.4 241.4 174.15 238.9 178.05 237.5 182.15 236.85 184.0 236.5 185.85 235.25 192.0 236.3 198.55 236.85 201.3 237.7 203.45 238.45 205.3 239.4 206.8 240.55 208.5 241.95 209.6 246.25 213.0 253.4 211.25 L257.35 210.0 Q261.7 208.3 266.75 205.2 L270.2 202.55 M247.65 152.55 L245.45 154.6 Q243.65 157.15 243.55 159.1 243.45 161.15 245.2 162.65 L246.35 163.05 Q249.65 163.75 251.65 159.8 252.7 156.55 249.65 156.85 L248.75 157.3 Q247.0 158.5 247.95 160.45 L247.0 160.35 Q246.25 160.05 246.15 158.65 L246.15 158.45 M250.45 151.2 Q249.15 151.4 247.65 152.55 M244.1 173.55 L246.55 169.85 250.15 166.0 Q254.65 160.7 255.2 157.05 255.6 154.8 254.5 153.15 L253.2 151.85 252.1 151.25 250.45 151.2 M239.7 182.45 Q240.9 179.15 242.8 175.8 L244.1 173.55 M239.65 202.7 Q238.65 200.2 238.15 196.85 237.2 189.75 239.7 182.45 M241.35 205.55 L239.65 202.7 M243.9 207.9 Q242.4 207.05 241.35 205.55 M258.7 206.65 L255.5 207.9 Q248.15 210.5 243.9 207.9 M269.45 200.05 L266.75 202.2 Q264.1 203.95 261.65 205.2 L258.7 206.65" ffdec:has-small-stroke="true" ffdec:original-stroke-width="0.2" fill="none" stroke="#000000" stroke-linecap="round" stroke-linejoin="round" stroke-opacity="0.4" stroke-width="1.0"/>
    <path d="M315.0 180.05 L317.15 177.5 315.75 176.4 314.55 176.1 312.65 176.2 Q310.7 176.7 309.5 178.6 307.5 181.65 307.55 188.6 L308.65 190.4 309.4 191.55 Q309.45 183.1 311.3 180.4 313.25 178.9 315.0 180.05" fill="#fff5e0" fill-rule="evenodd" stroke="none"/>
    <path d="M308.1 199.25 Q308.6 197.05 308.65 192.0 L308.65 190.4 307.55 188.6 307.9 193.9 307.45 198.35 308.1 199.25 M307.0 209.2 L305.0 207.9 Q302.15 215.0 296.7 219.55 294.05 221.75 291.6 222.9 L292.05 223.7 294.85 221.75 298.5 219.1 301.45 216.1 304.1 213.3 304.7 212.45 305.6 210.35 Q305.3 211.85 305.3 212.65 L307.0 209.2" fill="#fee4ab" fill-rule="evenodd" stroke="none"/>
    <path d="M309.15 200.65 L308.1 199.25 307.45 198.35 306.95 200.9 Q306.25 204.65 305.0 207.9 L307.0 209.2 Q308.55 205.25 309.15 200.65 M292.05 223.7 L291.6 222.9 Q289.95 223.65 288.4 223.9 L288.75 225.05 Q290.75 224.8 291.7 223.95 L292.05 223.7 M285.0 225.1 L284.8 223.9 Q279.7 222.9 275.6 216.0 L275.25 218.25 275.85 219.05 278.95 222.6 Q280.1 223.6 282.3 224.5 L285.0 225.1" fill="#e5c59a" fill-rule="evenodd" stroke="none"/>
    <path d="M288.75 225.05 L288.4 223.9 Q286.55 224.25 284.8 223.9 L285.0 225.1 287.45 225.2 288.75 225.05 M273.25 214.55 L273.55 215.1 275.25 218.25 275.6 216.0 273.85 212.85 273.25 214.55" fill="#b3946d" fill-rule="evenodd" stroke="none"/>
    <path d="M272.7 216.25 L273.25 214.55 273.85 212.85 272.5 209.8 270.45 204.1 269.7 200.7 267.45 202.05 268.45 206.3 Q270.4 212.1 272.7 216.25" fill="#a18562" fill-rule="evenodd" stroke="none"/>
    <path d="M316.35 181.75 L318.5 180.4 Q318.05 178.55 317.15 177.5 L315.0 180.05 Q315.45 180.35 315.95 180.95 L316.35 181.75 M317.4 188.05 L315.75 185.8 315.65 185.9 Q314.65 186.9 313.8 186.65 L312.55 189.0 Q313.05 189.35 313.75 189.55 316.15 189.6 317.4 188.05 M309.15 200.65 L309.5 196.45 309.4 191.55 308.65 190.4 308.65 192.0 Q308.6 197.05 308.1 199.25 L309.15 200.65 M305.3 212.65 Q305.3 211.85 305.6 210.35 L304.7 212.45 304.1 213.3 301.45 216.1 298.5 219.1 294.85 221.75 292.05 223.7 292.65 224.8 297.0 222.15 Q302.25 218.05 305.3 212.65" fill="#feecc5" fill-rule="evenodd" stroke="none"/>
    <path d="M316.35 181.75 Q317.25 184.05 315.75 185.8 L317.4 188.05 Q318.65 186.55 318.9 183.4 L318.5 180.4 316.35 181.75 M313.8 186.65 Q313.4 186.55 313.0 186.05 L311.55 186.55 312.05 184.3 Q312.4 182.75 314.45 183.2 L314.05 182.2 Q311.8 179.9 310.45 183.05 309.5 187.25 312.55 189.0 L313.8 186.65" fill="#fef1d6" fill-rule="evenodd" stroke="none"/>
    <path d="M313.0 186.05 Q315.05 185.3 314.45 183.2 312.4 182.75 312.05 184.3 L311.55 186.55 313.0 186.05" fill="#ffffff" fill-rule="evenodd" stroke="none"/>
    <path d="M292.65 224.8 L292.05 223.7 291.7 223.95 Q290.75 224.8 288.75 225.05 L289.1 226.15 292.65 224.8 M285.2 226.45 L285.0 225.1 282.3 224.5 Q280.1 223.6 278.95 222.6 L275.85 219.05 275.25 218.25 275.0 219.9 Q279.6 226.0 285.2 226.45" fill="#eacbae" fill-rule="evenodd" stroke="none"/>
    <path d="M288.75 225.05 L287.45 225.2 285.0 225.1 285.2 226.45 289.1 226.15 288.75 225.05 M275.0 219.9 L275.25 218.25 273.55 215.1 273.25 214.55 272.7 216.25 275.0 219.9" fill="#bb9c80" fill-rule="evenodd" stroke="none"/>
    <path d="M315.75 185.8 Q317.25 184.05 316.35 181.75 L315.95 180.95 Q315.45 180.35 315.0 180.05 313.25 178.9 311.3 180.4 309.45 183.1 309.4 191.55 L309.5 196.45 309.15 200.65 Q308.55 205.25 307.0 209.2 L305.3 212.65 Q302.25 218.05 297.0 222.15 L292.65 224.8 289.1 226.15 285.2 226.45 Q279.6 226.0 275.0 219.9 L272.7 216.25 Q270.4 212.1 268.45 206.3 L267.45 202.05 M318.5 180.4 L318.9 183.4 Q318.65 186.55 317.4 188.05 316.15 189.6 313.75 189.55 313.05 189.35 312.55 189.0 309.5 187.25 310.45 183.05 311.8 179.9 314.05 182.2 L314.45 183.2 Q315.05 185.3 313.0 186.05 313.4 186.55 313.8 186.65 314.65 186.9 315.65 185.9 L315.75 185.8 M317.15 177.5 Q318.05 178.55 318.5 180.4 M307.45 198.35 L307.9 193.9 307.55 188.6 Q307.5 181.65 309.5 178.6 310.7 176.7 312.65 176.2 L314.55 176.1 315.75 176.4 317.15 177.5 M305.0 207.9 Q306.25 204.65 306.95 200.9 L307.45 198.35 M291.6 222.9 Q294.05 221.75 296.7 219.55 302.15 215.0 305.0 207.9 M288.4 223.9 Q289.95 223.65 291.6 222.9 M284.8 223.9 Q286.55 224.25 288.4 223.9 M275.6 216.0 Q279.7 222.9 284.8 223.9 M273.85 212.85 L275.6 216.0 M273.85 212.85 L272.5 209.8 270.45 204.1 269.7 200.7" ffdec:has-small-stroke="true" ffdec:original-stroke-width="0.2" fill="none" stroke="#000000" stroke-linecap="round" stroke-linejoin="round" stroke-opacity="0.4" stroke-width="1.0"/>
    <path d="M307.3 214.15 L307.15 214.15 305.35 214.35 305.7 212.6 Q306.4 207.7 305.6 205.65 305.3 204.85 304.8 204.35 L305.1 201.8 305.8 202.5 Q307.85 204.85 307.85 209.05 307.85 211.65 307.3 214.15 M236.2 191.55 L233.55 190.8 Q234.4 189.5 235.75 188.05 L237.9 186.05 239.2 187.4 Q238.35 188.25 237.45 189.55 L236.2 191.55" fill="#fff5e0" fill-rule="evenodd" stroke="none"/>
    <path d="M305.35 214.35 L307.15 214.15 307.3 214.15 Q306.55 217.3 304.9 220.4 L304.25 221.5 303.85 221.3 301.95 220.3 302.5 219.8 Q304.5 217.9 305.35 214.35 M247.35 193.8 L247.1 193.0 246.85 191.75 Q249.9 190.5 251.6 190.5 252.65 190.5 253.45 191.2 254.25 191.9 254.25 192.75 L254.1 193.65 252.0 193.9 252.0 193.8 Q252.0 192.9 250.5 192.9 249.0 192.9 247.35 193.8 M241.55 194.7 L243.4 195.85 244.0 196.2 242.2 197.95 241.65 198.55 239.8 200.8 241.65 198.55 246.85 197.75 247.25 197.6 247.65 199.1 247.75 199.35 Q244.6 200.55 242.35 200.8 L239.8 200.8 Q238.65 202.45 238.0 204.0 L235.35 203.3 234.75 203.15 234.75 203.1 Q237.3 198.3 240.2 195.75 L241.55 194.7 M233.55 190.8 L236.2 191.55 Q235.15 193.5 235.15 194.7 235.15 195.15 235.7 195.7 L233.15 197.1 233.0 197.2 Q232.0 196.25 232.0 194.65 232.0 193.0 233.55 190.8 M291.65 227.0 L291.85 226.75 292.85 225.4 293.45 224.5 293.5 224.35 Q293.95 223.45 294.6 219.95 L295.05 216.15 296.4 215.7 297.7 215.2 297.75 217.5 Q297.75 220.35 296.9 223.0 L295.55 226.0 294.8 227.2 293.85 228.55 291.65 227.0 M288.9 208.95 L288.75 210.65 288.85 212.4 Q287.65 213.8 285.7 214.45 285.4 214.15 285.4 211.35 285.4 208.95 286.7 206.75 L286.8 206.55 287.25 207.2 288.9 208.95 M290.75 218.15 Q291.75 220.4 293.2 222.0 L291.0 223.1 Q289.4 221.55 288.15 219.55 L290.75 218.15" fill="#e5c59a" fill-rule="evenodd" stroke="none"/>
    <path d="M305.1 201.8 L304.8 204.35 Q304.05 203.6 302.95 203.6 L301.7 203.8 Q301.3 204.05 301.05 204.85 L301.4 204.55 301.85 204.45 Q302.45 204.45 303.0 204.85 303.8 205.4 303.8 206.4 L303.5 208.05 Q302.9 209.2 301.15 209.2 300.35 209.2 299.65 208.2 298.85 207.05 298.85 205.2 298.85 203.6 299.75 202.3 300.85 200.7 302.65 200.7 303.85 200.7 305.1 201.8 M301.95 220.3 L303.85 221.3 304.25 221.5 Q301.75 225.5 298.75 226.2 L298.75 222.35 301.95 220.3 M252.0 193.9 L254.1 193.65 253.25 195.3 251.5 197.55 250.75 195.65 251.7 194.65 252.0 193.9 M239.2 187.4 L237.9 186.05 Q240.65 183.8 243.05 183.8 244.65 183.8 245.55 185.0 246.25 185.9 246.25 187.05 246.25 188.8 244.95 189.95 243.95 190.8 243.0 190.8 241.8 190.8 241.2 190.15 240.7 189.55 240.7 188.6 240.7 187.05 241.7 186.55 L242.9 186.35 Q244.0 186.35 244.15 187.75 L244.25 187.95 Q244.65 187.55 244.65 186.95 244.65 186.3 244.05 185.95 L242.8 185.7 Q241.0 185.7 239.2 187.4" fill="#fee4ab" fill-rule="evenodd" stroke="none"/>
    <path d="M246.85 191.75 L247.1 193.0 247.35 193.8 Q245.75 194.6 244.0 196.2 L243.4 195.85 241.55 194.7 Q243.9 192.9 246.85 191.75 M234.75 203.15 L235.35 203.3 238.0 204.0 Q237.25 205.9 237.25 207.7 237.25 208.95 237.65 210.0 L232.75 211.9 232.65 211.95 Q232.4 210.9 232.4 209.6 232.4 207.5 234.7 203.15 L234.75 203.15 M239.0 217.15 L241.9 214.35 242.4 213.85 246.0 214.25 249.7 213.85 249.1 216.45 249.1 216.5 242.7 217.4 239.0 217.15 M275.4 226.4 L275.65 226.85 Q277.05 229.0 279.35 230.1 L279.2 230.7 278.9 232.65 277.05 231.9 Q275.85 231.2 274.4 229.45 L275.4 226.4 M285.1 231.15 L287.6 230.2 290.45 228.4 291.65 227.0 293.85 228.55 Q290.55 232.5 285.5 233.05 L285.1 231.15 M295.05 216.15 L294.9 213.15 Q294.5 210.15 293.25 208.5 292.0 206.85 291.25 206.75 L289.8 206.8 Q289.15 206.95 288.95 208.2 L288.9 208.95 287.25 207.2 286.8 206.55 Q288.3 204.05 290.65 204.05 293.6 204.05 295.6 207.45 297.35 210.4 297.7 215.2 L296.4 215.7 295.05 216.15" fill="#b3946d" fill-rule="evenodd" stroke="none"/>
    <path d="M233.0 197.2 L233.15 197.1 235.7 195.7 236.05 196.05 236.35 198.85 Q233.95 197.95 233.15 197.35 L233.0 197.2 M247.25 197.6 L248.6 196.85 249.3 198.75 247.75 199.35 247.65 199.1 247.25 197.6 M232.65 211.95 L232.75 211.9 237.65 210.0 Q238.1 211.3 239.2 212.3 240.5 213.35 242.4 213.85 L241.9 214.35 239.0 217.15 Q236.05 216.65 234.45 215.25 233.1 214.05 232.65 211.95 M249.7 213.85 L253.4 212.6 Q256.2 211.4 256.7 210.7 L256.7 210.6 259.0 211.3 Q257.85 212.85 253.25 214.9 L249.1 216.45 249.7 213.85 M269.3 215.65 L272.1 215.65 272.1 215.7 Q273.7 223.5 275.4 226.4 L274.4 229.45 272.65 227.1 Q271.1 224.85 270.05 220.0 269.4 217.3 269.3 215.65 M279.35 230.1 Q281.7 231.15 284.95 231.15 L285.1 231.15 285.5 233.05 283.75 233.15 278.9 232.65 279.2 230.7 279.35 230.1 M292.85 225.4 L292.1 225.05 293.5 224.35 293.45 224.5 292.85 225.4 M296.9 223.0 L298.75 222.35 298.75 226.2 297.5 226.3 296.2 226.15 295.55 226.0 296.9 223.0 M288.15 219.55 L287.0 217.45 289.9 215.75 Q290.25 217.05 290.75 218.15 L288.15 219.55" fill="#a18260" fill-rule="evenodd" stroke="none"/>
    <path d="M307.3 214.15 Q307.85 211.65 307.85 209.05 307.85 204.85 305.8 202.5 L305.1 201.8 Q303.85 200.7 302.65 200.7 300.85 200.7 299.75 202.3 298.85 203.6 298.85 205.2 298.85 207.05 299.65 208.2 300.35 209.2 301.15 209.2 302.9 209.2 303.5 208.05 L303.8 206.4 Q303.8 205.4 303.0 204.85 302.45 204.45 301.85 204.45 L301.4 204.55 301.05 204.85 Q301.3 204.05 301.7 203.8 L302.95 203.6 Q304.05 203.6 304.8 204.35 305.3 204.85 305.6 205.65 306.4 207.7 305.7 212.6 L305.35 214.35 Q304.5 217.9 302.5 219.8 L301.95 220.3 298.75 222.35 296.9 223.0 Q297.75 220.35 297.75 217.5 L297.7 215.2 Q297.35 210.4 295.6 207.45 293.6 204.05 290.65 204.05 288.3 204.05 286.8 206.55 L286.7 206.75 Q285.4 208.95 285.4 211.35 285.4 214.15 285.7 214.45 287.65 213.8 288.85 212.4 L288.75 210.65 288.9 208.95 288.95 208.2 Q289.15 206.95 289.8 206.8 L291.25 206.75 Q292.0 206.85 293.25 208.5 294.5 210.15 294.9 213.15 L295.05 216.15 294.6 219.95 Q293.95 223.45 293.5 224.35 L292.1 225.05 292.85 225.4 293.45 224.5 293.5 224.35 M304.25 221.5 L304.9 220.4 Q306.55 217.3 307.3 214.15 M247.35 193.8 Q249.0 192.9 250.5 192.9 252.0 192.9 252.0 193.8 L252.0 193.9 251.7 194.65 250.75 195.65 251.5 197.55 253.25 195.3 254.1 193.65 254.25 192.75 Q254.25 191.9 253.45 191.2 252.65 190.5 251.6 190.5 249.9 190.5 246.85 191.75 243.9 192.9 241.55 194.7 L240.2 195.75 Q237.3 198.3 234.75 203.1 L234.7 203.15 Q232.4 207.5 232.4 209.6 232.4 210.9 232.65 211.95 233.1 214.05 234.45 215.25 236.05 216.65 239.0 217.15 L242.7 217.4 249.1 216.5 249.1 216.45 253.25 214.9 Q257.85 212.85 259.0 211.3 L256.7 210.6 256.7 210.7 Q256.2 211.4 253.4 212.6 L249.7 213.85 246.0 214.25 242.4 213.85 Q240.5 213.35 239.2 212.3 238.1 211.3 237.65 210.0 237.25 208.95 237.25 207.7 237.25 205.9 238.0 204.0 238.65 202.45 239.8 200.8 L241.65 198.55 246.85 197.75 247.25 197.6 248.6 196.85 249.3 198.75 247.75 199.35 Q244.6 200.55 242.35 200.8 L239.8 200.8 M244.0 196.2 Q245.75 194.6 247.35 193.8 M236.2 191.55 L237.45 189.55 Q238.35 188.25 239.2 187.4 241.0 185.7 242.8 185.7 L244.05 185.95 Q244.65 186.3 244.65 186.95 244.65 187.55 244.25 187.95 L244.15 187.75 Q244.0 186.35 242.9 186.35 L241.7 186.55 Q240.7 187.05 240.7 188.6 240.7 189.55 241.2 190.15 241.8 190.8 243.0 190.8 243.95 190.8 244.95 189.95 246.25 188.8 246.25 187.05 246.25 185.9 245.55 185.0 244.65 183.8 243.05 183.8 240.65 183.8 237.9 186.05 L235.75 188.05 Q234.4 189.5 233.55 190.8 232.0 193.0 232.0 194.65 232.0 196.25 233.0 197.2 L233.15 197.35 Q233.95 197.95 236.35 198.85 L236.05 196.05 235.7 195.7 Q235.15 195.15 235.15 194.7 235.15 193.5 236.2 191.55 M241.65 198.55 L242.2 197.95 244.0 196.2 M269.3 215.65 L272.1 215.65 272.1 215.7 Q273.7 223.5 275.4 226.4 L275.65 226.85 Q277.05 229.0 279.35 230.1 281.7 231.15 284.95 231.15 L285.1 231.15 287.6 230.2 290.45 228.4 291.65 227.0 291.85 226.75 292.85 225.4 M268.6 215.65 L269.3 215.65 269.3 214.25 M288.15 219.55 L287.0 217.45 289.9 215.75 Q290.25 217.05 290.75 218.15 291.75 220.4 293.2 222.0 L291.0 223.1 Q289.4 221.55 288.15 219.55 M295.55 226.0 L296.2 226.15 297.5 226.3 298.75 226.2 Q301.75 225.5 304.25 221.5 M293.85 228.55 L294.8 227.2 295.55 226.0 296.9 223.0 M293.85 228.55 Q290.55 232.5 285.5 233.05 L283.75 233.15 278.9 232.65 277.05 231.9 Q275.85 231.2 274.4 229.45 L272.65 227.1 Q271.1 224.85 270.05 220.0 269.4 217.3 269.3 215.65" ffdec:has-small-stroke="true" ffdec:original-stroke-width="0.2" fill="none" stroke="#000000" stroke-linecap="round" stroke-linejoin="round" stroke-opacity="0.3882353" stroke-width="1.0"/>
  </g>
</svg>
