<?xml version="1.0" encoding="UTF-8" standalone="no"?>
<svg xmlns:ffdec="https://www.free-decompiler.com/flash" xmlns:xlink="http://www.w3.org/1999/xlink" ffdec:objectType="shape" height="133.75px" width="140.5px" xmlns="http://www.w3.org/2000/svg">
  <g transform="matrix(1.0, 0.0, 0.0, 1.0, -163.75, -209.15)">
    <path d="M206.85 256.8 L208.15 257.15 206.85 256.85 206.85 256.8" fill="#000000" fill-rule="evenodd" stroke="none"/>
    <path d="M265.75 315.2 Q295.05 320.75 295.9 322.55 L296.1 322.55 Q297.05 322.7 298.05 323.35 304.0 326.8 304.0 331.3 303.95 333.1 303.05 335.2 L302.75 335.8 Q298.85 340.0 294.75 339.9 291.05 339.85 287.35 336.5 L286.8 333.15 Q281.4 329.1 275.15 332.65 L276.5 333.55 Q277.5 334.2 277.95 335.1 278.35 336.15 277.7 337.25 271.1 342.65 263.25 342.65 257.15 342.6 250.45 339.4 L253.3 336.55 Q245.5 337.15 233.2 339.2 219.0 341.55 209.3 339.5 204.1 337.7 197.55 333.05 199.2 331.3 201.05 330.0 204.3 327.8 207.55 326.1 201.7 324.75 196.0 322.65 L194.75 322.25 Q188.05 319.9 186.35 313.35 188.45 311.3 191.05 309.9 198.0 305.9 208.2 306.65 L214.1 307.1 215.05 308.15 212.15 316.5 215.75 317.8 223.4 320.6 231.4 323.55 236.4 325.4 238.75 326.25 239.85 326.75 240.05 326.75 Q240.5 327.2 240.25 328.25 L237.6 328.8 Q235.05 329.35 232.45 330.3 236.7 334.55 242.4 331.65 246.95 329.25 251.4 328.9 L251.75 331.0 260.65 334.25 261.25 333.9 262.65 329.7 263.6 329.25 263.45 329.15 263.7 327.3 263.8 326.9 263.85 326.85 270.1 327.75 271.25 327.95 272.1 328.05 273.45 328.15 274.95 327.15 275.4 326.75 Q280.1 326.4 283.25 323.25 280.25 320.9 276.5 320.3 L275.8 319.7 Q272.75 319.15 270.9 320.6 L271.1 320.9 271.1 321.0 270.1 320.85 272.45 319.75 269.95 316.8 265.2 318.35 265.75 315.2 M164.15 328.25 Q165.25 327.55 166.5 328.05 171.4 328.7 172.1 331.35 171.75 331.9 171.75 332.55 171.55 333.65 169.95 334.2 L167.05 334.4 164.15 332.95 Q163.95 332.45 164.0 331.95 164.15 330.45 164.9 329.6 L164.15 328.25 M295.9 329.4 L296.15 330.1 296.35 330.5 296.35 331.0 296.1 331.3 291.2 331.75 290.95 332.15 290.75 332.35 290.75 332.75 Q291.0 334.0 291.85 334.3 296.55 335.95 300.85 333.55 L300.85 333.35 Q301.2 329.55 298.8 329.0 L295.9 329.3 295.9 329.4" fill="#ff3300" fill-rule="evenodd" stroke="none"/>
    <path d="M251.4 328.9 Q246.95 329.25 242.4 331.65 236.7 334.55 232.45 330.3 235.05 329.35 237.6 328.8 L240.25 328.25 Q240.5 327.2 240.05 326.75 L239.85 326.75 238.75 326.25 240.05 326.75 240.1 326.75 246.0 328.9 Q248.25 326.7 251.1 324.95 L251.3 324.7 Q251.1 326.4 251.4 328.9 M295.9 329.4 L295.9 329.3 298.8 329.0 Q301.2 329.55 300.85 333.35 L300.85 333.55 Q296.55 335.95 291.85 334.3 291.0 334.0 290.75 332.75 L290.75 332.35 290.95 332.15 291.2 331.75 296.1 331.3 296.35 331.0 296.35 330.5 296.15 330.1 295.9 329.4 M270.1 320.85 L271.1 321.0 271.1 320.9 270.9 320.6 Q272.75 319.15 275.8 319.7 L276.5 320.3 Q280.25 320.9 283.25 323.25 280.1 326.4 275.4 326.75 L274.95 327.15 273.45 328.15 272.1 328.05 271.25 327.95 270.1 327.75 263.85 326.85 263.8 326.9 263.85 326.7 267.4 325.75 266.9 322.35 270.1 320.85" fill="#e02c00" fill-rule="evenodd" stroke="none"/>
    <path d="M245.5 270.2 L247.85 264.5 Q252.15 261.9 256.8 262.25 L254.35 268.25 Q248.9 267.9 245.5 270.2 M252.15 253.2 Q257.0 239.55 260.95 224.15 L259.35 249.5 Q255.6 249.75 252.15 253.2" fill="#b09c7d" fill-rule="evenodd" stroke="none"/>
    <path d="M235.7 290.15 Q240.9 280.8 245.5 270.2 248.9 267.9 254.35 268.25 L246.4 287.45 250.1 287.2 248.85 293.45 249.25 293.85 244.65 299.2 242.8 297.5 239.5 294.3 240.65 292.35 240.5 292.3 235.7 290.15 M247.85 264.5 L252.15 253.2 Q255.6 249.75 259.35 249.5 L258.85 257.3 256.8 262.25 Q252.15 261.9 247.85 264.5 M261.25 306.7 L261.6 305.6 255.2 306.4 259.45 300.9 260.85 300.55 264.05 304.85 261.25 306.7" fill="#0d1417" fill-rule="evenodd" stroke="none"/>
    <path d="M272.2 257.35 Q272.6 264.3 272.45 270.8 L259.85 262.8 256.8 262.25 258.85 257.3 259.35 249.5 261.8 249.7 261.85 249.65 272.2 257.35 M271.9 280.85 Q271.25 287.85 269.85 294.25 L269.55 295.7 265.9 292.35 265.85 292.4 256.9 295.3 252.35 290.25 249.25 293.85 248.85 293.45 250.1 287.2 246.4 287.45 254.35 268.25 258.0 268.7 271.9 280.85 M268.9 298.65 L267.8 304.35 265.75 315.2 265.2 318.35 261.1 319.65 Q261.1 317.15 260.4 314.95 L260.4 314.8 264.8 312.9 259.6 311.5 261.25 306.7 264.05 304.85 260.85 300.55 268.9 298.65 M263.45 329.15 L261.2 327.35 263.85 326.7 263.8 326.9 263.7 327.3 263.45 329.15" fill="#283f44" fill-rule="evenodd" stroke="none"/>
    <path d="M260.95 224.15 L261.45 222.25 264.55 209.25 Q270.95 235.7 272.2 257.35 L261.85 249.65 261.8 249.7 259.35 249.5 260.95 224.15 M272.45 270.8 Q272.35 275.95 271.9 280.85 L258.0 268.7 254.35 268.25 256.8 262.25 259.85 262.8 272.45 270.8 M229.75 290.6 L230.05 290.75 229.95 290.8 229.9 290.8 229.75 290.6 M237.9 305.1 L237.9 307.35 236.9 302.95 237.7 302.8 237.9 305.1 M232.45 322.8 L231.85 321.65 235.4 322.3 232.85 323.15 232.45 322.8 M239.35 321.0 L237.4 321.6 237.5 319.75 239.35 321.0 M242.65 315.8 L249.0 316.65 244.8 320.0 242.65 315.8" fill="#f5eec5" fill-rule="evenodd" stroke="none"/>
    <path d="M269.55 295.7 L272.0 297.95 268.9 298.65 260.85 300.55 259.45 300.9 255.2 306.4 261.6 305.6 261.25 306.7 259.6 311.5 258.8 313.75 248.0 311.95 242.5 315.8 240.55 315.45 242.5 315.8 242.65 315.8 244.8 320.0 244.8 320.05 241.65 322.55 239.65 321.15 241.65 322.55 244.8 320.05 249.8 321.05 249.0 316.65 256.35 315.45 261.1 319.65 265.2 318.35 269.95 316.8 272.45 319.75 270.1 320.85 266.9 322.35 267.4 325.75 263.85 326.7 261.2 327.35 263.45 329.15 263.6 329.25 262.65 329.7 261.25 333.9 260.65 334.25 251.75 331.0 251.4 328.9 Q251.1 326.4 251.3 324.7 L251.1 324.95 Q248.25 326.7 246.0 328.9 L240.1 326.75 240.05 326.75 238.75 326.25 236.4 325.4 239.65 321.15 239.35 321.0 237.5 319.75 234.25 317.6 237.5 319.75 237.4 321.6 235.4 322.3 231.85 321.65 230.05 318.1 229.0 319.25 225.85 318.0 229.15 308.7 225.85 305.05 226.75 304.7 227.15 305.15 236.9 302.95 237.9 307.35 237.9 305.1 243.2 303.2 242.8 297.5 244.65 299.2 249.25 293.85 252.35 290.25 256.9 295.3 265.85 292.4 265.9 292.35 269.55 295.7 M225.95 285.6 L226.35 285.5 226.35 285.55 225.95 285.6 M254.55 295.85 L256.9 295.3 254.55 295.85 M232.4 309.95 L227.15 305.15 232.4 309.95 M227.35 292.5 L227.45 292.45 227.5 292.5 227.35 292.5 M228.25 314.55 L230.05 318.1 228.25 314.55 M248.75 307.1 L255.2 306.4 248.75 307.1 M259.35 327.55 L261.2 327.35 259.35 327.55 M258.25 320.6 L261.1 319.65 258.25 320.6 M259.45 300.9 L252.65 302.5 259.45 300.9 M257.25 322.15 L266.8 321.0 266.9 322.35 266.8 321.0 257.25 322.15" fill="#fbf3d9" fill-rule="evenodd" stroke="none"/>
    <path d="M213.55 303.85 L213.0 302.3 219.05 300.95 213.5 296.55 215.55 294.25 225.7 297.0 224.2 293.45 219.6 293.7 219.95 290.4 220.1 290.4 219.95 290.35 220.05 289.35 222.8 286.3 225.85 285.6 225.95 285.6 226.35 285.55 229.75 290.6 229.9 290.8 229.95 290.8 230.05 290.75 233.8 289.3 235.7 290.15 240.5 292.3 240.65 292.35 239.5 294.3 237.95 292.85 228.5 293.7 229.2 302.65 223.35 304.75 222.4 300.6 213.55 303.85 M227.35 292.5 L227.5 292.5 227.45 292.45 227.35 292.5 M226.3 292.8 L227.15 291.9 229.95 290.8 227.15 291.9 226.3 292.8 M231.4 323.55 L232.45 322.8 232.85 323.15 235.4 322.3 237.4 321.6 239.35 321.0 239.65 321.15 236.4 325.4 231.4 323.55 M242.5 315.8 L248.0 311.95 258.8 313.75 259.6 311.5 264.8 312.9 260.4 314.8 260.4 314.95 Q261.1 317.15 261.1 319.65 L256.35 315.45 249.0 316.65 242.65 315.8 242.5 315.8 M244.8 320.05 L244.8 320.0 249.0 316.65 249.8 321.05 244.8 320.05" fill="#d7c59b" fill-rule="evenodd" stroke="none"/>
    <path d="M214.1 307.1 L211.8 304.5 213.55 303.85 222.4 300.6 223.35 304.75 229.2 302.65 228.5 293.7 237.95 292.85 239.5 294.3 242.8 297.5 243.2 303.2 237.9 305.1 237.7 302.8 236.9 302.95 227.15 305.15 226.75 304.7 225.85 305.05 229.15 308.7 225.85 318.0 229.0 319.25 230.05 318.1 231.85 321.65 232.45 322.8 231.4 323.55 223.4 320.6 215.75 317.8 212.15 316.5 215.05 308.15 214.1 307.1 M224.15 308.0 L223.35 304.75 224.15 308.0 M223.4 320.6 L223.45 318.15 223.4 320.6 M215.05 308.15 L218.45 311.8 215.05 308.15 M217.95 315.25 L215.75 317.8 217.95 315.25" fill="#e1cfa8" fill-rule="evenodd" stroke="none"/>
    <path d="M296.1 322.55 Q297.05 322.7 298.05 323.35 304.0 326.8 304.0 331.3 303.95 333.1 303.05 335.2 L302.75 335.8 Q298.85 340.0 294.75 339.9 291.05 339.85 287.35 336.5 L286.8 333.15 Q281.4 329.1 275.15 332.65 L276.5 333.55 Q277.5 334.2 277.95 335.1 278.35 336.15 277.7 337.25 271.1 342.65 263.25 342.65 257.15 342.6 250.45 339.4 L253.3 336.55 Q245.5 337.15 233.2 339.2 219.0 341.55 209.3 339.5 204.1 337.7 197.55 333.05 199.2 331.3 201.05 330.0 204.3 327.8 207.55 326.1 201.7 324.75 196.0 322.65 L194.75 322.25 Q188.05 319.9 186.35 313.35 188.45 311.3 191.05 309.9 198.0 305.9 208.2 306.65 L214.1 307.1 M164.15 328.25 L164.9 329.6 Q164.15 330.45 164.0 331.95 163.95 332.45 164.15 332.95 L167.05 334.4 169.95 334.2 Q171.55 333.65 171.75 332.55 171.75 331.9 172.1 331.35 171.4 328.7 166.5 328.05 165.25 327.55 164.15 328.25" ffdec:has-small-stroke="true" ffdec:original-stroke-width="0.5" fill="none" stroke="#5a451b" stroke-linecap="round" stroke-linejoin="round" stroke-width="1.0"/>
    <path d="M260.95 224.15 L261.45 222.25 264.55 209.25 Q270.95 235.7 272.2 257.35 272.6 264.3 272.45 270.8 272.35 275.95 271.9 280.85 271.25 287.85 269.85 294.25 L269.55 295.7 M268.9 298.65 L267.8 304.35 265.75 315.2 265.2 318.35 M235.7 290.15 Q240.9 280.8 245.5 270.2 L247.85 264.5 252.15 253.2 Q257.0 239.55 260.95 224.15" ffdec:has-small-stroke="true" ffdec:original-stroke-width="0.25" fill="none" stroke="#280f06" stroke-linecap="round" stroke-linejoin="round" stroke-opacity="0.5019608" stroke-width="1.0"/>
    <path d="M269.55 295.7 L272.0 297.95 268.9 298.65 260.85 300.55 259.45 300.9 255.2 306.4 248.75 307.1 M222.8 286.3 L225.85 285.6 M225.95 285.6 L226.35 285.5 226.35 285.55 229.75 290.6 230.05 290.75 233.8 289.3 235.7 290.15 240.5 292.3 240.65 292.35 239.5 294.3 242.8 297.5 244.65 299.2 249.25 293.85 252.35 290.25 256.9 295.3 265.85 292.4 265.9 292.35 269.55 295.7 M256.9 295.3 L254.55 295.85 M237.9 305.1 L237.9 307.35 M236.9 302.95 L227.15 305.15 232.4 309.95 M229.75 290.6 L229.9 290.8 229.95 290.8 230.05 290.75 M229.95 290.8 L227.15 291.9 226.3 292.8 M239.5 294.3 L237.95 292.85 228.5 293.7 229.2 302.65 223.35 304.75 224.15 308.0 M236.9 302.95 L237.7 302.8 237.9 305.1 M223.45 318.15 L223.4 320.6 M231.4 323.55 L232.45 322.8 231.85 321.65 230.05 318.1 228.25 314.55 M237.5 319.75 L234.25 317.6 M240.55 315.45 L242.5 315.8 248.0 311.95 258.8 313.75 259.6 311.5 261.25 306.7 261.6 305.6 255.2 306.4 M239.65 321.15 L239.35 321.0 237.4 321.6 235.4 322.3 232.85 323.15 232.45 322.8 M239.35 321.0 L237.5 319.75 M242.5 315.8 L242.65 315.8 249.0 316.65 244.8 320.0 244.8 320.05 241.65 322.55 239.65 321.15 M260.4 314.95 L260.4 314.8 264.8 312.9 259.6 311.5 M213.55 303.85 L222.4 300.6 223.35 304.75 M215.75 317.8 L217.95 315.25 M218.45 311.8 L215.05 308.15 M263.45 329.15 L261.2 327.35 259.35 327.55 M270.1 320.85 L272.45 319.75 269.95 316.8 265.2 318.35 261.1 319.65 258.25 320.6 M252.65 302.5 L259.45 300.9 M263.85 326.7 L267.4 325.75 266.9 322.35 266.8 321.0 257.25 322.15 M263.85 326.7 L261.2 327.35 M266.9 322.35 L270.1 320.85" ffdec:has-small-stroke="true" ffdec:original-stroke-width="0.25" fill="none" stroke="#6f6135" stroke-linecap="round" stroke-linejoin="round" stroke-width="1.0"/>
    <path d="M263.8 326.9 L263.7 327.3 263.45 329.15 M263.8 326.9 L263.85 326.7" fill="none" stroke="#262015" stroke-linecap="round" stroke-linejoin="round" stroke-width="3.0"/>
  </g>
</svg>
