<?xml version="1.0" encoding="UTF-8" standalone="no"?>
<svg xmlns:ffdec="https://www.free-decompiler.com/flash" xmlns:xlink="http://www.w3.org/1999/xlink" ffdec:objectType="shape" height="138.55px" width="130.35px" xmlns="http://www.w3.org/2000/svg">
  <g transform="matrix(1.0, 0.0, 0.0, 1.0, -185.9, -169.9)">
    <path d="M288.9 212.3 L288.9 212.0 289.55 212.15 288.9 212.3" fill="#ebebeb" fill-rule="evenodd" stroke="none"/>
    <path d="M214.9 273.3 L214.9 273.7 Q214.9 278.7 212.7 282.2 L211.1 284.2 211.75 275.5 211.85 273.75 211.85 273.5 211.8 272.45 Q211.55 270.25 210.5 268.6 209.15 266.5 207.3 266.5 205.35 266.5 204.05 268.6 203.2 269.9 202.9 271.5 L202.7 273.35 202.1 282.25 201.9 282.2 Q199.65 278.7 199.65 273.7 199.65 271.75 200.0 270.0 200.5 267.3 201.9 265.2 204.1 261.65 207.3 261.65 210.45 261.65 212.7 265.2 214.8 268.55 214.9 273.3 M208.15 265.35 L206.55 263.75 Q202.5 263.2 201.7 267.2 L203.1 268.8 Q204.0 264.25 208.15 265.35" fill="#edd85c" fill-rule="evenodd" stroke="none"/>
    <path d="M208.15 265.35 Q204.0 264.25 203.1 268.8 L201.7 267.2 Q202.5 263.2 206.55 263.75 L208.15 265.35" fill="#ffffff" fill-rule="evenodd" stroke="none"/>
    <path d="M203.85 293.8 L185.9 287.95 187.8 256.1 186.35 248.8 188.75 216.35 Q192.3 186.85 233.3 184.5 L233.55 184.5 236.25 185.3 239.0 176.95 Q243.45 168.75 253.75 170.1 260.35 171.45 263.6 174.5 258.4 173.3 254.9 173.75 248.6 174.6 247.85 180.9 L246.05 188.25 246.1 188.25 269.45 195.3 270.05 195.45 272.9 186.8 273.4 185.95 Q277.9 178.7 287.65 179.95 293.6 180.85 297.5 184.35 292.3 183.15 288.8 183.6 282.5 184.45 281.75 190.75 L279.9 198.4 279.5 198.3 279.65 198.8 270.5 198.4 268.45 198.65 268.4 198.7 Q263.65 200.8 259.6 204.35 253.85 209.45 249.65 217.55 L249.5 217.55 249.5 217.8 Q246.9 222.9 244.85 229.15 L244.0 258.15 217.7 272.65 214.9 273.3 Q214.8 268.55 212.7 265.2 210.45 261.65 207.3 261.65 204.1 261.65 201.9 265.2 200.5 267.3 200.0 270.0 L195.15 267.05 187.8 256.1 195.15 267.05 200.0 270.0 Q199.65 271.75 199.65 273.7 199.65 278.7 201.9 282.2 L202.05 282.5 201.6 289.7 201.75 289.7 204.0 290.4 203.85 293.8 M296.45 278.1 L297.95 290.95 284.95 286.9 284.85 286.85 278.25 214.65 288.9 212.3 295.85 272.8 296.45 278.1 M246.05 188.25 L236.25 185.3 246.05 188.25 M253.65 217.35 L270.0 216.35 270.0 216.45 274.85 292.95 274.5 293.2 256.7 295.5 256.6 295.7 253.65 217.35 M249.15 261.05 L248.85 303.85 248.3 308.25 213.75 297.0 214.0 288.4 218.6 276.5 249.15 261.05 M211.1 284.2 L210.5 292.35 204.0 290.4 201.75 289.7 201.6 289.7 202.05 282.5 202.1 282.25 202.7 273.35 202.9 271.5 Q203.2 269.9 204.05 268.6 205.35 266.5 207.3 266.5 209.15 266.5 210.5 268.6 211.55 270.25 211.8 272.45 L211.85 273.75 211.75 275.5 211.1 284.2 M200.85 254.75 Q204.9 269.25 195.2 257.95 204.9 269.25 200.85 254.75 M220.95 262.85 Q211.05 270.5 218.5 257.95 211.05 270.5 220.95 262.85 M233.3 212.85 Q212.55 216.25 201.55 204.05 212.55 216.25 233.3 212.85 M279.5 198.3 L270.05 195.45 279.5 198.3" fill="#b53c2b" fill-rule="evenodd" stroke="none"/>
    <path d="M312.9 206.7 Q316.6 216.7 316.2 228.15 316.65 244.65 305.85 273.35 302.95 279.2 296.45 278.1 L295.85 272.8 296.35 271.85 Q307.15 243.15 306.7 226.65 307.15 213.5 302.2 202.25 L312.9 206.7 M249.65 217.55 L253.65 217.35 256.6 295.7 248.8 308.4 256.6 295.7 256.7 295.5 274.5 293.2 274.85 292.95 284.2 286.65 284.85 286.85 284.95 286.9 297.95 290.95 297.95 291.1 248.85 308.45 248.8 308.4 248.3 308.25 248.85 303.85 249.15 261.05 249.5 217.8 249.15 261.05 218.6 276.5 214.0 288.4 213.75 297.0 203.85 293.8 204.0 290.4 210.5 292.35 211.1 284.2 212.7 282.2 Q214.9 278.7 214.9 273.7 L214.9 273.3 217.7 272.65 244.0 258.15 244.85 229.15 Q246.9 222.9 249.5 217.8 L249.65 217.55 M270.0 216.45 L278.25 214.65 284.85 286.85 284.2 286.65 274.85 292.95 270.0 216.45" fill="#862d20" fill-rule="evenodd" stroke="none"/>
    <path d="M263.6 174.5 Q269.4 179.9 273.4 185.95 L272.9 186.8 270.05 195.45 269.45 195.3 Q265.05 183.5 254.9 173.75 258.4 173.3 263.6 174.5 M297.5 184.35 Q308.3 194.45 312.9 206.7 L302.2 202.25 Q297.7 192.15 288.8 183.6 292.3 183.15 297.5 184.35 M288.9 212.0 L259.6 204.35 Q263.65 200.8 268.4 198.7 L268.45 198.65 270.5 198.4 279.65 198.8 279.75 198.85 280.75 199.15 Q285.75 200.85 288.15 205.55 L288.9 212.0" fill="#76281d" fill-rule="evenodd" stroke="none"/>
    <path d="M288.9 212.0 L288.9 212.3 278.25 214.65 270.0 216.45 270.0 216.35 253.65 217.35 249.65 217.55 Q253.85 209.45 259.6 204.35 L288.9 212.0" fill="#5e2017" fill-rule="evenodd" stroke="none"/>
    <path d="M203.85 293.8 L185.9 287.95 187.8 256.1 186.35 248.8 188.75 216.35 Q192.3 186.85 233.3 184.5 L233.55 184.5 236.25 185.3 239.0 176.95 Q243.45 168.75 253.75 170.1 260.35 171.45 263.6 174.5 269.4 179.9 273.4 185.95 277.9 178.7 287.65 179.95 293.6 180.85 297.5 184.35 308.3 194.45 312.9 206.7 316.6 216.7 316.2 228.15 316.65 244.65 305.85 273.35 302.95 279.2 296.45 278.1 L297.95 290.95 298.45 291.1 M254.9 173.75 Q248.6 174.6 247.85 180.9 L246.05 188.25 246.1 188.25 269.45 195.3 Q265.05 183.5 254.9 173.75 258.4 173.3 263.6 174.5 M269.45 195.3 L270.05 195.45 272.9 186.8 273.4 185.95 M288.8 183.6 Q292.3 183.15 297.5 184.35 M279.5 198.3 L279.9 198.4 281.75 190.75 Q282.5 184.45 288.8 183.6 297.7 192.15 302.2 202.25 307.15 213.5 306.7 226.65 307.15 243.15 296.35 271.85 L295.85 272.8 296.45 278.1 M236.25 185.3 L246.05 188.25 M288.9 212.0 L288.9 212.3 295.85 272.8 M288.9 212.0 L259.6 204.35 Q253.85 209.45 249.65 217.55 L253.65 217.35 270.0 216.35 270.0 216.45 278.25 214.65 288.9 212.3 M288.9 212.0 L288.15 205.55 Q285.75 200.85 280.75 199.15 L279.75 198.85 279.65 198.8 270.5 198.4 268.45 198.65 268.4 198.7 Q263.65 200.8 259.6 204.35 M279.5 198.3 L279.65 198.8 M279.9 198.4 L280.75 199.15 M279.75 198.85 L279.9 198.4 M249.65 217.55 L249.5 217.8 249.15 261.05 248.85 303.85 248.3 308.25 248.8 308.4 256.6 295.7 256.7 295.5 274.5 293.2 274.85 292.95 284.2 286.65 284.85 286.85 M249.5 217.8 L249.5 217.55 249.65 217.55 M249.5 217.8 Q246.9 222.9 244.85 229.15 L244.0 258.15 217.7 272.65 214.9 273.3 214.9 273.7 Q214.9 278.7 212.7 282.2 L211.1 284.2 210.5 292.35 204.0 290.4 201.75 289.7 201.6 289.7 202.05 282.5 201.9 282.2 Q199.65 278.7 199.65 273.7 199.65 271.75 200.0 270.0 L195.15 267.05 187.8 256.1 M203.85 293.8 L213.75 297.0 248.3 308.25 M284.95 286.9 L297.95 290.95 297.95 291.1 248.85 308.45 248.8 308.4 M270.0 216.45 L274.85 292.95 M195.2 257.95 Q204.9 269.25 200.85 254.75 M200.0 270.0 Q200.5 267.3 201.9 265.2 204.1 261.65 207.3 261.65 210.45 261.65 212.7 265.2 214.8 268.55 214.9 273.3 M202.1 282.25 L202.7 273.35 202.9 271.5 Q203.2 269.9 204.05 268.6 205.35 266.5 207.3 266.5 209.15 266.5 210.5 268.6 211.55 270.25 211.8 272.45 L211.85 273.5 211.85 273.75 211.75 275.5 211.1 284.2 M202.1 282.25 L202.05 282.5 M218.5 257.95 Q211.05 270.5 220.95 262.85 M211.8 272.45 L211.85 273.75 M201.55 204.05 Q212.55 216.25 233.3 212.85 M270.05 195.45 L279.5 198.3" ffdec:has-small-stroke="true" ffdec:original-stroke-width="0.05" fill="none" stroke="#000000" stroke-linecap="round" stroke-linejoin="round" stroke-opacity="0.6" stroke-width="1.0"/>
  </g>
</svg>
