<?xml version="1.0" encoding="UTF-8" standalone="no"?>
<svg xmlns:ffdec="https://www.free-decompiler.com/flash" xmlns:xlink="http://www.w3.org/1999/xlink" ffdec:objectType="shape" height="65.75px" width="62.85px" xmlns="http://www.w3.org/2000/svg">
  <g transform="matrix(1.0, 0.0, 0.0, 1.0, 0.0, 0.0)">
    <path d="M32.65 1.2 Q36.65 -0.35 42.4 0.1 L44.75 0.05 Q50.55 0.2 54.5 2.95 56.35 4.2 57.75 6.1 L59.5 16.85 58.0 20.55 57.45 20.0 Q58.35 18.45 58.35 16.45 L58.35 16.35 58.25 15.05 58.1 14.3 58.1 14.25 57.05 12.15 56.25 11.3 56.25 7.0 52.5 4.8 Q50.85 3.4 45.35 2.75 47.55 7.25 46.15 10.1 45.0 -0.35 31.7 3.75 29.0 3.7 31.85 1.75 L32.65 1.2" fill="url(#gradient0)" fill-rule="evenodd" stroke="none"/>
    <path d="M58.0 20.55 L57.2 22.45 56.5 22.85 55.4 23.35 Q50.75 24.7 45.55 25.1 L42.2 25.25 41.6 24.95 43.2 22.85 44.0 22.15 44.8 21.2 45.3 20.25 Q45.75 19.2 45.75 17.95 45.75 15.5 44.0 13.75 L43.35 13.2 43.1 13.0 Q41.65 12.0 39.8 12.0 38.4 12.0 37.25 12.6 36.35 13.0 35.6 13.75 L34.95 14.5 Q34.4 10.7 32.45 8.7 30.35 5.35 27.1 7.2 L24.6 9.6 Q26.7 3.8 31.85 1.55 L31.85 1.75 Q29.0 3.7 31.7 3.75 45.0 -0.35 46.15 10.1 47.55 7.25 45.35 2.75 50.85 3.4 52.5 4.8 L56.25 7.0 56.25 11.3 Q55.2 10.45 53.9 10.45 52.75 10.45 51.85 11.1 L50.75 12.15 Q49.45 13.9 49.75 15.3 50.05 16.7 50.5 17.45 L51.65 19.6 52.7 21.2 Q52.9 21.75 53.65 22.0 L54.1 22.1 54.4 22.15 55.4 21.95 55.95 21.65 57.05 20.5 57.1 20.45 57.45 20.0 58.0 20.55" fill="url(#gradient1)" fill-rule="evenodd" stroke="none"/>
    <path d="M56.25 11.3 L57.05 12.15 58.1 14.25 52.3 19.05 Q49.7 14.85 51.85 11.1 52.75 10.45 53.9 10.45 55.2 10.45 56.25 11.3 M58.1 14.3 L58.25 15.05 58.35 16.35 58.35 16.45 Q58.35 18.45 57.45 20.0 L57.1 20.45 57.05 20.5 55.95 21.65 55.4 21.95 55.1 21.85 54.1 21.25 Q53.3 20.65 52.65 19.6 L56.85 16.05 58.1 14.3 M37.25 12.6 Q38.4 12.0 39.8 12.0 41.65 12.0 43.1 13.0 L43.35 13.2 44.0 13.75 Q45.75 15.5 45.75 17.95 45.75 19.2 45.3 20.25 L44.8 21.2 42.45 22.05 Q36.65 23.65 35.55 19.6 35.3 18.75 35.3 17.6 L43.3 20.4 45.3 20.25 35.3 16.9 Q35.3 14.3 37.25 12.6" fill="#fee041" fill-rule="evenodd" stroke="none"/>
    <path d="M58.1 14.25 L58.1 14.3 56.85 16.05 52.65 19.6 Q53.3 20.65 54.1 21.25 L55.1 21.85 55.4 21.95 54.4 22.15 54.1 22.1 53.65 22.0 Q52.9 21.75 52.7 21.2 L51.65 19.6 50.5 17.45 Q50.05 16.7 49.75 15.3 49.45 13.9 50.75 12.15 L51.85 11.1 Q49.7 14.85 52.3 19.05 L58.1 14.25 M44.8 21.2 L44.0 22.15 43.2 22.85 42.3 23.4 39.8 23.9 Q37.35 23.9 35.6 22.15 34.85 21.4 34.45 20.55 33.85 19.35 33.85 17.95 L34.05 16.45 35.3 16.9 34.05 16.45 Q34.3 15.4 34.95 14.5 L35.6 13.75 Q36.35 13.0 37.25 12.6 35.3 14.3 35.3 16.9 L45.3 20.25 43.3 20.4 35.3 17.6 Q35.3 18.75 35.55 19.6 36.65 23.65 42.45 22.05 L44.8 21.2 M52.3 19.05 L51.65 19.6 52.3 19.05" fill="#aa7322" fill-rule="evenodd" stroke="none"/>
    <path d="M58.2 23.5 L58.35 24.05 Q54.65 25.7 50.6 26.55 L43.6 27.45 34.5 26.8 Q33.55 26.1 34.8 25.75 L42.05 26.0 43.65 25.95 45.95 25.75 46.45 26.5 Q52.65 26.3 58.2 23.5 M31.85 1.55 L32.65 1.2 31.85 1.75 31.85 1.55" fill="#819bba" fill-rule="evenodd" stroke="none"/>
    <path d="M57.2 22.45 Q57.95 22.9 58.2 23.5 52.65 26.3 46.45 26.5 L45.95 25.75 Q49.15 25.4 51.85 24.65 L55.4 23.35 56.5 22.85 57.2 22.45" fill="#acbcd0" fill-rule="evenodd" stroke="none"/>
    <path d="M58.35 24.05 L57.9 25.5 56.0 26.15 51.2 27.55 49.65 27.95 43.65 28.9 41.7 29.05 37.15 28.95 36.45 28.9 35.85 28.8 34.85 28.65 34.55 28.6 33.2 28.25 31.65 27.8 30.25 27.3 29.55 26.95 29.0 26.7 27.45 25.8 27.05 25.55 26.5 25.15 25.9 24.7 Q24.6 23.45 25.35 22.45 L25.55 22.2 Q26.05 21.75 26.95 21.4 L25.8 15.5 25.05 11.75 24.6 9.6 27.1 7.2 Q30.35 5.35 32.45 8.7 34.4 10.7 34.95 14.5 34.3 15.4 34.05 16.45 L33.85 17.95 Q33.85 19.35 34.45 20.55 34.85 21.4 35.6 22.15 37.35 23.9 39.8 23.9 L42.3 23.4 43.2 22.85 41.6 24.95 42.2 25.25 45.55 25.1 Q50.75 24.7 55.4 23.35 L51.85 24.65 Q49.15 25.4 45.95 25.75 L43.65 25.95 42.05 26.0 34.8 25.75 Q33.55 26.1 34.5 26.8 L43.6 27.45 50.6 26.55 Q54.65 25.7 58.35 24.05" fill="url(#gradient2)" fill-rule="evenodd" stroke="none"/>
    <path d="M57.9 25.5 L58.15 26.1 Q58.05 26.85 56.85 26.9 L57.9 32.9 57.15 33.35 Q56.55 33.4 55.75 32.75 L56.2 30.15 56.15 27.2 Q54.9 28.5 52.4 28.65 52.2 29.8 52.3 30.85 52.45 33.25 54.1 34.9 L53.65 35.15 Q50.85 36.55 50.7 31.65 L51.05 28.9 Q49.1 30.1 45.1 30.1 L44.95 32.15 Q44.9 33.6 45.2 34.6 L45.2 34.7 Q46.05 37.5 49.6 36.4 45.7 40.25 44.0 36.4 43.6 35.5 43.35 34.3 L43.6 32.4 43.65 30.3 43.65 28.9 43.65 30.3 Q41.65 31.15 38.45 31.05 L38.95 33.25 Q39.6 35.35 40.95 36.2 41.65 36.65 42.55 36.75 41.9 37.75 40.8 37.65 40.15 37.55 39.3 37.0 L39.15 36.9 Q37.75 35.95 37.05 34.3 L37.0 34.15 36.85 33.65 36.6 32.7 Q36.35 31.45 36.4 29.85 L36.45 28.9 37.15 28.95 41.7 29.05 43.65 28.9 49.65 27.95 51.2 27.55 51.05 28.9 51.2 27.55 56.0 26.15 57.9 25.5 M56.0 26.15 L56.15 27.2 56.0 26.15" fill="#836841" fill-rule="evenodd" stroke="none"/>
    <path d="M58.15 26.1 Q58.8 27.8 58.75 29.7 L58.6 31.2 57.9 32.9 56.85 26.9 Q58.05 26.85 58.15 26.1 M43.65 30.3 L43.6 32.4 43.35 34.3 Q43.1 35.9 42.55 36.75 41.65 36.65 40.95 36.2 39.6 35.35 38.95 33.25 L38.45 31.05 Q41.65 31.15 43.65 30.3 M49.6 36.4 Q46.05 37.5 45.2 34.7 L45.2 34.6 Q44.9 33.6 44.95 32.15 L45.1 30.1 Q49.1 30.1 51.05 28.9 L50.7 31.65 50.2 35.75 50.15 35.85 49.6 36.4 M54.1 34.9 Q52.45 33.25 52.3 30.85 52.2 29.8 52.4 28.65 54.9 28.5 56.15 27.2 L56.2 30.15 55.75 32.75 Q55.2 34.2 54.1 34.9" fill="#faf2e2" fill-rule="evenodd" stroke="none"/>
    <path d="M58.6 31.2 L60.25 39.55 60.6 40.35 58.4 40.35 56.55 34.3 57.15 33.35 57.9 32.9 58.6 31.2 M60.5 46.1 Q63.95 54.5 62.3 58.4 L59.95 57.2 59.95 52.85 57.3 47.55 57.95 47.3 59.2 46.75 60.5 46.1 M57.5 45.55 Q51.85 47.7 46.9 46.95 L55.55 44.25 59.4 40.7 Q62.25 43.65 57.5 45.55 M54.6 61.15 L53.55 60.2 Q51.95 56.35 52.5 50.65 L53.7 55.3 54.6 61.15" fill="#ffd779" fill-rule="evenodd" stroke="none"/>
    <path d="M51.8 64.9 Q45.8 66.8 38.2 64.5 L37.25 64.2 36.55 61.35 31.75 58.55 33.95 51.1 31.85 40.95 31.85 35.8 34.95 39.05 39.15 36.9 39.3 37.0 Q40.15 37.55 40.8 37.65 41.9 37.75 42.55 36.75 43.1 35.9 43.35 34.3 43.6 35.5 44.0 36.4 45.7 40.25 49.6 36.4 L50.15 35.85 50.2 35.75 50.7 31.65 Q50.85 36.55 53.65 35.15 L54.1 34.9 Q55.2 34.2 55.75 32.75 56.55 33.4 57.15 33.35 L56.55 34.3 55.95 35.3 52.25 36.8 50.75 36.8 48.35 38.75 42.6 39.45 39.7 38.95 36.8 41.8 34.35 43.1 34.35 44.05 36.1 50.8 37.85 44.95 37.65 43.85 40.35 42.9 48.6 42.9 56.9 40.8 57.4 40.8 Q57.6 41.0 48.65 43.6 L40.4 43.6 Q40.6 46.8 42.75 48.15 L43.85 48.7 53.55 48.0 52.75 48.2 51.4 48.55 49.75 48.85 47.75 49.15 43.2 49.45 42.25 49.45 41.8 49.25 Q39.3 47.95 38.3 46.0 L39.35 49.45 42.05 51.75 39.9 52.55 38.0 61.15 38.4 62.35 41.85 64.15 51.8 64.9 M24.55 44.8 L25.9 24.7 26.5 25.15 26.45 26.15 26.9 26.45 27.9 27.1 27.45 33.35 28.7 34.2 29.65 33.1 29.05 27.7 29.9 28.15 30.65 33.65 Q32.05 38.55 27.4 41.7 L30.15 48.15 31.65 58.5 30.0 57.5 26.55 51.8 24.05 53.45 Q23.95 52.5 24.1 51.5 L24.35 47.7 24.45 46.25 24.55 44.8 M37.85 44.95 L38.0 45.4 38.3 46.0 38.0 45.4 37.85 44.95 M35.85 58.55 L35.9 58.65 35.85 58.25 35.85 58.55" fill="url(#gradient3)" fill-rule="evenodd" stroke="none"/>
    <path d="M60.6 40.35 Q61.6 43.05 60.25 45.5 L59.55 45.85 58.25 46.4 55.55 47.4 54.3 47.8 53.55 48.0 43.85 48.7 42.75 48.15 Q40.6 46.8 40.4 43.6 L48.65 43.6 Q57.6 41.0 57.4 40.8 L56.9 40.8 48.6 42.9 40.35 42.9 37.65 43.85 37.85 44.95 36.1 50.8 34.35 44.05 34.35 43.1 36.8 41.8 39.7 38.95 42.6 39.45 48.35 38.75 50.75 36.8 52.25 36.8 55.95 35.3 56.55 34.3 58.4 40.35 60.6 40.35 M62.3 58.4 Q61.2 60.95 57.9 61.5 55.1 63.8 51.8 64.9 L41.85 64.15 38.4 62.35 38.0 61.15 39.9 52.55 42.05 51.75 40.85 55.0 43.1 56.4 43.95 51.55 45.45 50.3 47.1 50.1 48.75 49.85 50.6 49.5 52.2 49.15 53.7 48.75 54.85 48.4 56.8 47.75 57.3 47.55 59.95 52.85 59.95 57.2 62.3 58.4 M56.8 47.75 L57.3 47.55 56.8 47.75 M57.5 45.55 Q62.25 43.65 59.4 40.7 L55.55 44.25 46.9 46.95 Q51.85 47.7 57.5 45.55 M35.85 58.55 L35.85 58.25 35.9 58.65 35.85 58.55 M54.6 61.15 L53.7 55.3 52.5 50.65 Q51.95 56.35 53.55 60.2 L54.6 61.15" fill="#ffaf2b" fill-rule="evenodd" stroke="none"/>
    <path d="M37.25 64.2 Q33.1 62.85 28.5 60.25 L28.2 60.05 Q25.6 58.1 24.65 55.75 24.25 54.85 24.15 53.95 L24.05 53.45 26.55 51.8 30.0 57.5 31.65 58.5 31.7 58.75 31.75 58.55 36.55 61.35 37.25 64.2 M38.3 46.0 Q39.3 47.95 41.8 49.25 L42.25 49.45 43.2 49.45 43.2 50.45 45.45 50.3 43.95 51.55 43.1 56.4 40.85 55.0 42.05 51.75 39.35 49.45 38.3 46.0 M30.55 28.4 L32.4 29.05 Q32.8 32.1 30.65 33.65 L29.9 28.15 30.55 28.4 M37.05 34.3 Q37.75 35.95 39.15 36.9 L34.95 39.05 31.85 35.8 Q36.6 35.75 37.05 34.3" fill="url(#gradient4)" fill-rule="evenodd" stroke="none"/>
    <path d="M60.25 45.5 L60.5 46.1 59.2 46.75 57.95 47.3 58.25 46.4 57.95 47.3 57.3 47.55 56.8 47.75 54.85 48.4 53.7 48.75 52.2 49.15 50.6 49.5 51.4 48.55 52.75 48.2 53.55 48.0 54.3 47.8 55.55 47.4 58.25 46.4 59.55 45.85 60.25 45.5 M45.45 50.3 L43.2 50.45 43.2 49.45 47.75 49.15 49.75 48.85 51.4 48.55 50.6 49.5 48.75 49.85 49.75 48.85 48.75 49.85 47.1 50.1 45.45 50.3 M47.75 49.15 L47.1 50.1 47.75 49.15 M52.75 48.2 L52.2 49.15 52.75 48.2 M59.55 45.85 L59.2 46.75 59.55 45.85 M55.55 47.4 L54.85 48.4 55.55 47.4 M53.7 48.75 L54.3 47.8 53.7 48.75 M26.5 25.15 L27.05 25.55 27.45 25.8 26.9 26.45 27.45 25.8 29.0 26.7 29.55 26.95 30.25 27.3 31.65 27.8 33.2 28.25 34.55 28.6 34.85 28.65 35.85 28.8 36.45 28.9 36.4 29.85 35.1 29.65 33.85 29.4 32.45 29.05 32.4 29.05 30.55 28.4 31.65 27.8 30.55 28.4 29.9 28.15 29.05 27.7 27.95 27.1 27.9 27.1 26.9 26.45 26.45 26.15 26.5 25.15 M27.95 27.1 L29.0 26.7 27.95 27.1 M33.2 28.25 L32.45 29.05 33.2 28.25 M29.05 27.7 L30.25 27.3 29.05 27.7 M35.85 28.8 L35.1 29.65 35.85 28.8 M34.85 28.65 L33.85 29.4 34.85 28.65" fill="#8a4806" fill-rule="evenodd" stroke="none"/>
    <path d="M10.05 47.8 L8.1 48.85 Q0.5 46.75 0.15 32.65 L0.15 30.0 Q-0.3 27.15 0.5 24.35 1.6 20.3 5.25 16.25 7.9 13.35 10.75 12.1 L19.95 14.95 24.2 14.3 25.8 15.5 26.95 21.4 Q26.05 21.75 25.55 22.2 L25.35 22.45 Q24.1 21.45 22.8 20.75 L22.6 21.0 17.4 28.05 17.45 28.25 Q17.9 34.95 20.05 40.6 L22.5 44.8 24.45 46.25 24.35 47.7 20.55 43.75 Q15.1 34.75 15.0 27.7 14.95 22.85 17.45 18.95 L10.7 19.3 10.3 19.4 8.5 21.85 Q6.4 22.95 4.45 25.25 3.15 26.8 1.9 28.9 L1.9 36.85 Q2.3 41.85 6.05 45.85 L11.05 47.3 10.05 47.8 M0.15 30.0 L1.8 25.25 8.5 18.15 10.3 19.4 8.5 18.15 1.8 25.25 0.15 30.0 M8.5 18.15 L11.95 15.75 Q18.8 15.85 24.95 20.7 18.8 15.85 11.95 15.75 L8.5 18.15 M17.45 18.95 Q20.25 19.35 22.8 20.75 20.25 19.35 17.45 18.95" fill="#9da6a5" fill-rule="evenodd" stroke="none"/>
    <path d="M10.75 12.1 Q13.85 10.65 17.15 11.15 19.7 11.55 22.35 13.1 L25.05 11.75 25.8 15.5 24.2 14.3 19.95 14.95 10.75 12.1 M22.35 13.1 L24.2 14.3 22.35 13.1 M22.6 21.0 Q20.7 24.3 20.4 28.95 20.0 34.95 22.3 43.15 L24.55 44.8 24.45 46.25 22.5 44.8 20.05 40.6 Q17.9 34.95 17.45 28.25 L17.4 28.05 22.6 21.0 M11.05 47.3 L6.05 45.85 Q2.3 41.85 1.9 36.85 L1.9 28.9 Q3.15 26.8 4.45 25.25 6.4 22.95 8.5 21.85 L7.45 23.45 6.2 25.65 Q4.9 28.35 5.5 29.65 4.95 46.0 10.25 45.25 L12.0 46.75 11.05 47.3" fill="#e8f4f3" fill-rule="evenodd" stroke="none"/>
    <path d="M27.9 27.1 L27.95 27.1 27.9 27.1 27.95 27.1 29.05 27.7 29.65 33.1 28.7 34.2 27.45 33.35 27.9 27.1 M32.4 29.05 L32.45 29.05 32.4 29.05 32.45 29.05 33.85 29.4 35.1 29.65 36.4 29.85 Q36.35 31.45 36.6 32.7 L36.85 33.65 37.0 34.15 37.05 34.3 Q36.6 35.75 31.85 35.8 L31.85 40.95 33.95 51.1 31.75 58.55 31.7 58.75 31.65 58.5 30.15 48.15 27.4 41.7 Q32.05 38.55 30.65 33.65 32.8 32.1 32.4 29.05" fill="url(#gradient5)" fill-rule="evenodd" stroke="none"/>
    <path d="M24.65 55.75 Q21.1 55.35 17.75 53.4 L22.1 53.15 24.05 53.45 24.15 53.95 Q24.25 54.85 24.65 55.75 M15.1 51.65 L12.5 50.5 10.05 47.8 11.05 47.3 12.0 46.75 13.55 49.2 15.1 51.65" fill="#618d7b" fill-rule="evenodd" stroke="none"/>
    <path d="M17.75 53.4 L15.1 51.65 13.55 49.2 Q17.65 52.15 22.1 53.15 L17.75 53.4" fill="#badeda" fill-rule="evenodd" stroke="none"/>
    <path d="M32.65 1.2 Q36.65 -0.35 42.4 0.1 L44.75 0.05 Q50.55 0.2 54.5 2.95 56.35 4.2 57.75 6.1 L59.5 16.85 58.0 20.55 57.2 22.45 Q57.95 22.9 58.2 23.5 L58.35 24.05 57.9 25.5 58.15 26.1 Q58.8 27.8 58.75 29.7 L58.6 31.2 60.25 39.55 60.6 40.35 Q61.6 43.05 60.25 45.5 L60.5 46.1 Q63.95 54.5 62.3 58.4 61.2 60.95 57.9 61.5 55.1 63.8 51.8 64.9 45.8 66.8 38.2 64.5 L37.25 64.2 Q33.1 62.85 28.5 60.25 L28.2 60.05 Q25.6 58.1 24.65 55.75 21.1 55.35 17.75 53.4 L15.1 51.65 12.5 50.5 10.05 47.8 8.1 48.85 Q0.5 46.75 0.15 32.65 L0.15 30.0 Q-0.3 27.15 0.5 24.35 1.6 20.3 5.25 16.25 7.9 13.35 10.75 12.1 13.85 10.65 17.15 11.15 19.7 11.55 22.35 13.1 L25.05 11.75 24.6 9.6 Q26.7 3.8 31.85 1.55 L32.65 1.2 M56.25 11.3 L57.05 12.15 58.1 14.25 58.1 14.3 58.25 15.05 58.35 16.35 58.35 16.45 Q58.35 18.45 57.45 20.0 L57.1 20.45 57.05 20.5 55.95 21.65 55.4 21.95 54.4 22.15 54.1 22.1 53.65 22.0 Q52.9 21.75 52.7 21.2 L51.65 19.6 50.5 17.45 Q50.05 16.7 49.75 15.3 49.45 13.9 50.75 12.15 L51.85 11.1 Q52.75 10.45 53.9 10.45 55.2 10.45 56.25 11.3 M37.25 12.6 Q38.4 12.0 39.8 12.0 41.65 12.0 43.1 13.0 L43.35 13.2 44.0 13.75 Q45.75 15.5 45.75 17.95 45.75 19.2 45.3 20.25 L44.8 21.2 44.0 22.15 43.2 22.85 42.3 23.4 39.8 23.9 Q37.35 23.9 35.6 22.15 34.85 21.4 34.45 20.55 33.85 19.35 33.85 17.95 L34.05 16.45 Q34.3 15.4 34.95 14.5 L35.6 13.75 Q36.35 13.0 37.25 12.6 M55.4 23.35 L56.5 22.85 57.2 22.45 M52.3 19.05 L58.1 14.25 M51.65 19.6 L52.3 19.05 M45.3 20.25 L35.3 16.9 34.05 16.45 M45.95 25.75 L43.65 25.95 42.05 26.0 34.8 25.75 M51.2 27.55 L49.65 27.95 43.65 28.9 43.65 30.3 43.6 32.4 43.35 34.3 Q43.6 35.5 44.0 36.4 45.7 40.25 49.6 36.4 L50.15 35.85 50.2 35.75 50.7 31.65 51.05 28.9 51.2 27.55 56.0 26.15 57.9 25.5 M55.4 23.35 L51.85 24.65 Q49.15 25.4 45.95 25.75 M54.1 34.9 Q55.2 34.2 55.75 32.75 L56.2 30.15 56.15 27.2 56.0 26.15 M57.9 32.9 L58.6 31.2 M37.85 44.95 L37.65 43.85 40.35 42.9 48.6 42.9 56.9 40.8 57.4 40.8 M53.55 48.0 L54.3 47.8 55.55 47.4 58.25 46.4 59.55 45.85 60.25 45.5 M55.75 32.75 Q56.55 33.4 57.15 33.35 L57.9 32.9 M50.7 31.65 Q50.85 36.55 53.65 35.15 L54.1 34.9 M42.55 36.75 Q43.1 35.9 43.35 34.3 M43.2 49.45 L42.25 49.45 41.8 49.25 Q39.3 47.95 38.3 46.0 L38.0 45.4 37.85 44.95 M45.45 50.3 L43.2 50.45 43.2 49.45 47.75 49.15 49.75 48.85 51.4 48.55 52.75 48.2 53.55 48.0 M45.45 50.3 L47.1 50.1 47.75 49.15 M50.6 49.5 L52.2 49.15 52.75 48.2 M50.6 49.5 L51.4 48.55 M48.75 49.85 L50.6 49.5 M49.75 48.85 L48.75 49.85 47.1 50.1 M59.2 46.75 L60.5 46.1 M58.25 46.4 L57.95 47.3 59.2 46.75 59.55 45.85 M57.3 47.55 L56.8 47.75 54.85 48.4 53.7 48.75 52.2 49.15 M56.8 47.75 L57.3 47.55 57.95 47.3 M54.3 47.8 L53.7 48.75 M54.85 48.4 L55.55 47.4 M24.2 14.3 L22.35 13.1 M25.8 15.5 L24.2 14.3 M25.8 15.5 L25.05 11.75 M25.35 22.45 Q24.1 21.45 22.8 20.75 L22.6 21.0 Q20.7 24.3 20.4 28.95 20.0 34.95 22.3 43.15 L24.55 44.8 25.9 24.7 Q24.6 23.45 25.35 22.45 L25.55 22.2 Q26.05 21.75 26.95 21.4 L25.8 15.5 M27.45 25.8 L27.05 25.55 26.5 25.15 26.45 26.15 26.9 26.45 27.45 25.8 29.0 26.7 29.55 26.95 30.25 27.3 31.65 27.8 33.2 28.25 34.55 28.6 34.85 28.65 35.85 28.8 36.45 28.9 37.15 28.95 41.7 29.05 43.65 28.9 M26.5 25.15 L25.9 24.7 M27.95 27.1 L27.9 27.1 26.9 26.45 M29.05 27.7 L27.95 27.1 27.9 27.1 M29.0 26.7 L27.95 27.1 M29.9 28.15 L29.05 27.7 30.25 27.3 M31.65 27.8 L30.55 28.4 32.4 29.05 32.45 29.05 33.2 28.25 M30.55 28.4 L29.9 28.15 M32.45 29.05 L32.4 29.05 M8.5 21.85 L10.3 19.4 8.5 18.15 1.8 25.25 0.15 30.0 M24.35 47.7 L20.55 43.75 Q15.1 34.75 15.0 27.7 14.95 22.85 17.45 18.95 L10.7 19.3 10.3 19.4 M8.5 21.85 L7.45 23.45 6.2 25.65 Q4.9 28.35 5.5 29.65 4.95 46.0 10.25 45.25 L12.0 46.75 13.55 49.2 Q17.65 52.15 22.1 53.15 L24.05 53.45 Q23.95 52.5 24.1 51.5 L24.35 47.7 24.45 46.25 24.55 44.8 M24.95 20.7 Q18.8 15.85 11.95 15.75 L8.5 18.15 M11.05 47.3 L10.05 47.8 M13.55 49.2 L15.1 51.65 M12.0 46.75 L11.05 47.3 M35.1 29.65 L36.4 29.85 36.45 28.9 M33.85 29.4 L35.1 29.65 35.85 28.8 M36.4 29.85 Q36.35 31.45 36.6 32.7 L36.85 33.65 37.0 34.15 37.05 34.3 Q37.75 35.95 39.15 36.9 L39.3 37.0 Q40.15 37.55 40.8 37.65 41.9 37.75 42.55 36.75 M22.8 20.75 Q20.25 19.35 17.45 18.95 M32.45 29.05 L33.85 29.4 34.85 28.65 M24.65 55.75 Q24.25 54.85 24.15 53.95 L24.05 53.45" ffdec:has-small-stroke="true" ffdec:original-stroke-width="0.05" fill="none" stroke="#000000" stroke-linecap="round" stroke-linejoin="round" stroke-opacity="0.34117648" stroke-width="1.0"/>
  </g>
  <defs>
    <linearGradient gradientTransform="matrix(0.0122, 0.0, 0.0, 1.0, 37.55, -140.9)" gradientUnits="userSpaceOnUse" id="gradient0" spreadMethod="pad" x1="-819.2" x2="819.2">
      <stop offset="0.0" stop-color="#56628f"/>
      <stop offset="1.0" stop-color="#89a6c2"/>
    </linearGradient>
    <linearGradient gradientTransform="matrix(0.025, 0.0, 0.0, 0.0177, 43.05, -130.65)" gradientUnits="userSpaceOnUse" id="gradient1" spreadMethod="pad" x1="-819.2" x2="819.2">
      <stop offset="0.0" stop-color="#56628f"/>
      <stop offset="1.0" stop-color="#89a6c2"/>
    </linearGradient>
    <linearGradient gradientTransform="matrix(0.0146, 0.0, 0.0, 0.0263, 35.3, -117.55)" gradientUnits="userSpaceOnUse" id="gradient2" spreadMethod="pad" x1="-819.2" x2="819.2">
      <stop offset="0.0" stop-color="#56628f"/>
      <stop offset="0.3137254901960784" stop-color="#1d2530"/>
      <stop offset="0.5803921568627451" stop-color="#263c48"/>
      <stop offset="1.0" stop-color="#8085b3"/>
    </linearGradient>
    <linearGradient gradientTransform="matrix(0.0202, 0.0, 0.0, 0.0241, 40.55, 44.45)" gradientUnits="userSpaceOnUse" id="gradient3" spreadMethod="pad" x1="-819.2" x2="819.2">
      <stop offset="0.0" stop-color="#a35407"/>
      <stop offset="1.0" stop-color="#dc730a"/>
    </linearGradient>
    <linearGradient gradientTransform="matrix(1.0, 0.0, 0.0, 1.0, -119.75, -144.05)" gradientUnits="userSpaceOnUse" id="gradient4" spreadMethod="pad" x1="-819.2" x2="819.2">
      <stop offset="0.42745098039215684" stop-color="#824306"/>
      <stop offset="1.0" stop-color="#dc730a"/>
    </linearGradient>
    <linearGradient gradientTransform="matrix(0.0202, 0.0, 0.0, 0.0241, 40.55, 44.45)" gradientUnits="userSpaceOnUse" id="gradient5" spreadMethod="pad" x1="-819.2" x2="819.2">
      <stop offset="0.42745098039215684" stop-color="#824306"/>
      <stop offset="1.0" stop-color="#dc730a"/>
    </linearGradient>
  </defs>
</svg>
