<?xml version="1.0" encoding="UTF-8" standalone="no"?>
<svg xmlns:ffdec="https://www.free-decompiler.com/flash" xmlns:xlink="http://www.w3.org/1999/xlink" ffdec:objectType="shape" height="64.2px" width="59.5px" xmlns="http://www.w3.org/2000/svg">
  <g transform="matrix(1.0, 0.0, 0.0, 1.0, 17.5, 27.1)">
    <path d="M7.0 -18.7 L13.0 -14.95 13.0 37.1 9.75 37.1 7.0 37.1 7.0 -18.7 M9.75 35.7 L9.75 37.1 9.75 35.7 9.75 -14.95 9.75 35.7" fill="#faf7eb" fill-rule="evenodd" stroke="none"/>
    <path d="M13.0 37.1 L13.0 -14.95 7.0 -18.7 7.0 -27.1 17.5 -27.1 17.5 37.1 13.0 37.1" fill="#d8ddec" fill-rule="evenodd" stroke="none"/>
    <path d="M9.75 35.7 L9.75 -14.95" fill="none" stroke="#cacedb" stroke-linecap="round" stroke-linejoin="round" stroke-width="1.0"/>
    <path d="M13.0 37.1 L17.5 37.1 17.5 -27.1 7.0 -27.1 7.0 -18.7 7.0 37.1 9.75 37.1 9.75 35.7 M9.75 37.1 L13.0 37.1" ffdec:has-small-stroke="true" ffdec:original-stroke-width="0.05" fill="none" stroke="#545443" stroke-linecap="round" stroke-linejoin="round" stroke-opacity="0.7019608" stroke-width="1.0"/>
    <path d="M8.3 9.3 L8.3 6.8 9.35 6.8 9.35 -1.15 14.7 -1.15 13.65 -1.05 13.65 0.35 13.65 5.95 14.15 5.95 14.7 5.95 14.7 9.3 8.3 9.3 M14.7 28.85 L9.35 28.85 9.35 20.9 8.3 20.9 8.3 18.45 14.7 18.45 14.7 21.8 14.15 21.8 13.65 21.8 13.65 27.35 13.65 28.8 14.7 28.85" fill="#faf7eb" fill-rule="evenodd" stroke="none"/>
    <path d="M8.3 9.3 L14.7 9.3 14.7 18.45 8.3 18.45 8.3 9.3 M14.15 5.95 L13.65 5.95 13.65 0.35 14.15 0.3 14.15 5.95 M13.65 27.35 L13.65 21.8 14.15 21.8 14.15 27.4 13.65 27.35" fill="#c0c4d2" fill-rule="evenodd" stroke="none"/>
    <path d="M14.7 -1.15 L9.35 -1.15 9.35 6.8 8.3 6.8 8.3 9.3 14.7 9.3 16.2 9.3 M14.7 28.85 L9.35 28.85 9.35 20.9 8.3 20.9 8.3 18.45 14.7 18.45 16.2 18.45" ffdec:has-small-stroke="true" ffdec:original-stroke-width="0.05" fill="none" stroke="#545443" stroke-linecap="round" stroke-linejoin="round" stroke-opacity="0.7019608" stroke-width="1.0"/>
    <path d="M2.8 -1.15 L3.25 -1.15 3.25 2.6 7.0 2.6 7.0 25.1 3.25 25.1 3.25 28.85 -1.25 28.85 Q-8.95 24.0 0.1 19.1 L-0.75 19.1 -0.75 8.6 1.5 8.6 Q-3.5 2.6 2.8 -1.15 M-12.75 25.1 L-17.5 25.1 -17.5 19.1 -11.1 19.1 Q-4.95 21.6 -12.75 25.1 M-8.1 8.6 L-17.5 8.6 -17.5 2.1 -9.25 2.1 -9.25 -1.15 -5.35 -1.15 Q-0.85 4.2 -8.1 8.6" fill="#c0c4d2" fill-rule="evenodd" stroke="none"/>
    <path d="M-1.25 28.85 L-8.25 28.85 -8.25 25.1 -12.75 25.1 Q-4.95 21.6 -11.1 19.1 L-0.75 19.1 0.1 19.1 Q-8.95 24.0 -1.25 28.85 M-0.75 8.6 L-8.1 8.6 Q-0.85 4.2 -5.35 -1.15 L2.8 -1.15 Q-3.5 2.6 1.5 8.6 L-0.75 8.6" fill="#faf7eb" fill-rule="evenodd" stroke="none"/>
    <path d="M2.8 -1.15 L3.25 -1.15 3.25 2.6 7.0 2.6 M7.0 25.1 L3.25 25.1 3.25 28.85 -1.25 28.85 -8.25 28.85 -8.25 25.1 -12.75 25.1 -17.5 25.1 -17.5 19.1 -11.1 19.1 -0.75 19.1 -0.75 8.6 -8.1 8.6 -17.5 8.6 -17.5 2.1 -9.25 2.1 -9.25 -1.15 -5.35 -1.15 2.8 -1.15" ffdec:has-small-stroke="true" ffdec:original-stroke-width="0.05" fill="none" stroke="#545443" stroke-linecap="round" stroke-linejoin="round" stroke-opacity="0.7019608" stroke-width="1.0"/>
    <path d="M29.85 -1.15 L33.75 -1.15 33.75 2.1 42.0 2.1 42.0 8.6 32.6 8.6 Q25.35 4.2 29.85 -1.15 M25.25 8.6 L25.25 19.1 24.4 19.1 Q33.45 24.0 25.75 28.85 L21.25 28.85 21.25 25.1 17.5 25.1 17.5 2.6 21.25 2.6 21.25 -1.15 21.7 -1.15 Q28.0 2.6 23.0 8.6 L25.25 8.6 M35.6 19.1 L42.0 19.1 42.0 25.1 37.25 25.1 Q29.45 21.6 35.6 19.1" fill="#c0c4d2" fill-rule="evenodd" stroke="none"/>
    <path d="M29.85 -1.15 Q25.35 4.2 32.6 8.6 L25.25 8.6 23.0 8.6 Q28.0 2.6 21.7 -1.15 L29.85 -1.15 M25.25 19.1 L35.6 19.1 Q29.45 21.6 37.25 25.1 L32.75 25.1 32.75 28.85 25.75 28.85 Q33.45 24.0 24.4 19.1 L25.25 19.1" fill="#faf7eb" fill-rule="evenodd" stroke="none"/>
    <path d="M32.6 8.6 L42.0 8.6 42.0 2.1 33.75 2.1 33.75 -1.15 29.85 -1.15 21.7 -1.15 21.25 -1.15 21.25 2.6 17.5 2.6 M32.6 8.6 L25.25 8.6 25.25 19.1 35.6 19.1 42.0 19.1 42.0 25.1 37.25 25.1 32.75 25.1 32.75 28.85 25.75 28.85 21.25 28.85 21.25 25.1 17.5 25.1" ffdec:has-small-stroke="true" ffdec:original-stroke-width="0.05" fill="none" stroke="#545443" stroke-linecap="round" stroke-linejoin="round" stroke-opacity="0.7019608" stroke-width="1.0"/>
  </g>
</svg>
