<?xml version="1.0" encoding="UTF-8" standalone="no"?>
<svg xmlns:ffdec="https://www.free-decompiler.com/flash" xmlns:xlink="http://www.w3.org/1999/xlink" ffdec:objectType="shape" height="333.2px" width="385.65px" xmlns="http://www.w3.org/2000/svg">
  <g transform="matrix(1.0, 0.0, 0.0, 1.0, -13.15, -33.25)">
    <path d="M275.05 92.4 L308.0 68.8 308.2 69.3 308.4 68.5 347.85 57.55 374.1 73.45 373.9 78.2 331.35 131.6 330.4 131.95 331.3 134.25 329.5 212.05 353.0 230.25 356.85 233.25 329.5 291.55 250.55 311.1 275.05 92.4 M330.4 131.95 L330.15 131.4 330.4 131.95 M292.05 128.25 L296.05 92.0 292.05 128.25 299.55 132.4 298.4 153.2 299.55 132.4 292.05 128.25 291.4 133.95 292.05 128.25" fill="#ba9767" fill-rule="evenodd" stroke="none"/>
    <path d="M185.0 184.2 L229.35 153.15 219.85 131.95 275.05 92.4 250.55 311.1 237.15 314.4 226.9 316.95 212.9 320.45 212.8 320.45 211.1 317.3 191.25 280.6 185.0 184.2 M374.1 73.45 L374.55 73.75 375.7 75.9 373.9 78.2 374.1 73.45 M231.35 284.95 L229.0 301.9 227.85 300.1 229.0 301.9 231.35 284.95 M237.15 314.4 L229.0 301.9 226.9 316.95 229.0 301.9 237.15 314.4" fill="#c09f74" fill-rule="evenodd" stroke="none"/>
    <path d="M375.7 75.9 L398.3 118.65 370.65 158.1 373.9 78.2 375.7 75.9 M364.1 238.95 L375.9 290.7 355.7 332.05 341.25 288.65 342.65 288.3 364.1 238.95" fill="#85663d" fill-rule="evenodd" stroke="none"/>
    <path d="M151.8 207.75 L151.75 207.4 185.0 184.2 191.25 280.6 151.8 207.75" fill="#c7aa83" fill-rule="evenodd" stroke="none"/>
    <path d="M236.05 361.85 L221.75 365.4 221.1 364.25 164.9 267.1 151.8 207.75 191.25 280.6 211.1 317.3 211.85 320.65 221.1 364.25 211.85 320.65 212.8 320.45 212.9 320.45 236.05 361.85" fill="#a07b49" fill-rule="evenodd" stroke="none"/>
    <path d="M370.65 158.1 L351.4 185.6 353.0 230.25 329.5 212.05 331.3 134.25 331.35 131.6 373.9 78.2 370.65 158.1 M351.4 185.6 L331.3 134.25 351.4 185.6 M355.7 332.05 L236.05 361.85 212.9 320.45 226.9 316.95 237.15 314.4 250.55 311.1 329.5 291.55 341.25 288.65 355.7 332.05 M226.65 318.75 L226.9 316.95 226.65 318.75" fill="#715633" fill-rule="evenodd" stroke="none"/>
    <path d="M356.85 233.25 L364.1 238.85 364.1 238.95 342.65 288.3 341.25 288.65 329.5 291.55 356.85 233.25" fill="#b38c59" fill-rule="evenodd" stroke="none"/>
    <path d="M185.0 184.2 L229.35 153.15 219.85 131.95 275.05 92.4 308.0 68.8 307.75 68.25 M308.0 68.8 L308.2 69.3 308.4 68.5 308.0 68.8 M308.4 68.5 L347.85 57.55 M364.1 238.95 L364.15 238.9 M364.1 238.95 L342.65 288.3 341.25 288.65 329.5 291.55 250.55 311.1 237.15 314.4 226.9 316.95 212.9 320.45 212.8 320.45 211.1 317.3 191.25 280.6 151.8 207.75 151.65 207.45 151.75 207.4 185.0 184.2" fill="none" stroke="#000000" stroke-linecap="round" stroke-linejoin="round" stroke-opacity="0.5019608" stroke-width="1.0"/>
    <path d="M374.55 73.75 L374.1 72.9 374.1 73.45 374.55 73.75 376.5 74.9 375.7 75.9 398.3 118.65 370.65 158.1 351.4 185.6 353.0 230.25 356.85 233.25 364.1 238.85 363.55 236.55 M375.7 75.9 L374.55 73.75 M373.9 78.2 L375.7 75.9 M374.1 73.45 L373.9 78.2 331.35 131.6 331.3 134.25 351.4 185.6 M374.3 67.9 L374.1 72.9 M347.85 57.55 L374.1 73.45 M330.15 131.4 L330.4 131.95 331.3 134.25 329.5 212.05 353.0 230.25 M298.4 153.2 L299.55 132.4 292.05 128.25 291.4 133.95 M296.05 92.0 L292.05 128.25 M364.15 238.9 L364.1 238.85 364.1 238.95 375.9 290.7 355.7 332.05 236.05 361.85 221.75 365.4 221.35 365.5 219.55 365.95 M341.25 288.65 L355.7 332.05 M226.9 316.95 L226.65 318.75 M227.85 300.1 L229.0 301.9 231.35 284.95 M151.75 207.4 L151.8 207.75 164.9 267.1 221.1 364.25 211.85 320.65 211.1 317.3 M212.9 320.45 L236.05 361.85 M221.1 364.25 L221.35 365.5 M221.75 365.4 L221.1 364.25 M226.9 316.95 L229.0 301.9 237.15 314.4" fill="none" stroke="#000000" stroke-linecap="round" stroke-linejoin="round" stroke-opacity="0.5019608" stroke-width="1.0"/>
    <path d="M264.85 185.4 L266.35 172.3 Q272.6 173.3 278.35 175.1 290.7 178.85 301.0 186.1 322.45 201.15 322.5 222.55 322.5 225.85 322.0 229.0 319.4 244.75 304.1 256.75 L304.05 256.8 301.0 259.05 Q281.5 272.75 254.6 274.0 L257.1 252.55 Q272.35 250.9 283.85 242.85 L285.9 241.35 Q296.2 233.25 297.95 222.7 L298.3 218.35 Q298.25 203.95 283.85 193.85 276.1 188.35 266.65 185.85 L264.85 185.4" fill="#e8e8d7" fill-rule="evenodd" stroke="none"/>
    <path d="M264.85 185.4 Q257.45 183.65 249.05 183.7 228.6 183.7 214.2 193.85 199.8 203.95 199.8 218.35 199.8 229.85 209.1 238.7 211.35 240.85 214.2 242.85 228.6 252.95 249.05 253.0 L257.1 252.55 254.6 274.0 249.2 274.15 Q218.8 274.1 197.35 259.05 L191.7 254.65 Q175.9 240.9 175.95 222.55 175.9 201.15 197.35 186.1 218.8 171.0 249.2 171.0 258.15 171.0 266.35 172.3 L264.85 185.4" fill="#f4f4ec" fill-rule="evenodd" stroke="none"/>
    <path d="M264.5 188.45 Q271.0 190.6 276.5 194.55 288.75 203.35 288.65 215.65 L288.3 219.35 Q286.75 228.35 277.9 235.2 L276.1 236.5 Q268.15 241.95 258.1 243.9 L264.5 188.45" fill="#e8e8d7" fill-rule="evenodd" stroke="none"/>
    <path d="M258.1 243.9 L246.25 244.9 Q228.8 244.7 216.55 235.95 L214.15 234.05 Q204.3 225.85 204.4 214.85 204.5 202.55 216.9 194.0 229.3 185.45 246.8 185.6 256.15 185.7 264.0 188.25 L264.5 188.45 258.1 243.9" fill="#f9f9f5" fill-rule="evenodd" stroke="none"/>
    <path d="M308.6 197.45 L330.6 34.0 M213.45 190.9 L196.55 87.7" fill="none" stroke="#ffffff" stroke-linecap="round" stroke-linejoin="round" stroke-width="1.5"/>
    <path d="M255.05 82.85 L255.95 51.65 M259.6 215.95 L265.1 188.45 M177.0 117.75 L176.1 110.4 M183.45 168.25 L182.5 152.6 M188.0 203.1 L185.25 177.4 M247.7 196.7 L250.45 150.8 M180.65 143.45 L178.8 133.35 M248.6 261.9 L257.8 224.25 M251.4 140.7 L253.2 106.75" fill="none" stroke="#ffffff" stroke-linecap="round" stroke-linejoin="round" stroke-width="1.5"/>
    <path d="M121.35 141.75 L120.8 142.6 107.35 139.8 85.85 135.35 88.2 131.75 Q116.85 126.05 121.35 141.75 M26.85 123.1 L13.35 120.3 19.45 111.05 Q47.65 98.55 52.65 121.05 L48.35 127.55 26.85 123.1 M48.65 90.2 L55.2 80.35 76.7 84.8 67.95 98.0 Q50.45 108.65 48.65 90.2 M101.4 111.85 L114.2 92.6 137.5 97.45 126.25 114.4 137.9 116.8 132.6 124.75 Q107.4 130.3 101.4 111.85" fill="#d58f1e" fill-rule="evenodd" stroke="none"/>
    <path d="M107.35 139.8 L102.2 147.55 21.7 130.85 26.85 123.1 48.35 127.55 52.65 121.05 53.75 119.35 91.25 127.15 88.2 131.75 85.85 135.35 107.35 139.8" fill="#8f6114" fill-rule="evenodd" stroke="none"/>
    <path d="M19.45 111.05 L29.05 96.6 42.55 99.4 48.65 90.2 Q50.45 108.65 67.95 98.0 L53.75 119.35 52.65 121.05 Q47.65 98.55 19.45 111.05 M91.25 127.15 L101.4 111.85 Q107.4 130.3 132.6 124.75 L121.35 141.75 Q116.85 126.05 88.2 131.75 L91.25 127.15" fill="#f3c55a" fill-rule="evenodd" stroke="none"/>
    <path d="M121.35 141.75 L120.8 142.6 107.35 139.8 102.2 147.55 M21.7 130.85 L26.85 123.1 13.35 120.3 19.45 111.05 29.05 96.6 42.55 99.4 48.65 90.2 55.2 80.35 76.7 84.8 67.95 98.0 53.75 119.35 91.25 127.15 101.4 111.85 114.2 92.6 137.5 97.45 126.25 114.4 137.9 116.8 132.6 124.75 121.35 141.75" ffdec:has-small-stroke="true" ffdec:original-stroke-width="0.4" fill="none" stroke="#5f3707" stroke-linecap="round" stroke-linejoin="round" stroke-width="1.0"/>
  </g>
</svg>
