<?xml version="1.0" encoding="UTF-8" standalone="no"?>
<svg xmlns:ffdec="https://www.free-decompiler.com/flash" xmlns:xlink="http://www.w3.org/1999/xlink" ffdec:objectType="shape" height="67.5px" width="65.6px" xmlns="http://www.w3.org/2000/svg">
  <g transform="matrix(1.0, 0.0, 0.0, 1.0, -242.15, -139.6)">
    <path d="M307.1 185.4 L307.25 185.55 299.6 206.6 299.3 206.6 293.45 193.45 298.85 190.3 307.1 185.4" fill="#7e7a6b" fill-rule="evenodd" stroke="none"/>
    <path d="M307.1 185.4 L298.85 190.3 289.65 182.55 292.7 182.35 301.5 181.75 302.85 182.65 307.1 185.4 M293.45 193.45 L299.3 206.6 251.55 205.5 251.5 205.45 255.35 197.65 266.4 196.45 293.45 193.45 M250.8 185.25 L251.75 178.9 265.6 178.3 264.85 184.25 253.3 185.05 252.9 185.1 250.8 185.25 M287.4 182.7 L285.7 182.8 284.75 177.45 289.05 177.25 289.5 182.55 287.4 182.7" fill="#a6a397" fill-rule="evenodd" stroke="none"/>
    <path d="M296.15 174.25 L301.8 174.5 302.2 177.85 297.75 176.35 297.25 176.4 Q296.3 175.75 295.85 174.3 L296.15 174.25" fill="#fdf4e1" fill-rule="evenodd" stroke="none"/>
    <path d="M302.2 177.85 L302.85 182.65 301.5 181.75 292.7 182.35 292.3 177.15 292.3 177.05 297.25 176.4 297.75 176.35 302.2 177.85" fill="#8f6114" fill-rule="evenodd" stroke="none"/>
    <path d="M255.95 151.7 L257.55 141.2 271.7 140.7 271.95 144.8 262.0 146.2 259.35 154.1 255.95 151.7" fill="#f2f0ea" fill-rule="evenodd" stroke="none"/>
    <path d="M256.1 170.95 L255.95 151.7 259.35 154.1 267.8 160.1 266.9 167.3 266.65 169.3 266.55 170.1 256.1 170.95 M292.55 155.95 L293.25 169.55 283.35 169.4 282.8 166.5 282.0 162.0 292.55 155.95" fill="#7e7c73" fill-rule="evenodd" stroke="none"/>
    <path d="M243.2 191.15 L242.65 190.25 246.8 185.5 250.8 185.25 252.9 185.1 253.3 185.05 260.1 186.95 266.4 196.45 255.35 197.65 243.2 191.15 M291.45 150.3 L292.55 155.95 282.0 162.0 267.8 160.1 259.35 154.1 262.0 146.2 271.95 144.8 274.5 150.35 285.4 154.95 291.45 150.3 M266.25 151.15 L266.85 152.7 269.0 153.2 270.55 151.3 269.95 149.95 266.25 151.15 M274.4 158.65 L279.15 159.7 281.8 158.0 279.35 154.7 276.3 154.55 272.6 155.8 274.4 158.65 M266.65 169.3 L281.0 174.6 282.25 182.0 280.2 185.45 268.4 186.95 266.05 185.55 265.65 185.15 265.25 184.7 264.85 184.25 265.6 178.3 266.55 170.1 266.65 169.3 M272.9 176.6 L268.15 177.7 267.35 180.5 272.4 183.1 275.55 180.05 272.9 176.6" fill="#ebe8de" fill-rule="evenodd" stroke="none"/>
    <path d="M298.85 190.3 L293.45 193.45 266.4 196.45 260.1 186.95 253.3 185.05 264.85 184.25 265.25 184.7 265.65 185.15 266.5 188.05 270.5 190.6 283.8 189.65 287.6 185.35 287.4 182.7 289.5 182.55 289.65 182.55 298.85 190.3" fill="#dad5c5" fill-rule="evenodd" stroke="none"/>
    <path d="M251.75 178.9 L256.1 170.95 266.55 170.1 265.6 178.3 251.75 178.9 M293.25 169.55 L296.15 174.25 295.85 174.3 289.25 175.4 288.95 175.45 289.05 177.25 284.75 177.45 284.45 175.85 283.35 169.4 293.25 169.55" fill="#66655e" fill-rule="evenodd" stroke="none"/>
    <path d="M282.8 166.5 L266.9 167.3 267.8 160.1 282.0 162.0 282.8 166.5" fill="#e1dccc" fill-rule="evenodd" stroke="none"/>
    <path d="M266.65 169.3 L266.9 167.3 282.8 166.5 283.35 169.4 284.45 175.85 281.0 174.6 266.65 169.3" fill="#bdb69d" fill-rule="evenodd" stroke="none"/>
    <path d="M295.85 174.3 Q296.3 175.75 297.25 176.4 L292.3 177.05 292.3 177.15 289.25 175.4 295.85 174.3" fill="#fdc951" fill-rule="evenodd" stroke="none"/>
    <path d="M289.25 175.4 L292.3 177.15 292.7 182.35 289.65 182.55 289.5 182.55 289.05 177.25 288.95 175.45 289.25 175.4" fill="#d58f1e" fill-rule="evenodd" stroke="none"/>
    <path d="M251.5 205.45 L243.2 191.15 255.35 197.65 251.5 205.45" fill="#c7bfa7" fill-rule="evenodd" stroke="none"/>
    <path d="M289.85 142.25 L290.65 146.3 284.35 144.4 277.15 145.5 277.1 145.5 277.1 145.6 276.95 146.95 276.95 147.1 279.45 149.2 279.5 147.75 280.4 149.25 281.1 147.4 281.1 150.45 284.45 152.0 284.9 149.4 285.6 152.2 291.1 148.5 291.45 150.3 285.4 154.95 274.5 150.35 271.95 144.8 289.85 142.25 M274.4 158.65 L272.6 155.8 276.3 154.55 279.35 154.7 281.8 158.0 279.15 159.7 274.4 158.65 M266.25 151.15 L269.95 149.95 270.55 151.3 269.0 153.2 266.85 152.7 266.25 151.15 M272.9 176.6 L275.55 180.05 272.4 183.1 267.35 180.5 268.15 177.7 272.9 176.6" fill="#c7c99f" fill-rule="evenodd" stroke="none"/>
    <path d="M271.7 140.7 L289.45 140.1 289.85 142.25 271.95 144.8 271.7 140.7" fill="#dedfc8" fill-rule="evenodd" stroke="none"/>
    <path d="M290.65 146.3 L291.1 148.5 285.6 152.2 284.9 149.4 284.45 152.0 281.1 150.45 281.1 147.4 280.4 149.25 279.5 147.75 279.45 149.2 276.95 147.1 276.95 146.95 277.1 145.6 277.1 145.5 277.15 145.5 284.35 144.4 290.65 146.3" fill="#b2b873" fill-rule="evenodd" stroke="none"/>
    <path d="M265.65 185.15 L266.05 185.55 268.4 186.95 270.05 187.9 281.95 187.35 285.05 183.8 285.7 182.8 287.4 182.7 287.6 185.35 283.8 189.65 270.5 190.6 266.5 188.05 265.65 185.15" fill="#c6bea6" fill-rule="evenodd" stroke="none"/>
    <path d="M281.0 174.6 L284.45 175.85 284.75 177.45 285.7 182.8 285.05 183.8 281.95 187.35 270.05 187.9 268.4 186.95 280.2 185.45 282.25 182.0 281.0 174.6" fill="#dfdbca" fill-rule="evenodd" stroke="none"/>
    <path d="M299.3 206.6 L299.6 206.6 307.25 185.55 307.1 185.4 302.85 182.65 302.2 177.85 301.8 174.5 296.15 174.25 293.25 169.55 292.55 155.95 291.45 150.3 291.1 148.5 290.65 146.3 289.85 142.25 289.45 140.1 271.7 140.7 257.55 141.2 255.95 151.7 256.1 170.95 251.75 178.9 250.8 185.25 246.8 185.5 242.65 190.25 243.2 191.15 251.5 205.45 251.55 205.5 299.3 206.6 M295.85 174.3 L296.15 174.25" fill="none" stroke="#484b5b" stroke-linecap="round" stroke-linejoin="round" stroke-opacity="0.6" stroke-width="1.0"/>
    <path d="M307.1 185.4 L298.85 190.3 293.45 193.45 299.3 206.6 M266.9 167.3 L266.65 169.3 266.55 170.1 M284.45 175.85 L283.35 169.4 282.8 166.5 266.9 167.3 267.8 160.1 259.35 154.1 M264.85 184.25 L265.25 184.7 M265.65 185.15 L266.05 185.55 M282.8 166.5 L282.0 162.0 292.55 155.95 M287.4 182.7 L285.7 182.8 285.05 183.8 M295.85 174.3 L289.25 175.4 M302.85 182.65 L301.5 181.75 292.7 182.35 289.65 182.55 289.5 182.55 287.4 182.7 M289.05 177.25 L288.95 175.45 M284.75 177.45 L284.45 175.85 M289.5 182.55 L289.05 177.25 M284.75 177.45 L285.7 182.8 M266.4 196.45 L293.45 193.45 M252.9 185.1 L250.8 185.25 M251.5 205.45 L255.35 197.65 M264.85 184.25 L253.3 185.05" ffdec:has-small-stroke="true" ffdec:original-stroke-width="0.05" fill="none" stroke="#484b5b" stroke-linecap="round" stroke-linejoin="round" stroke-opacity="0.6" stroke-width="1.0"/>
    <path d="M266.05 185.55 L268.4 186.95 270.05 187.9 281.95 187.35 285.05 183.8" ffdec:has-small-stroke="true" ffdec:original-stroke-width="0.05" fill="none" stroke="#000000" stroke-linecap="round" stroke-linejoin="round" stroke-opacity="0.6" stroke-width="1.0"/>
  </g>
</svg>
