<?xml version="1.0" encoding="UTF-8" standalone="no"?>
<svg xmlns:ffdec="https://www.free-decompiler.com/flash" xmlns:xlink="http://www.w3.org/1999/xlink" ffdec:objectType="shape" height="87.9px" width="109.85px" xmlns="http://www.w3.org/2000/svg">
  <g transform="matrix(1.0, 0.0, 0.0, 1.0, -189.7, -134.55)">
    <path d="M272.75 214.9 L268.15 213.85 265.8 211.8 265.35 208.45 270.55 205.7 271.55 205.65 271.55 207.35 271.05 207.6 Q268.45 208.95 268.45 210.9 268.45 212.8 271.05 214.2 L272.75 214.9" fill="#8f6114" fill-rule="evenodd" stroke="none"/>
    <path d="M272.55 221.25 L264.5 219.2 261.05 216.85 260.75 215.55 261.55 213.65 264.8 213.5 268.05 215.4 276.95 216.7 278.1 219.0 276.8 221.0 272.55 221.25" fill="#ffe541" fill-rule="evenodd" stroke="none"/>
    <path d="M272.45 221.8 L272.55 221.25 276.8 221.0 276.85 221.35 273.0 221.85 272.45 221.8" fill="#dfaf0b" fill-rule="evenodd" stroke="none"/>
    <path d="M285.7 205.0 L289.05 206.75 292.35 209.3 293.0 212.45 290.65 217.25 284.55 220.35 276.85 221.35 276.8 221.0 278.1 219.0 276.95 216.7 268.05 215.4 264.8 213.5 261.55 213.65 260.75 215.55 261.05 216.85 264.5 219.2 272.55 221.25 272.45 221.8 Q267.2 221.25 263.2 219.4 257.45 216.75 257.45 213.05 257.45 209.35 263.2 206.7 266.85 205.0 271.55 204.4 L271.55 205.65 270.55 205.7 265.35 208.45 265.8 211.8 268.15 213.85 272.75 214.9 274.95 215.4 277.3 215.55 Q280.95 215.55 283.55 214.2 286.1 212.8 286.1 210.9 286.1 208.95 283.55 207.6 282.85 207.2 282.0 206.95 L282.0 204.4 285.7 205.0" fill="#ffcf2b" fill-rule="evenodd" stroke="none"/>
    <path d="M276.85 221.35 L284.55 220.35 290.65 217.25 293.0 212.45 292.35 209.3 289.05 206.75 285.7 205.0 Q288.5 205.6 290.9 206.7 296.6 209.35 296.65 213.05 296.6 216.75 290.9 219.4 285.15 222.0 277.05 222.05 L273.0 221.85 276.85 221.35" fill="#b18100" fill-rule="evenodd" stroke="none"/>
    <path d="M285.7 205.0 L282.0 204.4 M282.0 206.95 Q282.85 207.2 283.55 207.6 286.1 208.95 286.1 210.9 286.1 212.8 283.55 214.2 280.95 215.55 277.3 215.55 L274.95 215.4 M271.55 204.4 Q266.85 205.0 263.2 206.7 257.45 209.35 257.45 213.05 257.45 216.75 263.2 219.4 267.2 221.25 272.45 221.8 L273.0 221.85 277.05 222.05 Q285.15 222.0 290.9 219.4 296.6 216.75 296.65 213.05 296.6 209.35 290.9 206.7 288.5 205.6 285.7 205.0 M271.55 207.35 L271.05 207.6 Q268.45 208.95 268.45 210.9 268.45 212.8 271.05 214.2 L272.75 214.9" ffdec:has-small-stroke="true" ffdec:original-stroke-width="0.8" fill="none" stroke="#5f3707" stroke-linecap="round" stroke-linejoin="round" stroke-width="1.0"/>
    <path d="M277.95 206.4 L274.3 206.4 274.3 202.05 277.95 206.4" fill="#ffcf2b" fill-rule="evenodd" stroke="none"/>
    <path d="M280.05 193.2 Q279.1 196.3 279.75 199.2 L282.4 203.95 Q280.2 205.2 277.95 206.4 L274.3 202.05 274.15 202.05 259.6 184.6 Q258.25 180.25 262.3 174.85 267.55 180.7 280.05 193.2" fill="#b18100" fill-rule="evenodd" stroke="none"/>
    <path d="M272.35 203.95 Q270.6 200.2 255.65 189.0 252.3 185.05 252.35 176.65 255.2 166.65 263.2 160.25 L283.65 156.8 289.05 164.95 289.8 166.6 Q275.4 165.85 262.3 174.85 258.25 180.25 259.6 184.6 L274.15 202.05 274.3 202.05 274.3 206.4 272.35 203.95" fill="#dfaf0b" fill-rule="evenodd" stroke="none"/>
    <path d="M289.8 166.6 Q291.85 171.9 289.65 180.55 281.9 187.25 280.05 193.2 267.55 180.7 262.3 174.85 275.4 165.85 289.8 166.6" fill="#714100" fill-rule="evenodd" stroke="none"/>
    <path d="M272.35 203.95 Q270.6 200.2 255.65 189.0 252.3 185.05 252.35 176.65 255.2 166.65 263.2 160.25 L283.65 156.8 289.05 164.95 289.8 166.6 Q291.85 171.9 289.65 180.55 281.9 187.25 280.05 193.2 279.1 196.3 279.75 199.2 L282.4 203.95" ffdec:has-small-stroke="true" ffdec:original-stroke-width="0.05" fill="none" stroke="#926030" stroke-linecap="round" stroke-linejoin="round" stroke-width="1.0"/>
    <path d="M280.3 150.8 Q280.6 150.5 281.5 150.8 281.5 151.4 281.8 152.0 L280.3 150.8 M295.35 176.35 Q295.05 176.35 295.05 176.65 294.45 176.95 294.15 177.55 L290.25 180.55 Q289.95 180.55 289.95 180.85 L289.95 180.55 290.25 180.55 289.95 180.55 289.35 181.15 289.05 181.15 285.1 180.85 Q272.2 177.55 267.4 172.15 L266.5 170.65 269.5 171.25 274.9 170.95 Q277.3 170.35 277.9 169.45 278.2 168.55 276.7 167.65 274.9 166.7 271.9 166.4 L271.6 166.4 266.5 166.7 264.7 167.3 Q261.05 165.2 260.45 160.4 261.35 159.5 262.6 158.9 L261.95 158.0 Q255.65 153.2 253.25 155.6 256.25 152.0 265.0 154.4 L265.9 154.7 268.6 154.4 268.9 153.8 269.2 152.3 Q270.1 149.3 274.3 154.4 276.4 147.2 281.8 157.4 L281.8 152.0 Q286.95 155.0 289.65 163.4 295.05 161.6 297.45 167.65 L297.45 168.25 Q297.75 173.65 295.35 176.35 M271.6 166.4 Q276.7 162.2 283.0 166.7 276.7 162.2 271.6 166.4" fill="#ffcf2b" fill-rule="evenodd" stroke="none"/>
    <path d="M289.95 180.85 Q289.65 180.85 289.35 181.15 L289.95 180.55 289.95 180.85" fill="#d1a100" fill-rule="evenodd" stroke="none"/>
    <path d="M266.5 170.65 L264.7 170.05 Q262.9 169.15 263.5 168.25 263.5 167.65 264.7 167.3 L266.5 166.7 271.6 166.4 271.9 166.4 Q274.9 166.7 276.7 167.65 278.2 168.55 277.9 169.45 277.3 170.35 274.9 170.95 L269.5 171.25 266.5 170.65" fill="#f40bae" fill-opacity="0.32156864" fill-rule="evenodd" stroke="none"/>
    <path d="M271.9 146.0 Q271.6 144.8 271.6 143.55 L271.0 141.15 280.0 150.5 271.9 146.0 M284.2 140.85 Q287.55 136.95 294.45 134.55 284.8 140.85 286.95 149.3 285.75 145.1 284.2 140.85 M293.55 157.1 L295.35 158.6 296.55 159.8 Q300.45 164.3 299.25 170.05 298.65 172.15 297.45 173.95 L295.35 176.35 Q297.75 173.65 297.45 168.25 L297.45 167.65 Q295.95 164.0 294.75 160.4 L293.55 157.1 M296.55 159.8 L294.75 160.4 296.55 159.8" fill="#ffffd7" fill-rule="evenodd" stroke="none"/>
    <path d="M258.35 179.95 L257.75 179.35 Q254.45 176.65 254.15 174.55 253.25 171.85 255.65 166.7 256.85 163.4 260.45 160.4 261.05 165.2 264.7 167.3 263.5 167.65 263.5 168.25 262.9 169.15 264.7 170.05 L266.5 170.65 267.4 172.15 Q272.2 177.55 285.1 180.85 L283.6 180.85 268.0 179.65 267.1 179.35 265.0 179.35 265.9 178.75 261.35 178.15 258.35 179.95" fill="#dfaf0b" fill-rule="evenodd" stroke="none"/>
    <path d="M271.9 184.75 Q265.0 184.45 260.15 180.85 259.25 180.25 258.35 179.95 L261.35 178.15 265.9 178.75 265.0 179.35 267.1 179.35 271.9 184.75" fill="#b18100" fill-rule="evenodd" stroke="none"/>
    <path d="M269.2 152.3 Q269.2 151.1 268.6 150.2 267.7 147.8 263.5 146.3 269.5 145.7 273.4 150.2 272.5 148.4 271.9 146.0 L280.0 150.5 280.3 150.8 281.8 152.0 Q281.5 151.4 281.5 150.8 280.3 144.8 284.2 140.85 285.75 145.1 286.95 149.3 L287.55 150.8 Q287.55 151.4 287.85 152.0 L289.65 155.3 Q290.25 155.3 290.85 155.9 L291.45 155.9 Q292.35 156.5 293.55 157.1 L294.75 160.4 Q290.85 161.3 289.65 163.4 286.95 155.0 281.8 152.0 L281.8 157.4 Q276.4 147.2 274.3 154.4 270.1 149.3 269.2 152.3 M273.4 150.2 L273.7 150.2 Q274.3 152.3 274.3 154.4 274.3 152.3 273.7 150.2 L273.4 150.2 M297.45 167.65 Q295.05 161.6 289.65 163.4 290.85 161.3 294.75 160.4 295.95 164.0 297.45 167.65" fill="#ffe541" fill-rule="evenodd" stroke="none"/>
    <path d="M289.05 181.15 Q285.1 182.65 283.0 183.85 280.6 184.75 271.9 184.75 L267.1 179.35 268.0 179.65 283.6 180.85 285.1 180.85 289.05 181.15" fill="#714100" fill-rule="evenodd" stroke="none"/>
    <path d="M291.45 155.9 Q292.35 156.5 293.55 157.1 L295.35 158.6 296.55 159.8 Q300.45 164.3 299.25 170.05 298.65 172.15 297.45 173.95 M254.15 174.55 Q253.25 171.85 255.65 166.7 256.85 163.4 260.45 160.4 261.35 159.5 262.6 158.9" ffdec:has-small-stroke="true" ffdec:original-stroke-width="0.05" fill="none" stroke="#000000" stroke-linecap="round" stroke-linejoin="round" stroke-opacity="0.4" stroke-width="1.0"/>
    <path d="M269.2 152.3 Q269.2 151.1 268.6 150.2 267.7 147.8 263.5 146.3 269.5 145.7 273.4 150.2 272.5 148.4 271.9 146.0 M271.6 143.55 L271.0 141.15 280.0 150.5 280.3 150.8 Q280.6 150.5 281.5 150.8 280.3 144.8 284.2 140.85 287.55 136.95 294.45 134.55 284.8 140.85 286.95 149.3 M287.55 150.8 Q287.55 151.4 287.85 152.0 L289.65 155.3 Q290.25 155.3 290.85 155.9 L291.45 155.9 M262.6 158.9 L261.95 158.0 Q255.65 153.2 253.25 155.6 256.25 152.0 265.0 154.4 L265.9 154.7 268.6 154.4 268.9 153.8 269.2 152.3 M274.3 154.4 Q274.3 152.3 273.7 150.2 L273.4 150.2 M280.3 150.8 L281.8 152.0 Q281.5 151.4 281.5 150.8 M281.8 152.0 L281.8 157.4" ffdec:has-small-stroke="true" ffdec:original-stroke-width="0.05" fill="none" stroke="#4d2e1a" stroke-linecap="round" stroke-linejoin="round" stroke-opacity="0.4" stroke-width="1.0"/>
    <path d="M297.45 173.95 L295.35 176.35 Q295.05 176.35 295.05 176.65 294.45 176.95 294.15 177.55 L290.25 180.55 289.95 180.55 289.35 181.15 289.05 181.15 285.1 180.85 283.6 180.85 268.0 179.65 267.1 179.35 265.0 179.35 M283.0 166.7 Q276.7 162.2 271.6 166.4 M294.75 160.4 L296.55 159.8 M294.75 160.4 Q290.85 161.3 289.65 163.4" ffdec:has-small-stroke="true" ffdec:original-stroke-width="0.05" fill="none" stroke="#926030" stroke-linecap="round" stroke-linejoin="round" stroke-width="1.0"/>
    <path d="M260.85 172.2 L259.55 176.6 Q233.65 185.8 205.75 185.4 198.95 185.85 196.3 180.6 191.25 172.85 190.15 163.25 L193.7 173.0 Q195.75 178.0 199.95 181.6 208.9 183.55 217.9 181.6 238.95 179.5 260.85 172.2" fill="#333333" fill-rule="evenodd" stroke="none"/>
    <path d="M260.85 172.2 Q238.95 179.5 217.9 181.6 208.9 183.55 199.95 181.6 195.75 178.0 193.7 173.0 L190.15 163.25 Q189.2 154.75 190.25 157.8 191.4 166.9 196.55 174.6 201.65 180.95 207.1 179.7 234.85 176.9 258.1 167.8 L260.85 172.2" fill="#666666" fill-rule="evenodd" stroke="none"/>
    <path d="M190.15 163.25 Q191.25 172.85 196.3 180.6 198.95 185.85 205.75 185.4 233.65 185.8 259.55 176.6 L260.85 172.2 258.1 167.8 Q234.85 176.9 207.1 179.7 201.65 180.95 196.55 174.6 191.4 166.9 190.25 157.8 189.2 154.75 190.15 163.25 Z" ffdec:has-small-stroke="true" ffdec:original-stroke-width="0.05" fill="none" stroke="#000000" stroke-linecap="round" stroke-linejoin="round" stroke-opacity="0.30980393" stroke-width="1.0"/>
  </g>
</svg>
