<?xml version="1.0" encoding="UTF-8" standalone="no"?>
<svg xmlns:ffdec="https://www.free-decompiler.com/flash" xmlns:xlink="http://www.w3.org/1999/xlink" ffdec:objectType="shape" height="139.6px" width="125.8px" xmlns="http://www.w3.org/2000/svg">
  <g transform="matrix(1.0, 0.0, 0.0, 1.0, -212.05, -108.3)">
    <path d="M269.2 148.6 L267.85 148.75 263.45 149.65 Q261.25 150.25 259.2 151.15 257.25 151.95 255.5 153.1 253.85 154.25 252.45 155.7 251.1 157.05 250.15 158.7 L249.35 157.25 247.65 154.2 245.85 150.9 244.3 147.2 243.3 143.25 242.8 139.1 Q242.6 136.4 242.95 133.7 L243.4 131.15 245.2 130.85 Q262.15 132.25 269.2 148.6 M259.85 159.7 Q260.75 158.85 262.0 158.45 L265.85 165.0 266.6 166.45 266.7 166.65 Q271.2 163.5 269.6 156.4 271.9 164.75 267.3 167.85 L269.65 173.05 Q274.85 169.95 273.25 163.0 275.5 170.95 270.3 174.8 L270.35 174.85 Q276.15 190.95 268.3 199.75 L267.75 199.0 Q273.9 190.65 268.25 175.85 L268.0 176.0 Q263.2 178.7 254.65 172.7 262.1 177.5 266.9 174.85 267.25 174.65 267.7 174.4 L264.5 167.7 Q260.35 170.75 251.2 167.0 259.65 170.1 263.75 166.3 L259.85 159.7 M253.0 136.9 Q251.95 136.85 251.55 137.85 251.0 139.25 251.7 140.45 L251.8 140.6 252.0 140.65 252.7 140.75 252.8 140.75 Q253.65 140.8 254.2 140.25 255.35 139.2 254.55 137.85 254.05 136.95 253.0 136.9 M230.45 163.8 L230.85 163.25 232.5 161.25 Q241.35 171.15 239.9 175.0 L239.1 178.0 238.25 180.55 237.3 182.95 235.65 185.8 235.45 186.1 235.2 186.1 Q234.5 186.1 229.6 188.1 224.65 190.15 212.35 174.7 222.35 168.8 229.5 176.0 L230.3 176.85 Q230.6 177.1 230.8 176.85 L230.75 176.4 230.75 176.25 230.65 175.7 230.25 172.55 229.95 169.2 230.0 167.05 230.45 163.8" fill="#dbdeba" fill-rule="evenodd" stroke="none"/>
    <path d="M253.0 136.9 Q254.05 136.95 254.55 137.85 255.35 139.2 254.2 140.25 253.65 140.8 252.8 140.75 L252.7 140.75 252.0 140.65 251.8 140.6 251.7 140.45 Q251.0 139.25 251.55 137.85 251.95 136.85 253.0 136.9" fill="#000000" fill-rule="evenodd" stroke="none"/>
    <path d="M243.4 131.15 L242.95 133.7 Q242.6 136.4 242.8 139.1 L243.3 143.25 244.3 147.2 245.85 150.9 247.65 154.2 249.35 157.25 250.15 158.7 Q251.1 157.05 252.45 155.7 253.85 154.25 255.5 153.1 257.25 151.95 259.2 151.15 261.25 150.25 263.45 149.65 L267.85 148.75 269.2 148.6 271.1 153.9 Q270.9 156.55 259.55 154.6 L259.5 154.65 259.6 154.7 262.0 158.45 Q260.75 158.85 259.85 159.7 L257.2 155.7 256.4 156.2 Q253.3 165.65 250.15 165.6 L249.9 165.55 249.85 165.55 249.75 165.5 247.9 163.3 Q234.25 146.3 241.6 133.2 L241.75 132.8 Q242.3 131.6 243.4 131.15 M232.5 161.25 L233.6 160.15 233.65 160.15 Q244.65 171.15 241.1 179.8 240.25 181.85 238.5 183.85 L238.45 183.9 242.25 189.5 240.6 191.05 235.9 186.05 235.45 186.1 235.65 185.8 237.3 182.95 238.25 180.55 239.1 178.0 239.9 175.0 Q241.35 171.15 232.5 161.25 M230.45 163.8 L230.0 167.05 229.95 169.2 230.25 172.55 230.65 175.7 230.75 176.25 230.75 176.4 230.8 176.85 Q230.6 177.1 230.3 176.85 L229.5 176.0 Q226.65 169.55 230.45 163.8" fill="#919f79" fill-rule="evenodd" stroke="none"/>
    <path d="M269.2 148.6 Q262.15 132.25 245.2 130.85 L243.4 131.15 Q242.3 131.6 241.75 132.8 L241.6 133.2 Q234.25 146.3 247.9 163.3 L249.75 165.5 249.85 165.55 249.9 165.55 250.15 165.6 Q253.3 165.65 256.4 156.2 L257.2 155.7 259.85 159.7 263.75 166.3 Q259.65 170.1 251.2 167.0 260.35 170.75 264.5 167.7 L267.7 174.4 Q267.25 174.65 266.9 174.85 262.1 177.5 254.65 172.7 263.2 178.7 268.0 176.0 L268.25 175.85 Q273.9 190.65 267.75 199.0 L268.3 199.75 Q276.15 190.95 270.35 174.85 L270.3 174.8 Q275.5 170.95 273.25 163.0 274.85 169.95 269.65 173.05 L267.3 167.85 Q271.9 164.75 269.6 156.4 271.2 163.5 266.7 166.65 L266.6 166.45 265.85 165.0 262.0 158.45 259.6 154.7 259.5 154.65 M259.55 154.6 Q270.9 156.55 271.1 153.9 L269.2 148.6 M259.6 154.7 L260.7 154.85 259.55 154.6 M230.45 163.8 L230.85 163.25 232.5 161.25 233.6 160.15 233.65 160.15 Q244.65 171.15 241.1 179.8 240.25 181.85 238.5 183.85 L238.45 183.9 242.25 189.5 243.15 190.8 M235.45 186.1 L235.9 186.05 240.6 191.05 240.95 191.45 M229.5 176.0 Q222.35 168.8 212.35 174.7 224.65 190.15 229.6 188.1 234.5 186.1 235.2 186.1 L235.45 186.1 M229.5 176.0 Q226.65 169.55 230.45 163.8" ffdec:has-small-stroke="true" ffdec:original-stroke-width="0.6" fill="none" stroke="#35424a" stroke-linecap="round" stroke-linejoin="round" stroke-width="1.0"/>
    <path d="M279.2 118.95 Q280.75 112.05 287.35 108.6 L287.6 108.6 Q289.1 108.55 290.25 109.05 L290.35 109.1 Q288.25 113.55 288.8 121.5 289.0 124.65 291.8 133.45 293.25 138.2 301.7 147.35 312.35 159.0 318.15 169.0 L318.5 169.6 Q324.9 183.6 323.9 194.6 323.2 202.7 318.1 210.25 310.4 221.7 284.5 218.25 279.6 217.25 275.4 212.7 L277.5 199.9 288.45 198.75 Q287.5 199.6 287.6 200.2 L287.65 200.3 287.8 200.5 287.8 200.55 288.05 200.65 288.15 200.75 288.7 201.05 288.55 202.3 288.6 202.75 288.6 202.8 Q288.95 203.3 290.35 203.2 291.8 203.05 293.6 202.2 295.45 201.4 296.55 200.4 297.4 199.55 297.4 199.0 L297.35 198.8 297.3 198.75 Q297.15 198.5 296.8 198.4 296.25 197.9 296.25 197.2 L296.25 197.15 296.4 196.45 296.4 196.35 296.05 196.0 Q298.85 194.55 300.75 192.6 L300.8 192.65 301.05 192.75 301.1 192.75 301.35 192.7 301.5 192.65 302.15 192.55 302.75 193.65 303.1 194.0 303.15 194.0 Q303.7 194.2 304.7 193.25 L306.7 190.4 Q307.6 188.6 307.85 187.15 308.0 185.95 307.65 185.55 L307.45 185.4 307.4 185.4 306.8 185.45 Q306.05 185.4 305.6 184.8 L305.25 184.15 305.2 184.1 304.65 184.05 304.55 180.5 303.6 176.0 303.9 176.0 304.05 175.95 304.25 175.8 304.4 175.55 304.45 175.45 304.8 174.9 306.0 175.05 306.5 175.05 306.55 175.0 Q307.05 174.7 306.95 173.3 306.8 171.8 306.0 170.0 305.15 168.1 304.2 167.05 303.35 166.1 302.8 166.15 L302.6 166.2 302.55 166.25 Q302.3 166.35 302.2 166.75 301.7 167.25 301.0 167.25 L300.95 167.25 300.2 167.1 300.15 167.15 300.1 167.15 300.05 167.2 Q297.8 162.7 294.5 157.6 L295.25 157.7 295.6 157.65 295.65 157.65 Q296.0 157.4 295.95 156.35 L295.2 153.9 Q294.6 152.5 293.85 151.7 293.25 151.0 292.85 151.05 L292.65 151.1 292.35 151.5 291.45 151.85 290.9 151.75 290.85 151.75 290.85 151.8 290.65 151.9 284.25 143.25 283.05 141.0 283.15 140.9 283.4 140.6 284.15 140.85 284.45 140.9 284.5 140.9 Q284.9 140.75 285.0 139.8 L284.75 137.55 Q284.45 136.25 283.95 135.45 L283.15 134.7 283.0 134.7 282.95 134.7 282.65 135.0 281.8 135.2 281.35 135.0 281.3 135.0 Q281.0 135.1 280.85 135.6 279.8 132.4 279.2 129.05 278.8 126.85 278.75 124.85 L278.85 124.8 278.95 124.7 279.3 124.45 280.0 124.9 280.25 125.0 280.3 125.0 Q280.7 124.95 281.0 124.1 L281.3 121.85 281.0 119.6 Q280.75 118.8 280.4 118.65 L280.25 118.65 Q280.05 118.65 279.9 118.85 L279.2 118.95 M286.5 118.2 L286.35 118.2 Q286.15 118.2 286.0 118.4 285.55 118.6 285.1 118.4 L284.7 118.1 284.65 118.1 Q284.2 118.1 283.9 119.05 283.55 119.95 283.6 121.3 283.55 122.6 283.9 123.55 284.15 124.35 284.55 124.45 L284.65 124.45 284.8 124.45 284.8 124.4 284.95 124.35 285.05 124.25 285.4 124.0 286.1 124.45 286.35 124.55 286.4 124.55 Q286.8 124.5 287.1 123.65 L287.4 121.4 287.1 119.15 Q286.85 118.35 286.5 118.2 M288.75 139.55 L289.0 139.25 289.75 139.5 290.05 139.55 290.1 139.55 Q290.5 139.4 290.6 138.45 L290.35 136.2 Q290.05 134.9 289.55 134.1 289.1 133.4 288.75 133.35 L288.6 133.35 288.55 133.35 288.25 133.65 Q287.85 133.95 287.4 133.85 L286.95 133.65 286.9 133.65 Q286.45 133.75 286.4 134.75 286.3 135.7 286.6 137.0 286.9 138.3 287.45 139.15 287.9 139.85 288.3 139.85 L288.4 139.85 288.5 139.8 288.55 139.8 288.55 139.75 288.65 139.65 288.75 139.55 M309.85 162.8 L309.65 162.85 309.6 162.9 Q309.35 163.0 309.25 163.4 308.75 163.9 308.05 163.9 L308.0 163.9 307.25 163.75 307.2 163.8 307.15 163.8 Q306.55 164.05 306.7 165.55 306.85 167.0 307.65 168.85 308.45 170.7 309.5 171.8 310.35 172.75 310.95 172.65 L311.1 172.6 311.3 172.45 311.45 172.2 311.5 172.1 311.85 171.55 313.05 171.7 313.55 171.7 313.6 171.65 Q314.1 171.35 314.0 169.95 313.85 168.45 313.05 166.65 312.2 164.75 311.25 163.7 310.4 162.75 309.85 162.8 M314.95 187.45 L314.6 186.8 314.55 186.75 Q313.95 186.45 312.9 187.45 311.85 188.5 310.9 190.3 310.0 192.1 309.8 193.55 309.6 194.85 310.05 195.25 L310.15 195.3 310.4 195.4 310.45 195.4 310.7 195.35 310.85 195.3 311.5 195.2 312.1 196.3 312.45 196.65 312.5 196.65 Q313.05 196.85 314.05 195.9 315.1 194.85 316.05 193.05 L317.2 189.8 Q317.35 188.6 317.0 188.2 L316.8 188.05 316.75 188.05 316.15 188.1 Q315.4 188.05 314.95 187.45 M300.05 155.3 L300.25 154.9 301.2 155.05 301.55 155.0 301.6 155.0 Q301.95 154.75 301.9 153.7 L301.15 151.25 Q300.55 149.85 299.8 149.05 299.2 148.35 298.8 148.4 L298.6 148.45 298.3 148.85 Q297.95 149.2 297.4 149.2 L296.85 149.1 296.8 149.1 296.8 149.15 Q296.35 149.3 296.45 150.4 296.5 151.5 297.15 152.9 297.75 154.25 298.5 155.1 299.2 155.8 299.6 155.75 L299.7 155.7 299.85 155.6 299.95 155.4 300.05 155.3 M305.9 206.3 Q305.75 206.05 305.4 206.0 304.8 205.5 304.8 204.8 L304.9 204.05 304.9 203.95 Q304.55 203.4 303.15 203.6 301.65 203.8 299.85 204.7 298.05 205.6 297.05 206.65 296.1 207.6 296.25 208.15 L296.3 208.3 296.45 208.5 296.5 208.5 296.7 208.65 296.85 208.7 297.4 209.0 297.3 210.25 297.35 210.7 297.4 210.75 Q297.7 211.25 299.1 211.05 L302.35 209.95 Q304.15 209.0 305.2 208.0 306.05 207.1 306.0 206.55 L305.95 206.35 305.9 206.3" fill="url(#gradient0)" fill-rule="evenodd" stroke="none"/>
    <path d="M290.35 109.1 Q293.15 110.4 293.0 115.3 291.3 122.05 304.2 136.95 310.65 144.45 317.55 150.65 333.4 165.6 336.7 181.5 339.9 196.85 330.9 210.65 327.55 216.15 319.75 220.4 304.2 228.9 281.7 223.25 L275.2 213.85 275.4 212.7 Q279.6 217.25 284.5 218.25 310.4 221.7 318.1 210.25 323.2 202.7 323.9 194.6 324.9 183.6 318.5 169.6 L318.15 169.0 Q312.35 159.0 301.7 147.35 293.25 138.2 291.8 133.45 289.0 124.65 288.8 121.5 288.25 113.55 290.35 109.1 M291.35 126.4 L291.35 127.15 Q291.5 129.0 292.1 130.75 L292.8 132.4 294.75 135.75 296.85 138.35 298.4 140.0 301.25 142.55 301.3 142.55 302.1 143.05 Q302.9 143.3 303.6 143.8 L304.95 144.75 306.1 145.05 305.9 144.55 Q305.0 143.15 303.75 142.0 L300.65 139.1 Q299.35 137.75 298.35 136.15 L297.3 134.5 295.8 132.05 294.75 130.4 293.0 127.75 292.3 126.65 291.4 125.95 291.35 126.4" fill="url(#gradient1)" fill-rule="evenodd" stroke="none"/>
    <path d="M288.45 198.7 Q289.5 197.7 291.35 196.85 293.2 196.05 294.65 195.9 L296.05 196.0 296.4 196.35 296.4 196.45 296.25 197.15 296.25 197.2 Q296.25 197.9 296.8 198.4 297.15 198.5 297.3 198.75 L297.4 199.0 Q297.4 199.55 296.55 200.4 295.45 201.4 293.6 202.2 291.8 203.05 290.35 203.2 288.95 203.3 288.6 202.8 L288.55 202.3 288.7 201.05 288.15 200.75 288.2 200.7 289.4 200.75 289.95 200.7 289.4 200.75 288.2 200.7 288.05 200.65 287.8 200.55 287.8 200.5 287.65 200.3 287.6 200.2 Q287.5 199.6 288.45 198.75 L288.45 198.7 M300.75 192.6 L300.7 192.6 Q300.25 192.2 300.45 190.9 300.65 189.45 301.55 187.65 302.5 185.85 303.55 184.8 304.15 184.2 304.65 184.05 L305.2 184.1 305.25 184.15 305.6 184.8 Q306.05 185.4 306.8 185.45 L307.4 185.4 307.65 185.55 Q308.0 185.95 307.85 187.15 307.6 188.6 306.7 190.4 L304.7 193.25 Q303.7 194.2 303.15 194.0 L302.75 193.65 302.15 192.55 301.5 192.65 302.45 191.95 302.85 191.5 302.45 191.95 301.5 192.65 301.35 192.7 301.1 192.75 301.05 192.75 300.8 192.65 300.75 192.6 M303.6 176.0 L302.45 175.15 Q301.4 174.05 300.6 172.2 299.8 170.35 299.65 168.9 299.55 167.5 300.05 167.2 L300.1 167.15 300.15 167.15 300.2 167.1 300.95 167.25 301.0 167.3 301.0 167.25 Q301.7 167.25 302.2 166.75 302.3 166.35 302.55 166.25 L302.8 166.15 Q303.35 166.1 304.2 167.05 305.15 168.1 306.0 170.0 306.8 171.8 306.95 173.3 307.05 174.7 306.55 175.0 L306.0 175.05 304.8 174.9 304.45 175.45 304.45 175.4 304.5 174.2 304.4 173.65 304.5 174.2 304.45 175.4 304.4 175.55 304.25 175.8 304.05 175.95 303.9 176.0 303.6 176.0 M294.0 158.05 L293.9 158.25 293.75 158.35 293.65 158.4 Q293.25 158.45 292.55 157.75 291.8 156.9 291.2 155.55 290.55 154.15 290.5 153.05 290.4 152.2 290.65 151.9 L290.85 151.8 290.85 151.75 290.9 151.75 291.45 151.85 292.35 151.5 292.65 151.1 292.85 151.05 Q293.25 151.0 293.85 151.7 294.6 152.5 295.2 153.9 L295.95 156.35 Q296.0 157.4 295.65 157.65 L295.6 157.65 295.25 157.7 294.5 157.6 294.1 156.95 294.1 157.05 294.05 157.95 294.0 158.05 M283.05 141.0 L282.95 141.1 282.95 141.15 282.9 141.15 282.8 141.2 282.7 141.2 Q282.3 141.2 281.85 140.5 281.3 139.65 281.0 138.35 280.7 137.05 280.8 136.1 L280.85 135.6 Q281.0 135.1 281.3 135.0 L281.35 135.0 281.8 135.2 282.65 135.0 282.95 134.7 283.0 134.7 283.15 134.7 283.95 135.45 Q284.45 136.25 284.75 137.55 L285.0 139.8 Q284.9 140.75 284.5 140.9 L284.45 140.9 284.15 140.85 283.4 140.6 283.15 140.9 283.1 140.9 283.05 140.9 283.05 141.0 M278.7 124.85 L278.7 124.9 278.55 124.9 278.45 124.9 Q278.05 124.8 277.8 124.0 277.45 123.05 277.5 121.75 277.45 120.4 277.8 119.5 278.1 118.55 278.55 118.55 L278.6 118.55 279.0 118.85 279.2 118.95 279.9 118.85 Q280.05 118.65 280.25 118.65 L280.4 118.65 Q280.75 118.8 281.0 119.6 L281.3 121.85 281.0 124.1 Q280.7 124.95 280.3 125.0 L280.0 124.9 279.3 124.45 278.95 124.7 279.3 124.0 279.4 123.65 279.3 124.0 278.95 124.7 278.85 124.8 278.75 124.8 278.7 124.85 M286.35 118.2 L286.5 118.2 Q286.85 118.35 287.1 119.15 L287.4 121.4 287.1 123.65 Q286.8 124.5 286.4 124.55 L286.1 124.45 285.4 124.0 285.05 124.25 285.4 123.55 285.5 123.2 285.4 123.55 285.05 124.25 284.95 124.35 284.8 124.4 284.8 124.45 284.65 124.45 284.55 124.45 Q284.15 124.35 283.9 123.55 283.55 122.6 283.6 121.3 283.55 119.95 283.9 119.05 284.2 118.1 284.65 118.1 L284.7 118.1 285.1 118.4 Q285.55 118.6 286.0 118.4 286.15 118.2 286.35 118.2 M285.1 118.45 L285.1 118.4 285.1 118.45 285.4 119.05 285.5 119.5 285.4 119.05 285.1 118.45 M285.5 123.2 L285.7 121.3 285.5 119.5 285.3 121.4 285.5 123.2 M279.0 118.9 L279.0 118.85 279.0 118.9 279.15 119.15 279.3 119.5 279.4 119.95 279.3 119.5 279.15 119.15 279.0 118.9 M279.4 123.65 L279.6 121.75 279.4 119.95 279.2 121.85 279.4 123.65 M288.65 139.65 L288.55 139.75 288.55 139.8 288.5 139.8 288.4 139.85 288.3 139.85 Q287.9 139.85 287.45 139.15 286.9 138.3 286.6 137.0 286.3 135.7 286.4 134.75 286.45 133.75 286.9 133.65 L286.95 133.65 287.4 133.85 Q287.85 133.95 288.25 133.65 L288.55 133.35 288.6 133.35 288.75 133.35 Q289.1 133.4 289.55 134.1 290.05 134.9 290.35 136.2 L290.6 138.45 Q290.5 139.4 290.1 139.55 L290.05 139.55 289.75 139.5 289.0 139.25 288.75 139.55 288.7 139.55 288.65 139.65 M288.9 138.4 L288.9 138.8 288.7 139.55 288.9 138.8 288.9 138.4 288.65 136.5 288.05 134.8 288.3 136.7 288.9 138.4 M287.4 133.85 L287.8 134.4 288.05 134.8 287.8 134.4 287.4 133.85 M283.3 139.75 L283.3 140.15 283.1 140.9 283.3 140.15 283.3 139.75 283.05 137.85 282.45 136.15 282.7 138.05 283.3 139.75 M281.8 135.2 L282.2 135.75 282.45 136.15 282.2 135.75 281.8 135.2 M309.6 162.9 L309.85 162.8 Q310.4 162.75 311.25 163.7 312.2 164.75 313.05 166.65 313.85 168.45 314.0 169.95 314.1 171.35 313.6 171.65 L313.05 171.7 311.85 171.55 311.5 172.1 311.5 172.05 311.55 170.85 311.45 170.3 311.55 170.85 311.5 172.05 311.45 172.2 311.3 172.45 311.1 172.6 310.95 172.65 Q310.35 172.75 309.5 171.8 308.45 170.7 307.65 168.85 306.85 167.0 306.7 165.55 306.55 164.05 307.15 163.8 L307.2 163.8 307.25 163.75 308.0 163.9 308.05 163.95 308.05 163.9 Q308.75 163.9 309.25 163.4 309.35 163.0 309.6 162.9 M309.25 165.15 L308.8 164.6 308.05 163.95 308.8 164.6 309.25 165.15 Q309.45 166.4 310.1 167.9 310.7 169.3 311.45 170.3 L310.6 167.55 309.25 165.15 M314.95 187.45 Q315.4 188.05 316.15 188.1 L316.75 188.05 317.0 188.2 Q317.35 188.6 317.2 189.8 L316.05 193.05 Q315.1 194.85 314.05 195.9 313.05 196.85 312.5 196.65 L312.1 196.3 311.5 195.2 310.85 195.3 311.8 194.6 312.2 194.15 313.8 191.75 314.8 189.2 314.9 188.5 314.95 187.5 314.95 187.45 M298.8 148.4 Q299.2 148.35 299.8 149.05 300.55 149.85 301.15 151.25 L301.9 153.7 Q301.95 154.75 301.6 155.0 L301.55 155.0 301.2 155.05 300.25 154.9 300.05 155.3 300.0 155.3 300.05 154.4 300.0 154.0 300.05 154.4 300.0 155.3 299.95 155.4 299.85 155.6 299.7 155.7 299.6 155.75 Q299.2 155.8 298.5 155.1 297.75 154.25 297.15 152.9 296.5 151.5 296.45 150.4 296.35 149.3 296.8 149.15 L296.85 149.1 297.4 149.2 Q297.95 149.2 298.3 148.85 L298.6 148.45 298.8 148.4 M291.45 151.85 L291.45 151.9 291.45 151.85 M292.35 152.8 L292.05 152.4 291.45 151.9 292.05 152.4 292.35 152.8 293.05 154.85 294.05 156.65 293.4 154.6 292.35 152.8 M294.1 156.95 L294.05 156.65 294.1 156.95 M297.4 149.2 L297.4 149.25 297.4 149.2 M298.3 150.15 L298.0 149.75 297.4 149.25 298.0 149.75 298.3 150.15 299.0 152.2 300.0 154.0 299.35 151.95 298.3 150.15 M302.2 168.5 L301.75 167.95 301.0 167.3 301.75 167.95 302.2 168.5 Q302.4 169.75 303.05 171.25 303.65 172.65 304.4 173.65 L303.55 170.9 302.2 168.5 M305.45 186.55 L305.55 185.85 305.6 184.85 305.6 184.8 305.6 184.85 305.55 185.85 305.45 186.55 Q304.6 187.5 303.85 188.95 303.1 190.3 302.85 191.5 L304.45 189.1 305.45 186.55 M289.95 200.7 L292.7 199.8 295.05 198.4 292.3 199.3 Q290.9 199.95 289.95 200.7 M296.25 197.2 L295.6 197.95 295.05 198.4 295.6 197.95 296.25 197.2 M296.7 208.65 L296.5 208.5 296.45 208.5 296.3 208.3 296.25 208.15 Q296.1 207.6 297.05 206.65 298.05 205.6 299.85 204.7 301.65 203.8 303.15 203.6 304.55 203.4 304.9 203.95 L304.9 204.05 304.8 204.8 Q304.8 205.5 305.4 206.0 305.75 206.05 305.9 206.3 L306.0 206.55 Q306.05 207.1 305.2 208.0 304.15 209.0 302.35 209.95 L299.1 211.05 Q297.7 211.25 297.4 210.75 L297.3 210.25 297.4 209.0 296.85 208.7 296.9 208.7 296.7 208.65 M298.6 208.55 L298.05 208.65 296.9 208.7 298.05 208.65 298.6 208.55 301.3 207.55 303.6 206.1 Q302.35 206.35 300.95 207.1 L298.6 208.55 M304.8 204.8 L304.75 204.8 304.15 205.6 303.6 206.1 304.15 205.6 304.75 204.8 304.8 204.8" fill="#cc9966" fill-rule="evenodd" stroke="none"/>
    <path d="M280.3 125.0 L280.25 125.0 280.0 124.9 280.3 125.0 M278.95 124.7 L278.85 124.8 278.75 124.85 278.75 124.8 278.85 124.8 278.95 124.7 M285.1 118.4 L285.1 118.45 285.1 118.4 M285.5 119.5 L285.7 121.3 285.5 123.2 285.3 121.4 285.5 119.5 M286.1 124.45 L286.4 124.55 286.35 124.55 286.1 124.45 M279.4 119.95 L279.6 121.75 279.4 123.65 279.2 121.85 279.4 119.95 M284.95 124.35 L285.05 124.25 284.95 124.35 M288.75 139.55 L288.65 139.65 288.7 139.55 288.75 139.55 M288.9 138.4 L288.3 136.7 288.05 134.8 288.65 136.5 288.9 138.4 M283.15 140.9 L283.05 141.0 283.05 140.9 283.1 140.9 283.15 140.9 M283.3 139.75 L282.7 138.05 282.45 136.15 283.05 137.85 283.3 139.75 M283.05 141.0 L283.1 140.9 283.05 141.0 M309.85 162.8 L309.6 162.9 309.65 162.85 309.85 162.8 M308.05 163.9 L308.05 163.95 308.0 163.9 308.05 163.9 M309.25 165.15 L310.6 167.55 311.45 170.3 Q310.7 169.3 310.1 167.9 309.45 166.4 309.25 165.15 M311.5 172.05 L311.5 172.1 311.45 172.2 311.5 172.05 M313.05 171.7 L313.6 171.65 313.55 171.7 313.05 171.7 M316.75 188.05 L316.8 188.05 317.0 188.2 316.75 188.05 M312.5 196.65 L312.45 196.65 312.1 196.3 312.5 196.65 M310.85 195.3 L310.7 195.35 310.85 195.3 M312.2 194.15 Q312.45 192.95 313.2 191.6 313.95 190.15 314.8 189.2 L313.8 191.75 312.2 194.15 M300.05 155.3 L299.95 155.4 300.0 155.3 300.05 155.3 M296.8 149.15 L296.8 149.1 296.85 149.1 296.8 149.15 M298.6 148.45 L298.8 148.4 298.6 148.45 M292.65 151.1 L292.85 151.05 292.65 151.1 M291.45 151.9 L291.45 151.85 291.45 151.9 M292.35 152.8 L293.4 154.6 294.05 156.65 293.05 154.85 292.35 152.8 M297.4 149.25 L297.4 149.2 297.4 149.25 M298.3 150.15 L299.35 151.95 300.0 154.0 299.0 152.2 298.3 150.15 M306.55 175.0 L306.5 175.05 306.0 175.05 306.55 175.0 M304.45 175.45 L304.4 175.55 304.45 175.4 304.45 175.45 M302.8 166.15 L302.55 166.25 302.6 166.2 302.8 166.15 M301.0 167.25 L301.0 167.3 300.95 167.25 301.0 167.25 M302.2 168.5 L303.55 170.9 304.4 173.65 Q303.65 172.65 303.05 171.25 302.4 169.75 302.2 168.5 M307.4 185.4 L307.45 185.4 307.65 185.55 307.4 185.4 M303.15 194.0 L303.1 194.0 302.75 193.65 303.15 194.0 M301.5 192.65 L301.35 192.7 301.5 192.65 M305.45 186.55 L304.45 189.1 302.85 191.5 Q303.1 190.3 303.85 188.95 304.6 187.5 305.45 186.55 M296.25 197.15 L296.25 197.2 296.25 197.15 M297.3 198.75 L297.35 198.8 297.4 199.0 297.3 198.75 M288.6 202.8 L288.6 202.75 288.55 202.3 288.6 202.8 M288.15 200.75 L288.05 200.65 288.2 200.7 288.15 200.75 M295.05 198.4 L292.7 199.8 289.95 200.7 Q290.9 199.95 292.3 199.3 L295.05 198.4 M305.9 206.3 L305.95 206.35 306.0 206.55 305.9 206.3 M297.4 210.75 L297.35 210.7 297.3 210.25 297.4 210.75 M296.85 208.7 L296.7 208.65 296.9 208.7 296.85 208.7 M298.6 208.55 L300.95 207.1 Q302.35 206.35 303.6 206.1 L301.3 207.55 298.6 208.55" fill="#dec0a5" fill-rule="evenodd" stroke="none"/>
    <path d="M291.35 126.4 L291.4 125.95 292.3 126.65 293.0 127.75 294.75 130.4 295.8 132.05 297.3 134.5 298.35 136.15 Q299.35 137.75 300.65 139.1 L303.75 142.0 Q305.0 143.15 305.9 144.55 L306.1 145.05 304.95 144.75 303.6 143.8 Q302.9 143.3 302.1 143.05 L301.3 142.55 301.25 142.55 298.4 140.0 296.85 138.35 294.75 135.75 292.8 132.4 292.1 130.75 Q291.5 129.0 291.35 127.15 L291.35 126.4" fill="url(#gradient2)" fill-rule="evenodd" stroke="none"/>
    <path d="M310.7 195.35 L310.45 195.4 310.4 195.4 310.15 195.3 310.05 195.25 Q309.6 194.85 309.8 193.55 310.0 192.1 310.9 190.3 311.85 188.5 312.9 187.45 313.95 186.45 314.55 186.75 L314.6 186.8 314.95 187.45 314.95 187.5 314.9 188.5 314.8 189.2 Q313.95 190.15 313.2 191.6 312.45 192.95 312.2 194.15 L311.8 194.6 310.85 195.3 310.7 195.35" fill="#996633" fill-rule="evenodd" stroke="none"/>
    <path d="M279.2 118.95 Q280.75 112.05 287.35 108.6 L287.6 108.6 Q289.1 108.55 290.25 109.05 L290.35 109.1 Q293.15 110.4 293.0 115.3 291.3 122.05 304.2 136.95 310.65 144.45 317.55 150.65 333.4 165.6 336.7 181.5 339.9 196.85 330.9 210.65 327.55 216.15 319.75 220.4 304.2 228.9 281.7 223.25 L275.2 213.85 275.4 212.7 277.5 199.9 288.45 198.75 288.45 198.7 Q289.5 197.7 291.35 196.85 293.2 196.05 294.65 195.9 L296.05 196.0 Q298.85 194.55 300.75 192.6 L300.7 192.6 Q300.25 192.2 300.45 190.9 300.65 189.45 301.55 187.65 302.5 185.85 303.55 184.8 304.15 184.2 304.65 184.05 L304.55 180.5 303.6 176.0 302.45 175.15 Q301.4 174.05 300.6 172.2 299.8 170.35 299.65 168.9 299.55 167.5 300.05 167.2 297.8 162.7 294.5 157.6 L294.3 157.55 294.0 158.05 293.9 158.25 293.75 158.35 293.65 158.4 Q293.25 158.45 292.55 157.75 291.8 156.9 291.2 155.55 290.55 154.15 290.5 153.05 290.4 152.2 290.65 151.9 L284.25 143.25 283.05 141.0 282.95 141.1 282.95 141.15 282.9 141.15 282.8 141.2 282.7 141.2 Q282.3 141.2 281.85 140.5 281.3 139.65 281.0 138.35 280.7 137.05 280.8 136.1 L280.85 135.6 Q279.8 132.4 279.2 129.05 278.8 126.85 278.75 124.85 L278.7 124.85 278.7 124.9 278.55 124.9 278.45 124.9 Q278.05 124.8 277.8 124.0 277.45 123.05 277.5 121.75 277.45 120.4 277.8 119.5 278.1 118.55 278.55 118.55 L278.6 118.55 279.0 118.85 279.2 118.95 279.9 118.85 Q280.05 118.65 280.25 118.65 L280.4 118.65 Q280.75 118.8 281.0 119.6 L281.3 121.85 281.0 124.1 Q280.7 124.95 280.3 125.0 L280.25 125.0 280.0 124.9 279.3 124.45 278.95 124.7 278.85 124.8 278.75 124.85 M286.35 118.2 L286.5 118.2 286.35 118.2 Q286.15 118.2 286.0 118.4 285.55 118.6 285.1 118.4 L285.1 118.45 285.4 119.05 285.5 119.5 285.7 121.3 285.5 123.2 285.4 123.55 285.05 124.25 285.4 124.0 286.1 124.45 286.4 124.55 Q286.8 124.5 287.1 123.65 L287.4 121.4 287.1 119.15 Q286.85 118.35 286.5 118.2 M284.95 124.35 L284.8 124.4 284.8 124.45 284.65 124.45 284.55 124.45 Q284.15 124.35 283.9 123.55 283.55 122.6 283.6 121.3 283.55 119.95 283.9 119.05 284.2 118.1 284.65 118.1 L284.7 118.1 285.1 118.4 M285.5 123.2 L285.3 121.4 285.5 119.5 M279.0 118.85 L279.0 118.9 279.15 119.15 279.3 119.5 279.4 119.95 279.6 121.75 279.4 123.65 279.3 124.0 278.95 124.7 278.85 124.8 M280.4 118.65 L280.25 118.65 M279.4 123.65 L279.2 121.85 279.4 119.95 M280.0 124.9 L280.3 125.0 M286.4 124.55 L286.35 124.55 286.1 124.45 M285.05 124.25 L284.95 124.35 285.05 124.25 M288.65 139.65 L288.55 139.75 288.55 139.8 288.5 139.8 288.4 139.85 288.3 139.85 Q287.9 139.85 287.45 139.15 286.9 138.3 286.6 137.0 286.3 135.7 286.4 134.75 286.45 133.75 286.9 133.65 L286.95 133.65 287.4 133.85 Q287.85 133.95 288.25 133.65 L288.55 133.35 288.6 133.35 288.75 133.35 Q289.1 133.4 289.55 134.1 290.05 134.9 290.35 136.2 L290.6 138.45 Q290.5 139.4 290.1 139.55 L290.05 139.55 289.75 139.5 289.0 139.25 288.75 139.55 288.65 139.65 288.7 139.55 288.9 138.8 288.9 138.4 288.3 136.7 288.05 134.8 287.8 134.4 287.4 133.85 M280.85 135.6 Q281.0 135.1 281.3 135.0 L281.35 135.0 281.8 135.2 282.65 135.0 282.95 134.7 283.0 134.7 283.15 134.7 283.95 135.45 Q284.45 136.25 284.75 137.55 L285.0 139.8 Q284.9 140.75 284.5 140.9 L284.45 140.9 284.15 140.85 283.4 140.6 283.15 140.9 283.05 141.0 283.1 140.9 283.3 140.15 283.3 139.75 282.7 138.05 282.45 136.15 282.2 135.75 281.8 135.2 M282.45 136.15 L283.05 137.85 283.3 139.75 M288.05 134.8 L288.65 136.5 288.9 138.4 M309.6 162.9 L309.85 162.8 309.65 162.85 309.6 162.9 Q309.35 163.0 309.25 163.4 308.75 163.9 308.05 163.9 L308.0 163.9 307.25 163.75 307.2 163.8 307.15 163.8 Q306.55 164.05 306.7 165.55 306.85 167.0 307.65 168.85 308.45 170.7 309.5 171.8 310.35 172.75 310.95 172.65 L311.1 172.6 311.3 172.45 311.45 172.2 311.5 172.1 311.85 171.55 313.05 171.7 313.6 171.65 Q314.1 171.35 314.0 169.95 313.85 168.45 313.05 166.65 312.2 164.75 311.25 163.7 310.4 162.75 309.85 162.8 M308.05 163.95 L308.8 164.6 309.25 165.15 310.6 167.55 311.45 170.3 311.55 170.85 311.5 172.05 311.45 172.2 M313.6 171.65 L313.55 171.7 313.05 171.7 M311.45 170.3 Q310.7 169.3 310.1 167.9 309.45 166.4 309.25 165.15 M310.7 195.35 L310.45 195.4 310.4 195.4 310.15 195.3 310.05 195.25 Q309.6 194.85 309.8 193.55 310.0 192.1 310.9 190.3 311.85 188.5 312.9 187.45 313.95 186.45 314.55 186.75 L314.6 186.8 314.95 187.45 Q315.4 188.05 316.15 188.1 L316.75 188.05 316.8 188.05 317.0 188.2 Q317.35 188.6 317.2 189.8 L316.05 193.05 Q315.1 194.85 314.05 195.9 313.05 196.85 312.5 196.65 L312.45 196.65 312.1 196.3 311.5 195.2 310.85 195.3 310.7 195.35 310.85 195.3 311.8 194.6 312.2 194.15 Q312.45 192.95 313.2 191.6 313.95 190.15 314.8 189.2 L314.9 188.5 314.95 187.5 314.95 187.45 M316.75 188.05 L317.0 188.2 M298.8 148.4 Q299.2 148.35 299.8 149.05 300.55 149.85 301.15 151.25 L301.9 153.7 Q301.95 154.75 301.6 155.0 L301.55 155.0 301.2 155.05 300.25 154.9 300.05 155.3 299.95 155.4 299.85 155.6 299.7 155.7 299.6 155.75 Q299.2 155.8 298.5 155.1 297.75 154.25 297.15 152.9 296.5 151.5 296.45 150.4 296.35 149.3 296.8 149.15 L296.8 149.1 296.85 149.1 297.4 149.2 Q297.95 149.2 298.3 148.85 L298.6 148.45 298.8 148.4 298.6 148.45 M290.65 151.9 L290.85 151.8 290.85 151.75 290.9 151.75 291.45 151.85 292.35 151.5 292.65 151.1 292.85 151.05 Q293.25 151.0 293.85 151.7 294.6 152.5 295.2 153.9 L295.95 156.35 Q296.0 157.4 295.65 157.65 L295.6 157.65 295.25 157.7 294.5 157.6 294.1 156.95 294.1 157.05 294.05 157.95 294.0 158.05 M292.65 151.1 L292.85 151.05 M291.45 151.85 L291.45 151.9 292.05 152.4 292.35 152.8 293.4 154.6 294.05 156.65 294.1 156.95 M297.4 149.2 L297.4 149.25 298.0 149.75 298.3 150.15 299.35 151.95 300.0 154.0 300.05 154.4 300.0 155.3 299.95 155.4 M294.05 156.65 L293.05 154.85 292.35 152.8 M308.05 163.95 L308.0 163.9 M300.0 154.0 L299.0 152.2 298.3 150.15 M302.8 166.15 Q303.35 166.1 304.2 167.05 305.15 168.1 306.0 170.0 306.8 171.8 306.95 173.3 307.05 174.7 306.55 175.0 L306.5 175.05 306.0 175.05 304.8 174.9 304.45 175.45 304.4 175.55 304.25 175.8 304.05 175.95 303.9 176.0 303.6 176.0 M302.55 166.25 L302.8 166.15 302.6 166.2 302.55 166.25 Q302.3 166.35 302.2 166.75 301.7 167.25 301.0 167.25 L300.95 167.25 301.0 167.3 301.75 167.95 302.2 168.5 303.55 170.9 304.4 173.65 304.5 174.2 304.45 175.4 304.4 175.55 M300.05 167.2 L300.1 167.15 300.15 167.15 300.2 167.1 300.95 167.25 M304.4 173.65 Q303.65 172.65 303.05 171.25 302.4 169.75 302.2 168.5 M306.0 175.05 L306.55 175.0 M304.65 184.05 L305.2 184.1 305.25 184.15 305.6 184.8 Q306.05 185.4 306.8 185.45 L307.4 185.4 307.45 185.4 307.65 185.55 Q308.0 185.95 307.85 187.15 307.6 188.6 306.7 190.4 L304.7 193.25 Q303.7 194.2 303.15 194.0 L303.1 194.0 302.75 193.65 302.15 192.55 301.5 192.65 301.35 192.7 301.1 192.75 301.05 192.75 300.8 192.65 300.75 192.6 M307.4 185.4 L307.65 185.55 M305.6 184.8 L305.6 184.85 305.55 185.85 305.45 186.55 304.45 189.1 302.85 191.5 302.45 191.95 301.5 192.65 301.35 192.7 M302.85 191.5 Q303.1 190.3 303.85 188.95 304.6 187.5 305.45 186.55 M302.75 193.65 L303.15 194.0 M296.05 196.0 L296.4 196.35 296.4 196.45 296.25 197.15 296.25 197.2 Q296.25 197.9 296.8 198.4 297.15 198.5 297.3 198.75 L297.35 198.8 297.4 199.0 Q297.4 199.55 296.55 200.4 295.45 201.4 293.6 202.2 291.8 203.05 290.35 203.2 288.95 203.3 288.6 202.8 L288.6 202.75 288.55 202.3 288.7 201.05 288.15 200.75 288.05 200.65 287.8 200.55 287.8 200.5 287.65 200.3 287.6 200.2 Q287.5 199.6 288.45 198.75 M295.05 198.4 L292.7 199.8 289.95 200.7 289.4 200.75 288.2 200.7 288.05 200.65 M289.95 200.7 Q290.9 199.95 292.3 199.3 L295.05 198.4 295.6 197.95 296.25 197.2 296.25 197.15 M297.3 198.75 L297.4 199.0 M296.7 208.65 L296.5 208.5 296.45 208.5 296.3 208.3 296.25 208.15 Q296.1 207.6 297.05 206.65 298.05 205.6 299.85 204.7 301.65 203.8 303.15 203.6 304.55 203.4 304.9 203.95 L304.9 204.05 304.8 204.8 Q304.8 205.5 305.4 206.0 305.75 206.05 305.9 206.3 L305.95 206.35 306.0 206.55 Q306.05 207.1 305.2 208.0 304.15 209.0 302.35 209.95 L299.1 211.05 Q297.7 211.25 297.4 210.75 L297.35 210.7 297.3 210.25 297.4 209.0 296.85 208.7 296.7 208.65 296.9 208.7 298.05 208.65 298.6 208.55 300.95 207.1 Q302.35 206.35 303.6 206.1 L304.15 205.6 304.75 204.8 304.8 204.8 M297.3 210.25 L297.4 210.75 M305.9 206.3 L306.0 206.55 M303.6 206.1 L301.3 207.55 298.6 208.55 M288.55 202.3 L288.6 202.8 M312.1 196.3 L312.5 196.65 M314.8 189.2 L313.8 191.75 312.2 194.15" ffdec:has-small-stroke="true" ffdec:original-stroke-width="0.6" fill="none" stroke="#5c3701" stroke-linecap="round" stroke-linejoin="round" stroke-width="1.0"/>
    <path d="M269.4 182.15 Q269.45 177.6 274.6 175.7 L277.2 175.55 Q278.8 175.65 281.7 176.5 289.3 178.6 293.45 184.75 L295.05 187.55 Q295.5 194.7 288.55 192.75 285.9 188.6 280.3 185.7 275.45 183.2 269.4 182.15" fill="url(#gradient3)" fill-rule="evenodd" stroke="none"/>
    <path d="M285.2 205.95 Q291.35 217.7 276.2 228.45 240.85 210.25 248.75 193.15 L248.8 192.85 Q272.95 192.45 285.2 205.95" fill="url(#gradient4)" fill-rule="evenodd" stroke="none"/>
    <path d="M281.7 176.5 Q283.8 172.65 288.2 173.35 289.85 173.8 291.2 174.55 294.25 176.25 295.7 179.45 L296.25 180.95 Q296.7 186.3 293.45 184.75 289.3 178.6 281.7 176.5" fill="url(#gradient5)" fill-rule="evenodd" stroke="none"/>
    <path d="M291.2 174.55 Q294.35 169.15 300.2 173.65 299.55 179.45 295.7 179.45 294.25 176.25 291.2 174.55" fill="url(#gradient6)" fill-rule="evenodd" stroke="none"/>
    <path d="M248.8 192.85 Q249.55 188.3 253.3 184.95 257.25 181.4 261.9 181.45 L269.4 182.15 Q275.45 183.2 280.3 185.7 285.9 188.6 288.55 192.75 L290.3 196.15 Q292.95 206.1 285.5 205.95 285.6 206.15 285.2 205.95 272.95 192.45 248.8 192.85" fill="url(#gradient7)" fill-rule="evenodd" stroke="none"/>
    <path d="M248.8 192.85 Q249.55 188.3 253.3 184.95 257.25 181.4 261.9 181.45 L269.4 182.15 Q269.45 177.6 274.6 175.7 L277.2 175.55 Q278.8 175.65 281.7 176.5 283.8 172.65 288.2 173.35 289.85 173.8 291.2 174.55 294.35 169.15 300.2 173.65 299.55 179.45 295.7 179.45 L296.25 180.95 Q296.7 186.3 293.45 184.75 L295.05 187.55 Q295.5 194.7 288.55 192.75 L290.3 196.15 Q292.95 206.1 285.5 205.95 285.6 206.15 285.2 205.95 291.35 217.7 276.2 228.45 240.85 210.25 248.75 193.15 L248.8 192.85 Q272.95 192.45 285.2 205.95 M269.4 182.15 Q275.45 183.2 280.3 185.7 285.9 188.6 288.55 192.75 M291.2 174.55 Q294.25 176.25 295.7 179.45 M281.7 176.5 Q289.3 178.6 293.45 184.75" ffdec:has-small-stroke="true" ffdec:original-stroke-width="0.6" fill="none" stroke="#232d32" stroke-linecap="round" stroke-linejoin="round" stroke-width="1.0"/>
    <path d="M238.55 223.25 Q234.05 217.7 232.15 212.85 227.1 199.85 239.1 189.0 L239.75 188.45 241.0 187.85 241.4 187.65 Q243.5 186.9 245.85 186.95 253.3 187.15 260.7 195.2 271.0 206.55 288.95 220.35 291.7 222.45 290.4 228.3 289.15 234.0 285.0 239.25 L283.25 241.3 278.8 241.85 Q274.25 242.15 269.9 240.95 264.55 239.55 253.05 225.95 241.5 212.3 236.1 211.75 230.65 211.15 235.85 218.4 241.05 225.65 238.55 223.25" fill="url(#gradient8)" fill-rule="evenodd" stroke="none"/>
    <path d="M238.55 223.25 Q241.05 225.65 235.85 218.4 230.65 211.15 236.1 211.75 241.5 212.3 253.05 225.95 264.55 239.55 269.9 240.95 274.25 242.15 278.8 241.85 L283.25 241.3 Q279.35 245.45 274.85 246.9 268.25 249.05 262.05 244.8 246.35 233.0 238.55 223.25" fill="#c0744b" fill-rule="evenodd" stroke="none"/>
    <path d="M283.25 241.3 L285.0 239.25 Q289.15 234.0 290.4 228.3 291.7 222.45 288.95 220.35 271.0 206.55 260.7 195.2 253.3 187.15 245.85 186.95 243.5 186.9 241.4 187.65 L241.0 187.85 239.75 188.45 239.1 189.0 Q227.1 199.85 232.15 212.85 234.05 217.7 238.55 223.25 246.35 233.0 262.05 244.8 268.25 249.05 274.85 246.9 279.35 245.45 283.25 241.3 Z" ffdec:has-small-stroke="true" ffdec:original-stroke-width="0.6" fill="none" stroke="#7e4b01" stroke-linecap="round" stroke-linejoin="round" stroke-width="1.0"/>
  </g>
  <defs>
    <linearGradient gradientTransform="matrix(-0.0301, 0.0733, -0.0623, -0.0256, 272.6, 217.5)" gradientUnits="userSpaceOnUse" id="gradient0" spreadMethod="pad" x1="-819.2" x2="819.2">
      <stop offset="0.0" stop-color="#e7ce98"/>
      <stop offset="1.0" stop-color="#b96846"/>
    </linearGradient>
    <linearGradient gradientTransform="matrix(-0.0026, -0.065, 0.071, -0.0028, 307.45, 214.45)" gradientUnits="userSpaceOnUse" id="gradient1" spreadMethod="pad" x1="-819.2" x2="819.2">
      <stop offset="0.0" stop-color="#7c4d2e"/>
      <stop offset="1.0" stop-color="#ff9966"/>
    </linearGradient>
    <linearGradient gradientTransform="matrix(-0.0161, -0.0086, 0.0317, -0.0594, 284.65, 140.65)" gradientUnits="userSpaceOnUse" id="gradient2" spreadMethod="pad" x1="-819.2" x2="819.2">
      <stop offset="0.0" stop-color="#ff9966"/>
      <stop offset="1.0" stop-color="#f3e6e0"/>
    </linearGradient>
    <radialGradient cx="0" cy="0" gradientTransform="matrix(0.025, 0.0127, -0.0041, 0.008, 287.5, 179.8)" gradientUnits="userSpaceOnUse" id="gradient3" r="819.2" spreadMethod="pad">
      <stop offset="0.0" stop-color="#59ada7"/>
      <stop offset="1.0" stop-color="#336a77"/>
    </radialGradient>
    <radialGradient cx="0" cy="0" gradientTransform="matrix(0.0067, -0.0135, 0.0332, 0.0164, 271.9, 201.05)" gradientUnits="userSpaceOnUse" id="gradient4" r="819.2" spreadMethod="pad">
      <stop offset="0.0" stop-color="#56a9a4"/>
      <stop offset="1.0" stop-color="#336a77"/>
    </radialGradient>
    <radialGradient cx="0" cy="0" gradientTransform="matrix(0.0017, -0.0026, 0.031, 0.0202, 292.05, 176.75)" gradientUnits="userSpaceOnUse" id="gradient5" r="819.2" spreadMethod="pad">
      <stop offset="0.0" stop-color="#8dc7c0"/>
      <stop offset="1.0" stop-color="#336a77"/>
    </radialGradient>
    <radialGradient cx="0" cy="0" gradientTransform="matrix(0.0036, -0.0054, 0.0071, 0.0046, 298.5, 173.25)" gradientUnits="userSpaceOnUse" id="gradient6" r="819.2" spreadMethod="pad">
      <stop offset="0.0" stop-color="#aad5d0"/>
      <stop offset="1.0" stop-color="#336a77"/>
    </radialGradient>
    <radialGradient cx="0" cy="0" gradientTransform="matrix(0.0022, -0.0075, 0.0355, 0.0104, 274.25, 187.15)" gradientUnits="userSpaceOnUse" id="gradient7" r="819.2" spreadMethod="pad">
      <stop offset="0.0" stop-color="#78e4ce"/>
      <stop offset="1.0" stop-color="#336a77"/>
    </radialGradient>
    <linearGradient gradientTransform="matrix(0.023, 0.0199, -0.0225, 0.026, 237.9, 197.8)" gradientUnits="userSpaceOnUse" id="gradient8" spreadMethod="pad" x1="-819.2" x2="819.2">
      <stop offset="0.0" stop-color="#7c4d2e"/>
      <stop offset="1.0" stop-color="#ff9966"/>
    </linearGradient>
  </defs>
</svg>
