<?xml version="1.0" encoding="UTF-8" standalone="no"?>
<svg xmlns:ffdec="https://www.free-decompiler.com/flash" xmlns:xlink="http://www.w3.org/1999/xlink" ffdec:objectType="shape" height="50.8px" width="13.55px" xmlns="http://www.w3.org/2000/svg">
  <g transform="matrix(1.0, 0.0, 0.0, 1.0, 7.3, 26.9)">
    <path d="M3.55 -9.95 L3.5 -9.95 2.45 -11.85 1.45 -16.7 1.45 -17.35 Q2.85 -18.85 3.4 -22.5 L3.95 -23.95 4.05 -22.2 3.4 -22.5 Q5.1 -17.5 2.9 -11.55 L3.35 -11.4 3.55 -9.95 M2.9 -11.55 L2.45 -11.85 2.9 -11.55" fill="#e9eaeb" fill-rule="evenodd" stroke="none"/>
    <path d="M3.95 -23.95 L3.95 -24.0 Q4.8 -23.75 5.55 -21.65 6.25 -19.55 6.25 -16.75 L6.2 -15.8 Q6.05 -13.4 5.2 -11.35 4.4 -9.7 3.7 -9.95 L3.55 -9.95 3.35 -11.4 Q6.05 -15.3 4.05 -22.2 L3.95 -23.95" fill="#fafaff" fill-rule="evenodd" stroke="none"/>
    <path d="M4.05 -22.2 Q6.05 -15.3 3.35 -11.4 L2.9 -11.55 Q5.1 -17.5 3.4 -22.5 L4.05 -22.2" fill="#727ba1" fill-rule="evenodd" stroke="none"/>
    <path d="M3.5 -9.95 L2.45 -11.85 2.9 -11.55 3.35 -11.4 3.55 -9.95 M3.95 -23.95 L4.05 -22.2 3.4 -22.5 Q5.1 -17.5 2.9 -11.55" ffdec:has-small-stroke="true" ffdec:original-stroke-width="0.05" fill="none" stroke="#b5b5b5" stroke-linecap="round" stroke-linejoin="round" stroke-width="1.0"/>
    <path d="M3.95 -24.0 Q4.8 -23.75 5.55 -21.65 6.25 -19.55 6.25 -16.75 L6.2 -15.8 Q6.05 -13.4 5.2 -11.35 4.4 -9.7 3.7 -9.95 L3.55 -9.95" ffdec:has-small-stroke="true" ffdec:original-stroke-width="0.05" fill="none" stroke="#ffffff" stroke-linecap="round" stroke-linejoin="round" stroke-width="1.0"/>
    <path d="M3.95 -23.95 L3.95 -24.0 M2.45 -11.85 L1.45 -16.7 M1.45 -17.35 Q2.85 -18.85 3.4 -22.5 L3.95 -23.95" ffdec:has-small-stroke="true" ffdec:original-stroke-width="0.05" fill="none" stroke="#878787" stroke-linecap="round" stroke-linejoin="round" stroke-width="1.0"/>
    <path d="M0.15 23.9 L-0.35 23.25 -0.35 22.05 0.15 22.55 0.15 23.9 M-0.35 19.45 L-0.35 -16.4 0.15 -15.75 0.15 19.9 -0.35 19.45" fill="#c5c5c9" fill-rule="evenodd" stroke="none"/>
    <path d="M0.15 -15.75 L0.75 -15.9 0.75 19.85 0.15 19.9 0.15 -15.75 M0.75 22.45 L0.75 23.75 0.15 23.9 0.15 22.55 0.75 22.45" fill="#e9eaeb" fill-rule="evenodd" stroke="none"/>
    <path d="M-0.35 22.05 L-0.2 21.85 -0.2 19.9 -0.35 19.45 0.15 19.9 0.15 22.55 -0.35 22.05" fill="#535b75" fill-rule="evenodd" stroke="none"/>
    <path d="M0.75 19.85 L0.6 20.2 0.6 22.15 0.75 22.45 0.15 22.55 0.15 19.9 0.75 19.85" fill="#727ba1" fill-rule="evenodd" stroke="none"/>
    <path d="M0.15 23.9 L-0.35 23.25 -0.35 22.05 -0.2 21.85 -0.2 19.9 -0.35 19.45 -0.35 -16.4 0.15 -15.75" ffdec:has-small-stroke="true" ffdec:original-stroke-width="0.05" fill="none" stroke="#89898c" stroke-linecap="round" stroke-linejoin="round" stroke-width="1.0"/>
    <path d="M0.15 -15.75 L0.75 -15.9 M0.75 23.75 L0.15 23.9" ffdec:has-small-stroke="true" ffdec:original-stroke-width="0.05" fill="none" stroke="#dddddd" stroke-linecap="round" stroke-linejoin="round" stroke-width="1.0"/>
    <path d="M0.15 19.9 L0.75 19.85 M-0.35 19.45 L0.15 19.9 M0.15 22.55 L0.75 22.45 M-0.35 22.05 L0.15 22.55" ffdec:has-small-stroke="true" ffdec:original-stroke-width="0.05" fill="none" stroke="#878787" stroke-linecap="round" stroke-linejoin="round" stroke-width="1.0"/>
    <path d="M-7.3 -15.7 L-2.15 -16.2 0.0 -16.35 -1.8 -15.45 -7.3 -15.7" fill="#c5c5c9" fill-rule="evenodd" stroke="none"/>
    <path d="M0.0 -16.35 L-2.15 -16.2 -7.3 -15.7 -2.8 -17.45 -0.4 -17.15 0.0 -16.35" fill="#f2f2f7" fill-rule="evenodd" stroke="none"/>
    <path d="M-0.4 -17.15 L-2.8 -17.45 -7.3 -15.7 -1.8 -15.45 0.0 -16.35" ffdec:has-small-stroke="true" ffdec:original-stroke-width="0.05" fill="none" stroke="#878787" stroke-linecap="round" stroke-linejoin="round" stroke-width="1.0"/>
    <path d="M0.45 -20.65 L0.45 -21.05 0.6 -26.9 1.1 -20.4 0.4 -18.1 0.45 -20.6 0.45 -20.65" fill="#c5c5c9" fill-rule="evenodd" stroke="none"/>
    <path d="M0.6 -26.9 L0.45 -21.05 -0.1 -18.3 -0.3 -18.35 -0.55 -21.1 0.6 -26.9" fill="#f2f2f7" fill-rule="evenodd" stroke="none"/>
    <path d="M0.45 -21.05 L0.45 -20.65 0.45 -20.6 0.4 -18.1 -0.1 -18.3 0.45 -21.05" fill="#ffffff" fill-rule="evenodd" stroke="none"/>
    <path d="M0.45 -20.65 L0.45 -20.6 M0.4 -18.1 L1.1 -20.4 0.6 -26.9 -0.55 -21.1 -0.3 -18.35" ffdec:has-small-stroke="true" ffdec:original-stroke-width="0.05" fill="none" stroke="#878787" stroke-linecap="round" stroke-linejoin="round" stroke-width="1.0"/>
    <path d="M0.5 -15.6 Q0.1 -15.75 -0.15 -16.3 L-0.45 -17.4 -0.15 -18.3 0.5 -18.45 1.15 -17.8 1.4 -16.7 1.15 -15.8 Q0.9 -15.45 0.5 -15.6" fill="#e9eaeb" fill-rule="evenodd" stroke="none"/>
    <path d="M0.5 -15.6 Q0.9 -15.45 1.15 -15.8 L1.4 -16.7 1.15 -17.8 0.5 -18.45 -0.15 -18.3 -0.45 -17.4 -0.15 -16.3 Q0.1 -15.75 0.5 -15.6 M1.5 -18.2 L1.85 -16.5 Q1.85 -15.6 1.45 -15.15 1.05 -14.7 0.45 -14.9 -0.15 -15.15 -0.55 -15.95 -0.95 -16.7 -0.95 -17.6 -0.95 -18.5 -0.5 -18.95 -0.1 -19.4 0.5 -19.2 L1.5 -18.2" fill="#535b75" fill-rule="evenodd" stroke="none"/>
    <path d="M1.5 -18.2 L1.85 -16.5 Q1.85 -15.6 1.45 -15.15 1.05 -14.7 0.45 -14.9 -0.15 -15.15 -0.55 -15.95 -0.95 -16.7 -0.95 -17.6 -0.95 -18.5 -0.5 -18.95 -0.1 -19.4 0.5 -19.2 L1.5 -18.2 Z" ffdec:has-small-stroke="true" ffdec:original-stroke-width="0.05" fill="none" stroke="#b5b5b5" stroke-linecap="round" stroke-linejoin="round" stroke-width="1.0"/>
    <path d="M1.05 -13.5 L-0.45 -14.05 -0.65 -15.3 0.85 -14.75 1.05 -13.5" fill="#8c4f30" fill-rule="evenodd" stroke="none"/>
    <path d="M1.05 -13.5 L-0.45 -14.05 -0.65 -15.3 0.85 -14.75 1.05 -13.5 Z" ffdec:has-small-stroke="true" ffdec:original-stroke-width="0.05" fill="none" stroke="#6b3c24" stroke-linecap="round" stroke-linejoin="round" stroke-width="1.0"/>
    <path d="M0.5 -11.85 L-0.75 -13.1 -0.4 -14.1 0.85 -12.85 0.5 -11.85" fill="#8c4f30" fill-rule="evenodd" stroke="none"/>
    <path d="M0.5 -11.85 L-0.75 -13.1 -0.4 -14.1 0.85 -12.85 0.5 -11.85 Z" ffdec:has-small-stroke="true" ffdec:original-stroke-width="0.05" fill="none" stroke="#6b3c24" stroke-linecap="round" stroke-linejoin="round" stroke-width="1.0"/>
    <path d="M0.7 -12.25 L-0.55 -11.95 -0.2 -10.65 1.05 -10.95 0.7 -12.25" fill="#8c4f30" fill-rule="evenodd" stroke="none"/>
    <path d="M0.7 -12.25 L-0.55 -11.95 -0.2 -10.65 1.05 -10.95 0.7 -12.25 Z" ffdec:has-small-stroke="true" ffdec:original-stroke-width="0.05" fill="none" stroke="#6b3c24" stroke-linecap="round" stroke-linejoin="round" stroke-width="1.0"/>
  </g>
</svg>
