<?xml version="1.0" encoding="UTF-8" standalone="no"?>
<svg xmlns:ffdec="https://www.free-decompiler.com/flash" xmlns:xlink="http://www.w3.org/1999/xlink" ffdec:objectType="shape" height="40.2px" width="34.0px" xmlns="http://www.w3.org/2000/svg">
  <g transform="matrix(1.0, 0.0, 0.0, 1.0, 46.35, 31.5)">
    <path d="M-24.95 -18.2 Q-30.2 -23.3 -35.65 -27.2 -38.9 -29.6 -42.15 -31.5 -42.85 -22.85 -41.85 -19.7 -40.65 -16.2 -34.7 -10.95 -31.35 -7.95 -24.0 -4.55 -17.2 -1.5 -12.35 3.45 -20.85 -12.85 -24.95 -18.2 M-34.75 -15.9 L-26.45 -12.75 Q-21.65 -8.75 -18.15 -3.5 -21.65 -8.75 -26.45 -12.75 L-33.7 -20.05 -39.15 -26.5 -33.7 -20.05 -26.45 -12.75 -34.75 -15.9" fill="#b2d9e3" fill-opacity="0.6" fill-rule="evenodd" stroke="none"/>
    <path d="M-24.95 -18.2 Q-30.2 -23.3 -35.65 -27.2 -38.9 -29.6 -42.15 -31.5 -42.85 -22.85 -41.85 -19.7 -40.65 -16.2 -34.7 -10.95 -31.35 -7.95 -24.0 -4.55 -17.2 -1.5 -12.35 3.45" ffdec:has-small-stroke="true" ffdec:original-stroke-width="0.05" fill="none" stroke="#edf8fa" stroke-linecap="round" stroke-linejoin="round" stroke-opacity="0.6509804" stroke-width="1.0"/>
    <path d="M-18.15 -3.5 Q-21.65 -8.75 -26.45 -12.75 L-33.7 -20.05 -39.15 -26.5 M-26.45 -12.75 L-34.75 -15.9" ffdec:has-small-stroke="true" ffdec:original-stroke-width="0.05" fill="none" stroke="#edf8fa" stroke-linecap="round" stroke-linejoin="round" stroke-opacity="0.6509804" stroke-width="1.0"/>
    <path d="M-40.85 -1.0 L-46.35 0.05 Q-41.6 5.9 -39.45 7.3 -36.8 8.8 -31.0 8.7 -27.7 8.6 -22.35 6.5 -17.35 4.5 -12.35 4.75 -25.7 -0.6 -30.65 -1.55 L-40.85 -1.0 Q-38.3 0.65 -35.85 2.4 L-42.05 1.45 -35.85 2.4 Q-38.3 0.65 -40.85 -1.0 M-35.85 2.4 L-28.2 2.65 Q-23.65 2.5 -19.05 3.8 -23.65 2.5 -28.2 2.65 L-35.85 2.4 M-33.9 5.55 L-28.2 2.65 -33.9 5.55" fill="#b2d9e3" fill-opacity="0.6" fill-rule="evenodd" stroke="none"/>
    <path d="M-12.35 4.75 Q-17.35 4.5 -22.35 6.5 -27.7 8.6 -31.0 8.7 -36.8 8.8 -39.45 7.3 -41.6 5.9 -46.35 0.05 L-40.85 -1.0 -30.65 -1.55" ffdec:has-small-stroke="true" ffdec:original-stroke-width="0.05" fill="none" stroke="#edf8fa" stroke-linecap="round" stroke-linejoin="round" stroke-opacity="0.6509804" stroke-width="1.0"/>
    <path d="M-40.85 -1.0 Q-38.3 0.65 -35.85 2.4 L-42.05 1.45 M-19.05 3.8 Q-23.65 2.5 -28.2 2.65 L-35.85 2.4 M-28.2 2.65 L-33.9 5.55" ffdec:has-small-stroke="true" ffdec:original-stroke-width="0.05" fill="none" stroke="#edf8fa" stroke-linecap="round" stroke-linejoin="round" stroke-opacity="0.6509804" stroke-width="1.0"/>
  </g>
</svg>
