<?xml version="1.0" encoding="UTF-8" standalone="no"?>
<svg xmlns:ffdec="https://www.free-decompiler.com/flash" xmlns:xlink="http://www.w3.org/1999/xlink" ffdec:objectType="shape" height="39.1px" width="32.9px" xmlns="http://www.w3.org/2000/svg">
  <g transform="matrix(1.0, 0.0, 0.0, 1.0, 45.75, 31.5)">
    <path d="M-24.85 -18.5 Q-29.85 -23.45 -35.0 -27.3 L-41.2 -31.5 Q-41.85 -23.05 -40.95 -19.95 -39.75 -16.55 -34.1 -11.45 -30.95 -8.55 -23.95 -5.2 -17.45 -2.2 -12.85 2.55 -20.95 -13.3 -24.85 -18.5 M-26.25 -13.2 Q-21.7 -9.3 -18.35 -4.15 -21.7 -9.3 -26.25 -13.2 -29.95 -16.7 -33.2 -20.3 L-38.35 -26.65 -33.2 -20.3 Q-29.95 -16.7 -26.25 -13.2 L-34.2 -16.3 -26.25 -13.2" fill="#fff024" fill-rule="evenodd" stroke="none"/>
    <path d="M-38.35 -26.65 L-33.2 -20.3 Q-29.95 -16.7 -26.25 -13.2 L-34.2 -16.3 M-18.35 -4.15 Q-21.7 -9.3 -26.25 -13.2" ffdec:has-small-stroke="true" ffdec:original-stroke-width="0.05" fill="none" stroke="#ff910b" stroke-linecap="round" stroke-linejoin="round" stroke-width="1.0"/>
    <path d="M-24.85 -18.5 Q-29.85 -23.45 -35.0 -27.3 L-41.2 -31.5 Q-41.85 -23.05 -40.95 -19.95 -39.75 -16.55 -34.1 -11.45 -30.95 -8.55 -23.95 -5.2 -17.45 -2.2 -12.85 2.55" ffdec:has-small-stroke="true" ffdec:original-stroke-width="0.05" fill="none" stroke="#ff910b" stroke-linecap="round" stroke-linejoin="round" stroke-width="1.0"/>
    <path d="M-40.4 -1.35 L-35.75 1.5 -28.5 1.75 Q-24.15 1.55 -19.75 2.85 -24.15 1.55 -28.5 1.75 L-35.75 1.5 -40.4 -1.35 M-30.8 -2.35 Q-39.0 -2.6 -45.75 -0.85 -41.25 4.9 -39.15 6.25 -36.65 7.7 -31.15 7.6 -28.0 7.55 -22.9 5.5 -18.15 3.55 -13.4 3.8 -26.05 -1.45 -30.8 -2.35 M-33.9 4.55 L-28.5 1.75 -33.9 4.55 M-35.75 1.5 L-41.65 0.55 -35.75 1.5" fill="#fff024" fill-rule="evenodd" stroke="none"/>
    <path d="M-19.75 2.85 Q-24.15 1.55 -28.5 1.75 L-35.75 1.5 -40.4 -1.35 M-41.65 0.55 L-35.75 1.5 M-28.5 1.75 L-33.9 4.55" ffdec:has-small-stroke="true" ffdec:original-stroke-width="0.05" fill="none" stroke="#ff910b" stroke-linecap="round" stroke-linejoin="round" stroke-width="1.0"/>
    <path d="M-30.8 -2.35 Q-39.0 -2.6 -45.75 -0.85 -41.25 4.9 -39.15 6.25 -36.65 7.7 -31.15 7.6 -28.0 7.55 -22.9 5.5 -18.15 3.55 -13.4 3.8" ffdec:has-small-stroke="true" ffdec:original-stroke-width="0.05" fill="none" stroke="#ff910b" stroke-linecap="round" stroke-linejoin="round" stroke-width="1.0"/>
  </g>
</svg>
