<?xml version="1.0" encoding="UTF-8" standalone="no"?>
<svg xmlns:ffdec="https://www.free-decompiler.com/flash" xmlns:xlink="http://www.w3.org/1999/xlink" ffdec:objectType="shape" height="272.2px" width="160.0px" xmlns="http://www.w3.org/2000/svg">
  <g transform="matrix(1.0, 0.0, 0.0, 1.0, -154.9, -85.1)">
    <path d="M277.45 109.45 Q277.15 99.6 273.75 85.1 284.6 95.2 289.6 106.1 282.35 106.7 277.45 109.45" fill="#ffffff" fill-rule="evenodd" stroke="none"/>
    <path d="M291.25 105.95 L292.5 105.95 293.05 105.85 Q294.95 105.75 298.45 109.25 300.95 109.2 304.5 112.6 329.15 160.05 294.95 218.75 293.45 225.35 287.9 234.15 269.75 262.65 208.45 314.3 193.5 326.9 176.0 340.9 L173.05 343.15 155.0 357.3 154.9 357.15 171.4 342.35 189.7 325.3 212.45 303.05 Q256.5 258.65 276.45 226.65 L281.6 217.75 Q301.25 178.6 300.6 132.35 299.9 115.0 292.7 107.45 L291.25 105.95" fill="#9ead76" fill-rule="evenodd" stroke="none"/>
    <path d="M240.85 235.7 Q242.45 229.55 242.8 224.15 L242.9 220.0 242.45 215.95 Q240.85 205.1 231.8 202.05 225.0 199.75 213.95 201.85 226.7 181.35 219.65 171.3 217.3 167.85 214.15 166.6 212.7 166.0 211.1 165.9 L197.9 163.75 219.45 152.1 Q223.5 149.05 231.3 147.3 239.1 145.55 243.9 143.45 L248.7 141.3 251.2 140.2 Q252.3 139.65 253.35 139.2 263.55 134.1 267.0 129.0 L267.45 128.3 271.15 115.05 Q273.6 111.6 277.45 109.45 282.35 106.7 289.6 106.1 L291.25 105.95 292.7 107.45 Q299.9 115.0 300.6 132.35 301.25 178.6 281.6 217.75 L276.45 226.65 Q256.5 258.65 212.45 303.05 L189.7 325.3 171.4 342.35 154.9 357.15 169.7 341.35 Q195.15 313.55 211.8 290.6 L214.7 286.45 216.3 284.2 Q235.6 256.05 240.85 235.7 M250.2 144.9 L250.05 144.9 246.8 146.05 240.85 147.85 258.15 152.55 Q266.5 163.9 277.8 183.85 270.35 159.95 268.95 134.6 262.25 140.35 250.2 144.9" fill="#72804d" fill-rule="evenodd" stroke="none"/>
    <path d="M250.2 144.9 Q262.25 140.35 268.95 134.6 270.35 159.95 277.8 183.85 266.5 163.9 258.15 152.55 L240.85 147.85 246.8 146.05 250.05 144.9 250.2 144.9" fill="#545f38" fill-rule="evenodd" stroke="none"/>
    <path d="M240.85 235.7 Q242.45 229.55 242.8 224.15 L242.9 220.0 242.45 215.95 Q240.85 205.1 231.8 202.05 225.0 199.75 213.95 201.85 226.7 181.35 219.65 171.3 217.3 167.85 214.15 166.6 212.7 166.0 211.1 165.9 L197.9 163.75 219.45 152.1 Q223.5 149.05 231.3 147.3 239.1 145.55 243.9 143.45 L248.7 141.3 251.2 140.2 Q252.3 139.65 253.35 139.2 263.55 134.1 267.0 129.0 L267.45 128.3 271.15 115.05 Q273.6 111.6 277.45 109.45 277.15 99.6 273.75 85.1 284.6 95.2 289.6 106.1 282.35 106.7 277.45 109.45 M291.25 105.95 L292.5 105.95 293.05 105.85 Q294.95 105.75 298.45 109.25 300.95 109.2 304.5 112.6 329.15 160.05 294.95 218.75 293.45 225.35 287.9 234.15 269.75 262.65 208.45 314.3 193.5 326.9 176.0 340.9 L173.05 343.15 155.0 357.3 154.9 357.15" ffdec:has-small-stroke="true" ffdec:original-stroke-width="0.05" fill="none" stroke="#000000" stroke-linecap="round" stroke-linejoin="round" stroke-opacity="0.3019608" stroke-width="1.0"/>
  </g>
</svg>
