<?xml version="1.0" encoding="UTF-8" standalone="no"?>
<svg xmlns:ffdec="https://www.free-decompiler.com/flash" xmlns:xlink="http://www.w3.org/1999/xlink" ffdec:objectType="shape" height="40.25px" width="34.0px" xmlns="http://www.w3.org/2000/svg">
  <g transform="matrix(1.0, 0.0, 0.0, 1.0, 46.3, 31.55)">
    <path d="M-12.35 3.45 Q-17.2 -1.45 -24.0 -4.55 -31.4 -7.95 -34.65 -10.9 -40.6 -16.2 -41.8 -19.7 -42.85 -22.85 -42.1 -31.55 L-35.6 -27.25 Q-30.25 -23.3 -24.95 -18.2 -20.85 -12.9 -12.35 3.45 M-34.75 -15.95 L-26.4 -12.8 -33.65 -20.05 -39.1 -26.55 -33.65 -20.05 -26.4 -12.8 Q-21.7 -8.75 -18.15 -3.5 -21.7 -8.75 -26.4 -12.8 L-34.75 -15.95" fill="url(#gradient0)" fill-rule="evenodd" stroke="none"/>
    <path d="M-24.95 -18.2 Q-30.25 -23.3 -35.6 -27.25 L-42.1 -31.55 Q-42.85 -22.85 -41.8 -19.7 -40.6 -16.2 -34.65 -10.9 -31.4 -7.95 -24.0 -4.55 -17.2 -1.45 -12.35 3.45" ffdec:has-small-stroke="true" ffdec:original-stroke-width="0.05" fill="none" stroke="#000000" stroke-linecap="round" stroke-linejoin="round" stroke-opacity="0.4" stroke-width="1.0"/>
    <path d="M-39.1 -26.55 L-33.65 -20.05 -26.4 -12.8 Q-21.7 -8.75 -18.15 -3.5 M-26.4 -12.8 L-34.75 -15.95" ffdec:has-small-stroke="true" ffdec:original-stroke-width="0.05" fill="none" stroke="#000000" stroke-linecap="round" stroke-linejoin="round" stroke-opacity="0.4" stroke-width="1.0"/>
    <path d="M-12.3 4.75 Q-17.35 4.5 -22.35 6.45 -27.75 8.65 -30.95 8.7 -36.75 8.8 -39.35 7.3 -41.65 5.95 -46.3 0.05 L-40.8 -1.05 -30.65 -1.55 Q-25.7 -0.6 -12.3 4.75 M-40.8 -1.05 L-35.8 2.35 -28.2 2.65 -33.9 5.55 -28.2 2.65 -35.8 2.35 -42.05 1.45 -35.8 2.35 -40.8 -1.05 M-28.2 2.65 Q-23.7 2.45 -19.0 3.75 -23.7 2.45 -28.2 2.65" fill="url(#gradient1)" fill-rule="evenodd" stroke="none"/>
    <path d="M-12.3 4.75 Q-17.35 4.5 -22.35 6.45 -27.75 8.65 -30.95 8.7 -36.75 8.8 -39.35 7.3 -41.65 5.95 -46.3 0.05 L-40.8 -1.05 -30.65 -1.55" ffdec:has-small-stroke="true" ffdec:original-stroke-width="0.05" fill="none" stroke="#000000" stroke-linecap="round" stroke-linejoin="round" stroke-opacity="0.4" stroke-width="1.0"/>
    <path d="M-33.9 5.55 L-28.2 2.65 -35.8 2.35 -42.05 1.45 M-19.0 3.75 Q-23.7 2.45 -28.2 2.65 M-35.8 2.35 L-40.8 -1.05" ffdec:has-small-stroke="true" ffdec:original-stroke-width="0.05" fill="none" stroke="#000000" stroke-linecap="round" stroke-linejoin="round" stroke-opacity="0.4" stroke-width="1.0"/>
  </g>
  <defs>
    <linearGradient gradientTransform="matrix(0.0099, 0.0072, -0.0046, 0.0063, -29.05, -14.6)" gradientUnits="userSpaceOnUse" id="gradient0" spreadMethod="pad" x1="-819.2" x2="819.2">
      <stop offset="0.0" stop-color="#ffcc00"/>
      <stop offset="0.41568627450980394" stop-color="#caa202"/>
      <stop offset="1.0" stop-color="#fffbed"/>
    </linearGradient>
    <linearGradient gradientTransform="matrix(0.0082, -1.0E-4, 1.0E-4, 0.0063, -31.35, 3.6)" gradientUnits="userSpaceOnUse" id="gradient1" spreadMethod="pad" x1="-819.2" x2="819.2">
      <stop offset="0.0" stop-color="#ffcc00"/>
      <stop offset="0.41568627450980394" stop-color="#caa202"/>
      <stop offset="1.0" stop-color="#fffbed"/>
    </linearGradient>
  </defs>
</svg>
