<?xml version="1.0" encoding="UTF-8" standalone="no"?>
<svg xmlns:ffdec="https://www.free-decompiler.com/flash" xmlns:xlink="http://www.w3.org/1999/xlink" ffdec:objectType="shape" height="67.05px" width="136.55px" xmlns="http://www.w3.org/2000/svg">
  <g transform="matrix(1.0, 0.0, 0.0, 1.0, -217.75, -132.1)">
    <path d="M327.35 176.1 L317.9 180.75 308.4 184.4 Q315.45 180.75 321.6 178.25 L327.35 176.1 M277.6 181.5 L277.55 181.5 277.55 181.45 277.6 181.5 M302.05 154.85 L302.1 154.75 302.05 154.85" fill="#d3d6cd" fill-rule="evenodd" stroke="none"/>
    <path d="M278.5 181.95 L277.6 181.5 277.55 181.45 277.6 181.35 277.65 181.35 278.55 181.85 278.5 181.95" fill="#534a44" fill-rule="evenodd" stroke="none"/>
    <path d="M280.8 157.2 L280.75 156.95 280.85 156.95 280.8 157.2 M269.25 160.65 L269.25 160.8 259.45 161.05 253.85 160.8 253.25 160.7 253.85 160.7 258.1 160.75 261.15 160.2 269.25 160.65 M265.2 161.9 L265.25 162.2 263.2 162.55 262.85 162.45 263.2 162.4 265.2 161.9 M273.8 163.85 L273.1 164.05 272.8 164.05 273.8 163.85 M261.15 160.2 L256.45 159.95 261.65 159.95 261.15 160.2" fill="#4f4642" fill-rule="evenodd" stroke="none"/>
    <path d="M270.2 191.9 L270.25 191.85 270.95 192.25 270.2 191.9" fill="#b9baab" fill-rule="evenodd" stroke="none"/>
    <path d="M279.95 159.2 L282.3 158.75 Q281.7 157.8 280.8 157.2 L280.85 156.95 285.65 157.75 285.7 158.0 289.0 157.15 290.3 156.1 Q291.35 155.45 292.5 155.15 298.15 153.65 303.0 151.35 L302.9 152.4 302.8 152.75 302.6 153.2 302.35 153.7 302.15 154.3 302.1 154.75 302.05 154.85 Q301.6 157.05 300.1 158.5 L299.8 158.6 284.8 161.15 283.05 161.45 281.65 161.7 281.8 162.15 273.8 163.85 279.6 162.0 265.2 163.0 263.2 162.55 265.25 162.2 265.2 161.9 269.25 160.8 269.25 160.65 269.85 160.7 270.8 160.5 279.95 159.2 M336.65 160.35 L338.75 162.2 331.5 169.25 Q328.15 171.5 323.05 174.05 L321.6 174.8 Q312.4 179.3 298.0 184.85 274.7 193.8 278.5 181.95 L278.55 181.85 277.65 181.35 277.6 181.35 277.55 181.45 276.7 181.0 281.15 176.5 302.5 176.55 306.05 175.9 Q326.2 171.7 334.9 161.95 L336.65 160.35 M277.2 193.05 L277.2 194.05 Q272.25 195.5 267.05 192.95 L269.55 192.6 270.2 191.9 Q256.4 185.35 251.6 182.15 247.2 179.25 233.4 174.7 L232.1 174.3 232.1 174.75 229.55 175.15 230.3 176.95 Q228.95 175.95 227.95 174.75 L226.4 172.55 226.3 172.2 231.05 172.6 232.1 172.95 232.1 174.0 232.15 174.0 235.2 174.65 239.3 175.45 Q265.7 180.7 267.6 178.7 269.1 177.15 268.55 176.1 L271.7 178.05 Q278.2 182.05 269.9 182.45 261.6 182.8 263.65 186.05 265.05 188.15 267.85 190.2 L270.45 191.6 272.9 187.85 273.2 187.5 Q274.6 189.3 276.8 190.5 277.0 190.55 277.2 190.75 L277.2 193.05 M240.5 162.9 L239.75 162.05 240.15 162.0 Q243.35 161.35 245.55 163.5 L245.55 161.65 Q246.6 162.75 246.75 163.95 246.85 165.15 245.95 166.4 242.45 164.85 240.5 162.9 M291.05 173.5 Q290.85 172.75 291.4 172.2 L292.5 171.15 Q293.15 172.55 292.8 173.65 L292.1 174.75 Q291.75 174.75 291.6 174.55 291.15 173.95 291.05 173.5 M272.95 160.9 L265.25 162.2 272.95 160.9 M270.2 191.9 L270.95 192.25 270.25 191.85 270.2 191.9" fill="#533764" fill-rule="evenodd" stroke="none"/>
    <path d="M302.1 154.75 L304.4 154.75 Q308.05 154.25 309.95 155.75 L303.8 158.45 299.5 159.0 299.8 158.6 300.1 158.5 Q301.6 157.05 302.05 154.85 L302.1 154.75 M340.3 149.65 L345.6 150.4 343.3 154.15 336.65 160.35 334.9 161.95 Q326.2 171.7 306.05 175.9 L302.5 176.55 281.15 176.5 276.7 181.0 277.55 181.45 277.55 181.5 277.6 181.5 278.5 181.95 Q274.7 193.8 298.0 184.85 312.4 179.3 321.6 174.8 L323.05 174.05 Q328.15 171.5 331.5 169.25 L338.75 162.2 341.6 160.3 341.05 165.65 341.6 165.75 337.8 170.9 331.45 174.05 327.35 176.1 321.6 178.25 Q315.45 180.75 308.4 184.4 L286.7 192.6 277.2 193.05 277.2 190.75 Q277.0 190.55 276.8 190.5 274.6 189.3 273.2 187.5 L272.9 187.85 270.45 191.6 267.85 190.2 Q265.05 188.15 263.65 186.05 261.6 182.8 269.9 182.45 278.2 182.05 271.7 178.05 L268.55 176.1 Q269.1 177.15 267.6 178.7 265.7 180.7 239.3 175.45 L235.2 174.65 232.15 174.0 232.1 174.0 232.1 172.95 231.05 172.6 226.3 172.2 226.4 172.55 227.95 174.75 Q221.05 174.65 219.7 173.3 L219.35 172.45 Q217.85 168.3 218.0 164.2 L219.4 164.0 219.9 163.9 Q220.15 161.45 221.2 159.35 L225.5 165.0 Q226.4 160.9 240.5 162.9 242.45 164.85 245.95 166.4 246.85 165.15 246.75 163.95 259.9 166.45 281.3 172.7 L291.05 173.5 Q291.15 173.95 291.6 174.55 291.75 174.75 292.1 174.75 L292.8 173.65 301.15 174.3 320.7 169.35 340.0 154.45 340.3 149.65 M233.4 174.7 L232.1 174.75 232.1 174.3 233.4 174.7 M227.45 168.6 L219.4 164.0 227.45 168.6" fill="#7d5397" fill-rule="evenodd" stroke="none"/>
    <path d="M256.35 150.7 L262.15 150.8 270.1 147.5 280.05 136.25 Q284.85 129.8 294.05 134.0 L301.35 141.25 Q327.3 149.85 339.95 146.85 347.75 146.25 354.05 151.55 348.85 148.05 345.6 150.4 L340.3 149.65 322.3 151.45 316.45 156.2 Q297.25 170.25 283.05 161.45 L284.8 161.15 299.8 158.6 299.5 159.0 303.8 158.45 309.95 155.75 Q308.05 154.25 304.4 154.75 L302.1 154.75 302.15 154.3 302.35 153.7 302.6 153.2 302.8 152.75 302.9 152.4 303.0 151.35 Q298.15 153.65 292.5 155.15 291.35 155.45 290.3 156.1 L289.0 157.15 285.7 158.0 285.65 157.75 280.85 156.95 280.75 156.95 280.8 157.2 Q281.7 157.8 282.3 158.75 L279.95 159.2 Q276.65 156.45 273.65 152.4 L270.55 155.95 256.35 150.7 M346.95 166.35 L342.15 172.6 Q338.4 172.9 334.0 174.05 L327.35 176.1 331.45 174.05 337.8 170.9 346.95 166.35 M308.4 184.4 Q297.3 190.0 284.0 198.35 L269.45 198.9 246.5 185.45 Q241.6 182.9 236.7 181.2 229.3 178.55 221.9 177.65 220.55 175.45 219.7 173.3 221.05 174.65 227.95 174.75 228.95 175.95 230.3 176.95 L229.55 175.15 232.1 174.75 233.4 174.7 Q247.2 179.25 251.6 182.15 256.4 185.35 270.2 191.9 L269.55 192.6 267.05 192.95 Q272.25 195.5 277.2 194.05 L277.2 193.05 286.7 192.6 308.4 184.4 M317.2 156.0 Q318.4 155.95 319.25 156.7 320.1 157.45 320.1 158.5 320.1 159.5 320.45 160.35 320.65 160.8 321.2 161.1 L313.15 163.75 312.75 163.85 Q307.55 165.4 312.7 162.0 L313.15 161.75 Q317.8 158.55 316.95 157.3 316.45 156.6 316.55 156.3 316.6 155.95 317.2 156.0 M300.15 162.4 L294.25 162.4 300.15 162.4" fill="#9a72b1" fill-rule="evenodd" stroke="none"/>
    <path d="M256.35 150.7 L270.55 155.95 273.65 152.4 Q276.65 156.45 279.95 159.2 L270.8 160.5 269.85 160.7 269.25 160.65 261.15 160.2 258.1 160.75 253.85 160.7 253.25 160.7 253.85 160.8 259.45 161.05 269.25 160.8 265.2 161.9 263.2 162.4 262.85 162.45 263.2 162.55 265.2 163.0 279.6 162.0 273.8 163.85 272.8 164.05 273.1 164.05 273.8 163.85 281.8 162.15 281.65 161.7 283.05 161.45 Q297.25 170.25 316.45 156.2 L322.3 151.45 340.3 149.65 340.0 154.45 320.7 169.35 301.15 174.3 292.8 173.65 Q293.15 172.55 292.5 171.15 L291.4 172.2 Q290.85 172.75 291.05 173.5 L281.3 172.7 Q259.9 166.45 246.75 163.95 246.6 162.75 245.55 161.65 L245.55 163.5 Q243.35 161.35 240.15 162.0 L239.75 162.05 240.5 162.9 Q226.4 160.9 225.5 165.0 L221.2 159.35 Q224.0 153.65 232.5 150.3 L256.35 150.7 M341.6 165.75 L346.95 166.35 337.8 170.9 341.6 165.75 M261.9 162.75 L263.2 162.55 261.9 162.75 M261.15 160.2 L261.65 159.95 256.45 159.95 261.15 160.2 M317.2 156.0 Q316.6 155.95 316.55 156.3 316.45 156.6 316.95 157.3 317.8 158.55 313.15 161.75 L312.7 162.0 Q307.55 165.4 312.75 163.85 L313.15 163.75 321.2 161.1 Q320.65 160.8 320.45 160.35 320.1 159.5 320.1 158.5 320.1 157.45 319.25 156.7 318.4 155.95 317.2 156.0 M288.75 169.35 L288.4 165.7 288.75 169.35" fill="#b69ac7" fill-rule="evenodd" stroke="none"/>
    <path d="M345.6 150.4 Q348.85 148.05 354.05 151.55 347.75 146.25 339.95 146.85 327.3 149.85 301.35 141.25 L294.05 134.0 Q284.85 129.8 280.05 136.25 L270.1 147.5 262.15 150.8 256.35 150.7 232.5 150.3 Q224.0 153.65 221.2 159.35 220.15 161.45 219.9 163.9 L219.4 164.0 227.45 168.6 M345.6 150.4 L343.3 154.15 336.65 160.35 338.75 162.2 341.6 160.3 341.05 165.65 341.6 165.75 346.95 166.35 342.15 172.6 Q338.4 172.9 334.0 174.05 L327.35 176.1 321.6 178.25 Q315.45 180.75 308.4 184.4 297.3 190.0 284.0 198.35 L269.45 198.9 246.5 185.45 Q241.6 182.9 236.7 181.2 229.3 178.55 221.9 177.65 220.55 175.45 219.7 173.3 L219.35 172.45 Q217.85 168.3 218.0 164.2 L219.4 164.0 M338.75 162.2 L331.5 169.25 Q328.15 171.5 323.05 174.05 L321.6 174.8 Q312.4 179.3 298.0 184.85 274.7 193.8 278.5 181.95 M277.55 181.5 L277.55 181.45 276.7 181.0 281.15 176.5 302.5 176.55 306.05 175.9 Q326.2 171.7 334.9 161.95 L336.65 160.35 M277.55 181.45 L277.6 181.35 M277.65 181.35 L278.55 181.85" ffdec:has-small-stroke="true" ffdec:original-stroke-width="0.5" fill="none" stroke="#342001" stroke-linecap="round" stroke-linejoin="round" stroke-width="1.0"/>
    <path d="M337.8 170.9 L341.6 165.75 M265.25 162.2 L272.95 160.9 M263.2 162.55 L261.9 162.75 M263.2 162.55 L265.25 162.2 M288.4 165.7 L288.75 169.35 M294.25 162.4 L300.15 162.4" ffdec:has-small-stroke="true" ffdec:original-stroke-width="0.05" fill="none" stroke="#4e4f42" stroke-linecap="round" stroke-linejoin="round" stroke-width="1.0"/>
  </g>
</svg>
