<?xml version="1.0" encoding="UTF-8" standalone="no"?>
<svg xmlns:ffdec="https://www.free-decompiler.com/flash" xmlns:xlink="http://www.w3.org/1999/xlink" ffdec:objectType="shape" height="40.55px" width="41.9px" xmlns="http://www.w3.org/2000/svg">
  <g transform="matrix(1.0, 0.0, 0.0, 1.0, -251.0, -184.65)">
    <path d="M273.85 192.15 L273.95 192.5 273.6 192.55 273.6 192.45 273.85 192.15 M283.25 198.25 L286.1 195.9 288.4 197.8 284.45 200.8 285.15 203.2 287.9 204.1 287.2 205.35 285.9 205.65 283.25 206.3 283.1 205.75 282.95 205.2 283.0 204.8 282.9 204.9 282.2 205.85 282.05 206.05 281.9 205.85 281.95 205.85 282.2 205.85 281.95 205.85 281.9 205.85 281.8 205.8 281.75 205.85 281.7 205.9 281.7 206.15 281.65 206.15 281.4 207.0 280.2 204.9 279.9 204.3 279.8 204.4 279.5 204.75 277.3 212.85 277.15 213.25 277.35 212.85 277.35 213.15 276.7 214.2 276.7 213.25 275.65 214.0 275.55 214.95 274.8 215.4 273.15 215.05 272.85 215.0 273.1 214.85 272.65 214.55 272.6 214.85 272.55 214.45 272.5 212.85 271.45 214.3 270.8 214.7 270.9 214.2 270.8 214.1 270.75 214.1 270.7 214.05 270.5 214.2 271.0 213.65 270.9 213.6 270.65 213.5 270.6 213.5 269.7 213.1 272.15 211.9 271.55 211.4 268.6 211.15 269.2 211.75 267.7 212.9 267.05 213.8 267.0 213.8 267.05 213.95 267.0 214.2 266.9 214.45 266.85 214.55 266.7 214.7 266.55 215.05 264.75 213.65 262.15 214.35 261.95 212.35 263.0 211.9 263.25 210.8 263.1 210.7 262.8 210.25 262.35 210.25 263.45 209.95 263.5 209.95 263.45 209.85 263.15 209.6 263.15 209.55 263.05 209.45 264.9 210.15 265.0 210.25 265.2 211.05 263.45 211.75 265.2 211.05 265.3 211.05 265.45 210.9 265.5 210.9 266.25 210.4 266.1 213.35 266.75 213.2 268.35 210.85 267.55 211.0 267.3 208.85 271.75 206.75 277.3 205.7 275.85 201.65 276.65 201.65 277.1 202.2 277.7 200.3 276.75 199.8 278.15 198.9 278.4 197.95 280.45 198.5 280.3 198.95 280.7 199.15 280.95 200.1 283.25 198.25 M269.95 219.6 L269.35 219.85 269.35 219.75 269.3 218.7 269.45 218.8 269.85 219.45 269.95 219.6 M267.95 219.4 L265.8 225.2 263.55 223.45 264.95 218.2 265.05 218.05 265.0 217.7 265.05 217.6 266.15 218.05 267.85 219.1 267.95 219.4 M257.2 208.45 L256.55 207.5 258.1 206.85 258.1 206.8 261.35 205.4 262.6 206.5 262.65 206.6 262.25 206.65 261.75 206.75 260.2 206.55 259.9 207.05 259.65 207.05 258.05 207.7 258.0 207.7 257.95 207.85 257.35 208.35 257.2 208.45 M257.15 206.6 L257.1 206.5 251.0 205.4 252.35 202.85 257.75 203.35 257.9 203.4 258.25 203.3 258.35 203.3 259.7 203.2 257.15 206.6 M267.0 207.6 L266.9 207.65 266.9 207.6 267.0 207.6 M273.7 197.3 L273.7 197.25 273.55 196.1 276.6 196.25 277.75 196.0 277.35 196.5 276.15 197.9 276.15 197.85 275.75 197.75 273.7 197.3 M271.15 193.6 L272.4 193.5 272.95 193.3 273.3 193.0 273.45 192.7 273.45 192.75 273.7 193.05 273.65 193.1 274.35 194.3 271.15 193.6 M272.7 215.05 L272.7 215.15 272.6 215.1 272.7 215.05 M272.75 198.6 L272.6 198.6 272.7 198.55 272.75 198.6 M271.9 203.6 L271.85 203.65 271.85 203.6 271.9 203.6 M263.4 211.75 L263.0 211.9 263.4 211.75 263.45 211.75 263.85 211.15 263.85 211.1 263.4 211.75 M269.35 218.65 L269.3 218.7 269.3 218.45 269.35 218.65" fill="#fbf3d9" fill-rule="evenodd" stroke="none"/>
    <path d="M257.75 203.35 L258.1 202.25 258.05 202.05 252.35 196.1 252.5 195.9 Q253.55 195.4 254.6 194.95 L258.2 197.05 256.45 192.75 258.4 192.85 258.75 193.25 262.85 198.2 263.0 196.5 264.0 197.0 266.15 198.1 266.95 200.5 262.95 200.3 262.85 200.25 262.8 200.35 262.4 201.95 261.2 204.25 261.55 204.1 266.1 206.25 265.55 205.1 267.95 205.25 269.35 206.5 267.0 207.6 266.9 207.6 266.8 207.5 266.45 207.05 266.1 206.25 266.45 207.05 266.8 207.5 266.9 207.6 266.9 207.65 267.3 208.8 267.3 208.85 267.55 211.0 268.35 210.85 266.75 213.2 266.1 213.35 266.25 210.4 265.5 210.9 265.45 210.9 265.3 211.05 265.2 211.05 265.0 210.25 264.9 210.15 263.05 209.45 263.15 209.55 263.15 209.6 263.45 209.85 263.5 209.95 263.45 209.95 262.35 210.25 262.8 210.25 263.1 210.7 263.25 210.8 263.0 211.9 261.95 212.35 262.15 214.35 264.75 213.65 266.55 215.05 266.7 214.7 266.85 214.55 266.9 214.45 267.0 214.2 267.05 213.95 267.0 213.8 267.05 213.8 267.7 212.9 269.2 211.75 268.6 211.15 271.55 211.4 272.15 211.9 269.7 213.1 270.6 213.5 270.65 213.5 270.9 213.6 271.0 213.65 270.5 214.2 270.7 214.05 270.75 214.1 270.8 214.1 270.9 214.2 270.8 214.7 271.45 214.3 272.5 212.85 272.55 214.45 272.6 214.85 272.75 215.0 273.1 215.1 274.8 215.4 275.55 214.95 275.65 214.0 276.7 213.25 276.7 214.2 277.35 213.15 277.35 212.85 280.1 207.3 280.45 207.75 283.7 207.2 284.6 208.05 284.75 208.1 285.65 208.2 285.9 208.3 285.65 208.2 284.75 208.1 284.6 208.05 283.7 207.2 287.25 206.65 287.25 206.6 Q287.2 206.25 287.3 206.0 L286.75 205.8 286.2 205.7 285.9 205.65 287.2 205.35 287.75 205.2 287.85 205.4 287.95 206.95 287.2 207.45 287.3 207.15 287.25 206.65 287.3 207.15 287.2 207.45 286.35 208.0 285.9 208.3 285.8 208.35 285.7 208.4 286.5 208.55 287.15 208.65 287.75 208.95 288.1 209.15 290.0 209.55 292.9 210.15 292.85 210.45 291.7 212.4 290.35 212.5 290.75 212.2 291.05 211.6 291.65 210.85 Q291.0 210.1 290.4 209.8 L290.0 209.55 290.4 209.8 Q291.0 210.1 291.65 210.85 L291.05 211.6 290.75 212.2 290.35 212.5 287.95 212.7 287.75 212.7 287.55 212.75 288.55 213.4 289.3 213.9 291.4 215.25 290.85 215.6 289.75 216.3 283.05 214.35 282.55 213.4 282.35 213.0 281.2 216.15 277.85 216.7 274.9 219.55 277.4 221.75 278.3 222.55 278.35 222.6 278.3 222.6 278.3 222.55 278.3 222.6 277.35 223.05 274.15 222.35 272.2 221.45 271.8 220.85 271.4 220.15 271.05 219.9 270.9 219.8 Q270.1 219.55 270.0 219.95 L269.95 219.6 269.85 219.45 269.45 218.8 269.3 218.7 269.35 219.75 269.35 219.85 269.4 220.6 269.4 220.65 269.35 220.6 269.4 220.6 269.35 220.6 268.7 220.25 268.1 219.9 267.95 219.4 267.85 219.1 266.15 218.05 265.05 217.6 265.0 217.7 265.05 218.05 264.95 218.2 263.95 217.65 263.75 217.65 256.85 222.3 256.7 222.1 256.25 220.4 261.45 215.45 258.55 216.7 258.5 216.75 254.3 217.65 254.7 215.75 254.6 215.6 255.8 211.1 Q258.35 209.8 260.85 208.45 L265.2 208.2 262.25 206.65 262.65 206.6 262.6 206.5 261.35 205.4 258.1 206.8 258.1 206.85 257.15 206.6 259.7 203.2 258.35 203.3 258.25 203.3 257.9 203.4 257.75 203.35 M273.95 192.5 L274.6 192.5 274.75 192.35 276.7 187.4 277.8 184.65 278.1 184.75 279.8 186.2 279.7 187.6 279.45 190.0 279.4 190.2 279.45 190.4 280.25 189.5 280.9 188.9 282.55 187.0 282.85 187.6 283.35 188.85 281.3 193.0 280.25 192.2 278.0 195.95 277.75 196.0 276.6 196.25 273.55 196.1 273.7 197.25 270.45 194.35 270.3 193.6 270.3 193.4 271.15 193.6 270.3 193.6 271.15 193.6 274.35 194.3 273.65 193.1 273.7 193.05 273.45 192.75 273.45 192.7 273.45 192.6 273.6 192.55 273.95 192.5 M276.9 192.0 L278.3 191.25 279.15 190.25 279.45 190.0 279.15 190.25 278.3 191.25 276.9 192.0 M279.7 187.6 L279.45 187.15 278.95 186.75 278.3 186.0 277.0 187.1 276.7 187.4 277.0 187.1 278.3 186.0 278.95 186.75 279.45 187.15 279.7 187.6 M280.9 188.9 Q281.2 188.6 281.65 188.4 282.5 188.2 282.85 187.6 282.5 188.2 281.65 188.4 281.2 188.6 280.9 188.9 M273.6 192.55 L273.45 192.7 273.6 192.55 M272.7 215.05 L272.75 215.05 273.1 215.1 272.75 215.05 272.7 215.05 272.6 215.1 272.7 215.15 272.7 215.05 M289.3 213.9 L289.9 214.6 Q290.2 215.4 290.85 215.6 290.2 215.4 289.9 214.6 L289.3 213.9 M285.5 210.5 L286.5 211.75 Q286.9 212.25 287.65 212.45 L287.95 212.7 287.65 212.45 Q286.9 212.25 286.5 211.75 L285.5 210.5 M282.9 204.9 L283.0 204.8 282.95 205.2 282.9 204.9 M281.9 205.85 L281.75 205.85 281.8 205.8 281.9 205.85 M280.2 204.9 L279.8 204.4 279.9 204.3 280.2 204.9 M277.3 212.85 L277.35 212.85 277.15 213.25 277.3 212.85 M272.6 198.6 L272.75 198.6 272.7 198.55 272.6 198.6 M272.8 198.65 L272.75 198.6 272.8 198.65 272.65 198.75 271.8 199.75 272.35 201.75 268.1 201.35 267.95 199.15 268.05 198.95 267.6 197.3 Q270.7 197.2 273.55 198.55 L272.8 198.65 M271.95 203.6 L271.9 203.6 271.95 203.6 271.9 203.75 271.8 204.65 272.85 205.8 270.3 206.75 269.4 205.35 269.35 205.2 268.45 204.3 Q270.2 203.3 272.35 203.35 L271.95 203.6 M271.85 203.65 L271.9 203.6 271.85 203.6 271.85 203.65 M271.65 217.2 L272.95 218.25 273.5 218.7 274.7 219.55 276.95 221.55 277.2 221.75 277.4 221.75 277.2 221.75 276.95 221.55 274.7 219.55 273.5 218.7 272.95 218.25 271.65 217.2 M269.35 218.65 L269.3 218.45 269.3 218.7 269.35 218.65 M269.3 218.7 L269.25 219.4 269.25 219.65 269.35 219.75 269.25 219.65 269.25 219.4 269.3 218.7 M282.25 212.85 L282.2 212.85 282.25 212.85 282.35 213.0 282.25 212.85 M262.85 200.25 L262.75 200.1 262.7 199.35 262.85 198.3 262.85 198.2 262.85 198.3 262.7 199.35 262.75 200.1 262.85 200.25 M261.2 204.25 L260.4 204.6 261.2 204.25" fill="#d7c59b" fill-rule="evenodd" stroke="none"/>
    <path d="M258.75 193.25 L260.55 191.6 262.9 192.9 264.35 192.15 265.8 194.75 264.85 194.8 263.7 196.3 264.0 197.0 263.0 196.5 262.85 198.2 258.75 193.25 M281.3 193.0 L283.1 194.4 282.2 196.95 283.25 198.25 280.95 200.1 280.7 199.15 280.3 198.95 280.45 198.5 278.4 197.95 278.15 198.9 276.75 199.8 277.7 200.3 277.1 202.2 276.65 201.65 275.85 201.65 275.35 201.6 274.45 203.65 274.4 203.7 273.5 204.25 273.25 203.7 273.15 203.45 274.0 202.6 273.7 197.3 275.75 197.75 276.15 197.85 276.15 197.9 277.35 196.5 278.0 195.95 280.25 192.2 281.3 193.0 M263.8 200.7 L264.85 201.15 264.85 201.2 263.8 200.75 263.8 200.7 M276.2 198.05 L276.3 198.4 276.35 198.35 276.2 198.05 275.75 197.75 276.2 198.05 M276.35 198.6 L276.35 198.65 276.4 198.65 276.35 198.6" fill="#e1cfa8" fill-rule="evenodd" stroke="none"/>
    <path d="M264.35 192.15 L262.55 188.9 264.8 186.95 267.1 191.35 269.6 191.1 271.05 188.35 272.95 188.0 273.85 192.15 273.6 192.45 273.6 192.55 273.45 192.6 273.45 192.7 273.3 193.0 272.95 193.3 272.4 193.5 271.15 193.6 270.3 193.4 270.3 193.6 270.45 194.35 273.7 197.25 273.7 197.3 274.0 202.6 273.15 203.45 273.25 203.7 273.5 204.25 274.4 203.7 274.45 203.65 275.35 201.6 275.85 201.65 277.3 205.7 271.75 206.75 267.3 208.85 267.3 208.8 266.9 207.65 267.0 207.6 269.35 206.5 267.95 205.25 265.55 205.1 266.1 206.25 261.55 204.1 261.2 204.25 262.4 201.95 262.8 200.35 263.8 200.75 264.85 201.2 264.85 201.15 263.8 200.7 262.95 200.3 266.95 200.5 266.15 198.1 264.0 197.0 263.7 196.3 264.85 194.8 265.8 194.75 264.35 192.15 M256.25 220.4 L256.1 219.85 258.55 216.95 258.55 216.7 261.45 215.45 256.25 220.4 M255.8 211.1 L256.4 208.9 256.9 208.6 257.2 208.45 257.35 208.35 257.95 207.85 258.0 207.7 258.05 207.7 259.65 207.05 259.9 207.05 260.2 206.55 261.75 206.75 262.25 206.65 265.2 208.2 260.85 208.45 Q258.35 209.8 255.8 211.1 M265.8 197.0 L267.5 197.05 267.6 197.3 267.5 197.05 265.8 197.0 M285.9 205.65 L286.2 205.7 286.75 205.8 287.3 206.0 Q287.2 206.25 287.25 206.6 L287.25 206.65 283.7 207.2 280.45 207.75 280.1 207.3 277.35 212.85 277.3 212.85 279.5 204.75 279.8 204.4 280.2 204.9 281.4 207.0 281.65 206.15 281.7 206.15 281.7 205.9 281.75 205.85 281.9 205.85 282.05 206.05 282.2 205.85 282.9 204.9 282.95 205.2 283.1 205.75 283.25 206.3 285.9 205.65 M272.8 198.65 L273.55 198.55 Q270.7 197.2 267.6 197.3 L268.05 198.95 267.95 199.15 268.1 201.35 272.35 201.75 271.8 199.75 272.65 198.75 272.8 198.65 M271.95 203.6 L272.35 203.35 Q270.2 203.3 268.45 204.3 L269.35 205.2 269.4 205.35 270.3 206.75 272.85 205.8 271.8 204.65 271.9 203.75 271.95 203.6 M267.35 204.65 L268.3 204.15 268.45 204.3 268.3 204.15 267.35 204.65 M259.9 207.05 L259.4 207.8 259.9 207.05" fill="#f8eab8" fill-rule="evenodd" stroke="none"/>
    <path d="M257.75 203.35 L258.1 202.25 258.05 202.05 252.35 196.1 252.5 195.9 Q253.55 195.4 254.6 194.95 L258.2 197.05 256.45 192.75 258.4 192.85 258.75 193.25 260.55 191.6 262.9 192.9 264.35 192.15 262.55 188.9 264.8 186.95 267.1 191.35 269.6 191.1 271.05 188.35 272.95 188.0 273.85 192.15 273.6 192.45 273.6 192.55 273.45 192.6 273.45 192.7 273.6 192.55 M273.95 192.5 L274.6 192.5 274.75 192.35 276.7 187.4 277.8 184.65 278.1 184.75 279.8 186.2 279.7 187.6 279.45 190.0 279.15 190.25 278.3 191.25 276.9 192.0 M279.4 190.2 L279.6 189.85 279.95 189.7 280.25 189.5 280.9 188.9 Q281.2 188.6 281.65 188.4 282.5 188.2 282.85 187.6 L283.35 188.85 281.3 193.0 283.1 194.4 282.2 196.95 283.25 198.25 286.1 195.9 288.4 197.8 284.45 200.8 285.15 203.2 287.9 204.1 287.2 205.35 287.75 205.2 287.85 205.4 287.95 206.95 287.2 207.45 286.55 208.1 286.45 208.15 286.05 208.3 286.3 208.45 286.5 208.55 287.15 208.65 287.75 208.95 288.1 209.15 290.0 209.55 292.9 210.15 292.85 210.45 291.7 212.4 290.35 212.5 288.75 212.9 288.1 212.8 288.3 213.15 288.55 213.4 289.3 213.9 289.9 214.6 Q290.2 215.4 290.85 215.6 L289.75 216.3 283.05 214.35 282.55 213.4 282.35 213.0 281.2 216.15 277.85 216.7 274.9 219.55 277.4 221.75 278.3 222.55 278.3 222.6 278.35 222.95 277.35 223.05 274.15 222.35 273.95 222.35 273.6 222.25 Q272.7 222.05 272.2 221.45 L271.8 220.85 271.4 220.15 271.05 219.9 270.9 219.8 Q270.1 219.55 270.0 219.95 L269.95 219.6 269.85 219.45 269.45 218.8 269.3 218.7 269.25 219.4 269.25 219.65 269.35 219.75 269.35 219.85 269.4 220.6 269.35 220.6 269.2 220.75 268.7 220.25 268.1 219.9 267.95 219.4 265.8 225.2 263.55 223.45 264.95 218.2 263.95 217.65 263.75 217.65 256.85 222.3 256.7 222.1 256.25 220.4 256.1 219.85 258.55 216.95 258.55 216.7 M258.5 216.75 L254.3 217.65 254.7 215.75 254.6 215.6 255.8 211.1 256.4 208.9 256.9 208.6 257.2 208.45 256.55 207.5 258.1 206.85 257.15 206.6 257.1 206.5 251.0 205.4 252.35 202.85 257.75 203.35 257.9 203.4 258.25 203.3 258.35 203.3 259.7 203.2 257.15 206.6 M264.35 192.15 L265.8 194.75 264.85 194.8 263.7 196.3 264.0 197.0 266.15 198.1 266.95 200.5 262.95 200.3 263.8 200.7 264.85 201.15 264.85 201.2 263.8 200.75 262.8 200.35 262.4 201.95 261.2 204.25 261.55 204.1 266.1 206.25 265.55 205.1 267.95 205.25 269.35 206.5 267.0 207.6 266.9 207.6 266.9 207.65 267.3 208.8 267.3 208.85 267.55 211.0 268.35 210.85 266.75 213.2 266.1 213.35 266.25 210.4 265.5 210.9 265.45 210.9 265.3 211.05 265.2 211.05 265.0 210.25 264.9 210.15 263.05 209.45 263.15 209.55 263.15 209.6 263.45 209.85 263.5 209.95 263.45 209.95 262.35 210.25 262.8 210.25 263.1 210.7 263.25 210.8 263.0 211.9 263.4 211.75 263.45 211.75 265.2 211.05 M275.85 201.65 L275.35 201.6 274.45 203.65 274.4 203.7 273.5 204.25 273.25 203.7 273.15 203.45 274.0 202.6 273.7 197.3 275.75 197.75 276.15 197.85 276.15 197.9 277.35 196.5 277.75 196.0 276.6 196.25 273.55 196.1 273.7 197.25 270.45 194.35 270.3 193.6 270.3 193.4 271.15 193.6 272.4 193.5 272.95 193.3 273.3 193.0 273.45 192.7 273.45 192.75 273.7 193.05 273.65 193.1 274.35 194.3 271.15 193.6 270.3 193.6 M267.6 197.3 L267.5 197.05 265.8 197.0 M276.7 187.4 L277.0 187.1 278.3 186.0 278.95 186.75 279.45 187.15 279.7 187.6 M278.0 195.95 L280.25 192.2 281.3 193.0 M277.35 196.5 L278.0 195.95 M285.9 205.65 L286.2 205.7 286.75 205.8 287.3 206.0 Q287.2 206.25 287.25 206.6 L287.25 206.65 287.3 207.15 287.2 207.45 286.35 208.0 286.55 208.1 M285.8 208.35 L285.7 208.4 286.5 208.55 M285.9 208.3 L285.8 208.35 286.05 208.3 285.9 208.3 285.65 208.2 284.75 208.1 284.6 208.05 283.7 207.2 M280.45 207.75 L280.1 207.3 277.35 212.85 277.15 213.25 277.3 212.85 279.5 204.75 279.8 204.4 279.9 204.3 280.2 204.9 279.8 204.4 M277.35 213.15 L276.7 214.2 276.7 213.25 275.65 214.0 275.55 214.95 274.8 215.4 273.1 215.1 272.75 215.05 272.7 215.05 272.7 215.15 272.6 215.1 272.7 215.05 M285.9 205.65 L287.2 205.35 M286.35 208.0 L285.9 208.3 M290.0 209.55 L290.4 209.8 Q291.0 210.1 291.65 210.85 L291.05 211.6 290.75 212.2 290.35 212.5 287.95 212.7 288.1 212.8 287.75 212.7 287.55 212.75 288.55 213.4 M287.95 212.7 L287.75 212.7 M287.95 212.7 L287.65 212.45 Q286.9 212.25 286.5 211.75 L285.5 210.5 M283.25 198.25 L280.95 200.1 280.7 199.15 280.3 198.95 280.45 198.5 278.4 197.95 278.15 198.9 276.75 199.8 277.7 200.3 277.1 202.2 276.65 201.65 275.85 201.65 M276.2 198.05 L275.75 197.75 M282.95 205.2 L283.0 204.8 282.9 204.9 282.95 205.2 283.1 205.75 283.25 206.3 285.9 205.65 M281.9 205.85 L281.95 205.85 282.2 205.85 282.9 204.9 M282.2 205.85 L282.05 206.05 281.9 205.85 281.75 205.85 281.7 205.9 281.7 206.15 281.65 206.15 281.4 207.0 280.2 204.9 M281.75 205.85 L281.8 205.8 281.9 205.85 M272.75 198.6 L272.6 198.6 M272.75 198.6 L272.8 198.65 273.55 198.55 Q270.7 197.2 267.6 197.3 L268.05 198.95 267.95 199.15 268.1 201.35 272.35 201.75 271.8 199.75 272.65 198.75 272.8 198.65 M271.9 203.6 L271.95 203.6 272.35 203.35 Q270.2 203.3 268.45 204.3 L269.35 205.2 269.4 205.35 270.3 206.75 272.85 205.8 271.8 204.65 271.9 203.75 271.95 203.6 M271.9 203.6 L271.85 203.65 M266.1 206.25 L266.45 207.05 266.8 207.5 266.9 207.6 M268.45 204.3 L268.3 204.15 267.35 204.65 M263.0 211.9 L261.95 212.35 262.15 214.35 264.75 213.65 266.55 215.05 266.7 214.7 266.85 214.55 266.9 214.45 267.0 214.2 267.05 213.95 267.0 213.8 267.05 213.8 267.7 212.9 269.2 211.75 268.6 211.15 271.55 211.4 272.15 211.9 269.7 213.1 270.6 213.5 270.65 213.5 270.9 213.6 271.0 213.65 270.5 214.2 270.7 214.05 270.75 214.1 270.8 214.1 270.9 214.2 270.8 214.7 271.45 214.3 272.5 212.85 272.55 214.45 272.6 214.85 272.75 215.0 273.1 215.1 273.15 215.05 M267.95 219.4 L267.85 219.1 266.15 218.05 265.05 217.6 265.0 217.7 265.05 218.05 264.95 218.2 M277.4 221.75 L277.2 221.75 276.95 221.55 274.7 219.55 273.5 218.7 272.95 218.25 271.65 217.2 M268.7 220.25 L269.35 220.6 M282.25 212.85 L282.2 212.85 M282.25 212.85 L282.35 213.0 M272.2 221.45 L274.15 222.35 M262.85 198.2 L262.85 198.3 262.7 199.35 262.75 200.1 262.85 200.25 262.8 200.35 M262.25 206.65 L262.65 206.6 262.6 206.5 261.35 205.4 258.1 206.8 258.1 206.85 M257.2 208.45 L257.35 208.35 257.95 207.85 258.0 207.7 258.05 207.7 259.65 207.05 259.9 207.05 260.2 206.55 261.75 206.75 262.25 206.65 M260.4 204.6 L261.2 204.25 M259.4 207.8 L259.9 207.05 M277.35 223.05 L278.3 222.6 M258.75 193.25 L262.85 198.2 263.0 196.5" ffdec:has-small-stroke="true" ffdec:original-stroke-width="0.05" fill="none" stroke="#381d1d" stroke-linecap="round" stroke-linejoin="round" stroke-opacity="0.5019608" stroke-width="1.0"/>
  </g>
</svg>
