<?xml version="1.0" encoding="UTF-8" standalone="no"?>
<svg xmlns:ffdec="https://www.free-decompiler.com/flash" xmlns:xlink="http://www.w3.org/1999/xlink" ffdec:objectType="shape" height="68.3px" width="120.3px" xmlns="http://www.w3.org/2000/svg">
  <g transform="matrix(1.0, 0.0, 0.0, 1.0, -204.3, -158.75)">
    <path d="M216.35 185.6 L222.75 185.15 226.15 186.15 235.1 186.8 Q239.1 186.6 243.25 186.95 L245.6 187.2 246.05 187.6 246.95 188.25 247.55 188.1 243.3 184.6 243.25 184.55 241.65 183.1 242.05 183.2 243.25 183.7 Q244.4 184.2 245.5 184.8 247.95 186.05 250.25 187.55 L251.75 187.2 252.65 187.2 253.7 187.45 255.75 189.25 256.05 189.6 255.8 186.35 Q254.8 177.3 250.95 169.15 249.55 166.2 247.8 163.35 247.25 162.5 246.65 158.75 L248.85 161.75 249.0 161.95 250.2 163.35 Q252.3 166.1 254.0 169.15 256.35 173.35 257.95 178.15 L259.6 179.05 260.3 179.6 259.55 176.3 Q258.35 171.5 257.5 166.65 L259.25 169.6 Q262.5 175.3 265.15 181.3 L265.5 178.25 Q266.2 171.7 266.25 165.0 L266.95 164.9 Q267.55 164.85 267.6 165.45 268.9 179.0 269.6 192.75 L271.45 198.7 271.55 199.1 271.4 199.65 269.95 202.15 271.7 201.65 Q271.9 200.45 272.4 199.35 L272.45 199.25 273.05 197.95 Q274.7 194.9 275.5 191.7 276.55 191.05 277.75 190.5 287.05 185.95 296.65 182.7 L297.35 183.3 Q298.4 184.6 295.55 186.4 287.8 191.15 281.0 196.25 L274.75 201.3 276.2 200.45 279.05 198.7 280.7 198.45 Q293.4 195.8 306.5 196.2 L307.6 196.25 309.2 196.15 Q308.3 198.3 293.2 202.95 L289.85 203.95 289.05 204.2 307.25 209.9 310.75 210.95 315.6 212.1 Q318.35 212.7 323.85 215.95 L317.15 214.45 310.05 212.95 296.2 210.25 293.7 209.8 Q290.8 207.75 290.45 209.25 L290.25 209.2 290.45 209.3 290.45 210.45 Q291.6 210.75 289.95 210.5 L300.8 218.0 Q305.7 221.25 310.3 225.05 L311.75 226.55 310.5 226.55 310.05 226.2 305.05 222.3 Q299.0 217.8 292.5 214.15 L299.1 219.15 306.3 225.0 Q302.95 224.5 300.15 222.6 293.25 218.0 286.1 214.3 L278.75 210.75 284.1 215.45 280.1 213.55 Q287.45 219.9 294.6 226.55 L292.35 226.55 286.5 221.55 272.7 210.4 Q271.45 210.35 270.4 209.2 L270.15 209.05 Q266.35 207.45 267.1 206.15 L266.6 206.0 Q266.75 207.25 266.25 208.05 269.75 210.4 273.25 212.85 L274.2 213.5 282.4 219.4 291.8 226.55 290.9 226.55 286.05 224.0 275.8 218.75 Q276.6 219.75 277.9 220.55 L283.05 224.25 285.6 226.55 280.8 226.55 Q277.9 224.2 274.65 222.15 L273.4 222.35 Q255.1 218.15 250.1 203.75 L243.25 203.0 236.75 202.4 236.75 198.7 206.55 198.7 216.5 196.4 232.0 193.1 230.85 192.8 219.9 193.55 216.6 193.8 217.05 193.3 230.75 191.2 228.9 190.65 227.75 190.35 223.2 190.2 215.3 190.5 Q215.7 189.8 216.25 189.75 L222.05 188.95 217.1 188.1 216.15 188.0 204.3 187.2 204.7 186.7 216.35 185.6 M309.85 193.8 L309.85 193.4 310.75 193.5 311.0 193.8 309.9 193.85 309.85 193.8 M255.05 195.3 L254.6 196.3 Q255.3 196.55 256.0 197.1 L256.0 197.0 256.0 196.8 255.05 195.3 M262.95 193.55 L263.5 190.95 263.25 190.1 Q263.2 192.1 262.75 194.1 L262.4 195.2 261.65 197.4 261.85 197.7 262.5 195.3 262.95 193.55" fill="#463526" fill-rule="evenodd" stroke="none"/>
    <path d="M216.35 185.6 L205.0 184.9 205.4 184.4 223.45 182.85 Q224.6 183.35 226.9 183.85 L235.8 184.5 Q239.5 184.3 243.3 184.6 L247.55 188.1 246.95 188.25 246.05 187.6 245.6 187.2 243.25 186.95 Q239.1 186.6 235.1 186.8 L226.15 186.15 222.75 185.15 216.35 185.6 M245.5 184.8 L246.35 184.9 246.75 185.3 247.65 185.95 248.25 185.8 243.95 182.25 242.35 180.8 242.75 180.9 243.95 181.4 Q247.65 183.1 250.95 185.25 L252.45 184.9 253.35 184.9 254.45 185.15 255.8 186.35 256.05 189.6 255.75 189.25 253.7 187.45 252.65 187.2 251.75 187.2 250.25 187.55 Q247.95 186.05 245.5 184.8 M249.0 161.95 L248.5 161.05 247.4 159.45 249.55 159.45 250.9 161.05 Q253.0 163.8 254.7 166.85 257.05 171.05 258.65 175.85 L259.55 176.3 260.3 179.6 259.6 179.05 257.95 178.15 Q256.35 173.35 254.0 169.15 252.3 166.1 250.2 163.35 L249.0 161.95 M259.25 169.6 L258.2 164.35 Q262.3 171.05 265.5 178.25 L265.15 181.3 Q262.5 175.3 259.25 169.6 M266.95 164.9 L267.0 162.7 Q268.2 162.3 268.3 163.15 269.6 176.65 270.3 190.45 L272.25 196.8 271.45 198.7 269.6 192.75 Q268.9 179.0 267.6 165.45 267.55 164.85 266.95 164.9 M271.4 199.65 L272.4 199.35 Q271.9 200.45 271.7 201.65 L269.95 202.15 271.4 199.65 M272.45 199.25 Q272.75 197.35 273.75 195.65 L275.5 191.7 276.2 189.4 Q277.25 188.75 278.45 188.2 287.75 183.65 297.35 180.4 299.35 181.6 297.35 183.3 L296.65 182.7 Q287.05 185.95 277.75 190.5 276.55 191.05 275.5 191.7 274.7 194.9 273.05 197.95 L272.45 199.25 M281.0 196.25 L281.45 196.15 Q294.7 193.35 308.35 193.95 L309.85 193.8 309.9 193.85 Q309.5 194.8 306.5 196.2 293.4 195.8 280.7 198.45 L279.05 198.7 276.2 200.45 274.75 201.3 281.0 196.25 M293.2 202.95 Q301.95 205.55 310.75 208.6 L317.85 211.1 324.6 213.65 317.85 212.15 310.75 210.65 307.25 209.9 289.05 204.2 289.85 203.95 293.2 202.95 M293.7 209.8 L295.95 211.55 Q303.8 216.95 310.5 223.8 L312.2 225.6 310.95 225.6 310.5 225.2 310.3 225.05 Q305.7 221.25 300.8 218.0 L289.95 210.5 Q291.6 210.75 290.45 210.45 L290.45 209.3 290.45 209.25 Q290.8 207.75 293.7 209.8 M305.05 222.3 Q302.8 221.65 300.85 220.3 L299.1 219.15 292.5 214.15 Q299.0 217.8 305.05 222.3 M284.1 215.45 L287.45 217.1 298.25 227.05 295.15 227.05 294.6 226.55 Q287.45 219.9 280.1 213.55 L284.1 215.45 M286.5 221.55 L282.4 219.4 274.2 213.5 273.25 212.85 Q269.75 210.4 266.25 208.05 266.75 207.25 266.6 206.0 L267.1 206.15 Q266.35 207.45 270.15 209.05 L270.4 209.2 Q271.45 210.35 272.7 210.4 L286.5 221.55 M286.05 224.0 L286.3 224.25 283.05 224.25 277.9 220.55 Q276.6 219.75 275.8 218.75 L286.05 224.0 M216.5 196.4 L207.25 196.4 219.9 193.55 230.85 192.8 232.0 193.1 216.5 196.4 M228.9 190.65 L217.3 191.5 Q217.45 191.05 217.75 191.0 L223.2 190.2 227.75 190.35 228.9 190.65 M217.1 188.1 L216.0 188.2 216.15 188.0 217.1 188.1 M255.05 195.3 L256.0 196.8 256.0 197.0 256.0 197.1 Q255.3 196.55 254.6 196.3 L255.05 195.3 M262.95 193.55 L262.75 194.1 Q263.2 192.1 263.25 190.1 L263.5 190.95 262.95 193.55 M262.4 195.2 L262.5 195.3 261.85 197.7 261.65 197.4 262.4 195.2" fill="#999999" fill-rule="evenodd" stroke="none"/>
  </g>
</svg>
