<?xml version="1.0" encoding="UTF-8" standalone="no"?>
<svg xmlns:ffdec="https://www.free-decompiler.com/flash" xmlns:xlink="http://www.w3.org/1999/xlink" ffdec:objectType="shape" height="43.8px" width="141.65px" xmlns="http://www.w3.org/2000/svg">
  <g transform="matrix(1.0, 0.0, 0.0, 1.0, -210.7, -191.8)">
    <path d="M325.0 191.9 L325.2 192.15 324.65 192.15 325.0 191.9 M352.15 224.75 L352.35 224.7 352.25 224.85 352.15 224.75 M313.3 192.15 L313.65 191.8 314.0 192.15 313.3 192.15" fill="#463526" fill-rule="evenodd" stroke="none"/>
    <path d="M217.8 194.75 L227.75 203.25 228.3 203.7 228.55 203.95 228.5 203.7 228.45 203.45 228.35 203.1 227.35 198.4 221.75 194.6 Q224.45 195.85 227.15 197.2 226.55 193.7 226.7 192.35 L226.75 192.15 227.35 192.4 Q229.5 195.7 231.15 199.2 L235.4 201.45 235.5 201.5 236.0 195.25 Q236.0 194.4 236.25 193.95 L236.1 193.1 236.8 193.25 236.95 193.4 237.6 193.6 237.7 194.15 Q242.1 198.7 245.45 204.05 L247.1 205.5 246.8 201.2 246.4 200.95 243.45 198.95 246.7 200.5 245.8 194.15 Q245.45 191.75 247.05 192.2 L248.8 196.65 249.05 196.75 Q251.15 200.0 252.8 203.45 L255.0 202.4 255.45 203.05 253.8 204.05 255.9 205.15 257.4 203.95 257.7 199.6 Q257.7 198.75 257.95 198.3 L257.8 197.45 258.5 197.6 258.65 197.75 259.3 197.95 259.4 198.5 261.4 200.7 265.95 197.1 266.5 197.65 262.4 201.8 263.65 203.4 268.0 202.15 268.05 202.1 267.5 198.5 Q267.15 196.1 268.75 196.55 L271.45 203.85 280.35 203.55 280.35 203.65 Q275.9 203.95 271.9 205.2 L272.6 207.6 272.8 208.65 276.7 206.75 277.15 207.4 271.8 210.9 271.05 212.6 273.85 212.35 274.75 211.9 275.8 211.05 275.6 209.9 276.25 210.05 276.6 210.35 287.65 201.45 288.2 202.0 Q284.6 205.4 281.55 209.05 286.15 207.3 291.0 206.15 L286.5 209.0 286.55 209.0 287.05 210.15 Q289.1 209.2 291.2 208.65 L291.25 208.65 Q296.55 207.2 302.05 207.9 L302.05 208.0 Q296.95 208.35 292.45 209.9 L291.2 210.35 287.75 211.95 289.15 216.0 289.4 216.1 289.4 216.25 289.2 216.2 289.25 216.3 291.2 216.0 Q294.65 215.55 298.15 216.0 L298.15 216.15 Q294.55 216.35 291.2 217.25 L289.65 217.65 290.35 220.1 290.7 221.5 289.9 222.85 290.3 223.3 291.2 222.85 291.4 222.75 291.85 223.35 291.2 223.75 290.85 224.0 291.2 224.4 291.65 224.8 292.5 224.4 Q298.9 219.0 305.45 213.95 L305.95 214.45 Q302.4 217.85 299.35 221.5 303.95 219.75 308.8 218.65 L301.95 222.85 302.45 222.9 303.5 223.2 Q306.25 221.85 309.05 221.1 314.35 219.65 319.85 220.35 L319.85 220.5 Q314.75 220.8 310.25 222.4 304.15 224.45 299.15 228.75 L299.45 228.7 301.0 228.8 301.55 229.15 301.85 229.5 302.3 230.3 Q304.9 230.85 307.45 231.9 L307.4 232.0 303.1 231.65 303.2 231.8 303.95 232.05 304.25 232.05 307.95 235.6 Q253.75 227.8 257.45 231.25 L247.2 231.25 246.2 230.65 246.05 230.55 Q245.1 230.4 244.75 229.8 L233.25 225.95 Q238.55 227.85 243.8 230.05 244.15 230.1 244.45 230.3 L246.75 231.25 236.3 231.25 235.05 230.85 233.7 228.5 Q236.35 229.15 239.05 230.4 L240.6 230.85 233.0 226.4 232.15 225.95 232.25 225.65 230.65 225.2 229.55 223.3 Q236.2 224.95 242.8 226.95 239.85 224.95 236.65 223.2 229.6 223.35 223.6 217.15 L223.35 216.5 Q221.3 215.5 219.25 214.85 L217.85 212.5 Q220.5 213.15 223.25 214.45 L224.75 214.9 216.35 209.95 216.45 209.65 216.5 209.65 228.0 214.05 Q228.3 214.1 228.6 214.3 L233.0 216.2 231.8 214.9 231.45 214.65 231.3 214.55 Q230.4 214.4 230.05 213.85 223.05 211.3 215.9 209.2 L214.8 207.3 Q221.5 208.95 228.1 210.95 223.45 207.85 218.2 205.3 L217.4 204.95 215.75 204.2 Q213.9 203.4 212.7 201.95 L220.25 204.5 221.75 205.05 222.35 205.3 221.9 205.05 220.65 204.45 Q215.85 202.0 210.7 200.35 L210.8 199.8 210.85 199.8 Q217.5 201.1 223.65 203.95 L223.75 204.0 223.8 203.95 Q223.55 203.55 213.6 197.6 L224.05 203.5 224.6 203.8 216.5 194.85 217.8 194.75 M284.15 210.35 L284.65 210.4 285.25 210.6 Q285.2 210.05 285.3 209.7 L284.15 210.35 M284.7 215.85 L283.6 216.5 283.75 216.65 284.1 217.05 284.45 217.7 286.2 217.1 286.05 215.9 285.9 215.9 284.7 215.85 M285.8 214.6 L285.85 214.6 285.65 213.15 283.35 214.7 284.75 214.9 285.8 214.6 M285.95 215.05 L285.85 215.1 285.95 215.1 285.95 215.05 M286.1 219.6 L286.4 219.6 286.4 219.3 285.6 219.2 285.4 219.3 285.5 219.45 286.1 219.6 M294.8 227.4 L294.8 227.45 294.8 227.5 294.8 227.4 M296.85 231.85 L296.1 231.9 296.75 232.1 296.85 231.85 M265.4 205.75 L268.4 204.65 268.15 202.55 264.8 204.65 264.85 204.65 265.25 205.55 265.4 205.75 M267.9 209.65 L268.45 210.45 268.45 210.85 268.85 210.65 268.55 206.4 266.45 207.35 267.9 209.65 M269.2 219.6 L269.15 219.65 269.2 219.65 269.2 219.6 M249.6 207.7 L250.0 208.05 250.1 208.2 250.25 208.15 250.2 208.05 250.15 207.8 250.05 207.45 249.95 206.9 249.6 207.7 M236.65 209.45 L236.45 209.8 235.7 210.8 236.4 210.85 238.85 210.2 236.65 209.45 M234.2 210.0 L234.45 208.8 234.2 208.75 234.2 209.05 234.2 210.0 M234.1 206.75 L234.15 206.85 234.65 206.9 234.1 206.75 M235.3 201.95 L235.25 201.65 232.85 202.2 232.35 201.85 232.5 202.3 232.55 202.35 233.3 204.3 234.4 204.55 238.75 204.05 235.3 201.95 M274.9 227.5 L274.8 227.6 275.1 227.65 275.15 227.5 274.9 227.5" fill="#663300" fill-rule="evenodd" stroke="none"/>
  </g>
</svg>
