<?xml version="1.0" encoding="UTF-8" standalone="no"?>
<svg xmlns:ffdec="https://www.free-decompiler.com/flash" xmlns:xlink="http://www.w3.org/1999/xlink" ffdec:objectType="shape" height="82.45px" width="135.3px" xmlns="http://www.w3.org/2000/svg">
  <g transform="matrix(1.0, 0.0, 0.0, 1.0, -196.65, -145.05)">
    <path d="M206.0 190.35 L206.0 180.5 224.3 193.2 228.9 196.4 223.7 195.45 222.9 198.85 224.1 201.6 224.8 203.15 228.15 206.55 215.45 200.35 206.0 190.35 M220.95 194.95 L223.7 195.45 224.3 193.2 223.7 195.45 220.95 194.95 M268.85 194.85 L284.8 188.45 276.05 192.15 268.95 195.1 268.65 195.25 268.45 195.3 267.9 195.55 268.4 195.0 268.85 194.85 M264.05 198.1 L262.7 198.8 262.7 198.7 264.05 198.1 M224.8 203.15 L223.1 201.45 222.4 200.7 222.9 198.85 222.4 200.7 223.1 201.45 224.1 201.6 223.1 201.45 224.8 203.15 M223.1 201.45 L218.8 200.7 223.1 201.45" fill="#764514" fill-rule="evenodd" stroke="none"/>
    <path d="M321.95 173.25 L314.15 176.45 314.65 176.2 313.15 176.85 313.85 176.55 312.95 176.95 312.45 177.15 302.75 181.2 283.85 174.25 283.0 173.95 286.45 172.5 280.8 155.7 321.95 173.25 M234.4 180.65 L235.45 183.05 231.8 181.8 235.45 183.05 233.8 183.75 233.3 184.1 231.8 181.8 234.4 180.65 M226.35 188.55 L224.55 192.25 225.3 189.15 226.35 188.55 M249.55 185.1 L250.85 187.5 249.8 187.9 246.45 186.75 249.55 185.1 M256.05 190.0 L249.8 187.9 250.85 187.5 256.3 189.9 257.5 189.35 258.1 190.7 256.05 190.0 256.3 189.9 256.05 190.0 M282.25 175.75 L280.45 175.0 282.8 174.5 282.25 175.75 M283.0 173.95 L286.8 173.55 283.85 174.25 286.8 173.55 283.0 173.95 M276.05 192.15 L284.8 188.45 284.85 188.65 276.1 192.3 276.05 192.15 M290.45 170.8 L293.15 169.65 290.45 170.8 M286.45 172.5 L288.6 171.6 286.45 172.5" fill="url(#gradient0)" fill-rule="evenodd" stroke="none"/>
    <path d="M251.5 217.9 L256.7 220.45 269.0 220.45 319.7 198.15 329.2 183.1 329.2 189.45 319.7 204.5 269.0 226.8 256.7 226.8 215.45 206.7 206.0 196.7 206.0 190.35 215.45 200.35 228.15 206.55 251.5 217.9" fill="#57320f" fill-rule="evenodd" stroke="none"/>
    <path d="M284.8 188.45 L284.9 188.65 284.85 188.65 284.8 188.45" fill="#8d5334" fill-rule="evenodd" stroke="none"/>
    <path d="M250.85 187.5 L265.35 181.35 272.2 182.65 265.35 181.35 274.8 177.4 278.0 178.35 274.8 177.4 280.45 175.0 282.25 175.75 282.8 174.5 283.0 173.95 283.85 174.25 282.8 174.5 283.85 174.25 302.75 181.2 284.9 188.65 284.8 188.45 268.85 194.85 268.6 194.25 262.15 192.1 258.1 190.7 257.5 189.35 256.3 189.9 250.85 187.5 M262.85 187.0 L257.5 189.35 262.85 187.0 M268.6 189.2 L262.15 192.1 268.6 189.2 M286.65 177.6 L282.25 175.75 286.65 177.6" fill="#a8633e" fill-rule="evenodd" stroke="none"/>
    <path d="M262.7 198.8 Q261.65 199.15 259.9 201.05 L259.55 199.85 262.7 198.7 262.7 198.8" fill="#7c482e" fill-rule="evenodd" stroke="none"/>
    <path d="M268.75 195.45 L268.65 195.25 268.95 195.1 276.05 192.15 276.1 192.3 269.0 195.3 268.75 195.45" fill="#613823" fill-rule="evenodd" stroke="none"/>
    <path d="M258.0 213.8 L251.5 217.9 228.15 206.55 224.8 203.15 224.1 201.6 222.9 198.85 223.7 195.45 228.9 196.4 224.3 193.2 224.55 192.25 226.35 188.55 226.75 188.3 233.3 184.1 233.8 183.75 235.45 183.05 238.8 184.2 235.4 185.6 238.8 184.2 246.45 186.75 243.35 188.45 246.45 186.75 249.8 187.9 256.05 190.0 258.1 190.7 262.15 192.1 255.6 194.95 262.15 192.1 268.6 194.25 268.85 194.85 268.4 195.0 267.9 195.55 268.45 195.3 268.65 195.25 268.75 195.45 266.3 196.55 264.05 198.1 262.7 198.7 259.55 199.85 259.9 201.05 Q258.1 202.9 257.9 203.5 255.6 210.05 258.0 213.8 M231.75 190.6 L226.75 188.3 231.75 190.6 M227.45 202.15 L224.1 201.6 227.45 202.15 M251.25 192.1 L256.05 190.0 251.25 192.1" fill="#9b5b39" fill-rule="evenodd" stroke="none"/>
    <path d="M206.0 180.5 L213.25 169.9 253.95 152.1 272.35 152.1 280.8 155.7 286.45 172.5 283.0 173.95 282.8 174.5 280.45 175.0 278.0 174.0 280.45 175.0 274.8 177.4 268.6 175.45 274.8 177.4 265.35 181.35 250.85 187.5 249.55 185.1 251.25 184.15 249.55 185.1 246.45 186.75 238.8 184.2 235.45 183.05 234.4 180.65 231.8 181.8 228.15 183.4 231.8 181.8 233.3 184.1 226.75 188.3 226.35 188.55 225.3 189.15 224.55 192.25 224.3 193.2 206.0 180.5 M244.05 181.95 L238.8 184.2 244.05 181.95 M226.75 188.3 L222.4 186.3 226.75 188.3 M219.5 177.65 L231.8 181.8 219.5 177.65 M257.05 179.8 L265.35 181.35 257.05 179.8" fill="#c07b56" fill-rule="evenodd" stroke="none"/>
    <path d="M329.2 178.85 L329.2 183.1 319.7 198.15 269.0 220.45 256.7 220.45 251.5 217.9 258.0 213.8 258.95 215.0 259.2 215.15 Q263.35 218.4 271.7 215.35 L271.8 215.35 Q283.1 211.9 294.3 207.35 305.4 202.7 316.4 196.95 L316.85 196.65 Q319.9 193.7 319.8 191.25 319.9 188.5 316.6 186.5 L316.15 186.3 315.95 186.25 315.25 186.35 Q296.4 192.3 279.45 200.2 275.25 202.15 271.2 204.2 L270.5 204.8 Q290.6 201.1 308.8 191.25 316.7 190.3 316.8 191.25 316.65 192.6 314.95 194.3 L270.7 212.55 270.65 212.6 Q264.3 214.85 261.1 212.85 L260.85 212.0 Q259.5 206.1 268.45 200.25 270.3 199.0 273.15 197.4 282.75 191.8 303.65 181.5 L312.95 176.95 313.85 176.55 314.15 176.45 321.95 173.25 329.2 178.85" fill="#43230c" fill-rule="evenodd" stroke="none"/>
    <path d="M312.95 176.95 L303.65 181.5 Q282.75 191.8 273.15 197.4 270.3 199.0 268.45 200.25 259.5 206.1 260.85 212.0 L261.1 212.85 Q264.3 214.85 270.65 212.6 L270.7 212.55 314.95 194.3 Q316.65 192.6 316.8 191.25 316.7 190.3 308.8 191.25 290.6 201.1 270.5 204.8 L271.2 204.2 Q275.25 202.15 279.45 200.2 296.4 192.3 315.25 186.35 L315.95 186.25 316.15 186.3 316.6 186.5 Q319.9 188.5 319.8 191.25 319.9 193.7 316.85 196.65 L316.4 196.95 Q305.4 202.7 294.3 207.35 283.1 211.9 271.8 215.35 L271.7 215.35 Q263.35 218.4 259.2 215.15 L258.95 215.0 258.0 213.8 Q255.6 210.05 257.9 203.5 258.1 202.9 259.9 201.05 261.65 199.15 262.7 198.8 L264.05 198.1 266.3 196.55 268.75 195.45 269.0 195.3 276.1 192.3 284.85 188.65 284.9 188.65 302.75 181.2 312.45 177.15 312.95 176.95" fill="#603424" fill-rule="evenodd" stroke="none"/>
    <path d="M329.2 178.85 L321.95 173.25 280.8 155.7 272.35 152.1 253.95 152.1 213.25 169.9 206.0 180.5 M329.2 183.1 L329.2 189.45 319.7 204.5 269.0 226.8 256.7 226.8 215.45 206.7 206.0 196.7 206.0 190.35" ffdec:has-small-stroke="true" ffdec:original-stroke-width="0.05" fill="none" stroke="#412618" stroke-linecap="round" stroke-linejoin="round" stroke-width="1.0"/>
    <path d="M234.4 180.65 L231.8 181.8 235.45 183.05 238.8 184.2 244.05 181.95 M233.8 183.75 L233.3 184.1 226.75 188.3 231.75 190.6 M238.8 184.2 L235.4 185.6 M231.8 181.8 L228.15 183.4 M226.75 188.3 L226.35 188.55 225.3 189.15 224.55 192.25 224.3 193.2 223.7 195.45 220.95 194.95 M228.9 196.4 L223.7 195.45 222.9 198.85 222.4 200.7 223.1 201.45 224.1 201.6 227.45 202.15 M231.8 181.8 L219.5 177.65 M222.4 186.3 L226.75 188.3 M251.25 184.15 L249.55 185.1 246.45 186.75 243.35 188.45 M250.85 187.5 L265.35 181.35 257.05 179.8 M256.05 190.0 L249.8 187.9 246.45 186.75 238.8 184.2 M250.85 187.5 L249.8 187.9 M257.5 189.35 L256.3 189.9 256.05 190.0 258.1 190.7 262.15 192.1 255.6 194.95 M257.5 189.35 L262.85 187.0 M256.05 190.0 L251.25 192.1 M280.45 175.0 L282.25 175.75 286.65 177.6 M282.8 174.5 L280.45 175.0 278.0 174.0 M282.8 174.5 L283.85 174.25 286.8 173.55 283.0 173.95 286.45 172.5 288.6 171.6 M274.8 177.4 L278.0 178.35 M280.45 175.0 L274.8 177.4 268.6 175.45 M265.35 181.35 L272.2 182.65 M274.8 177.4 L265.35 181.35 M268.6 194.25 L262.15 192.1 268.6 189.2 M293.15 169.65 L290.45 170.8 M224.8 203.15 L228.15 206.55 M223.1 201.45 L224.8 203.15 M218.8 200.7 L223.1 201.45" ffdec:has-small-stroke="true" ffdec:original-stroke-width="0.05" fill="none" stroke="#57320f" stroke-linecap="round" stroke-linejoin="round" stroke-width="1.0"/>
    <path d="M232.8 158.3 Q232.2 159.0 231.75 159.85 L231.5 160.25 231.55 160.65 231.2 160.35 230.3 158.95 232.8 158.3 M233.5 166.8 L233.15 166.8 233.2 166.6 233.35 166.6 233.45 166.45 233.5 166.8" fill="#f5eed5" fill-rule="evenodd" stroke="none"/>
    <path d="M225.0 156.7 L225.0 156.85 224.95 156.7 225.0 156.7 M220.3 159.15 Q219.8 159.75 219.0 159.3 L220.05 159.0 220.3 159.15" fill="#f5eed3" fill-rule="evenodd" stroke="none"/>
    <path d="M223.5 171.2 L223.25 170.6 223.6 170.55 223.5 171.2" fill="#4f301c" fill-rule="evenodd" stroke="none"/>
    <path d="M232.8 158.3 L233.15 157.85 Q234.25 156.45 235.95 155.75 L239.95 155.65 240.45 156.2 241.25 157.15 242.5 156.95 243.6 156.85 Q256.45 161.65 246.55 175.8 L208.45 181.75 Q199.25 173.45 209.35 164.15 L210.4 163.95 212.65 164.0 213.55 164.25 214.4 164.6 Q214.7 163.3 215.45 162.25 216.25 160.9 217.7 160.0 L219.0 159.3 Q219.8 159.75 220.3 159.15 220.95 158.25 221.9 157.7 L223.35 157.2 225.0 156.85 225.0 156.7 226.25 156.85 Q227.4 157.05 228.55 157.7 229.5 158.2 230.3 158.95 L231.2 160.35 231.55 160.65 231.5 160.25 231.75 159.85 Q232.2 159.0 232.8 158.3 M223.5 171.2 L223.6 170.55 223.25 170.6 223.5 171.2 M233.5 166.8 L233.45 166.45 233.35 166.6 233.2 166.6 233.15 166.8 233.5 166.8" fill="#c07b56" fill-rule="evenodd" stroke="none"/>
    <path d="M243.6 156.85 L242.5 156.95 241.25 157.15 240.45 156.2 239.95 155.65 235.95 155.75 Q234.25 156.45 233.15 157.85 L232.8 158.3 Q232.2 159.0 231.75 159.85 L231.5 160.25 231.55 160.65 231.2 160.35 230.3 158.95 Q229.5 158.2 228.55 157.7 227.4 157.05 226.25 156.85 L225.0 156.7 224.95 156.7 225.0 156.85 223.35 157.2 221.9 157.7 Q220.95 158.25 220.3 159.15 219.8 159.75 219.0 159.3 L217.7 160.0 Q216.25 160.9 215.45 162.25 214.7 163.3 214.4 164.6 L213.55 164.25 212.65 164.0 210.4 163.95 209.35 164.15 M220.05 159.0 L219.0 159.3" ffdec:has-small-stroke="true" ffdec:original-stroke-width="0.05" fill="none" stroke="#423213" stroke-linecap="round" stroke-linejoin="round" stroke-opacity="0.5019608" stroke-width="1.0"/>
    <path d="M199.4 183.3 L200.25 183.8 200.5 183.95 200.7 183.9 200.55 184.1 Q200.1 184.3 199.8 184.65 L199.4 183.3 M203.9 182.75 L203.8 182.7 203.95 182.65 204.0 182.65 204.0 182.85 203.9 182.85 203.9 182.8 203.9 182.75" fill="#f5eed5" fill-rule="evenodd" stroke="none"/>
    <path d="M198.75 187.6 L198.8 187.6 198.75 187.6 M200.2 190.1 Q200.5 190.35 200.3 190.8 L200.15 190.2 200.2 190.1" fill="#f5eed3" fill-rule="evenodd" stroke="none"/>
    <path d="M199.4 183.3 L199.15 183.1 Q198.35 182.5 197.9 181.65 197.45 180.5 197.75 179.45 L198.0 179.15 198.5 178.7 198.35 178.05 198.3 177.45 Q200.55 170.25 208.55 175.3 L207.35 176.55 Q208.2 178.05 206.4 186.35 L208.55 185.9 208.3 185.95 208.25 193.55 212.85 195.9 Q208.6 201.15 203.25 195.9 L203.1 195.35 203.05 194.15 203.15 193.65 203.35 193.15 202.05 192.65 200.75 191.5 200.3 190.8 Q200.5 190.35 200.2 190.1 L199.35 189.25 199.05 188.5 198.8 187.6 198.75 187.6 198.8 186.9 199.15 185.6 Q199.4 185.05 199.8 184.65 200.1 184.3 200.55 184.1 L200.7 183.9 200.5 183.95 200.25 183.8 199.4 183.3 M203.9 182.75 L203.9 182.8 203.9 182.85 204.0 182.85 204.0 182.65 203.95 182.65 203.8 182.7 203.9 182.75" fill="#764514" fill-rule="evenodd" stroke="none"/>
    <path d="M198.3 177.45 L198.35 178.05 198.5 178.7 198.0 179.15 197.75 179.45 Q197.45 180.5 197.9 181.65 198.35 182.5 199.15 183.1 L199.4 183.3 200.25 183.8 200.5 183.95 200.7 183.9 200.55 184.1 Q200.1 184.3 199.8 184.65 199.4 185.05 199.15 185.6 L198.8 186.9 198.75 187.6 198.8 187.6 199.05 188.5 199.35 189.25 200.2 190.1 Q200.5 190.35 200.3 190.8 L200.75 191.5 202.05 192.65 203.35 193.15 203.15 193.65 203.05 194.15 203.1 195.35 203.25 195.9 M200.15 190.2 L200.3 190.8" ffdec:has-small-stroke="true" ffdec:original-stroke-width="0.05" fill="none" stroke="#423213" stroke-linecap="round" stroke-linejoin="round" stroke-opacity="0.5019608" stroke-width="1.0"/>
    <path d="M259.5 146.35 L260.5 146.7 262.4 147.85 263.1 148.5 263.65 149.25 Q264.55 148.3 265.75 147.75 267.1 147.0 268.8 146.9 L270.3 146.95 Q270.75 147.75 271.5 147.45 272.5 147.05 273.6 147.0 L275.1 147.3 Q275.95 147.45 276.7 147.85 L276.8 147.7 277.75 148.45 279.4 150.35 280.25 152.3 280.35 153.95 280.5 154.45 280.65 154.05 281.05 153.8 Q281.85 153.3 282.75 153.0 L283.25 152.8 286.75 152.4 Q288.9 152.75 290.25 154.25 L290.45 155.0 290.6 156.2 291.8 156.65 292.8 157.15 Q301.55 167.75 285.9 175.0 290.15 164.15 267.6 165.1 281.4 163.2 280.85 162.6 279.55 161.55 278.25 160.8 L279.1 160.7 279.25 160.4 279.1 160.45 278.9 160.4 278.8 160.5 277.95 160.6 Q271.75 157.1 265.55 160.45 265.95 153.1 249.3 157.4 246.1 149.35 259.5 146.35" fill="#84512f" fill-rule="evenodd" stroke="none"/>
    <path d="M282.75 153.0 Q281.85 153.3 281.05 153.8 L280.65 154.05 280.5 154.45 280.35 153.95 280.25 152.3 282.75 153.0" fill="#f5eed5" fill-rule="evenodd" stroke="none"/>
    <path d="M276.8 147.7 L276.7 147.85 276.75 147.7 276.8 147.7 M271.5 147.45 Q270.75 147.75 270.3 146.95 L271.35 147.25 271.5 147.45" fill="#f5eed3" fill-rule="evenodd" stroke="none"/>
    <path d="M270.3 146.95 L268.8 146.9 Q267.1 147.0 265.75 147.75 264.55 148.3 263.65 149.25 L263.1 148.5 262.4 147.85 260.5 146.7 259.5 146.35 M292.8 157.15 L291.8 156.65 290.6 156.2 290.45 155.0 290.25 154.25 Q288.9 152.75 286.75 152.4 L283.25 152.8 282.75 153.0 Q281.85 153.3 281.05 153.8 L280.65 154.05 280.5 154.45 280.35 153.95 280.25 152.3 279.4 150.35 277.75 148.45 276.8 147.7 276.75 147.7 276.7 147.85 Q275.95 147.45 275.1 147.3 L273.6 147.0 Q272.5 147.05 271.5 147.45 270.75 147.75 270.3 146.95 L271.35 147.25" ffdec:has-small-stroke="true" ffdec:original-stroke-width="0.05" fill="none" stroke="#423213" stroke-linecap="round" stroke-linejoin="round" stroke-opacity="0.5019608" stroke-width="1.0"/>
    <path d="M307.85 160.2 L308.25 160.05 310.85 159.75 Q312.45 160.05 313.45 161.15 L313.55 161.7 313.7 162.6 314.6 162.9 315.35 163.25 Q321.8 171.1 310.2 176.5 L283.6 166.2 Q280.75 157.5 290.7 155.3 L291.4 155.55 Q292.15 155.9 292.85 156.4 L293.35 156.9 293.75 157.45 Q294.4 156.75 295.3 156.35 296.3 155.8 297.55 155.7 L298.65 155.75 Q299.0 156.3 299.55 156.1 L301.1 155.8 302.2 156.0 303.4 156.4 303.45 156.3 304.2 156.85 305.4 158.25 306.05 159.7 306.1 160.95 306.2 161.3 306.3 161.0 306.65 160.8 307.85 160.2 M305.3 165.7 L305.2 165.75 305.05 165.7 304.95 165.8 305.2 165.95 305.3 165.7 M297.35 165.5 L297.55 164.75 297.2 164.55 297.15 165.05 297.35 165.5 M298.95 164.2 L300.25 163.2 301.85 162.05 300.15 163.15 299.5 163.55 298.75 163.85 Q298.6 163.95 298.85 164.3 L298.95 164.2" fill="#84512f" fill-rule="evenodd" stroke="none"/>
    <path d="M306.05 159.7 L307.85 160.2 306.65 160.8 306.3 161.0 306.2 161.3 306.1 160.95 306.05 159.7 M305.3 165.7 L305.2 165.95 304.95 165.8 305.05 165.7 305.2 165.75 305.3 165.7" fill="#f5eed5" fill-rule="evenodd" stroke="none"/>
    <path d="M298.65 155.75 L299.45 155.95 299.55 156.1 Q299.0 156.3 298.65 155.75 M303.4 156.4 L303.45 156.3 303.4 156.4" fill="#f5eed3" fill-rule="evenodd" stroke="none"/>
    <path d="M298.95 164.2 L298.85 164.3 Q298.6 163.95 298.75 163.85 L299.5 163.55 300.15 163.15 301.85 162.05 300.25 163.2 298.95 164.2 M297.35 165.5 L297.15 165.05 297.2 164.55 297.55 164.75 297.35 165.5" fill="#4f301c" fill-rule="evenodd" stroke="none"/>
    <path d="M307.85 160.2 L308.25 160.05 310.85 159.75 Q312.45 160.05 313.45 161.15 L313.55 161.7 313.7 162.6 314.6 162.9 315.35 163.25 M290.7 155.3 L291.4 155.55 Q292.15 155.9 292.85 156.4 L293.35 156.9 293.75 157.45 Q294.4 156.75 295.3 156.35 296.3 155.8 297.55 155.7 L298.65 155.75 299.45 155.95 M299.55 156.1 L301.1 155.8 302.2 156.0 303.4 156.4 303.45 156.3 304.2 156.85 305.4 158.25 306.05 159.7 306.1 160.95 306.2 161.3 306.3 161.0 306.65 160.8 307.85 160.2 M299.55 156.1 Q299.0 156.3 298.65 155.75" ffdec:has-small-stroke="true" ffdec:original-stroke-width="0.05" fill="none" stroke="#423213" stroke-linecap="round" stroke-linejoin="round" stroke-opacity="0.5019608" stroke-width="1.0"/>
    <path d="M329.3 189.45 L328.4 188.65 328.15 188.45 327.9 188.45 328.15 188.25 329.1 187.8 329.3 189.45 M329.85 181.45 Q329.5 181.1 329.85 180.65 L329.9 181.35 329.85 181.45" fill="#764514" fill-rule="evenodd" stroke="none"/>
    <path d="M327.6 174.1 L327.6 174.8 327.4 176.2 327.2 176.75 326.9 177.25 Q327.65 177.55 328.25 178.15 L329.5 179.75 329.85 180.65 Q329.5 181.1 329.85 181.45 L330.6 182.6 330.8 183.55 330.85 184.65 330.95 184.6 330.95 184.65 330.75 185.4 330.05 186.8 329.1 187.8 328.15 188.25 327.9 188.45 328.15 188.45 328.4 188.65 329.3 189.45 329.55 189.7 Q330.3 190.55 330.6 191.65 330.9 193.0 330.35 194.2 L329.95 194.45 329.3 194.9 329.35 195.7 329.3 196.4 Q325.1 204.1 320.0 198.8 324.45 184.55 316.55 172.05 322.55 166.9 327.6 174.1" fill="#43230c" fill-rule="evenodd" stroke="none"/>
    <path d="M329.85 180.65 L329.5 179.75 328.25 178.15 Q327.65 177.55 326.9 177.25 L327.2 176.75 327.4 176.2 327.6 174.8 327.6 174.1 M329.3 196.4 L329.35 195.7 329.3 194.9 329.95 194.45 330.35 194.2 Q330.9 193.0 330.6 191.65 330.3 190.55 329.55 189.7 L329.3 189.45 328.4 188.65 328.15 188.45 327.9 188.45 328.15 188.25 329.1 187.8 330.05 186.8 330.75 185.4 330.95 184.65 330.95 184.6 330.85 184.65 330.8 183.55 330.6 182.6 329.85 181.45 Q329.5 181.1 329.85 180.65 L329.9 181.35" ffdec:has-small-stroke="true" ffdec:original-stroke-width="0.05" fill="none" stroke="#423213" stroke-linecap="round" stroke-linejoin="round" stroke-opacity="0.5019608" stroke-width="1.0"/>
    <path d="M276.8 147.4 L276.75 147.4 276.7 147.55 Q275.95 147.15 275.1 147.0 L273.6 146.7 Q272.5 146.75 271.5 147.15 270.75 147.45 270.3 146.65 L268.8 146.6 Q267.1 146.7 265.75 147.45 264.65 147.95 263.8 148.8 L263.6 148.9 263.1 148.2 262.4 147.55 260.5 146.4 259.5 146.05 Q250.65 148.0 249.3 153.85 L243.1 156.55 242.5 156.65 241.25 156.85 240.45 155.9 239.95 155.35 235.95 155.45 Q234.25 156.15 233.15 157.55 L232.8 158.0 Q232.2 158.7 231.75 159.55 L231.5 159.95 231.55 160.35 231.2 160.05 230.3 158.65 Q229.5 157.9 228.55 157.4 227.4 156.75 226.25 156.55 L225.0 156.4 224.95 156.4 225.0 156.55 223.35 156.9 221.9 157.4 Q220.95 157.95 220.3 158.85 219.8 159.45 219.0 159.0 L217.7 159.7 Q216.25 160.6 215.45 161.95 214.7 163.0 214.4 164.3 L213.55 163.95 212.65 163.7 210.4 163.65 209.35 163.85 Q204.2 168.55 204.05 173.05 199.85 172.2 198.3 177.15 L198.35 177.75 198.5 178.4 198.0 178.85 197.75 179.15 Q197.45 180.2 197.9 181.35 198.35 182.2 199.15 182.8 L199.4 183.0 200.25 183.5 200.5 183.65 200.7 183.6 200.55 183.8 Q200.1 184.0 199.8 184.35 199.4 184.75 199.15 185.3 L198.8 186.6 198.75 187.3 198.8 187.3 199.05 188.2 199.35 188.95 200.2 189.8 Q200.5 190.05 200.3 190.5 L200.75 191.2 202.05 192.35 203.35 192.85 203.15 193.35 203.05 193.85 203.1 195.05 203.25 195.6 Q205.55 197.9 207.7 198.2 L215.45 206.4 256.7 226.5 269.0 226.5 319.7 204.2 322.25 200.2 Q326.05 202.1 329.3 196.1 L329.35 195.4 329.3 194.6 329.95 194.15 330.35 193.9 Q330.9 192.7 330.6 191.35 330.3 190.25 329.55 189.4 L329.3 189.15 329.2 189.05 328.4 188.35 328.15 188.15 327.9 188.15 328.15 187.95 329.1 187.5 329.2 187.4 330.05 186.5 330.75 185.1 330.95 184.35 330.95 184.3 330.85 184.35 330.8 183.25 330.6 182.3 329.85 181.15 Q329.5 180.8 329.85 180.35 L329.5 179.45 329.2 178.9 328.25 177.85 327.6 177.35 326.9 176.95 326.95 176.85 327.2 176.45 327.4 175.9 327.6 174.5 327.6 173.8 Q323.35 167.7 318.4 170.45 L317.55 169.3 Q318.1 166.35 315.35 162.95 L314.6 162.6 313.7 162.3 313.55 161.4 313.45 160.85 Q312.45 159.75 310.85 159.45 L308.25 159.75 307.85 159.9 306.65 160.5 306.3 160.7 306.2 161.0 306.1 160.65 306.05 159.4 305.4 157.95 304.2 156.55 303.45 156.0 303.4 156.1 302.2 155.7 301.1 155.5 299.55 155.8 Q299.0 156.0 298.65 155.45 L297.55 155.4 Q296.3 155.5 295.3 156.05 294.4 156.45 293.75 157.15 L293.35 156.6 292.85 156.1 Q292.15 155.6 291.4 155.25 L290.7 155.0 290.5 155.05 290.45 154.7 290.25 153.95 Q288.9 152.45 286.75 152.1 L283.25 152.5 282.75 152.7 Q281.85 153.0 281.05 153.5 L280.65 153.75 280.5 154.15 280.35 153.65 280.25 152.0 279.4 150.05 277.75 148.15 276.8 147.4 Z" fill="none" stroke="#000000" stroke-linecap="round" stroke-linejoin="round" stroke-width="2.0"/>
  </g>
  <defs>
    <linearGradient gradientTransform="matrix(-0.0028, 0.0105, -0.065, -0.0172, 259.65, 193.3)" gradientUnits="userSpaceOnUse" id="gradient0" spreadMethod="pad" x1="-819.2" x2="819.2">
      <stop offset="0.0" stop-color="#84512f"/>
      <stop offset="1.0" stop-color="#764514"/>
    </linearGradient>
  </defs>
</svg>
