<?xml version="1.0" encoding="UTF-8" standalone="no"?>
<svg xmlns:ffdec="https://www.free-decompiler.com/flash" xmlns:xlink="http://www.w3.org/1999/xlink" ffdec:objectType="shape" height="34.25px" width="134.0px" xmlns="http://www.w3.org/2000/svg">
  <g transform="matrix(1.0, 0.0, 0.0, 1.0, -212.8, -231.5)">
    <path d="M334.25 245.0 Q337.05 243.9 340.25 244.1 344.2 244.4 346.55 246.8 L334.25 245.0" fill="#7d421c" fill-rule="evenodd" stroke="none"/>
    <path d="M284.3 256.15 L288.3 259.95 Q290.8 261.5 300.85 263.7 L304.9 263.8 306.45 263.8 Q312.3 263.8 316.4 260.5 318.7 258.55 322.5 253.15 326.15 247.9 328.0 246.5 329.8 245.1 331.0 244.55 333.8 243.25 339.2 242.6 L343.65 243.35 346.55 245.15 346.55 246.8 Q344.2 244.4 340.25 244.1 337.05 243.9 334.25 245.0 329.2 246.0 322.5 254.8 317.7 261.1 316.4 262.2 312.3 265.5 306.45 265.5 L300.85 265.4 Q290.8 263.15 288.3 261.6 283.6 258.65 282.7 255.7 281.95 253.35 281.9 251.15 L282.0 249.4 Q282.15 248.15 282.9 246.65 283.85 244.75 285.6 243.05 288.05 240.6 291.15 239.7 L298.9 239.3 303.25 240.2 Q304.8 240.7 305.85 241.35 307.0 242.1 308.35 243.8 308.95 244.55 310.6 247.65 312.15 250.4 311.6 253.35 311.15 255.75 309.9 256.75 307.1 258.95 304.4 258.7 L303.9 258.65 Q300.9 258.05 300.75 253.45 L283.2 251.25 284.3 256.15 M295.05 240.8 Q289.6 240.75 285.6 244.7 284.95 245.3 284.1 247.7 L283.2 250.3 301.9 252.85 Q302.05 259.05 307.0 257.3 309.8 256.25 310.5 253.2 311.25 249.6 308.35 245.5 307.15 243.9 305.85 243.05 304.8 242.35 303.25 241.85 302.0 241.4 298.55 241.05 L295.05 240.8" fill="url(#gradient0)" fill-rule="evenodd" stroke="none"/>
    <path d="M339.2 242.6 Q333.8 243.25 331.0 244.55 329.8 245.1 328.0 246.5 326.15 247.9 322.5 253.15 318.7 258.55 316.4 260.5 312.3 263.8 306.45 263.8 L304.9 263.8 300.85 263.7 Q290.8 261.5 288.3 259.95 L284.3 256.15 303.9 258.65 304.4 258.7 Q307.1 258.95 309.9 256.75 311.15 255.75 311.6 253.35 312.15 250.4 310.6 247.65 308.95 244.55 308.35 243.8 307.0 242.1 305.85 241.35 304.8 240.7 303.25 240.2 L298.9 239.3 266.2 235.75 270.25 235.35 270.9 235.35 Q305.5 237.9 339.2 242.6" fill="url(#gradient1)" fill-rule="evenodd" stroke="none"/>
    <path d="M298.9 239.3 L291.15 239.7 Q288.05 240.6 285.6 243.05 283.85 244.75 282.9 246.65 282.15 248.15 282.0 249.4 L281.9 251.15 Q281.95 253.35 282.7 255.7 283.6 258.65 288.3 261.6 290.8 263.15 300.85 265.4 L221.3 253.6 219.4 252.55 Q213.05 248.65 213.05 242.95 213.05 241.25 214.0 239.3 214.95 237.4 216.7 235.65 220.7 231.7 226.2 231.75 L228.05 231.8 232.1 232.25 266.2 235.75 298.9 239.3" fill="url(#gradient2)" fill-rule="evenodd" stroke="none"/>
    <path d="M295.05 240.8 L298.55 241.05 Q302.0 241.4 303.25 241.85 304.8 242.35 305.85 243.05 307.15 243.9 308.35 245.5 311.25 249.6 310.5 253.2 309.8 256.25 307.0 257.3 302.05 259.05 301.9 252.85 L283.2 250.3 284.1 247.7 Q284.95 245.3 285.6 244.7 289.6 240.75 295.05 240.8" fill="url(#gradient3)" fill-rule="evenodd" stroke="none"/>
    <path d="M284.3 256.15 L283.2 251.25 300.75 253.45 Q300.9 258.05 303.9 258.65 L284.3 256.15" fill="url(#gradient4)" fill-rule="evenodd" stroke="none"/>
    <path d="M300.85 265.4 L306.45 265.5 Q312.3 265.5 316.4 262.2 317.7 261.1 322.5 254.8 329.2 246.0 334.25 245.0 337.05 243.9 340.25 244.1 344.2 244.4 346.55 246.8 L346.55 245.15 343.65 243.35 339.2 242.6 Q305.5 237.9 270.9 235.35 L270.25 235.35 266.2 235.75 232.1 232.25 228.05 231.8 226.2 231.75 Q220.7 231.7 216.7 235.65 214.95 237.4 214.0 239.3 213.05 241.25 213.05 242.95 213.05 248.65 219.4 252.55 L221.3 253.6 300.85 265.4 M334.25 245.0 L346.55 246.8 M232.1 232.25 L230.65 232.05 228.05 231.8" ffdec:has-small-stroke="true" ffdec:original-stroke-width="0.5" fill="none" stroke="#3f250e" stroke-linecap="round" stroke-linejoin="round" stroke-width="1.0"/>
  </g>
  <defs>
    <linearGradient gradientTransform="matrix(-0.005, 0.0186, -0.0281, -0.0075, 303.05, 248.6)" gradientUnits="userSpaceOnUse" id="gradient0" spreadMethod="pad" x1="-819.2" x2="819.2">
      <stop offset="0.0" stop-color="#ad6824"/>
      <stop offset="0.33725490196078434" stop-color="#db9857"/>
    </linearGradient>
    <linearGradient gradientTransform="matrix(-0.005, 0.0186, -0.0281, -0.0075, 303.05, 248.6)" gradientUnits="userSpaceOnUse" id="gradient1" spreadMethod="pad" x1="-819.2" x2="819.2">
      <stop offset="0.0" stop-color="#ad6824"/>
      <stop offset="0.18823529411764706" stop-color="#ac6824"/>
      <stop offset="1.0" stop-color="#784512"/>
    </linearGradient>
    <linearGradient gradientTransform="matrix(-0.005, 0.0186, -0.0281, -0.0075, 303.05, 248.6)" gradientUnits="userSpaceOnUse" id="gradient2" spreadMethod="pad" x1="-819.2" x2="819.2">
      <stop offset="0.0" stop-color="#d99148"/>
      <stop offset="1.0" stop-color="#784512"/>
    </linearGradient>
    <linearGradient gradientTransform="matrix(0.0, 0.0083, -0.0109, 0.0, 298.4, 250.95)" gradientUnits="userSpaceOnUse" id="gradient3" spreadMethod="pad" x1="-819.2" x2="819.2">
      <stop offset="0.0" stop-color="#7f431c"/>
      <stop offset="1.0" stop-color="#784512"/>
    </linearGradient>
    <linearGradient gradientTransform="matrix(0.0073, 0.002, -0.0075, 0.0281, 295.75, 246.75)" gradientUnits="userSpaceOnUse" id="gradient4" spreadMethod="pad" x1="-819.2" x2="819.2">
      <stop offset="0.0" stop-color="#7f431c"/>
      <stop offset="1.0" stop-color="#b47433"/>
    </linearGradient>
  </defs>
</svg>
