<?xml version="1.0" encoding="UTF-8" standalone="no"?>
<svg xmlns:ffdec="https://www.free-decompiler.com/flash" xmlns:xlink="http://www.w3.org/1999/xlink" ffdec:objectType="shape" height="101.3px" width="153.0px" xmlns="http://www.w3.org/2000/svg">
  <g transform="matrix(1.0, 0.0, 0.0, 1.0, -198.95, -149.3)">
    <path d="M276.8 150.5 L277.6 149.8 Q297.5 155.2 308.65 174.1 319.8 192.9 333.45 196.3 325.4 204.8 325.0 212.8 324.95 213.9 325.05 215.0 325.8 224.0 329.95 228.25 334.05 232.45 351.45 239.25 310.05 257.35 283.95 245.3 L283.95 245.2 283.9 245.1 283.9 245.0 283.6 245.15 281.25 243.45 Q268.5 234.55 258.75 231.3 L257.45 230.85 257.4 230.85 254.5 230.1 248.65 229.4 Q259.6 213.45 266.3 197.35 275.95 174.1 276.8 150.5 M262.15 182.05 Q255.8 193.5 243.35 206.65 L243.3 206.65 243.25 206.65 243.0 206.95 227.95 221.6 227.55 221.85 227.45 221.95 Q225.25 223.9 223.65 225.5 210.8 220.3 199.45 220.4 202.1 216.3 211.45 214.35 L215.85 214.0 Q241.15 211.0 262.15 182.05 M319.15 213.7 Q318.5 211.5 317.65 205.2 L315.95 194.25 Q315.0 189.75 311.8 187.85 310.05 186.8 304.8 185.55 309.9 190.25 313.4 199.1 L319.1 213.7 319.15 213.75 319.15 213.7 M307.25 214.1 Q308.15 209.95 307.6 205.35 306.4 195.35 297.85 183.25 295.15 204.2 297.6 218.7 299.65 230.3 305.0 237.7 L305.6 227.05 Q305.95 219.75 307.25 214.1 M313.65 230.75 L313.55 230.8 313.55 230.85 313.55 231.1 313.65 230.75 M275.25 201.85 L275.3 201.65 275.2 201.85 275.25 201.85" fill="#b88e39" fill-rule="evenodd" stroke="none"/>
    <path d="M276.8 150.5 Q275.95 174.1 266.3 197.35 259.6 213.45 248.65 229.4 L248.15 229.45 246.25 229.6 246.15 229.45 245.1 228.25 Q253.3 217.9 259.2 206.15 263.6 197.3 266.7 187.7 269.85 177.9 271.65 167.3 272.75 160.55 273.3 153.5 L276.8 150.5" fill="#c69d42" fill-rule="evenodd" stroke="none"/>
    <path d="M248.65 229.4 L254.5 230.1 Q249.8 234.4 252.15 242.15 L250.15 240.65 249.85 240.45 249.5 240.2 229.1 227.9 228.6 227.65 228.2 227.45 227.35 227.1 226.5 226.7 225.9 226.45 225.4 226.2 223.65 225.5 Q225.25 223.9 227.45 221.95 L227.55 221.85 227.95 221.6 243.0 206.95 243.25 206.65 243.3 206.65 243.35 206.7 243.35 206.65 Q255.8 193.5 262.15 182.05 267.0 175.35 271.65 167.3 269.85 177.9 266.7 187.7 263.6 197.3 259.2 206.15 253.3 217.9 245.1 228.25 L246.15 229.45 246.25 229.6 248.15 229.45 248.65 229.4 M249.4 237.2 Q248.25 232.3 246.25 229.6 248.25 232.3 249.4 237.2" fill="url(#gradient0)" fill-rule="evenodd" stroke="none"/>
    <path d="M319.1 213.7 L313.4 199.1 Q309.9 190.25 304.8 185.55 310.05 186.8 311.8 187.85 315.0 189.75 315.95 194.25 L317.65 205.2 Q318.5 211.5 319.15 213.7 L319.1 213.7" fill="url(#gradient1)" fill-rule="evenodd" stroke="none"/>
    <path d="M319.1 213.7 L319.15 213.7 319.15 213.75 319.1 213.7" fill="#e4f9d4" fill-rule="evenodd" stroke="none"/>
    <path d="M307.25 214.1 Q305.95 219.75 305.6 227.05 L305.0 237.7 Q299.65 230.3 297.6 218.7 295.15 204.2 297.85 183.25 306.4 195.35 307.6 205.35 308.15 209.95 307.25 214.1" fill="url(#gradient2)" fill-rule="evenodd" stroke="none"/>
    <path d="M283.6 245.15 L283.9 245.0 283.9 245.1 283.95 245.2 283.95 245.3 283.9 245.3 283.6 245.15" fill="url(#gradient3)" fill-rule="evenodd" stroke="none"/>
    <path d="M313.65 230.75 L313.55 230.85 313.55 230.8 313.65 230.75" fill="#fffff7" fill-opacity="0.3019608" fill-rule="evenodd" stroke="none"/>
    <path d="M313.55 230.85 L313.65 230.75 313.55 230.85" fill="#000000" fill-opacity="0.3019608" fill-rule="evenodd" stroke="none"/>
    <path d="M275.25 201.85 L275.2 201.85 275.3 201.65 275.25 201.85" fill="url(#gradient4)" fill-rule="evenodd" stroke="none"/>
    <path d="M243.35 206.65 L243.35 206.7 243.3 206.65 243.35 206.65" fill="#2e484b" fill-rule="evenodd" stroke="none"/>
    <path d="M257.4 230.85 L257.45 230.85 257.4 230.85" fill="#94c998" fill-rule="evenodd" stroke="none"/>
    <path d="M283.95 245.3 Q310.05 257.35 351.45 239.25 334.05 232.45 329.95 228.25 325.8 224.0 325.05 215.0 324.95 213.9 325.0 212.8 325.4 204.8 333.45 196.3 319.8 192.9 308.65 174.1 297.5 155.2 277.6 149.8 L276.8 150.5 273.3 153.5 Q272.75 160.55 271.65 167.3 267.0 175.35 262.15 182.05 241.15 211.0 215.85 214.0 L211.45 214.35 Q202.1 216.3 199.45 220.4 210.8 220.3 223.65 225.5 L225.4 226.2 225.9 226.45 226.5 226.7 227.35 227.1 228.2 227.45 228.6 227.65 229.1 227.9 249.5 240.2 249.85 240.45 250.15 240.65 252.15 242.15 Q249.8 234.4 254.5 230.1 L257.4 230.85 257.45 230.85 258.75 231.3 Q268.5 234.55 281.25 243.45 L283.6 245.15 283.9 245.3 283.95 245.3 M248.65 229.4 L254.5 230.1 M271.65 167.3 Q269.85 177.9 266.7 187.7 263.6 197.3 259.2 206.15 253.3 217.9 245.1 228.25 L246.15 229.45 246.25 229.6 Q248.25 232.3 249.4 237.2 M248.15 229.45 L248.65 229.4" fill="none" stroke="#61461f" stroke-linecap="round" stroke-linejoin="round" stroke-width="1.0"/>
  </g>
  <defs>
    <linearGradient gradientTransform="matrix(-0.0253, -0.0146, 0.0228, -0.0395, 253.45, 209.0)" gradientUnits="userSpaceOnUse" id="gradient0" spreadMethod="pad" x1="-819.2" x2="819.2">
      <stop offset="0.3137254901960784" stop-color="#61461f"/>
      <stop offset="0.9137254901960784" stop-color="#b88e39"/>
    </linearGradient>
    <linearGradient gradientTransform="matrix(0.0101, 0.0, 0.0, 0.0171, 316.35, 197.45)" gradientUnits="userSpaceOnUse" id="gradient1" spreadMethod="pad" x1="-819.2" x2="819.2">
      <stop offset="0.3137254901960784" stop-color="#61461f"/>
      <stop offset="0.9137254901960784" stop-color="#b88e39"/>
    </linearGradient>
    <linearGradient gradientTransform="matrix(0.0, 0.0284, 0.0108, -0.0031, 298.65, 195.4)" gradientUnits="userSpaceOnUse" id="gradient2" spreadMethod="pad" x1="-819.2" x2="819.2">
      <stop offset="0.3137254901960784" stop-color="#61461f"/>
      <stop offset="0.9137254901960784" stop-color="#b88e39"/>
    </linearGradient>
    <linearGradient gradientTransform="matrix(-0.0051, -0.0035, -0.0114, 0.0232, 273.15, 216.35)" gradientUnits="userSpaceOnUse" id="gradient3" spreadMethod="pad" x1="-819.2" x2="819.2">
      <stop offset="0.3137254901960784" stop-color="#94c998"/>
      <stop offset="0.9137254901960784" stop-color="#b4daba"/>
    </linearGradient>
    <linearGradient gradientTransform="matrix(-0.0172, -0.0046, -0.0074, 0.0276, 275.8, 218.75)" gradientUnits="userSpaceOnUse" id="gradient4" spreadMethod="pad" x1="-819.2" x2="819.2">
      <stop offset="0.3137254901960784" stop-color="#94c998"/>
      <stop offset="0.9137254901960784" stop-color="#b4daba"/>
    </linearGradient>
  </defs>
</svg>
