<?xml version="1.0" encoding="UTF-8" standalone="no"?>
<svg xmlns:ffdec="https://www.free-decompiler.com/flash" xmlns:xlink="http://www.w3.org/1999/xlink" ffdec:objectType="shape" height="67.0px" width="135.15px" xmlns="http://www.w3.org/2000/svg">
  <g transform="matrix(1.0, 0.0, 0.0, 1.0, -152.85, -152.45)">
    <path d="M274.8 170.05 L274.0 169.95 256.0 171.75 254.0 173.55 251.9 175.15 247.65 178.25 Q244.95 180.2 241.9 181.7 238.55 183.35 235.05 184.35 L229.95 185.0 225.45 184.6 Q223.2 184.35 221.05 183.6 L216.75 181.75 215.35 182.0 215.5 182.45 207.5 184.15 213.3 182.3 206.15 183.05 198.9 183.3 196.55 182.75 203.0 181.35 206.15 180.8 211.2 180.05 213.65 179.5 207.35 172.7 204.25 176.25 190.05 171.0 Q195.1 171.35 199.6 169.05 L203.25 166.95 Q205.65 165.6 207.5 163.55 L211.7 158.95 Q213.6 156.9 215.65 155.0 216.55 154.25 217.6 153.7 220.0 152.45 222.6 152.8 226.5 153.65 229.6 156.2 233.0 159.0 236.6 161.15 239.85 163.05 243.6 164.2 L251.05 166.05 259.9 167.55 264.55 167.75 273.7 167.5 277.45 167.7 Q279.8 167.8 282.0 168.7 285.05 169.75 287.75 171.85 L287.2 171.5 Q285.15 170.25 282.85 169.8 280.85 169.8 279.3 170.7 L274.8 170.05" fill="url(#gradient0)" fill-rule="evenodd" stroke="none"/>
    <path d="M274.8 170.05 L279.3 170.7 Q280.85 169.8 282.85 169.8 285.15 170.25 287.2 171.5 287.6 173.65 287.4 176.05 287.25 177.9 286.7 179.35 L285.55 181.85 283.75 184.4 Q282.4 186.0 280.65 186.7 L280.65 186.65 280.05 186.9 279.45 187.1 279.3 187.15 275.65 188.55 Q274.35 186.15 274.55 183.85 274.65 182.2 275.3 180.6 270.4 185.25 265.05 189.35 L260.7 192.2 257.25 194.1 Q249.7 197.85 241.85 201.3 235.05 204.15 228.1 206.4 L223.45 207.85 219.05 208.35 214.55 208.85 213.4 208.2 Q212.45 207.7 212.2 206.55 211.9 205.35 211.95 204.1 L212.15 202.45 212.2 202.45 Q213.3 202.45 220.85 200.5 228.7 198.45 230.1 197.6 231.8 196.55 233.6 195.7 L239.1 192.75 239.6 192.7 244.35 191.35 Q249.2 189.95 253.35 187.6 L263.7 181.55 271.25 176.55 Q280.05 170.95 274.8 170.05" fill="url(#gradient1)" fill-rule="evenodd" stroke="none"/>
    <path d="M190.05 171.0 L204.25 176.25 207.35 172.7 213.65 179.5 211.2 180.05 206.15 180.8 203.0 181.35 196.55 182.75 198.9 183.3 206.15 183.05 213.3 182.3 207.5 184.15 215.5 182.45 215.35 182.0 216.75 181.75 221.05 183.6 Q223.2 184.35 225.45 184.6 L229.95 185.0 235.05 184.35 Q238.55 183.35 241.9 181.7 244.95 180.2 247.65 178.25 L251.9 175.15 254.0 173.55 256.0 171.75 274.0 169.95 274.8 170.05 Q280.05 170.95 271.25 176.55 L263.7 181.55 253.35 187.6 Q249.2 189.95 244.35 191.35 L239.6 192.7 239.1 192.75 233.6 195.7 Q231.8 196.55 230.1 197.6 228.7 198.45 220.85 200.5 213.3 202.45 212.2 202.45 L212.15 202.45 210.45 202.15 208.2 201.4 207.05 201.0 Q202.5 198.8 201.75 198.55 L201.45 198.45 199.65 197.6 Q197.75 196.65 195.8 196.15 L182.3 193.4 Q169.3 190.7 168.7 188.2 168.05 185.7 163.5 186.5 158.95 187.25 154.9 179.65 156.95 175.95 160.55 173.8 162.35 172.7 164.4 172.3 L172.25 171.3 178.15 171.05 184.15 171.0 190.05 171.0" fill="#ffffff" fill-rule="evenodd" stroke="none"/>
    <path d="M154.9 179.65 Q158.95 187.25 163.5 186.5 168.05 185.7 168.7 188.2 169.3 190.7 182.3 193.4 L195.8 196.15 Q197.75 196.65 199.65 197.6 L201.45 198.45 Q200.45 199.55 198.85 199.55 L189.5 198.75 183.95 197.9 178.5 196.95 173.0 195.75 163.3 193.75 167.1 195.0 176.15 198.4 Q180.1 200.05 183.95 202.05 187.85 203.95 191.65 206.05 L197.85 209.15 203.9 212.2 204.65 212.55 204.0 212.1 201.55 210.5 200.25 209.45 199.05 208.3 198.05 207.0 197.2 205.5 197.0 204.95 Q197.5 204.15 198.4 203.8 201.3 202.7 204.65 202.7 L207.4 202.2 207.8 201.9 208.2 201.45 208.2 201.4 210.45 202.15 212.15 202.45 211.95 204.1 Q211.9 205.35 212.2 206.55 212.45 207.7 213.4 208.2 L214.55 208.85 219.05 208.35 223.45 207.85 228.1 206.4 Q235.05 204.15 241.85 201.3 249.7 197.85 257.25 194.1 L260.7 192.2 265.05 189.35 Q270.4 185.25 275.3 180.6 274.65 182.2 274.55 183.85 274.35 186.15 275.65 188.55 L279.3 187.15 279.35 187.3 261.05 196.4 242.1 204.7 216.7 218.7 213.05 216.35 199.85 216.75 196.85 212.6 195.7 212.2 192.7 207.3 189.5 207.65 Q184.75 207.95 180.5 205.55 L180.3 205.85 Q175.35 203.65 170.4 201.5 L155.6 197.95 153.4 193.6 Q153.1 192.6 153.1 191.65 153.05 189.2 153.35 186.8 153.8 183.2 154.9 179.65" fill="url(#gradient2)" fill-rule="evenodd" stroke="none"/>
    <path d="M280.65 186.65 L280.65 186.7 280.5 186.75 280.65 186.65" fill="#c5c7bc" fill-rule="evenodd" stroke="none"/>
    <path d="M280.5 186.75 L280.65 186.7 275.85 192.9 266.55 195.0 261.05 196.4 279.35 187.3 280.5 186.75" fill="url(#gradient3)" fill-rule="evenodd" stroke="none"/>
    <path d="M280.65 186.65 L280.5 186.75 279.35 187.3 279.3 187.15 279.45 187.1 280.05 186.9 280.65 186.65 M279.35 187.3 L279.45 187.1 279.35 187.3 M280.05 186.9 L280.5 186.75 280.05 186.9" fill="#d3d6cd" fill-rule="evenodd" stroke="none"/>
    <path d="M201.45 198.45 L201.75 198.55 Q202.5 198.8 207.05 201.0 L208.2 201.4 208.2 201.45 207.8 201.9 207.4 202.2 204.65 202.7 Q201.3 202.7 198.4 203.8 197.5 204.15 197.0 204.95 L197.2 205.5 198.05 207.0 199.05 208.3 200.25 209.45 201.55 210.5 204.0 212.1 203.9 212.2 197.85 209.15 191.65 206.05 Q187.85 203.95 183.95 202.05 180.1 200.05 176.15 198.4 L167.1 195.0 163.3 193.75 173.0 195.75 178.5 196.95 183.95 197.9 189.5 198.75 198.85 199.55 Q200.45 199.55 201.45 198.45" fill="url(#gradient4)" fill-rule="evenodd" stroke="none"/>
    <path d="M216.7 218.7 L203.15 219.2 180.3 205.85 180.5 205.55 Q184.75 207.95 189.5 207.65 L192.7 207.3 195.7 212.2 196.85 212.6 199.85 216.75 213.05 216.35 216.7 218.7" fill="#ebe2cf" fill-rule="evenodd" stroke="none"/>
    <path d="M204.0 212.1 L204.65 212.55 203.9 212.2 204.0 212.1" fill="#d3be92" fill-rule="evenodd" stroke="none"/>
    <path d="M287.2 171.5 L287.75 171.85 Q285.05 169.75 282.0 168.7 279.8 167.8 277.45 167.7 L273.7 167.5 264.55 167.75 259.9 167.55 251.05 166.05 243.6 164.2 Q239.85 163.05 236.6 161.15 233.0 159.0 229.6 156.2 226.5 153.65 222.6 152.8 220.0 152.45 217.6 153.7 216.55 154.25 215.65 155.0 213.6 156.9 211.7 158.95 L207.5 163.55 Q205.65 165.6 203.25 166.95 L199.6 169.05 Q195.1 171.35 190.05 171.0 L184.15 171.0 178.15 171.05 172.25 171.3 164.4 172.3 Q162.35 172.7 160.55 173.8 156.95 175.95 154.9 179.65 153.8 183.2 153.35 186.8 153.05 189.2 153.1 191.65 153.1 192.6 153.4 193.6 L155.6 197.95 170.4 201.5 Q175.35 203.65 180.3 205.85 L203.15 219.2 216.7 218.7 242.1 204.7 261.05 196.4 266.55 195.0 275.85 192.9 280.65 186.7 Q282.4 186.0 283.75 184.4 L285.55 181.85 286.7 179.35 Q287.25 177.9 287.4 176.05 287.6 173.65 287.2 171.5 M280.65 186.7 L280.65 186.65 280.05 186.9 279.45 187.1 279.35 187.3 M280.5 186.75 L280.65 186.7 M280.5 186.75 L280.05 186.9" ffdec:has-small-stroke="true" ffdec:original-stroke-width="0.5" fill="none" stroke="#342001" stroke-linecap="round" stroke-linejoin="round" stroke-opacity="0.27058825" stroke-width="1.0"/>
    <path d="M222.2 193.35 L222.95 192.65 223.0 192.65 Q218.4 188.55 215.05 192.55 M223.0 192.65 Q224.85 191.3 227.2 193.5 M260.4 175.35 L259.15 174.6 Q256.45 173.25 252.85 175.0 L251.75 175.55 M241.25 176.55 Q240.65 176.1 240.0 175.8 L239.9 175.75 Q236.85 174.3 232.6 176.75 M239.9 175.75 Q247.7 171.55 252.85 175.0 M162.9 178.35 Q165.25 175.9 166.95 177.35 171.25 173.15 174.1 176.6 M167.65 178.15 L167.0 177.4 166.95 177.35" ffdec:has-small-stroke="true" ffdec:original-stroke-width="0.5" fill="none" stroke="#000000" stroke-linecap="round" stroke-linejoin="round" stroke-opacity="0.27058825" stroke-width="1.0"/>
    <path d="M174.1 176.6 Q176.1 174.85 177.6 176.2 L178.25 176.95 M174.1 176.6 L173.5 177.15" ffdec:has-small-stroke="true" ffdec:original-stroke-width="0.5" fill="none" stroke="#000000" stroke-linecap="round" stroke-linejoin="round" stroke-opacity="0.27058825" stroke-width="1.0"/>
  </g>
  <defs>
    <linearGradient gradientTransform="matrix(-0.001, -0.0157, 0.0197, -0.0012, 224.15, 173.95)" gradientUnits="userSpaceOnUse" id="gradient0" spreadMethod="pad" x1="-819.2" x2="819.2">
      <stop offset="0.0" stop-color="#ffffff"/>
      <stop offset="1.0" stop-color="#ebe2cf"/>
      <stop offset="1.0" stop-color="#5c3c34"/>
    </linearGradient>
    <linearGradient gradientTransform="matrix(0.047, 0.0, 0.0, 0.024, 248.9, 189.35)" gradientUnits="userSpaceOnUse" id="gradient1" spreadMethod="pad" x1="-819.2" x2="819.2">
      <stop offset="0.0" stop-color="#ebe2cf"/>
      <stop offset="1.0" stop-color="#d3be92"/>
      <stop offset="1.0" stop-color="#5c3c34"/>
    </linearGradient>
    <linearGradient gradientTransform="matrix(0.0133, -0.0108, 0.0135, 0.0167, 249.35, 181.6)" gradientUnits="userSpaceOnUse" id="gradient2" spreadMethod="pad" x1="-819.2" x2="819.2">
      <stop offset="0.0" stop-color="#ebe2cf"/>
      <stop offset="1.0" stop-color="#d3be92"/>
      <stop offset="1.0" stop-color="#5c3c34"/>
    </linearGradient>
    <linearGradient gradientTransform="matrix(0.012, 0.0, 0.0, 0.0059, 270.85, 191.55)" gradientUnits="userSpaceOnUse" id="gradient3" spreadMethod="pad" x1="-819.2" x2="819.2">
      <stop offset="0.0" stop-color="#ebe2cf"/>
      <stop offset="1.0" stop-color="#d3be92"/>
      <stop offset="1.0" stop-color="#5c3c34"/>
    </linearGradient>
    <linearGradient gradientTransform="matrix(0.0072, -0.016, 0.0218, 0.0098, 186.7, 190.6)" gradientUnits="userSpaceOnUse" id="gradient4" spreadMethod="pad" x1="-819.2" x2="819.2">
      <stop offset="0.0" stop-color="#ebe2cf"/>
      <stop offset="1.0" stop-color="#c6a575"/>
      <stop offset="1.0" stop-color="#5c3c34"/>
    </linearGradient>
  </defs>
</svg>
