<?xml version="1.0" encoding="UTF-8" standalone="no"?>
<svg xmlns:ffdec="https://www.free-decompiler.com/flash" xmlns:xlink="http://www.w3.org/1999/xlink" ffdec:objectType="shape" height="298.85px" width="157.95px" xmlns="http://www.w3.org/2000/svg">
  <g transform="matrix(1.0, 0.0, 0.0, 1.0, 70.1, 149.4)">
    <path d="M21.1 -8.85 L40.9 -100.0 44.15 -91.55 45.25 -120.0 51.25 -136.35 56.1 -126.5 47.0 -91.05 53.85 -94.15 76.85 1.85 Q73.85 0.35 70.8 -0.95 L67.9 -2.1 Q60.35 -5.05 52.65 -6.8 L45.75 -8.1 21.1 -8.85 M17.6 -145.25 L8.0 -126.25 7.3 -137.35 17.6 -145.25 M44.15 -91.55 L44.7 -90.05 47.0 -91.05 44.7 -90.05 44.15 -91.55 M-24.7 142.35 Q-33.85 142.3 -32.4 136.6 0.0 132.75 26.3 136.6 30.15 141.1 18.1 141.95 -4.05 145.75 -24.7 142.35" fill="#54150e" fill-rule="evenodd" stroke="none"/>
    <path d="M21.05 -8.85 L2.2 -105.15 Q24.5 -112.35 30.6 -128.45 L37.1 -145.25 51.25 -136.35 45.25 -120.0 40.9 -100.0 21.1 -8.85 21.05 -8.85 21.1 -8.85 45.75 -8.1 52.65 -6.8 Q60.35 -5.05 67.9 -2.1 L70.8 -0.95 Q73.85 0.35 76.85 1.85 L83.75 13.35 85.3 19.1 Q76.9 49.75 56.1 63.05 L51.3 56.3 Q48.65 102.7 33.1 134.5 27.25 127.8 11.85 128.45 25.6 89.75 24.35 63.05 17.2 55.65 -17.2 59.95 -4.45 51.1 12.35 47.65 32.75 44.9 51.3 56.3 37.0 38.5 16.65 40.9 31.8 16.2 -39.25 6.4 -15.2 -2.8 8.85 -7.15 L21.05 -8.85 M0.05 -145.25 L-1.65 -133.0 -6.7 -130.1 0.05 -145.25" fill="#6f2914" fill-rule="evenodd" stroke="none"/>
    <path d="M56.1 -126.5 L62.0 -124.15 Q56.9 -96.6 76.85 1.85 L53.85 -94.15 47.0 -91.05 56.1 -126.5 M85.3 19.1 L86.85 24.85 84.8 33.85 79.85 44.85 Q70.0 60.2 54.95 70.35 49.4 104.2 42.65 126.5 39.8 135.2 35.85 139.6 34.95 136.65 33.1 134.5 48.65 102.7 51.3 56.3 L56.1 63.05 Q76.9 49.75 85.3 19.1 M56.1 63.05 L54.95 70.35 56.1 63.05" fill="#8f321b" fill-rule="evenodd" stroke="none"/>
    <path d="M40.9 -100.0 L45.25 -120.0 44.15 -91.55 40.9 -100.0" fill="#792b17" fill-rule="evenodd" stroke="none"/>
    <path d="M37.1 -145.25 L30.6 -128.45 Q24.5 -112.35 2.2 -105.15 L21.05 -8.85 8.85 -7.15 Q-15.2 -2.8 -39.25 6.4 L-46.4 9.2 -46.45 9.2 -33.6 -101.95 -33.6 -113.75 -36.25 -123.6 -28.55 -129.6 -11.75 -127.2 -6.7 -130.1 -1.65 -133.0 0.05 -145.25 6.55 -148.4 7.3 -137.35 8.0 -126.25 17.6 -145.25 37.1 -145.25" fill="url(#gradient0)" fill-rule="evenodd" stroke="none"/>
    <path d="M-46.4 9.2 L-39.25 6.4 Q31.8 16.2 16.65 40.9 37.0 38.5 51.3 56.3 32.75 44.9 12.35 47.65 -4.45 51.1 -17.2 59.95 -23.9 64.6 -29.5 70.75 L-33.85 81.8 -41.55 78.9 Q-55.15 69.2 -63.1 53.85 L-69.1 32.85 Q-66.35 22.1 -60.5 16.5 L-57.15 13.85 Q-51.8 11.4 -46.4 9.2" fill="url(#gradient1)" fill-rule="evenodd" stroke="none"/>
    <path d="M35.85 139.6 Q32.65 143.15 28.7 143.85 -2.45 153.05 -30.45 143.85 -38.5 142.4 -40.1 132.75 L-33.85 81.8 -29.5 70.75 Q-23.9 64.6 -17.2 59.95 17.2 55.65 24.35 63.05 25.6 89.75 11.85 128.45 27.25 127.8 33.1 134.5 34.95 136.65 35.85 139.6 M18.1 141.95 Q30.15 141.1 26.3 136.6 0.0 132.75 -32.4 136.6 -33.85 142.3 -24.7 142.35 -4.05 145.75 18.1 141.95" fill="url(#gradient2)" fill-rule="evenodd" stroke="none"/>
    <path d="M21.05 -8.85 L21.1 -8.85 40.9 -100.0 45.25 -120.0 51.25 -136.35 37.1 -145.25 17.6 -145.25 8.0 -126.25 7.3 -137.35 6.55 -148.4 0.05 -145.25 -1.65 -133.0 -6.7 -130.1 -11.75 -127.2 -28.55 -129.6 -36.25 -123.6 -33.6 -113.75 -33.6 -101.95 -46.45 9.2 M-46.4 9.2 L-39.25 6.4 Q-15.2 -2.8 8.85 -7.15 L21.05 -8.85 M17.6 -145.25 L7.3 -137.35 M56.1 -126.5 L62.0 -124.15 Q56.9 -96.6 76.85 1.85 73.85 0.35 70.8 -0.95 L67.9 -2.1 Q60.35 -5.05 52.65 -6.8 L45.75 -8.1 21.1 -8.85 M83.75 13.35 L85.3 19.1 86.85 24.85 84.8 33.85 79.85 44.85 Q70.0 60.2 54.95 70.35 49.4 104.2 42.65 126.5 39.8 135.2 35.85 139.6 32.65 143.15 28.7 143.85 -2.45 153.05 -30.45 143.85 -38.5 142.4 -40.1 132.75 L-33.85 81.8 -41.55 78.9 Q-55.15 69.2 -63.1 53.85 L-69.1 32.85 Q-66.35 22.1 -60.5 16.5 L-57.15 13.85 Q-51.8 11.4 -46.4 9.2 M51.25 -136.35 L56.1 -126.5 47.0 -91.05 53.85 -94.15 76.85 1.85 M47.0 -91.05 L44.7 -90.05 44.15 -91.55 40.9 -100.0 M44.15 -91.55 L45.25 -120.0 M54.95 70.35 L56.1 63.05 51.3 56.3 Q32.75 44.9 12.35 47.65 -4.45 51.1 -17.2 59.95 -23.9 64.6 -29.5 70.75 L-33.85 81.8 M-24.7 142.35 Q-33.85 142.3 -32.4 136.6 0.0 132.75 26.3 136.6 30.15 141.1 18.1 141.95 M-6.7 -130.1 L0.05 -145.25" fill="none" stroke="#000000" stroke-linecap="round" stroke-linejoin="round" stroke-opacity="0.4" stroke-width="2.0"/>
    <path d="M68.95 -58.75 Q67.4 -48.6 67.85 -32.15 69.55 -41.65 70.2 -52.45 L70.25 -51.9 70.45 -48.65 70.6 -39.35 Q70.7 -31.4 69.75 -27.55 68.75 -23.7 68.45 -24.65 L68.1 -25.65 68.1 -25.6 67.9 -26.1 Q63.45 -37.65 61.45 -41.6 L65.9 -66.95 Q67.75 -63.25 68.95 -58.75 M-43.15 -13.0 Q-42.1 -44.45 -29.6 -64.55 -2.1 -108.75 31.45 -105.65 50.05 -94.6 63.85 -70.65 L61.3 -41.9 Q56.9 -50.65 51.5 -57.2 43.9 -66.25 35.45 -70.85 L32.4 -82.65 Q32.35 -82.85 32.15 -82.85 32.8 -77.75 33.8 -71.7 5.5 -86.2 -19.75 -54.5 -30.7 -40.8 -37.1 -18.95 L-37.95 -16.35 -38.3 -15.45 Q-41.3 -13.45 -43.25 -6.5 L-43.15 -13.0 M-26.3 103.5 L-24.55 100.5 -26.25 134.55 -28.15 136.6 Q-27.9 119.95 -26.3 103.5 M22.35 108.95 L22.4 108.1 23.15 109.35 Q23.3 127.35 19.35 143.7 L19.05 141.85 18.8 140.5 20.55 128.25 19.05 137.9 Q17.8 135.05 16.2 133.2 L-23.3 138.0 Q-22.0 123.0 -21.8 104.0 -20.55 102.25 -19.1 101.05 3.05 82.15 22.35 108.95" fill="#fdef79" fill-opacity="0.5019608" fill-rule="evenodd" stroke="none"/>
    <path d="M-43.15 -13.0 L-43.25 -6.5 Q-41.3 -13.45 -38.3 -15.45 L-37.95 -16.35 -37.7 -16.3 Q-22.7 -13.25 -0.7 -28.4 21.3 -43.55 32.25 -31.95 42.15 -21.45 44.9 -10.25 L39.4 -11.8 Q17.15 -11.4 -4.6 -6.85 -26.4 -2.3 -32.5 2.75 -38.6 7.8 -43.6 3.6 -48.6 -0.6 -43.15 -13.0 M47.95 -9.4 Q66.05 -20.0 56.2 -7.15 L47.95 -9.4 M45.15 15.0 L39.4 25.1 42.4 18.15 45.15 15.0" fill="#fa967c" fill-opacity="0.49803922" fill-rule="evenodd" stroke="none"/>
  </g>
  <defs>
    <linearGradient gradientTransform="matrix(0.0691, 0.0185, -0.0109, 0.0407, 31.05, -111.2)" gradientUnits="userSpaceOnUse" id="gradient0" spreadMethod="pad" x1="-819.2" x2="819.2">
      <stop offset="0.0" stop-color="#f67824"/>
      <stop offset="1.0" stop-color="#bb2d21"/>
    </linearGradient>
    <linearGradient gradientTransform="matrix(0.0969, 0.0081, -0.0038, 0.0454, 29.2, 49.55)" gradientUnits="userSpaceOnUse" id="gradient1" spreadMethod="pad" x1="-819.2" x2="819.2">
      <stop offset="0.0" stop-color="#f67824"/>
      <stop offset="1.0" stop-color="#bb2d21"/>
    </linearGradient>
    <linearGradient gradientTransform="matrix(0.0898, 0.011, -0.0068, 0.0554, 49.05, 109.3)" gradientUnits="userSpaceOnUse" id="gradient2" spreadMethod="pad" x1="-819.2" x2="819.2">
      <stop offset="0.0" stop-color="#f67824"/>
      <stop offset="1.0" stop-color="#bb2d21"/>
    </linearGradient>
  </defs>
</svg>
