<?xml version="1.0" encoding="UTF-8" standalone="no"?>
<svg xmlns:ffdec="https://www.free-decompiler.com/flash" xmlns:xlink="http://www.w3.org/1999/xlink" ffdec:objectType="shape" height="91.45px" width="53.9px" xmlns="http://www.w3.org/2000/svg">
  <g transform="matrix(1.0, 0.0, 0.0, 1.0, 0.0, 0.0)">
    <path d="M32.3 60.2 L32.35 60.1 Q33.05 59.6 32.1 59.4 L32.0 59.35 31.7 59.3 32.2 59.0 Q32.25 58.9 32.4 58.9 L32.55 58.95 Q33.1 59.3 33.65 59.8 34.25 60.45 33.65 61.05 32.7 62.05 31.65 60.85 31.1 60.1 31.4 59.6 L31.45 59.6 Q31.3 59.8 31.5 60.2 31.85 61.05 32.3 60.2 M21.2 63.3 Q22.15 63.65 21.0 64.45 20.6 64.7 20.15 64.45 18.95 63.85 19.7 63.25 L20.15 62.95 21.2 63.3 M19.8 63.9 L20.0 63.9 20.85 63.4 19.7 63.3 Q19.15 63.9 19.8 63.9 M35.65 75.4 L35.95 75.7 Q36.1 76.7 35.35 77.65 34.8 78.35 34.5 77.45 L34.35 77.15 Q33.65 76.45 33.9 75.95 33.8 76.25 34.05 76.55 L34.15 76.55 34.6 76.2 35.3 75.95 35.5 75.75 Q35.45 75.55 35.15 75.55 L34.6 75.5 35.1 75.3 35.25 75.25 35.65 75.4 M22.95 78.65 L23.0 78.65 Q22.8 79.25 23.5 78.95 L23.5 78.9 Q23.35 78.6 23.0 78.6 L23.15 78.45 Q23.7 78.8 23.8 79.3 L23.7 79.45 Q22.55 79.1 22.95 78.65" fill="#61daf8" fill-rule="evenodd" stroke="none"/>
    <path d="M28.95 62.75 L29.85 62.9 30.0 62.95 31.1 63.25 31.25 63.4 29.55 64.15 Q27.8 64.75 30.6 65.2 33.35 65.6 35.1 67.05 L35.45 67.5 Q36.2 68.5 36.35 69.8 L36.4 70.25 Q36.4 71.3 35.8 72.05 L35.7 72.25 35.5 72.45 34.0 72.85 31.2 72.55 Q29.35 72.2 27.95 73.0 26.55 73.8 32.5 75.1 32.95 75.55 32.95 76.25 32.75 77.4 31.55 77.6 L30.8 77.75 28.15 77.3 28.6 77.65 28.8 77.9 30.45 78.25 30.45 78.65 Q30.4 79.2 29.65 79.25 L29.55 79.25 29.1 79.2 28.95 79.2 28.65 79.15 28.4 79.2 28.4 79.25 27.65 79.2 Q27.55 80.4 29.95 80.2 L30.1 80.4 30.1 80.45 Q30.95 81.5 29.6 82.25 L27.3 82.2 Q25.95 81.65 26.35 80.8 26.7 79.95 25.6 79.05 24.5 78.1 25.15 77.7 L25.2 77.5 24.95 77.45 Q23.75 77.15 23.05 76.3 L22.85 76.05 22.2 75.7 Q21.65 75.45 22.55 74.7 23.5 74.0 23.15 73.1 22.85 72.15 21.3 72.3 19.7 72.45 18.8 71.75 L18.5 71.0 18.35 69.85 18.55 68.6 18.55 68.55 18.7 68.05 Q19.7 67.15 22.35 67.0 24.95 66.9 21.15 65.9 21.7 64.95 22.7 64.7 L23.15 64.6 24.4 64.4 Q25.55 64.15 25.05 63.8 L24.55 63.15 Q24.5 62.8 25.05 62.6 L25.1 62.55 26.7 62.45 28.95 62.75 M25.35 66.05 L25.75 65.85 Q26.2 65.2 25.25 65.15 24.55 65.1 24.4 65.55 L24.3 65.6 Q24.1 65.7 24.05 66.0 24.0 66.4 24.45 66.55 24.95 66.7 24.55 67.25 L23.65 67.8 22.65 68.0 Q21.85 68.15 21.85 69.05 L21.85 69.15 21.85 69.75 Q21.75 70.6 22.45 70.85 L22.5 70.9 22.4 70.85 22.4 70.9 22.5 70.9 22.65 70.85 23.0 70.0 Q23.4 69.1 24.35 69.0 24.95 68.95 24.9 68.5 24.9 67.95 24.2 67.9 L24.55 67.5 Q24.95 67.25 24.95 66.8 24.85 66.15 25.35 66.05 M27.25 63.3 Q26.4 62.75 25.8 62.95 25.2 63.15 25.65 63.75 L27.1 63.9 Q28.1 63.85 27.25 63.3 M33.7 83.9 Q34.8 84.35 33.25 84.65 31.5 85.0 31.65 83.65 L32.25 83.6 32.5 83.6 Q32.85 83.6 33.2 83.95 L33.25 83.75 33.7 83.9 M27.55 83.25 L27.9 83.1 Q29.0 82.6 28.25 83.55 27.5 84.55 26.05 84.1 25.4 83.9 25.4 84.6 L25.3 84.6 Q24.65 83.95 25.4 83.55 L25.45 83.55 27.55 83.25 M26.05 79.0 L26.15 79.0 26.95 79.15 27.2 79.0 Q26.75 77.7 25.15 78.05 L25.15 78.1 25.75 78.7 26.05 79.0 M25.85 76.35 Q26.55 76.45 26.75 76.0 26.9 75.3 26.15 75.2 25.3 75.0 25.25 74.4 25.25 74.05 25.05 74.0 23.75 73.4 24.5 74.7 L24.55 74.8 Q24.4 75.55 24.9 76.0 L25.85 76.35 M27.0 81.8 L27.25 81.95 27.6 81.95 Q28.8 82.4 28.4 81.5 28.1 80.75 27.35 80.85 25.75 81.1 27.0 81.8" fill="#afe7f3" fill-rule="evenodd" stroke="none"/>
    <path d="M28.95 62.75 L28.95 62.7 29.85 62.9 28.95 62.75" fill="#0cbbe7" fill-rule="evenodd" stroke="none"/>
    <path d="M27.25 63.3 Q28.1 63.85 27.1 63.9 L25.65 63.75 Q25.2 63.15 25.8 62.95 26.4 62.75 27.25 63.3 M25.35 66.05 Q24.85 66.15 24.95 66.8 24.95 67.25 24.55 67.5 L24.2 67.9 Q24.9 67.95 24.9 68.5 24.95 68.95 24.35 69.0 23.4 69.1 23.0 70.0 L22.65 70.85 22.5 70.9 22.4 70.9 22.4 70.85 22.5 70.9 22.45 70.85 Q21.75 70.6 21.85 69.75 L21.85 69.15 21.85 69.05 Q21.85 68.15 22.65 68.0 L23.65 67.8 24.55 67.25 Q24.95 66.7 24.45 66.55 24.0 66.4 24.05 66.0 24.1 65.7 24.3 65.6 L24.4 65.55 Q24.55 65.1 25.25 65.15 26.2 65.2 25.75 65.85 L25.35 66.05 M25.85 76.35 L24.9 76.0 Q24.4 75.55 24.55 74.8 L24.5 74.7 Q23.75 73.4 25.05 74.0 25.25 74.05 25.25 74.4 25.3 75.0 26.15 75.2 26.9 75.3 26.75 76.0 26.55 76.45 25.85 76.35 M26.05 79.0 L25.75 78.7 25.15 78.1 25.15 78.05 Q26.75 77.7 27.2 79.0 L26.95 79.15 26.15 79.0 26.05 79.0 M27.0 81.8 Q25.75 81.1 27.35 80.85 28.1 80.75 28.4 81.5 28.8 82.4 27.6 81.95 L27.25 81.95 27.0 81.8" fill="#ffffff" fill-rule="evenodd" stroke="none"/>
    <path d="M31.25 63.4 L31.8 63.6 32.7 64.3 33.95 65.7 35.2 67.1 35.1 67.05 Q33.35 65.6 30.6 65.2 27.8 64.75 29.55 64.15 L31.25 63.4 M35.5 72.45 L33.9 74.1 Q33.1 74.8 33.0 75.85 L32.95 76.25 Q32.95 75.55 32.5 75.1 26.55 73.8 27.95 73.0 29.35 72.2 31.2 72.55 L34.0 72.85 35.5 72.45 M24.95 77.45 L23.95 77.25 Q22.65 76.85 21.9 76.05 L21.25 75.55 Q20.55 75.0 20.25 74.25 L19.0 72.1 18.8 71.75 Q19.7 72.45 21.3 72.3 22.85 72.15 23.15 73.1 23.5 74.0 22.55 74.7 21.65 75.45 22.2 75.7 L22.85 76.05 23.05 76.3 Q23.75 77.15 24.95 77.45 M18.7 68.05 Q19.15 67.2 20.15 66.75 L21.15 65.95 21.15 65.9 Q24.95 66.9 22.35 67.0 19.7 67.15 18.7 68.05 M23.15 64.6 L22.95 64.5 23.3 63.9 Q23.75 62.75 25.05 62.6 24.5 62.8 24.55 63.15 L25.05 63.8 Q25.55 64.15 24.4 64.4 L23.15 64.6 M32.5 83.6 L32.25 83.6 31.65 83.65 Q31.5 85.0 33.25 84.65 34.8 84.35 33.7 83.9 L34.45 84.05 Q35.75 84.5 34.55 84.8 L31.95 85.2 30.05 85.3 28.6 85.4 28.05 85.4 25.3 85.15 23.15 84.75 Q22.25 84.55 22.95 84.1 23.55 83.55 25.4 83.55 24.65 83.95 25.3 84.6 L25.4 84.6 Q25.4 83.9 26.05 84.1 27.5 84.55 28.25 83.55 29.0 82.6 27.9 83.1 L27.55 83.25 Q28.4 82.15 29.45 82.9 30.4 83.55 31.8 83.55 L32.5 83.6" fill="#4eb6dc" fill-rule="evenodd" stroke="none"/>
    <path d="M30.8 77.75 L30.5 77.8 Q30.25 77.85 30.4 77.95 L30.45 78.25 28.8 77.9 28.6 77.65 28.15 77.3 30.8 77.75 M29.55 79.25 Q28.95 79.25 29.45 79.75 L29.95 80.2 Q27.55 80.4 27.65 79.2 L28.4 79.25 28.4 79.2 28.65 79.15 28.95 79.2 29.1 79.2 29.55 79.25" fill="#30b4d3" fill-rule="evenodd" stroke="none"/>
    <path d="M27.65 79.2 L28.4 79.25 28.4 79.2" ffdec:has-small-stroke="true" ffdec:original-stroke-width="0.05" fill="none" stroke="#3399ff" stroke-linecap="round" stroke-linejoin="round" stroke-width="1.0"/>
    <path d="M27.9 83.1 Q29.0 82.6 28.25 83.55 27.5 84.55 26.05 84.1 25.4 83.9 25.4 84.6 L25.3 84.6 Q24.65 83.95 25.4 83.55 L25.45 83.55" ffdec:has-small-stroke="true" ffdec:original-stroke-width="0.05" fill="none" stroke="#0cbbe7" stroke-linecap="round" stroke-linejoin="round" stroke-width="1.0"/>
    <path d="M43.5 28.8 L43.2 29.15 42.1 29.9 40.35 27.4 40.05 27.1 37.6 24.6 Q37.75 23.35 37.25 22.45 39.65 25.9 43.5 28.8 M36.7 31.65 L35.7 31.8 35.45 30.75 35.35 30.25 Q35.05 28.9 35.15 27.55 36.1 28.25 36.4 29.1 L36.6 30.0 36.65 30.55 36.7 31.2 36.7 31.65 M28.55 32.45 L28.5 32.45 27.8 32.55 25.8 32.5 18.6 31.55 17.5 31.25 17.35 31.2 20.8 31.35 24.6 31.15 28.7 30.5 28.55 31.65 28.55 32.45 M25.35 91.45 Q30.25 90.1 33.65 88.65 37.2 87.1 41.0 86.1 44.6 85.1 47.2 82.2 48.8 80.45 48.55 77.35 48.2 73.65 48.25 69.95 48.3 66.0 47.7 62.15 47.1 58.4 47.2 54.55 L47.55 47.55 Q47.85 43.55 47.65 39.7 50.95 53.5 53.85 82.65 L53.9 83.55 Q53.7 86.75 46.25 89.05 38.6 91.45 27.8 91.45 L25.35 91.45 M12.85 78.9 Q17.2 77.7 21.2 77.65 L28.8 77.6 Q32.65 77.6 36.35 78.45 37.2 78.65 38.0 79.15 L31.4 78.85 23.6 79.05 Q19.5 79.35 16.4 81.6 L15.85 81.25 12.85 78.9 M11.65 84.95 Q12.0 86.7 15.2 88.1 L11.65 87.5 8.15 86.25 4.85 84.55 Q3.05 83.6 4.45 82.2 4.75 81.95 5.1 81.9 5.6 81.8 5.65 81.0 L5.75 81.15 5.9 81.4 6.3 82.05 7.9 83.35 Q9.3 84.35 11.05 84.8 L11.65 84.95" fill="#5a94cc" fill-opacity="0.6" fill-rule="evenodd" stroke="none"/>
    <path d="M42.1 29.9 L43.2 29.15 43.5 28.8 43.8 29.0 Q45.8 31.95 47.65 39.7 47.85 43.55 47.55 47.55 L47.2 54.55 Q47.1 58.4 47.7 62.15 48.3 66.0 48.25 69.95 48.2 73.65 48.55 77.35 48.8 80.45 47.2 82.2 44.6 85.1 41.0 86.1 37.2 87.1 33.65 88.65 30.25 90.1 25.35 91.45 L21.7 91.25 18.1 91.0 Q12.3 90.4 7.65 88.95 0.2 86.65 0.0 83.45 L0.1 82.55 Q4.6 37.05 10.1 28.9 L10.15 28.85 Q15.5 24.95 18.1 20.0 L18.3 19.6 18.3 19.65 19.25 20.05 19.3 20.75 23.05 21.75 23.1 21.75 24.35 22.0 24.9 22.1 Q26.7 22.35 29.1 22.05 L30.0 21.9 32.25 21.4 32.3 21.4 Q32.45 23.05 31.45 24.75 L29.6 27.95 29.1 29.05 28.7 30.5 24.6 31.15 20.8 31.35 17.35 31.2 17.5 31.25 18.6 31.55 25.8 32.5 27.8 32.55 28.5 32.45 28.55 32.45 28.55 35.45 28.75 39.05 28.9 42.95 29.0 45.05 31.9 42.75 33.1 41.85 35.4 44.75 35.9 45.75 36.1 45.75 Q36.45 44.25 36.4 42.35 L36.3 38.55 36.05 34.65 35.7 31.8 36.7 31.65 37.4 37.8 Q38.05 41.65 39.6 44.35 39.95 42.25 41.0 40.55 L41.2 40.7 Q43.5 41.9 45.2 43.7 L45.6 44.15 45.2 39.95 Q44.5 36.2 43.4 32.95 L42.9 31.6 42.1 29.9 M13.95 29.1 Q17.5 30.2 20.0 27.2 21.35 25.55 20.5 23.55 20.2 22.95 19.55 23.55 16.45 26.3 13.95 27.7 13.8 28.1 13.8 28.55 13.8 29.05 13.95 29.1 M12.85 78.9 L11.85 77.25 Q10.6 75.3 10.4 72.75 10.1 69.45 10.5 66.15 L10.9 60.35 Q11.05 56.2 10.6 52.55 L9.75 55.85 7.55 63.15 Q6.4 66.8 5.75 70.55 5.1 74.1 5.55 77.75 L5.55 78.35 Q5.55 79.7 5.9 81.05 L5.65 81.0 Q5.6 81.8 5.1 81.9 4.75 81.95 4.45 82.2 3.05 83.6 4.85 84.55 L8.15 86.25 11.65 87.5 15.2 88.1 Q12.0 86.7 11.65 84.95 L17.4 86.2 23.4 85.95 22.3 85.0 16.4 81.6 Q19.5 79.35 23.6 79.05 L31.4 78.85 38.0 79.15 Q37.2 78.65 36.35 78.45 32.65 77.6 28.8 77.6 L21.2 77.65 Q17.2 77.7 12.85 78.9" fill="#5a94cc" fill-opacity="0.08235294" fill-rule="evenodd" stroke="none"/>
    <path d="M37.9 30.0 L40.6 30.45 41.1 30.6 41.9 32.65 42.4 34.55 42.7 36.3 Q42.95 38.3 43.7 39.75 L40.5 38.05 40.0 37.75 Q39.5 38.6 39.25 40.2 L39.15 37.6 38.6 33.85 38.3 31.9 37.9 30.05 37.9 30.0 M30.25 30.2 L32.35 30.45 33.7 30.3 33.75 31.05 34.25 34.75 34.9 38.45 Q35.2 40.3 35.15 42.1 34.3 40.7 32.4 39.55 31.1 40.7 30.3 42.0 L30.0 39.45 Q29.6 37.5 29.8 35.65 L30.05 31.75 30.25 30.2" fill="#a9cdfa" fill-rule="evenodd" stroke="none"/>
    <path d="M41.1 30.6 L40.6 30.45 37.9 30.0 37.3 28.2 36.5 26.6 35.35 25.45 35.4 23.75 Q37.1 24.8 38.15 26.25 L39.15 27.7 40.25 29.25 41.1 30.6 M30.25 30.2 Q30.45 29.15 30.9 28.2 L32.45 25.0 Q33.3 23.25 33.0 21.25 L33.75 21.1 33.85 21.7 Q34.35 23.55 34.1 25.55 L33.85 27.3 Q33.6 28.8 33.7 30.3 L32.35 30.45 30.25 30.2" fill="#7ab3f8" fill-rule="evenodd" stroke="none"/>
    <path d="M42.9 31.6 L43.4 32.95 Q44.5 36.2 45.2 39.95 L45.6 44.15 45.2 43.7 Q43.5 41.9 41.2 40.7 L41.0 40.55 Q39.95 42.25 39.6 44.35 38.05 41.65 37.4 37.8 L36.7 31.65 36.7 31.2 36.65 30.55 36.6 30.0 37.9 30.0 37.9 30.05 38.3 31.9 38.6 33.85 39.15 37.6 39.25 40.2 Q39.5 38.6 40.0 37.75 L40.5 38.05 43.7 39.75 Q42.95 38.3 42.7 36.3 L42.4 34.55 41.9 32.65 41.1 30.6 Q42.1 30.95 42.9 31.6 M35.7 31.8 L36.05 34.65 36.3 38.55 36.4 42.35 Q36.45 44.25 36.1 45.75 L35.9 45.75 35.4 44.75 33.1 41.85 31.9 42.75 29.0 45.05 28.9 42.95 28.75 39.05 28.55 35.45 28.55 32.45 28.55 31.65 28.7 30.5 29.1 29.05 Q29.5 29.85 30.25 30.2 L30.05 31.75 29.8 35.65 Q29.6 37.5 30.0 39.45 L30.3 42.0 Q31.1 40.7 32.4 39.55 34.3 40.7 35.15 42.1 35.2 40.3 34.9 38.45 L34.25 34.75 33.75 31.05 33.7 30.3 35.35 30.25 35.45 30.75 35.7 31.8" fill="#0d6fe6" fill-rule="evenodd" stroke="none"/>
    <path d="M37.6 24.6 L40.05 27.1 40.35 27.4 42.1 29.9 42.9 31.6 Q42.1 30.95 41.1 30.6 L40.25 29.25 39.15 27.7 38.15 26.25 Q37.1 24.8 35.4 23.75 L35.35 25.45 36.5 26.6 37.3 28.2 37.9 30.0 36.6 30.0 36.4 29.1 Q36.1 28.25 35.15 27.55 35.05 28.9 35.35 30.25 L33.7 30.3 Q33.6 28.8 33.85 27.3 L34.1 25.55 Q34.35 23.55 33.85 21.7 L33.75 21.1 33.0 21.25 Q33.3 23.25 32.45 25.0 L30.9 28.2 Q30.45 29.15 30.25 30.2 29.5 29.85 29.1 29.05 L29.6 27.95 31.45 24.75 Q32.45 23.05 32.3 21.4 L32.25 21.4 32.25 21.15 32.1 21.15 32.05 21.0 32.05 20.65 Q24.85 21.85 19.25 20.05 L18.3 19.65 18.3 19.6 18.3 19.55 18.3 17.75 18.9 17.75 20.9 18.2 Q25.7 19.1 31.05 18.45 L31.55 18.35 31.7 18.15 Q32.15 17.9 32.65 17.8 L33.45 17.9 33.6 18.05 35.2 17.75 35.9 17.7 35.9 19.55 35.9 19.7 35.7 19.8 35.05 19.95 34.2 20.25 34.1 19.45 33.95 18.75 33.95 18.7 33.6 18.05 33.95 18.7 33.95 18.75 34.1 19.45 34.2 20.25 34.0 20.8 34.45 20.9 Q35.2 21.55 35.35 22.55 L37.6 24.6 M31.55 18.35 L31.6 18.55 31.75 19.15 32.05 20.65 31.75 19.15 31.6 18.55 31.55 18.35 M34.0 20.8 L33.7 20.95 33.15 21.1 33.5 20.4 33.95 18.7 33.5 20.4 33.15 21.1 33.7 20.95 34.0 20.8 M32.25 21.15 L33.15 21.1 32.25 21.15" fill="#0c5fc2" fill-rule="evenodd" stroke="none"/>
    <path d="M38.1 1.2 L38.1 1.25 33.9 1.65 33.65 1.65 32.15 1.15 28.65 0.7 23.1 0.8 22.25 0.9 22.25 1.05 22.2 1.1 20.65 1.25 Q20.2 1.4 19.55 1.9 L19.5 1.9 19.05 1.85 15.6 1.25 15.7 1.05 19.8 0.45 26.4 0.0 27.25 0.0 33.5 0.3 Q37.6 0.7 38.1 1.2 M31.1 2.05 Q30.85 1.8 31.1 2.1 L30.65 2.15 30.6 2.15 30.3 1.8 30.5 1.4 30.6 1.35 Q31.05 1.2 31.3 1.5 L31.3 1.55 31.35 1.6 31.3 1.75 31.25 1.75 31.1 2.05 M22.2 2.25 L22.45 1.95 22.15 2.25 22.2 1.65 22.35 1.5 22.45 1.45 22.7 1.7 22.2 2.25" fill="#be6710" fill-rule="evenodd" stroke="none"/>
    <path d="M33.65 1.65 L33.9 1.65 Q34.25 2.2 34.65 6.85 34.8 7.9 34.6 8.75 L34.35 10.5 34.2 12.45 34.1 12.9 Q33.8 12.1 32.45 11.7 31.6 11.8 31.15 12.5 30.75 13.15 30.75 15.05 L20.85 14.65 Q20.85 13.15 19.9 12.7 L19.55 11.9 Q19.1 11.05 19.15 10.05 L19.15 8.25 18.9 6.85 18.85 6.05 18.9 5.8 19.05 1.85 19.5 1.9 19.55 1.9 22.15 2.25 22.45 1.95 22.2 2.25 26.55 2.3 30.6 2.15 30.65 2.15 31.1 2.1 Q30.85 1.8 31.1 2.05 L33.65 1.65 M33.55 8.3 L33.55 8.35 33.15 8.5 32.95 8.75 Q32.85 9.0 33.0 9.25 33.35 9.8 33.95 9.4 L34.1 9.15 34.15 8.95 34.1 8.65 33.95 8.5 33.8 8.4 33.55 8.3 M29.2 7.2 L29.4 6.9 29.55 6.6 Q29.45 6.3 29.1 6.3 L28.95 6.3 28.65 6.6 Q28.5 7.1 28.8 7.2 L29.2 7.2 M22.6 7.9 Q23.0 8.45 23.5 8.1 25.55 6.8 23.3 5.85 21.4 6.4 22.6 7.9 M22.05 12.0 L21.8 11.9 21.8 11.95 21.4 12.05 21.2 12.35 21.25 12.8 Q21.6 13.4 22.2 13.0 L22.35 12.75 22.4 12.55 22.35 12.25 22.2 12.05 22.05 12.0" fill="#f9dba4" fill-rule="evenodd" stroke="none"/>
    <path d="M33.65 1.65 L31.1 2.05 31.25 1.75 31.3 1.75 31.35 1.6 31.3 1.55 31.3 1.5 Q31.05 1.2 30.6 1.35 L30.5 1.4 30.3 1.8 30.6 2.15 26.55 2.3 22.2 2.25 22.7 1.7 22.45 1.45 22.35 1.5 22.2 1.65 22.15 2.25 19.55 1.9 Q20.2 1.4 20.65 1.25 L22.2 1.1 22.25 1.05 22.25 0.9 23.1 0.8 28.65 0.7 32.15 1.15 33.65 1.65" fill="#f1a850" fill-rule="evenodd" stroke="none"/>
    <path d="M38.1 1.25 L35.35 14.65 35.9 14.6 35.6 14.65 35.7 14.65 35.3 14.75 35.3 14.8 35.2 14.8 Q27.75 16.2 20.8 15.05 L18.4 14.75 18.4 14.7 18.25 14.75 18.1 14.65 18.45 14.7 Q17.2 11.15 16.55 7.65 15.9 4.1 15.6 1.25 L19.05 1.85 18.9 5.8 18.85 6.05 18.9 6.85 19.15 8.25 19.15 10.05 Q19.1 11.05 19.55 11.9 L19.9 12.7 Q20.85 13.15 20.85 14.65 L30.75 15.05 Q30.75 13.15 31.15 12.5 31.6 11.8 32.45 11.7 33.8 12.1 34.1 12.9 L34.2 12.45 34.35 10.5 34.6 8.75 Q34.8 7.9 34.65 6.85 34.25 2.2 33.9 1.65 L38.1 1.25 M33.55 8.3 L33.8 8.4 33.95 8.5 34.1 8.65 34.15 8.95 34.1 9.15 33.95 9.4 Q33.35 9.8 33.0 9.25 32.85 9.0 32.95 8.75 L33.15 8.5 33.55 8.35 33.55 8.3 M22.05 12.0 L22.2 12.05 22.35 12.25 22.4 12.55 22.35 12.75 22.2 13.0 Q21.6 13.4 21.25 12.8 L21.2 12.35 21.4 12.05 21.8 11.95 21.8 11.9 22.05 12.0 M22.6 7.9 Q21.4 6.4 23.3 5.85 25.55 6.8 23.5 8.1 23.0 8.45 22.6 7.9 M29.2 7.2 L28.8 7.2 Q28.5 7.1 28.65 6.6 L28.95 6.3 29.1 6.3 Q29.45 6.3 29.55 6.6 L29.4 6.9 29.2 7.2" fill="#f5c77c" fill-rule="evenodd" stroke="none"/>
    <path d="M32.25 21.4 L30.0 21.9 30.0 21.8 29.95 21.7 29.5 21.35 29.35 21.4 29.05 21.7 29.1 22.05 Q26.7 22.35 24.9 22.1 L24.9 22.0 24.75 21.65 24.6 21.6 23.5 21.5 Q23.25 21.5 23.15 21.7 L23.1 21.75 23.05 21.75 19.3 20.75 19.25 20.05 Q24.85 21.85 32.05 20.65 L32.05 21.0 32.1 21.15 32.25 21.15 32.25 21.4 M34.2 20.25 L35.05 19.95 35.1 20.7 34.45 20.9 34.0 20.8 34.2 20.25" fill="#dcdbba" fill-rule="evenodd" stroke="none"/>
    <path d="M30.0 21.9 L29.1 22.05 29.05 21.7 29.35 21.4 29.5 21.35 29.95 21.7 30.0 21.8 30.0 21.9 M24.9 22.1 L24.35 22.0 23.1 21.75 23.15 21.7 Q23.25 21.5 23.5 21.5 L24.6 21.6 24.75 21.65 24.9 22.0 24.9 22.1" fill="#cccc99" fill-rule="evenodd" stroke="none"/>
    <path d="M35.9 14.6 L35.9 14.55 35.95 14.6 Q37.8 15.25 36.3 17.6 L35.9 17.7 35.2 17.75 35.3 14.8 35.3 14.75 35.7 14.65 35.6 14.65 35.9 14.6 35.7 14.65 35.9 14.6 35.95 14.6 35.9 14.6 M18.4 14.75 L18.9 17.75 18.3 17.75 17.65 17.65 Q15.9 16.5 17.4 14.85 L18.25 14.75 18.4 14.7 18.4 14.75" fill="#0265c6" fill-opacity="0.4" fill-rule="evenodd" stroke="none"/>
    <path d="M18.4 14.75 L20.8 15.05 Q27.75 16.2 35.2 14.8 L35.3 14.8 35.2 17.75 33.6 18.05 33.45 17.9 32.65 17.8 Q32.15 17.9 31.7 18.15 L31.55 18.35 31.05 18.45 Q25.7 19.1 20.9 18.2 L18.9 17.75 18.4 14.75" fill="#99c1e8" fill-rule="evenodd" stroke="none"/>
    <path d="M37.25 22.45 Q37.75 23.35 37.6 24.6 L35.35 22.55 Q35.2 21.55 34.45 20.9 L35.1 20.7 35.05 19.95 35.7 19.8 35.85 20.1 36.9 21.9 37.25 22.45" fill="#5a94cc" fill-opacity="0.16078432" fill-rule="evenodd" stroke="none"/>
    <path d="M35.9 19.55 L35.95 19.7 35.9 19.7 35.9 19.55" fill="#c60909" fill-rule="evenodd" stroke="none"/>
    <path d="M14.2 22.6 Q14.55 22.2 15.0 22.4 L14.75 22.45 14.2 22.6 M3.4 30.25 L3.45 32.8 3.4 32.9 3.4 30.25" fill="#0099ff" fill-opacity="0.101960786" fill-rule="evenodd" stroke="none"/>
    <path d="M5.9 81.05 Q5.55 79.7 5.55 78.35 L5.55 77.75 Q5.1 74.1 5.75 70.55 6.4 66.8 7.55 63.15 L9.75 55.85 10.6 52.55 Q11.05 56.2 10.9 60.35 L10.5 66.15 Q10.1 69.45 10.4 72.75 10.6 75.3 11.85 77.25 L12.85 78.9 15.85 81.25 16.4 81.6 22.3 85.0 23.4 85.95 17.4 86.2 11.65 84.95 11.05 84.8 Q9.3 84.35 7.9 83.35 L6.3 82.05 5.9 81.4 5.95 81.3 5.95 81.05 5.9 81.05" fill="#fafdfe" fill-rule="evenodd" stroke="none"/>
    <path d="M0.1 82.55 L0.0 83.45 0.0 83.25 0.1 82.55" fill="#e5f5ff" fill-rule="evenodd" stroke="none"/>
    <path d="M42.1 29.9 L43.2 29.15 43.5 28.8 Q39.65 25.9 37.25 22.45 37.75 23.35 37.6 24.6 M36.7 31.65 L35.7 31.8 M28.55 32.45 L28.5 32.45 27.8 32.55 25.8 32.5 18.6 31.55 17.5 31.25 M17.35 31.2 L20.8 31.35 24.6 31.15 28.7 30.5 M18.3 19.6 L18.1 20.0 Q15.5 24.95 10.15 28.85 L10.1 28.9 Q4.6 37.05 0.1 82.55 L0.0 83.45 Q0.2 86.65 7.65 88.95 12.3 90.4 18.1 91.0 L21.7 91.25 25.35 91.45 Q30.25 90.1 33.65 88.65 37.2 87.1 41.0 86.1 44.6 85.1 47.2 82.2 48.8 80.45 48.55 77.35 48.2 73.65 48.25 69.95 48.3 66.0 47.7 62.15 47.1 58.4 47.2 54.55 L47.55 47.55 Q47.85 43.55 47.65 39.7 45.8 31.95 43.8 29.0 L43.5 28.8 M35.7 19.8 L35.85 20.1 36.9 21.9 37.25 22.45 M0.0 83.45 L0.0 83.25 0.1 82.55 M47.65 39.7 Q50.95 53.5 53.85 82.65 L53.9 83.55 Q53.7 86.75 46.25 89.05 38.6 91.45 27.8 91.45 L25.35 91.45" ffdec:has-small-stroke="true" ffdec:original-stroke-width="0.05" fill="none" stroke="#87b5e3" stroke-linecap="round" stroke-linejoin="round" stroke-width="1.0"/>
    <path d="M38.1 1.2 L38.1 1.25 35.35 14.65 M35.6 14.65 L35.7 14.65 35.3 14.75 35.3 14.8 35.2 14.8 Q27.75 16.2 20.8 15.05 L18.4 14.75" ffdec:has-small-stroke="true" ffdec:original-stroke-width="0.05" fill="none" stroke="#c08944" stroke-linecap="round" stroke-linejoin="round" stroke-width="1.0"/>
    <path d="M15.7 1.05 L19.8 0.45 26.4 0.0 27.25 0.0 33.5 0.3 Q37.6 0.7 38.1 1.2 M15.6 1.25 Q15.9 4.1 16.55 7.65 17.2 11.15 18.45 14.7" ffdec:has-small-stroke="true" ffdec:original-stroke-width="0.05" fill="none" stroke="#8b4b0c" stroke-linecap="round" stroke-linejoin="round" stroke-width="1.0"/>
    <path d="M32.3 21.4 L32.25 21.4 30.0 21.9 29.1 22.05 Q26.7 22.35 24.9 22.1 L24.35 22.0 23.1 21.75 23.05 21.75 19.3 20.75 19.25 20.05 M34.45 20.9 L35.1 20.7 35.05 19.95" ffdec:has-small-stroke="true" ffdec:original-stroke-width="0.05" fill="none" stroke="#5797d7" stroke-linecap="round" stroke-linejoin="round" stroke-width="1.0"/>
    <path d="M35.9 14.6 L35.9 14.55 M35.9 14.6 L35.95 14.6 M35.9 14.6 L35.6 14.65 M35.7 14.65 L35.9 14.6 M18.4 14.75 L18.9 17.75 M35.2 17.75 L35.3 14.8 M18.4 14.7 L18.4 14.75" ffdec:has-small-stroke="true" ffdec:original-stroke-width="0.05" fill="none" stroke="#3f89d1" stroke-linecap="round" stroke-linejoin="round" stroke-width="1.0"/>
    <path d="M35.95 14.6 Q37.8 15.25 36.3 17.6 L35.9 17.7 35.2 17.75 33.6 18.05 M18.9 17.75 L20.9 18.2 Q25.7 19.1 31.05 18.45 L31.55 18.35 M18.25 14.75 L18.4 14.7 M18.9 17.75 L18.3 17.75 M17.65 17.65 Q15.9 16.5 17.4 14.85 L18.25 14.75" ffdec:has-small-stroke="true" ffdec:original-stroke-width="0.05" fill="none" stroke="#76aade" stroke-linecap="round" stroke-linejoin="round" stroke-width="1.0"/>
    <path d="M31.55 18.35 L31.7 18.15 Q32.15 17.9 32.65 17.8 L33.45 17.9 33.6 18.05 33.95 18.7 33.95 18.75 34.1 19.45 34.2 20.25 34.0 20.8 33.7 20.95 33.15 21.1 32.25 21.15 32.1 21.15 32.05 21.0 32.05 20.65 31.75 19.15 31.6 18.55 31.55 18.35 M33.95 18.7 L33.5 20.4 33.15 21.1 M34.45 20.9 L34.0 20.8 M32.25 21.4 L32.25 21.15" ffdec:has-small-stroke="true" ffdec:original-stroke-width="0.05" fill="none" stroke="#0a4b8d" stroke-linecap="round" stroke-linejoin="round" stroke-width="1.0"/>
    <path d="M19.25 20.05 L18.3 19.65 18.3 19.6 18.3 19.55 18.3 17.75 17.65 17.65 M35.9 17.7 L35.9 19.55 35.95 19.7 35.9 19.7 35.7 19.8 35.05 19.95 M15.6 1.25 L15.7 1.05" ffdec:has-small-stroke="true" ffdec:original-stroke-width="0.05" fill="none" stroke="#2b74bb" stroke-linecap="round" stroke-linejoin="round" stroke-width="1.0"/>
    <path d="M17.5 31.25 L17.35 31.2" ffdec:has-small-stroke="true" ffdec:original-stroke-width="0.05" fill="none" stroke="#3985d0" stroke-linecap="round" stroke-linejoin="round" stroke-opacity="0.7529412" stroke-width="1.0"/>
  </g>
</svg>
