<?xml version="1.0" encoding="UTF-8" standalone="no"?>
<svg xmlns:ffdec="https://www.free-decompiler.com/flash" xmlns:xlink="http://www.w3.org/1999/xlink" ffdec:objectType="shape" height="91.45px" width="53.9px" xmlns="http://www.w3.org/2000/svg">
  <g transform="matrix(1.0, 0.0, 0.0, 1.0, 0.0, 0.0)">
    <path d="M23.2 59.75 L22.8 60.3 22.6 60.6 Q22.5 61.0 23.3 61.2 24.35 61.4 24.9 60.55 25.45 61.2 24.95 62.05 L24.7 62.3 22.85 62.15 Q21.85 61.65 22.35 60.65 L22.6 60.15 22.85 59.85 23.2 59.75 M23.8 67.85 L24.75 66.2 24.85 65.8 24.95 65.55 24.95 65.45 25.1 65.35 25.15 65.3 25.2 65.2 26.3 64.0 27.0 62.9 26.75 64.2 Q26.5 65.2 25.9 66.0 L24.7 67.35 23.95 68.0 23.8 67.85 M28.7 70.2 Q27.6 69.55 26.9 69.6 L28.55 68.9 28.9 68.7 27.6 68.5 28.75 67.4 28.85 67.35 28.9 67.3 29.25 67.2 29.65 67.25 30.0 67.4 30.35 67.55 30.4 67.65 30.45 67.65 Q30.15 68.65 29.65 69.25 L28.7 70.2 M27.7 72.65 L29.25 71.4 30.3 70.45 Q30.55 70.9 30.25 71.35 L29.35 72.45 27.7 74.15 Q26.9 74.85 25.95 75.15 L27.0 73.9 27.35 73.3 25.65 74.1 24.4 74.35 25.55 73.85 26.1 73.55 27.7 72.65 M27.5 80.05 L27.9 79.45 27.95 79.3 27.95 79.2 Q28.0 78.05 28.75 78.85 L28.8 79.2 Q28.55 80.1 27.7 80.65 L26.65 80.95 27.45 80.1 27.5 80.05 M26.75 83.3 Q28.1 83.3 27.45 84.8 L26.5 85.85 26.4 85.75 27.0 85.0 Q27.6 84.2 26.75 83.3" fill="#8aef89" fill-rule="evenodd" stroke="none"/>
    <path d="M22.85 59.85 L23.6 59.25 24.45 59.1 24.5 59.1 Q25.4 59.1 26.2 59.55 L27.55 60.85 28.55 62.55 Q29.05 63.45 29.15 64.45 29.2 65.4 28.85 66.2 L27.8 67.85 27.35 68.25 26.35 69.0 24.65 69.95 23.0 70.4 21.4 70.55 19.45 70.55 21.05 70.15 22.6 69.15 23.0 68.75 23.2 68.6 23.75 67.95 23.8 67.85 23.95 68.0 24.7 67.35 25.9 66.0 Q26.5 65.2 26.75 64.2 L27.0 62.9 26.3 64.0 25.2 65.2 25.15 65.3 25.1 65.35 24.95 65.45 24.9 65.5 24.55 65.75 23.15 66.25 22.5 66.25 24.05 65.2 25.35 63.9 Q25.95 63.05 26.05 62.05 26.15 60.95 25.45 60.3 L25.2 60.15 25.15 60.1 23.7 59.7 23.2 59.75 22.85 59.85 M30.45 67.65 Q31.6 68.5 31.75 70.4 31.95 72.45 30.65 74.0 L27.65 76.5 Q25.95 77.4 24.15 77.95 L20.3 78.55 17.45 78.3 Q19.35 78.1 21.05 77.05 22.15 76.35 22.7 75.35 L22.6 75.25 Q20.75 74.6 19.3 73.4 18.95 73.05 18.95 72.55 L20.1 72.8 21.05 72.95 21.4 72.95 23.05 72.85 25.0 72.45 26.75 71.75 28.3 70.6 28.7 70.2 29.65 69.25 Q30.15 68.65 30.45 67.65 M27.7 72.65 L26.1 73.55 25.55 73.85 24.4 74.35 25.65 74.1 27.35 73.3 27.0 73.9 25.95 75.15 Q26.9 74.85 27.7 74.15 L29.35 72.45 30.25 71.35 Q30.55 70.9 30.3 70.45 L29.25 71.4 27.7 72.65 M26.7 78.6 Q27.2 76.95 28.75 77.8 L28.8 77.8 28.9 78.05 Q29.75 79.65 28.1 80.8 26.65 81.85 24.9 81.9 L24.7 81.9 22.7 81.9 Q24.35 81.6 25.8 80.9 L27.25 79.9 Q27.6 79.35 27.25 78.85 27.1 78.6 26.7 78.6 M27.5 80.05 L27.45 80.1 26.65 80.95 27.7 80.65 Q28.55 80.1 28.8 79.2 L28.75 78.85 Q28.0 78.05 27.95 79.2 L27.95 79.3 27.9 79.45 27.5 80.05 M26.4 85.75 L26.1 86.1 24.6 86.6 Q25.75 85.6 25.85 83.4 L26.75 83.3 Q27.6 84.2 27.0 85.0 L26.4 85.75" fill="#c4f7c4" fill-rule="evenodd" stroke="none"/>
    <path d="M14.1 83.85 L14.3 84.0 14.4 83.95 Q13.45 80.3 14.55 79.0 15.65 77.7 16.65 77.2 15.95 81.85 17.9 83.15 18.3 83.4 20.05 81.6 L19.5 83.3 Q19.05 85.3 20.3 85.6 L22.35 86.1 22.35 86.15 Q21.45 86.15 22.2 86.6 L23.2 87.0 23.2 87.2 19.95 87.0 16.15 86.35 Q14.3 85.95 13.65 84.65 13.25 83.95 13.5 83.35 L14.1 83.85 M34.7 78.45 L33.9 77.3 Q35.5 77.8 36.5 79.7 37.45 81.5 37.25 83.25 L37.4 83.4 38.1 82.8 38.6 81.85 38.6 81.9 38.65 81.95 Q39.05 84.0 37.25 85.3 35.45 86.6 33.5 86.8 L29.9 87.2 Q28.3 87.4 27.0 86.6 L27.0 86.55 28.4 86.4 29.9 85.9 30.95 85.0 30.75 84.85 30.55 84.85 30.5 84.8 32.2 83.65 Q33.15 82.8 31.85 79.6 L32.0 79.25 Q32.2 80.9 33.65 81.95 34.75 81.35 35.2 80.55 35.75 79.85 34.7 78.45" fill="#defbdd" fill-rule="evenodd" stroke="none"/>
    <path d="M37.9 30.0 L40.6 30.45 41.1 30.6 41.9 32.65 42.4 34.55 42.7 36.3 Q42.95 38.3 43.7 39.75 L40.5 38.05 40.0 37.75 Q39.5 38.6 39.25 40.2 L39.15 37.6 38.6 33.85 38.3 31.9 37.9 30.05 37.9 30.0 M30.25 30.2 L32.35 30.45 33.7 30.3 33.75 31.05 34.25 34.75 34.9 38.45 Q35.2 40.3 35.15 42.1 34.3 40.7 32.4 39.55 31.1 40.7 30.3 42.0 L30.0 39.45 Q29.6 37.5 29.8 35.65 L30.05 31.75 30.25 30.2" fill="#dcfada" fill-rule="evenodd" stroke="none"/>
    <path d="M41.1 30.6 L40.6 30.45 37.9 30.0 37.3 28.2 36.5 26.6 35.35 25.45 35.4 23.75 Q37.1 24.8 38.15 26.25 L39.15 27.7 40.25 29.25 41.1 30.6 M33.0 21.25 L33.75 21.1 33.85 21.7 Q34.35 23.55 34.1 25.55 L33.85 27.3 Q33.6 28.8 33.7 30.3 L32.35 30.45 30.25 30.2 Q30.45 29.15 30.9 28.2 L32.45 25.0 Q33.3 23.25 33.0 21.25" fill="#a9f3a3" fill-rule="evenodd" stroke="none"/>
    <path d="M36.6 30.0 L36.65 30.55 36.7 31.2 36.7 31.65 35.7 31.8 35.45 30.75 35.35 30.25 Q35.05 28.9 35.15 27.55 36.1 28.25 36.4 29.1 L36.6 30.0 M43.5 28.8 L43.2 29.15 42.1 29.9 40.35 27.4 40.05 27.1 37.6 24.6 Q37.75 23.35 37.25 22.45 39.65 25.9 43.5 28.8 M47.65 39.7 Q50.95 53.5 53.85 82.65 L53.9 83.55 Q53.7 86.75 46.25 89.05 38.6 91.45 27.8 91.45 L25.35 91.45 Q30.25 90.1 33.65 88.65 37.2 87.1 41.0 86.1 44.6 85.1 47.2 82.2 48.8 80.45 48.55 77.35 48.2 73.65 48.25 69.95 48.3 66.0 47.7 62.15 47.1 58.4 47.2 54.55 L47.55 47.55 Q47.85 43.55 47.65 39.7 M28.55 32.45 L28.5 32.45 27.8 32.55 25.8 32.5 18.6 31.55 17.5 31.25 17.35 31.2 20.8 31.35 24.6 31.15 28.7 30.5 28.55 31.65 28.55 32.45 M12.85 78.9 Q17.2 77.7 21.2 77.65 L28.8 77.6 Q32.65 77.6 36.35 78.45 37.2 78.65 38.0 79.15 L31.4 78.85 23.6 79.05 Q19.5 79.35 16.4 81.6 L15.85 81.25 12.85 78.9 M11.65 84.95 Q12.0 86.7 15.2 88.1 L11.65 87.5 8.15 86.25 4.85 84.55 Q3.05 83.6 4.45 82.2 4.75 81.95 5.1 81.9 5.6 81.8 5.65 81.0 L5.75 81.15 5.9 81.4 6.3 82.05 7.9 83.35 Q9.3 84.35 11.05 84.8 L11.65 84.95" fill="#5a94cc" fill-opacity="0.6" fill-rule="evenodd" stroke="none"/>
    <path d="M36.7 31.65 L37.4 37.8 Q38.05 41.65 39.6 44.35 39.95 42.25 41.0 40.55 L41.2 40.7 Q43.5 41.9 45.2 43.7 L45.6 44.15 45.6 43.7 45.2 39.95 Q44.5 36.2 43.4 32.95 L42.9 31.6 42.1 29.9 43.2 29.15 43.5 28.8 43.8 29.0 Q45.8 31.95 47.65 39.7 47.85 43.55 47.55 47.55 L47.2 54.55 Q47.1 58.4 47.7 62.15 48.3 66.0 48.25 69.95 48.2 73.65 48.55 77.35 48.8 80.45 47.2 82.2 44.6 85.1 41.0 86.1 37.2 87.1 33.65 88.65 30.25 90.1 25.35 91.45 L21.7 91.25 18.1 91.0 Q12.3 90.4 7.65 88.95 0.2 86.65 0.0 83.45 L0.1 82.55 Q4.6 37.05 10.1 28.9 L10.15 28.85 Q15.5 24.95 18.1 20.0 L18.3 19.6 18.3 19.65 19.25 20.05 19.3 20.75 23.05 21.75 23.1 21.75 24.35 22.0 24.9 22.1 Q26.7 22.35 29.1 22.05 L30.0 21.9 32.25 21.4 32.3 21.4 Q32.45 23.05 31.45 24.75 L29.6 27.95 29.1 29.05 28.7 30.5 24.6 31.15 20.8 31.35 17.35 31.2 17.5 31.25 18.6 31.55 25.8 32.5 27.8 32.55 28.5 32.45 28.55 32.45 28.55 35.45 28.75 39.05 28.9 42.95 29.0 45.05 31.9 42.75 33.1 41.85 35.4 44.75 35.9 45.75 36.1 45.75 Q36.45 44.25 36.4 42.35 L36.3 38.55 36.05 34.65 35.7 31.8 36.7 31.65 M13.95 29.1 Q17.5 30.2 20.0 27.2 21.35 25.55 20.5 23.55 20.2 22.95 19.55 23.55 16.45 26.3 13.95 27.7 13.8 28.1 13.8 28.55 13.8 29.05 13.95 29.1 M12.85 78.9 L11.85 77.25 Q10.6 75.3 10.4 72.75 10.1 69.45 10.5 66.15 L10.9 60.35 Q11.05 56.2 10.6 52.55 L9.75 55.85 7.55 63.15 Q6.4 66.8 5.75 70.55 5.1 74.1 5.55 77.75 L5.55 78.35 Q5.55 79.7 5.9 81.05 L5.65 81.0 Q5.6 81.8 5.1 81.9 4.75 81.95 4.45 82.2 3.05 83.6 4.85 84.55 L8.15 86.25 11.65 87.5 15.2 88.1 Q12.0 86.7 11.65 84.95 L17.4 86.2 23.4 85.95 22.3 85.0 16.4 81.6 Q19.5 79.35 23.6 79.05 L31.4 78.85 38.0 79.15 Q37.2 78.65 36.35 78.45 32.65 77.6 28.8 77.6 L21.2 77.65 Q17.2 77.7 12.85 78.9" fill="#5a94cc" fill-opacity="0.08235294" fill-rule="evenodd" stroke="none"/>
    <path d="M37.9 30.0 L37.9 30.05 38.3 31.9 38.6 33.85 39.15 37.6 39.25 40.2 Q39.5 38.6 40.0 37.75 L40.5 38.05 43.7 39.75 Q42.95 38.3 42.7 36.3 L42.4 34.55 41.9 32.65 41.1 30.6 Q42.1 30.95 42.9 31.6 L43.4 32.95 Q44.5 36.2 45.2 39.95 L45.6 43.7 45.2 43.7 Q43.5 41.9 41.2 40.7 L41.0 40.55 Q39.95 42.25 39.6 44.35 38.05 41.65 37.4 37.8 L36.7 31.65 36.7 31.2 36.65 30.55 36.6 30.0 37.9 30.0 M33.7 30.3 L35.35 30.25 35.45 30.75 35.7 31.8 36.05 34.65 36.3 38.55 36.4 42.35 Q36.45 44.25 36.1 45.75 L35.9 45.75 35.4 44.75 33.1 41.85 31.9 42.75 29.0 45.05 28.9 42.95 28.75 39.05 28.55 35.45 28.55 32.45 28.55 31.65 28.7 30.5 29.1 29.05 Q29.5 29.85 30.25 30.2 L30.05 31.75 29.8 35.65 Q29.6 37.5 30.0 39.45 L30.3 42.0 Q31.1 40.7 32.4 39.55 34.3 40.7 35.15 42.1 35.2 40.3 34.9 38.45 L34.25 34.75 33.75 31.05 33.7 30.3" fill="#24b717" fill-rule="evenodd" stroke="none"/>
    <path d="M41.1 30.6 L40.25 29.25 39.15 27.7 38.15 26.25 Q37.1 24.8 35.4 23.75 L35.35 25.45 36.5 26.6 37.3 28.2 37.9 30.0 36.6 30.0 36.4 29.1 Q36.1 28.25 35.15 27.55 35.05 28.9 35.35 30.25 L33.7 30.3 Q33.6 28.8 33.85 27.3 L34.1 25.55 Q34.35 23.55 33.85 21.7 L33.75 21.1 33.7 20.95 33.15 21.1 33.0 21.1 33.0 21.25 Q33.3 23.25 32.45 25.0 L30.9 28.2 Q30.45 29.15 30.25 30.2 29.5 29.85 29.1 29.05 L29.6 27.95 31.45 24.75 Q32.45 23.05 32.3 21.4 L32.25 21.4 32.25 21.15 32.1 21.15 32.05 21.0 32.05 20.65 Q24.85 21.85 19.25 20.05 L18.3 19.65 18.3 19.6 18.3 19.55 18.3 17.75 18.9 17.75 20.9 18.2 Q25.7 19.1 31.05 18.45 L31.55 18.35 31.7 18.15 Q32.15 17.9 32.65 17.8 L33.45 17.9 33.6 18.05 35.2 17.75 35.9 17.7 35.9 19.55 35.9 19.7 35.7 19.8 35.05 19.95 34.2 20.25 34.1 19.45 33.95 18.75 33.95 18.7 33.6 18.05 33.95 18.7 33.95 18.75 34.1 19.45 34.2 20.25 34.0 20.8 33.7 20.95 34.0 20.8 34.45 20.9 Q35.2 21.55 35.35 22.55 L37.6 24.6 40.05 27.1 40.35 27.4 42.1 29.9 42.9 31.6 Q42.1 30.95 41.1 30.6 M31.55 18.35 L31.6 18.55 31.75 19.15 32.05 20.65 31.75 19.15 31.6 18.55 31.55 18.35 M33.15 21.1 L33.5 20.4 33.95 18.7 33.5 20.4 33.15 21.1 M32.25 21.15 L33.0 21.1 32.25 21.15" fill="#1f9a14" fill-rule="evenodd" stroke="none"/>
    <path d="M45.2 43.7 L45.6 43.7 45.6 44.15 45.2 43.7" fill="#0d6fe6" fill-rule="evenodd" stroke="none"/>
    <path d="M15.6 1.25 L15.7 1.05 19.8 0.45 26.4 0.0 27.25 0.0 33.5 0.3 Q37.6 0.7 38.1 1.2 L38.1 1.25 33.9 1.65 33.65 1.65 32.15 1.15 28.65 0.7 23.1 0.8 22.25 0.9 22.25 1.05 22.2 1.1 20.65 1.25 Q20.2 1.4 19.55 1.9 L19.5 1.9 19.05 1.85 15.6 1.25 M30.6 2.15 L30.3 1.8 30.5 1.4 30.6 1.35 Q31.05 1.2 31.3 1.5 L31.3 1.55 31.35 1.6 31.3 1.75 31.25 1.75 31.1 2.05 Q30.85 1.8 31.1 2.1 L30.65 2.15 30.6 2.15 M22.15 2.25 L22.2 1.65 22.35 1.5 22.45 1.45 22.7 1.7 22.2 2.25 22.45 1.95 22.15 2.25" fill="#be6710" fill-rule="evenodd" stroke="none"/>
    <path d="M33.65 1.65 L33.9 1.65 Q34.25 2.2 34.65 6.85 34.8 7.9 34.6 8.75 L34.35 10.5 34.2 12.45 34.1 12.9 Q33.8 12.1 32.45 11.7 31.6 11.8 31.15 12.5 30.75 13.15 30.75 15.05 L20.85 14.65 Q20.85 13.15 19.9 12.7 L19.55 11.9 Q19.1 11.05 19.15 10.05 L19.15 8.25 18.9 6.85 18.85 6.05 18.9 5.8 19.05 1.85 19.5 1.9 19.55 1.9 22.15 2.25 22.45 1.95 22.2 2.25 26.55 2.3 30.6 2.15 30.65 2.15 31.1 2.1 Q30.85 1.8 31.1 2.05 L33.65 1.65 M33.55 8.3 L33.55 8.35 33.15 8.5 32.95 8.75 Q32.85 9.0 33.0 9.25 33.35 9.8 33.95 9.4 L34.1 9.15 34.15 8.95 34.1 8.65 33.95 8.5 33.8 8.4 33.55 8.3 M29.4 6.9 L29.55 6.6 Q29.45 6.3 29.1 6.3 L28.95 6.3 28.65 6.6 Q28.5 7.1 28.8 7.2 L29.2 7.2 29.4 6.9 M22.6 7.9 Q23.0 8.45 23.5 8.1 25.55 6.8 23.3 5.85 21.4 6.4 22.6 7.9 M22.2 12.05 L22.05 12.0 21.8 11.9 21.8 11.95 21.4 12.05 21.2 12.35 21.25 12.8 Q21.6 13.4 22.2 13.0 L22.35 12.75 22.4 12.55 22.35 12.25 22.2 12.05" fill="#f9dba4" fill-rule="evenodd" stroke="none"/>
    <path d="M31.1 2.05 L31.25 1.75 31.3 1.75 31.35 1.6 31.3 1.55 31.3 1.5 Q31.05 1.2 30.6 1.35 L30.5 1.4 30.3 1.8 30.6 2.15 26.55 2.3 22.2 2.25 22.7 1.7 22.45 1.45 22.35 1.5 22.2 1.65 22.15 2.25 19.55 1.9 Q20.2 1.4 20.65 1.25 L22.2 1.1 22.25 1.05 22.25 0.9 23.1 0.8 28.65 0.7 32.15 1.15 33.65 1.65 31.1 2.05" fill="#f1a850" fill-rule="evenodd" stroke="none"/>
    <path d="M18.25 14.75 L18.1 14.65 18.45 14.7 Q17.2 11.15 16.55 7.65 15.9 4.1 15.6 1.25 L19.05 1.85 18.9 5.8 18.85 6.05 18.9 6.85 19.15 8.25 19.15 10.05 Q19.1 11.05 19.55 11.9 L19.9 12.7 Q20.85 13.15 20.85 14.65 L30.75 15.05 Q30.75 13.15 31.15 12.5 31.6 11.8 32.45 11.7 33.8 12.1 34.1 12.9 L34.2 12.45 34.35 10.5 34.6 8.75 Q34.8 7.9 34.65 6.85 34.25 2.2 33.9 1.65 L38.1 1.25 35.35 14.65 35.9 14.6 35.6 14.65 35.7 14.65 35.3 14.75 35.3 14.8 35.2 14.8 Q27.75 16.2 20.8 15.05 L18.4 14.75 18.4 14.7 18.25 14.75 M33.55 8.3 L33.8 8.4 33.95 8.5 34.1 8.65 34.15 8.95 34.1 9.15 33.95 9.4 Q33.35 9.8 33.0 9.25 32.85 9.0 32.95 8.75 L33.15 8.5 33.55 8.35 33.55 8.3 M22.2 12.05 L22.35 12.25 22.4 12.55 22.35 12.75 22.2 13.0 Q21.6 13.4 21.25 12.8 L21.2 12.35 21.4 12.05 21.8 11.95 21.8 11.9 22.05 12.0 22.2 12.05 M22.6 7.9 Q21.4 6.4 23.3 5.85 25.55 6.8 23.5 8.1 23.0 8.45 22.6 7.9 M29.4 6.9 L29.2 7.2 28.8 7.2 Q28.5 7.1 28.65 6.6 L28.95 6.3 29.1 6.3 Q29.45 6.3 29.55 6.6 L29.4 6.9" fill="#f5c77c" fill-rule="evenodd" stroke="none"/>
    <path d="M24.9 22.1 L24.9 22.0 24.75 21.65 24.6 21.6 23.5 21.5 Q23.25 21.5 23.15 21.7 L23.1 21.75 23.05 21.75 19.3 20.75 19.25 20.05 Q24.85 21.85 32.05 20.65 L32.05 21.0 32.1 21.15 32.25 21.15 32.25 21.4 30.0 21.9 30.0 21.8 29.95 21.7 29.5 21.35 29.35 21.4 29.05 21.7 29.1 22.05 Q26.7 22.35 24.9 22.1 M34.2 20.25 L35.05 19.95 35.1 20.7 34.45 20.9 34.0 20.8 34.2 20.25" fill="#dcdbba" fill-rule="evenodd" stroke="none"/>
    <path d="M23.1 21.75 L23.15 21.7 Q23.25 21.5 23.5 21.5 L24.6 21.6 24.75 21.65 24.9 22.0 24.9 22.1 24.35 22.0 23.1 21.75 M29.1 22.05 L29.05 21.7 29.35 21.4 29.5 21.35 29.95 21.7 30.0 21.8 30.0 21.9 29.1 22.05" fill="#cccc99" fill-rule="evenodd" stroke="none"/>
    <path d="M18.3 17.75 L17.65 17.65 Q15.9 16.5 17.4 14.85 L18.25 14.75 18.4 14.7 18.4 14.75 18.9 17.75 18.3 17.75 M35.9 14.6 L35.9 14.55 35.95 14.6 Q37.8 15.25 36.3 17.6 L35.9 17.7 35.2 17.75 35.3 14.8 35.3 14.75 35.7 14.65 35.6 14.65 35.9 14.6 35.7 14.65 35.9 14.6 35.95 14.6 35.9 14.6" fill="#0265c6" fill-opacity="0.4" fill-rule="evenodd" stroke="none"/>
    <path d="M35.3 14.8 L35.2 17.75 33.6 18.05 33.45 17.9 32.65 17.8 Q32.15 17.9 31.7 18.15 L31.55 18.35 31.05 18.45 Q25.7 19.1 20.9 18.2 L18.9 17.75 18.4 14.75 20.8 15.05 Q27.75 16.2 35.2 14.8 L35.3 14.8" fill="#99c1e8" fill-rule="evenodd" stroke="none"/>
    <path d="M33.7 20.95 L33.75 21.1 33.0 21.25 33.0 21.1 33.15 21.1 33.7 20.95" fill="#0c5fc2" fill-rule="evenodd" stroke="none"/>
    <path d="M37.25 22.45 Q37.75 23.35 37.6 24.6 L35.35 22.55 Q35.2 21.55 34.45 20.9 L35.1 20.7 35.05 19.95 35.7 19.8 35.85 20.1 36.9 21.9 37.25 22.45" fill="#5a94cc" fill-opacity="0.16078432" fill-rule="evenodd" stroke="none"/>
    <path d="M35.9 19.55 L35.95 19.7 35.9 19.7 35.9 19.55" fill="#c60909" fill-rule="evenodd" stroke="none"/>
    <path d="M15.0 22.4 L14.75 22.45 14.2 22.6 Q14.55 22.2 15.0 22.4 M3.4 30.25 L3.45 32.8 3.4 32.9 3.4 30.25" fill="#0099ff" fill-opacity="0.101960786" fill-rule="evenodd" stroke="none"/>
    <path d="M5.9 81.05 Q5.55 79.7 5.55 78.35 L5.55 77.75 Q5.1 74.1 5.75 70.55 6.4 66.8 7.55 63.15 L9.75 55.85 10.6 52.55 Q11.05 56.2 10.9 60.35 L10.5 66.15 Q10.1 69.45 10.4 72.75 10.6 75.3 11.85 77.25 L12.85 78.9 15.85 81.25 16.4 81.6 22.3 85.0 23.4 85.95 17.4 86.2 11.65 84.95 11.05 84.8 Q9.3 84.35 7.9 83.35 L6.3 82.05 5.9 81.4 5.95 81.3 5.95 81.05 5.9 81.05" fill="#fafdfe" fill-rule="evenodd" stroke="none"/>
    <path d="M0.0 83.45 L0.0 83.25 0.1 82.55 0.0 83.45" fill="#e5f5ff" fill-rule="evenodd" stroke="none"/>
    <path d="M42.1 29.9 L43.2 29.15 43.5 28.8 Q39.65 25.9 37.25 22.45 37.75 23.35 37.6 24.6 M43.5 28.8 L43.8 29.0 Q45.8 31.95 47.65 39.7 50.95 53.5 53.85 82.65 L53.9 83.55 Q53.7 86.75 46.25 89.05 38.6 91.45 27.8 91.45 L25.35 91.45 21.7 91.25 18.1 91.0 Q12.3 90.4 7.65 88.95 0.2 86.65 0.0 83.45 L0.0 83.25 0.1 82.55 Q4.6 37.05 10.1 28.9 L10.15 28.85 Q15.5 24.95 18.1 20.0 L18.3 19.6 M35.7 19.8 L35.85 20.1 36.9 21.9 37.25 22.45 M25.35 91.45 Q30.25 90.1 33.65 88.65 37.2 87.1 41.0 86.1 44.6 85.1 47.2 82.2 48.8 80.45 48.55 77.35 48.2 73.65 48.25 69.95 48.3 66.0 47.7 62.15 47.1 58.4 47.2 54.55 L47.55 47.55 Q47.85 43.55 47.65 39.7 M28.55 32.45 L28.5 32.45 27.8 32.55 25.8 32.5 18.6 31.55 17.5 31.25 M17.35 31.2 L20.8 31.35 24.6 31.15 28.7 30.5 M36.7 31.65 L35.7 31.8 M0.1 82.55 L0.0 83.45" ffdec:has-small-stroke="true" ffdec:original-stroke-width="0.05" fill="none" stroke="#87b5e3" stroke-linecap="round" stroke-linejoin="round" stroke-width="1.0"/>
    <path d="M38.1 1.2 L38.1 1.25 35.35 14.65 M35.6 14.65 L35.7 14.65 35.3 14.75 35.3 14.8 35.2 14.8 Q27.75 16.2 20.8 15.05 L18.4 14.75" ffdec:has-small-stroke="true" ffdec:original-stroke-width="0.05" fill="none" stroke="#c08944" stroke-linecap="round" stroke-linejoin="round" stroke-width="1.0"/>
    <path d="M18.45 14.7 Q17.2 11.15 16.55 7.65 15.9 4.1 15.6 1.25 M15.7 1.05 L19.8 0.45 26.4 0.0 27.25 0.0 33.5 0.3 Q37.6 0.7 38.1 1.2" ffdec:has-small-stroke="true" ffdec:original-stroke-width="0.05" fill="none" stroke="#8b4b0c" stroke-linecap="round" stroke-linejoin="round" stroke-width="1.0"/>
    <path d="M24.9 22.1 Q26.7 22.35 29.1 22.05 L30.0 21.9 32.25 21.4 32.3 21.4 M19.25 20.05 L19.3 20.75 23.05 21.75 23.1 21.75 24.35 22.0 24.9 22.1 M34.45 20.9 L35.1 20.7 35.05 19.95" ffdec:has-small-stroke="true" ffdec:original-stroke-width="0.05" fill="none" stroke="#5797d7" stroke-linecap="round" stroke-linejoin="round" stroke-width="1.0"/>
    <path d="M35.9 14.6 L35.9 14.55 M35.7 14.65 L35.9 14.6 35.6 14.65 M35.3 14.8 L35.2 17.75 M35.9 14.6 L35.95 14.6 M18.4 14.75 L18.9 17.75 M18.4 14.7 L18.4 14.75" ffdec:has-small-stroke="true" ffdec:original-stroke-width="0.05" fill="none" stroke="#3f89d1" stroke-linecap="round" stroke-linejoin="round" stroke-width="1.0"/>
    <path d="M17.65 17.65 Q15.9 16.5 17.4 14.85 L18.25 14.75 18.4 14.7 M35.95 14.6 Q37.8 15.25 36.3 17.6 L35.9 17.7 35.2 17.75 33.6 18.05 M18.9 17.75 L20.9 18.2 Q25.7 19.1 31.05 18.45 L31.55 18.35 M18.9 17.75 L18.3 17.75" ffdec:has-small-stroke="true" ffdec:original-stroke-width="0.05" fill="none" stroke="#76aade" stroke-linecap="round" stroke-linejoin="round" stroke-width="1.0"/>
    <path d="M32.25 21.4 L32.25 21.15 32.1 21.15 32.05 21.0 32.05 20.65 31.75 19.15 31.6 18.55 31.55 18.35 31.7 18.15 Q32.15 17.9 32.65 17.8 L33.45 17.9 33.6 18.05 33.95 18.7 33.95 18.75 34.1 19.45 34.2 20.25 34.0 20.8 33.7 20.95 33.15 21.1 33.0 21.1 32.25 21.15 M33.95 18.7 L33.5 20.4 33.15 21.1 M34.45 20.9 L34.0 20.8" ffdec:has-small-stroke="true" ffdec:original-stroke-width="0.05" fill="none" stroke="#217911" stroke-linecap="round" stroke-linejoin="round" stroke-width="1.0"/>
    <path d="M18.3 19.6 L18.3 19.55 18.3 17.75 17.65 17.65 M15.6 1.25 L15.7 1.05 M35.9 17.7 L35.9 19.55 35.95 19.7 35.9 19.7 35.7 19.8 35.05 19.95 M19.25 20.05 L18.3 19.65 18.3 19.6" ffdec:has-small-stroke="true" ffdec:original-stroke-width="0.05" fill="none" stroke="#2b74bb" stroke-linecap="round" stroke-linejoin="round" stroke-width="1.0"/>
    <path d="M17.5 31.25 L17.35 31.2" ffdec:has-small-stroke="true" ffdec:original-stroke-width="0.05" fill="none" stroke="#3985d0" stroke-linecap="round" stroke-linejoin="round" stroke-opacity="0.7529412" stroke-width="1.0"/>
  </g>
</svg>
