<?xml version="1.0" encoding="UTF-8" standalone="no"?>
<svg xmlns:ffdec="https://www.free-decompiler.com/flash" xmlns:xlink="http://www.w3.org/1999/xlink" ffdec:objectType="shape" height="92.4px" width="81.7px" xmlns="http://www.w3.org/2000/svg">
  <g transform="matrix(1.0, 0.0, 0.0, 1.0, -279.15, -136.1)">
    <path d="M346.75 161.65 L343.65 172.6 338.15 161.45 329.25 162.2 337.6 156.55 334.7 144.9 341.35 152.2 352.3 141.45 348.6 151.95 360.85 159.4 346.75 161.65 M322.8 142.8 L326.25 149.15 319.4 146.7 315.25 150.85 315.7 144.45 311.6 142.55 316.7 142.1 318.4 136.1 319.45 141.05 327.05 138.95 322.8 142.8" fill="#ffffff" fill-opacity="0.4" fill-rule="evenodd" stroke="none"/>
    <path d="M321.45 154.7 L321.75 154.5 326.95 153.05 318.6 160.45 325.6 173.0 312.15 167.9 304.1 175.85 304.75 163.5 296.7 159.75 306.7 158.95 309.9 147.5 312.15 157.05 321.5 154.55 321.45 154.7" fill="#ffffff" fill-opacity="0.5019608" fill-rule="evenodd" stroke="none"/>
    <path d="M333.5 138.25 L333.5 138.3 329.3 138.7 329.05 138.7 327.55 138.2 324.05 137.75 318.5 137.85 317.65 137.95 317.65 138.1 317.6 138.15 316.05 138.3 Q315.6 138.45 314.95 138.95 L314.9 138.95 314.45 138.9 311.0 138.3 311.1 138.1 315.2 137.5 321.8 137.05 322.65 137.05 328.9 137.35 Q333.0 137.75 333.5 138.25 M326.0 139.2 L325.7 138.85 325.9 138.45 326.0 138.4 Q326.45 138.25 326.7 138.55 L326.7 138.6 326.75 138.65 326.7 138.8 326.65 138.8 326.5 139.1 Q326.25 138.85 326.5 139.15 L326.05 139.2 326.0 139.2 M317.6 139.3 L317.85 139.0 317.55 139.3 317.6 138.7 317.75 138.55 317.85 138.5 318.1 138.75 317.6 139.3" fill="#be6710" fill-rule="evenodd" stroke="none"/>
    <path d="M314.95 138.95 Q315.6 138.45 316.05 138.3 L317.6 138.15 317.65 138.1 317.65 137.95 318.5 137.85 324.05 137.75 327.55 138.2 329.05 138.7 326.5 139.1 326.65 138.8 326.7 138.8 326.75 138.65 326.7 138.6 326.7 138.55 Q326.45 138.25 326.0 138.4 L325.9 138.45 325.7 138.85 326.0 139.2 321.95 139.35 317.6 139.3 318.1 138.75 317.85 138.5 317.75 138.55 317.6 138.7 317.55 139.3 314.95 138.95" fill="#f1a850" fill-rule="evenodd" stroke="none"/>
    <path d="M314.45 138.9 L314.9 138.95 314.95 138.95 317.55 139.3 317.85 139.0 317.6 139.3 321.95 139.35 326.0 139.2 326.05 139.2 326.5 139.15 Q326.25 138.85 326.5 139.1 L329.05 138.7 329.3 138.7 Q329.65 139.25 330.05 143.9 330.2 144.95 330.0 145.8 L329.75 147.55 329.6 149.5 329.5 149.95 Q329.2 149.15 327.85 148.75 327.0 148.85 326.55 149.55 326.15 150.2 326.15 152.1 L316.25 151.7 Q316.25 150.2 315.3 149.75 L314.95 148.95 Q314.5 148.1 314.55 147.1 L314.55 145.3 314.3 143.9 314.25 143.1 314.3 142.85 314.45 138.9 M324.5 143.35 L324.35 143.35 324.05 143.65 Q323.9 144.15 324.2 144.25 L324.6 144.25 324.8 143.95 324.95 143.65 Q324.85 143.35 324.5 143.35 M328.95 145.35 L328.95 145.4 328.55 145.55 328.35 145.8 Q328.25 146.05 328.4 146.3 328.75 146.85 329.35 146.45 L329.5 146.2 329.55 146.0 329.5 145.7 329.35 145.55 329.2 145.45 328.95 145.35 M317.75 149.8 L317.8 149.6 317.75 149.3 317.6 149.1 317.45 149.05 317.2 148.95 317.2 149.0 316.8 149.1 316.6 149.4 316.65 149.85 Q317.0 150.45 317.6 150.05 L317.75 149.8 M318.0 144.95 Q318.4 145.5 318.9 145.15 320.95 143.85 318.7 142.9 316.8 143.45 318.0 144.95" fill="#f9dba4" fill-rule="evenodd" stroke="none"/>
    <path d="M311.0 138.3 L314.45 138.9 314.3 142.85 314.25 143.1 314.3 143.9 314.55 145.3 314.55 147.1 Q314.5 148.1 314.95 148.95 L315.3 149.75 Q316.25 150.2 316.25 151.7 L326.15 152.1 Q326.15 150.2 326.55 149.55 327.0 148.85 327.85 148.75 329.2 149.15 329.5 149.95 L329.6 149.5 329.75 147.55 330.0 145.8 Q330.2 144.95 330.05 143.9 329.65 139.25 329.3 138.7 L333.5 138.3 330.75 151.7 331.3 151.65 331.0 151.7 331.1 151.7 330.7 151.8 330.7 151.85 330.6 151.85 Q323.15 153.25 316.2 152.1 L313.8 151.8 313.8 151.75 313.65 151.8 313.5 151.7 313.85 151.75 Q312.6 148.2 311.95 144.7 311.3 141.15 311.0 138.3 M328.95 145.35 L329.2 145.45 329.35 145.55 329.5 145.7 329.55 146.0 329.5 146.2 329.35 146.45 Q328.75 146.85 328.4 146.3 328.25 146.05 328.35 145.8 L328.55 145.55 328.95 145.4 328.95 145.35 M324.5 143.35 Q324.85 143.35 324.95 143.65 L324.8 143.95 324.6 144.25 324.2 144.25 Q323.9 144.15 324.05 143.65 L324.35 143.35 324.5 143.35 M318.0 144.95 Q316.8 143.45 318.7 142.9 320.95 143.85 318.9 145.15 318.4 145.5 318.0 144.95 M317.75 149.8 L317.6 150.05 Q317.0 150.45 316.65 149.85 L316.6 149.4 316.8 149.1 317.2 149.0 317.2 148.95 317.45 149.05 317.6 149.1 317.75 149.3 317.8 149.6 317.75 149.8" fill="#f5c77c" fill-rule="evenodd" stroke="none"/>
    <path d="M309.6 159.65 Q309.95 159.25 310.4 159.45 L310.15 159.5 309.6 159.65 M298.8 169.95 L298.75 165.1 298.85 169.85 298.8 169.95" fill="#0099ff" fill-opacity="0.101960786" fill-rule="evenodd" stroke="none"/>
    <path d="M338.9 165.85 L339.2 166.05 Q341.2 169.0 343.05 176.75 343.25 180.6 342.95 184.6 342.7 188.1 342.6 191.6 342.5 195.45 343.1 199.2 343.7 203.05 343.65 207.0 343.6 210.7 343.95 214.4 344.2 217.5 342.6 219.25 340.0 222.15 336.4 223.15 332.6 224.15 329.05 225.7 325.65 227.15 320.75 228.5 L317.1 228.3 313.5 228.05 Q307.7 227.45 303.05 226.0 295.6 223.7 295.4 220.5 L295.5 219.6 Q300.0 174.1 305.5 165.95 L305.55 165.9 305.85 166.0 309.3 167.35 312.7 168.25 312.9 168.3 312.7 168.25 312.9 168.3 314.0 168.6 321.2 169.55 323.2 169.6 323.9 169.5 323.95 169.5 323.95 172.5 324.15 176.1 324.3 180.0 324.4 182.1 327.3 179.8 328.5 178.9 330.8 181.8 331.3 182.8 331.5 182.8 Q331.85 181.3 331.8 179.4 L331.7 175.6 331.45 171.7 331.1 168.85 332.1 168.7 332.8 174.85 Q333.45 178.7 335.0 181.4 335.35 179.3 336.4 177.6 L336.6 177.75 Q338.9 178.95 340.6 180.75 L341.0 181.2 341.0 180.75 340.6 177.0 Q339.9 173.25 338.8 170.0 L338.3 168.65 337.5 166.95 338.6 166.2 338.9 165.85 M311.8 218.65 Q314.9 216.4 319.0 216.1 L326.8 215.9 333.4 216.2 Q332.6 215.7 331.75 215.5 328.05 214.65 324.2 214.65 L316.6 214.7 Q312.6 214.75 308.25 215.95 L307.25 214.3 Q306.0 212.35 305.8 209.8 305.5 206.5 305.9 203.2 L306.3 197.4 Q306.45 193.25 306.0 189.6 L305.15 192.9 302.95 200.2 Q301.8 203.85 301.15 207.6 300.5 211.15 300.95 214.8 L300.95 215.4 Q300.95 216.75 301.3 218.1 L301.05 218.05 Q301.0 218.85 300.5 218.95 300.15 219.0 299.85 219.25 298.45 220.65 300.25 221.6 L303.55 223.3 307.05 224.55 310.6 225.15 Q307.4 223.75 307.05 222.0 L312.8 223.25 318.8 223.0 317.7 222.05 311.8 218.65" fill="#5a94cc" fill-opacity="0.08235294" fill-rule="evenodd" stroke="none"/>
    <path d="M331.1 156.85 L331.25 157.15 332.3 158.95 332.65 159.5 Q333.15 160.4 333.0 161.65 L330.75 159.6 Q330.6 158.6 329.85 157.95 L330.5 157.75 330.45 157.0 331.1 156.85 M305.55 165.9 Q310.9 162.0 313.5 157.05 L313.7 156.65 313.7 156.7 314.65 157.1 314.7 157.8 318.45 158.8 318.5 158.8 319.75 159.05 320.3 159.15 Q322.1 159.4 324.5 159.1 L325.4 158.95 327.65 158.45 327.7 158.45 Q327.85 160.1 326.85 161.8 L325.0 165.0 324.5 166.1 324.1 167.55 320.0 168.2 316.2 168.4 312.7 168.25 309.3 167.35 305.85 166.0 305.55 165.9 M315.9 160.6 Q315.6 160.0 314.95 160.6 311.85 163.35 309.35 164.75 309.2 165.15 309.2 165.6 309.2 166.1 309.35 166.15 312.9 167.25 315.4 164.25 316.75 162.6 315.9 160.6" fill="#5a94cc" fill-opacity="0.16078432" fill-rule="evenodd" stroke="none"/>
    <path d="M330.7 151.85 L330.6 154.8 329.0 155.1 328.85 154.95 328.05 154.85 327.1 155.2 326.95 155.4 326.45 155.5 Q321.1 156.15 316.3 155.25 L314.3 154.8 313.8 151.8 316.2 152.1 Q323.15 153.25 330.6 151.85 L330.7 151.85" fill="#99c1e8" fill-rule="evenodd" stroke="none"/>
    <path d="M325.4 158.95 L325.4 158.85 325.35 158.75 324.9 158.4 324.75 158.45 324.45 158.75 324.5 159.1 Q322.1 159.4 320.3 159.15 L320.3 159.05 320.15 158.7 320.0 158.65 318.9 158.55 Q318.65 158.55 318.55 158.75 L318.5 158.8 318.45 158.8 314.7 157.8 314.65 157.1 Q320.25 158.9 327.45 157.7 L327.45 158.05 327.5 158.2 327.65 158.2 327.65 158.45 325.4 158.95 M329.4 157.85 L329.6 157.3 330.45 157.0 330.5 157.75 329.85 157.95 329.4 157.85" fill="#dcdbba" fill-rule="evenodd" stroke="none"/>
    <path d="M325.4 158.95 L324.5 159.1 324.45 158.75 324.75 158.45 324.9 158.4 325.35 158.75 325.4 158.85 325.4 158.95 M320.3 159.15 L319.75 159.05 318.5 158.8 318.55 158.75 Q318.65 158.55 318.9 158.55 L320.0 158.65 320.15 158.7 320.3 159.05 320.3 159.15" fill="#cccc99" fill-rule="evenodd" stroke="none"/>
    <path d="M331.3 156.6 L331.35 156.75 331.3 156.75 331.3 156.6" fill="#c60909" fill-rule="evenodd" stroke="none"/>
    <path d="M331.3 151.65 L331.3 151.6 331.35 151.65 Q333.2 152.3 331.7 154.65 L331.3 154.75 330.6 154.8 330.7 151.85 330.7 151.8 331.1 151.7 331.0 151.7 331.3 151.65 331.1 151.7 331.3 151.65 331.35 151.65 331.3 151.65 M313.7 154.8 L313.05 154.7 Q311.3 153.55 312.8 151.9 L313.65 151.8 313.8 151.75 313.8 151.8 314.3 154.8 313.7 154.8" fill="#0265c6" fill-opacity="0.4" fill-rule="evenodd" stroke="none"/>
    <path d="M332.65 159.5 Q335.05 162.95 338.9 165.85 L338.6 166.2 337.5 166.95 335.75 164.45 335.45 164.15 333.0 161.65 Q333.15 160.4 332.65 159.5 M343.05 176.75 Q346.35 190.55 349.25 219.7 L349.3 220.6 Q349.1 223.8 341.65 226.1 334.0 228.5 323.2 228.5 L320.75 228.5 Q325.65 227.15 329.05 225.7 332.6 224.15 336.4 223.15 340.0 222.15 342.6 219.25 344.2 217.5 343.95 214.4 343.6 210.7 343.65 207.0 343.7 203.05 343.1 199.2 342.5 195.45 342.6 191.6 342.7 188.1 342.95 184.6 343.25 180.6 343.05 176.75 M330.75 167.3 Q330.45 165.95 330.55 164.6 331.5 165.3 331.8 166.15 L332.0 167.05 332.05 167.6 332.1 168.25 332.1 168.7 331.1 168.85 330.85 167.8 330.75 167.3 M323.95 169.5 L323.9 169.5 323.2 169.6 321.2 169.55 314.0 168.6 312.9 168.3 312.7 168.25 316.2 168.4 320.0 168.2 324.1 167.55 323.95 168.7 323.95 169.5 M308.25 215.95 Q312.6 214.75 316.6 214.7 L324.2 214.65 Q328.05 214.65 331.75 215.5 332.6 215.7 333.4 216.2 L326.8 215.9 319.0 216.1 Q314.9 216.4 311.8 218.65 L311.25 218.3 Q310.1 217.6 308.25 215.95 M307.05 222.0 Q307.4 223.75 310.6 225.15 L307.05 224.55 303.55 223.3 300.25 221.6 Q298.45 220.65 299.85 219.25 300.15 219.0 300.5 218.95 301.0 218.85 301.05 218.05 L301.15 218.2 301.3 218.45 301.7 219.1 303.3 220.4 Q304.7 221.4 306.45 221.85 L307.05 222.0" fill="#5a94cc" fill-opacity="0.6" fill-rule="evenodd" stroke="none"/>
    <path d="M333.3 167.1 L333.3 167.05 333.3 167.1" fill="#eabc31" fill-rule="evenodd" stroke="none"/>
    <path d="M311.8 218.65 L317.7 222.05 318.8 223.0 312.8 223.25 307.05 222.0 306.45 221.85 Q304.7 221.4 303.3 220.4 L301.7 219.1 301.3 218.45 301.35 218.35 301.35 218.1 301.3 218.1 Q300.95 216.75 300.95 215.4 L300.95 214.8 Q300.5 211.15 301.15 207.6 301.8 203.85 302.95 200.2 L305.15 192.9 306.0 189.6 Q306.45 193.25 306.3 197.4 L305.9 203.2 Q305.5 206.5 305.8 209.8 306.0 212.35 307.25 214.3 L308.25 215.95 Q310.1 217.6 311.25 218.3 L311.8 218.65" fill="#fafdfe" fill-rule="evenodd" stroke="none"/>
    <path d="M295.4 220.5 L295.4 220.3 295.5 219.6 295.4 220.5" fill="#e5f5ff" fill-rule="evenodd" stroke="none"/>
    <path d="M341.0 180.75 L341.0 181.2 340.6 180.75 341.0 180.75" fill="#0d6fe6" fill-rule="evenodd" stroke="none"/>
    <path d="M328.4 158.15 L328.55 158.15 329.1 158.0 329.15 158.15 328.4 158.3 328.4 158.15" fill="#0c5fc2" fill-rule="evenodd" stroke="none"/>
    <path d="M333.3 167.1 L333.3 167.05 333.35 167.05 333.3 167.1" fill="#dcfada" fill-rule="evenodd" stroke="none"/>
    <path d="M333.35 167.05 L336.0 167.5 336.5 167.65 337.3 169.7 337.8 171.6 338.1 173.35 Q338.35 175.35 339.1 176.8 L335.9 175.1 335.4 174.8 Q334.9 175.65 334.65 177.25 L334.55 174.65 334.0 170.9 333.7 168.95 333.3 167.1 333.35 167.05 M329.1 167.35 L329.15 168.1 329.65 171.8 330.3 175.5 330.55 179.15 Q329.7 177.75 327.8 176.6 326.5 177.75 325.7 179.05 L325.4 176.5 Q325.0 174.55 325.2 172.7 L325.45 168.8 325.65 167.25 327.75 167.5 329.1 167.35" fill="#ba8f2e" fill-rule="evenodd" stroke="none"/>
    <path d="M328.4 158.3 L329.15 158.15 329.25 158.75 Q329.75 160.6 329.5 162.6 L329.25 164.35 Q329.0 165.85 329.1 167.35 L327.75 167.5 325.65 167.25 Q325.85 166.2 326.3 165.25 L327.85 162.05 Q328.7 160.3 328.4 158.3 M333.3 167.05 L332.7 165.25 331.9 163.65 330.75 162.5 330.8 160.8 Q332.5 161.85 333.55 163.3 L334.55 164.75 335.65 166.3 336.5 167.65 336.0 167.5 333.35 167.05 333.3 167.05" fill="#a27d28" fill-rule="evenodd" stroke="none"/>
    <path d="M324.5 166.1 Q324.9 166.9 325.65 167.25 L325.45 168.8 325.2 172.7 Q325.0 174.55 325.4 176.5 L325.7 179.05 Q326.5 177.75 327.8 176.6 329.7 177.75 330.55 179.15 L330.3 175.5 329.65 171.8 329.15 168.1 329.1 167.35 330.75 167.3 330.85 167.8 331.1 168.85 331.45 171.7 331.7 175.6 331.8 179.4 Q331.85 181.3 331.5 182.8 L331.3 182.8 330.8 181.8 328.5 178.9 327.3 179.8 324.4 182.1 324.3 180.0 324.15 176.1 323.95 172.5 323.95 169.5 323.95 168.7 324.1 167.55 324.5 166.1 M332.0 167.05 L333.3 167.05 333.3 167.1 333.7 168.95 334.0 170.9 334.55 174.65 334.65 177.25 Q334.9 175.65 335.4 174.8 L335.9 175.1 339.1 176.8 Q338.35 175.35 338.1 173.35 L337.8 171.6 337.3 169.7 336.5 167.65 Q337.5 168.0 338.3 168.65 L338.8 170.0 Q339.9 173.25 340.6 177.0 L341.0 180.75 340.6 180.75 Q338.9 178.95 336.6 177.75 L336.4 177.6 Q335.35 179.3 335.0 181.4 333.45 178.7 332.8 174.85 L332.1 168.7 332.1 168.25 332.05 167.6 332.0 167.05" fill="#806320" fill-rule="evenodd" stroke="none"/>
    <path d="M331.3 154.75 L331.3 156.6 331.3 156.75 331.1 156.85 330.45 157.0 329.6 157.3 329.4 157.85 329.1 158.0 329.4 157.85 329.85 157.95 Q330.6 158.6 330.75 159.6 L333.0 161.65 335.45 164.15 335.75 164.45 337.5 166.95 338.3 168.65 Q337.5 168.0 336.5 167.65 L335.65 166.3 334.55 164.75 333.55 163.3 Q332.5 161.85 330.8 160.8 L330.75 162.5 331.9 163.65 332.7 165.25 333.3 167.05 332.0 167.05 331.8 166.15 Q331.5 165.3 330.55 164.6 330.45 165.95 330.75 167.3 L329.1 167.35 Q329.0 165.85 329.25 164.35 L329.5 162.6 Q329.75 160.6 329.25 158.75 L329.15 158.15 329.1 158.0 328.55 158.15 328.4 158.15 328.4 158.3 Q328.7 160.3 327.85 162.05 L326.3 165.25 Q325.85 166.2 325.65 167.25 324.9 166.9 324.5 166.1 L325.0 165.0 326.85 161.8 Q327.85 160.1 327.7 158.45 L327.65 158.45 327.65 158.2 327.5 158.2 327.45 158.05 327.45 157.7 Q320.25 158.9 314.65 157.1 L313.7 156.7 313.7 156.65 313.7 156.6 313.7 154.8 314.3 154.8 316.3 155.25 Q321.1 156.15 326.45 155.5 L326.95 155.4 327.1 155.2 328.05 154.85 328.85 154.95 329.0 155.1 330.6 154.8 331.3 154.75 M326.95 155.4 L327.0 155.6 327.15 156.2 327.45 157.7 327.15 156.2 327.0 155.6 326.95 155.4 M328.55 158.15 L328.9 157.45 329.35 155.75 329.35 155.8 329.5 156.5 329.6 157.3 329.5 156.5 329.35 155.8 329.35 155.75 328.9 157.45 328.55 158.15 M327.65 158.2 L328.4 158.15 327.65 158.2 M329.35 155.75 L329.0 155.1 329.35 155.75" fill="#68511a" fill-rule="evenodd" stroke="none"/>
    <path d="M333.5 138.25 Q333.0 137.75 328.9 137.35 L322.65 137.05 321.8 137.05 315.2 137.5 311.1 138.1 M313.85 151.75 Q312.6 148.2 311.95 144.7 311.3 141.15 311.0 138.3" ffdec:has-small-stroke="true" ffdec:original-stroke-width="0.05" fill="none" stroke="#8b4b0c" stroke-linecap="round" stroke-linejoin="round" stroke-width="1.0"/>
    <path d="M311.1 138.1 L311.0 138.3 M331.35 156.75 L331.3 156.75 331.1 156.85 330.45 157.0 M313.7 154.8 L313.05 154.7 M314.65 157.1 L313.7 156.7" ffdec:has-small-stroke="true" ffdec:original-stroke-width="0.05" fill="none" stroke="#2b74bb" stroke-linecap="round" stroke-linejoin="round" stroke-width="1.0"/>
    <path d="M331.1 156.85 L331.25 157.15 332.3 158.95 M332.65 159.5 Q335.05 162.95 338.9 165.85 L339.2 166.05 Q341.2 169.0 343.05 176.75 346.35 190.55 349.25 219.7 L349.3 220.6 Q349.1 223.8 341.65 226.1 334.0 228.5 323.2 228.5 L320.75 228.5 317.1 228.3 313.5 228.05 Q307.7 227.45 303.05 226.0 295.6 223.7 295.4 220.5 L295.5 219.6 Q300.0 174.1 305.5 165.95 L305.55 165.9 Q310.9 162.0 313.5 157.05 L313.7 156.65" ffdec:has-small-stroke="true" ffdec:original-stroke-width="0.05" fill="none" stroke="#87b5e3" stroke-linecap="round" stroke-linejoin="round" stroke-width="1.0"/>
    <path d="M331.35 151.65 Q333.2 152.3 331.7 154.65 L331.3 154.75 330.6 154.8 329.0 155.1 M313.05 154.7 Q311.3 153.55 312.8 151.9 L313.65 151.8 313.8 151.75 M314.3 154.8 L316.3 155.25 Q321.1 156.15 326.45 155.5 L326.95 155.4 M314.3 154.8 L313.7 154.8" ffdec:has-small-stroke="true" ffdec:original-stroke-width="0.05" fill="none" stroke="#76aade" stroke-linecap="round" stroke-linejoin="round" stroke-width="1.0"/>
    <path d="M324.5 159.1 L325.4 158.95 327.65 158.45 327.7 158.45 M324.5 159.1 Q322.1 159.4 320.3 159.15 L319.75 159.05 318.5 158.8 318.45 158.8 314.7 157.8 314.65 157.1 M329.85 157.95 L330.5 157.75 330.45 157.0" ffdec:has-small-stroke="true" ffdec:original-stroke-width="0.05" fill="none" stroke="#5797d7" stroke-linecap="round" stroke-linejoin="round" stroke-width="1.0"/>
    <path d="M331.3 154.75 L331.3 156.6 331.35 156.75 M313.7 156.65 L313.7 156.6 313.7 154.8 M313.7 156.7 L313.7 156.65" ffdec:has-small-stroke="true" ffdec:original-stroke-width="0.05" fill="none" stroke="#2b74bb" stroke-linecap="round" stroke-linejoin="round" stroke-width="1.0"/>
    <path d="M331.3 151.65 L331.3 151.6 M331.1 151.7 L331.3 151.65 331.0 151.7 M330.7 151.85 L330.6 154.8 M331.3 151.65 L331.35 151.65 M313.8 151.8 L314.3 154.8 M313.8 151.75 L313.8 151.8" ffdec:has-small-stroke="true" ffdec:original-stroke-width="0.05" fill="none" stroke="#3f89d1" stroke-linecap="round" stroke-linejoin="round" stroke-width="1.0"/>
    <path d="M333.5 138.3 L333.5 138.25 M333.5 138.3 L330.75 151.7 M331.0 151.7 L331.1 151.7 330.7 151.8 330.7 151.85 330.6 151.85 Q323.15 153.25 316.2 152.1 L313.8 151.8" ffdec:has-small-stroke="true" ffdec:original-stroke-width="0.05" fill="none" stroke="#c08944" stroke-linecap="round" stroke-linejoin="round" stroke-width="1.0"/>
    <path d="M332.3 158.95 L332.65 159.5 Q333.15 160.4 333.0 161.65 M295.4 220.5 L295.4 220.3 295.5 219.6 M323.95 169.5 L323.9 169.5 323.2 169.6 321.2 169.55 314.0 168.6 312.9 168.3 312.7 168.25 316.2 168.4 320.0 168.2 324.1 167.55 M332.1 168.7 L331.1 168.85 M337.5 166.95 L338.6 166.2 338.9 165.85 M320.75 228.5 Q325.65 227.15 329.05 225.7 332.6 224.15 336.4 223.15 340.0 222.15 342.6 219.25 344.2 217.5 343.95 214.4 343.6 210.7 343.65 207.0 343.7 203.05 343.1 199.2 342.5 195.45 342.6 191.6 342.7 188.1 342.95 184.6 343.25 180.6 343.05 176.75" ffdec:has-small-stroke="true" ffdec:original-stroke-width="0.05" fill="none" stroke="#87b5e3" stroke-linecap="round" stroke-linejoin="round" stroke-width="1.0"/>
    <path d="M312.9 168.3 L312.7 168.25" ffdec:has-small-stroke="true" ffdec:original-stroke-width="0.05" fill="none" stroke="#3985d0" stroke-linecap="round" stroke-linejoin="round" stroke-opacity="0.7529412" stroke-width="1.0"/>
    <path d="M326.95 155.4 L327.1 155.2 328.05 154.85 328.85 154.95 329.0 155.1 329.35 155.75 328.9 157.45 328.55 158.15 328.4 158.15 327.65 158.2 327.5 158.2 327.45 158.05 327.45 157.7 327.15 156.2 327.0 155.6 326.95 155.4 M329.1 158.0 L328.55 158.15 M329.1 158.0 L329.4 157.85 329.6 157.3 329.5 156.5 329.35 155.8 329.35 155.75 M327.65 158.45 L327.65 158.2 M329.4 157.85 L329.85 157.95" ffdec:has-small-stroke="true" ffdec:original-stroke-width="0.05" fill="none" stroke="#000000" stroke-linecap="round" stroke-linejoin="round" stroke-opacity="0.3019608" stroke-width="1.0"/>
    <path d="M329.2 174.2 L326.1 185.15 320.6 174.0 311.7 174.75 320.05 169.1 317.15 157.45 323.8 164.75 334.75 154.0 331.05 164.5 343.3 171.95 329.2 174.2 M305.25 155.35 L308.7 161.7 301.85 159.25 297.7 163.4 298.15 157.0 294.05 155.1 299.15 154.65 300.85 148.65 301.9 153.6 309.5 151.5 305.25 155.35" fill="#ffffff" fill-opacity="0.4" fill-rule="evenodd" stroke="none"/>
    <path d="M303.9 167.25 L304.2 167.05 309.4 165.6 301.05 173.0 308.05 185.55 294.6 180.45 286.55 188.4 287.2 176.05 279.15 172.3 289.15 171.5 292.35 160.05 294.6 169.6 303.95 167.1 303.9 167.25" fill="#ffffff" fill-opacity="0.5019608" fill-rule="evenodd" stroke="none"/>
  </g>
</svg>
