<?xml version="1.0" encoding="UTF-8" standalone="no"?>
<svg xmlns:ffdec="https://www.free-decompiler.com/flash" xmlns:xlink="http://www.w3.org/1999/xlink" ffdec:objectType="shape" height="101.55px" width="120.85px" xmlns="http://www.w3.org/2000/svg">
  <g transform="matrix(1.0, 0.0, 0.0, 1.0, 0.5, -2.2)">
    <path d="M9.95 85.15 Q8.7 84.9 7.85 83.5 7.4 80.25 7.9 76.6 L6.2 77.5 6.05 74.3 6.1 71.25 Q6.25 68.45 6.85 65.25 7.75 59.75 9.55 55.5 L11.75 60.9 11.6 52.45 11.65 51.1 Q13.8 47.9 15.75 47.6 L17.95 48.3 Q19.5 49.7 20.15 53.9 L20.4 56.4 19.45 58.8 19.85 63.8 20.3 63.05 20.1 64.95 20.0 65.55 19.8 66.85 19.8 66.95 19.75 67.2 19.65 67.1 18.8 69.8 18.4 72.15 18.8 71.75 18.5 72.95 18.0 74.55 Q16.9 77.8 15.45 80.45 12.6 85.6 9.95 85.15" fill="#db8a04" fill-rule="evenodd" stroke="none"/>
    <path d="M18.0 74.55 L18.5 72.95 18.8 71.75 19.95 69.35 19.85 67.5 19.7 67.55 19.75 67.2 19.8 66.95 19.8 66.85 20.0 65.55 20.1 64.95 35.35 66.05 34.8 70.2 34.6 71.3 33.5 75.75 33.5 75.85 18.0 74.55" fill="#b87403" fill-rule="evenodd" stroke="none"/>
    <path d="M9.55 55.5 L9.85 54.7 9.9 54.8 10.25 55.0 Q11.25 54.0 11.6 52.45 L11.75 60.9 9.55 55.5 M28.15 85.2 L23.55 85.2 23.5 84.6 22.25 85.25 19.8 85.3 Q19.45 84.05 18.5 83.25 L18.2 83.3 Q17.55 84.1 17.3 85.25 L9.95 85.35 9.95 85.15 Q12.6 85.6 15.45 80.45 16.9 77.8 18.0 74.55 L33.5 75.85 Q32.45 79.05 31.05 81.55 29.8 83.85 28.55 84.9 L28.15 85.2" fill="#945e03" fill-rule="evenodd" stroke="none"/>
    <path d="M20.1 64.95 L20.3 63.05 22.3 59.55 35.55 62.8 35.55 64.0 35.35 66.05 20.1 64.95" fill="#c47b04" fill-rule="evenodd" stroke="none"/>
    <path d="M17.95 48.3 L24.85 50.55 24.95 52.3 Q25.3 51.45 25.85 50.95 L28.4 51.75 28.55 52.95 29.15 51.95 33.35 53.35 34.25 54.7 Q34.9 56.0 35.15 58.2 L35.55 62.8 22.3 59.55 22.65 59.0 21.05 55.05 20.4 56.4 20.15 53.9 Q19.5 49.7 17.95 48.3" fill="#ab6b03" fill-rule="evenodd" stroke="none"/>
    <path d="M28.55 85.25 L28.15 85.2 28.55 84.9 28.55 85.25" fill="#5e3402" fill-rule="evenodd" stroke="none"/>
    <path d="M18.8 71.75 L18.4 72.15 18.8 69.8 19.65 67.1 19.75 67.2 19.7 67.55 19.85 67.5 19.95 69.35 18.8 71.75 M20.3 63.05 L19.85 63.8 19.45 58.8 20.4 56.4 21.05 55.05 22.65 59.0 22.3 59.55 20.3 63.05" fill="#fcc787" fill-rule="evenodd" stroke="none"/>
    <path d="M48.1 75.85 L47.35 79.9 46.9 79.8 43.45 85.05 28.55 85.25 28.55 84.9 Q29.8 83.85 31.05 81.55 32.45 79.05 33.5 75.85 L33.5 75.75 48.1 75.85" fill="#5e3201" fill-opacity="0.8509804" fill-rule="evenodd" stroke="none"/>
    <path d="M35.15 58.2 L35.85 55.1 41.15 56.25 49.2 60.3 49.25 69.25 48.1 75.85 33.5 75.75 34.6 71.3 34.8 70.2 35.35 66.05 35.55 64.0 35.55 62.8 35.15 58.2" fill="#874802" fill-opacity="0.88235295" fill-rule="evenodd" stroke="none"/>
    <path d="M9.95 85.15 Q8.7 84.9 7.85 83.5 7.4 80.25 7.9 76.6 L6.2 77.5 6.05 74.3 6.1 71.25 Q6.25 68.45 6.85 65.25 7.75 59.75 9.55 55.5 L9.85 54.7 9.9 54.8 10.25 55.0 Q11.25 54.0 11.6 52.45 L11.65 51.1 Q13.8 47.9 15.75 47.6 L17.95 48.3 24.85 50.55 24.95 52.3 Q25.3 51.45 25.85 50.95 L28.4 51.75 28.55 52.95 29.15 51.95 33.35 53.35 34.25 54.7 Q34.9 56.0 35.15 58.2 M28.15 85.2 L23.55 85.2 23.5 84.6 22.25 85.25 19.8 85.3 Q19.45 84.05 18.5 83.25 L18.2 83.3 Q17.55 84.1 17.3 85.25 L9.95 85.35 9.95 85.15 M35.35 66.05 L35.55 64.0 35.55 62.8" fill="none" stroke="#663300" stroke-linecap="round" stroke-linejoin="round" stroke-width="1.0"/>
    <path d="M108.75 74.85 L108.45 79.05 106.85 79.05 Q107.5 80.3 107.75 82.0 L106.85 84.3 104.6 84.45 104.6 88.0 103.9 88.9 102.35 89.25 102.45 90.35 Q99.1 93.35 94.85 93.35 92.25 93.35 90.05 92.25 90.3 90.15 91.0 88.15 L90.8 88.35 Q89.4 89.6 88.6 91.45 86.65 90.15 84.95 87.9 83.1 85.45 82.1 82.5 L83.75 80.9 81.65 81.05 Q80.9 78.15 80.9 74.85 80.9 73.0 81.15 71.3 82.35 70.25 83.75 69.35 L83.7 69.2 81.95 67.65 Q82.45 66.05 83.2 64.6 84.15 64.2 85.25 63.95 L85.1 63.8 84.3 62.65 84.95 61.7 Q89.05 56.35 94.75 56.35 L95.2 61.15 95.3 61.15 Q95.85 58.85 95.8 56.4 100.95 56.8 104.65 61.7 106.05 63.55 107.0 65.7 104.6 66.45 102.5 67.75 L102.35 67.85 107.9 68.25 Q108.75 71.3 108.75 74.85 Z" ffdec:has-small-stroke="true" ffdec:original-stroke-width="0.05" fill="none" stroke="#90581a" stroke-linecap="round" stroke-linejoin="round" stroke-width="1.0"/>
    <path d="M85.15 22.75 Q96.85 14.15 105.3 4.8 79.15 36.1 80.15 37.7 L85.45 39.3 93.2 39.7 95.65 37.25 97.3 36.45 Q99.55 39.25 101.8 31.55 L102.05 30.55 Q106.35 32.35 106.35 34.8 106.35 37.5 101.1 39.4 95.9 41.35 88.55 41.35 81.2 41.35 75.95 39.4 70.75 37.5 70.75 34.8 70.75 32.1 75.95 30.15 78.75 29.15 87.55 20.25 L85.15 22.75 M92.4 19.65 L92.7 19.0 92.4 18.3 Q92.15 18.05 91.75 18.05 91.35 18.05 91.05 18.3 90.8 18.6 90.8 19.0 90.8 19.4 91.05 19.65 L91.75 19.95 92.4 19.65 M30.15 82.35 L30.4 81.85 30.15 81.3 29.65 81.1 29.1 81.3 28.9 81.85 29.1 82.35 29.65 82.6 30.15 82.35 M59.8 51.0 L54.7 57.35 51.65 61.3 49.75 63.75 49.7 63.75 Q49.2 63.75 48.85 64.05 48.55 64.4 48.55 64.9 L48.6 65.3 Q39.65 77.35 41.8 77.15 L41.75 77.55 Q41.75 79.35 43.0 80.6 44.25 81.85 47.6 80.35 L48.6 79.85 Q58.15 79.15 57.7 84.25 L50.4 85.75 Q45.6 86.9 40.8 88.5 L40.9 87.7 Q40.9 86.5 40.0 85.6 39.15 84.75 37.95 84.75 36.75 84.75 35.85 85.6 35.0 86.5 25.5 92.1 L19.95 95.3 Q15.15 97.95 13.45 98.6 11.9 99.1 21.65 99.75 L39.7 100.65 Q35.15 103.05 24.45 103.25 L4.4 102.2 14.0 93.95 14.05 93.9 17.6 90.75 14.05 93.9 14.0 93.95 0.0 96.2 17.6 90.75 17.8 90.6 18.15 90.3 Q31.55 78.25 40.95 68.2 L45.9 62.75 46.2 62.35 Q47.7 62.4 59.8 51.0 M56.2 73.7 Q58.0 72.0 60.15 70.0 L60.55 69.55 62.9 67.15 62.6 68.4 60.2 70.95 59.35 71.95 56.2 73.7 M38.2 79.4 L38.5 78.75 38.2 78.05 37.55 77.8 36.85 78.05 Q36.6 78.35 36.6 78.75 L36.85 79.4 Q37.15 79.7 37.55 79.7 L38.2 79.4 M39.1 80.0 Q38.6 80.0 38.1 80.45 L28.55 86.85 Q19.55 92.8 29.1 87.55 38.6 82.3 39.1 82.3 39.6 82.3 39.9 81.95 40.25 81.65 40.25 81.15 40.25 80.65 39.9 80.3 39.6 80.0 39.1 80.0 M60.85 74.2 L60.55 74.25 58.4 74.35 60.45 73.4 60.65 73.3 60.5 73.65 60.7 74.1 60.85 74.2 M46.7 83.45 Q46.3 83.45 46.0 83.7 45.75 84.0 45.75 84.4 L46.0 85.05 Q46.3 85.35 46.7 85.35 L47.35 85.05 47.65 84.4 47.35 83.7 Q47.1 83.45 46.7 83.45" fill="#ff99ca" fill-opacity="0.5803922" fill-rule="evenodd" stroke="none"/>
    <path d="M92.4 19.65 L91.75 19.95 91.05 19.65 Q90.8 19.4 90.8 19.0 90.8 18.6 91.05 18.3 91.35 18.05 91.75 18.05 92.15 18.05 92.4 18.3 L92.7 19.0 92.4 19.65 M30.15 82.35 L29.65 82.6 29.1 82.35 28.9 81.85 29.1 81.3 29.65 81.1 30.15 81.3 30.4 81.85 30.15 82.35 M38.2 79.4 L37.55 79.7 Q37.15 79.7 36.85 79.4 L36.6 78.75 Q36.6 78.35 36.85 78.05 L37.55 77.8 38.2 78.05 38.5 78.75 38.2 79.4 M57.3 50.9 L57.45 51.3 57.3 51.7 56.9 51.85 56.5 51.7 56.35 51.3 Q56.35 51.05 56.5 50.9 56.65 50.75 56.9 50.75 57.15 50.75 57.3 50.9 M60.65 73.3 L60.7 73.2 61.15 73.0 61.25 73.0 61.1 73.45 60.85 74.2 60.7 74.1 60.5 73.65 60.65 73.3 M46.7 83.45 Q47.1 83.45 47.35 83.7 L47.65 84.4 47.35 85.05 46.7 85.35 Q46.3 85.35 46.0 85.05 L45.75 84.4 Q45.75 84.0 46.0 83.7 46.3 83.45 46.7 83.45" fill="#ffffff" fill-rule="evenodd" stroke="none"/>
    <path d="M59.8 51.0 Q47.7 62.4 46.2 62.35 L51.0 56.55 Q54.55 52.0 57.0 48.0 L59.2 44.15 Q61.05 40.6 61.95 37.5 L62.15 36.65 67.3 43.6 Q66.3 44.1 64.8 45.6 L60.3 50.45 59.8 51.0 M57.7 84.25 Q58.15 79.15 48.6 79.85 L51.1 78.1 52.3 77.1 55.2 74.6 56.2 73.7 59.35 71.95 Q57.85 73.65 60.25 71.85 L60.3 71.85 62.05 70.45 66.65 66.65 70.6 63.0 75.2 58.55 75.55 59.55 74.25 60.85 73.4 61.7 67.65 66.95 Q67.25 67.3 67.05 67.95 L71.15 68.0 75.9 68.0 77.45 68.0 77.65 70.85 76.7 71.45 71.35 72.35 Q67.75 72.9 66.0 74.0 65.25 74.5 64.85 75.15 63.5 77.1 62.15 77.75 L64.95 78.7 68.8 80.1 75.4 82.9 63.15 83.5 62.65 83.55 57.7 84.25 M62.9 67.15 Q65.4 64.4 66.65 62.15 68.85 58.15 67.3 55.6 64.45 50.95 74.45 56.55 L66.7 64.25 62.6 68.4 62.9 67.15 M60.85 74.2 L61.1 73.45 61.25 73.0 61.15 73.0 60.7 73.2 60.65 73.3 60.45 73.4 58.4 74.35 60.55 74.25 60.85 74.2 M57.3 50.9 Q57.15 50.75 56.9 50.75 56.65 50.75 56.5 50.9 56.35 51.05 56.35 51.3 L56.5 51.7 56.9 51.85 57.3 51.7 57.45 51.3 57.3 50.9" fill="#d15791" fill-opacity="0.7019608" fill-rule="evenodd" stroke="none"/>
    <path d="M119.85 2.7 L114.45 7.05 M105.05 12.45 L96.0 26.2" fill="none" stroke="#6d4b23" stroke-linecap="round" stroke-linejoin="round" stroke-width="1.0"/>
    <path d="M48.6 79.85 L47.6 80.35 Q44.25 81.85 43.0 80.6 41.75 79.35 41.75 77.55 L41.8 77.15 Q39.65 77.35 48.6 65.3 L48.55 64.9 Q48.55 64.4 48.85 64.05 49.2 63.75 49.7 63.75 L49.75 63.75 51.65 61.3 54.7 57.35 59.8 51.0 60.3 50.45 64.8 45.6 Q66.3 44.1 67.3 43.6 L62.15 36.65 61.95 37.5 Q61.05 40.6 59.2 44.15 L57.0 48.0 Q54.55 52.0 51.0 56.55 L46.2 62.35 45.9 62.75 40.95 68.2 Q31.55 78.25 18.15 90.3 L17.8 90.6 17.6 90.75 14.05 93.9 14.0 93.95 4.4 102.2 24.45 103.25 Q35.15 103.05 39.7 100.65 L21.65 99.75 Q11.9 99.1 13.45 98.6 15.15 97.95 19.95 95.3 L25.5 92.1 Q35.0 86.5 35.85 85.6 36.75 84.75 37.95 84.75 39.15 84.75 40.0 85.6 40.9 86.5 40.9 87.7 L40.8 88.5 Q45.6 86.9 50.4 85.75 L57.7 84.25 62.65 83.55 63.15 83.5 75.4 82.9 68.8 80.1 64.95 78.7 62.15 77.75 Q63.5 77.1 64.85 75.15 65.25 74.5 66.0 74.0 67.75 72.9 71.35 72.35 L76.7 71.45 77.65 70.85 77.45 68.0 75.9 68.0 71.15 68.0 67.05 67.95 Q67.25 67.3 67.65 66.95 L73.4 61.7 74.25 60.85 75.55 59.55 75.2 58.55 70.6 63.0 66.65 66.65 62.05 70.45 60.3 71.85 60.25 71.85 Q57.85 73.65 59.35 71.95 L60.2 70.95 62.6 68.4 66.7 64.25 74.45 56.55 Q64.45 50.95 67.3 55.6 68.85 58.15 66.65 62.15 65.4 64.4 62.9 67.15 L60.55 69.55 60.15 70.0 Q58.0 72.0 56.2 73.7 L55.2 74.6 52.3 77.1 51.1 78.1 48.6 79.85 M39.1 80.0 Q39.6 80.0 39.9 80.3 40.25 80.65 40.25 81.15 40.25 81.65 39.9 81.95 39.6 82.3 39.1 82.3 38.6 82.3 29.1 87.55 19.55 92.8 28.55 86.85 L38.1 80.45 Q38.6 80.0 39.1 80.0 M17.6 90.75 L0.0 96.2 14.0 93.95" fill="none" stroke="#ff3395" stroke-linecap="round" stroke-linejoin="round" stroke-opacity="0.43137255" stroke-width="1.0"/>
    <path d="M80.5 31.7 L80.2 32.35 Q79.95 32.65 79.55 32.65 79.15 32.65 78.85 32.35 L78.6 31.7 Q78.6 31.3 78.85 31.0 L79.55 30.75 80.2 31.0 80.5 31.7" fill="#ffffff" fill-rule="evenodd" stroke="none"/>
  </g>
</svg>
