<?xml version="1.0" encoding="UTF-8" standalone="no"?>
<svg xmlns:ffdec="https://www.free-decompiler.com/flash" xmlns:xlink="http://www.w3.org/1999/xlink" ffdec:objectType="shape" height="48.15px" width="49.85px" xmlns="http://www.w3.org/2000/svg">
  <g transform="matrix(1.0, 0.0, 0.0, 1.0, -129.4, -30.05)">
    <path d="M177.15 35.05 Q177.95 37.9 175.4 43.05 174.25 45.4 172.9 46.35 171.35 47.4 167.9 48.1 L155.6 50.4 Q152.05 51.15 149.1 52.05 146.1 53.0 143.65 54.1 139.6 55.95 136.2 59.05 132.85 62.15 131.15 65.5 L131.15 65.55 Q129.35 69.25 130.1 72.2 131.0 75.6 134.9 77.3 137.45 78.45 138.9 76.15 L138.95 76.15 Q139.85 74.75 139.85 73.1 L139.65 72.6 139.15 72.4 138.65 72.6 138.45 73.1 Q138.45 74.35 137.75 75.4 136.95 76.65 135.45 76.0 132.2 74.6 131.45 71.85 130.85 69.35 132.4 66.15 134.05 63.05 137.15 60.1 140.4 57.15 144.25 55.35 146.45 54.35 149.1 53.5 152.15 52.55 155.9 51.75 L155.85 51.8 168.2 49.45 Q172.05 48.7 173.7 47.5 175.35 46.4 176.65 43.65 179.45 37.9 178.5 34.7 177.6 31.25 172.7 30.6 171.35 30.4 170.0 31.1 169.75 31.25 169.65 31.55 L169.7 32.05 170.15 32.4 170.65 32.35 Q171.55 31.9 172.5 32.0 176.35 32.5 177.15 35.05 Z" fill="none" stroke="#000000" stroke-linecap="round" stroke-linejoin="round" stroke-opacity="0.29803923" stroke-width="1.0"/>
    <path d="M149.1 52.05 Q152.05 51.15 155.6 50.4 L167.9 48.1 Q171.35 47.4 172.9 46.35 174.25 45.4 175.4 43.05 177.95 37.9 177.15 35.05 176.35 32.5 172.5 32.0 171.55 31.9 170.65 32.35 L170.15 32.4 169.7 32.05 169.65 31.55 Q169.75 31.25 170.0 31.1 171.35 30.4 172.7 30.6 177.6 31.25 178.5 34.7 179.45 37.9 176.65 43.65 175.35 46.4 173.7 47.5 172.05 48.7 168.2 49.45 L155.85 51.8 155.9 51.75 Q152.15 52.55 149.1 53.5 L149.1 52.05" fill="#96dbf7" fill-rule="evenodd" stroke="none"/>
    <path d="M149.1 52.05 L149.1 53.5 Q146.45 54.35 144.25 55.35 140.4 57.15 137.15 60.1 134.05 63.05 132.4 66.15 130.85 69.35 131.45 71.85 132.2 74.6 135.45 76.0 136.95 76.65 137.75 75.4 138.45 74.35 138.45 73.1 L138.65 72.6 139.15 72.4 139.65 72.6 139.85 73.1 Q139.85 74.75 138.95 76.15 L138.9 76.15 Q137.45 78.45 134.9 77.3 131.0 75.6 130.1 72.2 129.35 69.25 131.15 65.55 L131.15 65.5 Q132.85 62.15 136.2 59.05 139.6 55.95 143.65 54.1 146.1 53.0 149.1 52.05" fill="#ffffff" fill-rule="evenodd" stroke="none"/>
    <path d="M149.1 53.5 Q152.15 52.55 155.9 51.75 L155.85 51.8 168.2 49.45 Q172.05 48.7 173.7 47.5 175.35 46.4 176.65 43.65 179.45 37.9 178.5 34.7 177.6 31.25 172.7 30.6 171.35 30.4 170.0 31.1 169.75 31.25 169.65 31.55 L169.7 32.05 170.15 32.4 170.65 32.35 Q171.55 31.9 172.5 32.0 176.35 32.5 177.15 35.05 177.95 37.9 175.4 43.05 174.25 45.4 172.9 46.35 171.35 47.4 167.9 48.1 L155.6 50.4 Q152.05 51.15 149.1 52.05 146.1 53.0 143.65 54.1 139.6 55.95 136.2 59.05 132.85 62.15 131.15 65.5 L131.15 65.55 Q129.35 69.25 130.1 72.2 131.0 75.6 134.9 77.3 137.45 78.45 138.9 76.15 L138.95 76.15 Q139.85 74.75 139.85 73.1 L139.65 72.6 139.15 72.4 138.65 72.6 138.45 73.1 Q138.45 74.35 137.75 75.4 136.95 76.65 135.45 76.0 132.2 74.6 131.45 71.85 130.85 69.35 132.4 66.15 134.05 63.05 137.15 60.1 140.4 57.15 144.25 55.35 146.45 54.35 149.1 53.5 Z" ffdec:has-small-stroke="true" ffdec:original-stroke-width="0.1" fill="none" stroke="#000000" stroke-linecap="round" stroke-linejoin="round" stroke-opacity="0.4" stroke-width="1.0"/>
  </g>
</svg>
