<?xml version="1.0" encoding="UTF-8" standalone="no"?>
<svg xmlns:ffdec="https://www.free-decompiler.com/flash" xmlns:xlink="http://www.w3.org/1999/xlink" ffdec:objectType="shape" height="50.05px" width="47.75px" xmlns="http://www.w3.org/2000/svg">
  <g transform="matrix(1.0, 0.0, 0.0, 1.0, -379.55, -216.5)">
    <path d="M414.25 249.5 L413.2 250.25 397.7 233.95 396.95 228.15 396.65 227.85 396.2 227.25 391.25 221.8 391.25 221.65 Q391.85 217.9 387.65 217.0 L388.8 222.4 385.1 219.15 387.2 223.9 387.05 224.0 386.95 223.9 380.05 224.1 Q380.5 227.2 384.8 228.4 L387.5 228.3 386.6 229.65 390.3 234.25 396.6 235.1 411.4 251.55 410.9 251.9 407.85 257.2 408.1 258.75 426.8 266.05 420.5 249.15 414.25 249.5 Z" fill="none" stroke="#000000" stroke-linecap="round" stroke-linejoin="round" stroke-opacity="0.29803923" stroke-width="1.0"/>
    <path d="M414.25 251.35 L414.25 251.4 412.8 253.1 396.4 234.85 397.55 233.75 397.55 233.8 414.25 251.35" fill="#512d00" fill-rule="evenodd" stroke="none"/>
    <path d="M388.0 224.15 L388.25 224.15 388.1 224.25 388.0 224.15" fill="#de7a01" fill-rule="evenodd" stroke="none"/>
    <path d="M414.25 251.35 L397.55 233.8 397.55 233.75 M396.4 234.85 L412.8 253.1" ffdec:has-small-stroke="true" ffdec:original-stroke-width="0.1" fill="none" stroke="#000000" stroke-linecap="round" stroke-linejoin="round" stroke-opacity="0.4" stroke-width="1.0"/>
    <path d="M387.2 223.9 L385.1 219.15 388.8 222.4 387.65 217.0 Q391.85 217.9 391.25 221.65 L391.25 221.8 392.9 223.6 391.6 227.2 394.2 225.1 394.8 225.75 393.8 227.1 393.75 228.6 396.2 227.25 396.65 227.85 394.65 230.5 397.15 230.2 397.85 235.25 395.4 233.05 387.05 224.0 387.2 223.9 M390.25 224.5 Q391.0 223.05 391.25 221.8 391.0 223.05 390.25 224.5" fill="#3b3b3f" fill-rule="evenodd" stroke="none"/>
    <path d="M387.05 224.0 L395.4 233.05 397.85 235.25 390.3 234.25 386.6 229.65 387.5 228.3 384.8 228.4 Q380.5 227.2 380.05 224.1 L386.95 223.9 387.05 224.0 M397.15 230.2 L394.65 230.5 396.65 227.85 396.95 228.15 397.15 230.2 M396.2 227.25 L393.75 228.6 393.8 227.1 394.8 225.75 396.2 227.25 M394.2 225.1 L391.6 227.2 392.9 223.6 394.2 225.1" fill="#7c7c81" fill-rule="evenodd" stroke="none"/>
    <path d="M391.25 221.8 L391.25 221.65 Q391.85 217.9 387.65 217.0 L388.8 222.4 385.1 219.15 387.2 223.9 M387.05 224.0 L395.4 233.05 397.85 235.25 397.15 230.2 396.95 228.15 396.65 227.85 396.2 227.25 394.8 225.75 394.2 225.1 M392.9 223.6 L391.25 221.8 Q391.0 223.05 390.25 224.5 M397.85 235.25 L390.3 234.25 386.6 229.65 387.5 228.3 384.8 228.4 Q380.5 227.2 380.05 224.1 L386.95 223.9 387.05 224.0" ffdec:has-small-stroke="true" ffdec:original-stroke-width="0.1" fill="none" stroke="#000000" stroke-linecap="round" stroke-linejoin="round" stroke-opacity="0.4" stroke-width="1.0"/>
    <path d="M425.4 262.3 L426.8 266.05 407.85 257.2 410.9 251.9 411.85 252.5 419.6 258.0 419.75 258.1 414.25 249.5 417.35 249.35 425.4 262.3 M419.45 249.2 L420.5 249.15 421.0 250.5 419.45 249.2" fill="#cccccc" fill-rule="evenodd" stroke="none"/>
    <path d="M417.35 249.35 L419.45 249.2 421.0 250.5 425.4 262.3 417.35 249.35" fill="#eceaea" fill-rule="evenodd" stroke="none"/>
    <path d="M426.8 266.05 L408.1 258.75 407.85 257.2 426.8 266.05 M410.9 251.9 L414.25 249.5 419.75 258.1 419.6 258.0 411.85 252.5 410.9 251.9" fill="#999999" fill-rule="evenodd" stroke="none"/>
    <path d="M425.4 262.3 L426.8 266.05 408.1 258.75 407.85 257.2 410.9 251.9 414.25 249.5 417.35 249.35 419.45 249.2 420.5 249.15 421.0 250.5 425.4 262.3 M419.75 258.1 L419.6 258.0 411.85 252.5 410.9 251.9" ffdec:has-small-stroke="true" ffdec:original-stroke-width="0.1" fill="none" stroke="#000000" stroke-linecap="round" stroke-linejoin="round" stroke-opacity="0.4" stroke-width="1.0"/>
    <path d="M414.25 249.5 L419.75 258.1 M407.85 257.2 L426.8 266.05" ffdec:has-small-stroke="true" ffdec:original-stroke-width="0.05" fill="none" stroke="#666666" stroke-linecap="round" stroke-linejoin="round" stroke-opacity="0.5019608" stroke-width="1.0"/>
  </g>
</svg>
