<?xml version="1.0" encoding="UTF-8" standalone="no"?>
<svg xmlns:ffdec="https://www.free-decompiler.com/flash" xmlns:xlink="http://www.w3.org/1999/xlink" ffdec:objectType="shape" height="17.65px" width="29.1px" xmlns="http://www.w3.org/2000/svg">
  <g transform="matrix(1.0, 0.0, 0.0, 1.0, -285.0, -222.8)">
    <path d="M285.4 227.3 Q294.6 223.9 303.45 222.8 309.35 224.0 313.65 226.85 305.2 228.45 297.15 232.85 L297.1 232.8 Q291.35 228.45 285.4 227.3" fill="#a8e3dd" fill-opacity="0.53333336" fill-rule="evenodd" stroke="none"/>
    <path d="M296.9 240.4 Q291.5 239.05 285.7 235.1 284.55 231.0 285.35 227.35 L285.4 227.3 Q291.35 228.45 297.1 232.8 L297.1 232.85 Q298.1 236.3 296.95 240.4 L296.9 240.4" fill="#a8e3dd" fill-opacity="0.9019608" fill-rule="evenodd" stroke="none"/>
    <path d="M313.7 226.85 Q314.4 230.1 313.8 233.4 305.45 237.8 296.95 240.4 298.1 236.3 297.1 232.85 L297.15 232.85 Q305.2 228.45 313.65 226.85 L313.7 226.85" fill="#a8e3dd" fill-opacity="0.7137255" fill-rule="evenodd" stroke="none"/>
    <path d="M285.4 227.3 Q294.6 223.9 303.45 222.8 309.35 224.0 313.65 226.85 L313.7 226.85 Q314.4 230.1 313.8 233.4 305.45 237.8 296.95 240.4 L296.95 240.45 296.9 240.4 Q291.5 239.05 285.7 235.1 284.55 231.0 285.35 227.35 L285.35 227.3 285.4 227.3 Q291.35 228.45 297.1 232.8 L297.15 232.85 Q305.2 228.45 313.65 226.85 L313.7 226.85 M285.35 227.35 L285.4 227.3 M297.1 232.85 Q298.1 236.3 296.95 240.4 L296.9 240.4 M297.1 232.8 L297.1 232.85 297.15 232.85" ffdec:has-small-stroke="true" ffdec:original-stroke-width="0.05" fill="none" stroke="#000000" stroke-linecap="round" stroke-linejoin="round" stroke-opacity="0.3019608" stroke-width="1.0"/>
    <path d="M302.1 237.7 Q301.65 238.2 300.95 238.2 300.25 238.2 299.75 237.7 299.3 237.25 299.3 236.65 299.3 236.0 299.75 235.55 300.25 235.1 300.95 235.1 301.65 235.1 302.1 235.55 L302.65 236.65 302.1 237.7" fill="#ffffff" fill-rule="evenodd" stroke="none"/>
    <path d="M304.55 235.65 Q304.3 235.95 303.9 235.95 303.5 235.95 303.25 235.65 L303.0 235.1 303.25 234.5 Q303.5 234.25 303.9 234.25 L304.55 234.5 304.85 235.1 304.55 235.65" fill="#ffffff" fill-rule="evenodd" stroke="none"/>
    <path d="M292.6 227.15 L292.2 227.3 291.75 227.15 291.6 226.75 291.75 226.35 Q291.95 226.2 292.2 226.2 L292.6 226.35 292.8 226.75 292.6 227.15" fill="#ffffff" fill-rule="evenodd" stroke="none"/>
  </g>
</svg>
