<?xml version="1.0" encoding="UTF-8" standalone="no"?>
<svg xmlns:ffdec="https://www.free-decompiler.com/flash" xmlns:xlink="http://www.w3.org/1999/xlink" ffdec:objectType="shape" height="17.65px" width="29.1px" xmlns="http://www.w3.org/2000/svg">
  <g transform="matrix(1.0, 0.0, 0.0, 1.0, -285.0, -222.8)">
    <path d="M297.1 232.8 L297.1 232.85 Q298.1 236.3 296.95 240.4 L296.9 240.4 Q291.5 239.05 285.7 235.1 284.55 231.0 285.35 227.35 L285.4 227.3 Q291.35 228.45 297.1 232.8" fill="#30b85c" fill-rule="evenodd" stroke="none"/>
    <path d="M303.25 234.5 Q302.95 234.75 303.0 235.1 302.95 235.45 303.25 235.7 L303.9 235.95 304.55 235.7 304.85 235.1 304.55 234.5 303.9 234.25 Q303.5 234.25 303.25 234.5 M297.1 232.85 L297.15 232.85 Q305.2 228.45 313.65 226.85 L313.7 226.85 Q314.4 230.1 313.8 233.4 305.45 237.8 296.95 240.4 298.1 236.3 297.1 232.85 M302.1 237.7 L302.65 236.65 302.1 235.55 Q301.65 235.1 300.95 235.1 300.25 235.1 299.75 235.55 299.3 236.0 299.3 236.65 299.3 237.25 299.75 237.7 300.25 238.2 300.95 238.2 301.65 238.2 302.1 237.7" fill="#55d27d" fill-rule="evenodd" stroke="none"/>
    <path d="M297.15 232.85 L297.1 232.8 Q291.35 228.45 285.4 227.3 294.6 223.9 303.45 222.8 309.35 224.0 313.65 226.85 305.2 228.45 297.15 232.85 M292.2 227.3 L292.6 227.15 292.8 226.75 292.6 226.4 292.2 226.2 291.75 226.4 291.6 226.75 291.75 227.15 292.2 227.3" fill="#78dc99" fill-rule="evenodd" stroke="none"/>
    <path d="M303.25 234.5 Q303.5 234.25 303.9 234.25 L304.55 234.5 304.85 235.1 304.55 235.7 303.9 235.95 303.25 235.7 Q302.95 235.45 303.0 235.1 302.95 234.75 303.25 234.5 M292.2 227.3 L291.75 227.15 291.6 226.75 291.75 226.4 292.2 226.2 292.6 226.4 292.8 226.75 292.6 227.15 292.2 227.3 M302.1 237.7 Q301.65 238.2 300.95 238.2 300.25 238.2 299.75 237.7 299.3 237.25 299.3 236.65 299.3 236.0 299.75 235.55 300.25 235.1 300.95 235.1 301.65 235.1 302.1 235.55 L302.65 236.65 302.1 237.7" fill="#dcf5e4" fill-rule="evenodd" stroke="none"/>
    <path d="M297.1 232.8 L297.1 232.85 297.15 232.85 297.1 232.8 Q291.35 228.45 285.4 227.3 L285.35 227.35 Q284.55 231.0 285.7 235.1 291.5 239.05 296.9 240.4 L296.95 240.4 Q298.1 236.3 297.1 232.85 M285.4 227.3 L285.35 227.3 285.35 227.35 M296.95 240.4 L296.95 240.45 296.9 240.4 M285.4 227.3 Q294.6 223.9 303.45 222.8 309.35 224.0 313.65 226.85 L313.7 226.85 Q314.4 230.1 313.8 233.4 305.45 237.8 296.95 240.4 M313.65 226.85 L313.7 226.85 M297.15 232.85 Q305.2 228.45 313.65 226.85" ffdec:has-small-stroke="true" ffdec:original-stroke-width="0.05" fill="none" stroke="#000000" stroke-linecap="round" stroke-linejoin="round" stroke-opacity="0.3019608" stroke-width="1.0"/>
  </g>
</svg>
