<?xml version="1.0" encoding="UTF-8" standalone="no"?>
<svg xmlns:ffdec="https://www.free-decompiler.com/flash" xmlns:xlink="http://www.w3.org/1999/xlink" ffdec:objectType="shape" height="69.9px" width="60.1px" xmlns="http://www.w3.org/2000/svg">
  <g transform="matrix(1.0, 0.0, 0.0, 1.0, -238.65, -159.1)">
    <path d="M272.15 159.2 Q279.7 158.75 286.95 160.5 293.65 163.0 292.1 164.9 290.5 166.75 289.55 166.45 281.9 168.8 273.65 168.25 266.8 168.2 259.85 168.5 L250.5 168.15 Q249.2 167.8 249.0 166.6 L255.25 166.35 266.85 167.25 Q275.35 167.45 282.6 165.15 289.85 162.85 281.75 161.8 L270.3 161.15 Q270.6 159.5 272.15 159.2 M284.05 185.15 L273.8 184.65 273.4 184.35 Q271.5 180.5 271.85 176.0 L272.4 175.65 278.8 175.3 Q284.4 174.1 289.55 171.9 L290.25 171.9 291.75 177.15 291.8 177.35 291.95 178.0 Q290.5 177.2 288.35 177.0 284.7 178.05 284.05 181.65 283.65 183.6 284.05 185.15 M295.25 185.6 L296.2 187.35 294.65 187.65 294.4 187.6 Q295.05 186.7 295.25 185.6" fill="#d5dcfd" fill-rule="evenodd" stroke="none"/>
    <path d="M250.45 189.25 Q247.55 194.05 246.05 200.35 244.55 206.65 241.8 205.4 239.0 204.15 238.7 199.3 238.35 194.45 240.65 189.05 242.95 183.65 246.25 179.7 249.55 175.8 252.3 177.05 255.1 178.25 254.25 181.4 253.35 184.5 250.45 189.25 M272.4 175.65 L266.95 175.3 253.0 173.5 Q249.65 172.7 251.25 170.0 252.15 168.55 266.2 169.6 280.25 170.65 288.1 168.75 L290.05 168.25 Q290.55 169.3 290.35 170.9 L289.55 171.9 Q284.4 174.1 278.8 175.3 L272.4 175.65 M291.95 178.0 Q295.2 179.6 295.4 183.8 L295.25 185.6 Q295.05 186.7 294.4 187.6 L293.05 188.95 Q291.55 190.1 289.65 189.65 L289.45 189.65 Q284.9 188.45 284.05 185.15 283.65 183.6 284.05 181.65 284.7 178.05 288.35 177.0 290.5 177.2 291.95 178.0" fill="#ffffff" fill-opacity="0.7019608" fill-rule="evenodd" stroke="none"/>
    <path d="M294.65 187.65 Q296.5 190.1 297.85 194.9 299.2 199.85 298.5 205.05 297.75 210.25 294.85 216.0 291.95 221.75 286.2 225.1 283.05 226.95 280.85 227.2 279.0 228.6 276.4 228.65 L274.95 228.8 Q272.1 229.3 269.45 228.4 266.45 227.35 268.0 226.0 L268.45 225.65 266.6 226.0 260.2 225.7 Q259.0 225.45 259.4 224.35 259.7 223.65 260.5 223.75 265.25 224.0 269.75 222.75 L270.8 222.45 269.6 221.5 Q267.65 219.5 268.9 217.0 269.8 215.2 271.65 214.5 L272.45 214.4 272.65 214.0 273.6 212.4 Q276.6 205.85 274.75 198.85 273.75 195.15 271.1 192.2 270.65 192.2 270.55 191.8 270.15 190.4 271.65 190.15 L275.45 190.75 Q275.75 190.4 276.25 190.35 277.85 190.75 279.15 191.35 285.85 190.6 289.65 189.65 291.55 190.1 293.05 188.95 L294.4 187.6 294.65 187.65 M276.85 196.7 Q278.95 203.55 277.05 210.4 276.55 212.2 275.65 213.8 L277.5 213.85 Q279.55 212.2 280.6 209.8 L282.3 204.55 Q282.4 201.85 281.55 199.2 280.95 197.35 279.5 195.85 277.45 193.65 274.7 192.8 276.2 194.4 276.85 196.7 M290.6 190.9 Q290.1 191.1 289.9 191.6 289.05 193.85 291.9 193.9 292.3 193.9 292.55 193.6 294.3 191.3 291.25 190.75 L290.6 190.9 M284.7 197.55 Q286.45 202.5 285.75 207.75 284.85 214.45 280.85 219.95 L283.15 217.5 Q287.55 211.7 288.05 204.75 288.3 201.75 286.7 199.15 L285.6 197.1 Q284.65 195.95 283.4 194.95 284.2 196.1 284.7 197.55 M294.45 199.05 L295.4 199.15 Q297.4 197.95 295.15 197.05 293.25 197.55 294.45 199.05 M258.6 206.4 Q257.5 207.05 256.7 206.05 254.35 202.95 258.15 201.85 262.65 203.8 258.6 206.4 M256.9 207.1 Q261.9 208.65 259.4 213.4 258.55 215.1 256.65 215.25 251.2 215.65 251.95 211.55 251.6 210.55 252.65 209.5 253.7 207.55 256.2 207.25 L256.9 207.1" fill="#004f4f" fill-rule="evenodd" stroke="none"/>
    <path d="M290.6 190.9 L291.25 190.75 Q294.3 191.3 292.55 193.6 292.3 193.9 291.9 193.9 289.05 193.85 289.9 191.6 290.1 191.1 290.6 190.9 M294.45 199.05 Q293.25 197.55 295.15 197.05 297.4 197.95 295.4 199.15 L294.45 199.05" fill="#7f9898" fill-rule="evenodd" stroke="none"/>
  </g>
</svg>
