<?xml version="1.0" encoding="UTF-8" standalone="no"?>
<svg xmlns:ffdec="https://www.free-decompiler.com/flash" xmlns:xlink="http://www.w3.org/1999/xlink" ffdec:objectType="shape" height="31.8px" width="55.75px" xmlns="http://www.w3.org/2000/svg">
  <g transform="matrix(1.0, 0.0, 0.0, 1.0, 0.0, 0.0)">
    <path d="M50.5 6.2 L48.5 7.4 46.6 8.5 47.4 10.55 49.0 9.85 52.2 8.5 49.6 11.8 49.55 11.85 47.35 14.65 46.75 16.55 46.95 16.65 46.7 16.75 Q44.1 17.85 41.45 20.65 L41.25 20.6 41.2 20.95 40.95 21.2 41.1 21.35 40.8 22.75 41.9 22.95 41.75 22.95 34.7 23.55 33.5 21.55 30.15 22.85 30.15 22.15 30.15 19.2 26.8 19.15 29.0 15.15 29.65 11.95 30.6 10.7 29.55 9.85 29.35 9.7 26.5 7.15 30.65 6.0 26.5 7.15 29.35 9.7 Q27.85 12.85 25.25 15.5 20.55 20.4 16.25 21.45 L17.35 18.5 16.1 16.05 21.55 14.65 25.65 6.65 26.9 2.1 24.85 1.9 31.25 0.7 Q31.25 3.45 30.65 6.0 L34.1 5.05 36.55 3.3 44.75 6.9 50.5 6.2 M31.65 11.6 L30.6 10.7 31.65 11.6 M49.45 0.0 L48.0 5.05 45.7 5.05 49.45 0.0 M51.45 18.5 L51.4 18.9 48.3 16.6 49.4 15.65 49.45 15.2 51.45 18.5 M44.55 14.85 L47.55 11.4 46.1 11.1 47.4 10.55 46.1 11.1 47.55 11.4 44.55 14.85 44.45 14.75 39.55 11.45 Q36.6 13.2 36.35 17.2 L36.0 17.2 Q34.95 17.3 34.9 17.7 34.85 18.0 35.85 18.5 36.7 19.05 38.1 19.4 L40.55 19.6 Q41.5 19.6 41.55 19.25 41.6 18.95 41.0 18.5 43.45 18.5 45.75 17.1 L44.55 14.85 M30.5 16.65 L30.15 19.2 30.5 16.65 M46.1 11.1 L36.2 9.2 46.1 11.1" fill="#3f3e53" fill-rule="evenodd" stroke="none"/>
    <path d="M50.5 6.2 L44.75 6.9 36.55 3.3 36.6 3.25 39.4 3.05 43.7 4.7 49.45 0.0 45.7 5.05 48.0 5.05 52.55 5.05 50.5 6.2 M29.55 9.85 L30.6 10.7 29.65 11.95 29.0 15.15 26.8 19.15 23.55 19.1 28.1 13.3 29.55 9.85 M47.4 10.55 L46.6 8.5 48.5 7.4 49.0 9.85 47.4 10.55 M49.6 11.8 L50.9 15.0 Q51.75 16.55 51.45 18.5 L49.45 15.2 49.55 11.85 49.6 11.8 M20.85 1.45 L24.85 1.9 26.9 2.1 25.65 6.65 21.55 14.65 20.85 1.45 M41.0 18.5 Q41.6 18.95 41.55 19.25 41.5 19.6 40.55 19.6 L38.1 19.4 Q36.7 19.05 35.85 18.5 34.85 18.0 34.9 17.7 34.95 17.3 36.0 17.2 L36.35 17.2 38.35 17.55 40.75 18.35 41.0 18.5" fill="#626173" fill-rule="evenodd" stroke="none"/>
    <path d="M44.55 14.85 L45.75 17.1 Q43.45 18.5 41.0 18.5 L40.75 18.35 38.35 17.55 36.35 17.2 Q36.6 13.2 39.55 11.45 L44.45 14.75 44.55 14.85 M46.95 16.65 L46.75 16.55 47.35 14.65 49.55 11.85 49.45 15.2 49.4 15.65 48.3 16.6 47.95 16.35 46.95 16.65" fill="#d5d5df" fill-rule="evenodd" stroke="none"/>
    <path d="M51.4 18.9 L51.8 19.2 Q54.7 21.2 55.5 23.1 L46.7 16.75 46.95 16.65 47.95 16.35 48.3 16.6 51.4 18.9" fill="#6b6a7d" fill-rule="evenodd" stroke="none"/>
    <path d="M11.3 17.85 L8.85 19.05 Q3.45 19.85 0.0 19.2 2.6 17.15 7.75 14.85 4.45 13.8 2.0 12.1 4.4 9.95 10.85 9.05 8.5 7.1 6.6 4.65 8.2 2.6 13.25 3.2 L14.3 4.2 20.85 1.45 21.55 14.65 16.1 16.05 14.0 16.55 13.95 16.5 13.7 16.65 13.6 16.7 13.25 16.85 12.55 17.2 Q11.95 17.5 11.3 17.85 M10.85 9.05 L12.45 10.25 10.85 9.05 M11.3 5.5 L14.3 4.2 11.3 5.5 M11.95 13.1 Q9.65 13.95 7.75 14.85 9.65 13.95 11.95 13.1" fill="#524d62" fill-rule="evenodd" stroke="none"/>
    <path d="M36.55 3.3 L34.1 5.05 30.65 6.0 Q31.25 3.45 31.25 0.7 34.25 0.9 36.6 3.25 L36.55 3.3 M29.35 9.7 L29.55 9.85 28.1 13.3 23.55 19.1 26.8 19.15 30.15 19.2 30.15 22.15 26.15 24.85 26.15 24.9 26.1 24.85 26.0 24.9 23.3 24.85 22.2 25.4 21.35 25.55 19.4 24.4 15.8 22.3 15.1 23.35 Q14.15 22.75 13.5 21.3 L13.45 22.45 Q11.75 25.85 9.6 28.4 8.8 27.05 9.4 23.3 L8.45 25.45 Q5.4 29.25 2.5 31.8 2.55 30.9 3.1 29.55 6.15 26.7 9.45 22.85 L9.55 22.8 10.85 20.35 13.25 16.85 13.6 16.7 13.6 16.9 13.7 16.65 13.95 16.5 14.0 16.55 16.1 16.05 17.35 18.5 16.25 21.45 Q20.55 20.4 25.25 15.5 27.85 12.85 29.35 9.7 M5.3 24.85 L5.85 23.85 6.05 23.65 5.3 24.85 M9.4 23.3 L9.45 22.85 9.4 23.3 M15.8 22.3 L16.25 21.45 15.8 22.3 M12.65 18.75 Q12.95 20.25 13.5 21.3 12.95 20.25 12.65 18.75" fill="#292b36" fill-rule="evenodd" stroke="none"/>
    <path d="M3.1 29.55 L3.0 29.6 Q3.25 28.2 5.3 24.85 L6.05 23.65 6.9 22.3 11.3 17.85 Q11.95 17.5 12.55 17.2 L10.85 20.35 9.55 22.8 9.45 22.85 Q6.15 26.7 3.1 29.55" fill="#464354" fill-rule="evenodd" stroke="none"/>
    <path d="M26.2 24.9 L26.6 24.95 27.4 25.15 Q28.8 25.6 29.35 26.8 30.0 27.5 28.15 27.45 L28.35 27.9 Q29.05 28.9 24.4 28.15 L24.05 28.1 Q23.0 25.6 25.35 25.95 L25.3 25.3 Q25.4 24.9 26.1 24.9 L26.2 24.9 M28.15 27.45 Q27.55 26.35 25.35 25.95 27.55 26.35 28.15 27.45" fill="#ddd0c6" fill-rule="evenodd" stroke="none"/>
    <path d="M26.15 24.9 L26.2 24.9 26.1 24.9 Q25.4 24.9 25.3 25.3 L25.35 25.95 Q23.0 25.6 24.05 28.1 L24.4 28.15 24.2 28.25 20.7 27.3 20.25 25.7 20.35 25.7 20.3 25.65 19.4 24.4 21.35 25.55 22.2 25.4 23.3 24.85 26.0 24.9 26.1 24.85 26.15 24.9" fill="#83694b" fill-rule="evenodd" stroke="none"/>
    <path d="M55.5 23.1 L55.75 24.7 54.0 23.75 53.95 23.75 53.55 23.6 Q51.15 22.7 47.3 22.3 L41.1 21.35 40.95 21.2 41.2 20.95 41.45 20.65 Q44.1 17.85 46.7 16.75 L55.5 23.1" fill="#515364" fill-rule="evenodd" stroke="none"/>
    <path d="M53.55 23.6 L53.9 23.8 41.9 22.95 40.8 22.75 41.1 21.35 47.3 22.3 Q51.15 22.7 53.55 23.6 M41.2 20.95 L41.25 20.6 41.45 20.65 41.2 20.95" fill="#474a56" fill-rule="evenodd" stroke="none"/>
    <path d="M48.5 7.4 L50.5 6.2 52.55 5.05 48.0 5.05 49.45 0.0 43.7 4.7 39.4 3.05 36.6 3.25 36.55 3.3 34.1 5.05 30.65 6.0 26.5 7.15 29.35 9.7 29.55 9.85 30.6 10.7 31.65 11.6 M46.6 8.5 L48.5 7.4 49.0 9.85 M49.6 11.8 L50.9 15.0 Q51.75 16.55 51.45 18.5 L51.4 18.9 M53.9 23.8 L41.9 22.95 40.8 22.75 M34.7 23.55 L33.5 21.55 30.15 22.85 30.15 22.15 30.15 19.2 30.5 16.65 M29.55 9.85 L28.1 13.3 23.55 19.1 26.8 19.15 30.15 19.2" ffdec:has-small-stroke="true" ffdec:original-stroke-width="0.05" fill="none" stroke="#232330" stroke-linecap="round" stroke-linejoin="round" stroke-opacity="0.7019608" stroke-width="1.0"/>
    <path d="M49.0 9.85 L52.2 8.5 49.6 11.8 49.55 11.85 47.35 14.65 M49.0 9.85 L47.4 10.55 46.1 11.1 47.55 11.4 44.55 14.85 M36.2 9.2 L46.1 11.1" ffdec:has-small-stroke="true" ffdec:original-stroke-width="0.05" fill="none" stroke="#515364" stroke-linecap="round" stroke-linejoin="round" stroke-width="1.0"/>
    <path d="M44.55 14.85 L45.75 17.1 Q43.45 18.5 41.0 18.5 M36.35 17.2 Q36.6 13.2 39.55 11.45 M44.45 14.75 L44.55 14.85 M46.95 16.65 L46.75 16.55 47.35 14.65 M49.55 11.85 L49.45 15.2 49.4 15.65 48.3 16.6" ffdec:has-small-stroke="true" ffdec:original-stroke-width="0.05" fill="none" stroke="#b6b6b6" stroke-linecap="round" stroke-linejoin="round" stroke-width="1.0"/>
    <path d="M51.4 18.9 L51.8 19.2 Q54.7 21.2 55.5 23.1 M47.95 16.35 L48.3 16.6 51.4 18.9" ffdec:has-small-stroke="true" ffdec:original-stroke-width="0.05" fill="none" stroke="#5e6171" stroke-linecap="round" stroke-linejoin="round" stroke-width="1.0"/>
    <path d="M8.85 19.05 Q3.45 19.85 0.0 19.2 2.6 17.15 7.75 14.85 4.45 13.8 2.0 12.1 4.4 9.95 10.85 9.05 8.5 7.1 6.6 4.65 8.2 2.6 13.25 3.2 M14.3 4.2 L20.85 1.45 M14.3 4.2 L11.3 5.5 M12.45 10.25 L10.85 9.05 M14.0 16.55 L16.1 16.05 21.55 14.65 M7.75 14.85 Q9.65 13.95 11.95 13.1" ffdec:has-small-stroke="true" ffdec:original-stroke-width="0.05" fill="none" stroke="#3c3e48" stroke-linecap="round" stroke-linejoin="round" stroke-width="1.0"/>
    <path d="M30.15 22.15 L26.15 24.85 26.15 24.9 M19.4 24.4 L15.8 22.3 M24.85 1.9 L31.25 0.7 Q34.25 0.9 36.6 3.25 M21.35 25.55 L19.4 24.4" ffdec:has-small-stroke="true" ffdec:original-stroke-width="0.05" fill="none" stroke="#333333" stroke-linecap="round" stroke-linejoin="round" stroke-width="1.0"/>
    <path d="M20.85 1.45 L24.85 1.9 26.9 2.1 25.65 6.65 21.55 14.65" ffdec:has-small-stroke="true" ffdec:original-stroke-width="0.05" fill="none" stroke="#3c3e48" stroke-linecap="round" stroke-linejoin="round" stroke-width="1.0"/>
    <path d="M26.6 24.95 L27.4 25.15 Q28.8 25.6 29.35 26.8 30.0 27.5 28.15 27.45 L28.35 27.9 Q29.05 28.9 24.4 28.15 L24.05 28.1 M25.35 25.95 Q27.55 26.35 28.15 27.45" ffdec:has-small-stroke="true" ffdec:original-stroke-width="0.05" fill="none" stroke="#b69985" stroke-linecap="round" stroke-linejoin="round" stroke-width="1.0"/>
    <path d="M15.8 22.3 L15.1 23.35 Q14.15 22.75 13.5 21.3 12.95 20.25 12.65 18.75 M13.45 22.45 Q11.75 25.85 9.6 28.4 8.8 27.05 9.4 23.3 L9.45 22.85 M8.45 25.45 Q5.4 29.25 2.5 31.8 2.55 30.9 3.1 29.55 M5.3 24.85 L5.85 23.85 M17.35 18.5 L16.25 21.45 15.8 22.3" ffdec:has-small-stroke="true" ffdec:original-stroke-width="0.05" fill="none" stroke="#333333" stroke-linecap="round" stroke-linejoin="round" stroke-width="1.0"/>
    <path d="M55.5 23.1 L55.75 24.7 54.0 23.75 53.95 23.75 53.55 23.6 Q51.15 22.7 47.3 22.3 L41.1 21.35 40.95 21.2 41.2 20.95 41.45 20.65 Q44.1 17.85 46.7 16.75" ffdec:has-small-stroke="true" ffdec:original-stroke-width="0.05" fill="none" stroke="#5e6171" stroke-linecap="round" stroke-linejoin="round" stroke-width="1.0"/>
  </g>
</svg>
