<?xml version="1.0" encoding="UTF-8" standalone="no"?>
<svg xmlns:ffdec="https://www.free-decompiler.com/flash" xmlns:xlink="http://www.w3.org/1999/xlink" ffdec:objectType="shape" height="264.05px" width="293.65px" xmlns="http://www.w3.org/2000/svg">
  <g transform="matrix(1.0, 0.0, 0.0, 1.0, -119.6, -89.9)">
    <path d="M205.2 123.65 L193.4 89.9 209.95 107.05 213.15 130.6 205.6 123.45 205.2 123.65 M206.3 194.95 L172.5 141.25 223.7 172.7 214.45 141.3 239.0 168.45 255.65 118.25 264.05 152.9 277.85 104.85 288.35 159.6 328.35 163.1 305.2 187.6 355.6 186.5 312.5 212.0 413.25 246.75 323.25 261.85 327.25 289.0 300.4 267.8 298.55 306.8 266.05 270.45 255.05 311.6 237.5 278.6 218.85 306.35 213.5 292.55 192.8 296.4 207.25 278.05 157.85 267.05 200.55 248.85 119.6 198.0 206.3 194.95" fill="#dfc428" fill-rule="evenodd" stroke="none"/>
    <path d="M289.9 106.35 Q278.05 101.55 264.5 101.25 L267.25 100.7 Q273.75 99.65 280.1 101.55 285.05 103.05 289.9 106.35 M262.15 125.95 L265.45 109.6 Q271.3 114.2 277.65 113.3 L274.45 129.4 Q268.1 128.35 262.15 125.95 268.1 128.35 274.45 129.4 L272.45 139.15 Q266.15 138.15 260.2 135.4 L262.15 125.95" fill="#dd9986" fill-rule="evenodd" stroke="none"/>
    <path d="M289.9 106.35 Q292.8 108.3 295.65 110.95 L291.85 129.8 Q282.8 130.8 274.45 129.4 L277.65 113.3 Q271.3 114.2 265.45 109.6 L262.15 125.95 Q258.3 124.4 254.6 122.25 L258.45 103.4 Q261.45 102.0 264.5 101.25 278.05 101.55 289.9 106.35 M293.95 111.4 L270.3 109.9 Q277.65 112.7 285.75 112.75 291.0 112.4 293.95 111.4" fill="#d1775c" fill-rule="evenodd" stroke="none"/>
    <path d="M293.95 111.4 Q291.0 112.4 285.75 112.75 277.65 112.7 270.3 109.9 L293.95 111.4" fill="#cb6345" fill-rule="evenodd" stroke="none"/>
    <path d="M288.2 147.65 L287.3 152.15 290.45 158.7 290.4 200.75 279.0 232.5 Q262.3 223.95 244.3 221.9 L253.25 177.8 253.35 177.6 280.3 182.4 Q266.1 179.5 258.85 168.75 L270.55 149.8 271.0 147.35 271.7 147.5 Q279.7 148.75 288.2 147.65 M222.45 345.55 L196.6 338.4 189.75 324.0 221.7 168.65 249.45 144.05 250.65 139.4 Q254.05 141.55 257.6 143.15 L258.3 143.45 257.55 146.65 229.9 169.45 219.9 222.05 217.3 222.4 217.0 222.45 196.7 321.25 198.85 325.8 202.5 333.4 220.55 338.4 224.5 339.45 222.45 345.55" fill="#6abfe8" fill-rule="evenodd" stroke="none"/>
    <path d="M258.3 143.45 L260.2 135.4 Q266.15 138.15 272.45 139.15 L271.0 147.35 270.55 149.8 258.85 168.75 Q266.1 179.5 280.3 182.4 L253.35 177.6 253.25 177.8 244.3 221.9 Q232.35 220.55 219.9 222.05 L229.9 169.45 257.55 146.65 258.3 143.45" fill="#b6dff3" fill-rule="evenodd" stroke="none"/>
    <path d="M260.4 262.5 Q263.3 266.65 262.3 271.45 261.3 276.3 257.05 278.95 253.95 280.85 250.45 280.9 L247.6 280.6 243.8 279.25 Q241.3 277.85 239.6 275.4 236.65 271.25 237.65 266.45 238.6 261.6 242.9 258.95 247.2 256.3 252.35 257.35 257.45 258.35 260.4 262.5 M219.7 222.9 Q230.1 233.1 241.5 236.25 L220.55 338.4 202.5 333.4 198.85 325.8 219.7 222.9 M242.85 297.2 Q245.65 295.45 248.95 296.1 252.25 296.75 254.15 299.5 256.05 302.2 255.45 305.3 254.8 308.4 252.0 310.15 249.15 311.9 245.9 311.25 242.6 310.55 240.7 307.85 238.75 305.15 239.4 302.05 240.0 298.95 242.85 297.2 M253.15 321.15 Q254.3 321.4 254.95 322.35 255.6 323.25 255.4 324.4 255.2 325.5 254.2 326.1 253.2 326.7 252.05 326.5 250.85 326.25 250.2 325.3 249.55 324.35 249.75 323.25 249.95 322.15 250.95 321.55 251.95 320.9 253.15 321.15" fill="#fffff2" fill-rule="evenodd" stroke="none"/>
    <path d="M219.9 222.05 Q232.35 220.55 244.3 221.9 L241.5 236.25 Q230.1 233.1 219.7 222.9 L219.9 222.05" fill="#f5f9d2" fill-rule="evenodd" stroke="none"/>
    <path d="M290.0 138.8 L288.2 147.65 Q279.7 148.75 271.7 147.5 L271.0 147.35 272.45 139.15 Q280.9 140.55 290.0 138.8 M250.65 139.4 L252.8 131.25 Q256.4 133.7 260.2 135.4 L258.3 143.45 257.6 143.15 Q254.05 141.55 250.65 139.4" fill="#65b3c9" fill-rule="evenodd" stroke="none"/>
    <path d="M279.0 232.5 Q282.55 234.35 286.05 236.45 L286.05 236.5 Q264.65 241.25 241.5 236.25 L244.3 221.9 Q262.3 223.95 279.0 232.5 M219.9 222.05 L219.7 222.9 217.3 222.4 219.9 222.05" fill="#e9f198" fill-rule="evenodd" stroke="none"/>
    <path d="M290.45 158.7 L303.4 185.5 270.35 348.35 252.85 353.95 222.45 345.55 224.5 339.45 250.1 346.6 264.7 341.8 286.05 236.5 286.05 236.45 Q282.55 234.35 279.0 232.5 L290.4 200.75 290.45 158.7" fill="#3a84c0" fill-rule="evenodd" stroke="none"/>
    <path d="M254.6 122.25 Q258.3 124.4 262.15 125.95 L260.2 135.4 Q256.4 133.7 252.8 131.25 L254.6 122.25 M274.45 129.4 Q282.8 130.8 291.85 129.8 L290.0 138.8 Q280.9 140.55 272.45 139.15 L274.45 129.4" fill="#934128" fill-rule="evenodd" stroke="none"/>
    <path d="M241.5 236.25 Q264.65 241.25 286.05 236.5 L264.7 341.8 250.1 346.6 224.5 339.45 220.55 338.4 241.5 236.25 M260.4 262.5 Q257.45 258.35 252.35 257.35 247.2 256.3 242.9 258.95 238.6 261.6 237.65 266.45 236.65 271.25 239.6 275.4 241.3 277.85 243.8 279.25 L247.6 280.6 250.45 280.9 Q253.95 280.85 257.05 278.95 261.3 276.3 262.3 271.45 263.3 266.65 260.4 262.5 M217.3 222.4 L219.7 222.9 198.85 325.8 196.7 321.25 217.0 222.45 217.3 222.4 M253.15 321.15 Q251.95 320.9 250.95 321.55 249.95 322.15 249.75 323.25 249.55 324.35 250.2 325.3 250.85 326.25 252.05 326.5 253.2 326.7 254.2 326.1 255.2 325.5 255.4 324.4 255.6 323.25 254.95 322.35 254.3 321.4 253.15 321.15 M242.85 297.2 Q240.0 298.95 239.4 302.05 238.75 305.15 240.7 307.85 242.6 310.55 245.9 311.25 249.15 311.9 252.0 310.15 254.8 308.4 255.45 305.3 256.05 302.2 254.15 299.5 252.25 296.75 248.95 296.1 245.65 295.45 242.85 297.2" fill="#cdd661" fill-rule="evenodd" stroke="none"/>
    <path d="M291.85 129.8 L295.65 110.95 Q292.8 108.3 289.9 106.35 285.05 103.05 280.1 101.55 273.75 99.65 267.25 100.7 L264.5 101.25 Q261.45 102.0 258.45 103.4 L254.6 122.25 Q258.3 124.4 262.15 125.95 268.1 128.35 274.45 129.4 282.8 130.8 291.85 129.8 L290.0 138.8 288.2 147.65 287.3 152.15 290.45 158.7 303.4 185.5 270.35 348.35 252.85 353.95 222.45 345.55 196.6 338.4 189.75 324.0 221.7 168.65 249.45 144.05 250.65 139.4 252.8 131.25 254.6 122.25 M252.8 131.25 Q256.4 133.7 260.2 135.4 266.15 138.15 272.45 139.15 280.9 140.55 290.0 138.8" ffdec:has-small-stroke="true" ffdec:original-stroke-width="0.05" fill="none" stroke="#000000" stroke-linecap="round" stroke-linejoin="round" stroke-opacity="0.2509804" stroke-width="1.0"/>
  </g>
</svg>
