<?xml version="1.0" encoding="UTF-8" standalone="no"?>
<svg xmlns:ffdec="https://www.free-decompiler.com/flash" xmlns:xlink="http://www.w3.org/1999/xlink" ffdec:objectType="shape" height="62.6px" width="39.85px" xmlns="http://www.w3.org/2000/svg">
  <g transform="matrix(1.0, 0.0, 0.0, 1.0, -200.45, -134.85)">
    <path d="M222.5 170.25 L223.75 179.05 Q226.85 184.0 233.05 185.8 240.0 187.4 240.25 189.95 240.45 191.05 240.05 191.65 L237.65 191.45 Q234.35 189.85 229.65 188.6 227.95 188.0 226.1 189.35 L226.1 189.45 225.95 191.0 Q225.8 191.6 226.15 192.55 227.05 194.75 226.7 195.85 L223.6 195.9 Q221.45 194.95 220.3 192.9 219.25 190.05 219.6 187.2 L218.95 187.25 218.95 187.2 218.75 187.25 Q216.05 187.6 214.0 188.9 L213.9 188.95 217.4 181.8 Q218.95 175.25 215.35 168.7 L218.75 170.35 Q220.05 171.5 219.8 172.6 L219.1 176.45 Q219.2 178.6 220.75 178.45 222.45 177.85 222.6 176.05 222.45 174.5 221.4 172.6 L221.95 170.6 222.5 170.25" fill="#ffefd6" fill-rule="evenodd" stroke="none"/>
    <path d="M240.05 191.65 Q238.95 193.0 234.2 191.4 226.4 188.55 225.95 191.0 L226.1 189.45 226.1 189.35 Q227.95 188.0 229.65 188.6 234.35 189.85 237.65 191.45 L240.05 191.65 M226.7 195.85 Q226.2 197.25 223.6 196.7 219.9 195.95 219.15 189.9 L218.95 187.25 219.6 187.2 Q219.25 190.05 220.3 192.9 221.45 194.95 223.6 195.9 L226.7 195.85 M213.8 195.0 L213.0 194.8 212.85 194.8 211.8 192.75 213.0 189.55 Q211.15 190.9 209.8 193.0 203.75 199.95 201.0 196.05 201.45 193.5 205.85 189.3 209.25 185.9 209.75 181.05 L208.2 171.2 Q209.75 169.2 213.9 168.35 L214.45 168.25 215.05 168.15 215.35 168.7 Q218.95 175.25 217.4 181.8 L213.9 188.95 213.65 189.1 213.9 189.2 213.65 189.1 213.55 189.15 213.0 189.55 213.55 189.15 213.65 189.1 213.9 188.95 214.0 188.9 213.9 189.2 212.9 192.9 212.9 192.95 213.8 195.0" fill="#d5c6ae" fill-rule="evenodd" stroke="none"/>
    <path d="M218.75 190.85 L217.55 194.2 215.4 195.35 213.8 195.0 212.9 192.95 212.9 192.9 213.9 189.2 Q216.65 189.7 218.75 190.85" fill="#cbb99a" fill-rule="evenodd" stroke="none"/>
    <path d="M219.15 189.9 L218.75 190.85 Q216.65 189.7 213.9 189.2 L214.0 188.9 Q216.05 187.6 218.75 187.25 L218.95 187.2 218.95 187.25 219.15 189.9" fill="#987c4e" fill-rule="evenodd" stroke="none"/>
    <path d="M215.05 168.15 L215.4 168.15 Q220.5 167.65 222.35 169.3 L222.5 170.25 221.95 170.6 221.4 172.6 Q222.45 174.5 222.6 176.05 222.45 177.85 220.75 178.45 219.2 178.6 219.1 176.45 L219.8 172.6 Q220.05 171.5 218.75 170.35 L215.35 168.7 215.05 168.15" fill="#fff9f0" fill-rule="evenodd" stroke="none"/>
    <path d="M214.55 165.4 L213.85 165.45 Q210.0 165.45 206.05 160.8 203.05 156.85 201.2 150.55 199.8 144.75 200.95 140.15 202.3 134.55 203.5 134.85 203.7 134.8 210.7 143.65 211.35 144.55 214.4 146.85 216.25 148.25 217.45 152.0 219.05 157.55 218.0 161.3 217.2 164.95 214.6 165.35 L214.55 165.4 M215.25 158.15 Q209.7 154.1 207.2 146.6 206.4 152.6 210.15 160.15 211.4 162.8 214.1 163.1 215.95 161.4 215.25 158.15" fill="#ffdb60" fill-rule="evenodd" stroke="none"/>
    <path d="M215.25 158.15 Q215.95 161.4 214.1 163.1 211.4 162.8 210.15 160.15 206.4 152.6 207.2 146.6 209.7 154.1 215.25 158.15" fill="#fff193" fill-rule="evenodd" stroke="none"/>
    <path d="M215.05 168.15 L215.4 168.15 Q220.5 167.65 222.35 169.3 L222.5 170.25 223.75 179.05 M213.0 189.55 Q211.15 190.9 209.8 193.0 203.75 199.95 201.0 196.05 201.45 193.5 205.85 189.3 209.25 185.9 209.75 181.05 L208.2 171.2 Q209.75 169.2 213.9 168.35 M214.45 168.25 L215.05 168.15 M218.95 187.2 L218.75 187.25 Q216.05 187.6 214.0 188.9 L213.9 188.95 213.65 189.1 M213.55 189.15 L213.0 189.55" ffdec:has-small-stroke="true" ffdec:original-stroke-width="0.05" fill="none" stroke="#937c4d" stroke-linecap="round" stroke-linejoin="round" stroke-width="1.0"/>
    <path d="M223.75 179.05 Q226.85 184.0 233.05 185.8 240.0 187.4 240.25 189.95 240.45 191.05 240.05 191.65 238.95 193.0 234.2 191.4 226.4 188.55 225.95 191.0 225.8 191.6 226.15 192.55 227.05 194.75 226.7 195.85 226.2 197.25 223.6 196.7 219.9 195.95 219.15 189.9 L218.95 187.25 218.95 187.2" ffdec:has-small-stroke="true" ffdec:original-stroke-width="0.05" fill="none" stroke="#937c4d" stroke-linecap="round" stroke-linejoin="round" stroke-width="1.0"/>
    <path d="M214.55 165.4 L215.05 168.15" ffdec:has-small-stroke="true" ffdec:original-stroke-width="0.05" fill="none" stroke="#33291c" stroke-linecap="round" stroke-linejoin="round" stroke-width="1.0"/>
    <path d="M219.15 189.9 L218.75 190.85 217.55 194.2 215.4 195.35 213.8 195.0 213.0 194.8 212.85 194.8 211.8 192.75 213.0 189.55 M213.9 189.2 L213.65 189.1 213.55 189.15" ffdec:has-small-stroke="true" ffdec:original-stroke-width="0.05" fill="none" stroke="#aa8c59" stroke-linecap="round" stroke-linejoin="round" stroke-width="1.0"/>
    <path d="M214.55 165.4 L213.85 165.45 Q210.0 165.45 206.05 160.8 203.05 156.85 201.2 150.55 199.8 144.75 200.95 140.15 202.3 134.55 203.5 134.85 203.7 134.8 210.7 143.65 211.35 144.55 214.4 146.85 216.25 148.25 217.45 152.0 219.05 157.55 218.0 161.3 217.2 164.95 214.6 165.35 L214.55 165.4 Z" ffdec:has-small-stroke="true" ffdec:original-stroke-width="0.05" fill="none" stroke="#cd8f01" stroke-linecap="round" stroke-linejoin="round" stroke-width="1.0"/>
  </g>
</svg>
