<?xml version="1.0" encoding="UTF-8" standalone="no"?>
<svg xmlns:ffdec="https://www.free-decompiler.com/flash" xmlns:xlink="http://www.w3.org/1999/xlink" ffdec:objectType="shape" height="219.85px" width="179.15px" xmlns="http://www.w3.org/2000/svg">
  <g transform="matrix(1.0, 0.0, 0.0, 1.0, -166.4, -80.0)">
    <path d="M341.8 181.65 L287.5 223.85 256.25 248.1 256.2 248.1 247.95 243.7 288.3 186.75 309.8 170.35 310.0 170.2 309.95 170.4 309.8 170.35 309.95 170.4 341.8 181.65 M228.85 285.2 L197.95 299.85 186.6 289.75 203.55 256.15 226.1 246.65 228.85 285.2" fill="#ffffdd" fill-rule="evenodd" stroke="none"/>
    <path d="M316.85 138.35 L345.55 141.6 341.9 181.55 341.8 181.65 309.95 170.4 310.0 170.2 316.85 138.35 M287.5 223.85 L325.35 239.35 256.25 248.1 287.5 223.85" fill="#e8e18c" fill-rule="evenodd" stroke="none"/>
    <path d="M316.85 138.35 L316.9 138.05 266.4 80.0 299.5 84.95 345.55 141.45 345.55 141.6 316.85 138.35 M325.35 239.35 L228.85 285.2 226.1 246.65 241.45 240.2 247.95 243.7 256.2 248.1 256.2 248.15 256.25 248.1 325.35 239.35" fill="#efebaf" fill-rule="evenodd" stroke="none"/>
    <path d="M186.6 289.75 L166.4 271.75 203.55 256.15 186.6 289.75 M241.45 240.2 L227.9 232.9 288.3 186.75 247.95 243.7 241.45 240.2" fill="#ffffec" fill-rule="evenodd" stroke="none"/>
    <path d="M345.55 141.6 L345.55 141.45 299.5 84.95 266.4 80.0 316.9 138.05 316.85 138.35 310.0 170.2 309.8 170.35 309.95 170.4 M345.55 141.6 L341.9 181.55 341.8 181.65 287.5 223.85 325.35 239.35 228.85 285.2 197.95 299.85 186.6 289.75 166.4 271.75 203.55 256.15 226.1 246.65 241.45 240.2 227.9 232.9 288.3 186.75 309.8 170.35 M256.2 248.1 L256.25 248.1 287.5 223.85 M256.2 248.1 L256.2 248.15 256.25 248.1 325.35 239.35 M247.95 243.7 L256.2 248.1 M241.45 240.2 L247.95 243.7" ffdec:has-small-stroke="true" ffdec:original-stroke-width="0.05" fill="none" stroke="#000000" stroke-linecap="round" stroke-linejoin="round" stroke-opacity="0.3019608" stroke-width="1.0"/>
  </g>
</svg>
