<?xml version="1.0" encoding="UTF-8" standalone="no"?>
<svg xmlns:ffdec="https://www.free-decompiler.com/flash" xmlns:xlink="http://www.w3.org/1999/xlink" ffdec:objectType="shape" height="5.9px" width="8.65px" xmlns="http://www.w3.org/2000/svg">
  <g transform="matrix(1.0, 0.0, 0.0, 1.0, 4.35, 2.95)">
    <path d="M1.7 -1.7 L2.2 -2.65 Q3.65 -1.85 4.3 1.45 2.7 2.85 -0.7 2.95 -1.25 1.95 -2.6 1.3 L-1.7 0.8 Q-1.0 1.3 -0.25 2.35 1.9 2.15 3.5 1.0 2.65 -1.0 1.7 -1.7" fill="#855e7c" fill-rule="evenodd" stroke="none"/>
    <path d="M-0.55 -1.8 Q-0.95 -2.35 0.25 -2.8 L2.2 -2.65 1.7 -1.7 0.85 -2.1 Q0.2 -2.25 -0.55 -1.8 M-2.6 1.3 Q-3.35 0.9 -4.35 0.6 -3.8 -0.05 -3.1 0.35 L-2.4 0.45 Q-2.05 0.55 -1.7 0.8 L-2.6 1.3" fill="#a37f9d" fill-rule="evenodd" stroke="none"/>
    <path d="M0.85 -2.1 L1.7 -1.7 Q2.65 -1.0 3.5 1.0 1.9 2.15 -0.25 2.35 -1.0 1.3 -1.7 0.8 -2.05 0.55 -2.4 0.45 -0.3 0.0 0.85 -2.1" fill="#302f2d" fill-rule="evenodd" stroke="none"/>
    <path d="M-0.55 -1.8 Q0.2 -2.25 0.85 -2.1 -0.3 0.0 -2.4 0.45 L-3.1 0.35 Q-2.35 0.05 -1.6 -0.6 L-0.55 -1.8" fill="#5a5e61" fill-rule="evenodd" stroke="none"/>
    <path d="M2.2 -2.65 L0.25 -2.8 Q-0.95 -2.35 -0.55 -1.8 L-1.6 -0.6 Q-2.35 0.05 -3.1 0.35 -3.8 -0.05 -4.35 0.6 -3.35 0.9 -2.6 1.3 -1.25 1.95 -0.7 2.95 2.7 2.85 4.3 1.45 3.65 -1.85 2.2 -2.65 Z" ffdec:has-small-stroke="true" ffdec:original-stroke-width="0.05" fill="none" stroke="#664e61" stroke-linecap="round" stroke-linejoin="round" stroke-width="1.0"/>
  </g>
</svg>
