<?xml version="1.0" encoding="UTF-8" standalone="no"?>
<svg xmlns:ffdec="https://www.free-decompiler.com/flash" xmlns:xlink="http://www.w3.org/1999/xlink" ffdec:objectType="shape" height="169.95px" width="163.5px" xmlns="http://www.w3.org/2000/svg">
  <g transform="matrix(1.0, 0.0, 0.0, 1.0, 79.9, 79.65)">
    <path d="M52.65 -50.7 Q31.8 -74.1 2.3 -74.1 -27.15 -74.1 -48.0 -50.7 -68.85 -27.3 -68.8 5.85 -68.85 38.95 -48.0 62.35 -27.15 85.75 2.3 85.75 31.8 85.75 52.65 62.35 73.45 38.95 73.45 5.85 73.45 -27.3 52.65 -50.7 M59.1 -54.2 Q82.8 -29.55 82.85 5.35 82.8 40.2 59.1 64.9 35.4 89.55 1.85 89.55 -31.75 89.55 -55.45 64.9 -79.15 40.2 -79.15 5.35 -79.15 -29.55 -55.45 -54.2 -31.75 -78.9 1.85 -78.9 35.4 -78.9 59.1 -54.2" fill="#0a001e" fill-rule="evenodd" stroke="none"/>
    <path d="M52.65 -50.7 Q73.45 -27.3 73.45 5.85 73.45 38.95 52.65 62.35 31.8 85.75 2.3 85.75 -27.15 85.75 -48.0 62.35 -68.85 38.95 -68.8 5.85 -68.85 -27.3 -48.0 -50.7 -27.15 -74.1 2.3 -74.1 31.8 -74.1 52.65 -50.7" fill="url(#gradient0)" fill-rule="evenodd" stroke="none"/>
    <path d="M59.1 -54.2 Q82.8 -29.55 82.85 5.35 82.8 40.2 59.1 64.9 35.4 89.55 1.85 89.55 -31.75 89.55 -55.45 64.9 -79.15 40.2 -79.15 5.35 -79.15 -29.55 -55.45 -54.2 -31.75 -78.9 1.85 -78.9 35.4 -78.9 59.1 -54.2" fill="none" stroke="#c1eaff" stroke-linecap="round" stroke-linejoin="round" stroke-opacity="0.7137255" stroke-width="1.5"/>
    <path d="M52.65 -50.7 Q73.45 -27.3 73.45 5.85 73.45 38.95 52.65 62.35 31.8 85.75 2.3 85.75 -27.15 85.75 -48.0 62.35 -68.85 38.95 -68.8 5.85 -68.85 -27.3 -48.0 -50.7 -27.15 -74.1 2.3 -74.1 31.8 -74.1 52.65 -50.7 Z" fill="none" stroke="#c2e8ff" stroke-linecap="round" stroke-linejoin="round" stroke-opacity="0.4" stroke-width="1.5"/>
  </g>
  <defs>
    <radialGradient cx="0" cy="0" gradientTransform="matrix(0.0925, 0.0, 0.0, 0.1016, 1.85, 5.6)" gradientUnits="userSpaceOnUse" id="gradient0" r="819.2" spreadMethod="pad">
      <stop offset="0.47058823529411764" stop-color="#03001e"/>
      <stop offset="1.0" stop-color="#330264"/>
    </radialGradient>
  </defs>
</svg>
