<?xml version="1.0" encoding="UTF-8" standalone="no"?>
<svg xmlns:ffdec="https://www.free-decompiler.com/flash" xmlns:xlink="http://www.w3.org/1999/xlink" ffdec:objectType="shape" height="10.65px" width="10.45px" xmlns="http://www.w3.org/2000/svg">
  <g transform="matrix(1.0, 0.0, 0.0, 1.0, 6.0, 8.3)">
    <path d="M-3.85 1.65 L-4.95 0.7 Q-6.25 -0.85 -5.95 -3.05 -5.7 -5.25 -4.0 -6.8 -2.25 -8.35 -0.1 -8.3 2.0 -8.3 3.3 -6.75 L3.55 -6.4 Q0.85 -8.3 0.35 -5.55 L0.25 -4.95 Q-5.2 -4.9 -3.85 1.65" fill="#c88748" fill-rule="evenodd" stroke="none"/>
    <path d="M-3.85 1.65 Q-5.2 -4.9 0.25 -4.95 L0.35 -5.55 Q0.85 -8.3 3.55 -6.4 L3.65 -6.3 Q4.6 -4.85 4.4 -2.95 4.1 -0.75 2.4 0.8 0.7 2.35 -1.4 2.35 -2.8 2.3 -3.85 1.65" fill="#a57741" fill-rule="evenodd" stroke="none"/>
    <path d="M3.55 -6.4 L3.3 -6.75 Q2.0 -8.3 -0.1 -8.3 -2.25 -8.35 -4.0 -6.8 -5.7 -5.25 -5.95 -3.05 -6.25 -0.85 -4.95 0.7 L-3.85 1.65 Q-2.8 2.3 -1.4 2.35 0.7 2.35 2.4 0.8 4.1 -0.75 4.4 -2.95 4.6 -4.85 3.65 -6.3 L3.55 -6.4 Z" ffdec:has-small-stroke="true" ffdec:original-stroke-width="0.05" fill="none" stroke="#836345" stroke-linecap="round" stroke-linejoin="round" stroke-width="1.0"/>
    <path d="M-4.75 0.65 Q-5.35 0.2 -5.4 -0.6 -4.75 -0.75 -4.0 -0.2 -4.15 0.8 -4.75 0.65" fill="#6b4b2c" fill-rule="evenodd" stroke="none"/>
    <path d="M-4.75 0.65 Q-5.35 0.2 -5.4 -0.6 -4.75 -0.75 -4.0 -0.2 -4.15 0.8 -4.75 0.65 Z" ffdec:has-small-stroke="true" ffdec:original-stroke-width="0.05" fill="none" stroke="#281a0d" stroke-linecap="round" stroke-linejoin="round" stroke-width="1.0"/>
  </g>
</svg>
