<?xml version="1.0" encoding="UTF-8" standalone="no"?>
<svg xmlns:ffdec="https://www.free-decompiler.com/flash" xmlns:xlink="http://www.w3.org/1999/xlink" ffdec:objectType="shape" height="114.1px" width="109.7px" xmlns="http://www.w3.org/2000/svg">
  <g transform="matrix(1.0, 0.0, 0.0, 1.0, -287.95, -193.55)">
    <path d="M345.05 207.15 L345.25 205.7 Q345.2 205.0 343.75 203.85 342.7 203.0 338.2 203.0 366.25 188.2 394.4 196.6 396.45 197.15 397.65 199.55 366.5 199.1 345.05 207.15" fill="#7d3e3e" fill-rule="evenodd" stroke="none"/>
    <path d="M338.2 203.0 Q342.7 203.0 343.75 203.85 345.2 205.0 345.25 205.7 L345.05 207.15 Q302.9 219.25 303.6 265.15 303.75 275.8 305.5 286.45 L309.0 307.65 296.55 277.05 287.95 305.8 Q288.6 259.25 312.35 221.95 317.2 214.3 325.2 209.55 333.9 204.45 338.2 203.0" fill="#ae6233" fill-rule="evenodd" stroke="none"/>
    <path d="M345.05 207.15 Q366.5 199.1 397.65 199.55 396.45 197.15 394.4 196.6 366.25 188.2 338.2 203.0 333.9 204.45 325.2 209.55 317.2 214.3 312.35 221.95 288.6 259.25 287.95 305.8 L296.55 277.05 309.0 307.65 305.5 286.45 Q303.75 275.8 303.6 265.15 302.9 219.25 345.05 207.15 Z" ffdec:has-small-stroke="true" ffdec:original-stroke-width="0.05" fill="none" stroke="#000000" stroke-linecap="round" stroke-linejoin="round" stroke-opacity="0.3019608" stroke-width="1.0"/>
  </g>
</svg>
