<?xml version="1.0" encoding="UTF-8" standalone="no"?>
<svg xmlns:ffdec="https://www.free-decompiler.com/flash" xmlns:xlink="http://www.w3.org/1999/xlink" ffdec:objectType="shape" height="80.75px" width="61.3px" xmlns="http://www.w3.org/2000/svg">
  <g transform="matrix(1.0, 0.0, 0.0, 1.0, -249.65, -211.9)">
    <path d="M297.3 248.7 L297.45 234.4 Q300.45 240.25 303.0 246.2 L305.4 252.0 304.5 266.0 302.1 260.05 297.3 248.7" fill="#ac4646" fill-rule="evenodd" stroke="none"/>
    <path d="M272.7 213.0 Q276.05 210.6 281.45 213.35 286.85 216.05 291.5 223.5 294.65 228.9 297.45 234.4 L297.3 248.7 Q292.65 237.95 287.45 227.0 282.45 216.2 272.7 213.0 M296.4 277.8 Q294.9 281.6 288.95 281.5 280.5 266.45 277.95 249.75 279.15 244.85 282.45 244.9 L282.35 247.65 284.2 255.5 289.8 270.7 292.2 276.0 293.6 278.15 296.4 277.8 M264.55 275.5 L264.45 275.55 Q260.95 277.65 258.5 275.5 259.1 256.55 266.5 241.5 268.65 241.05 269.9 242.15 L264.25 266.3 263.7 273.75 263.65 274.0 264.55 275.5" fill="#bc5858" fill-rule="evenodd" stroke="none"/>
    <path d="M272.7 213.0 Q282.45 216.2 287.45 227.0 292.65 237.95 297.3 248.7 L302.1 260.05 304.5 266.0 308.6 276.6 306.2 285.2 Q305.05 289.45 301.45 292.0 294.9 293.55 289.15 291.45 282.2 288.9 276.35 281.05 275.55 280.0 273.7 276.5 269.8 282.55 260.35 286.65 L259.85 286.85 259.9 287.05 254.7 287.7 253.0 287.0 Q250.85 285.7 250.95 283.0 L249.7 275.0 Q249.2 264.0 252.45 253.0 L255.8 243.15 267.8 218.75 Q267.75 215.65 272.7 213.0 M273.25 217.9 L273.0 217.8 272.7 217.7 Q268.55 220.05 266.35 224.65 L264.55 227.9 Q261.9 232.25 261.2 237.15 261.65 237.7 262.4 237.55 L262.8 237.45 Q268.55 228.65 273.5 219.65 274.0 218.7 273.25 217.9 M261.5 240.05 L261.0 240.1 260.55 240.15 258.15 242.5 256.55 245.25 256.35 246.05 Q255.7 247.95 255.4 249.95 L255.65 250.15 257.55 249.55 257.9 248.65 259.65 245.05 259.5 244.95 259.3 244.45 259.4 244.2 Q261.2 242.5 261.5 240.05 M296.4 277.8 L296.7 276.5 Q289.45 256.7 283.45 245.0 L282.45 244.9 Q279.15 244.85 277.95 249.75 280.5 266.45 288.95 281.5 294.9 281.6 296.4 277.8 M269.9 242.15 Q268.65 241.05 266.5 241.5 259.1 256.55 258.5 275.5 260.95 277.65 264.45 275.55 L264.55 275.5 266.5 274.0 271.5 249.0 Q271.75 243.8 269.9 242.15" fill="#dba4a4" fill-rule="evenodd" stroke="none"/>
    <path d="M273.25 217.9 Q274.0 218.7 273.5 219.65 268.55 228.65 262.8 237.45 L262.4 237.55 Q261.65 237.7 261.2 237.15 261.9 232.25 264.55 227.9 L266.35 224.65 Q268.55 220.05 272.7 217.7 L273.0 217.8 273.25 217.9 M261.5 240.05 Q261.2 242.5 259.4 244.2 L259.3 244.45 259.5 244.95 259.65 245.05 257.9 248.65 257.55 249.55 255.65 250.15 255.4 249.95 Q255.7 247.95 256.35 246.05 L256.55 245.25 258.15 242.5 260.55 240.15 261.0 240.1 261.5 240.05" fill="#e7c2c2" fill-rule="evenodd" stroke="none"/>
    <path d="M305.4 252.0 Q307.6 257.45 309.4 263.05 L310.95 268.0 308.6 276.6 304.5 266.0 305.4 252.0 M276.35 281.05 Q264.9 287.15 260.45 286.95 L260.35 286.65 Q269.8 282.55 273.7 276.5 275.55 280.0 276.35 281.05 M282.45 244.9 L283.45 245.0 Q289.45 256.7 296.7 276.5 L296.4 277.8 293.6 278.15 292.2 276.0 289.8 270.7 284.2 255.5 282.35 247.65 282.45 244.9 M269.9 242.15 Q271.75 243.8 271.5 249.0 L266.5 274.0 264.55 275.5 263.65 274.0 263.7 273.75 264.25 266.3 269.9 242.15" fill="#9a3f3f" fill-rule="evenodd" stroke="none"/>
    <path d="M297.45 234.4 Q294.65 228.9 291.5 223.5 286.85 216.05 281.45 213.35 276.05 210.6 272.7 213.0 282.45 216.2 287.45 227.0 292.65 237.95 297.3 248.7 L302.1 260.05 304.5 266.0 308.6 276.6 M297.45 234.4 Q300.45 240.25 303.0 246.2 L305.4 252.0 Q307.6 257.45 309.4 263.05 L310.95 268.0 M276.35 281.05 Q264.9 287.15 260.45 286.95 M259.9 287.05 L254.7 287.7 253.0 287.0 Q250.85 285.7 250.95 283.0 L249.7 275.0 M282.45 244.9 L283.45 245.0 Q289.45 256.7 296.7 276.5 L296.4 277.8 Q294.9 281.6 288.95 281.5 280.5 266.45 277.95 249.75 279.15 244.85 282.45 244.9 M264.55 275.5 L264.45 275.55 Q260.95 277.65 258.5 275.5 259.1 256.55 266.5 241.5 268.65 241.05 269.9 242.15 271.75 243.8 271.5 249.0 L266.5 274.0 264.55 275.5 M273.7 276.5 Q269.8 282.55 260.35 286.65" ffdec:has-small-stroke="true" ffdec:original-stroke-width="0.05" fill="none" stroke="#bc5858" stroke-linecap="round" stroke-linejoin="round" stroke-width="1.0"/>
    <path d="M249.7 275.0 Q249.2 264.0 252.45 253.0 L255.8 243.15 267.8 218.75 Q267.75 215.65 272.7 213.0" ffdec:has-small-stroke="true" ffdec:original-stroke-width="0.05" fill="none" stroke="#dba4a4" stroke-linecap="round" stroke-linejoin="round" stroke-width="1.0"/>
    <path d="M306.2 285.2 Q305.05 289.45 301.45 292.0 294.9 293.55 289.15 291.45 282.2 288.9 276.35 281.05 275.55 280.0 273.7 276.5 M260.35 286.65 L259.85 286.85" ffdec:has-small-stroke="true" ffdec:original-stroke-width="0.05" fill="none" stroke="#000000" stroke-linecap="round" stroke-linejoin="round" stroke-opacity="0.4" stroke-width="1.0"/>
    <path d="M310.95 268.0 L308.6 276.6 306.2 285.2" ffdec:has-small-stroke="true" ffdec:original-stroke-width="0.05" fill="none" stroke="#000000" stroke-linecap="round" stroke-linejoin="round" stroke-opacity="0.3019608" stroke-width="1.0"/>
  </g>
</svg>
