<?xml version="1.0" encoding="UTF-8" standalone="no"?>
<svg xmlns:ffdec="https://www.free-decompiler.com/flash" xmlns:xlink="http://www.w3.org/1999/xlink" ffdec:objectType="shape" height="168.8px" width="120.45px" xmlns="http://www.w3.org/2000/svg">
  <g transform="matrix(1.0, 0.0, 0.0, 1.0, -226.35, -134.6)">
    <path d="M230.45 191.2 L231.65 191.0 235.75 198.45 Q238.0 198.25 240.25 198.5 247.9 199.4 255.6 205.95 L255.8 206.1 255.8 253.2 Q254.4 258.45 247.8 257.85 246.6 255.55 245.65 251.6 L245.65 251.45 244.85 247.4 244.75 246.75 244.45 247.55 Q240.25 253.65 236.05 252.7 235.1 251.05 234.15 248.45 L234.15 205.65 Q233.2 205.55 232.45 205.05 230.4 203.75 229.6 199.8 L229.3 196.9 Q229.2 194.25 229.75 191.3 L229.8 191.3 230.45 191.2 M235.75 198.45 L234.15 198.65 234.15 205.65 234.15 198.65 235.75 198.45 M247.5 214.3 Q247.1 216.0 247.1 218.45 247.1 220.85 247.5 222.6 247.9 224.3 248.45 224.35 248.95 224.3 249.35 222.6 249.7 220.85 249.7 218.45 249.7 216.0 249.35 214.3 248.95 212.55 248.45 212.55 247.9 212.55 247.5 214.3 M248.25 240.6 Q249.0 239.1 249.05 237.6 247.3 236.2 245.55 235.9 243.9 235.55 242.2 236.25 241.75 238.4 242.3 239.95 L242.65 240.65 242.75 240.8 243.25 244.4 Q246.25 248.45 248.95 246.4 250.05 243.3 248.25 240.6 M240.85 215.3 Q240.65 214.4 240.3 214.45 239.9 214.4 239.65 215.3 239.4 216.2 239.4 217.5 239.4 218.8 239.65 219.65 239.9 220.6 240.3 220.6 240.65 220.6 240.85 219.65 L241.15 217.5 240.85 215.3" fill="#ffb811" fill-rule="evenodd" stroke="none"/>
    <path d="M278.05 232.35 L272.6 239.0 271.35 234.9 272.6 239.0 278.05 232.35 M276.45 241.45 L283.65 256.45 272.35 248.15 267.95 264.65 268.2 246.7 259.0 244.35 268.25 238.95 267.35 219.0 273.05 235.9 282.2 225.85 276.45 241.45 M280.15 252.1 L275.05 243.35 280.15 252.1" fill="#ffed11" fill-rule="evenodd" stroke="none"/>
    <path d="M247.5 214.3 Q247.9 212.55 248.45 212.55 248.95 212.55 249.35 214.3 249.7 216.0 249.7 218.45 249.7 220.85 249.35 222.6 248.95 224.3 248.45 224.35 247.9 224.3 247.5 222.6 247.1 220.85 247.1 218.45 247.1 216.0 247.5 214.3 M242.3 239.95 Q241.75 238.4 242.2 236.25 243.9 235.55 245.55 235.9 247.3 236.2 249.05 237.6 249.0 239.1 248.25 240.6 L247.7 241.5 246.5 242.5 Q244.4 243.75 242.75 240.8 L242.65 240.65 242.3 239.95 M240.85 215.3 L241.15 217.5 240.85 219.65 Q240.65 220.6 240.3 220.6 239.9 220.6 239.65 219.65 239.4 218.8 239.4 217.5 239.4 216.2 239.65 215.3 239.9 214.4 240.3 214.45 240.65 214.4 240.85 215.3" fill="#660033" fill-rule="evenodd" stroke="none"/>
    <path d="M286.15 185.7 L286.25 185.7 286.15 185.7" fill="#564361" fill-rule="evenodd" stroke="none"/>
    <path d="M231.1 173.45 L231.1 173.65 230.9 173.45 231.1 173.45 M244.05 287.3 L244.15 287.3 244.15 287.35 244.05 287.3" fill="#9176a0" fill-rule="evenodd" stroke="none"/>
    <path d="M257.35 256.75 L257.35 257.05 257.25 257.15 Q252.2 263.35 248.95 259.6 L247.8 257.85 Q254.4 258.45 255.8 253.2 L255.8 206.1 256.2 206.45 266.7 199.35 267.7 201.2 Q268.8 205.45 267.9 209.6 267.15 213.2 264.95 216.65 261.15 219.7 257.35 218.0 L257.35 256.75 M241.0 254.45 L240.65 254.8 239.6 255.35 Q237.8 255.75 236.05 252.7 240.25 253.65 244.45 247.55 242.7 252.65 241.0 254.45 M257.35 218.0 L257.35 207.5 256.2 206.45 257.35 207.5 257.35 218.0 M242.75 240.8 Q244.4 243.75 246.5 242.5 L247.7 241.5 248.25 240.6 Q250.05 243.3 248.95 246.4 246.25 248.45 243.25 244.4 L242.75 240.8" fill="#cc8e00" fill-rule="evenodd" stroke="none"/>
    <path d="M226.75 157.7 Q226.35 156.35 226.35 155.15 226.35 153.95 226.75 152.6 229.1 145.7 244.0 140.6 261.6 134.6 286.6 134.6 311.55 134.6 329.15 140.6 346.8 146.7 346.8 155.15 L346.8 155.45 346.4 157.75 346.3 158.05 346.3 168.05 346.3 275.85 346.3 279.8 Q346.75 282.0 342.3 287.75 336.85 294.75 329.25 297.35 323.85 299.2 317.75 300.5 L315.7 290.9 319.25 290.15 Q324.5 288.95 329.25 287.3 343.6 282.45 346.3 275.85 343.6 282.45 329.25 287.3 324.5 288.95 319.25 290.15 L311.55 183.85 314.6 183.35 314.0 173.5 Q322.15 172.05 329.15 169.65 341.95 165.3 345.5 159.65 344.8 158.3 343.4 156.95 342.35 155.9 340.95 154.9 336.6 151.75 328.9 149.1 311.3 143.1 286.3 143.1 261.35 143.1 243.75 149.1 230.9 153.55 227.4 159.2 230.9 153.55 243.75 149.1 261.35 143.1 286.3 143.1 311.3 143.1 328.9 149.1 336.6 151.75 340.95 154.9 254.3 138.8 258.25 173.35 250.55 171.9 244.0 169.65 L239.3 167.9 Q233.2 165.3 230.0 162.35 L229.85 162.25 Q228.25 160.75 227.4 159.2 L226.75 157.7 M346.3 158.05 L345.5 159.65 346.3 158.05 M346.3 168.05 Q343.75 174.55 328.75 179.65 322.2 181.9 314.6 183.35 322.2 181.9 328.75 179.65 343.75 174.55 346.3 168.05" fill="#54495c" fill-rule="evenodd" stroke="none"/>
    <path d="M317.75 300.5 Q311.7 301.8 304.95 302.5 L302.6 292.7 305.9 292.35 295.45 185.5 299.25 185.25 297.7 175.4 286.6 175.7 284.65 175.7 Q270.1 175.55 258.25 173.35 254.3 138.8 340.95 154.9 342.35 155.9 343.4 156.95 344.8 158.3 345.5 159.65 341.95 165.3 329.15 169.65 322.15 172.05 314.0 173.5 L314.6 183.35 311.55 183.85 299.25 185.25 311.55 183.85 319.25 290.15 315.7 290.9 317.75 300.5 M296.2 160.75 Q300.65 159.4 300.65 157.5 300.65 155.6 296.2 154.25 291.75 152.9 285.45 152.9 L280.65 153.15 Q277.35 153.45 274.7 154.25 270.25 155.6 270.25 157.5 270.25 159.4 274.7 160.75 279.15 162.1 285.45 162.1 291.45 162.1 295.8 160.9 L296.25 160.85 296.2 160.75 M315.7 290.9 L305.9 292.35 315.7 290.9 M297.7 175.4 Q306.35 174.85 314.0 173.5 306.35 174.85 297.7 175.4 M340.3 158.8 Q310.3 172.25 272.85 171.45 316.3 177.3 340.3 158.8" fill="#82708d" fill-rule="evenodd" stroke="none"/>
    <path d="M296.65 303.15 L286.65 303.4 Q270.95 303.4 258.25 301.05 L249.25 298.95 247.25 288.35 253.25 289.95 250.95 273.55 Q266.15 277.4 286.15 277.4 L289.15 277.4 289.15 237.5 296.0 293.15 294.3 293.2 286.65 293.35 Q269.75 293.35 256.25 290.6 L253.25 289.95 256.25 290.6 Q269.75 293.35 286.65 293.35 L294.3 293.2 296.65 303.15 M237.2 177.15 L240.25 178.45 239.3 167.9 244.0 169.65 Q250.55 171.9 258.25 173.35 270.1 175.55 284.65 175.7 L286.25 185.7 286.15 185.7 282.75 185.7 285.8 210.5 272.5 210.05 272.2 210.0 267.9 209.6 Q268.8 205.45 267.7 201.2 L266.7 199.35 256.2 206.45 255.8 206.1 255.6 205.95 Q247.9 199.4 240.25 198.5 L237.2 177.15 M295.8 160.9 Q291.45 162.1 285.45 162.1 279.15 162.1 274.7 160.75 270.25 159.4 270.25 157.5 270.25 155.6 274.7 154.25 277.35 153.45 280.65 153.15 L285.45 152.9 Q291.75 152.9 296.2 154.25 300.65 155.6 300.65 157.5 300.65 159.4 296.2 160.75 L295.8 160.9 M240.25 178.45 L243.55 179.65 Q259.9 185.3 282.75 185.7 259.9 185.3 243.55 179.65 L240.25 178.45 M340.3 158.8 Q316.3 177.3 272.85 171.45 310.3 172.25 340.3 158.8" fill="#9e8fa7" fill-rule="evenodd" stroke="none"/>
    <path d="M230.0 162.35 Q233.2 165.3 239.3 167.9 L240.25 178.45 237.2 177.15 Q233.55 175.45 231.1 173.65 233.55 175.45 237.2 177.15 L240.25 198.5 Q238.0 198.25 235.75 198.45 L231.65 191.0 230.45 191.2 227.45 169.95 Q228.65 171.75 230.9 173.45 L231.1 173.65 231.1 173.45 230.0 162.35 M244.15 287.35 L244.15 287.3 241.8 270.75 243.55 271.35 250.95 273.55 253.25 289.95 247.25 288.35 244.15 287.35" fill="#b0a5b8" fill-rule="evenodd" stroke="none"/>
    <path d="M249.25 298.95 L244.05 297.35 Q228.85 292.15 226.75 285.15 L226.75 275.1 226.75 260.45 Q229.55 266.2 241.8 270.75 L244.15 287.3 244.05 287.3 244.15 287.35 247.25 288.35 249.25 298.95 M226.75 193.55 L226.75 157.7 227.4 159.2 Q228.25 160.75 229.85 162.25 L230.0 162.35 231.1 173.45 230.9 173.45 Q228.65 171.75 227.45 169.95 L230.45 191.2 229.8 191.3 229.75 191.3 Q229.2 194.25 229.3 196.9 227.6 195.25 226.75 193.55 M226.75 275.1 Q228.85 282.1 244.05 287.3 228.85 282.1 226.75 275.1" fill="#c2bac9" fill-rule="evenodd" stroke="none"/>
    <path d="M304.95 302.5 L296.65 303.15 294.3 293.2 296.0 293.15 289.15 237.5 289.15 210.5 286.15 210.5 285.8 210.5 282.75 185.7 286.15 185.7 286.25 185.7 284.65 175.7 286.6 175.7 297.7 175.4 299.25 185.25 295.45 185.5 305.9 292.35 302.6 292.7 304.95 302.5 M295.45 185.5 L286.25 185.7 295.45 185.5 M302.6 292.7 L296.0 293.15 302.6 292.7" fill="#706079" fill-rule="evenodd" stroke="none"/>
    <path d="M226.75 260.45 L226.75 193.55 Q227.6 195.25 229.3 196.9 L229.6 199.8 Q230.4 203.75 232.45 205.05 233.2 205.55 234.15 205.65 L234.15 248.45 Q235.1 251.05 236.05 252.7 237.8 255.75 239.6 255.35 L240.65 254.8 241.0 254.45 Q243.7 254.3 245.65 251.6 246.6 255.55 247.8 257.85 L248.95 259.6 Q252.2 263.35 257.25 257.15 L257.35 257.05 257.35 256.75 258.95 255.25 258.7 243.3 Q258.55 233.45 260.6 224.4 260.85 222.85 264.95 217.8 268.95 212.9 272.2 210.0 L272.5 210.05 285.8 210.5 286.15 210.5 289.15 210.5 289.15 237.5 289.15 277.4 286.15 277.4 Q266.15 277.4 250.95 273.55 L243.55 271.35 241.8 270.75 Q229.55 266.2 226.75 260.45 M276.45 241.45 L282.2 225.85 273.05 235.9 267.35 219.0 268.25 238.95 259.0 244.35 268.2 246.7 267.95 264.65 272.35 248.15 283.65 256.45 276.45 241.45" fill="#3f878b" fill-rule="evenodd" stroke="none"/>
    <path d="M272.2 210.0 Q268.95 212.9 264.95 217.8 260.85 222.85 260.6 224.4 258.55 233.45 258.7 243.3 L258.95 255.25 257.35 256.75 257.35 218.0 Q261.15 219.7 264.95 216.65 267.15 213.2 267.9 209.6 L272.2 210.0 M245.65 251.6 Q243.7 254.3 241.0 254.45 242.7 252.65 244.45 247.55 L244.75 246.75 244.85 247.4 245.65 251.45 245.65 251.6" fill="#31676a" fill-rule="evenodd" stroke="none"/>
    <path d="M226.75 157.7 Q226.35 156.35 226.35 155.15 226.35 153.95 226.75 152.6 229.1 145.7 244.0 140.6 261.6 134.6 286.6 134.6 311.55 134.6 329.15 140.6 346.8 146.7 346.8 155.15 L346.8 155.45 346.4 157.75 346.3 158.05 346.3 168.05 346.3 275.85 346.3 279.8 Q346.75 282.0 342.3 287.75 336.85 294.75 329.25 297.35 323.85 299.2 317.75 300.5 311.7 301.8 304.95 302.5 L296.65 303.15 286.65 303.4 Q270.95 303.4 258.25 301.05 L249.25 298.95 244.05 297.35 Q228.85 292.15 226.75 285.15 L226.75 275.1 226.75 260.45 226.75 193.55 226.75 157.7 227.4 159.2 Q230.9 153.55 243.75 149.1 261.35 143.1 286.3 143.1 311.3 143.1 328.9 149.1 336.6 151.75 340.95 154.9 342.35 155.9 343.4 156.95 344.8 158.3 345.5 159.65 L346.3 158.05 M345.5 159.65 Q341.95 165.3 329.15 169.65 322.15 172.05 314.0 173.5 306.35 174.85 297.7 175.4 L286.6 175.7 284.65 175.7 Q270.1 175.55 258.25 173.35 250.55 171.9 244.0 169.65 L239.3 167.9 Q233.2 165.3 230.0 162.35 M314.6 183.35 Q322.2 181.9 328.75 179.65 343.75 174.55 346.3 168.05 M346.3 275.85 Q343.6 282.45 329.25 287.3 324.5 288.95 319.25 290.15 L315.7 290.9 305.9 292.35 302.6 292.7 296.0 293.15 294.3 293.2 286.65 293.35 Q269.75 293.35 256.25 290.6 L253.25 289.95 247.25 288.35 244.15 287.35 244.05 287.3 Q228.85 282.1 226.75 275.1 M229.85 162.25 Q228.25 160.75 227.4 159.2 M231.1 173.65 Q233.55 175.45 237.2 177.15 L240.25 178.45 243.55 179.65 Q259.9 185.3 282.75 185.7 L286.15 185.7 286.25 185.7 295.45 185.5 299.25 185.25 311.55 183.85 314.6 183.35 M231.1 173.65 L230.9 173.45 Q228.65 171.75 227.45 169.95 M230.45 191.2 L231.65 191.0 235.75 198.45 Q238.0 198.25 240.25 198.5 247.9 199.4 255.6 205.95 M230.45 191.2 L229.8 191.3 229.75 191.3 Q229.2 194.25 229.3 196.9 L229.6 199.8 Q230.4 203.75 232.45 205.05 233.2 205.55 234.15 205.65 L234.15 198.65 235.75 198.45 M229.3 196.9 Q227.6 195.25 226.75 193.55 M285.8 210.5 L286.15 210.5 289.15 210.5 289.15 237.5 289.15 277.4 286.15 277.4 Q266.15 277.4 250.95 273.55 L243.55 271.35 241.8 270.75 Q229.55 266.2 226.75 260.45 M257.35 256.75 L257.35 257.05 257.25 257.15 Q252.2 263.35 248.95 259.6 L247.8 257.85 Q246.6 255.55 245.65 251.6 M240.65 254.8 L239.6 255.35 Q237.8 255.75 236.05 252.7 235.1 251.05 234.15 248.45 L234.15 205.65 M255.8 206.1 L256.2 206.45 266.7 199.35 267.7 201.2 Q268.8 205.45 267.9 209.6 L272.2 210.0 M267.9 209.6 Q267.15 213.2 264.95 216.65 261.15 219.7 257.35 218.0 L257.35 256.75 M256.2 206.45 L257.35 207.5 257.35 218.0 M247.5 214.3 Q247.9 212.55 248.45 212.55 248.95 212.55 249.35 214.3 249.7 216.0 249.7 218.45 249.7 220.85 249.35 222.6 248.95 224.3 248.45 224.35 247.9 224.3 247.5 222.6 247.1 220.85 247.1 218.45 247.1 216.0 247.5 214.3 M248.25 240.6 Q249.0 239.1 249.05 237.6 247.3 236.2 245.55 235.9 243.9 235.55 242.2 236.25 241.75 238.4 242.3 239.95 M242.75 240.8 Q244.4 243.75 246.5 242.5 L247.7 241.5 248.25 240.6 M244.45 247.55 L244.75 246.75 244.85 247.4 245.65 251.45 M276.45 241.45 L283.65 256.45 272.35 248.15 267.95 264.65 268.2 246.7 259.0 244.35 268.25 238.95 267.35 219.0 273.05 235.9 282.2 225.85 276.45 241.45 M285.8 210.5 L272.5 210.05 M240.85 215.3 L241.15 217.5 240.85 219.65 Q240.65 220.6 240.3 220.6 239.9 220.6 239.65 219.65 239.4 218.8 239.4 217.5 239.4 216.2 239.65 215.3 239.9 214.4 240.3 214.45 240.65 214.4 240.85 215.3 M241.0 254.45 Q242.7 252.65 244.45 247.55" ffdec:has-small-stroke="true" ffdec:original-stroke-width="0.05" fill="none" stroke="#000000" stroke-linecap="round" stroke-linejoin="round" stroke-opacity="0.3019608" stroke-width="1.0"/>
    <path d="M271.35 234.9 L272.6 239.0 278.05 232.35 M275.05 243.35 L280.15 252.1" fill="none" stroke="#ffffff" stroke-linecap="round" stroke-linejoin="round" stroke-width="1.0"/>
  </g>
</svg>
