<?xml version="1.0" encoding="UTF-8" standalone="no"?>
<svg xmlns:ffdec="https://www.free-decompiler.com/flash" xmlns:xlink="http://www.w3.org/1999/xlink" ffdec:objectType="shape" height="89.9px" width="85.35px" xmlns="http://www.w3.org/2000/svg">
  <g transform="matrix(1.0, 0.0, 0.0, 1.0, -210.7, -158.4)">
    <path d="M236.4 170.65 L241.8 168.0 257.4 158.4 246.15 172.9 246.15 178.65 238.65 186.25 238.65 180.0 238.9 179.0 236.4 170.65 M262.55 169.65 Q263.25 169.9 263.95 170.3 L268.65 167.75 270.85 167.75 268.3 170.45 263.1 170.85 263.05 170.8 262.55 169.65 M279.15 188.0 L282.05 187.4 292.3 186.05 296.05 195.3 Q295.4 196.95 294.25 198.4 L289.8 195.55 284.5 192.65 252.5 206.35 239.1 206.3 Q254.05 195.7 269.55 190.6 273.75 189.25 277.95 188.25 L279.15 188.0 M211.55 232.4 L211.55 230.9 Q212.85 228.4 214.2 226.4 212.55 218.95 213.15 211.75 L223.3 211.75 223.3 224.65 220.5 229.05 211.55 232.4 M213.95 206.0 L211.15 206.0 Q209.95 201.55 211.8 196.25 L211.85 195.9 213.05 196.0 219.15 184.15 Q223.45 178.25 229.95 174.1 232.2 172.6 234.9 171.4 L236.05 169.5 232.55 183.75 232.5 191.65 224.9 198.25 221.4 197.0 Q219.1 199.9 216.8 206.0 L213.95 206.0 M244.65 170.4 L246.15 172.9 244.65 170.4 M217.0 197.5 Q216.35 196.7 215.3 196.95 214.25 197.15 213.4 198.3 212.55 199.45 212.4 200.8 212.2 202.15 212.85 202.95 213.45 203.75 214.5 203.5 215.55 203.25 216.4 202.15 217.25 201.0 217.45 199.65 217.6 198.3 217.0 197.5 M234.9 171.4 L227.9 182.4 234.9 171.4 M263.95 170.3 L263.05 170.8 263.95 170.3 M231.1 203.55 Q230.55 204.8 229.45 205.7 228.3 206.55 227.25 206.55 226.2 206.5 225.8 205.55 225.4 204.6 225.9 203.35 226.4 202.1 227.55 201.25 228.65 200.35 229.75 200.4 230.8 200.45 231.2 201.4 231.6 202.3 231.1 203.55 M214.2 226.4 Q216.55 222.75 218.9 220.65 221.9 221.45 223.3 224.65 221.9 221.45 218.9 220.65 216.55 222.75 214.2 226.4" fill="#d0d0bf" fill-rule="evenodd" stroke="none"/>
    <path d="M257.4 158.4 L259.3 162.15 257.35 168.8 Q260.05 168.6 262.55 169.65 L263.05 170.8 263.1 170.85 268.3 170.45 270.85 167.75 271.15 167.75 269.85 174.35 274.9 180.25 279.15 188.0 277.95 188.25 271.55 180.75 260.05 177.25 252.2 181.75 247.8 184.25 Q242.75 188.3 237.3 196.0 L231.4 209.75 222.9 207.4 224.9 198.25 222.9 207.4 231.4 209.75 231.25 212.25 Q235.15 209.1 239.1 206.3 L252.5 206.35 284.5 192.65 289.8 195.55 294.25 198.4 Q290.9 202.65 282.35 205.8 L282.35 204.0 281.85 198.9 281.95 198.85 Q276.2 201.0 274.2 201.85 L272.4 202.65 Q251.9 211.5 227.3 224.75 L229.8 233.3 Q233.25 243.75 236.65 247.45 L237.55 248.3 228.8 248.3 225.05 244.05 217.85 233.15 Q214.7 233.3 211.55 232.4 L220.5 229.05 223.3 224.65 223.3 211.75 213.15 211.75 Q213.35 208.85 213.95 206.0 L216.8 206.0 Q219.1 199.9 221.4 197.0 L224.9 198.25 232.5 191.65 232.55 183.75 236.05 169.5 236.4 170.65 238.9 179.0 238.65 180.0 238.65 186.25 246.15 178.65 246.15 172.9 252.65 172.9 246.15 172.9 257.4 158.4 M217.0 197.5 Q217.6 198.3 217.45 199.65 217.25 201.0 216.4 202.15 215.55 203.25 214.5 203.5 213.45 203.75 212.85 202.95 212.2 202.15 212.4 200.8 212.55 199.45 213.4 198.3 214.25 197.15 215.3 196.95 216.35 196.7 217.0 197.5 M263.9 175.0 L263.9 174.0 262.65 171.0 263.05 170.8 262.65 171.0 263.9 174.0 263.9 175.0 M248.55 174.25 L252.8 175.5 255.4 175.5 257.35 168.8 255.4 175.5 252.8 175.5 248.55 174.25 M269.3 177.15 L269.85 174.35 269.3 177.15 M282.35 204.0 L281.95 198.85 Q286.6 196.75 289.8 195.55 286.6 196.75 281.95 198.85 L282.35 204.0 M231.1 203.55 Q231.6 202.3 231.2 201.4 230.8 200.45 229.75 200.4 228.65 200.35 227.55 201.25 226.4 202.1 225.9 203.35 225.4 204.6 225.8 205.55 226.2 206.5 227.25 206.55 228.3 206.55 229.45 205.7 230.55 204.8 231.1 203.55 M217.85 233.15 L222.3 232.4 Q223.95 228.55 223.3 224.65 223.95 228.55 222.3 232.4 L217.85 233.15 M231.25 212.25 Q226.45 217.0 227.3 224.75 226.45 217.0 231.25 212.25" fill="#9f968a" fill-rule="evenodd" stroke="none"/>
    <path d="M282.35 205.8 Q282.25 213.55 280.4 224.25 L273.95 221.65 Q275.55 213.2 274.2 201.85 276.2 201.0 281.95 198.85 L281.85 198.9 282.35 204.0 282.35 205.8 M252.2 181.75 L260.05 177.25 271.55 180.75 277.95 188.25 Q273.75 189.25 269.55 190.6 263.25 182.15 252.2 181.75" fill="#7b7264" fill-rule="evenodd" stroke="none"/>
    <path d="M236.4 170.65 L241.8 168.0 257.4 158.4 259.3 162.15 257.35 168.8 Q260.05 168.6 262.55 169.65 263.25 169.9 263.95 170.3 L268.65 167.75 270.85 167.75 271.15 167.75 269.85 174.35 274.9 180.25 279.15 188.0 282.05 187.4 M282.35 205.8 Q282.25 213.55 280.4 224.25 L273.95 221.65 Q275.55 213.2 274.2 201.85 L272.4 202.65 Q251.9 211.5 227.3 224.75 L229.8 233.3 Q233.25 243.75 236.65 247.45 L237.55 248.3 228.8 248.3 225.05 244.05 217.85 233.15 Q214.7 233.3 211.55 232.4 L211.55 230.9 Q212.85 228.4 214.2 226.4 212.55 218.95 213.15 211.75 213.35 208.85 213.95 206.0 L211.15 206.0 Q209.95 201.55 211.8 196.25 M211.85 195.9 L213.05 196.0 219.15 184.15 Q223.45 178.25 229.95 174.1 232.2 172.6 234.9 171.4 L236.05 169.5 236.4 170.65 238.9 179.0 238.65 180.0 238.65 186.25 M246.15 172.9 L244.65 170.4 M224.9 198.25 L222.9 207.4 231.4 209.75 237.3 196.0 Q242.75 188.3 247.8 184.25 L252.2 181.75 260.05 177.25 271.55 180.75 277.95 188.25 279.15 188.0 M227.9 182.4 L234.9 171.4 M263.05 170.8 L262.65 171.0 263.9 174.0 263.9 175.0 M252.65 172.9 L246.15 172.9 M257.35 168.8 L255.4 175.5 252.8 175.5 248.55 174.25 M269.55 190.6 Q273.75 189.25 277.95 188.25 M269.85 174.35 L269.3 177.15 M263.05 170.8 L263.95 170.3 M269.55 190.6 Q263.25 182.15 252.2 181.75 M282.35 205.8 L282.35 204.0 281.85 198.9 281.95 198.85 Q276.2 201.0 274.2 201.85 M289.8 195.55 Q286.6 196.75 281.95 198.85 L282.35 204.0 M231.4 209.75 L231.25 212.25 Q235.15 209.1 239.1 206.3 254.05 195.7 269.55 190.6 M213.95 206.0 L216.8 206.0 Q219.1 199.9 221.4 197.0 L224.9 198.25 M223.3 224.65 Q223.95 228.55 222.3 232.4 L217.85 233.15 M223.3 224.65 Q221.9 221.45 218.9 220.65 216.55 222.75 214.2 226.4 M227.3 224.75 Q226.45 217.0 231.25 212.25" ffdec:has-small-stroke="true" ffdec:original-stroke-width="0.05" fill="none" stroke="#000000" stroke-linecap="round" stroke-linejoin="round" stroke-opacity="0.3019608" stroke-width="1.0"/>
    <path d="M282.05 187.4 L292.3 186.05 296.05 195.3 Q295.4 196.95 294.25 198.4 290.9 202.65 282.35 205.8" ffdec:has-small-stroke="true" ffdec:original-stroke-width="0.05" fill="none" stroke="#000000" stroke-linecap="round" stroke-linejoin="round" stroke-opacity="0.3019608" stroke-width="1.0"/>
  </g>
</svg>
