<?xml version="1.0" encoding="UTF-8" standalone="no"?>
<svg xmlns:ffdec="https://www.free-decompiler.com/flash" xmlns:xlink="http://www.w3.org/1999/xlink" ffdec:objectType="shape" height="299.4px" width="283.15px" xmlns="http://www.w3.org/2000/svg">
  <g transform="matrix(1.0, 0.0, 0.0, 1.0, -158.35, -38.4)">
    <path d="M421.45 85.95 Q415.5 108.65 421.75 143.8 423.35 152.7 426.5 166.55 430.0 181.8 435.5 203.05 421.2 191.4 417.1 167.4 L417.5 167.3 417.5 167.15 Q413.75 126.65 416.0 87.3 L418.4 87.15 Q419.35 87.05 421.45 85.95 M419.75 164.35 L421.05 167.7 417.5 167.3 421.05 167.7 419.75 164.35 M345.85 191.5 L344.75 191.1 Q329.95 175.0 304.85 161.65 329.95 175.0 344.75 191.1 222.35 192.75 262.95 161.5 270.55 161.15 295.05 161.15 L304.85 161.65 Q323.95 163.35 352.8 171.4 L376.15 178.05 379.3 178.85 Q397.7 189.0 345.85 191.5 M422.85 172.25 L421.05 167.7 Q423.6 167.6 426.5 166.55 423.6 167.6 421.05 167.7 L422.85 172.25" fill="#d2e11e" fill-rule="evenodd" stroke="none"/>
    <path d="M402.05 82.4 Q402.3 81.2 405.25 80.8 L412.3 81.1 Q416.35 81.75 419.05 83.05 421.75 84.4 421.6 85.6 421.45 86.4 421.45 85.95 419.35 87.05 418.4 87.15 L416.0 87.3 411.35 86.9 Q407.3 86.25 404.6 84.9 L402.5 83.5 402.05 82.4 M439.15 241.45 L437.3 246.15 Q430.55 262.6 393.45 280.65 368.05 293.0 337.1 297.85 317.2 300.95 295.05 300.95 265.1 300.95 239.8 295.2 L240.95 288.55 Q292.8 300.95 347.45 287.05 L347.75 287.35 347.85 287.2 348.3 287.35 Q398.9 277.2 439.15 241.45 M234.1 293.85 Q223.55 291.1 213.85 287.35 L218.2 280.8 236.2 287.5 234.1 293.85 M206.6 284.35 L198.35 280.45 Q166.85 264.35 160.15 242.95 180.2 268.05 210.75 278.8 L206.6 284.35 M337.1 297.85 Q343.0 292.85 347.75 287.35 343.0 292.85 337.1 297.85" fill="#7d9717" fill-rule="evenodd" stroke="none"/>
    <path d="M416.0 87.3 Q413.75 126.65 417.5 167.15 L417.05 167.2 416.6 167.05 417.1 167.4 Q421.2 191.4 435.5 203.05 L437.4 210.3 Q402.85 231.65 365.9 242.95 L365.85 242.95 365.85 243.0 Q364.85 243.25 365.9 243.0 344.4 249.35 324.2 252.35 272.35 260.1 233.35 247.95 215.65 242.4 205.15 233.7 194.5 224.85 193.15 214.3 191.7 203.25 200.85 191.95 210.7 179.85 231.85 168.85 243.25 162.95 261.3 161.6 L262.95 161.5 Q222.35 192.75 344.75 191.1 L345.15 191.55 345.45 191.9 345.85 191.5 Q397.7 189.0 379.3 178.85 386.9 180.7 388.95 180.2 403.65 176.55 408.35 158.35 409.85 152.5 410.35 145.2 411.95 121.15 402.5 83.5 L404.6 84.9 Q407.3 86.25 411.35 86.9 L416.0 87.3 M412.2 158.55 L410.85 162.6 Q409.5 160.75 408.35 158.35 409.5 160.75 410.85 162.6 L412.2 158.55 M345.45 191.9 Q364.85 213.45 365.8 239.85 L365.85 242.95 365.8 239.85 Q364.85 213.45 345.45 191.9 M409.8 165.75 L410.85 162.6 Q413.35 165.85 416.6 167.05 413.35 165.85 410.85 162.6 L409.8 165.75 M285.85 196.35 Q280.25 196.55 274.8 197.7 L273.3 193.85 274.8 197.7 Q280.25 196.55 285.85 196.35 M257.9 203.5 L253.25 198.0 257.9 203.5 Q266.15 199.45 274.8 197.7 L277.5 204.7 274.8 197.7 Q266.15 199.45 257.9 203.5 L262.45 208.85 257.9 203.5 Q250.45 207.1 243.3 212.6 L246.55 215.55 243.3 212.6 Q250.45 207.1 257.9 203.5 M238.2 208.05 L243.3 212.6 Q236.0 218.15 229.0 225.6 236.0 218.15 243.3 212.6 L238.2 208.05" fill="#bfcd1b" fill-rule="evenodd" stroke="none"/>
    <path d="M417.5 167.15 L417.5 167.3 417.05 167.2 417.1 167.4 417.05 167.2 417.5 167.3 417.1 167.4 416.6 167.05 417.05 167.2 417.5 167.15 M344.75 191.1 L345.85 191.5 345.15 191.55 345.85 191.5 345.45 191.9 345.15 191.55 344.75 191.1 M365.85 243.0 L365.85 242.95 365.9 242.95 365.85 243.0" fill="#d13232" fill-rule="evenodd" stroke="none"/>
    <path d="M231.85 168.85 Q210.7 179.85 200.85 191.95 191.7 203.25 193.15 214.3 194.5 224.85 205.15 233.7 215.65 242.4 233.35 247.95 272.35 260.1 324.2 252.35 344.4 249.35 365.9 243.0 L365.9 242.95 Q402.85 231.65 437.4 210.3 L440.0 220.35 Q442.0 227.8 441.3 233.25 440.9 236.4 439.15 241.45 398.9 277.2 348.3 287.35 L348.7 286.85 348.8 286.7 Q364.05 266.2 365.9 243.0 364.05 266.2 348.8 286.7 L348.65 286.55 Q348.75 286.15 348.15 286.9 L347.45 287.05 Q292.8 300.95 240.95 288.55 L241.75 283.95 240.5 282.4 Q239.35 281.55 237.8 282.65 L236.2 287.5 218.2 280.8 224.75 270.8 Q224.4 269.3 223.7 268.3 L223.65 268.25 Q222.4 266.6 220.15 266.25 L210.75 278.8 Q180.2 268.05 160.15 242.95 158.35 237.2 158.35 231.05 158.35 202.1 198.35 181.6 213.85 173.7 231.85 168.85" fill="#8ba81a" fill-rule="evenodd" stroke="none"/>
    <path d="M365.9 243.0 Q364.85 243.25 365.85 243.0 L365.9 242.95 365.9 243.0 M348.8 286.7 L348.7 286.85 348.3 287.35 347.85 287.2 347.45 287.05 348.15 286.9 348.55 286.85 348.3 287.35 348.55 286.85 348.15 286.9 Q348.75 286.15 348.65 286.55 L348.8 286.7 M348.15 286.9 L347.85 287.2 348.15 286.9 M348.7 286.85 L348.55 286.85 348.65 286.55 348.55 286.85 348.7 286.85" fill="#a52525" fill-rule="evenodd" stroke="none"/>
    <path d="M347.45 287.05 L347.85 287.2 347.75 287.35 347.45 287.05" fill="#731a1a" fill-rule="evenodd" stroke="none"/>
    <path d="M239.8 295.2 L238.4 303.25 238.4 303.35 Q237.25 305.15 233.8 304.2 231.5 303.55 231.45 301.8 L231.5 301.7 Q232.15 300.15 234.6 300.6 235.9 300.85 236.75 301.25 L240.5 282.4 241.75 283.95 240.95 288.55 239.8 295.2 M213.85 287.35 L203.65 302.8 203.65 302.85 Q201.9 304.95 198.6 303.15 195.3 301.35 195.9 298.6 197.6 296.55 200.95 298.55 L201.9 299.2 201.5 299.7 201.9 299.2 223.7 268.3 Q224.4 269.3 224.75 270.8 L218.2 280.8 217.15 280.4 218.2 280.8 213.85 287.35 M203.65 302.8 Q204.15 300.85 201.9 299.2 204.15 300.85 203.65 302.8 M238.4 303.25 Q238.15 302.0 236.85 301.3 238.15 302.0 238.4 303.25 M236.85 301.3 L236.75 301.25 236.85 301.3" fill="#2c3e58" fill-rule="evenodd" stroke="none"/>
    <path d="M231.5 301.7 L234.1 293.85 236.2 287.5 237.8 282.65 Q239.35 281.55 240.5 282.4 L236.75 301.25 Q235.9 300.85 234.6 300.6 232.15 300.15 231.5 301.7 M195.9 298.6 L206.6 284.35 210.75 278.8 220.15 266.25 Q222.4 266.6 223.65 268.25 L223.7 268.3 201.9 299.2 200.95 298.55 Q197.6 296.55 195.9 298.6" fill="#425e88" fill-rule="evenodd" stroke="none"/>
    <path d="M402.05 82.4 Q402.3 81.2 405.25 80.8 L412.3 81.1 Q416.35 81.75 419.05 83.05 421.75 84.4 421.6 85.6 421.45 86.4 421.45 85.95 415.5 108.65 421.75 143.8 423.35 152.7 426.5 166.55 430.0 181.8 435.5 203.05 L437.4 210.3 440.0 220.35 Q442.0 227.8 441.3 233.25 440.9 236.4 439.15 241.45 L437.3 246.15 Q430.55 262.6 393.45 280.65 368.05 293.0 337.1 297.85 317.2 300.95 295.05 300.95 265.1 300.95 239.8 295.2 L238.4 303.25 238.4 303.35 Q237.25 305.15 233.8 304.2 231.5 303.55 231.45 301.8 L231.5 301.7 234.1 293.85 Q223.55 291.1 213.85 287.35 L203.65 302.8 203.65 302.85 Q201.9 304.95 198.6 303.15 195.3 301.35 195.9 298.6 L206.6 284.35 198.35 280.45 Q166.85 264.35 160.15 242.95 158.35 237.2 158.35 231.05 158.35 202.1 198.35 181.6 213.85 173.7 231.85 168.85 243.25 162.95 261.3 161.6 L262.95 161.5 Q270.55 161.15 295.05 161.15 L304.85 161.65 Q323.95 163.35 352.8 171.4 L376.15 178.05 379.3 178.85 Q386.9 180.7 388.95 180.2 403.65 176.55 408.35 158.35 409.85 152.5 410.35 145.2 411.95 121.15 402.5 83.5 L402.05 82.4 Q401.95 82.95 402.5 83.5 L404.6 84.9 Q407.3 86.25 411.35 86.9 L416.0 87.3 418.4 87.15 Q419.35 87.05 421.45 85.95 M223.7 268.3 Q224.4 269.3 224.75 270.8 L218.2 280.8 213.85 287.35 M236.2 287.5 L237.8 282.65 Q239.35 281.55 240.5 282.4 L241.75 283.95 240.95 288.55 239.8 295.2 M201.9 299.2 Q204.15 300.85 203.65 302.8 M210.75 278.8 L206.6 284.35 M236.2 287.5 L234.1 293.85 M223.65 268.25 Q222.4 266.6 220.15 266.25 L210.75 278.8 M231.5 301.7 Q232.15 300.15 234.6 300.6 235.9 300.85 236.75 301.25 M236.85 301.3 Q238.15 302.0 238.4 303.25 M201.9 299.2 L200.95 298.55 Q197.6 296.55 195.9 298.6" ffdec:has-small-stroke="true" ffdec:original-stroke-width="0.05" fill="none" stroke="#423213" stroke-linecap="round" stroke-linejoin="round" stroke-opacity="0.5019608" stroke-width="1.0"/>
    <path d="M435.5 203.05 L436.55 205.1 M417.5 167.3 L421.05 167.7 419.75 164.35 M408.35 158.35 Q409.5 160.75 410.85 162.6 L412.2 158.55 M345.85 191.5 L344.75 191.1 345.15 191.55 345.85 191.5 M304.85 161.65 Q329.95 175.0 344.75 191.1 M365.85 243.0 L365.85 242.95 365.8 239.85 Q364.85 213.45 345.45 191.9 L345.15 191.55 M416.6 167.05 Q413.35 165.85 410.85 162.6 L409.8 165.75 M417.5 167.3 L417.05 167.2 417.1 167.4 M426.5 166.55 Q423.6 167.6 421.05 167.7 L422.85 172.25 M416.6 167.05 L417.05 167.2 M365.9 243.0 Q364.05 266.2 348.8 286.7 L348.7 286.85 348.3 287.35 348.55 286.85 348.15 286.9 Q348.75 286.15 348.65 286.55 L348.55 286.85 348.7 286.85 M347.45 287.05 L347.85 287.2 348.15 286.9 347.45 287.05 M347.75 287.35 L347.85 287.2 348.3 287.35 M347.75 287.35 Q343.0 292.85 337.1 297.85 M273.3 193.85 L274.8 197.7 Q280.25 196.55 285.85 196.35 M277.5 204.7 L274.8 197.7 Q266.15 199.45 257.9 203.5 L262.45 208.85 M257.9 203.5 Q250.45 207.1 243.3 212.6 L246.55 215.55 M253.25 198.0 L257.9 203.5 M223.65 268.25 L223.7 268.3 M218.2 280.8 L217.15 280.4 M236.75 301.25 L236.85 301.3 M201.5 299.7 L201.9 299.2 M229.0 225.6 Q236.0 218.15 243.3 212.6 L238.2 208.05" ffdec:has-small-stroke="true" ffdec:original-stroke-width="0.05" fill="none" stroke="#000000" stroke-linecap="round" stroke-linejoin="round" stroke-opacity="0.3019608" stroke-width="1.0"/>
    <path d="M197.7 310.05 Q198.95 318.85 198.5 323.25 197.8 330.0 194.35 334.2 190.15 339.25 183.4 337.25 180.6 336.45 178.9 334.65 177.1 332.75 177.35 330.65 178.8 318.95 197.7 310.05" fill="#7d9717" fill-rule="evenodd" stroke="none"/>
    <path d="M197.7 310.05 Q178.8 318.95 177.35 330.65 177.1 332.75 178.9 334.65 180.6 336.45 183.4 337.25 190.15 339.25 194.35 334.2 197.8 330.0 198.5 323.25 198.95 318.85 197.7 310.05 Z" ffdec:has-small-stroke="true" ffdec:original-stroke-width="0.05" fill="none" stroke="#000000" stroke-linecap="round" stroke-linejoin="round" stroke-opacity="0.3019608" stroke-width="1.0"/>
    <path d="M230.1 321.15 Q229.05 321.0 228.35 320.4 227.6 319.75 227.6 319.0 227.55 314.6 234.1 310.5 234.95 313.7 235.0 315.35 235.05 317.85 234.0 319.55 232.65 321.6 230.1 321.15" fill="#7d9717" fill-rule="evenodd" stroke="none"/>
    <path d="M230.1 321.15 Q232.65 321.6 234.0 319.55 235.05 317.85 235.0 315.35 234.95 313.7 234.1 310.5 227.55 314.6 227.6 319.0 227.6 319.75 228.35 320.4 229.05 321.0 230.1 321.15 Z" ffdec:has-small-stroke="true" ffdec:original-stroke-width="0.05" fill="none" stroke="#000000" stroke-linecap="round" stroke-linejoin="round" stroke-opacity="0.3019608" stroke-width="1.0"/>
    <path d="M403.3 68.8 Q395.9 63.85 393.0 60.5 388.45 55.45 387.75 50.1 386.8 43.6 392.8 39.95 395.3 38.4 397.75 38.4 400.35 38.35 401.8 39.95 409.4 48.85 403.3 68.8" fill="#7d9717" fill-rule="evenodd" stroke="none"/>
    <path d="M403.3 68.8 Q409.4 48.85 401.8 39.95 400.35 38.35 397.75 38.4 395.3 38.4 392.8 39.95 386.8 43.6 387.75 50.1 388.45 55.45 393.0 60.5 395.9 63.85 403.3 68.8 Z" ffdec:has-small-stroke="true" ffdec:original-stroke-width="0.05" fill="none" stroke="#000000" stroke-linecap="round" stroke-linejoin="round" stroke-opacity="0.3019608" stroke-width="1.0"/>
    <path d="M429.6 63.45 Q430.55 64.0 431.05 64.85 431.55 65.7 431.25 66.5 429.6 70.8 421.6 72.4 421.9 68.95 422.5 67.3 423.4 64.8 425.15 63.55 L429.6 63.45" fill="#7d9717" fill-rule="evenodd" stroke="none"/>
    <path d="M429.6 63.45 L425.15 63.55 Q423.4 64.8 422.5 67.3 421.9 68.95 421.6 72.4 429.6 70.8 431.25 66.5 431.55 65.7 431.05 64.85 430.55 64.0 429.6 63.45 Z" ffdec:has-small-stroke="true" ffdec:original-stroke-width="0.05" fill="none" stroke="#000000" stroke-linecap="round" stroke-linejoin="round" stroke-opacity="0.3019608" stroke-width="1.0"/>
  </g>
</svg>
