<?xml version="1.0" encoding="UTF-8" standalone="no"?>
<svg xmlns:ffdec="https://www.free-decompiler.com/flash" xmlns:xlink="http://www.w3.org/1999/xlink" ffdec:objectType="shape" height="52.65px" width="64.6px" xmlns="http://www.w3.org/2000/svg">
  <g transform="matrix(1.0, 0.0, 0.0, 1.0, 32.3, 26.3)">
    <path d="M-24.85 4.95 L-16.8 0.5 -11.15 0.5 -3.45 2.3 Q-2.1 3.35 -0.65 4.1 L5.35 4.35 -8.35 8.3 -24.85 4.95 M-24.65 26.05 L-24.75 26.35 -24.95 26.35 -24.65 26.05" fill="#8e896c" fill-rule="evenodd" stroke="none"/>
    <path d="M-6.3 15.75 L-14.15 16.0 -30.45 11.2 -31.6 10.35 -32.2 9.35 -32.25 9.05 -32.3 8.5 -32.25 8.2 -32.05 7.4 -31.9 7.05 Q-21.15 -2.05 -9.7 -0.8 L-9.6 -0.75 -9.5 -0.8 -5.8 -0.25 0.0 0.05 0.15 0.0 0.5 -0.35 2.3 -2.1 3.3 -3.25 2.95 -5.15 4.2 -4.1 6.3 -5.45 6.15 -6.15 6.85 -5.7 Q9.9 -7.1 14.35 -7.15 L14.4 -7.15 Q29.5 -6.6 30.65 8.8 L30.8 8.75 30.65 9.2 30.6 9.35 30.95 11.55 30.7 12.0 32.3 16.75 29.45 13.75 28.95 14.3 29.7 17.25 27.95 15.15 Q25.95 16.6 23.2 17.4 L23.0 17.4 Q17.0 18.65 10.5 17.65 L9.45 20.55 8.35 17.25 7.95 17.2 7.55 17.1 3.6 15.4 3.95 13.75 Q1.6 15.75 -2.1 15.65 L-5.35 15.75 -5.4 15.7 -6.3 15.75 M-24.85 4.95 L-8.35 8.3 5.35 4.35 -0.65 4.1 Q-2.1 3.35 -3.45 2.3 L-11.15 0.5 -16.8 0.5 -24.85 4.95 M12.6 5.1 L13.3 5.8 13.75 6.0 12.6 5.1 M15.6 8.1 L15.7 8.2 15.7 8.1 15.6 8.1" fill="#78745b" fill-rule="evenodd" stroke="none"/>
    <path d="M-9.5 -0.8 L-9.6 -0.75 -9.7 -0.8 -9.5 -0.8" fill="#575445" fill-rule="evenodd" stroke="none"/>
    <path d="M-7.5 -11.0 L-7.45 -11.1 -7.5 -11.0 M15.6 8.1 L15.7 8.1 15.7 8.2 15.6 8.1 M12.6 5.1 L13.75 6.0 13.3 5.8 12.6 5.1" fill="#966d55" fill-rule="evenodd" stroke="none"/>
    <path d="M30.8 8.75 L30.65 8.8 Q29.5 -6.6 14.4 -7.15 L13.9 -8.25 13.9 -12.1 14.2 -13.4 15.7 -18.05 17.15 -21.15 Q19.2 -24.8 21.95 -25.9 L22.0 -25.95 23.2 -26.3 Q26.7 -22.95 29.85 -9.1 L31.5 -0.95 Q32.2 4.1 30.8 8.75" fill="#5e5a46" fill-rule="evenodd" stroke="none"/>
    <path d="M22.0 -25.95 L21.95 -25.9 22.0 -25.95" fill="#8a655b" fill-rule="evenodd" stroke="none"/>
    <path d="M13.7 21.95 L12.1 21.95 12.95 21.7 13.25 21.65 13.7 21.8 13.7 21.95" fill="#fefefe" fill-rule="evenodd" stroke="none"/>
    <path d="M-6.3 15.75 L-5.4 15.7 -5.35 15.75 -6.3 15.75" fill="#301617" fill-rule="evenodd" stroke="none"/>
    <path d="M-9.7 -0.8 Q-21.15 -2.05 -31.9 7.05 L-32.05 7.4 -32.25 8.2 -32.3 8.5 -32.25 9.05 -32.2 9.35 -31.6 10.35 -30.45 11.2 -14.15 16.0 -6.3 15.75 -5.4 15.7 -5.35 15.75 -2.1 15.65 Q1.6 15.75 3.95 13.75 L3.6 15.4 7.55 17.1 7.95 17.2 8.35 17.25 9.45 20.55 10.5 17.65 Q17.0 18.65 23.0 17.4 L23.2 17.4 Q25.95 16.6 27.95 15.15 L29.7 17.25 28.95 14.3 29.45 13.75 32.3 16.75 30.7 12.0 30.95 11.55 30.6 9.35 30.65 9.2 30.8 8.75 Q32.2 4.1 31.5 -0.95 L29.85 -9.1 Q26.7 -22.95 23.2 -26.3 L22.0 -25.95 M14.4 -7.15 L14.35 -7.15 Q9.9 -7.1 6.85 -5.7 L6.15 -6.15 6.3 -5.45 4.2 -4.1 2.95 -5.15 3.3 -3.25 2.3 -2.1 0.5 -0.35 0.15 0.0 0.0 0.05 -5.8 -0.25 -9.5 -0.8 M21.95 -25.9 Q19.2 -24.8 17.15 -21.15 L15.7 -18.05 14.2 -13.4 13.9 -12.1 13.9 -8.25 14.4 -7.15" ffdec:has-small-stroke="true" ffdec:original-stroke-width="0.05" fill="none" stroke="#000000" stroke-linecap="round" stroke-linejoin="round" stroke-opacity="0.3019608" stroke-width="1.0"/>
  </g>
</svg>
