<?xml version="1.0" encoding="UTF-8" standalone="no"?>
<svg xmlns:ffdec="https://www.free-decompiler.com/flash" xmlns:xlink="http://www.w3.org/1999/xlink" ffdec:objectType="shape" height="25.5px" width="24.45px" xmlns="http://www.w3.org/2000/svg">
  <g transform="matrix(1.0, 0.0, 0.0, 1.0, -239.0, -172.9)">
    <path d="M244.2 186.95 Q245.1 186.4 244.45 185.75 238.95 183.9 239.2 182.4 239.75 181.75 241.65 181.35 L244.15 181.25 244.85 181.45 246.05 182.05 Q247.55 183.45 247.35 183.85 248.0 183.6 247.6 182.55 246.45 179.25 244.8 176.25 L244.7 175.85 Q244.1 173.55 245.0 173.1 L246.35 173.0 246.5 173.05 Q247.85 173.4 249.95 175.15 L250.75 175.85 251.1 176.15 252.0 177.1 252.75 177.95 253.7 179.2 254.15 179.95 254.15 180.0 256.65 180.9 257.1 181.0 257.3 181.1 257.45 181.15 257.9 181.25 258.15 181.35 258.45 181.45 258.6 181.5 258.95 181.65 262.45 183.55 262.85 183.85 262.9 184.1 263.0 184.75 263.45 188.95 263.4 190.7 263.35 190.9 263.25 191.4 262.6 194.3 256.55 188.35 256.75 188.85 257.1 190.1 257.15 190.35 257.25 190.7 257.3 190.9 Q257.75 192.65 257.6 193.45 L257.6 193.5 257.6 193.55 257.3 194.05 250.55 190.1 Q250.2 189.75 249.75 189.85 245.9 192.25 243.45 191.05 L243.15 190.55 242.85 189.95 242.85 189.8 Q242.75 188.3 243.9 187.45 L244.15 187.2 244.2 186.95 M254.15 180.0 L254.4 180.4 254.45 180.55 254.5 180.65 255.45 182.5 254.5 180.65 254.45 180.55 254.4 180.4 254.15 180.0 M261.9 184.35 Q259.85 183.15 256.1 182.1 259.85 183.15 261.9 184.35 M252.9 180.05 Q251.55 178.05 249.55 176.55 251.55 178.05 252.9 180.05 M247.4 174.95 L248.3 175.6 247.4 174.95 M245.4 182.6 Q243.1 181.75 240.4 182.5 243.1 181.75 245.4 182.6" fill="#8c7b47" fill-rule="evenodd" stroke="none"/>
    <path d="M262.6 194.3 L262.1 197.95 262.05 198.4 261.85 198.1 261.75 197.9 261.65 197.7 261.55 197.5 261.5 197.45 257.95 193.8 257.65 193.6 257.6 193.55 257.6 193.5 257.6 193.45 Q257.75 192.65 257.3 190.9 L257.25 190.7 257.15 190.35 257.1 190.1 256.75 188.85 256.55 188.35 262.6 194.3" fill="#5b512f" fill-rule="evenodd" stroke="none"/>
    <path d="M244.2 186.95 L244.15 186.65 Q243.85 186.0 241.95 185.1 238.8 183.65 239.0 182.8 L239.2 182.4 Q238.95 183.9 244.45 185.75 245.1 186.4 244.2 186.95 M246.05 182.05 L246.35 182.2 Q247.4 182.8 245.55 178.3 L244.8 176.25 Q246.45 179.25 247.6 182.55 248.0 183.6 247.35 183.85 247.55 183.45 246.05 182.05 M257.3 194.05 L257.15 194.1 256.4 194.15 Q255.4 193.95 253.8 192.8 L253.55 192.6 251.0 191.0 250.4 190.7 250.1 190.7 Q249.3 190.8 247.4 191.7 245.4 192.65 244.3 192.05 L244.25 192.05 244.1 191.95 243.95 191.85 243.45 191.05 Q245.9 192.25 249.75 189.85 250.2 189.75 250.55 190.1 L257.3 194.05" fill="#6d6238" fill-rule="evenodd" stroke="none"/>
    <path d="M239.2 182.4 L239.0 182.8 Q238.8 183.65 241.95 185.1 243.85 186.0 244.15 186.65 L244.2 186.95 M239.2 182.4 Q239.75 181.75 241.65 181.35 L244.15 181.25 244.85 181.45 246.05 182.05 246.35 182.2 Q247.4 182.8 245.55 178.3 L244.8 176.25 M244.7 175.85 Q244.1 173.55 245.0 173.1 L246.35 173.0 246.5 173.05 Q247.85 173.4 249.95 175.15 L250.75 175.85 251.1 176.15 252.0 177.1 252.75 177.95 253.7 179.2 254.15 179.95 254.15 180.0 256.65 180.9 257.1 181.0 257.3 181.1 257.45 181.15 257.9 181.25 258.15 181.35 258.45 181.45 258.6 181.5 258.95 181.65 262.45 183.55 262.85 183.85 262.9 184.1 263.0 184.75 263.45 188.95 263.4 190.7 263.35 190.9 263.25 191.4 262.6 194.3 262.1 197.95 262.05 198.4 261.85 198.1 261.75 197.9 261.65 197.7 261.55 197.5 261.5 197.45 257.95 193.8 257.65 193.6 257.6 193.55 257.3 194.05 257.15 194.1 256.4 194.15 Q255.4 193.95 253.8 192.8 L253.55 192.6 251.0 191.0 250.4 190.7 250.1 190.7 Q249.3 190.8 247.4 191.7 245.4 192.65 244.3 192.05 L244.25 192.05 244.1 191.95 243.95 191.85 243.45 191.05 243.15 190.55 242.85 189.95 242.85 189.8 Q242.75 188.3 243.9 187.45 L244.15 187.2 M255.45 182.5 L254.5 180.65 254.45 180.55 254.4 180.4 254.15 180.0 M257.6 193.55 L257.6 193.5 257.6 193.45 Q257.75 192.65 257.3 190.9 L257.25 190.7 257.15 190.35 257.1 190.1 256.75 188.85 256.55 188.35" ffdec:has-small-stroke="true" ffdec:original-stroke-width="0.05" fill="none" stroke="#5a3c1f" stroke-linecap="round" stroke-linejoin="round" stroke-width="1.0"/>
    <path d="M256.1 182.1 Q259.85 183.15 261.9 184.35 M248.3 175.6 L247.4 174.95 M249.55 176.55 Q251.55 178.05 252.9 180.05 M240.4 182.5 Q243.1 181.75 245.4 182.6" fill="none" stroke="#ffffff" stroke-linecap="round" stroke-linejoin="round" stroke-width="1.0"/>
  </g>
</svg>
