<?xml version="1.0" encoding="UTF-8" standalone="no"?>
<svg xmlns:ffdec="https://www.free-decompiler.com/flash" xmlns:xlink="http://www.w3.org/1999/xlink" ffdec:objectType="shape" height="107.05px" width="105.8px" xmlns="http://www.w3.org/2000/svg">
  <g transform="matrix(1.0, 0.0, 0.0, 1.0, -220.5, -180.15)">
    <path d="M308.75 218.2 L300.3 222.5 298.85 219.95 295.2 220.3 305.5 208.6 308.0 207.65 309.65 202.9 305.5 202.9 303.6 202.4 303.85 201.95 306.35 198.15 303.0 191.55 298.85 195.3 Q289.8 194.35 280.1 198.1 L282.4 200.15 Q279.25 202.25 280.85 202.65 L290.1 205.4 295.5 203.85 298.85 204.8 298.85 206.7 292.1 213.8 290.1 219.5 293.0 222.8 293.0 224.0 293.4 224.2 Q295.05 229.65 294.8 234.85 L296.45 241.3 Q299.05 232.05 295.9 223.25 L297.6 223.25 Q299.4 228.5 298.65 234.1 L299.45 243.8 298.0 245.55 296.6 247.65 301.1 248.65 303.1 244.55 299.8 243.35 Q305.7 234.95 301.35 224.7 L303.85 227.55 Q305.4 224.0 309.0 221.3 L308.75 218.2 M272.6 196.75 L271.75 196.75 Q273.35 193.05 280.1 187.25 273.35 193.05 271.75 196.75 L272.6 196.75 M295.1 197.7 L296.75 198.65 Q289.1 201.25 280.85 202.65 289.1 201.25 296.75 198.65 L295.1 197.7 M274.65 200.6 L274.65 199.1 286.35 180.15 270.5 191.55 269.65 199.1 268.0 200.05 268.55 201.0 273.85 201.0 274.65 200.6 M270.4 229.45 Q265.7 221.25 257.15 215.2 L256.3 215.6 248.85 204.8 247.6 204.1 248.0 202.9 247.2 185.85 244.25 192.5 242.6 201.5 245.4 203.25 244.7 205.75 242.8 205.4 244.2 208.45 251.0 217.4 249.65 217.7 238.85 218.05 239.7 221.85 233.0 221.85 234.05 224.2 241.75 224.2 245.1 222.3 255.1 228.95 254.8 231.7 Q257.45 230.25 258.0 230.35 257.1 233.7 258.0 237.0 255.45 240.45 253.7 241.45 L253.45 244.1 258.4 248.85 264.25 260.7 268.0 255.95 Q264.1 250.25 272.15 244.6 L273.65 237.75 275.15 237.05 276.95 236.15 277.15 236.05 277.0 235.4 276.45 232.8 274.6 232.65 272.15 232.85 270.4 229.45 M245.1 200.55 L244.25 200.55 245.95 193.9 244.25 200.55 245.1 200.55 M252.7 216.9 Q247.35 210.95 246.75 207.15 L247.6 208.1 254.1 216.45 252.7 216.9 M287.85 227.1 L286.35 227.55 286.35 228.7 287.25 230.65 287.35 231.05 Q290.6 237.4 290.45 240.25 291.4 233.65 287.85 227.1 M291.35 232.4 Q293.8 237.65 293.5 241.6 294.85 234.0 292.55 225.8 L289.85 226.55 Q291.05 229.5 291.35 232.4" fill="#fffcd1" fill-rule="evenodd" stroke="none"/>
    <path d="M308.75 218.2 L309.0 221.3 Q311.8 219.15 315.9 217.6 L315.5 219.0 317.15 223.75 317.35 223.55 318.8 228.5 322.9 228.5 319.05 222.25 319.9 221.7 319.25 220.7 326.3 217.1 320.5 215.2 317.75 218.35 316.95 217.2 317.15 217.1 316.7 216.8 316.3 216.15 316.25 216.45 314.65 215.2 308.75 218.2 M303.1 244.55 L301.1 248.65 310.55 250.65 311.3 255.95 311.55 255.9 312.15 259.75 316.3 260.7 312.55 255.75 317.15 255.0 311.2 250.8 312.75 251.1 312.05 247.65 303.1 244.55 M296.6 247.65 L298.0 245.55 299.45 243.8 298.65 234.1 Q298.1 238.5 295.9 243.15 L296.45 241.3 294.8 234.85 Q294.6 238.6 293.4 242.2 L293.5 241.6 Q293.8 237.65 291.35 232.4 292.05 237.5 290.1 242.2 L290.45 240.25 Q290.6 237.4 287.35 231.05 289.5 236.65 286.75 242.2 287.9 237.55 286.35 233.05 L286.35 228.7 286.35 227.55 287.85 227.1 289.85 226.55 292.55 225.8 293.0 225.65 293.0 224.0 293.0 222.8 290.1 219.5 292.1 213.8 288.0 218.05 278.0 220.9 276.7 225.85 273.9 227.05 274.3 230.15 272.15 229.45 270.4 229.45 272.15 232.85 274.6 232.65 276.45 232.8 277.0 235.4 277.4 230.9 282.3 232.15 Q283.1 238.45 281.45 243.6 279.05 243.15 276.75 238.45 L276.95 236.15 275.15 237.05 275.5 239.85 Q280.2 246.85 285.5 249.3 L295.5 249.3 296.6 247.65 M290.1 205.4 L280.85 202.65 Q279.25 202.25 282.4 200.15 L280.1 198.1 Q277.4 199.15 274.65 200.6 L273.85 201.0 268.55 201.0 267.15 201.0 268.0 207.65 271.35 210.5 273.85 207.65 Q283.35 206.95 290.1 205.4 M264.25 260.7 L258.4 248.85 253.45 244.1 253.7 241.45 253.0 241.75 253.0 237.0 Q251.7 236.65 250.5 234.15 L254.8 231.7 255.1 228.95 245.1 222.3 241.75 224.2 234.05 224.2 235.5 227.55 242.6 229.9 241.2 236.1 241.35 236.05 255.05 254.3 257.15 254.75 258.0 255.0 Q260.85 259.1 262.1 263.45 L264.25 260.7 M249.65 217.7 L251.0 217.4 244.2 208.45 242.8 205.4 244.7 205.75 245.4 203.25 242.6 201.5 244.25 192.5 241.35 199.1 238.85 200.05 241.4 205.15 239.7 204.8 240.5 209.55 249.65 217.7 M247.6 208.1 L246.75 207.15 Q247.35 210.95 252.7 216.9 L254.1 216.45 247.6 208.1 M276.75 202.45 L275.9 203.35 280.85 202.65 275.9 203.35 276.75 202.45 M248.7 253.8 L248.5 253.75 248.55 253.8 248.7 253.8" fill="#d0cb88" fill-rule="evenodd" stroke="none"/>
    <path d="M253.7 241.45 Q255.45 240.45 258.0 237.0 257.1 233.7 258.0 230.35 257.45 230.25 254.8 231.7 L250.5 234.15 Q251.7 236.65 253.0 237.0 L253.0 241.75 253.7 241.45 M237.1 236.8 L237.65 236.7 239.05 236.5 Q238.9 235.25 239.7 234.15 L235.5 227.55 Q234.45 233.55 235.8 236.1 L236.75 236.65 237.1 236.8" fill="#000000" fill-rule="evenodd" stroke="none"/>
    <path d="M255.05 254.3 L241.35 236.05 241.2 236.1 239.05 236.5 237.65 236.7 237.45 236.95 236.85 237.75 Q227.4 250.2 225.95 256.4 230.75 265.05 233.3 263.6 234.7 260.9 238.0 259.75 L238.0 251.2 241.3 257.25 242.2 258.8 243.0 255.95 244.7 255.95 245.55 254.45 246.35 253.1 248.5 253.75 248.7 253.8 256.35 255.95 255.05 254.3 M262.1 263.45 Q260.85 259.1 258.0 255.0 L257.15 254.75 256.0 261.0 Q253.2 273.85 247.0 285.3 L247.2 287.2 Q255.95 285.3 263.1 269.7 263.0 266.45 262.1 263.45" fill="#e0d874" fill-rule="evenodd" stroke="none"/>
    <path d="M277.0 235.4 L277.15 236.05 276.95 236.15 276.75 238.45 Q279.05 243.15 281.45 243.6 283.1 238.45 282.3 232.15 L277.4 230.9 277.0 235.4 M241.2 236.1 L242.6 229.9 235.5 227.55 239.7 234.15 Q238.9 235.25 239.05 236.5 L241.2 236.1 M236.8 236.85 L237.1 236.8 236.75 236.65 236.8 236.85" fill="#aca544" fill-rule="evenodd" stroke="none"/>
    <path d="M237.65 236.7 L237.1 236.8 236.8 236.85 230.5 237.95 220.5 259.75 223.0 267.3 233.0 273.95 Q231.4 267.25 233.3 263.6 230.75 265.05 225.95 256.4 227.4 250.2 236.85 237.75 L237.45 236.95 237.65 236.7" fill="#d8ce52" fill-rule="evenodd" stroke="none"/>
    <path d="M247.0 285.3 Q253.2 273.85 256.0 261.0 L257.15 254.75 255.05 254.3 256.35 255.95 248.7 253.8 248.55 253.8 Q246.95 253.95 245.55 254.45 L244.7 255.95 243.0 255.95 242.2 258.8 241.3 257.25 Q240.4 258.3 239.7 259.75 245.9 272.55 247.0 285.3 M249.0 256.75 L250.7 255.95 253.75 255.3 Q255.5 257.2 255.2 260.3 255.1 261.95 254.35 264.0 249.85 263.3 248.7 272.55 248.5 274.3 248.45 276.4 242.4 260.95 249.0 256.75" fill="#aca326" fill-rule="evenodd" stroke="none"/>
    <path d="M248.7 272.55 Q249.85 263.3 254.35 264.0 255.1 261.95 255.2 260.3 255.5 257.2 253.75 255.3 L250.7 255.95 249.0 256.75 Q246.8 262.1 248.7 272.55" fill="#f47a68" fill-rule="evenodd" stroke="none"/>
    <path d="M249.0 256.75 Q242.4 260.95 248.45 276.4 248.5 274.3 248.7 272.55 246.8 262.1 249.0 256.75" fill="#f15943" fill-rule="evenodd" stroke="none"/>
    <path d="M280.1 198.1 Q289.8 194.35 298.85 195.3 L303.0 191.55 306.35 198.15 303.85 201.95 303.6 202.4 305.5 202.9 309.65 202.9 308.0 207.65 305.5 208.6 295.2 220.3 298.85 219.95 300.3 222.5 308.75 218.2 314.65 215.2 316.25 216.45 316.3 216.15 316.7 216.8 317.15 217.1 316.95 217.2 317.75 218.35 320.5 215.2 326.3 217.1 319.25 220.7 319.9 221.7 319.05 222.25 322.9 228.5 318.8 228.5 317.35 223.55 317.15 223.75 315.5 219.0 315.9 217.6 Q311.8 219.15 309.0 221.3 305.4 224.0 303.85 227.55 L301.35 224.7 Q305.7 234.95 299.8 243.35 L303.1 244.55 312.05 247.65 312.75 251.1 311.2 250.8 317.15 255.0 312.55 255.75 316.3 260.7 312.15 259.75 311.55 255.9 311.3 255.95 310.55 250.65 301.1 248.65 296.6 247.65 295.5 249.3 285.5 249.3 Q280.2 246.85 275.5 239.85 L275.15 237.05 273.65 237.75 272.15 244.6 Q264.1 250.25 268.0 255.95 L264.25 260.7 262.1 263.45 Q263.0 266.45 263.1 269.7 255.95 285.3 247.2 287.2 L247.0 285.3 Q245.9 272.55 239.7 259.75 240.4 258.3 241.3 257.25 L238.0 251.2 238.0 259.75 Q234.7 260.9 233.3 263.6 231.4 267.25 233.0 273.95 L223.0 267.3 220.5 259.75 230.5 237.95 236.8 236.85 M298.65 234.1 Q299.4 228.5 297.6 223.25 L295.9 223.25 Q299.05 232.05 296.45 241.3 L295.9 243.15 Q298.1 238.5 298.65 234.1 M294.8 234.85 Q295.05 229.65 293.4 224.2 L293.0 224.0 M292.1 213.8 L298.85 206.7 298.85 204.8 295.5 203.85 290.1 205.4 Q283.35 206.95 273.85 207.65 L271.35 210.5 268.0 207.65 267.15 201.0 268.55 201.0 268.0 200.05 269.65 199.1 270.5 191.55 286.35 180.15 274.65 199.1 274.65 200.6 Q277.4 199.15 280.1 198.1 M244.25 192.5 L247.2 185.85 248.0 202.9 247.6 204.1 248.85 204.8 256.3 215.6 257.15 215.2 Q265.7 221.25 270.4 229.45 L272.15 229.45 274.3 230.15 273.9 227.05 276.7 225.85 278.0 220.9 288.0 218.05 292.1 213.8 M234.05 224.2 L233.0 221.85 239.7 221.85 238.85 218.05 249.65 217.7 240.5 209.55 239.7 204.8 241.4 205.15 238.85 200.05 241.35 199.1 244.25 192.5 M235.5 227.55 L234.05 224.2 M286.35 228.7 L286.35 233.05 Q287.9 237.55 286.75 242.2 289.5 236.65 287.35 231.05 L287.25 230.65 286.35 228.7 M290.45 240.25 L290.1 242.2 Q292.05 237.5 291.35 232.4 291.05 229.5 289.85 226.55 L287.85 227.1 Q291.4 233.65 290.45 240.25 M293.5 241.6 L293.4 242.2 Q294.6 238.6 294.8 234.85 M248.5 253.75 L246.35 253.1 245.55 254.45 Q246.95 253.95 248.55 253.8 M292.55 225.8 Q294.85 234.0 293.5 241.6" ffdec:has-small-stroke="true" ffdec:original-stroke-width="0.05" fill="none" stroke="#000000" stroke-linecap="round" stroke-linejoin="round" stroke-opacity="0.3019608" stroke-width="1.0"/>
    <path d="M280.85 202.65 Q289.1 201.25 296.75 198.65 L295.1 197.7 M280.1 187.25 Q273.35 193.05 271.75 196.75 L272.6 196.75 M245.95 193.9 L244.25 200.55 245.1 200.55 M280.85 202.65 L275.9 203.35 276.75 202.45 M247.0 285.3 Q253.2 273.85 256.0 261.0 L257.15 254.75" ffdec:has-small-stroke="true" ffdec:original-stroke-width="0.75" fill="none" stroke="#000000" stroke-linecap="round" stroke-linejoin="round" stroke-opacity="0.3019608" stroke-width="1.0"/>
    <path d="M252.7 216.9 Q247.35 210.95 246.75 207.15 L247.6 208.1" ffdec:has-small-stroke="true" ffdec:original-stroke-width="0.75" fill="none" stroke="#000000" stroke-linecap="round" stroke-linejoin="round" stroke-opacity="0.3019608" stroke-width="1.0"/>
  </g>
</svg>
