<?xml version="1.0" encoding="UTF-8" standalone="no"?>
<svg xmlns:ffdec="https://www.free-decompiler.com/flash" xmlns:xlink="http://www.w3.org/1999/xlink" ffdec:objectType="shape" height="204.45px" width="66.25px" xmlns="http://www.w3.org/2000/svg">
  <g transform="matrix(1.0, 0.0, 0.0, 1.0, 33.1, 102.8)">
    <path d="M4.3 -21.8 Q15.3 -18.25 8.7 -2.45 -4.4 -10.65 -25.7 -4.65 L-26.1 -12.35 4.3 -21.8" fill="#313309" fill-rule="evenodd" stroke="none"/>
    <path d="M4.3 -21.8 L-26.1 -12.35 -25.7 -4.65 Q-4.4 -10.65 8.7 -2.45 15.3 -18.25 4.3 -21.8 M-32.4 -87.05 Q-9.2 -86.65 7.3 -61.5 22.45 -38.4 23.9 -6.7 15.35 69.7 -32.85 78.45 L-32.4 -87.05 M-24.3 -62.1 L-13.95 -60.95 -13.15 -65.3 -22.25 -70.7 -24.3 -62.1 M-7.7 -51.65 L-24.3 -49.9 -21.0 -36.85 -6.4 -45.0 -7.7 -51.65 M-18.1 16.85 L8.15 7.25 -13.7 8.45 -18.1 16.85 M-2.5 43.35 L-3.8 36.7 -20.4 38.45 -17.1 51.5 -2.5 43.35" fill="#77c1dd" fill-rule="evenodd" stroke="none"/>
    <path d="M-22.3 -62.95 L-15.35 -62.15 -14.8 -65.25 -20.9 -69.05 -22.3 -62.95 M-24.3 -62.1 L-22.25 -70.7 -13.15 -65.3 -13.95 -60.95 -24.3 -62.1 M-7.7 -51.65 L-6.4 -45.0 -21.0 -36.85 -24.3 -49.9 -7.7 -51.65 M-4.9 10.0 L-12.55 10.05 -14.1 13.35 -4.9 10.0 M-18.6 -40.45 L-9.5 -45.5 -10.35 -49.65 -20.65 -48.55 -18.6 -40.45 M-18.1 16.85 L-13.7 8.45 8.15 7.25 -18.1 16.85 M-2.5 43.35 L-17.1 51.5 -20.4 38.45 -3.8 36.7 -2.5 43.35 M-5.4 42.55 L-7.0 39.65 -17.25 42.95 -15.6 46.3 -5.4 42.55" fill="#c07932" fill-rule="evenodd" stroke="none"/>
    <path d="M23.9 -6.7 L24.05 0.15 Q24.05 36.25 7.3 61.8 -9.35 87.2 -32.85 87.35 L-32.85 78.45 Q15.35 69.7 23.9 -6.7" fill="#36a4cd" fill-rule="evenodd" stroke="none"/>
    <path d="M-32.4 -87.05 L-32.4 -101.65 Q-5.5 -101.05 13.6 -71.9 33.15 -42.1 33.15 0.0 33.15 42.05 13.6 71.85 -5.6 101.15 -32.65 101.65 L-32.85 87.35 Q-9.35 87.2 7.3 61.8 24.05 36.25 24.05 0.15 L23.9 -6.7 Q22.45 -38.4 7.3 -61.5 -9.2 -86.65 -32.4 -87.05" fill="#ac8139" fill-rule="evenodd" stroke="none"/>
    <path d="M-22.3 -62.95 L-20.9 -69.05 -14.8 -65.25 -15.35 -62.15 -22.3 -62.95 M-18.6 -40.45 L-20.65 -48.55 -10.35 -49.65 -9.5 -45.5 -18.6 -40.45 M-4.9 10.0 L-14.1 13.35 -12.55 10.05 -4.9 10.0 M-5.4 42.55 L-15.6 46.3 -17.25 42.95 -7.0 39.65 -5.4 42.55" fill="#d3eef3" fill-rule="evenodd" stroke="none"/>
    <path d="M4.3 -21.8 L-26.1 -12.35 -25.7 -4.65 Q-4.4 -10.65 8.7 -2.45 15.3 -18.25 4.3 -21.8 M-32.85 87.35 L-32.65 101.65 Q-5.6 101.15 13.6 71.85 33.15 42.05 33.15 0.0 33.15 -42.1 13.6 -71.9 -5.5 -101.05 -32.4 -101.65 L-32.4 -87.05 Q-9.2 -86.65 7.3 -61.5 22.45 -38.4 23.9 -6.7 L24.05 0.15 Q24.05 36.25 7.3 61.8 -9.35 87.2 -32.85 87.35 L-32.85 78.45 -32.4 -87.05 -33.1 -87.05 M-33.1 -101.65 L-32.4 -101.65 -32.4 -102.8 M-24.3 -62.1 L-13.95 -60.95 -13.15 -65.3 -22.25 -70.7 -24.3 -62.1 M-7.7 -51.65 L-6.4 -45.0 -21.0 -36.85 -24.3 -49.9 -7.7 -51.65 M-18.1 16.85 L8.15 7.25 -13.7 8.45 -18.1 16.85 M-2.5 43.35 L-17.1 51.5 -20.4 38.45 -3.8 36.7 -2.5 43.35 Z" ffdec:has-small-stroke="true" ffdec:original-stroke-width="0.05" fill="none" stroke="#000000" stroke-linecap="round" stroke-linejoin="round" stroke-opacity="0.3019608" stroke-width="1.0"/>
  </g>
</svg>
