<?xml version="1.0" encoding="UTF-8" standalone="no"?>
<svg xmlns:ffdec="https://www.free-decompiler.com/flash" xmlns:xlink="http://www.w3.org/1999/xlink" ffdec:objectType="shape" height="257.15px" width="283.15px" xmlns="http://www.w3.org/2000/svg">
  <g transform="matrix(1.0, 0.0, 0.0, 1.0, -146.3, -78.5)">
    <path d="M211.65 266.15 L211.6 266.1 Q210.35 264.45 208.1 264.1 L201.0 273.6 Q175.45 260.05 157.35 231.55 227.4 280.4 282.95 282.85 253.6 288.3 229.4 283.55 L229.7 281.8 228.45 280.25 Q227.3 279.4 225.75 280.5 L225.05 282.6 Q215.85 280.4 207.4 276.7 L212.7 268.65 Q212.35 267.15 211.65 266.15" fill="#7b7a02" fill-rule="evenodd" stroke="none"/>
    <path d="M409.4 83.8 Q407.3 84.9 406.35 85.0 L403.95 85.15 399.3 84.75 Q395.25 84.1 392.55 82.75 L390.45 81.35 390.0 80.25 Q390.25 79.05 393.2 78.65 L400.25 78.95 Q404.3 79.6 407.0 80.9 409.7 82.25 409.55 83.45 409.4 84.25 409.4 83.8 M427.1 239.3 L425.25 244.0 Q418.5 260.45 381.4 278.5 356.0 290.85 325.05 295.7 305.15 298.8 283.0 298.8 253.05 298.8 227.75 293.05 L228.9 286.4 Q280.75 298.8 335.4 284.9 L335.7 285.2 335.8 285.05 336.25 285.2 Q364.85 279.45 390.15 265.55 411.4 263.45 420.45 244.95 L427.1 239.3 M222.05 291.7 Q211.5 288.95 201.8 285.2 L206.15 278.65 224.15 285.35 222.05 291.7 M194.55 282.2 L186.3 278.3 Q154.8 262.2 148.1 240.8 168.15 265.9 198.7 276.65 L194.55 282.2 M325.05 295.7 Q330.95 290.7 335.7 285.2 330.95 290.7 325.05 295.7" fill="#7d9717" fill-rule="evenodd" stroke="none"/>
    <path d="M403.95 85.15 Q401.7 124.5 405.45 165.0 L405.0 165.05 404.55 164.9 405.05 165.25 Q409.15 189.25 423.45 200.9 L425.35 208.15 Q390.8 229.5 353.85 240.8 L353.8 240.8 353.75 237.7 Q352.8 211.3 333.4 189.75 352.8 211.3 353.75 237.7 L353.8 240.8 353.8 240.85 Q352.8 241.1 353.85 240.85 332.35 247.2 312.15 250.2 260.3 257.95 221.3 245.8 203.6 240.25 193.1 231.55 182.45 222.7 181.1 212.15 179.65 201.1 188.8 189.8 198.65 177.7 219.8 166.7 231.2 160.8 249.25 159.45 L250.9 159.35 Q210.3 190.6 332.7 188.95 L333.1 189.4 333.4 189.75 333.8 189.35 Q385.65 186.85 367.25 176.7 374.85 178.55 376.9 178.05 391.6 174.4 396.3 156.2 397.8 150.35 398.3 143.05 399.9 119.0 390.45 81.35 L392.55 82.75 Q395.25 84.1 399.3 84.75 L403.95 85.15 M400.15 156.4 L398.8 160.45 Q397.45 158.6 396.3 156.2 397.45 158.6 398.8 160.45 L400.15 156.4 M397.75 163.6 L398.8 160.45 Q401.3 163.7 404.55 164.9 401.3 163.7 398.8 160.45 L397.75 163.6 M226.15 205.9 L231.25 210.45 Q223.95 216.0 216.95 223.45 223.95 216.0 231.25 210.45 L226.15 205.9 M234.5 213.4 L231.25 210.45 Q238.4 204.95 245.85 201.35 L250.4 206.7 245.85 201.35 Q238.4 204.95 231.25 210.45 L234.5 213.4 M273.8 194.2 Q268.2 194.4 262.75 195.55 L261.25 191.7 262.75 195.55 Q268.2 194.4 273.8 194.2 M265.45 202.55 L262.75 195.55 Q254.1 197.3 245.85 201.35 L241.2 195.85 245.85 201.35 Q254.1 197.3 262.75 195.55 L265.45 202.55" fill="#bfcd1b" fill-rule="evenodd" stroke="none"/>
    <path d="M403.95 85.15 L406.35 85.0 Q407.3 84.9 409.4 83.8 403.45 106.5 409.7 141.65 411.3 150.55 414.45 164.4 417.95 179.65 423.45 200.9 409.15 189.25 405.05 165.25 L405.45 165.15 405.45 165.0 Q401.7 124.5 403.95 85.15 M407.7 162.2 L409.0 165.55 405.45 165.15 409.0 165.55 407.7 162.2 M250.9 159.35 Q258.5 159.0 283.0 159.0 L292.8 159.5 Q311.9 161.2 340.75 169.25 L364.1 175.9 367.25 176.7 Q385.65 186.85 333.8 189.35 L332.7 188.95 Q210.3 190.6 250.9 159.35 M292.8 159.5 Q317.9 172.85 332.7 188.95 317.9 172.85 292.8 159.5 M410.8 170.1 L409.0 165.55 Q411.55 165.45 414.45 164.4 411.55 165.45 409.0 165.55 L410.8 170.1" fill="#d2e11e" fill-rule="evenodd" stroke="none"/>
    <path d="M405.45 165.0 L405.45 165.15 405.0 165.05 405.05 165.25 404.55 164.9 405.0 165.05 405.45 165.0 M333.8 189.35 L333.4 189.75 333.1 189.4 332.7 188.95 333.8 189.35 333.1 189.4 333.8 189.35 M353.8 240.8 L353.85 240.8 353.8 240.85 353.8 240.8 M405.05 165.25 L405.0 165.05 405.45 165.15 405.05 165.25" fill="#d13232" fill-rule="evenodd" stroke="none"/>
    <path d="M353.85 240.8 Q390.8 229.5 425.35 208.15 L427.95 218.2 Q429.95 225.65 429.25 231.1 428.85 234.25 427.1 239.3 L420.45 244.95 Q424.35 236.95 426.0 225.9 410.65 258.5 381.5 265.75 386.05 265.95 390.15 265.55 364.85 279.45 336.25 285.2 L336.65 284.7 336.75 284.55 336.6 284.4 Q336.7 284.0 336.1 284.75 L335.4 284.9 Q280.75 298.8 228.9 286.4 L229.4 283.55 Q253.6 288.3 282.95 282.85 227.4 280.4 157.35 231.55 175.45 260.05 201.0 273.6 L198.7 276.65 Q168.15 265.9 148.1 240.8 146.3 235.05 146.3 228.9 146.3 199.95 186.3 179.45 201.8 171.55 219.8 166.7 198.65 177.7 188.8 189.8 179.65 201.1 181.1 212.15 182.45 222.7 193.1 231.55 203.6 240.25 221.3 245.8 260.3 257.95 312.15 250.2 332.35 247.2 353.85 240.85 L353.85 240.8 M383.65 237.75 Q383.2 238.35 383.45 239.1 383.7 239.9 384.4 240.1 L385.85 240.15 386.8 239.65 387.95 240.35 391.55 240.55 Q393.45 239.95 394.45 238.35 395.4 236.75 394.9 235.1 394.4 233.45 392.7 232.7 L389.05 232.55 Q387.15 233.1 386.2 234.75 385.55 235.75 385.55 236.8 L384.85 236.9 Q384.05 237.15 383.65 237.75 M336.75 284.55 Q352.0 264.05 353.85 240.85 352.0 264.05 336.75 284.55 M207.4 276.7 Q215.85 280.4 225.05 282.6 L224.15 285.35 206.15 278.65 207.4 276.7" fill="#8ba81a" fill-rule="evenodd" stroke="none"/>
    <path d="M353.85 240.85 Q352.8 241.1 353.8 240.85 L353.85 240.8 353.85 240.85 M336.75 284.55 L336.65 284.7 336.25 285.2 336.5 284.7 336.1 284.75 335.8 285.05 336.1 284.75 336.5 284.7 336.25 285.2 335.8 285.05 335.4 284.9 336.1 284.75 Q336.7 284.0 336.6 284.4 L336.75 284.55 M336.65 284.7 L336.5 284.7 336.6 284.4 336.5 284.7 336.65 284.7" fill="#a52525" fill-rule="evenodd" stroke="none"/>
    <path d="M335.8 285.05 L335.7 285.2 335.4 284.9 335.8 285.05" fill="#731a1a" fill-rule="evenodd" stroke="none"/>
    <path d="M219.45 299.55 L222.05 291.7 224.15 285.35 225.05 282.6 225.75 280.5 Q227.3 279.4 228.45 280.25 L224.7 299.1 222.55 298.45 Q220.1 298.0 219.45 299.55 M183.85 296.45 L194.55 282.2 198.7 276.65 201.0 273.6 208.1 264.1 Q210.35 264.45 211.6 266.1 L211.65 266.15 189.85 297.05 188.9 296.4 Q185.55 294.4 183.85 296.45" fill="#425e88" fill-rule="evenodd" stroke="none"/>
    <path d="M227.75 293.05 L226.35 301.1 226.35 301.2 Q225.2 303.0 221.75 302.05 219.45 301.4 219.4 299.65 L219.45 299.55 Q220.1 298.0 222.55 298.45 L224.7 299.1 228.45 280.25 229.7 281.8 229.4 283.55 228.9 286.4 227.75 293.05 M201.8 285.2 L191.6 300.65 191.6 300.7 Q189.85 302.8 186.55 301.0 183.25 299.2 183.85 296.45 185.55 294.4 188.9 296.4 L189.85 297.05 Q192.1 298.7 191.6 300.65 192.1 298.7 189.85 297.05 L189.45 297.55 189.85 297.05 211.65 266.15 Q212.35 267.15 212.7 268.65 L207.4 276.7 206.15 278.65 201.8 285.2 M224.8 299.15 L224.7 299.1 224.8 299.15 Q226.1 299.85 226.35 301.1 226.1 299.85 224.8 299.15" fill="#2c3e58" fill-rule="evenodd" stroke="none"/>
    <path d="M390.15 265.55 Q386.05 265.95 381.5 265.75 410.65 258.5 426.0 225.9 424.35 236.95 420.45 244.95 411.4 263.45 390.15 265.55" fill="#706f03" fill-rule="evenodd" stroke="none"/>
    <path d="M409.4 83.8 Q407.3 84.9 406.35 85.0 L403.95 85.15 399.3 84.75 Q395.25 84.1 392.55 82.75 L390.45 81.35 Q399.9 119.0 398.3 143.05 397.8 150.35 396.3 156.2 391.6 174.4 376.9 178.05 374.85 178.55 367.25 176.7 L364.1 175.9 340.75 169.25 Q311.9 161.2 292.8 159.5 L283.0 159.0 Q258.5 159.0 250.9 159.35 L249.25 159.45 Q231.2 160.8 219.8 166.7 201.8 171.55 186.3 179.45 146.3 199.95 146.3 228.9 146.3 235.05 148.1 240.8 154.8 262.2 186.3 278.3 L194.55 282.2 183.85 296.45 Q183.25 299.2 186.55 301.0 189.85 302.8 191.6 300.7 L191.6 300.65 201.8 285.2 Q211.5 288.95 222.05 291.7 L219.45 299.55 Q220.1 298.0 222.55 298.45 L224.7 299.1 M390.0 80.25 Q390.25 79.05 393.2 78.65 L400.25 78.95 Q404.3 79.6 407.0 80.9 409.7 82.25 409.55 83.45 409.4 84.25 409.4 83.8 403.45 106.5 409.7 141.65 411.3 150.55 414.45 164.4 417.95 179.65 423.45 200.9 L425.35 208.15 427.95 218.2 Q429.95 225.65 429.25 231.1 428.85 234.25 427.1 239.3 L425.25 244.0 Q418.5 260.45 381.4 278.5 356.0 290.85 325.05 295.7 305.15 298.8 283.0 298.8 253.05 298.8 227.75 293.05 L226.35 301.1 226.35 301.2 Q225.2 303.0 221.75 302.05 219.45 301.4 219.4 299.65 L219.45 299.55 M390.0 80.25 Q389.9 80.8 390.45 81.35 L390.0 80.25 M228.9 286.4 L227.75 293.05 M189.85 297.05 L188.9 296.4 Q185.55 294.4 183.85 296.45 M201.0 273.6 L198.7 276.65 194.55 282.2 M211.65 266.15 Q212.35 267.15 212.7 268.65 L207.4 276.7 206.15 278.65 201.8 285.2 M225.05 282.6 L225.75 280.5 Q227.3 279.4 228.45 280.25 L229.7 281.8 229.4 283.55 228.9 286.4 M201.0 273.6 L208.1 264.1 Q210.35 264.45 211.6 266.1 M224.15 285.35 L225.05 282.6 M224.15 285.35 L222.05 291.7 M224.8 299.15 Q226.1 299.85 226.35 301.1 M189.85 297.05 Q192.1 298.7 191.6 300.65" ffdec:has-small-stroke="true" ffdec:original-stroke-width="0.05" fill="none" stroke="#423213" stroke-linecap="round" stroke-linejoin="round" stroke-opacity="0.5019608" stroke-width="1.0"/>
    <path d="M405.45 165.15 L409.0 165.55 407.7 162.2 M423.45 200.9 L424.5 202.95 M396.3 156.2 Q397.45 158.6 398.8 160.45 L400.15 156.4 M333.4 189.75 Q352.8 211.3 353.75 237.7 L353.8 240.8 353.8 240.85 M404.55 164.9 Q401.3 163.7 398.8 160.45 L397.75 163.6 M333.4 189.75 L333.1 189.4 332.7 188.95 Q317.9 172.85 292.8 159.5 M333.1 189.4 L333.8 189.35 332.7 188.95 M405.45 165.15 L405.0 165.05 405.05 165.25 M414.45 164.4 Q411.55 165.45 409.0 165.55 L410.8 170.1 M404.55 164.9 L405.0 165.05 M353.85 240.85 Q352.0 264.05 336.75 284.55 L336.65 284.7 336.25 285.2 336.5 284.7 336.1 284.75 335.8 285.05 336.25 285.2 M336.6 284.4 L336.5 284.7 336.65 284.7 M335.8 285.05 L335.7 285.2 Q330.95 290.7 325.05 295.7 M335.4 284.9 L335.8 285.05 M336.1 284.75 L335.4 284.9 M336.6 284.4 Q336.7 284.0 336.1 284.75 M261.25 191.7 L262.75 195.55 Q268.2 194.4 273.8 194.2 M250.4 206.7 L245.85 201.35 Q238.4 204.95 231.25 210.45 L234.5 213.4 M216.95 223.45 Q223.95 216.0 231.25 210.45 L226.15 205.9 M211.6 266.1 L211.65 266.15 M224.7 299.1 L224.8 299.15 M189.45 297.55 L189.85 297.05 M241.2 195.85 L245.85 201.35 Q254.1 197.3 262.75 195.55 L265.45 202.55" ffdec:has-small-stroke="true" ffdec:original-stroke-width="0.05" fill="none" stroke="#000000" stroke-linecap="round" stroke-linejoin="round" stroke-opacity="0.3019608" stroke-width="1.0"/>
    <path d="M185.65 307.9 Q186.9 316.7 186.45 321.1 185.75 327.85 182.3 332.05 178.1 337.1 171.35 335.1 168.55 334.3 166.85 332.5 165.05 330.6 165.3 328.5 166.75 316.8 185.65 307.9" fill="#7d9717" fill-rule="evenodd" stroke="none"/>
    <path d="M185.65 307.9 Q166.75 316.8 165.3 328.5 165.05 330.6 166.85 332.5 168.55 334.3 171.35 335.1 178.1 337.1 182.3 332.05 185.75 327.85 186.45 321.1 186.9 316.7 185.65 307.9 Z" ffdec:has-small-stroke="true" ffdec:original-stroke-width="0.05" fill="none" stroke="#000000" stroke-linecap="round" stroke-linejoin="round" stroke-opacity="0.3019608" stroke-width="1.0"/>
    <path d="M218.05 319.0 Q217.0 318.85 216.3 318.25 215.55 317.6 215.55 316.85 215.5 312.45 222.05 308.35 222.9 311.55 222.95 313.2 223.0 315.7 221.95 317.4 220.6 319.45 218.05 319.0" fill="#7d9717" fill-rule="evenodd" stroke="none"/>
    <path d="M218.05 319.0 Q220.6 319.45 221.95 317.4 223.0 315.7 222.95 313.2 222.9 311.55 222.05 308.35 215.5 312.45 215.55 316.85 215.55 317.6 216.3 318.25 217.0 318.85 218.05 319.0 Z" ffdec:has-small-stroke="true" ffdec:original-stroke-width="0.05" fill="none" stroke="#000000" stroke-linecap="round" stroke-linejoin="round" stroke-opacity="0.3019608" stroke-width="1.0"/>
  </g>
</svg>
