<?xml version="1.0" encoding="UTF-8" standalone="no"?>
<svg xmlns:ffdec="https://www.free-decompiler.com/flash" xmlns:xlink="http://www.w3.org/1999/xlink" ffdec:objectType="shape" height="160.3px" width="167.3px" xmlns="http://www.w3.org/2000/svg">
  <g transform="matrix(1.0, 0.0, 0.0, 1.0, -141.45, -110.3)">
    <path d="M146.9 269.3 L141.45 270.6 149.4 253.95 166.15 227.45 172.8 225.05 179.8 223.9 179.9 224.05 179.95 224.05 184.85 224.75 190.7 229.3 191.85 236.6 191.6 237.45 184.95 230.35 171.6 232.15 167.5 237.4 164.25 238.3 156.1 249.8 145.65 269.1 147.25 267.7 146.9 269.3" fill="#7c8970" fill-rule="evenodd" stroke="none"/>
    <path d="M191.6 237.45 L186.05 253.6 158.85 266.45 146.9 269.3 147.25 267.7 164.05 253.05 179.8 234.0 167.5 237.4 171.6 232.15 184.95 230.35 191.6 237.45" fill="#9ca992" fill-rule="evenodd" stroke="none"/>
    <path d="M147.25 267.7 L145.65 269.1 156.1 249.8 164.25 238.3 167.5 237.4 179.8 234.0 164.05 253.05 147.25 267.7" fill="#bfc7b8" fill-rule="evenodd" stroke="none"/>
    <path d="M146.9 269.3 L141.45 270.6 149.4 253.95 166.15 227.45 172.8 225.05 179.8 223.9 179.95 224.05 184.85 224.75 190.7 229.3 191.85 236.6 191.6 237.45 186.05 253.6 158.85 266.45 146.9 269.3 M179.8 223.9 L179.9 224.05 179.95 224.05" ffdec:has-small-stroke="true" ffdec:original-stroke-width="0.05" fill="none" stroke="#000000" stroke-linecap="round" stroke-linejoin="round" stroke-opacity="0.3019608" stroke-width="1.0"/>
    <path d="M297.15 125.2 L296.0 124.25 302.75 111.3 305.3 110.3 297.15 125.2 M294.4 134.8 L294.4 134.95 294.4 134.8 M298.7 134.55 L298.4 133.35 301.15 131.75 301.85 133.75 298.7 134.55" fill="#777651" fill-rule="evenodd" stroke="none"/>
    <path d="M292.25 138.55 L284.95 147.95 294.4 143.45 294.4 145.55 288.65 150.85 286.3 151.1 285.8 153.5 Q280.45 159.8 273.65 164.75 L264.75 164.75 292.25 138.55 M300.55 144.15 L308.75 140.9 308.4 143.55 300.5 145.2 300.55 144.15" fill="#79652b" fill-rule="evenodd" stroke="none"/>
    <path d="M294.4 134.95 L292.25 138.55 264.75 164.75 262.6 164.75 262.6 157.55 294.4 126.65 293.75 130.5 289.05 136.05 294.4 134.8 294.4 134.95" fill="#483d1a" fill-rule="evenodd" stroke="none"/>
    <path d="M294.4 145.55 L288.65 150.85 M285.8 153.5 Q280.45 159.8 273.65 164.75 M262.6 157.55 L294.4 126.65" ffdec:has-small-stroke="true" ffdec:original-stroke-width="0.05" fill="none" stroke="#000000" stroke-linecap="round" stroke-linejoin="round" stroke-opacity="0.4" stroke-width="1.0"/>
    <path d="M269.7 160.05 L275.65 163.35 214.55 210.7 210.15 207.6 269.7 160.05" fill="#79652b" fill-rule="evenodd" stroke="none"/>
    <path d="M214.55 210.7 L197.85 223.9 192.8 221.5 210.15 207.6 214.55 210.7" fill="#6c5b26" fill-rule="evenodd" stroke="none"/>
    <path d="M204.15 204.95 L263.4 156.65 269.7 160.05 210.15 207.6 204.15 204.95" fill="#483d1a" fill-rule="evenodd" stroke="none"/>
    <path d="M192.8 221.5 L187.8 218.25 204.15 204.95 210.15 207.6 192.8 221.5" fill="#352d13" fill-rule="evenodd" stroke="none"/>
    <path d="M275.65 163.35 L214.55 210.7 197.85 223.9 192.8 221.5 187.8 218.25 204.15 204.95 263.4 156.65" ffdec:has-small-stroke="true" ffdec:original-stroke-width="0.05" fill="none" stroke="#000000" stroke-linecap="round" stroke-linejoin="round" stroke-opacity="0.4" stroke-width="1.0"/>
    <path d="M210.15 207.6 L214.55 210.7 M204.15 204.95 L210.15 207.6" ffdec:has-small-stroke="true" ffdec:original-stroke-width="0.05" fill="none" stroke="#525238" stroke-linecap="round" stroke-linejoin="round" stroke-width="1.0"/>
    <path d="M175.65 226.6 L173.35 225.15 Q173.15 220.6 180.25 218.9 181.55 215.35 185.05 213.9 186.55 213.3 188.4 213.15 191.7 216.05 196.8 218.5 L198.6 219.3 Q202.25 220.8 206.45 222.15 L206.95 222.35 Q208.05 224.1 206.35 224.9 L206.25 224.2 206.05 224.35 189.9 217.2 Q183.85 217.4 184.2 220.95 175.7 221.9 175.65 226.6 M180.25 218.9 L184.2 220.95 180.25 218.9" fill="#b47d01" fill-rule="evenodd" stroke="none"/>
    <path d="M206.35 224.9 Q205.4 227.8 200.05 229.3 199.95 234.45 191.75 235.1 L188.1 233.45 175.85 226.75 175.65 226.6 Q175.7 221.9 184.2 220.95 183.85 217.4 189.9 217.2 L206.05 224.35 206.35 224.9 M200.05 229.3 L184.2 220.95 200.05 229.3" fill="#f1bb01" fill-rule="evenodd" stroke="none"/>
    <path d="M175.65 226.6 L173.35 225.15 Q173.15 220.6 180.25 218.9 181.55 215.35 185.05 213.9 186.55 213.3 188.4 213.15 191.7 216.05 196.8 218.5 L198.6 219.3 Q202.25 220.8 206.45 222.15 L206.95 222.35 Q208.05 224.1 206.35 224.9 205.4 227.8 200.05 229.3 199.95 234.45 191.75 235.1 L188.1 233.45 M175.85 226.75 L175.65 226.6 M206.05 224.35 L206.35 224.9 206.25 224.2" ffdec:has-small-stroke="true" ffdec:original-stroke-width="0.05" fill="none" stroke="#000000" stroke-linecap="round" stroke-linejoin="round" stroke-opacity="0.4" stroke-width="1.0"/>
    <path d="M188.1 233.45 L175.85 226.75 M184.2 220.95 L180.25 218.9 M184.2 220.95 L200.05 229.3" ffdec:has-small-stroke="true" ffdec:original-stroke-width="0.05" fill="none" stroke="#928a64" stroke-linecap="round" stroke-linejoin="round" stroke-width="1.0"/>
  </g>
</svg>
