<?xml version="1.0" encoding="UTF-8" standalone="no"?>
<svg xmlns:ffdec="https://www.free-decompiler.com/flash" xmlns:xlink="http://www.w3.org/1999/xlink" ffdec:objectType="shape" height="36.75px" width="99.45px" xmlns="http://www.w3.org/2000/svg">
  <g transform="matrix(1.0, 0.0, 0.0, 1.0, 49.7, 18.4)">
    <path d="M17.2 -15.35 Q16.5 -14.75 16.5 -13.85 L16.7 -12.95 Q18.5 -10.9 21.0 -12.35 L21.4 -12.95 21.65 -13.55 21.7 -13.85 21.55 -14.45 21.25 -15.05 21.0 -15.35 20.5 -15.55 18.5 -15.85 17.6 -15.6 17.2 -15.35 M9.5 -17.4 L12.1 -18.2 Q17.35 -18.5 22.75 -18.3 25.05 -18.0 26.85 -17.15 27.55 -16.8 27.55 -16.25 27.65 -14.15 30.6 -13.95 L45.1 -12.9 Q48.5 -12.7 49.75 -10.7 49.15 -9.4 47.0 -8.7 L42.45 -7.2 Q38.5 -5.95 31.4 -7.05 L21.9 -7.85 Q27.5 -8.0 31.75 -5.85 33.9 -4.75 33.9 -2.85 33.9 -0.65 31.25 0.3 L32.2 1.0 Q35.85 3.9 34.65 7.1 33.4 10.2 27.95 11.8 22.75 13.3 16.45 12.35 10.15 11.35 6.45 8.4 3.0 5.45 4.25 2.35 5.15 0.0 8.3 -1.45 4.1 -2.9 0.3 -4.7 L-0.95 -4.85 Q-3.3 -4.4 -3.05 -2.6 -1.4 -1.5 -0.85 0.1 -0.65 0.7 -0.95 1.4 -1.35 2.45 -2.75 2.85 L-7.9 3.7 -22.25 3.2 Q-21.6 4.15 -22.1 5.15 -23.05 6.95 -27.5 7.7 -31.85 8.45 -37.15 7.75 -42.45 7.0 -45.6 5.25 -48.65 3.4 -47.7 1.65 -46.75 -0.2 -42.4 -0.95 -37.9 -1.75 -32.6 -1.0 L-29.85 -0.5 -31.75 -2.85 Q-32.25 -3.7 -31.9 -4.5 L-29.3 -4.85 Q-26.15 -4.25 -24.2 -5.75 -24.85 -8.0 -28.25 -8.45 L-36.1 -9.05 Q-43.4 -9.4 -48.65 -12.9 -49.45 -13.4 -49.65 -14.25 -49.85 -15.0 -49.15 -15.5 -47.15 -16.95 -44.15 -17.5 L-33.95 -18.2 -22.85 -18.0 -14.4 -17.7 7.6 -15.5 Q7.95 -16.75 9.5 -17.4 M-13.95 13.45 L-14.25 14.65 -13.9 15.45 -13.55 15.7 -12.15 16.15 -7.2 15.9 -6.45 15.3 -6.15 14.9 Q-5.95 14.5 -6.15 14.15 L-6.4 13.55 -6.85 13.3 Q-7.6 12.95 -8.3 12.75 -11.5 12.0 -13.95 13.45 M-10.9 -12.35 L-11.05 -11.75 -11.05 -11.15 -11.0 -10.85 -10.9 -10.55 Q-5.95 -9.15 -0.3 -8.35 1.2 -8.15 1.25 -9.45 1.45 -15.4 -6.3 -13.85 -8.4 -13.75 -10.35 -12.8 L-10.9 -12.35 M-21.3 -4.85 L-21.9 -3.95 Q-20.5 3.45 -11.45 1.45 -8.45 0.8 -9.3 -2.15 -10.9 -7.7 -18.3 -5.85 L-19.2 -5.7 Q-20.4 -5.55 -21.3 -4.85 M-29.0 -12.75 L-28.6 -13.35 -28.35 -13.95 -28.3 -14.25 -28.45 -14.85 -28.75 -15.45 -29.0 -15.75 -29.5 -15.9 -38.7 -16.25 -39.6 -16.0 -40.0 -15.75 -40.45 -15.1 Q-40.85 -14.4 -40.6 -13.65 L-40.5 -13.35 Q-40.15 -12.8 -39.55 -12.6 -34.0 -10.65 -29.0 -12.75 M39.7 -12.25 L39.7 -12.2 38.4 -11.75 Q37.95 -11.4 37.8 -10.85 37.55 -10.1 37.9 -9.35 39.15 -7.55 41.0 -8.75 L41.55 -9.65 41.7 -10.25 Q41.75 -10.75 41.45 -11.15 L41.0 -11.75 40.5 -12.0 39.7 -12.25 M16.1 -7.05 L16.1 -7.0 15.2 -6.75 14.8 -6.55 Q14.25 -6.1 14.15 -5.35 L14.15 -4.75 14.3 -4.15 15.55 -3.25 20.65 -3.2 21.0 -3.75 21.15 -4.05 21.3 -4.65 21.15 -5.25 21.0 -5.55 20.6 -6.15 20.1 -6.4 16.1 -7.05 M-11.65 18.1 Q-15.75 17.5 -18.15 16.1 -20.5 14.7 -19.75 13.35 -19.05 11.9 -15.7 11.35 -12.25 10.7 -8.2 11.3 -4.15 11.85 -1.8 13.25 0.6 14.65 -0.1 16.05 -0.8 17.45 -4.25 18.05 -7.6 18.65 -11.65 18.1 M23.6 7.2 L24.8 5.85 25.3 4.85 Q25.6 4.0 25.35 3.2 L25.0 2.0 24.35 1.45 23.6 1.0 22.1 0.25 Q18.5 -0.75 15.45 0.75 14.3 1.3 13.3 2.2 12.85 3.5 12.75 4.85 12.7 5.85 13.2 6.65 L13.7 7.2 15.85 8.1 23.6 7.2 M-29.95 3.6 Q-29.75 3.1 -29.95 2.65 L-30.3 1.95 -30.9 1.6 Q-31.85 1.15 -32.8 0.85 -36.95 -0.1 -40.1 1.8 L-40.5 3.3 -40.05 4.35 -39.6 4.7 -37.8 5.3 -31.35 4.95 -30.35 4.2 -29.95 3.6" fill="#e9edf1" fill-rule="evenodd" stroke="none"/>
    <path d="M17.2 -15.35 L17.6 -15.6 18.5 -15.85 20.5 -15.55 21.0 -15.35 21.25 -15.05 21.55 -14.45 21.7 -13.85 21.65 -13.55 21.4 -12.95 21.0 -12.35 Q18.5 -10.9 16.7 -12.95 L16.5 -13.85 Q16.5 -14.75 17.2 -15.35 M16.1 -7.05 L20.1 -6.4 20.6 -6.15 21.0 -5.55 21.15 -5.25 21.3 -4.65 21.15 -4.05 21.0 -3.75 20.65 -3.2 15.55 -3.25 14.3 -4.15 14.15 -4.75 14.15 -5.35 Q14.25 -6.1 14.8 -6.55 L15.2 -6.75 16.1 -7.0 16.1 -7.05 M39.7 -12.25 L40.5 -12.0 41.0 -11.75 41.45 -11.15 Q41.75 -10.75 41.7 -10.25 L41.55 -9.65 41.0 -8.75 Q39.15 -7.55 37.9 -9.35 37.55 -10.1 37.8 -10.85 37.95 -11.4 38.4 -11.75 L39.7 -12.2 39.7 -12.25 M-29.0 -12.75 Q-34.0 -10.65 -39.55 -12.6 -40.15 -12.8 -40.5 -13.35 L-40.6 -13.65 Q-40.85 -14.4 -40.45 -15.1 L-40.0 -15.75 -39.6 -16.0 -38.7 -16.25 -29.5 -15.9 -29.0 -15.75 -28.75 -15.45 -28.45 -14.85 -28.3 -14.25 -28.35 -13.95 -28.6 -13.35 -29.0 -12.75 M-21.3 -4.85 Q-20.4 -5.55 -19.2 -5.7 L-18.3 -5.85 Q-10.9 -7.7 -9.3 -2.15 -8.45 0.8 -11.45 1.45 -20.5 3.45 -21.9 -3.95 L-21.3 -4.85 M-10.9 -12.35 L-10.35 -12.8 Q-8.4 -13.75 -6.3 -13.85 1.45 -15.4 1.25 -9.45 1.2 -8.15 -0.3 -8.35 -5.95 -9.15 -10.9 -10.55 L-11.0 -10.85 -11.05 -11.15 -11.05 -11.75 -10.9 -12.35 M-13.95 13.45 Q-11.5 12.0 -8.3 12.75 -7.6 12.95 -6.85 13.3 L-6.4 13.55 -6.15 14.15 Q-5.95 14.5 -6.15 14.9 L-6.45 15.3 -7.2 15.9 -12.15 16.15 -13.55 15.7 -13.9 15.45 -14.25 14.65 -13.95 13.45 M-29.95 3.6 L-30.35 4.2 -31.35 4.95 -37.8 5.3 -39.6 4.7 -40.05 4.35 -40.5 3.3 -40.1 1.8 Q-36.95 -0.1 -32.8 0.85 -31.85 1.15 -30.9 1.6 L-30.3 1.95 -29.95 2.65 Q-29.75 3.1 -29.95 3.6 M23.6 7.2 L15.85 8.1 13.7 7.2 13.2 6.65 Q12.7 5.85 12.75 4.85 12.85 3.5 13.3 2.2 14.3 1.3 15.45 0.75 18.5 -0.75 22.1 0.25 L23.6 1.0 24.35 1.45 25.0 2.0 25.35 3.2 Q25.6 4.0 25.3 4.85 L24.8 5.85 23.6 7.2" fill="#ffffff" fill-rule="evenodd" stroke="none"/>
    <path d="M9.5 -17.4 L12.1 -18.2 Q17.35 -18.5 22.75 -18.3 25.05 -18.0 26.85 -17.15 27.55 -16.8 27.55 -16.25 27.65 -14.15 30.6 -13.95 L45.1 -12.9 Q48.5 -12.7 49.75 -10.7 49.15 -9.4 47.0 -8.7 L42.45 -7.2 Q38.5 -5.95 31.4 -7.05 L21.9 -7.85 Q27.5 -8.0 31.75 -5.85 33.9 -4.75 33.9 -2.85 33.9 -0.65 31.25 0.3 L32.2 1.0 Q35.85 3.9 34.65 7.1 33.4 10.2 27.95 11.8 22.75 13.3 16.45 12.35 10.15 11.35 6.45 8.4 3.0 5.45 4.25 2.35 5.15 0.0 8.3 -1.45 4.1 -2.9 0.3 -4.7 L-0.95 -4.85 Q-3.3 -4.4 -3.05 -2.6 -1.4 -1.5 -0.85 0.1 -0.65 0.7 -0.95 1.4 -1.35 2.45 -2.75 2.85 L-7.9 3.7 -22.25 3.2 Q-21.6 4.15 -22.1 5.15 -23.05 6.95 -27.5 7.7 -31.85 8.45 -37.15 7.75 -42.45 7.0 -45.6 5.25 -48.65 3.4 -47.7 1.65 -46.75 -0.2 -42.4 -0.95 -37.9 -1.75 -32.6 -1.0 L-29.85 -0.5 -31.75 -2.85 Q-32.25 -3.7 -31.9 -4.5 L-29.3 -4.85 Q-26.15 -4.25 -24.2 -5.75 -24.85 -8.0 -28.25 -8.45 L-36.1 -9.05 Q-43.4 -9.4 -48.65 -12.9 -49.45 -13.4 -49.65 -14.25 -49.85 -15.0 -49.15 -15.5 -47.15 -16.95 -44.15 -17.5 L-33.95 -18.2 -22.85 -18.0 -14.4 -17.7 7.6 -15.5 Q7.95 -16.75 9.5 -17.4 M-11.65 18.1 Q-7.6 18.65 -4.25 18.05 -0.8 17.45 -0.1 16.05 0.6 14.65 -1.8 13.25 -4.15 11.85 -8.2 11.3 -12.25 10.7 -15.7 11.35 -19.05 11.9 -19.75 13.35 -20.5 14.7 -18.15 16.1 -15.75 17.5 -11.65 18.1 Z" ffdec:has-small-stroke="true" ffdec:original-stroke-width="0.05" fill="none" stroke="#3c6286" stroke-linecap="round" stroke-linejoin="round" stroke-opacity="0.6" stroke-width="1.0"/>
  </g>
</svg>
