<?xml version="1.0" encoding="UTF-8" standalone="no"?>
<svg xmlns:ffdec="https://www.free-decompiler.com/flash" xmlns:xlink="http://www.w3.org/1999/xlink" ffdec:objectType="shape" height="41.55px" width="77.15px" xmlns="http://www.w3.org/2000/svg">
  <g transform="matrix(1.0, 0.0, 0.0, 1.0, 0.0, -309.45)">
    <path d="M30.3 342.35 Q15.4 338.95 13.75 333.5 11.85 327.3 14.0 326.8 14.3 326.1 14.85 325.55 L22.85 319.55 27.3 323.25 Q29.85 325.35 35.25 324.1 L31.65 328.2 Q30.5 327.85 28.7 328.2 L25.15 324.15 25.1 324.1 24.7 323.6 Q24.45 323.3 24.05 323.3 23.65 323.3 23.4 323.6 L18.65 329.1 Q17.85 329.0 17.05 329.85 16.4 331.1 18.25 332.5 L25.0 336.05 25.35 336.3 25.4 336.3 25.5 336.35 25.55 337.65 26.15 338.9 27.45 340.2 31.25 340.45 32.5 340.0 33.45 339.65 34.05 339.3 34.2 339.2 34.45 338.85 34.55 338.5 34.55 338.45 34.4 338.15 34.35 338.05 34.2 337.9 45.8 337.1 Q50.0 336.3 52.55 333.8 L52.95 332.0 53.25 330.8 53.25 330.55 52.75 329.5 52.5 329.2 50.9 327.35 49.95 326.2 Q55.3 329.9 56.2 330.05 57.05 330.2 55.85 332.8 54.6 335.35 46.0 339.15 L30.3 342.35" fill="#94854b" fill-rule="evenodd" stroke="none"/>
    <path d="M22.85 319.55 L14.85 325.55 Q14.3 326.1 14.0 326.8 11.85 327.3 13.75 333.5 15.4 338.95 30.3 342.35 L23.15 344.4 Q15.25 341.35 8.95 340.3 L8.1 339.05 7.15 337.3 Q4.25 330.9 8.95 324.55 13.8 326.0 22.6 319.35 22.8 319.15 23.05 319.0 L23.1 318.95 23.65 318.95 22.85 319.55" fill="#999346" fill-rule="evenodd" stroke="none"/>
    <path d="M30.3 342.35 L46.0 339.15 Q54.6 335.35 55.85 332.8 57.05 330.2 56.2 330.05 55.3 329.9 49.95 326.2 L43.3 318.65 42.9 318.2 Q42.4 317.55 41.65 317.55 40.9 317.55 40.4 318.2 L35.25 324.1 Q29.85 325.35 27.3 323.25 L22.85 319.55 23.65 318.95 23.1 318.95 35.35 311.65 36.8 309.45 39.65 311.95 52.2 319.3 68.4 324.2 68.3 324.05 68.85 324.25 74.85 325.7 69.0 328.75 66.6 329.95 55.5 327.15 64.2 333.95 64.15 334.0 63.6 334.55 62.05 336.15 61.9 336.25 58.9 338.35 53.5 342.0 Q47.2 346.3 41.2 350.85 L35.75 349.45 23.15 344.4 30.3 342.35" fill="#cdc16d" fill-rule="evenodd" stroke="none"/>
    <path d="M52.5 329.2 L52.75 329.5 53.25 330.55 53.25 330.8 52.95 332.0 Q52.5 332.9 51.5 333.55 48.1 335.65 44.65 336.3 39.65 337.25 34.45 335.35 32.1 334.45 31.05 333.0 L30.95 332.8 30.4 331.5 30.35 331.25 30.2 330.0 30.55 329.5 31.65 328.2 35.25 324.1 40.4 318.2 Q40.9 317.55 41.65 317.55 42.4 317.55 42.9 318.2 L43.3 318.65 43.7 319.1 43.8 319.25 43.45 319.35 Q39.95 320.15 37.95 323.45 L37.85 323.6 37.55 324.0 36.7 325.05 Q34.95 327.0 34.5 329.5 36.85 335.25 43.65 334.35 48.3 333.7 51.9 330.55 L52.5 329.2 M34.35 338.05 L34.4 338.15 34.55 338.45 34.55 338.5 34.45 338.85 34.2 339.2 34.05 339.3 33.45 339.65 32.5 340.0 32.1 340.1 29.2 339.8 28.25 339.15 28.2 339.1 28.05 338.7 28.05 338.65 28.0 338.3 28.1 338.15 30.9 334.95 Q31.05 334.75 31.25 334.75 L31.6 334.95 31.85 335.2 31.85 335.25 31.75 335.3 Q30.75 335.5 30.2 336.45 L30.15 336.5 30.1 336.6 29.85 336.9 29.4 337.55 29.2 338.15 Q29.85 339.8 31.8 339.55 33.15 339.35 34.15 338.45 L34.35 338.05" fill="#949301" fill-rule="evenodd" stroke="none"/>
    <path d="M50.9 327.35 L52.5 329.2 51.9 330.55 Q48.3 333.7 43.65 334.35 36.85 335.25 34.5 329.5 34.95 327.0 36.7 325.05 L37.55 324.0 37.85 323.6 37.95 323.45 Q39.95 320.15 43.45 319.35 L43.8 319.25 43.7 319.1 50.9 327.35 M42.9 323.6 Q43.4 325.05 45.0 324.6 45.7 324.4 45.9 323.65 46.35 321.55 44.0 321.15 42.25 321.75 42.9 323.6 M41.5 326.3 Q41.65 326.6 41.95 326.4 43.45 325.35 41.8 324.7 40.75 325.25 41.5 326.3 M41.7 322.05 L41.65 321.85 41.6 321.85 41.25 321.65 Q40.95 321.7 40.8 321.95 L40.8 322.15 40.9 322.5 Q41.25 322.75 41.6 322.5 L41.65 322.35 41.7 322.25 41.7 322.05" fill="url(#gradient0)" fill-rule="evenodd" stroke="none"/>
    <path d="M41.7 322.05 L41.7 322.25 41.65 322.35 41.6 322.5 Q41.25 322.75 40.9 322.5 L40.8 322.15 40.8 321.95 Q40.95 321.7 41.25 321.65 L41.6 321.85 41.65 321.85 41.7 322.05 M41.5 326.3 Q40.75 325.25 41.8 324.7 43.45 325.35 41.95 326.4 41.65 326.6 41.5 326.3 M42.9 323.6 Q42.25 321.75 44.0 321.15 46.35 321.55 45.9 323.65 45.7 324.4 45.0 324.6 43.4 325.05 42.9 323.6 M31.25 336.15 L31.05 336.15 31.0 336.05 31.0 336.0 31.15 335.95 31.25 336.0 31.25 336.05 31.25 336.1 31.25 336.15 M31.9 335.8 Q32.55 335.9 32.45 336.5 L32.2 336.75 Q31.75 336.9 31.6 336.5 31.4 335.95 31.9 335.8 M31.2 337.25 Q31.0 336.95 31.3 336.8 31.75 336.95 31.35 337.25 L31.2 337.25" fill="#ffffff" fill-rule="evenodd" stroke="none"/>
    <path d="M8.95 324.55 Q4.25 330.9 7.15 337.3 L8.1 339.05 8.95 340.3 7.25 340.05 7.05 340.0 6.95 340.0 Q-4.5 329.85 2.9 318.25 5.55 323.55 8.95 324.55" fill="#74683a" fill-rule="evenodd" stroke="none"/>
    <path d="M69.0 328.75 L72.8 330.05 64.25 334.3 62.05 336.15 63.6 334.55 64.15 334.0 64.2 333.95 Q64.85 331.85 66.6 329.95 L69.0 328.75" fill="#000000" fill-opacity="0.37254903" fill-rule="evenodd" stroke="none"/>
    <path d="M72.8 330.05 L77.15 331.55 53.6 342.05 58.9 338.35 61.9 336.25 62.05 336.15 61.7 336.55 58.9 338.35 61.7 336.55 62.05 336.15 64.25 334.3 72.8 330.05" fill="#cccccc" fill-rule="evenodd" stroke="none"/>
    <path d="M64.2 333.95 L55.5 327.15 66.6 329.95 Q64.85 331.85 64.2 333.95" fill="#ded7a0" fill-rule="evenodd" stroke="none"/>
    <path d="M52.95 332.0 L52.55 333.8 Q50.0 336.3 45.8 337.1 L34.2 337.9 31.85 335.25 31.85 335.2 31.6 334.95 31.25 334.75 Q31.05 334.75 30.9 334.95 L28.1 338.15 28.0 338.3 28.05 338.65 28.05 338.7 28.2 339.1 28.25 339.15 29.2 339.8 32.1 340.1 32.5 340.0 31.25 340.45 27.45 340.2 26.15 338.9 25.55 337.65 25.5 336.35 25.4 336.3 25.35 336.3 25.0 336.05 18.25 332.5 Q16.4 331.1 17.05 329.85 17.85 329.0 18.65 329.1 L18.4 329.35 18.25 329.65 18.3 330.25 18.3 330.4 18.6 331.05 18.65 331.15 Q19.2 331.85 20.4 332.35 L23.5 333.0 25.6 332.85 Q27.35 332.5 29.05 331.45 L29.8 330.65 29.95 330.05 29.95 329.9 29.7 329.35 29.6 329.25 28.7 328.2 Q30.5 327.85 31.65 328.2 L30.55 329.5 30.2 330.0 30.35 331.25 30.4 331.5 30.95 332.8 31.05 333.0 Q32.1 334.45 34.45 335.35 39.65 337.25 44.65 336.3 48.1 335.65 51.5 333.55 52.5 332.9 52.95 332.0" fill="#6a6035" fill-rule="evenodd" stroke="none"/>
    <path d="M34.2 337.9 L34.35 338.05 34.15 338.45 Q33.15 339.35 31.8 339.55 29.85 339.8 29.2 338.15 L29.4 337.55 29.85 336.9 30.1 336.6 30.15 336.5 30.2 336.45 Q30.75 335.5 31.75 335.3 L31.85 335.25 34.2 337.9 M31.2 337.25 L31.35 337.25 Q31.75 336.95 31.3 336.8 31.0 336.95 31.2 337.25 M31.9 335.8 Q31.4 335.95 31.6 336.5 31.75 336.9 32.2 336.75 L32.45 336.5 Q32.55 335.9 31.9 335.8 M31.25 336.15 L31.25 336.1 31.25 336.05 31.25 336.0 31.15 335.95 31.0 336.0 31.0 336.05 31.05 336.15 31.25 336.15" fill="url(#gradient1)" fill-rule="evenodd" stroke="none"/>
    <path d="M8.95 340.3 Q15.25 341.35 23.15 344.4 L35.75 349.45 41.2 350.85 41.3 350.85 39.05 351.0 Q25.2 348.4 7.05 340.0 L7.25 340.05 8.95 340.3" fill="#293d3d" fill-rule="evenodd" stroke="none"/>
    <path d="M74.85 325.7 L69.0 328.75 66.6 329.95 Q64.85 331.85 64.2 333.95 L64.15 334.0 63.6 334.55 62.05 336.15 61.7 336.55 58.9 338.35 53.5 342.0 Q47.2 346.3 41.2 350.85" ffdec:has-small-stroke="true" ffdec:original-stroke-width="0.25" fill="none" stroke="#000000" stroke-linecap="round" stroke-linejoin="round" stroke-opacity="0.37254903" stroke-width="1.0"/>
    <path d="M23.65 325.5 L23.85 325.4 24.05 325.45 24.05 325.5 24.1 325.6 24.1 325.7 24.05 325.75 24.05 325.8 23.65 325.8 23.6 325.65 23.65 325.5 M25.75 326.85 Q24.95 327.1 24.7 326.35 24.35 325.45 25.25 325.1 26.45 325.3 26.2 326.4 L25.75 326.85 M24.0 327.75 Q23.6 327.2 24.15 326.95 24.95 327.25 24.2 327.8 L24.0 327.75" fill="#ffffff" fill-rule="evenodd" stroke="none"/>
    <path d="M25.15 324.15 L24.95 324.2 Q23.15 324.6 22.15 326.3 L22.1 326.35 22.0 326.55 21.55 327.1 Q20.65 328.1 20.4 329.4 21.4 331.85 24.0 331.9 L25.1 331.85 Q27.45 331.5 29.25 329.9 L29.6 329.25 29.7 329.35 29.95 329.9 29.95 330.05 29.8 330.65 29.05 331.45 Q27.35 332.5 25.6 332.85 L23.5 333.0 20.4 332.35 Q19.2 331.85 18.65 331.15 L18.6 331.05 18.3 330.4 18.3 330.25 18.25 329.65 18.4 329.35 23.4 323.6 Q23.65 323.3 24.05 323.3 24.45 323.3 24.7 323.6 L25.1 324.1 25.15 324.15" fill="#949301" fill-rule="evenodd" stroke="none"/>
    <path d="M29.6 329.25 L29.25 329.9 Q27.45 331.5 25.1 331.85 L24.0 331.9 Q21.4 331.85 20.4 329.4 20.65 328.1 21.55 327.1 L22.0 326.55 22.1 326.35 22.15 326.3 Q23.15 324.6 24.95 324.2 L25.15 324.15 29.6 329.25 M24.0 327.75 L24.2 327.8 Q24.95 327.25 24.15 326.95 23.6 327.2 24.0 327.75 M25.75 326.85 L26.2 326.4 Q26.45 325.3 25.25 325.1 24.35 325.45 24.7 326.35 24.95 327.1 25.75 326.85 M23.65 325.5 L23.6 325.65 23.65 325.8 24.05 325.8 24.05 325.75 24.1 325.7 24.1 325.6 24.05 325.5 24.05 325.45 23.85 325.4 23.65 325.5" fill="url(#gradient2)" fill-rule="evenodd" stroke="none"/>
  </g>
  <defs>
    <linearGradient gradientTransform="matrix(0.011, 0.0, 0.0, 0.0094, 43.5, 326.8)" gradientUnits="userSpaceOnUse" id="gradient0" spreadMethod="pad" x1="-819.2" x2="819.2">
      <stop offset="0.0" stop-color="#949301"/>
      <stop offset="1.0" stop-color="#ffffff"/>
    </linearGradient>
    <linearGradient gradientTransform="matrix(0.0031, 0.0, 0.0, 0.0027, 31.75, 337.4)" gradientUnits="userSpaceOnUse" id="gradient1" spreadMethod="pad" x1="-819.2" x2="819.2">
      <stop offset="0.0" stop-color="#949301"/>
      <stop offset="1.0" stop-color="#ffffff"/>
    </linearGradient>
    <linearGradient gradientTransform="matrix(0.0056, 0.0, 0.0, 0.0047, 25.0, 328.0)" gradientUnits="userSpaceOnUse" id="gradient2" spreadMethod="pad" x1="-819.2" x2="819.2">
      <stop offset="0.0" stop-color="#949301"/>
      <stop offset="1.0" stop-color="#ffffff"/>
    </linearGradient>
  </defs>
</svg>
