<?xml version="1.0" encoding="UTF-8" standalone="no"?>
<svg xmlns:ffdec="https://www.free-decompiler.com/flash" xmlns:xlink="http://www.w3.org/1999/xlink" ffdec:objectType="shape" height="118.85px" width="73.75px" xmlns="http://www.w3.org/2000/svg">
  <g transform="matrix(1.0, 0.0, 0.0, 1.0, 0.0, 0.0)">
    <path d="M16.6 63.05 L14.15 76.55 14.3 86.7 16.25 94.1 15.1 94.1 13.3 88.85 12.0 78.65 12.5 67.8 12.65 63.75 12.65 60.75 20.35 54.9 23.65 52.4 16.9 61.25 16.6 63.05 M0.05 87.55 L1.0 75.7 0.9 74.05 6.6 70.3 8.45 68.3 2.65 79.45 0.05 87.55 M50.2 10.6 Q51.45 11.95 51.7 15.2 L50.2 10.6 M31.3 67.95 L31.75 68.45 31.35 68.05 31.3 67.95" fill="#7a663a" fill-rule="evenodd" stroke="none"/>
    <path d="M62.75 48.5 L62.75 48.65 60.95 54.95 57.9 55.35 57.2 54.5 56.6 54.2 53.65 52.85 50.45 51.35 49.9 51.25 46.7 50.5 46.65 50.4 36.0 55.8 35.95 55.4 36.0 62.45 34.05 67.6 36.15 72.25 39.7 74.05 49.2 76.65 53.25 73.45 53.4 74.05 Q51.0 78.95 47.05 82.35 47.5 81.3 47.15 80.2 L40.25 78.0 39.05 79.45 39.6 77.5 38.25 75.4 35.2 75.7 35.35 72.05 31.75 68.45 31.3 67.95 30.4 65.0 32.3 57.0 29.0 60.65 26.45 53.25 27.55 49.45 31.3 46.55 32.2 44.5 31.4 44.2 33.7 42.9 32.7 41.9 Q33.3 38.45 35.1 34.95 36.35 32.5 38.2 30.1 L36.5 33.5 35.35 37.0 34.2 40.35 35.15 44.5 37.15 44.5 41.75 41.2 46.5 31.65 48.2 22.1 48.65 19.5 47.0 10.0 45.7 9.85 44.75 12.85 43.85 7.9 45.15 8.9 43.9 1.35 46.0 5.45 47.15 1.15 48.45 8.75 49.1 7.25 49.9 9.7 50.2 10.6 51.7 15.2 55.0 25.15 53.4 23.5 Q53.15 30.45 50.65 35.9 L50.2 36.9 49.3 38.55 49.0 38.4 49.1 38.85 49.35 39.7 52.05 38.95 53.7 37.0 53.55 38.95 54.7 37.1 55.85 39.6 56.65 40.55 56.65 37.3 57.45 40.6 57.95 42.7 Q62.35 42.75 60.1 46.0 L62.35 48.45 62.75 48.5 M49.0 38.4 L47.4 38.8 46.35 39.25 47.4 38.8 49.0 38.4 M43.2 46.35 L49.25 49.35 43.2 46.35 M52.3 46.95 L51.55 49.4 52.3 46.95 M30.4 48.65 L31.3 46.55 30.4 48.65 M38.25 46.35 L34.4 48.0 33.0 50.7 41.35 48.55 38.35 46.4 38.25 46.35 M29.0 60.65 L30.2 54.85 29.0 60.65 M60.45 53.15 L57.15 52.5 60.45 53.15 M56.95 48.75 L56.2 51.2 56.95 48.75" fill="#866c42" fill-rule="evenodd" stroke="none"/>
    <path d="M39.75 28.95 L41.7 29.6 41.7 27.75 40.75 27.6 43.35 23.2 44.85 13.5 44.75 12.85 45.7 9.85 47.0 10.0 48.65 19.5 48.2 22.1 46.25 27.3 Q45.1 26.4 43.95 26.25 L45.35 29.5 45.4 29.45 45.4 29.5 44.9 30.85 43.7 32.6 40.6 32.8 40.2 32.8 40.6 33.05 Q41.65 33.7 42.85 33.9 L41.05 36.6 Q38.7 35.9 37.0 36.05 L36.95 36.05 37.0 36.25 39.75 38.55 39.1 39.55 36.95 39.55 Q35.75 38.25 35.35 37.0 L36.5 33.5 38.2 30.1 39.75 28.95 M39.7 71.15 L38.05 67.45 39.75 66.7 42.15 68.65 41.8 67.35 45.15 66.95 Q46.9 69.2 47.2 70.85 L44.5 72.45 41.05 71.8 41.25 70.25 41.4 69.1 39.7 71.15" fill="#d38861" fill-rule="evenodd" stroke="none"/>
    <path d="M48.2 22.1 L46.5 31.65 41.75 41.2 37.15 44.5 35.15 44.5 34.2 40.35 35.35 37.0 Q35.75 38.25 36.95 39.55 L39.1 39.55 39.75 38.55 37.0 36.25 37.0 36.05 Q38.7 35.9 41.05 36.6 L42.85 33.9 Q41.65 33.7 40.6 33.05 L40.6 32.8 43.7 32.6 44.9 30.85 45.4 29.5 45.4 29.45 45.35 29.5 43.95 26.25 Q45.1 26.4 46.25 27.3 L48.2 22.1 M36.4 64.95 L38.4 64.8 41.8 67.35 42.15 68.65 39.75 66.7 38.05 67.45 39.7 71.15 38.65 72.45 36.8 71.55 35.4 68.4 36.4 64.95 M41.05 71.8 L44.5 72.45 47.2 70.85 Q47.5 72.65 45.85 73.65 L40.9 73.25 40.9 72.9 41.05 71.8" fill="#ab431d" fill-rule="evenodd" stroke="none"/>
    <path d="M62.75 48.4 L62.75 48.5 62.35 48.45 62.75 48.4 M49.3 38.55 L49.1 38.85 49.0 38.4 49.3 38.55" fill="#927354" fill-rule="evenodd" stroke="none"/>
    <path d="M49.0 38.4 L49.3 38.55 49.0 38.4" fill="#5e4d33" fill-rule="evenodd" stroke="none"/>
    <path d="M68.0 33.3 L69.45 33.15 70.45 30.2 68.95 28.7 67.55 28.25 Q70.2 25.05 72.4 20.0 L73.55 13.1 73.75 22.8 71.95 39.55 66.15 47.55 64.2 49.25 64.2 48.1 62.75 48.4 62.35 48.45 60.1 46.0 Q62.35 42.75 57.95 42.7 L57.45 40.6 60.1 40.35 67.15 32.35 67.8 33.3 68.0 33.3 M57.9 61.2 L58.15 69.45 60.25 78.0 61.6 81.75 61.9 79.8 65.05 84.05 62.9 94.55 58.45 104.6 49.1 118.85 48.75 118.35 48.65 118.25 55.35 106.7 57.95 99.15 58.8 88.65 58.6 86.5 58.15 81.9 58.1 81.75 56.5 76.5 53.7 69.6 53.45 65.45 57.9 61.2 M52.3 66.95 L51.9 67.5 53.25 73.45 49.2 76.65 39.7 74.05 36.15 72.25 34.05 67.6 36.0 62.45 35.95 55.4 36.0 55.8 37.45 61.4 36.4 64.95 35.4 68.4 36.8 71.55 38.65 72.45 40.25 73.2 40.85 73.25 40.9 73.25 45.85 73.65 46.65 73.7 47.3 74.9 Q49.75 75.55 50.55 74.35 L51.6 72.55 50.6 66.0 53.95 63.1 52.3 66.95 M35.2 75.7 L35.0 75.7 32.4 78.05 33.35 76.2 31.85 71.6 31.85 71.25 29.25 69.15 29.25 69.0 29.25 68.85 29.0 68.85 25.3 66.5 23.0 62.05 21.55 58.1 16.6 63.05 16.9 61.25 23.65 52.4 23.8 52.25 27.55 49.45 26.45 53.25 21.55 58.1 26.45 53.25 29.0 60.65 32.3 57.0 30.4 65.0 31.3 67.95 31.35 68.05 31.75 68.45 35.35 72.05 35.2 75.7 M27.1 59.75 L27.9 65.0 29.0 68.85 27.9 65.0 27.1 59.75 M30.4 65.0 L29.25 68.85 30.4 65.0 M31.85 71.25 L31.75 68.45 31.85 71.25" fill="#513f2f" fill-rule="evenodd" stroke="none"/>
    <path d="M67.8 33.3 L68.0 33.3 67.8 33.3" fill="#6b5939" fill-rule="evenodd" stroke="none"/>
    <path d="M38.2 30.1 L38.25 30.0 39.25 28.75 39.5 28.85 39.75 28.95 38.2 30.1" fill="#d08539" fill-rule="evenodd" stroke="none"/>
    <path d="M40.6 32.8 L40.6 33.05 40.2 32.8 40.6 32.8 M37.0 36.05 L37.0 36.25 36.95 36.05 37.0 36.05" fill="#b96233" fill-rule="evenodd" stroke="none"/>
    <path d="M35.1 34.95 Q35.3 32.5 38.2 30.1 36.35 32.5 35.1 34.95" fill="#d99f5b" fill-rule="evenodd" stroke="none"/>
    <path d="M38.25 46.35 L38.35 46.4 41.35 48.55 33.0 50.7 34.4 48.0 38.25 46.35" fill="#b39564" fill-rule="evenodd" stroke="none"/>
    <path d="M36.4 64.95 L37.45 61.4 36.0 55.8 46.65 50.4 46.7 50.5 46.55 52.6 41.95 53.75 39.25 57.7 39.85 64.7 37.55 64.2 38.4 64.8 36.4 64.95" fill="#35170d" fill-rule="evenodd" stroke="none"/>
    <path d="M38.4 64.8 L37.55 64.2 39.85 64.7 39.25 57.7 41.95 53.75 46.55 52.6 Q46.25 53.95 46.3 55.6 L46.1 57.2 46.15 57.2 46.2 57.2 46.6 57.2 Q48.7 55.2 49.45 51.95 L49.9 51.25 50.45 51.35 53.65 52.85 52.85 58.5 48.75 63.65 47.9 66.5 48.45 72.3 48.45 72.35 48.7 72.45 47.3 74.9 46.65 73.7 45.85 73.65 Q47.5 72.65 47.2 70.85 46.9 69.2 45.15 66.95 L41.8 67.35 38.4 64.8 M46.05 57.45 L45.95 57.65 46.0 57.6 46.05 57.45 46.05 57.4 46.05 57.45 M45.9 57.8 L45.95 57.8 45.9 57.8 M49.15 71.75 L49.05 71.85 49.1 71.75 49.15 71.75" fill="#3f1d10" fill-rule="evenodd" stroke="none"/>
    <path d="M12.5 67.8 L6.1 84.1 4.95 100.65 Q5.55 107.3 7.75 114.35 L6.65 113.9 1.65 99.0 0.0 88.05 0.05 87.55 2.65 79.45 8.45 68.3 12.65 63.75 12.5 67.8 M20.35 54.9 L19.2 50.9 19.7 46.3 20.7 46.6 21.7 51.2 23.75 52.25 23.8 52.25 23.65 52.4 23.75 52.25 23.65 52.4 20.35 54.9 M2.95 94.9 L3.7 82.2 12.0 65.85 3.7 82.2 2.95 94.9" fill="#574d28" fill-rule="evenodd" stroke="none"/>
    <path d="M40.9 73.25 L40.85 73.25 40.9 72.9 40.9 73.25" fill="#715644" fill-rule="evenodd" stroke="none"/>
    <path d="M41.25 70.25 L41.05 71.8 40.9 72.9 39.95 71.9 41.25 70.25 M54.4 59.8 L57.1 55.85 58.2 57.05 Q52.4 63.55 54.4 59.8 M49.1 71.75 L49.8 70.1 50.0 71.75 49.45 72.25 48.8 72.5 49.15 71.75 49.1 71.75 M46.15 57.2 L47.35 54.35 48.0 52.05 49.45 51.95 Q48.7 55.2 46.6 57.2 L46.2 57.2 46.15 57.2" fill="#ecece8" fill-rule="evenodd" stroke="none"/>
    <path d="M46.55 52.6 L46.7 50.5 49.9 51.25 49.45 51.95 48.0 52.05 47.35 54.35 46.15 57.2 46.1 57.2 46.3 55.6 Q46.25 53.95 46.55 52.6 M40.85 73.25 L40.25 73.2 38.65 72.45 39.7 71.15 41.4 69.1 41.25 70.25 39.95 71.9 40.9 72.9 40.85 73.25 M56.6 54.2 L57.2 54.5 57.9 55.35 58.75 56.3 58.2 57.05 57.1 55.85 54.4 59.8 54.4 59.7 56.6 54.2 M50.0 71.75 L50.55 74.35 Q49.75 75.55 47.3 74.9 L48.7 72.45 48.8 72.5 49.05 71.85 49.15 71.75 48.8 72.5 49.45 72.25 50.0 71.75 M45.9 57.8 L45.95 57.8 45.9 57.8 M46.05 57.45 L46.05 57.4 46.05 57.45 46.0 57.6 45.95 57.65 46.05 57.45" fill="#e1e1d9" fill-rule="evenodd" stroke="none"/>
    <path d="M62.75 48.65 L62.1 52.9 62.25 56.35 61.4 57.95 60.6 56.65 59.7 59.5 59.6 59.9 59.3 60.75 57.9 61.2 53.45 65.45 52.3 66.95 53.95 63.1 57.0 60.4 58.75 56.3 57.9 55.35 60.95 54.95 62.75 48.65" fill="#442d20" fill-rule="evenodd" stroke="none"/>
    <path d="M56.6 54.2 L54.4 59.7 54.4 59.8 Q52.4 63.55 58.2 57.05 L58.75 56.3 57.0 60.4 53.95 63.1 50.6 66.0 51.6 72.55 50.55 74.35 50.0 71.75 49.8 70.1 49.1 71.75 48.45 72.3 47.9 66.5 48.75 63.65 52.85 58.5 53.65 52.85 56.6 54.2" fill="#420000" fill-rule="evenodd" stroke="none"/>
    <path d="M48.45 72.3 L49.1 71.75 49.05 71.85 48.8 72.5 48.7 72.45 48.45 72.35 48.45 72.3" fill="#572c15" fill-rule="evenodd" stroke="none"/>
    <path d="M58.05 81.85 L58.1 81.75 58.15 81.9 58.05 81.85" fill="#330000" fill-rule="evenodd" stroke="none"/>
    <path d="M58.6 86.5 L52.85 93.6 58.05 81.85 58.15 81.9 58.6 86.5" fill="#372e1e" fill-rule="evenodd" stroke="none"/>
    <path d="M51.55 49.4 L52.3 46.95 M56.2 51.2 L56.95 48.75" fill="none" stroke="#000000" stroke-linecap="round" stroke-linejoin="round" stroke-width="1.5"/>
    <path d="M49.25 49.35 L43.2 46.35 M57.15 52.5 L60.45 53.15" ffdec:has-small-stroke="true" ffdec:original-stroke-width="0.05" fill="none" stroke="#000000" stroke-linecap="round" stroke-linejoin="round" stroke-width="1.0"/>
    <path d="M68.0 33.3 L69.45 33.15 70.45 30.2 68.95 28.7 67.55 28.25 Q70.2 25.05 72.4 20.0 L73.55 13.1 73.75 22.8 71.95 39.55 66.15 47.55 64.2 49.25 64.2 48.1 62.75 48.4 62.75 48.5 62.75 48.65 62.1 52.9 62.25 56.35 61.4 57.95 60.6 56.65 59.7 59.5 M59.6 59.9 L59.3 60.75 57.9 61.2 58.15 69.45 60.25 78.0 61.6 81.75 61.9 79.8 65.05 84.05 62.9 94.55 58.45 104.6 49.1 118.85 48.75 118.35 48.65 118.25 55.35 106.7 57.95 99.15 58.8 88.65 58.6 86.5 52.85 93.6 58.05 81.85 58.1 81.75 56.5 76.5 53.7 69.6 53.45 65.45 52.3 66.95 51.9 67.5 53.25 73.45 53.4 74.05 Q51.0 78.95 47.05 82.35 47.5 81.3 47.15 80.2 L40.25 78.0 39.05 79.45 39.6 77.5 38.25 75.4 35.2 75.7 35.0 75.7 32.4 78.05 33.35 76.2 31.85 71.6 31.85 71.25 29.25 69.15 29.25 69.0 29.15 68.95 29.0 68.85 25.3 66.5 23.0 62.05 21.55 58.1 16.6 63.05 14.15 76.55 14.3 86.7 16.25 94.1 15.1 94.1 13.3 88.85 12.0 78.65 12.5 67.8 6.1 84.1 4.95 100.65 Q5.55 107.3 7.75 114.35 L6.65 113.9 1.65 99.0 0.0 88.05 0.05 87.55 1.0 75.7 0.9 74.05 6.6 70.3 8.45 68.3 12.65 63.75 12.65 60.75 20.35 54.9 19.2 50.9 19.7 46.3 20.7 46.6 21.7 51.2 23.75 52.25 23.8 52.25 27.55 49.45 31.3 46.55 32.2 44.5 31.4 44.2 33.7 42.9 32.7 41.9 Q33.3 38.45 35.1 34.95 36.35 32.5 38.2 30.1 L38.25 30.0 39.25 28.75 39.5 28.85 M39.75 28.95 L41.7 29.6 41.7 27.75 40.75 27.6 43.35 23.2 44.85 13.5 44.75 12.85 43.85 7.9 45.15 8.9 43.9 1.35 43.2 0.0 M43.9 1.35 L46.0 5.45 47.15 1.15 48.45 8.75 49.1 7.25 49.9 9.7 M51.7 15.2 L55.0 25.15 53.4 23.5 Q53.15 30.45 50.65 35.9 M50.2 36.9 L49.3 38.55 49.1 38.85 49.35 39.7 52.05 38.95 53.7 37.0 53.55 38.95 54.7 37.1 55.85 39.6 56.65 40.55 56.65 37.3 57.45 40.6 60.1 40.35 67.15 32.35 67.8 33.3 68.0 33.3 M44.75 12.85 L45.7 9.85 47.0 10.0 48.65 19.5 48.2 22.1 46.5 31.65 41.75 41.2 37.15 44.5 35.15 44.5 34.2 40.35 35.35 37.0 36.5 33.5 38.2 30.1 M50.2 10.6 L51.7 15.2 M49.0 38.4 L49.1 38.85 M46.35 39.25 L47.4 38.8 49.0 38.4 M62.35 48.45 L60.1 46.0 Q62.35 42.75 57.95 42.7 L57.45 40.6 M62.75 48.4 L62.35 48.45 M31.3 46.55 L30.4 48.65 M23.8 52.25 L23.65 52.4 16.9 61.25 16.6 63.05 M23.65 52.4 L23.75 52.25 M23.65 52.4 L20.35 54.9 M21.55 58.1 L26.45 53.25 27.55 49.45 M30.2 54.85 L29.0 60.65 32.3 57.0 30.4 65.0 29.25 68.85 29.25 69.0 M31.3 67.95 L31.75 68.45 31.85 71.25 M29.0 68.85 L27.9 65.0 27.1 59.75 M12.65 63.75 L12.5 67.8 M12.0 65.85 L3.7 82.2 2.95 94.9 M53.45 65.45 L57.9 61.2 M58.15 81.9 L58.1 81.75 M58.15 81.9 L58.6 86.5" ffdec:has-small-stroke="true" ffdec:original-stroke-width="0.05" fill="none" stroke="#000000" stroke-linecap="round" stroke-linejoin="round" stroke-opacity="0.3019608" stroke-width="1.0"/>
    <path d="M43.65 58.95 L43.8 60.1 Q43.7 62.0 44.65 60.5 L45.05 59.95 Q45.55 59.45 45.9 60.2 L46.05 60.7 Q46.55 62.4 45.75 63.25 L44.95 63.85 43.85 64.1 Q42.75 64.1 41.95 63.25 41.15 62.4 41.15 61.2 41.15 60.0 42.55 59.1 43.3 58.55 43.65 58.95" fill="#000000" fill-rule="evenodd" stroke="none"/>
  </g>
</svg>
