<?xml version="1.0" encoding="UTF-8" standalone="no"?>
<svg xmlns:ffdec="https://www.free-decompiler.com/flash" xmlns:xlink="http://www.w3.org/1999/xlink" ffdec:objectType="shape" height="53.85px" width="60.65px" xmlns="http://www.w3.org/2000/svg">
  <g transform="matrix(1.0, 0.0, 0.0, 1.0, -227.8, -153.65)">
    <path d="M231.05 202.0 Q227.6 199.35 228.15 197.85 L229.1 194.6 230.0 193.5 230.0 193.45 230.05 192.35 Q230.15 190.6 232.3 186.6 234.4 182.6 237.4 182.1 L246.95 180.05 247.05 179.75 248.25 176.1 246.2 176.2 Q245.15 176.45 245.5 163.1 L248.7 161.15 Q249.0 162.4 249.55 163.35 L250.1 166.75 Q250.1 166.9 247.5 165.5 L247.9 169.9 250.7 171.9 256.7 171.9 Q253.55 173.7 252.45 176.85 L250.1 176.3 248.25 176.1 250.1 176.3 252.45 176.85 Q251.6 179.2 258.7 184.3 251.2 182.55 250.6 182.8 238.5 180.35 235.35 187.25 L231.2 196.1 231.6 196.85 232.2 197.8 233.4 199.4 237.3 200.2 233.4 199.4 232.2 197.8 231.6 196.85 232.05 196.65 232.2 197.8 237.4 200.25 237.3 200.2 236.0 200.9 Q233.8 201.85 231.05 202.0 M285.15 160.65 Q287.75 168.15 287.0 173.95 L286.9 174.35 288.2 181.6 285.85 182.15 284.75 175.15 Q285.6 168.95 283.35 163.65 L283.55 163.45 Q284.75 162.05 285.0 160.5 L285.1 160.55 285.15 160.65 M284.0 182.2 L285.05 184.85 285.3 187.05 285.4 187.75 285.45 188.95 285.4 190.4 285.05 191.9 Q284.8 192.45 282.7 193.25 284.45 188.75 282.35 182.7 L284.0 182.2 M230.0 193.45 L230.85 195.45 231.2 196.1 230.85 195.45 230.0 193.45 M247.05 179.75 L247.05 179.8 Q249.25 181.2 250.6 182.8 249.25 181.2 247.05 179.8 L247.05 179.75" fill="#855810" fill-rule="evenodd" stroke="none"/>
    <path d="M245.5 163.1 L247.4 159.85 Q255.05 154.1 266.9 153.9 277.5 153.75 283.55 158.15 L282.15 158.5 Q280.55 157.55 278.75 156.85 L276.0 158.55 Q262.0 157.05 249.85 163.8 L250.65 164.7 251.35 165.3 Q253.8 167.1 258.65 168.4 261.9 169.25 264.15 169.4 L266.1 169.4 272.3 168.8 272.8 168.75 272.35 168.75 272.65 168.7 Q280.5 166.6 283.35 163.65 285.6 168.95 284.75 175.15 L285.85 182.15 284.0 182.2 282.35 182.7 280.4 183.25 280.05 183.35 274.15 184.85 Q270.1 185.7 266.15 184.1 L263.2 182.7 262.45 182.35 Q259.55 180.75 255.8 178.3 254.4 177.4 252.45 176.85 254.4 177.4 255.8 178.3 259.55 180.75 262.45 182.35 L263.2 182.7 Q267.3 186.3 268.35 190.5 268.7 195.0 265.55 196.55 L265.35 196.55 265.0 197.45 263.05 198.55 249.75 202.85 241.5 201.1 237.6 200.3 241.5 201.1 Q244.1 202.3 244.55 204.25 L243.15 207.1 237.45 205.75 Q235.25 204.8 232.95 203.3 L231.05 202.0 Q233.8 201.85 236.0 200.9 L237.3 200.2 237.4 200.25 232.2 197.8 232.05 196.65 231.6 196.85 231.2 196.1 235.35 187.25 Q238.5 180.35 250.6 182.8 L251.25 183.7 252.55 187.5 Q253.3 189.6 255.8 190.35 258.75 191.2 262.2 197.1 L263.05 198.55 262.2 197.1 Q258.75 191.2 255.8 190.35 253.3 189.6 252.55 187.5 L251.25 183.7 250.6 182.8 Q251.2 182.55 258.7 184.3 251.6 179.2 252.45 176.85 253.55 173.7 256.7 171.9 L250.7 171.9 247.9 169.9 247.5 165.5 Q250.1 166.9 250.1 166.75 L249.55 163.35 Q249.0 162.4 248.7 161.15 L245.5 163.1 M237.6 200.3 L237.4 200.25 237.5 200.3 237.6 200.3 M249.85 163.8 L249.55 163.35 249.85 163.8 M278.75 156.85 Q274.25 155.1 268.35 154.75 258.05 154.6 250.0 159.8 258.05 154.6 268.35 154.75 274.25 155.1 278.75 156.85 M272.8 168.75 L272.65 168.7 272.8 168.75 M249.2 160.3 Q248.7 160.65 248.7 161.15 248.7 160.65 249.2 160.3 M237.6 201.25 L236.0 200.9 237.6 201.25" fill="#5f3f0c" fill-rule="evenodd" stroke="none"/>
    <path d="M283.55 158.15 L283.75 158.3 284.75 159.15 285.1 160.55 285.0 160.5 Q284.75 162.05 283.55 163.45 L283.35 163.65 Q280.5 166.6 272.65 168.7 L272.35 168.75 272.3 168.8 266.1 169.4 264.15 169.4 Q261.9 169.25 258.65 168.4 253.8 167.1 251.35 165.3 L250.65 164.7 249.85 163.8 Q262.0 157.05 276.0 158.55 L278.75 156.85 Q280.55 157.55 282.15 158.5 L283.55 158.15 M282.7 193.25 L282.6 193.3 279.55 194.3 Q274.75 195.65 271.35 196.05 L265.55 196.55 Q268.7 195.0 268.35 190.5 267.3 186.3 263.2 182.7 L266.15 184.1 Q270.1 185.7 274.15 184.85 L280.05 183.35 280.4 183.25 282.35 182.7 Q284.45 188.75 282.7 193.25 M265.0 197.45 L263.7 200.7 Q248.95 207.1 243.85 207.25 L243.15 207.1 244.55 204.25 Q244.1 202.3 241.5 201.1 L249.75 202.85 263.05 198.55 265.0 197.45" fill="#462f09" fill-rule="evenodd" stroke="none"/>
    <path d="M231.05 202.0 Q227.6 199.35 228.15 197.85 L229.1 194.6 230.0 193.5 230.0 193.45 230.05 192.35 Q230.15 190.6 232.3 186.6 234.4 182.6 237.4 182.1 L246.95 180.05 247.05 179.75 248.25 176.1 246.2 176.2 Q245.15 176.45 245.5 163.1 L247.4 159.85 Q255.05 154.1 266.9 153.9 277.5 153.75 283.55 158.15 L283.75 158.3 284.75 159.15 285.1 160.55 285.15 160.65 Q287.75 168.15 287.0 173.95 L286.9 174.35 288.2 181.6 285.85 182.15 284.0 182.2 285.05 184.85 285.3 187.05 285.4 187.75 285.45 188.95 285.4 190.4 285.05 191.9 Q284.8 192.45 282.7 193.25 L282.6 193.3 279.55 194.3 Q274.75 195.65 271.35 196.05 L265.55 196.55 265.35 196.55 265.0 197.45 263.7 200.7 Q248.95 207.1 243.85 207.25 M237.45 205.75 Q235.25 204.8 232.95 203.3 L231.05 202.0 M237.3 200.2 L233.4 199.4 232.2 197.8 231.6 196.85 231.2 196.1 230.85 195.45 230.0 193.45 M237.4 200.25 L237.6 200.3 241.5 201.1 249.75 202.85 263.05 198.55 262.2 197.1 Q258.75 191.2 255.8 190.35 253.3 189.6 252.55 187.5 L251.25 183.7 250.6 182.8 Q249.25 181.2 247.05 179.8 L247.05 179.75 M249.85 163.8 L250.65 164.7 251.35 165.3 Q253.8 167.1 258.65 168.4 261.9 169.25 264.15 169.4 L266.1 169.4 272.3 168.8 272.8 168.75 272.35 168.75 272.65 168.7 Q280.5 166.6 283.35 163.65 L283.55 163.45 Q284.75 162.05 285.0 160.5 L285.1 160.55 285.15 160.65 M278.75 156.85 Q280.55 157.55 282.15 158.5 M272.65 168.7 L272.8 168.75 M250.0 159.8 Q258.05 154.6 268.35 154.75 274.25 155.1 278.75 156.85 M249.55 163.35 L249.85 163.8 M252.45 176.85 Q254.4 177.4 255.8 178.3 259.55 180.75 262.45 182.35 L263.2 182.7 266.15 184.1 Q270.1 185.7 274.15 184.85 L280.05 183.35 280.4 183.25 282.35 182.7 284.0 182.2 M248.7 161.15 Q249.0 162.4 249.55 163.35 M248.7 161.15 Q248.7 160.65 249.2 160.3 M248.25 176.1 L250.1 176.3 252.45 176.85 M236.0 200.9 L237.6 201.25 M237.3 200.2 L237.4 200.25 M263.05 198.55 L265.0 197.45" ffdec:has-small-stroke="true" ffdec:original-stroke-width="0.5" fill="none" stroke="#232312" stroke-linecap="round" stroke-linejoin="round" stroke-opacity="0.5019608" stroke-width="1.0"/>
  </g>
</svg>
