<?xml version="1.0" encoding="UTF-8" standalone="no"?>
<svg xmlns:ffdec="https://www.free-decompiler.com/flash" xmlns:xlink="http://www.w3.org/1999/xlink" ffdec:objectType="shape" height="57.1px" width="46.9px" xmlns="http://www.w3.org/2000/svg">
  <g transform="matrix(1.0, 0.0, 0.0, 1.0, -269.85, -261.3)">
    <path d="M302.05 274.55 L291.8 274.05 291.4 273.75 Q289.5 269.9 289.85 265.4 L290.4 265.05 296.8 264.7 Q302.4 263.5 307.55 261.3 L308.25 261.3 309.75 266.55 309.8 266.75 309.95 267.4 Q308.5 266.6 306.35 266.4 302.7 267.45 302.05 271.05 301.65 273.0 302.05 274.55" fill="#d5dcfd" fill-rule="evenodd" stroke="none"/>
    <path d="M309.95 267.4 Q313.2 269.0 313.4 273.2 L313.25 275.0 Q313.05 276.1 312.4 277.0 L311.05 278.35 Q309.55 279.5 307.65 279.05 L307.45 279.05 Q302.9 277.85 302.05 274.55 301.65 273.0 302.05 271.05 302.7 267.45 306.35 266.4 308.5 266.6 309.95 267.4" fill="#ffffff" fill-opacity="0.7019608" fill-rule="evenodd" stroke="none"/>
    <path d="M308.6 280.3 L309.25 280.15 Q312.3 280.7 310.55 283.0 L309.9 283.3 Q307.05 283.25 307.9 281.0 308.1 280.5 308.6 280.3 M312.45 288.45 Q311.25 286.95 313.15 286.45 315.4 287.35 313.4 288.55 312.85 288.9 312.45 288.45" fill="#ff1d11" fill-rule="evenodd" stroke="none"/>
    <path d="M274.9 296.5 Q279.9 298.05 277.4 302.8 276.55 304.5 274.65 304.65 269.2 305.05 269.95 300.95 269.6 299.95 270.65 298.9 271.7 296.95 274.2 296.65 L274.9 296.5 M312.4 277.0 L312.65 277.05 Q314.5 279.5 315.85 284.3 317.2 289.25 316.5 294.45 315.75 299.65 312.85 305.4 309.95 311.15 304.2 314.5 301.05 316.35 298.85 316.6 297.0 318.0 294.4 318.05 L292.95 318.2 287.45 317.8 Q286.45 317.45 285.95 317.05 L285.95 315.45 286.0 315.4 286.45 315.05 285.95 315.15 285.95 312.6 287.75 312.15 288.8 311.85 287.6 310.9 Q285.65 308.9 286.9 306.4 287.8 304.6 289.65 303.9 L290.45 303.8 290.65 303.4 291.6 301.8 Q294.6 295.25 292.75 288.25 291.75 284.55 289.1 281.6 288.65 281.6 288.55 281.2 288.15 279.8 289.65 279.55 L293.45 280.15 Q293.75 279.8 294.25 279.75 295.85 280.15 297.15 280.75 303.85 280.0 307.65 279.05 309.55 279.5 311.05 278.35 L312.4 277.0 M299.55 288.6 Q298.95 286.75 297.5 285.25 295.45 283.05 292.7 282.2 294.2 283.8 294.85 286.1 296.95 292.95 295.05 299.8 294.55 301.6 293.65 303.2 L295.5 303.25 Q297.55 301.6 298.6 299.2 L300.3 293.95 Q300.4 291.25 299.55 288.6 M301.4 284.35 Q302.2 285.5 302.7 286.95 304.45 291.9 303.75 297.15 302.85 303.85 298.85 309.35 L301.15 306.9 Q305.55 301.1 306.05 294.15 306.3 291.15 304.7 288.55 L303.6 286.5 301.4 284.35 M312.45 288.45 Q312.85 288.9 313.4 288.55 315.4 287.35 313.15 286.45 311.25 286.95 312.45 288.45 M308.6 280.3 Q308.1 280.5 307.9 281.0 307.05 283.25 309.9 283.3 L310.55 283.0 Q312.3 280.7 309.25 280.15 L308.6 280.3" fill="#d6570c" fill-rule="evenodd" stroke="none"/>
    <path d="M276.6 295.8 Q275.5 296.45 274.7 295.45 272.35 292.35 276.15 291.25 280.65 293.2 276.6 295.8" fill="#f8a878" fill-rule="evenodd" stroke="none"/>
  </g>
</svg>
