<?xml version="1.0" encoding="UTF-8" standalone="no"?>
<svg xmlns:ffdec="https://www.free-decompiler.com/flash" xmlns:xlink="http://www.w3.org/1999/xlink" ffdec:objectType="shape" height="85.05px" width="81.95px" xmlns="http://www.w3.org/2000/svg">
  <g transform="matrix(1.0, 0.0, 0.0, 1.0, -186.85, -120.6)">
    <path d="M213.8 180.95 L214.0 182.05 213.15 183.3 Q210.9 186.1 208.5 185.6 206.2 185.1 204.95 182.0 L204.8 182.35 205.15 180.1 Q205.8 177.95 207.15 177.3 209.5 181.65 213.8 180.95 M241.05 184.3 Q244.65 186.0 247.8 182.35 248.85 183.25 248.95 185.5 L248.75 187.75 248.65 187.4 Q246.85 190.1 244.7 190.05 242.4 190.0 241.1 186.75 L240.6 185.35 241.05 184.3 M225.9 185.15 Q225.4 184.15 225.6 182.9 225.7 181.65 226.35 180.9 L226.45 180.75 Q227.1 179.9 227.9 180.0 L228.3 180.15 Q228.9 180.35 229.6 181.0 230.05 181.35 230.25 182.15 L230.3 182.35 230.5 183.4 230.55 184.65 Q230.5 187.4 229.65 188.75 228.8 190.1 227.55 188.1 L225.9 185.15" fill="#f5eed3" fill-rule="evenodd" stroke="none"/>
    <path d="M234.9 127.05 L235.05 127.1 235.05 127.25 234.9 127.05 M233.65 132.15 L233.6 132.45 233.65 132.15 M232.35 150.65 L233.65 148.9 232.5 150.9 232.45 151.1 232.35 150.65 M264.0 160.35 L265.5 159.4 266.35 159.6 Q266.65 160.0 266.65 160.9 L266.3 162.5 265.3 163.95 264.75 164.3 264.65 164.3 263.85 163.95 Q263.05 163.3 262.95 162.2 262.85 161.05 264.0 160.35" fill="#dec696" fill-rule="evenodd" stroke="none"/>
    <path d="M263.5 153.35 L264.2 153.4 265.65 153.95 Q266.85 154.7 267.6 156.35 L268.4 158.85 268.5 159.75 268.55 160.95 268.15 162.35 Q266.65 166.55 263.3 167.8 L264.55 168.45 264.2 168.5 Q265.8 170.9 263.9 174.1 L263.75 174.3 Q261.35 176.55 258.9 175.2 L259.0 178.3 258.95 179.6 258.3 181.25 Q252.85 185.65 248.35 179.0 L247.5 177.3 Q243.65 181.55 240.1 177.15 L239.1 175.7 Q238.55 174.75 238.35 173.7 L238.15 172.45 237.25 173.35 Q236.1 173.85 234.35 171.8 233.55 167.5 235.45 163.25 231.6 159.7 232.45 151.1 L232.5 150.9 233.65 148.9 232.35 150.65 231.95 150.7 231.45 150.65 231.2 150.6 Q228.0 150.1 226.8 144.0 L229.4 143.65 Q225.85 143.65 226.65 138.95 228.5 136.75 230.4 135.25 L230.7 135.3 230.85 134.85 233.6 133.1 Q246.55 126.3 260.2 149.8 L263.25 153.4 263.5 153.35 M193.05 159.65 L194.5 159.35 Q191.25 157.25 190.8 152.8 L190.7 151.4 191.4 149.35 Q191.95 148.1 192.85 147.15 194.05 145.7 195.5 145.3 L197.2 145.15 197.95 145.25 197.8 144.8 197.5 142.75 197.5 141.05 197.6 140.1 197.6 141.05 198.4 140.3 Q215.05 124.45 216.85 135.8 229.3 120.3 225.8 138.7 224.6 141.1 224.2 144.4 L223.4 148.75 Q223.0 150.9 223.35 152.65 L224.0 154.55 224.35 155.1 224.05 155.25 222.55 156.4 220.95 158.3 219.5 160.65 219.35 161.1 Q217.1 167.7 218.05 169.5 L218.9 170.7 219.45 171.2 218.0 173.1 Q212.15 178.35 208.75 172.5 L207.45 174.0 Q200.95 179.25 196.4 173.6 L196.1 171.85 196.35 170.55 Q196.75 168.95 197.25 167.65 194.3 168.3 192.35 165.5 L192.25 165.3 Q191.0 161.7 193.35 159.8 L193.05 159.65 M233.5 134.75 L233.6 133.1 233.5 134.75 M199.25 145.9 L197.95 145.25 199.25 145.9 M264.0 160.35 Q262.85 161.05 262.95 162.2 263.05 163.3 263.85 163.95 L264.65 164.3 264.75 164.3 265.3 163.95 266.3 162.5 266.65 160.9 Q266.65 160.0 266.35 159.6 L265.5 159.4 264.0 160.35 M249.8 171.2 Q249.4 172.95 250.15 175.25 L251.0 176.85 251.1 176.95 252.05 177.25 Q253.15 177.05 253.95 176.45 254.7 175.8 255.1 174.55 255.5 173.25 255.3 172.15 255.1 170.95 254.35 170.6 L251.95 169.8 Q250.2 169.3 249.8 171.2 M262.2 153.65 L263.25 153.4 262.2 153.65" fill="#f9f2e6" fill-rule="evenodd" stroke="none"/>
    <path d="M234.6 127.0 L234.65 127.05 234.8 127.05 234.9 127.05 235.05 127.25 235.05 127.1 235.1 127.1 235.05 127.25 234.75 127.85 Q233.95 129.75 233.65 132.15 L233.6 132.45 Q232.1 131.3 230.85 134.85 L230.7 135.3 230.4 135.25 230.05 135.15 229.15 135.2 Q229.5 132.85 230.35 131.05 L231.3 129.35 Q232.85 127.0 234.6 127.0 M264.55 168.45 L265.35 168.9 265.5 168.95 265.75 169.15 265.75 169.1 266.2 169.45 266.95 170.6 Q268.1 172.65 267.75 175.4 L267.55 176.6 266.55 178.9 Q263.35 180.75 261.65 178.85 L264.55 183.0 264.55 183.05 Q265.25 184.45 265.3 186.2 L265.35 186.9 265.25 188.35 Q264.9 191.4 263.3 193.4 261.85 195.05 260.25 195.2 259.7 197.85 258.0 199.65 256.05 201.6 253.8 201.5 L253.5 201.45 Q251.55 201.2 250.2 199.5 249.7 202.0 248.05 203.7 L246.95 204.6 Q245.6 205.5 244.0 205.4 L243.7 205.4 Q242.2 205.2 241.1 204.25 L239.85 202.7 239.8 202.8 235.95 196.6 234.95 196.8 Q229.4 197.65 226.45 195.3 222.65 196.85 217.1 194.6 L216.05 194.15 210.4 199.2 210.4 199.05 208.65 200.25 205.65 200.7 205.35 200.65 Q203.6 200.35 202.4 199.1 L201.5 198.0 Q200.15 195.9 200.25 193.4 198.4 194.65 196.3 194.4 L196.0 194.35 Q193.55 193.9 192.05 191.5 190.65 189.3 190.8 186.6 189.1 186.05 188.05 184.1 186.8 181.8 187.2 178.75 L187.5 177.3 187.7 176.65 Q188.2 174.95 189.3 173.75 L189.35 173.7 193.4 170.4 Q191.1 171.85 188.25 169.25 187.8 168.1 187.8 166.8 L187.85 165.55 Q188.2 162.8 189.9 161.1 L191.05 160.2 191.45 160.05 191.55 159.95 191.6 160.0 191.9 159.9 192.05 159.9 193.05 159.65 193.35 159.8 Q191.0 161.7 192.25 165.3 L192.35 165.5 Q194.3 168.3 197.25 167.65 196.75 168.95 196.35 170.55 L196.1 171.85 196.4 173.6 Q200.95 179.25 207.45 174.0 L208.75 172.5 Q212.15 178.35 218.0 173.1 L219.45 171.2 218.9 170.7 218.05 169.5 Q217.1 167.7 219.35 161.1 L219.5 160.65 220.95 158.3 222.55 156.4 224.05 155.25 224.35 155.1 224.0 154.55 223.35 152.65 Q223.0 150.9 223.4 148.75 L224.2 144.4 Q224.6 141.1 225.8 138.7 L226.3 137.8 227.25 136.5 226.65 138.95 Q225.85 143.65 229.4 143.65 L226.8 144.0 Q228.0 150.1 231.2 150.6 L231.45 150.65 231.95 150.7 232.35 150.65 232.45 151.1 Q231.6 159.7 235.45 163.25 233.55 167.5 234.35 171.8 236.1 173.85 237.25 173.35 L238.15 172.45 238.35 173.7 Q238.55 174.75 239.1 175.7 L240.1 177.15 Q243.65 181.55 247.5 177.3 L248.35 179.0 Q252.85 185.65 258.3 181.25 L258.95 179.6 259.0 178.3 258.9 175.2 Q261.35 176.55 263.75 174.3 L263.9 174.1 Q265.8 170.9 264.2 168.5 L264.55 168.45 M197.6 140.05 L197.0 139.9 197.25 139.95 197.35 139.95 197.45 140.0 197.6 140.05 M201.8 191.9 L200.25 193.4 201.8 191.9 M190.8 186.6 L191.45 186.75 193.3 186.55 191.45 186.75 190.8 186.6 M213.8 180.95 Q209.5 181.65 207.15 177.3 205.8 177.95 205.15 180.1 L204.8 182.35 204.95 182.0 Q206.2 185.1 208.5 185.6 210.9 186.1 213.15 183.3 L214.0 182.05 213.8 180.95 M241.05 184.3 L240.6 185.35 241.1 186.75 Q242.4 190.0 244.7 190.05 246.85 190.1 248.65 187.4 L248.75 187.75 248.95 185.5 Q248.85 183.25 247.8 182.35 244.65 186.0 241.05 184.3 M225.9 185.15 L227.55 188.1 Q228.8 190.1 229.65 188.75 230.5 187.4 230.55 184.65 L230.5 183.4 230.3 182.35 230.25 182.15 Q230.05 181.35 229.6 181.0 228.9 180.35 228.3 180.15 L227.9 180.0 Q227.1 179.9 226.45 180.75 L226.35 180.9 Q225.7 181.65 225.6 182.9 225.4 184.15 225.9 185.15 M249.8 171.2 Q250.2 169.3 251.95 169.8 L254.35 170.6 Q255.1 170.95 255.3 172.15 255.5 173.25 255.1 174.55 254.7 175.8 253.95 176.45 253.15 177.05 252.05 177.25 L251.1 176.95 251.0 176.85 250.15 175.25 Q249.4 172.95 249.8 171.2 M210.4 199.05 Q212.0 197.55 212.6 195.45 212.0 197.55 210.4 199.05 M249.2 197.7 L250.2 199.5 249.2 197.7 M239.85 202.7 Q238.75 200.9 238.75 198.65 238.75 200.9 239.85 202.7 M260.25 195.2 L259.6 195.15 258.05 194.5 259.6 195.15 260.25 195.2" fill="#ebdabe" fill-rule="evenodd" stroke="none"/>
    <path d="M197.6 140.05 Q197.8 138.65 198.15 137.45 L198.25 137.2 Q201.15 131.55 203.1 131.8 205.0 132.05 205.9 132.9 206.0 132.05 206.25 131.35 206.7 129.95 207.45 129.0 208.75 127.35 210.25 127.55 211.35 127.7 212.1 128.7 212.75 126.25 214.2 124.45 215.05 123.3 216.05 122.7 217.3 121.9 218.75 122.1 221.05 122.35 222.45 125.1 L223.65 123.35 224.3 122.65 224.4 122.65 Q225.2 121.85 226.05 121.4 227.3 120.75 228.65 120.85 L229.05 120.9 Q231.5 121.15 233.15 123.7 L233.55 124.4 233.65 124.55 234.6 127.0 Q232.85 127.0 231.3 129.35 L230.35 131.05 Q229.5 132.85 229.15 135.2 L230.05 135.15 230.4 135.25 Q228.5 136.75 226.65 138.95 L227.25 136.5 226.3 137.8 225.8 138.7 Q229.3 120.3 216.85 135.8 215.05 124.45 198.4 140.3 L197.6 141.05 197.6 140.1 197.6 140.05 M235.1 127.1 Q235.65 125.9 236.5 124.9 L236.65 124.8 237.15 124.2 Q239.15 122.1 241.45 122.4 L241.8 122.5 Q243.05 122.7 244.05 123.65 L245.2 125.2 245.25 125.25 245.7 126.05 246.35 128.05 Q248.2 125.7 250.35 126.0 251.65 126.15 252.65 127.25 253.35 128.05 253.85 129.35 254.7 131.4 254.75 133.95 255.65 133.15 256.65 133.25 258.05 133.45 258.85 135.35 L259.35 137.9 259.3 139.45 Q260.25 138.85 262.05 139.1 263.8 139.3 265.1 145.5 L265.15 145.7 265.0 148.4 264.5 151.0 263.7 152.95 263.5 153.35 263.25 153.4 260.2 149.8 Q246.55 126.3 233.6 133.1 L233.6 132.45 233.6 133.1 230.85 134.85 Q232.1 131.3 233.6 132.45 L233.65 132.15 Q233.95 129.75 234.75 127.85 L235.05 127.25 235.1 127.1 M257.6 141.15 Q258.4 139.95 259.3 139.45 258.4 139.95 257.6 141.15 M246.35 128.05 L246.75 130.45 246.35 128.05 M252.9 137.2 Q253.3 135.75 254.05 134.75 L254.75 133.95 254.05 134.75 Q253.3 135.75 252.9 137.2" fill="#fefcfa" fill-rule="evenodd" stroke="none"/>
    <path d="M197.6 140.05 Q197.8 138.65 198.15 137.45 L198.25 137.2 Q201.15 131.55 203.1 131.8 205.0 132.05 205.9 132.9 206.0 132.05 206.25 131.35 206.7 129.95 207.45 129.0 208.75 127.35 210.25 127.55 211.35 127.7 212.1 128.7 212.75 126.25 214.2 124.45 215.05 123.3 216.05 122.7 217.3 121.9 218.75 122.1 221.05 122.35 222.45 125.1 L223.65 123.35 224.3 122.65 224.4 122.65 Q225.2 121.85 226.05 121.4 227.3 120.75 228.65 120.85 L229.05 120.9 Q231.5 121.15 233.15 123.7 L233.55 124.4 233.65 124.55 234.6 127.0 M235.05 127.1 L235.1 127.1 Q235.65 125.9 236.5 124.9 L236.65 124.8 237.15 124.2 Q239.15 122.1 241.45 122.4 L241.8 122.5 Q243.05 122.7 244.05 123.65 L245.2 125.2 245.25 125.25 245.7 126.05 246.35 128.05 Q248.2 125.7 250.35 126.0 251.65 126.15 252.65 127.25 253.35 128.05 253.85 129.35 254.7 131.4 254.75 133.95 255.65 133.15 256.65 133.25 258.05 133.45 258.85 135.35 L259.35 137.9 259.3 139.45 Q260.25 138.85 262.05 139.1 263.8 139.3 265.1 145.5 L265.15 145.7 265.0 148.4 264.5 151.0 263.7 152.95 263.5 153.35 264.2 153.4 265.65 153.95 Q266.85 154.7 267.6 156.35 L268.4 158.85 268.5 159.75 268.55 160.95 268.15 162.35 Q266.65 166.55 263.3 167.8 L264.55 168.45 265.35 168.9 265.5 168.95 265.75 169.15 265.75 169.1 266.2 169.45 266.95 170.6 Q268.1 172.65 267.75 175.4 L267.55 176.6 266.55 178.9 Q263.35 180.75 261.65 178.85 L264.55 183.0 264.55 183.05 Q265.25 184.45 265.3 186.2 L265.35 186.9 265.25 188.35 Q264.9 191.4 263.3 193.4 261.85 195.05 260.25 195.2 259.7 197.85 258.0 199.65 256.05 201.6 253.8 201.5 L253.5 201.45 Q251.55 201.2 250.2 199.5 249.7 202.0 248.05 203.7 L246.95 204.6 Q245.6 205.5 244.0 205.4 L243.7 205.4 Q242.2 205.2 241.1 204.25 L239.85 202.7 239.8 202.8 235.95 196.6 234.95 196.8 Q229.4 197.65 226.45 195.3 222.65 196.85 217.1 194.6 L216.05 194.15 210.4 199.2 210.4 199.05 208.65 200.25 205.65 200.7 205.35 200.65 Q203.6 200.35 202.4 199.1 L201.5 198.0 Q200.15 195.9 200.25 193.4 198.4 194.65 196.3 194.4 L196.0 194.35 Q193.55 193.9 192.05 191.5 190.65 189.3 190.8 186.6 189.1 186.05 188.05 184.1 186.8 181.8 187.2 178.75 L187.5 177.3 187.7 176.65 Q188.2 174.95 189.3 173.75 L189.35 173.7 193.4 170.4 Q191.1 171.85 188.25 169.25 187.8 168.1 187.8 166.8 L187.85 165.55 Q188.2 162.8 189.9 161.1 L191.05 160.2 191.45 160.05 191.55 159.95 191.6 160.0 191.9 159.9 192.05 159.9 193.05 159.65 194.5 159.35 Q191.25 157.25 190.8 152.8 L190.7 151.4 191.4 149.35 Q191.95 148.1 192.85 147.15 194.05 145.7 195.5 145.3 L197.2 145.15 197.95 145.25 197.8 144.8 197.5 142.75 197.5 141.05 197.6 140.1 197.6 140.05 197.45 140.0 197.35 139.95 M235.1 127.1 L235.05 127.25 234.75 127.85 Q233.95 129.75 233.65 132.15 L233.6 132.45 233.6 133.1 233.5 134.75 M263.25 153.4 L263.5 153.35 M197.95 145.25 L199.25 145.9 M193.3 186.55 L191.45 186.75 190.8 186.6 M200.25 193.4 L201.8 191.9 M254.75 133.95 L254.05 134.75 Q253.3 135.75 252.9 137.2 M246.75 130.45 L246.35 128.05 M259.3 139.45 Q258.4 139.95 257.6 141.15 M263.25 153.4 L262.2 153.65 M258.05 194.5 L259.6 195.15 260.25 195.2 M238.75 198.65 Q238.75 200.9 239.85 202.7 M250.2 199.5 L249.2 197.7 M212.6 195.45 Q212.0 197.55 210.4 199.05" ffdec:has-small-stroke="true" ffdec:original-stroke-width="0.5" fill="none" stroke="#423212" stroke-linecap="round" stroke-linejoin="round" stroke-opacity="0.5019608" stroke-width="1.0"/>
  </g>
</svg>
