<?xml version="1.0" encoding="UTF-8" standalone="no"?>
<svg xmlns:ffdec="https://www.free-decompiler.com/flash" xmlns:xlink="http://www.w3.org/1999/xlink" ffdec:objectType="shape" height="50.6px" width="171.85px" xmlns="http://www.w3.org/2000/svg">
  <g transform="matrix(1.0, 0.0, 0.0, 1.0, 85.9, 30.0)">
    <path d="M65.55 -19.6 Q45.7 -21.5 28.55 -16.45 16.25 -12.85 5.35 -5.65 -1.6 -1.1 -7.95 4.9 -11.8 1.65 -16.15 8.1 -16.65 8.5 -25.4 12.9 -26.8 9.45 -33.05 11.75 -39.45 12.5 -35.6 18.9 -42.3 18.15 -50.6 18.5 -59.7 18.85 -70.65 20.6 L-74.3 17.2 Q-67.35 15.45 -73.55 12.95 -76.2 11.85 -81.2 10.65 L-85.9 6.25 Q-46.35 13.75 -28.65 -2.4 -19.8 -4.0 -21.8 -8.5 -5.7 -20.75 15.55 -26.7 36.75 -32.65 59.75 -27.8 68.25 -20.9 81.7 -15.95 73.3 -18.25 65.55 -19.6" fill="url(#gradient0)" fill-rule="evenodd" stroke="none"/>
    <path d="M81.7 -15.95 L81.95 -15.8 Q89.95 -12.15 81.95 -8.25 75.55 -5.15 58.75 -1.9 61.7 -3.7 52.15 -5.2 46.65 -4.05 45.95 0.4 L34.65 2.15 Q31.7 -4.5 18.1 -6.75 66.7 -13.65 65.55 -19.6 73.3 -18.25 81.7 -15.95" fill="url(#gradient1)" fill-rule="evenodd" stroke="none"/>
    <path d="M65.55 -19.6 Q45.7 -21.5 28.55 -16.45 16.25 -12.85 5.35 -5.65 -1.6 -1.1 -7.95 4.9 -11.8 1.65 -16.15 8.1 -16.65 8.5 -25.4 12.9 -26.8 9.45 -33.05 11.75 -39.45 12.5 -35.6 18.9 -42.3 18.15 -50.6 18.5 -59.7 18.85 -70.65 20.6 L-74.3 17.2 Q-67.35 15.45 -73.55 12.95 -76.2 11.85 -81.2 10.65 L-85.9 6.25 Q-46.35 13.75 -28.65 -2.4 -19.8 -4.0 -21.8 -8.5 -5.7 -20.75 15.55 -26.7 36.75 -32.65 59.75 -27.8 68.25 -20.9 81.7 -15.95 L81.95 -15.8 Q89.95 -12.15 81.95 -8.25 75.55 -5.15 58.75 -1.9 61.7 -3.7 52.15 -5.2 46.65 -4.05 45.95 0.4 L34.65 2.15 Q31.7 -4.5 18.1 -6.75 66.7 -13.65 65.55 -19.6 73.3 -18.25 81.7 -15.95" ffdec:has-small-stroke="true" ffdec:original-stroke-width="0.05" fill="none" stroke="#504021" stroke-linecap="round" stroke-linejoin="round" stroke-opacity="0.7294118" stroke-width="1.0"/>
  </g>
  <defs>
    <linearGradient gradientTransform="matrix(-0.0648, 0.0196, -0.0103, -0.0157, -16.25, -1.7)" gradientUnits="userSpaceOnUse" id="gradient0" spreadMethod="pad" x1="-819.2" x2="819.2">
      <stop offset="0.0" stop-color="#d1c7a3"/>
      <stop offset="1.0" stop-color="#e1d9c8"/>
    </linearGradient>
    <linearGradient gradientTransform="matrix(0.0246, -0.0106, 0.0096, 0.0118, 61.1, -12.3)" gradientUnits="userSpaceOnUse" id="gradient1" spreadMethod="pad" x1="-819.2" x2="819.2">
      <stop offset="0.0" stop-color="#b6a66d"/>
      <stop offset="1.0" stop-color="#97814f"/>
    </linearGradient>
  </defs>
</svg>
