<?xml version="1.0" encoding="UTF-8" standalone="no"?>
<svg xmlns:ffdec="https://www.free-decompiler.com/flash" xmlns:xlink="http://www.w3.org/1999/xlink" ffdec:objectType="shape" height="290.25px" width="195.75px" xmlns="http://www.w3.org/2000/svg">
  <g transform="matrix(1.0, 0.0, 0.0, 1.0, -173.9, -2.85)">
    <path d="M337.95 9.05 L330.95 20.75 333.8 3.55 330.95 20.75 337.95 9.05 341.7 2.85 Q366.9 4.3 369.65 20.75 L346.15 51.45 Q331.4 48.7 311.5 53.3 310.4 29.5 317.35 5.7 325.25 3.5 333.8 3.55 L337.95 9.05" fill="#f0c599" fill-rule="evenodd" stroke="none"/>
    <path d="M311.5 53.3 Q331.4 48.7 346.15 51.45 351.45 52.4 356.05 54.4 360.8 63.9 352.45 68.05 L342.4 71.6 Q334.1 80.85 325.2 94.0 L325.2 86.5 325.2 86.45 Q331.6 76.75 338.9 66.65 349.65 66.1 349.6 60.15 351.0 56.05 341.75 56.0 L332.4 56.55 Q321.9 56.85 311.8 59.2 299.95 61.95 288.7 67.55 L287.9 67.95 287.8 67.55 Q287.3 65.0 285.65 64.6 284.0 64.15 282.25 66.05 280.55 68.0 279.7 71.15 278.85 74.25 279.4 76.8 279.95 79.3 281.6 79.75 L282.8 79.75 282.4 82.7 Q278.95 85.05 275.05 90.25 277.3 76.2 277.95 68.05 282.55 62.55 288.5 60.35 300.75 55.75 311.5 53.3 M297.7 144.25 Q294.0 156.0 289.4 172.9 L309.5 244.25 Q310.8 273.6 285.1 290.1 240.05 298.6 209.15 282.95 180.55 264.3 174.05 233.5 172.15 210.25 192.7 186.95 L250.0 156.15 Q258.15 143.1 262.5 132.45 L271.0 125.9 Q266.7 136.9 261.05 147.9 L260.15 147.45 Q258.5 147.0 256.75 148.9 255.05 150.85 254.2 154.0 253.35 157.1 253.9 159.6 L225.65 174.4 222.65 176.0 196.3 189.8 Q186.85 197.45 183.8 208.4 183.05 208.75 182.25 209.6 180.55 211.55 179.7 214.7 178.85 217.8 179.4 220.3 L179.4 220.35 Q179.95 222.85 181.6 223.3 L182.75 223.3 Q184.9 250.4 202.7 268.6 214.85 279.95 234.95 280.8 252.5 286.25 270.05 284.4 L286.55 277.2 Q288.95 270.15 289.05 261.5 289.1 254.15 287.45 245.65 293.7 257.4 293.7 268.6 301.85 261.0 302.3 245.7 L290.1 197.15 283.7 171.9 Q288.45 154.2 297.7 134.6 L297.7 144.25 M288.7 64.45 L288.7 67.55 288.7 64.45 M188.05 212.8 Q194.55 211.15 201.3 210.25 192.8 212.2 187.65 216.35 188.1 214.45 188.05 212.8" fill="#b7ffff" fill-rule="evenodd" stroke="none"/>
    <path d="M341.75 56.0 L329.55 70.9 Q330.3 63.45 314.75 64.65 311.75 62.4 311.8 59.2 321.9 56.85 332.4 56.55 L341.75 56.0" fill="#c4dcad" fill-rule="evenodd" stroke="none"/>
    <path d="M329.55 70.9 L341.75 56.0 Q351.0 56.05 349.6 60.15 349.65 66.1 338.9 66.65 331.6 76.75 325.2 86.45 323.05 84.65 320.55 83.35 L310.9 93.8 316.55 81.6 Q305.45 77.65 288.8 81.15 L282.4 82.7 282.8 79.75 Q283.85 79.5 284.95 78.25 286.7 76.35 287.55 73.2 288.3 70.3 287.9 67.95 L288.7 67.55 288.7 74.5 Q313.1 76.65 329.55 70.9 M290.1 197.15 Q260.65 188.6 274.35 181.95 282.1 167.8 273.15 167.55 264.15 167.25 253.6 179.8 247.85 183.1 242.1 174.4 239.95 168.4 225.65 174.4 L253.9 159.6 253.9 159.65 Q254.45 162.15 256.1 162.6 257.7 163.05 259.45 161.1 261.2 159.2 262.05 156.05 262.85 152.9 262.3 150.4 261.95 148.65 261.05 147.9 266.7 136.9 271.0 125.9 278.45 124.9 284.2 126.05 292.95 127.8 297.7 134.6 288.45 154.2 283.7 171.9 L290.1 197.15" fill="#d7ffff" fill-rule="evenodd" stroke="none"/>
    <path d="M325.2 94.0 Q311.1 113.5 297.7 144.25 L297.7 134.6 Q306.95 107.9 325.2 86.5 L325.2 94.0" fill="#d6af96" fill-rule="evenodd" stroke="none"/>
    <path d="M288.8 81.15 Q305.45 77.65 316.55 81.6 L310.9 93.8 320.55 83.35 Q323.05 84.65 325.2 86.45 L325.2 86.5 Q306.95 107.9 297.7 134.6 292.95 127.8 284.2 126.05 279.7 107.0 288.8 81.15" fill="#bd8057" fill-rule="evenodd" stroke="none"/>
    <path d="M317.35 5.7 Q310.4 29.5 311.5 53.3 300.75 55.75 288.5 60.35 290.7 41.6 289.8 22.15 302.35 9.85 317.35 5.7" fill="#d7aa95" fill-rule="evenodd" stroke="none"/>
    <path d="M262.5 132.45 Q271.95 109.25 275.05 90.25 278.95 85.05 282.4 82.7 L288.8 81.15 Q279.7 107.0 284.2 126.05 278.45 124.9 271.0 125.9 L262.5 132.45" fill="#7e5132" fill-rule="evenodd" stroke="none"/>
    <path d="M287.9 67.95 Q288.3 70.3 287.55 73.2 286.7 76.35 284.95 78.25 283.85 79.5 282.8 79.75 L281.6 79.75 Q279.95 79.3 279.4 76.8 278.85 74.25 279.7 71.15 280.55 68.0 282.25 66.05 284.0 64.15 285.65 64.6 287.3 65.0 287.8 67.55 L287.9 67.95 M183.8 208.4 Q184.75 207.9 185.65 208.15 L186.55 208.6 Q187.45 209.35 187.8 211.1 L188.05 212.8 Q188.1 214.45 187.65 216.35 L187.55 216.75 Q186.75 219.7 185.15 221.55 L184.95 221.8 Q183.8 223.05 182.75 223.3 L181.6 223.3 Q179.95 222.85 179.4 220.35 L179.4 220.3 Q178.85 217.8 179.7 214.7 180.55 211.55 182.25 209.6 183.05 208.75 183.8 208.4 M253.9 159.6 Q253.35 157.1 254.2 154.0 255.05 150.85 256.75 148.9 258.5 147.0 260.15 147.45 L261.05 147.9 Q261.95 148.65 262.3 150.4 262.85 152.9 262.05 156.05 261.2 159.2 259.45 161.1 257.7 163.05 256.1 162.6 254.45 162.15 253.9 159.65 L253.9 159.6" fill="#ffffff" fill-rule="evenodd" stroke="none"/>
    <path d="M311.8 59.2 Q311.75 62.4 314.75 64.65 330.3 63.45 329.55 70.9 313.1 76.65 288.7 74.5 L288.7 67.55 Q299.95 61.95 311.8 59.2 M314.75 64.65 Q307.0 65.25 295.15 68.05 L288.7 74.5 295.15 68.05 Q307.0 65.25 314.75 64.65" fill="#b6d398" fill-rule="evenodd" stroke="none"/>
    <path d="M220.0 208.95 Q204.75 203.6 214.9 189.8 L222.65 176.0 225.65 174.4 Q239.95 168.4 242.1 174.4 247.85 183.1 253.6 179.8 264.15 167.25 273.15 167.55 282.1 167.8 274.35 181.95 260.65 188.6 290.1 197.15 L302.3 245.7 Q301.85 261.0 293.7 268.6 293.7 257.4 287.45 245.65 279.35 230.4 260.75 214.2 239.7 208.9 220.0 208.95 239.7 208.9 260.75 214.2 279.35 230.4 287.45 245.65 289.1 254.15 289.05 261.5 L279.4 239.25 Q262.2 220.15 241.45 216.35 L210.6 216.35 185.15 221.55 Q186.75 219.7 187.55 216.75 L187.65 216.35 Q192.8 212.2 201.3 210.25 L220.0 208.95 M238.1 175.4 L237.2 174.75 Q235.25 173.65 231.65 174.8 230.5 175.1 229.25 175.65 L228.65 176.35 Q227.0 178.6 228.8 179.6 229.85 180.15 232.0 180.3 L236.15 178.8 Q238.0 178.25 238.1 175.4 M273.5 172.5 Q274.85 171.1 273.5 168.6 270.2 167.6 265.95 173.25 L265.8 174.15 Q265.25 178.45 270.65 175.9 L273.5 172.5" fill="#ff6699" fill-rule="evenodd" stroke="none"/>
    <path d="M222.65 176.0 L214.9 189.8 Q204.75 203.6 220.0 208.95 L201.3 210.25 Q194.55 211.15 188.05 212.8 L187.8 211.1 Q187.45 209.35 186.55 208.6 L185.65 208.15 Q184.75 207.9 183.8 208.4 186.85 197.45 196.3 189.8 L222.65 176.0 M289.05 261.5 Q288.95 270.15 286.55 277.2 L270.05 284.4 Q252.5 286.25 234.95 280.8 214.85 279.95 202.7 268.6 184.9 250.4 182.75 223.3 183.8 223.05 184.95 221.8 L185.15 221.55 210.6 216.35 241.45 216.35 Q262.2 220.15 279.4 239.25 L289.05 261.5" fill="#ff407e" fill-rule="evenodd" stroke="none"/>
    <path d="M238.1 175.4 Q238.0 178.25 236.15 178.8 L232.0 180.3 Q229.85 180.15 228.8 179.6 227.0 178.6 228.65 176.35 L229.25 175.65 Q230.5 175.1 231.65 174.8 235.25 173.65 237.2 174.75 L238.1 175.4 M273.5 172.5 L270.65 175.9 Q265.25 178.45 265.8 174.15 L265.95 173.25 Q270.2 167.6 273.5 168.6 274.85 171.1 273.5 172.5" fill="#ffc1d6" fill-rule="evenodd" stroke="none"/>
    <path d="M333.8 3.55 L330.95 20.75 337.95 9.05 333.8 3.55 Q325.25 3.5 317.35 5.7 302.35 9.85 289.8 22.15 290.7 41.6 288.5 60.35 300.75 55.75 311.5 53.3 331.4 48.7 346.15 51.45 L369.65 20.75 Q366.9 4.3 341.7 2.85 L337.95 9.05 M346.15 51.45 Q351.45 52.4 356.05 54.4 360.8 63.9 352.45 68.05 L342.4 71.6 Q334.1 80.85 325.2 94.0 311.1 113.5 297.7 144.25 294.0 156.0 289.4 172.9 L309.5 244.25 Q310.8 273.6 285.1 290.1 240.05 298.6 209.15 282.95 180.55 264.3 174.05 233.5 172.15 210.25 192.7 186.95 L250.0 156.15 Q258.15 143.1 262.5 132.45 271.95 109.25 275.05 90.25 277.3 76.2 277.95 68.05 282.55 62.55 288.5 60.35 M329.55 70.9 L341.75 56.0 M314.75 64.65 Q330.3 63.45 329.55 70.9 313.1 76.65 288.7 74.5 L288.7 67.55 288.7 64.45 M282.4 82.7 L288.8 81.15 Q305.45 77.65 316.55 81.6 L310.9 93.8 320.55 83.35 Q323.05 84.65 325.2 86.45 L325.2 86.5 325.2 94.0 M297.7 134.6 L297.7 144.25 M275.05 90.25 Q278.95 85.05 282.4 82.7 M288.7 74.5 L295.15 68.05 Q307.0 65.25 314.75 64.65 M220.0 208.95 Q239.7 208.9 260.75 214.2 279.35 230.4 287.45 245.65 293.7 257.4 293.7 268.6 M188.05 212.8 Q194.55 211.15 201.3 210.25 L220.0 208.95 M284.2 126.05 Q292.95 127.8 297.7 134.6 M271.0 125.9 L262.5 132.45 M271.0 125.9 Q278.45 124.9 284.2 126.05" ffdec:has-small-stroke="true" ffdec:original-stroke-width="0.05" fill="none" stroke="#000000" stroke-linecap="round" stroke-linejoin="round" stroke-opacity="0.4" stroke-width="1.0"/>
    <path d="M363.2 21.9 Q362.7 22.7 362.0 22.7 361.3 22.7 360.8 21.9 360.3 21.15 360.3 20.05 360.3 18.95 360.8 18.15 361.3 17.4 362.0 17.4 362.7 17.4 363.2 18.15 363.7 18.95 363.7 20.05 363.7 21.15 363.2 21.9" fill="#d7aa95" fill-rule="evenodd" stroke="none"/>
    <path d="M341.15 36.25 Q340.1 37.2 339.1 36.95 338.1 36.7 337.7 35.35 337.25 34.05 337.65 32.45 338.1 30.9 339.15 29.95 340.15 29.05 341.15 29.3 342.15 29.55 342.6 30.85 343.0 32.2 342.55 33.75 342.15 35.35 341.15 36.25" fill="#d7aa95" fill-rule="evenodd" stroke="none"/>
    <path d="M344.55 17.25 Q343.5 18.2 342.5 17.95 341.5 17.7 341.1 16.35 340.65 15.05 341.05 13.45 341.5 11.9 342.55 10.95 343.55 10.05 344.55 10.3 345.55 10.55 346.0 11.85 346.4 13.2 345.95 14.75 345.55 16.35 344.55 17.25" fill="#d7aa95" fill-rule="evenodd" stroke="none"/>
    <path d="M358.25 26.0 Q357.75 26.8 357.05 26.8 356.35 26.8 355.85 26.0 355.35 25.25 355.35 24.15 355.35 23.05 355.85 22.25 356.35 21.5 357.05 21.5 357.75 21.5 358.25 22.25 358.75 23.05 358.75 24.15 358.75 25.25 358.25 26.0" fill="#d7aa95" fill-rule="evenodd" stroke="none"/>
    <path d="M332.45 63.7 Q331.95 64.5 331.25 64.5 330.55 64.5 330.05 63.7 329.55 62.95 329.55 61.85 329.55 60.75 330.05 59.95 330.55 59.2 331.25 59.2 331.95 59.2 332.45 59.95 332.95 60.75 332.95 61.85 332.95 62.95 332.45 63.7" fill="#b6d398" fill-rule="evenodd" stroke="none"/>
    <path d="M312.55 47.15 Q312.05 47.95 311.35 47.95 310.65 47.95 310.15 47.15 309.65 46.4 309.65 45.3 309.65 44.2 310.15 43.4 310.65 42.65 311.35 42.65 312.05 42.65 312.55 43.4 313.05 44.2 313.05 45.3 313.05 46.4 312.55 47.15" fill="#d7aa95" fill-rule="evenodd" stroke="none"/>
    <path d="M323.15 66.55 Q322.65 67.35 321.95 67.35 321.25 67.35 320.75 66.55 320.25 65.8 320.25 64.7 320.25 63.6 320.75 62.8 321.25 62.05 321.95 62.05 322.65 62.05 323.15 62.8 323.65 63.6 323.65 64.7 323.65 65.8 323.15 66.55" fill="#b6d398" fill-rule="evenodd" stroke="none"/>
    <path d="M298.45 34.5 Q297.4 35.45 296.4 35.2 295.4 34.9 295.0 33.6 294.55 32.3 295.0 30.7 295.4 29.15 296.45 28.2 297.45 27.3 298.45 27.55 299.45 27.8 299.9 29.1 300.3 30.45 299.85 32.05 299.45 33.6 298.45 34.5" fill="#f0c599" fill-rule="evenodd" stroke="none"/>
    <path d="M305.8 44.75 Q304.9 45.55 304.1 45.35 303.25 45.1 302.9 44.0 302.55 42.95 302.9 41.6 303.25 40.3 304.1 39.5 304.95 38.75 305.8 39.0 306.6 39.2 307.0 40.25 307.35 41.4 306.95 42.7 306.6 44.0 305.8 44.75" fill="#f0c599" fill-rule="evenodd" stroke="none"/>
    <path d="M296.45 53.45 Q295.6 54.15 294.85 54.0 294.05 53.75 293.75 52.75 293.4 51.7 293.75 50.45 294.05 49.25 294.85 48.5 295.65 47.8 296.45 48.0 297.2 48.2 297.55 49.2 297.9 50.25 297.5 51.5 297.2 52.75 296.45 53.45" fill="#f0c599" fill-rule="evenodd" stroke="none"/>
    <path d="M310.25 19.35 Q309.4 20.05 308.65 19.9 307.85 19.65 307.55 18.65 307.2 17.6 307.55 16.35 307.85 15.15 308.65 14.4 309.45 13.7 310.25 13.9 311.0 14.1 311.35 15.1 311.7 16.15 311.3 17.4 311.0 18.65 310.25 19.35" fill="#f0c599" fill-rule="evenodd" stroke="none"/>
    <path d="M291.95 31.3 Q291.1 32.0 290.35 31.85 289.55 31.6 289.25 30.6 288.9 29.55 289.25 28.3 289.55 27.1 290.35 26.35 291.15 25.65 291.95 25.85 292.7 26.05 293.05 27.05 293.4 28.1 293.0 29.35 292.7 30.6 291.95 31.3" fill="#f0c599" fill-rule="evenodd" stroke="none"/>
    <path d="M263.85 187.3 Q263.45 188.85 262.45 189.75 261.4 190.7 260.4 190.45 259.4 190.15 259.0 188.85 258.55 187.55 259.0 185.95 259.4 184.4 260.45 183.45 261.45 182.55 262.45 182.8 263.45 183.05 263.9 184.35 264.3 185.7 263.85 187.3" fill="#ffc1d6" fill-rule="evenodd" stroke="none"/>
    <path d="M247.3 192.4 Q248.75 192.8 249.4 194.7 250.0 196.65 249.4 199.0 248.75 201.35 247.3 202.7 245.75 204.1 244.3 203.7 242.8 203.3 242.2 201.3 241.55 199.4 242.2 197.05 242.8 194.75 244.35 193.35 245.8 192.0 247.3 192.4" fill="#ffc1d6" fill-rule="evenodd" stroke="none"/>
    <path d="M283.3 204.95 Q284.75 205.35 285.4 207.25 286.0 209.2 285.4 211.55 284.75 213.9 283.3 215.25 281.75 216.65 280.3 216.25 278.8 215.85 278.2 213.85 277.55 211.95 278.2 209.6 278.8 207.3 280.35 205.9 281.8 204.55 283.3 204.95" fill="#ffc1d6" fill-rule="evenodd" stroke="none"/>
    <path d="M293.05 97.75 L299.25 94.5 293.95 92.25 299.5 89.7 306.85 93.45 302.7 101.5 297.65 103.7 300.35 97.7 291.5 102.4 Q293.35 103.1 294.3 104.85 295.9 107.65 294.15 111.65 292.35 115.6 288.3 118.4 284.2 121.15 280.25 121.1 276.25 121.05 274.65 118.2 273.05 115.35 274.85 111.4 276.6 107.4 280.65 104.65 L281.35 104.2 281.7 104.0 282.85 103.35 293.05 97.75 M290.1 107.75 Q289.2 106.2 286.95 106.2 284.7 106.2 282.4 107.7 280.1 109.15 279.1 111.3 278.1 113.4 279.0 114.95 279.9 116.45 282.15 116.5 284.4 116.5 286.7 115.05 289.0 113.55 290.0 111.4 290.95 109.25 290.1 107.75" fill="#000000" fill-rule="evenodd" stroke="none"/>
  </g>
</svg>
