<?xml version="1.0" encoding="UTF-8" standalone="no"?>
<svg xmlns:ffdec="https://www.free-decompiler.com/flash" xmlns:xlink="http://www.w3.org/1999/xlink" ffdec:objectType="shape" height="35.75px" width="118.45px" xmlns="http://www.w3.org/2000/svg">
  <g transform="matrix(1.0, 0.0, 0.0, 1.0, -214.6, -156.35)">
    <path d="M234.8 171.5 L235.25 172.6 235.0 172.75 234.55 171.6 234.8 171.5" fill="#666600" fill-rule="evenodd" stroke="none"/>
    <path d="M235.25 172.6 L236.4 175.25 235.45 174.25 235.0 172.75 235.25 172.6 M243.5 183.1 L244.55 183.45 Q247.55 185.8 250.0 185.6 L246.25 186.1 243.5 183.1" fill="#ffff66" fill-rule="evenodd" stroke="none"/>
    <path d="M214.6 165.15 L214.7 164.15 214.85 165.1 214.6 165.15" fill="#cccc00" fill-rule="evenodd" stroke="none"/>
    <path d="M313.75 175.4 Q317.5 175.7 320.35 174.75 L320.4 174.95 315.2 176.25 314.15 176.35 313.75 175.4 M252.1 187.15 L245.0 187.15 240.45 181.1 239.35 179.9 235.45 175.15 229.25 172.3 228.25 172.15 Q224.5 174.45 218.2 173.15 215.85 170.6 217.9 168.55 215.45 166.8 214.85 165.1 L214.7 164.15 Q215.05 160.45 216.85 158.15 218.85 155.5 221.0 156.7 223.1 157.85 228.0 159.05 232.9 160.25 233.25 163.85 235.55 176.15 244.15 182.1 248.15 184.8 251.8 185.0 L251.85 185.4 252.1 187.15 M235.25 172.6 L234.8 171.5 231.3 163.15 Q227.5 159.6 221.75 158.55 L218.75 158.85 Q214.85 161.45 217.45 166.1 221.2 167.0 220.35 170.85 226.05 171.35 229.3 168.85 232.8 167.95 234.55 171.6 L235.0 172.75 235.45 174.25 236.4 175.25 235.25 172.6 M243.5 183.1 L246.25 186.1 250.0 185.6 Q247.55 185.8 244.55 183.45 L243.5 183.1" fill="#ffff99" fill-rule="evenodd" stroke="none"/>
    <path d="M320.35 174.75 L322.15 174.0 321.95 172.55 Q321.95 169.8 323.3 168.65 324.6 167.45 325.95 169.0 327.35 170.55 330.2 170.2 333.05 169.8 333.05 172.55 L333.05 173.8 Q332.4 176.75 328.9 177.45 326.3 178.1 323.7 174.1 L320.4 174.95 320.35 174.75 M290.3 174.3 Q288.35 172.6 288.0 171.5 265.9 166.65 296.7 171.15 L302.3 172.9 Q289.0 172.75 290.3 174.3 M234.55 171.6 Q232.8 167.95 229.3 168.85 226.05 171.35 220.35 170.85 221.2 167.0 217.45 166.1 214.85 161.45 218.75 158.85 L221.75 158.55 Q227.5 159.6 231.3 163.15 L234.8 171.5 234.55 171.6" fill="#ffffcc" fill-rule="evenodd" stroke="none"/>
    <path d="M264.15 163.55 Q272.15 157.4 280.1 158.35 L283.25 158.95 Q293.35 161.9 301.1 165.55 309.15 171.05 310.6 175.45 303.85 182.3 293.95 185.2 L292.6 185.55 292.1 185.65 281.7 188.15 261.95 192.1 257.65 192.1 Q253.6 183.0 266.25 181.0 260.4 178.55 261.6 174.95 265.15 170.15 270.15 167.9 282.75 162.15 304.4 172.7 290.8 159.45 271.15 165.0 266.3 166.95 263.15 170.25 260.85 168.0 264.15 163.55 M290.3 174.3 Q289.0 172.75 302.3 172.9 L296.7 171.15 Q265.9 166.65 288.0 171.5 288.35 172.6 290.3 174.3 M288.7 180.4 L285.0 184.1 306.9 175.8 288.7 180.4" fill="#660000" fill-rule="evenodd" stroke="none"/>
    <path d="M301.1 165.55 Q309.2 169.4 314.65 174.1 L313.75 175.4 314.15 176.35 315.2 176.25 320.4 174.95 323.7 174.1 Q326.3 178.1 328.9 177.45 332.4 176.75 333.05 173.8 L332.55 177.25 Q332.0 179.15 329.05 179.15 326.1 179.15 324.05 177.25 323.1 176.35 322.55 175.25 318.05 175.4 314.75 177.75 L313.35 179.8 Q303.8 182.7 293.95 185.2 303.85 182.3 310.6 175.45 309.15 171.05 301.1 165.55 M257.65 192.1 Q253.0 191.8 252.1 187.15 L251.85 185.4 251.8 185.0 Q256.65 169.9 262.3 165.05 L264.15 163.55 Q260.85 168.0 263.15 170.25 266.3 166.95 271.15 165.0 290.8 159.45 304.4 172.7 282.75 162.15 270.15 167.9 265.15 170.15 261.6 174.95 260.4 178.55 266.25 181.0 253.6 183.0 257.65 192.1 M239.35 179.9 Q234.1 174.2 229.65 173.65 227.25 175.8 223.65 175.8 221.8 175.8 220.2 175.0 L218.4 175.45 Q216.95 175.45 215.95 174.4 214.9 173.4 214.9 171.95 214.9 170.9 215.5 170.05 214.5 167.85 214.6 165.15 L214.85 165.1 Q215.45 166.8 217.9 168.55 215.85 170.6 218.2 173.15 224.5 174.45 228.25 172.15 L229.25 172.3 235.45 175.15 239.35 179.9 M288.7 180.4 L306.9 175.8 285.0 184.1 288.7 180.4 M252.25 185.35 L251.85 185.4 252.25 185.35 M313.85 176.4 L314.15 176.35 314.75 177.75 314.15 176.35 313.85 176.4" fill="#000000" fill-rule="evenodd" stroke="none"/>
    <path d="M264.15 163.55 Q272.15 157.4 280.1 158.35 L283.25 158.95 Q293.35 161.9 301.1 165.55 309.2 169.4 314.65 174.1 L313.75 175.4 Q317.5 175.7 320.35 174.75 L322.15 174.0 321.95 172.55 Q321.95 169.8 323.3 168.65 324.6 167.45 325.95 169.0 327.35 170.55 330.2 170.2 333.05 169.8 333.05 172.55 L333.05 173.8 332.55 177.25 Q332.0 179.15 329.05 179.15 326.1 179.15 324.05 177.25 323.1 176.35 322.55 175.25 318.05 175.4 314.75 177.75 L313.35 179.8 Q303.8 182.7 293.95 185.2 L292.6 185.55 292.1 185.65 281.7 188.15 261.95 192.1 257.65 192.1 Q253.0 191.8 252.1 187.15 L245.0 187.15 240.45 181.1 239.35 179.9 Q234.1 174.2 229.65 173.65 227.25 175.8 223.65 175.8 221.8 175.8 220.2 175.0 L218.4 175.45 Q216.95 175.45 215.95 174.4 214.9 173.4 214.9 171.95 214.9 170.9 215.5 170.05 214.5 167.85 214.6 165.15 L214.7 164.15 Q215.05 160.45 216.85 158.15 218.85 155.5 221.0 156.7 223.1 157.85 228.0 159.05 232.9 160.25 233.25 163.85 235.55 176.15 244.15 182.1 248.15 184.8 251.8 185.0 256.65 169.9 262.3 165.05 L264.15 163.55 M252.1 187.15 L251.85 185.4 251.8 185.0 M251.85 185.4 L252.25 185.35 M314.75 177.75 L314.15 176.35 313.85 176.4 M313.75 175.4 L314.15 176.35" ffdec:has-small-stroke="true" ffdec:original-stroke-width="0.05" fill="none" stroke="#000000" stroke-linecap="round" stroke-linejoin="round" stroke-opacity="0.4" stroke-width="1.0"/>
  </g>
</svg>
