<?xml version="1.0" encoding="UTF-8" standalone="no"?>
<svg xmlns:ffdec="https://www.free-decompiler.com/flash" xmlns:xlink="http://www.w3.org/1999/xlink" ffdec:objectType="shape" height="41.3px" width="136.7px" xmlns="http://www.w3.org/2000/svg">
  <g transform="matrix(1.0, 0.0, 0.0, 1.0, -241.65, -151.3)">
    <path d="M363.7 172.6 L365.75 171.75 365.6 170.05 Q365.6 166.9 367.1 165.55 368.6 164.15 370.2 165.95 371.8 167.75 375.1 167.35 378.35 166.9 378.35 170.05 L378.35 171.55 Q377.6 174.9 373.6 175.75 370.55 176.45 367.55 171.85 L363.75 172.8 363.7 172.6 M368.6 167.9 L367.8 167.8 Q372.45 172.0 370.4 171.45 L373.4 172.9 Q372.9 171.3 375.35 171.1 375.15 168.45 368.6 167.9 M265.2 170.25 Q263.2 164.65 258.6 165.8 254.85 168.65 248.3 168.1 249.25 163.65 244.9 162.6 241.95 157.25 246.45 154.2 L249.9 153.9 Q256.55 155.1 260.9 159.2 L265.5 170.15 265.2 170.25 M297.7 167.4 Q301.3 163.6 306.9 161.35 329.6 154.9 345.3 170.25 320.3 158.05 305.75 164.65 300.0 167.3 295.9 172.8 293.5 176.0 291.65 180.2 292.9 172.45 297.7 167.4 M327.2 179.1 L348.15 173.8 322.9 183.4 327.2 179.1" fill="#666600" fill-rule="evenodd" stroke="none"/>
    <path d="M368.6 167.9 Q375.15 168.45 375.35 171.1 372.9 171.3 373.4 172.9 L370.4 171.45 Q372.45 172.0 367.8 167.8 L368.6 167.9 M265.5 170.15 L266.75 173.2 265.7 172.0 265.2 170.25 265.5 170.15 M275.0 182.2 L276.25 182.6 Q279.65 185.35 282.45 185.15 L278.15 185.7 275.0 182.2" fill="#ffff66" fill-rule="evenodd" stroke="none"/>
    <path d="M378.35 171.55 Q378.25 173.75 377.75 175.45 377.15 177.7 373.75 177.7 370.35 177.7 367.95 175.45 366.85 174.4 366.25 173.2 361.05 173.35 357.25 176.05 L356.55 174.45 357.75 174.3 363.75 172.8 367.55 171.85 Q370.55 176.45 373.6 175.75 377.6 174.9 378.35 171.55 M270.2 178.55 Q264.15 172.0 259.0 171.35 256.2 173.8 252.05 173.8 249.95 173.8 248.05 172.85 247.15 173.4 246.05 173.4 244.35 173.4 243.15 172.2 242.0 171.05 242.0 169.35 242.0 168.15 242.65 167.15 241.5 164.6 241.65 161.5 L241.75 160.35 Q241.8 162.9 245.45 165.45 243.1 167.8 245.8 170.75 253.1 172.25 257.35 169.55 L258.55 169.75 265.7 173.05 270.2 178.55" fill="#cccc00" fill-rule="evenodd" stroke="none"/>
    <path d="M284.9 186.95 L276.75 186.95 Q274.0 182.95 271.45 179.95 L270.2 178.55 265.7 173.05 258.55 169.75 257.35 169.55 Q253.1 172.25 245.8 170.75 243.1 167.8 245.45 165.45 241.8 162.9 241.75 160.35 242.15 156.1 244.2 153.4 246.55 150.35 249.0 151.75 251.45 153.1 257.1 154.5 262.75 155.9 263.15 160.0 265.8 174.25 275.75 181.05 280.35 184.2 284.55 184.45 L284.6 184.85 284.9 186.95 M356.05 173.35 Q360.4 173.7 363.7 172.6 L363.75 172.8 357.75 174.3 356.55 174.45 356.05 173.35 M265.5 170.15 L260.9 159.2 Q256.55 155.1 249.9 153.9 L246.45 154.2 Q241.95 157.25 244.9 162.6 249.25 163.65 248.3 168.1 254.85 168.65 258.6 165.8 263.2 164.65 265.2 170.25 L265.7 172.0 266.75 173.2 265.5 170.15 M275.0 182.2 L278.15 185.7 282.45 185.15 Q279.65 185.35 276.25 182.6 L275.0 182.2" fill="#ffff99" fill-rule="evenodd" stroke="none"/>
    <path d="M357.25 176.05 L355.6 178.4 333.25 184.65 Q344.65 181.3 352.4 173.45 350.75 168.35 341.45 162.0 350.8 166.4 357.1 171.85 L356.05 173.35 356.55 174.45 357.25 176.05 M319.1 188.05 L296.3 192.6 291.3 192.6 Q286.65 182.1 301.25 179.85 294.5 177.0 295.9 172.8 300.0 167.3 305.75 164.65 298.7 176.45 305.75 176.65 308.25 189.1 319.1 188.05 M298.8 159.65 Q308.05 152.6 317.25 153.65 304.8 155.65 306.9 161.35 301.3 163.6 297.7 167.4 295.0 164.8 298.8 159.65 M356.15 174.5 L356.55 174.45 356.15 174.5" fill="#cc9966" fill-rule="evenodd" stroke="none"/>
    <path d="M333.25 184.65 L331.7 185.05 331.1 185.2 319.1 188.05 Q308.25 189.1 305.75 176.65 298.7 176.45 305.75 164.65 320.3 158.05 345.3 170.25 329.6 154.9 306.9 161.35 304.8 155.65 317.25 153.65 L320.85 154.35 Q332.55 157.75 341.45 162.0 350.75 168.35 352.4 173.45 344.65 181.3 333.25 184.65 M291.3 192.6 Q286.0 192.25 284.9 186.95 L284.6 184.85 284.55 184.45 Q290.15 167.0 296.65 161.4 L298.8 159.65 Q295.0 164.8 297.7 167.4 292.9 172.45 291.65 180.2 293.5 176.0 295.9 172.8 294.5 177.0 301.25 179.85 286.65 182.1 291.3 192.6 M326.35 168.8 Q326.75 170.1 329.0 172.1 327.55 170.3 342.85 170.45 L336.45 168.45 Q300.85 163.2 326.35 168.8 M285.1 184.8 L284.6 184.85 285.1 184.8 M327.2 179.1 L322.9 183.4 348.15 173.8 327.2 179.1" fill="#999933" fill-rule="evenodd" stroke="none"/>
    <path d="M326.35 168.8 Q300.85 163.2 336.45 168.45 L342.85 170.45 Q327.55 170.3 329.0 172.1 326.75 170.1 326.35 168.8" fill="#ffffcc" fill-rule="evenodd" stroke="none"/>
    <path d="M363.7 172.6 L365.75 171.75 365.6 170.05 Q365.6 166.9 367.1 165.55 368.6 164.15 370.2 165.95 371.8 167.75 375.1 167.35 378.35 166.9 378.35 170.05 L378.35 171.55 Q378.25 173.75 377.75 175.45 377.15 177.7 373.75 177.7 370.35 177.7 367.95 175.45 366.85 174.4 366.25 173.2 361.05 173.35 357.25 176.05 L355.6 178.4 333.25 184.65 331.7 185.05 331.1 185.2 319.1 188.05 296.3 192.6 291.3 192.6 Q286.0 192.25 284.9 186.95 L276.75 186.95 Q274.0 182.95 271.45 179.95 L270.2 178.55 Q264.15 172.0 259.0 171.35 256.2 173.8 252.05 173.8 249.95 173.8 248.05 172.85 247.15 173.4 246.05 173.4 244.35 173.4 243.15 172.2 242.0 171.05 242.0 169.35 242.0 168.15 242.65 167.15 241.5 164.6 241.65 161.5 L241.75 160.35 Q242.15 156.1 244.2 153.4 246.55 150.35 249.0 151.75 251.45 153.1 257.1 154.5 262.75 155.9 263.15 160.0 265.8 174.25 275.75 181.05 280.35 184.2 284.55 184.45 290.15 167.0 296.65 161.4 L298.8 159.65 Q308.05 152.6 317.25 153.65 L320.85 154.35 Q332.55 157.75 341.45 162.0 350.8 166.4 357.1 171.85 L356.05 173.35 Q360.4 173.7 363.7 172.6 M356.55 174.45 L357.25 176.05 M356.05 173.35 L356.55 174.45 356.15 174.5 M284.6 184.85 L285.1 184.8 M284.9 186.95 L284.6 184.85 284.55 184.45" ffdec:has-small-stroke="true" ffdec:original-stroke-width="0.05" fill="none" stroke="#000000" stroke-linecap="round" stroke-linejoin="round" stroke-opacity="0.4" stroke-width="1.0"/>
  </g>
</svg>
