<?xml version="1.0" encoding="UTF-8" standalone="no"?>
<svg xmlns:ffdec="https://www.free-decompiler.com/flash" xmlns:xlink="http://www.w3.org/1999/xlink" ffdec:objectType="shape" height="45.1px" width="78.45px" xmlns="http://www.w3.org/2000/svg">
  <g transform="matrix(1.0, 0.0, 0.0, 1.0, 7.6, 0.0)">
    <path d="M70.85 41.3 Q54.5 44.55 33.2 44.6 9.9 44.55 -7.6 40.65 L-7.6 11.75 Q9.9 7.85 33.2 7.85 54.5 7.85 70.85 11.1 L70.85 41.3" fill="url(#gradient0)" fill-rule="evenodd" stroke="none"/>
    <path d="M32.1 2.65 L32.15 2.65 Q39.45 1.5 44.25 4.35 L44.55 4.5 Q46.85 6.75 48.2 9.45 46.15 6.75 42.35 4.85 39.65 3.45 36.25 3.6 L35.35 3.7 32.15 2.8 32.1 2.65 M20.65 8.55 L20.6 8.55 19.35 8.6 Q17.95 9.95 16.9 11.45 14.6 14.65 13.7 18.55 L13.3 20.5 12.5 22.2 12.2 22.55 Q11.45 23.5 9.4 24.1 L9.7 18.0 9.8 17.75 13.3 9.95 13.45 9.75 13.3 9.95 13.4 9.8 13.45 9.75 14.95 9.15 16.15 8.95 16.1 8.2 18.3 6.4 21.8 4.65 20.65 8.55 M19.35 8.6 L17.7 8.75 16.9 8.85 16.15 8.95 16.9 8.85 17.7 8.75 19.35 8.6 M12.0 21.45 L12.5 22.2 12.0 21.45 M12.05 27.6 L11.6 27.0 12.05 27.6 12.2 27.9 Q11.55 28.85 10.3 29.0 9.85 28.4 9.5 27.4 L9.35 27.05 9.3 26.75 9.35 26.7 9.5 25.6 11.6 27.0 9.5 25.6 9.5 25.55 9.65 24.85 11.6 27.0 11.95 27.35 12.05 27.6" fill="#ffe493" fill-rule="evenodd" stroke="none"/>
    <path d="M32.25 33.05 Q31.8 34.75 30.55 35.1 30.65 34.45 29.3 33.5 L29.1 30.2 29.05 29.55 29.7 30.45 31.75 28.05 33.3 30.2 32.25 33.05 M24.5 32.2 L22.7 31.9 13.95 31.55 24.3 29.65 24.4 30.55 24.5 32.2 M43.85 8.6 L43.8 10.2 44.95 11.2 Q45.75 11.65 45.25 13.15 L45.05 14.75 46.1 16.1 45.7 18.2 44.65 19.2 45.05 20.4 Q44.1 22.65 42.35 24.25 L43.0 21.3 44.1 20.75 43.35 19.95 43.6 18.8 43.7 18.4 44.65 17.75 43.9 17.1 Q44.5 14.8 43.95 13.65 43.4 12.5 43.5 11.55 43.6 10.6 42.45 10.1 L40.6 9.0 40.5 7.55 38.7 7.85 Q37.1 7.15 35.15 7.2 34.35 6.0 38.1 6.05 L38.2 6.8 40.65 6.55 Q42.4 7.2 43.85 8.6 M42.15 16.25 L40.6 18.2 41.45 18.6 41.35 18.8 Q40.0 21.15 39.05 20.85 L39.0 20.8 38.7 20.55 39.15 19.6 Q39.65 18.45 39.65 17.35 L40.85 15.9 38.85 15.85 Q38.85 14.4 37.5 13.65 37.05 12.1 36.5 11.65 L34.8 10.55 Q33.6 9.8 31.25 9.1 L30.9 8.15 29.65 8.7 29.4 7.5 30.85 7.1 33.5 7.65 34.6 9.1 37.4 9.15 Q38.6 9.85 39.6 10.65 L38.8 13.35 40.95 13.8 Q42.2 14.55 42.15 16.25 M27.9 6.75 L27.95 6.75 27.5 8.25 27.05 7.4 25.85 8.05 22.05 7.35 Q24.8 6.6 27.9 6.75 M17.5 27.05 Q15.45 28.6 15.05 30.05 L13.25 28.25 Q13.3 27.75 13.5 27.4 14.1 25.85 15.9 26.1 L17.3 26.5 17.9 26.75 17.5 27.05" fill="#663300" fill-rule="evenodd" stroke="none"/>
    <path d="M35.35 3.7 L36.25 3.6 Q39.65 3.45 42.35 4.85 46.15 6.75 48.2 9.45 L48.85 10.9 Q49.9 13.65 49.95 16.8 L49.95 17.0 59.1 6.0 58.5 14.8 48.55 22.2 Q47.65 23.6 46.15 25.0 L46.05 25.1 45.2 26.2 43.25 25.45 40.45 28.45 39.6 27.55 38.65 29.0 36.75 29.0 36.95 26.65 37.7 25.6 37.1 20.4 Q35.55 11.8 30.55 10.15 L29.95 10.0 29.65 8.7 29.95 10.0 30.55 10.15 Q35.55 11.8 37.1 20.4 L37.7 25.6 36.95 26.65 35.25 28.95 32.25 33.05 33.3 30.2 31.75 28.05 29.7 30.45 29.05 29.55 28.6 28.85 26.1 29.35 24.3 29.65 13.95 31.55 13.7 31.5 13.85 31.6 13.2 31.7 13.0 31.6 12.25 31.1 11.9 30.6 11.35 30.25 10.65 29.5 10.3 29.0 Q11.55 28.85 12.2 27.9 L12.05 27.6 11.95 27.35 11.6 27.0 9.65 24.85 9.5 25.55 9.35 25.5 9.5 25.6 9.35 26.7 9.3 26.75 9.3 26.8 9.35 25.5 9.4 24.1 Q11.45 23.5 12.2 22.55 L12.5 22.2 13.3 20.5 13.7 18.55 Q14.6 14.65 16.9 11.45 17.95 9.95 19.35 8.6 L20.6 8.55 20.65 8.55 27.2 9.25 27.5 8.25 27.2 9.25 20.65 8.55 21.8 4.65 31.3 0.0 31.3 2.8 31.35 2.95 24.65 5.3 28.55 4.75 28.65 4.35 28.75 4.7 35.65 3.75 35.35 3.7 M50.0 25.05 L51.85 25.85 50.05 27.45 50.0 25.05 M44.95 11.2 L43.8 10.2 43.85 8.6 Q42.4 7.2 40.65 6.55 L38.2 6.8 38.1 6.05 Q34.35 6.0 35.15 7.2 37.1 7.15 38.7 7.85 L40.5 7.55 40.6 9.0 42.45 10.1 Q43.6 10.6 43.5 11.55 43.4 12.5 43.95 13.65 44.5 14.8 43.9 17.1 L44.65 17.75 43.7 18.4 43.6 18.8 43.35 19.95 44.1 20.75 43.0 21.3 42.35 24.25 Q44.1 22.65 45.05 20.4 L44.65 19.2 45.7 18.2 46.1 16.1 45.05 14.75 45.25 13.15 Q45.75 11.65 44.95 11.2 M41.45 18.6 L40.6 18.2 42.15 16.25 Q42.2 14.55 40.95 13.8 L38.8 13.35 39.6 10.65 Q38.6 9.85 37.4 9.15 L34.6 9.1 33.5 7.65 30.85 7.1 29.4 7.5 29.65 8.7 30.9 8.15 31.25 9.1 Q33.6 9.8 34.8 10.55 L36.5 11.65 Q37.05 12.1 37.5 13.65 38.85 14.4 38.85 15.85 L40.85 15.9 39.65 17.35 Q39.65 18.45 39.15 19.6 L38.7 20.55 39.0 20.8 39.05 20.85 Q40.0 21.15 41.35 18.8 L41.45 18.6 M49.85 18.6 Q49.7 20.4 48.55 22.2 49.7 20.4 49.85 18.6 M14.35 20.75 L13.4 23.5 12.5 22.2 13.4 23.5 14.35 20.75 M27.95 6.75 L27.9 6.75 Q24.8 6.6 22.05 7.35 L25.85 8.05 27.05 7.4 27.5 8.25 27.95 6.75 28.55 4.75 27.95 6.75 M28.75 4.7 L29.4 7.5 28.75 4.7 M16.1 8.2 L16.15 8.95 14.95 9.15 13.45 9.75 Q13.7 6.9 11.45 4.75 14.95 5.6 16.1 8.2 M29.35 9.95 L28.6 6.6 27.9 9.7 29.35 9.95 M22.3 13.75 L22.35 13.75 22.3 13.75 M16.8 21.45 L18.0 22.6 17.2 24.35 18.0 22.6 16.8 21.45 M19.6 24.05 L18.0 22.6 19.8 18.55 18.0 22.6 19.6 24.05 M12.8 25.25 L13.4 23.5 14.1 24.55 13.4 23.5 12.8 25.25 M17.5 27.05 L17.9 26.75 17.3 26.5 15.9 26.1 Q14.1 25.85 13.5 27.4 13.3 27.75 13.25 28.25 L15.05 30.05 Q15.45 28.6 17.5 27.05 M12.2 29.15 L10.65 29.5 12.2 29.15 M28.95 26.0 L21.15 27.4 28.95 26.0 M33.3 19.95 L20.5 25.35 33.3 19.95" fill="#ffcc33" fill-rule="evenodd" stroke="none"/>
    <path d="M49.95 16.8 L49.95 17.0 49.95 16.8" fill="#ce9b00" fill-rule="evenodd" stroke="none"/>
    <path d="M32.1 2.65 L32.15 2.8 35.35 3.7 35.65 3.75 28.75 4.7 28.65 4.35 28.55 4.75 24.65 5.3 31.35 2.95 32.1 2.65 M58.5 14.8 L58.3 17.8 49.95 24.95 49.9 25.0 50.0 25.05 50.05 27.45 46.55 30.55 45.3 26.25 45.05 26.45 45.2 26.3 45.2 26.25 45.2 26.2 46.05 25.1 46.15 25.0 Q47.65 23.6 48.55 22.2 L58.5 14.8 M36.75 29.0 L35.25 28.95 36.95 26.65 36.75 29.0 M29.35 9.95 L27.9 9.7 28.6 6.6 29.35 9.95" fill="#8c6900" fill-rule="evenodd" stroke="none"/>
    <path d="M22.3 13.75 L22.35 13.75 22.3 13.75" fill="#ffffcc" fill-rule="evenodd" stroke="none"/>
    <path d="M29.4 34.55 L29.5 35.55 24.9 38.0 20.75 37.75 19.9 37.3 23.55 37.4 26.35 36.6 29.4 34.55 M29.1 30.2 L26.05 30.4 26.1 29.35 26.05 30.4 Q25.3 29.85 24.4 30.55 L24.3 29.65 26.1 29.35 28.6 28.85 29.05 29.55 29.1 30.2" fill="#861e1e" fill-rule="evenodd" stroke="none"/>
    <path d="M29.3 33.5 L29.4 34.4 29.4 34.55 26.35 36.6 23.55 37.4 19.9 37.3 19.55 37.15 19.8 36.2 Q21.8 34.55 24.15 34.75 L24.2 34.75 24.5 32.2 24.4 30.55 Q25.3 29.85 26.05 30.4 L29.1 30.2 29.3 33.5 M26.7 35.55 Q26.0 34.8 24.2 34.75 26.0 34.8 26.7 35.55" fill="#d74d4d" fill-rule="evenodd" stroke="none"/>
    <path d="M32.1 2.65 L31.35 2.95 31.3 2.8 32.1 2.65 M9.35 25.5 L9.5 25.55 9.5 25.6 9.35 25.5" fill="#de7354" fill-rule="evenodd" stroke="none"/>
    <path d="M44.65 32.95 L51.95 34.45 Q51.75 37.95 48.7 38.0 L44.65 32.95 M36.2 32.95 L37.25 33.8 38.2 43.25 Q34.15 47.1 29.5 42.9 L36.2 32.95" fill="#972222" fill-rule="evenodd" stroke="none"/>
    <path d="M48.2 9.45 Q46.85 6.75 44.55 4.5 L44.25 4.35 Q39.45 1.5 32.15 2.65 L32.1 2.65 31.3 2.8 31.3 0.0 21.8 4.65 18.3 6.4 16.1 8.2 16.15 8.95 16.9 8.85 17.7 8.75 19.35 8.6 20.6 8.55 M48.2 9.45 L48.85 10.9 Q49.9 13.65 49.95 16.8 L49.95 17.0 59.1 6.0 58.5 14.8 M35.25 28.95 L32.25 33.05 Q31.8 34.75 30.55 35.1 M29.65 8.7 L29.95 10.0 30.55 10.15 Q35.55 11.8 37.1 20.4 L37.7 25.6 36.95 26.65 35.25 28.95 M48.55 22.2 Q49.7 20.4 49.85 18.6 M48.55 22.2 Q47.65 23.6 46.15 25.0 M28.55 4.75 L28.65 4.35 28.75 4.7 29.4 7.5 29.65 8.7 M27.95 6.75 L28.55 4.75 M27.5 8.25 L27.2 9.25 20.65 8.55 M27.95 6.75 L27.5 8.25 M13.3 9.95 L9.8 17.75 9.7 18.0 9.4 24.1 9.35 25.5 9.3 26.8 M13.45 9.75 Q13.7 6.9 11.45 4.75 14.95 5.6 16.1 8.2 M13.45 9.75 L13.4 9.8 13.3 9.95 M9.8 17.75 L9.7 17.8 9.7 18.0" ffdec:has-small-stroke="true" ffdec:original-stroke-width="0.05" fill="none" stroke="#663300" stroke-linecap="round" stroke-linejoin="round" stroke-opacity="0.6" stroke-width="1.0"/>
    <path d="M58.5 14.8 L58.3 17.8 49.95 24.95 49.9 25.0 50.0 25.05 51.85 25.85 50.05 27.45 46.55 30.55 45.3 26.25 M43.85 8.6 Q42.4 7.2 40.65 6.55 M38.1 6.05 Q34.35 6.0 35.15 7.2 37.1 7.15 38.7 7.85 M40.6 9.0 L42.45 10.1 Q43.6 10.6 43.5 11.55 43.4 12.5 43.95 13.65 44.5 14.8 43.9 17.1 M43.7 18.4 L43.6 18.8 43.35 19.95 M43.0 21.3 L42.35 24.25 Q44.1 22.65 45.05 20.4 M45.7 18.2 L46.1 16.1 M45.25 13.15 Q45.75 11.65 44.95 11.2 M41.45 18.6 L41.35 18.8 Q40.0 21.15 39.05 20.85 L39.0 20.8 38.7 20.55 39.15 19.6 Q39.65 18.45 39.65 17.35 M38.85 15.85 Q38.85 14.4 37.5 13.65 37.05 12.1 36.5 11.65 L34.8 10.55 Q33.6 9.8 31.25 9.1 M40.95 13.8 Q42.2 14.55 42.15 16.25 M37.4 9.15 Q38.6 9.85 39.6 10.65 M30.85 7.1 L33.5 7.65 M25.85 8.05 L22.05 7.35 Q24.8 6.6 27.9 6.75 M17.5 27.05 Q15.45 28.6 15.05 30.05 L13.25 28.25 Q13.3 27.75 13.5 27.4 14.1 25.85 15.9 26.1 L17.3 26.5 17.9 26.75 17.5 27.05" ffdec:has-small-stroke="true" ffdec:original-stroke-width="0.05" fill="none" stroke="#663300" stroke-linecap="round" stroke-linejoin="round" stroke-width="1.0"/>
    <path d="M45.2 26.2 L43.25 25.45 40.45 28.45 39.6 27.55 38.65 29.0 36.75 29.0 35.25 28.95 M29.3 33.5 L29.4 34.4 M29.4 34.55 L29.5 35.55 24.9 38.0 20.75 37.75 19.9 37.3 M19.55 37.15 L19.8 36.2 Q21.8 34.55 24.15 34.75 M24.2 34.75 L24.5 32.2 24.4 30.55 24.3 29.65 M29.1 30.2 L29.05 29.55 M26.1 29.35 L26.05 30.4 M24.2 34.75 Q26.0 34.8 26.7 35.55 M29.1 30.2 L29.3 33.5" ffdec:has-small-stroke="true" ffdec:original-stroke-width="0.05" fill="none" stroke="#663300" stroke-linecap="round" stroke-linejoin="round" stroke-width="1.0"/>
    <path d="M13.45 9.75 L13.3 9.95" ffdec:has-small-stroke="true" ffdec:original-stroke-width="0.05" fill="none" stroke="#636532" stroke-linecap="round" stroke-linejoin="round" stroke-width="1.0"/>
    <path d="M12.5 22.2 L13.4 23.5 14.35 20.75 M12.5 22.2 L12.0 21.45 M14.1 24.55 L13.4 23.5 12.8 25.25 M19.8 18.55 L18.0 22.6 19.6 24.05 M17.2 24.35 L18.0 22.6 16.8 21.45" fill="none" stroke="#663300" stroke-linecap="round" stroke-linejoin="round" stroke-width="1.0"/>
    <path d="M10.65 29.5 L1.75 31.5 M11.6 27.0 L12.05 27.6 M11.6 27.0 L9.5 25.6 9.35 25.5 3.45 21.55 M10.65 29.5 L12.2 29.15 M21.15 27.4 L28.95 26.0 M20.5 25.35 L33.3 19.95" ffdec:has-small-stroke="true" ffdec:original-stroke-width="0.05" fill="none" stroke="#663300" stroke-linecap="round" stroke-linejoin="round" stroke-opacity="0.57254905" stroke-width="1.0"/>
    <path d="M13.2 31.7 L13.0 31.6 12.25 31.1 11.9 30.6 11.35 30.25 10.65 29.5 10.3 29.0 Q9.85 28.4 9.5 27.4 L9.35 27.05 9.3 26.75" ffdec:has-small-stroke="true" ffdec:original-stroke-width="0.05" fill="none" stroke="#663300" stroke-linecap="round" stroke-linejoin="round" stroke-opacity="0.6313726" stroke-width="1.0"/>
    <path d="M24.15 34.75 L24.2 34.75" ffdec:has-small-stroke="true" ffdec:original-stroke-width="0.05" fill="none" stroke="#9e7e5e" stroke-linecap="round" stroke-linejoin="round" stroke-opacity="0.5803922" stroke-width="1.0"/>
    <path d="M13.95 31.55 L13.85 31.6 13.2 31.7 M29.05 29.55 L29.7 30.45 31.75 28.05 33.3 30.2 32.25 33.05 M29.05 29.55 L28.6 28.85 26.1 29.35 24.3 29.65 13.95 31.55" ffdec:has-small-stroke="true" ffdec:original-stroke-width="0.05" fill="none" stroke="#8c6900" stroke-linecap="round" stroke-linejoin="round" stroke-width="1.0"/>
  </g>
  <defs>
    <radialGradient cx="0" cy="0" gradientTransform="matrix(0.0803, 0.0, 0.0, 0.0603, 33.2, 26.2)" gradientUnits="userSpaceOnUse" id="gradient0" r="819.2" spreadMethod="pad">
      <stop offset="0.0" stop-color="#91756f"/>
      <stop offset="0.1803921568627451" stop-color="#c2b2af"/>
      <stop offset="0.4" stop-color="#ffffff" stop-opacity="0.0"/>
    </radialGradient>
  </defs>
</svg>
