<?xml version="1.0" encoding="UTF-8" standalone="no"?>
<svg xmlns:ffdec="https://www.free-decompiler.com/flash" xmlns:xlink="http://www.w3.org/1999/xlink" ffdec:objectType="shape" height="115.6px" width="128.75px" xmlns="http://www.w3.org/2000/svg">
  <g transform="matrix(1.0, 0.0, 0.0, 1.0, 64.35, 57.8)">
    <path d="M-4.7 -18.9 L3.2 -14.25 7.8 -6.45 -2.15 -16.0 -3.75 -12.8 -5.75 -8.95 -7.3 -5.85 -8.05 -6.05 -10.25 -6.55 -9.15 -8.95 -8.8 -9.75 -8.3 -10.85 -6.9 -13.95 -4.7 -18.9 M-2.6 -8.3 L-0.95 -10.45 4.95 1.65 -1.7 -6.55 -2.0 -5.95 -4.05 -2.0 -5.55 0.85 -6.4 -3.0 -4.8 -5.2 -2.6 -8.3 M-0.4 -0.65 L0.25 -1.75 7.55 9.05 0.45 2.6 -0.1 3.5 -1.7 6.15 -2.95 8.2 -4.0 5.15 -2.6 2.95 -0.4 -0.65 M1.15 7.5 L1.65 6.8 7.8 15.6 2.5 11.9 1.3 11.05 0.1 12.65 -1.25 14.5 -1.3 14.5 -1.4 14.7 -3.15 14.0 -4.2 13.55 -5.2 13.15 -11.2 10.65 -15.85 18.45 -16.3 17.65 -16.75 16.8 -17.3 15.85 -13.65 6.45 -4.8 12.2 -4.45 12.4 -3.2 13.25 -0.7 9.85 1.15 7.5 M3.95 16.5 L12.3 24.3 5.1 20.3 3.85 19.4 2.55 21.4 2.0 22.2 2.9 22.65 2.95 22.85 1.8 22.45 0.15 24.9 -0.55 21.7 -2.3 21.15 -2.45 21.15 -2.75 21.05 -3.1 20.9 -8.85 19.1 -8.45 26.35 -10.75 24.75 -11.2 26.75 -12.35 24.7 -11.95 24.5 -10.35 16.05 -3.35 19.5 -3.0 19.7 -0.15 21.1 2.0 22.2 1.8 22.45 -0.55 21.7 1.8 22.45 2.0 22.2 -0.15 21.1 1.55 17.8 2.65 15.65 3.95 16.5 M-26.05 -16.6 L-25.65 -17.85 -25.3 -18.95 -23.85 -23.65 -19.2 -19.9 -18.55 -19.35 -18.0 -18.9 -9.4 -12.05 -21.8 -17.6 -27.0 -1.55 -29.55 -3.6 -28.75 -7.85 -26.05 -16.6 M-6.7 6.6 L-5.3 8.0 -4.3 9.0 -5.25 8.35 -15.3 1.75 -19.5 11.5 -21.9 6.85 -16.35 -2.9 -6.7 6.6 M-1.3 14.5 L-3.2 13.25 -1.3 14.5 M-23.5 3.75 L-25.35 0.25 -20.85 -12.5 -7.75 1.45 -19.1 -6.9 -23.05 3.55 -23.5 3.75" fill="#c05858" fill-rule="evenodd" stroke="none"/>
    <path d="M-22.1 -52.45 L-30.85 -40.9 -28.1 -55.35 -22.1 -52.45 M-57.9 -57.8 L-44.1 -30.4 -45.05 -31.65 -64.35 -40.15 -58.25 -57.65 -57.9 -57.8" fill="#990000" fill-rule="evenodd" stroke="none"/>
    <path d="M-3.75 -12.8 L-2.6 -8.3 -4.8 -5.2 -5.75 -8.95 -3.75 -12.8 M-2.0 -5.95 L-1.05 -2.1 -0.4 -0.65 -2.6 2.95 -3.3 0.6 -4.05 -2.0 -2.0 -5.95 M-0.1 3.5 L1.15 7.5 -0.7 9.85 -1.7 6.15 -0.1 3.5 M2.5 11.9 L3.95 16.5 2.65 15.65 1.55 17.8 0.1 12.65 1.3 11.05 2.5 11.9 M5.1 20.3 L5.75 22.2 5.35 22.45 19.15 33.55 20.4 33.05 26.65 35.05 27.8 35.05 28.55 35.75 26.95 36.6 26.0 37.1 26.0 37.15 25.05 37.65 26.0 37.15 26.3 37.65 30.2 46.6 34.15 48.1 32.1 51.15 28.3 48.0 23.4 38.5 25.05 37.65 15.25 35.05 14.65 35.25 3.6 24.15 3.35 23.9 4.2 23.3 2.9 22.65 2.55 21.4 3.85 19.4 5.1 20.3 M32.15 28.95 L32.3 28.2 35.1 14.6 43.65 7.7 46.05 4.0 64.4 5.8 63.25 13.5 63.45 13.75 58.1 19.85 57.55 20.5 58.1 19.85 57.55 20.5 56.8 19.85 58.65 13.8 49.7 22.1 51.75 11.1 48.4 15.0 46.7 8.4 34.9 32.2 34.5 33.35 34.05 34.55 34.5 33.35 34.1 34.55 34.05 34.55 33.4 34.3 37.35 20.35 36.25 21.9 36.95 15.65 32.15 28.9 32.15 28.95 M23.2 56.4 L20.75 56.65 20.6 57.15 14.15 53.25 13.55 53.15 15.2 46.1 13.4 39.3 16.8 39.75 18.2 46.1 18.1 51.2 18.6 51.2 23.2 56.4 M-30.05 45.45 L-37.55 35.0 -37.25 31.55 -29.35 40.5 -30.05 45.45 M-51.9 13.8 L-55.95 6.2 -56.1 5.9 -55.55 -1.55 -53.8 -0.55 -51.1 4.55 -48.85 12.65 -51.9 13.8 M-8.8 -26.0 Q-8.2 -25.45 -7.0 -25.05 -5.85 -24.7 -5.6 -23.55 L-5.6 -19.45 -5.15 -19.15 -4.7 -18.9 -6.9 -13.95 -8.7 -21.2 -5.15 -19.15 -8.7 -21.2 -8.8 -21.3 -8.8 -26.0 M-48.2 -6.55 L-45.45 -10.85 -40.25 -10.1 -32.65 -15.25 -29.3 -15.8 -27.95 -14.55 -27.95 -14.4 -28.3 -11.75 -28.4 -10.9 -32.4 -11.5 -36.65 -7.6 -37.25 -7.8 -38.5 -3.75 -39.2 -3.3 -43.85 -5.5 -43.7 2.05 -48.15 2.65 -50.05 -1.3 -48.2 -6.55 M-1.05 -2.1 L-3.3 0.6 -1.05 -2.1 M-17.95 14.55 L-17.3 15.85 -16.75 16.8 -17.3 15.85 -16.75 16.8 -19.6 17.0 -19.5 17.55 -23.95 24.5 -26.4 25.2 -26.15 26.1 -25.55 34.2 -26.0 34.7 -29.1 33.7 -30.6 34.45 -34.2 27.6 -30.15 27.6 -30.2 23.1 -25.5 21.95 -21.45 15.25 -17.95 14.55 M-10.65 49.3 L-6.05 46.4 -5.9 45.8 -7.4 41.8 -2.7 37.4 -1.65 31.85 -0.55 32.05 -0.75 38.15 -3.4 41.8 1.0 49.7 -3.7 52.2 -0.3 56.5 -0.75 56.85 -9.8 51.0 -10.65 49.3 M43.65 7.7 L34.9 32.2 43.65 7.7 M19.15 33.55 L15.25 35.05 19.15 33.55 M5.35 22.45 L4.2 23.3 5.35 22.45 M32.3 28.2 L32.15 28.9 32.3 28.2" fill="#d66969" fill-rule="evenodd" stroke="none"/>
    <path d="M-53.8 -0.55 L-53.85 -0.65 -51.3 -12.9 -43.8 -18.9 -48.2 -6.55 -50.05 -1.3 -48.15 2.65 -44.1 11.3 -41.5 10.35 -46.0 17.6 -46.5 13.35 -51.1 4.55 -53.8 -0.55 M-30.6 34.45 L-24.8 45.4 -29.35 40.5 -37.25 31.55 -39.95 28.4 -39.6 17.4 -34.2 27.6 -30.6 34.45 M-0.75 56.85 L-9.95 54.1 -13.25 50.65 -12.95 44.8 -10.65 49.3 -9.8 51.0 -0.75 56.85" fill="#ffffff" fill-rule="evenodd" stroke="none"/>
    <path d="M30.9 34.95 L32.0 29.7 32.15 28.95 32.15 28.9 36.95 15.65 36.25 21.9 37.35 20.35 33.4 34.3 34.05 34.55 34.1 34.55 34.5 33.35 34.9 32.2 46.7 8.4 48.4 15.0 51.75 11.1 49.7 22.1 58.65 13.8 56.8 19.85 57.55 20.5 56.9 21.25 43.4 36.6 36.8 44.15 34.15 48.1 30.2 46.6 26.3 37.65 26.0 37.15 26.0 37.1 26.95 36.6 26.0 37.15 26.95 36.6 28.55 35.75 30.2 37.4 30.9 34.95 M63.25 13.5 L63.5 13.7 63.45 13.75 63.25 13.5 M32.1 51.15 L28.4 55.7 26.5 55.8 26.5 55.75 26.45 55.75 23.9 56.3 23.2 56.4 18.6 51.2 18.1 51.2 18.2 46.1 16.8 39.75 19.75 40.2 19.75 40.3 19.95 40.25 22.2 39.05 19.95 40.25 20.7 39.8 22.2 39.05 23.4 38.5 28.3 48.0 32.1 51.15 M20.6 57.15 L10.45 57.8 2.7 57.4 2.25 57.7 -14.65 53.3 -16.3 50.8 -30.0 45.5 -30.05 45.45 -29.35 40.5 -24.8 45.4 -30.6 34.45 -29.1 33.7 -26.0 34.7 -25.55 34.2 -26.15 26.1 -26.4 25.2 -23.95 24.5 -19.5 17.55 -19.6 17.0 -16.75 16.8 -16.3 17.65 -16.75 16.8 -16.3 17.65 -15.85 18.45 -12.35 24.7 -11.2 26.75 -10.75 24.75 -8.45 26.35 6.25 35.8 6.65 38.35 13.4 39.3 15.2 46.1 13.55 53.15 14.15 53.25 20.6 57.15 M-37.55 35.0 L-41.85 28.95 -41.9 27.4 -46.75 23.35 -51.9 13.8 -48.85 12.65 -51.1 4.55 -46.5 13.35 -46.0 17.6 -41.5 10.35 -44.1 11.3 -48.15 2.65 -43.7 2.05 -43.85 -5.5 -39.2 -3.3 -38.5 -3.75 -37.25 -7.8 -36.65 -7.6 -32.4 -11.5 -28.4 -10.9 -28.5 -10.15 -28.75 -7.85 -29.55 -3.6 -27.0 -1.55 -25.35 0.25 -23.5 3.75 -21.9 6.85 -19.5 11.5 -17.95 14.55 -21.45 15.25 -25.5 21.95 -30.2 23.1 -30.15 27.6 -34.2 27.6 -39.6 17.4 -39.95 28.4 -37.25 31.55 -37.55 35.0 M-56.1 5.9 L-58.05 2.3 -56.35 -9.2 -51.7 -17.3 Q-38.8 -30.05 -30.35 -32.1 L-27.75 -28.8 -26.35 -27.6 -27.6 -17.4 -27.95 -14.55 -29.3 -15.8 -32.65 -15.25 -40.25 -10.1 -45.45 -10.85 -48.2 -6.55 -43.8 -18.9 -51.3 -12.9 -53.85 -0.65 -53.8 -0.55 -55.55 -1.55 -56.1 5.9 M-41.9 27.4 L-41.95 16.2 -31.0 -4.85 -29.55 -3.6 -31.0 -4.85 -41.95 16.2 -41.9 27.4 M-0.75 56.85 L-0.3 56.5 -3.7 52.2 1.0 49.7 -3.4 41.8 -0.75 38.15 -0.55 32.05 -1.65 31.85 -2.7 37.4 -7.4 41.8 -5.9 45.8 -6.05 46.4 -10.65 49.3 -12.95 44.8 -13.25 50.65 -9.95 54.1 -0.75 56.85 M-16.3 50.8 L-14.9 42.5 -11.2 26.75 -14.9 42.5 -16.3 50.8 M56.9 21.25 L57.55 20.5 56.9 21.25 M32.15 28.9 L32.0 29.7 32.15 28.9 M34.05 34.55 L32.3 39.55 36.8 44.15 32.3 39.55 30.2 37.4 32.3 39.55 34.05 34.55 M19.75 40.3 L26.5 55.75 19.75 40.3 M6.65 38.35 L10.45 57.8 6.65 38.35" fill="#ff9999" fill-rule="evenodd" stroke="none"/>
    <path d="M-27.75 -28.8 Q-19.5 -31.9 -8.8 -26.0 L-8.8 -21.3 -8.7 -21.2 -6.9 -13.95 -8.3 -10.85 -8.8 -9.75 -8.8 -9.8 -10.2 -16.8 -14.55 -20.45 -14.75 -20.2 -18.55 -19.35 -19.2 -19.9 -23.85 -23.65 -25.3 -18.95 -25.65 -17.85 -27.6 -17.4 -26.35 -27.6 -27.75 -28.8 M-8.05 -6.05 L-7.3 -5.85 -5.75 -8.95 -4.8 -5.2 -6.4 -3.0 -5.55 0.85 -4.05 -2.0 -3.3 0.6 -2.6 2.95 -4.0 5.15 -2.95 8.2 -1.7 6.15 -0.7 9.85 -3.2 13.25 -4.45 12.4 -5.25 8.35 -4.3 9.0 -5.3 8.0 -5.3 7.95 -8.05 -6.05 M-25.3 -18.95 L-25.65 -17.85 -25.3 -18.95 M-19.2 -19.9 L-18.55 -19.35 -19.2 -19.9 M-8.3 -10.85 L-8.8 -9.8 -8.3 -10.85 M-4.3 9.0 L-5.3 7.95 -4.3 9.0 M-3.0 19.7 L-4.2 13.55 -3.15 14.0 -4.2 13.55 -3.15 14.0 -1.4 14.7 -0.25 15.2 -1.25 14.5 0.1 12.65 1.55 17.8 -0.15 21.1 -3.0 19.7 M-2.75 21.05 L-2.45 21.15 -2.3 21.15 -0.55 21.7 0.15 24.9 1.8 22.45 2.95 22.85 3.1 23.35 3.25 23.95 3.6 24.15 14.65 35.25 15.25 35.05 25.05 37.65 23.4 38.5 22.2 39.05 20.7 39.8 12.05 35.95 11.55 36.55 -1.8 25.85 -2.75 21.05 M2.9 22.65 L2.0 22.2 2.55 21.4 2.9 22.65" fill="#da9c9c" fill-rule="evenodd" stroke="none"/>
    <path d="M-8.8 -9.75 L-9.15 -8.95 -10.25 -6.55 -8.05 -6.05 -5.3 7.95 -6.7 6.6 -5.3 7.95 -5.3 8.0 -6.7 6.6 -16.35 -2.9 -21.9 6.85 -23.5 3.75 -23.05 3.55 -19.1 -6.9 -7.75 1.45 -20.85 -12.5 -25.35 0.25 -27.0 -1.55 -21.8 -17.6 -9.4 -12.05 -18.0 -18.9 -18.55 -19.35 -18.0 -18.9 -18.55 -19.35 -14.75 -20.2 -14.55 -20.45 -10.2 -16.8 -8.8 -9.8 -9.15 -8.95 -8.8 -9.8 -8.8 -9.75 M-28.4 -10.9 L-28.3 -11.75 -28.5 -10.15 -28.4 -10.9 M-25.65 -17.85 L-26.05 -16.6 -25.65 -17.85 M-5.25 8.35 L-4.45 12.4 -4.8 12.2 -13.65 6.45 -17.3 15.85 -17.95 14.55 -19.5 11.5 -15.3 1.75 -5.25 8.35 M-11.95 24.5 L-12.35 24.7 -15.85 18.45 -11.2 10.65 -5.2 13.15 -4.2 13.55 -5.2 13.15 -4.2 13.55 -3.0 19.7 -3.35 19.5 -10.35 16.05 -11.95 24.5 M-8.45 26.35 L-8.85 19.1 -3.1 20.9 -2.75 21.05 -1.8 25.85 11.55 36.55 12.05 35.95 20.7 39.8 19.95 40.25 19.75 40.2 16.8 39.75 13.4 39.3 6.65 38.35 6.25 35.8 -8.45 26.35" fill="#ffcccc" fill-rule="evenodd" stroke="none"/>
    <path d="M63.5 13.7 L63.1 17.35 43.4 36.6 56.9 21.25 57.55 20.5 58.1 19.85 63.45 13.75 63.5 13.7" fill="#8c211e" fill-rule="evenodd" stroke="none"/>
    <path d="M27.8 35.05 L30.9 34.95 30.2 37.4 28.55 35.75 27.8 35.05 M19.75 40.3 L19.75 40.2 19.95 40.25 19.75 40.3" fill="#ff99cc" fill-rule="evenodd" stroke="none"/>
    <path d="M3.35 23.9 L3.2 23.75 3.1 23.35 2.95 22.85 4.2 23.3 3.35 23.9" fill="#bd5f5f" fill-rule="evenodd" stroke="none"/>
    <path d="M20.6 57.15 L10.45 57.8" ffdec:has-small-stroke="true" ffdec:original-stroke-width="0.05" fill="none" stroke="#000000" stroke-linecap="round" stroke-linejoin="round" stroke-opacity="0.3019608" stroke-width="1.0"/>
    <path d="M-4.7 -18.9 L3.2 -14.25 7.8 -6.45 -2.15 -16.0 -3.75 -12.8 -2.6 -8.3 -0.95 -10.45 4.95 1.65 -1.7 -6.55 -2.0 -5.95 -1.05 -2.1 -0.4 -0.65 0.25 -1.75 7.55 9.05 0.45 2.6 -0.1 3.5 1.15 7.5 1.65 6.8 7.8 15.6 2.5 11.9 3.95 16.5 12.3 24.3 5.1 20.3 5.75 22.2 5.35 22.45 19.15 33.55 20.4 33.05 26.65 35.05 27.8 35.05 30.9 34.95 32.0 29.7 32.15 28.9 32.3 28.2 35.1 14.6 43.65 7.7 46.05 4.0 64.4 5.8 63.25 13.5 63.5 13.7 63.1 17.35 43.4 36.6 36.8 44.15 34.15 48.1 32.1 51.15 28.4 55.7 26.5 55.8 26.45 55.75 23.9 56.3 23.2 56.4 20.75 56.65 M10.45 57.8 L2.7 57.4 M2.25 57.7 L-14.65 53.3 -16.3 50.8 -30.0 45.5 -30.05 45.45 -37.55 35.0 -41.85 28.95 -41.9 27.4 -46.75 23.35 -51.9 13.8 -55.95 6.2 M-56.1 5.9 L-58.05 2.3 -56.35 -9.2 -51.7 -17.3 Q-38.8 -30.05 -30.35 -32.1 L-27.75 -28.8 Q-19.5 -31.9 -8.8 -26.0 -8.2 -25.45 -7.0 -25.05 -5.85 -24.7 -5.6 -23.55 M-5.15 -19.15 L-4.7 -18.9 -6.9 -13.95 -8.3 -10.85 -8.8 -9.8 -9.15 -8.95 -10.25 -6.55 -8.05 -6.05 -7.3 -5.85 -5.75 -8.95 -3.75 -12.8 M-27.95 -14.55 L-27.6 -17.4 -26.35 -27.6 -27.75 -28.8 M-28.3 -11.75 L-27.95 -14.4 M-25.65 -17.85 L-26.05 -16.6 -28.75 -7.85 -29.55 -3.6 -27.0 -1.55 -21.8 -17.6 -9.4 -12.05 -18.0 -18.9 -18.55 -19.35 -19.2 -19.9 -23.85 -23.65 -25.3 -18.95 -25.65 -17.85 M-28.5 -10.15 L-28.3 -11.75 M-28.75 -7.85 L-28.5 -10.15 M-29.55 -3.6 L-31.0 -4.85 -41.95 16.2 -41.9 27.4 M-8.7 -21.2 L-5.15 -19.15 M-6.9 -13.95 L-8.7 -21.2 M-2.0 -5.95 L-4.05 -2.0 -3.3 0.6 -1.05 -2.1 M-4.05 -2.0 L-5.55 0.85 -6.4 -3.0 -4.8 -5.2 -5.75 -8.95 M-4.8 -5.2 L-2.6 -8.3 M-3.3 0.6 L-2.6 2.95 -0.4 -0.65 M-0.1 3.5 L-1.7 6.15 -0.7 9.85 1.15 7.5 M-1.7 6.15 L-2.95 8.2 -4.0 5.15 -2.6 2.95 M-6.7 6.6 L-5.3 7.95 -4.3 9.0 -5.25 8.35 -15.3 1.75 -19.5 11.5 -17.95 14.55 -17.3 15.85 -13.65 6.45 -4.8 12.2 M-3.2 13.25 L-0.7 9.85 M-15.85 18.45 L-16.3 17.65 -16.75 16.8 -17.3 15.85 M-4.2 13.55 L-5.2 13.15 -11.2 10.65 -15.85 18.45 -12.35 24.7 -11.2 26.75 -10.75 24.75 -8.45 26.35 -8.85 19.1 -3.1 20.9 M-2.45 21.15 L-2.3 21.15 -0.55 21.7 1.8 22.45 2.0 22.2 -0.15 21.1 1.55 17.8 2.65 15.65 3.95 16.5 M-1.25 14.5 L-0.25 15.2 -1.4 14.7 -3.15 14.0 -4.2 13.55 M-1.3 14.5 L-1.25 14.5 0.1 12.65 1.3 11.05 2.5 11.9 M-1.4 14.7 L-1.25 14.5 M-3.2 13.25 L-1.3 14.5 M-25.35 0.25 L-23.5 3.75 -21.9 6.85 -16.35 -2.9 -6.7 6.6 M-23.05 3.55 L-19.1 -6.9 -7.75 1.45 -20.85 -12.5 -25.35 0.25 -27.0 -1.55 M-11.2 26.75 L-14.9 42.5 -16.3 50.8 M-19.5 11.5 L-21.9 6.85 M63.5 13.7 L63.45 13.75 58.1 19.85 57.55 20.5 56.9 21.25 43.4 36.6 M34.05 34.55 L34.5 33.35 34.9 32.2 43.65 7.7 M1.55 17.8 L0.1 12.65 M2.95 22.85 L2.9 22.65 2.0 22.2 2.55 21.4 3.85 19.4 5.1 20.3 M3.6 24.15 L3.35 23.9 3.25 23.95 3.6 24.15 14.65 35.25 15.25 35.05 19.15 33.55 M3.1 23.35 L3.2 23.75 3.35 23.9 4.2 23.3 2.95 22.85 3.1 23.35 M3.25 23.95 L3.2 23.75 M2.9 22.65 L4.2 23.3 5.35 22.45 M2.55 21.4 L2.9 22.65 M1.8 22.45 L2.95 22.85 M19.75 40.2 L19.75 40.3 26.5 55.75 26.45 55.75 M19.95 40.25 L19.75 40.2 16.8 39.75 13.4 39.3 6.65 38.35 6.25 35.8 -8.45 26.35 M27.8 35.05 L28.55 35.75 30.2 37.4 30.9 34.95 M26.0 37.15 L26.95 36.6 28.55 35.75 M25.05 37.65 L26.0 37.15 M22.2 39.05 L23.4 38.5 25.05 37.65 15.25 35.05 M36.8 44.15 L32.3 39.55 30.2 37.4 M32.3 39.55 L34.05 34.55 M-0.55 21.7 L0.15 24.9 1.8 22.45 M22.2 39.05 L19.95 40.25 M10.45 57.8 L6.65 38.35" ffdec:has-small-stroke="true" ffdec:original-stroke-width="0.05" fill="none" stroke="#000000" stroke-linecap="round" stroke-linejoin="round" stroke-opacity="0.3019608" stroke-width="1.0"/>
    <path d="M-5.6 -23.55 L-5.6 -19.45 M-8.8 -21.3 L-8.8 -26.0" ffdec:has-small-stroke="true" ffdec:original-stroke-width="0.05" fill="none" stroke="#000000" stroke-linecap="round" stroke-linejoin="round" stroke-opacity="0.4509804" stroke-width="1.0"/>
    <path d="M-11.95 24.5 L-10.35 16.05 -3.35 19.5" ffdec:has-small-stroke="true" ffdec:original-stroke-width="0.05" fill="none" stroke="#000000" stroke-linecap="round" stroke-linejoin="round" stroke-opacity="0.4509804" stroke-width="1.0"/>
  </g>
</svg>
