<?xml version="1.0" encoding="UTF-8" standalone="no"?>
<svg xmlns:ffdec="https://www.free-decompiler.com/flash" xmlns:xlink="http://www.w3.org/1999/xlink" ffdec:objectType="shape" height="46.15px" width="52.45px" xmlns="http://www.w3.org/2000/svg">
  <g transform="matrix(1.0, 0.0, 0.0, 1.0, 26.2, 23.05)">
    <path d="M-0.05 -6.2 L-0.1 -6.65 Q3.9 -7.3 8.15 -5.05 L10.2 -4.05 10.7 -3.45 11.75 -2.25 4.4 -5.1 0.75 -5.45 1.65 -6.2 -0.05 -6.2 -1.8 -5.1 -6.85 -3.7 -3.2 -5.75 -0.1 -6.65 -0.05 -6.2 M14.8 -11.75 L14.9 -11.75 16.35 -1.9 16.35 -1.7 16.4 -1.65 16.4 4.8 18.7 6.5 21.8 8.75 21.7 8.7 21.85 8.8 18.6 8.4 15.8 6.7 15.15 8.05 12.45 7.75 12.75 6.3 13.15 4.4 13.45 0.7 15.05 3.8 15.6 4.2 16.15 -1.8 14.8 -11.75 M15.6 4.2 L16.4 4.8 15.6 4.2 M-18.9 5.2 L-17.6 4.75 -15.95 3.85 -13.35 2.45 -10.1 -1.2 -10.65 0.65 -12.05 5.55 -13.8 5.15 -12.75 4.0 -13.95 3.6 -16.65 4.95 -18.9 5.2" fill="#591341" fill-rule="evenodd" stroke="none"/>
    <path d="M-0.1 -6.65 L-0.05 -6.2 -0.1 -6.65 M21.85 8.8 L21.7 8.7 21.8 8.75 21.85 8.8 21.8 8.75 21.85 8.75 21.85 8.8" fill="#72cfcf" fill-rule="evenodd" stroke="none"/>
    <path d="M-0.05 -6.2 L1.65 -6.2 0.75 -5.45 -2.45 -3.1 -2.7 -2.7 -4.65 -3.3 -1.8 -5.1 -0.05 -6.2 M11.75 -2.25 L10.7 -3.45 12.2 -6.25 12.1 -12.65 11.9 -13.05 12.0 -13.2 10.45 -16.85 13.05 -12.35 13.65 -4.85 13.65 -4.8 12.6 -0.9 12.15 -1.8 11.75 -2.25 M18.6 8.4 L22.2 10.55 22.05 11.1 14.9 8.6 15.15 8.05 15.8 6.7 18.6 8.4 M1.85 4.85 L3.5 5.95 -2.95 5.35 -1.6 4.45 -3.2 2.8 4.4 3.65 4.45 4.05 1.85 4.85 M-13.8 5.15 L-13.9 5.85 -14.05 5.65 -22.45 8.95 -21.7 7.5 -16.65 4.95 -13.95 3.6 -12.75 4.0 -13.8 5.15" fill="#fbeaf5" fill-rule="evenodd" stroke="none"/>
    <path d="M0.75 -5.45 L4.4 -5.1 11.75 -2.25 12.15 -1.8 12.6 -0.9 13.4 0.65 13.45 0.7 13.15 4.4 12.75 6.3 12.45 7.75 15.15 8.05 14.9 8.6 22.05 11.1 22.2 10.55 18.6 8.4 21.85 8.8 21.85 8.75 25.65 10.9 25.7 14.85 25.65 14.95 22.2 15.65 11.2 13.25 1.75 13.6 1.65 13.9 0.9 13.25 0.8 12.95 0.0 10.5 -1.0 12.55 -1.2 13.0 -1.9 13.4 -2.3 13.65 -8.6 11.45 -22.1 11.65 -25.25 10.6 -25.3 10.55 -24.5 8.7 -23.4 7.35 -20.1 5.6 -18.9 5.2 -16.65 4.95 -21.7 7.5 -22.45 8.95 -14.05 5.65 -13.9 5.85 -13.8 5.15 -12.05 5.55 -10.65 0.65 -10.1 -1.2 -8.9 -2.55 -6.85 -3.7 -1.8 -5.1 -4.65 -3.3 -2.7 -2.7 -2.45 -3.1 0.75 -5.45 M9.55 2.25 L11.0 4.2 9.75 6.05 11.0 4.2 9.55 2.25 M12.5 1.85 L11.0 4.2 12.75 6.3 11.0 4.2 12.5 1.85 M1.85 4.85 L4.45 4.05 4.4 3.65 -3.2 2.8 -1.6 4.45 -2.95 5.35 3.5 5.95 1.85 4.85 M-7.6 4.95 L-9.1 2.65 -10.65 0.65 -9.1 2.65 -7.65 0.6 -9.1 2.65 -7.6 4.95 M-9.1 2.65 L-10.55 4.6 -9.1 2.65" fill="#f1c2e1" fill-rule="evenodd" stroke="none"/>
    <path d="M14.8 -11.75 L14.85 -11.8 14.9 -11.75 14.8 -11.75 M16.4 -1.65 L16.35 -1.7 16.35 -1.9 16.4 -1.65 M-2.3 13.7 L-2.3 13.65 -1.9 13.5 -2.3 13.7" fill="#2d8282" fill-rule="evenodd" stroke="none"/>
    <path d="M10.7 -3.45 L10.2 -4.05 11.8 -6.35 11.85 -12.55 9.6 -17.7 5.1 -23.05 Q7.5 -21.85 9.85 -20.6 L14.85 -11.8 14.8 -11.75 16.15 -1.8 15.6 4.2 15.05 3.8 13.45 0.7 13.4 0.65 12.6 -0.9 13.65 -4.8 13.65 -4.85 13.05 -12.35 10.45 -16.85 12.0 -13.2 11.9 -13.05 12.1 -12.65 12.2 -6.25 10.7 -3.45 M1.65 13.9 L1.75 13.6 11.2 13.25 22.2 15.65 25.65 14.95 22.05 16.45 11.1 14.05 2.55 14.75 2.35 14.6 1.45 13.9 1.65 13.9 M-2.75 13.9 L-3.1 14.1 -8.5 11.8 -12.15 12.55 -22.75 12.35 -25.25 10.6 -22.1 11.65 -8.6 11.45 -2.3 13.65 -2.3 13.7 -2.75 13.9" fill="#992270" fill-rule="evenodd" stroke="none"/>
    <path d="M-1.0 12.55 L0.0 10.5 0.8 12.95 -0.25 12.05 -1.0 12.55" fill="#480000" fill-rule="evenodd" stroke="none"/>
    <path d="M0.8 12.95 L0.9 13.25 1.65 13.9 1.45 13.9 1.35 14.2 0.35 13.5 -0.55 15.9 -0.8 13.3 -1.85 13.75 -1.9 13.5 -1.9 13.4 -1.2 13.0 -1.0 12.55 -0.25 12.05 0.8 12.95 M5.1 21.1 L4.5 18.1 8.35 21.35 8.4 21.4 5.45 23.1 5.1 21.1 M11.4 19.05 L9.6 17.5 12.6 17.35 11.4 19.05" fill="#990000" fill-rule="evenodd" stroke="none"/>
    <path d="M-1.9 13.4 L-1.9 13.5 -2.3 13.65 -1.9 13.4" fill="#339999" fill-rule="evenodd" stroke="none"/>
    <path d="M-1.9 13.5 L-1.85 13.75 -1.75 15.15 -2.75 13.9 -2.3 13.7 -1.9 13.5 M1.35 14.2 L1.45 13.9 2.35 14.6 1.15 15.4 1.35 14.2" fill="#bc2989" fill-rule="evenodd" stroke="none"/>
    <path d="M-1.85 13.75 L-0.8 13.3 -0.55 15.9 0.35 13.5 1.35 14.2 1.15 15.4 0.4 17.7 Q-0.45 18.35 -1.25 17.45 L-1.75 15.25 -1.75 15.15 -1.85 13.75" fill="#ff0000" fill-rule="evenodd" stroke="none"/>
    <path d="M21.8 8.75 L18.7 6.5 26.25 7.05 26.1 22.7 8.35 21.35 4.5 18.1 5.1 21.1 -26.2 18.75 -26.0 3.1 -15.95 3.85 -17.6 4.75 -18.9 5.2 -20.1 5.6 -23.4 7.35 -24.5 8.7 -25.3 10.55 -25.25 10.6 -22.75 12.35 -12.15 12.55 -8.5 11.8 -3.1 14.1 -2.75 13.9 -1.75 15.15 -1.75 15.25 -1.25 17.45 Q-0.45 18.35 0.4 17.7 L1.15 15.4 2.35 14.6 2.55 14.75 11.1 14.05 22.05 16.45 25.65 14.95 25.7 14.85 25.65 10.9 21.85 8.75 21.8 8.75 M11.4 19.05 L12.6 17.35 9.6 17.5 11.4 19.05" fill="url(#gradient0)" fill-rule="evenodd" stroke="none"/>
    <path d="M11.75 -2.25 L10.7 -3.45 10.2 -4.05 8.15 -5.05 Q3.9 -7.3 -0.1 -6.65 L-3.2 -5.75 -6.85 -3.7 -8.9 -2.55 -10.1 -1.2 -13.35 2.45 -15.95 3.85 -17.6 4.75 -18.9 5.2 -20.1 5.6 -23.4 7.35 -24.5 8.7 -25.3 10.55 M14.9 -11.75 L14.85 -11.8 9.85 -20.6 Q7.5 -21.85 5.1 -23.05 L9.6 -17.7 11.85 -12.55 11.8 -6.35 10.2 -4.05 M12.6 -0.9 L13.4 0.65 M13.45 0.7 L15.05 3.8 15.6 4.2 16.4 4.8 18.7 6.5 21.8 8.75 21.85 8.75 25.65 10.9 25.7 14.85 M16.4 -1.65 L16.35 -1.9 14.9 -11.75 M21.7 8.7 L21.8 8.75 21.85 8.8 M12.6 -0.9 L12.15 -1.8 11.75 -2.25 M16.4 -1.65 L16.4 4.8 M0.8 12.95 L0.9 13.25 1.65 13.9 1.45 13.9 1.35 14.2 1.15 15.4 2.35 14.6 1.45 13.9 M0.8 12.95 L0.0 10.5 -1.0 12.55 -1.2 13.0 -1.9 13.4 -2.3 13.65 -1.9 13.5 -2.3 13.7 -2.75 13.9 -3.1 14.1 -8.5 11.8 -12.15 12.55 -22.75 12.35 -25.25 10.6 M-1.75 15.15 L-2.75 13.9 M1.15 15.4 L0.4 17.7 Q-0.45 18.35 -1.25 17.45 L-1.75 15.25 M25.65 14.95 L22.05 16.45 11.1 14.05 2.55 14.75 2.35 14.6" ffdec:has-small-stroke="true" ffdec:original-stroke-width="0.05" fill="none" stroke="#000000" stroke-linecap="round" stroke-linejoin="round" stroke-opacity="0.3019608" stroke-width="1.0"/>
    <path d="M9.75 6.05 L11.0 4.2 9.55 2.25 M12.75 6.3 L11.0 4.2 12.5 1.85 M-10.65 0.65 L-9.1 2.65 -7.65 0.6 M-9.1 2.65 L-7.6 4.95 M-10.55 4.6 L-9.1 2.65" fill="none" stroke="#000000" stroke-linecap="round" stroke-linejoin="round" stroke-width="1.0"/>
    <path d="M-1.9 13.5 L-1.85 13.75 -1.75 15.15" ffdec:has-small-stroke="true" ffdec:original-stroke-width="0.05" fill="none" stroke="#000000" stroke-linecap="round" stroke-linejoin="round" stroke-opacity="0.56078434" stroke-width="1.0"/>
  </g>
  <defs>
    <radialGradient cx="0" cy="0" gradientTransform="matrix(0.0464, 0.0035, -2.0E-4, 0.0132, 0.0, 12.85)" gradientUnits="userSpaceOnUse" id="gradient0" r="819.2" spreadMethod="pad">
      <stop offset="0.0" stop-color="#000000" stop-opacity="0.39215687"/>
      <stop offset="0.16862745098039217" stop-color="#555555" stop-opacity="0.5921569"/>
      <stop offset="0.4745098039215686" stop-color="#7b7b7b" stop-opacity="0.62352943"/>
      <stop offset="0.6666666666666666" stop-color="#7b7b7b" stop-opacity="0.0"/>
    </radialGradient>
  </defs>
</svg>
