<?xml version="1.0" encoding="UTF-8" standalone="no"?>
<svg xmlns:ffdec="https://www.free-decompiler.com/flash" xmlns:xlink="http://www.w3.org/1999/xlink" ffdec:objectType="shape" height="40.85px" width="45.35px" xmlns="http://www.w3.org/2000/svg">
  <g transform="matrix(1.0, 0.0, 0.0, 1.0, 0.0, 0.0)">
    <path d="M1.35 34.45 L1.3 34.45 1.35 34.4 1.35 34.45" fill="#91b869" fill-rule="evenodd" stroke="none"/>
    <path d="M8.55 39.0 L8.5 39.05 8.5 39.0 8.55 39.0 M11.8 21.8 L11.25 22.2 11.75 21.8 11.8 21.8" fill="#517d46" fill-rule="evenodd" stroke="none"/>
    <path d="M2.65 22.45 L2.75 22.55 2.65 22.45" fill="#e7edc5" fill-rule="evenodd" stroke="none"/>
    <path d="M28.15 1.6 Q27.85 2.75 28.8 3.2 34.1 -1.75 40.8 0.95 L42.45 1.75 Q40.1 1.05 38.8 1.3 L37.8 1.05 Q33.9 0.5 29.85 4.05 30.65 5.05 33.75 3.85 34.75 5.1 25.8 7.95 L24.35 8.4 25.4 6.8 26.2 4.4 28.15 1.6 M43.55 12.15 L42.45 13.7 42.35 13.8 40.1 16.2 38.75 16.9 31.0 27.35 30.25 27.3 30.55 27.95 29.35 29.55 26.1 31.75 24.95 30.45 Q25.4 33.15 23.6 34.4 L23.25 33.55 Q22.5 32.55 20.9 32.15 L16.85 32.3 Q15.75 32.5 14.85 32.95 L14.3 33.2 Q13.0 33.8 12.05 34.8 10.9 35.95 10.7 37.05 9.6 37.9 8.5 38.0 L8.5 39.0 8.5 39.05 7.75 38.85 7.1 40.05 Q6.7 40.95 4.75 40.85 L0.55 39.3 Q-0.05 38.8 0.1 37.95 L1.8 36.0 1.45 34.85 2.7 35.6 3.25 36.4 1.05 37.95 3.55 37.75 5.55 38.75 5.75 36.6 5.85 36.85 5.1 34.75 1.35 34.4 1.3 34.45 1.05 34.35 1.0 34.35 0.45 34.25 Q-0.5 33.4 0.55 32.55 L1.6 32.35 1.85 31.0 1.65 31.0 1.85 30.35 Q2.2 29.1 2.7 27.95 4.15 24.3 6.65 21.45 L7.3 20.75 7.45 20.6 9.0 20.6 9.35 18.8 9.7 18.55 Q10.1 18.15 10.6 17.8 L11.2 17.4 Q11.7 17.05 12.25 16.75 19.65 12.25 30.4 13.9 L35.45 14.9 38.35 14.4 Q40.05 14.05 41.5 12.6 L43.55 12.15 M11.8 21.8 Q21.05 15.6 30.0 15.6 28.1 14.7 25.8 14.85 L25.35 14.9 18.8 15.45 17.5 17.05 16.7 16.55 9.35 23.15 11.75 21.8 11.25 22.2 11.8 21.8 M26.2 7.1 Q28.7 5.8 29.05 4.25 27.0 5.05 26.2 7.1 M27.05 24.75 L27.05 26.15 28.45 25.7 28.15 24.55 27.05 24.75 M27.6 21.65 L24.85 24.0 25.9 24.7 28.45 24.2 29.2 25.15 31.15 25.35 32.15 23.45 31.1 20.95 27.6 21.65 M33.45 19.65 L33.35 20.4 33.85 20.5 34.25 20.15 33.45 19.65 M13.85 22.7 L10.75 25.3 13.15 25.85 16.6 24.75 15.35 22.75 13.85 22.7 M16.8 26.45 L15.75 26.25 15.4 26.75 16.55 27.5 16.8 26.45 M8.1 36.9 L8.05 33.5 5.65 33.1 7.25 34.3 8.1 36.9 M24.15 30.1 Q25.5 24.75 17.7 28.8 23.35 27.4 24.15 30.1" fill="#d7d082" fill-rule="evenodd" stroke="none"/>
    <path d="M42.45 1.75 Q47.05 4.5 44.4 10.15 L44.25 10.75 43.55 12.15 41.5 12.6 41.9 12.15 42.35 11.65 43.4 10.15 Q46.0 5.6 41.45 2.55 40.15 1.65 38.8 1.3 40.1 1.05 42.45 1.75 M40.1 16.2 Q38.85 17.7 38.0 19.4 L36.85 21.45 37.85 21.75 35.25 22.75 35.85 23.85 34.05 23.95 33.95 26.0 32.6 25.45 32.7 27.35 31.0 27.35 38.75 16.9 40.1 16.2 M30.55 27.95 L31.25 29.25 31.25 29.65 Q31.35 30.45 32.0 31.2 34.7 29.15 34.75 30.9 35.0 32.3 33.0 32.95 L35.9 33.5 Q36.7 35.35 36.15 36.35 35.55 37.2 34.35 37.25 33.15 37.3 31.6 35.8 30.9 35.1 30.55 33.8 L30.55 33.75 Q30.35 33.15 29.75 32.9 25.4 34.35 23.6 35.25 L23.6 34.4 Q25.4 33.15 24.95 30.45 L26.1 31.75 29.35 29.55 30.55 27.95 M11.5 39.25 L8.85 39.3 8.55 39.0 8.5 39.0 8.5 38.0 Q9.6 37.9 10.7 37.05 10.5 38.0 11.2 38.9 L11.5 39.25 M1.45 34.85 L1.35 34.45 1.35 34.4 5.1 34.75 5.85 36.85 5.75 36.6 5.55 38.75 3.55 37.75 1.05 37.95 3.25 36.4 2.7 35.6 1.45 34.85 M10.6 17.8 Q9.95 16.5 10.55 15.5 11.1 14.5 12.1 14.45 13.25 14.4 12.9 15.05 12.15 16.3 12.25 16.75 11.7 17.05 11.2 17.4 L10.6 17.8 M26.2 7.1 Q27.0 5.05 29.05 4.25 28.7 5.8 26.2 7.1 M25.35 14.9 L25.8 14.85 Q28.1 14.7 30.0 15.6 21.05 15.6 11.8 21.8 L11.75 21.8 Q19.75 15.5 25.35 14.9 M8.1 36.9 L7.25 34.3 5.65 33.1 8.05 33.5 8.1 36.9 M24.15 30.1 Q23.35 27.4 17.7 28.8 25.5 24.75 24.15 30.1" fill="#d0a35e" fill-rule="evenodd" stroke="none"/>
    <path d="M7.45 20.6 L9.35 18.8 9.0 20.6 7.45 20.6 M26.2 4.4 L27.2 1.45 Q27.8 0.2 28.35 0.9 L28.15 1.6 26.2 4.4 M11.75 21.8 L9.35 23.15 16.7 16.55 17.5 17.05 18.8 15.45 25.35 14.9 Q19.75 15.5 11.75 21.8 M27.05 24.75 L28.15 24.55 28.45 25.7 27.05 26.15 27.05 24.75 M27.6 21.65 L31.1 20.95 32.15 23.45 31.15 25.35 29.2 25.15 28.45 24.2 25.9 24.7 24.85 24.0 27.6 21.65 M33.45 19.65 L34.25 20.15 33.85 20.5 33.35 20.4 33.45 19.65 M13.85 22.7 L15.35 22.75 16.6 24.75 13.15 25.85 10.75 25.3 13.85 22.7 M16.8 26.45 L16.55 27.5 15.4 26.75 15.75 26.25 16.8 26.45" fill="#f2e4d0" fill-rule="evenodd" stroke="none"/>
    <path d="M23.6 35.25 L23.5 35.8 Q23.0 37.25 21.25 38.5 L18.85 39.75 16.15 40.4 Q13.75 40.6 12.35 39.9 L12.25 39.75 Q9.85 36.9 14.3 33.2 L14.85 32.95 Q15.75 32.5 16.85 32.3 L20.9 32.15 Q22.5 32.55 23.25 33.55 L23.6 34.4 23.6 35.25 M0.5 26.9 Q0.65 25.7 1.3 24.45 L1.65 23.75 1.7 23.7 1.85 23.5 2.25 22.9 2.65 22.45 3.5 21.7 Q4.9 20.6 6.05 21.05 L6.65 21.45 Q4.15 24.3 2.7 27.95 1.7 29.5 0.5 26.9 M2.95 24.25 L2.55 23.6 3.6 23.35 2.55 23.6 2.95 24.25 M2.65 22.45 L2.75 22.55 2.65 22.45 M2.55 23.6 L2.25 22.9 2.55 23.6 1.65 23.75 2.55 23.6 M20.4 35.75 L19.4 36.6 18.75 35.45 19.4 36.6 20.4 35.75 M20.3 38.2 L19.4 36.6 18.4 37.45 19.4 36.6 20.3 38.2" fill="#bee0df" fill-rule="evenodd" stroke="none"/>
    <path d="M12.35 39.9 L12.15 39.75 11.5 39.25 11.2 38.9 Q10.5 38.0 10.7 37.05 10.9 35.95 12.05 34.8 13.0 33.8 14.3 33.2 9.85 36.9 12.25 39.75 L12.35 39.9 M1.85 30.35 L1.5 30.2 1.15 29.95 Q0.4 29.15 0.45 27.6 L0.5 26.9 Q1.7 29.5 2.7 27.95 2.2 29.1 1.85 30.35" fill="#4fa6a4" fill-rule="evenodd" stroke="none"/>
    <path d="M42.2 20.2 L42.9 21.75 Q41.95 23.0 39.2 23.1 L38.85 22.5 Q41.95 21.25 42.2 20.2 M34.6 27.45 L35.4 27.15 Q38.9 29.4 38.8 31.3 L35.9 31.85 Q35.8 30.05 34.6 27.45" fill="#b9483c" fill-rule="evenodd" stroke="none"/>
    <path d="M28.15 1.6 Q27.85 2.75 28.8 3.2 34.1 -1.75 40.8 0.95 L42.45 1.75 Q47.05 4.5 44.4 10.15 L44.25 10.75 43.55 12.15 42.45 13.7 42.35 13.8 40.1 16.2 Q38.85 17.7 38.0 19.4 L36.85 21.45 M31.25 29.65 Q31.35 30.45 32.0 31.2 34.7 29.15 34.75 30.9 35.0 32.3 33.0 32.95 L35.9 33.5 Q36.7 35.35 36.15 36.35 35.55 37.2 34.35 37.25 33.15 37.3 31.6 35.8 30.9 35.1 30.55 33.8 L30.55 33.75 Q30.35 33.15 29.75 32.9 25.4 34.35 23.6 35.25 L23.5 35.8 Q23.0 37.25 21.25 38.5 L18.85 39.75 16.15 40.4 Q13.75 40.6 12.35 39.9 L12.15 39.75 11.5 39.25 11.2 38.9 Q10.5 38.0 10.7 37.05 10.9 35.95 12.05 34.8 13.0 33.8 14.3 33.2 L14.85 32.95 Q15.75 32.5 16.85 32.3 L20.9 32.15 Q22.5 32.55 23.25 33.55 L23.6 34.4 23.6 35.25 M1.65 31.0 L1.85 30.35 1.5 30.2 1.15 29.95 Q0.4 29.15 0.45 27.6 L0.5 26.9 Q0.65 25.7 1.3 24.45 L1.65 23.75 1.7 23.7 1.85 23.5 2.25 22.9 2.65 22.45 3.5 21.7 Q4.9 20.6 6.05 21.05 L6.65 21.45 7.3 20.75 M7.45 20.6 L9.35 18.8 M9.7 18.55 Q10.1 18.15 10.6 17.8 9.95 16.5 10.55 15.5 11.1 14.5 12.1 14.45 13.25 14.4 12.9 15.05 12.15 16.3 12.25 16.75 19.65 12.25 30.4 13.9 L35.45 14.9 38.35 14.4 Q40.05 14.05 41.5 12.6 L41.9 12.15 42.35 11.65 43.4 10.15 Q46.0 5.6 41.45 2.55 40.15 1.65 38.8 1.3 M37.8 1.05 Q33.9 0.5 29.85 4.05 30.65 5.05 33.75 3.85 34.75 5.1 25.8 7.95 L24.35 8.4 25.4 6.8 26.2 4.4 27.2 1.45 Q27.8 0.2 28.35 0.9 L28.15 1.6 M10.6 17.8 L11.2 17.4 Q11.7 17.05 12.25 16.75 M1.85 30.35 Q2.2 29.1 2.7 27.95 4.15 24.3 6.65 21.45" ffdec:has-small-stroke="true" ffdec:original-stroke-width="0.05" fill="none" stroke="#517d46" stroke-linecap="round" stroke-linejoin="round" stroke-opacity="0.5019608" stroke-width="1.0"/>
    <path d="M8.5 39.05 L7.75 38.85 7.1 40.05 Q6.7 40.95 4.75 40.85 L0.55 39.3 Q-0.05 38.8 0.1 37.95 L1.8 36.0 1.45 34.85 M1.35 34.45 L1.3 34.45 1.05 34.35 1.0 34.35 0.45 34.25 Q-0.5 33.4 0.55 32.55 L1.6 32.35 1.85 31.0 1.65 31.0 M3.6 23.35 L2.55 23.6 2.95 24.25 M2.55 23.6 L1.65 23.75 M2.25 22.9 L2.55 23.6 M18.75 35.45 L19.4 36.6 20.4 35.75 M18.4 37.45 L19.4 36.6 20.3 38.2" ffdec:has-small-stroke="true" ffdec:original-stroke-width="0.05" fill="none" stroke="#517d46" stroke-linecap="round" stroke-linejoin="round" stroke-opacity="0.5019608" stroke-width="1.0"/>
  </g>
</svg>
