<?xml version="1.0" encoding="UTF-8" standalone="no"?>
<svg xmlns:ffdec="https://www.free-decompiler.com/flash" xmlns:xlink="http://www.w3.org/1999/xlink" ffdec:objectType="shape" height="44.0px" width="49.25px" xmlns="http://www.w3.org/2000/svg">
  <g transform="matrix(1.0, 0.0, 0.0, 1.0, 24.6, 21.65)">
    <path d="M1.8 -13.05 L2.3 -12.75 0.85 -12.9 -0.35 -11.8 Q2.0 -10.85 2.6 -8.55 L3.7 -10.4 2.55 -12.55 4.1 -11.25 4.15 -11.2 5.25 -10.0 3.55 -9.2 2.85 -7.05 4.8 -5.25 7.45 -4.6 8.3 -5.3 Q9.95 -1.9 11.05 1.9 L11.1 5.4 11.15 8.1 11.2 8.15 10.3 11.4 9.85 12.55 9.5 13.2 9.1 13.65 7.85 12.7 7.75 12.8 6.1 11.4 4.9 12.35 4.85 13.0 4.55 13.15 3.4 14.7 3.3 14.65 2.85 14.7 2.3 14.3 1.65 14.2 1.05 14.7 0.2 14.75 0.0 14.75 -0.05 14.75 -0.3 14.75 -2.8 14.85 -2.95 14.85 -3.0 14.85 -7.95 15.25 -8.1 14.85 -9.7 15.35 -11.0 14.85 Q-6.95 13.0 -0.1 12.9 L-0.25 12.8 -1.75 12.15 -1.85 12.05 -1.8 12.05 -2.0 12.0 -2.4 11.85 -4.35 11.35 -4.9 11.25 -5.1 11.2 -5.85 11.05 -6.75 10.95 -8.3 10.85 -9.25 10.85 -13.55 11.3 -14.45 11.45 -15.7 11.8 -17.2 12.3 Q-19.65 13.2 -22.1 14.8 -23.3 13.7 -23.9 12.1 -23.45 8.9 -22.6 6.05 -21.8 6.6 -20.05 7.0 L-19.15 6.1 -19.3 6.2 -19.2 6.0 -19.45 5.6 -22.45 5.55 -22.0 4.15 -21.85 3.7 -19.85 2.6 -21.0 1.55 -19.85 2.6 -21.85 3.7 -21.0 1.55 Q-17.75 -5.7 -11.6 -10.25 L-9.0 -9.5 Q-7.4 -8.05 -7.2 -6.15 -5.6 -6.8 -4.7 -7.95 -3.95 -9.05 -4.0 -10.65 -4.9 -12.05 -6.9 -12.7 L-7.25 -12.85 -7.4 -12.9 -5.25 -13.95 Q-3.2 -12.4 -3.0 -11.15 0.4 -11.65 -2.9 -14.9 L-3.25 -15.2 -2.55 -15.0 Q-0.2 -14.35 1.8 -13.05 M24.4 -1.4 L23.4 1.2 Q21.5 5.15 17.55 7.2 L14.1 8.55 13.15 8.35 Q14.9 -1.4 18.9 -6.25 15.15 -4.9 12.15 2.45 L11.65 0.3 Q12.15 -2.65 13.25 -4.9 L13.45 -5.3 Q15.0 -8.2 17.6 -9.85 L17.7 -9.9 17.85 -10.0 Q24.35 -7.95 24.4 -1.4 M12.85 8.6 L13.3 8.7 Q12.55 12.85 13.35 15.15 13.85 16.8 15.2 17.5 13.3 17.75 11.95 15.6 L12.1 15.05 Q12.85 11.9 12.85 8.6 M1.7 -7.35 L0.9 -9.55 -0.65 -8.85 -0.5 -7.95 -0.35 -7.9 1.7 -7.35 M0.0 4.25 Q1.35 6.05 3.3 6.1 7.0 4.0 2.35 0.55 4.05 0.0 5.0 -1.05 6.25 -3.65 3.2 -5.25 1.95 -5.9 0.55 -4.85 L0.6 -4.7 Q2.45 -2.55 -1.25 0.45 L0.35 0.4 0.95 0.7 Q1.7 1.35 1.9 2.4 2.05 3.4 0.45 4.2 L0.0 4.25 -0.6 4.25 Q-1.45 4.25 -2.15 3.25 -1.45 4.25 -0.6 4.25 L0.0 4.25 M14.45 5.7 L18.2 5.55 Q21.25 2.25 22.4 -2.0 19.1 3.05 14.45 5.7 M-2.55 -0.05 L-2.8 -2.1 Q-2.5 -5.25 0.6 -4.7 -2.5 -5.25 -2.8 -2.1 L-2.55 -0.05 -2.3 2.2 0.35 2.65 Q-1.2 2.05 -1.85 0.95 -1.7 -1.0 -0.9 -2.6 L-2.55 -0.05 M1.15 9.75 L1.15 8.85 -0.65 7.4 -1.8 9.3 1.15 9.75 M4.55 10.55 L6.7 9.9 6.15 6.95 3.25 7.45 4.55 10.55 M3.05 11.65 Q3.0 13.25 2.3 14.3 3.0 13.25 3.05 11.65 M-2.2 -8.4 L-4.45 -6.85 -3.2 -5.6 -0.25 -5.2 Q0.2 -7.3 -2.2 -8.4 M-11.45 -7.05 L-8.05 -2.5 Q-5.1 1.3 -7.25 8.55 -4.8 4.45 -4.85 1.4 -6.8 -5.0 -11.45 -7.05 M-0.05 13.85 Q0.3 13.2 -0.1 12.9 0.3 13.2 -0.05 13.85 M-17.55 3.15 L-17.55 3.2 -17.5 3.2 -17.55 3.15 M-10.4 4.0 Q-12.3 2.35 -15.8 2.4 L-12.65 -0.8 -15.8 2.4 Q-12.3 2.35 -10.4 4.0 M-12.85 9.9 Q-15.85 11.05 -19.4 11.25 -15.85 11.05 -12.85 9.9 M-10.85 7.0 Q-15.8 10.3 -22.7 9.85 -15.8 10.3 -10.85 7.0" fill="#7c7c3f" fill-rule="evenodd" stroke="none"/>
    <path d="M2.55 -12.55 L3.7 -10.4 2.6 -8.55 Q2.0 -10.85 -0.35 -11.8 L0.85 -12.9 2.3 -12.75 2.55 -12.55 M11.15 -1.4 Q11.8 -6.15 15.45 -9.25 L16.6 -10.15 16.8 -10.3 17.4 -10.7 17.75 -10.9 17.7 -9.9 17.6 -9.85 Q15.0 -8.2 13.45 -5.3 L13.25 -4.9 Q12.15 -2.65 11.65 0.3 L11.15 -1.4" fill="#72c29c" fill-rule="evenodd" stroke="none"/>
    <path d="M5.25 -10.0 L5.3 -10.05 Q7.4 -7.5 8.3 -5.35 L8.3 -5.3 7.45 -4.6 4.8 -5.25 2.85 -7.05 3.55 -9.2 5.25 -10.0" fill="#87bd77" fill-rule="evenodd" stroke="none"/>
    <path d="M11.05 1.9 Q10.9 0.15 11.15 -1.4 L11.65 0.3 11.4 1.95 Q11.25 3.35 11.25 4.9 L11.1 5.4 11.05 1.9 M1.7 -7.35 L-0.35 -7.9 -0.5 -7.95 -0.65 -8.85 0.9 -9.55 1.7 -7.35 M4.55 10.55 L3.25 7.45 6.15 6.95 6.7 9.9 4.55 10.55 M-7.25 -12.85 L-6.9 -12.7 Q-4.9 -12.05 -4.0 -10.65 -3.95 -9.05 -4.7 -7.95 -5.6 -6.8 -7.2 -6.15 -7.4 -8.05 -9.0 -9.5 L-11.6 -10.25 -9.25 -11.85 -7.25 -12.85" fill="#579146" fill-rule="evenodd" stroke="none"/>
    <path d="M7.75 12.8 L6.9 13.75 6.15 13.3 5.8 13.75 4.85 13.0 4.9 12.35 6.1 11.4 7.75 12.8 M1.05 14.7 L0.55 15.4 -0.05 14.75 -1.5 15.9 -2.95 14.9 -3.8 16.05 -4.45 16.0 -4.85 16.05 -5.2 16.05 -6.45 16.55 -7.3 16.8 -7.95 15.25 -9.6 15.4 -9.7 15.35 -8.1 14.85 -7.95 15.25 -3.0 14.85 -2.95 14.85 -2.8 14.85 -0.3 14.75 -0.05 14.75 0.0 14.75 0.2 14.75 1.05 14.7 M-11.0 14.85 L-11.5 14.15 Q-7.85 12.65 -1.9 12.05 L-1.85 12.05 -1.75 12.15 -0.25 12.8 -0.1 12.9 Q-6.95 13.0 -11.0 14.85 M0.55 -4.85 Q1.95 -5.9 3.2 -5.25 6.25 -3.65 5.0 -1.05 4.05 0.0 2.35 0.55 7.0 4.0 3.3 6.1 1.35 6.05 0.0 4.25 L0.45 4.2 Q2.05 3.4 1.9 2.4 1.7 1.35 0.95 0.7 L0.35 0.4 -1.25 0.45 Q2.45 -2.55 0.6 -4.7 L0.55 -4.85 M14.45 5.7 Q19.1 3.05 22.4 -2.0 21.25 2.25 18.2 5.55 L14.45 5.7 M-22.45 5.55 L-19.45 5.6 -19.2 6.0 -19.3 6.2 -19.15 6.1 -20.05 7.0 Q-21.8 6.6 -22.6 6.05 L-23.3 5.2 -22.45 5.55 M-2.9 -14.9 Q0.4 -11.65 -3.0 -11.15 -3.2 -12.4 -5.25 -13.95 L-2.9 -14.9 M0.0 14.75 L-0.05 14.75 0.0 14.75 M-3.0 14.85 L-2.95 14.9 -3.0 14.85" fill="#73733c" fill-rule="evenodd" stroke="none"/>
    <path d="M17.75 -10.9 L18.1 -11.0 19.45 -10.7 Q22.7 -10.0 24.05 -6.65 25.05 -4.2 24.4 -1.4 24.35 -7.95 17.85 -10.0 L17.7 -9.9 17.75 -10.9 M14.35 9.0 Q17.9 10.25 18.4 14.85 L18.45 15.7 18.45 15.75 Q18.45 17.15 17.95 18.2 L17.8 15.65 Q17.2 12.1 14.35 9.0 M-23.9 12.1 Q-25.2 8.85 -24.05 3.55 -22.9 -1.85 -20.2 -6.75 L-19.55 -7.85 -18.25 -8.65 -18.1 -9.85 Q-15.95 -12.5 -13.05 -14.0 -11.0 -15.05 -8.6 -15.55 L-7.9 -15.65 -5.25 -13.95 -7.4 -12.9 -8.85 -13.2 Q-11.3 -12.6 -12.2 -10.45 L-11.6 -10.25 Q-17.75 -5.7 -21.0 1.55 L-21.85 3.7 -22.0 4.15 -22.45 5.55 -23.3 5.2 -22.6 6.05 Q-23.45 8.9 -23.9 12.1 M-11.45 -13.05 L-11.8 -14.1 -13.0 -13.9 -13.6 -13.3 -13.95 -12.55 -12.45 -12.3 -11.45 -13.05 M-21.0 1.55 L-21.75 0.85 -21.0 1.55" fill="#b6c173" fill-rule="evenodd" stroke="none"/>
    <path d="M13.15 8.35 L13.05 8.35 12.85 8.35 Q12.8 5.45 12.15 2.45 L11.25 4.9 Q11.25 3.35 11.4 1.95 L11.65 0.3 12.15 2.45 Q15.15 -4.9 18.9 -6.25 14.9 -1.4 13.15 8.35 M11.2 8.15 L12.85 8.6 Q12.85 11.9 12.1 15.05 L11.95 15.6 11.6 15.0 Q10.85 13.6 10.3 11.4 L11.2 8.15 M13.3 8.7 L14.35 9.0 Q17.2 12.1 17.8 15.65 L17.95 18.2 Q17.15 19.7 15.2 20.5 13.95 21.05 12.9 20.05 L11.2 17.95 11.95 15.6 Q13.3 17.75 15.2 17.5 13.85 16.8 13.35 15.15 12.55 12.85 13.3 8.7 M-7.3 16.8 L-9.6 15.4 -7.95 15.25 -7.3 16.8 M-2.0 12.0 Q-11.45 10.2 -18.6 14.9 -19.45 16.05 -20.6 15.9 -21.45 15.45 -22.1 14.8 -19.65 13.2 -17.2 12.3 L-15.7 11.8 -14.45 11.45 -13.55 11.3 -9.25 10.85 -8.3 10.85 -6.75 10.95 -5.85 11.05 -5.1 11.2 -4.9 11.25 -4.35 11.35 -2.4 11.85 -2.0 12.0 M-2.55 -0.05 L-0.9 -2.6 Q-1.7 -1.0 -1.85 0.95 -1.2 2.05 0.35 2.65 L-2.3 2.2 -2.55 -0.05 M-11.45 -7.05 Q-6.8 -5.0 -4.85 1.4 -4.8 4.45 -7.25 8.55 -5.1 1.3 -8.05 -2.5 L-11.45 -7.05 M-1.75 12.15 L-0.25 12.8 -1.75 12.15" fill="#676736" fill-rule="evenodd" stroke="none"/>
    <path d="M12.85 8.35 L12.6 8.3 11.2 8.15 11.15 8.1 11.1 5.4 11.25 4.9 12.15 2.45 Q12.8 5.45 12.85 8.35 M11.2 17.95 L10.35 16.4 9.85 14.9 9.6 14.0 9.5 13.2 9.85 12.55 10.3 11.4 Q10.85 13.6 11.6 15.0 L11.95 15.6 11.2 17.95" fill="#56562e" fill-rule="evenodd" stroke="none"/>
    <path d="M1.15 9.75 L-1.8 9.3 -0.65 7.4 1.15 8.85 1.15 9.75 M-7.4 -12.9 L-7.25 -12.85 -9.25 -11.85 -11.6 -10.25 -12.2 -10.45 Q-11.3 -12.6 -8.85 -13.2 L-7.4 -12.9 M-2.2 -8.4 Q0.2 -7.3 -0.25 -5.2 L-3.2 -5.6 -4.45 -6.85 -2.2 -8.4" fill="#64a851" fill-rule="evenodd" stroke="none"/>
    <path d="M6.2 17.95 L7.0 17.65 Q10.5 19.9 10.4 21.8 L7.5 22.35 Q7.4 20.55 6.2 17.95 M-10.9 22.3 L-11.95 21.0 Q-11.35 19.55 -8.65 18.8 L-8.2 19.3 Q-10.9 21.2 -10.9 22.3" fill="#d98200" fill-rule="evenodd" stroke="none"/>
    <path d="M-8.55 -15.9 Q-8.25 -20.2 -5.05 -21.65 L-4.9 -20.85 Q-4.6 -17.45 -7.1 -15.75 L-7.9 -15.65 -8.55 -15.9" fill="#58582c" fill-rule="evenodd" stroke="none"/>
    <path d="M-8.6 -15.55 L-8.55 -15.9 -7.9 -15.65 -8.6 -15.55" fill="#666633" fill-rule="evenodd" stroke="none"/>
    <path d="M-7.1 -15.75 L-3.25 -15.2 -2.9 -14.9 -5.25 -13.95 -7.9 -15.65 -7.1 -15.75" fill="#9caa4a" fill-rule="evenodd" stroke="none"/>
    <path d="M-11.45 -13.05 L-12.45 -12.3 -13.95 -12.55 -13.6 -13.3 -13.0 -13.9 -11.8 -14.1 -11.45 -13.05" fill="#9ad3b8" fill-rule="evenodd" stroke="none"/>
    <path d="M1.8 -13.05 L2.3 -12.75 2.55 -12.55 4.1 -11.25 M5.3 -10.05 Q7.4 -7.5 8.3 -5.35 M8.3 -5.3 Q9.95 -1.9 11.05 1.9 10.9 0.15 11.15 -1.4 11.8 -6.15 15.45 -9.25 L16.6 -10.15 M16.8 -10.3 L17.4 -10.7 17.75 -10.9 18.1 -11.0 19.45 -10.7 Q22.7 -10.0 24.05 -6.65 25.05 -4.2 24.4 -1.4 L23.4 1.2 Q21.5 5.15 17.55 7.2 L14.1 8.55 13.15 8.35 M12.6 8.3 L11.2 8.15 11.15 8.1 11.2 8.15 12.85 8.6 13.3 8.7 14.35 9.0 Q17.9 10.25 18.4 14.85 L18.45 15.7 M18.45 15.75 Q18.45 17.15 17.95 18.2 17.15 19.7 15.2 20.5 13.95 21.05 12.9 20.05 L11.2 17.95 10.35 16.4 9.85 14.9 9.6 14.0 9.5 13.2 9.1 13.65 M-3.8 16.05 L-4.45 16.0 M-4.85 16.05 L-5.2 16.05 -6.45 16.55 -7.3 16.8 M-1.8 12.05 L-2.0 12.0 Q-11.45 10.2 -18.6 14.9 -19.45 16.05 -20.6 15.9 -21.45 15.45 -22.1 14.8 -23.3 13.7 -23.9 12.1 -25.2 8.85 -24.05 3.55 -22.9 -1.85 -20.2 -6.75 L-19.55 -7.85 -18.25 -8.65 -18.1 -9.85 Q-15.95 -12.5 -13.05 -14.0 -11.0 -15.05 -8.6 -15.55 L-8.55 -15.9 Q-8.25 -20.2 -5.05 -21.65 L-4.9 -20.85 Q-4.6 -17.45 -7.1 -15.75 L-3.25 -15.2 -2.55 -15.0 Q-0.2 -14.35 1.8 -13.05 M4.15 -11.2 L5.25 -10.0 M0.0 4.25 L-0.6 4.25 Q-1.45 4.25 -2.15 3.25 M0.6 -4.7 L0.55 -4.85 M11.05 1.9 L11.1 5.4 11.15 8.1 M11.2 8.15 L10.3 11.4 9.85 12.55 9.5 13.2 M0.0 4.25 L0.45 4.2 Q2.05 3.4 1.9 2.4 1.7 1.35 0.95 0.7 L0.35 0.4 -1.25 0.45 Q2.45 -2.55 0.6 -4.7 -2.5 -5.25 -2.8 -2.1 L-2.55 -0.05 M2.3 14.3 Q3.0 13.25 3.05 11.65 M-7.9 -15.65 L-8.55 -15.9 M-8.6 -15.55 L-7.9 -15.65 -7.1 -15.75 M-1.85 12.05 L-1.75 12.15 -0.25 12.8 -0.1 12.9 Q0.3 13.2 -0.05 13.85" ffdec:has-small-stroke="true" ffdec:original-stroke-width="0.05" fill="none" stroke="#663232" stroke-linecap="round" stroke-linejoin="round" stroke-opacity="0.43137255" stroke-width="1.0"/>
    <path d="M2.3 -12.75 L2.45 -12.7 1.8 -13.05 M2.55 -12.55 L2.45 -12.7 M4.1 -11.25 L4.15 -11.2" ffdec:has-small-stroke="true" ffdec:original-stroke-width="0.05" fill="none" stroke="#58582c" stroke-linecap="round" stroke-linejoin="round" stroke-width="1.0"/>
    <path d="M9.1 13.65 L7.85 12.7 7.75 12.8 6.9 13.75 6.15 13.3 5.8 13.75 4.85 13.0 4.55 13.15 3.4 14.7 M3.3 14.65 L2.85 14.7 M2.3 14.3 L1.65 14.2 1.05 14.7 0.55 15.4 -0.05 14.75 -1.5 15.9 M-0.05 14.75 L0.0 14.75" ffdec:has-small-stroke="true" ffdec:original-stroke-width="0.05" fill="none" stroke="#58582c" stroke-linecap="round" stroke-linejoin="round" stroke-width="1.0"/>
    <path d="M-11.5 14.15 Q-7.85 12.65 -1.9 12.05 L-1.85 12.05 -1.8 12.05" ffdec:has-small-stroke="true" ffdec:original-stroke-width="0.05" fill="none" stroke="#7c7c3f" stroke-linecap="round" stroke-linejoin="round" stroke-width="1.0"/>
    <path d="M-21.0 1.55 L-19.85 2.6 -21.85 3.7 -22.0 4.15 M-12.65 -0.8 L-15.8 2.4 Q-12.3 2.35 -10.4 4.0 M-21.75 0.85 L-21.0 1.55" fill="none" stroke="#58582c" stroke-linecap="round" stroke-linejoin="round" stroke-width="1.0"/>
    <path d="M-19.4 11.25 Q-15.85 11.05 -12.85 9.9 M-22.7 9.85 Q-15.8 10.3 -10.85 7.0" fill="none" stroke="#73733c" stroke-linecap="round" stroke-linejoin="round" stroke-width="1.0"/>
    <path d="M-2.95 14.9 L-3.0 14.85" ffdec:has-small-stroke="true" ffdec:original-stroke-width="0.05" fill="none" stroke="#66ff00" stroke-linecap="round" stroke-linejoin="round" stroke-width="1.0"/>
    <path d="M-2.6 -10.25 L2.2 -11.0 3.2 -19.35 3.9 -10.95 9.6 -10.2 3.65 -9.8 3.1 0.3 2.35 -9.2 -2.6 -10.25" fill="#ffffff" fill-rule="evenodd" stroke="none"/>
  </g>
</svg>
