<?xml version="1.0" encoding="UTF-8" standalone="no"?>
<svg xmlns:ffdec="https://www.free-decompiler.com/flash" xmlns:xlink="http://www.w3.org/1999/xlink" ffdec:objectType="shape" height="369.9px" width="152.35px" xmlns="http://www.w3.org/2000/svg">
  <g transform="matrix(1.0, 0.0, 0.0, 1.0, -110.0, -34.8)">
    <path d="M135.05 90.05 L132.05 146.05" fill="none" stroke="#000000" stroke-linecap="round" stroke-linejoin="round" stroke-width="1.0"/>
    <path d="M174.6 36.05 Q186.0 40.75 194.7 61.1 L195.35 62.45 195.95 63.85 197.3 67.4 197.9 68.8 Q194.3 67.15 191.55 81.2 L196.35 87.4 189.95 83.25 Q172.5 106.6 152.8 87.15 L149.55 83.65 Q156.55 88.5 163.35 89.95 169.45 91.25 175.4 89.9 182.5 88.35 189.4 83.0 L184.15 79.65 Q198.75 77.4 189.65 61.1 183.95 47.15 174.6 36.05 M203.05 86.25 Q206.05 98.6 207.75 112.35 L207.8 113.5 207.85 114.05 208.6 123.0 209.2 129.7 Q209.6 138.05 209.55 146.8 L209.6 147.95 209.35 154.15 209.3 163.65 208.05 183.1 207.45 192.4 206.55 202.85 206.0 208.2 204.0 229.1 202.45 242.4 198.4 272.65 197.2 281.95 197.0 282.8 195.15 290.75 195.15 291.05 Q194.95 293.95 194.05 296.7 192.75 300.15 190.45 303.35 L186.25 308.35 183.1 307.65 190.95 296.9 Q190.95 286.85 193.2 275.15 L191.35 272.15 173.6 238.55 177.7 219.5 178.4 217.2 180.85 210.35 Q189.1 200.15 186.75 188.7 L188.85 180.75 Q195.65 170.55 195.4 155.7 L190.55 148.35 186.85 142.1 Q180.3 123.2 172.9 111.95 186.25 101.45 194.55 90.0 L183.8 105.75 184.5 108.0 Q179.15 124.1 192.75 137.3 L189.45 144.2 Q202.45 139.75 204.2 135.85 207.75 145.0 207.2 112.1 L207.75 112.35 207.2 112.1 Q196.35 102.7 191.3 103.4 203.25 101.3 203.05 86.25 M189.4 83.0 L189.95 83.25 189.4 83.0 M186.25 222.7 L185.35 226.4 Q191.75 233.6 200.85 233.2 200.5 225.35 201.7 217.15 202.75 208.8 205.3 200.1 L194.0 188.35 192.65 194.0 Q185.3 209.25 186.25 222.7 M195.85 180.35 L194.2 186.95 Q197.35 187.85 202.1 187.05 197.75 177.9 205.95 175.1 L202.7 150.25 201.3 155.95 Q193.15 168.4 195.85 180.35 M156.95 74.85 L149.1 75.3 Q152.75 72.8 154.1 68.25 154.7 71.75 156.95 74.85 M171.25 297.15 L173.2 300.35 172.4 300.65 171.25 297.15 M206.55 202.85 L205.3 200.1 206.55 202.85 M179.45 226.7 L180.15 240.15 Q182.55 257.9 192.05 269.3 L193.65 273.15 Q194.7 268.05 196.2 262.65 L196.5 262.6 196.65 260.35 185.35 226.4 179.45 226.7" fill="#999999" fill-rule="evenodd" stroke="none"/>
    <path d="M137.45 83.4 L137.7 82.65 137.7 82.6 Q139.0 78.3 140.65 74.3 L140.9 74.3 140.9 74.0 141.9 71.75 144.65 65.4 145.4 63.65 Q155.5 42.1 162.8 36.35 162.2 40.05 162.6 43.1 152.75 50.75 137.85 84.4 L135.55 89.75 136.5 86.3 137.0 84.9 137.45 83.4 M209.3 163.65 Q210.75 170.0 212.45 175.6 L212.75 176.15 Q217.9 191.6 225.55 200.45 L221.45 208.55 Q218.7 214.55 217.0 220.0 L216.25 222.0 215.95 221.15 Q210.95 206.9 206.55 202.85 L207.45 192.4 Q212.5 194.75 221.45 208.55 L208.05 183.1 209.3 163.65 M215.15 227.4 Q214.05 232.05 213.9 236.15 211.4 232.4 209.4 230.5 205.85 226.75 204.0 229.1 L206.0 208.2 Q211.05 209.4 215.15 227.4 M197.45 283.0 L197.55 283.05 Q206.6 288.75 215.05 295.35 242.3 316.6 262.35 347.1 240.7 334.7 218.75 329.4 L218.2 329.15 Q212.1 327.75 206.0 327.0 L189.65 325.6 188.9 328.0 181.45 327.05 181.25 326.3 180.75 326.4 174.6 307.35 177.9 305.15 Q180.0 306.5 182.55 307.4 L183.1 307.65 186.25 308.35 190.45 303.35 Q208.6 307.15 224.3 317.3 L225.2 317.85 Q234.05 323.55 242.15 331.3 222.75 307.5 195.15 291.05 L195.15 290.75 197.0 282.8 197.45 283.0 M145.85 345.7 Q139.4 352.55 134.5 361.6 L135.9 356.2 136.15 355.05 137.85 349.9 Q140.8 340.0 144.4 330.75 145.1 328.95 146.55 326.15 145.15 331.05 145.15 337.4 145.15 341.9 145.85 345.7 M150.6 318.65 Q156.7 307.8 168.25 289.25 165.2 311.45 159.0 320.3 L157.65 322.1 Q155.6 317.85 152.85 317.85 151.65 317.85 150.6 318.65 M152.85 280.5 Q150.25 281.0 147.8 282.0 136.35 286.9 127.8 302.7 L129.5 292.2 130.45 288.25 Q134.4 269.0 141.5 252.55 144.5 245.5 148.1 239.05 L148.1 239.0 Q153.9 247.9 150.1 254.9 L149.95 255.1 130.45 288.25 139.15 277.95 Q148.0 269.2 152.05 273.55 153.9 275.5 154.75 280.25 L152.85 280.5 M130.95 191.35 Q129.85 191.9 128.8 192.55 122.55 196.45 119.05 204.6 121.6 193.4 126.35 182.85 127.85 179.5 129.65 176.25 L130.25 175.05 130.95 191.35 M183.85 63.65 Q182.85 64.6 181.4 64.6 180.05 64.75 179.1 63.9 178.0 62.9 177.85 61.45 177.85 60.1 178.85 59.1 179.7 58.0 181.05 57.9 182.5 57.9 183.65 58.9 184.55 59.75 184.6 61.1 184.7 62.55 183.85 63.65 M143.4 111.5 Q147.2 108.05 152.9 104.55 L151.15 114.45 Q144.75 115.6 140.75 119.45 L142.95 111.95 143.4 111.5 M150.1 121.25 L149.25 132.25 Q141.85 133.95 138.2 137.55 L137.05 132.0 139.3 124.35 Q144.15 120.45 150.1 121.25 M148.95 137.35 Q148.65 143.15 148.7 148.85 144.45 150.95 141.8 154.5 L138.45 138.7 Q142.15 136.05 148.95 137.35 M149.25 164.0 Q146.55 165.1 144.5 167.35 L143.5 162.75 Q146.8 161.1 149.25 164.0 M217.0 220.0 L215.95 221.15 217.0 220.0" fill="#333333" fill-rule="evenodd" stroke="none"/>
    <path d="M201.65 81.25 L203.05 86.25 Q203.25 101.3 191.3 103.4 196.35 102.7 207.2 112.1 207.75 145.0 204.2 135.85 202.45 139.75 189.45 144.2 L192.75 137.3 Q196.65 133.75 200.5 129.3 207.0 117.6 199.6 111.95 191.95 108.75 184.5 108.0 L183.8 105.75 Q190.2 102.3 195.9 94.45 202.1 95.5 201.65 81.25 M186.85 142.1 L190.55 148.35 Q184.3 146.85 175.65 148.6 181.3 146.15 186.85 142.1 M188.85 180.75 L186.75 188.7 Q178.7 182.1 168.15 176.75 177.15 180.65 188.85 180.75 M178.4 217.2 L177.7 219.5 Q170.4 211.6 159.8 210.9 168.35 210.9 178.4 217.2 M191.35 272.15 L193.2 275.15 Q190.95 286.85 190.95 296.9 L183.1 307.65 182.55 307.4 182.8 307.15 184.65 305.35 Q189.2 298.5 191.1 273.0 L191.35 272.15 M192.65 194.0 L194.0 188.35 205.3 200.1 Q202.75 208.8 201.7 217.15 200.5 225.35 200.85 233.2 191.75 233.6 185.35 226.4 L186.25 222.7 192.45 228.0 Q200.2 227.45 201.4 217.15 202.05 211.7 201.0 203.7 197.35 198.55 192.65 194.0 M201.3 155.95 L202.7 150.25 205.95 175.1 Q197.75 177.9 202.1 187.05 197.35 187.85 194.2 186.95 L195.85 180.35 197.25 180.3 Q206.45 169.3 201.3 155.95 M151.15 114.45 Q150.55 117.9 150.1 121.25 144.15 120.45 139.3 124.35 L140.75 119.45 Q144.75 115.6 151.15 114.45 M149.25 132.25 L148.95 137.35 Q142.15 136.05 138.45 138.7 L136.75 140.3 Q135.4 142.0 134.75 144.55 135.1 141.65 136.65 139.4 137.3 138.4 138.2 137.55 141.85 133.95 149.25 132.25 M148.7 148.85 Q148.8 156.55 149.5 163.95 L149.25 164.0 Q146.8 161.1 143.5 162.75 L141.8 154.5 Q144.45 150.95 148.7 148.85 M151.05 264.8 Q149.55 265.75 147.9 267.4 L139.15 277.95 130.45 288.25 149.95 255.1 151.05 264.8 M192.05 269.3 Q192.9 260.95 189.75 246.4 187.65 236.45 179.45 226.7 L185.35 226.4 196.65 260.35 196.5 262.6 196.2 262.65 Q194.7 268.05 193.65 273.15 L192.05 269.3" fill="#ffffff" fill-rule="evenodd" stroke="none"/>
    <path d="M197.9 68.8 Q199.95 74.8 201.65 81.25 202.1 95.5 195.9 94.45 190.2 102.3 183.8 105.75 L194.55 90.0 Q186.25 101.45 172.9 111.95 180.3 123.2 186.85 142.1 181.3 146.15 175.65 148.6 184.3 146.85 190.55 148.35 L195.4 155.7 Q195.65 170.55 188.85 180.75 177.15 180.65 168.15 176.75 178.7 182.1 186.75 188.7 189.1 200.15 180.85 210.35 L178.4 217.2 Q168.35 210.9 159.8 210.9 170.4 211.6 177.7 219.5 L173.6 238.55 191.35 272.15 191.1 273.0 Q189.2 298.5 184.65 305.35 L182.8 307.15 182.55 307.4 Q180.0 306.5 177.9 305.15 175.2 303.15 173.2 300.35 L171.25 297.15 170.05 294.3 Q169.0 291.95 168.25 289.25 L172.55 290.0 Q164.35 271.55 166.05 253.1 153.95 241.5 151.25 211.05 L151.05 208.55 151.05 198.55 Q145.5 189.35 144.65 175.55 144.35 171.6 144.5 167.35 146.55 165.1 149.25 164.0 L149.5 163.95 Q148.8 156.55 148.7 148.85 148.65 143.15 148.95 137.35 L149.25 132.25 150.1 121.25 Q150.55 117.9 151.15 114.45 L152.9 104.55 Q147.2 108.05 143.4 111.5 L143.35 110.65 145.55 103.0 144.55 100.55 144.65 100.2 144.65 100.1 Q146.95 93.45 152.8 87.15 172.5 106.6 189.95 83.25 L196.35 87.4 191.55 81.2 Q194.3 67.15 197.9 68.8 M165.7 280.8 L165.25 280.7 163.4 280.35 165.45 280.15 165.5 280.25 165.7 280.8 M192.75 137.3 Q179.15 124.1 184.5 108.0 191.95 108.75 199.6 111.95 207.0 117.6 200.5 129.3 196.65 133.75 192.75 137.3 M194.05 296.7 Q194.95 293.95 195.15 291.05 222.75 307.5 242.15 331.3 234.05 323.55 225.2 317.85 L224.3 317.3 211.1 306.5 211.1 306.2 Q205.15 298.75 194.3 296.7 L194.05 296.7 M192.65 194.0 Q197.35 198.55 201.0 203.7 202.05 211.7 201.4 217.15 200.2 227.45 192.45 228.0 L186.25 222.7 Q185.3 209.25 192.65 194.0 M139.15 277.95 L147.9 267.4 Q149.55 265.75 151.05 264.8 160.5 268.15 152.05 273.55 148.0 269.2 139.15 277.95 M192.05 269.3 Q182.55 257.9 180.15 240.15 L179.45 226.7 Q187.65 236.45 189.75 246.4 192.9 260.95 192.05 269.3" fill="#cccc99" fill-rule="evenodd" stroke="none"/>
    <path d="M162.6 43.1 Q163.4 49.85 168.5 53.75 175.95 42.75 171.15 34.8 L174.3 35.8 174.6 36.05 Q183.95 47.15 189.65 61.1 198.75 77.4 184.15 79.65 L189.4 83.0 Q182.5 88.35 175.4 89.9 L156.95 74.85 Q164.35 82.85 163.35 89.95 156.55 88.5 149.55 83.65 L152.8 87.15 Q146.95 93.45 144.65 100.1 145.5 97.45 145.35 95.15 L145.3 94.55 Q144.7 88.55 137.85 84.4 152.75 50.75 162.6 43.1 M183.85 63.65 Q184.7 62.55 184.6 61.1 184.55 59.75 183.65 58.9 182.5 57.9 181.05 57.9 179.7 58.0 178.85 59.1 177.85 60.1 177.85 61.45 178.0 62.9 179.1 63.9 180.05 64.75 181.4 64.6 182.85 64.6 183.85 63.65 M156.95 74.85 Q154.7 71.75 154.1 68.25 152.75 72.8 149.1 75.3 L156.95 74.85 M143.35 110.65 L143.4 111.5 142.95 111.95 143.35 110.65 M167.15 284.45 L167.7 286.6 167.1 284.85 165.7 280.8 165.5 280.25 165.45 280.15 165.55 280.15 166.05 280.35 167.15 284.45 M136.6 168.85 L137.4 168.55 Q137.2 171.05 137.4 173.9 L136.6 168.85" fill="#666666" fill-rule="evenodd" stroke="none"/>
    <path d="M207.75 112.35 L208.05 112.35 207.8 113.5 207.75 112.35" fill="#ffff33" fill-rule="evenodd" stroke="none"/>
    <path d="M175.4 89.9 Q169.45 91.25 163.35 89.95 164.35 82.85 156.95 74.85 L175.4 89.9 M201.3 155.95 Q206.45 169.3 197.25 180.3 L195.85 180.35 Q193.15 168.4 201.3 155.95" fill="#cccccc" fill-rule="evenodd" stroke="none"/>
    <path d="M204.0 350.1 L203.85 350.3 204.95 350.9 204.75 351.15 203.85 350.3 203.8 350.25 204.0 350.1 M224.3 384.85 L225.05 385.1 224.8 385.4 224.3 384.85 M168.25 289.25 L162.05 294.3 Q164.85 289.15 165.25 280.75 L165.7 280.8 167.1 284.85 167.7 286.6 167.7 286.85 168.25 289.25 M135.7 125.45 L135.85 123.15 Q136.4 120.35 138.25 117.5 L135.7 125.45 M136.65 139.4 Q135.1 141.65 134.75 144.55 135.4 142.0 136.75 140.3 L140.2 165.2 140.15 165.25 142.3 170.3 Q139.95 174.2 138.85 180.25 L137.4 173.9 Q137.2 171.05 137.4 168.55 L136.6 168.85 Q134.8 157.25 134.75 144.55 134.8 137.5 135.4 130.2 L136.65 139.4 M137.4 168.55 Q138.8 166.6 140.15 165.25 138.8 166.6 137.4 168.55 M165.55 280.15 L166.0 280.05 166.05 280.35 165.55 280.15" fill="#ff9999" fill-rule="evenodd" stroke="none"/>
    <path d="M122.7 404.7 Q116.45 404.6 114.0 401.95 L122.7 404.7 M163.4 280.35 Q160.0 281.4 153.55 286.6 L152.85 280.5 154.75 280.25 Q158.9 279.7 163.4 280.35 M148.3 238.65 L148.15 238.55 148.3 238.65 M144.65 100.1 L144.65 100.2 144.55 100.55 145.55 103.0 143.35 110.65 142.95 111.95 140.75 119.45 Q137.25 122.8 135.6 128.2 137.35 125.9 139.3 124.35 137.35 125.9 135.6 128.2 137.25 122.8 140.75 119.45 L139.3 124.35 137.05 132.0 138.2 137.55 Q137.3 138.4 136.65 139.4 L135.4 130.2 135.6 128.2 135.7 125.45 138.25 117.5 145.35 95.15 Q145.5 97.45 144.65 100.1 M144.5 167.35 Q144.35 171.6 144.65 175.55 L143.75 175.7 143.6 173.25 142.3 170.3 143.3 168.8 144.5 167.35 143.3 168.8 142.3 170.3 140.15 165.25 140.2 165.2 136.75 140.3 138.45 138.7 141.8 154.5 143.5 162.75 144.5 167.35 M142.95 111.95 Q140.0 114.75 138.25 117.5 140.0 114.75 142.95 111.95 M166.0 280.0 L166.05 280.35 166.0 280.05 166.0 280.0 M143.5 162.75 Q141.95 163.45 140.2 165.2 141.95 163.45 143.5 162.75" fill="#996666" fill-rule="evenodd" stroke="none"/>
    <path d="M165.45 280.15 L166.0 280.0 166.0 280.05 165.55 280.15 165.45 280.15" fill="#ff0000" fill-rule="evenodd" stroke="none"/>
    <path d="M224.8 385.4 L222.6 387.6 Q212.95 395.7 197.05 385.1 L193.85 387.5 189.45 379.4 Q185.15 371.1 179.7 369.0 176.45 363.3 182.05 356.1 150.5 363.05 157.65 322.1 147.8 328.0 145.85 345.7 145.15 341.9 145.15 337.4 145.15 331.05 146.55 326.15 L147.4 323.55 Q148.8 320.0 150.6 318.65 151.65 317.85 152.85 317.85 155.6 317.85 157.65 322.1 L159.0 320.3 Q165.2 311.45 168.25 289.25 169.0 291.95 170.05 294.3 L171.25 297.15 172.4 300.65 174.6 307.35 180.75 326.4 178.0 327.05 179.55 327.0 180.95 327.05 181.45 327.05 203.8 350.25 203.85 350.3 204.75 351.15 Q193.0 374.65 224.3 384.85 L224.8 385.4 M169.6 369.9 Q167.25 371.05 164.75 373.05 150.5 363.35 139.45 371.4 L139.4 369.95 Q139.4 365.35 141.7 361.35 144.0 357.3 148.7 353.9 148.0 352.75 147.4 351.2 146.4 348.7 145.85 345.7 157.7 363.1 169.6 369.9 M155.65 382.3 Q136.9 403.45 127.35 404.45 L122.7 404.7 114.0 401.95 Q110.0 397.65 110.0 392.55 110.0 391.85 121.7 377.4 L123.35 376.6 Q127.85 374.35 133.0 372.9 135.95 381.6 155.65 382.3 M130.25 175.05 L130.05 170.05 Q129.1 158.3 123.05 155.05 127.9 128.55 120.05 92.5 131.2 91.1 136.85 82.35 L137.45 83.4 137.0 84.9 136.5 86.3 135.55 89.75 Q133.9 95.95 132.85 102.8 128.2 126.7 129.4 144.8 130.75 162.85 133.0 170.2 L130.25 175.05" fill="#660000" fill-rule="evenodd" stroke="none"/>
    <path d="M188.9 328.0 Q194.1 329.2 198.3 331.85 206.05 336.7 206.05 343.55 206.05 347.1 204.0 350.1 L203.8 350.25 181.45 327.05 188.9 328.0 M204.95 350.9 Q206.2 351.55 207.4 352.3 212.35 355.4 215.2 359.05 L224.05 366.05 Q236.7 372.85 249.4 372.8 230.0 378.95 224.55 384.6 L224.3 384.85 Q193.0 374.65 204.75 351.15 L204.95 350.9 M222.6 387.6 Q220.55 394.2 238.55 400.1 217.2 406.3 202.2 390.4 L201.0 390.95 201.1 392.55 Q201.1 399.9 193.85 387.5 L197.05 385.1 Q212.95 395.7 222.6 387.6 M179.7 369.0 Q175.05 367.2 169.6 369.9 157.7 363.1 145.85 345.7 147.8 328.0 157.65 322.1 150.5 363.05 182.05 356.1 176.45 363.3 179.7 369.0 M164.75 373.05 Q161.3 375.8 157.55 380.1 L155.65 382.3 Q135.95 381.6 133.0 372.9 136.1 372.0 139.45 371.4 150.5 363.35 164.75 373.05 M148.1 239.0 L148.25 238.7 148.3 238.65 148.15 238.55 Q143.1 223.3 132.4 217.45 139.1 205.35 130.95 191.35 L130.25 175.05 133.0 170.2 Q130.75 162.85 129.4 144.8 128.2 126.7 132.85 102.8 133.9 95.95 135.55 89.75 L137.85 84.4 Q144.7 88.55 145.3 94.55 L145.35 95.15 138.25 117.5 Q136.4 120.35 135.85 123.15 L135.7 125.45 135.6 128.2 135.4 130.2 Q134.8 137.5 134.75 144.55 134.8 157.25 136.6 168.85 L137.4 173.9 138.85 180.25 Q139.95 174.2 142.3 170.3 L143.6 173.25 143.75 175.7 144.65 175.55 Q145.5 189.35 151.05 198.55 L151.05 208.55 151.25 211.05 Q153.95 241.5 166.05 253.1 164.35 271.55 172.55 290.0 L168.25 289.25 167.7 286.85 167.7 286.6 167.15 284.45 Q167.5 281.15 166.05 280.35 L166.0 280.0 165.45 280.15 162.75 273.35 160.8 267.55 156.55 256.55 153.65 248.85 149.35 236.7 Q142.75 217.25 138.4 199.1 L136.55 189.65 Q134.4 179.7 133.0 170.2 134.4 179.7 136.55 189.65 L138.4 199.1 Q142.75 217.25 149.35 236.7 L153.65 248.85 156.55 256.55 160.8 267.55 162.75 273.35 165.45 280.15 163.4 280.35 Q158.9 279.7 154.75 280.25 153.9 275.5 152.05 273.55 160.5 268.15 151.05 264.8 L149.95 255.1 150.1 254.9 Q153.9 247.9 148.1 239.0 M133.2 190.4 L136.55 189.65 133.2 190.4 M132.35 190.7 L130.95 191.35 132.35 190.7 M149.35 236.7 L148.3 238.65 149.35 236.7" fill="#ff6699" fill-rule="evenodd" stroke="none"/>
    <path d="M137.45 83.4 L137.7 82.65 137.7 82.6 Q139.0 78.3 140.65 74.3 L140.9 74.3 140.9 74.0 141.9 71.75 144.65 65.4 145.4 63.65 Q155.5 42.1 162.8 36.35 162.2 40.05 162.6 43.1 163.4 49.85 168.5 53.75 175.95 42.75 171.15 34.8 L174.3 35.8 174.6 36.05 Q186.0 40.75 194.7 61.1 L195.35 62.45 195.95 63.85 197.3 67.4 197.9 68.8 Q199.95 74.8 201.65 81.25 L203.05 86.25 Q206.05 98.6 207.75 112.35 L207.2 112.1 M207.8 113.5 L207.85 114.05 208.6 123.0 209.2 129.7 Q209.6 138.05 209.55 146.8 L209.6 147.95 209.35 154.15 209.3 163.65 Q210.75 170.0 212.45 175.6 L212.75 176.15 Q217.9 191.6 225.55 200.45 L221.45 208.55 Q218.7 214.55 217.0 220.0 L216.25 222.0 Q215.55 224.75 215.15 227.4 214.05 232.05 213.9 236.15 211.4 232.4 209.4 230.5 205.85 226.75 204.0 229.1 L202.45 242.4 198.4 272.65 197.2 281.95 197.45 283.0 197.55 283.05 Q206.6 288.75 215.05 295.35 242.3 316.6 262.35 347.1 240.7 334.7 218.75 329.4 L218.2 329.15 Q212.1 327.75 206.0 327.0 L189.65 325.6 188.9 328.0 M150.6 318.65 Q156.7 307.8 168.25 289.25 169.0 291.95 170.05 294.3 L171.25 297.15 173.2 300.35 Q175.2 303.15 177.9 305.15 180.0 306.5 182.55 307.4 L183.1 307.65 186.25 308.35 190.45 303.35 Q192.75 300.15 194.05 296.7 194.95 293.95 195.15 291.05 L195.15 290.75 197.0 282.8 197.2 281.95 M165.7 280.8 L165.25 280.7 163.4 280.35 Q158.9 279.7 154.75 280.25 L152.85 280.5 Q150.25 281.0 147.8 282.0 136.35 286.9 127.8 302.7 L129.5 292.2 130.45 288.25 Q134.4 269.0 141.5 252.55 144.5 245.5 148.1 239.05 L148.1 239.0 148.25 238.7 148.3 238.65 149.35 236.7 153.65 248.85 156.55 256.55 160.8 267.55 162.75 273.35 165.45 280.15 165.5 280.25 165.7 280.8 167.1 284.85 167.7 286.6 167.7 286.85 168.25 289.25 M130.95 191.35 Q129.85 191.9 128.8 192.55 122.55 196.45 119.05 204.6 121.6 193.4 126.35 182.85 127.85 179.5 129.65 176.25 L130.25 175.05 133.0 170.2 Q134.4 179.7 136.55 189.65 L138.4 199.1 Q142.75 217.25 149.35 236.7 M137.45 83.4 L137.0 84.9 136.5 86.3 135.55 89.75 137.85 84.4 Q152.75 50.75 162.6 43.1 M207.8 113.5 L207.75 112.35 M207.45 192.4 L208.05 183.1 209.3 163.65 M135.55 89.75 Q133.9 95.95 132.85 102.8 128.2 126.7 129.4 144.8 130.75 162.85 133.0 170.2 M130.95 191.35 L132.35 190.7 M136.55 189.65 L133.2 190.4 M130.45 288.25 L139.15 277.95 M206.55 202.85 Q210.95 206.9 215.95 221.15 L217.0 220.0 M215.95 221.15 L216.25 222.0 M205.3 200.1 L206.55 202.85 207.45 192.4 Q212.5 194.75 221.45 208.55 L208.05 183.1 M206.0 208.2 L206.55 202.85 M204.0 229.1 L206.0 208.2 Q211.05 209.4 215.15 227.4 M197.0 282.8 L197.45 283.0 M224.3 317.3 L225.2 317.85 Q234.05 323.55 242.15 331.3 222.75 307.5 195.15 291.05 M174.6 307.35 L177.9 305.15 M180.75 326.4 L178.0 327.05 M181.45 327.05 L181.25 326.3 180.75 326.4 M203.8 350.25 L203.85 350.3 204.75 351.15 M190.45 303.35 Q208.6 307.15 224.3 317.3" ffdec:has-small-stroke="true" ffdec:original-stroke-width="0.05" fill="none" stroke="#000000" stroke-linecap="round" stroke-linejoin="round" stroke-opacity="0.4" stroke-width="1.0"/>
    <path d="M183.85 63.65 Q182.85 64.6 181.4 64.6 180.05 64.75 179.1 63.9 178.0 62.9 177.85 61.45 177.85 60.1 178.85 59.1 179.7 58.0 181.05 57.9 182.5 57.9 183.65 58.9 184.55 59.75 184.6 61.1 184.7 62.55 183.85 63.65 M189.95 83.25 L189.4 83.0 M143.4 111.5 Q147.2 108.05 152.9 104.55 L151.15 114.45 Q150.55 117.9 150.1 121.25 L149.25 132.25 148.95 137.35 Q148.65 143.15 148.7 148.85 148.8 156.55 149.5 163.95 L149.25 164.0 Q146.55 165.1 144.5 167.35 L143.3 168.8 142.3 170.3 Q139.95 174.2 138.85 180.25 L137.4 173.9 Q137.2 171.05 137.4 168.55 L136.6 168.85 137.4 173.9 M142.95 111.95 L143.4 111.5 M140.75 119.45 Q144.75 115.6 151.15 114.45 M135.7 125.45 L135.85 123.15 Q136.4 120.35 138.25 117.5 140.0 114.75 142.95 111.95 M135.4 130.2 L135.6 128.2 135.7 125.45 M140.75 119.45 Q137.25 122.8 135.6 128.2 137.35 125.9 139.3 124.35 144.15 120.45 150.1 121.25 M138.2 137.55 Q141.85 133.95 149.25 132.25 M138.2 137.55 Q137.3 138.4 136.65 139.4 135.1 141.65 134.75 144.55 135.4 142.0 136.75 140.3 L138.45 138.7 Q142.15 136.05 148.95 137.35 M136.6 168.85 Q134.8 157.25 134.75 144.55 134.8 137.5 135.4 130.2 M143.5 162.75 Q146.8 161.1 149.25 164.0 M140.15 165.25 Q138.8 166.6 137.4 168.55 M140.15 165.25 L140.2 165.2 Q141.95 163.45 143.5 162.75 M179.45 226.7 L185.35 226.4" fill="none" stroke="#000000" stroke-linecap="round" stroke-linejoin="round" stroke-opacity="0.4" stroke-width="1.0"/>
  </g>
</svg>
