<?xml version="1.0" encoding="UTF-8" standalone="no"?>
<svg xmlns:ffdec="https://www.free-decompiler.com/flash" xmlns:xlink="http://www.w3.org/1999/xlink" ffdec:objectType="shape" height="292.1px" width="491.45px" xmlns="http://www.w3.org/2000/svg">
  <g transform="matrix(1.0, 0.0, 0.0, 1.0, -16.8, -17.0)">
    <path d="M488.6 120.15 L491.1 124.05 453.6 103.3 Q401.35 74.25 307.85 79.75 L268.15 83.2 Q212.75 90.4 173.6 103.0 183.25 98.6 193.2 94.8 198.5 92.75 203.95 90.9 212.4 87.95 221.1 85.45 L221.15 85.45 Q231.4 82.45 242.0 80.1 L243.0 79.85 253.0 77.75 253.15 78.25 Q310.95 69.7 359.05 74.05 399.25 72.0 436.05 87.05 470.5 95.15 488.6 120.15 M87.25 146.15 Q90.35 142.45 93.75 138.9 130.25 109.45 170.55 94.9 L165.65 105.7 Q145.6 112.65 130.25 121.2 94.25 141.15 71.0 171.9 66.65 177.6 62.75 183.7 L63.6 182.35 76.95 160.05 77.45 159.3 87.25 146.15 M326.05 144.05 Q326.5 158.15 342.8 162.75 329.95 159.45 313.05 162.55 L326.05 144.05 M125.7 176.5 Q158.05 160.9 181.0 139.05 199.7 149.55 212.4 142.05 L203.8 151.05 186.0 153.05 184.5 153.55 179.65 155.05 178.15 155.55 Q158.6 162.0 140.05 170.05 132.8 173.15 125.7 176.55 L125.7 176.5 M253.15 78.25 L243.0 79.85 253.15 78.25 M70.95 171.05 L71.0 171.9 70.95 171.05" fill="#ffff33" fill-rule="evenodd" stroke="none"/>
    <path d="M506.1 192.05 L498.75 197.35 Q468.95 217.5 440.8 218.7 436.4 218.9 432.0 218.6 L427.95 218.25 Q419.95 217.25 412.55 215.5 376.1 206.8 354.4 178.95 353.65 175.4 351.75 172.35 362.7 179.95 390.05 190.05 370.9 211.85 417.05 190.05 458.0 200.5 431.95 171.5 427.0 153.15 417.75 142.4 408.65 131.8 395.4 128.5 413.45 129.15 426.75 124.2 400.75 101.7 344.05 102.05 301.55 84.55 263.0 117.05 252.85 111.9 240.6 109.8 217.15 105.8 186.1 113.2 180.65 114.5 174.95 116.15 L219.0 102.05 Q282.05 86.95 345.05 91.05 407.6 99.15 426.75 124.2 440.3 127.45 466.45 136.45 L466.3 137.05 Q461.3 137.05 457.15 139.05 453.95 140.55 451.25 143.25 449.35 145.15 448.05 147.3 445.05 152.2 445.05 158.3 445.05 167.1 450.65 171.05 L450.4 171.5 Q456.05 220.05 476.05 197.05 L506.1 192.05" fill="#000000" fill-rule="evenodd" stroke="none"/>
    <path d="M491.1 124.05 Q514.35 158.05 506.1 192.05 L476.05 197.05 Q456.05 220.05 450.4 171.5 L450.65 171.05 Q451.75 171.8 452.95 172.35 L454.8 173.0 Q459.0 174.1 464.3 172.55 472.3 170.2 479.8 168.7 L480.0 168.65 Q487.55 167.1 487.55 158.3 487.55 149.5 481.3 143.25 479.0 140.95 476.3 139.5 L468.55 137.15 466.3 137.05 466.45 136.45 Q440.3 127.45 426.75 124.2 407.6 99.15 345.05 91.05 282.05 86.95 219.0 102.05 L174.95 116.15 Q180.65 114.5 186.1 113.2 133.55 131.35 96.95 159.05 147.9 124.95 240.6 109.8 252.85 111.9 263.0 117.05 301.55 84.55 344.05 102.05 400.75 101.7 426.75 124.2 413.45 129.15 395.4 128.5 408.65 131.8 417.75 142.4 387.75 148.0 328.25 119.6 L308.05 110.05 Q336.7 129.6 307.7 132.05 L332.05 132.05 Q396.05 136.25 417.05 190.05 370.9 211.85 390.05 190.05 362.7 179.95 351.75 172.35 350.45 170.35 348.7 168.6 347.3 167.2 345.8 166.15 L344.95 165.6 Q344.5 164.6 344.4 163.7 L344.05 163.05 342.8 162.75 Q326.5 158.15 326.05 144.05 315.75 147.15 304.4 148.2 296.45 148.85 288.0 148.55 L270.0 146.8 256.1 144.1 243.5 140.75 233.8 137.7 221.0 133.05 212.4 142.05 Q199.7 149.55 181.0 139.05 158.05 160.9 125.7 176.5 L125.7 176.55 125.45 176.65 Q103.1 174.1 71.95 195.05 L71.0 171.9 Q94.25 141.15 130.25 121.2 145.6 112.65 165.65 105.7 L165.0 107.05 Q169.25 104.95 173.6 103.0 212.75 90.4 268.15 83.2 L307.85 79.75 Q401.35 74.25 453.6 103.3 L491.1 124.05 M172.0 117.05 L174.95 116.15 172.0 117.05 M344.4 163.7 L345.8 166.15 344.4 163.7 M125.7 176.5 L125.45 176.65 125.7 176.5" fill="#cccccc" fill-rule="evenodd" stroke="none"/>
    <path d="M93.75 138.9 Q123.1 108.0 173.15 89.15 L170.55 94.9 Q130.25 109.45 93.75 138.9 M363.5 63.3 L428.65 80.5 430.2 80.85 Q468.55 90.25 488.6 120.15 470.5 95.15 436.05 87.05 399.25 72.0 359.05 74.05 310.95 69.7 253.15 78.25 L253.0 77.75 Q268.15 74.8 283.9 73.05 L306.2 71.1 320.1 70.45 Q334.4 70.05 349.1 70.5 368.9 71.15 389.45 73.35 376.65 70.7 363.5 63.3 M392.15 73.65 L390.05 73.45 389.45 73.35 390.05 73.45 392.15 73.65" fill="#ffcc00" fill-rule="evenodd" stroke="none"/>
    <path d="M110.25 194.6 Q102.75 207.85 109.4 218.6 94.8 213.6 89.95 195.7 94.25 193.05 98.7 190.6 106.45 186.2 114.4 182.1 119.9 179.3 125.45 176.65 L125.65 176.6 125.45 176.65 125.7 176.55 125.65 176.6 124.3 177.8 Q114.75 186.65 110.25 194.6 M115.75 226.1 Q95.1 212.8 64.1 212.45 72.05 206.8 80.3 201.6 L114.6 225.3 115.75 226.1 M45.95 211.7 L43.15 211.6 Q28.6 211.45 16.8 217.8 26.3 210.6 35.05 203.1 L37.15 201.6 37.05 201.4 Q59.55 181.75 76.9 160.0 L76.95 160.05 63.6 182.35 37.15 201.6 Q48.65 193.55 52.05 199.1 L52.7 200.5 45.95 211.7 M173.15 89.15 Q163.0 76.3 168.3 64.35 L168.5 64.4 168.3 64.3 Q173.7 52.2 195.0 41.0 201.75 46.8 208.8 50.5 L210.45 52.0 Q226.55 66.9 221.15 85.45 L221.1 85.45 186.35 71.55 Q178.85 67.25 168.5 64.4 L186.35 71.55 Q199.5 79.05 203.95 90.9 198.5 92.75 193.2 94.8 183.25 98.6 173.6 103.0 169.25 104.95 165.0 107.05 L165.65 105.7 Q169.5 104.3 173.6 103.0 169.5 104.3 165.65 105.7 L170.55 94.9 173.15 89.15 M210.7 51.45 Q231.4 61.45 255.0 54.0 275.25 53.3 288.35 48.0 310.35 39.0 312.05 17.0 320.15 26.9 328.2 35.15 L328.35 35.3 335.6 42.4 335.8 42.6 Q349.8 55.6 363.5 63.3 376.65 70.7 389.45 73.35 368.9 71.15 349.1 70.5 L316.05 40.0 Q327.55 57.1 320.1 70.45 L306.2 71.1 288.35 48.0 Q291.85 60.5 283.9 73.05 L255.0 54.0 Q269.2 65.9 253.0 77.75 L243.0 79.85 241.85 79.9 243.0 79.85 242.0 80.1 241.85 79.9 210.45 52.0 210.7 51.45 M313.05 162.55 L308.95 168.4 Q300.6 165.65 290.65 165.65 L282.05 166.2 283.4 162.2 Q282.1 164.15 281.5 166.3 278.1 166.75 274.95 167.65 262.95 164.9 247.2 165.7 L247.2 165.45 250.45 157.65 Q256.0 149.7 270.0 146.8 L288.0 148.55 283.4 162.2 Q288.5 154.4 304.4 148.2 315.75 147.15 326.05 144.05 L313.05 162.55 M212.4 142.05 L221.0 133.05 233.8 137.7 214.2 158.6 Q226.05 148.75 243.5 140.75 L256.1 144.1 250.45 157.65 Q248.0 161.05 247.2 165.45 L247.1 165.7 Q226.75 166.7 200.2 173.65 L200.2 173.55 214.2 158.6 Q205.75 165.6 200.2 173.55 L200.05 173.7 Q188.15 176.75 175.0 181.05 L189.35 166.1 203.8 151.05 212.4 142.05 M172.0 94.05 L170.55 94.9 172.0 94.05 M124.3 177.8 L114.4 182.1 124.3 177.8" fill="#333333" fill-rule="evenodd" stroke="none"/>
    <path d="M345.8 166.15 Q347.3 167.2 348.7 168.6 350.45 170.35 351.75 172.35 353.65 175.4 354.4 178.95 L326.05 184.05 Q313.45 182.85 308.55 197.05 310.25 212.8 270.55 206.9 263.9 204.85 258.4 201.8 L267.5 207.7 276.55 213.6 319.55 213.6 Q336.25 227.95 335.6 235.95 336.7 226.55 355.1 236.1 L337.05 223.1 Q322.7 215.75 322.55 203.05 344.2 193.35 360.05 214.65 L361.1 219.05 Q375.2 231.3 361.1 240.05 340.0 254.35 318.95 235.15 317.75 231.1 317.75 226.55 317.75 223.1 318.45 220.0 306.6 227.05 290.65 227.05 272.65 227.05 259.9 218.05 L255.45 214.45 Q218.5 215.55 222.05 193.05 234.7 177.65 255.55 178.9 263.25 179.3 272.05 182.05 293.35 162.5 295.05 182.05 L316.6 171.7 Q317.7 170.05 319.15 168.6 325.3 162.5 333.95 162.5 340.1 162.5 344.95 165.6 L345.8 166.15" fill="#ff6699" fill-rule="evenodd" stroke="none"/>
    <path d="M344.4 163.7 Q344.5 164.6 344.95 165.6 340.1 162.5 333.95 162.5 325.3 162.5 319.15 168.6 317.7 170.05 316.6 171.7 312.95 169.75 308.95 168.4 L313.05 162.55 Q329.95 159.45 342.8 162.75 L344.4 163.7 M255.45 214.45 L259.9 218.05 Q272.65 227.05 290.65 227.05 306.6 227.05 318.45 220.0 317.75 223.1 317.75 226.55 317.75 231.1 318.95 235.15 320.95 242.15 326.5 247.7 335.3 256.5 347.7 256.5 360.1 256.5 368.85 247.7 377.65 238.95 377.65 226.55 377.65 214.15 368.85 205.35 360.95 197.45 350.05 196.7 354.85 191.05 354.85 183.4 354.85 181.1 354.4 178.95 376.1 206.8 412.55 215.5 L406.6 226.1 398.1 226.1 Q415.35 235.35 420.6 252.6 397.95 269.0 369.6 274.1 360.2 278.45 360.1 264.1 326.65 264.6 291.55 258.6 264.05 247.8 234.55 225.1 208.75 231.05 179.55 230.1 174.1 223.85 189.05 199.05 167.25 198.15 140.05 186.5 148.55 166.8 189.35 166.1 L175.0 181.05 175.0 189.55 Q207.35 171.15 247.1 165.7 L247.2 165.7 247.1 165.7 247.15 165.7 247.2 165.7 Q262.95 164.9 274.95 167.65 266.65 169.85 259.9 174.65 257.5 176.35 255.55 178.2 246.55 173.55 234.65 173.55 220.4 173.55 210.3 180.2 200.2 186.9 200.2 196.3 200.2 205.7 210.3 212.35 220.4 219.05 234.65 219.05 246.45 219.05 255.45 214.45" fill="#990000" fill-rule="evenodd" stroke="none"/>
    <path d="M432.0 218.6 Q382.0 231.9 478.1 266.1 392.65 246.85 351.25 309.1 387.1 249.55 274.05 274.1 253.05 205.8 152.2 246.65 164.05 239.95 170.85 228.9 194.3 190.95 122.15 193.9 L110.25 194.6 Q114.75 186.65 124.3 177.8 132.35 174.15 140.05 170.05 158.6 162.0 178.15 155.55 L179.65 155.05 184.5 153.55 186.0 153.05 203.8 151.05 189.35 166.1 Q148.55 166.8 140.05 186.5 167.25 198.15 189.05 199.05 174.1 223.85 179.55 230.1 208.75 231.05 234.55 225.1 264.05 247.8 291.55 258.6 326.65 264.6 360.1 264.1 360.2 278.45 369.6 274.1 397.95 269.0 420.6 252.6 415.35 235.35 398.1 226.1 L406.6 226.1 412.55 215.5 Q419.95 217.25 427.95 218.25 L432.0 218.6 M316.6 171.7 L295.05 182.05 Q293.35 162.5 272.05 182.05 263.25 179.3 255.55 178.9 234.7 177.65 222.05 193.05 218.5 215.55 255.45 214.45 246.45 219.05 234.65 219.05 220.4 219.05 210.3 212.35 200.2 205.7 200.2 196.3 200.2 186.9 210.3 180.2 220.4 173.55 234.65 173.55 246.55 173.55 255.55 178.2 257.5 176.35 259.9 174.65 266.65 169.85 274.95 167.65 278.1 166.75 281.5 166.3 L282.05 166.2 290.65 165.65 Q300.6 165.65 308.95 168.4 312.95 169.75 316.6 171.7 M318.95 235.15 Q340.0 254.35 361.1 240.05 375.2 231.3 361.1 219.05 L360.05 214.65 Q354.35 196.1 332.05 194.05 L354.4 178.95 Q354.85 181.1 354.85 183.4 354.85 191.05 350.05 196.7 360.95 197.45 368.85 205.35 377.65 214.15 377.65 226.55 377.65 238.95 368.85 247.7 360.1 256.5 347.7 256.5 335.3 256.5 326.5 247.7 320.95 242.15 318.95 235.15 M322.55 203.05 Q322.7 215.75 337.05 223.1 L355.1 236.1 Q336.7 226.55 335.6 235.95 336.25 227.95 319.55 213.6 L276.55 213.6 267.5 207.7 258.4 201.8 Q263.9 204.85 270.55 206.9 279.05 209.55 289.5 210.5 309.8 214.35 322.55 203.05 M247.1 165.7 Q207.35 171.15 175.0 189.55 L175.0 181.05 Q188.15 176.75 200.05 173.7 L200.1 173.7 200.1 173.65 200.2 173.65 Q226.75 166.7 247.1 165.7 M267.5 207.7 L270.55 206.9 267.5 207.7" fill="#660000" fill-rule="evenodd" stroke="none"/>
    <path d="M360.05 214.65 Q344.2 193.35 322.55 203.05 309.8 214.35 289.5 210.5 279.05 209.55 270.55 206.9 310.25 212.8 308.55 197.05 313.45 182.85 326.05 184.05 L354.4 178.95 332.05 194.05 Q354.35 196.1 360.05 214.65 M482.4 154.5 Q484.85 156.95 484.85 160.45 484.85 163.95 482.4 166.4 481.2 167.6 479.7 168.25 478.2 168.85 476.45 168.85 472.95 168.85 470.5 166.4 468.05 163.95 468.05 160.45 468.05 156.95 470.5 154.5 472.95 152.05 476.45 152.05 479.95 152.05 482.4 154.5" fill="#ffffff" fill-rule="evenodd" stroke="none"/>
    <path d="M64.1 212.45 Q45.85 225.25 28.95 240.05 L45.95 211.7 52.7 200.5 52.05 199.1 Q48.65 193.55 37.15 201.6 L63.6 182.35 62.75 183.7 Q66.65 177.6 71.0 171.9 L71.95 195.05 Q103.1 174.1 125.45 176.65 119.9 179.3 114.4 182.1 106.45 186.2 98.7 190.6 94.25 193.05 89.95 195.7 94.8 213.6 109.4 218.6 111.45 221.9 114.8 225.0 L114.6 225.3 80.3 201.6 Q72.05 206.8 64.1 212.45 M417.05 190.05 Q396.05 136.25 332.05 132.05 L307.7 132.05 Q336.7 129.6 308.05 110.05 L328.25 119.6 Q387.75 148.0 417.75 142.4 427.0 153.15 431.95 171.5 458.0 200.5 417.05 190.05 M240.6 109.8 Q147.9 124.95 96.95 159.05 133.55 131.35 186.1 113.2 217.15 105.8 240.6 109.8 M450.65 171.05 Q445.05 167.1 445.05 158.3 445.05 152.2 448.05 147.3 449.35 145.15 451.25 143.25 453.95 140.55 457.15 139.05 461.3 137.05 466.3 137.05 L468.55 137.15 476.3 139.5 Q479.0 140.95 481.3 143.25 487.55 149.5 487.55 158.3 487.55 167.1 480.0 168.65 L479.7 168.25 479.8 168.7 Q472.3 170.2 464.3 172.55 459.0 174.1 454.8 173.0 L452.95 172.35 Q451.75 171.8 450.65 171.05 M482.4 154.5 Q479.95 152.05 476.45 152.05 472.95 152.05 470.5 154.5 468.05 156.95 468.05 160.45 468.05 163.95 470.5 166.4 472.95 168.85 476.45 168.85 478.2 168.85 479.7 168.25 481.2 167.6 482.4 166.4 484.85 163.95 484.85 160.45 484.85 156.95 482.4 154.5 M233.8 137.7 L243.5 140.75 Q226.05 148.75 214.2 158.6 L233.8 137.7 M256.1 144.1 L270.0 146.8 Q256.0 149.7 250.45 157.65 L256.1 144.1 M288.0 148.55 Q296.45 148.85 304.4 148.2 288.5 154.4 283.4 162.2 L288.0 148.55 M253.0 77.75 Q269.2 65.9 255.0 54.0 L283.9 73.05 Q268.15 74.8 253.0 77.75 M283.9 73.05 Q291.85 60.5 288.35 48.0 L306.2 71.1 283.9 73.05 M320.1 70.45 Q327.55 57.1 316.05 40.0 L349.1 70.5 Q334.4 70.05 320.1 70.45 M186.35 71.55 L221.1 85.45 Q212.4 87.95 203.95 90.9 199.5 79.05 186.35 71.55 M221.15 85.45 Q226.55 66.9 210.45 52.0 L241.85 79.9 239.0 80.05 241.85 79.9 242.0 80.1 Q231.4 82.45 221.15 85.45 M62.75 183.7 L57.7 192.1 52.7 200.5 57.7 192.1 62.75 183.7 M80.3 201.6 Q85.05 198.55 89.95 195.7 85.05 198.55 80.3 201.6" fill="#666666" fill-rule="evenodd" stroke="none"/>
    <path d="M488.6 120.15 L491.1 124.05 Q514.35 158.05 506.1 192.05 L498.75 197.35 Q468.95 217.5 440.8 218.7 436.4 218.9 432.0 218.6 382.0 231.9 478.1 266.1 392.65 246.85 351.25 309.1 387.1 249.55 274.05 274.1 253.05 205.8 152.2 246.65 146.2 250.05 138.95 252.35 145.75 249.25 152.2 246.65 164.05 239.95 170.85 228.9 194.3 190.95 122.15 193.9 L110.25 194.6 Q102.75 207.85 109.4 218.6 L114.8 225.0 117.7 227.4 116.9 226.85 115.75 226.1 Q95.1 212.8 64.1 212.45 45.85 225.25 28.95 240.05 L45.95 211.7 43.15 211.6 Q28.6 211.45 16.8 217.8 26.3 210.6 35.05 203.1 L37.05 201.4 Q59.55 181.75 76.9 160.0 L77.45 159.3 Q81.95 152.5 87.25 146.15 90.35 142.45 93.75 138.9 123.1 108.0 173.15 89.15 163.0 76.3 168.3 64.35 L168.3 64.3 Q173.7 52.2 195.0 41.0 201.75 46.8 208.8 50.5 L210.7 51.45 Q231.4 61.45 255.0 54.0 275.25 53.3 288.35 48.0 310.35 39.0 312.05 17.0 320.15 26.9 328.2 35.15 L328.35 35.3 363.5 63.3 428.65 80.5 430.2 80.85 Q468.55 90.25 488.6 120.15 L490.05 121.05 M363.5 63.3 Q349.8 55.6 335.8 42.6 L335.6 42.4 328.35 35.3 M363.5 63.3 L335.8 42.6 M389.45 73.35 L390.05 73.45 392.15 73.65 M349.1 70.5 Q368.9 71.15 389.45 73.35 376.65 70.7 363.5 63.3 M345.8 166.15 Q347.3 167.2 348.7 168.6 350.45 170.35 351.75 172.35 362.7 179.95 390.05 190.05 370.9 211.85 417.05 190.05 458.0 200.5 431.95 171.5 M308.05 110.05 L328.25 119.6 M426.75 124.2 Q400.75 101.7 344.05 102.05 301.55 84.55 263.0 117.05 252.85 111.9 240.6 109.8 217.15 105.8 186.1 113.2 180.65 114.5 174.95 116.15 L172.0 117.05 M344.95 165.6 L345.8 166.15 344.4 163.7 Q344.5 164.6 344.95 165.6 340.1 162.5 333.95 162.5 325.3 162.5 319.15 168.6 317.7 170.05 316.6 171.7 312.95 169.75 308.95 168.4 L313.05 162.55 Q329.95 159.45 342.8 162.75 L344.4 163.7 344.05 163.05 342.8 162.75 M255.45 214.45 L259.9 218.05 Q272.65 227.05 290.65 227.05 306.6 227.05 318.45 220.0 317.75 223.1 317.75 226.55 317.75 231.1 318.95 235.15 M354.4 178.95 Q353.65 175.4 351.75 172.35 M354.4 178.95 Q354.85 181.1 354.85 183.4 354.85 191.05 350.05 196.7 M426.75 124.2 Q407.6 99.15 345.05 91.05 282.05 86.95 219.0 102.05 L174.95 116.15 M450.4 171.5 Q456.05 220.05 476.05 197.05 L506.1 192.05 M482.4 154.5 Q484.85 156.95 484.85 160.45 484.85 163.95 482.4 166.4 481.2 167.6 479.7 168.25 478.2 168.85 476.45 168.85 472.95 168.85 470.5 166.4 468.05 163.95 468.05 160.45 468.05 156.95 470.5 154.5 472.95 152.05 476.45 152.05 479.95 152.05 482.4 154.5 M412.55 215.5 Q376.1 206.8 354.4 178.95 M432.0 218.6 L427.95 218.25 Q419.95 217.25 412.55 215.5 M173.6 103.0 Q169.25 104.95 165.0 107.05 L165.65 105.7 170.55 94.9 172.0 94.05 M71.0 171.9 L71.95 195.05 Q103.1 174.1 125.45 176.65 L125.7 176.5 M212.4 142.05 L221.0 133.05 233.8 137.7 243.5 140.75 256.1 144.1 270.0 146.8 288.0 148.55 Q296.45 148.85 304.4 148.2 315.75 147.15 326.05 144.05 L313.05 162.55 M283.9 73.05 L255.0 54.0 Q269.2 65.9 253.0 77.75 268.15 74.8 283.9 73.05 291.85 60.5 288.35 48.0 L306.2 71.1 320.1 70.45 Q327.55 57.1 316.05 40.0 L349.1 70.5 Q334.4 70.05 320.1 70.45 M243.0 79.85 L253.0 77.75 M243.0 79.85 L253.15 78.25 M283.9 73.05 L306.2 71.1 M168.5 64.4 Q178.85 67.25 186.35 71.55 L221.1 85.45 221.15 85.45 Q226.55 66.9 210.45 52.0 L208.8 50.5 M168.3 64.35 L168.5 64.4 168.3 64.35 M173.15 89.15 L170.55 94.9 M186.35 71.55 L168.5 64.4 M203.95 90.9 Q212.4 87.95 221.1 85.45 M239.0 80.05 L241.85 79.9 210.45 52.0 M242.0 80.1 L241.85 79.9 243.0 79.85 242.0 80.1 Q231.4 82.45 221.15 85.45 M186.35 71.55 Q199.5 79.05 203.95 90.9 198.5 92.75 193.2 94.8 183.25 98.6 173.6 103.0 169.5 104.3 165.65 105.7 M203.8 151.05 L186.0 153.05 184.5 153.55 179.65 155.05 178.15 155.55 Q158.6 162.0 140.05 170.05 132.35 174.15 124.3 177.8 114.75 186.65 110.25 194.6 M247.1 165.7 Q226.75 166.7 200.2 173.65 L200.1 173.65 200.1 173.7 200.05 173.7 Q188.15 176.75 175.0 181.05 L189.35 166.1 203.8 151.05 212.4 142.05 M200.1 173.65 L200.2 173.55 200.05 173.7 M255.55 178.2 Q257.5 176.35 259.9 174.65 266.65 169.85 274.95 167.65 262.95 164.9 247.2 165.7 L247.1 165.7 247.2 165.45 Q248.0 161.05 250.45 157.65 L256.1 144.1 M233.8 137.7 L214.2 158.6 Q226.05 148.75 243.5 140.75 M200.2 173.55 Q205.75 165.6 214.2 158.6 L200.2 173.55 M281.5 166.3 L282.05 166.2 283.4 162.2 Q282.1 164.15 281.5 166.3 278.1 166.75 274.95 167.65 M247.2 165.7 L247.15 165.7 247.1 165.7 M247.15 165.7 L247.2 165.45 250.45 157.65 Q256.0 149.7 270.0 146.8 M282.05 166.2 L290.65 165.65 Q300.6 165.65 308.95 168.4 M288.0 148.55 L283.4 162.2 Q288.5 154.4 304.4 148.2 M76.95 160.05 L77.45 159.3 87.25 146.15 M76.95 160.05 L63.6 182.35 62.75 183.7 57.7 192.1 52.7 200.5 52.05 199.1 Q48.65 193.55 37.15 201.6 L35.05 203.1 M71.0 171.9 L70.95 171.05 M114.4 182.1 Q106.45 186.2 98.7 190.6 94.25 193.05 89.95 195.7 94.8 213.6 109.4 218.6 111.45 221.9 114.8 225.0 L115.75 226.1 114.6 225.3 80.3 201.6 Q72.05 206.8 64.1 212.45 M125.45 176.65 L125.65 176.6 125.7 176.55 125.45 176.65 Q119.9 179.3 114.4 182.1 L124.3 177.8 125.65 176.6 M140.05 170.05 Q132.8 173.15 125.7 176.55 M45.95 211.7 L52.7 200.5 M37.15 201.6 L63.6 182.35 M270.55 206.9 L267.5 207.7 M89.95 195.7 Q85.05 198.55 80.3 201.6" ffdec:has-small-stroke="true" ffdec:original-stroke-width="0.05" fill="none" stroke="#000000" stroke-linecap="round" stroke-linejoin="round" stroke-opacity="0.4" stroke-width="1.0"/>
  </g>
</svg>
