<?xml version="1.0" encoding="UTF-8" standalone="no"?>
<svg xmlns:ffdec="https://www.free-decompiler.com/flash" xmlns:xlink="http://www.w3.org/1999/xlink" ffdec:objectType="shape" height="21.8px" width="24.9px" xmlns="http://www.w3.org/2000/svg">
  <g transform="matrix(1.0, 0.0, 0.0, 1.0, 55.75, 54.1)">
    <path d="M-38.85 -37.95 Q-42.45 -36.85 -44.35 -38.55 -46.95 -42.15 -47.5 -44.25 -46.95 -42.15 -44.35 -38.55 -42.45 -36.85 -38.85 -37.95 M-47.45 -44.3 Q-48.45 -48.3 -45.85 -50.65 -44.2 -53.7 -40.9 -53.95 -36.85 -54.7 -33.8 -52.1 -30.65 -49.8 -30.85 -44.3 -31.0 -38.7 -35.65 -33.7 -45.05 -30.15 -50.05 -35.65 -54.65 -40.55 -55.75 -46.3 L-54.9 -48.6 Q-53.55 -44.65 -49.55 -42.4 L-47.5 -44.25 -47.45 -44.3 M-45.05 -43.15 L-44.2 -48.9 -45.05 -43.15 M-39.8 -53.05 L-42.65 -50.9 -39.8 -53.05" fill="#b1620a" fill-rule="evenodd" stroke="none"/>
    <path d="M-47.5 -44.25 Q-46.95 -42.15 -44.35 -38.55 -42.45 -36.85 -38.85 -37.95 M-47.45 -44.3 Q-48.45 -48.3 -45.85 -50.65 -44.2 -53.7 -40.9 -53.95 -36.85 -54.7 -33.8 -52.1 -30.65 -49.8 -30.85 -44.3 -31.0 -38.7 -35.65 -33.7 -45.05 -30.15 -50.05 -35.65 -54.65 -40.55 -55.75 -46.3 L-54.9 -48.6 Q-53.55 -44.65 -49.55 -42.4 L-47.5 -44.25 -47.45 -44.3 -47.5 -44.25" ffdec:has-small-stroke="true" ffdec:original-stroke-width="0.05" fill="none" stroke="#000000" stroke-linecap="round" stroke-linejoin="round" stroke-opacity="0.2509804" stroke-width="1.0"/>
    <path d="M-42.65 -50.9 L-39.8 -53.05 M-44.2 -48.9 L-45.05 -43.15" fill="none" stroke="#000000" stroke-linecap="round" stroke-linejoin="round" stroke-opacity="0.2509804" stroke-width="1.0"/>
  </g>
</svg>
