<?xml version="1.0" encoding="UTF-8" standalone="no"?>
<svg xmlns:ffdec="https://www.free-decompiler.com/flash" xmlns:xlink="http://www.w3.org/1999/xlink" ffdec:objectType="shape" height="182.25px" width="218.0px" xmlns="http://www.w3.org/2000/svg">
  <g transform="matrix(1.0, 0.0, 0.0, 1.0, -69.5, -40.75)">
    <path d="M217.0 220.5 L145.5 220.5 104.0 192.5 150.0 179.0 160.0 162.5 180.5 150.0 222.0 182.0 217.0 220.5 M124.5 119.5 L118.5 113.0 136.6 108.9 179.5 113.5 187.5 133.0 148.5 133.0 141.0 133.0 124.5 119.5" fill="#596b6f" fill-rule="evenodd" stroke="none"/>
    <path d="M282.0 157.5 L261.5 212.5 217.0 220.5 222.0 182.0 267.0 154.5 282.0 157.5" fill="#3c4648" fill-rule="evenodd" stroke="none"/>
    <path d="M104.0 192.5 L104.0 144.0 124.5 119.5 141.0 133.0 148.5 133.0 157.0 139.0 160.0 162.5 150.0 179.0 104.0 192.5" fill="#83969a" fill-rule="evenodd" stroke="none"/>
    <path d="M205.95 57.0 L227.95 86.1 189.95 90.0 205.95 57.0 M157.0 139.0 L180.5 150.0 160.0 162.5 157.0 139.0" fill="#daede6" fill-rule="evenodd" stroke="none"/>
    <path d="M238.0 121.5 L261.5 136.5 267.0 154.5 222.0 182.0 180.5 150.0 157.0 139.0 148.5 133.0 187.5 133.0 238.0 121.5 M118.5 113.0 L125.5 77.5 185.0 41.0 205.95 57.0 189.95 90.0 180.0 99.0 136.6 108.9 118.5 113.0" fill="#81aeb4" fill-rule="evenodd" stroke="none"/>
    <path d="M227.95 86.1 L238.0 121.5 187.5 133.0 179.5 113.5 180.0 99.0 179.5 113.5 136.6 108.9 180.0 99.0 189.95 90.0 227.95 86.1 M261.5 136.5 L282.0 157.5 267.0 154.5 261.5 136.5" fill="#5b888a" fill-rule="evenodd" stroke="none"/>
    <path d="M205.95 57.0 L227.95 86.1 238.0 121.5 261.5 136.5 282.0 157.5 261.5 212.5 217.0 220.5 145.5 220.5 104.0 192.5 104.0 144.0 124.5 119.5 118.5 113.0 125.5 77.5 185.0 41.0 205.95 57.0 189.95 90.0 227.95 86.1 M180.0 99.0 L179.5 113.5 187.5 133.0 238.0 121.5 M180.5 150.0 L222.0 182.0 267.0 154.5 261.5 136.5 M282.0 157.5 L267.0 154.5 M136.6 108.9 L180.0 99.0 189.95 90.0 M148.5 133.0 L157.0 139.0 180.5 150.0 160.0 162.5 150.0 179.0 104.0 192.5 M148.5 133.0 L141.0 133.0 124.5 119.5 M118.5 113.0 L136.6 108.9 179.5 113.5 M160.0 162.5 L157.0 139.0 M187.5 133.0 L148.5 133.0 M222.0 182.0 L217.0 220.5" ffdec:has-small-stroke="true" ffdec:original-stroke-width="0.5" fill="none" stroke="#3c4648" stroke-linecap="round" stroke-linejoin="round" stroke-width="1.0"/>
    <path d="M198.05 82.6 Q202.2 83.3 206.25 84.35 L196.7 85.3 198.05 82.6 M186.7 87.55 L178.1 95.35 123.65 107.75 126.4 93.95 Q149.75 81.0 178.5 81.0 L189.65 81.5 186.7 87.55 M175.65 109.1 L160.8 107.5 178.1 101.05 175.65 109.1 M162.2 137.0 L187.15 137.0 188.7 136.85 237.25 125.8 258.1 139.1 262.3 152.7 223.3 161.15 182.95 146.85 181.95 146.25 162.2 137.0 M181.55 129.0 L142.45 129.0 127.35 116.65 126.15 115.4 136.85 112.95 162.2 117.75 181.55 129.0 M172.5 160.6 L219.75 182.55 213.5 216.5 146.75 216.5 123.05 193.45 151.15 182.85 153.45 181.1 162.95 165.4 172.5 160.6 M163.2 155.9 L161.9 145.75 172.05 150.5 163.2 155.9 M263.55 133.05 L241.45 118.95 235.1 96.55 Q245.95 103.3 255.55 112.9 272.3 129.65 280.25 150.0 L264.6 133.95 263.55 133.05 M276.6 160.5 L258.55 209.0 221.7 215.6 235.5 179.9 267.75 158.75 276.6 160.5 M287.5 190.0 Q287.5 207.5 282.7 223.0 L225.75 223.0 262.2 216.45 265.25 213.9 284.35 162.8 Q287.5 175.75 287.5 190.0 M153.25 141.25 L155.85 161.65 147.4 175.6 108.0 187.15 108.0 145.5 125.05 125.1 138.5 136.1 147.25 137.0 153.25 141.25 M114.65 112.05 L119.15 119.65 100.95 141.45 100.0 144.0 100.0 192.45 101.9 195.9 142.05 223.0 74.3 223.0 Q69.5 207.5 69.5 190.0 69.5 144.85 101.4 112.9 108.9 105.45 117.1 99.75 L114.65 112.05" fill="url(#gradient0)" fill-rule="evenodd" stroke="none"/>
    <path d="M209.8 121.0 Q214.7 120.5 218.7 112.3 222.65 104.05 224.35 97.5 226.0 90.85 229.75 103.0 233.5 115.1 226.2 119.1 218.85 123.1 211.5 123.0 207.65 122.95 204.55 121.95 204.85 121.45 209.8 121.0" fill="url(#gradient1)" fill-rule="evenodd" stroke="none"/>
    <path d="M217.7 92.4 Q189.55 104.75 191.05 121.75 L185.6 114.2 186.2 99.9 191.1 96.95 217.7 92.4" fill="#24585c" fill-opacity="0.3137255" fill-rule="evenodd" stroke="none"/>
    <path d="M184.2 88.95 L146.85 99.65 128.95 92.35 128.05 79.5 136.6 75.35 142.55 71.0 186.1 76.65 184.2 88.95 M199.45 57.85 L159.45 67.75 183.2 47.0 199.45 57.85 M217.35 135.15 L233.75 131.0 239.0 144.25 230.35 146.65 217.35 135.15 M186.25 140.45 L205.9 139.0 212.4 155.7 186.25 140.45 M248.55 163.0 L232.85 160.0 246.9 147.55 256.9 149.45 248.55 163.0 M124.85 106.55 L126.3 97.25 139.0 102.9 124.85 106.55 M144.7 146.2 L126.2 152.7 118.3 149.2 117.7 142.0 118.35 140.1 123.8 132.05 144.7 146.2 M111.1 181.3 L112.5 159.6 Q121.65 173.85 146.8 173.05 133.4 176.45 111.1 181.3 M158.15 188.0 L163.25 211.35 140.95 207.9 131.25 195.05 158.15 188.0" fill="#24585c" fill-opacity="0.3137255" fill-rule="evenodd" stroke="none"/>
    <path d="M226.95 212.1 Q253.6 199.05 263.8 176.0 L254.7 204.5 226.95 212.1" fill="#3c4648" fill-rule="evenodd" stroke="none"/>
  </g>
  <defs>
    <radialGradient cx="0" cy="0" gradientTransform="matrix(0.1346, 0.0, 0.0, 0.1346, 178.5, 190.0)" gradientUnits="userSpaceOnUse" id="gradient0" r="819.2" spreadMethod="pad">
      <stop offset="0.0" stop-color="#ffffff"/>
      <stop offset="0.09803921568627451" stop-color="#ffffff"/>
      <stop offset="0.11764705882352941" stop-color="#e0fcef" stop-opacity="0.4509804"/>
      <stop offset="1.0" stop-color="#c7fff2" stop-opacity="0.0"/>
    </radialGradient>
    <radialGradient cx="0" cy="0" gradientTransform="matrix(0.0877, 0.0, 0.0, 0.0877, 191.4, 163.1)" gradientUnits="userSpaceOnUse" id="gradient1" r="819.2" spreadMethod="pad">
      <stop offset="0.0" stop-color="#ffffff"/>
      <stop offset="0.09803921568627451" stop-color="#ffffff"/>
      <stop offset="0.11764705882352941" stop-color="#e0fcef" stop-opacity="0.4509804"/>
      <stop offset="1.0" stop-color="#c7fff2" stop-opacity="0.0"/>
    </radialGradient>
  </defs>
</svg>
