<?xml version="1.0" encoding="UTF-8" standalone="no"?>
<svg xmlns:ffdec="https://www.free-decompiler.com/flash" xmlns:xlink="http://www.w3.org/1999/xlink" ffdec:objectType="shape" height="207.45px" width="188.15px" xmlns="http://www.w3.org/2000/svg">
  <g transform="matrix(1.0, 0.0, 0.0, 1.0, 94.05, 103.7)">
    <path d="M46.05 -73.4 Q32.85 -85.95 16.05 -91.45 8.85 -93.7 1.55 -91.3 23.5 -86.95 36.8 -68.0 49.7 -49.75 61.1 -30.75 L67.6 -29.75 72.1 -31.75 Q74.1 -46.1 63.7 -56.3 L46.05 -73.4 M64.1 -11.5 L62.35 -15.35 Q54.75 -31.3 45.5 -46.45 29.3 -72.85 -2.0 -79.75 -31.35 -86.0 -56.85 -73.45 -82.4 -60.95 -85.05 -27.05 -87.4 3.1 -76.0 26.8 L-72.95 32.65 Q-64.4 47.55 -54.8 60.5 -47.85 69.9 -40.3 78.25 -63.15 62.55 -77.15 38.85 -91.15 15.15 -93.6 -12.05 -96.3 -41.65 -82.1 -67.5 -66.95 -95.0 -36.2 -101.7 -6.4 -108.15 21.4 -93.95 46.45 -81.25 66.65 -62.05 82.7 -46.85 89.3 -26.75 L89.15 -26.75 Q88.05 -26.7 87.15 -27.25 85.25 -26.2 83.05 -25.65 77.7 -24.25 73.15 -21.25 L72.65 -20.75 Q68.65 -15.85 64.1 -11.5 M71.8 77.55 Q73.1 60.4 74.05 43.1 75.3 20.5 68.25 -0.75 70.2 -2.05 71.1 -4.75 L71.65 -4.75 76.1 -5.0 Q79.3 -5.7 81.65 -7.25 L81.15 -10.75 80.65 -10.75 79.15 -10.75 Q78.1 -11.0 77.45 -10.5 76.25 -9.5 74.65 -9.25 77.75 -11.45 79.95 -14.4 81.75 -16.8 84.15 -18.75 L89.15 -19.25 90.15 -20.75 90.85 -21.45 Q91.95 -17.15 92.7 -12.6 L92.15 -12.75 91.65 -12.75 Q88.65 -8.6 89.0 -3.8 89.2 -1.1 88.15 1.25 L84.15 4.25 79.15 3.75 77.65 8.75 76.65 9.25 76.2 9.35 Q75.9 9.5 75.9 9.75 L76.15 10.75 Q78.85 10.9 81.2 12.15 L85.15 14.75 Q83.65 28.9 82.25 44.75 81.95 48.1 84.15 50.75 L86.4 50.7 Q81.05 65.15 71.8 77.55" fill="url(#gradient0)" fill-rule="evenodd" stroke="none"/>
    <path d="M14.55 -67.25 Q12.6 -62.6 12.7 -57.5 L12.8 -55.7 Q16.95 -40.1 33.35 -37.85 L41.1 -36.25 Q38.15 -53.1 24.2 -62.8 19.85 -65.85 14.55 -67.25 M64.1 -11.5 L56.6 -5.0 57.6 -5.75 55.2 -3.15 Q53.9 -1.55 54.1 0.25 L56.1 2.25 57.55 2.05 Q61.15 0.95 65.45 0.3 67.05 0.05 68.25 -0.75 75.3 20.5 74.05 43.1 73.1 60.4 71.8 77.55 66.2 84.9 59.1 91.2 39.4 108.65 12.5 101.85 L6.7 100.3 7.8 97.15 Q8.75 98.6 10.6 99.0 L19.05 100.25 Q21.45 102.6 24.55 101.6 28.6 100.2 31.1 96.75 L31.5 90.8 Q48.05 88.75 54.2 70.45 58.55 57.45 55.1 44.75 L52.6 43.75 51.1 42.75 Q52.8 60.0 41.9 72.15 L44.75 61.8 49.55 44.55 53.25 29.95 Q54.7 24.0 55.25 17.95 55.85 11.0 54.1 4.25 L50.1 3.75 47.5 6.2 45.25 8.65 43.4 11.35 Q41.0 15.5 40.75 20.45 40.5 26.0 41.45 31.55 42.5 37.7 42.6 43.75 42.1 44.25 41.85 44.85 L36.5 57.8 33.95 64.0 Q31.2 70.35 27.15 75.9 25.2 78.6 22.6 80.75 L20.6 78.25 20.7 76.95 Q20.85 75.7 21.15 74.5 L22.45 69.9 25.1 60.4 Q26.8 53.1 28.1 45.75 L26.45 48.5 23.35 54.3 Q21.85 57.15 20.6 60.15 15.95 71.55 12.3 83.25 L7.8 97.15 7.55 95.75 6.3 100.2 Q-11.5 95.0 -27.8 86.0 L-29.95 84.75 -32.05 83.55 Q-36.3 81.05 -40.3 78.25 -47.85 69.9 -54.8 60.5 -64.4 47.55 -72.95 32.65 L-76.0 26.8 Q-87.4 3.1 -85.05 -27.05 -82.4 -60.95 -56.85 -73.45 -31.35 -86.0 -2.0 -79.75 29.3 -72.85 45.5 -46.45 54.75 -31.3 62.35 -15.35 L64.1 -11.5" fill="url(#gradient1)" fill-rule="evenodd" stroke="none"/>
    <path d="M68.25 -0.75 Q67.05 0.05 65.45 0.3 61.15 0.95 57.55 2.05 L56.1 2.25 54.1 0.25 Q53.9 -1.55 55.2 -3.15 L57.6 -5.75 56.6 -5.0 64.1 -11.5 Q68.65 -15.85 72.65 -20.75 L73.15 -21.25 Q77.7 -24.25 83.05 -25.65 85.25 -26.2 87.15 -27.25 88.05 -26.7 89.15 -26.75 L89.3 -26.75 90.85 -21.45 90.15 -20.75 89.15 -19.25 84.15 -18.75 Q81.75 -16.8 79.95 -14.4 77.75 -11.45 74.65 -9.25 76.25 -9.5 77.45 -10.5 78.1 -11.0 79.15 -10.75 L80.65 -10.75 81.15 -10.75 81.65 -7.25 Q79.3 -5.7 76.1 -5.0 L71.65 -4.75 71.1 -4.75 Q70.2 -2.05 68.25 -0.75" fill="url(#gradient2)" fill-rule="evenodd" stroke="none"/>
    <path d="M86.4 50.7 L84.15 50.75 Q81.95 48.1 82.25 44.75 83.65 28.9 85.15 14.75 L81.2 12.15 Q78.85 10.9 76.15 10.75 L75.9 9.75 Q75.9 9.5 76.2 9.35 L76.65 9.25 77.65 8.75 79.15 3.75 84.15 4.25 88.15 1.25 Q89.2 -1.1 89.0 -3.8 88.65 -8.6 91.65 -12.75 L92.15 -12.75 92.7 -12.6 93.1 -9.55 Q96.7 19.65 87.5 47.45 L86.4 50.7" fill="url(#gradient3)" fill-rule="evenodd" stroke="none"/>
    <path d="M6.3 100.2 L7.55 95.75 7.8 97.15 12.3 83.25 Q15.95 71.55 20.6 60.15 21.85 57.15 23.35 54.3 L26.45 48.5 28.1 45.75 Q26.8 53.1 25.1 60.4 L22.45 69.9 21.15 74.5 Q20.85 75.7 20.7 76.95 L20.6 78.25 22.6 80.75 Q25.2 78.6 27.15 75.9 31.2 70.35 33.95 64.0 L36.5 57.8 41.85 44.85 Q42.1 44.25 42.6 43.75 42.5 37.7 41.45 31.55 40.5 26.0 40.75 20.45 41.0 15.5 43.4 11.35 L45.25 8.65 47.5 6.2 50.1 3.75 54.1 4.25 Q55.85 11.0 55.25 17.95 54.7 24.0 53.25 29.95 L49.55 44.55 44.75 61.8 41.9 72.15 Q41.0 74.45 39.5 76.2 37.1 79.0 34.2 81.15 32.85 82.1 31.35 82.65 27.15 84.3 24.1 87.25 L24.6 89.25 31.6 89.25 31.5 90.8 31.1 96.75 Q28.6 100.2 24.55 101.6 21.45 102.6 19.05 100.25 L10.6 99.0 Q8.75 98.6 7.8 97.15 L6.7 100.3 6.3 100.2" fill="#d67e00" fill-rule="evenodd" stroke="none"/>
    <path d="M41.9 72.15 Q52.8 60.0 51.1 42.75 L52.6 43.75 55.1 44.75 Q58.55 57.45 54.2 70.45 48.05 88.75 31.5 90.8 L31.6 89.25 24.6 89.25 24.1 87.25 Q27.15 84.3 31.35 82.65 32.85 82.1 34.2 81.15 37.1 79.0 39.5 76.2 41.0 74.45 41.9 72.15" fill="#f7e93c" fill-rule="evenodd" stroke="none"/>
    <path d="M46.05 -73.4 L63.7 -56.3 Q74.1 -46.1 72.1 -31.75 L67.6 -29.75 61.1 -30.75 Q49.7 -49.75 36.8 -68.0 23.5 -86.95 1.55 -91.3 8.85 -93.7 16.05 -91.45 32.85 -85.95 46.05 -73.4" fill="#cb8e00" fill-rule="evenodd" stroke="none"/>
    <path d="M14.55 -67.25 Q19.85 -65.85 24.2 -62.8 38.15 -53.1 41.1 -36.25 L33.35 -37.85 Q16.95 -40.1 12.8 -55.7 L12.7 -57.5 Q12.6 -62.6 14.55 -67.25" fill="#ffc501" fill-rule="evenodd" stroke="none"/>
    <path d="M-40.3 78.25 Q-36.3 81.05 -32.05 83.55 L-29.95 84.75 -27.8 86.0 Q-11.5 95.0 6.3 100.2 L6.7 100.3 12.5 101.85 Q39.4 108.65 59.1 91.2 66.2 84.9 71.8 77.55 81.05 65.15 86.4 50.7 L87.5 47.45 Q96.7 19.65 93.1 -9.55 L92.7 -12.6 Q91.95 -17.15 90.85 -21.45 L89.3 -26.75 Q82.7 -46.85 66.65 -62.05 46.45 -81.25 21.4 -93.95 -6.4 -108.15 -36.2 -101.7 -66.95 -95.0 -82.1 -67.5 -96.3 -41.65 -93.6 -12.05 -91.15 15.15 -77.15 38.85 -63.15 62.55 -40.3 78.25 Z" ffdec:has-small-stroke="true" ffdec:original-stroke-width="0.05" fill="none" stroke="#000000" stroke-linecap="round" stroke-linejoin="round" stroke-opacity="0.3019608" stroke-width="1.0"/>
  </g>
  <defs>
    <radialGradient cx="0" cy="0" gradientTransform="matrix(1.0, 0.0, 0.0, 1.0, -172.45, -134.8)" gradientUnits="userSpaceOnUse" id="gradient0" r="819.2" spreadMethod="pad">
      <stop offset="0.0" stop-color="#ffc501"/>
      <stop offset="0.6666666666666666" stop-color="#965500"/>
    </radialGradient>
    <radialGradient cx="0" cy="0" gradientTransform="matrix(1.0, 0.0, 0.0, 1.0, -172.45, -134.8)" gradientUnits="userSpaceOnUse" id="gradient1" r="819.2" spreadMethod="pad">
      <stop offset="0.6274509803921569" stop-color="#ffc501"/>
      <stop offset="0.9137254901960784" stop-color="#965500"/>
    </radialGradient>
    <linearGradient gradientTransform="matrix(0.0225, 0.0, 0.0, 0.018, 72.45, -12.5)" gradientUnits="userSpaceOnUse" id="gradient2" spreadMethod="pad" x1="-819.2" x2="819.2">
      <stop offset="0.027450980392156862" stop-color="#ffc501"/>
      <stop offset="0.403921568627451" stop-color="#965500"/>
    </linearGradient>
    <linearGradient gradientTransform="matrix(0.0111, 0.0, 0.0, 0.0388, 85.0, 19.0)" gradientUnits="userSpaceOnUse" id="gradient3" spreadMethod="pad" x1="-819.2" x2="819.2">
      <stop offset="0.027450980392156862" stop-color="#ffc501"/>
      <stop offset="0.403921568627451" stop-color="#965500"/>
    </linearGradient>
  </defs>
</svg>
