<?xml version="1.0" encoding="UTF-8" standalone="no"?>
<svg xmlns:ffdec="https://www.free-decompiler.com/flash" xmlns:xlink="http://www.w3.org/1999/xlink" ffdec:objectType="shape" height="180.0px" width="178.55px" xmlns="http://www.w3.org/2000/svg">
  <g transform="matrix(1.0, 0.0, 0.0, 1.0, -97.4, -40.75)">
    <path d="M140.1 143.6 L140.1 143.55 140.15 143.65 140.1 143.55 140.7 143.75 140.55 143.95 140.15 143.65 140.1 143.6" fill="#596b6f" fill-rule="evenodd" stroke="none"/>
    <path d="M140.55 143.95 L140.3 144.05 140.15 143.65 140.55 143.95" fill="#daede6" fill-rule="evenodd" stroke="none"/>
    <path d="M140.55 143.35 L140.7 143.75 140.1 143.55 140.55 143.35" fill="#81aeb4" fill-rule="evenodd" stroke="none"/>
    <path d="M255.85 126.55 L261.5 136.5 249.2 153.6 222.0 182.0 180.9 165.55 140.7 143.75 140.55 143.35 151.2 138.5 209.45 144.85 255.85 126.55 M118.5 113.0 L125.5 77.5 185.0 41.0 205.95 57.0 189.95 90.0 180.0 99.0 136.6 108.9 118.5 113.0 M214.95 168.45 L216.8 161.35 226.9 161.6 218.55 157.1 220.2 146.85 213.4 152.9 202.3 149.8 207.95 157.1 204.0 161.7 211.6 160.7 214.95 168.45" fill="#ffcc66" fill-rule="evenodd" stroke="none"/>
    <path d="M227.95 86.1 L255.85 126.55 209.45 144.85 179.5 113.5 180.0 99.0 189.95 90.0 227.95 86.1 M261.5 136.5 L274.2 170.3 249.2 153.6 261.5 136.5" fill="#ea9e00" fill-rule="evenodd" stroke="none"/>
    <path d="M97.65 192.5 L115.45 150.45 116.3 124.95 140.1 143.6 140.15 143.65 140.3 144.05 152.2 176.2 138.6 183.05 97.65 192.5" fill="#f9a800" fill-rule="evenodd" stroke="none"/>
    <path d="M180.0 99.0 L179.5 113.5 136.6 108.9 180.0 99.0" fill="#ffae06" fill-rule="evenodd" stroke="none"/>
    <path d="M205.95 57.0 L227.95 86.1 189.95 90.0 205.95 57.0 M140.7 143.75 L180.9 165.55 152.2 176.2 140.3 144.05 140.55 143.95 140.7 143.75" fill="#ffe6b0" fill-rule="evenodd" stroke="none"/>
    <path d="M274.2 170.3 L275.7 204.7 217.0 220.5 222.0 182.0 249.2 153.6 274.2 170.3" fill="#aa7300" fill-rule="evenodd" stroke="none"/>
    <path d="M116.3 124.95 L118.5 113.0 136.6 108.9 179.5 113.5 209.45 144.85 151.2 138.5 140.55 143.35 140.1 143.55 140.1 143.6 116.3 124.95" fill="#8a5e00" fill-rule="evenodd" stroke="none"/>
    <path d="M217.0 220.5 L146.45 210.9 97.65 192.5 138.6 183.05 152.2 176.2 180.9 165.55 222.0 182.0 217.0 220.5" fill="#5e3f00" fill-rule="evenodd" stroke="none"/>
    <path d="M214.95 168.45 L211.6 160.7 204.0 161.7 207.95 157.1 202.3 149.8 213.4 152.9 220.2 146.85 218.55 157.1 226.9 161.6 216.8 161.35 214.95 168.45" fill="#ec5b04" fill-rule="evenodd" stroke="none"/>
    <path d="M205.95 57.0 L227.95 86.1 255.85 126.55 261.5 136.5 274.2 170.3 275.7 204.7 217.0 220.5 146.45 210.9 97.65 192.5 115.45 150.45 116.3 124.95 118.5 113.0 125.5 77.5 185.0 41.0 205.95 57.0 189.95 90.0 227.95 86.1 M180.0 99.0 L179.5 113.5 209.45 144.85 255.85 126.55 M180.9 165.55 L222.0 182.0 249.2 153.6 261.5 136.5 M274.2 170.3 L249.2 153.6 M180.0 99.0 L189.95 90.0 M140.7 143.75 L180.9 165.55 152.2 176.2 138.6 183.05 97.65 192.5 M140.1 143.55 L140.55 143.35 151.2 138.5 209.45 144.85 M140.15 143.65 L140.1 143.55 140.7 143.75 140.55 143.95 140.15 143.65 140.1 143.6 116.3 124.95 M140.3 144.05 L152.2 176.2 M140.3 144.05 L140.15 143.65 M118.5 113.0 L136.6 108.9 180.0 99.0 M222.0 182.0 L217.0 220.5 M179.5 113.5 L136.6 108.9" ffdec:has-small-stroke="true" ffdec:original-stroke-width="0.5" fill="none" stroke="#3c4648" stroke-linecap="round" stroke-linejoin="round" stroke-width="1.0"/>
    <path d="M184.2 88.95 L146.85 99.65 128.95 92.35 128.05 79.5 136.6 75.35 142.55 71.0 186.1 76.65 184.2 88.95 M225.85 93.25 L231.1 106.5 222.45 108.9 209.45 97.4 225.85 93.25 M199.45 57.85 L159.45 67.75 183.2 47.0 199.45 57.85 M212.25 128.25 L186.1 113.0 205.75 111.55 212.25 128.25 M235.05 117.9 L245.05 119.8 236.7 133.35 221.0 130.35 235.05 117.9 M124.85 106.55 L126.3 97.25 139.0 102.9 124.85 106.55 M113.75 184.0 L115.15 162.3 Q124.3 176.55 149.45 175.75 L113.75 184.0 M116.3 154.0 L116.95 152.1 122.4 144.05 143.3 158.2 124.8 164.7 116.9 161.2 116.3 154.0 M149.6 183.2 L154.7 206.55 132.4 203.1 122.7 190.25 149.6 183.2 M234.85 212.3 Q261.5 199.25 271.7 176.2 L262.6 204.7 234.85 212.3" fill="#ffcc33" fill-opacity="0.6" fill-rule="evenodd" stroke="none"/>
  </g>
</svg>
