<?xml version="1.0" encoding="UTF-8" standalone="no"?>
<svg xmlns:ffdec="https://www.free-decompiler.com/flash" xmlns:xlink="http://www.w3.org/1999/xlink" ffdec:objectType="shape" height="297.35px" width="203.15px" xmlns="http://www.w3.org/2000/svg">
  <g transform="matrix(1.0, 0.0, 0.0, 1.0, -98.7, -66.0)">
    <path d="M200.3 88.95 L200.6 89.8 Q201.05 91.05 199.7 93.7 L200.3 88.95 199.7 93.7 Q197.15 98.6 188.15 108.2 163.15 145.55 144.05 148.6 L203.05 66.0 200.3 88.95 M143.05 150.0 L173.3 171.1 166.05 200.55 162.35 231.1 165.5 233.75 Q163.95 234.05 162.0 233.7 L159.35 232.9 Q155.4 231.35 150.3 227.55 L148.65 226.3 144.1 222.55 Q139.5 219.7 137.85 217.9 L136.85 215.95 132.05 206.3 158.35 227.85 143.05 150.0 M127.55 269.7 L138.9 289.6 131.4 293.8 112.05 282.05 127.55 269.7 M143.9 276.7 Q146.75 280.4 149.85 283.45 L149.15 283.85 148.0 283.15 147.05 282.55 143.9 276.7 M289.25 206.0 L289.1 206.55 Q288.8 207.45 287.4 208.7 L289.25 206.0 287.4 208.7 Q284.75 211.15 278.1 215.0 L271.25 220.1 268.75 221.8 Q254.0 231.7 247.7 229.95 L272.95 211.4 298.3 192.75 289.25 206.0 M246.85 230.6 L250.7 249.75 237.8 266.0 221.65 289.65 246.85 230.6 M199.25 272.2 L215.7 288.7 Q210.15 287.6 203.4 281.45 L202.8 280.85 202.3 280.4 201.2 279.3 199.7 277.6 199.35 277.35 Q196.6 275.1 195.9 274.05 L194.8 267.7 199.25 272.2 M162.35 231.1 L158.35 227.85 162.35 231.1" fill="#ffffff" fill-rule="evenodd" stroke="none"/>
    <path d="M199.7 93.7 Q201.05 91.05 200.6 89.8 L200.3 88.95 203.05 66.0 230.3 128.2 230.4 174.5 217.8 176.8 189.05 182.05 173.3 171.1 189.05 182.05 193.3 219.55 Q189.45 235.65 183.05 251.05 L178.55 261.05 Q173.1 256.9 169.8 251.05 L168.55 248.55 167.55 251.05 Q166.4 254.05 165.4 257.1 L169.95 265.6 170.35 266.4 175.6 276.9 176.3 280.1 174.5 281.3 174.3 281.0 174.3 281.4 170.4 284.0 169.9 284.25 169.2 283.4 166.05 279.2 165.45 278.35 162.4 273.95 161.2 272.0 156.3 254.95 159.6 247.85 156.3 254.95 137.85 217.9 Q139.5 219.7 144.1 222.55 L148.65 226.3 150.3 227.55 Q155.4 231.35 159.35 232.9 L162.0 233.7 Q163.95 234.05 165.5 233.75 L162.35 231.1 166.05 200.55 173.3 171.1 143.05 150.0 144.05 148.6 Q163.15 145.55 188.15 108.2 197.15 98.6 199.7 93.7 L189.05 182.05 199.7 93.7 M195.9 242.45 L197.0 252.0 200.2 258.4 Q198.65 256.4 197.25 254.2 L195.35 251.05 195.05 250.55 195.9 242.45 M230.4 174.5 L249.05 171.05 242.6 213.75 Q238.85 223.75 233.8 232.7 L230.4 174.5 M161.5 243.85 L166.05 234.2 165.5 233.75 166.05 234.2 161.5 243.85 159.6 247.85 163.5 254.1 161.5 243.85 M141.35 257.75 L145.9 256.9 157.8 278.85 155.65 277.65 155.4 277.6 155.65 280.65 156.15 283.0 156.85 285.05 156.85 286.0 156.65 286.55 154.7 286.8 151.75 285.3 150.05 283.7 141.35 257.75 M131.4 293.8 L140.05 299.05 140.05 328.05 112.05 312.05 112.05 282.05 131.4 293.8 M151.05 339.65 L140.05 333.05 140.05 328.05 151.05 333.05 151.05 339.65 M287.4 208.7 L252.7 259.75 241.25 283.25 239.1 285.95 232.9 293.2 227.65 298.9 226.5 300.05 221.55 297.25 221.75 296.4 221.95 295.45 221.25 296.2 220.75 296.75 219.5 294.6 220.05 293.35 221.65 289.65 237.8 266.0 250.7 249.75 246.85 230.6 247.7 229.95 Q254.0 231.7 268.75 221.8 L271.25 220.1 278.1 215.0 Q284.75 211.15 287.4 208.7 M265.2 262.7 L270.65 264.0 251.6 299.85 249.0 302.05 244.8 304.0 242.4 303.6 Q242.15 302.45 242.65 301.55 245.4 296.8 246.8 291.2 L246.45 291.3 243.4 292.9 265.2 262.7 M221.15 293.85 L220.05 293.35 221.15 293.85 M229.25 363.35 Q220.85 363.4 195.85 348.95 L200.7 343.45 204.35 337.15 203.05 336.05 205.05 335.1 204.35 337.15 214.8 346.0 232.95 355.25 229.25 363.35 M172.05 235.95 L172.0 235.65 171.9 235.9 172.05 235.95 M215.7 288.7 L216.1 289.1 205.15 294.0 208.1 302.6 209.15 307.9 209.2 308.2 210.65 315.25 210.15 317.65 210.05 317.65 208.2 317.9 208.0 317.55 207.8 317.05 207.55 317.4 207.3 317.75 202.1 316.9 201.9 316.4 201.8 316.1 201.7 315.9 200.9 314.2 200.2 312.55 198.6 308.4 198.2 306.85 199.6 296.5 195.9 274.05 Q196.6 275.1 199.35 277.35 L199.7 277.6 201.2 279.3 202.3 280.4 202.8 280.85 203.4 281.45 Q210.15 287.6 215.7 288.7 M192.6 309.15 L191.1 307.8 190.85 307.6 Q189.5 309.65 189.6 312.05 189.5 312.35 188.85 312.7 L187.05 312.1 186.15 311.25 185.05 310.15 184.1 308.75 185.7 293.2 189.8 294.2 192.6 309.15 M197.0 252.0 L197.25 254.2 197.0 252.0 M205.15 294.0 L199.6 296.5 205.15 294.0 M221.45 291.8 L221.6 291.9 221.55 291.75 221.45 291.8 M234.1 297.9 L234.0 297.95 234.2 297.6 234.1 297.9" fill="#6633ff" fill-rule="evenodd" stroke="none"/>
    <path d="M193.3 219.55 L195.9 242.45 195.05 250.55 195.35 251.05 197.25 254.2 199.25 272.2 194.8 267.7 187.4 272.7 186.25 271.7 187.65 265.95 183.85 269.4 Q182.3 267.75 181.1 265.8 L180.5 265.25 Q179.35 265.15 178.25 265.95 L176.4 267.45 175.7 268.05 174.4 268.8 170.6 266.05 169.95 265.6 165.4 257.1 Q166.4 254.05 167.55 251.05 L168.55 248.55 169.8 251.05 Q173.1 256.9 178.55 261.05 L183.05 251.05 Q189.45 235.65 193.3 219.55 M136.85 215.95 L136.9 216.35 Q136.95 216.95 137.85 217.9 L156.3 254.95 145.9 256.9 141.35 257.75 134.6 259.0 131.8 257.95 Q126.35 245.5 128.75 232.75 L132.4 213.6 132.05 206.3 136.85 215.95 M147.05 282.55 Q145.6 281.8 143.95 281.4 L142.8 280.8 142.45 287.6 142.0 292.45 142.0 292.5 141.9 292.4 139.55 289.2 138.15 286.85 134.45 279.7 131.0 272.8 130.5 271.8 Q129.0 268.1 132.1 266.6 135.05 265.15 138.35 266.15 L143.9 276.7 147.05 282.55 M151.05 339.65 L151.05 333.05 140.05 328.05 149.8 320.8 158.6 325.3 176.45 331.95 176.05 334.25 151.05 339.65 M191.05 337.05 L189.9 323.2 196.65 329.9 204.7 325.95 211.8 325.95 216.0 322.95 216.9 329.4 205.05 335.1 203.05 336.05 204.35 337.15 200.7 343.45 191.05 337.05 M247.35 332.55 L247.1 326.0 Q252.0 323.75 256.4 320.0 L257.2 318.8 258.35 315.65 258.45 315.45 260.55 314.55 262.0 331.5 258.8 332.9 255.05 332.45 247.35 332.55 M151.05 333.05 L158.6 325.3 151.05 333.05 M271.8 275.75 Q276.25 274.5 279.5 276.6 282.9 278.7 279.9 283.8 L278.95 285.2 Q275.65 289.8 272.45 294.7 L265.6 304.55 Q262.6 308.6 259.15 312.15 L259.0 312.3 259.0 312.25 Q260.0 303.85 261.6 296.0 L260.0 296.8 Q257.8 297.35 255.75 298.35 L254.35 299.1 249.0 302.05 251.6 299.85 Q256.6 295.5 261.5 290.3 L271.8 275.75 M286.25 285.3 L293.1 307.05 281.1 328.05 277.45 316.05 275.45 311.25 272.65 297.5 286.25 285.3 M265.7 344.45 L261.4 359.0 238.25 356.0 Q237.9 358.45 232.25 362.6 231.15 363.35 229.25 363.35 L232.95 355.25 241.5 348.75 243.6 345.85 265.7 344.45 M208.0 317.55 L207.55 317.4 207.8 317.05 208.0 317.55 M202.1 316.9 L200.4 316.65 200.3 316.55 201.9 316.4 202.1 316.9 M181.95 307.05 Q181.0 306.15 179.8 305.45 L179.15 304.75 178.45 305.65 174.45 310.15 174.35 310.1 Q173.55 308.05 173.3 306.05 L172.95 301.4 172.6 297.1 172.6 296.55 Q172.65 294.35 175.55 294.6 178.2 294.7 180.5 296.2 L181.95 307.05 M179.95 291.8 L178.15 290.6 Q178.0 283.5 184.0 278.5 L189.3 273.9 192.85 271.0 194.8 267.7 195.9 274.05 199.6 296.5 189.8 294.2 185.7 293.2 179.95 291.8 M221.25 296.2 L221.95 295.45 221.75 296.4 221.25 296.2 M226.5 300.05 L227.65 298.9 232.9 293.2 239.1 285.95 241.25 283.25 234.35 297.35 234.2 297.6 234.0 297.95 228.2 301.05 226.5 300.05 M214.95 315.05 L212.15 315.2 214.9 314.85 214.95 315.05 M261.5 290.3 L255.75 298.35 261.5 290.3" fill="#2b01d3" fill-rule="evenodd" stroke="none"/>
    <path d="M189.05 182.05 L217.8 176.8 203.6 262.4 203.05 264.05 200.2 258.4 197.0 252.0 195.9 242.45 193.3 219.55 189.05 182.05 M161.2 272.0 L162.4 273.95 165.45 278.35 163.2 278.9 161.2 272.0 M138.9 289.6 L141.95 294.9 142.25 297.2 142.3 297.3 140.05 299.05 131.4 293.8 138.9 289.6 M149.85 283.45 L150.05 283.7 151.75 285.3 149.15 283.85 149.85 283.45 M209.15 307.9 L209.3 308.1 209.2 308.2 209.15 307.9 M198.65 314.95 L197.4 313.7 197.3 313.6 198.2 306.85 198.6 308.4 200.2 312.55 200.9 314.2 198.65 314.95" fill="#e6dfff" fill-rule="evenodd" stroke="none"/>
    <path d="M156.3 254.95 L161.2 272.0 163.2 278.9 165.45 278.35 166.05 279.2 169.2 283.4 169.9 284.25 169.55 284.4 168.35 284.95 164.35 282.6 164.25 282.55 159.4 279.75 157.8 278.85 145.9 256.9 156.3 254.95 M174.3 281.4 L174.3 281.0 174.5 281.3 174.3 281.4 M170.35 266.4 L169.95 265.6 170.6 266.05 170.55 266.05 170.35 266.4 M134.6 259.0 L141.35 257.75 150.05 283.7 149.85 283.45 Q146.75 280.4 143.9 276.7 L138.35 266.15 134.6 259.0 M252.7 259.75 L265.2 262.7 243.4 292.9 234.1 297.9 234.2 297.6 234.35 297.35 241.25 283.25 252.7 259.75 M270.65 264.0 L278.75 265.95 271.8 275.75 261.5 290.3 Q256.6 295.5 251.6 299.85 L270.65 264.0 M281.9 284.15 L287.1 285.0 286.25 285.3 272.65 297.5 260.55 314.55 258.45 315.45 281.9 284.15 M201.7 315.9 L199.95 316.2 198.65 314.95 200.9 314.2 201.7 315.9 M197.3 313.6 L192.6 309.15 189.8 294.2 199.6 296.5 198.2 306.85 197.3 313.6 M185.05 310.15 L182.55 307.7 181.95 307.05 180.5 296.2 179.95 291.8 185.7 293.2 184.1 308.75 185.05 310.15" fill="#b5abfe" fill-rule="evenodd" stroke="none"/>
    <path d="M216.9 329.4 L230.05 323.05 247.35 332.55 255.05 332.45 258.8 332.9 262.4 334.45 270.1 338.05 265.7 344.45 243.6 345.85 241.5 348.75 232.95 355.25 214.8 346.0 204.35 337.15 205.05 335.1 216.9 329.4" fill="#827bfd" fill-rule="evenodd" stroke="none"/>
    <path d="M217.8 176.8 L230.4 174.5 230.3 128.2 203.05 66.0 286.1 144.0 Q267.6 157.55 249.05 171.05 267.6 157.55 286.1 144.0 L272.95 211.4 247.7 229.95 246.85 230.6 221.65 289.65 220.05 293.35 219.55 293.1 220.05 293.35 219.5 294.6 220.75 296.75 221.25 296.2 221.75 296.4 221.55 297.25 226.5 300.05 228.2 301.05 234.0 297.95 234.1 297.9 231.6 303.0 234.1 297.9 243.4 292.9 246.45 291.3 246.8 291.2 Q245.4 296.8 242.65 301.55 242.15 302.45 242.4 303.6 L244.8 304.0 249.0 302.05 254.35 299.1 255.75 298.35 Q257.8 297.35 260.0 296.8 L261.6 296.0 Q260.0 303.85 259.0 312.25 L259.0 312.3 259.15 312.15 Q262.6 308.6 265.6 304.55 L272.45 294.7 Q275.65 289.8 278.95 285.2 L279.9 283.8 Q282.9 278.7 279.5 276.6 276.25 274.5 271.8 275.75 L278.75 265.95 270.65 264.0 265.2 262.7 252.7 259.75 287.4 208.7 Q288.8 207.45 289.1 206.55 L289.25 206.0 298.3 192.75 301.85 257.55 281.9 284.15 258.45 315.45 258.35 315.65 257.2 318.8 256.4 320.0 Q252.0 323.75 247.1 326.0 L247.35 332.55 230.05 323.05 216.9 329.4 216.0 322.95 211.8 325.95 204.7 325.95 196.65 329.9 189.9 323.2 191.05 337.05 185.55 331.7 176.45 331.95 158.6 325.3 149.8 320.8 140.05 328.05 140.05 299.05 142.3 297.3 142.25 297.2 141.95 294.9 138.9 289.6 127.55 269.7 117.8 252.65 132.05 206.3 132.4 213.6 128.75 232.75 Q126.35 245.5 131.8 257.95 L134.6 259.0 138.35 266.15 Q135.05 265.15 132.1 266.6 129.0 268.1 130.5 271.8 L131.0 272.8 134.45 279.7 138.15 286.85 139.55 289.2 141.9 292.4 142.0 292.5 142.0 292.45 142.45 287.6 142.8 280.8 143.95 281.4 Q145.6 281.8 147.05 282.55 L148.0 283.15 149.15 283.85 151.75 285.3 154.7 286.8 156.65 286.55 156.85 286.0 156.85 285.05 156.15 283.0 155.65 280.65 155.4 277.6 155.65 277.65 157.8 278.85 159.4 279.75 164.25 282.55 164.35 282.6 168.35 284.95 169.55 284.4 169.9 284.25 170.4 284.0 174.3 281.4 174.5 281.3 176.3 280.1 175.6 276.9 170.35 266.4 170.55 266.05 170.6 266.05 174.4 268.8 175.7 268.05 176.4 267.45 178.25 265.95 Q179.35 265.15 180.5 265.25 L181.1 265.8 Q182.3 267.75 183.85 269.4 L187.65 265.95 186.25 271.7 187.4 272.7 194.8 267.7 192.85 271.0 189.3 273.9 184.0 278.5 Q178.0 283.5 178.15 290.6 L179.95 291.8 180.5 296.2 Q178.2 294.7 175.55 294.6 172.65 294.35 172.6 296.55 L172.6 297.1 172.95 301.4 173.3 306.05 Q173.55 308.05 174.35 310.1 L174.45 310.15 178.45 305.65 179.15 304.75 179.8 305.45 Q181.0 306.15 181.95 307.05 L182.55 307.7 185.05 310.15 186.15 311.25 187.05 312.1 188.85 312.7 Q189.5 312.35 189.6 312.05 189.5 309.65 190.85 307.6 L191.1 307.8 192.6 309.15 197.3 313.6 197.4 313.7 198.65 314.95 199.95 316.2 201.7 315.9 201.8 316.1 201.9 316.4 200.3 316.55 200.4 316.65 202.1 316.9 207.3 317.75 207.55 317.4 208.0 317.55 208.2 317.9 210.05 317.65 210.15 317.65 210.65 315.25 209.2 308.2 209.3 308.1 209.15 307.9 208.1 302.6 205.15 294.0 216.1 289.1 215.7 288.7 199.25 272.2 197.25 254.2 Q198.65 256.4 200.2 258.4 L203.05 264.05 203.6 262.4 217.8 176.8 M230.4 174.5 L233.8 232.7 Q238.85 223.75 242.6 213.75 L249.05 171.05 230.4 174.5 M142.75 296.3 L141.95 294.9 142.75 296.3 M256.85 317.6 L258.35 315.65 256.85 317.6 M246.4 311.55 L255.75 298.35 246.4 311.55 M281.1 328.05 L262.0 331.5 260.55 314.55 272.65 297.5 275.45 311.25 277.45 316.05 281.1 328.05 M295.6 202.9 L298.3 192.75 295.6 202.9 M171.9 235.9 L172.0 235.65 172.05 235.95 171.9 235.9 M176.3 280.1 L187.4 272.7 176.3 280.1 M221.6 291.9 L221.45 291.8 221.55 291.75 221.6 291.9 M219.5 294.6 L219.2 295.35 219.5 294.6 M214.95 315.05 L214.9 314.85 212.15 315.2 214.95 315.05 M255.4 316.75 L246.85 320.45 255.4 316.75" fill="#0f0172" fill-rule="evenodd" stroke="none"/>
    <path d="M200.3 88.95 L199.7 93.7 189.05 182.05 193.3 219.55 195.9 242.45 197.0 252.0 197.25 254.2 199.25 272.2 215.7 288.7 216.1 289.1 205.15 294.0 199.6 296.5 189.8 294.2 M173.3 171.1 L189.05 182.05 M249.05 171.05 Q267.6 157.55 286.1 144.0 L203.05 66.0 144.05 148.6 143.05 150.0 158.35 227.85 162.35 231.1 165.5 233.75 166.05 234.2 161.5 243.85 163.5 254.1 M159.6 247.85 L156.3 254.95 M174.5 281.3 L176.3 280.1 187.4 272.7 194.8 267.7 199.25 272.2 M137.85 217.9 L136.85 215.95 M131.8 257.95 L134.6 259.0 138.35 266.15 143.9 276.7 147.05 282.55 M158.35 227.85 L132.05 206.3 117.8 252.65 127.55 269.7 138.9 289.6 141.95 294.9 142.75 296.3 M150.05 283.7 L141.35 257.75 M131.4 293.8 L140.05 299.05 142.3 297.3 M112.05 282.05 L131.4 293.8 M127.55 269.7 L112.05 282.05 112.05 312.05 140.05 328.05 140.05 333.05 151.05 339.65 151.05 333.05 140.05 328.05 M161.5 243.85 L159.6 247.85 M176.45 331.95 L185.55 331.7 191.05 337.05 200.7 343.45 195.85 348.95 Q220.85 363.4 229.25 363.35 231.15 363.35 232.25 362.6 237.9 358.45 238.25 356.0 L261.4 359.0 265.7 344.45 270.1 338.05 262.4 334.45 262.0 331.5 281.1 328.05 293.1 307.05 286.25 285.3 272.65 297.5 260.55 314.55 258.45 315.45 281.9 284.15 287.1 285.0 286.25 285.3 M258.35 315.65 L256.85 317.6 M158.6 325.3 L151.05 333.05 M289.25 206.0 L287.4 208.7 M278.75 265.95 L271.8 275.75 261.5 290.3 255.75 298.35 246.4 311.55 M272.95 211.4 L247.7 229.95 246.85 230.6 250.7 249.75 M221.65 289.65 L220.05 293.35 221.15 293.85 M281.9 284.15 L301.85 257.55 298.3 192.75 295.6 202.9 M172.05 235.95 L171.9 235.9 M170.6 266.05 L169.95 265.6 M174.5 281.3 L174.3 281.4 M169.9 284.25 L169.55 284.4 M185.7 293.2 L184.1 308.75 M195.9 274.05 L199.6 296.5 198.2 306.85 197.3 313.6 M195.9 274.05 L194.8 267.7 M221.45 291.8 L221.6 291.9 M219.55 293.1 L220.05 293.35 219.5 294.6 219.2 295.35 M241.25 283.25 L252.7 259.75 M234.35 297.35 L241.25 283.25 M231.6 303.0 L234.1 297.9 M205.05 335.1 L204.35 337.15 214.8 346.0 232.95 355.25 241.5 348.75 243.6 345.85 265.7 344.45 M205.05 335.1 L203.05 336.05 204.35 337.15 200.7 343.45 M151.05 339.65 L176.05 334.25 176.45 331.95 M232.95 355.25 L229.25 363.35 M258.35 315.65 L258.45 315.45 M246.85 320.45 L255.4 316.75 M247.35 332.55 L255.05 332.45 258.8 332.9 262.0 331.5 M258.8 332.9 L262.4 334.45 M221.65 289.65 L246.85 230.6 M286.1 144.0 L272.95 211.4 298.3 192.75 289.25 206.0" ffdec:has-small-stroke="true" ffdec:original-stroke-width="0.05" fill="none" stroke="#ffffff" stroke-linecap="round" stroke-linejoin="round" stroke-width="1.0"/>
    <path d="M112.6 111.75 L133.8 122.55 133.8 93.55 147.95 130.35 157.25 111.0 157.25 127.35 Q174.9 119.0 192.35 110.45 L170.25 130.55 169.15 130.35 156.85 139.25 162.6 137.4 153.9 145.2 148.3 158.8 Q143.65 158.95 147.0 161.95 L145.9 164.75 Q142.9 163.6 139.75 163.25 L144.95 166.95 143.85 169.75 139.95 168.45 136.4 147.45 98.7 152.85 136.05 138.55 104.45 134.8 135.5 130.15 112.6 111.75" fill="#ffffff" fill-rule="evenodd" stroke="none"/>
    <path d="M225.7 142.85 L245.6 152.95 245.6 125.75 258.85 160.3 267.55 142.15 267.55 157.5 Q284.15 149.65 300.55 141.6 L279.75 160.45 278.7 160.3 267.2 168.65 272.6 166.9 264.4 174.25 259.2 186.95 Q254.85 187.15 257.95 189.95 L256.9 192.55 Q254.15 191.5 251.15 191.15 L256.05 194.65 255.0 197.25 251.35 196.05 248.05 176.35 212.6 181.4 247.7 167.95 218.05 164.45 247.15 160.1 225.7 142.85" fill="#ffffff" fill-rule="evenodd" stroke="none"/>
    <path d="M207.1 257.25 L221.7 264.65 221.7 244.7 231.45 270.05 237.85 256.75 237.85 268.0 262.05 256.35 246.8 270.2 246.05 270.05 237.6 276.2 241.55 274.9 235.55 280.3 231.7 289.65 Q228.5 289.75 230.8 291.8 L230.05 293.75 Q228.0 292.95 225.8 292.7 L229.4 295.25 228.6 297.2 225.95 296.3 223.5 281.85 197.5 285.55 223.25 275.7 201.5 273.1 222.85 269.9 207.1 257.25" fill="#ffffff" fill-rule="evenodd" stroke="none"/>
  </g>
</svg>
