<?xml version="1.0" encoding="UTF-8" standalone="no"?>
<svg xmlns:ffdec="https://www.free-decompiler.com/flash" xmlns:xlink="http://www.w3.org/1999/xlink" ffdec:objectType="shape" height="201.8px" width="117.8px" xmlns="http://www.w3.org/2000/svg">
  <g transform="matrix(1.0, 0.0, 0.0, 1.0, -157.1, -65.9)">
    <path d="M157.6 267.2 L157.6 239.2 164.6 203.5 165.6 200.65 165.6 244.0 157.6 267.2" fill="#ffffff" fill-rule="evenodd" stroke="none"/>
    <path d="M171.55 185.3 Q171.65 183.55 172.3 181.7 173.05 179.3 175.25 177.1 L175.8 175.9 Q182.2 162.6 196.0 167.05 L196.0 167.0 Q196.65 158.55 182.9 160.25 L199.75 123.05 228.0 118.2 229.2 119.2 231.0 121.4 Q231.8 129.85 228.65 137.4 225.7 144.5 220.4 150.4 215.4 155.6 211.5 161.15 L209.6 163.2 Q215.25 160.25 220.55 156.45 216.4 159.85 211.35 162.6 210.0 163.3 208.75 163.95 L224.8 160.8 181.15 231.25 165.6 244.0 165.6 200.65 Q171.3 210.3 183.45 204.9 201.65 197.0 205.65 175.75 192.05 201.55 177.0 197.0 171.05 191.8 171.55 185.3 L175.25 177.1 171.55 185.3" fill="#eb3218" fill-rule="evenodd" stroke="none"/>
    <path d="M256.0 77.6 L267.1 69.0 270.0 122.4 256.0 122.4 256.0 77.6" fill="#f7a49f" fill-rule="evenodd" stroke="none"/>
    <path d="M267.1 69.0 L270.4 66.4 274.4 122.4 270.0 122.4 229.3 214.1 220.0 199.2 256.0 122.4 270.0 122.4 267.1 69.0" fill="#fbd3d2" fill-rule="evenodd" stroke="none"/>
    <path d="M181.15 231.25 L220.0 199.2 229.3 214.1 270.0 122.4 274.4 122.4 232.0 218.4 157.6 267.2 165.6 244.0 181.15 231.25" fill="#fce3e2" fill-rule="evenodd" stroke="none"/>
    <path d="M232.0 237.6 L178.4 267.2 157.6 267.2 232.0 218.4 232.0 237.6" fill="#690e0a" fill-rule="evenodd" stroke="none"/>
    <path d="M199.75 123.05 L204.0 113.6 256.0 77.6 256.0 122.4 220.0 199.2 181.15 231.25 224.8 160.8 208.75 163.95 Q210.0 163.3 211.35 162.6 216.4 159.85 220.55 156.45 234.55 144.75 237.85 125.3 238.6 120.85 238.4 116.4 L228.0 118.2 199.75 123.05" fill="#de1e14" fill-rule="evenodd" stroke="none"/>
    <path d="M274.4 122.4 L274.4 146.6 232.0 237.6 232.0 218.4 274.4 122.4" fill="#c21212" fill-rule="evenodd" stroke="none"/>
    <path d="M164.6 203.5 L165.6 198.4 171.55 185.3 Q171.05 191.8 177.0 197.0 192.05 201.55 205.65 175.75 201.65 197.0 183.45 204.9 171.3 210.3 165.6 200.65 L164.6 203.5 M175.8 175.9 L182.9 160.25 Q196.65 158.55 196.0 167.0 L196.0 167.05 Q182.2 162.6 175.8 175.9 M228.0 118.2 L238.4 116.4 Q238.6 120.85 237.85 125.3 234.55 144.75 220.55 156.45 215.25 160.25 209.6 163.2 L211.5 161.15 Q215.4 155.6 220.4 150.4 225.7 144.5 228.65 137.4 231.8 129.85 231.0 121.4 L229.2 119.2 228.0 118.2" fill="#f59494" fill-rule="evenodd" stroke="none"/>
    <path d="M256.0 77.6 L267.1 69.0 270.4 66.4 274.4 122.4 274.4 146.6 232.0 237.6 178.4 267.2 157.6 267.2 157.6 239.2 164.6 203.5 165.6 198.4 171.55 185.3 175.25 177.1 175.8 175.9 182.9 160.25 199.75 123.05 204.0 113.6 256.0 77.6 Z" fill="none" stroke="#000000" stroke-linecap="round" stroke-linejoin="round" stroke-opacity="0.6" stroke-width="1.0"/>
  </g>
</svg>
