<?xml version="1.0" encoding="UTF-8" standalone="no"?>
<svg xmlns:ffdec="https://www.free-decompiler.com/flash" xmlns:xlink="http://www.w3.org/1999/xlink" ffdec:objectType="shape" height="88.35px" width="85.85px" xmlns="http://www.w3.org/2000/svg">
  <g transform="matrix(1.0, 0.0, 0.0, 1.0, -232.75, -156.3)">
    <path d="M233.2 179.0 L235.7 176.55 235.75 176.5 254.15 158.4 254.9 159.55 242.1 181.3 241.6 182.15 242.1 181.3 264.25 198.05 264.35 198.0 274.35 190.95 271.0 200.15 270.95 200.85 270.95 201.0 Q270.65 206.75 278.15 212.45 L289.3 212.9 284.3 219.7 283.75 219.9 278.25 221.75 278.05 221.8 263.7 202.7 261.6 199.9 264.25 198.05 261.6 199.9 263.7 202.7 252.4 212.5 276.35 233.85 274.7 244.4 246.75 217.4 243.4 214.15 261.45 199.95 233.2 179.0 M250.4 210.75 L252.4 212.5 246.75 217.4 252.4 212.5 250.4 210.75" fill="url(#gradient0)" fill-rule="evenodd" stroke="none"/>
    <path d="M243.4 214.15 L242.7 213.5 232.75 179.45 233.2 179.0 261.45 199.95 243.4 214.15" fill="url(#gradient1)" fill-rule="evenodd" stroke="none"/>
    <path d="M254.15 158.4 L254.4 158.15 255.75 158.1 254.9 159.55 255.75 158.1 295.7 156.3 296.55 157.15 287.6 189.95 287.25 189.6 275.55 190.55 274.95 190.55 274.65 190.15 254.9 159.55 254.15 158.4 M283.35 193.0 L286.9 191.75 295.15 200.85 292.85 203.95 283.35 193.0" fill="url(#gradient2)" fill-rule="evenodd" stroke="none"/>
    <path d="M275.55 190.55 L287.25 189.6 287.6 189.95 287.4 190.6 287.6 189.95 297.8 201.0 294.0 206.4 308.3 212.25 308.2 212.45 305.15 215.9 292.3 208.75 289.3 212.9 278.15 212.45 Q270.65 206.75 270.95 201.0 L270.95 200.85 271.0 200.15 274.35 190.95 274.95 190.55 274.95 190.6 275.55 190.55 M283.35 193.0 L292.85 203.95 295.15 200.85 286.9 191.75 283.35 193.0 M292.3 208.75 L294.0 206.4 292.3 208.75" fill="url(#gradient3)" fill-rule="evenodd" stroke="none"/>
    <path d="M242.1 181.3 L254.9 159.55 274.65 190.15 274.95 190.55 274.35 190.95 264.35 198.0 264.25 198.05 242.1 181.3 M263.7 202.7 L278.05 221.8 278.25 221.75 276.35 233.85 252.4 212.5 263.7 202.7 M274.65 190.15 L274.35 190.95 274.65 190.15 M308.3 212.25 L294.0 206.4 297.8 201.0 317.65 182.25 308.3 212.25" fill="url(#gradient4)" fill-rule="evenodd" stroke="none"/>
    <path d="M287.6 189.95 L296.55 157.15 318.6 179.2 317.65 182.25 297.8 201.0 287.6 189.95 M283.75 219.9 L284.3 219.7 289.3 212.9 292.3 208.75 305.15 215.9 280.65 243.45 283.75 219.9" fill="url(#gradient5)" fill-rule="evenodd" stroke="none"/>
    <path d="M278.25 221.75 L283.75 219.9 280.65 243.45 274.95 244.65 274.7 244.4 276.35 233.85 278.25 221.75" fill="url(#gradient6)" fill-rule="evenodd" stroke="none"/>
    <path d="M235.7 176.55 L235.75 176.5 M255.75 158.1 L256.05 157.5 M241.6 182.15 L242.1 181.3 254.9 159.55 255.75 158.1 M264.35 198.0 L264.25 198.05 242.1 181.3 M289.3 212.9 L278.15 212.45 Q270.65 206.75 270.95 201.0 L270.95 200.85 271.0 200.15 274.35 190.95 274.65 190.15 M292.3 208.75 L305.15 215.9 M246.75 217.4 L252.4 212.5 250.4 210.75 M263.7 202.7 L252.4 212.5 276.35 233.85" ffdec:has-small-stroke="true" ffdec:original-stroke-width="0.05" fill="none" stroke="#999999" stroke-linecap="round" stroke-linejoin="round" stroke-opacity="0.4117647" stroke-width="1.0"/>
    <path d="M243.4 214.15 L242.7 213.5 232.75 179.45 233.2 179.0 235.7 176.55 M235.75 176.5 L254.15 158.4 254.4 158.15 255.75 158.1 295.7 156.3 296.55 157.15 296.75 156.3 M254.9 159.55 L254.15 158.4 M254.9 159.55 L274.65 190.15 274.95 190.55 275.55 190.55 287.25 189.6 287.6 189.95 296.55 157.15 318.6 179.2 317.65 182.25 318.6 181.25 M274.35 190.95 L264.35 198.0 M264.25 198.05 L261.6 199.9 263.7 202.7 278.05 221.8 278.25 221.75 283.75 219.9 284.3 219.7 289.3 212.9 292.3 208.75 294.0 206.4 297.8 201.0 287.6 189.95 287.4 190.6 M274.95 190.55 L274.95 190.6 275.55 190.55 M274.95 190.55 L274.35 190.95 M305.15 215.9 L308.2 212.45 308.3 212.25 294.0 206.4 M305.15 215.9 L280.65 243.45 274.95 244.65 274.7 244.4 246.75 217.4 243.4 214.15 261.45 199.95 233.2 179.0 M276.35 233.85 L274.7 244.4 M276.35 233.85 L278.25 221.75 M280.65 243.45 L283.75 219.9 M308.3 212.25 L317.65 182.25 297.8 201.0" ffdec:has-small-stroke="true" ffdec:original-stroke-width="0.05" fill="none" stroke="#999999" stroke-linecap="round" stroke-linejoin="round" stroke-opacity="0.4117647" stroke-width="1.0"/>
  </g>
  <defs>
    <radialGradient cx="0" cy="0" gradientTransform="matrix(1.0, 0.0, 0.0, 1.0, 0.0, 0.0)" gradientUnits="userSpaceOnUse" id="gradient0" r="819.2" spreadMethod="pad">
      <stop offset="0.10196078431372549" stop-color="#ffffff"/>
      <stop offset="0.3137254901960784" stop-color="#279526"/>
    </radialGradient>
    <radialGradient cx="0" cy="0" gradientTransform="matrix(1.0, 0.0, 0.0, 1.0, -112.7, 33.7)" gradientUnits="userSpaceOnUse" id="gradient1" r="819.2" spreadMethod="pad">
      <stop offset="0.10196078431372549" stop-color="#ffffff"/>
      <stop offset="0.3137254901960784" stop-color="#a7e9aa"/>
    </radialGradient>
    <radialGradient cx="0" cy="0" gradientTransform="matrix(1.0, 0.0, 0.0, 1.0, -112.7, 33.7)" gradientUnits="userSpaceOnUse" id="gradient2" r="819.2" spreadMethod="pad">
      <stop offset="0.10196078431372549" stop-color="#ffffff"/>
      <stop offset="0.3137254901960784" stop-color="#c4f0c6"/>
    </radialGradient>
    <radialGradient cx="0" cy="0" gradientTransform="matrix(1.0, 0.0, 0.0, 1.0, 0.0, 0.0)" gradientUnits="userSpaceOnUse" id="gradient3" r="819.2" spreadMethod="pad">
      <stop offset="0.10196078431372549" stop-color="#ffffff"/>
      <stop offset="0.3137254901960784" stop-color="#47cf47"/>
    </radialGradient>
    <radialGradient cx="0" cy="0" gradientTransform="matrix(1.0, 0.0, 0.0, 1.0, -112.7, 33.7)" gradientUnits="userSpaceOnUse" id="gradient4" r="819.2" spreadMethod="pad">
      <stop offset="0.10196078431372549" stop-color="#ffffff"/>
      <stop offset="0.3137254901960784" stop-color="#18611c"/>
    </radialGradient>
    <radialGradient cx="0" cy="0" gradientTransform="matrix(1.0, 0.0, 0.0, 1.0, -112.7, 33.7)" gradientUnits="userSpaceOnUse" id="gradient5" r="819.2" spreadMethod="pad">
      <stop offset="0.2627450980392157" stop-color="#ffffff"/>
      <stop offset="0.6666666666666666" stop-color="#4ad25a"/>
    </radialGradient>
    <radialGradient cx="0" cy="0" gradientTransform="matrix(1.0, 0.0, 0.0, 1.0, -112.7, 33.7)" gradientUnits="userSpaceOnUse" id="gradient6" r="819.2" spreadMethod="pad">
      <stop offset="0.10196078431372549" stop-color="#ffffff"/>
      <stop offset="0.3137254901960784" stop-color="#bfeec1"/>
    </radialGradient>
  </defs>
</svg>
