<?xml version="1.0" encoding="UTF-8" standalone="no"?>
<svg xmlns:ffdec="https://www.free-decompiler.com/flash" xmlns:xlink="http://www.w3.org/1999/xlink" ffdec:objectType="shape" height="57.3px" width="53.25px" xmlns="http://www.w3.org/2000/svg">
  <g transform="matrix(1.0, 0.0, 0.0, 1.0, -248.35, -171.3)">
    <path d="M251.55 203.25 L251.45 200.8 Q251.65 197.3 252.4 193.9 253.05 190.9 254.4 188.15 255.8 185.4 257.8 183.05 259.4 181.1 261.4 179.5 263.45 177.9 265.75 176.65 267.25 175.75 268.95 175.25 L269.9 174.95 Q271.65 174.4 273.5 174.2 L277.25 174.7 Q279.15 174.75 280.95 175.35 283.05 176.05 285.0 177.1 286.95 178.2 288.6 179.7 290.3 181.15 291.65 182.9 L293.95 186.5 295.6 189.95 296.65 193.55 297.45 198.35 297.6 202.4 296.85 202.7 296.65 202.4 Q295.8 201.4 294.6 201.4 293.4 201.4 292.55 202.4 L292.45 202.3 Q291.2 201.1 289.45 201.1 287.8 201.1 286.6 202.2 L286.1 201.35 286.0 201.25 Q284.95 199.85 283.45 199.85 281.9 199.85 280.8 201.35 L280.75 201.4 280.0 200.55 Q278.5 199.15 276.35 199.15 274.2 199.15 272.7 200.55 L272.05 201.3 Q271.0 200.35 269.6 200.35 L268.3 200.6 Q267.95 199.45 267.1 198.55 265.8 197.15 263.95 197.15 262.1 197.15 260.75 198.55 260.0 199.35 259.7 200.3 258.35 198.85 256.35 198.85 254.3 198.85 252.85 200.4 251.8 201.6 251.55 203.25 M280.45 179.65 L280.3 179.3 279.95 179.15 Q279.75 179.15 279.6 179.3 L279.45 179.65 279.6 180.0 279.95 180.15 280.3 180.0 280.45 179.65 M274.15 189.65 Q273.2 190.35 273.2 191.3 273.2 192.3 274.2 193.0 275.2 193.7 276.6 193.7 278.0 193.7 279.0 193.0 L279.2 192.9 279.4 193.1 Q281.0 194.7 283.3 194.7 285.6 194.7 287.2 193.1 288.8 191.55 288.8 189.3 288.8 187.05 287.2 185.45 285.6 183.9 283.3 183.9 281.0 183.9 279.4 185.45 277.9 186.95 277.8 189.05 L276.85 188.9 Q275.95 188.15 274.75 188.15 L273.35 188.45 274.2 186.3 276.4 183.7 261.8 183.1 259.8 184.7 258.2 186.7 257.4 189.1 272.3 189.3 272.0 189.65 274.15 189.65 M273.2 181.3 L273.6 176.5 271.4 176.9 268.0 178.5 265.25 180.7 273.2 181.3 M274.95 178.6 L274.05 178.85 Q273.7 179.15 273.7 179.5 273.7 179.85 274.05 180.1 L274.95 180.4 275.8 180.1 Q276.2 179.85 276.2 179.5 276.2 179.15 275.8 178.85 275.45 178.6 274.95 178.6 M269.3 175.9 L269.25 175.95 269.65 175.9 269.3 175.9 M287.2 199.7 Q287.0 199.4 286.7 199.4 286.4 199.4 286.15 199.7 L285.95 200.4 286.15 201.1 Q286.4 201.4 286.7 201.4 287.0 201.4 287.2 201.1 L287.45 200.4 287.2 199.7" fill="#afdea9" fill-rule="evenodd" stroke="none"/>
    <path d="M280.45 179.65 L280.3 180.0 279.95 180.15 279.6 180.0 279.45 179.65 279.6 179.3 Q279.75 179.15 279.95 179.15 L280.3 179.3 280.45 179.65 M274.95 178.6 Q275.45 178.6 275.8 178.85 276.2 179.15 276.2 179.5 276.2 179.85 275.8 180.1 L274.95 180.4 274.05 180.1 Q273.7 179.85 273.7 179.5 273.7 179.15 274.05 178.85 L274.95 178.6 M273.2 181.3 L265.25 180.7 268.0 178.5 271.4 176.9 273.6 176.5 273.2 181.3 M276.85 188.9 L277.8 189.05 Q277.9 186.95 279.4 185.45 281.0 183.9 283.3 183.9 285.6 183.9 287.2 185.45 288.8 187.05 288.8 189.3 288.8 191.55 287.2 193.1 285.6 194.7 283.3 194.7 281.0 194.7 279.4 193.1 L279.2 192.9 279.0 193.0 Q278.0 193.7 276.6 193.7 275.2 193.7 274.2 193.0 273.2 192.3 273.2 191.3 273.2 190.35 274.15 189.65 L274.2 189.6 Q275.2 188.9 276.6 188.9 L276.85 188.9 M272.3 189.3 L257.4 189.1 258.2 186.7 259.8 184.7 261.8 183.1 276.4 183.7 274.2 186.3 273.35 188.45 272.45 189.1 272.3 189.3 M266.5 223.5 L267.2 226.5 262.0 223.8 261.65 220.25 262.45 220.9 262.45 223.45 266.5 223.45 266.5 223.5" fill="#ffffff" fill-rule="evenodd" stroke="none"/>
    <path d="M269.3 175.9 L269.65 175.9 269.25 175.95 269.3 175.9" fill="#72a5e2" fill-rule="evenodd" stroke="none"/>
    <path d="M259.7 200.3 Q260.0 199.35 260.75 198.55 262.1 197.15 263.95 197.15 265.8 197.15 267.1 198.55 267.95 199.45 268.3 200.6 267.6 200.85 267.0 201.4 265.95 202.5 265.95 204.0 265.95 205.05 266.45 205.85 265.35 206.65 263.95 206.65 262.1 206.65 260.75 205.25 259.45 203.85 259.45 201.9 259.45 201.05 259.7 200.3 M292.1 213.9 Q291.8 215.15 290.85 216.2 L290.55 215.95 Q290.95 215.5 290.95 214.9 290.95 214.3 290.55 213.85 290.2 213.4 289.7 213.4 289.2 213.4 288.8 213.85 288.45 214.3 288.45 214.9 288.45 215.5 288.8 215.95 L288.55 216.05 Q287.85 215.35 286.9 215.35 L286.9 215.1 Q286.9 214.0 286.1 213.2 L285.9 213.0 Q285.15 212.4 284.15 212.4 283.0 212.4 282.2 213.2 L281.9 213.6 Q280.9 213.15 279.7 213.15 279.55 212.1 278.65 211.35 277.65 210.45 276.25 210.4 L276.25 209.9 276.0 208.25 276.3 207.9 Q277.65 206.6 279.6 206.6 L279.9 206.6 Q281.65 206.7 282.9 207.9 L283.5 208.55 Q284.55 207.7 285.9 207.5 L286.85 207.4 288.5 207.65 Q289.7 208.0 290.65 208.95 291.55 209.8 291.95 210.9 L292.25 212.65 292.1 213.9 M277.95 223.5 L277.9 223.55 277.65 223.8 277.45 223.9 Q276.7 224.45 275.6 224.45 274.5 224.45 273.7 223.9 L273.4 223.7 273.3 223.55 273.25 223.5 273.2 223.45 273.45 223.45 274.5 223.15 274.95 222.4 Q274.95 221.95 274.5 221.65 L273.7 221.35 273.85 221.3 Q273.2 220.45 273.2 219.4 273.2 218.65 273.55 218.0 L274.2 217.05 274.7 216.65 274.7 216.9 Q274.7 218.05 275.5 219.0 L275.4 219.05 275.2 219.5 275.4 219.95 275.85 220.15 276.3 219.95 276.45 219.8 Q277.05 220.2 277.75 220.4 L277.65 220.45 276.95 221.1 Q276.7 221.45 276.7 221.9 276.7 222.75 277.65 223.35 L277.95 223.5 M268.35 221.6 L268.2 221.7 268.2 221.65 267.95 221.1 267.45 220.9 266.9 221.1 266.7 221.65 266.9 222.15 266.95 222.2 266.6 222.2 266.55 222.2 266.2 222.2 265.7 222.1 264.9 221.65 264.35 221.1 264.3 221.05 264.0 220.65 Q264.65 220.5 265.1 220.0 265.7 219.4 265.75 218.5 L266.0 218.05 266.45 218.15 266.85 218.1 Q266.3 217.45 266.15 216.7 L266.05 215.85 Q266.05 215.35 266.2 214.95 L266.2 214.8 266.3 214.6 266.35 214.5 266.85 213.6 267.1 213.3 268.2 212.6 268.55 212.45 269.7 212.25 Q271.2 212.25 272.25 213.3 L272.35 213.4 272.45 213.5 Q273.35 214.5 273.35 215.8 L273.35 215.85 Q273.35 216.9 272.85 217.7 L272.75 217.9 272.25 218.4 271.55 219.0 269.7 219.45 269.0 219.4 Q268.7 219.95 268.7 220.65 L268.75 221.2 268.55 221.4 268.35 221.55 268.35 221.6 M287.2 209.65 L287.05 209.3 Q286.9 209.15 286.7 209.15 L286.35 209.3 286.2 209.65 286.35 210.0 286.7 210.15 287.05 210.0 287.2 209.65" fill="#79c76d" fill-rule="evenodd" stroke="none"/>
    <path d="M268.3 200.6 L269.6 200.35 Q271.0 200.35 272.05 201.3 271.2 202.45 271.2 203.9 271.2 204.7 271.5 205.45 270.15 205.65 269.15 206.7 L268.6 207.5 Q267.95 208.55 267.95 209.9 267.95 211.05 268.4 211.95 L268.55 212.45 268.2 212.6 267.1 213.3 266.85 213.6 266.85 213.55 266.6 213.35 266.3 213.55 266.2 214.0 266.3 214.45 266.35 214.5 266.3 214.6 266.15 214.65 Q265.9 213.65 265.0 212.9 L264.05 212.3 Q263.2 211.9 262.1 211.9 L261.7 211.95 261.8 211.0 261.8 210.55 Q261.6 209.55 260.9 208.85 L260.1 208.25 260.8 207.9 Q261.5 207.45 261.5 206.75 261.5 206.05 260.8 205.55 L260.5 205.4 260.75 205.25 Q262.1 206.65 263.95 206.65 265.35 206.65 266.45 205.85 265.95 205.05 265.95 204.0 265.95 202.5 267.0 201.4 267.6 200.85 268.3 200.6 M280.8 201.35 Q281.9 199.85 283.45 199.85 284.95 199.85 286.0 201.25 L286.1 201.35 286.6 202.2 286.45 202.3 Q285.2 203.55 285.2 205.25 285.2 206.5 285.9 207.5 284.55 207.7 283.5 208.55 L282.9 207.9 Q281.65 206.7 279.9 206.6 L279.75 205.85 280.0 205.6 Q280.45 205.1 280.45 204.4 280.45 203.7 280.0 203.15 L279.95 203.1 Q280.2 202.2 280.75 201.45 L280.8 201.35 M295.5 208.25 L295.75 209.15 295.75 209.45 295.75 209.7 295.75 209.75 Q295.75 211.45 294.6 212.65 L293.7 213.45 293.45 213.55 293.25 213.65 292.1 213.9 292.25 212.65 291.95 210.9 Q291.55 209.8 290.65 208.95 289.7 208.0 288.5 207.65 L289.1 206.8 Q290.2 205.65 291.75 205.6 L291.85 205.6 Q293.45 205.6 294.6 206.8 L295.4 207.95 295.5 208.25 M264.0 220.65 L263.6 220.65 262.25 220.0 261.9 219.85 261.85 219.75 261.5 218.9 261.45 218.4 261.45 218.35 261.7 218.15 262.0 217.65 261.8 217.2 262.05 216.8 262.9 216.3 Q262.55 216.75 262.55 217.35 262.55 218.1 263.05 218.65 263.6 219.2 264.35 219.2 265.1 219.2 265.6 218.65 L265.75 218.5 Q265.7 219.4 265.1 220.0 264.65 220.5 264.0 220.65 M272.45 213.5 L272.45 213.4 Q272.55 212.35 273.3 211.55 L273.5 211.35 Q274.6 210.4 276.1 210.4 L276.25 210.4 Q277.65 210.45 278.65 211.35 279.55 212.1 279.7 213.15 L279.75 213.65 279.75 213.85 Q279.65 215.0 278.8 215.85 L278.45 215.8 Q277.45 215.8 276.75 216.45 L276.4 216.9 276.1 216.9 274.7 216.65 Q274.05 216.4 273.5 215.95 L273.35 215.8 Q273.35 214.5 272.45 213.5 M264.3 209.9 L264.6 210.15 264.85 209.9 265.0 209.4 264.85 208.85 264.6 208.65 264.3 208.85 264.2 209.4 264.3 209.9" fill="#397e30" fill-rule="evenodd" stroke="none"/>
    <path d="M251.55 203.25 Q251.8 201.6 252.85 200.4 254.3 198.85 256.35 198.85 258.35 198.85 259.7 200.3 259.45 201.05 259.45 201.9 259.45 203.85 260.75 205.25 L260.5 205.4 259.1 205.1 Q258.1 205.1 257.4 205.55 256.7 206.05 256.7 206.75 256.7 207.45 257.4 207.9 L257.8 208.15 258.8 207.95 260.1 208.25 260.9 208.85 Q261.6 209.55 261.8 210.55 L261.8 211.0 261.7 211.95 260.9 213.15 260.8 213.3 Q259.95 214.05 258.8 214.05 257.75 214.05 256.95 213.45 L256.65 213.15 256.4 212.85 Q255.9 212.2 255.85 211.35 L255.8 211.0 Q255.8 209.75 256.65 208.85 L256.9 208.65 256.75 208.45 256.7 208.4 Q256.15 207.9 255.35 207.9 L254.95 207.95 Q254.4 208.05 254.0 208.4 L253.7 208.8 253.4 208.55 252.85 208.05 252.6 207.75 Q251.8 206.75 251.6 205.5 L251.45 204.5 251.45 204.25 251.65 204.4 251.55 203.25 M272.05 201.3 L272.7 200.55 Q274.2 199.15 276.35 199.15 278.5 199.15 280.0 200.55 L280.75 201.4 280.75 201.45 Q280.2 202.2 279.95 203.1 279.5 202.65 278.95 202.65 278.35 202.65 277.9 203.15 277.45 203.7 277.45 204.4 277.45 205.1 277.9 205.6 278.35 206.15 278.95 206.15 L279.75 205.85 279.9 206.6 279.6 206.6 Q277.65 206.6 276.3 207.9 L276.0 208.25 276.25 209.9 276.25 210.4 276.1 210.4 Q274.6 210.4 273.5 211.35 L273.3 211.55 Q272.3 210.9 271.1 210.9 269.55 210.9 268.4 211.95 267.95 211.05 267.95 209.9 267.95 208.55 268.6 207.5 L269.15 206.7 Q270.15 205.65 271.5 205.45 271.2 204.7 271.2 203.9 271.2 202.45 272.05 201.3 M286.6 202.2 Q287.8 201.1 289.45 201.1 291.2 201.1 292.45 202.3 L292.55 202.4 Q293.4 201.4 294.6 201.4 295.8 201.4 296.65 202.4 L296.85 202.7 Q297.4 203.5 297.5 204.5 L297.4 205.55 296.55 207.5 295.5 208.25 295.4 207.95 294.6 206.8 Q293.45 205.6 291.85 205.6 L291.75 205.6 Q290.2 205.65 289.1 206.8 L288.5 207.65 286.85 207.4 285.9 207.5 Q285.2 206.5 285.2 205.25 285.2 203.55 286.45 202.3 L286.6 202.2 M254.4 206.6 L254.2 207.15 254.4 207.65 Q254.65 207.9 254.95 207.9 L255.45 207.65 255.65 207.45 255.7 207.15 255.45 206.6 254.95 206.4 Q254.7 206.4 254.5 206.55 L254.4 206.6 M252.35 204.95 L252.1 205.05 Q251.95 205.2 251.95 205.4 L252.1 205.75 252.45 205.9 252.8 205.75 252.95 205.4 252.8 205.05 252.45 204.9 252.35 204.95" fill="#55b946" fill-rule="evenodd" stroke="none"/>
    <path d="M269.2 222.25 L269.05 222.45 268.7 222.65 268.35 222.45 268.2 222.0 268.35 221.6 268.35 221.55 268.55 221.4 268.7 221.35 268.8 221.35 269.05 221.55 269.2 222.0 269.2 222.25 M268.2 221.7 L267.95 222.15 267.45 222.4 Q267.15 222.4 266.95 222.2 L266.9 222.15 266.7 221.65 266.9 221.1 267.45 220.9 267.95 221.1 268.2 221.65 268.2 221.7 M256.75 214.05 L256.45 214.15 256.1 213.95 255.95 213.5 255.95 213.4 256.1 213.05 256.4 212.85 256.65 213.15 256.95 213.45 256.95 213.5 256.8 213.95 256.75 214.05 M255.2 211.4 L254.35 211.1 254.15 211.0 254.0 210.85 253.85 210.7 253.5 210.0 253.45 209.65 253.55 209.1 253.7 208.8 254.0 208.4 Q254.4 208.05 254.95 207.95 L255.35 207.9 Q256.15 207.9 256.7 208.4 L256.75 208.45 256.9 208.65 256.65 208.85 Q255.8 209.75 255.8 211.0 L255.85 211.35 255.35 211.4 255.2 211.4 M260.5 205.4 L260.8 205.55 Q261.5 206.05 261.5 206.75 261.5 207.45 260.8 207.9 L260.1 208.25 258.8 207.95 257.8 208.15 257.4 207.9 Q256.7 207.45 256.7 206.75 256.7 206.05 257.4 205.55 258.1 205.1 259.1 205.1 L260.5 205.4 M266.35 214.5 L266.3 214.45 266.2 214.0 266.3 213.55 266.6 213.35 266.85 213.55 266.85 213.6 266.35 214.5 M252.35 204.95 L252.45 204.9 252.8 205.05 252.95 205.4 252.8 205.75 252.45 205.9 252.1 205.75 251.95 205.4 Q251.95 205.2 252.1 205.05 L252.35 204.95 M254.4 206.6 L254.5 206.55 Q254.7 206.4 254.95 206.4 L255.45 206.6 255.7 207.15 255.65 207.45 255.45 207.65 254.95 207.9 Q254.65 207.9 254.4 207.65 L254.2 207.15 254.4 206.6 M261.0 214.9 L260.7 214.9 260.15 214.75 259.95 214.4 260.15 214.05 260.7 213.9 261.0 213.95 261.2 214.05 261.45 214.4 261.2 214.75 261.0 214.9 M264.3 209.9 L264.2 209.4 264.3 208.85 264.6 208.65 264.85 208.85 265.0 209.4 264.85 209.9 264.6 210.15 264.3 209.9 M263.7 213.3 L263.2 213.4 262.65 213.3 262.45 213.15 262.65 212.95 263.2 212.9 263.7 212.95 263.95 213.15 263.7 213.3 M260.45 217.1 L261.1 216.9 261.7 217.1 261.8 217.2 262.0 217.65 261.7 218.15 261.45 218.35 261.1 218.4 260.45 218.15 260.2 217.65 Q260.2 217.35 260.45 217.1 M266.0 218.05 L266.15 217.35 266.05 216.7 266.15 216.7 Q266.3 217.45 266.85 218.1 L266.45 218.15 266.0 218.05 M271.55 219.0 L272.25 218.4 272.75 217.9 273.0 218.4 272.7 218.9 272.1 219.15 271.55 219.0 M288.8 215.95 Q288.45 215.5 288.45 214.9 288.45 214.3 288.8 213.85 289.2 213.4 289.7 213.4 290.2 213.4 290.55 213.85 290.95 214.3 290.95 214.9 290.95 215.5 290.55 215.95 290.2 216.4 289.7 216.4 289.2 216.4 288.8 215.95 M287.2 199.7 L287.45 200.4 287.2 201.1 Q287.0 201.4 286.7 201.4 286.4 201.4 286.15 201.1 L285.95 200.4 286.15 199.7 Q286.4 199.4 286.7 199.4 287.0 199.4 287.2 199.7 M279.75 205.85 L278.95 206.15 Q278.35 206.15 277.9 205.6 277.45 205.1 277.45 204.4 277.45 203.7 277.9 203.15 278.35 202.65 278.95 202.65 279.5 202.65 279.95 203.1 L280.0 203.15 Q280.45 203.7 280.45 204.4 280.45 205.1 280.0 205.6 L279.75 205.85 M276.3 219.05 L276.5 219.35 276.5 219.5 276.45 219.8 276.3 219.95 275.85 220.15 275.4 219.95 275.2 219.5 275.4 219.05 275.5 219.0 Q275.65 218.85 275.85 218.85 L276.3 219.05 M273.7 221.35 L274.5 221.65 Q274.95 221.95 274.95 222.4 L274.5 223.15 273.45 223.45 273.2 223.45 Q272.75 223.4 272.4 223.15 271.95 222.85 271.95 222.4 271.95 221.95 272.4 221.65 272.85 221.35 273.45 221.35 L273.7 221.35 M287.2 209.65 L287.05 210.0 286.7 210.15 286.35 210.0 286.2 209.65 286.35 209.3 286.7 209.15 Q286.9 209.15 287.05 209.3 L287.2 209.65 M283.0 220.35 Q282.7 220.05 282.7 219.65 282.7 219.25 283.0 218.95 283.3 218.65 283.7 218.65 L284.4 218.95 284.7 219.65 284.4 220.35 283.7 220.65 Q283.3 220.65 283.0 220.35 M279.55 220.05 L279.7 220.4 279.55 220.75 279.2 220.9 278.85 220.75 278.7 220.4 278.75 220.3 279.55 220.05" fill="#783823" fill-rule="evenodd" stroke="none"/>
    <path d="M290.85 216.2 L290.65 216.35 289.25 217.4 Q289.1 216.6 288.55 216.05 L288.8 215.95 Q289.2 216.4 289.7 216.4 290.2 216.4 290.55 215.95 L290.85 216.2 M251.45 204.25 L251.45 203.9 251.55 203.25 251.65 204.4 251.45 204.25 M266.05 216.7 L265.6 216.05 264.8 215.55 Q265.4 215.05 266.2 214.95 266.05 215.35 266.05 215.85 L266.15 216.7 266.05 216.7" fill="#eecec4" fill-rule="evenodd" stroke="none"/>
    <path d="M297.5 204.5 L297.5 204.9 297.5 205.25 297.3 206.2 296.65 207.35 296.55 207.5 297.4 205.55 297.5 204.5 M286.15 220.05 L285.65 220.5 Q284.65 221.4 283.2 221.4 L283.1 221.4 282.65 220.75 283.0 220.35 Q283.3 220.65 283.7 220.65 L284.4 220.35 284.7 219.65 284.4 218.95 284.7 218.8 285.15 219.45 Q285.6 219.9 286.15 220.05 M273.25 223.5 L273.1 223.55 272.7 223.65 271.95 223.7 271.35 223.65 271.2 223.65 270.4 223.35 270.15 223.2 269.65 222.8 269.2 222.25 269.2 222.0 269.05 221.55 268.8 221.35 268.75 221.2 268.7 220.65 Q268.7 219.95 269.0 219.4 L269.7 219.45 271.55 219.0 272.1 219.15 272.7 218.9 273.0 218.4 272.75 217.9 272.85 217.7 273.55 218.0 Q273.2 218.65 273.2 219.4 273.2 220.45 273.85 221.3 L273.7 221.35 273.45 221.35 Q272.85 221.35 272.4 221.65 271.95 221.95 271.95 222.4 271.95 222.85 272.4 223.15 272.75 223.4 273.2 223.45 L273.25 223.5 M259.85 218.35 L259.75 218.3 259.15 217.85 258.65 217.35 258.3 216.85 258.4 216.85 258.85 216.9 Q259.5 216.9 259.95 216.55 L260.45 217.1 Q260.2 217.35 260.2 217.65 L260.45 218.15 261.1 218.4 261.45 218.35 261.45 218.4 261.5 218.9 259.95 218.4 259.85 218.35 M255.95 213.4 L255.9 213.35 Q255.2 212.55 255.2 211.4 L255.35 211.4 255.85 211.35 Q255.9 212.2 256.4 212.85 L256.1 213.05 255.95 213.4 M297.5 205.25 L297.4 205.55 297.5 205.25 M276.4 216.9 Q276.05 217.4 276.05 218.05 276.05 218.6 276.3 219.05 L275.85 218.85 Q275.65 218.85 275.5 219.0 274.7 218.05 274.7 216.9 L274.7 216.65 276.1 216.9 276.4 216.9 M276.5 219.35 L276.75 219.65 Q277.3 220.15 278.0 220.3 L277.75 220.4 Q277.05 220.2 276.45 219.8 L276.5 219.5 276.5 219.35 M271.35 223.65 L270.4 223.35 271.35 223.65" fill="#cf795c" fill-rule="evenodd" stroke="none"/>
    <path d="M257.65 216.5 L257.55 216.4 257.4 216.25 257.3 216.15 257.05 215.8 256.85 215.3 256.8 215.15 256.7 214.4 256.75 214.05 256.8 213.95 256.95 213.5 256.95 213.45 Q257.75 214.05 258.8 214.05 259.95 214.05 260.8 213.3 L261.0 213.95 260.7 213.9 260.15 214.05 259.95 214.4 260.15 214.75 260.7 214.9 261.0 214.9 Q260.85 215.6 260.35 216.15 L259.95 216.55 Q259.5 216.9 258.85 216.9 L258.4 216.85 258.3 216.85 257.65 216.5 M268.55 212.45 L268.4 211.95 Q269.55 210.9 271.1 210.9 272.3 210.9 273.3 211.55 272.55 212.35 272.45 213.4 L272.45 213.5 272.35 213.4 272.25 213.3 Q271.2 212.25 269.7 212.25 L268.55 212.45 M272.85 217.7 Q273.35 216.9 273.35 215.85 L273.35 215.8 273.5 215.95 Q274.05 216.4 274.7 216.65 L274.2 217.05 273.55 218.0 272.85 217.7" fill="#98472c" fill-rule="evenodd" stroke="none"/>
    <path d="M289.25 217.4 L289.25 217.75 289.2 218.2 289.1 218.65 288.55 219.45 287.65 220.05 286.95 220.15 286.85 220.15 286.15 220.05 Q285.6 219.9 285.15 219.45 L284.7 218.8 284.4 218.95 283.7 218.65 Q283.3 218.65 283.0 218.95 282.7 219.25 282.7 219.65 282.7 220.05 283.0 220.35 L282.65 220.75 283.1 221.4 283.2 221.9 283.1 222.45 283.05 222.6 282.25 223.35 Q281.45 223.85 280.4 223.95 L280.35 223.95 279.95 223.95 278.65 223.8 278.05 223.55 277.95 223.5 277.65 223.35 Q276.7 222.75 276.7 221.9 276.7 221.45 276.95 221.1 L277.65 220.45 277.75 220.4 278.0 220.3 Q277.3 220.15 276.75 219.65 L276.5 219.35 276.3 219.05 Q276.05 218.6 276.05 218.05 276.05 217.4 276.4 216.9 L276.75 216.45 Q277.45 215.8 278.45 215.8 L278.8 215.85 Q279.65 215.0 279.75 213.85 L279.75 213.65 279.7 213.15 Q280.9 213.15 281.9 213.6 L282.2 213.2 Q283.0 212.4 284.15 212.4 285.15 212.4 285.9 213.0 L286.1 213.2 Q286.9 214.0 286.9 215.1 L286.9 215.35 Q287.85 215.35 288.55 216.05 289.1 216.6 289.25 217.4 M261.7 211.95 L262.1 211.9 Q263.2 211.9 264.05 212.3 L265.0 212.9 Q265.9 213.65 266.15 214.65 L266.2 214.8 266.2 214.95 Q265.4 215.05 264.8 215.55 L265.6 216.05 266.05 216.7 266.15 217.35 266.0 218.05 265.75 218.5 265.6 218.65 Q265.1 219.2 264.35 219.2 263.6 219.2 263.05 218.65 262.55 218.1 262.55 217.35 262.55 216.75 262.9 216.3 L262.05 216.8 261.8 217.2 261.7 217.1 261.1 216.9 260.45 217.1 259.95 216.55 260.35 216.15 Q260.85 215.6 261.0 214.9 L261.2 214.75 261.45 214.4 261.2 214.05 261.0 213.95 260.8 213.3 260.9 213.15 261.7 211.95 M263.7 213.3 L263.95 213.15 263.7 212.95 263.2 212.9 262.65 212.95 262.45 213.15 262.65 213.3 263.2 213.4 263.7 213.3 M278.75 220.3 L278.7 220.4 278.85 220.75 279.2 220.9 279.55 220.75 279.7 220.4 279.55 220.05 278.75 220.3" fill="#345528" fill-rule="evenodd" stroke="none"/>
    <path d="M296.85 202.7 L297.6 202.4 297.5 204.5 Q297.4 203.5 296.85 202.7" fill="#caffff" fill-rule="evenodd" stroke="none"/>
    <path d="M280.45 179.65 L280.3 180.0 279.95 180.15 279.6 180.0 279.45 179.65 279.6 179.3 Q279.75 179.15 279.95 179.15 L280.3 179.3 280.45 179.65 M266.5 223.5 L268.7 224.35" fill="none" stroke="#ffffff" stroke-linecap="round" stroke-linejoin="round" stroke-width="1.0"/>
    <path d="M297.6 202.4 L297.45 198.35 296.65 193.55 295.6 189.95 293.95 186.5 291.65 182.9 Q290.3 181.15 288.6 179.7 286.95 178.2 285.0 177.1 283.05 176.05 280.95 175.35 279.15 174.75 277.25 174.7 L273.5 174.2 Q271.65 174.4 269.9 174.95 L268.95 175.25 Q267.25 175.75 265.75 176.65 263.45 177.9 261.4 179.5 259.4 181.1 257.8 183.05 255.8 185.4 254.4 188.15 253.05 190.9 252.4 193.9 251.65 197.3 251.45 200.8 L251.55 203.25 251.65 204.4 251.45 204.25 M297.6 202.4 L297.5 204.5 297.4 205.55" fill="none" stroke="#78c86c" stroke-linecap="round" stroke-linejoin="round" stroke-width="1.0"/>
    <path d="M297.5 185.6 Q301.1 192.0 301.1 199.95 L300.95 203.25 Q300.35 209.0 297.75 213.85 296.0 217.05 293.45 219.85 285.75 228.1 274.95 228.1 L269.5 227.5 Q262.1 225.9 256.5 219.85 248.85 211.6 248.85 199.95 248.85 188.3 256.5 180.05 264.15 171.8 274.95 171.8 285.75 171.8 293.45 180.05 295.65 182.45 297.2 185.1" fill="none" stroke="#732d28" stroke-linecap="round" stroke-linejoin="round" stroke-width="1.0"/>
    <path d="M295.75 209.45 L295.75 209.7 M280.4 223.95 L280.35 223.95 M269.2 222.25 L269.05 222.45 268.7 222.65 268.35 222.45 268.2 222.0 268.35 221.6 268.35 221.55 268.55 221.4 268.7 221.35 268.8 221.35 269.05 221.55 269.2 222.0 269.2 222.25 M268.2 221.7 L267.95 222.15 267.45 222.4 Q267.15 222.4 266.95 222.2 L266.9 222.15 266.7 221.65 266.9 221.1 267.45 220.9 267.95 221.1 268.2 221.65 268.2 221.7 M266.2 222.2 L265.7 222.1 264.9 221.65 M261.9 219.85 L259.85 218.35 M258.65 217.35 L257.65 216.5 257.55 216.4 M256.75 214.05 L256.45 214.15 256.1 213.95 255.95 213.5 255.95 213.4 256.1 213.05 256.4 212.85 M253.85 210.7 L253.5 210.0 M266.35 214.5 L266.3 214.45 266.2 214.0 266.3 213.55 266.6 213.35 266.85 213.55 266.85 213.6 M252.35 204.95 L252.45 204.9 252.8 205.05 252.95 205.4 252.8 205.75 252.45 205.9 252.1 205.75 251.95 205.4 Q251.95 205.2 252.1 205.05 L252.35 204.95 M254.4 206.6 L254.5 206.55 Q254.7 206.4 254.95 206.4 L255.45 206.6 255.7 207.15 255.65 207.45 255.45 207.65 254.95 207.9 Q254.65 207.9 254.4 207.65 L254.2 207.15 254.4 206.6 M256.95 213.45 L256.95 213.5 256.8 213.95 256.75 214.05 M261.0 214.9 L260.7 214.9 260.15 214.75 259.95 214.4 260.15 214.05 260.7 213.9 261.0 213.95 261.2 214.05 261.45 214.4 261.2 214.75 261.0 214.9 M264.3 209.9 L264.2 209.4 264.3 208.85 264.6 208.65 264.85 208.85 265.0 209.4 264.85 209.9 264.6 210.15 264.3 209.9 M263.7 213.3 L263.2 213.4 262.65 213.3 262.45 213.15 262.65 212.95 263.2 212.9 263.7 212.95 263.95 213.15 263.7 213.3 M260.45 217.1 L261.1 216.9 261.7 217.1 261.8 217.2 262.0 217.65 261.7 218.15 261.45 218.35 261.1 218.4 260.45 218.15 260.2 217.65 Q260.2 217.35 260.45 217.1 M266.05 216.7 L266.15 216.7 M266.85 218.1 L266.45 218.15 266.0 218.05 M296.55 207.5 L297.4 205.55 297.5 205.25 M272.75 217.9 L273.0 218.4 272.7 218.9 272.1 219.15 271.55 219.0 M275.5 219.0 Q275.65 218.85 275.85 218.85 L276.3 219.05 M276.45 219.8 L276.3 219.95 275.85 220.15 275.4 219.95 275.2 219.5 275.4 219.05 275.5 219.0 M276.5 219.35 L276.5 219.5 276.45 219.8 M287.2 209.65 L287.05 210.0 286.7 210.15 286.35 210.0 286.2 209.65 286.35 209.3 286.7 209.15 Q286.9 209.15 287.05 209.3 L287.2 209.65 M279.55 220.05 L279.7 220.4 279.55 220.75 279.2 220.9 278.85 220.75 278.7 220.4 278.75 220.3 M270.4 223.35 L271.35 223.65" fill="none" stroke="#57291a" stroke-linecap="round" stroke-linejoin="round" stroke-width="1.0"/>
  </g>
</svg>
