<?xml version="1.0" encoding="UTF-8" standalone="no"?>
<svg xmlns:ffdec="https://www.free-decompiler.com/flash" xmlns:xlink="http://www.w3.org/1999/xlink" ffdec:objectType="shape" height="74.65px" width="72.95px" xmlns="http://www.w3.org/2000/svg">
  <g transform="matrix(1.0, 0.0, 0.0, 1.0, -238.5, -162.95)">
    <path d="M307.35 167.7 L307.5 167.85 304.25 174.95 304.55 177.75 300.6 186.95 299.65 185.9 291.1 198.15 291.1 200.05 289.0 202.45 279.85 202.5 280.45 203.95 269.2 203.05 269.8 201.75 251.6 197.6 248.1 201.65 249.45 207.1 252.8 209.45 253.6 210.0 254.2 210.45 254.55 210.7 255.2 213.6 263.45 219.35 264.35 221.4 267.2 222.4 268.95 224.55 Q268.3 228.2 267.35 231.05 L266.55 231.5 264.1 235.85 260.75 236.8 260.55 236.75 256.4 236.0 Q259.95 235.9 263.0 233.55 L264.55 228.55 266.1 226.45 264.65 223.0 256.3 217.2 256.2 216.3 256.2 216.25 243.45 211.3 241.55 208.3 241.45 207.4 Q241.2 204.0 242.25 200.9 L244.9 199.9 244.8 198.55 248.65 195.05 248.85 196.0 258.1 196.0 259.25 193.9 258.6 190.8 261.5 187.9 260.8 185.3 258.2 184.4 248.9 175.35 245.9 180.3 243.2 181.6 238.9 179.9 239.2 177.3 241.75 178.7 242.6 179.75 248.3 172.85 262.4 185.05 263.55 190.65 262.0 190.55 261.85 195.4 Q265.55 197.6 268.85 196.45 L269.25 196.5 270.4 196.65 272.5 198.3 284.45 199.75 284.5 199.7 286.35 193.4 288.15 192.15 291.2 182.45 290.15 180.8 291.65 175.65 290.9 172.05 292.1 168.35 295.35 164.9 302.55 164.0 Q305.05 165.05 307.35 167.7 M288.95 196.6 L290.9 189.1 293.4 188.35 296.3 182.45 295.7 181.35 299.85 170.0 295.7 181.35 296.3 182.45 293.4 188.35 290.9 189.1 288.95 196.6 M273.35 201.55 L278.2 202.45 278.2 199.95 273.35 201.55 273.1 201.65 273.35 201.55 278.2 199.95 278.2 202.45 273.35 201.55 M302.05 179.5 L301.5 176.0 304.25 169.65 301.5 176.0 302.05 179.5" fill="#68402f" fill-rule="evenodd" stroke="none"/>
    <path d="M307.5 167.85 L309.15 170.1 Q313.2 178.4 309.25 184.2 L304.85 190.5 303.85 189.8 Q297.0 197.65 292.9 208.4 274.2 214.05 256.85 204.35 251.85 202.85 252.8 209.45 L249.45 207.1 248.1 201.65 251.6 197.6 269.8 201.75 269.2 203.05 280.45 203.95 279.85 202.5 289.0 202.45 291.1 200.05 291.1 198.15 299.65 185.9 300.6 186.95 304.55 177.75 304.25 174.95 307.5 167.85 M267.35 231.05 Q265.95 235.05 263.9 237.35 L260.75 236.8 264.1 235.85 266.55 231.5 267.35 231.05 M264.55 228.55 L265.0 224.9 Q254.45 216.85 242.25 211.5 241.75 209.85 241.55 208.3 L243.45 211.3 256.2 216.25 256.2 216.3 256.3 217.2 264.65 223.0 266.1 226.45 264.55 228.55 M245.9 180.3 L244.1 183.25 238.75 181.0 238.9 179.9 243.2 181.6 245.9 180.3 M248.3 172.85 L248.9 172.15 263.85 184.3 264.35 187.55 268.5 190.95 268.85 196.45 Q265.55 197.6 261.85 195.4 L262.0 190.55 263.55 190.65 262.4 185.05 248.3 172.85" fill="#4a2e22" fill-rule="evenodd" stroke="none"/>
    <path d="M254.55 210.7 Q261.55 215.75 267.2 222.4 L264.35 221.4 263.45 219.35 255.2 213.6 254.55 210.7 M242.25 200.9 Q243.7 196.55 247.8 192.75 250.85 191.4 257.7 193.65 L257.4 189.95 259.45 188.8 258.5 184.65 258.2 184.4 260.8 185.3 261.5 187.9 258.6 190.8 259.25 193.9 258.1 196.0 248.85 196.0 248.65 195.05 244.8 198.55 244.9 199.9 242.25 200.9 M239.2 177.3 L239.7 172.95 Q240.05 176.35 241.75 178.7 L239.2 177.3 M270.4 196.65 L281.7 197.1 Q286.65 189.5 288.6 176.2 L288.65 175.95 287.55 174.05 289.5 165.9 289.7 165.65 Q291.25 163.9 293.75 163.4 295.65 163.0 298.15 163.4 300.45 163.1 302.55 164.0 L295.35 164.9 292.1 168.35 290.9 172.05 291.65 175.65 290.15 180.8 291.2 182.45 288.15 192.15 286.35 193.4 284.5 199.7 284.45 199.75 272.5 198.3 270.4 196.65" fill="#a26348" fill-rule="evenodd" stroke="none"/>
    <path d="M309.25 184.2 L304.85 190.5 303.85 189.8 M257.7 193.65 L257.4 189.95 259.45 188.8 258.5 184.65 258.2 184.4 248.9 175.35 245.9 180.3 244.1 183.25 238.75 181.0 238.9 179.9 239.2 177.3 239.7 172.95 Q240.05 176.35 241.75 178.7 L242.6 179.75 248.3 172.85 248.9 172.15 263.85 184.3 264.35 187.55 268.5 190.95 268.85 196.45 M288.6 176.2 L288.65 175.95 287.55 174.05 289.5 165.9 289.7 165.65" ffdec:has-small-stroke="true" ffdec:original-stroke-width="0.5" fill="none" stroke="#000000" stroke-linecap="round" stroke-linejoin="round" stroke-opacity="0.6" stroke-width="1.0"/>
    <path d="M307.5 167.85 L309.15 170.1 Q313.2 178.4 309.25 184.2 M303.85 189.8 Q297.0 197.65 292.9 208.4 274.2 214.05 256.85 204.35 251.85 202.85 252.8 209.45 M253.6 210.0 L254.2 210.45 M254.55 210.7 Q261.55 215.75 267.2 222.4 L268.95 224.55 Q268.3 228.2 267.35 231.05 265.95 235.05 263.9 237.35 L260.75 236.8 M260.55 236.75 L256.4 236.0 Q259.95 235.9 263.0 233.55 L264.55 228.55 265.0 224.9 Q254.45 216.85 242.25 211.5 241.75 209.85 241.55 208.3 M241.45 207.4 Q241.2 204.0 242.25 200.9 243.7 196.55 247.8 192.75 250.85 191.4 257.7 193.65 M269.25 196.5 L270.4 196.65 281.7 197.1 Q286.65 189.5 288.6 176.2 M289.7 165.65 Q291.25 163.9 293.75 163.4 295.65 163.0 298.15 163.4 300.45 163.1 302.55 164.0 305.05 165.05 307.35 167.7" ffdec:has-small-stroke="true" ffdec:original-stroke-width="0.5" fill="none" stroke="#000000" stroke-linecap="round" stroke-linejoin="round" stroke-opacity="0.6" stroke-width="1.0"/>
    <path d="M273.1 201.65 L273.35 201.55 278.2 199.95 278.2 202.45 273.35 201.55" ffdec:has-small-stroke="true" ffdec:original-stroke-width="0.5" fill="none" stroke="#a26348" stroke-linecap="round" stroke-linejoin="round" stroke-width="1.0"/>
    <path d="M299.85 170.0 L295.7 181.35 296.3 182.45 293.4 188.35 290.9 189.1 288.95 196.6 M304.25 169.65 L301.5 176.0 302.05 179.5" ffdec:has-small-stroke="true" ffdec:original-stroke-width="0.5" fill="none" stroke="#784a36" stroke-linecap="round" stroke-linejoin="round" stroke-width="1.0"/>
  </g>
</svg>
