<?xml version="1.0" encoding="UTF-8" standalone="no"?>
<svg xmlns:ffdec="https://www.free-decompiler.com/flash" xmlns:xlink="http://www.w3.org/1999/xlink" ffdec:objectType="shape" height="97.65px" width="112.6px" xmlns="http://www.w3.org/2000/svg">
  <g transform="matrix(1.0, 0.0, 0.0, 1.0, -218.9, -150.9)">
    <path d="M325.55 153.95 L324.6 154.35 323.8 154.75 321.25 155.95 321.2 155.85 Q320.6 155.3 319.8 155.3 L319.55 155.3 Q318.65 154.4 317.4 154.4 L317.15 154.35 Q316.55 153.9 315.8 153.95 315.05 153.9 314.45 154.35 L314.2 154.6 Q313.7 155.05 313.55 155.7 L313.5 156.2 Q313.5 157.15 314.2 157.8 L314.1 158.6 314.2 159.5 313.05 160.1 312.3 159.0 Q311.45 158.15 310.3 158.15 309.1 158.15 308.25 159.0 307.4 159.85 307.4 161.05 L307.65 162.25 Q306.85 161.65 305.9 161.55 305.3 161.05 304.6 160.9 L303.85 160.8 Q302.6 160.8 301.7 161.7 300.8 162.55 300.85 163.85 300.8 165.1 301.7 166.0 L302.0 166.25 302.05 166.4 296.25 170.1 Q284.75 177.65 273.75 186.9 278.5 193.55 284.1 197.5 L270.15 208.05 255.05 220.0 Q246.35 227.0 237.9 234.35 L276.0 199.85 279.15 197.0 Q274.7 194.5 270.3 187.75 L269.95 187.1 269.05 185.7 270.65 184.45 272.45 183.05 267.1 183.2 265.4 184.45 259.35 188.9 250.8 195.2 250.5 195.0 265.1 180.4 275.8 180.4 277.35 179.2 282.55 175.15 290.65 168.8 282.55 175.15 263.65 175.15 252.7 183.1 236.5 194.85 236.4 194.75 236.35 194.65 251.2 181.5 253.75 179.25 256.25 177.05 249.8 177.75 Q232.15 187.5 222.4 199.9 L222.25 199.8 Q231.1 185.75 248.8 175.2 L258.1 175.2 262.9 170.6 264.85 170.45 284.0 169.25 290.65 168.8 311.05 152.85 Q318.75 149.45 325.55 153.95 M258.1 175.2 L256.25 177.05 258.1 175.2" fill="#5c4925" fill-rule="evenodd" stroke="none"/>
    <path d="M323.8 154.75 L324.6 154.35 325.55 153.95 326.0 154.35 328.55 157.4 Q331.75 162.15 330.8 167.4 L329.65 167.95 314.1 175.35 318.2 176.8 Q326.35 180.4 326.35 186.9 L324.6 188.1 315.75 194.2 304.15 202.25 304.05 202.1 319.35 188.05 321.15 186.4 Q321.05 184.05 319.65 182.3 317.9 180.1 314.15 178.75 312.15 178.0 309.55 177.55 L304.25 179.6 304.15 179.4 Q304.8 178.75 304.8 177.8 304.8 176.85 304.15 176.2 303.5 175.55 302.55 175.55 301.6 175.55 300.95 176.2 300.3 176.85 300.3 177.8 300.3 178.75 300.95 179.4 301.6 180.05 302.55 180.05 L302.6 180.2 284.6 187.15 286.55 189.95 293.75 200.2 Q292.3 201.15 290.9 202.05 287.65 204.2 284.45 206.3 L286.3 208.3 Q290.5 213.65 288.55 221.2 L287.85 221.6 283.85 223.8 253.35 240.45 253.3 240.35 284.75 220.55 284.85 220.45 Q286.45 216.85 286.05 213.9 285.75 211.6 284.2 209.65 L282.2 207.7 240.35 234.95 231.3 240.85 231.25 240.8 230.95 240.55 237.9 234.35 Q246.35 227.0 255.05 220.0 L270.15 208.05 284.1 197.5 Q278.5 193.55 273.75 186.9 L296.25 170.1 302.15 166.7 302.95 167.8 Q304.0 168.85 305.55 168.85 307.0 168.85 308.1 167.8 L308.8 166.9 309.45 167.2 309.35 167.5 Q308.55 168.25 308.55 169.35 308.55 170.4 309.35 171.15 310.1 171.9 311.15 171.95 312.2 171.9 312.95 171.15 313.7 170.4 313.75 169.35 313.7 168.25 312.95 167.5 312.45 167.0 311.9 166.85 L312.0 166.55 Q312.7 165.8 312.75 164.75 L312.6 163.9 313.25 164.0 313.75 163.9 Q314.35 164.45 315.2 164.45 316.05 164.45 316.75 163.8 L316.8 163.75 317.2 163.75 Q318.4 163.75 319.25 162.85 320.15 162.0 320.15 160.8 L320.15 160.45 320.7 158.95 321.2 158.6 Q321.75 158.0 321.75 157.25 L321.65 156.6 321.25 155.95 323.8 154.75 M326.15 166.5 Q326.15 165.05 325.1 164.0 324.1 163.0 322.65 163.0 321.15 163.0 320.15 164.0 319.1 165.05 319.15 166.5 319.1 167.95 320.15 168.95 321.15 170.0 322.65 170.0 324.1 170.0 325.1 168.95 326.15 167.95 326.15 166.5 M318.7 169.45 Q318.05 169.4 317.6 169.85 317.15 170.35 317.15 171.0 317.15 171.6 317.6 172.05 318.05 172.5 318.7 172.5 319.35 172.5 319.8 172.05 L320.25 171.0 Q320.25 170.35 319.8 169.85 319.35 169.4 318.7 169.45" fill="#896c36" fill-rule="evenodd" stroke="none"/>
    <path d="M282.55 175.15 L277.35 179.2 262.35 179.2 235.2 198.9 Q235.65 199.45 235.7 200.2 235.7 201.05 235.1 201.65 234.5 202.2 233.7 202.2 232.85 202.2 232.3 201.65 231.7 201.05 231.7 200.2 231.7 199.4 232.3 198.8 232.85 198.25 233.7 198.25 234.45 198.2 235.0 198.75 L235.9 197.95 236.4 197.6 236.7 197.25 252.7 183.1 263.65 175.15 282.55 175.15 M259.35 188.9 L265.4 184.45 270.65 184.45 269.05 185.7 269.95 187.1 265.8 187.25 249.5 199.25 249.6 199.35 Q250.1 199.85 250.1 200.6 250.1 201.3 249.6 201.8 249.1 202.3 248.4 202.35 247.65 202.3 247.15 201.8 246.65 201.3 246.65 200.6 246.65 199.85 247.15 199.35 247.65 198.85 248.4 198.85 L249.2 199.05 250.0 198.25 250.9 197.75 251.4 196.85 259.35 188.9 M270.3 187.75 Q274.7 194.5 279.15 197.0 L276.0 199.85 Q271.85 196.7 267.75 189.75 L270.3 187.75 M329.65 167.95 L329.5 171.45 318.2 176.8 314.1 175.35 329.65 167.95 M324.6 188.1 Q325.05 189.4 325.05 190.95 L302.8 206.35 302.8 206.75 Q302.8 207.55 302.2 208.15 301.6 208.75 300.8 208.75 299.95 208.75 299.35 208.15 298.75 207.55 298.75 206.75 298.75 205.9 299.35 205.3 299.95 204.7 300.8 204.7 301.6 204.7 302.2 205.3 L302.75 206.15 315.75 194.2 324.6 188.1 M319.35 188.05 Q317.45 183.3 308.25 181.6 L286.55 189.95 284.6 187.15 302.6 180.2 303.15 180.0 303.55 179.85 304.25 179.6 309.55 177.55 Q312.15 178.0 314.15 178.75 L312.8 179.4 Q316.9 180.6 319.65 182.3 321.05 184.05 321.15 186.4 L319.35 188.05 M290.9 202.05 L292.45 204.25 286.3 208.3 284.45 206.3 Q287.65 204.2 290.9 202.05 M287.85 221.6 Q287.75 223.35 287.25 225.25 L252.05 244.5 252.35 245.5 Q252.35 246.25 251.8 246.75 251.25 247.3 250.55 247.3 249.8 247.3 249.3 246.75 248.75 246.25 248.75 245.5 248.75 244.75 249.3 244.25 249.8 243.7 250.55 243.7 251.25 243.7 251.8 244.25 L251.95 244.4 283.55 224.5 283.85 223.8 287.85 221.6 M284.75 220.55 Q285.45 215.35 280.9 211.75 L230.0 244.9 Q230.6 245.5 230.6 246.4 230.6 247.25 229.95 247.95 229.3 248.55 228.45 248.55 227.55 248.55 226.9 247.95 226.25 247.25 226.25 246.4 226.25 245.5 226.9 244.85 227.55 244.2 228.45 244.25 L228.65 244.25 229.45 244.5 229.65 244.6 229.75 244.5 Q230.6 244.5 231.25 243.9 L231.9 242.6 240.35 234.95 282.2 207.7 284.2 209.65 283.15 210.35 Q284.95 212.0 286.05 213.9 286.45 216.85 284.85 220.45 L284.75 220.55 M223.4 200.3 Q232.05 188.45 247.5 179.25 L253.75 179.25 251.2 181.5 248.5 181.8 Q233.15 190.3 223.8 200.75 L223.55 200.45 223.4 200.3 M221.15 203.6 L221.35 203.7 221.1 203.95 Q221.75 204.05 222.25 204.5 222.8 205.1 222.8 205.9 222.8 206.7 222.25 207.3 221.65 207.9 220.85 207.9 220.05 207.9 219.45 207.3 218.85 206.7 218.9 205.9 218.85 205.1 219.45 204.5 220.05 203.9 220.85 203.9 L220.95 203.9 221.15 203.6" fill="#999999" fill-rule="evenodd" stroke="none"/>
    <path d="M250.5 195.0 L250.8 195.2 250.9 195.3 Q251.4 195.8 251.4 196.55 L251.4 196.85 250.9 197.75 250.0 198.25 249.7 198.3 Q248.95 198.25 248.45 197.75 247.95 197.25 247.95 196.55 247.95 195.8 248.45 195.3 248.95 194.8 249.7 194.8 L250.5 195.0 M302.05 166.4 L302.0 166.25 301.85 165.2 Q301.85 163.7 302.95 162.6 304.0 161.55 305.55 161.55 L305.9 161.55 Q306.85 161.65 307.65 162.25 L308.1 162.6 308.4 162.95 Q309.15 162.2 310.2 162.2 311.25 162.2 312.0 162.95 L312.2 163.2 312.6 163.9 312.75 164.75 Q312.7 165.8 312.0 166.55 L311.7 166.8 Q311.05 167.25 310.2 167.3 L309.65 167.25 309.45 167.2 308.8 166.9 308.1 167.8 Q307.0 168.85 305.55 168.85 304.0 168.85 302.95 167.8 L302.15 166.7 302.05 166.4 M317.4 154.4 Q318.65 154.4 319.55 155.3 L320.05 156.0 Q320.4 156.65 320.4 157.45 320.4 158.4 319.9 159.15 L319.75 159.3 320.15 160.45 320.15 160.8 Q320.15 162.0 319.25 162.85 318.4 163.75 317.2 163.75 L316.8 163.75 Q315.8 163.6 315.05 162.85 314.2 162.0 314.2 160.8 L314.2 160.35 314.2 160.8 Q314.2 162.0 315.05 162.85 315.8 163.6 316.8 163.75 L316.75 163.8 Q316.05 164.45 315.2 164.45 314.35 164.45 313.75 163.9 L313.65 163.8 Q313.0 163.15 313.05 162.3 L313.1 161.85 313.1 161.7 313.6 160.85 313.65 160.75 314.2 160.35 314.35 159.85 Q314.45 159.35 314.8 158.95 L314.45 158.05 314.4 157.45 Q314.4 156.3 315.1 155.5 L315.25 155.3 Q316.05 154.45 317.2 154.4 L317.4 154.4 M304.1 202.3 L304.1 202.7 Q304.1 203.5 303.5 204.1 302.9 204.7 302.1 204.7 301.25 204.7 300.65 204.1 300.05 203.5 300.05 202.7 300.05 201.85 300.65 201.25 301.25 200.65 302.1 200.65 302.9 200.65 303.5 201.25 L304.05 202.1 304.1 202.3 M253.35 240.45 L253.65 241.45 Q253.65 242.2 253.1 242.7 252.55 243.25 251.85 243.25 251.1 243.25 250.6 242.7 250.05 242.2 250.05 241.45 250.05 240.7 250.6 240.2 251.1 239.65 251.85 239.65 252.55 239.65 253.1 240.2 L253.25 240.35 253.35 240.45 M228.65 244.25 L228.2 243.9 Q227.55 243.2 227.55 242.35 227.55 241.45 228.2 240.8 228.85 240.15 229.75 240.2 230.4 240.2 230.95 240.55 L231.25 240.8 231.3 240.85 Q231.9 241.45 231.9 242.35 L231.9 242.6 231.25 243.9 Q230.6 244.5 229.75 244.5 L229.45 244.5 228.65 244.25 M326.15 166.5 Q326.15 167.95 325.1 168.95 324.1 170.0 322.65 170.0 321.15 170.0 320.15 168.95 319.1 167.95 319.15 166.5 319.1 165.05 320.15 164.0 321.15 163.0 322.65 163.0 324.1 163.0 325.1 164.0 326.15 165.05 326.15 166.5 M236.4 194.75 L236.5 194.85 Q236.95 195.4 237.0 196.15 L236.7 197.25 236.4 197.6 235.9 197.95 235.0 198.15 Q234.15 198.15 233.6 197.6 233.0 197.0 233.0 196.15 233.0 195.35 233.6 194.75 234.15 194.2 235.0 194.2 235.75 194.15 236.3 194.7 L236.4 194.75 M222.4 199.9 Q222.95 199.95 223.4 200.3 L223.55 200.45 223.8 200.75 224.1 201.85 Q224.1 202.65 223.55 203.25 222.95 203.85 222.15 203.85 L221.35 203.7 221.15 203.6 220.75 203.25 Q220.15 202.65 220.2 201.85 220.15 201.05 220.75 200.45 221.35 199.85 222.15 199.85 L222.25 199.85 222.4 199.9 M314.8 158.95 L315.25 159.55 Q316.15 160.45 317.4 160.45 318.65 160.45 319.55 159.55 L319.75 159.3 319.55 159.55 Q318.65 160.45 317.4 160.45 316.15 160.45 315.25 159.55 L314.8 158.95 M308.4 162.95 Q307.65 163.7 307.65 164.75 307.65 165.8 308.4 166.55 L308.8 166.9 308.4 166.55 Q307.65 165.8 307.65 164.75 307.65 163.7 308.4 162.95 M312.6 169.75 Q312.55 170.45 312.05 171.0 311.5 171.5 310.75 171.55 310.0 171.5 309.5 171.0 308.95 170.45 309.0 169.75 308.95 169.0 309.5 168.45 310.0 167.9 310.75 167.95 311.5 167.9 312.05 168.45 312.55 169.0 312.6 169.75 M318.7 169.45 Q319.35 169.4 319.8 169.85 320.25 170.35 320.25 171.0 L319.8 172.05 Q319.35 172.5 318.7 172.5 318.05 172.5 317.6 172.05 317.15 171.6 317.15 171.0 317.15 170.35 317.6 169.85 318.05 169.4 318.7 169.45 M303.15 180.0 L302.55 180.05 Q301.6 180.05 300.95 179.4 300.3 178.75 300.3 177.8 300.3 176.85 300.95 176.2 301.6 175.55 302.55 175.55 303.5 175.55 304.15 176.2 304.8 176.85 304.8 177.8 304.8 178.75 304.15 179.4 L303.55 179.85 303.15 180.0" fill="#669933" fill-rule="evenodd" stroke="none"/>
    <path d="M317.15 154.35 L317.4 154.4 317.2 154.4 317.15 154.35 M319.55 155.3 L319.8 155.3 319.55 155.3 M236.4 194.75 L236.3 194.7 236.35 194.65 236.4 194.75 M222.25 199.8 L222.4 199.9 222.25 199.85 222.25 199.8" fill="#004623" fill-rule="evenodd" stroke="none"/>
    <path d="M273.75 186.9 Q284.75 177.65 296.25 170.1 L302.05 166.4 302.15 166.7 296.25 170.1 273.75 186.9 M302.0 166.25 L301.7 166.0 Q300.8 165.1 300.85 163.85 300.8 162.55 301.7 161.7 302.6 160.8 303.85 160.8 L304.6 160.9 Q305.3 161.05 305.9 161.55 L305.55 161.55 Q304.0 161.55 302.95 162.6 301.85 163.7 301.85 165.2 L302.0 166.25 M307.65 162.25 L307.4 161.05 Q307.4 159.85 308.25 159.0 309.1 158.15 310.3 158.15 311.45 158.15 312.3 159.0 L313.05 160.1 314.2 159.5 314.1 158.6 314.2 157.8 Q313.5 157.15 313.5 156.2 L313.55 155.7 Q313.7 155.05 314.2 154.6 L314.45 154.35 Q315.05 153.9 315.8 153.95 316.55 153.9 317.15 154.35 L317.2 154.4 Q316.05 154.45 315.25 155.3 L315.1 155.5 Q314.4 156.3 314.4 157.45 L314.45 158.05 314.8 158.95 Q314.45 159.35 314.35 159.85 L314.2 160.35 313.65 160.75 313.6 160.85 313.1 161.7 313.15 161.05 313.15 160.85 313.25 160.85 313.6 160.85 313.25 160.85 313.15 160.85 313.15 161.05 313.1 161.7 313.1 161.85 313.05 162.3 Q313.0 163.15 313.65 163.8 L313.75 163.9 313.25 164.0 312.6 163.9 312.2 163.2 312.3 163.05 313.1 161.85 312.3 163.05 312.2 163.2 312.0 162.95 Q311.25 162.2 310.2 162.2 309.15 162.2 308.4 162.95 L308.1 162.6 307.65 162.25 M319.8 155.3 Q320.6 155.3 321.2 155.85 L321.25 155.95 321.65 156.6 321.75 157.25 Q321.75 158.0 321.2 158.6 L320.7 158.95 320.15 160.45 319.75 159.3 319.9 159.15 Q320.4 158.4 320.4 157.45 320.4 156.65 320.05 156.0 L319.55 155.3 319.8 155.3 M304.15 202.25 L304.1 202.3 304.05 202.1 304.15 202.25 M253.25 240.35 L253.3 240.35 253.35 240.45 253.25 240.35 M314.2 157.8 L314.45 158.05 314.2 157.8 M314.2 159.5 L314.25 159.65 314.35 159.85 314.25 159.65 314.2 159.5 M320.7 158.95 L319.9 159.15 320.7 158.95 M313.15 160.85 L313.1 160.3 313.05 160.1 313.1 160.3 313.15 160.85 M311.7 166.8 L312.0 166.55 311.9 166.85 311.7 166.8 311.9 166.85 Q312.45 167.0 312.95 167.5 313.7 168.25 313.75 169.35 313.7 170.4 312.95 171.15 312.2 171.9 311.15 171.95 310.1 171.9 309.35 171.15 308.55 170.4 308.55 169.35 308.55 168.25 309.35 167.5 L309.45 167.2 309.65 167.25 310.2 167.3 Q311.05 167.25 311.7 166.8 M312.6 169.75 Q312.55 169.0 312.05 168.45 311.5 167.9 310.75 167.95 310.0 167.9 309.5 168.45 308.95 169.0 309.0 169.75 308.95 170.45 309.5 171.0 310.0 171.5 310.75 171.55 311.5 171.5 312.05 171.0 312.55 170.45 312.6 169.75 M309.35 167.5 L309.65 167.25 309.35 167.5 M302.55 180.05 L303.15 180.0 302.6 180.2 302.55 180.05 M303.55 179.85 L304.15 179.4 304.25 179.6 303.55 179.85" fill="#006633" fill-rule="evenodd" stroke="none"/>
    <path d="M325.55 153.95 Q318.75 149.45 311.05 152.85 L290.65 168.8 282.55 175.15 277.35 179.2 275.8 180.4 M265.1 180.4 L250.5 195.0 M250.8 195.2 L259.35 188.9 265.4 184.45 267.1 183.2 272.45 183.05 270.65 184.45 269.05 185.7 269.95 187.1 270.3 187.75 Q274.7 194.5 279.15 197.0 L276.0 199.85 237.9 234.35 230.95 240.55 M329.65 167.95 L330.8 167.4 Q331.75 162.15 328.55 157.4 L326.0 154.35 325.55 153.95 M329.65 167.95 L314.1 175.35 318.2 176.8 Q326.35 180.4 326.35 186.9 L324.6 188.1 315.75 194.2 304.15 202.25 304.1 202.3 M304.05 202.1 L319.35 188.05 321.15 186.4 Q321.05 184.05 319.65 182.3 317.9 180.1 314.15 178.75 312.15 178.0 309.55 177.55 L304.25 179.6 303.55 179.85 M286.55 189.95 L293.75 200.2 Q292.3 201.15 290.9 202.05 287.65 204.2 284.45 206.3 L286.3 208.3 Q290.5 213.65 288.55 221.2 L287.85 221.6 283.85 223.8 253.35 240.45 M253.25 240.35 L253.3 240.35 284.75 220.55 284.85 220.45 Q286.45 216.85 286.05 213.9 285.75 211.6 284.2 209.65 L282.2 207.7 240.35 234.95 231.3 240.85 M236.5 194.85 L252.7 183.1 263.65 175.15 282.55 175.15 M236.35 194.65 L236.3 194.7 M253.75 179.25 L256.25 177.05 249.8 177.75 Q232.15 187.5 222.4 199.9 M253.75 179.25 L251.2 181.5 236.35 194.65 M256.25 177.05 L258.1 175.2 262.9 170.6 264.85 170.45 M248.8 175.2 Q231.1 185.75 222.25 199.8 L222.25 199.85 M284.0 169.25 L290.65 168.8 M302.6 180.2 L303.15 180.0 M302.6 180.2 L284.6 187.15 286.55 189.95" fill="none" stroke="#000000" stroke-linecap="round" stroke-linejoin="round" stroke-width="1.0"/>
    <path d="M275.8 180.4 L265.1 180.4 M250.5 195.0 L250.8 195.2 250.9 195.3 Q251.4 195.8 251.4 196.55 L251.4 196.85 250.9 197.75 250.0 198.25 249.7 198.3 Q248.95 198.25 248.45 197.75 247.95 197.25 247.95 196.55 247.95 195.8 248.45 195.3 248.95 194.8 249.7 194.8 L250.5 195.0 M302.05 166.4 L302.0 166.25 301.7 166.0 Q300.8 165.1 300.85 163.85 300.8 162.55 301.7 161.7 302.6 160.8 303.85 160.8 L304.6 160.9 Q305.3 161.05 305.9 161.55 306.85 161.65 307.65 162.25 L307.4 161.05 Q307.4 159.85 308.25 159.0 309.1 158.15 310.3 158.15 311.45 158.15 312.3 159.0 L313.05 160.1 313.1 160.3 313.15 160.85 313.15 161.05 313.1 161.7 313.6 160.85 313.65 160.75 314.2 160.35 314.2 160.8 Q314.2 162.0 315.05 162.85 315.8 163.6 316.8 163.75 L317.2 163.75 Q318.4 163.75 319.25 162.85 320.15 162.0 320.15 160.8 L320.15 160.45 319.75 159.3 319.55 159.55 Q318.65 160.45 317.4 160.45 316.15 160.45 315.25 159.55 L314.8 158.95 314.45 158.05 314.2 157.8 Q313.5 157.15 313.5 156.2 L313.55 155.7 Q313.7 155.05 314.2 154.6 L314.45 154.35 Q315.05 153.9 315.8 153.95 316.55 153.9 317.15 154.35 L317.2 154.4 317.4 154.4 Q318.65 154.4 319.55 155.3 L320.05 156.0 Q320.4 156.65 320.4 157.45 320.4 158.4 319.9 159.15 L320.7 158.95 320.15 160.45 M314.2 159.5 L314.1 158.6 314.2 157.8 M319.8 155.3 Q320.6 155.3 321.2 155.85 L321.25 155.95 323.8 154.75 M304.1 202.3 L304.1 202.7 Q304.1 203.5 303.5 204.1 302.9 204.7 302.1 204.7 301.25 204.7 300.65 204.1 300.05 203.5 300.05 202.7 300.05 201.85 300.65 201.25 301.25 200.65 302.1 200.65 302.9 200.65 303.5 201.25 L304.05 202.1 304.1 202.3 M253.35 240.45 L253.65 241.45 Q253.65 242.2 253.1 242.7 252.55 243.25 251.85 243.25 251.1 243.25 250.6 242.7 250.05 242.2 250.05 241.45 250.05 240.7 250.6 240.2 251.1 239.65 251.85 239.65 252.55 239.65 253.1 240.2 L253.25 240.35 253.35 240.45 M228.65 244.25 L228.2 243.9 Q227.55 243.2 227.55 242.35 227.55 241.45 228.2 240.8 228.85 240.15 229.75 240.2 230.4 240.2 230.95 240.55 L231.25 240.8 231.3 240.85 Q231.9 241.45 231.9 242.35 L231.9 242.6 231.25 243.9 Q230.6 244.5 229.75 244.5 L229.45 244.5 228.65 244.25 M326.15 166.5 Q326.15 167.95 325.1 168.95 324.1 170.0 322.65 170.0 321.15 170.0 320.15 168.95 319.1 167.95 319.15 166.5 319.1 165.05 320.15 164.0 321.15 163.0 322.65 163.0 324.1 163.0 325.1 164.0 326.15 165.05 326.15 166.5 M236.4 194.75 L236.5 194.85 Q236.95 195.4 237.0 196.15 L236.7 197.25 236.4 197.6 235.9 197.95 235.0 198.15 Q234.15 198.15 233.6 197.6 233.0 197.0 233.0 196.15 233.0 195.35 233.6 194.75 234.15 194.2 235.0 194.2 235.75 194.15 236.3 194.7 L236.4 194.75 M222.4 199.9 Q222.95 199.95 223.4 200.3 L223.55 200.45 223.8 200.75 224.1 201.85 Q224.1 202.65 223.55 203.25 222.95 203.85 222.15 203.85 L221.35 203.7 221.15 203.6 220.75 203.25 Q220.15 202.65 220.2 201.85 220.15 201.05 220.75 200.45 221.35 199.85 222.15 199.85 L222.25 199.85 222.4 199.9 M258.1 175.2 L248.8 175.2 M264.85 170.45 L284.0 169.25 M314.45 158.05 L314.4 157.45 Q314.4 156.3 315.1 155.5 L315.25 155.3 Q316.05 154.45 317.2 154.4 M314.35 159.85 Q314.45 159.35 314.8 158.95 M314.35 159.85 L314.2 160.35 M314.35 159.85 L314.25 159.65 314.2 159.5 M321.25 155.95 L321.65 156.6 321.75 157.25 Q321.75 158.0 321.2 158.6 L320.7 158.95 M319.55 155.3 L319.8 155.3 M319.9 159.15 L319.75 159.3 M313.6 160.85 L313.25 160.85 313.15 160.85 M313.75 163.9 L313.65 163.8 Q313.0 163.15 313.05 162.3 L313.1 161.85 312.3 163.05 312.2 163.2 312.6 163.9 313.25 164.0 313.75 163.9 Q314.35 164.45 315.2 164.45 316.05 164.45 316.75 163.8 L316.8 163.75 M313.1 161.7 L313.1 161.85 M307.65 162.25 L308.1 162.6 308.4 162.95 Q309.15 162.2 310.2 162.2 311.25 162.2 312.0 162.95 L312.2 163.2 M312.0 166.55 L311.7 166.8 311.9 166.85 Q312.45 167.0 312.95 167.5 313.7 168.25 313.75 169.35 313.7 170.4 312.95 171.15 312.2 171.9 311.15 171.95 310.1 171.9 309.35 171.15 308.55 170.4 308.55 169.35 308.55 168.25 309.35 167.5 L309.65 167.25 310.2 167.3 Q311.05 167.25 311.7 166.8 M312.0 166.55 Q312.7 165.8 312.75 164.75 L312.6 163.9 M302.0 166.25 L301.85 165.2 Q301.85 163.7 302.95 162.6 304.0 161.55 305.55 161.55 L305.9 161.55 M308.8 166.9 L308.4 166.55 Q307.65 165.8 307.65 164.75 307.65 163.7 308.4 162.95 M309.45 167.2 L308.8 166.9 308.1 167.8 Q307.0 168.85 305.55 168.85 304.0 168.85 302.95 167.8 L302.15 166.7 302.05 166.4 M312.6 169.75 Q312.55 170.45 312.05 171.0 311.5 171.5 310.75 171.55 310.0 171.5 309.5 171.0 308.95 170.45 309.0 169.75 308.95 169.0 309.5 168.45 310.0 167.9 310.75 167.95 311.5 167.9 312.05 168.45 312.55 169.0 312.6 169.75 M309.45 167.2 L309.65 167.25 M318.7 169.45 Q319.35 169.4 319.8 169.85 320.25 170.35 320.25 171.0 L319.8 172.05 Q319.35 172.5 318.7 172.5 318.05 172.5 317.6 172.05 317.15 171.6 317.15 171.0 317.15 170.35 317.6 169.85 318.05 169.4 318.7 169.45 M303.15 180.0 L302.55 180.05 Q301.6 180.05 300.95 179.4 300.3 178.75 300.3 177.8 300.3 176.85 300.95 176.2 301.6 175.55 302.55 175.55 303.5 175.55 304.15 176.2 304.8 176.85 304.8 177.8 304.8 178.75 304.15 179.4 L303.55 179.85 303.15 180.0" fill="none" stroke="#006633" stroke-linecap="round" stroke-linejoin="round" stroke-width="2.25"/>
    <path d="M255.05 220.0 L270.15 208.05 284.1 197.5 M296.25 170.1 L273.75 186.9" fill="none" stroke="#c1a062" stroke-linecap="round" stroke-linejoin="round" stroke-width="2.25"/>
  </g>
</svg>
