<?xml version="1.0" encoding="UTF-8" standalone="no"?>
<svg xmlns:ffdec="https://www.free-decompiler.com/flash" xmlns:xlink="http://www.w3.org/1999/xlink" ffdec:objectType="shape" height="214.3px" width="125.25px" xmlns="http://www.w3.org/2000/svg">
  <g transform="matrix(1.0, 0.0, 0.0, 1.0, 62.6, 120.4)">
    <path d="M54.2 -110.75 L57.35 -106.25 58.6 -106.15 57.4 -106.2 57.35 -106.25 Q55.45 -107.95 54.15 -106.45 L54.2 -110.75 M49.35 -96.45 L49.9 -101.55 Q51.4 -99.55 52.5 -97.35 L52.95 -96.35 51.55 -95.65 49.35 -96.45 M39.55 -107.2 L41.1 -105.3 41.6 -104.65 42.0 -103.25 Q39.85 -104.55 38.25 -102.9 38.6 -105.6 39.55 -107.2 M14.15 -49.55 L19.35 -49.55 Q17.3 -47.0 16.85 -44.25 15.3 -46.7 14.15 -49.55 M9.75 -37.55 L15.1 -36.25 Q10.35 -37.25 10.45 -32.65 L9.95 -34.75 9.95 -35.95 9.95 -37.15 9.95 -37.2 9.75 -37.55 M-0.45 -34.95 L2.25 -32.5 2.75 -31.95 Q-0.95 -32.85 -2.5 -31.95 L-0.45 -34.95 M-8.8 28.95 L-5.8 28.4 -7.05 31.1 -8.8 28.95" fill="#9e274e" fill-rule="evenodd" stroke="none"/>
    <path d="M57.4 -106.2 L59.55 -104.4 Q57.3 -102.05 54.05 -102.15 L54.15 -106.45 Q55.45 -107.95 57.35 -106.25 L57.4 -106.2 M53.9 -93.55 L55.65 -86.6 53.3 -84.9 Q50.9 -85.55 50.65 -86.7 L48.1 -84.75 49.35 -96.45 51.55 -95.65 52.95 -96.35 53.9 -93.55 M42.0 -103.25 Q42.15 -103.6 42.35 -103.0 L43.15 -99.8 43.65 -98.45 44.4 -97.05 Q41.6 -97.2 40.35 -96.0 39.0 -99.3 37.05 -98.45 L38.25 -102.9 Q39.85 -104.55 42.0 -103.25 M19.35 -49.55 L20.4 -49.55 24.05 -48.15 Q24.3 -46.25 23.95 -45.45 23.6 -44.7 20.55 -44.1 17.5 -43.55 21.0 -38.8 18.65 -41.25 16.85 -44.25 17.3 -47.0 19.35 -49.55 M15.1 -36.25 L15.25 -36.2 19.3 -33.6 Q16.8 -33.45 15.35 -32.5 L13.95 -31.05 Q12.95 -31.25 10.15 -29.85 L10.45 -32.65 Q10.35 -37.25 15.1 -36.25 M2.75 -31.95 Q3.95 -30.1 4.6 -28.1 1.8 -27.5 0.95 -28.55 -2.05 -31.35 -2.8 -30.85 L-4.4 -29.9 -3.35 -31.2 -2.5 -31.95 Q-0.95 -32.85 2.75 -31.95 M-5.8 28.4 L2.35 28.75 Q-2.55 29.95 -4.75 33.45 L-7.05 31.1 -5.8 28.4 M-11.6 42.95 L-11.6 34.45 Q-9.55 35.95 -7.8 37.6 -5.7 39.5 -3.95 41.55 L-4.0 41.6 Q-8.15 40.7 -9.65 42.05 -11.2 43.35 -11.6 42.95 M-18.4 45.65 Q-17.35 42.75 -15.8 39.95 L-13.1 46.1 Q-15.45 44.95 -18.4 45.65" fill="#b54a6d" fill-rule="evenodd" stroke="none"/>
    <path d="M54.2 -110.75 L54.1 -110.8 54.2 -110.75 M9.95 -34.75 L9.65 -37.55 9.75 -37.55 9.95 -37.2 9.95 -35.95 9.95 -34.75 M20.05 -36.55 L19.4 -36.55 Q18.15 -37.55 19.9 -36.6 L20.05 -36.55 M-20.85 57.45 L-22.1 57.45 -20.8 52.6 -19.2 47.75 -20.85 57.45" fill="#9966cc" fill-rule="evenodd" stroke="none"/>
    <path d="M59.55 -104.4 L62.25 -99.35 Q59.75 -97.7 60.15 -94.0 L57.2 -93.55 Q57.0 -97.35 54.0 -97.8 L54.05 -102.15 Q57.3 -102.05 59.55 -104.4 M55.65 -86.6 L57.25 -80.1 Q54.95 -78.5 53.95 -75.0 54.3 -77.25 51.9 -78.55 48.3 -79.85 48.15 -77.35 L48.1 -84.75 50.65 -86.7 Q50.9 -85.55 53.3 -84.9 L55.65 -86.6 M44.4 -97.05 L44.35 -86.25 Q44.25 -88.45 38.95 -81.95 37.85 -93.95 36.2 -95.3 L37.05 -98.45 Q39.0 -99.3 40.35 -96.0 41.6 -97.2 44.4 -97.05 M24.05 -48.15 L25.95 -47.3 27.2 -46.7 Q27.7 -45.05 34.65 -37.75 28.05 -40.7 27.65 -39.55 27.35 -36.8 32.35 -33.0 27.0 -36.1 26.2 -34.7 L23.4 -36.55 22.95 -36.95 21.0 -38.8 Q17.5 -43.55 20.55 -44.1 23.6 -44.7 23.95 -45.45 24.3 -46.25 24.05 -48.15 M19.3 -33.6 L19.9 -32.5 Q20.9 -30.65 22.1 -29.85 18.95 -30.0 20.5 -21.7 13.15 -23.35 11.65 -21.35 9.95 -24.7 10.15 -29.85 12.95 -31.25 13.95 -31.05 L15.35 -32.5 Q16.8 -33.45 19.3 -33.6 M4.6 -28.1 Q6.05 -23.45 4.45 -18.15 L4.1 -17.0 2.65 -17.8 Q3.5 -24.2 2.65 -24.55 1.35 -25.7 -2.25 -20.55 L-2.25 -20.5 -3.8 -21.35 -3.8 -21.4 -6.25 -22.8 Q-6.4 -25.05 -8.6 -24.05 L-4.4 -29.9 -2.8 -30.85 Q-2.05 -31.35 0.95 -28.55 1.8 -27.5 4.6 -28.1 M2.35 28.75 Q4.05 29.2 5.7 29.95 L8.7 31.5 8.25 31.4 Q7.0 30.8 4.15 30.25 3.35 31.85 9.45 36.0 L4.55 38.7 4.9 40.25 Q2.15 38.15 -0.85 36.3 L-2.05 35.55 -4.7 33.5 -4.75 33.45 Q-2.55 29.95 2.35 28.75 M-3.95 41.55 Q-2.95 42.75 -2.1 44.05 0.65 48.05 1.9 52.45 L1.8 52.45 -2.1 44.05 Q-4.0 49.45 -2.1 52.45 -7.2 49.2 -8.35 49.55 L-8.4 49.65 -8.45 49.5 -8.6 49.1 -11.15 43.9 -11.6 42.95 Q-11.2 43.35 -9.65 42.05 -8.15 40.7 -4.0 41.6 L-3.95 41.55 M-19.2 47.75 L-18.05 44.45 -18.4 45.65 Q-15.45 44.95 -13.1 46.1 L-12.1 52.95 -17.0 57.45 Q-18.05 48.45 -19.2 47.75" fill="#9977bb" fill-rule="evenodd" stroke="none"/>
    <path d="M62.25 -99.35 L62.65 -95.0 Q61.95 -94.35 60.15 -94.0 59.75 -97.7 62.25 -99.35 M57.2 -93.55 L53.9 -93.55 54.0 -97.8 Q57.0 -97.35 57.2 -93.55 M57.25 -80.1 L57.15 -73.8 49.4 -74.3 48.15 -77.35 Q48.3 -79.85 51.9 -78.55 54.3 -77.25 53.95 -75.0 54.95 -78.5 57.25 -80.1 M44.35 -86.25 L44.3 -82.0 40.9 -80.55 38.95 -81.95 36.4 -83.45 35.05 -83.6 34.8 -85.85 Q34.2 -88.35 35.2 -91.75 L36.2 -95.3 Q37.85 -93.95 38.95 -81.95 44.25 -88.45 44.35 -86.25 M27.2 -46.7 Q35.05 -42.6 34.65 -37.75 34.4 -35.45 32.35 -33.0 L31.85 -32.5 30.9 -31.55 26.2 -34.7 Q27.0 -36.1 32.35 -33.0 27.35 -36.8 27.65 -39.55 28.05 -40.7 34.65 -37.75 27.7 -45.05 27.2 -46.7 M22.1 -29.85 Q23.35 -27.4 24.95 -25.05 25.95 -23.6 24.9 -22.05 L20.55 -21.65 Q17.7 -21.2 15.0 -20.2 13.4 -19.7 12.9 -18.8 L11.65 -21.35 Q13.15 -23.35 20.5 -21.7 18.95 -30.0 22.1 -29.85 M2.65 -17.8 L-2.25 -20.5 -2.25 -20.55 Q1.35 -25.7 2.65 -24.55 3.5 -24.2 2.65 -17.8 M-3.8 -21.35 L-8.6 -24.05 Q-6.4 -25.05 -6.25 -22.8 L-3.8 -21.4 -3.8 -21.35 M8.25 31.4 L8.75 31.65 Q11.15 33.25 12.9 34.95 10.7 35.0 9.45 36.0 7.1 37.85 8.3 43.0 L4.9 40.25 4.55 38.7 9.45 36.0 Q3.35 31.85 4.15 30.25 7.0 30.8 8.25 31.4 M1.8 52.45 L-2.1 52.45 -6.1 52.45 -8.15 50.1 -8.4 49.65 -8.35 49.55 Q-7.2 49.2 -2.1 52.45 -4.0 49.45 -2.1 44.05 L1.8 52.45 M-12.1 52.95 L-12.6 57.7 -17.0 57.45 -20.85 57.45 -19.2 47.75 Q-18.05 48.45 -17.0 57.45 L-12.1 52.95" fill="#be9ede" fill-rule="evenodd" stroke="none"/>
    <path d="M12.0 -87.15 Q14.65 -87.75 17.2 -86.35 18.1 -85.85 17.55 -84.55 L16.5 -82.65 Q15.25 -80.65 15.35 -80.45 18.45 -84.75 18.95 -80.6 L19.1 -79.05 Q19.35 -75.45 18.85 -71.05 L20.1 -77.6 20.3 -79.05 20.75 -84.4 Q22.85 -83.65 23.85 -80.9 23.55 -83.9 22.5 -85.75 L23.4 -86.3 Q25.55 -83.65 25.35 -79.05 L25.2 -77.35 24.95 -75.9 24.8 -75.2 24.3 -75.35 Q21.95 -73.5 21.55 -70.75 21.35 -69.55 20.4 -68.95 17.95 -67.3 15.65 -70.1 13.45 -74.2 12.4 -79.05 L12.25 -79.7 Q11.25 -84.55 11.85 -87.2 L12.0 -87.15 M-16.85 -33.1 L-16.85 -32.5 Q-16.9 -24.8 -19.0 -17.5 L-19.5 -15.35 Q-22.4 -15.55 -24.45 -17.75 L-24.85 -17.4 -24.9 -17.45 Q-26.1 -19.2 -26.7 -21.25 L-26.85 -21.6 -26.85 -21.75 -27.0 -22.2 -26.05 -20.0 Q-26.45 -22.75 -27.0 -24.65 -27.55 -26.6 -25.65 -29.05 L-24.05 -24.35 Q-22.95 -21.2 -21.55 -19.1 -22.1 -21.05 -22.8 -22.4 -23.5 -23.75 -23.5 -28.65 L-23.55 -30.3 Q-20.65 -29.95 -18.8 -27.75 -18.95 -28.55 -19.55 -29.25 -21.5 -31.5 -24.3 -32.05 L-24.35 -32.5 -24.4 -33.85 Q-21.25 -36.55 -19.45 -35.2 L-16.85 -33.1 M-19.2 -85.25 L-18.55 -85.4 -18.6 -86.95 Q-18.45 -89.15 -15.9 -91.65 L-16.0 -91.45 Q-15.9 -88.85 -15.4 -86.75 -14.9 -84.65 -13.95 -82.75 L-14.1 -81.0 -14.25 -79.05 -14.25 -76.65 -14.2 -76.3 -13.7 -79.05 Q-13.45 -79.85 -13.1 -79.7 L-12.05 -78.25 Q-10.85 -76.0 -10.3 -74.35 -9.75 -72.7 -10.05 -74.0 L-10.4 -76.35 Q-10.45 -77.0 -11.45 -79.05 L-13.3 -82.35 -13.3 -82.65 -13.5 -84.8 Q-12.75 -84.2 -12.1 -84.05 -11.45 -83.9 -9.65 -82.35 -10.95 -85.0 -13.7 -86.55 L-13.75 -87.4 -14.05 -91.8 Q-10.25 -91.7 -8.8 -89.4 L-7.5 -87.1 -7.2 -86.5 -7.3 -86.2 -7.9 -81.6 -8.05 -79.05 Q-8.1 -73.75 -6.6 -69.05 -10.35 -69.75 -13.1 -72.25 -15.85 -74.75 -17.5 -79.05 L-18.15 -80.85 Q-18.95 -83.3 -19.2 -85.25 M-35.8 -57.8 L-34.55 -55.15 -34.5 -55.05 -34.4 -54.8 -37.35 -54.85 Q-40.6 -54.55 -41.6 -53.95 -42.6 -53.35 -44.7 -52.4 -46.8 -51.5 -50.05 -50.95 L-49.1 -50.75 Q-48.15 -50.25 -44.6 -51.75 -41.1 -53.3 -38.4 -53.55 L-34.3 -53.6 -34.3 -53.1 Q-36.2 -50.8 -38.65 -49.1 -41.1 -47.45 -43.9 -46.9 L-43.9 -46.2 -45.55 -46.25 -45.6 -46.25 -47.75 -46.4 -48.3 -46.45 -51.75 -46.75 Q-54.15 -48.0 -56.6 -49.7 -53.05 -51.0 -50.6 -53.55 -44.15 -60.25 -35.8 -57.8 M-41.3 -20.25 L-38.7 -20.05 -38.7 -19.8 -39.0 -19.25 -39.45 -18.5 -39.5 -18.6 Q-41.4 -18.0 -42.95 -16.6 -45.05 -14.6 -46.5 -12.15 L-46.55 -12.0 -49.0 -7.1 -50.7 -3.45 -51.85 -2.35 -54.3 -0.45 -55.95 -6.1 -56.1 -6.05 -56.0 -6.25 Q-54.1 -9.9 -53.7 -12.0 L-53.65 -12.05 -53.6 -12.3 -53.55 -12.2 -51.2 -14.0 -46.4 -17.25 Q-44.0 -19.0 -41.3 -20.25 M-39.4 47.55 L-39.55 48.65 Q-40.2 50.45 -41.3 52.05 L-41.35 52.1 -42.4 53.4 -43.1 52.8 Q-45.45 54.25 -48.1 55.15 -50.8 56.05 -52.05 58.7 L-52.85 60.0 Q-54.2 61.5 -56.25 60.45 -56.9 54.05 -56.7 47.45 -56.6 44.95 -56.15 42.9 L-55.95 42.9 Q-53.65 40.9 -50.1 40.45 -52.75 45.65 -53.2 47.85 L-54.0 52.35 Q-54.35 54.6 -54.2 57.15 -53.9 54.3 -53.0 51.5 -52.1 48.65 -50.75 46.0 L-49.45 43.7 -49.45 43.65 -48.3 43.4 -47.25 45.8 Q-47.0 46.8 -48.25 51.8 L-46.2 47.25 -47.3 41.65 -47.5 40.9 -43.95 37.0 -43.45 36.4 -42.05 37.85 Q-40.75 39.25 -40.15 41.45 -39.6 43.6 -39.4 47.55 M-48.05 33.1 L-46.8 33.15 Q-45.0 33.45 -43.6 34.1 L-46.0 35.9 -49.5 38.8 Q-54.6 40.95 -55.95 42.9 L-56.15 42.85 Q-54.45 35.45 -48.05 33.1 M-45.15 78.4 Q-43.85 75.9 -44.3 73.8 -44.75 71.65 -43.4 69.0 -42.05 66.3 -38.75 63.75 L-38.55 63.9 Q-38.0 64.4 -37.75 65.0 -37.4 66.05 -38.2 67.4 -43.3 76.05 -43.6 82.95 -44.7 80.7 -45.25 78.45 L-45.15 78.4" fill="#508b36" fill-rule="evenodd" stroke="none"/>
    <path d="M22.5 -85.75 Q23.55 -83.9 23.85 -80.9 22.85 -83.65 20.75 -84.4 L20.3 -79.05 20.1 -77.6 18.85 -71.05 Q19.35 -75.45 19.1 -79.05 L18.95 -80.6 Q18.45 -84.75 15.35 -80.45 15.25 -80.65 16.5 -82.65 L17.55 -84.55 Q18.1 -85.85 17.2 -86.35 14.65 -87.75 12.0 -87.15 12.6 -89.65 14.9 -90.35 L17.75 -90.1 19.5 -89.4 19.9 -89.05 19.9 -88.8 20.9 -88.35 22.5 -85.75 M-24.2 -36.1 Q-22.6 -37.2 -20.2 -37.0 L-17.0 -36.35 -16.85 -33.1 -19.45 -35.2 Q-21.25 -36.55 -24.4 -33.85 L-24.35 -32.5 -24.3 -32.05 Q-21.5 -31.5 -19.55 -29.25 -18.95 -28.55 -18.8 -27.75 -20.65 -29.95 -23.55 -30.3 L-23.5 -28.65 Q-23.5 -23.75 -22.8 -22.4 -22.1 -21.05 -21.55 -19.1 -22.95 -21.2 -24.05 -24.35 L-25.65 -29.05 Q-27.55 -26.6 -27.0 -24.65 -26.45 -22.75 -26.05 -20.0 L-27.0 -22.2 Q-27.6 -24.65 -27.5 -27.55 L-26.95 -30.9 -26.9 -31.0 -26.7 -32.1 -26.6 -32.5 -26.45 -33.25 -26.1 -34.0 -24.85 -35.6 -24.2 -36.1 M-7.2 -86.5 L-7.5 -87.1 -8.8 -89.4 Q-10.25 -91.7 -14.05 -91.8 L-13.75 -87.4 -13.7 -86.55 Q-10.95 -85.0 -9.65 -82.35 -11.45 -83.9 -12.1 -84.05 -12.75 -84.2 -13.5 -84.8 L-13.3 -82.65 -13.3 -82.35 -11.45 -79.05 Q-10.45 -77.0 -10.4 -76.35 L-10.05 -74.0 Q-9.75 -72.7 -10.3 -74.35 -10.85 -76.0 -12.05 -78.25 L-13.1 -79.7 Q-13.45 -79.85 -13.7 -79.05 L-14.2 -76.3 -14.25 -76.65 -14.25 -79.05 -14.1 -81.0 -13.95 -82.75 Q-14.9 -84.65 -15.4 -86.75 -15.9 -88.85 -16.0 -91.45 L-15.9 -91.65 Q-18.45 -89.15 -18.6 -86.95 L-18.55 -85.4 -19.2 -85.25 -19.2 -85.35 -19.3 -87.0 Q-19.35 -92.4 -14.6 -93.6 L-14.55 -93.6 -13.65 -93.8 -11.6 -93.95 Q-8.95 -93.95 -7.7 -92.6 -6.3 -91.0 -7.05 -87.35 L-7.2 -86.5 M-13.65 -83.0 L-13.6 -82.95 -13.85 -83.7 -13.65 -83.0 M-35.8 -57.8 L-33.6 -57.05 Q-32.15 -56.15 -31.9 -54.95 L-31.9 -54.25 -32.0 -53.6 -32.05 -53.5 -32.5 -52.65 Q-36.4 -46.45 -43.8 -46.2 L-43.9 -46.2 -43.9 -46.9 Q-41.1 -47.45 -38.65 -49.1 -36.2 -50.8 -34.3 -53.1 L-34.3 -53.6 -38.4 -53.55 Q-41.1 -53.3 -44.6 -51.75 -48.15 -50.25 -49.1 -50.75 L-50.05 -50.95 Q-46.8 -51.5 -44.7 -52.4 -42.6 -53.35 -41.6 -53.95 -40.6 -54.55 -37.35 -54.85 L-34.4 -54.8 -34.5 -55.05 -34.55 -55.15 -35.8 -57.8 M-50.7 -3.45 L-49.0 -7.1 -46.55 -12.0 -46.5 -12.15 Q-45.05 -14.6 -42.95 -16.6 -41.4 -18.0 -39.5 -18.6 L-39.45 -18.5 Q-41.25 -15.3 -43.6 -12.0 -46.55 -7.95 -50.4 -3.8 L-50.7 -3.45 M-39.4 47.55 Q-39.6 43.6 -40.15 41.45 -40.75 39.25 -42.05 37.85 L-43.45 36.4 -43.95 37.0 -47.5 40.9 -47.3 41.65 -46.2 47.25 -48.25 51.8 Q-47.0 46.8 -47.25 45.8 L-48.3 43.4 -49.45 43.65 -49.45 43.7 -50.75 46.0 Q-52.1 48.65 -53.0 51.5 -53.9 54.3 -54.2 57.15 -54.35 54.6 -54.0 52.35 L-53.2 47.85 Q-52.75 45.65 -50.1 40.45 -53.65 40.9 -55.95 42.9 -54.6 40.95 -49.5 38.8 L-46.0 35.9 -43.6 34.1 -43.45 34.15 -43.4 34.2 Q-43.2 34.5 -43.3 34.65 L-43.05 34.95 -42.8 34.5 -42.75 34.55 -41.35 35.55 Q-37.8 38.8 -38.85 45.85 L-39.4 47.55 M-38.75 63.75 Q-42.05 66.3 -43.4 69.0 -44.75 71.65 -44.3 73.8 -43.85 75.9 -45.15 78.4 -45.15 74.45 -45.5 71.4 -45.05 68.2 -43.6 64.9 -41.95 61.2 -38.75 63.75" fill="#336600" fill-rule="evenodd" stroke="none"/>
    <path d="M12.0 -87.15 L11.85 -87.2 Q12.45 -90.05 14.9 -90.35 12.6 -89.65 12.0 -87.15 M23.4 -86.3 L22.5 -85.75 20.9 -88.35 Q22.4 -87.55 23.4 -86.3 M-14.55 -93.6 L-14.6 -93.6 -14.55 -93.6 M-13.65 -83.0 L-13.85 -83.7 -13.6 -82.95 -13.65 -83.0 M-26.55 -32.85 L-26.5 -33.05 -26.45 -33.25 -26.6 -32.5 -26.7 -32.1 -26.95 -31.0 -26.65 -32.5 -26.55 -32.85 -26.6 -32.5 -26.55 -32.85 M-39.55 48.65 L-39.4 47.55 -38.85 45.85 -38.85 46.0 -38.85 46.05 -39.05 47.0 -39.1 47.05 -39.25 47.7 -39.55 48.65 M-55.95 42.9 L-56.15 42.9 -56.15 42.85 -55.95 42.9 M-46.8 33.15 L-48.05 33.1 -47.7 33.0 -46.8 33.15 M-42.8 34.5 L-43.05 34.95 -43.3 34.65 Q-43.2 34.5 -43.4 34.2 L-42.85 34.5 -42.8 34.5 M-45.15 78.4 L-45.25 78.45 Q-46.05 75.0 -45.5 71.4 -45.15 74.45 -45.15 78.4" fill="#339900" fill-rule="evenodd" stroke="none"/>
    <path d="M15.65 -70.1 Q17.95 -67.3 20.4 -68.95 21.35 -69.55 21.55 -70.75 21.95 -73.5 24.3 -75.35 L24.8 -75.2 Q23.55 -69.35 19.65 -64.15 17.3 -66.95 15.65 -70.1 M-19.5 -15.35 Q-19.85 -13.55 -19.6 -12.55 -22.95 -14.55 -24.85 -17.4 L-24.45 -17.75 Q-22.4 -15.55 -19.5 -15.35 M-51.75 -46.75 L-62.6 -48.55 Q-59.3 -48.8 -56.6 -49.7 -54.15 -48.0 -51.75 -46.75 M-53.6 -12.3 Q-50.55 -17.25 -44.35 -19.7 L-41.3 -20.25 Q-44.0 -19.0 -46.4 -17.25 L-51.2 -14.0 -53.55 -12.2 -53.6 -12.3 M-56.1 -6.05 L-55.95 -6.1 -54.3 -0.45 -56.1 0.45 Q-57.15 -3.6 -56.1 -6.05 M-56.25 60.45 Q-54.2 61.5 -52.85 60.0 L-52.05 58.7 Q-50.8 56.05 -48.1 55.15 -45.45 54.25 -43.1 52.8 L-42.4 53.4 Q-44.55 55.7 -47.85 57.4 -50.45 58.75 -52.25 60.6 -54.5 62.9 -55.5 66.05 L-56.25 60.45" fill="#71ab03" fill-rule="evenodd" stroke="none"/>
    <path d="M27.45 -116.2 L28.9 -116.95 Q31.95 -118.65 34.8 -119.35 46.0 -122.2 54.2 -110.75 M49.9 -101.55 Q48.25 -104.15 46.75 -107.5 43.6 -114.55 38.3 -117.75 42.3 -111.7 39.55 -107.2 M34.8 -119.35 Q36.65 -118.75 38.3 -117.75 M14.15 -49.55 Q4.6 -55.55 -3.65 -54.5 -0.15 -53.95 1.7 -50.9 L9.75 -37.55 9.95 -37.2 9.95 -37.15 M-0.45 -34.95 Q-1.05 -42.2 -9.9 -45.75 L-12.1 -46.4 -14.05 -46.7 Q-17.65 -46.95 -21.4 -45.25 L-19.4 -47.35 Q-16.9 -49.6 -14.05 -51.15 L-12.1 -52.1 Q-8.15 -53.9 -3.65 -54.5 M-28.6 49.25 L-27.05 46.2 -26.8 45.75 Q-24.5 41.85 -21.05 41.05 -19.35 37.5 -17.1 34.9 -13.65 30.75 -8.8 28.95 M-11.6 34.45 L-17.1 34.9 M-15.8 39.95 L-21.05 41.05" fill="none" stroke="#508b36" stroke-linecap="round" stroke-linejoin="round" stroke-width="1.0"/>
    <path d="M-13.65 -93.8 Q-2.75 -101.9 -2.8 -89.55 L-1.9 -90.9 0.7 -94.45 0.9 -94.75 Q4.75 -99.85 8.6 -103.6 13.55 -108.55 27.45 -116.2 M19.9 -88.8 L19.9 -89.05 Q20.1 -98.95 10.9 -98.85 4.15 -98.8 0.9 -94.75 M-21.4 -45.25 Q-22.9 -43.35 -24.05 -40.95 L-24.1 -40.8 Q-22.2 -37.9 -24.2 -36.1 M-26.95 -30.9 L-27.65 -27.55 Q-29.15 -19.85 -30.1 -12.0 L-30.45 -9.0 -30.65 -6.8 Q-32.45 11.5 -31.25 29.9 -30.9 35.25 -31.2 39.95 L-30.7 47.75 -30.7 47.85 Q-29.5 49.55 -30.1 51.55 L-30.75 52.95 -30.85 56.5 -30.05 53.15 -29.6 51.75 -28.6 49.25 M-7.9 -81.6 L-7.2 -82.8 -2.8 -89.55 M-31.9 -54.25 Q-23.45 -52.15 -23.5 -44.8 L-22.8 -47.6 -21.4 -52.15 Q-18.0 -62.55 -13.1 -72.25 M-39.45 -18.5 Q-34.05 -17.55 -31.9 -12.0 -31.05 -9.75 -30.65 -6.8 M-24.05 -40.95 Q-23.55 -43.05 -23.5 -44.8 L-24.75 -39.9 -24.15 -40.7 -24.1 -40.8 -24.05 -40.95 M-24.15 -40.7 L-24.1 -40.8 M-25.1 -38.35 L-25.1 -38.5 -25.25 -37.9 -25.1 -38.35 -24.15 -40.7 M-24.75 -39.9 L-25.1 -38.5 M-26.45 -33.25 L-26.1 -34.5 -25.25 -37.9 -26.55 -32.85 -26.6 -32.5 -26.7 -32.1 -26.9 -31.0 -26.95 -30.9 M-26.45 -33.25 L-26.6 -32.5 M-30.75 52.95 L-30.7 48.45 -30.7 47.75 Q-33.4 37.45 -41.35 35.55 M-31.0 59.95 L-30.95 59.45 -30.95 59.4 -30.85 56.5 -31.2 59.9 -31.0 59.95 -31.15 62.95 -31.5 68.45 -31.6 69.45 Q-31.65 78.2 -32.5 86.85 L-33.05 93.4 M-31.15 62.95 L-31.2 59.9 Q-38.8 58.1 -38.1 63.45 L-37.75 65.0" fill="none" stroke="#508b36" stroke-linecap="round" stroke-linejoin="round" stroke-width="1.0"/>
  </g>
</svg>
