<?xml version="1.0" encoding="UTF-8" standalone="no"?>
<svg xmlns:ffdec="https://www.free-decompiler.com/flash" xmlns:xlink="http://www.w3.org/1999/xlink" ffdec:objectType="shape" height="100.55px" width="107.9px" xmlns="http://www.w3.org/2000/svg">
  <g transform="matrix(1.0, 0.0, 0.0, 1.0, -301.2, -142.75)">
    <path d="M339.85 229.9 L340.45 228.6 337.8 221.55 349.5 209.6 349.55 209.65 354.1 205.05 Q348.65 195.5 348.95 183.4 349.05 179.15 349.65 175.0 L350.5 170.9 Q349.75 168.55 350.5 166.8 350.85 165.75 350.8 164.75 L350.9 164.7 Q353.3 173.3 352.65 182.85 352.4 186.55 352.85 190.2 L353.2 190.75 Q355.05 196.7 356.1 202.15 L356.3 202.4 365.65 191.7 366.5 188.85 Q364.85 177.7 367.3 166.9 370.0 176.25 371.55 185.65 L376.3 179.95 Q375.8 175.4 375.65 171.35 L377.6 173.75 Q378.45 174.55 379.5 174.9 389.3 165.1 398.8 154.4 390.65 167.75 381.35 180.2 L380.2 181.35 384.95 181.65 Q373.05 184.25 368.75 195.25 381.3 197.5 391.5 188.2 382.45 199.0 368.5 200.4 365.4 200.6 362.65 201.85 L360.0 206.1 Q372.3 210.6 385.2 207.85 376.3 214.75 364.4 211.25 L360.35 211.35 Q356.45 212.55 340.65 229.05 L339.85 229.9 M373.8 165.25 Q374.25 164.9 374.85 164.9 L376.15 165.3 376.2 165.3 376.65 165.95 376.95 166.45 376.9 167.15 Q376.95 167.7 376.6 168.05 L376.15 168.45 Q375.7 168.75 375.15 168.85 372.95 168.7 373.0 166.55 373.15 165.7 373.8 165.25" fill="#638549" fill-rule="evenodd" stroke="none"/>
    <path d="M350.9 164.65 L351.9 163.25 370.35 145.6 392.75 142.75 404.0 151.05 409.1 167.7 404.75 189.8 394.45 210.45 387.85 219.45 368.45 226.95 361.9 229.1 339.85 229.9 340.65 229.05 Q356.45 212.55 360.35 211.35 L364.4 211.25 Q376.3 214.75 385.2 207.85 372.3 210.6 360.0 206.1 L362.65 201.85 Q365.4 200.6 368.5 200.4 382.45 199.0 391.5 188.2 381.3 197.5 368.75 195.25 373.05 184.25 384.95 181.65 L380.2 181.35 381.35 180.2 Q390.65 167.75 398.8 154.4 389.3 165.1 379.5 174.9 378.45 174.55 377.6 173.75 L375.65 171.35 Q375.8 175.4 376.3 179.95 L371.55 185.65 Q370.0 176.25 367.3 166.9 364.85 177.7 366.5 188.85 L365.65 191.7 356.3 202.4 356.1 202.15 Q355.05 196.7 353.2 190.75 L352.85 190.2 Q352.4 186.55 352.65 182.85 353.3 173.3 350.9 164.7 L350.9 164.65 M337.8 221.55 L337.75 221.6 336.65 200.1 342.9 175.45 350.8 164.75 Q350.85 165.75 350.5 166.8 349.75 168.55 350.5 170.9 L349.65 175.0 Q349.05 179.15 348.95 183.4 348.65 195.5 354.1 205.05 L349.55 209.65 349.5 209.6 337.8 221.55 M373.8 165.25 Q373.15 165.7 373.0 166.55 372.95 168.7 375.15 168.85 375.7 168.75 376.15 168.45 L376.6 168.05 Q376.95 167.7 376.9 167.15 L376.95 166.45 376.65 165.95 376.2 165.3 376.15 165.3 374.85 164.9 Q374.25 164.9 373.8 165.25" fill="#1e4811" fill-rule="evenodd" stroke="none"/>
    <path d="M350.9 164.65 L351.9 163.25 370.35 145.6 392.75 142.75 404.0 151.05 409.1 167.7 404.75 189.8 394.45 210.45 387.85 219.45 368.45 226.95 361.9 229.1 339.85 229.9 M337.8 221.55 L337.75 221.6 336.65 200.1 342.9 175.45 350.8 164.75 M349.55 209.65 L349.5 209.6" ffdec:has-small-stroke="true" ffdec:original-stroke-width="0.05" fill="none" stroke="#000000" stroke-linecap="round" stroke-linejoin="round" stroke-opacity="0.4" stroke-width="1.0"/>
    <path d="M332.95 217.7 L339.65 222.8 339.95 227.05 340.45 227.65 340.0 227.3 Q330.85 220.25 329.15 220.1 328.2 219.95 327.6 220.55 323.7 224.05 319.05 221.4 324.45 221.25 328.3 217.15 L326.5 215.15 324.0 215.1 Q318.4 216.1 312.95 211.35 318.55 215.15 322.9 212.3 319.2 206.75 314.2 206.85 L315.95 206.1 315.3 205.6 Q309.4 199.9 303.8 193.6 L315.0 202.4 315.5 201.55 315.8 199.95 317.2 204.8 320.05 207.35 Q318.9 201.95 318.15 196.45 321.1 202.05 322.6 208.45 L323.45 209.95 329.0 214.6 329.05 214.45 Q328.4 211.3 328.0 207.8 L328.05 207.45 326.7 203.35 Q324.65 198.15 324.0 193.1 L324.5 194.2 Q325.1 195.05 325.3 196.45 L326.4 198.65 328.25 203.15 Q330.6 209.8 330.35 215.8 L332.95 217.75 332.95 217.7" fill="#638549" fill-rule="evenodd" stroke="none"/>
    <path d="M339.65 222.8 L332.95 217.7 332.95 217.75 330.35 215.8 Q330.6 209.8 328.25 203.15 L326.4 198.65 325.3 196.45 Q325.1 195.05 324.5 194.2 L324.0 193.1 329.05 198.0 336.05 210.8 339.65 222.8 M340.45 227.65 L331.9 230.1 320.2 228.15 316.0 224.0 308.2 213.9 302.4 202.3 301.2 192.45 303.9 186.4 313.0 185.05 323.3 192.4 323.95 193.05 324.0 193.1 Q324.65 198.15 326.7 203.35 L328.05 207.45 328.0 207.8 Q328.4 211.3 329.05 214.45 L329.0 214.6 323.45 209.95 322.6 208.45 Q321.1 202.05 318.15 196.45 318.9 201.95 320.05 207.35 L317.2 204.8 315.8 199.95 315.5 201.55 315.0 202.4 303.8 193.6 Q309.4 199.9 315.3 205.6 L315.95 206.1 314.2 206.85 Q319.2 206.75 322.9 212.3 318.55 215.15 312.95 211.35 318.4 216.1 324.0 215.1 L326.5 215.15 328.3 217.15 Q324.45 221.25 319.05 221.4 323.7 224.05 327.6 220.55 328.2 219.95 329.15 220.1 330.85 220.25 340.0 227.3 L340.45 227.65" fill="#1e4811" fill-rule="evenodd" stroke="none"/>
    <path d="M339.65 222.8 L336.05 210.8 329.05 198.0 324.0 193.1 M332.95 217.75 L332.95 217.7 M323.95 193.05 L323.3 192.4 313.0 185.05 303.9 186.4 301.2 192.45 302.4 202.3 308.2 213.9 316.0 224.0 320.2 228.15 331.9 230.1 340.45 227.65" ffdec:has-small-stroke="true" ffdec:original-stroke-width="0.05" fill="none" stroke="#000000" stroke-linecap="round" stroke-linejoin="round" stroke-opacity="0.4" stroke-width="1.0"/>
    <path d="M369.6 233.8 L369.6 233.75 364.3 233.2 362.85 234.9 362.4 234.95 362.75 234.95 Q370.05 235.7 371.05 236.3 371.65 236.65 371.8 237.15 372.95 240.2 376.4 240.95 373.4 238.7 372.4 235.45 L374.05 235.35 375.5 236.3 Q378.4 239.0 382.9 239.2 378.55 238.55 376.95 235.6 380.7 234.7 383.55 236.8 L382.75 235.8 383.25 235.8 393.4 235.4 384.35 234.55 384.4 234.0 384.65 233.25 382.4 234.75 380.05 234.65 384.4 230.8 Q381.05 232.0 378.25 234.05 L377.3 234.35 372.8 234.05 372.8 234.0 375.4 231.6 375.45 231.45 377.45 230.25 Q380.2 228.9 382.05 227.05 L381.4 227.35 Q380.85 227.45 380.3 227.9 L379.05 228.4 Q377.8 228.9 376.65 229.55 373.3 231.4 371.65 234.0 L369.6 233.8" fill="#638549" fill-rule="evenodd" stroke="none"/>
    <path d="M369.6 233.8 L371.65 234.0 Q373.3 231.4 376.65 229.55 377.8 228.9 379.05 228.4 L380.3 227.9 Q380.85 227.45 381.4 227.35 L382.05 227.05 Q380.2 228.9 377.45 230.25 L375.45 231.45 375.4 231.6 372.8 234.0 372.8 234.05 377.3 234.35 378.25 234.05 Q381.05 232.0 384.4 230.8 L380.05 234.65 382.4 234.75 384.65 233.25 384.4 234.0 384.35 234.55 393.4 235.4 383.25 235.8 382.75 235.8 383.55 236.8 Q380.7 234.7 376.95 235.6 378.55 238.55 382.9 239.2 378.4 239.0 375.5 236.3 L374.05 235.35 372.4 235.45 Q373.4 238.7 376.4 240.95 372.95 240.2 371.8 237.15 371.65 236.65 371.05 236.3 370.05 235.7 362.75 234.95 L362.4 234.95 366.5 239.4 373.75 243.3 377.35 243.25 384.85 242.15 391.6 239.65 395.2 236.0 395.5 232.35 390.7 228.15 382.65 227.0 382.1 227.05 382.05 227.05 377.75 227.05 369.9 229.6 364.3 233.2 369.6 233.75 369.6 233.8" fill="#1e4811" fill-rule="evenodd" stroke="none"/>
    <path d="M369.6 233.75 L369.6 233.8 M364.3 233.2 L369.9 229.6 377.75 227.05 382.05 227.05 M382.1 227.05 L382.65 227.0 390.7 228.15 395.5 232.35 395.2 236.0 391.6 239.65 384.85 242.15 377.35 243.25 373.75 243.3 366.5 239.4 362.4 234.95" ffdec:has-small-stroke="true" ffdec:original-stroke-width="0.05" fill="none" stroke="#000000" stroke-linecap="round" stroke-linejoin="round" stroke-opacity="0.4" stroke-width="1.0"/>
    <path d="M339.65 230.1 L340.25 228.8 337.6 221.75 349.3 209.8 349.35 209.85 353.9 205.25 Q348.45 195.7 348.75 183.6 348.85 179.35 349.45 175.2 L350.3 171.1 Q349.55 168.75 350.3 167.0 350.65 165.95 350.6 164.95 L350.7 164.9 Q353.1 173.5 352.45 183.05 352.2 186.75 352.65 190.4 L353.0 190.95 Q354.85 196.9 355.9 202.35 L356.1 202.6 Q360.5 197.95 365.45 191.9 L366.3 189.05 Q364.65 177.9 367.1 167.1 369.8 176.45 371.35 185.85 L376.1 180.15 Q375.6 175.6 375.45 171.55 L377.4 173.95 Q378.25 174.75 379.3 175.1 389.1 165.3 398.6 154.6 390.45 167.95 381.15 180.4 L380.0 181.55 384.75 181.85 Q372.85 184.45 368.55 195.45 381.1 197.7 391.3 188.4 382.25 199.2 368.3 200.6 365.2 200.8 362.45 202.05 L359.8 206.3 Q372.1 210.8 385.0 208.05 376.1 214.95 364.2 211.45 L360.15 211.55 Q356.25 212.75 340.45 229.25 L339.65 230.1 M373.6 165.45 Q374.05 165.1 374.65 165.1 L375.95 165.5 376.0 165.5 376.45 166.15 376.75 166.65 376.7 167.35 Q376.75 167.9 376.4 168.25 L375.95 168.65 374.95 169.05 Q372.75 168.9 372.8 166.75 372.95 165.9 373.6 165.45" fill="#638549" fill-rule="evenodd" stroke="none"/>
    <path d="M350.7 164.85 L351.7 163.45 370.15 145.8 392.55 142.95 403.8 151.25 408.9 167.9 404.55 190.0 394.25 210.65 387.65 219.65 368.25 227.15 361.7 229.3 339.65 230.1 340.45 229.25 Q356.25 212.75 360.15 211.55 L364.2 211.45 Q376.1 214.95 385.0 208.05 372.1 210.8 359.8 206.3 L362.45 202.05 Q365.2 200.8 368.3 200.6 382.25 199.2 391.3 188.4 381.1 197.7 368.55 195.45 372.85 184.45 384.75 181.85 L380.0 181.55 381.15 180.4 Q390.45 167.95 398.6 154.6 389.1 165.3 379.3 175.1 378.25 174.75 377.4 173.95 L375.45 171.55 Q375.6 175.6 376.1 180.15 L371.35 185.85 Q369.8 176.45 367.1 167.1 364.65 177.9 366.3 189.05 L365.45 191.9 Q360.5 197.95 356.1 202.6 L355.9 202.35 Q354.85 196.9 353.0 190.95 L352.65 190.4 Q352.2 186.75 352.45 183.05 353.1 173.5 350.7 164.9 L350.7 164.85 M337.6 221.75 L337.55 221.8 336.45 200.3 342.7 175.65 350.6 164.95 Q350.65 165.95 350.3 167.0 349.55 168.75 350.3 171.1 L349.45 175.2 Q348.85 179.35 348.75 183.6 348.45 195.7 353.9 205.25 L349.35 209.85 349.3 209.8 337.6 221.75 M373.6 165.45 Q372.95 165.9 372.8 166.75 372.75 168.9 374.95 169.05 L375.95 168.65 376.4 168.25 Q376.75 167.9 376.7 167.35 L376.75 166.65 376.45 166.15 376.0 165.5 375.95 165.5 374.65 165.1 Q374.05 165.1 373.6 165.45" fill="#1e4811" fill-rule="evenodd" stroke="none"/>
    <path d="M350.7 164.85 L351.7 163.45 370.15 145.8 392.55 142.95 403.8 151.25 408.9 167.9 404.55 190.0 394.25 210.65 387.65 219.65 368.25 227.15 361.7 229.3 339.65 230.1 M337.6 221.75 L337.55 221.8 336.45 200.3 342.7 175.65 350.6 164.95 M349.35 209.85 L349.3 209.8" ffdec:has-small-stroke="true" ffdec:original-stroke-width="0.05" fill="none" stroke="#000000" stroke-linecap="round" stroke-linejoin="round" stroke-opacity="0.4" stroke-width="1.0"/>
  </g>
</svg>
