<?xml version="1.0" encoding="UTF-8" standalone="no"?>
<svg xmlns:ffdec="https://www.free-decompiler.com/flash" xmlns:xlink="http://www.w3.org/1999/xlink" ffdec:objectType="shape" height="30.3px" width="38.45px" xmlns="http://www.w3.org/2000/svg">
  <g transform="matrix(1.0, 0.0, 0.0, 1.0, -16.4, -318.9)">
    <path d="M49.05 318.9 Q50.5 320.6 53.75 319.75 L52.35 322.95 Q54.8 323.8 54.85 325.4 L54.4 326.95 53.75 327.9 52.4 329.25 52.2 329.25 52.25 329.35 50.5 330.15 47.55 330.65 Q46.75 330.75 45.95 331.5 L45.6 332.7 45.55 332.65 45.55 332.25 45.95 331.05 45.9 330.75 45.9 330.55 41.05 331.45 41.0 331.15 44.15 328.05 33.9 327.85 37.4 325.65 37.95 325.8 40.95 325.45 45.3 323.4 Q47.1 322.55 48.05 322.25 L48.85 319.5 49.0 319.4 49.0 319.2 49.05 318.9 M41.75 339.05 L39.25 342.55 39.1 341.0 40.65 339.05 41.75 339.05 M30.45 344.95 L24.15 349.2 26.85 344.0 27.35 343.9 Q28.1 343.75 29.35 344.35 L30.45 344.95 M20.4 336.65 L17.0 336.45 20.25 334.65 20.4 336.35 20.4 336.65 M25.0 333.0 L25.5 332.15 27.45 332.0 27.5 332.05 27.25 332.2 25.0 333.0 M52.35 322.95 L52.0 323.8 Q51.7 323.8 51.5 324.3 L51.3 324.75 50.5 326.25 49.5 327.2 Q48.45 327.9 46.7 327.5 L45.4 327.2 44.8 326.85 44.75 326.8 44.65 326.7 44.6 326.45 Q44.55 325.75 46.3 324.45 L47.7 323.5 47.05 325.7 47.7 323.5 46.3 324.45 Q44.55 325.75 44.6 326.45 L44.65 326.7 44.75 326.8 44.8 326.85 45.4 327.2 46.7 327.5 Q48.45 327.9 49.5 327.2 L50.5 326.25 51.3 324.75 51.5 324.3 Q51.7 323.8 52.0 323.8 L52.35 322.95 M47.7 323.5 L48.05 322.25 47.7 323.5" fill="#949301" fill-rule="evenodd" stroke="none"/>
    <path d="M45.5 333.0 L44.55 336.1 43.6 336.45 43.35 336.5 43.25 336.3 43.2 336.3 43.2 336.2 43.05 336.0 Q42.35 335.0 41.35 335.25 L41.0 335.35 Q40.4 335.6 39.95 335.95 L39.45 336.5 39.0 337.35 38.8 337.35 38.75 337.35 38.45 337.3 38.35 337.3 38.3 337.25 37.85 337.2 37.65 337.1 37.7 337.15 37.6 337.15 Q37.25 337.1 37.15 336.7 37.0 336.4 37.1 335.75 L37.3 335.1 36.45 335.5 36.65 335.55 Q36.55 336.85 32.55 339.7 28.5 342.55 22.6 341.35 21.35 341.55 20.8 342.05 L20.8 342.0 20.6 341.5 Q20.3 341.15 19.1 341.15 17.9 341.15 17.65 340.55 17.3 339.8 18.1 339.05 L19.4 338.15 19.45 338.15 19.85 337.85 20.4 337.55 20.5 337.5 22.3 337.2 22.55 337.15 24.95 336.75 Q26.7 336.1 30.3 332.95 L28.25 333.8 27.95 333.8 Q24.55 335.5 21.1 336.6 L20.75 336.6 20.4 336.35 20.25 334.65 20.2 334.4 Q20.0 333.65 21.05 333.45 L23.15 333.4 24.6 333.1 25.0 333.0 27.25 332.2 28.5 331.75 28.55 331.7 29.15 331.5 Q30.4 330.9 31.1 329.8 28.15 330.8 25.6 331.95 L27.1 329.4 Q27.65 328.45 31.45 328.65 32.25 328.7 33.9 327.85 L44.15 328.05 41.0 331.15 41.05 331.45 45.9 330.55 45.9 330.75 45.95 331.05 45.55 332.25 45.55 332.65 45.5 333.0 M38.4 333.55 L37.4 334.55 37.3 335.1 37.4 334.55 38.4 333.55" fill="#c8c702" fill-rule="evenodd" stroke="none"/>
    <path d="M43.5 336.6 L41.75 339.05 40.65 339.05 39.1 341.0 38.9 338.45 38.9 338.4 38.8 337.35 39.0 337.35 39.45 336.5 39.95 335.95 Q40.4 335.6 41.0 335.35 L41.35 335.25 Q42.35 335.0 43.05 336.0 L43.2 336.2 43.2 336.3 43.25 336.3 43.35 336.5 43.5 336.6 M21.3 343.9 L21.25 343.95 16.4 346.15 20.8 342.0 20.8 342.05 20.85 342.15 21.15 343.5 21.3 343.9" fill="#999801" fill-rule="evenodd" stroke="none"/>
    <path d="M25.5 332.15 L25.6 331.95 Q28.15 330.8 31.1 329.8 30.4 330.9 29.15 331.5 L28.55 331.7 28.5 331.75 27.25 332.2 27.5 332.05 27.9 331.75 27.45 332.0 25.5 332.15 M21.1 336.6 Q24.55 335.5 27.95 333.8 L28.25 333.8 30.3 332.95 Q26.7 336.1 24.95 336.75 L22.55 337.15 23.85 337.0 24.25 336.85 25.5 335.65 24.2 336.15 23.85 336.05 21.1 336.6 M37.7 337.15 L37.75 337.2 32.4 340.55 31.35 344.2 Q29.9 343.0 28.3 342.55 L28.05 342.6 27.7 342.55 22.8 343.5 22.65 343.4 21.4 342.55 Q21.8 343.3 21.45 342.9 L21.0 342.3 20.85 342.15 20.8 342.05 Q21.35 341.55 22.6 341.35 28.5 342.55 32.55 339.7 36.55 336.85 36.65 335.55 L36.45 335.5 37.3 335.1 37.1 335.75 Q37.0 336.4 37.15 336.7 37.25 337.1 37.6 337.15 L37.7 337.15" fill="#bdbc02" fill-rule="evenodd" stroke="none"/>
    <path d="M38.9 338.4 L38.7 338.45 34.7 340.25 Q34.45 340.45 33.15 342.65 L31.7 345.05 31.2 345.2 30.45 344.95 29.35 344.35 Q28.1 343.75 27.35 343.9 L26.85 344.0 23.7 344.75 22.4 344.9 21.75 344.65 21.4 344.15 21.3 343.9 21.15 343.5 20.85 342.15 21.0 342.3 21.45 342.9 Q21.8 343.3 21.4 342.55 L22.65 343.4 22.8 343.5 27.7 342.55 28.05 342.6 28.3 342.55 Q29.9 343.0 31.35 344.2 L32.4 340.55 37.75 337.2 37.7 337.15 37.85 337.2 38.35 337.3 38.45 337.3 38.75 337.35 38.8 337.35 38.9 338.4 M20.4 337.55 L20.4 336.65 20.4 336.35 20.75 336.6 21.1 336.6 23.85 336.05 24.2 336.15 25.5 335.65 24.25 336.85 23.85 337.0 22.55 337.15 22.3 337.2 20.5 337.5 20.4 337.55" fill="#585701" fill-rule="evenodd" stroke="none"/>
    <path d="M48.85 319.5 L49.0 318.9 49.05 318.9 Q50.5 320.6 53.75 319.75 L52.35 322.95 Q54.8 323.8 54.85 325.4 L54.4 326.95 53.75 327.9 52.4 329.25 52.25 329.35 50.5 330.15 47.55 330.65 Q46.75 330.75 45.95 331.5 L45.6 332.7 45.5 333.0 44.55 336.1 43.6 336.45 43.5 336.6 41.75 339.05 39.25 342.55 39.1 341.0 38.9 338.45 38.9 338.4 38.7 338.45 34.7 340.25 Q34.45 340.45 33.15 342.65 L31.7 345.05 31.2 345.2 30.45 344.95 24.15 349.2 26.85 344.0 23.7 344.75 22.4 344.9 21.75 344.65 21.4 344.2 21.4 344.15 21.3 343.9 21.25 343.95 16.4 346.15 20.8 342.0 20.6 341.5 Q20.3 341.15 19.1 341.15 17.9 341.15 17.65 340.55 17.3 339.8 18.1 339.05 L19.4 338.15 19.45 338.15 19.85 337.85 20.4 337.55 20.4 336.65 17.0 336.45 20.25 334.65 20.2 334.4 Q20.0 333.65 21.05 333.45 L23.15 333.4 24.6 333.1 25.0 333.0 25.5 332.15 25.6 331.95 27.1 329.4 Q27.65 328.45 31.45 328.65 32.25 328.7 33.9 327.85 L37.4 325.65 37.95 325.8 40.95 325.45 45.3 323.4 Q47.1 322.55 48.05 322.25 L48.85 319.5 M47.05 325.7 L47.7 323.5 46.3 324.45 Q44.55 325.75 44.6 326.45 L44.65 326.7 44.75 326.8 44.8 326.85 45.4 327.2 46.7 327.5 Q48.45 327.9 49.5 327.2 L50.5 326.25 51.3 324.75 51.5 324.3 Q51.7 323.8 52.0 323.8 L52.35 322.95 M48.05 322.25 L47.7 323.5 M43.35 336.5 L43.6 336.45 M38.8 337.35 L39.0 337.35 39.45 336.5 39.95 335.95 Q40.4 335.6 41.0 335.35 L41.35 335.25 Q42.35 335.0 43.05 336.0 L43.2 336.2 43.2 336.3 43.25 336.3 43.35 336.5 M27.25 332.2 L28.5 331.75 28.55 331.7 29.15 331.5 M22.55 337.15 L24.95 336.75 Q26.7 336.1 30.3 332.95 M27.25 332.2 L25.0 333.0 M20.4 336.35 L20.4 336.65 M20.25 334.65 L20.4 336.35 M22.55 337.15 L22.3 337.2 20.5 337.5 20.4 337.55 M20.85 342.15 L21.15 343.5 21.3 343.9 M20.8 342.0 L20.8 342.05 20.85 342.15 M37.3 335.1 L37.4 334.55 38.4 333.55 M26.85 344.0 L27.35 343.9 Q28.1 343.75 29.35 344.35 L30.45 344.95 M37.85 337.2 L37.7 337.15 37.6 337.15 Q37.25 337.1 37.15 336.7 37.0 336.4 37.1 335.75 L37.3 335.1 M37.85 337.2 L38.3 337.25 38.35 337.3 38.45 337.3 38.75 337.35 38.8 337.35 38.9 338.4" ffdec:has-small-stroke="true" ffdec:original-stroke-width="0.05" fill="none" stroke="#52371d" stroke-linecap="round" stroke-linejoin="round" stroke-opacity="0.5019608" stroke-width="1.0"/>
  </g>
</svg>
