<?xml version="1.0" encoding="UTF-8" standalone="no"?>
<svg xmlns:ffdec="https://www.free-decompiler.com/flash" xmlns:xlink="http://www.w3.org/1999/xlink" ffdec:objectType="shape" height="62.45px" width="98.75px" xmlns="http://www.w3.org/2000/svg">
  <g transform="matrix(1.0, 0.0, 0.0, 1.0, -12.85, -269.75)">
    <path d="M90.95 279.45 L87.55 280.25 85.7 285.85 94.55 287.7 97.55 275.7 97.5 275.7 86.25 271.55 76.2 283.7 81.1 308.95 83.8 309.45 83.8 309.35 95.2 316.5 95.0 301.95 102.6 293.65 101.5 295.45 95.95 302.7 97.95 321.1 99.4 320.55 99.4 320.65 106.35 317.6 102.2 315.8 109.1 316.35 108.15 317.3 99.95 322.95 101.7 323.95 101.75 323.85 103.65 327.85 110.05 326.6 102.85 329.6 105.5 331.3 97.2 331.65 90.2 327.65 88.6 320.05 85.95 325.4 74.85 322.1 72.0 311.85 71.15 322.25 59.55 314.25 63.55 323.2 48.5 332.0 19.8 332.2 26.5 329.25 16.0 311.4 22.45 299.45 12.85 296.45 23.3 297.9 28.15 288.9 23.7 299.55 17.95 311.0 30.0 328.4 31.55 327.3 37.25 325.1 37.2 325.0 39.05 324.95 31.35 310.05 42.2 322.4 42.25 322.45 42.45 322.15 46.9 318.05 44.4 303.4 44.3 302.45 47.6 314.4 50.25 310.4 50.15 309.9 51.75 308.35 51.7 308.2 49.85 300.4 48.25 285.65 47.25 284.95 46.35 284.0 31.05 275.2 25.25 277.3 24.85 280.05 23.05 278.1 31.1 272.75 50.1 282.65 53.6 296.35 54.15 297.15 56.05 301.75 64.5 301.0 64.05 300.95 64.15 300.95 67.0 292.25 65.8 305.05 67.55 302.7 78.3 305.65 74.1 283.6 85.85 269.75 99.95 273.75 95.5 289.6 84.45 286.5 87.2 278.7 90.95 279.45 M31.15 309.85 L31.1 309.75 31.15 309.85 M106.3 329.85 L111.6 331.0 108.7 331.15 106.3 329.85" fill="#669900" fill-rule="evenodd" stroke="none"/>
    <path d="M83.8 309.35 L83.8 309.45 81.1 308.95 76.2 283.7 86.25 271.55 97.5 275.7 97.55 275.7 94.55 287.7 85.7 285.85 87.55 280.25 90.95 279.45 93.0 279.8 88.2 280.9 86.3 285.45 94.15 286.75 96.7 276.2 86.15 272.9 77.1 283.9 83.8 309.35 M67.55 302.7 L65.8 305.05 67.0 292.25 67.1 291.95 67.2 302.6 67.55 302.7 M24.85 280.05 L25.25 277.3 31.05 275.2 46.35 284.0 47.25 284.95 48.25 285.65 49.85 300.4 51.7 308.2 51.75 308.35 50.15 309.9 46.45 286.0 46.4 286.0 46.2 285.85 30.75 276.1 25.95 278.4 26.85 282.2 24.85 280.05 M44.4 303.4 L46.9 318.05 42.45 322.15 45.75 317.15 44.4 303.4 M31.35 310.05 L39.05 324.95 37.2 325.0 31.15 309.85 31.35 310.05 M31.55 327.3 L30.0 328.4 17.95 311.0 23.7 299.55 19.05 310.65 31.55 327.3 M48.5 332.0 L63.55 323.2 59.55 314.25 71.15 322.25 72.0 311.85 74.85 322.1 85.95 325.4 88.6 320.05 90.2 327.65 97.2 331.65 48.5 332.0 M105.5 331.3 L102.85 329.6 110.05 326.6 110.8 326.45 105.7 329.7 106.3 329.85 108.7 331.15 105.5 331.3 M101.75 323.85 L101.7 323.95 99.95 322.95 108.15 317.3 101.75 323.85 M99.4 320.55 L97.95 321.1 95.95 302.7 101.5 295.45 96.45 303.55 99.4 320.55" fill="#486a00" fill-rule="evenodd" stroke="none"/>
  </g>
</svg>
