<?xml version="1.0" encoding="UTF-8" standalone="no"?>
<svg xmlns:ffdec="https://www.free-decompiler.com/flash" xmlns:xlink="http://www.w3.org/1999/xlink" ffdec:objectType="shape" height="68.75px" width="157.4px" xmlns="http://www.w3.org/2000/svg">
  <g transform="matrix(1.0, 0.0, 0.0, 1.0, -207.05, -178.9)">
    <path d="M352.2 191.75 L352.75 193.3 346.55 190.4 Q348.8 192.3 350.35 194.8 L347.4 192.45 347.7 193.15 Q348.5 194.8 349.9 196.3 L344.45 191.3 344.6 191.3 344.3 191.2 342.55 189.75 342.9 190.4 Q338.75 188.25 333.65 187.2 L337.5 188.8 335.4 188.5 331.65 186.85 332.05 187.15 333.0 188.15 329.5 187.75 Q327.85 187.0 326.0 186.55 L326.1 186.6 326.5 187.45 324.95 187.3 325.9 188.35 325.85 188.35 Q325.65 188.9 327.1 189.55 L327.55 189.8 327.45 189.65 327.9 189.9 316.1 189.0 316.1 189.15 Q316.9 189.45 317.7 189.9 308.2 187.8 298.35 186.7 L279.8 185.25 Q274.5 185.1 267.0 185.5 L258.05 186.1 Q258.9 185.6 260.0 185.25 L260.15 185.2 252.7 185.8 257.95 185.25 249.75 185.65 259.95 183.85 251.0 184.35 260.4 182.8 249.2 184.05 252.1 183.5 249.5 183.85 254.45 182.65 236.6 186.35 236.2 186.45 244.7 185.35 240.25 186.45 246.75 185.45 239.8 186.95 244.45 186.4 237.8 188.05 240.85 187.85 252.25 185.85 252.4 185.8 250.75 186.6 Q248.6 186.9 246.65 187.5 L239.75 189.05 Q231.9 190.9 224.45 193.2 L220.35 194.65 220.2 194.55 219.55 194.15 217.75 194.15 217.6 193.05 217.25 192.9 213.85 193.15 213.85 192.7 213.6 192.4 210.45 193.0 210.6 192.1 208.75 192.8 Q217.1 189.25 226.05 186.5 235.1 183.6 244.65 181.75 254.25 179.95 264.25 179.4 L278.7 178.95 280.0 178.95 284.7 179.05 305.75 180.2 Q316.4 181.15 326.75 183.3 337.2 185.35 346.9 189.2 349.75 190.3 352.2 191.75 M338.8 198.85 L342.35 200.6 337.1 195.5 341.0 198.65 340.8 198.1 338.6 194.9 Q340.8 196.85 343.05 197.8 L342.75 197.3 Q342.1 195.9 342.35 194.5 344.85 197.1 345.85 200.35 L345.4 196.05 Q346.4 197.55 347.05 199.25 L346.95 198.2 Q349.35 200.65 350.95 203.6 L350.95 197.6 Q352.6 198.85 353.2 200.65 L353.4 197.05 355.9 199.5 Q355.85 196.55 354.6 193.85 L354.75 194.0 Q355.45 194.3 356.05 194.75 L356.85 195.05 Q358.7 196.65 360.25 198.55 362.05 206.95 355.2 214.35 351.05 218.75 345.3 221.75 339.95 222.75 334.95 221.95 L334.95 221.2 341.05 216.9 Q337.15 218.05 332.75 218.4 L331.9 217.95 331.5 217.15 331.5 217.1 Q336.45 214.5 340.1 210.7 L340.4 210.45 Q345.95 203.95 338.8 198.85 M297.0 224.7 L297.35 226.85 325.65 224.9 Q323.2 225.75 320.95 227.05 317.0 228.3 313.7 230.0 L295.5 231.25 292.9 231.25 292.65 231.15 291.35 230.9 Q286.75 227.45 280.6 225.65 L279.0 225.2 Q287.9 225.5 297.0 224.7" fill="#02a301" fill-rule="evenodd" stroke="none"/>
    <path d="M317.7 189.9 Q316.9 189.45 316.1 189.15 L316.1 189.0 327.9 189.9 327.45 189.65 327.55 189.8 327.1 189.55 Q325.65 188.9 325.85 188.35 L325.9 188.35 324.95 187.3 326.5 187.45 326.1 186.6 326.0 186.55 Q327.85 187.0 329.5 187.75 L333.0 188.15 332.05 187.15 331.65 186.85 335.4 188.5 337.5 188.8 333.65 187.2 Q338.75 188.25 342.9 190.4 L342.55 189.75 344.3 191.2 344.6 191.3 344.45 191.3 349.9 196.3 Q348.5 194.8 347.7 193.15 L347.4 192.45 350.35 194.8 Q348.8 192.3 346.55 190.4 L352.75 193.3 352.2 191.75 Q354.7 193.2 356.85 195.05 L356.05 194.75 Q355.45 194.3 354.75 194.0 L354.6 193.85 Q355.85 196.55 355.9 199.5 L353.4 197.05 353.2 200.65 Q352.6 198.85 350.95 197.6 L350.95 203.6 Q349.35 200.65 346.95 198.2 L347.05 199.25 Q346.4 197.55 345.4 196.05 L345.85 200.35 Q344.85 197.1 342.35 194.5 342.1 195.9 342.75 197.3 L343.05 197.8 Q340.8 196.85 338.6 194.9 L340.8 198.1 341.0 198.65 337.1 195.5 342.35 200.6 338.8 198.85 Q345.95 203.95 340.4 210.45 L340.1 210.7 Q332.9 204.55 322.9 200.75 312.9 197.0 302.1 195.55 291.3 193.95 280.55 193.8 270.0 193.5 259.7 194.35 249.75 195.25 240.4 197.45 231.25 199.45 222.25 201.9 L220.05 202.5 220.75 201.65 Q223.4 197.9 220.35 194.65 L224.45 193.2 Q226.45 194.5 227.25 196.45 L227.7 197.45 246.8 192.7 246.65 187.5 Q248.6 186.9 250.75 186.6 L254.0 186.35 258.05 186.1 258.2 191.75 265.7 191.6 Q275.85 191.4 286.05 191.8 296.25 192.15 306.35 193.6 L321.3 196.2 320.0 191.05 317.7 189.9 319.8 190.35 Q330.65 193.0 338.75 198.8 L338.8 198.85 338.75 198.8 Q330.65 193.0 319.8 190.35 L317.7 189.9 M217.05 197.25 L217.3 197.2 217.45 197.35 217.6 197.7 217.8 198.75 217.6 199.9 216.95 200.65 215.45 201.05 213.95 200.95 212.6 200.4 211.5 199.45 217.05 197.25 M286.2 231.75 L286.8 232.3 287.1 232.65 287.5 233.3 287.55 233.4 285.6 233.55 283.55 233.4 280.6 233.5 280.6 233.45 280.5 233.3 Q283.4 233.1 284.85 232.15 L284.85 232.1 283.55 230.3 Q285.05 230.85 286.2 231.75" fill="#014e01" fill-rule="evenodd" stroke="none"/>
    <path d="M360.25 198.55 L361.3 200.25 Q364.45 205.8 364.45 211.1 364.45 215.7 361.95 220.05 360.5 222.8 354.6 225.6 342.65 231.35 320.3 235.1 L293.25 239.3 293.8 238.1 Q294.9 235.1 292.65 232.25 L291.8 231.3 292.9 231.25 295.5 231.25 313.7 230.0 Q317.0 228.3 320.95 227.05 323.2 225.75 325.65 224.9 L297.35 226.85 297.0 224.7 300.0 224.4 Q311.15 223.15 322.15 220.55 327.3 219.2 331.5 217.1 L331.5 217.15 331.9 217.95 332.75 218.4 Q337.15 218.05 341.05 216.9 L334.95 221.2 334.95 221.95 Q339.95 222.75 345.3 221.75 351.05 218.75 355.2 214.35 362.05 206.95 360.25 198.55 M293.15 239.3 L293.2 239.3 293.2 239.35 294.05 239.3 294.2 239.3 294.2 239.35 294.3 239.45 294.3 239.5 294.2 239.6 294.15 239.6 Q293.85 239.6 293.7 239.75 L293.6 239.75 292.05 239.85 291.95 239.95 291.3 240.1 291.1 240.15 291.05 240.15 291.0 240.15 290.95 240.15 290.9 240.2 290.45 240.15 290.3 240.1 290.3 240.05 290.4 239.9 290.6 239.85 290.95 239.75 290.95 239.7 290.9 239.6 290.9 239.55 290.95 239.5 291.6 239.35 292.35 239.25 293.15 239.3" fill="#028701" fill-rule="evenodd" stroke="none"/>
    <path d="M224.45 193.2 Q231.9 190.9 239.75 189.05 L246.65 187.5 246.8 192.7 227.7 197.45 227.25 196.45 Q226.45 194.5 224.45 193.2 M250.75 186.6 L252.4 185.8 252.25 185.85 240.85 187.85 237.8 188.05 244.45 186.4 239.8 186.95 246.75 185.45 240.25 186.45 244.7 185.35 236.2 186.45 236.6 186.35 254.45 182.65 249.5 183.85 252.1 183.5 249.2 184.05 260.4 182.8 251.0 184.35 259.95 183.85 249.75 185.65 257.95 185.25 252.7 185.8 260.15 185.2 260.0 185.25 Q258.9 185.6 258.05 186.1 L267.0 185.5 Q274.5 185.1 279.8 185.25 L298.35 186.7 Q308.2 187.8 317.7 189.9 L320.0 191.05 321.3 196.2 306.35 193.6 Q296.25 192.15 286.05 191.8 275.85 191.4 265.7 191.6 L258.2 191.75 258.05 186.1 254.0 186.35 250.75 186.6 M211.5 199.45 Q211.1 198.9 211.05 198.4 210.7 197.15 211.1 196.7 L211.7 196.1 212.9 195.8 214.6 195.95 216.25 196.45 217.15 197.0 217.2 197.05 217.05 197.2 217.0 197.2 217.05 197.25 211.5 199.45 M283.55 230.3 L284.85 232.1 284.85 232.15 Q283.4 233.1 280.5 233.3 279.8 232.05 279.85 231.25 L279.95 230.85 Q280.35 229.7 281.3 229.65 282.5 229.85 283.55 230.3" fill="#026501" fill-rule="evenodd" stroke="none"/>
    <path d="M208.75 192.8 L210.6 192.1 210.45 193.0 213.6 192.4 213.85 192.7 213.85 193.15 217.25 192.9 217.6 193.05 217.75 194.15 219.55 194.15 220.2 194.55 Q218.45 195.75 217.2 197.05 L217.15 197.0 216.25 196.45 214.6 195.95 212.9 195.8 211.7 196.1 211.1 196.7 Q210.7 197.15 211.05 198.4 211.1 198.9 211.5 199.45 L210.55 199.5 208.7 200.45 Q207.55 199.2 207.25 197.65 L207.05 195.75 Q207.05 194.6 207.45 194.05 208.15 193.05 208.65 192.8 L208.75 192.8 M295.8 240.55 L296.15 240.55 298.45 240.5 300.1 240.6 300.4 241.0 298.65 241.3 301.8 241.45 306.95 241.65 306.9 241.8 306.1 242.15 305.9 242.45 296.6 242.15 296.5 241.3 291.4 241.1 295.8 240.55 M280.95 238.65 L280.0 238.65 279.8 238.7 Q279.95 240.05 282.75 240.5 L283.2 240.6 283.2 241.0 281.1 241.3 279.85 241.2 Q277.7 240.45 275.6 240.7 275.0 240.85 275.0 241.25 275.1 243.05 278.2 243.6 L279.15 243.75 278.65 243.85 276.8 244.35 Q279.05 244.3 278.7 245.2 L277.9 245.8 277.3 246.1 273.6 246.85 269.75 246.75 Q267.45 246.4 266.05 245.5 L265.6 245.5 Q265.65 245.2 266.1 245.0 L265.65 245.05 266.4 244.85 266.95 244.7 266.95 244.75 268.25 244.6 272.15 244.25 272.25 243.9 270.95 242.95 270.9 242.6 270.8 242.55 267.05 242.4 Q265.9 242.6 265.1 243.25 L265.1 243.35 265.2 243.6 265.1 243.7 264.7 243.85 262.0 244.2 259.2 244.25 256.55 244.05 253.95 243.3 253.5 243.15 Q253.55 242.75 253.95 242.35 254.75 241.3 256.75 241.25 L260.9 241.6 263.4 241.45 266.6 240.85 270.1 239.9 272.7 238.8 Q273.25 238.35 274.75 237.55 276.2 236.7 276.35 235.3 276.4 234.45 277.35 234.0 L277.9 233.65 280.6 233.5 283.55 233.4 285.6 233.55 285.9 233.75 285.9 233.8 285.75 234.25 282.05 234.7 Q280.55 235.3 281.45 236.5 L281.65 237.15 280.85 237.75 Q280.75 238.2 280.95 238.65 M276.1 231.55 Q275.3 229.4 275.85 228.0 276.8 225.3 279.0 225.2 L280.6 225.65 Q286.75 227.45 291.35 230.9 289.5 230.65 287.55 230.85 L287.4 230.85 287.15 231.0 Q286.6 231.25 286.2 231.75 285.05 230.85 283.55 230.3 282.5 229.85 281.3 229.65 280.35 229.7 279.95 230.85 L279.85 231.25 276.1 231.55 M286.9 235.7 L286.1 235.8 285.45 235.8 284.85 235.75 286.6 234.95 286.6 234.9 Q287.1 235.2 286.9 235.7 M289.15 240.75 Q288.25 240.95 287.7 240.5 L287.65 240.25 287.85 240.0 288.15 239.9 289.0 240.15 289.15 240.15 289.2 240.35 289.3 240.45 289.3 240.5 289.25 240.55 289.2 240.7 289.15 240.75 M270.95 245.6 L273.95 245.65 Q273.85 245.45 273.4 245.45 L273.2 245.45 270.95 245.6" fill="#37fd37" fill-rule="evenodd" stroke="none"/>
    <path d="M220.2 194.55 L220.35 194.65 Q223.4 197.9 220.75 201.65 L220.05 202.5 219.75 202.65 Q218.5 203.2 216.8 203.4 214.3 203.55 212.15 202.75 L210.6 202.05 208.7 200.45 210.55 199.5 211.5 199.45 212.6 200.4 213.95 200.95 215.45 201.05 216.95 200.65 217.6 199.9 217.8 198.75 217.6 197.7 217.45 197.35 217.3 197.2 217.05 197.25 217.0 197.2 217.05 197.2 217.2 197.05 217.3 197.2 217.2 197.05 Q218.45 195.75 220.2 194.55 M292.9 231.25 L291.8 231.3 292.65 232.25 Q294.9 235.1 293.8 238.1 L293.25 239.3 293.15 239.3 292.35 239.25 291.6 239.35 290.95 239.5 290.9 239.55 290.9 239.6 290.95 239.7 290.95 239.75 290.6 239.85 290.4 239.9 290.3 240.05 290.3 240.1 290.45 240.15 290.85 240.65 290.85 240.7 295.8 240.55 291.4 241.1 296.5 241.3 296.6 242.15 305.9 242.45 306.1 242.15 306.9 241.8 306.95 241.65 307.05 241.65 307.4 241.95 Q307.5 243.2 306.25 243.6 L302.15 243.95 297.0 243.3 Q294.7 242.7 294.6 242.45 L294.6 242.05 290.2 242.25 289.15 241.95 289.05 241.9 Q286.75 241.8 286.5 240.4 285.25 240.55 284.55 239.85 L284.45 239.55 Q283.8 239.35 283.55 238.8 L280.95 238.65 Q280.75 238.2 280.85 237.75 L281.65 237.15 281.45 236.5 Q280.55 235.3 282.05 234.7 L285.75 234.25 285.9 233.8 285.9 233.75 285.6 233.55 287.55 233.4 287.5 233.3 287.1 232.65 286.8 232.3 286.2 231.75 Q286.6 231.25 287.15 231.0 L287.4 230.85 287.55 230.85 Q289.5 230.65 291.35 230.9 L292.65 231.15 292.9 231.25 M298.45 240.5 L301.55 240.5 301.85 240.75 Q302.05 241.1 301.8 241.45 L298.65 241.3 300.4 241.0 300.1 240.6 298.45 240.5 M283.2 240.6 Q284.2 241.0 284.1 241.4 L283.7 241.85 Q281.0 242.4 278.4 241.85 L275.0 241.25 Q275.0 240.85 275.6 240.7 277.7 240.45 279.85 241.2 L281.1 241.3 283.2 241.0 283.2 240.6 M279.15 243.75 Q281.25 244.75 280.25 246.05 279.4 247.05 277.6 247.35 L274.55 247.65 273.6 247.6 270.6 247.45 Q268.5 247.2 266.65 246.55 L265.9 246.25 265.6 245.5 266.05 245.5 Q267.45 246.4 269.75 246.75 L273.6 246.85 277.3 246.1 277.9 245.8 278.7 245.2 Q279.05 244.3 276.8 244.35 L278.65 243.85 279.15 243.75 M265.65 245.05 L260.55 245.45 Q257.6 245.5 255.05 244.55 253.45 243.9 253.5 243.15 L253.95 243.3 256.55 244.05 259.2 244.25 262.0 244.2 264.7 243.85 265.1 243.7 265.2 243.6 265.1 243.35 265.1 243.25 Q265.9 242.6 267.05 242.4 L270.8 242.55 270.9 242.6 270.95 242.95 268.25 242.65 Q266.8 242.7 265.85 243.3 L266.0 243.6 267.25 244.2 266.95 244.7 266.4 244.85 265.65 245.05 M277.35 234.0 L276.1 231.55 279.85 231.25 Q279.8 232.05 280.5 233.3 L280.6 233.45 280.6 233.5 277.9 233.65 277.35 234.0 M286.9 235.7 L287.35 235.65 287.5 235.3 Q287.85 234.3 287.55 233.4 287.85 234.3 287.5 235.3 L287.35 235.65 286.9 235.7 Q287.1 235.2 286.6 234.9 L286.6 234.95 284.85 235.75 285.45 235.8 286.1 235.8 286.9 235.7 M283.35 235.4 L284.85 235.75 283.35 235.4 M291.8 231.3 L291.35 230.9 291.8 231.3 M289.15 240.75 L289.2 240.7 289.25 240.55 289.3 240.5 289.3 240.45 289.2 240.35 289.15 240.15 289.0 240.15 288.15 239.9 287.85 240.0 287.65 240.25 287.7 240.5 Q288.25 240.95 289.15 240.75 M270.95 245.6 L273.2 245.45 273.4 245.45 Q273.85 245.45 273.95 245.65 L270.95 245.6" fill="#02cc02" fill-rule="evenodd" stroke="none"/>
    <path d="M352.2 191.75 Q349.75 190.3 346.9 189.2 337.2 185.35 326.75 183.3 316.4 181.15 305.75 180.2 L284.7 179.05 280.0 178.95 278.7 178.95 264.25 179.4 Q254.25 179.95 244.65 181.75 235.1 183.6 226.05 186.5 217.1 189.25 208.75 192.8 L208.65 192.8 Q208.15 193.05 207.45 194.05 207.05 194.6 207.05 195.75 L207.25 197.65 Q207.55 199.2 208.7 200.45 L210.6 202.05 212.15 202.75 Q214.3 203.55 216.8 203.4 218.5 203.2 219.75 202.65 L220.05 202.5 220.75 201.65 Q223.4 197.9 220.35 194.65 M356.85 195.05 Q354.7 193.2 352.2 191.75 M293.25 239.3 L320.3 235.1 Q342.65 231.35 354.6 225.6 360.5 222.8 361.95 220.05 364.45 215.7 364.45 211.1 364.45 205.8 361.3 200.25 L360.25 198.55 Q358.7 196.65 356.85 195.05 M331.5 217.1 Q327.3 219.2 322.15 220.55 311.15 223.15 300.0 224.4 L297.0 224.7 Q287.9 225.5 279.0 225.2 276.8 225.3 275.85 228.0 275.3 229.4 276.1 231.55 L277.35 234.0 M291.8 231.3 L292.65 232.25 Q294.9 235.1 293.8 238.1 L293.25 239.3 293.15 239.3 M340.1 210.7 Q336.45 214.5 331.5 217.1 M340.1 210.7 Q332.9 204.55 322.9 200.75 312.9 197.0 302.1 195.55 291.3 193.95 280.55 193.8 270.0 193.5 259.7 194.35 249.75 195.25 240.4 197.45 231.25 199.45 222.25 201.9 L220.05 202.5 M291.35 230.9 L291.8 231.3 M291.35 230.9 Q286.75 227.45 280.6 225.65 L279.0 225.2" ffdec:has-small-stroke="true" ffdec:original-stroke-width="0.05" fill="none" stroke="#006500" stroke-linecap="round" stroke-linejoin="round" stroke-width="1.0"/>
    <path d="M220.35 194.65 L224.45 193.2 Q231.9 190.9 239.75 189.05 L246.65 187.5 Q248.6 186.9 250.75 186.6 L254.0 186.35 258.05 186.1 267.0 185.5 Q274.5 185.1 279.8 185.25 L298.35 186.7 Q308.2 187.8 317.7 189.9 L319.8 190.35 Q330.65 193.0 338.75 198.8 L338.8 198.85 Q345.95 203.95 340.4 210.45 L340.1 210.7" ffdec:has-small-stroke="true" ffdec:original-stroke-width="0.05" fill="none" stroke="#00bf00" stroke-linecap="round" stroke-linejoin="round" stroke-width="1.0"/>
    <path d="M211.5 199.45 Q211.1 198.9 211.05 198.4 210.7 197.15 211.1 196.7 L211.7 196.1 212.9 195.8 214.6 195.95 216.25 196.45 217.15 197.0 217.2 197.05 217.3 197.2 217.45 197.35 217.6 197.7 217.8 198.75 217.6 199.9 216.95 200.65 215.45 201.05 213.95 200.95 212.6 200.4 211.5 199.45 M286.2 231.75 L286.8 232.3 287.1 232.65 287.5 233.3 287.55 233.4 Q287.85 234.3 287.5 235.3 L287.35 235.65 286.9 235.7 286.1 235.8 285.45 235.8 284.85 235.75 283.35 235.4 M280.5 233.3 L280.6 233.45 280.6 233.5 M286.2 231.75 Q285.05 230.85 283.55 230.3 282.5 229.85 281.3 229.65 280.35 229.7 279.95 230.85 L279.85 231.25 Q279.8 232.05 280.5 233.3" ffdec:has-small-stroke="true" ffdec:original-stroke-width="0.05" fill="none" stroke="#000000" stroke-linecap="round" stroke-linejoin="round" stroke-width="1.0"/>
    <path d="M283.55 238.8 L280.95 238.65 280.0 238.65 279.8 238.7 Q279.95 240.05 282.75 240.5 L283.2 240.6 Q284.2 241.0 284.1 241.4 L283.7 241.85 Q281.0 242.4 278.4 241.85 L275.0 241.25 Q275.1 243.05 278.2 243.6 L279.15 243.75 Q281.25 244.75 280.25 246.05 279.4 247.05 277.6 247.35 L274.55 247.65 273.6 247.6 270.6 247.45 Q268.5 247.2 266.65 246.55 L265.9 246.25 265.6 245.5 Q265.65 245.2 266.1 245.0 L265.65 245.05 260.55 245.45 Q257.6 245.5 255.05 244.55 253.45 243.9 253.5 243.15 253.55 242.75 253.95 242.35 254.75 241.3 256.75 241.25 L260.9 241.6 263.4 241.45 266.6 240.85 270.1 239.9 272.7 238.8 Q273.25 238.35 274.75 237.55 276.2 236.7 276.35 235.3 276.4 234.45 277.35 234.0 M270.95 242.95 L272.25 243.9 272.15 244.25 268.25 244.6 266.95 244.75 266.95 244.7 267.25 244.2 266.0 243.6 265.85 243.3 Q266.8 242.7 268.25 242.65 L270.95 242.95 Z" ffdec:has-small-stroke="true" ffdec:original-stroke-width="0.05" fill="none" stroke="#006600" stroke-linecap="round" stroke-linejoin="round" stroke-width="1.0"/>
  </g>
</svg>
