<?xml version="1.0" encoding="UTF-8" standalone="no"?>
<svg xmlns:ffdec="https://www.free-decompiler.com/flash" xmlns:xlink="http://www.w3.org/1999/xlink" ffdec:objectType="shape" height="99.2px" width="63.75px" xmlns="http://www.w3.org/2000/svg">
  <g transform="matrix(1.0, 0.0, 0.0, 1.0, -243.1, -150.35)">
    <path d="M276.8 179.05 Q277.9 170.25 280.75 160.2 L280.8 159.8 Q285.25 151.45 289.2 150.7 L291.55 150.9 Q296.55 152.85 296.45 163.0 L296.3 166.2 Q300.35 164.25 303.05 166.55 307.1 170.0 305.25 177.8 304.7 180.5 303.5 182.7 304.55 183.25 305.3 184.4 307.8 187.95 305.4 192.5 303.55 196.35 299.35 197.0 295.25 196.45 294.75 193.65 L292.1 196.5 290.2 196.2 291.75 194.4 Q293.4 191.9 291.25 190.75 289.8 191.65 288.85 193.3 L290.95 188.25 288.85 193.3 288.15 195.4 288.15 195.85 288.0 195.8 288.15 195.4 288.0 195.8 282.65 194.9 276.45 193.9 276.45 195.3 276.3 194.7 Q275.75 187.5 276.8 179.05 275.75 187.5 276.3 194.7 L276.0 194.3 Q275.55 193.9 275.0 193.9 274.4 193.9 273.95 194.3 L273.65 194.8 270.35 195.45 264.35 196.65 264.15 196.7 264.2 196.3 263.35 194.2 Q262.25 192.5 260.65 191.65 258.2 192.8 260.05 195.25 L262.0 197.2 262.0 198.85 Q261.95 198.15 261.5 197.65 260.95 197.15 260.25 197.15 L259.6 197.3 256.75 194.55 Q256.1 197.35 251.5 197.9 246.75 197.25 244.7 193.4 241.95 188.8 244.8 185.25 245.65 184.15 246.9 183.6 245.45 181.4 244.85 178.65 242.7 170.9 247.3 167.45 250.35 165.1 254.95 167.05 255.1 168.7 255.5 170.35 255.1 168.7 254.95 167.05 L254.8 163.9 Q254.65 153.7 260.3 151.75 265.85 149.8 272.4 160.7 275.5 170.45 276.8 179.05 M283.25 188.15 Q282.8 191.6 282.65 194.9 282.8 191.6 283.25 188.15 284.25 184.35 285.95 180.4 L288.15 180.55 285.95 180.4 284.7 179.25 Q283.8 183.8 283.25 188.15 M290.75 168.45 Q291.35 161.05 288.0 166.9 285.25 172.1 284.7 179.25 285.25 172.1 288.0 166.9 291.35 161.05 290.75 168.45 M300.75 168.75 Q297.95 170.9 300.1 173.65 300.5 174.1 300.65 175.1 301.6 178.15 303.55 175.25 L303.95 173.6 Q303.75 169.05 300.75 168.75 M295.8 169.45 L296.3 166.2 295.8 169.45 Q294.75 173.95 292.1 177.95 289.85 180.05 288.15 180.55 287.85 181.55 288.65 181.95 290.6 182.95 292.05 180.1 294.55 175.15 297.7 171.25 297.95 170.9 297.85 170.35 297.25 168.9 295.95 169.3 L295.8 169.45 M299.3 179.7 Q301.1 174.25 297.1 177.45 293.8 180.35 292.1 185.7 293.8 180.35 297.1 177.45 301.1 174.25 299.3 179.7 M297.7 187.85 L298.85 187.6 Q301.8 185.65 303.5 182.7 301.8 185.65 298.85 187.6 L297.7 187.85 293.7 187.6 292.7 188.75 Q292.05 189.45 292.7 190.05 293.95 191.35 295.4 189.9 L297.7 187.85 M292.55 186.5 L293.7 187.6 292.55 186.5 292.1 185.7 290.95 188.25 292.55 186.5 M300.75 191.95 Q302.85 188.9 299.5 189.75 296.7 190.65 294.75 193.65 296.7 190.65 299.5 189.75 302.85 188.9 300.75 191.95 M304.5 190.35 L305.0 189.3 Q305.5 186.25 303.35 185.1 301.05 185.7 302.2 188.15 L302.4 189.3 Q302.7 191.6 304.5 190.35 M255.5 170.35 L255.35 170.2 Q253.85 169.75 253.2 171.2 253.05 171.75 253.4 172.15 256.9 176.0 259.8 181.0 261.4 183.8 263.65 182.8 264.5 182.4 264.2 181.4 L266.6 181.25 264.2 181.4 Q262.25 180.95 259.7 178.8 256.7 174.85 255.5 170.35 M253.4 188.75 L252.1 188.45 Q248.75 186.5 246.9 183.6 248.75 186.5 252.1 188.45 L253.4 188.75 256.0 190.75 Q257.6 192.2 259.05 190.9 259.8 190.3 259.05 189.6 L257.9 188.45 253.4 188.75 M259.2 187.35 L257.9 188.45 259.2 187.35 261.0 189.1 263.35 194.2 261.0 189.1 259.65 186.55 259.2 187.35 M251.6 180.55 Q249.55 175.1 254.05 178.3 257.75 181.25 259.65 186.55 257.75 181.25 254.05 178.3 249.55 175.1 251.6 180.55 M248.05 190.2 Q248.05 189.45 248.35 189.05 249.6 186.55 247.0 186.0 244.55 187.15 245.15 190.2 245.25 190.75 245.7 191.2 247.75 192.5 248.05 190.2 M249.9 169.6 Q246.5 169.9 246.35 174.45 246.35 175.3 246.75 176.15 248.9 179.0 250.0 176.0 250.2 174.95 250.7 174.55 253.05 171.8 249.9 169.6 M249.9 192.8 Q247.55 189.75 251.35 190.65 254.5 191.55 256.75 194.55 254.5 191.55 251.35 190.65 247.55 189.75 249.9 192.8 M287.1 158.1 Q286.1 156.7 284.85 157.95 284.2 159.0 283.65 160.2 280.5 166.5 279.5 174.7 279.15 176.65 280.25 176.65 282.45 176.8 283.25 172.7 284.65 166.05 286.8 160.2 L287.1 159.3 Q287.35 158.75 287.1 158.1 M290.15 160.85 Q290.7 161.1 291.1 162.2 292.8 165.35 294.15 161.0 L294.15 158.75 Q292.9 153.45 289.7 154.75 L289.2 155.7 Q288.05 158.2 289.2 159.9 L290.15 160.85 M257.4 159.6 Q257.15 160.65 257.4 161.85 258.9 166.2 260.8 163.1 261.25 162.0 261.9 161.7 265.0 159.6 262.4 155.6 258.75 154.35 257.4 159.6 M265.3 158.95 Q265.0 159.6 265.3 160.2 267.9 166.4 269.65 173.6 270.5 177.7 273.05 177.5 274.25 177.5 273.9 175.55 272.55 165.9 267.85 158.8 266.4 157.6 265.3 158.95 M261.25 169.3 Q260.55 161.9 264.35 167.8 267.4 172.95 267.95 180.1 267.4 172.95 264.35 167.8 260.55 161.9 261.25 169.3 M274.45 180.55 Q270.8 179.3 271.3 185.25 271.55 188.05 272.3 190.75 273.2 194.85 275.1 192.35 276.05 191.15 275.9 188.75 275.9 184.3 274.45 180.55 M266.6 181.25 Q268.5 185.2 269.65 189.05 269.0 184.65 267.95 180.1 L266.6 181.25 M263.55 189.3 Q264.3 191.4 265.5 193.25 267.1 196.05 268.25 193.45 268.9 192.2 268.35 190.4 267.45 187.0 265.35 184.6 261.9 184.9 263.55 189.3 M264.2 196.3 L264.35 196.65 264.2 196.3 M261.75 199.8 L262.0 198.95 262.0 200.15 261.75 199.8 M262.25 200.55 L265.35 199.6 270.5 197.95 274.3 196.75 274.3 196.6 274.35 196.65 275.0 196.75 Q275.55 196.75 276.0 196.35 L276.4 195.75 276.45 195.35 276.45 196.3 276.4 195.75 276.45 196.3 276.45 197.15 276.55 197.2 280.55 197.95 280.55 199.15 Q280.55 198.55 280.15 198.15 279.7 197.75 279.1 197.75 278.5 197.75 278.1 198.15 277.85 198.35 277.75 198.65 L276.75 198.85 276.55 197.2 276.75 198.85 270.7 200.1 266.1 201.0 266.05 201.0 266.05 201.95 265.9 201.95 265.55 201.5 Q265.05 201.0 264.35 201.0 263.6 201.0 263.1 201.5 L263.0 201.6 262.25 200.55 M270.5 197.95 L270.6 200.0 270.7 200.1 270.6 200.0 270.5 197.95 M269.65 189.05 L270.35 195.45 269.65 189.05 M279.05 179.7 Q277.75 183.45 277.75 187.85 277.6 190.3 278.5 191.5 280.1 194.0 280.9 189.9 281.55 187.2 281.8 184.4 282.25 178.4 279.05 179.7 M284.5 192.6 Q285.55 195.15 286.95 192.35 L288.7 188.45 Q290.1 184.05 287.05 183.75 285.2 186.1 284.45 189.55 283.9 191.3 284.5 192.6 M266.05 203.2 L266.05 204.5 268.55 203.7 268.55 204.05 269.2 203.5 272.7 202.4 272.95 203.8 273.25 202.25 275.75 201.45 276.75 201.15 276.55 202.05 277.5 202.8 277.45 202.5 277.15 201.05 278.45 200.65 278.45 200.45 278.45 200.5 279.1 200.65 Q279.7 200.6 280.15 200.2 280.55 199.8 280.55 199.2 L280.55 200.7 279.1 201.95 281.5 202.55 281.45 202.25 284.35 201.75 285.65 202.0 Q288.0 205.6 291.6 208.8 292.15 206.2 296.4 205.75 300.75 206.3 302.7 209.9 305.2 214.05 302.65 217.35 L300.7 218.9 Q301.95 220.9 302.55 223.45 304.5 230.6 300.3 233.8 297.45 235.9 293.25 234.15 L293.4 237.1 Q293.5 246.45 288.35 248.25 283.2 250.0 277.15 240.0 274.3 231.0 273.1 223.1 272.1 231.2 269.5 240.5 L269.4 240.8 Q265.3 248.5 261.65 249.25 L259.55 249.05 Q254.9 247.25 255.0 237.9 L255.1 234.95 Q251.4 236.7 248.9 234.6 245.15 231.4 246.9 224.25 247.35 221.7 248.5 219.7 247.5 219.15 246.85 218.15 244.5 214.85 246.75 210.7 248.45 207.1 252.3 206.55 256.1 207.0 256.6 209.6 260.0 206.25 262.15 202.4 L262.6 202.5 262.6 202.75 Q262.6 203.45 263.1 203.95 L263.75 204.4 264.35 204.5 Q265.05 204.45 265.55 203.95 L266.0 203.2 266.05 203.2 M285.5 209.15 Q286.45 210.65 288.0 211.5 290.25 210.4 288.55 208.15 L286.65 206.25 Q285.2 204.9 284.8 206.8 L284.7 207.2 285.5 209.15 287.65 213.8 285.5 209.15 M289.35 215.45 L287.65 213.8 288.95 216.15 289.35 215.45 Q289.8 214.8 290.55 214.4 289.8 214.8 289.35 215.45 M294.65 214.15 L292.25 212.3 Q290.8 210.95 289.45 212.15 288.8 212.7 289.45 213.35 L290.55 214.4 294.65 214.15 295.9 214.4 Q298.95 216.2 300.7 218.9 298.95 216.2 295.9 214.4 L294.65 214.15 M282.05 201.3 L281.8 201.35 281.8 201.25 282.05 201.3 M284.7 207.2 L283.3 202.95 281.5 202.55 283.3 202.95 284.7 207.2 M277.85 203.05 L277.5 202.8 277.85 203.05 278.1 203.25 278.1 202.8 277.85 203.05 M279.1 201.95 L278.15 201.75 278.1 202.8 278.15 201.75 279.1 201.95 M279.7 213.9 Q278.95 208.65 278.85 203.8 L278.1 203.25 278.85 203.8 Q278.95 208.65 279.7 213.9 280.25 217.9 281.25 222.1 281.8 221.35 282.5 221.05 280.75 217.4 279.7 213.9 M276.55 202.05 L275.75 201.45 276.55 202.05 M284.7 220.9 L282.5 221.05 284.7 220.9 Q286.5 221.35 288.85 223.3 291.65 226.95 292.75 231.15 L292.85 231.25 Q294.2 231.65 294.85 230.35 294.95 229.75 294.65 229.45 291.45 225.85 288.8 221.3 287.3 218.65 285.25 219.65 284.45 219.95 284.7 220.9 M293.25 234.15 L292.75 231.15 293.25 234.15 M283.5 210.0 Q282.05 207.4 281.0 209.8 280.35 210.95 280.9 212.6 281.7 215.75 283.65 217.95 286.8 217.65 285.3 213.6 284.6 211.7 283.5 210.0 M296.35 221.7 Q298.2 226.7 294.05 223.8 290.65 221.05 288.95 216.15 290.65 221.05 294.05 223.8 298.2 226.7 296.35 221.7 M278.15 217.35 Q277.95 214.75 277.25 212.3 276.4 208.5 274.7 210.8 273.75 211.9 273.95 214.15 273.9 218.2 275.3 221.7 278.65 222.85 278.15 217.35 M266.1 201.0 L265.75 200.9 265.35 199.6 265.75 200.9 266.1 201.0 M262.65 208.0 L263.75 204.4 262.65 208.0 262.65 207.6 Q262.3 205.7 261.0 207.05 260.05 207.85 259.35 208.95 257.75 211.2 259.8 212.3 261.1 211.45 262.0 209.95 L262.65 208.0 M260.05 214.6 L262.0 209.95 260.05 214.6 258.6 216.25 259.0 216.95 260.05 214.6 M252.4 222.5 Q250.7 227.5 254.4 224.6 257.4 221.85 259.0 216.95 257.4 221.85 254.4 224.6 250.7 227.5 252.4 222.5 M267.15 214.7 Q267.8 209.45 267.9 204.6 L268.55 204.05 267.9 204.6 Q267.8 209.45 267.15 214.7 266.2 218.2 264.65 221.85 L262.65 221.7 264.65 221.85 265.8 222.9 267.15 214.7 M260.25 232.85 Q259.7 239.65 262.8 234.25 265.3 229.45 265.8 222.9 265.3 229.45 262.8 234.25 259.7 239.65 260.25 232.85 M257.5 215.25 L258.6 216.25 257.5 215.25 258.45 214.15 Q259.05 213.5 258.45 212.95 257.25 211.75 256.0 213.1 L253.85 214.95 Q256.15 214.4 257.5 215.25 M248.5 219.7 Q250.05 217.0 252.8 215.25 L253.85 214.95 252.8 215.25 Q250.05 217.0 248.5 219.7 M255.6 231.95 Q256.5 227.75 259.0 224.1 261.05 222.15 262.65 221.7 262.9 220.75 262.2 220.45 260.35 219.45 259.05 222.1 256.7 226.65 253.85 230.25 253.6 230.55 253.7 231.15 254.25 232.45 255.45 232.05 L255.6 231.95 255.1 234.95 255.6 231.95 M263.65 218.75 Q265.35 216.55 266.05 213.4 266.55 211.75 266.0 210.6 265.05 208.2 263.75 210.8 262.75 212.5 262.15 214.4 260.8 218.45 263.65 218.75 M272.2 214.95 Q272.35 212.7 271.55 211.6 270.05 209.3 269.35 213.1 268.7 215.55 268.5 218.15 268.05 223.65 271.0 222.5 272.2 219.0 272.2 214.95 M272.95 203.8 Q274.45 212.35 273.1 223.1 274.45 212.35 272.95 203.8 M267.15 228.9 Q265.8 235.05 263.85 240.5 L263.6 241.3 Q263.4 241.8 263.6 242.4 264.5 243.65 265.65 242.55 L266.8 240.5 Q269.65 234.65 270.6 227.1 270.9 225.3 269.95 225.3 267.85 225.1 267.15 228.9 M260.8 239.9 Q260.3 239.6 259.95 238.6 258.35 235.7 257.1 239.75 256.9 240.8 257.1 241.8 258.2 246.65 261.2 245.5 L261.65 244.65 Q262.7 242.3 261.65 240.75 L260.8 239.9 M283.7 241.6 Q283.95 241.0 283.7 240.5 281.3 234.75 279.7 228.1 278.9 224.3 276.55 224.5 275.4 224.5 275.75 226.3 277.05 235.2 281.4 241.75 282.7 242.85 283.7 241.6 M291.0 241.0 L291.0 238.95 Q289.6 234.9 287.85 237.8 L286.85 239.1 Q283.95 241.0 286.4 244.7 289.7 245.85 291.0 241.0 M287.45 232.05 Q288.1 238.85 284.6 233.45 281.75 228.65 281.25 222.1 281.75 228.65 284.6 233.45 288.1 238.85 287.45 232.05 M248.65 217.5 Q250.75 216.95 249.7 214.7 L249.5 213.6 Q249.25 211.45 247.55 212.7 L247.1 213.6 Q246.6 216.4 248.65 217.5 M251.05 211.2 Q249.1 214.0 252.2 213.2 254.75 212.35 256.6 209.6 254.75 212.35 252.2 213.2 249.1 214.0 251.05 211.2 M248.45 226.6 Q248.1 227.3 248.1 228.1 248.2 232.3 251.05 232.6 253.55 230.55 251.65 228.05 251.25 227.65 251.1 226.7 250.2 223.9 248.45 226.6 M300.55 216.7 Q302.8 215.6 302.3 212.8 L301.75 211.9 Q299.85 210.65 299.6 212.8 L299.35 213.9 Q298.15 216.15 300.55 216.7 M297.9 210.4 Q300.05 213.2 296.55 212.4 293.6 211.55 291.6 208.8 293.6 211.55 296.55 212.4 300.05 213.2 297.9 210.4 M301.15 227.3 Q301.15 226.5 300.8 225.8 298.8 223.1 297.8 225.9 L297.15 227.25 Q295.0 229.75 297.9 231.8 301.0 231.5 301.15 227.3" fill="#8ed807" fill-rule="evenodd" stroke="none"/>
    <path d="M300.75 168.75 Q303.75 169.05 303.95 173.6 L303.55 175.25 Q301.6 178.15 300.65 175.1 300.5 174.1 300.1 173.65 297.95 170.9 300.75 168.75 M295.8 169.45 L295.95 169.3 Q297.25 168.9 297.85 170.35 297.95 170.9 297.7 171.25 294.55 175.15 292.05 180.1 290.6 182.95 288.65 181.95 287.85 181.55 288.15 180.55 289.85 180.05 292.1 177.95 294.75 173.95 295.8 169.45 M297.7 187.85 L295.4 189.9 Q293.95 191.35 292.7 190.05 292.05 189.45 292.7 188.75 L293.7 187.6 297.7 187.85 M288.85 193.3 Q289.8 191.65 291.25 190.75 293.4 191.9 291.75 194.4 L290.2 196.2 288.15 195.85 288.15 195.4 288.85 193.3 M304.5 190.35 Q302.7 191.6 302.4 189.3 L302.2 188.15 Q301.05 185.7 303.35 185.1 305.5 186.25 305.0 189.3 L304.5 190.35 M264.2 181.4 Q264.5 182.4 263.65 182.8 261.4 183.8 259.8 181.0 256.9 176.0 253.4 172.15 253.05 171.75 253.2 171.2 253.85 169.75 255.35 170.2 L255.5 170.35 Q256.7 174.85 259.7 178.8 262.25 180.95 264.2 181.4 M253.4 188.75 L257.9 188.45 259.05 189.6 Q259.8 190.3 259.05 190.9 257.6 192.2 256.0 190.75 L253.4 188.75 M249.9 169.6 Q253.05 171.8 250.7 174.55 250.2 174.95 250.0 176.0 248.9 179.0 246.75 176.15 246.35 175.3 246.35 174.45 246.5 169.9 249.9 169.6 M248.05 190.2 Q247.75 192.5 245.7 191.2 245.25 190.75 245.15 190.2 244.55 187.15 247.0 186.0 249.6 186.55 248.35 189.05 248.05 189.45 248.05 190.2 M290.15 160.85 L289.2 159.9 Q288.05 158.2 289.2 155.7 L289.7 154.75 Q292.9 153.45 294.15 158.75 L294.15 161.0 Q292.8 165.35 291.1 162.2 290.7 161.1 290.15 160.85 M287.1 158.1 Q287.35 158.75 287.1 159.3 L286.8 160.2 Q284.65 166.05 283.25 172.7 282.45 176.8 280.25 176.65 279.15 176.65 279.5 174.7 280.5 166.5 283.65 160.2 284.2 159.0 284.85 157.95 286.1 156.7 287.1 158.1 M265.3 158.95 Q266.4 157.6 267.85 158.8 272.55 165.9 273.9 175.55 274.25 177.5 273.05 177.5 270.5 177.7 269.65 173.6 267.9 166.4 265.3 160.2 265.0 159.6 265.3 158.95 M257.4 159.6 Q258.75 154.35 262.4 155.6 265.0 159.6 261.9 161.7 261.25 162.0 260.8 163.1 258.9 166.2 257.4 161.85 257.15 160.65 257.4 159.6 M274.45 180.55 Q275.9 184.3 275.9 188.75 276.05 191.15 275.1 192.35 273.2 194.85 272.3 190.75 271.55 188.05 271.3 185.25 270.8 179.3 274.45 180.55 M263.55 189.3 Q261.9 184.9 265.35 184.6 267.45 187.0 268.35 190.4 268.9 192.2 268.25 193.45 267.1 196.05 265.5 193.25 264.3 191.4 263.55 189.3 M262.0 197.2 L260.05 195.25 Q258.2 192.8 260.65 191.65 262.25 192.5 263.35 194.2 L264.2 196.3 264.15 196.7 262.0 197.15 262.0 197.2 M284.5 192.6 Q283.9 191.3 284.45 189.55 285.2 186.1 287.05 183.75 290.1 184.05 288.7 188.45 L286.95 192.35 Q285.55 195.15 284.5 192.6 M279.05 179.7 Q282.25 178.4 281.8 184.4 281.55 187.2 280.9 189.9 280.1 194.0 278.5 191.5 277.6 190.3 277.75 187.85 277.75 183.45 279.05 179.7 M284.7 207.2 L284.8 206.8 Q285.2 204.9 286.65 206.25 L288.55 208.15 Q290.25 210.4 288.0 211.5 286.45 210.65 285.5 209.15 L284.7 207.2 M290.55 214.4 L289.45 213.35 Q288.8 212.7 289.45 212.15 290.8 210.95 292.25 212.3 L294.65 214.15 290.55 214.4 M284.7 220.9 Q284.45 219.95 285.25 219.65 287.3 218.65 288.8 221.3 291.45 225.85 294.65 229.45 294.95 229.75 294.85 230.35 294.2 231.65 292.85 231.25 L292.75 231.15 Q291.65 226.95 288.85 223.3 286.5 221.35 284.7 220.9 M283.5 210.0 Q284.6 211.7 285.3 213.6 286.8 217.65 283.65 217.95 281.7 215.75 280.9 212.6 280.35 210.95 281.0 209.8 282.05 207.4 283.5 210.0 M278.15 217.35 Q278.65 222.85 275.3 221.7 273.9 218.2 273.95 214.15 273.75 211.9 274.7 210.8 276.4 208.5 277.25 212.3 277.95 214.75 278.15 217.35 M262.65 208.0 L262.0 209.95 Q261.1 211.45 259.8 212.3 257.75 211.2 259.35 208.95 260.05 207.85 261.0 207.05 262.3 205.7 262.65 207.6 L262.65 208.0 M257.5 215.25 Q256.15 214.4 253.85 214.95 L256.0 213.1 Q257.25 211.75 258.45 212.95 259.05 213.5 258.45 214.15 L257.5 215.25 M262.65 221.7 Q261.05 222.15 259.0 224.1 256.5 227.75 255.6 231.95 L255.45 232.05 Q254.25 232.45 253.7 231.15 253.6 230.55 253.85 230.25 256.7 226.65 259.05 222.1 260.35 219.45 262.2 220.45 262.9 220.75 262.65 221.7 M272.2 214.95 Q272.2 219.0 271.0 222.5 268.05 223.65 268.5 218.15 268.7 215.55 269.35 213.1 270.05 209.3 271.55 211.6 272.35 212.7 272.2 214.95 M263.65 218.75 Q260.8 218.45 262.15 214.4 262.75 212.5 263.75 210.8 265.05 208.2 266.0 210.6 266.55 211.75 266.05 213.4 265.35 216.55 263.65 218.75 M260.8 239.9 L261.65 240.75 Q262.7 242.3 261.65 244.65 L261.2 245.5 Q258.2 246.65 257.1 241.8 256.9 240.8 257.1 239.75 258.35 235.7 259.95 238.6 260.3 239.6 260.8 239.9 M267.15 228.9 Q267.85 225.1 269.95 225.3 270.9 225.3 270.6 227.1 269.65 234.65 266.8 240.5 L265.65 242.55 Q264.5 243.65 263.6 242.4 263.4 241.8 263.6 241.3 L263.85 240.5 Q265.8 235.05 267.15 228.9 M283.7 241.6 Q282.7 242.85 281.4 241.75 277.05 235.2 275.75 226.3 275.4 224.5 276.55 224.5 278.9 224.3 279.7 228.1 281.3 234.75 283.7 240.5 283.95 241.0 283.7 241.6 M295.4 241.2 Q295.85 239.4 297.1 239.85 298.0 241.2 296.95 241.95 L296.55 242.4 Q295.9 243.5 295.4 242.0 L295.4 241.2 M248.65 217.5 Q246.6 216.4 247.1 213.6 L247.55 212.7 Q249.25 211.45 249.5 213.6 L249.7 214.7 Q250.75 216.95 248.65 217.5 M248.45 226.6 Q250.2 223.9 251.1 226.7 251.25 227.65 251.65 228.05 253.55 230.55 251.05 232.6 248.2 232.3 248.1 228.1 248.1 227.3 248.45 226.6 M300.55 216.7 Q298.15 216.15 299.35 213.9 L299.6 212.8 Q299.85 210.65 301.75 211.9 L302.3 212.8 Q302.8 215.6 300.55 216.7 M301.15 227.3 Q301.0 231.5 297.9 231.8 295.0 229.75 297.15 227.25 L297.8 225.9 Q298.8 223.1 300.8 225.8 301.15 226.5 301.15 227.3" fill="#aaf818" fill-rule="evenodd" stroke="none"/>
    <path d="M276.3 194.7 L276.45 195.3 276.45 193.9 282.65 194.9 288.0 195.8 288.15 195.85 290.2 196.2 292.1 196.5 292.6 196.6 292.5 197.75 292.1 197.1 291.8 196.9 290.8 196.6 Q290.0 196.55 289.5 197.1 288.95 197.65 288.95 198.4 L289.1 199.15 289.5 199.7 280.55 197.95 289.5 199.7 289.1 199.15 288.95 198.4 Q288.95 197.65 289.5 197.1 290.0 196.55 290.8 196.6 L291.8 196.9 292.1 197.1 292.5 197.75 292.6 198.4 292.3 199.4 292.3 199.7 296.75 200.45 296.65 201.6 296.75 202.25 296.45 203.3 296.4 204.1 295.65 203.95 294.95 204.1 Q294.2 204.1 293.65 203.6 L285.65 202.0 284.35 201.75 282.05 201.3 281.8 201.25 280.55 201.0 280.55 200.7 280.55 199.2 Q280.55 199.8 280.15 200.2 279.7 200.6 279.1 200.65 L278.45 200.5 278.45 200.45 278.45 200.65 277.15 201.05 276.75 201.15 275.75 201.45 273.25 202.25 272.7 202.4 269.2 203.5 268.55 203.7 266.05 204.5 266.05 203.2 266.05 202.8 266.05 202.7 266.05 202.8 266.0 203.2 265.55 203.95 Q265.05 204.45 264.35 204.5 L263.75 204.4 263.1 203.95 Q262.6 203.45 262.6 202.75 L262.6 202.5 Q262.65 202.0 263.0 201.6 L263.1 201.5 Q263.6 201.0 264.35 201.0 265.05 201.0 265.55 201.5 L265.9 201.95 266.05 202.7 266.05 201.95 266.05 201.0 266.1 201.0 270.7 200.1 276.75 198.85 277.75 198.65 Q277.85 198.35 278.1 198.15 278.5 197.75 279.1 197.75 279.7 197.75 280.15 198.15 280.55 198.55 280.55 199.15 L280.55 197.95 276.55 197.2 276.45 197.15 276.45 196.3 276.45 195.35 276.4 195.75 276.0 196.35 Q275.55 196.75 275.0 196.75 L274.35 196.65 274.3 196.6 274.3 196.75 270.5 197.95 265.35 199.6 262.25 200.55 262.0 200.6 262.0 200.15 262.0 198.95 261.75 199.8 261.5 200.1 Q260.95 200.6 260.25 200.6 259.55 200.6 259.05 200.1 258.5 199.6 258.55 198.9 258.5 198.15 259.05 197.65 L259.6 197.3 260.25 197.15 Q260.95 197.15 261.5 197.65 261.95 198.15 262.0 198.85 L262.0 197.2 262.0 197.15 264.15 196.7 264.35 196.65 270.35 195.45 273.65 194.8 273.95 194.3 Q274.4 193.9 275.0 193.9 275.55 193.9 276.0 194.3 L276.3 194.7 M262.0 198.85 L262.0 198.95 262.0 198.85 M273.65 194.8 L273.55 195.35 Q273.55 195.9 273.95 196.35 L274.3 196.6 273.95 196.35 Q273.55 195.9 273.55 195.35 L273.65 194.8 M276.45 195.3 L276.45 195.35 276.45 195.3 M280.55 199.15 L280.55 199.2 280.55 199.15 M277.75 198.65 L277.65 199.2 Q277.65 199.75 278.1 200.2 L278.45 200.45 278.1 200.2 Q277.65 199.75 277.65 199.2 L277.75 198.65 M289.5 199.7 Q290.05 200.25 290.8 200.25 L291.5 200.1 292.25 200.25 292.3 199.7 292.25 200.25 291.5 200.1 290.8 200.25 Q290.05 200.25 289.5 199.7 M291.5 200.1 L292.1 199.7 292.15 199.65 292.3 199.4 292.15 199.65 292.1 199.7 291.5 200.1 M296.65 201.6 L296.25 201.0 Q295.7 200.45 294.95 200.45 294.15 200.45 293.65 201.0 293.1 201.5 293.1 202.25 293.1 203.0 293.65 203.55 L293.65 203.6 293.65 203.55 Q293.1 203.0 293.1 202.25 293.1 201.5 293.65 201.0 294.15 200.45 294.95 200.45 295.7 200.45 296.25 201.0 L296.65 201.6 M295.65 203.95 L296.25 203.55 296.45 203.3 296.25 203.55 295.65 203.95" fill="#ecc93e" fill-rule="evenodd" stroke="none"/>
    <path d="M296.3 166.2 L296.45 163.0 Q296.55 152.85 291.55 150.9 L289.2 150.7 Q285.25 151.45 280.8 159.8 L280.75 160.2 Q277.9 170.25 276.8 179.05 275.75 187.5 276.3 194.7 M282.65 194.9 Q282.8 191.6 283.25 188.15 283.8 183.8 284.7 179.25 L285.95 180.4 Q284.25 184.35 283.25 188.15 M303.5 182.7 Q304.7 180.5 305.25 177.8 307.1 170.0 303.05 166.55 300.35 164.25 296.3 166.2 L295.8 169.45 Q294.75 173.95 292.1 177.95 289.85 180.05 288.15 180.55 L285.95 180.4 M294.75 193.65 Q295.25 196.45 299.35 197.0 303.55 196.35 305.4 192.5 307.8 187.95 305.3 184.4 304.55 183.25 303.5 182.7 301.8 185.65 298.85 187.6 L297.7 187.85 293.7 187.6 292.55 186.5 290.95 188.25 288.85 193.3 288.15 195.4 288.0 195.8 M292.1 196.5 L294.75 193.65 M255.5 170.35 Q255.1 168.7 254.95 167.05 250.35 165.1 247.3 167.45 242.7 170.9 244.85 178.65 245.45 181.4 246.9 183.6 248.75 186.5 252.1 188.45 L253.4 188.75 257.9 188.45 259.2 187.35 259.65 186.55 261.0 189.1 259.2 187.35 M254.95 167.05 L254.8 163.9 Q254.65 153.7 260.3 151.75 265.85 149.8 272.4 160.7 275.5 170.45 276.8 179.05 M259.6 197.3 L256.75 194.55 Q256.1 197.35 251.5 197.9 246.75 197.25 244.7 193.4 241.95 188.8 244.8 185.25 245.65 184.15 246.9 183.6 M266.6 181.25 Q268.5 185.2 269.65 189.05 269.0 184.65 267.95 180.1 L266.6 181.25 264.2 181.4 Q262.25 180.95 259.7 178.8 256.7 174.85 255.5 170.35 M263.35 194.2 L261.0 189.1 M264.2 196.3 L263.35 194.2 M264.35 196.65 L264.2 196.3 M261.75 199.8 L262.0 200.15 M270.7 200.1 L270.6 200.0 270.5 197.95 M270.35 195.45 L269.65 189.05 M292.1 185.7 L292.55 186.5 M276.4 195.75 L276.45 196.3 M276.55 197.2 L276.75 198.85 M285.65 202.0 Q288.0 205.6 291.6 208.8 292.15 206.2 296.4 205.75 300.75 206.3 302.7 209.9 305.2 214.05 302.65 217.35 L300.7 218.9 Q301.95 220.9 302.55 223.45 304.5 230.6 300.3 233.8 297.45 235.9 293.25 234.15 L293.4 237.1 Q293.5 246.45 288.35 248.25 283.2 250.0 277.15 240.0 274.3 231.0 273.1 223.1 272.1 231.2 269.5 240.5 L269.4 240.8 Q265.3 248.5 261.65 249.25 L259.55 249.05 Q254.9 247.25 255.0 237.9 L255.1 234.95 Q251.4 236.7 248.9 234.6 245.15 231.4 246.9 224.25 247.35 221.7 248.5 219.7 247.5 219.15 246.85 218.15 244.5 214.85 246.75 210.7 248.45 207.1 252.3 206.55 256.1 207.0 256.6 209.6 260.0 206.25 262.15 202.4 L262.6 202.5 M263.0 201.6 L262.25 200.55 M290.95 188.25 L292.1 185.7 M284.7 207.2 L285.5 209.15 287.65 213.8 289.35 215.45 Q289.8 214.8 290.55 214.4 L294.65 214.15 295.9 214.4 Q298.95 216.2 300.7 218.9 M282.05 201.3 L281.8 201.35 281.8 201.25 M280.55 200.7 L279.1 201.95 281.5 202.55 281.45 202.25 284.35 201.75 M281.5 202.55 L283.3 202.95 284.7 207.2 M277.15 201.05 L277.45 202.5 277.5 202.8 277.85 203.05 278.1 202.8 278.15 201.75 279.1 201.95 M276.75 201.15 L276.55 202.05 277.5 202.8 M275.75 201.45 L276.55 202.05 M278.1 203.25 L278.85 203.8 Q278.95 208.65 279.7 213.9 280.75 217.4 282.5 221.05 L284.7 220.9 Q286.5 221.35 288.85 223.3 291.65 226.95 292.75 231.15 L293.25 234.15 M277.85 203.05 L278.1 203.25 278.1 202.8 M279.7 213.9 Q280.25 217.9 281.25 222.1 281.8 221.35 282.5 221.05 M287.65 213.8 L288.95 216.15 289.35 215.45 M272.95 203.8 L272.7 202.4 M272.95 203.8 L273.25 202.25 M265.35 199.6 L265.75 200.9 266.1 201.0 M266.05 201.95 L265.9 201.95 M263.75 204.4 L262.65 208.0 262.0 209.95 260.05 214.6 259.0 216.95 258.6 216.25 257.5 215.25 Q256.15 214.4 253.85 214.95 L252.8 215.25 Q250.05 217.0 248.5 219.7 M268.55 203.7 L268.55 204.05 269.2 203.5 M266.0 203.2 L266.05 203.2 M268.55 204.05 L267.9 204.6 Q267.8 209.45 267.15 214.7 L265.8 222.9 264.65 221.85 262.65 221.7 Q261.05 222.15 259.0 224.1 256.5 227.75 255.6 231.95 L255.1 234.95 M258.6 216.25 L260.05 214.6 M273.1 223.1 Q274.45 212.35 272.95 203.8 M264.65 221.85 Q266.2 218.2 267.15 214.7" ffdec:has-small-stroke="true" ffdec:original-stroke-width="0.5" fill="none" stroke="#336600" stroke-linecap="round" stroke-linejoin="round" stroke-width="1.0"/>
    <path d="M284.7 179.25 Q285.25 172.1 288.0 166.9 291.35 161.05 290.75 168.45 M292.1 185.7 Q293.8 180.35 297.1 177.45 301.1 174.25 299.3 179.7 M294.75 193.65 Q296.7 190.65 299.5 189.75 302.85 188.9 300.75 191.95 M259.65 186.55 Q257.75 181.25 254.05 178.3 249.55 175.1 251.6 180.55 M256.75 194.55 Q254.5 191.55 251.35 190.65 247.55 189.75 249.9 192.8 M267.95 180.1 Q267.4 172.95 264.35 167.8 260.55 161.9 261.25 169.3 M288.95 216.15 Q290.65 221.05 294.05 223.8 298.2 226.7 296.35 221.7 M259.0 216.95 Q257.4 221.85 254.4 224.6 250.7 227.5 252.4 222.5 M265.8 222.9 Q265.3 229.45 262.8 234.25 259.7 239.65 260.25 232.85 M281.25 222.1 Q281.75 228.65 284.6 233.45 288.1 238.85 287.45 232.05 M256.6 209.6 Q254.75 212.35 252.2 213.2 249.1 214.0 251.05 211.2 M291.6 208.8 Q293.6 211.55 296.55 212.4 300.05 213.2 297.9 210.4" ffdec:has-small-stroke="true" ffdec:original-stroke-width="0.5" fill="none" stroke="#6aa005" stroke-linecap="round" stroke-linejoin="round" stroke-width="1.0"/>
    <path d="M276.3 194.7 L276.45 195.3 276.45 193.9 282.65 194.9 288.0 195.8 288.15 195.85 290.2 196.2 292.1 196.5 292.6 196.6 292.5 197.75 292.6 198.4 292.3 199.4 292.3 199.7 296.75 200.45 296.65 201.6 296.75 202.25 296.45 203.3 296.4 204.1 295.65 203.95 294.95 204.1 Q294.2 204.1 293.65 203.6 L285.65 202.0 284.35 201.75 282.05 201.3 281.8 201.25 280.55 201.0 280.55 200.7 280.55 199.2 Q280.55 199.8 280.15 200.2 279.7 200.6 279.1 200.65 L278.45 200.5 278.45 200.45 278.1 200.2 Q277.65 199.75 277.65 199.2 L277.75 198.65 Q277.85 198.35 278.1 198.15 278.5 197.75 279.1 197.75 279.7 197.75 280.15 198.15 280.55 198.55 280.55 199.15 L280.55 197.95 289.5 199.7 289.1 199.15 288.95 198.4 Q288.95 197.65 289.5 197.1 290.0 196.55 290.8 196.6 L291.8 196.9 292.1 197.1 292.5 197.75 M261.75 199.8 L261.5 200.1 Q260.95 200.6 260.25 200.6 259.55 200.6 259.05 200.1 258.5 199.6 258.55 198.9 258.5 198.15 259.05 197.65 L259.6 197.3 260.25 197.15 Q260.95 197.15 261.5 197.65 261.95 198.15 262.0 198.85 L262.0 197.2 262.0 197.15 264.15 196.7 264.35 196.65 270.35 195.45 273.65 194.8 273.95 194.3 Q274.4 193.9 275.0 193.9 275.55 193.9 276.0 194.3 L276.3 194.7 M262.0 198.95 L262.0 198.85 M262.0 200.15 L262.0 198.95 261.75 199.8 M262.0 200.15 L262.0 200.6 262.25 200.55 265.35 199.6 270.5 197.95 274.3 196.75 274.3 196.6 273.95 196.35 Q273.55 195.9 273.55 195.35 L273.65 194.8 M276.4 195.75 L276.0 196.35 Q275.55 196.75 275.0 196.75 L274.35 196.65 274.3 196.6 M276.45 196.3 L276.45 195.35 276.4 195.75 M276.45 196.3 L276.45 197.15 276.55 197.2 280.55 197.95 M276.45 195.35 L276.45 195.3 M276.75 198.85 L277.75 198.65 M276.75 198.85 L270.7 200.1 266.1 201.0 266.05 201.0 266.05 201.95 266.05 202.7 266.05 202.8 266.05 203.2 266.05 204.5 268.55 203.7 269.2 203.5 272.7 202.4 273.25 202.25 275.75 201.45 276.75 201.15 277.15 201.05 278.45 200.65 278.45 200.45 M280.55 199.2 L280.55 199.15 M292.3 199.7 L292.25 200.25 291.5 200.1 290.8 200.25 Q290.05 200.25 289.5 199.7 M292.3 199.4 L292.15 199.65 292.1 199.7 291.5 200.1 M262.6 202.5 Q262.65 202.0 263.0 201.6 L263.1 201.5 Q263.6 201.0 264.35 201.0 265.05 201.0 265.55 201.5 L265.9 201.95 266.05 202.7 M293.65 203.6 L293.65 203.55 Q293.1 203.0 293.1 202.25 293.1 201.5 293.65 201.0 294.15 200.45 294.95 200.45 295.7 200.45 296.25 201.0 L296.65 201.6 M266.0 203.2 L265.55 203.95 Q265.05 204.45 264.35 204.5 L263.75 204.4 263.1 203.95 Q262.6 203.45 262.6 202.75 L262.6 202.5 M266.05 202.8 L266.0 203.2 M296.45 203.3 L296.25 203.55 295.65 203.95" fill="none" stroke="#ffff33" stroke-linecap="round" stroke-linejoin="round" stroke-width="2.0"/>
  </g>
</svg>
