<?xml version="1.0" encoding="UTF-8" standalone="no"?>
<svg xmlns:ffdec="https://www.free-decompiler.com/flash" xmlns:xlink="http://www.w3.org/1999/xlink" ffdec:objectType="shape" height="24.35px" width="16.95px" xmlns="http://www.w3.org/2000/svg">
  <g transform="matrix(1.0, 0.0, 0.0, 1.0, -277.9, -180.9)">
    <path d="M278.05 181.1 L278.05 181.0 286.65 182.15 285.25 182.7 282.3 182.8 282.0 182.8 282.0 182.85 286.15 191.35 286.9 192.95 284.95 191.4 284.45 190.95 Q281.5 187.1 279.95 181.95 L278.05 181.1 M282.0 182.85 L279.95 181.95 282.0 182.85 M289.55 194.65 L289.35 194.05 Q290.95 195.2 293.25 198.1 291.1 195.55 289.55 194.65" fill="#5a6415" fill-rule="evenodd" stroke="none"/>
    <path d="M278.05 181.0 L278.05 181.1 278.05 181.0" fill="#339b20" fill-rule="evenodd" stroke="none"/>
    <path d="M278.05 181.1 L279.95 181.95 Q281.5 187.1 284.45 190.95 279.65 186.7 278.05 181.1 M286.15 191.35 Q284.4 187.45 283.6 183.4 L286.6 183.45 Q286.85 191.6 290.7 199.15 289.15 197.05 287.95 194.9 L286.9 192.95 286.15 191.35" fill="#859e1d" fill-rule="evenodd" stroke="none"/>
    <path d="M287.1 182.2 L286.95 182.0 287.35 181.85 286.95 182.0 286.85 181.85 287.35 181.85 287.55 181.9 287.65 181.95 287.85 183.15 287.1 182.2" fill="#9d8e3c" fill-rule="evenodd" stroke="none"/>
    <path d="M285.25 182.7 L286.65 182.15 287.1 182.2 287.85 183.15 288.1 184.3 288.15 184.55 288.1 184.55 286.6 183.45 283.6 183.4 285.25 182.7 M288.1 184.3 L288.1 184.55 288.1 184.3" fill="#9cb926" fill-rule="evenodd" stroke="none"/>
    <path d="M287.65 181.95 L287.55 181.9 287.45 181.85 287.8 181.05 Q288.6 182.05 287.95 182.0 L287.65 181.95 287.45 181.85 287.65 181.95" fill="#bfaf57" fill-rule="evenodd" stroke="none"/>
    <path d="M287.85 183.15 L287.65 181.95 287.95 182.0 Q288.6 182.05 287.8 181.05 L289.55 181.85 Q292.0 182.65 290.65 185.25 288.75 184.25 287.95 183.25 L287.85 183.15" fill="#968738" fill-rule="evenodd" stroke="none"/>
    <path d="M286.6 183.45 L288.1 184.55 Q289.45 188.65 289.35 194.05 L289.55 194.65 291.55 200.4 291.3 200.0 290.7 199.15 Q286.85 191.6 286.6 183.45" fill="#7a871d" fill-rule="evenodd" stroke="none"/>
    <path d="M278.05 181.1 L279.95 181.95 282.0 182.85 282.0 182.8 282.3 182.8 285.25 182.7 286.65 182.15 278.05 181.0 278.0 181.0 278.05 181.1 Q279.65 186.7 284.45 190.95 L284.95 191.4 286.9 192.95 286.15 191.35 Q284.4 187.45 283.6 183.4 L285.25 182.7 M282.3 182.8 L282.0 182.85 286.15 191.35 M286.95 182.0 L287.1 182.2 286.65 182.15 286.95 182.0 286.85 181.85 M287.85 183.15 L287.65 181.95 287.55 181.9 287.35 181.85 286.95 182.0 M287.45 181.85 L287.65 181.95 M290.7 199.15 L291.3 200.0 291.55 200.4 289.55 194.65 289.35 194.05 Q289.45 188.65 288.1 184.55 L288.1 184.3 287.85 183.15 287.95 183.25 Q288.75 184.25 290.65 185.25 M288.1 184.3 L288.15 184.55 288.1 184.55 M290.7 199.15 Q289.15 197.05 287.95 194.9 L286.9 192.95 M291.55 200.4 L293.35 205.15 M293.25 198.1 L294.75 200.0 M293.25 198.1 Q291.1 195.55 289.55 194.65 M289.35 194.05 Q290.95 195.2 293.25 198.1" ffdec:has-small-stroke="true" ffdec:original-stroke-width="0.25" fill="none" stroke="#554d1e" stroke-linecap="round" stroke-linejoin="round" stroke-opacity="0.72156864" stroke-width="1.0"/>
  </g>
</svg>
