<?xml version="1.0" encoding="UTF-8" standalone="no"?>
<svg xmlns:ffdec="https://www.free-decompiler.com/flash" xmlns:xlink="http://www.w3.org/1999/xlink" ffdec:objectType="shape" height="36.0px" width="91.15px" xmlns="http://www.w3.org/2000/svg">
  <g transform="matrix(1.0, 0.0, 0.0, 1.0, 47.05, 18.0)">
    <path d="M21.75 -13.3 Q27.7 -12.25 34.85 -9.05 42.0 -5.9 42.0 0.3 42.0 6.5 30.65 10.75 19.25 15.0 0.0 15.0 -19.25 15.0 -32.9 10.6 -41.0 8.0 -44.25 4.75 32.55 5.7 21.75 -13.3" fill="#cc9900" fill-rule="evenodd" stroke="none"/>
    <path d="M-44.25 4.75 Q-42.55 1.4 -42.55 -2.95 -42.55 -7.3 -30.9 -11.15 -19.25 -15.0 0.0 -15.0 11.95 -15.0 21.75 -13.3 32.55 5.7 -44.25 4.75" fill="#fdc502" fill-rule="evenodd" stroke="none"/>
    <path d="M23.7 -15.6 L24.45 -15.7 Q25.7 -15.7 26.55 -14.85 27.45 -13.95 27.45 -12.7 27.45 -11.45 26.55 -10.6 25.7 -9.7 24.45 -9.7 23.35 -9.7 22.55 -10.4 23.3 -10.6 23.85 -11.2 24.75 -12.05 24.75 -13.3 24.75 -14.55 23.85 -15.45 L23.7 -15.6 M13.35 -16.3 Q14.25 -17.15 15.5 -17.15 16.75 -17.15 17.6 -16.3 18.5 -15.4 18.5 -14.15 18.5 -12.9 17.6 -12.05 16.75 -11.15 15.5 -11.15 14.25 -11.15 13.35 -12.05 12.5 -12.9 12.5 -14.15 12.5 -15.4 13.35 -16.3 M2.1 -17.15 Q3.0 -16.25 3.0 -15.0 3.0 -13.75 2.1 -12.9 1.25 -12.0 0.0 -12.0 -1.25 -12.0 -2.15 -12.9 -3.0 -13.75 -3.0 -15.0 -3.0 -16.25 -2.15 -17.15 -1.25 -18.0 0.0 -18.0 1.25 -18.0 2.1 -17.15 M3.4 -14.85 Q3.4 -16.1 4.25 -17.0 5.15 -17.85 6.4 -17.85 7.65 -17.85 8.5 -17.0 9.4 -16.1 9.4 -14.85 9.4 -13.6 8.5 -12.75 7.65 -11.85 6.4 -11.85 5.15 -11.85 4.25 -12.75 3.4 -13.6 3.4 -14.85 M35.8 -9.95 Q35.8 -8.7 34.9 -7.85 34.05 -6.95 32.8 -6.95 31.55 -6.95 30.65 -7.85 29.8 -8.7 29.8 -9.95 29.8 -11.2 30.65 -12.1 31.55 -12.95 32.8 -12.95 34.05 -12.95 34.9 -12.1 35.8 -11.2 35.8 -9.95 M38.1 -7.25 Q39.0 -8.1 40.25 -8.1 41.5 -8.1 42.35 -7.25 43.25 -6.35 43.25 -5.1 43.25 -3.85 42.35 -3.0 41.5 -2.1 40.25 -2.1 39.0 -2.1 38.1 -3.0 37.25 -3.85 37.25 -5.1 37.25 -6.35 38.1 -7.25 M44.1 3.6 Q44.1 4.85 43.2 5.7 42.35 6.6 41.1 6.6 39.85 6.6 38.95 5.7 38.1 4.85 38.1 3.6 38.1 2.35 38.95 1.45 39.85 0.6 41.1 0.6 42.35 0.6 43.2 1.45 44.1 2.35 44.1 3.6 M31.45 9.1 Q31.45 7.85 32.3 6.95 33.2 6.1 34.45 6.1 35.7 6.1 36.55 6.95 37.45 7.85 37.45 9.1 37.45 10.35 36.55 11.2 35.7 12.1 34.45 12.1 33.2 12.1 32.3 11.2 31.45 10.35 31.45 9.1 M27.85 10.15 Q28.75 11.05 28.75 12.3 28.75 13.55 27.85 14.4 27.0 15.3 25.75 15.3 24.5 15.3 23.6 14.4 22.75 13.55 22.75 12.3 22.75 11.05 23.6 10.15 24.5 9.3 25.75 9.3 27.0 9.3 27.85 10.15 M16.8 11.0 Q18.05 11.0 18.9 11.85 19.8 12.75 19.8 14.0 19.8 15.25 18.9 16.1 18.05 17.0 16.8 17.0 15.55 17.0 14.65 16.1 13.8 15.25 13.8 14.0 13.8 12.75 14.65 11.85 15.55 11.0 16.8 11.0 M5.7 12.65 Q6.6 11.8 7.85 11.8 9.1 11.8 9.95 12.65 10.85 13.55 10.85 14.8 10.85 16.05 9.95 16.9 9.1 17.8 7.85 17.8 6.6 17.8 5.7 16.9 4.85 16.05 4.85 14.8 4.85 13.55 5.7 12.65 M1.9 15.0 Q1.9 16.25 1.0 17.1 0.15 18.0 -1.1 18.0 -2.35 18.0 -3.25 17.1 -4.1 16.25 -4.1 15.0 -4.1 13.75 -3.25 12.85 -2.35 12.0 -1.1 12.0 0.15 12.0 1.0 12.85 1.9 13.75 1.9 15.0 M-44.35 -6.6 Q-43.45 -7.45 -42.2 -7.45 -40.95 -7.45 -40.1 -6.6 -39.2 -5.7 -39.2 -4.45 -39.2 -3.2 -40.1 -2.35 -40.95 -1.45 -42.2 -1.45 -43.45 -1.45 -44.35 -2.35 -45.2 -3.2 -45.2 -4.45 -45.2 -5.7 -44.35 -6.6 M-24.55 -14.5 Q-23.65 -13.6 -23.65 -12.35 -23.65 -11.1 -24.55 -10.25 -25.4 -9.35 -26.65 -9.35 -27.9 -9.35 -28.8 -10.25 -29.65 -11.1 -29.65 -12.35 -29.65 -13.6 -28.8 -14.5 -27.9 -15.35 -26.65 -15.35 -25.4 -15.35 -24.55 -14.5 M-37.45 -11.65 Q-36.55 -12.5 -35.3 -12.5 -34.05 -12.5 -33.2 -11.65 -32.3 -10.75 -32.3 -9.5 -32.3 -8.25 -33.2 -7.4 -34.05 -6.5 -35.3 -6.5 -36.55 -6.5 -37.45 -7.4 -38.3 -8.25 -38.3 -9.5 -38.3 -10.75 -37.45 -11.65 M-5.85 -14.75 Q-5.85 -13.5 -6.75 -12.65 -7.6 -11.75 -8.85 -11.75 -10.1 -11.75 -11.0 -12.65 -11.85 -13.5 -11.85 -14.75 -11.85 -16.0 -11.0 -16.9 -10.1 -17.75 -8.85 -17.75 -7.6 -17.75 -6.75 -16.9 -5.85 -16.0 -5.85 -14.75 M-14.7 -13.95 Q-14.7 -12.7 -15.6 -11.85 -16.45 -10.95 -17.7 -10.95 -18.95 -10.95 -19.85 -11.85 -20.7 -12.7 -20.7 -13.95 -20.7 -15.2 -19.85 -16.1 -18.95 -16.95 -17.7 -16.95 -16.45 -16.95 -15.6 -16.1 -14.7 -15.2 -14.7 -13.95 M-17.1 11.55 Q-16.2 12.45 -16.2 13.7 -16.2 14.95 -17.1 15.8 -17.95 16.7 -19.2 16.7 -20.45 16.7 -21.35 15.8 -22.2 14.95 -22.2 13.7 -22.2 12.45 -21.35 11.55 -20.45 10.7 -19.2 10.7 -17.95 10.7 -17.1 11.55 M-12.3 12.5 Q-11.4 11.65 -10.15 11.65 -8.9 11.65 -8.05 12.5 -7.15 13.4 -7.15 14.65 -7.15 15.9 -8.05 16.75 -8.9 17.65 -10.15 17.65 -11.4 17.65 -12.3 16.75 -13.15 15.9 -13.15 14.65 -13.15 13.4 -12.3 12.5 M-25.95 9.8 Q-25.05 10.7 -25.05 11.95 -25.05 13.2 -25.95 14.05 -26.8 14.95 -28.05 14.95 -29.3 14.95 -30.2 14.05 -31.05 13.2 -31.05 11.95 -31.05 10.7 -30.2 9.8 -29.3 8.95 -28.05 8.95 -26.8 8.95 -25.95 9.8 M-37.9 6.3 L-36.95 6.15 Q-35.7 6.15 -34.85 7.0 -33.95 7.9 -33.95 9.15 -33.95 10.4 -34.85 11.25 -35.7 12.15 -36.95 12.15 -38.2 12.15 -39.1 11.25 -39.95 10.4 -39.95 9.15 -39.95 8.35 -39.55 7.7 -38.9 7.45 -38.4 6.9 L-37.9 6.3 M-42.65 6.9 L-44.05 7.25 Q-45.3 7.25 -46.2 6.35 -47.05 5.5 -47.05 4.25 -47.05 3.0 -46.2 2.1 -45.3 1.25 -44.05 1.25 -42.8 1.25 -41.95 2.1 L-41.9 2.15 -42.65 2.65 Q-43.5 3.55 -43.5 4.8 -43.5 6.05 -42.65 6.9" fill="#000000" fill-opacity="0.21176471" fill-rule="evenodd" stroke="none"/>
    <path d="M22.55 -10.4 L21.75 -10.3 Q20.5 -10.3 19.6 -11.2 18.75 -12.05 18.75 -13.3 18.75 -14.55 19.6 -15.45 20.5 -16.3 21.75 -16.3 22.9 -16.3 23.7 -15.6 L23.85 -15.45 Q24.75 -14.55 24.75 -13.3 24.75 -12.05 23.85 -11.2 23.3 -10.6 22.55 -10.4 M4.65 -0.95 Q5.9 -0.95 6.75 -0.1 7.65 0.8 7.65 2.05 7.65 3.3 6.75 4.15 5.9 5.05 4.65 5.05 3.4 5.05 2.5 4.15 1.65 3.3 1.65 2.05 1.65 0.8 2.5 -0.1 3.4 -0.95 4.65 -0.95 M11.55 -2.4 Q12.45 -3.25 13.7 -3.25 14.95 -3.25 15.8 -2.4 16.7 -1.5 16.7 -0.25 16.7 1.0 15.8 1.85 14.95 2.75 13.7 2.75 12.45 2.75 11.55 1.85 10.7 1.0 10.7 -0.25 10.7 -1.5 11.55 -2.4 M19.6 -7.3 Q20.5 -8.15 21.75 -8.15 23.0 -8.15 23.85 -7.3 24.75 -6.4 24.75 -5.15 24.75 -3.9 23.85 -3.05 23.0 -2.15 21.75 -2.15 20.5 -2.15 19.6 -3.05 18.75 -3.9 18.75 -5.15 18.75 -6.4 19.6 -7.3 M-6.55 1.2 Q-5.65 0.35 -4.4 0.35 -3.15 0.35 -2.3 1.2 -1.4 2.1 -1.4 3.35 -1.4 4.6 -2.3 5.45 -3.15 6.35 -4.4 6.35 -5.65 6.35 -6.55 5.45 -7.4 4.6 -7.4 3.35 -7.4 2.1 -6.55 1.2 M-11.4 1.95 Q-10.5 2.85 -10.5 4.1 -10.5 5.35 -11.4 6.2 -12.25 7.1 -13.5 7.1 -14.75 7.1 -15.65 6.2 -16.5 5.35 -16.5 4.1 -16.5 2.85 -15.65 1.95 -14.75 1.1 -13.5 1.1 -12.25 1.1 -11.4 1.95 M-20.45 2.4 Q-19.55 3.3 -19.55 4.55 -19.55 5.8 -20.45 6.65 -21.3 7.55 -22.55 7.55 -23.8 7.55 -24.7 6.65 -25.55 5.8 -25.55 4.55 -25.55 3.3 -24.7 2.4 -23.8 1.55 -22.55 1.55 -21.3 1.55 -20.45 2.4 M-28.6 4.75 Q-28.6 6.0 -29.5 6.85 -30.35 7.75 -31.6 7.75 -32.85 7.75 -33.75 6.85 -34.6 6.0 -34.6 4.75 -34.6 3.5 -33.75 2.6 -32.85 1.75 -31.6 1.75 -30.35 1.75 -29.5 2.6 -28.6 3.5 -28.6 4.75 M-41.9 2.15 Q-41.3 1.8 -40.5 1.8 -39.25 1.8 -38.4 2.65 -37.5 3.55 -37.5 4.8 -37.5 5.65 -37.9 6.3 L-38.4 6.9 Q-38.9 7.45 -39.55 7.7 L-40.5 7.8 Q-41.75 7.8 -42.65 6.9 -43.5 6.05 -43.5 4.8 -43.5 3.55 -42.65 2.65 L-41.9 2.15" fill="#cc9900" fill-opacity="0.21176471" fill-rule="evenodd" stroke="none"/>
  </g>
</svg>
