<?xml version="1.0" encoding="UTF-8" standalone="no"?>
<svg xmlns:ffdec="https://www.free-decompiler.com/flash" xmlns:xlink="http://www.w3.org/1999/xlink" ffdec:objectType="shape" height="75.15px" width="91.55px" xmlns="http://www.w3.org/2000/svg">
  <g transform="matrix(1.0, 0.0, 0.0, 1.0, -34.2, 0.1)">
    <path d="M64.25 21.8 Q64.25 23.15 62.4 24.1 60.55 25.05 57.95 25.05 55.4 25.05 53.55 24.1 51.7 23.15 51.7 21.8 51.7 20.45 53.55 19.45 55.4 18.5 57.95 18.5 60.55 18.5 62.4 19.45 64.25 20.45 64.25 21.8" fill="#000000" fill-opacity="0.49019608" fill-rule="evenodd" stroke="none"/>
    <path d="M47.75 12.0 L48.8 13.3 Q51.5 16.15 55.35 16.15 58.25 16.15 60.5 14.55 L61.9 13.3 Q64.65 10.4 64.65 6.35 64.65 3.75 63.55 1.65 L65.35 3.2 Q68.35 6.4 68.35 10.9 68.35 15.45 65.35 18.65 62.3 21.85 58.05 21.85 53.75 21.85 50.75 18.65 48.1 15.85 47.75 12.0" fill="#cc9966" fill-rule="evenodd" stroke="none"/>
    <path d="M63.55 1.65 Q64.65 3.75 64.65 6.35 64.65 10.4 61.9 13.3 L60.5 14.55 Q58.25 16.15 55.35 16.15 51.5 16.15 48.8 13.3 L47.75 12.0 47.7 10.9 Q47.7 6.4 50.75 3.2 53.75 0.0 58.05 0.0 61.1 0.0 63.55 1.65 M52.65 7.3 Q52.65 8.35 53.35 9.1 54.05 9.85 55.05 9.85 56.05 9.85 56.75 9.1 57.45 8.35 57.45 7.3 57.45 6.25 56.75 5.5 56.05 4.75 55.05 4.75 54.05 4.75 53.35 5.5 52.65 6.25 52.65 7.3" fill="#ffcc33" fill-rule="evenodd" stroke="none"/>
    <path d="M52.65 7.3 Q52.65 6.25 53.35 5.5 54.05 4.75 55.05 4.75 56.05 4.75 56.75 5.5 57.45 6.25 57.45 7.3 57.45 8.35 56.75 9.1 56.05 9.85 55.05 9.85 54.05 9.85 53.35 9.1 52.65 8.35 52.65 7.3" fill="#ffff99" fill-rule="evenodd" stroke="none"/>
    <path d="M47.75 12.0 Q48.1 15.85 50.75 18.65 53.75 21.85 58.05 21.85 62.3 21.85 65.35 18.65 68.35 15.45 68.35 10.9 68.35 6.4 65.35 3.2 L63.55 1.65 Q61.1 0.0 58.05 0.0 53.75 0.0 50.75 3.2 47.7 6.4 47.7 10.9 L47.75 12.0 Z" ffdec:has-small-stroke="true" ffdec:original-stroke-width="0.2" fill="none" stroke="#282828" stroke-linecap="round" stroke-linejoin="round" stroke-opacity="0.4" stroke-width="1.0"/>
    <path d="M123.75 40.15 L123.75 40.25 120.5 40.65 Q116.6 41.0 112.05 40.45 101.05 39.3 87.75 33.55 83.15 29.95 77.9 27.05 87.15 27.65 98.6 32.45 L99.85 33.0 100.35 33.2 101.0 33.5 101.6 33.8 108.4 36.3 Q119.95 40.4 123.75 40.15 M89.7 58.45 Q80.25 52.8 70.3 46.1 L65.95 41.8 Q66.55 34.65 61.6 24.55 65.75 27.3 69.2 31.35 L69.55 31.65 Q76.35 41.45 85.9 50.45 L89.7 58.45 M54.5 31.8 L52.15 30.25 Q50.85 29.65 47.35 26.5 L34.65 19.0 Q38.2 19.45 43.8 21.35 48.75 23.05 51.7 24.55 56.15 29.75 54.5 31.8" fill="#a6b60e" fill-rule="evenodd" stroke="none"/>
    <path d="M112.15 70.3 L103.85 66.35 Q96.95 62.75 89.7 58.45 L85.9 50.45 Q76.35 41.45 69.55 31.65 L69.7 31.5 Q81.05 36.1 88.9 43.1 97.25 54.4 106.1 62.05 L106.05 62.1 Q96.8 56.9 93.4 56.9 L85.9 50.45 93.4 56.9 Q101.9 63.85 112.15 70.3 M65.95 41.8 L61.05 37.2 54.5 31.8 Q56.15 29.75 51.7 24.55 51.7 23.7 49.2 21.25 47.85 19.95 46.75 19.25 L46.05 18.7 48.85 18.7 55.5 19.05 Q58.75 19.5 62.25 20.5 L63.9 21.0 64.3 21.15 Q69.4 22.75 75.05 25.65 64.9 21.55 55.05 21.25 58.4 22.5 61.3 24.4 L61.6 24.55 Q66.55 34.65 65.95 41.8 M55.05 21.25 Q51.15 19.7 46.75 19.25 51.15 19.7 55.05 21.25" fill="#82840d" fill-rule="evenodd" stroke="none"/>
    <path d="M98.6 32.45 Q87.15 27.65 77.9 27.05 83.15 29.95 87.75 33.55 90.8 36.05 93.5 38.9 L102.7 48.85 Q108.1 53.6 116.95 58.25 109.7 57.05 101.55 51.7 93.35 46.35 89.8 43.55 L88.9 43.1 Q81.05 36.1 69.7 31.5 L69.2 31.35 Q65.75 27.3 61.6 24.55 L61.3 24.4 Q58.4 22.5 55.05 21.25 64.9 21.55 75.05 25.65 69.4 22.75 64.3 21.15 L63.9 21.0 62.25 20.5 Q67.85 18.15 77.4 21.35 85.35 24.0 92.15 28.9 94.5 30.55 98.6 32.45 M106.15 62.15 Q114.95 69.65 125.65 74.95 122.45 74.35 115.95 71.8 L112.15 70.3 Q101.9 63.85 93.4 56.9 96.8 56.9 106.05 62.1 L106.15 62.15 M47.35 26.5 Q50.55 30.2 50.7 33.4 50.85 36.4 48.9 40.0 L40.7 27.9 Q35.9 20.8 34.3 19.7 34.65 19.5 34.65 19.0 L47.35 26.5 M77.9 27.05 L77.0 26.55 75.05 25.65 77.0 26.55 77.9 27.05" fill="#8c980d" fill-rule="evenodd" stroke="none"/>
    <path d="M123.75 40.15 Q119.95 40.4 108.4 36.3 L101.6 33.8 101.0 33.5 100.35 33.2 99.85 33.0 98.6 32.45 Q94.5 30.55 92.15 28.9 85.35 24.0 77.4 21.35 67.85 18.15 62.25 20.5 L63.9 21.0 64.3 21.15 Q69.4 22.75 75.05 25.65 M87.75 33.55 Q101.05 39.3 112.05 40.45 116.6 41.0 120.5 40.65 L123.75 40.25 124.55 40.1 123.75 40.15 M106.1 62.05 L106.15 62.15 Q114.95 69.65 125.65 74.95 122.45 74.35 115.95 71.8 L112.15 70.3 103.85 66.35 Q96.95 62.75 89.7 58.45 80.25 52.8 70.3 46.1 L65.95 41.8 61.05 37.2 54.5 31.8 52.15 30.25 Q50.85 29.65 47.35 26.5 50.55 30.2 50.7 33.4 50.85 36.4 48.9 40.0 L40.7 27.9 Q35.9 20.8 34.3 19.7 34.65 19.5 34.65 19.0 38.2 19.45 43.8 21.35 48.75 23.05 51.7 24.55 51.7 23.7 49.2 21.25 47.85 19.95 46.75 19.25 L46.05 18.7 48.85 18.7 55.5 19.05 Q58.75 19.5 62.25 20.5 M106.1 62.05 Q97.25 54.4 88.9 43.1 L89.8 43.55 Q93.35 46.35 101.55 51.7 109.7 57.05 116.95 58.25 108.1 53.6 102.7 48.85 L93.5 38.9 Q90.8 36.05 87.75 33.55 M106.05 62.1 L106.15 62.15 M69.2 31.35 L69.55 31.65 M69.7 31.5 L69.2 31.35" ffdec:has-small-stroke="true" ffdec:original-stroke-width="0.2" fill="none" stroke="#000000" stroke-linecap="round" stroke-linejoin="round" stroke-opacity="0.30980393" stroke-width="1.0"/>
    <path d="M98.6 32.45 Q87.15 27.65 77.9 27.05 83.15 29.95 87.75 33.55 M93.4 56.9 Q96.8 56.9 106.05 62.1 M88.9 43.1 Q81.05 36.1 69.7 31.5 M69.55 31.65 Q76.35 41.45 85.9 50.45 L93.4 56.9 Q101.9 63.85 112.15 70.3 M69.2 31.35 Q65.75 27.3 61.6 24.55 66.55 34.65 65.95 41.8 M75.05 25.65 L77.0 26.55 77.9 27.05 M85.9 50.45 L89.7 58.45 M75.05 25.65 Q64.9 21.55 55.05 21.25 58.4 22.5 61.3 24.4 L61.6 24.55 M46.75 19.25 Q51.15 19.7 55.05 21.25 M51.7 24.55 Q56.15 29.75 54.5 31.8 M47.35 26.5 L34.65 19.0" ffdec:has-small-stroke="true" ffdec:original-stroke-width="0.2" fill="none" stroke="#3f4006" stroke-linecap="round" stroke-linejoin="round" stroke-opacity="0.4" stroke-width="1.0"/>
  </g>
</svg>
