<?xml version="1.0" encoding="UTF-8" standalone="no"?>
<svg xmlns:ffdec="https://www.free-decompiler.com/flash" xmlns:xlink="http://www.w3.org/1999/xlink" ffdec:objectType="shape" height="125.3px" width="118.3px" xmlns="http://www.w3.org/2000/svg">
  <g transform="matrix(1.0, 0.0, 0.0, 1.0, -65.9, 0.1)">
    <path d="M79.75 25.3 Q92.55 26.5 107.25 37.3 L118.4 49.55 Q138.5 72.15 163.7 103.95 138.55 77.0 110.75 69.1 104.3 64.9 96.55 60.5 93.9 56.85 92.25 52.9 86.5 38.85 79.75 25.3 M171.5 65.5 Q166.55 78.1 166.55 102.65 156.1 71.4 141.0 42.5 140.95 31.7 137.5 21.5 158.05 40.75 171.5 65.5" fill="#a6b60e" fill-rule="evenodd" stroke="none"/>
    <path d="M107.25 37.3 Q92.55 26.5 79.75 25.3 73.3 12.4 66.0 0.0 81.9 10.1 107.25 37.3" fill="#c2c20e" fill-rule="evenodd" stroke="none"/>
    <path d="M96.55 60.5 Q104.3 64.9 110.75 69.1 124.25 77.9 132.05 85.9 120.35 80.55 106.0 77.0 95.4 71.95 73.5 55.0 L96.55 60.5 M163.7 103.95 Q138.5 72.15 118.4 49.55 115.55 37.65 103.45 18.4 122.85 29.3 141.0 42.5 156.1 71.4 166.55 102.65 166.55 78.1 171.5 65.5 L177.0 46.5 178.0 47.0 180.1 56.55 Q185.55 82.25 183.55 108.5 182.85 117.3 177.5 121.6 L169.3 111.1 169.25 111.0 163.7 103.95 M169.25 111.0 L166.55 102.65 169.25 111.0" fill="#82840d" fill-rule="evenodd" stroke="none"/>
    <path d="M118.4 49.55 L107.25 37.3 Q81.9 10.1 66.0 0.0 85.3 8.2 103.45 18.4 115.55 37.65 118.4 49.55" fill="#8c980d" fill-rule="evenodd" stroke="none"/>
    <path d="M107.25 37.3 Q92.55 26.5 79.75 25.3 86.5 38.85 92.25 52.9 93.9 56.85 96.55 60.5 104.3 64.9 110.75 69.1 M163.7 103.95 Q138.5 72.15 118.4 49.55 L107.25 37.3 Q81.9 10.1 66.0 0.0 73.3 12.4 79.75 25.3 M96.55 60.5 L73.5 55.0 Q95.4 71.95 106.0 77.0 M177.5 121.6 Q182.85 117.3 183.55 108.5 185.55 82.25 180.1 56.55 L178.0 47.0 177.0 46.5 171.5 65.5 Q166.55 78.1 166.55 102.65 L169.25 111.0 169.3 111.1 M171.5 65.5 Q158.05 40.75 137.5 21.5 140.95 31.7 141.0 42.5 156.1 71.4 166.55 102.65 M103.45 18.4 Q85.3 8.2 66.0 0.0 M103.45 18.4 Q115.55 37.65 118.4 49.55 M141.0 42.5 Q122.85 29.3 103.45 18.4" ffdec:has-small-stroke="true" ffdec:original-stroke-width="0.2" fill="none" stroke="#000000" stroke-linecap="round" stroke-linejoin="round" stroke-opacity="0.2509804" stroke-width="1.0"/>
    <path d="M134.9 51.35 L139.45 52.65 Q149.65 56.45 157.8 64.3 169.95 76.05 174.15 90.85 176.35 98.95 175.8 103.65 159.1 76.05 134.9 51.35" fill="url(#gradient0)" fill-rule="evenodd" stroke="none"/>
    <path d="M149.2 95.8 Q131.85 77.8 128.0 70.95 L123.45 62.7 Q122.8 61.4 122.3 58.5 L123.05 56.35 Q124.8 52.55 128.45 51.5 143.55 74.25 149.2 95.8" fill="url(#gradient1)" fill-rule="evenodd" stroke="none"/>
    <path d="M175.8 103.65 Q175.6 105.3 175.05 106.55 174.1 109.05 171.75 111.05 L171.4 111.7 171.25 111.8 170.75 111.95 Q170.2 112.05 166.3 110.0 162.45 107.9 149.2 95.8 143.55 74.25 128.45 51.5 131.2 50.7 134.9 51.35 159.1 76.05 175.8 103.65" fill="url(#gradient2)" fill-rule="evenodd" stroke="none"/>
    <path d="M134.9 51.35 L139.45 52.65 Q149.65 56.45 157.8 64.3 169.95 76.05 174.15 90.85 176.35 98.95 175.8 103.65 175.6 105.3 175.05 106.55 174.1 109.05 171.75 111.05 L171.4 111.7 171.25 111.8 170.75 111.95 Q170.2 112.05 166.3 110.0 162.45 107.9 149.2 95.8 131.85 77.8 128.0 70.95 L123.45 62.7 Q122.8 61.4 122.3 58.5 L123.05 56.35 Q124.8 52.55 128.45 51.5 131.2 50.7 134.9 51.35 Z" ffdec:has-small-stroke="true" ffdec:original-stroke-width="0.2" fill="none" stroke="#3f4006" stroke-linecap="round" stroke-linejoin="round" stroke-opacity="0.4" stroke-width="1.0"/>
    <path d="M126.6 60.7 Q132.05 53.4 145.5 58.75 M150.0 61.15 Q156.75 65.7 162.3 73.0" fill="none" stroke="#ffffff" stroke-linecap="round" stroke-linejoin="round" stroke-opacity="0.4" stroke-width="3.0"/>
    <path d="M127.25 69.4 Q122.4 60.85 122.7 60.9 154.5 93.05 170.25 89.3 176.2 104.45 166.25 109.95 156.6 102.9 144.35 90.45 132.0 77.95 127.25 69.4" fill="#000000" fill-opacity="0.2509804" fill-rule="evenodd" stroke="none"/>
    <path d="M132.05 85.9 Q124.25 77.9 110.75 69.1 138.55 77.0 163.7 103.95 L169.25 111.0 169.25 111.05 160.7 105.6 Q149.2 93.8 132.05 85.9" fill="#a6b60e" fill-rule="evenodd" stroke="none"/>
    <path d="M132.05 85.9 Q124.25 77.9 110.75 69.1 138.55 77.0 163.7 103.95 L169.25 111.0" ffdec:has-small-stroke="true" ffdec:original-stroke-width="0.2" fill="none" stroke="#000000" stroke-linecap="round" stroke-linejoin="round" stroke-opacity="0.2509804" stroke-width="1.0"/>
    <path d="M116.5 94.0 Q137.1 96.05 160.7 105.6 L169.25 111.05 169.3 111.1 177.5 121.6 176.35 122.45 Q171.65 125.55 165.6 125.05 155.25 123.65 145.1 120.45 111.2 109.65 81.5 90.0 L85.25 90.7 Q100.3 93.25 116.5 94.0" fill="#a6b60e" fill-rule="evenodd" stroke="none"/>
    <path d="M116.5 94.0 Q106.7 91.15 100.0 88.6 93.25 86.05 84.5 79.5 L106.0 77.0 Q120.35 80.55 132.05 85.9 149.2 93.8 160.7 105.6 137.1 96.05 116.5 94.0" fill="#8c980d" fill-rule="evenodd" stroke="none"/>
    <path d="M160.7 105.6 Q149.2 93.8 132.05 85.9 120.35 80.55 106.0 77.0 L84.5 79.5 Q93.25 86.05 100.0 88.6 106.7 91.15 116.5 94.0 137.1 96.05 160.7 105.6 L169.25 111.05 169.3 111.1 177.5 121.6 176.35 122.45 Q171.65 125.55 165.6 125.05 155.25 123.65 145.1 120.45 111.2 109.65 81.5 90.0 L85.25 90.7 Q100.3 93.25 116.5 94.0" ffdec:has-small-stroke="true" ffdec:original-stroke-width="0.2" fill="none" stroke="#000000" stroke-linecap="round" stroke-linejoin="round" stroke-opacity="0.2509804" stroke-width="1.0"/>
  </g>
  <defs>
    <linearGradient gradientTransform="matrix(-0.0145, -0.0237, 0.01, -0.0012, 152.1, 65.25)" gradientUnits="userSpaceOnUse" id="gradient0" spreadMethod="pad" x1="-819.2" x2="819.2">
      <stop offset="0.06666666666666667" stop-color="#ff0b0b" stop-opacity="0.7019608"/>
      <stop offset="0.5137254901960784" stop-color="#f56b58" stop-opacity="0.7019608"/>
      <stop offset="1.0" stop-color="#fbe7d9" stop-opacity="0.6509804"/>
    </linearGradient>
    <linearGradient gradientTransform="matrix(-0.0067, -0.0155, 0.0084, 0.002, 132.15, 67.15)" gradientUnits="userSpaceOnUse" id="gradient1" spreadMethod="pad" x1="-819.2" x2="819.2">
      <stop offset="0.06666666666666667" stop-color="#e6ba73" stop-opacity="0.7019608"/>
      <stop offset="0.5058823529411764" stop-color="#f8ddb1" stop-opacity="0.7019608"/>
      <stop offset="1.0" stop-color="#fef4e0" stop-opacity="0.6509804"/>
    </linearGradient>
    <linearGradient gradientTransform="matrix(-0.0133, -0.024, 0.0136, 1.0E-4, 147.45, 72.65)" gradientUnits="userSpaceOnUse" id="gradient2" spreadMethod="pad" x1="-819.2" x2="819.2">
      <stop offset="0.06666666666666667" stop-color="#65d8f3" stop-opacity="0.7019608"/>
      <stop offset="0.5137254901960784" stop-color="#87d6f2" stop-opacity="0.7019608"/>
      <stop offset="1.0" stop-color="#d5ebf5" stop-opacity="0.6509804"/>
    </linearGradient>
  </defs>
</svg>
