<?xml version="1.0" encoding="UTF-8" standalone="no"?>
<svg xmlns:ffdec="https://www.free-decompiler.com/flash" xmlns:xlink="http://www.w3.org/1999/xlink" ffdec:objectType="frame" height="22.15px" width="21.95px" xmlns="http://www.w3.org/2000/svg">
  <g transform="matrix(1.0, 0.0, 0.0, 1.0, 10.65, 9.95)">
    <use ffdec:characterId="148" height="55.55" transform="matrix(0.4, 0.0, 0.0, 0.4, 0.0, 0.0)" width="53.35" xlink:href="#sprite0"/>
    <use ffdec:characterId="115" height="16.35" transform="matrix(-0.8642, 0.0, 0.0, -0.8615, 10.0, 5.95)" width="24.65" xlink:href="#shape2"/>
  </g>
  <defs>
    <g id="sprite0">
      <use ffdec:characterId="100" height="49.7" transform="matrix(1.0, 0.0, 0.0, 1.0, 1.0, 2.5)" width="49.7" xlink:href="#sprite1"/>
      <use ffdec:characterId="147" height="50.0" transform="matrix(1.0, 0.0, 0.0, 1.0, 0.0, 0.0)" width="50.0" xlink:href="#shape1"/>
    </g>
    <g id="sprite1">
      <use ffdec:characterId="99" height="49.7" transform="matrix(1.0, 0.0, 0.0, 1.0, 0.0, 0.0)" width="49.7" xlink:href="#shape0"/>
    </g>
    <g id="shape0">
      <path d="M20.05 -14.4 Q27.35 -7.1 27.35 3.2 27.35 13.5 20.05 20.75 12.8 28.05 2.5 28.05 -7.8 28.05 -15.1 20.75 -22.35 13.5 -22.35 3.2 -22.35 -7.1 -15.1 -14.4 -7.8 -21.65 2.5 -21.65 12.8 -21.65 20.05 -14.4" fill="#443c42" fill-opacity="0.7019608" fill-rule="evenodd" stroke="none"/>
    </g>
    <g id="shape1">
      <path d="M0.0 0.0 L0.0 0.05 -0.05 0.0 0.0 0.0" fill="url(#gradient0)" fill-rule="evenodd" stroke="none"/>
      <path d="M-0.05 0.0 L0.0 -0.05 0.0 0.0 -0.05 0.0" fill="#ff3300" fill-rule="evenodd" stroke="none"/>
      <path d="M0.0 -18.7 Q7.75 -18.7 13.2 -13.25 L13.25 -13.2 Q18.7 -7.75 18.7 0.0 18.7 7.75 13.25 13.25 L13.2 13.25 Q7.75 18.7 0.0 18.7 -7.8 18.7 -13.25 13.25 -18.7 7.75 -18.7 0.0 -18.7 -7.75 -13.25 -13.2 -7.8 -18.7 0.0 -18.7 M-0.05 0.0 L0.0 0.05 0.0 0.0 0.0 -0.05 -0.05 0.0" fill="url(#gradient1)" fill-rule="evenodd" stroke="none"/>
      <path d="M17.65 -17.7 L13.2 -13.25 Q7.75 -18.7 0.0 -18.7 L0.0 -25.0 Q10.35 -25.0 17.65 -17.7 M18.7 0.0 L25.0 0.0 Q25.0 10.35 17.7 17.7 L17.65 17.7 13.2 13.25 13.25 13.25 Q18.7 7.75 18.7 0.0 M0.0 25.0 Q-10.4 25.0 -17.7 17.7 L-13.25 13.25 Q-7.8 18.7 0.0 18.7 L0.0 25.0 M-25.0 0.0 Q-25.0 -10.35 -17.7 -17.65 L-13.25 -13.2 Q-18.7 -7.75 -18.7 0.0 L-25.0 0.0" fill="#3879d8" fill-rule="evenodd" stroke="none"/>
      <path d="M13.2 -13.25 L17.65 -17.7 17.7 -17.65 Q25.0 -10.35 25.0 0.0 L18.7 0.0 Q18.7 -7.75 13.25 -13.2 L13.2 -13.25 M0.0 -25.0 L0.0 -18.7 Q-7.8 -18.7 -13.25 -13.2 L-17.7 -17.65 Q-10.4 -25.0 0.0 -25.0 M0.0 18.7 Q7.75 18.7 13.2 13.25 L17.65 17.7 Q10.35 25.0 0.0 25.0 L0.0 18.7 M-17.7 17.7 Q-25.0 10.35 -25.0 0.0 L-18.7 0.0 Q-18.7 7.75 -13.25 13.25 L-17.7 17.7" fill="#2664bf" fill-rule="evenodd" stroke="none"/>
      <path d="M13.2 -13.25 L17.65 -17.7 Q10.35 -25.0 0.0 -25.0 L0.0 -18.7 Q7.75 -18.7 13.2 -13.25 L13.25 -13.2 Q18.7 -7.75 18.7 0.0 L25.0 0.0 Q25.0 -10.35 17.7 -17.65 L17.65 -17.7 M0.0 18.7 Q7.75 18.7 13.2 13.25 L13.25 13.25 Q18.7 7.75 18.7 0.0 M13.2 13.25 L17.65 17.7 17.7 17.7 Q25.0 10.35 25.0 0.0 M17.65 17.7 Q10.35 25.0 0.0 25.0 -10.4 25.0 -17.7 17.7 -25.0 10.35 -25.0 0.0 -25.0 -10.35 -17.7 -17.65 -10.4 -25.0 0.0 -25.0 M0.0 25.0 L0.0 18.7 Q-7.8 18.7 -13.25 13.25 L-17.7 17.7 M-13.25 -13.2 L-17.7 -17.65 M0.0 -18.7 Q-7.8 -18.7 -13.25 -13.2 -18.7 -7.75 -18.7 0.0 -18.7 7.75 -13.25 13.25 M-25.0 0.0 L-18.7 0.0" ffdec:has-small-stroke="true" ffdec:original-stroke-width="0.05" fill="none" stroke="#fcdc94" stroke-linecap="round" stroke-linejoin="round" stroke-opacity="0.972549" stroke-width="2.5000381475547417"/>
      <path d="M0.0 0.0 L0.0 0.05 -0.05 0.0 0.0 -0.05 0.0 0.0" ffdec:has-small-stroke="true" ffdec:original-stroke-width="0.05" fill="none" stroke="#541101" stroke-linecap="round" stroke-linejoin="round" stroke-width="2.5000381475547417"/>
      <path d="M0.0 0.0 L-0.05 0.0" ffdec:has-small-stroke="true" ffdec:original-stroke-width="0.05" fill="none" stroke="#ff9900" stroke-linecap="round" stroke-linejoin="round" stroke-opacity="0.0" stroke-width="2.5000381475547417"/>
    </g>
    <radialGradient cx="0" cy="0" gradientTransform="matrix(1.0E-4, 0.0, 0.0, 1.0E-4, 0.0, 0.0)" gradientUnits="userSpaceOnUse" id="gradient0" r="819.2" spreadMethod="pad">
      <stop offset="0.0" stop-color="#ff0000"/>
      <stop offset="1.0" stop-color="#000000"/>
    </radialGradient>
    <radialGradient cx="0" cy="0" gradientTransform="matrix(0.0248, 0.0, 0.0, 0.0248, -0.7, 0.0)" gradientUnits="userSpaceOnUse" id="gradient1" r="819.2" spreadMethod="pad">
      <stop offset="0.41568627450980394" stop-color="#66ccff"/>
      <stop offset="1.0" stop-color="#6666cc"/>
    </radialGradient>
    <g id="shape2">
      <path d="M22.7 12.6 L23.15 14.15 16.95 14.2 16.95 14.8 6.4 14.85 6.4 14.25 0.0 14.45 0.65 12.6 6.4 12.6 6.4 14.25 6.4 12.6 Q11.7 14.1 16.95 12.6 L22.7 12.6 M16.95 14.2 L16.95 12.6 16.95 14.2" fill="#b8d8cd" fill-rule="evenodd" stroke="none"/>
      <path d="M6.35 6.65 L7.3 5.9 16.0 5.85 16.15 5.85 16.9 6.75 16.95 12.6 Q11.7 14.1 6.4 12.6 L6.35 6.65" fill="#33494d" fill-rule="evenodd" stroke="none"/>
      <path d="M7.3 5.9 L7.1 5.9 Q5.95 3.4 5.75 0.0 L17.1 0.0 Q16.9 2.9 16.0 5.85 L7.3 5.9" fill="#1b2627" fill-rule="evenodd" stroke="none"/>
      <path d="M0.65 12.6 Q3.35 7.45 6.35 6.65 L6.4 12.6 0.65 12.6 M16.9 6.75 Q19.65 7.1 22.7 12.6 L16.95 12.6 16.9 6.75" fill="#446266" fill-rule="evenodd" stroke="none"/>
      <path d="M22.7 12.6 L23.15 14.15 16.95 14.2 M16.95 14.8 L6.4 14.85 M6.4 14.25 L0.0 14.45 0.65 12.6 Q3.35 7.45 6.35 6.65 L7.3 5.9 7.1 5.9 Q5.95 3.4 5.75 0.0 L17.1 0.0 Q16.9 2.9 16.0 5.85 L7.3 5.9 M16.15 5.85 L16.9 6.75 Q19.65 7.1 22.7 12.6" fill="none" stroke="#111a1a" stroke-linecap="round" stroke-linejoin="round" stroke-width="1.5"/>
      <path d="M16.95 14.2 L16.95 14.8 M6.4 14.85 L6.4 14.25 6.4 12.6 6.35 6.65 M16.95 12.6 L16.95 14.2 M16.9 6.75 L16.95 12.6" ffdec:has-small-stroke="true" ffdec:original-stroke-width="0.75" fill="none" stroke="#111a1a" stroke-linecap="round" stroke-linejoin="round" stroke-width="1.158925490464503"/>
    </g>
  </defs>
</svg>
