<?xml version="1.0" encoding="UTF-8" standalone="no"?>
<svg xmlns:ffdec="https://www.free-decompiler.com/flash" xmlns:xlink="http://www.w3.org/1999/xlink" ffdec:objectType="frame" height="22.15px" width="22.1px" xmlns="http://www.w3.org/2000/svg">
  <g transform="matrix(1.0, 0.0, 0.0, 1.0, 10.8, 9.95)">
    <use ffdec:characterId="148" height="55.55" transform="matrix(0.4, 0.0, 0.0, 0.4, 0.0, 0.0)" width="53.35" xlink:href="#sprite0"/>
    <use ffdec:characterId="136" height="12.45" transform="matrix(1.0732, 0.0, 0.0, 1.0729, -10.8, 0.25)" width="20.5" xlink:href="#shape2"/>
  </g>
  <defs>
    <g id="sprite0">
      <use ffdec:characterId="100" height="49.7" transform="matrix(1.0, 0.0, 0.0, 1.0, 1.0, 2.5)" width="49.7" xlink:href="#sprite1"/>
      <use ffdec:characterId="147" height="50.0" transform="matrix(1.0, 0.0, 0.0, 1.0, 0.0, 0.0)" width="50.0" xlink:href="#shape1"/>
    </g>
    <g id="sprite1">
      <use ffdec:characterId="99" height="49.7" transform="matrix(1.0, 0.0, 0.0, 1.0, 0.0, 0.0)" width="49.7" xlink:href="#shape0"/>
    </g>
    <g id="shape0">
      <path d="M20.05 -14.4 Q27.35 -7.1 27.35 3.2 27.35 13.5 20.05 20.75 12.8 28.05 2.5 28.05 -7.8 28.05 -15.1 20.75 -22.35 13.5 -22.35 3.2 -22.35 -7.1 -15.1 -14.4 -7.8 -21.65 2.5 -21.65 12.8 -21.65 20.05 -14.4" fill="#443c42" fill-opacity="0.7019608" fill-rule="evenodd" stroke="none"/>
    </g>
    <g id="shape1">
      <path d="M0.0 0.0 L0.0 0.05 -0.05 0.0 0.0 0.0" fill="url(#gradient0)" fill-rule="evenodd" stroke="none"/>
      <path d="M-0.05 0.0 L0.0 -0.05 0.0 0.0 -0.05 0.0" fill="#ff3300" fill-rule="evenodd" stroke="none"/>
      <path d="M0.0 -18.7 Q7.75 -18.7 13.2 -13.25 L13.25 -13.2 Q18.7 -7.75 18.7 0.0 18.7 7.75 13.25 13.25 L13.2 13.25 Q7.75 18.7 0.0 18.7 -7.8 18.7 -13.25 13.25 -18.7 7.75 -18.7 0.0 -18.7 -7.75 -13.25 -13.2 -7.8 -18.7 0.0 -18.7 M-0.05 0.0 L0.0 0.05 0.0 0.0 0.0 -0.05 -0.05 0.0" fill="url(#gradient1)" fill-rule="evenodd" stroke="none"/>
      <path d="M17.65 -17.7 L13.2 -13.25 Q7.75 -18.7 0.0 -18.7 L0.0 -25.0 Q10.35 -25.0 17.65 -17.7 M18.7 0.0 L25.0 0.0 Q25.0 10.35 17.7 17.7 L17.65 17.7 13.2 13.25 13.25 13.25 Q18.7 7.75 18.7 0.0 M0.0 25.0 Q-10.4 25.0 -17.7 17.7 L-13.25 13.25 Q-7.8 18.7 0.0 18.7 L0.0 25.0 M-25.0 0.0 Q-25.0 -10.35 -17.7 -17.65 L-13.25 -13.2 Q-18.7 -7.75 -18.7 0.0 L-25.0 0.0" fill="#3879d8" fill-rule="evenodd" stroke="none"/>
      <path d="M13.2 -13.25 L17.65 -17.7 17.7 -17.65 Q25.0 -10.35 25.0 0.0 L18.7 0.0 Q18.7 -7.75 13.25 -13.2 L13.2 -13.25 M0.0 -25.0 L0.0 -18.7 Q-7.8 -18.7 -13.25 -13.2 L-17.7 -17.65 Q-10.4 -25.0 0.0 -25.0 M0.0 18.7 Q7.75 18.7 13.2 13.25 L17.65 17.7 Q10.35 25.0 0.0 25.0 L0.0 18.7 M-17.7 17.7 Q-25.0 10.35 -25.0 0.0 L-18.7 0.0 Q-18.7 7.75 -13.25 13.25 L-17.7 17.7" fill="#2664bf" fill-rule="evenodd" stroke="none"/>
      <path d="M13.2 -13.25 L17.65 -17.7 Q10.35 -25.0 0.0 -25.0 L0.0 -18.7 Q7.75 -18.7 13.2 -13.25 L13.25 -13.2 Q18.7 -7.75 18.7 0.0 L25.0 0.0 Q25.0 -10.35 17.7 -17.65 L17.65 -17.7 M0.0 18.7 Q7.75 18.7 13.2 13.25 L13.25 13.25 Q18.7 7.75 18.7 0.0 M13.2 13.25 L17.65 17.7 17.7 17.7 Q25.0 10.35 25.0 0.0 M17.65 17.7 Q10.35 25.0 0.0 25.0 -10.4 25.0 -17.7 17.7 -25.0 10.35 -25.0 0.0 -25.0 -10.35 -17.7 -17.65 -10.4 -25.0 0.0 -25.0 M0.0 25.0 L0.0 18.7 Q-7.8 18.7 -13.25 13.25 L-17.7 17.7 M-13.25 -13.2 L-17.7 -17.65 M0.0 -18.7 Q-7.8 -18.7 -13.25 -13.2 -18.7 -7.75 -18.7 0.0 -18.7 7.75 -13.25 13.25 M-25.0 0.0 L-18.7 0.0" ffdec:has-small-stroke="true" ffdec:original-stroke-width="0.05" fill="none" stroke="#fcdc94" stroke-linecap="round" stroke-linejoin="round" stroke-opacity="0.972549" stroke-width="2.5000381475547417"/>
      <path d="M0.0 0.0 L0.0 0.05 -0.05 0.0 0.0 -0.05 0.0 0.0" ffdec:has-small-stroke="true" ffdec:original-stroke-width="0.05" fill="none" stroke="#541101" stroke-linecap="round" stroke-linejoin="round" stroke-width="2.5000381475547417"/>
      <path d="M0.0 0.0 L-0.05 0.0" ffdec:has-small-stroke="true" ffdec:original-stroke-width="0.05" fill="none" stroke="#ff9900" stroke-linecap="round" stroke-linejoin="round" stroke-opacity="0.0" stroke-width="2.5000381475547417"/>
    </g>
    <radialGradient cx="0" cy="0" gradientTransform="matrix(1.0E-4, 0.0, 0.0, 1.0E-4, 0.0, 0.0)" gradientUnits="userSpaceOnUse" id="gradient0" r="819.2" spreadMethod="pad">
      <stop offset="0.0" stop-color="#ff0000"/>
      <stop offset="1.0" stop-color="#000000"/>
    </radialGradient>
    <radialGradient cx="0" cy="0" gradientTransform="matrix(0.0248, 0.0, 0.0, 0.0248, -0.7, 0.0)" gradientUnits="userSpaceOnUse" id="gradient1" r="819.2" spreadMethod="pad">
      <stop offset="0.41568627450980394" stop-color="#66ccff"/>
      <stop offset="1.0" stop-color="#6666cc"/>
    </radialGradient>
    <g id="shape2">
      <path d="M20.4 1.75 L19.55 2.6 18.25 2.65 13.05 0.7 Q12.35 0.45 12.1 -0.2 11.8 -0.8 12.05 -1.35 L12.05 -1.45 Q12.3 -2.15 12.95 -2.4 L14.25 -2.45 16.3 -1.7 15.7 0.0 20.4 1.75" fill="#784b01" fill-rule="evenodd" stroke="none"/>
      <path d="M16.3 -1.7 L19.45 -0.5 20.4 0.35 Q20.65 1.0 20.4 1.65 L20.4 1.75 15.7 0.0 16.3 -1.7" fill="#996600" fill-rule="evenodd" stroke="none"/>
      <path d="M16.3 -1.7 L19.45 -0.5 20.4 0.35 Q20.65 1.0 20.4 1.65 L20.4 1.75 19.55 2.6 18.25 2.65 13.05 0.7 Q12.35 0.45 12.1 -0.2 11.8 -0.8 12.05 -1.35 L12.05 -1.45 Q12.3 -2.15 12.95 -2.4 L14.25 -2.45 16.3 -1.7 Z" ffdec:has-small-stroke="true" ffdec:original-stroke-width="0.05" fill="none" stroke="#663300" stroke-linecap="round" stroke-linejoin="round" stroke-width="0.9319217668732416"/>
      <path d="M2.25 -1.0 L5.1 -6.2 6.45 -5.7 6.3 -4.55 7.25 -5.4 7.75 -5.2 7.7 -4.7 8.2 -5.05 15.15 -2.45 13.5 2.3 Q4.6 -0.8 2.25 -1.0" fill="#c9cccf" fill-rule="evenodd" stroke="none"/>
      <path d="M13.5 2.3 L13.2 6.25 Q4.45 6.05 0.0 1.85 L1.8 -0.2 2.25 -1.0 Q4.6 -0.8 13.5 2.3" fill="#ffffff" fill-rule="evenodd" stroke="none"/>
      <path d="M13.5 2.3 L13.2 6.25 Q4.45 6.05 0.0 1.85 L1.8 -0.2 2.25 -1.0 5.1 -6.2 6.45 -5.7 6.3 -4.55 7.25 -5.4 7.75 -5.2 7.7 -4.7 8.2 -5.05 15.15 -2.45 13.5 2.3 Z" ffdec:has-small-stroke="true" ffdec:original-stroke-width="0.05" fill="none" stroke="#505050" stroke-linecap="round" stroke-linejoin="round" stroke-width="0.9319217668732416"/>
      <path d="M4.4 -2.15 Q6.1 -4.2 6.5 -1.75 6.8 1.0 8.25 0.45 L9.85 -0.2 11.7 -0.15 Q12.25 0.5 13.25 0.65 L14.1 0.55 13.35 2.7 Q8.5 2.7 4.25 0.95 2.3 -0.55 4.4 -2.15 M11.9 5.05 L11.5 5.6 Q11.15 5.95 10.6 5.95 10.05 5.95 9.65 5.6 9.3 5.25 9.3 4.75 9.3 4.25 9.65 3.9 10.0 3.6 10.5 3.55 L10.6 3.55 10.1 3.7 10.2 3.7 11.5 3.9 Q11.9 4.25 11.9 4.75 L11.9 5.05 Q12.0 4.15 10.2 3.7 12.0 4.15 11.9 5.05 M4.95 2.75 L5.3 2.7 5.55 2.75 5.9 2.9 5.55 2.75 5.85 2.85 5.9 2.9 6.2 3.4 5.9 3.9 5.3 4.1 Q4.95 4.1 4.65 3.9 L4.4 3.4 4.6 2.95 4.65 2.9 4.95 2.75 4.6 2.95 4.95 2.75" fill="#d30101" fill-rule="evenodd" stroke="none"/>
      <path d="M4.4 -2.15 Q6.1 -4.2 6.5 -1.75 6.8 1.0 8.25 0.45 L9.85 -0.2 11.7 -0.15 Q12.25 0.5 13.25 0.65 L14.1 0.55 M11.9 5.05 Q12.0 4.15 10.2 3.7 M4.95 2.75 L4.6 2.95 M5.9 2.9 L5.55 2.75 Q5.25 2.6 4.95 2.75" ffdec:has-small-stroke="true" ffdec:original-stroke-width="0.5" fill="none" stroke="#ff0000" stroke-linecap="round" stroke-linejoin="round" stroke-width="0.9319217668732416"/>
    </g>
  </defs>
</svg>
