<?xml version="1.0" encoding="UTF-8" standalone="no"?>
<svg xmlns:ffdec="https://www.free-decompiler.com/flash" xmlns:xlink="http://www.w3.org/1999/xlink" ffdec:objectType="frame" height="21.95px" width="20.95px" xmlns="http://www.w3.org/2000/svg">
  <g transform="matrix(1.0, 0.0, 0.0, 1.0, 10.6, 11.1)">
    <use ffdec:characterId="100" height="49.7" transform="matrix(0.3943, 0.0, 0.0, 0.3943, -0.4, -0.2)" width="49.7" xlink:href="#sprite0"/>
    <use ffdec:characterId="152" height="21.4" transform="matrix(1.0, 0.0, 0.0, 1.0, 0.0, 0.0)" width="19.7" xlink:href="#shape1"/>
  </g>
  <defs>
    <g id="sprite0">
      <use ffdec:characterId="99" height="49.7" transform="matrix(1.0, 0.0, 0.0, 1.0, 0.0, 0.0)" width="49.7" xlink:href="#shape0"/>
    </g>
    <g id="shape0">
      <path d="M20.05 -14.4 Q27.35 -7.1 27.35 3.2 27.35 13.5 20.05 20.75 12.8 28.05 2.5 28.05 -7.8 28.05 -15.1 20.75 -22.35 13.5 -22.35 3.2 -22.35 -7.1 -15.1 -14.4 -7.8 -21.65 2.5 -21.65 12.8 -21.65 20.05 -14.4" fill="#443c42" fill-opacity="0.7019608" fill-rule="evenodd" stroke="none"/>
    </g>
    <g id="shape1">
      <path d="M6.2 -8.2 L6.25 -8.2 Q9.1 -5.35 9.1 -1.25 L6.65 -1.25 Q6.65 -4.3 4.5 -6.45 L4.45 -6.45 6.2 -8.2 M6.2 5.75 Q3.3 8.6 -0.75 8.6 L-0.75 6.15 Q2.3 6.1 4.45 4.0 L6.2 5.75 M-7.7 5.75 Q-10.6 2.85 -10.6 -1.25 L-8.1 -1.25 Q-8.15 1.8 -5.95 4.0 L-7.7 5.75 M-7.7 -8.2 Q-4.85 -11.1 -0.75 -11.1 L-0.75 -8.6 Q-3.8 -8.65 -5.95 -6.45 L-7.7 -8.2" fill="#2664bf" fill-rule="evenodd" stroke="none"/>
      <path d="M6.2 -8.2 L4.45 -6.45 Q2.3 -8.6 -0.75 -8.6 L-0.75 -11.1 Q3.3 -11.1 6.2 -8.2 M6.65 -1.25 L9.1 -1.25 Q9.1 2.85 6.25 5.75 L6.2 5.75 4.45 4.0 4.5 4.0 Q6.65 1.8 6.65 -1.25 M-0.75 8.6 Q-4.85 8.6 -7.7 5.75 L-5.95 4.0 Q-3.8 6.15 -0.75 6.15 L-0.75 8.6 M-10.6 -1.25 Q-10.6 -5.35 -7.7 -8.2 L-5.95 -6.45 Q-8.15 -4.3 -8.1 -1.25 L-10.6 -1.25" fill="#3879d8" fill-rule="evenodd" stroke="none"/>
      <path d="M4.45 -6.45 L4.5 -6.45 Q6.65 -4.3 6.65 -1.25 6.65 1.8 4.5 4.0 L4.45 4.0 Q2.3 6.1 -0.75 6.15 -3.8 6.15 -5.95 4.0 -8.15 1.8 -8.1 -1.25 -8.15 -4.3 -5.95 -6.45 -3.8 -8.65 -0.75 -8.6 2.3 -8.6 4.45 -6.45 M-0.75 -1.25 L-0.75 -1.2 -0.75 -1.25" fill="url(#gradient0)" fill-rule="evenodd" stroke="none"/>
      <path d="M-0.75 -1.25 L-0.75 -1.2 -0.75 -1.25" fill="url(#gradient1)" fill-rule="evenodd" stroke="none"/>
      <path d="M9.1 -1.25 Q9.1 -5.35 6.25 -8.2 L6.2 -8.2 4.45 -6.45 4.5 -6.45 Q6.65 -4.3 6.65 -1.25 L9.1 -1.25 Q9.1 2.85 6.25 5.75 L6.2 5.75 Q3.3 8.6 -0.75 8.6 -4.85 8.6 -7.7 5.75 -10.6 2.85 -10.6 -1.25 -10.6 -5.35 -7.7 -8.2 -4.85 -11.1 -0.75 -11.1 3.3 -11.1 6.2 -8.2 M4.45 4.0 L6.2 5.75 M6.65 -1.25 Q6.65 1.8 4.5 4.0 L4.45 4.0 Q2.3 6.1 -0.75 6.15 L-0.75 8.6 M-0.75 -11.1 L-0.75 -8.6 Q2.3 -8.6 4.45 -6.45 M-7.7 -8.2 L-5.95 -6.45 Q-3.8 -8.65 -0.75 -8.6 M-5.95 -6.45 Q-8.15 -4.3 -8.1 -1.25 -8.15 1.8 -5.95 4.0 -3.8 6.15 -0.75 6.15 M-8.1 -1.25 L-10.6 -1.25 M-7.7 5.75 L-5.95 4.0" ffdec:has-small-stroke="true" ffdec:original-stroke-width="0.05" fill="none" stroke="#fcdc94" stroke-linecap="round" stroke-linejoin="round" stroke-opacity="0.972549" stroke-width="1.0"/>
      <path d="M-0.75 -1.25 L-0.75 -1.2 -0.75 -1.25 Z" ffdec:has-small-stroke="true" ffdec:original-stroke-width="0.05" fill="none" stroke="#541101" stroke-linecap="round" stroke-linejoin="round" stroke-width="1.0"/>
      <path d="M5.05 -9.9 L5.1 -9.9 6.75 -6.8 6.8 -5.75 5.25 -8.25 5.05 -9.9" fill="#ff2600" fill-rule="evenodd" stroke="none"/>
      <path d="M5.05 -9.9 L5.25 -8.25 4.5 -7.15 3.6 -6.4 3.55 -5.7 2.65 -4.4 0.2 -7.3 -3.15 -6.6 -3.0 -7.0 -2.55 -9.35 -2.55 -9.4 -1.0 -10.35 0.3 -10.6 5.05 -9.9 M-7.45 8.25 L-7.35 3.75 -6.6 3.1 -2.35 5.7 -2.4 5.7 -3.85 8.05 -5.15 8.6 -7.45 8.25 M-4.05 0.8 L-5.25 0.65 -5.25 0.55 -4.05 -3.55 -2.1 -1.6 -1.5 -0.35 -0.95 0.9 -1.1 1.05 -1.15 1.05 -1.9 0.95 -2.2 0.95 -4.05 0.8" fill="#ff0000" fill-rule="evenodd" stroke="none"/>
      <path d="M5.4 -2.9 L4.45 -2.65 3.6 -6.4 4.5 -7.15 5.4 -2.9" fill="#640f00" fill-rule="evenodd" stroke="none"/>
      <path d="M5.25 -8.25 L6.8 -5.75 5.4 -2.9 4.5 -7.15 5.25 -8.25 M4.45 -2.65 L1.9 0.2 1.1 -2.15 1.95 -3.35 3.0 -1.2 2.55 -4.25 2.65 -4.4 3.55 -5.7 3.6 -6.4 4.45 -2.65" fill="#9e3e1d" fill-rule="evenodd" stroke="none"/>
      <path d="M-6.6 3.1 L-6.5 2.9 -5.8 1.95 -5.05 2.1 -3.45 2.2 -3.35 2.2 -2.1 2.3 -2.05 2.45 -0.6 5.05 -0.65 5.05 -2.35 5.7 -6.6 3.1 M-4.05 -3.55 L-3.75 -5.0 -3.15 -6.6 0.2 -7.3 2.65 -4.4 2.55 -4.25 0.4 -4.05 1.95 -3.35 1.1 -2.15 -0.8 -1.85 -2.1 -1.6 -4.05 -3.55 M-1.3 -3.45 L-1.4 -3.5 -1.4 -3.45 -1.3 -3.45" fill="#ff2d15" fill-rule="evenodd" stroke="none"/>
      <path d="M2.55 -4.25 L3.0 -1.2 1.95 -3.35 0.4 -4.05 2.55 -4.25" fill="#2b0600" fill-rule="evenodd" stroke="none"/>
      <path d="M1.9 0.2 L1.05 1.2 -0.45 0.05 -0.35 0.05 1.1 -2.15 1.9 0.2 M-0.5 2.9 L-0.3 3.35 0.4 5.9 -0.65 5.05 -0.6 5.05 -2.05 2.45 -1.4 2.65 -0.5 2.9 M-4.15 9.8 L-5.55 9.65 -7.45 8.25 -5.15 8.6 -4.15 9.8" fill="#801300" fill-rule="evenodd" stroke="none"/>
      <path d="M0.4 5.9 L0.45 5.95 -4.15 9.8 -5.15 8.6 -3.85 8.05 -2.4 5.7 -2.35 5.7 -0.65 5.05 0.4 5.9" fill="#480a00" fill-rule="evenodd" stroke="none"/>
      <path d="M-1.3 -3.45 L-1.4 -3.45 -1.4 -3.5 -1.3 -3.45" fill="#971300" fill-rule="evenodd" stroke="none"/>
      <path d="M-0.8 -1.85 L-1.5 -0.35 -2.1 -1.6 -0.8 -1.85 M-2.2 1.0 L-2.15 1.0 -1.6 1.45 -1.85 1.9 -1.75 1.9 -1.4 2.65 -2.05 2.45 -2.1 2.3 -3.35 2.2 -2.45 1.8 -3.85 1.55 -3.5 1.25 -2.2 1.0" fill="#ce1400" fill-rule="evenodd" stroke="none"/>
      <path d="M-1.5 -0.35 L-0.8 -1.85 1.1 -2.15 -0.35 0.05 -0.45 0.05 -0.95 0.9 -1.5 -0.35" fill="#ff1a1f" fill-rule="evenodd" stroke="none"/>
      <path d="M1.05 1.2 L-0.5 2.9 -1.15 1.05 -1.1 1.05 -0.95 0.9 -0.45 0.05 1.05 1.2" fill="#662813" fill-rule="evenodd" stroke="none"/>
      <path d="M-2.15 1.0 L-2.2 1.0 -2.2 0.95 -2.15 1.0" fill="#ff0d49" fill-rule="evenodd" stroke="none"/>
      <path d="M-5.05 2.1 L-5.05 1.85 -4.6 1.65 -4.65 1.2 -4.05 0.8 -2.2 0.95 -2.2 1.0 -3.5 1.25 -3.85 1.55 -2.45 1.8 -3.35 2.2 -3.45 2.2 -5.05 2.1" fill="#ff9488" fill-rule="evenodd" stroke="none"/>
      <path d="M6.8 -5.75 L6.75 -6.8 5.1 -9.9 5.05 -9.9 0.3 -10.6 -1.0 -10.35 -2.55 -9.4 -2.55 -9.35 -3.0 -7.0 -3.15 -6.6 -3.75 -5.0 -4.05 -3.55 -5.25 0.55 -5.25 0.65 -4.05 0.8 M6.8 -5.75 L5.4 -2.9 M4.45 -2.65 L1.9 0.2 1.05 1.2 -0.5 2.9 -0.3 3.35 0.4 5.9 0.45 5.95 -4.15 9.8 -5.55 9.65 -7.45 8.25 -7.35 3.75 -6.6 3.1 M-6.5 2.9 L-5.8 1.95 -5.05 2.1 M-1.15 1.05 L-0.5 2.9 -1.4 2.65" fill="none" stroke="#523d27" stroke-linecap="round" stroke-linejoin="round" stroke-width="1.0"/>
      <path d="M1.1 -2.15 L1.9 0.2 M-0.45 0.05 L1.05 1.2" ffdec:has-small-stroke="true" ffdec:original-stroke-width="0.05" fill="none" stroke="#2b0600" stroke-linecap="round" stroke-linejoin="round" stroke-width="1.0"/>
    </g>
    <radialGradient cx="0" cy="0" gradientTransform="matrix(0.0098, 0.0, 0.0, 0.0098, -1.05, -1.25)" gradientUnits="userSpaceOnUse" id="gradient0" r="819.2" spreadMethod="pad">
      <stop offset="0.41568627450980394" stop-color="#66ccff"/>
      <stop offset="1.0" stop-color="#6666cc"/>
    </radialGradient>
    <radialGradient cx="0" cy="0" gradientTransform="matrix(0.0, 0.0, 0.0, 0.0, -0.75, -1.25)" gradientUnits="userSpaceOnUse" id="gradient1" r="819.2" spreadMethod="pad">
      <stop offset="0.0" stop-color="#ff0000"/>
      <stop offset="1.0" stop-color="#000000"/>
    </radialGradient>
  </defs>
</svg>
