<?xml version="1.0" encoding="UTF-8" standalone="no"?>
<svg xmlns:ffdec="https://www.free-decompiler.com/flash" xmlns:xlink="http://www.w3.org/1999/xlink" ffdec:objectType="frame" height="22.15px" width="21.25px" xmlns="http://www.w3.org/2000/svg">
  <g transform="matrix(1.0, 0.0, 0.0, 1.0, 10.6, 11.05)">
    <use ffdec:characterId="148" height="55.55" transform="matrix(0.4, 0.0, 0.0, 0.4, -0.65, -1.1)" width="53.35" xlink:href="#sprite0"/>
    <use ffdec:characterId="161" height="17.8" transform="matrix(1.0, 0.0, 0.0, 1.0, 0.0, 0.0)" width="12.9" xlink:href="#shape2"/>
  </g>
  <defs>
    <g id="sprite0">
      <use ffdec:characterId="100" height="49.7" transform="matrix(1.0, 0.0, 0.0, 1.0, 1.0, 2.5)" width="49.7" xlink:href="#sprite1"/>
      <use ffdec:characterId="147" height="50.0" transform="matrix(1.0, 0.0, 0.0, 1.0, 0.0, 0.0)" width="50.0" xlink:href="#shape1"/>
    </g>
    <g id="sprite1">
      <use ffdec:characterId="99" height="49.7" transform="matrix(1.0, 0.0, 0.0, 1.0, 0.0, 0.0)" width="49.7" xlink:href="#shape0"/>
    </g>
    <g id="shape0">
      <path d="M20.05 -14.4 Q27.35 -7.1 27.35 3.2 27.35 13.5 20.05 20.75 12.8 28.05 2.5 28.05 -7.8 28.05 -15.1 20.75 -22.35 13.5 -22.35 3.2 -22.35 -7.1 -15.1 -14.4 -7.8 -21.65 2.5 -21.65 12.8 -21.65 20.05 -14.4" fill="#443c42" fill-opacity="0.7019608" fill-rule="evenodd" stroke="none"/>
    </g>
    <g id="shape1">
      <path d="M0.0 0.0 L0.0 0.05 -0.05 0.0 0.0 0.0" fill="url(#gradient0)" fill-rule="evenodd" stroke="none"/>
      <path d="M-0.05 0.0 L0.0 -0.05 0.0 0.0 -0.05 0.0" fill="#ff3300" fill-rule="evenodd" stroke="none"/>
      <path d="M0.0 -18.7 Q7.75 -18.7 13.2 -13.25 L13.25 -13.2 Q18.7 -7.75 18.7 0.0 18.7 7.75 13.25 13.25 L13.2 13.25 Q7.75 18.7 0.0 18.7 -7.8 18.7 -13.25 13.25 -18.7 7.75 -18.7 0.0 -18.7 -7.75 -13.25 -13.2 -7.8 -18.7 0.0 -18.7 M-0.05 0.0 L0.0 0.05 0.0 0.0 0.0 -0.05 -0.05 0.0" fill="url(#gradient1)" fill-rule="evenodd" stroke="none"/>
      <path d="M17.65 -17.7 L13.2 -13.25 Q7.75 -18.7 0.0 -18.7 L0.0 -25.0 Q10.35 -25.0 17.65 -17.7 M18.7 0.0 L25.0 0.0 Q25.0 10.35 17.7 17.7 L17.65 17.7 13.2 13.25 13.25 13.25 Q18.7 7.75 18.7 0.0 M0.0 25.0 Q-10.4 25.0 -17.7 17.7 L-13.25 13.25 Q-7.8 18.7 0.0 18.7 L0.0 25.0 M-25.0 0.0 Q-25.0 -10.35 -17.7 -17.65 L-13.25 -13.2 Q-18.7 -7.75 -18.7 0.0 L-25.0 0.0" fill="#3879d8" fill-rule="evenodd" stroke="none"/>
      <path d="M13.2 -13.25 L17.65 -17.7 17.7 -17.65 Q25.0 -10.35 25.0 0.0 L18.7 0.0 Q18.7 -7.75 13.25 -13.2 L13.2 -13.25 M0.0 -25.0 L0.0 -18.7 Q-7.8 -18.7 -13.25 -13.2 L-17.7 -17.65 Q-10.4 -25.0 0.0 -25.0 M0.0 18.7 Q7.75 18.7 13.2 13.25 L17.65 17.7 Q10.35 25.0 0.0 25.0 L0.0 18.7 M-17.7 17.7 Q-25.0 10.35 -25.0 0.0 L-18.7 0.0 Q-18.7 7.75 -13.25 13.25 L-17.7 17.7" fill="#2664bf" fill-rule="evenodd" stroke="none"/>
      <path d="M13.2 -13.25 L17.65 -17.7 Q10.35 -25.0 0.0 -25.0 L0.0 -18.7 Q7.75 -18.7 13.2 -13.25 L13.25 -13.2 Q18.7 -7.75 18.7 0.0 L25.0 0.0 Q25.0 -10.35 17.7 -17.65 L17.65 -17.7 M0.0 18.7 Q7.75 18.7 13.2 13.25 L13.25 13.25 Q18.7 7.75 18.7 0.0 M13.2 13.25 L17.65 17.7 17.7 17.7 Q25.0 10.35 25.0 0.0 M17.65 17.7 Q10.35 25.0 0.0 25.0 -10.4 25.0 -17.7 17.7 -25.0 10.35 -25.0 0.0 -25.0 -10.35 -17.7 -17.65 -10.4 -25.0 0.0 -25.0 M0.0 25.0 L0.0 18.7 Q-7.8 18.7 -13.25 13.25 L-17.7 17.7 M-13.25 -13.2 L-17.7 -17.65 M0.0 -18.7 Q-7.8 -18.7 -13.25 -13.2 -18.7 -7.75 -18.7 0.0 -18.7 7.75 -13.25 13.25 M-25.0 0.0 L-18.7 0.0" ffdec:has-small-stroke="true" ffdec:original-stroke-width="0.05" fill="none" stroke="#fcdc94" stroke-linecap="round" stroke-linejoin="round" stroke-opacity="0.972549" stroke-width="2.5000381475547417"/>
      <path d="M0.0 0.0 L0.0 0.05 -0.05 0.0 0.0 -0.05 0.0 0.0" ffdec:has-small-stroke="true" ffdec:original-stroke-width="0.05" fill="none" stroke="#541101" stroke-linecap="round" stroke-linejoin="round" stroke-width="2.5000381475547417"/>
      <path d="M0.0 0.0 L-0.05 0.0" ffdec:has-small-stroke="true" ffdec:original-stroke-width="0.05" fill="none" stroke="#ff9900" stroke-linecap="round" stroke-linejoin="round" stroke-opacity="0.0" stroke-width="2.5000381475547417"/>
    </g>
    <radialGradient cx="0" cy="0" gradientTransform="matrix(1.0E-4, 0.0, 0.0, 1.0E-4, 0.0, 0.0)" gradientUnits="userSpaceOnUse" id="gradient0" r="819.2" spreadMethod="pad">
      <stop offset="0.0" stop-color="#ff0000"/>
      <stop offset="1.0" stop-color="#000000"/>
    </radialGradient>
    <radialGradient cx="0" cy="0" gradientTransform="matrix(0.0248, 0.0, 0.0, 0.0248, -0.7, 0.0)" gradientUnits="userSpaceOnUse" id="gradient1" r="819.2" spreadMethod="pad">
      <stop offset="0.41568627450980394" stop-color="#66ccff"/>
      <stop offset="1.0" stop-color="#6666cc"/>
    </radialGradient>
    <g id="shape2">
      <path d="M5.25 -8.05 L5.35 -8.1 5.35 -7.15 2.7 -3.95 -0.2 -0.55 -1.25 -0.55 -1.55 -0.55 -4.8 -0.6 -5.0 -0.65 -5.0 -5.85 -4.2 -5.55 -3.9 -5.3 -3.5 -3.95 -3.35 -4.1 Q-3.2 -3.45 -3.2 -2.6 L5.05 -8.0 5.25 -8.05 M5.35 1.65 L5.35 7.05 3.7 7.05 3.4 6.35 3.2 6.9 1.35 6.9 1.4 5.05 3.05 3.45 5.35 1.65 M-5.0 3.4 Q-4.8 2.45 -5.0 1.5 L-0.3 2.4 -5.0 3.4" fill="#f0e3ca" fill-rule="evenodd" stroke="none"/>
      <path d="M-4.45 -6.35 L5.05 -8.0 2.85 -7.25 -4.05 -5.6 -4.45 -6.25 -4.45 -6.35" fill="#faf4eb" fill-rule="evenodd" stroke="none"/>
      <path d="M-5.0 -5.85 L-5.0 -5.9 -4.75 -6.3 -4.65 -6.3 -4.45 -6.25 -4.05 -5.6 -3.9 -5.3 -4.2 -5.55 -5.0 -5.85 M5.05 -8.0 L-3.2 -2.6 Q-3.2 -3.45 -3.35 -4.1 -0.85 -5.85 2.85 -7.25 L5.05 -8.0" fill="#d8c6a0" fill-rule="evenodd" stroke="none"/>
      <path d="M5.35 -4.0 L5.35 -0.95 4.6 -0.55 3.15 -0.55 1.75 -0.55 0.65 -0.55 3.05 3.45 1.4 5.05 -1.65 7.05 -5.0 7.05 -5.0 3.4 -0.3 2.4 -5.0 1.5 -5.0 -0.45 -4.8 -0.6 -1.55 -0.55 -1.25 -0.55 -0.2 -0.55 2.7 -3.95 5.35 -4.0" fill="#f2e7d0" fill-rule="evenodd" stroke="none"/>
      <path d="M4.6 -0.55 L4.65 -0.55 5.35 -0.45 5.35 1.65 3.05 3.45 0.65 -0.55 1.75 -0.55 3.15 -0.55 4.6 -0.55" fill="#eedec1" fill-rule="evenodd" stroke="none"/>
      <path d="M5.35 -7.15 L5.35 -4.0 2.7 -3.95 5.35 -7.15 M1.35 6.9 L-1.65 7.05 1.4 5.05 1.35 6.9" fill="#f5eede" fill-rule="evenodd" stroke="none"/>
      <path d="M-3.35 -4.1 L-3.5 -3.95 -3.9 -5.3 -4.05 -5.6 2.85 -7.25 Q-0.85 -5.85 -3.35 -4.1" fill="#f7eedd" fill-rule="evenodd" stroke="none"/>
      <path d="M5.25 -8.05 L5.35 -8.1 5.35 -7.15 5.35 -4.0 5.35 -0.95 4.6 -0.55 4.65 -0.55 5.35 -0.45 5.35 1.65 5.35 7.05 3.7 7.05 3.4 6.35 3.2 6.9 1.35 6.9 -1.65 7.05 -5.0 7.05 -5.0 3.4 Q-4.8 2.45 -5.0 1.5 L-5.0 -0.45 -4.8 -0.6 -5.0 -0.65 -5.0 -5.85 -5.0 -5.9 -4.75 -6.3 -4.65 -6.3 -4.45 -6.35 5.05 -8.0 5.15 -8.05 5.25 -8.05 5.05 -8.0 M-4.65 -6.3 L-4.45 -6.25" ffdec:has-small-stroke="true" ffdec:original-stroke-width="0.6" fill="none" stroke="#000000" stroke-linecap="round" stroke-linejoin="round" stroke-opacity="0.6" stroke-width="1.0"/>
      <path d="M-3.35 -4.1 L-3.5 -3.95 -3.9 -5.3 -4.05 -5.6 -4.45 -6.25 M2.85 -7.25 L5.05 -8.0 M3.15 -0.55 L4.6 -0.55 M0.65 -0.55 L1.75 -0.55 M-1.25 -0.55 L-1.55 -0.55 M2.85 -7.25 Q-0.85 -5.85 -3.35 -4.1" ffdec:has-small-stroke="true" ffdec:original-stroke-width="0.05" fill="none" stroke="#000000" stroke-linecap="round" stroke-linejoin="round" stroke-opacity="0.5019608" stroke-width="1.0"/>
      <path d="M4.6 -8.55 L4.8 -8.6 4.9 -8.65 4.9 -7.7 2.25 -4.5 -0.65 -1.1 -1.7 -1.1 -2.0 -1.1 -5.25 -1.15 -5.45 -1.2 -5.45 -6.4 Q-5.0 -6.35 -4.65 -6.1 L-4.35 -5.85 -3.95 -4.5 -3.8 -4.65 Q-3.65 -4.0 -3.65 -3.15 L4.6 -8.55 M4.9 1.1 L4.9 6.5 3.25 6.5 2.95 5.8 2.75 6.35 0.9 6.35 0.95 4.5 2.6 2.9 4.9 1.1 M-5.45 2.85 Q-5.25 1.9 -5.45 0.95 L-0.75 1.85 -5.45 2.85" fill="#f0e3ca" fill-rule="evenodd" stroke="none"/>
      <path d="M-4.9 -6.9 L4.6 -8.55 2.4 -7.8 -4.5 -6.15 -4.9 -6.8 -4.9 -6.9" fill="#faf4eb" fill-rule="evenodd" stroke="none"/>
      <path d="M-5.45 -6.4 L-5.45 -6.45 -5.2 -6.85 -5.1 -6.85 -4.9 -6.8 -4.5 -6.15 -4.35 -5.85 -4.65 -6.1 Q-5.0 -6.35 -5.45 -6.4 M4.6 -8.55 L-3.65 -3.15 Q-3.65 -4.0 -3.8 -4.65 -1.3 -6.4 2.4 -7.8 L4.6 -8.55" fill="#d8c6a0" fill-rule="evenodd" stroke="none"/>
      <path d="M4.15 -1.1 L4.2 -1.1 4.9 -1.0 4.9 1.1 2.6 2.9 0.2 -1.1 1.3 -1.1 2.7 -1.1 4.15 -1.1" fill="#eedec1" fill-rule="evenodd" stroke="none"/>
      <path d="M4.9 -4.55 L4.9 -1.5 4.15 -1.1 2.7 -1.1 1.3 -1.1 0.2 -1.1 2.6 2.9 0.95 4.5 -2.1 6.5 -5.45 6.5 -5.45 2.85 -0.75 1.85 -5.45 0.95 -5.45 -1.0 -5.25 -1.15 -2.0 -1.1 -1.7 -1.1 -0.65 -1.1 2.25 -4.5 4.9 -4.55" fill="#f2e7d0" fill-rule="evenodd" stroke="none"/>
      <path d="M4.9 -7.7 L4.9 -4.55 2.25 -4.5 4.9 -7.7 M0.9 6.35 L-2.1 6.5 0.95 4.5 0.9 6.35" fill="#f5eede" fill-rule="evenodd" stroke="none"/>
      <path d="M-3.8 -4.65 L-3.95 -4.5 -4.35 -5.85 -4.5 -6.15 2.4 -7.8 Q-1.3 -6.4 -3.8 -4.65" fill="#f7eedd" fill-rule="evenodd" stroke="none"/>
      <path d="M4.8 -8.6 L4.7 -8.6 4.6 -8.55 4.8 -8.6 4.9 -8.65 4.9 -7.7 4.9 -4.55 4.9 -1.5 4.15 -1.1 4.2 -1.1 4.9 -1.0 4.9 1.1 4.9 6.5 3.25 6.5 2.95 5.8 2.75 6.35 0.9 6.35 -2.1 6.5 -5.45 6.5 -5.45 2.85 Q-5.25 1.9 -5.45 0.95 L-5.45 -1.0 -5.25 -1.15 -5.45 -1.2 -5.45 -6.4 -5.45 -6.45 -5.2 -6.85 -5.1 -6.85 -4.9 -6.9 4.6 -8.55 M-5.1 -6.85 L-4.9 -6.8" ffdec:has-small-stroke="true" ffdec:original-stroke-width="0.6" fill="none" stroke="#000000" stroke-linecap="round" stroke-linejoin="round" stroke-opacity="0.6" stroke-width="1.0"/>
      <path d="M-3.8 -4.65 L-3.95 -4.5 -4.35 -5.85 -4.5 -6.15 -4.9 -6.8 M2.4 -7.8 L4.6 -8.55 M2.7 -1.1 L4.15 -1.1 M0.2 -1.1 L1.3 -1.1 M-1.7 -1.1 L-2.0 -1.1 M2.4 -7.8 Q-1.3 -6.4 -3.8 -4.65" ffdec:has-small-stroke="true" ffdec:original-stroke-width="0.05" fill="none" stroke="#000000" stroke-linecap="round" stroke-linejoin="round" stroke-opacity="0.5019608" stroke-width="1.0"/>
      <path d="M4.05 -9.05 L1.85 -8.3 -5.05 -6.65 -5.45 -7.3 -5.45 -7.4 4.05 -9.05" fill="#faf4eb" fill-rule="evenodd" stroke="none"/>
      <path d="M1.85 -8.3 L4.05 -9.05 -4.2 -3.65 Q-4.2 -4.5 -4.35 -5.15 -1.85 -6.9 1.85 -8.3 M-5.45 -7.3 L-5.05 -6.65 -4.9 -6.35 -5.2 -6.6 -6.0 -6.9 -6.0 -6.95 -5.75 -7.35 -5.65 -7.35 -5.45 -7.3" fill="#d8c6a0" fill-rule="evenodd" stroke="none"/>
      <path d="M-4.35 -5.15 Q-4.2 -4.5 -4.2 -3.65 L4.05 -9.05 4.25 -9.1 4.35 -9.15 4.35 -8.2 1.7 -5.0 -1.2 -1.6 -2.25 -1.6 -2.55 -1.6 -5.8 -1.65 -6.0 -1.7 -6.0 -6.9 -5.2 -6.6 -4.9 -6.35 -4.5 -5.0 -4.35 -5.15 M4.35 0.6 L4.35 6.0 2.7 6.0 2.4 5.3 2.2 5.85 0.35 5.85 0.4 4.0 2.05 2.4 4.35 0.6 M-6.0 2.35 Q-5.8 1.4 -6.0 0.45 L-1.3 1.35 -6.0 2.35" fill="#f0e3ca" fill-rule="evenodd" stroke="none"/>
      <path d="M4.35 -5.05 L4.35 -2.0 3.6 -1.6 2.15 -1.6 0.75 -1.6 -0.35 -1.6 2.05 2.4 0.4 4.0 -2.65 6.0 -6.0 6.0 -6.0 2.35 -1.3 1.35 -6.0 0.45 -6.0 -1.5 -5.8 -1.65 -2.55 -1.6 -2.25 -1.6 -1.2 -1.6 1.7 -5.0 4.35 -5.05" fill="#f2e7d0" fill-rule="evenodd" stroke="none"/>
      <path d="M4.35 -8.2 L4.35 -5.05 1.7 -5.0 4.35 -8.2 M0.35 5.85 L-2.65 6.0 0.4 4.0 0.35 5.85" fill="#f5eede" fill-rule="evenodd" stroke="none"/>
      <path d="M3.6 -1.6 L3.65 -1.6 4.35 -1.5 4.35 0.6 2.05 2.4 -0.35 -1.6 0.75 -1.6 2.15 -1.6 3.6 -1.6" fill="#eedec1" fill-rule="evenodd" stroke="none"/>
      <path d="M-5.05 -6.65 L1.85 -8.3 Q-1.85 -6.9 -4.35 -5.15 L-4.5 -5.0 -4.9 -6.35 -5.05 -6.65" fill="#f7eedd" fill-rule="evenodd" stroke="none"/>
      <path d="M1.85 -8.3 L4.05 -9.05 M-5.45 -7.3 L-5.05 -6.65 -4.9 -6.35 -4.5 -5.0 -4.35 -5.15 Q-1.85 -6.9 1.85 -8.3 M-2.25 -1.6 L-2.55 -1.6 M2.15 -1.6 L3.6 -1.6 M-0.35 -1.6 L0.75 -1.6" ffdec:has-small-stroke="true" ffdec:original-stroke-width="0.05" fill="none" stroke="#000000" stroke-linecap="round" stroke-linejoin="round" stroke-opacity="0.5019608" stroke-width="1.0"/>
      <path d="M4.05 -9.05 L-5.45 -7.4 -5.65 -7.35 -5.45 -7.3 M4.05 -9.05 L4.15 -9.1 4.25 -9.1 4.35 -9.15 4.35 -8.2 4.35 -5.05 4.35 -2.0 3.6 -1.6 3.65 -1.6 4.35 -1.5 4.35 0.6 4.35 6.0 2.7 6.0 2.4 5.3 2.2 5.85 0.35 5.85 -2.65 6.0 -6.0 6.0 -6.0 2.35 Q-5.8 1.4 -6.0 0.45 L-6.0 -1.5 -5.8 -1.65 -6.0 -1.7 -6.0 -6.9 -6.0 -6.95 -5.75 -7.35 -5.65 -7.35 M4.05 -9.05 L4.25 -9.1" ffdec:has-small-stroke="true" ffdec:original-stroke-width="0.6" fill="none" stroke="#000000" stroke-linecap="round" stroke-linejoin="round" stroke-opacity="0.6" stroke-width="1.0"/>
      <path d="M3.65 -9.55 L3.85 -9.6 3.95 -9.65 3.95 -8.7 1.3 -5.5 -1.6 -2.1 -2.65 -2.1 -2.95 -2.1 -6.2 -2.15 -6.4 -2.2 -6.4 -7.4 -5.6 -7.1 -5.3 -6.85 -4.9 -5.5 -4.75 -5.65 Q-4.6 -5.0 -4.6 -4.15 L3.65 -9.55 M3.95 0.1 L3.95 5.5 2.3 5.5 2.0 4.8 1.8 5.35 -0.05 5.35 0.0 3.5 1.65 1.9 3.95 0.1 M-6.4 1.85 Q-6.2 0.9 -6.4 -0.05 L-1.7 0.85 -6.4 1.85" fill="#f0e3ca" fill-rule="evenodd" stroke="none"/>
      <path d="M-5.85 -7.9 L3.65 -9.55 1.45 -8.8 -5.45 -7.15 -5.85 -7.8 -5.85 -7.9" fill="#faf4eb" fill-rule="evenodd" stroke="none"/>
      <path d="M-6.4 -7.4 L-6.4 -7.45 -6.15 -7.85 -6.05 -7.85 -5.85 -7.8 -5.45 -7.15 -5.3 -6.85 -5.6 -7.1 -6.4 -7.4 M3.65 -9.55 L-4.6 -4.15 Q-4.6 -5.0 -4.75 -5.65 -2.25 -7.4 1.45 -8.8 L3.65 -9.55" fill="#d8c6a0" fill-rule="evenodd" stroke="none"/>
      <path d="M3.95 -5.55 L3.95 -2.5 3.2 -2.1 1.75 -2.1 0.35 -2.1 -0.75 -2.1 1.65 1.9 0.0 3.5 -3.05 5.5 -6.4 5.5 -6.4 1.85 -1.7 0.85 -6.4 -0.05 -6.4 -2.0 -6.2 -2.15 -2.95 -2.1 -2.65 -2.1 -1.6 -2.1 1.3 -5.5 3.95 -5.55" fill="#f2e7d0" fill-rule="evenodd" stroke="none"/>
      <path d="M3.95 -8.7 L3.95 -5.55 1.3 -5.5 3.95 -8.7 M-0.05 5.35 L-3.05 5.5 0.0 3.5 -0.05 5.35" fill="#f5eede" fill-rule="evenodd" stroke="none"/>
      <path d="M3.2 -2.1 L3.25 -2.1 3.95 -2.0 3.95 0.1 1.65 1.9 -0.75 -2.1 0.35 -2.1 1.75 -2.1 3.2 -2.1" fill="#eedec1" fill-rule="evenodd" stroke="none"/>
      <path d="M-4.75 -5.65 L-4.9 -5.5 -5.3 -6.85 -5.45 -7.15 1.45 -8.8 Q-2.25 -7.4 -4.75 -5.65" fill="#f7eedd" fill-rule="evenodd" stroke="none"/>
      <path d="M3.85 -9.6 L3.75 -9.6 3.65 -9.55 3.85 -9.6 3.95 -9.65 3.95 -8.7 3.95 -5.55 3.95 -2.5 3.2 -2.1 3.25 -2.1 3.95 -2.0 3.95 0.1 3.95 5.5 2.3 5.5 2.0 4.8 1.8 5.35 -0.05 5.35 -3.05 5.5 -6.4 5.5 -6.4 1.85 Q-6.2 0.9 -6.4 -0.05 L-6.4 -2.0 -6.2 -2.15 -6.4 -2.2 -6.4 -7.4 -6.4 -7.45 -6.15 -7.85 -6.05 -7.85 -5.85 -7.9 3.65 -9.55 M-6.05 -7.85 L-5.85 -7.8" ffdec:has-small-stroke="true" ffdec:original-stroke-width="0.6" fill="none" stroke="#000000" stroke-linecap="round" stroke-linejoin="round" stroke-opacity="0.6" stroke-width="1.0"/>
      <path d="M-4.75 -5.65 L-4.9 -5.5 -5.3 -6.85 -5.45 -7.15 -5.85 -7.8 M1.45 -8.8 L3.65 -9.55 M-2.65 -2.1 L-2.95 -2.1 M1.75 -2.1 L3.2 -2.1 M-0.75 -2.1 L0.35 -2.1 M1.45 -8.8 Q-2.25 -7.4 -4.75 -5.65" ffdec:has-small-stroke="true" ffdec:original-stroke-width="0.05" fill="none" stroke="#000000" stroke-linecap="round" stroke-linejoin="round" stroke-opacity="0.5019608" stroke-width="1.0"/>
      <path d="M3.1 -10.05 L0.9 -9.3 -6.0 -7.65 -6.4 -8.3 -6.4 -8.4 3.1 -10.05" fill="#faf4eb" fill-rule="evenodd" stroke="none"/>
      <path d="M0.9 -9.3 L3.1 -10.05 -5.15 -4.65 Q-5.15 -5.5 -5.3 -6.15 -2.8 -7.9 0.9 -9.3 M-6.4 -8.3 L-6.0 -7.65 -5.85 -7.35 -6.15 -7.6 Q-6.5 -7.85 -6.95 -7.9 L-6.95 -7.95 -6.7 -8.35 -6.6 -8.35 -6.4 -8.3" fill="#d8c6a0" fill-rule="evenodd" stroke="none"/>
      <path d="M-5.3 -6.15 Q-5.15 -5.5 -5.15 -4.65 L3.1 -10.05 3.3 -10.1 3.4 -10.15 3.4 -9.2 0.75 -6.0 -2.15 -2.6 -3.2 -2.6 -3.5 -2.6 -6.75 -2.65 -6.95 -2.7 -6.95 -7.9 Q-6.5 -7.85 -6.15 -7.6 L-5.85 -7.35 -5.45 -6.0 -5.3 -6.15 M3.4 -0.4 L3.4 5.0 1.75 5.0 1.45 4.3 1.25 4.85 -0.6 4.85 -0.55 3.0 1.1 1.4 3.4 -0.4 M-6.95 1.35 Q-6.75 0.4 -6.95 -0.55 L-2.25 0.35 -6.95 1.35" fill="#f0e3ca" fill-rule="evenodd" stroke="none"/>
      <path d="M3.4 -6.05 L3.4 -3.0 2.65 -2.6 1.2 -2.6 -0.2 -2.6 -1.3 -2.6 1.1 1.4 -0.55 3.0 -3.6 5.0 -6.95 5.0 -6.95 1.35 -2.25 0.35 -6.95 -0.55 -6.95 -2.5 -6.75 -2.65 -3.5 -2.6 -3.2 -2.6 -2.15 -2.6 0.75 -6.0 3.4 -6.05" fill="#f2e7d0" fill-rule="evenodd" stroke="none"/>
      <path d="M3.4 -9.2 L3.4 -6.05 0.75 -6.0 3.4 -9.2 M-0.6 4.85 L-3.6 5.0 -0.55 3.0 -0.6 4.85" fill="#f5eede" fill-rule="evenodd" stroke="none"/>
      <path d="M2.65 -2.6 L2.7 -2.6 3.4 -2.5 3.4 -0.4 1.1 1.4 -1.3 -2.6 -0.2 -2.6 1.2 -2.6 2.65 -2.6" fill="#eedec1" fill-rule="evenodd" stroke="none"/>
      <path d="M-6.0 -7.65 L0.9 -9.3 Q-2.8 -7.9 -5.3 -6.15 L-5.45 -6.0 -5.85 -7.35 -6.0 -7.65" fill="#f7eedd" fill-rule="evenodd" stroke="none"/>
      <path d="M0.9 -9.3 L3.1 -10.05 M-6.4 -8.3 L-6.0 -7.65 -5.85 -7.35 -5.45 -6.0 -5.3 -6.15 Q-2.8 -7.9 0.9 -9.3 M-3.2 -2.6 L-3.5 -2.6 M1.2 -2.6 L2.65 -2.6 M-1.3 -2.6 L-0.2 -2.6" ffdec:has-small-stroke="true" ffdec:original-stroke-width="0.05" fill="none" stroke="#000000" stroke-linecap="round" stroke-linejoin="round" stroke-opacity="0.5019608" stroke-width="1.0"/>
      <path d="M3.1 -10.05 L-6.4 -8.4 -6.6 -8.35 -6.4 -8.3 M3.1 -10.05 L3.2 -10.1 3.3 -10.1 3.4 -10.15 3.4 -9.2 3.4 -6.05 3.4 -3.0 2.65 -2.6 2.7 -2.6 3.4 -2.5 3.4 -0.4 3.4 5.0 1.75 5.0 1.45 4.3 1.25 4.85 -0.6 4.85 -3.6 5.0 -6.95 5.0 -6.95 1.35 Q-6.75 0.4 -6.95 -0.55 L-6.95 -2.5 -6.75 -2.65 -6.95 -2.7 -6.95 -7.9 -6.95 -7.95 -6.7 -8.35 -6.6 -8.35 M3.1 -10.05 L3.3 -10.1" ffdec:has-small-stroke="true" ffdec:original-stroke-width="0.6" fill="none" stroke="#000000" stroke-linecap="round" stroke-linejoin="round" stroke-opacity="0.6" stroke-width="1.0"/>
      <path d="M0.45 -1.8 L3.6 -2.1 3.65 -2.1 3.7 -2.05 3.7 0.0 3.7 0.1 1.2 0.35 0.45 -1.8 M-1.05 0.6 L-1.85 0.7 -1.9 0.7 -6.75 1.2 -6.3 -0.05 -1.3 -1.6 -0.4 -1.7 Q-0.4 -0.25 -1.05 0.6" fill="#d84014" fill-rule="evenodd" stroke="none"/>
      <path d="M3.7 -2.05 L5.65 0.2 5.65 2.2 3.7 0.0 3.7 -2.05" fill="#88280d" fill-rule="evenodd" stroke="none"/>
      <path d="M1.2 0.35 L-1.05 0.6 Q-0.4 -0.25 -0.4 -1.7 L0.45 -1.8 1.2 0.35 M-1.9 0.7 L-6.95 2.35 -7.0 1.2 -6.75 1.2 -1.9 0.7" fill="#c23912" fill-rule="evenodd" stroke="none"/>
      <path d="M-7.0 1.2 L-7.15 1.25 -7.15 -1.0 -1.3 -1.6 -6.3 -0.05 -6.75 1.2 -7.0 1.2" fill="#ef7856" fill-rule="evenodd" stroke="none"/>
      <path d="M0.45 -1.8 L3.6 -2.1 3.65 -2.1 3.7 -2.1 3.7 -2.05 5.65 0.2 5.65 2.2 3.7 0.0 3.7 0.1 1.2 0.35 -1.05 0.6 -1.85 0.7 M-7.0 1.2 L-7.15 1.25 -7.15 -1.0 -1.3 -1.6 -0.4 -1.7 0.45 -1.8 M3.65 -2.1 L3.7 -2.05 3.7 0.0 M-1.9 0.7 L-6.75 1.2 -7.0 1.2" ffdec:has-small-stroke="true" ffdec:original-stroke-width="0.05" fill="none" stroke="#000000" stroke-linecap="round" stroke-linejoin="round" stroke-opacity="0.4" stroke-width="1.0"/>
      <path d="M-1.85 0.7 L-1.9 0.7 -6.95 2.35 -7.0 1.2" ffdec:has-small-stroke="true" ffdec:original-stroke-width="0.05" fill="none" stroke="#000000" stroke-linecap="round" stroke-linejoin="round" stroke-opacity="0.5019608" stroke-width="1.0"/>
      <path d="M1.8 -0.2 Q2.45 1.4 2.05 2.95 L1.3 2.65 Q0.85 3.05 0.35 3.4 0.7 1.6 0.2 -0.1 L-0.5 -1.75 0.85 -1.9 1.8 -0.2" fill="#d84014" fill-rule="evenodd" stroke="none"/>
      <path d="M1.8 -0.2 Q2.45 1.4 2.05 2.95 L1.3 2.65 Q0.85 3.05 0.35 3.4 0.7 1.6 0.2 -0.1 L-0.5 -1.75 0.85 -1.9 1.8 -0.2 Z" ffdec:has-small-stroke="true" ffdec:original-stroke-width="0.05" fill="none" stroke="#000000" stroke-linecap="round" stroke-linejoin="round" stroke-opacity="0.5019608" stroke-width="1.0"/>
    </g>
  </defs>
</svg>
