<?xml version="1.0" encoding="UTF-8" standalone="no"?>
<svg xmlns:ffdec="https://www.free-decompiler.com/flash" xmlns:xlink="http://www.w3.org/1999/xlink" ffdec:objectType="shape" height="58.15px" width="59.1px" xmlns="http://www.w3.org/2000/svg">
  <g transform="matrix(1.0, 0.0, 0.0, 1.0, 29.55, 10.25)">
    <path d="M-21.85 21.1 L-22.8 20.5 -25.85 21.9 -25.75 24.35 -26.8 24.7 -29.0 23.2 -26.8 24.7 -25.75 24.35 -25.85 21.9 Q-20.55 25.0 -15.25 27.75 L-15.2 27.75 -14.65 28.05 Q-10.05 32.25 -4.1 35.0 -10.05 32.25 -14.65 28.05 -9.15 30.85 -3.65 33.2 L-4.15 33.45 -1.7 34.7 8.3 30.15 8.35 30.15 Q18.95 24.85 29.15 18.1 L29.15 21.0 29.15 24.8 29.15 26.35 29.15 31.4 Q18.05 38.3 6.05 44.1 L-1.45 47.5 -3.75 46.2 -3.75 45.15 Q-10.3 42.1 -17.3 38.15 L-18.65 37.4 -19.15 37.1 -20.15 36.55 -25.25 33.5 -26.1 34.2 -28.7 32.8 -28.7 29.45 -28.7 29.4 -28.75 28.65 Q-27.8 27.7 -28.85 25.8 L-28.9 24.65 -26.85 25.55 -25.7 25.15 -25.65 25.9 -25.55 28.0 -25.4 30.5 -25.25 33.5 -25.4 30.5 -25.55 28.0 -25.65 25.9 -25.7 25.15 -26.85 25.55 -28.9 24.65 -29.0 23.2 -29.15 20.15 -26.7 21.55 Q-15.55 16.55 -4.75 10.7 L-21.85 21.1 -4.75 10.7 -4.55 10.6 -1.4 8.85 -1.4 12.0 -2.05 12.8 Q-2.0 10.1 -2.85 13.2 -3.1 9.4 -3.85 13.75 -4.4 13.3 -5.15 14.45 -6.35 12.05 -6.65 15.25 -8.55 13.85 -8.35 16.15 -9.9 14.9 -9.9 16.95 -10.4 13.35 -11.25 17.7 -12.4 15.1 -12.4 18.25 -13.65 17.0 -13.95 19.05 -14.7 18.4 -15.05 19.65 -16.0 19.15 -16.9 20.65 -17.95 18.35 -18.2 21.35 -21.95 19.6 -19.9 22.25 L-19.9 22.3 -21.85 21.1 M22.55 19.55 Q22.8 18.75 21.5 19.05 22.5 18.1 20.2 18.45 22.05 16.4 18.7 17.7 19.15 16.75 17.85 17.3 19.2 14.7 15.75 17.6 16.5 13.2 15.55 16.25 15.8 15.2 14.55 15.75 L14.7 15.5 15.7 14.85 16.45 14.3 24.4 18.55 22.55 19.6 22.55 19.55 M12.55 14.2 L11.95 14.5 Q11.8 12.3 10.8 13.95 10.75 11.7 9.45 13.3 9.75 12.05 8.5 12.8 8.85 10.55 7.05 12.15 6.8 9.1 5.8 11.55 5.45 10.45 4.7 11.0 4.75 8.95 3.65 10.55 3.95 7.65 2.95 10.15 L2.9 10.15 Q2.3 8.8 2.0 8.85 L2.0 6.95 5.3 5.05 5.3 6.2 4.75 5.85 2.75 6.95 2.95 10.15 2.75 6.95 Q6.25 10.15 11.2 11.5 11.6 12.9 12.55 14.2 M-25.75 24.35 L-25.7 25.15 -25.75 24.35 M-25.4 30.5 Q-23.1 33.5 -20.15 36.2 L-19.15 37.1 -20.15 36.2 Q-23.1 33.5 -25.4 30.5 M-4.1 35.7 Q-2.75 37.0 -1.55 36.45 3.8 33.9 8.3 30.15 3.8 33.9 -1.55 36.45 -2.75 37.0 -4.1 35.7 L-4.05 37.05 -4.0 37.95 -4.05 37.05 -4.1 35.7 -4.1 35.0 -4.1 35.7 M29.15 21.0 Q13.25 29.0 -1.3 38.8 -2.95 39.15 -4.0 37.95 -2.95 39.15 -1.3 38.8 13.25 29.0 29.15 21.0 M-3.9 41.5 L-3.75 45.15 -3.9 41.5 Q-15.55 35.65 -25.55 28.0 -15.55 35.65 -3.9 41.5 L-3.95 39.6 -4.0 37.95 -3.95 39.6 -3.9 41.5 M-3.95 39.6 Q-2.8 40.3 -1.4 40.0 13.05 31.25 29.15 24.8 13.05 31.25 -1.4 40.0 -2.8 40.3 -3.95 39.6 M7.2 39.0 Q3.1 39.65 -1.5 42.25 -5.0 44.2 -1.35 45.55 3.55 42.6 7.2 39.0 3.55 42.6 -1.35 45.55 -5.0 44.2 -1.5 42.25 3.1 39.65 7.2 39.0 M-4.15 33.45 L-4.1 35.0 -4.15 33.45 M6.05 44.1 Q18.95 35.0 29.15 26.35 18.95 35.0 6.05 44.1 M-25.65 25.9 Q-15.35 32.95 -4.05 37.05 -15.35 32.95 -25.65 25.9" fill="url(#gradient0)" fill-rule="evenodd" stroke="none"/>
    <path d="M-25.85 21.9 L-22.8 20.5 -21.85 21.1 -19.9 22.3 -16.75 24.15 Q-18.2 26.0 -15.9 24.65 L-15.8 24.65 Q-16.6 27.45 -15.1 25.05 -14.15 25.6 -13.15 26.1 -11.25 28.3 -15.2 27.75 -11.25 28.3 -13.15 26.1 L-11.2 27.1 Q-13.1 28.5 -10.3 27.6 L-10.15 27.7 -10.05 27.7 -7.95 28.7 Q-10.2 29.8 -7.15 29.1 L-7.05 29.15 Q-7.75 30.95 -6.3 29.55 L-4.55 30.35 Q-6.8 31.45 -3.9 30.65 L-1.2 31.95 1.6 30.7 Q4.25 31.6 3.15 30.05 5.5 30.45 4.2 29.55 L4.3 29.5 Q5.3 29.65 5.1 29.15 L6.35 28.55 8.65 27.35 Q10.65 27.4 10.15 26.65 L10.3 26.55 11.1 26.1 13.65 24.7 Q15.9 24.75 14.6 24.15 L15.2 23.8 17.9 22.3 Q20.2 22.55 19.15 21.6 L22.55 19.6 24.4 18.55 16.45 14.3 18.55 13.2 26.4 17.4 27.05 17.1 29.15 18.1 Q18.95 24.85 8.35 30.15 L8.3 30.15 -1.7 34.7 -4.15 33.45 -3.65 33.2 Q-9.15 30.85 -14.65 28.05 L-15.2 27.75 -15.25 27.75 Q-20.55 25.0 -25.85 21.9 M-4.75 10.7 Q-15.55 16.55 -26.7 21.55 L-29.15 20.15 Q-18.05 15.25 -7.3 9.5 L-1.4 6.25 -1.4 6.6 -1.4 8.85 -4.55 10.6 -4.75 10.7 M14.95 14.1 L13.4 15.2 Q13.4 13.95 12.55 14.2 11.6 12.9 11.2 11.5 6.25 10.15 2.75 6.95 L4.75 5.85 5.3 6.2 Q8.7 9.5 13.3 10.55 13.9 12.75 14.95 14.1 M2.0 4.25 L2.65 3.9 5.3 5.05 2.0 6.95 2.0 6.2 2.0 4.25 M-7.3 9.5 Q2.25 5.55 -4.55 10.6 2.25 5.55 -7.3 9.5 M26.4 17.4 L24.4 18.55 26.4 17.4 M-1.2 31.95 L-3.65 33.2 -1.2 31.95 M8.35 30.15 Q13.05 26.4 6.35 28.55 13.05 26.4 8.35 30.15" fill="url(#gradient1)" fill-rule="evenodd" stroke="none"/>
    <path d="M-15.1 25.05 Q-16.6 27.45 -15.8 24.65 L-15.75 24.55 -15.9 24.65 Q-18.2 26.0 -16.75 24.15 L-16.7 24.05 -19.9 22.25 Q-21.95 19.6 -18.2 21.35 -17.95 18.35 -16.9 20.65 -16.0 19.15 -15.05 19.65 -14.7 18.4 -13.95 19.05 -13.65 17.0 -12.4 18.25 -12.4 15.1 -11.25 17.7 -10.4 13.35 -9.9 16.95 -9.9 14.9 -8.35 16.15 -8.55 13.85 -6.65 15.25 -6.35 12.05 -5.15 14.45 -4.4 13.3 -3.85 13.75 -3.1 9.4 -2.85 13.2 -2.0 10.1 -2.05 12.8 L-1.4 12.0 -1.4 19.5 2.0 18.9 2.0 8.85 Q2.3 8.8 2.9 10.15 L2.95 10.15 Q3.95 7.65 3.65 10.55 4.75 8.95 4.7 11.0 5.45 10.45 5.8 11.55 6.8 9.1 7.05 12.15 8.85 10.55 8.5 12.8 9.75 12.05 9.45 13.3 10.75 11.7 10.8 13.95 11.8 12.3 11.95 14.5 L12.55 14.2 Q13.4 13.95 13.4 15.2 L14.95 14.1 15.2 14.35 14.7 15.5 14.55 15.75 Q15.8 15.2 15.55 16.25 16.5 13.2 15.75 17.6 19.2 14.7 17.85 17.3 19.15 16.75 18.7 17.7 22.05 16.4 20.2 18.45 22.5 18.1 21.5 19.05 22.8 18.75 22.55 19.55 L19.15 21.55 19.15 21.6 Q20.2 22.55 17.9 22.3 L17.8 22.3 15.25 23.7 15.15 23.75 15.05 23.8 14.5 24.15 14.6 24.15 Q15.9 24.75 13.65 24.7 L13.4 24.7 11.1 25.95 11.1 26.1 10.3 26.55 10.0 26.5 10.15 26.65 Q10.65 27.4 8.65 27.35 L8.35 27.35 5.05 29.0 5.1 29.15 Q5.3 29.65 4.3 29.5 L4.05 29.5 4.2 29.55 Q5.5 30.45 3.15 30.05 4.25 31.6 1.6 30.7 L1.35 30.6 -1.1 31.85 -3.8 30.65 -3.9 30.65 Q-6.8 31.45 -4.55 30.35 L-4.45 30.3 -6.25 29.5 -6.3 29.55 Q-7.75 30.95 -7.05 29.15 L-7.0 29.1 -7.15 29.1 Q-10.2 29.8 -7.95 28.7 L-7.9 28.65 -10.05 27.7 -10.15 27.7 -10.3 27.6 Q-13.1 28.5 -11.2 27.1 L-11.1 27.05 -13.0 26.05 -15.0 24.95 -15.1 25.05" fill="url(#gradient2)" fill-rule="evenodd" stroke="none"/>
    <path d="M-13.15 26.1 Q-14.15 25.6 -15.1 25.05 L-15.0 24.95 -13.0 26.05 -11.1 27.05 -11.2 27.1 -13.15 26.1 -13.0 26.05 -13.15 26.1 M-15.8 24.65 L-15.9 24.65 -15.75 24.55 -15.8 24.65 M-16.75 24.15 L-19.9 22.3 -19.9 22.25 -16.7 24.05 -16.75 24.15 M10.15 26.65 L10.0 26.5 10.3 26.55 10.15 26.65" fill="url(#gradient3)" fill-rule="evenodd" stroke="none"/>
    <path d="M2.0 8.85 L2.0 18.9 -1.4 19.5 -1.4 12.0 -1.4 8.85 -1.4 6.6 0.3 5.75 2.0 6.2 2.0 6.95 2.0 8.85 M-1.4 -9.65 L2.0 -9.85 2.0 1.35 Q0.45 1.85 -1.4 1.35 L-1.4 -9.65" fill="url(#gradient4)" fill-rule="evenodd" stroke="none"/>
    <path d="M2.0 1.35 L2.0 3.8 2.0 4.25 2.0 6.2 0.3 5.75 -1.4 6.6 -1.4 6.25 -1.4 4.95 -1.4 3.3 -1.4 1.35 Q0.45 1.85 2.0 1.35 M2.0 3.8 L-1.4 3.3 2.0 3.8 M-1.4 4.95 L-0.25 5.55 0.3 5.75 -0.25 5.55 -1.4 4.95" fill="#cccccc" fill-rule="evenodd" stroke="none"/>
    <path d="M14.7 15.5 L15.2 14.35 15.7 14.85 14.7 15.5" fill="url(#gradient5)" fill-rule="evenodd" stroke="none"/>
    <path d="M15.15 23.75 L15.25 23.7 17.8 22.3 17.9 22.3 15.2 23.8 15.15 23.75 M19.15 21.6 L19.15 21.55 22.55 19.55 22.55 19.6 19.15 21.6" fill="url(#gradient6)" fill-rule="evenodd" stroke="none"/>
    <path d="M-25.85 21.9 L-22.8 20.5 -21.85 21.1 -4.75 10.7 -4.55 10.6 Q2.25 5.55 -7.3 9.5 M-29.0 23.2 L-26.8 24.7 -25.75 24.35 -25.85 21.9 M-15.2 27.75 Q-11.25 28.3 -13.15 26.1 M-16.75 24.15 L-19.9 22.3 -21.85 21.1 M10.3 26.55 L11.1 26.1 13.65 24.7 M2.0 8.85 L2.0 18.9 M-1.4 12.0 L-1.4 8.85 -1.4 6.6 M-25.25 33.5 L-25.4 30.5 -25.55 28.0 -25.65 25.9 -25.7 25.15 -26.85 25.55 -28.9 24.65 M-19.15 37.1 L-20.15 36.2 Q-23.1 33.5 -25.4 30.5 M-25.7 25.15 L-25.75 24.35 M2.0 6.95 L2.0 6.2 M2.75 6.95 L4.75 5.85 M2.0 6.95 L2.0 8.85 M2.95 10.15 L2.75 6.95 M29.15 18.1 Q18.95 24.85 8.35 30.15 L8.3 30.15 Q3.8 33.9 -1.55 36.45 -2.75 37.0 -4.1 35.7 M-4.0 37.95 Q-2.95 39.15 -1.3 38.8 13.25 29.0 29.15 21.0 M24.4 18.55 L26.4 17.4 M22.55 19.6 L24.4 18.55 M15.2 23.8 L14.6 24.15 M15.2 23.8 L17.9 22.3 M10.3 26.55 L10.15 26.65 M-1.2 31.95 L1.6 30.7 M6.35 28.55 L5.1 29.15 M-3.65 33.2 L-4.15 33.45 -1.7 34.7 8.3 30.15 M-3.9 41.5 Q-15.55 35.65 -25.55 28.0 M-4.1 35.0 Q-10.05 32.25 -14.65 28.05 M-3.65 33.2 L-1.2 31.95 M7.2 39.0 Q3.55 42.6 -1.35 45.55 -5.0 44.2 -1.5 42.25 3.1 39.65 7.2 39.0 M29.15 24.8 Q13.05 31.25 -1.4 40.0 -2.8 40.3 -3.95 39.6 M8.65 27.35 L6.35 28.55 Q13.05 26.4 8.35 30.15 M29.15 26.35 Q18.95 35.0 6.05 44.1 M22.55 19.6 L19.15 21.6 M-4.05 37.05 Q-15.35 32.95 -25.65 25.9" ffdec:has-small-stroke="true" ffdec:original-stroke-width="0.05" fill="none" stroke="#753120" stroke-linecap="round" stroke-linejoin="round" stroke-width="1.0"/>
    <path d="M-15.8 24.65 L-15.9 24.65 M-1.4 -9.65 L2.0 -9.85 M15.2 14.35 L15.7 14.85 14.7 15.5 M15.15 23.75 L15.2 23.8 M-7.15 29.1 L-7.05 29.15 M-10.05 27.7 L-7.95 28.7 M-6.3 29.55 L-4.55 30.35 M-1.2 31.95 L-3.9 30.65" ffdec:has-small-stroke="true" ffdec:original-stroke-width="0.05" fill="none" stroke="#8a4506" stroke-linecap="round" stroke-linejoin="round" stroke-width="1.0"/>
    <path d="M-15.25 27.75 L-15.2 27.75 -14.65 28.05 M-13.15 26.1 Q-14.15 25.6 -15.1 25.05 M2.0 18.9 L-1.4 19.5 -1.4 12.0 M-13.15 26.1 L-13.0 26.05 M4.75 5.85 L5.3 6.2 M4.3 29.5 L4.2 29.55 M-13.15 26.1 L-11.2 27.1" ffdec:has-small-stroke="true" ffdec:original-stroke-width="0.05" fill="none" stroke="#666666" stroke-linecap="round" stroke-linejoin="round" stroke-width="1.0"/>
    <path d="M-29.15 20.15 L-29.0 23.2 -28.9 24.65 -28.85 25.8 Q-27.8 27.7 -28.75 28.65 L-28.7 29.4 M15.2 14.35 L14.95 14.1 Q13.9 12.75 13.3 10.55 8.7 9.5 5.3 6.2 L5.3 5.05 2.65 3.9 2.0 4.25 2.0 3.8 M-28.7 29.45 L-28.7 32.8 -26.1 34.2 -25.25 33.5 -20.15 36.55 -19.15 37.1 -18.65 37.4 -17.3 38.15 Q-10.3 42.1 -3.75 45.15 L-3.75 46.2 -1.45 47.5 6.05 44.1 Q18.05 38.3 29.15 31.4 L29.15 26.35 29.15 24.8 29.15 21.0 29.15 18.1 27.05 17.1 26.4 17.4 18.55 13.2 16.45 14.3 15.7 14.85 M2.0 -9.85 L2.0 1.35 M-29.15 20.15 Q-18.05 15.25 -7.3 9.5 L-1.4 6.25 M-1.4 1.35 L-1.4 -9.65" ffdec:has-small-stroke="true" ffdec:original-stroke-width="0.8" fill="none" stroke="#4d3011" stroke-linecap="round" stroke-linejoin="round" stroke-width="1.0"/>
    <path d="M2.0 1.35 Q0.45 1.85 -1.4 1.35 M-1.4 3.3 L2.0 3.8 M0.3 5.75 L-0.25 5.55 -1.4 4.95 M-1.4 6.6 L0.3 5.75 2.0 6.2 2.0 4.25 M-1.4 6.25 L-1.4 6.6" ffdec:has-small-stroke="true" ffdec:original-stroke-width="0.05" fill="none" stroke="#666666" stroke-linecap="round" stroke-linejoin="round" stroke-width="1.0"/>
    <path d="M2.0 1.35 L2.0 3.8 M-1.4 1.35 L-1.4 3.3 -1.4 4.95 -1.4 6.25" ffdec:has-small-stroke="true" ffdec:original-stroke-width="0.8" fill="none" stroke="#666666" stroke-linecap="round" stroke-linejoin="round" stroke-width="1.0"/>
    <path d="M-4.1 35.7 L-4.05 37.05 -4.0 37.95 -3.95 39.6 -3.9 41.5 -3.75 45.15 M-4.1 35.7 L-4.1 35.0 -4.15 33.45" ffdec:has-small-stroke="true" ffdec:original-stroke-width="0.05" fill="none" stroke="#5d3910" stroke-linecap="round" stroke-linejoin="round" stroke-width="1.0"/>
  </g>
  <defs>
    <linearGradient gradientTransform="matrix(0.0, -0.0224, 0.0356, 0.0, 0.0, 25.9)" gradientUnits="userSpaceOnUse" id="gradient0" spreadMethod="pad" x1="-819.2" x2="819.2">
      <stop offset="0.0" stop-color="#5e4a24"/>
      <stop offset="1.0" stop-color="#997c3c"/>
      <stop offset="1.0" stop-color="#d4d0c8"/>
      <stop offset="1.0" stop-color="#d4d0c8"/>
    </linearGradient>
    <linearGradient gradientTransform="matrix(-6.0E-4, -0.016, 0.0355, -0.0014, 0.05, 20.6)" gradientUnits="userSpaceOnUse" id="gradient1" spreadMethod="pad" x1="-819.2" x2="819.2">
      <stop offset="0.0" stop-color="#997c3c"/>
      <stop offset="1.0" stop-color="#b89647"/>
      <stop offset="1.0" stop-color="#d4d0c8"/>
      <stop offset="1.0" stop-color="#d4d0c8"/>
      <stop offset="1.0" stop-color="#fefcfb"/>
    </linearGradient>
    <linearGradient gradientTransform="matrix(0.0264, 0.0, 0.0, 0.014, 1.0, 20.35)" gradientUnits="userSpaceOnUse" id="gradient2" spreadMethod="pad" x1="-819.2" x2="819.2">
      <stop offset="0.0" stop-color="#f4f458"/>
      <stop offset="1.0" stop-color="#ebc225"/>
      <stop offset="1.0" stop-color="#d4d0c8"/>
      <stop offset="1.0" stop-color="#d4d0c8"/>
    </linearGradient>
    <linearGradient gradientTransform="matrix(-0.0062, -0.0171, 0.0334, -0.0122, 1.15, 26.45)" gradientUnits="userSpaceOnUse" id="gradient3" spreadMethod="pad" x1="-819.2" x2="819.2">
      <stop offset="0.0" stop-color="#a65504"/>
      <stop offset="1.0" stop-color="#b75c04"/>
      <stop offset="1.0" stop-color="#d4d0c8"/>
      <stop offset="1.0" stop-color="#d4d0c8"/>
    </linearGradient>
    <linearGradient gradientTransform="matrix(0.0012, 0.0, 0.0, 0.0179, 0.65, 4.8)" gradientUnits="userSpaceOnUse" id="gradient4" spreadMethod="pad" x1="-819.2" x2="819.2">
      <stop offset="0.0" stop-color="#997c3c"/>
      <stop offset="1.0" stop-color="#b89647"/>
      <stop offset="1.0" stop-color="#d4d0c8"/>
      <stop offset="1.0" stop-color="#d4d0c8"/>
      <stop offset="1.0" stop-color="#fefcfb"/>
    </linearGradient>
    <linearGradient gradientTransform="matrix(-0.0026, -0.0138, 0.0345, -0.0066, 0.3, 20.6)" gradientUnits="userSpaceOnUse" id="gradient5" spreadMethod="pad" x1="-819.2" x2="819.2">
      <stop offset="0.0" stop-color="#da8b2c"/>
      <stop offset="1.0" stop-color="#deaf40"/>
      <stop offset="1.0" stop-color="#d4d0c8"/>
      <stop offset="1.0" stop-color="#d4d0c8"/>
    </linearGradient>
    <linearGradient gradientTransform="matrix(-0.0112, -0.0081, 0.0159, -0.0221, -8.55, 22.3)" gradientUnits="userSpaceOnUse" id="gradient6" spreadMethod="pad" x1="-819.2" x2="819.2">
      <stop offset="0.0" stop-color="#874503"/>
      <stop offset="1.0" stop-color="#944b03"/>
      <stop offset="1.0" stop-color="#d4d0c8"/>
      <stop offset="1.0" stop-color="#d4d0c8"/>
    </linearGradient>
  </defs>
</svg>
