<?xml version="1.0" encoding="UTF-8" standalone="no"?>
<svg xmlns:ffdec="https://www.free-decompiler.com/flash" xmlns:xlink="http://www.w3.org/1999/xlink" ffdec:objectType="shape" height="55.9px" width="59.3px" xmlns="http://www.w3.org/2000/svg">
  <g transform="matrix(1.0, 0.0, 0.0, 1.0, 29.65, 27.95)">
    <path d="M3.8 -24.45 L4.15 -24.9 Q5.75 -26.4 8.05 -26.5 L8.85 -26.45 Q10.55 -26.3 11.9 -25.1 13.5 -23.7 13.55 -21.6 13.6 -19.5 12.05 -13.95 L11.4 -11.95 11.25 -11.6 10.6 -10.25 10.25 -9.85 Q9.8 -9.15 9.25 -8.95 L8.65 -8.8 9.25 -8.95 Q9.8 -9.15 10.25 -9.85 L10.6 -10.25 11.25 -11.6 11.4 -11.95 13.95 -12.2 Q19.9 -13.85 22.15 -13.95 24.45 -14.0 26.0 -12.6 27.6 -11.15 27.65 -9.05 27.75 -6.95 26.2 -5.4 L25.7 -4.95 Q27.2 -4.35 28.05 -3.0 28.9 -1.75 28.9 -0.35 L28.7 0.8 Q28.1 2.85 26.15 4.0 24.15 5.1 22.0 4.65 21.05 4.45 19.3 3.2 18.2 2.35 16.85 1.1 L16.1 0.45 13.7 -1.9 Q11.65 -3.9 10.85 -5.1 L10.75 -5.15 Q10.0 -6.3 10.4 -6.6 8.95 -7.5 8.7 -8.5 L8.65 -8.8 8.35 -8.85 Q7.6 -7.5 6.55 -8.15 L6.35 -10.4 5.9 -12.1 5.5 -13.0 Q4.85 -14.7 4.6 -16.1 4.25 -17.7 4.4 -18.9 4.8 -21.45 4.15 -23.45 L3.8 -24.45 4.15 -23.45 Q4.8 -21.45 4.4 -18.9 4.25 -17.7 4.6 -16.1 4.85 -14.7 5.5 -13.0 L5.9 -12.1 6.35 -10.4 6.55 -8.15 Q5.6 -8.45 3.0 -10.7 L2.7 -10.95 Q-0.15 -13.55 -1.1 -14.9 L-2.85 -16.35 Q-0.15 -14.7 2.55 -13.85 3.05 -14.65 2.75 -15.65 0.95 -20.35 -2.65 -23.9 L-4.25 -24.5 -4.7 -24.5 -6.2 -24.15 -5.95 -24.5 Q-5.3 -25.55 -4.3 -26.2 L-2.65 -26.95 -0.55 -27.15 1.5 -26.55 Q3.05 -25.75 3.8 -24.45 M8.8 -12.6 L9.15 -13.05 Q10.1 -14.5 9.85 -15.85 L9.65 -15.85 Q8.55 -14.5 8.05 -13.15 L8.8 -12.6 M25.7 -4.95 L24.7 -5.3 Q22.45 -5.8 19.7 -5.35 L14.95 -5.7 13.6 -6.0 12.35 -6.4 10.85 -6.75 10.4 -6.6 10.85 -6.75 12.35 -6.4 13.6 -6.0 14.95 -5.7 19.7 -5.35 Q22.45 -5.8 24.7 -5.3 L25.7 -4.95 M17.8 -9.5 L18.7 -9.45 Q21.45 -9.25 22.6 -10.15 L22.2 -10.5 Q18.1 -12.5 14.1 -10.3 L17.8 -9.5 M18.25 -1.9 L18.0 -0.2 18.35 0.05 Q21.3 1.5 24.45 1.2 L24.8 -0.7 24.55 -0.95 Q21.55 -2.15 18.25 -1.9" fill="#526501" fill-rule="evenodd" stroke="none"/>
    <path d="M-2.85 -16.35 L-4.4 -17.8 -6.1 -19.85 -6.45 -20.55 -6.65 -21.8 -6.55 -23.0 -6.2 -24.15 -4.7 -24.5 -4.25 -24.5 -2.65 -23.9 Q0.95 -20.35 2.75 -15.65 3.05 -14.65 2.55 -13.85 -0.15 -14.7 -2.85 -16.35 M8.8 -12.6 L8.05 -13.15 Q8.55 -14.5 9.65 -15.85 L9.85 -15.85 Q10.1 -14.5 9.15 -13.05 L8.8 -12.6 M17.8 -9.5 L14.1 -10.3 Q18.1 -12.5 22.2 -10.5 L22.6 -10.15 Q21.45 -9.25 18.7 -9.45 L17.8 -9.5 M18.25 -1.9 Q21.55 -2.15 24.55 -0.95 L24.8 -0.7 24.45 1.2 Q21.3 1.5 18.35 0.05 L18.0 -0.2 18.25 -1.9" fill="#839502" fill-rule="evenodd" stroke="none"/>
    <path d="M6.55 -8.15 Q7.6 -7.5 8.35 -8.85 L8.7 -8.5 Q8.95 -7.5 10.4 -6.6 10.0 -6.3 10.75 -5.15 L10.85 -5.1 Q11.65 -3.9 13.7 -1.9 L16.1 0.45 16.25 1.85 Q16.75 8.7 11.9 13.4 L10.4 14.7 6.5 17.4 Q2.45 19.9 -3.6 22.6 L-6.1 23.7 -7.0 24.1 -7.15 24.15 Q-6.6 23.15 -6.4 21.9 L-6.3 21.6 -5.85 21.55 Q-0.6 21.45 2.2 17.8 L2.45 16.6 2.45 16.5 3.4 16.05 4.6 15.35 4.6 15.25 4.3 14.35 4.0 13.9 Q3.75 13.55 3.4 13.55 L3.05 13.45 Q6.35 12.6 9.6 10.2 12.25 8.25 13.1 5.05 L12.2 4.3 10.15 1.7 9.9 1.7 9.55 1.85 9.15 2.1 9.15 2.35 9.1 2.8 8.4 3.45 6.8 3.35 Q5.65 1.25 6.15 -1.4 6.85 -5.3 4.45 -8.3 L0.15 -11.35 0.8 -10.85 0.95 -10.85 3.0 -10.7 Q5.6 -8.45 6.55 -8.15 M10.4 14.7 Q7.05 15.05 4.0 13.9 7.05 15.05 10.4 14.7 M6.5 17.4 L2.45 16.6 6.5 17.4 M-3.6 22.6 L-6.4 21.9 -3.6 22.6" fill="#884402" fill-rule="evenodd" stroke="none"/>
    <path d="M-7.15 24.15 Q-15.45 27.65 -20.75 27.15 -24.25 26.8 -26.35 24.7 L-27.1 23.85 -16.3 19.8 -14.15 18.4 -14.0 18.3 Q-12.85 18.35 -12.6 17.4 L-12.5 17.55 -11.6 18.1 -9.65 17.85 Q-7.1 17.0 -5.35 15.75 L-4.25 15.6 -4.3 7.35 Q-2.3 8.75 0.2 7.9 L1.35 6.45 Q2.25 5.1 2.1 3.85 L1.95 3.85 2.0 3.75 Q2.25 0.45 1.55 -2.55 -0.9 -11.2 -9.85 -13.8 -6.65 -15.05 -2.8 -14.95 L-1.1 -14.9 Q-0.15 -13.55 2.7 -10.95 L3.0 -10.7 0.95 -10.85 0.8 -10.85 0.15 -11.35 4.45 -8.3 Q6.85 -5.3 6.15 -1.4 5.65 1.25 6.8 3.35 L8.4 3.45 9.1 2.8 9.15 2.35 9.15 2.1 9.55 1.85 9.9 1.7 10.15 1.7 12.2 4.3 13.1 5.05 Q12.25 8.25 9.6 10.2 6.35 12.6 3.05 13.45 L3.4 13.55 Q3.75 13.55 4.0 13.9 -0.5 12.2 -4.3 7.35 -0.5 12.2 4.0 13.9 L4.3 14.35 4.6 15.25 4.6 15.35 3.4 16.05 2.45 16.5 2.45 16.6 2.2 17.8 Q-0.6 21.45 -5.85 21.55 L-6.3 21.6 -6.4 21.9 -9.35 20.8 Q-12.0 19.75 -14.15 18.4 -12.0 19.75 -9.35 20.8 L-6.4 21.9 Q-6.6 23.15 -7.15 24.15 M-1.0 15.6 L2.45 16.6 -1.0 15.6" fill="#ba6702" fill-rule="evenodd" stroke="none"/>
    <path d="M-27.1 23.85 Q-28.15 22.5 -28.6 20.8 L-27.55 16.5 Q-26.75 17.1 -24.95 17.1 -24.2 17.1 -23.1 15.75 L-22.7 15.2 -21.6 15.45 Q-20.35 15.45 -19.4 14.25 -18.65 13.3 -18.45 12.15 -16.5 11.9 -16.5 8.85 L-16.65 7.65 -16.85 7.0 Q-16.5 6.0 -16.5 4.4 L-17.85 2.15 -17.85 1.65 -18.3 -0.15 Q-18.75 -1.2 -19.35 -1.6 L-18.75 -2.5 -17.8 0.05 -16.6 2.9 -16.45 3.05 -15.75 4.55 Q-15.0 6.65 -13.55 7.45 L-13.1 7.65 Q-14.75 4.85 -16.0 1.5 -17.6 -2.15 -16.3 -5.6 -15.45 -6.75 -15.3 -8.1 L-16.9 -8.35 -15.0 -10.4 Q-12.75 -12.65 -9.85 -13.8 -0.9 -11.2 1.55 -2.55 2.25 0.45 2.0 3.75 L1.95 3.85 0.45 3.75 Q-3.9 4.2 -7.85 1.75 L-7.85 1.3 -8.0 1.55 -8.0 1.6 -7.8 2.15 Q-7.2 4.3 -5.45 6.3 L-4.3 7.35 -4.25 15.6 -5.35 15.75 Q-7.1 17.0 -9.65 17.85 L-11.6 18.1 -12.5 17.55 -12.6 17.4 -12.6 17.3 Q-13.15 16.15 -14.15 15.55 L-15.75 14.75 -17.85 14.55 -19.2 14.25 -19.3 14.35 -19.2 14.45 -19.15 14.5 Q-17.2 16.55 -14.55 18.2 L-14.15 18.4 -16.3 19.8 -27.1 23.85 M-12.0 9.1 L-13.55 7.45 -12.0 9.1" fill="#f99735" fill-rule="evenodd" stroke="none"/>
    <path d="M-28.6 20.8 Q-28.95 19.4 -28.9 17.65 L-28.55 14.6 -27.9 15.0 -27.25 15.4 -27.05 15.4 Q-25.05 16.15 -23.8 14.65 L-23.5 14.3 -23.05 13.4 -22.95 13.45 -22.05 13.75 -21.75 13.8 Q-20.6 13.85 -19.95 12.6 L-19.75 12.1 -19.55 11.35 -19.55 11.25 -18.65 11.0 -18.4 10.9 Q-17.15 10.25 -17.4 8.65 L-17.55 8.0 -17.85 7.15 -17.4 6.45 -17.15 5.8 Q-16.85 4.65 -17.65 3.8 L-18.05 3.35 -18.05 3.4 -18.65 2.85 -18.75 2.8 -18.8 2.75 -18.65 1.85 -18.7 1.4 -19.7 -0.55 -19.85 -0.85 -20.4 -1.2 -21.35 -1.8 -19.15 -5.3 -16.9 -8.35 -15.3 -8.1 Q-15.45 -6.75 -16.3 -5.6 -17.6 -2.15 -16.0 1.5 -14.75 4.85 -13.1 7.65 L-13.55 7.45 Q-15.25 5.45 -16.45 3.05 -15.25 5.45 -13.55 7.45 -15.0 6.65 -15.75 4.55 L-16.45 3.05 -16.6 2.9 -17.8 0.05 -18.75 -2.5 -19.35 -1.6 Q-18.75 -1.2 -18.3 -0.15 L-17.85 1.65 -17.85 2.15 -16.5 4.4 Q-16.5 6.0 -16.85 7.0 L-16.65 7.65 -16.5 8.85 Q-16.5 11.9 -18.45 12.15 -18.65 13.3 -19.4 14.25 -20.35 15.45 -21.6 15.45 L-22.7 15.2 -23.1 15.75 Q-24.2 17.1 -24.95 17.1 -26.75 17.1 -27.55 16.5 L-28.6 20.8 M-8.0 1.55 L-7.85 1.3 -7.85 1.75 Q-3.9 4.2 0.45 3.75 L1.95 3.85 2.1 3.85 Q2.25 5.1 1.35 6.45 L0.2 7.9 Q-2.3 8.75 -4.3 7.35 L-7.8 2.15 -4.3 7.35 -5.45 6.3 Q-7.2 4.3 -7.8 2.15 L-7.85 1.75 -8.0 1.6 -8.0 1.55 M-19.15 -5.3 L-18.95 -4.15 -18.6 -2.65 -17.8 0.05 -18.6 -2.65 -18.95 -4.15 -19.15 -5.3 M-18.05 3.35 L-18.65 2.85 -18.05 3.35 M-14.0 18.3 L-14.55 18.2 Q-17.2 16.55 -19.15 14.5 L-19.2 14.45 -19.3 14.35 -19.2 14.25 -17.85 14.55 -15.75 14.75 -14.15 15.55 Q-13.15 16.15 -12.6 17.3 L-12.6 17.4 Q-12.85 18.35 -14.0 18.3" fill="#fcaf63" fill-rule="evenodd" stroke="none"/>
    <path d="M-7.85 1.75 L-7.8 2.15 -8.0 1.6 -7.85 1.75 M-14.55 18.2 L-14.0 18.3 -14.15 18.4 -14.55 18.2" fill="#e98103" fill-rule="evenodd" stroke="none"/>
    <path d="M3.8 -24.45 L4.15 -23.45 Q4.8 -21.45 4.4 -18.9 4.25 -17.7 4.6 -16.1 4.85 -14.7 5.5 -13.0 L5.9 -12.1 6.35 -10.4 6.55 -8.15 Q7.6 -7.5 8.35 -8.85 L8.65 -8.8 9.25 -8.95 Q9.8 -9.15 10.25 -9.85 L10.6 -10.25 11.25 -11.6 11.4 -11.95 M8.7 -8.5 L8.65 -8.8 M8.7 -8.5 Q8.95 -7.5 10.4 -6.6 L10.85 -6.75 12.35 -6.4 13.6 -6.0 14.95 -5.7 19.7 -5.35 Q22.45 -5.8 24.7 -5.3 L25.7 -4.95 M4.0 13.9 Q7.05 15.05 10.4 14.7 M-1.1 -14.9 Q-0.15 -13.55 2.7 -10.95 L3.0 -10.7 Q5.6 -8.45 6.55 -8.15 M16.1 0.45 L13.7 -1.9 Q11.65 -3.9 10.85 -5.1 L10.75 -5.15 Q10.0 -6.3 10.4 -6.6 M-4.3 7.35 Q-0.5 12.2 4.0 13.9 M2.45 16.6 L6.5 17.4 M-6.4 21.9 L-3.6 22.6 M-13.55 7.45 L-12.0 9.1 M-17.8 0.05 L-18.6 -2.65 -18.95 -4.15 -19.15 -5.3 M-7.8 2.15 L-4.3 7.35 M-7.8 2.15 L-8.0 1.6 -8.0 1.55 M-17.8 0.05 L-16.6 2.9 -16.45 3.05 Q-15.25 5.45 -13.55 7.45 M-14.55 18.2 L-14.15 18.4 Q-12.0 19.75 -9.35 20.8 L-6.4 21.9 M-19.3 14.35 L-19.2 14.45 -19.15 14.5 Q-17.2 16.55 -14.55 18.2 M2.45 16.6 L-1.0 15.6" ffdec:has-small-stroke="true" ffdec:original-stroke-width="0.25" fill="none" stroke="#100f07" stroke-linecap="round" stroke-linejoin="round" stroke-opacity="0.5137255" stroke-width="1.0"/>
    <path d="M11.4 -11.95 L12.05 -13.95 Q13.6 -19.5 13.55 -21.6 13.5 -23.7 11.9 -25.1 10.55 -26.3 8.85 -26.45 L8.05 -26.5 Q5.75 -26.4 4.15 -24.9 L3.8 -24.45 Q3.05 -25.75 1.5 -26.55 L-0.55 -27.15 -2.65 -26.95 -4.3 -26.2 Q-5.3 -25.55 -5.95 -24.5 L-6.2 -24.15 -6.55 -23.0 -6.65 -21.8 -6.45 -20.55 -6.1 -19.85 -4.4 -17.8 -2.85 -16.35 -1.1 -14.9 -2.8 -14.95 Q-6.65 -15.05 -9.85 -13.8 -12.75 -12.65 -15.0 -10.4 L-16.9 -8.35 -19.15 -5.3 -21.35 -1.8 -20.4 -1.2 -19.7 -0.55 -18.7 1.4 -18.65 1.85 -18.8 2.75 -18.75 2.8 -18.65 2.85 -18.05 3.35 -17.65 3.8 Q-16.85 4.65 -17.15 5.8 L-17.4 6.45 -17.85 7.15 -17.55 8.0 -17.4 8.65 Q-17.15 10.25 -18.4 10.9 L-18.65 11.0 -19.55 11.25 -19.55 11.35 -19.75 12.1 -19.95 12.6 Q-20.6 13.85 -21.75 13.8 L-22.05 13.75 -22.95 13.45 -23.05 13.4 -23.5 14.3 -23.8 14.65 Q-25.05 16.15 -27.05 15.4 L-27.9 15.0 -28.55 14.6 -28.9 17.65 Q-28.95 19.4 -28.6 20.8 -28.15 22.5 -27.1 23.85 L-26.35 24.7 Q-24.25 26.8 -20.75 27.15 -15.45 27.65 -7.15 24.15 L-7.0 24.1 -6.1 23.7 -3.6 22.6 Q2.45 19.9 6.5 17.4 L10.4 14.7 11.9 13.4 Q16.75 8.7 16.25 1.85 L16.1 0.45 16.85 1.1 Q18.2 2.35 19.3 3.2 21.05 4.45 22.0 4.65 24.15 5.1 26.15 4.0 28.1 2.85 28.7 0.8 L28.9 -0.35 Q28.9 -1.75 28.05 -3.0 27.2 -4.35 25.7 -4.95 L26.2 -5.4 Q27.75 -6.95 27.65 -9.05 27.6 -11.15 26.0 -12.6 24.45 -14.0 22.15 -13.95 19.9 -13.85 13.95 -12.2 L11.4 -11.95 Z" fill="none" stroke="#100f07" stroke-linecap="round" stroke-linejoin="round" stroke-opacity="0.5137255" stroke-width="1.5"/>
  </g>
</svg>
