<?xml version="1.0" encoding="UTF-8" standalone="no"?>
<svg xmlns:ffdec="https://www.free-decompiler.com/flash" xmlns:xlink="http://www.w3.org/1999/xlink" ffdec:objectType="shape" height="73.75px" width="57.7px" xmlns="http://www.w3.org/2000/svg">
  <g transform="matrix(1.0, 0.0, 0.0, 1.0, 28.85, 36.85)">
    <path d="M10.35 -28.15 L10.35 -23.95 10.35 -23.15 10.35 -22.1 10.35 -20.5 10.35 -19.6 Q9.75 -19.4 9.2 -19.6 L9.2 -20.5 9.2 -22.05 9.2 -23.15 9.2 -23.95 9.2 -36.25 10.35 -36.3 10.35 -35.6 10.35 -28.15" fill="#99491a" fill-rule="evenodd" stroke="none"/>
    <path d="M10.35 -35.6 L15.0 -34.3 11.7 -28.65 10.35 -28.15 10.35 -35.6 M17.9 -33.35 L22.3 -31.7 15.7 -30.0 17.9 -33.35" fill="url(#gradient0)" fill-rule="evenodd" stroke="none"/>
    <path d="M10.35 -23.95 Q14.35 -23.85 17.3 -22.4 L19.3 -21.05 Q20.1 -20.25 20.25 -19.3 L20.3 -19.2 20.35 -18.75 20.3 -17.9 20.65 -17.75 Q24.75 -15.7 25.1 -12.85 L25.1 -12.35 25.1 -11.9 24.55 -10.25 23.65 -9.05 23.2 -8.6 22.6 -8.15 20.65 -7.0 20.55 -6.95 20.4 -6.85 19.25 -6.35 17.9 -5.85 15.95 -5.35 9.9 -4.75 Q4.4 -4.75 0.3 -6.45 L0.25 -6.5 3.15 -9.15 Q3.8 -8.85 4.5 -8.6 6.9 -7.9 9.95 -7.85 L11.6 -7.9 12.3 -8.0 15.35 -8.6 17.2 -9.35 17.3 -9.4 Q18.6 -10.05 19.35 -10.8 L19.85 -11.45 19.95 -11.6 20.35 -13.05 20.3 -13.25 20.3 -14.35 20.3 -17.9 19.95 -17.3 19.35 -16.45 18.65 -15.9 17.5 -15.2 15.75 -16.05 16.85 -16.7 17.35 -17.15 17.85 -17.8 18.15 -18.3 18.2 -19.0 18.15 -19.35 18.15 -19.45 Q18.0 -20.15 17.45 -20.75 16.8 -21.4 15.75 -21.9 13.45 -23.05 10.35 -23.15 L10.35 -23.95 M23.05 -1.85 L24.6 -0.05 25.1 1.5 25.1 1.95 25.1 2.3 25.1 2.4 Q24.9 5.35 20.65 7.45 16.2 9.65 9.9 9.65 L9.0 9.65 7.75 9.6 5.65 9.4 5.6 9.4 4.05 9.1 1.75 8.5 3.95 5.95 1.2 8.3 1.15 8.3 -0.85 7.45 -2.3 6.6 0.55 5.2 3.35 3.75 4.5 4.2 5.6 4.5 9.95 4.95 15.35 4.2 17.2 3.45 17.3 3.4 19.35 2.0 19.85 1.3 19.95 1.2 20.35 -0.2 20.65 -0.35 23.05 -1.85 M-5.25 -11.75 L-5.3 -12.35 -5.25 -12.95 Q-5.1 -14.25 -4.1 -15.35 -3.0 -16.65 -0.85 -17.75 L-0.4 -17.95 -0.4 -14.7 -0.45 -13.5 -0.45 -13.05 -0.45 -12.8 -0.1 -11.6 0.0 -11.5 0.3 -11.05 0.55 -10.8 0.6 -10.75 1.45 -10.05 1.55 -10.0 -2.2 -7.75 -3.75 -8.95 -3.8 -9.05 -4.65 -10.05 -4.75 -10.25 -5.25 -11.75 M-0.4 -18.25 L-0.45 -19.15 Q-0.3 -20.05 0.35 -20.8 L0.45 -20.95 Q1.2 -21.75 2.6 -22.4 5.35 -23.8 9.2 -23.95 L9.2 -23.15 Q6.2 -23.05 4.0 -21.9 L3.9 -21.85 2.3 -20.75 2.15 -20.55 Q1.65 -20.0 1.6 -19.3 L1.6 -18.55 1.65 -18.35 1.85 -17.8 2.15 -17.4 2.35 -17.15 2.9 -16.7 3.1 -16.55 3.85 -16.1 4.0 -16.05 4.05 -16.0 Q6.45 -14.85 9.85 -14.8 13.05 -14.85 15.35 -15.85 L16.55 -14.75 Q14.7 -13.95 12.45 -13.7 L11.5 -13.6 9.95 -13.55 Q5.7 -13.55 2.65 -15.05 L2.6 -15.05 2.4 -15.15 Q1.8 -15.45 1.35 -15.8 L1.2 -15.9 0.55 -16.45 0.3 -16.75 -0.1 -17.3 -0.35 -17.95 -0.35 -18.0 -0.4 -18.25 M5.3 -17.55 L5.05 -17.7 4.7 -18.0 4.55 -18.15 4.35 -18.5 4.2 -18.85 4.15 -19.0 4.15 -19.5 4.45 -20.25 4.65 -20.45 5.65 -21.15 5.8 -21.25 Q7.25 -22.0 9.2 -22.05 L9.2 -20.5 8.3 -20.25 8.15 -20.15 7.9 -19.95 7.75 -19.8 7.7 -19.6 7.7 -19.35 7.75 -19.2 7.85 -19.1 7.9 -19.05 8.05 -18.95 8.15 -18.85 8.25 -18.8 8.3 -18.75 9.75 -18.5 11.05 -18.7 13.65 -17.15 11.05 -18.7 11.2 -18.75 11.25 -18.75 11.5 -18.95 11.6 -19.05 11.75 -19.2 11.8 -19.35 11.8 -19.5 11.8 -19.6 11.7 -19.85 15.05 -20.35 15.45 -19.55 15.5 -19.25 15.45 -18.8 15.25 -18.5 14.95 -18.0 14.55 -17.7 13.8 -17.25 13.65 -17.15 Q12.0 -16.45 9.8 -16.45 7.5 -16.45 5.85 -17.25 L5.8 -17.25 5.7 -17.3 5.3 -17.55 M0.35 -20.8 L2.15 -20.55 0.35 -20.8 M2.6 -22.4 L3.9 -21.85 2.6 -22.4 M5.65 -21.15 L8.15 -20.15 5.65 -21.15 M10.35 -22.1 Q12.35 -22.0 13.8 -21.25 L15.05 -20.35 11.7 -19.85 11.25 -20.25 10.35 -20.5 10.35 -22.1 M19.3 -21.05 L17.45 -20.75 19.3 -21.05 M3.1 -16.55 L1.35 -15.8 3.1 -16.55 M-3.75 -8.95 L0.6 -10.75 -3.75 -8.95 M-4.1 -15.35 L-0.4 -14.7 -4.1 -15.35" fill="url(#gradient1)" fill-rule="evenodd" stroke="none"/>
    <path d="M25.1 -11.9 L25.1 -5.65 Q25.1 -4.6 24.55 -3.6 L23.45 -2.25 23.05 -1.85 20.65 -0.35 20.35 -0.2 17.1 1.0 17.9 -5.85 19.25 -6.35 19.8 -1.3 20.4 -6.85 20.55 -6.95 20.65 -7.0 22.6 -8.15 23.2 -8.6 23.65 -9.05 24.55 -10.25 25.1 -11.9 M25.1 2.4 L25.05 22.15 25.2 23.25 Q25.2 24.3 24.7 25.25 L24.05 12.95 23.6 26.7 23.3 26.95 20.85 28.55 20.6 19.05 23.0 16.7 22.75 12.25 22.0 10.75 20.9 11.7 20.35 14.25 20.1 12.35 Q16.05 15.25 11.7 15.7 L12.45 22.45 Q15.8 22.1 18.7 20.4 L17.7 29.8 14.35 30.55 13.8 24.25 13.05 30.7 10.0 30.85 Q3.7 30.85 -0.75 28.6 -5.2 26.4 -5.2 23.25 L-5.15 22.8 -5.2 8.1 -2.3 6.6 -0.85 7.45 1.15 8.3 1.15 16.75 1.75 8.5 4.05 9.1 4.45 17.35 5.65 9.4 7.75 9.6 8.25 27.95 9.0 9.65 9.9 9.65 Q16.2 9.65 20.65 7.45 24.9 5.35 25.1 2.4 M-3.3 -1.9 L-4.75 -3.6 -4.9 -3.9 -5.25 -5.2 -5.3 -5.4 -5.3 -6.05 -5.25 -11.75 -4.75 -10.25 -4.65 -10.05 -3.8 -9.05 -3.75 -8.95 -2.2 -7.75 -0.85 -7.0 -0.7 -6.95 0.25 -6.5 0.3 -6.45 Q4.4 -4.75 9.9 -4.75 L15.95 -5.35 16.1 1.25 9.9 1.9 5.6 1.6 3.95 1.3 Q1.6 0.8 -0.35 -0.1 L-0.85 -0.35 -1.75 -0.85 -3.3 -1.9 M-0.4 -17.95 L-0.35 -17.95 -0.1 -17.3 0.3 -16.75 0.55 -16.45 1.2 -15.9 1.35 -15.8 Q1.8 -15.45 2.4 -15.15 L2.6 -15.05 2.65 -15.05 Q5.7 -13.55 9.95 -13.55 L11.5 -13.6 11.6 -7.9 9.95 -7.85 Q6.9 -7.9 4.5 -8.6 3.8 -8.85 3.15 -9.15 L2.65 -9.35 2.6 -9.4 1.55 -10.0 1.45 -10.05 0.6 -10.75 0.55 -10.8 0.3 -11.05 0.0 -11.5 -0.1 -11.6 -0.45 -12.8 -0.45 -13.5 -0.4 -14.7 -0.4 -17.95 M17.5 -15.2 L18.65 -15.9 19.35 -16.45 19.95 -17.3 20.3 -17.9 20.3 -14.35 20.3 -13.25 20.35 -13.05 19.95 -11.6 19.85 -11.45 19.35 -10.8 Q18.6 -10.05 17.3 -9.4 L17.2 -9.35 15.35 -8.6 12.3 -8.0 12.45 -13.7 Q14.7 -13.95 16.55 -14.75 L17.0 -11.95 17.5 -15.2" fill="url(#gradient2)" fill-rule="evenodd" stroke="none"/>
    <path d="M9.2 -22.05 Q7.25 -22.0 5.8 -21.25 L5.65 -21.15 4.65 -20.45 4.45 -20.25 4.15 -19.5 4.15 -19.0 4.2 -18.85 4.35 -18.5 4.55 -18.15 4.7 -18.0 5.05 -17.7 5.3 -17.55 3.1 -16.55 5.3 -17.55 5.7 -17.3 5.8 -17.25 5.85 -17.25 Q7.5 -16.45 9.8 -16.45 12.0 -16.45 13.65 -17.15 L13.8 -17.25 14.55 -17.7 14.95 -18.0 15.25 -18.5 15.45 -18.8 15.5 -19.25 15.45 -19.55 15.05 -20.35 13.8 -21.25 Q12.35 -22.0 10.35 -22.1 L10.35 -23.15 Q13.45 -23.05 15.75 -21.9 16.8 -21.4 17.45 -20.75 18.0 -20.15 18.15 -19.45 L18.15 -19.35 18.2 -19.0 18.15 -18.3 17.85 -17.8 17.35 -17.15 16.85 -16.7 15.75 -16.05 14.5 -16.65 15.35 -15.85 Q13.05 -14.85 9.85 -14.8 6.45 -14.85 4.05 -16.0 L4.0 -16.05 3.85 -16.1 3.1 -16.55 2.9 -16.7 2.35 -17.15 2.15 -17.4 1.85 -17.8 1.65 -18.35 1.6 -18.55 1.6 -19.3 Q1.65 -20.0 2.15 -20.55 L2.3 -20.75 3.9 -21.85 4.0 -21.9 Q6.2 -23.05 9.2 -23.15 L9.2 -22.05 M11.05 -18.7 L9.75 -18.5 8.3 -18.75 8.25 -18.8 8.15 -18.85 8.05 -18.95 7.9 -19.05 7.85 -19.1 7.75 -19.2 7.7 -19.35 7.7 -19.6 7.75 -19.8 7.9 -19.95 8.15 -20.15 8.3 -20.25 9.2 -20.5 9.2 -19.6 Q9.75 -19.4 10.35 -19.6 L10.35 -20.5 11.25 -20.25 11.7 -19.85 11.8 -19.6 11.8 -19.5 11.8 -19.35 11.75 -19.2 11.6 -19.05 11.5 -18.95 11.25 -18.75 11.2 -18.75 11.05 -18.7" fill="url(#gradient3)" fill-rule="evenodd" stroke="none"/>
    <path d="M15.0 -34.3 L17.9 -33.35 15.7 -30.0 11.7 -28.65 15.0 -34.3" fill="#ffffff" fill-rule="evenodd" stroke="none"/>
    <path d="M17.5 -15.2 L17.0 -11.95 16.55 -14.75 15.35 -15.85 14.5 -16.65 15.75 -16.05 17.5 -15.2" fill="url(#gradient4)" fill-rule="evenodd" stroke="none"/>
    <path d="M19.25 -6.35 L20.4 -6.85 19.8 -1.3 19.25 -6.35 M17.9 -5.85 L17.1 1.0 16.1 1.25 15.95 -5.35 17.9 -5.85" fill="url(#gradient5)" fill-rule="evenodd" stroke="none"/>
    <path d="M17.1 1.0 L20.35 -0.2 19.95 1.2 19.85 1.3 19.35 2.0 17.3 3.4 17.2 3.45 15.35 4.2 9.95 4.95 5.6 4.5 4.5 4.2 3.35 3.75 Q4.35 3.25 3.95 1.3 L5.6 1.6 9.9 1.9 16.1 1.25 17.1 1.0" fill="url(#gradient6)" fill-rule="evenodd" stroke="none"/>
    <path d="M18.7 20.4 Q15.8 22.1 12.45 22.45 L11.7 15.7 Q16.05 15.25 20.1 12.35 L20.35 14.25 20.9 11.7 22.0 10.75 22.75 12.25 23.0 16.7 20.6 19.05 20.05 19.45 18.95 20.25 18.7 20.4 M17.85 18.55 Q17.6 18.8 17.65 19.15 17.6 19.5 17.85 19.75 L18.35 20.05 18.8 19.75 19.0 19.15 18.8 18.55 18.35 18.25 17.85 18.55 M19.0 15.45 L19.0 14.75 Q18.15 14.05 17.65 14.6 17.15 15.2 17.2 15.8 17.2 16.4 17.5 17.05 17.7 17.75 18.05 17.75 L18.75 17.05 19.0 15.45" fill="#ffffcc" fill-rule="evenodd" stroke="none"/>
    <path d="M19.0 15.45 L18.75 17.05 18.05 17.75 Q17.7 17.75 17.5 17.05 17.2 16.4 17.2 15.8 17.15 15.2 17.65 14.6 18.15 14.05 19.0 14.75 L19.0 15.45 M17.85 18.55 L18.35 18.25 18.8 18.55 19.0 19.15 18.8 19.75 18.35 20.05 17.85 19.75 Q17.6 19.5 17.65 19.15 17.6 18.8 17.85 18.55" fill="#ff0000" fill-rule="evenodd" stroke="none"/>
    <path d="M18.7 20.4 L18.95 20.25 19.7 27.4 19.7 26.95 20.05 19.45 20.6 19.05 20.85 28.55 20.75 28.6 19.9 29.0 17.7 29.8 18.7 20.4 M23.6 26.7 L24.05 12.95 24.7 25.25 23.6 26.7 M14.35 30.55 L13.05 30.7 13.8 24.25 14.35 30.55" fill="url(#gradient7)" fill-rule="evenodd" stroke="none"/>
    <path d="M25.05 22.15 L26.25 23.05 Q27.3 23.95 27.85 25.0 28.35 25.95 28.45 26.95 L28.45 27.45 Q28.45 31.2 23.15 33.85 17.85 36.5 10.4 36.5 2.9 36.5 -2.4 33.85 -7.7 31.2 -7.7 27.45 -7.7 26.3 -7.2 25.25 L-6.4 24.0 -5.15 22.8 -5.2 23.25 Q-5.2 26.4 -0.75 28.6 3.7 30.85 10.0 30.85 L13.05 30.7 14.35 30.55 17.7 29.8 19.9 29.0 20.75 28.6 20.85 28.55 23.3 26.95 23.6 26.7 24.6 26.95 Q25.8 27.4 26.55 28.45 L26.1 26.95 Q25.6 26.0 24.7 25.25 25.2 24.3 25.2 23.25 L25.05 22.15" fill="url(#gradient8)" fill-rule="evenodd" stroke="none"/>
    <path d="M18.95 20.25 L20.05 19.45 19.7 26.95 19.7 27.4 18.95 20.25" fill="url(#gradient9)" fill-rule="evenodd" stroke="none"/>
    <path d="M24.7 25.25 Q25.6 26.0 26.1 26.95 L26.55 28.45 Q25.8 27.4 24.6 26.95 L23.6 26.7 24.7 25.25" fill="url(#gradient10)" fill-rule="evenodd" stroke="none"/>
    <path d="M11.6 -7.9 L11.5 -13.6 12.45 -13.7 12.3 -8.0 11.6 -7.9" fill="url(#gradient11)" fill-rule="evenodd" stroke="none"/>
    <path d="M1.55 -10.0 L2.6 -9.4 2.65 -9.35 3.15 -9.15 0.25 -6.5 -0.7 -6.95 -0.85 -7.0 -2.2 -7.75 1.55 -10.0" fill="url(#gradient12)" fill-rule="evenodd" stroke="none"/>
    <path d="M-5.2 0.95 L-4.8 -0.1 Q-4.35 -1.05 -3.3 -1.9 L-1.75 -0.85 -5.2 0.95" fill="url(#gradient13)" fill-rule="evenodd" stroke="none"/>
    <path d="M3.95 1.3 Q4.35 3.25 3.35 3.75 L0.55 5.2 Q2.2 1.65 -1.75 -0.85 L-0.85 -0.35 -0.35 -0.1 Q1.6 0.8 3.95 1.3" fill="url(#gradient14)" fill-rule="evenodd" stroke="none"/>
    <path d="M-5.2 8.1 L-6.1 8.55 -6.2 8.6 -6.1 8.5 -5.65 7.95 Q-5.2 7.3 -5.2 5.9 -5.2 4.5 -6.0 3.55 -6.8 2.6 -7.3 2.45 -7.6 2.3 -7.95 2.45 L-5.2 0.95 -1.75 -0.85 Q2.2 1.65 0.55 5.2 L-2.3 6.6 -5.2 8.1 M-7.0 8.7 L-7.2 8.95 -7.55 9.3 -11.1 11.05 Q-11.15 10.25 -10.75 9.9 -10.15 9.1 -10.8 8.4 -11.85 7.25 -11.95 5.7 L-12.4 4.75 -9.45 3.2 -8.95 3.15 Q-8.75 3.15 -8.55 3.3 L-7.95 3.6 -7.55 3.4 Q-6.95 3.6 -6.5 4.15 -5.95 4.9 -5.9 6.0 -5.85 7.1 -6.3 7.65 L-6.7 7.9 -7.0 8.7" fill="url(#gradient15)" fill-rule="evenodd" stroke="none"/>
    <path d="M-11.1 11.05 L-10.9 12.15 Q-10.35 13.05 -10.9 13.6 L-11.75 13.7 Q-11.35 11.3 -12.15 9.7 L-13.15 7.95 Q-13.9 6.3 -15.25 6.2 L-15.25 6.15 Q-15.2 5.0 -14.5 4.05 -13.15 3.7 -12.4 4.75 L-11.95 5.7 Q-11.85 7.25 -10.8 8.4 -10.15 9.1 -10.75 9.9 -11.15 10.25 -11.1 11.05 M-24.8 18.4 Q-25.65 18.1 -25.45 17.1 -23.0 15.6 -21.05 13.15 L-21.35 12.55 -21.4 12.55 -21.65 11.7 -21.75 10.75 -21.65 11.7 Q-24.8 13.15 -28.1 14.05 -28.8 13.4 -28.05 12.3 -24.9 11.8 -21.75 10.75 L-21.75 10.35 -21.7 9.4 -28.35 9.1 -28.4 9.1 Q-28.65 7.7 -27.45 6.5 -24.15 8.1 -20.05 8.2 L-19.95 8.2 Q-20.1 10.35 -17.15 10.6 -18.75 9.75 -18.9 9.05 L-19.15 7.95 -19.2 7.6 -19.2 7.45 Q-19.15 7.2 -19.65 6.8 -20.25 6.25 -20.55 4.7 -20.9 3.15 -20.25 2.6 L-19.05 2.65 -17.8 4.3 Q-17.1 5.3 -15.6 6.0 L-15.25 6.2 Q-14.5 6.7 -14.0 8.0 -14.1 12.05 -16.3 13.5 -17.0 15.65 -19.7 14.75 L-20.45 13.95 -21.05 13.15 -20.45 13.95 Q-22.2 16.5 -24.8 18.4" fill="#feeecd" fill-rule="evenodd" stroke="none"/>
    <path d="M-6.2 8.6 L-6.25 8.65 -6.35 8.65 -6.55 8.75 -6.6 8.75 -7.0 8.7 -6.7 7.9 -6.3 7.65 Q-5.85 7.1 -5.9 6.0 -5.95 4.9 -6.5 4.15 -6.95 3.6 -7.55 3.4 L-7.95 3.6 -8.55 3.3 Q-8.55 2.75 -7.95 2.45 -7.6 2.3 -7.3 2.45 -6.8 2.6 -6.0 3.55 -5.2 4.5 -5.2 5.9 -5.2 7.3 -5.65 7.95 L-6.1 8.5 -6.2 8.6" fill="url(#gradient16)" fill-rule="evenodd" stroke="none"/>
    <path d="M-11.75 13.7 Q-12.8 13.45 -13.7 12.7 -14.05 13.55 -14.75 14.2 -15.8 15.6 -17.5 16.3 -18.4 17.85 -18.8 19.65 -19.9 19.75 -20.5 19.3 L-20.85 19.0 Q-19.7 17.15 -19.3 15.05 L-19.7 14.75 Q-21.5 16.75 -23.9 18.5 L-24.8 18.4 Q-22.2 16.5 -20.45 13.95 L-19.7 14.75 Q-17.0 15.65 -16.3 13.5 -14.1 12.05 -14.0 8.0 -14.5 6.7 -15.25 6.2 -13.9 6.3 -13.15 7.95 L-12.15 9.7 Q-11.35 11.3 -11.75 13.7 M-21.4 12.55 L-27.05 14.55 -28.1 14.05 Q-24.8 13.15 -21.65 11.7 L-21.4 12.55 M-21.75 10.35 Q-25.1 10.15 -28.35 9.1 L-21.7 9.4 -21.75 10.35 M-19.95 8.2 L-19.9 8.2 -19.2 7.6 -19.15 7.95 -18.9 9.05 Q-18.75 9.75 -17.15 10.6 -20.1 10.35 -19.95 8.2 M-13.6 12.35 L-13.75 12.7 -13.7 12.7 -13.6 12.35 Q-13.45 11.7 -13.45 10.95 L-13.55 9.65 Q-13.7 8.7 -14.0 8.0 -13.7 8.7 -13.55 9.65 L-13.45 10.95 Q-13.45 11.7 -13.6 12.35 L-13.7 12.7 -13.75 12.7 -13.6 12.35 M-18.2 15.75 L-18.6 15.5 -19.3 15.05 -18.6 15.5 -18.2 15.75" fill="#fde0a6" fill-rule="evenodd" stroke="none"/>
    <path d="M7.75 9.6 L9.0 9.65 8.25 27.95 7.75 9.6" fill="url(#gradient17)" fill-rule="evenodd" stroke="none"/>
    <path d="M1.15 8.3 L1.2 8.3 3.95 5.95 1.75 8.5 1.15 16.75 1.15 8.3" fill="url(#gradient18)" fill-rule="evenodd" stroke="none"/>
    <path d="M4.05 9.1 L5.6 9.4 5.65 9.4 4.45 17.35 4.05 9.1" fill="url(#gradient19)" fill-rule="evenodd" stroke="none"/>
    <path d="M10.35 -35.6 L15.0 -34.3 17.9 -33.35 22.3 -31.7 15.7 -30.0 11.7 -28.65 10.35 -28.15 10.35 -23.95 M9.2 -23.95 L9.2 -36.25 10.35 -36.3 10.35 -35.6" ffdec:has-small-stroke="true" ffdec:original-stroke-width="0.8" fill="none" stroke="#666666" stroke-linecap="round" stroke-linejoin="round" stroke-width="1.0"/>
    <path d="M10.35 -23.95 Q14.35 -23.85 17.3 -22.4 L19.3 -21.05 Q20.1 -20.25 20.25 -19.3 L20.3 -19.2 20.35 -18.75 20.3 -17.9 20.65 -17.75 Q24.75 -15.7 25.1 -12.85 L25.1 -12.35 25.1 -11.9 25.1 -5.65 Q25.1 -4.6 24.55 -3.6 L23.45 -2.25 23.05 -1.85 24.6 -0.05 25.1 1.5 25.1 1.95 M25.1 2.4 L25.05 22.15 26.25 23.05 Q27.3 23.95 27.85 25.0 28.35 25.95 28.45 26.95 L28.45 27.45 Q28.45 31.2 23.15 33.85 17.85 36.5 10.4 36.5 2.9 36.5 -2.4 33.85 -7.7 31.2 -7.7 27.45 -7.7 26.3 -7.2 25.25 L-6.4 24.0 -5.15 22.8 -5.2 8.1 -6.1 8.55 -6.2 8.6 -6.25 8.65 -6.35 8.65 -6.55 8.75 -6.6 8.75 -7.0 8.7 -7.2 8.95 -7.55 9.3 -11.1 11.05 M-12.4 4.75 L-9.45 3.2 -8.95 3.15 Q-8.75 3.15 -8.55 3.3 -8.55 2.75 -7.95 2.45 L-5.2 0.95 -4.8 -0.1 Q-4.35 -1.05 -3.3 -1.9 L-4.75 -3.6 -4.9 -3.9 -5.25 -5.2 -5.3 -5.4 -5.3 -5.7 -5.3 -6.05 -5.25 -11.75 -5.3 -12.35 -5.25 -12.95 Q-5.1 -14.25 -4.1 -15.35 -3.0 -16.65 -0.85 -17.75 L-0.4 -17.95 M-0.4 -18.25 L-0.45 -19.15 Q-0.3 -20.05 0.35 -20.8 L0.45 -20.95 Q1.2 -21.75 2.6 -22.4 5.35 -23.8 9.2 -23.95" ffdec:has-small-stroke="true" ffdec:original-stroke-width="0.8" fill="none" stroke="#333333" stroke-linecap="round" stroke-linejoin="round" stroke-width="1.0"/>
    <path d="M25.1 2.3 L25.1 2.4 M-0.4 -17.95 L-0.4 -18.25 -0.35 -18.0 -0.4 -17.95 M-0.35 -17.95 L-0.35 -18.0 M-0.45 -13.5 L-0.45 -12.8 M20.3 -14.35 L20.3 -13.25 M17.1 1.0 L20.35 -0.2 20.65 -0.35 23.05 -1.85 M3.35 3.75 L4.5 4.2 5.6 4.5 9.95 4.95 15.35 4.2 17.2 3.45 17.3 3.4 19.35 2.0 19.85 1.3 19.95 1.2 20.35 -0.2 M17.1 1.0 L16.1 1.25 9.9 1.9 5.6 1.6 3.95 1.3 Q4.35 3.25 3.35 3.75 L0.55 5.2 -2.3 6.6 -5.2 8.1 M1.15 8.3 L1.2 8.3 M-1.75 -0.85 L-3.3 -1.9 M3.95 1.3 Q1.6 0.8 -0.35 -0.1 L-0.85 -0.35 -1.75 -0.85 M-5.3 -6.05 L-5.3 -5.4 M-7.95 3.6 L-8.55 3.3 M-6.3 7.65 Q-5.85 7.1 -5.9 6.0 -5.95 4.9 -6.5 4.15 -6.95 3.6 -7.55 3.4 M-6.7 7.9 L-7.0 8.7" ffdec:has-small-stroke="true" ffdec:original-stroke-width="0.05" fill="none" stroke="#643409" stroke-linecap="round" stroke-linejoin="round" stroke-width="1.0"/>
    <path d="M3.1 -16.55 L5.3 -17.55 M13.65 -17.15 L11.05 -18.7 M8.15 -20.15 L5.65 -21.15 M3.9 -21.85 L2.6 -22.4 M2.15 -20.55 L0.35 -20.8 M11.7 -19.85 L15.05 -20.35 M17.45 -20.75 L19.3 -21.05 M1.35 -15.8 L3.1 -16.55 M-0.4 -14.7 L-4.1 -15.35 M0.6 -10.75 L-3.75 -8.95" ffdec:has-small-stroke="true" ffdec:original-stroke-width="0.05" fill="none" stroke="#925801" stroke-linecap="round" stroke-linejoin="round" stroke-width="1.0"/>
    <path d="M9.2 -22.05 L9.2 -23.15 9.2 -23.95 M10.35 -23.15 L10.35 -22.1 10.35 -20.5 10.35 -19.6 Q9.75 -19.4 9.2 -19.6 L9.2 -20.5 9.2 -22.05 M10.35 -23.95 L10.35 -23.15" ffdec:has-small-stroke="true" ffdec:original-stroke-width="0.05" fill="none" stroke="#666666" stroke-linecap="round" stroke-linejoin="round" stroke-width="1.0"/>
    <path d="M25.1 1.95 L25.1 2.3 M-7.55 3.4 L-7.95 3.6 M-6.7 7.9 L-6.3 7.65" ffdec:has-small-stroke="true" ffdec:original-stroke-width="0.05" fill="none" stroke="#000000" stroke-linecap="round" stroke-linejoin="round" stroke-width="1.0"/>
    <path d="M-0.4 -17.95 L-0.4 -14.7 -0.45 -13.5 -0.45 -13.05 -0.45 -12.8 M20.3 -17.9 L20.3 -14.35" ffdec:has-small-stroke="true" ffdec:original-stroke-width="0.05" fill="none" stroke="#88470d" stroke-linecap="round" stroke-linejoin="round" stroke-width="1.0"/>
    <path d="M-11.1 11.05 L-10.9 12.15 Q-10.35 13.05 -10.9 13.6 L-11.75 13.7 Q-12.8 13.45 -13.7 12.7 -14.05 13.55 -14.75 14.2 -15.8 15.6 -17.5 16.3 -18.4 17.85 -18.8 19.65 -19.9 19.75 -20.5 19.3 L-20.85 19.0 Q-19.7 17.15 -19.3 15.05 L-19.7 14.75 Q-21.5 16.75 -23.9 18.5 L-24.8 18.4 Q-25.65 18.1 -25.45 17.1 -23.0 15.6 -21.05 13.15 L-21.35 12.55 M-21.4 12.55 L-27.05 14.55 -28.1 14.05 Q-28.8 13.4 -28.05 12.3 -24.9 11.8 -21.75 10.75 L-21.75 10.35 Q-25.1 10.15 -28.35 9.1 L-28.4 9.1 Q-28.65 7.7 -27.45 6.5 -24.15 8.1 -20.05 8.2 L-19.95 8.2 M-19.9 8.2 L-19.2 7.6 -19.2 7.45 Q-19.15 7.2 -19.65 6.8 -20.25 6.25 -20.55 4.7 -20.9 3.15 -20.25 2.6 L-19.05 2.65 -17.8 4.3 Q-17.1 5.3 -15.6 6.0 L-15.25 6.2 M-15.25 6.15 Q-15.2 5.0 -14.5 4.05 -13.15 3.7 -12.4 4.75" ffdec:has-small-stroke="true" ffdec:original-stroke-width="0.8" fill="none" stroke="#9f722d" stroke-linecap="round" stroke-linejoin="round" stroke-width="1.0"/>
    <path d="M-21.35 12.55 L-21.4 12.55 -21.65 11.7 -21.75 10.75 M-19.95 8.2 L-19.9 8.2 M-15.25 6.2 L-15.25 6.15 M-12.4 4.75 L-11.95 5.7 Q-11.85 7.25 -10.8 8.4 -10.15 9.1 -10.75 9.9 -11.15 10.25 -11.1 11.05 M-14.0 8.0 Q-13.7 8.7 -13.55 9.65 L-13.45 10.95 Q-13.45 11.7 -13.6 12.35 L-13.7 12.7 -13.75 12.7 -13.6 12.35 M-19.2 7.6 L-19.15 7.95 -18.9 9.05 Q-18.75 9.75 -17.15 10.6 M-21.7 9.4 L-21.75 10.35 M-20.45 13.95 L-19.7 14.75 M-14.0 8.0 Q-14.5 6.7 -15.25 6.2 M-19.3 15.05 L-18.6 15.5 -18.2 15.75 M-21.05 13.15 L-20.45 13.95" ffdec:has-small-stroke="true" ffdec:original-stroke-width="0.05" fill="none" stroke="#9f722d" stroke-linecap="round" stroke-linejoin="round" stroke-width="1.0"/>
  </g>
  <defs>
    <linearGradient gradientTransform="matrix(0.005, -6.0E-4, 5.0E-4, 0.0045, 15.85, -32.55)" gradientUnits="userSpaceOnUse" id="gradient0" spreadMethod="pad" x1="-819.2" x2="819.2">
      <stop offset="0.0" stop-color="#ff3300"/>
      <stop offset="1.0" stop-color="#d22c02"/>
    </linearGradient>
    <linearGradient gradientTransform="matrix(0.0, -0.0149, 0.0186, 0.0, 9.9, -4.9)" gradientUnits="userSpaceOnUse" id="gradient1" spreadMethod="pad" x1="-819.2" x2="819.2">
      <stop offset="0.0" stop-color="#941010"/>
      <stop offset="1.0" stop-color="#b61212"/>
    </linearGradient>
    <linearGradient gradientTransform="matrix(-6.0E-4, -0.0232, 0.0191, -5.0E-4, 10.0, 8.25)" gradientUnits="userSpaceOnUse" id="gradient2" spreadMethod="pad" x1="-819.2" x2="819.2">
      <stop offset="0.0" stop-color="#410101"/>
      <stop offset="1.0" stop-color="#941010"/>
    </linearGradient>
    <linearGradient gradientTransform="matrix(0.001, -0.0039, 0.0096, 0.0025, 9.9, -18.9)" gradientUnits="userSpaceOnUse" id="gradient3" spreadMethod="pad" x1="-819.2" x2="819.2">
      <stop offset="0.0" stop-color="#000000"/>
      <stop offset="1.0" stop-color="#410101"/>
    </linearGradient>
    <linearGradient gradientTransform="matrix(0.0018, 0.0, 0.0, 0.0029, 16.0, -14.3)" gradientUnits="userSpaceOnUse" id="gradient4" spreadMethod="pad" x1="-819.2" x2="819.2">
      <stop offset="0.0" stop-color="#000000"/>
      <stop offset="1.0" stop-color="#410101"/>
    </linearGradient>
    <linearGradient gradientTransform="matrix(0.0, 0.0018, -0.0027, 0.0, 18.15, -3.55)" gradientUnits="userSpaceOnUse" id="gradient5" spreadMethod="pad" x1="-819.2" x2="819.2">
      <stop offset="0.0" stop-color="#000000"/>
      <stop offset="1.0" stop-color="#410101"/>
    </linearGradient>
    <linearGradient gradientTransform="matrix(0.0104, 0.0, 0.0, 0.0031, 11.85, 2.35)" gradientUnits="userSpaceOnUse" id="gradient6" spreadMethod="pad" x1="-819.2" x2="819.2">
      <stop offset="0.0" stop-color="#000000"/>
      <stop offset="1.0" stop-color="#410101"/>
    </linearGradient>
    <linearGradient gradientTransform="matrix(9.0E-4, -0.0062, 0.008, 0.0012, 20.55, 23.85)" gradientUnits="userSpaceOnUse" id="gradient7" spreadMethod="pad" x1="-819.2" x2="819.2">
      <stop offset="0.0" stop-color="#000000"/>
      <stop offset="1.0" stop-color="#410101"/>
    </linearGradient>
    <linearGradient gradientTransform="matrix(0.0109, -0.004, 0.0042, 0.0116, 12.85, 27.0)" gradientUnits="userSpaceOnUse" id="gradient8" spreadMethod="pad" x1="-819.2" x2="819.2">
      <stop offset="0.0" stop-color="#410101"/>
      <stop offset="1.0" stop-color="#941010"/>
    </linearGradient>
    <linearGradient gradientTransform="matrix(7.0E-4, 0.0, 0.0, 0.0049, 19.5, 23.4)" gradientUnits="userSpaceOnUse" id="gradient9" spreadMethod="pad" x1="-819.2" x2="819.2">
      <stop offset="0.0" stop-color="#410101"/>
      <stop offset="1.0" stop-color="#941010"/>
    </linearGradient>
    <linearGradient gradientTransform="matrix(0.0018, 0.0, 0.0, 0.002, 25.05, 26.85)" gradientUnits="userSpaceOnUse" id="gradient10" spreadMethod="pad" x1="-819.2" x2="819.2">
      <stop offset="0.0" stop-color="#000000"/>
      <stop offset="1.0" stop-color="#410101"/>
    </linearGradient>
    <linearGradient gradientTransform="matrix(0.0, 0.0016, -6.0E-4, 0.0, 11.95, -11.3)" gradientUnits="userSpaceOnUse" id="gradient11" spreadMethod="pad" x1="-819.2" x2="819.2">
      <stop offset="0.0" stop-color="#000000"/>
      <stop offset="1.0" stop-color="#410101"/>
    </linearGradient>
    <linearGradient gradientTransform="matrix(0.0011, -0.0011, 0.0012, 0.0012, 0.55, -8.5)" gradientUnits="userSpaceOnUse" id="gradient12" spreadMethod="pad" x1="-819.2" x2="819.2">
      <stop offset="0.0" stop-color="#000000"/>
      <stop offset="1.0" stop-color="#410101"/>
    </linearGradient>
    <linearGradient gradientTransform="matrix(0.0021, 0.0, 0.0, 0.0017, -3.5, -0.5)" gradientUnits="userSpaceOnUse" id="gradient13" spreadMethod="pad" x1="-819.2" x2="819.2">
      <stop offset="0.0" stop-color="#941010"/>
      <stop offset="1.0" stop-color="#b61212"/>
    </linearGradient>
    <linearGradient gradientTransform="matrix(7.0E-4, 0.0012, -0.0026, 0.0015, 1.85, 2.6)" gradientUnits="userSpaceOnUse" id="gradient14" spreadMethod="pad" x1="-819.2" x2="819.2">
      <stop offset="0.0" stop-color="#000000"/>
      <stop offset="1.0" stop-color="#410101"/>
    </linearGradient>
    <linearGradient gradientTransform="matrix(-8.0E-4, -0.0031, 0.01, -0.0027, -3.9, 5.0)" gradientUnits="userSpaceOnUse" id="gradient15" spreadMethod="pad" x1="-819.2" x2="819.2">
      <stop offset="0.0" stop-color="#410101"/>
      <stop offset="1.0" stop-color="#941010"/>
    </linearGradient>
    <linearGradient gradientTransform="matrix(0.002, 0.0, 0.0, 0.0039, -6.9, 5.55)" gradientUnits="userSpaceOnUse" id="gradient16" spreadMethod="pad" x1="-819.2" x2="819.2">
      <stop offset="0.0" stop-color="#000000"/>
      <stop offset="1.0" stop-color="#410101"/>
    </linearGradient>
    <linearGradient gradientTransform="matrix(0.0, 0.0032, -8.0E-4, 0.0, 8.4, 13.5)" gradientUnits="userSpaceOnUse" id="gradient17" spreadMethod="pad" x1="-819.2" x2="819.2">
      <stop offset="0.0" stop-color="#000000"/>
      <stop offset="1.0" stop-color="#410101"/>
    </linearGradient>
    <linearGradient gradientTransform="matrix(0.0017, 0.0, 0.0, 0.0066, 2.55, 11.35)" gradientUnits="userSpaceOnUse" id="gradient18" spreadMethod="pad" x1="-819.2" x2="819.2">
      <stop offset="0.0" stop-color="#000000"/>
      <stop offset="1.0" stop-color="#410101"/>
    </linearGradient>
    <linearGradient gradientTransform="matrix(0.0, 0.0022, -0.001, 0.0, 4.85, 11.95)" gradientUnits="userSpaceOnUse" id="gradient19" spreadMethod="pad" x1="-819.2" x2="819.2">
      <stop offset="0.0" stop-color="#000000"/>
      <stop offset="1.0" stop-color="#410101"/>
    </linearGradient>
  </defs>
</svg>
