<?xml version="1.0" encoding="UTF-8" standalone="no"?>
<svg xmlns:ffdec="https://www.free-decompiler.com/flash" xmlns:xlink="http://www.w3.org/1999/xlink" ffdec:objectType="shape" height="173.95px" width="118.15px" xmlns="http://www.w3.org/2000/svg">
  <g transform="matrix(1.0, 0.0, 0.0, 1.0, 59.05, 86.95)">
    <path d="M15.45 -82.4 L15.3 -82.1 6.9 -71.9 16.3 -70.4 4.6 -55.35 11.25 -54.25 -0.2 -44.2 -6.15 -39.05 -7.45 -38.5 -9.05 -37.8 8.6 -52.5 0.8 -53.75 12.5 -68.85 3.15 -70.35 11.7 -80.8 -5.2 -84.9 -1.7 -86.45 15.45 -82.4" fill="#ffff00" fill-rule="evenodd" stroke="none"/>
    <path d="M20.0 -18.4 Q19.05 -19.45 17.4 -19.6 L17.0 -19.6 15.05 -19.35 Q13.6 -19.0 12.15 -18.0 L11.6 -17.65 Q9.85 -16.4 8.6 -14.75 7.65 -13.55 7.0 -12.1 5.4 -8.8 6.2 -6.25 6.6 -4.8 7.75 -4.05 6.6 -4.8 6.2 -6.25 5.4 -8.8 7.0 -12.1 7.65 -13.55 8.6 -14.75 9.85 -16.4 11.6 -17.65 L12.15 -18.0 Q13.6 -19.0 15.05 -19.35 L17.0 -19.6 17.4 -19.6 Q19.05 -19.45 20.0 -18.4 L20.05 -18.4 20.9 -16.85 Q21.2 -16.05 21.15 -15.05 L21.0 -15.2 Q20.2 -15.9 18.95 -16.0 17.15 -16.2 15.1 -14.95 L14.3 -14.4 12.15 -12.45 10.55 -9.9 Q9.25 -7.25 9.9 -5.2 10.2 -4.15 11.0 -3.55 10.2 -4.15 9.9 -5.2 9.25 -7.25 10.55 -9.9 L12.15 -12.45 14.3 -14.4 15.1 -14.95 Q17.15 -16.2 18.95 -16.0 20.2 -15.9 21.0 -15.2 L21.15 -15.05 Q21.6 -14.6 21.85 -13.8 22.4 -11.8 21.1 -9.05 L20.4 -7.75 20.3 -7.65 18.2 -9.45 17.95 -9.4 Q16.15 -9.0 16.25 -7.15 L18.4 -5.4 18.75 -5.1 21.1 -3.05 21.2 -3.05 22.7 -3.0 22.6 -1.95 22.55 -1.5 21.95 0.5 Q21.55 1.7 20.55 3.0 19.1 4.8 17.45 4.9 L17.45 4.85 17.35 4.9 17.35 4.95 Q16.05 5.9 14.8 5.95 L14.4 5.9 14.45 5.5 14.55 3.8 15.75 3.25 15.75 -1.5 15.05 -1.85 15.05 -3.3 12.7 -2.95 12.0 -3.05 Q11.4 -3.25 11.0 -3.55 L9.6 -3.5 8.2 -3.8 7.75 -4.05 6.3 -4.05 Q4.35 -4.2 3.3 -5.35 L2.6 -6.35 2.25 -7.25 Q1.65 -9.15 2.15 -11.35 L2.45 -12.45 3.2 -14.25 Q5.0 -18.15 8.45 -20.7 L8.7 -20.85 Q10.4 -22.1 12.05 -22.65 13.5 -23.2 14.95 -23.2 L15.55 -23.15 17.0 -22.85 18.05 -22.35 Q19.2 -21.55 19.75 -19.95 L20.0 -18.4 M-15.05 -31.7 L-15.0 -29.55 -15.0 -28.65 -14.85 -19.65 -15.95 -19.2 -15.45 -14.05 -14.8 -13.7 -14.8 -13.0 Q-15.95 -13.6 -16.85 -14.9 L-17.6 -14.95 Q-18.8 -15.35 -19.7 -16.65 L-19.8 -16.75 -19.85 -16.7 Q-21.4 -17.25 -22.3 -19.35 -22.95 -20.85 -23.05 -22.1 L-23.15 -24.15 -23.1 -24.6 Q-22.85 -26.95 -21.8 -28.25 L-21.55 -28.5 -21.6 -28.55 -21.5 -28.6 -21.3 -28.7 -21.3 -28.75 Q-20.7 -29.3 -20.0 -29.35 L-19.95 -29.1 Q-21.45 -27.35 -21.6 -24.1 -21.8 -20.95 -20.6 -18.25 L-19.8 -16.75 -20.6 -18.25 Q-21.8 -20.95 -21.6 -24.1 -21.45 -27.35 -19.95 -29.1 L-19.75 -29.35 -19.5 -29.65 Q-18.35 -30.8 -16.9 -30.4 L-16.35 -31.0 Q-15.75 -31.5 -15.05 -31.7 M-16.9 -30.4 L-17.1 -30.15 Q-18.9 -27.9 -19.1 -23.95 -19.35 -20.05 -17.9 -16.75 L-16.85 -14.9 -17.9 -16.75 Q-19.35 -20.05 -19.1 -23.95 -18.9 -27.9 -17.1 -30.15 L-16.9 -30.4 M-14.8 -6.35 L-12.65 -6.85 Q-10.05 -6.9 -7.3 -5.15 L-7.25 -5.1 -5.9 -4.2 Q-2.45 -1.35 -0.75 2.75 L-0.6 3.15 -0.3 4.0 -0.05 4.85 Q0.5 7.3 -0.05 9.3 L-0.2 9.8 Q-1.35 12.7 -4.5 12.85 L-5.95 12.75 Q-4.85 12.1 -4.3 10.65 -3.35 8.15 -4.7 4.7 -5.95 1.85 -8.15 -0.25 L-9.05 -1.05 -10.9 -2.35 Q-12.85 -3.4 -14.7 -3.35 L-14.8 -3.35 Q-16.45 -3.25 -17.45 -2.25 -16.45 -3.25 -14.8 -3.35 L-14.7 -3.35 Q-12.85 -3.4 -10.9 -2.35 L-9.05 -1.05 -8.15 -0.25 Q-5.95 1.85 -4.7 4.7 -3.35 8.15 -4.3 10.65 -4.85 12.1 -5.95 12.75 L-7.9 13.2 -9.25 13.1 Q-8.5 12.55 -8.1 11.5 -7.3 9.45 -8.45 6.75 L-9.2 5.2 Q-10.25 3.4 -11.9 2.0 -13.35 0.9 -14.6 0.5 L-14.85 0.45 -16.5 0.2 Q-17.95 0.25 -18.8 1.05 -17.95 0.25 -16.5 0.2 L-14.85 0.45 -14.6 0.5 Q-13.35 0.9 -11.9 2.0 -10.25 3.4 -9.2 5.2 L-8.45 6.75 Q-7.3 9.45 -8.1 11.5 -8.5 12.55 -9.25 13.1 -9.95 13.55 -10.95 13.6 L-11.0 13.6 Q-12.95 13.65 -15.0 12.2 L-15.6 11.75 -16.6 10.85 -14.35 9.25 Q-14.2 8.0 -14.9 7.35 -15.4 6.95 -16.15 6.8 L-18.4 8.55 -19.1 7.1 -19.8 4.55 Q-19.95 3.25 -19.55 2.25 L-18.8 1.05 Q-18.8 0.05 -18.4 -0.75 -18.1 -1.7 -17.45 -2.25 L-17.05 -3.8 Q-16.65 -4.95 -15.85 -5.65 L-15.8 -5.7 -14.8 -6.35 M18.75 -5.1 L18.5 -2.4 Q17.75 1.45 15.55 4.3 L14.45 5.5 15.55 4.3 Q17.75 1.45 18.5 -2.4 L18.75 -5.1 M18.4 -5.4 L17.35 -4.6 15.05 -3.3 17.35 -4.6 18.4 -5.4 M21.2 -3.05 L21.0 -1.85 Q20.4 1.3 18.6 3.6 L17.45 4.85 18.6 3.6 Q20.4 1.3 21.0 -1.85 L21.2 -3.05" fill="#9a2a0f" fill-rule="evenodd" stroke="none"/>
    <path d="M-5.2 -84.9 L11.7 -80.8 3.15 -70.35 12.5 -68.85 0.8 -53.75 8.6 -52.5 -9.05 -37.8 -9.6 -37.25 -6.55 -42.8 -2.2 -50.7 -8.95 -51.8 -1.55 -65.6 -10.0 -68.15 -5.5 -84.7 -5.2 -84.9" fill="#e0a901" fill-rule="evenodd" stroke="none"/>
    <path d="M-21.3 -28.75 L-21.3 -28.7 -21.5 -28.6 -21.3 -28.75 M-19.85 -16.7 L-19.8 -16.75 -19.7 -16.65 -19.85 -16.7 M-19.95 -29.1 L-20.0 -29.35 -19.75 -29.35 -19.95 -29.1" fill="url(#gradient0)" fill-rule="evenodd" stroke="none"/>
    <path d="M2.45 -12.45 L2.15 -11.35 1.15 -10.9 -14.5 -18.5 -15.95 -19.2 -14.85 -19.65 1.1 -12.0 2.45 -12.5 2.45 -12.45 M-23.1 -24.6 L-23.15 -24.15 -23.05 -22.1 -25.15 -22.25 Q-26.45 -22.45 -26.4 -23.6 -26.35 -24.8 -25.05 -24.6 L-23.1 -24.6 M-14.5 -18.5 L-14.5 -18.55 -14.5 -18.5 M-0.3 4.0 L-0.3 3.95 1.2 4.6 15.0 -1.9 15.05 -1.85 15.75 -1.5 1.2 5.35 -0.05 4.85 -0.3 4.0 M-18.4 8.55 L-16.15 6.8 Q-15.4 6.95 -14.9 7.35 -14.2 8.0 -14.35 9.25 L-16.6 10.85 -19.5 13.1 Q-20.75 13.5 -21.55 12.8 -22.3 12.05 -21.5 10.85 L-18.4 8.55 M22.7 -3.0 L21.2 -3.05 21.1 -3.05 18.75 -5.1 18.4 -5.4 16.25 -7.15 Q16.15 -9.0 17.95 -9.4 L18.2 -9.45 20.3 -7.65 20.55 -7.45 22.05 -6.2 23.25 -5.2 Q23.9 -4.0 23.2 -3.25 L22.7 -3.0 M22.6 -1.95 L24.55 -1.35 Q25.85 -1.2 25.65 -0.05 25.35 1.1 24.0 0.95 L21.95 0.5 22.55 -1.5 22.6 -1.95" fill="#cccccc" fill-rule="evenodd" stroke="none"/>
    <path d="M-9.05 -37.8 L-7.45 -38.5 -6.15 -39.05 -7.4 -38.4 -9.6 -37.25 -9.05 -37.8 M-7.4 -38.4 L-7.45 -38.5 -7.4 -38.4 M-3.2 -30.65 L-3.15 -30.65 -3.2 -30.65 -2.15 -30.1 -3.15 -30.65 -3.45 -30.8 -6.2 -32.4 -3.45 -30.8 -3.2 -30.65" fill="url(#gradient1)" fill-rule="evenodd" stroke="none"/>
    <path d="M5.65 -30.95 L5.6 -30.95 5.65 -30.95" fill="url(#gradient2)" fill-rule="evenodd" stroke="none"/>
    <path d="M2.15 -11.35 Q1.65 -9.15 2.25 -7.25 L2.6 -6.35 1.2 -5.65 -14.8 -13.7 -15.45 -14.05 -15.95 -19.2 -14.5 -18.5 1.15 -10.9 2.15 -11.35 M-0.05 9.3 Q0.5 7.3 -0.05 4.85 L1.2 5.35 15.75 -1.5 15.75 3.25 14.55 3.8 1.2 10.1 1.15 10.1 -0.05 9.3" fill="#626262" fill-rule="evenodd" stroke="none"/>
    <path d="M3.05 28.1 L3.1 28.1 3.1 28.2 3.05 28.1" fill="url(#gradient3)" fill-rule="evenodd" stroke="none"/>
    <path d="M-31.05 66.2 L-30.05 66.7 -31.15 66.4 -31.2 66.35 -31.15 66.25 -31.05 66.2 M-31.15 66.4 L-31.15 66.25 -31.15 66.4 M31.4 52.45 L31.35 52.35 35.3 50.4 31.4 52.45 M28.25 37.75 L29.05 38.05 28.65 38.2 28.25 37.75 M29.85 39.6 L32.6 41.4 31.85 41.8 29.85 39.6" fill="url(#gradient4)" fill-rule="evenodd" stroke="none"/>
    <path d="M-5.75 56.85 L-4.75 55.0 -3.55 55.6 -5.75 56.85 M29.05 38.05 L29.0 38.6 28.65 38.2 29.05 38.05" fill="#7e5601" fill-rule="evenodd" stroke="none"/>
    <path d="M20.55 -7.45 L20.3 -7.65 20.4 -7.75 20.5 -7.5 20.55 -7.45" fill="url(#gradient5)" fill-rule="evenodd" stroke="none"/>
    <path d="M22.05 -6.2 L20.55 -7.45 20.5 -7.5 Q21.5 -7.25 22.05 -6.2" fill="url(#gradient6)" fill-rule="evenodd" stroke="none"/>
    <path d="M15.3 -82.1 L15.45 -82.4 M8.6 -52.5 L-9.05 -37.8 -7.45 -38.5 -6.15 -39.05 -0.2 -44.2 M-5.2 -84.9 L-5.5 -84.7 -5.45 -84.9 -5.2 -84.9 M-6.55 -42.8 L-9.6 -37.25 -9.05 -37.8" ffdec:has-small-stroke="true" ffdec:original-stroke-width="0.05" fill="none" stroke="#ebd018" stroke-linecap="round" stroke-linejoin="round" stroke-width="1.0"/>
    <path d="M14.95 -23.2 L14.5 -33.0 14.5 -35.25 Q6.8 -39.2 -0.2 -44.2 M-6.55 -42.8 L-15.25 -38.65 -15.05 -31.7 M-14.8 -13.0 L-14.8 -7.7 -14.8 -6.35 M14.5 22.25 Q13.8 14.4 14.4 5.9 M-15.0 12.2 L-15.25 21.0 Q-22.45 30.8 -30.75 39.45 -44.55 46.1 -58.55 52.45 M-58.5 52.45 L-58.5 56.4 -54.3 57.2 Q-51.1 58.1 -47.9 59.8 -46.65 60.5 -45.35 61.35 L-45.35 63.0 Q-43.05 64.75 -40.7 66.15 L-37.8 67.8 -35.5 68.85 -32.2 70.2 -28.25 71.3 -26.75 70.6 -26.55 72.35 -21.2 75.2 Q-18.3 76.4 -15.35 76.95 L-13.2 77.3 -13.3 78.5 0.1 85.05 M14.5 22.25 L28.25 37.75 M29.0 38.6 L29.85 39.6 32.6 41.4 35.6 43.1 38.45 44.5 Q40.95 45.65 43.4 46.35 L44.7 45.65 48.65 48.2 50.15 48.95 52.85 50.35 Q55.65 51.55 58.6 52.45 L58.6 56.4 50.9 60.2 53.45 61.35 53.45 64.05 Q51.35 66.35 48.65 67.6 L45.55 68.6 42.9 68.95 37.9 66.5 31.45 69.25 Q23.7 72.75 15.55 77.45 L18.5 78.75 18.5 81.45 Q16.0 83.95 13.05 85.2 L10.2 86.1 7.25 86.5 2.2 84.0 0.4 84.9" fill="none" stroke="#34230c" stroke-linecap="round" stroke-linejoin="round" stroke-width="1.0"/>
    <path d="M7.75 -4.05 Q6.6 -4.8 6.2 -6.25 5.4 -8.8 7.0 -12.1 7.65 -13.55 8.6 -14.75 9.85 -16.4 11.6 -17.65 L12.15 -18.0 Q13.6 -19.0 15.05 -19.35 L17.0 -19.6 17.4 -19.6 Q19.05 -19.45 20.0 -18.4 L20.05 -18.4 M14.95 -23.2 Q13.5 -23.2 12.05 -22.65 10.4 -22.1 8.7 -20.85 L8.45 -20.7 Q5.0 -18.15 3.2 -14.25 L2.45 -12.45 2.15 -11.35 Q1.65 -9.15 2.25 -7.25 L2.6 -6.35 3.3 -5.35 Q4.35 -4.2 6.3 -4.05 L7.75 -4.05 8.2 -3.8 9.6 -3.5 11.0 -3.55 Q10.2 -4.15 9.9 -5.2 9.25 -7.25 10.55 -9.9 L12.15 -12.45 14.3 -14.4 15.1 -14.95 Q17.15 -16.2 18.95 -16.0 20.2 -15.9 21.0 -15.2 L21.15 -15.05 M-14.85 -19.65 L1.1 -12.0 2.45 -12.5 2.45 -12.45 M-14.85 -19.65 L-15.95 -19.2 -15.45 -14.05 -14.8 -13.7 1.2 -5.65 2.6 -6.35 M-14.8 -6.35 L-12.65 -6.85 Q-10.05 -6.9 -7.3 -5.15 L-7.25 -5.1 -5.9 -4.2 Q-2.45 -1.35 -0.75 2.75 L-0.6 3.15 -0.3 4.0 -0.3 3.95 1.2 4.6 15.0 -1.9 15.05 -1.85 15.75 -1.5 15.75 3.25 14.55 3.8 1.2 10.1 1.15 10.1 -0.05 9.3 Q0.5 7.3 -0.05 4.85 L-0.3 4.0 M15.05 -3.3 L12.7 -2.95 12.0 -3.05 Q11.4 -3.25 11.0 -3.55 M-17.45 -2.25 Q-16.45 -3.25 -14.8 -3.35 L-14.7 -3.35 Q-12.85 -3.4 -10.9 -2.35 L-9.05 -1.05 -8.15 -0.25 Q-5.95 1.85 -4.7 4.7 -3.35 8.15 -4.3 10.65 -4.85 12.1 -5.95 12.75 L-4.5 12.85 Q-1.35 12.7 -0.2 9.8 L-0.05 9.3 M-18.8 1.05 Q-17.95 0.25 -16.5 0.2 L-14.85 0.45 -14.6 0.5 Q-13.35 0.9 -11.9 2.0 -10.25 3.4 -9.2 5.2 L-8.45 6.75 Q-7.3 9.45 -8.1 11.5 -8.5 12.55 -9.25 13.1 L-7.9 13.2 -5.95 12.75 M-16.6 10.85 L-14.35 9.25 Q-14.2 8.0 -14.9 7.35 -15.4 6.95 -16.15 6.8 L-18.4 8.55 M-15.0 12.2 Q-12.95 13.65 -11.0 13.6 L-10.95 13.6 Q-9.95 13.55 -9.25 13.1 M20.3 -7.65 L18.2 -9.45 17.95 -9.4 Q16.15 -9.0 16.25 -7.15 L18.4 -5.4 18.75 -5.1 21.1 -3.05 21.2 -3.05 22.7 -3.0 M20.55 -7.45 L20.3 -7.65 20.4 -7.75 M15.05 -3.3 L17.35 -4.6 18.4 -5.4" ffdec:has-small-stroke="true" ffdec:original-stroke-width="0.05" fill="none" stroke="#333333" stroke-linecap="round" stroke-linejoin="round" stroke-width="1.0"/>
    <path d="M20.0 -18.4 L19.75 -19.95 Q19.2 -21.55 18.05 -22.35 L17.0 -22.85 15.55 -23.15 14.95 -23.2 M21.15 -15.05 Q21.2 -16.05 20.9 -16.85 L20.05 -18.4 M-14.8 -6.35 L-15.8 -5.7 -15.85 -5.65 Q-16.65 -4.95 -17.05 -3.8 L-17.45 -2.25 Q-18.1 -1.7 -18.4 -0.75 -18.8 0.05 -18.8 1.05 L-19.55 2.25 Q-19.95 3.25 -19.8 4.55 L-19.1 7.1 -18.4 8.55 -21.5 10.85 Q-22.3 12.05 -21.55 12.8 -20.75 13.5 -19.5 13.1 L-16.6 10.85 -15.6 11.75 -15.0 12.2 M20.4 -7.75 L21.1 -9.05 Q22.4 -11.8 21.85 -13.8 21.6 -14.6 21.15 -15.05 M22.7 -3.0 L23.2 -3.25 Q23.9 -4.0 23.25 -5.2 L22.05 -6.2 20.55 -7.45" fill="none" stroke="#333333" stroke-linecap="round" stroke-linejoin="round" stroke-width="1.0"/>
    <path d="M15.45 -82.4 L-1.7 -86.45 -5.2 -84.9 M-0.2 -44.2 L11.25 -54.25 4.6 -55.35 16.3 -70.4 6.9 -71.9 15.3 -82.1 M-5.5 -84.7 L-10.0 -68.15 -1.55 -65.6 -8.95 -51.8 -2.2 -50.7 -6.55 -42.8" fill="none" stroke="#ebd018" stroke-linecap="round" stroke-linejoin="round" stroke-width="1.0"/>
    <path d="M-21.55 -28.5 L-21.8 -28.25 Q-22.85 -26.95 -23.1 -24.6 L-25.05 -24.6 Q-26.35 -24.8 -26.4 -23.6 -26.45 -22.45 -25.15 -22.25 L-23.05 -22.1 Q-22.95 -20.85 -22.3 -19.35 -21.4 -17.25 -19.85 -16.7 L-19.7 -16.65 Q-18.8 -15.35 -17.6 -14.95 L-16.85 -14.9 Q-15.95 -13.6 -14.8 -13.0 M-20.0 -29.35 Q-20.7 -29.3 -21.3 -28.75 L-21.5 -28.6 M-16.9 -30.4 Q-18.35 -30.8 -19.5 -29.65 L-19.75 -29.35 -20.0 -29.35 M-16.9 -30.4 L-16.35 -31.0 Q-15.75 -31.5 -15.05 -31.7 M17.35 4.95 Q16.05 5.9 14.8 5.95 L14.4 5.9 M21.95 0.5 Q21.55 1.7 20.55 3.0 19.1 4.8 17.45 4.9 M22.7 -3.0 L22.6 -1.95 24.55 -1.35 Q25.85 -1.2 25.65 -0.05 25.35 1.1 24.0 0.95 L21.95 0.5" fill="none" stroke="#463d39" stroke-linecap="round" stroke-linejoin="round" stroke-width="1.0"/>
    <path d="M-23.1 -24.6 L-23.15 -24.15 -23.05 -22.1 M-19.8 -16.75 L-20.6 -18.25 Q-21.8 -20.95 -21.6 -24.1 -21.45 -27.35 -19.95 -29.1 L-19.75 -29.35 M-16.85 -14.9 L-17.9 -16.75 Q-19.35 -20.05 -19.1 -23.95 -18.9 -27.9 -17.1 -30.15 L-16.9 -30.4 M-19.7 -16.65 L-19.8 -16.75 M20.4 -7.75 L20.5 -7.5 Q21.5 -7.25 22.05 -6.2 M20.5 -7.5 L20.55 -7.45 M14.45 5.5 L15.55 4.3 Q17.75 1.45 18.5 -2.4 L18.75 -5.1 M17.45 4.85 L17.35 4.9 17.45 4.9 M17.45 4.85 L18.6 3.6 Q20.4 1.3 21.0 -1.85 L21.2 -3.05 M17.35 4.9 L17.35 4.95 M21.95 0.5 L22.55 -1.5 22.6 -1.95" ffdec:has-small-stroke="true" ffdec:original-stroke-width="0.05" fill="none" stroke="#463d39" stroke-linecap="round" stroke-linejoin="round" stroke-width="1.0"/>
    <path d="M-15.05 -31.7 L-15.0 -29.55 -15.0 -28.65 -14.85 -19.65 M-3.45 -30.8 L-3.15 -30.65 M-14.8 -13.7 L-14.8 -13.0 M-10.1 23.65 L-5.8 25.8 -4.05 19.6 -1.25 20.75 -1.3 28.2 0.75 29.25 3.05 28.1 3.1 28.1 3.05 20.75 5.85 19.6 7.5 26.05 9.3 24.9 M13.85 22.65 L14.5 22.25 20.4 33.35 21.25 34.85 22.45 36.95 23.9 39.45 24.3 40.1 24.85 41.05 26.8 44.25 27.0 44.6 28.45 47.1 31.35 52.35 35.3 50.4 43.4 46.35 M14.4 5.9 L14.45 5.5 14.55 3.8 M-14.45 21.0 L-15.25 21.0 -19.45 30.1 -21.95 35.1 -23.5 38.1 -24.85 40.65 -26.7 44.0 -28.45 47.2 -28.8 47.85 -30.1 50.1 -31.1 51.8 -35.15 58.15 -38.2 62.45 -31.05 66.2 -30.05 66.7 -27.1 68.3 -23.0 70.45 -9.2 63.05 -5.75 56.85 -4.75 55.0 0.75 45.0 0.75 29.25 M-30.75 39.45 L-32.45 41.15 -26.7 44.0 M-5.8 25.8 L-6.15 27.1 -8.25 32.9 -8.95 34.5 -6.25 36.0 -5.9 35.25 -3.95 30.8 Q-2.9 27.9 -2.15 25.0 L-1.25 20.75 M3.1 28.2 L3.1 28.1 M3.1 28.2 L3.15 28.3 8.1 36.0 6.7 32.9 6.3 31.8 5.3 29.05 4.5 26.55 4.05 24.95 3.05 20.75 M8.1 36.0 L10.85 34.5 10.0 32.75 9.45 31.55 8.95 30.35 7.95 27.55 7.55 26.15 7.5 26.05 M-58.5 52.45 L-58.55 52.45 M-45.35 61.35 L-45.35 58.9 -45.4 58.85 -31.1 51.8 M0.75 45.0 L6.2 55.1 10.15 62.5 10.65 62.75 15.2 65.05 22.65 68.8 22.7 68.8 36.75 61.95 31.4 52.45 31.35 52.35 M28.25 37.75 L29.05 38.05 29.0 38.6 28.65 38.2 28.25 37.75 M0.4 84.9 L0.1 85.05 M-27.1 68.3 L-26.75 70.6 M-13.2 77.3 L-13.2 74.6 10.65 62.75 M-5.75 56.85 L-3.55 55.6 -4.75 55.0 M-3.55 55.6 L0.75 57.75 6.2 55.1 M-1.3 28.2 L-6.25 36.0 M31.85 41.8 L32.0 42.0 27.0 44.6 M53.45 61.35 L42.8 65.95 40.8 65.1 37.9 66.5 M50.9 60.2 L40.8 65.1 M31.85 41.8 L29.85 39.6 M18.5 78.75 L6.95 83.85 4.9 82.7 2.2 84.0 M15.55 77.45 L4.9 82.7" ffdec:has-small-stroke="true" ffdec:original-stroke-width="0.05" fill="none" stroke="#7d4922" stroke-linecap="round" stroke-linejoin="round" stroke-width="1.0"/>
    <path d="M-7.45 -38.5 L-7.4 -38.4 M-3.15 -30.65 L-3.2 -30.65 M15.05 -1.85 L15.05 -3.3 M10.65 16.65 L10.75 16.6" ffdec:has-small-stroke="true" ffdec:original-stroke-width="0.05" fill="none" stroke="#91653e" stroke-linecap="round" stroke-linejoin="round" stroke-width="1.0"/>
    <path d="M-14.45 21.0 L-12.8 14.95 -10.0 16.1 -10.05 23.55 -10.1 23.65 -15.0 31.35 -17.7 29.85 Q-15.75 25.5 -14.45 21.0 M9.3 24.9 L9.25 24.8 9.2 24.7 9.15 17.25 10.65 16.65 M10.75 16.6 L11.95 16.1 13.85 22.65 Q15.35 27.85 16.95 31.0 L14.2 32.5 13.45 30.55 Q10.9 23.9 9.15 17.25 M-15.0 31.35 Q-11.75 23.75 -10.0 16.1 M9.3 24.9 L14.2 32.5" ffdec:has-small-stroke="true" ffdec:original-stroke-width="0.05" fill="none" stroke="#7d4922" stroke-linecap="round" stroke-linejoin="round" stroke-width="1.0"/>
    <path d="M-31.15 66.25 L-31.05 66.2 M-31.15 66.25 L-31.15 66.4 M-39.9 62.45 L-40.15 62.7 M32.6 41.4 L31.85 41.8" ffdec:has-small-stroke="true" ffdec:original-stroke-width="0.05" fill="none" stroke="#a86a1e" stroke-linecap="round" stroke-linejoin="round" stroke-width="1.0"/>
    <path d="M35.6 43.1 L28.45 47.1" ffdec:has-small-stroke="true" ffdec:original-stroke-width="0.05" fill="none" stroke="#764913" stroke-linecap="round" stroke-linejoin="round" stroke-width="1.0"/>
  </g>
  <defs>
    <linearGradient gradientTransform="matrix(9.0E-4, -0.0053, 0.0045, 0.0012, -19.3, -23.85)" gradientUnits="userSpaceOnUse" id="gradient0" spreadMethod="pad" x1="-819.2" x2="819.2">
      <stop offset="0.0" stop-color="#912309"/>
      <stop offset="1.0" stop-color="#d35434"/>
      <stop offset="1.0" stop-color="#333366"/>
      <stop offset="1.0" stop-color="#333366"/>
      <stop offset="1.0" stop-color="#d4d0c8"/>
    </linearGradient>
    <linearGradient gradientTransform="matrix(0.0, -0.0439, 0.0457, 0.0, -0.75, 55.75)" gradientUnits="userSpaceOnUse" id="gradient1" spreadMethod="pad" x1="-819.2" x2="819.2">
      <stop offset="0.0" stop-color="#c68c02"/>
      <stop offset="1.0" stop-color="#eaa504"/>
      <stop offset="1.0" stop-color="#d4d0c8"/>
      <stop offset="1.0" stop-color="#d4d0c8"/>
    </linearGradient>
    <linearGradient gradientTransform="matrix(0.0, -0.0367, 0.0393, 0.0, -0.25, 24.0)" gradientUnits="userSpaceOnUse" id="gradient2" spreadMethod="pad" x1="-819.2" x2="819.2">
      <stop offset="0.0" stop-color="#865b01"/>
      <stop offset="1.0" stop-color="#a07001"/>
      <stop offset="1.0" stop-color="#d4d0c8"/>
      <stop offset="1.0" stop-color="#d4d0c8"/>
    </linearGradient>
    <linearGradient gradientTransform="matrix(0.022, 0.0, 0.0, 0.0284, 18.75, 45.5)" gradientUnits="userSpaceOnUse" id="gradient3" spreadMethod="pad" x1="-819.2" x2="819.2">
      <stop offset="0.0" stop-color="#c08202"/>
      <stop offset="1.0" stop-color="#cc9602"/>
      <stop offset="1.0" stop-color="#d4d0c8"/>
      <stop offset="1.0" stop-color="#d4d0c8"/>
    </linearGradient>
    <linearGradient gradientTransform="matrix(-0.0012, -0.0301, 0.0714, -0.0029, 0.1, 53.0)" gradientUnits="userSpaceOnUse" id="gradient4" spreadMethod="pad" x1="-819.2" x2="819.2">
      <stop offset="0.0" stop-color="#c08202"/>
      <stop offset="1.0" stop-color="#cc9602"/>
      <stop offset="1.0" stop-color="#d4d0c8"/>
      <stop offset="1.0" stop-color="#d4d0c8"/>
    </linearGradient>
    <linearGradient gradientTransform="matrix(7.0E-4, -0.0028, 0.0029, 8.0E-4, 18.65, -2.6)" gradientUnits="userSpaceOnUse" id="gradient5" spreadMethod="pad" x1="-819.2" x2="819.2">
      <stop offset="0.0" stop-color="#912309"/>
      <stop offset="1.0" stop-color="#d35434"/>
      <stop offset="1.0" stop-color="#333366"/>
      <stop offset="1.0" stop-color="#333366"/>
      <stop offset="1.0" stop-color="#d4d0c8"/>
    </linearGradient>
    <linearGradient gradientTransform="matrix(7.0E-4, -0.0027, 0.0021, 6.0E-4, 20.75, -1.7)" gradientUnits="userSpaceOnUse" id="gradient6" spreadMethod="pad" x1="-819.2" x2="819.2">
      <stop offset="0.0" stop-color="#912309"/>
      <stop offset="1.0" stop-color="#d35434"/>
      <stop offset="1.0" stop-color="#333366"/>
      <stop offset="1.0" stop-color="#333366"/>
      <stop offset="1.0" stop-color="#d4d0c8"/>
    </linearGradient>
  </defs>
</svg>
