<?xml version="1.0" encoding="UTF-8" standalone="no"?>
<svg xmlns:ffdec="https://www.free-decompiler.com/flash" xmlns:xlink="http://www.w3.org/1999/xlink" ffdec:objectType="shape" height="84.3px" width="191.05px" xmlns="http://www.w3.org/2000/svg">
  <g transform="matrix(1.0, 0.0, 0.0, 1.0, -178.8, -135.8)">
    <path d="M181.45 161.8 L181.1 172.7 181.3 173.15 183.95 177.3 Q206.55 184.25 228.25 189.2 L255.25 194.85 Q255.75 192.65 255.35 190.85 L185.1 170.65 184.85 170.4 181.45 161.8 M181.1 172.7 L181.3 173.15 181.1 172.7" fill="#4f485b" fill-rule="evenodd" stroke="none"/>
    <path d="M179.45 156.95 L181.45 161.8 184.85 170.4 185.1 170.65 255.35 190.85 Q255.15 189.25 254.05 187.9 220.55 176.5 186.95 168.55 181.9 160.25 183.25 153.4 180.7 153.95 179.45 156.95" fill="#33322e" fill-rule="evenodd" stroke="none"/>
    <path d="M179.45 156.95 Q178.7 159.2 178.85 162.75 178.95 168.1 181.1 172.7 L181.45 161.8 179.45 156.95" fill="#e1e0dc" fill-rule="evenodd" stroke="none"/>
    <path d="M181.1 172.7 Q178.95 168.1 178.85 162.75 178.7 159.2 179.45 156.95 180.7 153.95 183.25 153.4 181.9 160.25 186.95 168.55 220.55 176.5 254.05 187.9 255.15 189.25 255.35 190.85 255.75 192.65 255.25 194.85 L228.25 189.2 Q206.55 184.25 183.95 177.3 L181.3 173.15 181.1 172.7 Z" ffdec:has-small-stroke="true" ffdec:original-stroke-width="0.05" fill="none" stroke="#000000" stroke-linecap="round" stroke-linejoin="round" stroke-opacity="0.4" stroke-width="1.0"/>
    <path d="M242.15 177.2 L235.65 181.65 233.7 191.65 Q241.4 197.0 255.6 200.55 L252.5 191.85 Q247.2 188.55 241.9 185.4 L242.15 177.2" fill="#ffffff" fill-rule="evenodd" stroke="none"/>
    <path d="M255.85 200.55 Q273.45 201.45 285.25 199.0 L295.6 192.75 Q294.15 188.1 292.95 183.2 L272.0 173.4 243.35 176.3 242.15 177.2 241.9 185.4 Q247.2 188.55 252.5 191.85 L255.6 200.55 255.85 200.55" fill="#c3b3a3" fill-rule="evenodd" stroke="none"/>
    <path d="M255.85 200.55 Q273.45 201.45 285.25 199.0 L295.6 192.75 Q294.15 188.1 292.95 183.2 L272.0 173.4 243.35 176.3 242.15 177.2 235.65 181.65 233.7 191.65 Q241.4 197.0 255.6 200.55" ffdec:has-small-stroke="true" ffdec:original-stroke-width="0.05" fill="none" stroke="#000000" stroke-linecap="round" stroke-linejoin="round" stroke-opacity="0.4" stroke-width="1.0"/>
    <path d="M258.75 201.65 L261.2 201.95 264.55 202.0 273.0 194.35 268.15 194.5 258.75 201.65 M264.05 194.2 Q251.8 193.5 243.6 190.25 L241.2 196.65 243.35 197.8 Q247.95 199.65 253.0 200.65 L255.15 201.15 264.05 194.2 M241.45 189.35 L241.2 189.3 241.2 189.05 Q239.25 188.15 238.05 187.25 L235.9 193.4 239.05 195.5 241.45 189.35" fill="#ffcf2b" fill-rule="evenodd" stroke="none"/>
    <path d="M268.15 194.5 L265.5 194.25 264.05 194.2 255.15 201.15 258.75 201.65 268.15 194.5" fill="#a77700" fill-rule="evenodd" stroke="none"/>
    <path d="M243.6 190.25 L243.35 190.25 241.45 189.35 239.05 195.5 Q240.0 196.2 241.2 196.65 L243.6 190.25 M238.05 187.25 L237.35 186.8 Q235.9 185.65 235.4 184.3 L232.75 190.25 Q233.95 191.85 235.9 193.4 L238.05 187.25" fill="#ffffd7" fill-rule="evenodd" stroke="none"/>
    <path d="M264.55 202.0 Q285.75 201.7 292.25 197.2 L291.5 190.45 Q283.55 194.1 273.0 194.35 L264.55 202.0" fill="#7b4b00" fill-rule="evenodd" stroke="none"/>
    <path d="M264.55 202.0 Q285.75 201.7 292.25 197.2 L291.5 190.45 Q283.55 194.1 273.0 194.35" ffdec:has-small-stroke="true" ffdec:original-stroke-width="0.05" fill="none" stroke="#000000" stroke-linecap="round" stroke-linejoin="round" stroke-opacity="0.4" stroke-width="1.0"/>
    <path d="M258.75 201.65 L261.2 201.95 264.55 202.0 M273.0 194.35 L268.15 194.5 265.5 194.25 264.05 194.2 Q251.8 193.5 243.6 190.25 M243.35 190.25 L241.45 189.35 M241.2 189.3 L241.2 189.05 M241.2 196.65 L243.35 197.8 Q247.95 199.65 253.0 200.65 L255.15 201.15 258.75 201.65" ffdec:has-small-stroke="true" ffdec:original-stroke-width="0.05" fill="none" stroke="#000000" stroke-linecap="round" stroke-linejoin="round" stroke-opacity="0.4" stroke-width="1.0"/>
    <path d="M241.2 189.05 Q239.25 188.15 238.05 187.25 M237.35 186.8 Q235.9 185.65 235.4 184.3 L232.75 190.25 Q233.95 191.85 235.9 193.4 L239.05 195.5 Q240.0 196.2 241.2 196.65" ffdec:has-small-stroke="true" ffdec:original-stroke-width="0.05" fill="none" stroke="#000000" stroke-linecap="round" stroke-linejoin="round" stroke-opacity="0.4" stroke-width="1.0"/>
    <path d="M363.55 206.4 L360.05 213.1 354.85 212.2 322.05 203.05 285.1 195.95 Q284.2 197.65 284.3 200.15 322.1 212.2 361.9 220.1 368.15 216.6 369.55 208.65 370.85 200.7 366.1 197.35 366.35 197.55 366.15 197.8 L365.6 202.45 Q364.45 204.35 363.55 206.4 366.3 202.45 366.15 197.8 366.3 202.45 363.55 206.4" fill="#4f485b" fill-rule="evenodd" stroke="none"/>
    <path d="M285.1 195.95 L322.05 203.05 354.85 212.2 360.05 213.1 363.55 206.4 Q362.25 208.3 359.95 210.0 359.0 209.5 357.8 209.45 322.45 200.15 286.65 194.0 285.5 194.8 285.1 195.95" fill="#33322e" fill-rule="evenodd" stroke="none"/>
    <path d="M285.1 195.95 Q285.5 194.8 286.65 194.0 322.45 200.15 357.8 209.45 359.0 209.5 359.95 210.0 362.25 208.3 363.55 206.4 366.3 202.45 366.15 197.8 366.35 197.55 366.1 197.35 370.85 200.7 369.55 208.65 368.15 216.6 361.9 220.1 322.1 212.2 284.3 200.15 284.2 197.65 285.1 195.95 Z" ffdec:has-small-stroke="true" ffdec:original-stroke-width="0.05" fill="none" stroke="#000000" stroke-linecap="round" stroke-linejoin="round" stroke-opacity="0.4" stroke-width="1.0"/>
    <path d="M252.75 185.85 L246.25 188.5 245.3 192.5 245.75 198.3 247.95 202.55 250.1 203.2 251.05 202.75 248.2 199.0 248.65 192.95 249.15 192.5 252.75 185.85 M256.35 194.95 L256.35 194.55 251.3 193.65 250.85 195.65 252.05 197.0 256.35 194.95" fill="#ffcf2b" fill-rule="evenodd" stroke="none"/>
    <path d="M253.25 189.2 L249.15 192.5 248.65 192.95 248.2 199.0 251.05 202.75 257.1 199.0 256.35 194.95 252.05 197.0 250.85 195.65 251.3 193.65 253.25 189.2" fill="#d1a100" fill-rule="evenodd" stroke="none"/>
    <path d="M246.25 188.5 L245.3 188.75 242.65 193.2 Q243.6 197.4 244.8 201.45 L247.95 202.55 245.75 198.3 245.3 192.5 246.25 188.5" fill="#ffffd7" fill-rule="evenodd" stroke="none"/>
    <path d="M252.75 185.85 L264.55 172.95 Q265.5 169.6 262.4 165.6 L248.2 179.15 Q248.9 181.4 248.4 183.6 L245.3 188.75 246.25 188.5 252.75 185.85" fill="#b18100" fill-rule="evenodd" stroke="none"/>
    <path d="M262.4 165.6 Q265.5 169.6 264.55 172.95 L252.75 185.85 249.15 192.5 253.25 189.2 254.2 187.4 Q255.15 184.75 267.7 176.05 270.35 173.15 270.35 166.95 267.9 159.6 261.65 154.9 L245.3 152.25 240.95 158.25 Q240.45 158.9 240.25 159.6 251.8 158.9 262.4 165.6" fill="#dfaf0b" fill-rule="evenodd" stroke="none"/>
    <path d="M248.2 179.15 L262.4 165.6 Q251.8 158.9 240.25 159.6 238.8 163.35 240.45 169.8 246.75 174.7 248.2 179.15" fill="#714100" fill-rule="evenodd" stroke="none"/>
    <path d="M245.3 188.75 L248.4 183.6 Q248.9 181.4 248.2 179.15 246.75 174.7 240.45 169.8 238.8 163.35 240.25 159.6 240.45 158.9 240.95 158.25 L245.3 152.25 261.65 154.9 Q267.9 159.6 270.35 166.95 270.35 173.15 267.7 176.05 255.15 184.75 254.2 187.4 L253.25 189.2 251.3 193.65 256.35 194.55 256.35 194.95 257.1 199.0 251.05 202.75 250.1 203.2 247.95 202.55 244.8 201.45 Q243.6 197.4 242.65 193.2 L245.3 188.75 M250.85 195.65 L251.3 193.65" ffdec:has-small-stroke="true" ffdec:original-stroke-width="0.05" fill="none" stroke="#926030" stroke-linecap="round" stroke-linejoin="round" stroke-width="1.0"/>
    <path d="M247.95 147.8 Q247.7 147.55 246.95 147.8 L246.75 148.7 247.95 147.8 M235.9 166.7 L236.15 166.95 236.85 167.6 240.0 169.8 240.25 170.05 240.25 169.8 240.7 170.25 240.95 170.25 244.1 170.05 Q254.45 167.6 258.3 163.6 L259.0 162.5 256.6 162.95 252.25 162.7 Q250.35 162.25 249.85 161.6 249.6 160.9 250.85 160.25 252.25 159.6 254.7 159.35 L254.9 159.35 259.0 159.6 260.45 160.05 Q263.35 158.5 263.85 154.9 L262.15 153.8 262.6 153.15 Q267.7 149.55 269.6 151.35 267.2 148.7 260.2 150.45 L259.5 150.7 257.35 150.45 257.1 150.0 256.85 148.9 Q256.1 146.7 252.75 150.45 251.05 145.1 246.75 152.7 L246.75 148.7 Q242.65 150.9 240.45 157.15 236.15 155.8 234.2 160.25 L234.2 160.7 Q233.95 164.7 235.9 166.7 M254.9 159.35 Q250.85 156.25 245.75 159.6 250.85 156.25 254.9 159.35 M240.25 169.8 L240.0 169.8 240.25 169.8" fill="#ffcf2b" fill-rule="evenodd" stroke="none"/>
    <path d="M240.25 170.05 L240.7 170.25 240.25 169.8 240.25 170.05" fill="#d1a100" fill-rule="evenodd" stroke="none"/>
    <path d="M260.45 160.05 L259.0 159.6 254.9 159.35 254.7 159.35 Q252.25 159.6 250.85 160.25 249.6 160.9 249.85 161.6 250.35 162.25 252.25 162.7 L256.6 162.95 259.0 162.5 260.45 162.05 Q261.9 161.35 261.4 160.7 261.4 160.25 260.45 160.05" fill="#f40bae" fill-opacity="0.32156864" fill-rule="evenodd" stroke="none"/>
    <path d="M254.7 144.25 L254.9 142.45 255.4 140.65 248.2 147.55 254.7 144.25 M244.8 140.45 Q242.15 137.55 236.6 135.8 244.35 140.45 242.65 146.7 243.6 143.55 244.8 140.45 M237.35 152.45 Q236.6 152.9 235.9 153.6 L234.95 154.45 Q231.8 157.8 232.75 162.05 233.25 163.6 234.2 164.95 L235.9 166.7 Q233.95 164.7 234.2 160.7 L234.2 160.25 236.4 154.9 237.35 152.45 M234.95 154.45 L236.4 154.9 234.95 154.45" fill="#ffffd7" fill-rule="evenodd" stroke="none"/>
    <path d="M265.5 169.4 L266.0 168.95 Q268.65 166.95 268.9 165.35 269.6 163.35 267.7 159.6 266.7 157.15 263.85 154.9 263.35 158.5 260.45 160.05 261.4 160.25 261.4 160.7 261.9 161.35 260.45 162.05 L259.0 162.5 258.3 163.6 Q254.45 167.6 244.1 170.05 L245.3 170.05 257.8 169.15 258.55 168.95 260.2 168.95 Q259.95 168.7 259.5 168.5 L263.1 168.05 265.5 169.4" fill="#dfaf0b" fill-rule="evenodd" stroke="none"/>
    <path d="M254.7 172.95 Q260.2 172.7 264.05 170.05 264.8 169.6 265.5 169.4 L263.1 168.05 259.5 168.5 Q259.95 168.7 260.2 168.95 L258.55 168.95 254.7 172.95" fill="#b18100" fill-rule="evenodd" stroke="none"/>
    <path d="M256.85 148.9 Q256.85 148.0 257.35 147.35 258.05 145.55 261.4 144.45 256.6 144.0 253.45 147.35 L254.7 144.25 248.2 147.55 247.95 147.8 246.75 148.7 246.95 147.8 Q247.95 143.35 244.8 140.45 243.6 143.55 242.65 146.7 L242.15 147.8 241.9 148.7 240.45 151.15 Q240.0 151.15 239.5 151.6 L239.05 151.6 237.35 152.45 236.4 154.9 234.2 160.25 Q236.15 155.8 240.45 157.15 242.65 150.9 246.75 148.7 L246.75 152.7 Q251.05 145.1 252.75 150.45 256.1 146.7 256.85 148.9 M253.45 147.35 L253.25 147.35 Q252.75 148.9 252.75 150.45 252.75 148.9 253.25 147.35 L253.45 147.35 M240.45 157.15 Q239.5 155.6 236.4 154.9 239.5 155.6 240.45 157.15" fill="#ffe541" fill-rule="evenodd" stroke="none"/>
    <path d="M240.95 170.25 Q244.1 171.4 245.75 172.25 L254.7 172.95 258.55 168.95 257.8 169.15 245.3 170.05 244.1 170.05 240.95 170.25" fill="#714100" fill-rule="evenodd" stroke="none"/>
    <path d="M239.05 151.6 L237.35 152.45 Q236.6 152.9 235.9 153.6 L234.95 154.45 Q231.8 157.8 232.75 162.05 233.25 163.6 234.2 164.95 M268.9 165.35 Q269.6 163.35 267.7 159.6 266.7 157.15 263.85 154.9 L262.15 153.8" ffdec:has-small-stroke="true" ffdec:original-stroke-width="0.05" fill="none" stroke="#000000" stroke-linecap="round" stroke-linejoin="round" stroke-opacity="0.4" stroke-width="1.0"/>
    <path d="M256.85 148.9 Q256.85 148.0 257.35 147.35 258.05 145.55 261.4 144.45 256.6 144.0 253.45 147.35 L254.7 144.25 M254.9 142.45 L255.4 140.65 248.2 147.55 247.95 147.8 Q247.7 147.55 246.95 147.8 247.95 143.35 244.8 140.45 242.15 137.55 236.6 135.8 244.35 140.45 242.65 146.7 M242.15 147.8 L241.9 148.7 240.45 151.15 Q240.0 151.15 239.5 151.6 L239.05 151.6 M262.15 153.8 L262.6 153.15 Q267.7 149.55 269.6 151.35 267.2 148.7 260.2 150.45 L259.5 150.7 257.35 150.45 257.1 150.0 256.85 148.9 M252.75 150.45 Q252.75 148.9 253.25 147.35 L253.45 147.35 M247.95 147.8 L246.75 148.7 246.95 147.8 M246.75 148.7 L246.75 152.7" ffdec:has-small-stroke="true" ffdec:original-stroke-width="0.05" fill="none" stroke="#4d2e1a" stroke-linecap="round" stroke-linejoin="round" stroke-opacity="0.4" stroke-width="1.0"/>
    <path d="M234.2 164.95 L235.9 166.7 236.15 166.95 236.85 167.6 240.0 169.8 240.25 169.8 240.7 170.25 240.95 170.25 244.1 170.05 245.3 170.05 257.8 169.15 258.55 168.95 260.2 168.95 M245.75 159.6 Q250.85 156.25 254.9 159.35 M236.4 154.9 L234.95 154.45 M236.4 154.9 Q239.5 155.6 240.45 157.15" ffdec:has-small-stroke="true" ffdec:original-stroke-width="0.05" fill="none" stroke="#926030" stroke-linecap="round" stroke-linejoin="round" stroke-width="1.0"/>
  </g>
</svg>
