<?xml version="1.0" encoding="UTF-8" standalone="no"?>
<svg xmlns:ffdec="https://www.free-decompiler.com/flash" xmlns:xlink="http://www.w3.org/1999/xlink" ffdec:objectType="shape" height="24.9px" width="32.5px" xmlns="http://www.w3.org/2000/svg">
  <g transform="matrix(1.0, 0.0, 0.0, 1.0, 16.55, 17.65)">
    <path d="M12.15 -8.2 L13.85 -6.65 14.75 -4.75 13.4 -4.25 11.7 -4.15 11.3 -9.0 12.15 -8.2" fill="#518513" fill-rule="evenodd" stroke="none"/>
    <path d="M12.5 -9.5 L12.65 -9.4 12.15 -8.2 11.3 -9.0 11.25 -9.3 11.1 -10.4 12.5 -9.5 M11.75 -3.2 L13.45 -2.4 11.65 -0.45 11.75 -3.2" fill="#45731f" fill-rule="evenodd" stroke="none"/>
    <path d="M9.55 -12.6 L12.0 -10.85 12.5 -9.5 11.1 -10.4 9.55 -12.6" fill="#659d17" fill-rule="evenodd" stroke="none"/>
    <path d="M9.55 -12.6 L9.4 -12.8 Q7.95 -14.6 6.25 -15.8 L12.45 -11.6 15.9 -7.3 12.7 -9.35 12.65 -9.4 12.5 -9.5 12.0 -10.85 9.55 -12.6" fill="#7e9c39" fill-rule="evenodd" stroke="none"/>
    <path d="M12.65 -9.4 L12.7 -9.35 15.9 -7.3 Q16.15 -2.05 14.7 1.95 L11.05 2.8 11.6 0.2 11.65 -0.45 13.45 -2.4 11.75 -3.2 11.75 -3.35 11.7 -4.15 13.4 -4.25 14.75 -4.75 13.85 -6.65 12.15 -8.2 12.65 -9.4" fill="#6d8a32" fill-rule="evenodd" stroke="none"/>
    <path d="M15.9 -7.3 L12.45 -11.6 6.25 -15.8" ffdec:has-small-stroke="true" ffdec:original-stroke-width="0.05" fill="none" stroke="#635d1a" stroke-linecap="round" stroke-linejoin="round" stroke-width="1.0"/>
    <path d="M11.05 2.8 L14.7 1.95 Q16.15 -2.05 15.9 -7.3" ffdec:has-small-stroke="true" ffdec:original-stroke-width="0.05" fill="none" stroke="#635d1a" stroke-linecap="round" stroke-linejoin="round" stroke-width="1.0"/>
    <path d="M-15.8 5.05 L-16.55 4.5 Q-16.45 1.65 -16.15 0.65 L-13.6 -6.0 -11.75 -7.1 -11.25 -6.95 -13.25 -5.2 -13.45 -5.0 -14.7 -1.55 -15.8 1.55 -15.8 5.05 M-12.35 -2.35 L-12.0 -2.45 Q-11.85 -1.6 -12.3 -0.7 -12.55 0.5 -13.3 1.2 L-14.45 2.0 Q-15.0 1.0 -13.9 -1.5 L-13.15 -2.2 -12.35 -2.35 M-14.4 3.4 L-14.2 4.4 -14.65 5.55 -15.1 4.25 Q-15.2 2.75 -14.4 3.4" fill="#ede0be" fill-rule="evenodd" stroke="none"/>
    <path d="M-0.7 4.1 L-2.5 2.55 -3.1 1.35 -2.45 -0.75 -3.2 -2.75 -1.1 -1.6 0.6 3.25 -0.6 4.05 -0.7 4.1 M-6.95 5.85 L-7.0 5.85 -7.1 5.0 -5.25 3.5 -4.3 3.9 Q-5.85 4.15 -6.95 5.85 M-10.2 -3.55 L-11.25 -3.3 -12.35 -2.35 -13.15 -2.2 -13.9 -1.5 -14.7 -1.55 -13.45 -5.0 -13.25 -5.2 -13.05 -3.8 -10.2 -3.55" fill="#659d17" fill-rule="evenodd" stroke="none"/>
    <path d="M-11.25 -6.95 L-11.2 -6.95 -7.9 -6.0 -6.05 -4.65 -10.2 -3.55 -13.05 -3.8 -13.25 -5.2 -11.25 -6.95 M-10.15 1.55 L-9.55 -0.3 -8.6 -0.85 -9.05 -0.1 -8.9 1.05 -7.6 -0.1 -8.4 2.45 -10.05 3.65 -10.15 1.55" fill="#aba719" fill-rule="evenodd" stroke="none"/>
    <path d="M-3.2 -2.75 L-2.45 -0.75 -3.1 1.35 -2.5 2.55 -0.7 4.1 -1.75 4.8 Q-2.45 3.75 -4.1 3.9 L-4.3 3.9 -5.25 3.5 -7.1 5.0 -7.0 5.85 -6.95 5.85 -7.1 7.1 -9.8 7.25 -9.7 6.8 Q-9.3 5.45 -7.8 4.35 L-7.0 1.35 Q-6.45 -0.4 -4.35 -3.4 L-3.2 -2.75" fill="#8a8525" fill-rule="evenodd" stroke="none"/>
    <path d="M-4.35 -3.4 Q-6.45 -0.4 -7.0 1.35 L-7.8 4.35 Q-9.3 5.45 -9.7 6.8 L-9.8 7.25 Q-13.35 6.75 -15.8 5.05 L-15.8 1.55 -14.7 -1.55 -13.9 -1.5 Q-15.0 1.0 -14.45 2.0 L-13.3 1.2 Q-12.55 0.5 -12.3 -0.7 -11.85 -1.6 -12.0 -2.45 L-12.35 -2.35 -11.25 -3.3 -10.2 -3.55 -6.05 -4.65 -5.75 -4.45 -4.35 -3.4 M-10.15 1.55 L-10.05 3.65 -8.4 2.45 -7.6 -0.1 -8.9 1.05 -9.05 -0.1 -8.6 -0.85 -9.55 -0.3 -10.15 1.55 M-14.4 3.4 Q-15.2 2.75 -15.1 4.25 L-14.65 5.55 -14.2 4.4 -14.4 3.4" fill="#7e9c39" fill-rule="evenodd" stroke="none"/>
    <path d="M-0.6 4.05 L0.6 3.25 -1.1 -1.6 -3.2 -2.75 -4.35 -3.4 M-9.8 7.25 L-7.1 7.1 -6.95 5.85 Q-5.85 4.15 -4.3 3.9 L-4.1 3.9 Q-2.45 3.75 -1.75 4.8 L-0.7 4.1" ffdec:has-small-stroke="true" ffdec:original-stroke-width="0.05" fill="none" stroke="#635d1a" stroke-linecap="round" stroke-linejoin="round" stroke-width="1.0"/>
    <path d="M-5.75 -4.45 L-4.35 -3.4 M-15.8 5.05 L-16.55 4.5 Q-16.45 1.65 -16.15 0.65 L-13.6 -6.0 -11.75 -7.1 -11.25 -6.95 -11.2 -6.95 -7.9 -6.0 -6.05 -4.65 M-15.8 5.05 Q-13.35 6.75 -9.8 7.25" ffdec:has-small-stroke="true" ffdec:original-stroke-width="0.05" fill="none" stroke="#635d1a" stroke-linecap="round" stroke-linejoin="round" stroke-width="1.0"/>
    <path d="M-5.25 -2.75 L-5.3 -2.7 -5.25 -2.75" fill="#cf4a33" fill-rule="evenodd" stroke="none"/>
    <path d="M-7.0 -15.4 L-6.85 -15.45 -6.9 -15.35 -7.0 -15.4" fill="#f2573c" fill-rule="evenodd" stroke="none"/>
    <path d="M6.9 -5.6 L6.9 -5.65 6.9 -5.6 M-2.0 2.35 L-2.05 2.35 -2.6 1.45 -2.0 2.35" fill="#8c3223" fill-rule="evenodd" stroke="none"/>
    <path d="M4.2 -6.55 L4.25 -6.5 4.2 -6.5 4.2 -6.55" fill="#897c5a" fill-rule="evenodd" stroke="none"/>
    <path d="M3.05 -10.1 L3.0 -10.0 2.95 -10.1 3.05 -10.1 M-6.55 -14.55 L-8.35 -12.75 Q-10.35 -10.65 -11.7 -7.95 L-13.5 -5.75 -14.35 -5.9 Q-13.65 -6.75 -11.9 -10.3 -10.55 -13.0 -7.0 -15.4 L-6.9 -15.35 -6.85 -15.45 -6.8 -15.45 -6.5 -14.6 -6.55 -14.6 -6.55 -14.55" fill="#ede0be" fill-rule="evenodd" stroke="none"/>
    <path d="M5.25 -10.05 L5.3 -9.95 6.9 -5.6 5.9 -4.85 4.25 -6.5 4.2 -6.55 3.0 -10.0 3.05 -10.1 5.25 -10.05" fill="#d4c8a9" fill-rule="evenodd" stroke="none"/>
    <path d="M7.45 -3.0 L7.5 -3.05 7.5 -3.0 7.45 -3.0 M7.5 -3.05 L7.5 -3.0 7.5 -3.05" fill="#7a6e50" fill-rule="evenodd" stroke="none"/>
    <path d="M-6.5 -14.45 L-6.55 -14.55 -6.55 -14.6 -6.5 -14.6 -6.5 -14.45" fill="#63ba3b" fill-rule="evenodd" stroke="none"/>
    <path d="M-8.6 -4.25 L-10.7 -5.3 -12.3 -5.55 -11.3 -5.85 -10.4 -6.1 -9.45 -7.15 -9.55 -5.75 -8.6 -4.25 M-7.55 -4.1 L-6.65 -4.4 -6.4 -3.2 -7.95 -3.95 -7.55 -4.1" fill="#659d17" fill-rule="evenodd" stroke="none"/>
    <path d="M3.0 -10.0 L4.2 -6.55 4.2 -6.5 3.5 -6.3 3.15 -7.4 2.9 -8.35 1.7 -9.25 2.95 -10.1 3.0 -10.0 M-3.6 -4.65 L-3.45 -4.8 -0.45 -7.7 0.05 -8.15 0.5 -8.15 -0.25 -6.8 -0.7 -6.75 -1.95 -5.35 -1.95 -3.45 -2.4 -2.65 -2.45 -2.7 -4.35 -3.45 -3.55 -4.05 -3.6 -4.65 M7.75 0.7 L7.65 3.45 6.1 4.05 6.75 3.2 7.05 2.75 7.75 0.7 M5.55 4.25 L0.0 6.35 -0.95 4.3 0.05 4.55 0.25 4.55 0.75 4.0 2.05 4.75 3.85 4.75 4.2 3.3 4.85 2.2 5.1 2.95 5.55 4.25 M-1.2 -1.0 L-1.25 -0.05 -1.85 -0.9 -2.0 -2.05 -1.2 -1.0" fill="#518513" fill-rule="evenodd" stroke="none"/>
    <path d="M-6.5 -14.45 L-5.6 -13.5 -6.1 -11.85 -4.6 -11.65 -4.5 -9.75 -3.6 -8.85 -0.15 -10.05 1.0 -11.45 2.35 -9.95 1.7 -9.25 1.45 -8.5 -0.1 -9.05 -2.45 -7.95 -5.9 -7.85 -6.65 -9.6 -7.45 -10.25 -7.45 -11.75 -8.35 -12.75 -6.55 -14.55 -6.5 -14.45 M-11.3 -5.85 L-10.9 -7.25 -9.0 -8.55 -9.0 -6.15 -7.55 -4.1 -7.95 -3.95 -8.6 -4.25 -9.55 -5.75 -9.45 -7.15 -10.4 -6.1 -11.3 -5.85" fill="#aba719" fill-rule="evenodd" stroke="none"/>
    <path d="M4.25 -6.5 L5.9 -4.85 2.8 -2.65 2.05 -1.85 3.3 -4.45 3.15 -7.4 3.5 -6.3 4.2 -6.5 4.25 -6.5 M2.45 0.2 L2.7 -1.75 6.65 -3.75 6.25 -2.25 6.0 -2.1 2.45 0.2" fill="#99942a" fill-rule="evenodd" stroke="none"/>
    <path d="M2.4 0.2 L2.45 0.2 6.0 -2.1 7.75 0.1 7.75 0.7 7.05 2.75 6.75 3.2 5.1 2.95 4.85 2.2 4.5 0.95 2.4 0.2" fill="#8a8525" fill-rule="evenodd" stroke="none"/>
    <path d="M5.25 -10.05 L3.05 -10.1 2.95 -10.1 1.7 -9.25 2.35 -9.95 1.0 -11.45 -0.15 -10.05 -3.6 -8.85 -4.5 -9.75 -4.6 -11.65 -6.1 -11.85 -5.6 -13.5 -6.5 -14.45 -6.5 -14.6 -6.8 -15.45 Q-2.5 -16.45 4.6 -11.35 L5.25 -10.05 M-8.35 -12.75 L-7.45 -11.75 -7.45 -10.25 -6.65 -9.6 -5.9 -7.85 -2.45 -7.95 -0.1 -9.05 1.45 -8.5 1.35 -8.15 0.5 -8.15 0.05 -8.15 -0.45 -7.7 -3.45 -4.8 -3.6 -4.65 -3.55 -4.05 -4.35 -3.45 -5.25 -2.75 -5.3 -2.7 -6.4 -3.2 -6.65 -4.4 -7.55 -4.1 -9.0 -6.15 -9.0 -8.55 -10.9 -7.25 -11.3 -5.85 -12.3 -5.55 -13.5 -5.75 -11.7 -7.95 Q-10.35 -10.65 -8.35 -12.75" fill="#7e9c39" fill-rule="evenodd" stroke="none"/>
    <path d="M1.45 -8.5 L1.7 -9.25 2.9 -8.35 3.15 -7.4 3.3 -4.45 2.05 -1.85 1.25 -1.0 2.7 -1.75 2.45 0.2 2.4 0.2 -1.7 2.85 -2.0 2.35 1.25 0.75 -1.8 0.8 -2.6 1.45 -5.3 -2.7 -5.25 -2.75 -4.35 -3.45 -2.45 -2.7 -2.4 -2.65 -1.95 -3.45 -1.95 -5.35 -0.7 -6.75 -0.25 -6.8 0.5 -8.15 1.35 -8.15 1.45 -8.5 M6.65 -3.75 L7.25 -4.1 6.9 -5.6 7.5 -3.05 7.45 -3.0 6.25 -2.25 6.65 -3.75 M-1.2 -1.0 L-2.0 -2.05 -1.85 -0.9 -1.25 -0.05 -1.2 -1.0" fill="#6d8a32" fill-rule="evenodd" stroke="none"/>
    <path d="M5.9 -4.85 L6.9 -5.6 7.25 -4.1 6.65 -3.75 2.7 -1.75 1.25 -1.0 2.05 -1.85 2.8 -2.65 5.9 -4.85 M-2.6 1.45 L-1.8 0.8 1.25 0.75 -2.0 2.35 -2.6 1.45 M-1.7 2.85 L2.4 0.2 4.5 0.95 4.85 2.2 4.2 3.3 3.85 4.75 2.05 4.75 0.75 4.0 0.25 4.55 0.05 4.55 -0.95 4.3 -1.05 4.15 -1.7 2.85 M6.25 -2.25 L7.45 -3.0 7.5 -3.0 7.75 0.1 6.0 -2.1 6.25 -2.25 M6.1 4.05 L5.55 4.25 5.1 2.95 6.75 3.2 6.1 4.05" fill="#4e6925" fill-rule="evenodd" stroke="none"/>
    <path d="M-5.3 -2.7 L-2.6 1.45 -2.05 2.35 -2.0 2.35 -1.7 2.85 -1.05 4.15 -0.95 4.3 0.0 6.35 -1.1 6.45 -2.45 3.35 -5.55 -1.55 -10.95 -3.95 -13.95 -4.5 -14.35 -5.9 -13.5 -5.75 -12.3 -5.55 -10.7 -5.3 -8.6 -4.25 -7.95 -3.95 -6.4 -3.2 -5.3 -2.7" fill="#636128" fill-rule="evenodd" stroke="none"/>
    <path d="M6.9 -5.6 L5.3 -9.95 M-5.3 -2.7 L-2.6 1.45 -2.0 2.35 -1.7 2.85 -1.05 4.15 M7.5 -3.05 L6.9 -5.6 M7.5 -3.0 L7.75 0.1 7.75 0.7 7.65 3.45 6.1 4.05 5.55 4.25 0.0 6.35 -0.95 4.3 M-13.95 -4.5 L-14.35 -5.9 M4.6 -11.35 L5.25 -10.05 M7.5 -3.0 L7.5 -3.05" ffdec:has-small-stroke="true" ffdec:original-stroke-width="0.05" fill="none" stroke="#635d1a" stroke-linecap="round" stroke-linejoin="round" stroke-width="1.0"/>
    <path d="M-14.35 -5.9 Q-13.65 -6.75 -11.9 -10.3 -10.55 -13.0 -7.0 -15.4 L-6.85 -15.45 -6.8 -15.45 Q-2.5 -16.45 4.6 -11.35 M-6.5 -14.45 L-6.5 -14.6 M-8.6 -4.25 L-10.7 -5.3 -12.3 -5.55 -13.5 -5.75 -14.35 -5.9 M-6.4 -3.2 L-5.3 -2.7 -5.25 -2.75 M-8.6 -4.25 L-7.95 -3.95 -6.4 -3.2 M-3.55 -4.05 L-3.6 -4.65" ffdec:has-small-stroke="true" ffdec:original-stroke-width="0.05" fill="none" stroke="#635d1a" stroke-linecap="round" stroke-linejoin="round" stroke-width="1.0"/>
    <path d="M5.4 -16.05 L5.95 -15.8 4.5 -15.15 1.9 -15.55 3.35 -16.1 4.35 -16.5 5.4 -16.05" fill="#ede0be" fill-rule="evenodd" stroke="none"/>
    <path d="M4.3 -11.65 L4.25 -11.8 4.35 -11.7 4.3 -11.65" fill="#897c5a" fill-rule="evenodd" stroke="none"/>
    <path d="M10.35 -12.55 Q11.95 -8.35 12.4 -3.55 L8.4 -3.1 10.85 -5.3 10.75 -6.85 9.4 -8.8 8.4 -9.0 9.0 -9.4 8.55 -9.3 8.95 -9.9 8.2 -11.1 5.7 -11.9 5.95 -11.95 10.35 -12.55" fill="#518513" fill-rule="evenodd" stroke="none"/>
    <path d="M7.65 -14.1 L7.55 -14.95 10.35 -12.55 5.95 -11.95 7.85 -13.1 7.65 -14.1 M-0.95 -17.25 L0.0 -17.45 2.9 -17.4 0.45 -16.85 -0.95 -17.25" fill="#659d17" fill-rule="evenodd" stroke="none"/>
    <path d="M12.4 -3.55 L10.2 3.55 9.0 3.55 8.25 1.45 9.2 1.8 10.4 -0.6 10.4 -1.9 8.05 -2.75 8.4 -3.1 12.4 -3.55" fill="#45731f" fill-rule="evenodd" stroke="none"/>
    <path d="M5.7 -16.2 L5.4 -16.05 4.35 -16.5 3.35 -16.1 1.8 -16.15 0.2 -14.55 -1.85 -15.95 -6.5 -15.95 -1.7 -17.05 -0.95 -17.25 0.45 -16.85 2.9 -17.4 3.3 -17.3 Q4.4 -16.95 5.7 -16.2 M4.0 -12.25 L6.25 -13.0 7.65 -14.1 7.85 -13.1 5.95 -11.95 5.7 -11.9 4.35 -11.7 4.25 -11.8 4.0 -12.25" fill="#aba719" fill-rule="evenodd" stroke="none"/>
    <path d="M7.25 -15.15 L7.55 -14.95 7.65 -14.1 6.25 -13.0 4.0 -12.25 3.95 -12.3 3.85 -12.45 Q2.9 -12.75 2.5 -13.45 1.45 -13.8 0.3 -14.5 L0.25 -14.55 0.2 -14.55 1.8 -16.15 3.35 -16.1 1.9 -15.55 4.5 -15.15 5.95 -15.8 5.4 -16.05 5.7 -16.2 7.25 -15.15" fill="#7e9c39" fill-rule="evenodd" stroke="none"/>
    <path d="M9.0 3.55 L7.25 3.55 7.2 0.6 Q7.1 -1.1 7.35 -3.0 L8.4 -3.1 8.05 -2.75 10.4 -1.9 10.4 -0.6 9.2 1.8 8.25 1.45 9.0 3.55 M8.55 -9.3 L9.0 -9.4 8.4 -9.0 7.15 -8.2 6.8 -7.4 5.9 -7.1 5.35 -8.85 8.55 -9.3" fill="#4e6925" fill-rule="evenodd" stroke="none"/>
    <path d="M4.3 -11.65 L4.35 -11.7 5.7 -11.9 8.2 -11.1 8.95 -9.9 8.55 -9.3 5.35 -8.85 4.3 -11.65 M8.4 -9.0 L9.4 -8.8 10.75 -6.85 10.85 -5.3 8.4 -3.1 7.35 -3.0 5.9 -7.1 6.8 -7.4 7.15 -8.2 8.4 -9.0" fill="#6d8a32" fill-rule="evenodd" stroke="none"/>
    <path d="M7.25 3.55 L6.65 3.65 Q6.2 -1.0 6.3 -3.05 L3.25 -10.3 4.25 -11.8 4.3 -11.65 5.35 -8.85 5.9 -7.1 7.35 -3.0 Q7.1 -1.1 7.2 0.6 L7.25 3.55" fill="#47461d" fill-rule="evenodd" stroke="none"/>
    <path d="M0.2 -14.55 L0.25 -14.55 0.3 -14.5 Q1.45 -13.8 2.5 -13.45 2.9 -12.75 3.85 -12.45 L3.95 -12.3 4.0 -12.25 4.25 -11.8 3.25 -10.3 Q0.0 -14.65 -6.8 -15.05 L-6.9 -15.9 -6.5 -15.95 -1.85 -15.95 0.2 -14.55" fill="#636128" fill-rule="evenodd" stroke="none"/>
    <path d="M7.25 -15.15 L5.7 -16.2 Q4.4 -16.95 3.3 -17.3 M7.55 -14.95 L10.35 -12.55 M-6.9 -15.9 L-6.5 -15.95 -1.7 -17.05 M-0.95 -17.25 L0.0 -17.45 2.9 -17.4" ffdec:has-small-stroke="true" ffdec:original-stroke-width="0.05" fill="none" stroke="#635d1a" stroke-linecap="round" stroke-linejoin="round" stroke-width="1.0"/>
    <path d="M10.35 -12.55 Q11.95 -8.35 12.4 -3.55 L10.2 3.55 9.0 3.55 7.25 3.55" ffdec:has-small-stroke="true" ffdec:original-stroke-width="0.05" fill="none" stroke="#635d1a" stroke-linecap="round" stroke-linejoin="round" stroke-width="1.0"/>
    <path d="M2.15 -10.35 Q2.85 -10.4 3.1 -9.9 3.35 -9.45 2.95 -8.7 2.55 -8.0 1.8 -7.45 1.0 -6.9 0.35 -6.85 L0.0 -6.85 Q-0.4 -8.5 2.15 -10.35 M-1.9 -6.15 L-1.75 -6.15 -1.7 -6.15 -1.35 -5.9 -1.45 -5.3 -1.9 -4.75 Q-2.25 -4.5 -2.5 -4.5 L-2.6 -4.5 Q-2.55 -5.25 -1.9 -6.15" fill="#ede0be" fill-rule="evenodd" stroke="none"/>
    <path d="M0.0 -6.85 L-0.55 -7.3 Q-0.8 -7.8 -0.45 -8.5 L0.7 -9.75 Q1.45 -10.3 2.15 -10.35 -0.4 -8.5 0.0 -6.85 M-2.6 -4.5 L-2.9 -4.75 -2.85 -5.35 -2.35 -5.9 -1.9 -6.15 Q-2.55 -5.25 -2.6 -4.5" fill="#f4ecd9" fill-rule="evenodd" stroke="none"/>
  </g>
</svg>
