<?xml version="1.0" encoding="UTF-8" standalone="no"?>
<svg xmlns:ffdec="https://www.free-decompiler.com/flash" xmlns:xlink="http://www.w3.org/1999/xlink" ffdec:objectType="shape" height="24.85px" width="32.5px" xmlns="http://www.w3.org/2000/svg">
  <g transform="matrix(1.0, 0.0, 0.0, 1.0, 16.5, 17.6)">
    <path d="M12.2 -9.7 L12.15 -9.7 12.15 -9.75 12.2 -9.7 M12.95 -9.2 L13.0 -9.2 12.95 -9.2" fill="#5c0301" fill-rule="evenodd" stroke="none"/>
    <path d="M12.15 -9.75 L12.2 -9.75 12.2 -9.7 12.15 -9.75" fill="#780502" fill-rule="evenodd" stroke="none"/>
    <path d="M15.95 -7.3 L16.0 -4.55 14.45 -5.8 14.4 -6.55 14.35 -6.55 13.9 -6.6 13.35 -8.95 15.95 -7.3 M15.95 -3.9 Q15.75 -0.7 14.75 1.95 L11.8 2.65 12.85 -1.45 12.15 -9.7 12.2 -9.7 12.95 -9.2 13.5 -6.0 15.95 -3.9" fill="#000000" fill-rule="evenodd" stroke="none"/>
    <path d="M11.15 -10.4 L12.15 -9.75 12.15 -9.7 12.85 -1.45 11.8 2.65 11.1 2.8 Q12.4 -1.05 11.15 -10.4 M13.95 -9.8 L14.15 -9.55 13.35 -9.0 13.35 -8.95 13.9 -6.6 14.35 -6.55 14.4 -6.55 14.45 -5.8 16.0 -4.55 15.95 -3.9 13.5 -6.0 12.95 -9.2 13.0 -9.2 13.95 -9.8" fill="#cccccc" fill-rule="evenodd" stroke="none"/>
    <path d="M11.15 -10.4 Q9.0 -13.85 6.3 -15.8 L9.9 -13.35 12.2 -9.75 12.15 -9.75 11.15 -10.4" fill="#ffffff" fill-rule="evenodd" stroke="none"/>
    <path d="M12.2 -9.75 L9.9 -13.35 12.5 -11.6 13.95 -9.8 13.0 -9.2 12.95 -9.2 12.2 -9.7 12.2 -9.75 M14.15 -9.55 L15.95 -7.3 13.35 -8.95 13.35 -9.0 14.15 -9.55" fill="#333333" fill-rule="evenodd" stroke="none"/>
    <path d="M9.9 -13.35 L12.5 -11.6 13.95 -9.8 14.15 -9.55 15.95 -7.3" ffdec:has-small-stroke="true" ffdec:original-stroke-width="0.05" fill="none" stroke="#000000" stroke-linecap="round" stroke-linejoin="round" stroke-width="1.0"/>
    <path d="M15.95 -7.3 L16.0 -4.55 15.95 -3.9 Q15.75 -0.7 14.75 1.95 L11.8 2.65" ffdec:has-small-stroke="true" ffdec:original-stroke-width="0.05" fill="none" stroke="#000000" stroke-linecap="round" stroke-linejoin="round" stroke-width="1.0"/>
    <path d="M-6.8 -5.25 L-10.6 -1.3 -10.7 -1.15 -11.5 1.4 -14.25 3.8 -14.45 5.85 -15.75 5.05 -15.75 1.55 -14.85 -1.0 -12.8 -1.7 -9.7 -6.5 -7.85 -6.0 -6.8 -5.25 M-14.15 6.0 L-13.9 4.25 -11.25 1.85 -9.35 3.4 -9.35 6.1 -8.95 5.5 -8.85 5.4 -8.85 2.95 -10.2 2.25 -10.55 1.3 -9.7 -0.75 -9.45 -1.7 -6.25 -4.8 -4.3 -3.4 -1.05 -1.6 0.65 3.25 -1.7 4.8 Q-2.4 3.75 -4.05 3.9 -5.75 4.0 -6.9 5.85 L-7.05 7.1 -9.75 7.25 Q-12.2 6.9 -14.15 6.0 M-14.65 -1.5 L-13.4 -5.0 -11.2 -6.95 -10.0 -6.6 -13.0 -2.0 -14.65 -1.5" fill="#333333" fill-rule="evenodd" stroke="none"/>
    <path d="M-9.7 -6.5 L-12.8 -1.7 -14.85 -1.0 -14.65 -1.5 -13.0 -2.0 -10.0 -6.6 -9.7 -6.5" fill="#cccccc" fill-rule="evenodd" stroke="none"/>
    <path d="M-14.45 5.85 L-14.25 3.8 -11.5 1.4 -10.7 -1.15 -10.6 -1.3 -6.8 -5.25 -6.25 -4.8 -9.45 -1.7 -9.7 -0.75 -10.55 1.3 -10.2 2.25 -8.85 2.95 -8.85 5.4 -8.95 5.5 -9.35 6.1 -9.35 3.4 -11.25 1.85 -13.9 4.25 -14.15 6.0 -14.45 5.85 M-14.85 -1.0 L-15.75 1.55 -15.75 5.05 -16.5 4.5 Q-16.4 1.65 -16.1 0.65 L-13.55 -6.0 -11.7 -7.1 -11.2 -6.95 -13.4 -5.0 -14.65 -1.5 -14.85 -1.0" fill="#ffffff" fill-rule="evenodd" stroke="none"/>
    <path d="M-6.25 -4.8 L-6.8 -5.25 -7.85 -6.0 -9.7 -6.5 -10.0 -6.6 -11.2 -6.95 -11.7 -7.1 -13.55 -6.0 -16.1 0.65 Q-16.4 1.65 -16.5 4.5 M-6.25 -4.8 L-4.3 -3.4" ffdec:has-small-stroke="true" ffdec:original-stroke-width="0.05" fill="none" stroke="#000000" stroke-linecap="round" stroke-linejoin="round" stroke-width="1.0"/>
    <path d="M-14.45 5.85 L-14.15 6.0 Q-12.2 6.9 -9.75 7.25 L-7.05 7.1 -6.9 5.85 Q-5.75 4.0 -4.05 3.9 -2.4 3.75 -1.7 4.8 L0.65 3.25 -1.05 -1.6 -4.3 -3.4 M-15.75 5.05 L-14.45 5.85 M-16.5 4.5 L-15.75 5.05" ffdec:has-small-stroke="true" ffdec:original-stroke-width="0.05" fill="none" stroke="#000000" stroke-linecap="round" stroke-linejoin="round" stroke-width="1.0"/>
    <path d="M-5.2 -2.75 L-5.25 -2.7 -5.2 -2.75" fill="#cf4a33" fill-rule="evenodd" stroke="none"/>
    <path d="M-2.0 2.35 L-1.95 2.35 -1.95 2.4 -2.0 2.35" fill="#8a1f0d" fill-rule="evenodd" stroke="none"/>
    <path d="M-6.95 -15.4 L-6.8 -15.45 -6.85 -15.35 -6.95 -15.4" fill="#f2573c" fill-rule="evenodd" stroke="none"/>
    <path d="M1.5 -2.65 L1.7 -2.8 1.65 -2.65 1.5 -2.65 M-2.55 1.45 L-1.95 2.35 -2.0 2.35 -2.55 1.45 M6.95 -5.6 L6.95 -5.65 6.95 -5.6" fill="#8c3223" fill-rule="evenodd" stroke="none"/>
    <path d="M2.55 -10.0 L3.6 -5.55 5.2 -4.35 2.7 -3.7 1.7 -2.8 -0.35 -3.5 -2.1 -6.1 -0.4 -7.7 0.1 -8.15 1.4 -8.15 1.8 -9.5 2.5 -10.0 2.55 -10.0 M-2.45 -5.75 L-1.1 -2.7 1.5 -2.65 1.65 -2.65 0.15 0.8 -1.75 0.8 -2.55 1.45 -5.25 -2.7 -5.2 -2.75 -3.5 -4.05 -3.55 -4.65 -3.4 -4.8 -2.45 -5.75 M-1.95 2.35 L1.3 0.75 2.3 -2.75 5.4 -3.1 4.95 0.75 5.65 4.15 0.45 6.05 -1.95 2.35" fill="#000000" fill-rule="evenodd" stroke="none"/>
    <path d="M2.55 -10.0 L2.5 -10.0 1.8 -9.5 1.4 -8.15 0.1 -8.15 -0.4 -7.7 -2.1 -6.1 -2.95 -5.95 -3.55 -8.55 -3.55 -9.55 -6.9 -9.65 -8.75 -9.05 -7.55 -11.1 -8.7 -13.1 -6.1 -15.6 -6.0 -15.6 -1.9 -14.95 -2.55 -13.5 -5.55 -11.4 -6.9 -9.65 -4.5 -10.95 -1.9 -13.45 -0.75 -13.1 1.35 -12.0 2.55 -10.0 M-13.45 -5.75 L-11.9 -8.45 Q-10.7 -10.85 -9.0 -12.8 L-8.45 -11.05 -9.35 -8.9 -12.15 -8.05 -10.3 -8.05 -6.9 -9.65 -4.15 -8.55 -3.8 -5.75 -5.5 -5.35 -8.65 -4.35 -10.65 -5.3 -13.45 -5.75 M-7.95 -4.0 L-5.5 -5.35 -2.45 -5.75 -3.4 -4.8 -3.55 -4.65 -3.5 -4.05 -5.2 -2.75 -5.25 -2.7 -7.95 -4.0" fill="#333333" fill-rule="evenodd" stroke="none"/>
    <path d="M-2.1 -6.1 L-2.45 -5.75 -5.5 -5.35 -7.95 -4.0 -8.65 -4.35 -8.75 -3.0 -10.9 -3.95 -13.9 -4.5 -14.3 -5.9 Q-13.6 -6.75 -11.85 -10.3 -10.5 -13.0 -6.95 -15.4 L-6.85 -15.35 -6.8 -15.45 -6.1 -15.6 -8.7 -13.1 -9.0 -12.8 Q-10.7 -10.85 -11.9 -8.45 L-13.45 -5.75 -10.65 -5.3 -8.65 -4.35 -5.5 -5.35 -3.8 -5.75 -4.15 -8.55 -6.9 -9.65 -3.55 -9.55 -3.55 -8.55 -2.95 -5.95 -2.1 -6.1 M-13.45 -5.75 L-14.3 -5.9 -13.45 -5.75 M-8.2 -2.75 L-7.95 -4.0 -5.25 -2.7 -5.5 -1.55 -8.2 -2.75" fill="#ffffff" fill-rule="evenodd" stroke="none"/>
    <path d="M-2.1 -6.1 L-0.35 -3.5 1.7 -2.8 2.7 -3.7 5.2 -4.35 3.6 -5.55 2.55 -10.0 1.35 -12.0 -0.75 -13.1 -1.9 -13.45 -4.5 -10.95 -6.9 -9.65 -5.55 -11.4 -2.55 -13.5 -1.9 -14.95 -6.0 -15.6 Q-4.2 -15.8 -1.9 -15.0 1.0 -14.0 4.65 -11.35 6.1 -8.55 6.95 -5.6 7.7 -2.85 7.9 -0.05 L7.9 0.1 7.95 3.25 5.65 4.15 4.95 0.75 5.4 -3.1 2.3 -2.75 1.3 0.75 -1.95 2.35 -2.55 1.45 -1.75 0.8 0.15 0.8 1.65 -2.65 1.7 -2.8 1.5 -2.65 -1.1 -2.7 -2.45 -5.75 -2.1 -6.1 M-9.0 -12.8 L-8.7 -13.1 -7.55 -11.1 -8.75 -9.05 -6.9 -9.65 -10.3 -8.05 -12.15 -8.05 -9.35 -8.9 -8.45 -11.05 -9.0 -12.8 M-8.65 -4.35 L-7.95 -4.0 -8.2 -2.75 -8.75 -3.0 -8.65 -4.35 M-5.25 -2.7 L-2.55 1.45 -2.0 2.35 -1.95 2.4 -1.95 2.35 0.45 6.05 -0.65 6.15 -5.5 -1.55 -5.25 -2.7" fill="#cccccc" fill-rule="evenodd" stroke="none"/>
    <path d="M1.8 -9.5 L1.4 -8.15 M4.65 -11.35 Q1.0 -14.0 -1.9 -15.0 -4.2 -15.8 -6.0 -15.6 M-6.95 -15.4 L-6.8 -15.45 -6.1 -15.6 M-6.95 -15.4 Q-10.5 -13.0 -11.85 -10.3 -13.6 -6.75 -14.3 -5.9 L-13.45 -5.75 M-7.95 -4.0 L-8.65 -4.35 M-3.55 -4.65 L-3.5 -4.05 M-5.25 -2.7 L-5.2 -2.75 M-1.95 2.35 L-1.95 2.4" ffdec:has-small-stroke="true" ffdec:original-stroke-width="0.05" fill="none" stroke="#000000" stroke-linecap="round" stroke-linejoin="round" stroke-width="1.0"/>
    <path d="M5.65 4.15 L7.95 3.25 7.9 0.1 7.9 -0.05 Q7.7 -2.85 6.95 -5.6 6.1 -8.55 4.65 -11.35 M0.45 6.05 L5.65 4.15 M-13.9 -4.5 L-14.3 -5.9" ffdec:has-small-stroke="true" ffdec:original-stroke-width="0.05" fill="none" stroke="#000000" stroke-linecap="round" stroke-linejoin="round" stroke-width="1.0"/>
    <path d="M-6.45 -15.95 L-1.8 -15.95 -0.9 -15.3 -0.4 -14.95 0.35 -14.5 1.65 -13.8 2.55 -13.45 Q3.15 -12.4 4.0 -11.75 L4.5 -11.4 5.4 -8.85 9.05 -9.4 7.2 -8.2 6.85 -7.4 5.95 -7.1 Q7.05 -3.1 7.25 0.6 L7.3 3.55 6.15 3.45 Q6.05 -3.1 3.6 -10.25 0.05 -14.65 -6.75 -15.05 L-6.85 -15.9 -6.45 -15.95 M8.55 3.45 L9.25 -1.65 12.25 -5.3 12.35 -4.5 10.1 -1.8 10.15 -1.0 9.5 -0.15 9.0 3.4 8.55 3.45" fill="#cccccc" fill-rule="evenodd" stroke="none"/>
    <path d="M-0.9 -15.3 L1.0 -16.9 3.7 -17.15 4.2 -16.95 4.8 -16.7 1.45 -16.7 -0.4 -14.95 -0.9 -15.3 M2.55 -13.45 L1.65 -13.8 5.35 -14.0 6.7 -15.6 7.15 -15.3 5.75 -13.7 8.1 -12.1 4.9 -13.45 2.55 -13.45" fill="#ffffff" fill-rule="evenodd" stroke="none"/>
    <path d="M3.7 -17.15 L1.0 -16.9 -0.9 -15.3 -1.8 -15.95 -6.45 -15.95 0.05 -17.45 3.7 -17.15 M-0.4 -14.95 L1.45 -16.7 4.8 -16.7 5.3 -16.45 6.7 -15.6 5.35 -14.0 1.65 -13.8 0.35 -14.5 -0.4 -14.95 M2.55 -13.45 L4.9 -13.45 8.1 -12.1 5.75 -13.7 7.15 -15.3 10.4 -12.55 8.15 -12.1 8.1 -12.1 4.5 -11.4 4.0 -11.75 Q3.15 -12.4 2.55 -13.45" fill="#333333" fill-rule="evenodd" stroke="none"/>
    <path d="M7.3 3.55 L7.25 0.6 Q7.05 -3.1 5.95 -7.1 L6.85 -7.4 7.2 -8.2 9.05 -9.4 5.4 -8.85 4.5 -11.4 8.1 -12.1 8.15 -12.1 10.4 -12.55 Q11.7 -9.15 12.25 -5.3 L9.25 -1.65 8.55 3.45 8.5 3.45 7.3 3.55 M12.35 -4.5 L12.45 -3.55 10.3 3.3 9.0 3.4 9.5 -0.15 10.15 -1.0 10.1 -1.8 12.35 -4.5" fill="#000000" fill-rule="evenodd" stroke="none"/>
    <path d="M3.7 -17.15 L0.05 -17.45 -6.45 -15.95 -6.85 -15.9 M4.8 -16.7 L4.2 -16.95 M7.15 -15.3 L6.7 -15.6 5.3 -16.45 M7.15 -15.3 L10.4 -12.55" ffdec:has-small-stroke="true" ffdec:original-stroke-width="0.05" fill="none" stroke="#000000" stroke-linecap="round" stroke-linejoin="round" stroke-width="1.0"/>
    <path d="M7.3 3.55 L8.5 3.45 M12.25 -5.3 Q11.7 -9.15 10.4 -12.55 M12.35 -4.5 L12.45 -3.55 10.3 3.3 9.0 3.4 8.55 3.45 M12.25 -5.3 L12.35 -4.5" ffdec:has-small-stroke="true" ffdec:original-stroke-width="0.05" fill="none" stroke="#000000" stroke-linecap="round" stroke-linejoin="round" stroke-width="1.0"/>
  </g>
</svg>
