<?xml version="1.0" encoding="UTF-8" standalone="no"?>
<svg xmlns:ffdec="https://www.free-decompiler.com/flash" xmlns:xlink="http://www.w3.org/1999/xlink" ffdec:objectType="shape" height="77.9px" width="86.0px" xmlns="http://www.w3.org/2000/svg">
  <g transform="matrix(1.0, 0.0, 0.0, 1.0, 1.0, -5.0)">
    <path d="M66.5 14.95 L78.95 11.3 78.95 11.8 79.7 11.8 67.2 17.95 65.85 17.65 66.5 14.95 M63.95 18.4 L62.85 20.2 Q60.1 24.25 54.9 25.55 L49.2 26.65 Q41.15 27.75 35.05 32.85 L40.45 28.1 48.55 23.3 63.9 18.3 63.95 18.4" fill="#78979e" fill-rule="evenodd" stroke="none"/>
    <path d="M66.5 14.95 L65.85 17.65 67.2 17.95 79.7 11.8 M63.9 18.3 L48.55 23.3 40.45 28.1 35.05 32.85 Q41.15 27.75 49.2 26.65 L54.9 25.55 Q60.1 24.25 62.85 20.2 L63.95 18.4 65.85 17.65 63.9 18.3 M35.05 32.85 L34.0 33.7" ffdec:has-small-stroke="true" ffdec:original-stroke-width="0.05" fill="none" stroke="#000000" stroke-linecap="round" stroke-linejoin="round" stroke-opacity="0.5019608" stroke-width="1.0"/>
    <path d="M0.85 40.55 L1.55 42.55 1.0 42.85 0.85 40.55 M1.4 48.25 L1.75 48.35 1.55 49.95 1.4 48.25 M8.0 65.3 L9.55 64.9 14.8 69.05 15.5 70.2 8.0 65.3 M17.3 71.35 L18.1 71.3 18.25 72.0 17.3 71.35" fill="#203740" fill-rule="evenodd" stroke="none"/>
    <path d="M33.9 38.35 L33.85 38.35 33.9 38.3 33.9 38.35 M67.4 48.7 L67.4 48.9 63.8 52.15 63.55 51.5 66.25 49.1 67.4 48.7 M62.7 53.15 L61.9 53.9 61.65 53.35 61.9 53.1 62.7 53.15 M54.2 37.8 L54.1 37.8 54.25 37.7 54.2 37.8 M75.95 34.45 L77.05 34.15 76.85 35.4 75.95 34.45 M69.35 34.7 L69.4 34.75 Q69.1 35.4 69.35 34.7 M68.25 39.95 L68.35 39.4 68.6 39.55 68.25 39.95" fill="#4e656d" fill-rule="evenodd" stroke="none"/>
    <path d="M53.75 36.35 L53.75 36.4 53.75 36.35 M49.7 38.75 L49.65 38.75 49.65 38.7 49.7 38.75 M56.4 39.3 L56.35 39.35 56.35 39.3 56.4 39.3 M59.9 41.05 L59.85 41.1 59.85 41.05 59.9 41.05 M47.0 61.55 L47.0 61.5 47.05 61.5 47.0 61.55" fill="#62838a" fill-rule="evenodd" stroke="none"/>
    <path d="M57.75 57.7 L56.15 57.55 55.9 58.85 55.3 59.15 Q53.95 59.5 52.7 58.8 L52.65 58.2 51.9 57.9 51.95 57.2 54.9 56.1 55.45 56.3 56.5 53.3 55.8 50.8 Q53.65 51.2 51.85 50.05 L51.4 48.1 52.05 47.25 Q54.3 47.15 56.45 48.25 L56.9 49.0 58.45 48.7 Q59.15 48.6 59.8 49.1 L60.3 48.95 59.85 47.75 58.75 47.75 Q58.15 47.45 58.1 46.75 57.85 45.3 59.3 45.0 L60.7 46.1 61.05 45.85 Q61.0 45.15 61.5 44.7 L62.2 44.15 63.15 44.35 63.1 43.45 63.7 42.4 Q63.4 41.5 63.8 40.8 L64.4 40.1 63.7 39.9 63.7 38.7 64.25 38.4 65.25 39.05 65.6 38.65 65.35 37.25 66.0 36.65 66.35 36.75 66.85 36.5 67.4 35.7 68.3 35.4 67.6 34.8 68.35 34.05 68.65 34.1 68.1 32.95 Q67.4 33.35 66.7 32.95 65.15 32.05 65.6 30.4 L66.85 29.5 Q67.85 29.65 68.3 30.45 L68.45 30.9 69.75 30.4 Q70.45 30.1 71.1 30.4 L71.85 30.1 72.45 28.7 73.85 28.85 Q74.9 29.4 74.45 30.5 L73.3 31.25 73.25 31.8 74.55 33.5 Q74.55 32.85 74.8 32.35 75.1 31.65 75.95 31.55 L76.6 31.75 77.7 31.25 78.8 31.85 79.45 31.55 Q80.3 31.7 80.55 32.55 80.9 33.85 79.7 34.6 L80.7 34.85 80.8 35.9 80.4 36.8 79.8 37.95 79.5 38.05 77.65 40.1 70.65 45.5 67.45 48.05 Q67.35 48.4 67.4 48.7 L66.25 49.1 63.55 51.5 63.8 52.15 63.5 52.9 62.7 53.15 61.9 53.1 61.65 53.35 61.9 53.9 Q61.85 55.2 60.5 55.5 L60.15 55.5 57.75 57.7 M78.5 23.45 Q79.5 22.6 80.7 23.15 L80.9 25.35 80.75 25.4 78.4 25.45 Q77.15 26.3 76.4 25.25 75.8 24.5 76.15 23.6 L76.8 23.1 78.25 23.7 78.5 23.45 M55.2 32.0 Q56.8 32.25 55.7 33.3 L55.5 33.45 Q53.6 32.85 55.2 32.05 L55.2 32.0 M52.8 35.7 Q52.45 35.0 53.15 34.7 L53.45 34.6 Q54.95 35.85 53.0 35.85 L52.8 35.7 M53.75 36.4 L53.75 36.35 Q55.3 36.65 54.25 37.7 L54.1 37.8 54.2 37.8 54.3 37.85 54.7 38.05 55.0 38.45 55.2 39.15 55.1 39.55 54.7 40.25 Q53.3 41.1 52.4 39.8 52.15 39.25 52.35 38.7 52.45 38.3 52.8 38.05 L53.7 37.7 Q52.3 37.15 53.75 36.4 M55.4 36.0 Q55.1 35.3 55.8 35.0 L56.05 34.9 Q57.55 36.15 55.65 36.1 L55.4 36.0 M58.7 32.85 Q60.2 34.1 58.25 34.05 L58.05 33.95 Q57.7 33.25 58.4 32.95 L58.7 32.85 M57.55 36.95 L58.2 37.85 Q58.05 38.15 57.1 38.15 L56.9 38.05 Q56.55 37.35 57.25 37.05 L57.55 36.95 M59.85 35.95 L59.8 35.85 Q59.75 34.45 60.75 33.6 L62.3 34.4 63.4 33.9 64.35 36.1 Q63.2 36.5 61.95 35.8 L59.85 35.95 M50.2 33.75 Q51.75 35.0 49.8 34.95 L49.55 34.85 Q49.25 34.15 49.95 33.85 L50.2 33.75 M47.3 35.0 L47.6 34.9 Q49.1 36.15 47.15 36.1 L46.95 36.0 Q46.65 35.3 47.3 35.0 M49.65 38.75 L49.7 38.75 Q50.95 39.4 49.9 40.35 L49.65 40.45 Q48.1 39.5 49.65 38.75 M46.75 38.4 Q48.3 38.7 47.25 39.75 L47.0 39.9 Q45.15 39.3 46.7 38.45 L46.75 38.4 M49.1 41.7 Q49.45 41.3 49.95 41.2 L51.15 41.9 51.9 41.8 52.25 42.65 Q53.3 42.8 53.6 43.75 L53.55 44.8 52.0 45.45 51.25 44.9 51.05 44.4 50.85 43.8 49.65 44.0 48.8 43.45 Q48.35 42.45 49.1 41.7 M43.5 42.8 Q45.0 44.05 43.1 44.0 L42.85 43.9 Q42.55 43.2 43.2 42.9 L43.5 42.8 M43.5 39.9 Q45.0 41.1 43.1 41.1 L42.85 41.0 Q42.55 40.3 43.2 40.0 L43.5 39.9 M45.25 45.55 L45.85 45.75 46.2 45.95 46.5 46.35 46.75 47.05 46.6 47.45 46.2 48.1 Q44.8 49.0 43.95 47.7 43.65 47.15 43.85 46.6 43.95 46.2 44.3 45.95 L45.25 45.6 45.25 45.55 M50.6 45.65 L50.9 46.05 51.1 46.75 51.0 47.15 50.6 47.85 Q49.2 48.7 48.35 47.4 48.05 46.85 48.25 46.3 48.35 45.9 48.7 45.65 L49.65 45.3 49.65 45.25 50.2 45.45 50.6 45.65 M58.25 37.9 L58.75 37.25 Q59.4 36.75 60.3 36.8 61.2 36.75 61.85 37.25 62.5 37.75 62.5 38.4 62.5 39.05 61.85 39.55 61.2 40.0 60.3 40.0 L58.75 39.55 Q58.1 39.05 58.1 38.4 58.1 38.1 58.25 37.9 M46.75 48.8 L47.8 49.05 48.35 49.7 49.95 49.05 50.9 49.45 51.15 51.2 50.45 51.9 49.1 52.2 47.95 51.95 47.75 51.5 46.3 51.4 Q45.35 50.55 45.8 49.4 L46.75 48.8 M56.35 39.35 L56.4 39.3 Q57.5 39.3 57.3 40.3 L57.15 40.55 Q56.1 41.4 55.1 40.7 L55.1 40.25 55.25 39.8 Q55.75 39.4 56.35 39.35 M59.85 41.1 L59.9 41.05 Q60.55 41.15 60.75 41.45 L61.35 41.2 61.9 41.35 62.3 41.55 62.6 41.95 62.8 42.65 62.7 43.05 62.3 43.75 60.3 43.65 59.85 44.15 59.0 44.3 58.65 44.7 58.4 44.85 Q56.55 44.25 58.1 43.45 L58.1 43.4 58.25 43.4 58.55 43.05 Q58.8 42.85 59.0 42.8 L59.9 42.95 59.85 42.4 Q58.4 41.85 59.85 41.1 M77.65 27.6 Q77.8 27.55 78.0 27.45 79.7 27.9 79.05 29.45 77.95 31.85 76.25 28.9 L74.6 28.8 Q73.5 27.8 74.4 26.65 L76.25 26.0 76.8 26.15 77.65 27.6 M54.05 42.2 L54.0 41.75 54.6 41.05 55.75 41.4 Q57.7 42.6 56.7 44.15 55.95 45.25 54.75 45.25 54.05 44.7 54.2 43.8 54.3 43.1 54.75 42.55 L54.05 42.2 M75.95 34.45 L76.85 35.4 77.05 34.15 75.95 34.45 M65.7 34.6 Q67.2 35.85 65.25 35.85 L65.05 35.7 Q64.75 35.0 65.45 34.7 L65.7 34.6 M68.25 39.95 L68.6 39.55 68.35 39.4 68.25 39.95 M69.35 34.7 Q69.1 35.4 69.4 34.75 L69.35 34.7 M62.8 39.9 Q64.3 41.1 62.35 41.1 L62.15 41.0 Q61.8 40.3 62.5 40.0 L62.8 39.9 M0.7 28.55 L1.45 28.35 4.1 31.55 5.25 31.25 6.5 31.6 6.9 33.95 7.95 34.25 7.4 38.0 8.55 39.6 9.9 37.4 11.15 37.75 10.0 40.35 9.4 40.25 7.55 43.25 7.65 43.75 8.15 43.55 9.4 43.9 9.85 44.55 10.2 44.4 Q11.7 44.95 12.55 46.35 13.45 47.95 11.8 48.9 13.15 49.4 13.95 50.55 14.8 51.75 13.65 52.85 L13.9 53.1 15.75 50.5 Q14.55 50.35 14.3 49.25 14.1 48.6 14.5 47.95 L15.45 47.6 16.6 49.9 17.2 49.65 18.15 49.8 19.55 48.8 20.9 49.9 18.55 51.55 17.25 55.75 17.4 56.45 18.1 56.55 18.6 55.55 19.55 55.2 20.9 56.45 20.55 57.75 20.7 58.4 22.65 59.05 23.7 55.3 26.0 51.4 27.2 51.85 28.6 50.85 29.9 52.7 28.75 53.7 28.75 54.35 30.1 53.45 Q31.3 53.8 31.4 55.1 31.45 55.9 30.7 56.2 31.95 61.9 26.6 59.25 L23.95 60.45 22.05 63.85 22.6 64.95 23.95 64.25 25.25 65.15 Q27.85 68.05 24.55 70.1 L24.75 71.3 26.85 70.1 Q28.65 70.8 28.3 72.55 27.2 77.8 23.75 73.2 L21.9 74.35 Q20.35 74.35 19.3 73.7 18.25 73.0 18.25 72.0 L18.1 71.3 17.3 71.35 15.5 70.2 14.8 69.05 9.55 64.9 8.0 65.3 7.3 65.9 6.05 63.95 2.15 60.6 2.3 55.25 1.25 50.2 1.55 49.95 1.75 48.35 1.4 48.25 1.05 48.15 0.65 43.05 1.0 42.85 1.55 42.55 0.85 40.55 0.55 40.4 0.65 35.35 0.15 28.85 0.7 28.55 M29.25 39.8 L29.6 40.25 29.8 40.9 29.65 41.35 29.55 41.6 Q30.4 42.35 30.35 43.35 L30.45 43.45 30.65 44.1 30.55 44.55 30.25 45.05 30.35 45.0 30.95 45.15 31.3 45.35 31.6 45.75 31.8 46.45 31.7 46.85 31.3 47.55 Q30.05 48.3 29.2 47.3 L27.6 47.4 Q27.5 48.6 25.35 49.95 24.1 50.75 23.15 49.55 20.4 46.0 24.7 44.7 24.25 44.05 24.3 43.35 23.55 43.35 22.8 42.7 19.9 40.2 23.1 38.15 23.65 37.75 24.2 37.65 25.75 38.05 26.5 38.7 L26.55 38.75 26.9 38.9 27.25 39.35 27.45 39.75 28.3 39.5 28.3 39.45 28.9 39.65 29.25 39.8 M40.35 54.95 L40.05 54.45 40.5 53.25 41.45 52.85 42.45 53.35 43.5 52.85 44.45 53.25 44.85 54.6 Q44.6 55.5 43.8 55.8 L42.25 55.55 41.75 55.8 Q40.85 55.7 40.35 54.95 M28.3 61.25 L28.7 61.45 Q29.65 62.55 28.7 63.75 L28.15 64.2 Q27.4 64.4 26.8 63.9 26.3 63.45 26.3 62.8 L26.3 62.15 26.55 61.75 26.9 61.3 27.3 61.15 27.75 61.05 28.3 61.25 M52.35 59.95 L52.1 60.3 52.7 60.9 52.55 61.8 Q51.95 62.5 51.05 62.65 L49.9 62.85 Q49.05 62.7 48.35 62.15 L51.6 60.35 51.15 60.35 51.15 59.45 51.7 59.15 52.35 59.95 M53.15 52.3 L55.25 52.35 55.8 53.45 Q54.95 55.45 53.2 55.95 L53.0 55.5 Q52.35 53.75 53.15 52.3 M50.8 59.65 Q49.45 60.1 49.2 58.95 L49.5 58.55 Q49.75 58.3 49.95 58.25 50.65 58.1 51.1 58.65 L51.25 58.85 51.25 59.1 51.1 59.4 50.8 59.65 M51.25 55.25 L51.25 56.1 Q50.75 57.35 49.35 57.1 L49.0 57.4 47.35 57.05 47.3 56.5 48.45 55.9 48.4 55.0 Q48.1 54.85 47.95 54.5 47.45 53.55 48.1 52.65 L49.05 52.3 Q49.65 52.35 50.0 52.75 50.65 53.45 50.3 54.45 L51.25 55.25 M46.15 55.35 Q47.65 56.6 45.7 56.55 L45.5 56.45 Q45.15 55.75 45.85 55.45 45.95 55.35 46.15 55.35 M44.25 58.1 L44.95 57.4 45.8 57.75 46.15 57.6 47.5 58.55 48.15 58.0 49.15 58.5 48.9 59.9 48.25 60.1 47.35 59.75 Q46.75 60.4 45.9 60.15 44.7 59.85 44.7 58.65 L44.25 58.1 M47.05 61.5 L47.7 62.15 47.9 62.05 Q49.4 63.3 47.45 63.3 L47.25 63.15 47.2 63.15 47.0 63.25 Q45.5 62.25 47.0 61.55 L47.05 61.5" fill="#979a7a" fill-rule="evenodd" stroke="none"/>
    <path d="M83.45 15.35 L33.9 38.35 33.9 38.3 33.85 38.35 33.65 38.45 1.85 26.95 2.35 26.3 Q8.3 24.4 13.95 21.55 16.35 20.35 19.0 19.75 L25.5 18.3 27.4 17.85 28.65 17.6 32.4 16.6 Q35.7 15.6 38.45 13.55 41.1 12.45 43.85 11.5 L46.65 10.55 Q49.2 11.2 51.95 10.45 53.4 10.05 54.55 9.2 L55.9 8.05 63.95 6.4 65.25 6.0 65.35 6.05 Q66.95 9.15 72.2 9.5 L72.45 9.65 Q76.7 11.95 81.55 13.0 L83.1 14.15 83.45 15.35" fill="#62624d" fill-rule="evenodd" stroke="none"/>
    <path d="M33.85 38.35 Q32.45 49.25 32.9 61.05 33.3 71.2 31.75 80.8 L21.9 74.35 23.75 73.2 Q27.2 77.8 28.3 72.55 28.65 70.8 26.85 70.1 L24.75 71.3 24.55 70.1 Q27.85 68.05 25.25 65.15 L23.95 64.25 22.6 64.95 22.05 63.85 23.95 60.45 26.6 59.25 Q31.95 61.9 30.7 56.2 31.45 55.9 31.4 55.1 31.3 53.8 30.1 53.45 L28.75 54.35 28.75 53.7 29.9 52.7 28.6 50.85 27.2 51.85 26.0 51.4 23.7 55.3 22.65 59.05 20.7 58.4 20.55 57.75 20.9 56.45 19.55 55.2 18.6 55.55 18.1 56.55 17.4 56.45 17.25 55.75 18.55 51.55 20.9 49.9 19.55 48.8 18.15 49.8 17.2 49.65 16.6 49.9 15.45 47.6 14.5 47.95 Q14.1 48.6 14.3 49.25 14.55 50.35 15.75 50.5 L13.9 53.1 13.65 52.85 Q14.8 51.75 13.95 50.55 13.15 49.4 11.8 48.9 13.45 47.95 12.55 46.35 11.7 44.95 10.2 44.4 L9.85 44.55 9.4 43.9 8.15 43.55 7.65 43.75 7.55 43.25 9.4 40.25 10.0 40.35 11.15 37.75 9.9 37.4 8.55 39.6 7.4 38.0 7.95 34.25 6.9 33.95 6.5 31.6 5.25 31.25 4.1 31.55 1.45 28.35 0.7 28.55 1.85 26.95 33.65 38.45 33.85 38.35 M29.25 39.8 L28.9 39.65 28.3 39.45 28.3 39.5 27.45 39.75 27.25 39.35 26.9 38.9 26.55 38.75 26.5 38.7 Q25.75 38.05 24.2 37.65 23.65 37.75 23.1 38.15 19.9 40.2 22.8 42.7 23.55 43.35 24.3 43.35 24.25 44.05 24.7 44.7 20.4 46.0 23.15 49.55 24.1 50.75 25.35 49.95 27.5 48.6 27.6 47.4 L29.2 47.3 Q30.05 48.3 31.3 47.55 L31.7 46.85 31.8 46.45 31.6 45.75 31.3 45.35 30.95 45.15 30.35 45.0 30.25 45.05 30.55 44.55 30.65 44.1 30.45 43.45 30.35 43.35 Q30.4 42.35 29.55 41.6 L29.65 41.35 29.8 40.9 29.6 40.25 29.25 39.8 M28.3 61.25 L27.75 61.05 27.3 61.15 26.9 61.3 26.55 61.75 26.3 62.15 26.3 62.8 Q26.3 63.45 26.8 63.9 27.4 64.4 28.15 64.2 L28.7 63.75 Q29.65 62.55 28.7 61.45 L28.3 61.25" fill="#4f4f3e" fill-rule="evenodd" stroke="none"/>
    <path d="M83.45 15.35 L84.0 18.1 83.1 26.65 80.8 35.9 80.7 34.85 79.7 34.6 Q80.9 33.85 80.55 32.55 80.3 31.7 79.45 31.55 L78.8 31.85 77.7 31.25 76.6 31.75 75.95 31.55 Q75.1 31.65 74.8 32.35 74.55 32.85 74.55 33.5 L73.25 31.8 73.3 31.25 74.45 30.5 Q74.9 29.4 73.85 28.85 L72.45 28.7 71.85 30.1 71.1 30.4 Q70.45 30.1 69.75 30.4 L68.45 30.9 68.3 30.45 Q67.85 29.65 66.85 29.5 L65.6 30.4 Q65.15 32.05 66.7 32.95 67.4 33.35 68.1 32.95 L68.65 34.1 68.35 34.05 67.6 34.8 68.3 35.4 67.4 35.7 66.85 36.5 66.35 36.75 66.0 36.65 65.35 37.25 65.6 38.65 65.25 39.05 64.25 38.4 63.7 38.7 63.7 39.9 64.4 40.1 63.8 40.8 Q63.4 41.5 63.7 42.4 L63.1 43.45 63.15 44.35 62.2 44.15 61.5 44.7 Q61.0 45.15 61.05 45.85 L60.7 46.1 59.3 45.0 Q57.85 45.3 58.1 46.75 58.15 47.45 58.75 47.75 L59.85 47.75 60.3 48.95 59.8 49.1 Q59.15 48.6 58.45 48.7 L56.9 49.0 56.45 48.25 Q54.3 47.15 52.05 47.25 L51.4 48.1 51.85 50.05 Q53.65 51.2 55.8 50.8 L56.5 53.3 55.45 56.3 54.9 56.1 51.95 57.2 51.9 57.9 52.65 58.2 52.7 58.8 Q53.95 59.5 55.3 59.15 L55.9 58.85 56.15 57.55 57.75 57.7 32.15 81.05 31.75 80.8 Q33.3 71.2 32.9 61.05 32.45 49.25 33.85 38.35 L33.9 38.35 83.45 15.35 M78.5 23.45 L78.25 23.7 76.8 23.1 76.15 23.6 Q75.8 24.5 76.4 25.25 77.15 26.3 78.4 25.45 L80.75 25.4 80.9 25.35 80.7 23.15 Q79.5 22.6 78.5 23.45 M52.8 35.7 L53.0 35.85 Q54.95 35.85 53.45 34.6 L53.15 34.7 Q52.45 35.0 52.8 35.7 M55.2 32.0 L55.2 32.05 Q53.6 32.85 55.5 33.45 L55.7 33.3 Q56.8 32.25 55.2 32.0 M53.75 36.35 L53.75 36.4 Q52.3 37.15 53.7 37.7 L52.8 38.05 Q52.45 38.3 52.35 38.7 52.15 39.25 52.4 39.8 53.3 41.1 54.7 40.25 L55.1 39.55 55.2 39.15 55.0 38.45 54.7 38.05 54.3 37.85 54.2 37.8 54.25 37.7 Q55.3 36.65 53.75 36.35 M57.55 36.95 L57.25 37.05 Q56.55 37.35 56.9 38.05 L57.1 38.15 Q58.05 38.15 58.2 37.85 L57.55 36.95 M58.7 32.85 L58.4 32.95 Q57.7 33.25 58.05 33.95 L58.25 34.05 Q60.2 34.1 58.7 32.85 M55.4 36.0 L55.65 36.1 Q57.55 36.15 56.05 34.9 L55.8 35.0 Q55.1 35.3 55.4 36.0 M59.85 35.95 L61.95 35.8 Q63.2 36.5 64.35 36.1 L63.4 33.9 62.3 34.4 60.75 33.6 Q59.75 34.45 59.8 35.85 L59.85 35.95 M47.3 35.0 Q46.65 35.3 46.95 36.0 L47.15 36.1 Q49.1 36.15 47.6 34.9 L47.3 35.0 M50.2 33.75 L49.95 33.85 Q49.25 34.15 49.55 34.85 L49.8 34.95 Q51.75 35.0 50.2 33.75 M49.7 38.75 L49.65 38.7 49.65 38.75 Q48.1 39.5 49.65 40.45 L49.9 40.35 Q50.95 39.4 49.7 38.75 M46.75 38.4 L46.7 38.45 Q45.15 39.3 47.0 39.9 L47.25 39.75 Q48.3 38.7 46.75 38.4 M49.1 41.7 Q48.35 42.45 48.8 43.45 L49.65 44.0 50.85 43.8 51.05 44.4 51.25 44.9 52.0 45.45 53.55 44.8 53.6 43.75 Q53.3 42.8 52.25 42.65 L51.9 41.8 51.15 41.9 49.95 41.2 Q49.45 41.3 49.1 41.7 M50.6 45.65 L50.2 45.45 49.65 45.25 49.65 45.3 48.7 45.65 Q48.35 45.9 48.25 46.3 48.05 46.85 48.35 47.4 49.2 48.7 50.6 47.85 L51.0 47.15 51.1 46.75 50.9 46.05 50.6 45.65 M45.25 45.55 L45.25 45.6 44.3 45.95 Q43.95 46.2 43.85 46.6 43.65 47.15 43.95 47.7 44.8 49.0 46.2 48.1 L46.6 47.45 46.75 47.05 46.5 46.35 46.2 45.95 45.85 45.75 45.25 45.55 M43.5 39.9 L43.2 40.0 Q42.55 40.3 42.85 41.0 L43.1 41.1 Q45.0 41.1 43.5 39.9 M43.5 42.8 L43.2 42.9 Q42.55 43.2 42.85 43.9 L43.1 44.0 Q45.0 44.05 43.5 42.8 M46.75 48.8 L45.8 49.4 Q45.35 50.55 46.3 51.4 L47.75 51.5 47.95 51.95 49.1 52.2 50.45 51.9 51.15 51.2 50.9 49.45 49.95 49.05 48.35 49.7 47.8 49.05 46.75 48.8 M58.25 37.9 Q58.1 38.1 58.1 38.4 58.1 39.05 58.75 39.55 L60.3 40.0 Q61.2 40.0 61.85 39.55 62.5 39.05 62.5 38.4 62.5 37.75 61.85 37.25 61.2 36.75 60.3 36.8 59.4 36.75 58.75 37.25 L58.25 37.9 M56.4 39.3 L56.35 39.3 56.35 39.35 Q55.75 39.4 55.25 39.8 L55.1 40.25 55.1 40.7 Q56.1 41.4 57.15 40.55 L57.3 40.3 Q57.5 39.3 56.4 39.3 M59.9 41.05 L59.85 41.05 59.85 41.1 Q58.4 41.85 59.85 42.4 L59.9 42.95 59.0 42.8 Q58.8 42.85 58.55 43.05 L58.25 43.4 58.1 43.4 58.1 43.45 Q56.55 44.25 58.4 44.85 L58.65 44.7 59.0 44.3 59.85 44.15 60.3 43.65 62.3 43.75 62.7 43.05 62.8 42.65 62.6 41.95 62.3 41.55 61.9 41.35 61.35 41.2 60.75 41.45 Q60.55 41.15 59.9 41.05 M54.05 42.2 L54.75 42.55 Q54.3 43.1 54.2 43.8 54.05 44.7 54.75 45.25 55.95 45.25 56.7 44.15 57.7 42.6 55.75 41.4 L54.6 41.05 54.0 41.75 54.05 42.2 M77.65 27.6 L76.8 26.15 76.25 26.0 74.4 26.65 Q73.5 27.8 74.6 28.8 L76.25 28.9 Q77.95 31.85 79.05 29.45 79.7 27.9 78.0 27.45 77.8 27.55 77.65 27.6 M65.7 34.6 L65.45 34.7 Q64.75 35.0 65.05 35.7 L65.25 35.85 Q67.2 35.85 65.7 34.6 M62.8 39.9 L62.5 40.0 Q61.8 40.3 62.15 41.0 L62.35 41.1 Q64.3 41.1 62.8 39.9 M40.35 54.95 Q40.85 55.7 41.75 55.8 L42.25 55.55 43.8 55.8 Q44.6 55.5 44.85 54.6 L44.45 53.25 43.5 52.85 42.45 53.35 41.45 52.85 40.5 53.25 40.05 54.45 40.35 54.95 M53.15 52.3 Q52.35 53.75 53.0 55.5 L53.2 55.95 Q54.95 55.45 55.8 53.45 L55.25 52.35 53.15 52.3 M52.35 59.95 L51.7 59.15 51.15 59.45 51.15 60.35 51.6 60.35 48.35 62.15 Q49.05 62.7 49.9 62.85 L51.05 62.65 Q51.95 62.5 52.55 61.8 L52.7 60.9 52.1 60.3 52.35 59.95 M50.8 59.65 L51.1 59.4 51.25 59.1 51.25 58.85 51.1 58.65 Q50.65 58.1 49.95 58.25 49.75 58.3 49.5 58.55 L49.2 58.95 Q49.45 60.1 50.8 59.65 M51.25 55.25 L50.3 54.45 Q50.65 53.45 50.0 52.75 49.65 52.35 49.05 52.3 L48.1 52.65 Q47.45 53.55 47.95 54.5 48.1 54.85 48.4 55.0 L48.45 55.9 47.3 56.5 47.35 57.05 49.0 57.4 49.35 57.1 Q50.75 57.35 51.25 56.1 L51.25 55.25 M46.15 55.35 Q45.95 55.35 45.85 55.45 45.15 55.75 45.5 56.45 L45.7 56.55 Q47.65 56.6 46.15 55.35 M44.25 58.1 L44.7 58.65 Q44.7 59.85 45.9 60.15 46.75 60.4 47.35 59.75 L48.25 60.1 48.9 59.9 49.15 58.5 48.15 58.0 47.5 58.55 46.15 57.6 45.8 57.75 44.95 57.4 44.25 58.1 M47.05 61.5 L47.0 61.5 47.0 61.55 Q45.5 62.25 47.0 63.25 L47.2 63.15 47.25 63.15 47.45 63.3 Q49.4 63.3 47.9 62.05 L47.7 62.15 47.05 61.5" fill="#818165" fill-rule="evenodd" stroke="none"/>
    <path d="M83.45 15.35 L33.9 38.35 33.85 38.35 33.65 38.45 1.85 26.95" ffdec:has-small-stroke="true" ffdec:original-stroke-width="0.05" fill="none" stroke="#000000" stroke-linecap="round" stroke-linejoin="round" stroke-opacity="0.5019608" stroke-width="1.0"/>
    <path d="M83.45 15.35 L83.1 14.15 81.55 13.0 Q76.7 11.95 72.45 9.65 L72.2 9.5 Q66.95 9.15 65.35 6.05 L65.25 6.0 63.95 6.4 55.9 8.05 54.55 9.2 Q53.4 10.05 51.95 10.45 49.2 11.2 46.65 10.55 L43.85 11.5 Q41.1 12.45 38.45 13.55 35.7 15.6 32.4 16.6 L27.4 17.85 25.5 18.3 19.0 19.75 Q16.35 20.35 13.95 21.55 8.3 24.4 2.35 26.3 L1.85 26.95 Q0.7 28.35 0.0 29.9 L2.45 61.65 31.85 81.9 80.55 36.85 83.1 26.65 Q83.2 22.25 84.0 18.1 L83.45 15.35 Z" fill="none" stroke="#474738" stroke-linecap="round" stroke-linejoin="round" stroke-width="2.0"/>
  </g>
</svg>
