<?xml version="1.0" encoding="UTF-8" standalone="no"?>
<svg xmlns:ffdec="https://www.free-decompiler.com/flash" xmlns:xlink="http://www.w3.org/1999/xlink" ffdec:objectType="shape" height="78.15px" width="64.45px" xmlns="http://www.w3.org/2000/svg">
  <g transform="matrix(1.0, 0.0, 0.0, 1.0, -243.25, -160.9)">
    <path d="M281.6 164.7 Q279.15 164.1 275.5 165.15 266.3 167.75 261.5 171.2 256.7 174.7 253.55 181.0 250.7 186.95 250.2 193.8 249.65 201.35 251.75 208.6 254.15 216.75 259.3 221.8 273.35 235.2 291.05 217.8 296.75 212.05 298.6 201.8 300.05 192.85 298.05 184.2 296.2 176.15 291.95 171.05 287.65 165.95 281.6 164.7 M266.3 165.7 Q268.85 164.4 271.3 163.6 280.95 160.1 288.75 163.75 298.4 168.3 302.7 181.55 307.95 198.2 300.95 213.7 294.9 226.7 283.05 231.2 276.4 233.65 268.75 233.2 259.85 232.65 253.65 224.8 248.55 218.35 246.85 208.8 245.15 200.5 246.6 192.4 247.75 184.85 251.1 179.25 256.25 170.6 266.3 165.7 M280.7 178.15 Q280.7 175.0 281.9 174.05 283.65 172.4 285.95 173.85 287.95 175.15 289.7 178.5 291.4 181.85 291.75 185.25 291.95 189.1 289.95 190.55 284.3 194.25 281.6 184.75 280.55 181.3 280.7 178.15 M283.15 183.9 Q285.3 189.6 288.2 188.05 289.85 187.05 289.65 184.4 289.35 182.15 287.95 179.75 286.55 177.5 285.1 176.6 283.45 175.55 282.65 176.9 281.15 178.75 283.15 183.9 M265.2 211.0 Q265.25 212.15 264.5 212.55 263.25 213.25 262.35 210.75 261.4 208.45 262.05 207.65 262.4 207.05 263.15 207.5 L264.45 208.9 265.2 211.0" fill="#ffff66" fill-rule="evenodd" stroke="none"/>
    <path d="M275.7 166.45 Q271.7 167.3 267.85 169.3 256.85 174.85 253.1 185.9 251.45 190.7 253.2 199.4 254.65 207.85 258.9 213.05 263.9 219.2 270.0 216.9 289.7 211.8 283.25 193.75 282.75 191.5 281.4 188.35 279.7 184.8 279.15 183.2 276.65 177.45 278.7 174.0 279.2 173.0 282.1 171.4 284.55 169.8 284.6 169.65 284.7 168.65 283.55 167.6 282.25 166.5 280.45 166.1 L275.7 166.45 M281.6 164.7 Q287.65 165.95 291.95 171.05 296.2 176.15 298.05 184.2 300.05 192.85 298.6 201.8 296.75 212.05 291.05 217.8 273.35 235.2 259.3 221.8 254.15 216.75 251.75 208.6 249.65 201.35 250.2 193.8 250.7 186.95 253.55 181.0 256.7 174.7 261.5 171.2 266.3 167.75 275.5 165.15 279.15 164.1 281.6 164.7 M280.7 178.15 Q280.55 181.3 281.6 184.75 284.3 194.25 289.95 190.55 291.95 189.1 291.75 185.25 291.4 181.85 289.7 178.5 287.95 175.15 285.95 173.85 283.65 172.4 281.9 174.05 280.7 175.0 280.7 178.15" fill="#fdd73e" fill-rule="evenodd" stroke="none"/>
    <path d="M275.7 166.45 L280.45 166.1 Q282.25 166.5 283.55 167.6 284.7 168.65 284.6 169.65 284.55 169.8 282.1 171.4 279.2 173.0 278.7 174.0 276.65 177.45 279.15 183.2 279.7 184.8 281.4 188.35 282.75 191.5 283.25 193.75 289.7 211.8 270.0 216.9 263.9 219.2 258.9 213.05 254.65 207.85 253.2 199.4 251.45 190.7 253.1 185.9 256.85 174.85 267.85 169.3 271.7 167.3 275.7 166.45 M265.2 211.0 L264.45 208.9 263.15 207.5 Q262.4 207.05 262.05 207.65 261.4 208.45 262.35 210.75 263.25 213.25 264.5 212.55 265.25 212.15 265.2 211.0" fill="url(#gradient0)" fill-rule="evenodd" stroke="none"/>
    <path d="M283.15 183.9 Q281.15 178.75 282.65 176.9 283.45 175.55 285.1 176.6 286.55 177.5 287.95 179.75 289.35 182.15 289.65 184.4 289.85 187.05 288.2 188.05 285.3 189.6 283.15 183.9" fill="#ffffff" fill-rule="evenodd" stroke="none"/>
    <path d="M306.6 216.35 Q304.9 225.7 294.9 232.4 284.9 239.05 272.4 239.05 259.9 239.05 252.3 232.4 244.6 225.7 246.25 216.35 247.85 206.9 257.85 200.25 267.9 193.55 280.4 193.55 292.9 193.55 300.55 200.25 308.25 206.9 306.6 216.35" fill="url(#gradient1)" fill-rule="evenodd" stroke="none"/>
    <path d="M266.3 165.75 Q256.25 170.65 251.1 179.3 247.75 184.9 246.55 192.45 245.15 200.5 246.85 208.8 248.55 218.4 253.7 224.85 259.85 232.7 268.7 233.2 276.4 233.65 283.0 231.25 294.9 226.7 301.0 213.7 308.0 198.25 302.75 181.55 298.4 168.3 288.75 163.8 280.95 160.15 271.3 163.6 268.85 164.4 266.3 165.75 M270.6 162.55 Q278.65 159.75 286.0 161.75 294.55 164.15 300.55 172.6 302.75 175.8 304.35 179.5 307.45 186.7 307.7 195.25 308.15 212.1 297.2 223.85 291.25 230.1 283.8 232.9 276.95 235.45 269.55 235.05 255.85 234.15 249.85 225.45 244.0 216.8 243.4 205.75 243.1 203.05 243.5 200.55 243.75 193.9 246.3 187.45 249.1 179.4 254.55 173.35 260.0 167.3 267.3 163.95 268.95 163.1 270.6 162.55" fill="#663333" fill-rule="evenodd" stroke="none"/>
  </g>
  <defs>
    <linearGradient gradientTransform="matrix(0.0037, -0.0211, 0.0316, 0.0, 269.05, 192.45)" gradientUnits="userSpaceOnUse" id="gradient0" spreadMethod="pad" x1="-819.2" x2="819.2">
      <stop offset="0.0" stop-color="#eca602"/>
      <stop offset="1.0" stop-color="#fdd73e"/>
    </linearGradient>
    <radialGradient cx="0" cy="0" gradientTransform="matrix(0.0298, -0.0198, 0.0228, 0.0198, 276.35, 216.35)" gradientUnits="userSpaceOnUse" id="gradient1" r="819.2" spreadMethod="pad">
      <stop offset="0.0" stop-color="#ffff99"/>
      <stop offset="1.0" stop-color="#ffffff" stop-opacity="0.0"/>
    </radialGradient>
  </defs>
</svg>
