<?xml version="1.0" encoding="UTF-8" standalone="no"?>
<svg xmlns:ffdec="https://www.free-decompiler.com/flash" xmlns:xlink="http://www.w3.org/1999/xlink" ffdec:objectType="shape" height="78.25px" width="64.45px" xmlns="http://www.w3.org/2000/svg">
  <g transform="matrix(1.0, 0.0, 0.0, 1.0, -243.25, -160.85)">
    <path d="M266.35 165.7 Q268.85 164.35 271.3 163.55 280.95 160.05 288.8 163.75 298.4 168.25 302.7 181.5 308.0 198.15 301.0 213.65 294.95 226.7 283.05 231.2 276.45 233.6 268.75 233.15 259.9 232.65 253.7 224.8 248.55 218.35 246.85 208.75 245.15 200.5 246.6 192.4 247.75 184.85 251.1 179.25 256.25 170.6 266.35 165.7 M281.6 164.7 Q279.15 164.1 275.5 165.15 266.3 167.75 261.5 171.2 256.7 174.65 253.55 180.95 250.7 186.9 250.2 193.75 249.7 201.3 251.75 208.55 254.2 216.7 259.35 221.75 273.35 235.15 291.05 217.8 296.75 212.05 298.6 201.75 300.05 192.85 298.1 184.2 296.2 176.15 291.95 171.05 287.65 165.95 281.6 164.7" fill="url(#gradient0)" fill-rule="evenodd" stroke="none"/>
    <path d="M280.45 166.1 L275.7 166.45 Q271.7 167.3 267.85 169.25 256.85 174.8 253.1 185.9 251.5 190.7 253.25 199.4 254.65 207.85 258.95 213.0 263.9 219.15 270.05 216.9 289.7 211.75 283.3 193.7 282.8 191.45 281.4 188.3 L279.15 183.15 Q276.65 177.4 278.75 173.95 279.2 173.0 282.1 171.4 L284.65 169.6 Q284.7 168.6 283.55 167.55 282.25 166.5 280.45 166.1 M281.6 164.7 Q287.65 165.95 291.95 171.05 296.2 176.15 298.1 184.2 300.05 192.85 298.6 201.75 296.75 212.05 291.05 217.8 273.35 235.15 259.35 221.75 254.2 216.7 251.75 208.55 249.7 201.3 250.2 193.75 250.7 186.9 253.55 180.95 256.7 174.65 261.5 171.2 266.3 167.75 275.5 165.15 279.15 164.1 281.6 164.7 M280.7 178.15 Q280.55 181.3 281.6 184.75 284.3 194.25 290.0 190.55 292.0 189.1 291.75 185.25 291.45 181.85 289.75 178.5 287.95 175.1 285.95 173.8 283.65 172.35 281.9 174.0 280.7 175.0 280.7 178.15" fill="#458f53" fill-rule="evenodd" stroke="none"/>
    <path d="M280.45 166.1 Q282.25 166.5 283.55 167.55 284.7 168.6 284.65 169.6 L282.1 171.4 Q279.2 173.0 278.75 173.95 276.65 177.4 279.15 183.15 L281.4 188.3 Q282.8 191.45 283.3 193.7 289.7 211.75 270.05 216.9 263.9 219.15 258.95 213.0 254.65 207.85 253.25 199.4 251.5 190.7 253.1 185.9 256.85 174.8 267.85 169.25 271.7 167.3 275.7 166.45 L280.45 166.1 M265.2 211.0 L264.45 208.85 263.15 207.45 Q262.4 207.0 262.05 207.6 261.45 208.45 262.35 210.75 263.3 213.25 264.55 212.55 265.3 212.15 265.2 211.0" fill="url(#gradient1)" fill-rule="evenodd" stroke="none"/>
    <path d="M283.15 183.9 Q285.3 189.6 288.2 188.0 289.85 187.0 289.65 184.4 289.35 182.15 288.0 179.75 286.55 177.45 285.1 176.55 283.45 175.5 282.65 176.85 281.2 178.75 283.15 183.9 M280.7 178.15 Q280.7 175.0 281.9 174.0 283.65 172.35 285.95 173.8 287.95 175.1 289.75 178.5 291.45 181.85 291.75 185.25 292.0 189.1 290.0 190.55 284.3 194.25 281.6 184.75 280.55 181.3 280.7 178.15" fill="url(#gradient2)" fill-rule="evenodd" stroke="none"/>
    <path d="M283.15 183.9 Q281.2 178.75 282.65 176.85 283.45 175.5 285.1 176.55 286.55 177.45 288.0 179.75 289.35 182.15 289.65 184.4 289.85 187.0 288.2 188.0 285.3 189.6 283.15 183.9" fill="#ffffff" fill-rule="evenodd" stroke="none"/>
    <path d="M265.2 211.0 Q265.3 212.15 264.55 212.55 263.3 213.25 262.35 210.75 261.45 208.45 262.05 207.6 262.4 207.0 263.15 207.45 L264.45 208.85 265.2 211.0" fill="#53865a" fill-rule="evenodd" stroke="none"/>
    <path d="M270.95 239.1 Q258.45 239.1 250.85 232.45 243.15 225.75 244.8 216.35 246.4 206.95 256.4 200.3 266.45 193.6 278.95 193.6 291.45 193.6 299.1 200.3 306.8 206.95 305.15 216.35 303.45 225.75 293.45 232.45 283.45 239.1 270.95 239.1" fill="url(#gradient3)" fill-rule="evenodd" stroke="none"/>
    <path d="M266.3 165.7 Q256.25 170.6 251.1 179.25 247.75 184.85 246.55 192.4 245.15 200.45 246.85 208.75 248.55 218.35 253.7 224.8 259.85 232.65 268.7 233.15 276.4 233.6 283.0 231.2 294.9 226.65 301.0 213.65 308.0 198.2 302.75 181.5 298.4 168.25 288.75 163.75 280.95 160.1 271.3 163.55 268.85 164.35 266.3 165.7 M270.6 162.5 Q278.65 159.7 286.0 161.7 294.55 164.1 300.55 172.55 302.75 175.75 304.35 179.45 307.45 186.65 307.7 195.2 308.15 212.05 297.2 223.8 291.25 230.05 283.8 232.85 276.95 235.4 269.55 235.0 255.85 234.1 249.85 225.4 244.0 216.75 243.4 205.7 243.1 203.0 243.5 200.5 243.75 193.85 246.3 187.4 249.1 179.35 254.55 173.3 260.0 167.25 267.3 163.9 268.95 163.05 270.6 162.5" fill="#455c45" fill-rule="evenodd" stroke="none"/>
  </g>
  <defs>
    <radialGradient cx="0" cy="0" gradientTransform="matrix(0.0445, 0.0, -0.0077, 0.0442, 275.45, 197.5)" gradientUnits="userSpaceOnUse" id="gradient0" r="819.2" spreadMethod="pad">
      <stop offset="0.6823529411764706" stop-color="#64b574"/>
      <stop offset="1.0" stop-color="#53865a"/>
    </radialGradient>
    <linearGradient gradientTransform="matrix(0.0037, -0.0211, 0.0316, 0.0, 269.1, 192.4)" gradientUnits="userSpaceOnUse" id="gradient1" spreadMethod="pad" x1="-819.2" x2="819.2">
      <stop offset="0.0" stop-color="#17411f"/>
      <stop offset="1.0" stop-color="#458f53"/>
    </linearGradient>
    <radialGradient cx="0" cy="0" gradientTransform="matrix(0.0126, 0.0, -0.0022, 0.0125, 286.2, 182.4)" gradientUnits="userSpaceOnUse" id="gradient2" r="819.2" spreadMethod="pad">
      <stop offset="0.6823529411764706" stop-color="#64b574"/>
      <stop offset="1.0" stop-color="#53865a"/>
    </radialGradient>
    <radialGradient cx="0" cy="0" gradientTransform="matrix(0.0298, -0.0198, 0.0228, 0.0198, 274.9, 216.35)" gradientUnits="userSpaceOnUse" id="gradient3" r="819.2" spreadMethod="pad">
      <stop offset="0.0" stop-color="#b8fabe" stop-opacity="0.49019608"/>
      <stop offset="1.0" stop-color="#ffffff" stop-opacity="0.0"/>
    </radialGradient>
  </defs>
</svg>
