<?xml version="1.0" encoding="UTF-8" standalone="no"?>
<svg xmlns:ffdec="https://www.free-decompiler.com/flash" xmlns:xlink="http://www.w3.org/1999/xlink" ffdec:objectType="shape" height="57.3px" width="107.55px" xmlns="http://www.w3.org/2000/svg">
  <g transform="matrix(1.0, 0.0, 0.0, 1.0, 53.75, 28.65)">
    <path d="M-16.65 -24.65 L-20.15 -20.85 Q-21.85 -15.5 -20.15 -16.55 -14.35 -19.2 -12.9 -24.65 -13.8 -27.35 -16.65 -24.65 M-5.2 -13.65 L-12.3 -19.8 Q-13.7 -16.75 -17.45 -14.95 -20.05 -13.4 -22.7 -14.25 L-23.4 -15.75 Q-22.6 -24.05 -17.15 -27.0 -13.85 -28.75 -11.0 -27.85 L-4.75 -22.25 -4.75 -19.25 -4.75 -16.25 Q-4.75 -14.95 -5.2 -13.65 M12.25 -10.35 L3.75 -8.6 -3.85 -12.2 -3.45 -13.6 -2.65 -20.35 -0.5 -18.45 Q5.95 -13.7 12.25 -10.35" fill="url(#gradient0)" fill-rule="evenodd" stroke="none"/>
    <path d="M-20.15 -20.85 L-16.65 -24.65 Q-13.8 -27.35 -12.9 -24.65 -14.35 -19.2 -20.15 -16.55 -21.85 -15.5 -20.15 -20.85 M-22.7 -14.25 Q-20.05 -13.4 -17.45 -14.95 -13.7 -16.75 -12.3 -19.8 L-5.2 -13.65 Q-6.2 -10.8 -9.35 -7.9 -5.15 -9.4 -3.85 -12.2 L3.75 -8.6 12.25 -10.35 Q14.6 -9.1 16.95 -8.0 L15.4 -7.65 -11.55 -4.4 Q-18.8 -6.8 -22.7 -14.25 M-46.85 16.95 Q-43.15 14.7 -42.45 8.5 L-28.25 7.15 -24.2 9.85 -25.65 7.3 5.45 3.6 Q3.15 6.75 -0.25 9.6 L-6.35 13.2 -10.3 15.55 -44.9 17.1 -46.85 16.95 M-45.9 7.15 Q-45.95 10.15 -47.6 14.1 -49.55 14.3 -49.5 9.55 L-48.2 5.95 Q-47.95 7.65 -45.9 7.15 M6.3 3.05 Q23.75 1.15 39.35 -3.6 L45.45 -5.5 47.95 -6.3 52.55 -2.8 Q54.5 2.85 51.35 6.45 50.65 11.85 -3.45 15.15 L1.1 11.2 Q3.75 8.95 6.3 3.05 M10.25 22.75 L10.05 19.8 14.7 19.8 15.15 20.6 10.25 22.75 M-40.3 24.1 L-42.5 28.15 -53.25 21.65 -42.75 26.0 -40.3 24.1" fill="#781f14" fill-rule="evenodd" stroke="none"/>
    <path d="M-5.2 -13.65 Q-4.75 -14.95 -4.75 -16.25 L-4.75 -19.25 -2.65 -20.35 -3.45 -13.6 -3.85 -12.2 Q-5.15 -9.4 -9.35 -7.9 -6.2 -10.8 -5.2 -13.65 M-28.25 7.15 Q-29.65 2.45 -32.85 0.35 L-31.45 -2.8 -29.6 -4.4 Q-25.15 -2.0 -25.55 1.25 L-27.15 4.75 -25.65 7.3 -24.2 9.85 -28.25 7.15 M-6.35 13.2 L-0.25 9.6 Q3.15 6.75 5.45 3.6 L7.35 0.4 6.3 3.05 Q3.75 8.95 1.1 11.2 L-3.45 15.15 -6.35 13.2 M39.35 -3.6 L47.15 -8.7 45.45 -5.5 39.35 -3.6" fill="#54150e" fill-rule="evenodd" stroke="none"/>
    <path d="M-11.55 -4.4 L15.4 -7.65 16.95 -8.0 39.35 -13.3 47.15 -8.7 39.35 -3.6 Q23.75 1.15 6.3 3.05 L7.35 0.4 5.45 3.6 -25.65 7.3 -27.15 4.75 -25.55 1.25 Q-25.15 -2.0 -29.6 -4.4 L-11.55 -4.4 M-28.25 7.15 L-42.45 8.5 Q-43.15 14.7 -46.85 16.95 -51.55 16.1 -52.2 11.2 -52.2 5.55 -49.5 3.65 L-48.05 3.65 -48.2 5.9 -48.2 5.95 -49.5 9.55 Q-49.55 14.3 -47.6 14.1 -45.95 10.15 -45.9 7.15 -45.9 5.2 -46.55 3.65 L-45.45 3.65 -36.85 -1.2 Q-34.6 -0.8 -32.85 0.35 -29.65 2.45 -28.25 7.15" fill="url(#gradient1)" fill-rule="evenodd" stroke="none"/>
    <path d="M10.05 19.8 L6.55 19.0 Q12.7 16.95 14.7 19.8 L10.05 19.8 M-40.3 24.1 L-42.75 26.0 -53.25 21.65 -40.3 24.1" fill="#b5561a" fill-rule="evenodd" stroke="none"/>
    <path d="M6.55 19.0 L10.05 19.8 10.25 22.75 Q5.45 20.35 6.55 19.0" fill="#9e3919" fill-rule="evenodd" stroke="none"/>
    <path d="M-16.65 -24.65 Q-13.8 -27.35 -12.9 -24.65 -14.35 -19.2 -20.15 -16.55 -21.85 -15.5 -20.15 -20.85 M-5.2 -13.65 Q-4.75 -14.95 -4.75 -16.25 L-4.75 -19.25 -4.75 -22.25 -11.0 -27.85 Q-13.85 -28.75 -17.15 -27.0 -22.6 -24.05 -23.4 -15.75 L-22.7 -14.25 Q-18.8 -6.8 -11.55 -4.4 L15.4 -7.65 16.95 -8.0 Q14.6 -9.1 12.25 -10.35 5.95 -13.7 -0.5 -18.45 L-2.65 -20.35 -3.45 -13.6 -3.85 -12.2 Q-5.15 -9.4 -9.35 -7.9 -6.2 -10.8 -5.2 -13.65 M-28.25 7.15 Q-29.65 2.45 -32.85 0.35 -34.6 -0.8 -36.85 -1.2 L-45.45 3.65 -46.55 3.65 Q-45.9 5.2 -45.9 7.15 -45.95 10.15 -47.6 14.1 -49.55 14.3 -49.5 9.55 M-48.2 5.9 L-48.05 3.65 -49.5 3.65 Q-52.2 5.55 -52.2 11.2 -51.55 16.1 -46.85 16.95 L-44.9 17.1 -10.3 15.55 -6.35 13.2 -0.25 9.6 Q3.15 6.75 5.45 3.6 L7.35 0.4 6.3 3.05 Q3.75 8.95 1.1 11.2 L-3.45 15.15 Q50.65 11.85 51.35 6.45 54.5 2.85 52.55 -2.8 L47.95 -6.3 45.45 -5.5 39.35 -3.6 47.15 -8.7 39.35 -13.3 16.95 -8.0 M-25.65 7.3 L-24.2 9.85 -28.25 7.15 M-32.85 0.35 L-31.45 -2.8 -29.6 -4.4 -11.55 -4.4 M-25.65 7.3 L-27.15 4.75 -25.55 1.25 Q-25.15 -2.0 -29.6 -4.4 M-2.65 -20.35 L-4.75 -19.25 M-3.45 15.15 L-6.35 13.2 M47.15 -8.7 L45.45 -5.5 M10.05 19.8 L6.55 19.0 Q5.45 20.35 10.25 22.75 L10.05 19.8 14.7 19.8 Q12.7 16.95 6.55 19.0 M10.25 22.75 L15.15 20.6 14.7 19.8 M-53.25 21.65 L-42.5 28.15 -40.3 24.1 -42.75 26.0 -53.25 21.65 -40.3 24.1 M-48.2 5.95 Q-47.95 7.65 -45.9 7.15" fill="none" stroke="#000000" stroke-linecap="round" stroke-linejoin="round" stroke-opacity="0.3019608" stroke-width="1.0"/>
  </g>
  <defs>
    <linearGradient gradientTransform="matrix(0.0118, 0.0093, -0.007, 0.0089, -6.0, -12.95)" gradientUnits="userSpaceOnUse" id="gradient0" spreadMethod="pad" x1="-819.2" x2="819.2">
      <stop offset="0.0" stop-color="#f67824"/>
      <stop offset="1.0" stop-color="#bb2d21"/>
    </linearGradient>
    <linearGradient gradientTransform="matrix(0.0405, -0.005, 0.0014, 0.0118, -3.25, 1.75)" gradientUnits="userSpaceOnUse" id="gradient1" spreadMethod="pad" x1="-819.2" x2="819.2">
      <stop offset="0.0" stop-color="#f67824"/>
      <stop offset="1.0" stop-color="#bb2d21"/>
    </linearGradient>
  </defs>
</svg>
