<?xml version="1.0" encoding="UTF-8" standalone="no"?>
<svg xmlns:ffdec="https://www.free-decompiler.com/flash" xmlns:xlink="http://www.w3.org/1999/xlink" ffdec:objectType="shape" height="16.8px" width="15.35px" xmlns="http://www.w3.org/2000/svg">
  <g transform="matrix(1.0, 0.0, 0.0, 1.0, 13.65, 4.15)">
    <path d="M-13.3 -3.5 L-12.65 -2.1 Q-12.05 6.2 -9.05 10.4 -6.35 12.15 -3.9 12.45 -7.25 13.2 -10.55 10.8 -11.85 9.85 -12.95 4.95 -14.15 -0.25 -13.3 -3.5" fill="#ffe5c7" fill-rule="evenodd" stroke="none"/>
    <path d="M-12.6 -2.1 Q-11.8 2.8 -8.6 5.7 -6.45 7.2 -4.25 6.4 L-0.7 5.2 Q0.7 4.55 -0.15 8.65 L-0.95 9.75 -3.9 12.45 Q-6.35 12.15 -9.05 10.4 -12.05 6.2 -12.65 -2.1 L-12.6 -2.1" fill="#ccad88" fill-rule="evenodd" stroke="none"/>
    <path d="M-0.35 -3.0 Q-1.6 -2.85 -2.95 -0.05 -4.35 2.75 -5.45 3.0 L-8.4 1.9 Q-7.45 0.85 -6.15 -1.55 -5.1 -3.55 -4.35 -3.85 -2.35 -4.75 -0.35 -3.0" fill="#947a63" fill-rule="evenodd" stroke="none"/>
    <path d="M-5.45 3.0 Q-4.35 2.75 -2.95 -0.05 -1.6 -2.85 -0.35 -3.0 1.45 -1.05 1.7 4.0 1.15 6.55 -0.15 8.65 0.7 4.55 -0.7 5.2 L-4.25 6.4 Q-6.45 7.2 -8.6 5.7 -11.8 2.8 -12.6 -2.1 -10.65 0.35 -8.4 1.9 L-5.45 3.0" fill="#a3896d" fill-rule="evenodd" stroke="none"/>
    <path d="M-5.45 3.0 L-8.4 1.9 Q-10.65 0.35 -12.6 -2.1 L-12.65 -2.1 -13.3 -3.5 M-0.35 -3.0 Q-2.35 -4.75 -4.35 -3.85 -5.1 -3.55 -6.15 -1.55 -7.45 0.85 -8.4 1.9" ffdec:has-small-stroke="true" ffdec:original-stroke-width="0.05" fill="none" stroke="#5e4226" stroke-linecap="round" stroke-linejoin="round" stroke-opacity="0.7019608" stroke-width="1.0"/>
    <path d="M-0.15 8.65 Q1.15 6.55 1.7 4.0 1.45 -1.05 -0.35 -3.0 M-3.9 12.45 L-0.95 9.75 -0.15 8.65 M-3.9 12.45 Q-7.25 13.2 -10.55 10.8 -11.85 9.85 -12.95 4.95 -14.15 -0.25 -13.3 -3.5" ffdec:has-small-stroke="true" ffdec:original-stroke-width="0.05" fill="none" stroke="#5e4226" stroke-linecap="round" stroke-linejoin="round" stroke-opacity="0.7019608" stroke-width="1.0"/>
  </g>
</svg>
