<?xml version="1.0" encoding="UTF-8" standalone="no"?>
<svg xmlns:ffdec="https://www.free-decompiler.com/flash" xmlns:xlink="http://www.w3.org/1999/xlink" ffdec:objectType="shape" height="142.95px" width="269.75px" xmlns="http://www.w3.org/2000/svg">
  <g transform="matrix(1.0, 0.0, 0.0, 1.0, -153.35, -135.15)">
    <path d="M374.65 168.3 L375.1 168.15 375.35 168.25 375.6 168.3 Q383.4 170.9 387.15 188.6 389.7 200.75 389.8 216.5 L370.9 217.15 Q367.55 221.8 368.25 226.5 368.7 230.0 371.4 233.5 L389.25 232.45 Q388.05 250.8 384.1 263.55 379.8 277.7 374.05 277.85 L374.25 277.45 373.85 277.75 372.65 277.55 Q370.3 276.9 368.0 271.7 367.35 270.3 364.75 262.9 359.85 249.25 359.95 226.1 359.9 220.95 360.5 215.6 362.65 195.0 364.35 187.15 368.05 170.15 374.65 168.3 L375.35 168.25 374.65 168.3 M377.6 266.8 Q384.4 253.6 383.6 238.4 384.4 253.6 377.6 266.8 M365.2 243.2 Q360.65 228.6 364.8 208.4 360.65 228.6 365.2 243.2" fill="#e93636" fill-rule="evenodd" stroke="none"/>
    <path d="M374.65 168.3 Q368.05 170.15 364.35 187.15 362.65 195.0 360.5 215.6 350.05 220.85 337.65 214.15 L337.95 210.3 354.6 169.8 337.95 210.3 337.65 214.15 Q330.05 216.75 314.65 212.65 298.5 215.65 271.7 203.65 L250.55 199.2 Q223.25 194.95 201.2 176.95 L195.45 174.4 Q170.05 161.5 170.0 140.4 173.35 137.7 177.3 135.15 179.85 136.15 182.1 137.75 198.05 146.45 225.6 153.75 255.05 161.5 291.0 165.85 332.3 170.75 374.65 168.3 M225.6 153.75 L201.2 176.95 225.6 153.75 M291.0 165.85 L273.25 197.45 271.7 203.65 273.25 197.45 291.0 165.85" fill="#ecaab5" fill-rule="evenodd" stroke="none"/>
    <path d="M389.8 216.5 L405.45 216.0 411.9 205.4 Q418.4 204.4 421.15 208.0 L411.65 220.3 411.1 220.95 411.65 220.3 415.5 224.1 414.95 224.65 419.6 232.25 Q419.85 236.35 417.25 239.05 L404.75 225.4 368.25 226.5 Q367.55 221.8 370.9 217.15 L389.8 216.5" fill="#fcfdbd" fill-rule="evenodd" stroke="none"/>
    <path d="M421.15 208.0 Q423.3 210.85 423.05 216.55 L415.5 224.1 411.65 220.3 421.15 208.0 M389.25 232.45 L371.4 233.5 Q368.7 230.0 368.25 226.5 L404.75 225.4 417.25 239.05 Q415.05 241.35 410.8 242.65 L401.1 231.75 389.25 232.45 M401.1 231.75 L402.3 231.65 401.1 231.75" fill="#e4e29c" fill-rule="evenodd" stroke="none"/>
    <path d="M360.5 215.6 Q359.9 220.95 359.95 226.1 359.85 249.25 364.75 262.9 L350.45 261.9 336.25 260.1 334.85 247.0 337.65 214.15 334.85 247.0 336.25 260.1 305.0 256.1 262.85 244.75 262.85 243.55 271.7 203.65 Q298.5 215.65 314.65 212.65 330.05 216.75 337.65 214.15 350.05 220.85 360.5 215.6 M153.45 169.0 Q154.6 153.05 170.0 140.4 170.05 161.5 195.45 174.4 L201.2 176.95 200.2 177.85 192.35 195.0 189.6 210.8 192.35 195.0 200.2 177.85 201.2 176.95 Q223.25 194.95 250.55 199.2 L271.7 203.65 262.85 243.55 262.85 244.75 258.7 243.65 192.05 213.2 189.6 210.8 168.0 189.15 153.45 169.0" fill="#e897a9" fill-rule="evenodd" stroke="none"/>
    <path d="M364.75 262.9 Q367.35 270.3 368.0 271.7 370.3 276.9 372.65 277.55 L373.85 277.75 374.25 277.45 374.05 277.85 Q372.65 278.45 363.95 277.7 L339.45 274.65 Q206.55 253.75 164.15 202.35 152.35 184.2 153.45 169.0 L168.0 189.15 189.6 210.8 192.05 213.2 258.7 243.65 262.85 244.75 305.0 256.1 336.25 260.1 350.45 261.9 364.75 262.9 M336.25 260.1 L339.45 274.65 336.25 260.1 M262.85 256.45 L262.85 244.75 262.85 256.45 M373.85 277.75 L374.05 277.85 373.85 277.75 M187.75 221.8 L189.6 210.8 187.75 221.8" fill="#e28399" fill-rule="evenodd" stroke="none"/>
    <path d="M375.1 168.15 L375.35 168.25 M375.6 168.3 Q383.4 170.9 387.15 188.6 389.7 200.75 389.8 216.5 L405.45 216.0 411.9 205.4 Q418.4 204.4 421.15 208.0 423.3 210.85 423.05 216.55 L415.5 224.1 416.15 224.75 M360.5 215.6 Q359.9 220.95 359.95 226.1 359.85 249.25 364.75 262.9 M374.05 277.85 Q379.8 277.7 384.1 263.55 388.05 250.8 389.25 232.45 L371.4 233.5 Q368.7 230.0 368.25 226.5 367.55 221.8 370.9 217.15 L389.8 216.5 M411.1 220.95 L411.65 220.3 M415.5 224.1 L414.95 224.65 419.6 232.25 Q419.85 236.35 417.25 239.05 415.05 241.35 410.8 242.65 L401.1 231.75 389.25 232.45 M402.3 231.65 L401.1 231.75 M374.05 277.85 L373.85 277.75 M364.8 208.4 Q360.65 228.6 365.2 243.2 M383.6 238.4 Q384.4 253.6 377.6 266.8" ffdec:has-small-stroke="true" ffdec:original-stroke-width="0.05" fill="none" stroke="#000000" stroke-linecap="round" stroke-linejoin="round" stroke-opacity="0.3019608" stroke-width="1.0"/>
    <path d="M374.65 168.3 L375.1 168.15 M375.35 168.25 L375.6 168.3 M375.35 168.25 L374.65 168.3 Q368.05 170.15 364.35 187.15 362.65 195.0 360.5 215.6 M364.75 262.9 Q367.35 270.3 368.0 271.7 370.3 276.9 372.65 277.55 L373.85 277.75 M337.65 214.15 L334.85 247.0 336.25 260.1 339.45 274.65 Q206.55 253.75 164.15 202.35 152.35 184.2 153.45 169.0 154.6 153.05 170.0 140.4 173.35 137.7 177.3 135.15 179.85 136.15 182.1 137.75 198.05 146.45 225.6 153.75 255.05 161.5 291.0 165.85 332.3 170.75 374.65 168.3 M337.65 214.15 L337.95 210.3 354.6 169.8 M374.05 277.85 Q372.65 278.45 363.95 277.7 L339.45 274.65 M262.85 244.75 L262.85 256.45 M201.2 176.95 L225.6 153.75 M189.6 210.8 L192.35 195.0 200.2 177.85 201.2 176.95 M271.7 203.65 L273.25 197.45 291.0 165.85 M262.85 244.75 L262.85 243.55 271.7 203.65 M189.6 210.8 L187.75 221.8" ffdec:has-small-stroke="true" ffdec:original-stroke-width="0.05" fill="none" stroke="#000000" stroke-linecap="round" stroke-linejoin="round" stroke-opacity="0.3019608" stroke-width="1.0"/>
  </g>
</svg>
