<?xml version="1.0" encoding="UTF-8" standalone="no"?>
<svg xmlns:ffdec="https://www.free-decompiler.com/flash" xmlns:xlink="http://www.w3.org/1999/xlink" ffdec:objectType="shape" height="89.5px" width="33.65px" xmlns="http://www.w3.org/2000/svg">
  <g transform="matrix(1.0, 0.0, 0.0, 1.0, -240.95, -199.15)">
    <path d="M267.05 200.35 L267.6 199.15 267.6 200.25 267.5 200.2 267.2 200.25 267.05 200.35 M269.65 222.65 Q266.1 231.4 264.15 239.65 L261.9 240.15 261.0 239.9 258.8 238.35 Q259.15 217.85 266.6 201.3 L266.55 202.2 266.2 202.55 266.1 202.7 Q265.25 207.95 265.95 213.15 266.25 215.6 266.85 217.95 267.65 221.0 269.45 222.7 L269.65 222.65" fill="#bd7c2f" fill-rule="evenodd" stroke="none"/>
    <path d="M266.6 201.3 Q266.55 201.0 266.65 200.75 L267.05 200.35 267.2 200.25 267.5 200.2 267.6 200.25 268.15 200.55 268.3 200.65 Q268.1 208.5 270.7 215.7 L271.0 216.2 272.1 217.1 272.2 217.2 271.8 218.05 Q271.05 219.65 270.75 221.55 L269.7 222.6 269.65 222.65 269.45 222.7 Q267.65 221.0 266.85 217.95 266.25 215.6 265.95 213.15 265.25 207.95 266.1 202.7 L266.2 202.55 266.55 202.2 266.6 201.3" fill="#72481f" fill-rule="evenodd" stroke="none"/>
    <path d="M264.15 239.65 L267.85 239.05 265.3 242.0 Q270.3 243.3 274.6 249.15 L269.35 249.15 Q272.6 252.15 272.7 255.1 L266.55 250.25 Q270.3 255.95 271.6 263.15 L269.7 269.65 Q272.15 273.35 271.9 279.0 L268.7 273.1 Q268.15 282.65 264.1 288.65 L264.1 269.15 Q262.55 279.3 258.1 288.15 254.15 281.8 252.6 273.65 L252.6 287.15 252.1 286.0 249.1 272.05 Q246.05 262.35 255.3 253.7 L247.0 258.5 Q250.25 250.05 256.85 246.2 L250.9 247.5 258.2 243.3 253.65 241.0 256.5 239.95 254.05 235.35 258.8 238.35 261.0 239.9 261.9 240.15 264.15 239.65" fill="#442d11" fill-rule="evenodd" stroke="none"/>
    <path d="M253.65 241.0 L258.2 243.3 250.9 247.5 256.85 246.2 Q250.25 250.05 247.0 258.5 L255.3 253.7 Q246.05 262.35 249.1 272.05 L252.1 286.0 246.05 272.4 243.5 281.4 244.0 269.25 Q241.1 265.6 241.6 259.5 244.0 251.9 248.2 250.2 L249.0 249.95 248.2 250.2 240.95 252.6 248.15 246.15 242.7 246.15 Q246.05 242.9 253.65 241.0" fill="#634718" fill-rule="evenodd" stroke="none"/>
    <path d="M267.05 200.35 L267.6 199.15 M269.65 222.65 Q266.1 231.4 264.15 239.65 L267.85 239.05 265.3 242.0 Q270.3 243.3 274.6 249.15 L269.35 249.15 Q272.6 252.15 272.7 255.1 L266.55 250.25 Q270.3 255.95 271.6 263.15 L269.7 269.65 Q272.15 273.35 271.9 279.0 L272.2 279.6 M266.6 201.3 Q259.15 217.85 258.8 238.35 L261.0 239.9 261.9 240.15 264.15 239.65 M258.8 238.35 L254.05 235.35 256.5 239.95 253.65 241.0 Q246.05 242.9 242.7 246.15 L248.15 246.15 240.95 252.6 248.2 250.2 249.0 249.95 M252.1 286.0 L252.6 287.15 252.6 273.65 Q254.15 281.8 258.1 288.15 262.55 279.3 264.1 269.15 L264.1 288.65 Q268.15 282.65 268.7 273.1 L271.9 279.0 M248.2 250.2 Q244.0 251.9 241.6 259.5 241.1 265.6 244.0 269.25 L243.5 281.4 246.05 272.4 252.1 286.0" ffdec:has-small-stroke="true" ffdec:original-stroke-width="0.05" fill="none" stroke="#000000" stroke-linecap="round" stroke-linejoin="round" stroke-opacity="0.4" stroke-width="1.0"/>
  </g>
</svg>
