<?xml version="1.0" encoding="UTF-8" standalone="no"?>
<svg xmlns:ffdec="https://www.free-decompiler.com/flash" xmlns:xlink="http://www.w3.org/1999/xlink" ffdec:objectType="shape" height="76.7px" width="36.6px" xmlns="http://www.w3.org/2000/svg">
  <g transform="matrix(1.0, 0.0, 0.0, 1.0, -227.7, -246.3)">
    <path d="M247.7 255.0 L249.6 256.65 258.05 269.3 Q261.95 275.35 264.3 282.15 263.5 297.65 256.0 314.4 252.05 320.6 245.0 323.0 243.4 323.25 243.6 320.55 L244.4 316.95 Q243.9 322.4 251.55 312.5 256.15 302.1 258.6 289.45 258.95 281.6 252.3 271.45 L243.15 263.3 243.75 262.6 Q245.7 260.0 246.65 256.5 L247.7 255.0" fill="#e3c695" fill-rule="evenodd" stroke="none"/>
    <path d="M244.4 316.95 Q246.0 308.5 245.35 299.6 L245.5 299.6 247.8 300.35 252.4 298.0 247.8 300.35 245.5 299.6 245.45 299.5 245.3 299.4 241.3 296.25 241.3 295.95 Q234.35 282.9 232.75 269.1 L232.75 268.75 Q239.45 267.4 243.15 263.3 L252.3 271.45 Q258.95 281.6 258.6 289.45 256.15 302.1 251.55 312.5 243.9 322.4 244.4 316.95" fill="#c79e5c" fill-rule="evenodd" stroke="none"/>
    <path d="M245.5 299.6 L245.35 299.6 245.45 299.5 245.5 299.6" fill="#dfcda4" fill-rule="evenodd" stroke="none"/>
    <path d="M245.35 299.6 L245.3 299.4 245.45 299.5 245.35 299.6" fill="#f8ebcf" fill-rule="evenodd" stroke="none"/>
    <path d="M238.9 254.65 L238.95 254.6 Q241.95 252.35 247.25 254.85 L247.7 255.0 246.65 256.5 Q245.7 260.0 243.75 262.6 L243.15 263.3 Q239.45 267.4 232.75 268.75 231.9 264.8 233.8 259.9 L234.45 258.9 236.35 261.25 Q241.35 261.9 241.25 257.65 L238.9 254.65" fill="#b13a2e" fill-rule="evenodd" stroke="none"/>
    <path d="M234.45 258.9 L230.6 254.2 228.1 254.3 227.7 250.85 231.2 250.3 231.2 250.25 232.7 246.3 238.1 246.7 236.45 251.55 238.9 254.65 241.25 257.65 Q241.35 261.9 236.35 261.25 L234.45 258.9 M240.3 257.35 L237.9 255.7 237.9 254.8 234.9 251.95 237.9 254.8 237.9 255.7 240.3 257.35 M231.2 250.3 L229.9 251.1 231.2 250.3 M233.6 248.7 L231.2 250.25 233.6 248.7" fill="#f2e6d0" fill-rule="evenodd" stroke="none"/>
    <path d="M238.9 254.65 L238.95 254.6 Q241.95 252.35 247.25 254.85 L247.7 255.0 249.6 256.65 258.05 269.3 Q261.95 275.35 264.3 282.15 263.5 297.65 256.0 314.4 252.05 320.6 245.0 323.0 243.4 323.25 243.6 320.55 L244.4 316.95 Q246.0 308.5 245.35 299.6 L245.3 299.4 241.3 296.25 M241.3 295.95 Q234.35 282.9 232.75 269.1 L232.7 268.75 232.75 268.75 Q231.9 264.8 233.8 259.9 L234.45 258.9 230.6 254.2 228.1 254.3 227.7 250.85 231.2 250.3 231.2 250.25 232.7 246.3 238.1 246.7 236.45 251.55 238.9 254.65 241.25 257.65 Q241.35 261.9 236.35 261.25 L234.45 258.9 M243.15 263.3 L243.75 262.6 Q245.7 260.0 246.65 256.5 L247.7 255.0 M234.9 251.95 L237.9 254.8 237.9 255.7 240.3 257.35 M231.2 250.3 L231.2 250.25 233.6 248.7 M229.9 251.1 L231.2 250.3 M232.75 269.1 L232.75 268.75 Q239.45 267.4 243.15 263.3 M245.45 299.5 L245.3 299.4 M245.5 299.6 L247.8 300.35 252.4 298.0 M245.45 299.5 L245.5 299.6" ffdec:has-small-stroke="true" ffdec:original-stroke-width="0.05" fill="none" stroke="#000000" stroke-linecap="round" stroke-linejoin="round" stroke-opacity="0.3019608" stroke-width="1.0"/>
  </g>
</svg>
