<?xml version="1.0" encoding="UTF-8" standalone="no"?>
<svg xmlns:ffdec="https://www.free-decompiler.com/flash" xmlns:xlink="http://www.w3.org/1999/xlink" ffdec:objectType="shape" height="102.6px" width="84.3px" xmlns="http://www.w3.org/2000/svg">
  <g transform="matrix(1.0, 0.0, 0.0, 1.0, -150.05, -244.5)">
    <path d="M157.85 303.35 Q151.65 290.2 150.55 283.15 149.4 275.7 150.85 272.8 152.25 269.85 153.0 268.9 L157.9 263.25 Q162.15 258.55 184.45 249.55 205.5 241.0 234.35 246.95 L231.5 252.1 224.0 250.85 222.8 250.85 Q219.15 249.3 215.15 250.2 L214.75 250.2 213.25 249.55 Q208.7 251.05 203.25 250.7 L202.4 250.7 201.2 251.35 Q192.8 250.55 185.2 253.8 L183.05 254.4 176.55 258.0 Q162.5 260.85 155.95 273.05 155.1 274.6 153.9 275.4 L153.1 279.1 Q153.0 290.85 159.55 299.95 158.55 301.35 157.85 303.35" fill="#7a623a" fill-rule="evenodd" stroke="none"/>
    <path d="M231.5 252.1 L230.85 253.25 223.45 252.1 Q208.3 250.0 197.25 252.4 186.2 254.7 174.35 260.55 162.45 266.4 158.8 273.45 155.2 280.4 158.65 287.95 162.05 295.45 163.25 297.0 161.1 297.75 159.55 299.95 153.0 290.85 153.1 279.1 L153.9 275.4 Q155.1 274.6 155.95 273.05 162.5 260.85 176.55 258.0 L183.05 254.4 185.2 253.8 Q192.8 250.55 201.2 251.35 L202.4 250.7 203.25 250.7 Q208.7 251.05 213.25 249.55 L214.75 250.2 215.15 250.2 Q219.15 249.3 222.8 250.85 L224.0 250.85 231.5 252.1" fill="#5c4a2e" fill-rule="evenodd" stroke="none"/>
    <path d="M163.25 297.0 L164.75 296.7 167.55 296.85 172.05 300.6 180.6 294.8 181.0 298.05 Q181.55 300.85 182.45 302.85 179.85 305.55 177.45 309.3 L177.3 309.4 182.05 308.25 183.85 307.85 Q183.15 311.25 182.55 316.2 L182.55 316.8 189.05 311.6 190.35 318.6 Q193.7 318.55 196.9 316.45 197.9 315.85 199.0 315.4 L201.05 315.75 Q201.4 317.05 202.4 316.9 205.55 316.25 207.2 313.25 L208.15 311.45 206.6 300.3 207.2 295.95 205.3 295.4 205.2 295.35 202.6 288.05 Q214.2 292.05 213.75 302.75 213.65 305.7 213.0 309.3 213.15 311.0 216.8 308.15 223.15 303.25 220.0 294.6 216.85 285.9 215.75 283.6 214.6 281.4 221.15 287.25 222.8 292.45 226.3 297.75 229.5 302.55 228.25 308.45 227.45 310.5 225.75 312.15 L225.7 312.15 225.7 312.5 Q217.35 316.75 211.7 321.3 212.2 321.3 212.7 321.65 L212.75 322.55 Q212.75 323.7 211.85 324.85 L210.65 325.9 210.45 326.4 Q210.4 328.05 210.65 329.45 211.05 332.4 209.3 334.55 208.45 334.85 208.35 334.2 208.05 332.45 206.7 332.25 206.5 332.25 206.35 332.4 202.0 335.65 197.15 336.25 196.4 335.35 196.1 334.3 194.9 330.3 196.2 326.25 L195.85 325.5 195.75 325.35 Q193.45 335.75 180.6 331.15 179.4 329.65 178.85 327.9 177.55 323.3 178.3 318.7 L176.9 320.3 Q172.5 326.1 167.2 324.75 167.0 323.55 167.55 322.3 170.05 316.15 174.65 312.1 164.75 314.3 158.4 308.1 L158.25 306.2 157.85 303.35 Q158.55 301.35 159.55 299.95 161.1 297.75 163.25 297.0" fill="#b89b6b" fill-rule="evenodd" stroke="none"/>
    <path d="M225.7 312.5 Q223.85 318.25 220.8 322.3 219.6 324.0 220.55 325.1 220.9 325.5 223.6 326.95 229.0 329.9 227.4 333.4 L225.4 337.9 Q225.1 338.95 221.4 337.0 217.7 334.95 214.35 341.2 210.7 347.85 208.4 345.85 L206.35 343.95 Q205.0 343.15 203.35 344.4 195.4 349.75 191.65 344.45 L191.25 343.75 191.4 344.4 Q185.25 348.6 182.0 346.1 178.7 343.65 179.45 336.35 175.1 334.1 176.05 331.5 L174.2 333.55 Q171.55 336.0 163.65 331.0 155.8 325.95 159.0 316.3 161.15 311.65 159.9 310.9 158.6 310.1 158.5 309.15 L158.4 308.1 Q164.75 314.3 174.65 312.1 170.05 316.15 167.55 322.3 167.0 323.55 167.2 324.75 172.5 326.1 176.9 320.3 L178.3 318.7 Q177.55 323.3 178.85 327.9 179.4 329.65 180.6 331.15 193.45 335.75 195.75 325.35 L195.85 325.5 196.2 326.25 Q194.9 330.3 196.1 334.3 196.4 335.35 197.15 336.25 202.0 335.65 206.35 332.4 206.5 332.25 206.7 332.25 208.05 332.45 208.35 334.2 208.45 334.85 209.3 334.55 211.05 332.4 210.65 329.45 210.4 328.05 210.45 326.4 L210.65 325.9 211.85 324.85 Q212.75 323.7 212.75 322.55 L212.7 321.65 Q212.2 321.3 211.7 321.3 217.35 316.75 225.7 312.5 M189.6 338.15 L189.95 340.3 Q190.4 342.3 191.25 343.75 190.4 342.3 189.95 340.3 L189.6 338.15 M177.05 329.75 L176.05 331.5 177.05 329.75" fill="#ab8a54" fill-rule="evenodd" stroke="none"/>
    <path d="M182.45 302.85 L183.3 304.25 Q185.65 307.8 195.3 300.7 L193.7 307.75 Q192.6 312.75 200.15 309.55 207.65 306.35 205.65 296.35 L205.2 295.35 205.3 295.4 207.2 295.95 206.6 300.3 208.15 311.45 207.2 313.25 Q205.55 316.25 202.4 316.9 201.4 317.05 201.05 315.75 L199.0 315.4 Q197.9 315.85 196.9 316.45 193.7 318.55 190.35 318.6 L189.05 311.6 182.55 316.8 182.55 316.2 Q183.15 311.25 183.85 307.85 L182.05 308.25 177.3 309.4 177.45 309.3 Q179.85 305.55 182.45 302.85" fill="#bea57a" fill-rule="evenodd" stroke="none"/>
    <path d="M157.85 303.35 Q151.65 290.2 150.55 283.15 149.4 275.7 150.85 272.8 152.25 269.85 153.0 268.9 L157.9 263.25 Q162.15 258.55 184.45 249.55 205.5 241.0 234.35 246.95 L231.5 252.1 230.85 253.25 223.45 252.1 Q208.3 250.0 197.25 252.4 186.2 254.7 174.35 260.55 162.45 266.4 158.8 273.45 155.2 280.4 158.65 287.95 162.05 295.45 163.25 297.0 L164.75 296.7 167.55 296.85 172.05 300.6 180.6 294.8 181.0 298.05 Q181.55 300.85 182.45 302.85 L183.3 304.25 Q185.65 307.8 195.3 300.7 L193.7 307.75 Q192.6 312.75 200.15 309.55 207.65 306.35 205.65 296.35 L205.2 295.35 202.6 288.05 Q214.2 292.05 213.75 302.75 213.65 305.7 213.0 309.3 213.15 311.0 216.8 308.15 223.15 303.25 220.0 294.6 216.85 285.9 215.75 283.6 214.6 281.4 221.15 287.25 222.8 292.45 226.3 297.75 229.5 302.55 228.25 308.45 227.45 310.5 225.75 312.15 L225.7 312.15 225.7 312.5 Q223.85 318.25 220.8 322.3 219.6 324.0 220.55 325.1 220.9 325.5 223.6 326.95 229.0 329.9 227.4 333.4 L225.4 337.9 Q225.1 338.95 221.4 337.0 217.7 334.95 214.35 341.2 210.7 347.85 208.4 345.85 L206.35 343.95 Q205.0 343.15 203.35 344.4 195.4 349.75 191.65 344.45 L191.25 343.75 191.4 344.4 Q185.25 348.6 182.0 346.1 178.7 343.65 179.45 336.35 175.1 334.1 176.05 331.5 L174.2 333.55 Q171.55 336.0 163.65 331.0 155.8 325.95 159.0 316.3 161.15 311.65 159.9 310.9 158.6 310.1 158.5 309.15 L158.4 308.1 158.25 306.2 157.85 303.35 Q158.55 301.35 159.55 299.95 161.1 297.75 163.25 297.0 M176.05 331.5 L177.05 329.75 M191.25 343.75 Q190.4 342.3 189.95 340.3 L189.6 338.15" ffdec:has-small-stroke="true" ffdec:original-stroke-width="0.05" fill="none" stroke="#1a120b" stroke-linecap="round" stroke-linejoin="round" stroke-opacity="0.5019608" stroke-width="1.0"/>
  </g>
</svg>
