<?xml version="1.0" encoding="UTF-8" standalone="no"?>
<svg xmlns:ffdec="https://www.free-decompiler.com/flash" xmlns:xlink="http://www.w3.org/1999/xlink" ffdec:objectType="shape" height="134.85px" width="116.4px" xmlns="http://www.w3.org/2000/svg">
  <g transform="matrix(1.0, 0.0, 0.0, 1.0, -193.1, -178.4)">
    <path d="M266.7 178.65 L267.05 178.5 Q267.95 178.85 268.9 179.65 270.2 180.7 271.65 182.8 L274.25 186.85 274.95 189.45 275.05 189.8 277.4 211.5 Q278.5 222.15 273.3 242.7 L274.4 225.8 Q274.5 219.1 273.5 212.75 L268.8 201.7 270.45 204.4 270.45 198.4 Q270.2 187.4 267.55 180.55 L266.7 178.65 M286.35 254.75 L296.25 256.95 289.2 261.0 285.25 258.7 285.45 256.5 286.35 254.75 M302.1 273.55 Q306.5 279.4 309.5 286.7 303.95 285.25 300.45 285.05 L300.0 285.05 Q296.45 285.0 295.1 286.3 294.2 287.1 294.25 288.45 L294.15 288.45 292.75 286.8 292.05 286.5 Q286.65 280.15 276.05 274.85 L263.35 272.15 262.95 272.4 261.2 273.15 Q258.55 274.35 256.0 275.9 L253.85 277.0 253.55 277.1 Q251.15 278.1 249.3 280.1 L248.7 280.9 247.55 282.1 244.85 284.55 245.0 283.75 245.6 279.2 245.9 275.8 Q245.95 275.2 243.65 276.5 237.65 281.2 229.3 286.5 L227.05 287.95 226.95 287.8 226.2 287.15 226.05 288.55 224.7 289.5 Q224.1 287.65 222.8 287.15 223.65 289.1 222.55 290.9 L217.8 294.25 Q217.55 292.35 216.25 290.9 L216.15 292.15 Q216.05 293.3 215.55 294.45 215.05 295.6 211.65 298.25 L208.4 301.2 207.15 300.2 207.0 300.2 207.55 301.95 207.55 302.1 207.4 302.35 207.2 302.55 206.95 302.3 206.6 302.3 206.5 302.45 206.45 302.55 206.45 303.45 205.7 304.3 205.6 304.2 205.15 303.95 Q204.65 304.1 204.9 305.25 L204.0 306.4 202.7 307.4 200.55 309.8 200.45 309.8 200.3 309.15 Q201.15 306.85 199.4 305.85 L198.85 305.05 Q198.6 304.55 193.1 307.0 L193.1 306.2 194.55 305.2 Q197.45 303.2 197.95 301.95 L198.1 301.4 198.15 301.3 198.2 301.15 203.6 288.55 203.55 288.9 203.85 289.15 200.7 303.25 200.7 303.45 201.0 303.2 Q207.35 297.1 211.8 291.5 216.4 285.8 217.35 281.95 L217.75 281.0 220.1 275.35 222.35 273.9 222.4 273.9 222.45 273.85 Q225.7 271.75 228.9 269.6 L226.85 275.45 231.55 273.4 230.2 276.0 225.55 284.8 229.0 281.7 229.0 283.55 235.4 280.5 Q241.0 277.7 247.95 268.05 L251.8 260.05 Q249.15 268.15 249.1 270.6 249.05 273.05 248.2 276.45 L255.4 270.3 Q252.5 272.65 272.7 253.15 L275.55 249.8 Q276.05 249.4 275.5 250.55 271.5 257.75 268.8 264.3 277.35 262.8 283.45 267.7 L282.6 268.15 Q292.35 267.9 302.1 273.55 M271.4 205.8 L270.45 204.4 271.4 205.8 M257.3 229.45 Q258.6 237.45 257.9 245.65 L257.35 241.35 256.75 238.1 256.05 234.8 256.05 234.75 257.25 229.45 257.3 229.45 M263.35 272.15 L264.9 271.55 264.95 271.5 265.35 271.35 Q269.85 269.65 274.55 268.9 269.85 269.65 265.35 271.35 L264.95 271.5 264.9 271.55 263.35 272.15 M282.6 268.15 L274.55 268.9 274.55 269.1 282.6 268.15 M249.3 280.1 L272.7 253.15 249.3 280.1 M295.65 281.1 Q283.65 274.55 276.8 274.8 L276.05 274.85 276.8 274.8 Q283.65 274.55 295.65 281.1 M225.5 279.45 L226.85 275.45 225.5 279.45" fill="#deb776" fill-rule="evenodd" stroke="none"/>
    <path d="M266.7 178.65 L266.6 178.4 267.05 178.5 266.7 178.65 M294.25 288.45 L294.25 288.55 294.15 288.45 294.25 288.45 M245.6 279.2 L245.6 278.55 245.9 275.8 245.6 279.2 M227.05 287.95 L227.0 287.95 226.95 287.8 227.05 287.95 M204.0 306.4 L203.2 307.2 202.7 307.4 204.0 306.4 M200.55 309.8 L200.45 309.9 200.45 309.8 200.55 309.8 M257.25 229.4 L257.3 229.45 257.25 229.45 257.25 229.4 M274.55 268.9 L282.6 268.15 274.55 269.1 274.55 268.9 M204.3 287.2 L203.85 289.15 203.55 288.9 204.3 287.2 M222.35 273.9 L222.4 273.3 222.45 273.85 222.35 273.9 222.45 273.85 222.4 273.9 222.35 273.9" fill="#966d55" fill-rule="evenodd" stroke="none"/>
    <path d="M275.05 189.8 L285.85 228.25 291.65 224.65 289.7 241.4 Q291.95 240.2 294.2 238.95 L286.35 254.75 285.45 256.5 285.25 258.7 289.2 261.0 293.05 263.95 Q298.15 268.2 302.1 273.55 292.35 267.9 282.6 268.15 L283.45 267.7 Q277.35 262.8 268.8 264.3 271.5 257.75 275.5 250.55 276.05 249.4 275.55 249.8 L272.7 253.15 Q252.5 272.65 255.4 270.3 L248.2 276.45 Q249.05 273.05 249.1 270.6 249.15 268.15 251.8 260.05 L247.95 268.05 Q241.0 277.7 235.4 280.5 L229.0 283.55 229.0 281.7 225.55 284.8 230.2 276.0 231.55 273.4 233.5 270.4 Q240.2 259.8 245.2 249.25 L246.9 245.45 Q250.85 236.4 253.6 227.35 L255.95 235.25 256.05 234.8 256.75 238.1 257.35 241.35 257.9 245.65 Q258.6 237.45 257.3 229.45 L257.25 229.4 264.8 195.35 268.8 201.7 273.5 212.75 Q274.5 219.1 274.4 225.8 L273.3 242.7 Q278.5 222.15 277.4 211.5 L275.05 189.8 M285.85 228.25 L287.0 232.4 285.85 228.25 M289.45 243.6 L289.7 241.4 289.45 243.6 M255.95 235.25 L256.75 238.1 255.95 235.25 M204.3 287.2 L207.55 280.85 213.35 271.0 218.6 263.75 Q222.45 258.9 226.5 255.2 L220.1 275.35 217.75 281.0 217.35 281.95 Q216.4 285.8 211.8 291.5 207.35 297.1 201.0 303.2 L200.7 303.45 200.7 303.25 203.85 289.15 204.3 287.2 203.55 288.9 203.6 288.55 204.3 287.2" fill="#ffe7ae" fill-rule="evenodd" stroke="none"/>
    <path d="M200.45 309.9 L198.65 311.9 200.3 309.15 200.45 309.8 200.45 309.9" fill="#514f40" fill-rule="evenodd" stroke="none"/>
    <path d="M193.3 270.85 L193.25 270.85 193.2 270.8 193.3 270.85" fill="#8a655b" fill-rule="evenodd" stroke="none"/>
    <path d="M267.05 178.5 L266.6 178.4 266.7 178.65 267.55 180.55 Q270.2 187.4 270.45 198.4 L270.45 204.4 271.4 205.8 M267.05 178.5 Q267.95 178.85 268.9 179.65 270.2 180.7 271.65 182.8 L274.25 186.85 M274.95 189.45 L275.05 189.8 285.85 228.25 291.65 224.65 289.7 241.4 Q291.95 240.2 294.2 238.95 L286.35 254.75 296.25 256.95 289.2 261.0 M300.45 285.05 L300.0 285.05 Q296.45 285.0 295.1 286.3 294.2 287.1 294.25 288.45 L294.25 288.55 294.15 288.45 292.75 286.8 292.05 286.5 Q286.65 280.15 276.05 274.85 L263.35 272.15 262.95 272.4 261.2 273.15 Q258.55 274.35 256.0 275.9 L253.85 277.0 253.55 277.1 M249.3 280.1 L248.7 280.9 247.55 282.1 M245.0 283.75 L245.6 279.2 245.9 275.8 M202.7 307.4 L200.55 309.8 200.45 309.9 198.65 311.9 197.45 313.25 M289.7 241.4 L289.45 243.6 M287.0 232.4 L285.85 228.25 M268.8 201.7 L270.45 204.4 M268.8 201.7 L264.8 195.35 257.25 229.4 257.25 229.45 256.05 234.75 256.05 234.8 255.95 235.25 253.6 227.35 Q250.85 236.4 246.9 245.45 L245.2 249.25 Q240.2 259.8 233.5 270.4 L231.55 273.4 230.2 276.0 M257.35 241.35 L256.75 238.1 255.95 235.25 M272.7 253.15 L275.55 249.8 M274.55 268.9 Q269.85 269.65 265.35 271.35 L264.95 271.5 264.9 271.55 263.35 272.15 M282.6 268.15 L274.55 268.9 M276.05 274.85 L276.8 274.8 Q283.65 274.55 295.65 281.1 M272.7 253.15 L249.3 280.1 M285.45 256.5 L286.35 254.75 M220.1 275.35 L226.5 255.2 Q222.45 258.9 218.6 263.75 L213.35 271.0 207.55 280.85 204.3 287.2 203.6 288.55 198.2 301.15 198.15 301.3 198.1 301.4 197.95 301.95 Q197.45 303.2 194.55 305.2 L193.1 306.2 M217.75 281.0 L220.1 275.35 222.35 273.9 222.45 273.85 Q225.7 271.75 228.9 269.6 L226.85 275.45 231.55 273.4 M226.85 275.45 L225.5 279.45 M204.0 306.4 L202.7 307.4" ffdec:has-small-stroke="true" ffdec:original-stroke-width="0.05" fill="none" stroke="#432e0c" stroke-linecap="round" stroke-linejoin="round" stroke-width="1.0"/>
    <path d="M289.2 261.0 L293.05 263.95 Q298.15 268.2 302.1 273.55 306.5 279.4 309.5 286.7 303.95 285.25 300.45 285.05" ffdec:has-small-stroke="true" ffdec:original-stroke-width="0.05" fill="none" stroke="#966d55" stroke-linecap="round" stroke-linejoin="round" stroke-width="1.0"/>
  </g>
</svg>
