<?xml version="1.0" encoding="UTF-8" standalone="no"?>
<svg xmlns:ffdec="https://www.free-decompiler.com/flash" xmlns:xlink="http://www.w3.org/1999/xlink" ffdec:objectType="shape" height="78.55px" width="116.05px" xmlns="http://www.w3.org/2000/svg">
  <g transform="matrix(1.0, 0.0, 0.0, 1.0, -228.2, -185.8)">
    <path d="M322.35 216.7 L333.4 221.2 337.65 221.3 Q339.85 223.15 341.35 225.75 312.85 230.6 288.6 228.8 288.45 236.5 295.85 240.6 283.45 239.3 273.0 234.55 265.85 231.3 254.65 223.7 247.15 218.6 240.6 223.65 235.4 227.65 231.8 237.15 L231.6 236.65 Q225.5 222.95 230.55 218.2 235.2 213.8 245.15 209.2 L246.15 208.7 262.1 204.1 Q278.55 199.25 281.25 198.05 285.55 196.15 288.2 191.3 288.8 193.2 288.75 195.8 288.6 202.05 283.6 205.2 L285.25 205.3 285.65 205.3 286.9 205.25 289.25 204.9 300.6 203.35 Q308.5 201.55 310.05 189.35 313.05 191.3 314.75 194.1 320.2 203.15 311.75 208.55 L311.3 208.8 311.75 208.6 Q325.9 203.55 332.0 204.15 334.4 205.55 336.15 207.9 332.2 208.05 328.5 209.4 322.4 211.65 321.3 216.3 L321.2 216.75 322.35 216.7" fill="url(#gradient0)" fill-rule="evenodd" stroke="none"/>
    <path d="M231.8 237.15 Q235.4 227.65 240.6 223.65 247.15 218.6 254.65 223.7 265.85 231.3 273.0 234.55 283.45 239.3 295.85 240.6 288.45 236.5 288.6 228.8 312.85 230.6 341.35 225.75 343.3 229.05 344.2 233.6 338.0 229.5 332.45 229.85 326.9 230.15 323.7 234.65 325.65 262.4 297.55 264.3 L304.6 261.3 Q289.75 264.3 274.4 256.9 272.05 255.8 263.25 250.8 257.95 247.85 254.65 246.8 L253.9 246.55 253.85 246.6 Q251.05 244.7 247.7 240.15 248.05 248.0 254.4 255.85 L254.5 255.95 Q250.25 254.45 245.8 251.8 236.0 245.95 231.8 237.15" fill="url(#gradient1)" fill-rule="evenodd" stroke="none"/>
    <path d="M337.65 221.3 L333.4 221.2 322.35 216.7 Q332.1 216.55 337.65 221.3" fill="url(#gradient2)" fill-rule="evenodd" stroke="none"/>
    <path d="M332.0 204.15 Q325.9 203.55 311.75 208.6 L317.65 205.7 Q322.45 203.3 324.35 202.9 328.15 202.0 331.7 203.95 L332.0 204.15" fill="url(#gradient3)" fill-rule="evenodd" stroke="none"/>
    <path d="M288.2 191.3 Q285.55 196.15 281.25 198.05 278.55 199.25 262.1 204.1 L246.15 208.7 Q248.65 207.55 251.45 206.45 259.4 203.15 274.3 197.95 280.4 195.6 282.3 194.15 284.75 192.2 286.15 188.05 287.55 189.25 288.2 191.3" fill="url(#gradient4)" fill-rule="evenodd" stroke="none"/>
    <path d="M310.05 189.35 Q308.5 201.55 300.6 203.35 L289.25 204.9 289.4 204.9 Q295.9 203.5 299.6 198.05 301.3 195.55 300.85 191.65 300.3 187.6 297.95 185.95 301.65 185.4 306.65 187.55 L310.05 189.35" fill="url(#gradient5)" fill-rule="evenodd" stroke="none"/>
    <path d="M253.85 246.6 L253.9 246.55 253.9 246.6 253.85 246.6" fill="url(#gradient6)" fill-rule="evenodd" stroke="none"/>
    <path d="M253.9 246.6 Q255.75 250.0 258.45 257.05 L254.5 255.95 254.4 255.85 Q248.05 248.0 247.7 240.15 251.05 244.7 253.85 246.6 L253.9 246.6" fill="url(#gradient7)" fill-rule="evenodd" stroke="none"/>
    <path d="M337.65 221.3 Q332.1 216.55 322.35 216.7 L321.2 216.75 321.3 216.3 Q322.4 211.65 328.5 209.4 332.2 208.05 336.15 207.9 334.4 205.55 332.0 204.15 L331.7 203.95 Q328.15 202.0 324.35 202.9 322.45 203.3 317.65 205.7 L311.75 208.6 311.3 208.8 311.75 208.55 Q320.2 203.15 314.75 194.1 313.05 191.3 310.05 189.35 L306.65 187.55 Q301.65 185.4 297.95 185.95 300.3 187.6 300.85 191.65 301.3 195.55 299.6 198.05 295.9 203.5 289.4 204.9 L289.25 204.9 M285.65 205.3 L285.25 205.3 283.6 205.2 Q288.6 202.05 288.75 195.8 288.8 193.2 288.2 191.3 287.55 189.25 286.15 188.05 284.75 192.2 282.3 194.15 280.4 195.6 274.3 197.95 259.4 203.15 251.45 206.45 248.65 207.55 246.15 208.7 L245.15 209.2 Q235.2 213.8 230.55 218.2 225.5 222.95 231.6 236.65 L231.8 237.15 Q236.0 245.95 245.8 251.8 250.25 254.45 254.5 255.95 L258.45 257.05 Q255.75 250.0 253.9 246.6 L253.9 246.55 254.65 246.8 253.9 246.6 253.85 246.6 M341.35 225.75 Q339.85 223.15 337.65 221.3 M341.35 225.75 Q343.3 229.05 344.2 233.6 338.0 229.5 332.45 229.85 326.9 230.15 323.7 234.65 325.65 262.4 297.55 264.3 L304.6 261.3 Q289.75 264.3 274.4 256.9 272.05 255.8 263.25 250.8 257.95 247.85 254.65 246.8" ffdec:has-small-stroke="true" ffdec:original-stroke-width="0.1" fill="none" stroke="#cb9545" stroke-linecap="round" stroke-linejoin="round" stroke-width="1.0"/>
    <path d="M289.25 204.9 L286.9 205.25 285.65 205.3" ffdec:has-small-stroke="true" ffdec:original-stroke-width="0.25" fill="none" stroke="#a7762e" stroke-linecap="round" stroke-linejoin="round" stroke-width="1.0"/>
  </g>
  <defs>
    <linearGradient gradientTransform="matrix(0.0798, 0.0, 0.0, 0.0334, 269.8, 212.0)" gradientUnits="userSpaceOnUse" id="gradient0" spreadMethod="pad" x1="-819.2" x2="819.2">
      <stop offset="0.0" stop-color="#daaf72"/>
      <stop offset="1.0" stop-color="#fffbb7"/>
    </linearGradient>
    <linearGradient gradientTransform="matrix(0.0686, 0.0, 0.0, 0.0264, 288.0, 242.8)" gradientUnits="userSpaceOnUse" id="gradient1" spreadMethod="pad" x1="-819.2" x2="819.2">
      <stop offset="0.0" stop-color="#eed88f"/>
      <stop offset="1.0" stop-color="#fffbb7"/>
    </linearGradient>
    <linearGradient gradientTransform="matrix(0.022, 0.0119, -0.014, 0.0261, 352.2, 175.2)" gradientUnits="userSpaceOnUse" id="gradient2" spreadMethod="pad" x1="-819.2" x2="819.2">
      <stop offset="0.0" stop-color="#e4c277"/>
      <stop offset="1.0" stop-color="#ecd48a"/>
    </linearGradient>
    <linearGradient gradientTransform="matrix(0.0232, -0.0095, 0.0113, 0.0275, 301.95, 157.35)" gradientUnits="userSpaceOnUse" id="gradient3" spreadMethod="pad" x1="-819.2" x2="819.2">
      <stop offset="0.0" stop-color="#d8a65a"/>
      <stop offset="1.0" stop-color="#ecd48a"/>
    </linearGradient>
    <linearGradient gradientTransform="matrix(0.0137, -0.0068, 0.0149, 0.0298, 275.9, 211.85)" gradientUnits="userSpaceOnUse" id="gradient4" spreadMethod="pad" x1="-819.2" x2="819.2">
      <stop offset="0.0" stop-color="#ecd48a"/>
      <stop offset="1.0" stop-color="#c98a2e" stop-opacity="0.8"/>
    </linearGradient>
    <linearGradient gradientTransform="matrix(-0.0042, 0.0086, -0.0267, -0.0129, 321.55, 211.9)" gradientUnits="userSpaceOnUse" id="gradient5" spreadMethod="pad" x1="-819.2" x2="819.2">
      <stop offset="0.0" stop-color="#ecd48a"/>
      <stop offset="1.0" stop-color="#c98a2e" stop-opacity="0.8"/>
    </linearGradient>
    <linearGradient gradientTransform="matrix(0.0587, 0.0, 0.0, 0.0334, 293.25, 213.2)" gradientUnits="userSpaceOnUse" id="gradient6" spreadMethod="pad" x1="-819.2" x2="819.2">
      <stop offset="0.0" stop-color="#c98a2e"/>
      <stop offset="1.0" stop-color="#ecd48a"/>
    </linearGradient>
    <linearGradient gradientTransform="matrix(0.0587, 0.0, 0.0, 0.0334, 293.25, 213.2)" gradientUnits="userSpaceOnUse" id="gradient7" spreadMethod="pad" x1="-819.2" x2="819.2">
      <stop offset="0.0" stop-color="#ecd48a"/>
      <stop offset="0.3333333333333333" stop-color="#c98a2e"/>
    </linearGradient>
  </defs>
</svg>
